<?xml version="1.0" encoding="iso-8859-1"?>
<!-- Generator: Adobe Illustrator 15.1.0, SVG Export Plug-In . SVG Version: 6.00 Build 0)  -->
<!DOCTYPE svg PUBLIC "-//W3C//DTD SVG 1.1//EN" "http://www.w3.org/Graphics/SVG/1.1/DTD/svg11.dtd">
<svg version="1.1" id="Layer_1" xmlns="http://www.w3.org/2000/svg" xmlns:xlink="http://www.w3.org/1999/xlink" x="0px" y="0px"
	 width="25.65px" height="136.25px" viewBox="0 0 25.65 136.25" style="enable-background:new 0 0 25.65 136.25;"
	 xml:space="preserve">
<g>
	<path style="fill-rule:evenodd;clip-rule:evenodd;fill:#CCD9E0;" d="M23.75,55.55c-0.1-0.033-0.217-0.05-0.35-0.05
		c-0.267,0-0.517,0.05-0.75,0.15L22.6,55.5c-0.1,0.1-0.183,0.183-0.25,0.25C22.217,55.817,22.1,55.9,22,56
		c0.1-0.6,0.134-1.433,0.1-2.5l-0.75-0.3c0.267-0.5,0.367-1.067,0.301-1.7c-0.067-0.667-0.467-1.25-1.2-1.75
		c-0.867-0.667-1.384-1.167-1.55-1.5c-0.2-0.433-0.25-1.167-0.15-2.2c0.134-1.233,0.184-2,0.15-2.3
		c-0.067-0.6-0.384-1.083-0.95-1.45c-0.733-0.533-1.2-0.933-1.4-1.2c-0.233-0.333-0.366-0.65-0.399-0.95
		c-0.034-0.133-0.051-0.5-0.051-1.1v-7.8c0.034-0.433,0.067-0.833,0.101-1.2c0.066-0.267,0.133-0.5,0.2-0.7
		c0.5-1.633,0.733-3.233,0.699-4.8c0.034-1.033,0.067-1.816,0.101-2.35c0-0.934-0.084-1.717-0.25-2.35
		c-0.267-0.833-0.667-1.6-1.2-2.3c-0.767-1-1.4-1.1-1.9-0.3v2.5c0,0.733,0.034,1.817,0.101,3.25c0,0.133,0,0.25,0,0.35
		c-0.134-0.2-0.217-0.383-0.25-0.55L13.6,20.5L15.1,0c0,1.033-0.083,2.783-0.25,5.25c-0.1,2.233,0.017,3.967,0.351,5.2
		c0.133,0.533,0.467,1.283,1,2.25c0.5,0.966,0.816,1.733,0.95,2.3l1.1,4.5c1.366,5.167,1.7,11.333,1,18.5
		c-0.267,2.633-0.134,5.133,0.4,7.5c0.267,1.267,0.616,2.233,1.05,2.9c0.166,0.267,0.816,1.1,1.95,2.5c0.699,0.833,1.066,2,1.1,3.5
		C23.75,54.7,23.75,55.083,23.75,55.55z M6.55,120.5l-0.45-0.7c0-0.2,0-0.383,0-0.55c-0.133-2.333-0.217-4.083-0.25-5.25l-2.15-0.95
		c-0.067-0.866-0.1-1.767-0.1-2.7c0.066-1.5,0.117-2.649,0.15-3.449c0-0.634,0-1.2,0-1.7c0.167-0.167,0.317-0.384,0.45-0.65
		c0.367-0.833,0.55-1.983,0.55-3.45c-0.1-1.666-0.15-2.866-0.15-3.6c0.033-2.167-0.033-3.75-0.2-4.75
		c-0.066-0.4-0.15-0.767-0.25-1.1H4.2c0.966,0.033,1.65-0.051,2.05-0.25c0.467-0.167,0.983-0.551,1.55-1.15c0,0.033,0,0.066,0,0.1
		c0.167,1.834,0.45,3.117,0.85,3.851c-0.066-0.8-0.033-2.25,0.1-4.351c0-0.267,0.017-0.517,0.05-0.75
		c0.267-0.399,0.55-0.833,0.85-1.3c0.733-1.233,1.117-2.75,1.15-4.55c0.034-1.7-0.316-2.983-1.05-3.85
		c0.033-0.167,0.067-0.301,0.1-0.4c0.133-0.4,0.383-0.733,0.75-1c0.233-0.2,0.533-0.3,0.9-0.3c0.433-0.066,0.733-0.134,0.9-0.2
		c0.6-0.267,0.883-1.033,0.85-2.3c-0.134-1.467-0.167-2.434-0.1-2.9c0.466-0.066,1.183-0.083,2.149-0.05
		c0.134-0.4,0.184-1.017,0.15-1.85c-0.066-1.101-0.101-1.717-0.101-1.851c0.2-2,0.284-3.5,0.25-4.5V59
		c-0.066-1.533-0.1-2.717-0.1-3.55c0-1.434,0.134-2.6,0.4-3.5c0.1,0,0.199,0.017,0.3,0.05c-0.334,0.5-0.533,1.033-0.601,1.6
		c-0.133,0.867,0.117,1.65,0.75,2.35c0.4,0.433,0.867,0.767,1.4,1c0,0.133-0.017,0.283-0.05,0.45
		c-0.066,0.567-0.101,1.934-0.101,4.1c0,1.5-0.05,3.8-0.149,6.9c0,2.734,0.184,5.017,0.55,6.85c0.533,3.033,0.7,5.45,0.5,7.25
		c-0.033,0.333-0.083,1.116-0.15,2.35c-0.1,1.167-0.3,1.9-0.6,2.2c-1.2,1.334-2.017,0.767-2.45-1.7c-0.1-0.5-0.184-0.949-0.25-1.35
		c0.867,0.366,1.3-0.316,1.3-2.05c0.134-2.066,0.184-3.65,0.15-4.75c-0.066-2-0.533-3.4-1.4-4.2l-0.75,2.75
		c-0.066,0.2-0.25,0.6-0.55,1.2c-0.267,0.467-0.416,0.916-0.45,1.35c-0.033,0.566,0.067,1.3,0.301,2.2c0.033,0.4,0.066,1,0.1,1.8
		c0.033,0.2,0.083,0.4,0.15,0.601c-1.567-0.2-2.583,0.666-3.05,2.6c-0.3,1.233-0.383,3.434-0.25,6.6c0.133,3.233,0.1,5.367-0.1,6.4
		c-0.367,1.8-1.3,2.434-2.8,1.9c0-1.5-0.067-2.617-0.2-3.351c-0.467,0.367-0.75,0.934-0.85,1.7c-0.033,0.267-0.05,0.983-0.05,2.15
		v10c0,0.8,0.133,2.716,0.4,5.75C7.033,118.384,6.883,119.667,6.55,120.5z"/>
	
		<linearGradient id="SVGID_1_" gradientUnits="userSpaceOnUse" x1="-1.3628" y1="-14.7349" x2="123.3372" y2="-14.7349" gradientTransform="matrix(8.019247e-006 1 -1 -0.001 1.677506e-004 4.648918e-005)">
		<stop  offset="0" style="stop-color:#FFFFFF"/>
		<stop  offset="1" style="stop-color:#D2DDE3"/>
	</linearGradient>
	<path style="fill-rule:evenodd;clip-rule:evenodd;fill:url(#SVGID_1_);" d="M13.95,23.35c0,0.8-0.033,1.5-0.101,2.1
		c-0.166-2.233-0.25-3.883-0.25-4.95l0.101,2.3C13.733,22.967,13.816,23.15,13.95,23.35z M21.35,53.2l-1-0.45
		c-0.166-1-0.616-1.667-1.35-2c-0.767-0.367-1.5-0.183-2.2,0.55c-0.233,0.233-0.434,0.467-0.6,0.7c-0.101-0.033-0.2-0.05-0.3-0.05
		c-0.267,0.9-0.4,2.066-0.4,3.5c0,0.833,0.033,2.017,0.1,3.55v5.05c0.034,1-0.05,2.5-0.25,4.5c0,0.133,0.034,0.75,0.101,1.851
		c0.033,0.833-0.017,1.449-0.15,1.85c-0.967-0.033-1.684-0.017-2.149,0.05c-0.067,0.467-0.034,1.434,0.1,2.9
		c0.033,1.267-0.25,2.033-0.85,2.3c-0.167,0.066-0.467,0.134-0.9,0.2c-0.367,0-0.667,0.1-0.9,0.3c-0.367,0.267-0.617,0.6-0.75,1
		c-0.033,0.1-0.067,0.233-0.1,0.4c-0.133-0.134-0.267-0.267-0.4-0.4L8.8,79.1C8.933,78.9,9.05,78.7,9.15,78.5
		c0.1-0.167,0.117-0.483,0.05-0.95c-0.034-0.533-0.034-0.883,0-1.05c0.466-0.934,0.783-1.616,0.95-2.05
		c0.733-1.566,1.2-2.717,1.4-3.45c0.367-1.3,0.566-2.867,0.601-4.7c-0.034-2.133-0.051-3.733-0.051-4.8V47.35
		c-0.033-2.5-0.05-4.383-0.05-5.65c-0.033-2.034-0.017-3.75,0.05-5.15c0.101,0,0.2,0,0.301,0L12.6,42c0,1.067,0.051,1.8,0.15,2.2
		c0.233,0.833,0.717,1.267,1.45,1.3c0.666,0.033,1.149-0.233,1.45-0.8c0.233-0.467,0.316-1.067,0.25-1.8
		c-0.134-1.267-0.483-2.583-1.051-3.95c-0.5-1.1-1.033-1.9-1.6-2.4c0.333-0.066,0.616-0.167,0.85-0.3
		c0.667-0.433,1.084-1.2,1.25-2.3c0.034-0.333,0.051-0.917,0.051-1.75c0.1-0.2,0.199-0.434,0.3-0.7c0.2-0.567,0.366-1.05,0.5-1.45
		c-0.033,0.367-0.066,0.767-0.101,1.2v7.8c0,0.6,0.017,0.967,0.051,1.1c0.033,0.3,0.166,0.617,0.399,0.95
		c0.2,0.267,0.667,0.667,1.4,1.2c0.566,0.367,0.883,0.85,0.95,1.45c0.033,0.3-0.017,1.067-0.15,2.3c-0.1,1.034-0.05,1.767,0.15,2.2
		c0.166,0.333,0.683,0.833,1.55,1.5c0.733,0.5,1.133,1.083,1.2,1.75C21.717,52.133,21.616,52.7,21.35,53.2z M8.8,89.1
		c-0.033,0.233-0.05,0.483-0.05,0.75C8.617,91.95,8.583,93.4,8.65,94.2c-0.4-0.733-0.683-2.017-0.85-3.851c0-0.033,0-0.066,0-0.1
		C8.1,89.917,8.433,89.533,8.8,89.1z"/>
	
		<linearGradient id="SVGID_2_" gradientUnits="userSpaceOnUse" x1="16.5098" y1="-15.0732" x2="33.7598" y2="-15.0732" gradientTransform="matrix(5.797102e-005 1 -1 -0.001 -4.064505e-004 4.648918e-005)">
		<stop  offset="0" style="stop-color:#FFFFFF"/>
		<stop  offset="1" style="stop-color:#D2DDE3"/>
	</linearGradient>
	<path style="fill-rule:evenodd;clip-rule:evenodd;fill:url(#SVGID_2_);" d="M13.85,25.45c0.067-0.6,0.101-1.3,0.101-2.1
		c0-0.1,0-0.217,0-0.35c-0.066-1.433-0.101-2.517-0.101-3.25v-2.5c0.5-0.8,1.134-0.7,1.9,0.3c0.533,0.7,0.934,1.467,1.2,2.3
		c0.166,0.633,0.25,1.417,0.25,2.35c-0.033,0.533-0.066,1.316-0.101,2.35c0.034,1.567-0.199,3.167-0.699,4.8
		c-0.067,0.2-0.134,0.433-0.2,0.7c-0.134,0.4-0.3,0.883-0.5,1.45c-0.101,0.267-0.2,0.5-0.3,0.7c-0.034-0.3-0.051-0.617-0.051-0.95
		l-2,0.25H13.3c-0.133,0-0.25,0.017-0.35,0.05c0.1-1.066,0.166-1.733,0.2-2c0.033-0.533,0.216-1.633,0.55-3.3
		C13.767,26.017,13.816,25.75,13.85,25.45z"/>
	
		<linearGradient id="SVGID_3_" gradientUnits="userSpaceOnUse" x1="31.1621" y1="-13.3657" x2="36.6121" y2="-13.3657" gradientTransform="matrix(1.834862e-004 1 -1 -0.001 -5.904800e-005 4.625879e-005)">
		<stop  offset="0" style="stop-color:#FFFFFF"/>
		<stop  offset="1" style="stop-color:#D2DDE3"/>
	</linearGradient>
	<path style="fill-rule:evenodd;clip-rule:evenodd;fill:url(#SVGID_3_);" d="M15.4,32.2c0,0.833-0.017,1.417-0.051,1.75
		c-0.166,1.1-0.583,1.867-1.25,2.3c-0.233,0.133-0.517,0.233-0.85,0.3c-0.3-0.267-0.6-0.45-0.9-0.55l0.051,0.55
		c-0.101,0-0.2,0-0.301,0c-0.167-0.033-0.316-0.066-0.45-0.1c-0.233-1.267-0.333-2.1-0.3-2.5c0.066-0.567,0.267-1.1,0.6-1.6
		c0.3-0.434,0.633-0.7,1-0.8c0.1-0.033,0.217-0.05,0.35-0.05h0.05l2-0.25C15.35,31.583,15.366,31.9,15.4,32.2z"/>
	
		<linearGradient id="SVGID_4_" gradientUnits="userSpaceOnUse" x1="35.8613" y1="-14.1318" x2="45.6113" y2="-14.1318" gradientTransform="matrix(1.025641e-004 1 -1 -0.001 1.154612e-004 4.554354e-005)">
		<stop  offset="0" style="stop-color:#FFFFFF"/>
		<stop  offset="1" style="stop-color:#D2DDE3"/>
	</linearGradient>
	<path style="fill-rule:evenodd;clip-rule:evenodd;fill:url(#SVGID_4_);" d="M13.25,36.55c0.566,0.5,1.1,1.3,1.6,2.4
		c0.567,1.367,0.917,2.683,1.051,3.95c0.066,0.733-0.017,1.333-0.25,1.8c-0.301,0.566-0.784,0.833-1.45,0.8
		c-0.733-0.033-1.217-0.467-1.45-1.3c-0.1-0.4-0.15-1.133-0.15-2.2L12.4,36.55L12.35,36C12.65,36.1,12.95,36.283,13.25,36.55z"/>
	
		<linearGradient id="SVGID_5_" gradientUnits="userSpaceOnUse" x1="50.5059" y1="-18.8311" x2="57.4559" y2="-18.8311" gradientTransform="matrix(1.438849e-004 1 -1 -0.001 2.288904e-004 4.648918e-005)">
		<stop  offset="0" style="stop-color:#FFFFFF"/>
		<stop  offset="1" style="stop-color:#D2DDE3"/>
	</linearGradient>
	<path style="fill-rule:evenodd;clip-rule:evenodd;fill:url(#SVGID_5_);" d="M17.75,56.95c-0.533-0.233-1-0.567-1.4-1
		c-0.633-0.7-0.883-1.483-0.75-2.35c0.067-0.567,0.267-1.1,0.601-1.6c0.166-0.233,0.366-0.467,0.6-0.7
		c0.7-0.733,1.434-0.917,2.2-0.55c0.733,0.333,1.184,1,1.35,2l1,0.45l0.75,0.3c0.034,1.067,0,1.9-0.1,2.5
		c-0.167,0.1-0.316,0.217-0.45,0.35c-0.233,0.233-0.434,0.533-0.6,0.9c-0.101,0-0.184,0-0.25,0c-0.767,0.167-1.55,0.133-2.351-0.1
		C18.15,57.083,17.95,57.017,17.75,56.95z"/>
	
		<linearGradient id="SVGID_6_" gradientUnits="userSpaceOnUse" x1="55.4531" y1="-22.481" x2="58.4031" y2="-22.481" gradientTransform="matrix(3.389831e-004 1 -1 -0.001 4.533349e-004 4.342187e-005)">
		<stop  offset="0" style="stop-color:#FFFFFF"/>
		<stop  offset="1" style="stop-color:#D2DDE3"/>
	</linearGradient>
	<path style="fill-rule:evenodd;clip-rule:evenodd;fill:url(#SVGID_6_);" d="M22.65,55.65c-0.101,0.033-0.2,0.067-0.301,0.1
		c0.067-0.067,0.15-0.15,0.25-0.25L22.65,55.65z"/>
	
		<linearGradient id="SVGID_7_" gradientUnits="userSpaceOnUse" x1="55.4023" y1="-22.6406" x2="61.0523" y2="-22.6406" gradientTransform="matrix(1.769912e-004 1 -1 -0.001 -4.380362e-004 4.459789e-005)">
		<stop  offset="0" style="stop-color:#FFFFFF"/>
		<stop  offset="1" style="stop-color:#D2DDE3"/>
	</linearGradient>
	<path style="fill-rule:evenodd;clip-rule:evenodd;fill:url(#SVGID_7_);" d="M22.35,55.75c0.101-0.033,0.2-0.067,0.301-0.1
		c0.233-0.1,0.483-0.15,0.75-0.15c0.133,0,0.25,0.017,0.35,0.05c1,0.067,1.333,0.767,1,2.1c-0.1,0.5-0.25,1.117-0.45,1.85
		c-0.133,0.433-0.283,0.933-0.45,1.5l-0.5-1.5c-0.333,0-0.633,0-0.899,0c-0.101,0-0.184,0-0.25,0c-0.7,0-1.084-0.017-1.15-0.05
		c-0.666-0.167-0.8-0.733-0.399-1.7c0.1-0.2,0.199-0.367,0.3-0.5c0.166-0.367,0.366-0.667,0.6-0.9C21.684,56.217,21.833,56.1,22,56
		C22.1,55.9,22.217,55.817,22.35,55.75z"/>
	
		<linearGradient id="SVGID_8_" gradientUnits="userSpaceOnUse" x1="58.627" y1="-23.2178" x2="70.427" y2="-23.2178" gradientTransform="matrix(8.474577e-005 1 -1 -0.001 -1.307474e-004 4.554354e-005)">
		<stop  offset="0" style="stop-color:#FFFFFF"/>
		<stop  offset="1" style="stop-color:#D2DDE3"/>
	</linearGradient>
	<path style="fill-rule:evenodd;clip-rule:evenodd;fill:url(#SVGID_8_);" d="M24.3,59.5h0.05c0,0.3,0.034,2.3,0.101,6
		c-0.101,3.467-0.617,5.05-1.55,4.75c-0.101-0.6-0.117-1.467-0.051-2.6c0.067-1.2,0.067-2.066,0-2.6
		c-0.366-1.333-0.616-2.4-0.75-3.2c-0.166-0.967-0.133-1.75,0.101-2.35c0.066,0,0.149,0,0.25,0c0.267,0,0.566,0,0.899,0l0.5,1.5
		C24.017,60.433,24.167,59.933,24.3,59.5z"/>
	
		<linearGradient id="SVGID_9_" gradientUnits="userSpaceOnUse" x1="73.1885" y1="-23.9492" x2="74.7635" y2="-23.9492" gradientTransform="matrix(6.349205e-004 1 -1 -0.001 3.396047e-004 4.367635e-005)">
		<stop  offset="0" style="stop-color:#FFFFFF"/>
		<stop  offset="1" style="stop-color:#D2DDE3"/>
	</linearGradient>
	<path style="fill-rule:evenodd;clip-rule:evenodd;fill:url(#SVGID_9_);" d="M23.35,73.5l1.25-0.25c0.067,0.5,0.067,0.983,0,1.45
		C23.7,74.967,23.283,74.566,23.35,73.5z"/>
	
		<linearGradient id="SVGID_10_" gradientUnits="userSpaceOnUse" x1="72.8604" y1="-14.9199" x2="84.2104" y2="-14.9199" gradientTransform="matrix(8.810573e-005 1 -1 -0.001 9.952433e-006 4.554354e-005)">
		<stop  offset="0" style="stop-color:#FFFFFF"/>
		<stop  offset="1" style="stop-color:#D2DDE3"/>
	</linearGradient>
	<path style="fill-rule:evenodd;clip-rule:evenodd;fill:url(#SVGID_10_);" d="M15.05,84c-0.133-0.066-0.283-0.15-0.45-0.25
		c-0.333-0.2-0.566-0.483-0.699-0.85c-0.067-0.2-0.117-0.4-0.15-0.601c-0.033-0.8-0.066-1.399-0.1-1.8
		c-0.233-0.9-0.334-1.634-0.301-2.2c0.034-0.434,0.184-0.883,0.45-1.35c0.3-0.601,0.483-1,0.55-1.2L15.1,73
		c0.867,0.8,1.334,2.2,1.4,4.2c0.033,1.1-0.017,2.684-0.15,4.75C16.35,83.684,15.917,84.366,15.05,84z"/>
	
		<linearGradient id="SVGID_11_" gradientUnits="userSpaceOnUse" x1="78.8564" y1="-6.1162" x2="91.8314" y2="-6.1162" gradientTransform="matrix(7.707129e-005 1 -1 -0.001 -4.080236e-004 4.554354e-005)">
		<stop  offset="0" style="stop-color:#FFFFFF"/>
		<stop  offset="1" style="stop-color:#D2DDE3"/>
	</linearGradient>
	<path style="fill-rule:evenodd;clip-rule:evenodd;fill:url(#SVGID_11_);" d="M9.75,79.4c0.733,0.866,1.083,2.149,1.05,3.85
		c-0.033,1.8-0.417,3.316-1.15,4.55c-0.3,0.467-0.583,0.9-0.85,1.3c-0.367,0.434-0.7,0.817-1,1.15c-0.566,0.6-1.083,0.983-1.55,1.15
		c-0.4,0.199-1.083,0.283-2.05,0.25H4.15C4.117,91.616,4.1,91.583,4.1,91.55c-0.267-0.8-0.633-1.467-1.1-2
		c-0.267,0.101-0.55,0.316-0.85,0.65c-0.133,0.133-0.267,0.3-0.4,0.5c-0.233-0.533-0.333-1.3-0.3-2.3c0-1.434,0.15-2.483,0.45-3.15
		c0.633-1.333,1.5-2.483,2.6-3.45c1.533-1.434,2.567-2.283,3.1-2.55l1.2-0.15L9.35,79C9.483,79.134,9.617,79.267,9.75,79.4z"/>
	
		<linearGradient id="SVGID_12_" gradientUnits="userSpaceOnUse" x1="88.5352" y1="-2.3721" x2="105.6602" y2="-2.3721" gradientTransform="matrix(5.839416e-005 1 -1 -0.001 1.334073e-004 4.554354e-005)">
		<stop  offset="0" style="stop-color:#FFFFFF"/>
		<stop  offset="1" style="stop-color:#D2DDE3"/>
	</linearGradient>
	<path style="fill-rule:evenodd;clip-rule:evenodd;fill:url(#SVGID_12_);" d="M4.15,91.65c0.1,0.333,0.184,0.699,0.25,1.1
		c0.167,1,0.233,2.583,0.2,4.75c0,0.733,0.05,1.934,0.15,3.6c0,1.467-0.183,2.617-0.55,3.45c-0.133,0.267-0.284,0.483-0.45,0.65
		c-0.4,0.3-0.9,0.333-1.5,0.1c-0.833-0.366-1.433-0.967-1.8-1.8c-0.434-0.866-0.55-1.967-0.35-3.3c0.167-1.066,0.25-2.334,0.25-3.8
		c-0.033-0.9-0.033-1.567,0-2c0.033-0.767,0.167-1.417,0.4-1.95C0.983,91.85,1.3,91.267,1.7,90.7h0.05
		c0.133-0.2,0.267-0.367,0.4-0.5c0.3-0.334,0.583-0.55,0.85-0.65c0.467,0.533,0.833,1.2,1.1,2C4.1,91.583,4.117,91.616,4.15,91.65z"
		/>
	
		<linearGradient id="SVGID_13_" gradientUnits="userSpaceOnUse" x1="87.4453" y1="-17.168" x2="89.9203" y2="-17.168" gradientTransform="matrix(4.040404e-004 1 -1 -0.001 3.875450e-004 4.508276e-005)">
		<stop  offset="0" style="stop-color:#FFFFFF"/>
		<stop  offset="1" style="stop-color:#D2DDE3"/>
	</linearGradient>
	<path style="fill-rule:evenodd;clip-rule:evenodd;fill:url(#SVGID_13_);" d="M16.35,88.85c0.067-0.399,0.233-0.683,0.5-0.85
		l1.25-0.5c0,0.634-0.083,1.184-0.25,1.65c-0.267,0.767-0.683,0.949-1.25,0.55C16.333,89.533,16.25,89.25,16.35,88.85z"/>
	
		<linearGradient id="SVGID_14_" gradientUnits="userSpaceOnUse" x1="91.1699" y1="-17.8174" x2="94.9949" y2="-17.8174" gradientTransform="matrix(2.614379e-004 1 -1 -0.001 -1.015903e-004 4.625879e-005)">
		<stop  offset="0" style="stop-color:#FFFFFF"/>
		<stop  offset="1" style="stop-color:#D2DDE3"/>
	</linearGradient>
	<path style="fill-rule:evenodd;clip-rule:evenodd;fill:url(#SVGID_14_);" d="M17.35,91.75l1.25-0.5
		c-0.033,0.2-0.149,0.934-0.35,2.2c-0.267,1.133-0.634,1.633-1.1,1.5C17.017,93.684,17.083,92.616,17.35,91.75z"/>
	
		<linearGradient id="SVGID_15_" gradientUnits="userSpaceOnUse" x1="78.4629" y1="-24.9434" x2="80.0879" y2="-24.9434" gradientTransform="matrix(6.153845e-004 1 -1 -0.001 -2.765222e-004 4.201545e-005)">
		<stop  offset="0" style="stop-color:#FFFFFF"/>
		<stop  offset="1" style="stop-color:#D2DDE3"/>
	</linearGradient>
	<path style="fill-rule:evenodd;clip-rule:evenodd;fill:url(#SVGID_15_);" d="M24.35,78.5h1.25c0.101,1.1-0.017,1.634-0.35,1.6
		C24.917,80.066,24.616,79.533,24.35,78.5z"/>
	
		<linearGradient id="SVGID_16_" gradientUnits="userSpaceOnUse" x1="112.8828" y1="-4.3042" x2="121.5078" y2="-4.3042" gradientTransform="matrix(1.159420e-004 1 -1 -0.001 1.718870e-004 4.554354e-005)">
		<stop  offset="0" style="stop-color:#FFFFFF"/>
		<stop  offset="1" style="stop-color:#D2DDE3"/>
	</linearGradient>
	<path style="fill-rule:evenodd;clip-rule:evenodd;fill:url(#SVGID_16_);" d="M6.1,119.8L5.6,119c-0.267,0-0.5,0.05-0.7,0.15
		c-0.233,0.1-0.417,0.267-0.55,0.5c-0.367-0.601-0.667-1.117-0.9-1.551c-1.267-2.133-1.217-3.833,0.15-5.1l0.1,0.05L5.85,114
		c0.033,1.167,0.117,2.917,0.25,5.25C6.1,119.417,6.1,119.6,6.1,119.8z"/>
	
		<linearGradient id="SVGID_17_" gradientUnits="userSpaceOnUse" x1="118.9316" y1="-5.5889" x2="125.3566" y2="-5.5889" gradientTransform="matrix(1.556420e-004 1 -1 -0.001 -2.692270e-004 4.459789e-005)">
		<stop  offset="0" style="stop-color:#FFFFFF"/>
		<stop  offset="1" style="stop-color:#D2DDE3"/>
	</linearGradient>
	<path style="fill-rule:evenodd;clip-rule:evenodd;fill:url(#SVGID_17_);" d="M6.55,120.5l0.3,0.5c0.6,0.7,0.683,1.7,0.25,3
		c-0.467,1.333-1.2,1.65-2.2,0.95c-0.767-0.533-1.117-1.65-1.05-3.351c0.033-0.866,0.2-1.517,0.5-1.949
		c0.133-0.233,0.316-0.4,0.55-0.5C5.1,119.05,5.333,119,5.6,119l0.5,0.8L6.55,120.5z"/>
	
		<linearGradient id="SVGID_18_" gradientUnits="userSpaceOnUse" x1="126.4814" y1="-6.1465" x2="128.4064" y2="-6.1465" gradientTransform="matrix(5.194805e-004 1 -1 -0.001 3.763891e-004 4.224584e-005)">
		<stop  offset="0" style="stop-color:#FFFFFF"/>
		<stop  offset="1" style="stop-color:#D2DDE3"/>
	</linearGradient>
	<path style="fill-rule:evenodd;clip-rule:evenodd;fill:url(#SVGID_18_);" d="M5.95,128.1c-0.034-0.033-0.067-0.066-0.1-0.1
		c-0.167-0.134-0.25-0.316-0.25-0.55c-0.033-0.066-0.033-0.15,0-0.25c0.066-0.3,0.233-0.533,0.5-0.7h0.75
		c0,0.8-0.017,1.283-0.05,1.45C6.667,128.45,6.383,128.5,5.95,128.1z"/>
	
		<linearGradient id="SVGID_19_" gradientUnits="userSpaceOnUse" x1="126.957" y1="-5.0762" x2="133.332" y2="-5.0762" gradientTransform="matrix(1.568628e-004 1 -1 -0.001 -4.927191e-005 4.459789e-005)">
		<stop  offset="0" style="stop-color:#FFFFFF"/>
		<stop  offset="1" style="stop-color:#D2DDE3"/>
	</linearGradient>
	<path style="fill-rule:evenodd;clip-rule:evenodd;fill:url(#SVGID_19_);" d="M5.95,128.1c0.133,0.334,0.216,0.733,0.25,1.2
		c0,0.033-0.034,0.934-0.1,2.7c0,0.6-0.1,0.983-0.3,1.15c-0.233,0.199-0.55,0.066-0.95-0.4c-0.5-0.6-0.783-1.65-0.85-3.15
		c-0.067-1.6,0.3-2.466,1.1-2.6c0.167,0.134,0.333,0.283,0.5,0.45c0,0.233,0.083,0.416,0.25,0.55
		C5.883,128.033,5.917,128.066,5.95,128.1z"/>
	
		<linearGradient id="SVGID_20_" gradientUnits="userSpaceOnUse" x1="134.4941" y1="-5.6934" x2="136.2941" y2="-5.6934" gradientTransform="matrix(5.555556e-004 1 -1 -0.001 -4.197424e-004 3.963930e-005)">
		<stop  offset="0" style="stop-color:#FFFFFF"/>
		<stop  offset="1" style="stop-color:#D2DDE3"/>
	</linearGradient>
	<path style="fill-rule:evenodd;clip-rule:evenodd;fill:url(#SVGID_20_);" d="M6.1,134.5v1c0.133,0.3,0.117,0.517-0.05,0.65
		c-0.133,0.1-0.35,0.116-0.65,0.05C5.233,135.1,5.467,134.533,6.1,134.5z"/>
</g>
</svg>
