<?xml version="1.0" encoding="iso-8859-1"?>
<!-- Generator: Adobe Illustrator 15.1.0, SVG Export Plug-In . SVG Version: 6.00 Build 0)  -->
<!DOCTYPE svg PUBLIC "-//W3C//DTD SVG 1.1//EN" "http://www.w3.org/Graphics/SVG/1.1/DTD/svg11.dtd">
<svg version="1.1" id="Layer_1" xmlns="http://www.w3.org/2000/svg" xmlns:xlink="http://www.w3.org/1999/xlink" x="0px" y="0px"
	 width="81px" height="188.8px" viewBox="0 0 81 188.8" style="enable-background:new 0 0 81 188.8;" xml:space="preserve">
<g>
	<path style="fill-rule:evenodd;clip-rule:evenodd;fill:#A79E94;" d="M40.95,3.05v0.4c0,2.4,0.133,6.7,0.399,12.9
		c0.267,5.467,0.351,9.767,0.25,12.9c-0.033,2.3-0.116,3.983-0.25,5.05c-0.267,2.3-0.767,3.867-1.5,4.7c-0.5,0.567-1.5,1.183-3,1.85
		c-1.267,0.566-2.184,1.383-2.75,2.45l-0.6,1.3c-0.067-2.7-0.017-4.867,0.15-6.5c0.2-2.367,0.667-4.35,1.4-5.95
		c0.133-0.333,0.467-0.767,1-1.3c0.5-0.5,0.817-1.017,0.95-1.55c0.067-0.267,0.083-0.7,0.05-1.3c-0.066-0.867-0.1-1.317-0.1-1.35
		V18.9c-0.034-1.4,0.216-3,0.75-4.8c0.733-2.5,1.15-4.033,1.25-4.6c0.2-1.367,0.2-3.15,0-5.35c-0.133-1.3-0.55-2.333-1.25-3.1
		c0.233,0.067,0.483,0.15,0.75,0.25c0.466,0.167,0.767,0.284,0.9,0.35C39.517,1.717,39.7,1.833,39.9,2c0.3,0.2,0.583,0.467,0.85,0.8
		C40.816,2.867,40.884,2.95,40.95,3.05z M45.3,40.35c0.066,0.2,0.134,0.417,0.2,0.65l-0.15-0.35V40.6L45.3,40.35z M52.4,75.5
		c-0.034-0.033-0.067-0.067-0.101-0.1c0-5.2-0.233-10.033-0.7-14.5c0.134,0.6,0.483,1.217,1.051,1.85l0.1,0.1
		c0.066,0.1,0.15,0.183,0.25,0.25c0.566,0.7,0.9,1.117,1,1.25s0.233,0.45,0.4,0.95c0.166,0.367,0.35,0.633,0.55,0.8
		c0.133-1.233-0.233-2.684-1.101-4.35V61.7c-0.033-0.034-0.05-0.067-0.05-0.1L53.45,61c-0.134-0.2-0.267-0.417-0.4-0.65
		c-0.133-0.2-0.267-0.383-0.399-0.55l-1.95-2.9c-0.566-1.066-0.934-2.583-1.101-4.55c0.034,0.066,0.067,0.133,0.101,0.2
		c0.033,0.034,0.083,0.083,0.149,0.15c0.034,0.066,0.084,0.15,0.15,0.25l2,2.25c0.134,0.133,0.267,0.267,0.4,0.4L52.8,56
		c0.5,0.567,0.9,1.1,1.2,1.6c1.066,1.933,1.616,3.517,1.65,4.75c0,0.9,0.216,2.117,0.649,3.65c0.134,0.833,0.184,1.933,0.15,3.3
		c-0.033,0.767-0.084,1.883-0.15,3.35c0,4.133,0.184,7.45,0.55,9.95c0.534,3.733,1.567,6.816,3.101,9.25
		c1.2,1.9,2.566,3.617,4.1,5.15c0.233,0.5,0.467,0.983,0.7,1.45l5.15,8.45c0.466,0.6,0.933,1.399,1.399,2.399l0.05,0.15
		c0.101,0.166,0.184,0.333,0.25,0.5c-0.267-0.101-0.566-0.217-0.899-0.351l-2-0.6c-1.334-0.333-2.101-0.55-2.3-0.65
		c2.699,1.733,4.433,3.733,5.199,6c0.334,1,0.517,2.367,0.551,4.101c0.033,2.366,0.066,3.767,0.1,4.2
		c0.267,2.933,0.4,6.216,0.4,9.85c0,0.533-0.017,1.316-0.051,2.35c-0.033,0.934-0.017,1.717,0.051,2.351
		c0.066,1.3,0.55,3.267,1.449,5.899c0.134,0.434,0.684,1.684,1.65,3.75c0.733,1.567,1.15,2.834,1.25,3.801
		c0.267,2.3,0.4,5.066,0.4,8.3c0,1.866-0.034,4.666-0.101,8.399c-0.066-1.033-0.399-1.5-1-1.399c-0.3,0.033-0.55,0.533-0.75,1.5
		c-0.133,0.767-0.467,0.916-1,0.45c-0.233-0.167-0.35-0.717-0.35-1.65c0.066-0.934,0.083-1.5,0.05-1.7c-0.233-2.7-0.55-5.1-0.95-7.2
		c-0.5-2.833-1.533-7.533-3.1-14.1c-0.101,0.4-0.184,1.017-0.25,1.85v-4.949c-0.066-1.101-0.117-1.983-0.15-2.65
		c-0.066-1.2,0.017-2.05,0.25-2.55c0.134-0.334,0.384-0.601,0.75-0.8c0.434-0.267,0.7-0.467,0.8-0.601
		c0.134-0.2,0.184-0.633,0.15-1.3c-0.033-0.7-0.05-1.134-0.05-1.3c-0.101-2.967-0.95-6.334-2.55-10.101
		c-0.867-2-2.467-5.1-4.801-9.3c-1.666-2.434-2.683-4.166-3.05-5.2c0.533,0.2,1.334,0.5,2.4,0.9c0.866,0.2,1.399-0.083,1.6-0.85
		c0.101-0.4-0.2-1.233-0.899-2.5c-0.767-1.334-1.2-2.117-1.301-2.351c-0.166-0.399-0.35-1.017-0.55-1.85
		c-0.166-0.834-0.35-1.434-0.55-1.8c-0.267-0.567-0.75-1.334-1.45-2.301c-0.767-1.033-1.283-1.8-1.55-2.3
		c-0.434-0.767-0.95-1.883-1.55-3.35c-0.667-1.6-1.15-2.717-1.45-3.35c-0.967-1.867-1.55-3.983-1.75-6.35
		c-0.1-1.333-0.25-2.267-0.45-2.8C53.533,76.683,53.066,76.033,52.4,75.5z M54.1,100.75c1,0.3,1.667,0.583,2,0.85
		c0.534,0.434,0.917,1.034,1.15,1.801c0.066,0.233,0.184,0.916,0.35,2.05c0.101,0.6,0.184,1.517,0.25,2.75l-1.149-1.3
		c-0.601-2.634-1.851-4-3.75-4.101l3.75,4.101c0.233,1.233,0.35,2.816,0.35,4.75c0,1.066-0.033,2.383-0.1,3.949
		c0,2.334,0.149,5.967,0.45,10.9c0.133,4.4-0.067,7.95-0.601,10.65c-0.033-0.067-0.066-0.117-0.1-0.15
		c0.399,3.267,0.666,5.267,0.8,6c-0.066,0.267-0.283,0.917-0.65,1.95c-0.3,0.8-0.483,1.45-0.55,1.95v-3.15
		c-0.133-1.7-0.217-3.05-0.25-4.05c-0.066-1.467,0.033-2.617,0.3-3.45c-1.6-3.366-2.55-7.783-2.85-13.25
		c-0.167-2.866-0.116-7.733,0.15-14.6c-0.467,5.267-0.733,11.433-0.801,18.5c0,4.133,0.034,10.316,0.101,18.55
		c0,1.767-0.117,4.416-0.351,7.95c-0.233,3.533-0.35,6.216-0.35,8.05c0,0.3,0.05,2.55,0.15,6.75c0.066,2.733,0.033,4.983-0.101,6.75
		c-0.166,1.967-0.483,4.233-0.95,6.8c-0.133,0.767-0.6,3.017-1.399,6.75l-3.25,0.3h-0.05c-0.034,0-0.084,0-0.15,0
		c-0.1,0-0.217,0-0.35,0v-0.05l-0.75-0.15l-0.25-0.75l0.5-1.949c0.233-0.934,0.399-2.117,0.5-3.551c0.1-1.833,0.183-3.017,0.25-3.55
		c0.166-1.166,0.6-3.333,1.3-6.5c0.566-2.7,0.934-4.866,1.1-6.5c0.134-1.2,0.167-2.916,0.101-5.149c-0.067-2.367-0.067-4.084,0-5.15
		c0.066-0.967,0.333-3.55,0.8-7.75c0.366-3.167,0.566-5.75,0.6-7.75v-13.6c-0.066-4.101-0.783-7.7-2.149-10.801
		c-0.167-0.399-0.75-1.3-1.75-2.699c-0.867-1.233-1.4-2.184-1.601-2.851c-0.166-0.633-0.184-1.616-0.05-2.95
		c0.167-1.5,0.233-2.483,0.2-2.949c-0.066-0.867-0.316-2.467-0.75-4.801c-0.367-1.966-0.566-3.583-0.601-4.85
		c-0.033-2.233,0.184-5.5,0.65-9.8c0.467-4.434,0.7-7.717,0.7-9.85c0.166-5.067,0.25-8.9,0.25-11.5c-0.066-4.6-0.65-8.333-1.75-11.2
		c-1-2.467-2.05-4.483-3.15-6.05l0.65-1.95c-0.7-0.1-1.45-0.017-2.25,0.25l-0.15-0.1l0.25-0.2c0.333-0.267,0.85-0.533,1.55-0.8
		c0.2,0.034,0.384,0.117,0.551,0.25c0.566,0.4,1.366,1.633,2.399,3.7c2,2.967,3,6.45,3,10.45c0,0.5-0.017,1.267-0.05,2.3
		c-0.033,0.9-0.017,1.65,0.05,2.25c0.066,0.733,0.334,1.8,0.8,3.2c0.467,1.4,0.733,2.483,0.801,3.25c0.066,0.933,0.1,2.1,0.1,3.5
		c0,0.767-0.017,1.917-0.05,3.45c0,0.6-0.084,2.083-0.25,4.45c-0.033,0.9-0.017,1.65,0.05,2.25c-0.033,0.133-0.066,0.25-0.1,0.35
		C47.483,83.433,47,84.533,46.2,86c-0.733,1.433-1.167,2.583-1.3,3.45c-0.067,0.7,0,1.483,0.199,2.35
		c0.334,1.367,0.517,2.117,0.551,2.25c0.199,1.434,0.283,3.167,0.25,5.2c0,0.033-0.084,1.816-0.25,5.35
		c0.399-2.333,0.649-4.083,0.75-5.25c1.033,1.9,1.933,4.767,2.699,8.601c0.534-1.233,1.301-2.517,2.301-3.851
		C51.833,103.467,52.733,102.35,54.1,100.75z M20.3,121.95c-1.233,3.767-1.9,5.8-2,6.1c-0.2,0.667-0.55,1.584-1.05,2.75
		c-0.533,1.167-0.883,2.05-1.05,2.65c-1.1,3.366-1.733,7.166-1.9,11.399c-0.1,2.733-0.367,5.134-0.8,7.2
		c-0.433,2.267-1.15,4.483-2.15,6.65c-1.033,2.267-2.417,4.983-4.15,8.149c-1.967,3.567-3.417,6.217-4.35,7.95l-1.45,2.75
		c-0.1-0.066-0.2-0.133-0.3-0.2c-0.3-0.3-0.55-0.666-0.75-1.1l0.7-0.65c1.467-1.5,2.717-3.816,3.75-6.949
		c0.434-1.334,1.117-4.017,2.05-8.051c0.5-1.899,0.967-4.05,1.4-6.449l1.4-2.601c0.3-0.666,0.617-1.633,0.95-2.899
		c0.367-1.334,0.683-2.317,0.95-2.95c0.2-0.566,0.717-1.601,1.55-3.101c0.6-1.166,1-2.25,1.2-3.25c0.4-2.033,0.667-3.883,0.8-5.55
		c0.333-0.566,0.667-1.983,1-4.25c0.5-3.8,1.066-6.6,1.7-8.399c0.633-1.733,0.967-2.684,1-2.851c0.233-0.866,0.4-1.916,0.5-3.149
		c0.167-3.167,0.233-5.2,0.2-6.101l-0.1-2.1l3.25-7.601c0.8-1.866,1.383-4.083,1.75-6.649c0.3-3.1,0.533-5.483,0.7-7.15
		c0.433-3.733,0.733-6.517,0.9-8.35c0.333-3.267,0.433-6.117,0.3-8.55l0.25,2.65c-0.1,0.7-0.083,1.434,0.05,2.2l0.1-0.25
		c0.267,3.133,0.45,5.933,0.55,8.4c0.067-1.8,0.067-4.467,0-8c0.467,6.3,0.667,11.467,0.6,15.5c-0.067,4.1,0.066,9.517,0.4,16.25
		c0.4,8.033,0.617,13.3,0.65,15.8c0.2,14.033,0.3,21.616,0.3,22.75L28.65,154c0.1,0.7,0.1,1.866,0,3.5c-0.1,1.5-0.066,2.634,0.1,3.4
		c1.567,0.267,2.583-0.65,3.05-2.75c0.133-0.5,0.284-2.167,0.45-5c0.1-1.634,0.133-3.817,0.1-6.551
		c-0.1-3.333-0.133-5.566-0.1-6.699c0.167-6.334,0.317-10.567,0.45-12.7c0.267-3.834,0.45-8.467,0.55-13.9
		c0.333-3.399,0.517-6.6,0.55-9.6c0-0.066,0-0.15,0-0.25c0-0.066,0.017-0.117,0.05-0.15c0.4-3.166,0.717-6.017,0.95-8.55
		c0.667-3.467,1.133-6.583,1.4-9.35c0.167-1.767,0.216-3.983,0.15-6.65L36.6,82l-0.35,3.45c0,4.167,0.117,10.416,0.35,18.75
		c0.233,8.3,0.35,14.55,0.35,18.75c0,3.267-0.217,8.116-0.65,14.55c-0.466,6.434-0.7,11.267-0.7,14.5c0,6.1-0.233,10.816-0.7,14.15
		c-0.233,1.666-0.667,4.366-1.3,8.1l0.5-12.6c0.566-4.4,0.85-7.917,0.85-10.551c0-5.933,0.117-14.833,0.35-26.699
		c0.167-10.233,0.267-18.267,0.3-24.101c-0.133,4.233-0.517,9.9-1.15,17c-0.034,0.101-0.05,0.217-0.05,0.351
		c0.067,2.133,0.117,4.267,0.15,6.399c-0.1-1.733-0.183-3.316-0.25-4.75c0.1,3.867,0.117,9.217,0.05,16.05
		c0,1.233,0.083,2.95,0.25,5.15v0.05c-0.033,2.601-0.083,5.217-0.15,7.851l-0.3,10.75c-0.066,1.366-0.117,2.683-0.15,3.949
		c-0.033,0.067-0.083,0.15-0.15,0.25c-0.4,0.634-0.65,1.134-0.75,1.5c-0.2,0.7-0.15,3.767,0.15,9.2
		c0.067,1.101,0.117,2.15,0.15,3.15c0,0.233-0.017,0.483-0.05,0.75l-0.25,3.899h0.05c0.8-0.767,1.817-2.083,3.05-3.949
		c0.066,0.466,0.1,1.149,0.1,2.05c-0.033,0.899-0.017,1.583,0.05,2.05c2.6-1.467,4.5-3.55,5.7-6.25l2.101,0.5
		c0.333,2.6,0.433,5.934,0.3,10l-0.25-0.45c-0.834-1.467-1.533-2.217-2.101-2.25c-0.233,0-1.416,0.384-3.55,1.15
		c-0.233,0.066-0.733,0.166-1.5,0.3c-0.433,0.066-0.867,0.267-1.3,0.6c-0.2,0.167-0.467,0.517-0.8,1.051
		c-0.233-0.167-0.434-0.351-0.6-0.551l-0.3-0.399c-0.133-0.233-0.25-0.467-0.35-0.7c-0.1-0.2-0.2-0.467-0.3-0.8
		c-0.033,1.033-0.117,1.95-0.25,2.75c-1.3-0.2-2.983-0.117-5.05,0.25l0.3-2.601c0.167-1.166,0.333-2.783,0.5-4.85
		c0.233-2.267,0.4-3.884,0.5-4.85c0.1-0.733,0.15-2.301,0.15-4.7c0.7-2.167,0.833-3.884,0.4-5.15c-0.267,1.101-0.4,2.816-0.4,5.15
		L28.7,172.6c-0.233,0.634-0.684,1.417-1.35,2.351c-0.7,0.967-1.15,1.7-1.35,2.2c-0.233,0.6-0.333,1.366-0.3,2.3
		c0,0.533,0.033,1.3,0.1,2.3c0.067,1.533-0.15,3.5-0.65,5.9l-1.75,0.3c-0.066,0-0.133,0-0.2,0c0.133-2.101,0.383-4.066,0.75-5.9
		c0.9-3.733,1.566-6.6,2-8.6c0.733-3.5,1.066-6.45,1-8.851c-0.034-1.366-0.2-3.316-0.5-5.85c-0.3-2.733-0.483-4.717-0.55-5.95
		c-0.133-2.633-0.2-6.934-0.2-12.899c-0.034-5.7-0.133-10.134-0.3-13.301c0,0.867-0.066,1.917-0.2,3.15
		c-0.067,0.667-0.184,1.7-0.35,3.1c-0.2,2.134-0.317,4.867-0.35,8.2c-0.033,4.566-0.067,7.267-0.1,8.101
		c-0.033,1.366-0.183,3.3-0.45,5.8c-0.3,2.6-0.467,4.5-0.5,5.7c-0.034,0.933-0.15,2.216-0.35,3.85l-0.2-3.85
		c-0.1-1.334-0.066-2.817,0.1-4.45c0.067-0.566,0.267-2.05,0.6-4.45c0.167-1.134,0.283-2.6,0.35-4.4
		c0.066-2.267,0.133-3.733,0.2-4.399c0.333-3.367,0.55-7.75,0.65-13.15c0.167-8.3,0.267-12.85,0.3-13.649
		c0.133-2.967,0.617-9.9,1.45-20.801l-0.1,0.551c-0.6,3-1.633,7.383-3.1,13.149C21.883,114.85,20.867,119.15,20.3,121.95z
		 M30.35,57.05c0.066,3.333,0.066,5.817,0,7.45l0.6-7c0,4.567-0.1,8.333-0.3,11.3c-0.033,0.067-0.05,0.133-0.05,0.2
		c-0.333-2-1.067-3.567-2.2-4.7c1.167-4.867,1.8-8.6,1.9-11.2l0.05,2.3c-0.133,0.7-0.184,1.35-0.15,1.95L30.35,57.05z M58.05,113.95
		c0-1.566,0.117-3.033,0.351-4.4c0.3,0.601,0.449,1.767,0.449,3.5C58.55,113.25,58.283,113.55,58.05,113.95z M60.7,124.35
		c0.633,3.2,0.934,5.983,0.899,8.351c-0.033,3.233,0.334,7,1.101,11.3c0.267,1.5,1.05,5.233,2.35,11.2
		c1.334,6.366,2.517,9.383,3.55,9.05c0.067-0.6,0.051-1.717-0.05-3.35c-0.066-1.434-0.017-2.551,0.15-3.351
		c0.467,0.533,0.866,1.417,1.2,2.65c0.267,1.1,0.416,2.166,0.449,3.2c0-0.834-0.066-2.134-0.199-3.9
		c-0.134-1.767-0.2-3.083-0.2-3.95v-7.85c0.066,1.2,0.217,2.983,0.45,5.35c0.166,2.934,0.25,7.3,0.25,13.101
		c0,0.166,0.033,0.666,0.1,1.5c0.033,0.8-0.017,1.316-0.15,1.55c-0.133,0.233-0.399,0.399-0.8,0.5c-0.399,0.1-0.649,0.2-0.75,0.3
		c-0.366,0.333-0.616,0.884-0.75,1.65c-0.033,0.133-0.116,0.633-0.25,1.5c-0.1,0.566-0.233,1.05-0.399,1.449
		c-0.334,0.867-0.817,2.184-1.45,3.95l-0.25,0.5l-0.15,0.15l-0.05,0.05H65.7c-0.134,0.066-0.267,0.15-0.4,0.25V171
		c0.033-1.667-0.233-3.366-0.8-5.1c-0.134-0.434-0.767-2.051-1.9-4.851c-0.333-0.833-0.716-1.967-1.149-3.399
		c-0.467-1.667-0.816-2.801-1.05-3.4c-0.733-2.033-1.101-3.8-1.101-5.3c-0.033-2.767-0.25-6.884-0.649-12.351v-8.649
		c0-1.467-0.084-3.417-0.25-5.851c-0.2-3.066-0.317-5.05-0.351-5.949l0.55,1.75c0.9,3.699,1.367,6.35,1.4,7.949
		c0,0.301-0.017,0.767-0.05,1.4c-0.033,0.566,0.05,1,0.25,1.3C60.3,128.083,60.467,126.684,60.7,124.35z M16.1,159.4l-1,1.85
		c0.4-2.167,0.667-4.083,0.8-5.75c0.1-1.333,0.133-3.616,0.1-6.85c-0.033-2.9,0.067-5.184,0.3-6.851c0.333-2.3,1.3-6.6,2.9-12.899
		l-0.15,1.199c-0.233,2.2-0.25,5.817-0.05,10.851c0.2,4.8,0.117,8.399-0.25,10.8C18.183,154.217,17.3,156.767,16.1,159.4z
		 M33.05,183l0.05-0.4c-0.033,0.101-0.05,0.184-0.05,0.25V183z M44.8,188.8c-1.733-0.066-3.366-0.233-4.9-0.5
		c0.167-0.133,0.317-0.267,0.45-0.399c1.4,0.1,2.267,0.183,2.601,0.25l2.1,0.399c0,0.066,0,0.15,0,0.25
		C44.983,188.8,44.9,188.8,44.8,188.8z M36.7,187.45c0,0.066,0,0.133,0,0.2l-0.55-0.101v-0.25l0.1,0.05
		C36.383,187.384,36.533,187.417,36.7,187.45z M56.3,156.35v-6.5c0.167,1.034,0.533,2.25,1.101,3.65
		c0.066,0.2,0.149,0.417,0.25,0.65c0.466,1.233,0.916,2.75,1.35,4.55c0.233,1.033,0.583,2.566,1.05,4.6c0.601,2.3,0.9,5.3,0.9,9
		c0,0.334,0.033,1,0.1,2c0,0.9-0.217,1.434-0.649,1.601c-0.2-0.2-0.417-0.467-0.65-0.801c-0.566-0.767-1.3-1.866-2.2-3.3l-0.149-3.1
		c-0.034-0.233-0.267-2.283-0.7-6.15C56.4,160.05,56.267,157.983,56.3,156.35z"/>
	<path style="fill-rule:evenodd;clip-rule:evenodd;fill:#7B756E;" d="M32.4,50.3c0.1-2.066,0.467-3.966,1.1-5.7l0.6-1.3
		c0.566-1.066,1.483-1.883,2.75-2.45c1.5-0.667,2.5-1.283,3-1.85c0.733-0.833,1.233-2.4,1.5-4.7c0.134-1.066,0.217-2.75,0.25-5.05
		c0.101-3.133,0.017-7.433-0.25-12.9c-0.267-6.2-0.399-10.5-0.399-12.9v-0.4c0.399,0.567,0.85,1.6,1.35,3.1
		c0.5,1.4,0.834,3.267,1,5.6c0.101,1.3,0.2,3.2,0.3,5.7c0.434,7.8,0.7,12.2,0.801,13.2c0.1,1.033,0.199,2.467,0.3,4.3
		c0.033,0.566,0.066,1.183,0.1,1.85l0.2,1.7c0,0.167,0.017,0.333,0.05,0.5l0.05,0.35c0.067,0.333,0.134,0.667,0.2,1l0.05,0.25v0.05
		L45.5,41l0.6,1.8l1,2c0.434,0.767,0.967,1.684,1.601,2.75c0.033,0.067,0.066,0.133,0.1,0.2l0.601,1
		c0.066,0.133,0.133,0.267,0.199,0.4c0.03,0.03,0.063,0.08,0.101,0.15c0.566,0.367,1.184,0.784,1.85,1.25c1,0.7,1.934,1.85,2.8,3.45
		c0.467,0.867,1.167,2.2,2.101,4c0.5,0.8,1.233,1.9,2.2,3.3c0.767,1.233,1.199,2.434,1.3,3.6c0.066,0.667,0.083,1.533,0.05,2.6
		c0,0.6-0.017,1.467-0.05,2.6c0,0.8,0.066,1.95,0.2,3.45c0.1,1.534,0.149,2.684,0.149,3.45c0,1.7,0.233,4.133,0.7,7.3
		c0.066,0.867,0.116,2.117,0.15,3.75c0.133,1.367,0.383,2.55,0.75,3.55l2,5.05c0.033,0.1,0.083,0.216,0.149,0.35
		c-1.533-1.533-2.899-3.25-4.1-5.15c-1.533-2.434-2.566-5.517-3.101-9.25c-0.366-2.5-0.55-5.817-0.55-9.95
		c0.066-1.467,0.117-2.583,0.15-3.35c0.033-1.367-0.017-2.466-0.15-3.3c-0.434-1.533-0.649-2.75-0.649-3.65
		c-0.034-1.233-0.584-2.817-1.65-4.75c-0.3-0.5-0.7-1.033-1.2-1.6L52.4,55.6c-0.134-0.133-0.267-0.267-0.4-0.4l-2-2.25
		c-0.066-0.1-0.116-0.184-0.15-0.25c-0.066-0.067-0.116-0.117-0.149-0.15c-0.033-0.066-0.066-0.133-0.101-0.2
		c0.167,1.967,0.534,3.483,1.101,4.55l1.95,2.9c0.133,0.167,0.267,0.35,0.399,0.55c0.134,0.233,0.267,0.45,0.4,0.65l0.35,0.6
		c0,0.033,0.017,0.066,0.05,0.1v0.05c0.867,1.667,1.233,3.117,1.101,4.35c-0.2-0.167-0.384-0.434-0.55-0.8
		c-0.167-0.5-0.301-0.816-0.4-0.95s-0.434-0.55-1-1.25c-0.1-0.067-0.184-0.15-0.25-0.25l-0.1-0.1
		c-0.567-0.633-0.917-1.25-1.051-1.85c0.467,4.467,0.7,9.3,0.7,14.5c0.033,0.033,0.066,0.067,0.101,0.1
		c-0.034,0.3-0.051,0.617-0.051,0.95c0,0.367,0.017,0.8,0.051,1.3c0.066,0.933,0.033,1.667-0.101,2.2c-0.066,0.4-0.2,0.8-0.399,1.2
		c-0.034,0.333-0.067,0.667-0.101,1c-0.1,1.067-0.5,4.067-1.2,9C50.3,95.783,50.9,98.733,52.4,100c0.366,0.3,0.933,0.55,1.699,0.75
		c-1.366,1.6-2.267,2.717-2.699,3.35c-1,1.334-1.767,2.617-2.301,3.851c-0.767-3.834-1.666-6.7-2.699-8.601
		c-0.101,1.167-0.351,2.917-0.75,5.25c0.166-3.533,0.25-5.316,0.25-5.35c0.033-2.033-0.051-3.767-0.25-5.2
		c-0.034-0.133-0.217-0.883-0.551-2.25c-0.199-0.867-0.267-1.65-0.199-2.35c0.133-0.867,0.566-2.017,1.3-3.45
		c0.8-1.467,1.283-2.567,1.45-3.3c0.033-0.1,0.066-0.217,0.1-0.35c-0.066-0.6-0.083-1.35-0.05-2.25c0.166-2.367,0.25-3.85,0.25-4.45
		C47.983,74.117,48,72.967,48,72.2c0-1.4-0.033-2.567-0.1-3.5c-0.067-0.767-0.334-1.85-0.801-3.25c-0.466-1.4-0.733-2.467-0.8-3.2
		c-0.066-0.6-0.083-1.35-0.05-2.25c0.033-1.033,0.05-1.8,0.05-2.3c0-4-1-7.483-3-10.45c-1.033-2.067-1.833-3.3-2.399-3.7
		c-0.167-0.133-0.351-0.216-0.551-0.25c-0.7,0.267-1.216,0.534-1.55,0.8l-0.25,0.2l-0.3,0.3C36.05,45.533,34.1,47.433,32.4,50.3z
		 M32.6,54.45l-0.35,1.4V54.7L32.6,54.45z M34,163.1c-0.167,4.733-0.333,8.934-0.5,12.601l-0.1,1.5c-0.033-1-0.083-2.05-0.15-3.15
		c-0.3-5.434-0.35-8.5-0.15-9.2c0.1-0.366,0.35-0.866,0.75-1.5C33.917,163.25,33.967,163.167,34,163.1z M28.5,70.1l-0.2,1.6
		l-0.1-1.3L28.5,70.1z M28.4,64.3c-0.133,0.3-0.267,0.617-0.4,0.95c0-0.467,0-0.917,0-1.35C28.133,64.033,28.267,64.167,28.4,64.3z
		 M23.2,187.95c-0.2,0.033-0.383,0.05-0.55,0.05l-2,0.2c-0.667,0.033-1.333,0.05-2,0.05c0.8-2.066,1.483-4.7,2.05-7.9
		c0.233-1.333,0.633-4.083,1.2-8.25c0.567-3.366,0.967-5.899,1.2-7.6c0.2-1.634,0.316-2.917,0.35-3.85c0.033-1.2,0.2-3.101,0.5-5.7
		c0.267-2.5,0.417-4.434,0.45-5.8c0.033-0.834,0.067-3.534,0.1-8.101c0.033-3.333,0.15-6.066,0.35-8.2
		c0.167-1.399,0.283-2.433,0.35-3.1c0.133-1.233,0.2-2.283,0.2-3.15c0.167,3.167,0.267,7.601,0.3,13.301
		c0,5.966,0.066,10.267,0.2,12.899c0.067,1.233,0.25,3.217,0.55,5.95c0.3,2.533,0.466,4.483,0.5,5.85c0.066,2.4-0.267,5.351-1,8.851
		c-0.434,2-1.1,4.866-2,8.6C23.583,183.884,23.333,185.85,23.2,187.95z M25.8,187.6l-0.65,0.051c0.5-2.4,0.717-4.367,0.65-5.9
		c-0.066-1-0.1-1.767-0.1-2.3c-0.034-0.934,0.066-1.7,0.3-2.3c0.2-0.5,0.65-1.233,1.35-2.2c0.667-0.934,1.117-1.717,1.35-2.351
		l0.85-2.399c0-2.334,0.133-4.05,0.4-5.15c0.433,1.267,0.3,2.983-0.4,5.15c0,2.399-0.05,3.967-0.15,4.7
		c-0.1,0.966-0.267,2.583-0.5,4.85c-0.167,2.066-0.333,3.684-0.5,4.85l-0.3,2.601l-0.25,0.05L25.8,187.6z M45.05,188.55l-2.1-0.399
		c-0.334-0.067-1.2-0.15-2.601-0.25c-0.366-0.034-0.783-0.067-1.25-0.101c-0.434-0.033-0.833-0.066-1.2-0.1
		c-0.433-0.066-0.833-0.15-1.2-0.25c-0.167-0.033-0.317-0.066-0.45-0.101l-0.1-0.05v0.25c-0.3-0.066-0.617-0.149-0.95-0.25
		c-0.7-0.2-1.35-0.3-1.95-0.3l-0.1-0.05c0.133-0.8,0.217-1.717,0.25-2.75c0.1,0.333,0.2,0.6,0.3,0.8c0.033,0.1,0.066,0.184,0.1,0.25
		c0.067,0.167,0.15,0.316,0.25,0.45l0.3,0.399c0.167,0.2,0.367,0.384,0.6,0.551c0.333-0.534,0.6-0.884,0.8-1.051
		c0.433-0.333,0.867-0.533,1.3-0.6c0.767-0.134,1.267-0.233,1.5-0.3c2.134-0.767,3.316-1.15,3.55-1.15
		c0.567,0.033,1.267,0.783,2.101,2.25l0.25,0.45l0.7,1.6l0.25,0.75L45.05,188.55z M65.8,179.2c0.108-0.102,0.217-0.185,0.325-0.25
		l-0.175,0.1l0.25-0.5c0.633-1.767,1.116-3.083,1.45-3.95c0.166-0.399,0.3-0.883,0.399-1.449c0.134-0.867,0.217-1.367,0.25-1.5
		c0.134-0.767,0.384-1.317,0.75-1.65c0.101-0.1,0.351-0.2,0.75-0.3c0.4-0.101,0.667-0.267,0.8-0.5c0.134-0.233,0.184-0.75,0.15-1.55
		c-0.066-0.834-0.1-1.334-0.1-1.5c0-5.801-0.084-10.167-0.25-13.101c-0.233-2.366-0.384-4.149-0.45-5.35
		c-0.033-0.9-0.033-1.767,0-2.601c0.066-0.833,0.149-1.449,0.25-1.85c1.566,6.566,2.6,11.267,3.1,14.1c0.4,2.101,0.717,4.5,0.95,7.2
		c0.033,0.2,0.017,0.767-0.05,1.7c0,0.934,0.116,1.483,0.35,1.65c0.533,0.466,0.867,0.316,1-0.45c0.2-0.967,0.45-1.467,0.75-1.5
		c0.601-0.101,0.934,0.366,1,1.399c0.066-3.733,0.101-6.533,0.101-8.399c0-3.233-0.134-6-0.4-8.3c-0.1-0.967-0.517-2.233-1.25-3.801
		c-0.967-2.066-1.517-3.316-1.65-3.75c-0.899-2.633-1.383-4.6-1.449-5.899c-0.067-0.634-0.084-1.417-0.051-2.351
		c0.034-1.033,0.051-1.816,0.051-2.35c0-3.634-0.134-6.917-0.4-9.85c-0.033-0.434-0.066-1.834-0.1-4.2
		c-0.034-1.733-0.217-3.101-0.551-4.101c-0.767-2.267-2.5-4.267-5.199-6c0.199,0.101,0.966,0.317,2.3,0.65l2,0.6
		c0.333,0.134,0.633,0.25,0.899,0.351c0.134,0.333,0.284,0.733,0.45,1.2l0.5,1.399c0.334,1.101,0.684,2.351,1.05,3.75
		c0.467,1.867,0.834,4.117,1.101,6.75c0.133,1.533,0.3,3.816,0.5,6.851c0.233,2.533,0.75,5.199,1.55,8
		c0.533,1.966,1.4,4.55,2.6,7.75c0.534,1.433,0.867,2.416,1,2.949c0.4,1.467,0.334,2.217-0.199,2.25c0.5,0,0.783,2.233,0.85,6.7
		c-0.066,3.367-0.167,8.4-0.3,15.101c-1.733,1.633-3.4,2.767-5,3.399c-1.533,0-2.816,0.384-3.851,1.15H71.8
		c-0.5,0.033-1.133,0.166-1.899,0.399c-0.034,0.134-0.084,0.267-0.15,0.4c-0.4,0.967-1.134,1.75-2.2,2.35
		c-0.399,0.2-0.983,0.384-1.75,0.551c-1.033,0.199-1.649,0.333-1.85,0.399c-0.5,0.134-1.2,0.45-2.101,0.95
		c-0.3,0.3-0.566,0.616-0.8,0.95l-0.25,0.1l-0.649,0.45c-0.167,0.1-0.351,0.217-0.551,0.35c-0.333,0.2-0.666,0.434-1,0.7
		c-0.267,0.2-0.533,0.417-0.8,0.65l-0.05,0.05l-1.3,0.8c-0.033-0.066-0.05-0.116-0.05-0.149l-4.851,2.05
		c-0.533,0.1-1.066,0.2-1.6,0.3c0.8-3.733,1.267-5.983,1.399-6.75c0.467-2.566,0.784-4.833,0.95-6.8
		c0.134-1.767,0.167-4.017,0.101-6.75c-0.101-4.2-0.15-6.45-0.15-6.75c0-1.834,0.116-4.517,0.35-8.05
		c0.233-3.534,0.351-6.184,0.351-7.95c-0.066-8.233-0.101-14.417-0.101-18.55c0.067-7.067,0.334-13.233,0.801-18.5
		c-0.267,6.866-0.317,11.733-0.15,14.6c0.3,5.467,1.25,9.884,2.85,13.25c-0.267,0.833-0.366,1.983-0.3,3.45
		c0.033,1,0.117,2.35,0.25,4.05v3.15c0.066-0.5,0.25-1.15,0.55-1.95c0.367-1.033,0.584-1.684,0.65-1.95
		c-0.134-0.733-0.4-2.733-0.8-6c0.033,0.033,0.066,0.083,0.1,0.15c0.533-2.7,0.733-6.25,0.601-10.65
		c-0.301-4.934-0.45-8.566-0.45-10.9c0.066-1.566,0.1-2.883,0.1-3.949c0-1.934-0.116-3.517-0.35-4.75l-3.75-4.101
		c1.899,0.101,3.149,1.467,3.75,4.101l1.149,1.3c0.101,1.5,0.084,3.5-0.05,6c-0.133,3.133-0.2,5.116-0.2,5.95v22.35l0.051-0.25
		c0.066-0.467,0.1-1.066,0.1-1.8c-0.066-0.834-0.1-1.45-0.1-1.851V120.9c0.1,3.767,0.433,9,1,15.699
		c0.399,5.467,0.616,9.584,0.649,12.351c0,1.5,0.367,3.267,1.101,5.3c0.233,0.6,0.583,1.733,1.05,3.4
		c0.434,1.433,0.816,2.566,1.149,3.399c1.134,2.8,1.767,4.417,1.9,4.851c0.566,1.733,0.833,3.433,0.8,5.1v8.5
		c0.134-0.1,0.267-0.184,0.4-0.25h0.05L65.8,179.2z M60.7,124.35c-0.233,2.334-0.4,3.733-0.5,4.2c-0.2-0.3-0.283-0.733-0.25-1.3
		c0.033-0.634,0.05-1.1,0.05-1.4c-0.033-1.6-0.5-4.25-1.4-7.949l-0.55-1.75c-0.233-0.967-0.25-1.684-0.05-2.15l0.05-0.05
		c0.233-0.4,0.5-0.7,0.8-0.9c0.467-0.467,0.733-0.967,0.801-1.5c0.066-0.666,0.1-1.55,0.1-2.649c-0.066-1.2-0.1-2.084-0.1-2.65
		l-3.801-12.4l1.301,2.25c1.033,2.134,2.066,4.851,3.1,8.15c0.8,2.6,1.384,5.717,1.75,9.35c0.233,2.167,0.083,4.134-0.45,5.9
		C61.25,120.6,60.967,122.217,60.7,124.35z M55.85,93.85c-0.666-1.233-0.966-2.2-0.899-2.9L55.85,93.85z M8.15,175.7L9.1,174.6
		l-1.05,2.25l-0.35,0.5l-0.85,1.15c-0.1-0.033-0.383-0.066-0.85-0.1l-0.85-0.15c-0.7-0.033-1.233-0.066-1.6-0.1
		c-0.6-0.034-1.1-0.117-1.5-0.25L1.4,177.55l1.45-2.75c0.933-1.733,2.383-4.383,4.35-7.95c1.733-3.166,3.117-5.883,4.15-8.149
		c1-2.167,1.717-4.384,2.15-6.65c0.433-2.066,0.7-4.467,0.8-7.2c0.167-4.233,0.8-8.033,1.9-11.399
		c0.167-0.601,0.517-1.483,1.05-2.65c0.5-1.166,0.85-2.083,1.05-2.75c0.1-0.3,0.767-2.333,2-6.1c0.467-1.4,0.784-2.634,0.95-3.7
		c-0.333,2.667-1.017,6.217-2.05,10.65c-1.6,6.3-2.567,10.6-2.9,12.899c-0.233,1.667-0.333,3.95-0.3,6.851
		c0.033,3.233,0,5.517-0.1,6.85c-0.133,1.667-0.4,3.583-0.8,5.75L15,161.8c-1.5,3.134-2.733,5.417-3.7,6.851
		C9,171.983,7.95,174.333,8.15,175.7z M34.1,161.65l0.05-2.5l0.3-10.75c0.066-2.634,0.117-5.25,0.15-7.851v-0.05
		c-0.167-2.2-0.25-3.917-0.25-5.15c0.066-6.833,0.05-12.183-0.05-16.05c0.067,1.434,0.15,3.017,0.25,4.75
		c-0.033-2.133-0.083-4.267-0.15-6.399c0-0.134,0.017-0.25,0.05-0.351c0.633-7.1,1.017-12.767,1.15-17
		c-0.033,5.834-0.133,13.867-0.3,24.101c-0.233,11.866-0.35,20.767-0.35,26.699C34.95,153.733,34.667,157.25,34.1,161.65z
		 M56.3,156.35c-0.033,1.634,0.101,3.7,0.4,6.2c0.434,3.867,0.666,5.917,0.7,6.15l0.149,3.1c0.9,1.434,1.634,2.533,2.2,3.3
		c0.233,0.334,0.45,0.601,0.65,0.801c0.433-0.167,0.649-0.7,0.649-1.601c-0.066-1-0.1-1.666-0.1-2c0-3.7-0.3-6.7-0.9-9
		c-0.467-2.033-0.816-3.566-1.05-4.6c-0.434-1.8-0.884-3.316-1.35-4.55c-0.101-0.233-0.184-0.45-0.25-0.65
		c-0.567-1.4-0.934-2.616-1.101-3.65V156.35z"/>
	<path style="fill-rule:evenodd;clip-rule:evenodd;fill:#BFB6AC;" d="M23,16.45c0,0.5-0.1,1.183-0.3,2.05
		c-0.233,0.9-0.35,1.633-0.35,2.2c0,1.2-0.117,3.033-0.35,5.5c0-1.534,0-3.017,0-4.45L23,16.45z M38.45,1.3
		c0.2,0.067,0.417,0.133,0.65,0.2c0.267,0.1,0.533,0.267,0.8,0.5c-0.2-0.167-0.383-0.283-0.55-0.35
		C39.217,1.583,38.917,1.467,38.45,1.3z M33.5,44.6c-0.633,1.733-1,3.633-1.1,5.7c-0.533,0.9-0.983,1.8-1.35,2.7l-0.1,0.3
		c-0.3,0.7-0.5,1.4-0.6,2.1l-0.05-2.3c-0.1,2.6-0.733,6.333-1.9,11.2c-0.133-0.133-0.267-0.267-0.4-0.4c0,0.434,0,0.883,0,1.35
		c-0.5,1.2-0.833,2.267-1,3.2l-0.1,0.35c-0.167,0.733-0.283,1.567-0.35,2.5l-0.25-2.65c0.133,2.434,0.034,5.283-0.3,8.55
		c-0.167,1.833-0.467,4.617-0.9,8.35c-0.167,1.667-0.4,4.05-0.7,7.15c-0.367,2.566-0.95,4.783-1.75,6.649l-3.25,7.601
		c-0.033-2.8,0.067-5.634,0.3-8.5c0.167-1.967,0.833-5.934,2-11.9c1-5.033,1.466-9.167,1.4-12.4c-0.1,0.167-0.283,0.35-0.55,0.55
		c-0.267,0.233-0.433,0.4-0.5,0.5c1-3.7,1.317-8.767,0.95-15.2c-0.267-4.1-0.467-7.433-0.6-10c0.267-0.567,0.467-1.017,0.6-1.35
		c0.333-0.767,0.55-1.583,0.65-2.45c0.033-0.467,0.05-1.333,0.05-2.6c-0.034-4.133,0.316-8.5,1.05-13.1
		c0.133-1.867,0.367-3.25,0.7-4.15c0.267-0.7,0.483-1.25,0.65-1.65c0,10.566-0.283,21.683-0.85,33.35
		c1.267-3.066,1.967-7.25,2.1-12.55c0.133-7.533,0.267-11.817,0.4-12.85c0.333-2.533,0.517-5.5,0.55-8.9c0-0.8-0.017-3.8-0.05-9
		c0-2.567,0.067-4.133,0.2-4.7c0.367-1.933,1.316-2.867,2.85-2.8C30.967,5.917,30.217,5,29.05,4.5
		c-0.367-0.167-0.783-0.283-1.25-0.35c0.167-0.133,0.333-0.233,0.5-0.3c0.2-0.1,0.767-0.283,1.7-0.55
		c0.433-0.133,0.983-0.417,1.65-0.85c0.667-0.434,1.233-0.717,1.7-0.85c1.167-0.333,2.617-0.517,4.35-0.55
		c0.7,0.767,1.117,1.8,1.25,3.1c0.2,2.2,0.2,3.983,0,5.35c-0.1,0.567-0.517,2.1-1.25,4.6c-0.534,1.8-0.784,3.4-0.75,4.8v7.75
		c0,0.033,0.033,0.483,0.1,1.35c0.034,0.6,0.017,1.033-0.05,1.3c-0.133,0.534-0.45,1.05-0.95,1.55c-0.533,0.533-0.867,0.967-1,1.3
		c-0.733,1.6-1.2,3.583-1.4,5.95C33.483,39.733,33.433,41.9,33.5,44.6z M45.05,39c0.134,0.7,0.283,1.367,0.45,2
		c-0.066-0.233-0.134-0.45-0.2-0.65c-0.066-0.333-0.133-0.667-0.2-1L45.05,39z M54.1,100.75c-0.767-0.2-1.333-0.45-1.699-0.75
		c-1.5-1.267-2.101-4.217-1.801-8.85c0.7-4.933,1.101-7.933,1.2-9c0.033-0.333,0.066-0.667,0.101-1c0.199-0.4,0.333-0.8,0.399-1.2
		c0.134-0.534,0.167-1.267,0.101-2.2c-0.034-0.5-0.051-0.933-0.051-1.3c0-0.333,0.017-0.65,0.051-0.95
		c0.666,0.533,1.133,1.183,1.399,1.95c0.2,0.533,0.351,1.466,0.45,2.8c0.2,2.367,0.783,4.483,1.75,6.35
		c0.3,0.633,0.783,1.75,1.45,3.35c0.6,1.466,1.116,2.583,1.55,3.35c0.267,0.5,0.783,1.267,1.55,2.3
		c0.7,0.967,1.184,1.733,1.45,2.301c0.2,0.366,0.384,0.966,0.55,1.8c0.2,0.833,0.384,1.45,0.55,1.85
		c0.101,0.233,0.534,1.017,1.301,2.351c0.699,1.267,1,2.1,0.899,2.5c-0.2,0.767-0.733,1.05-1.6,0.85c-1.066-0.4-1.867-0.7-2.4-0.9
		c0.367,1.034,1.384,2.767,3.05,5.2c2.334,4.2,3.934,7.3,4.801,9.3c1.6,3.767,2.449,7.134,2.55,10.101c0,0.166,0.017,0.6,0.05,1.3
		c0.033,0.667-0.017,1.1-0.15,1.3c-0.1,0.134-0.366,0.334-0.8,0.601c-0.366,0.199-0.616,0.466-0.75,0.8
		c-0.233,0.5-0.316,1.35-0.25,2.55c0.033,0.667,0.084,1.55,0.15,2.65v4.949c-0.033,0.834-0.033,1.7,0,2.601v7.85
		c0,0.867,0.066,2.184,0.2,3.95c0.133,1.767,0.199,3.066,0.199,3.9c-0.033-1.034-0.183-2.101-0.449-3.2
		c-0.334-1.233-0.733-2.117-1.2-2.65c-0.167,0.8-0.217,1.917-0.15,3.351c0.101,1.633,0.117,2.75,0.05,3.35
		c-1.033,0.333-2.216-2.684-3.55-9.05c-1.3-5.967-2.083-9.7-2.35-11.2c-0.767-4.3-1.134-8.066-1.101-11.3
		c0.034-2.367-0.267-5.15-0.899-8.351c0.267-2.133,0.55-3.75,0.85-4.85c0.533-1.767,0.684-3.733,0.45-5.9
		c-0.366-3.633-0.95-6.75-1.75-9.35c-1.033-3.3-2.066-6.017-3.1-8.15l-1.301-2.25l3.801,12.4c0,0.566,0.033,1.45,0.1,2.65
		c0,1.1-0.033,1.983-0.1,2.649c-0.067,0.533-0.334,1.033-0.801,1.5c0-1.733-0.149-2.899-0.449-3.5
		c-0.233,1.367-0.351,2.834-0.351,4.4L58,114c-0.2,0.467-0.184,1.184,0.05,2.15c0.033,0.899,0.15,2.883,0.351,5.949
		c0.166,2.434,0.25,4.384,0.25,5.851v8.649c-0.567-6.699-0.9-11.933-1-15.699V138.6c0,0.4,0.033,1.017,0.1,1.851
		c0,0.733-0.033,1.333-0.1,1.8L57.6,142.5v-22.35c0-0.834,0.067-2.817,0.2-5.95c0.134-2.5,0.15-4.5,0.05-6
		c-0.066-1.233-0.149-2.15-0.25-2.75c-0.166-1.134-0.283-1.816-0.35-2.05c-0.233-0.767-0.616-1.367-1.15-1.801
		C55.767,101.333,55.1,101.05,54.1,100.75z M49.4,48.75c0.096,0.161,0.196,0.344,0.3,0.55c-0.037-0.07-0.07-0.12-0.101-0.15
		C49.533,49.017,49.467,48.883,49.4,48.75z M0.35,176.25c-0.567-1.366-0.483-3.5,0.25-6.4c1.467-4.166,2.467-7.083,3-8.75
		c0.433-0.666,1.217-1.816,2.35-3.449c1-1.467,1.767-2.634,2.3-3.5c-0.433,2.399-0.9,4.55-1.4,6.449
		c-0.934,4.034-1.617,6.717-2.05,8.051c-1.033,3.133-2.283,5.449-3.75,6.949L0.35,176.25z M44.45,186.25
		c0.133-4.066,0.033-7.4-0.3-10l-2.101-0.5c1-2.233,1.55-5.167,1.65-8.8c-0.066-4.233-0.101-7.4-0.101-9.5
		c0.067-4.634,0.101-8.117,0.101-10.45c0-4.066-0.2-7.533-0.601-10.4c-0.899-6-1.533-10.483-1.899-13.449
		c-0.634-5.134-0.95-9.65-0.95-13.551c0.033-8.267-0.134-23.066-0.5-44.399c0.133-0.9,0.467-2.4,1-4.5
		c0.467-1.867,0.75-3.333,0.85-4.4c0.134-1.233-0.066-2.95-0.6-5.15c-0.566-2.267-0.816-3.933-0.75-5l0.05-0.05
		c1.101,1.566,2.15,3.583,3.15,6.05c1.1,2.867,1.684,6.6,1.75,11.2c0,2.6-0.084,6.433-0.25,11.5c0,2.133-0.233,5.417-0.7,9.85
		c-0.467,4.3-0.684,7.566-0.65,9.8c0.034,1.267,0.233,2.884,0.601,4.85c0.434,2.334,0.684,3.934,0.75,4.801
		c0.033,0.466-0.033,1.449-0.2,2.949c-0.134,1.334-0.116,2.317,0.05,2.95c0.2,0.667,0.733,1.617,1.601,2.851
		c1,1.399,1.583,2.3,1.75,2.699c1.366,3.101,2.083,6.7,2.149,10.801V140c-0.033,2-0.233,4.583-0.6,7.75
		c-0.467,4.2-0.733,6.783-0.8,7.75c-0.067,1.066-0.067,2.783,0,5.15c0.066,2.233,0.033,3.949-0.101,5.149
		c-0.166,1.634-0.533,3.8-1.1,6.5c-0.7,3.167-1.134,5.334-1.3,6.5c-0.067,0.533-0.15,1.717-0.25,3.55
		c-0.101,1.434-0.267,2.617-0.5,3.551l-0.5,1.949L44.45,186.25z M45.05,188.55l0.351,0.05l0.75,0.15v0.05c-0.167,0-0.351,0-0.551,0
		c-0.166,0-0.35,0-0.55,0C45.05,188.7,45.05,188.616,45.05,188.55z M38.55,44.3l0.15,0.1l-0.45,0.2L38.55,44.3z M39.7,65.5v-5
		c0.1,0.867,0.117,2.217,0.05,4.05L39.7,65.5z M28.5,70.1c0.7-0.667,1.433-0.983,2.2-0.95c-0.034-0.133-0.05-0.25-0.05-0.35
		c0.2-2.966,0.3-6.733,0.3-11.3l-0.6,7c0.066-1.633,0.066-4.117,0-7.45l0.6-0.95L31,56c0.467-0.567,0.883-1,1.25-1.3v1.15l0.35-1.4
		c1.133-0.7,2.25-0.867,3.35-0.5c1.167,0.4,2.117,1.35,2.85,2.85l0.25,0.65L36.6,82l-0.25-3.25c0.066,2.667,0.017,4.883-0.15,6.65
		c-0.267,2.767-0.733,5.883-1.4,9.35c0.9-8.867,1.383-18.633,1.45-29.3L32.8,88.9c-0.133-1.4-0.25-2.783-0.35-4.15l-3.25,59.2
		c0-1.134-0.1-8.717-0.3-22.75c-0.033-2.5-0.25-7.767-0.65-15.8c-0.333-6.733-0.467-12.15-0.4-16.25c0.066-4.033-0.133-9.2-0.6-15.5
		c0.067,3.533,0.067,6.2,0,8c-0.1-2.467-0.283-5.267-0.55-8.4l0.5-1.3c0.233-0.5,0.566-1.017,1-1.55l0.1,1.3L28.5,70.1z
		 M20.3,121.95c0.567-2.8,1.583-7.101,3.05-12.9c1.467-5.767,2.5-10.149,3.1-13.149l0.1-0.551c-0.833,10.9-1.316,17.834-1.45,20.801
		c-0.033,0.8-0.133,5.35-0.3,13.649c-0.1,5.4-0.316,9.783-0.65,13.15c-0.066,0.666-0.133,2.133-0.2,4.399
		c-0.067,1.801-0.184,3.267-0.35,4.4c-0.333,2.4-0.533,3.884-0.6,4.45c-0.167,1.633-0.2,3.116-0.1,4.45l0.2,3.85
		c-0.233,1.7-0.633,4.233-1.2,7.6c-0.566,4.167-0.967,6.917-1.2,8.25c-0.567,3.2-1.25,5.834-2.05,7.9c0.667,0,1.333-0.017,2-0.05
		c-0.967,0.066-1.9,0.1-2.8,0.1c-1.5,0.033-3.25-0.066-5.25-0.3c-0.233-0.033-0.983-0.134-2.25-0.3l0.7-2.2
		c0.434-1.9,0.833-3.5,1.2-4.8c0.7-2.533,1.367-3.851,2-3.95c-0.133,1.066-0.517,2.9-1.15,5.5c-0.6,2.467-0.967,4.35-1.1,5.65
		c0.667,0.066,1.65,0.166,2.95,0.3c1.267-2.233,2.267-5.084,3-8.55c0.566-2.867,1.283-5.733,2.15-8.601
		c0.733-2.399,1.083-5.633,1.05-9.7c-0.033-5.133,0.05-8.466,0.25-10c1.267-9.1,2.133-16,2.6-20.699
		c0.833-8.101,1.05-15.384,0.65-21.851c-0.033,1.3-0.316,3.283-0.85,5.95c-0.233,1.333-0.383,3.066-0.45,5.2
		c-0.1,2.6-0.184,4.3-0.25,5.1c-0.133,1.5-0.5,3.717-1.1,6.65c-0.3,2.233-0.733,4.133-1.3,5.7c-0.5,1.366-0.817,2.833-0.95,4.399
		c-0.1,0.967-0.183,2.5-0.25,4.601c-0.1,1.866-0.35,3.649-0.75,5.35c0.367-2.4,0.45-6,0.25-10.8c-0.2-5.033-0.183-8.65,0.05-10.851
		l0.15-1.199c1.033-4.434,1.716-7.983,2.05-10.65C21.083,119.316,20.767,120.55,20.3,121.95z M8.85,187.5
		c-0.5-0.1-1.067-0.184-1.7-0.25c0.067-0.2,0.117-0.434,0.15-0.7c0,0.101-0.017,0.217-0.05,0.351c0.433-0.634,0.9-1.417,1.4-2.351
		C8.85,185.25,8.917,186.233,8.85,187.5z M7.15,180.45c0.033-1.066,0.017-1.65-0.05-1.75c0.066,0.066,0.1,0.166,0.1,0.3
		C7.233,179.2,7.217,179.684,7.15,180.45z M2.05,177.9c-0.367-0.134-0.683-0.317-0.95-0.551c0.1,0.067,0.2,0.134,0.3,0.2L2.05,177.9
		z M34.1,161.65l-0.5,12.6l-0.1,1.45c0.167-3.667,0.333-7.867,0.5-12.601c0.033-1.267,0.083-2.583,0.15-3.949L34.1,161.65z
		 M25.2,58.4L25,62.5l0.5,0.1c0.433-1.767,0.7-3.4,0.8-4.9C26.2,57.8,25.833,58.033,25.2,58.4z M33.25,113.3
		C33.383,106.4,33.3,99.167,33,91.6c0.333,4.333,0.6,8.284,0.8,11.85c0,0.1,0,0.184,0,0.25C33.767,106.7,33.583,109.9,33.25,113.3z
		 M25.8,187.6c-0.833,0.134-1.633,0.25-2.4,0.351l1.75-0.3L25.8,187.6z M33.15,186.95l0.1,0.05c-1-0.2-2.25-0.2-3.75,0
		c-0.2,0.033-0.75,0.116-1.65,0.25l0.25-0.05C30.167,186.833,31.85,186.75,33.15,186.95z M34.05,185.7
		c-0.1-0.134-0.183-0.283-0.25-0.45c-0.033-0.066-0.066-0.15-0.1-0.25C33.8,185.233,33.917,185.467,34.05,185.7z M46.7,188.8
		l3.25-0.3c0.533-0.1,1.066-0.2,1.6-0.3c-1.1,0.267-2.25,0.45-3.45,0.55L46.7,188.8z M55.85,93.85l-0.899-2.9
		C54.884,91.65,55.184,92.617,55.85,93.85z M65.95,179.05l0.175-0.1c-0.108,0.065-0.217,0.148-0.325,0.25L65.95,179.05z
		 M15.1,161.25l1-1.85L15,161.8L15.1,161.25z M7.7,177.35l0.35-0.5l1.05-2.25L8.15,175.7l4.15-5.05c-1.4,2.5-2.7,4.416-3.9,5.75
		L7.7,177.35z M7.1,178.65c-0.106-0.101-0.473-0.185-1.1-0.25c0.467,0.033,0.75,0.066,0.85,0.1
		C6.948,178.533,7.032,178.583,7.1,178.65z M33.05,183v-0.15c0-0.066,0.017-0.149,0.05-0.25L33.05,183z M39.9,188.3
		c1.534,0.267,3.167,0.434,4.9,0.5c-1.866-0.033-3.767-0.233-5.7-0.6c-0.967-0.167-1.95-0.384-2.95-0.65l0.55,0.101l1.05,0.25
		l0.15-0.2c0.367,0.033,0.767,0.066,1.2,0.1c0,0.134,0,0.267,0,0.4L39.9,188.3z"/>
	<path style="fill-rule:evenodd;clip-rule:evenodd;fill:#D9D1C5;" d="M37.7,1.05c-1.733,0.034-3.184,0.217-4.35,0.55
		c-0.467,0.133-1.033,0.417-1.7,0.85C30.983,2.883,30.433,3.167,30,3.3c-0.933,0.267-1.5,0.45-1.7,0.55
		c-0.167,0.066-0.333,0.167-0.5,0.3c0.467,0.067,0.883,0.184,1.25,0.35c1.167,0.5,1.917,1.417,2.25,2.75
		c-1.533-0.067-2.483,0.867-2.85,2.8c-0.133,0.567-0.2,2.133-0.2,4.7c0.033,5.2,0.05,8.2,0.05,9c-0.033,3.4-0.216,6.367-0.55,8.9
		c-0.133,1.033-0.267,5.317-0.4,12.85c-0.133,5.3-0.833,9.483-2.1,12.55c0.567-11.667,0.85-22.783,0.85-33.35
		c-0.167,0.4-0.383,0.95-0.65,1.65c-0.333,0.9-0.567,2.283-0.7,4.15c-0.733,4.6-1.083,8.967-1.05,13.1c0,1.267-0.017,2.133-0.05,2.6
		c-0.1,0.867-0.316,1.683-0.65,2.45c-0.133,0.333-0.333,0.783-0.6,1.35c0.133,2.567,0.333,5.9,0.6,10
		c0.367,6.433,0.05,11.5-0.95,15.2c0.067-0.1,0.233-0.267,0.5-0.5c0.267-0.2,0.45-0.383,0.55-0.55c0.066,3.233-0.4,7.367-1.4,12.4
		c-1.167,5.967-1.833,9.934-2,11.9c-0.233,2.866-0.333,5.7-0.3,8.5l0.1,2.1c0.033,0.9-0.033,2.934-0.2,6.101
		c-0.1,1.233-0.267,2.283-0.5,3.149c-0.033,0.167-0.367,1.117-1,2.851c-0.633,1.8-1.2,4.6-1.7,8.399
		c-0.333,2.267-0.667,3.684-1,4.25c-0.133,1.667-0.4,3.517-0.8,5.55c-0.2,1-0.6,2.084-1.2,3.25c-0.833,1.5-1.35,2.534-1.55,3.101
		c-0.267,0.633-0.583,1.616-0.95,2.95c-0.333,1.267-0.65,2.233-0.95,2.899l-1.4,2.601c-0.533,0.866-1.3,2.033-2.3,3.5
		c-1.133,1.633-1.917,2.783-2.35,3.449c0.133-0.366,0.233-0.683,0.3-0.949C6,154.384,7.567,150,8.6,147
		c1.833-5.333,2.95-9.967,3.35-13.9c0-0.166,0.017-0.416,0.05-0.75l0.1-0.899V131.1c0.033-0.348,0.05-0.697,0.05-1.05l0.05-0.35
		c0.066-1.233,0.15-2.8,0.25-4.7c0-0.1,0.017-0.217,0.05-0.35V124c0.167-2.866,0.467-5.267,0.9-7.2
		c1.233-5.6,2.467-10.649,3.7-15.149c0.667-2.467,0.983-5.601,0.95-9.4c-0.167-4.333-0.233-7.583-0.2-9.75
		c0.066-1.767,0.15-3.1,0.25-4c0.3-0.767,0.5-1.583,0.6-2.45l2-24.6c0.1-1.567,0.216-3.067,0.35-4.5L21.7,31.7
		c0-1.233,0.1-2.95,0.3-5.15c0-0.133,0-0.25,0-0.35c0.233-2.467,0.35-4.3,0.35-5.5c0-0.567,0.117-1.3,0.35-2.2
		c0.2-0.867,0.3-1.55,0.3-2.05c0-0.034,0-0.067,0-0.1c-0.133-1.8-0.217-3.184-0.25-4.15c-0.067-1.8,0.133-3.083,0.6-3.85l0.4-0.55
		c0.033-0.267,0.067-0.483,0.1-0.65c0.2-1.033,0.617-1.95,1.25-2.75c0-0.167,0-0.316,0-0.45c0.033-0.633,0.267-1.167,0.7-1.6
		c0.9-0.833,2.25-1.467,4.05-1.9c1.6-0.367,3.1-0.5,4.5-0.4l3.65,1C37.9,1.05,37.8,1.05,37.7,1.05z M42.05,175.75
		c-1.2,2.7-3.1,4.783-5.7,6.25c-0.067-0.467-0.083-1.15-0.05-2.05c0-0.9-0.033-1.584-0.1-2.05c-1.233,1.866-2.25,3.183-3.05,3.949
		H33.1l0.25-3.899c0.033-0.267,0.05-0.517,0.05-0.75l0.1-1.5l0.1-1.45c0.633-3.733,1.066-6.434,1.3-8.1
		c0.467-3.334,0.7-8.051,0.7-14.15c0-3.233,0.233-8.066,0.7-14.5c0.434-6.434,0.65-11.283,0.65-14.55c0-4.2-0.117-10.45-0.35-18.75
		c-0.233-8.334-0.35-14.583-0.35-18.75L36.6,82l2.45-24.55L38.8,56.8c-0.733-1.5-1.683-2.45-2.85-2.85
		c-1.1-0.367-2.217-0.2-3.35,0.5l-0.35,0.25C31.883,55,31.467,55.433,31,56l-0.05,0.1l-0.6,0.95l-0.15,0.3
		c-0.034-0.6,0.017-1.25,0.15-1.95c0.1-0.7,0.3-1.4,0.6-2.1l0.1-0.3c0.367-0.9,0.817-1.8,1.35-2.7c1.7-2.867,3.65-4.767,5.85-5.7
		l0.45-0.2c0.8-0.267,1.55-0.35,2.25-0.25L40.3,46.1l-0.05,0.05c-0.066,1.067,0.184,2.733,0.75,5c0.533,2.2,0.733,3.917,0.6,5.15
		c-0.1,1.067-0.383,2.534-0.85,4.4c-0.533,2.1-0.867,3.6-1,4.5c0.366,21.333,0.533,36.133,0.5,44.399c0,3.9,0.316,8.417,0.95,13.551
		c0.366,2.966,1,7.449,1.899,13.449c0.4,2.867,0.601,6.334,0.601,10.4c0,2.333-0.033,5.816-0.101,10.45c0,2.1,0.034,5.267,0.101,9.5
		C43.6,170.583,43.05,173.517,42.05,175.75z M25.2,58.4c0.633-0.367,1-0.6,1.1-0.7c-0.1,1.5-0.367,3.133-0.8,4.9L25,62.5L25.2,58.4z
		 M28.4,64.3c1.133,1.133,1.867,2.7,2.2,4.7c0-0.067,0.017-0.133,0.05-0.2c0,0.1,0.017,0.217,0.05,0.35
		c-0.767-0.033-1.5,0.283-2.2,0.95l-0.3,0.3c-0.434,0.533-0.767,1.05-1,1.55l-0.5,1.3l-0.1,0.25c-0.133-0.767-0.15-1.5-0.05-2.2
		c0.067-0.933,0.184-1.767,0.35-2.5l0.1-0.35c0.167-0.934,0.5-2,1-3.2C28.133,64.917,28.267,64.6,28.4,64.3z M39.7,65.5l0.05-0.95
		c0.067-1.833,0.05-3.183-0.05-4.05V65.5z M33.8,103.45c-0.2-3.566-0.466-7.517-0.8-11.85c0.3,7.567,0.383,14.8,0.25,21.7
		c-0.1,5.434-0.283,10.066-0.55,13.9c-0.133,2.133-0.284,6.366-0.45,12.7c-0.033,1.133,0,3.366,0.1,6.699
		c0.033,2.733,0,4.917-0.1,6.551c-0.167,2.833-0.317,4.5-0.45,5c-0.466,2.1-1.483,3.017-3.05,2.75c-0.167-0.767-0.2-1.9-0.1-3.4
		c0.1-1.634,0.1-2.8,0-3.5l0.55-10.05l3.25-59.2c0.1,1.367,0.216,2.75,0.35,4.15l3.45-23.45c-0.067,10.667-0.55,20.433-1.45,29.3
		c-0.233,2.533-0.55,5.384-0.95,8.55C33.817,103.333,33.8,103.384,33.8,103.45z M10.35,187.7l-1.5-0.2c0.066-1.267,0-2.25-0.2-2.95
		c-0.5,0.934-0.967,1.717-1.4,2.351c0.033-0.134,0.05-0.25,0.05-0.351c0.067-0.7,0.067-1.649,0-2.85
		c-0.1-1.834-0.15-2.917-0.15-3.25c0.067-0.767,0.083-1.25,0.05-1.45c0-0.134-0.034-0.233-0.1-0.3v-0.05
		c-0.068-0.067-0.152-0.117-0.25-0.15l0.85-1.15l0.7-0.949c1.2-1.334,2.5-3.25,3.9-5.75l-4.15,5.05c-0.2-1.367,0.85-3.717,3.15-7.05
		c0.967-1.434,2.2-3.717,3.7-6.851l1.1-2.399c1.2-2.634,2.083-5.184,2.65-7.65c0.4-1.7,0.65-3.483,0.75-5.35
		c0.067-2.101,0.15-3.634,0.25-4.601c0.133-1.566,0.45-3.033,0.95-4.399c0.566-1.567,1-3.467,1.3-5.7c0.6-2.934,0.967-5.15,1.1-6.65
		c0.066-0.8,0.15-2.5,0.25-5.1c0.066-2.134,0.217-3.867,0.45-5.2c0.534-2.667,0.817-4.65,0.85-5.95
		c0.4,6.467,0.184,13.75-0.65,21.851c-0.467,4.699-1.333,11.6-2.6,20.699c-0.2,1.534-0.283,4.867-0.25,10
		c0.033,4.067-0.316,7.301-1.05,9.7c-0.867,2.867-1.583,5.733-2.15,8.601c-0.733,3.466-1.733,6.316-3,8.55
		c-1.3-0.134-2.284-0.233-2.95-0.3c0.133-1.301,0.5-3.184,1.1-5.65c0.633-2.6,1.017-4.434,1.15-5.5c-0.633,0.1-1.3,1.417-2,3.95
		c-0.367,1.3-0.767,2.899-1.2,4.8L10.35,187.7z M39.1,187.8c0.467,0.033,0.883,0.066,1.25,0.101
		c-0.133,0.133-0.283,0.267-0.45,0.399l-0.8-0.1C39.1,188.066,39.1,187.934,39.1,187.8z M36.7,187.65c0-0.067,0-0.134,0-0.2
		c0.367,0.1,0.767,0.184,1.2,0.25l-0.15,0.2L36.7,187.65z"/>
</g>
</svg>
