<?xml version="1.0" encoding="iso-8859-1"?>
<!-- Generator: Adobe Illustrator 15.1.0, SVG Export Plug-In . SVG Version: 6.00 Build 0)  -->
<!DOCTYPE svg PUBLIC "-//W3C//DTD SVG 1.1//EN" "http://www.w3.org/Graphics/SVG/1.1/DTD/svg11.dtd">
<svg version="1.1" id="Layer_1" xmlns="http://www.w3.org/2000/svg" xmlns:xlink="http://www.w3.org/1999/xlink" x="0px" y="0px"
	 width="84.45px" height="297.85px" viewBox="0 0 84.45 297.85" style="enable-background:new 0 0 84.45 297.85;"
	 xml:space="preserve">
<g>
	<path style="fill-rule:evenodd;clip-rule:evenodd;fill:#B9B0A7;" d="M42.15,7.25c0.033,0.2,0.116,0.433,0.25,0.7l0.1,51.65
		c0,4.4,0.15,9.9,0.45,16.5l-0.15-0.35c0,5.033-0.017,8.05-0.05,9.05c-0.033,0.567-0.1,1.934-0.2,4.1
		c-0.166,2.033-0.399,3.367-0.7,4c-0.133,0.333-0.317,0.517-0.55,0.55c-0.233,0.033-0.4,0.15-0.5,0.35
		c-0.167,0.267-0.35,0.833-0.55,1.7c-0.133,0.733-0.367,1.25-0.7,1.55c-1.133,0.967-2.25,0.083-3.35-2.65V94
		c-0.067-2.767-0.083-4.817-0.05-6.15c0.033-1.167,0.25-2.184,0.65-3.05c0.467-0.9,1.017-1.283,1.65-1.15
		c0.4-1.6,0.667-3.533,0.8-5.8c0.2-2.633,0.117-4.617-0.25-5.95c0.133,4.867-0.2,7.833-1,8.9c-0.467-1.367-0.767-3.233-0.9-5.6
		c-0.067-0.733-0.117-2.717-0.15-5.95C36.817,57.783,36.8,49.833,36.9,45.4c0.1-3.633,0.25-6.5,0.45-8.6
		c0.333-3.267,0.85-6,1.55-8.2c0.5-0.967,0.733-2.067,0.7-3.3c0.133-2.3,0.217-5.183,0.25-8.65c0.033-3.833,0.066-6.7,0.1-8.6
		c0.033-1.867,0.183-4.5,0.45-7.9c0.533,0.1,0.917,0.267,1.15,0.5C41.783,0.883,41.95,2,42.05,4c0.033,0.267,0.033,0.817,0,1.65
		C42.017,6.383,42.05,6.917,42.15,7.25z M43.95,9c0.5,0.1,1.233,0.133,2.2,0.1c0.267,0,0.55-0.017,0.85-0.05V9.1
		c-0.033,5.9-0.116,14.75-0.25,26.55V69.3h-0.1c-0.101-2.933-0.284-5.4-0.551-7.4c-0.466-3.733-0.816-6.5-1.05-8.3
		c-0.366-3.2-0.583-6.033-0.649-8.5c-0.233-6.167-0.4-10.783-0.5-13.85C43.733,25.817,43.634,21.2,43.6,17.4l-0.1-8.55
		c0.033,0.033,0.083,0.05,0.15,0.05l0.1,0.05h0.1C43.884,8.95,43.917,8.967,43.95,9z M47.5,9.1L48,9.2c0,3.867-0.134,6.917-0.4,9.15
		c-0.166-4.1-0.3-7.184-0.399-9.25V9.05L47.5,9.1z M59.2,39.15v0.05c0,0.966-0.033,1.716-0.101,2.25
		c-0.066,0.367-0.216,1.083-0.449,2.15c-0.233,2.066-0.384,3.133-0.45,3.2c-0.5,0.534-0.851,0.333-1.05-0.6
		c-0.167-1.233-0.284-2.05-0.351-2.45c-0.133,0.4-0.25,1.217-0.35,2.45c-0.101,1.167-0.233,1.883-0.4,2.15
		c-0.166,0.333-0.483,0.583-0.95,0.75c-0.5,0.167-0.833,0.4-1,0.7c-0.433,0.767-0.616,1.934-0.55,3.5
		c0.101,1.9,0.084,3.117-0.05,3.65c-0.066,0.267-0.25,0.583-0.55,0.95c-0.4,0.4-0.65,0.7-0.75,0.9c-0.101-4.3-0.15-8.6-0.15-12.9
		c0.134-2.167,0.55-5.083,1.25-8.75c0.566,0.3,1.066,0.8,1.5,1.5c0.267-0.167,0.517-0.467,0.75-0.9c0.167,0.2,0.351,0.4,0.55,0.6
		l0.75,0.4c0.367,0.167,0.817,0.283,1.351,0.35l0.25,0.05C58.684,39.15,58.934,39.15,59.2,39.15z M61.55,39.2v1.95
		c-0.066,8.533-0.1,13.667-0.1,15.4c0,1,0.05,3.05,0.149,6.15c-0.033,2.8-0.399,4.683-1.1,5.65c-0.167-1.533-0.25-3.417-0.25-5.65
		c0.033-2.534,0.05-4.417,0.05-5.65l-0.2-17.9L61.55,39.2z M72.7,240.15c-0.134,0.066-0.25,0.133-0.351,0.199
		c-0.8,0.667-1.416,1.7-1.85,3.101c-0.333,1.133-0.517,2.3-0.55,3.5v10.3l-0.05,2c-0.034,0.134-0.051,0.283-0.051,0.45L69.7,260.85
		c-0.101,0.567-0.2,1.267-0.3,2.101c-0.2-2.967-0.617-5.7-1.25-8.2c-0.034,1.4-0.034,2.816,0,4.25l-0.051-0.2
		c0.067,2,0.101,4.967,0.101,8.9c-0.101,0.066-0.233,0.166-0.4,0.3c-0.333,0.233-0.717,0.45-1.149,0.65L66.6,267.55v-0.5
		c0.367-4.533,0.884-8.649,1.551-12.35l-0.051-0.15c-0.399,0.4-0.816,1.7-1.25,3.9c-0.233,1-0.35,2.45-0.35,4.35v2.351l-0.05-0.45
		c-0.033-4.634-0.05-8.117-0.05-10.45c-0.034-4.1,0.017-7.583,0.149-10.45c0.066,1.533,0.167,2.584,0.3,3.15
		c0.034-12.733,0.101-22.283,0.2-28.65c0.066-7,0.033-11.85-0.1-14.55c-0.267-4.167-0.4-8.833-0.4-14c0.2,1.3,0.55,2.417,1.05,3.35
		c0.5,1,0.784,1.617,0.851,1.851c0.033,0.2,0.166,1.3,0.399,3.3c0.101,0.833,0.351,4.767,0.75,11.8c0.467,6.634,1,9.983,1.601,10.05
		c0.633-7.833,1.116-16.666,1.45-26.5c0.199-5.899,0.416-14.75,0.649-26.55c0.2-9.666,0.134-22.5-0.2-38.5
		c-0.433-19.533-0.649-32.367-0.649-38.5L72.35,91.3c0.067-1.433,0.2-2.533,0.4-3.3l-1.35,2.1c0.066-2.533,0.35-4.1,0.85-4.7
		c0.3-0.367,0.75-0.6,1.35-0.7c0.367-0.067,0.65-0.583,0.851-1.55c0.133-0.8,0.166-2.45,0.1-4.95c-0.066-2.867-0.066-4.867,0-6
		c0.8,2.466,1.517,5.167,2.15,8.1v3c-0.9,2.967-1.4,4.733-1.5,5.3c-0.134,0.8-0.2,1.983-0.2,3.55c-0.033,2.667-0.033,6.7,0,12.1
		c0,1.867-0.184,4.483-0.55,7.85c-0.233,4.267-0.334,9.417-0.3,15.45c0,3.434,0.033,8.583,0.1,15.45v9.1l0.2-6.45
		c0.166-5.566,0.55-12.533,1.149-20.9c0.567-7.833,1.117-14.2,1.65-19.1c0.066-1.333,0.233-2.2,0.5-2.6
		c0.066,0.233,0.267,1.2,0.6,2.9c0.367,1.533,0.684,2.233,0.95,2.1c0.134-0.066,0.233-0.383,0.3-0.95
		c0.067-0.6,0.101-0.967,0.101-1.1c0-0.067,0-0.117,0-0.15c0-0.067,0-0.117,0-0.15c0.133-1.667,0.2-3.517,0.2-5.55
		c0.1,1.067,0.366,2.733,0.8,5c0.399,2.167,0.649,3.833,0.75,5c0.366,4.133,0.583,7.117,0.649,8.95
		c0.167,3.433,0.117,6.417-0.149,8.95l-0.351,1.9c0.067,7.233,0.267,12.65,0.601,16.25c0.3,3.233,0.566,6.35,0.8,9.35
		c-0.2,2.5-0.35,5.033-0.45,7.601c-0.133,4.966-0.066,11.533,0.2,19.699c0.333,9.9,0.5,16.45,0.5,19.65
		c-0.033,0.167-0.066,0.366-0.1,0.6l-1.7,6.2c0.166-24.1,0.149-44.783-0.05-62.05l-1.15,46.6c-0.4,7.9-0.6,11.934-0.6,12.101
		c-0.167,4.566-0.2,8.583-0.101,12.05l0.25,11.95l-0.35,0.6L79.1,222.15c-0.166-3.967-0.449-9.517-0.85-16.65
		c-0.434-7.733-0.733-13.3-0.9-16.7l0.101-9.35c-0.033-4.066-0.033-8.101,0-12.101c0.366-4.633,0.6-8.116,0.7-10.449
		c0.233-5.233,0.35-11.601,0.35-19.101c-0.066-8.533-0.1-14.917-0.1-19.15l-1.7,14.65c-0.066,0.934-0.601,6.25-1.601,15.95
		c-0.899,9-0.816,18.05,0.25,27.15c0.101,0.933,0.367,2.449,0.801,4.55c0.366,1.899,0.6,3.416,0.699,4.55
		c0.101,1.333,0.15,4.717,0.15,10.15c-0.4,11.133-0.6,18.116-0.6,20.949v3.95c0.6-2.166,1.25-3.416,1.949-3.75l0.051-0.05
		l0.199-0.05l0.851,13.85c-0.667,1.233-1.167,2.15-1.5,2.75c-0.533,1.066-0.95,1.983-1.25,2.75c-0.066,0.066-0.101,0.117-0.101,0.15
		c-0.1,0.3-0.233,0.767-0.399,1.399c-0.2,0.567-0.45,0.983-0.75,1.25c-0.3,0.233-0.733,0.45-1.3,0.65
		c-0.667,0.233-1.117,0.417-1.351,0.55L72.7,240.15z M83.45,161.45c0.033,0.3,0.05,0.616,0.05,0.95l0.95,21.6c0,0.066,0,0.134,0,0.2
		s0,0.149,0,0.25c0,0.066,0,0.133,0,0.2c0,0.066,0,0.149,0,0.25c0,0.166,0,0.35,0,0.55s0,0.399,0,0.6c0,0.167,0,0.351,0,0.55
		c0,0.2,0,0.4,0,0.601c0,4.899-0.017,7.649-0.05,8.25c-0.134,1.934-0.467,4.116-1,6.55v-0.85c0.1-2.834,0.133-6.334,0.1-10.5
		c-0.033-4.7-0.05-8.217-0.05-10.551V161.45z M50.7,273.1l-1.2,1c0.434-5.3,0.767-9.3,1-12c0.366-4.399,0.616-9.866,0.75-16.399
		c0.134-7.267,0.25-12.733,0.35-16.4l0.351-9.25L52,219.7c0.267-1.634,0.566-2.783,0.9-3.45c0.433,0.2,0.783,1.066,1.05,2.6
		c0.133,0.834,0.267,1.967,0.399,3.4c0.334,2.267,0.684,3.634,1.051,4.1c0.333-0.833,0.517-2.316,0.55-4.449
		c-0.033-2.334-0.05-3.817-0.05-4.45c0.033-5.3,0.066-9.267,0.1-11.9c0.066-4.6,0.25-8.517,0.55-11.75
		c0.367-3.467,0.584-5.366,0.65-5.7c0.366-2.066,0.983-3.533,1.85-4.399c0.167,0.3,0.467,0.983,0.9,2.05
		c0.333,0.8,0.649,1.384,0.95,1.75l0.149,4.05l0.25-3.649L61.4,188c0.199,0.1,0.649,0.2,1.35,0.3c0.566,0.066,1.017,0.334,1.35,0.8
		c0.034,0.034,0.134,0.367,0.301,1l0.25,1c0.267,0.934,0.449,1.967,0.55,3.101c0.033,0.399,0.083,1.517,0.149,3.35
		c0.067,2.667,0.2,6.667,0.4,12c-0.4-5.066-0.6-8.883-0.6-11.45L63.8,248.45c0.167,1.733,0.267,3.783,0.3,6.149
		c0.034,1.367,0.051,3.417,0.051,6.15c0,1.2-0.034,2.033-0.101,2.5c-0.133,0.866-0.45,1.566-0.95,2.1
		c-0.133,0.167-0.399,0.351-0.8,0.551c-0.5,0.233-0.816,0.399-0.95,0.5c-0.433,0.233-0.683,0.466-0.75,0.699
		c-0.166,0.334-0.166,0.684,0,1.051c0.167,0.466,0.25,0.783,0.25,0.949c-0.033,0.634-0.366,1.134-1,1.5
		c-0.366,0.2-1.033,0.417-2,0.65l-0.25-4.45l-0.05,4.55l-0.85,0.2h-0.75c-0.066,0.134-0.134,0.267-0.2,0.4
		c-0.533,0.267-0.85,0.649-0.95,1.149h0.3l-0.399,0.75c0.133-0.933,0.217-2.216,0.25-3.85c0-1.667,0.033-2.717,0.1-3.15
		c0.667-5.199,1.25-9.083,1.75-11.649c1-5.167,1.45-10.851,1.351-17.05c0.166-3.4,0.316-5.967,0.449-7.7
		c0.267-3.033,0.667-5.417,1.2-7.15l-0.1-7.25c-0.4-7.133-0.584-12.5-0.55-16.1c-0.167,2.3-0.317,5.633-0.45,10
		c-0.167,4.6-0.316,7.95-0.45,10.05c-0.2,2.866-0.333,7.184-0.4,12.95L57.8,232.1l-1,14.101c-1.1,1.066-1.833-2.717-2.2-11.351
		c-0.433,0.2-0.649,1.75-0.649,4.65c0,1.533,0.05,3.434,0.149,5.7c0,8,0.017,12.783,0.051,14.35l2.199-7.2
		c-0.166,1.267-0.466,3.15-0.899,5.65l-0.351,4c-0.166,1.6-0.35,2.917-0.55,3.95c-0.434,2.233-1.033,3.95-1.8,5.149
		C52.483,271.533,51.8,272.2,50.7,273.1z M48.15,284.65v-6.9c0.666,0.667,1.883,0.8,3.649,0.4c-0.2,0.3-0.416,0.6-0.649,0.899
		c-0.801,1-1.717,2.15-2.75,3.45C48.3,283.267,48.217,283.983,48.15,284.65z M42.75,187.65l0.05,0.149v1.9
		c0,7.633-0.083,12.899-0.25,15.8c-0.2,2.733-0.217,5.05-0.05,6.95c-0.033,2.267-0.05,6.217-0.05,11.85
		c0.033,5.033,0,8.983-0.101,11.851l-0.1,1.6l0.95,5.5c0.866-12.5,1.483-21.75,1.85-27.75c0.434,0.6,0.783,1.25,1.05,1.95
		c1.134,2.434,1.801,4.2,2,5.3L48.15,223v14.2L48.8,230.1c0,0.834,0.05,1.617,0.15,2.351l-0.8,14.45v-9.7l-0.601,5.25
		c-0.133,1.066-0.35,2.633-0.649,4.7c-0.233,1.833-0.367,3.399-0.4,4.699c-0.066,1.767-0.1,4.384-0.1,7.851
		c0,1.399,0.033,5.783,0.1,13.149v2.65c0,1.3-0.184,3.25-0.55,5.85c-0.334,2.567-0.5,4.517-0.5,5.851
		c0.033,1.767-0.084,4.383-0.351,7.85L44.9,295.1c-0.534-4.666-0.9-8.666-1.101-12c0.101-1.233,0.3-2.366,0.601-3.399l-1.101-9.5
		c0,3.833,0.167,8.133,0.5,12.899c-0.133,1.2-0.2,2.684-0.2,4.45c0,0.967,0.017,2.384,0.051,4.25l-0.051,3.4l-1.85,0.25l-1.85,0.2
		c-0.033-0.034-0.05-0.084-0.05-0.15l0.05-27.85c0-5.834-0.316-12.584-0.95-20.25l-0.15,1.449l-0.05,0.2l-0.1,1.3l-0.05,0.301
		l-0.2,3.1l-2.1-13.6l0.75,6c-0.167,0.5-0.316,1.616-0.45,3.35c-0.333,3.833-0.5,9.65-0.5,17.45c0.066,7.899,0.167,13.149,0.3,15.75
		c-0.066-0.033-0.133-0.05-0.2-0.05c-0.4-0.101-0.967-0.184-1.7-0.25l-0.65-6.45v6.399l-1.25-0.1l0.25-2.4
		c0.333-2.566,0.383-4.566,0.15-6c-1.7-0.033-2.75,2.584-3.15,7.851c-0.1-0.033-0.184-0.066-0.25-0.101l-0.25-0.1
		c-0.667-0.3-1.2-0.7-1.6-1.2c-0.4-0.533-0.65-1.133-0.75-1.8l-0.4-3.1c-0.067-0.267-0.117-0.517-0.15-0.75
		c-0.167-1.067-0.333-2.017-0.5-2.851l-0.2-0.95c0.733,0.301,1.333,0.45,1.8,0.45c0.633-0.066,1.1-0.25,1.4-0.55
		c1.167-1.066,1.833-3.634,2-7.7c-0.034-4.6,0.017-7.666,0.15-9.2c0.167-1.5,0.333-3.6,0.5-6.3c0.167-2.967,0.316-5.083,0.45-6.35
		c0.7-5.066,1.184-8.884,1.45-11.45c0.1-1.4,0.2-2.45,0.3-3.15c0.1-1.199,0.333-2.116,0.7-2.75l0.35-0.5
		c0.3,1.101,0.483,4.184,0.55,9.25l0.6,4.851c0.233-2.7,0.433-5.7,0.6-9c0.2-4.2,0.3-11.55,0.3-22.05c0-2.101,0.083-4.483,0.25-7.15
		c0.167-3.167,0.383-6.017,0.65-8.55c0.067-0.967,0.333-1.4,0.8-1.3c0.633,0.066,1.217,0.316,1.75,0.75
		C41.25,190.616,42.05,189.783,42.75,187.65z M20.85,177.9c0.066,0.699,0.133,1.716,0.2,3.05c0.267,1.366,0.534,2.399,0.8,3.1
		c0.433-0.166,1.15-1.166,2.15-3c0.667,1.5,0.85,3.367,0.55,5.601c0.6,13.733,0.967,21.899,1.1,24.5c0.2-7.767,0.4-13.601,0.6-17.5
		c0-0.034,0.05-1.817,0.15-5.351c0-3.267,0-5.05,0-5.35c0.1-2.267,0.4-3.917,0.9-4.95c0.267-0.533,0.784-1,1.55-1.4
		c0.767-0.433,1.267-0.899,1.5-1.399l0.15-0.65c0.767,0.5,1.183,0.767,1.25,0.8c0.1,0.034,0.25,0.034,0.45,0
		c0.2-0.066,0.35-0.083,0.45-0.05c0.233,0.066,0.517,0.267,0.85,0.601c-1.533,23-2.367,35.833-2.5,38.5
		c-0.867,16.666-1.267,29.966-1.2,39.899c0.233,3.767,0.05,7.533-0.55,11.3l-1.7,2.601c-1.1-1.3-1.85-2.684-2.25-4.15
		c-0.333-1.2-0.533-2.833-0.6-4.899l0.1,8.6l-0.2-0.6c-0.9-2.101-1.8-3.65-2.7-4.65c-0.133-0.134-0.283-0.267-0.45-0.4
		c-0.067-0.033-0.117-0.066-0.15-0.1c-0.2-0.134-0.533-0.316-1-0.55c-0.033-0.033-0.083-0.066-0.15-0.101H20.1
		c0-0.033-0.017-0.05-0.05-0.05c-0.1-0.066-0.216-0.133-0.35-0.2c-0.7-0.333-1.217-0.633-1.55-0.899c-1.033-0.9-1.533-2.75-1.5-5.55
		c0.067-3.101-0.183-5.134-0.75-6.101l-0.1-0.1c-0.167-0.267-0.4-0.517-0.7-0.75l-0.3-0.2c-0.367-0.2-0.8-0.384-1.3-0.55
		c-1.267-0.267-2.183-0.483-2.75-0.65v-12.75c0.033-7-0.183-17.517-0.65-31.55c-0.267-8.767-0.467-16.167-0.6-22.2L9.45,223.15
		c0,4.933-0.1,12.366-0.3,22.3c-0.533-0.467-0.883-1.101-1.05-1.9c-0.067-0.267-0.167-1-0.3-2.2c-0.167-2.066-0.267-5.833-0.3-11.3
		c-0.033-4.767-0.25-8.517-0.65-11.25c-2.333-1-4.017-2.267-5.05-3.8c-0.466-0.667-0.833-1.4-1.1-2.2
		c0.066-0.899,0.083-1.616,0.05-2.149c-0.033-0.434-0.15-1.45-0.35-3.051c-0.1-0.633-0.167-1.199-0.2-1.699v-1.45
		c0.033-0.7,0.15-1.25,0.35-1.65c0.233-0.434,0.434-0.833,0.6-1.2c0.2-0.399,0.4-1.05,0.6-1.949c0.2-0.834,0.417-1.467,0.65-1.9
		c0.4-0.7,0.767-1.5,1.1-2.4l0.85-2.699c0.367-1.2,0.566-1.834,0.6-1.9c0.1-0.533,0.133-1.283,0.1-2.25
		c-0.233-4.866-0.333-7.866-0.3-9c0.067-3.667,0.483-8.1,1.25-13.3c1.1-7.867,1.7-12.25,1.8-13.15l0.25-1.399
		c0,0.399-0.05,1.1-0.15,2.1c-0.033,0.9-0.017,1.55,0.05,1.95c0.7,1.033,1.333,1.816,1.9,2.35c1.033,1.533,1.833,3.316,2.4,5.351
		c0.2,0.933,0.317,2.35,0.35,4.25c0,1.033-0.017,2.416-0.05,4.149c0.034,3.867,0.034,9.684,0,17.45c0.034,3,0.417,8.6,1.15,16.8
		c0.233,2.8,0.383,6.884,0.45,12.25c0.067,5.667,0.2,9.8,0.4,12.4l1.25,14.05l0.05-3.25c0.066-8.934,0.033-16.566-0.1-22.9
		c0.233,0.733,0.367,1.667,0.4,2.801c0.033,0.666,0.05,1.649,0.05,2.949l0.3,3.75c0.133,1.634,0.4,4.084,0.8,7.351l0.65,4.95
		l0.15-20.7c0.033-2.4,0.017-5.983-0.05-10.75c0-6.167,0.3-13.601,0.9-22.3c0-3.534,0.183-6.167,0.55-7.9
		C19.933,178.316,20.383,178.033,20.85,177.9z M35.7,177.05l-0.45,0.4V177L35.7,177.05z M41.15,103.85
		c0.633,1.1,1.234,1.783,1.8,2.05c-0.233,3.767-0.334,8.434-0.3,14c0.033,3.133,0.083,7.817,0.149,14.05V152
		c-0.133,1.566-0.316,4-0.55,7.3c-0.233,2.9-0.533,5.25-0.9,7.05c-0.133,0.767-0.367,1.517-0.7,2.25c-0.4,0.834-0.8,1.334-1.2,1.5
		c-0.5,0.233-0.867,0.034-1.1-0.6c-0.333-0.9-0.617-1.434-0.85-1.6c-0.233-0.134-0.45-0.034-0.65,0.3
		c-0.233,0.366-0.434,0.517-0.6,0.45c-0.167-0.067-0.333-0.267-0.5-0.601c0.033-0.733,0-2.95-0.1-6.649
		c0.633-4.733,1.067-9.351,1.3-13.851c0.233-4.2,0.267-9.283,0.1-15.25c-0.233-6.8-0.4-11.9-0.5-15.3
		c-0.367,0.367-0.6,1.833-0.7,4.4c-0.067,1.367-0.1,2.983-0.1,4.85c-0.1,3.967-0.15,11.867-0.15,23.7l-0.05,1.85l-0.4-11.4v0.55
		L35,137.4c-0.367,1.533-0.733,5.817-1.1,12.85c-0.333,3.767-0.517,6.316-0.55,7.65c-0.033,1.466-0.1,3.649-0.2,6.55
		c0.1,1.767,0.083,3.017-0.05,3.75c-0.267-0.033-0.633-0.2-1.1-0.5c-0.533-0.367-0.917-0.601-1.15-0.7l-0.3-2.25
		c-0.133-2.333-0.183-5.316-0.15-8.95c0.1-4.066,0.15-7.066,0.15-9c-0.1-12.267-0.133-21.45-0.1-27.55l-0.25,5.5
		c-0.1,3.367-0.284,7.2-0.55,11.5c-0.367,4.9-0.867,9.6-1.5,14.1l-1.7,12.851c-0.133,1.1-0.317,1.833-0.55,2.2
		c-0.133,0.199-0.383,0.35-0.75,0.449c-0.433-1.966-0.683-3.333-0.75-4.1c-0.267-2.5-0.367-5.5-0.3-9
		c0.033-1.167,0.133-2.967,0.3-5.4c0.2-2.367,0.3-4.184,0.3-5.45v-37.45c-0.133-6.233-0.2-10.917-0.2-14.05
		c0-2.4-0.133-6.933-0.4-13.6c-0.233-5.733-0.283-10.267-0.15-13.6l-1.7,25.5c0,2.433-0.067,6.083-0.2,10.95l-0.2,11.1
		c0,0.667,0,1.467,0,2.4v0.95c0,0.267,0,0.533,0,0.8l-0.05,2.05c0,0.466,0,0.95,0,1.45c-0.033,0.267-0.05,0.55-0.05,0.85
		c-0.033,3.433,0,6.267,0.1,8.5l0.05,0.35c-0.267,2.933-0.4,5.117-0.4,6.55c-0.033,0.967-0.067,1.567-0.1,1.8
		c-0.066,0.433-0.267,0.933-0.6,1.5L20.45,138l-0.3,0.2c0.5-2.733,0.684-4.934,0.55-6.6c-0.267,0.633-0.667,1.683-1.2,3.15
		c-0.533,1.1-1.183,1.4-1.95,0.9c-0.433-0.3-0.683-0.783-0.75-1.45c-0.033-0.233-0.033-1,0-2.3c0.167-2.9,0.25-5.1,0.25-6.6
		c0.133-7.7,0.233-23.117,0.3-46.25c-0.133,3.1-0.233,7.784-0.3,14.05c-0.066,6.233-0.167,10.9-0.3,14
		c-0.2,5.167-1.017,12.55-2.45,22.15c-0.2,1.567-0.433,2.6-0.7,3.1c-0.033,0.1-0.15,0.167-0.35,0.2c-0.2,0-0.333,0.083-0.4,0.25
		c-0.233,0.467-0.434,1.083-0.6,1.85c-0.2-1.7-0.35-2.967-0.45-3.8c-0.167-1.533-0.267-2.85-0.3-3.95
		c-0.067-2.566-0.6-5.267-1.6-8.1c-1.3-3.2-2.267-5.583-2.9-7.15c-0.833-2.133-1.8-3.933-2.9-5.4c0.133-0.333,0.217-0.65,0.25-0.95
		c0.267-1.333,0.383-3.6,0.35-6.8c-0.034-4.233-0.05-6.533-0.05-6.9c0.1-2.133,0.1-3.434,0-3.9c-0.2-0.967-0.8-1.467-1.8-1.5
		c0.167-1.733-0.483-3.05-1.95-3.95l0.2-3.7c0.167-1.1,0.417-2.033,0.75-2.8c0.033-0.1,0.083-0.183,0.15-0.25
		c0.8-1.7,2.183-2.717,4.15-3.05C6.45,77.983,6.6,84.467,6.6,91.9c0,2.533,0.1,4.434,0.3,5.7c0.267,1.8,0.817,3.467,1.65,5
		c0.367,0.667,0.85,1.417,1.45,2.25c0.467,0.8,0.733,1.833,0.8,3.1l0.35,4.95c0.367-5.267,0.55-14.133,0.55-26.6V62.8v-0.05
		c0.066-0.233,0.15-0.45,0.25-0.65l0.75-1.85l0.2-0.3l0.05-0.1L13,59.775c0.049-0.082,0.099-0.173,0.15-0.275
		c0.133-0.167,0.267-0.367,0.4-0.6l1.9-2.4c0.767-0.867,1.183-2.117,1.25-3.75c-0.1-1.9-0.15-3.267-0.15-4.1
		c0-0.867,0.017-1.7,0.05-2.5c0-0.4,0.017-0.75,0.05-1.05c0,0.033,0,0.083,0,0.15c0.2,4.767,0.333,8.567,0.4,11.4
		c0.034-2.066,0.1-4.5,0.2-7.3c0.167-5.1,0.267-8.133,0.3-9.1c0-0.067,0-0.117,0-0.15L18,39.05l0.1,8.3
		c0.033,4.8,0.183,13.767,0.45,26.9c0.1,4.933,0.184,9.433,0.25,13.5c0.034-2.467,0.05-4.567,0.05-6.3
		c0.033-7.534,0.217-14.1,0.55-19.7c0.1-1.567,0.5-5.65,1.2-12.25c0.533-5.067,0.75-9.2,0.65-12.4c0.1,0,1.45,0.05,4.05,0.15
		c-0.267,7.6-0.283,16.35-0.05,26.25c0.067,3.067,0.183,7.633,0.35,13.7c0.167,5.433,0.233,10.017,0.2,13.75v11.45
		c0,0.6-0.017,1.617-0.05,3.05c-0.033,1.267,0.033,2.233,0.2,2.9c0.4-1.033,0.8-3.2,1.2-6.5l0.55-0.95
		c0.167-0.167,0.433-0.333,0.8-0.5c0.367-0.167,0.633-0.316,0.8-0.45c0.167-0.167,0.383-0.467,0.65-0.9
		c0.233-0.4,0.433-0.667,0.6-0.8l0.9,0.3l0.05,6.9l-0.05,0.15c-0.3,7.6-0.45,16.75-0.45,27.45c0,5.5,0.033,13.483,0.1,23.95
		c0.066-3.366,0.183-6.233,0.35-8.6c0.133-2.1,0.233-5.133,0.3-9.1c0.1-4.167,0.2-7.2,0.3-9.1c0.467-9.067,0.717-15.883,0.75-20.45
		l0.15-5.85c0.3-0.233,0.583-0.3,0.85-0.2c0.067,0.033,0.317,0.2,0.75,0.5c0.133,0.133,0.35,0.033,0.65-0.3
		c0.033-0.2,0.167-0.55,0.4-1.05c0.2-0.167,0.483-0.25,0.85-0.25c0.2,0,0.483,0.017,0.85,0.05c0.967,0,1.733,0.15,2.3,0.45
		c0.167,0.1,0.433,0.3,0.8,0.6C40.733,103.933,40.983,103.983,41.15,103.85z M30.1,55.45l-0.05-0.9
		c-0.167-2.1-0.283-3.683-0.35-4.75c-0.133-1.867-0.2-3.45-0.2-4.75l-0.4-24.7l0.1-0.2v0.05v1.3l0.2-1.6l0.7-0.8l0.35-0.45
		c0.033-0.033,0.066-0.083,0.1-0.15c-0.633,4.7-0.883,10.817-0.75,18.35C30.033,47.583,30.133,53.783,30.1,55.45z M28.6,96.75
		c-0.233-0.033-0.467-0.167-0.7-0.4l0.15-0.85C28.25,96.1,28.433,96.517,28.6,96.75z M1.9,108.35l-0.15-0.3l0.15-0.2V108.35z
		 M54.95,76.6c0.399,0.5,0.649,1.433,0.75,2.8c0.033,0.4,0.05,1.45,0.05,3.15l0.05,0.85L55.2,80
		C55.1,78.567,55.017,77.433,54.95,76.6z M53.9,76.3l-0.2,0.75c-0.434,1.467-0.767,3.167-1,5.1l-0.101-3.5
		C53.134,77.317,53.566,76.533,53.9,76.3z M53.75,169.45v-0.75c1-11.566,1.566-22.767,1.7-33.6c0.033-3.3,0.033-7.517,0-12.65
		c-0.033-7.067-0.05-11.3-0.05-12.7c-0.034-0.7-0.051-1.533-0.051-2.5c0-1.967,0.067-3.083,0.2-3.35c0.233,0.033,0.467,0.2,0.7,0.5
		c0.134,0.167,0.333,0.434,0.6,0.8c0.601,0.733,1.317,1.35,2.15,1.85c0.733,0.467,1.3,1.55,1.7,3.25c0.2,0.934,0.517,2.4,0.95,4.4
		c0.399,1.2,0.666,2.816,0.8,4.85c0.066,1.167,0.166,2.9,0.3,5.2c0.1,1.267,0.167,2.633,0.2,4.1v-7.6
		c-0.033-1.9-0.05-3.433-0.05-4.6c0.033-2.1,0.166-3.65,0.399-4.65c0.2-0.867,0.634-1.617,1.3-2.25
		c0.834-0.8,1.351-1.383,1.551-1.75c0.066-0.133,0.183-0.5,0.35-1.1c0.134-0.533,0.25-0.867,0.35-1
		c0.233-0.233,0.551-0.367,0.95-0.4c0.233,0,0.566-0.017,1-0.05c0.167,0.9,0.283,1.933,0.351,3.1c0.033,1.034,0.017,3.35-0.051,6.95
		c-0.3,12.867,0.034,24.067,1,33.6c0,0.067,0,0.134,0,0.2c-0.1,3.634-0.149,7.25-0.149,10.851L69.85,163.6
		c-0.399,0.867-0.833,2.65-1.3,5.351c-0.434,2.399-0.983,4.05-1.649,4.95c-0.334,0.466-0.851,0.75-1.551,0.85
		c-0.699,0.1-1.183,0.316-1.449,0.65c-0.2,0.233-0.367,0.566-0.5,1c-0.067,0.166-0.317,0.283-0.75,0.35
		c-0.301,0.033-0.9-0.1-1.801-0.4c-0.5-0.133-0.866-0.25-1.1-0.35c-0.4-0.167-0.717-0.384-0.95-0.65
		c-0.2-0.267-0.483-0.85-0.85-1.75c-0.267-0.733-0.601-1.183-1-1.35c-0.3-0.134-0.851-0.184-1.65-0.15
		c-0.633,0.067-1.149-0.133-1.55-0.6l0.15-2.8L53.75,169.45z M76.9,81.4L77.05,82l-0.2,0.8L76.9,81.4z M48.6,275
		c-0.199,0.2-0.35,0.417-0.449,0.65v-4.4C48.25,272.017,48.4,273.267,48.6,275z M66.5,182.2v-1.8l0.95-2.051
		C66.983,180.017,66.667,181.3,66.5,182.2z M61.05,191.55c-0.7,11.4-1.017,20.283-0.95,26.65l0.051,3.95l0.05-0.051
		c0.133,1.733,0.184,3.967,0.149,6.7c-0.033,1.566-0.066,3.851-0.1,6.851c0,4.199,0.116,10.483,0.35,18.85l0.101-2.6
		c0.133-4.567,0.2-10.101,0.2-16.601c-0.034-7.399-0.051-12.95-0.051-16.649c0-1.834,0.067-6.351,0.2-13.551
		C61.15,199.533,61.15,195.017,61.05,191.55z M69.8,265l0.075-1.475l-0.025,1.324L69.8,265z"/>
	<path style="fill-rule:evenodd;clip-rule:evenodd;fill:#898074;" d="M42.15,7.25c0.133,0.533,0.383,0.95,0.75,1.25
		c-0.2-0.133-0.367-0.317-0.5-0.55C42.267,7.683,42.184,7.45,42.15,7.25z M46.15,9.1c-0.967,0.033-1.7,0-2.2-0.1c0.1,0,0.2,0,0.3,0
		C44.684,9.033,45.316,9.067,46.15,9.1z M48.75,9.4L48,9.2l-0.5-0.1c0.033,0,0.066,0,0.1,0C48,9.167,48.384,9.267,48.75,9.4z
		 M54.25,24.8c0-1.267-0.017-2.417-0.05-3.45c-0.033-0.533-0.05-1.05-0.05-1.55C54.25,21.267,54.283,22.933,54.25,24.8z M69.7,41.45
		L68.9,41c-0.733-0.433-1.801-0.8-3.2-1.1c-0.767-0.167-1.9-0.383-3.4-0.65C66.033,39.783,68.5,40.517,69.7,41.45z M76.7,83.3v-3
		c-0.634-2.933-1.351-5.633-2.15-8.1l-0.85-2.3l-0.351-1c1.467,3.567,2.717,8,3.75,13.3L77.05,82L76.9,81.4l-0.15-0.8L76.7,83.3z
		 M79.55,95.25c-0.133-1.433-0.25-2.633-0.35-3.6c-0.167-1.7-0.367-3.233-0.601-4.6c0.267,1.367,0.483,2.917,0.65,4.65
		C79.35,92.667,79.45,93.85,79.55,95.25z M83.15,203.1c0.033-0.233,0.066-0.433,0.1-0.6l0.1-0.35v0.05
		C83.283,202.434,83.217,202.733,83.15,203.1z M78.6,216.7l0.5,5.45l0.351,8.399l0.35-0.6c0.834-1.601,1.334-3.033,1.5-4.3
		L81.4,220.6v3.7c0.033,1.733-0.551,3.733-1.75,6c-1.7,3.2-2.684,5.117-2.95,5.75c0.3-0.767,0.717-1.684,1.25-2.75
		c0.333-0.6,0.833-1.517,1.5-2.75L78.6,216.7z M72.7,240.15l0.1-0.101c0.233-0.133,0.684-0.316,1.351-0.55
		c0.566-0.2,1-0.417,1.3-0.65c-0.3,0.267-0.8,0.517-1.5,0.75C73.45,239.767,73.033,239.95,72.7,240.15z M69.4,266.25
		c0.133-0.3,0.267-0.717,0.399-1.25l0.05-0.15l0.025-1.324L69.95,259c-0.002,0.04-0.019,0.123-0.05,0.25l0.05-2v1.05
		c0,0.867,0.05,2.233,0.149,4.101C70.1,264,69.866,265.283,69.4,266.25z M66.5,265.15V262.8l0.1,4.25v0.5L66.5,265.15z
		 M65.05,269.35c0.5-0.233,1.033-0.466,1.601-0.699c-0.101,0.066-0.2,0.116-0.301,0.149C65.884,269,65.45,269.184,65.05,269.35z
		 M55.95,271.55h0.75c0.566,0.033,1.133,0.033,1.7,0C57.6,271.616,56.783,271.616,55.95,271.55z M55.1,273.1l0.65-1.149
		c-0.333,0.666-0.684,1.3-1.05,1.899c-0.467,0.801-0.95,1.551-1.45,2.25c-0.366,0.567-0.85,1.25-1.45,2.051l2.9-4.301L55.1,273.1z
		 M33.85,282.35l0.65,0.051c0.733,0.066,1.3,0.149,1.7,0.25c-0.434-0.067-1.717-0.2-3.85-0.4h0.25L33.85,282.35z M18.15,260.2
		c0.333,0.267,0.85,0.566,1.55,0.899c0.133,0.067,0.25,0.134,0.35,0.2C19.083,260.833,18.45,260.467,18.15,260.2z M9.35,245.65
		c-0.533-0.434-0.917-0.983-1.15-1.65c-0.167-0.434-0.3-1.316-0.4-2.65c0.133,1.2,0.233,1.934,0.3,2.2
		c0.167,0.8,0.517,1.434,1.05,1.9C9.217,245.517,9.283,245.583,9.35,245.65z M17.1,231.25l0.85,9.15l-0.65-4.95L17.1,231.25z
		 M1.55,109.75l-0.1,1c0-0.3,0-0.6,0-0.9L1.55,109.75z M1.1,85.95l0.05,1.8c-0.1-1.367-0.167-2.55-0.2-3.55L1.1,85.95z M0.9,82.25
		l0.05,1.15c-0.034-0.267-0.05-0.517-0.05-0.75C0.9,82.517,0.9,82.383,0.9,82.25z M13.55,58.9c-0.133,0.233-0.267,0.434-0.4,0.6
		c-0.051,0.102-0.101,0.193-0.15,0.275c0.042-0.075,0.075-0.15,0.1-0.225C13.233,59.35,13.383,59.133,13.55,58.9z M25.3,37.25
		c-2.6-0.1-3.95-0.15-4.05-0.15c0.433-0.033,0.9-0.033,1.4,0c2.033,0.1,3.217,0.133,3.55,0.1l-0.4,0.05H25.3z M30.1,19.1l-0.7,0.8
		l-0.2,1.6v-1.3c0.066-0.1,0.133-0.2,0.2-0.3c0.1-0.167,0.217-0.316,0.35-0.45C29.85,19.35,29.967,19.233,30.1,19.1z M32.75,16.05
		l-1,1.15l-1.2,1.3C31.15,17.8,31.883,16.983,32.75,16.05z M35.5,1.5l0.05-0.95c0.034-0.033,0.067-0.05,0.1-0.05L35.5,1.5z
		 M27.6,26.9l0.05,8.25l-0.1-3.25l-0.2,5.2l0.15-10l0.05,2.8L27.6,26.9z M31.5,106.9l-0.05-1.3l0.05-0.15V106.9z M33.25,98.65h-0.1
		V98.6l-0.25-0.15L33.25,98.65z M35,137.4l0.15,3.55l-0.2,7.5L35,137.4z M31.45,84.175V88.6c-0.067-0.9-0.083-2.067-0.05-3.5
		C31.425,84.775,31.442,84.467,31.45,84.175z M31.45,81.35l0.05-0.25l-0.05,0.55C31.45,81.55,31.45,81.45,31.45,81.35z M1.75,108.05
		v-0.1l0.3-4.05l0.1,0.1l-0.25,2.15v1.7L1.75,108.05z M22.05,99.65c0,0.867,0.017,1.783,0.05,2.75c-0.033-0.233-0.05-0.467-0.05-0.7
		l-0.2,11.45c0-0.933,0-1.733,0-2.4L22.05,99.65z M51.75,194.5l0.3-3.05l0.5-3.15L51.75,194.5z M55.8,83.4l0.2,3.25L55.2,80
		L55.8,83.4z M48.95,79.85l0.05-2.3v2.2L48.95,79.85z M70.1,149.1v-0.2c-0.133-2.9-0.083-6.433,0.15-10.6l0.45-7.7L70.1,149.3
		C70.1,149.233,70.1,149.167,70.1,149.1z M53.75,169.45l0.15-0.75l-0.15,2.8V169.45z M72.45,90.05l-0.15,3.7l0.05-2.45L72.45,90.05z
		 M17.65,149.8l0.75-2.05l-0.25,0.75l-0.65,1.8L17.65,149.8z M49.5,274.1l1.2-1L48.6,275L49.5,274.1z M78.35,216.8V216.4l0.051,0.35
		L78.35,216.8z M38.4,253.75l-1.35-7.6l-0.75-6L38.4,253.75z M43.6,295.2L44.9,295.1l-3.15,0.351L43.6,295.2z"/>
	<path style="fill-rule:evenodd;clip-rule:evenodd;fill:#9B9286;" d="M35.25,177.45c0,13.333-0.033,23.35-0.1,30.05
		c0,3.566-0.2,7.75-0.6,12.55c0.067-17.833,0.167-31.217,0.3-40.149l-3,28.25c0.1,1.333,0.05,3.05-0.15,5.149
		c-0.1,1.2-0.25,2.917-0.45,5.15c-0.233,4.233-0.35,9.7-0.35,16.399c0,7.934-0.117,13.884-0.35,17.851
		c-0.066,1.366-0.133,3.467-0.2,6.3c-0.067,2.467-0.283,4.5-0.65,6.1c-0.534,2.2-1.017,3.5-1.45,3.9
		c-0.133,0.134-0.383,0.25-0.75,0.35c-0.333,0.067-0.583,0.267-0.75,0.601l0.8,1.35c-0.466,0-1.066-0.149-1.8-0.45
		c-0.033-0.1-0.05-0.199-0.05-0.3c-0.133-0.566-0.284-1.1-0.45-1.6l-0.1-0.3c-0.1-0.334-0.217-0.634-0.35-0.9l-0.1-8.6
		c0.066,2.066,0.267,3.699,0.6,4.899c0.4,1.467,1.15,2.851,2.25,4.15l1.7-2.601c0.6-3.767,0.783-7.533,0.55-11.3
		c-0.066-9.934,0.333-23.233,1.2-39.899c0.133-2.667,0.967-15.5,2.5-38.5c-0.333-0.334-0.617-0.534-0.85-0.601
		c-0.1-0.033-0.25-0.017-0.45,0.05c-0.2,0.034-0.35,0.034-0.45,0c-0.067-0.033-0.483-0.3-1.25-0.8
		c-0.867-0.733-1.567-1.017-2.1-0.85c-0.5,0.2-1.217,0.816-2.15,1.85c-0.933,1.101-1.65,1.767-2.15,2
		c-0.4,0.167-0.917,0.25-1.55,0.25c-0.8,0-1.316,0.017-1.55,0.05l-0.15,0.051c-0.467,0.133-0.917,0.416-1.35,0.85
		c-0.3,0.333-1.1,1.467-2.4,3.4c-0.1,1.066-0.15,2.616-0.15,4.649c0,2.066-0.034,3.5-0.1,4.3c-0.434,5.5-0.583,12.2-0.45,20.101
		c0.033,0.666,0.267,7.35,0.7,20.05l0.2,4.2c-0.4-3.267-0.667-5.717-0.8-7.351c-0.067-3.566-0.233-8.649-0.5-15.25
		c-0.3-7.033-0.483-12.116-0.55-15.25l-0.35,18.75c0,10.334,0.05,16.784,0.15,19.351c0.067,1.233,0.267,3.166,0.6,5.8l-0.05,3.25
		l-1.25-14.05c-0.2-2.601-0.333-6.733-0.4-12.4c-0.066-5.366-0.217-9.45-0.45-12.25c-0.733-8.2-1.117-13.8-1.15-16.8
		c0.034-7.767,0.034-13.583,0-17.45c0.034-1.733,0.05-3.116,0.05-4.149c-0.033-1.9-0.15-3.317-0.35-4.25
		c-0.567-2.034-1.367-3.817-2.4-5.351c-0.567-0.533-1.2-1.316-1.9-2.35c-0.067-0.4-0.083-1.05-0.05-1.95c0.1-1,0.15-1.7,0.15-2.1
		v-0.2c0-1.267-0.1-2.667-0.3-4.2c-0.233-1.7-0.417-3.017-0.55-3.95c-0.133-1.167-0.184-2.683-0.15-4.55
		c0.067-2.067,0.1-3.583,0.1-4.55c0.067-2.567,0.083-4.517,0.05-5.85c-0.1-2.733-0.317-5.184-0.65-7.35L6,118.8
		c-0.833-2.367-1.667-4.367-2.5-6c-0.5-0.367-0.917-0.85-1.25-1.45c-0.167-0.367-0.283-0.983-0.35-1.85l0.2-0.05l-0.2-1v-0.1v-0.5
		v-1.7L2.15,104c0.4-4.667,0.583-8.683,0.55-12.05c-0.034-1.567-0.083-2.65-0.15-3.25c-0.133-1.133-0.4-2.05-0.8-2.75L1.7,85.9
		c-0.034-0.633-0.284-1.2-0.75-1.7v-0.8L0.9,82.25c1.467,0.9,2.117,2.217,1.95,3.95c1,0.033,1.6,0.533,1.8,1.5
		c0.1,0.466,0.1,1.767,0,3.9c0,0.367,0.017,2.667,0.05,6.9c0.033,3.2-0.083,5.467-0.35,6.8c-0.033,0.3-0.117,0.617-0.25,0.95
		c1.1,1.467,2.066,3.267,2.9,5.4c0.633,1.567,1.6,3.95,2.9,7.15c1,2.833,1.533,5.534,1.6,8.1c0.033,1.1,0.133,2.417,0.3,3.95
		c0.1,0.833,0.25,2.1,0.45,3.8c-0.1,0.467-0.233,1.184-0.4,2.15c-0.167,0.867-0.333,1.534-0.5,2l-0.95-6.75v-0.25
		c-0.033-1.233-0.066-2.183-0.1-2.85c-0.033-1.2,0.05-2.017,0.25-2.45l-0.75-1.4c-0.667-2.033-1.233-3.5-1.7-4.4
		c-0.633-1.3-1.167-2.317-1.6-3.05c0.5,1.367,0.867,3.217,1.1,5.55c0.066,0.7,0.183,2.667,0.35,5.9c0.1,1.533,0.333,3.833,0.7,6.9
		c0.167,1.6,0.2,4.4,0.1,8.4c0.067,3.567,0.533,6.083,1.4,7.55c0.233-0.601,0.35-1.75,0.35-3.45c-0.067-1.833-0.1-3.033-0.1-3.6
		v-8.05c0.033,0.867,0.2,1.816,0.5,2.85c0.167-0.2,0.317-0.5,0.45-0.9l2.05,14.05l0.55,0.051c0.2,0.399,0.333,0.733,0.4,1
		c0.233,0.833,0.35,1.866,0.35,3.1c0.033,1.333-0.083,2.934-0.35,4.8c-0.3,2.267-0.483,3.816-0.55,4.65
		c-0.066,1.467-0.1,3.3-0.1,5.5c0,1.233,0.017,3.083,0.05,5.55c0,3.533,0.05,7.05,0.15,10.55c0.033,0.267,0.05,1.117,0.05,2.55
		c0,1.067,0.05,1.9,0.15,2.5c0.1-0.699,0.133-1.666,0.1-2.899c-0.034-1.367-0.05-2.367-0.05-3c0-3.033,0.117-5.934,0.35-8.7
		c0.033-0.467,0.067-1.866,0.1-4.2c0.033-1.733,0.15-3.133,0.35-4.2c0.3-1.199,0.483-2.133,0.55-2.8
		c-0.067-0.899-0.083-1.583-0.05-2.05c0.3-3.134,0.8-5.917,1.5-8.35c0.066-0.233,0.5-1.334,1.3-3.301c0.5-1.267,0.833-2.483,1-3.649
		c0.067-0.4,0.1-1.017,0.1-1.85c0-0.833,0.017-1.45,0.05-1.85c0-0.133,0.3-1.367,0.9-3.7c0.133-0.5,0.383-1.2,0.75-2.1
		c0.4-1,0.667-1.717,0.8-2.15v2.05c0,1.533-0.083,3.25-0.25,5.15c0.133,0.933,0.3,2.6,0.5,5c0.2,2.134,0.4,3.8,0.6,5
		c0.733,4.566,1.433,8.05,2.1,10.45l0.35-0.101c0.367-0.1,0.617-0.25,0.75-0.449c0.233-0.367,0.417-1.101,0.55-2.2l1.7-12.851
		c0.633-4.5,1.133-9.2,1.5-14.1c0.267-4.3,0.45-8.133,0.55-11.5l0.25-5.5c-0.034,6.1,0,15.283,0.1,27.55c0,1.934-0.05,4.934-0.15,9
		c-0.033,3.634,0.017,6.617,0.15,8.95l0.3,2.25c0.233,0.1,0.617,0.333,1.15,0.7c0.467,0.3,0.833,0.467,1.1,0.5
		c0.133-0.733,0.15-1.983,0.05-3.75c0.1-2.9,0.167-5.084,0.2-6.55c0.033-1.334,0.217-3.884,0.55-7.65
		c0.367-7.033,0.733-11.317,1.1-12.85l-0.05,11.05l0.2-7.5v-0.55l0.4,11.4c0.067,2.767,0.083,4.851,0.05,6.25l0.05,3.351
		c0.1,3.699,0.133,5.916,0.1,6.649c0.167,0.334,0.333,0.533,0.5,0.601c0.167,0.066,0.367-0.084,0.6-0.45
		c0.2-0.334,0.417-0.434,0.65-0.3c0.233,0.166,0.517,0.699,0.85,1.6c0.233,0.634,0.6,0.833,1.1,0.6c0.4-0.166,0.8-0.666,1.2-1.5
		c0.333-0.733,0.567-1.483,0.7-2.25c0.367-1.8,0.667-4.149,0.9-7.05c0.233-3.3,0.417-5.733,0.55-7.3v-18.05
		c-0.066-6.233-0.116-10.917-0.149-14.05c-0.034-5.566,0.066-10.233,0.3-14c-0.566-0.267-1.167-0.95-1.8-2.05l-0.25-0.45
		c-0.433-1-0.75-1.667-0.95-2c-0.3-0.5-0.733-0.767-1.3-0.8c-1.333,0-2.267-0.1-2.8-0.3c-0.333-0.133-0.767-0.383-1.3-0.75
		c-0.733-0.5-1.167-0.8-1.3-0.9l-0.35-0.2c-0.367-0.233-0.7-0.383-1-0.45v0.6c-0.2,5.767-0.333,10.383-0.4,13.85v-5.55v-1.45
		l-0.05-6.9v-0.6l-0.6,0.1l-0.3,0.2c-0.167,0.133-0.367,0.4-0.6,0.8c-0.267,0.434-0.483,0.733-0.65,0.9
		c-0.167,0.133-0.433,0.283-0.8,0.45c-0.367,0.167-0.633,0.333-0.8,0.5l-0.55,0.95c-0.4,3.3-0.8,5.467-1.2,6.5
		c-0.167-0.667-0.233-1.633-0.2-2.9c0.033-1.434,0.05-2.45,0.05-3.05V90.95c0.034-3.733-0.033-8.317-0.2-13.75
		c-0.167-6.067-0.283-10.633-0.35-13.7c-0.233-9.9-0.217-18.65,0.05-26.25h0.5v6.95c0,4.966,0.017,7.933,0.05,8.9l0.3,3.9
		c-0.033-2.733,0.1-6.05,0.4-9.95c0.4-4.4,0.667-7.716,0.8-9.95c0.033,0.3,0.133,0.733,0.3,1.3v-3.25L27.6,26.9v-3.15
		c0.1-0.333,0.217-0.65,0.35-0.95l1.15-2.45l0.4,24.7c0,1.3,0.067,2.883,0.2,4.75c0.066,1.067,0.183,2.65,0.35,4.75l0.05,0.9
		l0.25,4.7c0.1-0.7,0.267-1.117,0.5-1.25c0.3-0.233,0.517-0.517,0.65-0.85c0.267-0.667,0.383-1.9,0.35-3.7
		c-0.067-2-0.1-3.35-0.1-4.05V27.85c0.033-2.167,0.067-3.8,0.1-4.9c0-2-0.033-3.617-0.1-4.85v-0.9l1-1.15
		c-0.033-0.867,0-1.767,0.1-2.7c0.033-0.2,0.183-0.883,0.45-2.05l0.05-0.2c0.033-0.2,0.066-0.417,0.1-0.65l-0.05,15.7
		c0.067-2.233,0.217-4.683,0.45-7.35c-0.067,1.934-0.1,4.833-0.1,8.7c0,5.3,0.017,13.217,0.05,23.75
		c-0.066,9.1-0.466,16.95-1.2,23.55c-0.434,3.934-0.617,8.784-0.55,14.55v2.3l0.05,0.2c0.6,1.733,1.167,2.25,1.7,1.55
		c0.067-0.1,0.5-1.167,1.3-3.2c0.167,1.367,0.533,2.767,1.1,4.2c1.1,2.733,2.216,3.617,3.35,2.65c0.333-0.3,0.567-0.816,0.7-1.55
		c0.2-0.867,0.383-1.433,0.55-1.7c0.1-0.2,0.267-0.316,0.5-0.35c0.233-0.034,0.417-0.217,0.55-0.55c0.3-0.633,0.534-1.967,0.7-4
		c0.101-2.167,0.167-3.533,0.2-4.1c0.033-1,0.05-4.017,0.05-9.05l0.15,0.35c-0.3-6.6-0.45-12.1-0.45-16.5L42.4,7.95
		c0.133,0.233,0.3,0.417,0.5,0.55l0.6,0.35l0.1,8.55c0.034,3.8,0.134,8.417,0.301,13.85c0.1,3.067,0.267,7.683,0.5,13.85
		c0.066,2.467,0.283,5.3,0.649,8.5c0.233,1.8,0.584,4.566,1.05,8.3c0.267,2,0.45,4.467,0.551,7.4l-0.25-0.15
		c-0.034,0.3-0.034,0.8,0,1.5c0.033,0.667,0.017,1.133-0.051,1.4C46.283,72.383,46.167,72.7,46,73c-0.233,0.3-0.417,0.55-0.55,0.75
		c-0.434,0.8-0.65,1.85-0.65,3.15c0.033,0.733,0.117,1.917,0.25,3.55c0.767-0.467,1.533-0.65,2.3-0.55
		c0.267,0.067,0.584,0.133,0.95,0.2c0.267,0.033,0.483-0.05,0.65-0.25l-0.5,23.5c0.066,7.4-0.05,14.483-0.351,21.25
		c-0.066,1.9-0.183,4.816-0.35,8.75c-0.167,3.433-0.4,6.333-0.7,8.7c-0.267,2.2-0.399,4.017-0.399,5.45
		c-0.034,1.467,0.066,3.217,0.3,5.25c0.767,7.267,1.133,14.233,1.1,20.9v14.899c0,0.967,0.033,2.483,0.101,4.55
		c0.033,1.867-0.017,3.384-0.15,4.551c-0.1-0.4-0.283-0.717-0.55-0.95c-0.267,0.866-0.351,2.267-0.25,4.2c0.1,2.3,0.1,3.8,0,4.5
		c-0.033,0.199-0.167,0.699-0.4,1.5c-0.233,0.666-0.333,1.183-0.3,1.55c0.033,0.366,0.2,0.8,0.5,1.3c0.4,0.667,0.616,1.033,0.65,1.1
		c0.399,0.967,0.666,2.101,0.8,3.4c0.066,0.566,0.133,1.8,0.2,3.7l0.05,1.8l0.75,6.05c-0.233,0.267-0.384,0.8-0.45,1.601
		c-0.066,0.466-0.116,1.166-0.15,2.1l-0.05,0.6L48.15,237.2V223l-0.051-0.25c-0.199-1.1-0.866-2.866-2-5.3
		c-0.267-0.7-0.616-1.351-1.05-1.95c-0.366,6-0.983,15.25-1.85,27.75l-0.95-5.5l0.1-1.6c0.101-2.867,0.134-6.817,0.101-11.851
		c0-5.633,0.017-9.583,0.05-11.85c-0.167-1.9-0.15-4.217,0.05-6.95c0.167-2.9,0.25-8.167,0.25-15.8v-1.9l-0.05-0.149l-0.5-1.75
		c-0.233-0.567-0.55-1.167-0.95-1.801c-0.466-0.633-0.816-1.149-1.05-1.55c-1-1.967-1.783-3.366-2.35-4.2
		c-0.333-0.5-0.7-0.85-1.1-1.05c-0.233-0.1-0.6-0.184-1.1-0.25L35.25,177V177.45z M65.05,269.35L58.9,271.5l-0.5,0.05
		c-0.567,0.033-1.134,0.033-1.7,0l0.85-0.2l0.3-0.1c0.967-0.233,1.634-0.45,2-0.65c0.634-0.366,0.967-0.866,1-1.5
		c0-0.166-0.083-0.483-0.25-0.949c-0.166-0.367-0.166-0.717,0-1.051c0.067-0.233,0.317-0.466,0.75-0.699
		c0.134-0.101,0.45-0.267,0.95-0.5c0.4-0.2,0.667-0.384,0.8-0.551c0.5-0.533,0.817-1.233,0.95-2.1c0.066-0.467,0.101-1.3,0.101-2.5
		c0-2.733-0.017-4.783-0.051-6.15c-0.033-2.366-0.133-4.416-0.3-6.149L65.15,198.1c0,2.567,0.199,6.384,0.6,11.45
		c-0.2-5.333-0.333-9.333-0.4-12c-0.066-1.833-0.116-2.95-0.149-3.35c-0.101-1.134-0.283-2.167-0.55-3.101l-0.25-1
		c-0.434-1.899-0.75-3.767-0.95-5.6c-0.3-0.667-0.65-1.2-1.05-1.6c-0.334-0.301-0.767-0.434-1.301-0.4
		c-0.699,0.066-1.133,0.066-1.3,0c-0.267-0.066-0.649-0.25-1.149-0.55s-0.9-0.483-1.2-0.55c-1.367-0.301-2.517-0.301-3.45,0
		l-0.5,0.399c-0.066,0.834-0.384,3-0.95,6.5l-0.5,3.15l-0.3,1.75c0-2.5-0.05-6.584-0.15-12.25c-0.1-5.267-0.149-9.334-0.149-12.2
		c0.033-4.866-0.117-10.917-0.45-18.15c-0.5-12-0.75-18.05-0.75-18.149c-0.066-2.4-0.134-7-0.2-13.8
		c-0.033-5.8-0.149-10.417-0.35-13.85c-0.434-8.733-0.667-17.083-0.7-25.05c0.167-0.267,0.316-0.65,0.45-1.15
		c0.233-1.133,0.416-1.983,0.55-2.55c0.2-0.933,0.533-1.583,1-1.95c0.2-0.167,0.467-0.317,0.8-0.45l0.7-0.15
		c0.667-0.1,1.217,0,1.65,0.3c0.333,0.3,0.716,0.833,1.149,1.6c0.367,0.7,0.65,1.35,0.851,1.95c0.199,0.566,0.316,1.55,0.35,2.95
		c0.066,1.333,0.184,2.25,0.35,2.75c0.167,0.467,0.65,0.85,1.45,1.15c0.967,0.367,1.55,0.65,1.75,0.85
		c0.467,0.467,1.017,1.483,1.65,3.05c0.1-0.2,0.233-0.85,0.399-1.95c0.167-0.9,0.367-1.45,0.601-1.65
		c0.399-0.333,0.967,0.033,1.7,1.1c0.399,0.6,0.916,1.417,1.55,2.45c0.1,0.133,0.184,0.267,0.25,0.4
		c0.033,0.066,0.166,0.167,0.399,0.3c0.134,0.067,0.367,0.067,0.7,0c0.334-0.067,0.566-0.083,0.7-0.05l0.8,0.15
		c-0.267-0.067-0.899-0.417-1.899-1.05c-0.434-0.3-0.917-0.85-1.45-1.65c-0.733-1.167-1.167-1.833-1.3-2
		c-1-1.333-1.65-3.95-1.95-7.85c-0.134-1.9-0.15-4.316-0.05-7.25l-0.301,5.5c-0.033,0.367-0.05,1.483-0.05,3.35
		c0,1.367-0.083,2.45-0.25,3.25c-0.666,0.233-1.416,0.25-2.25,0.05c-0.967-0.267-1.633-0.75-2-1.45c0.033-0.4,0-0.85-0.1-1.35
		c-0.167-1.566-0.384-2.95-0.65-4.15l-0.6-1.95c-0.2-0.966-0.3-2.417-0.3-4.35c0.033-2.267,0.017-3.733-0.051-4.4l-0.399-3.6
		c-0.101-0.967-0.15-2.217-0.15-3.75c0-2-0.017-3.25-0.05-3.75c-0.366,1.233-0.517,3.183-0.45,5.85
		c0.033,2.833-0.066,4.817-0.3,5.95c-0.467,2.133-1.083,3.85-1.85,5.15l-0.25,0.45l-0.351,0.4c-0.2,0.2-0.399,0.317-0.6,0.35
		c-0.334,0-0.634,0.017-0.9,0.05c-0.399,0.067-0.633,0.167-0.7,0.3c-0.033,0.1-0.116,0.433-0.25,1c-0.5,1.267-0.983,1.966-1.449,2.1
		c-0.067-0.466-0.017-1.083,0.149-1.85c0.233-1,0.367-1.633,0.4-1.9l0.2-2.55c0.066-1.7,0.083-3.9,0.05-6.6
		c-0.066-3.967-0.101-6.183-0.101-6.65V34.95l-1.1,27.9c0,0.333,0.05,1.316,0.15,2.95c0.033,1.567-0.017,2.517-0.15,2.85
		c-0.167,0.567-0.417,0.783-0.75,0.65V35.65C46.884,23.85,46.967,15,47,9.1V9.05h0.2V9.1c0.1,2.066,0.233,5.15,0.399,9.25
		c0.267-2.233,0.4-5.283,0.4-9.15l0.75,0.2L48.6,21.7c0,3.8,0.067,9.466,0.2,17c0.101,5.433,0.167,9.9,0.2,13.4l0.15-10.95
		c0.1-5.7,0.25-11.4,0.449-17.1c0.434-5.667,0.667-9.933,0.7-12.8V10.2c0.8,0.566,1.5,1.4,2.101,2.5v0.05c0,3.1-0.034,5.433-0.101,7
		c-0.233,7.733-0.316,16.45-0.25,26.15c0,4.3,0.05,8.6,0.15,12.9c0.1-0.2,0.35-0.5,0.75-0.9c0.3-0.367,0.483-0.683,0.55-0.95
		c0.134-0.534,0.15-1.75,0.05-3.65c-0.066-1.566,0.117-2.733,0.55-3.5c0.167-0.3,0.5-0.533,1-0.7c0.467-0.167,0.784-0.417,0.95-0.75
		c0.167-0.267,0.3-0.983,0.4-2.15c0.1-1.233,0.217-2.05,0.35-2.45c0.066,0.4,0.184,1.217,0.351,2.45
		c0.199,0.933,0.55,1.133,1.05,0.6c0.066-0.066,0.217-1.133,0.45-3.2c0.233-1.067,0.383-1.783,0.449-2.15
		c0.067-0.534,0.101-1.284,0.101-2.25v-0.05H60.1l0.2,17.9c0,1.233-0.017,3.117-0.05,5.65c0,2.233,0.083,4.117,0.25,5.65
		c0.7-0.967,1.066-2.85,1.1-5.65c-0.1-3.1-0.149-5.15-0.149-6.15c0-1.733,0.033-6.867,0.1-15.4V39.2l0.75,0.05
		c1.5,0.267,2.634,0.483,3.4,0.65L65.6,42c-0.199,3.267-0.267,6.767-0.199,10.5c0,2.533-0.067,4.867-0.2,7
		c-0.033,0.633-0.05,1.9-0.05,3.8c0,1.667-0.051,2.917-0.15,3.75c-0.066,0.767-0.233,1.133-0.5,1.1c-0.634-0.1-0.967-0.15-1-0.15
		c-0.134,1.2-0.2,1.817-0.2,1.85c0,0.633,0.167,1.1,0.5,1.4c0.233,0.2,0.5,0.25,0.8,0.15c0.167-0.066,0.434-0.167,0.801-0.3
		c0.533-0.133,0.933-0.167,1.199-0.1c0.367,0.133,0.717,0.483,1.051,1.05l0.949,1.6c0.167,0.1,0.284,0.233,0.351,0.4
		c0.066,0.133,0.133,0.483,0.2,1.05c0.267,0.566,0.833,0.933,1.699,1.1c1.134,0.2,1.801,0.367,2,0.5
		c0.134-0.567,0.217-1.633,0.25-3.2c0.034-1.433,0.2-2.533,0.5-3.3l0.101-0.3l0.85,2.3c-0.066,1.133-0.066,3.133,0,6
		c0.066,2.5,0.033,4.15-0.1,4.95c-0.2,0.967-0.483,1.483-0.851,1.55c-0.6,0.1-1.05,0.333-1.35,0.7c-0.5,0.6-0.783,2.167-0.85,4.7
		l1.35-2.1c-0.2,0.767-0.333,1.867-0.4,3.3l-0.05,2.45l0.15-3.7c0,6.133,0.217,18.967,0.649,38.5c0.334,16,0.4,28.834,0.2,38.5
		c-0.233,11.8-0.45,20.65-0.649,26.55c-0.334,9.834-0.817,18.667-1.45,26.5c-0.601-0.066-1.134-3.416-1.601-10.05
		c-0.399-7.033-0.649-10.967-0.75-11.8c-0.233-2-0.366-3.1-0.399-3.3c-0.066-0.233-0.351-0.851-0.851-1.851
		c-0.5-0.933-0.85-2.05-1.05-3.35c0,5.167,0.134,9.833,0.4,14c0.133,2.7,0.166,7.55,0.1,14.55c-0.1,6.367-0.166,15.917-0.2,28.65
		c-0.133-0.566-0.233-1.617-0.3-3.15c-0.133,2.867-0.184,6.351-0.149,10.45c0,2.333,0.017,5.816,0.05,10.45l0.05,0.45l0.1,2.399
		l0.051,1.101C66.083,268.884,65.55,269.116,65.05,269.35z M68.9,41l0.8,0.45c0.866,0.667,1.45,1.833,1.75,3.5
		c0.733,3.966,1.283,8.1,1.649,12.4c0.167,1.5,0.25,3.333,0.25,5.5c0,0.066,0,0.15,0,0.25c0,1.2,0,2.967,0,5.3l-0.25,0.25
		c-0.5,0.434-0.983,0.75-1.449,0.95c-0.101,0.133-0.351,0.5-0.75,1.1c-0.233,0.4-0.483,0.583-0.75,0.55
		c-0.367-0.033-0.834-0.433-1.4-1.2c-0.6-0.8-0.95-1.466-1.05-2c-0.167-0.8-0.217-2.017-0.15-3.65c0.066-1.767,0.101-3,0.101-3.7
		c0-1.167-0.117-4.017-0.351-8.55c-0.166-3.533-0.166-6.4,0-8.6c0.434,0.6,0.7,0.883,0.8,0.85c0.2-0.033,0.417-0.55,0.65-1.55
		L68.9,41z M69.4,262.95l-0.45,4L68.8,267.1v0.051l-0.6,0.55c0-3.934-0.033-6.9-0.101-8.9l0.051,0.2c-0.034-1.434-0.034-2.85,0-4.25
		C68.783,257.25,69.2,259.983,69.4,262.95z M48.6,275l2.101-1.9c1.1-0.899,1.783-1.566,2.05-2c0.767-1.199,1.366-2.916,1.8-5.149
		c0.2-1.033,0.384-2.351,0.55-3.95l0.351-4c0.434-2.5,0.733-4.384,0.899-5.65l-2.199,7.2c-0.034-1.566-0.051-6.35-0.051-14.35
		c-0.1-2.267-0.149-4.167-0.149-5.7c0-2.9,0.217-4.45,0.649-4.65c0.367,8.634,1.101,12.417,2.2,11.351l1-14.101l0.05,0.851
		c0.067-5.767,0.2-10.084,0.4-12.95c0.134-2.1,0.283-5.45,0.45-10.05c0.133-4.367,0.283-7.7,0.45-10
		c-0.034,3.6,0.149,8.967,0.55,16.1l0.1,7.25c-0.533,1.733-0.934,4.117-1.2,7.15c-0.133,1.733-0.283,4.3-0.449,7.7
		c0.1,6.199-0.351,11.883-1.351,17.05c-0.5,2.566-1.083,6.45-1.75,11.649c-0.066,0.434-0.1,1.483-0.1,3.15
		c-0.033,1.634-0.117,2.917-0.25,3.85l-2.9,4.301c-1.767,0.399-2.983,0.267-3.649-0.4v6.9c-0.4,3.666-0.584,6.35-0.551,8.05
		c0,0.633,0,1.416,0,2.35c-0.1,0.7-0.533,1.316-1.3,1.851c-0.6,0.433-1.35,0.733-2.25,0.899c-0.934,0.134-1.75,0.066-2.45-0.2
		c-0.8-0.267-1.367-0.916-1.7-1.949l1.85-0.2l3.15-0.351l0.199-0.05c0.267-3.467,0.384-6.083,0.351-7.85
		c0-1.334,0.166-3.283,0.5-5.851c0.366-2.6,0.55-4.55,0.55-5.85v-2.65c-0.066-7.366-0.1-11.75-0.1-13.149
		c0-3.467,0.033-6.084,0.1-7.851c0.033-1.3,0.167-2.866,0.4-4.699c0.3-2.067,0.517-3.634,0.649-4.7l0.601-5.25v9.7v24.35v4.4
		C48.25,275.417,48.4,275.2,48.6,275z M17.55,40.1c0,0.033,0,0.083,0,0.15c-0.033,0.967-0.133,4-0.3,9.1
		c-0.1,2.8-0.167,5.233-0.2,7.3c-0.066-2.833-0.2-6.633-0.4-11.4c0-0.067,0-0.117,0-0.15c0.033-0.2,0.067-0.4,0.1-0.6l0.35-2.45
		C17.233,41.317,17.383,40.667,17.55,40.1z M27.65,38.4l0.25,20.7c0,7.3-0.017,11.4-0.05,12.3c-0.067,2.067-0.217,3.733-0.45,5
		c-0.566,2.8-0.833,6.167-0.8,10.1c0,0.033-0.033,1.1-0.1,3.2c-0.033,2.133,0.083,3.2,0.35,3.2c0.7,0,1.283-2,1.75-6
		c0.333-3.1,0.5-7.467,0.5-13.1c-0.333-12.333-0.75-23.883-1.25-34.65L27.65,38.4z M31.45,81.35V75.1
		c0.033-1.367-0.067-2.85-0.3-4.45c-0.3-1.833-0.533-3.283-0.7-4.35L30.4,66c0,3.067-0.033,5.367-0.1,6.9
		c-0.167,6.4-0.917,13.934-2.25,22.6l-0.15,0.85c0.233,0.233,0.467,0.367,0.7,0.4s0.617-0.017,1.15-0.15
		c1-4.333,1.567-9.317,1.7-14.95l0.05-0.55L31.45,81.35z M31.45,84.175c-0.008,0.292-0.025,0.6-0.05,0.925
		c-0.033,1.433-0.017,2.6,0.05,3.5V84.175z M18.15,148.5l0.25-0.75c0.3-1.8,0.533-3.15,0.7-4.05l1.05-5.5l0.3-0.2l0.35-0.05V138
		c-0.333,0.567-0.533,0.933-0.6,1.1c-0.1,0.333-0.167,0.8-0.2,1.4s-0.05,1.483-0.05,2.65C19.783,144.45,19.183,146.233,18.15,148.5z
		 M56,86.65l-0.2-3.25l-0.05-0.85c0-1.7-0.017-2.75-0.05-3.15c-0.101-1.367-0.351-2.3-0.75-2.8l-0.5-0.35
		c-0.167-0.1-0.351-0.083-0.55,0.05c-0.334,0.233-0.767,1.017-1.301,2.35l0.101,3.5c0.767,27.5,1.133,47.283,1.1,59.35
		c0,6.033-0.017,15.1-0.05,27.2v0.75v2.05c0.4,0.467,0.917,0.667,1.55,0.6c0.8-0.033,1.351,0.017,1.65,0.15
		c0.399,0.167,0.733,0.616,1,1.35c0.366,0.9,0.649,1.483,0.85,1.75c0.233,0.267,0.55,0.483,0.95,0.65c0.233,0.1,0.6,0.217,1.1,0.35
		c0.9,0.301,1.5,0.434,1.801,0.4c0.433-0.066,0.683-0.184,0.75-0.35c0.133-0.434,0.3-0.767,0.5-1c0.267-0.334,0.75-0.551,1.449-0.65
		c0.7-0.1,1.217-0.384,1.551-0.85c0.666-0.9,1.216-2.551,1.649-4.95c0.467-2.7,0.9-4.483,1.3-5.351l0.101-3.449
		c0-3.601,0.05-7.217,0.149-10.851l0.601-18.7l-0.45,7.7c-0.233,4.167-0.283,7.7-0.15,10.6v0.2c-0.966-9.533-1.3-20.733-1-33.6
		c0.067-3.6,0.084-5.917,0.051-6.95c-0.067-1.167-0.184-2.2-0.351-3.1c-0.033-0.534-0.133-1.05-0.3-1.55
		c-0.833-0.133-1.434-0.117-1.8,0.05c-0.4,0.2-0.733,0.65-1,1.35c-0.233,0.7-0.517,1.133-0.851,1.3c-0.233,0.1-0.55,0.033-0.949-0.2
		c-0.601-0.367-0.917-0.55-0.95-0.55c-0.767-0.133-1.233-0.267-1.4-0.4c-0.3-0.233-0.633-0.817-1-1.75c-0.2-0.467-0.366-1.3-0.5-2.5
		c-0.166-1.167-0.333-1.934-0.5-2.3c-0.166-0.333-0.866-0.967-2.1-1.9c-1-0.767-1.584-1.883-1.75-3.35
		c-0.033-0.333,0.017-0.983,0.149-1.95c0.167-1.2,0.25-1.883,0.25-2.05C56.1,88.317,56.066,87.317,56,86.65z M66.6,267.05l-0.1-4.25
		c0-1.899,0.116-3.35,0.35-4.35c0.434-2.2,0.851-3.5,1.25-3.9l0.051,0.15C67.483,258.4,66.967,262.517,66.6,267.05z M76.9,81.4
		l-0.051,1.4l-0.149,3v-2.5l0.05-2.7L76.9,81.4z M71.9,108.45l-0.051-2.25L71.8,149.6c0,3.233-0.116,10.45-0.35,21.65
		c0,0.866-0.017,2.184-0.05,3.95c-0.034,1.5-0.184,2.767-0.45,3.8c-0.033,0.2-0.334,1.2-0.9,3c-0.333,1.134-0.5,2.217-0.5,3.25
		c0,1.467,0.084,3.316,0.25,5.55c0.101,1.267,0.25,3.117,0.45,5.55c0.167,2.967,0.35,5.034,0.55,6.2
		c0.134-1.166,0.25-2.733,0.351-4.7c0.133-2.433,0.233-4,0.3-4.699c0.467-4.934,0.8-8.65,1-11.15c0.399-4.5,0.616-8.25,0.649-11.25
		c0.067-8.033-0.083-18.417-0.449-31.15C72.217,122.8,71.967,112.417,71.9,108.45z M78.4,216.75l-0.051-0.35v0.399
		c-0.699,0.334-1.35,1.584-1.949,3.75v-3.95c0-2.833,0.199-9.816,0.6-20.949c0.167-2.801,0.267-5.601,0.3-8.4l0.05,1.55
		c0.167,3.4,0.467,8.967,0.9,16.7c0.4,7.134,0.684,12.684,0.85,16.65l-0.5-5.45L78.4,216.75z M17.65,149.8l-0.15,0.5
		c-0.067,0.267-0.167,0.684-0.3,1.25c-0.133,0.533-0.3,0.9-0.5,1.101c-0.3,0.3-0.717,0.333-1.25,0.1c0.4-0.167,0.75-0.467,1.05-0.9
		C16.933,151.283,17.317,150.6,17.65,149.8z M49.9,228.8c0.433-5,0.767-9.5,1-13.5l0.399-6.45c0.066,6.434,0.066,10.45,0,12.051
		l-0.1,1.35C50.967,225.583,50.533,227.767,49.9,228.8z M66.5,182.2c0.167-0.9,0.483-2.184,0.95-3.851L66.5,180.4V182.2z
		 M55.75,271.95L55.1,273.1h-0.3C54.9,272.6,55.217,272.217,55.75,271.95z"/>
	<path style="fill-rule:evenodd;clip-rule:evenodd;fill:#726B61;" d="M50.3,10.2v1.05c-0.033,2.867-0.267,7.133-0.7,12.8
		c-0.199,5.7-0.35,11.4-0.449,17.1L49,52.1c-0.033-3.5-0.1-7.967-0.2-13.4c-0.133-7.534-0.2-13.2-0.2-17l0.15-12.3
		c0.434,0.167,0.85,0.383,1.25,0.65C50.1,10.083,50.2,10.133,50.3,10.2z M35.5,1.5l-1.65,17.3c-0.233,2.667-0.383,5.117-0.45,7.35
		l0.05-15.7c0.1-0.367,0.183-0.717,0.25-1.05L34,7.55c-0.033-0.066-0.033-0.117,0-0.15c0-0.1,0-0.2,0-0.3c0-0.067,0-0.133,0-0.2
		c0-0.066,0-0.117,0-0.15c-0.133-1.4-0.183-2.467-0.15-3.2c0.033-1.3,0.433-2.216,1.2-2.75c0.133-0.1,0.3-0.183,0.5-0.25L35.5,1.5z
		 M65.7,39.9c1.399,0.3,2.467,0.667,3.2,1.1l-0.15,1.85c-0.233,1-0.45,1.517-0.65,1.55c-0.1,0.033-0.366-0.25-0.8-0.85
		c-0.166,2.2-0.166,5.067,0,8.6c0.233,4.533,0.351,7.383,0.351,8.55c0,0.7-0.034,1.933-0.101,3.7c-0.066,1.633-0.017,2.85,0.15,3.65
		c0.1,0.534,0.45,1.2,1.05,2c0.566,0.767,1.033,1.167,1.4,1.2c0.267,0.033,0.517-0.15,0.75-0.55c0.399-0.6,0.649-0.967,0.75-1.1
		c0.466-0.2,0.949-0.517,1.449-0.95l0.25-0.25c0,0.167,0,0.333,0,0.5l0.351,1L73.6,70.2c-0.3,0.767-0.466,1.867-0.5,3.3
		c-0.033,1.567-0.116,2.633-0.25,3.2c-0.199-0.133-0.866-0.3-2-0.5c-0.866-0.167-1.433-0.534-1.699-1.1
		c-0.067-0.567-0.134-0.917-0.2-1.05c-0.066-0.167-0.184-0.3-0.351-0.4l-0.949-1.6c-0.334-0.566-0.684-0.917-1.051-1.05
		c-0.267-0.067-0.666-0.033-1.199,0.1c-0.367,0.133-0.634,0.233-0.801,0.3c-0.3,0.1-0.566,0.05-0.8-0.15
		c-0.333-0.3-0.5-0.767-0.5-1.4c0-0.033,0.066-0.65,0.2-1.85c0.033,0,0.366,0.05,1,0.15c0.267,0.033,0.434-0.333,0.5-1.1
		c0.1-0.833,0.15-2.083,0.15-3.75c0-1.9,0.017-3.167,0.05-3.8c0.133-2.133,0.2-4.467,0.2-7c-0.067-3.733,0-7.233,0.199-10.5
		L65.7,39.9z M69.8,265c-0.133,0.533-0.267,0.95-0.399,1.25c-0.101,0.233-0.25,0.467-0.45,0.7l0.45-4
		c0.1-0.834,0.199-1.533,0.3-2.101l0.149-1.149c0-0.167,0.017-0.316,0.051-0.45c0.031-0.127,0.048-0.21,0.05-0.25l-0.075,4.525
		L69.8,265z M1.55,109.75l-0.1,0.1H1.4v-2.25c0.167,0.066,0.283,0.183,0.35,0.35v0.1l0.15,0.3v0.1l0.2,1l-0.2,0.05L1.55,109.75z
		 M25.8,37.25l0.4-0.05h0.05c0.167-0.967,0.317-3.184,0.45-6.65c0-0.1,0.017-0.2,0.05-0.3v-0.1c0.133-2.7,0.417-4.833,0.85-6.4v3.15
		l-0.05,3l-0.05-2.8l-0.15,10l0.2-5.2l0.1,3.25v3.25c-0.167-0.566-0.267-1-0.3-1.3c-0.133,2.233-0.4,5.55-0.8,9.95
		c-0.3,3.9-0.433,7.217-0.4,9.95l-0.3-3.9c-0.033-0.967-0.05-3.934-0.05-8.9V37.25z M48.95,232.45
		c-0.101-0.733-0.15-1.517-0.15-2.351l0.05-0.6c0.034-0.934,0.084-1.634,0.15-2.1c0.066-0.801,0.217-1.334,0.45-1.601l-0.75-6.05
		l-0.05-1.8c-0.067-1.9-0.134-3.134-0.2-3.7c-0.134-1.3-0.4-2.434-0.8-3.4c-0.034-0.066-0.25-0.433-0.65-1.1
		c-0.3-0.5-0.467-0.934-0.5-1.3c-0.033-0.367,0.066-0.884,0.3-1.55c0.233-0.801,0.367-1.301,0.4-1.5c0.1-0.7,0.1-2.2,0-4.5
		c-0.101-1.934-0.017-3.334,0.25-4.2c0.267,0.233,0.45,0.55,0.55,0.95c0.134-1.167,0.184-2.684,0.15-4.551
		c-0.067-2.066-0.101-3.583-0.101-4.55V173.65c0.033-6.667-0.333-13.634-1.1-20.9c-0.233-2.033-0.334-3.783-0.3-5.25
		c0-1.433,0.133-3.25,0.399-5.45c0.3-2.367,0.533-5.267,0.7-8.7c0.167-3.934,0.283-6.85,0.35-8.75
		c0.301-6.767,0.417-13.85,0.351-21.25l0.5-23.5c-0.167,0.2-0.384,0.283-0.65,0.25c-0.366-0.067-0.684-0.133-0.95-0.2
		c-0.767-0.1-1.533,0.083-2.3,0.55c-0.133-1.633-0.217-2.817-0.25-3.55c0-1.3,0.217-2.35,0.65-3.15c0.133-0.2,0.316-0.45,0.55-0.75
		c0.167-0.3,0.283-0.617,0.35-0.95c0.067-0.267,0.084-0.733,0.051-1.4c-0.034-0.7-0.034-1.2,0-1.5l0.25,0.15h0.1
		c0.333,0.133,0.583-0.083,0.75-0.65c0.134-0.333,0.184-1.283,0.15-2.85c-0.101-1.633-0.15-2.617-0.15-2.95l1.1-27.9V54.5
		c0,0.467,0.034,2.683,0.101,6.65c0.033,2.7,0.017,4.9-0.05,6.6l-0.2,2.55c-0.033,0.267-0.167,0.9-0.4,1.9
		c-0.166,0.767-0.217,1.383-0.149,1.85c0.466-0.133,0.949-0.833,1.449-2.1c0.134-0.567,0.217-0.9,0.25-1
		c0.067-0.133,0.301-0.233,0.7-0.3c0.267-0.033,0.566-0.05,0.9-0.05c0.2-0.033,0.399-0.15,0.6-0.35l0.351-0.4l0.25-0.45
		c0.767-1.3,1.383-3.017,1.85-5.15c0.233-1.133,0.333-3.117,0.3-5.95c-0.066-2.667,0.084-4.617,0.45-5.85
		c0.033,0.5,0.05,1.75,0.05,3.75c0,1.533,0.05,2.783,0.15,3.75l0.399,3.6c0.067,0.667,0.084,2.133,0.051,4.4
		c0,1.933,0.1,3.383,0.3,4.35l0.6,1.95c0.267,1.2,0.483,2.583,0.65,4.15c0.1,0.5,0.133,0.95,0.1,1.35c0.367,0.7,1.033,1.183,2,1.45
		c0.834,0.2,1.584,0.183,2.25-0.05c0.167-0.8,0.25-1.883,0.25-3.25c0-1.867,0.017-2.983,0.05-3.35l0.301-5.5
		c-0.101,2.934-0.084,5.35,0.05,7.25c0.3,3.9,0.95,6.517,1.95,7.85c0.133,0.167,0.566,0.833,1.3,2c0.533,0.8,1.017,1.35,1.45,1.65
		c1,0.633,1.633,0.983,1.899,1.05L68,88.7c-0.134-0.034-0.366-0.017-0.7,0.05c-0.333,0.067-0.566,0.067-0.7,0
		c-0.233-0.133-0.366-0.233-0.399-0.3c-0.066-0.133-0.15-0.267-0.25-0.4c-0.634-1.033-1.15-1.85-1.55-2.45
		c-0.733-1.067-1.301-1.434-1.7-1.1c-0.233,0.2-0.434,0.75-0.601,1.65c-0.166,1.1-0.3,1.75-0.399,1.95
		c-0.634-1.567-1.184-2.583-1.65-3.05c-0.2-0.2-0.783-0.483-1.75-0.85c-0.8-0.3-1.283-0.684-1.45-1.15
		c-0.166-0.5-0.283-1.417-0.35-2.75c-0.033-1.4-0.15-2.383-0.35-2.95c-0.2-0.6-0.483-1.25-0.851-1.95
		c-0.434-0.767-0.816-1.3-1.149-1.6c-0.434-0.3-0.983-0.4-1.65-0.3l-0.7,0.15c-0.333,0.133-0.6,0.283-0.8,0.45
		c-0.467,0.367-0.8,1.017-1,1.95c-0.134,0.567-0.316,1.417-0.55,2.55c-0.134,0.5-0.283,0.883-0.45,1.15
		c0.033,7.967,0.267,16.317,0.7,25.05c0.2,3.434,0.316,8.05,0.35,13.85c0.066,6.8,0.134,11.4,0.2,13.8c0,0.1,0.25,6.15,0.75,18.149
		c0.333,7.233,0.483,13.284,0.45,18.15c0,2.866,0.05,6.934,0.149,12.2c0.101,5.666,0.15,9.75,0.15,12.25v1.3
		c0,2.667-0.05,5.3-0.15,7.9l-0.3,6.449L50.9,215.3c-0.233,4-0.567,8.5-1,13.5l-0.4,4.25c0.033,0.7-0.05,1.351-0.25,1.95
		C49.116,234.2,49.017,233.35,48.95,232.45z M27.65,38.4l0.2,0.75c0.5,10.767,0.917,22.317,1.25,34.65c0,5.633-0.167,10-0.5,13.1
		c-0.467,4-1.05,6-1.75,6c-0.267,0-0.383-1.066-0.35-3.2c0.067-2.1,0.1-3.167,0.1-3.2c-0.033-3.933,0.233-7.3,0.8-10.1
		c0.233-1.267,0.383-2.933,0.45-5c0.033-0.9,0.05-5,0.05-12.3L27.65,38.4z M13.95,152.9c-0.167-0.4-0.25-0.767-0.25-1.101
		c0.333,0.066,0.917,0.384,1.75,0.95c0.533,0.233,0.95,0.2,1.25-0.1c0.2-0.2,0.367-0.567,0.5-1.101
		c0.133-0.566,0.233-0.983,0.3-1.25l0.65-1.8c1.033-2.267,1.633-4.05,1.8-5.35c0-1.167,0.017-2.05,0.05-2.65s0.1-1.067,0.2-1.4
		c0.066-0.167,0.267-0.533,0.6-1.1v-0.05c0.333-0.567,0.534-1.067,0.6-1.5c0.033-0.233,0.067-0.833,0.1-1.8
		c0-1.433,0.133-3.617,0.4-6.55c0.1-1.434,0.15-2.9,0.15-4.4c0.067-1.367,0.1-2.45,0.1-3.25c0.033-1.434-0.066-2.483-0.3-3.15v-2.4
		c0-0.267,0-0.533,0-0.8v-0.95l0.2-11.45c0,0.233,0.017,0.466,0.05,0.7l0.2,5.9c0.1,2.6,0.25,6.467,0.45,11.6
		c0.133,3.633,0.133,6.633,0,9c0,0.133-0.1,1.817-0.3,5.05c-0.1,1.7-0.167,2.617-0.2,2.75c-0.133,0.667-0.267,1.2-0.4,1.6
		c-0.133,0.434-0.4,1.15-0.8,2.15c-0.367,0.9-0.617,1.6-0.75,2.1c-0.6,2.333-0.9,3.567-0.9,3.7c-0.033,0.4-0.05,1.017-0.05,1.85
		c0,0.833-0.033,1.45-0.1,1.85c-0.167,1.166-0.5,2.383-1,3.649c-0.8,1.967-1.233,3.067-1.3,3.301c-0.7,2.433-1.2,5.216-1.5,8.35
		c-0.034,0.467-0.017,1.15,0.05,2.05c-0.067,0.667-0.25,1.601-0.55,2.8c-0.2,1.067-0.317,2.467-0.35,4.2
		c-0.033,2.334-0.067,3.733-0.1,4.2c-0.233,2.767-0.35,5.667-0.35,8.7c0,0.633,0.017,1.633,0.05,3c0.033,1.233,0,2.2-0.1,2.899
		c-0.1-0.6-0.15-1.433-0.15-2.5c0-1.433-0.017-2.283-0.05-2.55c-0.1-3.5-0.15-7.017-0.15-10.55c-0.033-2.467-0.05-4.316-0.05-5.55
		c0-2.2,0.033-4.033,0.1-5.5c0.067-0.834,0.25-2.384,0.55-4.65c0.267-1.866,0.383-3.467,0.35-4.8c0-1.233-0.117-2.267-0.35-3.1
		C14.283,153.634,14.15,153.3,13.95,152.9z M10.4,132.05v4.8v8.05c0,0.567,0.033,1.767,0.1,3.6c0,1.7-0.117,2.85-0.35,3.45
		c-0.867-1.467-1.333-3.983-1.4-7.55c0.1-4,0.067-6.8-0.1-8.4c-0.367-3.067-0.6-5.367-0.7-6.9c-0.167-3.233-0.284-5.2-0.35-5.9
		c-0.233-2.333-0.6-4.184-1.1-5.55c0.433,0.733,0.967,1.75,1.6,3.05c0.467,0.9,1.033,2.367,1.7,4.4l0.75,1.4
		c-0.2,0.433-0.283,1.25-0.25,2.45c0.034,0.667,0.067,1.617,0.1,2.85V132.05z M1.1,85.95L0.95,84.2c0.466,0.5,0.716,1.066,0.75,1.7
		v0.05C1.467,86.017,1.267,86.017,1.1,85.95z M16.5,228.1l-0.3-3.75c0-1.3-0.017-2.283-0.05-2.949
		c-0.033-1.134-0.167-2.067-0.4-2.801c0.133,6.334,0.167,13.967,0.1,22.9c-0.333-2.634-0.533-4.566-0.6-5.8
		c-0.1-2.566-0.15-9.017-0.15-19.351l0.35-18.75c0.066,3.134,0.25,8.217,0.55,15.25C16.267,219.45,16.433,224.533,16.5,228.1z
		 M48.95,79.85l0.05-0.1v-2.2L48.95,79.85z M71.9,108.45c0.066,3.966,0.316,14.35,0.75,31.15c0.366,12.733,0.517,23.117,0.449,31.15
		c-0.033,3-0.25,6.75-0.649,11.25c-0.2,2.5-0.533,6.217-1,11.15c-0.066,0.699-0.167,2.267-0.3,4.699
		c-0.101,1.967-0.217,3.534-0.351,4.7c-0.2-1.166-0.383-3.233-0.55-6.2c-0.2-2.433-0.35-4.283-0.45-5.55
		c-0.166-2.233-0.25-4.083-0.25-5.55c0-1.033,0.167-2.116,0.5-3.25c0.566-1.8,0.867-2.8,0.9-3c0.267-1.033,0.416-2.3,0.45-3.8
		c0.033-1.767,0.05-3.084,0.05-3.95c0.233-11.2,0.35-18.417,0.35-21.65l0.05-43.399L71.9,108.45z M34.55,220.05l-0.05,3.8
		c-0.367,0.634-0.6,1.551-0.7,2.75c-0.1,0.7-0.2,1.75-0.3,3.15c-0.267,2.566-0.75,6.384-1.45,11.45
		c-0.133,1.267-0.283,3.383-0.45,6.35c-0.167,2.7-0.333,4.8-0.5,6.3c-0.133,1.534-0.184,4.601-0.15,9.2
		c-0.167,4.066-0.833,6.634-2,7.7c-0.3,0.3-0.767,0.483-1.4,0.55l-0.8-1.35c0.167-0.334,0.417-0.533,0.75-0.601
		c0.367-0.1,0.617-0.216,0.75-0.35c0.433-0.4,0.917-1.7,1.45-3.9c0.367-1.6,0.583-3.633,0.65-6.1c0.066-2.833,0.133-4.934,0.2-6.3
		c0.233-3.967,0.35-9.917,0.35-17.851c0-6.699,0.117-12.166,0.35-16.399c0.2-2.233,0.35-3.95,0.45-5.15
		c0.2-2.1,0.25-3.816,0.15-5.149l3-28.25C34.717,188.833,34.617,202.217,34.55,220.05z M34.5,282.4l-0.65-0.051v-6.399L34.5,282.4z"
		/>
	<path style="fill-rule:evenodd;clip-rule:evenodd;fill:#C9C1B6;" d="M36.2,94.4c-0.567-1.433-0.934-2.833-1.1-4.2
		c-0.8,2.033-1.233,3.1-1.3,3.2c-0.533,0.7-1.1,0.184-1.7-1.55l-0.05-0.2v-2.3c-0.066-5.767,0.117-10.617,0.55-14.55
		c0.733-6.6,1.133-14.45,1.2-23.55c-0.033-10.533-0.05-18.45-0.05-23.75c0-3.867,0.033-6.767,0.1-8.7L35.5,1.5l0.15-1
		c0.467-0.167,1.083-0.3,1.85-0.4c0.133,0,0.283-0.017,0.45-0.05c0.533-0.033,1.017-0.033,1.45,0c0.033,0,0.067,0,0.1,0h0.15
		c0.133,0,0.267,0.017,0.4,0.05c0.124,0.012,0.24,0.028,0.35,0.05c-0.267,3.4-0.417,6.033-0.45,7.9c-0.034,1.9-0.067,4.767-0.1,8.6
		c-0.033,3.467-0.117,6.35-0.25,8.65c0.033,1.233-0.2,2.333-0.7,3.3c-0.7,2.2-1.217,4.933-1.55,8.2c-0.2,2.1-0.35,4.967-0.45,8.6
		c-0.1,4.434-0.083,12.383,0.05,23.85c0.033,3.233,0.083,5.217,0.15,5.95c0.133,2.367,0.433,4.233,0.9,5.6
		c0.8-1.066,1.133-4.033,1-8.9c0.367,1.333,0.45,3.317,0.25,5.95c-0.133,2.267-0.4,4.2-0.8,5.8c-0.633-0.133-1.184,0.25-1.65,1.15
		c-0.4,0.867-0.617,1.883-0.65,3.05c-0.033,1.333-0.017,3.383,0.05,6.15V94.4z M54.15,19.8c0,0.5,0.017,1.017,0.05,1.55
		c0.033,1.033,0.05,2.183,0.05,3.45l-0.1,4.15c0.1,4.2,0.449,6.933,1.05,8.2c0.1,0.2,0.217,0.4,0.35,0.6
		c-0.233,0.433-0.483,0.733-0.75,0.9c-0.434-0.7-0.934-1.2-1.5-1.5c-0.7,3.667-1.116,6.583-1.25,8.75
		c-0.066-9.7,0.017-18.417,0.25-26.15c0.066-1.567,0.101-3.9,0.101-7V12.7c0.267,0.5,0.5,1.05,0.699,1.65L53.9,17.7
		c0,0.033,0,0.066,0,0.1c0.033,0.167,0.066,0.35,0.1,0.55L54.15,19.8z M79.9,100.15c0,2.033-0.067,3.883-0.2,5.55
		c0,0.033,0,0.083,0,0.15c0,0.033,0,0.083,0,0.15c0,0.133-0.033,0.5-0.101,1.1c-0.066,0.566-0.166,0.883-0.3,0.95
		c-0.267,0.133-0.583-0.566-0.95-2.1c-0.333-1.7-0.533-2.667-0.6-2.9c-0.267,0.4-0.434,1.267-0.5,2.6
		c-0.533,4.9-1.083,11.267-1.65,19.1c-0.6,8.367-0.983,15.333-1.149,20.9l-0.2,6.45V143c-0.066-6.867-0.1-12.017-0.1-15.45
		c-0.034-6.033,0.066-11.183,0.3-15.45c0.366-3.367,0.55-5.983,0.55-7.85c-0.033-5.4-0.033-9.433,0-12.1
		c0-1.566,0.066-2.75,0.2-3.55c0.1-0.567,0.6-2.333,1.5-5.3v2.5l0.149-3l0.2-0.8l0.05,0.2c0.267,0.466,0.434,0.85,0.5,1.15l1,3.7
		c0.233,1.367,0.434,2.9,0.601,4.6c0.1,0.967,0.217,2.167,0.35,3.6l0.351,4.85V100.15z M83,155.55c0.1,1.267,0.2,2.517,0.3,3.75
		l0.101,1.9l0.05,0.25V180.1c0,2.334,0.017,5.851,0.05,10.551c0.033,4.166,0,7.666-0.1,10.5V202
		c-0.034,0.066-0.051,0.116-0.051,0.15l-0.1,0.35c0-3.2-0.167-9.75-0.5-19.65c-0.267-8.166-0.333-14.733-0.2-19.699
		C82.65,160.583,82.8,158.05,83,155.55z M81.45,209.3l-0.05,0.2v11.1L81.3,225.65c-0.166,1.267-0.666,2.699-1.5,4.3L79.55,218
		c-0.1-3.467-0.066-7.483,0.101-12.05c0-0.167,0.199-4.2,0.6-12.101l1.15-46.6C81.6,164.517,81.616,185.2,81.45,209.3z
		 M41.15,103.85c-0.167,0.133-0.417,0.083-0.75-0.15c-0.367-0.3-0.633-0.5-0.8-0.6c-0.567-0.3-1.333-0.45-2.3-0.45
		c-0.367-0.033-0.65-0.05-0.85-0.05c-0.367,0-0.65,0.083-0.85,0.25c-0.233,0.5-0.367,0.85-0.4,1.05c-0.3,0.333-0.517,0.434-0.65,0.3
		c-0.433-0.3-0.683-0.467-0.75-0.5c-0.267-0.1-0.55-0.034-0.85,0.2l-0.15,5.85c-0.033,4.567-0.283,11.383-0.75,20.45
		c-0.1,1.9-0.2,4.933-0.3,9.1c-0.067,3.967-0.167,7-0.3,9.1c-0.167,2.367-0.284,5.234-0.35,8.6c-0.067-10.467-0.1-18.45-0.1-23.95
		c0-10.7,0.15-19.85,0.45-27.45l0.05,1.3v5.55c0.067-3.467,0.2-8.083,0.4-13.85V98c0.3,0.067,0.633,0.217,1,0.45l0.25,0.15v0.05h0.1
		c0.133,0.1,0.567,0.4,1.3,0.9c0.534,0.367,0.967,0.617,1.3,0.75c0.533,0.2,1.467,0.3,2.8,0.3c0.567,0.033,1,0.3,1.3,0.8
		c0.2,0.333,0.517,1,0.95,2L41.15,103.85z M37.05,246.15l1.35,7.6l0.2-3.1l0.05-0.301l0.1-1.3l0.05-0.2l0.15-1.449
		c0.633,7.666,0.95,14.416,0.95,20.25l-0.05,27.85c-0.267-0.833-0.4-2.283-0.4-4.35c-0.1-2.067-0.467-3.983-1.1-5.75
		c-0.533-1.467-1.184-2.367-1.95-2.7c-0.133-2.601-0.233-7.851-0.3-15.75c0-7.8,0.167-13.617,0.5-17.45
		C36.733,247.767,36.883,246.65,37.05,246.15z M32.6,282.25h-0.25c-0.967-0.1-1.8-0.283-2.5-0.55c0.4-5.267,1.45-7.884,3.15-7.851
		c0.233,1.434,0.183,3.434-0.15,6L32.6,282.25z M17.1,231.25c-0.434-12.7-0.667-19.384-0.7-20.05
		c-0.133-7.9,0.017-14.601,0.45-20.101c0.066-0.8,0.1-2.233,0.1-4.3c0-2.033,0.05-3.583,0.15-4.649c1.3-1.934,2.1-3.067,2.4-3.4
		c-0.367,1.733-0.55,4.366-0.55,7.9c-0.6,8.699-0.9,16.133-0.9,22.3c0.067,4.767,0.083,8.35,0.05,10.75l-0.15,20.7L17.1,231.25z
		 M9.35,245.65c-0.067-0.067-0.133-0.134-0.2-0.2c0.2-9.934,0.3-17.367,0.3-22.3L9.5,179.8c0.133,6.033,0.333,13.434,0.6,22.2
		c0.467,14.033,0.683,24.55,0.65,31.55v12.75l-0.7-0.25L10,246C9.767,245.9,9.55,245.783,9.35,245.65z M0.2,205.9
		c0.033,0.5,0.1,1.066,0.2,1.699c0.2,1.601,0.317,2.617,0.35,3.051c0.033,0.533,0.017,1.25-0.05,2.149
		c-0.367-1.1-0.534-2.35-0.5-3.75V205.9z M8.05,151.65L7.8,153.05c-0.1,0.9-0.7,5.283-1.8,13.15c-0.767,5.2-1.183,9.633-1.25,13.3
		c-0.033,1.134,0.067,4.134,0.3,9c0.034,0.967,0,1.717-0.1,2.25c-0.034,0.066-0.233,0.7-0.6,1.9L3.5,195.35
		c-0.333,0.9-0.7,1.7-1.1,2.4c-0.233,0.434-0.45,1.066-0.65,1.9c-0.2,0.899-0.4,1.55-0.6,1.949c-0.167,0.367-0.367,0.767-0.6,1.2
		c-0.2,0.4-0.316,0.95-0.35,1.65v-7.4c0-0.2-0.05-1.883-0.15-5.05c-0.1-2.066-0.066-3.75,0.1-5.05c0.067-0.434,0.217-0.95,0.45-1.55
		c0.3-0.634,0.517-1.134,0.65-1.5c0.1-6.467,0.383-13.284,0.85-20.45c-0.2-5.867-0.3-10.25-0.3-13.15
		c0-6.733-0.083-16.816-0.25-30.25L1.45,112c0-0.433,0-0.85,0-1.25l0.1-1l0.35-0.25c0.067,0.867,0.184,1.483,0.35,1.85
		c0.333,0.6,0.75,1.083,1.25,1.45c0.833,1.633,1.667,3.633,2.5,6l0.55,2.2c0.333,2.167,0.55,4.617,0.65,7.35
		c0.033,1.333,0.017,3.283-0.05,5.85c0,0.966-0.033,2.483-0.1,4.55c-0.033,1.867,0.017,3.383,0.15,4.55
		c0.133,0.934,0.316,2.25,0.55,3.95c0.2,1.533,0.3,2.934,0.3,4.2V151.65z M11.7,62.8v23.5c0,12.467-0.184,21.333-0.55,26.6
		l-0.35-4.95c-0.066-1.267-0.333-2.3-0.8-3.1c-0.6-0.833-1.083-1.583-1.45-2.25c-0.833-1.533-1.383-3.2-1.65-5
		c-0.2-1.267-0.3-3.167-0.3-5.7c0-7.433-0.15-13.917-0.45-19.45H6.2c1.033-0.167,2.183-0.267,3.45-0.3
		c0.8-0.233,1.283-1.066,1.45-2.5c0.033-0.367,0.066-1.483,0.1-3.35c0.033-1.333,0.183-2.45,0.45-3.35
		C11.65,62.883,11.667,62.833,11.7,62.8z M21.25,37.1c0.1,3.2-0.117,7.333-0.65,12.4c-0.7,6.6-1.1,10.683-1.2,12.25
		c-0.333,5.6-0.517,12.167-0.55,19.7c0,1.733-0.017,3.833-0.05,6.3c-0.066-4.067-0.15-8.567-0.25-13.5
		c-0.267-13.133-0.417-22.1-0.45-26.9l-0.1-8.3c0.2-0.333,0.4-0.617,0.6-0.85l0.65-0.6C19.717,37.333,20.383,37.167,21.25,37.1z
		 M31.75,17.2v0.9c0.067,1.233,0.1,2.85,0.1,4.85c-0.033,1.1-0.067,2.733-0.1,4.9V50.3c0,0.7,0.033,2.05,0.1,4.05
		c0.033,1.8-0.083,3.033-0.35,3.7c-0.133,0.333-0.35,0.617-0.65,0.85c-0.233,0.133-0.4,0.55-0.5,1.25l-0.25-4.7
		c0.033-1.667-0.067-7.867-0.3-18.6c-0.133-7.533,0.117-13.65,0.75-18.35L31.75,17.2z M31.45,98.55l-0.9-0.3l0.3-0.2l0.6-0.1V98.55z
		 M35.55,151.8l0.05-1.85c0-11.833,0.05-19.733,0.15-23.7c0-1.867,0.033-3.483,0.1-4.85c0.1-2.566,0.333-4.033,0.7-4.4
		c0.1,3.4,0.267,8.5,0.5,15.3c0.167,5.967,0.133,11.05-0.1,15.25c-0.233,4.5-0.667,9.117-1.3,13.851l-0.05-3.351
		C35.633,156.65,35.617,154.566,35.55,151.8z M21.85,138.3c0.133-0.4,0.267-0.933,0.4-1.6c0.033-0.133,0.1-1.05,0.2-2.75
		c0.2-3.233,0.3-4.917,0.3-5.05c0.133-2.367,0.133-5.367,0-9c-0.2-5.133-0.35-9-0.45-11.6l-0.2-5.9
		c-0.033-0.967-0.05-1.883-0.05-2.75c0.133-4.867,0.2-8.517,0.2-10.95l1.7-25.5c-0.133,3.333-0.083,7.867,0.15,13.6
		c0.267,6.667,0.4,11.2,0.4,13.6c0,3.133,0.067,7.817,0.2,14.05v37.45c0,1.267-0.1,3.083-0.3,5.45c-0.167,2.433-0.267,4.233-0.3,5.4
		c-0.067,3.5,0.033,6.5,0.3,9c0.067,0.767,0.317,2.134,0.75,4.1l-0.35,0.101c-0.667-2.4-1.367-5.884-2.1-10.45
		c-0.2-1.2-0.4-2.866-0.6-5c-0.2-2.4-0.367-4.067-0.5-5c0.167-1.9,0.25-3.617,0.25-5.15V138.3z M31.45,81.35c0,0.1,0,0.2,0,0.3
		c-0.133,5.633-0.7,10.617-1.7,14.95c-0.533,0.133-0.917,0.183-1.15,0.15c-0.167-0.233-0.35-0.65-0.55-1.25
		c1.333-8.667,2.083-16.2,2.25-22.6c0.067-1.533,0.1-3.833,0.1-6.9l0.05,0.3c0.167,1.067,0.4,2.517,0.7,4.35
		c0.233,1.6,0.333,3.083,0.3,4.45V81.35z M20.85,177.9L21,177.85c0.233-0.033,0.75-0.05,1.55-0.05c0.633,0,1.15-0.083,1.55-0.25
		c0.5-0.233,1.217-0.899,2.15-2c0.933-1.033,1.65-1.649,2.15-1.85c0.533-0.167,1.233,0.116,2.1,0.85l-0.15,0.65
		c-0.233,0.5-0.733,0.967-1.5,1.399c-0.767,0.4-1.283,0.867-1.55,1.4c-0.5,1.033-0.8,2.684-0.9,4.95c0,0.3,0,2.083,0,5.35
		c-0.1,3.533-0.15,5.316-0.15,5.351c-0.2,3.899-0.4,9.733-0.6,17.5c-0.133-2.601-0.5-10.767-1.1-24.5
		c0.3-2.233,0.117-4.101-0.55-5.601c-1,1.834-1.717,2.834-2.15,3c-0.267-0.7-0.533-1.733-0.8-3.1
		C20.983,179.616,20.917,178.6,20.85,177.9z M21.85,114.9v2.4c0.233,0.667,0.333,1.717,0.3,3.15c0,0.8-0.033,1.883-0.1,3.25
		c0,1.5-0.05,2.966-0.15,4.4l-0.05-0.35c-0.1-2.233-0.133-5.067-0.1-8.5c0-0.3,0.017-0.583,0.05-0.85c0-0.5,0-0.983,0-1.45
		L21.85,114.9z M51.75,194.5v-1.3l0.3-1.75L51.75,194.5l0.8-6.2c0.566-3.5,0.884-5.666,0.95-6.5L54,181.4
		c0.934-0.301,2.083-0.301,3.45,0c0.3,0.066,0.7,0.25,1.2,0.55s0.883,0.483,1.149,0.55c0.167,0.066,0.601,0.066,1.3,0
		c0.534-0.033,0.967,0.1,1.301,0.4c0.399,0.399,0.75,0.933,1.05,1.6c0.2,1.833,0.517,3.7,0.95,5.6c-0.167-0.633-0.267-0.966-0.301-1
		c-0.333-0.466-0.783-0.733-1.35-0.8c-0.7-0.1-1.15-0.2-1.35-0.3l-0.101-0.1l-0.25,3.649L60.9,187.5
		c-0.301-0.366-0.617-0.95-0.95-1.75c-0.434-1.066-0.733-1.75-0.9-2.05c-0.866,0.866-1.483,2.333-1.85,4.399
		c-0.066,0.334-0.283,2.233-0.65,5.7c-0.3,3.233-0.483,7.15-0.55,11.75c-0.033,2.634-0.066,6.601-0.1,11.9
		c0,0.633,0.017,2.116,0.05,4.45c-0.033,2.133-0.217,3.616-0.55,4.449c-0.367-0.466-0.717-1.833-1.051-4.1
		c-0.133-1.434-0.267-2.566-0.399-3.4c-0.267-1.533-0.617-2.399-1.05-2.6c-0.334,0.667-0.634,1.816-0.9,3.45l-0.05,0.35L51.6,229.3
		c-0.1,3.667-0.216,9.134-0.35,16.4c-0.134,6.533-0.384,12-0.75,16.399c-0.233,2.7-0.566,6.7-1,12l-0.9,0.9
		c-0.199-1.733-0.35-2.983-0.449-3.75V246.9l0.8-14.45c0.066,0.899,0.166,1.75,0.3,2.55c0.2-0.6,0.283-1.25,0.25-1.95l0.4-4.25
		c0.633-1.033,1.066-3.217,1.3-6.55l0.1-1.35c0.066-1.601,0.066-5.617,0-12.051l0.3-6.449C51.7,199.8,51.75,197.167,51.75,194.5z
		 M57.55,271.35l0.05-4.55l0.25,4.45L57.55,271.35z M68.8,105.45c-0.434,0.033-0.767,0.05-1,0.05c-0.399,0.033-0.717,0.167-0.95,0.4
		c-0.1,0.133-0.216,0.467-0.35,1c-0.167,0.6-0.283,0.967-0.35,1.1c-0.2,0.367-0.717,0.95-1.551,1.75
		c-0.666,0.633-1.1,1.383-1.3,2.25c-0.233,1-0.366,2.55-0.399,4.65c0,1.167,0.017,2.7,0.05,4.6v7.6
		c-0.033-1.467-0.101-2.833-0.2-4.1c-0.134-2.3-0.233-4.033-0.3-5.2c-0.134-2.033-0.4-3.65-0.8-4.85c-0.434-2-0.75-3.467-0.95-4.4
		c-0.4-1.7-0.967-2.783-1.7-3.25c-0.833-0.5-1.55-1.117-2.15-1.85c-0.267-0.367-0.466-0.633-0.6-0.8c-0.233-0.3-0.467-0.467-0.7-0.5
		c-0.133,0.267-0.2,1.383-0.2,3.35c0,0.967,0.017,1.8,0.051,2.5c0,1.4,0.017,5.633,0.05,12.7c0.033,5.133,0.033,9.35,0,12.65
		c-0.134,10.833-0.7,22.034-1.7,33.6c0.033-12.101,0.05-21.167,0.05-27.2c0.033-12.067-0.333-31.85-1.1-59.35
		c0.233-1.933,0.566-3.633,1-5.1l0.2-0.75c0.199-0.133,0.383-0.15,0.55-0.05l0.5,0.35c0.066,0.833,0.149,1.967,0.25,3.4l0.8,6.65
		c0.066,0.667,0.1,1.667,0.1,3c0,0.167-0.083,0.85-0.25,2.05c-0.133,0.966-0.183,1.617-0.149,1.95c0.166,1.467,0.75,2.583,1.75,3.35
		c1.233,0.933,1.934,1.567,2.1,1.9c0.167,0.367,0.334,1.133,0.5,2.3c0.134,1.2,0.3,2.033,0.5,2.5c0.367,0.933,0.7,1.517,1,1.75
		c0.167,0.133,0.634,0.267,1.4,0.4c0.033,0,0.35,0.183,0.95,0.55c0.399,0.233,0.716,0.3,0.949,0.2c0.334-0.167,0.617-0.6,0.851-1.3
		c0.267-0.7,0.6-1.15,1-1.35c0.366-0.167,0.967-0.184,1.8-0.05C68.667,104.4,68.767,104.917,68.8,105.45z M77.35,188.8l-0.05-1.55
		c-0.033,2.8-0.133,5.6-0.3,8.4c0-5.434-0.05-8.817-0.15-10.15c-0.1-1.134-0.333-2.65-0.699-4.55c-0.434-2.101-0.7-3.617-0.801-4.55
		c-1.066-9.101-1.149-18.15-0.25-27.15c1-9.7,1.534-15.017,1.601-15.95l1.7-14.65c0,4.233,0.033,10.617,0.1,19.15
		c0,7.5-0.116,13.867-0.35,19.101c-0.101,2.333-0.334,5.816-0.7,10.449c-0.033,4-0.033,8.034,0,12.101L77.35,188.8z M35.7,177.05
		c0.5,0.066,0.867,0.15,1.1,0.25c0.4,0.2,0.767,0.55,1.1,1.05c0.567,0.834,1.35,2.233,2.35,4.2c0.233,0.4,0.583,0.917,1.05,1.55
		c0.4,0.634,0.717,1.233,0.95,1.801l0.5,1.75c-0.7,2.133-1.5,2.966-2.4,2.5c-0.533-0.434-1.117-0.684-1.75-0.75
		c-0.467-0.101-0.733,0.333-0.8,1.3c-0.267,2.533-0.483,5.383-0.65,8.55c-0.167,2.667-0.25,5.05-0.25,7.15
		c0,10.5-0.1,17.85-0.3,22.05c-0.167,3.3-0.367,6.3-0.6,9l-0.6-4.851c-0.066-5.066-0.25-8.149-0.55-9.25l-0.35,0.5l0.05-3.8
		c0.4-4.8,0.6-8.983,0.6-12.55c0.067-6.7,0.1-16.717,0.1-30.05L35.7,177.05z M61.05,191.55c0.101,3.467,0.101,7.983,0,13.55
		c-0.133,7.2-0.2,11.717-0.2,13.551c0,3.699,0.017,9.25,0.051,16.649c0,6.5-0.067,12.033-0.2,16.601l-0.101,2.6
		c-0.233-8.366-0.35-14.65-0.35-18.85c0.033-3,0.066-5.284,0.1-6.851c0.034-2.733-0.017-4.967-0.149-6.7l-0.05,0.051L60.1,218.2
		C60.033,211.833,60.35,202.95,61.05,191.55z M44.9,295.1L43.6,295.2l0.051-3.4c-0.034-1.866-0.051-3.283-0.051-4.25
		c0-1.767,0.067-3.25,0.2-4.45c-0.333-4.767-0.5-9.066-0.5-12.899l1.101,9.5c-0.301,1.033-0.5,2.166-0.601,3.399
		C44,286.434,44.366,290.434,44.9,295.1z"/>
	<path style="fill-rule:evenodd;clip-rule:evenodd;fill:#877F74;" d="M1.75,107.95c-0.067-0.167-0.183-0.284-0.35-0.35L1.15,87.75
		l-0.05-1.8c0.167,0.066,0.367,0.066,0.6,0V85.9l0.05,0.05c0.4,0.7,0.667,1.617,0.8,2.75c0.067,0.6,0.117,1.683,0.15,3.25
		c0.033,3.367-0.15,7.383-0.55,12.05l-0.1-0.1L1.75,107.95z M18.4,147.75l-0.75,2.05c-0.333,0.8-0.717,1.483-1.15,2.05
		c-0.3,0.434-0.65,0.733-1.05,0.9c-0.833-0.566-1.417-0.884-1.75-0.95c0,0.334,0.083,0.7,0.25,1.101l-0.55-0.051l-2.05-14.05
		c-0.133,0.4-0.283,0.7-0.45,0.9c-0.3-1.034-0.467-1.983-0.5-2.85v-4.8l0.95,6.75c0.167-0.466,0.333-1.133,0.5-2
		c0.167-0.966,0.3-1.683,0.4-2.15c0.167-0.767,0.367-1.383,0.6-1.85c0.066-0.167,0.2-0.25,0.4-0.25c0.2-0.033,0.317-0.1,0.35-0.2
		c0.267-0.5,0.5-1.533,0.7-3.1c1.434-9.6,2.25-16.983,2.45-22.15c0.133-3.1,0.233-7.767,0.3-14c0.067-6.267,0.167-10.95,0.3-14.05
		c-0.067,23.133-0.167,38.55-0.3,46.25c0,1.5-0.083,3.7-0.25,6.6c-0.033,1.3-0.033,2.067,0,2.3c0.067,0.667,0.317,1.15,0.75,1.45
		c0.767,0.5,1.417,0.2,1.95-0.9c0.533-1.467,0.933-2.517,1.2-3.15c0.133,1.667-0.05,3.867-0.55,6.6l-1.05,5.5
		C18.933,144.6,18.7,145.95,18.4,147.75z"/>
</g>
</svg>
