<?xml version="1.0" encoding="iso-8859-1"?>
<!-- Generator: Adobe Illustrator 15.1.0, SVG Export Plug-In . SVG Version: 6.00 Build 0)  -->
<!DOCTYPE svg PUBLIC "-//W3C//DTD SVG 1.1//EN" "http://www.w3.org/Graphics/SVG/1.1/DTD/svg11.dtd">
<svg version="1.1" id="FlashAICB" xmlns="http://www.w3.org/2000/svg" xmlns:xlink="http://www.w3.org/1999/xlink" x="0px" y="0px"
	 width="119.8px" height="399.2px" viewBox="0 0 119.8 399.2" style="enable-background:new 0 0 119.8 399.2;" xml:space="preserve"
	>
<g>
	<path style="fill-rule:evenodd;clip-rule:evenodd;fill:#B9B0A7;" d="M101.7,18.25l0.6,0.8l0.15,0.25L101.7,18.25z M89.35,41.45
		L89.2,35.1l0.25,4.95L89.35,41.45z M96.95,49.4l-0.101-1.1c-0.033-0.533-0.017-1.417,0.051-2.65L97,42.8L96.95,49.4z M88.65,45.85
		l-1.15,7.7L88,47.3c-0.6,0.8-1.017,1.3-1.25,1.5c-0.434,0.3-0.917,0.034-1.45-0.8c-0.633-1.067-1.217-2.9-1.75-5.5
		c-0.166-0.967-0.283-2.133-0.35-3.5c-0.033-1.533-0.084-2.7-0.15-3.5l-0.35,1.9l0.149-1l-0.1-6.45
		c0.333,3.966,0.717,5.933,1.15,5.9c0.166-8.967,0.267-18,0.3-27.1l0.5-0.35c0.366-0.167,0.883-0.233,1.55-0.2
		c0.366,0.033,0.917,0.1,1.65,0.2c0,1.733,0.05,8.217,0.149,19.45c0.101,7.9,0.084,14.383-0.05,19.45l-0.1,2.9L88.65,45.85z
		 M95.75,14.55l0.1,0.7l-0.05-0.3L95.75,14.55z M80.9,8.5L80.8,15.85c-0.434,2.9-0.533,5.933-0.3,9.1
		c-0.033,5.867-0.017,14.683,0.05,26.45l-0.05,0.55v0.15c0,3.5-0.05,9.233-0.15,17.2c-0.1,7.4-0.133,13.133-0.1,17.2v5.15
		c0,0.333,0,0.667,0,1c-0.066,0.967-0.25,1.733-0.55,2.3c-0.267,0.433-0.75,0.733-1.45,0.9c-0.566,0.167-1.066,0.2-1.5,0.1
		c-0.134-0.034-0.5-0.15-1.1-0.35c-0.233-0.1-0.45-0.067-0.65,0.1c0.066-1.833,0.066-6.784,0-14.85
		c-0.033-6.133,0.184-11.083,0.65-14.85c0.399-3.033,0.816-4.9,1.25-5.6c0.3-0.467,0.783-0.75,1.449-0.85
		c0.667-0.066,1.134,0.15,1.4,0.65c0.366-1.1,0.55-2.917,0.55-5.45c-0.566-0.533-1.383-0.833-2.45-0.9l1.801-1.25
		c-0.7,0.4-1.25,0.55-1.65,0.45c-0.167-0.033-0.434-0.216-0.8-0.55c-0.467-0.433-0.75-0.683-0.851-0.75L76.3,51.7l0.05-5.3
		c-0.033-2.867-0.233-6.2-0.6-10c-0.467-4.367-0.816-7.633-1.05-9.8c-0.3-3.267-0.55-5.717-0.75-7.35
		c-0.3-2.833-0.667-5.183-1.101-7.05C72.15,24.933,72.167,36.7,72.9,47.5l0.1,0.3c-0.066,1.233-0.167,2.034-0.3,2.4
		c-0.2,0.5-0.617,0.983-1.25,1.45c-0.601,0.434-1.066,0.65-1.4,0.65c-0.166,0.034-0.416-0.017-0.75-0.15
		c-0.3-0.1-0.533-0.217-0.7-0.35c-0.3-0.233-0.583-0.617-0.85-1.15c-0.333-0.667-0.6-1.117-0.8-1.35
		c-0.634-0.833-1.167-1.05-1.601-0.65l0.351-4.7c0.333-1.767,0.533-3.1,0.6-4c0.066-0.767-0.017-1.867-0.25-3.3
		c-0.267-1.867-0.416-2.967-0.45-3.3c-0.666-6.167-1.133-10.817-1.399-13.95c-0.334-3.9-0.5-7.3-0.5-10.2V8.9l2.35,0.2
		c0.5,0.1,1.017,0.15,1.55,0.15C67.767,9.283,68.033,9.3,68.4,9.3c0.166,2.534,0.416,4.483,0.75,5.85
		c0.066,0.867,0.767,8.983,2.1,24.35c-0.097-8.806-0.13-17.581-0.1-26.325c0.058,2.254,0.175,4.33,0.35,6.225
		c0.066-1.367,0.25-3.017,0.55-4.95c0.4-3.034,0.617-4.633,0.65-4.8v-0.4L71.1,9.3h-2H68.4L73.8,9.2c0.334,0,0.75,0,1.25,0
		c0.434-0.034,0.816-0.217,1.15-0.55L76.6,8.1L76.7,7.9c0.033-0.066,0.066-0.117,0.1-0.15c0.101-0.2,0.217-0.467,0.351-0.8
		l0.1,10.25c0.1-2.1,0.417-3.867,0.95-5.3c0.2-0.533,0.566-1.133,1.1-1.8C79.833,9.4,80.366,8.867,80.9,8.5z M88.3,13.35l0.3,13.05
		c-0.199-2.1-0.3-4.333-0.3-6.7V13.35z M115.2,27.75l-0.7-1.3l0.4,0.65C114.967,27.167,115.066,27.383,115.2,27.75z M115.4,28.5
		c0.1,0.5,0.149,1.083,0.149,1.75l-0.05-0.85L115.4,28.5z M115.95,35.3l0.85,12.4l-0.6-6.3v-0.05L115.95,35.3z M117.15,54.6
		l0.399,13.15L117.4,66.4l-0.2-2.1L117.15,54.6z M89.6,96.85l-0.1-0.2c-0.434,0.033-1.017,0.15-1.75,0.35
		c-0.833,0.267-1.434,0.417-1.8,0.45H85.35c-0.5,0-0.883-0.05-1.149-0.15c-0.3-0.167-0.584-0.483-0.851-0.95v-9
		c0-6.434-0.066-16.083-0.199-28.95c0.433,2.1,1.149,3.6,2.149,4.5c0.134,0.1,0.384,0.25,0.75,0.45c0.334,0.2,0.55,0.45,0.65,0.75
		c0.233,0.6,0.366,1.816,0.399,3.65c0,1-0.017,2.317-0.05,3.95c0.033,3.667,0.267,9.1,0.7,16.3c0-2.8,0.033-4.85,0.1-6.15l0.051,1.2
		V81.2l0.35,3.95c0.2-0.867,0.3-2.05,0.3-3.55c-0.033-1.8-0.066-3.117-0.1-3.95c0.233-0.467,0.6-0.75,1.1-0.85
		c0.5-0.066,0.867-0.316,1.101-0.75c0.333-0.733,0.5-2.233,0.5-4.5c-0.101-2.5-0.134-4.133-0.101-4.9L91.4,60.5
		c0.633,2,0.949,5.3,0.949,9.9c-0.033,2.5-0.116,5.883-0.25,10.15l0.051,11.7c-0.367,1.3-0.717,2.267-1.051,2.9
		C90.667,96.017,90.167,96.583,89.6,96.85z M117.7,69.85l0.95,17.85c0.166,1.767,0.267,4.133,0.3,7.1c0.066,3.534,0.133,5.9,0.2,7.1
		l0.1,3.85c-0.032-0.001-0.049-0.018-0.05-0.05v0.05c-1.267-0.6-2.2-1.05-2.8-1.35c-1-0.566-1.634-1.2-1.9-1.9
		c-0.366-0.967-0.566-2.417-0.6-4.35c0.033-2.167,0.05-3.717,0.05-4.65c-0.066-5.933-0.084-10.383-0.05-13.35l0.949-2.4
		c0.467-0.1,0.784-0.217,0.95-0.35c0.3-0.267,0.584-0.8,0.851-1.6c0.233-0.733,0.55-2.466,0.949-5.2
		C117.634,70.333,117.667,70.083,117.7,69.85z M70.35,107.3l0.15-0.3c0.167-0.3,0.467-1.017,0.9-2.15c0.399-0.967,0.733-1.633,1-2
		c0,3.633-0.117,7.017-0.351,10.15l-1,9.15c-0.399,4.133-0.633,8.917-0.7,14.35c-0.033,1.833-0.033,6.667,0,14.5
		c0,22.167-0.066,38.8-0.199,49.9c-0.034,3.666,0,9.5,0.1,17.5c-0.033,7.1-0.366,12.866-1,17.3c-0.9,6.333-1.3,14.934-1.2,25.8
		c0.167,13.233,0.117,21.95-0.149,26.15c-0.067,1.399-0.233,3.517-0.5,6.35c-0.233,2.566-0.317,4.7-0.25,6.4
		c0.199,3.233,0.517,6.233,0.949,9l-0.3,3.3c-0.033,0.767-0.017,2.05,0.05,3.85c0,1.601-0.149,2.75-0.449,3.45
		c-0.067-0.066-0.134-0.217-0.2-0.45l-0.05-0.05l-0.101-0.55c0,0.066,0.101,5.383,0.3,15.95c-0.767,0.5-1.8,0.383-3.1-0.351
		c-0.733-0.399-1.217-1.083-1.45-2.05l-0.05,0.35c-0.066,0.7-0.25,2.684-0.55,5.95c-0.267,2.4-0.417,4.384-0.45,5.95
		c-0.066,2.233-0.533,5.483-1.4,9.75c-0.399,2.233-0.783,5.517-1.149,9.85c-0.567,0.067-1.883,0.101-3.95,0.101V328.85
		c-0.033,0.434-0.05,0.884-0.05,1.351c-0.067,3.233-0.25,5.983-0.55,8.25c-0.1,0.8-0.233,1.983-0.4,3.55
		c-0.167,1.4-0.383,2.566-0.65,3.5c-0.567,2.033-1,3.767-1.3,5.2c0.233-2.533,0.5-4.917,0.8-7.15c0.367-2.666,0.583-5.666,0.65-9
		c0.033-1.333,0.05-4.383,0.05-9.149c0.167-9.934,0.217-17.384,0.15-22.351l-0.3-0.5l-0.05-0.05l-0.15-0.3l0.05-1.25
		c0.633-20.267,1.083-35.467,1.35-45.601c0.467-17.666,0.717-32.899,0.75-45.699c0.066-13.267,0.183-25.217,0.35-35.851
		c0.167-8.6,0.216-19.633,0.15-33.1c-0.1-18.667-0.15-29.7-0.15-33.1L55,143.75c0.067,8.033-0.133,16.05-0.6,24.05
		c-0.566,6.367-1.15,11.817-1.75,16.35c-0.3,2.733-0.55,5.55-0.75,8.45c0.067-3.5,0.217-7,0.45-10.5c0.167-2.4,0.45-5.15,0.85-8.25
		c0.767-7,1.3-15.483,1.6-25.45c0.233-7.767,0.467-28.066,0.7-60.9c0.133-18.733,0.483-34.8,1.05-48.2l-5.15,70.95
		c0.5,1.433,0.6,5.317,0.3,11.65l0.3,48.65l-0.3-10.35c-0.333,2.633-0.833,6.983-1.5,13.05c-0.833,4.967-2.167,7.95-4,8.95
		c-0.4,0.2-0.65,0.333-0.75,0.4c-0.167,0.1-0.4,0.35-0.7,0.75c-0.5,0.833-0.85,1.367-1.05,1.6c-0.3,0.333-0.733,0.333-1.3,0
		c-1.133-0.733-2.117-1.55-2.95-2.45c0.9,0.267,1.833,0.4,2.8,0.4c2.6,0.1,4.65-1.233,6.15-4c0.467-0.933,0.717-2,0.75-3.2
		c0-1.367,0.033-2.467,0.1-3.3c0.333-3.5,0.5-9.333,0.5-17.5l-4,24c0.567,0.567,0.7,1.217,0.4,1.95
		c-0.233,0.033-1.35,0.05-3.35,0.05c-0.633,0-1.55-0.15-2.75-0.45c-1.167-0.3-2.017-0.45-2.55-0.45c-0.567-0.9-1.05-1.833-1.45-2.8
		v-0.1c-0.2-0.4-0.35-0.833-0.45-1.3l-0.25,9.3l0.3,4.45l0.15-3.05l-0.2,9.55c-0.233-1.966-0.317-5.617-0.25-10.95l-0.5-32.05
		c0.4-2.433,0.883-4.4,1.45-5.9c0.534-1.4,1.317-2.85,2.35-4.35c1.1-1.566,1.95-3.267,2.55-5.1c0.367-1.267,0.617-2.65,0.75-4.15
		c0.033-0.466,0.083-1.933,0.15-4.4l0.15-1.85l0.2-0.9c0.167-0.533,0.5-1.117,1-1.75c0.466-0.6,0.8-1.233,1-1.9
		c0.466-1.467,0.7-3.783,0.7-6.95c-0.1-3.5-0.15-5.867-0.15-7.1c0-9.8-0.067-16.483-0.2-20.05c-0.267-5.267-0.45-10.033-0.55-14.3
		L44.15,70l-0.4,39.9c0.033,0.967,0.067,2.55,0.1,4.75c0,1.867-0.067,3.333-0.2,4.4l-0.1,0.55l0.2-32
		c-0.167-7.5-0.283-13.117-0.35-16.85c-0.066-6.5-0.033-12.083,0.1-16.75c0.067-1.667,0.25-4.117,0.55-7.35
		c0.333-3.267,0.517-5.75,0.55-7.45l0.2-12.55c0.2,6.833,0.467,12.45,0.8,16.85c1.867,22.867,3.083,38.75,3.65,47.65
		c0.4,6.8,0.683,12.184,0.85,16.15c-0.167-18.733-0.117-34.2,0.15-46.4c0.067-3.033,0.317-7.667,0.75-13.9
		c0.433-6.067,0.683-10.7,0.75-13.9c0.033-2.7-0.067-6.3-0.3-10.8c-0.267-5.533-0.417-9.167-0.45-10.9
		c0.5-0.167,1.25-0.333,2.25-0.5c1.033-0.167,1.733-0.3,2.1-0.4c0.467-0.1,1.2-0.35,2.2-0.75c0.4,5.333,0.6,8.067,0.6,8.2l0.55,4.75
		c0.133,1.233,0.15,3.1,0.05,5.6c-0.067,2.567-0.05,4.434,0.05,5.6c0.167,1.467,0.584,3.783,1.25,6.95c0.2,1.3,0.334,2.8,0.4,4.5
		c0.066,0.967,0.133,2.5,0.2,4.6c0.1,1.533,0.199,3.8,0.3,6.8c0.166,2.533,0.517,4.6,1.05,6.2c0.2,0.566,0.85,2.9,1.95,7
		c0.8,2.966,1.533,5.133,2.2,6.5c-0.267-1.4-0.467-3.133-0.601-5.2c-0.133-2.367-0.25-4.15-0.35-5.35c0.633-2,1.05-3.2,1.25-3.6
		c0.866-1.767,2-2.8,3.399-3.1c1.067-0.233,1.9,0.316,2.5,1.65l-0.85,16.5c0.066,4.633,0.333,11.65,0.8,21.05
		c-0.366,0.5-0.783,1.767-1.25,3.8c-0.434,1.8-0.95,2.9-1.55,3.3c-0.566,0.4-1.033,0.167-1.4-0.7
		c-0.333-1.133-0.633-1.917-0.899-2.35c-0.167-0.267-0.566-0.65-1.2-1.15c-0.4-0.3-0.717-0.9-0.95-1.8c-0.166-1.133-0.3-2-0.399-2.6
		c-0.233-1.066-0.551-1.4-0.95-1L63.6,96.05l0.25-5.3c-0.966,4.5-1.683,10.067-2.149,16.7c-0.3,4.267-0.533,10-0.7,17.2l-0.15,11.8
		l-0.899,9.95c-0.434,7.067-0.634,14.15-0.601,21.25c-0.033,5.6-0.033,11.184,0,16.75l-0.85,17.85c-0.333,1.667-0.517,4.5-0.55,8.5
		c0,2.134,0.017,4.783,0.05,7.95c-0.067,5.166-0.083,12.916-0.05,23.25c0,10.333-0.034,18.083-0.1,23.25l-0.2,18.25l0.7-5.8
		c0.566-5.934,0.966-9.684,1.2-11.25c0.134,0.3,0.267,0.816,0.4,1.55c0.066-4.533,0.166-7.934,0.3-10.2c0.233-4.7,0.4-10,0.5-15.9
		c0.267,11.567,0.467,23.051,0.6,34.45v7.101c1,6.333,1.584,10.083,1.75,11.25c0.101-0.7,0.15-1.417,0.15-2.15
		c0.634-7.434,1.033-13.983,1.2-19.65c0.333-6.767,0.45-13.816,0.35-21.149l-0.2-2.2c-0.366-1.134-0.649-2.267-0.85-3.4
		c-0.134-1.5-0.167-3.333-0.1-5.5v-10.55c0-4.467,0.116-7.434,0.35-8.899c0.1-0.667,0.434-1.934,1-3.801
		c0.767-2.733,0.95-5.916,0.55-9.55c-0.666-6.333-1-9.517-1-9.55c-0.133-4.533-0.217-10.083-0.25-16.65
		c-0.033-7.4-0.066-12.967-0.1-16.7c0-5.533-0.117-10.7-0.351-15.5l-0.05-1.95c0.4-2.3,0.967-4.833,1.7-7.6
		c0.634-2.067,0.917-4.25,0.85-6.55l0.15-6.8c0.1-2.667,0.217-4.517,0.35-5.55c0.233-1.6,0.75-2.883,1.551-3.85
		c1.1-1.167,1.8-2.067,2.1-2.7c0.6-1.233,1.066-2.65,1.4-4.25c0.466-2.1,0.483-3.75,0.05-4.95l-0.75,2L70.35,107.3z M78.55,203.4
		c0.267-2.2,0.5-5.767,0.7-10.7c0.1-2.367,0.116-5.383,0.05-9.05c-0.1-4.033-0.166-7.05-0.2-9.05
		c-0.033-6.667-0.017-16.667,0.051-30c0-5.833-0.017-9.267-0.051-10.3c-0.066-3.833-0.283-7.216-0.649-10.15
		c-0.601-0.4-1.134-0.15-1.601,0.75l-0.25-0.35c0.034-0.7,0.017-2.4-0.05-5.1c-0.066-2.167-0.033-3.833,0.101-5
		c0.033-0.233,0.733-1.667,2.1-4.3c1.134-2.133,1.384-3.783,0.75-4.95l-0.7-1.4c0.167-0.066,0.351-0.216,0.55-0.45
		c0.167-0.133,0.384-0.133,0.65,0c0.167,0.066,0.384,0.333,0.65,0.8l0.199,2.25c0.367,3.533,0.667,7.917,0.9,13.15V140
		c0,10.3,0.116,18.717,0.35,25.25c0,0.133,0.167,4.083,0.5,11.85c0.2,4.733,0.334,8.7,0.4,11.9c0.1,4.967,0.233,12.45,0.4,22.45
		c0.166,8.733,0.433,16.184,0.8,22.35c0.5-2.267,0.616-4.75,0.35-7.45l0.05-16.25c-0.066-13.5-0.1-23.633-0.1-30.399
		c-0.033-11.8,0.017-21.917,0.15-30.35c0.066-5.8,0.133-10.15,0.199-13.05c0.101-5.133,0.25-9.483,0.45-13.05
		c0.334-5.5,0.783-9.1,1.351-10.8c0.333-1,0.683-1.333,1.05-1c0.666,0.633,1.116,0.95,1.35,0.95c0.467,0,0.884-0.383,1.25-1.15
		c0.134-0.267,0.417-1.083,0.851-2.45c0.5-1.466,0.75-2.933,0.75-4.4c0-0.6-0.117-2.233-0.351-4.9l-0.95-1.3
		c0.134-0.034,0.417,0,0.851,0.1c0.333,0.067,0.583,0,0.75-0.2l0.05-0.1c0.167,7.833,0.417,14.3,0.75,19.4l0.5,8.35
		c0.134,2.9,0.267,7.117,0.4,12.65c0.033,0.567,0.033,4.083,0,10.55c0,6.233,0.133,9.433,0.399,9.6l0.101-1.4
		c-0.101,4.7-0.267,11.717-0.5,21.05c-0.2,8.2-0.284,15.2-0.25,21c0,15.6-0.117,26.1-0.351,31.5l-0.05-2
		c-0.233-4.367-0.417-7.65-0.55-9.851c-0.233-3.933-0.334-7.216-0.3-9.85c-0.367,10.066-0.534,22.417-0.5,37.05
		c0.033,8.267,0.1,20.617,0.199,37.05v0.601c0.5-0.267,1.017-0.617,1.551-1.05c-0.5,0.433-1.084,0.833-1.75,1.199l-0.7,0.45
		l-0.15,0.15l-0.7,0.45v0.05L89,286.2c0.434-4.3,0.684-6.65,0.75-7.05c0.333-2.7,0.733-4.7,1.2-6l-1.9-38
		c-0.267-4.067-0.434-8.417-0.5-13.051c-0.066,1.034-0.184,2.284-0.35,3.75c-0.134,1.367-0.217,2.067-0.25,2.101
		c-0.4,4.666-0.634,11.066-0.7,19.2c-0.033,5.133,0,10.916,0.1,17.35c0.101,11.967,0,23.9-0.3,35.8v0.05L86.9,301.45
		c-0.301,1.833-0.551,4.25-0.75,7.25c-0.067,0.833-0.101,1.283-0.101,1.35c-0.066,0.2-0.3,0.517-0.7,0.95l-0.25,0.2l-0.1,0.05
		l-0.3,0.2h-0.05l-0.45,0.25l-0.5,0.2c0.166-4.634,0.283-8.101,0.35-10.4c0.101-4.033,0.05-7.533-0.149-10.5
		c-0.067,2.066-0.284,3.384-0.65,3.95V290c0.134-12.333-0.25-24.884-1.15-37.65l-0.449-5.05v-0.75c0.066-18-0.101-32.783-0.5-44.35
		c-0.067-2.333-0.034-6.85,0.1-13.55c0.134-5.767,0.066-10.25-0.2-13.45c-0.467,2.667-0.684,6.433-0.649,11.3
		c0,2.667,0.017,6.5,0.05,11.5c-0.167,5.4-0.517,13.4-1.05,24l-0.5-5.7l0.35,11.601c-0.1,3-0.15,6.05-0.15,9.149
		c0.034,5.533,0,13.867-0.1,25c-0.1,11.134-0.15,19.483-0.15,25.05c0,13.7-0.017,21.4-0.05,23.101c-0.3,0.333-0.533,0.717-0.7,1.149
		l-0.199,0.7l-0.15,1.101v3.25l0.05,0.35c-0.5,2.3-0.816,4.55-0.95,6.75c-0.133,3.1-0.05,6.25,0.25,9.45
		c-0.3,0.666-0.666,1.233-1.1,1.7l-0.05,0.1l-1.45,1.35l-0.05-1c-0.267-4.866-0.851-11.533-1.75-20
		c-0.601-5.8-1.334-11.033-2.2-15.699l-0.475-2.775l1.125,11.325v25.45L71.05,333c-0.066-2.634-0.267-8.25-0.6-16.85
		c-0.3-7-0.45-12.667-0.45-17v-2.4l-0.35-2.55l0.05-0.7l0.3,2.9v-7.15c0.267-3.467,0.566-6.767,0.9-9.9l0.6-4.75l0.25-1.399v-4.25
		l0.6-6.851l-0.6,11.101l1.55-8.851l0.4-2.6c0.233,0.767,0.416,1.9,0.55,3.4c0.066,0.833,0.15,2.05,0.25,3.649
		c0.134,1.233,0.55,6.367,1.25,15.4c0.134,1.633,0.434,4.733,0.9,9.3c0.399,3.9,0.666,7.033,0.8,9.4l0.45,5.449
		c0.233-2.5,0.399-4.8,0.5-6.899c0.233-5.4,0.3-11.983,0.199-19.75c-0.133-8.8-0.216-15.4-0.25-19.8V247.1
		c0-0.733-0.05-1.8-0.149-3.199c-0.134-1.434-0.2-2.517-0.2-3.25c0-2.801-0.017-4.917-0.05-6.351c-0.033-2.5-0.184-4.566-0.45-6.2
		l-0.7-2.699c-0.6-4.7-0.916-9.217-0.95-13.551l-0.1-0.649l-0.05-18.9l0.1,1c0-2.8,0-5.167,0-7.1l0.25,8.75l1.601,11.95
		c0.233-0.034,0.449-0.65,0.649-1.851l0.05-6.05l0.2,5V203.4z M96.9,268.15H97.3c-0.033-4.967-0.2-15.75-0.5-32.351
		c-0.066-11.7-0.149-20.483-0.25-26.35c-0.1-8.767-0.3-19.367-0.6-31.8c-0.367-14.167-0.634-24.783-0.8-31.85l-0.601,3.65l-0.05,3.3
		c-0.066-3.267-0.083-5.583-0.05-6.95c0.033-3.933,0.05-11.75,0.05-23.45c0-9.833,0.05-17.5,0.15-23v-5l0.1-1.05l0.4,1.65L94.9,94.1
		c0.1,3.7,0.35,10.583,0.75,20.65c0.333,8.667,0.533,15.533,0.6,20.6c0.066,4.133,0.1,10.45,0.1,18.95
		c0.067,7.5,0.384,13.733,0.95,18.7c0.533,4.9,1.05,12.517,1.55,22.85c0.034,0.9,0.017,2.4-0.05,4.5c0,1.9,0.134,3.317,0.4,4.25
		c0.166-2.1,0.267-4.216,0.3-6.35l0.15,5.6c0.566,0.4,0.949,0.934,1.149,1.601c0.167,0.566,0.283,1.583,0.351,3.05
		c0.033,0.434,0.017,1.233-0.051,2.4c-0.033,1.033-0.017,1.816,0.051,2.35c0.033,0.434,0.149,0.967,0.35,1.6
		c0.2,0.634,0.316,1.067,0.35,1.301c0.301,2.3,0.45,7.05,0.45,14.25l0.05,14.35c0.2,5.566,0.301,11.134,0.301,16.7
		c-0.334,1.934-0.284,3.666,0.149,5.2c0.467-3.2,0.9-6.983,1.3-11.351l0.101,1.2c-0.167,0.434-0.2,1.033-0.101,1.8l0.15,0.55
		c0.066,2.634,0.2,4.5,0.4,5.601l0.25,1.75v-1.25l0.05,2.1c-0.934,0.334-1.95,0.601-3.05,0.8l-1.301-32.3
		c-0.433,9.834-0.616,20.417-0.55,31.75v0.851H99.5v-2.65l-0.05,2.65c-0.4,0.033-0.8,0.05-1.2,0.05H98.1
		C97.7,268.2,97.3,268.184,96.9,268.15z M47.825,399.2c-1.28-0.003-2.472-0.169-3.575-0.5c-0.367-0.101-0.717-0.283-1.05-0.55
		l0.45-13.5c0.025-0.497,0.042-0.946,0.05-1.351c0.433,1.167,0.767,3,1,5.5c0.066,0.601,0.2,2.533,0.4,5.8l0.25,4.351h0.15
		C46.25,399.1,47.025,399.184,47.825,399.2z M100.4,94.4c-0.101,0.7-0.15,1.383-0.15,2.05l-0.05-1.75l-0.05-0.05
		C100.217,94.65,100.3,94.567,100.4,94.4z M62.6,8.8l0.051,6.9l-0.2-6.9H62.6z M41.75,120.2l-0.1-1.25l0.05,1.35l-0.1,0.25
		c-0.233,0.7-0.333,1.733-0.3,3.1c0.034,0.767,0.083,1.967,0.15,3.6c-0.6,2.367-1.067,3.933-1.4,4.7L40,132.1
		c-0.867,0.967-1.95,1.017-3.25,0.15c-1.233-0.833-2.1-2.65-2.6-5.45c-0.4-3.566-0.75-6.283-1.05-8.15
		c-0.233,2.033-0.033,4.367,0.6,7c0.833,3.533,1.283,5.717,1.35,6.55l-0.2,15.8l-0.1-15.25c-0.2,0.667-0.3,1.783-0.3,3.35
		c-0.034,0.867-0.05,2.033-0.05,3.5c-0.066,4.167-0.3,9.233-0.7,15.2c-0.2,3.4-0.534,8.467-1,15.2l-0.45,7.35
		c-0.033-4.2-0.133-8.4-0.3-12.6c-1.434-38.067-2.3-60.733-2.6-68c-0.6-14.733-0.9-30.633-0.9-47.7c0-14.133,0.35-26.733,1.05-37.8
		c0.4-3.567,0.567-7.3,0.5-11.2l0.3,0.05l0.8,0.05V1.9c-0.033,5.333,0.033,12.467,0.2,21.4c0.1,5.3,0.2,9.733,0.3,13.3l0.05-36.3
		L31.5,0.25c0.533,0.1,0.967,0.183,1.3,0.25c0.3,0.1,0.6,0.15,0.9,0.15l0.1,0.05l0.8,0.05c0.767,0.067,1.35,0.183,1.75,0.35
		c0.533,0.233,0.95,0.683,1.25,1.35h-0.25l-0.5-0.05L35.8,2.05L35.5,1.9l-0.15-0.2H35.3c-0.2-0.133-0.35-0.317-0.45-0.55
		c0.566,2.8,1.316,5.35,2.25,7.65c0.333,0.8,0.617,1.85,0.85,3.15c0.333,1.6,0.566,2.633,0.7,3.1c0.233,0.833,0.583,1.65,1.05,2.45
		c0.6,1.433,1.066,3.383,1.4,5.85c0.433,3.267,0.75,5.35,0.95,6.25c0.167-2.3,0.25-5.883,0.25-10.75l-0.05-5.95l0.45,14L42.65,7.1
		L41.7,6.85l1.95,0.4l-0.15,8c0.1,3-0.017,6.633-0.35,10.9c-0.167,2.434-0.45,6.033-0.85,10.8c-0.833,11.6-1,21.483-0.5,29.65
		c0.133,2.2,0.367,5.417,0.7,9.65c0.267,3.833,0.417,7.083,0.45,9.75c0.066,6.567,0.066,16.4,0,29.5c0,0.5,0.017,1.167,0.05,2
		c-0.033,0.7-0.133,1.3-0.3,1.8c-0.067,0.167-0.2,0.317-0.4,0.45C42.033,119.883,41.85,120.033,41.75,120.2z M37,192.3l-0.15-1.7
		h0.7C37.317,191.233,37.133,191.8,37,192.3z M64.65,60.2l0.1-1.1v0.75L64.65,60.2z M73.05,47.05v0.65L73,47.8L73.05,47.05z
		 M22.9,106.75L23,55.2l1.75,35.4L22.9,106.75z M22.05,114.15l-1.7,14.9v0.1c0.3,5.4,0.217,10.934-0.25,16.6
		c-0.2,5.733-0.867,11.35-2,16.85c0.9-0.833,1.6-2.3,2.1-4.4c0.767-2.367,1.333-5.017,1.7-7.95c1.233-9.2,2.283-19.967,3.15-32.3
		c0.167-2.2,0.35-5.6,0.55-10.2c0.467,9.333,1.1,17.483,1.9,24.45c0.5,4.533,1.283,11.216,2.35,20.05
		c0.9,7.833,1.5,14.617,1.8,20.35l0.4,8.05c-0.466,6.7-0.7,12.517-0.7,17.45c0,2.333,0.217,6.216,0.65,11.65
		c0.367,4.9,0.5,8.816,0.4,11.75c-0.1,2.467-0.4,6.717-0.9,12.75c-0.467,5.4-0.717,9.65-0.75,12.75
		c-0.033,5-0.017,12.517,0.05,22.55c0.034,3.7-0.117,8.667-0.45,14.9c-0.367,7.233-0.583,12.184-0.65,14.85l0.1-0.7
		c0,0.167-0.017,0.334-0.05,0.5c-0.067,0.801-0.117,1.567-0.15,2.301l-0.3,6.05c-0.033,3.2-0.033,6.383,0,9.55l0.075,0.075
		c-0.127-0.121-0.269-0.213-0.425-0.275c-0.267-0.233-0.567-0.416-0.9-0.55l-0.1-0.05c-0.1-0.066-0.217-0.117-0.35-0.15
		c-0.033-0.033-0.067-0.05-0.1-0.05l-0.35-0.25c-2.566-1.634-5.566-1.833-9-0.6c-0.7,0.233-1.333,0.566-1.9,1l-0.25-0.2
		c-0.2-0.2-0.4-0.7-0.6-1.5c-0.233-0.733-0.55-1.3-0.95-1.7c-0.1-0.1-0.233-0.2-0.4-0.3c-0.466-0.334-1.2-0.7-2.2-1.101l0.9,0.301
		V252.4l-2.2,58.449l-0.8-0.35c-0.1-0.066-0.2-0.116-0.3-0.15c-1.2-0.6-1.95-1.333-2.25-2.199c-0.3-0.934-0.383-2.4-0.25-4.4
		c0.2-2.833,0.3-4.333,0.3-4.5L7.2,296.5c-0.1-1.967-0.2-3.45-0.3-4.45l-0.4-1.85c-0.063-0.241-0.129-0.475-0.2-0.7
		c0.5,0.066,0.917-1,1.25-3.2l0.15-0.75c0.167-4.6,0.183-10,0.05-16.2c-0.033-1.8-0.2-7.149-0.5-16.05
		c-0.267-8.166-1-22.184-2.2-42.05v0.55L4.9,208.15c-0.5-8.9-0.883-16.917-1.15-24.05c-0.233-6.567-0.367-12.467-0.4-17.7
		c0.267,9,0.65,17.117,1.15,24.35c0.2,2.867,0.333,5.533,0.4,8v-0.7c0.1-33.566,0.15-58.733,0.15-75.5v-7.6
		c0.367,2.8,0.517,5.667,0.45,8.6c0.2,4.3,0.567,8.35,1.1,12.15c0.367-2.1,0.55-5.184,0.55-9.25c0-5.367,0.017-8.534,0.05-9.5
		L8,107.4c0.333-3.733,0.9-7.233,1.7-10.5c0.466-1.667,0.75-3.417,0.85-5.25c0.5-2.767,1.483-4.983,2.95-6.65
		c2.367-2.7,3.65-4.217,3.85-4.55c0.533-0.867,0.833-1.467,0.9-1.8l0.1,0.05c0.533,0.6,0.983,2.45,1.35,5.55
		c0.2,1.667,0.417,3.817,0.65,6.45c0.133,1.233,0.233,3.083,0.3,5.55c0.033,2.433,0.117,4.267,0.25,5.5c0.1,0.8,0.25,2.9,0.45,6.3
		C21.517,110.683,21.75,112.717,22.05,114.15z M20.95,67.35L20.9,66.6v4.6v0.35c-0.033-0.533-0.066-1.033-0.1-1.5
		c0.034,0.367,0.067,0.75,0.1,1.15l-0.3-8.45l0.3,3.85l0.025-2L20.95,67.35z M15.85,57.55c-1.867-0.133-3.417-0.1-4.65,0.1L11.25,57
		c0.1-0.933,0.45-3.35,1.05-7.25c0.467-3,0.75-5.45,0.85-7.35c0.067-1.167,0.117-2.7,0.15-4.6c0-3.033,0-4.566,0-4.6
		c0.1-3.267,0.15-6.567,0.15-9.9c0-0.033,0-0.066,0-0.1c0.1-0.267,0.167-0.534,0.2-0.8l0.1-0.8c0-0.267-0.017-0.517-0.05-0.75
		l-0.05-0.55c-0.033-0.167-0.083-0.35-0.15-0.55V19.7l0.05-13.95l0.2-0.25v0.25c0.2,3.467,0.783,7.45,1.75,11.95
		c-0.067-0.8-0.017-2.817,0.15-6.05l0.2-8C16.617,3.083,17.5,2.6,18.5,2.2l3.25-1.1v0.55c0,2.133-0.067,5.333-0.2,9.6l-0.1-0.3
		c-1.133,9.4-2.05,22.167-2.75,38.3c-0.1,2.533-0.167,3.883-0.2,4.05c-0.133,1.034-0.533,1.967-1.2,2.8L15.85,57.55z M8,28.1v0.05
		c0.133,4.5,0.317,11.2,0.55,20.1c0.067,2.833,0.217,5.6,0.45,8.3l0.3,1.6c-0.566,0.233-1.033,0.483-1.4,0.75l-1,1.1
		c-0.367-0.3-0.7-1.233-1-2.8c-0.467-2.867-0.633-5.35-0.5-7.45c-0.1,0.2-0.217,1.617-0.35,4.25c-0.1,2-0.466,2.783-1.1,2.35
		c-0.534-0.367-0.934-2.133-1.2-5.3c0.2-5.7,0.467-10.3,0.8-13.8l0.5-4.65v-0.15l1.35-2.5L6.6,29v0.05
		c0.1,1.067,0.233,2.684,0.4,4.85c0.2,1.9,0.433,3.434,0.7,4.6L7.6,28.35L8,28.1z M1.95,74.15c-0.008-0.342-0.025-0.675-0.05-1
		c0.033-1.133,0.067-2.267,0.1-3.4c0,1.133-0.017,2.267-0.05,3.4V74.15z M3.45,93l-0.8,14.75V98.1l0.45-3.8
		c-0.2,0.8-0.35,1.483-0.45,2.05v-4.3l0.25,2.9c0.333-2.467,0.633-6.184,0.9-11.15c0.3-5.1,0.6-8.85,0.9-11.25
		c0.233-3.533,0.883-6.65,1.95-9.35c0.233-0.2,0.6-0.25,1.1-0.15C8.017,63.117,8.4,63.2,8.9,63.3c0.5-0.033,1.033,0.15,1.6,0.55
		c0.6,0.333,1.133,0.55,1.6,0.65c0.4,0.067,0.967,0.067,1.7,0c0.6-0.067,1.567-0.15,2.9-0.25c1.2-0.2,2.15-0.633,2.85-1.3
		c0.3,0.933,0.55,1.95,0.75,3.05c-0.267,2.467-0.7,3.983-1.3,4.55c-0.233,0.233-0.617,0.367-1.15,0.4
		c-0.533,0.033-0.934,0.15-1.2,0.35c-0.2,0.167-0.75,0.85-1.65,2.05c-0.533,0.667-1.117,0.983-1.75,0.95
		c-0.933-0.033-1.867,0.167-2.8,0.6c-0.333,0.2-1.217,0.75-2.65,1.65c-1.167,0.767-1.966,1.8-2.4,3.1
		c-0.167,0.533-0.566,2.5-1.2,5.9L3.75,88.6v-2.1L3.6,90.1l-0.5,4.2L3.45,93z M2.8,129.85c0.467-15.267,0.767-28.033,0.9-38.3
		l0.6-2.95c-0.1,1.066-0.15,3.267-0.15,6.6c0,7.566-0.267,18.65-0.8,33.25c-0.049,0.8-0.099,1.65-0.15,2.55v0.35l-0.4,5.95V129.85z
		 M3.7,268.8L4,283.4l0.2,0.899l-0.05-5.2v-1.149l0.15,6.8l0.3,1.4l0.2,0.6L4.05,286c-0.2-0.134-0.383-0.25-0.55-0.35l-0.75-0.4
		l-0.35-0.1c-0.733-0.967-1.283-1.767-1.65-2.4c-0.5-2.9-0.75-6.184-0.75-9.85c-0.033-2.5,0.083-5.801,0.35-9.9
		c0.533-8.434,0.85-13.417,0.95-14.95c0.3-5.633,0.45-10.633,0.45-15L1.9,200.4L3.3,248c0,7.667,0.117,13.917,0.35,18.75L3.7,268.8z
		 M50.05,190.9L50,195.4c0,10.067-0.017,15.35-0.05,15.85c-0.434,5.967-1.867,9.467-4.3,10.5c0.7-0.267,1.533,0.667,2.5,2.8
		c0.6,1.4,1.184,3.066,1.75,5c0.4,1.467,0.633,3.367,0.7,5.7c0.1,3.866,0.15,5.866,0.15,6l0.05,0.95l0.05,55.2l0.2,0.199l-0.35-0.3
		c-0.233,7.3-0.684,13.884-1.35,19.75c-0.533,4.834-0.8,11.667-0.8,20.5c0,1.934,0.117,7.033,0.35,15.3
		c0,7.534-0.6,11.983-1.8,13.351c-0.167-4.233-0.283-7.4-0.35-9.5c-0.1-3.2-0.133-5.983-0.1-8.351
		c-0.167,3.601-0.683,7.817-1.55,12.65c-0.533,3.033-1.367,7.5-2.5,13.4h-0.1l0.65-13.801c0.267-5.033,0.434-8.866,0.5-11.5
		c0.133-3.633,0.167-8.233,0.1-13.8c-0.067-6.166-0.1-10.783-0.1-13.85l0.05-4.351l-0.05,0.2l-1.1,6.05
		c-0.066-7.466-0.233-13.033-0.5-16.699L42,301.9l0.25,1.149c0.133,0,0.35-1.8,0.65-5.399c0.5-7.101,0.75-13.551,0.75-19.351
		c0.167-6.066,0.167-12.149,0-18.25l-0.25-2.45c-0.1-0.466-0.25-0.649-0.45-0.55c-0.5-1.633-0.833-3.633-1-6
		c-0.1-1.434-0.15-3.649-0.15-6.649c-0.1-4.801-0.133-8.417-0.1-10.851c0.066-4.233,0.466-7.666,1.2-10.3
		c0.667-2.333,1.067-3.8,1.2-4.4c0.267-1.333,0.417-3.017,0.45-5.05c0-4.133,0.117-8,0.35-11.6c0.267-1.9,0.6-3.133,1-3.7
		c0.267-0.367,0.8-0.917,1.6-1.65c0.4-0.5,0.85-1.15,1.35-1.95C49.35,194.167,49.75,192.833,50.05,190.9z M55.3,371.05v-2.6
		l-0.05-0.15l1.65,4.15h1.45c-0.367,0.033-0.633,0.05-0.8,0.05c-0.267,0-0.483-0.017-0.65-0.05c-0.066,0-0.133-0.017-0.2-0.05
		c-0.133-0.067-0.367-0.317-0.7-0.75c-0.3-0.367-0.517-0.567-0.65-0.601H55.3z M37.65,366.75c-0.367-0.434-0.767-0.816-1.2-1.15
		l0.4-4.649c0.233-2.601,0.4-6,0.5-10.2c0.133-5.733,0.217-9.167,0.25-10.3c0.133-2.934,0.45-6.101,0.95-9.5l-0.15,4.55
		c-0.1,2.167-0.15,5.8-0.15,10.9c0,4.8-0.083,8.433-0.25,10.899c-0.1,2.3-0.433,5.217-1,8.75
		C37.233,366.25,37.45,366.483,37.65,366.75z M30.95,318.95c0.3,0.533,0.517,1.133,0.65,1.8c0.104,0.208,0.212,0.425,0.325,0.65
		c-0.123-0.235-0.248-0.469-0.375-0.7C31.417,320.066,31.217,319.483,30.95,318.95z M72.575,228.2l0.024,1.55
		c0.067,2.434,0.067,4.233,0,5.4l-0.05,1.25L72.575,228.2z M44.15,70l0.7-30.2C44.25,51.767,44.017,61.833,44.15,70z M17.2,166.45
		c-1.133,3.9-1.883,8.1-2.25,12.6c-0.267,2.9-0.467,7.383-0.6,13.45c-0.133,5.933-0.35,10.417-0.65,13.45
		c-0.5,5.467-0.75,11.649-0.75,18.55c0,6.6,0.1,16.517,0.3,29.75c0.333,30.733,0.483,49.967,0.45,57.7
		c0.5-11.8,0.867-20.65,1.1-26.55c0.367-10.367,0.534-19.233,0.5-26.601c0-7.066,0.067-12.45,0.2-16.149
		c0.3-7.034,0.533-16.801,0.7-29.301c0.167-13.833,0.35-23.6,0.55-29.3c0.133-8.033,0.35-14.167,0.65-18.4L17.2,166.45z
		 M17.75,162.9c-0.133,0.167-0.25,1.083-0.35,2.75l0.7-3.05L17.75,162.9z M40.75,319.3l-0.1,36.75c0,5.334-0.033,8.75-0.1,10.25
		c-0.1,1.834-0.367,3.783-0.8,5.851c-0.233-0.267-0.483-0.534-0.75-0.801l0.05-0.6l-0.4-2.2c-0.066-0.233-0.167-0.467-0.3-0.7
		c0.233-1.066,0.367-2.083,0.4-3.05c0.067-0.833,0.117-2.333,0.15-4.5c0.033-1.833,0.1-3.3,0.2-4.399
		c0.767-7.9,1.15-18.25,1.15-31.051v-0.05c0.067-0.366,0.2-1.333,0.4-2.899L40.75,319.3z M41,307.65
		c0.133-1.867,0.317-3.45,0.55-4.75l-0.65,8.449C40.9,309.717,40.933,308.483,41,307.65z M75.8,193.3
		c0.033,1.833,0.017,4.55-0.05,8.15v5.5c0.1-0.634,0.283-1.25,0.55-1.851l-0.25-10.149L75.8,193.3z M111.85,134.6l0.2-2.65l0.15-1
		L111.85,134.6z M110.3,138.55v0.2l-0.05-0.05L110.3,138.55z M119.45,179.2v0.1c-0.05,0.275-0.092,0.55-0.125,0.825
		C119.356,179.817,119.398,179.508,119.45,179.2z M98.6,161.3l0.2,13.2c-0.166-3.233-0.25-6.1-0.25-8.6L98.6,161.3z M117.3,225.2
		c0-0.934,0.017-1.983,0.05-3.15v1.15C117.35,223.934,117.333,224.6,117.3,225.2z M112.15,233.4l0.05-0.95l0.2-1.5L112.15,233.4z
		 M62.65,330.4c-0.034,0.866,0.017,1.566,0.149,2.1c0.167-2.233,0.217-5.066,0.15-8.5c-0.134-5.366-0.2-8.217-0.2-8.55v12.899
		C62.75,328.783,62.717,329.467,62.65,330.4z"/>
	<path style="fill-rule:evenodd;clip-rule:evenodd;fill:#9B9286;" d="M104.2,22.15c-0.134,4.7-0.2,9.95-0.2,15.75
		c0,3.5-0.15,6.283-0.45,8.35c-0.366,2.433-1.05,4.667-2.05,6.7c-0.233-0.167-0.417-0.367-0.55-0.6l-0.101-0.1
		c-0.066-0.833-0.05-2.383,0.051-4.65c0-5.033-0.134-8.75-0.4-11.15c-0.333,1.4-0.517,3.533-0.55,6.4
		c-0.033,1.6-0.084,3.833-0.15,6.7l-0.1,1.2c-0.2-0.2-0.367-0.317-0.5-0.35c-0.134-0.1-0.316-0.117-0.55-0.05
		c-0.233,0.133-0.417,0.217-0.551,0.25c-0.1,0.033-0.216,0.033-0.35,0c-0.366-0.1-0.634-0.5-0.8-1.2L97,42.8v-4.85
		c0.833-7.567,1.434-13.25,1.8-17.05l0.351-4.05c0.267,0,0.466,0.033,0.6,0.1c0.267,0.066,0.517,0.167,0.75,0.3l0.2,0.1l1,0.9
		l0.75,1.05l0.1,0.15l0.15,0.3C103.066,20.283,103.566,21.083,104.2,22.15z M95.75,14.55l0.05,0.4v0.85c0,6-0.017,15.017-0.05,27.05
		l-0.15,3c-0.1,2.633-0.149,3.967-0.149,4c-0.934,0.267-1.767,0.167-2.5-0.3c-0.601-0.367-1.4-1.233-2.4-2.6l0.2-1.2
		c0.233-1.067,0.384-2.5,0.45-4.3L91.25,7.9l-1.8,32.15L89.2,35.1l0.149,6.35l-0.699,4.4L87.9,50.2l0.1-2.9
		c0.134-5.066,0.15-11.55,0.05-19.45C87.95,16.617,87.9,10.133,87.9,8.4h0.3l0.5-0.1c0.066,0,0.2-0.05,0.399-0.15L89.4,8h0.1
		c0.167,0.067,0.267,0.183,0.3,0.35C90.2,8.217,90.733,7.9,91.4,7.4c0.633-0.5,1.149-0.816,1.55-0.95l0.2,0.1L93.6,6.9
		c0.467,0.467,0.917,1.434,1.351,2.9c0.399,1.3,0.649,2.4,0.75,3.3L95.75,14.55z M106,23.65c0.4,0.067,0.7,0.083,0.9,0.05
		c-0.134,8.2-0.267,14.4-0.4,18.6c-0.366-1.167-0.566-4.267-0.6-9.3C105.967,27.733,106,24.617,106,23.65z M81.75,119.55
		c-0.233-5.233-0.533-9.617-0.9-13.15l-0.199-2.25c-0.267-0.467-0.483-0.733-0.65-0.8c-0.267-0.133-0.483-0.133-0.65,0
		c-0.199,0.233-0.383,0.383-0.55,0.45l-0.25,0.1c-0.267,0.067-0.467,0.033-0.6-0.1c-0.2-0.233-0.367-0.367-0.5-0.4
		c-0.334-0.133-0.767-0.217-1.3-0.25c-0.634-0.066-1.067-0.117-1.301-0.15l-0.25-0.1v-6.8l0.4-0.4c0.2-0.167,0.417-0.2,0.65-0.1
		c0.6,0.2,0.966,0.316,1.1,0.35c0.434,0.1,0.934,0.066,1.5-0.1c0.7-0.167,1.184-0.467,1.45-0.9c0.3-0.567,0.483-1.333,0.55-2.3
		c0-0.333,0-0.667,0-1V86.5c-0.033-4.067,0-9.8,0.1-17.2c0.101-7.966,0.15-13.7,0.15-17.2v-0.15l0.05-0.55
		c-0.066-11.767-0.083-20.583-0.05-26.45c-0.233-3.167-0.134-6.2,0.3-9.1L80.9,8.5C81.5,8.1,81.967,8,82.3,8.2
		c0.2,7.267,0.351,14.517,0.45,21.75l0.1,6.45l-0.149,1l0.35-1.9c0.066,0.8,0.117,1.967,0.15,3.5c0.066,1.367,0.184,2.533,0.35,3.5
		c0.533,2.6,1.117,4.433,1.75,5.5c0.533,0.833,1.017,1.1,1.45,0.8c0.233-0.2,0.65-0.7,1.25-1.5l-0.5,6.25
		c-0.134,2.233-0.2,4.733-0.2,7.5c-1.267-0.367-2.184-1.883-2.75-4.55c-0.434-2.233-0.916-3.65-1.45-4.25l0.051,6.15
		c0.133,12.867,0.199,22.517,0.199,28.95v9c0.267,0.467,0.551,0.783,0.851,0.95c0.267,0.1,0.649,0.15,1.149,0.15h0.601
		c0.833,0,1.899-0.15,3.2-0.45l0.449-0.15c0.567-0.267,1.067-0.833,1.5-1.7c0.334-0.633,0.684-1.6,1.051-2.9L92.1,80.55
		c0.134-4.267,0.217-7.65,0.25-10.15c0-4.6-0.316-7.9-0.949-9.9l-0.051-0.3l-0.25-0.6c-0.666,0.7-1.233,1.117-1.699,1.25l-0.601,0.2
		c-0.066,1.133-0.116,2.767-0.149,4.9c-0.134,1.9-0.2,5.45-0.2,10.65v1.05c0.033,0.833,0.066,2.15,0.1,3.95
		c0,1.5-0.1,2.683-0.3,3.55L87.9,81.2v-0.5c-0.067-7.367,0.149-13.9,0.649-19.6c0.233-2.767,0.5-5.25,0.8-7.45l0.25-1.8l0.25-0.2
		c1-0.8,2.15-0.95,3.45-0.45l0.25,0.1c0.334,0.133,0.884,0.55,1.65,1.25c0.733,0.6,1.3,0.967,1.7,1.1h0.149
		c0.367,0.067,0.917,0.067,1.65,0L99.1,53.7h0.351l0.05,1.05l0.55,0.15c1.033,0.3,2.217,0.4,3.55,0.3
		c0.567,0.167,1.101,0.25,1.601,0.25c1.1-0.034,2.55,0.167,4.35,0.6c0.767,0.167,1.667,0.717,2.7,1.65
		c1.566,1.4,2.417,2.15,2.55,2.25l-2.05,0.95c-0.467-0.8-1.65-1.233-3.55-1.3c-2.101,0.066-3.5,0.1-4.2,0.1
		c-0.934,0-2.3-0.167-4.1-0.5l-3.351-0.65c0.267,0.5,0.667,0.917,1.2,1.25c0.333,0.2,0.566,0.817,0.7,1.85
		c0.166,1.033,0.149,2.8-0.05,5.3c-0.767-0.1-1.284,1.267-1.551,4.1c-0.233,2.5-0.216,4.45,0.051,5.85c0.033,0,0.3-0.316,0.8-0.95
		c0.333-0.367,0.616-0.467,0.85-0.3l0.25,0.3c0.5,0.833,0.834,2.25,1,4.25c0.3,2.6,0.334,5.917,0.101,9.95l-0.25,2.1l-0.101-2.15
		c-0.267-1.3-0.434-2.317-0.5-3.05c-0.066-2.267-0.116-3.917-0.149-4.95c0-2.567-0.034-4.417-0.101-5.55
		C99.2,78.25,98.9,81,98.9,84.8c0,1.1,0.083,2.983,0.25,5.65c0.133,2.433,0.066,4.267-0.2,5.5c-0.167,0.633-0.316,1.066-0.45,1.3
		c-0.533,1-1.217,0.3-2.05-2.1c-0.4-1.1-0.767-2.417-1.101-3.95l-0.05-0.15L94.35,85c-0.133-1.1-0.25-1.95-0.35-2.55
		c-0.167-1.1-0.35-1.833-0.55-2.2c-0.101,3.133-0.167,4.95-0.2,5.45c-0.066,0.833-0.2,2.05-0.4,3.65L92.7,100.5
		c0,0.033,0.05,3.25,0.149,9.65c0.067,1.667,0.25,4.067,0.551,7.2c0.033,0.566,0.066,1.5,0.1,2.8c0.033-5.333,0.017-8.867-0.05-10.6
		c-0.134-2.8-0.2-5.933-0.2-9.4c0-2,0.2-5.333,0.6-10c0.134,0.3,0.434,1.35,0.9,3.15l-0.1,1.05v5c-0.101,5.5-0.15,13.167-0.15,23
		c0,11.7-0.017,19.517-0.05,23.45c-0.033,1.367-0.017,3.684,0.05,6.95c0,2.033-0.033,3.5-0.1,4.4l-0.101,1.4
		c-0.267-0.167-0.399-3.367-0.399-9.6c0.033-6.467,0.033-9.983,0-10.55c-0.134-5.533-0.267-9.75-0.4-12.65L93,117.4
		c-0.333-5.1-0.583-11.566-0.75-19.4l-0.05,0.1c-0.167,0.2-0.417,0.267-0.75,0.2c-0.434-0.1-0.717-0.133-0.851-0.1
		c-0.233,0.033-0.466,0.267-0.699,0.7c-0.233,0.5-0.351,1.067-0.351,1.7c0,0.333,0,0.933,0,1.8c0,0.533,0.017,1.667,0.05,3.4
		c-0.033,1.467-0.333,2.133-0.899,2c-0.2-0.033-0.367-0.417-0.5-1.15c-0.167-0.8-0.3-1.25-0.4-1.35
		c-0.166-0.2-0.316-0.316-0.45-0.35c-0.333-0.1-0.517-0.167-0.55-0.2c-0.166-0.1-0.35-0.083-0.55,0.05c-0.2,0.1-0.4,0.034-0.6-0.2
		c-0.134-0.133-0.334-0.717-0.601-1.75c-0.233-0.867-0.517-1.3-0.85-1.3c-0.334,0-0.617,0.383-0.851,1.15V139
		c0,0.767,0.051,2.417,0.15,4.95c0.033,2.333-0.066,3.95-0.3,4.85c-0.334-3.833-0.617-8.7-0.851-14.6
		C81.983,125.233,81.783,120.35,81.75,119.55z M88.3,13.35v6.35c0,2.367,0.101,4.6,0.3,6.7L88.3,13.35z M114.5,26.45
		c-0.033,1.066-0.05,2.65-0.05,4.75c0,2.133-0.033,3.716-0.101,4.75c-0.033,0.767-0.05,2.55-0.05,5.35
		c-0.066,2.6-0.3,4.184-0.7,4.75c-0.166-0.3-0.333-0.367-0.5-0.2c-0.066,0.333-0.183,1.467-0.35,3.4
		c-0.167,1.667-0.35,2.85-0.55,3.55V24.25l1.5,1.35l0.1,0.15l0.3,0.25L114.5,26.45z M115.55,30.25l0.05,1.05
		c-0.033,1.133,0.017,2.767,0.15,4.9l0.2-0.9l0.25,6.05l-0.95,3.4c0.2-4.933,0.3-8.617,0.3-11.05l-0.05-4.3L115.55,30.25z
		 M117.55,67.75l0.15,2.05v0.05c-0.033,0.233-0.066,0.483-0.101,0.75c-0.399,2.733-0.716,4.467-0.949,5.2
		c-0.267,0.8-0.551,1.333-0.851,1.6c-0.166,0.133-0.483,0.25-0.95,0.35c0.634-1.567,1.134-3.067,1.5-4.5
		c0.334-1.433,0.65-3.333,0.95-5.7l0.101-1.15L117.55,67.75z M82.05,51.7c-0.2,2.2-0.316,3.867-0.35,5
		c-0.233,5.5-0.283,13.833-0.15,25l0.8,47.75c0.2-3.167,0.284-7.067,0.25-11.7c-0.066-5.233-0.1-9.15-0.1-11.75v-1.15
		c0-0.067,0.05-3.5,0.15-10.3l0.05-5.85c0.066-12.233,0.066-24.483,0-36.75V43C82.634,44.867,82.417,47.767,82.05,51.7z
		 M95.15,94.95c0.399,1.167,0.683,2.683,0.85,4.55c0.1,1.133,0.2,2.85,0.3,5.15c0.167-0.3,0.3-0.633,0.4-1
		c0.166-0.566,0.283-0.983,0.35-1.25c0.134-0.467,0.283-0.816,0.45-1.05c0.3-0.434,0.634-0.65,1-0.65l1.55,0.4H100
		c-0.3,1.533-0.4,3.167-0.3,4.9c-0.066,6.833,0.033,12.283,0.3,16.35c0.233-0.667,0.35-1.717,0.35-3.15c0-1.633,0-2.75,0-3.35
		c0.067-3.267,0.367-8.067,0.9-14.4l1.95,0.9c0.066,0.033,0.233,0.083,0.5,0.15c0.2,0.033,0.35,0.1,0.45,0.2
		c0.199,0.133,0.449,0.466,0.75,1c0.333,0.566,0.583,0.9,0.75,1l0.199,0.1c-0.233,1.7-0.35,4.417-0.35,8.15
		c0.033,3.7-0.083,6.433-0.35,8.2c-0.2,1.4-0.601,3.45-1.2,6.15c-0.4,2.4-0.5,4.583-0.3,6.55l0.25,1.7
		c-0.801,0.167-1.534,0.184-2.2,0.05c-0.033-0.567-0.05-0.934-0.05-1.1c-0.101-0.067-0.267-0.1-0.5-0.1c0-0.066,0.05-0.1,0.149-0.1
		c-0.133-1.267-0.416-3.133-0.85-5.6c-0.4-2.467-0.684-4.35-0.851-5.65c-0.267-2.2-0.433-4.733-0.5-7.6v5.8
		c0,0.467,0.017,1.333,0.051,2.6c0.033,1.133,0,1.95-0.101,2.45c-0.066,0.333-0.166,0.667-0.3,1c-0.134,0.233-0.217,0.6-0.25,1.1
		v2.3c0.066,0.633,0.066,1.25,0,1.85c0,0.333-0.066,0.833-0.2,1.5c-0.267-0.8-0.467-1.9-0.6-3.3c-0.134-1.633-0.233-2.85-0.3-3.65
		l-0.051-0.4c-0.066-0.8-0.3-2.434-0.699-4.9c-0.334-2.033-0.534-3.7-0.601-5c0.033,3.067,0.101,7.667,0.2,13.8v4.2
		c0.066,1.934,0.3,4.833,0.7,8.7c0.366,3.867,0.583,6.767,0.649,8.7c0.233-0.8,0.384-1.75,0.45-2.85
		c0.033-3.133,0.084-5.317,0.15-6.55c0.033-2.8,0.133-4.45,0.3-4.95l0.05-0.1c0.267-0.567,0.767-0.633,1.5-0.2
		c0.667,0.4,1.101,0.917,1.3,1.55c0.233,0.8,0.367,2.083,0.4,3.85c0.066,1.5,0.05,2.867-0.05,4.1c0,0.3-0.05,0.784-0.15,1.45
		c-0.066,0.6-0.017,1.067,0.15,1.4c0.267,0.667,0.517,0.817,0.75,0.45c0.066,2.233,0.434,9.033,1.1,20.4
		c0.733,13.267,1.417,22.633,2.05,28.1c0.134-1.967,0.2-4.4,0.2-7.3c-0.066-3.3-0.116-5.75-0.149-7.35c0-5.167,0.033-9.05,0.1-11.65
		c-0.066-4.6,0-7.566,0.2-8.9c0.233-1.5,0.733-2.917,1.5-4.25c0.666-1.167,1.434-2.117,2.3-2.85c1.4-1.2,2.217-0.183,2.45,3.05
		c0.133,1.8,0.116,4.617-0.05,8.45c0.066,5.867,0.066,9.517,0,10.95c-0.534-0.033-0.9,0.25-1.101,0.85c-0.1,0.333-0.2,1.15-0.3,2.45
		c-0.366,5.667-0.15,10.55,0.65,14.65c0.399-0.534,0.783-2.517,1.149-5.95c0.3-3.733,0.517-6.017,0.65-6.85
		c0.833-5.433,1.25-10.8,1.25-16.1c0.066-2.9,0.1-5.1,0.1-6.6c0-2.633-0.116-4.8-0.35-6.5c-0.267-1.9-0.601-2.817-1-2.75
		c-0.634,0.5-1.25,0.75-1.851,0.75c-0.366,0-0.616-0.034-0.75-0.1c-0.233-0.1-0.433-0.35-0.6-0.75l-0.35-2.7
		c-0.067-0.4-0.084-1.316-0.051-2.75c0-1.566-0.017-2.583-0.05-3.05c0.167,0.1,0.3,0.083,0.4-0.05c0.1-0.066,0.267-0.233,0.5-0.5
		l0.3-0.25l0.35,3.1l0.2-3.35c0.967-0.3,1.717-0.033,2.25,0.8c0.5,0.8,0.717,2.133,0.65,4c-0.134,1.933-0.033,3.233,0.3,3.9
		c0.233-0.1,0.45-0.9,0.65-2.4c0.199-1.333,0.517-1.833,0.949-1.5c0.233,0.2,0.367,1.066,0.4,2.6c0,1.9,0.033,3.017,0.1,3.35
		c0.167,1,0.417,2.017,0.75,3.05l0.551,4.1l-0.101,8.95c-0.066,2.8-0.283,6.184-0.649,10.15c-0.2,2.2-0.517,5.534-0.95,10
		c-0.066,0.934-0.25,2.233-0.55,3.9c-0.301,1.667-0.5,2.95-0.601,3.85c-0.1,0.833-0.133,2.083-0.1,3.75c-0.2,1.9-0.533,3.584-1,5.05
		l-0.601-0.449c-0.8-0.367-1.416-0.601-1.85-0.7c-0.767-0.167-1.366,0.033-1.8,0.6c-0.733,0.867-1.2,1.384-1.4,1.55
		c-0.533,0.434-0.934,0.65-1.2,0.65v-2.65c-0.3,0.434-0.6,1.2-0.899,2.301l-0.7-0.7c-0.434-0.334-0.767-0.634-1-0.9
		c-0.267-0.3-0.616-0.95-1.05-1.95c-0.434-0.966-0.783-1.583-1.05-1.85c-0.301-0.3-0.717-0.417-1.25-0.35
		c-0.601,0.133-1.034,0.199-1.301,0.199l0.75,1.601c0.034,0.066,0.334,0.633,0.9,1.7c0.4,0.767,0.65,1.416,0.75,1.949
		c0.066,0.467,0.1,1.117,0.1,1.95c0,0.434-0.017,1.066-0.05,1.9v5.95c0.101,3.366,0.15,6.75,0.15,10.149
		c0.033-0.967,0.149-2.684,0.35-5.149c0.167-2.2,0.25-3.95,0.25-5.25c-0.133-2.601-0.149-4.384-0.05-5.351
		c0.134-1.033,0.434-1.75,0.9-2.149c0.466-0.334,0.933-0.317,1.399,0.05c0.134,0.1,0.283,0.283,0.45,0.55
		c-0.634,4.634-0.5,10.9,0.4,18.8c0.433,3.601,0.666,6.967,0.699,10.101c0,1.3-0.066,3.517-0.199,6.649
		c-0.134,2.9-0.167,5.117-0.101,6.65c-0.133,0.033-0.25,0.133-0.35,0.3c-0.134,0.167-0.3,0.6-0.5,1.3s-0.384,1.167-0.55,1.4
		c-0.601,0.934-0.917,1.45-0.95,1.55l-0.101-1.2c-0.399,4.367-0.833,8.15-1.3,11.351c-0.434-1.534-0.483-3.267-0.149-5.2
		c0-5.566-0.101-11.134-0.301-16.7l-0.05-14.35c0-7.2-0.149-11.95-0.45-14.25c-0.033-0.233-0.149-0.667-0.35-1.301
		c-0.2-0.633-0.316-1.166-0.35-1.6c-0.067-0.533-0.084-1.316-0.051-2.35c0.067-1.167,0.084-1.967,0.051-2.4
		c-0.067-1.467-0.184-2.483-0.351-3.05c-0.2-0.667-0.583-1.2-1.149-1.601l-0.15-5.6c0.066-3.233,0-7.183-0.2-11.85l-0.2-4.5
		l0.4,16.35c-0.033,2.134-0.134,4.25-0.3,6.35c-0.267-0.933-0.4-2.35-0.4-4.25c0.066-2.1,0.084-3.6,0.05-4.5
		c-0.5-10.333-1.017-17.95-1.55-22.85c-0.566-4.967-0.883-11.2-0.95-18.7c0-8.5-0.033-14.816-0.1-18.95
		c-0.066-5.067-0.267-11.934-0.6-20.6C95.25,104.683,95,97.8,94.9,94.1L95.15,94.95z M106.85,100.6
		c-0.666-0.1-1.399-0.317-2.199-0.65c0.199-1.2,0.433-3.167,0.699-5.9c0.233-2.533,0.467-4.45,0.7-5.75
		c0.167,1.733,0.316,4.367,0.45,7.9c0.033,0.367,0.05,1.1,0.05,2.2C106.616,99.467,106.717,100.2,106.85,100.6z M109.15,100.9
		l-0.851-0.2l0.2-0.75C108.733,100.083,108.95,100.4,109.15,100.9z M113.55,82.05c0,4.1-0.1,7.467-0.3,10.1l0.1-2.2
		c0.034-0.833,0.051-2.233,0.051-4.2C113.4,84.117,113.45,82.883,113.55,82.05z M113.9,80.15c-0.034,2.967-0.017,7.417,0.05,13.35
		c0,0.933-0.017,2.483-0.05,4.65c0.033,1.934,0.233,3.383,0.6,4.35c0.267,0.7,0.9,1.333,1.9,1.9c0.6,0.3,1.533,0.75,2.8,1.35h0.05
		l0.05,1.75c-0.033-0.033-0.066-0.05-0.1-0.05c-1.334-0.867-2.217-1.45-2.65-1.75c-1.1-0.833-1.684-1.284-1.75-1.35
		c-0.633-0.667-1.017-1.583-1.149-2.75c-0.134-1.133-0.184-2.684-0.15-4.65c0.066-2.167,0.1-3.733,0.1-4.7v-10.3
		C113.667,81.35,113.767,80.75,113.9,80.15z M69.15,15.15c-0.067-2.6-0.084-4.55-0.051-5.85h2c0,0.067,0,0.133,0,0.2l0.051,3.675
		c-0.03,8.745,0.003,17.52,0.1,26.325C69.917,24.133,69.217,16.017,69.15,15.15z M64.75,59.85V59.1
		c0.233-4.633,0.434-8.117,0.6-10.45c0.434-0.4,0.967-0.183,1.601,0.65c0.2,0.233,0.467,0.684,0.8,1.35
		c0.267,0.533,0.55,0.917,0.85,1.15c0.167,0.133,0.4,0.25,0.7,0.35c0.334,0.133,0.584,0.184,0.75,0.15c0.334,0,0.8-0.216,1.4-0.65
		c0.633-0.467,1.05-0.95,1.25-1.45c0.133-0.367,0.233-1.167,0.3-2.4l0.05-0.1v-0.65l0.4-7.45l0.35,7.7c0.3,1.9,0.55,3.034,0.75,3.4
		c0.233,0.466,0.517,0.733,0.851,0.8l0.899,0.2l0.05,0.05c0.101,0.067,0.384,0.317,0.851,0.75c0.366,0.333,0.633,0.517,0.8,0.55
		c0.4,0.1,0.95-0.05,1.65-0.45l-1.801,1.25l-0.5,0.35c-0.466,0.4-0.816,0.667-1.05,0.8c-0.267,0.167-0.5,0.267-0.7,0.3
		c-0.3,0.1-0.633,0.1-1,0l-0.55-0.15c0.3,11.467,0.45,22.967,0.45,34.5l-1.05,33c0.133,3.333-0.033,8.483-0.5,15.45l-0.05,11
		c0,8.2,0.183,15.117,0.55,20.75c0.2,3.433,0.283,8.566,0.25,15.4c0.066,3.6,0.1,5.933,0.1,7c0,2.467-0.116,4.75-0.35,6.85
		c-0.233,1.933-0.483,5.383-0.75,10.35c-0.267,3.467-0.384,5.934-0.351,7.399c0.101,2.267,0.15,4.5,0.15,6.7l0.075,4.65l-0.025,8.2
		c-0.066,0.733-0.267,1.533-0.6,2.399c-0.733,1.566-1.117,2.4-1.15,2.5c-0.3,0.934-0.434,2.267-0.399,4
		c0.033,0.967,0.133,2.367,0.3,4.2c0.2,3.634,0.3,9.066,0.3,16.3l-0.1,13.55c-0.334,3.134-0.634,6.434-0.9,9.9v7.15l-0.3-2.9
		l-0.05,0.7l0.35,2.55v2.4c0,4.333,0.15,10,0.45,17c0.333,8.6,0.533,14.216,0.6,16.85l0.101,0.4c0.1,0.566,0.3,2,0.6,4.3
		c-1.066,0.5-2.233,0.883-3.5,1.149L68.1,338.9l-1.05,0.25c-0.399,0.066-1.033,0.1-1.899,0.1l-1.101,2.15
		c0.134,5.466,0.05,9.699-0.25,12.699c-0.333,3.101-0.883,6.884-1.649,11.351c-0.067,0.533-0.184,1.45-0.351,2.75
		c-0.166,1.2-0.366,2.1-0.6,2.7c-0.334,0.767-0.7,1.233-1.101,1.399c-0.233,0.101-0.816,0.15-1.75,0.15H56.9l-1.65-4.15v2.75
		c-0.867-0.1-1.4,0.5-1.6,1.8c-0.1,0.467-0.15,1.517-0.15,3.15c0,6.434-0.133,11.267-0.4,14.5c-0.1,0.934-0.217,2.217-0.35,3.85
		c-0.167,1.434-0.35,2.717-0.55,3.851l-0.1,0.6l-3.45,0.4h-0.825c-0.8-0.017-1.575-0.101-2.325-0.25l0.2-0.55
		c0.333-0.634,0.966-1,1.9-1.101c0.867-0.066,1.417-0.533,1.65-1.399c0.2-0.733,0.267-1.801,0.2-3.2
		c-0.133-1.533-0.2-2.617-0.2-3.25v-7.55c0-1.801-0.1-2.917-0.3-3.351c-0.367-0.666-1.284-1.217-2.75-1.649
		c-0.534-0.134-1.684-0.284-3.45-0.45H42.7c-0.2-0.3-0.434-0.584-0.7-0.851c-0.333-0.3-0.717-0.583-1.15-0.85l-0.05-0.2h0.05
		l1.65-0.149h0.1c1.033,0,1.75-0.034,2.15-0.101c2.433-0.333,3.9-1.6,4.4-3.8c0.067-0.267,0.067-0.783,0-1.55
		c-0.066-0.7-0.05-1.184,0.05-1.45c0.233-0.5,0.55-0.783,0.95-0.85c0.467-0.034,0.8-0.184,1-0.45c0.333-0.4,0.45-1.4,0.35-3
		c-0.167-1.767-0.25-2.867-0.25-3.3c0-2.834,0.35-5.9,1.05-9.2c0.3-1.434,0.733-3.167,1.3-5.2c0.267-0.934,0.483-2.1,0.65-3.5
		c0.167-1.566,0.3-2.75,0.4-3.55c0.3-2.267,0.483-5.017,0.55-8.25c0-0.467,0.017-0.917,0.05-1.351v35.601
		c2.067,0,3.383-0.033,3.95-0.101c0.366-4.333,0.75-7.616,1.149-9.85c0.867-4.267,1.334-7.517,1.4-9.75
		c0.033-1.566,0.184-3.55,0.45-5.95c0.3-3.267,0.483-5.25,0.55-5.95l0.05-0.35c0.233,0.967,0.717,1.65,1.45,2.05
		c1.3,0.733,2.333,0.851,3.1,0.351c-0.199-10.567-0.3-15.884-0.3-15.95l0.101,0.55l0.05,0.05c0.066,0.233,0.133,0.384,0.2,0.45
		c0.3-0.7,0.449-1.85,0.449-3.45c-0.066-1.8-0.083-3.083-0.05-3.85l0.3-3.3c-0.433-2.767-0.75-5.767-0.949-9
		c-0.067-1.7,0.017-3.834,0.25-6.4c0.267-2.833,0.433-4.95,0.5-6.35c0.267-4.2,0.316-12.917,0.149-26.15
		c-0.1-10.866,0.3-19.467,1.2-25.8c0.634-4.434,0.967-10.2,1-17.3c-0.1-8-0.134-13.834-0.1-17.5
		c0.133-11.101,0.199-27.734,0.199-49.9c-0.033-7.833-0.033-12.667,0-14.5c0.067-5.433,0.301-10.217,0.7-14.35l1-9.15
		c0.233-3.133,0.351-6.517,0.351-10.15c-0.267,0.367-0.601,1.033-1,2c-0.434,1.133-0.733,1.85-0.9,2.15l-0.15,0.3
		c-2,3.5-3.3,5.067-3.899,4.7c-0.233-0.133-0.434-0.55-0.601-1.25c0-0.067-0.1-0.633-0.3-1.7c-0.1-1.066-0.2-1.833-0.3-2.3
		c-0.134-0.767-0.45-1.3-0.95-1.6c-0.5-0.267-0.883-0.217-1.149,0.15l-2.4,49.45l0.1-18.3l0.15-11.8c0.167-7.2,0.4-12.933,0.7-17.2
		c0.467-6.633,1.184-12.2,2.149-16.7l-0.25,5.3L63.7,95.9c0.399-0.4,0.717-0.066,0.95,1c0.1,0.6,0.233,1.467,0.399,2.6
		c0.233,0.9,0.55,1.5,0.95,1.8c0.634,0.5,1.033,0.883,1.2,1.15c0.267,0.433,0.566,1.216,0.899,2.35c0.367,0.867,0.834,1.1,1.4,0.7
		c0.6-0.4,1.116-1.5,1.55-3.3c0.467-2.034,0.884-3.3,1.25-3.8c-0.467-9.4-0.733-16.417-0.8-21.05l0.85-16.5l0.301-6.15
		c-0.733-0.167-1.45-0.067-2.15,0.3c-0.267,0.167-0.717,0.233-1.35,0.2c-0.634-0.034-1.084,0.017-1.351,0.15
		c-0.233,0.133-0.55,0.5-0.95,1.1c-0.466,0.667-0.783,1.083-0.949,1.25C65.434,58.233,65.05,58.95,64.75,59.85z M64.65,60.2
		l0.1-0.35l0.45,6.05c0.1,1.2,0.217,2.983,0.35,5.35c0.134,2.067,0.334,3.8,0.601,5.2c-0.667-1.367-1.4-3.534-2.2-6.5
		c-1.101-4.1-1.75-6.434-1.95-7c-0.533-1.6-0.884-3.667-1.05-6.2c-0.101-3-0.2-5.267-0.3-6.8c-0.067-2.1-0.134-3.633-0.2-4.6
		c-0.066-1.7-0.2-3.2-0.4-4.5c-0.666-3.167-1.083-5.483-1.25-6.95c-0.1-1.167-0.117-3.033-0.05-5.6c0.1-2.5,0.083-4.367-0.05-5.6
		l-0.55-4.75c0-0.133-0.2-2.867-0.6-8.2c1.067-0.4,1.834-0.65,2.3-0.75c0.601-0.1,1.434-0.167,2.5-0.2h0.101l0.2,6.9l0.25,17.6
		c-0.2-4.233-0.45-8.566-0.75-13v3.4c0.133,3.767,0.083,5.933-0.15,6.5c-0.167,0.466-0.384,0.683-0.65,0.65
		c-0.366-0.133-0.666-0.25-0.899-0.35c-0.033,0.7,0.033,2.583,0.2,5.65c1.1-0.566,1.767,1.05,2,4.85
		c0.166,2.633,0.133,5.317-0.101,8.05c-0.166,1.767-0.116,3.817,0.15,6.15c0.166,1.3,0.416,3.333,0.75,6.1
		c0.033,0.467,0.066,1.55,0.1,3.25c0.101,1.5,0.267,2.417,0.5,2.75c0.167-0.7,0.3-1.883,0.4-3.55c0.1-1.733,0.166-2.833,0.2-3.3
		V60.2z M44.8,26.65L44.6,39.2c-0.033,1.7-0.217,4.183-0.55,7.45c-0.3,3.233-0.483,5.684-0.55,7.35
		c-0.133,4.667-0.167,10.25-0.1,16.75c0.067,3.733,0.184,9.35,0.35,16.85l-0.2,32c-0.233,1.3-0.55,1.983-0.95,2.05
		c-0.367,0.033-0.65-0.45-0.85-1.45c0.1-0.167,0.283-0.317,0.55-0.45c0.2-0.133,0.333-0.283,0.4-0.45c0.167-0.5,0.267-1.1,0.3-1.8
		c-0.033-0.833-0.05-1.5-0.05-2c0.066-13.1,0.066-22.933,0-29.5c-0.034-2.667-0.184-5.917-0.45-9.75
		c-0.333-4.233-0.567-7.45-0.7-9.65c-0.5-8.167-0.333-18.05,0.5-29.65c0.4-4.767,0.684-8.367,0.85-10.8
		c0.333-4.267,0.45-7.9,0.35-10.9l0.15-8c0.033,0,0.517,0.05,1.45,0.15L44.8,26.65z M37.6,2.45V2.5c0.1,0.267,0.167,0.75,0.2,1.45
		c0.034,0.667,0.117,1.1,0.25,1.3c0.3,0.5,0.65,0.8,1.05,0.9c0.233,0.067,0.65,0.15,1.25,0.25c0.467,0.2,0.917,0.35,1.35,0.45
		l0.95,0.25l0.05,19.8l-0.45-14l0.05,5.95c0,4.867-0.083,8.45-0.25,10.75c-0.2-0.9-0.517-2.983-0.95-6.25
		c-0.333-2.467-0.8-4.417-1.4-5.85c-0.467-0.8-0.817-1.617-1.05-2.45c-0.133-0.466-0.367-1.5-0.7-3.1
		c-0.233-1.3-0.517-2.35-0.85-3.15c-0.934-2.3-1.684-4.85-2.25-7.65c0.1,0.233,0.25,0.417,0.45,0.55h0.05l0.15,0.2l0.3,0.15
		l1.05,0.35l0.5,0.05H37.6z M31.1,0.15l0.4,0.1l0.15,0.05L31.6,36.6c-0.1-3.567-0.2-8-0.3-13.3c-0.167-8.933-0.233-16.066-0.2-21.4
		V0.15z M38.55,330.95c-0.5,3.399-0.816,6.566-0.95,9.5c-0.033,1.133-0.117,4.566-0.25,10.3c-0.1,4.2-0.267,7.6-0.5,10.2l-0.4,4.649
		c-0.167-0.133-0.333-0.25-0.5-0.35c-0.567-2.866-0.867-5.25-0.9-7.15c0-1.267-0.333-2.416-1-3.449
		c0.467-6.767,0.717-10.917,0.75-12.45c0.167-4.733,0.017-8.884-0.45-12.45c-0.333-2.5-0.917-4.783-1.75-6.85l-0.45-1.101
		l-0.225-0.399c-0.112-0.226-0.221-0.442-0.325-0.65c-0.133-0.667-0.35-1.267-0.65-1.8l-1.1-1.45c-0.133-0.134-0.283-0.267-0.45-0.4
		l-0.025-0.024L29.3,317c-0.033-3.167-0.033-6.35,0-9.55l0.3-6.05c0.033-0.733,0.083-1.5,0.15-2.301
		c0.033-0.166,0.05-0.333,0.05-0.5l-0.1,0.7c0.066-2.666,0.283-7.616,0.65-14.85c0.333-6.233,0.483-11.2,0.45-14.9
		C30.733,259.517,30.717,252,30.75,247c0.033-3.1,0.283-7.35,0.75-12.75c0.5-6.033,0.8-10.283,0.9-12.75
		c0.1-2.934-0.033-6.85-0.4-11.75c-0.433-5.434-0.65-9.316-0.65-11.65c0-4.934,0.233-10.75,0.7-17.45l0.2-3.3L32.7,170
		c0.466-6.733,0.8-11.8,1-15.2c0.4-5.966,0.633-11.033,0.7-15.2c0-1.467,0.017-2.633,0.05-3.5c0-1.567,0.1-2.684,0.3-3.35l0.1,15.25
		l0.2-15.8c-0.066-0.833-0.517-3.017-1.35-6.55c-0.633-2.633-0.833-4.967-0.6-7c0.3,1.867,0.65,4.583,1.05,8.15
		c0.5,2.8,1.367,4.617,2.6,5.45c1.3,0.867,2.383,0.817,3.25-0.15c-0.067,0.133-0.417,0.75-1.05,1.85
		c-0.467,0.767-0.733,1.417-0.8,1.95c0.4,0.233,0.833,0.333,1.3,0.3c0.566,0,0.983-0.167,1.25-0.5
		c0.367-0.434,0.683-1.217,0.95-2.35c0.2-1.3,0.35-2.7,0.45-4.2c-0.067,2.467-0.117,3.934-0.15,4.4
		c-0.133,1.5-0.383,2.883-0.75,4.15c-0.6,1.833-1.45,3.533-2.55,5.1c-1.033,1.5-1.816,2.95-2.35,4.35
		c-0.566,1.5-1.05,3.467-1.45,5.9l0.5,32.05c-0.067,5.333,0.017,8.983,0.25,10.95c0.033,5.533,0.15,13.867,0.35,25
		c0.066,3.267-0.05,7.134-0.35,11.601c-0.167,2.533-0.417,6.416-0.75,11.649c-0.167,3.634-0.25,8.15-0.25,13.55
		c0.033,3.034,0.05,7.551,0.05,13.551c0,4.899,0.133,9.466,0.4,13.699c0.2,3.301,0.5,8.301,0.9,15c0.133,0.9,0.517,3.417,1.15,7.551
		c0.5,3.1,0.833,5.683,1,7.75c0.1,1.466,0.15,2.949,0.15,4.449c0.367,2.801,0.683,5.95,0.95,9.45c-0.233,0.601-0.45,1-0.65,1.2
		V330.95z M41.7,120.3c0.1,1.867,0.15,2.983,0.15,3.35c0,1.233-0.117,2.317-0.35,3.25l-0.05,0.35c-0.067-1.633-0.117-2.833-0.15-3.6
		c-0.033-1.367,0.067-2.4,0.3-3.1L41.7,120.3z M20.95,67.35l-0.025-2.75l-0.025,2l-0.3-3.85l0.3,8.45
		c-0.033-0.4-0.066-0.784-0.1-1.15c0.034,0.467,0.067,0.967,0.1,1.5V71.2v-4.6L20.95,67.35z M22.05,114.15
		c-0.3-1.433-0.533-3.467-0.7-6.1c-0.2-3.4-0.35-5.5-0.45-6.3c-0.133-1.233-0.217-3.067-0.25-5.5c-0.066-2.467-0.167-4.317-0.3-5.55
		c-0.233-2.633-0.45-4.784-0.65-6.45c-0.367-3.1-0.817-4.95-1.35-5.55l-0.1-0.05c-0.167-0.066-0.45-0.066-0.85,0
		c-0.5,0.067-0.767,0.1-0.8,0.1c-0.867-0.233-1.517-0.3-1.95-0.2c-1.066,0.2-2.55,0.667-4.45,1.4c-1.8,0.633-3.35,2.283-4.65,4.95
		c-0.5,0.967-0.917,2.2-1.25,3.7l-0.6,2.95l0.05-2.95l0.45-3.05c0.633-3.4,1.033-5.367,1.2-5.9c0.434-1.3,1.233-2.333,2.4-3.1
		c1.434-0.9,2.317-1.45,2.65-1.65c0.933-0.433,1.867-0.633,2.8-0.6c0.633,0.034,1.217-0.283,1.75-0.95c0.9-1.2,1.45-1.883,1.65-2.05
		c0.267-0.2,0.667-0.316,1.2-0.35c0.533-0.034,0.917-0.167,1.15-0.4c0.6-0.566,1.033-2.083,1.3-4.55c-0.2-1.1-0.45-2.117-0.75-3.05
		c-0.667-2.067-1.65-3.167-2.95-3.3c-0.867-0.1-1.8,0.1-2.8,0.6L11.1,62c-0.7,0.467-1.6,0.633-2.7,0.5
		c-1.733-0.233-2.683-0.35-2.85-0.35c-0.667,0-1.017,0.017-1.05,0.05c-0.333,0.1-0.633,0.466-0.9,1.1c-0.233,0.534-0.4,1.7-0.5,3.5
		c-0.067,1-0.15,2.267-0.25,3.8l-0.2,1.9v19.55v4.3c0.1-0.567,0.25-1.25,0.45-2.05l-0.45,3.8v9.65l-1,19c0-0.767,0-1.533,0-2.3
		l0.15-42.8c0.067-1.066,0.117-2.133,0.15-3.2c0-0.333,0.017-0.667,0.05-1v-0.6c0-0.633-0.017-1.267-0.05-1.9v-0.8v-1
		C1.983,72.017,2,70.883,2,69.75l0.2-8.65c0.023-0.35,0.04-0.7,0.05-1.05L2.65,49c0.1-2.4,0.217-4.733,0.35-7
		c0.133-2.9,0.283-5.683,0.45-8.35V33.6l0.6-1.15v0.15l-0.5,4.65c-0.333,3.5-0.6,8.1-0.8,13.8c0.267,3.167,0.667,4.934,1.2,5.3
		c0.633,0.433,1-0.35,1.1-2.35c0.133-2.633,0.25-4.05,0.35-4.25c-0.133,2.1,0.033,4.583,0.5,7.45c0.3,1.566,0.633,2.5,1,2.8
		c0.233,0.2,0.7,0.3,1.4,0.3c0.534,0,0.983-0.15,1.35-0.45c0.333-0.267,0.833-0.8,1.5-1.6l0.35-0.3c0.4-0.3,0.983-0.333,1.75-0.1
		c0.867,0.233,1.45,0.3,1.75,0.2l0.85-0.5l1.45-1.45c0.667-0.833,1.067-1.767,1.2-2.8c0.033-0.167,0.1-1.517,0.2-4.05
		c0.7-16.133,1.617-28.9,2.75-38.3l0.1,0.3c0.133-4.267,0.2-7.467,0.2-9.6V1.1c0.4-0.133,1.017-0.283,1.85-0.45V0.7
		c-0.033,3.233-0.167,9.667-0.4,19.3c-0.2,8.067-0.317,14.5-0.35,19.3L23,55.2l-0.1,51.55c0,6.067-0.1,11.067-0.3,15
		c-0.033,0.567-0.1,1.4-0.2,2.5c-0.027,0.244-0.043,0.485-0.05,0.725c-0.001-2.508-0.035-5.8-0.1-9.875L22.05,114.15z M6.6,29
		l1-0.65L7.7,38.5c-0.267-1.167-0.5-2.7-0.7-4.6c-0.167-2.167-0.3-3.783-0.4-4.85V29z M3.6,90.1L3.45,93L3.1,94.3L3.6,90.1z
		 M2.8,129.85v7.45c0,7.233-0.083,15.434-0.25,24.6l-0.3,10.8c-0.067-1.867-0.233-4.583-0.5-8.15l-0.05-16
		c0.001-0.033,0.018-0.05,0.05-0.05c0.4-0.733,0.667-2.65,0.8-5.75c0.034-3.4,0.05-5.5,0.05-6.3L2.8,129.85z M4.15,277.95v1.149
		c-0.167-4.566-0.316-8-0.45-10.3l-0.05-2.05C3.417,261.917,3.3,255.667,3.3,248l0.1-9.65c0.1,4.667,0.2,9.867,0.3,15.601
		L4.15,277.95z M51.9,192.6c-0.033,2.333-0.033,7.3,0,14.9c0.067,6.2,0.017,11.167-0.15,14.9c-0.167,4.866-0.233,11-0.2,18.399
		c0.034,3.667,0.083,8.934,0.15,15.8c-0.133-3.533-0.434-8.333-0.9-14.399l-0.05-0.95c0-0.134-0.05-2.134-0.15-6
		c-0.067-2.333-0.3-4.233-0.7-5.7c-0.566-1.934-1.15-3.6-1.75-5c-0.967-2.133-1.8-3.066-2.5-2.8c2.434-1.033,3.867-4.533,4.3-10.5
		c0.033-0.5,0.05-5.783,0.05-15.85l0.05-4.5c0.133-3.533,0.267-6.283,0.4-8.25c-0.333,0.9-0.767,1.7-1.3,2.4
		c-0.367,0.434-0.65,0.75-0.85,0.95c-0.333,0.367-0.583,0.75-0.75,1.15c-0.066,0.2-0.267,0.9-0.6,2.1
		c-0.233,0.867-0.483,1.35-0.75,1.45c-0.5-1.767-1.117-2.517-1.85-2.25c-0.934,0.767-1.684,1.3-2.25,1.6
		c-0.633,0.333-1.383,0.534-2.25,0.6c-0.267,0-1.033-0.017-2.3-0.05h-0.7c-0.5-6.434-0.767-10.9-0.8-13.4
		c0.4,0.966,0.883,1.9,1.45,2.8h-0.2c-0.267,1.133,0.45,1.967,2.15,2.5c0.833,0.9,1.816,1.717,2.95,2.45c0.567,0.333,1,0.333,1.3,0
		c0.2-0.233,0.55-0.767,1.05-1.6c0.3-0.4,0.533-0.65,0.7-0.75c0.1-0.067,0.35-0.2,0.75-0.4c1.833-1,3.167-3.983,4-8.95
		c0.667-6.067,1.167-10.417,1.5-13.05l0.3,10.35l-0.3-48.65c0.3-6.333,0.2-10.217-0.3-11.65l5.15-70.95
		c-0.566,13.4-0.917,29.467-1.05,48.2c-0.233,32.833-0.467,53.133-0.7,60.9c-0.3,9.967-0.833,18.45-1.6,25.45
		c-0.4,3.1-0.684,5.85-0.85,8.25C52.117,185.6,51.967,189.1,51.9,192.6z M62.45,102.35v1.2V102.35z M62.45,111.3v-3.6
		c-0.066,1.833-0.15,3.483-0.25,4.95c-0.033,0.567-0.167,2.184-0.4,4.85c-0.166,1.967-0.233,3.583-0.2,4.85
		c0-1.233,0.134-3.05,0.4-5.45C62.3,114.367,62.45,112.5,62.45,111.3z M54.55,102.95c-0.167,2.667-0.483,6.667-0.95,12
		c-0.333,4.733-0.5,8.767-0.5,12.1c0,2.167-0.017,7.1-0.05,14.8c-0.033,6.133-0.017,11.066,0.05,14.8c0.933-2.133,1.517-5.8,1.75-11
		c0.066-5.867,0.133-9.883,0.2-12.05c0.034-1.233,0.05-6.75,0.05-16.55V71.9L54.55,102.95z M60.75,154.75
		c0.033,10.9,0.134,27.217,0.3,48.95c0,16.967-0.1,29.684-0.3,38.149c-0.1,5.9-0.267,11.2-0.5,15.9
		c-0.134,2.267-0.233,5.667-0.3,10.2c-0.134-0.733-0.267-1.25-0.4-1.55c-0.233,1.566-0.633,5.316-1.2,11.25l-0.7,5.8l0.2-18.25
		c0.066-5.167,0.1-12.917,0.1-23.25c-0.034-10.334-0.017-18.084,0.05-23.25c-0.033-3.167-0.05-5.816-0.05-7.95
		c0.033-4,0.216-6.833,0.55-8.5l0.85-17.85L60.75,154.75z M36.05,177.2l-0.25,9.3l-0.15,3.05l-0.3-4.45l0.25-9.3
		c0.1,0.467,0.25,0.9,0.45,1.3V177.2z M37.8,233.6c0.067,2.067,0.05,8.317-0.05,18.75c-0.167-5.633-0.183-10.716-0.05-15.25
		L37.8,233.6z M114.2,108.55c0.066,0.567,0.149,2.934,0.25,7.1c0,1.367,0.017,3.417,0.05,6.15c0.033,2.467,0.017,4.517-0.05,6.15
		c-0.033,0.7-0.167,2.95-0.4,6.75c-0.2,2.733-0.267,4.983-0.2,6.75c-0.199,0-0.383-0.05-0.55-0.15
		c-0.166-0.1-0.383-0.417-0.649-0.95c-0.334-0.567-0.567-0.9-0.7-1c-0.167-0.167-0.334-0.283-0.5-0.35l0.399-4.4l0.351-3.65
		c0.233-1.333,0.366-3.133,0.399-5.4c0.034-2.533,0.051-4.35,0.051-5.45c0-2.367,0-4.467,0-6.3c0.066-3.5,0.267-5.833,0.6-7
		c0.134,0.233,0.3,0.65,0.5,1.25C113.884,108.283,114.033,108.45,114.2,108.55z M119.3,111.65v24.95l0.05,0.65l-0.05,0.05
		c-0.399,0.3-0.684,0.633-0.85,1c-0.066,0.1-0.117,0.184-0.15,0.25c-0.7,1.3-1.133,2.034-1.3,2.2c-0.3,0.367-0.8,0.55-1.5,0.55
		c0.167-3,0.267-6.017,0.3-9.05c0-0.067,0.101-3.583,0.3-10.55l0.051,0.55c0.3,2.233,0.449,4.917,0.449,8.05
		c0,0.967-0.017,2.517-0.05,4.65c-0.033,1.9,0,3.433,0.101,4.6c0.366-1.7,0.566-3.966,0.6-6.8c-0.066-3.2-0.1-5.533-0.1-7
		c0-1.833,0.083-4.283,0.25-7.35c0.166-3.5,0.267-5.933,0.3-7.3l0.3-1.55c0.533-0.1,0.934,0.417,1.2,1.55
		C119.233,111.267,119.267,111.45,119.3,111.65z M109.35,105.45l-2.399-0.9c0.333-0.133,0.55-0.2,0.649-0.2
		c0.301-0.033,0.601,0.083,0.9,0.35C108.7,104.833,108.983,105.083,109.35,105.45z M119.45,144.2l0.05,5.3l-0.5-0.35l0.05-1.55
		c0.033-0.333,0.134-1.133,0.3-2.4C119.384,144.9,119.417,144.567,119.45,144.2z M81.65,247.3L79.4,222
		c0.533-10.6,0.883-18.6,1.05-24c-0.033-5-0.05-8.833-0.05-11.5c-0.034-4.867,0.183-8.633,0.649-11.3
		c0.267,3.2,0.334,7.683,0.2,13.45c-0.134,6.7-0.167,11.217-0.1,13.55c0.399,11.566,0.566,26.35,0.5,44.35V247.3z M98.6,161.3
		l-0.05,4.6c0,2.5,0.084,5.367,0.25,8.6L98.6,161.3z M93.65,282.65c-0.534,0.433-1.051,0.783-1.551,1.05V283.1
		c-0.1-16.433-0.166-28.783-0.199-37.05c-0.034-14.633,0.133-26.983,0.5-37.05c-0.034,2.634,0.066,5.917,0.3,9.85
		c0.133,2.2,0.316,5.483,0.55,9.851l0.05,2c0.134,4.1,0.2,10.3,0.2,18.6l0.05,25.75C93.55,275.917,93.583,278.45,93.65,282.65z
		 M108.8,212.4c-0.066,2.233-0.05,5.733,0.05,10.5c0,4.166-0.383,7.366-1.149,9.6c-0.267-8.634-0.434-15.116-0.5-19.45
		c0.166,0.334,0.333,0.5,0.5,0.5C107.833,213.55,108.2,213.167,108.8,212.4z M109.45,211.65c0.6-0.7,1.149-1.117,1.649-1.25
		l-0.05,1.199c-0.066,0.601-0.116,2.5-0.149,5.7c0,2.566-0.15,4.316-0.45,5.25L109.45,211.65z M112.15,233.4L112,235.8
		c0,0.434-0.083,1.134-0.25,2.101c-0.167,0.899-0.233,1.6-0.2,2.1l-0.45,0.15l-0.1,0.05c-0.167,0.1-0.283,0.2-0.35,0.3l-0.301,0.35
		L110.3,241l-0.25,0.45l-0.399,1.35l-0.051,0.05l-0.1,0.75v0.15l-0.2,2.65l0.3,5.899c-0.199,0.2-0.383,0.316-0.55,0.351
		c-0.166,0.033-0.399-0.034-0.7-0.2c-0.366-0.167-0.649-0.3-0.85-0.4l1.2-6.6c0.366-2.434,0.6-4.816,0.7-7.15
		c0.199-0.533,0.6-1.233,1.199-2.1c0.534-0.834,0.934-1.65,1.2-2.45l0.4-1.3L112.15,233.4z M109.15,265.3l-0.101,0.101
		c-0.066,0.033-0.133,0.066-0.2,0.1h-0.05l-0.35,0.2h-0.05l-1.851,0.75c-0.166-4.8,0.033-7.434,0.601-7.9
		c0.133,0.3,0.216,0.783,0.25,1.45c0.066,0.733,0.133,1.25,0.199,1.55c0.2-0.1,0.334-0.45,0.4-1.05c0.066-0.7,0.116-1.2,0.15-1.5
		C108.55,259.934,108.884,262.033,109.15,265.3z M104.9,264.95v1.25l-0.25-1.75c-0.2-1.101-0.334-2.967-0.4-5.601
		c0.2,0.634,0.35,1.351,0.45,2.15C104.733,261.233,104.8,262.55,104.9,264.95z M99.45,268.15l0.05-2.65v2.65H99.45z M83.7,311.9
		L83.1,312.1l0.15-17.149c0.366-0.566,0.583-1.884,0.65-3.95c0.199,2.967,0.25,6.467,0.149,10.5
		C83.983,303.8,83.866,307.267,83.7,311.9z M73.3,264.35l-1.55,8.851l0.6-11.101c0.134-1.166,0.233-2.767,0.301-4.8
		c0.066-2.267,0.149-3.866,0.25-4.8L73.3,264.35z M80.7,309.55l-0.5-0.05l-0.5,0.15h-0.05l-0.4,0.199L79.2,309.9L78.85,310.1
		L78.8,310.2c0.033-1.7,0.05-9.4,0.05-23.101c0-5.566,0.051-13.916,0.15-25.05c0.1-11.133,0.134-19.467,0.1-25
		c0-3.1,0.051-6.149,0.15-9.149l1.35,47.05L80.7,309.55z M11.85,311.35l-1.3-0.5l2.2-58.449v59.25L11.85,311.35z M71.5,274.6
		c0.066-2.5,0.15-4.383,0.25-5.649v4.25L71.5,274.6z M77.1,332.95c-0.3-3.2-0.383-6.351-0.25-9.45c0.134-2.2,0.45-4.45,0.95-6.75
		v0.05c0,1.467,0.101,4.033,0.3,7.7l0.051,1l-0.15,4l-0.3,1.8L77.1,332.95z M62.65,330.4c0.066-0.934,0.1-1.617,0.1-2.051V315.45
		c0,0.333,0.066,3.184,0.2,8.55c0.066,3.434,0.017,6.267-0.15,8.5C62.667,331.967,62.616,331.267,62.65,330.4z"/>
	<path style="fill-rule:evenodd;clip-rule:evenodd;fill:#877F74;" d="M97,37.95c0.066-5.567-0.116-9.684-0.55-12.35l-0.101-0.65
		c0.067,0.733,0.034,1.8-0.1,3.2c-0.134,1.667-0.2,2.783-0.2,3.35c0.066,4.633,0,7.9-0.2,9.8l-0.1,1.55
		C95.783,30.817,95.8,21.8,95.8,15.8v-0.85l0.05,0.3L96,15.6l0.3,0.45l0.45,0.45l0.3,0.15l0.05,0.05l0.351,0.1h0.05l0.35,0.05h1.301
		L98.8,20.9C98.434,24.7,97.833,30.383,97,37.95z M100.85,52.25l-1.149-1.5l0.1-1.2c0.066-2.867,0.117-5.1,0.15-6.7
		c0.033-2.867,0.217-5,0.55-6.4c0.267,2.4,0.4,6.117,0.4,11.15C100.8,49.867,100.783,51.417,100.85,52.25z M112.2,24.25V52.8
		c-0.167,0.5-0.334,0.833-0.5,1c-0.334,0.3-0.967,0.15-1.9-0.45c-1.066-0.7-1.783-1.017-2.149-0.95c-1.4,0.5-2.45,0.85-3.15,1.05
		c-1.2,0.367-2.2,0.2-3-0.5c1-2.034,1.684-4.267,2.05-6.7c0.3-2.067,0.45-4.85,0.45-8.35c0-5.8,0.066-11.05,0.2-15.75l0.399,0.5
		v0.05l0.45,0.4l0.45,0.3l0.5,0.25c0,0.967-0.033,4.083-0.1,9.35c0.033,5.033,0.233,8.133,0.6,9.3c0.134-4.2,0.267-10.4,0.4-18.6
		h0.3c0.3-0.034,0.767-0.217,1.399-0.55c0.567-0.3,1.034-0.433,1.4-0.4l0.4,0.05h0.1l0.25,0.1l0.1,0.1l0.25,0.15l0.051,0.05
		c0.133,0.1,0.483,0.433,1.05,1V24.25z M115.25,44.75l0.95-3.4v0.05l0.6,6.3l0.05,0.05c0.167,2.767,0.267,4.9,0.301,6.4l-0.45-1
		c-0.4,0.767-0.617,1.167-0.65,1.2c-0.267,0.4-0.517,0.55-0.75,0.45C115.134,52.233,115.116,48.883,115.25,44.75z M114.8,59.95
		c0.767,0.6,1.5,0.917,2.2,0.95l-0.3,1.25c0,3.4,0.017,5.3,0.05,5.7c0.2-1.6,0.35-2.783,0.45-3.55l0.2,2.1l-0.101,1.15
		c-0.3,2.367-0.616,4.267-0.95,5.7c-0.366,1.433-0.866,2.933-1.5,4.5l-0.949,2.4c-0.134,0.6-0.233,1.2-0.301,1.8V79.7l-0.05,2.35
		c-0.1,0.833-0.149,2.067-0.149,3.7c0,1.967-0.017,3.367-0.051,4.2l-0.1,2.2c-0.167,2.9-0.417,5.233-0.75,7
		c-0.2,1.167-0.65,1.833-1.35,2c-0.367,0.1-1.034,0.017-2-0.25c-0.2-0.5-0.417-0.816-0.65-0.95l-0.2,0.75h-0.149
		c-0.567,0-1-0.034-1.301-0.1c-0.133-0.4-0.233-1.133-0.3-2.2c0-1.1-0.017-1.833-0.05-2.2c-0.134-3.534-0.283-6.167-0.45-7.9
		c-0.233,1.3-0.467,3.217-0.7,5.75c-0.267,2.733-0.5,4.7-0.699,5.9c-0.434-0.167-0.967-0.417-1.601-0.75l-1.5-0.8l-0.75-0.6
		c-0.3-0.333-0.483-0.783-0.55-1.35c0-0.667,0.05-1.35,0.15-2.05c0.166-0.333,0.25-1.05,0.25-2.15l0.25-2.1
		c0.233-4.033,0.199-7.35-0.101-9.95c-0.166-2-0.5-3.417-1-4.25l-0.25-0.3c-0.233-0.167-0.517-0.066-0.85,0.3
		c-0.5,0.633-0.767,0.95-0.8,0.95c-0.267-1.4-0.284-3.35-0.051-5.85c0.267-2.833,0.784-4.2,1.551-4.1
		c0.199-2.5,0.216-4.267,0.05-5.3c-0.134-1.033-0.367-1.65-0.7-1.85c-0.533-0.333-0.934-0.75-1.2-1.25l3.351,0.65
		c1.8,0.333,3.166,0.5,4.1,0.5c0.7,0,2.1-0.034,4.2-0.1c1.899,0.066,3.083,0.5,3.55,1.3L114.8,59.95z M99.45,53.7H99.6l0.15,0.05
		c0.9,0.2,2.184,0.683,3.85,1.45c-1.333,0.1-2.517,0-3.55-0.3l-0.55-0.15L99.45,53.7z M116.75,226.85h-0.05
		c-0.334,0.4-1.117,0.801-2.351,1.2c-0.8,0.267-1.3,0.55-1.5,0.851c-0.1,0.233-0.25,0.916-0.449,2.05l-0.2,1.5l-0.4,1.3
		c-0.267,0.8-0.666,1.616-1.2,2.45c-0.6,0.866-1,1.566-1.199,2.1c-0.101,2.334-0.334,4.717-0.7,7.15l-1.2,6.6
		c-0.467-0.133-0.783-0.166-0.95-0.1c-0.066-1.533-0.033-3.75,0.101-6.65c0.133-3.133,0.199-5.35,0.199-6.649
		c-0.033-3.134-0.267-6.5-0.699-10.101c-0.9-7.899-1.034-14.166-0.4-18.8c0.167,0.267,0.417,0.833,0.75,1.7
		c0.3,0.8,0.533,1.333,0.7,1.6c0.066,4.334,0.233,10.816,0.5,19.45c0.767-2.233,1.149-5.434,1.149-9.6
		c-0.1-4.767-0.116-8.267-0.05-10.5l0.3-0.4l0.351-0.35l1,10.899c0.3-0.934,0.45-2.684,0.45-5.25c0.033-3.2,0.083-5.1,0.149-5.7
		l0.05-1.199l0.101-0.051c1.066-0.233,1.95-0.1,2.649,0.4c0.9,0.634,1.567,1.884,2,3.75c0.367,1.566,0.601,3.566,0.7,6
		C116.616,221.9,116.684,224.017,116.75,226.85z M107.1,207.75c-0.233,0.033-0.533-0.083-0.899-0.35
		c0.3-1.101,0.6-1.867,0.899-2.301V207.75z M119.55,197.5l-0.05,1.45c0,0.133,0,0.283,0,0.45l-0.55,7.95
		c-0.033,0.467-0.066,0.934-0.101,1.4L117.4,226.8c-0.067,0-0.134,0-0.2,0l0.1-1.6c0.033-0.601,0.05-1.267,0.05-2v-1.15V218.4
		c0.2-7.767,0.217-13.551,0.051-17.351l-0.051-1.25c-0.5-0.133-0.833,0.867-1,3c-0.199,2.434-0.433,3.783-0.699,4.05
		c-0.2,0.2-0.467,0.2-0.801,0c-0.066-0.066-0.366-0.316-0.899-0.75c0.467-1.466,0.8-3.149,1-5.05c-0.033-1.667,0-2.917,0.1-3.75
		c0.101-0.9,0.3-2.183,0.601-3.85c0.3-1.667,0.483-2.967,0.55-3.9c0.434-4.466,0.75-7.8,0.95-10c0.366-3.966,0.583-7.35,0.649-10.15
		l0.101-8.95l0.449,3.35c0.2,1.967,0.301,5.434,0.301,10.4c0.066,5-0.301,9.783-1.101,14.35c0.101-0.367,0.2-0.733,0.3-1.1
		l1.45-7.05l0.025-0.275c0.033-0.275,0.075-0.55,0.125-0.825c0.03-0.151,0.047-0.284,0.05-0.4v-0.05l0.05-0.4V197.5z M113.25,106.8
		c-0.333,1.167-0.533,3.5-0.6,7c0,1.833,0,3.934,0,6.3c0,1.1-0.017,2.917-0.051,5.45c-0.033,2.267-0.166,4.067-0.399,5.4l-0.15,1
		c0.134-2.3,0.184-5.15,0.15-8.55c-0.066-3.833-0.101-6.733-0.101-8.7c-0.1-3.2-0.1-5.184,0-5.95
		c0.034-0.267,0.134-0.683,0.301-1.25c0.166-0.667,0.3-1.017,0.399-1.05C112.934,106.417,113.083,106.533,113.25,106.8z
		 M114.2,108.55c0.2,0.167,0.434,0.233,0.7,0.2c0.5-0.033,0.767-0.05,0.8-0.05c0.467,0.033,0.8,0.35,1,0.95
		c-0.167,0.767-0.283,2.184-0.351,4.25l-0.149,2.25c-0.233,2.3-0.351,3.517-0.351,3.65c0,0.2,0.084,0.833,0.25,1.9
		c-0.199,6.966-0.3,10.483-0.3,10.55c-0.033,3.033-0.133,6.05-0.3,9.05h-0.1c-0.7,0.133-1.217,0.184-1.551,0.15
		c-0.066-1.767,0-4.017,0.2-6.75c0.233-3.8,0.367-6.05,0.4-6.75c0.066-1.633,0.083-3.684,0.05-6.15
		c-0.033-2.733-0.05-4.783-0.05-6.15C114.35,111.483,114.267,109.117,114.2,108.55z M102.45,150.35c0.166-0.333,0.3-1.2,0.399-2.6
		c0.067-1.633,0.233-2.85,0.5-3.65c0.233-0.767,0.684-1.567,1.351-2.4c0.666-0.767,1.184-1.167,1.55-1.2
		c0.3-0.033,0.583,0.167,0.85,0.6c0.334,0.566,0.551,0.9,0.65,1c0.134,0.1,0.3,0.15,0.5,0.15c0.233,0.033,0.4,0.083,0.5,0.15
		c0.134,0.133,0.35,0.5,0.65,1.1l0.149,0.1c0.033,0.467,0.05,1.483,0.05,3.05c-0.033,1.434-0.017,2.35,0.051,2.75l0.35,2.7
		c0.167,0.4,0.366,0.65,0.6,0.75c0.134,0.066,0.384,0.1,0.75,0.1c0.601,0,1.217-0.25,1.851-0.75c0.399-0.067,0.733,0.85,1,2.75
		c0.233,1.7,0.35,3.867,0.35,6.5c0,1.5-0.033,3.7-0.1,6.6c0,5.3-0.417,10.667-1.25,16.1c-0.134,0.833-0.351,3.117-0.65,6.85
		c-0.366,3.433-0.75,5.417-1.149,5.95c-0.801-4.1-1.017-8.983-0.65-14.65c0.1-1.3,0.2-2.117,0.3-2.45
		c0.2-0.6,0.566-0.883,1.101-0.85c0.066-1.433,0.066-5.083,0-10.95c0.166-3.833,0.183-6.65,0.05-8.45
		c-0.233-3.233-1.05-4.25-2.45-3.05c-0.866,0.733-1.634,1.684-2.3,2.85c-0.767,1.333-1.267,2.75-1.5,4.25
		c-0.2,1.333-0.267,4.3-0.2,8.9c-0.066,2.6-0.1,6.483-0.1,11.65c0.033,1.6,0.083,4.05,0.149,7.35c0,2.9-0.066,5.333-0.2,7.3
		c-0.633-5.467-1.316-14.833-2.05-28.1C102.884,159.383,102.517,152.583,102.45,150.35z M110.3,138.55l-0.05,0.15
		c-0.3-0.2-0.8-0.833-1.5-1.9c-0.634-0.966-1.217-1.5-1.75-1.6c-0.434-0.067-0.95-0.05-1.55,0.05c-0.667,0.133-1.184,0.233-1.55,0.3
		l-0.25-1.7c-0.2-1.967-0.101-4.15,0.3-6.55c0.6-2.7,1-4.75,1.2-6.15c0.267-1.767,0.383-4.5,0.35-8.2c0-3.733,0.116-6.45,0.35-8.15
		c0.2,0.067,0.567-0.017,1.101-0.25l2.399,0.9l0.051,0.05c0.566,0.467,0.949,0.833,1.149,1.1c0.367,0.5,0.617,1.217,0.75,2.15
		c0.2,1.2,0.267,2.983,0.2,5.35c-0.033,1.267-0.083,3.083-0.15,5.45v9.05c-0.033,2.733-0.733,3.583-2.1,2.55
		c0.033,0.6,0.267,2.333,0.7,5.2L110.3,138.55z M100.05,101.1l1.2,0.35c-0.533,6.333-0.833,11.133-0.9,14.4c0,0.6,0,1.717,0,3.35
		c0,1.433-0.116,2.483-0.35,3.15c-0.267-4.067-0.366-9.517-0.3-16.35c-0.101-1.733,0-3.367,0.3-4.9H100.05z M119.3,109.8v1.85
		c-0.033-0.2-0.066-0.383-0.1-0.55c-0.267-1.133-0.667-1.65-1.2-1.55c0.2-0.5,0.5-0.583,0.9-0.25L119.3,109.8z M119.5,149.5
		l0.05,10.45c-0.066-0.233-0.116-0.467-0.149-0.7c-0.334-1.433-0.517-2.75-0.551-3.95c-0.033-1.333,0.017-3.383,0.15-6.15
		L119.5,149.5z"/>
	<path style="fill-rule:evenodd;clip-rule:evenodd;fill:#C9C1B6;" d="M87.9,8.4c-0.733-0.1-1.284-0.167-1.65-0.2
		c-0.667-0.034-1.184,0.033-1.55,0.2l-0.5,0.35c-0.033,9.1-0.134,18.133-0.3,27.1c-0.434,0.033-0.817-1.934-1.15-5.9
		c-0.1-7.233-0.25-14.483-0.45-21.75C81.967,8,81.5,8.1,80.9,8.5c-0.534,0.367-1.067,0.9-1.601,1.6
		c-0.533,0.667-0.899,1.267-1.1,1.8c-0.533,1.434-0.851,3.2-0.95,5.3l-0.1-10.25l0.149-0.2l0.05-0.15l0.301-0.3L77.8,6.2
		c0.134-0.133,0.25-0.217,0.351-0.25C79.05,5.517,80.533,5.367,82.6,5.5c1.101,0.067,2.617,0.183,4.551,0.35h3.05l1.399,0.2
		l0.15,0.05c0.434,0.1,0.833,0.217,1.2,0.35c-0.4,0.133-0.917,0.45-1.55,0.95c-0.667,0.5-1.2,0.817-1.601,0.95
		C89.767,8.183,89.667,8.067,89.5,8h-0.1L89.1,8.15C88.9,8.25,88.767,8.3,88.7,8.3l-0.5,0.1H87.9z M91.4,60.5l-0.351,6.15
		c-0.033,0.767,0,2.4,0.101,4.9c0,2.267-0.167,3.767-0.5,4.5c-0.233,0.434-0.601,0.684-1.101,0.75c-0.5,0.1-0.866,0.383-1.1,0.85
		V76.6c0-5.2,0.066-8.75,0.2-10.65c0.033-2.133,0.083-3.767,0.149-4.9l0.601-0.2c0.466-0.133,1.033-0.55,1.699-1.25l0.25,0.6
		L91.4,60.5z M85.95,97.45c0.366-0.034,0.967-0.184,1.8-0.45c0.733-0.2,1.316-0.317,1.75-0.35l0.1,0.2L89.15,97
		C87.85,97.3,86.783,97.45,85.95,97.45z M87.3,61.05v7.85c0,1.9,0.134,4.717,0.4,8.45l0.149,4.5c-0.066,1.3-0.1,3.35-0.1,6.15
		c-0.434-7.2-0.667-12.633-0.7-16.3c0.033-1.633,0.05-2.95,0.05-3.95c-0.033-1.833-0.166-3.05-0.399-3.65
		c-0.101-0.3-0.316-0.55-0.65-0.75c-0.366-0.2-0.616-0.35-0.75-0.45c-1-0.9-1.717-2.4-2.149-4.5L83.1,52.25
		c0.534,0.6,1.017,2.017,1.45,4.25C85.116,59.167,86.033,60.683,87.3,61.05z M90.6,98.2l0.95,1.3c0.233,2.667,0.351,4.3,0.351,4.9
		c0,1.467-0.25,2.934-0.75,4.4c-0.434,1.367-0.717,2.184-0.851,2.45c-0.366,0.767-0.783,1.15-1.25,1.15
		c-0.233,0-0.684-0.316-1.35-0.95c-0.367-0.333-0.717,0-1.05,1c-0.567,1.7-1.017,5.3-1.351,10.8c-0.2,3.567-0.35,7.917-0.45,13.05
		c-0.066,2.9-0.133,7.25-0.199,13.05c-0.134,8.433-0.184,18.55-0.15,30.35c0,6.767,0.033,16.9,0.1,30.399l-0.05,16.25
		c0.267,2.7,0.15,5.184-0.35,7.45c-0.367-6.166-0.634-13.616-0.8-22.35c-0.167-10-0.301-17.483-0.4-22.45
		c-0.066-3.2-0.2-7.167-0.4-11.9c-0.333-7.767-0.5-11.717-0.5-11.85c-0.233-6.533-0.35-14.95-0.35-25.25v-20.45
		c0.033,0.8,0.233,5.684,0.6,14.65c0.233,5.9,0.517,10.767,0.851,14.6c0.233-0.9,0.333-2.517,0.3-4.85
		c-0.1-2.534-0.15-4.184-0.15-4.95v-36.3c0.233-0.767,0.517-1.15,0.851-1.15c0.333,0,0.616,0.434,0.85,1.3
		c0.267,1.033,0.467,1.617,0.601,1.75c0.199,0.233,0.399,0.3,0.6,0.2c0.2-0.133,0.384-0.15,0.55-0.05
		c0.033,0.033,0.217,0.1,0.55,0.2c0.134,0.033,0.284,0.15,0.45,0.35c0.101,0.1,0.233,0.55,0.4,1.35c0.133,0.733,0.3,1.117,0.5,1.15
		c0.566,0.133,0.866-0.533,0.899-2c-0.033-1.733-0.05-2.867-0.05-3.4c0-0.867,0-1.467,0-1.8c0-0.633,0.117-1.2,0.351-1.7
		C90.134,98.467,90.366,98.233,90.6,98.2z M96.9,268.15l-0.4-0.051c0.066,2.601,0.066,4.551,0,5.851
		c-0.167,2.434-0.3,3.916-0.4,4.45c-0.3,1.699-0.85,2.899-1.649,3.6l-0.8,0.65c-0.067-4.2-0.101-6.733-0.101-7.601L93.5,249.3
		c0-8.3-0.066-14.5-0.2-18.6c0.233-5.4,0.351-15.9,0.351-31.5c-0.034-5.8,0.05-12.8,0.25-21c0.233-9.333,0.399-16.35,0.5-21.05
		c0.066-0.9,0.1-2.367,0.1-4.4l0.05-3.3l0.601-3.65c0.166,7.067,0.433,17.684,0.8,31.85c0.3,12.434,0.5,23.034,0.6,31.8
		c0.101,5.866,0.184,14.649,0.25,26.35c0.3,16.601,0.467,27.384,0.5,32.351H96.9z M71.15,13.175L71.1,9.5c0-0.067,0-0.133,0-0.2
		L72.7,9.25v0.4c-0.033,0.167-0.25,1.767-0.65,4.8c-0.3,1.933-0.483,3.583-0.55,4.95C71.325,17.504,71.208,15.429,71.15,13.175z
		 M73.05,47.05L73,47.8l-0.1-0.3c-0.733-10.8-0.75-22.567-0.051-35.3c0.434,1.867,0.801,4.216,1.101,7.05
		c0.2,1.633,0.45,4.083,0.75,7.35c0.233,2.167,0.583,5.433,1.05,9.8c0.366,3.8,0.566,7.133,0.6,10l-0.05,5.3L75.4,51.5
		c-0.334-0.067-0.617-0.333-0.851-0.8c-0.2-0.367-0.45-1.5-0.75-3.4l-0.35-7.7L73.05,47.05z M77.85,53.85
		c1.067,0.066,1.884,0.367,2.45,0.9c0,2.533-0.184,4.35-0.55,5.45c-0.267-0.5-0.733-0.717-1.4-0.65
		c-0.666,0.1-1.149,0.383-1.449,0.85c-0.434,0.7-0.851,2.567-1.25,5.6c-0.467,3.767-0.684,8.717-0.65,14.85
		c0.066,8.066,0.066,13.017,0,14.85l-0.4,0.4v-9.6l-0.1,3.15c0-11.533-0.15-23.033-0.45-34.5l0.55,0.15c0.367,0.1,0.7,0.1,1,0
		c0.2-0.033,0.434-0.133,0.7-0.3c0.233-0.133,0.584-0.4,1.05-0.8L77.85,53.85z M64.75,59.85c0.3-0.9,0.684-1.617,1.15-2.15
		c0.166-0.167,0.483-0.583,0.949-1.25c0.4-0.6,0.717-0.967,0.95-1.1c0.267-0.133,0.717-0.184,1.351-0.15
		c0.633,0.033,1.083-0.034,1.35-0.2c0.7-0.367,1.417-0.467,2.15-0.3l-0.301,6.15c-0.6-1.333-1.433-1.883-2.5-1.65
		c-1.399,0.3-2.533,1.333-3.399,3.1c-0.2,0.4-0.617,1.6-1.25,3.6L64.75,59.85z M62.35,8.8c-1.066,0.034-1.899,0.1-2.5,0.2
		c-0.466,0.1-1.233,0.35-2.3,0.75c-1,0.4-1.733,0.65-2.2,0.75c-0.367,0.1-1.067,0.233-2.1,0.4c-1,0.167-1.75,0.333-2.25,0.5
		c0.033,1.733,0.183,5.367,0.45,10.9c0.233,4.5,0.333,8.1,0.3,10.8C51.683,36.3,51.433,40.933,51,47
		c-0.433,6.233-0.683,10.867-0.75,13.9c-0.267,12.2-0.317,27.667-0.15,46.4c-0.167-3.966-0.45-9.35-0.85-16.15
		c-0.567-8.9-1.783-24.783-3.65-47.65c-0.333-4.4-0.6-10.017-0.8-16.85L45.1,7.4l7.7-0.1c3.5,0.067,5.8,0.25,6.9,0.55
		c0.166,0.066,0.5,0.233,1,0.5c0.434,0.233,0.816,0.367,1.149,0.4L62.35,8.8z M32.25,177.35l-0.2,3.3l-0.4-8.05
		c-0.3-5.733-0.9-12.517-1.8-20.35c-1.067-8.833-1.85-15.517-2.35-20.05c-0.8-6.967-1.433-15.117-1.9-24.45
		c-0.2,4.6-0.383,8-0.55,10.2c-0.867,12.333-1.917,23.1-3.15,32.3c-0.367,2.933-0.933,5.583-1.7,7.95c-0.5,2.1-1.2,3.566-2.1,4.4
		c1.133-5.5,1.8-11.117,2-16.85c0.467-5.667,0.55-11.2,0.25-16.6v-0.1l1.7-14.9l0.2,0.95c0.065,4.075,0.099,7.367,0.1,9.875
		c0.006-0.24,0.023-0.481,0.05-0.725c0.1-1.1,0.167-1.933,0.2-2.5c0.2-3.933,0.3-8.933,0.3-15l1.85-16.15L23,55.2l-0.15-15.9
		C22.883,34.5,23,28.067,23.2,20c0.233-9.633,0.367-16.067,0.4-19.3V0.65c0.833-0.167,1.717-0.3,2.65-0.4L29.15,0
		C29.517,0,29.8,0.017,30,0.05c0.067,3.9-0.1,7.633-0.5,11.2c-0.7,11.067-1.05,23.667-1.05,37.8c0,17.067,0.3,32.967,0.9,47.7
		c0.3,7.267,1.167,29.933,2.6,68C32.117,168.95,32.217,173.15,32.25,177.35z M15.85,3.65l-0.2,8c-0.167,3.233-0.217,5.25-0.15,6.05
		c-0.967-4.5-1.55-8.483-1.75-11.95V5.5C14.317,4.833,15.017,4.217,15.85,3.65z M13.5,19.7l-0.4-1.1c0-2.767,0.066-6.917,0.2-12.45
		l0.25-0.4L13.5,19.7z M15.85,57.55L15,58.05c-0.3,0.1-0.883,0.034-1.75-0.2c-0.767-0.233-1.35-0.2-1.75,0.1l-0.35,0.3
		c-0.667,0.8-1.167,1.333-1.5,1.6c-0.367,0.3-0.816,0.45-1.35,0.45c-0.7,0-1.167-0.1-1.4-0.3l1-1.1
		c0.367-0.267,0.833-0.517,1.4-0.75L9,56.55c-0.233-2.7-0.383-5.466-0.45-8.3c-0.233-8.9-0.417-15.6-0.55-20.1V28.1l0.6-0.25h0.1
		c0.066-0.067,0.15-0.117,0.25-0.15l3.2-2.15c0.6-0.7,1.033-1.483,1.3-2.35c0,0.033,0,0.066,0,0.1c0,3.333-0.05,6.633-0.15,9.9
		c0,0.033,0,1.566,0,4.6c-0.033,1.9-0.083,3.434-0.15,4.6c-0.1,1.9-0.383,4.35-0.85,7.35c-0.6,3.9-0.95,6.317-1.05,7.25l-0.05,0.65
		C12.433,57.45,13.983,57.417,15.85,57.55z M19.55,62.95c-0.7,0.667-1.65,1.1-2.85,1.3c-1.333,0.1-2.3,0.183-2.9,0.25
		c-0.733,0.067-1.3,0.067-1.7,0c-0.467-0.1-1-0.317-1.6-0.65c-0.567-0.4-1.1-0.583-1.6-0.55c-0.5-0.1-0.883-0.183-1.15-0.25
		c-0.5-0.1-0.867-0.05-1.1,0.15c-1.066,2.7-1.717,5.816-1.95,9.35c-0.3,2.4-0.6,6.15-0.9,11.25c-0.267,4.967-0.566,8.684-0.9,11.15
		l-0.25-2.9V72.5l0.2-1.9c0.1-1.533,0.183-2.8,0.25-3.8c0.1-1.8,0.267-2.966,0.5-3.5c0.267-0.633,0.566-1,0.9-1.1
		c0.033-0.034,0.383-0.05,1.05-0.05c0.167,0,1.117,0.117,2.85,0.35c1.1,0.133,2-0.033,2.7-0.5l2.7-1.75c1-0.5,1.934-0.7,2.8-0.6
		C17.9,59.783,18.883,60.883,19.55,62.95z M6.3,289.5c-0.2-0.634-0.45-1.184-0.75-1.65l-0.15-0.3c-0.167-0.267-0.35-0.5-0.55-0.7
		v-0.05l-0.35-4.95l0.1,4.301l-0.3-1.4l-0.15-6.8l-0.45-24c-0.1-5.733-0.2-10.934-0.3-15.601L3.3,248l-1.4-47.6L1.75,164.55
		c0.267,3.567,0.433,6.284,0.5,8.15l0.3-10.8c0.167-9.167,0.25-17.367,0.25-24.6l0.4-5.95V131c0.051-0.899,0.101-1.75,0.15-2.55
		c0.533-14.6,0.8-25.684,0.8-33.25c0-3.333,0.05-5.534,0.15-6.6c0.333-1.5,0.75-2.733,1.25-3.7c1.3-2.667,2.85-4.316,4.65-4.95
		c1.9-0.733,3.383-1.2,4.45-1.4c0.434-0.1,1.083-0.033,1.95,0.2c0.033,0,0.3-0.033,0.8-0.1c0.4-0.066,0.684-0.066,0.85,0
		c-0.067,0.333-0.367,0.934-0.9,1.8c-0.2,0.333-1.483,1.85-3.85,4.55c-1.467,1.667-2.45,3.883-2.95,6.65
		c-0.1,1.833-0.383,3.583-0.85,5.25c-0.8,3.267-1.367,6.767-1.7,10.5l-0.8,9.55c-0.034,0.966-0.05,4.133-0.05,9.5
		c0,4.066-0.183,7.15-0.55,9.25c-0.533-3.8-0.9-7.85-1.1-12.15c0.067-2.933-0.083-5.8-0.45-8.6v7.6c0,16.767-0.05,41.934-0.15,75.5
		v0.7c-0.066-2.467-0.2-5.133-0.4-8C4,183.517,3.617,175.4,3.35,166.4c0.033,5.233,0.167,11.133,0.4,17.7
		c0.267,7.133,0.65,15.15,1.15,24.05l0.15,3.649v-0.55c1.2,19.866,1.934,33.884,2.2,42.05c0.3,8.9,0.467,14.25,0.5,16.05
		c0.133,6.2,0.117,11.601-0.05,16.2l-0.15,0.75C7.217,288.5,6.8,289.566,6.3,289.5z M60.85,136.45l-0.1,18.3l2.4-49.45
		c0.267-0.367,0.649-0.417,1.149-0.15c0.5,0.3,0.816,0.833,0.95,1.6c0.1,0.467,0.2,1.233,0.3,2.3c0.2,1.067,0.3,1.633,0.3,1.7
		c0.167,0.7,0.367,1.117,0.601,1.25c0.6,0.367,1.899-1.2,3.899-4.7l0.851-0.1l0.75-2c0.434,1.2,0.416,2.85-0.05,4.95
		c-0.334,1.6-0.801,3.017-1.4,4.25c-0.3,0.633-1,1.533-2.1,2.7c-0.801,0.967-1.317,2.25-1.551,3.85
		c-0.133,1.033-0.25,2.883-0.35,5.55l-0.15,6.8c0.067,2.3-0.216,4.483-0.85,6.55c-0.733,2.767-1.3,5.3-1.7,7.6l0.05,1.95
		c0.233,4.8,0.351,9.967,0.351,15.5c0.033,3.733,0.066,9.3,0.1,16.7c0.033,6.566,0.117,12.117,0.25,16.65
		c0,0.033,0.334,3.217,1,9.55c0.4,3.634,0.217,6.816-0.55,9.55c-0.566,1.867-0.9,3.134-1,3.801c-0.233,1.466-0.35,4.433-0.35,8.899
		v10.55c-0.067,2.167-0.034,4,0.1,5.5c0.2,1.134,0.483,2.267,0.85,3.4l0.2,2.2c0.101,7.333-0.017,14.383-0.35,21.149
		c-0.167,5.667-0.566,12.217-1.2,19.65c0,0.733-0.05,1.45-0.15,2.15c-0.166-1.167-0.75-4.917-1.75-11.25V276.3
		c-0.133-11.399-0.333-22.883-0.6-34.45c0.2-8.466,0.3-21.183,0.3-38.149c-0.166-21.733-0.267-38.05-0.3-48.95l-1.4,29.65
		c-0.033-5.566-0.033-11.15,0-16.75c-0.033-7.1,0.167-14.183,0.601-21.25L60.85,136.45z M75.7,192.3c0-0.133-0.101-7.667-0.3-22.6
		c-0.434-24.7-0.7-46.967-0.801-66.8l0.25,0.1c0.233,0.033,0.667,0.083,1.301,0.15c0.533,0.033,0.966,0.117,1.3,0.25
		c0.133,0.033,0.3,0.167,0.5,0.4c0.133,0.133,0.333,0.167,0.6,0.1l0.25-0.1l0.7,1.4c0.634,1.167,0.384,2.816-0.75,4.95
		c-1.366,2.633-2.066,4.067-2.1,4.3c-0.134,1.167-0.167,2.833-0.101,5c0.066,2.7,0.084,4.4,0.05,5.1l0.25,0.35
		c0.467-0.9,1-1.15,1.601-0.75c0.366,2.934,0.583,6.317,0.649,10.15c0.034,1.034,0.051,4.467,0.051,10.3
		c-0.067,13.333-0.084,23.333-0.051,30c0.034,2,0.101,5.017,0.2,9.05c0.066,3.667,0.05,6.684-0.05,9.05
		c-0.2,4.933-0.434,8.5-0.7,10.7l-0.2-6.45V199l-0.05,6.05c-0.2,1.2-0.416,1.816-0.649,1.851l-1.601-11.95l-0.25-8.75
		c0,1.933,0,4.3,0,7.1L75.7,192.3z M51.9,192.6c0.2-2.9,0.45-5.717,0.75-8.45c0.6-4.533,1.184-9.983,1.75-16.35
		c0.467-8,0.667-16.017,0.6-24.05l0.95-36.15c0,3.4,0.05,14.433,0.15,33.1c0.066,13.466,0.017,24.5-0.15,33.1
		c-0.167,10.633-0.284,22.583-0.35,35.851c-0.033,12.8-0.283,28.033-0.75,45.699c-0.267,10.134-0.717,25.334-1.35,45.601l-0.05,1.25
		l0.15,0.3l0.05,0.05l0.3,0.5c0.066,4.967,0.017,12.417-0.15,22.351c0,4.767-0.017,7.816-0.05,9.149
		c-0.067,3.334-0.283,6.334-0.65,9c-0.3,2.233-0.567,4.617-0.8,7.15c-0.7,3.3-1.05,6.366-1.05,9.2c0,0.433,0.083,1.533,0.25,3.3
		c0.1,1.6-0.017,2.6-0.35,3c-0.2,0.267-0.533,0.416-1,0.45c-0.4,0.066-0.717,0.35-0.95,0.85c-0.1,0.267-0.117,0.75-0.05,1.45
		c0.067,0.767,0.067,1.283,0,1.55c-0.5,2.2-1.967,3.467-4.4,3.8c-0.4,0.066-1.117,0.101-2.15,0.101c1.133-5.9,1.967-10.367,2.5-13.4
		c0.867-4.833,1.383-9.05,1.55-12.65c-0.033,2.367,0,5.15,0.1,8.351c0.067,2.1,0.183,5.267,0.35,9.5c1.2-1.367,1.8-5.816,1.8-13.351
		c-0.233-8.267-0.35-13.366-0.35-15.3c0-8.833,0.267-15.666,0.8-20.5c0.667-5.866,1.117-12.45,1.35-19.75l0.35,0.3l-0.2-0.199
		l-0.05-55.2c0.467,6.066,0.767,10.866,0.9,14.399c-0.067-6.866-0.117-12.133-0.15-15.8c-0.033-7.399,0.034-13.533,0.2-18.399
		c0.167-3.733,0.217-8.7,0.15-14.9C51.867,199.9,51.867,194.933,51.9,192.6z M42.5,374.4l-1.65,0.149H40.8
		c-0.033-0.267-0.083-0.5-0.15-0.7c-0.2-0.633-0.5-1.199-0.9-1.699c0.433-2.067,0.7-4.017,0.8-5.851c0.067-1.5,0.1-4.916,0.1-10.25
		l0.1-36.75l0.1-7.85l0.05-0.101l0.65-8.449c-0.233,1.3-0.417,2.883-0.55,4.75c-0.433-7.801-0.933-15.667-1.5-23.601
		c-1.033-15.733-1.617-26.3-1.75-31.7c0.1-10.433,0.117-16.683,0.05-18.75c0.167-6.366,0.184-12.05,0.05-17.05l-0.35-14.7
		c-0.033-2.633-0.2-5.816-0.5-9.55c0.133-0.5,0.317-1.066,0.55-1.7c1.267,0.033,2.034,0.05,2.3,0.05
		c0.867-0.066,1.617-0.267,2.25-0.6c0.566-0.3,1.316-0.833,2.25-1.6c0.733-0.267,1.35,0.483,1.85,2.25
		c0.267-0.1,0.517-0.583,0.75-1.45c0.333-1.2,0.533-1.9,0.6-2.1c0.167-0.4,0.417-0.783,0.75-1.15c0.2-0.2,0.483-0.517,0.85-0.95
		c0.533-0.7,0.967-1.5,1.3-2.4c-0.133,1.967-0.267,4.717-0.4,8.25c-0.3,1.934-0.7,3.267-1.2,4c-0.5,0.8-0.95,1.45-1.35,1.95
		c-0.8,0.733-1.333,1.283-1.6,1.65c-0.4,0.567-0.733,1.8-1,3.7c-0.233,3.6-0.35,7.467-0.35,11.6c-0.033,2.033-0.183,3.717-0.45,5.05
		c-0.133,0.601-0.533,2.067-1.2,4.4c-0.733,2.634-1.133,6.066-1.2,10.3c-0.034,2.434,0,6.05,0.1,10.851c0,3,0.05,5.216,0.15,6.649
		c0.167,2.367,0.5,4.367,1,6c0.2-0.1,0.35,0.084,0.45,0.55l0.25,2.45c0.167,6.101,0.167,12.184,0,18.25
		c0,5.8-0.25,12.25-0.75,19.351c-0.3,3.6-0.517,5.399-0.65,5.399L42,301.9l0.05,4.75c0.267,3.666,0.434,9.233,0.5,16.699l1.1-6.05
		l0.05-0.2l-0.05,4.351c0,3.066,0.033,7.684,0.1,13.85c0.067,5.566,0.033,10.167-0.1,13.8c-0.066,2.634-0.233,6.467-0.5,11.5
		L42.5,374.4z M42.7,376.45h0.05c1.767,0.166,2.917,0.316,3.45,0.45c1.466,0.433,2.383,0.983,2.75,1.649
		c0.2,0.434,0.3,1.55,0.3,3.351v7.55c0,0.633,0.067,1.717,0.2,3.25c0.066,1.399,0,2.467-0.2,3.2
		c-0.233,0.866-0.783,1.333-1.65,1.399c-0.934,0.101-1.567,0.467-1.9,1.101l-0.2,0.55h-0.15L45.1,394.6
		c-0.2-3.267-0.333-5.199-0.4-5.8c-0.233-2.5-0.567-4.333-1-5.5c0-0.139,0-0.271,0-0.399l0.05-1.351c0-0.7,0-1.184,0-1.45v-0.05
		l-0.25-1.95C43.3,377.5,43.033,376.95,42.7,376.45z M55.25,368.3l0.05,0.15v2.6h-0.05V368.3z M74.5,336.1l-1.35,0.851
		c-0.434,0.267-0.9,0.517-1.4,0.75c-0.3-2.3-0.5-3.733-0.6-4.3v-25.45l-1.125-11.325L70.5,299.4c0.866,4.666,1.6,9.899,2.2,15.699
		c0.899,8.467,1.483,15.134,1.75,20L74.5,336.1z M37.5,180c0.533,0,1.383,0.15,2.55,0.45c1.2,0.3,2.117,0.45,2.75,0.45
		c2,0,3.117-0.017,3.35-0.05c0.3-0.733,0.167-1.383-0.4-1.95l4-24c0,8.167-0.167,14-0.5,17.5c-0.067,0.833-0.1,1.934-0.1,3.3
		c-0.033,1.2-0.283,2.267-0.75,3.2c-1.5,2.767-3.55,4.1-6.15,4c-0.967,0-1.9-0.133-2.8-0.4c-1.7-0.533-2.417-1.367-2.15-2.5H37.5z
		 M17.75,162.9l0.35-0.3l-0.7,3.05C17.5,163.983,17.617,163.067,17.75,162.9z M17.2,166.45l0.2-0.8
		c-0.3,4.233-0.517,10.367-0.65,18.4c-0.2,5.7-0.383,15.467-0.55,29.3c-0.167,12.5-0.4,22.267-0.7,29.301
		c-0.133,3.699-0.2,9.083-0.2,16.149c0.034,7.367-0.133,16.233-0.5,26.601c-0.233,5.899-0.6,14.75-1.1,26.55
		c0.033-7.733-0.117-26.967-0.45-57.7c-0.2-13.233-0.3-23.15-0.3-29.75c0-6.9,0.25-13.083,0.75-18.55
		c0.3-3.033,0.517-7.517,0.65-13.45c0.133-6.067,0.333-10.55,0.6-13.45C15.317,174.55,16.067,170.35,17.2,166.45z M75.8,193.3
		l0.25,1.65L76.3,205.1c-0.267,0.601-0.45,1.217-0.55,1.851v-5.5C75.816,197.85,75.833,195.133,75.8,193.3z M119.55,197.5v19.65
		c0,0.767,0.084,2.383,0.25,4.85c0,2.2-0.35,3.616-1.05,4.25c-0.267,0.167-0.45,0.267-0.55,0.3l-0.15,0.05
		c-0.2,0.067-0.383,0.134-0.55,0.2h-0.1l1.449-18.05c0.034-0.467,0.067-0.934,0.101-1.4l0.55-7.95c0-0.167,0-0.316,0-0.45
		L119.55,197.5z M89,286.2v0.05L88.5,287l-0.5,1.25l-0.2,1.1l-0.2,3.5c-0.233,4.134-0.416,6.617-0.55,7.45
		c0.3-11.899,0.4-23.833,0.3-35.8c-0.1-6.434-0.133-12.217-0.1-17.35c0.066-8.134,0.3-14.534,0.7-19.2
		c0.033-0.033,0.116-0.733,0.25-2.101c0.166-1.466,0.283-2.716,0.35-3.75c0.066,4.634,0.233,8.983,0.5,13.051l1.9,38
		c-0.467,1.3-0.867,3.3-1.2,6C89.684,279.55,89.434,281.9,89,286.2z M101.9,267.85c-0.834,0.134-1.45,0.233-1.851,0.301V267.3
		c-0.066-11.333,0.117-21.916,0.55-31.75L101.9,267.85z M73.3,264.35L72.9,252.5l0.35-2.5c1.033-4.934,1.667-9.75,1.9-14.45
		c0.267-6.467,0.466-14.583,0.6-24.35l0.1,0.649c0.034,4.334,0.351,8.851,0.95,13.551l0.7,2.699c0.267,1.634,0.417,3.7,0.45,6.2
		c0.033,1.434,0.05,3.55,0.05,6.351c0,0.733,0.066,1.816,0.2,3.25c0.1,1.399,0.149,2.466,0.149,3.199V261.9
		c0.034,4.399,0.117,11,0.25,19.8c0.101,7.767,0.034,14.35-0.199,19.75c-0.101,2.1-0.267,4.399-0.5,6.899l-0.45-5.449
		c-0.134-2.367-0.4-5.5-0.8-9.4c-0.467-4.566-0.767-7.667-0.9-9.3c-0.7-9.033-1.116-14.167-1.25-15.4
		c-0.1-1.6-0.184-2.816-0.25-3.649c-0.134-1.5-0.316-2.634-0.55-3.4L73.3,264.35z M4.15,279.1l0.05,5.2L4,283.4L3.7,268.8
		C3.833,271.1,3.983,274.533,4.15,279.1z"/>
	<path style="fill-rule:evenodd;clip-rule:evenodd;fill:#726B61;" d="M97,42.8l-0.1,2.85c-0.067,1.233-0.084,2.117-0.051,2.65
		l0.101,1.1c0.166,0.7,0.434,1.1,0.8,1.2c0.134,0.033,0.25,0.033,0.35,0c0.134-0.033,0.317-0.117,0.551-0.25
		c0.233-0.067,0.416-0.05,0.55,0.05c0.133,0.033,0.3,0.15,0.5,0.35l1.149,1.5l0.101,0.1c0.133,0.233,0.316,0.433,0.55,0.6
		c0.8,0.7,1.8,0.867,3,0.5c0.7-0.2,1.75-0.55,3.15-1.05c0.366-0.066,1.083,0.25,2.149,0.95c0.934,0.6,1.566,0.75,1.9,0.45
		c0.166-0.167,0.333-0.5,0.5-1c0.2-0.7,0.383-1.883,0.55-3.55c0.167-1.933,0.283-3.067,0.35-3.4c0.167-0.167,0.334-0.1,0.5,0.2
		c0.4-0.566,0.634-2.15,0.7-4.75c0-2.8,0.017-4.583,0.05-5.35c0.067-1.034,0.101-2.617,0.101-4.75c0-2.1,0.017-3.684,0.05-4.75
		l0.7,1.3l0.2,0.75l0.1,0.9l0.05,4.3c0,2.433-0.1,6.117-0.3,11.05c-0.134,4.133-0.116,7.483,0.05,10.05
		c0.233,0.1,0.483-0.05,0.75-0.45c0.033-0.033,0.25-0.434,0.65-1.2l0.45,1c0,0.167,0,0.317,0,0.45l0.05,9.7
		c-0.101,0.767-0.25,1.95-0.45,3.55c-0.033-0.4-0.05-2.3-0.05-5.7l0.3-1.25c-0.7-0.033-1.434-0.35-2.2-0.95
		c-0.133-0.1-0.983-0.85-2.55-2.25c-1.033-0.934-1.934-1.483-2.7-1.65c-1.8-0.433-3.25-0.633-4.35-0.6
		c-0.5,0-1.033-0.083-1.601-0.25c-1.666-0.767-2.949-1.25-3.85-1.45L99.6,53.7H99.45H99.1L98.7,53.65
		c-0.733,0.067-1.283,0.067-1.65,0H96.9c-0.4-0.133-0.967-0.5-1.7-1.1c-0.767-0.7-1.316-1.117-1.65-1.25l-0.25-0.1
		c-1.3-0.5-2.45-0.35-3.45,0.45l-0.25,0.2l-0.25,1.8c-0.3,2.2-0.566,4.684-0.8,7.45c-0.5,5.7-0.717,12.233-0.649,19.6v0.5v1.85
		l-0.051-1.2l-0.149-4.5c-0.267-3.733-0.4-6.55-0.4-8.45v-7.85c0-2.767,0.066-5.267,0.2-7.5l1.15-7.7l0.699-4.4l0.101-1.4l1.8-32.15
		L91.2,41.45c-0.066,1.8-0.217,3.233-0.45,4.3l-0.2,1.2c1,1.367,1.8,2.233,2.4,2.6c0.733,0.467,1.566,0.567,2.5,0.3
		c0-0.033,0.05-1.367,0.149-4l0.15-3l0.1-1.55c0.2-1.9,0.267-5.167,0.2-9.8c0-0.567,0.066-1.683,0.2-3.35
		c0.134-1.4,0.167-2.467,0.1-3.2l0.101,0.65c0.434,2.667,0.616,6.783,0.55,12.35V42.8z M82.05,51.7
		c0.367-3.934,0.584-6.833,0.65-8.7v8.95c0.066,12.267,0.066,24.517,0,36.75l-0.05,5.85c-0.101,6.8-0.15,10.233-0.15,10.3V106
		c0,2.6,0.033,6.517,0.1,11.75c0.034,4.633-0.05,8.533-0.25,11.7l-0.8-47.75c-0.133-11.167-0.083-19.5,0.15-25
		C81.733,55.567,81.85,53.9,82.05,51.7z M102.45,150.35c-0.233,0.367-0.483,0.217-0.75-0.45c-0.167-0.333-0.217-0.8-0.15-1.4
		c0.101-0.667,0.15-1.15,0.15-1.45c0.1-1.233,0.116-2.6,0.05-4.1c-0.033-1.767-0.167-3.05-0.4-3.85
		c-0.199-0.633-0.633-1.15-1.3-1.55c-0.733-0.433-1.233-0.367-1.5,0.2l-0.05,0.1c-0.167,0.5-0.267,2.15-0.3,4.95
		c-0.066,1.233-0.117,3.417-0.15,6.55c-0.066,1.1-0.217,2.05-0.45,2.85c-0.066-1.934-0.283-4.833-0.649-8.7
		c-0.4-3.867-0.634-6.767-0.7-8.7v-4.2c-0.1-6.133-0.167-10.733-0.2-13.8c0.066,1.3,0.267,2.967,0.601,5
		c0.399,2.467,0.633,4.1,0.699,4.9l0.051,0.4c0.066,0.8,0.166,2.017,0.3,3.65c0.133,1.4,0.333,2.5,0.6,3.3
		c0.134-0.667,0.2-1.167,0.2-1.5c0.066-0.6,0.066-1.216,0-1.85v-2.3c0.033-0.5,0.116-0.867,0.25-1.1c0.134-0.333,0.233-0.667,0.3-1
		c0.101-0.5,0.134-1.316,0.101-2.45c-0.034-1.267-0.051-2.133-0.051-2.6v-5.8c0.067,2.867,0.233,5.4,0.5,7.6
		c0.167,1.3,0.45,3.184,0.851,5.65c0.434,2.466,0.717,4.333,0.85,5.6c-0.1,0-0.149,0.034-0.149,0.1c0.233,0,0.399,0.033,0.5,0.1
		c0,0.167,0.017,0.533,0.05,1.1c0.666,0.133,1.399,0.117,2.2-0.05c0.366-0.066,0.883-0.167,1.55-0.3c0.6-0.1,1.116-0.117,1.55-0.05
		c0.533,0.1,1.116,0.633,1.75,1.6c0.7,1.067,1.2,1.7,1.5,1.9l0.05,0.05v-0.2l-0.35-2.2c-0.434-2.867-0.667-4.6-0.7-5.2
		c1.366,1.033,2.066,0.184,2.1-2.55v-9.05c0.067-2.367,0.117-4.183,0.15-5.45c0.066-2.367,0-4.15-0.2-5.35
		c-0.133-0.933-0.383-1.65-0.75-2.15c-0.2-0.267-0.583-0.633-1.149-1.1l-0.051-0.05c-0.366-0.367-0.649-0.617-0.85-0.75
		c-0.3-0.267-0.6-0.383-0.9-0.35c-0.1,0-0.316,0.066-0.649,0.2c-0.533,0.233-0.9,0.317-1.101,0.25l-0.199-0.1
		c-0.167-0.1-0.417-0.434-0.75-1c-0.301-0.534-0.551-0.867-0.75-1c-0.101-0.1-0.25-0.167-0.45-0.2
		c-0.267-0.067-0.434-0.117-0.5-0.15l-1.95-0.9l-1.2-0.35l-1.55-0.4c-0.366,0-0.7,0.216-1,0.65c-0.167,0.233-0.316,0.583-0.45,1.05
		c-0.066,0.267-0.184,0.684-0.35,1.25c-0.101,0.367-0.233,0.7-0.4,1c-0.1-2.3-0.2-4.017-0.3-5.15c-0.167-1.867-0.45-3.383-0.85-4.55
		l-0.4-1.65c-0.467-1.8-0.767-2.85-0.9-3.15c-0.399,4.667-0.6,8-0.6,10c0,3.467,0.066,6.6,0.2,9.4
		c0.066,1.733,0.083,5.267,0.05,10.6c-0.033-1.3-0.066-2.233-0.1-2.8c-0.301-3.133-0.483-5.533-0.551-7.2
		c-0.1-6.4-0.149-9.617-0.149-9.65l0.149-11.15c0.2-1.6,0.334-2.817,0.4-3.65c0.033-0.5,0.1-2.317,0.2-5.45
		c0.2,0.367,0.383,1.1,0.55,2.2c0.1,0.6,0.217,1.45,0.35,2.55l0.95,6.05l0.05,0.15c0.334,1.533,0.7,2.85,1.101,3.95
		c0.833,2.4,1.517,3.1,2.05,2.1c0.134-0.233,0.283-0.667,0.45-1.3c0.267-1.233,0.333-3.067,0.2-5.5
		c-0.167-2.667-0.25-4.55-0.25-5.65c0-3.8,0.3-6.55,0.899-8.25c0.066,1.133,0.101,2.983,0.101,5.55
		c0.033,1.033,0.083,2.683,0.149,4.95c0.066,0.733,0.233,1.75,0.5,3.05l0.101,2.15c0,1.1-0.084,1.817-0.25,2.15
		c-0.101,0.167-0.184,0.25-0.25,0.25l0.05,0.05l0.05,1.75c0.066,0.566,0.25,1.017,0.55,1.35l0.75,0.6l1.5,0.8
		c0.634,0.333,1.167,0.583,1.601,0.75c0.8,0.333,1.533,0.55,2.199,0.65c0.301,0.066,0.733,0.1,1.301,0.1h0.149l0.851,0.2
		c0.966,0.267,1.633,0.35,2,0.25c0.699-0.167,1.149-0.833,1.35-2c0.333-1.767,0.583-4.1,0.75-7c0.2-2.633,0.3-6,0.3-10.1l0.05-2.35
		v2.25v10.3c0,0.967-0.033,2.533-0.1,4.7c-0.033,1.966,0.017,3.517,0.15,4.65c0.133,1.167,0.517,2.083,1.149,2.75
		c0.066,0.066,0.65,0.517,1.75,1.35c0.434,0.3,1.316,0.883,2.65,1.75c0.033,0,0.066,0.017,0.1,0.05v2.3l-0.399-0.5
		c-0.4-0.333-0.7-0.25-0.9,0.25l-0.3,1.55c-0.033,1.367-0.134,3.8-0.3,7.3c-0.167,3.067-0.25,5.517-0.25,7.35
		c0,1.467,0.033,3.8,0.1,7c-0.033,2.833-0.233,5.1-0.6,6.8c-0.101-1.167-0.134-2.7-0.101-4.6c0.033-2.133,0.05-3.684,0.05-4.65
		c0-3.133-0.149-5.816-0.449-8.05l-0.051-0.55c-0.166-1.067-0.25-1.7-0.25-1.9c0-0.133,0.117-1.35,0.351-3.65l0.149-2.25
		c0.067-2.066,0.184-3.483,0.351-4.25c-0.2-0.6-0.533-0.917-1-0.95c-0.033,0-0.3,0.017-0.8,0.05c-0.267,0.033-0.5-0.033-0.7-0.2
		c-0.167-0.1-0.316-0.267-0.45-0.5c-0.2-0.6-0.366-1.017-0.5-1.25c-0.167-0.267-0.316-0.383-0.45-0.35
		c-0.1,0.033-0.233,0.383-0.399,1.05c-0.167,0.567-0.267,0.983-0.301,1.25c-0.1,0.767-0.1,2.75,0,5.95
		c0,1.966,0.034,4.867,0.101,8.7c0.033,3.4-0.017,6.25-0.15,8.55l-0.2,2.65l-0.399,4.4c0.166,0.067,0.333,0.183,0.5,0.35
		c0.133,0.1,0.366,0.433,0.7,1c0.267,0.533,0.483,0.85,0.649,0.95c0.167,0.1,0.351,0.15,0.55,0.15
		c0.334,0.033,0.851-0.017,1.551-0.15h0.1c0.7,0,1.2-0.183,1.5-0.55c0.167-0.167,0.6-0.9,1.3-2.2c0.033-0.066,0.084-0.15,0.15-0.25
		c0.166-0.367,0.45-0.7,0.85-1l0.05-0.05l0.101,6.95c-0.033,0.367-0.066,0.7-0.101,1c-0.166,1.267-0.267,2.066-0.3,2.4l-0.05,1.55
		c-0.134,2.767-0.184,4.817-0.15,6.15c0.034,1.2,0.217,2.517,0.551,3.95c0.033,0.233,0.083,0.467,0.149,0.7v18.5l-0.05,0.4v0.05
		c-0.004,0.083-0.021,0.184-0.05,0.3c-0.052,0.308-0.094,0.617-0.125,0.925L119.3,180.4l-1.45,7.05c-0.1,0.367-0.199,0.733-0.3,1.1
		c0.8-4.566,1.167-9.35,1.101-14.35c0-4.967-0.101-8.434-0.301-10.4l-0.449-3.35l-0.551-4.1c-0.333-1.033-0.583-2.05-0.75-3.05
		c-0.066-0.333-0.1-1.45-0.1-3.35c-0.033-1.534-0.167-2.4-0.4-2.6c-0.433-0.333-0.75,0.167-0.949,1.5c-0.2,1.5-0.417,2.3-0.65,2.4
		c-0.333-0.667-0.434-1.967-0.3-3.9c0.066-1.867-0.15-3.2-0.65-4c-0.533-0.833-1.283-1.1-2.25-0.8l-0.2,3.35l-0.35-3.1l-0.3,0.25
		c-0.233,0.267-0.4,0.434-0.5,0.5c-0.101,0.133-0.233,0.15-0.4,0.05l-0.149-0.1c-0.301-0.6-0.517-0.967-0.65-1.1
		c-0.1-0.066-0.267-0.117-0.5-0.15c-0.2,0-0.366-0.05-0.5-0.15c-0.1-0.1-0.316-0.434-0.65-1c-0.267-0.434-0.55-0.633-0.85-0.6
		c-0.366,0.033-0.884,0.433-1.55,1.2c-0.667,0.833-1.117,1.633-1.351,2.4c-0.267,0.8-0.433,2.017-0.5,3.65
		C102.75,149.15,102.616,150.017,102.45,150.35z M106.55,266.45l-1.6,0.6l-0.05-2.1c-0.101-2.4-0.167-3.717-0.2-3.95
		c-0.101-0.8-0.25-1.517-0.45-2.15l-0.15-0.55c-0.1-0.767-0.066-1.366,0.101-1.8c0.033-0.1,0.35-0.616,0.95-1.55
		c0.166-0.233,0.35-0.7,0.55-1.4s0.366-1.133,0.5-1.3c0.1-0.167,0.217-0.267,0.35-0.3c0.167-0.066,0.483-0.033,0.95,0.1
		c0.2,0.101,0.483,0.233,0.85,0.4c0.301,0.166,0.534,0.233,0.7,0.2c0.167-0.034,0.351-0.15,0.55-0.351l0.15,1.101v0.05l0.25,2.6
		c0.167,1.9,0.167,4.15,0,6.75l-0.05,0.7l-0.05,0.15l-0.101,0.5l-0.25,0.649l-0.1,0.15c-0.101,0.133-0.2,0.25-0.3,0.35
		c-0.267-3.267-0.601-5.366-1-6.3c-0.034,0.3-0.084,0.8-0.15,1.5c-0.066,0.6-0.2,0.95-0.4,1.05c-0.066-0.3-0.133-0.816-0.199-1.55
		c-0.034-0.667-0.117-1.15-0.25-1.45C106.583,259.017,106.384,261.65,106.55,266.45z M105.75,209.75
		c-0.167-0.267-0.316-0.45-0.45-0.55c-0.467-0.367-0.934-0.384-1.399-0.05c-0.467,0.399-0.767,1.116-0.9,2.149
		c-0.1,0.967-0.083,2.75,0.05,5.351c0,1.3-0.083,3.05-0.25,5.25c-0.2,2.466-0.316,4.183-0.35,5.149c0-3.399-0.05-6.783-0.15-10.149
		v-5.95c0.033-0.834,0.05-1.467,0.05-1.9c0-0.833-0.033-1.483-0.1-1.95c-0.1-0.533-0.35-1.183-0.75-1.949
		c-0.566-1.067-0.866-1.634-0.9-1.7l-0.75-1.601c0.267,0,0.7-0.066,1.301-0.199c0.533-0.067,0.949,0.05,1.25,0.35
		c0.267,0.267,0.616,0.884,1.05,1.85c0.434,1,0.783,1.65,1.05,1.95c0.233,0.267,0.566,0.566,1,0.9l0.7,0.7
		c0.366,0.267,0.666,0.383,0.899,0.35c0.267,0,0.667-0.217,1.2-0.65c0.2-0.166,0.667-0.683,1.4-1.55
		c0.434-0.566,1.033-0.767,1.8-0.6c0.434,0.1,1.05,0.333,1.85,0.7l0.601,0.449c0.533,0.434,0.833,0.684,0.899,0.75
		c0.334,0.2,0.601,0.2,0.801,0c0.267-0.267,0.5-1.616,0.699-4.05c0.167-2.133,0.5-3.133,1-3l0.051,1.25
		c0.166,3.8,0.149,9.584-0.051,17.351v3.649c-0.033,1.167-0.05,2.217-0.05,3.15l-0.1,1.6l-0.45,0.05
		c-0.066-2.833-0.134-4.949-0.2-6.35c-0.1-2.434-0.333-4.434-0.7-6c-0.433-1.866-1.1-3.116-2-3.75c-0.699-0.5-1.583-0.634-2.649-0.4
		L111.1,210.4c-0.5,0.133-1.05,0.55-1.649,1.25L109.1,212l-0.3,0.4c-0.6,0.767-0.967,1.149-1.1,1.149c-0.167,0-0.334-0.166-0.5-0.5
		c-0.167-0.267-0.4-0.8-0.7-1.6C106.167,210.583,105.917,210.017,105.75,209.75z M69.1,9.3c-0.033,1.3-0.017,3.25,0.051,5.85
		c-0.334-1.367-0.584-3.316-0.75-5.85H69.1z M65.35,48.65c-0.166,2.333-0.366,5.817-0.6,10.45l-0.1,1.1v0.25
		c-0.034,0.466-0.101,1.566-0.2,3.3c-0.101,1.667-0.233,2.85-0.4,3.55c-0.233-0.333-0.399-1.25-0.5-2.75
		c-0.033-1.7-0.066-2.783-0.1-3.25c-0.334-2.767-0.584-4.8-0.75-6.1c-0.267-2.333-0.316-4.383-0.15-6.15
		c0.233-2.733,0.267-5.417,0.101-8.05c-0.233-3.8-0.9-5.417-2-4.85c-0.167-3.066-0.233-4.95-0.2-5.65
		c0.233,0.1,0.533,0.217,0.899,0.35c0.267,0.033,0.483-0.184,0.65-0.65c0.233-0.567,0.283-2.733,0.15-6.5v-3.4
		c0.3,4.434,0.55,8.767,0.75,13l-0.25-17.6L62.6,8.8L63.7,8.9v0.3c0,2.9,0.166,6.3,0.5,10.2c0.267,3.133,0.733,7.783,1.399,13.95
		c0.034,0.333,0.184,1.433,0.45,3.3c0.233,1.434,0.316,2.533,0.25,3.3c-0.066,0.9-0.267,2.233-0.6,4L65.35,48.65z M42.1,129.15
		c-0.1,1.5-0.25,2.9-0.45,4.2c-0.267,1.133-0.583,1.917-0.95,2.35c-0.267,0.333-0.684,0.5-1.25,0.5c-0.467,0.033-0.9-0.067-1.3-0.3
		c0.067-0.533,0.333-1.183,0.8-1.95c0.633-1.1,0.983-1.717,1.05-1.85l0.05-0.15c0.333-0.767,0.8-2.333,1.4-4.7l0.05-0.35
		c0.233-0.933,0.35-2.017,0.35-3.25c0-0.367-0.05-1.483-0.15-3.35l-0.05-1.35l0.1,1.25c0.2,1,0.483,1.483,0.85,1.45
		c0.4-0.066,0.717-0.75,0.95-2.05l0.1-0.55c0.133-1.066,0.2-2.533,0.2-4.4c-0.033-2.2-0.067-3.783-0.1-4.75l0.4-39.9l0.1,4.35
		c0.1,4.267,0.283,9.033,0.55,14.3C44.933,92.217,45,98.9,45,108.7c0,1.233,0.05,3.6,0.15,7.1c0,3.167-0.233,5.483-0.7,6.95
		c-0.2,0.667-0.534,1.3-1,1.9c-0.5,0.633-0.833,1.217-1,1.75l-0.2,0.9L42.1,129.15z M2.65,107.75L3.45,93l0.15-2.9l0.15-3.6v2.1
		L3.7,91.55c-0.133,10.267-0.434,23.034-0.9,38.3l-0.2,6.6c0,0.8-0.017,2.9-0.05,6.3c-0.133,3.1-0.4,5.017-0.8,5.75
		c-0.032,0-0.049,0.017-0.05,0.05l-0.05-21.8L2.65,107.75z M4.85,286.85l-0.05-0.1l-0.2-0.6l-0.1-4.301l0.35,4.95V286.85z
		 M75.7,192.3l0.05,18.9c-0.134,9.767-0.333,17.883-0.6,24.35c-0.233,4.7-0.867,9.517-1.9,14.45l-0.35,2.5
		c-0.101,0.934-0.184,2.533-0.25,4.8c-0.067,2.033-0.167,3.634-0.301,4.8l-0.6,6.851c-0.1,1.267-0.184,3.149-0.25,5.649l-0.6,4.75
		L71,265.8c0-7.233-0.1-12.666-0.3-16.3c-0.167-1.833-0.267-3.233-0.3-4.2c-0.034-1.733,0.1-3.066,0.399-4
		c0.033-0.1,0.417-0.934,1.15-2.5c0.333-0.866,0.533-1.666,0.6-2.399l0.05-1.25c0.067-1.167,0.067-2.967,0-5.4l-0.024-1.55
		l-0.075-4.65c0-2.2-0.05-4.434-0.15-6.7c-0.033-1.466,0.084-3.933,0.351-7.399c0.267-4.967,0.517-8.417,0.75-10.35
		c0.233-2.1,0.35-4.383,0.35-6.85c0-1.067-0.033-3.4-0.1-7c0.033-6.833-0.05-11.967-0.25-15.4c-0.367-5.633-0.55-12.55-0.55-20.75
		l0.05-11c0.467-6.967,0.633-12.117,0.5-15.45l1.05-33l0.1-3.15v9.6v6.8c0.101,19.833,0.367,42.1,0.801,66.8
		C75.6,184.633,75.7,192.167,75.7,192.3z M35.8,186.5l0.25-9.3c0.034,2.5,0.3,6.966,0.8,13.4l0.15,1.7
		c0.3,3.733,0.467,6.917,0.5,9.55l0.35,14.7c0.133,5,0.117,10.684-0.05,17.05l-0.1,3.5c-0.133,4.534-0.117,9.617,0.05,15.25
		c0.133,5.4,0.717,15.967,1.75,31.7c0.567,7.934,1.067,15.8,1.5,23.601c-0.067,0.833-0.1,2.066-0.1,3.699l-0.05,0.101l-0.1,7.85
		l-0.1,2.601c-0.2,1.566-0.333,2.533-0.4,2.899v0.05c0,12.801-0.383,23.15-1.15,31.051c-0.1,1.1-0.167,2.566-0.2,4.399
		c-0.033,2.167-0.083,3.667-0.15,4.5c-0.033,0.967-0.167,1.983-0.4,3.05c-0.233-0.399-0.467-0.767-0.7-1.1
		c-0.2-0.267-0.417-0.5-0.65-0.7c0.567-3.533,0.9-6.45,1-8.75c0.167-2.467,0.25-6.1,0.25-10.899c0-5.101,0.05-8.733,0.15-10.9
		l0.15-4.55v-0.45c0.2-0.2,0.417-0.6,0.65-1.2c-0.267-3.5-0.583-6.649-0.95-9.45c0-1.5-0.05-2.983-0.15-4.449
		c-0.167-2.067-0.5-4.65-1-7.75c-0.633-4.134-1.017-6.65-1.15-7.551c-0.4-6.699-0.7-11.699-0.9-15c-0.267-4.233-0.4-8.8-0.4-13.699
		c0-6-0.017-10.517-0.05-13.551c0-5.399,0.083-9.916,0.25-13.55c0.333-5.233,0.583-9.116,0.75-11.649
		c0.3-4.467,0.417-8.334,0.35-11.601c-0.2-11.133-0.317-19.467-0.35-25L35.8,186.5z M44.15,70c-0.133-8.167,0.1-18.233,0.7-30.2
		L44.15,70z M62.45,111.3c0,1.2-0.15,3.067-0.45,5.6c-0.267,2.4-0.4,4.217-0.4,5.45c-0.033-1.267,0.034-2.883,0.2-4.85
		c0.233-2.667,0.367-4.283,0.4-4.85c0.1-1.467,0.184-3.117,0.25-4.95V111.3z M54.55,102.95L55.1,71.9v45.15
		c0,9.8-0.017,15.317-0.05,16.55c-0.066,2.167-0.133,6.183-0.2,12.05c-0.233,5.2-0.817,8.867-1.75,11
		c-0.067-3.733-0.083-8.667-0.05-14.8c0.034-7.7,0.05-12.633,0.05-14.8c0-3.333,0.167-7.367,0.5-12.1
		C54.067,109.617,54.383,105.617,54.55,102.95z M78.55,203.4v0.6l-0.2-5v-2.05L78.55,203.4z M83.1,312.1L83,312.15l-0.25,0.05
		l-0.2-0.05c-0.333-0.134-0.6-0.517-0.8-1.15c-0.233-0.733-0.483-1.184-0.75-1.35l-0.3-0.101l-0.101-34.6l-1.35-47.05L78.9,216.3
		l0.5,5.7l2.25,25.3l0.449,5.05c0.9,12.767,1.284,25.317,1.15,37.65v4.95L83.1,312.1z"/>
	
		<line style="fill-rule:evenodd;clip-rule:evenodd;fill:none;stroke:#514941;stroke-width:0.1;stroke-linecap:round;stroke-linejoin:round;stroke-miterlimit:3;" x1="62.45" y1="102.35" x2="62.45" y2="103.55"/>
</g>
</svg>
