<?xml version="1.0" encoding="iso-8859-1"?>
<!-- Generator: Adobe Illustrator 15.1.0, SVG Export Plug-In . SVG Version: 6.00 Build 0)  -->
<!DOCTYPE svg PUBLIC "-//W3C//DTD SVG 1.1//EN" "http://www.w3.org/Graphics/SVG/1.1/DTD/svg11.dtd">
<svg version="1.1" id="Layer_1" xmlns="http://www.w3.org/2000/svg" xmlns:xlink="http://www.w3.org/1999/xlink" x="0px" y="0px"
	 width="185.3px" height="212.8px" viewBox="0 0 185.3 212.8" style="enable-background:new 0 0 185.3 212.8;" xml:space="preserve"
	>
<g>
	<path style="fill-rule:evenodd;clip-rule:evenodd;fill:#9B9286;" d="M168.95,45.45l-2.15,0.3l-0.45,0.1
		C167.217,45.617,168.083,45.483,168.95,45.45z M174.7,48.35c0.366,3.066,0.633,6.167,0.8,9.3l-0.2,8.25
		c0,0.133-0.483,2.867-1.45,8.2c-0.933,5.233-1.399,8.816-1.399,10.75c0,2.5,0.816,4.15,2.45,4.95c1.6,0.8,2.399,2.217,2.399,4.25
		c0,1.267-0.316,3.483-0.95,6.65c-0.633,3.167-0.949,5.233-0.949,6.2h-2.051c-3.233-1.2-5.366-2.383-6.399-3.55
		c0.666,1.566,1,3.05,1,4.45c0,0.9-0.05,2.566-0.15,5c-0.1,3-0.217,4.983-0.35,5.95l-0.101-11.95l-0.199,0.5
		c-0.167,0.8-0.684,5.533-1.551,14.2c-0.933,9.3-1.833,16.6-2.699,21.9c-0.067-4.467-0.867-14.9-2.4-31.301
		c-1.5-15.966-2.25-25.85-2.25-29.649c0-3.867,0.3-7.8,0.9-11.8c0.333-2.033,0.666-4.017,1-5.95c0.866,11.4,1.633,18.867,2.3,22.4
		c1.6,8.733,2.434,13.35,2.5,13.85l-0.05-1.2c0.5,0.733,0.933,1.433,1.3,2.1c-0.101-0.434-0.217-1.083-0.351-1.95
		c-0.199-1.233-0.566-2.4-1.1-3.5l-0.1-9.35c0-7.1,0.633-18.4,1.899-33.9c1.434,6.833,3.3,10.767,5.601,11.8l0.75-0.15l0.25-5.65
		c0-1.1-0.067-3.066-0.2-5.9c-0.2-3.6-0.417-5.883-0.65-6.85C172.7,46.667,173.5,47.317,174.7,48.35z M168,122.35l-0.2,9.65
		C167.634,126.3,167.7,123.083,168,122.35z M172.05,141.3c0.167-0.233,0.417-0.583,0.75-1.05c0.334-0.533,0.717-1.233,1.15-2.1
		l0.649,3.149H172.05z M168.6,151.15l-0.149-1.4c-0.134-1.9-0.267-4.583-0.4-8.05l0.3,0.7
		C168.35,142.733,168.434,145.65,168.6,151.15z M168.25,154.05l0.1-0.55l0.2-1.05C168.483,153.017,168.384,153.55,168.25,154.05z
		 M146.25,168.9c0.467,0,0.816-0.417,1.05-1.25c0.367-1.233,0.5-3.517,0.4-6.851c0-1.467,0.566-2.467,1.7-3
		c0.966-0.5,2.649-0.75,5.05-0.75c3.3,0,5.1,0.184,5.399,0.55c0.434,0.467,0.65,2.817,0.65,7.051c0,3.899-0.017,6-0.05,6.3
		c-0.233,1.866-0.95,2.8-2.15,2.8c-1,0-1.684-0.616-2.05-1.85c-0.366-1.2-0.45-3.117-0.25-5.75l-0.2,1.05l-3.649,12.2
		c-2.467-0.233-4.101-0.733-4.9-1.5c-0.767-0.801-1.15-2.5-1.15-5.101L146.25,168.9z M143.2,167.75
		c0.467-0.134,1.017-0.233,1.649-0.3l0.7,0.05C144.517,167.533,143.733,167.616,143.2,167.75z M129.15,200.35l-0.101,0.15
		c-0.566-12.866-0.85-21.983-0.85-27.35l0.05-11.351c0.066-4.333,0.233-9.233,0.5-14.7c0.066-2.366,0.4-7.416,1-15.149
		c0-4.4-0.35-9.917-1.05-16.55c-0.367-3.733-0.983-9.017-1.851-15.851c-1.433,16.334-2.166,27.384-2.199,33.15
		c-0.067,14.5-0.217,24.983-0.45,31.45c0,0.8-0.483,4.416-1.45,10.85c0,2.533,0.333,5.816,1,9.85c0.667,4,1,6.983,1,8.95
		c0,2.367-0.333,4.167-1,5.4c-0.7,1.233-2.4,3.066-5.1,5.5H118.6c-0.433-5.167-1.699-16.334-3.8-33.5l-0.3-6.2v3.7
		c-1.1-9.967-1.65-15.017-1.65-15.15c-0.3-3.3-0.6-8.6-0.899-15.899c0.233,3.233,0.649,7.25,1.25,12.05
		c0.833,6.533,1.267,10.467,1.3,11.8c0.033-2.467,0.134-14.333,0.3-35.6c0.101-13.2,0.217-23.333,0.351-30.4
		c-0.134,0.1-0.233-0.417-0.301-1.55c-0.033-0.567-0.05-1.15-0.05-1.75l0.4,1.85c0,0.934,0.217,3.2,0.649,6.8
		c0.5,4.566,1.051,7.35,1.65,8.35c0.5-1.267,0.717-4.7,0.65-10.3c-0.101-5.733,0.949-11.533,3.149-17.4
		c2.934-7.867,5.75-12.517,8.45-13.95c2.467-1.3,4.483-2.367,6.05-3.2c0.467-0.267,1.233-0.917,2.3-1.95
		c2.233,2.5,3.767,6.983,4.601,13.45c1.233,9.667,1.95,14.883,2.149,15.65c-1.933,8.7-2.949,15.267-3.05,19.7
		c-0.133,4.434-0.3,7.133-0.5,8.1c-0.767,3.5-1.316,5.884-1.649,7.15c-0.434,1.434-1.034,3.05-1.801,4.85
		c1.801-0.8,3.434-2.6,4.9-5.399c1.5-2.867,2.616-6.417,3.35-10.65l-0.399,9.8V124.4c-1.566,8.666-2.384,16.466-2.45,23.399
		c-0.1,11.434-0.217,18.167-0.35,20.2c-0.367,1.033-0.551,2.983-0.551,5.85c0.034,3.7-0.017,6.284-0.149,7.75
		c-0.667,6.767-3.684,11.334-9.05,13.7c0.6-4.033,1.333-15.1,2.199-33.2c0.434-9.166,0.851-18.6,1.25-28.3
		c0.167-0.1,0.584-0.934,1.25-2.5c-0.333,0-0.616,0.25-0.85,0.75c-0.267,0.467-0.4,1.05-0.4,1.75
		c-2.833,5.233-4.966,14.316-6.399,27.25c-0.967,8.434-1.45,15.45-1.45,21.05L129.15,200.35z M129.95,199.4
		c0.166-0.233,0.366-0.517,0.6-0.851c0.566-0.833,1.384-1.866,2.45-3.1c-0.033,0.1-0.566,0.816-1.6,2.149
		C130.767,198.4,130.283,199,129.95,199.4z M75,212.45l0.4,0.1l-0.45-0.1H75z M96.9,200.55l0.05-0.45c1-0.333,2.434-0.083,4.3,0.75
		c1.4,0.634,2.434,1.233,3.1,1.801c-0.1,0.066-0.916,0.233-2.449,0.5c-1.567,0.267-2.517,0.466-2.851,0.6c-0.6,0-1.1-0.3-1.5-0.9
		C97.116,202.217,96.9,201.45,96.9,200.55z M55.6,159.35c0.433,0.267,0.783,0.667,1.05,1.2c0.267,0.566,0.65,1.7,1.15,3.4
		c0.1-0.167,1-1.5,2.7-4c0.533-0.733,1.3-2.467,2.3-5.2c0.7-1.9,2.667-3.1,5.9-3.6c1.767-0.267,4.1-0.434,7-0.5
		c0.233,0.933,0.466,2.783,0.7,5.55c0.367,3.8,0.55,7.666,0.55,11.6c0,11.867-0.117,19.033-0.35,21.5
		c-0.233,2.566-1.083,5.517-2.55,8.851c-0.9-1.134-1.417-2.5-1.55-4.101c-0.3-4.566-0.667-8.3-1.1-11.2
		c-0.2,0.434-0.333,0.75-0.4,0.95c-0.167,0.3-0.283,0.45-0.35,0.45c-0.133,2.033-0.2,3.6-0.2,4.7c0,1.566,0.083,4.383,0.25,8.45
		c0.1,2.5,0.05,4.233-0.15,5.199c-0.433,2.301-2.667,3.634-6.7,4c-1.167-5.166-1.783-9.433-1.85-12.8
		c0.133-4.033,0.2-7.666,0.2-10.899c0-5.267-0.633-9.684-1.9-13.25C58.4,165.583,56.833,162.15,55.6,159.35z M47.85,166.25
		l-0.05-1.45l0.15,1.05L47.85,166.25z M34.25,149.1l1.3-2.149c-0.433,3.633-1.216,7.684-2.35,12.149
		c-1.333,4.967-2.3,8.733-2.9,11.301c-2.3,9.333-3.1,18.6-2.4,27.8c-0.3-0.767-0.533-6.033-0.7-15.8
		c-0.167-11.567-0.583-20.45-1.25-26.65c-0.333-3.333-0.483-5.983-0.45-7.95c-0.067-0.434-0.933-1-2.6-1.7
		c-0.8-0.333-3.066-1.017-6.8-2.05c-2.067-0.566-3.1-1.25-3.1-2.05c0-1.667-0.183-3.55-0.55-5.65
		c-0.267-1.533-0.967-5.216-2.1-11.05l0.2-5.399c0.267-2.667,0.333-4.767,0.2-6.301v-0.05l0.1-25c0.5,5.633,0.75,10.784,0.75,15.45
		c0,1,0.05,2.567,0.15,4.7c0.167,2.833,0.367,4.934,0.6,6.3l0.25-0.25l0.45-0.85l0.2-2.601c0-16.167-0.033-29.433-0.1-39.8
		c0.233-2.167,0.833-3.517,1.8-4.05c0.7-0.367,2.283-0.8,4.75-1.3l0.15-7.55c0-0.667-0.05-1.283-0.15-1.85l-0.25,1
		c-0.367,0.9-0.817,1.667-1.35,2.3c1.133-1.933,1.75-3.966,1.85-6.1c0.167-2.833,0.633-5.434,1.4-7.8
		c0.033,37.633-0.217,59.383-0.75,65.25c-0.633,0.3-1.05,3.85-1.25,10.649l0.45-1.85c1.1-6.033,2.284-12.134,3.55-18.3
		c0.833-4.833,1.566-11.633,2.2-20.4c0.3-1.4,1.434-7.8,3.4-19.2c1.8-10.533,2.9-16.517,3.3-17.95c0.567,4.1,1.4,8.117,2.5,12.05
		c0.867,3.167,1.3,5.233,1.3,6.2c0,0.633-0.1,1.183-0.3,1.65c-0.2,0.5-0.467,0.75-0.8,0.75c-1.233,0-2.117,4.483-2.65,13.45
		c-0.267,4.933-0.4,10.383-0.4,16.35c0,5.133,0.2,10.3,0.6,15.5c0.4,5.233,0.6,8,0.6,8.3l-0.75,29.5c-0.1,0.733-0.7,3.15-1.8,7.25
		c-1.066,3.967-1.6,6.134-1.6,6.5L29,163.1l0.9-0.899c1.133-1.467,2.2-3.667,3.2-6.601c0.8-2.433,1.2-4,1.2-4.699L34.25,149.1z
		 M10.8,88.1c-1.6,11.566-2.617,19.216-3.05,22.95c-0.633-0.166-1.55-0.767-2.75-1.8c-0.933-0.833-1.55-1.434-1.85-1.8
		c0.9-4.9,1.817-10.617,2.75-17.15c1.033-7.167,1.55-11.8,1.55-13.9c0.533-0.233,0.966-0.55,1.3-0.95c0.167-0.2,0.333-0.45,0.5-0.75
		C9.917,79.433,10.433,83.9,10.8,88.1z M67.55,0.35L74.25,0c1,0,2.017,0.133,3.05,0.4c0.934,0.233,1.6,0.5,2,0.8
		c-0.433,2.966-0.867,5.917-1.3,8.85c-0.8,5.833-1.2,12.717-1.2,20.65c0,2.367,0.083,4.933,0.25,7.7c0.233,3.9,0.567,6.45,1,7.65
		l0.15-0.2l1.65-3.95c0.3,0.367,0.517,0.633,0.65,0.8c0.2,0.233,0.367,0.35,0.5,0.35c0.2,2.133,0.3,3.383,0.3,3.75
		c0,1.733-0.483,5.9-1.45,12.5c-1,6.6-1.5,11.934-1.5,16c0,10-0.25,16.417-0.75,19.25c-0.567,3.2-1.95,5.35-4.15,6.45
		c-5.5,3.867-8.667,5.95-9.5,6.25c-3.767-0.066-5.934-0.116-6.5-0.15c-3-0.3-5.117-0.8-6.35-1.5c-0.633-0.4-1.217-0.9-1.75-1.5
		c0-7.867,0.05-14.1,0.15-18.7c3.933,8.333,5.967,12.617,6.1,12.85l-0.1-9.75c0.167,0.233,0.783,0.75,1.85,1.55
		c1.033,0.833,1.667,1.3,1.9,1.4c0.133-1.167,0.283-3.7,0.45-7.6c0.167-3.5,0.25-5.633,0.25-6.4c0-0.333-0.133-2.3-0.4-5.9
		c-0.2-3.533-0.216-5.6-0.05-6.2c0.3-0.9,0.817-1.767,1.55-2.6c0.534-0.633,0.8-1.467,0.8-2.5s-0.434-2.867-1.3-5.5l1.55-26.6
		c0.167-4.367,0.233-8.25,0.2-11.65c0.5,7.633,1.45,20.883,2.85,39.75l0.2-0.1c1.1-3.867,1.8-12,2.1-24.4
		c0.167-6.933,0.4-17.4,0.7-31.4H67.55z M120.5,29.1c0.8,9.9,1.384,15.383,1.75,16.45c-1.467,0.333-2.884,0.833-4.25,1.5
		c-0.6-0.333-1.217-1.667-1.85-4c-0.534-2.033-0.801-3.5-0.801-4.4l-0.1,0.35c-0.267,2.067-0.467,3.383-0.6,3.95
		c-0.134,0.833-0.534,1.25-1.2,1.25c-0.667,0-1.267-0.417-1.8-1.25c-0.634-0.9-0.934-1.967-0.9-3.2l0.75-7.7
		c0.967-0.167,1.6-0.583,1.9-1.25c0.233-0.5,1.366-0.966,3.399-1.4c0.066,0.934,0.134,4.417,0.2,10.45
		c0.033,2.066,0.634,0.066,1.8-6c-0.3,4.8-0.083,4.767,0.65-0.1c0.133-1.5,0.133-2.667,0-3.5c0.066-0.4,0.133-0.8,0.2-1.2
		L120.5,29.1z M108.15,31.6c-0.2,4.467-0.483,14.883-0.851,31.25c-0.366,14.9-0.55,22.8-0.55,23.7c0,3.5-1.517,9.383-4.55,17.65
		c-0.134,0.4-0.417,1.983-0.851,4.75c-0.433,2.666-0.649,4.116-0.649,4.35V125.4c-0.233,3.699-0.45,7.716-0.65,12.05
		c-0.366,8.5-0.55,18.434-0.55,29.8c0,6.667,0.233,11.816,0.7,15.45c0.033,0.8-0.134,1.467-0.5,2c-0.8,0.934-1.601,1.883-2.4,2.85
		c-0.5,0.601-0.75,1.483-0.75,2.65c0.101,1.434,0.15,2.5,0.15,3.2c-0.033,2.733-1.4,4.483-4.101,5.25
		c0.034-5.367-0.033-9.483-0.199-12.351c-0.301-4.666-1.134-9.6-2.5-14.8l-0.3-36.9c0.967-3.6,2.233-8.616,3.8-15.05
		c1.733-7.166,2.883-12.133,3.449-14.9c0.434-2.167,1.467-7.8,3.101-16.9c1.533-8.133,2.55-12.45,3.05-12.95
		c1.366-1.4,2.434-4.7,3.2-9.9c0.533-3.5,0.8-6.167,0.8-8c0-6.1-0.066-9.75-0.2-10.95c-0.033-0.267-0.616-3.583-1.75-9.95
		c0.434-1.633,0.8-3.217,1.101-4.75c0.233-1.267,0.333-2.05,0.3-2.35C106.95,29.833,107.517,30.733,108.15,31.6z M91.8,18.55
		c-0.4-0.7-0.75-1.45-1.05-2.25l1.9,3.2L91.8,18.55z M95.1,21.9l-0.449-0.35c0.233,0.133,0.883,0.35,1.949,0.65
		c1,0.267,1.634,0.417,1.9,0.45l-0.85-0.05l-1.45-0.25L95.1,21.9z M118.9,29.05c0.066-0.033,0.133-0.05,0.199-0.05
		c0,0.1,0,0.183,0,0.25C119.033,29.15,118.967,29.083,118.9,29.05z M142.8,40.95l0.05,0.05l0.2,12.8c-0.1-0.533-0.166-2.833-0.2-6.9
		C142.816,44.867,142.8,42.883,142.8,40.95z M139.75,36.55c0,2.333-0.566,4.333-1.7,6c-1.166,1.667-2.55,2.5-4.149,2.5
		c-3.101-0.066-5.851-0.033-8.25,0.1c0.033-0.233,0.633-2.1,1.8-5.6c1.133-3.6,1.684-5.833,1.649-6.7c2.167,1.033,4.2,1.7,6.101,2
		C136.8,35.117,138.316,35.683,139.75,36.55z M160,47.5c-0.1,0.967-0.3,1.583-0.6,1.85c-0.334,0.267-0.567,0.867-0.7,1.8
		c-0.566,3.533-0.733,14.717-0.5,33.55c-0.434-5.6-0.884-13.117-1.351-22.55c-0.466-8.833-0.666-13.7-0.6-14.6
		C157.316,47.683,158.566,47.667,160,47.5z M181.4,109.35c0.1,4.601,0.149,7.834,0.149,9.7c-0.033,3.101-0.316,5.9-0.85,8.4
		c-0.634,2.967-1.717,5.283-3.25,6.95c-1.7,1.5-2.867,2.75-3.5,3.75l-4.05-19.301c3.533-3.3,5.566-5.216,6.1-5.75
		c2.467-2.5,3.783-4.216,3.95-5.149l-0.2-1.3l-0.05-0.7l0.25,2C180.217,108.384,180.7,108.85,181.4,109.35z M161.95,140.15
		l0.6,5.899l-0.1,0.7L161.95,140.15z M152.2,94.5c1.2,6.867,2.233,12.067,3.1,15.6c1.233,4.434,2.417,8.95,3.55,13.551
		c0.034,7-0.616,13-1.949,18c-1.134,4.366-2.284,6.55-3.45,6.55c-0.4,0-0.7-0.084-0.9-0.25c-0.2-0.167-0.316-0.25-0.35-0.25
		l-0.2-2.75C152.134,142.783,152.2,125.967,152.2,94.5z M146.35,85.45l-0.05-41.3c0.101,2.867,0.434,5.533,1,8
		c0.767,2.9,1.3,5.15,1.601,6.75C149.866,64.5,149.017,73.35,146.35,85.45z M146.2,115.15c0.967-3.5,2-8.484,3.1-14.95
		c1.134-6.567,1.733-11.217,1.8-13.95l0.851,6.55l-5.65,28.75L146.2,115.15z M112.45,70.55l0.05-1.75l-0.3,2.75l-0.9,3.7l-0.899,2.1
		l-0.051-4.95l0.65,3.35l0.25-0.75c0.3-1.467,0.934-6.25,1.9-14.35c1.366-7.367,3.333-11.05,5.899-11.05c0.667,0,1.934,0.2,3.8,0.6
		c1.867,0.4,3.834,0.6,5.9,0.6c1.9,0,3.866-0.083,5.9-0.25c2.833-0.233,4.767-0.583,5.8-1.05c0.467,0.667,0.783,1.117,0.95,1.35
		c0.233,0.367,0.35,0.75,0.35,1.15c0,1.767-0.767,2.967-2.3,3.6c-1.634,0.333-2.517,0.5-2.65,0.5c-0.767,0.1-1.583,0.483-2.45,1.15
		c-0.933,0.7-2.35,1.217-4.25,1.55c-6.533,1.167-10.566,2.167-12.1,3C115.4,63.233,113.55,66.15,112.45,70.55z M113.45,70.55
		c-0.367,3.767-0.733,9.917-1.101,18.45c-0.333,8.267-0.699,14.3-1.1,18.1L111.5,96.2l-0.25,1.05c0.366-4.5,0.667-9.533,0.9-15.1
		c0.166-4.4,0.25-7.467,0.25-9.2L113.45,70.55z M110.5,86.4l-0.05-7.7l0.85-3.45l0.601-1.2L110.5,86.4z M94.35,78.65
		c0.134-10.033,0.4-15.733,0.801-17.1c0.3,6.467,0.466,10.2,0.5,11.2l0.6-2.35L94.35,78.65z M89.85,117.95l1.35-23.7l-0.2,6l0.2-0.4
		l-1.35,22.65V117.95z M48.45,82.65l-1.35,10.8c0.066-5.833,0.233-10.267,0.5-13.3L48.45,82.65z M57.15,76.15l-1.7,4.5
		c-0.4-30.2-0.567-47.983-0.5-53.35C55.55,39.367,56.283,55.65,57.15,76.15z M55.1,142.5c0.133-0.7,0.617-6.083,1.45-16.15
		c0.034-2.666,1.167-4.75,3.4-6.25c0.833-0.533,2.216-1.116,4.15-1.75c0.1-0.033,1-0.517,2.7-1.449c1.667-0.9,2.633-1.384,2.9-1.45
		c1.167-0.367,2.816-0.717,4.95-1.05c1.633-0.5,2.684-1.667,3.15-3.5l1.55,0.449v10c0,0.534-0.317,2.2-0.95,5
		c-0.6,2.867-0.933,4.617-1,5.25c-0.033,0.067-0.167,0.5-0.4,1.301c-0.533,1.767-0.817,2.866-0.85,3.3
		c-0.1,0.899-0.367,1.934-0.8,3.1c-0.367,1-0.617,1.533-0.75,1.601c-2.367,1.833-4.117,2.75-5.25,2.75l-4.5-1.4
		c-0.333,0-0.867,0.134-1.6,0.4c-0.733,0.233-1.267,0.35-1.6,0.35C60.85,143,58.667,142.833,55.1,142.5z M37.25,176.45
		c0.267-12.934,0.367-22.334,0.3-28.2c0.7,2.1,1.417,4.934,2.15,8.5c0.9,4.467,1.35,8.05,1.35,10.75c0,2-0.6,3.983-1.8,5.95
		C38.017,175.116,37.35,176.116,37.25,176.45z M36.35,198.8L37,185.95c0.133,5.7,0.05,9.983-0.25,12.85H36.35z M88.15,140.85
		l1.75-13.3l-0.3,7.05V131.2L88.15,140.85z M114.5,168.7l0.3,2.5l0.25,3.25L114.5,168.7z M87.2,186.25
		c0.133,1.967,0.2,4.833,0.2,8.6c0,0.667-0.133,4.017-0.4,10.051c-0.067-2.634-0.333-10.917-0.8-24.851
		C86.7,182.05,87.033,184.116,87.2,186.25z"/>
	<path style="fill-rule:evenodd;clip-rule:evenodd;fill:#898074;" d="M166.55,53.15c0.134-1.2,0.217-3.667,0.25-7.4l2.15-0.3
		l3.35,0.95c0.233,0.967,0.45,3.25,0.65,6.85c0.133,2.833,0.2,4.8,0.2,5.9l-0.25,5.65l-0.75,0.15
		C169.85,63.917,167.983,59.983,166.55,53.15z M175.5,57.65c-0.167-3.133-0.434-6.233-0.8-9.3c-0.033-0.067-0.05-0.133-0.05-0.2
		l0.8,0.8V49C175.616,50.733,175.634,53.617,175.5,57.65z M172.05,141.3L168.4,141.4l-0.051,1l-0.3-0.7
		c0.134,3.467,0.267,6.149,0.4,8.05l-0.101,3.75l-0.1,0.55c-0.467,1.2-0.783,1.9-0.95,2.101c-0.033,0.066-0.316,0.199-0.85,0.399
		l-1.101,0.05c-1.233,0.167-2.216,0.25-2.949,0.25c-0.267,2.801-0.4,5.384-0.4,7.75c0,3.101,0.1,6.601,0.3,10.5
		c0.134,2.067,0.084,3.267-0.149,3.601c-0.2,0.267-1.017,0.366-2.45,0.3c-2.066-0.1-4.184,0.05-6.351,0.45l-1.199-0.05l3.649-12.2
		l0.2-1.05c-0.2,2.633-0.116,4.55,0.25,5.75c0.366,1.233,1.05,1.85,2.05,1.85c1.2,0,1.917-0.934,2.15-2.8
		c0.033-0.3,0.05-2.4,0.05-6.3c0-4.233-0.217-6.584-0.65-7.051c-0.3-0.366-2.1-0.55-5.399-0.55c-2.4,0-4.084,0.25-5.05,0.75
		c-1.134,0.533-1.7,1.533-1.7,3l-1.4-39.25l5.65-28.75l0.25-1.25v2.95c0,31.467-0.066,48.283-0.2,50.45l0.2,2.75
		c0.033,0,0.149,0.083,0.35,0.25c0.2,0.166,0.5,0.25,0.9,0.25c1.166,0,2.316-2.184,3.45-6.55c1.333-5,1.983-11,1.949-18l-0.05-2
		c1.233,3.1,2.066,6.416,2.5,9.949c0.033,0.301,0.25,3.15,0.65,8.551l0.5,6.6l0.1-0.7l0.351-2.649
		c0.866-5.301,1.767-12.601,2.699-21.9c0.867-8.667,1.384-13.4,1.551-14.2l0.199-0.5l0.101,11.95c0.133-0.967,0.25-2.95,0.35-5.95
		c0.101-2.434,0.15-4.1,0.15-5c0-1.4-0.334-2.883-1-4.45c1.033,1.167,3.166,2.35,6.399,3.55h2.051c0-0.967,0.316-3.033,0.949-6.2
		c0.634-3.167,0.95-5.383,0.95-6.65c0-2.033-0.8-3.45-2.399-4.25c-1.634-0.8-2.45-2.45-2.45-4.95c0-1.934,0.467-5.517,1.399-10.75
		c0.967-5.333,1.45-8.067,1.45-8.2l-0.1,7.05c0,2.867,0.1,5.433,0.3,7.7l0.1,1.5c1.567-8.1,2.534-14.533,2.9-19.3
		c0.2-2.667,0.366-6.083,0.5-10.25c0.4,0.133,1.283,0.283,2.65,0.45c-0.5,13.233-0.75,21.083-0.75,23.55
		c0,5.133-0.2,11.433-0.601,18.9c-0.399,6.533-0.6,10.017-0.6,10.45c-0.334,0.033-1.084,0.383-2.25,1.05
		c-1.101,0.634-1.65,0.983-1.65,1.05l-0.3-0.85c-1.167,1.1-1.8,1.717-1.9,1.85l-0.3,0.351l2.15,0.199c1.366,0,2.283-0.199,2.75-0.6
		s0.983-1.184,1.55-2.35l0.2,1.3c-0.167,0.934-1.483,2.649-3.95,5.149c-0.533,0.534-2.566,2.45-6.1,5.75l4.05,19.301
		c0.633-1,1.8-2.25,3.5-3.75c1.533-1.667,2.616-3.983,3.25-6.95c0.533-2.5,0.816-5.3,0.85-8.4c0-1.866-0.05-5.1-0.149-9.7
		c0.8-0.399,1.35-1.433,1.649-3.1c0.566-3.067,0.834-9,0.8-17.8c0-17.767-0.116-29.284-0.35-34.55c0.967,1.4,1.45,4.067,1.45,8v54.5
		l0.35,11.649c0,7.667-1.666,11.851-5,12.55l-2.05,0.45c-0.6,0.134-1.816,0.217-3.65,0.25l-0.649-3.149
		c-0.434,0.866-0.816,1.566-1.15,2.1C172.467,140.717,172.217,141.066,172.05,141.3z M168,122.35c-0.3,0.733-0.366,3.95-0.2,9.65
		L168,122.35z M110.3,147.55c0.066,12.7,0.667,24.95,1.8,36.75c0.767,8.233,1.617,15,2.551,20.3l-2.301-0.149
		c-0.366-7.033-0.916-15.101-1.649-24.2c-0.4-4.667-0.601-11.083-0.601-19.25C110.1,157.9,110.167,153.417,110.3,147.55z
		 M145.7,125.05c-0.334,8.867-0.7,17.75-1.101,26.65c0.034-0.2,0.051,2.583,0.051,8.35l0.199,7.4
		c-0.633,0.066-1.183,0.166-1.649,0.3l-0.3,0.25c0.133-2.033,0.25-8.767,0.35-20.2c0.066-6.934,0.884-14.733,2.45-23.399V125.05z
		 M118.65,204.7c2.699-2.434,4.399-4.267,5.1-5.5c0.667-1.233,1-3.033,1-5.4c0-1.967-0.333-4.95-1-8.95c-0.667-4.033-1-7.316-1-9.85
		c0.967-6.434,1.45-10.05,1.45-10.85c0.233-6.467,0.383-16.95,0.45-31.45c0.033-5.767,0.767-16.816,2.199-33.15
		c0.867,6.833,1.483,12.117,1.851,15.851c0.7,6.633,1.05,12.149,1.05,16.55c-0.6,7.733-0.934,12.783-1,15.149
		c-0.267,5.467-0.434,10.367-0.5,14.7l-0.05,11.351c0,5.366,0.283,14.483,0.85,27.35c-0.233,0.9-0.75,1.634-1.55,2.2
		C126.033,203.767,123.083,204.434,118.65,204.7z M96.9,200.55v-2.75c-0.634,2-1.267,4.334-1.9,7c-0.566,1.667-1.583,2.5-3.05,2.5
		c-1.267,0-2.617-0.316-4.05-0.95c-0.7-0.333-1.15-0.633-1.35-0.899c-0.3-1.033-0.816-5-1.55-11.9c-0.533-5.1-1.45-8.033-2.75-8.8
		c-0.133,0.167-0.5,0.75-1.1,1.75c-0.566,0.967-0.883,1.517-0.95,1.65L79.9,154l-0.05,1.4c-0.934,20.767-1.833,35.267-2.7,43.5
		c-0.033,0.033-0.75,4.55-2.15,13.55h-0.05c-1.4-0.4-2.817-0.533-4.25-0.4c-1.367,0.267-2.317,0.417-2.85,0.45
		c-1.6,0.033-2.934-1.934-4-5.9c4.033-0.366,6.267-1.699,6.7-4c0.2-0.966,0.25-2.699,0.15-5.199c-0.167-4.067-0.25-6.884-0.25-8.45
		c0-1.101,0.066-2.667,0.2-4.7c0.067,0,0.184-0.15,0.35-0.45c0.067-0.2,0.2-0.517,0.4-0.95c0.434,2.9,0.8,6.634,1.1,11.2
		c0.133,1.601,0.65,2.967,1.55,4.101c1.467-3.334,2.317-6.284,2.55-8.851c0.233-2.467,0.35-9.633,0.35-21.5
		c0-3.934-0.184-7.8-0.55-11.6c-0.233-2.767-0.467-4.617-0.7-5.55l0.95-1.2c-3.267-2.101-5.6-3.15-7-3.15c-0.3,0-1.3,0.217-3,0.65
		c-1.733,0.399-3.45,0.6-5.15,0.6c-0.1,0-2.533-0.083-7.3-0.25c-1.067-0.033-2.45,0.2-4.15,0.7l-0.35-5.8
		c0.667,0.233,1.316,0.333,1.95,0.3c1.067-0.1,2.217-0.1,3.45,0c3.566,0.333,5.75,0.5,6.55,0.5c0.333,0,0.867-0.116,1.6-0.35
		c0.733-0.267,1.267-0.4,1.6-0.4l4.5,1.4c1.133,0,2.883-0.917,5.25-2.75c0.133-0.067,0.383-0.601,0.75-1.601
		c0.433-1.166,0.7-2.2,0.8-3.1c0.033-0.434,0.317-1.533,0.85-3.3c0.233-0.801,0.367-1.233,0.4-1.301c0.067-0.633,0.4-2.383,1-5.25
		c0.633-2.8,0.95-4.466,0.95-5v-10L77.8,110.9c-3.066-0.267-7.233-0.467-12.5-0.601c-3.8-0.133-6.417-0.2-7.85-0.2
		c-0.567,0-1.833,0.334-3.8,1c-1.867,0.634-3.3,1.2-4.3,1.7v-8.7c0.533,0.6,1.117,1.1,1.75,1.5c1.233,0.7,3.35,1.2,6.35,1.5
		c1,0.167,2.167,0.267,3.5,0.301c1.367,0.033,2.367-0.017,3-0.15c0.833-0.3,4-2.383,9.5-6.25c2.2-1.1,3.583-3.25,4.15-6.45
		c0.5-2.833,0.75-9.25,0.75-19.25c0-4.066,0.5-9.4,1.5-16c0.967-6.6,1.45-10.767,1.45-12.5c0-0.367-0.1-1.617-0.3-3.75
		c-0.133,0-0.3-0.117-0.5-0.35c-0.133-0.167-0.35-0.434-0.65-0.8l-1.65,3.95l-0.15,0.2c-0.433-1.2-0.767-3.75-1-7.65
		c-0.167-2.767-0.25-5.333-0.25-7.7c0-7.934,0.4-14.817,1.2-20.65c0.433-2.933,0.867-5.883,1.3-8.85
		c0.333,0.333,0.617,0.617,0.85,0.85C80.517,2.45,80.8,2.933,81,3.5l0.65,1.7c0.2,4.933,1.167,8.167,2.9,9.7
		c1.067,0.934,2.517,1.184,4.35,0.75c0,0.133-0.417,1.967-1.25,5.5c-0.9,3.9-1.5,7.184-1.8,9.85c-0.067,0-0.283,0.45-0.65,1.35
		c-0.567-0.967-1.133-3.8-1.7-8.5c-0.467-3.967-0.783-7.65-0.95-11.05c-0.033,0-0.133-0.45-0.3-1.35c-0.267,0.733-0.4,3.3-0.4,7.7
		C81.317,27.483,81,33.3,80.9,36.6v0.1c0.133-0.633,0.367-1.217,0.7-1.75c0.533-0.733,0.983-1.1,1.35-1.1
		c1.667,0,3.3,3.45,4.9,10.35c1.7,7.333,2.217,14.483,1.55,21.45l0.05,0.95c0.833-7.033,1.283-15.25,1.35-24.65
		c0.034-9.733,0.367-17.534,1-23.4l0.851,0.95c0.433,0.333,1.1,1.017,2,2.05L95.1,21.9c-0.267,4.2-0.533,8.6-0.8,13.2
		c-0.566,9.2-0.85,17.433-0.85,24.7l0.1,1.75c1.8-3.233,5.25-10.617,10.351-22.15c-0.934,5.934-2,10.6-3.2,14
		c-1.533,4.434-3.384,7.15-5.55,8.15c-0.4,1.367-0.667,7.067-0.801,17.1c0.567,6.733,0.25,12.2-0.949,16.4
		c-1.367,2.967-2.101,4.567-2.2,4.8l-0.2,0.4l0.2-6c0.033-6.367,0.133-14.4,0.3-24.1l-1.3,24c0,3.934-1.3,11.75-3.9,23.45
		c-2.6,11.7-3.9,18.217-3.9,19.551c-0.1,1.066-0.15,1.933-0.15,2.6c0,1.2,0.2,1.8,0.6,1.8c1.667,9.566,2.767,20.367,3.3,32.4
		c0.2,4.6,0.667,8.333,1.4,11.2c1.867,7.166,3.083,12.116,3.65,14.85c0.233-4.6,0.35-9.566,0.35-14.9c0-2.333-0.083-4.267-0.25-5.8
		c-0.367-2.934-1.05-6.283-2.05-10.05l0.4,1.35c0.1,0.301,0.184,0.601,0.25,0.9c1.367,5.2,2.2,10.134,2.5,14.8
		c0.166,2.867,0.233,6.983,0.199,12.351c2.7-0.767,4.067-2.517,4.101-5.25c0-0.7-0.05-1.767-0.15-3.2c0-1.167,0.25-2.05,0.75-2.65
		c0.8-0.967,1.601-1.916,2.4-2.85c0.366-0.533,0.533-1.2,0.5-2c-0.467-3.634-0.7-8.783-0.7-15.45c0-11.366,0.184-21.3,0.55-29.8
		c0.2-4.334,0.417-8.351,0.65-12.05V113.3c0-0.233,0.217-1.684,0.649-4.35c0.434-2.767,0.717-4.35,0.851-4.75
		c3.033-8.267,4.55-14.15,4.55-17.65c0-0.9,0.184-8.8,0.55-23.7c0.367-16.367,0.65-26.783,0.851-31.25
		c0.3,0.267,1.416,0.417,3.35,0.45l-0.75,7.7l-0.7-5.9l-0.1-0.45c-0.167,1.4-0.267,5.3-0.3,11.7
		c-0.067,7.6-0.167,13.083-0.301,16.45l-0.1,1.2l1.3-5.65l-0.2,15.3l0.051,4.95c-0.034-0.233-0.051-0.017-0.051,0.65
		c0,0.433,0.017,0.667,0.051,0.7h0.05l0.05,7.7c-0.667,15.434-2,30.5-4,45.2c-1.634,12-2.45,24.784-2.45,38.351
		c0,1.133,0.233,4.666,0.7,10.6c0.2,2.934,0.417,5.867,0.65,8.8c0,4.067-0.7,6.801-2.101,8.2c1.167,0.101,2,0.533,2.5,1.3
		c0.3,0.467,0.45,0.983,0.45,1.551c0,0.566-0.2,1.05-0.6,1.449c-0.2,0.167-0.634,0.434-1.301,0.801
		c-0.666-0.567-1.699-1.167-3.1-1.801c-1.866-0.833-3.3-1.083-4.3-0.75L96.9,200.55z M47.8,164.8l0.05,1.45
		c0.2,1.733,0.083,3.066-0.35,4c-0.2,0.434-0.767,1.134-1.7,2.1c-1.8,1.9-2.733,5-2.8,9.301c-0.1,6.3-0.283,10.783-0.55,13.449
		c-0.367,3.634-1.1,6.9-2.2,9.801c-1-0.2-3.067-1.117-6.2-2.75c-2.966-1.567-4.85-2.667-5.65-3.301l-0.35-0.449
		c2.034,0,4.8,0.133,8.3,0.399h0.4c0.3-2.866,0.383-7.149,0.25-12.85l-0.15-6.101c0-1.133,0.133-2.267,0.4-3.399
		c0.1-0.334,0.767-1.334,2-3c1.2-1.967,1.8-3.95,1.8-5.95c0-2.7-0.45-6.283-1.35-10.75c-0.733-3.566-1.45-6.4-2.15-8.5L37,146.3
		c-0.3,0.066-0.633,0.2-1,0.4l-0.45,0.25l-1.3,2.149c0.1-2.233,0.433-5.233,1-9c0.467-3.267,0.7-6.5,0.7-9.699
		c0-3.767-0.034-6.467-0.1-8.101c-1.267,10.334-2.434,18.934-3.5,25.8l0.75-29.5c0-0.3-0.2-3.066-0.6-8.3
		c-0.4-5.2-0.6-10.367-0.6-15.5c0-5.966,0.133-11.417,0.4-16.35C32.833,69.483,33.717,65,34.95,65c0.333,0,0.6-0.25,0.8-0.75
		c0.2-0.467,0.3-1.017,0.3-1.65c0-0.967-0.433-3.033-1.3-6.2c-1.1-3.933-1.933-7.95-2.5-12.05c0.8-1.6,1.25-4.517,1.35-8.75
		c0.066-2.467,0.183-6.667,0.35-12.6c0.233,0,1.617-0.033,4.15-0.1c-0.067-3.6,1.35-5.383,4.25-5.35l-0.1,4c0,3,0.15,5.667,0.45,8
		c0.367,2.9,0.633,6.8,0.8,11.7c0.2,5.6,0.167,12.7-0.1,21.3C43.133,70.117,43,74.067,43,74.4l0.05,4.3c0.1,0,0.233,0.583,0.4,1.75
		c0.1-0.7,1.216-9.55,3.35-26.55c2.133-17.133,3.583-28.417,4.35-33.85c2.167,2.467,2.95,4.35,2.35,5.65
		c-0.533,0.833-0.95,1.55-1.25,2.15c-0.6,1.1-0.983,2.316-1.15,3.65c-0.7,3.633-1.2,6.483-1.5,8.55c-0.5,3.233-0.75,6.483-0.75,9.75
		c0,14.534-0.417,24.65-1.25,30.35c-0.267,3.033-0.434,7.467-0.5,13.3c-0.1,3.267-0.633,9.566-1.6,18.899
		c-1.033,9.867-1.567,15.15-1.6,15.851c-0.433,1.6-0.65,3.1-0.65,4.5l0.05,1.899l0.55-4.449c0,0.166,0,0.383,0,0.649
		c0,5.9,0.483,11.267,1.45,16.101C46.533,153.066,47.367,159.033,47.8,164.8z M7.75,111.05c0.433-3.733,1.45-11.383,3.05-22.95
		c0.032-0.095,0.049-0.179,0.05-0.25v0.7l-0.1,25c-0.033-0.666-0.317-1.25-0.85-1.75C9.3,111.3,8.583,111.05,7.75,111.05z
		 M23.8,86.05l-0.25,4.45l2-9c-0.633,8.767-1.367,15.567-2.2,20.4c-1.267,6.167-2.45,12.267-3.55,18.3l-0.45,1.85
		c0.2-6.8,0.617-10.35,1.25-10.649c0.533-5.867,0.783-27.617,0.75-65.25c0.6-0.9,1.117-1.583,1.55-2.05l0.35-0.45v0.05
		c0.1,13.933,0.133,29.167,0.1,45.7L23.8,86.05z M164.9,99.75l-0.15-3.35c0.533,1.1,0.9,2.267,1.1,3.5
		c0.134,0.867,0.25,1.517,0.351,1.95C165.833,101.183,165.4,100.483,164.9,99.75z M97.65,22.6l0.1,3.9c0,0.533-0.05,1.417-0.15,2.65
		c-0.1,1.333-0.199,2.217-0.3,2.65c-0.233,0.534-0.366,0.817-0.399,0.85l-0.4,0.15c-0.233-2.233-0.35-3.966-0.35-5.2l0.05-5.25
		L97.65,22.6z M89.85,117.95v4.55c0.133,1.866,0.15,3.55,0.05,5.05l-1.75,13.3l-0.45,3.2c-0.434-3.833-0.217-9.166,0.65-16
		C88.783,124.616,89.283,121.25,89.85,117.95z M87.2,186.25c-0.167-2.134-0.5-4.2-1-6.2c0.466,13.934,0.733,22.217,0.8,24.851
		c0.267-6.034,0.4-9.384,0.4-10.051C87.4,191.083,87.333,188.217,87.2,186.25z"/>
	<path style="fill-rule:evenodd;clip-rule:evenodd;fill:#B3AA9E;" d="M162.55,146.05l-0.6-5.899c-0.4-5.4-0.617-8.25-0.65-8.551
		c-0.434-3.533-1.267-6.85-2.5-9.949l0.05,2c-1.133-4.601-2.316-9.117-3.55-13.551c-0.866-3.533-1.899-8.733-3.1-15.6v-2.95
		l-0.25,1.25l-0.851-6.55c-0.066,2.733-0.666,7.383-1.8,13.95c-1.1,6.466-2.133,11.45-3.1,14.95v-2.95l-0.101,3.05
		c-0.733,4.233-1.85,7.783-3.35,10.65c-1.467,2.8-3.1,4.6-4.9,5.399c0.767-1.8,1.367-3.416,1.801-4.85
		c0.333-1.267,0.883-3.65,1.649-7.15c0.2-0.967,0.367-3.666,0.5-8.1c0.101-4.434,1.117-11,3.05-19.7
		c0.367,0.733,0.551,3.25,0.551,7.55l-0.051,2c0.467-2.867,0.801-8.066,1-15.6c2.667-12.1,3.517-20.95,2.551-26.55
		c-0.301-1.6-0.834-3.85-1.601-6.75c-0.566-2.467-0.899-5.133-1-8l-0.05-1.25c0.7,0.267,1.767,1.067,3.2,2.4
		c1.1,1,3.366,1.75,6.8,2.25c-0.066,0.9,0.134,5.767,0.6,14.6c0.467,9.434,0.917,16.95,1.351,22.55
		c-0.233-18.833-0.066-30.017,0.5-33.55c0.133-0.933,0.366-1.533,0.7-1.8c0.3-0.267,0.5-0.883,0.6-1.85
		c1.033-0.167,2.25-0.467,3.65-0.9c1.366-0.434,2.267-0.684,2.699-0.75l0.45-0.1c-0.033,3.733-0.116,6.2-0.25,7.4
		c-1.267,15.5-1.899,26.8-1.899,33.9l0.1,9.35l0.15,3.35l0.05,1.2c-0.066-0.5-0.9-5.117-2.5-13.85c-0.667-3.533-1.434-11-2.3-22.4
		c-0.334,1.933-0.667,3.917-1,5.95c-0.601,4-0.9,7.934-0.9,11.8c0,3.8,0.75,13.683,2.25,29.649c1.533,16.4,2.333,26.834,2.4,31.301
		L162.55,146.05z M179,52.6c-0.134,4.167-0.3,7.583-0.5,10.25c-0.366,4.767-1.333,11.2-2.9,19.3l-0.1-1.5
		c-0.2-2.267-0.3-4.833-0.3-7.7l0.1-7.05l0.2-8.25c0.134-4.033,0.116-6.917-0.05-8.65v-0.05l0.35,0.35
		C177,50.867,178.066,51.967,179,52.6z M133.15,195.3l-0.15,0.15c-1.066,1.233-1.884,2.267-2.45,3.1
		c-0.233,0.334-0.434,0.617-0.6,0.851c-0.167,0.199-0.3,0.35-0.4,0.449l-0.399,0.5l-0.4-18.25c0-5.6,0.483-12.616,1.45-21.05
		c1.434-12.934,3.566-22.017,6.399-27.25c0-0.7,0.134-1.283,0.4-1.75c0.233-0.5,0.517-0.75,0.85-0.75
		c-0.666,1.566-1.083,2.4-1.25,2.5c-0.399,9.7-0.816,19.134-1.25,28.3C134.483,180.2,133.75,191.267,133.15,195.3z M114.65,204.6
		c-0.934-5.3-1.784-12.066-2.551-20.3c-1.133-11.8-1.733-24.05-1.8-36.75l0.05-6.35c0.034-2.8,0.084-5.634,0.15-8.5
		c0.5-14.733,0.75-23.267,0.75-25.601c0.4-3.8,0.767-9.833,1.1-18.1c0.367-8.533,0.733-14.683,1.101-18.45
		c3.934-4.833,9.083-7.633,15.45-8.4c3.233-0.4,6.3-0.316,9.199,0.25c-1.066,1.033-1.833,1.684-2.3,1.95
		c-1.566,0.833-3.583,1.9-6.05,3.2c-2.7,1.434-5.517,6.083-8.45,13.95c-2.2,5.867-3.25,11.667-3.149,17.4
		c0.066,5.6-0.15,9.034-0.65,10.3c-0.6-1-1.15-3.784-1.65-8.35c-0.433-3.6-0.649-5.867-0.649-6.8l-0.4-1.85
		c0,0.6,0.017,1.183,0.05,1.75c0.067,1.133,0.167,1.65,0.301,1.55c-0.134,7.067-0.25,17.2-0.351,30.4
		c-0.166,21.267-0.267,33.133-0.3,35.6c-0.033-1.333-0.467-5.267-1.3-11.8c-0.601-4.8-1.017-8.816-1.25-12.05
		c0.3,7.3,0.6,12.6,0.899,15.899c0,0.134,0.551,5.184,1.65,15.15V165l0.3,6.2c2.101,17.166,3.367,28.333,3.8,33.5L114.65,204.6z
		 M50.5,162.8c0.033-3.8-0.117-8.733-0.45-14.8c1.7-0.5,3.083-0.733,4.15-0.7c4.767,0.167,7.2,0.25,7.3,0.25
		c1.7,0,3.417-0.2,5.15-0.6c1.7-0.434,2.7-0.65,3-0.65c1.4,0,3.733,1.05,7,3.15l-0.95,1.2c-2.9,0.066-5.233,0.233-7,0.5
		c-3.233,0.5-5.2,1.699-5.9,3.6c-1,2.733-1.767,4.467-2.3,5.2c-1.7,2.5-2.6,3.833-2.7,4c-0.5-1.7-0.883-2.834-1.15-3.4
		c-0.267-0.533-0.617-0.934-1.05-1.2c-0.767,0.934-1.317,1.517-1.65,1.75C53.583,161.333,52.433,161.9,50.5,162.8z M37,185.95
		l-0.65,12.85c-3.5-0.267-6.267-0.399-8.3-0.399l-0.15-0.2c-0.7-9.2,0.1-18.467,2.4-27.8c0.6-2.567,1.567-6.334,2.9-11.301
		c1.133-4.466,1.917-8.517,2.35-12.149L36,146.7c0.367-0.2,0.7-0.334,1-0.4l0.55,1.95c0.067,5.866-0.033,15.267-0.3,28.2
		c-0.267,1.133-0.4,2.267-0.4,3.399L37,185.95z M7.45,76.4c0,2.1-0.517,6.733-1.55,13.9c-0.933,6.534-1.85,12.25-2.75,17.15
		l-0.55-1.2c-0.467-1.133-0.934-2.433-1.4-3.9l-0.3-2.2C-0.6,95.783-0.183,90.733,2.15,85C3.983,80.567,5.75,77.7,7.45,76.4z
		 M10.85,88.55v-0.7c-0.001,0.071-0.019,0.155-0.05,0.25c-0.367-4.2-0.883-8.667-1.55-13.4c0.333-1.067,0.517-2.417,0.55-4.05
		L9.6,66.4c0-1.133,0.133-1.883,0.4-2.25c0.2-0.267,0.683-0.467,1.45-0.6c2.3-0.4,4.517-1.566,6.65-3.5
		c0.533-0.633,0.983-1.4,1.35-2.3l0.25-1c0.1,0.567,0.15,1.183,0.15,1.85l-0.15,7.55c-2.467,0.5-4.05,0.934-4.75,1.3
		c-0.967,0.533-1.567,1.883-1.8,4.05c0.067,10.367,0.1,23.633,0.1,39.8l-0.2,2.601l-0.45,0.85L12.35,115
		c-0.233-1.366-0.434-3.467-0.6-6.3c-0.1-2.133-0.15-3.7-0.15-4.7C11.6,99.333,11.35,94.183,10.85,88.55z M120.5,29.1l4.55,0.4
		c0.367,0.5,0.733,0.933,1.101,1.3c1.033,0.867,2.017,1.55,2.949,2.05c0.034,0.867-0.517,3.1-1.649,6.7
		c-1.167,3.5-1.767,5.367-1.8,5.6c2.399-0.133,5.149-0.167,8.25-0.1c-0.567,0.133-1.851,0.2-3.851,0.2
		c-2-0.033-3.483,0.083-4.45,0.35c-4.399,1.267-6.933,1.75-7.6,1.45c1.366-0.667,2.783-1.167,4.25-1.5
		C121.884,44.483,121.3,39,120.5,29.1z M67.55,0.35h0.6c-0.3,14-0.533,24.467-0.7,31.4c-0.3,12.4-1,20.533-2.1,24.4l-0.2,0.1
		c-1.4-18.867-2.35-32.117-2.85-39.75c0.034,3.4-0.033,7.283-0.2,11.65l-1.55,26.6c0.867,2.633,1.3,4.467,1.3,5.5
		s-0.267,1.867-0.8,2.5c-0.733,0.833-1.25,1.7-1.55,2.6c-0.167,0.6-0.15,2.667,0.05,6.2c0.267,3.6,0.4,5.567,0.4,5.9
		c0,0.767-0.083,2.9-0.25,6.4c-0.167,3.9-0.317,6.433-0.45,7.6c-0.233-0.1-0.867-0.567-1.9-1.4c-1.067-0.8-1.684-1.316-1.85-1.55
		l0.1,9.75c-0.133-0.233-2.167-4.517-6.1-12.85c0.233-4.933,0.533-9.9,0.9-14.9c0.3-3.8,0.45-6.2,0.45-7.2l-2.4,19.35l-0.85-2.5
		c0.833-5.7,1.25-15.816,1.25-30.35c0-3.267,0.25-6.517,0.75-9.75c0.3-2.066,0.8-4.917,1.5-8.55c0.167-1.333,0.55-2.55,1.15-3.65
		c0.3-0.6,0.717-1.317,1.25-2.15c0.6-1.3-0.183-3.184-2.35-5.65c-0.667-1.066-1.2-1.966-1.6-2.7c-0.133-0.167-0.533-0.25-1.2-0.25
		c-3.267,0.3-5.267,0.45-6,0.45c-2.9-0.033-4.317,1.75-4.25,5.35c-2.533,0.067-3.917,0.1-4.15,0.1
		c-0.167,5.933-0.284,10.133-0.35,12.6c-0.1,4.233-0.55,7.15-1.35,8.75c-0.4,1.433-1.5,7.417-3.3,17.95
		c-1.967,11.4-3.1,17.8-3.4,19.2l-2,9l0.25-4.45c0.534-4.2,1.15-10.883,1.85-20.05c0.8-10.233,1.2-17.55,1.2-21.95
		c0-0.267-0.133-2.133-0.4-5.6c0.3-2.534,0.767-7.467,1.4-14.8c0.1-1.133,0.5-2.316,1.2-3.55c5.867-2.467,9.934-3.667,12.2-3.6
		c0.7,0.033,1.75,0.15,3.15,0.35c1.5,0.167,3.2,0.167,5.1,0L51,16.7c0.3-2.1,0.683-4.934,1.15-8.5C52.583,5.533,53.2,3.8,54,3
		l1.65-0.8c0.6-0.167,2.667-0.517,6.2-1.05C65.317,0.617,67.217,0.35,67.55,0.35z M116.8,29.4c0.934-0.667,1.634-0.783,2.101-0.35
		c0.066,0.034,0.133,0.1,0.199,0.2c0-0.067,0-0.15,0-0.25l0.551,0.05c-0.067,0.4-0.134,0.8-0.2,1.2c0.133,0.833,0.133,2,0,3.5
		c-0.733,4.867-0.95,4.9-0.65,0.1c-1.166,6.066-1.767,8.066-1.8,6C116.934,33.817,116.866,30.333,116.8,29.4z M110.35,72.4l0.2-15.3
		c0.334-1.767,0.7-3.684,1.101-5.75c0.267-1.2,0.683-1.95,1.25-2.25c0.8-0.434,3.866-0.417,9.199,0.05c1.9,0,4.017-0.383,6.351-1.15
		c2.3-0.8,4.566-1.2,6.8-1.2c0.233,0,0.934,0.267,2.1,0.8c1.367,0.633,2.4,1.267,3.101,1.9c-1.033,0.467-2.967,0.817-5.8,1.05
		c-2.034,0.167-4,0.25-5.9,0.25c-2.066,0-4.033-0.2-5.9-0.6c-1.866-0.4-3.133-0.6-3.8-0.6c-2.566,0-4.533,3.683-5.899,11.05
		c-0.967,8.1-1.601,12.883-1.9,14.35L111,75.75L110.35,72.4z M103.9,39.4l1.149-3.4c1.134,6.367,1.717,9.683,1.75,9.95
		c0.134,1.2,0.2,4.85,0.2,10.95c0,1.833-0.267,4.5-0.8,8c-0.767,5.2-1.834,8.5-3.2,9.9c-0.5,0.5-1.517,4.817-3.05,12.95
		c-1.634,9.1-2.667,14.733-3.101,16.9c-0.566,2.767-1.716,7.734-3.449,14.9c-1.567,6.434-2.833,11.45-3.8,15.05l0.3,36.9
		c-0.066-0.3-0.15-0.6-0.25-0.9l-0.4-1.35l-0.8-2.6c-0.267-4.834-0.517-12.367-0.75-22.601l0.45-3.2l1.45-9.649v3.399l0.3-7.05
		c0.1-1.5,0.083-3.184-0.05-5.05l1.35-22.65c0.1-0.233,0.833-1.833,2.2-4.8c1.199-4.2,1.517-9.667,0.949-16.4l1.9-8.25l-0.6,2.35
		c-0.034-1-0.2-4.733-0.5-11.2c2.166-1,4.017-3.716,5.55-8.15C101.9,50,102.967,45.333,103.9,39.4z M63.95,107.25
		c-0.633,0.134-1.633,0.184-3,0.15c-1.333-0.034-2.5-0.134-3.5-0.301C58.017,107.134,60.183,107.184,63.95,107.25z M57.15,76.15
		c-0.867-20.5-1.6-36.783-2.2-48.85c-0.067,5.367,0.1,23.15,0.5,53.35L57.15,76.15z M49.7,142.2c-0.2-6.467-0.317-16.267-0.35-29.4
		c1-0.5,2.433-1.066,4.3-1.7c1.967-0.666,3.233-1,3.8-1c1.433,0,4.05,0.067,7.85,0.2c5.267,0.134,9.434,0.334,12.5,0.601
		c-0.466,1.833-1.517,3-3.15,3.5c-2.133,0.333-3.783,0.683-4.95,1.05c-0.267,0.066-1.233,0.55-2.9,1.45
		c-1.7,0.933-2.6,1.416-2.7,1.449c-1.934,0.634-3.317,1.217-4.15,1.75c-2.233,1.5-3.367,3.584-3.4,6.25
		c-0.833,10.067-1.316,15.45-1.45,16.15c-1.233-0.1-2.383-0.1-3.45,0C51.017,142.533,50.367,142.434,49.7,142.2z M114.5,168.7
		l0.55,5.75l-0.25-3.25L114.5,168.7z"/>
	<path style="fill-rule:evenodd;clip-rule:evenodd;fill:#635B52;" d="M183.5,53.9c0.233,5.267,0.35,16.783,0.35,34.55
		c0.034,8.8-0.233,14.733-0.8,17.8c-0.3,1.667-0.85,2.7-1.649,3.1c-0.7-0.5-1.184-0.966-1.45-1.399l-0.25-2
		c0-0.434,0.2-3.917,0.6-10.45c0.4-7.467,0.601-13.767,0.601-18.9c0-2.467,0.25-10.317,0.75-23.55
		C182.35,53.183,182.967,53.467,183.5,53.9z M50.5,162.8c-0.267,0.134-0.733,0.601-1.4,1.4c-0.633,0.8-1.017,1.35-1.15,1.649
		l-0.15-1.05c-0.433-5.767-1.267-11.733-2.5-17.899c-0.966-4.834-1.45-10.2-1.45-16.101c0-0.267,0-0.483,0-0.649l0.05-0.301
		c0.2-1.533,0.2-2.083,0-1.649c0.033-0.7,0.567-5.983,1.6-15.851c0.967-9.333,1.5-15.633,1.6-18.899l1.35-10.8l2.4-19.35
		c0,1-0.15,3.4-0.45,7.2c-0.367,5-0.667,9.967-0.9,14.9c-0.1,4.6-0.15,10.833-0.15,18.7v8.7c0.033,13.134,0.15,22.934,0.35,29.4
		l0.35,5.8C50.383,154.066,50.533,159,50.5,162.8z M146.1,115.25l0.101-3.05v2.95l0.1,6.399l1.4,39.25
		c0.1,3.334-0.033,5.617-0.4,6.851c-0.233,0.833-0.583,1.25-1.05,1.25l-0.05-1.351l-0.65-0.05l-0.7-0.05l-0.199-7.4
		c0-5.767-0.017-8.55-0.051-8.35c0.4-8.9,0.767-17.783,1.101-26.65L146.1,115.25z M110.3,147.55c-0.133,5.867-0.2,10.351-0.2,13.45
		c0,8.167,0.2,14.583,0.601,19.25c0.733,9.1,1.283,17.167,1.649,24.2c-0.533-0.033-3.083-0.117-7.649-0.25
		c-2.533-0.101-4.417-0.25-5.65-0.45c0.334-0.134,1.283-0.333,2.851-0.6c1.533-0.267,2.35-0.434,2.449-0.5
		c0.667-0.367,1.101-0.634,1.301-0.801c0.399-0.399,0.6-0.883,0.6-1.449c0-0.567-0.15-1.084-0.45-1.551
		c-0.5-0.767-1.333-1.199-2.5-1.3c1.4-1.399,2.101-4.133,2.101-8.2c-0.233-2.933-0.45-5.866-0.65-8.8
		c-0.467-5.934-0.7-9.467-0.7-10.6c0-13.566,0.816-26.351,2.45-38.351c2-14.699,3.333-29.766,4-45.2l1.4-12.35l0.3-2.5l0.3-2.75
		l-0.05,1.75l-0.05,2.4c0,1.733-0.084,4.8-0.25,9.2c-0.233,5.567-0.534,10.6-0.9,15.1l0.25-1.05l-0.25,10.899
		c0,2.334-0.25,10.867-0.75,25.601c-0.066,2.866-0.116,5.7-0.15,8.5L110.3,147.55z M75.4,212.55l-0.4-0.1
		c1.4-9,2.117-13.517,2.15-13.55c0.867-8.233,1.767-22.733,2.7-43.5l0.05-1.4l0.3,34.15c-0.467,5.767-0.767,10.1-0.9,13
		c-0.133,2.466-0.433,6.35-0.9,11.649h-0.15l-2.7-0.25H75.4z M23.8,86.05l-0.45,3.35c0.033-16.533,0-31.767-0.1-45.7v-0.05l1.6-2.05
		c0.8-1.233,1.333-2.283,1.6-3.15c0.267,3.466,0.4,5.333,0.4,5.6c0,4.4-0.4,11.717-1.2,21.95C24.95,75.167,24.333,81.85,23.8,86.05z
		 M90.75,16.3c0.3,0.8,0.65,1.55,1.05,2.25c-0.633,5.867-0.966,13.667-1,23.4c-0.066,9.4-0.517,17.617-1.35,24.65l-0.05-0.95
		c0.667-6.967,0.15-14.117-1.55-21.45c-1.6-6.9-3.233-10.35-4.9-10.35c-0.367,0-0.817,0.367-1.35,1.1
		c-0.333,0.533-0.567,1.117-0.7,1.75v-0.1c0.1-3.3,0.417-9.117,0.95-17.45c0-4.4,0.133-6.967,0.4-7.7c0.167,0.9,0.267,1.35,0.3,1.35
		c0.167,3.4,0.483,7.083,0.95,11.05c0.567,4.7,1.133,7.533,1.7,8.5c0.367-0.9,0.583-1.35,0.65-1.35c0.3-2.667,0.9-5.95,1.8-9.85
		c0.833-3.533,1.25-5.367,1.25-5.5L90.75,16.3z M103.9,39.4C98.8,50.933,95.35,58.317,93.55,61.55l-0.1-1.75
		c0-7.267,0.283-15.5,0.85-24.7c0.267-4.6,0.533-9,0.8-13.2l1.101,0.45l-0.05,5.25c0,1.233,0.116,2.967,0.35,5.2l0.4-0.15
		c0.033-0.033,0.166-0.316,0.399-0.85c0.101-0.433,0.2-1.316,0.3-2.65c0.101-1.233,0.15-2.117,0.15-2.65l-0.1-3.9l0.85,0.05
		c4.566,3.4,7.2,5.45,7.9,6.15l0.05,0.1c0.033,0.3-0.066,1.083-0.3,2.35c-0.301,1.533-0.667,3.117-1.101,4.75L103.9,39.4z
		 M179.7,105.95l0.05,0.7c-0.566,1.167-1.083,1.95-1.55,2.35s-1.384,0.6-2.75,0.6l-2.15-0.199l0.3-0.351
		c0.101-0.133,0.733-0.75,1.9-1.85l0.3,0.85c0-0.066,0.55-0.416,1.65-1.05C178.616,106.333,179.366,105.983,179.7,105.95z
		 M91.2,94.25l-1.35,23.7c-0.567,3.3-1.067,6.666-1.5,10.1c-0.867,6.834-1.083,12.167-0.65,16
		c0.233,10.233,0.483,17.767,0.75,22.601l0.8,2.6c1,3.767,1.683,7.116,2.05,10.05c0.167,1.533,0.25,3.467,0.25,5.8
		c0,5.334-0.117,10.301-0.35,14.9c-0.567-2.733-1.784-7.684-3.65-14.85c-0.733-2.867-1.2-6.601-1.4-11.2
		c-0.533-12.033-1.633-22.834-3.3-32.4c-0.4,0-0.6-0.6-0.6-1.8c0-0.667,0.05-1.533,0.15-2.6c0-1.334,1.3-7.851,3.9-19.551
		c2.6-11.7,3.9-19.516,3.9-23.45l1.3-24C91.333,79.85,91.233,87.883,91.2,94.25z M51.15,20.05c-0.767,5.434-2.217,16.717-4.35,33.85
		c-2.133,17-3.25,25.85-3.35,26.55c-0.167-1.167-0.3-1.75-0.4-1.75L43,74.4c0-0.333,0.133-4.283,0.4-11.85
		c0.267-8.6,0.3-15.7,0.1-21.3c-0.167-4.9-0.433-8.8-0.8-11.7c-0.3-2.333-0.45-5-0.45-8l0.1-4c0.733,0,2.733-0.15,6-0.45
		c0.667,0,1.066,0.083,1.2,0.25C49.95,18.083,50.483,18.983,51.15,20.05z M34.25,149.1l0.05,1.801c0,0.699-0.4,2.267-1.2,4.699
		c-1,2.934-2.067,5.134-3.2,6.601L29,163.1l-0.05-1.25c0-0.366,0.533-2.533,1.6-6.5c1.1-4.1,1.7-6.517,1.8-7.25
		c1.066-6.866,2.233-15.466,3.5-25.8c0.066,1.634,0.1,4.334,0.1,8.101c0,3.199-0.233,6.433-0.7,9.699
		C34.683,143.866,34.35,146.866,34.25,149.1z"/>
	<path style="fill-rule:evenodd;clip-rule:evenodd;fill:#7C7367;" d="M168.35,153.5l0.101-3.75l0.149,1.4l-0.05,1.3L168.35,153.5z
		 M139.75,36.55c0.267,0.267,0.934,0.733,2,1.4l0.3,1.9c0.334,0.566,0.584,0.933,0.75,1.1c0,1.933,0.017,3.917,0.05,5.95
		c0.034,4.067,0.101,6.367,0.2,6.9l-0.2-12.8c1.2,0.9,2.334,1.533,3.4,1.9l0.05,1.25l0.05,41.3c-0.199,7.533-0.533,12.733-1,15.6
		l0.051-2c0-4.3-0.184-6.816-0.551-7.55c-0.199-0.767-0.916-5.983-2.149-15.65c-0.834-6.467-2.367-10.95-4.601-13.45
		c-2.899-0.566-5.966-0.65-9.199-0.25c-6.367,0.767-11.517,3.567-15.45,8.4l-1.05,2.4l0.05-2.4c1.1-4.4,2.95-7.316,5.55-8.75
		c1.533-0.833,5.566-1.833,12.1-3c1.9-0.333,3.317-0.85,4.25-1.55c0.867-0.667,1.684-1.05,2.45-1.15c0.134,0,1.017-0.167,2.65-0.5
		c1.533-0.633,2.3-1.833,2.3-3.6c0-0.4-0.116-0.783-0.35-1.15c-0.167-0.233-0.483-0.684-0.95-1.35c-0.7-0.633-1.733-1.267-3.101-1.9
		c-1.166-0.533-1.866-0.8-2.1-0.8c-2.233,0-4.5,0.4-6.8,1.2c-2.334,0.767-4.45,1.15-6.351,1.15c-5.333-0.467-8.399-0.483-9.199-0.05
		c-0.567,0.3-0.983,1.05-1.25,2.25c-0.4,2.066-0.767,3.983-1.101,5.75l-1.3,5.65l0.1-1.2c0.134-3.367,0.233-8.85,0.301-16.45
		c0.033-6.4,0.133-10.3,0.3-11.7l0.1,0.45l0.7,5.9c-0.033,1.233,0.267,2.3,0.9,3.2c0.533,0.833,1.133,1.25,1.8,1.25
		c0.666,0,1.066-0.417,1.2-1.25c0.133-0.567,0.333-1.883,0.6-3.95l0.1-0.35c0,0.9,0.267,2.367,0.801,4.4
		c0.633,2.333,1.25,3.667,1.85,4c0.667,0.3,3.2-0.183,7.6-1.45c0.967-0.267,2.45-0.383,4.45-0.35c2,0,3.283-0.067,3.851-0.2
		c1.6,0,2.983-0.833,4.149-2.5C139.184,40.883,139.75,38.883,139.75,36.55z M111.9,74.05l-0.601,1.2l-0.85,3.45h-0.05
		c-0.034-0.034-0.051-0.267-0.051-0.7c0-0.667,0.017-0.883,0.051-0.65l0.899-2.1l0.9-3.7L111.9,74.05z"/>
</g>
</svg>
