<?xml version="1.0" encoding="iso-8859-1"?>
<!-- Generator: Adobe Illustrator 15.1.0, SVG Export Plug-In . SVG Version: 6.00 Build 0)  -->
<!DOCTYPE svg PUBLIC "-//W3C//DTD SVG 1.1//EN" "http://www.w3.org/Graphics/SVG/1.1/DTD/svg11.dtd">
<svg version="1.1" id="Layer_1" xmlns="http://www.w3.org/2000/svg" xmlns:xlink="http://www.w3.org/1999/xlink" x="0px" y="0px"
	 width="265.85px" height="215.9px" viewBox="0 0 265.85 215.9" style="enable-background:new 0 0 265.85 215.9;"
	 xml:space="preserve">
<g>
	<path style="fill-rule:evenodd;clip-rule:evenodd;fill:#5E574D;" d="M180.6,78.3c-0.333-0.7-0.616-2-0.85-3.9
		c-0.2-1.5-0.3-2.633-0.3-3.4l0.2-0.9l0.3-1.4h-0.2c-0.434-1.133-1.1-2.284-2-3.45c-0.4-0.533-0.6-1.733-0.6-3.6L177.2,60
		c0.333,0.067,0.717,0.033,1.149-0.1c0.434-0.1,0.75-0.233,0.95-0.4c0.134,0.4,0.233,0.867,0.3,1.4
		c0.367,2.267,0.567,3.45,0.601,3.55c0.633,1.767,1.934,3.2,3.899,4.3c1.034,0.567,2.134,1.1,3.301,1.6
		c-1.834,2.033-3.167,3.517-4,4.45C181.934,76.433,181,77.6,180.6,78.3z M177.25,57.6l0.3-0.35V57.2l0.7,0.4
		c0.434,0.367,0.783,0.967,1.05,1.8L177.25,57.6z M132.75,28.15c1.3,0.333,2.533,0.783,3.7,1.35c-0.233-0.033-1.467-0.467-3.7-1.3
		V28.15z M144.8,40.75l-0.6,2.75c-1.2-0.033-3.517-0.583-6.95-1.65c-3.6-1.1-7.283-1.767-11.05-2c1.367-1,3.2-1.7,5.5-2.1
		c1-0.167,1.5-1.3,1.5-3.4l-0.2-3.2c1.3,0,2.2-0.1,2.7-0.3c0.399-0.2,0.733-0.583,1-1.15c0.467,0.433,0.883,1.583,1.25,3.45
		c0.333,1.767,0.783,2.833,1.35,3.2c0.5,0.3,1.45,0.983,2.851,2.05C143.684,39.6,144.566,40.383,144.8,40.75z M117.7,41.35l-1-2.55
		c0.667,0.633,1.833,1.083,3.5,1.35l-0.3,0.3c-0.333,0.433-0.5,0.683-0.5,0.75c-0.066,0.2-0.283,0.617-0.65,1.25l-0.65-0.05
		L117.7,41.35z M103.6,25.1l3.4,0.4l-0.2,0.8c-0.1,0.633-0.167,1.184-0.2,1.65l1.25,2c-2.867-0.4-4.5-0.567-4.9-0.5h-0.05
		c-0.033-0.034-0.05-0.333-0.05-0.9l0.1-2.35l1-0.5L103.6,25.1z M27.35,24.7c-0.8,0.133-1.783,0.433-2.95,0.9l-1.7,0.3
		c0.966-1.566,2.233-2.767,3.8-3.6c1.133-0.566,1.683-1.283,1.65-2.15c1.733,0.067,4.1,0,7.1-0.2L35,20.85
		c-0.433,0.667-1.633,1.467-3.6,2.4C29.533,24.15,28.183,24.633,27.35,24.7z"/>
	<path style="fill-rule:evenodd;clip-rule:evenodd;fill:#AAA196;" d="M190.3,72.8l1.2,1.35c0.233-0.167,0.45-0.667,0.65-1.5
		c0.233-1.133,0.416-2.017,0.55-2.65c-0.233,0.133-0.7,0.65-1.4,1.55L190.3,72.8z M199.1,66.45c-0.133,0-0.267,0-0.399,0
		c-0.4,0-0.884,0.417-1.45,1.25c-0.533,0.966-0.9,1.566-1.1,1.8l1.199,0.7l-0.1-1.25c0.967-1.467,2.65-1.8,5.05-1
		c2.3,0.767,4.367,2.25,6.2,4.45c-0.333-0.733-0.733-1.383-1.2-1.95c2.566,1.566,6.55,3.983,11.95,7.25
		c1.667,0.9,3.217,2.583,4.65,5.05c0.866,1.467,2.133,4.117,3.8,7.95l-1.7-2.25l1.2,4.8c0.7,3.167,1.05,4.967,1.05,5.4
		c0,0.8,1.066,3.083,3.2,6.85c1.866,7.5,4.149,13.366,6.85,17.6c1.5,2.367,3.267,4.351,5.3,5.95l-0.35-0.1L242.9,131
		c1,0.1,1.933,0.616,2.8,1.55c0.467,0.5,0.85,1.017,1.149,1.55L246.7,133.7l1.649,4.05c0.2,0.634,0.4,1.684,0.601,3.15
		c0.3,1.233,0.883,2.033,1.75,2.399c1.1,3.066,2.55,6.483,4.35,10.25c1.5,4.233,2.617,10.733,3.351,19.5
		c0.033,0.566,0.017,2.267-0.051,5.101c0.101,2.866,0.517,5.133,1.25,6.8c1.667,3.666,2.601,6.35,2.801,8.05l-1.801-4.05
		c0.2,0.833,0.717,2.55,1.551,5.149c0.833,2.567,1.333,4,1.5,4.301l2.1,4.949c-8.934-2.333-14.283-4.366-16.05-6.1
		c-1.101-1.033-2.2-2.733-3.3-5.1c-1.5-3.5-2.867-6.584-4.101-9.25c1.634,0.3,4.617-0.184,8.95-1.45l-0.7-0.05l1.3-0.45l0.851-0.101
		c-0.4-0.133-2.101-0.283-5.101-0.449c-3.1-0.134-5.466-0.45-7.1-0.95c-0.233-0.733-0.684-1.483-1.35-2.25
		c-0.101-0.134-0.983-1.084-2.65-2.851l-0.95-1.05l0.2,0.2c-0.733-3.467-1.467-6.483-2.2-9.05l-0.85-3.101
		c-1.367-9.8-3.233-15.149-5.601-16.05c-2.5-0.934-4.583-2.934-6.25-6c-1.933-3.566-3.283-5.649-4.05-6.25l0.2-0.649
		c0.6-0.367,1.134-0.817,1.6-1.351c0.2-0.1,0.601-0.217,1.2-0.35c0.634-0.2,1.25-0.634,1.851-1.3c-0.2,0.399-0.5,0.75-0.9,1.05
		l2.45,0.55l1.2-1.3l-1.7-2.2c0.866-0.866,1.649-1.483,2.35-1.85c0.101,1.033,0.4,1.833,0.9,2.399
		c0.467,0.533,0.983,0.733,1.55,0.601c0.566-0.167,1.017-0.634,1.35-1.4c0.334-0.767,0.467-1.533,0.4-2.3h2.15
		c-1.167-0.101-2.25-0.4-3.25-0.9c-0.7-0.333-1.934-1.066-3.7-2.2c1.233,0.067,2.416,0.084,3.55,0.051c0-0.034-0.483-0.167-1.45-0.4
		c-1.166-0.267-2.366-0.517-3.6-0.75c-1.101-0.6-1.65-0.717-1.65-0.35c-0.633,0.3-2.033,0.066-4.2-0.7
		c-1.533-0.566-2.733-0.967-3.6-1.2l1.5,1.25c3.9,1.134,5.983,1.717,6.25,1.75c-0.033,1.6-0.384,2.85-1.05,3.75
		c-0.533,0.7-1.184,1.083-1.95,1.15c-1.267,0.133-1.983,0.517-2.15,1.149c-0.333,1.267-0.933,2.4-1.8,3.4
		c-0.6-1.033-1.083-1.851-1.45-2.45c-0.699-1.066-1.616-2-2.75-2.8c-2.166-0.967-3.933-1.783-5.3-2.45
		c-2.5-1.3-4.033-2.917-4.6-4.85c-7.101-0.134-11.351-0.233-12.75-0.301c-1.733-0.033-2.601-0.699-2.601-2
		c0-0.466-0.416-1.35-1.25-2.649c-0.866-1.334-1.3-2.217-1.3-2.65c0-1.033-0.25-2.95-0.75-5.75c-0.633-3.466-1.3-5.833-2-7.1
		l0.55-1.6c0.334-0.9,0.733-2.6,1.2-5.1c0.434-2.233,0.65-3.45,0.65-3.65c-0.4-1.533-0.867-3.533-1.4-6l0.75,2.85l-0.149-4.65
		l-0.601,1.8l-0.149-1.8l0.199-1.5c0.4-0.7,1.334-1.867,2.801-3.5c0.833-0.933,2.166-2.417,4-4.45
		c0.833-1.434,2.383-2.517,4.649-3.25c1.767-0.6,3.566-0.9,5.4-0.9C197.917,66.2,198.467,66.283,199.1,66.45z M139.55,47.9
		l-0.399-0.4c-2.634-2.2-4.351-3.333-5.15-3.4c0.767,1.367,1.566,2.35,2.4,2.95C137.3,47.75,138.35,48.033,139.55,47.9z
		 M128.95,48.45l1.95,0.4c-0.3-0.467-0.566-1.017-0.8-1.65c-0.2-0.534-0.3-0.85-0.3-0.95c0-1.1-0.383-2.1-1.15-3L128.95,48.45z
		 M123.7,45.4c1.033-0.1,1.75,0.35,2.15,1.35l-0.15-3.3l-1.15,0.9L123.7,45.4z M165.35,76.3c-1.5,0.233-3.783,0.467-6.85,0.7
		c-2.7,0.2-4.384,0.3-5.05,0.3c-1.566,0-3.467-0.15-5.7-0.45c1.667-1.7,3.85-3.467,6.55-5.3l0.15-0.1l1.8-1.5l-3.5,1.6
		c-4.5,0.767-7.533,1.583-9.1,2.45c-1.434,0.833-2.217,1.25-2.351,1.25c-2.066-0.833-5.434-3.45-10.1-7.85
		c-5.733-5.367-9.167-10.033-10.3-14c-0.5-6.3-0.75-9.783-0.75-10.45v-0.2c0.2-0.267,0.883-0.867,2.05-1.8
		c1.133-0.934,1.783-1.434,1.95-1.5c0.833,0.2,1.517,0.333,2.05,0.4c3.767,0.233,7.45,0.9,11.05,2c3.434,1.066,5.75,1.617,6.95,1.65
		h2.55l3.2,0.05c-0.101,0,0,0.7,0.3,2.1c0.267,1.4,0.467,2.117,0.6,2.15l1.5-3.55l-0.699-0.35c0.5,0.133,1.066,0.517,1.699,1.15
		c0.367,0.367,0.934,0.983,1.7,1.85l1.5,1.95l0.45,0.6l1.3,1.9c0.967,1.367,1.65,2.3,2.05,2.8c0.434,0.533,1.051,1.184,1.851,1.95
		l-2.75-1.35l0.35,0.6c0.867,1.6,1.584,2.4,2.15,2.4c0.666,0,0.983-0.333,0.95-1l3.55,2.9l1.85,1.75
		c0.533,0.633,0.384,0.883-0.45,0.75c-0.533,0.233-0.833,0.35-0.899,0.35c-0.4,0-0.816-0.083-1.25-0.25L165.15,62l0.8,1
		c0.333,0.533,0.883,1.083,1.649,1.65c0.634,0.467,1.017,0.7,1.15,0.7c0.667,0,0.7-1.117,0.1-3.35l1.801,1.8
		c0.233,0.233,0.716,0.7,1.449,1.4c0.834,0.733,1.801,1.45,2.9,2.15l0.95,0.45c-1.867-0.167-4.45-0.117-7.75,0.15
		c0.8,1.066,1.633,1.85,2.5,2.35c0.633,0.367,0.95,0.583,0.95,0.65c0,0.4-0.017,0.65-0.051,0.75c1.2-0.367,2.233-1.017,3.101-1.95
		c0.733-0.767,1.149-1.417,1.25-1.95l2.85,0.85c0,2-1.1,3.717-3.3,5.15c-2.2,1.4-4.866,2.1-8,2.1c-0.733-0.333-1.6-0.467-2.6-0.4
		L165.35,76.3z M162.3,73.1v-0.6c-0.1,0.033-2,0.55-5.7,1.55l5.851-0.4C162.384,73.65,162.333,73.467,162.3,73.1z M179.45,71
		l-0.351,1.55l-0.3-0.95c0.033-0.567,0.316-1.067,0.851-1.5L179.45,71z M186.8,96.25c0,0.4-0.233,0.7-0.7,0.9l0.95,2.6l0.05-1.4
		c0.067-0.7,0.101-1.15,0.101-1.35C187.167,96.767,187.033,96.517,186.8,96.25z M189.35,90.2c0-0.4-0.066-0.8-0.199-1.2l-0.25-0.45
		l-0.2,0.8c-0.667,0.367-1.384,0.517-2.15,0.45c-0.566-0.066-1.033-0.216-1.399-0.45L185.4,91c0.767,0.533,1.466,1.083,2.1,1.65
		c0.233-0.233,0.634-0.417,1.2-0.55C189.134,91.9,189.35,91.267,189.35,90.2z M185.95,81.55c-0.3,0.867-0.45,1.517-0.45,1.95
		c0,0.733,0.267,1.683,0.8,2.85c0.634-4.267,0.884-6.867,0.75-7.8C186.783,79.35,186.417,80.35,185.95,81.55z M193.4,84.05l1.1-1.2
		l-0.85-1.1c-0.7,1.1-1.184,1.967-1.45,2.6C192.4,84.85,192.8,84.75,193.4,84.05z M207.95,86.8l2.45,3.8l0.949-0.4
		c-0.133-0.6-0.699-1.317-1.699-2.15C208.983,87.483,208.417,87.067,207.95,86.8z M205.2,92.75l1.85,3.2
		c-0.633-1.267-1.133-2.184-1.5-2.75L205.2,92.75z M220.8,86.55c-0.833-2.7-2.3-4.417-4.399-5.15c0.366,0.567,0.916,1.8,1.649,3.7
		c0.634,1.733,1.884,3.917,3.75,6.55C221.566,89.683,221.233,87.983,220.8,86.55z M226.7,117.95l-0.75-1.65
		c-1.867-1-3.117-1.916-3.75-2.75c-0.434-0.566-0.65-1.283-0.65-2.149c-0.333,0.066-0.883-0.051-1.649-0.351
		c0.433,1.167,0.816,2.184,1.149,3.05c0.134,0.334,0.2,0.717,0.2,1.15c0,0.333-0.017,0.55-0.05,0.65L226.7,117.95z M230.1,112.05
		l-0.649-1.399c-4.533-7.967-7.467-13-8.8-15.101c1.6,3.267,3.533,6.8,5.8,10.6C226.75,106.617,227.967,108.583,230.1,112.05z
		 M209,113.25c-1.033-0.667-2.083-0.983-3.15-0.95c2.334,1.134,3.9,1.851,4.7,2.15C210.05,114.017,209.533,113.616,209,113.25z
		 M204.95,102.45l-0.55,0.2c0.8,4.033,1.75,6.216,2.85,6.55c0.366,0.1,0.983,0.2,1.85,0.3c0.9,0.2,1.784,0.7,2.65,1.5l-0.6-3.15
		c-0.367,0.167-0.733,0.15-1.101-0.05c-0.166-0.1-0.684-0.667-1.55-1.7l-1.25-1.5C206.283,103.3,205.517,102.583,204.95,102.45z
		 M215.2,99.85c1.866,3.967,3.133,6.433,3.8,7.4c-1.967-6.7-4-11.517-6.1-14.45C212.267,92.933,213.033,95.283,215.2,99.85z
		 M185,106.85c0.533,0.467,0.8,0.917,0.8,1.35c0,0.166-0.066,0.767-0.2,1.8c0.267,1.033,1.434,1.667,3.5,1.9L183.4,103.8
		C183.767,105.233,184.3,106.25,185,106.85z M193.6,102.6c1.134,1.667,1.784,2.85,1.95,3.55l0.55-0.1
		c0.267-0.133,0.4-0.417,0.4-0.85c0-0.1-1.316-2.15-3.95-6.15C192.35,100.05,192.7,101.233,193.6,102.6z M198.15,110.05
		c0.033-0.533,0.066-0.866,0.1-1c0-0.2-0.083-0.35-0.25-0.45l-1.45,0.45c0.434,0,0.684,0.884,0.75,2.65l-0.1,0.8l-1.4,0.45
		c-0.434-0.134-1.033-0.733-1.8-1.8c-0.9-1.267-1.733-2.2-2.5-2.801c0.366,2.034,0.316,3.267-0.15,3.7
		c-0.533,0.101-0.833,0.217-0.899,0.351c0.566,0.166,0.85,0.316,0.85,0.449c3.767,0.434,7.517,0.733,11.25,0.9
		c-1.833-0.833-2.983-1.366-3.45-1.6C198.467,111.783,198.15,111.083,198.15,110.05z M241.6,146.8l0.051,1.65
		c0,1.733,0.166,3.899,0.5,6.5c0.533,4,1.316,7.217,2.35,9.649c0.066-3.466-0.3-7.199-1.1-11.199
		C242.767,150.1,242.167,147.9,241.6,146.8z M234.95,145.6c0.5-0.133,0.283-1.85-0.65-5.149c0,1.566,0.084,3.3,0.25,5.2
		L234.95,145.6z M231.35,143.5l0.051-4.4H231.1L231,141.4C231,142.066,231.116,142.767,231.35,143.5z M225.1,138.95
		c0.7,1.267,1.117,1.983,1.25,2.149c-0.466-1.533-0.899-2.616-1.3-3.25c-0.233-0.333-0.6-0.683-1.1-1.05
		C224.017,136.967,224.4,137.684,225.1,138.95z M190.9,120.8l-0.601-0.05l1.2,0.05H190.9z M238.2,163.25
		c-0.167-1.533-0.434-2.566-0.8-3.1c-0.567-0.667-1.134-1.517-1.7-2.551L238.2,163.25z M244.8,143.75l-1.399-0.45
		c0.5,1.233,1.616,2.3,3.35,3.2l-0.05-1.2C246.4,144.667,245.767,144.15,244.8,143.75z M259.55,196.25
		c-0.133,0.267-0.5,0.483-1.1,0.65c0.1,0.933,0.55,1.683,1.35,2.25c0.434,0.267,0.834,0.449,1.2,0.55
		C260,197.434,259.517,196.283,259.55,196.25z M252.9,190.35c-0.834-1.566-1.367-2.75-1.601-3.55c-0.6,0.233-1.017,0.267-1.25,0.101
		c-0.2-0.134-0.866-0.917-2-2.351c2.334,4,3.9,6.584,4.7,7.75c0.033,0.066,0.85,1.15,2.45,3.25l-0.45-2.1
		C254.283,192.85,253.667,191.816,252.9,190.35z M248.15,178l0.149,0.15l-0.05-2.2C248.25,176.983,248.217,177.667,248.15,178z
		 M252.5,172.3l0.2-0.1c0.2-0.101,0.5-0.15,0.899-0.15c0.534,0,0.9,0.066,1.101,0.2c0.333,0.267,0.733,0.866,1.2,1.8l-4.95-13.95
		c0.733,4.7,1.166,9.5,1.3,14.4c0,1.033-0.066,1.434-0.2,1.2c0.033,0.1,0.467,1.783,1.3,5.05l-1.1-7.3
		C252.417,172.85,252.5,172.467,252.5,172.3z M248.45,170.9c-0.134,0-0.2,0.733-0.2,2.199c0,0.7,0,1.417,0,2.15
		c0.066-0.4,0.333-0.767,0.8-1.1L248.45,170.9z M246.85,152.35c-0.267-1.8-0.716-2.85-1.35-3.149c0.467,1.967,0.866,3.95,1.2,5.95
		C247.066,155.05,247.116,154.116,246.85,152.35z M245.6,137.65l-0.199-0.9c-0.334-0.566-0.867-1.167-1.601-1.8
		c-0.7-0.566-1.25-0.9-1.649-1C243.35,135.15,244.5,136.384,245.6,137.65z M120.35,39.7c-0.033,0.333-0.067,0.65-0.1,0.95l0.05-0.6
		L120.35,39.7z M100.25,20.2l2.25,3.2l1.1,1.7l0.35,0.6l-2-3.05c-0.833,0.967-2.583,1.767-5.25,2.4c-2.3,0.567-4.184,0.8-5.65,0.7
		c0.133-0.433,0.217-0.883,0.25-1.35L91.15,23l-3.9,2.75l-5.2-0.05c-4-0.3-6.583-0.467-7.75-0.5c-2.8,0.066-4.566,0.233-5.3,0.5
		l-5.6,1.75l-2.6,0.8l1.4-0.5l-1.3,0.15l1.6-3.25c3.5-0.433,8.65-0.833,15.45-1.2c7.7-0.4,11.783-0.6,12.25-0.6l-0.95-1.05
		c-1.533,0.233-3.867,0.15-7-0.25c-2.633-0.333-4.767-0.733-6.4-1.2c-0.5,1.066-1.033,1.767-1.6,2.1c-0.667,0.4-1.833,0.6-3.5,0.6
		c-0.333,0-1.267-0.133-2.8-0.4c-1.567-0.267-2.517-0.4-2.85-0.4c-0.067,0-0.233,0.167-0.5,0.5c-0.4,0.433-0.983,0.833-1.75,1.2
		l1.4-2.6c1.433-1.533,3.383-3.15,5.85-4.85L67,17.75h-0.1l-5,2.35c-0.767,0.2-1.483,0.433-2.15,0.7
		c-0.733,0.3-1.233,0.483-1.5,0.55l2.55-0.5c-2.1,1.867-3.417,3.1-3.95,3.7c-0.967,1.067-1.45,2.034-1.45,2.9
		c0,0.4,0.1,0.65,0.3,0.75c0.1,0.033,0.233,0.066,0.4,0.1c-4.9,0.367-8.3,0.184-10.2-0.55c-1.066-0.4-1.6-0.95-1.6-1.65
		c0-0.4-0.4-0.7-1.2-0.9c-1.1-0.167-1.95-0.333-2.55-0.5c-0.2,0.566-0.417,1.033-0.65,1.4c-0.267,0.333-0.483,0.583-0.65,0.75
		c0.567,0.233,2.2,0.767,4.9,1.6c2.167,0.667,3.567,1.083,4.2,1.25l-2.1-0.45c-5.9-1.4-8.85-2.833-8.85-4.3
		c0-0.267,0.3-0.983,0.9-2.15c0.4-0.833,0.7-1.433,0.9-1.8c1.667-0.8,3.517-2.45,5.55-4.95c1.9-2.4,2.85-4.133,2.85-5.2
		c0-1.2,0.45-2.033,1.35-2.5c0.767-0.367,3.4-1.15,7.9-2.35c0.967-0.267,1.767-0.717,2.4-1.35c0.367-0.333,0.883-0.9,1.55-1.7
		c1.4-1.4,4.117-2.1,8.15-2.1c2,0,4.017,0.316,6.05,0.95c2.733,0.833,4.783,1.35,6.15,1.55L79.8,2.7C82.133,3.167,85.2,4.933,89,8
		c-0.3,0-0.633,0.033-1,0.1c-0.8,0.133-1.5,0.3-2.1,0.5c0.167,0.267,0.267,0.533,0.3,0.8l3.1-1.15c0.267,0.2,0.534,0.417,0.8,0.65
		c3.5,2.967,5.85,5.3,7.05,7c-0.633,0.9-1.316,1.55-2.05,1.95c-0.733,0.333-1.25,0.617-1.55,0.85c1.967,0.2,3.2,0.433,3.7,0.7
		c0.333,0.2,0.5,0.567,0.5,1.1l-1.05,1.6l1.1-0.35C98.867,21.25,99.683,20.733,100.25,20.2z M90.25,14.1
		c-0.667,0.867-1.35,1.433-2.05,1.7c4.133,0.2,6.2-0.2,6.2-1.2c0-0.4-0.033-0.6-0.1-0.6l-0.1,0.1c-0.2-0.3-0.35-0.517-0.45-0.65
		c-0.2-0.233-0.5-0.35-0.9-0.35C91.617,13.1,90.75,13.433,90.25,14.1z M82.45,16.9c-0.034-1.066,0.017-1.883,0.15-2.45l-0.4-0.1
		c-1.167,0-2.633,1.15-4.4,3.45c1.733,0.467,3.383,0.7,4.95,0.7C82.617,18.5,82.517,17.967,82.45,16.9z M102.9,29.45h0.05
		c0.4-0.067,2.033,0.1,4.9,0.5c2,0.133,3.383,0.267,4.15,0.4l3.2,1.2c-0.9,0.3-1.633,0.6-2.2,0.9c0.433,0.133,0.717,0.25,0.85,0.35
		c0.233,0.2,0.35,0.517,0.35,0.95c0,0.5-0.034,0.817-0.1,0.95c-0.167,0.5-0.617,0.75-1.35,0.75c-0.367,1.167-0.8,2.333-1.3,3.5
		c-1.067,2.333-2.15,3.5-3.25,3.5c-0.667,0-2.05-0.667-4.15-2c-2.167-1.367-3.25-2.367-3.25-3c0-0.4,0.167-0.85,0.5-1.35
		c0.167-0.233,0.333-0.467,0.5-0.7l-0.3-0.15c-1.467-0.433-2.2-1.217-2.2-2.35c0-0.433,0.083-0.8,0.25-1.1
		c0.067-0.133,0.267-0.4,0.6-0.8L102.9,29.45z M114.7,37.3l0.2-1.65l-0.05,0.85L114.7,37.3z M102.85,32.55c0.5,0.4,0.833,1.1,1,2.1
		c1.367-0.367,2.9-1.066,4.6-2.1c-0.1-0.1-0.317-0.483-0.65-1.15c-0.167-0.333-0.7-0.467-1.6-0.4
		C105.3,31.133,104.183,31.65,102.85,32.55z M64.95,75.25l2.1,0.05l1.3,0.25l5.1,1.35l5.05,0.8c5.167,0.867,9.517,1.517,13.05,1.95
		c1.967,0.5,6.767,2.633,14.4,6.4c-2.467,0-3.934-0.033-4.4-0.1c0.567,0.1,3.35,0.566,8.35,1.4l2.85,0.75c0.433,0.2,1,0.333,1.7,0.4
		c0.733,0.333,2.833,0.633,6.3,0.9c2.833,0.2,4.967,0.3,6.4,0.3c0.367,0,0.85,0.1,1.45,0.3c0.633,0.2,1.017,0.383,1.15,0.55
		l1.7,2.15c-0.567,0.066-1.284,0.3-2.15,0.7c-1.033,0.7-1.983,1.25-2.85,1.65c-0.9,0.133-1.767,0.284-2.6,0.45
		c-1.633,0.367-3.083,0.867-4.35,1.5l-2.1,0.75L116.5,98l2.95-1c-8.867,1.333-13.667,2-14.4,2c-0.267-0.1-0.466-0.183-0.6-0.25
		c-0.2-0.167-0.3-0.467-0.3-0.9c0-0.434,0.1-0.817,0.3-1.15c0.1-0.167,0.383-0.517,0.85-1.05c3.167,0.267,7.417-0.217,12.75-1.45
		c4.467-1.034,7.9-2.1,10.3-3.2l-1.55-0.05c-2.8,0.2-6.417,0.75-10.85,1.65c-4,0.8-7.25,1.583-9.75,2.35l2.3-1.45
		c-3.7,0.467-5.95,0.817-6.75,1.05c-0.367,0.133-1.15,0.733-2.35,1.8c-1.2,1.1-1.967,1.717-2.3,1.85c-3.4-0.867-6.45-2.05-9.15-3.55
		c-4.867-2.7-8.434-4.566-10.7-5.6c-3.1-0.633-5.4-1.133-6.9-1.5c-2.7-0.667-4.05-2.117-4.05-4.35c0-0.4,0.167-1,0.5-1.8
		c0.333-0.8,0.7-1.433,1.1-1.9c-1.667-1.567-2.75-2.667-3.25-3.3L64.95,75.25z M90.2,97.6l1.15,0.35l-0.4-0.1L90.2,97.6z M94.15,91
		c-2.2-0.567-4.017-0.5-5.45,0.2c3.633,1.3,7.15,1.95,10.55,1.95c0.667,0,1.7-0.1,3.1-0.3C101.05,92.683,98.317,92.067,94.15,91z
		 M126.75,58.15c0.633-0.7,0.65-1.9,0.05-3.6c-0.667-1.933-1.933-3.7-3.8-5.3c0.567,2.5,1.117,4.317,1.65,5.45
		C125.017,55.433,125.717,56.583,126.75,58.15z M129,59.05c-0.667,0.2-1.183,0.25-1.55,0.15c1.4,2.167,3.683,4.683,6.85,7.55
		c2.334,2.1,4.066,3.533,5.2,4.3L138.15,70c-0.2-0.367-0.334-0.833-0.4-1.4c-0.066-0.5-0.55-1.583-1.45-3.25
		c-0.233-0.467-1.066-1.5-2.5-3.1c-2.2-2.533-3.333-3.833-3.4-3.9C130.1,58.617,129.633,58.85,129,59.05z M143.95,69.7l-2.05-2.95
		c-0.167,0.033-0.45,0.167-0.851,0.4c-0.366,0.233-0.649,0.45-0.85,0.65C140.467,68.067,141.717,68.7,143.95,69.7z M144.35,54.25
		c-1.333-0.433-2.133-0.65-2.399-0.65c0.434,0.867,0.767,1.75,1,2.65c1.1-0.1,2.434-0.417,4-0.95
		C146.616,55.067,145.75,54.717,144.35,54.25z M148.1,61.3c-0.6-0.667-1.399-0.933-2.399-0.8c-1.434,0.167-2.417,0.183-2.95,0.05
		L144.4,61c1.666,0.4,3.416,0.75,5.25,1.05L148.1,61.3z M155.25,59.8l-3.2-0.05l3.2,0.9V59.8z M70.2,15.85L70.1,16
		c1.333-0.2,2.6-0.45,3.8-0.75L70.2,15.85z M66.5,10.8c-0.1,0.2-0.95,0.667-2.55,1.4l0.45,0.45c0.5-0.066,1.85-0.4,4.05-1l-1.1-0.25
		L66.5,10.8z M50.35,14.15l-0.65-0.5c-1.2,1.934-2.017,3.2-2.45,3.8c-0.4,0.6-1.133,1.5-2.2,2.7c3.3-1.6,5.417-3.066,6.35-4.4
		C51.167,15.117,50.817,14.583,50.35,14.15z M1.55,40.75c-0.066-0.167-0.1-0.317-0.1-0.45l1.3-1.9l0.3-0.2l2.6,1
		c1.067-1.5,7.733-5.983,20-13.45c0.2,0.133,0.65,0.7,1.35,1.7c0.633,0.933,1.167,1.466,1.6,1.6c0.3,0.2,0.683,0.45,1.15,0.75
		c0.3,0.267,0.45,0.617,0.45,1.05c0,0.367-0.034,0.633-0.1,0.8c-0.033,0.1-0.033,0.167,0,0.2c1.433-0.3,2.667-0.383,3.7-0.25
		c0.133,0.267,0.267,0.467,0.4,0.6c0.033,0.1,0.05,0.35,0.05,0.75c0,0.633-0.25,1.133-0.75,1.5s-0.783,1.367-0.85,3l0.9-1.45
		c0.5-0.633,0.85-1.25,1.05-1.85c0.4-1.167,0.117-2.367-0.85-3.6c1.9,0.967,3.15,2.117,3.75,3.45c-0.6,2.1-1.6,4.167-3,6.2
		c-1.067,1.466-1.75,2.283-2.05,2.45c-2.034-2.1-4.467-3.15-7.3-3.15l-4.5,0.45H19.6c2.033,0.066,4.383,0.6,7.05,1.6
		c1.867,0.7,3.434,1.434,4.7,2.2c-1.367,1.267-3.567,2.467-6.6,3.6c-2.567,0.933-4.283,1.4-5.15,1.4c-1.667,0-3.85-0.767-6.55-2.3
		C8.717,43.983,4.883,42.083,1.55,40.75z M9.85,40.9c-0.434,0-0.733-0.066-0.9-0.2c-0.133-0.2-0.284-0.383-0.45-0.55
		c-0.067,0.2,0.283,0.583,1.05,1.15c0.4,0.3,0.8,0.583,1.2,0.85l0.7-2.25l-0.65,0.6C10.833,40.767,10.517,40.9,9.85,40.9z
		 M16.55,45.6c0.833,0.2,1.25,0.333,1.25,0.4c3.167,0.2,6.15-0.65,8.95-2.55h-1c-0.533-0.034-0.933-0.217-1.2-0.55
		c-0.333-0.4-0.4-0.917-0.2-1.55c-0.3,0.733-0.95,1.1-1.95,1.1c-0.367,0-0.667-0.1-0.9-0.3c-0.167-0.2-0.317-0.267-0.45-0.2
		C21.483,42.05,19.983,43.267,16.55,45.6z M21.25,33.8c0.233,0.233,0.5,0.883,0.8,1.95L22.3,35l0.2-1.25
		c-0.1-0.867-0.417-1.4-0.95-1.6c-0.167,0.233-0.716,0.684-1.65,1.35C20.6,33.5,21.05,33.6,21.25,33.8z M75.6,80.4l0.8,0.4l2.8-0.05
		c-1.3-0.267-2.284-0.4-2.95-0.4L75.6,80.4z"/>
	<path style="fill-rule:evenodd;clip-rule:evenodd;fill:#B4AA9D;" d="M190.3,72.8l1-1.25c0.7-0.9,1.167-1.417,1.4-1.55
		c-0.134,0.633-0.316,1.517-0.55,2.65c-0.2,0.833-0.417,1.333-0.65,1.5L190.3,72.8z M180.55,81.6l0.601-1.8l0.149,4.65L180.55,81.6z
		 M179.55,97.95c0.7,1.267,1.367,3.633,2,7.1c0.5,2.8,0.75,4.717,0.75,5.75c0,0.434,0.434,1.316,1.3,2.65
		c0.834,1.3,1.25,2.184,1.25,2.649c0,1.301,0.867,1.967,2.601,2c1.399,0.067,5.649,0.167,12.75,0.301c0.566,1.933,2.1,3.55,4.6,4.85
		c1.367,0.667,3.134,1.483,5.3,2.45c1.134,0.8,2.051,1.733,2.75,2.8c0.367,0.6,0.851,1.417,1.45,2.45c-0.366,0.267-1,0.6-1.899,1
		l-1.2,0.5c-0.5,0-1.233-0.684-2.2-2.05c-1.233-1.733-2.15-2.851-2.75-3.351c-1.9-1.1-2.983-1.733-3.25-1.899
		c-0.233-0.167-0.816-0.717-1.75-1.65l-0.3-0.3l-0.05-0.05c-0.634-0.5-1.551-1.017-2.75-1.551c-1.5-0.733-2.551-1.017-3.15-0.85
		h-0.9l-2.6,0.05l-1.2-0.05h-2.5h-1.85c-1.367-0.233-2.267-0.417-2.7-0.55c-0.134,0-0.25,0-0.35,0
		c-0.601-0.167-1.134-0.684-1.601-1.55c-0.533-1.067-0.8-2.334-0.8-3.801c-0.066-0.267-0.167-0.85-0.3-1.75
		c-0.066-0.399-0.434-1.533-1.101-3.399c-0.8-3.567-1.199-5.4-1.199-5.5c0.166-1.534,0.35-2.934,0.55-4.2
		C178.884,97.5,179.25,96.817,179.55,97.95z M221.25,121.5c-0.267-0.033-2.35-0.616-6.25-1.75l-1.5-1.25
		c0.866,0.233,2.066,0.634,3.6,1.2c2.167,0.767,3.567,1,4.2,0.7L221.25,121.5z M221.65,129.4l1.05-1.9l1.7,2.2l-1.2,1.3l-2.45-0.55
		C221.15,130.15,221.45,129.8,221.65,129.4z M224.45,121.85l-1.5-1.1c1.233,0.233,2.434,0.483,3.6,0.75
		c0.967,0.233,1.45,0.366,1.45,0.4C226.866,121.934,225.684,121.917,224.45,121.85z M216.8,133.05
		c0.767,0.601,2.117,2.684,4.05,6.25c1.667,3.066,3.75,5.066,6.25,6c2.367,0.9,4.233,6.25,5.601,16.05l0.85,3.101
		c0.733,2.566,1.467,5.583,2.2,9.05l-0.2-0.2c-1.333-1.967-3.434-7.3-6.3-16c-2.566-7.767-4.634-12.184-6.2-13.25
		c-2.566-1.733-4.3-3.717-5.2-5.95C217.45,137.167,217.1,135.483,216.8,133.05z M225.05,125.65c2.334-0.434,3.733-0.667,4.2-0.7
		c0.066,0.767-0.066,1.533-0.4,2.3c-0.333,0.767-0.783,1.233-1.35,1.4c-0.566,0.133-1.083-0.067-1.55-0.601
		C225.45,127.483,225.15,126.684,225.05,125.65z M265.25,208.55c-0.634,0.5-1.267,0.75-1.9,0.75c-0.066,0-1.1-0.684-3.1-2.05
		c-2.066-1.4-3.634-2.167-4.7-2.3c-0.8-0.101-2.2-0.767-4.2-2c-2.933-1.867-4.466-2.834-4.6-2.9c-0.3-0.434-0.733-1.184-1.3-2.25
		c-0.7-1.333-1.117-2.333-1.25-3c-0.5-1.733-1.25-4.033-2.25-6.899c-0.467-1.267-0.8-2.934-1-5h1.35
		c1.233,2.666,2.601,5.75,4.101,9.25c1.1,2.366,2.199,4.066,3.3,5.1c1.767,1.733,7.116,3.767,16.05,6.1
		c0.1,0.867,0.134,1.767,0.1,2.7C265.816,207.283,265.616,208.116,265.25,208.55z M262.4,193c0.6,2.3,1.017,4.1,1.25,5.4
		c-0.167-0.301-0.667-1.733-1.5-4.301c-0.834-2.6-1.351-4.316-1.551-5.149L262.4,193z M248.35,137.75l2.351,5.55
		c-0.867-0.366-1.45-1.166-1.75-2.399C248.75,139.434,248.55,138.384,248.35,137.75z M243.6,129.05
		c0.367,0.167,0.867,0.533,1.5,1.101c0.2-0.034,0.367-0.117,0.5-0.25c0.233,0.666,0.434,1.399,0.601,2.199
		c0.133,0.667,0.3,1.2,0.5,1.601l0.149,0.399c-0.3-0.533-0.683-1.05-1.149-1.55c-0.867-0.934-1.8-1.45-2.8-1.55l0.35-2.05
		L243.6,129.05z M227.7,90.7c0.399,1.6,0.866,3.733,1.399,6.4c0.567,2.6,1.351,5.4,2.351,8.4c-2.134-3.767-3.2-6.05-3.2-6.85
		c0-0.433-0.35-2.233-1.05-5.4l-1.2-4.8L227.7,90.7z M199.1,66.45c1.9,0.533,4.584,1.833,8.051,3.9
		c0.033,0.033,0.083,0.066,0.149,0.1c0.467,0.566,0.867,1.216,1.2,1.95c-1.833-2.2-3.9-3.683-6.2-4.45
		c-2.399-0.8-4.083-0.467-5.05,1l0.1,1.25l-1.199-0.7c0.199-0.233,0.566-0.833,1.1-1.8c0.566-0.833,1.05-1.25,1.45-1.25
		C198.833,66.45,198.967,66.45,199.1,66.45z M162.2,56.1l0.7,0.65c0.033,0.667-0.284,1-0.95,1c-0.566,0-1.283-0.8-2.15-2.4
		l-0.35-0.6L162.2,56.1z M168.3,61.4l0.55,0.6c0.601,2.233,0.567,3.35-0.1,3.35c-0.134,0-0.517-0.233-1.15-0.7
		c-0.767-0.566-1.316-1.117-1.649-1.65l-0.8-1l0.55,0.25c0.434,0.167,0.85,0.25,1.25,0.25c0.066,0,0.366-0.117,0.899-0.35
		C168.684,62.283,168.833,62.033,168.3,61.4z M162.3,73.1c0.033,0.367,0.084,0.55,0.15,0.55l-5.851,0.4c3.7-1,5.601-1.517,5.7-1.55
		V73.1z M175.95,67.8c-0.101,0.534-0.517,1.184-1.25,1.95c-0.867,0.933-1.9,1.583-3.101,1.95c0.034-0.1,0.051-0.35,0.051-0.75
		c0-0.067-0.317-0.284-0.95-0.65c-0.867-0.5-1.7-1.283-2.5-2.35C171.5,67.683,174.083,67.633,175.95,67.8z M178.95,73.2l-3.3,1.6
		l-0.051,0.05L175,75.1l-4,1.75c-1.4,0.033-2.283-0.033-2.65-0.2c-0.3-0.267-0.583-0.517-0.85-0.75c3.134,0,5.8-0.7,8-2.1
		c2.2-1.433,3.3-3.15,3.3-5.15l0.95,0.05h0.2l-0.3,1.4c-0.534,0.433-0.817,0.933-0.851,1.5l0.3,0.95L178.95,73.2z M165.35,76.3
		c0.7,0.434,1.5,1.017,2.4,1.75l-1.95,0.45c-1.1,0.2-2.233,0.367-3.399,0.5c-2.567,0.167-4.217,0.25-4.95,0.25l-7.75-0.05h-3.05
		h-0.601c0.4-0.534,0.967-1.317,1.7-2.35c2.233,0.3,4.134,0.45,5.7,0.45c0.666,0,2.35-0.1,5.05-0.3
		C161.566,76.767,163.85,76.533,165.35,76.3z M123.7,45.4l0.85-1.05l1.15-0.9l0.15,3.3C125.45,45.75,124.733,45.3,123.7,45.4z
		 M128.95,48.45l-0.3-5.2c0.767,0.9,1.15,1.9,1.15,3c0,0.1,0.1,0.417,0.3,0.95c0.233,0.633,0.5,1.183,0.8,1.65L128.95,48.45z
		 M139.55,47.9c-1.2,0.133-2.25-0.15-3.149-0.85c-0.834-0.6-1.634-1.583-2.4-2.95c0.8,0.066,2.517,1.2,5.15,3.4L139.55,47.9z
		 M151.8,122.5c-4.866,2-7.416,3.033-7.649,3.1c-2.067,0.534-3.434,0.801-4.101,0.801c-2.6,0-4.934-0.517-7-1.551
		c-1.933-1.199-3.316-2.017-4.15-2.449l-1-0.551l-0.9-0.55l-0.7-0.6c0.633-0.334,1.534-0.533,2.7-0.601
		c0.967,0.067,2.883,0.067,5.75,0c1.967-0.066,6.517-0.199,13.65-0.399l1.35,0.1c1,0.134,1.65,0.351,1.95,0.65l1.25,1.25l-1.101,0.8
		H151.8z M193.4,84.05c-0.601,0.7-1,0.8-1.2,0.3c0.267-0.633,0.75-1.5,1.45-2.6l0.85,1.1L193.4,84.05z M185.95,81.55
		c0.467-1.2,0.833-2.2,1.1-3c0.134,0.934-0.116,3.534-0.75,7.8c-0.533-1.167-0.8-2.117-0.8-2.85
		C185.5,83.067,185.65,82.417,185.95,81.55z M189.35,90.2c0,1.066-0.216,1.7-0.649,1.9c-0.566,0.133-0.967,0.316-1.2,0.55
		c-0.634-0.566-1.333-1.117-2.1-1.65l-0.25-1.65c0.366,0.233,0.833,0.383,1.399,0.45c0.767,0.067,1.483-0.083,2.15-0.45l0.2-0.8
		l0.25,0.45C189.283,89.4,189.35,89.8,189.35,90.2z M186.8,96.25c0.233,0.267,0.367,0.517,0.4,0.75c0,0.2-0.033,0.65-0.101,1.35
		l-0.05,1.4l-0.95-2.6C186.566,96.95,186.8,96.65,186.8,96.25z M220.8,86.55c0.434,1.434,0.767,3.133,1,5.1
		c-1.866-2.633-3.116-4.816-3.75-6.55c-0.733-1.9-1.283-3.133-1.649-3.7C218.5,82.133,219.967,83.85,220.8,86.55z M205.2,92.75
		l0.35,0.45c0.367,0.566,0.867,1.483,1.5,2.75L205.2,92.75z M207.95,86.8c0.467,0.267,1.033,0.684,1.7,1.25
		c1,0.833,1.566,1.55,1.699,2.15l-0.949,0.4L207.95,86.8z M230.1,112.05c-2.133-3.467-3.35-5.433-3.649-5.9
		c-2.267-3.8-4.2-7.333-5.8-10.6c1.333,2.1,4.267,7.133,8.8,15.101L230.1,112.05z M226.7,117.95l-5.5-2.05
		c0.033-0.101,0.05-0.317,0.05-0.65c0-0.434-0.066-0.816-0.2-1.15c-0.333-0.866-0.717-1.883-1.149-3.05
		c0.767,0.3,1.316,0.417,1.649,0.351c0,0.866,0.217,1.583,0.65,2.149c0.633,0.834,1.883,1.75,3.75,2.75L226.7,117.95z M215.2,99.85
		c-2.167-4.567-2.934-6.917-2.3-7.05c2.1,2.934,4.133,7.75,6.1,14.45C218.333,106.283,217.066,103.817,215.2,99.85z M204.95,102.45
		c0.566,0.133,1.333,0.85,2.3,2.15l1.25,1.5c0.866,1.033,1.384,1.6,1.55,1.7c0.367,0.2,0.733,0.217,1.101,0.05l0.6,3.15
		c-0.866-0.8-1.75-1.3-2.65-1.5c-0.866-0.1-1.483-0.2-1.85-0.3c-1.1-0.334-2.05-2.517-2.85-6.55L204.95,102.45z M209,113.25
		c0.533,0.366,1.05,0.767,1.55,1.2c-0.8-0.3-2.366-1.017-4.7-2.15C206.917,112.267,207.967,112.583,209,113.25z M225.1,138.95
		c-0.699-1.267-1.083-1.983-1.149-2.15c0.5,0.367,0.866,0.717,1.1,1.05c0.4,0.634,0.834,1.717,1.3,3.25
		C226.217,140.934,225.8,140.217,225.1,138.95z M231.35,143.5c-0.233-0.733-0.35-1.434-0.35-2.1l0.1-2.301h0.301L231.35,143.5z
		 M234.95,145.6l-0.4,0.051c-0.166-1.9-0.25-3.634-0.25-5.2C235.233,143.75,235.45,145.467,234.95,145.6z M241.6,146.8
		c0.567,1.101,1.167,3.3,1.801,6.601c0.8,4,1.166,7.733,1.1,11.199c-1.033-2.433-1.816-5.649-2.35-9.649
		c-0.334-2.601-0.5-4.767-0.5-6.5L241.6,146.8z M198.15,110.05c0,1.033,0.316,1.733,0.949,2.101c0.467,0.233,1.617,0.767,3.45,1.6
		c-3.733-0.167-7.483-0.467-11.25-0.9c0-0.133-0.283-0.283-0.85-0.449c0.066-0.134,0.366-0.25,0.899-0.351
		c0.467-0.434,0.517-1.666,0.15-3.7c0.767,0.601,1.6,1.534,2.5,2.801c0.767,1.066,1.366,1.666,1.8,1.8l1.4-0.45l0.1-0.8
		c-0.066-1.767-0.316-2.65-0.75-2.65l1.45-0.45c0.167,0.101,0.25,0.25,0.25,0.45C198.217,109.184,198.184,109.517,198.15,110.05z
		 M193.6,102.6c-0.899-1.367-1.25-2.55-1.05-3.55c2.634,4,3.95,6.05,3.95,6.15c0,0.433-0.134,0.716-0.4,0.85l-0.55,0.1
		C195.384,105.45,194.733,104.267,193.6,102.6z M185,106.85c-0.7-0.6-1.233-1.617-1.6-3.05l5.699,8.101
		c-2.066-0.233-3.233-0.867-3.5-1.9c0.134-1.033,0.2-1.634,0.2-1.8C185.8,107.767,185.533,107.317,185,106.85z M238.2,163.25
		l-2.5-5.65c0.566,1.034,1.133,1.884,1.7,2.551C237.767,160.684,238.033,161.717,238.2,163.25z M244.8,143.75
		c0.967,0.4,1.601,0.917,1.9,1.55l0.05,1.2c-1.733-0.9-2.85-1.967-3.35-3.2L244.8,143.75z M245.6,137.65
		c-1.1-1.267-2.25-2.5-3.449-3.7c0.399,0.1,0.949,0.434,1.649,1c0.733,0.633,1.267,1.233,1.601,1.8L245.6,137.65z M246.85,152.35
		c0.267,1.767,0.217,2.7-0.149,2.801c-0.334-2-0.733-3.983-1.2-5.95C246.134,149.5,246.583,150.55,246.85,152.35z M248.45,170.9
		l0.6,3.25c-0.467,0.333-0.733,0.699-0.8,1.1c0-0.733,0-1.45,0-2.15C248.25,171.634,248.316,170.9,248.45,170.9z M252.5,172.3
		c0,0.167-0.083,0.55-0.25,1.15l1.1,7.3c-0.833-3.267-1.267-4.95-1.3-5.05c0.134,0.233,0.2-0.167,0.2-1.2
		c-0.134-4.9-0.566-9.7-1.3-14.4l4.95,13.95c-0.467-0.934-0.867-1.533-1.2-1.8c-0.2-0.134-0.566-0.2-1.101-0.2
		c-0.399,0-0.699,0.05-0.899,0.15L252.5,172.3z M248.15,178c0.066-0.333,0.1-1.017,0.1-2.05l0.05,2.2L248.15,178z M252.9,190.35
		c0.767,1.467,1.383,2.5,1.85,3.101l0.45,2.1c-1.601-2.1-2.417-3.184-2.45-3.25c-0.8-1.166-2.366-3.75-4.7-7.75
		c1.134,1.434,1.8,2.217,2,2.351c0.233,0.166,0.65,0.133,1.25-0.101C251.533,187.6,252.066,188.783,252.9,190.35z M259.55,196.25
		c-0.033,0.033,0.45,1.184,1.45,3.45c-0.366-0.101-0.767-0.283-1.2-0.55c-0.8-0.567-1.25-1.317-1.35-2.25
		C259.05,196.733,259.417,196.517,259.55,196.25z M120.25,40.65c0.033-0.3,0.067-0.617,0.1-0.95l0.15-1l2.05,0.25l1.6,0.5
		c-0.167,0.066-0.816,0.566-1.95,1.5c-1.167,0.933-1.85,1.533-2.05,1.8c0.033-0.633,0.067-1.267,0.1-1.9V40.65z M151.65,43.9
		l0.699,0.35l-1.5,3.55c-0.133-0.033-0.333-0.75-0.6-2.15c-0.3-1.4-0.4-2.1-0.3-2.1C150.45,43.617,151.017,43.733,151.65,43.9z
		 M134.95,76.25c-1-0.9-1.533-1.367-1.601-1.4c0.034,0-0.149-0.233-0.55-0.7c-1.6-1.8-3.85-5.066-6.75-9.8
		c-3.3-5.434-5.017-9.083-5.15-10.95c1.133,3.967,4.567,8.633,10.3,14c4.666,4.4,8.033,7.017,10.1,7.85
		c-0.866,0.233-1.399,0.5-1.6,0.8c-0.3,0.333-0.517,1.133-0.65,2.4l-0.899-0.3l-0.351-0.1C137.1,77.617,136.15,77.017,134.95,76.25z
		 M89.3,8.25L86.2,9.4c-0.034-0.267-0.133-0.533-0.3-0.8c0.6-0.2,1.3-0.367,2.1-0.5C88.367,8.033,88.7,8,89,8
		c0.367-0.067,0.683-0.083,0.95-0.05L89.3,8.25z M82.45,16.9c0.066,1.067,0.167,1.6,0.3,1.6c-1.567,0-3.217-0.233-4.95-0.7
		c1.767-2.3,3.233-3.45,4.4-3.45l0.4,0.1C82.467,15.017,82.417,15.833,82.45,16.9z M90.25,14.1c0.5-0.667,1.367-1,2.6-1
		c0.4,0,0.7,0.117,0.9,0.35c0.1,0.133,0.25,0.35,0.45,0.65l0.1-0.1c0.067,0,0.1,0.2,0.1,0.6c0,1-2.066,1.4-6.2,1.2
		C88.9,15.533,89.583,14.967,90.25,14.1z M100.25,20.2c-0.567,0.533-1.383,1.05-2.45,1.55l-1.1,0.35l1.05-1.6
		c0-0.533-0.167-0.9-0.5-1.1c-0.5-0.267-1.733-0.5-3.7-0.7c0.3-0.233,0.817-0.517,1.55-0.85c0.733-0.4,1.417-1.05,2.05-1.95
		L100.25,20.2z M39.2,21h-0.05l0.25-0.5c0.3-1,1.3-2.767,3-5.3c1.467-2.167,2.483-4.833,3.05-8c0.7-1.867,2.433-2.917,5.2-3.15
		c1.4-0.1,2.967-0.083,4.7,0.05c2.967-0.767,5.6-1.75,7.9-2.95C64.75,0.383,66.333,0,68,0c3.533,0,6.333,0.35,8.4,1.05
		c1.1,0.367,2.233,0.917,3.4,1.65l1.35,0.65C79.783,3.15,77.733,2.633,75,1.8c-2.033-0.633-4.05-0.95-6.05-0.95
		c-4.034,0-6.75,0.7-8.15,2.1c-0.667,0.8-1.183,1.367-1.55,1.7c-0.633,0.633-1.433,1.083-2.4,1.35c-4.5,1.2-7.133,1.983-7.9,2.35
		c-0.9,0.467-1.35,1.3-1.35,2.5c0,1.066-0.95,2.8-2.85,5.2C42.717,18.55,40.867,20.2,39.2,21z M56.1,29.6
		c-0.5,0.1-1.434,0.183-2.8,0.25c-1.733,0.1-3.316,0.066-4.75-0.1H48.5l-0.15-0.05c-0.633-0.167-2.033-0.583-4.2-1.25
		c-2.7-0.833-4.333-1.367-4.9-1.6c0.167-0.167,0.383-0.417,0.65-0.75c0.233-0.367,0.45-0.833,0.65-1.4
		c0.6,0.167,1.45,0.333,2.55,0.5c0.8,0.2,1.2,0.5,1.2,0.9c0,0.7,0.534,1.25,1.6,1.65c1.9,0.733,5.3,0.917,10.2,0.55
		c0.367,0.4,0.583,0.784,0.65,1.15L56.1,29.6z M61.9,20.1l-1.1,0.75l-2.55,0.5c0.267-0.067,0.767-0.25,1.5-0.55
		C60.417,20.533,61.133,20.3,61.9,20.1z M62.5,24.65l0.35-0.7c0.767-0.367,1.35-0.767,1.75-1.2c0.267-0.333,0.433-0.5,0.5-0.5
		c0.333,0,1.283,0.133,2.85,0.4c1.533,0.267,2.466,0.4,2.8,0.4c1.667,0,2.833-0.2,3.5-0.6c0.567-0.333,1.1-1.034,1.6-2.1
		c1.633,0.467,3.767,0.867,6.4,1.2c3.133,0.4,5.467,0.483,7,0.25l0.95,1.05c-0.467,0-4.55,0.2-12.25,0.6
		C71.15,23.817,66,24.217,62.5,24.65z M60.8,28.25l0.1-0.35l1.3-0.15L60.8,28.25z M84.45,25.9l-2.4-0.2l5.2,0.05
		c-0.133,0.133-0.333,0.217-0.6,0.25C86.283,26.033,85.55,26,84.45,25.9z M103.95,25.7l-1,0.5c-0.6,0.1-1.7,0.483-3.3,1.15
		c-1.5,0.633-2.45,0.95-2.85,0.95c-0.4,0-0.95-0.1-1.65-0.3c-0.8-0.267-1.367-0.45-1.7-0.55L91.95,27c-0.7,2.033-1.2,3.417-1.5,4.15
		c-0.233,0.567-0.7,1.65-1.4,3.25c-0.733-0.333-1.1-1.566-1.1-3.7c0-0.434,0.45-1.233,1.35-2.4c1.034-1.3,1.617-2.15,1.75-2.55
		c1.467,0.1,3.35-0.133,5.65-0.7c2.667-0.633,4.417-1.433,5.25-2.4L103.95,25.7z M114.9,35.65l-0.2,1.65l-0.55,1.8
		c0,1.3-0.566,2.417-1.7,3.35c-1.133,0.9-2.5,1.35-4.1,1.35c-0.833,0.067-1.833-0.083-3-0.45c-2.533-1.434-4.184-2.633-4.95-3.6
		c-0.566-1.067-1.183-2.017-1.85-2.85c-0.3-0.867-0.566-1.833-0.8-2.9c-0.2-0.933-0.3-1.533-0.3-1.8l0.05-1
		c0.5,0,1.067-0.034,1.7-0.1c0.533-0.033,0.85-0.067,0.95-0.1c-0.333,0.4-0.533,0.667-0.6,0.8c-0.167,0.3-0.25,0.667-0.25,1.1
		c0,1.133,0.733,1.917,2.2,2.35l0.3,0.15c-0.167,0.233-0.333,0.467-0.5,0.7c-0.333,0.5-0.5,0.95-0.5,1.35
		c0,0.633,1.083,1.633,3.25,3c2.1,1.333,3.483,2,4.15,2c1.1,0,2.183-1.167,3.25-3.5c0.5-1.167,0.933-2.333,1.3-3.5
		c0.733,0,1.183-0.25,1.35-0.75c0.066-0.133,0.1-0.45,0.1-0.95c0-0.433-0.117-0.75-0.35-0.95c-0.133-0.1-0.417-0.216-0.85-0.35
		c0.567-0.3,1.3-0.6,2.2-0.9c0.167,0.1,0.117,0.95-0.15,2.55L114.9,35.65z M102.85,32.55c1.333-0.9,2.45-1.417,3.35-1.55
		c0.9-0.067,1.433,0.067,1.6,0.4c0.333,0.667,0.55,1.05,0.65,1.15c-1.7,1.034-3.233,1.733-4.6,2.1
		C103.683,33.65,103.35,32.95,102.85,32.55z M91.35,97.95L90.2,97.6l-0.55-0.15c-2.633-0.934-4.117-1.483-4.45-1.65
		c-0.967-0.633-1.467-0.95-1.5-0.95l-3.35-2.15c-0.1-0.034-1.6-0.667-4.5-1.9c-2.833,0-5.233-0.5-7.2-1.5c-2-1-3-2.2-3-3.6
		C65.217,84.067,65,82.117,65,79.85c0-0.467-0.133-0.934-0.4-1.4c-0.4-0.7-0.733-1.517-1-2.45c0-0.033,0.15-0.15,0.45-0.35
		c0.333-0.2,0.633-0.333,0.9-0.4l-0.3,0.95c0.5,0.633,1.583,1.733,3.25,3.3c-0.4,0.467-0.767,1.1-1.1,1.9
		c-0.333,0.8-0.5,1.4-0.5,1.8c0,2.233,1.35,3.683,4.05,4.35c1.5,0.367,3.8,0.867,6.9,1.5c2.267,1.034,5.833,2.9,10.7,5.6
		c2.7,1.5,5.75,2.684,9.15,3.55l-1.25,0.65L91.35,97.95z M105.3,95.65l0.9-0.7c2.5-0.767,5.75-1.55,9.75-2.35
		c4.433-0.9,8.05-1.45,10.85-1.65l1.55,0.05c-2.4,1.1-5.833,2.167-10.3,3.2C112.717,95.433,108.467,95.917,105.3,95.65z M116.5,98
		c-2.433,0.567-3.683,0.867-3.75,0.9c-1.167,0.2-2.933,0.4-5.3,0.6c-0.667,0.033-1.467-0.133-2.4-0.5c0.733,0,5.534-0.667,14.4-2
		L116.5,98z M94.15,91c4.167,1.067,6.9,1.683,8.2,1.85c-1.4,0.2-2.434,0.3-3.1,0.3c-3.4,0-6.917-0.65-10.55-1.95
		C90.133,90.5,91.95,90.433,94.15,91z M155.25,59.8v0.85l-3.2-0.9L155.25,59.8z M148.1,61.3l1.551,0.75
		c-1.834-0.3-3.584-0.65-5.25-1.05l-1.65-0.45c0.533,0.133,1.517,0.117,2.95-0.05C146.7,60.367,147.5,60.633,148.1,61.3z
		 M144.35,54.25c1.4,0.467,2.267,0.817,2.601,1.05c-1.566,0.534-2.9,0.85-4,0.95c-0.233-0.9-0.566-1.783-1-2.65
		C142.217,53.6,143.017,53.817,144.35,54.25z M143.95,69.7c-2.233-1-3.483-1.633-3.75-1.9c0.2-0.2,0.483-0.417,0.85-0.65
		c0.4-0.233,0.684-0.367,0.851-0.4L143.95,69.7z M129,59.05c0.633-0.2,1.1-0.433,1.4-0.7c0.067,0.066,1.2,1.367,3.4,3.9
		c1.434,1.6,2.267,2.633,2.5,3.1c0.9,1.667,1.384,2.75,1.45,3.25c0.066,0.566,0.2,1.033,0.4,1.4l1.35,1.05
		c-1.134-0.767-2.866-2.2-5.2-4.3c-3.167-2.867-5.45-5.383-6.85-7.55C127.817,59.3,128.333,59.25,129,59.05z M126.75,58.15
		c-1.033-1.566-1.733-2.717-2.1-3.45c-0.533-1.133-1.083-2.95-1.65-5.45c1.867,1.6,3.133,3.367,3.8,5.3
		C127.4,56.25,127.383,57.45,126.75,58.15z M66.5,10.8l0.85,0.6l1.1,0.25c-2.2,0.6-3.55,0.934-4.05,1l-0.45-0.45
		C65.55,11.467,66.4,11,66.5,10.8z M70.2,15.85l3.7-0.6c-1.2,0.3-2.467,0.55-3.8,0.75L70.2,15.85z M50.35,14.15
		c0.467,0.434,0.816,0.967,1.05,1.6c-0.933,1.333-3.05,2.8-6.35,4.4c1.067-1.2,1.8-2.1,2.2-2.7c0.433-0.6,1.25-1.867,2.45-3.8
		L50.35,14.15z M17.35,28.3c0.2-0.1,0.9-0.417,2.1-0.95c1.566-0.733,2.65-1.217,3.25-1.45l1.7-0.3l1.25,0.15
		C13.383,33.217,6.717,37.7,5.65,39.2l-2.6-1L3,38.15l3.25-2l3.5-2.2c0.467-0.333,1.033-0.733,1.7-1.2c0.7-0.5,1.566-1.167,2.6-2
		C14.55,30.283,15.65,29.467,17.35,28.3z M16.55,45.6c3.434-2.333,4.934-3.55,4.5-3.65c0.133-0.067,0.284,0,0.45,0.2
		c0.233,0.2,0.533,0.3,0.9,0.3c1,0,1.65-0.367,1.95-1.1c-0.2,0.633-0.133,1.15,0.2,1.55c0.267,0.333,0.667,0.517,1.2,0.55h1
		c-2.8,1.9-5.783,2.75-8.95,2.55C17.8,45.933,17.383,45.8,16.55,45.6z M1.55,40.75c3.333,1.333,7.167,3.233,11.5,5.7
		c2.7,1.533,4.883,2.3,6.55,2.3c0.867,0,2.583-0.467,5.15-1.4c3.033-1.133,5.233-2.333,6.6-3.6l2.95,1.75
		c-0.6,0.467-2.683,1.267-6.25,2.4c-2.1,1.2-4.216,2.217-6.35,3.05c-2.1,0.833-3.583,1.25-4.45,1.25c-1.3,0-3.15-0.967-5.55-2.9
		c-2.7-2.333-4.617-3.95-5.75-4.85c-2.233-1.367-3.534-2.217-3.9-2.55L1.5,40.7L1.55,40.75z M28.6,29.05
		c0.133,0.034,1.85,0.534,5.15,1.5c0.967,1.233,1.25,2.434,0.85,3.6c-0.2,0.6-0.55,1.217-1.05,1.85l-0.9,1.45
		c0.067-1.633,0.35-2.633,0.85-3s0.75-0.867,0.75-1.5c0-0.4-0.017-0.65-0.05-0.75c-0.133-0.133-0.267-0.333-0.4-0.6
		c-1.033-0.133-2.267-0.05-3.7,0.25c-0.033-0.033-0.033-0.1,0-0.2c0.066-0.167,0.1-0.433,0.1-0.8c0-0.434-0.15-0.783-0.45-1.05
		C29.283,29.5,28.9,29.25,28.6,29.05z M9.85,40.9c0.667,0,0.983-0.133,0.95-0.4l0.65-0.6l-0.7,2.25c-0.4-0.267-0.8-0.55-1.2-0.85
		c-0.767-0.566-1.117-0.95-1.05-1.15c0.167,0.167,0.317,0.35,0.45,0.55C9.117,40.833,9.417,40.9,9.85,40.9z M37.5,34l0.35,1.2
		c0.133,1.2,0.2,2.233,0.2,3.1c0,1.233-0.216,2.434-0.65,3.6c-0.367,1.033-0.65,1.55-0.85,1.55c-1.033,0-2.4-0.267-4.1-0.8
		c0.3-0.167,0.983-0.983,2.05-2.45C35.9,38.167,36.9,36.1,37.5,34z M21.25,33.8c-0.2-0.2-0.65-0.3-1.35-0.3
		c0.934-0.667,1.483-1.117,1.65-1.35c0.534,0.2,0.85,0.733,0.95,1.6L22.3,35l-0.25,0.75C21.75,34.683,21.483,34.033,21.25,33.8z
		 M75.6,80.4l0.65-0.05c0.667,0,1.65,0.133,2.95,0.4l-2.8,0.05L75.6,80.4z"/>
	<path style="fill-rule:evenodd;clip-rule:evenodd;fill:#70675C;" d="M175.5,56.45V56.1l2.05,1.1v0.05l-0.3,0.35L175.5,56.45z
		 M173.8,55.45l-0.35-0.15l0.35,0.1V55.45z M175.45,59.15c0.6,0.367,1.184,0.65,1.75,0.85l-0.05,1.65c0,1.867,0.199,3.067,0.6,3.6
		c0.9,1.167,1.566,2.317,2,3.45l-0.95-0.05l-2.85-0.85L175,67.35C175.233,63.517,175.384,60.783,175.45,59.15z M173.1,57.65
		c-1.433,3.7-2.25,5.75-2.449,6.15L168.85,62l-0.55-0.6l-1.85-1.75c-0.3-1.6-0.566-2.7-0.8-3.3c-0.367-1.067-0.983-1.934-1.851-2.6
		c1.733,0.367,2.867,0.633,3.4,0.8C168.7,55.083,170.667,56.117,173.1,57.65z M132.75,28.2l-0.15-0.05h0.15V28.2z M126.2,39.85
		c-0.534-0.067-1.217-0.2-2.05-0.4l-1.6-0.5l-2.05-0.25l-0.15,1l-0.05,0.35l-0.1,0.1c-1.667-0.267-2.833-0.717-3.5-1.35l-0.85-2.1
		l0.2,0.15c0.233,0.066,0.55,0.1,0.95,0.1c0.267,0,1.3-0.184,3.1-0.55c1.733-0.333,2.867-0.483,3.4-0.45
		c1.2,0.066,2.15-0.367,2.85-1.3c0.733-0.933,1.083-2.167,1.05-3.7l5.6,0.2l0.2,3.2c0,2.1-0.5,3.233-1.5,3.4
		C129.4,38.15,127.567,38.85,126.2,39.85z M107.85,29.95l-1.25-2l0.4-0.1c0.333-0.1,0.7-0.15,1.1-0.15c0.433,0,0.883,0.2,1.35,0.6
		c1.233,1.034,2.083,1.717,2.55,2.05C111.233,30.217,109.85,30.083,107.85,29.95z M118.1,42.4l0.65,0.05l-0.4,0.7L118.1,42.4z
		 M22.7,25.9c-0.6,0.233-1.684,0.717-3.25,1.45c0.233-0.434,0.383-1.75,0.45-3.95c0.033-2.066-0.017-3.55-0.15-4.45
		c0.3-0.034,1.533,0.117,3.7,0.45c1.167,0.2,2.733,0.45,4.7,0.75c0.033,0.867-0.517,1.583-1.65,2.15
		C24.933,23.133,23.667,24.333,22.7,25.9z M6.25,36.15c0-0.6,0.35-1.117,1.05-1.55c0.667-0.434,1.483-0.65,2.45-0.65L6.25,36.15z
		 M17.35,28.3c-1.7,1.167-2.8,1.983-3.3,2.45c0.367-2.1,0.883-4.033,1.55-5.8l0.55-0.8c0.2,0.9,0.333,1.8,0.4,2.7
		C16.617,27.383,16.883,27.867,17.35,28.3z"/>
	<path style="fill-rule:evenodd;clip-rule:evenodd;fill:#9B9286;" d="M173.8,55.45l1.7,1l1.75,1.15l2.05,1.8l0.05,0.05l-0.05,0.05
		c-0.2,0.167-0.517,0.3-0.95,0.4c-0.433,0.133-0.816,0.167-1.149,0.1c-0.566-0.2-1.15-0.483-1.75-0.85l-2.351-1.5
		c-2.433-1.533-4.399-2.566-5.899-3.1c-0.533-0.167-1.667-0.433-3.4-0.8c-1.233-0.267-1.983-0.45-2.25-0.55
		c-0.366-0.167-1.45-0.784-3.25-1.85l-1.3-1.9h1.2l-1.65-0.6l-1.5-1.95c3.733,0.633,7.25,1.867,10.55,3.7
		c1.867,1.033,4.467,2.583,7.801,4.65l0.05,0.05L173.8,55.45z M175.65,74.8c0.267,0.333,0.517,0.733,0.75,1.2l-0.801-1.15
		L175.65,74.8z M231.45,181.9c0.666,3,1.217,4.85,1.649,5.55c0.634,1,1.784,1.5,3.45,1.5c0.601,0,1.5-0.25,2.7-0.75
		c0.833,2,1.35,3.366,1.55,4.1c0.134,0.434,0.267,0.983,0.4,1.65c-2.467-0.601-3.917-0.934-4.351-1
		c-0.366-0.101-0.899-0.15-1.6-0.15c-1.634,0-2.45,0.917-2.45,2.75c1.367,5.3,2.05,7.983,2.05,8.05c0,0.667-0.05,1.483-0.149,2.45
		h-1.65c-1.733-0.233-3.316-1.483-4.75-3.75c-1.366-2.533-2.35-4.184-2.95-4.95l0.25-5.699c0-0.567-0.333-1.284-1-2.15
		c-0.899-1.134-1.616-2.45-2.149-3.95c-0.601-1.633-0.934-3.45-1-5.45c-0.066-1-0.601-1.783-1.601-2.35l0.351-1
		c2.633-0.967,4.767-0.583,6.399,1.15C228.8,180.3,230.417,181.634,231.45,181.9z M195,120.75c0.6-0.167,1.65,0.116,3.15,0.85
		c1.199,0.534,2.116,1.051,2.75,1.551l0.05,0.05l-5.5,9.45C195.65,127.483,195.5,123.517,195,120.75z M172.3,141.7l-0.1-2.95
		c0-1.866,1.3-3.6,3.899-5.2c2.434-1.467,4.834-2.2,7.2-2.2c1.267,0,2.2,0.467,2.8,1.4c0.667,1.033,1,2.684,1,4.95
		c0,0.333-0.033,1.833-0.1,4.5c-0.066,2.866-0.05,5.2,0.05,7c-0.6,0.833-1.583,1.517-2.95,2.05c-1.133,0.434-2.116,0.65-2.949,0.65
		c-3.334-0.267-5.233-0.4-5.7-0.4c-0.066-0.467-0.084-1.2-0.05-2.2c0.066-1.233,0.1-2.017,0.1-2.35
		C174.767,144.65,173.7,142.9,172.3,141.7z M190.55,147.25L190,147.3l0.25-0.05H190.55z M194.95,149.55
		c-0.566-1.133-1.084-1.934-1.55-2.399c0.166-0.301,0.433-1.567,0.8-3.801c0.366-2.1,0.583-3.517,0.649-4.25
		c1.801-0.699,3.334-0.116,4.601,1.75c1.333,2,2,5.051,2,9.15c0,0.634-0.066,1.4-0.2,2.3c-0.167,1.066-0.333,1.634-0.5,1.7
		c-0.967-0.2-2.2-1.033-3.7-2.5c-1.366-1.5-2.149-2.35-2.35-2.55L194.95,149.55z M208.35,179.7c-2.267-0.667-3.633-1.884-4.1-3.65
		c-0.233-0.934-0.4-2.733-0.5-5.399c-0.134-3.301-0.333-6.034-0.6-8.2c2.566-0.267,3.966-0.4,4.199-0.4
		c2.167,0.066,3.417,0.767,3.75,2.101c0.267,0.966,0.584,2.6,0.95,4.899c0.467,2.767,0.7,4.717,0.7,5.851c0,1-0.417,1.949-1.25,2.85
		C210.667,178.583,209.616,179.233,208.35,179.7z M127.4,30.95c-1.5,0-4.25-0.85-8.25-2.55c-4.1-1.767-8.15-2.733-12.15-2.9
		l-3.4-0.4l-1.1-1.7c0.733-0.566,2.117-0.917,4.15-1.05c1.934-0.1,3.733,0.033,5.4,0.4l0.3,0.1c0.3,0.066,0.733,0.117,1.3,0.15
		c3.467,0.833,9.783,2.55,18.95,5.15l0.15,0.05c2.233,0.833,3.467,1.267,3.7,1.3l0.25,0.2c-0.267,0.566-0.601,0.95-1,1.15
		c-0.5,0.2-1.4,0.3-2.7,0.3L127.4,30.95z M120.9,53.4c0.133,1.867,1.85,5.517,5.15,10.95c2.9,4.733,5.15,8,6.75,9.8
		c0,1.033,0.101,2.15,0.3,3.35c0.2,1.167,0.417,1.933,0.65,2.3c0.267-0.267,0.5-0.716,0.7-1.35c0.033-0.133,0.2-0.867,0.5-2.2
		c1.2,0.767,2.149,1.367,2.85,1.8l-0.05,3.4c0,2.466,0.167,4.95,0.5,7.45c0.366,2.633,0.816,4.434,1.35,5.4l0.65-4.45
		c0.3,0.633,0.616,1.183,0.95,1.65c1.833-4.133,3.649-8.233,5.45-12.3h3.05c0.7,0.8,1.95,1.383,3.75,1.75
		c1.066,0.233,2.85,0.45,5.35,0.65c0.101,0.267,0.351,1.383,0.75,3.35c0.4,1.933,0.601,2.983,0.601,3.15
		c-0.233,1.433-0.534,3.566-0.9,6.4c-0.434,2.233-1.233,3.667-2.4,4.3c-0.666,0.333-2.449,0.883-5.35,1.65
		c-2.7,0.7-4.15,1.05-4.35,1.05c-1.301,0-2.051-0.817-2.25-2.45c0-2.167-0.134-3.767-0.4-4.8l-1-0.35
		c-0.566,0.1-1.634,0.383-3.2,0.85l-2.2,0.65c-1.466,0-2.383-1.683-2.75-5.05c-0.333-3.367-1.5-5.05-3.5-5.05
		c-3.633,0.867-5.934,1.3-6.9,1.3c-0.4,0-1.133-0.217-2.2-0.65c-1.4-0.534-2.483-1.2-3.25-2l-0.1-0.35
		c0.033-1.333-0.066-3.25-0.3-5.75c-0.233-2.567-0.35-3.9-0.35-4c-0.333-17.2-0.5-25.85-0.5-25.95c0-0.633,0.233-1.85,0.7-3.65
		c0.566-2.067,0.883-3.333,0.95-3.8l0.3-0.3l0.1-0.1l-0.05,0.6v0.2c-0.033,0.633-0.067,1.267-0.1,1.9v0.2
		C120.15,43.617,120.4,47.1,120.9,53.4z M56.75,40.8c1.7-0.667,2.95-2.017,3.75-4.05c1-4.167,1.967-7.267,2.9-9.3L69,25.7
		c1.4,0.2,2.333,0.4,2.8,0.6c0.6,0.233,1.233,0.684,1.9,1.35c0.367,0.367,0.867,2.117,1.5,5.25c0.267,1.1,0.95,2.633,2.05,4.6
		c0.833,1.533,1.25,3.05,1.25,4.55c0,0.333-0.033,1.684-0.1,4.05c-0.033,2.467-0.017,4.3,0.05,5.5l-0.65,2.35
		c-0.267,0.333-0.533,0.867-0.8,1.6c-0.267,0.633-0.4,1.05-0.4,1.25l0.1,4.35l-1.15,2c-0.566-1-1.167-2.983-1.8-5.95
		c-0.933-4.167-1.7-7.25-2.3-9.25c1.2-1.767,1.8-4.2,1.8-7.3c0-0.667-0.167-3.9-0.5-9.7c-3,9.333-4.5,14.383-4.5,15.15l0.6-0.5
		c-1.1,1-1.917,1.867-2.45,2.6c-0.133,0.167-0.417,0.633-0.85,1.4c-0.566,0.167-1.466,0.367-2.7,0.6c-1.333,0.267-2.233,0.4-2.7,0.4
		c-3.267-0.233-5.85-0.25-7.75-0.05l-4.15-0.15l2.4,0.55l-3.2-0.05l0.95,0.55c2.6-0.367,4.25,0.133,4.95,1.5
		c0.367,0.767,0.867,2.017,1.5,3.75c1.2,1.367,2.233,2.3,3.1,2.8c0.267,0.433,0.4,2.767,0.4,7c0,4.033-0.133,6.7-0.4,8
		c-0.434,2.133-1.4,3.2-2.9,3.2c-0.933,0-2.2-0.317-3.8-0.95c-0.067-0.033-0.133-0.067-0.2-0.1c-1-2.533-2.267-4.667-3.8-6.4
		c-2.2-2.533-4.683-3.817-7.45-3.85l0.7-0.05c-0.1-2.8-0.117-4.833-0.05-6.1c0.066-1.433,0.283-2.367,0.65-2.8
		c0.7-0.8,1.983-1.534,3.85-2.2c1.133-0.433,1.7-1.533,1.7-3.3c0-2.233-0.467-4.117-1.4-5.65c-1.033-1.367-1.7-2.367-2-3
		c0.467-6.6-1.617-11.433-6.25-14.5c-1.433-0.966-3.283-1.85-5.55-2.65c-2.534-0.833-3.9-1.316-4.1-1.45
		c0.833-0.067,2.183-0.55,4.05-1.45c1.967-0.933,3.167-1.733,3.6-2.4l0.25-0.9c-3,0.2-5.367,0.267-7.1,0.2
		c-1.967-0.3-3.533-0.55-4.7-0.75c-2.167-0.333-3.4-0.483-3.7-0.45c-2-0.133-3.667-0.333-5-0.6l0.65-0.55
		c1.233-0.6,4.583-1.45,10.05-2.55c6.6-1.3,10.433-2.1,11.5-2.4c2.267-0.633,3.716-1.767,4.35-3.4c0.5-1.367,1.883-2.117,4.15-2.25
		c-0.567,3.167-1.583,5.833-3.05,8c-1.7,2.533-2.7,4.3-3,5.3L39.15,21h0.05c-0.2,0.367-0.5,0.967-0.9,1.8
		c-0.6,1.167-0.9,1.883-0.9,2.15c0,1.466,2.95,2.9,8.85,4.3c0.7,1.2,2.367,1.95,5,2.25c2.767,0.3,4.517,0.883,5.25,1.75V34
		l-0.45,0.65l0.45-0.3c0.067,1.367-0.5,2.7-1.7,4l-1.7,1.1c-0.467,0.233-1.367,0.466-2.7,0.7c-1.3,0.2-2,0.333-2.1,0.4L49.25,41
		c1.233,0.267,2.65,0.35,4.25,0.25C54.733,41.283,55.817,41.133,56.75,40.8z M118.15,42.65l-0.45-1.3l0.4,1.05l0.25,0.75
		L118.15,42.65z M108.35,43.8c1.467,2.2,3.217,4.333,5.25,6.4c1.3,1.733,1.95,4.316,1.95,7.75c0,1.433-0.3,2.6-0.9,3.5
		c-0.6,0.867-0.9,1.383-0.9,1.55c0,0.533-0.3,0.85-0.9,0.95c-0.667,0.133-1.033,1.2-1.1,3.2c-0.033,0.9-0.033,1.8,0,2.7
		c-0.067,0.733-0.433,1.883-1.1,3.45l-0.5-1c-0.633-3.466-1.583-9.283-2.85-17.45c-1-6.6-1.65-10.434-1.95-11.5
		C106.517,43.717,107.517,43.867,108.35,43.8z M93.1,79.35c0-6.934,0.033-10.917,0.1-11.95c0.167-2,0.633-3,1.4-3
		c1.066,0,2.05,0.733,2.95,2.2c1.167,1.833,1.75,4.316,1.75,7.45l-0.1,3.8c-0.534,0.8-1.017,1.333-1.45,1.6
		c-0.5,0.3-1.233,0.45-2.2,0.45C94.95,79.9,94.133,79.717,93.1,79.35z M80.95,106.1c-0.1-0.067-0.2-0.133-0.3-0.2l0.2,0.1
		L80.95,106.1z M108.25,107.9c-0.167-2.433-0.433-5.233-0.8-8.4c2.367-0.2,4.133-0.4,5.3-0.6c0.067-0.033,1.317-0.333,3.75-0.9
		l0.9-0.25c-0.066,0.833,0.317,2.383,1.15,4.65c0.833,2.333,1.25,3.617,1.25,3.85c0,0.533-0.333,1-1,1.4
		c-0.733,0.4-1.617,0.5-2.65,0.3l0.2,5.399c-0.533,0.034-1.233-0.033-2.1-0.199c-0.867-0.167-1.583-0.367-2.15-0.601l-3.85-5.25
		V107.9z M96.6,112.15l-0.55,0.399l0.05-0.1L96.6,112.15z M97.1,112l0.65,0.05l0.75,0.3C98.1,112.217,97.633,112.1,97.1,112z
		 M127.95,136.75c-0.267-0.3-1.05-0.9-2.35-1.8c-1.3-0.934-2.133-1.483-2.5-1.65l1.25,0.5c0.167,0.101,0.75,0.55,1.75,1.351
		C127.167,136.017,127.783,136.55,127.95,136.75z M69.3,50.6c0.133-0.1,0.583-0.633,1.35-1.6c-0.167,0.233-0.3,0.467-0.4,0.7
		C70.15,50,69.833,50.3,69.3,50.6z M73.45,76.9l-5.1-1.35c-0.267-0.4-0.917-1.85-1.95-4.35c-1.2-3-1.867-4.633-2-4.9l0.05,1
		l-0.15-1.15l-0.05,6.1c-0.2,1-0.717,1.6-1.55,1.8l-0.95-0.2c1.133-4.867,0.883-9.017-0.75-12.45c-1.9-2.633-2.85-4.25-2.85-4.85
		c0-0.733,0.434-1.966,1.3-3.7c0.3,0,0.85,0,1.65,0c0.767-0.033,1.5-0.217,2.2-0.55l1.2-1.3l-2.2,2.55
		c0.167,0.133,0.35,0.267,0.55,0.4c0.2,0.1,0.517,0.15,0.95,0.15c0.034,0,1.017-0.434,2.95-1.3c1.9,0.3,3.417,1.517,4.55,3.65
		c0.867,1.667,1.383,3.566,1.55,5.7c0.1,1.633,0.767,2.8,2,3.5c0.5,0.3,1.3,0.55,2.4,0.75c2.167,0.4,3.25,2.283,3.25,5.65
		c0,2.5-0.8,3.883-2.4,4.15C76.033,76.133,74.483,76.367,73.45,76.9z M1.55,40.75L1.5,40.7l0.55,1.2
		c0.367,0.333,1.667,1.184,3.9,2.55c0.367,1.233,1.117,2.383,2.25,3.45c0.7,0.6,1.833,1.45,3.4,2.55c2.933,2.233,4.4,5.05,4.4,8.45
		c0,1.733-0.317,2.983-0.95,3.75c-1,1.233-2.95,1.85-5.85,1.85c-0.367,0-1.3-0.1-2.8-0.3c-1.267-0.167-2.133-0.284-2.6-0.35
		c-0.4-0.934-0.633-2.2-0.7-3.8c-0.167-3.4-0.267-5.15-0.3-5.25c-0.333-2.2-0.917-4.733-1.75-7.6C0.35,44.9,0,43.317,0,42.45
		c0-0.534,0.167-0.967,0.5-1.3c0.167-0.2,0.483-0.483,0.95-0.85C1.45,40.433,1.483,40.583,1.55,40.75z M25.65,63.8
		c0.7,0.2,1.233,0.25,1.6,0.15v0.9L25.6,65.6L25.65,63.8z M14.6,67.35c-0.9,0.066-2.15,0.117-3.75,0.15c-1.934,0-2.934,0-3,0
		c2.4,1.533,4.25,2.583,5.55,3.15c1.567,0.667,3.1,1,4.6,1c0.867,0,1.533-0.167,2-0.5c0.267-0.167,0.533-0.383,0.8-0.65
		c0.034,0.7,0.55,4.35,1.55,10.95l0.6-1.35c0.833-1.833,1.183-4.383,1.05-7.65l-0.15-4.55c0.7-0.133,1.316,0.017,1.85,0.45
		l-0.1-1.45l1.2,0.2l-0.6,1.8l-0.5-0.55l0.15,1.4l0.35-0.85c1.233,0,2.283-0.183,3.15-0.55c0.867-0.4,1.3-0.867,1.3-1.4
		c0.2,2.867-0.083,6.3-0.85,10.3c-0.5,2.733-1,4.783-1.5,6.15c-0.267,0.3-0.466,0.483-0.6,0.55c-0.233,0.167-0.567,0.25-1,0.25
		c-8.667-1.8-14.034-2.8-16.1-3c-1.434-0.133-2.467-1.267-3.1-3.4c-0.433-1.533-1.033-5.433-1.8-11.7
		c0.533,0.1,1.917,0.133,4.15,0.1C11.55,66.2,13.133,66.583,14.6,67.35z M20.15,62.25l0.1-2.15l0.05,2.05L20.15,62.25z M33.4,68.7
		l0.05-1.8l0.05-0.15L33.4,68.7z M128.9,122.4c0.833,0.433,2.217,1.25,4.15,2.449c2.066,1.034,4.4,1.551,7,1.551
		c0.667,0,2.033-0.267,4.101-0.801c0.333,0.567,0.633,1.233,0.899,2c0.267,0.834,0.4,1.551,0.4,2.15s-0.316,1.816-0.95,3.65
		c-0.667,1.8-1,3.666-1,5.6l0.05,10.6c0.033,0.7,0.566,1.4,1.601,2.101c1.133,0.733,1.767,1.434,1.899,2.1
		c0.066,0.334,0.184,1.483,0.351,3.45c0.1,1.2,0.399,2.017,0.899,2.45l0.15-0.15l1.75-3.5c-0.667,1.733-1.167,2.867-1.5,3.4
		c-0.467,0.866-1.167,1.3-2.101,1.3c-5.267-0.467-9.483-0.8-12.649-1c0.3-1.566,0.066-4.316-0.7-8.25c-0.767-3.833-1.683-7-2.75-9.5
		c0.033-1.833-0.15-3.5-0.55-5c0.233-0.7,0.066-2.667-0.5-5.9c-0.633-3.466-1.35-5.833-2.15-7.1l0.3-1.3L128.9,122.4z M91,122.8
		c0.167-0.033,0.333-0.05,0.5-0.05h0.3C91.533,122.783,91.267,122.8,91,122.8z M259.45,212.6l0.1,0.051l0.15,0.1L259.45,212.6z
		 M240.7,215.35V214.9l0.149,0.3L240.7,215.35z M228.35,213.2l1.15,0.35c-1.134,0-2.1-0.383-2.9-1.149
		c-0.8-0.767-1.199-1.7-1.199-2.801l0.1,0.4c0.1,0.333,0.533,0.917,1.3,1.75C227.533,212.55,228.05,213.033,228.35,213.2z
		 M225.15,200.65L225.1,202.6v4C225.033,204.167,225.05,202.184,225.15,200.65z"/>
	<path style="fill-rule:evenodd;clip-rule:evenodd;fill:#7C7367;" d="M179.1,109.7c-1.267-0.5-2.166-1.517-2.699-3.05
		c-0.601-1.867-0.9-5.033-0.9-9.5c0-0.333,0.2-0.633,0.6-0.9c0.634-0.5,1.067-0.883,1.301-1.15c1.233-1.467,1.85-4.167,1.85-8.1
		c0-0.467-0.333-2.083-1-4.85c-0.733-3.066-1.35-5.117-1.85-6.15c-0.233-0.467-0.483-0.867-0.75-1.2l3.3-1.6
		c0.533,2.133,0.833,5.85,0.899,11.15c0.101,7.233,0.184,11.233,0.25,12l-0.55,1.6c-0.3-1.133-0.666-0.45-1.1,2.05
		c-0.2,1.267-0.384,2.667-0.55,4.2C177.9,104.3,178.3,106.133,179.1,109.7z M173.8,55.4l1.7,0.7v0.35l-1.7-1V55.4z M157,49.45
		l-0.45-0.6l1.65,0.6H157z M162.9,56.75l-0.7-0.65c-0.8-0.767-1.417-1.417-1.851-1.95c-0.399-0.5-1.083-1.433-2.05-2.8
		c1.8,1.066,2.884,1.683,3.25,1.85c0.267,0.1,1.017,0.283,2.25,0.55c0.867,0.667,1.483,1.533,1.851,2.6c0.233,0.6,0.5,1.7,0.8,3.3
		L162.9,56.75z M173.1,57.65l2.351,1.5c-0.066,1.633-0.217,4.367-0.45,8.2c-1.1-0.7-2.066-1.417-2.9-2.15
		c-0.733-0.7-1.216-1.167-1.449-1.4C170.85,63.4,171.667,61.35,173.1,57.65z M172.8,85.65c0.533,0.033,1.134-0.05,1.8-0.25
		c0.667-0.2,1.051-0.4,1.15-0.6c-0.033,0.267-0.167,0.75-0.4,1.45c-0.267,0.867-0.483,1.4-0.649,1.6c0.233,0.1,0.017,0.15-0.65,0.15
		c-0.434,0-0.7-0.117-0.8-0.35C173.116,87.05,172.967,86.383,172.8,85.65z M167.15,80.35c-1.867-0.4-3.5-0.25-4.9,0.45l0.15-1.8
		c1.166-0.133,2.3-0.3,3.399-0.5L167.15,80.35z M129,120.1c0.867-0.5,2.9-0.8,6.1-0.899c2.167-0.101,3.25-1.066,3.25-2.9
		c0-0.366-0.449-2.35-1.35-5.95c-1.066-4.366-2.316-9.1-3.75-14.2l-0.05-1.6c3.133,6.467,4.85,9.95,5.149,10.45
		c1.567,2.733,3.051,4.1,4.45,4.1c0.334,0,1.3-0.116,2.9-0.35c1.6-0.167,2.833-0.083,3.7,0.25c0.899,0.366,2.166,1.417,3.8,3.15
		c1.434,1.566,2.517,2.35,3.25,2.35c2.333,0,4.467-1.717,6.399-5.15c1-1.8,2.267-4.1,3.801-6.899c0.333-0.3,0.699-2.733,1.1-7.3
		c0.4-4.467,0.6-8.3,0.6-11.5l-0.05-1.35c0.134,0.833,0.733,3.3,1.8,7.4c0.967,4.167,1.45,7.233,1.45,9.2c0,2.533-1.1,4.533-3.3,6
		c-2.033,1.333-2.9,3.234-2.6,5.7c0.533,4.334-0.017,7.483-1.65,9.45c-1.434,1.7-3.5,2.351-6.2,1.95c0,0.9-0.233,2.05-0.7,3.45
		c-0.6,1.633-1,3.483-1.199,5.55c-0.034,0-0.084,0.033-0.15,0.1c-0.167,0.101-0.316,0.301-0.45,0.601l-0.55,0.6
		c0-1.267-0.3-3.666-0.9-7.2c-0.699-4.133-1.383-6.6-2.05-7.399l-0.149,2.3c-0.334-0.667-0.551-1.033-0.65-1.1
		c-0.134-0.067-0.316-0.2-0.55-0.4c-0.101,0.167-0.783,0.566-2.05,1.2c-7.134,0.2-11.684,0.333-13.65,0.399
		C131.883,120.167,129.967,120.167,129,120.1z M151.5,128.95c0.167-3.733,0.267-5.884,0.3-6.45h0.05
		C152.05,124.9,151.934,127.05,151.5,128.95z M150.35,149.1c-1.733-2.233-2.916-3.783-3.55-4.649c-1.066-1.4-1.6-3.5-1.6-6.3
		c0-2.067,0.35-3.134,1.05-3.2c2.167-0.2,3.3-0.316,3.4-0.351c-0.601,2.667-0.9,4.584-0.9,5.75c0,1,0.283,2.601,0.85,4.801
		C150.134,147.25,150.384,148.566,150.35,149.1z M182.9,120.2c-2.667-0.3-4.384-0.334-5.15-0.101c-1.2,0.367-2.967,1.65-5.3,3.851
		c-1,0.967-1.867,3.717-2.601,8.25c-0.8,4.833-1.399,7.583-1.8,8.25c-1.066,0.467-1.633,0.717-1.7,0.75
		c-0.233,0.066-0.966,0.1-2.199,0.1l-0.851-0.05c-0.166-4.9,0.017-8.467,0.55-10.7c0.567-2.467,1.733-4.116,3.5-4.95
		c0.167,2.034,0.25,6.517,0.25,13.45l0.25,1.351c-0.1-5.301,0.301-10.134,1.2-14.5c1.733-8.567,5.55-12.25,11.45-11.051
		c0,1.467,0.267,2.733,0.8,3.801C181.767,119.517,182.3,120.033,182.9,120.2z M191.5,120.8l2.6-0.05
		c-0.399,1.434-0.866,4.684-1.399,9.75c-0.601,5.934-1.101,10.017-1.5,12.25l0.149-3c0.101-3.2-0.033-5.566-0.399-7.1
		c0.1-1.5,0.149-3.45,0.149-5.851c0-2.5-0.066-4.5-0.199-6H191.5z M217.3,152.05c-1.633-1.833-2.467-3.8-2.5-5.899
		c0.267-2.101,0.334-3.567,0.2-4.4c-0.1-0.8-1.267-2.3-3.5-4.5c-2.467-2.434-3.833-3.9-4.1-4.4c3.899,2.301,6.449,4.917,7.649,7.851
		C215.616,142.066,216.366,145.85,217.3,152.05z M231,175.5c-0.167-0.267-2.316-1.783-6.45-4.55c-3.967-2.667-6.666-5.3-8.1-7.9
		c0.399,0.867,0.883,2.134,1.45,3.8c-0.334,1.634-0.367,4.051-0.101,7.25c-0.066,2.467-1.166,3.9-3.3,4.301
		c0.566-1.534,0.85-2.983,0.85-4.351c-0.199-2.767-0.35-5.116-0.449-7.05c-0.167-3.733,0.05-5.6,0.649-5.6c0.101,0,0.184,0,0.25,0
		c-0.066-0.367-0.166-0.801-0.3-1.301l-0.3-1c0.934,1.5,1.967,3,3.1,4.5c2.9,3.334,4.4,4.784,4.5,4.351
		c-0.366-3.967-0.7-7.101-1-9.4c0.8,0.9,4.351,5.667,10.65,14.3l-0.101,2.551L231,175.5z M238.5,185.95
		c-1.5,0-2.783-0.351-3.85-1.05c-1.067-0.733-1.601-1.617-1.601-2.65c1.5,0,2.783,0.366,3.851,1.1
		C237.967,184.05,238.5,184.917,238.5,185.95z M246.8,207.45c-1.7,0-3.149,0.483-4.35,1.45c-1.2,0.933-1.8,2.066-1.8,3.399
		c0-0.366-0.483-4.166-1.45-11.399c0-0.4,0.083-0.851,0.25-1.351l0.25-0.649c0.3,0.5,1.55,1.517,3.75,3.05
		c2.3,1.566,3.583,2.517,3.85,2.85C247.167,205.9,247,206.783,246.8,207.45z M185.95,120.75h1.85c0.101,0.9,0.4,2.533,0.9,4.9
		c0.399,1.966,0.583,3.183,0.55,3.649c-1.434-1.7-2.25-3.434-2.45-5.2S186.316,121.217,185.95,120.75z M118.15,42.65
		c0.067,7.767-0.1,18.017-0.5,30.75c0,0.567,0.217,2.133,0.65,4.7c0.434,2.5,0.8,4.333,1.1,5.5l0.1,0.35l0.15,0.55
		c0,0.7,0.35,1.3,1.05,1.8c0.7,0.467,1.533,0.7,2.5,0.7l0.5,0.15c1.367,0.267,2.767,0.367,4.2,0.3l-0.75,2.25
		c-1.433,0-3.566-0.1-6.4-0.3c-3.467-0.267-5.567-0.566-6.3-0.9c0.867-0.6,1.65-2.583,2.35-5.95c0.7-3.333,0.85-5.7,0.45-7.1
		l-0.5,0.1c-0.3,0.2-0.817,1.067-1.55,2.6c-0.733,1.533-1.233,2.383-1.5,2.55c-0.333,0.233-1.284,0.483-2.85,0.75
		c-0.434,1.7-0.8,2.85-1.1,3.45c-0.467,0.967-1.733,1.35-3.8,1.15c-7.633-3.767-12.434-5.9-14.4-6.4
		c-3.533-0.433-7.883-1.083-13.05-1.95c4.733-0.733,7.267-1.833,7.6-3.3c-0.367-2.2-0.317-4.183,0.15-5.95
		c0.767-2.8,1.45-5.967,2.05-9.5c0.633-3.833,0.95-6.8,0.95-8.9c0-2.867-0.133-5.333-0.4-7.4l1.3-5.05
		c0.1,0.633,0.55,3.25,1.35,7.85c0.233,1.333,0.35,2.933,0.35,4.8c0,5.1-0.35,9.583-1.05,13.45c-0.733,3.867-1.1,6.716-1.1,8.55
		c0,0.667,0.083,1.95,0.25,3.85c0.1,1.667,0.5,2.667,1.2,3c0.434,0.167,1.083,0.25,1.95,0.25c1.033,0.367,1.85,0.55,2.45,0.55
		c0.967,0,1.7-0.15,2.2-0.45c0.433-0.267,0.917-0.8,1.45-1.6c0.267-0.467,0.683-2.133,1.25-5c0.6-2.934,0.9-4.9,0.9-5.9l0.4,0.45
		c0.467,0.867,0.75,2.184,0.85,3.95c0.033,0.967,0.1,2.417,0.2,4.35c0.434,3.333,2.467,5,6.1,5c2.6-0.5,3.9-1.6,3.9-3.3
		c0-1.3,0.15-2.233,0.45-2.8c0.433-0.567,0.783-1.1,1.05-1.6c0.967-2.067,1.45-7.35,1.45-15.85c-0.6-8.767-1.133-14.783-1.6-18.05
		l0.55-1.8l0.15-0.8c0.133-0.833,0.2-1.483,0.2-1.95V34.1c0.267-1.6,0.317-2.45,0.15-2.55l-3.2-1.2
		c-0.467-0.333-1.317-1.017-2.55-2.05c-0.467-0.4-0.917-0.6-1.35-0.6c-0.4,0-0.767,0.05-1.1,0.15l-0.4,0.1
		c0.033-0.467,0.1-1.017,0.2-1.65l0.2-0.8c4,0.167,8.05,1.133,12.15,2.9c4,1.7,6.75,2.55,8.25,2.55
		c0.033,1.533-0.316,2.767-1.05,3.7c-0.7,0.934-1.65,1.367-2.85,1.3c-0.533-0.034-1.667,0.117-3.4,0.45
		c-1.8,0.367-2.833,0.55-3.1,0.55c-0.4,0-0.717-0.034-0.95-0.1l-0.2-0.15l0.85,2.1l1,2.55L118.15,42.65z M146.75,43.5h-2.55
		l0.6-2.75L146.75,43.5z M113.65,23c-0.566-0.033-1-0.083-1.3-0.15l-0.3-0.1L113.65,23z M86.9,37.35c-2.533-2.8-3.9-4.45-4.1-4.95
		c0.067-0.633,0.083-1.433,0.05-2.4c-0.033-1.633-1.467-2.883-4.3-3.75c-2.833-0.533-4.267-0.8-4.3-0.8l0.05-0.25
		c1.167,0.033,3.75,0.2,7.75,0.5l2.4,0.2c1.2,1.267,1.95,2.883,2.25,4.85C86.867,31.883,86.933,34.083,86.9,37.35z M102.95,26.2
		l-0.1,2.35c0,0.567,0.017,0.867,0.05,0.9L100.15,31c-0.1,0.033-0.417,0.067-0.95,0.1c-0.633,0.066-1.2,0.1-1.7,0.1l-0.05,1
		c0,0.267,0.1,0.867,0.3,1.8c0.233,1.067,0.5,2.033,0.8,2.9c0.667,3.767,1.633,8.617,2.9,14.55c0.966,5,1.45,9.45,1.45,13.35
		c0,0.667-0.05,1.35-0.15,2.05c-0.6-7.934-1.717-12.167-3.35-12.7c-0.9,0-1.566-0.017-2-0.05c-0.8-0.033-1.417-0.583-1.85-1.65
		c-0.733-1.767-0.983-4.784-0.75-9.05c0.267-4.767,0.117-8.383-0.45-10.85c-0.733,0.967-1.867,1.817-3.4,2.55
		c0.9-2.567,1.733-5.117,2.5-7.65c0.333,0.1,0.9,0.283,1.7,0.55c0.7,0.2,1.25,0.3,1.65,0.3c0.4,0,1.35-0.316,2.85-0.95
		C101.25,26.683,102.35,26.3,102.95,26.2z M137.8,78.05l0.351,0.1c0.133,0.733,0.5,2.867,1.1,6.4c0.467,2.767,0.8,4.534,1,5.3
		l-0.65,4.45c-0.533-0.966-0.983-2.767-1.35-5.4c-0.333-2.5-0.5-4.983-0.5-7.45L137.8,78.05z M132.8,74.15
		c0.4,0.467,0.584,0.7,0.55,0.7c0.067,0.033,0.601,0.5,1.601,1.4c-0.3,1.333-0.467,2.067-0.5,2.2c-0.2,0.633-0.434,1.083-0.7,1.35
		c-0.233-0.367-0.45-1.133-0.65-2.3C132.9,76.3,132.8,75.183,132.8,74.15z M83.7,94.85c0.066,0.167,0.25,0.5,0.55,1
		c0.267,0.533,0.4,1,0.4,1.4c0,0.733-0.517,1.717-1.55,2.95c-1.167,1.367-1.917,3.3-2.25,5.8l-0.2-0.1l-3.8-2.35L75.5,103
		c0.167-1.3,0.9-3.233,2.2-5.8c1.167-2.3,2.05-3.8,2.65-4.5L83.7,94.85z M91.35,97.95l4.5,0.9h-0.1c0.5,0.667,0.9,1.85,1.2,3.55
		c0.267,1.434,0.4,2.783,0.4,4.05c0,0.533-0.117,1.417-0.35,2.649c-0.267,1.301-0.567,2.417-0.9,3.351l-0.05,0.1l-0.25,0.601v0.05
		l-0.2,0.25c-1.067,1.066-1.767,2.684-2.1,4.85c-0.367,2.101-1.033,3.584-2,4.45c-0.167,0-0.333,0.017-0.5,0.05h-0.2
		c-0.633-0.033-1.25-0.083-1.85-0.149l-2.45-1.4c-0.4-0.5-0.783-1.05-1.15-1.65c0.1,0.034,0.183,0.067,0.25,0.101
		c2.7,0.633,4.483,0.483,5.35-0.45c0.6-0.667,0.9-2,0.9-4l-1.1-11.7l0.2-5.7L91.35,97.95z M98.5,112.35l-0.75-0.3
		c0.6-1.899,1.5-3.316,2.7-4.25c0.633-0.466,1.183-0.75,1.65-0.85c0.433,0,1.1,0.7,2,2.1c1.3,1.934,3.45,3.8,6.45,5.601l1.65,0.25
		c-2.9-1.334-4.233-3.367-4-6.101c0.167,0.233,0.8,0.884,1.9,1.95c1.133,1.1,1.8,1.7,2,1.8c0.566,0.233,1.283,0.434,2.15,0.601
		c0.867,0.166,1.567,0.233,2.1,0.199c2.3,0.134,4.05-0.699,5.25-2.5c1.066-1.6,1.633-3.899,1.7-6.899l0.5,0.25
		c0.767,0.566,1.534,2.066,2.3,4.5c0.433,1.3,0.95,3,1.55,5.1l0.25-1.25l0.05-2.75c0-4.233-0.934-7-2.8-8.3
		c-1.167-0.667-2.083-1.217-2.75-1.65c-1.167-0.733-2.133-1.684-2.9-2.85c1.267-0.633,2.717-1.133,4.35-1.5
		c0.833-0.167,1.7-0.317,2.6-0.45c0.233,0.7,1.35,3.217,3.35,7.55c0.9,1.967,1.35,4.267,1.35,6.9c0,1.5-1.217,3.417-3.65,5.75
		c-2.267,2.2-3.867,3.3-4.8,3.3c-0.9,0-3.9-1-9-3l-1-0.05c2.4,1.566,3.917,2.583,4.55,3.05c1.7,1.267,2.55,2.217,2.55,2.851
		c0,1.366-0.3,2.433-0.9,3.199c-1.033,1.267-2.95,2.15-5.75,2.65c-1.5-1.667-2.617-2.983-3.35-3.95c-0.633-0.833-1.15-1.5-1.55-2
		l-0.45-0.55c1.167,0.2,2.3,0.85,3.4,1.95c0.933,0.967,2.2,1.45,3.8,1.45c1.4,0,2.15-0.351,2.25-1.051
		c-0.2-2.333-1.45-4.05-3.75-5.149c-1.233-0.634-2.933-1.084-5.1-1.351c-1.5-0.166-2.883-0.883-4.15-2.149
		c-1.2-1.167-2.567-1.75-4.1-1.75l-0.8,0.05L98.5,112.35z M67.05,75.3l-2.1-0.05c-0.267,0.067-0.567,0.2-0.9,0.4
		c-0.3,0.2-0.45,0.317-0.45,0.35c-0.233-0.033-1.167-0.05-2.8-0.05l-0.1,1.75c-1.233,0.167-2.017,0.517-2.35,1.05
		C58.117,79.083,58,79.867,58,81.1c0,1.2,0.483,4.25,1.45,9.15c0.933,4.867,1.4,8.883,1.4,12.05c0,2.367-0.75,3.767-2.25,4.2
		c-0.434,0.133-1.767,0.1-4-0.1h-0.05l-0.4-0.4c-0.533-1.4-0.9-5.85-1.1-13.35c-0.267-7.6-0.65-12.183-1.15-13.75v0.05
		c-0.467-0.467-0.7-1.067-0.7-1.8c0-0.033,0-0.066,0-0.1l-0.15-0.4c0.067,0.033,0.133,0.067,0.2,0.1c1.6,0.633,2.867,0.95,3.8,0.95
		c1.5,0,2.467-1.067,2.9-3.2c0.267-1.3,0.4-3.967,0.4-8c0-4.233-0.133-6.567-0.4-7c-0.867-0.5-1.9-1.433-3.1-2.8
		c-0.633-1.733-1.133-2.983-1.5-3.75c-0.7-1.367-2.35-1.867-4.95-1.5l-0.95-0.55l3.2,0.05c0.567,0,1.15-0.133,1.75-0.4
		c1.9-0.2,4.483-0.183,7.75,0.05c0.467,0,1.367-0.133,2.7-0.4c1.233-0.233,2.133-0.434,2.7-0.6c-0.267,0.433-0.617,0.9-1.05,1.4
		l-1.2,1.3c-1.133,0.1-1.95,0.167-2.45,0.2c-0.833,0.067-1.3,0.183-1.4,0.35c-0.867,1.733-1.3,2.967-1.3,3.7
		c0,0.6,0.95,2.217,2.85,4.85c1.633,3.434,1.883,7.583,0.75,12.45l0.95,0.2c0.833-0.2,1.35-0.8,1.55-1.8
		c0.233-1.767,0.3-3.417,0.2-4.95c0.133,0.6,0.55,1.967,1.25,4.1C66.4,73.567,66.85,74.867,67.05,75.3z M71.35,103.15l-4.05,2.25
		l-0.45-0.1c-1.8,1-3,1.633-3.6,1.9c0.8-2.667,1.267-5.733,1.4-9.2c0-4.067,0.033-7.233,0.1-9.5c0.167-0.167,0.467-1.1,0.9-2.8
		c0,1.4,1,2.6,3,3.6c1.967,1,4.367,1.5,7.2,1.5c-0.3,0.833-0.483,2.917-0.55,6.25c-0.3,3.034-1.333,4.867-3.1,5.5
		c-0.233,0-0.434,0.067-0.6,0.2C71.433,102.85,71.35,102.983,71.35,103.15z M130.8,89.95c-0.566-0.967-1.133-1.817-1.7-2.55l1.7,0.1
		V89.95z M161.9,84.25c0.3,1.9,0.316,5,0.05,9.3c-0.2,3.333-0.45,6.034-0.75,8.1l0.05-1.6c-0.066-2.9-0.184-6.033-0.35-9.4
		C161.467,87.217,161.8,85.083,161.9,84.25z M19.75,18.95c0.133,0.9,0.183,2.383,0.15,4.45c-0.066,2.2-0.217,3.517-0.45,3.95
		c-1.2,0.533-1.9,0.85-2.1,0.95c-0.467-0.433-0.733-0.917-0.8-1.45c-0.066-0.9-0.2-1.8-0.4-2.7l-0.55,0.8
		c-0.667,1.767-1.184,3.7-1.55,5.8c-1.033,0.833-1.9,1.5-2.6,2c-0.667,0.467-1.233,0.867-1.7,1.2c-0.967,0-1.783,0.216-2.45,0.65
		c-0.7,0.433-1.05,0.95-1.05,1.55l-3.25,2l0.05,0.05l-0.3,0.2c0.4-0.833,2.683-3.783,6.85-8.85c3.8-5.2,5.35-9.066,4.65-11.6
		l1.15-0.15l-0.65,0.55C16.083,18.617,17.75,18.817,19.75,18.95z M70.65,49c-0.767,0.967-1.217,1.5-1.35,1.6
		c0.2-0.367,0.583-1.317,1.15-2.85c0.566-1.567,0.917-2.65,1.05-3.25l0.25-1.55l-2.9,2.65l-0.6,0.5c0-0.767,1.5-5.817,4.5-15.15
		c0.333,5.8,0.5,9.033,0.5,9.7c0,3.1-0.6,5.533-1.8,7.3C71.15,48.35,70.883,48.7,70.65,49z M76.7,61.15
		c0.167-0.167,0.433-0.45,0.8-0.85c0.333-0.466,0.5-1.117,0.5-1.95c-0.167-2.367-0.233-3.833-0.2-4.4l0.65-2.35
		c0.433-1.7,0.617-3.684,0.55-5.95c-0.067-2.733-0.467-7.75-1.2-15.05c0.534,1.066,1.233,2.333,2.1,3.8
		c0.633,1.567,0.95,4.05,0.95,7.45c0,12.6-0.017,19.117-0.05,19.55c-0.1,1.4-0.333,2.317-0.7,2.75c-0.3,0.333-0.883,0.5-1.75,0.5
		c-1.1,0-2.033-0.5-2.8-1.5L76.7,61.15z M56.75,29.45c0,2.233-0.017,3.65-0.05,4.25L56.5,34v-0.75c-0.067-1.1-0.2-2.317-0.4-3.65
		L56.75,29.45z M58.75,32.9c0.533,2.5,0.383,4.567-0.45,6.2c-0.4,0.733-0.917,1.3-1.55,1.7c-0.933,0.333-2.017,0.483-3.25,0.45
		c-1.6,0.1-3.017,0.017-4.25-0.25l-0.95-0.45c0.1-0.066,0.8-0.2,2.1-0.4c1.333-0.233,2.233-0.467,2.7-0.7l1.7-1.1
		c1.2-1.3,1.767-2.633,1.7-4c0.967-0.633,1.55-1.05,1.75-1.25l-0.05,1.7C58.333,34.2,58.517,33.567,58.75,32.9z M25.65,63.8
		l-0.05,1.8c-0.434,0.2-0.9,0.35-1.4,0.45l0.4,0.3c0.3,0.233,0.633,0.417,1,0.55l0.1,1.45c-0.534-0.434-1.15-0.583-1.85-0.45
		c-0.533,0.367-1.133,0.85-1.8,1.45c-0.633,0.6-1.05,0.983-1.25,1.15c-0.267,0.267-0.533,0.483-0.8,0.65
		c-0.467,0.333-1.133,0.5-2,0.5c-1.5,0-3.033-0.333-4.6-1c-1.3-0.566-3.15-1.617-5.55-3.15c0.066,0,1.066,0,3,0
		c1.6-0.033,2.85-0.083,3.75-0.15c0.933-0.333,2.05-1.2,3.35-2.6c0.667-0.733,1.4-1.567,2.2-2.5l0.15-0.1
		c0.9-0.5,1.917-1.6,3.05-3.3c1.2-1.867,1.833-3.6,1.9-5.2v0.25c0.033,1.2,0.2,3.283,0.5,6.25L25.65,63.8z M38.55,55.6
		c0.1,0.7-0.15,1.633-0.75,2.8c-0.333,0.667-0.867,1.633-1.6,2.9l0.05-2.75L38.55,55.6z M35.15,55.8c-0.1,0.2-0.367,0.784-0.8,1.75
		c-0.4,0.967-0.617,1.5-0.65,1.6c-0.2,0.267-1.25,1.25-3.15,2.95c-1.933,1.667-3.033,2.583-3.3,2.75v-0.9
		c-0.1-0.833-0.15-1.583-0.15-2.25c0-1.534,0.767-2.567,2.3-3.1c1.533-0.567,2.3-1.4,2.3-2.5c0-1-0.233-2.233-0.7-3.7
		c-0.7-2.133-1.683-3.633-2.95-4.5c3.567-1.133,5.65-1.933,6.25-2.4c0.9,0.6,1.567,1.283,2,2.05c0.3,0.6,0.45,1.133,0.45,1.6
		c0,0.067-0.233,0.883-0.7,2.45C35.583,53.267,35.283,54.667,35.15,55.8z M30.65,66.95c0,0.533-0.433,1-1.3,1.4
		c-0.867,0.367-1.917,0.55-3.15,0.55l-0.35,0.85l-0.15-1.4l0.5,0.55l0.6-1.8c1.9,0,3.517-0.417,4.85-1.25c1.333-0.833,2-1.833,2-3
		c0.067,2,0.067,3.3,0,3.9H33.5l-0.05,0.15C31.75,66.767,30.817,66.783,30.65,66.95z M42.85,51.3c0,0.467-0.133,0.867-0.4,1.2
		c-0.267,0.333-0.6,0.5-1,0.5C41.817,52.733,42.283,52.167,42.85,51.3z M127.9,121.85l1,0.551l-1.3,0.3L127.9,121.85z M119.7,131.95
		c-0.6-0.233-1.05-0.434-1.35-0.601c-0.4-0.199-1.217-0.75-2.45-1.649l-1.9-1.65c1.3,0.2,2.95-0.184,4.95-1.149
		c2.133-1,3.383-1.5,3.75-1.5c1,0,1.883,0.267,2.65,0.8c1.133,0.733,1.667,1.934,1.6,3.6l0.15,1.4c-0.067-2.8,0-5.2,0.2-7.2
		c0.8,1.267,1.517,3.634,2.15,7.1c0.566,3.233,0.733,5.2,0.5,5.9c-0.2,0.667-0.467,1.3-0.8,1.9l-1.2-2.15
		c-0.167-0.2-0.784-0.733-1.85-1.6c-1-0.801-1.583-1.25-1.75-1.351c0.733-1.366,1.1-2.233,1.1-2.6c0-0.634-0.233-1.233-0.7-1.8
		c-0.6-0.733-1.45-1.101-2.55-1.101c-0.767,0-1.267,0.217-1.5,0.65C120.5,129.283,120.167,130.283,119.7,131.95z M225.5,210
		l-0.1-0.4l-0.301-3v-4l1.15-0.649c-0.333,0.833-0.15,1.883,0.55,3.149c0.967,1.7,2.684,2.551,5.15,2.551
		c0.866,0,1.566-0.217,2.1-0.65c0.334-0.267,0.75-0.8,1.25-1.6c-0.3,0.899-0.866,1.85-1.7,2.85c-1.333,1.467-2.85,2.217-4.55,2.25
		c-0.399-0.366-0.733-0.616-1-0.75C227.517,209.517,226.667,209.6,225.5,210z"/>
	<path style="fill-rule:evenodd;clip-rule:evenodd;fill:#898074;" d="M180.1,96.35c-0.066-0.767-0.149-4.767-0.25-12
		c-0.066-5.3-0.366-9.017-0.899-11.15l0.149-0.65L179.45,71c0,0.767,0.1,1.9,0.3,3.4c0.233,1.9,0.517,3.2,0.85,3.9l-0.199,1.5
		l0.149,1.8c0.533,2.467,1,4.467,1.4,6c0,0.2-0.217,1.417-0.65,3.65C180.833,93.75,180.434,95.45,180.1,96.35z M171,76.85l4-1.75
		c0.6,3.7,0.85,6.933,0.75,9.7c-0.1,0.2-0.483,0.4-1.15,0.6c-0.666,0.2-1.267,0.283-1.8,0.25c-0.233-1.1-0.5-2.733-0.8-4.9
		C171.8,79.617,171.467,78.317,171,76.85z M160.9,90.65c0.166,3.367,0.283,6.5,0.35,9.4l-0.05,1.6c0.3-2.066,0.55-4.767,0.75-8.1
		c0.267-4.3,0.25-7.4-0.05-9.3l0.35-3.45c1.4-0.7,3.033-0.85,4.9-0.45c0.366,0.433,0.75,1.083,1.149,1.95l0.05,1.35
		c0,3.2-0.199,7.033-0.6,11.5c-0.4,4.567-0.767,7-1.1,7.3c-1.534,2.8-2.801,5.1-3.801,6.899c-1.933,3.434-4.066,5.15-6.399,5.15
		c-0.733,0-1.816-0.783-3.25-2.35c-1.634-1.733-2.9-2.784-3.8-3.15c-0.867-0.333-2.101-0.417-3.7-0.25
		c-1.601,0.233-2.566,0.35-2.9,0.35c-1.399,0-2.883-1.366-4.45-4.1c-0.3-0.5-2.017-3.983-5.149-10.45c0-0.966-0.184-1.783-0.55-2.45
		c-0.367-0.667-0.8-1-1.3-1l-0.55-1.15V87.5l-1.7-0.1l-0.85-0.95l-0.35,1c-1.433,0.066-2.833-0.034-4.2-0.3L123.2,87
		c-0.967,0-1.8-0.233-2.5-0.7c-0.7-0.5-1.05-1.1-1.05-1.8l-0.15-0.55c0.767,0.8,1.85,1.466,3.25,2c1.067,0.433,1.8,0.65,2.2,0.65
		c0.966,0,3.267-0.434,6.9-1.3c2,0,3.167,1.684,3.5,5.05c0.367,3.367,1.284,5.05,2.75,5.05l2.2-0.65
		c1.566-0.467,2.634-0.75,3.2-0.85l1,0.35c0.267,1.033,0.4,2.633,0.4,4.8c0.199,1.633,0.949,2.45,2.25,2.45
		c0.199,0,1.649-0.35,4.35-1.05c2.9-0.767,4.684-1.317,5.35-1.65c1.167-0.633,1.967-2.066,2.4-4.3c0.366-2.833,0.667-4.967,0.9-6.4
		c0.066,2.3,0,5.6-0.2,9.9L160.9,90.65z M151.5,128.95c0,0.033-0.184,0.55-0.55,1.55c-0.467,1.333-0.9,2.7-1.3,4.1
		c-0.101,0.034-1.233,0.15-3.4,0.351c-0.7,0.066-1.05,1.133-1.05,3.2c0,2.8,0.533,4.899,1.6,6.3c0.634,0.866,1.816,2.416,3.55,4.649
		c0.067,1.101,0.017,3.417-0.149,6.95l-1.75,3.5l-0.15,0.15c-0.5-0.434-0.8-1.25-0.899-2.45c-0.167-1.967-0.284-3.116-0.351-3.45
		c-0.133-0.666-0.767-1.366-1.899-2.1c-1.034-0.7-1.567-1.4-1.601-2.101L143.5,139c0-1.934,0.333-3.8,1-5.6
		c0.634-1.834,0.95-3.051,0.95-3.65s-0.134-1.316-0.4-2.15c-0.267-0.767-0.566-1.433-0.899-2c0.233-0.066,2.783-1.1,7.649-3.1
		C151.767,123.066,151.667,125.217,151.5,128.95z M148.4,119.7c1.267-0.634,1.949-1.033,2.05-1.2c0.233,0.2,0.416,0.333,0.55,0.4
		c0.1,0.066,0.316,0.433,0.65,1.1l0.05,0.45c-0.3-0.3-0.95-0.517-1.95-0.65L148.4,119.7z M221.8,158.55c0.3,2.3,0.634,5.434,1,9.4
		c-0.1,0.434-1.6-1.017-4.5-4.351c-1.133-1.5-2.166-3-3.1-4.5l0.3,1c0.134,0.5,0.233,0.934,0.3,1.301c-0.066,0-0.149,0-0.25,0
		c-0.6,0-0.816,1.866-0.649,5.6c0.1,1.934,0.25,4.283,0.449,7.05c0,1.367-0.283,2.816-0.85,4.351c-1.5,0.6-3.05,1.149-4.65,1.649
		c-0.033,0-0.066,0-0.1,0l-0.65-0.149c-0.267-0.067-0.517-0.134-0.75-0.2c1.267-0.467,2.317-1.117,3.15-1.95
		c0.833-0.9,1.25-1.85,1.25-2.85c0-1.134-0.233-3.084-0.7-5.851c-0.366-2.3-0.684-3.934-0.95-4.899
		c-0.333-1.334-1.583-2.034-3.75-2.101c-0.233,0-1.633,0.134-4.199,0.4H203.1c-0.399-1.334-1.517-3.017-3.35-5.05
		c-2-2.267-3.1-3.617-3.3-4.051c-0.8-1.733-1.3-3-1.5-3.8l-0.25-0.6c0.2,0.2,0.983,1.05,2.35,2.55c1.5,1.467,2.733,2.3,3.7,2.5
		c0.167-0.066,0.333-0.634,0.5-1.7c0.134-0.899,0.2-1.666,0.2-2.3c0-4.1-0.667-7.15-2-9.15c-1.267-1.866-2.8-2.449-4.601-1.75
		c-0.066,0.733-0.283,2.15-0.649,4.25c-0.367,2.233-0.634,3.5-0.8,3.801c-0.967,0-1.917,0.033-2.851,0.1h-0.3
		c-0.033-4.833,0.2-9.7,0.7-14.6c0.366,1.533,0.5,3.899,0.399,7.1l-0.149,3c0.399-2.233,0.899-6.316,1.5-12.25
		c0.533-5.066,1-8.316,1.399-9.75h0.9c0.5,2.767,0.65,6.733,0.45,11.9l5.5-9.45l0.3,0.3c0.934,0.934,1.517,1.483,1.75,1.65
		c0.267,0.166,1.35,0.8,3.25,1.899c-0.167,0.634-0.116,1.601,0.15,2.9c0.1,0.666-0.117,0.666-0.65,0l1.65,2.899
		c0.267,0.5,1.633,1.967,4.1,4.4c2.233,2.2,3.4,3.7,3.5,4.5c0.134,0.833,0.066,2.3-0.2,4.4c0.033,2.1,0.867,4.066,2.5,5.899
		c0,1.8,0.45,3.334,1.351,4.601C219.517,157.917,220.566,158.55,221.8,158.55z M217.9,166.85c-0.567-1.666-1.051-2.933-1.45-3.8
		c1.434,2.601,4.133,5.233,8.1,7.9c4.134,2.767,6.283,4.283,6.45,4.55c-1.333-0.233-3.684-1.717-7.05-4.45
		C220.65,168.35,218.634,166.95,217.9,166.85z M220.2,176.75l-0.351,1l-0.35-0.2L220.2,176.75z M239.25,188.2
		c-1.2,0.5-2.1,0.75-2.7,0.75c-1.666,0-2.816-0.5-3.45-1.5c-0.433-0.7-0.983-2.55-1.649-5.55l1.6,0.35
		c0,1.033,0.533,1.917,1.601,2.65c1.066,0.699,2.35,1.05,3.85,1.05L239.25,188.2z M240.7,214.9v0.449l-0.45,0.4
		c-0.2,0.1-0.517,0.15-0.95,0.15c-0.133,0-1.25-0.267-3.35-0.801c-2.533-0.666-4.684-1.183-6.45-1.55l-1.15-0.35
		c1.601,0.166,2.884,0.25,3.851,0.25c1.5,0,2.533-0.217,3.1-0.65c0.5-0.399,0.75-1.133,0.75-2.2c0-1.066-0.066-2.283-0.2-3.649
		l-0.199-1.3c-0.9,2.833-1.75,4.449-2.551,4.85c-0.267,0.167-1.616,0.167-4.05,0c1.7-0.033,3.217-0.783,4.55-2.25
		c0.834-1,1.4-1.95,1.7-2.85c-0.5,0.8-0.916,1.333-1.25,1.6c-0.533,0.434-1.233,0.65-2.1,0.65c-2.467,0-4.184-0.851-5.15-2.551
		c-0.7-1.267-0.883-2.316-0.55-3.149l-1.15,0.649l0.051-1.949l0.149-3.351l0.05,0.05c0.601,0.767,1.584,2.417,2.95,4.95
		c1.434,2.267,3.017,3.517,4.75,3.75h1.65c0.1-0.967,0.149-1.783,0.149-2.45c0-0.066-0.683-2.75-2.05-8.05
		c0-1.833,0.816-2.75,2.45-2.75c0.7,0,1.233,0.05,1.6,0.15c0.434,0.066,1.884,0.399,4.351,1l0.149,0.5
		c0.101,0.399,0.15,0.8,0.15,1.2c0,0.6-0.15,1.033-0.45,1.3c-0.1,0.066-0.517,0.267-1.25,0.6l-0.1,1.351l-0.25,0.649
		c-0.167,0.5-0.25,0.95-0.25,1.351c0.967,7.233,1.45,11.033,1.45,11.399L240.7,214.9z M185.95,120.75
		c0.366,0.467,0.649,1.583,0.85,3.35s1.017,3.5,2.45,5.2c-0.733,9-1.083,14.167-1.05,15.5c0,0.566-0.033,1.134-0.101,1.7
		c0,0.1-0.149,0.55-0.449,1.35c-0.301,0.7-0.5,1.15-0.601,1.351c-0.1-1.8-0.116-4.134-0.05-7c0.066-2.667,0.1-4.167,0.1-4.5
		c0-2.267-0.333-3.917-1-4.95c-0.6-0.934-1.533-1.4-2.8-1.4c-2.366,0-4.767,0.733-7.2,2.2c-2.6,1.601-3.899,3.334-3.899,5.2
		l0.1,2.95v0.05c-1.733-1.1-3.149-1.533-4.25-1.3c0.4-0.667,1-3.417,1.8-8.25c0.733-4.533,1.601-7.283,2.601-8.25
		c2.333-2.2,4.1-3.483,5.3-3.851c0.767-0.233,2.483-0.199,5.15,0.101c0.1,0,0.216,0,0.35,0
		C183.684,120.333,184.583,120.517,185.95,120.75z M48.35,29.7l0.15,0.05h0.05c1.434,0.167,3.017,0.2,4.75,0.1
		c1.367-0.067,2.3-0.15,2.8-0.25c0.2,1.333,0.333,2.55,0.4,3.65c-0.733-0.867-2.483-1.45-5.25-1.75c-2.633-0.3-4.3-1.05-5-2.25
		L48.35,29.7z M63.4,27.45c-0.933,2.033-1.9,5.133-2.9,9.3c-0.8,2.033-2.05,3.383-3.75,4.05c0.633-0.4,1.15-0.966,1.55-1.7
		c0.833-1.633,0.983-3.7,0.45-6.2c1.2-2.233,1.883-3.783,2.05-4.65L63.4,27.45z M78.5,77.7l-5.05-0.8
		c1.033-0.533,2.583-0.767,4.65-0.7c1.6-0.267,2.4-1.65,2.4-4.15c0-3.367-1.083-5.25-3.25-5.65c-1.1-0.2-1.9-0.45-2.4-0.75
		c-1.233-0.7-1.9-1.867-2-3.5c-0.167-2.133-0.684-4.033-1.55-5.7c-1.133-2.133-2.65-3.35-4.55-3.65
		c0.133-0.066,0.567-0.417,1.3-1.05c0.7-0.633,1.117-1.017,1.25-1.15c0.534-0.3,0.85-0.6,0.95-0.9c0.1-0.233,0.233-0.467,0.4-0.7
		c0.233-0.3,0.5-0.65,0.8-1.05c0.6,2,1.367,5.083,2.3,9.25c0.633,2.966,1.233,4.95,1.8,5.95c0.767,1,1.7,1.5,2.8,1.5
		c0.867,0,1.45-0.167,1.75-0.5c0.367-0.433,0.6-1.35,0.7-2.75c0.034-0.433,0.05-6.95,0.05-19.55c0-3.4-0.317-5.883-0.95-7.45
		c-0.867-1.467-1.566-2.733-2.1-3.8c0.733,7.3,1.133,12.316,1.2,15.05c0.067,2.267-0.117,4.25-0.55,5.95
		c-0.067-1.2-0.083-3.033-0.05-5.5c0.067-2.367,0.1-3.717,0.1-4.05c0-1.5-0.417-3.017-1.25-4.55c-1.1-1.967-1.783-3.5-2.05-4.6
		c-0.633-3.133-1.133-4.883-1.5-5.25c-0.667-0.667-1.3-1.117-1.9-1.35c-0.466-0.2-1.4-0.4-2.8-0.6c0.733-0.267,2.5-0.434,5.3-0.5
		l-0.05,0.25c0.033,0,1.467,0.267,4.3,0.8c2.833,0.867,4.267,2.117,4.3,3.75c0.033,0.967,0.017,1.767-0.05,2.4
		c0.2,0.5,1.567,2.15,4.1,4.95l-0.05,5.15c0,0.967,0.167,2.667,0.5,5.1c0.367-0.434,0.566-0.817,0.6-1.15c0.1-0.9,0.4-2.167,0.9-3.8
		c0.267,2.067,0.4,4.533,0.4,7.4c0,2.1-0.317,5.067-0.95,8.9c-0.6,3.533-1.283,6.7-2.05,9.5c-0.467,1.767-0.517,3.75-0.15,5.95
		C85.767,75.867,83.233,76.967,78.5,77.7z M108.35,43.8c1.6,0,2.967-0.45,4.1-1.35c1.133-0.934,1.7-2.05,1.7-3.35
		c0.467,3.267,1,9.283,1.6,18.05c0,8.5-0.483,13.783-1.45,15.85c-0.267,0.5-0.617,1.033-1.05,1.6c-0.3,0.566-0.45,1.5-0.45,2.8
		c0,1.7-1.3,2.8-3.9,3.3c-3.633,0-5.667-1.667-6.1-5c-0.1-1.934-0.167-3.383-0.2-4.35c-0.1-1.767-0.383-3.083-0.85-3.95l-0.4-0.45
		c0,1-0.3,2.966-0.9,5.9c-0.567,2.867-0.983,4.533-1.25,5l0.1-3.8c0-3.133-0.583-5.617-1.75-7.45c-0.9-1.467-1.883-2.2-2.95-2.2
		c-0.767,0-1.233,1-1.4,3c-0.067,1.033-0.1,5.017-0.1,11.95c-0.867,0-1.517-0.083-1.95-0.25c-0.7-0.333-1.1-1.333-1.2-3
		c-0.167-1.9-0.25-3.184-0.25-3.85c0-1.833,0.367-4.683,1.1-8.55c0.7-3.867,1.05-8.35,1.05-13.45c0-1.867-0.117-3.467-0.35-4.8
		c-0.8-4.6-1.25-7.217-1.35-7.85l0.8-2.5c1.533-0.733,2.667-1.583,3.4-2.55c0.566,2.467,0.717,6.083,0.45,10.85
		c-0.233,4.267,0.017,7.283,0.75,9.05c0.434,1.066,1.05,1.617,1.85,1.65c0.434,0.033,1.1,0.05,2,0.05
		c1.633,0.533,2.75,4.767,3.35,12.7c0.1-0.7,0.15-1.383,0.15-2.05c0-3.9-0.483-8.35-1.45-13.35c-1.267-5.934-2.233-10.784-2.9-14.55
		c0.667,0.833,1.284,1.783,1.85,2.85c0.767,0.967,2.417,2.167,4.95,3.6c0.3,1.066,0.95,4.9,1.95,11.5
		c1.267,8.167,2.217,13.983,2.85,17.45l0.5,1c0.667-1.566,1.033-2.716,1.1-3.45c-0.033-0.9-0.033-1.8,0-2.7
		c0.067-2,0.433-3.066,1.1-3.2c0.6-0.1,0.9-0.417,0.9-0.95c0-0.167,0.3-0.683,0.9-1.55c0.6-0.9,0.9-2.067,0.9-3.5
		c0-3.434-0.65-6.017-1.95-7.75C111.567,48.133,109.817,46,108.35,43.8z M118.15,42.65l0.2,0.5l0.4-0.7
		c0.367-0.633,0.583-1.05,0.65-1.25c0-0.067,0.167-0.317,0.5-0.75c-0.066,0.466-0.383,1.733-0.95,3.8c-0.467,1.8-0.7,3.017-0.7,3.65
		c0,0.1,0.167,8.75,0.5,25.95c0,0.1,0.117,1.433,0.35,4c0.233,2.5,0.333,4.417,0.3,5.75c-0.3-1.167-0.667-3-1.1-5.5
		c-0.433-2.567-0.65-4.133-0.65-4.7C118.05,60.667,118.217,50.417,118.15,42.65z M114.9,35.65l0.15-1.55v0.45
		c0,0.467-0.066,1.117-0.2,1.95L114.9,35.65z M149.7,79.2l7.75,0.05l1.35,2.35c-2.5-0.2-4.283-0.417-5.35-0.65
		C151.65,80.583,150.4,80,149.7,79.2z M90.2,97.6l0.75,0.25l-0.2,5.7l1.1,11.7c0,2-0.3,3.333-0.9,4
		c-0.867,0.934-2.65,1.083-5.35,0.45c-0.067-0.033-0.15-0.066-0.25-0.101l-0.55-1.35v-0.05c0.133-2.3,0.034-4.134-0.3-5.5
		c-0.533-1.967-1.717-4.167-3.55-6.6l-0.1-0.1c0.333-2.5,1.083-4.433,2.25-5.8c1.033-1.233,1.55-2.217,1.55-2.95
		c0-0.4-0.133-0.867-0.4-1.4c-0.3-0.5-0.483-0.833-0.55-1c0.033,0,0.533,0.316,1.5,0.95c0.333,0.167,1.816,0.717,4.45,1.65
		L90.2,97.6z M117.4,97.75l2.1-0.75c0.767,1.167,1.733,2.117,2.9,2.85c0.667,0.433,1.583,0.983,2.75,1.65
		c1.867,1.3,2.8,4.067,2.8,8.3l-0.05,2.75l-0.25,1.25c-0.6-2.1-1.117-3.8-1.55-5.1c-0.767-2.434-1.533-3.934-2.3-4.5l-0.5-0.25
		c-0.066,3-0.633,5.3-1.7,6.899c-1.2,1.801-2.95,2.634-5.25,2.5l-0.2-5.399c1.033,0.2,1.917,0.1,2.65-0.3c0.667-0.4,1-0.867,1-1.4
		c0-0.233-0.417-1.517-1.25-3.85C117.717,100.133,117.333,98.583,117.4,97.75z M108.25,107.9v-0.6l3.85,5.25
		c-0.2-0.1-0.867-0.7-2-1.8c-1.1-1.066-1.733-1.717-1.9-1.95L108.25,107.9z M38.55,55.6l2.9-2.6c0.4,0,0.733-0.167,1-0.5
		c0.267-0.333,0.4-0.733,0.4-1.2c0.333-1.267,0.467-3.933,0.4-8c0.3,0.633,0.967,1.633,2,3c0.933,1.534,1.4,3.417,1.4,5.65
		c0,1.767-0.566,2.867-1.7,3.3c-1.867,0.667-3.15,1.4-3.85,2.2c-0.367,0.433-0.583,1.367-0.65,2.8c-0.067,1.267-0.05,3.3,0.05,6.1
		l-0.7,0.05l-6.15,0.35c0.067-0.6,0.067-1.9,0-3.9l2.6-4.3L36.2,61.3c0.733-1.267,1.267-2.233,1.6-2.9
		C38.4,57.233,38.65,56.3,38.55,55.6z M30.65,66.95c0.167-0.167,1.1-0.184,2.8-0.05l-0.05,1.8c-0.033,2.933-0.183,5.45-0.45,7.55
		c-0.267,1.967-0.55,3.133-0.85,3.5c-0.833,1.067-1.633,1.917-2.4,2.55c-0.667,0.5-1.133,0.867-1.4,1.1c0.5-1.367,1-3.417,1.5-6.15
		C30.567,73.25,30.85,69.817,30.65,66.95z M20.3,62.15l-0.05-2.05l-0.1,2.15c-0.8,0.933-1.533,1.767-2.2,2.5
		c-1.3,1.4-2.417,2.267-3.35,2.6c-1.467-0.767-3.05-1.15-4.75-1.15c-2.233,0.033-3.617,0-4.15-0.1c-0.034-0.3-0.517-0.767-1.45-1.4
		L3.4,63.8c0.1,0,0.233,0.017,0.4,0.05c0.467,0.066,1.333,0.183,2.6,0.35c1.5,0.2,2.434,0.3,2.8,0.3c2.9,0,4.85-0.617,5.85-1.85
		C15.683,61.883,16,60.633,16,58.9c0-3.4-1.467-6.217-4.4-8.45c-1.567-1.1-2.7-1.95-3.4-2.55c-1.133-1.066-1.883-2.217-2.25-3.45
		c1.133,0.9,3.05,2.517,5.75,4.85c2.4,1.934,4.25,2.9,5.55,2.9c0.867,0,2.35-0.417,4.45-1.25c2.133-0.833,4.25-1.85,6.35-3.05
		c1.267,0.867,2.25,2.367,2.95,4.5c0.467,1.467,0.7,2.7,0.7,3.7c0,1.1-0.767,1.933-2.3,2.5c-1.533,0.533-2.3,1.566-2.3,3.1
		c0,0.667,0.05,1.417,0.15,2.25c-0.367,0.1-0.9,0.05-1.6-0.15l0.1-3.65c-0.3-2.967-0.467-5.05-0.5-6.25v-0.25
		c-0.067,1.6-0.7,3.333-1.9,5.2C22.217,60.55,21.2,61.65,20.3,62.15z M52.4,50.55c-0.6,0.267-1.183,0.4-1.75,0.4l-2.4-0.55
		L52.4,50.55z M77.8,53.95c-0.033,0.566,0.034,2.033,0.2,4.4c0,0.833-0.167,1.483-0.5,1.95c-0.367,0.4-0.633,0.684-0.8,0.85
		l-0.1-4.35c0-0.2,0.133-0.617,0.4-1.25C77.267,54.817,77.533,54.283,77.8,53.95z M35.15,55.8c-0.167,0.8-0.65,1.917-1.45,3.35
		c0.033-0.1,0.25-0.633,0.65-1.6C34.783,56.583,35.05,56,35.15,55.8z M23.85,67.9L24,72.45c0.133,3.267-0.217,5.816-1.05,7.65
		l-0.6,1.35c-1-6.6-1.517-10.25-1.55-10.95c0.2-0.167,0.617-0.55,1.25-1.15C22.717,68.75,23.317,68.267,23.85,67.9z M63.3,52.3
		c-0.7,0.333-1.433,0.517-2.2,0.55c-0.8,0-1.35,0-1.65,0c0.1-0.167,0.566-0.283,1.4-0.35C61.35,52.467,62.167,52.4,63.3,52.3z
		 M68.35,75.55l-1.3-0.25c-0.2-0.433-0.65-1.733-1.35-3.9c-0.7-2.133-1.117-3.5-1.25-4.1c0.1,1.534,0.033,3.184-0.2,4.95l0.05-6.1
		l0.15,1.15l-0.05-1c0.133,0.267,0.8,1.9,2,4.9C67.433,73.7,68.083,75.15,68.35,75.55z M130.5,142l-1.35-3.1
		c0.333-0.601,0.6-1.233,0.8-1.9C130.35,138.5,130.533,140.167,130.5,142z M124.35,133.8l-1.25-0.5h-0.05l-3.35-1.35
		c0.466-1.667,0.8-2.667,1-3c0.233-0.434,0.733-0.65,1.5-0.65c1.1,0,1.95,0.367,2.55,1.101c0.467,0.566,0.7,1.166,0.7,1.8
		C125.45,131.566,125.083,132.434,124.35,133.8z M99.35,112.75l0.8-0.05c1.533,0,2.9,0.583,4.1,1.75
		c1.267,1.267,2.65,1.983,4.15,2.149c2.167,0.267,3.867,0.717,5.1,1.351c2.3,1.1,3.55,2.816,3.75,5.149
		c-0.1,0.7-0.85,1.051-2.25,1.051c-1.6,0-2.867-0.483-3.8-1.45c-1.1-1.101-2.233-1.75-3.4-1.95l-5.55-6.65L99.35,112.75z"/>
	<path style="fill-rule:evenodd;clip-rule:evenodd;fill:#6D655A;" d="M225.05,125.65c-0.7,0.366-1.483,0.983-2.35,1.85l-1.05,1.9
		c-0.601,0.666-1.217,1.1-1.851,1.3c-0.6,0.133-1,0.25-1.2,0.35c0.4-0.666,1.284-1.684,2.65-3.05c1.566-1.566,2.4-2.417,2.5-2.55
		c-3.733,2.566-7.184,4.616-10.35,6.149c-0.634,0.301-1,0.567-1.101,0.801c-0.066,0.133-0.1,0.633-0.1,1.5
		c0,1.066,0.233,1.716,0.7,1.949c0.366-0.166,1.05-0.716,2.05-1.649c1.1-1.033,1.783-1.634,2.05-1.8l-0.2,0.649
		c0.3,2.434,0.65,4.117,1.05,5.05c0.9,2.233,2.634,4.217,5.2,5.95c1.566,1.066,3.634,5.483,6.2,13.25c2.866,8.7,4.967,14.033,6.3,16
		l0.95,1.05c0,1.4,0.4,2.601,1.2,3.601c0.767,1,1.7,1.5,2.8,1.5c1.634,0.5,4,0.816,7.1,0.95c3,0.166,4.7,0.316,5.101,0.449
		l-0.851,0.101l-1.3,0.45c-8-0.9-12.066-1.351-12.2-1.351c-1.133-0.133-2.149-0.2-3.05-0.2l-1.95,0.051c-0.633,0-1.1,0.1-1.399,0.3
		l-0.2,0.3c0.267,0.3,1.116,0.566,2.55,0.8c1.566,0.3,2.95,0.917,4.15,1.851c0.866,0.666,1.816,2.166,2.85,4.5
		c0.601,1.399,1.566,3.783,2.9,7.149c0.133,0.667,0.55,1.667,1.25,3c0.566,1.066,1,1.816,1.3,2.25c0.2,0.533,0.366,1.25,0.5,2.15
		c0.1,0.967,0.116,1.833,0.05,2.6c-0.267-0.333-1.55-1.283-3.85-2.85c-2.2-1.533-3.45-2.55-3.75-3.05l0.1-1.351
		c0.733-0.333,1.15-0.533,1.25-0.6c0.3-0.267,0.45-0.7,0.45-1.3c0-0.4-0.05-0.801-0.15-1.2l-0.149-0.5
		c-0.134-0.667-0.267-1.217-0.4-1.65c-0.2-0.733-0.717-2.1-1.55-4.1l-0.75-2.25c0-1.033-0.533-1.9-1.6-2.601
		c-1.067-0.733-2.351-1.1-3.851-1.1l-1.6-0.35c-1.033-0.267-2.65-1.601-4.851-4c-1.633-1.733-3.767-2.117-6.399-1.15l-0.7,0.8
		c-0.167-0.133-0.583-0.2-1.25-0.2c-0.434,0-0.8,0.067-1.1,0.2c-0.4,0.233-0.75,0.434-1.051,0.601l-0.449,0.399
		c-0.867,0.8-1.75,1.316-2.65,1.55c-0.733,0.101-1.116,0.15-1.15,0.15l-2.1-0.2c0.033,0,0.066,0,0.1,0
		c1.601-0.5,3.15-1.05,4.65-1.649c2.134-0.4,3.233-1.834,3.3-4.301c-0.267-3.199-0.233-5.616,0.101-7.25
		c0.733,0.101,2.75,1.5,6.05,4.2c3.366,2.733,5.717,4.217,7.05,4.45l1.35-0.1l0.101-2.551c-6.3-8.633-9.851-13.399-10.65-14.3
		c-1.233,0-2.283-0.633-3.149-1.899c-0.9-1.267-1.351-2.801-1.351-4.601c-0.934-6.2-1.684-9.983-2.25-11.35
		c-1.2-2.934-3.75-5.55-7.649-7.851l-1.65-2.899c0.533,0.666,0.75,0.666,0.65,0c-0.267-1.3-0.317-2.267-0.15-2.9
		c0.6,0.5,1.517,1.617,2.75,3.351c0.967,1.366,1.7,2.05,2.2,2.05l1.2-0.5c0.899-0.4,1.533-0.733,1.899-1
		c0.867-1,1.467-2.134,1.8-3.4c0.167-0.633,0.884-1.017,2.15-1.149c0.767-0.067,1.417-0.45,1.95-1.15
		c0.666-0.9,1.017-2.15,1.05-3.75l0.05-1.1c0-0.367,0.55-0.25,1.65,0.35l1.5,1.1c1.767,1.134,3,1.867,3.7,2.2
		c1,0.5,2.083,0.8,3.25,0.9h-2.15C228.783,124.983,227.384,125.217,225.05,125.65z M175.6,74.85L176.4,76
		c0.5,1.033,1.116,3.083,1.85,6.15c0.667,2.767,1,4.383,1,4.85c0,3.933-0.616,6.633-1.85,8.1c-0.233,0.267-0.667,0.65-1.301,1.15
		c-0.399,0.267-0.6,0.567-0.6,0.9c0,4.467,0.3,7.633,0.9,9.5c0.533,1.534,1.433,2.55,2.699,3.05c0.667,1.866,1.034,3,1.101,3.399
		c0.133,0.9,0.233,1.483,0.3,1.75c-5.9-1.199-9.717,2.483-11.45,11.051c-0.899,4.366-1.3,9.199-1.2,14.5l-0.25-1.351
		c0-6.934-0.083-11.416-0.25-13.45c-1.767,0.834-2.933,2.483-3.5,4.95c-0.533,2.233-0.716,5.8-0.55,10.7
		c-2.767,0-4.75-0.017-5.95-0.05c-1.833-0.066-3.899-0.233-6.199-0.5c-0.2,2.467-0.117,6.083,0.25,10.85c0,1.533-0.4,3.033-1.2,4.5
		c0.166-3.533,0.217-5.85,0.149-6.95c0.034-0.533-0.216-1.85-0.75-3.949c-0.566-2.2-0.85-3.801-0.85-4.801
		c0-1.166,0.3-3.083,0.9-5.75c0.399-1.399,0.833-2.767,1.3-4.1c0.366-1,0.55-1.517,0.55-1.55c0.434-1.9,0.55-4.05,0.35-6.45
		l1.101-0.8l-1.25-1.25l-0.05-0.45l0.149-2.3c0.667,0.8,1.351,3.267,2.05,7.399c0.601,3.534,0.9,5.934,0.9,7.2l0.55-0.6
		c0.134-0.3,0.283-0.5,0.45-0.601c0.066-0.066,0.116-0.1,0.15-0.1c0.199-2.066,0.6-3.917,1.199-5.55c0.467-1.4,0.7-2.55,0.7-3.45
		c2.7,0.4,4.767-0.25,6.2-1.95c1.634-1.967,2.184-5.116,1.65-9.45c-0.301-2.466,0.566-4.366,2.6-5.7c2.2-1.467,3.3-3.467,3.3-6
		c0-1.967-0.483-5.033-1.45-9.2c-1.066-4.1-1.666-6.567-1.8-7.4c-0.399-0.867-0.783-1.517-1.149-1.95L165.8,78.5l1.95-0.45
		c-0.9-0.733-1.7-1.316-2.4-1.75l-0.449-0.8c1-0.067,1.866,0.067,2.6,0.4c0.267,0.233,0.55,0.483,0.85,0.75
		c0.367,0.167,1.25,0.233,2.65,0.2c0.467,1.467,0.8,2.767,1,3.9c0.3,2.167,0.566,3.8,0.8,4.9c0.167,0.733,0.316,1.4,0.45,2
		c0.1,0.233,0.366,0.35,0.8,0.35c0.667,0,0.884-0.05,0.65-0.15c0.166-0.2,0.383-0.733,0.649-1.6c0.233-0.7,0.367-1.183,0.4-1.45
		c0.1-2.767-0.15-6-0.75-9.7L175.6,74.85z M157.45,79.25c0.733,0,2.383-0.083,4.95-0.25l-0.15,1.8l-0.35,3.45
		c-0.101,0.833-0.434,2.967-1,6.4L159.95,98c0.2-4.3,0.267-7.6,0.2-9.9c0-0.167-0.2-1.217-0.601-3.15
		c-0.399-1.967-0.649-3.083-0.75-3.35L157.45,79.25z M175.45,151.5c0.467,0,2.366,0.134,5.7,0.4c0.833,0,1.816-0.217,2.949-0.65
		c1.367-0.533,2.351-1.217,2.95-2.05c0.101-0.2,0.3-0.65,0.601-1.351c0.3-0.8,0.449-1.25,0.449-1.35
		c0.067-0.566,0.101-1.134,0.101-1.7c-0.033-1.333,0.316-6.5,1.05-15.5c0.033-0.467-0.15-1.684-0.55-3.649c-0.5-2.367-0.8-4-0.9-4.9
		h2.5l0.601,0.05c0.133,1.5,0.199,3.5,0.199,6c0,2.4-0.05,4.351-0.149,5.851c-0.5,4.899-0.733,9.767-0.7,14.6L190,147.3
		c-0.366,2.767-1,4.65-1.9,5.65c-0.666,0.733-1.6,1.1-2.8,1.1c-1.934,0-4.1-0.35-6.5-1.05c-2-0.566-3.116-0.983-3.35-1.25
		l-0.05-0.25H175.45z M146.05,79.2h0.601c-1.801,4.066-3.617,8.167-5.45,12.3c-0.334-0.467-0.65-1.017-0.95-1.65
		c-0.2-0.767-0.533-2.533-1-5.3c-0.6-3.533-0.967-5.667-1.1-6.4l0.899,0.3c0.134-1.267,0.351-2.067,0.65-2.4
		c0.2-0.3,0.733-0.566,1.6-0.8c0.134,0,0.917-0.417,2.351-1.25c1.566-0.867,4.6-1.683,9.1-2.45c-7.134,3.633-11,6.483-11.6,8.55
		c-0.134,0.467-0.117,1.367,0.05,2.7c0.133,1.034,0.05,1.983-0.25,2.85l0.149-0.4c0.134-0.2,0.884-1.033,2.25-2.5
		C144.717,81.183,145.616,80,146.05,79.2z M60.9,27.9l-0.1,0.35c-0.167,0.867-0.85,2.417-2.05,4.65c-0.233,0.667-0.417,1.3-0.55,1.9
		l0.05-1.7c-0.2,0.2-0.783,0.617-1.75,1.25l-0.45,0.3L56.5,34l0.2-0.3c0.033-0.6,0.05-2.017,0.05-4.25
		c-0.067-0.367-0.283-0.75-0.65-1.15c-0.167-0.033-0.3-0.066-0.4-0.1c-0.2-0.1-0.3-0.35-0.3-0.75c0-0.867,0.483-1.833,1.45-2.9
		c0.533-0.6,1.85-1.833,3.95-3.7l1.1-0.75l5-2.35l-6.15,5.2c-0.133,0.533-0.483,1.683-1.05,3.45c-0.467,1.767-0.633,3.4-0.5,4.9
		L60.9,27.9z M64.25,21.35c0.9-1.3,1.817-2.5,2.75-3.6l3.1-1.25C67.633,18.2,65.683,19.817,64.25,21.35z M90.95,35.1l-0.8,2.5
		l-1.3,5.05c-0.5,1.633-0.8,2.9-0.9,3.8c-0.034,0.333-0.233,0.716-0.6,1.15c-0.333-2.434-0.5-4.133-0.5-5.1l0.05-5.15
		c0.033-3.267-0.033-5.467-0.2-6.6c-0.3-1.967-1.05-3.583-2.25-4.85c1.1,0.1,1.833,0.133,2.2,0.1c0.267-0.033,0.467-0.117,0.6-0.25
		l3.9-2.75l0.15,1.4c-0.033,0.467-0.117,0.917-0.25,1.35c-0.133,0.4-0.716,1.25-1.75,2.55c-0.9,1.167-1.35,1.967-1.35,2.4
		c0,2.133,0.367,3.367,1.1,3.7c0.7-1.6,1.167-2.683,1.4-3.25c0.3-0.733,0.8-2.117,1.5-4.15l1.5,0.45
		C92.683,29.983,91.85,32.533,90.95,35.1z M114.45,88.5c-0.7-0.067-1.267-0.2-1.7-0.4l-2.85-0.75c-5-0.833-7.783-1.3-8.35-1.4
		c0.467,0.066,1.934,0.1,4.4,0.1c2.066,0.2,3.333-0.183,3.8-1.15c0.3-0.6,0.667-1.75,1.1-3.45c1.566-0.267,2.517-0.517,2.85-0.75
		c0.267-0.167,0.767-1.017,1.5-2.55c0.733-1.533,1.25-2.4,1.55-2.6l0.5-0.1c0.4,1.4,0.25,3.767-0.45,7.1
		C116.1,85.917,115.317,87.9,114.45,88.5z M127.9,87.45l0.35-1l0.85,0.95c0.566,0.733,1.133,1.583,1.7,2.55l0.55,1.15l-1.6-0.55
		c-0.133-0.167-0.517-0.35-1.15-0.55c-0.6-0.2-1.083-0.3-1.45-0.3L127.9,87.45z M106.2,94.95l-0.9,0.7
		c-0.466,0.533-0.75,0.883-0.85,1.05c-0.2,0.333-0.3,0.716-0.3,1.15c0,0.433,0.1,0.733,0.3,0.9c0.133,0.067,0.333,0.15,0.6,0.25
		c0.934,0.367,1.733,0.533,2.4,0.5c0.367,3.167,0.633,5.967,0.8,8.4l-0.05,0.9c-0.233,2.733,1.1,4.767,4,6.101l-1.65-0.25
		c-3-1.801-5.15-3.667-6.45-5.601c-0.9-1.4-1.567-2.1-2-2.1c-0.467,0.1-1.017,0.383-1.65,0.85c-1.2,0.934-2.1,2.351-2.7,4.25
		L97.1,112l-0.5,0.15l-0.5,0.3c0.333-0.934,0.633-2.05,0.9-3.351c0.233-1.233,0.35-2.116,0.35-2.649c0-1.267-0.133-2.617-0.4-4.05
		c-0.3-1.7-0.7-2.883-1.2-3.55h0.1l1.25-0.65c0.333-0.133,1.1-0.75,2.3-1.85c1.2-1.067,1.983-1.667,2.35-1.8
		c0.8-0.233,3.05-0.583,6.75-1.05L106.2,94.95z M114,128.05c-0.3-0.267-0.583-0.533-0.85-0.8c2.8-0.5,4.717-1.384,5.75-2.65
		c0.6-0.767,0.9-1.833,0.9-3.199c0-0.634-0.85-1.584-2.55-2.851c-0.633-0.467-2.15-1.483-4.55-3.05l1,0.05c5.1,2,8.1,3,9,3
		c0.933,0,2.533-1.1,4.8-3.3c2.433-2.333,3.65-4.25,3.65-5.75c0-2.633-0.45-4.933-1.35-6.9c-2-4.333-3.117-6.85-3.35-7.55
		c0.867-0.4,1.816-0.95,2.85-1.65c1.534,1.533,2.567,4.184,3.101,7.95c0.267,1.933,0.383,3.8,0.35,5.6v1.7l0.5-12.5
		c1.434,5.1,2.684,9.833,3.75,14.2c0.9,3.601,1.35,5.584,1.35,5.95c0,1.834-1.083,2.8-3.25,2.9c-3.2,0.1-5.233,0.399-6.1,0.899
		c-1.167,0.067-2.067,0.267-2.7,0.601l0.7,0.6l0.9,0.55l-0.3,0.851l-0.3,1.3c-0.2,2-0.267,4.4-0.2,7.2l-0.15-1.4
		c0.066-1.666-0.467-2.866-1.6-3.6c-0.767-0.533-1.65-0.8-2.65-0.8c-0.367,0-1.617,0.5-3.75,1.5
		C116.95,127.866,115.3,128.25,114,128.05z M75.5,103c-2.167-0.3-3.267-0.45-3.3-0.45c1.767-0.633,2.8-2.466,3.1-5.5
		c0.067-3.333,0.25-5.417,0.55-6.25c2.9,1.233,4.4,1.867,4.5,1.9c-0.6,0.7-1.483,2.2-2.65,4.5C76.4,99.767,75.667,101.7,75.5,103z
		 M102.85,97.45l0.2-0.65c-1.566,0.034-2.566,0.483-3,1.35c-0.133,0.867-0.333,1.3-0.6,1.3l-2.5-0.35c0.3,0.8,0.45,2.183,0.45,4.15
		c0,1.7,0.267,2.883,0.8,3.55c1.5-1.5,3.017-2.583,4.55-3.25c0.667-0.3,1-1,1-2.1c0-0.534-0.183-1.067-0.55-1.6
		c-0.4-0.533-0.6-0.883-0.6-1.05C102.6,98.4,102.683,97.95,102.85,97.45z M28.6,29.05c-0.434-0.133-0.967-0.667-1.6-1.6
		c-0.7-1-1.15-1.567-1.35-1.7L24.4,25.6c1.167-0.467,2.15-0.767,2.95-0.9c0.2,0.133,1.566,0.617,4.1,1.45
		c2.267,0.8,4.117,1.684,5.55,2.65c4.633,3.067,6.717,7.9,6.25,14.5c0.067,4.067-0.067,6.733-0.4,8
		c-0.567,0.867-1.033,1.434-1.4,1.7l-2.9,2.6l-2.3,2.95l-2.6,4.3c0,1.167-0.667,2.167-2,3c-1.333,0.833-2.95,1.25-4.85,1.25
		l-1.2-0.2c-0.367-0.133-0.7-0.316-1-0.55l-0.4-0.3c0.5-0.1,0.966-0.25,1.4-0.45l1.65-0.75c0.267-0.167,1.367-1.083,3.3-2.75
		c1.9-1.7,2.95-2.684,3.15-2.95c0.8-1.433,1.283-2.55,1.45-3.35c0.133-1.133,0.434-2.533,0.9-4.2c0.467-1.567,0.7-2.383,0.7-2.45
		c0-0.467-0.15-1-0.45-1.6c-0.433-0.767-1.1-1.45-2-2.05l-2.95-1.75c-1.267-0.767-2.833-1.5-4.7-2.2c-2.667-1-5.017-1.533-7.05-1.6
		h1.05l4.5-0.45c2.833,0,5.267,1.05,7.3,3.15c1.7,0.533,3.066,0.8,4.1,0.8c0.2,0,0.483-0.517,0.85-1.55
		c0.434-1.167,0.65-2.367,0.65-3.6c0-0.867-0.066-1.9-0.2-3.1L37.5,34c-0.6-1.333-1.85-2.483-3.75-3.45
		C30.45,29.583,28.733,29.083,28.6,29.05z M66.75,52.8c-1.933,0.867-2.917,1.3-2.95,1.3c-0.433,0-0.75-0.05-0.95-0.15
		c-0.2-0.133-0.383-0.267-0.55-0.4L64.5,51c0.433-0.5,0.783-0.967,1.05-1.4c0.434-0.767,0.717-1.233,0.85-1.4
		c0.533-0.733,1.35-1.6,2.45-2.6l2.9-2.65L71.5,44.5c-0.133,0.6-0.483,1.683-1.05,3.25c-0.567,1.533-0.95,2.483-1.15,2.85
		c-0.133,0.133-0.55,0.517-1.25,1.15C67.317,52.383,66.883,52.733,66.75,52.8z M60.7,77.7c-0.133,0.767,0.066,2.35,0.6,4.75
		c0.633,2.7,1.483,5.216,2.55,7.55c0.333-0.4,0.633-0.9,0.9-1.5c-0.067,2.267-0.1,5.433-0.1,9.5c-0.133,3.467-0.6,6.533-1.4,9.2
		c-0.7,0.267-1.483,0.383-2.35,0.35c-1.267-0.033-3.267-0.316-6-0.85l-0.35-0.3h0.05c2.233,0.2,3.566,0.233,4,0.1
		c1.5-0.433,2.25-1.833,2.25-4.2c0-3.167-0.467-7.183-1.4-12.05C58.483,85.35,58,82.3,58,81.1c0-1.233,0.117-2.017,0.35-2.35
		C58.683,78.217,59.467,77.867,60.7,77.7z M67.3,105.4l4.05-2.25c-0.8,1.033-1.383,1.733-1.75,2.1
		C69.167,105.45,68.4,105.5,67.3,105.4z M91.8,122.75h-0.3c0.967-0.866,1.633-2.35,2-4.45c0.333-2.166,1.033-3.783,2.1-4.85
		l0.2-0.25c0,0.566,0.067,1.649,0.2,3.25c0,1.333-0.367,2.583-1.1,3.75C94.133,121.434,93.1,122.283,91.8,122.75z M260.4,213.35
		l0.85-2c0.866,1.267,1.134,2.467,0.8,3.601V215L260.4,213.35z M259.55,212.65l-0.1-0.051c-1.334-0.533-2.417-0.833-3.25-0.899
		h-2.15c0.134-1.867,0.417-3.3,0.851-4.3c0.399-1.034,0.899-1.65,1.5-1.851c0.6-0.233,1.166,0,1.699,0.7
		c0.534,0.667,0.934,1.667,1.2,3C259.533,210.55,259.616,211.684,259.55,212.65z M240.85,215.2l-0.149-0.3l-0.05-2.601
		c0-1.333,0.6-2.467,1.8-3.399c1.2-0.967,2.649-1.45,4.35-1.45c-0.934,0.967-1.45,1.5-1.55,1.6l-0.55,0.101l-1.3,0.5
		c-0.834,0.566-1.45,1.166-1.851,1.8c-0.1,0.333-0.25,1.434-0.45,3.3L240.85,215.2z M228.35,213.2c-0.3-0.167-0.816-0.65-1.55-1.45
		c-0.767-0.833-1.2-1.417-1.3-1.75c1.167-0.4,2.017-0.483,2.55-0.25c0.267,0.134,0.601,0.384,1,0.75c2.434,0.167,3.783,0.167,4.05,0
		c0.801-0.4,1.65-2.017,2.551-4.85l0.199,1.3c0.134,1.366,0.2,2.583,0.2,3.649c0,1.067-0.25,1.801-0.75,2.2
		c-0.566,0.434-1.6,0.65-3.1,0.65C231.233,213.45,229.95,213.366,228.35,213.2z"/>
	<path style="fill-rule:evenodd;clip-rule:evenodd;fill:#635B52;" d="M217,132.4c-0.267,0.166-0.95,0.767-2.05,1.8
		c-1,0.934-1.684,1.483-2.05,1.649c-0.467-0.233-0.7-0.883-0.7-1.949c0-0.867,0.033-1.367,0.1-1.5
		c0.101-0.233,0.467-0.5,1.101-0.801c3.166-1.533,6.616-3.583,10.35-6.149c-0.1,0.133-0.934,0.983-2.5,2.55
		c-1.366,1.366-2.25,2.384-2.65,3.05C218.134,131.583,217.6,132.033,217,132.4z M240.5,179.45c-1.1,0-2.033-0.5-2.8-1.5
		c-0.8-1-1.2-2.2-1.2-3.601c1.667,1.767,2.55,2.717,2.65,2.851C239.816,177.967,240.267,178.717,240.5,179.45z M242.3,182.9h-1.35
		c0.2,2.066,0.533,3.733,1,5c1,2.866,1.75,5.166,2.25,6.899c-1.334-3.366-2.3-5.75-2.9-7.149c-1.033-2.334-1.983-3.834-2.85-4.5
		c-1.2-0.934-2.584-1.551-4.15-1.851c-1.434-0.233-2.283-0.5-2.55-0.8l0.2-0.3c0.3-0.2,0.767-0.3,1.399-0.3l1.95-0.051
		c0.9,0,1.917,0.067,3.05,0.2c0.134,0,4.2,0.45,12.2,1.351l0.7,0.05C246.917,182.717,243.934,183.2,242.3,182.9z M262.05,215v-0.05
		c0.334-1.134,0.066-2.334-0.8-3.601l-0.85,2l-0.7-0.6l-0.15-0.1c0.066-0.967-0.017-2.101-0.25-3.4c-0.267-1.333-0.666-2.333-1.2-3
		c-0.533-0.7-1.1-0.934-1.699-0.7c-0.601,0.2-1.101,0.816-1.5,1.851c-0.434,1-0.717,2.433-0.851,4.3
		c-1.833,0.133-3.083,0.2-3.75,0.2c-0.366,0-0.95-0.4-1.75-1.2c-0.899-0.867-2-1.417-3.3-1.65c0.1-0.1,0.616-0.633,1.55-1.6
		c0.2-0.667,0.367-1.55,0.5-2.65c0.066-0.767,0.05-1.633-0.05-2.6c-0.134-0.9-0.3-1.617-0.5-2.15c0.134,0.066,1.667,1.033,4.6,2.9
		c2,1.233,3.4,1.899,4.2,2c1.066,0.133,2.634,0.899,4.7,2.3c2,1.366,3.033,2.05,3.1,2.05c0.634,0,1.267-0.25,1.9-0.75
		c0.2,0.967,0.3,2.283,0.3,3.95l-0.1,2.55l-1.351-1.3c-0.267,0.566-0.8,1.066-1.6,1.5L262.05,215z M147.75,76.85
		c-0.733,1.033-1.3,1.816-1.7,2.35c-0.434,0.8-1.333,1.983-2.7,3.55c-1.366,1.467-2.116,2.3-2.25,2.5l-0.149,0.4
		c0.3-0.867,0.383-1.816,0.25-2.85c-0.167-1.333-0.184-2.233-0.05-2.7c0.6-2.067,4.466-4.917,11.6-8.55l3.5-1.6l-1.8,1.5l-0.15,0.1
		C151.6,73.383,149.417,75.15,147.75,76.85z M67,17.75c-0.933,1.1-1.85,2.3-2.75,3.6l-1.4,2.6l-0.35,0.7l-1.6,3.25l-1.7,3.4
		c-0.133-1.5,0.033-3.133,0.5-4.9c0.566-1.767,0.917-2.917,1.05-3.45l6.15-5.2H67z M133.25,96.15l-0.5,12.5v-1.7
		c0.033-1.8-0.083-3.667-0.35-5.6c-0.534-3.767-1.567-6.417-3.101-7.95c0.867-0.4,1.583-0.633,2.15-0.7l-1.7-2.15l1.6,0.55
		c0.5,0,0.933,0.333,1.3,1c0.366,0.667,0.55,1.483,0.55,2.45L133.25,96.15z M65.65,85.7c-0.433,1.7-0.733,2.633-0.9,2.8
		c-0.267,0.6-0.567,1.1-0.9,1.5c-1.067-2.333-1.917-4.85-2.55-7.55c-0.533-2.4-0.733-3.983-0.6-4.75l0.1-1.75
		c1.633,0,2.567,0.017,2.8,0.05c0.267,0.933,0.6,1.75,1,2.45c0.267,0.466,0.4,0.933,0.4,1.4C65,82.117,65.217,84.067,65.65,85.7z
		 M102.85,97.45c-0.167,0.5-0.25,0.95-0.25,1.35c0,0.167,0.2,0.517,0.6,1.05c0.367,0.533,0.55,1.066,0.55,1.6c0,1.1-0.333,1.8-1,2.1
		c-1.533,0.667-3.05,1.75-4.55,3.25c-0.534-0.667-0.8-1.85-0.8-3.55c0-1.967-0.15-3.35-0.45-4.15l2.5,0.35
		c0.267,0,0.466-0.434,0.6-1.3c0.434-0.867,1.434-1.316,3-1.35L102.85,97.45z"/>
</g>
</svg>
