<?xml version="1.0" encoding="iso-8859-1"?>
<!-- Generator: Adobe Illustrator 15.1.0, SVG Export Plug-In . SVG Version: 6.00 Build 0)  -->
<!DOCTYPE svg PUBLIC "-//W3C//DTD SVG 1.1//EN" "http://www.w3.org/Graphics/SVG/1.1/DTD/svg11.dtd">
<svg version="1.1" id="Layer_1" xmlns="http://www.w3.org/2000/svg" xmlns:xlink="http://www.w3.org/1999/xlink" x="0px" y="0px"
	 width="70.6px" height="163.55px" viewBox="0 0 70.6 163.55" style="enable-background:new 0 0 70.6 163.55;" xml:space="preserve"
	>
<g>
	<path style="fill-rule:evenodd;clip-rule:evenodd;fill:#7B756E;" d="M20.6,135.65l0.05-11.351c0.1,1.601,0.684,3.684,1.75,6.25
		c1.167,2.867,1.867,4.934,2.1,6.2c0.533,2.8,0.8,6.184,0.8,10.15v12.85c0.067-0.134,0.417-0.417,1.05-0.85
		c0.367-0.267,0.667-0.45,0.9-0.551c0.033-0.8,0.05-1.566,0.05-2.3c-0.066-1.6-0.117-2.816-0.15-3.649
		c-0.033-1.434,0.067-2.617,0.3-3.551c0.1-0.5,0.45-1.483,1.05-2.949c0.467-1.2,0.733-2.25,0.8-3.15c0.1-1.333,0.167-2.366,0.2-3.1
		c0.033-1.301-0.017-2.367-0.15-3.2l-0.15-0.8c-0.067-0.267-0.284-0.7-0.65-1.301c-0.333-0.533-0.533-1.066-0.6-1.6
		c-0.067-0.434-0.083-0.983-0.05-1.65c0.033-0.733,0.05-1.283,0.05-1.649v-8.3v-27.7c-1.233-3.9-2.1-8.417-2.6-13.55
		c-0.367-3.566-0.583-7.85-0.65-12.85c-0.034-0.267-0.05-0.55-0.05-0.85c0-0.167,0-0.317,0-0.45V65.7
		c0.667,0.466,1.317,1.017,1.95,1.65l0.05,0.05l0.3-0.25c0.033,0.133,0.083,0.267,0.15,0.4l1.15,3.75c0,0.067,0.017,0.133,0.05,0.2
		c0.5,1.7,0.883,3.133,1.15,4.3c1.167,5.167,2.9,10.667,5.2,16.5c0.7,1.8,1.2,3.733,1.5,5.8c0.267-0.366,0.6-0.6,1-0.699
		c0.199,0.933,0.267,2.25,0.199,3.949c-0.066,1.867-0.05,3.184,0.051,3.95c1.066,0.334,1.833-0.434,2.3-2.3
		c0.158-3.008,0.241-5.19,0.25-6.55c0.008,0.508,0.041,1.142,0.1,1.899c0.033,1.967-0.083,3.517-0.35,4.65
		c-0.267,5.8-0.184,10.167,0.25,13.1c0.233,1.733,1.1,2.9,2.6,3.5c2.033,0.834,3.351,1.634,3.95,2.4c0.2,0.267,0.417,0.8,0.65,1.6
		c0.233,0.733,0.533,1.267,0.899,1.601c1.101,1.066,3.3,1.967,6.601,2.7c1.699,0.399,2.933-0.067,3.699-1.4
		c0.934-1.566,1.867-2.4,2.801-2.5c1.466-3.7,2.35-8.134,2.649-13.3c0.101-1.533,0.15-6.084,0.15-13.65
		c0-5.033-0.184-11.616-0.55-19.75c-0.434-9.867-0.684-16.466-0.75-19.8c-0.233,3-0.967,6.9-2.2,11.7
		c-0.167-0.1-0.283-0.25-0.351-0.45c0-7.667-0.216-14.4-0.649-20.2c-0.267-3.433-0.283-7.733-0.05-12.9
		c0.3-5.733,0.483-10.033,0.55-12.9c0.033,2.567,0.616,6.6,1.75,12.1c1.066,5.333,1.583,9.383,1.55,12.15
		c0.333-0.9,0.517-2.367,0.55-4.4c0.033-1.934,0.25-3.367,0.65-4.3c0.166,0.333,0.25,0.667,0.25,1c1.6,0.1,2.333-2.566,2.2-8
		c-0.067-2.433-0.384-5.966-0.95-10.6c-0.101-0.934-0.367-2.05-0.8-3.35c-0.534-1.5-0.917-2.6-1.15-3.3c-0.5-1.466-1.45-2.8-2.85-4
		c-1.5-1.3-3.017-1.966-4.551-2l1.75-1.2V6.8l2.301,2.15c0.966,0.867,2.35,2.033,4.149,3.5c1.434,1.333,2.45,2.783,3.05,4.35
		c1.067,2.833,1.634,6.617,1.7,11.35c0.033,2.667-0.05,6.5-0.25,11.5c0,4.033,0.217,9.934,0.65,17.7
		c0.434,7.933,0.649,13.833,0.649,17.7c0.034,9.334,0.034,14.867,0,16.601c-0.133,6.267-0.566,11.8-1.3,16.6
		c-0.633,4-1.066,7.7-1.3,11.1c-0.033,0.567-0.1,1.517-0.2,2.851c-0.133,1.233-0.35,2.166-0.649,2.8c-1.067,2.233-3.534,3.7-7.4,4.4
		c-3.233,0.566-6.35,0.5-9.35-0.2c-1.467-0.334-2.884-1.434-4.25-3.3c-1.467-1.967-2.817-3.167-4.051-3.601
		c-0.366-0.133-0.816-0.233-1.35-0.3H40.6c-0.133-0.033-0.283-0.066-0.449-0.1c-0.467-0.067-1.034-0.101-1.7-0.101l-2.351,0.05
		c-0.466,0-0.949,0.017-1.45,0.051c0.433,9.233,0.65,16.716,0.65,22.449c0,3.801-0.133,6.351-0.4,7.65
		c-0.533,2.7-1.783,4.667-3.75,5.9c-1.433,0.866-2.8,1.633-4.1,2.3c0.034-0.2,0.05-0.384,0.05-0.55c-0.4,0.333-0.917,0.75-1.55,1.25
		c-0.1,0-0.183,0-0.25,0c-1.867,0.033-2.983,0.199-3.35,0.5c-0.067,0.066-0.133,0.116-0.2,0.149c-0.2,0.101-0.35,0.134-0.45,0.101
		c-0.233-0.101-0.4-0.217-0.5-0.351c0.133-0.467,0.3-0.767,0.5-0.899c0.2-0.101,0.467-0.184,0.8-0.25
		c-0.033-0.134-0.05-0.267-0.05-0.4l-0.1-1.15v-16.85c-0.333-0.333-0.55-0.6-0.65-0.8c-0.466-0.7-0.7-1.55-0.7-2.55v-0.5V135.65z
		 M12.1,163.4c0.267-2.567,0.433-4.551,0.5-5.95c-0.067,2.566-0.067,4.5,0,5.8v0.2L12.1,163.4z"/>
	<path style="fill-rule:evenodd;clip-rule:evenodd;fill:#A79E94;" d="M25.3,160.9c0.067,0,0.15,0,0.25,0
		c0.633-0.5,1.15-0.917,1.55-1.25c0,0.166-0.017,0.35-0.05,0.55c-0.6,0.3-1.183,0.583-1.75,0.85V160.9z M17.6,163.3
		c0.566-1.533,0.9-3.55,1-6.05c0.133-1.634,0.25-2.533,0.35-2.7c0.267-0.633,1.017-0.866,2.25-0.7c0.5-4.033,0.533-8.333,0.1-12.899
		c0.1,0.2,0.317,0.467,0.65,0.8v16.85l0.1,1.15c0,0.134,0.017,0.267,0.05,0.4c-0.333,0.066-0.6,0.149-0.8,0.25
		c-0.2,0.133-0.367,0.433-0.5,0.899c0.1,0.134,0.267,0.25,0.5,0.351c0.1,0.033,0.25,0,0.45-0.101
		c-0.167,0.267-0.35,0.467-0.55,0.601c-0.434,0.267-0.75,0.517-0.95,0.75H20.2C19.267,163.134,18.4,163.267,17.6,163.3z
		 M12.6,163.45v-0.2c-0.067-1.3-0.067-3.233,0-5.8c-0.067,1.399-0.233,3.383-0.5,5.95L9,163.35c-0.233,0.034-0.467,0.051-0.7,0.051
		c-0.033-1.034-0.216-2.617-0.55-4.75c-0.3-2.034-0.467-3.434-0.5-4.2v-9.5c0.1,2.6,0.383,5.166,0.85,7.7
		c0.167,1,0.566,2.233,1.2,3.699c0.7,1.667,1.15,2.851,1.35,3.551c-0.033-0.834-0.05-4.534-0.05-11.101
		c-0.233-3.566-0.4-6.35-0.5-8.35c-0.2-3.601,0.017-6.316,0.65-8.15c0.333,2.467,0.6,6.55,0.8,12.25c0.2,5.167,0.55,9.15,1.05,11.95
		c0.433,2.467,1.066,4.783,1.9,6.95H12.6z M24.65,66.2c0,0.3,0.017,0.583,0.05,0.85c0.066,5,0.283,9.284,0.65,12.85
		c0.5,5.133,1.367,9.65,2.6,13.55v27.7c-0.267-1.334-0.434-2.317-0.5-2.95c-0.233-1.8-0.2-4.816,0.1-9.05
		c0.267-3.967,0.2-6.967-0.2-9c-0.2-1-1.167-2.634-2.9-4.9c-1.467-1.9-2.05-3.65-1.75-5.25c0.066-0.4,0.283-0.934,0.65-1.6
		c0.333-0.667,0.55-1.217,0.65-1.65c0.167-1,0.1-2.45-0.2-4.35c-0.367-2.3-0.55-3.75-0.55-4.351c0.1-2.1,0.15-3.667,0.15-4.7
		c0-1.867-0.283-3.383-0.85-4.55l-0.45,0.45c0.167-0.2,0.3-0.417,0.4-0.65l-0.05-0.05L22.15,68c-0.2,0-0.383,0-0.55,0
		c0.333-0.5,0.9-0.967,1.7-1.4C23.867,66.3,24.317,66.167,24.65,66.2z M32.05,60.1c0.233,0.533,0.417,1.1,0.55,1.7
		c0.9,2.9,1.65,6.467,2.25,10.7c0.333,2.433,0.766,6.067,1.3,10.9c0.133,1.166,0.133,3.566,0,7.199c0.199,3.2,1.216,5.034,3.05,5.5
		c0.5-4.767,0.75-9.1,0.75-13c0-2.433,0.116-8.05,0.35-16.85c0.233-2,0.334-4.133,0.3-6.4C40.866,53.717,40.9,49.133,40.7,46.1
		c0-3.5-0.05-6.133-0.15-7.9c0.3,2.4,0.55,4.867,0.75,7.4V50c0.066-1.033,0.117-1.817,0.15-2.35c0.233,2.867,0.616,8.767,1.149,17.7
		c0.434,7.333,0.884,13.217,1.351,17.65c0.533,5.5,1.434,11.884,2.7,19.15c0.199,1.133,0.433,2.933,0.699,5.399
		c0.334,2.2,0.817,3.934,1.45,5.2c0.233-0.233,0.4-0.667,0.5-1.3c0.134-0.667,0.3-1.101,0.5-1.3c0.167,2.466,0.517,4.399,1.05,5.8
		c3.233,0.3,5.567,0.3,7,0c0.534-4.434,0.733-9.9,0.601-16.4c-0.267-7.366-0.434-12.866-0.5-16.5
		c-0.101,5.667-0.533,11.45-1.3,17.351c-0.301-0.667-0.5-1.5-0.601-2.5c-0.066-1.167-0.133-2.051-0.2-2.65
		c-1,0.033-1.699,0.033-2.1,0c-0.667-0.066-1.233-0.517-1.7-1.35c-0.267-0.434-0.366-1.334-0.3-2.7c0.134-1.434,0.2-2.367,0.2-2.8
		V67.85c0.1,1.8,0.483,5.35,1.149,10.65c0.5,4.167,0.784,7.517,0.851,10.05v-45.2c-0.066,1.066-0.351,1.967-0.851,2.7
		c-0.866-1.133-1.216-3.75-1.05-7.85c0.367-4.367,0.55-7.083,0.55-8.15c0-1-0.116-2.983-0.35-5.95c-0.2-2.5-0.25-4.467-0.15-5.9
		c0.233-2.6,0.167-5.367-0.199-8.3c-0.034-0.267-0.017-1.133,0.05-2.6c0.033-1.066-0.101-1.933-0.4-2.6
		c-0.233-0.467-0.483-0.833-0.75-1.1c0.134-0.7,0.117-1.5-0.05-2.4l0.5,0.25C52.517,2.05,53.934,3,55.5,4.3
		c0.9,0.7,1.85,1.534,2.85,2.5v0.05l-1.75,1.2c1.534,0.034,3.051,0.7,4.551,2c1.399,1.2,2.35,2.534,2.85,4
		c0.233,0.7,0.616,1.8,1.15,3.3c0.433,1.3,0.699,2.417,0.8,3.35c0.566,4.633,0.883,8.167,0.95,10.6c0.133,5.434-0.601,8.1-2.2,8
		c0-0.333-0.084-0.667-0.25-1c-0.4,0.934-0.617,2.367-0.65,4.3c-0.033,2.033-0.217,3.5-0.55,4.4c0.033-2.767-0.483-6.817-1.55-12.15
		c-1.134-5.5-1.717-9.533-1.75-12.1c-0.066,2.867-0.25,7.167-0.55,12.9c-0.233,5.167-0.217,9.467,0.05,12.9
		c0.434,5.8,0.649,12.534,0.649,20.2c0.067,0.2,0.184,0.35,0.351,0.45c1.233-4.8,1.967-8.7,2.2-11.7
		c0.066,3.333,0.316,9.933,0.75,19.8c0.366,8.134,0.55,14.717,0.55,19.75c0,7.566-0.05,12.117-0.15,13.65
		c-0.3,5.166-1.184,9.6-2.649,13.3c-0.934,0.1-1.867,0.934-2.801,2.5c-0.767,1.333-2,1.8-3.699,1.4
		c-3.301-0.733-5.5-1.634-6.601-2.7c-0.366-0.334-0.666-0.867-0.899-1.601c-0.233-0.8-0.45-1.333-0.65-1.6
		c-0.6-0.767-1.917-1.566-3.95-2.4c-1.5-0.6-2.366-1.767-2.6-3.5c-0.434-2.933-0.517-7.3-0.25-13.1
		c0.267-1.134,0.383-2.684,0.35-4.65c-0.059-0.758-0.092-1.392-0.1-1.899c-0.009,1.359-0.092,3.542-0.25,6.55
		c-0.467,1.866-1.233,2.634-2.3,2.3c-0.101-0.767-0.117-2.083-0.051-3.95c0.067-1.699,0-3.017-0.199-3.949
		c-0.4,0.1-0.733,0.333-1,0.699c-0.301-2.066-0.801-4-1.5-5.8c-2.3-5.833-4.033-11.333-5.2-16.5c-0.267-1.167-0.65-2.6-1.15-4.3
		c-0.033-0.067-0.05-0.133-0.05-0.2l-1.15-3.75c-0.067-0.133-0.117-0.267-0.15-0.4c0.2-0.167,0.4-0.316,0.6-0.45l0.2-0.15
		c1.1-0.867,1.85-1.483,2.25-1.85l2-4.05C32.033,60.483,32.05,60.3,32.05,60.1z M21.8,113.95c-0.133,5,0.217,8.666,1.05,11
		c0.367,4.366,1,7.916,1.9,10.649c0.633,1.867,1.417,3.017,2.35,3.45c1.033,0.467,1.767-0.316,2.2-2.35l0.05-0.25
		c0.133,0.833,0.183,1.899,0.15,3.2c-0.033,0.733-0.1,1.767-0.2,3.1c-0.066,0.9-0.333,1.95-0.8,3.15
		c-0.6,1.466-0.95,2.449-1.05,2.949c-0.233,0.934-0.333,2.117-0.3,3.551c0.033,0.833,0.083,2.05,0.15,3.649
		c0,0.733-0.017,1.5-0.05,2.3c-0.233,0.101-0.533,0.284-0.9,0.551c-0.633,0.433-0.983,0.716-1.05,0.85V146.9
		c0-3.967-0.267-7.351-0.8-10.15c-0.233-1.267-0.933-3.333-2.1-6.2c-1.066-2.566-1.65-4.649-1.75-6.25L20.6,135.65
		c-0.5-3.101-1.184-6.184-2.05-9.25c0.3,3.433,0.983,7.267,2.05,11.5v0.5c-1.333-0.301-2.217-1-2.65-2.101
		c-0.2-0.467-0.417-1.75-0.65-3.85c-0.767-6.733-1.183-14.95-1.25-24.65c0.034-10.967,0-19.2-0.1-24.7
		c0.8,7.334,2.55,16.634,5.25,27.9C21.467,112.066,21.667,113.05,21.8,113.95z"/>
	<path style="fill-rule:evenodd;clip-rule:evenodd;fill:#BFB6AC;" d="M38.45,121.8c0.666,0,1.233,0.033,1.7,0.101
		c0.166,0.033,0.316,0.066,0.449,0.1C39.967,121.9,39.25,121.833,38.45,121.8z M21.3,140.95c0.434,4.566,0.4,8.866-0.1,12.899
		c-1.233-0.166-1.983,0.067-2.25,0.7c-0.1,0.167-0.217,1.066-0.35,2.7c-0.1,2.5-0.434,4.517-1,6.05
		c-0.833,0.101-1.733,0.15-2.7,0.15c-0.133,0-0.267,0-0.4,0c-0.833-2.167-1.467-4.483-1.9-6.95c-0.5-2.8-0.85-6.783-1.05-11.95
		c-0.2-5.7-0.466-9.783-0.8-12.25c-0.633,1.834-0.85,4.55-0.65,8.15c0.1,2,0.267,4.783,0.5,8.35c0,6.566,0.017,10.267,0.05,11.101
		c-0.2-0.7-0.65-1.884-1.35-3.551c-0.633-1.466-1.033-2.699-1.2-3.699c-0.467-2.534-0.75-5.101-0.85-7.7v9.5
		c0.033,0.767,0.2,2.166,0.5,4.2c0.333,2.133,0.517,3.716,0.55,4.75c-1.4,0.1-2.517,0.149-3.35,0.149
		c-1.8,0.033-3.034-0.267-3.7-0.899l0.15,0.1l0.45-0.1c0.633-4.134,0.733-9.601,0.3-16.4c-0.6-9.566-0.9-15.05-0.9-16.45l0.05-9.1
		v-5.2c0.167,0.4,0.333,0.7,0.5,0.9c0.034-0.167,0.067-0.334,0.1-0.5c0.367-2.134,0.55-4.917,0.55-8.351
		c0.033-5.7,0.05-8.666,0.05-8.899c-0.067-2.5-0.1-4.483-0.1-5.95c-0.033-2.634,0.217-4.584,0.75-5.851
		c0.7,3.434,1.133,7.917,1.3,13.45c0.233,8.934,0.35,13.45,0.35,13.55c0.167,2.534,0.483,6.317,0.95,11.351
		c0.467,5.066,0.767,8.85,0.9,11.35c-0.033-1.866-0.05-7.483-0.05-16.85V99.45c-0.033-1.267-0.067-2.316-0.1-3.15
		c-0.033-1.6,0.05-2.684,0.25-3.25c1.3,4.967,2.483,11.884,3.55,20.75c1.267,10.2,2.267,17.167,3,20.9
		c-0.5-19.667-0.283-35.283,0.65-46.851c0.1-1.066,0.316-2.033,0.65-2.899c0.367-1.033,0.816-1.65,1.35-1.851
		c0.7-0.3,1.433,0.134,2.2,1.301c0.833,1.199,1.15,3.35,0.95,6.449c-0.2,3.167,0.033,5.284,0.7,6.351
		c0.633-2.134,0.667-5.233,0.1-9.3c-0.767-4.467-1.25-7.617-1.45-9.45c-0.333-3.567-0.633-5.717-0.9-6.45
		c-0.466-1.367-1.233-2.333-2.3-2.9c-0.667-0.333-1.45-0.517-2.35-0.55c0.833-0.333,1.867-0.55,3.1-0.65
		c0.433-0.033,0.883-0.05,1.35-0.05c0.967-0.033,2.383,0.017,4.25,0.15c0.167,0,0.35,0,0.55,0l0.3,0.55l0.05,0.05
		c-0.1,0.233-0.233,0.45-0.4,0.65l0.45-0.45c0.567,1.167,0.85,2.684,0.85,4.55c0,1.033-0.05,2.6-0.15,4.7
		c0,0.6,0.183,2.05,0.55,4.351c0.3,1.899,0.367,3.35,0.2,4.35c-0.1,0.434-0.317,0.983-0.65,1.65c-0.367,0.666-0.583,1.199-0.65,1.6
		c-0.3,1.6,0.283,3.35,1.75,5.25c1.733,2.267,2.7,3.9,2.9,4.9c0.4,2.033,0.467,5.033,0.2,9c-0.3,4.233-0.333,7.25-0.1,9.05
		c0.066,0.633,0.233,1.616,0.5,2.95v8.3c0,0.366-0.017,0.916-0.05,1.649c-0.033,0.667-0.017,1.217,0.05,1.65
		c0.066,0.533,0.267,1.066,0.6,1.6c0.367,0.601,0.583,1.034,0.65,1.301l0.15,0.8l-0.05,0.25c-0.433,2.033-1.167,2.816-2.2,2.35
		c-0.934-0.434-1.717-1.583-2.35-3.45c-0.9-2.733-1.533-6.283-1.9-10.649c0.433,1.2,0.967,2.217,1.6,3.05
		c0.6-4.134,0.816-9.45,0.65-15.95c-0.333-7.2-0.5-12.533-0.5-16l-2.65,12l-0.15,5.9c-0.133-0.9-0.333-1.884-0.6-2.95
		c-2.7-11.267-4.45-20.566-5.25-27.9c0.1,5.5,0.133,13.733,0.1,24.7c0.067,9.7,0.483,17.917,1.25,24.65
		c0.233,2.1,0.45,3.383,0.65,3.85c0.433,1.101,1.316,1.8,2.65,2.101C20.6,139.4,20.833,140.25,21.3,140.95z M20.6,135.65v2.25
		c-1.067-4.233-1.75-8.067-2.05-11.5C19.417,129.467,20.1,132.55,20.6,135.65z M51.25,1.45c1.134,0.5,2.267,1.183,3.4,2.05
		c0.1,0.1,0.383,0.367,0.85,0.8C53.934,3,52.517,2.05,51.25,1.45z M50.8,3.6c0.267,0.267,0.517,0.633,0.75,1.1
		c0.3,0.667,0.434,1.533,0.4,2.6c-0.066,1.467-0.084,2.333-0.05,2.6c0.366,2.934,0.433,5.7,0.199,8.3c-0.1,1.433-0.05,3.4,0.15,5.9
		c0.233,2.967,0.35,4.95,0.35,5.95c0,1.067-0.183,3.784-0.55,8.15c-0.166,4.1,0.184,6.716,1.05,7.85
		c0.5-0.733,0.784-1.633,0.851-2.7v45.2C53.884,86.017,53.6,82.667,53.1,78.5c-0.666-5.3-1.05-8.85-1.149-10.65V88.4
		c0,0.433-0.066,1.366-0.2,2.8c-0.066,1.366,0.033,2.267,0.3,2.7c0.467,0.833,1.033,1.283,1.7,1.35c0.4,0.033,1.1,0.033,2.1,0
		c0.067,0.6,0.134,1.483,0.2,2.65c0.101,1,0.3,1.833,0.601,2.5c0.767-5.9,1.199-11.684,1.3-17.351c0.066,3.634,0.233,9.134,0.5,16.5
		c0.133,6.5-0.066,11.967-0.601,16.4c-1.433,0.3-3.767,0.3-7,0c-0.533-1.4-0.883-3.334-1.05-5.8c-0.2,0.199-0.366,0.633-0.5,1.3
		c-0.1,0.633-0.267,1.066-0.5,1.3c-0.633-1.267-1.116-3-1.45-5.2c-0.267-2.467-0.5-4.267-0.699-5.399
		c-1.267-7.267-2.167-13.65-2.7-19.15c-0.467-4.433-0.917-10.317-1.351-17.65c-0.533-8.934-0.916-14.833-1.149-17.7
		c0.166-1.667,0.566-4.217,1.2-7.65c0.633-3.367,1.033-5.933,1.199-7.7c0.101-1.267,0.101-3.233,0-5.9
		c-0.1-2.6-0.083-4.55,0.051-5.85c0.233-1.5,0.399-2.65,0.5-3.45c0.199-1.4,0.216-2.65,0.05-3.75c-0.066-0.5-0.483-1.8-1.25-3.9
		c-0.566-1.6-0.733-2.934-0.5-4c0.7-0.233,1.8-0.034,3.3,0.6c1.333,0.567,2.434,0.567,3.3,0C50.134,5.55,50.634,4.733,50.8,3.6z
		 M40.7,46.1l-0.2-2.3c-0.833-6.533-1.366-12.033-1.6-16.5c-0.301-6.4-0.134-11.95,0.5-16.65c0.166,0.3,0.533,0.75,1.1,1.35
		c0.4-0.767,0.616-1.2,0.65-1.3c0.399,2.367,0.55,5.45,0.449,9.25c-0.066,2.133-0.166,5.233-0.3,9.3V45.6
		c-0.2-2.533-0.45-5-0.75-7.4C40.65,39.967,40.7,42.6,40.7,46.1z M47.3,17.35l-1.35,34V91.9c0,0.6,0.149,1.517,0.45,2.75
		c0.267,1.133,0.383,2.033,0.35,2.699c0.566-0.366,1.033-1.883,1.4-4.55c0.3-2.934,0.5-4.733,0.6-5.399c0.8-4.567,1.2-8.567,1.2-12
		c0-12.1-0.384-21.633-1.15-28.6C47.8,37.767,47.3,27.95,47.3,17.35z M31.95,43.8c0.767,0.6,1.367,1.233,1.8,1.9
		c0.367,0.566,0.617,1.3,0.75,2.2c0,0.133,0.05,0.9,0.15,2.3c0.067,0.9,0.05,3.55-0.05,7.95c0,6.934,0.483,13.817,1.45,20.65
		c0.7-0.466,1.334-1.517,1.9-3.15c0.533-1.833,0.883-3.017,1.05-3.55c0.6-2,1.033-3.95,1.3-5.85c-0.233,8.8-0.35,14.417-0.35,16.85
		c0,3.9-0.25,8.233-0.75,13c-1.834-0.466-2.851-2.3-3.05-5.5c0.133-3.633,0.133-6.033,0-7.199c-0.534-4.833-0.967-8.467-1.3-10.9
		c-0.6-4.233-1.35-7.8-2.25-10.7c-0.133-0.6-0.317-1.167-0.55-1.7c0-0.033,0-0.067,0-0.1c-0.066-2.367-0.1-4.183-0.1-5.45V43.8z"/>
	<path style="fill-rule:evenodd;clip-rule:evenodd;fill:#D9D1C5;" d="M16,67.9c-1.233,0.1-2.267,0.317-3.1,0.65
		c0.9,0.034,1.684,0.217,2.35,0.55c1.067,0.566,1.833,1.533,2.3,2.9c0.267,0.733,0.567,2.883,0.9,6.45
		c0.2,1.833,0.683,4.983,1.45,9.45c0.567,4.066,0.533,7.166-0.1,9.3c-0.667-1.066-0.9-3.184-0.7-6.351
		c0.2-3.1-0.117-5.25-0.95-6.449c-0.767-1.167-1.5-1.601-2.2-1.301c-0.534,0.2-0.983,0.817-1.35,1.851
		c-0.333,0.866-0.55,1.833-0.65,2.899c-0.934,11.567-1.15,27.184-0.65,46.851c-0.733-3.733-1.733-10.7-3-20.9
		c-1.066-8.866-2.25-15.783-3.55-20.75c-0.2,0.566-0.283,1.65-0.25,3.25c0.033,0.834,0.067,1.884,0.1,3.15v20.25
		c0,9.366,0.017,14.983,0.05,16.85c-0.133-2.5-0.433-6.283-0.9-11.35c-0.467-5.033-0.783-8.816-0.95-11.351
		c0-0.1-0.117-4.616-0.35-13.55c-0.167-5.533-0.6-10.017-1.3-13.45C2.617,88.116,2.367,90.066,2.4,92.7c0,1.467,0.033,3.45,0.1,5.95
		c0,0.233-0.017,3.199-0.05,8.899c0,3.434-0.184,6.217-0.55,8.351c-0.033,0.166-0.066,0.333-0.1,0.5c-0.167-0.2-0.333-0.5-0.5-0.9
		v5.2c-0.133-0.634-0.25-1.334-0.35-2.101c-0.133-5.199-0.284-8.483-0.45-9.85v-15C0.167,91.583,0,88.983,0,85.95
		c0-2.733,0.033-4.483,0.1-5.25c0.233-2.467,0.783-3.983,1.65-4.55L3.65,76c1.3-2.3,3.317-4.417,6.05-6.35
		C12.433,67.683,14.533,67.1,16,67.9z M31.95,43.8V15.25c-0.1-2.767-0.167-4.85-0.2-6.25c-0.067-2.567,0.033-4.633,0.3-6.2
		c4.5-1.3,7.017-2,7.55-2.1c3-0.7,5.551-0.883,7.65-0.55l2.7,0.7l0.2,0.1c0.166,0.066,0.316,0.133,0.449,0.2
		c0.067,0.033,0.117,0.05,0.15,0.05c0.167,0.9,0.184,1.7,0.05,2.4c-0.166,1.133-0.666,1.95-1.5,2.45c-0.866,0.567-1.967,0.567-3.3,0
		c-1.5-0.633-2.6-0.833-3.3-0.6c-0.233,1.066-0.066,2.4,0.5,4c0.767,2.1,1.184,3.4,1.25,3.9c0.166,1.1,0.149,2.35-0.05,3.75
		c-0.101,0.8-0.267,1.95-0.5,3.45c-0.134,1.3-0.15,3.25-0.051,5.85c0.101,2.667,0.101,4.633,0,5.9
		c-0.166,1.767-0.566,4.333-1.199,7.7c-0.634,3.433-1.034,5.983-1.2,7.65c-0.033,0.533-0.084,1.317-0.15,2.35v-4.4V29.25
		c0.134-4.067,0.233-7.167,0.3-9.3c0.101-3.8-0.05-6.883-0.449-9.25c-0.034,0.1-0.25,0.533-0.65,1.3c-0.566-0.6-0.934-1.05-1.1-1.35
		c-0.634,4.7-0.801,10.25-0.5,16.65c0.233,4.467,0.767,9.967,1.6,16.5l0.2,2.3c0.2,3.033,0.166,7.617-0.101,13.75
		c0.034,2.267-0.066,4.4-0.3,6.4c-0.267,1.9-0.7,3.85-1.3,5.85c-0.167,0.533-0.517,1.717-1.05,3.55c-0.566,1.633-1.2,2.684-1.9,3.15
		c-0.967-6.833-1.45-13.716-1.45-20.65c0.1-4.4,0.117-7.05,0.05-7.95c-0.1-1.4-0.15-2.167-0.15-2.3c-0.133-0.9-0.383-1.633-0.75-2.2
		C33.317,45.033,32.717,44.4,31.95,43.8z M47.3,17.35c0,10.6,0.5,20.417,1.5,29.45c0.767,6.967,1.15,16.5,1.15,28.6
		c0,3.434-0.4,7.433-1.2,12c-0.1,0.666-0.3,2.466-0.6,5.399c-0.367,2.667-0.834,4.184-1.4,4.55c0.033-0.666-0.083-1.566-0.35-2.699
		c-0.301-1.233-0.45-2.15-0.45-2.75V51.35L47.3,17.35z M21.8,113.95l0.15-5.9l2.65-12c0,3.467,0.167,8.8,0.5,16
		c0.167,6.5-0.05,11.816-0.65,15.95c-0.633-0.833-1.167-1.85-1.6-3.05C22.017,122.616,21.667,118.95,21.8,113.95z"/>
</g>
</svg>
