<?xml version="1.0" encoding="iso-8859-1"?>
<!-- Generator: Adobe Illustrator 15.1.0, SVG Export Plug-In . SVG Version: 6.00 Build 0)  -->
<!DOCTYPE svg PUBLIC "-//W3C//DTD SVG 1.1//EN" "http://www.w3.org/Graphics/SVG/1.1/DTD/svg11.dtd">
<svg version="1.1" id="Layer_1" xmlns="http://www.w3.org/2000/svg" xmlns:xlink="http://www.w3.org/1999/xlink" x="0px" y="0px"
	 width="152.6px" height="217.6px" viewBox="0 0 152.6 217.6" style="enable-background:new 0 0 152.6 217.6;" xml:space="preserve"
	>
<g>
	<path style="fill-rule:evenodd;clip-rule:evenodd;fill:#BFB6AC;" d="M134.9,23.9c-5.934,2.9-9.617,11.733-11.051,26.5
		c0.534-0.867,2.917-4.683,7.15-11.45c1.533-2.833,2.667-5.333,3.4-7.5c-0.4,4.633-0.784,8.767-1.15,12.4
		c-0.467,4.7-0.75,7.767-0.85,9.2c0,0.4-0.184,1.284-0.551,2.65c-0.466,1.667-0.966,2.85-1.5,3.55l-0.899,1.4
		c-0.5,0.733-1.066,1.45-1.7,2.15c-2.8,2.8-5.483,5.4-8.05,7.8l-3.101,2.8l-2.25,1.9c-0.633,0.467-1.366,1.1-2.199,1.9
		c-1.834,1.833-2.834,2.816-3,2.95c-0.634,0.867-2.084,2.35-4.351,4.45c-2.133,1.967-3.467,3.117-4,3.45
		c-1.6,1.067-2.616,1.75-3.05,2.05c-0.467,0.367-0.866,1.017-1.2,1.95L96.9,91l-0.2-0.1c-1.367-0.967-3.566-1.767-6.601-2.4
		l-5.6-1.25c1.333-1.667,3.066-3.667,5.2-6c1.733-2.1,3.25-4.567,4.55-7.4c1.4-3.067,2.884-5.133,4.45-6.2
		c2.3-1.633,4.666-4.1,7.1-7.4c5.601-7.633,9.3-14.65,11.101-21.05c0.333-1.2,0.883-4.917,1.649-11.15c0.134-1,0.517-1.75,1.15-2.25
		c0.399-0.267,1.133-0.783,2.2-1.55c2.199-2.167,3.85-7.233,4.949-15.2c-0.033,0.8,0.167,1.483,0.601,2.05
		c0.633,0.867,1.733,1.316,3.3,1.35c-1.8,2.933-3.35,5.8-4.65,8.6c-2.466,5.434-3.533,11.467-3.199,18.1l0.5-1.95
		c1.566-3.567,2.883-6.017,3.949-7.35c0.7-0.833,2.134-2.55,4.301-5.15c0.966,0,1.8-0.684,2.5-2.05c0.5-1.033,0.816-2.2,0.949-3.5
		C135,20.717,134.934,22.3,134.9,23.9z M61.75,198.7c-3.1,4.8-4.817,7.483-5.15,8.05c-0.033,0.033-0.733,1.684-2.1,4.95
		c0,1.533-0.45,2.85-1.35,3.95c-0.867,1.066-1.9,1.616-3.1,1.649H49.9c-0.767,0.2-1.483,0.3-2.15,0.3c-1.133,0-2.55-0.416-4.25-1.25
		c-2.4-1.166-4.817-2.066-7.25-2.699c0.5-0.134,0.767-0.534,0.8-1.2c0.034-0.101,0.434-0.733,1.2-1.9
		c0.233-0.399-0.117-1.583-1.05-3.55c0.2-1.1,0.383-2.95,0.55-5.55c0.133-2.134,0.2-3.601,0.2-4.4l-0.05-3.45c0.233-3,0.367-5,0.4-6
		c0.034-0.933,0-1.899-0.1-2.899l0.7-3.55c1.767-0.4,2.65-0.917,2.65-1.551c0-0.433,0.1-0.666,0.3-0.699
		c0.133-0.034,0.467-0.034,1,0c1.167,0,2.033,0.666,2.6,2c-3.067-0.167-5-0.017-5.8,0.449c-0.3,0.167-0.517,1.117-0.65,2.851
		c-0.6,8.7-0.733,15.767-0.4,21.2c0,2.533,0.133,4.933,0.4,7.199c0.2-0.466,0.333-0.8,0.4-1c0.167-0.333,0.3-0.5,0.4-0.5
		c0-1.133,0.35-3.399,1.05-6.8c0.733-3.633,1.2-7.233,1.4-10.8c0.267-4.767,0.4-7.167,0.4-7.2c0.067-0.366,0.533-0.7,1.4-1
		c0.1,0.101,0.383,0.584,0.85,1.45c0.233,0.467,0.717,0.7,1.45,0.7c0.7,0,1.7-0.816,3-2.45l0.1,0.2c0.033,0.2,0.05,0.5,0.05,0.899
		c0,0.301-0.083,1.25-0.25,2.851c-0.167,1.6-0.25,2.666-0.25,3.2l0.65-0.9c1.233-2.333,2.434-4.783,3.6-7.35
		c1.2-2.667,2.117-4.684,2.75-6.051c-0.233-0.199-0.383-0.333-0.45-0.399c-0.133-0.066-0.4-0.101-0.8-0.101s-0.817,0.067-1.25,0.2
		l-0.55,0.15c1.2-1.467,1.083-2.566-0.35-3.3c-1.7-0.467-2.583-0.7-2.65-0.7c-0.7,0-1.267,0.25-1.7,0.75
		c-0.433,0.533-0.65,1.267-0.65,2.2c0,0.666-0.567,2.083-1.7,4.25c0.3-1.834,0.5-4.817,0.6-8.95l4.2-0.25
		c1.367,0,2.767,0.25,4.2,0.75c2.167,0.767,3.25,1.899,3.25,3.399c0,2.434-0.9,5.717-2.7,9.851c-0.867,2.066-1.767,3.934-2.7,5.6
		c-1.667,4.7-2.7,7.4-3.1,8.101c-1.3,2.033-2.383,4.25-3.25,6.649c-0.967,2.7-1.467,5.101-1.5,7.2l0.6-1.9
		c0.867-3.033,2.117-5.85,3.75-8.449c2.233-3.601,3.45-5.617,3.65-6.051l-2.25,1.75c1.033-1.699,3-4.767,5.9-9.199
		c2.467-4.034,3.917-7.15,4.35-9.351v-3.25c0-1.866-0.4-3.833-1.2-5.899l-1.2-2.551c2.1-0.566,4.267-0.433,6.5,0.4
		c2.433,0.833,3.75,2.2,3.95,4.1v0.2c0,0.033,0,0.084,0,0.15l0.15,3.1c0,3.634-0.733,7.217-2.2,10.75
		C66,189.217,64.283,193.1,61.75,198.7z M85.75,144.75c-0.467,0.6-0.833,1.05-1.1,1.35c-0.5,0.567-1.15,1.117-1.95,1.65l-6.55,5.35
		c-0.634,0.434-1.333,1.051-2.101,1.851c-1.5,1.566-2.8,3.517-3.9,5.85c-0.767,2.267-1.2,3.917-1.3,4.95
		c-7.1-0.634-11.883-1.566-14.35-2.8c-2.267-1.167-4.3-1.8-6.1-1.9c-0.9-0.366-1.667-0.517-2.3-0.45l-0.65,0.2
		c-1.667-1.1-2.917-1.899-3.75-2.399c-1.5-0.9-4.417-1.351-8.75-1.351c-3.9,0.233-6.3,0.334-7.2,0.3c-1.733,0-3.217,0.884-4.45,2.65
		c-1.233,1.767-1.85,3.9-1.85,6.4c-0.967,2.767-2.133,5.866-3.5,9.3c-0.3,0.7-0.45,1.7-0.45,3c0,0.166,0.233,3.1,0.7,8.8
		c0.466,5.667,0.7,9.134,0.7,10.4c0,1.566-0.367,3.283-1.1,5.149c-0.367,0.967-0.867,2.217-1.5,3.75
		c-0.5,2.033-1.517,3.434-3.05,4.2c-1.9,0.6-3.333,1.2-4.3,1.8l0.3,0.05c0.933-0.1,2.967-0.383,6.1-0.85
		c1.267,0,2.083,0.283,2.45,0.85c0.233,0.301,0.483,0.767,0.75,1.4l0.55,0.1c-1.3-0.199-2.3-0.116-3,0.25
		c-2.333,0.801-4.4,1.233-6.2,1.301c-1.933-0.067-3.517-0.117-4.75-0.15c-0.733-0.434-1.267-1.033-1.6-1.8
		c-0.367-0.9-0.5-2.467-0.4-4.7c0.3-7.5,0-13.417-0.9-17.75c0.067-0.333,0.4-1.366,1-3.1c0.633-1.834,1.067-2.983,1.3-3.45
		c0.167,0.1,0.367,0.3,0.6,0.6c0.2,0.2,0.333,0.3,0.4,0.3c0,1.267,0.133,3.917,0.4,7.95c0.333,4.767,0.667,7.783,1,9.05
		c0.033-0.5,0.017-8.35-0.05-23.55c-0.033-5.5,0.833-8.717,2.6-9.649c0.033,0.1,0.183,0.366,0.45,0.8c0.066,0.133,0.1,0.399,0.1,0.8
		c0,0.333,0,0.55,0,0.65l2.95,0.05c0,0.899-0.367,4.116-1.1,9.649c0,1.733-0.033,4-0.1,6.801c0.1,2.1,0.6,3.6,1.5,4.5
		c0.5-9.334,1.117-14.884,1.85-16.65c1.6-3.667,2.4-6.283,2.4-7.85c0-0.801-0.767-1.417-2.3-1.851
		c-1.567-0.434-2.35-0.983-2.35-1.649c0-0.4,0.083-0.7,0.25-0.9c0.133-0.233,0.2-0.384,0.2-0.45c0.733-0.1,1.95-0.2,3.65-0.3
		c1.267-0.066,1.933-0.15,2-0.25l-0.15-1.05c-1.2-0.3-2.934-0.667-5.2-1.101c-2.1-0.399-3.2-0.6-3.3-0.6l-1.1,0.05
		c0.3-0.267,1.167-1.333,2.6-3.2c0.7,0.334,2.833,0.767,6.4,1.301c0.667,0,1.217-0.517,1.65-1.551h-0.65
		c-3.4-1-5.35-1.566-5.85-1.699l0.75-0.851c2.1,1.033,5.35,1.55,9.75,1.55c-2.667-1.666-4.333-2.5-5-2.5
		c-0.367,0.167-0.733,0.284-1.1,0.351c-0.7,0.1-1.816-0.167-3.35-0.8c3.633-0.301,6.65,0.1,9.05,1.199c2.6,1.2,4.4,1.801,5.4,1.801
		c0.133,0,0.483-0.217,1.05-0.65c0.566-0.467,1.1-0.7,1.6-0.7c0.067,0,1.35,0.084,3.85,0.25c2.967,0.334,5.633,1,8,2l0.1-3.899
		c0-1.367-0.05-2.334-0.15-2.9c-0.1,0.3-0.184,0.483-0.25,0.55c-0.133,0.167-0.533-0.25-1.2-1.25
		c0.033-0.533,0.517-2.583,1.45-6.149c0.967-3.601,1.467-5.5,1.5-5.7l-1.05,0.95c-1.9,1.333-3.533,3.816-4.9,7.449
		c-0.7,1.867-1.367,3.767-2,5.7l-0.05-0.1c-0.333-0.867-0.817-1.733-1.45-2.601c-0.333,0.067-0.9,0.351-1.7,0.851
		c-0.767,0.434-1.25,0.649-1.45,0.649c-0.267,0-0.567-0.149-0.9-0.449c-0.4-0.4-0.7-0.7-0.9-0.9c-1.3,0.833-2.017,1.25-2.15,1.25
		c-0.433,0-0.683-0.083-0.75-0.25c-0.033-0.4-0.1-0.8-0.2-1.2c0.533-2.533,1.117-4.633,1.75-6.3c1.367-3.7,2.15-5.866,2.35-6.5
		c-0.2,0.167-2.7,2.717-7.5,7.65L22,142.8c0-0.3,0.333-1.517,1-3.649c0.667-2.034,1.067-3.2,1.2-3.5l-0.95,1
		c-0.967,0.699-1.517,1.083-1.65,1.149c-0.633,0.4-1.167,0.601-1.6,0.601c-0.4,0-0.65-0.2-0.75-0.601l-0.05-0.649
		c-0.2-1.601,1.7-4.367,5.7-8.301l-0.75-0.149c0.967-0.167,2.2-0.4,3.7-0.7c1.1-0.366,2.033-1.184,2.8-2.45
		c0,1.3,0.7,2.417,2.1,3.351c1.367,0.899,3.017,1.35,4.95,1.35c0.6,0.3,4.95,1.9,13.05,4.8c-0.8,1.233-1.5,2.851-2.1,4.851
		c-0.467,1.533-0.7,2.466-0.7,2.8c0,0.666,0.017,2.25,0.05,4.75c1.067-2.733,2.333-5.15,3.8-7.25c1.667-2.367,3.184-3.7,4.55-4
		c-6,4.899-9,10.666-9,17.3c0,0.667,0.05,1.417,0.15,2.25L48,155c0.4-0.833,1.867-4.033,4.4-9.6c2.233-4.9,3.667-7.934,4.3-9.101
		l5.7,0.9l-2.45,4.05l0.55-0.45c0.367-0.233,0.95-0.5,1.75-0.8c-0.633,2.566-1.35,4.917-2.15,7.05c-0.8,2.066-1.233,3.267-1.3,3.601
		l0.6-1.601c0.567-1.967,2.117-4.35,4.65-7.149c2.3-2.567,3.75-3.851,4.35-3.851c0.333,0,2.733,0.783,7.2,2.351
		C80.634,142.2,84.017,143.65,85.75,144.75z M26.5,157.65c3.667,0.6,7.233,1.35,10.7,2.25c5.167,1.3,7.75,2.416,7.75,3.35
		s-0.25,1.533-0.75,1.8c-1.067,0.566-1.684,0.934-1.85,1.101c-0.4,0.399-0.65,1.649-0.75,3.75c-0.133,2.199-0.467,3.649-1,4.35
		c-2.267,2.9-3.65,5.783-4.15,8.65c-0.5,2.866-0.867,10.083-1.1,21.649L34,204.6c-0.233,0-1.633-0.149-4.2-0.449l0.1-0.301
		c-2.1,0-3.383,0.017-3.85,0.051c-0.667,0-0.883,0.25-0.65,0.75c0.733,1,1.55,1.5,2.45,1.5c0.133,0,0.367-0.117,0.7-0.351
		c0.6-0.467,0.934-0.733,1-0.8c1,0.467,1.75,1.066,2.25,1.8c0.4,0.601,0.6,1.2,0.6,1.8c0,0.801-0.15,1.584-0.45,2.351
		c-0.4,0.967-0.983,1.666-1.75,2.1c-3.667,0.066-6.667,0.25-9,0.55c1.133-0.866,1.7-2.566,1.7-5.1
		c-0.333-3.634-0.483-6.417-0.45-8.35c0.066-3.534,1.017-5.301,2.85-5.301c0.867,0,1.934,0.45,3.2,1.351
		c1.233,0.866,1.917,1.3,2.05,1.3c1.034,0,2.067-0.2,3.1-0.6c0.667-0.301,1.15-0.567,1.45-0.801l-0.5-0.8
		c-0.367-0.366-0.95-0.55-1.75-0.55c-2.233,0-4.267-0.217-6.1-0.65c0.767,0.034,1.65,0.017,2.65-0.05
		c1.067-0.066,1.85-0.166,2.35-0.3l-0.45-0.2c-2.3-0.066-3.933-0.35-4.9-0.85c-0.933-0.467-1.65-1.2-2.15-2.2
		c-0.033-0.033-0.05-0.066-0.05-0.1l-0.05-0.15c-0.333-0.7-0.566-1.5-0.7-2.4c-0.133-0.866-0.417-1.716-0.85-2.55
		c-0.767-1.5-1.184-2.316-1.25-2.45c-1.133-2.633-1.783-6.949-1.95-12.949c0.233,0,1.1-0.284,2.6-0.851
		c1.533-0.6,2.45-0.899,2.75-0.899c0.8,0,1.883,0.449,3.25,1.35c0.533,0,1.133-0.65,1.8-1.95c0.934-1.866,1.817-3.233,2.65-4.1
		l0.3,0.149l0.3,0.4c0.1,0.167,0.15,0.467,0.15,0.9c0,2.3-0.017,3.75-0.05,4.35c-0.167,1.733-0.55,3.217-1.15,4.45
		c1.2-0.167,2.3-0.95,3.3-2.351c0.8-1.1,1.233-2.017,1.3-2.75c0.133-1.399,0.983-2.649,2.55-3.75c1.5-1.066,2.25-1.883,2.25-2.449
		c0-0.4-0.017-0.65-0.05-0.75h-0.1c-0.433-0.2-1.517-0.384-3.25-0.551C36,160.866,32.167,159.717,26.5,157.65z M23.95,193.45
		c-2.5-0.634-3.883,0.066-4.15,2.1c-0.167,1.167-0.133,2.917,0.1,5.25c-0.667,5.8-1,8.917-1,9.351c0,0.533,0.1,1.216,0.3,2.05
		c0.167,0.833,0.35,1.399,0.55,1.7l-1.25,0.3l-0.15-3.65c0-0.533,0.117-1.366,0.35-2.5c0.267-1.366,0.5-6.05,0.7-14.05
		c0.3,0.033,0.517-0.066,0.65-0.3c0.067-0.134,0.383-0.884,0.95-2.25l0.75,0.2C22.883,192.483,23.617,193.083,23.95,193.45z
		 M17.95,214.3L17.4,214.4l0.45-0.101H17.95z M3.2,166.8c0.1-0.333,0.4-1.066,0.9-2.2c0.6-1.433,1.017-2.283,1.25-2.55
		C5.45,162.75,4.733,164.333,3.2,166.8z M51.65,86.55c0.267-1.267,0.483-2.75,0.65-4.45c1.3,0.433,2.467,0.65,3.5,0.65
		c4.034,0.6,6.684,1.567,7.95,2.9c0.633,0.7,0.95,1.733,0.95,3.1c0,0.433-0.2,0.883-0.6,1.35c-0.434,0.533-0.717,1.1-0.85,1.7
		c0.567,0.1,1.317,0.567,2.25,1.4c1.133,1,1.767,2,1.9,3c-1,3.9-2.267,8.083-3.8,12.55c-0.267,0.733-2.167,6.066-5.7,16l0.9-0.65
		c3.9-5.833,6.667-11.399,8.3-16.7c0.933-3.133,2.2-7.95,3.8-14.45c1.1,1.5,2.017,4.233,2.75,8.2c0.567,3.3,0.867,6.417,0.9,9.35
		l0.2-1.55c0.467-2.9,0.8-4.784,1-5.65c0.333-1.367,0.95-2.05,1.85-2.05c0.967,0,1.684,0.633,2.15,1.9
		c0.267,0.633,0.467,1.45,0.6,2.45c0.134-0.133,0.233-0.317,0.301-0.55c0.066-0.233,0.1-0.617,0.1-1.15
		c-0.033-1.1-0.066-2.05-0.1-2.85c-0.034-1.566,0.05-2.633,0.25-3.2v21.75l0.1-0.8c0.9-8.733,1.35-15.933,1.35-21.6
		c1.9-0.034,3.051-0.483,3.45-1.35c0.601-1.233,1.15-1.983,1.65-2.25c-2,3.467-3.45,6.267-4.351,8.4
		c-0.466,1.067-0.699,1.783-0.699,2.15l-0.15,8.2c0,0.567-0.184,2.25-0.55,5.051c-0.367,2.899-0.684,5.033-0.95,6.399
		c-0.267,1.367-1.184,3.2-2.75,5.5c-2.2,3.267-3.65,5.584-4.35,6.95c6.4-3.6,10.234-10.233,11.5-19.9
		c0.1-0.966,0.416-4.949,0.949-11.95c0.334-4.667,0.917-8.233,1.75-10.7c0.434,0.233,1.267,1.167,2.5,2.8c1.2,1.633,1.867,2.7,2,3.2
		c1.067-1.067,1.667-1.684,1.801-1.85c0.166-0.267,0.767-1.233,1.8-2.9c0,5.267-0.017,9.617-0.05,13.05
		c-0.034,6.4-0.434,11.083-1.2,14.05l-0.25-17.6c-0.233,2.767-0.617,5.733-1.15,8.899c-0.7,4.4-1.483,7.917-2.35,10.551
		c-0.967,3.1-2.084,5.866-3.351,8.3c-1.666,3.133-3.116,4.7-4.35,4.7c-2.733,0-4.517,0.267-5.35,0.8
		c-0.834,0.533-1.684,0.8-2.55,0.8c-1.067,0-2.55-0.167-4.45-0.5l-1.35-0.4c0.833-0.133,1.617-0.216,2.35-0.25l-7.5-2l-0.6,0.5
		c-2.066-0.633-3.583-1.033-4.55-1.199h-0.8c-0.067-0.301-0.034-0.5,0.1-0.601l-0.35,0.05l-0.45-0.1l0.15-0.15
		c-3.667-0.899-6.1-1.35-7.3-1.35l-1.1,0.05l-10.25-2.25c1.233,0.066,3.1,0.2,5.6,0.4c2.066,0.133,3.433,0.166,4.1,0.1v-3.5
		l-0.1-0.8l-0.65,0.75c-2.4,1.934-3.8,2.967-4.2,3.1l-0.1-1.399c0.333-1.267,1.15-2.584,2.45-3.95v0.35
		c-0.133,0.733-0.267,1.2-0.4,1.4c4.5-0.733,8.466-5.167,11.9-13.3c2.667-6.333,4.55-13.517,5.65-21.55l-0.4,1.25
		c-0.967,5.033-3.333,10.684-7.1,16.95c-2.567,4.2-4.583,7.084-6.05,8.65c0-1.167,0.65-3.95,1.95-8.35
		c1.333-4.5,2.017-6.967,2.05-7.4l-1.35,1.5c-2.934,3.667-5.45,7.017-7.55,10.05c-1.566,2.267-2.433,3.5-2.6,3.7l-0.15-0.75
		c1.434-4.267,2.417-6.884,2.95-7.85c1.033-1.667,2.417-4.267,4.15-7.8l-0.45,0.4c-1.1,1.033-2.05,1.917-2.85,2.65
		c-1.5,1.4-2.9,2.35-4.2,2.85l0.15-0.15c2.1-3.267,4.95-7.35,8.55-12.25c2.533-3.7,3.8-6.533,3.8-8.5c0-0.667-0.167-1-0.5-1
		L51.65,86.55z M72.45,83.25L69.8,82.7c2.7-0.267,5.483-0.05,8.351,0.65c2.966,0.733,4.566,1.083,4.8,1.05l-1.25,2.15l-0.3,0.05
		l-4.5-2c-0.801-0.567-1.717-0.95-2.75-1.15C73.183,83.383,72.617,83.317,72.45,83.25z M56.45,67.55
		c0.633-0.867,1.117-1.667,1.45-2.4c1.7,0.733,3.167,1.1,4.4,1.1c1.3,0,2.6-1.517,3.9-4.55c1.333-3.034,2.383-4.55,3.15-4.55
		c0.667,0,0.983,0.033,0.95,0.1c0.034,0.8,0.167,1.817,0.4,3.05c0.267,1.567,0.566,2.617,0.9,3.15c-0.7-3.567-0.45-6.934,0.75-10.1
		c0.6-1.633,1.333-3.017,2.2-4.15c2.733-4.3,4.95-8.2,6.65-11.7c1.166-2.233,3.6-5.2,7.3-8.9c3-3.8,4.2-8.3,3.6-13.5l-0.75-0.05
		c0.601,2.267-0.916,5.567-4.55,9.9c-3.033,3.6-5.283,5.767-6.75,6.5v-0.3c-0.2-2.533-0.467-4.183-0.8-4.95l-0.8,1.2
		c0.2-1.167,0.399-1.983,0.6-2.45c0.5-1.233,1.617-3.05,3.351-5.45c2.466-3.4,4.216-5.167,5.25-5.3c0.733-0.1,2.216,0.2,4.449,0.9
		l4.15,0.4c-2.4,5.1-5,10.067-7.8,14.9c-3.267,4.3-5.767,7.667-7.5,10.1c-3.134,4.4-5.067,9.283-5.8,14.65
		c-0.133,0.867,0.35,0.417,1.45-1.35c1.534-2.466,2.601-3.966,3.2-4.5c0.8-0.7,1.95-2.25,3.45-4.65c0.9-1.5,2.967-4.617,6.2-9.35
		c3.8-5.566,6.566-9.35,8.3-11.35L97.4,25.4c-0.5,1.5-1.617,3.8-3.351,6.9c-1.566,2.8-2.483,4.833-2.75,6.1l0.45-0.45
		c0.733-0.867,2.4-3.4,5-7.6c2.233-3.567,3.833-5.7,4.8-6.4c2.5-1.8,4.434-4.367,5.8-7.7c3.167-7.733,4.834-11.767,5-12.1L112.3,4.8
		c-0.033,0.434-0.633,2.867-1.8,7.3c-1.167,4.433-1.783,6.9-1.85,7.4c1.899-2.033,3.866-5.317,5.899-9.85c1.634-3.7,2.7-6.7,3.2-9
		c0.1,0.033,0.2,0.083,0.3,0.15c0.467,0.167,1,0.383,1.601,0.65c0.767,0.333,1.416,0.617,1.949,0.85l-7,20.1
		c-0.267,0.233-1.483,1.05-3.649,2.45c-1.334,0.9-2.65,2.133-3.95,3.7c-0.833,1.2-1.75,3.117-2.75,5.75
		c-1.066,2.867-1.5,4.817-1.3,5.85c-0.767,1.5-1.267,2.417-1.5,2.75c-1.467,1.867-4.783,4.55-9.95,8.05
		c-2.3,0.867-4.467,3.183-6.5,6.95c-1.866,3.367-3.417,5.05-4.65,5.05c-0.8,0-1.866-0.067-3.199-0.2c-1.7-0.167-2.917-0.4-3.65-0.7
		c-0.267-1.566-0.5-3.233-0.7-5l-0.15,0.4c-0.267,0.733-0.4,1.733-0.4,3c0,1.6,0.833,3.65,2.5,6.15c1.7,2.6,3.283,4.017,4.75,4.25
		c-1.134,0.3-2.467,0.45-4,0.45c-0.533,1.9-1.267,3.983-2.2,6.25c-0.767,1.967-1.2,2.95-1.3,2.95c-3.433-0.2-6.483-0.283-9.15-0.25
		c2-3.4,4.117-6.417,6.35-9.05c1.466-1.733,2.2-2.9,2.2-3.5c0-0.9-0.367-1.35-1.1-1.35c-0.933,0-1.466-0.55-1.6-1.65
		c-0.1-0.7-0.233-2.133-0.4-4.3c-0.033,0.033-0.367,0.45-1,1.25c-0.167,0.233-0.283,0.367-0.35,0.4c0.133,3.233-0.333,5.1-1.4,5.6
		c-1.933,0.067-3.7,0.133-5.3,0.2l1.55,0.2c1.367,0.267,2.1,0.617,2.2,1.05c0.333,1.167,0,2.217-1,3.15
		c-0.8,0.733-1.45,1.1-1.95,1.1c-0.9,0-1.55-0.567-1.95-1.7c-0.2-0.6-0.417-1.45-0.65-2.55c-0.833,0.433-1.534,0.65-2.1,0.65
		L56.45,67.55z M59.875,52.825c-0.081,0.263-0.089,0.538-0.025,0.825c0.1,0.4,0.15,0.667,0.15,0.8l0.3,0.15
		c0.3,0.1,0.65,0.15,1.05,0.15c1.367,0,3-1.433,4.9-4.3c2.367-3.567,4.7-8.784,7-15.65c0.067-0.066,0.15-0.133,0.25-0.2
		c1.167-0.833,1.967-1.517,2.4-2.05c0.2,0.167,0.667,0.317,1.4,0.45c0.767,0.167,1.467,0.267,2.101,0.3
		c-3.734,6.567-6.267,12.05-7.601,16.45c-0.767,2.567-1.517,4.033-2.25,4.4c-2.267,1.2-3.65,3.367-4.15,6.5
		c-0.233,1.5-0.433,2.45-0.6,2.85c-0.333,0.767-0.966,1.15-1.9,1.15c-0.6,0-2.183-0.15-4.75-0.45c0.033-0.067,0-1.284-0.1-3.65
		C58.017,58.856,58.625,56.281,59.875,52.825z M68.3,38.15c-3.966,4.6-6.017,6.983-6.15,7.15c0.4-1.033,1.4-2.4,3-4.1
		C66.383,39.833,67.433,38.817,68.3,38.15z M83.15,84.2c-2.067-1.333-4.351-2.317-6.851-2.95l-4.05-0.7c0.2-0.1,1.167-0.933,2.9-2.5
		c1.5-1.3,2.617-1.983,3.35-2.05c-0.566,2.8-0.9,4.583-1,5.35l0.55-0.2c2.7-2.733,5.45-6.25,8.25-10.55
		c1.767-2.7,5.05-7.95,9.851-15.75l-12.75,15l-2.051,0.6c1.334-1.367,3.551-4.467,6.65-9.3c3.4-4.733,7.083-8.35,11.05-10.85
		c3.934-2.466,6.8-5.716,8.601-9.75c0.466-1.066,1.05-2.566,1.75-4.5c0.666-1.633,1.333-2.867,2-3.7
		c-0.067,4.867-0.551,8.65-1.45,11.35c-0.934,2.1-1.517,3.65-1.75,4.65c-4.4,6.767-7.834,12.033-10.3,15.8
		c-4.567,6.934-7.267,11.317-8.101,13.15c0.8-1.133,1.983-2.733,3.55-4.8c-2.6,4.067-4.633,6.75-6.1,8.05
		C84.616,82.85,83.25,84.067,83.15,84.2z M112.5,54.5c-1.033,1.367-2.75,3.083-5.15,5.15c-2.366,2.067-4.25,4.033-5.649,5.9
		c-2.101,3.1-3.917,5.767-5.45,8c-2.9,4.233-6.066,8.4-9.5,12.5c1,0.5,3.517,1.167,7.55,2c0.467,0,0.934-0.1,1.4-0.3
		c0.434-0.167,0.717-0.333,0.85-0.5c-1.1-1.1-1.649-1.783-1.649-2.05c0-0.633,0.916-1.95,2.75-3.95c2.166-2.367,3.449-3.9,3.85-4.6
		l0.2,0.65c0,0.767-0.867,2.45-2.601,5.05L99.45,82c3.133-2.133,5.316-4.7,6.55-7.7c1.7-4.1,4-7.8,6.9-11.1
		c1.066-1.2,2.066-3.684,3-7.45c0.5-1.933,0.983-4.017,1.449-6.25c0.233-0.6,1.184-2.75,2.851-6.45c1.5-4.867,2.066-11.033,1.7-18.5
		C119.333,39.517,116.2,49.5,112.5,54.5z M58.1,81.85l1.45,0.4l-2.1,0.1L58.1,81.85z M63.5,81.95c-3.267-0.067-5.033-0.133-5.3-0.2
		c0.933-0.6,1.783-0.9,2.55-0.9C61.417,80.85,62.333,81.217,63.5,81.95z M68,95.05c0-0.6,0.25-1.117,0.75-1.55s1.1-0.65,1.8-0.65
		C70.083,93.483,69.567,94,69,94.4C68.467,94.733,68.133,94.95,68,95.05z M69.2,137.75l-0.4,0.15l0.75-0.301L69.2,137.75z
		 M8.35,194.25c-0.333,1.233-0.5,2.1-0.5,2.6c0,1.434,0.35,2.351,1.05,2.75c0.767-1.166,1.15-2.399,1.15-3.699
		c-0.1-2.034-0.15-3.884-0.15-5.551l-0.6,1.2C9,192.15,8.683,193.05,8.35,194.25z M56.95,168.4c0,0.033-0.117,0.199-0.35,0.5
		c-0.067,0.1-0.1,0.35-0.1,0.75c0,0.633,0.183,1.216,0.55,1.75c0.733,1,1.167,1.616,1.3,1.85c-2.1-1.533-3.15-2.833-3.15-3.9
		c0-0.399,0.033-0.6,0.1-0.6c0.034,0,0.067,0.05,0.1,0.15C55.667,168.733,56.183,168.566,56.95,168.4z M56.95,197.95
		c0.667-0.767,1.483-1.634,2.45-2.601c1.167-1.533,1.667-5.85,1.5-12.949c-0.667,1.767-2.217,4.6-4.65,8.5
		c-1.667,2.6-2.95,6.666-3.85,12.199c0.067,0.801,0.367,1.051,0.9,0.75C54.467,201.384,55.683,199.417,56.95,197.95z M86.4,113.25
		l0.8-1.05c1.333-2.601,2.25-4.617,2.75-6.05c0.899-2.467,1.05-4.9,0.45-7.3c-1.601,3.033-2.717,6.283-3.351,9.75
		C86.717,110.366,86.5,111.917,86.4,113.25z"/>
	<path style="fill-rule:evenodd;clip-rule:evenodd;fill:#A79E94;" d="M102.95,40.15c0.566-1.167,1.283-2.667,2.149-4.5
		c7.334-6.167,11.75-10.433,13.25-12.8c2.4-3.833,4.017-10.434,4.851-19.8c1.2,1.367,1.899,2.284,2.1,2.75l1.55,3.25
		c-1.1,7.967-2.75,13.034-4.949,15.2c-1.067,0.767-1.801,1.283-2.2,1.55c-0.634,0.5-1.017,1.25-1.15,2.25
		c-0.767,6.233-1.316,9.95-1.649,11.15c-1.801,6.4-5.5,13.417-11.101,21.05c-2.434,3.3-4.8,5.767-7.1,7.4
		c-1.566,1.067-3.05,3.133-4.45,6.2c-1.3,2.833-2.816,5.3-4.55,7.4c-2.134,2.333-3.867,4.333-5.2,6c-0.267,0.367-0.4,0.217-0.4-0.45
		c0-0.333,0.483-0.95,1.45-1.85c1.467-1.367,2.767-2.767,3.9-4.2l0.399-0.7l0.25-0.75c-2.5,2.567-4.183,4.233-5.05,5
		c-1.133,0.967-2.25,1.717-3.35,2.25l1.25-2.15l0.2-0.2c0.1-0.133,1.466-1.35,4.1-3.65c1.467-1.3,3.5-3.983,6.1-8.05
		c-1.566,2.067-2.75,3.667-3.55,4.8c0.834-1.833,3.533-6.216,8.101-13.15c2.466-3.767,5.899-9.033,10.3-15.8
		c0.233-1,0.816-2.55,1.75-4.65c0.899-2.7,1.383-6.483,1.45-11.35c-0.667,0.833-1.334,2.066-2,3.7c-0.7,1.934-1.284,3.434-1.75,4.5
		c-1.801,4.034-4.667,7.284-8.601,9.75C95.083,52.8,91.4,56.417,88,61.15c-3.1,4.833-5.316,7.934-6.65,9.3l-1.85,0.4
		c-1.467-0.233-3.05-1.65-4.75-4.25c-1.667-2.5-2.5-4.55-2.5-6.15c0-1.267,0.133-2.267,0.4-3l0.15-0.4c0.2,1.767,0.434,3.434,0.7,5
		l-0.5,0.1c0.167,0.8,0.783,1.483,1.85,2.05c0.967,0.5,1.883,0.75,2.75,0.75c2.5,0,4.767-0.733,6.801-2.2
		c1.833-1.333,3.733-3.467,5.699-6.4c0.334-0.5,2.184-1.983,5.551-4.45c3.5-2.566,6.033-4.25,7.6-5.05l-11.75,4.1
		c5.167-3.5,8.483-6.184,9.95-8.05C101.684,42.567,102.184,41.65,102.95,40.15z M132.65,12.45c0.3,0.667,0.449,1.517,0.449,2.55
		c0,1.667-0.3,3.5-0.899,5.5c-0.601,2-0.9,3.15-0.9,3.45c0,0.466,0.017,0.733,0.05,0.8c0.034,0.033,0.134,0.017,0.301-0.05
		c-2.167,2.6-3.601,4.316-4.301,5.15c-1.066,1.333-2.383,3.783-3.949,7.35l-0.5,1.95c-0.334-6.633,0.733-12.667,3.199-18.1
		c1.301-2.8,2.851-5.667,4.65-8.6H132.65z M33.75,213.25l-3.55-0.2c0.767-0.434,1.35-1.133,1.75-2.1c0.3-0.767,0.45-1.55,0.45-2.351
		c0-0.6-0.2-1.199-0.6-1.8c-0.5-0.733-1.25-1.333-2.25-1.8l0.25-0.85c2.567,0.3,3.967,0.449,4.2,0.449l1.35-0.05
		c0.233-11.566,0.6-18.783,1.1-21.649c0.5-2.867,1.883-5.75,4.15-8.65c0.533-0.7,0.867-2.15,1-4.35c0.1-2.101,0.35-3.351,0.75-3.75
		c0.167-0.167,0.783-0.534,1.85-1.101c0.5-0.267,0.75-0.866,0.75-1.8s-2.583-2.05-7.75-3.35c-3.467-0.9-7.034-1.65-10.7-2.25
		l-0.75-0.301c0.9,0.034,3.3-0.066,7.2-0.3c4.333,0,7.25,0.45,8.75,1.351c0.833,0.5,2.083,1.3,3.75,2.399l-0.55,0.4
		c0.8,0.866,1.267,1.416,1.4,1.649c0.733,0.967,1.1,1.817,1.1,2.551c0,1.8-0.433,3.233-1.3,4.3c-1.667,2.1-2.75,3.616-3.25,4.55
		c-1.167,0.833-2.017,1.75-2.55,2.75c-0.233,0.434-0.65,1.5-1.25,3.2c-1.466,2.267-2.25,5.934-2.35,11
		c-0.167,6.8-0.267,10.3-0.3,10.5c-0.5,2.666-0.867,4.5-1.1,5.5C35.1,208,34.583,210.017,33.75,213.25z M37.9,193.6
		c0-3.466,0.1-6.433,0.3-8.899c0.1,1,0.133,1.967,0.1,2.899C38.267,188.6,38.133,190.6,37.9,193.6z M14.1,214.6
		c-0.833,0.767-2.3,1.301-4.4,1.601c-1.7,0.267-3.383,0.316-5.05,0.149l-0.9-0.25L3,215.75c0.067,0,0.117,0,0.15,0
		c1.233,0.033,2.817,0.083,4.75,0.15C9.7,215.833,11.767,215.4,14.1,214.6z M17.95,214.3h-0.1c0.5-4.3,0.75-6.783,0.75-7.45
		c0-0.399-0.167-1.066-0.5-2l-0.5-1.3c-0.067,0.2-0.233,1.7-0.5,4.5c-0.333,2.967-0.517,5.033-0.55,6.2
		c-0.267-0.634-0.517-1.1-0.75-1.4c-0.367-0.566-1.183-0.85-2.45-0.85c-3.133,0.467-5.167,0.75-6.1,0.85l-0.3-0.05
		c0.966-0.6,2.4-1.2,4.3-1.8c1.533-0.767,2.55-2.167,3.05-4.2c0.633-1.533,1.133-2.783,1.5-3.75c0.733-1.866,1.1-3.583,1.1-5.149
		c0-1.267-0.233-4.733-0.7-10.4c-0.467-5.7-0.7-8.634-0.7-8.8c0-1.3,0.15-2.3,0.45-3c1.367-3.434,2.533-6.533,3.5-9.3l-0.05,3.5
		c0.167,6,0.817,10.316,1.95,12.949c0.066,0.134,0.483,0.95,1.25,2.45c0.433,0.834,0.717,1.684,0.85,2.55
		c0.133,0.9,0.367,1.7,0.7,2.4c-0.733-1.434-1.333-2.684-1.8-3.75c-0.967-2.1-2.117-4.934-3.45-8.5v-3
		c-0.967,1.4-1.45,5.35-1.45,11.85c0,1,0.066,2.184,0.2,3.551c0.133-0.167,0.434-0.733,0.9-1.7c0.367-0.733,0.684-1.101,0.95-1.101
		c0.533,0,1.217,0.334,2.05,1c1.2,0.967,1.983,1.551,2.35,1.75l0.35,0.15c0.5,1,1.217,1.733,2.15,2.2c0.967,0.5,2.6,0.783,4.9,0.85
		l0.45,0.2c-0.5,0.134-1.283,0.233-2.35,0.3c-1,0.066-1.883,0.084-2.65,0.05l-2.8-0.649c-0.333-0.367-1.067-0.967-2.2-1.8l-0.75-0.2
		c-0.567,1.366-0.883,2.116-0.95,2.25c-0.133,0.233-0.35,0.333-0.65,0.3c-0.2,8-0.433,12.684-0.7,14.05
		c-0.233,1.134-0.35,1.967-0.35,2.5l0.15,3.65L17.95,214.3z M12.45,152.9c1.533,0.633,2.65,0.899,3.35,0.8
		c0.367-0.066,0.733-0.184,1.1-0.351c0.667,0,2.333,0.834,5,2.5c-4.4,0-7.65-0.517-9.75-1.55l0.25-1.1
		C12.419,153.106,12.436,153.006,12.45,152.9z M118.05,0.8c0-0.133-0.017-0.267-0.05-0.4l3.7,1.55L121.6,2.3
		c-0.533-0.233-1.183-0.517-1.949-0.85C119.05,1.183,118.517,0.967,118.05,0.8z M78.45,27.4l0.8-1.2c0.333,0.767,0.6,2.417,0.8,4.95
		v0.3c1.467-0.733,3.717-2.9,6.75-6.5c3.634-4.333,5.15-7.633,4.55-9.9l0.75,0.05c0.601,5.2-0.6,9.7-3.6,13.5
		c-3.7,3.7-6.134,6.667-7.3,8.9c-1.7,3.5-3.917,7.4-6.65,11.7c-0.867,1.133-1.6,2.517-2.2,4.15c-1.2,3.167-1.45,6.533-0.75,10.1
		c-0.333-0.534-0.633-1.583-0.9-3.15c-0.233-1.233-0.367-2.25-0.4-3.05c0.034-0.067-0.283-0.1-0.95-0.1
		c-0.767,0-1.817,1.517-3.15,4.55c-1.3,3.033-2.6,4.55-3.9,4.55c-1.233,0-2.7-0.367-4.4-1.1l0.25-0.95
		c2.567,0.3,4.15,0.45,4.75,0.45c0.934,0,1.567-0.383,1.9-1.15c0.167-0.4,0.367-1.35,0.6-2.85c0.5-3.133,1.883-5.3,4.15-6.5
		c0.733-0.367,1.483-1.833,2.25-4.4c1.333-4.4,3.867-9.883,7.601-16.45c-0.634-0.033-1.334-0.133-2.101-0.3
		c-0.733-0.133-1.2-0.283-1.4-0.45h-0.05l0.1-0.1c0.066-0.133,0.133-0.25,0.2-0.35c0.5-0.467,1-1.3,1.5-2.5
		C77.884,28.967,78.15,28.233,78.45,27.4z M96.55,92.05l-0.2,0.5l-0.399,2.4c-1.033,1.667-1.634,2.633-1.8,2.9
		c-0.134,0.167-0.733,0.783-1.801,1.85c-0.133-0.5-0.8-1.567-2-3.2c-1.233-1.633-2.066-2.567-2.5-2.8l1.101-2.5l3.2-0.05
		c2.3-0.033,3.816-0.117,4.55-0.25l0.2,0.1L96.55,92.05z M114.6,22.4c-0.866,1.567-2.366,3.05-4.5,4.45c-1.5,1-2.533,1.566-3.1,1.7
		c1.3-1.566,2.616-2.8,3.95-3.7C113.116,23.45,114.333,22.633,114.6,22.4z M104,56.65c-2.033,2.267-3.767,4.45-5.2,6.55l-0.55,1.05
		c2.767-1.1,4.333-1.85,4.7-2.25c1.133-1.2,2.583-4.417,4.35-9.65C106.767,53.383,105.667,54.817,104,56.65z M76.9,84.6l4.5,2
		c-0.467-0.033-1.15-0.217-2.051-0.55C78.283,85.617,77.467,85.133,76.9,84.6z M72.45,83.25L60.2,83.2
		c3.466,0.6,5.75,1.083,6.85,1.45c1,0.3,3.867,1.2,8.6,2.7c0.8,0.233,1.3,0.633,1.5,1.2c0.3,0.9,0.5,1.4,0.6,1.5
		c1.233,1.467,2.05,2.667,2.45,3.6c0.866,2.033,1.233,4.867,1.1,8.5c0.167-0.3,0.2-1.15,0.101-2.55c-0.101-1.633-0.084-2.9,0.05-3.8
		c0.566-3.267,3.05-4.8,7.45-4.6l-1.45,2.4c-0.5,0.267-1.05,1.017-1.65,2.25c-0.399,0.867-1.55,1.316-3.45,1.35
		c0,5.667-0.449,12.866-1.35,21.6l-0.1,0.8V97.85c-0.2,0.566-0.284,1.633-0.25,3.2c0.033,0.8,0.066,1.75,0.1,2.85
		c0,0.533-0.033,0.917-0.1,1.15c-0.067,0.233-0.167,0.417-0.301,0.55c-0.133-1-0.333-1.817-0.6-2.45
		c-0.467-1.267-1.184-1.9-2.15-1.9c-0.899,0-1.517,0.683-1.85,2.05c-0.2,0.867-0.533,2.75-1,5.65l-0.2,1.55
		c-0.033-2.933-0.333-6.05-0.9-9.35c-0.733-3.967-1.65-6.7-2.75-8.2c0.233-0.567,0.467-1.167,0.7-1.8l-1.05,1.7
		c-0.7,0-1.3,0.217-1.8,0.65S68,94.45,68,95.05l-0.6,1.15c-0.133-1-0.767-2-1.9-3c-0.933-0.833-1.683-1.3-2.25-1.4
		c0.133-0.6,0.417-1.167,0.85-1.7c0.4-0.467,0.6-0.917,0.6-1.35c0-1.367-0.317-2.4-0.95-3.1c-1.267-1.333-3.917-2.3-7.95-2.9
		c0.6-0.033,1.15-0.167,1.65-0.4l2.1-0.1l-1.45-0.4l0.1-0.1c0.267,0.067,2.033,0.133,5.3,0.2c1.6,0.433,3.7,0.683,6.3,0.75
		L72.45,83.25z M39.25,130.3l10.25,2.25l-0.25,0.05c1.5,0.733,2.5,1.301,3,1.7c0.4,0.334,0.6,0.667,0.6,1
		c0,0.101-0.434,1.134-1.3,3.101l-0.1,0.25c1.3-0.7,2.35-1.367,3.15-2c0.5-0.434,1.55-1.317,3.15-2.65l0.45,0.1l-1.05,1.5
		l-0.8,0.601c-1.367,0.3-2.883,1.633-4.55,4c-1.466,2.1-2.733,4.517-3.8,7.25c-0.033-2.5-0.05-4.084-0.05-4.75
		c0-0.334,0.233-1.267,0.7-2.8c0.6-2,1.3-3.617,2.1-4.851c-8.1-2.899-12.45-4.5-13.05-4.8L39.25,130.3z M58.45,134.65h0.8
		c0.967,0.166,2.483,0.566,4.55,1.199l-1.4,1.351l-5.7-0.9l0.45-0.7L58.45,134.65z M69.2,137.75l0.35-0.15l1.35,0.4L69.2,137.75z
		 M58.5,168.35l-0.6-1l-0.95,1.051c-0.767,0.166-1.284,0.333-1.55,0.5c-0.033-0.101-0.066-0.15-0.1-0.15c-0.066,0-0.1,0.2-0.1,0.6
		c0,1.067,1.05,2.367,3.15,3.9c0.233,0.366,0.65,0.983,1.25,1.85c0.533,1.067,0.967,2.717,1.3,4.95
		c-0.433,2.2-1.883,5.316-4.35,9.351c-2.9,4.433-4.867,7.5-5.9,9.199l2.25-1.75c-0.2,0.434-1.417,2.45-3.65,6.051
		c-1.633,2.6-2.883,5.416-3.75,8.449l-0.6,1.9c0.033-2.1,0.533-4.5,1.5-7.2c0.867-2.399,1.95-4.616,3.25-6.649
		c0.4-0.7,1.434-3.4,3.1-8.101c0.933-1.666,1.833-3.533,2.7-5.6c1.8-4.134,2.7-7.417,2.7-9.851c0-1.5-1.083-2.633-3.25-3.399
		c-1.433-0.5-2.833-0.75-4.2-0.75l-4.2,0.25c-0.1,4.133-0.3,7.116-0.6,8.95h-0.45c-0.567-1.334-1.434-2-2.6-2
		c-0.533-0.034-0.867-0.034-1,0c-0.2,0.033-0.3,0.267-0.3,0.699c0,0.634-0.883,1.15-2.65,1.551l0.15-0.95
		c0.467-0.434,1.133-1.316,2-2.65c0.934-1.434,1.534-2.533,1.8-3.3c0.6-0.267,1.533-1.1,2.8-2.5c1.033-1.167,1.95-2.283,2.75-3.35
		c0.434-0.567,1.483-1.184,3.15-1.851c0.833-0.333,1.733-0.684,2.7-1.05c-1.233-1.866-3.183-3.35-5.85-4.45
		c1.8,0.101,3.833,0.733,6.1,1.9c2.467,1.233,7.25,2.166,14.35,2.8L68.8,168c0,1.5,0.05,2.967,0.15,4.4v0.449
		c-0.2-1.899-1.517-3.267-3.95-4.1C62.767,167.917,60.6,167.783,58.5,168.35z M37.05,212.45c-0.1-0.9-0.15-1.684-0.15-2.351l0.3-3.1
		c0.933,1.967,1.283,3.15,1.05,3.55C37.483,211.717,37.083,212.35,37.05,212.45z M61.45,166.1c-0.833-0.199-1.534-0.3-2.1-0.3
		c-0.4,0-0.684,0.033-0.85,0.101c-0.167,0.133-0.367,0.233-0.6,0.3c0.667,0.3,1.9,0.633,3.7,1c2.333,0.5,4.667,0.833,7,1
		C65,167.1,62.617,166.4,61.45,166.1z"/>
	<path style="fill-rule:evenodd;clip-rule:evenodd;fill:#7B756E;" d="M131.65,24.7c-0.167,0.066-0.267,0.083-0.301,0.05
		c-0.033-0.067-0.05-0.333-0.05-0.8c0-0.3,0.3-1.45,0.9-3.45c0.6-2,0.899-3.833,0.899-5.5c0-1.033-0.149-1.883-0.449-2.55
		c1.866,0.933,2.699,2.683,2.5,5.25c0,0.5-0.017,0.983-0.051,1.45c-0.133,1.3-0.449,2.467-0.949,3.5
		C133.45,24.017,132.616,24.7,131.65,24.7z M37.9,193.6l0.05,3.45c0,0.8-0.067,2.267-0.2,4.4c-0.167,2.6-0.35,4.45-0.55,5.55
		l-0.3,3.1c0,0.667,0.05,1.45,0.15,2.351c-0.033,0.666-0.3,1.066-0.8,1.2l-2.5-0.4c0.833-3.233,1.35-5.25,1.55-6.05
		c0.233-1,0.6-2.834,1.1-5.5c0.033-0.2,0.133-3.7,0.3-10.5c0.1-5.066,0.883-8.733,2.35-11c0.6-1.7,1.017-2.767,1.25-3.2
		c0.534-1,1.383-1.917,2.55-2.75c0.5-0.934,1.583-2.45,3.25-4.55c0.867-1.066,1.3-2.5,1.3-4.3c0-0.733-0.367-1.584-1.1-2.551
		c-0.133-0.233-0.6-0.783-1.4-1.649l0.55-0.4l0.65-0.2c0.633-0.066,1.4,0.084,2.3,0.45c2.667,1.101,4.617,2.584,5.85,4.45
		c-0.967,0.366-1.867,0.717-2.7,1.05c-1.667,0.667-2.716,1.283-3.15,1.851c-0.8,1.066-1.717,2.183-2.75,3.35
		c-1.267,1.4-2.2,2.233-2.8,2.5c-0.267,0.767-0.867,1.866-1.8,3.3c-0.867,1.334-1.533,2.217-2,2.65l-0.15,0.95l-0.7,3.55
		C38,187.167,37.9,190.134,37.9,193.6z M17.85,214.3L17.4,214.4l-0.3-0.051l-0.55-0.1c0.034-1.167,0.217-3.233,0.55-6.2
		c0.267-2.8,0.433-4.3,0.5-4.5l0.5,1.3c0.333,0.934,0.5,1.601,0.5,2C18.6,207.517,18.35,210,17.85,214.3z M123.2,3.05
		c-0.834,9.367-2.45,15.967-4.851,19.8c-1.5,2.367-5.916,6.633-13.25,12.8c-0.866,1.833-1.583,3.333-2.149,4.5
		c-0.2-1.033,0.233-2.983,1.3-5.85c1-2.633,1.917-4.55,2.75-5.75c0.566-0.133,1.6-0.7,3.1-1.7c2.134-1.4,3.634-2.883,4.5-4.45
		l7-20.1l0.101-0.35L123.2,3.05z M84.5,87.25l5.6,1.25c3.034,0.633,5.233,1.433,6.601,2.4c-0.733,0.133-2.25,0.217-4.55,0.25
		l-3.2,0.05l0.45-0.85l-0.5,0.85c-4.4-0.2-6.884,1.333-7.45,4.6c-0.134,0.9-0.15,2.167-0.05,3.8c0.1,1.4,0.066,2.25-0.101,2.55
		c0.134-3.633-0.233-6.467-1.1-8.5c-0.4-0.933-1.217-2.133-2.45-3.6c-0.1-0.1-0.3-0.6-0.6-1.5c-0.2-0.566-0.7-0.966-1.5-1.2
		c-4.733-1.5-7.6-2.4-8.6-2.7c-1.1-0.367-3.383-0.85-6.85-1.45l12.25,0.05c0.167,0.067,0.733,0.133,1.7,0.2
		c1.033,0.2,1.95,0.583,2.75,1.15c0.566,0.533,1.383,1.017,2.449,1.45c0.9,0.333,1.584,0.517,2.051,0.55l0.3-0.05
		c1.1-0.533,2.217-1.283,3.35-2.25c0.867-0.767,2.55-2.433,5.05-5l-0.25,0.75l-0.399,0.7c-1.134,1.433-2.434,2.833-3.9,4.2
		c-0.967,0.9-1.45,1.517-1.45,1.85C84.1,87.467,84.233,87.617,84.5,87.25z M91.5,50.95l11.75-4.1c-1.566,0.8-4.1,2.483-7.6,5.05
		c-3.367,2.467-5.217,3.95-5.551,4.45c-1.966,2.933-3.866,5.066-5.699,6.4c-2.034,1.467-4.301,2.2-6.801,2.2
		c-0.866,0-1.783-0.25-2.75-0.75c-1.067-0.567-1.684-1.25-1.85-2.05l0.5-0.1c0.733,0.3,1.95,0.534,3.65,0.7
		c1.333,0.133,2.399,0.2,3.199,0.2c1.233,0,2.784-1.684,4.65-5.05C87.033,54.133,89.2,51.817,91.5,50.95z M104,56.65
		c1.667-1.833,2.767-3.267,3.3-4.3c-1.767,5.233-3.217,8.45-4.35,9.65c-0.367,0.4-1.934,1.15-4.7,2.25l0.55-1.05
		C100.233,61.1,101.967,58.917,104,56.65z M57.75,134c-1.6,1.333-2.65,2.217-3.15,2.65c-0.8,0.633-1.85,1.3-3.15,2l0.1-0.25
		c0.867-1.967,1.3-3,1.3-3.101c0-0.333-0.2-0.666-0.6-1c-0.5-0.399-1.5-0.967-3-1.7l0.25-0.05l1.1-0.05c1.2,0,3.633,0.45,7.3,1.35
		L57.75,134z M24.15,190.25l0.05,0.15c0,0.033,0.017,0.066,0.05,0.1l-0.35-0.15c-0.367-0.199-1.15-0.783-2.35-1.75
		c-0.833-0.666-1.517-1-2.05-1c-0.267,0-0.583,0.367-0.95,1.101c-0.466,0.967-0.767,1.533-0.9,1.7c-0.133-1.367-0.2-2.551-0.2-3.551
		c0-6.5,0.483-10.449,1.45-11.85v3c1.333,3.566,2.483,6.4,3.45,8.5C22.817,187.566,23.417,188.816,24.15,190.25z M61.45,166.1
		c1.167,0.301,3.55,1,7.15,2.101c-2.333-0.167-4.667-0.5-7-1c-1.8-0.367-3.033-0.7-3.7-1c0.233-0.066,0.434-0.167,0.6-0.3
		c0.167-0.067,0.45-0.101,0.85-0.101C59.917,165.8,60.617,165.9,61.45,166.1z"/>
	<path style="fill-rule:evenodd;clip-rule:evenodd;fill:#635B52;" d="M139.75,40c-0.6-7.7-0.917-12.233-0.95-13.6h0.05l0.7,4.7
		l0.25,0.4l0.2,0.15l-0.2,7.85v0.9L139.75,40z M148.95,45.15c0.166,3.767,0.25,5.833,0.25,6.2l0.2,2.55
		c0,2.633,0.066,5.317,0.199,8.05c0.167,2.8,0.267,4.733,0.301,5.8l-0.101,6.7l-0.05-1.4c-0.167-2.5-0.65-8.15-1.45-16.95
		c0-0.633,0.084-2.467,0.25-5.5C148.717,47.367,148.85,45.55,148.95,45.15z M123.95,153.15c-0.5-2.834-0.851-5.983-1.05-9.45
		l0.05-6.75l0.35,5.399L123.95,153.15l0.899,4.8l3.551,19l0.05,0.399c-0.134,0.134-0.4,0.317-0.8,0.551
		c-0.2,0.1-0.4,0.216-0.601,0.35c-0.767,0.467-1.25,0.733-1.45,0.8h-0.05l-1-16.35L123.95,153.15z M113.3,183.45l-0.45,4.6
		l-0.75,3.9l-0.149,0.95l-0.15,0.85c-0.399,2.2-0.717,4.95-0.95,8.25l-1.1,4c0.1-3.634-0.017-9.417-0.35-17.35
		c-0.334-7.267-0.5-11-0.5-11.2c0-1.767,0.449-3.233,1.35-4.4c1.333-1.733,2.184-3.1,2.55-4.1l-0.2-9.7
		c-0.166-3.1-0.25-4.983-0.25-5.65c0-1.1,0.434-4.6,1.301-10.5c0.833-5.899,1.25-9.517,1.25-10.85c0-6.733-0.267-13.7-0.801-20.9
		c-0.533-7.2-0.8-12.033-0.8-14.5c0-4.9,0.101-8.517,0.3-10.85c0.367-3.867,0.617-7.433,0.75-10.7l2.25-1.9
		c0.134,7.934,0.7,27.817,1.7,59.65l0.05,12.25v3.55c-0.199,11-0.733,18.917-1.6,23.75C116.25,175.2,115.1,178.816,113.3,183.45z
		 M55.25,217.3h-0.2h-5c1.2-0.033,2.233-0.583,3.1-1.649c0.9-1.101,1.35-2.417,1.35-3.95L55.25,217.3z M130.35,59.25l0.15,13.45
		c0,2.3-0.1,4.55-0.3,6.75l-0.15,0.95c-0.1-7.267-0.3-13.85-0.6-19.75L130.35,59.25z"/>
	<path style="fill-rule:evenodd;clip-rule:evenodd;fill:#B3AA9E;" d="M138.8,26.4c0.033,1.367,0.351,5.9,0.95,13.6
		c-0.1,1.967-0.15,3.85-0.15,5.65c-0.1-1.233-0.35-4.9-0.75-11c-0.333-4.733-0.583-7.5-0.75-8.3V26.3L138.8,26.4z M145.15,33.85
		c0,0.867-0.417,1.617-1.25,2.25c-0.834,0.6-1.851,0.9-3.051,0.9l-0.05-4.9l2.4,0.85L145.15,33.85z M149.75,173.05
		c-0.066-3.366-0.184-5.983-0.35-7.85c0.267-5.7,0.466-12.117,0.6-19.25c0.134-8.967,0.25-16.367,0.35-22.2
		c1.667,3.1,2.417,9.717,2.25,19.85c-0.1,5.467-0.35,12.634-0.75,21.5l-0.35,2.4C150.967,169.833,150.384,171.684,149.75,173.05z
		 M138.8,176.75c0.134-2.833,0.517-6.733,1.15-11.7c0.666-4.566,1-6.916,1-7.05l0.25,4.5c0.233,4.167,0.45,9.184,0.649,15.05h0.676
		c-0.176,0.004-0.351,0.021-0.525,0.05l-1.95-0.199l-1.3-0.351C138.75,176.95,138.767,176.85,138.8,176.75z M132.5,159
		c-0.767-10.434-1.417-20.233-1.95-29.4c-1.066-17.6-1.6-32.733-1.6-45.399L129,72.05c1.134,12.833,1.967,21.017,2.5,24.55
		c0.366-0.467,0.55-1.833,0.55-4.1c-0.133-2.333-0.217-14.083-0.25-35.25l0.4-0.15c0.333-0.1,0.7-0.15,1.1-0.15
		c0.5,0,1.05,0.45,1.65,1.35c0.633,0.934,1.283,1.4,1.95,1.4c1.333,0,2.8,0.85,4.399,2.55c1.2-0.7,1.8-2,1.8-3.9
		c0-2,0.517-3.383,1.551-4.15c0.866,0.7,1.5,1.667,1.899,2.9c0.267,0.767,0.4,1.45,0.4,2.05c0,2.6-0.767,4.533-2.3,5.8
		c-1.567,0.733-2.384,1.1-2.45,1.1c-0.334,0-0.851-0.133-1.55-0.4c-0.733-0.3-1.267-0.45-1.601-0.45c-1.866,0-3.2,4.117-4,12.35
		c-0.833,8.7-1.25,23.684-1.25,44.95c0.134,11.7,0.184,23.783,0.15,36.25C133.483,158.75,133,158.833,132.5,159z M113.5,186
		l-0.2-2.55c1.8-4.634,2.95-8.25,3.45-10.851c0.866-4.833,1.4-12.75,1.6-23.75c0.4,4.034,1.4,9.7,3,17
		c1.267,5.834,1.817,10.25,1.65,13.25c-2.634,0-4.866,0.684-6.7,2.051C114.434,182.483,113.5,184.1,113.5,186z M100.8,88.05
		c-2.399,4.2-3.6,6.667-3.6,7.4c0.533,13.633,0.833,23.166,0.899,28.6c0.034,1.334,0.067,3.8,0.101,7.4
		c0.033,3.133,0.149,5.316,0.35,6.55c0.767,4.866,1.367,8.083,1.8,9.65c0.233,0.767,0.351,1.333,0.351,1.699
		c0,1.733-0.2,3.034-0.601,3.9c-0.233,0.533-0.666,1.35-1.3,2.45c-1.267,2.934-1.899,9.616-1.899,20.05
		c0,0.533,0.366,1.717,1.1,3.55c0.733,1.8,1.1,4.483,1.1,8.05c0,0.467-0.116,2.834-0.35,7.101c-0.233,4.2-0.384,6.583-0.45,7.149
		c-0.267-0.733-0.566-1.399-0.899-2c-0.7-0.899-1.65-1.383-2.851-1.449c-0.033,0-0.066,0-0.1,0c-0.066-0.034-0.134-0.051-0.2-0.051
		c-0.5-0.1-1.017-0.1-1.55,0c-0.101-6.166-0.384-14.017-0.851-23.55c0.4-9.866,0.517-24.916,0.351-45.149
		c1.033-2.167,1.866-4.617,2.5-7.351c0.767-2.967,1.166-7.649,1.2-14.05c0.033-3.433,0.05-7.783,0.05-13.05l0.399-2.4l0.2-0.5
		c0.334-0.933,0.733-1.583,1.2-1.95C98.184,89.8,99.2,89.117,100.8,88.05z M74.3,211.9l-0.05-37.051
		c0.3,1.733,0.583,3.434,0.85,5.101c0.167,1.267,0.383,3.666,0.65,7.2c-0.133-9.801-0.2-15.034-0.2-15.7L76.15,153.1l6.55-5.35
		c-0.267,15.6-0.65,27.684-1.15,36.25c-0.3,5.366-0.899,14.517-1.8,27.45c-0.5,0.133-1.333,0.25-2.5,0.35
		C76.15,211.9,75.167,211.934,74.3,211.9z M54.5,211.7c1.367-3.267,2.067-4.917,2.1-4.95c0.333-0.566,2.05-3.25,5.15-8.05
		c-0.233,7.399-0.533,13.399-0.9,18c-0.033,0.267-0.067,0.55-0.1,0.85c-1.067,0.066-2.217,0.066-3.45,0l-1.45-0.149l-0.6-0.101
		L54.5,211.7z M118.35,145.3l-0.05-12.25c-1-31.833-1.566-51.716-1.7-59.65l3.101-2.8c0.133,3.733,0.2,5.617,0.2,5.65h-0.051
		c0.167,0.1,0.467,0.067,0.9-0.1c0.533-0.2,0.95-0.3,1.25-0.3c0.667,0,1.05,0.033,1.15,0.1c0.133,0.867,0.433,9.466,0.899,25.8
		c0.434,15.934,0.65,25.316,0.65,28.15c0,1.566-0.101,3.517-0.3,5.85c-0.301,2.934-0.667,5.134-1.101,6.6l-0.35-5.399l-0.05,6.75
		c-0.301,0.566-0.7,1.083-1.2,1.55l-2.851-10l0.45,8.5L118.35,145.3z"/>
	<path style="fill-rule:evenodd;clip-rule:evenodd;fill:#9B9286;" d="M147.35,37.85l-0.05,1.55c0,7.5-0.033,11.35-0.1,11.55
		c-0.167,0.4-0.584,0.7-1.25,0.9c-1.267,0.367-2.3,0.767-3.101,1.2c-1.666,0.233-3.816,0.4-6.449,0.5c-1.801,0-3.134-0.167-4-0.5
		c0.1-1.433,0.383-4.5,0.85-9.2c0.366-3.633,0.75-7.767,1.15-12.4c0.133-1.733,0.283-3.534,0.449-5.4l3.25,0.3
		c0.167,0.8,0.417,3.566,0.75,8.3c0.4,6.1,0.65,9.767,0.75,11c0-1.8,0.051-3.683,0.15-5.65l0.05,0.4v-0.9l0.65,3.75
		c0.2-0.367,0.35-0.8,0.45-1.3c0.066-0.5,0.1-1.117,0.1-1.85l-0.15-3.1c1.2,0,2.217-0.3,3.051-0.9c0.833-0.633,1.25-1.383,1.25-2.25
		C145.917,34.517,146.65,35.85,147.35,37.85z M143.2,32.95l-2.4-0.85l-0.8-0.45l-0.2-0.15L143.2,32.95z M149.2,51.35
		c0-0.367-0.084-2.434-0.25-6.2c0-0.433,0-0.85,0-1.25C149.35,46.4,149.434,48.883,149.2,51.35z M142.525,177.55h-0.676
		c-0.199-5.866-0.416-10.883-0.649-15.05l-0.25-4.5c0,0.134-0.334,2.483-1,7.05c-0.634,4.967-1.017,8.867-1.15,11.7
		c-1.7-1.3-2.583-4.066-2.649-8.3c-0.034-3.066-0.117-4.983-0.25-5.75c-0.267-1.967-0.917-3.283-1.95-3.95
		c0.033-12.467-0.017-24.55-0.15-36.25c0-21.267,0.417-36.25,1.25-44.95c0.8-8.233,2.134-12.35,4-12.35
		c0.334,0,0.867,0.15,1.601,0.45c0.699,0.267,1.216,0.4,1.55,0.4c0.066,0,0.883-0.367,2.45-1.1c1.533-1.267,2.3-3.2,2.3-5.8
		c0-0.6-0.134-1.283-0.4-2.05c-0.399-1.233-1.033-2.2-1.899-2.9c1.633,0.066,2.6,0,2.899-0.2c0.4,6.833,0.851,12.3,1.351,16.4
		c0.466,3.167,0.75,5.45,0.85,6.85v-4.2l0.05,1.4l0.101-6.7c0-0.567,0-1.133,0-1.7l0.399,19.3c0,3.167-0.717,5.8-2.149,7.9
		c-1.434,2.067-2.15,4.35-2.15,6.85c0.2,4.467,0.333,8.267,0.4,11.4c0.1,3.6,0.566,6.333,1.399,8.2c0.5,1.066,1.351,2.416,2.55,4.05
		c-0.1,5.833-0.216,13.233-0.35,22.2c-0.134,7.133-0.333,13.55-0.6,19.25c-0.9-7.467-1.417-12.45-1.551-14.95
		c0.034-1.3,0.017-2.366-0.05-3.2c-0.5,10.066-0.783,19.867-0.85,29.4c-1.4,0.7-2.134,1.05-2.2,1.05c-0.434,0-1.1,0.017-2,0.05
		H142.525z M129,72.05l-0.05,12.15c0,12.667,0.533,27.8,1.6,45.399c0.533,9.167,1.184,18.967,1.95,29.4
		c-1.566,1.2-2.517,3.65-2.85,7.35c-0.034-2.333-0.15-4.983-0.351-7.949c-0.967-10.867-1.45-17.551-1.45-20.051
		c0.267-8.899,0.217-15.449-0.149-19.649l-0.25,0.95c-0.533,2.8-0.983,8.466-1.351,17c-0.399,10.166-0.816,17.267-1.25,21.3
		l-0.899-4.8l-0.65-10.801c0.434-1.466,0.8-3.666,1.101-6.6c0.199-2.333,0.3-4.283,0.3-5.85c0-2.834-0.217-12.217-0.65-28.15
		c-0.467-16.333-0.767-24.933-0.899-25.8c-0.101-0.067-0.483-0.1-1.15-0.1c-0.3,0-0.717,0.1-1.25,0.3
		c-0.434,0.167-0.733,0.2-0.9,0.1h0.051c0-0.033-0.067-1.917-0.2-5.65c2.566-2.4,5.25-5,8.05-7.8
		C128.217,65.333,128.634,68.417,129,72.05z M127.65,177.9c-0.567,0.533-1.25,0.916-2.051,1.149c0.2-0.066,0.684-0.333,1.45-0.8
		C127.25,178.116,127.45,178,127.65,177.9z M123.95,153.15l0.6,9.55c-0.166,4.434-0.267,9.899-0.3,16.399H123
		c0.167-3-0.384-7.416-1.65-13.25c-1.6-7.3-2.6-12.966-3-17v-3.55l0.95-1.55l-0.45-8.5l2.851,10c0.5-0.467,0.899-0.983,1.2-1.55
		C123.1,147.167,123.45,150.316,123.95,153.15z M111.9,193.85l0.05-0.949l0.149-0.95L111.9,193.85z M111.8,196.95
		c-0.066,1.633-0.133,3.149-0.2,4.55c-0.133,0.866-0.767,2.45-1.899,4.75l0.05-0.25l1.1-4c0.334-0.9,0.601-2.017,0.801-3.35
		L111.8,196.95z M109.15,80.15c-0.534,17.7-0.817,26.85-0.851,27.45c-0.3,14.466-0.25,26.766,0.15,36.9
		c0.166,4.9-0.384,11.7-1.65,20.4c-1.399,9.366-2.1,17.283-2.1,23.75c0,0.666,0.066,7.199,0.2,19.6c-1.834,0-3.384-0.65-4.65-1.95
		c-1.3-1.3-1.95-2.866-1.95-4.7c0.066-0.566,0.217-2.949,0.45-7.149c0.233-4.267,0.35-6.634,0.35-7.101c0-3.566-0.366-6.25-1.1-8.05
		c-0.733-1.833-1.1-3.017-1.1-3.55c0-10.434,0.633-17.116,1.899-20.05c0.634-1.101,1.066-1.917,1.3-2.45
		c0.4-0.866,0.601-2.167,0.601-3.9c0-0.366-0.117-0.933-0.351-1.699c-0.433-1.567-1.033-4.784-1.8-9.65
		c-0.2-1.233-0.316-3.417-0.35-6.55c-0.033-3.601-0.066-6.066-0.101-7.4c-0.066-5.434-0.366-14.967-0.899-28.6
		c0-0.733,1.2-3.2,3.6-7.4c0.533-0.333,1.867-1.483,4-3.45C107.066,82.5,108.517,81.017,109.15,80.15z M88.4,199.45
		c0.066-0.066,0.5-1.5,1.3-4.3c0.3,0.399,0.55,0.833,0.75,1.3c0.133-4.2,0.366-8,0.7-11.4c0.333-3.633,0.566-7.133,0.699-10.5
		c0.467,9.533,0.75,17.384,0.851,23.55c0.533-0.1,1.05-0.1,1.55,0c-0.033,0-0.083,0-0.15,0c-1.666,0-3.066,0.2-4.199,0.601
		C89.033,199.167,88.533,199.417,88.4,199.45z M79.75,211.45c0.9-12.934,1.5-22.084,1.8-27.45c0.5-8.566,0.884-20.65,1.15-36.25
		c0.8-0.533,1.45-1.083,1.95-1.65c0.267-0.3,0.633-0.75,1.1-1.35c1.1-1.767,1.8-2.983,2.1-3.65
		c-0.733,2.867-1.116,11.15-1.149,24.851c-0.101,22.833-0.15,34.45-0.15,34.85c-1.366,1.3-2.517,3.316-3.45,6.05
		C82.3,209.184,81.184,210.717,79.75,211.45z M74.25,174.85L74.3,211.9l-4.15-0.101c-3,0-5.2,0.884-6.6,2.65
		c-0.733,0.967-1.633,1.717-2.7,2.25c0.367-4.601,0.667-10.601,0.9-18c2.533-5.601,4.25-9.483,5.15-11.65
		c1.467-3.533,2.2-7.116,2.2-10.75l-0.15-3.1c0-0.066,0-0.117,0-0.15v-0.2V172.4c-0.1-1.434-0.15-2.9-0.15-4.4l0.05-2.25
		c0.1-1.033,0.533-2.684,1.3-4.95c2.267,2.434,3.533,5.117,3.8,8.05C74.083,170.417,74.183,172.417,74.25,174.85z M55.05,217.3h0.2
		l0.6,0.101L55.05,217.3z"/>
	<path style="fill-rule:evenodd;clip-rule:evenodd;fill:#7C7367;" d="M129.45,60.65c0.3,5.9,0.5,12.483,0.6,19.75l0.15-0.95
		c0.2-2.2,0.3-4.45,0.3-6.75l-0.15-13.45c0.534-0.7,1.034-1.883,1.5-3.55c0.367-1.367,0.551-2.25,0.551-2.65
		c0.866,0.333,2.199,0.5,4,0.5c2.633-0.1,4.783-0.267,6.449-0.5c0.801-0.433,1.834-0.833,3.101-1.2c0.666-0.2,1.083-0.5,1.25-0.9
		c0.066-0.2,0.1-4.05,0.1-11.55l0.05-1.55l0.051-1.3c0.333,0.467,0.666,1.467,1,3c0.3,1.434,0.483,2.883,0.55,4.35
		c0,0.4,0,0.817,0,1.25c-0.101,0.4-0.233,2.217-0.4,5.45c-0.166,3.033-0.25,4.867-0.25,5.5c0.8,8.8,1.283,14.45,1.45,16.95v4.2
		c-0.1-1.4-0.384-3.683-0.85-6.85c-0.5-4.1-0.95-9.566-1.351-16.4c-0.3,0.2-1.267,0.267-2.899,0.2
		c-1.034,0.767-1.551,2.15-1.551,4.15c0,1.9-0.6,3.2-1.8,3.9c-1.6-1.7-3.066-2.55-4.399-2.55c-0.667,0-1.317-0.467-1.95-1.4
		c-0.601-0.9-1.15-1.35-1.65-1.35c-0.399,0-0.767,0.05-1.1,0.15l-0.4,0.15c0.033,21.167,0.117,32.917,0.25,35.25
		c0,2.267-0.184,3.633-0.55,4.1c-0.533-3.533-1.366-11.717-2.5-24.55c-0.366-3.633-0.783-6.716-1.25-9.25
		C128.384,62.1,128.95,61.383,129.45,60.65z M149.9,67.75c-0.034-1.067-0.134-3-0.301-5.8c-0.133-2.733-0.199-5.417-0.199-8.05
		l0.399,7.75c0.033,1.434,0.066,2.9,0.101,4.4C149.9,66.617,149.9,67.183,149.9,67.75z M146.95,176.45
		c0.066-9.533,0.35-19.334,0.85-29.4c0.066,0.834,0.084,1.9,0.05,3.2c0.134,2.5,0.65,7.483,1.551,14.95
		c0.166,1.866,0.283,4.483,0.35,7.85c-0.1,0.134-0.55,0.7-1.35,1.7C147.566,175.783,147.083,176.35,146.95,176.45z M128.4,176.95
		l-3.551-19c0.434-4.033,0.851-11.134,1.25-21.3c0.367-8.534,0.817-14.2,1.351-17l0.25-0.95c0.366,4.2,0.416,10.75,0.149,19.649
		c0,2.5,0.483,9.184,1.45,20.051c0.2,2.966,0.316,5.616,0.351,7.949c-0.134,1.134-0.2,2.384-0.2,3.75
		c-0.033,2.634-0.217,4.517-0.55,5.65C128.767,176.184,128.6,176.583,128.4,176.95z M124.55,162.7l1,16.35l-1.3,0.05
		C124.283,172.6,124.384,167.134,124.55,162.7z M112.85,188.05l0.45-4.6l0.2,2.55L112.85,188.05z M109.7,206.25l-1.95,1.65
		c-0.733,0.333-1.583,0.466-2.55,0.399l-0.3-0.05c-0.134-12.4-0.2-18.934-0.2-19.6c0-6.467,0.7-14.384,2.1-23.75
		c1.267-8.7,1.816-15.5,1.65-20.4c-0.4-10.134-0.45-22.434-0.15-36.9c0.033-0.6,0.316-9.75,0.851-27.45
		c0.166-0.133,1.166-1.117,3-2.95c0.833-0.8,1.566-1.434,2.199-1.9c-0.133,3.267-0.383,6.833-0.75,10.7
		c-0.199,2.333-0.3,5.95-0.3,10.85c0,2.467,0.267,7.3,0.8,14.5c0.534,7.2,0.801,14.167,0.801,20.9c0,1.333-0.417,4.95-1.25,10.85
		c-0.867,5.9-1.301,9.4-1.301,10.5c0,0.667,0.084,2.551,0.25,5.65l0.2,9.7c-0.366,1-1.217,2.366-2.55,4.1
		c-0.9,1.167-1.35,2.634-1.35,4.4c0,0.2,0.166,3.934,0.5,11.2c0.333,7.933,0.449,13.716,0.35,17.35L109.7,206.25z M111.8,196.95
		l-0.149,1.7c-0.2,1.333-0.467,2.449-0.801,3.35c0.233-3.3,0.551-6.05,0.95-8.25l0.15-0.85l-0.05,0.949L111.8,196.95z M139.8,39.5
		l0.2-7.85l0.8,0.45l0.05,4.9l0.15,3.1c0,0.733-0.033,1.35-0.1,1.85c-0.101,0.5-0.25,0.933-0.45,1.3L139.8,39.5z"/>
	<path style="fill-rule:evenodd;clip-rule:evenodd;fill:#D9D1C5;" d="M134.85,26.05c-0.166,1.867-0.316,3.667-0.449,5.4
		c-0.733,2.167-1.867,4.667-3.4,7.5c-4.233,6.767-6.616,10.583-7.15,11.45c1.434-14.767,5.117-23.6,11.051-26.5
		C134.866,24.633,134.85,25.35,134.85,26.05z M19.75,213.9c-0.2-0.301-0.383-0.867-0.55-1.7c-0.2-0.834-0.3-1.517-0.3-2.05
		c0-0.434,0.333-3.551,1-9.351c-0.233-2.333-0.267-4.083-0.1-5.25c0.267-2.033,1.65-2.733,4.15-2.1l2.8,0.649
		c1.833,0.434,3.867,0.65,6.1,0.65c0.8,0,1.383,0.184,1.75,0.55l0.5,0.8c-0.3,0.233-0.783,0.5-1.45,0.801
		c-1.033,0.399-2.066,0.6-3.1,0.6c-0.133,0-0.816-0.434-2.05-1.3c-1.267-0.9-2.333-1.351-3.2-1.351c-1.833,0-2.783,1.767-2.85,5.301
		c-0.034,1.933,0.117,4.716,0.45,8.35c0,2.533-0.566,4.233-1.7,5.1L19.75,213.9z M0.25,191.5C0.083,189.566,0,188.267,0,187.6
		c0-2.699,0.383-5.883,1.15-9.55c1.067-5.233,1.75-8.983,2.05-11.25c1.533-2.467,2.25-4.05,2.15-4.75l1.9-1.75l1.1-0.05
		c0.1,0,1.2,0.2,3.3,0.6c2.267,0.434,4,0.801,5.2,1.101L17,163c-0.067,0.1-0.733,0.184-2,0.25c-1.7,0.1-2.917,0.2-3.65,0.3
		c0,0.066-0.067,0.217-0.2,0.45c-0.167,0.2-0.25,0.5-0.25,0.9c0,0.666,0.783,1.216,2.35,1.649c1.533,0.434,2.3,1.05,2.3,1.851
		c0,1.566-0.8,4.183-2.4,7.85c-0.733,1.767-1.35,7.316-1.85,16.65c-0.9-0.9-1.4-2.4-1.5-4.5c0.067-2.801,0.1-5.067,0.1-6.801
		c0.733-5.533,1.1-8.75,1.1-9.649l-2.95-0.05c0-0.101,0-0.317,0-0.65c0-0.4-0.033-0.667-0.1-0.8c-0.267-0.434-0.417-0.7-0.45-0.8
		c-1.767,0.933-2.633,4.149-2.6,9.649c0.067,15.2,0.083,23.05,0.05,23.55c-0.333-1.267-0.667-4.283-1-9.05
		c-0.267-4.033-0.4-6.684-0.4-7.95c-0.066,0-0.2-0.1-0.4-0.3c-0.233-0.3-0.433-0.5-0.6-0.6c-0.233,0.467-0.667,1.616-1.3,3.45
		C0.65,190.134,0.317,191.167,0.25,191.5z M9.85,157.1l-0.05-0.05l1.6-1.899c0.5,0.133,2.45,0.699,5.85,1.699h0.65
		c-0.433,1.034-0.983,1.551-1.65,1.551C12.683,157.866,10.55,157.434,9.85,157.1z M37.7,130.25c-1.934,0-3.583-0.45-4.95-1.35
		c-1.4-0.934-2.1-2.051-2.1-3.351c1.467-2.833,5.85-9.916,13.15-21.25c4.8-7.4,7.417-13.316,7.85-17.75l2.25-0.7
		c0.333,0,0.5,0.333,0.5,1c0,1.967-1.267,4.8-3.8,8.5c-3.6,4.9-6.45,8.983-8.55,12.25l-0.15,0.15c1.3-0.5,2.7-1.45,4.2-2.85
		c0.8-0.733,1.75-1.617,2.85-2.65l0.45-0.4c-1.733,3.533-3.117,6.133-4.15,7.8c-0.533,0.966-1.517,3.583-2.95,7.85l0.15,0.75
		c0.167-0.2,1.033-1.434,2.6-3.7c2.1-3.033,4.617-6.383,7.55-10.05l1.35-1.5c-0.034,0.433-0.717,2.9-2.05,7.4
		c-1.3,4.399-1.95,7.183-1.95,8.35c1.466-1.566,3.483-4.45,6.05-8.65c3.767-6.266,6.133-11.917,7.1-16.95l0.4-1.25
		c-1.1,8.033-2.983,15.217-5.65,21.55c-3.434,8.133-7.4,12.566-11.9,13.3c0.133-0.2,0.267-0.667,0.4-1.4V125
		c-1.3,1.366-2.117,2.684-2.45,3.95l0.1,1.399c0.4-0.133,1.8-1.166,4.2-3.1l0.65-0.75l0.1,0.8v3.5c-0.667,0.066-2.034,0.033-4.1-0.1
		c-2.5-0.2-4.367-0.334-5.6-0.4L37.7,130.25z M24.15,128.7l0.75,0.149c-4,3.934-5.9,6.7-5.7,8.301l0.05,0.649
		c0.1,0.4,0.35,0.601,0.75,0.601c0.433,0,0.967-0.2,1.6-0.601c0.133-0.066,0.683-0.45,1.65-1.149l0.95-1
		c-0.133,0.3-0.534,1.466-1.2,3.5c-0.667,2.133-1,3.35-1,3.649l-0.05,0.851c4.8-4.934,7.3-7.483,7.5-7.65
		c-0.2,0.634-0.983,2.8-2.35,6.5c-0.633,1.667-1.217,3.767-1.75,6.3c0.1,0.4,0.167,0.8,0.2,1.2c0.067,0.167,0.317,0.25,0.75,0.25
		c0.133,0,0.85-0.417,2.15-1.25c0.2,0.2,0.5,0.5,0.9,0.9c0.333,0.3,0.633,0.449,0.9,0.449c0.2,0,0.683-0.216,1.45-0.649
		c0.8-0.5,1.367-0.783,1.7-0.851c0.633,0.867,1.117,1.733,1.45,2.601l0.05,0.1c0.633-1.934,1.3-3.833,2-5.7
		c1.367-3.633,3-6.116,4.9-7.449l1.05-0.95c-0.033,0.2-0.533,2.1-1.5,5.7c-0.934,3.566-1.417,5.616-1.45,6.149
		c0.667,1,1.067,1.417,1.2,1.25c0.066-0.066,0.15-0.25,0.25-0.55c0.1,0.566,0.15,1.533,0.15,2.9l-0.1,3.899
		c-2.367-1-5.033-1.666-8-2c-2.5-0.166-3.783-0.25-3.85-0.25c-0.5,0-1.033,0.233-1.6,0.7c-0.567,0.434-0.917,0.65-1.05,0.65
		c-1,0-2.8-0.601-5.4-1.801c-2.4-1.1-5.417-1.5-9.05-1.199c0.019-0.079,0.035-0.163,0.05-0.25l0.15-1.601
		c0.1-0.833,0.2-1.866,0.3-3.1c0.3-1.867,1.683-5.134,4.15-9.8C19.9,132.783,22.25,129.634,24.15,128.7z M55.8,82.75
		c-1.033,0-2.2-0.217-3.5-0.65h-0.05c-0.333-1,0.067-3.383,1.2-7.15c1.1-3.667,2.1-6.15,3-7.45v0.05l-0.1,2.2
		c0.566,0,1.267-0.217,2.1-0.65c0.233,1.1,0.45,1.95,0.65,2.55c0.4,1.133,1.05,1.7,1.95,1.7c0.5,0,1.15-0.367,1.95-1.1
		c1-0.933,1.333-1.983,1-3.15c-0.1-0.434-0.833-0.783-2.2-1.05l-1.55-0.2c1.6-0.067,3.367-0.133,5.3-0.2
		c1.067-0.5,1.534-2.367,1.4-5.6c0.066-0.033,0.183-0.167,0.35-0.4c0.633-0.8,0.967-1.217,1-1.25c0.167,2.167,0.3,3.6,0.4,4.3
		c0.133,1.1,0.667,1.65,1.6,1.65c0.733,0,1.1,0.45,1.1,1.35c0,0.6-0.733,1.767-2.2,3.5c-2.233,2.633-4.35,5.65-6.35,9.05
		c2.667-0.033,5.717,0.05,9.15,0.25c0.1,0,0.533-0.983,1.3-2.95c0.934-2.267,1.667-4.35,2.2-6.25c1.533,0,2.866-0.15,4-0.45
		l1.85-0.4l2.051-0.6l12.75-15C91.35,62.65,88.066,67.9,86.3,70.6c-2.8,4.3-5.55,7.816-8.25,10.55l-0.55,0.2
		c0.1-0.767,0.434-2.55,1-5.35c-0.733,0.067-1.85,0.75-3.35,2.05c-1.733,1.567-2.7,2.4-2.9,2.5l4.05,0.7
		c2.5,0.633,4.783,1.617,6.851,2.95l-0.2,0.2c-0.233,0.033-1.834-0.316-4.8-1.05c-2.867-0.7-5.65-0.917-8.351-0.65
		c-2.6-0.067-4.7-0.317-6.3-0.75c-1.167-0.733-2.083-1.1-2.75-1.1c-0.767,0-1.617,0.3-2.55,0.9l-0.1,0.1l-0.65,0.5
		C56.95,82.583,56.4,82.717,55.8,82.75z M59.875,52.825l0.075-0.075c0-0.033,0-0.067,0-0.1c0-0.066,0.017-0.133,0.05-0.2
		c0-0.1,0.017-0.184,0.05-0.25c0.367-2.067,1.067-4.367,2.1-6.9c0.133-0.167,2.184-2.55,6.15-7.15l2.3-1.65h0.05l2.6-1.8
		c0,0.033,0,0.066,0,0.1c-2.3,6.867-4.633,12.083-7,15.65c-1.9,2.867-3.533,4.3-4.9,4.3c-0.4,0-0.75-0.05-1.05-0.15L60,54.45
		c0-0.133-0.05-0.4-0.15-0.8C59.786,53.363,59.794,53.088,59.875,52.825z M117.75,0.65c-0.5,2.3-1.566,5.3-3.2,9
		c-2.033,4.533-4,7.817-5.899,9.85c0.066-0.5,0.683-2.967,1.85-7.4c1.167-4.434,1.767-6.867,1.8-7.3l0.05-0.65
		c-0.166,0.333-1.833,4.367-5,12.1c-1.366,3.333-3.3,5.9-5.8,7.7c-0.967,0.7-2.566,2.833-4.8,6.4c-2.6,4.2-4.267,6.733-5,7.6
		L91.3,38.4c0.267-1.267,1.184-3.3,2.75-6.1c1.733-3.1,2.851-5.4,3.351-6.9l0.35-1.45c-1.733,2-4.5,5.783-8.3,11.35
		c-3.233,4.733-5.3,7.85-6.2,9.35c-1.5,2.4-2.65,3.95-3.45,4.65c-0.6,0.534-1.666,2.034-3.2,4.5c-1.1,1.767-1.583,2.217-1.45,1.35
		c0.733-5.367,2.667-10.25,5.8-14.65c1.733-2.433,4.233-5.8,7.5-10.1c2.8-4.833,5.399-9.8,7.8-14.9c4.5,0.033,7.65-1.717,9.45-5.25
		c0.366-0.733,0.95-2.267,1.75-4.6c0.666-1.9,1.316-3.267,1.95-4.1l0.949-0.5c0.801-0.367,1.567-0.667,2.301-0.9
		c1.133-0.167,2.25-0.2,3.35-0.1h0.05l1.75,0.3C117.767,0.45,117.75,0.55,117.75,0.65z M112.5,54.5c3.7-5,6.833-14.983,9.4-29.95
		c0.366,7.467-0.2,13.633-1.7,18.5c-1.667,3.7-2.617,5.85-2.851,6.45c-0.466,2.233-0.949,4.317-1.449,6.25
		c-0.934,3.767-1.934,6.25-3,7.45c-2.9,3.3-5.2,7-6.9,11.1c-1.233,3-3.417,5.567-6.55,7.7L99.1,82.35
		c1.733-2.6,2.601-4.283,2.601-5.05l-0.2-0.65c-0.4,0.7-1.684,2.233-3.85,4.6c-1.834,2-2.75,3.317-2.75,3.95
		c0,0.267,0.55,0.95,1.649,2.05c-0.133,0.167-0.416,0.333-0.85,0.5c-0.467,0.2-0.934,0.3-1.4,0.3c-4.033-0.833-6.55-1.5-7.55-2
		c3.434-4.1,6.6-8.267,9.5-12.5c1.533-2.233,3.35-4.9,5.45-8c1.399-1.867,3.283-3.833,5.649-5.9
		C109.75,57.583,111.467,55.867,112.5,54.5z M88.95,91.2l-1.101,2.5c-0.833,2.466-1.416,6.033-1.75,10.7
		c-0.533,7-0.85,10.984-0.949,11.95c-1.267,9.667-5.101,16.301-11.5,19.9c0.7-1.366,2.15-3.684,4.35-6.95
		c1.566-2.3,2.483-4.133,2.75-5.5c0.267-1.366,0.583-3.5,0.95-6.399c0.366-2.801,0.55-4.483,0.55-5.051l0.15-8.2
		c0-0.367,0.233-1.083,0.699-2.15c0.9-2.133,2.351-4.933,4.351-8.4l1.45-2.4l0.5-0.85L88.95,91.2z M70.55,92.85l1.05-1.7
		c-0.233,0.633-0.467,1.233-0.7,1.8c-1.6,6.5-2.867,11.316-3.8,14.45c-1.633,5.3-4.4,10.867-8.3,16.7l-0.9,0.65
		c3.533-9.934,5.434-15.267,5.7-16c1.533-4.467,2.8-8.65,3.8-12.55l0.6-1.15c0.133-0.1,0.467-0.316,1-0.65
		C69.567,94,70.083,93.483,70.55,92.85z M26.5,157.65c5.667,2.066,9.5,3.216,11.5,3.449c1.733,0.167,2.817,0.351,3.25,0.551h0.1
		c0.033,0.1,0.05,0.35,0.05,0.75c0,0.566-0.75,1.383-2.25,2.449c-1.566,1.101-2.417,2.351-2.55,3.75c-0.067,0.733-0.5,1.65-1.3,2.75
		c-1,1.4-2.1,2.184-3.3,2.351c0.6-1.233,0.983-2.717,1.15-4.45c0.033-0.6,0.05-2.05,0.05-4.35c0-0.434-0.05-0.733-0.15-0.9l-0.3-0.4
		l-0.3-0.149c-0.833,0.866-1.717,2.233-2.65,4.1c-0.667,1.3-1.267,1.95-1.8,1.95c-1.367-0.9-2.45-1.35-3.25-1.35
		c-0.3,0-1.217,0.3-2.75,0.899c-1.5,0.566-2.367,0.851-2.6,0.851l0.05-3.5c0-2.5,0.617-4.634,1.85-6.4
		c1.233-1.767,2.717-2.65,4.45-2.65L26.5,157.65z M69.2,137.75l1.7,0.25c1.9,0.333,3.383,0.5,4.45,0.5c0.867,0,1.716-0.267,2.55-0.8
		c0.833-0.533,2.616-0.8,5.35-0.8c1.233,0,2.684-1.567,4.35-4.7c1.267-2.434,2.384-5.2,3.351-8.3
		c0.866-2.634,1.649-6.15,2.35-10.551c0.533-3.166,0.917-6.133,1.15-8.899l0.25,17.6c-0.634,2.733-1.467,5.184-2.5,7.351
		c-0.634,1.1-1.533,3.25-2.7,6.449c-1.033,2.934-1.583,4.684-1.65,5.25c-0.3,0.667-1,1.884-2.1,3.65
		c-1.733-1.1-5.116-2.55-10.15-4.35c-4.467-1.567-6.867-2.351-7.2-2.351c-0.6,0-2.05,1.283-4.35,3.851
		c-2.533,2.8-4.083,5.183-4.65,7.149l-0.6,1.601c0.067-0.334,0.5-1.534,1.3-3.601c0.8-2.133,1.517-4.483,2.15-7.05
		c-0.8,0.3-1.383,0.566-1.75,0.8l-0.55,0.45l2.45-4.05l1.4-1.351l0.6-0.5l7.5,2c-0.733,0.034-1.517,0.117-2.35,0.25L68.8,137.9
		L69.2,137.75z M58.2,134.1l0.35-0.05c-0.133,0.101-0.167,0.3-0.1,0.601l-1.3,0.949l-0.45,0.7c-0.633,1.167-2.067,4.2-4.3,9.101
		c-2.533,5.566-4,8.767-4.4,9.6l-0.5,0.75c-0.1-0.833-0.15-1.583-0.15-2.25c0-6.634,3-12.4,9-17.3l0.8-0.601L58.2,134.1z
		 M8.35,194.25c0.333-1.2,0.65-2.1,0.95-2.7l0.6-1.2c0,1.667,0.05,3.517,0.15,5.551c0,1.3-0.383,2.533-1.15,3.699
		c-0.7-0.399-1.05-1.316-1.05-2.75C7.85,196.35,8.017,195.483,8.35,194.25z M45.9,180.9c1.133-2.167,1.7-3.584,1.7-4.25
		c0-0.934,0.217-1.667,0.65-2.2c0.433-0.5,1-0.75,1.7-0.75c0.066,0,0.95,0.233,2.65,0.7c1.433,0.733,1.55,1.833,0.35,3.3l0.55-0.15
		c0.433-0.133,0.85-0.2,1.25-0.2s0.667,0.034,0.8,0.101c0.067,0.066,0.217,0.2,0.45,0.399c-0.633,1.367-1.55,3.384-2.75,6.051
		c-1.167,2.566-2.367,5.017-3.6,7.35l-0.65,0.9c0-0.534,0.083-1.601,0.25-3.2c0.167-1.601,0.25-2.55,0.25-2.851
		c0-0.399-0.017-0.699-0.05-0.899l-0.1-0.2c-1.3,1.634-2.3,2.45-3,2.45c-0.733,0-1.217-0.233-1.45-0.7
		c-0.467-0.866-0.75-1.35-0.85-1.45c-0.867,0.3-1.333,0.634-1.4,1c0,0.033-0.133,2.434-0.4,7.2c-0.2,3.566-0.667,7.167-1.4,10.8
		c-0.7,3.4-1.05,5.667-1.05,6.8c-0.1,0-0.233,0.167-0.4,0.5c-0.066,0.2-0.2,0.534-0.4,1c-0.267-2.267-0.4-4.666-0.4-7.199
		c-0.333-5.434-0.2-12.5,0.4-21.2c0.133-1.733,0.35-2.684,0.65-2.851c0.8-0.466,2.733-0.616,5.8-0.449H45.9z M60.9,180.05
		c-0.333-2.233-0.767-3.883-1.3-4.95c-0.6-0.866-1.017-1.483-1.25-1.85c-0.133-0.233-0.567-0.85-1.3-1.85
		c-0.367-0.534-0.55-1.117-0.55-1.75c0-0.4,0.033-0.65,0.1-0.75c0.233-0.301,0.35-0.467,0.35-0.5l0.95-1.051l0.6,1l1.2,2.551
		c0.8,2.066,1.2,4.033,1.2,5.899V180.05z M56.95,197.95c-1.267,1.467-2.483,3.434-3.65,5.899c-0.533,0.301-0.833,0.051-0.9-0.75
		c0.9-5.533,2.184-9.6,3.85-12.199c2.433-3.9,3.983-6.733,4.65-8.5c0.167,7.1-0.333,11.416-1.5,12.949
		C58.433,196.316,57.617,197.184,56.95,197.95z M86.4,113.25c0.1-1.333,0.316-2.884,0.649-4.65c0.634-3.467,1.75-6.717,3.351-9.75
		c0.6,2.4,0.449,4.833-0.45,7.3c-0.5,1.434-1.417,3.45-2.75,6.05L86.4,113.25z M29.8,204.15L29.55,205c-0.066,0.066-0.4,0.333-1,0.8
		c-0.333,0.233-0.566,0.351-0.7,0.351c-0.9,0-1.717-0.5-2.45-1.5c-0.233-0.5-0.017-0.75,0.65-0.75
		c0.467-0.034,1.75-0.051,3.85-0.051L29.8,204.15z"/>
	<path style="fill-rule:evenodd;clip-rule:evenodd;fill:#898074;" d="M86.55,200.8c0-0.399,0.05-12.017,0.15-34.85
		c0.033-13.7,0.416-21.983,1.149-24.851c0.067-0.566,0.617-2.316,1.65-5.25c1.167-3.199,2.066-5.35,2.7-6.449
		c0.166,20.233,0.05,35.283-0.351,45.149c-0.133,3.367-0.366,6.867-0.699,10.5c-0.334,3.4-0.567,7.2-0.7,11.4
		c-0.2-0.467-0.45-0.9-0.75-1.3c-0.8,2.8-1.233,4.233-1.3,4.3C88.2,199.55,87.583,200,86.55,200.8z M74.25,174.85
		c-0.067-2.433-0.167-4.433-0.3-6c-0.267-2.933-1.534-5.616-3.8-8.05c1.1-2.333,2.4-4.283,3.9-5.85
		c0.767-0.8,1.467-1.417,2.101-1.851L75.55,171.45c0,0.666,0.067,5.899,0.2,15.7c-0.267-3.534-0.483-5.934-0.65-7.2
		C74.833,178.283,74.55,176.583,74.25,174.85z"/>
</g>
</svg>
