<?xml version="1.0" encoding="iso-8859-1"?>
<!-- Generator: Adobe Illustrator 15.1.0, SVG Export Plug-In . SVG Version: 6.00 Build 0)  -->
<!DOCTYPE svg PUBLIC "-//W3C//DTD SVG 1.1//EN" "http://www.w3.org/Graphics/SVG/1.1/DTD/svg11.dtd">
<svg version="1.1" id="Layer_1" xmlns="http://www.w3.org/2000/svg" xmlns:xlink="http://www.w3.org/1999/xlink" x="0px" y="0px"
	 width="53.5px" height="133.95px" viewBox="0 0 53.5 133.95" style="enable-background:new 0 0 53.5 133.95;" xml:space="preserve"
	>
<g>
	
		<linearGradient id="SVGID_1_" gradientUnits="userSpaceOnUse" x1="-0.2261" y1="-51.3101" x2="15.8239" y2="-51.3101" gradientTransform="matrix(6.230530e-005 1 -1 -0.001 0 0)">
		<stop  offset="0" style="stop-color:#FFFFFF"/>
		<stop  offset="1" style="stop-color:#D2DDE3"/>
	</linearGradient>
	<path style="fill-rule:evenodd;clip-rule:evenodd;fill:url(#SVGID_1_);" d="M52.65,14.95c-0.167,0.2-0.367,0.367-0.601,0.5
		c-0.066,0-0.116,0.017-0.149,0.05c-0.2,0.067-0.417,0.117-0.65,0.15c-0.467,0.033-0.85,0-1.15-0.1
		c-0.566-0.167-0.883-0.583-0.949-1.25c-0.034-0.167,0.066-1.133,0.3-2.9c0.066-0.3,0.083-0.717,0.05-1.25
		c0-0.566,0.017-0.967,0.05-1.2c0.167-1.067,0.483-1.917,0.95-2.55c0.033-0.033,0.167-0.1,0.4-0.2c0.166-0.1,0.283-0.2,0.35-0.3
		c0.333-0.4,0.517-0.967,0.55-1.7c0-0.2-0.017-0.817-0.05-1.85c0-0.6,0.066-1.15,0.2-1.65c0.166-0.8,0.434-0.9,0.8-0.3l0.5,2.25
		c0,0.167,0.066,1.95,0.2,5.35c0.066,2.2,0.017,3.983-0.15,5.35C53.2,14.05,52.983,14.583,52.65,14.95z"/>
	
		<linearGradient id="SVGID_2_" gradientUnits="userSpaceOnUse" x1="15.7881" y1="-49.4707" x2="22.2131" y2="-49.4707" gradientTransform="matrix(1.556420e-004 1 -1 -0.001 4.809952e-004 0)">
		<stop  offset="0" style="stop-color:#FFFFFF"/>
		<stop  offset="1" style="stop-color:#D2DDE3"/>
	</linearGradient>
	<path style="fill-rule:evenodd;clip-rule:evenodd;fill:url(#SVGID_2_);" d="M50,16c0.1-0.067,0.184-0.1,0.25-0.1l0.5,0.75
		c0.066,1.533,0.1,2.467,0.1,2.8c-0.066,1.3-0.35,2.117-0.85,2.45c-0.233,0.2-0.467,0.3-0.7,0.3c-0.1-0.034-0.2-0.067-0.3-0.1
		s-0.184-0.083-0.25-0.15c-0.2-0.2-0.366-0.45-0.5-0.75c-0.267-0.7-0.184-1.717,0.25-3.05C48.9,16.95,49.4,16.233,50,16z"/>
	<path style="fill-rule:evenodd;clip-rule:evenodd;fill:#CCD9E0;" d="M48.4,62.6c0.733-0.967,1.416-2.184,2.05-3.65
		c0.633-1.434,1.1-2.817,1.399-4.15c0.267-1.2,0.4-3.033,0.4-5.5c0.066-2.667-0.083-4.667-0.45-6c-0.267-0.8-0.467-1.4-0.6-1.8
		c-0.134-0.433-0.233-0.833-0.3-1.2c-0.067-1.733-0.217-3.6-0.45-5.6c-0.367-2.534-0.634-4.434-0.8-5.7
		c-0.301-2.2-0.434-4.1-0.4-5.7l0.05-1.1c0.233,0,0.467-0.1,0.7-0.3c0.5-0.333,0.783-1.15,0.85-2.45c0-0.333-0.033-1.267-0.1-2.8
		l-0.5-0.75c-0.066,0-0.15,0.033-0.25,0.1l0.1-0.45c0.301,0.1,0.684,0.133,1.15,0.1c0.233-0.033,0.45-0.083,0.65-0.15
		c-0.034,0.167,0.017,0.35,0.149,0.55c0.033,1.7,0.084,3.483,0.15,5.35c0.399,10.167,0.583,16.267,0.55,18.3
		c0,1.5-0.083,3.95-0.25,7.35c-0.167,3.167-0.25,5.633-0.25,7.4c0,0.767,0.017,1.7,0.05,2.8l-0.3,0.4c0,1.167,0.017,2.934,0.05,5.3
		c0,2.033-0.166,3.783-0.5,5.25c-0.166,0.7-0.517,1.467-1.05,2.3c-0.733,1.167-1.167,1.866-1.3,2.1
		c-0.5,0.967-0.667,1.917-0.5,2.851c0.066,0.399,0.366,1.383,0.899,2.95c0.334,1,0.467,2.166,0.4,3.5c0,0.767,0.05,2.017,0.15,3.75
		c0.1,1.566,0.133,2.8,0.1,3.699V99.65c0.066,1.3-0.083,2.199-0.45,2.699c-0.133,0.167-0.416,0.4-0.85,0.7
		c-0.334,0.233-0.566,0.517-0.7,0.851c-0.066,0.199-0.15,0.633-0.25,1.3c-0.066,0.5-0.217,0.899-0.45,1.2
		c-0.166,0.199-0.666,0.6-1.5,1.199c-0.6,0.434-1,0.95-1.2,1.551c-0.366,0.966-0.649,1.933-0.85,2.899l-0.75,0.101
		c-0.6-0.067-1.05,0.333-1.35,1.199c-0.034-2.1,0.083-3.833,0.35-5.199c0.066-0.467,0.333-1.15,0.8-2.051
		c0.066-0.133,0.117-0.25,0.15-0.35c0.1,0.066,0.2,0.116,0.3,0.15c0.333,0.133,0.9,0.133,1.7,0c0.767-0.101,1.267-0.25,1.5-0.45
		c0.366-0.334,0.583-0.95,0.649-1.851c0.034-0.233,0.034-0.433,0-0.6l0.9,0.15c0.167-0.9,0.217-2.101,0.15-3.601
		c-0.101-1.666-0.15-2.883-0.15-3.649c0.1-1.2,0.167-2.134,0.2-2.801c0.066-1.233-0.05-2.133-0.351-2.699
		c-0.066-0.134-0.216-0.301-0.449-0.5c-0.2-0.167-0.334-0.334-0.4-0.5v-1c0-0.2,0.017-0.384,0.05-0.551
		c0.066,0,0.117-0.017,0.15-0.05c0.2-0.133,0.316-0.533,0.35-1.2c0.066-0.767-0.033-1.416-0.3-1.949l-2.75-1.25
		c-1.033,0-1.583,0-1.65,0c-0.566,0.133-0.85,0.533-0.85,1.199c0,0.101,0.017,0.233,0.05,0.4c-0.133,0.066-0.25,0.15-0.35,0.25
		l-0.2-0.15c0.7-1.3,0.866-2.699,0.5-4.199c-2.267,0.199-4,0.267-5.2,0.199c-2.166-0.133-3.583-0.833-4.25-2.1
		c0.167,0.4,0.316,0.866,0.45,1.4c-0.167,0-0.35,0.017-0.55,0.05c0.2-0.233,0.217-0.584,0.05-1.05l-2.25-0.25l0.2,0.399
		c-0.467,0.3-0.601,0.65-0.4,1.05c0.467,0.067,0.867,0.117,1.2,0.15c-0.866,0.267-1.866,0.684-3,1.25c-0.4,0.2-0.75,0.4-1.05,0.6
		c-0.167,0.034-0.316,0.051-0.45,0.051c-0.333,0.033-0.767,0.149-1.3,0.35c-0.633,0.2-1.083,0.316-1.35,0.35
		c-0.934,0.167-2.15,0.15-3.65-0.05C18.767,83.033,17.533,82.9,17,82.9c-0.633-0.034-1.117-0.051-1.45-0.051
		c-0.633-0.033-1.133-0.017-1.5,0.051c-0.667,0.1-1.5,0.399-2.5,0.899c-0.133,0.066-0.267,0.15-0.4,0.25l-0.4-0.25
		c0.2-0.066,0.417-0.133,0.65-0.2c1.2-0.399,2.95-1.017,5.25-1.85c0.133-0.033,0.267-0.083,0.4-0.15c0.333-0.133,0.667-0.3,1-0.5
		c0.267,0.434,0.917,0.684,1.95,0.75c1,0.067,2.367,0,4.1-0.199c1.333,0,2.183-0.034,2.55-0.101c0.899-0.2,1.583-0.666,2.05-1.399
		c0.267-0.367,0.616-0.95,1.05-1.75l-0.2-0.45l2.25-2.3c0.101-0.301,0.117-0.7,0.05-1.2c-0.1-0.566-0.166-1-0.199-1.3l0.55-0.5
		c0.267,0.6,0.733,1.116,1.399,1.55c0.967,0.633,2.101,0.95,3.4,0.95c0.366,0,1.017,0.033,1.95,0.1c0.833,0.066,1.45,0,1.85-0.2
		c0.233-0.1,0.483-0.233,0.75-0.399c0.434-0.101,0.733-0.233,0.9-0.4c0.033-0.033,0.166-0.233,0.399-0.6
		c0.867-0.801,1.801-1.867,2.801-3.2c0.767-1,1.25-1.667,1.449-2c0.101-0.167,0.184-0.316,0.25-0.45
		c0.167-0.233,0.267-0.5,0.301-0.8c0-0.033,0-0.066,0-0.101c0.066-0.333,0.1-0.649,0.1-0.95l0.05-0.85
		C47.9,64.633,48.1,63.733,48.4,62.6z M50,23.95c0.434,0.8,0.866,0.85,1.3,0.15c0.4-0.667,0.55-1.317,0.45-1.95l-1-1.25
		c-0.066,0.267-0.283,0.767-0.65,1.5C49.833,23.1,49.8,23.617,50,23.95z M50.75,29.4c-0.3,0.3-0.366,0.783-0.2,1.45
		c0.367,0.167,0.684,0.1,0.95-0.2L50.75,29.4z"/>
	
		<linearGradient id="SVGID_3_" gradientUnits="userSpaceOnUse" x1="1.7832" y1="-31.7246" x2="124.1582" y2="-31.7246" gradientTransform="matrix(8.171604e-006 1 -1 -0.001 3.230711e-004 0)">
		<stop  offset="0" style="stop-color:#FFFFFF"/>
		<stop  offset="1" style="stop-color:#D2DDE3"/>
	</linearGradient>
	<path style="fill-rule:evenodd;clip-rule:evenodd;fill:url(#SVGID_3_);" d="M49.3,22.2l-0.05,1.1c-0.033,1.6,0.1,3.5,0.4,5.7
		c0.166,1.267,0.433,3.167,0.8,5.7c0.233,2,0.383,3.867,0.45,5.6c-0.067-0.233-0.117-0.45-0.15-0.65l-3,0.25
		c-0.033,0-0.066,0.017-0.1,0.05l-0.551-0.1c0.4-2.533,0.65-4.267,0.75-5.2c0.5-4,0.634-7.5,0.4-10.5l0.5-2.2
		c0.066,0.066,0.15,0.117,0.25,0.15S49.2,22.167,49.3,22.2z M47.8,65.3v-1.9c0.167-0.233,0.334-0.467,0.5-0.7
		c0.033-0.034,0.066-0.067,0.101-0.1C48.1,63.733,47.9,64.633,47.8,65.3z M31.65,73.15c-0.067-0.7-0.034-1.217,0.1-1.551
		c0.066-0.1,0.15-0.199,0.25-0.3c-0.134,0.334-0.1,0.733,0.1,1.2c0.034,0.033,0.067,0.083,0.101,0.15L31.65,73.15
		c0.033,0.3,0.1,0.733,0.199,1.3c0.067,0.5,0.051,0.899-0.05,1.2c0.101-0.367,0.066-1.051-0.1-2.051
		C31.667,73.434,31.65,73.283,31.65,73.15z M35.95,67c0.2-0.567,0.55-1.167,1.05-1.8c-0.167,0.5-0.35,0.883-0.55,1.15
		C36.35,66.517,36.184,66.733,35.95,67z M47.35,68c0.134-0.3,0.233-0.6,0.301-0.9c0,0.034,0,0.067,0,0.101
		C47.616,67.5,47.517,67.767,47.35,68z M42.85,73.65c-0.233,0.366-0.366,0.566-0.399,0.6c-0.167,0.167-0.467,0.3-0.9,0.4
		C41.95,74.384,42.384,74.05,42.85,73.65z M12.55,85.55c0.534-0.066,1.1-0.116,1.7-0.149c2.267-0.167,3.633-0.25,4.1-0.25
		C16.017,85.316,14.083,85.45,12.55,85.55z M17.05,81.6c0.3-0.133,0.617-0.316,0.95-0.55l0.05,0.05
		C17.717,81.3,17.383,81.467,17.05,81.6z M41.65,85.05l0.1,0.05l0.2,0.15c0.1-0.1,0.217-0.184,0.35-0.25
		c0.033,0.2,0.101,0.45,0.2,0.75C42.333,85.583,42.05,85.35,41.65,85.05z M47.35,103c-0.066-0.6-0.267-0.967-0.6-1.1l-1.25-1
		c-0.2,0.267-0.667,0.6-1.4,1c-0.066,0.066-0.133,0.116-0.199,0.149c-0.034-0.066-0.051-0.133-0.051-0.2
		c-0.066-1.366-0.1-2.1-0.1-2.199c0.033-1.567-0.134-4.45-0.5-8.65c0-0.4-0.167-1.55-0.5-3.45c-0.033-0.459-0.05-0.826-0.05-1.1
		c0.002,0.07,0.019,0.138,0.05,0.2c0.233,0.699,0.7,1.116,1.4,1.25c0.233,0.033,0.916,0.033,2.05,0c0.533,0,0.899-0.017,1.1-0.051
		c-0.033,0.167-0.05,0.351-0.05,0.551v1c0.066,0.166,0.2,0.333,0.4,0.5c0.233,0.199,0.383,0.366,0.449,0.5
		c0.301,0.566,0.417,1.466,0.351,2.699c-0.033,0.667-0.101,1.601-0.2,2.801c0,0.767,0.05,1.983,0.15,3.649
		c0.066,1.5,0.017,2.7-0.15,3.601L47.35,103z"/>
	
		<linearGradient id="SVGID_4_" gradientUnits="userSpaceOnUse" x1="20.7866" y1="-50.8188" x2="24.5116" y2="-50.8188" gradientTransform="matrix(2.684564e-004 1 -1 -0.001 -1.600216e-004 0)">
		<stop  offset="0" style="stop-color:#FFFFFF"/>
		<stop  offset="1" style="stop-color:#D2DDE3"/>
	</linearGradient>
	<path style="fill-rule:evenodd;clip-rule:evenodd;fill:url(#SVGID_4_);" d="M50,23.95c-0.2-0.333-0.167-0.85,0.1-1.55
		c0.367-0.733,0.584-1.233,0.65-1.5l1,1.25c0.1,0.633-0.05,1.283-0.45,1.95C50.866,24.8,50.434,24.75,50,23.95z"/>
	
		<linearGradient id="SVGID_5_" gradientUnits="userSpaceOnUse" x1="14.8472" y1="-52.5771" x2="16.5472" y2="-52.5771" gradientTransform="matrix(5.882352e-004 1 -1 -0.001 -1.342702e-004 0)">
		<stop  offset="0" style="stop-color:#FFFFFF"/>
		<stop  offset="1" style="stop-color:#D2DDE3"/>
	</linearGradient>
	<path style="fill-rule:evenodd;clip-rule:evenodd;fill:url(#SVGID_5_);" d="M52.05,16.05c-0.133-0.2-0.184-0.383-0.149-0.55
		c0.033-0.033,0.083-0.05,0.149-0.05c0.233-0.133,0.434-0.3,0.601-0.5l0.6,0.2c0.134,1.434-0.15,1.85-0.85,1.25
		C52.267,16.267,52.15,16.15,52.05,16.05z"/>
	
		<linearGradient id="SVGID_6_" gradientUnits="userSpaceOnUse" x1="22.8472" y1="-53.1284" x2="25.4472" y2="-53.1284" gradientTransform="matrix(3.846154e-004 1 -1 -0.001 1.681948e-004 0)">
		<stop  offset="0" style="stop-color:#FFFFFF"/>
		<stop  offset="1" style="stop-color:#D2DDE3"/>
	</linearGradient>
	<path style="fill-rule:evenodd;clip-rule:evenodd;fill:url(#SVGID_6_);" d="M52.75,22.9l0.75,1.25c0.033,0.467,0.033,0.783,0,0.95
		c-0.066,0.333-0.3,0.433-0.7,0.3C52.767,25.133,52.75,24.3,52.75,22.9z"/>
	
		<linearGradient id="SVGID_7_" gradientUnits="userSpaceOnUse" x1="29.3242" y1="-50.9609" x2="30.8742" y2="-50.9609" gradientTransform="matrix(6.451612e-004 1 -1 -0.001 -1.204150e-004 0)">
		<stop  offset="0" style="stop-color:#FFFFFF"/>
		<stop  offset="1" style="stop-color:#D2DDE3"/>
	</linearGradient>
	<path style="fill-rule:evenodd;clip-rule:evenodd;fill:url(#SVGID_7_);" d="M50.75,29.4l0.75,1.25c-0.267,0.3-0.583,0.367-0.95,0.2
		C50.384,30.183,50.45,29.7,50.75,29.4z"/>
	
		<linearGradient id="SVGID_8_" gradientUnits="userSpaceOnUse" x1="39.541" y1="-46.3496" x2="44.866" y2="-46.3496" gradientTransform="matrix(1.877934e-004 1 -1 -0.001 3.261012e-004 0)">
		<stop  offset="0" style="stop-color:#FFFFFF"/>
		<stop  offset="1" style="stop-color:#D2DDE3"/>
	</linearGradient>
	<path style="fill-rule:evenodd;clip-rule:evenodd;fill:url(#SVGID_8_);" d="M43.55,43.8c-0.033-0.066-0.05-0.117-0.05-0.15
		c-0.1-0.433-0.1-0.833,0-1.2c0.167-0.6,0.5-1.133,1-1.6c0.167-0.167,0.667-0.567,1.5-1.2l1.1,0.2l0.551,0.1l1.35,0.2
		c0.267,0.8,0.35,1.617,0.25,2.45c-0.134,1.033-0.533,1.7-1.2,2c-0.3,0.167-0.883,0.25-1.75,0.25c-0.1,0-0.2,0-0.3,0
		c-1.066,0-1.733-0.083-2-0.25C43.767,44.433,43.616,44.167,43.55,43.8z"/>
	
		<linearGradient id="SVGID_9_" gradientUnits="userSpaceOnUse" x1="39.3164" y1="-45.8262" x2="65.4914" y2="-45.8262" gradientTransform="matrix(3.820439e-005 1 -1 -0.001 4.536481e-004 0)">
		<stop  offset="0" style="stop-color:#FFFFFF"/>
		<stop  offset="1" style="stop-color:#D2DDE3"/>
	</linearGradient>
	<path style="fill-rule:evenodd;clip-rule:evenodd;fill:url(#SVGID_9_);" d="M50.9,40.3c0.066,0.367,0.166,0.767,0.3,1.2
		c0.133,0.4,0.333,1,0.6,1.8c0.367,1.333,0.517,3.333,0.45,6c0,2.467-0.134,4.3-0.4,5.5c-0.3,1.333-0.767,2.717-1.399,4.15
		c-0.634,1.466-1.316,2.683-2.05,3.65c-0.034,0.033-0.067,0.066-0.101,0.1c-0.166,0.233-0.333,0.466-0.5,0.7
		c-0.033-1-0.533-1.9-1.5-2.7c-1-0.767-2.017-1.117-3.05-1.05L42,58.9c-0.066-0.367-0.4-0.333-1,0.1
		c-0.233,0.167-0.517,0.4-0.85,0.7c-0.367-0.534-0.601-1.15-0.7-1.85c-0.134-0.934-0.033-1.817,0.3-2.65
		c0.134-0.333,0.366-0.65,0.7-0.95c0.399-0.4,0.649-0.683,0.75-0.85c0.267-0.4,0.483-1.05,0.649-1.95
		c0.101-0.367,0.184-0.833,0.25-1.4c0.101-0.7,0.167-1.167,0.2-1.4c0.066-0.3,0.25-0.783,0.55-1.45c0.233-0.6,0.384-1.1,0.45-1.5
		c0.033-0.667,0.066-1.15,0.101-1.45c0.033-0.167,0.083-0.317,0.149-0.45c0.066,0.367,0.217,0.633,0.45,0.8
		c0.267,0.167,0.934,0.25,2,0.25c0.1,0,0.2,0,0.3,0c0.867,0,1.45-0.083,1.75-0.25c0.667-0.3,1.066-0.967,1.2-2
		c0.1-0.833,0.017-1.65-0.25-2.45l-1.35-0.2c0.033-0.034,0.066-0.05,0.1-0.05l3-0.25C50.783,39.85,50.833,40.067,50.9,40.3z"/>
	
		<linearGradient id="SVGID_10_" gradientUnits="userSpaceOnUse" x1="58.4355" y1="-39.8545" x2="75.4855" y2="-39.8545" gradientTransform="matrix(5.865103e-005 1 -1 -0.001 4.287048e-004 0)">
		<stop  offset="0" style="stop-color:#FFFFFF"/>
		<stop  offset="1" style="stop-color:#D2DDE3"/>
	</linearGradient>
	<path style="fill-rule:evenodd;clip-rule:evenodd;fill:url(#SVGID_10_);" d="M47.8,63.4v1.9l-0.05,0.85c0,0.3-0.033,0.617-0.1,0.95
		C47.583,67.4,47.483,67.7,47.35,68c-0.066,0.134-0.149,0.283-0.25,0.45c-0.199,0.333-0.683,1-1.449,2
		c-1,1.333-1.934,2.399-2.801,3.2c-0.466,0.399-0.899,0.733-1.3,1c-0.267,0.166-0.517,0.3-0.75,0.399
		c-0.399,0.2-1.017,0.267-1.85,0.2c-0.934-0.066-1.584-0.1-1.95-0.1c-1.3,0-2.434-0.317-3.4-0.95
		c-0.666-0.434-1.133-0.95-1.399-1.55c-0.033-0.067-0.066-0.117-0.101-0.15c-0.199-0.467-0.233-0.866-0.1-1.2
		c0.066-0.333,0.267-0.616,0.6-0.85c0.2-0.134,0.517-0.233,0.95-0.3c0.334-0.067,0.601-0.233,0.8-0.5
		c0.167-0.301,0.367-0.801,0.601-1.5c0.133-0.233,0.383-0.534,0.75-0.9c0.066-0.1,0.149-0.184,0.25-0.25
		c0.233-0.267,0.399-0.483,0.5-0.65c0.2-0.267,0.383-0.65,0.55-1.15c0.066-0.3,0.15-0.633,0.25-1c0.267-1.034,0.533-1.767,0.8-2.2
		c0.367-0.567,1.05-1.317,2.05-2.25l0.051-0.05c0.333-0.3,0.616-0.534,0.85-0.7c0.6-0.433,0.934-0.467,1-0.1l1.25,0.75
		c1.033-0.066,2.05,0.283,3.05,1.05C47.267,61.5,47.767,62.4,47.8,63.4z"/>
	
		<linearGradient id="SVGID_11_" gradientUnits="userSpaceOnUse" x1="76.5264" y1="-23.791" x2="81.9264" y2="-23.791" gradientTransform="matrix(1.851852e-004 1 -1 -0.001 -4.651062e-004 0)">
		<stop  offset="0" style="stop-color:#FFFFFF"/>
		<stop  offset="1" style="stop-color:#D2DDE3"/>
	</linearGradient>
	<path style="fill-rule:evenodd;clip-rule:evenodd;fill:url(#SVGID_11_);" d="M29.55,77.95l0.2,0.45
		c-0.434,0.8-0.783,1.383-1.05,1.75c-0.467,0.733-1.15,1.199-2.05,1.399c-0.367,0.066-1.217,0.101-2.55,0.101
		C22.367,81.85,21,81.917,20,81.85c-1.033-0.066-1.683-0.316-1.95-0.75L18,81.05c-0.2-0.366-0.183-0.833,0.05-1.399
		c0.267-0.667,0.85-1.317,1.75-1.95c0.833-0.634,1.583-0.983,2.25-1.05c0.867-0.134,2.083-0.067,3.65,0.199
		c1.633,0.267,2.816,0.367,3.55,0.301L29.55,77.95z"/>
	
		<linearGradient id="SVGID_12_" gradientUnits="userSpaceOnUse" x1="82.8418" y1="-8.0811" x2="86.8418" y2="-8.0811" gradientTransform="matrix(2.500000e-004 1 -1 -0.001 -4.761165e-004 0)">
		<stop  offset="0" style="stop-color:#FFFFFF"/>
		<stop  offset="1" style="stop-color:#D2DDE3"/>
	</linearGradient>
	<path style="fill-rule:evenodd;clip-rule:evenodd;fill:url(#SVGID_12_);" d="M10.75,83.8l0.4,0.25l0.6,0.351
		c0,0.5-0.017,0.899-0.05,1.199c-0.034,0.134-0.067,0.25-0.1,0.351c-0.133,0.366-0.533,0.6-1.2,0.7c-1.233,0.199-2.683,0.199-4.35,0
		c-0.6-0.067-0.966-0.134-1.1-0.2c-0.2-0.101-0.35-0.367-0.45-0.8c-0.133-0.767,0.017-1.4,0.45-1.9C5.383,83.25,6,82.967,6.8,82.9
		c0.367-0.067,1.05,0.017,2.05,0.25c1.033,0.199,1.583,0.366,1.65,0.5L10.75,83.8z"/>
	<path style="fill-rule:evenodd;clip-rule:evenodd;fill:#BAC5CC;" d="M11.15,84.05c0.133-0.1,0.267-0.184,0.4-0.25
		c1-0.5,1.833-0.8,2.5-0.899c0.367-0.067,0.867-0.084,1.5-0.051c0.333,0,0.817,0.017,1.45,0.051c0.533,0,1.767,0.133,3.7,0.399
		c1.5,0.2,2.716,0.217,3.65,0.05c0.267-0.033,0.717-0.149,1.35-0.35c0.533-0.2,0.967-0.316,1.3-0.35c0.134,0,0.283-0.017,0.45-0.051
		c-1.167,0.733-1.6,1.4-1.3,2c-0.767,0.067-1.434,0.134-2,0.2c-2.3,0.233-4.233,0.351-5.8,0.351c-0.467,0-1.833,0.083-4.1,0.25
		c-0.6,0.033-1.167,0.083-1.7,0.149h-0.5c-0.133,0-0.25,0.017-0.35,0.05c0.033-0.3,0.05-0.699,0.05-1.199L11.15,84.05z M41.65,85.05
		c-0.801-0.7-1.534-1.217-2.2-1.55c-0.033-0.233-0.084-0.467-0.15-0.7c-0.2-0.6-0.55-0.983-1.05-1.149l-4.5-1.25
		c-0.167-0.034-0.333-0.034-0.5,0c-0.134-0.534-0.283-1-0.45-1.4c0.667,1.267,2.084,1.967,4.25,2.1c1.2,0.067,2.934,0,5.2-0.199
		c0.366,1.5,0.2,2.899-0.5,4.199L41.65,85.05z M44.9,111.95l-0.9,0.1c0.2-0.967,0.483-1.934,0.85-2.899
		c0.2-0.601,0.601-1.117,1.2-1.551c0.834-0.6,1.334-1,1.5-1.199c0.233-0.301,0.384-0.7,0.45-1.2c0.1-0.667,0.184-1.101,0.25-1.3
		c0.134-0.334,0.366-0.617,0.7-0.851c0.434-0.3,0.717-0.533,0.85-0.7c0.367-0.5,0.517-1.399,0.45-2.699V89.35
		c0.033-0.899,0-2.133-0.1-3.699C50.05,83.917,50,82.667,50,81.9c0.066-1.334-0.066-2.5-0.4-3.5
		c-0.533-1.567-0.833-2.551-0.899-2.95c-0.167-0.934,0-1.884,0.5-2.851c0.133-0.233,0.566-0.933,1.3-2.1
		c0.533-0.833,0.884-1.6,1.05-2.3c0.334-1.467,0.5-3.217,0.5-5.25c-0.033-2.367-0.05-4.133-0.05-5.3l0.3-0.4v0.05
		c0,0.5,0.017,1.067,0.05,1.7l0.051,1.55c0,0.3,0.017,0.6,0.05,0.9c0,0.066,0,0.15,0,0.25v0.55c0,0.267,0,0.517,0,0.75v0.7
		c0,2.533-0.101,4.649-0.3,6.35c-0.367,3.167-0.467,7.684-0.301,13.55C52.017,89.934,52,94.45,51.8,97.15
		c-0.133,1.866-0.5,3.816-1.1,5.85c-0.7,2.333-1.533,4.1-2.5,5.3c-0.367,0.5-1.167,1.384-2.4,2.65
		c-0.066,0.066-0.116,0.116-0.149,0.149c-0.233,0.267-0.467,0.534-0.7,0.801C44.917,111.9,44.9,111.917,44.9,111.95z"/>
	
		<linearGradient id="SVGID_13_" gradientUnits="userSpaceOnUse" x1="84.624" y1="-0.9648" x2="86.974" y2="-0.9648" gradientTransform="matrix(4.255319e-004 1 -1 -0.001 3.161276e-004 0)">
		<stop  offset="0" style="stop-color:#FFFFFF"/>
		<stop  offset="1" style="stop-color:#D2DDE3"/>
	</linearGradient>
	<path style="fill-rule:evenodd;clip-rule:evenodd;fill:url(#SVGID_13_);" d="M1.25,84.65L2,85.15c0,0.833-0.1,1.35-0.3,1.55
		c-0.233,0.233-0.784,0.283-1.65,0.149c-0.133-0.566,0.017-0.983,0.45-1.25C0.967,85.233,1.217,84.917,1.25,84.65z"/>
	
		<linearGradient id="SVGID_14_" gradientUnits="userSpaceOnUse" x1="86.6113" y1="-1.6348" x2="88.2863" y2="-1.6348" gradientTransform="matrix(5.970148e-004 1 -1 -0.001 2.791629e-004 0)">
		<stop  offset="0" style="stop-color:#FFFFFF"/>
		<stop  offset="1" style="stop-color:#D2DDE3"/>
	</linearGradient>
	<path style="fill-rule:evenodd;clip-rule:evenodd;fill:url(#SVGID_14_);" d="M1,87.15c0.4-0.2,0.817-0.284,1.25-0.25l0.5-0.25
		c-0.033,0.399-0.217,0.8-0.55,1.199C1.8,88.316,1.4,88.4,1,88.1C0.5,87.7,0.5,87.384,1,87.15z"/>
	
		<linearGradient id="SVGID_15_" gradientUnits="userSpaceOnUse" x1="80.3174" y1="-32.7383" x2="85.8174" y2="-32.7383" gradientTransform="matrix(1.818182e-004 1 -1 -0.001 3.683281e-004 0)">
		<stop  offset="0" style="stop-color:#FFFFFF"/>
		<stop  offset="1" style="stop-color:#D2DDE3"/>
	</linearGradient>
	<path style="fill-rule:evenodd;clip-rule:evenodd;fill:url(#SVGID_15_);" d="M39.45,83.5c-0.033,0.3-0.101,0.583-0.2,0.85
		c-0.366,0.733-1.134,1.167-2.3,1.301c-0.767,0.1-1.75,0.133-2.95,0.1c-1.333-0.066-2.333-0.1-3-0.1c-0.934,0.033-1.667,0.033-2.2,0
		c-0.899-0.034-1.583-0.2-2.05-0.5c-0.3-0.167-0.5-0.351-0.6-0.551c-0.3-0.6,0.133-1.267,1.3-2C27.75,82.4,28.1,82.2,28.5,82
		c1.134-0.566,2.134-0.983,3-1.25c0.434-0.134,0.833-0.233,1.2-0.3c0.2-0.033,0.383-0.05,0.55-0.05c0.167-0.034,0.333-0.034,0.5,0
		l4.5,1.25c0.5,0.166,0.85,0.55,1.05,1.149C39.366,83.033,39.417,83.267,39.45,83.5z"/>
	
		<linearGradient id="SVGID_16_" gradientUnits="userSpaceOnUse" x1="79.1182" y1="-31.4863" x2="80.7168" y2="-31.4863" gradientTransform="matrix(6.249999e-004 1 -1 -0.001 2.896948e-004 0)">
		<stop  offset="0" style="stop-color:#FFFFFF"/>
		<stop  offset="1" style="stop-color:#D2DDE3"/>
	</linearGradient>
	<path style="fill-rule:evenodd;clip-rule:evenodd;fill:url(#SVGID_16_);" d="M32.7,80.45c-0.367,0.066-0.767,0.166-1.2,0.3
		c-0.333-0.033-0.733-0.083-1.2-0.15c-0.2-0.399-0.066-0.75,0.4-1.05l-0.2-0.399l2.25,0.25C32.917,79.866,32.9,80.217,32.7,80.45z"
		/>
	
		<linearGradient id="SVGID_17_" gradientUnits="userSpaceOnUse" x1="83.2549" y1="-45.0166" x2="87.9549" y2="-45.0166" gradientTransform="matrix(2.127660e-004 1 -1 -0.001 1.581826e-004 0)">
		<stop  offset="0" style="stop-color:#FFFFFF"/>
		<stop  offset="1" style="stop-color:#D2DDE3"/>
	</linearGradient>
	<path style="fill-rule:evenodd;clip-rule:evenodd;fill:url(#SVGID_17_);" d="M42.5,85.75c-0.1-0.3-0.167-0.55-0.2-0.75
		c-0.033-0.167-0.05-0.3-0.05-0.4c0-0.666,0.283-1.066,0.85-1.199c0.067,0,0.617,0,1.65,0l2.75,1.25
		c0.267,0.533,0.366,1.183,0.3,1.949c-0.033,0.667-0.149,1.067-0.35,1.2c-0.033,0.033-0.084,0.05-0.15,0.05
		c-0.2,0.034-0.566,0.051-1.1,0.051c-1.134,0.033-1.816,0.033-2.05,0c-0.7-0.134-1.167-0.551-1.4-1.25
		c-0.031-0.063-0.048-0.13-0.05-0.2C42.6,86.184,42.533,85.95,42.5,85.75z"/>
	
		<linearGradient id="SVGID_18_" gradientUnits="userSpaceOnUse" x1="100.793" y1="-44.9326" x2="106.018" y2="-44.9326" gradientTransform="matrix(1.913876e-004 1 -1 -0.001 3.869106e-004 0)">
		<stop  offset="0" style="stop-color:#FFFFFF"/>
		<stop  offset="1" style="stop-color:#D2DDE3"/>
	</linearGradient>
	<path style="fill-rule:evenodd;clip-rule:evenodd;fill:url(#SVGID_18_);" d="M43.2,105.75c-0.367-0.2-0.584-0.533-0.65-1
		c-0.066-0.5,0.033-1.033,0.3-1.6c0.2-0.4,0.551-0.767,1.051-1.101c0.066-0.033,0.133-0.083,0.199-0.149c0.733-0.4,1.2-0.733,1.4-1
		l1.25,1c0.333,0.133,0.533,0.5,0.6,1.1c0.034,0.167,0.034,0.366,0,0.6c-0.066,0.9-0.283,1.517-0.649,1.851
		c-0.233,0.2-0.733,0.35-1.5,0.45c-0.8,0.133-1.367,0.133-1.7,0C43.4,105.866,43.3,105.816,43.2,105.75z"/>
	
		<linearGradient id="SVGID_19_" gradientUnits="userSpaceOnUse" x1="110.5967" y1="-40.8945" x2="112.6217" y2="-40.8945" gradientTransform="matrix(4.938271e-004 1 -1 -0.001 4.054819e-004 0)">
		<stop  offset="0" style="stop-color:#FFFFFF"/>
		<stop  offset="1" style="stop-color:#D2DDE3"/>
	</linearGradient>
	<path style="fill-rule:evenodd;clip-rule:evenodd;fill:url(#SVGID_19_);" d="M41,110.9l0.75-0.25c0,0.566-0.1,1.083-0.3,1.55
		c-0.3,0.633-0.684,0.616-1.15-0.05c-0.2-0.267-0.2-0.534,0-0.801C40.467,111.083,40.7,110.934,41,110.9z"/>
	
		<linearGradient id="SVGID_20_" gradientUnits="userSpaceOnUse" x1="111.7939" y1="-43.5303" x2="116.0189" y2="-43.5303" gradientTransform="matrix(2.366864e-004 1 -1 -0.001 1.799814e-004 0)">
		<stop  offset="0" style="stop-color:#FFFFFF"/>
		<stop  offset="1" style="stop-color:#D2DDE3"/>
	</linearGradient>
	<path style="fill-rule:evenodd;clip-rule:evenodd;fill:url(#SVGID_20_);" d="M41.9,113.35c0.3-0.866,0.75-1.267,1.35-1.199
		L44,112.05l0.9-0.1l0.35-0.05c0,0.267,0.05,0.85,0.15,1.75c0.066,0.833,0.017,1.399-0.15,1.699c-0.167,0.334-0.5,0.534-1,0.601
		c-0.033,0-0.066,0-0.1,0c-0.467,0.1-0.917,0.1-1.351,0c-0.033-0.033-0.066-0.05-0.1-0.05c-0.334-0.067-0.566-0.184-0.7-0.351
		c-0.066-0.033-0.1-0.066-0.1-0.1c-0.067-0.101-0.117-0.217-0.15-0.351c-0.1-0.3-0.083-0.783,0.05-1.449
		C41.833,113.55,41.866,113.45,41.9,113.35z"/>
	
		<linearGradient id="SVGID_21_" gradientUnits="userSpaceOnUse" x1="113.4941" y1="-43.6138" x2="124.3191" y2="-43.6138" gradientTransform="matrix(9.237876e-005 1 -1 -0.001 4.666854e-004 0)">
		<stop  offset="0" style="stop-color:#FFFFFF"/>
		<stop  offset="1" style="stop-color:#D2DDE3"/>
	</linearGradient>
	<path style="fill-rule:evenodd;clip-rule:evenodd;fill:url(#SVGID_21_);" d="M44.25,115.95c0.733,0.166,1.217,0.783,1.45,1.85
		c0.2,1,0.2,2.017,0,3.05c-0.233,1.301-0.483,2.15-0.75,2.551c-0.5,0.733-1.3,0.966-2.4,0.699c-0.7-0.166-1.083-0.816-1.149-1.949
		c0.066-1.334,0.1-2.25,0.1-2.75c0-1.733,0.066-2.884,0.2-3.45c0.066-0.2,0.133-0.367,0.2-0.5c0,0.033,0.033,0.066,0.1,0.1
		c0.134,0.167,0.366,0.283,0.7,0.351c0.033,0,0.066,0.017,0.1,0.05c0.434,0.1,0.884,0.1,1.351,0
		C44.184,115.95,44.217,115.95,44.25,115.95z"/>
	
		<linearGradient id="SVGID_22_" gradientUnits="userSpaceOnUse" x1="126.082" y1="-43.0361" x2="128.832" y2="-43.0361" gradientTransform="matrix(3.636364e-004 1 -1 -0.001 -2.481310e-004 0)">
		<stop  offset="0" style="stop-color:#FFFFFF"/>
		<stop  offset="1" style="stop-color:#D2DDE3"/>
	</linearGradient>
	<path style="fill-rule:evenodd;clip-rule:evenodd;fill:url(#SVGID_22_);" d="M44.15,128.15c-0.367,0.733-0.967,0.883-1.801,0.449
		c-0.399-0.199-0.583-0.517-0.55-0.949c0.134-0.534,0.2-0.95,0.2-1.25l2-0.25C44.434,126.816,44.483,127.483,44.15,128.15z"/>
	
		<linearGradient id="SVGID_23_" gradientUnits="userSpaceOnUse" x1="132.332" y1="-43.0684" x2="133.882" y2="-43.0684" gradientTransform="matrix(6.451612e-004 1 -1 -0.001 -1.204150e-004 0)">
		<stop  offset="0" style="stop-color:#FFFFFF"/>
		<stop  offset="1" style="stop-color:#D2DDE3"/>
	</linearGradient>
	<path style="fill-rule:evenodd;clip-rule:evenodd;fill:url(#SVGID_23_);" d="M42.85,133.15c0.101-0.434,0.15-0.684,0.15-0.75
		l0.5,0.75c0.066,0.267,0.066,0.517,0,0.75c-0.267,0.066-0.5,0.05-0.7-0.051C42.733,133.65,42.75,133.417,42.85,133.15z"/>
</g>
</svg>
