<?xml version="1.0" encoding="iso-8859-1"?>
<!-- Generator: Adobe Illustrator 15.1.0, SVG Export Plug-In . SVG Version: 6.00 Build 0)  -->
<!DOCTYPE svg PUBLIC "-//W3C//DTD SVG 1.1//EN" "http://www.w3.org/Graphics/SVG/1.1/DTD/svg11.dtd">
<svg version="1.1" id="Layer_1" xmlns="http://www.w3.org/2000/svg" xmlns:xlink="http://www.w3.org/1999/xlink" x="0px" y="0px"
	 width="203.9px" height="186.55px" viewBox="0 0 203.9 186.55" style="enable-background:new 0 0 203.9 186.55;"
	 xml:space="preserve">
<g>
	<path style="fill-rule:evenodd;clip-rule:evenodd;fill:#898074;" d="M174.4,0l1.6,0.05l-0.05,10.3c-0.667-0.2-1.316-0.55-1.95-1.05
		l-0.4,7.75l2.351-6.6c0.1,3.833,0,7.65-0.3,11.45c-0.434,5.533-0.75,12.983-0.95,22.35l-0.45,8c-0.167,0.467-0.55,0.983-1.15,1.55
		c-0.3,0.7,0.067,1.867,1.101,3.5L173,79.85l-3.7,19.7c-1.566,1.634-2.616,2.7-3.149,3.2c-0.834,0.8-1.95,1.35-3.351,1.65
		c-3.866,0-6.416,0.1-7.649,0.3c0.233-1.134,0.433-1.816,0.6-2.05c0.233-0.301,0.967-0.417,2.2-0.351c3.666,0.2,6.416-0.3,8.25-1.5
		c1.066-0.666,1.833-1.983,2.3-3.95c0.467-2,0.583-4.516,0.35-7.55c-0.199-2.7,0.4-13.483,1.801-32.35
		c1.466-20.034,2.199-32.317,2.199-36.85c0-5.633-0.783-9.1-2.35-10.4c-0.533-0.434-1.434-0.833-2.7-1.2
		c-1.467-0.467-2.6-0.917-3.399-1.35c0.866-2.566,2.133-3.85,3.8-3.85c1.166,0,2.1,0.467,2.8,1.4c0.467,0.667,1.467,2.2,3,4.6
		C174.3,4.6,174.434,1.5,174.4,0z M174.3,57.55c1.5,4.833,2.617,7.767,3.351,8.8c0.267,0.367,0.399,0.95,0.399,1.75
		c0,1.733-0.133,3.7-0.399,5.9c-0.467,4.333-1.184,15.9-2.15,34.7l-0.05-1.7c-0.134-2.333-0.4-5.017-0.8-8.05
		c0.6-18.333,0.966-29.534,1.1-33.6L173.6,76.7C174.167,68.567,174.4,62.183,174.3,57.55z M174.8,45.8l0.05,1.35H175
		c1.129-0.1,1.695-0.25,1.7-0.45c0,0.702-0.117,1.985-0.351,3.85c1.9,0.367,3.301,0.55,4.2,0.55c0.667,0,1.517-1.467,2.55-4.4
		c0.301,0.233,1.101,1.3,2.4,3.2c1.033,1.533,1.85,2.783,2.45,3.75l0.7,1.15c0.466,0.434,2.1,1.35,4.899,2.75
		c1.167,0.6,1.917,1.6,2.25,3c0.134,0.534,0.2,1.284,0.2,2.25c0,1.7-0.217,6.75-0.65,15.15c-0.366,7.767-0.5,16.2-0.399,25.3
		c0.033,2.5,0.116,7.967,0.25,16.4c0.033,8.6-0.05,16.733-0.25,24.399c-0.101,0.533-0.033,1.684,0.2,3.45
		c0.233,1.9,0.533,3.283,0.899,4.15c0,4.1,0.066,7.683,0.2,10.75v0.6l-0.85,1.75l-4.2,1.3c-0.7-2.333-1.05-5.983-1.05-10.95
		c0-5.399,0.816-9.916,2.449-13.55c1.634-3.633,2.45-6.899,2.45-9.8c0-6.6-0.517-12.733-1.55-18.4c-0.833-4.466-1.6-7.133-2.3-8
		l-0.25-16c0.666-12.833,1-19.583,1-20.25c0-1.733-0.45-3.4-1.351-5c-1.166-1.8-2.05-3.233-2.649-4.3c0-2.133-1.316-3.95-3.95-5.45
		s-5.816-2.25-9.55-2.25L174.8,45.8z M158.45,107.65c0.666-0.134,1.267-0.2,1.8-0.2c3.7,0,6.116,0.383,7.25,1.149
		c0.7,0.467,1.05,1.367,1.05,2.7c0,0.334-0.149,1.584-0.45,3.75c-0.3,2.134-0.449,3.367-0.449,3.7c0,1.1,0.333,3.866,1,8.3
		c0.633,4.434,0.949,6.983,0.949,7.65c0,6.333-0.333,14.916-1,25.75c-0.666,11.033-1.333,18.533-2,22.5l-1.25,1.899l-0.05,0.051
		c-0.399,0.267-1.05,0.55-1.95,0.85c1.167-3.366,1.75-6.884,1.75-10.55c-0.233-4.233-0.35-7.601-0.35-10.101
		c0-2.433,0.25-7.783,0.75-16.05c0.467-8.3,0.7-13.517,0.7-15.649c0-7.167-0.617-12.967-1.851-17.4c-1.3-3.3-2.05-5.233-2.25-5.8
		l0.15-2.4l-1.15,1.05c-0.466-0.3-1.05-0.583-1.75-0.85C158.917,107.8,158.616,107.684,158.45,107.65z M186.8,137.95
		c0.134-4.5,0.334-8.75,0.601-12.75c1.899,4.866,2.899,7.483,3,7.85c-0.034,3.033-0.301,5.25-0.801,6.65
		c-0.399,1.1-0.983,1.783-1.75,2.05l0.051-1.3l-0.101,1.25c-0.2-0.267-0.416-0.834-0.649-1.7c-0.167-0.733-0.284-1.4-0.351-2V137.95
		z M159.05,186.5c-0.3-1.4-0.633-2.717-1-3.95l0.7-5.6c0.8,1.066,1.417,2.583,1.85,4.55c0.601,2.7,0.983,4.267,1.15,4.7l-0.45,0.1
		L159.05,186.5z M152.9,169.3c0.5,4.667,0.8,8.15,0.899,10.45c0.033,2.134-0.083,4.25-0.35,6.35l-2.45-0.55
		c-0.066,0-0.134-0.017-0.2-0.05l-0.6-0.2c0-0.033,0.017-0.05,0.05-0.05c0.167-0.9,0.45-3.1,0.85-6.6
		c0.4-3.834,0.634-5.934,0.7-6.301l0.351,0.5C152.45,171.717,152.7,170.533,152.9,169.3z M157.15,107.95
		c-0.7,0.434-1.184,1.35-1.45,2.75c-0.3,0.3-0.733,0.967-1.3,2c-0.634,1.2-1.101,2.05-1.4,2.55c-0.634,0.1-1.8,0.116-3.5,0.05
		c-1.733-0.1-2.767-0.149-3.1-0.149l-1.551,0.1c0.4,1.033,0.584,3.033,0.551,6c-0.801,0.566-2.384,1.233-4.75,2
		c-2.267,0.733-3.717,1.366-4.351,1.9c0.467-2.301,0.8-3.917,1-4.851c0.3-1.6,0.45-3.434,0.45-5.5c0-2.366-0.25-4.934-0.75-7.7
		c-0.5-2.866-0.783-11.916-0.85-27.149c-0.967,13.233-1.717,24-2.25,32.3l-0.25,3.9c-0.034,0.566-0.517,2.733-1.45,6.5
		c0,0.1,0.533,0.533,1.6,1.3c1.167,0.833,2,1.25,2.5,1.25c-0.399,0.967-1,6.533-1.8,16.7c-0.733,9.3-1.1,14.6-1.1,15.899
		c0,0.667,0.083,2.2,0.25,4.601c0.133,0,0.399,0.416,0.8,1.25c0.033-4.134,0.2-8.767,0.5-13.9c0.3-4.733,0.566-7.816,0.8-9.25
		l0.65,0.7c0.3-1.3,0.683-2.5,1.149-3.601c0.267,2.967,0.417,8.551,0.45,16.75c0.033,4.334,0.033,9.417,0,15.25
		c0,0.667,0.316,3.45,0.95,8.351h-0.4l-3.7-0.25l-1.649-0.15c-1.4-2.767-3.25-6.5-5.55-11.2c-2-4.1-4.567-9.216-7.7-15.35l-0.15-0.9
		l-0.2-1.449c0.134-4.4,0.2-8.051,0.2-10.95c0-3.767-0.184-6.617-0.55-8.55c-0.3-1.767-1.15-4.7-2.55-8.801
		c0-0.333-0.584-4.783-1.75-13.35c0.666,1.7,1.1,2.783,1.3,3.25c0.167,0.333,0.483,0.95,0.95,1.85c1.566-1.066,2.7-3.1,3.399-6.1
		c-0.366,0-1.116,0.267-2.25,0.8c-1.066,0.5-1.633,0.75-1.699,0.75c-0.667,0-1.483-1.366-2.45-4.1c-1.467-4.233-2.2-10.35-2.2-18.35
		c0-2.233,0.2-4.717,0.6-7.45c0.667-4.667,1.334-10.9,2-18.7c1.5-1.267,2.334-1.817,2.5-1.65c0.9,1.3,1.617,3.083,2.15,5.35
		c0.434,1.934,1.116,3.317,2.05,4.15c-0.033,0.434-0.283,0.85-0.75,1.25c-0.434,0.4-0.866,0.617-1.3,0.65
		c-0.333-0.034-0.75-0.883-1.25-2.55c-0.934,0.633-1.533,1.467-1.8,2.5c-0.267,0.9-0.4,2.483-0.4,4.75c0,1.467,0.3,4.217,0.9,8.25
		l-0.05,3.7c0,1.033,0.033,3.383,0.1,7.05c0.066,4.433,0.15,7.417,0.25,8.95l0.05-1.449c0.5,1.633,0.834,2.583,1,2.85
		c0.2,0.366,0.667,0.816,1.4,1.35c0.434-0.533,0.733-1.633,0.899-3.3c0.167-1.666,1.051-3.416,2.65-5.25l0.6,2.75l0.051-3.35
		l0.149-0.15c0.467,0.5,0.884,1.134,1.25,1.9c0.4,0.833,0.601,1.517,0.601,2.05c0,1-0.184,3.917-0.551,8.75
		c-0.399,4.8-0.6,7.866-0.6,9.2c0,2.633,0.434,5.816,1.3,9.55c0.8,3.667,1.767,6.8,2.9,9.4l0.45,1.25
		c1.199-4.434,1.75-7.567,1.649-9.4c-0.434-7.066-0.649-11.017-0.649-11.85c0-1.5,0.733-11.45,2.199-29.851
		c1.634-20.367,2.551-32.1,2.75-35.2l0.051-1.75c0.5,7.967,1.433,17.383,2.8,28.25c1.467,11.7,2.416,20.383,2.85,26.05l0.05,0.05
		c0.434,1.166,0.801,3.383,1.101,6.649c0.166,1.4,1.033,2.101,2.6,2.101c6.233,0,9.65-1.45,10.25-4.351l0.55-0.199l-0.5,1.3
		C155.35,108.434,156.116,108.184,157.15,107.95z M136.4,141.2l-0.2,3.3c0,0.233,0.1,2.1,0.3,5.6c0.233,3.434,0.333,5.45,0.3,6.051
		c0.5-5.567,0.75-8.784,0.75-9.65c0-1.4-0.133-2.533-0.399-3.4C136.816,142.267,136.566,141.634,136.4,141.2z M85.6,138.55l3.8-1
		c5.267-0.066,9.684-0.333,13.25-0.8c3,0,4.933,3.467,5.8,10.4c0.467,3.5,0.616,7.25,0.45,11.25c0,1.666,0.233,3.8,0.699,6.399
		c0.434,2.601,0.65,4.117,0.65,4.55c0,6.034-1.15,10.384-3.45,13.051l-2.899,0.25c-3.5,0.699-6.067,1.166-7.7,1.399
		c0.267-4.5,0.35-7.566,0.25-9.2c2,0.434,3.183,0.667,3.55,0.7c0.067-1.1,0.5-1.8,1.3-2.1c0.834-0.267,1.351-1.667,1.55-4.2
		c0.167-2.033,0.301-5.2,0.4-9.5c0.1-3.366,0.15-5.583,0.15-6.65c0-1.533-0.351-3.649-1.051-6.35
		c-0.767-2.967-1.233-5.983-1.399-9.05c-0.733,0.366-1.883,0.717-3.45,1.05c-2.067,0.467-3.833,0.6-5.3,0.4L85.6,138.55z
		 M93.3,184.15c-2.033-0.267-3.65-0.667-4.85-1.2l0.05-0.101c-0.067-1.466,0-2.55,0.2-3.25c0.4-1.233,1.517-1.683,3.35-1.35
		c0-3.267,0.1-6.983,0.3-11.15c0.066-1.833,0.15-3.449,0.25-4.85c0.066,0.6,0.183,1.4,0.35,2.4c0.3,2.233,0.633,4.149,1,5.75
		l-0.05,2.649c0,1.033,0.184,2.184,0.55,3.45l0.65-1.35c0.033,1.833-0.184,3.733-0.65,5.699
		C94.05,182.517,93.667,183.616,93.3,184.15z M66.35,64.45c0.1-0.133,0.6-0.867,1.5-2.2c0.667-0.967,1.267-1.75,1.8-2.35
		c-0.066,1.4-0.8,5.017-2.2,10.85c-1.367,5.5-2.05,10.55-2.05,15.15c0,0.533,0.7,4.25,2.1,11.15c0.1,0.767,0.183,2.4,0.25,4.9
		c0.1,2.934,0.217,5.25,0.35,6.95c0.167,2,0.3,5.033,0.4,9.1c0.067,3.267,0.233,5.634,0.5,7.1c0.733,4.367,3.233,7.45,7.5,9.25
		L76,134.45l-1.7,0.149l-0.15,0.851c-0.1,0.7-0.133,1.366-0.1,2l-2.4,0.2c1.467,5.066,2.117,8.783,1.95,11.149
		c-0.533,7.667-0.8,11.566-0.8,11.7c0,4,0.567,7.55,1.7,10.65c0.6,1.6,1.267,3.267,2,5l-0.05,0.35
		c-1.767-0.634-3.483-1.15-5.15-1.55h-0.05c-0.333-0.033-1.533-0.134-3.6-0.3c0.167-0.567,0.25-1.184,0.25-1.851
		c0-2.267-0.383-4.483-1.15-6.649c0-0.867-0.317-6.267-0.95-16.2c-0.7-10.8-1.117-18.066-1.25-21.8
		c0.367-5.634,0.55-9.617,0.55-11.95l-0.8-30.9l0.2-5.65L66.35,64.45z M59.3,125.45l-0.6,8.149l-0.2,1.25
		c-0.267,0.067-0.817,0.117-1.65,0.15c-0.833,0-1.25-0.033-1.25-0.1c0.133,0.966,0.633,3.3,1.5,7c0.8,3.267,1.2,5.517,1.2,6.75
		c0,1.166-0.6,3-1.8,5.5c-2.733,5.767-4.533,9.633-5.4,11.6l-0.2,0.75c0.133-1.4,0.333-4.15,0.6-8.25c0.267-4.134,0.4-6.45,0.4-6.95
		c-0.3-12.967-0.35-21.866-0.15-26.7c-0.933,7.233-1.767,15.134-2.5,23.7c-0.667,7.934-1.083,12.417-1.25,13.45
		c-0.033,0.233-0.067,1.167-0.1,2.8c-0.133,1.867-0.55,3.517-1.25,4.95c-1.133,2.434-2.867,4.333-5.2,5.7c-2.233,1-3.5,1.6-3.8,1.8
		l-2.25-0.25l0.1-3.35V173.3c2.733-0.733,4.667-3.383,5.8-7.95c0.833-3.333,2.034-11.883,3.6-25.649
		c-0.167,4.434-0.333,9.517-0.5,15.25c-0.2,4.233-0.6,8.217-1.2,11.95c1.767-0.967,2.883-2.301,3.35-4
		c0.167-0.7,0.667-4.517,1.5-11.45c0.167-1.5,0.4-6.101,0.7-13.8c0.267-7.601,0.417-11.5,0.45-11.7
		c0.733-4.967,2.433-10.75,5.1-17.351c2.3-5.633,3.45-10.267,3.45-13.899c0-3.8-0.533-9.633-1.6-17.5
		c-0.967-6.934-1.367-10.733-1.2-11.4c0.6,1.133,2.167,6.534,4.7,16.2c0,0.667-0.333,5.033-1,13.1c0,4.101,0.217,7.567,0.65,10.4
		c0.333,2.267,0.383,7.85,0.15,16.75L59.3,125.45z M62,171.6c-0.3,0.834-0.483,1.817-0.55,2.95c-2.6,0.267-4.3,0.5-5.1,0.7
		l-0.7,0.15c0.067-2,0.517-3.601,1.35-4.801c1.733-2.466,2.717-3.933,2.95-4.399C61.55,167.667,62.233,169.467,62,171.6z
		 M33.85,166.95c0,0.033-0.333,1.45-1,4.25c-0.7,2.899-1.067,4.583-1.1,5.05l-7.95-1.8c1.434,0,2.65-0.867,3.65-2.601
		c0.952-1.608,1.452-3.542,1.5-5.8c0.014,1.073,0.248,2.74,0.7,5c0.133,1.967-0.35,3.05-1.45,3.25l2.75-0.25
		c0.333-3.133,1.083-7.166,2.25-12.1c1.133-4.4,1.716-6.851,1.75-7.351c-0.067,1.801-0.1,3.384-0.1,4.75
		C34.817,160.616,34.483,163.15,33.85,166.95z M10.65,141.5c0.1,0.533-0.3,2.5-1.2,5.9c-1,3.899-2.05,6.883-3.15,8.949
		c-1.733,0-3.216-0.5-4.45-1.5S0,152.634,0,151.2c0.8,0.566,1.617,0.85,2.45,0.85c0.367,0,0.767-0.316,1.2-0.95
		c1.367-2.1,2.067-3.166,2.1-3.199l0.65-0.75c0.033,0.533,0.033,1.333,0,2.399c-0.066,1.134-0.133,1.7-0.2,1.7l0.1,0.9l1.4,0.25
		c0.267-1.801,0.583-4.551,0.95-8.25c0.167-0.267,0.517-0.851,1.05-1.75c0.566-0.967,0.867-1.517,0.9-1.65L10.65,141.5z M27.3,62.45
		c0.767,0,1.417,0.517,1.95,1.55s0.8,2.267,0.8,3.7c0,0.167,0.25,2.45,0.75,6.85c0.5,4.7,0.75,7.9,0.75,9.6
		c0,0.267-0.367,3.767-1.1,10.5c-3.434,12.3-5.567,21.666-6.4,28.1c-0.466,3.267-0.683,6.316-0.65,9.15v0.199l-0.05,0.301L22.7,137
		c-0.534,2.233-0.967,4.033-1.3,5.4l-0.1,0.5c-0.066,0.233-0.133,0.466-0.2,0.699l-0.15,0.601c-0.067,0.133-0.117,0.283-0.15,0.45
		c-0.033,0.166-0.066,0.316-0.1,0.449l-1.55,5.45c-0.066,0.167-0.117,0.4-0.15,0.7c-0.1,0.233-0.367,0.35-0.8,0.35
		c-0.534,0-0.85-0.149-0.95-0.449c-0.067-0.134-0.1-0.584-0.1-1.351c-2.066,2.5-3.15,3.8-3.25,3.9l0.6-1.9l0.1-0.85
		c-0.167,0.6-0.5,1.399-1,2.399c-0.967,1.834-1.983,3.034-3.05,3.601l-1.5-0.15c0.267-1.733,0.583-4.149,0.95-7.25
		c0.333-2.434,0.55-4.133,0.65-5.1c-0.133,1.633-0.383,4.35-0.75,8.149c2.167,0.267,3.25-0.699,3.25-2.899
		c0-0.566-0.15-1.4-0.45-2.5c-0.3-1.134-0.617-2.05-0.95-2.75c-0.2-0.4-0.3-0.884-0.3-1.45c0-0.767,0.117-2.384,0.35-4.85l0.5-0.7
		l1.2,2.399l-0.35,6.65l-0.2,1.5c1.233-3.8,2.6-6.917,4.1-9.35c0.8-1.334,1.883-3,3.25-5c2.1-3.867,3.534-12.584,4.3-26.15
		c0.167-3.1,0.883-5.566,2.15-7.4c1.333-2,2.083-3.767,2.25-5.3c0.3-2.566,0.5-5.783,0.6-9.65c0-0.667,0-2.617,0-5.85
		C29.6,74.433,28.833,68.817,27.3,62.45z M60.1,62.2c-0.133,0.533-0.15,1.383-0.05,2.55c0.067,0.667,0.184,1.783,0.35,3.35
		c-0.033,0.133-0.133,0.267-0.3,0.4c-0.267-0.3-0.483-0.967-0.65-2c-0.233-1.4-0.65-2.817-1.25-4.25L60.1,62.2z M102.45,38.55
		c-0.101-0.2-1.567-0.533-4.4-1l1.45-0.85c0.167-0.167,1.033-0.317,2.6-0.45c0.934,0.033,1.817,0.1,2.65,0.2l0.55,0.05
		c0.533,0.033,1.05,0.1,1.55,0.2v0.05c-0.1,3.833-0.25,6.367-0.449,7.6c-0.067,0.467-0.434,1.867-1.101,4.2l0.15-7.6
		c0-0.034-0.25-0.05-0.75-0.05C103.533,39.567,102.783,38.783,102.45,38.55z M176,150.4c-0.066,2.633,0.45,4.683,1.55,6.149
		c0.7,1,1.316,1.5,1.851,1.5c0.866,0,1.583-0.633,2.149-1.899l0.75-1.15c0,0.9-0.133,2.85-0.399,5.85c0,1,0.566,2.017,1.699,3.051
		c0.9-0.834,1.601-2.284,2.101-4.351c-0.566,3.667-2.217,5.5-4.95,5.5c-0.667,0-1.267-0.149-1.8-0.45c-0.601-0.3-0.934-0.716-1-1.25
		l-0.7,5.801c-1.467-14.867-2.2-24.467-2.2-28.801C175.583,145.05,175.9,148.4,176,150.4z M102.85,90.5
		c-0.333-1.1-0.649-2.167-0.949-3.2c-1-3.633-1.5-7.867-1.5-12.7c0-3.833,0.583-7.783,1.75-11.85c1.333-3.967,2.166-6.667,2.5-8.1
		l1.1,15.7c0.167-0.767,0.767-2.567,1.8-5.4c1.2-3.333,2.066-5.217,2.601-5.65l0.55,0.65c-0.167,1-0.5,2.867-1,5.6
		c-0.4,2.567-0.584,4.784-0.55,6.65c0.1,4.633-0.317,7.617-1.25,8.95c-0.467,0.667-0.95,1.083-1.45,1.25c0,2.667,0.7,5.5,2.1,8.5
		c1.367,3,2.05,5.75,2.05,8.25c0,1.6-0.166,5.616-0.5,12.05c-0.199,3.866-0.583,11-1.149,21.399
		c-0.233-1.966-1.05-10.149-2.45-24.55c-0.634-6.533-1.55-11.45-2.75-14.75l-0.1-0.35c-0.267-0.9-0.534-2.017-0.801-3.35
		C102.85,89.9,102.85,90.2,102.85,90.5z M90,133.45c1.433,0.033,3.35,0.066,5.75,0.1c1.9,0.033,3.317,0.017,4.25-0.05
		c-0.9,0.233-2.15,0.366-3.75,0.4C94.217,133.934,92.133,133.783,90,133.45z M20.75,157.5c0.6-3.533,1.017-6.5,1.25-8.9
		c0.167-0.166,0.55-1.316,1.15-3.449c0.567-2.067,0.867-3.284,0.9-3.65c0.1,1.3-0.333,4.217-1.3,8.75c-1,4.767-1.5,7.2-1.5,7.3
		L20.75,157.5z M119.15,172.9c-0.233,2.466-0.551,4.466-0.95,6c-0.033-0.867-0.3-2.483-0.8-4.851c0.1-2.333,0.149-4.7,0.149-7.1
		C118.517,169.85,119.05,171.833,119.15,172.9z"/>
	<path style="fill-rule:evenodd;clip-rule:evenodd;fill:#7C7367;" d="M175.95,10.35v0.1l-2.351,6.6L174,9.3
		C174.634,9.8,175.283,10.15,175.95,10.35z M174.4,0c0.033,1.5-0.101,4.6-0.4,9.3c-1.533-2.4-2.533-3.933-3-4.6
		c-0.7-0.934-1.634-1.4-2.8-1.4c-1.667,0-2.934,1.284-3.8,3.85l-0.65,5.65c-0.233,0.633-0.417,1.567-0.55,2.8
		c-0.066,0.733-0.184,2-0.351,3.8c-0.966-2.933-1.683-6.066-2.149-9.4l-0.3-1c-0.2-0.367-0.417-0.7-0.65-1
		c-0.467-0.533-0.95-0.8-1.45-0.8c-1.6,0.767-2.45,1.15-2.55,1.15c-0.434,0-0.816-0.117-1.15-0.35
		c-0.366-0.267-0.666-0.483-0.899-0.65v-1.3c1.066-0.066,4-1.05,8.8-2.95C167.233,1.233,171.2,0.2,174.4,0z M174.7,44.25l0.1,1.55
		l-0.35,6.3l-0.2,0.15L174.7,44.25z M196.25,163l0.1,1.55l-0.199,0.05l-0.75,0.15L196.25,163z M191.2,166.05l-0.3,0.101
		c-0.867-4.367-1.517-7.733-1.95-10.101c-0.733-4.2-1.15-7.85-1.25-10.95c-0.033,8.934-0.351,14.75-0.95,17.45
		c-0.2,1.066-1.217,3.367-3.05,6.9l-1.75,0.95c-0.634,0.399-1.367,0.916-2.2,1.55c-1.6,1.267-3.583,3.166-5.95,5.7
		c-0.666-3.801-1.184-7.634-1.55-11.5c-0.2-2.101-0.434-5.4-0.7-9.9c0.167-1.233,0.25-10.566,0.25-28
		c-0.066,1.8-0.166,5.233-0.3,10.3c-0.1,4.767-0.15,7.45-0.15,8.05l0.101,9.65h0.1c-0.434,7.5-0.95,13.116-1.55,16.85
		c-0.8,4.9-1.934,8.184-3.4,9.851c0.667-3.967,1.334-11.467,2-22.5c0.667-10.834,1-19.417,1-25.75c0-0.667-0.316-3.217-0.949-7.65
		c-0.667-4.434-1-7.2-1-8.3c0-0.333,0.149-1.566,0.449-3.7c0.301-2.166,0.45-3.416,0.45-3.75c0-1.333-0.35-2.233-1.05-2.7
		c-1.134-0.767-3.55-1.149-7.25-1.149c-0.533,0-1.134,0.066-1.8,0.2c-0.101-0.034-0.167-0.051-0.2-0.051c-0.4,0-0.733,0.101-1,0.301
		h-0.05v0.05h-0.05c-1.034,0.233-1.801,0.483-2.301,0.75l0.5-1.3c0.7-0.134,1.684-0.284,2.95-0.45c1.233-0.134,2.101-0.2,2.601-0.2
		c6.533,0,10.35,2.2,11.449,6.6c0.567,2.233,0.483,4.584-0.25,7.051c0,0.733,0.2,1.383,0.601,1.949l0.6,0.551
		c0.167-0.634,0.4-3.65,0.7-9.051c0.267-5.066,0.483-10.033,0.65-14.899c0.399,3.033,0.666,5.717,0.8,8.05v2.85
		c-0.033,7.7-0.167,17.867-0.4,30.5c0,4.334,0.733,13.934,2.2,28.801l0.7-5.801c0.066,0.534,0.399,0.95,1,1.25
		c0.533,0.301,1.133,0.45,1.8,0.45c2.733,0,4.384-1.833,4.95-5.5c0-0.2,0.017-0.416,0.05-0.649c0.167-7.467,0.483-14.551,0.95-21.25
		l0.1,0.3V138c0.066,0.6,0.184,1.267,0.351,2c0.233,0.866,0.449,1.434,0.649,1.7l-0.05,2.6l0.1-2.55
		c0.767-0.267,1.351-0.95,1.75-2.05c0.5-1.4,0.767-3.617,0.801-6.65l0.149-2.35c0-3.267,0.15-8.584,0.45-15.95l-0.15-5.5l0.351-3.9
		c0.7,0.867,1.467,3.534,2.3,8c1.033,5.667,1.55,11.801,1.55,18.4c0,2.9-0.816,6.167-2.45,9.8c-1.633,3.634-2.449,8.15-2.449,13.55
		C190.15,160.066,190.5,163.717,191.2,166.05z M158.05,182.55c0.367,1.233,0.7,2.55,1,3.95c-0.2,0-0.416,0.017-0.649,0.05
		L155.8,186.4l-0.35-0.051l0.399-7.149l0.2-1.351L158.05,182.55z M111.65,60.6c0.5,0.233,1.3,0.35,2.399,0.35
		c0.101-0.833,0.283-1.5,0.55-2c-0.666,7.8-1.333,14.033-2,18.7c-0.399,2.733-0.6,5.217-0.6,7.45c0,8,0.733,14.117,2.2,18.35
		c0.967,2.733,1.783,4.1,2.45,4.1c0.066,0,0.633-0.25,1.699-0.75c1.134-0.533,1.884-0.8,2.25-0.8c-0.699,3-1.833,5.033-3.399,6.1
		c-0.467-0.899-0.783-1.517-0.95-1.85c-0.2-0.467-0.634-1.55-1.3-3.25c-1.566-4.134-2.5-6.616-2.8-7.45l0.6,34.2
		c0,0.6-0.217,3.083-0.65,7.45c-0.433,4.366-0.649,7.483-0.649,9.35c0,3.167,0.383,5.95,1.149,8.351
		c0.767,2.399,1.15,4.649,1.15,6.75c0,2.833-0.35,5.116-1.05,6.85c-0.533,1.267-1.917,4.533-4.15,9.8l-1.75,0.101
		c2.3-2.667,3.45-7.017,3.45-13.051c0-0.433-0.217-1.949-0.65-4.55c-0.466-2.6-0.699-4.733-0.699-6.399
		c0.166-4,0.017-7.75-0.45-11.25c-0.867-6.934-2.8-10.4-5.8-10.4c-3.567,0.467-7.984,0.733-13.25,0.8l4.15-2.2
		c-3.833-0.166-9.683-0.466-17.55-0.899l0.5-0.101c1.167-0.233,3.383-0.483,6.65-0.75c3.633-0.3,5.917-0.35,6.85-0.149
		c2.133,0.333,4.217,0.483,6.25,0.45c1.6-0.034,2.85-0.167,3.75-0.4c1.8-1.967,2.783-7.4,2.95-16.3c-0.167-11.3-0.2-20.2-0.101-26.7
		c0-0.3,0-0.6,0-0.9c0.267,1.333,0.534,2.45,0.801,3.35l0.1,0.35c1.2,3.3,2.116,8.217,2.75,14.75c1.4,14.4,2.217,22.584,2.45,24.55
		c0.566-10.399,0.95-17.533,1.149-21.399c0.334-6.434,0.5-10.45,0.5-12.05c0-2.5-0.683-5.25-2.05-8.25c-1.399-3-2.1-5.833-2.1-8.5
		c0.5-0.167,0.983-0.583,1.45-1.25c0.933-1.333,1.35-4.316,1.25-8.95c-0.034-1.867,0.149-4.083,0.55-6.65c0.5-2.733,0.833-4.6,1-5.6
		L111.65,60.6z M110.15,47.55c-0.034,0.4-0.184,1.767-0.45,4.1c-0.167,1.8-0.267,3.2-0.3,4.2l0.199,2.05l0.551,1.4
		c-0.534,0.434-1.4,2.317-2.601,5.65c-1.033,2.833-1.633,4.633-1.8,5.4l-1.1-15.7c0.133-2.5,0.35-4.533,0.649-6.1
		c0.667-2.333,1.033-3.733,1.101-4.2c0.199-1.233,0.35-3.767,0.449-7.6V36.7l1.101,0.35c2.333,0.833,3.066,4.317,2.2,10.45V47.55z
		 M96.2,184.05c-0.667,0.066-1.633,0.101-2.9,0.101c0.367-0.534,0.75-1.634,1.15-3.301c0.466-1.966,0.683-3.866,0.65-5.699
		l0.05-1.25l0.25,0.6l0.3-3.75c0.466,2.134,0.716,3.5,0.75,4.1C96.55,176.483,96.467,179.55,96.2,184.05z M66.05,174.55
		c0.4-3,0.633-5.8,0.7-8.399c0.767,2.166,1.15,4.383,1.15,6.649c0,0.667-0.083,1.283-0.25,1.851L66.05,174.55z M61.45,174.55
		c0.066-1.133,0.25-2.116,0.55-2.95l-0.15,2.95H61.45z M51.9,176.45l1.95-6.75c-3.7,3.7-5.934,6.217-6.7,7.55
		c-3.133,0.033-6.3-0.05-9.5-0.25c0.3-0.2,1.567-0.8,3.8-1.8c2.333-1.367,4.066-3.267,5.2-5.7c0.7-1.434,1.117-3.083,1.25-4.95
		c0.033-1.633,0.067-2.566,0.1-2.8c0.167-1.033,0.583-5.517,1.25-13.45c0.733-8.566,1.567-16.467,2.5-23.7
		c-0.2,4.834-0.15,13.733,0.15,26.7c0,0.5-0.133,2.816-0.4,6.95c-0.267,4.1-0.467,6.85-0.6,8.25l0.2-0.75
		c0.867-1.967,2.667-5.833,5.4-11.6c1.2-2.5,1.8-4.334,1.8-5.5c0-1.233-0.4-3.483-1.2-6.75c-0.867-3.7-1.367-6.034-1.5-7
		c0,0.066,0.417,0.1,1.25,0.1c0.833-0.033,1.383-0.083,1.65-0.15l0.2-1.25c0.066,1.2,0.2,4.267,0.4,9.2
		c0.167,4.834,0.25,7.517,0.25,8.05c0,3.733-0.483,6.567-1.45,8.5c-1.467,2.867-2.5,5.817-3.1,8.851c0.534-1,1.483-1.634,2.85-1.9
		c0.9-0.2,1.667-0.233,2.3-0.1c-0.233,0.467-1.217,1.934-2.95,4.399c-0.833,1.2-1.283,2.801-1.35,4.801l-0.7,0.199L51.9,176.45z
		 M35.7,170.2v-1.8c-0.067,0-0.167-0.134-0.3-0.4c-0.233-0.5-0.383-0.8-0.45-0.9c-0.934,0.7-1.467,2.217-1.6,4.551
		c-0.067,1.267-0.1,2.883-0.1,4.85c-0.5-0.066-1-0.15-1.5-0.25c0.033-0.467,0.4-2.15,1.1-5.05c0.667-2.8,1-4.217,1-4.25
		c1.633-5.967,2.483-12.167,2.55-18.601c0.033,0,0.233-0.316,0.6-0.949l0.25,5.199c0,3.567-0.1,6.4-0.3,8.5
		C36.883,161.733,36.467,164.767,35.7,170.2z M60.4,68.1c0.1,1.533,0.45,4.566,1.05,9.1c0.267,7.7-0.3,21.767-1.7,42.2l-0.3,2.85
		c0.233-8.9,0.183-14.483-0.15-16.75c-0.433-2.833-0.65-6.3-0.65-10.4c0.667-8.066,1-12.433,1-13.1
		c-2.533-9.667-4.1-15.067-4.7-16.2c-0.067-0.133-1.2-1.517-3.4-4.15c1.833,0,4.05,0.2,6.65,0.6c0.6,1.433,1.017,2.85,1.25,4.25
		c0.167,1.033,0.383,1.7,0.65,2C60.267,68.367,60.367,68.233,60.4,68.1z M174.2,57.3l0.1,0.25c0.101,4.633-0.133,11.017-0.7,19.15
		l-0.6,3.15L174.2,57.3z M162.8,104.4c1.4-0.301,2.517-0.851,3.351-1.65c0.533-0.5,1.583-1.566,3.149-3.2
		c0,1.334-0.633,2.483-1.899,3.45C166.134,103.934,164.6,104.4,162.8,104.4z M111.6,93.8c0,0.733,0.117,2.65,0.351,5.75h0.2
		l-0.2-11.85C111.936,88.829,111.818,90.862,111.6,93.8z M24.05,141.5c-0.033,0.366-0.333,1.583-0.9,3.65
		c-0.6,2.133-0.983,3.283-1.15,3.449l1.35-16.199l0.05-0.301V131.9c-0.033-2.834,0.184-5.884,0.65-9.15
		c0.833-6.434,2.967-15.8,6.4-28.1l1.05-3.7c0,2.367-0.7,7.45-2.1,15.25c-0.733,4.033-1.566,8.483-2.5,13.35
		c-0.533,3.566-1.033,7.634-1.5,12.2C25,135.55,24.55,138.8,24.05,141.5z M10.55,156.95c1.067-0.566,2.083-1.767,3.05-3.601
		c0.5-1,0.833-1.8,1-2.399l-0.1,0.85l-0.6,1.9l-2.75,3.3L10.55,156.95z M64.55,128.15c-0.367-16.801-0.9-29.684-1.6-38.65l1.55-9.85
		l-0.2,5.65l0.8,30.9C65.1,118.533,64.917,122.517,64.55,128.15z M35.1,176.7l0.4-3.3l-0.1,3.35L35.1,176.7z M116.7,120.35
		c1.399,4.101,2.25,7.034,2.55,8.801c0.366,1.933,0.55,4.783,0.55,8.55c0,2.899-0.066,6.55-0.2,10.95
		c-0.333-3.233-0.533-6.733-0.6-10.5v-0.7l-0.6,10.6c-0.301-1.6-0.601-3.267-0.9-5c-0.6-3.434-0.9-6.8-0.9-10.1
		C116.767,126.783,116.8,122.583,116.7,120.35z M127.95,177.3c-1.066-2.733-2.167-5.75-3.3-9.05c-2.2-6.533-3.767-12.283-4.7-17.25
		c3.133,6.134,5.7,11.25,7.7,15.35c2.3,4.7,4.149,8.434,5.55,11.2L127.95,177.3z M117.55,166.95l0.3-6.65
		c0.5,0.8,0.884,2.017,1.15,3.65c0.233,1.333,0.35,2.666,0.35,4c0,1.434-0.066,3.083-0.199,4.95
		C119.05,171.833,118.517,169.85,117.55,166.95z M117,179.45l0.4-5.4c0.5,2.367,0.767,3.983,0.8,4.851l-0.05,0.05L117,179.45z"/>
	<path style="fill-rule:evenodd;clip-rule:evenodd;fill:#9B9286;" d="M183.1,46.7c-1.033,2.933-1.883,4.4-2.55,4.4
		c-0.899,0-2.3-0.184-4.2-0.55c0.233-1.864,0.351-3.148,0.351-3.85c-0.005,0.2-0.571,0.35-1.7,0.45c0.3-0.167,1.083-0.433,2.35-0.8
		c1.367-0.4,2.284-0.6,2.75-0.6C181,45.75,182,46.067,183.1,46.7z M191.2,166.05l4.2-1.3l0.75-0.15
		c-2.301,0.634-4.567,1.367-6.801,2.2l1.551-0.649L191.2,166.05z M173.05,178.45l0.75-0.8c2.367-2.534,4.351-4.434,5.95-5.7
		c0.833-0.634,1.566-1.15,2.2-1.55C180.184,171.6,177.217,174.283,173.05,178.45z M187.85,141.75l-0.1,2.55l0.05-2.6l0.101-1.25
		L187.85,141.75z M190.4,133.05c-0.101-0.366-1.101-2.983-3-7.85c-0.267,4-0.467,8.25-0.601,12.75l-0.1-0.3
		c-0.467,6.699-0.783,13.783-0.95,21.25c-0.033,0.233-0.05,0.449-0.05,0.649c-0.5,2.066-1.2,3.517-2.101,4.351
		c-1.133-1.034-1.699-2.051-1.699-3.051c0.267-3,0.399-4.949,0.399-5.85l-0.75,1.15c-0.566,1.267-1.283,1.899-2.149,1.899
		c-0.534,0-1.15-0.5-1.851-1.5c-1.1-1.467-1.616-3.517-1.55-6.149c0.9-11.801,1.35-17.767,1.35-17.9
		c0.733-11.967,1.25-25,1.551-39.1l0.1,1.4c0.134,2.267,0.35,7.45,0.65,15.55c0.466,7.467,1.216,12.467,2.25,15
		c0.199-1.267,0.466-3.933,0.8-8c0.3-3.833,0.45-6.233,0.45-7.199c0-5.9-0.367-12.967-1.101-21.2s-1.1-15.284-1.1-21.15
		c0-0.667,0.233-1.566,0.7-2.7c0.533-1.2,0.883-2.067,1.05-2.6c0.267-0.767,1.017-1.367,2.25-1.8c0.7-0.267,1.7-0.567,3-0.9
		c0.6,1.067,1.483,2.5,2.649,4.3c0.9,1.6,1.351,3.267,1.351,5c0,0.667-0.334,7.417-1,20.25l0.25,16l-0.351,3.9l0.15,5.5
		c-0.3,7.366-0.45,12.684-0.45,15.95L190.4,133.05z M162.1,110.2c0.2,0.566,0.95,2.5,2.25,5.8c1.233,4.434,1.851,10.233,1.851,17.4
		c0,2.133-0.233,7.35-0.7,15.649c-0.5,8.267-0.75,13.617-0.75,16.05c0,2.5,0.116,5.867,0.35,10.101c0,3.666-0.583,7.184-1.75,10.55
		c-0.666,0.233-1.35,0.417-2.05,0.55l0.45-0.1c-0.167-0.434-0.55-2-1.15-4.7c-0.433-1.967-1.05-3.483-1.85-4.55l-0.7,5.6l-2-4.7
		l-0.2,1.351l-0.399,7.149l-2-0.25c0.267-2.1,0.383-4.216,0.35-6.35c-0.1-2.3-0.399-5.783-0.899-10.45
		c1.267-19.934,1.899-31.684,1.899-35.25c-0.566-6.133-0.85-9.533-0.85-10.2c0-0.733,0.116-1.283,0.35-1.649
		c0.267-0.4,0.733-0.667,1.4-0.8c0.399,0.333,0.783,0.949,1.149,1.85c0.367,0.9,0.551,1.684,0.551,2.35l0.25-3.25
		c0.5,0.167,1.149,0.551,1.949,1.15c0.934,0.667,1.7,1.384,2.301,2.15c0.166-0.733,0.25-1.5,0.25-2.301
		C161.917,119.417,161.9,115.033,162.1,110.2z M151.8,172.35c-0.066,0.367-0.3,2.467-0.7,6.301c-0.399,3.5-0.683,5.699-0.85,6.6
		c-1.033-0.566-2.667-1.7-4.9-3.4c-2.899-2.233-5.166-3.533-6.8-3.899h0.4c-0.634-4.9-0.95-7.684-0.95-8.351
		c0.033-5.833,0.033-10.916,0-15.25c-0.033-8.199-0.184-13.783-0.45-16.75c0.667-0.866,1.917-1.683,3.75-2.449
		c1.634-0.667,2.917-1,3.851-1c0.833,0,1.949,0.466,3.35,1.399c1.434,0.9,2.4,1.351,2.9,1.351s0.783,0,0.85,0l0.05,3.75
		c0,2.399-0.333,6.883-1,13.449c-0.7,6.601-1.05,10.467-1.05,11.601c0,0.333,0.184,1.366,0.55,3.1
		C151.233,170.634,151.566,171.816,151.8,172.35z M127.95,177.3l5.25,0.25l1.649,0.15l-8.8-0.351L127.95,177.3z M118.15,178.95
		l0.85-0.3l-2.25,0.949l0.25-0.149L118.15,178.95z M96.45,174.85c-0.034-0.6-0.284-1.966-0.75-4.1
		c0.867-7.866,1.367-14.384,1.5-19.55c-2.333,2.934-3.617,4.6-3.85,5c-0.567,1.767-0.85,3.366-0.85,4.8c0,0.233,0.033,0.65,0.1,1.25
		c-0.1,1.4-0.184,3.017-0.25,4.85c-0.2,4.167-0.3,7.884-0.3,11.15c-1.833-0.333-2.95,0.116-3.35,1.35c-0.2,0.7-0.267,1.784-0.2,3.25
		c-10.2-4.899-15.933-7.533-17.2-7.899c1.667,0.399,3.383,0.916,5.15,1.55l0.05-0.35c-0.733-1.733-1.4-3.4-2-5
		c-1.133-3.101-1.7-6.65-1.7-10.65c0-0.134,0.267-4.033,0.8-11.7c0.167-2.366-0.483-6.083-1.95-11.149l2.4-0.2
		c0.067,0.2,1.15,0.517,3.25,0.95l-2.25,0.1c-0.2,5.9-0.533,12.85-1,20.85c0,0.601,0.083,1.784,0.25,3.551
		c0.2,1.933,0.383,3.333,0.55,4.199l0.15-0.5c-0.133-6.166-0.05-10.483,0.25-12.949c0.5-4.267,2.633-6.4,6.4-6.4
		c0.133,0,0.75,0.35,1.85,1.05c0.167-0.1,0.333-0.3,0.5-0.6c0.167-0.267,0.267-0.517,0.3-0.75c0.133,0.633,0.934,6.017,2.4,16.149
		c-0.133-4.3,0.2-7.949,1-10.949c0.733-2.834,1.667-4.45,2.8-4.851c1.5-0.533,2.733-1.416,3.7-2.649
		c0.867-1.134,2.433-1.967,4.7-2.5c-1.233-1.134-2.717-1.983-4.45-2.551l-2.25-0.449l-7.1-0.5l0.5-0.101l6.6,0.601
		c1.466,0.199,3.233,0.066,5.3-0.4c1.567-0.333,2.717-0.684,3.45-1.05c0.166,3.066,0.633,6.083,1.399,9.05
		c0.7,2.7,1.051,4.816,1.051,6.35c0,1.067-0.051,3.284-0.15,6.65c-0.1,4.3-0.233,7.467-0.4,9.5c-0.199,2.533-0.716,3.934-1.55,4.2
		c-0.8,0.3-1.233,1-1.3,2.1C99.633,175.517,98.45,175.283,96.45,174.85z M55.65,175.4l0.7-0.15l-1.4,0.35L55.65,175.4z
		 M34.65,176.65l0.45,0.05l0.3,0.05L34.65,176.65z M30.05,67.7l0.5,0.4c0.367,0.267,0.733,0.483,1.1,0.65
		c-0.267,2.067-0.4,3.9-0.4,5.5c0,2.467,0.2,5.167,0.6,8.1c0.367,2.967,0.55,4.867,0.55,5.7c0,4.3-0.4,9.367-1.2,15.2
		c-0.967,7.033-1.617,13.8-1.95,20.3l0.5-1.45c0.033,0.434,0.033,3.434,0,9c0.233,5.634,0.933,9.117,2.1,10.45l0.2-0.95
		c0.067-0.3,0.983-3.899,2.75-10.8c1.4-5.434,2.083-8.899,2.05-10.399l0.55,1.25c0.567,2.267,0.983,5.883,1.25,10.85
		c0,0.1,0.117,2.783,0.35,8.05c-0.067-4.1,0.067-7.316,0.4-9.649c0.4-2.867,1.217-5.084,2.45-6.65l0.35,1
		c0.533,1.667,0.8,3.15,0.8,4.45l0.1-0.4c0.233-1.366,0.8-3.649,1.7-6.85c0.733-2.601,1.1-4.584,1.1-5.95
		c0-0.9-0.233-1.816-0.7-2.75c-0.5,0.833-1.4,1.384-2.7,1.65c-1.267,0.1-1.933,0.149-2,0.149c-1.067,0-1.833-0.517-2.3-1.55
		c-0.267-0.566-0.4-1.2-0.4-1.9c0-1.433,0.517-3.533,1.55-6.3s1.533-4.983,1.5-6.649c-0.033-0.2-0.184-0.2-0.45,0L40,98.5
		c-0.433,0.6-1.217,2.217-2.35,4.85c-1.133,2.534-1.867,4.351-2.2,5.45c2.7-12.8,4.3-20.4,4.8-22.8
		c0.567-2.933,0.85-4.783,0.85-5.55c0-2.034,0.25-3.184,0.75-3.45c0.6-0.367,0.967-1.083,1.1-2.15c0.1-1.233,0.183-2.117,0.25-2.65
		c0.1-0.9,0.367-1.65,0.8-2.25c0.533-0.733,1.283-1.233,2.25-1.5c0.5-0.133,1.117-0.284,1.85-0.45c0.867-0.4,0.25-2.467-1.85-6.2
		c0.1-0.1,1.867-0.15,5.3-0.15c2.2,2.633,3.333,4.017,3.4,4.15c-0.167,0.667,0.233,4.467,1.2,11.4c1.067,7.867,1.6,13.7,1.6,17.5
		c0,3.633-1.15,8.267-3.45,13.899c-2.667,6.601-4.367,12.384-5.1,17.351c-0.034,0.2-0.184,4.1-0.45,11.7
		c-0.3,7.699-0.533,12.3-0.7,13.8c-0.833,6.934-1.333,10.75-1.5,11.45c-0.466,1.699-1.583,3.033-3.35,4c0.6-3.733,1-7.717,1.2-11.95
		c0.167-5.733,0.333-10.816,0.5-15.25c-1.566,13.767-2.767,22.316-3.6,25.649c-1.133,4.567-3.066,7.217-5.8,7.95l0.2-3.1
		c0.767-5.434,1.183-8.467,1.25-9.101c0.2-2.1,0.3-4.933,0.3-8.5L37,147.4c-0.367,0.633-0.567,0.949-0.6,0.949
		c-0.066,6.434-0.917,12.634-2.55,18.601c0.633-3.8,0.967-6.334,1-7.601c0-1.366,0.033-2.949,0.1-4.75
		c-0.034,0.5-0.617,2.95-1.75,7.351c-1.167,4.934-1.917,8.967-2.25,12.1l-2.75,0.25c1.1-0.2,1.583-1.283,1.45-3.25
		c-0.452-2.26-0.686-3.927-0.7-5c-0.048,2.258-0.548,4.191-1.5,5.8c-1,1.733-2.217,2.601-3.65,2.601
		c-2.3-0.967-3.333-3.334-3.1-7.101c0.667-4.033,1.017-6.5,1.05-7.399v-2.3c-1.967-0.067-4.233-0.184-6.8-0.351
		c-2.667-0.166-4.633-0.333-5.9-0.5l1.5,0.15l0.6,0.05c2.167,0.134,5.367,0.3,9.6,0.5l0.5,0.05c0-0.1,0.5-2.533,1.5-7.3
		c0.967-4.533,1.4-7.45,1.3-8.75c0.5-2.7,0.95-5.95,1.35-9.75c0.467-4.566,0.967-8.634,1.5-12.2c0.934-4.866,1.767-9.316,2.5-13.35
		c1.4-7.8,2.1-12.883,2.1-15.25l-1.05,3.7c0.733-6.734,1.1-10.234,1.1-10.5c0-1.7-0.25-4.9-0.75-9.6
		C30.3,70.15,30.05,67.867,30.05,67.7z M27.3,62.45c1.534,6.367,2.3,11.983,2.3,16.85c0,3.233,0,5.184,0,5.85
		c-0.1,3.867-0.3,7.083-0.6,9.65c-0.167,1.533-0.917,3.3-2.25,5.3c-1.267,1.834-1.983,4.301-2.15,7.4
		c-0.767,13.566-2.2,22.283-4.3,26.15c-1.367,2-2.45,3.666-3.25,5c-1.5,2.433-2.867,5.55-4.1,9.35l0.2-1.5l0.35-6.65l0.45,1.7
		c0.167-5.399,0.517-10.85,1.05-16.35c0.467-4.434,0.7-6.8,0.7-7.101c-0.534,1.4-1.833,5.584-3.9,12.551
		c-1.966,6.767-3.066,10.399-3.3,10.899l0.25-1.649c0.533-4.801,0.8-7.684,0.8-8.65c0-2.5-0.633-4.25-1.9-5.25
		c1.733-3.9,2.733-6.167,3-6.8c0.267-0.634,1.434-2.75,3.5-6.351l0.4,0.7l1.1,2.75c1-3.533,1.783-10.7,2.35-21.5
		c0.6-10.9,1.067-16.983,1.4-18.25l0.2,1.35c0.467,4.6,0.767,8.9,0.9,12.9c0.267,6.566,0.45,10.684,0.55,12.351
		c0.967-1.567,1.65-4.567,2.05-9c0.2-2.367,0.3-4.734,0.3-7.101c-0.433-7.167-0.533-12.083-0.3-14.75
		c0.066-0.633,0.717-1.517,1.95-2.65c1.2-1.133,1.8-1.917,1.8-2.35c0-1.933-1.617-3.633-4.85-5.1C23.733,62,25.5,62.083,27.3,62.45z
		 M8.65,144.15c-0.367,3.699-0.683,6.449-0.95,8.25l-1.4-0.25l-0.1-0.9c0.066,0,0.133-0.566,0.2-1.7
		c0.033-1.066,0.033-1.866,0-2.399l-0.65,0.75c-0.033,0.033-0.733,1.1-2.1,3.199c-0.433,0.634-0.833,0.95-1.2,0.95
		c-0.833,0-1.65-0.283-2.45-0.85c0.033-1.634,0.35-3.884,0.95-6.75c0.8-1.467,1.667-2.667,2.6-3.601c0.733-0.733,1.267-1.1,1.6-1.1
		c0.533,0,1.033,0.366,1.5,1.1c0.567,0.9,0.934,2.2,1.1,3.9C8.117,144.583,8.417,144.384,8.65,144.15z M100,133.5
		c-0.933,0.066-2.35,0.083-4.25,0.05c-2.4-0.033-4.317-0.066-5.75-0.1c-0.933-0.2-3.217-0.15-6.85,0.149
		c-3.267,0.267-5.483,0.517-6.65,0.75c-4.267-1.8-6.767-4.883-7.5-9.25c-0.267-1.466-0.433-3.833-0.5-7.1
		c-0.1-4.066-0.233-7.1-0.4-9.1c-0.133-1.7-0.25-4.017-0.35-6.95c-0.067-2.5-0.15-4.134-0.25-4.9c-1.4-6.9-2.1-10.617-2.1-11.15
		c0-4.6,0.684-9.65,2.05-15.15c1.4-5.833,2.133-9.45,2.2-10.85l1.05-1c-0.1,0.9-0.6,4.383-1.5,10.45
		c-0.833,6.566-1.25,12.15-1.25,16.75c0,0.133,0.316,5.05,0.95,14.75c0.667,10.9,1.117,19.084,1.35,24.551L70.2,88.3
		c0,0.267,0.283,1.917,0.85,4.95c0.534,2.967,0.883,4.783,1.05,5.45c0.933-5.4,1.367-8.8,1.3-10.2c0.333,3.8,0.767,6.533,1.3,8.2
		c0.2,0.566,0.767,1.7,1.7,3.399c0.133-0.666,0.267-1.133,0.4-1.399l0.15-0.2l0.75-23.05c0-1.2-0.167-2.767-0.5-4.7L77,71.6
		c-0.167,0.767-0.3,1.15-0.4,1.15c-0.067,1.667-0.167,2.667-0.3,3s-0.533,0.517-1.2,0.55c-1.733,0.133-2.6-0.983-2.6-3.35
		c0-3.333,1.067-5.417,3.2-6.25c1.533-0.633,5.583-1.833,12.15-3.6c-0.567,0.4-1.017,3.066-1.35,8c-0.2,3.267-0.3,5.933-0.3,8
		c0,9.6,0.333,18.75,1,27.45c0.4,4.934,1.017,11.566,1.85,19.9c0-2.5,0.184-6.55,0.55-12.15c0.4-6.399,0.667-12.434,0.8-18.1
		c0.5-13.534,0.817-22.5,0.95-26.9c0.2-5.233,0.95-8.2,2.25-8.9c0.167-0.066,0.85-0.233,2.05-0.5c0.967-0.2,1.783-0.633,2.45-1.3
		c-1.467-0.033-2.917-0.483-4.35-1.35c-1.2-0.7-2.017-1.4-2.45-2.1l0.5,0.05c3.567,0.233,5.883,0.083,6.95-0.45
		c3-1.467,4.5-5.267,4.5-11.4c0-1.5-0.267-3.1-0.8-4.8c0.333,0.233,1.083,1.017,2.25,2.35c0.5,0,0.75,0.017,0.75,0.05l-0.15,7.6
		c-0.3,1.567-0.517,3.6-0.649,6.1c-0.334,1.434-1.167,4.133-2.5,8.1c-1.167,4.067-1.75,8.017-1.75,11.85c0,4.833,0.5,9.066,1.5,12.7
		c0.3,1.034,0.616,2.1,0.949,3.2c-0.1,6.5-0.066,15.4,0.101,26.7C102.783,126.1,101.8,131.533,100,133.5z M110.15,47.55
		c-0.034,0.733-0.284,3.5-0.75,8.3c0.033-1,0.133-2.4,0.3-4.2C109.967,49.317,110.116,47.95,110.15,47.55z M111.65,60.6l-0.95-0.65
		l-0.55-0.65l-0.551-1.4c0.101,0.2,0.417,0.667,0.95,1.4C111.116,60.033,111.483,60.467,111.65,60.6z M122.45,57.05l-0.101,2.15
		c0,2.633,0.267,4.816,0.801,6.55c0.267,0.867,0.533,1.667,0.8,2.4c0,1.267-0.334,2.1-1,2.5c-0.967,0.3-1.733,0.583-2.3,0.85
		c-2.301,1-3.617,4.383-3.95,10.15c-0.601-4.033-0.9-6.783-0.9-8.25c0-2.267,0.134-3.85,0.4-4.75c0.267-1.033,0.866-1.867,1.8-2.5
		c0.5,1.667,0.917,2.517,1.25,2.55c0.434-0.034,0.866-0.25,1.3-0.65c0.467-0.4,0.717-0.816,0.75-1.25
		c-0.934-0.833-1.616-2.216-2.05-4.15c-0.533-2.267-1.25-4.05-2.15-5.35C118.4,57.067,120.184,56.983,122.45,57.05z M140.8,103.15
		c-0.434-5.667-1.383-14.351-2.85-26.05c-1.367-10.867-2.3-20.283-2.8-28.25L135.1,50.6c-0.199,3.1-1.116,14.833-2.75,35.2
		c-1.466,18.4-2.199,28.351-2.199,29.851c0,0.833,0.216,4.783,0.649,11.85c0.101,1.833-0.45,4.967-1.649,9.4l-0.45-1.25
		c-1.134-2.601-2.101-5.733-2.9-9.4c-0.866-3.733-1.3-6.917-1.3-9.55c0-1.334,0.2-4.4,0.6-9.2c0.367-4.833,0.551-7.75,0.551-8.75
		c0-0.533-0.2-1.217-0.601-2.05c-0.366-0.767-0.783-1.4-1.25-1.9l-0.149,0.15l-0.4-17.6c0-5.133,0.45-8.1,1.35-8.9
		c0.367-0.3,1.067-0.867,2.101-1.7c1.1-1.1,2.233-2.767,3.399-5l0.301,0.5c0.133,0.533,0.199,1.033,0.199,1.5
		c0,1.433-0.399,6.15-1.199,14.15c0,1.767,0.199,3.4,0.6,4.9c0.2-0.667,0.366-1.133,0.5-1.4c0.1-0.133,0.167-0.2,0.2-0.2
		c0.434-14.167,0.649-21.583,0.649-22.25c0-1.233-0.3-2.85-0.899-4.85c-0.533-1.867-1.033-3.15-1.5-3.85l-0.4,2.15
		c0.167-1.033,0.2-3.35,0.101-6.95c-0.067-2.067,0.733-4.2,2.399-6.4c2.5-3.267,3.783-4.983,3.851-5.15
		c1.133-2.133,1.649-5.217,1.55-9.25c0.233,4.567,0.366,11.05,0.399,19.45c0.034,7.5,0.2,13.433,0.5,17.8
		c0.101,1.434,0.733,6.25,1.9,14.45c1.134,8.8,1.7,15.867,1.7,21.2L140.8,103.15z M141.85,7.9c-1.267,0.333-2.183,0.75-2.75,1.25
		c-1.733,1.533-2.6,4.767-2.6,9.7c0,0.333,0,0.75,0,1.25l-0.1-3.8c0-3.633,0.55-5.95,1.649-6.95
		C138.684,8.783,139.95,8.3,141.85,7.9z M155.15,104.7c-0.4,0.467-0.817,1.1-1.25,1.899c-0.534,0.867-0.817,1.534-0.851,2l0.8-0.55
		l0.95-0.45c-0.6,2.9-4.017,4.351-10.25,4.351c-1.566,0-2.434-0.7-2.6-2.101c-0.3-3.267-0.667-5.483-1.101-6.649
		c0.267-4.867,0.2-10.184-0.199-15.95c-0.434-6.8-0.65-10.333-0.65-10.6c0-7.967,0.3-16.883,0.9-26.75
		c0.6-9.867,0.899-15.217,0.899-16.05c0.101,5.133,0.4,9.083,0.9,11.85c0.3,1.767,0.95,4.117,1.95,7.05
		c0.233-0.633,0.35-1.733,0.35-3.3c0-3.967,0.167-10.034,0.5-18.2c0.366-8.933,0.566-15,0.6-18.2l1.15,5.9l0.2-0.1
		c0.967-1.3,1.783-2.217,2.45-2.75c0.866,0.867,1.383,1.717,1.55,2.55c0.1,0.6,0.149,2.45,0.149,5.55l-0.85,30.5
		c0,3.933,0.134,8.167,0.4,12.7c0.033-1.1,1.466-15.2,4.3-42.3c0.233,0.8,0.35,2.183,0.35,4.15c0,1.833,0.684,4.867,2.05,9.1
		l0.2-0.85c0.066-0.4,0.134-0.683,0.2-0.85l0.1-0.1c1.367-14,2.15-22.85,2.351-26.55c0.467,3.333,1.184,6.467,2.149,9.4
		c-0.3,2.767-1.25,21.3-2.85,55.6c0,0.667,0.116,2.517,0.35,5.55l0.15-1.1c1.267-6.2,1.983-10.85,2.15-13.95
		c0.433-10.967,1.366-30.033,2.8-57.2l-1.7,4.5l0.65-5.65c0.8,0.434,1.933,0.883,3.399,1.35c1.267,0.367,2.167,0.767,2.7,1.2
		c1.566,1.3,2.35,4.767,2.35,10.4c0,4.533-0.733,16.816-2.199,36.85c-1.4,18.867-2,29.65-1.801,32.35
		c0.233,3.034,0.117,5.55-0.35,7.55c-0.467,1.967-1.233,3.284-2.3,3.95c-1.834,1.2-4.584,1.7-8.25,1.5
		c-1.233-0.066-1.967,0.05-2.2,0.351C155.583,102.884,155.384,103.566,155.15,104.7z M175.45,109.85V107l0.05,1.7L175.45,109.85z
		 M153,115.25c-1.4,0.934-3.717,1.4-6.95,1.4c0,2.233-0.217,3.767-0.649,4.6c0.033-2.967-0.15-4.967-0.551-6l1.551-0.1
		c0.333,0,1.366,0.05,3.1,0.149C151.2,115.366,152.366,115.35,153,115.25z M155.7,110.7c0.267-1.4,0.75-2.316,1.45-2.75h0.05v-0.05
		h0.05c0.267-0.2,0.6-0.301,1-0.301c0.033,0,0.1,0.017,0.2,0.051c0.166,0.033,0.467,0.149,0.899,0.35
		c0.7,0.267,1.284,0.55,1.75,0.85c-0.6,0.434-1.6,0.851-3,1.25C156.733,110.434,155.934,110.634,155.7,110.7z M196.25,162.4
		l0.1,2.149l-0.1-1.55V162.4z M160.4,9c-0.667,0.167-1.851,0.583-3.551,1.25c-0.366-0.767-0.6-1.183-0.699-1.25
		c-0.434-0.4-1.267-0.683-2.5-0.85l0.05-0.8c0.233,0.167,0.533,0.383,0.899,0.65c0.334,0.233,0.717,0.35,1.15,0.35
		c0.1,0,0.95-0.383,2.55-1.15c0.5,0,0.983,0.267,1.45,0.8C159.983,8.3,160.2,8.633,160.4,9z M123,95.55
		c-1.6,1.834-2.483,3.584-2.65,5.25c-0.166,1.667-0.466,2.767-0.899,3.3c-0.733-0.533-1.2-0.983-1.4-1.35
		c-0.166-0.267-0.5-1.217-1-2.85c0.566-7.467,1.3-12.734,2.2-15.8c0.733-2.467,1.75-3.9,3.05-4.3l0.2,0.95c0,0.033-0.116,0.7-0.35,2
		c-0.167,0.767-0.051,1.15,0.35,1.15c0.267,0,0.45,0.033,0.55,0.1c0,0.733-0.033,2.383-0.1,4.95
		C122.884,92.25,122.9,94.45,123,95.55z M59.3,125.45l0.15-3.2l0.3-2.85L59.3,125.45z M10.8,140.3l-0.15,1.2l-0.05-0.75L10.8,140.3z
		 M10.65,144.45l0.4-4.75l0.75-1.55c-0.233,2.466-0.35,4.083-0.35,4.85c0,0.566,0.1,1.05,0.3,1.45c0.333,0.7,0.65,1.616,0.95,2.75
		c0.3,1.1,0.45,1.934,0.45,2.5c0,2.2-1.083,3.166-3.25,2.899C10.267,148.8,10.517,146.083,10.65,144.45z M28.45,129.55
		c-0.1,0.934-0.767,3.917-2,8.95c-1.267,5.6-2.05,10.467-2.35,14.6c1.867-3.267,3.15-7.883,3.85-13.85
		C28.417,135.417,28.583,132.184,28.45,129.55z M119,138.15l-0.7,12.75l0.101-2.851l0.6-10.6V138.15z M119.6,148.65l0.2,1.449
		l-0.149-0.949C119.616,148.983,119.6,148.816,119.6,148.65z M95.15,173.9l-0.05,1.25l-0.65,1.35c-0.367-1.267-0.55-2.417-0.55-3.45
		l0.05-2.649L95.15,173.9z"/>
	<path style="fill-rule:evenodd;clip-rule:evenodd;fill:#B3AA9E;" d="M13.5,139.85l-1.2-2.399l-0.5,0.7l-0.75,1.55l-0.25,0.6
		l-0.2,0.45c-0.033,0.134-0.333,0.684-0.9,1.65c-0.534,0.899-0.883,1.483-1.05,1.75c-0.233,0.233-0.533,0.433-0.9,0.6
		c-0.167-1.7-0.533-3-1.1-3.9c-0.467-0.733-0.967-1.1-1.5-1.1c-0.333,0-0.867,0.366-1.6,1.1c-0.933,0.934-1.8,2.134-2.6,3.601
		l-0.05,0.1c1.233-3.899,2.1-8.633,2.6-14.2c0.467-4.966,1.133-8.483,2-10.55c0.467-1.133,1.783-3.533,3.95-7.2
		c1.167-1.966,2.083-4.899,2.75-8.8c3.233-24.3,5.017-37.933,5.35-40.9l0.85,0.35c0.667,0.233,1.2,0.35,1.6,0.35
		s0.783-0.217,1.15-0.65c0.434-0.5,0.7-0.767,0.8-0.8L22,62.2c3.233,1.466,4.85,3.167,4.85,5.1c0,0.434-0.6,1.217-1.8,2.35
		c-1.233,1.133-1.883,2.017-1.95,2.65c-0.233,2.667-0.133,7.583,0.3,14.75c0,2.367-0.1,4.733-0.3,7.101
		c-0.4,4.433-1.083,7.433-2.05,9c-0.1-1.667-0.283-5.784-0.55-12.351c-0.133-4-0.433-8.3-0.9-12.9l-0.2-1.35
		c-0.333,1.267-0.8,7.35-1.4,18.25c-0.567,10.8-1.35,17.967-2.35,21.5l-1.1-2.75l-0.4-0.7c-2.066,3.601-3.233,5.717-3.5,6.351
		c-0.267,0.633-1.267,2.899-3,6.8c1.267,1,1.9,2.75,1.9,5.25c0,0.967-0.267,3.85-0.8,8.65L8.5,141.55
		c0.233-0.5,1.333-4.133,3.3-10.899c2.067-6.967,3.367-11.15,3.9-12.551c0,0.301-0.233,2.667-0.7,7.101
		c-0.533,5.5-0.883,10.95-1.05,16.35L13.5,139.85z M46.25,61.8c2.1,3.733,2.717,5.8,1.85,6.2c-0.733,0.167-1.35,0.317-1.85,0.45
		c-0.967,0.267-1.717,0.767-2.25,1.5c-0.433,0.6-0.7,1.35-0.8,2.25c-0.067,0.533-0.15,1.417-0.25,2.65
		c-0.133,1.066-0.5,1.783-1.1,2.15c-0.5,0.267-0.75,1.417-0.75,3.45c0,0.767-0.283,2.617-0.85,5.55c-0.5,2.4-2.1,10-4.8,22.8
		c0.333-1.1,1.066-2.916,2.2-5.45c1.133-2.633,1.917-4.25,2.35-4.85l0.4-0.35c0.267-0.2,0.417-0.2,0.45,0
		c0.033,1.666-0.467,3.883-1.5,6.649s-1.55,4.867-1.55,6.3c0,0.7,0.133,1.334,0.4,1.9c0.466,1.033,1.233,1.55,2.3,1.55
		c0.067,0,0.733-0.05,2-0.149c1.3-0.267,2.2-0.817,2.7-1.65c0.466,0.934,0.7,1.85,0.7,2.75c0,1.366-0.367,3.35-1.1,5.95
		c-0.9,3.2-1.466,5.483-1.7,6.85l-0.1,0.4c0-1.3-0.267-2.783-0.8-4.45l-0.35-1c-1.233,1.566-2.05,3.783-2.45,6.65
		c-0.333,2.333-0.467,5.55-0.4,9.649c-0.233-5.267-0.35-7.95-0.35-8.05c-0.267-4.967-0.683-8.583-1.25-10.85l-0.55-1.25
		c0.033,1.5-0.65,4.966-2.05,10.399c-1.767,6.9-2.683,10.5-2.75,10.8l-0.2,0.95c-1.167-1.333-1.867-4.816-2.1-10.45
		c0.033-5.566,0.033-8.566,0-9l-0.5,1.45c0.333-6.5,0.983-13.267,1.95-20.3c0.8-5.833,1.2-10.9,1.2-15.2
		c0-0.833-0.183-2.733-0.55-5.7c-0.4-2.934-0.6-5.633-0.6-8.1c0-1.6,0.133-3.433,0.4-5.5v-0.1l0.75,0.1c0.6,0.1,1.167,0.133,1.7,0.1
		l2.8-0.9c0.934-0.367,2.333-1.45,4.2-3.25C42.7,63.133,44.417,62.167,46.25,61.8z M98.05,37.55c2.833,0.467,4.3,0.8,4.4,1
		c0.533,1.7,0.8,3.3,0.8,4.8c0,6.133-1.5,9.933-4.5,11.4c-1.067,0.533-3.383,0.683-6.95,0.45l-0.5-0.05c0.434,0.7,1.25,1.4,2.45,2.1
		c1.433,0.867,2.883,1.317,4.35,1.35c-0.667,0.667-1.483,1.1-2.45,1.3c-1.2,0.267-1.883,0.434-2.05,0.5
		c-1.3,0.7-2.05,3.667-2.25,8.9c-0.133,4.4-0.45,13.367-0.95,26.9c-0.133,5.666-0.4,11.7-0.8,18.1
		c-0.367,5.601-0.55,9.65-0.55,12.15c-0.833-8.334-1.45-14.967-1.85-19.9c-0.667-8.7-1-17.85-1-27.45c0-2.067,0.1-4.733,0.3-8
		c0.333-4.934,0.783-7.6,1.35-8c-6.567,1.767-10.617,2.967-12.15,3.6c-2.133,0.833-3.2,2.917-3.2,6.25c0,2.367,0.867,3.483,2.6,3.35
		c0.667-0.033,1.066-0.216,1.2-0.55s0.233-1.333,0.3-3c0.1,0,0.233-0.383,0.4-1.15l0.2-0.85c0.333,1.933,0.5,3.5,0.5,4.7L76.95,98.5
		l-0.15,0.2c-0.133,0.267-0.267,0.733-0.4,1.399c-0.933-1.699-1.5-2.833-1.7-3.399c-0.534-1.667-0.967-4.4-1.3-8.2
		c0.067,1.4-0.367,4.8-1.3,10.2c-0.167-0.667-0.517-2.483-1.05-5.45c-0.566-3.033-0.85-4.683-0.85-4.95l0.05,37.101
		c-0.233-5.467-0.683-13.65-1.35-24.551c-0.633-9.7-0.95-14.616-0.95-14.75c0-4.6,0.417-10.184,1.25-16.75
		c0.9-6.067,1.4-9.55,1.5-10.45c1.966-1.1,3.6-1.65,4.9-1.65c0.333,0,1.033,0.167,2.1,0.5c1.033,0.333,1.716,0.5,2.05,0.5
		c1.433,0,2.633-1.517,3.6-4.55c0.933-3.867,1.7-6.6,2.3-8.2c0.567-1.533,2.283-3,5.15-4.4C92.4,40.3,94.817,39.117,98.05,37.55z
		 M128.55,52.4l0.4-2.15c0.467,0.7,0.967,1.983,1.5,3.85c0.6,2,0.899,3.617,0.899,4.85c0,0.667-0.216,8.083-0.649,22.25
		c-0.033,0-0.101,0.066-0.2,0.2c-0.134,0.267-0.3,0.733-0.5,1.4c-0.4-1.5-0.6-3.133-0.6-4.9c0.8-8,1.199-12.717,1.199-14.15
		c0-0.467-0.066-0.967-0.199-1.5l-0.301-0.5c-1.166,2.233-2.3,3.9-3.399,5c-1.033,0.833-1.733,1.4-2.101,1.7
		c-0.899,0.8-1.35,3.767-1.35,8.9l0.4,17.6L123.6,98.3l-0.6-2.75c-0.1-1.1-0.116-3.3-0.05-6.6c0.066-2.567,0.1-4.217,0.1-4.95
		c-0.1-0.067-0.283-0.1-0.55-0.1c-0.4,0-0.517-0.383-0.35-1.15c0.233-1.3,0.35-1.967,0.35-2l-0.2-0.95
		c-1.3,0.4-2.316,1.833-3.05,4.3c-0.9,3.066-1.634,8.333-2.2,15.8L117,101.35c-0.1-1.533-0.184-4.517-0.25-8.95
		c-0.066-3.667-0.1-6.017-0.1-7.05l0.05-3.7c0.333-5.767,1.649-9.15,3.95-10.15c0.566-0.267,1.333-0.55,2.3-0.85
		c0.666-0.4,1-1.233,1-2.5c-0.267-0.733-0.533-1.533-0.8-2.4c-0.534-1.733-0.801-3.917-0.801-6.55l0.101-2.15V57
		c0.066,0,0.133,0.017,0.2,0.05c1.533,0,3.283,0.067,5.25,0.2c0.066-1.267,0.267-2.867,0.6-4.8L128.55,52.4z M136.5,20.1
		c0-0.5,0-0.917,0-1.25c0-4.934,0.866-8.167,2.6-9.7c0.567-0.5,1.483-0.917,2.75-1.25c1.2-0.3,2.684-0.55,4.45-0.75
		c2.934-0.566,4.65-0.867,5.15-0.9c1.1-0.067,1.85-0.133,2.25-0.2v1.3l-0.05,0.8c1.233,0.167,2.066,0.45,2.5,0.85
		c0.1,0.067,0.333,0.483,0.699,1.25c1.7-0.667,2.884-1.083,3.551-1.25l0.3,1c-0.2,3.7-0.983,12.55-2.351,26.55l-0.1,0.1
		c-0.066,0.167-0.134,0.45-0.2,0.85l-0.2,0.85c-1.366-4.233-2.05-7.267-2.05-9.1c0-1.967-0.116-3.35-0.35-4.15
		c-2.834,27.1-4.267,41.2-4.3,42.3c-0.267-4.533-0.4-8.767-0.4-12.7l0.85-30.5c0-3.1-0.05-4.95-0.149-5.55
		c-0.167-0.833-0.684-1.683-1.55-2.55c-0.667,0.533-1.483,1.45-2.45,2.75l-0.2,0.1l-1.15-5.9c-0.033,3.2-0.233,9.267-0.6,18.2
		c-0.333,8.167-0.5,14.233-0.5,18.2c0,1.566-0.116,2.667-0.35,3.3c-1-2.933-1.65-5.283-1.95-7.05c-0.5-2.767-0.8-6.717-0.9-11.85
		c0,0.833-0.3,6.183-0.899,16.05c-0.601,9.867-0.9,18.783-0.9,26.75c0,0.267,0.217,3.8,0.65,10.6
		c0.399,5.767,0.466,11.083,0.199,15.95l-0.05-0.05l0.15-5.601c0-5.333-0.566-12.4-1.7-21.2c-1.167-8.2-1.8-13.017-1.9-14.45
		c-0.3-4.367-0.466-10.3-0.5-17.8c-0.033-8.4-0.166-14.883-0.399-19.45L136.5,20.1z M162.85,19.4c0.167-1.8,0.284-3.066,0.351-3.8
		c0.133-1.233,0.316-2.167,0.55-2.8l1.7-4.5c-1.434,27.167-2.367,46.233-2.8,57.2c-0.167,3.1-0.884,7.75-2.15,13.95l-0.15,1.1
		C160.116,77.517,160,75.667,160,75C161.6,40.7,162.55,22.167,162.85,19.4z M187.95,59.8c-1.3,0.333-2.3,0.633-3,0.9
		c-1.233,0.433-1.983,1.033-2.25,1.8c-0.167,0.533-0.517,1.4-1.05,2.6c-0.467,1.133-0.7,2.033-0.7,2.7
		c0,5.867,0.366,12.917,1.1,21.15s1.101,15.3,1.101,21.2c0,0.966-0.15,3.366-0.45,7.199c-0.334,4.067-0.601,6.733-0.8,8
		c-1.034-2.533-1.784-7.533-2.25-15c-0.301-8.1-0.517-13.283-0.65-15.55l-0.1-1.4c-0.301,14.1-0.817,27.133-1.551,39.1
		c0,0.134-0.449,6.1-1.35,17.9c-0.1-2-0.417-5.351-0.95-10.051c0.233-12.633,0.367-22.8,0.4-30.5l0.05-1.149
		c0.967-18.8,1.684-30.367,2.15-34.7c0.267-2.2,0.399-4.167,0.399-5.9c0-0.8-0.133-1.383-0.399-1.75
		c-0.733-1.033-1.851-3.967-3.351-8.8l-0.1-0.25c-1.033-1.633-1.4-2.8-1.101-3.5c0.601-0.566,0.983-1.083,1.15-1.55l0.2-0.15
		c3.733,0,6.916,0.75,9.55,2.25S187.95,57.667,187.95,59.8z M162.1,110.2c-0.199,4.833-0.183,9.217,0.051,13.149
		c0,0.801-0.084,1.567-0.25,2.301c-0.601-0.767-1.367-1.483-2.301-2.15c-0.8-0.6-1.449-0.983-1.949-1.15l-0.25,3.25
		c0-0.666-0.184-1.449-0.551-2.35c-0.366-0.9-0.75-1.517-1.149-1.85c-0.667,0.133-1.134,0.399-1.4,0.8
		c-0.233,0.366-0.35,0.916-0.35,1.649c0,0.667,0.283,4.067,0.85,10.2c0,3.566-0.633,15.316-1.899,35.25
		c-0.2,1.233-0.45,2.417-0.75,3.55l-0.351-0.5c-0.233-0.533-0.566-1.716-1-3.55c-0.366-1.733-0.55-2.767-0.55-3.1
		c0-1.134,0.35-5,1.05-11.601c0.667-6.566,1-11.05,1-13.449l-0.05-3.75c-0.066,0-0.35,0-0.85,0s-1.467-0.45-2.9-1.351
		c-1.4-0.934-2.517-1.399-3.35-1.399c-0.934,0-2.217,0.333-3.851,1c-1.833,0.767-3.083,1.583-3.75,2.449
		c-0.467,1.101-0.85,2.301-1.149,3.601l-0.65-0.7c-0.233,1.434-0.5,4.517-0.8,9.25c-0.3,5.134-0.467,9.767-0.5,13.9
		c-0.4-0.834-0.667-1.25-0.8-1.25c-0.167-2.4-0.25-3.934-0.25-4.601c0-1.3,0.366-6.6,1.1-15.899c0.8-10.167,1.4-15.733,1.8-16.7
		v-0.05c0.634-0.534,2.084-1.167,4.351-1.9c2.366-0.767,3.949-1.434,4.75-2c0.433-0.833,0.649-2.366,0.649-4.6
		c3.233,0,5.55-0.467,6.95-1.4c0.3-0.5,0.767-1.35,1.4-2.55c0.566-1.033,1-1.7,1.3-2c0.233-0.066,1.033-0.267,2.399-0.601
		c1.4-0.399,2.4-0.816,3-1.25l1.15-1.05L162.1,110.2z M77.3,138.4c2.534,0.033,5.133,0.116,7.8,0.25l7.1,0.5l2.25,0.449
		c1.733,0.567,3.216,1.417,4.45,2.551c-2.267,0.533-3.833,1.366-4.7,2.5c-0.967,1.233-2.2,2.116-3.7,2.649
		c-1.133,0.4-2.067,2.017-2.8,4.851c-0.8,3-1.133,6.649-1,10.949c-1.467-10.133-2.267-15.517-2.4-16.149
		c-0.033,0.233-0.133,0.483-0.3,0.75c-0.167,0.3-0.333,0.5-0.5,0.6c-1.1-0.7-1.717-1.05-1.85-1.05c-3.767,0-5.9,2.134-6.4,6.4
		c-0.3,2.466-0.383,6.783-0.25,12.949l-0.15,0.5c-0.167-0.866-0.35-2.267-0.55-4.199c-0.167-1.767-0.25-2.95-0.25-3.551
		c0.467-8,0.8-14.949,1-20.85L77.3,138.4z M28.45,129.55c0.133,2.634-0.034,5.867-0.5,9.7c-0.7,5.967-1.983,10.583-3.85,13.85
		c0.3-4.133,1.083-9,2.35-14.6C27.683,133.467,28.35,130.483,28.45,129.55z M136.4,141.2c0.166,0.434,0.416,1.066,0.75,1.899
		c0.267,0.867,0.399,2,0.399,3.4c0,0.866-0.25,4.083-0.75,9.65c0.033-0.601-0.066-2.617-0.3-6.051c-0.2-3.5-0.3-5.366-0.3-5.6
		L136.4,141.2z M95.7,170.75l-0.3,3.75l-0.25-0.6l-1.2-3.5c-0.367-1.601-0.7-3.517-1-5.75c-0.167-1-0.284-1.801-0.35-2.4
		c-0.067-0.6-0.1-1.017-0.1-1.25c0-1.434,0.283-3.033,0.85-4.8c0.233-0.4,1.517-2.066,3.85-5
		C97.067,156.366,96.567,162.884,95.7,170.75z"/>
	<path style="fill-rule:evenodd;clip-rule:evenodd;fill:#635B52;" d="M196.25,162.4c-0.134-3.067-0.2-6.65-0.2-10.75l0.101,0.199
		c0.133,0.301,1.449,2.067,3.949,5.301c2.367,3.033,3.634,4.933,3.801,5.699c-0.034,0.2-0.834,0.45-2.4,0.75
		c-2.2,0.4-3.917,0.717-5.15,0.95L196.25,162.4z M190.9,166.15l-1.551,0.649c-3.233,1.467-5.116,2.351-5.649,2.65
		c1.833-3.533,2.85-5.834,3.05-6.9c0.6-2.7,0.917-8.517,0.95-17.45c0.1,3.101,0.517,6.75,1.25,10.95
		C189.384,158.417,190.033,161.783,190.9,166.15z M173.8,177.65l-0.75,0.8l-2.35,2.399c-2.467,2.301-4.267,3.65-5.4,4.051
		l0.05-0.051l1.25-1.899c1.467-1.667,2.601-4.95,3.4-9.851c0.6-3.733,1.116-9.35,1.55-16.85h-0.1l-0.101-9.65
		c0-0.6,0.051-3.283,0.15-8.05c0.134-5.066,0.233-8.5,0.3-10.3c0,17.434-0.083,26.767-0.25,28c0.267,4.5,0.5,7.8,0.7,9.9
		C172.616,170.017,173.134,173.85,173.8,177.65z M117.4,174.05l-0.4,5.4l-0.25,0.149c-2.8,1.367-4.75,2.184-5.85,2.45l-2.351,0.25
		c2.233-5.267,3.617-8.533,4.15-9.8c0.7-1.733,1.05-4.017,1.05-6.85c0-2.101-0.384-4.351-1.15-6.75
		c-0.767-2.4-1.149-5.184-1.149-8.351c0-1.866,0.217-4.983,0.649-9.35c0.434-4.367,0.65-6.851,0.65-7.45l-0.6-34.2
		c0.3,0.834,1.233,3.316,2.8,7.45c1.166,8.566,1.75,13.017,1.75,13.35c0.1,2.233,0.066,6.434-0.101,12.601
		c0,3.3,0.301,6.666,0.9,10.1c0.3,1.733,0.6,3.4,0.9,5L118.3,150.9l0.7-12.75c0.066,3.767,0.267,7.267,0.6,10.5
		c0,0.166,0.017,0.333,0.051,0.5l0.149,0.949l0.15,0.9c0.934,4.967,2.5,10.717,4.7,17.25c1.133,3.3,2.233,6.316,3.3,9.05l-1.9,0.05
		c-1.1-0.033-2.5,0.15-4.2,0.551c-1.6,0.433-2.55,0.683-2.85,0.75l-0.85,0.3l0.05-0.05c0.399-1.534,0.717-3.534,0.95-6
		c0.133-1.867,0.199-3.517,0.199-4.95c0-1.334-0.116-2.667-0.35-4c-0.267-1.634-0.65-2.851-1.15-3.65l-0.3,6.65
		C117.55,169.35,117.5,171.717,117.4,174.05z M64.55,128.15c0.133,3.733,0.55,11,1.25,21.8c0.633,9.934,0.95,15.333,0.95,16.2
		c-0.067,2.6-0.3,5.399-0.7,8.399h-4.2L62,171.6c0.233-2.133-0.45-3.933-2.05-5.399c-0.633-0.134-1.4-0.101-2.3,0.1
		c-1.367,0.267-2.316,0.9-2.85,1.9c0.6-3.033,1.633-5.983,3.1-8.851c0.967-1.933,1.45-4.767,1.45-8.5c0-0.533-0.083-3.216-0.25-8.05
		c-0.2-4.934-0.333-8-0.4-9.2l0.6-8.149l0.45-6.05c1.4-20.434,1.967-34.5,1.7-42.2c-0.6-4.534-0.95-7.567-1.05-9.1
		c-0.167-1.567-0.283-2.684-0.35-3.35c-0.1-1.167-0.083-2.017,0.05-2.55c0,1.033,0.35,1.917,1.05,2.65c0.7,0.733,1.533,1.1,2.5,1.1
		c0.3,0.033,0.684-0.034,1.15-0.2c0.434-0.133,0.75-0.3,0.95-0.5l0.6-0.8l-1.85,15.2l-1.55,9.85
		C63.65,98.467,64.183,111.35,64.55,128.15z M47.15,177.25c0.767-1.333,3-3.85,6.7-7.55l-1.95,6.75
		C50.233,176.917,48.65,177.184,47.15,177.25z M35.5,173.4l-0.4,3.3l-0.45-0.05l-1.4-0.15c0-1.967,0.033-3.583,0.1-4.85
		c0.133-2.334,0.667-3.851,1.6-4.551c0.066,0.101,0.216,0.4,0.45,0.9c0.133,0.267,0.233,0.4,0.3,0.4v1.8l-0.2,3.1V173.4z
		 M10.65,144.45c-0.1,0.967-0.316,2.666-0.65,5.1c-0.367,3.101-0.683,5.517-0.95,7.25l-2.75-0.45c1.1-2.066,2.15-5.05,3.15-8.949
		c0.9-3.4,1.3-5.367,1.2-5.9l0.15-1.2l0.25-0.6L10.65,144.45z M155.15,104.7c1.233-0.2,3.783-0.3,7.649-0.3
		c1.8,0,3.334-0.467,4.601-1.4c1.267-0.967,1.899-2.116,1.899-3.45l3.7-19.7l0.6-3.15l2.15-11.35c-0.134,4.066-0.5,15.267-1.1,33.6
		c-0.167,4.866-0.384,9.833-0.65,14.899c-0.3,5.4-0.533,8.417-0.7,9.051l-0.6-0.551c-0.4-0.566-0.601-1.216-0.601-1.949
		c0.733-2.467,0.817-4.817,0.25-7.051c-1.1-4.399-4.916-6.6-11.449-6.6c-0.5,0-1.367,0.066-2.601,0.2
		c-1.267,0.166-2.25,0.316-2.95,0.45l-0.55,0.199l-0.95,0.45l-0.8,0.55c0.033-0.466,0.316-1.133,0.851-2
		C154.333,105.8,154.75,105.167,155.15,104.7z M136.3,125.2c-0.5,0-1.333-0.417-2.5-1.25c-1.066-0.767-1.6-1.2-1.6-1.3
		c0.934-3.767,1.416-5.934,1.45-6.5l0.25-3.9c0.533-8.3,1.283-19.067,2.25-32.3c0.066,15.233,0.35,24.283,0.85,27.149
		c0.5,2.767,0.75,5.334,0.75,7.7c0,2.066-0.15,3.9-0.45,5.5c-0.2,0.934-0.533,2.55-1,4.851V125.2z M85.1,138.65
		c-2.667-0.134-5.267-0.217-7.8-0.25c-2.1-0.434-3.183-0.75-3.25-0.95c-0.033-0.634,0-1.3,0.1-2l0.15-0.851l1.7-0.149
		c7.867,0.434,13.717,0.733,17.55,0.899l-4.15,2.2l-3.8,1L85.1,138.65z M111.6,93.8c0.219-2.938,0.336-4.971,0.351-6.1l0.2,11.85
		h-0.2C111.717,96.45,111.6,94.533,111.6,93.8z M22,148.6c-0.233,2.4-0.65,5.367-1.25,8.9c-4.233-0.2-7.433-0.366-9.6-0.5l2.75-3.3
		c0.1-0.101,1.184-1.4,3.25-3.9c0,0.767,0.033,1.217,0.1,1.351c0.1,0.3,0.417,0.449,0.95,0.449c0.433,0,0.7-0.116,0.8-0.35
		c0.033-0.3,0.083-0.533,0.15-0.7l1.55-5.45c0.033-0.133,0.066-0.283,0.1-0.449c0.034-0.167,0.083-0.317,0.15-0.45l0.15-0.601
		c0.066-0.233,0.133-0.466,0.2-0.699l0.1-0.5c0.333-1.367,0.767-3.167,1.3-5.4l0.65-4.6L22,148.6z"/>
</g>
</svg>
