<?xml version="1.0" encoding="iso-8859-1"?>
<!-- Generator: Adobe Illustrator 15.1.0, SVG Export Plug-In . SVG Version: 6.00 Build 0)  -->
<!DOCTYPE svg PUBLIC "-//W3C//DTD SVG 1.1//EN" "http://www.w3.org/Graphics/SVG/1.1/DTD/svg11.dtd">
<svg version="1.1" id="Layer_1" xmlns="http://www.w3.org/2000/svg" xmlns:xlink="http://www.w3.org/1999/xlink" x="0px" y="0px"
	 width="184.65px" height="178.2px" viewBox="0 0 184.65 178.2" style="enable-background:new 0 0 184.65 178.2;"
	 xml:space="preserve">
<g>
	<path style="fill-rule:evenodd;clip-rule:evenodd;fill:#9B9286;" d="M156.55,103.25c-0.566-17.033-0.483-27.617,0.25-31.75
		c0.434-1.633,0.733-2.967,0.9-4c0.3-1.767,0.45-4.533,0.45-8.3L158,39.85c0-2.633-0.75-5.85-2.25-9.65
		c-1.5-3.833-2.25-6.35-2.25-7.55c0-1.867,0.733-3.483,2.2-4.85c1.166-1.1,3.166-2.35,6-3.75l-1.851,0.45
		c0.7-0.2,1.301-0.417,1.801-0.65c0.399-0.2,0.75-0.3,1.05-0.3c1.7,0,3.666,0.35,5.899,1.05c2.733,0.867,4.483,1.95,5.25,3.25
		L173.7,23.8c-0.033,0.733-0.05,1.5-0.05,2.3c-0.2,4.5-0.567,10.85-1.101,19.05l-6.35-28.6l-0.15,1.55c0,3.467,0.25,6.233,0.75,8.3
		c0.3,1.267,0.9,3.434,1.8,6.5c2,8.233,3.5,24.033,4.5,47.4c-0.666,9.9-1.3,15.7-1.899,17.4c-0.033,0.133-0.267,0.533-0.7,1.2
		c-0.267,0.433-0.5,1.283-0.7,2.55c-0.566-0.367-1.333-0.75-2.3-1.15c-0.8-0.333-1.25-0.5-1.35-0.5c-0.101,0-0.4,0.233-0.9,0.7
		c-0.566,0.566-1.033,1.134-1.4,1.7c0.733-5.167,1.101-11.334,1.101-18.5l-0.05-7.35c-0.233,2.8-0.45,8.566-0.65,17.3
		c-0.4,7.366-1.417,11.05-3.05,11.05L156.55,103.25z M82.6,159.65l-3.2,0.8l-0.05-0.2C80.483,159.783,81.567,159.583,82.6,159.65z
		 M141.6,146.9c0.267,2.966,0.567,5.566,0.9,7.8l0.3,1.2C141.6,154.167,141.2,151.167,141.6,146.9z M137.3,23.45
		c0.334,10.6,0.816,32.917,1.45,66.95c0.6,22.333,1.417,39.666,2.45,52c-0.566-0.233-1.55-0.017-2.95,0.649
		c-1.233,0.134-2.184,0.566-2.85,1.3c0.6-1.733,1.166-5.267,1.699-10.6c0.801-7.866,1.2-17.616,1.2-29.25c0-6.866-0.3-22.2-0.899-46
		c-0.567-22.733-0.867-34.417-0.9-35.05H137.3z M149.45,172.85l-0.15,0.051v-1.45L149.45,172.85z M149.65,163.35L149.6,161.4
		c0-1.7,0.534-3.351,1.601-4.95c1.066-1.566,1.6-3.316,1.6-5.25c0-3.834-0.35-8.917-1.05-15.25c-0.733-6.533-1.134-20.851-1.2-42.95
		c1.134,7.4,2.351,17.167,3.65,29.3c1.3,12.2,2.066,21.117,2.3,26.75l0.05-43.85c3.566-0.4,6.55-0.084,8.95,0.95
		c1.267,0.566,2.6,1.333,4,2.3c0,9.133,0.05,15.184,0.15,18.149c0,1.601-0.084,2.801-0.25,3.601c-0.2,1.1-0.601,1.883-1.2,2.35
		c-1.134-0.233-2.283-1.149-3.45-2.75c-1.033-1.366-1.684-2.616-1.95-3.75c-0.033,2.8,0.134,5.434,0.5,7.9
		c0.367,2.5,0.55,4.25,0.55,5.25c0,1.3-0.199,2.583-0.6,3.85l-2.45-0.899c-0.166,0.399-0.35,1.083-0.55,2.05
		c-0.2,0.934-0.3,1.649-0.3,2.149c0,0.634,0.184,2.367,0.55,5.2c0.366,2.834,0.55,4.601,0.55,5.3c0,1.034-0.166,1.733-0.5,2.101
		c-0.267,0.3-0.85,0.566-1.75,0.8C155.467,160.55,152.417,161.75,149.65,163.35z M120.75,167.6l1.95,0.5
		c-1.7,0-3.15-0.449-4.351-1.35c-1.199-0.934-1.8-2.05-1.8-3.35c0.7-3.233,1.384-7.184,2.05-11.851
		c0.867-5.8,1.301-10.166,1.301-13.1c0-21.601-0.567-35.65-1.7-42.15c-0.834-4.7-1.601-11.466-2.3-20.3
		c0.666,4.867,1.933,10.883,3.8,18.05c0.2-2.467,0.3-5.517,0.3-9.15c0-3.333-0.384-8.533-1.15-15.6
		c-0.8-7.333-1.25-18.066-1.35-32.2c2.866,0.133,4.167-1.184,3.9-3.95h3.85c0,0.967,0.35,4.5,1.05,10.6
		c0.834,7.067,1.617,12.567,2.351,16.5l-0.2,4.35c0,1.467,0.267,5.05,0.8,10.75c0.533,5.7,0.8,10.683,0.8,14.95
		c0,10.267-0.717,18.4-2.149,24.4c-2.5,10.333-4.65,23.184-6.45,38.55l0.399-1.55l-0.8,3.95l0.15-4.4l-0.2,0.6
		c-0.3,2.367-0.467,5.884-0.5,10.551l-0.6,4.949l0.199,0.051l0.4-5l0.55-6.75l-0.3,5.949l-0.65,5.801L120.75,167.6z M98.15,135.9
		l0.399-0.2c0.033,0.033,0.066,0.05,0.101,0.05C98.483,135.783,98.316,135.833,98.15,135.9z M94.9,139.1l0.899-1.6l0.2-0.15
		L94.9,139.1z M64.25,133.85l2-2.35c0.467,0.267,1.15,0.85,2.05,1.75c1.1,1.066,1.784,1.7,2.05,1.9c0.7-0.9,1.617-3.233,2.75-7
		c1.233-4.101,1.867-7.317,1.9-9.65c0.033-2.566,0.25-5.733,0.65-9.5c0.4-3.634,0.6-6.45,0.6-8.45l-0.9-22.35l-0.25,1.85
		c-0.434,2.967-1.767,9.934-4,20.9c-2.267,11.033-3.567,17.616-3.9,19.75l0.05-1.55c-0.167-1.834-0.333-4.867-0.5-9.101
		c-0.133-3.467-0.2-5.666-0.2-6.6c-0.033-2.3-0.017-4.601,0.05-6.9c0.167-4.6,0.566-7.2,1.2-7.8c1.133-1.067,1.7-2.233,1.7-3.5
		c0-0.333-0.117-1.233-0.35-2.7c-0.267-1.5-0.4-2.417-0.4-2.75c0-5.133,0.35-8.95,1.05-11.45c1.034-3.7,2.967-5.583,5.8-5.65
		c6.133-0.167,9.667-1.6,10.6-4.3c0.267-1.333,0.55-2.25,0.85-2.75c0.5-0.833,1.55-1.25,3.15-1.25c0.433,0,0.966,0.15,1.6,0.45
		c0.4,0.167,1.134,0.517,2.2,1.05c-0.5,4.434-1.566,10.167-3.2,17.2c-0.966,4.133-1.316,10-1.05,17.6
		c-1.233-1.367-2.283-3.883-3.15-7.55c-0.633-2.767-0.934-5.05-0.9-6.85l-0.5,10.55c0,5.367,0.716,15.55,2.15,30.55
		c0.767,7.8,1.667,16.683,2.7,26.649c0.767,1.767,1.15,3.917,1.15,6.45c0,1.167-1.767,2.65-5.3,4.45c-3.1,1.6-5.433,2.517-7,2.75
		c-0.1-3.334-0.15-6.767-0.15-10.3c0-0.7-0.067-1.75-0.2-3.15c-0.2-2.033-0.483-3.616-0.85-4.75c-0.3-0.934-2.467-1.8-6.5-2.6
		C67.133,136.066,64.817,135.05,64.25,133.85z M11.15,95.9H10.9C8.433,93.333,7.167,88.8,7.1,82.3c0.033-3.7,0.017-6.383-0.05-8.05
		c-0.1-2.833-0.5-4.917-1.2-6.25C5.883,47.433,6,35.133,6.2,31.1c0.2-4.333,1.316-8.633,3.35-12.9c1.567,0,2.9-0.3,4-0.9
		c0.633-0.367,1.1-0.783,1.4-1.25c-0.467,1.934-0.967,5.5-1.5,10.7c-0.633,6.033-0.95,10.367-0.95,13c0,0.667,0.183,2.633,0.55,5.9
		c-0.133,2.8-0.617,6.367-1.45,10.7c-0.7,3.767-1.05,7.917-1.05,12.45c0,0.8,0.067,4.534,0.2,11.2
		C10.917,87.433,11.05,92.733,11.15,95.9z M59.45,12.6l-0.4-0.15L58.8,12.3L59.45,12.6z M88.15,20.6l1.6,1.7
		c-0.267-0.2-0.617-0.55-1.05-1.05L88.15,20.6z M83.55,15.6c-0.267-0.2-0.583-0.434-0.95-0.7l-1.3-0.85l0.15,1.55
		c0.667,3.2,2.3,7.2,4.9,12c2.433,4.5,3.65,6.767,3.65,6.8c0,2.434-0.75,4.217-2.25,5.35c-2.067,1.033-3.667,1.817-4.8,2.35
		c-1,0.5-1.817,1.133-2.45,1.9c-0.467,0.567-1.133,0.9-2,1c-0.033-9.8-0.483-16.367-1.35-19.7c-0.533-2.066-1.6-3.533-3.2-4.4
		c-0.567,5.567-1.233,9.883-2,12.95c-0.1-0.967-0.217-2.833-0.35-5.6c-0.133-2.467-0.2-4.033-0.2-4.7
		c0.333-6.267,0.5-10.783,0.5-13.55c2,0,3.767,0.383,5.3,1.15C78.633,11.817,80.75,13.3,83.55,15.6z M104.8,36.7l0.351,0.1
		c0.233,1.767,1.616,10.3,4.149,25.6c1.9,11.4,2.851,19.217,2.851,23.45c0,0.667-0.233,16.25-0.7,46.75
		c-3-0.033-6.351-0.25-10.05-0.649c-0.034-5.267,0.816-13.017,2.55-23.25c1.8-10.867,2.733-17.316,2.8-19.35
		c0.134-2.8,0.25-7.833,0.35-15.1c0.101-5.8,0.15-9.417,0.15-10.85c0-0.566-0.4-4.733-1.2-12.5
		C105.217,43.133,104.8,38.4,104.8,36.7z M115.45,37.05c-0.601,9.8-0.9,15.15-0.9,16.05c0,1.3,0.017,2.583,0.05,3.85
		c-0.366-6.034-0.699-12.633-1-19.8L115.45,37.05z M173.75,69.55c0.3,18,0.8,30.917,1.5,38.75l0.2-1.1
		c0.267-4.5,0.416-9.816,0.45-15.95c0.066,3.767,0.5,6.934,1.3,9.5c0.434,1.333,0.899,2.483,1.399,3.45
		c0.233,7.899,0.483,14.316,0.75,19.25c0,1.833-0.233,3.166-0.699,4c-1.634,2.899-2.851,5.267-3.65,7.1
		c-0.7-2.6-1.116-6.533-1.25-11.8c-0.033-4.8-0.066-7.3-0.1-7.5l2.399-0.05h-3.35l0.399-34.9L173.75,69.55z M160.75,169.2
		c-2.6-0.7-4.95-1.55-7.05-2.55c-2-0.967-3.3-1.851-3.9-2.65c3.4,0.8,6.517,1.417,9.351,1.85c1.133,0.233,1.699,0.834,1.699,1.801
		C160.85,168.316,160.816,168.833,160.75,169.2z M162.8,126.05c0.101-7.566,0.25-13.783,0.45-18.649
		c-0.2,2.433-0.566,5.25-1.1,8.449c-0.434,2.801-0.65,4.267-0.65,4.4L162.8,126.05z M98.8,90.1c0.7-4.066,1.384-9.85,2.05-17.35
		c0.601-6.867,0.917-11.733,0.95-14.6c0.334,0.8,0.934,1.75,1.8,2.85c0.233-1.367,0.351-5.267,0.351-11.7l-0.05-7.6
		c0.866,10.433,1.3,17.75,1.3,21.95c0,2.333-0.217,4.3-0.65,5.9c-0.7,2.5-1.184,4.483-1.45,5.95c-0.767,3.567-1.25,5.717-1.449,6.45
		C101.25,83.317,100.3,86.033,98.8,90.1z M90.95,52.2l-5.3-1.85c0.667-0.2,1.467-0.167,2.4,0.1
		C89.183,50.75,90.15,51.333,90.95,52.2z M85.85,71.2c0.033-2.633,0.033-4.583,0-5.85l-0.15,10.1
		C85.767,75.45,85.817,74.033,85.85,71.2z M149.9,92.8c-0.934,15.8-1.4,35.517-1.4,59.15c-0.267-4.601-0.45-8.267-0.55-11
		c-0.167-4.733-0.2-10.134-0.101-16.2c0.034-2.233-0.583-6.733-1.85-13.5c-1.267-6.3-1.9-9.467-1.9-9.5
		c0-0.767,0.45-6.583,1.351-17.45c0.967-11.267,1.5-18.833,1.6-22.7c0.101,8.533,0.066,16.133-0.1,22.8
		c0,1.533,0.416,3.184,1.25,4.95C148.634,90.283,149.2,91.434,149.9,92.8z M37.8,98.05c0.367-3.366-0.466-5.75-2.5-7.149
		c-1.1-0.634-1.883-1.117-2.35-1.45c-0.867-0.5-1.417-1.083-1.65-1.75c-0.733-2.633-1.316-4.534-1.75-5.7
		c-0.733-2.033-1.683-3.367-2.85-4c0.066-1.167,0.017-5.4-0.15-12.7c-0.066-3.566,0.567-6.233,1.9-8
		c1.367,1.367,2.65,3.267,3.85,5.7c0.934,1.867,1.617,2.8,2.05,2.8c0.8,0,1.6-0.617,2.4-1.85c0.767-1.2,1.15-2.4,1.15-3.6
		c-0.333-7.167-0.566-13.767-0.7-19.8c0.566,0.8,1.066,1.917,1.5,3.35l0.25-1.15c0.267,0.633,0.6,1.367,1,2.2
		c0.267,0.8,0.4,1.9,0.4,3.3c0,1.6-0.3,5.317-0.9,11.15c-0.633,5.833-0.95,8.967-0.95,9.4c0,3.567,0.1,9.117,0.3,16.65
		C38.833,91.684,38.5,95.884,37.8,98.05z M32.15,7.2c-0.267,1.466-0.633,4.45-1.1,8.95c0,0.333,0.167,1.6,0.5,3.8
		c0.3,2.167,0.45,3.417,0.45,3.75c0,4.433-0.383,7.1-1.15,8c-0.467,0.566-2.617,1.367-6.45,2.4l-3.15-0.35
		c0.6-0.667,1.3-3.067,2.1-7.2c0.9-4.6,1.816-7.8,2.75-9.6c1-1.934,1.717-2.934,2.15-3c0.633-0.1,1-0.2,1.1-0.3
		c0.2-0.2,0.55-1.167,1.05-2.9C30.933,9.05,31.517,7.867,32.15,7.2z M17.7,11.2c-0.067,4.267-0.167,7.9-0.3,10.9
		c0,0.967,0.1,3.066,0.3,6.3c0.233,3.7,0.433,5.567,0.6,5.6l-1.65,0.85c-0.167-7.833-0.25-12.083-0.25-12.75
		c0-3.567,0.25-6.267,0.75-8.1C17.45,12.933,17.633,12,17.7,11.2z M24.45,77.8l-2.65,0.55L22,60.5c0,0.233,0.383,3.017,1.15,8.35
		C23.883,74.117,24.317,77.1,24.45,77.8z M17.4,94.5c0.167-1.467,0.45-3.55,0.85-6.25c0.2,1.367,0.133,2.733-0.2,4.1
		C18.017,92.616,17.8,93.333,17.4,94.5z M59.9,104.9c-0.066-4.7-0.117-7.25-0.15-7.65c0.267-0.4,0.833-1.434,1.7-3.1
		C60.483,100.917,59.967,104.5,59.9,104.9z M49.55,111.45l-0.05,0.399l-0.05,0.301L49.55,111.45z M142.55,146.35l-0.05,0.15
		l-0.05-16.8c0-2.9,0.25-13.9,0.75-33l0.05,4l-0.05-0.851L142.55,146.35z M121,159.4l-0.25,8.199v-6L121,159.4z"/>
	<path style="fill-rule:evenodd;clip-rule:evenodd;fill:#898074;" d="M156.55,105.2l-1.5,0.1c0.134-0.3,0.367-0.666,0.7-1.1
		c0.333-0.467,0.6-0.783,0.8-0.95l4.65,1.45c1.633,0,2.649-3.684,3.05-11.05c0.2-8.734,0.417-14.5,0.65-17.3l0.05,7.35
		c0,7.166-0.367,13.333-1.101,18.5c0.367-0.566,0.834-1.134,1.4-1.7c0.5-0.467,0.8-0.7,0.9-0.7c0.1,0,0.55,0.167,1.35,0.5
		c0.967,0.4,1.733,0.783,2.3,1.15c0.2-1.267,0.434-2.117,0.7-2.55c0.434-0.667,0.667-1.067,0.7-1.2c0.6-1.7,1.233-7.5,1.899-17.4
		c-1-23.367-2.5-39.167-4.5-47.4c-0.899-3.066-1.5-5.233-1.8-6.5c-0.5-2.066-0.75-4.833-0.75-8.3l0.15-1.55l6.35,28.6
		c1.2,5.333,1.75,10.05,1.65,14.15c-0.033,2.333-0.184,5.75-0.45,10.25L173.1,80.3l-0.399,34.9h3.35l-2.399,0.05
		c0.033,0.2,0.066,2.7,0.1,7.5c0.134,5.267,0.55,9.2,1.25,11.8c0.8-1.833,2.017-4.2,3.65-7.1c0.466-0.834,0.699-2.167,0.699-4
		c-0.267-4.934-0.517-11.351-0.75-19.25c-0.233-7.367-0.366-13.884-0.399-19.55l0.8,0.5c0.1,0.033,1.55,0.483,4.35,1.35
		c0.134,1.133,0.384,7.066,0.75,17.8c0.367,11.434,0.551,19.334,0.551,23.7c0,3.6-0.784,6.866-2.351,9.8
		c-0.767,1.467-1.566,2.9-2.399,4.3c-0.2,2.4-0.867,3.817-2,4.25c-0.801,0.301-2.684,0.2-5.65-0.3c-1.3-0.066-2.3-0.017-3,0.15
		c-1.167,0.934-1.7,2.55-1.6,4.85c0.066,1.267,0.233,3.033,0.5,5.3c0,0.467-0.7,1.567-2.101,3.301
		c-1.533,1.866-2.45,3.433-2.75,4.699c-0.2,0.801-0.733,3.317-1.6,7.551c-0.434,2.066-0.884,3.466-1.351,4.199
		c-0.966,1.4-4.199,2.101-9.699,2.101c-1.267,0-2.117-0.15-2.551-0.45c-0.933-0.667-1.649-2.184-2.149-4.55l0.899-0.15l0.45-0.05
		l2-0.1l0.15-0.051c1.5-0.1,3.5-0.366,6-0.8c1.967-0.066,3.633-0.733,5-2l0.3-0.85c0.066-0.367,0.1-0.884,0.1-1.55
		c0-0.967-0.566-1.567-1.699-1.801c-2.834-0.433-5.95-1.05-9.351-1.85l-0.149-0.65c2.767-1.6,5.816-2.8,9.149-3.6
		c0.9-0.233,1.483-0.5,1.75-0.8c0.334-0.367,0.5-1.066,0.5-2.101c0-0.699-0.184-2.466-0.55-5.3c-0.366-2.833-0.55-4.566-0.55-5.2
		c0-0.5,0.1-1.216,0.3-2.149c0.2-0.967,0.384-1.65,0.55-2.05l2.45,0.899c0.4-1.267,0.6-2.55,0.6-3.85c0-1-0.183-2.75-0.55-5.25
		c-0.366-2.467-0.533-5.101-0.5-7.9c0.267,1.134,0.917,2.384,1.95,3.75c1.167,1.601,2.316,2.517,3.45,2.75
		c0.6-0.467,1-1.25,1.2-2.35c0.166-0.8,0.25-2,0.25-3.601c-0.101-2.966-0.15-9.017-0.15-18.149c-1.4-0.967-2.733-1.733-4-2.3
		C163.1,105.116,160.116,104.8,156.55,105.2z M113.6,37.15c0.301,7.167,0.634,13.767,1,19.8c0.101,7,0.517,13.15,1.25,18.45
		c0,0.2,0.017,0.4,0.051,0.6c0.699,8.833,1.466,15.6,2.3,20.3c1.133,6.5,1.7,20.55,1.7,42.15c0,2.934-0.434,7.3-1.301,13.1
		c-0.666,4.667-1.35,8.617-2.05,11.851c-0.033-1.334,0.017-3.301,0.15-5.9c0.133-2.434,0.2-3.816,0.2-4.15
		c0-2.933-1.067-4.767-3.2-5.5c-0.601,0-1.167-0.083-1.7-0.25c-2.833-2.833-5.066-4.866-6.7-6.1c-1.6-1.233-3.233-2.684-4.899-4.35
		l-0.15-0.15c-0.833-0.833-1.283-1.25-1.35-1.25c-0.101,0-0.184,0-0.25,0c-0.034,0-0.067-0.017-0.101-0.05l0.4-3.75h2.45
		c3.699,0.399,7.05,0.616,10.05,0.649c0.467-30.5,0.7-46.083,0.7-46.75c0-4.233-0.95-12.05-2.851-23.45
		c-2.533-15.3-3.916-23.833-4.149-25.6c0.633,0.233,1.75,0.417,3.35,0.55L113.6,37.15z M26.7,78c1.167,0.633,2.117,1.967,2.85,4
		c0.434,1.167,1.017,3.067,1.75,5.7c0.233,0.667,0.784,1.25,1.65,1.75c0.466,0.333,1.25,0.816,2.35,1.45
		c2.034,1.399,2.867,3.783,2.5,7.149c0.167,2.167,0.083,3.601-0.25,4.3c-0.167,0.4-0.417,0.684-0.75,0.851
		c-0.8-0.934-1.533-1.851-2.2-2.75l-0.7-1c-0.967-1.767-1.667-4.634-2.1-8.601c-0.267-2.2-1.8-3.716-4.6-4.55
		c-0.7-0.3-1.434-0.466-2.2-0.5c-0.733,0-1.5,0.117-2.3,0.35c-0.934,0.733-1.567,1.8-1.9,3.2c-0.2,0.8-0.383,2.016-0.55,3.65
		c-0.533,2.866-2.5,4.3-5.9,4.3c-0.434,0-1-0.116-1.7-0.35c-0.467-0.167-0.8-0.3-1-0.4l-1.05-0.7l0.3,0.051h0.25
		c1.633,0.3,2.883,0.366,3.75,0.199c1.1-0.166,1.934-0.699,2.5-1.6c0.4-1.167,0.617-1.884,0.65-2.15c0.333-1.366,0.4-2.733,0.2-4.1
		c-0.167-2.467-0.25-4.033-0.25-4.7c2.6-18.566,4-30.2,4.2-34.9L22,60.5l-0.2,17.85l2.65-0.55C25.317,77.833,26.067,77.9,26.7,78z
		 M128.65,60.25c-0.733-3.933-1.517-9.433-2.351-16.5c-0.7-6.1-1.05-9.633-1.05-10.6c1.366,0,2.55-0.467,3.55-1.4
		c0.967-0.933,1.45-2.067,1.45-3.4c0.066-0.434,0.6-1.65,1.6-3.65c0,0.066,0.017,0.133,0.051,0.2c0.267,1.467,0.35,2.717,0.25,3.75
		c-0.067,0.767-0.284,2.417-0.65,4.95c-0.9,7.6-1.3,20.1-1.2,37.5L128.65,60.25z M162.8,126.05l-1.3-5.8c0-0.134,0.217-1.6,0.65-4.4
		c0.533-3.199,0.899-6.017,1.1-8.449C163.05,112.267,162.9,118.483,162.8,126.05z M132.15,86.6c0.366,4.633,0.517,7.766,0.449,9.4
		c-0.767-6.033-1.366-11.867-1.8-17.5c-0.2-2.2-0.366-4.667-0.5-7.4C131.066,75.9,131.684,81.067,132.15,86.6z"/>
	<path style="fill-rule:evenodd;clip-rule:evenodd;fill:#7C7367;" d="M175.9,91.25c-0.034,6.134-0.184,11.45-0.45,15.95l-0.2,1.1
		c-0.7-7.833-1.2-20.75-1.5-38.75c0.267-4.5,0.417-7.917,0.45-10.25c0.1-4.1-0.45-8.816-1.65-14.15c0.533-8.2,0.9-14.55,1.101-19.05
		c0,3.4,0.199,7.283,0.6,11.65c0.767,8.3,1.267,12.75,1.5,13.35c0.3,0.767,0.55,2.033,0.75,3.8c-0.033,2.367-0.15,8.45-0.35,18.25
		C176.017,81.05,175.934,87.083,175.9,91.25z M141.6,146.9c0.034-0.367,0.067-0.733,0.101-1.101c0.166-1.666,0.1-2.717-0.2-3.149
		c-0.1-0.101-0.2-0.184-0.3-0.25c-1.033-12.334-1.851-29.667-2.45-52c-0.634-34.034-1.116-56.351-1.45-66.95l3.351,0.15
		c0.199,0,0.399,0,0.6,0v0.05c1.033,18.467,1.684,28.717,1.95,30.75c0.2,1.767,0.733,5.067,1.6,9.9l0.25,0.25
		c0.367-0.867,0.783-2.7,1.25-5.5c0.566-3.3,0.884-6.333,0.95-9.1c-0.033,6.1-0.1,9.983-0.2,11.65c-0.1,3.867-0.633,11.433-1.6,22.7
		c-0.9,10.867-1.351,16.684-1.351,17.45c0,0.033,0.634,3.2,1.9,9.5c1.267,6.767,1.884,11.267,1.85,13.5
		c-0.1,6.066-0.066,11.467,0.101,16.2c0.1,2.733,0.283,6.399,0.55,11c0-23.634,0.467-43.351,1.4-59.15l0.6-10.2l0.05,10.4
		c0.066,22.1,0.467,36.417,1.2,42.95c0.7,6.333,1.05,11.416,1.05,15.25c0,1.934-0.533,3.684-1.6,5.25
		c-1.066,1.6-1.601,3.25-1.601,4.95l0.051,1.949L149.8,164c0.601,0.8,1.9,1.684,3.9,2.65c2.1,1,4.45,1.85,7.05,2.55l-0.3,0.85
		c-2.934,0-5,0.267-6.2,0.8l0.3,0.4c0.3,0.3,0.601,0.566,0.9,0.8c-2.5,0.434-4.5,0.7-6,0.8l-0.15-1.399v1.45l-2,0.1l0.05-3.95
		c0-0.866-0.083-2.85-0.25-5.95c-0.166-3.8-0.366-6.699-0.6-8.699c0-2.301-0.467-7.45-1.4-15.45c-0.033-2.767-0.233-6.783-0.6-12.05
		c-0.467-6.667-0.884-15.301-1.25-25.9v-0.3l-0.05-4c-0.5,19.1-0.75,30.1-0.75,33l0.05,16.8l0.05-0.15l-0.05,8.351
		C142.167,152.467,141.866,149.866,141.6,146.9z M82.6,159.65c-1.033-0.067-2.117,0.133-3.25,0.6l-0.45-2.1l-0.05-0.45h0.05
		c1.567-0.233,3.9-1.15,7-2.75c3.533-1.8,5.3-3.283,5.3-4.45c0-2.533-0.383-4.684-1.15-6.45c-1.033-9.967-1.933-18.85-2.7-26.649
		c-1.434-15-2.15-25.184-2.15-30.55l0.5-10.55c-0.034,1.8,0.267,4.083,0.9,6.85c0.867,3.667,1.917,6.184,3.15,7.55
		c-0.267-7.6,0.083-13.467,1.05-17.6c1.634-7.033,2.7-12.767,3.2-17.2c-0.1-0.167-0.384-0.45-0.85-0.85
		c-0.467-0.367-1.2-1.316-2.2-2.85c-0.8-0.867-1.767-1.45-2.9-1.75c-0.933-0.267-1.733-0.3-2.4-0.1c-0.167,0.1-1.5,0.15-4,0.15
		c-2.633,0.033-5.417,0.783-8.35,2.25c-1.867,0.933-3.883,2.45-6.05,4.55c-1.833,1.8-2.75,2.817-2.75,3.05
		c0,0.667,0.017,5.483,0.05,14.45c-0.3-2.633-1.033-5.5-2.2-8.6c-1.533-4.167-2.833-8.483-3.9-12.95l0.05,0.95
		c0,2.1-0.217,5.45-0.65,10.05c-0.434,4.567-0.65,7.017-0.65,7.35c0,0.3,0.417,4.45,1.25,12.45c0.833,8.066,1.267,12.467,1.3,13.2
		c0.033,0.4,0.083,2.95,0.15,7.65c0.067,4.6,0.017,7.699-0.15,9.3c-0.667-0.434-1.75-0.7-3.25-0.8
		c-1.367-0.134-2.783-0.101-4.25,0.1L51.9,93.7c0.4-2.9,0.617-4.75,0.65-5.55c0.133-2.333,0.017-5.867-0.35-10.6
		c2.566-14.566,4.466-27.233,5.7-38c1.434-12.767,1.817-21.8,1.15-27.1l0.4,0.15l3.15,1.25c-0.033,1.2-0.233,2.983-0.6,5.35
		c-0.333,2.233-0.5,3.716-0.5,4.45c0,8.7,2.117,14.617,6.35,17.75c1.467,1.1,3.316,1.95,5.55,2.55c1.233,0.3,2.934,0.65,5.1,1.05
		c0.867-0.1,1.533-0.433,2-1c0.633-0.767,1.45-1.4,2.45-1.9c1.133-0.533,2.733-1.317,4.8-2.35c1.5-1.133,2.25-2.917,2.25-5.35
		c0-0.033-1.217-2.3-3.65-6.8c-2.6-4.8-4.233-8.8-4.9-12l-0.15-1.55l1.3,0.85c0.367,0.267,0.683,0.5,0.95,0.7l0.25,0.2
		c0.2,0.167,0.417,0.333,0.65,0.5c1.033,0,1.917,0.417,2.65,1.25c0.7,0.833,1.05,1.85,1.05,3.05l0.55,0.65
		c0.433,0.5,0.783,0.85,1.05,1.05c0.067,0.034,0.267,0.184,0.6,0.45c0.6,0.433,1.533,1.033,2.8,1.8c-0.067,0.467,0.1,1.767,0.5,3.9
		c0.5,2.6,0.8,5.1,0.899,7.5c0.033,1.333,0.65,3.783,1.851,7.35c1.166,3.534,1.75,5.567,1.75,6.1c-2.9,25.7-4.534,39.267-4.9,40.7
		c-0.7,2.9-1.15,5.267-1.35,7.101c-0.566,5.566-0.85,10.934-0.85,16.1c0,13,0.467,23.667,1.4,32c0.5,4.4,1.149,10.066,1.95,17
		l-0.65,0.45c-0.366,0.2-0.8,0.35-1.3,0.45c-0.667,0.133-1.467,0.166-2.4,0.1l-2.7-0.2c-0.9-0.966-1.5-1.583-1.8-1.85
		C85.117,160.884,84.133,160.35,82.6,159.65z M49.55,111.45l0.95-6.851v9.15l-0.85,0.05l-0.15-1.95L49.55,111.45z M36.8,103.2
		c0.333-0.167,0.583-0.45,0.75-0.851c0.333-0.699,0.417-2.133,0.25-4.3c0.7-2.166,1.034-6.366,1-12.6
		c-0.2-7.534-0.3-13.083-0.3-16.65c0-0.433,0.317-3.566,0.95-9.4c0.6-5.833,0.9-9.55,0.9-11.15c0-1.4-0.133-2.5-0.4-3.3
		c-0.4-0.833-0.733-1.567-1-2.2c0.3-1.867,0.45-3.6,0.45-5.2c0-0.9-0.066-2.267-0.2-4.1c-0.233-2.667-0.467-13.3-0.7-31.9l3.6,1.6
		c0.767,1.367,2.283,1.783,4.55,1.25c0.033,0.167,0.367,1.35,1,3.55c0.6,2.3,0.883,3.933,0.85,4.9c-0.333,15.9-0.3,25.217,0.1,27.95
		c0.1,0.7,0.267,1.3,0.5,1.8c0.167,0.667,0.25,2.1,0.25,4.3L45.75,69c0,0.667,0.267,2.417,0.8,5.25c-0.1,4.7-0.283,10.5-0.55,17.4
		L45.9,87.8c-0.133,0.434-0.367,1.934-0.7,4.5c-0.3,2.367-0.45,3.634-0.45,3.8c0,0.334,0.083,2.584,0.25,6.75
		c0.133,4.567,0.2,8.051,0.2,10.45v0.05c-0.267-0.3-0.517-0.583-0.75-0.85c-1.233-1.333-2.534-2.884-3.9-4.65L36.8,103.2z
		 M36.2,39.25c-0.833-0.6-2.333-1.2-4.5-1.8c-1.733-0.5-2.767-0.75-3.1-0.75c-4.333,0-7.5,0.683-9.5,2.05
		c-1.8,1.233-2.567,2.967-2.3,5.2c0.167,1.5-0.233,6.583-1.2,15.25c-1.133,10.133-1.717,15.483-1.75,16.05
		c0.033-15.3,0.033-23.333,0-24.1c-0.233,0.333-0.5-1.5-0.8-5.5c-0.367-3.267-0.55-5.233-0.55-5.9c0-2.633,0.317-6.967,0.95-13
		c0.533-5.2,1.033-8.767,1.5-10.7c0.167-0.333,0.25-0.683,0.25-1.05c0.1-0.567,0.2-1.9,0.3-4c0.067-0.667,0.483-1.467,1.25-2.4
		c0.667-0.8,1.283-1.367,1.85-1.7l-0.9,3.2c0,0.367,0,0.733,0,1.1c-0.067,0.8-0.25,1.733-0.55,2.8c-0.5,1.833-0.75,4.533-0.75,8.1
		c0,0.667,0.083,4.917,0.25,12.75c0.934,0.533,1.8,0.8,2.6,0.8c0.6,0,1.567-0.233,2.9-0.7c0.7-0.233,1.45-0.517,2.25-0.85
		c3.833-1.033,5.983-1.833,6.45-2.4c0.767-0.9,1.15-3.567,1.15-8c0-0.333-0.15-1.583-0.45-3.75c-0.333-2.2-0.5-3.467-0.5-3.8
		c0.467-4.5,0.833-7.483,1.1-8.95c0.167-1.333,0.317-2.883,0.45-4.65c0.066-1.466,0.1-2.216,0.1-2.25l1.8,0.15
		c1.267,0.1,2.133,0.25,2.6,0.45c0,0.033-0.533,2.5-1.6,7.4c-1.1,5.167-1.633,8.467-1.6,9.9l0.1,3.65c0,6-0.467,9.783-1.4,11.35
		c-0.633,1.033-1.684,1.65-3.15,1.85C31.617,35.35,33.867,36.75,36.2,39.25z M85.85,71.2c-0.033,2.833-0.083,4.25-0.15,4.25
		l0.15-10.1C85.883,66.617,85.883,68.567,85.85,71.2z M121.05,155.65l-0.55,6.75l-0.4,5l-0.199-0.051l0.6-4.949
		c0.033-4.667,0.2-8.184,0.5-10.551l0.2-0.6L121.05,155.65z"/>
	<path style="fill-rule:evenodd;clip-rule:evenodd;fill:#B3AA9E;" d="M178.2,84.65c0.033,5.667,0.166,12.183,0.399,19.55
		c-0.5-0.967-0.966-2.117-1.399-3.45c-0.8-2.566-1.233-5.733-1.3-9.5c0.033-4.167,0.116-10.2,0.25-18.1
		c0.199-9.8,0.316-15.883,0.35-18.25c0.533,9.434,0.65,17.267,0.35,23.5C176.717,80.633,177.167,82.717,178.2,84.65z M120.75,167.6
		L121,159.4l0.85-7.7l-0.399,1.55c1.8-15.366,3.95-28.217,6.45-38.55c1.433-6,2.149-14.134,2.149-24.4c0-4.267-0.267-9.25-0.8-14.95
		c-0.533-5.7-0.8-9.283-0.8-10.75l0.2-4.35L130.3,71.1c-0.1-17.4,0.3-29.9,1.2-37.5c0.366-2.533,0.583-4.184,0.65-4.95
		c0.1-1.033,0.017-2.283-0.25-3.75c-0.034-0.066-0.051-0.133-0.051-0.2l0.301-0.3c0.933-0.467,2.383-0.783,4.35-0.95
		c0.033,0.633,0.333,12.316,0.9,35.05c0.6,23.8,0.899,39.134,0.899,46c0,11.634-0.399,21.384-1.2,29.25
		c-0.533,5.333-1.1,8.866-1.699,10.6c-0.267,0.733-0.483,2.717-0.65,5.95l-0.8,0.15c-1.233-0.2-2.05-0.434-2.45-0.7
		c-0.533-0.4-1.116-0.816-1.75-1.25c-1.333,1.267-2.333,3.833-3,7.7c-0.566,3.467-0.8,7.517-0.7,12.149
		c-0.899,0.034-2.017-0.05-3.35-0.25L120.75,167.6z M156.55,105.2l-0.05,43.85c-0.233-5.633-1-14.55-2.3-26.75
		c-1.3-12.133-2.517-21.899-3.65-29.3l-0.05-10.4l-0.6,10.2c-0.7-1.366-1.267-2.517-1.7-3.45c-0.834-1.767-1.25-3.417-1.25-4.95
		c0.166-6.667,0.2-14.267,0.1-22.8c0.101-1.667,0.167-5.55,0.2-11.65c0.6-10.7,0.884-19.333,0.85-25.9c0.667,0,1.2-0.066,1.601-0.2
		l0.35-0.2c0-2.5,0.934-4.633,2.8-6.4c1.867-1.8,4.117-2.7,6.75-2.7l0.25-0.05l1.851-0.45c-2.834,1.4-4.834,2.65-6,3.75
		c-1.467,1.367-2.2,2.983-2.2,4.85c0,1.2,0.75,3.717,2.25,7.55c1.5,3.8,2.25,7.017,2.25,9.65l0.15,19.35
		c0,3.767-0.15,6.533-0.45,8.3c-0.167,1.033-0.467,2.367-0.9,4c-0.733,4.133-0.816,14.717-0.25,31.75
		c-0.2,0.167-0.467,0.483-0.8,0.95c-0.333,0.434-0.566,0.8-0.7,1.1L156.55,105.2z M115.45,37.05h2.05v0.05
		c0.1,14.133,0.55,24.867,1.35,32.2c0.767,7.067,1.15,12.267,1.15,15.6c0,3.633-0.1,6.683-0.3,9.15
		c-1.867-7.167-3.134-13.183-3.8-18.05c-0.034-0.2-0.051-0.4-0.051-0.6c-0.733-5.3-1.149-11.45-1.25-18.45
		c-0.033-1.267-0.05-2.55-0.05-3.85C114.55,52.2,114.85,46.85,115.45,37.05z M104.8,36.7c0,1.7,0.417,6.433,1.25,14.2
		c0.8,7.767,1.2,11.934,1.2,12.5c0,1.434-0.05,5.05-0.15,10.85c-0.1,7.267-0.216,12.3-0.35,15.1c-0.066,2.034-1,8.483-2.8,19.35
		c-1.733,10.233-2.584,17.983-2.55,23.25h-2.45l-0.4,3.75l-0.399,0.2H98.1c0-0.101-0.233-2.551-0.699-7.351
		c-0.434-4.533-0.784-9.649-1.051-15.35c0.334-4.867,0.667-8.767,1-11.7c0.534-3.8,1.017-7.6,1.45-11.4
		c1.5-4.066,2.45-6.783,2.851-8.149c0.199-0.733,0.683-2.883,1.449-6.45c0.267-1.467,0.75-3.45,1.45-5.95
		c0.434-1.6,0.65-3.566,0.65-5.9c0-4.2-0.434-11.517-1.3-21.95l-0.101-5.3L104.8,36.7z M79.4,160.45l3.2-0.8
		c1.533,0.699,2.517,1.233,2.95,1.6c0.3,0.267,0.9,0.884,1.8,1.85L83.4,163.2C81.3,163.2,79.967,162.283,79.4,160.45z M59.75,114.2
		c0.167-1.601,0.217-4.7,0.15-9.3c0.067-0.4,0.583-3.983,1.55-10.75c-0.867,1.666-1.434,2.699-1.7,3.1
		c-0.033-0.733-0.467-5.134-1.3-13.2c-0.833-8-1.25-12.15-1.25-12.45c0-0.333,0.216-2.783,0.65-7.35c0.433-4.6,0.65-7.95,0.65-10.05
		l-0.05-0.95c1.066,4.467,2.367,8.783,3.9,12.95c1.167,3.1,1.9,5.966,2.2,8.6c-0.033-8.966-0.05-13.783-0.05-14.45
		c0-0.233,0.917-1.25,2.75-3.05c2.167-2.1,4.183-3.617,6.05-4.55c2.934-1.467,5.717-2.217,8.35-2.25c2.5,0,3.833-0.05,4-0.15
		l5.3,1.85c1,1.533,1.733,2.483,2.2,2.85c0.466,0.4,0.75,0.684,0.85,0.85c-1.066-0.533-1.8-0.883-2.2-1.05
		c-0.633-0.3-1.167-0.45-1.6-0.45c-1.6,0-2.65,0.417-3.15,1.25c-0.3,0.5-0.583,1.417-0.85,2.75c-0.934,2.7-4.467,4.133-10.6,4.3
		c-2.833,0.066-4.767,1.95-5.8,5.65c-0.7,2.5-1.05,6.316-1.05,11.45c0,0.333,0.133,1.25,0.4,2.75c0.233,1.467,0.35,2.367,0.35,2.7
		c0,1.267-0.567,2.433-1.7,3.5c-0.633,0.6-1.033,3.2-1.2,7.8c-0.067,2.3-0.083,4.601-0.05,6.9c0,0.934,0.067,3.133,0.2,6.6
		c0.167,4.233,0.333,7.267,0.5,9.101l-0.05,1.55c0.333-2.134,1.633-8.717,3.9-19.75c2.233-10.967,3.566-17.934,4-20.9l0.25-1.85
		l0.9,22.35c0,2-0.2,4.816-0.6,8.45c-0.4,3.767-0.617,6.934-0.65,9.5c-0.033,2.333-0.667,5.55-1.9,9.65
		c-1.133,3.767-2.05,6.1-2.75,7c-0.267-0.2-0.95-0.834-2.05-1.9c-0.9-0.9-1.583-1.483-2.05-1.75l-2,2.35c-0.1-1-0.083-3.1,0.05-6.3
		c0.133-3.133,0.2-4.866,0.2-5.2c0-2.399-0.383-4.1-1.15-5.1C63.25,117.083,62.05,116.066,59.75,114.2z M9.55,18.2
		C7.517,22.467,6.4,26.767,6.2,31.1C6,35.133,5.883,47.433,5.85,68c-1.934-1.833-3.133-4-3.6-6.5C1.95,60,1.867,57.033,2,52.6
		c0-0.133-0.333-2.434-1-6.9c-0.667-4.6-1-8.383-1-11.35c0-0.333,0.383-1.5,1.15-3.5c0.733-1.9,1.067-2.883,1-2.95l-0.1-0.7
		c2.5-1.2,4.034-2.867,4.6-5C7.183,20.133,8.15,18.8,9.55,18.2z M32.7,0.3c0,0.034-0.034,0.784-0.1,2.25
		c-0.133,1.767-0.283,3.317-0.45,4.65c-0.633,0.667-1.217,1.85-1.75,3.55c-0.5,1.733-0.85,2.7-1.05,2.9c-0.1,0.1-0.467,0.2-1.1,0.3
		c-0.433,0.066-1.15,1.066-2.15,3c-0.934,1.8-1.85,5-2.75,9.6c-0.8,4.133-1.5,6.534-2.1,7.2l3.15,0.35
		c-0.8,0.333-1.55,0.617-2.25,0.85c-1.333,0.466-2.3,0.7-2.9,0.7c-0.8,0-1.667-0.267-2.6-0.8L18.3,34
		c-0.167-0.033-0.367-1.9-0.6-5.6c-0.2-3.233-0.3-5.333-0.3-6.3c0.133-3,0.233-6.633,0.3-10.9c0-0.367,0-0.733,0-1.1l0.9-3.2
		c0.933-0.433,2.316-1.95,4.15-4.55C25.083,0.183,28.4-0.5,32.7,0.3z M71.9,10c0,2.767-0.167,7.283-0.5,13.55
		c0,0.667,0.067,2.233,0.2,4.7c0.133,2.767,0.25,4.633,0.35,5.6c0.767-3.067,1.433-7.383,2-12.95c1.6,0.867,2.667,2.333,3.2,4.4
		c0.867,3.333,1.317,9.9,1.35,19.7c-2.167-0.4-3.867-0.75-5.1-1.05c-2.233-0.6-4.083-1.45-5.55-2.55
		c-4.233-3.133-6.35-9.05-6.35-17.75c0-0.733,0.167-2.217,0.5-4.45c0.367-2.367,0.567-4.15,0.6-5.35c0.667,0.3,1.017,0.45,1.05,0.45
		c0.367,0.133,0.767,0.2,1.2,0.2c1,0,1.95-0.917,2.85-2.75C68.633,9.917,69.667,9,70.8,9c0.367,0,0.617,0.15,0.75,0.45
		C71.683,9.783,71.8,9.967,71.9,10z M132.15,86.6c-0.467-5.533-1.084-10.7-1.851-15.5c0.134,2.733,0.3,5.2,0.5,7.4
		c0.434,5.633,1.033,11.467,1.8,17.5C132.667,94.366,132.517,91.233,132.15,86.6z M18.25,88.25c-0.4,2.7-0.683,4.783-0.85,6.25
		c-0.566,0.9-1.4,1.434-2.5,1.6c-0.867,0.167-2.117,0.101-3.75-0.199c-0.1-3.167-0.233-8.467-0.4-15.9
		c-0.133-6.667-0.2-10.4-0.2-11.2c0-4.533,0.35-8.683,1.05-12.45c0.833-4.333,1.316-7.9,1.45-10.7c0.3,4,0.567,5.833,0.8,5.5
		c0.033,0.767,0.033,8.8,0,24.1c0.033-0.567,0.617-5.917,1.75-16.05c0.967-8.667,1.367-13.75,1.2-15.25
		c-0.267-2.233,0.5-3.967,2.3-5.2c2-1.367,5.167-2.05,9.5-2.05c0.333,0,1.367,0.25,3.1,0.75c2.167,0.6,3.667,1.2,4.5,1.8l1,1.3
		c0.133,6.034,0.367,12.633,0.7,19.8c0,1.2-0.383,2.4-1.15,3.6c-0.8,1.233-1.6,1.85-2.4,1.85c-0.434,0-1.117-0.933-2.05-2.8
		c-1.2-2.433-2.483-4.333-3.85-5.7c-1.333,1.767-1.967,4.434-1.9,8c0.167,7.3,0.217,11.534,0.15,12.7
		c-0.633-0.1-1.383-0.167-2.25-0.2c-0.133-0.7-0.567-3.683-1.3-8.95C22.383,63.517,22,60.733,22,60.5l0.2-11.85
		c-0.2,4.7-1.6,16.333-4.2,34.9C18,84.217,18.083,85.783,18.25,88.25z"/>
	<path style="fill-rule:evenodd;clip-rule:evenodd;fill:#6D655A;" d="M145.1,138.95l-1.25-12.2v33.35l-1.05-4.199l-0.3-1.2
		l0.05-8.351l0.65-46.5l0.05,0.851v0.3c0.366,10.6,0.783,19.233,1.25,25.9C144.866,132.167,145.066,136.184,145.1,138.95z
		 M95.8,137.5l-0.899,1.6l-0.2,0.801v22.05l-0.3,0.35c-0.801-6.934-1.45-12.6-1.95-17c-0.934-8.333-1.4-19-1.4-32
		c0-5.166,0.284-10.533,0.85-16.1c0.2-1.834,0.65-4.2,1.35-7.101c0.366-1.433,2-15,4.9-40.7c0-0.533-0.584-2.566-1.75-6.1
		c-1.2-3.566-1.817-6.017-1.851-7.35c-0.1-2.4-0.399-4.9-0.899-7.5c-0.4-2.133-0.567-3.434-0.5-3.9
		c1.866,1.434,2.983,2.534,3.35,3.3c0.233,0.5,0.634,1.5,1.2,3C97.566,33.917,98,38.6,99,44.9c0.934,5.9,1.866,10.317,2.8,13.25
		c-0.033,2.867-0.35,7.733-0.95,14.6c-0.666,7.5-1.35,13.283-2.05,17.35c-0.434,3.801-0.916,7.601-1.45,11.4
		c-0.333,2.934-0.666,6.833-1,11.7c-0.133-5.3,0.233-11.867,1.101-19.7c0.434-3.8,1.45-11.483,3.05-23.05
		c-4.866,27.066-7.3,40.934-7.3,41.6c0,10.167,0.2,16.3,0.6,18.4C94.1,131.884,94.767,134.233,95.8,137.5z M51.9,93.7l0.35,19.8
		l-1.75,0.25v-9.15L51.9,93.7z M49.2,113.85l0.25-1.699l0.05-0.301l0.15,1.95L49.2,113.85z M46,91.65
		c-0.067,6.933,0.117,14.533,0.55,22.8l-0.35-0.2c-0.3-0.2-0.633-0.5-1-0.9v-0.05c0-2.399-0.067-5.883-0.2-10.45
		c-0.167-4.166-0.25-6.416-0.25-6.75c0-0.166,0.15-1.433,0.45-3.8c0.333-2.566,0.566-4.066,0.7-4.5L46,91.65z M38.5,1.55
		c0.233,18.6,0.467,29.233,0.7,31.9c0.133,1.833,0.2,3.2,0.2,4.1c0,1.6-0.15,3.333-0.45,5.2L38.7,43.9
		c-0.434-1.433-0.934-2.55-1.5-3.35l-1-1.3c-2.333-2.5-4.583-3.9-6.75-4.2c1.466-0.2,2.517-0.816,3.15-1.85
		c0.933-1.567,1.4-5.35,1.4-11.35l-0.1-3.65c-0.033-1.434,0.5-4.733,1.6-9.9c1.067-4.9,1.6-7.367,1.6-7.4L38.5,1.55z M53.05,7.7
		l0.25,6.05l1-5.65c2.867,2.7,4.367,4.1,4.5,4.2l0.25,0.15c0.667,5.3,0.284,14.333-1.15,27.1c-1.233,10.767-3.133,23.434-5.7,38
		l-0.4-9.6l0.75-19c-0.333-6.867-0.566-13.567-0.7-20.1l-5.3,45.4c-0.533-2.833-0.8-4.583-0.8-5.25l3.6-22.1
		c0-2.2-0.083-3.633-0.25-4.3c-0.233-0.5-0.4-1.1-0.5-1.8c-0.4-2.733-0.434-12.05-0.1-27.95c0.033-0.967-0.25-2.6-0.85-4.9
		c-0.633-2.2-0.967-3.383-1-3.55c2.3,0.167,3.667,0.434,4.1,0.8v0.6C50.75,7,51.517,7.633,53.05,7.7z M148.1,24.05
		c0.034,6.567-0.25,15.2-0.85,25.9c-0.066,2.767-0.384,5.8-0.95,9.1c-0.467,2.8-0.883,4.633-1.25,5.5l-0.25-0.25
		c-0.866-4.833-1.399-8.133-1.6-9.9c-0.267-2.033-0.917-12.283-1.95-30.75V23.6L148.1,24.05z M155.45,172.05
		c-0.3-0.233-0.601-0.5-0.9-0.8l-0.3-0.4c1.2-0.533,3.267-0.8,6.2-0.8C159.083,171.316,157.417,171.983,155.45,172.05z
		 M146.85,173.05L146.5,154.4c0.233,2,0.434,4.899,0.6,8.699c0.167,3.101,0.25,5.084,0.25,5.95L147.3,173L146.85,173.05z
		 M92.2,115.2v1.35V115.2z M120.75,167.6l-0.65-0.199l0.65-5.801l0.3-5.949l0.8-3.95l-0.85,7.7l-0.25,2.199V167.6z"/>
	<path style="fill-rule:evenodd;clip-rule:evenodd;fill:#635B52;" d="M145.1,138.95c0.934,8,1.4,13.149,1.4,15.45l0.35,18.649
		l-0.899,0.15c-0.033-2.267-0.4-5.134-1.101-8.601l-1-4.5v-33.35L145.1,138.95z M96.35,113.2c0.267,5.7,0.617,10.816,1.051,15.35
		c0.466,4.8,0.699,7.25,0.699,7.351c-0.066,0.033-0.133,0.066-0.199,0.1l-0.051,0.05c-0.267,0.2-0.5,0.351-0.699,0.45
		c-0.334,0.2-0.717,0.483-1.15,0.85l-0.2,0.15c-1.033-3.267-1.7-5.616-2-7.05c-0.399-2.101-0.6-8.233-0.6-18.4
		c0-0.666,2.434-14.533,7.3-41.6c-1.6,11.566-2.616,19.25-3.05,23.05C96.583,101.333,96.217,107.9,96.35,113.2z M51.9,93.7
		L50.5,104.6l-0.95,6.851l-0.1,0.7l-0.25,1.699c-0.9,0.267-1.784,0.467-2.65,0.601c-0.433-8.267-0.617-15.867-0.55-22.8
		c0.267-6.9,0.45-12.7,0.55-17.4l5.3-45.4c0.133,6.533,0.367,13.233,0.7,20.1l-0.75,19l0.4,9.6c0.367,4.733,0.483,8.267,0.35,10.6
		C52.517,88.95,52.3,90.8,51.9,93.7z M54.3,8.1l-1,5.65L53.05,7.7C53.783,7.767,54.2,7.9,54.3,8.1z M103.8,36.4l0.101,5.3l0.05,7.6
		c0,6.434-0.117,10.333-0.351,11.7c-0.866-1.1-1.466-2.05-1.8-2.85c-0.934-2.933-1.866-7.35-2.8-13.25
		c-1-6.3-1.434-10.983-1.3-14.05c0.666,1.2,1.75,2.417,3.25,3.65C102.116,35.467,103.066,36.1,103.8,36.4z"/>
	
		<line style="fill-rule:evenodd;clip-rule:evenodd;fill:none;stroke:#898074;stroke-width:0.1;stroke-linecap:round;stroke-linejoin:round;stroke-miterlimit:3;" x1="92.2" y1="115.2" x2="92.2" y2="116.55"/>
</g>
</svg>
