<?xml version="1.0" encoding="iso-8859-1"?>
<!-- Generator: Adobe Illustrator 15.1.0, SVG Export Plug-In . SVG Version: 6.00 Build 0)  -->
<!DOCTYPE svg PUBLIC "-//W3C//DTD SVG 1.1//EN" "http://www.w3.org/Graphics/SVG/1.1/DTD/svg11.dtd">
<svg version="1.1" id="Layer_1" xmlns="http://www.w3.org/2000/svg" xmlns:xlink="http://www.w3.org/1999/xlink" x="0px" y="0px"
	 width="156.15px" height="93.75px" viewBox="0 0 156.15 93.75" style="enable-background:new 0 0 156.15 93.75;"
	 xml:space="preserve">
<g>
	<path style="fill-rule:evenodd;clip-rule:evenodd;fill:#CCD9E0;" d="M106.45,48.85c-0.033,0.167-0.134,0.917-0.3,2.25
		c-0.134,0.934-0.184,1.7-0.15,2.301c0,0.6,0.167,1.183,0.5,1.75c0.066,0.1,0.134,0.199,0.2,0.3c-0.233,0.399-0.316,0.899-0.25,1.5
		c0.1,0.666,0.3,1.133,0.6,1.399c0.134,0.134,0.3,0.25,0.5,0.351v0.05c0,0.134,0,0.283,0,0.45c-0.033,0.267-0.05,0.583-0.05,0.95
		l0.05,0.449v0.2h0.05c0.067,0.066,0.167,0.134,0.301,0.2c-0.101-0.066-0.184-0.134-0.25-0.2c0.333,0.033,0.916,0.101,1.75,0.2
		c0.066-0.033,0.116-0.033,0.149,0c0.134,0,0.283,0,0.45,0c0.134,0,0.283,0.017,0.45,0.05c0.1,0,0.2,0,0.3,0h0.05
		c1.267,0.066,2.316,0.2,3.15,0.4c0.166,0.533,0.017,1.399-0.45,2.6c-0.366,0.934-0.2,1.667,0.5,2.2c0.3,0.233,0.95,0.45,1.95,0.65
		c1.233,0.233,1.934,0.383,2.1,0.449c0.8,0.301,1.983,0.75,3.55,1.351C124.2,69.6,127.4,70.233,131.2,70.6
		c2.133,0.233,5.35,0.517,9.649,0.851c-0.033,0.066-0.05,0.166-0.05,0.3c-0.533,0.467-1.483,0.8-2.85,1
		c-1.8,0.1-2.983,0.184-3.55,0.25c-4.634,0.366-8.101,0.65-10.4,0.85c-1.1,0.134-2.366,0.2-3.8,0.2c-0.467,0.434-1.184,0.7-2.15,0.8
		c-1.267,0.167-3.1,0.25-5.5,0.25c-1.166,0-2.184,0.034-3.05,0.101c0.1-0.3,0.184-0.5,0.25-0.601l-1.6-1.85
		c0.1,0,0.199,0.017,0.3,0.05c1.2,0.167,2.2,0.2,3,0.101c0.434-0.101,0.816-0.233,1.149-0.4c0.301,0.1,0.601,0.217,0.9,0.35h0.3
		c1.8,0,3.267-0.183,4.4-0.55c2.467-0.833,4.383-1.2,5.75-1.1c-0.2-0.033-0.367-0.101-0.5-0.2c-0.267-0.233-0.467-0.366-0.601-0.4
		c-1.633-0.466-2.85-0.866-3.649-1.199c-0.334-0.134-0.834-0.4-1.5-0.801c-0.667-0.366-1.167-0.616-1.5-0.75
		c-0.467-0.166-1.517-0.267-3.15-0.3c-1.7,0-2.899-0.1-3.6-0.3c-0.233,0.167-0.434,0.366-0.601,0.6
		c-0.1,0.167-0.183,0.317-0.25,0.45c-0.199,0.033-0.366,0.066-0.5,0.101c-0.566,0.133-1.017,0.433-1.35,0.899
		c-0.233,0.3-0.434,0.667-0.6,1.101c-0.2,0.5-0.25,0.899-0.15,1.199c0.134,0.434,0.65,0.767,1.55,1
		c-1.066,0.067-2.166,0.301-3.3,0.7c-1.634,0.634-2.467,1.417-2.5,2.351c-0.033,0.699,0.4,1.183,1.3,1.449
		c-0.133,0.101-0.25,0.217-0.35,0.351c-0.667,0.833-1.351,2.3-2.05,4.399c-0.4,1.301-1.284,3.134-2.65,5.5
		c-0.434,0.801-0.85,1.867-1.25,3.2c-0.5,1.601-0.866,2.667-1.1,3.2L94.9,91.9L94.6,90.6c0-0.033,0-0.066,0-0.1L94.4,89.2
		c-0.034-0.066-0.051-0.134-0.051-0.2c-0.267-2.033-0.316-3.967-0.149-5.8c0.934,0.133,1.983-0.434,3.149-1.7
		c0.233-0.233,0.534-0.583,0.9-1.05c0.333-0.033,0.566-0.084,0.7-0.15c1-0.399,1.684-1.717,2.05-3.95
		c0.066-0.633,0.15-1.149,0.25-1.55c0.134-0.8,0.35-1.316,0.65-1.55c0.233-0.2,0.6-0.35,1.1-0.45l-0.45-0.25
		c-0.2-0.066-0.483-0.1-0.85-0.1c-0.467,0-0.75,0-0.851,0c-0.633-0.134-1.116-0.217-1.449-0.25c-0.567-0.101-1.051-0.117-1.45-0.05
		c-0.3,0.066-0.8,0.283-1.5,0.649c0.899,0,1.566,0.033,2,0.101c0.166,1.166-0.167,2.216-1,3.149c-0.267,0.033-0.566,0.066-0.9,0.101
		l0.2-0.551c0.233-0.733-0.384-1.283-1.85-1.649c-0.9-0.2-1.851-0.316-2.851-0.351c-0.267-0.166-0.666-0.3-1.2-0.399
		c-0.033-0.033-0.566-0.134-1.6-0.3c-1.267-0.2-3.816-0.301-7.65-0.301c-0.166,0-0.35,0-0.55,0c-0.833-0.033-1.55-0.05-2.149-0.05
		c0.133-0.033,0.283-0.149,0.449-0.35c0.167-0.167,0.317-0.267,0.45-0.3c0.367-0.101,1.25-0.233,2.65-0.4c0.1,0,0.3-0.017,0.6-0.05
		c0.834,0.1,1.767,0.149,2.8,0.149h5.601c3.267,0.167,5.649,0.017,7.149-0.449c2.434-0.834,3.65-2.601,3.65-5.301l-3.5-3.25
		c-0.767,0-2.116-0.1-4.05-0.3c-1.7-0.2-3.066-0.267-4.101-0.2c-2.333,0.101-4.85,0.851-7.55,2.25
		c-0.366,0.2-0.717,0.467-1.05,0.801c-0.833,0.366-1.45,0.85-1.85,1.449c-0.667,0.801-1.101,1.634-1.301,2.5
		c-0.1,0.467-0.116,1.617-0.05,3.45l-0.55-0.05c0.233,0.1,0.434,0.116,0.6,0.05v0.2c-2.2,0.233-4.649,0.7-7.35,1.4
		c-0.733,0.199-1.217,0.366-1.45,0.5c-0.4,0.199-0.716,0.533-0.95,1C69.033,75.75,69,75.9,69,76.1
		c-0.033,0.167-0.117,0.317-0.25,0.45c-0.1,0.066-0.283,0.134-0.55,0.2c-0.434,0.033-0.833,0.066-1.2,0.1
		c-1.8,0.2-2.833,0.934-3.1,2.2c-0.367,1.967-0.8,3.233-1.3,3.8c-0.067-0.899-0.117-1.533-0.15-1.899
		c-0.1-0.601-0.417-1.15-0.95-1.65h-0.05v-0.05c0.033-0.267,0.15-0.55,0.35-0.85c0.4-0.5,0.617-0.784,0.65-0.851
		c0.233-0.434,0.333-1.066,0.3-1.899c-0.067-0.867-0.017-1.467,0.15-1.801c0.167-0.333,0.5-0.6,1-0.8
		c0.3-0.399,0.883-0.833,1.75-1.3c0.9-0.467,1.5-0.9,1.8-1.3c0.6-0.8,0.85-1.783,0.75-2.95c-0.2-1.6-1.067-2.634-2.6-3.1
		c-0.5-0.134-1.15-0.25-1.95-0.351c-1.133-0.1-1.783-0.166-1.95-0.2c-0.3-0.066-0.784-0.1-1.45-0.1H60.2
		c0.033-0.033,0.083-0.066,0.15-0.1c0.033-0.067,0.083-0.134,0.15-0.2c0.167-0.2,0.3-0.434,0.4-0.7l0.05-0.05
		c0.133-0.4,0.2-0.917,0.2-1.55h0.4c0.333,0.066,0.833,0.316,1.5,0.75c0.567,0.366,1.117,0.566,1.65,0.6
		c1.333,0.134,2.35,0.017,3.05-0.35c0.8-0.4,1.267-1.167,1.4-2.301c-0.233-0.233-0.467-0.6-0.7-1.1
		c-0.333-0.667-0.55-1.083-0.65-1.25c-0.533-0.767-1.533-1.316-3-1.65l-0.15-0.3c0.867-0.6,1.467-1.184,1.8-1.75
		c0.433-0.666,0.783-1.333,1.05-2c0.167-0.533,0.3-1.083,0.4-1.649c0.4,1.3,0.934,2.199,1.6,2.699c0.2,0.134,0.567,0.284,1.1,0.45
		c0.467,0.134,0.8,0.283,1,0.45c0.167,0.134,0.3,0.366,0.4,0.7c0.1,0.366,0.183,0.6,0.25,0.7c0.6,0.866,1.433,1.399,2.5,1.6
		c0.333,0.066,1.35,0.1,3.05,0.1h12.25c1.066,0,1.834-0.116,2.3-0.35c0.267-0.134,0.884-0.6,1.851-1.4
		c0.333-0.267,1.017-0.566,2.05-0.899c0.866-0.3,1.417-0.65,1.65-1.05c0.1-0.233,0.116-0.667,0.05-1.301
		c-0.101-0.733-0.134-1.183-0.101-1.35c0.101-1,0.384-1.65,0.851-1.95c0.333-0.233,1-0.35,2-0.35c0.633-1.333,1.1-2.35,1.399-3.05
		c0.567-1.233,0.917-2.316,1.051-3.25c0.066-0.533,0.083-1.3,0.05-2.3c0-1.1,0.017-1.883,0.05-2.35c0.634-2.967,0.95-5.25,0.95-6.85
		L104.1,20.35c-0.133-0.733-0.449-1.117-0.949-1.15c-0.5-0.034-1.217,0.316-2.15,1.05c-0.9,0.733-1.7,1.05-2.4,0.95l-0.1-0.4
		c0.533-0.767,1.167-1.65,1.9-2.65l0.1-0.15c0.033-0.067,0.066-0.117,0.1-0.15c0.067-0.1,0.134-0.2,0.2-0.3l0.15-0.15
		c0.033-0.1,0.083-0.2,0.149-0.3c0.934-1.467,1.551-2.917,1.851-4.35c0.2-0.933,0.283-3.1,0.25-6.5
		c-0.033-2.833,0.283-4.917,0.95-6.25c0.366,0.567,0.583,1.617,0.649,3.15c0.066,2.067,0.117,3.184,0.15,3.35
		c0.633,3.7,1.666,9.233,3.1,16.6c0.467,2.533,0.483,5.566,0.05,9.1c-0.267,2-0.716,5.017-1.35,9.05c-0.167,1.4-0.25,3.467-0.25,6.2
		c0.033,0.366,0.017,0.816-0.05,1.35V48.85z M102.95,67.9c0.333,0.333,1.434,0.383,3.3,0.149c0.1-0.333,0.1-0.633,0-0.899
		c-0.134-0.334-0.384-0.517-0.75-0.551l-2.25,0.5C103.083,67.366,102.983,67.634,102.95,67.9z M42.1,75.2
		c-0.167,0.066-0.35,0.133-0.55,0.2c-0.9,0.366-1.65,0.6-2.25,0.699c-1.1,0.2-1.767,0.351-2,0.45c-0.7,0.3-1.033,0.733-1,1.3
		c-1.066,0-2.483,0.084-4.25,0.25c-1.966,0.167-3.466,0.25-4.5,0.25c-1.267,0-2.716,0.184-4.35,0.551
		c-2.467,0.566-3.867,0.883-4.2,0.949l-4.5,0.65l1.95-2.65l0.05-0.05l1.5-0.45c0.467-0.1,1.167-0.216,2.1-0.35l0.55-0.05
		c0.033-0.033,0.083-0.05,0.15-0.05c0.1-0.034,0.2-0.051,0.3-0.051c0.433-0.1,0.816-0.199,1.15-0.3c0.133-0.066,0.267-0.133,0.4-0.2
		l0.3-0.149c0.133-0.134,0.267-0.25,0.4-0.351h0.05l2.85-0.25C30.517,75.267,35.8,75.134,42.1,75.2z M56.7,77.7
		c-0.067-0.033-0.133-0.066-0.2-0.101c-0.733-0.399-1.383-0.666-1.95-0.8L54,76.75c-0.033-0.3-0.067-0.55-0.1-0.75
		c0.3,0.1,0.667,0.217,1.1,0.35c0.5,0.167,0.933,0.434,1.3,0.801L56.7,77.7z"/>
	
		<linearGradient id="SVGID_1_" gradientUnits="userSpaceOnUse" x1="-1.1348" y1="-64.0488" x2="95.0902" y2="-64.0488" gradientTransform="matrix(1.039231e-005 1 -1 -0.001 3.388307e-004 1.914438e-005)">
		<stop  offset="0" style="stop-color:#FFFFFF"/>
		<stop  offset="1" style="stop-color:#D2DDE3"/>
	</linearGradient>
	<path style="fill-rule:evenodd;clip-rule:evenodd;fill:url(#SVGID_1_);" d="M67.9,50.15V50.1c0.067-0.399,0.1-0.816,0.1-1.25
		c0.067-1.966,0.517-3.7,1.35-5.2c0.2-0.367,0.433-0.717,0.7-1.05c-0.167,0.667,0.083,1.35,0.75,2.05
		c0.934,0.967,3.017,1.45,6.25,1.45c2,0.033,3.117,0.05,3.351,0.05c1.233-0.066,2.267-0.35,3.1-0.85c0.866-0.533,2.167-1.3,3.9-2.3
		c1.366-0.933,2.3-2.067,2.8-3.4c0.434-1.067,0.533-2.067,0.3-3c-0.2-0.667-0.75-1.133-1.65-1.4c0.934-0.667,1.733-1.534,2.4-2.6
		c0.767-1.233,1.3-2.583,1.6-4.05c0.101,1,0.801,1.717,2.101,2.15c0.866,0.267,1.733,0.367,2.6,0.3
		c1.101-0.033,1.851-0.35,2.25-0.95c0.3-0.466,0.5-1.267,0.601-2.4c0.1-1.1,0.05-1.95-0.15-2.55c-0.333-1.167-1.417-1.817-3.25-1.95
		c0.134-0.233,0.283-0.483,0.45-0.75c0.3-0.467,0.649-1,1.05-1.6l0.1,0.4c0.7,0.1,1.5-0.217,2.4-0.95
		c0.934-0.733,1.65-1.083,2.15-1.05c0.5,0.033,0.816,0.417,0.949,1.15L104.2,30.4c0,1.6-0.316,3.883-0.95,6.85
		c-0.033,0.467-0.05,1.25-0.05,2.35c0.033,1,0.017,1.767-0.05,2.3c-0.134,0.934-0.483,2.017-1.051,3.25
		c-0.3,0.7-0.767,1.717-1.399,3.05c-1,0-1.667,0.116-2,0.35c-0.467,0.3-0.75,0.95-0.851,1.95c-0.033,0.167,0,0.616,0.101,1.35
		c0.066,0.634,0.05,1.067-0.05,1.301c-0.233,0.399-0.784,0.75-1.65,1.05c-1.033,0.333-1.717,0.633-2.05,0.899
		c-0.967,0.801-1.584,1.267-1.851,1.4c-0.466,0.233-1.233,0.35-2.3,0.35H77.8c-1.7,0-2.716-0.033-3.05-0.1
		c-1.067-0.2-1.9-0.733-2.5-1.6c-0.067-0.101-0.15-0.334-0.25-0.7c-0.1-0.334-0.233-0.566-0.4-0.7c-0.2-0.167-0.533-0.316-1-0.45
		c-0.533-0.166-0.9-0.316-1.1-0.45C68.833,52.35,68.3,51.45,67.9,50.15z M60.95,62.7c0.133-0.434,0.183-1.233,0.15-2.4
		c0-0.666,0.066-1.217,0.2-1.649l0.3,0.25c0.7,0.366,1.917,0.416,3.65,0.149c0.2-1.2,0.05-2.267-0.45-3.2
		c1.467,0.334,2.467,0.884,3,1.65c0.1,0.167,0.317,0.583,0.65,1.25c0.233,0.5,0.466,0.866,0.7,1.1c-0.133,1.134-0.6,1.9-1.4,2.301
		c-0.7,0.366-1.717,0.483-3.05,0.35c-0.534-0.033-1.083-0.233-1.65-0.6c-0.667-0.434-1.167-0.684-1.5-0.75h-0.4
		C61.15,61.783,61.083,62.3,60.95,62.7z M55.35,65.65c-0.6,0.3-1.317,0.683-2.15,1.149c-1.034,0.566-1.9,1-2.6,1.3
		c0.7-0.333,1.683-0.85,2.95-1.55C54.183,66.184,54.783,65.884,55.35,65.65z M56.55,65.05c0.233-0.1,0.467-0.2,0.7-0.3
		c0.533-0.167,1.25-0.366,2.15-0.6c0.3-0.101,0.583-0.233,0.85-0.4c0.667,0,1.15,0.033,1.45,0.1c0.167,0.034,0.816,0.101,1.95,0.2
		c0.8,0.101,1.45,0.217,1.95,0.351c1.533,0.466,2.4,1.5,2.6,3.1c0.1,1.167-0.15,2.15-0.75,2.95c-0.3,0.399-0.9,0.833-1.8,1.3
		c-0.867,0.467-1.45,0.9-1.75,1.3c-0.5,0.2-0.833,0.467-1,0.8c-0.167,0.334-0.217,0.934-0.15,1.801
		c0.033,0.833-0.067,1.466-0.3,1.899C62.417,77.616,62.2,77.9,61.8,78.4c-0.2,0.3-0.316,0.583-0.35,0.85
		c-0.434-0.4-0.9-0.634-1.4-0.7c-0.633-0.033-1.183-0.1-1.65-0.2c-0.5-0.1-1.066-0.316-1.7-0.649l-0.4-0.55
		c-0.367-0.367-0.8-0.634-1.3-0.801c-0.433-0.133-0.8-0.25-1.1-0.35c-0.066-0.267-0.15-0.483-0.25-0.65
		c-0.3-0.566-0.85-0.899-1.65-1c-0.533-0.066-1.217-0.083-2.05-0.05c-0.934,0.033-1.617,0.05-2.05,0.05
		c-0.933-0.033-1.633-0.033-2.1,0c-0.8,0-1.483,0.084-2.05,0.25C43.383,74.7,42.833,74.9,42.1,75.2
		c-6.3-0.066-11.583,0.066-15.85,0.399l-2.85,0.25c0.133-0.133,0.25-0.267,0.35-0.399c-0.8-0.066-1.367-0.434-1.7-1.101
		C21.717,73.65,21.867,73,22.5,72.4c0.167-0.134,0.567-0.184,1.2-0.15c0.767,0.033,1.2,0.033,1.3,0
		c0.433-0.066,1.083-0.283,1.95-0.65c0.833-0.366,1.483-0.583,1.95-0.649c1.1-0.167,2.617-0.283,4.55-0.351
		c-0.6,0.667,0.117,1.2,2.15,1.601c1.1,0.233,2.4,0.383,3.9,0.45c3.8,0.3,6.7,0.416,8.7,0.35c4.833-0.167,7.117-1.134,6.85-2.9
		c0.434,0.134,0.85,0.567,1.25,1.301c0.367,0.366,0.75,0.583,1.15,0.649c0.133,0.033,0.583,0.05,1.35,0.05
		c1.934,0,2.983-0.017,3.15-0.05c1.1-0.166,1.816-0.75,2.15-1.75c0.5-1.6,0.566-2.767,0.2-3.5c-0.3-0.666-0.85-1.116-1.65-1.35
		c-0.433-0.134-1.183-0.233-2.25-0.3C59.567,65.083,58.283,65.05,56.55,65.05z M81.05,72.6c-0.7,0.034-1.434,0.084-2.2,0.15v-0.2
		c-0.166,0.066-0.366,0.05-0.6-0.05l0.55,0.05c-0.066-1.833-0.05-2.983,0.05-3.45c0.2-0.866,0.634-1.699,1.301-2.5l-0.4,0.65
		c-0.066,0.167-0.2,0.434-0.4,0.8c-0.133,0.3-0.083,0.55,0.15,0.75c0.033,0.033,0.066,0.05,0.1,0.05c-0.1,0.634,0.034,1.2,0.4,1.7
		c0.1,0.101,0.6,0.283,1.5,0.55c0.467,0.134,0.983,0.25,1.55,0.351c-0.3,0.033-0.5,0.05-0.6,0.05c-1.4,0.167-2.283,0.3-2.65,0.4
		c-0.133,0.033-0.283,0.133-0.45,0.3c-0.166,0.2-0.316,0.316-0.449,0.35C79.5,72.55,80.217,72.566,81.05,72.6z M95.05,80.05
		c0.033,0.101,0.101,0.184,0.2,0.25c0.134,0.134,0.733,0.2,1.8,0.2c0.467,0,0.867-0.017,1.2-0.05c-0.366,0.467-0.667,0.816-0.9,1.05
		c-1.166,1.267-2.216,1.833-3.149,1.7c-0.167,1.833-0.117,3.767,0.149,5.8c-0.066-0.4-0.116-0.8-0.149-1.2
		c-0.233-2.733-0.134-4.883,0.3-6.45C94.6,80.917,94.783,80.483,95.05,80.05z M97.9,76c-0.4,0.066-0.851,0.134-1.351,0.2v-0.05
		c0.334-0.034,0.634-0.067,0.9-0.101c0.833-0.934,1.166-1.983,1-3.149c-0.434-0.067-1.101-0.101-2-0.101
		c0.7-0.366,1.2-0.583,1.5-0.649c0.399-0.067,0.883-0.051,1.45,0.05c0.333,0.033,0.816,0.116,1.449,0.25c0.101,0,0.384,0,0.851,0
		c0.366,0,0.649,0.033,0.85,0.1L103,72.8c-0.5,0.101-0.866,0.25-1.1,0.45c-0.301,0.233-0.517,0.75-0.65,1.55
		c-0.1,0.4-0.184,0.917-0.25,1.55l-1.5-0.75h-0.05c0.033-0.033,0.066-0.066,0.1-0.1c-0.066,0.033-0.133,0.066-0.2,0.1
		C98.917,75.767,98.434,75.9,97.9,76z M112.6,72.5c0.2-0.134,0.367-0.267,0.5-0.4c0.434-0.5,0.567-1.083,0.4-1.75l-0.35-0.199
		c0.399,0,0.767-0.034,1.1-0.101l0.25-1.1c0.066-0.467-0.017-0.834-0.25-1.101H113c-1.134,0-1.75,0.017-1.85,0.051
		c-0.5,0.066-0.801,0.233-0.9,0.5l-0.5-0.301c-0.467,0.067-0.85,0.134-1.15,0.2c0.067-0.133,0.15-0.283,0.25-0.45
		c0.167-0.233,0.367-0.433,0.601-0.6c0.7,0.2,1.899,0.3,3.6,0.3c1.634,0.033,2.684,0.134,3.15,0.3c0.333,0.134,0.833,0.384,1.5,0.75
		c0.666,0.4,1.166,0.667,1.5,0.801c0.8,0.333,2.017,0.733,3.649,1.199c0.134,0.034,0.334,0.167,0.601,0.4
		c0.133,0.1,0.3,0.167,0.5,0.2c-1.367-0.101-3.283,0.267-5.75,1.1c-1.134,0.367-2.601,0.55-4.4,0.55h-0.3
		C113.2,72.717,112.9,72.6,112.6,72.5z M107.65,60.8c0.066,0.066,0.149,0.134,0.25,0.2c-0.134-0.066-0.233-0.134-0.301-0.2H107.65z
		 M107.55,59.2c-0.033,0.566-0.033,1.033,0,1.399l-0.05-0.449C107.5,59.783,107.517,59.467,107.55,59.2z M106.45,48.85
		c-0.033,0.467-0.101,1-0.2,1.601c-0.167,1.333-0.25,2.316-0.25,2.95c-0.033-0.601,0.017-1.367,0.15-2.301
		C106.316,49.767,106.417,49.017,106.45,48.85z M93.1,26.7c0-0.1,0-0.184,0-0.25c1.034-0.167,1.917-0.667,2.65-1.5
		c0.267-0.3,0.684-0.9,1.25-1.8c-0.566,0.967-1.066,1.667-1.5,2.1c-0.667,0.633-1.434,1.033-2.3,1.2L93.1,26.7z M90.8,47.35
		c0.867,0.334,1.684,0.284,2.45-0.149c0.8-0.467,1.134-1.167,1-2.1H93c-1,0.267-1.783,0.566-2.35,0.9
		C89.717,46.5,89.767,46.95,90.8,47.35z M14.85,78.35c0.5-0.133,1.033-0.3,1.6-0.5L14.5,80.5l4.5-0.65c-2.5,0.434-4.9,0.767-7.2,1
		c0.233-0.233,0.383-0.483,0.45-0.75l0.25-0.5c1,0.134,1.667,0.051,2-0.25C14.733,79.15,14.85,78.816,14.85,78.35z M4.5,81.35
		c-0.129,0-0.246,0-0.35,0c0.073-0.001,0.173-0.018,0.3-0.05L4.5,81.35z"/>
	<path style="fill-rule:evenodd;clip-rule:evenodd;fill:#F9FDFF;" d="M93.1,26.7l0.101-0.25c0.866-0.167,1.633-0.567,2.3-1.2
		c0.434-0.433,0.934-1.133,1.5-2.1c1.833,0.133,2.917,0.783,3.25,1.95c0.2,0.6,0.25,1.45,0.15,2.55
		c-0.101,1.133-0.301,1.934-0.601,2.4c-0.399,0.6-1.149,0.917-2.25,0.95c-0.866,0.067-1.733-0.033-2.6-0.3
		c-1.3-0.434-2-1.15-2.101-2.15V28.5l0.2-1.75L93.1,26.7z M70.05,42.6c0.867-1.133,1.983-2.017,3.35-2.65
		c0.767-0.367,1.95-0.7,3.55-1c1.633-0.333,2.833-0.667,3.6-1c0.834-0.367,1.767-0.684,2.8-0.95c0.601-0.133,1.534-0.35,2.801-0.65
		c0.399-0.1,0.8-0.217,1.199-0.35c0.5-0.233,0.983-0.517,1.45-0.85l0.05,0.05c0.9,0.267,1.45,0.733,1.65,1.4
		c0.233,0.933,0.134,1.933-0.3,3c-0.5,1.333-1.434,2.467-2.8,3.4c-1.733,1-3.034,1.767-3.9,2.3c-0.833,0.5-1.866,0.784-3.1,0.85
		c-0.233,0-1.351-0.017-3.351-0.05c-3.233,0-5.316-0.483-6.25-1.45C70.133,43.95,69.883,43.267,70.05,42.6z M90.8,47.35
		C89.767,46.95,89.717,46.5,90.65,46c0.566-0.333,1.35-0.633,2.35-0.9h1.25c0.134,0.933-0.2,1.633-1,2.1
		C92.483,47.634,91.667,47.684,90.8,47.35z"/>
	
		<linearGradient id="SVGID_2_" gradientUnits="userSpaceOnUse" x1="54.4663" y1="-108.7822" x2="59.2163" y2="-108.7822" gradientTransform="matrix(2.105263e-004 1 -1 -0.001 2.140068e-004 1.724798e-005)">
		<stop  offset="0" style="stop-color:#FFFFFF"/>
		<stop  offset="1" style="stop-color:#D2DDE3"/>
	</linearGradient>
	<path style="fill-rule:evenodd;clip-rule:evenodd;fill:url(#SVGID_2_);" d="M106.7,55.45V55.4c0.2-0.367,0.533-0.567,1-0.601
		c0.267,0,0.7,0.017,1.3,0.05l1.5-0.25c0.5,0.367,0.717,1.15,0.65,2.351c-0.034,1.2-0.317,1.916-0.851,2.149c-0.434,0.2-1,0.2-1.7,0
		c-0.399-0.133-0.75-0.267-1.05-0.399c-0.2-0.101-0.366-0.217-0.5-0.351c-0.3-0.267-0.5-0.733-0.6-1.399
		C106.384,56.35,106.467,55.85,106.7,55.45z"/>
	
		<linearGradient id="SVGID_3_" gradientUnits="userSpaceOnUse" x1="66.4702" y1="-104.5967" x2="68.1202" y2="-104.5967" gradientTransform="matrix(6.060606e-004 1 -1 -0.001 -3.598145e-004 2.645445e-005)">
		<stop  offset="0" style="stop-color:#FFFFFF"/>
		<stop  offset="1" style="stop-color:#D2DDE3"/>
	</linearGradient>
	<path style="fill-rule:evenodd;clip-rule:evenodd;fill:url(#SVGID_3_);" d="M102.95,67.9c0.033-0.267,0.133-0.534,0.3-0.801
		l2.25-0.5c0.366,0.034,0.616,0.217,0.75,0.551c0.1,0.267,0.1,0.566,0,0.899C104.384,68.283,103.283,68.233,102.95,67.9z"/>
	
		<linearGradient id="SVGID_4_" gradientUnits="userSpaceOnUse" x1="67.9653" y1="-109.7456" x2="72.9153" y2="-109.7456" gradientTransform="matrix(2.020202e-004 1 -1 -0.001 -4.451441e-004 1.724798e-005)">
		<stop  offset="0" style="stop-color:#FFFFFF"/>
		<stop  offset="1" style="stop-color:#D2DDE3"/>
	</linearGradient>
	<path style="fill-rule:evenodd;clip-rule:evenodd;fill:url(#SVGID_4_);" d="M113.15,70.15l0.35,0.199
		c0.167,0.667,0.033,1.25-0.4,1.75c-0.133,0.134-0.3,0.267-0.5,0.4c-0.333,0.167-0.716,0.3-1.149,0.4c-0.8,0.1-1.8,0.066-3-0.101
		c-0.101-0.033-0.2-0.05-0.3-0.05L108,72.6c-0.167,0-0.316,0-0.45,0c-0.899-0.233-1.416-0.566-1.55-1
		c-0.1-0.3-0.05-0.699,0.15-1.199c0.166-0.434,0.366-0.801,0.6-1.101c0.333-0.467,0.783-0.767,1.35-0.899
		c0.134-0.034,0.301-0.067,0.5-0.101c0.301-0.066,0.684-0.133,1.15-0.2l0.5,0.301L113.15,70.15z"/>
	
		<linearGradient id="SVGID_5_" gradientUnits="userSpaceOnUse" x1="72.4692" y1="-105.7339" x2="77.4192" y2="-105.7339" gradientTransform="matrix(2.020202e-004 1 -1 -0.001 -4.451441e-004 1.724798e-005)">
		<stop  offset="0" style="stop-color:#FFFFFF"/>
		<stop  offset="1" style="stop-color:#D2DDE3"/>
	</linearGradient>
	<path style="fill-rule:evenodd;clip-rule:evenodd;fill:url(#SVGID_5_);" d="M109.5,75.2c-0.066,0.2-0.134,0.45-0.2,0.75
		c-0.133,0.666-0.316,1.066-0.55,1.2c-0.267,0.199-0.75,0.3-1.45,0.3c-0.733-0.033-1.217-0.066-1.45-0.101
		c-1.366-0.066-2.216-0.133-2.55-0.199c-0.1-0.034-0.184-0.051-0.25-0.051c-0.899-0.267-1.333-0.75-1.3-1.449
		c0.033-0.934,0.866-1.717,2.5-2.351c1.134-0.399,2.233-0.633,3.3-0.7c0.134,0,0.283,0,0.45,0l0.15,0.15l1.6,1.85
		C109.684,74.7,109.6,74.9,109.5,75.2z"/>
	<path style="fill-rule:evenodd;clip-rule:evenodd;fill:#EEF2F4;" d="M64.8,55.85c0.5,0.934,0.65,2,0.45,3.2
		c-1.733,0.267-2.95,0.217-3.65-0.149l-0.3-0.25c0-0.034,0.017-0.051,0.05-0.051c0-0.1,0.017-0.166,0.05-0.199
		c0.033-0.101,0.067-0.184,0.1-0.25c0.033-0.067,0.067-0.117,0.1-0.15v-0.05c0.066-0.066,0.133-0.134,0.2-0.2l0.25-0.3
		c0.267-0.267,0.583-0.533,0.95-0.8s0.917-0.634,1.65-1.101L64.8,55.85z M82,65.15c-0.6,0.466-1.15,1.083-1.65,1.85
		c-0.433,0.667-0.683,1.283-0.75,1.85c-0.033,0-0.066-0.017-0.1-0.05c-0.233-0.2-0.283-0.45-0.15-0.75
		c0.2-0.366,0.334-0.633,0.4-0.8l0.4-0.65C80.55,66,81.167,65.517,82,65.15z M113.15,70.15l-2.9-1.75c0.1-0.267,0.4-0.434,0.9-0.5
		c0.1-0.034,0.716-0.051,1.85-0.051h1.25c0.233,0.267,0.316,0.634,0.25,1.101l-0.25,1.1C113.917,70.116,113.55,70.15,113.15,70.15z
		 M38.95,70.4c0.233,0.1,0.7,0.166,1.4,0.199c1.133,0.101,1.917,0.051,2.35-0.149c0.5-0.2,0.833-0.617,1-1.25
		c0.733-0.2,1.333-0.316,1.8-0.351c0.567-0.033,1.35-0.066,2.35-0.1c0.833-0.033,1.55-0.167,2.15-0.4l0.6-0.25
		c0.7-0.3,1.566-0.733,2.6-1.3c0.833-0.467,1.55-0.85,2.15-1.149l0.5-0.25c0.033-0.067,0.1-0.101,0.2-0.101l0.1-0.05
		c0.133-0.066,0.267-0.134,0.4-0.2c1.733,0,3.017,0.033,3.85,0.101c1.067,0.066,1.817,0.166,2.25,0.3
		c0.8,0.233,1.35,0.684,1.65,1.35c0.367,0.733,0.3,1.9-0.2,3.5c-0.333,1-1.05,1.584-2.15,1.75c-0.167,0.033-1.217,0.05-3.15,0.05
		c-0.767,0-1.216-0.017-1.35-0.05c-0.4-0.066-0.784-0.283-1.15-0.649c-0.4-0.733-0.816-1.167-1.25-1.301
		c0.267,1.767-2.017,2.733-6.85,2.9c-2,0.066-4.9-0.05-8.7-0.35c-1.5-0.067-2.8-0.217-3.9-0.45c-2.033-0.4-2.75-0.934-2.15-1.601
		c0.2,0,0.383,0,0.55,0c0.033,0,0.083,0,0.15,0C36.35,70.566,37.95,70.5,38.95,70.4z"/>
	
		<linearGradient id="SVGID_6_" gradientUnits="userSpaceOnUse" x1="61.8716" y1="-90.9014" x2="71.7466" y2="-90.9014" gradientTransform="matrix(1.012658e-004 1 -1 -0.001 3.875028e-004 1.819618e-005)">
		<stop  offset="0" style="stop-color:#FFFFFF"/>
		<stop  offset="1" style="stop-color:#D2DDE3"/>
	</linearGradient>
	<path style="fill-rule:evenodd;clip-rule:evenodd;fill:url(#SVGID_6_);" d="M79.6,68.85c0.067-0.566,0.317-1.183,0.75-1.85
		c0.5-0.767,1.051-1.384,1.65-1.85c0.333-0.334,0.684-0.601,1.05-0.801c2.7-1.399,5.217-2.149,7.55-2.25
		c1.034-0.066,2.4,0,4.101,0.2c1.934,0.2,3.283,0.3,4.05,0.3l3.5,3.25c0,2.7-1.217,4.467-3.65,5.301
		c-1.5,0.466-3.883,0.616-7.149,0.449H85.85c-1.033,0-1.966-0.05-2.8-0.149c-0.566-0.101-1.083-0.217-1.55-0.351
		c-0.9-0.267-1.4-0.449-1.5-0.55C79.634,70.05,79.5,69.483,79.6,68.85z"/>
	
		<linearGradient id="SVGID_7_" gradientUnits="userSpaceOnUse" x1="72.4077" y1="-79.834" x2="83.6327" y2="-79.834" gradientTransform="matrix(8.908685e-005 1 -1 -0.001 -2.965982e-004 2.474175e-005)">
		<stop  offset="0" style="stop-color:#FFFFFF"/>
		<stop  offset="1" style="stop-color:#D2DDE3"/>
	</linearGradient>
	<path style="fill-rule:evenodd;clip-rule:evenodd;fill:url(#SVGID_7_);" d="M78.85,72.75c0.767-0.066,1.5-0.116,2.2-0.15
		c0.2,0,0.384,0,0.55,0c3.834,0,6.384,0.101,7.65,0.301c1.033,0.166,1.566,0.267,1.6,0.3c0.534,0.1,0.934,0.233,1.2,0.399
		c-0.1,0-0.2,0-0.3,0c-1,0.034-1.9,0.417-2.7,1.15c-0.7,0.7-1.2,1.583-1.5,2.65c-0.033,0.199-0.066,0.383-0.1,0.55
		c-0.467,0.1-1.3,0.149-2.5,0.149c-1.601-0.066-2.816-0.066-3.65,0c-1.467,0.101-2.583,0.5-3.35,1.2c-0.233,0.2-0.633,1.2-1.2,3
		c-0.367,1.134-1.133,1.467-2.3,1c-0.333-0.133-0.617-0.383-0.85-0.75c-0.3-0.533-0.5-0.85-0.6-0.95c-0.267-0.3-0.6-0.433-1-0.399
		c-0.5,0.033-0.867-0.017-1.1-0.15c-0.3-0.133-0.667-0.467-1.1-1c-0.566-0.666-0.917-1.066-1.05-1.2
		c-0.4-0.3-0.683-0.533-0.85-0.699c-0.3-0.334-0.35-0.684-0.15-1.051c0.1-0.199,0.25-0.316,0.45-0.35
		c0.267-0.066,0.45-0.134,0.55-0.2c0.133-0.133,0.217-0.283,0.25-0.45c0-0.199,0.033-0.35,0.1-0.449c0.233-0.467,0.55-0.801,0.95-1
		c0.233-0.134,0.717-0.301,1.45-0.5C74.2,73.45,76.65,72.983,78.85,72.75z"/>
	
		<linearGradient id="SVGID_8_" gradientUnits="userSpaceOnUse" x1="73.458" y1="-92.1074" x2="79.458" y2="-92.1074" gradientTransform="matrix(1.666667e-004 1 -1 -0.001 -1.944199e-004 1.724798e-005)">
		<stop  offset="0" style="stop-color:#FFFFFF"/>
		<stop  offset="1" style="stop-color:#D2DDE3"/>
	</linearGradient>
	<path style="fill-rule:evenodd;clip-rule:evenodd;fill:url(#SVGID_8_);" d="M96.55,76.2l-0.3,0.899c-1.066,0.7-1.866,1.2-2.4,1.5
		c-0.933,0.467-1.833,0.717-2.699,0.75c-0.601,0.034-1.067,0.067-1.4,0.101c-0.634,0-1.116-0.033-1.45-0.101
		c-0.633-0.166-0.916-0.633-0.85-1.399c0.033-0.167,0.066-0.351,0.1-0.55c0.3-1.067,0.8-1.95,1.5-2.65c0.8-0.733,1.7-1.116,2.7-1.15
		c0.1,0,0.2,0,0.3,0c1,0.034,1.95,0.15,2.851,0.351c1.466,0.366,2.083,0.916,1.85,1.649l-0.2,0.551V76.2z"/>
	
		<linearGradient id="SVGID_9_" gradientUnits="userSpaceOnUse" x1="75.4395" y1="-97.9121" x2="80.4645" y2="-97.9121" gradientTransform="matrix(1.990050e-004 1 -1 -0.001 4.799079e-004 1.724798e-005)">
		<stop  offset="0" style="stop-color:#FFFFFF"/>
		<stop  offset="1" style="stop-color:#D2DDE3"/>
	</linearGradient>
	<path style="fill-rule:evenodd;clip-rule:evenodd;fill:url(#SVGID_9_);" d="M99.45,75.6h0.05l1.5,0.75
		c-0.366,2.233-1.05,3.551-2.05,3.95c-0.134,0.066-0.367,0.117-0.7,0.15s-0.733,0.05-1.2,0.05c-1.066,0-1.666-0.066-1.8-0.2
		c-0.1-0.066-0.167-0.149-0.2-0.25c-0.467-0.666-0.083-1.583,1.15-2.75c0.633-0.566,1.2-1,1.7-1.3c0.533-0.1,1.017-0.233,1.449-0.4
		C99.384,75.6,99.417,75.6,99.45,75.6z"/>
	
		<linearGradient id="SVGID_10_" gradientUnits="userSpaceOnUse" x1="70.9707" y1="-141.5952" x2="72.0457" y2="-141.5952" gradientTransform="matrix(9.302322e-004 1 -1 -0.001 1.139002e-004 4.031009e-005)">
		<stop  offset="0" style="stop-color:#FFFFFF"/>
		<stop  offset="1" style="stop-color:#D2DDE3"/>
	</linearGradient>
	<path style="fill-rule:evenodd;clip-rule:evenodd;fill:url(#SVGID_10_);" d="M140.85,71.45c0.067-0.167,0.2-0.283,0.4-0.351h1.25
		c0.134,0.567,0,0.9-0.4,1c-0.166,0.034-0.6,0.017-1.3-0.05c-0.033-0.133-0.033-0.233,0-0.3
		C140.8,71.616,140.816,71.517,140.85,71.45z"/>
	
		<linearGradient id="SVGID_11_" gradientUnits="userSpaceOnUse" x1="70.4268" y1="-148.0366" x2="73.0768" y2="-148.0366" gradientTransform="matrix(3.773585e-004 1 -1 -0.001 3.855285e-004 2.464990e-005)">
		<stop  offset="0" style="stop-color:#FFFFFF"/>
		<stop  offset="1" style="stop-color:#D2DDE3"/>
	</linearGradient>
	<path style="fill-rule:evenodd;clip-rule:evenodd;fill:url(#SVGID_11_);" d="M145.75,72.4c-0.434-0.634-0.2-1.034,0.7-1.2
		c0.3-0.066,0.983-0.101,2.05-0.101l-1-0.5c0.634,0,1.233,0.101,1.8,0.301c0.7,0.233,1.117,0.55,1.25,0.949
		c0.066,0.2,0.05,0.601-0.05,1.2c-0.866,0.134-1.717,0.167-2.55,0.101C146.783,73.083,146.05,72.833,145.75,72.4z"/>
	
		<linearGradient id="SVGID_12_" gradientUnits="userSpaceOnUse" x1="70.4331" y1="-154.2671" x2="71.8581" y2="-154.2671" gradientTransform="matrix(7.017542e-004 1 -1 -0.001 -2.628344e-004 3.480457e-005)">
		<stop  offset="0" style="stop-color:#FFFFFF"/>
		<stop  offset="1" style="stop-color:#D2DDE3"/>
	</linearGradient>
	<path style="fill-rule:evenodd;clip-rule:evenodd;fill:url(#SVGID_12_);" d="M152.5,71.1l3-0.5c1,0.601,0.816,1.034-0.55,1.301
		C153.583,72.167,152.767,71.9,152.5,71.1z"/>
	
		<linearGradient id="SVGID_13_" gradientUnits="userSpaceOnUse" x1="73.2212" y1="-141.3057" x2="74.2962" y2="-141.3057" gradientTransform="matrix(9.302322e-004 1 -1 -0.001 1.139002e-004 4.031009e-005)">
		<stop  offset="0" style="stop-color:#FFFFFF"/>
		<stop  offset="1" style="stop-color:#D2DDE3"/>
	</linearGradient>
	<path style="fill-rule:evenodd;clip-rule:evenodd;fill:url(#SVGID_13_);" d="M140.2,74.05c0.133-0.399,0.566-0.633,1.3-0.7l1,0.25
		c0.066,0.167,0.066,0.4,0,0.7c-0.6,0.101-1.017,0.134-1.25,0.101C140.783,74.4,140.434,74.283,140.2,74.05z"/>
	
		<linearGradient id="SVGID_14_" gradientUnits="userSpaceOnUse" x1="73.4473" y1="-127.873" x2="76.7973" y2="-127.873" gradientTransform="matrix(2.985075e-004 1 -1 -0.001 2.256826e-004 2.189714e-005)">
		<stop  offset="0" style="stop-color:#FFFFFF"/>
		<stop  offset="1" style="stop-color:#D2DDE3"/>
	</linearGradient>
	<path style="fill-rule:evenodd;clip-rule:evenodd;fill:url(#SVGID_14_);" d="M131,73.6l1.25,0.5c0.467,0.467,0.5,1,0.1,1.601
		c-0.333,0.467-0.767,0.783-1.3,0.95c-1.3,0.333-3.133,0.233-5.5-0.301c-1.133-0.267-1.866-0.55-2.2-0.85
		c-0.466-0.434-0.05-0.816,1.25-1.15c0.334-0.1,1.467-0.133,3.4-0.1C129.566,74.283,130.566,74.066,131,73.6z"/>
	
		<linearGradient id="SVGID_15_" gradientUnits="userSpaceOnUse" x1="67.5337" y1="-41.0918" x2="70.6837" y2="-41.0918" gradientTransform="matrix(3.174603e-004 1 -1 -0.001 -2.877598e-004 1.724798e-005)">
		<stop  offset="0" style="stop-color:#FFFFFF"/>
		<stop  offset="1" style="stop-color:#D2DDE3"/>
	</linearGradient>
	<path style="fill-rule:evenodd;clip-rule:evenodd;fill:url(#SVGID_15_);" d="M38.95,70.4L38.9,70.35
		c-0.4-0.199-0.517-0.6-0.35-1.199c0.167-0.5,0.633-0.884,1.4-1.15c0.433-0.134,1.033-0.267,1.8-0.4l2,1
		c0,0.233-0.017,0.434-0.05,0.601c-0.167,0.633-0.5,1.05-1,1.25c-0.434,0.2-1.217,0.25-2.35,0.149
		C39.65,70.566,39.183,70.5,38.95,70.4z"/>
	
		<linearGradient id="SVGID_16_" gradientUnits="userSpaceOnUse" x1="78.4541" y1="-8.2998" x2="82.0291" y2="-8.2998" gradientTransform="matrix(2.797203e-004 1 -1 -0.001 1.301572e-004 2.654630e-005)">
		<stop  offset="0" style="stop-color:#FFFFFF"/>
		<stop  offset="1" style="stop-color:#D2DDE3"/>
	</linearGradient>
	<path style="fill-rule:evenodd;clip-rule:evenodd;fill:url(#SVGID_16_);" d="M4.5,81.35L4.45,81.3
		c-0.5-0.533-0.383-1.083,0.35-1.649C5.533,79.05,6.35,78.7,7.25,78.6C8.017,78.5,8.9,78.533,9.9,78.7
		c0.533,0.1,1.317,0.233,2.35,0.399c0,0.134,0.017,0.284,0.05,0.45c0.067,0,0.133,0.017,0.2,0.05l-0.25,0.5
		c-0.067,0.267-0.217,0.517-0.45,0.75c-0.167,0.167-0.383,0.317-0.65,0.45c-0.5,0.267-1.033,0.45-1.6,0.55
		C8.917,81.95,8.117,82,7.15,82c-1.2,0-1.983-0.134-2.35-0.4C4.667,81.5,4.567,81.417,4.5,81.35z"/>
	
		<linearGradient id="SVGID_17_" gradientUnits="userSpaceOnUse" x1="77.085" y1="-13.5181" x2="79.685" y2="-13.5181" gradientTransform="matrix(3.846154e-004 1 -1 -0.001 -3.077078e-004 2.559810e-005)">
		<stop  offset="0" style="stop-color:#FFFFFF"/>
		<stop  offset="1" style="stop-color:#D2DDE3"/>
	</linearGradient>
	<path style="fill-rule:evenodd;clip-rule:evenodd;fill:url(#SVGID_17_);" d="M12.25,79.1c-0.033-0.433,0.133-0.767,0.5-1l1.5-1
		c0.367,0.134,0.567,0.483,0.6,1.051c0,0.066,0,0.133,0,0.199c0,0.467-0.117,0.801-0.35,1c-0.333,0.301-1,0.384-2,0.25
		c-0.067-0.033-0.133-0.05-0.2-0.05C12.267,79.384,12.25,79.233,12.25,79.1z"/>
	
		<linearGradient id="SVGID_18_" gradientUnits="userSpaceOnUse" x1="80.5117" y1="-1.2832" x2="81.3867" y2="-1.2832" gradientTransform="matrix(0.0011 1 -1 -0.001 -2.219700e-004 6.071129e-005)">
		<stop  offset="0" style="stop-color:#FFFFFF"/>
		<stop  offset="1" style="stop-color:#D2DDE3"/>
	</linearGradient>
	<path style="fill-rule:evenodd;clip-rule:evenodd;fill:url(#SVGID_18_);" d="M1.15,80.55c0.333,0,0.783,0.017,1.35,0.05l0.25,0.5
		c-0.333,0.233-0.8,0.334-1.4,0.301C0.783,81.333,0.333,81.15,0,80.85C0.167,80.65,0.55,80.55,1.15,80.55z"/>
	
		<linearGradient id="SVGID_19_" gradientUnits="userSpaceOnUse" x1="74.167" y1="-45.5127" x2="80.742" y2="-45.5127" gradientTransform="matrix(1.520913e-004 1 -1 -0.001 -2.951694e-004 1.724798e-005)">
		<stop  offset="0" style="stop-color:#FFFFFF"/>
		<stop  offset="1" style="stop-color:#D2DDE3"/>
	</linearGradient>
	<path style="fill-rule:evenodd;clip-rule:evenodd;fill:url(#SVGID_19_);" d="M53.9,76c0.033,0.2,0.067,0.45,0.1,0.75
		c0,0.2,0,0.4,0,0.6l0.75,0.5c-0.7,0.434-1.2,0.75-1.5,0.95c-0.567,0.334-1.117,0.517-1.65,0.55c-0.833,0.034-1.7-0.05-2.6-0.25
		c-1.267-0.233-2.117-0.316-2.55-0.25c-0.4,0.067-0.733,0.217-1,0.45c-0.3,0.334-0.583,0.601-0.85,0.8
		c-0.733,0.567-1.517,0.7-2.35,0.4c-0.467-0.167-1.15-0.616-2.05-1.35c-0.4-0.334-1.017-0.567-1.85-0.7
		c-0.934-0.134-1.617-0.267-2.05-0.4c0-0.066,0-0.133,0-0.2c-0.033-0.566,0.3-1,1-1.3c0.233-0.1,0.9-0.25,2-0.45
		c0.6-0.1,1.35-0.333,2.25-0.699c0.2-0.067,0.383-0.134,0.55-0.2c0.733-0.3,1.283-0.5,1.65-0.601c0.567-0.166,1.25-0.25,2.05-0.25
		c0.467-0.033,1.167-0.033,2.1,0c0.434,0,1.117-0.017,2.05-0.05c0.833-0.033,1.517-0.017,2.05,0.05c0.8,0.101,1.35,0.434,1.65,1
		C53.75,75.517,53.833,75.733,53.9,76z"/>
</g>
</svg>
