<?xml version="1.0" encoding="iso-8859-1"?>
<!-- Generator: Adobe Illustrator 15.1.0, SVG Export Plug-In . SVG Version: 6.00 Build 0)  -->
<!DOCTYPE svg PUBLIC "-//W3C//DTD SVG 1.1//EN" "http://www.w3.org/Graphics/SVG/1.1/DTD/svg11.dtd">
<svg version="1.1" id="Layer_1" xmlns="http://www.w3.org/2000/svg" xmlns:xlink="http://www.w3.org/1999/xlink" x="0px" y="0px"
	 width="136.75px" height="305.15px" viewBox="0 0 136.75 305.15" style="enable-background:new 0 0 136.75 305.15;"
	 xml:space="preserve">
<g>
	<path style="fill-rule:evenodd;clip-rule:evenodd;fill:#6D655A;" d="M110.15,17.4l0.25,0.2l-0.25,1.15V17.4z M107.9,22.85
		l-0.051-6.3l0.65,0.05c-0.066,1.867-0.2,3.517-0.4,4.95L107.9,22.85z M111.75,36.5l-0.05-0.05L111.15,36l0.399,0.05L111.75,36.5z
		 M116.1,66.05c0.334-0.333,0.5-0.933,0.5-1.8c1.067-5.167,1.051-9.033-0.05-11.6c-0.666-1.6-1.399-2.4-2.2-2.4
		c-0.199,0-1.066,0.383-2.6,1.15c-0.233-0.833-0.35-1.517-0.35-2.05c0-3.033,0.55-4.917,1.649-5.65
		c1.066-0.767,1.601-2.05,1.601-3.85c0-0.767-0.167-1.45-0.5-2.05c0.566,0.067,1.649,0,3.25-0.2c3.1-0.233,5.399,1.733,6.899,5.9
		c1.667,4.6,2.033,11.2,1.101,19.8v0.15c-0.034,0.667-0.217,1.65-0.551,2.95c-0.733,2.767-1.116,4.184-1.149,4.25
		c-3.334-0.566-5.601-1.2-6.8-1.9c-0.601-0.6-0.934-0.933-1-1L116.1,66.05z M123.35,100.4l-1,0.1c-0.366-0.967-0.55-2.067-0.55-3.3
		c0-0.967,0.517-2.833,1.55-5.6c1.034-2.633,1.551-4.05,1.551-4.25c0.166-1.167,0.283-3.05,0.35-5.65
		c0.066-3.1,0.116-4.784,0.15-5.05c0.033,4.833,0.166,9.684,0.399,14.55c0,2-0.35,3.583-1.05,4.75c-1.2,2.033-1.833,3.133-1.9,3.3
		L123.35,100.4z M132.95,100.8l0.7,2.25l-0.101,0.1c-0.866-0.267-1.783-0.816-2.75-1.65l-0.5-0.35l-0.05-0.05L132.95,100.8z
		 M136.75,115v4.5c-0.634-0.767-1.033-1.217-1.2-1.35c-0.333-0.267-0.8-0.4-1.399-0.4c-4.634,0-7.45,2.967-8.45,8.9
		c-0.167,1.067-0.25,5.95-0.25,14.65c0,0.333,0.017,2.167,0.05,5.5c0.033,3.367,0,5.617-0.1,6.75c-1.4-7.066-2.5-13.767-3.301-20.1
		c-0.899-7.967-1.683-14.8-2.35-20.5c0.5-0.767,1.3-2.434,2.4-5c1.199-2.167,2.649-3.25,4.35-3.25c0.7,0,1.566,0.316,2.6,0.95
		c1.367,0.8,2.434,1.333,3.2,1.6c0.167,1.5,0.117,3.383-0.149,5.65c0.033,1.5,0.916,2.25,2.649,2.25
		C135.467,115.15,136.116,115.1,136.75,115z M136.1,137v0.35v5.45c0.067,0.9,0.101,2.083,0.101,3.55
		c0.066,2.167,0.05,3.85-0.05,5.05L135.6,152c-0.6-1-1-2.45-1.199-4.35c-0.134-1.1-0.2-2.7-0.2-4.8c0-2.667,0.283-4.4,0.85-5.2
		C135.35,137.217,135.7,137,136.1,137z M125.6,162.7l0.4,0.399l0.05,14.15l-1.1-8.2c0-0.5,0.083-1.5,0.25-3
		C125.333,164.55,125.467,163.434,125.6,162.7z M121.4,187.55c0.033-0.066-0.017-1.934-0.15-5.6c-0.134-3.367,0.233-5.8,1.1-7.3
		c0.134,0.1,0.417,0.399,0.851,0.899c0.267,0.267,0.45,0.4,0.55,0.4c0.033,1.133,0.767,3.366,2.2,6.7l0.25,0.5v0.05l0.149,2.3
		c0,2.233-0.25,3.566-0.75,4c-0.733,0.134-1.3,0.384-1.699,0.75c-1.667,1.333-2.5,8.267-2.5,20.8c0,1.667-0.067,5.017-0.2,10.05
		c-0.167,6.767-0.367,11.567-0.601,14.4c-0.1,1.267-1.699,2.866-4.8,4.8c-1.066,0.667-2.033,1.217-2.899,1.65
		c0.033-0.066,0.066-0.134,0.1-0.2c0.6-0.8,0.9-1.934,0.9-3.4l-0.15-4.5l0.3-0.649c1.4-0.033,2.384-0.316,2.95-0.851
		c0.566-0.566,0.85-1.466,0.85-2.699l-0.1-6.851L117.7,203.4c-0.066-3.434-0.05-5.784,0.05-7.051c0.134-1.666,0.5-3.166,1.1-4.5
		C120.15,189.783,121,188.35,121.4,187.55z M97.05,220.8c-1.267,0.867-1.916,3.584-1.95,8.15c-0.033,2.566,0.067,6.383,0.301,11.45
		c0,2.267-0.284,6.55-0.851,12.85c-0.5,5.667-0.666,10.4-0.5,14.2c0.267,6.267-1.166,9.666-4.3,10.2c-5.7,1.066-9.4,1.649-11.1,1.75
		c-2.767,0.199-4.384,0.8-4.851,1.8c-0.399,0.833-0.5,3.583-0.3,8.25l-2.4,0.05c0.767-14.767,1.317-25.116,1.65-31.05
		c0.5-10.033,0.884-18.9,1.15-26.601l0.5-4.149l0.8,8.5c0.5,6.467,0.833,11.8,1,16c0.133,7.133,0.066,13.533-0.2,19.2
		c0,2.233,0.384,3.949,1.15,5.149c0.733,1.134,1.75,1.7,3.05,1.7c0.866,0,1.416-0.3,1.649-0.9c0.101-0.267,0.15-0.783,0.15-1.55
		l-0.05-1.2l-0.25-7.449c0.033-0.2,0.233-0.851,0.6-1.95c0.367-1.134,0.617-1.851,0.75-2.15l0.3,0.7l0.801,3.4
		c0.1,1.533,0.5,2.699,1.199,3.5c0.534,0.633,1.101,0.949,1.7,0.949c1.667,0,2.7-0.733,3.101-2.199
		c0.199-0.733,0.267-2.351,0.199-4.851c1.101-7.066,1.684-10.934,1.75-11.6c0.567-4.167,0.983-10.967,1.25-20.4
		c0.334-11.6,0.7-20,1.101-25.2c-0.033-0.3,0.017-0.316,0.149-0.05c0.034,0.167,0.084,0.351,0.15,0.55
		c0.9,3.4,1.384,5.284,1.45,5.65C96.667,215.6,96.95,218.033,97.05,220.8z M101.95,223.25c0.166-0.634,0.316-1.384,0.45-2.25
		l0.1-1.05l0.7,0.7c0.666,0.866,1.184,1.8,1.55,2.8c0.233,0.733,0.45,1.833,0.65,3.3c0.166,1.434,0.267,2.667,0.3,3.7
		c-0.033-0.434-0.467-1.517-1.3-3.25C103.467,225.233,102.65,223.917,101.95,223.25z M117.65,72.1
		c-0.801,3.733-1.284,7.533-1.45,11.4c-0.134,3.167-0.367,5.167-0.7,6l-0.15-1.35c-0.1-1.3-0.199-3.783-0.3-7.45
		c-0.1-3.067-0.149-5.05-0.149-5.95s0.199-1.917,0.6-3.05L117.65,72.1z"/>
	<path style="fill-rule:evenodd;clip-rule:evenodd;fill:#635B52;" d="M93.95,55c-0.601-6.167-0.934-11.8-1-16.9
		c-0.033-2.033,0.033-3.733,0.2-5.1c0.3-2.367,1.449-6.133,3.449-11.3l0.7-5.6l2.7,0.05c-0.1,4.5-0.25,7.117-0.45,7.85
		c-0.3,0.467-0.6,1.233-0.899,2.3c0.767,0.267,1.916,0.85,3.449,1.75c0.934,0.534,2.134,0.8,3.601,0.8c0.666,0,1.267-0.05,1.8-0.15
		l0.15-3.3l0.449-3.85c0.2-1.433,0.334-3.083,0.4-4.95l1.15,0.45l0.5,0.35v1.35c-0.167,4.133-0.25,6.283-0.25,6.45l-0.051,1.75
		c0,0.3,0.067,0.767,0.2,1.4c0.3,0.4,0.634,0.7,1,0.9v0.4l-0.05,2.3c-2-0.633-3.55-1.117-4.65-1.45c-2-0.6-4-0.9-6-0.9
		c-2.433,0-3.966,1.816-4.6,5.45c-0.6,6.767-1.184,13.267-1.75,19.5v0.9L93.95,55z M123.7,70.65l1.7,0.35v3.7
		c-0.434-0.5-0.967-0.95-1.601-1.35c-1.233-0.833-3.283-1.25-6.149-1.25l-2.15-0.4l-2.7-0.35c-1.066,0.3-1.983,0.883-2.75,1.75
		c-0.6,0.9-1,1.417-1.2,1.55l-0.199-1.3c-0.134-1.8-0.317-3.184-0.551-4.15c-0.267-1-0.666-1.9-1.199-2.7l-0.801-1.4l-1.55-2.6
		l-1.05,8.35c0,0.333,0.1,3.083,0.3,8.25c0.167,5.5,0.217,9.383,0.15,11.65V88.9c-0.033-0.933-0.316-3.267-0.851-7
		c-0.399-3-0.6-6.583-0.6-10.75c0-7.967,0.134-12.383,0.4-13.25c0.199-0.267,0.35-0.517,0.449-0.75
		c0.2-0.433,0.384-1.417,0.551-2.95l0.5,0.7c0.433,3.2,1.517,6.35,3.25,9.45c1.666,2.967,3.066,4.45,4.199,4.45
		c0.567,0,1.034-0.267,1.4-0.8c0.566-0.767,0.85-2.017,0.85-3.75c-0.433-3.667-0.716-6.25-0.85-7.75
		c-0.233-2.533,0.384-4.333,1.85-5.4L115.2,52c0,3.533,0.166,6.15,0.5,7.85c0.2,0.967,0.5,2.433,0.899,4.4
		c0,0.867-0.166,1.467-0.5,1.8l-0.449,0.2c0.1,0.067,0.183,0.567,0.25,1.5c0.066,0.067,0.399,0.4,1,1
		C118.1,69.45,120.366,70.083,123.7,70.65z M130.25,101.1l0.05,0.05l0.5,0.35c0.967,0.833,1.884,1.383,2.75,1.65l0.101-0.1
		l-0.7-2.25l1.5-0.05c0.666,0,0.95,0.017,0.85,0.05c0.134,1.534,0.351,3.383,0.65,5.55l-0.55,0.05c-0.067,0.967-0.184,1.9-0.351,2.8
		l-0.6-2.6c-1,0.467-1.717,0.683-2.15,0.65c-0.767-0.267-1.833-0.8-3.2-1.6c-1.033-0.633-1.899-0.95-2.6-0.95
		c-1.7,0-3.15,1.083-4.35,3.25c-1.101,2.566-1.9,4.233-2.4,5c-0.533-0.067-0.884-0.15-1.05-0.25c-0.367-0.233-0.55-0.667-0.55-1.3
		c0-4.833,0-7.267,0-7.3c-0.334-1.434-1.75-2.15-4.25-2.15c-0.867,0-1.384,1.25-1.551,3.75c-0.3,4.066-0.683,6.983-1.149,8.75
		c-0.467-2.9-0.884-5.95-1.25-9.15c-0.733-6.167-1.217-13-1.45-20.5l0.3,1.9c1.367,4.8,2.566,8.983,3.601,12.55
		c0-2.167,0.35-3.867,1.05-5.1c0.6-1.033,0.717-4.783,0.35-11.25c0.134,1.767,0.834,4.767,2.101,9c1.199,4.033,1.8,6.55,1.8,7.55
		c0,0.167,0.217,0.383,0.649,0.65c0.634,0.367,1.467,0.55,2.5,0.55c0.667,0,1.167-0.05,1.5-0.15l1-0.1c1.233,1.633,2.384,2.3,3.45,2
		C127.467,102.233,128.616,101.8,130.25,101.1z M126,163.1l-0.4-0.399c-3.033-1.367-4.666-0.233-4.899,3.399
		c-0.066,1.067-0.084,2.9-0.05,5.5c-0.067,2.367-0.351,4.233-0.851,5.601c-0.1-9.5-0.283-14.917-0.55-16.25
		c-0.167-0.834-0.55-1.55-1.15-2.15c-1.033-0.899-2.017-1.8-2.949-2.7l2.649-0.149c1.3,0,2.267,0.383,2.9,1.149
		c1.033,1.233,2.8,2.384,5.3,3.45V163.1z M60.15,289.8c0.434-2.7,0.767-4.916,1-6.649c0.367-3.101,0.55-6.517,0.55-10.25
		l-0.05-2.101l0.15,1.5c0.3,2.5,0.75,5.617,1.35,9.351c0.434,2.633,0.733,5.333,0.9,8.1C63.417,289.884,62.117,289.9,60.15,289.8z
		 M84.85,23.55c0.034,13.967-0.083,31.2-0.35,51.7c0,0.333,0,3.267,0,8.8c-0.033,5.733-0.134,9.534-0.3,11.4L82.7,44.9
		c0-6.7,0.383-11.95,1.149-15.75c0.667-3.167,0.967-5.033,0.9-5.6H84.85z M85.75,234.15c0,3.566-0.083,11.6-0.25,24.1l-1.35,8.9
		l-0.801-3.4l-0.3-0.7c-0.133,0.3-0.383,1.017-0.75,2.15c-0.366,1.1-0.566,1.75-0.6,1.95l0.25,7.449l-0.9,0.051
		c-0.399-5.301-0.6-8.284-0.6-8.95l0.1-2.8l-0.75-2.7c0.7-2.867,1.117-4.783,1.25-5.75c0.167-1.4,0.25-3.917,0.25-7.55l-0.1-6.4
		c-0.033-15.434-0.851-36.217-2.45-62.35l-0.05-0.65l-0.55-9.3c-0.534-2.834-0.9-5.983-1.101-9.45L77.15,152l0.35,5.4l0.65,10.8
		L79,173l4,21.25c1.033,3.833,1.85,10.583,2.45,20.25C86.017,223.7,86.116,230.25,85.75,234.15z M70.55,189.4
		c-0.3-6.7-0.583-10.5-0.85-11.4c-0.7-1.267-1.283-2.217-1.75-2.85c-0.5-0.534-0.9-1.017-1.2-1.45
		c0.367-7.066,0.883-13.101,1.55-18.101c0.533-4.1,0.8-6.866,0.8-8.3c-0.267-3.3-0.533-7.017-0.8-11.15
		c-0.566-8.233-0.85-16.316-0.85-24.25c0-3.967,0.2-7.8,0.6-11.5c0.367-3.7,0.55-6.8,0.55-9.3c0-0.667,0.567-10.267,1.7-28.8
		l0.2-2.85l0.05,8v5.7c0.101,12.633,0.45,28.667,1.05,48.1c0.301,9.667,0.584,18.617,0.851,26.85l0.1,3.5l-0.05,12.3
		c0,3.533-0.134,7.566-0.4,12.1C71.733,182.066,71.217,186.533,70.55,189.4z"/>
	<path style="fill-rule:evenodd;clip-rule:evenodd;fill:#9B9286;" d="M111.05,29.25l0.101-1.15l-0.101,1.55V29.25z M114.15,37.8
		c-0.467-0.133-0.834-0.216-1.101-0.25c0.334,0.034,0.783,0.067,1.351,0.1c0.966,0.067,1.966,0.05,3-0.05
		C115.8,37.8,114.717,37.867,114.15,37.8z M136.1,137.35V137l0.051-0.15L136.1,137.35z M71.05,289.5
		c-0.166-12.8-0.633-21.667-1.399-26.6c-0.667-4.233-2.833-12.75-6.5-25.551c3-3.166,4.65-7.933,4.95-14.3
		c0.034-3.6,0.084-6.316,0.15-8.149c0.066-3.301,0.35-6.051,0.85-8.25c0.467,1.133,1.117,4.199,1.95,9.199
		c1.367,7.967,2.316,13.301,2.851,16c-0.267,7.7-0.65,16.567-1.15,26.601c-0.333,5.934-0.884,16.283-1.65,31.05H71.05z
		 M64.35,289.65l0.05-2.801c0,0.934,0,1.867,0,2.801H64.35z M53.45,282.05c0.133-0.033,1.083-0.25,2.85-0.649
		c-0.033,0.233-0.267,1.133-0.7,2.699c-0.467,1.601-0.8,3.034-1,4.301c-0.2-0.434-0.467-1.367-0.8-2.801
		C53.467,283.934,53.35,282.75,53.45,282.05z M67.65,27c0,0.933-0.3,1.733-0.9,2.4c-0.633,0.633-1.4,0.95-2.3,0.95
		c0.267-0.767,0.466-1.7,0.6-2.8c0.034-0.3,0.067-0.617,0.1-0.95c0-4.533-0.066-7.783-0.2-9.75l-0.05-0.8l2.45-0.25l-0.8,0.1
		c0.1,0,0.217,1.867,0.35,5.6C67.2,24.867,67.45,26.7,67.65,27z M80.95,23.5c-0.4,7.967-0.55,15.683-0.45,23.15
		c0.066,3.967,0.184,8.4,0.35,13.3c0.034,3.1-0.283,5.117-0.949,6.05c-0.667,0.933-2.101,1.4-4.301,1.4
		c-2.133-0.233-3.6-0.316-4.399-0.25c-0.134-10.7,0.083-18.05,0.649-22.05c0.834-5.5,2.584-8.25,5.25-8.25
		c1.067,0,1.9,0.183,2.5,0.55c0.634-1.133,0.95-2.65,0.95-4.55c-0.399-0.167-1.05-0.317-1.95-0.45
		c-0.933-0.167-1.733-0.267-2.399-0.3l3.25-1.1L78.6,31.25c-1.066,0.4-2.149,0.4-3.25,0c-0.966-0.533-1.566-0.85-1.8-0.95
		c-0.033-2.7-0.133-5.417-0.3-8.15c-0.1-1.5-0.25-3.6-0.45-6.3c1.7,0.333,2.884,0.767,3.55,1.3c0.301,0.233,0.867,1.4,1.7,3.5
		C78.75,22.383,79.717,23.333,80.95,23.5z M94.4,16.25c0.466,4.833,0.233,8.2-0.7,10.1c-0.566,1.1-1.316,1.65-2.25,1.65
		c-0.634,0-1.55-0.633-2.75-1.9c-1.3-1.467-2.134-2.4-2.5-2.8c0.8-0.4,1.217-0.867,1.25-1.4c0-0.333-0.033-0.833-0.101-1.5
		C87.483,19.033,89.833,17.65,94.4,16.25z M108.1,21.55l-0.449,3.85l0.25-2.55L108.1,21.55z M100.25,37.65
		c0.267,0.467,0.616,1.567,1.05,3.3c0.434,1.733,0.65,2.933,0.65,3.6c-0.2,4.9-0.334,11.467-0.4,19.7
		c-0.166,0.3-0.85,0.983-2.05,2.05c-1.267,1.1-2.083,1.7-2.45,1.8c-1.833,0.233-3.983,0.4-6.45,0.5c-2.066,0-3.399-0.15-4-0.45
		c-0.399-0.2-0.6-4.767-0.6-13.7c-0.033-5.267-0.167-11.467-0.4-18.6c1.434,2.233,3.167,3.683,5.2,4.35
		c1.267,0.4,1.867,1.566,1.8,3.5c-0.033,1.066,0.15,3.9,0.551,8.5c0.399,4.733,0.6,7.566,0.6,8.5c0.167-3.434,0.233-5.333,0.2-5.7
		L94,55.45v-0.9l0.65,3.75c0.199-0.367,0.383-0.783,0.55-1.25l-0.2-5c2.467-0.2,3.884-1.316,4.25-3.35
		C99.384,44.9,99.717,41.217,100.25,37.65z M109.9,25.2l0.149,3.15c-0.133-0.633-0.2-1.1-0.2-1.4L109.9,25.2z M119.6,190.1
		l-0.75,1.75c-0.6,1.334-0.966,2.834-1.1,4.5c-0.1,1.267-0.116,3.617-0.05,7.051l-1.2-19.051c-0.767,17.4-1.116,27.567-1.05,30.5
		c0.066,2.334,0.05,4.417-0.05,6.25l-0.801-6.8c-0.033,5.467-0.233,9.217-0.6,11.25c-0.366,1.8-0.983,2.7-1.85,2.7
		c-0.267,0-0.851-0.384-1.75-1.15c0.566-28.333-0.634-67.666-3.601-118c-0.666,2.066-1.033,4.017-1.1,5.85l-0.101-5.85
		c0.2-23.367,0.367-38.033,0.5-44l0.801,1.4l-0.45-0.7c0.566,7.534,1.1,16.267,1.6,26.2c0.467,9.033,0.767,16.267,0.9,21.7
		c0.166,7.667,0.95,16.95,2.35,27.85c1.2,9.434,2.101,15.05,2.7,16.851l0.5-5.301c0.467,3.767,1.116,5.967,1.95,6.601
		c0.2,0.133,0.45,0.283,0.75,0.45c0.2,0.233,0.3,0.75,0.3,1.55c0,0.333,0.083,1.116,0.25,2.35c0.2,1.4,0.417,2.517,0.65,3.351
		c0.767,2.733,1.166,5.05,1.199,6.949C119.6,176.05,119.6,181.3,119.6,190.1z M105.55,118.65c-0.2,5.6-0.55,17.267-1.05,35
		c-0.434,15.1-0.733,23.966-0.9,26.6c-0.5-4.333-0.85-7.45-1.05-9.35c-0.333-3.267-0.517-6.2-0.55-8.801
		c-0.233,3.801-0.533,12.167-0.9,25.101l0.301,25.2c-0.934,0.699-1.684,1.333-2.25,1.899c-0.2-4.767-0.45-12.483-0.75-23.149
		c-0.301-11.267-0.517-20.834-0.65-28.7l-0.15,0.8c-0.899,2.634-1.866,6.684-2.899,12.15c-1.101,5.767-1.667,10.199-1.7,13.3
		c0.134,5.434,0.1,10.233-0.1,14.399c-0.167,0.967-0.75,8.584-1.75,22.851c-0.834,11.934-2.4,21.3-4.7,28.1
		c0.566-11.7,0.85-17.883,0.85-18.55l-0.3-4.7c-0.3,1.934-0.717,3.05-1.25,3.351c0.366-3.9,0.267-10.45-0.3-19.65
		c-0.601-9.667-1.417-16.417-2.45-20.25c-0.434-18.566-0.684-32.5-0.75-41.8c-0.033-6.567-0.15-12.784-0.35-18.65v1.85H81.05
		c-0.233,6.967-0.333,12.633-0.3,17c-0.1,3.133-0.684,9.917-1.75,20.35l-0.85-4.8l-0.65-10.8c0.667-4.467,1.033-6.884,1.1-7.25
		c0.2-1.7,0.301-3.417,0.301-5.15c-0.267-7.6-0.417-14.983-0.45-22.15c0.133-11.333,0.2-18,0.2-20c0-2.033-0.45-5.983-1.351-11.85
		c-0.066-0.067-0.434-0.1-1.1-0.1c-0.3,0-0.733,0.1-1.3,0.3c-0.434,0.167-0.733,0.2-0.9,0.1c-0.066-3-0.1-4.833-0.1-5.5
		c0-1.167,0.983-2.983,2.949-5.45c1.967-2.5,2.95-3.8,2.95-3.9c0-0.867-0.616-1.7-1.85-2.5c2-0.367,3.366,0.583,4.1,2.85
		c0.634,1.833,1,5.267,1.101,10.3L83.1,93.3c0,16.733,0.483,30.967,1.45,42.7c1.434,16.833,2.417,32.467,2.95,46.9l0.35-0.7
		l0.2-0.75c-0.133-24.867-0.133-44.733,0-59.6c0.3-27.733,2.033-41.6,5.2-41.6c0.333,0,0.816,0.15,1.45,0.45
		c0.633,0.267,1.116,0.4,1.45,0.4c0.633,0,1.5-0.5,2.6-1.5c1.6-1.4,2.4-3.217,2.4-5.45c0-0.6-0.134-1.267-0.4-2
		c-0.4-1.2-1.05-2.167-1.95-2.9c0.667,0.033,1.334,0.033,2,0c0.533-0.067,0.834-0.133,0.9-0.2c1.5,19.034,2.35,32.784,2.55,41.25
		c0.1,3.233,0.467,6.4,1.1,9.5L105.55,118.65z M62.65,40.9l0.1-4.4c0.233,0.033,0.867,0.25,1.9,0.65c0.9,0.333,1.5,0.6,1.8,0.8
		c-1.6,8.533-2.15,14.25-1.65,17.15c0.167,0.933,0.5,2.483,1,4.65c0.4,2.433,0.6,5.55,0.6,9.35c0,0.4-0.066,0.65-0.2,0.75
		c-0.233,0.066-0.417,0.167-0.55,0.3l-1.3-9L63.9,57.6l-1-10.8l-0.05-1l-0.1-2.3L62.65,40.9z M66.25,74.6l-0.15-1.15
		c0.3-0.233,0.45,0.816,0.45,3.15L66.25,74.6z M78.15,168.2l0.55,9.3c-0.134,11.9-0.483,36.816-1.05,74.75l-0.5-1.95l-0.95,1.9
		c-0.167-4.2-0.5-9.533-1-16l1.05,9.3c0.566-3.2,0.95-6.083,1.15-8.65c0.166-2.233,0.25-5.283,0.25-9.149
		c-0.134-16.767-0.317-28.367-0.551-34.8c0-0.634-0.1-2.067-0.3-4.301c-0.2-2.166-0.316-3.933-0.35-5.3c0-1-0.566-4.149-1.7-9.45
		c-0.967-4.566-1.717-7.883-2.25-9.949l0.05-12.3c0.033,2.034,0.033,4.95,0,8.75l0.95-1.55l-0.5-8.5l2.85,10
		c0.5-0.467,0.9-0.983,1.2-1.55C77.25,162.217,77.616,165.366,78.15,168.2z M109.15,239.25c0.466-1.733,0.8-3.866,1-6.4
		c0.233,1.434,0.366,3.15,0.399,5.15L109.15,239.25z M64.2,264.5c-0.133-2.866-0.367-6.483-0.7-10.85
		c-0.7-9.567-1.067-14.65-1.1-15.25l0.45-0.7l0.8,9.25C63.883,251.75,64.067,257.6,64.2,264.5z"/>
	<path style="fill-rule:evenodd;clip-rule:evenodd;fill:#7C7367;" d="M107.9,22.85l-0.25,2.55l-0.15,3.3
		c-0.533,0.1-1.134,0.15-1.8,0.15c-1.467,0-2.667-0.267-3.601-0.8c-1.533-0.9-2.683-1.483-3.449-1.75c0.3-1.066,0.6-1.833,0.899-2.3
		c0.2-0.733,0.351-3.35,0.45-7.85l7.85,0.4L107.9,22.85z M110.15,18.75l0.25-1.15c0.566,0.8,0.933,2.083,1.1,3.85
		c0.2,1.867,0.116,3.7-0.25,5.5l-0.1,1.15l-0.101,1.15c-0.366-0.2-0.7-0.5-1-0.9L109.9,25.2
		C109.9,25.033,109.983,22.883,110.15,18.75z M70.55,67.45l0.65-0.3c0.8-0.066,2.267,0.017,4.399,0.25c2.2,0,3.634-0.467,4.301-1.4
		c0.666-0.933,0.983-2.95,0.949-6.05c-0.166-4.9-0.283-9.333-0.35-13.3c-0.1-7.467,0.05-15.183,0.45-23.15
		c1.733,0.1,3,0.117,3.8,0.05c0.066,0.567-0.233,2.434-0.9,5.6C83.083,32.95,82.7,38.2,82.7,44.9l1.5,50.55
		c0.166-1.867,0.267-5.667,0.3-11.4c0-5.533,0-8.466,0-8.8c0.267-20.5,0.384-37.733,0.35-51.7L86.2,23.3
		c0.366,0.4,1.2,1.333,2.5,2.8c1.2,1.267,2.116,1.9,2.75,1.9c0.934,0,1.684-0.55,2.25-1.65c0.934-1.9,1.166-5.267,0.7-10.1
		L97.3,16.1l-0.7,5.6c-2,5.167-3.149,8.933-3.449,11.3c-0.167,1.367-0.233,3.067-0.2,5.1c-1.533-0.067-2.834-0.85-3.9-2.35
		c-2.333-3.3-3.517-4.967-3.55-5l0.1,5.1c0.233,7.133,0.367,13.333,0.4,18.6c0,8.933,0.2,13.5,0.6,13.7c0.601,0.3,1.934,0.45,4,0.45
		c2.467-0.1,4.617-0.267,6.45-0.5c0.367-0.1,1.184-0.7,2.45-1.8c1.2-1.066,1.884-1.75,2.05-2.05c0.066-8.233,0.2-14.8,0.4-19.7
		c0-0.667-0.217-1.867-0.65-3.6c-0.434-1.733-0.783-2.833-1.05-3.3l-0.6-0.8c-1.267,0.633-2.617,1.05-4.051,1.25
		C95.2,45.533,95,50.183,95,52.05l0.2,5c-0.167,0.467-0.351,0.883-0.55,1.25L94,54.55c0.566-6.233,1.15-12.733,1.75-19.5
		c0.634-3.633,2.167-5.45,4.6-5.45c2,0,4,0.3,6,0.9c1.101,0.333,2.65,0.817,4.65,1.45c0,1.333,0.184,2.7,0.55,4.1L111.15,36
		l0.55,0.45l0.05,0.05c0.366,0.533,0.634,0.833,0.8,0.9c0.066,0.033,0.233,0.083,0.5,0.15c0.267,0.034,0.634,0.117,1.101,0.25
		c0.333,0.6,0.5,1.284,0.5,2.05c0,1.8-0.534,3.083-1.601,3.85c-1.1,0.733-1.649,2.617-1.649,5.65c0,0.533,0.116,1.217,0.35,2.05
		c1.533-0.767,2.4-1.15,2.6-1.15c0.801,0,1.534,0.8,2.2,2.4c1.101,2.567,1.117,6.434,0.05,11.6c-0.399-1.967-0.699-3.433-0.899-4.4
		c-0.334-1.7-0.5-4.317-0.5-7.85l-0.101-0.9c-1.466,1.066-2.083,2.867-1.85,5.4c0.134,1.5,0.417,4.083,0.85,7.75
		c0,1.733-0.283,2.983-0.85,3.75c-0.366,0.533-0.833,0.8-1.4,0.8c-1.133,0-2.533-1.483-4.199-4.45c-1.733-3.1-2.817-6.25-3.25-9.45
		l-0.5-0.7c-0.167,1.533-0.351,2.517-0.551,2.95c-0.1,0.233-0.25,0.483-0.449,0.75c-0.267,0.867-0.4,5.283-0.4,13.25
		c0,4.167,0.2,7.75,0.6,10.75c0.534,3.733,0.817,6.067,0.851,7v1.85c0.066-2.267,0.017-6.15-0.15-11.65
		c-0.2-5.167-0.3-7.917-0.3-8.25l1.05-8.35l1.55,2.6c-0.133,5.967-0.3,20.633-0.5,44l0.101,5.85c0,1.867-0.05,3.1-0.15,3.7
		l-0.2,1.15c-0.633-3.1-1-6.267-1.1-9.5c-0.2-8.466-1.05-22.216-2.55-41.25c-0.066,0.067-0.367,0.133-0.9,0.2
		c-0.666,0.033-1.333,0.033-2,0c-1.033,0.8-1.55,2.2-1.55,4.2c0,1.9-0.583,3.183-1.75,3.85c-0.533-0.133-1.217-0.633-2.05-1.5
		c-0.733-0.8-1.334-1.183-1.8-1.15c-0.667,0.033-1.45-0.383-2.351-1.25c-0.899-0.9-1.517-1.35-1.85-1.35
		c-0.4,0-0.767,0.167-1.101,0.5L85.95,73c0.066,20.7,0.166,32.217,0.3,34.55c0,2.267-0.184,3.633-0.55,4.1
		c-0.834-5.267-1.483-10.85-1.95-16.75c-0.333-4.9-0.533-7.5-0.6-7.8c-0.101-5.033-0.467-8.467-1.101-10.3
		c-0.733-2.267-2.1-3.216-4.1-2.85l-7.4-0.8V67.45z M125.4,71l-1.7-0.35c0.033-0.066,0.416-1.483,1.149-4.25
		c0.334-1.3,0.517-2.283,0.551-2.95V71z M121.4,187.55c-0.634,0.767-1.233,1.617-1.801,2.55c0-8.8,0-14.05,0-15.75
		c-0.033-1.899-0.433-4.216-1.199-6.949c-0.233-0.834-0.45-1.95-0.65-3.351c-0.167-1.233-0.25-2.017-0.25-2.35
		c0-0.8-0.1-1.316-0.3-1.55c-0.3-0.167-0.55-0.317-0.75-0.45c-0.834-0.634-1.483-2.834-1.95-6.601L114,158.4
		c-0.6-1.801-1.5-7.417-2.7-16.851c-1.399-10.9-2.184-20.183-2.35-27.85c-0.134-5.434-0.434-12.667-0.9-21.7
		c-0.5-9.933-1.033-18.667-1.6-26.2l0.45,0.7c0.533,0.8,0.933,1.7,1.199,2.7c0.233,0.966,0.417,2.35,0.551,4.15l0.199,1.3
		c0.2-0.133,0.601-0.65,1.2-1.55c0.767-0.867,1.684-1.45,2.75-1.75l2.7,0.35c-0.4,1.133-0.6,2.15-0.6,3.05s0.05,2.883,0.149,5.95
		c0.101,3.667,0.2,6.15,0.3,7.45l0.15,1.35c0.333-0.833,0.566-2.833,0.7-6c0.166-3.867,0.649-7.667,1.45-11.4
		c2.866,0,4.916,0.417,6.149,1.25c0.634,0.4,1.167,0.85,1.601,1.35v1.95c-0.034,0.267-0.084,1.95-0.15,5.05
		c-0.066,2.6-0.184,4.483-0.35,5.65c0,0.2-0.517,1.617-1.551,4.25c-1.033,2.767-1.55,4.633-1.55,5.6c0,1.233,0.184,2.333,0.55,3.3
		c-0.333,0.1-0.833,0.15-1.5,0.15c-1.033,0-1.866-0.183-2.5-0.55c-0.433-0.267-0.649-0.483-0.649-0.65c0-1-0.601-3.517-1.8-7.55
		c-1.267-4.233-1.967-7.233-2.101-9c0.367,6.467,0.25,10.217-0.35,11.25c-0.7,1.233-1.05,2.934-1.05,5.1
		c-1.034-3.567-2.233-7.75-3.601-12.55l-0.3-1.9c0.233,7.5,0.717,14.333,1.45,20.5c0.366,3.2,0.783,6.25,1.25,9.15
		c0.467-1.767,0.85-4.684,1.149-8.75c0.167-2.5,0.684-3.75,1.551-3.75c2.5,0,3.916,0.716,4.25,2.15c0,0.033,0,2.467,0,7.3
		c0,0.633,0.183,1.067,0.55,1.3c0.166,0.1,0.517,0.183,1.05,0.25c0.667,5.7,1.45,12.533,2.35,20.5
		c0.801,6.333,1.9,13.033,3.301,20.1c0.1-1.133,0.133-3.383,0.1-6.75c-0.033-3.333-0.05-5.167-0.05-5.5
		c0-8.7,0.083-13.583,0.25-14.65c1-5.933,3.816-8.9,8.45-8.9c0.6,0,1.066,0.133,1.399,0.4c0.167,0.133,0.566,0.583,1.2,1.35
		c-0.066,8.767-0.267,14.55-0.6,17.35L136.1,137c-0.399,0-0.75,0.217-1.05,0.65c-0.566,0.8-0.85,2.533-0.85,5.2
		c0,2.1,0.066,3.7,0.2,4.8c0.199,1.9,0.6,3.35,1.199,4.35l0.551-0.6v1.85c-4.034,0.566-6.167,0.9-6.4,1
		c-1.634,0.767-2.884,2.866-3.75,6.3c-2.5-1.066-4.267-2.217-5.3-3.45c-0.634-0.767-1.601-1.149-2.9-1.149l-2.649,0.149
		c0.933,0.9,1.916,1.801,2.949,2.7c0.601,0.601,0.983,1.316,1.15,2.15c0.267,1.333,0.45,6.75,0.55,16.25
		c0.5-1.367,0.783-3.233,0.851-5.601c-0.034-2.6-0.017-4.433,0.05-5.5c0.233-3.633,1.866-4.767,4.899-3.399
		c-0.133,0.733-0.267,1.85-0.399,3.35c-0.167,1.5-0.25,2.5-0.25,3l1.1,8.2l0.15,5.9l-0.25-0.5c-1.434-3.334-2.167-5.567-2.2-6.7
		c-0.1,0-0.283-0.134-0.55-0.4c-0.434-0.5-0.717-0.8-0.851-0.899c-0.866,1.5-1.233,3.933-1.1,7.3
		C121.384,185.616,121.434,187.483,121.4,187.55z M136.75,115c-0.634,0.1-1.283,0.15-1.95,0.15c-1.733,0-2.616-0.75-2.649-2.25
		c0.267-2.267,0.316-4.15,0.149-5.65c0.434,0.033,1.15-0.183,2.15-0.65l0.6,2.6c0.167-0.9,0.283-1.833,0.351-2.8l0.55-0.05
		c0.133,0.833,0.3,2.233,0.5,4.2C136.65,112.75,136.75,114.233,136.75,115z M113.75,233.85c-0.5,1.301-0.8,2.017-0.9,2.15
		c-0.566,0.467-1.333,1.134-2.3,2c-0.033-2-0.166-3.717-0.399-5.15c-0.467-2.6-0.7-6.233-0.7-10.899l0.05,0.95
		c0.033,0.433,0.15,1.133,0.35,2.1c0.2,1.033,0.384,1.733,0.551,2.1c0.899,0.767,1.483,1.15,1.75,1.15c0.866,0,1.483-0.9,1.85-2.7
		c0.366-2.033,0.566-5.783,0.6-11.25l0.801,6.8c0.533,3.567,0.767,6.233,0.699,8c-1.133,2.5-1.816,3.867-2.05,4.101L113.75,233.85z
		 M115.9,67.75c-0.067-0.933-0.15-1.433-0.25-1.5l0.449-0.2L115.9,67.75z M83,194.25L79,173c1.066-10.434,1.65-17.217,1.75-20.35
		c-0.033-4.367,0.066-10.033,0.3-17H81.9v-1.85c0.199,5.867,0.316,12.083,0.35,18.65C82.316,161.75,82.566,175.684,83,194.25z
		 M85.5,258.25c0.167-12.5,0.25-20.533,0.25-24.1c0.533-0.301,0.95-1.417,1.25-3.351l0.3,4.7c0,0.667-0.283,6.85-0.85,18.55
		L85.5,258.25z M103.6,180.25c0.267,5.767,0.4,16.967,0.4,33.6c-0.033-0.6-0.083-1.183-0.15-1.75
		c-0.199-1.133-0.466-1.866-0.8-2.199c-0.366-0.334-0.916,0.5-1.649,2.5l-0.301-25.2c0.367-12.934,0.667-21.3,0.9-25.101
		c0.033,2.601,0.217,5.534,0.55,8.801C102.75,172.8,103.1,175.917,103.6,180.25z M67.65,27c0.1-0.4,0.383-2.7,0.85-6.9
		c0.733,6.133,1.3,9.483,1.7,10.05c0.399,0.533,1.517,0.583,3.35,0.15c0.233,0.1,0.834,0.417,1.8,0.95c1.101,0.4,2.184,0.4,3.25,0
		L79.45,31l-3.25,1.1c-1.733,0.6-2.884,0.967-3.45,1.1c-0.366,0.1-0.8,0.15-1.3,0.15l-1.95-0.2C69.967,43.283,70.233,53,70.3,62.3
		c-1.133,18.534-1.7,28.133-1.7,28.8c0,2.5-0.183,5.6-0.55,9.3c-0.4,3.7-0.6,7.533-0.6,11.5c0,7.934,0.283,16.017,0.85,24.25
		c0.267,4.133,0.533,7.85,0.8,11.15c0,1.434-0.267,4.2-0.8,8.3c-0.667,5-1.183,11.034-1.55,18.101c-1.233-1.2-2.05-2.467-2.45-3.8
		c-0.367-1.233-0.55-3.267-0.55-6.101c0-13.733,0.65-28.466,1.95-44.2c1.3-15.7,1.95-26.05,1.95-31.05
		c0-1.533-0.367-5.517-1.1-11.95c0-2.333-0.15-3.383-0.45-3.15l-0.45-3.3c0.133-0.133,0.317-0.233,0.55-0.3
		c0.133-0.1,0.2-0.35,0.2-0.75c0-3.8-0.2-6.917-0.6-9.35c-0.5-2.167-0.833-3.717-1-4.65c-0.5-2.9,0.05-8.617,1.65-17.15h0.05
		l0.6-5.2l-3.55,0.2c0.333-1.2,0.633-2.067,0.9-2.6c0.9,0,1.667-0.317,2.3-0.95C67.35,28.733,67.65,27.933,67.65,27z M79.8,260.2
		l-2.149-7.95c0.566-37.934,0.916-62.85,1.05-74.75l0.05,0.65c1.6,26.133,2.417,46.916,2.45,62.35l0.1,6.4
		c0,3.633-0.083,6.149-0.25,7.55C80.917,255.417,80.5,257.333,79.8,260.2z M104,216.75c-0.1,0.6-0.1,0.267,0-1
		C104,216.083,104,216.417,104,216.75z"/>
	<path style="fill-rule:evenodd;clip-rule:evenodd;fill:#B3AA9E;" d="M104,213.85c0-16.633-0.134-27.833-0.4-33.6
		c0.167-2.634,0.467-11.5,0.9-26.6c0.5-17.734,0.85-29.4,1.05-35c0.101-0.6,0.15-1.833,0.15-3.7c0.066-1.833,0.434-3.784,1.1-5.85
		c2.967,50.333,4.167,89.667,3.601,118c-0.167-0.366-0.351-1.066-0.551-2.1c-0.199-0.967-0.316-1.667-0.35-2.1l-0.05-0.95
		c0,4.666,0.233,8.3,0.7,10.899c-0.2,2.534-0.534,4.667-1,6.4c-0.534,0.267-1,0.45-1.4,0.55h-0.05L107.1,237
		c-0.533-3.467-1-5.65-1.399-6.55c-0.033-1.033-0.134-2.267-0.3-3.7c-0.2-1.467-0.417-2.566-0.65-3.3
		c-0.2-2.233-0.45-4.467-0.75-6.7c0-0.333,0-0.667,0-1v-0.5C104.033,214.75,104.033,214.283,104,213.85z M63.15,237.35
		c3.667,12.801,5.833,21.317,6.5,25.551c0.767,4.933,1.233,13.8,1.399,26.6l-6.65,0.15c0-0.934,0-1.867,0-2.801V270.2
		c0-1.3-0.066-3.2-0.2-5.7c-0.133-6.9-0.317-12.75-0.55-17.55l-0.8-9.25L63.15,237.35z M73.55,30.3
		c-1.833,0.434-2.95,0.383-3.35-0.15c-0.4-0.566-0.967-3.917-1.7-10.05c-0.467,4.2-0.75,6.5-0.85,6.9c-0.2-0.3-0.45-2.133-0.75-5.5
		c-0.133-3.733-0.25-5.6-0.35-5.6l0.8-0.1l5.45-0.1c0,0.066,0,0.117,0,0.15c0.2,2.7,0.351,4.8,0.45,6.3
		C73.417,24.883,73.517,27.6,73.55,30.3z M92.95,38.1c0.066,5.1,0.399,10.733,1,16.9c0.033,0.367-0.033,2.267-0.2,5.7
		c0-0.934-0.2-3.767-0.6-8.5c-0.4-4.6-0.584-7.434-0.551-8.5c0.067-1.934-0.533-3.1-1.8-3.5c-2.033-0.667-3.767-2.117-5.2-4.35
		l-0.1-5.1c0.033,0.033,1.217,1.7,3.55,5C90.116,37.25,91.417,38.033,92.95,38.1z M95,52.05c0-1.867,0.2-6.517,0.6-13.95
		c1.434-0.2,2.784-0.617,4.051-1.25l0.6,0.8c-0.533,3.567-0.866,7.25-1,11.05C98.884,50.733,97.467,51.85,95,52.05z M117.7,203.4
		l0.05,19.399c-0.467,2.834-1.017,4.934-1.65,6.3c0.067-1.767-0.166-4.433-0.699-8c0.1-1.833,0.116-3.916,0.05-6.25
		c-0.066-2.933,0.283-13.1,1.05-30.5L117.7,203.4z M98.8,69.25c0.9,0.733,1.55,1.7,1.95,2.9c0.267,0.733,0.4,1.4,0.4,2
		c0,2.233-0.801,4.05-2.4,5.45c-1.1,1-1.967,1.5-2.6,1.5c-0.334,0-0.817-0.133-1.45-0.4c-0.634-0.3-1.117-0.45-1.45-0.45
		c-3.167,0-4.9,13.867-5.2,41.6c-0.133,14.867-0.133,34.733,0,59.6l-0.2,0.75l-0.35,0.7c-0.533-14.434-1.517-30.067-2.95-46.9
		c-0.967-11.733-1.45-25.967-1.45-42.7l0.051-6.2c0.066,0.3,0.267,2.9,0.6,7.8c0.467,5.9,1.116,11.483,1.95,16.75
		c0.366-0.467,0.55-1.833,0.55-4.1c-0.134-2.333-0.233-13.85-0.3-34.55l0.399-0.45c0.334-0.333,0.7-0.5,1.101-0.5
		c0.333,0,0.95,0.45,1.85,1.35c0.9,0.867,1.684,1.283,2.351,1.25c0.466-0.033,1.066,0.35,1.8,1.15c0.833,0.867,1.517,1.367,2.05,1.5
		c1.167-0.667,1.75-1.95,1.75-3.85C97.25,71.45,97.767,70.05,98.8,69.25z M77.05,158.75c-0.3,0.566-0.7,1.083-1.2,1.55l-2.85-10
		l0.5,8.5l-0.95,1.55c0.033-3.8,0.033-6.716,0-8.75l-0.1-3.5c-0.267-8.233-0.55-17.184-0.851-26.85
		c-0.6-19.433-0.949-35.467-1.05-48.1l7.4,0.8c1.233,0.8,1.85,1.633,1.85,2.5c0,0.1-0.983,1.4-2.95,3.9
		c-1.966,2.467-2.949,4.283-2.949,5.45c0,0.667,0.033,2.5,0.1,5.5c0.167,0.1,0.467,0.067,0.9-0.1c0.566-0.2,1-0.3,1.3-0.3
		c0.666,0,1.033,0.033,1.1,0.1c0.9,5.867,1.351,9.817,1.351,11.85c0,2-0.067,8.667-0.2,20c0.033,7.167,0.184,14.55,0.45,22.15
		c0,1.733-0.101,3.45-0.301,5.15c-0.066,0.367-0.433,2.783-1.1,7.25l-0.35-5.4L77.05,158.75z M71.2,67.15l-0.65,0.3l-0.05-8
		l-0.2,2.85c-0.066-9.3-0.333-19.017-0.8-29.15l1.95,0.2c0.5,0,0.934-0.05,1.3-0.15c0.566-0.133,1.717-0.5,3.45-1.1
		c0.666,0.033,1.467,0.133,2.399,0.3c0.9,0.133,1.551,0.283,1.95,0.45c0,1.9-0.316,3.417-0.95,4.55c-0.6-0.367-1.433-0.55-2.5-0.55
		c-2.666,0-4.416,2.75-5.25,8.25C71.283,49.1,71.066,56.45,71.2,67.15z M66.45,37.95c-0.3-0.2-0.9-0.467-1.8-0.8
		c-1.033-0.4-1.667-0.617-1.9-0.65c0-0.467,0.267-1.65,0.8-3.55l3.55-0.2l-0.6,5.2H66.45z M69.85,199.15
		c0.2-1.567,0.434-4.817,0.7-9.75c0.667-2.867,1.184-7.334,1.55-13.4c0.267-4.533,0.4-8.566,0.4-12.1
		c0.533,2.066,1.283,5.383,2.25,9.949c1.134,5.301,1.7,8.45,1.7,9.45c0.033,1.367,0.149,3.134,0.35,5.3
		c0.2,2.233,0.3,3.667,0.3,4.301c0.233,6.433,0.417,18.033,0.551,34.8c0,3.866-0.084,6.916-0.25,9.149
		c-0.2,2.567-0.584,5.45-1.15,8.65l-1.05-9.3l-0.8-8.5l-0.5,4.149c-0.534-2.699-1.483-8.033-2.851-16
		c-0.833-5-1.483-8.066-1.95-9.199L69.85,199.15z"/>
	<path style="fill-rule:evenodd;clip-rule:evenodd;fill:#BFB6AC;" d="M56.3,281.4c-1.767,0.399-2.716,0.616-2.85,0.649
		c-0.2,0.066-0.817,0.3-1.85,0.7c-1.033,0.434-1.684,0.717-1.95,0.85c0.533-0.366,0.85-0.6,0.95-0.699
		c0.267-0.267,0.633-0.717,1.1-1.351c0.167-0.6,0.7-2.017,1.6-4.25c0.4-1.133,0.617-2.166,0.65-3.1L54,274.6c0,0.134,0,0.25,0,0.351
		c1.533-6.367,2.067-9.434,1.6-9.2c0.767-0.934,1.15-1.983,1.15-3.15c0-7.8-0.083-13.783-0.25-17.949
		c-0.333-9.834-1.117-18.75-2.35-26.75l-0.1,11.149c-1.267-3.866-1.933-5.899-2-6.1l-0.45-2.9l-0.7,0.8
		c-0.033-0.233-0.5-8.149-1.4-23.75c-0.9-15.666-1.717-25.933-2.45-30.8l0.65,3.7l-0.2-37.65c1.233-8.367,2.267-15.883,3.1-22.55
		c0.733-6.133,1.133-9.383,1.2-9.75c0.333-2.1,0.784-7.6,1.35-16.5c0.367-6.133,1.2-10.617,2.5-13.45
		c0.267-0.567,0.617-3.017,1.05-7.35c0.466-4.5,0.7-7.967,0.7-10.4c0-4.133-0.05-7.083-0.15-8.85c-0.1-1.9-0.433-5.85-1-11.85
		c0.333-1.833,0.65-4.433,0.95-7.8c0.5,1.533,0.75,3.35,0.75,5.45L57.3,78.9c-0.033,5.367,0.117,11.483,0.45,18.35
		c0.067,1.067-0.183,2.7-0.75,4.9c-0.567,2.3-0.85,3.667-0.85,4.1s0.317,3.567,0.95,9.4c0.667,5.934,1.017,9.867,1.05,11.8L58,135
		c0,7.033,0.1,13.083,0.3,18.15c0.767,20.5,1.333,36.283,1.7,47.35c0.067,5.467,0.2,11.333,0.4,17.6
		c0.2,8.067,0.367,12.317,0.5,12.75l-0.05-4.25l0.1,2.45c0.1,1.7,0.216,2.767,0.35,3.2l0.3,1.05c0.467,0.8,0.933,1.467,1.4,2
		c0.567-0.733,0.95-1.366,1.15-1.899c0.267-0.867,0.4-4.017,0.4-9.45c0-4.5-0.333-14.25-1-29.25c-0.767-16.334-1.367-24.5-1.8-24.5
		c-0.2,0-0.5-5.117-0.9-15.351c-0.367-7.766-0.6-14.216-0.7-19.35c0.133,3.533,0.367,7.7,0.7,12.5
		c0.467,6.667,0.717,10.417,0.75,11.25c0.1-16.533,0.15-39.933,0.15-70.2c0.267,1.633,0.4,3.333,0.4,5.1
		c0,2.167,0.367,6.25,1.1,12.25c0.467-3.633,0.65-7.6,0.55-11.9c-0.1-3.267,0.717-9.9,2.45-19.9l0.3,2
		c0.733,6.433,1.1,10.417,1.1,11.95c0,5-0.65,15.35-1.95,31.05c-1.3,15.733-1.95,30.467-1.95,44.2c0,2.834,0.183,4.867,0.55,6.101
		c0.4,1.333,1.217,2.6,2.45,3.8c0.3,0.434,0.7,0.916,1.2,1.45c0.467,0.633,1.05,1.583,1.75,2.85l0.149,21.15l-0.75,7.5
		c-0.5,2.199-0.783,4.949-0.85,8.25c-0.066,1.833-0.116,4.55-0.15,8.149c-0.3,6.367-1.95,11.134-4.95,14.3l-0.3,0.351l-0.45,0.7
		c-0.667,2.899-1.1,6.85-1.3,11.85c-0.1,2.866-0.2,7.217-0.3,13.05C60.467,273.6,58.967,279.634,56.3,281.4z M41.9,295.8
		l-1.45,8.851c-0.3,0.033-0.617,0.05-0.95,0.05c0.267-8.667,0.5-19.134,0.7-31.4c0.167-9.7,0.25-15.35,0.25-16.95
		c0-3-0.15-6.566-0.45-10.699c-1.167,6.166-1.9,16.25-2.2,30.25c-0.1,4.633-0.167,9.483-0.2,14.55c-0.6-0.8-2.033-1.75-4.3-2.851
		c0.6-3.133,1.067-6.767,1.4-10.899c0.233-3.167,0.35-5.867,0.35-8.101c0-2.633-0.1-5.133-0.3-7.5l-0.15,0.351
		c-1.867,1.866-3.017,4.566-3.45,8.1c-0.133,1.167-0.233,2.334-0.3,3.5c0.2-7.7-0.267-15-1.4-21.899
		c-1.767-8.834-3.133-16.45-4.1-22.851l-0.45,1.851l-0.6,5.8l-0.2,1c-1,5.166-1.733,8.633-2.2,10.399
		c-0.167,0.567-0.883,2.717-2.15,6.45c-0.233,0.7-0.617,3.384-1.15,8.05c-0.833,5.334-2.05,10.117-3.65,14.351
		c0.466-5.9,0.7-11.75,0.7-17.55c-0.233-2.101-0.417-3.934-0.55-5.5c-0.267-2.967-0.2-5.483,0.2-7.551
		c0.333-1.6,1.55-6.25,3.65-13.949c2.033-7.367,3.133-11.617,3.3-12.75l0.1,1c1.133,10.533,1.717,16.216,1.75,17.05l0.95-9.5
		l0.1-2.25c0.167-1.7,0.45-3.316,0.85-4.851c0.467-1.767,0.783-3.233,0.95-4.399c0.9-6.3,1.517-16.517,1.85-30.65
		c0.3-13.366,0.45-20.083,0.45-20.149c2.133-8.534,3.383-13.117,3.75-13.75c0.567-0.9,1.45-1.533,2.65-1.9
		c0.667-0.2,2.434-0.517,5.3-0.95c1.833,10.601,3.183,21.25,4.05,31.95c0.733,9.033,1.05,16.717,0.95,23.05
		c-0.333,15.2,0.216,25.95,1.65,32.25c0.867,3.834,2.566,8.917,5.1,15.25l0.1,0.351c0.934,3.866,1.4,6.633,1.4,8.3L54,266
		c-0.033-1.167-0.1-2.434-0.2-3.8l-0.35,3.05l-0.7-2.4c-0.1,1.233-0.417,3.117-0.95,5.65c-0.6,2.733-1.066,5.616-1.4,8.65
		c-0.1,0.6-0.5,2.983-1.2,7.149c-0.067,0.2-0.2,0.767-0.4,1.7c-0.233,1.1-0.35,1.866-0.35,2.3l0.1,2.95l-0.45,9
		c0.3-0.566,0.533-1.1,0.7-1.6c0,1.666-0.933,3.1-2.8,4.3c-0.9,0.533-1.883,0.967-2.95,1.3c1.4-1.033,2.233-2.816,2.5-5.35
		c-0.133-4.367-0.2-7.101-0.2-8.2c0-1.867-0.167-4.267-0.5-7.2l-1.2,4.4c0.467-11,0.45-19.117-0.05-24.351
		c-0.9-6.066-1.684-11.733-2.35-17L41.05,293c0,0.5,0.1,1.066,0.3,1.7C41.55,295.333,41.733,295.7,41.9,295.8z M21.15,289.2
		c0.267-0.601,0.633-1.9,1.1-3.9c0.167-0.767,0.333-1.45,0.5-2.05c-0.233,1.533-0.3,3.15-0.2,4.85l1.2-0.199
		C23.317,288,22.45,288.434,21.15,289.2z M1.7,49.3c-0.1-0.333-0.184-0.633-0.25-0.9c0.066,0.2,0.117,0.35,0.15,0.45L0.05,39v-0.05
		L1.7,49.3z M0.8,45.95c-0.1-0.233-0.167-0.417-0.2-0.55c-0.2-0.7-0.367-1.55-0.5-2.55C0.233,43.583,0.467,44.617,0.8,45.95z
		 M60.45,67.9v-2.7l-1.1,17.65c0-3.3,0.083-6.15,0.25-8.55l0.2-2.55l-0.45,1.7V69.8l0.25,2.45c0-0.033,0.433-4.783,1.3-14.25
		c0.533-5.7,1.2-9.433,2-11.2l1,10.8c-0.733,0.566-1.383,1.7-1.95,3.4C61.483,62.533,60.983,64.833,60.45,67.9z M8.9,0.3l0.05,80.95
		c-0.267,18.333-0.517,28.933-0.75,31.8c-0.233,2.9-0.367,5.067-0.4,6.5l0.3-1.95c1.1-10.667,1.883-18.317,2.35-22.95
		c0.767-7.933,1.083-15.183,0.95-21.75c0.567-8.367,0.983-15.083,1.25-20.15c0.467-8.733,1.017-22.8,1.65-42.2l0.65-1.45
		c0.033,1.267,0.017,5.8-0.05,13.6c-0.066,6.767,0,12.233,0.2,16.4c0.233,4.867,0.683,9.033,1.35,12.5
		c0.566,2.967,0.85,5.45,0.85,7.45c0,0.3-0.267,1.284-0.8,2.95c-0.6,1.933-1.05,5.783-1.35,11.55l-0.1,27.05
		c-4.667,18.767-7.283,28.733-7.85,29.9l-0.15-1c-0.1-1.4-0.1-4.467,0-9.2V60.85c0.5-1.733,0.367-3.517-0.4-5.35
		c-0.767-1.767-1.833-2.85-3.2-3.25c-0.034-2.4-0.05-3.933-0.05-4.6c0-3.4,0.15-10.933,0.45-22.6c0.333-13,0.633-20.667,0.9-23
		c0.533-0.5,1.133-0.883,1.8-1.15C7.15,0.667,7.933,0.467,8.9,0.3z M29.85,8.95C29.517,9.017,29.033,8.9,28.4,8.6
		c-0.633-0.3-1.2-0.684-1.7-1.15C27.633,8.25,28.683,8.75,29.85,8.95z M24.8,101.3l0.05-19.2l3.45,13.1l-0.05-9.9
		c0.4,1.034,0.9,1.867,1.5,2.5l0.65,0.5c0.067-1.466,0.05-5.367-0.05-11.7c-0.1-6.067-0.05-10.533,0.15-13.4
		c0.067-0.934,0.317-2.15,0.75-3.65c0.4-1.367,0.6-2.633,0.6-3.8c0-0.333-0.117-1.15-0.35-2.45c-0.267-1.3-0.4-2.117-0.4-2.45
		c0.667-20.5,1.017-33.15,1.05-37.95c0.333,7.733,0.85,20.883,1.55,39.45c1.233-2.167,1.867-8.667,1.9-19.5
		c0.033-5.9-0.083-13.917-0.35-24.05c1.467,0,2.717,0.6,3.75,1.8c1.033,1.2,1.55,2.65,1.55,4.35L40.3,26.9
		c0,1.167,0.05,3.217,0.15,6.15c0.167,3.934,0.35,6.883,0.55,8.85l1-4.2c0.033,0.1,0.167,0.367,0.4,0.8
		c0.1,0.267,0.184,0.4,0.25,0.4c0.133,2.133,0.2,3.4,0.2,3.8c0,7.267-0.817,23.633-2.45,49.1c-0.233,3.833-0.767,6.184-1.6,7.05
		c-1.8,1.267-3.733,3.117-5.8,5.55l-3.65-0.15c-0.5-0.133-1.233-0.483-2.2-1.05C26.05,102.533,25.267,101.9,24.8,101.3z M62.75,36.5
		l-0.1,4.4c-0.033-0.233-0.117-0.917-0.25-2.05c-0.167-1.367-0.267-2.367-0.3-3V34.4c-0.067,0.733-0.184,1.817-0.35,3.25
		c-0.133,1.167-0.283,1.934-0.45,2.3l-0.4,0.1c-0.5-0.6-0.883-1.483-1.15-2.65c-0.2-0.8-0.3-1.433-0.3-1.9
		c0-5.2,0.417-10.817,1.25-16.85C61.567,12.483,62,9.333,62,9.2l0.4,0.2c0.333,2.333,0.667,5.3,1,8.9
		c0.267,2.7,0.583,4.917,0.95,6.65C64.283,16.217,64.2,11.7,64.1,11.4c0.167,0.467,0.316,1,0.45,1.6
		c0.034,0.067,0.05,0.15,0.05,0.25l0.05,0.4L64.55,13c0.2,2.5,0.367,7.35,0.5,14.55c-0.133,1.1-0.333,2.034-0.6,2.8
		c-0.267,0.533-0.567,1.4-0.9,2.6C63.017,34.85,62.75,36.033,62.75,36.5z M62.75,44.8v-1.3l0.1,2.3L62.75,44.8z M24.3,79.05
		l-0.8,11.7l0.3-14l0.45,2.55L24.3,79.05z M27.8,24.75l0.15-1.95l1.25,49.85l-1,4.6L27.8,24.75z M59.5,103.1v-1.6
		c0.467-12.867,0.767-23.567,0.9-32.1l0.6-2.45c-0.033,0.6-0.2,6.45-0.5,17.55c-0.267,9.6-0.6,17.35-1,23.25V103.1z M50.2,75.2
		c0.167-10.534,0.316-16.35,0.45-17.45c0.033,1.6,0.133,3.633,0.3,6.1C51.017,66.483,50.767,70.267,50.2,75.2z M48.4,97l-0.7,27.7
		l-0.05-9.35l0.65-19v0.95L48.4,97z M28,140.4c0.2-6.333,0.417-11.033,0.65-14.1c0.367-5.4,1.45-8.7,3.25-9.9
		c1.133-0.767,2.15-1.617,3.05-2.55c0.6-0.6,1.25-1.017,1.95-1.25c1.2-0.367,2.067-0.8,2.6-1.3c0.733-0.7,1.183-1.75,1.35-3.15
		c0.333,0.133,0.617,0.283,0.85,0.45v11.1c-0.733,4.933-1.483,10.433-2.25,16.5c-0.633,3.6-1.75,5.4-3.35,5.4
		c-0.1,0-0.95-0.483-2.55-1.45c-0.333,0-0.667,0.133-1,0.4c-0.367,0.233-0.716,0.35-1.05,0.35S30,140.733,28,140.4z M47.5,132.35
		l-0.35,3.6v-2.25l0.55-8.1L47.5,132.35z M18.1,146.25c1.5,10.6,2.35,19.816,2.55,27.65c0.067,4,0,7.25-0.2,9.75
		c0.1,6.366,0.417,14.017,0.95,22.949c0,1.567-2.983,13.784-8.95,36.65c-0.567-0.233-1.217-0.667-1.95-1.3l0.15-18.4L9,240.35
		c-0.867-1.133-1.3-2.233-1.3-3.3c0.966-5.399,1.45-8.416,1.45-9.05L8.4,200.3c0-6.399,0.3-10.85,0.9-13.35
		c0.567-2.5,0.85-3.867,0.85-4.101c-0.3-17.033-0.383-26.466-0.25-28.3c0.067-0.934,0.383-1.966,0.95-3.1
		c1-2.034,1.933-4.284,2.8-6.75c0.833-2.367,1.383-6.067,1.65-11.1c-0.033,2.533-0.05,5.533-0.05,9l-0.1,3.55
		c-0.3,4.133-0.717,7.433-1.25,9.9c-0.467,2.066-0.7,3.617-0.7,4.65c0.033,0.5,0.216,0.45,0.55-0.15
		c0.267-0.666,0.767-2.967,1.5-6.899c0.667-3.833,1-6,1-6.5l0.7-2.2c0.033,1.167-0.95,9.133-2.95,23.899
		c-1.833,18.134-2.3,36.267-1.4,54.4c0.9,0.5,1.6,1.566,2.1,3.2c0.233,0.833,0.483,2.116,0.75,3.85
		c0.533-7.267,1.133-21.149,1.8-41.649c0.6-18.301,0.9-29.45,0.9-33.45L18.1,146.25z M25.1,183.25l0.05,2l-0.05-0.8V183.25z
		 M25.15,245.75c0.5,4.233,0.783,7.25,0.85,9.05l-0.45,3.75C25.55,254.483,25.417,250.217,25.15,245.75z M53.95,276.2
		c0-0.033,0-0.066,0-0.101c-0.067-0.767-0.1-0.949-0.1-0.55c-0.033,0.233-0.1,2.367-0.2,6.4L53.95,276.2z"/>
	<path style="fill-rule:evenodd;clip-rule:evenodd;fill:#A79E94;" d="M40.45,304.65l1.45-8.851c0.5-0.467,0.867-1.2,1.1-2.2
		c0.333-1.199,0.55-3.1,0.65-5.699l1.2-4.4c0.333,2.934,0.5,5.333,0.5,7.2c0,1.1,0.066,3.833,0.2,8.2
		c-0.267,2.533-1.1,4.316-2.5,5.35c-0.733,0.5-1.633,0.8-2.7,0.9L40.45,304.65z M37.6,290.45c0.033-5.066,0.1-9.917,0.2-14.55
		c0.3-14,1.034-24.084,2.2-30.25c0.3,4.133,0.45,7.699,0.45,10.699c0,1.601-0.083,7.25-0.25,16.95
		c-0.2,12.267-0.434,22.733-0.7,31.4c0,0.066,0,0.133,0,0.2l-0.3-0.2c-0.4-0.334-0.8-1.267-1.2-2.8c-0.333-1.301-0.5-2.25-0.5-2.851
		c0.367-4.434,0.5-7.066,0.4-7.899C37.867,290.917,37.767,290.684,37.6,290.45z M16.1,298.6c0.733-2.533,1.283-4.5,1.65-5.899
		c0.667-2.5,1.067-4.4,1.2-5.7c0,4.733-0.05,8.184-0.15,10.35c0,0.067,0,0.15,0,0.25c-0.333,0.301-0.683,0.567-1.05,0.801H17.7
		C17.067,298.533,16.533,298.6,16.1,298.6z M25.15,245.75c0.267,4.467,0.4,8.733,0.4,12.8c-0.167,0.934-1.95,7.05-5.35,18.351
		c-3.333,11.1-5.25,18.116-5.75,21.05c-0.967-0.8-1.65-1.9-2.05-3.3c-0.333-1.134-0.5-2.601-0.5-4.4c0.533-1.5,1.083-3.434,1.65-5.8
		c0.733-3.134,1.2-5.884,1.4-8.25c1.6-4.233,2.816-9.017,3.65-14.351c0.533-4.666,0.917-7.35,1.15-8.05
		c1.267-3.733,1.983-5.883,2.15-6.45c0.467-1.767,1.2-5.233,2.2-10.399l0.2-1L25.15,245.75z M8.9,0.3V0.25L9.3,0.2L9.25,5.8L9.7,0.2
		V0.15L12.4,0v0.05c-0.233,4.2-0.8,12.4-1.7,24.6c-0.467,6.1-0.7,11.633-0.7,16.6l0.1,44.95l1.3-13.3
		c0.133,6.567-0.183,13.817-0.95,21.75C9.983,99.283,9.2,106.933,8.1,117.6l-0.3,1.95c0.034-1.433,0.167-3.6,0.4-6.5
		c0.233-2.867,0.483-13.466,0.75-31.8L8.9,0.3z M26.4,6.85l0.2,0.4c-0.567,12.933-1.133,22.933-1.7,30
		c-0.267,3.567-0.4,7.617-0.4,12.15c0,2.133,0.083,6.033,0.25,11.7c0,5.6-0.317,10.816-0.95,15.65l-0.3,14
		c-0.2,4.067-0.583,10.683-1.15,19.85c-0.467,8.066-0.7,14.2-0.7,18.4c0,4.933,0.217,10.217,0.65,15.85
		c0.9,11.766,1.817,26.083,2.75,42.95l0.05-3.35l0.05,0.8v1.35c0.033,21.767,0.033,34.634,0,38.601l-0.1,2.25
		c-1.167-9.033-2.1-16.884-2.8-23.55l-0.15,0.5c-0.1-0.801-0.317-3.167-0.65-7.101c-0.4-4.767-0.733-9.316-1-13.649
		c0.2-2.5,0.267-5.75,0.2-9.75c-0.2-7.834-1.05-17.051-2.55-27.65l-0.3-1.95l-0.85,0.65l-0.7,2.2c0.367-4.3,0.667-7.883,0.9-10.75
		v-16.6c-0.933,5-1.566,12.6-1.9,22.8c0-3.467,0.017-6.467,0.05-9c0.034-2.833,0.05-5.117,0.05-6.85c0-2.7,0-5.533,0-8.5
		c-0.233-8.133-0.317-13.767-0.25-16.9v-0.95l-0.05,0.2l0.1-27.05c0.3-5.767,0.75-9.617,1.35-11.55c0.533-1.667,0.8-2.65,0.8-2.95
		c0-2-0.283-4.483-0.85-7.45c-0.667-3.467-1.117-7.633-1.35-12.5c-0.2-4.167-0.267-9.633-0.2-16.4c0.067-7.8,0.083-12.333,0.05-13.6
		l-0.65,1.45L14.5,0l0.35,0.05c0.933,0,2.517,0.067,4.75,0.2l1.75-0.15L20.8,19.7c0.434,23.533,0.65,42.05,0.65,55.55v1.8
		c0.9-12.066,1.633-22.05,2.2-29.95C24.717,32.567,25.633,19.15,26.4,6.85z M60.45,67.9c0.533-3.066,1.033-5.367,1.5-6.9
		c0.566-1.7,1.216-2.833,1.95-3.4l0.45,3.55c-0.167,0.2-0.75,1.15-1.75,2.85c-1,1.733-1.533,2.717-1.6,2.95l-0.6,2.45L60.45,67.9z
		 M58.15,127.45c-0.033-1.934-0.383-5.867-1.05-11.8c-0.633-5.833-0.95-8.967-0.95-9.4s0.283-1.8,0.85-4.1
		c0.567-2.2,0.817-3.833,0.75-4.9c-0.333-6.867-0.483-12.983-0.45-18.35l0.65-49.6c0-2.1-0.25-3.917-0.75-5.45
		c0.433-5.067,0.716-10.2,0.85-15.4C59.717,8.517,61.033,8.767,62,9.2c0,0.133-0.433,3.283-1.3,9.45
		c-0.833,6.033-1.25,11.65-1.25,16.85c0,0.467,0.1,1.1,0.3,1.9c0.267,1.167,0.65,2.05,1.15,2.65l0.4-0.1
		c0.167-0.367,0.317-1.133,0.45-2.3c0.167-1.433,0.283-2.517,0.35-3.25v1.45c0.033,0.633,0.133,1.633,0.3,3
		c0.133,1.133,0.217,1.816,0.25,2.05l0.1,2.6v1.3l-1.35-0.1c-0.4-0.034-0.767,0.316-1.1,1.05c-0.233,0.467-0.433,1.75-0.6,3.85
		c-0.233,3.5-0.35,10.233-0.35,20.2v3.65l0.45-1.7l-0.2,2.55c-0.167,2.4-0.25,5.25-0.25,8.55c-0.833,13.267-1.233,21.85-1.2,25.75
		c0.033,2.167,0.1,4.65,0.2,7.45l0.05,1.15c0.2-0.467,0.4-1.784,0.6-3.95c0.233-2.7,0.4-6.083,0.5-10.15v4.65
		c-0.067,10.3-0.25,20.183-0.55,29.65L58.15,127.45z M42.9,20.2l-0.3,13.7l0.4-3.95c0.233,0,0.483-0.167,0.75-0.5
		c2.1,2.8,3.317,13.183,3.65,31.15l0.05,2.35c0.5-8.896,0.799-23.354,0.9-43.375V19.35c0.367-0.967,0.55-2.167,0.55-3.6l-0.1-2.65
		l0.05-0.1l0.45-3.45L51,9.4c-0.2,4.733-0.417,9.467-0.65,14.2c-0.434,9.533-0.65,18.566-0.65,27.1l0.05,7.05
		c0.6-2.1,1.167-4.1,1.7-6c1-3.633,2.383-9.167,4.15-16.6c-0.1,3.934-0.783,8.533-2.05,13.8c-1.133,4.767-2.1,7.7-2.9,8.8
		c-0.133,1.1-0.283,6.917-0.45,17.45c0.066,7.4,0.017,12.2-0.15,14.4c-0.2,2.133-0.75,4.6-1.65,7.4l-0.1,0.3v-0.95l0.05-2.1
		c0.033-1.367,0.1-7.75,0.2-19.15v-5.8c-1.1,23.233-2.3,40.45-3.6,51.65c-0.6,5.433-1.1,9.633-1.5,12.6l0.65,14.2
		c0.533,8.267,0.917,16.45,1.15,24.55c0.4,6.9,1.583,17.101,3.55,30.601c-0.767-18.233-1.417-30.851-1.95-37.851l0.2,1.25
		c0.733,4.867,1.55,15.134,2.45,30.8c0.9,15.601,1.367,23.517,1.4,23.75c-1.167,1.834-1.25,7.167-0.25,16
		c0.5,4.534,1.184,9.267,2.05,14.2c-2.534-6.333-4.233-11.416-5.1-15.25c-1.434-6.3-1.983-17.05-1.65-32.25
		c0.1-6.333-0.217-14.017-0.95-23.05c-0.867-10.7-2.217-21.35-4.05-31.95c-0.567-0.8-1.267-1.617-2.1-2.45
		c-1.2-1.2-2.133-1.8-2.8-1.8c-0.7,0-1.3,0.2-1.8,0.6c-0.533,0.4-1.417,0.6-2.65,0.6c-3,0-4.533,0-4.6,0
		c-0.567,0.033-1.167,0.2-1.8,0.5l-0.25-5.9c0.633,0.3,1.05,0.45,1.25,0.45c0.2,0,0.8-0.05,1.8-0.15c2,0.333,3.167,0.5,3.5,0.5
		s0.683-0.117,1.05-0.35c0.333-0.267,0.667-0.4,1-0.4c1.6,0.967,2.45,1.45,2.55,1.45c1.6,0,2.717-1.8,3.35-5.4
		c0.767-6.067,1.517-11.567,2.25-16.5v-11.1c-0.233-0.167-0.517-0.317-0.85-0.45c-1.333-0.267-3.517-0.483-6.55-0.65
		c-2.167-0.133-3.816-0.2-4.95-0.2c-0.967,0-2.483,0.934-4.55,2.8v-8.8c0.467,0.6,1.25,1.233,2.35,1.9
		c0.967,0.566,1.7,0.917,2.2,1.05c1.5,0.4,2.717,0.45,3.65,0.15c2.067-2.433,4-4.283,5.8-5.55c0.833-0.867,1.367-3.217,1.6-7.05
		c1.633-25.466,2.45-41.833,2.45-49.1c0-0.4-0.067-1.667-0.2-3.8c-0.066,0-0.15-0.133-0.25-0.4c-0.233-0.433-0.367-0.7-0.4-0.8
		l-1,4.2c-0.2-1.967-0.383-4.917-0.55-8.85c-0.1-2.933-0.15-4.983-0.15-6.15l0.25-11.95C40.717,16.483,41.5,18.233,42.9,20.2z
		 M45.65,21.45L45.3,26.6l-0.25,1.35c-0.1-0.333-0.333-1.534-0.7-3.6c-0.367-2.067-0.55-3.184-0.55-3.35l0.6,0.25
		C44.867,21.383,45.283,21.45,45.65,21.45z M52.15,9.2c-0.033,4.6-0.017,8.716,0.05,12.35c0,2.5-0.1,4.483-0.3,5.95
		c-0.133,0.467-0.3,0.767-0.5,0.9c-0.133-2.733-0.2-4.967-0.2-6.7c-0.034-3.067-0.067-7.184-0.1-12.35L52.15,9.2z M47.15,133.7
		l-0.7,8.3c-0.133-6.4,0.017-12.633,0.45-18.7c0.5-4.9,0.75-7.55,0.75-7.95l0.05,9.35v0.9L47.15,133.7z M64.1,11.4
		c0.1,0.3,0.183,4.817,0.25,13.55c-0.367-1.733-0.684-3.95-0.95-6.65c-0.333-3.6-0.667-6.566-1-8.9L63,10
		C63.433,10.467,63.8,10.933,64.1,11.4z M55.6,265.75c0.467-0.233-0.067,2.833-1.6,9.2c0-0.101,0-0.217,0-0.351l-0.05-0.399
		c-0.034,0.934-0.25,1.967-0.65,3.1c-0.9,2.233-1.433,3.65-1.6,4.25l0.05-8.1c-0.433,0.967-0.883,2.2-1.35,3.7
		c0.333-3.034,0.8-5.917,1.4-8.65c0.534-2.533,0.85-4.417,0.95-5.65l0.7,2.4h0.05c0.1,0.267,0.267,0.517,0.5,0.75l0.2-6.3
		c0-1.667-0.467-4.434-1.4-8.3l0.3,0.6c0.1-1.733,0.2-5,0.3-9.8c0.1-3.967,0.15-6.467,0.15-7.5c-0.8-6.834-1.3-10.75-1.5-11.75
		c0.067,0.2,0.733,2.233,2,6.1c0.034,0.566,0.233,4.867,0.6,12.9c0.3,6.833,0.45,11.116,0.45,12.85c0,2.867-0.117,6.684-0.35,11.45
		l0.3-0.05L55.6,265.75z M60,200.5l0.1-8.05l0.75,34.149c-0.2-4.767-0.35-7.6-0.45-8.5C60.2,211.833,60.067,205.967,60,200.5z
		 M10.5,241.95L9,240.35l1.65-16.8L10.5,241.95z"/>
	<path style="fill-rule:evenodd;clip-rule:evenodd;fill:#D9D1C5;" d="M26,254.8c-0.067-1.8-0.35-4.816-0.85-9.05l-0.85-9.8l0.6-5.8
		l0.45-1.851c0.967,6.4,2.333,14.017,4.1,22.851c1.133,6.899,1.6,14.199,1.4,21.899c0.066-1.166,0.167-2.333,0.3-3.5
		c0.434-3.533,1.583-6.233,3.45-8.1l0.15-0.351c0.2,2.367,0.3,4.867,0.3,7.5c0,2.233-0.117,4.934-0.35,8.101
		c-0.333,4.133-0.8,7.767-1.4,10.899l-1.35-0.1c-3.367,0.233-5.55,0.333-6.55,0.3l-1.6,0.101h-0.05l-1.2,0.199
		c-0.1-1.699-0.033-3.316,0.2-4.85c0.067-0.566,0.167-1.1,0.3-1.6c0.167-0.567,0.317-1.034,0.45-1.4
		c0.133-0.667,0.25-1.184,0.35-1.55c0.033-0.334,0.517-2.483,1.45-6.45c0.567-2.333,0.85-6.267,0.85-11.8L26,254.8z M0.05,38.95
		L0,38.85L0.05,39l1.55,9.85c-0.033-0.1-0.083-0.25-0.15-0.45c-0.067-0.2-0.15-0.45-0.25-0.75L1.1,47.2
		c-0.1-0.367-0.184-0.684-0.25-0.95l-0.05-0.3c-0.333-1.333-0.566-2.367-0.7-3.1c-0.1-1.434-0.133-2.767-0.1-4
		c0.367-2.233,0.833-7.567,1.4-16c0.667-9.967,1.1-15.967,1.3-18c0.4-0.967,0.867-1.767,1.4-2.4L4.75,1.8c0,0.067,0,0.15,0,0.25
		c-0.267,2.333-0.567,10-0.9,23c-0.3,11.667-0.45,19.2-0.45,22.6c0,0.667,0.017,2.2,0.05,4.6c1.367,0.4,2.433,1.483,3.2,3.25
		c0.767,1.833,0.9,3.617,0.4,5.35v59.45c-0.1,4.733-0.1,7.8,0,9.2l0.15,1c0.566-1.167,3.183-11.133,7.85-29.9l0.05-0.2v0.95
		c-0.067,3.133,0.017,8.767,0.25,16.9c0,2.967,0,5.8,0,8.5c0,1.733-0.017,4.017-0.05,6.85c-0.267,5.033-0.816,8.733-1.65,11.1
		c-0.867,2.466-1.8,4.716-2.8,6.75c-0.567,1.133-0.883,2.166-0.95,3.1c-0.133,1.834-0.05,11.267,0.25,28.3
		c0,0.233-0.283,1.601-0.85,4.101c-0.6,2.5-0.9,6.95-0.9,13.35L9.15,228c0,0.634-0.483,3.65-1.45,9.05c0,1.066,0.433,2.167,1.3,3.3
		l1.5,1.601c0.733,0.633,1.383,1.066,1.95,1.3c5.966-22.866,8.95-35.083,8.95-36.65c-0.533-8.933-0.85-16.583-0.95-22.949
		c0.267,4.333,0.6,8.883,1,13.649c0.333,3.934,0.55,6.3,0.65,7.101l0.15-0.5c0.7,6.666,1.633,14.517,2.8,23.55l-0.95,9.5
		c-0.033-0.834-0.617-6.517-1.75-17.05l-0.1-1c-0.167,1.133-1.267,5.383-3.3,12.75c-2.1,7.699-3.317,12.35-3.65,13.949
		c-0.4,2.067-0.466,4.584-0.2,7.551c0.133,1.566,0.316,3.399,0.55,5.5c0,5.8-0.233,11.649-0.7,17.55
		c-0.2,2.366-0.667,5.116-1.4,8.25c-0.566,2.366-1.117,4.3-1.65,5.8l0.75-36.05c0-3.867-0.933-6.033-2.8-6.5
		c-2.533,0.133-4.483,0.066-5.85-0.2l-0.2-9.9l0.75-35.8c0-2.399-0.183-5.684-0.55-9.85c-0.4-4.3-0.6-6.917-0.6-7.851v-63.55
		c1-27.566,0.434-51.316-1.7-71.25L0.05,38.95z M27.8,24.75l0.4,52.5l1-4.6L27.95,22.8L27.8,24.75z M24.3,79.05l-0.05,0.25
		l-0.45-2.55c0.633-4.833,0.95-10.05,0.95-15.65c-0.167-5.667-0.25-9.567-0.25-11.7c0-4.533,0.133-8.583,0.4-12.15
		c0.567-7.067,1.133-17.067,1.7-30l0.1,0.2c0.5,0.466,1.066,0.85,1.7,1.15c0.633,0.3,1.117,0.417,1.45,0.35
		c2.4-0.233,4.2-0.284,5.4-0.15c0.267,10.133,0.383,18.15,0.35,24.05c-0.033,10.833-0.667,17.333-1.9,19.5
		C33,33.783,32.483,20.633,32.15,12.9c-0.033,4.8-0.383,17.45-1.05,37.95c0,0.333,0.133,1.15,0.4,2.45
		c0.233,1.3,0.35,2.117,0.35,2.45c0,1.167-0.2,2.433-0.6,3.8c-0.433,1.5-0.683,2.717-0.75,3.65c-0.2,2.867-0.25,7.333-0.15,13.4
		c0.1,6.333,0.117,10.233,0.05,11.7l-0.65-0.5c-0.6-0.633-1.1-1.466-1.5-2.5l0.05,9.9l-3.45-13.1c0.367-9.3,0.617-16.817,0.75-22.55
		L24.3,79.05z M65.05,27.55c-0.133-7.2-0.3-12.05-0.5-14.55l0.1,0.65l0.1,0.5l0.15,1.9l0.05,0.8c0.133,1.967,0.2,5.217,0.2,9.75
		C65.117,26.933,65.083,27.25,65.05,27.55z M47.15,133.7v2.25l0.35-3.6l0.2-6.75v-0.9L48.4,97c0.9-2.8,1.45-5.267,1.65-7.4
		c0.167-2.2,0.217-7,0.15-14.4c0.566-4.934,0.816-8.717,0.75-11.35c-0.167-2.467-0.267-4.5-0.3-6.1c0.8-1.1,1.767-4.033,2.9-8.8
		c1.267-5.267,1.95-9.867,2.05-13.8l0.65-3.5c0.567,6,0.9,9.95,1,11.85c0.1,1.767,0.15,4.717,0.15,8.85c0,2.433-0.233,5.9-0.7,10.4
		c-0.434,4.333-0.784,6.783-1.05,7.35c-1.3,2.833-2.133,7.316-2.5,13.45c-0.566,8.9-1.017,14.4-1.35,16.5
		c-0.066,0.367-0.466,3.617-1.2,9.75c-0.833,6.667-1.867,14.184-3.1,22.55L47.7,170l-0.65-3.7l-0.2-1.25
		c-0.2-8.033-0.333-15.716-0.4-23.05L47.15,133.7z M58.15,127.45l0.8,9.95c0.3-9.467,0.483-19.35,0.55-29.65
		c0.4-5.9,0.733-13.65,1-23.25c0.3-11.1,0.467-16.95,0.5-17.55c0.067-0.233,0.6-1.217,1.6-2.95c1-1.7,1.583-2.65,1.75-2.85l1.3,9
		l0.45,3.3l0.15,1.15c-1.733,10-2.55,16.633-2.45,19.9c0.1,4.3-0.083,8.267-0.55,11.9c-0.733-6-1.1-10.083-1.1-12.25
		c0-1.767-0.133-3.467-0.4-5.1c0,30.267-0.05,53.667-0.15,70.2c-0.033-0.833-0.283-4.583-0.75-11.25
		c-0.333-4.8-0.567-8.967-0.7-12.5c0.1,5.133,0.333,11.583,0.7,19.35c0.4,10.233,0.7,15.351,0.9,15.351
		c0.433,0,1.033,8.166,1.8,24.5c0.667,15,1,24.75,1,29.25c0,5.434-0.133,8.583-0.4,9.45c-0.2,0.533-0.583,1.166-1.15,1.899
		c-0.467-0.533-0.933-1.2-1.4-2l-0.4-4.399l0.1,3.35c-0.133-0.434-0.25-1.5-0.35-3.2l-0.1-2.45l0.05,4.25
		c-0.133-0.433-0.3-4.683-0.5-12.75c0.1,0.9,0.25,3.733,0.45,8.5L60.1,192.45L60,200.5c-0.367-11.066-0.933-26.85-1.7-47.35
		C58.1,148.083,58,142.033,58,135L58.15,127.45z M55.6,265.75l-0.55,0.45l-0.3,0.05c0.233-4.767,0.35-8.583,0.35-11.45
		c0-1.733-0.15-6.017-0.45-12.85c-0.367-8.033-0.566-12.334-0.6-12.9l0.1-11.149c1.233,8,2.017,16.916,2.35,26.75
		c0.167,4.166,0.25,10.149,0.25,17.949C56.75,263.767,56.367,264.816,55.6,265.75z M62.9,46.8c-0.8,1.767-1.467,5.5-2,11.2
		c-0.867,9.467-1.3,14.217-1.3,14.25l-0.25-2.45c0-9.966,0.117-16.7,0.35-20.2c0.167-2.1,0.367-3.383,0.6-3.85
		c0.333-0.733,0.7-1.083,1.1-1.05l1.35,0.1l0.1,1L62.9,46.8z M24.95,140.1c-0.1-8.8-0.15-18.8-0.15-30
		c2.067-1.867,3.583-2.8,4.55-2.8c1.133,0,2.783,0.067,4.95,0.2c3.034,0.167,5.217,0.383,6.55,0.65c-0.167,1.4-0.617,2.45-1.35,3.15
		c-0.533,0.5-1.4,0.934-2.6,1.3c-0.7,0.233-1.35,0.65-1.95,1.25c-0.9,0.933-1.917,1.783-3.05,2.55c-1.8,1.2-2.883,4.5-3.25,9.9
		c-0.233,3.067-0.45,7.767-0.65,14.1c-1,0.1-1.6,0.15-1.8,0.15C26,140.55,25.583,140.4,24.95,140.1z M33,104.4
		c-0.933,0.3-2.15,0.25-3.65-0.15L33,104.4z M25.1,183.25c0.267-16.066,0.3-28.483,0.1-37.25c0.633-0.3,1.233-0.467,1.8-0.5
		c0.067,0,1.6,0,4.6,0c1.233,0,2.117-0.2,2.65-0.6c0.5-0.4,1.1-0.6,1.8-0.6c0.667,0,1.6,0.6,2.8,1.8
		c0.833,0.833,1.533,1.65,2.1,2.45c-2.867,0.434-4.633,0.75-5.3,0.95c-1.2,0.367-2.083,1-2.65,1.9
		c-0.367,0.633-1.617,5.216-3.75,13.75c0,0.066-0.15,6.783-0.45,20.149c-0.333,14.134-0.95,24.351-1.85,30.65
		c-0.167,1.166-0.483,2.633-0.95,4.399c-0.4,1.534-0.683,3.15-0.85,4.851c0.033-3.967,0.033-16.834,0-38.601v-1.35L25.1,183.25z
		 M18.1,146.25l0.05,8.95c0,4-0.3,15.149-0.9,33.45c-0.667,20.5-1.267,34.383-1.8,41.649c-0.267-1.733-0.517-3.017-0.75-3.85
		c-0.5-1.634-1.2-2.7-2.1-3.2c-0.9-18.134-0.434-36.267,1.4-54.4c2-14.767,2.983-22.733,2.95-23.899l0.85-0.65L18.1,146.25z
		 M70.55,189.4c-0.267,4.933-0.5,8.183-0.7,9.75L69.7,178C69.967,178.9,70.25,182.7,70.55,189.4z M53.95,276.2l-0.3,5.75
		c0.1-4.033,0.167-6.167,0.2-6.4c0-0.399,0.033-0.217,0.1,0.55C53.95,276.134,53.95,276.167,53.95,276.2z M41.9,295.8
		c-0.167-0.1-0.35-0.467-0.55-1.1c-0.2-0.634-0.3-1.2-0.3-1.7l0.2-46.45c0.667,5.267,1.45,10.934,2.35,17
		c0.5,5.233,0.517,13.351,0.05,24.351c-0.1,2.6-0.316,4.5-0.65,5.699C42.767,294.6,42.4,295.333,41.9,295.8z"/>
	<path style="fill-rule:evenodd;clip-rule:evenodd;fill:#7B756E;" d="M49.2,284.3c0.7-4.166,1.1-6.55,1.2-7.149
		c0.467-1.5,0.917-2.733,1.35-3.7l-0.05,8.1c-0.467,0.634-0.833,1.084-1.1,1.351c-0.1,0.1-0.417,0.333-0.95,0.699L49.2,284.3z
		 M48.8,298.65c-0.167,0.5-0.4,1.033-0.7,1.6l0.45-9C48.917,294.616,49,297.083,48.8,298.65z M22.75,283.25
		c-0.167,0.6-0.333,1.283-0.5,2.05c-0.467,2-0.833,3.3-1.1,3.9c-0.066,0.366-0.483,2.649-1.25,6.85c-0.3,0.566-0.667,1.084-1.1,1.55
		c0-0.1,0-0.183,0-0.25c0.1-2.166,0.15-5.616,0.15-10.35c-0.133,1.3-0.534,3.2-1.2,5.7c-0.367,1.399-0.917,3.366-1.65,5.899
		c-0.333,0-0.883-0.216-1.65-0.649c0.5-2.934,2.417-9.95,5.75-21.05c3.4-11.301,5.183-17.417,5.35-18.351L26,254.8l0.15,5.65
		c0,5.533-0.283,9.467-0.85,11.8c-0.933,3.967-1.417,6.116-1.45,6.45c-0.1,0.366-0.217,0.883-0.35,1.55
		c-0.133,0.366-0.283,0.833-0.45,1.4C22.917,282.15,22.817,282.684,22.75,283.25z M9.7,0.15V0.2L9.25,5.8L9.3,0.2L9.7,0.15z M12.4,0
		h2.1l-0.2,10.55c-0.633,19.4-1.183,33.467-1.65,42.2c-0.267,5.067-0.683,11.783-1.25,20.15l-1.3,13.3L10,41.25
		c0-4.967,0.233-10.5,0.7-16.6c0.9-12.2,1.466-20.4,1.7-24.6V0z M26.4,6.85c-0.767,12.3-1.683,25.717-2.75,40.25
		c-0.566,7.9-1.3,17.883-2.2,29.95v-1.8c0-13.5-0.217-32.017-0.65-55.55l0.55-19.6c2.9-0.1,4.55,0.816,4.95,2.75
		C26.167,5.05,26.2,6.383,26.4,6.85z M42.9,20.2l0.9,0.8c0,0.167,0.184,1.283,0.55,3.35c0.367,2.066,0.6,3.267,0.7,3.6l0.25-1.35
		l0.35-5.15c0.733,0,1.367-0.2,1.9-0.6c0.521-0.423,0.788-0.848,0.8-1.275c-0.101,20.021-0.4,34.479-0.9,43.375L47.4,60.6
		c-0.333-17.967-1.55-28.35-3.65-31.15c-0.267,0.333-0.517,0.5-0.75,0.5l-0.4,3.95L42.9,20.2z M58.05,8.45
		c-0.133,5.2-0.417,10.333-0.85,15.4c-0.3,3.367-0.617,5.967-0.95,7.8l-0.65,3.5c-1.767,7.434-3.15,12.967-4.15,16.6
		c-0.534,1.9-1.1,3.9-1.7,6L49.7,50.7c0-8.534,0.216-17.567,0.65-27.1c0.233-4.733,0.45-9.467,0.65-14.2l0.1-0.05
		c0.033,5.167,0.066,9.283,0.1,12.35c0,1.733,0.066,3.966,0.2,6.7c0.2-0.133,0.367-0.433,0.5-0.9c0.2-1.467,0.3-3.45,0.3-5.95
		c-0.067-3.633-0.083-7.75-0.05-12.35L58.05,8.45z M49.3,9.55L48.85,13l-0.05,0.1l-0.05-2.95L49.3,9.55z M52.8,251.4l-0.1-0.351
		c-0.867-4.934-1.55-9.666-2.05-14.2c-1-8.833-0.917-14.166,0.25-16l0.7-0.8l0.45,2.9c0.2,1,0.7,4.916,1.5,11.75
		c0,1.033-0.05,3.533-0.15,7.5c-0.1,4.8-0.2,8.066-0.3,9.8L52.8,251.4z M25.2,146c0.2,8.767,0.167,21.184-0.1,37.25v1.2l-0.05,3.35
		c-0.933-16.866-1.85-31.184-2.75-42.95c-0.433-5.633-0.65-10.917-0.65-15.85c0-4.2,0.233-10.333,0.7-18.4
		c0.566-9.167,0.95-15.783,1.15-19.85l0.8-11.7l1.3-19.5c-0.133,5.733-0.383,13.25-0.75,22.55l-0.05,19.2v8.8
		c0,11.2,0.05,21.2,0.15,30L25.2,146z M59.5,103.1c-0.1,4.066-0.267,7.45-0.5,10.15c-0.2,2.167-0.4,3.483-0.6,3.95l-0.05-1.15
		c-0.1-2.8-0.167-5.283-0.2-7.45c-0.033-3.9,0.367-12.483,1.2-25.75l1.1-17.65v2.7l-0.05,1.5c-0.133,8.533-0.433,19.233-0.9,32.1
		V103.1z M46.45,142c0.066,7.333,0.2,15.017,0.4,23.05c0.533,7,1.183,19.617,1.95,37.851c-1.966-13.5-3.15-23.7-3.55-30.601
		c-0.233-8.1-0.617-16.283-1.15-24.55l-0.65-14.2c0.4-2.966,0.9-7.167,1.5-12.6c1.3-11.2,2.5-28.417,3.6-51.65v5.8
		c-0.1,11.4-0.167,17.783-0.2,19.15l-0.05,2.1l-0.65,19c0,0.4-0.25,3.05-0.75,7.95C46.467,129.367,46.317,135.6,46.45,142z
		 M16.25,147.15c0,0.5-0.333,2.667-1,6.5c-0.733,3.933-1.233,6.233-1.5,6.899c-0.333,0.601-0.517,0.65-0.55,0.15
		c0-1.033,0.233-2.584,0.7-4.65c0.533-2.467,0.95-5.767,1.25-9.9l0.1-3.55c0.333-10.2,0.967-17.8,1.9-22.8v16.6
		C16.917,139.267,16.617,142.85,16.25,147.15z M61.6,233.3l-0.3-1.05l-0.1-3.35L61.6,233.3z M53.45,265.25l0.35-3.05
		c0.1,1.366,0.167,2.633,0.2,3.8c-0.233-0.233-0.4-0.483-0.5-0.75H53.45z"/>
	<path style="fill-rule:evenodd;clip-rule:evenodd;fill:#898074;" d="M113.75,233.85l0.15,4.5c0,1.467-0.301,2.601-0.9,3.4
		c-0.033,0.066-0.066,0.134-0.1,0.2c-1.667,0.733-2.983,0.967-3.95,0.7c-0.334-0.5-0.667-1.15-1-1.95l-0.25-0.9h0.05
		c0.4-0.1,0.866-0.283,1.4-0.55l1.399-1.25c0.967-0.866,1.733-1.533,2.3-2C112.95,235.866,113.25,235.15,113.75,233.85z
		 M101.95,223.25c0-0.667-0.467-1.233-1.4-1.7c-0.967-0.5-2.133-0.75-3.5-0.75c-0.1-2.767-0.383-5.2-0.85-7.3
		c-0.066-0.366-0.55-2.25-1.45-5.65c-0.066-0.199-0.116-0.383-0.15-0.55c-0.133-0.267-0.183-0.25-0.149,0.05
		c-0.4,5.2-0.767,13.601-1.101,25.2c-0.267,9.434-0.683,16.233-1.25,20.4c-0.066,0.666-0.649,4.533-1.75,11.6
		c0.067,2.5,0,4.117-0.199,4.851c-0.4,1.466-1.434,2.199-3.101,2.199c-0.6,0-1.166-0.316-1.7-0.949
		c-0.699-0.801-1.1-1.967-1.199-3.5l1.35-8.9l0.95-4.2c2.3-6.8,3.866-16.166,4.7-28.1c1-14.267,1.583-21.884,1.75-22.851
		c0.199-4.166,0.233-8.966,0.1-14.399c0.033-3.101,0.6-7.533,1.7-13.3c1.033-5.467,2-9.517,2.899-12.15l0.15-0.8
		c0.134,7.866,0.35,17.434,0.65,28.7c0.3,10.666,0.55,18.383,0.75,23.149c0.566-0.566,1.316-1.2,2.25-1.899
		c0.733-2,1.283-2.834,1.649-2.5c0.334,0.333,0.601,1.066,0.8,2.199c0.067,0.567,0.117,1.15,0.15,1.75c0.033,0.434,0.033,0.9,0,1.4
		v0.5c-0.1,1.267-0.1,1.6,0,1c0.3,2.233,0.55,4.467,0.75,6.7c-0.366-1-0.884-1.934-1.55-2.8l-0.7-0.7l-0.1,1.05
		C102.267,221.866,102.116,222.616,101.95,223.25z M64.4,286.85l-0.05,2.801l-0.3,0.1c-0.167-2.767-0.466-5.467-0.9-8.1
		c-0.6-3.733-1.05-6.851-1.35-9.351l-0.15-1.5l0.05,2.101c0,3.733-0.184,7.149-0.55,10.25c-0.233,1.733-0.566,3.949-1,6.649
		c-2.7-0.434-4.55-0.899-5.55-1.399c0.2-1.267,0.533-2.7,1-4.301c0.433-1.566,0.667-2.466,0.7-2.699
		c2.667-1.767,4.167-7.801,4.5-18.101c0.1-5.833,0.2-10.184,0.3-13.05c0.2-5,0.633-8.95,1.3-11.85c0.033,0.6,0.4,5.683,1.1,15.25
		c0.333,4.366,0.567,7.983,0.7,10.85c0.133,2.5,0.2,4.4,0.2,5.7V286.85z M119.6,190.1c0.567-0.933,1.167-1.783,1.801-2.55
		c-0.4,0.8-1.25,2.233-2.551,4.3L119.6,190.1z M77.65,252.25l2.149,7.95l0.75,2.7l-0.1,2.8c0,0.666,0.2,3.649,0.6,8.95l0.9-0.051
		l0.05,1.2c0,0.767-0.05,1.283-0.15,1.55c-0.233,0.601-0.783,0.9-1.649,0.9c-1.3,0-2.316-0.566-3.05-1.7
		c-0.767-1.2-1.15-2.916-1.15-5.149c0.267-5.667,0.333-12.067,0.2-19.2l0.95-1.9L77.65,252.25z M116.1,229.1
		c0.634-1.366,1.184-3.466,1.65-6.3l0.1,6.851c0,1.233-0.283,2.133-0.85,2.699c-0.566,0.534-1.55,0.817-2.95,0.851
		C114.283,232.967,114.967,231.6,116.1,229.1z"/>
</g>
</svg>
