<?xml version="1.0" encoding="iso-8859-1"?>
<!-- Generator: Adobe Illustrator 15.1.0, SVG Export Plug-In . SVG Version: 6.00 Build 0)  -->
<!DOCTYPE svg PUBLIC "-//W3C//DTD SVG 1.1//EN" "http://www.w3.org/Graphics/SVG/1.1/DTD/svg11.dtd">
<svg version="1.1" id="Layer_1" xmlns="http://www.w3.org/2000/svg" xmlns:xlink="http://www.w3.org/1999/xlink" x="0px" y="0px"
	 width="136.75px" height="305.3px" viewBox="0 0 136.75 305.3" style="enable-background:new 0 0 136.75 305.3;"
	 xml:space="preserve">
<g>
	<path style="fill-rule:evenodd;clip-rule:evenodd;fill:#8B8178;" d="M125.6,0.05c0.967,0.067,1.884,0.2,2.75,0.4V35L128,34.85
		c0.167-1.8-0.134-5.8-0.9-12C126.167,15.35,125.667,7.75,125.6,0.05z M135.15,27.05l-0.25-3.9l-0.15,0.25
		c-0.2,0.167-0.517,0.517-0.95,1.05l-0.149-12.9l0.649-5.1C134.467,9.883,134.75,16.75,135.15,27.05z M136.55,42.3l0.101,0.2
		l-0.051,0.45L136.55,42.3z M133.35,164.25l-0.149,3.5l0.149-7.6V164.25z M124.35,153.3c-0.066,11.167-0.216,27.9-0.449,50.2
		c0,0.667,0.3,2.483,0.899,5.45c1.134-13.934,1.75-23.184,1.851-27.75l0.6,0.899c1.533,2.534,2.366,5.067,2.5,7.601
		c0.134,2.633,0.333,4.2,0.6,4.7l0.2,3.75c-1.133,20.066-1.3,33.683-0.5,40.85c0.066,0.667,0.217,1.733,0.45,3.2l0.2,0.95
		c0.434-3.4,0.8-7.217,1.1-11.45c0.334-5.233,0.601-9.417,0.8-12.55l0.351,20.25l-0.25,8.1c-3.9,0.167-6.316,0.517-7.25,1.05
		c0.233-1.3,0.217-3.8-0.05-7.5l-0.5-5.149c0.066,3.966,0.233,8.199,0.5,12.699c-0.467,2.667-0.867,4.567-1.2,5.7
		c-0.134,0.334-0.167,0.834-0.101,1.5c0.467,5.267,0.7,16.783,0.7,34.55c0,1.9-0.184,3.367-0.55,4.4
		c-0.233,0.566-0.533,1.267-0.9,2.1c0.2-0.466-0.433-9.033-1.899-25.699l0.05-15.9c0.033-15.9-0.017-25.884-0.15-29.95
		c-0.033-0.6-0.3-4.666-0.8-12.2v1.45c-0.166,0-0.35,1.634-0.55,4.9l-1.3-7.601h-0.15c-0.3,3.301-0.583,10.217-0.85,20.75
		c0,7.233,0.267,14.351,0.8,21.351c0.634,8.267,1,14.45,1.1,18.55l-2.85-10.9c-0.366-8.066-0.616-13.183-0.75-15.35v-56.4l0.1-0.3
		c0.567,1.9,0.9,3.917,1,6.05c0.2,3.534,0.384,6.034,0.551,7.5c0.066-1.233,0.3-10.85,0.699-28.85c0.267-11.8,0.9-18.2,1.9-19.2
		c0.233,0.066,0.6,0.25,1.1,0.55c0.4,0.233,0.784,0.351,1.15,0.351C123.1,155.816,123.717,154.934,124.35,153.3z M102.45,143.6
		c0.3,3.1,0.633,5.15,1,6.15c0.366-0.333,0.8-0.833,1.3-1.5c0.533-0.733,0.816-1.233,0.85-1.5l0.45,1.2c0.2,1.3,0.3,2.233,0.3,2.8
		l0.95,26.05c0.066-1.899,0.3-6.649,0.7-14.25c0.2-3.934,0.2-6.8,0-8.6c-0.4-3.3,0.134-6.467,1.6-9.5
		c1.601-2.5,2.434-3.917,2.5-4.25c0.434,0.333,1.117,0.55,2.051,0.65c0.633,0.033,0.949,0.283,0.949,0.75c0,7.8-0.366,15.8-1.1,24
		c-0.366,4.267-0.8,8.617-1.3,13.051c-0.3,4.233-0.533,14.35-0.7,30.35c-0.333,14.434-1.283,22.733-2.85,24.9
		c-1.733-1.934-2.667-4.784-2.801-8.551v1.7c-0.533,2.7-0.533,4.95,0,6.75c0.5,1.8,1.434,2.851,2.801,3.15
		c1.699-0.8,2.783-3.533,3.25-8.2c0.199-5.3,0.366-8.75,0.5-10.35c0.233-2.801,1.25-12.317,3.05-28.551
		c-1.101,13.867-1.867,26.4-2.3,37.601c-0.233,5.6-0.351,9.816-0.351,12.649c-0.967,1.967-1.583,7.184-1.85,15.65
		c-0.101,3.267-0.15,9.3-0.15,18.1c0,0.7,0.05,2.284,0.15,4.75c0.133,2.801,0.25,4.7,0.35,5.7c-0.6,0.2-1.7,0.3-3.3,0.3
		c0.033-6.8-0.033-17.366-0.2-31.699l-1.149,34.5l-0.2,0.149c-1.4,0-2.816,0.066-4.25,0.2c-0.267,0.1-0.851,0.45-1.75,1.05
		c-0.867,0.634-1.417,1.066-1.65,1.3c0.367-0.666,0.717-1.149,1.05-1.449c0.534-0.434,1.317-0.733,2.351-0.9
		c-0.601-0.833-0.9-1.75-0.9-2.75c0.7-12.8,1.05-20.45,1.05-22.95c0-1.3-0.116-2.649-0.35-4.05l-0.5,1.15V246.2
		c-0.066,2.467-0.5,7.017-1.3,13.649c-1.101,9.4-1.667,14.334-1.7,14.801c0.6-8.9,0.95-14.417,1.05-16.551
		c0.167-3.1,0.25-6.483,0.25-10.149c0-4.2-0.316-7.95-0.95-11.25c-0.033-0.267-0.716-3.117-2.05-8.55l-0.25,6
		c-0.166-3.867-0.383-7.5-0.649-10.9c-0.233-3.1-0.4-5.316-0.5-6.65v51.9c0.233,13.467,0.35,23.95,0.35,31.45l1-0.2l-3,0.7
		l0.55-0.15l1.101-0.25V296c0-0.1-0.051-7.15-0.15-21.15c-0.1-10.066-0.967-17.733-2.6-23l-0.25,1.2
		c-0.167,3.2-0.367,10.233-0.601,21.101c-0.133,5.8-0.3,13.399-0.5,22.8c-0.467-6.167-0.616-18.25-0.45-36.25l-0.199,1.55
		c-0.167,0.767-0.75,2.8-1.75,6.1c-1.134,3.7-1.934,6-2.4,6.9c-0.4-11.566-0.7-19.134-0.9-22.7l-0.3,1.7
		c-0.233,1.233-0.35,2.05-0.35,2.45c0,0.333,0.05,2.566,0.149,6.7c0.067,5.1,0.101,10.316,0.101,15.649
		c-0.334,0.134-0.75,0.233-1.25,0.3L83.8,279.4c0.066-2.934,0.017-8.534-0.149-16.801c-0.301,0.934-0.584,0.534-0.851-1.199
		c0,1.899-0.184,3.85-0.55,5.85c-0.333,1.7-0.634,2.75-0.9,3.15c-0.199-0.534-0.383-0.917-0.55-1.15l-0.25-0.15
		c-0.166-2.066-0.267-4.866-0.3-8.399c-0.066-3.733-0.167-6.584-0.3-8.55c-0.167-2.634-0.65-5.75-1.45-9.351
		c-0.733-3.3-1.1-5.666-1.1-7.1c-0.233-6.033-0.367-12.217-0.4-18.55c-0.033-12.5,0.5-21.2,1.6-26.101
		c1.101,9.101,2.417,23.017,3.95,41.75l0.101-24.1l-0.95-23.95c0-0.066,0.133-1.434,0.399-4.1c0.267-2.4,0.351-3.967,0.25-4.7
		c-0.066-0.667-0.066-2.066,0-4.2c0.067-2.366,0.2-3.85,0.4-4.45c0.233-0.633,1.25-3.35,3.05-8.149c0.601-1.667,0.9-2.983,0.9-3.95
		c-0.3-5.5-0.4-9.667-0.3-12.5c0.133-4.333,1.216-12.8,3.25-25.4L89.5,120c0,1.033,0.767,2.917,2.3,5.65
		c1.566,2.733,2.367,4.867,2.4,6.4c0.066,2.133,0.083,5.233,0.05,9.3c-0.033,6.833-0.05,10.417-0.05,10.75
		c0.3,19.567,1.366,39,3.2,58.3l0.05-3.2c0.066-8.3,0.066-15.25,0-20.851l-0.101-2.05c0.2,1.5,0.45,4.25,0.75,8.25l0.7,6.601
		l-0.1-2.2l0.85,8.95c-0.033-22.967,0.184-38.983,0.65-48.051c0.5-5.667,0.8-10.133,0.899-13.399L102.45,143.6z M91.1,145.5h-0.05
		c-0.066,40.934-0.333,67.866-0.8,80.8c-0.233,0.5-0.467,2.066-0.7,4.7l0.2-0.35c0.066-0.233,0.583-1.25,1.55-3.051
		c0.8-1.466,1.2-2.517,1.2-3.149c0-21.367-0.1-35.884-0.3-43.55C91.8,171.167,91.434,159.366,91.1,145.5z M121.25,298.55l-0.05-0.05
		c-0.167-0.434-0.25-0.983-0.25-1.65l0.149-12.55c0.067,0.3,0.233,1.983,0.5,5.05c0.233,3.233,0.584,5.983,1.051,8.25
		C122.15,298.033,121.684,298.35,121.25,298.55z M116.1,292.45l1.601-0.75c-0.367,3.166-0.084,5.267,0.85,6.3
		c0.434,0.434,1.101,0.65,2,0.65c0.134,0,0.267,0,0.4,0c-0.267,0.066-0.5,0.1-0.7,0.1c-1.267,0-2.283-0.667-3.05-2
		C116.566,295.65,116.2,294.217,116.1,292.45z M111.85,287.85c1.101-0.033,2.017,0.167,2.75,0.601c0.267,0.2,0.634,0.55,1.101,1.05
		c-0.4-0.366-1.017-0.733-1.851-1.1C113.017,288.033,112.35,287.85,111.85,287.85z M113.3,265.45c0.101,8.2,0.15,12.717,0.15,13.55
		c-0.033,2.066-0.15,3.434-0.351,4.1C113.1,276.934,113.167,271.05,113.3,265.45z M88.15,291.8l-0.25,5.7l-0.051-1.4L88.15,291.8z
		 M102.75,8.7c0.934,0,2.483,0.083,4.65,0.25h-0.65v9.9c0.434,19.933,0.7,38.333,0.8,55.2l0.2-0.4
		c-0.134-3.933,0.316-6.45,1.35-7.55c0.601-0.6,1.617-1.317,3.051-2.15l0.899,0.25l0.05,7.1c-0.333,14-0.5,23.15-0.5,27.45
		l0.101,23.95l1.85-53.3h0.851c1.466,0.833,2.166,0.934,2.1,0.3c-0.066-0.934,0.116-1.4,0.55-1.4c1.967,0,3.233,0.167,3.8,0.5
		c0.334,0.2,0.634,0.45,0.9,0.75c0.233,0.267,0.833,0.95,1.8,2.05c0,0.333-0.05,5.467-0.149,15.4
		c-0.101,11.967-0.167,23.217-0.2,33.75c0,3.933-0.367,7.35-1.101,10.25c-0.666,2.5-1.449,4.15-2.35,4.95
		c-0.366-0.133-0.733-0.467-1.1-1c-0.534-0.867-0.817-1.317-0.851-1.35c-0.033,0.033-0.1,0.2-0.2,0.5
		c-0.066,0.167-0.3,0.25-0.699,0.25c-0.4,0-0.617-0.1-0.65-0.3l0.1-0.3c0.067-1.433,0.034-3.667-0.1-6.7h0.85l0.7-21.75
		c0-0.7-0.066-4.017-0.2-9.95c-0.166-6.4-0.3-10.617-0.399-12.65c-0.566,3.3-0.884,7.033-0.95,11.2c-0.033,3.7-0.033,14.75,0,33.15
		l-0.5-20.95l-0.15,6.05l0.051-9.05c-0.367,2.566-0.767,8.233-1.2,17c-0.434,8.9-0.667,13.5-0.7,13.8c-2,0.067-2.934-5.15-2.8-15.65
		c0.233-19.2,0.267-30.317,0.1-33.35c-0.5,12.367-0.967,20.483-1.399,24.35c-0.233,2.033-0.517,6.067-0.851,12.1
		c-0.533,5.3-1.55,8.7-3.05,10.2c-0.366-1.833-0.6-3.183-0.7-4.05c-0.233-1.933-0.35-4.517-0.35-7.75c0.2-3.267,0.366-6.033,0.5-8.3
		c0.066-1.233,0.1-9,0.1-23.3c0-13.5-0.017-21.617-0.05-24.35c-0.5-19.733-0.75-29.933-0.75-30.6l0.05-4.35
		c-1.233,18.9-1.85,29.25-1.85,31.05c0.033,2.633,0.017,4.45-0.05,5.45l-0.2,14.35c0.233,3.566,0.25,8.267,0.05,14.1
		c-0.167,1.667-0.283,3.9-0.35,6.7c-0.034,1.033-0.284,2.083-0.75,3.15l-0.65,0.25c0.467-2.533,0.667-4.733,0.6-6.6
		c-0.333,2.867-1.199,4.3-2.6,4.3c-0.4,0-0.684-0.067-0.85-0.2c-0.134-0.167-0.217-0.25-0.25-0.25c-0.167-0.933-0.25-1.733-0.25-2.4
		c0.267-13.933,0.449-27.5,0.55-40.7C98.717,63.317,98.267,69.4,97.6,76.3c-1.267,13.4-2.517,21.417-3.75,24.05
		c-0.033-2-0.116-3.783-0.25-5.35c-0.233-2.933-0.699-5.717-1.399-8.35c-0.601-2.333-1.884-5.316-3.851-8.95
		c-1.733-3.167-2.6-5.083-2.6-5.75c0.167-7,0.233-11.55,0.2-13.65c-0.066-3.1-0.55-5.466-1.45-7.1c-0.5-0.9-1.917-2.083-4.25-3.55
		c-2.2-1.4-3.384-2.4-3.55-3c-0.367-1.467-0.566-3.633-0.601-6.5c0.034-4.4,0.034-8.467,0-12.2l0.95-2.05
		c1.334-0.367,2.15-1.717,2.45-4.05c0.366-2.633,0.717-4.217,1.05-4.75c0.3-0.4,1.033-1.033,2.2-1.9c0.1,0.433,0.483,3.033,1.15,7.8
		l0.649,8.3l0.2-0.95c0.366-3.8,0.55-8.083,0.55-12.85c0-2.533-0.033-4.583-0.1-6.15L84.1,9.15L83.65,9.1
		C82.983,9,82.3,8.9,81.6,8.8C83,8.967,85.1,9.233,87.9,9.6l-2.15-0.2c0.066,1,0.5,5.067,1.3,12.2c0.5,4.633,0.717,9.7,0.65,15.2
		c-0.2,13.4,0.434,22.633,1.899,27.7c0.4,1.367,1,3.2,1.801,5.5c0.666,2.3,1.116,5.167,1.35,8.6l0.2-2.1
		c0.233-6.167,0.35-12.25,0.35-18.25L93.25,20.8c0.6-0.4,1.116-1.117,1.55-2.15c0.967-2.433,2.117-5.2,3.45-8.3L98.65,24
		c0.1-0.633,0.149-2.183,0.149-4.65c0.167-2.067,0.283-3.833,0.351-5.3c0.066-2.833,0.033-4.3-0.101-4.4l0.601-0.3l0.699,36.15
		c0.101-7.733,0.417-14.833,0.95-21.3C102.134,16.667,102.616,11.5,102.75,8.7z M111.4,0.45c0.3,7.5,0.416,14.533,0.35,21.1
		c-0.3-5.267-0.566-12.066-0.8-20.4L111.4,0.45z M117.8,60.1l-0.05-5.3c0-2.367,0.167-3.867,0.5-4.5
		c0.167-0.267,0.55-0.417,1.15-0.45c1.066-0.1,1.6-2.8,1.6-8.1c0-1.967-0.116-2.967-0.35-3c0,2.267-0.15,4.533-0.45,6.8
		c-0.066,0-0.2,0.233-0.4,0.7l-0.2,0.2c-0.333-2.167-0.566-4.284-0.699-6.35c-0.301-3.7-0.45-10.05-0.45-19.05
		c0.233-10.733,0.483-17.683,0.75-20.85L124.1,0c0.034,17.467,0.184,31.283,0.45,41.45c-0.033,0-0.083,0-0.149,0
		c-0.034,0-0.084,3.617-0.15,10.85c-0.5,7.2-1.816,10.8-3.95,10.8c-0.467,0-0.916-0.333-1.35-1
		C118.45,61.2,118.066,60.533,117.8,60.1z M130.6,45.45l-0.05,0.1l0.05-2.3V45.45z M135.5,42c-0.1,0.5-0.5,2.45-1.2,5.85
		c-0.066-2.8,0.084-4.55,0.45-5.25C135.15,42.367,135.4,42.167,135.5,42z M83.75,69.7l-0.25,4.35l-0.15-0.4l0.301-4.05L83.75,69.7z
		 M74.25,69.35l0.15-0.85L74,72.3L74.25,69.35z M67.6,192.75l-0.4,9.8l-0.25-2.35c-0.4-4.934-0.65-8.5-0.75-10.7
		c0-3.733,0.216-7.25,0.65-10.55c-0.033,0.633,0.05,1.6,0.25,2.899l0.4,9.75L67.6,192.75z M71.85,171.2
		c-0.666,1.366-2.1,3.333-4.3,5.899c0.566-1,1.483-2.25,2.75-3.75C71.033,172.483,71.55,171.767,71.85,171.2z M79.55,145.7v3.25
		l-0.1,1.3l0.05-2.95l-0.05,0.85C79.483,146.917,79.517,146.1,79.55,145.7z M68,210.2c0.134-4.9,0.184-9.767,0.15-14.601
		c0.5,1.7,0.816,3.417,0.949,5.15c0.067,0.967,0.167,2.434,0.301,4.4v2.05l0.149-0.7c0.033,0.033,0.25-0.55,0.65-1.75
		c0.467,7.634,1.05,16.05,1.75,25.25c0.3,2.667,0.684,4.667,1.149,6c0.233,0.667,0.601,1.35,1.101,2.05l-3.3-3.6
		c-0.867-1.101-1.567-4.934-2.101-11.5C68.366,215.884,68.1,211.634,68,210.2z"/>
	<path style="fill-rule:evenodd;clip-rule:evenodd;fill:#A1978B;" d="M134.3,6.45l-0.649,5.1V3.8
		C133.95,4.7,134.167,5.583,134.3,6.45z M134.4,51.45l-0.101-3.6c0.7-3.4,1.101-5.35,1.2-5.85c0.3-0.133,0.65-0.033,1.05,0.3
		l0.05,0.65L134.4,51.45z M132.6,219.15c-0.199,3.133-0.466,7.316-0.8,12.55c-0.3,4.233-0.666,8.05-1.1,11.45l-0.2-0.95
		c-0.233-1.467-0.384-2.533-0.45-3.2c-0.8-7.167-0.633-20.783,0.5-40.85l0.3,2.55c0.067-0.233,0.284-2.316,0.65-6.25
		c0.767-1.467,1.217-3.851,1.35-7.15c0.067-1.333,0.084-5.467,0.051-12.399c0-0.101,0-0.217,0-0.351l0.3-6.8l0.149-3.5v17.45
		c0,3.767-0.05,6.649-0.149,8.649c-0.134,2.067-0.351,4.334-0.65,6.801c-0.267,2.133-0.399,3.3-0.399,3.5
		C132.15,201.316,132.3,207.483,132.6,219.15z M125.4,248.6c-0.267-4.5-0.434-8.733-0.5-12.699l0.5,5.149
		c0.267,3.7,0.283,6.2,0.05,7.5L125.4,248.6z M122.65,297.6c-0.467-2.267-0.817-5.017-1.051-8.25c-0.267-3.066-0.433-4.75-0.5-5.05
		c-0.633-2.133-1.033-3.666-1.199-4.6c-0.233-1.434-0.334-3.834-0.301-7.2c-0.1-4.1-0.466-10.283-1.1-18.55
		c-0.533-7-0.8-14.117-0.8-21.351c0.267-10.533,0.55-17.449,0.85-20.75h0.15l1.3,7.601c0.2-3.267,0.384-4.9,0.55-4.9v-1.45
		c0.5,7.534,0.767,11.601,0.8,12.2c0.134,4.066,0.184,14.05,0.15,29.95l-0.05,15.9c1.467,16.666,2.1,25.233,1.899,25.699
		l-0.699,0.801V297.6z M93.25,20.8l0.05,37.45c0,6-0.116,12.083-0.35,18.25l-0.2,2.1c-0.233-3.434-0.684-6.3-1.35-8.6
		C90.6,67.7,90,65.867,89.6,64.5c-1.466-5.067-2.1-14.3-1.899-27.7c0.066-5.5-0.15-10.566-0.65-15.2c-0.8-7.133-1.233-11.2-1.3-12.2
		l2.15,0.2c0.1,0.7,0.066,2.85-0.101,6.45c0,2.167,0.45,3.684,1.351,4.55C90.116,21.5,91.483,21.567,93.25,20.8z M111.4,0.45
		c0.166-0.167,0.633-0.317,1.399-0.45h0.55v0.05c0.034,11.067,0.101,18.167,0.2,21.3c0,0.8-0.217,1.617-0.649,2.45
		c-0.567,1.133-0.884,1.817-0.95,2.05l-0.2-4.3C111.816,14.983,111.7,7.95,111.4,0.45z M102.75,8.7
		c-0.134,2.8-0.616,7.966-1.45,15.5c-0.533,6.466-0.85,13.566-0.95,21.3L99.65,9.35C100.684,8.983,101.717,8.767,102.75,8.7z
		 M119.2,0.2c-0.267,3.167-0.517,10.117-0.75,20.85c0,9,0.149,15.35,0.45,19.05c0.133,2.066,0.366,4.183,0.699,6.35l0.2-0.2
		c0.2-0.467,0.334-0.7,0.4-0.7c0.3-2.267,0.45-4.533,0.45-6.8c0.233,0.033,0.35,1.033,0.35,3c0,5.3-0.533,8-1.6,8.1
		c-0.601,0.033-0.983,0.183-1.15,0.45c-0.333,0.633-0.5,2.133-0.5,4.5l0.05,5.3c-0.434-1.4-0.8-2.8-1.1-4.2
		c-0.101,0.3-0.367,0.967-0.8,2c-0.367,0.967-0.65,1.483-0.851,1.55c-0.934-0.967-1.399-2.067-1.399-3.3
		c0-5.433,0.3-14.45,0.899-27.05c0.601-12.3,0.884-21.967,0.851-29L119.2,0.2z M106.75,131.55l-0.3,0.1
		c-0.667-2.633-1.384-6.483-2.15-11.55c-0.7-4.7-1.05-7.667-1.05-8.9c0.167-3.434,0.233-5.85,0.2-7.25
		c0.267-1.333,0.517-3.934,0.75-7.8c0.166-3.1,0.25-5.15,0.25-6.15l-0.8-24.65c0.066-1,0.083-2.817,0.05-5.45
		c0-1.8,0.616-12.15,1.85-31.05l-0.05,4.35c0,0.667,0.25,10.867,0.75,30.6c0.033,2.733,0.05,10.85,0.05,24.35
		c0,14.3-0.033,22.067-0.1,23.3c-0.134,2.267-0.3,5.033-0.5,8.3c0,3.233,0.116,5.817,0.35,7.75
		C106.15,128.367,106.384,129.717,106.75,131.55z M117.25,127.05c-0.033-18.4-0.033-29.45,0-33.15c0.066-4.167,0.384-7.9,0.95-11.2
		c0.1,2.033,0.233,6.25,0.399,12.65c0.134,5.933,0.2,9.25,0.2,9.95l-0.7,21.75H117.25z M112.05,32c0.7,4.667,1.05,8.783,1.05,12.35
		c0,1.4,0.101,4.617,0.301,9.65c-0.167,4.533-1.233,7.35-3.2,8.45l-0.55-1.3c0.699-3.6,1.3-8.5,1.8-14.7
		C111.983,40.25,112.184,35.433,112.05,32z M112.15,63.95c0.233-0.133,0.533-0.233,0.899-0.3v0.55L112.15,63.95z M113.1,71.3
		l0.051,5.7l0.35-13.3l1.35,0.65c0.733,0.5,2.051,0.983,3.95,1.45c1.767,0.667,3.084,1.917,3.95,3.75
		c-0.267-0.3-0.566-0.55-0.9-0.75c-0.566-0.333-1.833-0.5-3.8-0.5c-0.434,0-0.616,0.467-0.55,1.4c0.066,0.633-0.634,0.533-2.1-0.3
		h-0.851l-1.85,53.3L112.6,98.75C112.6,94.45,112.767,85.3,113.1,71.3z M81.9,84.15c0.466-2.3,0.733-4.6,0.8-6.9l0.149,0.85
		l0.301-2.7l0.35-0.2c0.066,0.633,1.134,2.733,3.2,6.3c1.934,4.867,2.633,11,2.1,18.4c-0.2,3.1,0.084,8.9,0.851,17.4
		c-2.034,12.6-3.117,21.067-3.25,25.4c-0.101,2.833,0,7,0.3,12.5c0,0.967-0.3,2.283-0.9,3.95c-1.8,4.8-2.816,7.517-3.05,8.149
		c-0.2,0.601-0.333,2.084-0.4,4.45c-0.066,2.134-0.066,3.533,0,4.2c0.101,0.733,0.017,2.3-0.25,4.7
		c-0.267,2.666-0.399,4.033-0.399,4.1l0.95,23.95l-0.101,24.1c-1.533-18.733-2.85-32.649-3.95-41.75
		c-1.1,4.9-1.633,13.601-1.6,26.101c0.033,6.333,0.167,12.517,0.4,18.55c0,1.434,0.366,3.8,1.1,7.1
		c0.8,3.601,1.283,6.717,1.45,9.351c0.133,1.966,0.233,4.816,0.3,8.55c0.033,3.533,0.134,6.333,0.3,8.399l0.25,0.15
		c0.167,0.233,0.351,0.616,0.55,1.15c0.267-0.4,0.567-1.45,0.9-3.15c0.366-2,0.55-3.95,0.55-5.85
		c0.267,1.733,0.55,2.133,0.851,1.199c0.166,8.267,0.216,13.867,0.149,16.801c-3.5-0.5-5.583-2.717-6.25-6.65
		c-0.066-4.167-0.316-6.634-0.75-7.4l-0.2,1.25l-0.05-0.5C76.217,261,76,254.033,75.9,245.2c-0.067-1.733-0.351-3.434-0.851-5.101
		v-3.149c0.2-4,0.2-8.517,0-13.55c0-0.034,0-0.067,0-0.101v-0.6l0.15-8.55c0-3.267-0.351-9.567-1.05-18.9
		c-0.7-9.3-1.051-15.45-1.051-18.45l0.051-3.399c0.333-0.634,0.6-1.134,0.8-1.5c0.366-0.733,0.833-2.75,1.399-6.051L74.95,169
		c1.399-0.4,2.434-1.583,3.1-3.55c0.566-1.733,0.95-4.45,1.15-8.15c0.233-1.934,0.35-4.716,0.35-8.35
		c0.9-8.567,1.45-14.067,1.65-16.5c0.6-7,0.95-14.3,1.05-21.9c0.167-2.033,0.366-5.033,0.6-9c0.167-3.533,0.25-5.633,0.25-6.3
		c0-2.067-0.25-4.2-0.75-6.4c-0.033-1.867-0.116-3.217-0.25-4.05L81.9,84.15z M67.2,202.55l0.4-9.8l0.55,2.85
		c0.033,4.834-0.017,9.7-0.15,14.601l-0.1-1.101L67.2,202.55z M101.1,144.45c-0.1,3.267-0.399,7.733-0.899,13.399
		c-0.467,9.067-0.684,25.084-0.65,48.051l-0.85-8.95C98.233,182.316,98,174.667,98,174c0.4-12.6,0.616-20.233,0.65-22.9
		c0.033-1.667,0.416-3.217,1.149-4.65C100.2,145.717,100.634,145.05,101.1,144.45z M102.45,143.6c2.066-0.033,3.85-0.733,5.35-2.1
		c1.434-1.4,2.25-2.1,2.45-2.1c0.434,0,0.8,0.083,1.1,0.25c0.167,0.1,0.417,0.283,0.75,0.55c-0.066,0.333-0.899,1.75-2.5,4.25
		c-1.466,3.033-2,6.2-1.6,9.5c0.2,1.8,0.2,4.666,0,8.6c-0.4,7.601-0.634,12.351-0.7,14.25l-0.95-26.05c0-0.567-0.1-1.5-0.3-2.8
		l-0.45-1.2c-0.033,0.267-0.316,0.767-0.85,1.5c-0.5,0.667-0.934,1.167-1.3,1.5C103.083,148.75,102.75,146.7,102.45,143.6z
		 M91.1,145.5c0.334,13.866,0.7,25.667,1.101,35.4c0.2,7.666,0.3,22.183,0.3,43.55c0,0.633-0.4,1.684-1.2,3.149
		c-0.967,1.801-1.483,2.817-1.55,3.051l-0.2,0.35c0.233-2.634,0.467-4.2,0.7-4.7c0.467-12.934,0.733-39.866,0.8-80.8H91.1z
		 M124.35,153.3c-0.633,1.634-1.25,2.517-1.85,2.65c-0.366,0-0.75-0.117-1.15-0.351c-0.5-0.3-0.866-0.483-1.1-0.55
		c-1,1-1.634,7.4-1.9,19.2c-0.399,18-0.633,27.616-0.699,28.85c-0.167-1.466-0.351-3.966-0.551-7.5c-0.1-2.133-0.433-4.149-1-6.05
		l0.051-3.8c0.466-9.8,0.699-24,0.699-42.6l0.5-0.4c1.233,0.233,2.5,1.517,3.801,3.85C121.884,147.967,122.95,150.2,124.35,153.3z
		 M108.5,284.6h-0.45c0.033,0.434-0.05,0.934-0.25,1.5c-0.166,0.601-0.383,1.034-0.649,1.301l1.149-34.5
		C108.467,267.233,108.533,277.8,108.5,284.6z M113.3,265.45c-0.133,5.6-0.2,11.483-0.2,17.649c-0.733,0.733-1.166,1.134-1.3,1.2
		c-0.1-1-0.217-2.899-0.35-5.7c-0.101-2.466-0.15-4.05-0.15-4.75c0-8.8,0.05-14.833,0.15-18.1c0.267-8.467,0.883-13.684,1.85-15.65
		V265.45z M99,274.65c-0.233,1.633-0.816,10-1.75,25.1l-1,0.2c0-7.5-0.116-17.983-0.35-31.45v-51.9c0.1,1.334,0.267,3.551,0.5,6.65
		c0.267,3.4,0.483,7.033,0.649,10.9l0.25-6c1.334,5.433,2.017,8.283,2.05,8.55c0.634,3.3,0.95,7.05,0.95,11.25
		c0,3.666-0.083,7.05-0.25,10.149C99.95,260.233,99.6,265.75,99,274.65z M87,275.25c-0.366,0.934-0.8,2.2-1.3,3.8
		c0-5.333-0.033-10.55-0.101-15.649c-0.1-4.134-0.149-6.367-0.149-6.7c0-0.4,0.116-1.217,0.35-2.45l0.3-1.7
		C86.3,256.116,86.6,263.684,87,275.25z"/>
	<path style="fill-rule:evenodd;clip-rule:evenodd;fill:#726A60;" d="M135.15,27.05l0.149,3.85l0.101,0.8
		c-0.634,1.667-1.2,2.767-1.7,3.3c-0.167,0.233-0.75,0.683-1.75,1.35c-0.5,0.3-0.917,0.85-1.25,1.65c-0.434,0.933-0.7,1.45-0.8,1.55
		l-0.4,0.2c0.634-5.767,0.866-18.717,0.7-38.85c-0.601,16.033-0.9,26.6-0.9,31.7c0,0.5-0.1,1.017-0.3,1.55s-0.417,0.817-0.65,0.85
		V0.45V0.4l1.851,0.5l0.149,0.05c0.167,7.833,0.267,13.117,0.301,15.85l0.25-15.6l0.8,0.45l1.95,2.15v7.75l0.149,12.9
		c0.434-0.534,0.75-0.883,0.95-1.05l0.15-0.25L135.15,27.05z M133.35,149.3l-0.1-3.35c-0.566-26.233-0.934-41.75-1.1-46.55
		c-0.567-19.433-1.084-37.417-1.551-53.95c0.301-1.5,0.584-2.717,0.851-3.65c0.5-1.733,1.383-2.6,2.649-2.6
		c0.801,0,1.684,0.55,2.65,1.65v0.5c-0.033,0.4-0.066,0.783-0.1,1.15l-0.101-0.2c-0.399-0.333-0.75-0.433-1.05-0.3
		c-0.1,0.167-0.35,0.367-0.75,0.6c-0.366,0.7-0.517,2.45-0.45,5.25l0.101,3.6c-0.867,5.566-1.367,9.983-1.5,13.25
		c-0.067,1.833-0.101,9.183-0.101,22.05c0,0.333,0.101,7.1,0.3,20.3C133.267,122.683,133.35,136.767,133.35,149.3z M121.1,284.3
		l-0.149,12.55c0,0.667,0.083,1.217,0.25,1.65l0.05,0.05c-0.1,0.033-0.2,0.066-0.3,0.101c-0.134,0-0.267,0-0.4,0
		c-0.899,0-1.566-0.217-2-0.65c-0.934-1.033-1.217-3.134-0.85-6.3l-1.601,0.75l-0.399-2.95c-0.467-0.5-0.834-0.85-1.101-1.05
		c-0.733-0.434-1.649-0.634-2.75-0.601l-4.899-0.3l0.2-0.149c0.267-0.267,0.483-0.7,0.649-1.301c0.2-0.566,0.283-1.066,0.25-1.5
		h0.45c1.6,0,2.7-0.1,3.3-0.3c0.134-0.066,0.566-0.467,1.3-1.2c0.2-0.666,0.317-2.033,0.351-4.1c0-0.833-0.05-5.35-0.15-13.55V240.1
		c0-2.833,0.117-7.05,0.351-12.649c0.433-11.2,1.199-23.733,2.3-37.601H116v56.4l-0.05,40.65c0.633-0.867,0.967-4.117,1-9.75
		c0-1.134-0.066-6.317-0.2-15.551l2.85,10.9c-0.033,3.366,0.067,5.767,0.301,7.2C120.066,280.634,120.467,282.167,121.1,284.3z
		 M94.8,300.3l-0.35-4.85c-0.134,2.233-0.2,3.899-0.2,5l3-0.7c0.934-15.1,1.517-23.467,1.75-25.1c0.033-0.467,0.6-5.4,1.7-14.801
		c0.8-6.633,1.233-11.183,1.3-13.649v12.95l0.5-1.15c0.233,1.4,0.35,2.75,0.35,4.05c0,2.5-0.35,10.15-1.05,22.95
		c0,1,0.3,1.917,0.9,2.75c-1.033,0.167-1.816,0.467-2.351,0.9c-0.333,0.3-0.683,0.783-1.05,1.449c-0.166,0.967-0.3,4.45-0.399,10.45
		c-0.067,3.167-0.967,4.75-2.7,4.75c-0.767,0-2.017-0.566-3.75-1.7c-2.2-1.399-3.7-3.033-4.5-4.899l-0.05-1.2l0.25-5.7l0.1-1.399
		c1.3-4.267,0.333-6.983-2.9-8.15c-1.899-0.533-3.3-0.934-4.199-1.2c-1.601-0.533-2.684-1.233-3.25-2.1
		c-0.767-1.7-1.2-4.084-1.301-7.15c0.067-2.8,0.084-4.333,0.051-4.6L76.6,266.6l0.2-1.25c0.434,0.767,0.684,3.233,0.75,7.4
		c0.667,3.934,2.75,6.15,6.25,6.65l0.65-0.051c0.5-0.066,0.916-0.166,1.25-0.3c0.5-1.6,0.934-2.866,1.3-3.8
		c0.467-0.9,1.267-3.2,2.4-6.9c1-3.3,1.583-5.333,1.75-6.1l0.199-1.55c-0.166,18-0.017,30.083,0.45,36.25c0.2-9.4,0.367-17,0.5-22.8
		c0.233-10.867,0.434-17.9,0.601-21.101l0.25-1.2c1.633,5.267,2.5,12.934,2.6,23c0.1,14,0.15,21.051,0.15,21.15v4.05L94.8,300.3z
		 M76.45,8.65L76.95,9c-1.2,0.467-2.033,0.583-2.5,0.35L76.45,8.65z M99.05,9.65c0.134,0.1,0.167,1.567,0.101,4.4
		c-0.067,1.467-0.184,3.233-0.351,5.3c0,2.467-0.05,4.017-0.149,4.65l-0.4-13.65L99.05,9.65z M112.15,63.95
		c-1.434,0.833-2.45,1.55-3.051,2.15c-1.033,1.1-1.483,3.617-1.35,7.55l-0.2,0.4c-0.1-16.867-0.366-35.267-0.8-55.2v-9.9h0.65h0.05
		l0.3,12.7c0-0.733,0.116-2.833,0.35-6.3c0.2-3.267,0.334-5.45,0.4-6.55V8.75l0.8-0.4l0.2,22.5c0,2.533-0.233,6.467-0.7,11.8
		c-0.467,5.333-0.7,9.783-0.7,13.35l0.101,2.2l0.3,0.35c0.533-0.7,0.983-2.133,1.35-4.3c0.567-3.2,0.851-7.45,0.851-12.75
		c0-9.833-0.367-20.917-1.101-33.25c0-0.067,0-0.133,0-0.2c0.4-0.333,0.7-0.867,0.9-1.6c0.1-0.367,0.184-1.1,0.25-2.2
		c0.066-1.4,0.134-2.433,0.2-3.1c0.233,8.333,0.5,15.133,0.8,20.4l0.2,4.3c0.066-0.233,0.383-0.917,0.95-2.05
		c0.433-0.833,0.649-1.65,0.649-2.45c-0.1-3.133-0.166-10.233-0.2-21.3V0l2.051,0.1c0.033,7.033-0.25,16.7-0.851,29
		c-0.6,12.6-0.899,21.617-0.899,27.05c0,1.233,0.466,2.333,1.399,3.3c0.2-0.067,0.483-0.583,0.851-1.55c0.433-1.033,0.699-1.7,0.8-2
		c0.3,1.4,0.666,2.8,1.1,4.2c0.267,0.433,0.65,1.1,1.15,2c0.434,0.667,0.883,1,1.35,1c2.134,0,3.45-3.6,3.95-10.8
		c0.066-7.233,0.116-10.85,0.15-10.85c0.066,0,0.116,0,0.149,0c-0.267-10.167-0.416-23.983-0.45-41.45l1.5,0.05
		c0.067,7.7,0.567,15.3,1.5,22.8c0.767,6.2,1.067,10.2,0.9,12l0.05,2.35c0,0.7-0.267,1.283-0.8,1.75
		c-0.566,0.466-0.85,1.667-0.85,3.6c0,0.667,0.083,1.867,0.25,3.6c0.433-0.167,1.149-0.283,2.149-0.35c1-0.1,1.584-0.183,1.75-0.25
		c-0.233,14.233-0.684,29.4-1.35,45.5c-0.634,14.667-0.95,22.05-0.95,22.15c0,1.6,0.267,7.517,0.8,17.75
		c0.5,10.233,0.75,20.183,0.75,29.85c0,0.5-0.017,1.101-0.05,1.8c-0.134-0.133-0.35-0.199-0.65-0.199c-0.433,0-0.716,1.833-0.85,5.5
		c-0.1,1.866-0.15,3.933-0.15,6.199c0,0.667,0.4,2.75,1.2,6.25c0.767,4.367,1.117,9.051,1.05,14.051c-0.267-0.5-0.466-2.067-0.6-4.7
		c-0.134-2.533-0.967-5.066-2.5-7.601l-0.6-0.899c-0.101,4.566-0.717,13.816-1.851,27.75c-0.6-2.967-0.899-4.783-0.899-5.45
		c0.233-22.3,0.383-39.033,0.449-50.2c-1.399-3.1-2.466-5.333-3.199-6.7c-1.301-2.333-2.567-3.617-3.801-3.85l-0.5,0.4
		c0,18.6-0.233,32.8-0.699,42.6l0.3-40.15c-1.934,18.2-2.9,28.183-2.9,29.95c0,1.3-0.2,6.184-0.6,14.65
		c-0.4,8.133-0.566,15.8-0.5,23c0,5.767-0.117,9.75-0.351,11.95c-0.533,5.399-1.783,8.883-3.75,10.449l0.801,1.351
		c-1.367-0.3-2.301-1.351-2.801-3.15c-0.533-1.8-0.533-4.05,0-6.75v-1.7c0.134,3.767,1.067,6.617,2.801,8.551
		c1.566-2.167,2.517-10.467,2.85-24.9c0.167-16,0.4-26.116,0.7-30.35c0.5-4.434,0.934-8.784,1.3-13.051c0.733-8.199,1.1-16.2,1.1-24
		c0-0.467-0.316-0.717-0.949-0.75c-0.934-0.1-1.617-0.317-2.051-0.65c-0.333-0.267-0.583-0.45-0.75-0.55
		c-0.3-0.167-0.666-0.25-1.1-0.25c-0.2,0-1.017,0.7-2.45,2.1c-1.5,1.367-3.283,2.067-5.35,2.1l-1.351,0.85
		c-0.466,0.6-0.899,1.267-1.3,2c-0.733,1.433-1.116,2.983-1.149,4.65c-0.034,2.667-0.25,10.3-0.65,22.9
		c0,0.667,0.233,8.316,0.7,22.95l0.1,2.2l-0.7-6.601c-0.666-18-1.017-27.75-1.05-29.25L96.7,182c0,2.333,0.05,5.934,0.149,10.8
		c0.134,7.134,0.334,11.934,0.601,14.4l-0.05,3.2c-1.834-19.301-2.9-38.733-3.2-58.3c0-0.333,0.017-3.917,0.05-10.75
		c0.033-4.067,0.017-7.167-0.05-9.3c-0.033-1.533-0.834-3.667-2.4-6.4c-1.533-2.733-2.3-4.617-2.3-5.65l0.15-2.7
		C88.884,108.8,88.6,103,88.8,99.9c0.533-7.4-0.166-13.533-2.1-18.4c-2.066-3.567-3.134-5.667-3.2-6.3v-1.15l0.25-4.35
		c0.4-4.534,0.6-7.667,0.6-9.4c0-2.966-0.066-4.883-0.199-5.75c-0.301-0.966-0.584-1.95-0.851-2.95
		c-0.8-1.767-2.434-3.233-4.899-4.4c-1.801-0.867-2.7-2.9-2.7-6.1c0.066-2.867,0.1-7.417,0.1-13.65l0.3-1.5
		c0.034,3.733,0.034,7.8,0,12.2c0.034,2.867,0.233,5.033,0.601,6.5c0.166,0.6,1.35,1.6,3.55,3c2.333,1.467,3.75,2.65,4.25,3.55
		c0.9,1.633,1.384,4,1.45,7.1c0.033,2.1-0.033,6.65-0.2,13.65c0,0.667,0.866,2.583,2.6,5.75c1.967,3.633,3.25,6.617,3.851,8.95
		c0.7,2.633,1.166,5.417,1.399,8.35c0.134,1.567,0.217,3.35,0.25,5.35c-0.066,0.7-0.366,2.066-0.899,4.1L92,97.75
		c0.1-3.067,0.15-4.933,0.15-5.6c0-0.967-0.5-2.4-1.5-4.3c-1.167-2.033-1.934-3.383-2.301-4.05l-0.25-0.5
		c0.7,4.2,1.101,8.5,1.2,12.9c0.167,5.133,0.8,11.867,1.9,20.2l0.55,1.25c0.167-0.767,0.267-2.316,0.3-4.65
		c0-1.3-0.017-4.783-0.05-10.45l0.55,2.85l0.4-0.95l2.399,13.1l-0.05-0.05l0.25,1.05c0.2,0.467,0.384,1.333,0.55,2.6
		c0.167,1.167,0.25,2.033,0.25,2.6c0,1.1-0.166,2.967-0.5,5.6c-0.366,2.6-0.55,5.066-0.55,7.4L95.55,151
		c0.033-7.867,0.834-15.683,2.4-23.45c2.7-10.667,4.533-18.533,5.5-23.6c0.033,1.4-0.033,3.816-0.2,7.25c0,1.233,0.35,4.2,1.05,8.9
		c0.767,5.066,1.483,8.917,2.15,11.55l0.3-0.1c1.5-1.5,2.517-4.9,3.05-10.2c0.334-6.033,0.617-10.067,0.851-12.1
		c0.433-3.867,0.899-11.983,1.399-24.35c0.167,3.033,0.134,14.15-0.1,33.35c-0.134,10.5,0.8,15.717,2.8,15.65
		c0.033-0.3,0.267-4.9,0.7-13.8c0.434-8.767,0.833-14.434,1.2-17l-0.051,9.05l0.15-6.05l0.5,20.95c0.134,3.034,0.167,5.267,0.1,6.7
		l-0.1,0.3c0.033,0.2,0.25,0.3,0.65,0.3c0.399,0,0.633-0.083,0.699-0.25c0.101-0.3,0.167-0.467,0.2-0.5
		c0.033,0.033,0.316,0.483,0.851,1.35c0.366,0.533,0.733,0.867,1.1,1c0.9-0.8,1.684-2.45,2.35-4.95
		c0.733-2.9,1.101-6.317,1.101-10.25c0.033-10.533,0.1-21.783,0.2-33.75c0.1-9.933,0.149-15.067,0.149-15.4
		c-0.967-1.1-1.566-1.783-1.8-2.05c-0.866-1.833-2.184-3.083-3.95-3.75c-1.899-0.466-3.217-0.95-3.95-1.45l-1.35-0.65L113.15,77
		l-0.051-5.7l-0.05-7.1v-0.55C112.684,63.717,112.384,63.817,112.15,63.95z M80.2,50.55c0.633,0.633,1.033,1.467,1.2,2.5
		c0.199,1.133,0.3,3.567,0.3,7.3c0,0.333,0.05,2.133,0.149,5.4c0.101,3.467,0.134,6.033,0.101,7.7c-0.634,0.566-1.467,1.466-2.5,2.7
		c-0.467,0.533-1.05,0.883-1.75,1.05c0.066-0.934,0.267-6.417,0.6-16.45c0.367,3.167,0.517,7.6,0.45,13.3l0.1,1.65
		c0.301-2.9,0.517-7.4,0.65-13.5C79.6,56.733,79.833,52.85,80.2,50.55z M83.9,21L83.65,9.35l0.449-0.2l1.101,0.2
		c0.066,1.566,0.1,3.617,0.1,6.15c0,4.767-0.184,9.05-0.55,12.85l-0.2,0.95L83.9,21z M77.05,23.9c1.033-2.4,1.667-4.167,1.9-5.3
		c0.166-0.7,0.566-3.367,1.2-8c0.733,0,1.35,0.25,1.85,0.75s0.75,1.117,0.75,1.85c-1.167,0.867-1.9,1.5-2.2,1.9
		c-0.333,0.533-0.684,2.117-1.05,4.75C79.2,22.183,78.384,23.533,77.05,23.9z M112.05,32c0.134,3.433-0.066,8.25-0.6,14.45
		c-0.5,6.2-1.101,11.1-1.8,14.7l0.55,1.3c1.967-1.1,3.033-3.917,3.2-8.45c-0.2-5.033-0.301-8.25-0.301-9.65
		C113.1,40.783,112.75,36.667,112.05,32z M102.4,103.65c-0.467,1.1-0.934,2.917-1.4,5.45c-0.467,2.6-0.866,4.3-1.2,5.1
		c0.267-1.133,0.467-2.067,0.601-2.8c0.3-1.767,0.75-4.267,1.35-7.5L102.4,103.65z M71.8,137.7l0.05-1.8l1.4-0.85
		c-0.1,4.833-0.316,8.233-0.65,10.2C72.434,142.75,72.167,140.233,71.8,137.7z M80.1,93.25c-0.3,10.833-0.916,19.217-1.85,25.15
		c-0.5,3.233-1.2,7.6-2.1,13.1c-0.834-0.433-1.434-0.717-1.801-0.85c-0.566-0.2-1.35-0.117-2.35,0.25c0-1.6-0.05-3.717-0.15-6.35
		L71.3,112.4l-0.45-5.6c-0.1-0.867-0.25-2.05-0.449-3.55c-0.034-0.233-0.067-0.467-0.101-0.7l-1.05-9.6
		c0.5-1.034,1.167-1.883,2-2.55c0.7-0.533,1.267-0.8,1.7-0.8c0.566,0,0.967,0.433,1.2,1.3s0.35,2.45,0.35,4.75l-0.15,13.1
		c-0.5,0.367-0.816,0.717-0.949,1.05c-0.4,1.034-0.601,3.067-0.601,6.1c0,0.5,0.066,1.567,0.2,3.2c0.134,1.667,0.25,2.833,0.35,3.5
		l0.25,1.2c0.634-1.2,1.267-4.167,1.9-8.9c0.833-6.4,1.25-13.867,1.25-22.4c0-1.867-0.017-2.933-0.05-3.2
		c-0.101-1.333-0.434-2.283-1-2.85c-0.101-0.067-0.5,0-1.2,0.2c-0.767,0.2-1.167,0.3-1.2,0.3L72.15,86.6
		c-0.167-1.267-0.301-3.767-0.4-7.5c0.1,0.033,0.283-0.05,0.55-0.25c0.167-0.067,0.384-0.2,0.65-0.4L73.3,81
		c0.033-0.467,0.101-0.933,0.2-1.4c0.167-0.934,0.4-1.417,0.7-1.45c0.967,0.467,1.616,1.55,1.95,3.25c0.166,0.934,0.35,2.3,0.55,4.1
		c0.2-0.8,0.35-1.4,0.45-1.8c0.199-0.733,0.5-1.233,0.899-1.5c0.267,0.533,0.5,1.333,0.7,2.4C78.884,85.367,79.333,88.25,80.1,93.25
		z M82.25,110.55l0.1-7.05v-1.2c0.067-4,0.067-6.25,0-6.75v-6.7c0.5,2.2,0.75,4.333,0.75,6.4c0,0.667-0.083,2.767-0.25,6.3
		C82.616,105.517,82.417,108.517,82.25,110.55z M82.7,77.25c-0.066,2.3-0.334,4.6-0.8,6.9l-0.7-0.4c0-0.5,0.166-1.733,0.5-3.7
		c0.333-2,0.583-3.3,0.75-3.9L82.7,77.25z M74.4,68.5c0.267-0.733,0.399-3.383,0.399-7.95c0-5.3,0.217-9.4,0.65-12.3
		c0.467,0.833,0.783,1.333,0.95,1.5c0.133,1.833,0.149,5.9,0.05,12.2c-0.066,6.333-0.2,11.45-0.4,15.35
		c-0.533-0.167-1-0.466-1.399-0.9c-0.733-0.867-0.95-2.233-0.65-4.1L74.4,68.5z M79.45,150.25l0.1-1.3
		c0,3.633-0.116,6.416-0.35,8.35C79.3,154.267,79.384,151.917,79.45,150.25z M72.7,156.85c0.133-0.233,0.533-1.149,1.2-2.75
		c0.699-1.7,1.066-2.683,1.1-2.95c0.566,2.966,0.75,7.317,0.55,13.05c-0.8,0.566-1.383,1.166-1.75,1.8
		c-0.2,0.333-0.55,1.184-1.05,2.55c0.107-0.781,0.191-1.614,0.25-2.5l-0.2-6.8C72.8,158.384,72.767,157.583,72.7,156.85z
		 M75.05,222.7c0-1.8-0.166-4.783-0.5-8.95c-0.399-5.7-0.934-11-1.6-15.9c-0.334,1.467-0.384,6.867-0.15,16.2
		c0,1.667-0.05,3.95-0.149,6.851c-0.167,4.366-0.4,7.399-0.7,9.1c-0.7-9.2-1.283-17.616-1.75-25.25c-0.4,1.2-0.617,1.783-0.65,1.75
		c0.233-1.333,0.351-2.7,0.351-4.1c0-0.767-0.2-3.7-0.601-8.801c-0.434-5.1-0.649-9.899-0.649-14.399l0.05-2.55
		c0.1,0,0.316-0.4,0.649-1.2c0.134,0.333,0.284,1.166,0.45,2.5c0.2-0.066,0.367-0.601,0.5-1.601l0.05-0.55
		c0.467,1.467,0.817,3.417,1.051,5.851c0.267,2.899,0.883,6.216,1.85,9.949l0.45,1.851c-0.2-2.233-0.4-5.15-0.601-8.75
		c-0.166-3.134-0.25-5.033-0.25-5.7c0-0.533,0.034-1.517,0.101-2.95c0.1-1.5,0.166-2.383,0.2-2.649L73.1,176.8
		c0,3,0.351,9.15,1.051,18.45c0.699,9.333,1.05,15.634,1.05,18.9L75.05,222.7z M75.05,240.1l-0.2-0.449l0.2-2.7V240.1z M132.9,174.9
		c0.033,6.933,0.017,11.066-0.051,12.399c-0.133,3.3-0.583,5.684-1.35,7.15C132,188.816,132.467,182.3,132.9,174.9z M67,178.25
		l0.1,3.6c-0.2-1.3-0.283-2.267-0.25-2.899c0-0.167,0.017-0.3,0.05-0.4L67,178.25z M67.5,191.6c0.566,2.867,1.083,5.184,1.55,6.95
		c0.233,1.066,0.351,3.267,0.351,6.601c-0.134-1.967-0.233-3.434-0.301-4.4c-0.133-1.733-0.449-3.45-0.949-5.15l-0.55-2.85
		L67.5,191.6z M97.05,118.45c0.134-0.133,0.417-0.383,0.851-0.75c0.466-0.5,0.916-1.184,1.35-2.05c0,0.767-0.217,1.434-0.65,2
		C98.167,118.183,97.65,118.45,97.05,118.45z"/>
	<path style="fill-rule:evenodd;clip-rule:evenodd;fill:#625952;" d="M135.4,31.7c0.066,0.533,0.316,1.783,0.75,3.75
		c0.399,1.733,0.583,2.767,0.55,3.1l0.05,1.25c0,0.267,0,0.534,0,0.8v0.25c-0.967-1.1-1.85-1.65-2.65-1.65
		c-1.267,0-2.149,0.867-2.649,2.6c-0.267,0.934-0.55,2.15-0.851,3.65v-2.2l-0.05,2.3c-0.166,0.067-0.75,0.15-1.75,0.25
		c-1,0.067-1.717,0.184-2.149,0.35c-0.167-1.733-0.25-2.933-0.25-3.6c0-1.933,0.283-3.133,0.85-3.6c0.533-0.467,0.8-1.05,0.8-1.75
		L128,34.85l0.35,0.15c0.233-0.033,0.45-0.317,0.65-0.85s0.3-1.05,0.3-1.55c0-5.1,0.3-15.667,0.9-31.7
		c0.166,20.133-0.066,33.083-0.7,38.85l0.4-0.2c0.1-0.1,0.366-0.617,0.8-1.55c0.333-0.8,0.75-1.35,1.25-1.65
		c1-0.667,1.583-1.117,1.75-1.35C134.2,34.467,134.767,33.367,135.4,31.7z M130.9,1.2l-0.25,15.6
		c-0.034-2.733-0.134-8.017-0.301-15.85L130.9,1.2z M130.6,45.45c0.467,16.533,0.983,34.517,1.551,53.95
		c0.166,4.8,0.533,20.317,1.1,46.55l0.1,3.35v10.851l-0.149,7.6l-0.3,6.8c0,0.134,0,0.25,0,0.351c-0.434,7.399-0.9,13.916-1.4,19.55
		c-0.366,3.934-0.583,6.017-0.65,6.25l-0.3-2.55l-0.2-3.75c0.067-5-0.283-9.684-1.05-14.051c-0.8-3.5-1.2-5.583-1.2-6.25
		c0-2.267,0.051-4.333,0.15-6.199c0.134-3.667,0.417-5.5,0.85-5.5c0.301,0,0.517,0.066,0.65,0.199c0.033-0.699,0.05-1.3,0.05-1.8
		c0-9.667-0.25-19.617-0.75-29.85c-0.533-10.233-0.8-16.15-0.8-17.75c0-0.1,0.316-7.483,0.95-22.15
		c0.666-16.1,1.116-31.267,1.35-45.5L130.6,45.45z M76.95,9l-0.5-0.35c0.899-0.1,1.883-0.133,2.95-0.1L81.6,8.8
		c0.7,0.1,1.384,0.2,2.051,0.3v0.25L83.9,21c-0.667-4.767-1.051-7.367-1.15-7.8c0-0.733-0.25-1.35-0.75-1.85s-1.116-0.75-1.85-0.75
		c-0.101,0.2-0.284,0.983-0.551,2.35c-0.267,1.4-0.483,2.3-0.649,2.7l-0.05-4.8C78.333,9.85,77.684,9.233,76.95,9z M108.5,8.75V8.8
		c-0.066,1.1-0.2,3.284-0.4,6.55c-0.233,3.467-0.35,5.566-0.35,6.3l-0.3-12.7L108.5,8.75z M109.6,8.05c0,0.067,0,0.133,0,0.2
		c0.733,12.333,1.101,23.417,1.101,33.25c0,5.3-0.283,9.55-0.851,12.75c-0.366,2.167-0.816,3.6-1.35,4.3l-0.3-0.35L108.1,56
		c0-3.567,0.233-8.017,0.7-13.35c0.467-5.333,0.7-9.267,0.7-11.8l-0.2-22.5L109.6,8.05z M99.8,114.2c0.334-0.8,0.733-2.5,1.2-5.1
		c0.467-2.533,0.934-4.35,1.4-5.45c0.466-1.066,0.716-2.117,0.75-3.15c0.066-2.8,0.183-5.033,0.35-6.7
		c0.2-5.833,0.184-10.533-0.05-14.1l0.2-14.35l0.8,24.65c0,1-0.084,3.05-0.25,6.15c-0.233,3.867-0.483,6.467-0.75,7.8
		c-0.967,5.066-2.8,12.933-5.5,23.6c-1.566,7.767-2.367,15.583-2.4,23.45l-0.25-14.25c0-2.333,0.184-4.8,0.55-7.4
		c0.334-2.633,0.5-4.5,0.5-5.6c0-0.567-0.083-1.433-0.25-2.6c-0.166-1.267-0.35-2.133-0.55-2.6l-0.25-1.05l0.05,0.05
		c0.467,0.2,1.034,0.5,1.7,0.9c0.601,0,1.117-0.267,1.55-0.8c0.434-0.566,0.65-1.233,0.65-2L99.8,114.2z M80.2,50.55
		c-0.367,2.3-0.601,6.184-0.7,11.65c-0.134,6.1-0.35,10.6-0.65,13.5l-0.1-1.65c0.066-5.7-0.083-10.133-0.45-13.3l-0.25-1.6
		c0.134-0.933,0.3-2.45,0.5-4.55c0.233-2.167,0.351-3.483,0.351-3.95c0-0.4-0.067-0.65-0.2-0.75l-0.2-0.05
		c-0.6,0.033-1.134,0.033-1.6,0l-0.5-0.1c-0.167-0.167-0.483-0.667-0.95-1.5L75,47.95c-0.467,0.933-0.684,3.283-0.65,7.05
		c0.034,6.867,0,11.65-0.1,14.35L74,72.3c-0.3,1.867-0.083,3.233,0.65,4.1c0.399,0.434,0.866,0.733,1.399,0.9
		c0.434,0.034,0.983,0,1.65-0.1c0.7-0.167,1.283-0.517,1.75-1.05c1.033-1.233,1.866-2.133,2.5-2.7c0.666-0.2,1.133-0.133,1.399,0.2
		l0.15,0.4v1.15l-0.35,0.2l-0.7,0.75c-0.167,0.6-0.417,1.9-0.75,3.9c-0.334,1.967-0.5,3.2-0.5,3.7l-0.15,5.15
		c0,0.6,0.184,1.733,0.55,3.4c0.2,0.9,0.45,1.983,0.75,3.25c0.067,0.5,0.067,2.75,0,6.75v1.2c-0.1,2.067-0.433,4.483-1,7.25
		c-0.533,2.567-1.066,4.567-1.6,6c0.1-0.633,0.316-2.817,0.65-6.55c0.3-3.567,0.449-5.55,0.449-5.95c0-0.967-0.05-2.483-0.149-4.55
		c-0.167-2.767-0.367-4.917-0.601-6.45c-0.767-5-1.216-7.883-1.35-8.65c-0.2-1.067-0.434-1.867-0.7-2.4
		c-0.399,0.267-0.7,0.767-0.899,1.5c-0.101,0.4-0.25,1-0.45,1.8c-0.2-1.8-0.384-3.167-0.55-4.1c-0.334-1.7-0.983-2.783-1.95-3.25
		c-0.3,0.033-0.533,0.517-0.7,1.45c-0.1,0.467-0.167,0.933-0.2,1.4l-0.35-2.55c-0.267,0.2-0.483,0.333-0.65,0.4
		c-0.267,0.2-0.45,0.283-0.55,0.25c0-0.333-0.167-0.617-0.5-0.85s-0.733-0.35-1.2-0.35l0.65-4.8l0.1,0.1l0.3,0.4
		c0.034,0.066,0.483,0.533,1.351,1.4l0.05-0.15l-1.05-6.15c0.533,0.367,0.967,0.483,1.3,0.35c0.233-0.133,0.45-0.466,0.65-1
		c0.333-0.933,0.433-5.8,0.3-14.6c0-1.233-0.05-2.233-0.15-3c0.2-2.467,0.351-4.867,0.45-7.2c0.233-0.467,0.5-1.433,0.8-2.9
		c0.367-1.633,0.584-3.083,0.65-4.35c0.2-2.333,0.3-5.167,0.3-8.5l0.05-2.55v2.5c0,6.233-0.033,10.783-0.1,13.65
		c0,3.2,0.899,5.233,2.7,6.1c2.466,1.167,4.1,2.633,4.899,4.4c-0.566-0.1-1.083-0.267-1.55-0.5C81.316,50.833,80.8,50.65,80.2,50.55
		z M69.55,206.5l-0.149,0.7v-2.05c0-3.334-0.117-5.534-0.351-6.601c-0.467-1.767-0.983-4.083-1.55-6.95l-0.4-9.75l-0.1-3.6
		l0.55-1.15c2.2-2.566,3.634-4.533,4.3-5.899c0.134-0.233,0.217-0.434,0.25-0.601l0.551-1.5l0.05-0.25
		c0.015-0.099,0.031-0.199,0.05-0.3c0.5-1.366,0.85-2.217,1.05-2.55c0.367-0.634,0.95-1.233,1.75-1.8
		c0.267-0.134,0.2,0.416-0.2,1.649c-0.566,3.301-1.033,5.317-1.399,6.051c-0.2,0.366-0.467,0.866-0.8,1.5
		c-0.034,0.267-0.101,1.149-0.2,2.649c-0.066,1.434-0.101,2.417-0.101,2.95c0,0.667,0.084,2.566,0.25,5.7
		c0.2,3.6,0.4,6.517,0.601,8.75l-0.45-1.851c-0.967-3.733-1.583-7.05-1.85-9.949c-0.233-2.434-0.584-4.384-1.051-5.851l-0.05,0.55
		c-0.133,1-0.3,1.534-0.5,1.601c-0.166-1.334-0.316-2.167-0.45-2.5c-0.333,0.8-0.55,1.2-0.649,1.2l-0.05,2.55
		c0,4.5,0.216,9.3,0.649,14.399c0.4,5.101,0.601,8.034,0.601,8.801C69.9,203.8,69.783,205.167,69.55,206.5z M75.05,236.95l-0.2,2.7
		L74.2,238.05c-0.5-0.7-0.867-1.383-1.101-2.05c-0.466-1.333-0.85-3.333-1.149-6c0.3-1.7,0.533-4.733,0.7-9.1
		c0.1-2.9,0.149-5.184,0.149-6.851c-0.233-9.333-0.184-14.733,0.15-16.2c0.666,4.9,1.2,10.2,1.6,15.9c0.334,4.167,0.5,7.15,0.5,8.95
		v0.6c0,0.033,0,0.066,0,0.101C75.25,228.434,75.25,232.95,75.05,236.95z M92,97.75v4.8c0.033,5.667,0.05,9.15,0.05,10.45
		c-0.033,2.333-0.133,3.883-0.3,4.65l-0.55-1.25c-1.101-8.333-1.733-15.066-1.9-20.2c-0.1-4.4-0.5-8.7-1.2-12.9l0.25,0.5
		c0.367,0.667,1.134,2.017,2.301,4.05c1,1.9,1.5,3.333,1.5,4.3C92.15,92.817,92.1,94.683,92,97.75z M73.25,135.05l-1.4,0.85
		c0.101-1.633,0.15-3.3,0.15-5c1-0.367,1.783-0.45,2.35-0.25c0.367,0.133,0.967,0.417,1.801,0.85c0.8,0.5,1.316,0.75,1.55,0.75
		c0.8-0.8,1.233-1.833,1.3-3.1c0.066-1.467,0.25-2.45,0.55-2.95v19.5c-0.033,0.4-0.066,1.216-0.1,2.45l-0.3,3.95v-0.35
		c-0.134-5.4-0.351-9.167-0.65-11.3c-0.5-3.633-1.9-5.45-4.2-5.45L73.25,135.05z M98.1,192.55c-0.3-4-0.55-6.75-0.75-8.25
		l0.101,2.05c0.066,5.601,0.066,12.551,0,20.851c-0.267-2.467-0.467-7.267-0.601-14.4c-0.1-4.866-0.149-8.467-0.149-10.8l0.35-18.7
		C97.083,164.8,97.434,174.55,98.1,192.55z M115.95,189.85c-1.8,16.233-2.816,25.75-3.05,28.551c-0.134,1.6-0.301,5.05-0.5,10.35
		c-0.467,4.667-1.551,7.4-3.25,8.2l-0.801-1.351c1.967-1.566,3.217-5.05,3.75-10.449c0.233-2.2,0.351-6.184,0.351-11.95
		c-0.066-7.2,0.1-14.867,0.5-23c0.399-8.467,0.6-13.351,0.6-14.65c0-1.767,0.967-11.75,2.9-29.95l-0.3,40.15l-0.051,3.8l-0.1,0.3
		H115.95z M116.75,261.6c0.134,9.233,0.2,14.417,0.2,15.551c-0.033,5.633-0.367,8.883-1,9.75l0.05-40.65
		C116.134,248.417,116.384,253.533,116.75,261.6z M94.25,300.45c0-1.101,0.066-2.767,0.2-5l0.35,4.85L94.25,300.45z"/>
	<path style="fill-rule:evenodd;clip-rule:evenodd;fill:#625954;" d="M76.1,25.95l-0.3,1.5v-2.5l-0.05,2.55
		c0,3.333-0.1,6.167-0.3,8.5c-0.066,1.267-0.283,2.717-0.65,4.35c-0.3,1.467-0.566,2.433-0.8,2.9l0.05-3.75
		c0.167-0.867,0.233-1.85,0.2-2.95c-0.1-2.167-0.7-4.066-1.8-5.7c-0.167-0.567-0.367-1.9-0.601-4c-0.233-1.934-0.35-3.2-0.35-3.8
		l0.4-7.1c0.033-1.967,0.267-3.434,0.699-4.4c0.334-0.733,0.95-1.466,1.851-2.2c0.467,0.233,1.3,0.117,2.5-0.35
		c0.733,0.233,1.383,0.85,1.95,1.85l0.05,4.8c0.166-0.4,0.383-1.3,0.649-2.7c0.267-1.367,0.45-2.15,0.551-2.35
		c-0.634,4.633-1.034,7.3-1.2,8c-0.233,1.133-0.867,2.9-1.9,5.3L76.1,25.95z M92,97.75l0.95,6.7c0.533-2.034,0.833-3.4,0.899-4.1
		c1.233-2.633,2.483-10.65,3.75-24.05c0.667-6.9,1.117-12.983,1.351-18.25c-0.101,13.2-0.283,26.767-0.55,40.7
		c0,0.667,0.083,1.467,0.25,2.4c0.033,0,0.116,0.083,0.25,0.25c0.166,0.133,0.449,0.2,0.85,0.2c1.4,0,2.267-1.434,2.6-4.3
		c0.067,1.867-0.133,4.067-0.6,6.6c-0.6,3.233-1.05,5.733-1.35,7.5c-0.134,0.733-0.334,1.667-0.601,2.8l-0.55,1.45
		c-0.434,0.867-0.884,1.55-1.35,2.05c-0.434,0.367-0.717,0.617-0.851,0.75c-0.666-0.4-1.233-0.7-1.7-0.9l-2.399-13.1l-0.4,0.95
		L92,102.55V97.75z M83.65,9.1L84.1,9.15l-0.449,0.2V9.1z M80.2,50.55c0.6,0.1,1.116,0.284,1.55,0.55
		c0.467,0.233,0.983,0.4,1.55,0.5c0.267,1,0.55,1.983,0.851,2.95c0.133,0.867,0.199,2.784,0.199,5.75c0,1.733-0.199,4.867-0.6,9.4
		l-0.1-0.1l-0.301,4.05c-0.267-0.333-0.733-0.4-1.399-0.2c0.033-1.667,0-4.233-0.101-7.7c-0.1-3.267-0.149-5.067-0.149-5.4
		c0-3.733-0.101-6.167-0.3-7.3C81.233,52.017,80.833,51.183,80.2,50.55z M70.7,73.1c1-6.7,1.616-11.2,1.85-13.5l1-9.15
		c0.101,0.767,0.15,1.767,0.15,3c0.133,8.8,0.033,13.667-0.3,14.6c-0.2,0.534-0.417,0.867-0.65,1c-0.333,0.133-0.767,0.017-1.3-0.35
		l1.05,6.15L72.45,75c-0.867-0.867-1.316-1.333-1.351-1.4l-0.3-0.4L70.7,73.1z M69.25,92.95l-0.1-3.25c0-2.333,0.3-6.267,0.899-11.8
		c0.467,0,0.867,0.117,1.2,0.35s0.5,0.517,0.5,0.85c0.1,3.733,0.233,6.233,0.4,7.5l1.149,0.35c0.033,0,0.434-0.1,1.2-0.3
		c0.7-0.2,1.1-0.267,1.2-0.2c0.566,0.566,0.899,1.517,1,2.85c0.033,0.267,0.05,1.333,0.05,3.2c0,8.533-0.417,16-1.25,22.4
		c-0.634,4.733-1.267,7.7-1.9,8.9l-0.25-1.2c-0.1-0.667-0.216-1.833-0.35-3.5c-0.134-1.633-0.2-2.7-0.2-3.2
		c0-3.033,0.2-5.066,0.601-6.1c0.133-0.333,0.449-0.683,0.949-1.05l0.15-13.1c0-2.3-0.116-3.883-0.35-4.75s-0.634-1.3-1.2-1.3
		c-0.434,0-1,0.267-1.7,0.8C70.417,91.067,69.75,91.917,69.25,92.95z M80.1,93.25c0.233,1.533,0.434,3.683,0.601,6.45
		c0.1,2.066,0.149,3.583,0.149,4.55c0,0.4-0.149,2.383-0.449,5.95c-0.334,3.733-0.551,5.917-0.65,6.55
		c0.533-1.433,1.066-3.433,1.6-6c0.567-2.767,0.9-5.183,1-7.25l-0.1,7.05c-0.1,7.6-0.45,14.9-1.05,21.9
		c-0.2,2.433-0.75,7.933-1.65,16.5v-3.25v-19.5c-0.3,0.5-0.483,1.483-0.55,2.95c-0.066,1.267-0.5,2.3-1.3,3.1
		c-0.233,0-0.75-0.25-1.55-0.75c0.899-5.5,1.6-9.867,2.1-13.1C79.184,112.467,79.8,104.083,80.1,93.25z M71.8,137.7
		c0.367,2.533,0.634,5.05,0.8,7.55c0.334-1.967,0.551-5.367,0.65-10.2L74.3,135c2.3,0,3.7,1.817,4.2,5.45
		c0.3,2.133,0.517,5.9,0.65,11.3v0.35l0.3-3.95l0.05-0.85l-0.05,2.95c-0.066,1.667-0.15,4.017-0.25,7.05
		c-0.2,3.7-0.584,6.417-1.15,8.15c-0.666,1.967-1.7,3.149-3.1,3.55l0.399-3.15c0.4-1.233,0.467-1.783,0.2-1.649
		c0.2-5.733,0.017-10.084-0.55-13.05c-0.033,0.267-0.4,1.25-1.1,2.95c-0.667,1.601-1.067,2.517-1.2,2.75v-3.05
		C72.233,146.167,71.934,140.8,71.8,137.7z M82.35,88.85v6.7c-0.3-1.267-0.55-2.35-0.75-3.25c-0.366-1.667-0.55-2.8-0.55-3.4
		l0.15-5.15l0.7,0.4L82.1,84.8C82.233,85.633,82.316,86.983,82.35,88.85z M82.7,77.25l-0.25-1.1l0.7-0.75l-0.301,2.7L82.7,77.25z
		 M76.4,49.75l0.5,0.1c0.466,0.033,1,0.033,1.6,0l0.2,0.05c0.133,0.1,0.2,0.35,0.2,0.75c0,0.467-0.117,1.783-0.351,3.95
		c-0.2,2.1-0.366,3.617-0.5,4.55l0.25,1.6c-0.333,10.033-0.533,15.517-0.6,16.45c-0.667,0.1-1.217,0.133-1.65,0.1
		c0.2-3.9,0.334-9.017,0.4-15.35C76.55,55.65,76.533,51.583,76.4,49.75z M75.45,48.25c-0.434,2.9-0.65,7-0.65,12.3
		c0,4.567-0.133,7.217-0.399,7.95l-0.15,0.85c0.1-2.7,0.134-7.483,0.1-14.35c-0.033-3.767,0.184-6.117,0.65-7.05L75.45,48.25z"/>
	<path style="fill-rule:evenodd;clip-rule:evenodd;fill:#B3AA9E;" d="M75.05,301.35l-0.3,0.2c-0.4-4.166-0.667-8.184-0.8-12.05
		l2,9.55L75.1,301.3L75.05,301.35z M61.3,279.9c0.267-5.733,0.5-9.317,0.7-10.75c0.1-0.934,0.417-2.15,0.95-3.65l2.35,7.6
		c0.633-4.233,0.95-6.366,0.95-6.399c0.5,4.434,0.967,8.166,1.4,11.2c0.2,2.899,0.3,11.366,0.3,25.399l-0.45-0.149
		c-3.367-1.467-4.917-5.351-4.65-11.65c0.167-4.134,0.25-6.417,0.25-6.85C62.967,282.35,62.367,280.767,61.3,279.9z M11.55,170.95
		l-0.9,3.8V165C11.25,167.267,11.55,169.25,11.55,170.95z M9,140.3c0.1,0.567,0.317,1.883,0.65,3.95c0.067,0.367,0.117,0.7,0.15,1
		l0.3,2.45c0.066,1.733,0,4.95-0.2,9.649c-0.167-0.267-0.783-0.85-1.85-1.75c-1.033-0.966-1.7-1.517-2-1.649l-5.4-0.7
		c0-9.5-0.083-15.833-0.25-19L0,129.4l0.05-0.35l0.7-0.2c0.1,0.667,1.4,2.55,3.9,5.65C7.283,137.767,8.733,139.7,9,140.3z
		 M18.5,37.6c0.433,4.033-0.05,35.583-1.45,94.65c-0.267-2.467-1.017-4.883-2.25-7.25c-1.633-2.633-2.833-4.633-3.6-6
		c-2.9-5.033-3.684-10.9-2.35-17.6l1.6,0.05c2.333,0,3.5-0.733,3.5-2.2c0-0.5-0.483-1.267-1.45-2.3c-1-1.067-1.5-3.383-1.5-6.95
		c0-24.167,0.267-38.5,0.8-43c0.434-3.6,1.167-6.083,2.2-7.45C14.967,38.317,16.467,37.667,18.5,37.6z M39.9,16.15
		c0.467,7.733,0.6,13.583,0.4,17.55c-0.233,5-0.983,8.816-2.25,11.45c-1.233-0.3-2.583-1.2-4.05-2.7
		c-1.367-1.434-2.133-2.15-2.3-2.15c-1.9,0-3.117-1.767-3.65-5.3c-0.267-1.933-0.583-7.933-0.95-18c0.933-0.267,3.267-0.483,7-0.65
		c-0.133,1.566,0.033,3.85,0.5,6.85c0.533,3.5,1.233,5.6,2.1,6.3c0.1-2.433,0.283-4.867,0.55-7.3c0.333-2.667,0.583-4.684,0.75-6.05
		H39.9z M61.6,16.5l1.2-0.4l0.95-0.15c0.067-0.034,0.133-0.05,0.2-0.05c0.833-0.133,1.45-0.2,1.85-0.2l3.7,0.05v0.05
		c-1.033,6.467-1.583,10.434-1.65,11.9c-0.1,1.8-0.167,6.833-0.2,15.1c0,1.534-0.533,3.233-1.6,5.1c-1.233,2.233-2.1,4.967-2.6,8.2
		c-0.367,2.5-0.684,8.833-0.95,19c0,8.7,0.15,14.3,0.45,16.8c0.233,1.8,0.783,4.533,1.65,8.2c0.6-0.7,0.983-1.3,1.15-1.8
		c0.433-1.333,0.633-3.683,0.6-7.05c0.467,1.2,0.7,2.583,0.7,4.15c0,5.1-0.95,7.917-2.85,8.45c-0.967,0.133-1.633,0.316-2,0.55
		c-0.6,0.4-0.9,1.317-0.9,2.75l0.1,6.55c-0.7-1.067-1.35-2.45-1.95-4.15c-0.867,1.4-1.45,2.3-1.75,2.7
		c-0.434,0.567-0.85,0.85-1.25,0.85c-1.633-0.3-2.45-1-2.45-2.1c0-7.067,0.45-13.017,1.35-17.85c1-5.433,1.6-11.833,1.8-19.2
		c0.1-4.067,0.15-9.733,0.15-17c-0.066-9.467-0.083-15.733-0.05-18.8c0.433-2.233,0.7-3.667,0.8-4.3c0.4-2.533,1.133-7,2.2-13.4
		C61.15,18.083,61.6,16.767,61.6,16.5z M50.65,74.8l-0.6-21.55c0-10.4,1.083-17.417,3.25-21.05c0.267,4.933,0.45,19.2,0.55,42.8
		c0,0.767-0.35,1.533-1.05,2.3c-1,1.067-1.517,1.633-1.55,1.7l-0.2,0.45L50.65,74.8z M47,114.8c1.167-3.4,2.217-8.333,3.15-14.8
		c0.934-6.333,1.283-10.783,1.05-13.35V85.3c0.1,0.633,0.45,1.934,1.05,3.9c0.533,2.3,0.8,4.917,0.8,7.85
		c0,5.1-0.25,9.083-0.75,11.95c-0.8,4.667-2.25,7.017-4.35,7.05C47.583,115.65,47.267,115.233,47,114.8z M40,49.55
		c0.7-0.333,1.317-0.716,1.85-1.15l0.3,0.7c0.2,0.533,0.333,1.05,0.4,1.55c-0.9,1.333-1.466,2.1-1.7,2.3
		c-0.833,0.767-1.983,1.15-3.45,1.15c-1.7,0-2.617-0.2-2.75-0.6C34.883,54.967,35,56.467,35,58c0,2.133-0.267,5.017-0.8,8.65
		c-0.333,2.1-1.1,6.583-2.3,13.45c-0.566,3.2-0.933,8.8-1.1,16.8c-0.1,4.167-0.15,8.817-0.15,13.95
		c-0.433-14.033-0.816-27.6-1.15-40.7c-0.3-12.133-0.5-19.533-0.6-22.2l0.875,0.025L30.4,48c1.5,0.167,3.083,0.567,4.75,1.2
		C36.25,49.6,37.867,49.717,40,49.55z M53.05,124.95v8l0.75-15.6c1,0.267,3.65,0.85,7.95,1.75c4.1,1.066,6.9,2.433,8.4,4.1
		c-0.801,0.133-1.9-0.017-3.3-0.45c-1.667-0.533-3.35-0.8-5.05-0.8c-0.333,0-1.133,0.183-2.4,0.55s-2.15,0.55-2.65,0.55
		c-0.4,0-0.7,0.034-0.9,0.1l-0.15,0.1c-0.067,1.8-1.167,19.533-3.3,53.2l-0.15-24.05C52.383,142.5,52.65,133.35,53.05,124.95z
		 M53.05,117.85l-1.6-0.25c0.367-0.133,0.9-0.233,1.6-0.3V117.85z M36.05,147.45l0.15-20.85c0.167,5.8,0.233,10.033,0.2,12.7
		C36.4,142.1,36.283,144.817,36.05,147.45z M36,157.6c1.167-2.699,1.75-7.116,1.75-13.25c0-3.6-0.1-6.733-0.3-9.4
		c-0.434-5.3-0.8-10.617-1.1-15.95c0.2-4.2,0.316-6.933,0.35-8.2v-2c0-0.5,1-9.267,3-26.3l-0.1,4.35c0,2.5,0.25,7.983,0.75,16.45
		c0.5,8.434,0.75,28.1,0.75,59l-1.1,9.8c0,6.967,0.6,11.317,1.8,13.051l-0.55,0.149c-1.167-2.6-2.433-6.434-3.8-11.5
		c-1.233-4.733-1.85-7.717-1.85-8.95C35.9,162.184,36.033,159.767,36,157.6z M60.45,180.7l-0.2-9.601
		c0.433-5.1,0.617-12.666,0.55-22.7c-0.033-6.733,0.383-10.75,1.25-12.05c0.733,12.1,1.1,19.333,1.1,21.7c0,3.2-0.133,6.101-0.4,8.7
		C62.35,170.316,61.583,174.967,60.45,180.7z M51.35,193.85c-0.4,0.601-1.083,1.15-2.05,1.65c-1.466,0.733-2.3,1.167-2.5,1.3
		c-1.966,1.334-2.867,3.917-2.7,7.75c0.167,3.3,0.1,6.816-0.2,10.55c-0.733,9.667-1.117,14.784-1.15,15.351
		c-0.467-4.867-0.967-10.851-1.5-17.95c-0.567-7.3-0.85-11.017-0.85-11.15c-0.6-2.899,0.483-5.149,3.25-6.75
		c1.4-0.8,2.883-1.316,4.45-1.55C48.8,193.05,49.883,193.316,51.35,193.85z M58.45,239.4c0.1-0.934,0.333-7.317,0.7-19.15
		c0.367-12.134,0.55-19.95,0.55-23.45l0.85-0.399c0.867,0.1,2.083,0.616,3.65,1.55c1.6,0.934,2.517,1.684,2.75,2.25l0.25,2.35
		l0.7,6.55c-0.8-0.267-1.533-0.399-2.2-0.399c-2.067,0-3.167,5.45-3.3,16.35c-0.2,16.233-0.65,26.816-1.35,31.75
		c-0.7-3.133-1.216-6.366-1.55-9.7c-0.3-2.899-0.467-4.366-0.5-4.399l-0.6,0.5L58.45,239.4z M31.85,198.1
		c-0.434,2.467-0.95,6.834-1.55,13.101c-0.6,6.366-0.917,10.883-0.95,13.55c-0.434,1.6-1.167,5.634-2.2,12.1l-0.4,1.2
		c-0.267-5.467-0.4-10.017-0.4-13.649c0-10.967,0.533-18.167,1.6-21.601C28.45,201.134,29.75,199.566,31.85,198.1z"/>
	<path style="fill-rule:evenodd;clip-rule:evenodd;fill:#9B9286;" d="M75.1,301.3l0.851-2.25l-2-9.55
		c0.133,3.866,0.399,7.884,0.8,12.05l0.3-0.2c-1.467,1.301-2.517,2.117-3.149,2.45c-0.967,0.5-2.084,0.417-3.351-0.25l2,0.5
		c0.334-5.066,0.8-12.783,1.4-23.149c0.666-11.567,1.017-18.5,1.05-20.801l0.75,2.5L75.9,245.2c0.1,8.833,0.316,15.8,0.649,20.899
		l0.05,0.5l0.051,0.601c0.033,0.267,0.017,1.8-0.051,4.6c0.101,3.066,0.534,5.45,1.301,7.15l0.5,15.6
		c0,2.533-0.184,4.084-0.551,4.65C77.017,299.833,76.1,300.533,75.1,301.3z M67.5,303.15l0.45,0.149c0-14.033-0.1-22.5-0.3-25.399
		c-0.433-3.034-0.9-6.767-1.4-11.2c0,0.033-0.317,2.166-0.95,6.399l-2.35-7.6c-0.534,1.5-0.85,2.717-0.95,3.65
		c-0.2,1.433-0.433,5.017-0.7,10.75c-0.5-0.134-1.966-0.301-4.4-0.5c-2.533-0.267-4.1-0.45-4.7-0.551
		c-0.034-5.433,0.833-12.449,2.6-21.05c1.333-6.7,2.534-11.566,3.6-14.6l0.6-0.5c0.033,0.033,0.2,1.5,0.5,4.399
		c0.333,3.334,0.85,6.567,1.55,9.7c0.7-4.934,1.15-15.517,1.35-31.75c0.133-10.899,1.233-16.35,3.3-16.35
		c0.667,0,1.4,0.133,2.2,0.399L68,210.2c0.1,1.434,0.366,5.684,0.8,12.75c0.533,6.566,1.233,10.399,2.101,11.5
		c-0.167,8.2-0.184,23.083-0.051,44.649c0.067,6.434-0.8,14.551-2.6,24.351L67.5,303.15z M47.65,277.8c1-1.767,1.817-3.866,2.45-6.3
		l0.1,6.95L47.65,277.8z M40.3,221.35c0.3-4.033,0.333-10.699,0.1-20c0,0.134,0.283,3.851,0.85,11.15
		c0.533,7.1,1.033,13.083,1.5,17.95c0.033-0.566,0.417-5.684,1.15-15.351c0.3-3.733,0.367-7.25,0.2-10.55
		c-0.167-3.833,0.733-6.416,2.7-7.75c0.2-0.133,1.034-0.566,2.5-1.3c0.967-0.5,1.65-1.05,2.05-1.65c1.2,0.534,2.267,0.801,3.2,0.801
		c-0.633,1.267-1.25,6.316-1.85,15.149c-0.367,5.8-0.633,11.283-0.8,16.45c-0.066,1.6-0.133,5-0.2,10.2
		c-0.233,6.033-0.817,13.166-1.75,21.399c-0.4,3.634-1.3,7.551-2.7,11.75c0,1.567,0.017,3.233,0.05,5c-0.3,0.967-1.5,1.367-3.6,1.2
		c-1.1-1.166-1.617-3.2-1.55-6.1c0.333-4.8,0.4-8.767,0.2-11.9c-0.367-5.899-0.633-14.283-0.8-25.149
		C41.45,226.55,41.033,222.783,40.3,221.35z M26.55,243.25c-0.4-0.066-0.783-0.167-1.15-0.3c-0.7-0.2-1.483-0.584-2.35-1.15
		C24.417,242.5,25.583,242.983,26.55,243.25z M25.85,239.9L25.3,240.6l-0.05-2.649l0.4,0.899L25.85,239.9z M10.65,174.75l0.9-3.8
		l-0.2,2.7c0,0.866,0.233,1.449,0.7,1.75c0.267,0.199,0.867,0.449,1.8,0.75c2.133,0.933,3.95,3.383,5.45,7.35
		c0.633,1.667,0.883,4.017,0.75,7.05c-0.1,1.8-0.267,4.9-0.5,9.3c0.034,9.334,0.467,16.467,1.3,21.4
		c0.933,5.4,1.483,12.134,1.65,20.2c-3.667-1.2-5.8-3.283-6.4-6.25c-0.033-3.733-0.067-6.584-0.1-8.55c0-3.733-0.033-8.067-0.1-13
		c-0.1-4.967-0.15-9.301-0.15-13c0-5.101-0.883-8.384-2.65-9.851c-1.1-0.934-1.7-1.483-1.8-1.649c-0.566-0.801-0.85-2.051-0.85-3.75
		C10.583,182.7,10.65,179.15,10.65,174.75z M0.05,129.05L0,129.4v-0.3L0.05,129.05z M8.85,101.4c-1.333,6.7-0.55,12.567,2.35,17.6
		c0.767,1.367,1.966,3.367,3.6,6c1.233,2.367,1.983,4.783,2.25,7.25c1.4-59.067,1.883-90.617,1.45-94.65l3.85,0.25
		c0.8,0,1.4-0.133,1.8-0.4c0.233-0.167,0.5-0.467,0.8-0.9c0,0.4,0.383,5.8,1.15,16.2c0.8,11.167,1.283,18.617,1.45,22.35V77
		c0.367-7.533,0.583-12.217,0.65-14.05c0.167-4.8,0.233-9.817,0.2-15.05l1.375,0.075L28.9,47.95c0.1,2.667,0.3,10.066,0.6,22.2
		c0.333,13.1,0.717,26.667,1.15,40.7c0-5.133,0.05-9.783,0.15-13.95c0.167-8,0.534-13.6,1.1-16.8c1.2-6.867,1.967-11.35,2.3-13.45
		C34.733,63.017,35,60.133,35,58c0-1.533-0.117-3.033-0.35-4.5c0.133,0.4,1.05,0.6,2.75,0.6c1.467,0,2.617-0.383,3.45-1.15
		c0.233-0.2,0.8-0.967,1.7-2.3L41.8,67.8c0,5.833,0.15,13.55,0.45,23.15c0.467,14.9,0.8,27.15,1,36.75l0.3-0.4
		c0.3-1.433,0.6-2.683,0.9-3.75c0.6-2.033,1.433-3.216,2.5-3.55c1.2-0.367,2.133-0.767,2.8-1.2c0.367-0.233,0.933-0.633,1.7-1.2
		l1.6,0.25v7.1c-0.4,8.4-0.667,17.55-0.8,27.45l0.15,24.05c2.133-33.667,3.233-51.4,3.3-53.2l0.15-0.1c0.2-0.066,0.5-0.1,0.9-0.1
		c0.5,0,1.383-0.183,2.65-0.55s2.067-0.55,2.4-0.55c1.7,0,3.383,0.267,5.05,0.8c1.4,0.433,2.5,0.583,3.3,0.45l1.699,1.35
		c0.101,2.633,0.15,4.75,0.15,6.35c0,1.7-0.05,3.367-0.15,5l-0.05,1.8c0.134,3.1,0.434,8.466,0.9,16.1v3.05
		c0.066,0.733,0.1,1.534,0.1,2.4l0.2,6.8c-0.059,0.886-0.143,1.719-0.25,2.5c-0.019,0.101-0.035,0.201-0.05,0.3l-0.05,0.25
		l-0.551,1.5c-0.033,0.167-0.116,0.367-0.25,0.601c-0.3,0.566-0.816,1.283-1.55,2.149c-1.267,1.5-2.184,2.75-2.75,3.75L67,178.25
		l-0.1,0.3c-0.033,0.101-0.05,0.233-0.05,0.4c-0.434,3.3-0.65,6.816-0.65,10.55c-0.9-0.8-1.517-1.333-1.85-1.6
		c-0.5-0.434-0.817-0.65-0.95-0.65c-0.333,0-0.633,0.134-0.9,0.4c-0.3,0.233-0.617,0.35-0.95,0.35c-0.4,0-0.683-0.1-0.85-0.3
		l-0.1-0.3c0.033-1.467-0.017-3.7-0.15-6.7c1.133-5.733,1.9-10.384,2.3-13.95c0.267-2.6,0.4-5.5,0.4-8.7c0-2.366-0.367-9.6-1.1-21.7
		c-0.867,1.3-1.283,5.316-1.25,12.05c0.067,10.034-0.117,17.6-0.55,22.7c-0.133-3.466-0.45-8.267-0.95-14.399l-0.3,1
		c-1.067,5.5-1.85,11.899-2.35,19.2c-0.267,3.666-0.5,7.216-0.7,10.649c-0.633-0.566-1.35-0.866-2.15-0.899
		c-0.867-0.067-1.367-0.15-1.5-0.25c-0.767-0.467-1.15-3.384-1.15-8.75c0.1-15.434,0.133-28.117,0.1-38.05
		c-0.133,5.233-0.917,12.05-2.35,20.45c-0.767,4.533-1.566,8.684-2.4,12.45c-0.4,1.634-0.933,4.184-1.6,7.65
		c-0.367,1.966-0.75,3.233-1.15,3.8c-0.367,0.5-0.65,0.8-0.85,0.899c-0.066,0.067-0.433,0.167-1.1,0.301
		c-1.2-1.733-1.8-6.084-1.8-13.051l1.1-9.8c0-30.9-0.25-50.566-0.75-59c-0.5-8.466-0.75-13.95-0.75-16.45l0.1-4.35
		c-2,17.033-3,25.8-3,26.3v2c-0.034,1.267-0.15,4-0.35,8.2l-0.15,7.6l-0.15,20.85c-0.5,5.433-1.15,8.717-1.95,9.85l-1.1,0.25
		c0.5-1.533,0.867-3.267,1.1-5.2c0.267-1.567,0.1-1.934-0.5-1.1c-0.633,1.2-0.967,1.816-1,1.85c-0.867,1.101-1.5,1.75-1.9,1.95
		c-0.2,0.134-0.633,0.2-1.3,0.2c-0.9,0-1.533-0.267-1.9-0.8c-0.3-0.434-0.45-1.117-0.45-2.05c0-3.7,0.184-13.6,0.55-29.7
		c0.333-16.067,0.5-24.167,0.5-24.3c-0.067,1.367-0.267,8.017-0.6,19.95c-0.2,6.533-0.717,11.95-1.55,16.25
		c-0.567,2.867-1.667,7.517-3.3,13.95c-0.467,2.133-1.05,3.25-1.75,3.35c-0.767,0.067-1.383,0.767-1.85,2.1
		c-0.267-2.2-0.6-4.383-1-6.55c-0.767-4.267-1.6-7-2.5-8.2c-1.5-2.067-3.8-4.983-6.9-8.75c-2.667-3.233-4-4.867-4-4.9
		c0-0.3,0.15-0.967,0.45-2c0.333-1.067,0.517-1.9,0.55-2.5l0.05-7.25c0-4-0.05-6.267-0.15-6.8c-0.033-0.2-0.3-0.45-0.8-0.75
		c-0.567-0.3-0.933-0.5-1.1-0.6c-0.566-0.4-1.066-0.934-1.5-1.6c-0.433-0.667-0.733-1.117-0.9-1.35l0.2-1.9
		C2.95,100.85,5.417,101.033,8.85,101.4z M47,114.8c0.267,0.434,0.583,0.85,0.95,1.25c-0.267,0-0.483-0.117-0.65-0.35
		C47.1,115.433,47,115.133,47,114.8z M38,16.15c-0.167,1.367-0.417,3.383-0.75,6.05c-0.267,2.433-0.45,4.867-0.55,7.3
		c-0.867-0.7-1.567-2.8-2.1-6.3c-0.467-3-0.633-5.284-0.5-6.85L38,16.15z M38.05,45.15c1.267-2.633,2.017-6.45,2.25-11.45
		c0.2-3.967,0.067-9.817-0.4-17.55l3.75,0.35c0.1,0.733,0.217,2.05,0.35,3.95c0.1,1.833,0.15,3.017,0.15,3.55
		c0,2.067-0.283,4.233-0.85,6.5c-0.6,2.367-0.917,4.283-0.95,5.75l0.25-1.15c-0.367,1.9-0.533,3.8-0.5,5.7v0.1
		c-0.033,1.167-0.417,2.167-1.15,3C40.15,44.733,39.183,45.15,38.05,45.15z M49.95,23.15c-0.4,4.8-0.717,10.7-0.95,17.7l0.4-1.9
		c0.1-0.667,0.6-2.35,1.5-5.05c0.967-2.833,1.65-4.517,2.05-5.05c0.167,1.033,0.283,2.15,0.35,3.35
		c-2.167,3.633-3.25,10.65-3.25,21.05l0.6,21.55c-0.8-7.867-1.233-13.85-1.3-17.95c-0.1-7.833-0.25-13.167-0.45-16
		c0.267-6.233,0.434-10.767,0.5-13.6c0.133-4.967-0.883-8.25-3.05-9.85l-0.25-0.15c1.066,0,1.983,0.583,2.75,1.75
		C49.583,20.133,49.95,21.517,49.95,23.15z M69.5,15.8c0.733,0.034,1.533,0.083,2.4,0.15l-0.4,7.1c0,0.6,0.116,1.867,0.35,3.8
		c0.233,2.1,0.434,3.433,0.601,4c0.066,4.1,0.1,13.683,0.1,28.75c-0.233,2.3-0.85,6.8-1.85,13.5l-0.65,4.8
		c-0.6,5.533-0.899,9.467-0.899,11.8l0.1,3.25l1.05,9.6c0.033,0.233,0.066,0.467,0.101,0.7c0.199,1.5,0.35,2.683,0.449,3.55
		l0.45,5.6c-0.833,0.233-1.684,1.067-2.55,2.5c-0.733,1.233-1.733,1.85-3,1.85c-0.8,0-1.6-0.35-2.4-1.05
		c-0.833-0.9-1.483-1.567-1.95-2l-0.1-6.55c0-1.433,0.3-2.35,0.9-2.75c0.367-0.233,1.033-0.417,2-0.55
		c1.9-0.533,2.85-3.35,2.85-8.45c0-1.566-0.233-2.95-0.7-4.15c0.033,3.367-0.167,5.717-0.6,7.05c-0.167,0.5-0.55,1.1-1.15,1.8
		c-0.867-3.667-1.417-6.4-1.65-8.2c-0.3-2.5-0.45-8.1-0.45-16.8c0.267-10.167,0.583-16.5,0.95-19c0.5-3.233,1.367-5.967,2.6-8.2
		c1.067-1.867,1.6-3.566,1.6-5.1c0.033-8.267,0.1-13.3,0.2-15.1C67.917,26.233,68.467,22.267,69.5,15.8z M61.6,16.5
		c0,0.267-0.45,1.583-1.35,3.95l0.6-3.55L61.6,16.5z M46.1,49.25l-0.05,2v-4.8L46.1,49.25z M1.1,123.3l-0.45,3.9l0.1-1.7l-0.35,1.8
		l0.55-4.05L1.1,123.3z M1.05,128.8l-0.55-1.45l0.15-0.15C0.65,127.5,0.783,128.033,1.05,128.8z M9.8,145.25
		c-0.033-0.3-0.083-0.633-0.15-1c-0.333-2.067-0.55-3.383-0.65-3.95c0.1,0.367,0.317,1.633,0.65,3.8
		C9.717,144.5,9.767,144.883,9.8,145.25z M59.7,196.8v-0.45l0.85,0.051L59.7,196.8z M29.35,224.75
		c0.033-2.667,0.35-7.184,0.95-13.55c0.6-6.267,1.117-10.634,1.55-13.101c0.733-0.6,1.233,3.434,1.5,12.101
		c0,0.3-0.133,1.616-0.4,3.95c-0.3,2.5-0.483,4.216-0.55,5.149c-0.033,0.667-0.533,1.733-1.5,3.2
		C29.933,223.866,29.417,224.616,29.35,224.75z"/>
	<path style="fill-rule:evenodd;clip-rule:evenodd;fill:#635B52;" d="M58.45,239.4l-0.05,3.8c-1.066,3.033-2.267,7.899-3.6,14.6
		c-1.767,8.601-2.633,15.617-2.6,21.05l-1.1-0.199c0.533-9.601,0.85-17.217,0.95-22.851c1.167-9.8,2.017-18.333,2.55-25.6
		c1.033-3.834,1.933-7.217,2.7-10.15c1.467-5.6,1.85-11.517,1.15-17.75l0.6-3.05L58.45,239.4z M0.75,128.85l-0.7,0.2L0,129.1V127
		l0.4,0.3l0.1,0.05l0.55,1.45L0.75,128.85z M53.15,23.7l-1.45,5.05v-5.2L53.15,23.7z M60.85,16.9l-0.6,3.55
		c-1.067,6.4-1.8,10.867-2.2,13.4c-0.1,0.633-0.367,2.066-0.8,4.3c-0.3,2.434-0.583,5.184-0.85,8.25
		c-0.033-6.333,0.05-12.083,0.25-17.25c0.033-0.933-0.2-2.8-0.7-5.6c0.533-0.3,1.3-1.3,2.3-3
		C59.417,18.683,60.283,17.467,60.85,16.9z M41.85,48.4c-0.533,0.434-1.15,0.817-1.85,1.15c-1.933-0.1-3.4-0.316-4.4-0.65
		c-1.367-0.467-3.317-1.5-5.85-3.1l0.85-0.05c5.066,0.367,8.1,0.4,9.1,0.1c1.6-0.5,2.4-2.15,2.4-4.95v-0.1
		c-0.033-1.9,0.133-3.8,0.5-5.7l3.5-17.85l0.25,0.15c0,13.567-0.083,24.184-0.25,31.85l0.2,8.5l-0.6-1.3c0,0.133-0.333,2.95-1,8.45
		c-0.7,5.867-1.067,9.684-1.1,11.45c-0.233-1.867-0.383-5.083-0.45-9.65c-0.066-3.867-0.1-11.567-0.1-23.1L41.85,48.4z M46.1,49.25
		l-0.05-2.8v4.8L46.1,49.25z M45.5,97.75c0.833-3.933,1.25-8.333,1.25-13.2c0-2.333-0.15-11.267-0.45-26.8c0.6,0,1.2,6.05,1.8,18.15
		c0.3,6.033,0.55,12.1,0.75,18.2c0,11.3-1.317,17.333-3.95,18.1c-0.133-0.067-0.283-0.483-0.45-1.25c-0.167-0.767-0.25-1.4-0.25-1.9
		C44.2,105.417,44.633,101.65,45.5,97.75z M28.6,169.15l0.9-1.301c0.867-1.133,1.733-3.066,2.6-5.8c0.833-2.6,1.5-4.184,2-4.75
		c0.8-1.133,1.45-4.417,1.95-9.85c0.233-2.633,0.35-5.35,0.35-8.15c0.033-2.667-0.033-6.9-0.2-12.7l0.15-7.6
		c0.3,5.333,0.667,10.65,1.1,15.95c0.2,2.667,0.3,5.8,0.3,9.4c0,6.133-0.583,10.55-1.75,13.25c-0.133,0.434-0.85,1.65-2.15,3.65
		c-1.2,1.833-1.917,3.283-2.15,4.35c-0.167,0.934-0.8,2.784-1.9,5.551c-1.033,2.566-1.683,4.066-1.95,4.5
		c-0.867,1.433-1.883,4.699-3.05,9.8c-1.633,7-2.45,14.017-2.45,21.05c0,0.333,0.017,1.3,0.05,2.9c0.033,1.533,0,2.55-0.1,3.05
		L22.2,212c-0.1-1.667-0.217-5.467-0.35-11.4c-0.167-5.5-0.25-8.6-0.25-9.3c0-2.2,0.316-4.866,0.95-8c0.6-3.1,0.9-5.066,0.9-5.899
		c0-0.634-0.167-1.534-0.5-2.7c-0.3-1.134-0.617-1.967-0.95-2.5l-0.45-1.05l3.15,0.949c1.066,0,1.983-0.283,2.75-0.85
		C28.217,170.65,28.6,169.95,28.6,169.15z M15.7,151.4v4.8c-0.1,4.5-0.034,8.35,0.2,11.55c0.067,1.267-0.117,2.45-0.55,3.55
		c-1.2-1.366-2.25-6.616-3.15-15.75c-0.967-9.8-2.1-16-3.4-18.6l1.1,1.1c4.1,4.7,6.15,7.284,6.15,7.75c0,0.233-0.066,1.067-0.2,2.5
		C15.717,149.667,15.667,150.7,15.7,151.4z M25.25,237.95l-0.55-21c0.066,0.8,0.566,4.899,1.5,12.3c0.5,7.2,0.383,10.75-0.35,10.65
		l-0.2-1.051L25.25,237.95z"/>
	<path style="fill-rule:evenodd;clip-rule:evenodd;fill:#7C7367;" d="M75.9,245.2L73.75,262.6L73,260.1
		c-0.033,2.301-0.384,9.233-1.05,20.801c-0.601,10.366-1.066,18.083-1.4,23.149l-2-0.5l-0.3-0.1c1.8-9.8,2.667-17.917,2.6-24.351
		c-0.133-21.566-0.116-36.449,0.051-44.649l3.3,3.6l0.649,1.601l0.2,0.449C75.55,241.767,75.833,243.467,75.9,245.2z M36,157.6
		c0.033,2.167-0.1,4.584-0.4,7.25c0,1.233,0.617,4.217,1.85,8.95c1.367,5.066,2.633,8.9,3.8,11.5l0.55-0.149
		c0.667-0.134,1.034-0.233,1.1-0.301c0.2-0.1,0.483-0.399,0.85-0.899c0.4-0.566,0.783-1.834,1.15-3.8
		c0.667-3.467,1.2-6.017,1.6-7.65c0.833-3.767,1.633-7.917,2.4-12.45c1.434-8.4,2.217-15.216,2.35-20.45
		c0.033,9.933,0,22.617-0.1,38.05c0,5.366,0.383,8.283,1.15,8.75c0.133,0.1,0.633,0.183,1.5,0.25c0.8,0.033,1.517,0.333,2.15,0.899
		c0.2-3.434,0.433-6.983,0.7-10.649c0.5-7.301,1.283-13.7,2.35-19.2l0.3-1c0.5,6.133,0.817,10.934,0.95,14.399l0.2,9.601
		c0.133,3,0.183,5.233,0.15,6.7l0.1,0.3c0.167,0.2,0.45,0.3,0.85,0.3c0.333,0,0.65-0.116,0.95-0.35c0.267-0.267,0.567-0.4,0.9-0.4
		c0.133,0,0.45,0.217,0.95,0.65c0.333,0.267,0.95,0.8,1.85,1.6c0.1,2.2,0.35,5.767,0.75,10.7c-0.233-0.566-1.15-1.316-2.75-2.25
		c-1.567-0.934-2.784-1.45-3.65-1.55l-0.85-0.051l-1.45-0.3l0.2,6.25c0.7,6.233,0.316,12.15-1.15,17.75
		c-0.767,2.934-1.667,6.316-2.7,10.15c-0.533,7.267-1.383,15.8-2.55,25.6c-0.233,2.2-0.466,4.8-0.7,7.8
		c-0.233,2.534-0.65,5.167-1.25,7.9c-0.633,2.434-1.45,4.533-2.45,6.3c-0.867-0.3-1.933-0.75-3.2-1.35
		c-0.2-0.134-0.367-0.267-0.5-0.4l-0.35-0.25c0.033,0,0.066,0,0.1,0c2.1,0.167,3.3-0.233,3.6-1.2c-0.033-1.767-0.05-3.433-0.05-5
		c1.4-4.199,2.3-8.116,2.7-11.75c0.933-8.233,1.517-15.366,1.75-21.399c0.066-5.2,0.133-8.601,0.2-10.2
		c0.167-5.167,0.434-10.65,0.8-16.45c0.6-8.833,1.216-13.883,1.85-15.149c-0.933,0-2-0.267-3.2-0.801
		c-1.467-0.533-2.55-0.8-3.25-0.8c-1.567,0.233-3.05,0.75-4.45,1.55c-2.767,1.601-3.85,3.851-3.25,6.75
		c0.233,9.301,0.2,15.967-0.1,20c-0.533-0.466-1.1-0.699-1.7-0.699c-3.333,0-5.9,3.366-7.7,10.1c-0.5,1.733-1.1,4.25-1.8,7.55
		c-0.6,2.566-1.184,4.15-1.75,4.75l-0.8,0.2c-0.966-0.267-2.133-0.75-3.5-1.45l-0.55-0.35c-0.167-8.066-0.717-14.8-1.65-20.2
		c-0.833-4.934-1.267-12.066-1.3-21.4c0.233-4.399,0.4-7.5,0.5-9.3c0.133-3.033-0.117-5.383-0.75-7.05
		c-1.5-3.967-3.316-6.417-5.45-7.35c-0.934-0.301-1.533-0.551-1.8-0.75c-0.466-0.301-0.7-0.884-0.7-1.75l0.2-2.7
		c0-1.7-0.3-3.684-0.9-5.95c0.133-1.934,0.133-3.767,0-5.5c-0.3-1.033-0.55-1.75-0.75-2.15c0.2-4.7,0.267-7.917,0.2-9.649l-0.3-2.45
		c-0.033-0.367-0.083-0.75-0.15-1.15c-0.333-2.167-0.55-3.434-0.65-3.8c-0.267-0.6-1.717-2.533-4.35-5.8
		c-2.5-3.1-3.8-4.983-3.9-5.65l0.3-0.05c-0.267-0.767-0.4-1.3-0.4-1.6l-0.15,0.15l-0.1-0.05l0.35-1.8l-0.1,1.7l0.45-3.9
		c0.267-1.533,0.517-3.367,0.75-5.5c0.2-1.966,0.3-3.233,0.3-3.8c0-3-0.117-4.817-0.35-5.45c-0.633-1.767-0.95-2.683-0.95-2.75
		l0.4-3.05c0.167,0.233,0.467,0.683,0.9,1.35c0.434,0.667,0.934,1.2,1.5,1.6c0.167,0.1,0.533,0.3,1.1,0.6
		c0.5,0.3,0.767,0.55,0.8,0.75c0.1,0.534,0.15,2.8,0.15,6.8l-0.05,7.25c-0.033,0.6-0.217,1.433-0.55,2.5c-0.3,1.033-0.45,1.7-0.45,2
		c0,0.033,1.333,1.667,4,4.9c3.1,3.767,5.4,6.683,6.9,8.75c0.9,1.2,1.733,3.933,2.5,8.2c0.4,2.167,0.733,4.35,1,6.55
		c-0.367,1.4-0.9,2.767-1.6,4.1l-1.75-6.7c-0.034-0.7,0.017-1.733,0.15-3.1c0.133-1.433,0.2-2.267,0.2-2.5
		c0-0.466-2.05-3.05-6.15-7.75l-1.1-1.1c1.3,2.6,2.434,8.8,3.4,18.6c0.9,9.134,1.95,14.384,3.15,15.75
		c0.433-1.1,0.617-2.283,0.55-3.55c-0.233-3.2-0.3-7.05-0.2-11.55c0.333,1.133,0.65,2.083,0.95,2.85l0.8-0.95l3.6,14.101H22
		c0.333,0.533,0.65,1.366,0.95,2.5c0.333,1.166,0.5,2.066,0.5,2.7c0,0.833-0.3,2.8-0.9,5.899c-0.633,3.134-0.95,5.8-0.95,8
		c0,0.7,0.083,3.8,0.25,9.3c0.133,5.934,0.25,9.733,0.35,11.4l0.1,0.45c0.1-0.5,0.133-1.517,0.1-3.05
		c-0.033-1.601-0.05-2.567-0.05-2.9c0-7.033,0.816-14.05,2.45-21.05c1.167-5.101,2.184-8.367,3.05-9.8
		c0.267-0.434,0.917-1.934,1.95-4.5c1.1-2.767,1.733-4.617,1.9-5.551c0.233-1.066,0.95-2.517,2.15-4.35
		C35.15,159.25,35.867,158.033,36,157.6z M25.85,239.9c0.733,0.1,0.85-3.45,0.35-10.65c-0.934-7.4-1.434-11.5-1.5-12.3l0.55,21
		l0.05,2.649L25.85,239.9z M28.6,169.15c0,0.8-0.383,1.5-1.15,2.1c-0.767,0.566-1.684,0.85-2.75,0.85c0.3-0.133,1-0.616,2.1-1.449
		C27.767,169.884,28.367,169.384,28.6,169.15z M27.1,17c0.367,10.067,0.683,16.067,0.95,18c0.534,3.533,1.75,5.3,3.65,5.3
		c0.167,0,0.933,0.717,2.3,2.15c1.467,1.5,2.817,2.4,4.05,2.7c1.133,0,2.1-0.417,2.9-1.25c0.733-0.833,1.117-1.833,1.15-3
		c0,2.8-0.8,4.45-2.4,4.95c-1,0.3-4.034,0.267-9.1-0.1l-0.85,0.05c2.533,1.6,4.483,2.633,5.85,3.1c1,0.333,2.467,0.55,4.4,0.65
		c-2.133,0.167-3.75,0.05-4.85-0.35c-1.667-0.633-3.25-1.034-4.75-1.2l-0.625-0.025L28.4,47.9c0.033,5.233-0.033,10.25-0.2,15.05
		c-0.067,1.833-0.284,6.517-0.65,14.05v-1.9c-0.167-3.733-0.65-11.184-1.45-22.35c-0.767-10.4-1.15-15.8-1.15-16.2
		c0.633-3.633,0.9-6.3,0.8-8c-0.3-3.933-0.45-5.933-0.45-6c0-0.533,0.067-1.25,0.2-2.15c0.167-0.967,0.333-1.7,0.5-2.2l0.5-0.7
		L27.1,17z M46.1,17.25L42.6,35.1l-0.25,1.15c0.033-1.467,0.35-3.383,0.95-5.75c0.567-2.267,0.85-4.433,0.85-6.5
		c0-0.533-0.05-1.717-0.15-3.55c-0.133-1.9-0.25-3.217-0.35-3.95L46.1,17.25z M47,114.8c0,0.333,0.1,0.633,0.3,0.9
		c0.167,0.233,0.383,0.35,0.65,0.35c2.1-0.033,3.55-2.383,4.35-7.05c0.5-2.867,0.75-6.85,0.75-11.95c0-2.933-0.267-5.55-0.8-7.85
		c-0.6-1.967-0.95-3.267-1.05-3.9v1.35c0.233,2.567-0.117,7.017-1.05,13.35C49.217,106.467,48.167,111.4,47,114.8z M50.65,74.8
		l0.4,4.65l0.2-0.45c0.033-0.067,0.55-0.633,1.55-1.7c0.7-0.767,1.05-1.533,1.05-2.3c-0.1-23.6-0.283-37.867-0.55-42.8
		c-0.066-1.2-0.183-2.317-0.35-3.35c-0.4,0.533-1.083,2.217-2.05,5.05c-0.9,2.7-1.4,4.383-1.5,5.05l-0.4,1.9
		c0.233-7,0.55-12.9,0.95-17.7l1.75,0.4v5.2l1.45-5.05c0.967,0,1.9-0.05,2.8-0.15c0.5,2.8,0.733,4.667,0.7,5.6
		c-0.2,5.167-0.283,10.917-0.25,17.25c0.267-3.066,0.55-5.816,0.85-8.25c-0.033,3.067-0.017,9.333,0.05,18.8
		c0,7.267-0.05,12.933-0.15,17c-0.2,7.367-0.8,13.767-1.8,19.2C54.45,97.983,54,103.933,54,111c0,1.1,0.817,1.8,2.45,2.1
		c0.4,0,0.816-0.283,1.25-0.85c0.3-0.4,0.883-1.3,1.75-2.7c0.6,1.7,1.25,3.083,1.95,4.15c0.467,0.433,1.117,1.1,1.95,2
		c0.8,0.7,1.6,1.05,2.4,1.05c1.267,0,2.267-0.617,3-1.85c0.866-1.433,1.717-2.267,2.55-2.5l0.55,12.15l-1.699-1.35
		c-1.5-1.667-4.3-3.034-8.4-4.1c-4.3-0.9-6.95-1.483-7.95-1.75l-0.75,15.6v-8v-7.1v-0.55c-0.7,0.067-1.233,0.167-1.6,0.3
		c-0.767,0.566-1.333,0.967-1.7,1.2c-0.667,0.434-1.6,0.833-2.8,1.2c-1.067,0.333-1.9,1.517-2.5,3.55c-0.3,1.067-0.6,2.317-0.9,3.75
		l-0.3,0.4c-0.2-9.6-0.533-21.85-1-36.75c-0.3-9.6-0.45-17.317-0.45-23.15l0.75-17.15c-0.066-0.5-0.2-1.017-0.4-1.55l-0.3-0.7
		l1.2-4.8c0,11.533,0.034,19.233,0.1,23.1c0.067,4.566,0.217,7.783,0.45,9.65c0.033-1.767,0.4-5.583,1.1-11.45
		c0.667-5.5,1-8.316,1-8.45l0.6,1.3l-0.2-8.5c0.167-7.667,0.25-18.283,0.25-31.85c2.167,1.6,3.183,4.883,3.05,9.85
		c-0.066,2.833-0.233,7.367-0.5,13.6c0.2,2.833,0.35,8.167,0.45,16C49.417,60.95,49.85,66.933,50.65,74.8z M72.55,59.6
		c0-15.067-0.033-24.65-0.1-28.75c1.1,1.633,1.7,3.533,1.8,5.7c0.033,1.1-0.033,2.083-0.2,2.95L74,43.25
		c-0.1,2.333-0.25,4.733-0.45,7.2L72.55,59.6z M45.5,97.75c-0.867,3.9-1.3,7.667-1.3,11.3c0,0.5,0.083,1.133,0.25,1.9
		c0.167,0.767,0.316,1.183,0.45,1.25c2.633-0.767,3.95-6.8,3.95-18.1c-0.2-6.1-0.45-12.167-0.75-18.2c-0.6-12.1-1.2-18.15-1.8-18.15
		c0.3,15.533,0.45,24.467,0.45,26.8C46.75,89.417,46.333,93.817,45.5,97.75z M34.1,157.3c-0.5,0.566-1.167,2.15-2,4.75
		c-0.867,2.733-1.733,4.667-2.6,5.8c0.433-0.933,1-2.466,1.7-4.6c0.8-2.566,1.4-4.467,1.8-5.7L34.1,157.3z M31.85,198.1
		c-2.1,1.467-3.4,3.034-3.9,4.7c-1.067,3.434-1.6,10.634-1.6,21.601c0,3.633,0.133,8.183,0.4,13.649l0.4-1.2
		c1.033-6.466,1.767-10.5,2.2-12.1c0.066-0.134,0.583-0.884,1.55-2.25c0.967-1.467,1.467-2.533,1.5-3.2
		c0.067-0.934,0.25-2.649,0.55-5.149c0.267-2.334,0.4-3.65,0.4-3.95C33.083,201.533,32.583,197.5,31.85,198.1z"/>
	<path style="fill-rule:evenodd;clip-rule:evenodd;fill:#6D655A;" d="M0.4,127.3L0,127c0.033-9.8,0.317-16.867,0.85-21.2
		c0,0.067,0.316,0.983,0.95,2.75c0.233,0.633,0.35,2.45,0.35,5.45c0,0.567-0.1,1.833-0.3,3.8c-0.233,2.133-0.483,3.967-0.75,5.5
		l-0.15-0.05L0.4,127.3z M15.7,156.2v-4.8l1.75,6.7c0.7-1.333,1.233-2.699,1.6-4.1c0.467-1.333,1.083-2.033,1.85-2.1
		c0.7-0.1,1.283-1.217,1.75-3.35c1.633-6.433,2.733-11.083,3.3-13.95c0.833-4.3,1.35-9.717,1.55-16.25
		c0.333-11.934,0.533-18.583,0.6-19.95c0,0.133-0.167,8.233-0.5,24.3c-0.367,16.1-0.55,26-0.55,29.7c0,0.933,0.15,1.617,0.45,2.05
		c0.367,0.533,1,0.8,1.9,0.8c0.667,0,1.1-0.066,1.3-0.2c0.4-0.2,1.033-0.85,1.9-1.95c0.033-0.033,0.367-0.649,1-1.85
		c0.6-0.833,0.767-0.467,0.5,1.1c-0.233,1.933-0.6,3.667-1.1,5.2c-0.4,1.233-1,3.134-1.8,5.7c-0.7,2.134-1.267,3.667-1.7,4.6
		l-0.9,1.301c-0.233,0.233-0.833,0.733-1.8,1.5c-1.1,0.833-1.8,1.316-2.1,1.449l-3.15-0.949L22,172.2h-0.95l-3.6-14.101l-0.8,0.95
		C16.35,158.283,16.033,157.333,15.7,156.2z"/>
	<path style="fill-rule:evenodd;clip-rule:evenodd;fill:#898074;" d="M51.1,278.65l-0.9-0.2l-0.1-6.95
		c0.6-2.733,1.017-5.366,1.25-7.9c0.233-3,0.467-5.6,0.7-7.8C51.95,261.434,51.633,269.05,51.1,278.65z M58.45,239.4l0.6-40.15
		l-0.6,3.05l-0.2-6.25l1.45,0.3v0.45c0,3.5-0.184,11.316-0.55,23.45C58.783,232.083,58.55,238.467,58.45,239.4z"/>
</g>
</svg>
