<?xml version="1.0" encoding="iso-8859-1"?>
<!-- Generator: Adobe Illustrator 15.1.0, SVG Export Plug-In . SVG Version: 6.00 Build 0)  -->
<!DOCTYPE svg PUBLIC "-//W3C//DTD SVG 1.1//EN" "http://www.w3.org/Graphics/SVG/1.1/DTD/svg11.dtd">
<svg version="1.1" id="Layer_1" xmlns="http://www.w3.org/2000/svg" xmlns:xlink="http://www.w3.org/1999/xlink" x="0px" y="0px"
	 width="211.1px" height="191.8px" viewBox="0 0 211.1 191.8" style="enable-background:new 0 0 211.1 191.8;" xml:space="preserve"
	>
<g>
	<path style="fill-rule:evenodd;clip-rule:evenodd;fill:#898074;" d="M182.8,73.25l0.25,0.65L183,76.4
		c0.066-0.267,0.134-0.533,0.2-0.8c0.133-0.467,0.233-0.633,0.3-0.5c0.333,0.967,0.667,2.883,1,5.75c0.5,4.3,0.767,6.6,0.8,6.9
		l0.2,0.9l0.9,2.9l1.8,4.1c0.366,2.034,0.7,3.617,1,4.75c0.233,1.233,0.649,4.399,1.25,9.5c0,0.066,0.2,1.716,0.6,4.949l0.25,1.2
		c0.467,2.634,0.767,4.55,0.9,5.75c0.333,2.867,0.35,5.267,0.05,7.2c-3.434-7.066-5.134-11.616-5.1-13.65L187,114.2
		c-0.4,1.166-0.3,4.366,0.3,9.6c0.601,4.867,1.2,8.334,1.8,10.4l0.2,0.649l1.3,3.2c0.967,5.233,1.45,7.867,1.45,7.9
		c-1.866-1.733-2.967-4.467-3.3-8.2c0-3.333-0.1-5-0.3-5c-0.467,0-1.267-3.167-2.4-9.5c-1.3-7.267-2.1-11.35-2.399-12.25
		c-0.434-1.233-0.7-4.2-0.801-8.9c-0.1-4.399-0.533-7.366-1.3-8.899c-2.434-7.733-3.75-12.434-3.95-14.1
		c-0.1-0.967-0.416-2.85-0.949-5.65c-0.667-3.267-1.184-5.083-1.551-5.45c-1.233-0.833-2.1-1.517-2.6-2.05
		c-0.9-0.867-1.634-2.5-2.2-4.9l-0.35-0.35l-0.05,1.55c0,0.5,0.416,2.733,1.25,6.7c0.833,3.9,1.233,7.833,1.199,11.8l-1.199-1.65
		c0.033,0.333,0.05,0.667,0.05,1c-0.3-3.733-0.851-6.367-1.65-7.9c-2.3-4.667-4.033-11.4-5.2-20.2c0.267-0.267,0.4-0.617,0.4-1.05
		c0.167-0.333,0.884-0.5,2.15-0.5c2.633,0,4.416,0.316,5.35,0.95c0.7,0.5,1.066,1.383,1.1,2.65c0.067,2.3,0.134,3.6,0.2,3.9
		c0.334,1.733,1.184,3.316,2.55,4.75c0.4,2.733,1,6.083,1.801,10.05c-0.634-4.1-0.95-6.8-0.95-8.1L177,63.3l1.45,0.45
		c0.033,1.1,0.583,2.967,1.649,5.6c1.367,3.333,2.067,5.066,2.101,5.2l0.1-2.1L182.8,73.25z M207.6,166.1l-0.35-1.3l1.8-0.149
		l2.05,5.25c-0.399,0.267-0.899,0.517-1.5,0.75h-0.149C208.65,168.384,208.033,166.866,207.6,166.1z M199.1,174.25l0.7,2.1
		c-0.066,1.067-0.133,1.534-0.2,1.4c-0.5-1.066-1.25-3.583-2.25-7.55c-1.066-4-1.683-6.767-1.85-8.3
		c0.934,2.733,1.517,4.517,1.75,5.35C197.483,168.116,198.1,170.45,199.1,174.25z M196.5,186.4c-0.566-0.567-1.467-1.75-2.7-3.551
		c-1.267-1.899-2.033-3.233-2.3-4l-0.1-4.5c0.133,2.5,0.8,4.667,2,6.5c1.333,2.067,2.949,3.101,4.85,3.101L196.5,186.4z
		 M192.95,188.6l-0.101-0.3l0.301,0.2L192.95,188.6z M183.05,190.6l-0.899-5.35l-0.551-2c1.867,0.934,2.867,1.417,3,1.45
		c0.434-0.867,0.65-1.733,0.65-2.601c0-1.399-0.184-2.966-0.55-4.699c-0.867-4.101-1.45-6.934-1.75-8.5l-0.15-1.301
		c0.7,2.034,1.717,4.483,3.05,7.351c0.067,0.166,0.15,0.333,0.25,0.5c1.034,2.166,1.584,3.633,1.65,4.399c0,0.067,0,0.117,0,0.15
		c0,0.866-0.434,1.583-1.3,2.15c-0.867,0.566-1.3,1.083-1.3,1.55c0,0.833,0.733,1.649,2.199,2.45
		c2.301,1.267,3.817,2.216,4.551,2.85c-0.167,0.066-2.851,0.816-8.051,2.25L183.05,190.6z M172.35,191.5v-4.2
		c0.801,0,1.934,0.25,3.4,0.75c-0.634-4.267-0.95-6.733-0.95-7.399c0.334-3.7,0.5-6.584,0.5-8.65c0.3,1.066,0.75,3.667,1.351,7.8
		c0.733,5.101,1.116,9.101,1.149,12C174.2,191.6,172.384,191.5,172.35,191.5z M158.85,189l-0.1-1.1l0.95,1.05l0.3,0.1
		c0.1-2.3,0.217-4.8,0.35-7.5c-0.033,1.434-0.05,2.733-0.05,3.9c0,1.434,0.434,2.6,1.3,3.5c0.967,1,2.384,1.566,4.25,1.7
		c0.601,0.166,0.9-0.084,0.9-0.75c0-0.733-0.767-2.467-2.3-5.2l-0.2-0.351c1.066-0.199,2.434,0.617,4.1,2.45
		c1.5,1.634,2.483,3.167,2.95,4.601c-3.233-0.134-6.033-0.4-8.399-0.801l-3.601-1.3L158.85,189z M147.6,181.1l-3.75-1.3L138.7,178
		l-0.851-0.3c0.067-0.834-0.017-1.851-0.25-3.05c0.634,0.333,1.434,0.633,2.4,0.899c0.934,0.267,1.667,0.4,2.2,0.4
		c1.934,0,3.066-0.15,3.399-0.45c0.267-0.233,0.517-1.2,0.75-2.9c1.634-0.1,2.801-0.983,3.5-2.649c0.9-2.101,0.967-5.3,0.2-9.601
		v-0.199c-0.033-2.101,0.2-4.217,0.7-6.351c0.634-2.166,1.05-3.783,1.25-4.85c0.134,13.533,0.05,21.066-0.25,22.6
		c-0.066,0.3-0.233,0.517-0.5,0.65c-0.233,0.133-0.417,0.8-0.55,2c-0.101,0.866-0.367,1.45-0.8,1.75
		c-0.567,0.399-1.617,0.533-3.15,0.399c0.1,0.367,0.384,0.934,0.85,1.7c0.467,0.733,0.801,1.2,1,1.4
		C148.1,179.85,147.767,180.4,147.6,181.1z M101.75,123.15c0.033,1.6-0.05,4.017-0.25,7.25c-0.067,3.166,0.15,6.366,0.65,9.6
		c0.067,0.467,0.717,1,1.95,1.6c1.1,0.567,1.65,2.15,1.65,4.75c0,2.801-0.033,6-0.1,9.601c-0.167,6.366-0.4,10.783-0.7,13.25
		c-0.1,0.633-0.817,1.767-2.15,3.399c-1.833,2.167-3.15,3.884-3.95,5.15c-3.5,0.5-5.583,0.75-6.25,0.75c-0.567,0-1.817-0.1-3.75-0.3
		c-2-0.2-3.167-0.367-3.5-0.5l9.05,0.2c2.434,0,3.983-0.784,4.65-2.351c0.633-1.434,0.983-4.783,1.05-10.05
		c0-0.366,0.566-4.983,1.7-13.85c0-0.667-0.216-1.601-0.65-2.801c-0.433-1.233-0.65-2.517-0.65-3.85
		c0.1-1.533,0.15-12.733,0.15-33.6L101.75,123.15z M125,121c-1.7,0-3.15,0.8-4.35,2.4c-1.2,1.566-1.801,3.466-1.801,5.699
		l-0.3,10.15l0.65-2.75c0.033,6.4,0.166,11.15,0.399,14.25c0,1.3-0.3,2.3-0.899,3l-0.95,0.75c0,1.333,1.017,2.884,3.05,4.65
		c1,0.899,2.066,1.767,3.2,2.6c0.267,0.467,0.4,1.3,0.4,2.5c0,0.634-0.017,1.417-0.051,2.35c0,0.834,0.584,1.834,1.75,3
		c1.834,1.801,2.9,2.9,3.2,3.301v0.05c-0.899-0.566-2.366-1-4.399-1.3c-2.801-0.434-4.551-0.75-5.25-0.95
		c-1.601-1.434-2.95-3.783-4.051-7.05c-1.399-4.233-2.1-9.4-2.1-15.5c0-3.534,0.3-8.884,0.9-16.051
		c0.6-7.199,0.899-12.6,0.899-16.199c0-3-0.2-6.584-0.6-10.75c-0.467-4.134-0.767-6.834-0.9-8.101V96.65
		c-0.066-2.634-0.35-6.984-0.85-13.05c-0.566-7.434-1.117-12.45-1.65-15.05c0.5-5.633,0.684-9.117,0.55-10.45l1.301-0.25l0.199,0.45
		c0.367,1.367,0.934,3.35,1.7,5.95c0.667,2.7,1.283,6.117,1.851,10.25c0.533,3.833,1.216,8.933,2.05,15.3
		c0.8,5.067,1.85,9.4,3.149,13c0.367-0.6,0.551-1.45,0.551-2.55c-0.167-11.233-0.25-19-0.25-23.3c0-0.967-0.351-3.05-1.051-6.25
		c-0.733-3.167-1.1-5.85-1.1-8.05c0-1.167,0.1-2.517,0.3-4.05c0.733,1.233,1.667,2.117,2.8,2.65c0.667,0.3,1,1.25,1,2.85
		c0,1.7,0.784,3.667,2.351,5.9c0.6,0.867,1.866,2.383,3.8,4.55c0.033,0.067,0.467,1.1,1.3,3.1c0.867,2.1,1.316,3.467,1.351,4.1
		l0.199-1.85c0.067,1.033,0.15,3.8,0.25,8.3c0.101,4.3,0.267,8.1,0.5,11.399c0.233-7,0.417-12.433,0.551-16.3
		c-0.034,8.833,0.017,16.316,0.149,22.45l-0.1,0.8l-0.101,0.25c-1.066-1.1-2.083-5.283-3.05-12.55
		c-1.066-7.867-1.899-12.417-2.5-13.65l-0.35-0.35c-0.267,0.8-0.684,3.333-1.25,7.6c0,0.667,0.283,5.583,0.85,14.75
		c-0.033-2.133-0.05-4.566-0.05-7.3l0.2-2l0.149-0.55l1.25,10.9c-0.433,3.533-0.6,6.616-0.5,9.25c-0.133,1.1-1.399,2.183-3.8,3.25
		c0.9-1.634,1.717-2.784,2.45-3.45c0.434-0.4,0.667-0.717,0.7-0.95c-0.2-1.767-0.334-4.733-0.4-8.9c-0.033,2.067-0.3,3.45-0.8,4.15
		c-0.3,0.4-0.9,0.717-1.8,0.95c-1.767,0.434-2.65,2.816-2.65,7.149c0,0.367,0.217,0.684,0.65,0.95
		c0.233,0.134,0.533,0.267,0.899,0.4l-1.449,0.649l-1.051,0.65c1.934,0,4,0.134,6.2,0.4c-0.899,0-1.666,0.283-2.3,0.85
		C125.333,119.533,125,120.2,125,121z M107.8,75.4c0.467-2.733,0.7-6.033,0.7-9.9c0.6,0.567,0.95,1.65,1.05,3.25
		c0,0.2,0,1.933,0,5.2C109.45,74.65,108.866,75.133,107.8,75.4z M102.2,76.5c-0.434,0.067-0.867,0.1-1.3,0.1
		c0.8-1.267,1.817-2.15,3.05-2.65c1.399-0.567,2.467-1.284,3.2-2.15c0,1.333-0.601,2.467-1.801,3.4
		c-0.233,0.167-0.466,0.333-0.7,0.5c-0.1-0.067-0.217-0.1-0.35-0.1c-0.6,0.267-1.216,0.533-1.85,0.8
		C102.35,76.433,102.267,76.467,102.2,76.5z M71.2,173.7l-1.85-4.8c-0.2-1.301-0.767-7.101-1.7-17.4c0.233-2.866,0.8-8.6,1.7-17.2
		c0.433-4,0.65-8.45,0.65-13.35c0-0.867-0.2-1.783-0.6-2.75c-0.433-1-0.65-1.684-0.65-2.05c0.067-9.733,0.083-14.95,0.05-15.65
		l0.05-4.7C68.417,80,68.1,67.467,67.9,58.2l-1.3,17.35c-0.4-0.833-0.8-2.733-1.2-5.7c-0.467-3.333-0.7-6.55-0.7-9.65
		c0-2.5,0.667-5.367,2-8.6c1.233-2.967,1.767-5.2,1.6-6.7c0.2,0.133,0.45,0.317,0.75,0.55c0.267,0.133,0.617,0.2,1.05,0.2
		c1.5,0,3.033-0.783,4.6-2.35l3.95-4.05c0.133,1.267,0.45,4.033,0.95,8.3c0,1.467-0.217,3.8-0.65,7c-0.434,3.2-0.65,6.967-0.65,11.3
		c0,2.2,0.217,4.983,0.65,8.35c0.2,1.7,0.417,3.417,0.65,5.15c0.133,2.267,0.2,4.333,0.2,6.2c0,2.1-0.183,10.083-0.55,23.95
		c-0.4,15.767-0.767,27.1-1.1,34c-0.7,0.934-1.417,2.167-2.15,3.7c-1.267,2.6-1.867,4.85-1.8,6.75c0.033-0.033,0.283-0.2,0.75-0.5
		c-0.233,0.767-0.467,1.866-0.7,3.3c-0.2,1.333-0.3,2.267-0.3,2.8c0,4.233,0.683,7.934,2.05,11.101
		c0.767,1.699,1.783,3.483,3.05,5.35l-7.35-2.15L71.2,173.7z M60.25,172.75c-0.333-1.267-0.5-2.75-0.5-4.45
		c0-2.166,0.3-5.316,0.9-9.45c1.2,0.101,1.8,0.117,1.8,0.051c0.133,3.199,0.15,7.767,0.05,13.699L60.25,172.75z M50.5,177.8
		c-0.267-1.366-0.583-2.666-0.95-3.899c-0.8,2.433-1.316,4.466-1.55,6.1l-0.6,0.3l-0.65,0.3h-0.1c0-2.8-0.066-5.383-0.2-7.75
		c2.5-0.466,3.883-0.833,4.15-1.1c0.566-0.6,0.967-2.667,1.2-6.2c0.1-1.7,1.034-5.767,2.8-12.2c1.667-6.133,2.5-10.449,2.5-12.949
		c0-1.534-0.517-4.051-1.55-7.551C54.517,129.35,54,125.7,54,121.9c0-0.101,0.433-5.301,1.3-15.601
		c0.267-1.833,0.917-4.633,1.95-8.399c0.933-3.467,1.4-5.234,1.4-5.3c-1.566-1.533-2.566-2.6-3-3.2l0.3-0.55
		c0.033,0,0.367,0.066,1,0.2c0.767,0.233,1.417,0.534,1.95,0.9c0.4,1.733,0.883,2.767,1.45,3.1c0.333,0.167,0.767,0.284,1.3,0.35
		c0.8,0.633,1.2,5.667,1.2,15.1c0,0.4-0.434,1.2-1.3,2.4c-0.9,1.233-1.35,3.033-1.35,5.399c0,0.334,0.466,2.267,1.4,5.8
		c0.9,3.5,1.35,7.117,1.35,10.851c0,0.934-0.067,3.149-0.2,6.649c-0.2,4.167-0.383,6.9-0.55,8.2c-0.967-0.8-1.45-1.95-1.45-3.45
		c-0.033-2.666-0.4-5.216-1.1-7.649l-1.1-2.55c-0.9-2.067-1.816-4.434-2.75-7.101l-0.3-1.2c0.067,1.534,0.6,4.634,1.6,9.301
		c0.933,4.466,1.4,8.017,1.4,10.649c0,0.667-0.517,4.5-1.55,11.5c-1.034,6.967-1.65,10.783-1.85,11.45c-0.2,0.6-0.65,1.7-1.35,3.3
		c-0.367,0.867-0.65,1.834-0.85,2.9L50.5,177.8z M46.05,172.7l-1.4,8.3c-0.5,0.066-1.133,0.066-1.9,0l-0.95-0.05
		c-3.133-0.467-5.583-0.75-7.35-0.851l-0.35-0.05c0.1-0.866,0.25-2.416,0.45-4.649c0.233-3.233,0.367-6.233,0.4-9
		c0.4,0.566,1.633,1,3.7,1.3c2.3,0.333,3.717,0.666,4.25,1c0.367,0.233,0.883,0.866,1.55,1.899
		C45.15,171.667,45.683,172.366,46.05,172.7z M4.25,175.1c-0.233-0.767-0.567-1.5-1-2.199c0.4-0.801,0.95-2.617,1.65-5.45
		c0.7-2.7,1.05-4.334,1.05-4.9l-0.2-3.25c-0.1,0.5-0.817,2.533-2.15,6.101c-0.7,1.866-1,4.183-0.9,6.949l-0.85-0.85
		c1.233-8.1,3.033-15.283,5.4-21.55c1.6-4.2,2.4-10.033,2.4-17.5L9.6,127.6c-0.567,6.067-1.783,13.483-3.65,22.25
		C3.75,160.217,1.767,166.434,0,168.5c2.2-4.333,3.117-11.5,2.75-21.5c-0.4-11-0.167-18.033,0.7-21.1
		c1.267-4.367,2.533-7.65,3.8-9.851c1.133-1.6,1.883-2.833,2.25-3.7c0.7-1.699,1.15-7.649,1.35-17.85l-0.15-38
		c-0.167-4.8-0.067-8.417,0.3-10.85c0.433-2.867,0.6-8.6,0.5-17.2v-2.8c0.033-5.767,0.133-11.15,0.3-16.15
		c1.4,4.367,1.934,8.6,1.6,12.7c-0.2,2.333-0.533,5.95-1,10.85c0,0.067,0.083,1.483,0.25,4.25c0.267,3,0.633,5.217,1.1,6.65
		c0.9,2.833,2.683,20.767,5.35,53.8c0,0.333-0.184,1.384-0.55,3.15c-0.367,1.733-0.55,2.767-0.55,3.1c0,1.333,0.15,2.217,0.45,2.65
		c0,0.066,0,0.183,0,0.35c0,0.134,0.033,0.267,0.1,0.4c0.067,0.1,0.167,0.183,0.3,0.25c0.1,0.033,0.2,0.017,0.3-0.051
		c0.1-0.066,0.184-0.183,0.25-0.35c0.833-0.267,1.317-0.566,1.45-0.9c0.066-0.133,0.233-1.083,0.5-2.85
		c0.167,1.934,0.25,3.134,0.25,3.6c0,1-0.217,1.867-0.65,2.601c-0.4,0.633-1.45,1.95-3.15,3.95c-0.4,0.5-0.6,0.933-0.6,1.3
		c-0.2,0.434-0.267,2-0.2,4.7c0,0.199,0,0.416,0,0.649c0.033,2.334-0.217,4.75-0.75,7.25c-0.233,1.634-0.517,2.75-0.85,3.351
		c-0.5,1.333-0.767,2.533-0.8,3.6c-0.767,4.066-1.3,7.6-1.6,10.6c-0.333,3.334-0.5,7.25-0.5,11.75l0.25,7.25
		c0.867-0.399,2.067-1.75,3.6-4.05c1.8-2.7,3.017-4.35,3.65-4.95c-1.967,9.334-3.083,14.767-3.35,16.301
		c-0.267,1.633-0.9,6.083-1.9,13.35l-3.9-0.75c-4.6-0.667-6.9-1.983-6.9-3.95C4.183,177.517,4.283,175.866,4.25,175.1z M34,145.2
		l-0.05-12c0-0.5,0.083-2.134,0.25-4.9c0.133-2.767,0.25-4.767,0.35-6c0.4,1.533,0.934,3.967,1.6,7.3c0.333,1.567,0.667,2.5,1,2.801
		c0.567,0.566,3.067,0.55,7.5-0.051c2.467,0,4.333,0.584,5.6,1.75c-0.267,0.267-2.85,0.7-7.75,1.301
		c-4.5,0.566-7.133,1.883-7.9,3.949l0.05-1.699L34,145.2z M31.2,0l2.55,0.1l6.6,3.25c-0.367,2.8-0.05,4.617,0.95,5.45
		c0.567,0.5,1.983,0.883,4.25,1.15c5.3,0.633,9.133,3.8,11.5,9.5c-0.8-0.4-1.75-0.684-2.85-0.85c-0.934-0.1-1.45-0.167-1.55-0.2
		c-0.233,1.033-0.45,2.167-0.65,3.4l-0.6-0.35c0.067,0.3,0.3,1.35,0.7,3.15c0.4,1.933,0.633,3.467,0.7,4.6
		c-0.133,6.133-0.4,13.167-0.8,21.1l-0.15,0.8c-0.467-2.434-0.767-5.7-0.9-9.8c-0.133-4.133-0.184-12.45-0.15-24.95
		c-0.867,0-1.5-0.05-1.9-0.15c-0.4-0.133-0.717-0.2-0.95-0.2c-0.4,0-0.817,0.133-1.25,0.4c-0.4,0.333-0.684,0.55-0.85,0.65
		L45.3,17.3l-0.75,0.1c-0.233-0.367-0.417-0.633-0.55-0.8c-0.167-0.267-0.45-0.467-0.85-0.6c-1.133,2.1-1.533,6.133-1.2,12.1
		c0.167,3.033,0.483,6.133,0.95,9.3c0.233,2.033-0.566,5.733-2.4,11.1c-0.933,2.767-1.7,5.383-2.3,7.85
		c-0.867,2.6-1.317,5.367-1.35,8.3l-0.1,8.85c-0.033,0.233-0.05,0.517-0.05,0.85c-0.067,2.167,0.066,4.1,0.4,5.8
		c0.333,1.7,0.783,2.684,1.35,2.95c0.533,0.267,1.233-1.517,2.1-5.35l0.4-0.5c0.8,1.333,1.85,2.717,3.15,4.15
		c1.4,1.567,2.367,2.35,2.9,2.35c0.133,0,1.117-0.133,2.95-0.4c2.133-0.3,4-0.45,5.6-0.45c0.9,0,1.8-0.55,2.7-1.65
		c0.833-1,1.25-1.8,1.25-2.4c-0.1-0.9-0.2-1.9-0.3-3c-0.233-2.233-0.35-4.917-0.35-8.05c-0.367,0-2.233-0.367-5.6-1.1
		c-0.5-0.333-1.483-0.583-2.95-0.75c-2.2-0.133-4.133-0.284-5.8-0.45c2.833-1,5.55-1.433,8.15-1.3c2.267,0.133,4-0.1,5.2-0.7
		c0.566-0.267,0.85-0.45,0.85-0.55c0.167-0.7,0.25-3.133,0.25-7.3c0-3.267,0.267-7.717,0.8-13.35l0.3-1.75
		c-0.367,0.534-0.983,1.617-1.85,3.25c-1.267,2.333-2.233,4.083-2.9,5.25l-0.5,0.7l0.25-2.4c0.133-1.367,0.184-3.25,0.15-5.65v-6.1
		c0.066-0.5,0.3-1.4,0.7-2.7c0.4-1.3,0.633-1.95,0.7-1.95c0.333,0,0.383,0.15,0.15,0.45c-0.267,0.3-0.233,0.45,0.1,0.45
		c0.4,0,0.583-0.3,0.55-0.9c-0.033-0.9-0.033-1.4,0-1.5l0.4-0.9l0.35,4.7l4.85,3.2c2.367,0,3.7,0.617,4,1.85
		c0.2,0.733,0.167,2.05-0.1,3.95c0,0.433,0.017,0.683,0.05,0.75c0.033,0.067,0.083,0.167,0.15,0.3c0.233,0.434,0.533,0.867,0.9,1.3
		c-2.167,4.9-3.983,8.717-5.45,11.45C62.183,57.417,62,62.983,62,72.75c0,1.133,0.35,2.1,1.05,2.9c0.667,0.8,1,1.55,1,2.25
		c0,3.9-0.167,6.934-0.5,9.1c-0.167,1.167-0.417,2.65-0.75,4.45v0.45c-0.466-1.1-1.1-2.25-1.9-3.45c0-0.6-0.367-1.117-1.1-1.55
		c-0.767-0.433-1.667-0.65-2.7-0.65c-0.2-0.233-0.3-0.367-0.3-0.4c-0.2-0.133-0.517-0.2-0.95-0.2c-3.8,0-9.267,0.283-16.4,0.85
		c0,0.167-0.233,0.333-0.7,0.5c1.533,0.733,4.383,1.033,8.55,0.9l-0.4,0.15l-7.55,1c-1.033,0.167-1.833,0.4-2.4,0.7l-0.45,0.6
		c-0.2,0.566-0.45,4.033-0.75,10.4c-0.233,4.9-0.4,9.366-0.5,13.4c-0.267,1.6-0.65,5.233-1.15,10.899
		c-0.967,8.334-2,18.066-3.1,29.2c-1.1,7.967-3.067,14.833-5.9,20.6l-0.6,0.801l0.1-4.801l-0.15-1.899
		c-2.534,5.366-3.9,8.217-4.1,8.55v-2.1L20.3,177.6c-0.6,0.867-1.033,1.45-1.3,1.75l-0.25-0.149c-0.2-0.8-0.3-1.467-0.3-2
		c0-4.3,0.117-7.851,0.35-10.65c0.2-2.1,0.65-5.649,1.35-10.649l0.05-0.25c0.4,3.6,1.05,6.25,1.95,7.949
		c0.7,1.301,1.517,1.95,2.45,1.95c0.667,0,0.85-0.017,0.55-0.05c2.667-8.134,4.467-17.65,5.4-28.55
		c0.767-9.033,1.15-22.267,1.15-39.7c0-12.533,1.25-26.417,3.75-41.65s3.75-24.633,3.75-28.2c-0.3-3.066-0.467-4.883-0.5-5.45
		c-0.167-0.233-0.367-0.434-0.6-0.6c-0.467,0.767-0.767,1.25-0.9,1.45c-0.3-3.533-0.517-6.133-0.65-7.8
		c-0.2-2.767-0.3-5.783-0.3-9.05c0-1.3-0.2-2.434-0.6-3.4c-0.333-0.8-0.683-1.3-1.05-1.5L33.3,1.8c-0.133,0-0.216,0.017-0.25,0.05
		c-0.133,0.1-0.25,0.2-0.35,0.3l-1.25,0.7c-1,0.433-1.667,0.733-2,0.9C28.95,3.983,28,4.6,26.6,5.6c-1.4,0.1-2.434,0.15-3.1,0.15
		c-0.533,0-1.083-0.083-1.65-0.25c-0.633-0.133-1.05-0.317-1.25-0.55c0.3-1.1,1.983-2.117,5.05-3.05
		C29.083,0.867,30.933,0.233,31.2,0z M24.15,11.45L24.5,9.8c0,0.167-0.033,0.45-0.1,0.85C24.3,11.117,24.217,11.383,24.15,11.45z
		 M18.8,42.05c-0.633-10.767-0.95-17.617-0.95-20.55c0-3.267,0.417-5.867,1.25-7.8c0.7-1.6,1.95-3.25,3.75-4.95
		c0.066,0.567,0.05,2.017-0.05,4.35c-0.633,0.667-1.583,2.566-2.85,5.7c-1.2,3-1.8,4.8-1.8,5.4c0,0.333,0.1,2.533,0.3,6.6
		C18.65,35.433,18.767,39.183,18.8,42.05z M98.9,56.8c-0.5-1.833-1.017-4.167-1.55-7c-0.467-2.5-0.717-4.033-0.75-4.6
		c0-0.067,0.017-0.15,0.05-0.25c0.067-0.2,0.15-0.35,0.25-0.45c0.8,0.7,1.517,1.533,2.15,2.5l0.55,0.95
		c0.233-4.633-0.65-7.517-2.65-8.65c-0.1-0.066-0.367-0.15-0.8-0.25v-1.2c-2.633-0.067-4.733-0.117-6.3-0.15
		c-1.133-0.267-2.417-0.534-3.85-0.8l-0.7-0.4c0.3-0.1,1.967-0.15,5-0.15l9.05,0.5l-0.1,0.4c0.233,2.167,0.6,4.4,1.1,6.7
		c0.333,1.566,0.5,3.117,0.5,4.65c0,0.933-0.083,1.517-0.25,1.75c-0.133,0.233-0.533,0.333-1.2,0.3
		c-0.433,0.767-0.65,1.667-0.65,2.7L98.9,56.8z M134.35,71.45l0.25,2.25c-2.033-1.567-3.816-3.35-5.35-5.35
		c-0.233-0.3-0.434-0.583-0.6-0.85c-1.067-1.567-1.801-3.1-2.2-4.6c-0.533-2.033-0.483-4.05,0.149-6.05L124,56.8
		c-0.2-0.466-0.366-0.9-0.5-1.3l-0.2-0.5l0.4,1.75c-0.533-0.467-0.983-1.383-1.351-2.75c-0.333-1.233-0.483-2.2-0.449-2.9
		c1.399-0.133,5.483-0.2,12.25-0.2c0.966,0,1.966-0.2,3-0.6l0.1-0.1c0.2-0.2,0.35-0.434,0.45-0.7c0.533,1.667,0.8,2.733,0.8,3.2
		c0,0.667-0.217,1.433-0.65,2.3c-0.5,0.933-0.783,2.583-0.85,4.95c-0.033,0.3-0.384,0.816-1.05,1.55c-0.167-0.133-0.3-0.233-0.4-0.3
		c-0.166-0.1-0.45-0.15-0.85-0.15c-0.367,0-0.783,0.517-1.25,1.55c-0.467,1.1-0.7,2.183-0.7,3.25c0,1.333,0.167,2.367,0.5,3.1
		C133.45,69.417,133.816,70.25,134.35,71.45z M155.8,91.35l-2.05,1.35l0.7,0.35h-0.05c-0.867,0-1.601,0.45-2.2,1.35
		c-0.634,0.867-0.95,1.933-0.95,3.2c-0.2-5.2-0.533-9.899-1-14.1l2,4.4c0,0.967,0.35,1.783,1.05,2.45
		C154,91.017,154.833,91.35,155.8,91.35z M146.45,98.95c-0.2-5.233-0.467-9.917-0.8-14.05c-0.101-1.333-0.684-5.2-1.75-11.6
		c-1.034-6.1-1.551-9.183-1.551-9.25c0-0.767,0.217-2.716,0.65-5.85c0.267-2.034,0.4-3.383,0.4-4.05c0-1.467-0.4-4.95-1.2-10.45
		c-0.867-5.9-1.351-9.9-1.45-12c0.033,6.066,0.1,10.35,0.2,12.85c0,0.667-0.05,1.2-0.15,1.6l-0.149,0.6
		c-0.601-2.033-1.2-6.067-1.801-12.1c-0.5-5.833-0.783-9-0.85-9.5c0.2-4.3,1.967-6.533,5.3-6.7c3.767,0,6.851,0.4,9.25,1.2
		c-1.434,0.467-2.583,1.4-3.45,2.8c-0.633,1.466-1.083,2.333-1.35,2.6c-0.2,0.233-1.083,0.45-2.65,0.65
		c-0.966,0.133-1.449,1.3-1.449,3.5c0,2.3,0.066,3.917,0.199,4.85c0.134,0.934,0.617,4.1,1.45,9.5l0.45,5.9
		c0.066,3.233,0.184,6.083,0.35,8.55L146.45,98.95z M167.3,93.4c0.434-0.1,0.667-0.45,0.7-1.05c0.833-0.2,1.45-0.567,1.85-1.1
		c0.233-0.333,0.65-0.983,1.25-1.95l0.2,2.45c0.066-2.1,0.101-4.05,0.101-5.85c0.5,16.034,0.75,24.383,0.75,25.05
		c0.033,8.333,0.316,15.333,0.85,21c0.3,2.967,0.634,6.283,1,9.95v0.699c-0.033-0.433-0.267-1.416-0.7-2.949
		c-0.1-0.334-0.184-0.634-0.25-0.9c1.367,9.366,2.566,17.1,3.601,23.2c0.933,5.6,1.699,10.517,2.3,14.75
		c-0.667-1.934-1.533-5.233-2.601-9.9c-0.1-0.434-0.816-3.75-2.149-9.95l0.35,9.351c-0.5-2.267-0.85-5.634-1.05-10.101
		c-0.2-3.533-0.366-9.333-0.5-17.399c-0.366-1.3-0.566-2.117-0.6-2.45c-0.301-0.1-0.551-1.384-0.75-3.85
		c-0.334-4.601-0.4-15.367-0.2-32.301c-0.066,1.267-0.167,3.351-0.3,6.25c-0.067-0.199-0.4-2.767-1-7.699
		c-0.4-3.034-1.233-4.8-2.5-5.3l-0.101,0.3L167.3,93.4z M178.65,75.95c0.366,1.7,1.483,5.633,3.35,11.8c0.233,0.7,0.4,0.933,0.5,0.7
		c-0.134-1.067-0.366-2-0.7-2.8c-0.7-1.633-1.583-4.316-2.649-8.05L178.65,75.95z M162.5,94.1l-1.1-0.05
		c-0.7-0.333-1.267-0.483-1.7-0.45c-1.334,0-2.05,0-2.15,0l-1.149-0.55c0.433-0.033,1.8,0,4.1,0.1c0.667,0,1.25-0.033,1.75-0.1
		l0.15-1.9c0.233,0.067,0.716,0.217,1.449,0.45s1.417,0.383,2.051,0.45v0.15c-0.233,0.033-0.717,0.283-1.45,0.75
		C163.184,93.683,162.533,94.067,162.5,94.1z M149.8,126.6c0.101,0.667,0.233,1.184,0.4,1.551c1.566-1.067,2.25-2.117,2.05-3.15
		c-0.5-0.8-0.65-1.2-0.45-1.2c0.4,0,0.601-0.149,0.601-0.45c-0.101-0.5-0.15-0.916-0.15-1.25c-0.533-9.033-0.866-16.216-1-21.55
		c0.167,2.434,1,8.717,2.5,18.851c1.333,8.966,2,16.033,2,21.199c0,3.167-0.267,6.134-0.8,8.9c-1.2,6.4-2.033,11.15-2.5,14.25
		c0-6.934-0.066-12.3-0.2-16.1c0.2-1.233,0.3-2.551,0.3-3.95c0-1.834-0.416-4.8-1.25-8.9C150.366,130.3,149.866,127.566,149.8,126.6
		z M110.1,98.45c0,7.033-0.05,13.649-0.149,19.85c-0.7,3.934-1.017,7.634-0.95,11.101c-0.467,2.033-0.833,4.366-1.1,7
		c-0.301,1.633-1.067,2.433-2.301,2.399l-0.55-1.3c-0.1-1.366-0.35-2.983-0.75-4.85l0.7,1.85l2.15-31.25c0-0.7-0.217-2.15-0.65-4.35
		c-0.434-2.2-0.65-4.067-0.65-5.601c0-0.966,0.4-2.85,1.2-5.65c0.834-3.033,1.3-5.033,1.4-6c0.399,1.533,0.633,2.783,0.7,3.75
		C109.283,86.6,109.6,90.95,110.1,98.45z M157.45,180.95l-0.75-3.2l0.899-2.95c0.067,0.601,0.101,2.983,0.101,7.15L157.45,180.95z
		 M194.6,157.75c-0.466-1.833-0.767-3.083-0.899-3.75c-0.233-1.033-0.367-2.066-0.4-3.1
		C193.434,151.033,193.866,153.316,194.6,157.75z M200.05,163.8c-0.866-1.8-1.467-3.1-1.8-3.899c-0.566-1.367-0.9-3-1-4.9
		l-0.05-0.65c0.033,0.167,0.483,1.417,1.35,3.75C199.417,160.667,199.917,162.566,200.05,163.8z M204.45,165.05
		c-0.3,0.367-0.5,0.617-0.601,0.75c-0.199,0.233-0.466,0.351-0.8,0.351c-0.7,0-1.5-0.267-2.399-0.801l-0.5-1.35
		c0.466,0.434,0.85,0.7,1.149,0.8C201.866,164.967,202.917,165.05,204.45,165.05z M101.6,59.45l-0.9,7.35
		c0.2,1.267,0.3,2.55,0.3,3.85l-0.25,0.95l-0.2,0.3v-5.1h0.15c-0.067-0.9-0.184-1.867-0.35-2.9c-0.267-1.4-0.5-2.633-0.7-3.7
		c0.167-0.233,0.783-3.05,1.85-8.45c0.2,0.167,0.5,0.483,0.9,0.95c0.4,0.466,0.633,0.767,0.7,0.9c0.3-0.633,0.467-1.7,0.5-3.2
		c0.1,0.267,0.833,2.483,2.2,6.65c1.367,4.3,2.05,7.05,2.05,8.25l-0.699,6.2c-0.967,0.1-1.534,0-1.7-0.3
		c-0.167-0.333-0.2-2.4-0.101-6.2c0.034-1.633-0.1-3.7-0.399-6.2c-0.267-2.133-0.483-3.4-0.65-3.8l-0.55-0.7
		c-0.3,4.867-0.633,6.483-1,4.85c0.2-1.933,0.3-3.533,0.3-4.8l-0.25,0.8l-0.25,0.8c0.067-1.267-0.066-2.333-0.4-3.2l-0.5,5.95
		L101.6,59.45z M106.2,79l0.5-0.2l0.149,0.2H106.2z M137,132.55l0.5,9.75l-1.4-5.25c0.601,5.8,1.167,10.434,1.7,13.9
		c0.233,1.633,0.351,3.1,0.351,4.399c0,0.4-0.101,0.767-0.301,1.101c-0.166,0.233-0.517,0.633-1.05,1.2
		c0.066-0.7,0.101-1.384,0.101-2.051c0-3.399-0.384-7-1.15-10.8c-0.8-3.767-1.2-8.866-1.2-15.3c0-3.2-0.217-5.533-0.649-7
		c-0.601-1.4-1.084-2.667-1.45-3.8c0.033,0,1.517,0.083,4.45,0.25c-0.267,2.066-0.4,3.184-0.4,3.35
		C136.5,123.1,136.667,126.517,137,132.55z M138.8,112.45l1.851-1.2c0.3,0,0.566-0.066,0.8-0.2c0.2-0.166,0.3-0.366,0.3-0.6
		c1.033-0.233,2.1-0.384,3.2-0.45c0.6,0,1.316-0.017,2.149-0.05c0.101,1.2,0.15,2.416,0.15,3.649c0,0.667-0.033,1.317-0.1,1.95
		c0.333,0.033,0.166,0.05-0.5,0.05c-1.434,0-3.101-0.449-5-1.35C140.05,113.483,139.1,112.884,138.8,112.45z M132.5,112.4
		l-0.4,1.149c-1-1.2-1.483-3.583-1.449-7.149c0.233,0.899,0.517,2.116,0.85,3.649C131.8,111.217,132.134,112,132.5,112.4z
		 M48.8,64.9c1.333,0.567,2.35,0.867,3.05,0.9c0.733,0.034,3.333,0.034,7.8,0c-0.833-0.433-1.4-0.716-1.7-0.85
		c-0.4-0.167-1.017-0.25-1.85-0.25c-2.533,0.1-4.583,0.15-6.15,0.15L48.8,64.9z M135,164.85c0.134-0.899,0.283-1.5,0.45-1.8
		c0.3,0,0.566-0.149,0.8-0.45c0.2-0.333,0.3-0.716,0.3-1.149c0.667-0.667,1.867-1.65,3.601-2.95c0.666-0.5,1-1.217,1-2.15
		c0-1.1-0.267-2.583-0.801-4.449c-0.966-3.167-1.899-6.267-2.8-9.301l-0.05-7.55c0.2,1,1.434,5,3.7,12
		c2.166,6.767,3.25,10.233,3.25,10.4c0,1.166-1.134,2.184-3.4,3.05c-2.767,1.033-4.6,2.25-5.5,3.65L135,164.85z M135.05,128.85
		c0.233,3.167,0.584,5.9,1.05,8.2l-1.3-12.5C134.866,125.35,134.95,126.783,135.05,128.85z M133.2,170.75
		c-0.434-2.767-0.684-4.684-0.75-5.75c0.166,0.2,0.366,0.866,0.6,2L133.2,170.75z M161.05,158.2c0-0.5,0-1,0-1.5
		c0.066-2.834,0.15-5.334,0.25-7.5C161.233,151.967,161.15,154.967,161.05,158.2z"/>
	<path style="fill-rule:evenodd;clip-rule:evenodd;fill:#9B9286;" d="M188.2,95.65c0.967,1.2,1.649,3.3,2.05,6.3
		c0.4,2.767,0.467,5.416,0.2,7.95c-0.601-5.101-1.017-8.267-1.25-9.5C188.9,99.267,188.566,97.684,188.2,95.65z M183.5,75.1
		c-0.066-0.133-0.167,0.033-0.3,0.5c-0.066,0.267-0.134,0.533-0.2,0.8l0.05-2.5L183.5,75.1z M209.05,164.65l-1.8,0.149
		c-0.866-2.5-1.4-3.967-1.6-4.399c-0.534-0.9-1.267-2.284-2.2-4.15l1.2,6.8c0,0.867-0.067,1.533-0.2,2
		c-1.533,0-2.584-0.083-3.15-0.25c-0.3-0.1-0.684-0.366-1.149-0.8l-0.101-0.2c-0.133-1.233-0.633-3.133-1.5-5.7
		c-0.866-2.333-1.316-3.583-1.35-3.75l0.05,0.65l-0.1-1c0.733-0.733,1.133-1.1,1.199-1.1c0.4,0,1.134,0.6,2.2,1.8l0.101-0.3
		c-0.301-2.167-1.634-4.983-4-8.45c-1.067-5.667-1.867-9.483-2.4-11.45c-0.267-1.033-0.934-2.866-2-5.5
		c0.3-1.934,0.283-4.333-0.05-7.2c-0.134-1.2-0.434-3.116-0.9-5.75c1.033,5.2,2.117,9.45,3.25,12.75
		c2.334,6.867,7.25,18.983,14.75,36.351L209.05,164.65z M207.25,171.4c0.767-0.233,1.5-0.483,2.2-0.75h0.149
		C208.866,170.917,208.083,171.167,207.25,171.4z M192.05,145.95l1.25,4.95c0.033,1.033,0.167,2.066,0.4,3.1
		c0.133,0.667,0.434,1.917,0.899,3.75c0.267,1.434,0.567,2.816,0.9,4.15c0.167,1.533,0.783,4.3,1.85,8.3
		c1,3.967,1.75,6.483,2.25,7.55c-0.267,2.1-0.416,3.233-0.449,3.4c-0.101,0.533-0.4,1.466-0.9,2.8c-1.9,0-3.517-1.033-4.85-3.101
		c-1.2-1.833-1.867-4-2-6.5l0.1,4.5l-0.1-0.899c0.066,1.333,0.35,3.233,0.85,5.7c0.5,2.566,0.9,4.149,1.2,4.75l-0.3,0.1l-0.301-0.2
		c-1.833-5.133-2.966-8.333-3.399-9.6c-0.601-1.733-1.084-3.717-1.45-5.95l0.15,1.55c0.267,2.2,0.816,4.684,1.649,7.45
		c0.434,1.566,1.134,3.983,2.101,7.25c-0.733-0.634-2.25-1.583-4.551-2.85c-1.466-0.801-2.199-1.617-2.199-2.45
		c0-0.467,0.433-0.983,1.3-1.55c0.866-0.567,1.3-1.284,1.3-2.15c0-0.033,0-0.083,0-0.15c0.134,0.301,0.267,0.601,0.4,0.9
		c-0.934-4.866-1.567-8.583-1.9-11.15c-0.333-2.566-0.8-7.233-1.4-14c-0.1-1.267-0.75-4.949-1.949-11.05
		c-1.334-6.666-2.167-10.816-2.5-12.45l-0.15,0.351c-0.4,6.033,0.033,13.666,1.3,22.899c1.066,7.7,2.5,14.233,4.3,19.601
		c-1.333-2.867-2.35-5.316-3.05-7.351l0.15,1.301c0.3,1.566,0.883,4.399,1.75,8.5c0.366,1.733,0.55,3.3,0.55,4.699
		c0,0.867-0.217,1.733-0.65,2.601c-0.133-0.033-1.133-0.517-3-1.45l0.551,2l-1.051-3.45c0.2-1.333-0.033-2.517-0.699-3.55
		c-0.301-0.467-0.784-0.983-1.45-1.55c-0.601-4.233-1.367-9.15-2.3-14.75c-1.034-6.101-2.233-13.834-3.601-23.2
		c0.066,0.267,0.15,0.566,0.25,0.9c0.434,1.533,0.667,2.517,0.7,2.949V141.9c-0.366-3.667-0.7-6.983-1-9.95
		c-0.533-5.667-0.816-12.667-0.85-21c0.866,12.434,2.083,25.033,3.649,37.8c1.267,10.467,2.4,18.184,3.4,23.15l-0.15-1.301
		c-0.967-9.767-1.633-16.5-2-20.199c-2.267-25.733-3.399-39.634-3.399-41.7l0.05-26.15l-1.351-1.8c0.034-3.967-0.366-7.9-1.199-11.8
		c-0.834-3.967-1.25-6.2-1.25-6.7l0.05-1.55l0.35,0.35c0.566,2.4,1.3,4.034,2.2,4.9c0.5,0.533,1.366,1.216,2.6,2.05
		c0.367,0.367,0.884,2.183,1.551,5.45c0.533,2.8,0.85,4.683,0.949,5.65c0.2,1.667,1.517,6.367,3.95,14.1
		c0.767,1.533,1.2,4.5,1.3,8.899c0.101,4.7,0.367,7.667,0.801,8.9c0.3,0.9,1.1,4.983,2.399,12.25c1.134,6.333,1.934,9.5,2.4,9.5
		c0.2,0,0.3,1.667,0.3,5C189.083,141.483,190.184,144.217,192.05,145.95z M182.8,73.25l-0.5-0.8V71.8L182.8,73.25z M174.55,166.2
		c0.033,1.533,0.283,3.467,0.75,5.8c0,2.066-0.166,4.95-0.5,8.65c0,0.666,0.316,3.133,0.95,7.399c-1.467-0.5-2.6-0.75-3.4-0.75v4.2
		l-1.05-0.1c-0.467-1.434-1.45-2.967-2.95-4.601c-1.666-1.833-3.033-2.649-4.1-2.45l0.2,0.351c1.533,2.733,2.3,4.467,2.3,5.2
		c0,0.666-0.3,0.916-0.9,0.75c-1.866-0.134-3.283-0.7-4.25-1.7c-0.866-0.9-1.3-2.066-1.3-3.5c0-1.167,0.017-2.467,0.05-3.9
		c-0.133,2.7-0.25,5.2-0.35,7.5l-0.3-0.1l-0.95-1.05c-0.066-1.101-0.5-3.417-1.3-6.95l0.25,1c0-4.167-0.033-6.55-0.101-7.15
		l-0.899,2.95c-0.5-2.134-1.2-4.4-2.101-6.8c-0.633-1.733-1.133-3.834-1.5-6.3c0.134,3.533,0.167,5.883,0.101,7.05
		c-0.2-1.4-0.384-3.066-0.55-5c-0.134-1.601-0.2-2.584-0.2-2.95c0.467-3.1,1.3-7.85,2.5-14.25c0.533-2.767,0.8-5.733,0.8-8.9
		c0-5.166-0.667-12.233-2-21.199c-1.5-10.134-2.333-16.417-2.5-18.851V97.6c0-1.267,0.316-2.333,0.95-3.2
		c0.6-0.9,1.333-1.35,2.2-1.35c-0.801,1.167-1.317,2.1-1.551,2.8c-0.199,0.6-0.3,1.417-0.3,2.45c0,1.334,0.65,6.384,1.95,15.15
		l2.05,13.95l0.05-0.851c-0.1-8.066-0.166-13.7-0.199-16.899c-0.034-5.4,0.55-8.5,1.75-9.301c0.767,0.767,1.166,1.267,1.199,1.5
		l1.5-0.3c0.567,6.867,1.367,14.033,2.4,21.5v-1.5c0.366-7.934,0.55-12.233,0.55-12.899c0-3.233,0.033-4.934,0.101-5.101
		c0.033-0.066,0.783-0.316,2.25-0.75c1.033-0.3,1.733-0.934,2.1-1.899c0.533-1.567,0.333-4.084-0.6-7.55
		c1.267,0.5,2.1,2.267,2.5,5.3c0.6,4.933,0.933,7.5,1,7.699c0.133-2.899,0.233-4.983,0.3-6.25c-0.2,16.934-0.134,27.7,0.2,32.301
		c0.199,2.466,0.449,3.75,0.75,3.85c0.033,0.333,0.233,1.15,0.6,2.45c0.134,8.066,0.3,13.866,0.5,17.399
		C173.7,160.566,174.05,163.934,174.55,166.2z M162.5,94.1c0.033-0.033,0.684-0.417,1.95-1.15c0.733-0.467,1.217-0.717,1.45-0.75
		c0,0.333,0.133,0.617,0.399,0.85c0.267,0.233,0.601,0.35,1,0.35l0.25,0.25c-0.5,0.533-1.233,0.8-2.2,0.8
		C164.684,94.45,163.733,94.333,162.5,94.1z M143.85,179.8l3.75,1.3c2.267,0.934,3.534,1.45,3.801,1.551
		c1.033,0.5,2.166,1.267,3.399,2.3c-0.6-0.434-2.133-1.233-4.6-2.4C147.9,181.45,145.783,180.533,143.85,179.8z M137.85,177.7
		l0.851,0.3l-1.55-0.5L137.85,177.7z M138.8,112.45c0-0.334,0.184-0.617,0.55-0.851c0.367-0.233,0.801-0.35,1.301-0.35L138.8,112.45
		z M137,132.55c-0.333-6.033-0.5-9.45-0.5-10.25c0-0.166,0.134-1.283,0.4-3.35l7.1,0.1c1.566,0,2.917,0.667,4.05,2
		c1.101,1.334,1.65,2.95,1.65,4.851l0.1,0.699c0.066,0.967,0.566,3.7,1.5,8.2c0.834,4.101,1.25,7.066,1.25,8.9
		c0,1.399-0.1,2.717-0.3,3.95c-0.167-3.134-0.316-5.301-0.45-6.5l0.2,7.8c-0.2,1.066-0.616,2.684-1.25,4.85
		c-0.5,2.134-0.733,4.25-0.7,6.351c-4.2-1.233-9.033,0.1-14.5,4c0.9-1.4,2.733-2.617,5.5-3.65c2.267-0.866,3.4-1.884,3.4-3.05
		c0-0.167-1.084-3.634-3.25-10.4c-2.267-7-3.5-11-3.7-12c-0.467-5,0.066-8.55,1.6-10.649c0.834-1.134,2.017-2.217,3.551-3.25
		c0.366,0.066,0.6,0.333,0.699,0.8c-0.267,6.866-0.399,10.717-0.399,11.55l0.149-2.3c0.467-4.334,0.967-7.05,1.5-8.15
		c0.634-0.6,1.134-1.316,1.5-2.149c-0.399-0.233-1.25-0.45-2.55-0.65c-1.133-0.2-2-0.3-2.6-0.3c-1.167,0-2.117,0.517-2.851,1.55
		c-0.833,1.233-1.25,3.1-1.25,5.6L137,132.55z M132.45,118.7c0.366,1.133,0.85,2.399,1.45,3.8c0.433,1.467,0.649,3.8,0.649,7
		c0,6.434,0.4,11.533,1.2,15.3c0.767,3.8,1.15,7.4,1.15,10.8c0,0.667-0.034,1.351-0.101,2.051c-0.866,1.3-1.616,2.3-2.25,3
		c-1.066,1.267-3.366,2.35-6.899,3.25h1.8c0.633,0.033,1.233,0.183,1.8,0.449c0.167,0.067,0.566,0.284,1.2,0.65
		c0.066,1.066,0.316,2.983,0.75,5.75c-0.033,2.434-0.25,3.983-0.65,4.65c-1.233-1.101-2.316-1.934-3.25-2.5
		c-0.3-0.4-1.366-1.5-3.2-3.301c-1.166-1.166-1.75-2.166-1.75-3c0.034-0.933,0.051-1.716,0.051-2.35c0-1.2-0.134-2.033-0.4-2.5
		c-1.134-0.833-2.2-1.7-3.2-2.6c-2.033-1.767-3.05-3.317-3.05-4.65l0.95-0.75c0.6-0.7,0.899-1.7,0.899-3
		c-0.233-3.1-0.366-7.85-0.399-14.25c0.866-3.967,2.133-5.9,3.8-5.8c0.4,0.066,0.616,0.25,0.65,0.55c0,0.767,0.767,4.733,2.3,11.9
		c0.166-0.467,0.316-0.983,0.45-1.551c-0.233-6.899-0.317-10.616-0.25-11.149c0.366-3.467,1.866-4.884,4.5-4.25
		c0.166,0.3,0.383,0.934,0.649,1.899l0.2-0.35c0.233-2.733,0.35-5.116,0.35-7.15c0-0.399-0.116-0.866-0.35-1.399l-0.4-0.7
		L132.45,118.7z M118.85,129.1c0-2.233,0.601-4.133,1.801-5.699c1.199-1.601,2.649-2.4,4.35-2.4c-1.5,1-2.667,1.866-3.5,2.6
		C119.967,124.934,119.083,126.767,118.85,129.1z M101.75,123.15l-1.1-11.75c0,20.866-0.05,32.066-0.15,33.6
		c0,1.333,0.217,2.616,0.65,3.85c0.434,1.2,0.65,2.134,0.65,2.801c-1.133,8.866-1.7,13.483-1.7,13.85
		c-0.067,5.267-0.417,8.616-1.05,10.05c-0.667,1.566-2.216,2.351-4.65,2.351l-9.05-0.2c-4-1-6.1-1.566-6.3-1.7
		c-1.267-1.866-2.283-3.65-3.05-5.35c-1.367-3.167-2.05-6.867-2.05-11.101c0-0.533,0.1-1.467,0.3-2.8
		c0.233-1.434,0.467-2.533,0.7-3.3c1.333-2.467,3.5-5.283,6.5-8.45c1.833-1.934,2.7-4.217,2.6-6.85c-0.167-5.101,0-12.851,0.5-23.25
		c0.534-11.267,0.8-18.134,0.8-20.601l0.35,0.95c0.267,1.333,0.4,2.967,0.4,4.9c0,5.066,0.05,8.466,0.15,10.199v-1.05
		c0-0.533,0.217-2.166,0.65-4.899c0.5-3.101,0.917-5.101,1.25-6c-0.1,5.666,0.217,13.383,0.95,23.149
		c0.633,8.7,1.283,15.134,1.95,19.3c0.367-6.6,0.517-13.783,0.45-21.55c-0.2-7.967-0.317-13.467-0.35-16.5
		c-0.033-5,0.167-8.517,0.6-10.55c0.567-2.467,1.633-3.7,3.2-3.7c0.333,0,0.583,0.217,0.75,0.65c0.133,0.4,0.367,0.6,0.7,0.6
		c1.867,0,2.917,0.067,3.15,0.2c0.3,0.2,0.434,0.917,0.4,2.15c-0.167,5.1,0.867,11.267,3.1,18.5c-0.233-7.667-0.267-13.134-0.1-16.4
		c0.066-1.133,0.583-3.45,1.55-6.95c0.934-3.433,1.4-5.216,1.4-5.35c0-1-0.601-1.633-1.8-1.9c-0.4-0.066-1.467-0.1-3.2-0.1
		c-2.7,0-5.566,0.133-8.6,0.4c-6,0.566-10.017,1.6-12.05,3.1c0.033,0.933,0.217,10.167,0.55,27.7c0,17.833-0.883,28.616-2.65,32.35
		c0.333-6.9,0.7-18.233,1.1-34c0.367-13.867,0.55-21.85,0.55-23.95c0-1.867-0.066-3.933-0.2-6.2
		c-0.367-6.067,0.383-11.717,2.25-16.95c2.066-4.333,3.2-6.733,3.4-7.2l0.25,1.05c0.033,1.6,0.033,2.85,0,3.75l0.25-2.1
		c0.5-5.566,0.783-9.35,0.85-11.35c1.467,2.4,2.2,4.567,2.2,6.5c0,5.934,0.2,11.633,0.6,17.1c0-5.467,0.217-11.533,0.65-18.2
		c0.534-6.367,0.85-10.333,0.95-11.9c0.3-0.066,0.55-0.15,0.75-0.25c0.133-0.033,0.4-0.05,0.8-0.05c0.8,0,1.417,0.217,1.85,0.65
		c0.867,0.833,1.317,1.267,1.35,1.3l0.2-0.15l0.2-0.65v-1.85c0.434,0.1,0.7,0.184,0.8,0.25c2,1.133,2.883,4.017,2.65,8.65L99.05,47
		c-0.633-0.967-1.35-1.8-2.15-2.5c-0.1,0.1-0.183,0.25-0.25,0.45c-0.033,0.1-0.05,0.183-0.05,0.25c0.033,0.566,0.283,2.1,0.75,4.6
		c0.533,2.833,1.05,5.167,1.55,7c0.067,0.667,0.167,2.733,0.3,6.2l0.05-0.55l0.4-2.25c0.2,1.066,0.434,2.3,0.7,3.7
		c0.167,1.033,0.283,2,0.35,2.9h-0.15v5.1l0.2-0.3l0.25-0.95c0-1.3-0.1-2.583-0.3-3.85l0.9-7.35c-0.033,0.7,0.017,3.933,0.15,9.7
		c0.6-4.833,0.933-8.167,1-10c0.367,1.633,0.7,0.017,1-4.85l0.55,0.7c0.167,0.4,0.383,1.667,0.65,3.8c0.3,2.5,0.434,4.567,0.399,6.2
		c-0.1,3.8-0.066,5.867,0.101,6.2c0.166,0.3,0.733,0.4,1.7,0.3v0.3c-0.733,0.867-1.801,1.583-3.2,2.15
		c-1.233,0.5-2.25,1.383-3.05,2.65c-2.333,0.3-5.883,1-10.65,2.1l0.45,0.2c1.066,0.133,3.8,0.2,8.2,0.2s6.833-0.033,7.3-0.1h0.649
		l1.601,2.65c-0.101,0.967-0.566,2.967-1.4,6c-0.8,2.8-1.2,4.684-1.2,5.65c0,1.534,0.217,3.4,0.65,5.601
		c0.434,2.199,0.65,3.649,0.65,4.35L105,134.5l-0.7-1.85L102,116.8c-0.233,0.934-0.35,1.783-0.35,2.55L101.75,123.15z
		 M104.95,174.65l0.6-0.4c3.8-2.167,6.434-3.366,7.9-3.6l2.05-0.4h1.55c-1.166,0.066-2.366,0.2-3.6,0.4
		c-0.9,0.333-2.367,0.983-4.4,1.949C107.05,173.533,105.684,174.217,104.95,174.65z M71.2,173.7l0.5,0.149
		c-4.867-0.8-7.517-1.216-7.95-1.25h0.4c2.067,0.134,4.1,0.417,6.1,0.851L71.2,173.7z M48,180l0.25-0.1L47.4,180.3L48,180z
		 M34.1,180.05l0.35,0.05l-0.65-0.05H34.1z M18.75,184.9c0.767-0.067,1.5-0.184,2.2-0.351c-1.2,0.334-2.184,0.5-2.95,0.5
		c-2.367,0-4.75-0.35-7.15-1.05l3.9,0.75C16.183,184.983,17.517,185.033,18.75,184.9z M3.25,172.9c0.433,0.699,0.767,1.433,1,2.199
		l-1.2-2.399L3.25,172.9z M35.25,116.55l-1.15,8.5c0.5-5.666,0.883-9.3,1.15-10.899V116.55z M11.8,9.5
		c-0.167,5-0.267,10.383-0.3,16.15l-0.05-2.8c0-3.867,0.117-8.517,0.35-13.95V9.5z M57.8,28.55l-0.4,0.9c-0.033,0.1-0.033,0.6,0,1.5
		c0.033,0.6-0.15,0.9-0.55,0.9c-0.333,0-0.367-0.15-0.1-0.45c0.233-0.3,0.183-0.45-0.15-0.45c-0.067,0-0.3,0.65-0.7,1.95
		c-0.4,1.3-0.633,2.2-0.7,2.7c0.066-5.667,0.083-8.934,0.05-9.8c0-0.7-1.083-2.033-3.25-4c0.2-1.233,0.417-2.367,0.65-3.4
		c0.1,0.033,0.617,0.1,1.55,0.2c1.1,0.167,2.05,0.45,2.85,0.85C57.183,20.317,57.433,23.35,57.8,28.55z M68,44.6
		c-0.367-0.434-0.667-0.867-0.9-1.3c0.566,0.667,1.15,1.233,1.75,1.7c0.6,0.4,1.066,0.6,1.4,0.6c0.3,0,0.967-0.267,2-0.8
		c1-0.533,1.817-1.033,2.45-1.5c-1.567,1.567-3.1,2.35-4.6,2.35c-0.434,0-0.783-0.066-1.05-0.2c-0.3-0.233-0.55-0.417-0.75-0.55
		L68,44.6z M84.45,36.6c0.267-0.033,0.55-0.067,0.85-0.1l0.7,0.4c1.433,0.267,2.717,0.533,3.85,0.8
		c-2.033-0.1-3.184-0.184-3.45-0.25C86.633,37.183,85.983,36.9,84.45,36.6z M137.25,50.2c1.1-2.267,1.6-5.883,1.5-10.85
		c-0.366-6.167-0.616-10.9-0.75-14.2c0.066,0.5,0.35,3.667,0.85,9.5c0.601,6.033,1.2,10.067,1.801,12.1l0.149-0.6
		c0.101-0.4,0.15-0.933,0.15-1.6c-0.101-2.5-0.167-6.783-0.2-12.85c0.1,2.1,0.583,6.1,1.45,12c0.8,5.5,1.2,8.983,1.2,10.45
		c0,0.667-0.134,2.017-0.4,4.05c-0.434,3.133-0.65,5.083-0.65,5.85c0,0.067,0.517,3.15,1.551,9.25c1.066,6.4,1.649,10.267,1.75,11.6
		c0.333,4.133,0.6,8.817,0.8,14.05c0,1.467-0.066,3.283-0.2,5.45c0,1.133,0.233,2.149,0.7,3.05c0.434,0.866,0.649,1.316,0.649,1.35
		c0,0.667-0.166,1.05-0.5,1.15c-0.833,0.033-1.55,0.05-2.149,0.05c-1.101,0.066-2.167,0.217-3.2,0.45
		c0.267-1.767,1.017-4.25,2.25-7.45c0.7-1.8,1.05-6.333,1.05-13.6c0-1.867-1.649-15.767-4.95-41.7
		c1.867,23.767,2.934,37.466,3.2,41.1c0.2,3.133,0.3,6.2,0.3,9.2c0,1.5-0.517,2.733-1.55,3.7c-1.133,1.066-1.767,2.166-1.899,3.3
		c-0.167,1.366-1.334,2.65-3.5,3.85c-2.334,1.301-3.717,2.483-4.15,3.551c-0.366-0.4-0.7-1.184-1-2.351
		c-0.333-1.533-0.616-2.75-0.85-3.649c0.033-6.434-0.067-10.267-0.301-11.5l-0.05,0.85c0,3.134-0.149,5.767-0.45,7.9l-1.25-10.9
		l-0.149,0.55l-0.2,2c0,2.733,0.017,5.167,0.05,7.3c-0.566-9.167-0.85-14.083-0.85-14.75c0.566-4.267,0.983-6.8,1.25-7.6l0.35,0.35
		c0.601,1.233,1.434,5.783,2.5,13.65c0.967,7.267,1.983,11.45,3.05,12.55l0.101-0.25l0.1-0.8c-0.133-6.134-0.184-13.617-0.149-22.45
		l0.199-7.5c0.334,7.034,0.601,16.083,0.801,27.15l0.149-2c0.4-4.101,1.033-8.434,1.9-13c0.666-3.6,1-6.15,1-7.65
		c0-1.8-0.351-4.133-1.05-7c-0.733-2.833-1.101-4.517-1.101-5.05c0-0.933,0.25-2.1,0.75-3.5c0.467-1.367,0.7-3,0.7-4.9L137.9,55
		l-0.9,4.95c0.066-2.367,0.35-4.017,0.85-4.95c0.434-0.867,0.65-1.633,0.65-2.3c0-0.467-0.267-1.534-0.8-3.2
		C137.6,49.767,137.45,50,137.25,50.2z M155.8,91.35c-0.967,0-1.8-0.333-2.5-1c-0.7-0.667-1.05-1.483-1.05-2.45
		c1.233,1.767,2.384,2.65,3.45,2.65c0.666,0,1.166-0.65,1.5-1.95c-2.3-1.667-4.9-9.633-7.8-23.9
		c-1.934-9.467-3.351-17.733-4.25-24.8l0.149,3.65c-0.833-5.4-1.316-8.566-1.45-9.5c-0.133-0.933-0.199-2.55-0.199-4.85
		c0-2.2,0.483-3.367,1.449-3.5c1.567-0.2,2.45-0.417,2.65-0.65c0.267-0.267,0.717-1.133,1.35-2.6c0.867-1.4,2.017-2.333,3.45-2.8
		c4.434,2.767,6.634,9.55,6.601,20.35c-0.034,5.8,0,9.2,0.1,10.2c0.366,2.933,1.384,4.4,3.05,4.4c0.533,0,0.95-0.184,1.25-0.55
		c0.3-0.4,0.566-1.083,0.8-2.05c1.167,8.8,2.9,15.533,5.2,20.2c0.8,1.533,1.351,4.167,1.65,7.9l0.05,1.6
		c0.033,1.167,0.066,2.316,0.1,3.45l0.051,0.75c0,1.8-0.034,3.75-0.101,5.85l-0.2-2.45c-0.6,0.967-1.017,1.617-1.25,1.95
		c-0.399,0.533-1.017,0.9-1.85,1.1c-0.767-9.4-1.2-14.983-1.3-16.75c-0.4,9.333-0.667,14.816-0.8,16.45
		c-0.634-0.066-1.317-0.216-2.051-0.45s-1.216-0.383-1.449-0.45c0.133-4.6,0.017-8.183-0.351-10.75l1.15,6.6v-4.05
		c-0.3-8.367-0.95-14.767-1.95-19.2c-0.9-2.767-1.566-4.85-2-6.25c0.3,1.867,0.467,3.117,0.5,3.75c0.066,0.667,0.134,1.35,0.2,2.05
		l-0.55-4.15l0.949,30.4c-0.366,0.267-1.216,0.65-2.55,1.15C156.6,91.133,155.934,91.35,155.8,91.35z M180.05,115.15
		c0.033,0.5,0.233,1.383,0.601,2.649c0.366,1.367,0.683,2.25,0.949,2.65l0.351-0.2c0.3-0.3,0.45-1.05,0.45-2.25
		c0-5.134-0.9-12.5-2.7-22.1c-1.834-8.733-2.783-13.283-2.851-13.65L178.4,98.1c-0.101-0.399-1.25-3.783-3.45-10.149
		c2.5,12.666,3.95,20.45,4.35,23.35C179.467,112.467,179.717,113.75,180.05,115.15z M187.35,150.65L187.2,154.1
		c0,6,1.383,12.417,4.149,19.25l1.051,1.851c-0.634-5.334-1.15-9.7-1.551-13.101C190.05,155.7,188.884,151.884,187.35,150.65z
		 M170.55,170.55l-0.3,0.101c-0.3,0.5-0.6,1.399-0.9,2.699c-0.333,1.4-0.5,2.584-0.5,3.551l0.101,4.8v-2.5l3.149,11.7v-9.45
		c-0.199-2.7-0.383-4.8-0.55-6.3C171.283,172.45,170.95,170.917,170.55,170.55z M164.2,178.55c1.399-0.434,2.316-0.916,2.75-1.45
		c0.267-0.333,0.399-0.833,0.399-1.5c0-10.033-0.216-17.183-0.649-21.449c-0.167-1.767-1.334-9.867-3.5-24.301
		c0.166,7.967,0.133,22.217-0.101,42.75C163.1,172.733,163.467,174.717,164.2,178.55z M193.3,176l-0.8-0.7
		c0.1,0.2,0.167,0.967,0.2,2.3L193.3,176z M52.8,29.2c0.8,3.533,1.184,7.433,1.15,11.7c-0.1,7.133-0.083,12.067,0.05,14.8l0.2-0.3
		l0.25-1c0.1-2.267,0.3-4.617,0.6-7.05l-0.25,2.4l0.5-0.7c0.667-1.167,1.633-2.917,2.9-5.25c0.867-1.633,1.483-2.716,1.85-3.25
		l-0.3,1.75c-0.533,5.633-0.8,10.083-0.8,13.35c0,4.167-0.083,6.6-0.25,7.3c0,0.1-0.284,0.283-0.85,0.55
		c-1.2,0.6-2.934,0.833-5.2,0.7c-2.6-0.133-5.316,0.3-8.15,1.3c-1.933,0.2-3.217,0.067-3.85-0.4c-0.533-0.4-0.8-1.233-0.8-2.5
		c0-2.434,0.65-4,1.95-4.7c1.5-0.8,2.4-2.15,2.7-4.05l0.4,0.95c0.7,2.467,1.083,3.9,1.15,4.3c0.067,0.3,0.284,1.483,0.65,3.55v-0.9
		c0.033-0.533,0.066-0.9,0.1-1.1l0.1-0.15l0.15-5.6c0-4.9-0.183-8.867-0.55-11.9c-0.4-3.067-0.6-5.233-0.6-6.5l0.15-2.65l0.6,0.85
		c0.033,0.066,0.434,1.583,1.2,4.55c0.767,2.8,1.3,4.483,1.6,5.05c0.1-0.633,0.183-1.066,0.25-1.3l0.1-0.2
		c0.067-2.3,0.1-4.716,0.1-7.25c-0.1-7.8-0.35-12.917-0.75-15.35l-0.5,0.1c-0.367,0.2-0.75,0.583-1.15,1.15l-1.65-4.4
		c0.167-0.1,0.45-0.316,0.85-0.65c0.433-0.267,0.85-0.4,1.25-0.4c0.233,0,0.55,0.067,0.95,0.2c0.4,0.1,1.033,0.15,1.9,0.15
		c-0.033,12.5,0.017,20.816,0.15,24.95c0.133,4.1,0.433,7.367,0.9,9.8L52,50.3C52.4,42.367,52.667,35.333,52.8,29.2z M146.1,58
		c-0.166-2.467-0.283-5.317-0.35-8.55c0.434,5.267,0.667,9.433,0.7,12.5l-0.351-4.4V58z M101.65,58.7l0.5-5.95
		c0.333,0.867,0.467,1.933,0.4,3.2l0.25-0.8C102.333,56.75,101.95,57.933,101.65,58.7z M105.05,137.5l0.55,1.3l0.5,1.4L105.05,137.5
		z M134.35,71.45c-0.533-1.2-0.899-2.034-1.1-2.5c-0.333-0.733-0.5-1.767-0.5-3.1c0-1.067,0.233-2.15,0.7-3.25
		c0.467-1.033,0.883-1.55,1.25-1.55c0.399,0,0.684,0.05,0.85,0.15c0.101,0.066,0.233,0.167,0.4,0.3c-1.134,1.633-1.7,3.9-1.7,6.8
		L134.35,71.45z M125.55,116.15l-0.95,0.3c-0.366-0.134-0.666-0.267-0.899-0.4c-0.434-0.267-0.65-0.583-0.65-0.95
		c0-4.333,0.884-6.716,2.65-7.149c0.899-0.233,1.5-0.55,1.8-0.95c0.5-0.7,0.767-2.083,0.8-4.15c0.066,4.167,0.2,7.134,0.4,8.9
		c-0.033,0.233-0.267,0.55-0.7,0.95C127.267,113.366,126.45,114.517,125.55,116.15z M157.55,93.6c0.101,0,0.816,0,2.15,0
		c0.434-0.033,1,0.117,1.7,0.45c-1.067,0.1-1.867,0.117-2.4,0.05C158.533,94.033,158.05,93.867,157.55,93.6z M45.3,17.3
		c-0.633,1.5-1.117,4.767-1.45,9.8c-0.2,2.7-0.383,6.117-0.55,10.25c-0.033,0.4-0.45,3.5-1.25,9.3c0,0.033-1.133,2.85-3.4,8.45
		c-0.167,0.4-0.316,0.816-0.45,1.25c0.6-2.467,1.367-5.083,2.3-7.85c1.833-5.367,2.633-9.067,2.4-11.1
		c-0.467-3.167-0.783-6.267-0.95-9.3c-0.333-5.967,0.066-10,1.2-12.1c0.4,0.133,0.684,0.333,0.85,0.6
		c0.133,0.167,0.317,0.433,0.55,0.8L45.3,17.3z M21.35,103.5c0.1-2.333,0.083-7.267-0.05-14.8c0.5-1.733,1.017-5.333,1.55-10.8
		c0.6-6.267,0.9-12.183,0.9-17.75c-0.3-15.066-0.467-25.05-0.5-29.95c-0.067-7.767,0.55-11.65,1.85-11.65
		c0.667,0,0.933,0.067,0.8,0.2c0.067,0.367,0.417,1.883,1.05,4.55c0.6,2.767,0.933,4.7,1,5.8L28,16.95
		c0.5,17.633,0.75,28.783,0.75,33.45c0,3.4-0.1,6.867-0.3,10.4c0.7-2.7,1.333-9.583,1.9-20.65c0.566-10.4,0.85-19.683,0.85-27.85
		c0-0.2-0.117-1.083-0.35-2.65c-0.233-1.433-0.317-2.367-0.25-2.8c0.1-0.667,0.816-1.317,2.15-1.95c1.3-0.633,2.05-1.367,2.25-2.2
		c-0.833-0.567-1.4-0.867-1.7-0.9l1.3-0.75c0.367,0.2,0.717,0.7,1.05,1.5c0.4,0.967,0.6,2.1,0.6,3.4c0,3.267,0.1,6.283,0.3,9.05
		c0.133,1.667,0.35,4.267,0.65,7.8c0.133-0.2,0.433-0.683,0.9-1.45c0.233,0.167,0.433,0.367,0.6,0.6c0.033,0.566,0.2,2.383,0.5,5.45
		c0,3.567-1.25,12.967-3.75,28.2S31.7,84.717,31.7,97.25c0,17.434-0.383,30.667-1.15,39.7c-0.933,10.899-2.733,20.416-5.4,28.55
		c0.3,0.033,0.117,0.05-0.55,0.05c-0.934,0-1.75-0.649-2.45-1.95c-0.9-1.699-1.55-4.35-1.95-7.949l-0.05,0.25L20,155.1
		c-0.633,0.601-1.85,2.25-3.65,4.95c-1.533,2.3-2.733,3.65-3.6,4.05l-0.25-7.25c0-4.5,0.167-8.416,0.5-11.75
		c0.3-3,0.833-6.533,1.6-10.6c0.1,3.667-0.067,7.95-0.5,12.85l0.25-1.199c0.566-1.667,1-3.067,1.3-4.2
		c0.567-2.101,0.934-4.367,1.1-6.8c0.2-2.601,0.917-4.7,2.15-6.301c0.633-0.833,1.35-1.666,2.15-2.5l-0.1,10.351
		c2.033-7.467,3.05-11.517,3.05-12.15c0-0.366,0.25-1.366,0.75-3l0.1,1l-0.05,1.15c-0.4,4.333-0.966,8.267-1.7,11.8
		c-0.467,2.2-1.4,6.483-2.8,12.85l0.25-0.899c1.534-3.3,2.9-7.117,4.1-11.45c1.367-4.9,2.1-9.033,2.2-12.4
		c0-0.133,0.233-2.899,0.7-8.3c0.1-1.333,0.684-3.083,1.75-5.25c1.034-2.1,1.55-3.5,1.55-4.2c-1.333,0.867-3.684,2.301-7.05,4.301
		c-3.367,1.966-5.367,3.133-6,3.5c1.7-2,2.75-3.317,3.15-3.95c0.433-0.733,0.65-1.601,0.65-2.601
		C21.6,106.634,21.517,105.434,21.35,103.5z M20.35,177.5l-0.1,1l0.05-0.9l0.05-2.199V177.5z M46.9,88.05l-1.05,0.55
		c0.066-0.167-0.817-0.133-2.65,0.1c-2.1,0.267-3.383,0.383-3.85,0.35L46.9,88.05z M53.25,66.7c3.367,0.733,5.233,1.1,5.6,1.1
		c0,3.133,0.117,5.817,0.35,8.05c0.1,1.1,0.2,2.1,0.3,3c0,0.6-0.417,1.4-1.25,2.4c-0.9,1.1-1.8,1.65-2.7,1.65
		c-1.6,0-3.466,0.15-5.6,0.45c-1.833,0.267-2.817,0.4-2.95,0.4c-0.533,0-1.5-0.783-2.9-2.35c-1.3-1.433-2.35-2.816-3.15-4.15
		l-0.4,0.5c-0.867,3.833-1.566,5.617-2.1,5.35c-0.567-0.267-1.017-1.25-1.35-2.95c-0.333-1.7-0.467-3.633-0.4-5.8
		c0-0.333,0.017-0.617,0.05-0.85l0.1,3.25l0.4-0.95c0.333-0.8,0.867-1.966,1.6-3.5c0.633-1.333,1-2.1,1.1-2.3
		c0.4,5.133,0.6,7.717,0.6,7.75c0.067-3.5,1.967-5.5,5.7-6c1-0.167,2.567-0.283,4.7-0.35c1.833-0.167,3.183-0.517,4.05-1.05h-0.3
		c-2.2,0.033-3.717,0.033-4.55,0c-1.333-0.033-2-0.4-2-1.1c0-0.4,0.067-0.7,0.2-0.9c0.1-0.2,0.15-0.333,0.15-0.4
		c3.167-0.3,4.9-0.6,5.2-0.9L53.25,66.7z M55.65,89.4c0.434,0.6,1.434,1.667,3,3.2c0,0.066-0.467,1.833-1.4,5.3
		c-1.033,3.767-1.683,6.566-1.95,8.399C54.433,116.6,54,121.8,54,121.9c0,3.8,0.517,7.449,1.55,10.949
		c1.034,3.5,1.55,6.017,1.55,7.551c0,2.5-0.833,6.816-2.5,12.949c-1.767,6.434-2.7,10.5-2.8,12.2c-0.233,3.533-0.633,5.601-1.2,6.2
		c-0.267,0.267-1.65,0.634-4.15,1.1l-0.05-2.8v0.55l-0.35,2.101c-0.367-0.334-0.9-1.033-1.6-2.101
		c-0.667-1.033-1.184-1.666-1.55-1.899c-0.533-0.334-1.95-0.667-4.25-1c-2.066-0.3-3.3-0.733-3.7-1.3c0-2.034-0.067-4.584-0.2-7.65
		c0.067-2.667,0.3-5.283,0.7-7.85c0.8-5.101,2.2-8.267,4.2-9.5c0,0.133-0.033,0.316-0.1,0.55c0,0.166,0.217,0.25,0.65,0.25
		c0.3,0,0.733-0.134,1.3-0.4c0.967-0.434,1.95-1.149,2.95-2.149l-0.05,0.55c-0.033,0.333-0.25,1.416-0.65,3.25
		c-0.367,1.967-0.55,3.517-0.55,4.649c0,0.667,0.167,1.4,0.5,2.2c0.267-0.333,0.483-0.75,0.65-1.25c0-4.1,0.917-6.833,2.75-8.2
		c1.2-0.899,3.917-2.366,8.15-4.399l-0.35-1.3c-8.233,0.6-13.45,1.05-15.65,1.35c-3.167,0.467-4.75,2.2-4.75,5.2
		c0,0.666,0.083,6.35,0.25,17.05l-0.5-12.95l0.35-6.45c0.767-2.066,3.4-3.383,7.9-3.949c4.9-0.601,7.483-1.034,7.75-1.301
		c-1.267-1.166-3.133-1.75-5.6-1.75c-4.433,0.601-6.933,0.617-7.5,0.051c-0.333-0.301-0.667-1.233-1-2.801
		c-0.667-3.333-1.2-5.767-1.6-7.3l0.7-5.1c-0.1,2.066,0.033,4.35,0.4,6.85c0.4,2.667,0.917,4.533,1.55,5.601
		c0-9.801,0.083-16.75,0.25-20.851c0.333-6.967,1.316-10.967,2.95-12c0.267,0.033,0.434,0.101,0.5,0.2c0.067,0.1,0.1,0.4,0.1,0.9
		c0,0.333-0.017,1.316-0.05,2.949c-0.034,1.601-0.017,2.717,0.05,3.351l0.15-0.4l1.15-5.45L42.55,99c0.067,0.566,0.217,3.3,0.45,8.2
		c0.333,5.399,0.733,9.866,1.2,13.399l0.3-0.449c0.3-1.334,0.4-3.967,0.3-7.9c-0.133-4.533-0.1-7.866,0.1-10
		C45.7,94.083,49.283,89.8,55.65,89.4z M55.6,137.55c0.066,0.367,0.15,0.733,0.25,1.101l0.05-0.7c0-0.667-0.2-1.15-0.6-1.45
		C55.367,136.6,55.467,136.95,55.6,137.55z M17,119.65c-0.067-2.7,0-4.267,0.2-4.7l-0.05,1.55C17.117,117.6,17.067,118.65,17,119.65
		z M137.5,142.3l0.05,1.05V145L137.5,142.3z M161.05,158.2c0.101-3.233,0.184-6.233,0.25-9c-0.1,2.166-0.184,4.666-0.25,7.5
		C161.05,157.2,161.05,157.7,161.05,158.2z M137.6,174.65c-0.199-1.067-0.449-2.134-0.75-3.2c0-1.867,0.051-3.167,0.15-3.9
		c0.167-1.2,0.967-1.649,2.4-1.35c-0.101,1.033,0.533,2.116,1.899,3.25c0.267-2.2,0.467-3.45,0.601-3.75
		c0.166-0.4,0.649-0.601,1.449-0.601c1.367,0,2.051-0.017,2.051-0.05c0.733-1.133,2.283-2.7,4.649-4.7
		c0.767,4.301,0.7,7.5-0.2,9.601c-0.699,1.666-1.866,2.55-3.5,2.649c-0.233,1.7-0.483,2.667-0.75,2.9
		c-0.333,0.3-1.466,0.45-3.399,0.45c-0.533,0-1.267-0.134-2.2-0.4C139.033,175.283,138.233,174.983,137.6,174.65z M135.45,163.05
		l1.1-1.6c0,0.434-0.1,0.816-0.3,1.149C136.017,162.9,135.75,163.05,135.45,163.05z"/>
	<path style="fill-rule:evenodd;clip-rule:evenodd;fill:#7C7367;" d="M199.8,176.35l-0.7-2.1c0.301,0.467,0.567,0.816,0.801,1.05
		L199.8,176.35z M191.5,178.85c0.267,0.767,1.033,2.101,2.3,4c1.233,1.801,2.134,2.983,2.7,3.551l-3.05,2
		c-0.3-0.601-0.7-2.184-1.2-4.75c-0.5-2.467-0.783-4.367-0.85-5.7L191.5,178.85z M183.15,191.35l-0.101-0.75l0.8,0.65L183.15,191.35
		z M181.1,181.8c-1.566-2.833-2.983-5.883-4.25-9.149c0.233,2.199,0.45,3.6,0.65,4.199c0.167,0.534,0.7,2.101,1.6,4.7
		c0.2,0.7,0.284,1.783,0.25,3.25c-0.066,1.601,0.267,3.9,1,6.9l-2.55,0.1c-0.033-2.899-0.416-6.899-1.149-12
		c-0.601-4.133-1.051-6.733-1.351-7.8c-0.467-2.333-0.717-4.267-0.75-5.8l-0.35-9.351c1.333,6.2,2.05,9.517,2.149,9.95
		c1.067,4.667,1.934,7.967,2.601,9.9c0.666,0.566,1.149,1.083,1.45,1.55C181.066,179.283,181.3,180.467,181.1,181.8z M137.85,177.7
		l-0.699-0.2l-0.75-0.25c-1.2-2.167-1.934-4.366-2.2-6.6c-0.2-1.467-0.217-3.834-0.05-7.101c-0.5,0.667-0.801,1.101-0.9,1.3
		c-0.1,0.233-0.167,0.95-0.2,2.15c-0.233-1.134-0.434-1.8-0.6-2c-0.634-0.366-1.033-0.583-1.2-0.65
		c-0.566-0.267-1.167-0.416-1.8-0.449h-1.8c3.533-0.9,5.833-1.983,6.899-3.25c0.634-0.7,1.384-1.7,2.25-3
		c0.533-0.567,0.884-0.967,1.05-1.2c0.2-0.334,0.301-0.7,0.301-1.101c0-1.3-0.117-2.767-0.351-4.399
		c-0.533-3.467-1.1-8.101-1.7-13.9l1.4,5.25l0.05,2.7v-1.65v-0.75c0.9,3.034,1.834,6.134,2.8,9.301
		c0.534,1.866,0.801,3.35,0.801,4.449c0,0.934-0.334,1.65-1,2.15c-1.733,1.3-2.934,2.283-3.601,2.95l-1.1,1.6
		c-0.167,0.3-0.316,0.9-0.45,1.8l-0.3,1.801c-0.101,0.899,0.033,1.933,0.399,3.1c0.4,1.167,0.834,1.884,1.301,2.15
		c0.199-0.101,0.35-0.25,0.449-0.45c0.301,1.066,0.551,2.133,0.75,3.2C137.833,175.85,137.917,176.866,137.85,177.7z M117.05,170.25
		h-1.55c-0.833-2.233-1.467-4.1-1.9-5.6c-0.8-2.7-0.983-5.884-0.55-9.551L113,154l-0.2-1c-0.6,2.533-1,4.934-1.2,7.2
		c-0.166,2.233-0.283,5.783-0.35,10.649c-0.267-1.6-0.65-4.833-1.15-9.699c-0.533-4.967-0.8-7.917-0.8-8.851
		c0-0.166,0.566-2.316,1.7-6.45c1.2-4.333,1.884-7.1,2.05-8.3c0.566-4.066,0.867-11.066,0.9-21c0.033-3.467-0.017-9.967-0.15-19.5
		c0.134,1.267,0.434,3.967,0.9,8.101c0.399,4.166,0.6,7.75,0.6,10.75c0,3.6-0.3,9-0.899,16.199c-0.601,7.167-0.9,12.517-0.9,16.051
		c0,6.1,0.7,11.267,2.1,15.5c1.101,3.267,2.45,5.616,4.051,7.05L117.05,170.25z M105.05,137.5l-1.7-4.2
		c0.2,3.7,0.617,6.184,1.25,7.45c0.367,0.733,0.95,1.417,1.75,2.05c1.5,1.867,2.25,9.134,2.25,21.8c0,1-0.166,1.934-0.5,2.801
		c-1.166,2.966-2.017,5.25-2.55,6.85l-0.6,0.4c-3.467,1.866-5.5,2.899-6.1,3.1c0.8-1.267,2.117-2.983,3.95-5.15
		c1.333-1.633,2.05-2.767,2.15-3.399c0.3-2.467,0.533-6.884,0.7-13.25c0.066-3.601,0.1-6.8,0.1-9.601c0-2.6-0.55-4.183-1.65-4.75
		c-1.233-0.6-1.883-1.133-1.95-1.6c-0.5-3.233-0.717-6.434-0.65-9.6c0.2-3.233,0.283-5.65,0.25-7.25l-0.1-3.801
		c0-0.767,0.117-1.616,0.35-2.55l2.3,15.851C104.7,134.517,104.95,136.134,105.05,137.5z M105.6,138.8
		c1.233,0.033,2-0.767,2.301-2.399c0.267-2.634,0.633-4.967,1.1-7l0.4,9.1c0,1.033-0.284,1.75-0.851,2.15
		c-0.633,0.433-1.45,0.283-2.45-0.45L105.6,138.8z M62.5,172.6c0.1-5.933,0.083-10.5-0.05-13.699c0,0.066-0.6,0.05-1.8-0.051
		c-0.6,4.134-0.9,7.284-0.9,9.45c0,1.7,0.167,3.184,0.5,4.45l-1.45,0.2c0.067-2.167,0.133-7.601,0.2-16.3v-7.25
		c-0.1,3.767-0.667,7.833-1.7,12.199c-0.767,3.134-1.5,5.517-2.2,7.15c0.2-0.667,0.816-4.483,1.85-11.45
		c1.033-7,1.55-10.833,1.55-11.5c0-2.633-0.467-6.184-1.4-10.649c-1-4.667-1.533-7.767-1.6-9.301l0.3,1.2
		c0.934,2.667,1.85,5.033,2.75,7.101l1.1,2.55c0.7,2.434,1.067,4.983,1.1,7.649c0,1.5,0.483,2.65,1.45,3.45
		c0.167-1.3,0.35-4.033,0.55-8.2c0.133-3.5,0.2-5.716,0.2-6.649c0-3.733-0.45-7.351-1.35-10.851c-0.934-3.533-1.4-5.466-1.4-5.8
		c0-2.366,0.45-4.166,1.35-5.399c0.867-1.2,1.3-2,1.3-2.4c0-9.434-0.4-14.467-1.2-15.1c-0.533-0.066-0.967-0.183-1.3-0.35
		c-0.567-0.333-1.05-1.367-1.45-3.1l2.1,1.1l0.2,0.05c0.133-0.767,0.033-1.65-0.3-2.65c0.8,1.2,1.434,2.35,1.9,3.45v-0.45
		c0.333-1.8,0.583-3.284,0.75-4.45c0.333-2.167,0.5-5.2,0.5-9.1c0-0.7-0.333-1.45-1-2.25c-0.7-0.8-1.05-1.767-1.05-2.9
		c0-9.767,0.183-15.333,0.55-16.7c1.467-2.733,3.284-6.55,5.45-11.45l0.3,0.3c0.167,1.5-0.367,3.733-1.6,6.7
		c-1.333,3.233-2,6.1-2,8.6c0,3.1,0.233,6.316,0.7,9.65c0.4,2.967,0.8,4.867,1.2,5.7c-1.233,17.2-1.85,27.084-1.85,29.65
		c0,1.633,0.117,3.383,0.35,5.25c0,0.899,0.7,1.35,2.1,1.35c0.533,0,0.9-0.883,1.1-2.649c0.167-1.267,0.333-4.15,0.5-8.65
		c0.034,0.7,0.017,5.917-0.05,15.65c0,0.366,0.217,1.05,0.65,2.05c0.4,0.967,0.6,1.883,0.6,2.75c0,4.899-0.217,9.35-0.65,13.35
		c-0.9,8.601-1.467,14.334-1.7,17.2c-0.167-1.934-0.383-3.517-0.65-4.75c-0.067-0.167-0.167-0.3-0.3-0.4
		c-0.167,1.4-0.467,4.834-0.9,10.301c-0.4,5.366-0.95,10.683-1.65,15.949h-0.4H62.5z M34,145.2c-0.467,6.633-1.817,14.1-4.05,22.399
		c-2.267,8.534-3.417,12.934-3.45,13.2c-0.9,0.667-2.1,1.617-3.6,2.851l0.05-10.551c-0.333,1.733-0.717,3.334-1.15,4.801
		c-0.367,1.267-0.633,2.033-0.8,2.3l-0.6,0.2l-0.15-1.9c-0.3,2.2-0.533,3.616-0.7,4.25c-0.066,0.333-0.333,1.05-0.8,2.15
		c-1.233,0.133-2.567,0.083-4-0.15c1-7.267,1.633-11.717,1.9-13.35c0.267-1.534,1.383-6.967,3.35-16.301l0.15,0.801
		c-0.7,5-1.15,8.55-1.35,10.649c-0.233,2.8-0.35,6.351-0.35,10.65c0,0.533,0.1,1.2,0.3,2L19,179.35c0.267-0.3,0.7-0.883,1.3-1.75
		l-0.05,0.9l0.1-1c0.2-0.333,1.566-3.184,4.1-8.55l0.15,1.899l-0.1,4.801l0.6-0.801c2.833-5.767,4.8-12.633,5.9-20.6
		c1.1-11.134,2.133-20.866,3.1-29.2l1.15-8.5v0.65l-0.7,5.1c-0.1,1.233-0.216,3.233-0.35,6c-0.167,2.767-0.25,4.4-0.25,4.9L34,145.2
		z M2.7,172.35c-0.1-2.767,0.2-5.083,0.9-6.949c1.333-3.567,2.05-5.601,2.15-6.101l0.2,3.25c0,0.566-0.35,2.2-1.05,4.9
		c-0.7,2.833-1.25,4.649-1.65,5.45l-0.2-0.2L2.7,172.35z M0,168.5c1.767-2.066,3.75-8.283,5.95-18.65
		c1.867-8.767,3.083-16.183,3.65-22.25l0.05,4.851c0,7.467-0.8,13.3-2.4,17.5c-2.367,6.267-4.167,13.45-5.4,21.55
		C1.117,170.566,0.5,169.566,0,168.5z M18.8,42.05c-0.033,9.034,0.184,15.534,0.65,19.5c0.633,5.067,1.05,13.167,1.25,24.3
		c-1.1,11.2-1.8,17.534-2.1,19l-0.15,1.801c-0.3-0.434-0.45-1.317-0.45-2.65c0-0.333,0.183-1.366,0.55-3.1
		c0.367-1.767,0.55-2.817,0.55-3.15c-2.667-33.033-4.45-50.967-5.35-53.8c-0.467-1.434-0.833-3.65-1.1-6.65
		c-0.167-2.767-0.25-4.183-0.25-4.25c0.467-4.9,0.8-8.517,1-10.85c0.333-4.1-0.2-8.333-1.6-12.7V8.9c0.667-2.6,1.2-4.3,1.6-5.1
		c0.267-0.466,0.733-1.216,1.4-2.25c0.233-0.367,0.633-0.617,1.2-0.75c0.333-0.066,0.933-0.133,1.8-0.2
		C20,0.567,24.467,0.367,31.2,0c-0.267,0.233-2.117,0.867-5.55,1.9c-3.066,0.934-4.75,1.95-5.05,3.05
		c0.2,0.233,0.617,0.417,1.25,0.55c0.566,0.167,1.117,0.25,1.65,0.25c0.667,0,1.7-0.05,3.1-0.15l-0.15,0.25
		c-0.3,0.333-0.784,1.033-1.45,2.1L24.5,9.8l-0.35,1.65c-0.4,0.6-0.85,1.15-1.35,1.65c0.1-2.333,0.117-3.783,0.05-4.35
		c-1.8,1.7-3.05,3.35-3.75,4.95c-0.833,1.933-1.25,4.533-1.25,7.8C17.85,24.433,18.167,31.283,18.8,42.05z M100.4,37
		c-0.033,3.067,0.2,5.2,0.7,6.4c1.167,2.767,2,5.1,2.5,7c-0.033,1.5-0.2,2.567-0.5,3.2c-0.067-0.133-0.3-0.434-0.7-0.9
		c-0.4-0.467-0.7-0.784-0.9-0.95c-1.067,5.4-1.683,8.217-1.85,8.45l-0.4,2.25L99.2,63c-0.133-3.467-0.233-5.533-0.3-6.2l-0.15-3.45
		c0-1.033,0.217-1.934,0.65-2.7c0.667,0.033,1.067-0.066,1.2-0.3c0.167-0.233,0.25-0.817,0.25-1.75c0-1.533-0.167-3.083-0.5-4.65
		c-0.5-2.3-0.867-4.534-1.1-6.7l0.1-0.4L100.4,37z M121.9,51.1c-0.034,0.7,0.116,1.667,0.449,2.9
		c0.367,1.367,0.817,2.283,1.351,2.75c1.434,6.533,2.616,10.567,3.55,12.1c1.8,2.833,2.884,4.733,3.25,5.7
		c-1.934-2.167-3.2-3.683-3.8-4.55c-1.566-2.233-2.351-4.2-2.351-5.9c0-1.6-0.333-2.55-1-2.85c-1.133-0.533-2.066-1.417-2.8-2.65
		c-0.2,1.533-0.3,2.883-0.3,4.05c0,2.2,0.366,4.883,1.1,8.05c0.7,3.2,1.051,5.283,1.051,6.25c0,4.3,0.083,12.066,0.25,23.3
		c0,1.1-0.184,1.95-0.551,2.55c-1.3-3.6-2.35-7.933-3.149-13c-0.834-6.367-1.517-11.466-2.05-15.3
		c-0.567-4.133-1.184-7.55-1.851-10.25c-0.767-2.6-1.333-4.583-1.7-5.95c0.367,1.067,0.967,2.617,1.801,4.65
		c0.733,2.133,1.233,4.833,1.5,8.1c0-6.6,0.05-11.633,0.149-15.1c0.667-0.667,1.033-1.05,1.101-1.15c0.3-0.367,0.983-1.267,2.05-2.7
		c0.033-0.133,0.416-0.383,1.149-0.75L121.9,51.1z M178.45,63.75c0.2,0.167,0.733,0.5,1.6,1c0.9,1.1,1.65,3.45,2.25,7.05v0.65
		l-0.1,2.1c-0.033-0.133-0.733-1.867-2.101-5.2C179.033,66.717,178.483,64.85,178.45,63.75z M177,63.3l-0.05,1.35
		c0,1.3,0.316,4,0.95,8.1c-0.801-3.967-1.4-7.317-1.801-10.05L177,63.3z M178.65,75.95l0.5,1.65c1.066,3.733,1.949,6.417,2.649,8.05
		c0.334,0.8,0.566,1.733,0.7,2.8c-0.1,0.233-0.267,0-0.5-0.7C180.134,81.583,179.017,77.65,178.65,75.95z M165.9,92.05
		c0.133-1.633,0.399-7.117,0.8-16.45c0.1,1.767,0.533,7.35,1.3,16.75c-0.033,0.6-0.267,0.95-0.7,1.05c-0.399,0-0.733-0.117-1-0.35
		c-0.267-0.233-0.399-0.517-0.399-0.85V92.05z M150.25,83.5c0.467,4.2,0.8,8.9,1,14.1v2.95c0.134,5.334,0.467,12.517,1,21.55
		c0,0.334,0.05,0.75,0.15,1.25c0,0.301-0.2,0.45-0.601,0.45c-0.2,0-0.05,0.4,0.45,1.2c0.2,1.033-0.483,2.083-2.05,3.15
		c-0.167-0.367-0.3-0.884-0.4-1.551l-0.1-0.699c0-1.9-0.55-3.517-1.65-4.851c-1.133-1.333-2.483-2-4.05-2l-7.1-0.1
		c-2.934-0.167-4.417-0.25-4.45-0.25l-1.351-0.2c-0.133-0.3-1.066-0.417-2.8-0.35c-2.2-0.267-4.267-0.4-6.2-0.4l1.051-0.65
		l1.449-0.649l0.95-0.3c2.4-1.067,3.667-2.15,3.8-3.25c-0.1-2.634,0.067-5.717,0.5-9.25c0.301-2.134,0.45-4.767,0.45-7.9l0.05-0.85
		c0.233,1.234,0.334,5.067,0.301,11.5c-0.034,3.566,0.449,5.949,1.449,7.149l0.4-1.149c0.434-1.067,1.816-2.25,4.15-3.551
		c2.166-1.199,3.333-2.483,3.5-3.85c0.133-1.134,0.767-2.233,1.899-3.3c1.033-0.967,1.55-2.2,1.55-3.7c0-3-0.1-6.067-0.3-9.2
		c-0.267-3.633-1.333-17.333-3.2-41.1c3.301,25.933,4.95,39.833,4.95,41.7c0,7.267-0.35,11.8-1.05,13.6
		c-1.233,3.2-1.983,5.684-2.25,7.45c0,0.233-0.1,0.434-0.3,0.6c-0.233,0.134-0.5,0.2-0.8,0.2c-0.5,0-0.934,0.116-1.301,0.35
		c-0.366,0.233-0.55,0.517-0.55,0.851c0.3,0.434,1.25,1.033,2.851,1.8c1.899,0.9,3.566,1.35,5,1.35c0.666,0,0.833-0.017,0.5-0.05
		c0.066-0.633,0.1-1.283,0.1-1.95c0-1.233-0.05-2.449-0.15-3.649c0.334-0.101,0.5-0.483,0.5-1.15c0-0.033-0.216-0.483-0.649-1.35
		c-0.467-0.9-0.7-1.917-0.7-3.05c0.134-2.167,0.2-3.983,0.2-5.45L146.1,58v-0.45l0.351,4.4c0.066,5.367,0.2,8.867,0.399,10.5
		C147.316,76.117,148.45,79.8,150.25,83.5z M110.1,98.45c0.167,3.533,0.217,7.666,0.15,12.399c-0.066,4.067-0.167,6.551-0.3,7.45
		C110.05,112.1,110.1,105.483,110.1,98.45z M152.25,147.65c0.134,3.8,0.2,9.166,0.2,16.1c0,0.366,0.066,1.35,0.2,2.95
		c0.166,1.934,0.35,3.6,0.55,5c0,0.066-0.15,2.333-0.45,6.8c-0.333,0-0.866,0.066-1.6,0.2c-1,0.2-1.851,0.45-2.551,0.75
		c-0.199-0.2-0.533-0.667-1-1.4c-0.466-0.767-0.75-1.333-0.85-1.7c1.533,0.134,2.583,0,3.15-0.399c0.433-0.3,0.699-0.884,0.8-1.75
		c0.133-1.2,0.316-1.867,0.55-2c0.267-0.134,0.434-0.351,0.5-0.65c0.3-1.533,0.384-9.066,0.25-22.6l-0.2-7.8
		C151.934,142.35,152.083,144.517,152.25,147.65z M156.4,93.05c-0.267-0.066-0.617-0.1-1.051-0.1c-0.399,0-0.699,0.033-0.899,0.1
		l-0.7-0.35l2.05-1.35c0.134,0,0.8-0.217,2-0.65c1.334-0.5,2.184-0.883,2.55-1.15l-0.949-30.4l0.55,4.15l0.35,3.45
		c0,0.5,0.184,2.317,0.55,5.45c0.434,3.733,0.834,6.466,1.2,8.2c0.367,2.567,0.483,6.15,0.351,10.75l-0.15,1.9
		c-0.5,0.067-1.083,0.1-1.75,0.1C158.2,93.05,156.833,93.017,156.4,93.05z M180.05,115.15c0.066,0.767,0.483,2.166,1.25,4.199
		l0.65,0.851c-0.267-2.5-0.75-5.867-1.45-10.101c0-0.066-0.7-4.066-2.1-12l-1.551-15.85c0.067,0.367,1.017,4.917,2.851,13.65
		c1.8,9.6,2.7,16.966,2.7,22.1c0,1.2-0.15,1.95-0.45,2.25l-0.351,0.2c-0.267-0.4-0.583-1.283-0.949-2.65
		C180.283,116.533,180.083,115.65,180.05,115.15z M192.25,129c1.066,2.634,1.733,4.467,2,5.5c0.533,1.967,1.333,5.783,2.4,11.45
		c-1.934-2.7-3.017-4.217-3.25-4.55c-1.733-2.634-2.65-4.45-2.75-5.45l-0.2-0.9l0.149,3l-1.3-3.2l-0.2-0.649
		c-0.6-2.066-1.199-5.533-1.8-10.4c-0.6-5.233-0.7-8.434-0.3-9.6l0.15,1.149C187.116,117.384,188.816,121.934,192.25,129z
		 M200.15,164l0.5,1.35c-0.767-0.533-1.5-1.399-2.2-2.6c-1.066-1.833-1.601-3.884-1.601-6.15c0-0.566,0.101-1.433,0.301-2.6l0.1,1
		c0.1,1.9,0.434,3.533,1,4.9c0.333,0.8,0.934,2.1,1.8,3.899L200.15,164z M207.25,164.8l0.35,1.3c-0.699-1.3-1.283-2.383-1.75-3.25
		c-0.833-1.6-1.267-2.6-1.3-3l-0.2-0.85l0.301,4.05l-1.2-6.8c0.934,1.866,1.666,3.25,2.2,4.15
		C205.85,160.833,206.384,162.3,207.25,164.8z M175.9,167.9l0.3,4.75h0.649c-0.033-1.134-0.283-2.367-0.75-3.7L175.9,167.9z
		 M107.15,71.8v-0.3l0.699-6.2l0.65,0.2c0,3.867-0.233,7.167-0.7,9.9c-0.3,0.167-0.7,0.417-1.2,0.75
		c-0.366,0.267-0.616,0.4-0.75,0.4c-0.333,0-0.583-0.15-0.75-0.45c-0.133-0.2-0.283-0.333-0.45-0.4c0.233-0.167,0.466-0.333,0.7-0.5
		C106.55,74.267,107.15,73.133,107.15,71.8z M106.7,78.8l-0.5,0.2c-0.467,0.067-2.9,0.1-7.3,0.1s-7.133-0.067-8.2-0.2l-0.45-0.2
		c4.767-1.1,8.317-1.8,10.65-2.1c0.434,0,0.867-0.033,1.3-0.1c-1.233,0.5-2.434,0.8-3.6,0.9l-1.45,0.15
		c0.667,0.233,2.367,0.467,5.1,0.7C104.917,78.517,106.4,78.7,106.7,78.8z M111.3,68.55c0.533,2.6,1.084,7.617,1.65,15.05
		c0.5,6.066,0.783,10.417,0.85,13.05l-3.149,17.899C111.083,103.017,111.3,87.683,111.3,68.55z M134.6,73.7l0.25,2.1l-0.199,7.5
		c-0.134,3.867-0.317,9.3-0.551,16.3c-0.233-3.3-0.399-7.1-0.5-11.399c-0.1-4.5-0.183-7.267-0.25-8.3
		c0.167-0.967,0.25-1.816,0.25-2.55c-1.3-2.533-2.683-5.267-4.149-8.2c-0.3-0.566-0.566-1.117-0.8-1.65
		c0.166,0.267,0.366,0.55,0.6,0.85C130.783,70.35,132.566,72.133,134.6,73.7z M126.45,62.9c-1.2-2.667-2.017-4.7-2.45-6.1l2.6,0.05
		C125.967,58.85,125.917,60.867,126.45,62.9z M57.1,86.25c-2.3,0.5-4.434,0.867-6.4,1.1c-1.7,0.233-2.833,0.417-3.4,0.55
		c-4.167,0.133-7.017-0.167-8.55-0.9c0.467-0.167,0.7-0.333,0.7-0.5c7.133-0.567,12.6-0.85,16.4-0.85c0.433,0,0.75,0.067,0.95,0.2
		C56.8,85.883,56.9,86.017,57.1,86.25z M19.4,107.25c0.6-0.533,0.95-1.75,1.05-3.65c0.267-7,0.5-11.783,0.7-14.35l0.15-0.55
		c0.133,7.533,0.15,12.467,0.05,14.8c-0.267,1.767-0.434,2.717-0.5,2.85C20.717,106.684,20.233,106.983,19.4,107.25z M69.35,168.9
		l1.85,4.8l-0.95-0.25L69.35,168.9z"/>
	<path style="fill-rule:evenodd;clip-rule:evenodd;fill:#B3AA9E;" d="M79.6,79.35c-0.233-1.733-0.45-3.45-0.65-5.15
		c-0.434-3.367-0.65-6.15-0.65-8.35c0-4.333,0.217-8.1,0.65-11.3c0.433-3.2,0.65-5.533,0.65-7c-0.5-4.267-0.817-7.033-0.95-8.3
		l0.95-0.55c1.066-0.534,2.683-1.233,4.85-2.1c1.533,0.3,2.183,0.583,1.95,0.85c0.267,0.066,1.417,0.15,3.45,0.25
		c1.566,0.033,3.667,0.083,6.3,0.15v1.2v1.85l-0.2,0.65l-0.2,0.15c-0.033-0.034-0.483-0.467-1.35-1.3
		c-0.433-0.433-1.05-0.65-1.85-0.65c-0.4,0-0.667,0.017-0.8,0.05c-0.2,0.1-0.45,0.184-0.75,0.25c-0.1,1.567-0.417,5.534-0.95,11.9
		c-0.433,6.667-0.65,12.733-0.65,18.2c-0.4-5.467-0.6-11.167-0.6-17.1c0-1.933-0.733-4.1-2.2-6.5c-0.067,2-0.35,5.784-0.85,11.35
		L85.5,60c0.033-0.9,0.033-2.15,0-3.75l-0.25-1.05c-0.2,0.466-1.333,2.867-3.4,7.2C79.983,67.633,79.233,73.283,79.6,79.35z
		 M172.15,110.95c0-0.667-0.25-9.017-0.75-25.05l-0.051-0.75c-0.033-1.133-0.066-2.283-0.1-3.45l-0.05-1.6
		c0-0.333-0.017-0.667-0.05-1l1.199,1.65l1.351,1.8l-0.05,26.15c0,2.066,1.133,15.967,3.399,41.7c0.367,3.699,1.033,10.433,2,20.199
		l0.15,1.301c-1-4.967-2.134-12.684-3.4-23.15C174.233,135.983,173.017,123.384,172.15,110.95z M187.75,179.85
		c-0.066-0.767-0.616-2.233-1.65-4.399c-0.1-0.167-0.183-0.334-0.25-0.5c-1.8-5.367-3.233-11.9-4.3-19.601
		c-1.267-9.233-1.7-16.866-1.3-22.899l0.15-0.351c0.333,1.634,1.166,5.784,2.5,12.45c1.199,6.101,1.85,9.783,1.949,11.05
		c0.601,6.767,1.067,11.434,1.4,14c0.333,2.567,0.967,6.284,1.9,11.15C188.017,180.45,187.884,180.15,187.75,179.85z M161.4,94.05
		l1.1,0.05c1.233,0.233,2.184,0.35,2.85,0.35c0.967,0,1.7-0.267,2.2-0.8l0.101-0.3c0.933,3.466,1.133,5.983,0.6,7.55
		c-0.366,0.966-1.066,1.6-2.1,1.899c-1.467,0.434-2.217,0.684-2.25,0.75c-0.067,0.167-0.101,1.867-0.101,5.101
		c0,0.666-0.184,4.966-0.55,12.899v1.5c-1.033-7.467-1.833-14.633-2.4-21.5l-1.5,0.3c-0.033-0.233-0.433-0.733-1.199-1.5
		c-1.2,0.801-1.784,3.9-1.75,9.301c0.033,3.199,0.1,8.833,0.199,16.899l-0.05,0.851l-2.05-13.95c-1.3-8.767-1.95-13.816-1.95-15.15
		c0-1.033,0.101-1.85,0.3-2.45c0.233-0.7,0.75-1.633,1.551-2.8h0.05c0.2-0.066,0.5-0.1,0.899-0.1c0.434,0,0.784,0.033,1.051,0.1
		l1.149,0.55c0.5,0.267,0.983,0.433,1.45,0.5C159.533,94.167,160.333,94.15,161.4,94.05z M159.95,63.3
		c-0.066-0.7-0.134-1.383-0.2-2.05c-0.033-0.633-0.2-1.883-0.5-3.75c0.434,1.4,1.1,3.483,2,6.25c1,4.433,1.65,10.833,1.95,19.2V87
		l-1.15-6.6c-0.366-1.733-0.767-4.467-1.2-8.2c-0.366-3.133-0.55-4.95-0.55-5.45L159.95,63.3z M187.35,150.65
		c1.534,1.233,2.7,5.05,3.5,11.449c0.4,3.4,0.917,7.767,1.551,13.101l-1.051-1.851c-2.767-6.833-4.149-13.25-4.149-19.25
		L187.35,150.65z M170.55,170.55c0.4,0.367,0.733,1.9,1,4.601c0.167,1.5,0.351,3.6,0.55,6.3v9.45l-3.149-11.7v2.5l-0.101-4.8
		c0-0.967,0.167-2.15,0.5-3.551c0.301-1.3,0.601-2.199,0.9-2.699L170.55,170.55z M164.2,178.55c-0.733-3.833-1.101-5.816-1.101-5.95
		c0.233-20.533,0.267-34.783,0.101-42.75c2.166,14.434,3.333,22.534,3.5,24.301c0.434,4.267,0.649,11.416,0.649,21.449
		c0,0.667-0.133,1.167-0.399,1.5C166.517,177.634,165.6,178.116,164.2,178.55z M193.3,176l-0.6,1.6c-0.033-1.333-0.101-2.1-0.2-2.3
		L193.3,176z M152.25,87.9l-2-4.4c-1.8-3.7-2.934-7.383-3.4-11.05c-0.199-1.633-0.333-5.133-0.399-10.5
		c-0.033-3.067-0.267-7.233-0.7-12.5l-0.45-5.9l-0.149-3.65c0.899,7.067,2.316,15.333,4.25,24.8c2.899,14.267,5.5,22.233,7.8,23.9
		c-0.334,1.3-0.834,1.95-1.5,1.95C154.634,90.55,153.483,89.667,152.25,87.9z M101.65,58.7c0.3-0.767,0.684-1.95,1.15-3.55l0.25-0.8
		c0,1.267-0.1,2.867-0.3,4.8c-0.067,1.833-0.4,5.167-1,10c-0.133-5.767-0.183-9-0.15-9.7L101.65,58.7z M74.95,153.45
		c-0.467,0.3-0.717,0.467-0.75,0.5c-0.067-1.9,0.533-4.15,1.8-6.75c0.733-1.533,1.45-2.767,2.15-3.7
		c1.767-3.733,2.65-14.517,2.65-32.35c-0.333-17.534-0.517-26.767-0.55-27.7c2.033-1.5,6.05-2.534,12.05-3.1
		c3.034-0.267,5.9-0.4,8.6-0.4c1.733,0,2.8,0.033,3.2,0.1c1.2,0.267,1.8,0.9,1.8,1.9c0,0.133-0.467,1.917-1.4,5.35
		c-0.967,3.5-1.483,5.817-1.55,6.95c-0.167,3.267-0.133,8.733,0.1,16.4c-2.233-7.233-3.267-13.4-3.1-18.5
		c0.033-1.233-0.1-1.95-0.4-2.15c-0.233-0.133-1.283-0.2-3.15-0.2c-0.333,0-0.566-0.2-0.7-0.6c-0.167-0.434-0.417-0.65-0.75-0.65
		c-1.567,0-2.633,1.233-3.2,3.7c-0.433,2.033-0.633,5.55-0.6,10.55c0.033,3.033,0.15,8.533,0.35,16.5
		c0.067,7.767-0.083,14.95-0.45,21.55c-0.667-4.166-1.316-10.6-1.95-19.3c-0.733-9.767-1.05-17.483-0.95-23.149
		c-0.333,0.899-0.75,2.899-1.25,6c-0.433,2.733-0.65,4.366-0.65,4.899v1.05c-0.1-1.733-0.15-5.133-0.15-10.199
		c0-1.934-0.133-3.567-0.4-4.9l-0.35-0.95c0,2.467-0.267,9.334-0.8,20.601c-0.5,10.399-0.667,18.149-0.5,23.25
		c0.1,2.633-0.767,4.916-2.6,6.85C78.45,148.167,76.283,150.983,74.95,153.45z M125,121c0-0.8,0.333-1.467,1-2
		c0.634-0.566,1.4-0.85,2.3-0.85c1.733-0.067,2.667,0.05,2.8,0.35l0.4,0.7c0.233,0.533,0.35,1,0.35,1.399
		c0,2.034-0.116,4.417-0.35,7.15l-0.2,0.35c-0.267-0.966-0.483-1.6-0.649-1.899c-2.634-0.634-4.134,0.783-4.5,4.25
		c-0.067,0.533,0.017,4.25,0.25,11.149c-0.134,0.567-0.284,1.084-0.45,1.551c-1.533-7.167-2.3-11.134-2.3-11.9
		c-0.034-0.3-0.25-0.483-0.65-0.55c-1.667-0.101-2.934,1.833-3.8,5.8l-0.65,2.75l0.3-10.15c0.233-2.333,1.117-4.166,2.65-5.5
		C122.333,122.866,123.5,122,125,121z M134.85,75.8l-0.25-2.1l-0.25-2.25l-0.1-3.15c0-2.9,0.566-5.167,1.7-6.8
		c0.666-0.733,1.017-1.25,1.05-1.55l0.9-4.95l0.1,4.85c0,1.9-0.233,3.533-0.7,4.9c-0.5,1.4-0.75,2.567-0.75,3.5
		c0,0.533,0.367,2.217,1.101,5.05c0.699,2.867,1.05,5.2,1.05,7c0,1.5-0.334,4.05-1,7.65c-0.867,4.566-1.5,8.899-1.9,13l-0.149,2
		C135.45,91.883,135.184,82.833,134.85,75.8z M52,21.8c2.167,1.967,3.25,3.3,3.25,4c0.033,0.867,0.017,4.133-0.05,9.8v6.1
		c0.033,2.4-0.017,4.283-0.15,5.65c-0.3,2.433-0.5,4.783-0.6,7.05l-0.25,1L54,55.7c-0.133-2.733-0.15-7.667-0.05-14.8
		c0.033-4.267-0.35-8.167-1.15-11.7c-0.066-1.133-0.3-2.667-0.7-4.6c-0.4-1.8-0.633-2.85-0.7-3.15L52,21.8z M45.3,17.3l0.55-0.25
		l1.65,4.4c0.4-0.567,0.783-0.95,1.15-1.15l0.5-0.1c0.4,2.433,0.65,7.55,0.75,15.35c0,2.534-0.033,4.95-0.1,7.25L49.7,43
		c-0.067,0.233-0.15,0.667-0.25,1.3c-0.3-0.566-0.833-2.25-1.6-5.05c-0.767-2.967-1.167-4.483-1.2-4.55l-0.6-0.85L45.9,36.5
		c0,1.267,0.2,3.433,0.6,6.5c0.367,3.033,0.55,7,0.55,11.9l-0.15,5.6l-0.1,0.15c-0.033,0.2-0.066,0.567-0.1,1.1v0.9
		c-0.367-2.066-0.583-3.25-0.65-3.55c-0.066-0.4-0.45-1.833-1.15-4.3l-0.4-0.95c-0.3,1.9-1.2,3.25-2.7,4.05
		c-1.3,0.7-1.95,2.267-1.95,4.7c0,1.267,0.267,2.1,0.8,2.5c0.633,0.467,1.917,0.6,3.85,0.4c1.667,0.167,3.6,0.317,5.8,0.45
		c1.467,0.167,2.45,0.417,2.95,0.75l0.45,0.35c-0.3,0.3-2.034,0.6-5.2,0.9c0,0.066-0.05,0.2-0.15,0.4c-0.133,0.2-0.2,0.5-0.2,0.9
		c0,0.7,0.667,1.067,2,1.1c0.833,0.033,2.35,0.033,4.55,0H55c-0.867,0.533-2.217,0.883-4.05,1.05c-2.133,0.067-3.7,0.184-4.7,0.35
		c-3.733,0.5-5.633,2.5-5.7,6c0-0.033-0.2-2.617-0.6-7.75c-0.1,0.2-0.467,0.967-1.1,2.3c-0.733,1.534-1.267,2.7-1.6,3.5l-0.4,0.95
		l-0.1-3.25l0.1-8.85c0.033-2.933,0.483-5.7,1.35-8.3c0.133-0.434,0.283-0.85,0.45-1.25c2.267-5.6,3.4-8.417,3.4-8.45
		c0.8-5.8,1.217-8.9,1.25-9.3c0.167-4.133,0.35-7.55,0.55-10.25C44.183,22.067,44.667,18.8,45.3,17.3z M35.25,117.2v-0.65v-2.399
		c0.1-4.034,0.267-8.5,0.5-13.4c0.3-6.367,0.55-9.833,0.75-10.4l0.45-0.6c0.566-0.3,1.367-0.533,2.4-0.7
		c0.467,0.034,1.75-0.083,3.85-0.35c1.833-0.233,2.716-0.267,2.65-0.1c2.4,0,5.767,0.083,10.1,0.25l-0.3,0.55
		c-6.367,0.4-9.95,4.684-10.75,12.85c-0.2,2.134-0.233,5.467-0.1,10c0.1,3.934,0,6.566-0.3,7.9l-0.3,0.449
		c-0.467-3.533-0.867-8-1.2-13.399c-0.233-4.9-0.383-7.634-0.45-8.2l-0.25-0.65l-1.15,5.45L41,104.2
		c-0.067-0.634-0.083-1.75-0.05-3.351C40.983,99.217,41,98.233,41,97.9c0-0.5-0.033-0.801-0.1-0.9c-0.066-0.1-0.233-0.167-0.5-0.2
		c-1.633,1.033-2.617,5.033-2.95,12c-0.167,4.101-0.25,11.05-0.25,20.851c-0.633-1.067-1.15-2.934-1.55-5.601
		C35.283,121.55,35.15,119.267,35.25,117.2z M21.3,88.7l-0.15,0.55c0.434-6.767,0.7-12.167,0.8-16.2l-1.25,12.8
		c-0.2-11.133-0.617-19.233-1.25-24.3c-0.467-3.966-0.684-10.466-0.65-19.5c-0.033-2.867-0.15-6.617-0.35-11.25
		c-0.2-4.066-0.3-6.267-0.3-6.6c0-0.6,0.6-2.4,1.8-5.4c1.267-3.133,2.216-5.033,2.85-5.7c0.5-0.5,0.95-1.05,1.35-1.65
		c0.067-0.067,0.15-0.333,0.25-0.8c0.067-0.4,0.1-0.683,0.1-0.85L25,7.95c0.667-1.067,1.15-1.767,1.45-2.1L26.6,5.6
		c1.4-1,2.35-1.617,2.85-1.85c0.333-0.167,1-0.467,2-0.9l1.25-0.7c0.1-0.1,0.216-0.2,0.35-0.3c0.034-0.033,0.117-0.05,0.25-0.05
		c0.3,0.034,0.867,0.333,1.7,0.9c-0.2,0.833-0.95,1.566-2.25,2.2c-1.333,0.633-2.05,1.283-2.15,1.95
		c-0.067,0.433,0.017,1.367,0.25,2.8c0.233,1.567,0.35,2.45,0.35,2.65c0,8.167-0.284,17.45-0.85,27.85
		c-0.567,11.067-1.2,17.95-1.9,20.65c0.2-3.533,0.3-7,0.3-10.4c0-4.667-0.25-15.816-0.75-33.45L27.95,29.1
		c-0.067-1.1-0.4-3.033-1-5.8c-0.633-2.667-0.983-4.183-1.05-4.55c0.133-0.133-0.133-0.2-0.8-0.2c-1.3,0-1.917,3.883-1.85,11.65
		c0.033,4.9,0.2,14.883,0.5,29.95c0,5.567-0.3,11.483-0.9,17.75C22.317,83.367,21.8,86.967,21.3,88.7z M34.75,158.75
		c-0.167-10.7-0.25-16.384-0.25-17.05c0-3,1.583-4.733,4.75-5.2c2.2-0.3,7.417-0.75,15.65-1.35l0.35,1.3
		c-4.233,2.033-6.95,3.5-8.15,4.399c-1.833,1.367-2.75,4.101-2.75,8.2c-0.167,0.5-0.383,0.917-0.65,1.25
		c-0.333-0.8-0.5-1.533-0.5-2.2c0-1.133,0.183-2.683,0.55-4.649c0.4-1.834,0.617-2.917,0.65-3.25l0.05-0.55
		c-1,1-1.983,1.716-2.95,2.149c-0.567,0.267-1,0.4-1.3,0.4c-0.434,0-0.65-0.084-0.65-0.25c0.067-0.233,0.1-0.417,0.1-0.55
		c-2,1.233-3.4,4.399-4.2,9.5C35.05,153.467,34.817,156.083,34.75,158.75z M55.6,137.55c-0.133-0.6-0.233-0.95-0.3-1.05
		c0.4,0.3,0.6,0.783,0.6,1.45l-0.05,0.7C55.75,138.283,55.667,137.917,55.6,137.55z M14.6,134.5c0.033-1.066,0.3-2.267,0.8-3.6
		c0.333-0.601,0.617-1.717,0.85-3.351c0.533-2.5,0.783-4.916,0.75-7.25c0-0.233,0-0.45,0-0.649c0.067-1,0.117-2.051,0.15-3.15
		l0.05-1.55c0-0.367,0.2-0.8,0.6-1.3c0.633-0.367,2.633-1.534,6-3.5c3.367-2,5.717-3.434,7.05-4.301c0,0.7-0.517,2.101-1.55,4.2
		c-1.066,2.167-1.65,3.917-1.75,5.25c-0.466,5.4-0.7,8.167-0.7,8.3c-0.1,3.367-0.833,7.5-2.2,12.4c-1.2,4.333-2.566,8.15-4.1,11.45
		l-0.25,0.899c1.4-6.366,2.333-10.649,2.8-12.85c0.733-3.533,1.3-7.467,1.7-11.8l0.05-1.15l-0.1-1c-0.5,1.634-0.75,2.634-0.75,3
		c0,0.634-1.017,4.684-3.05,12.15l0.1-10.351c-0.8,0.834-1.517,1.667-2.15,2.5c-1.233,1.601-1.95,3.7-2.15,6.301
		c-0.167,2.433-0.533,4.699-1.1,6.8c-0.3,1.133-0.733,2.533-1.3,4.2l-0.25,1.199C14.533,142.45,14.7,138.167,14.6,134.5z
		 M137.5,142.3l-0.5-9.75l-0.15-5.45c0-2.5,0.417-4.366,1.25-5.6c0.733-1.033,1.684-1.55,2.851-1.55c0.6,0,1.467,0.1,2.6,0.3
		c1.3,0.2,2.15,0.417,2.55,0.65c-0.366,0.833-0.866,1.55-1.5,2.149c-0.533,1.101-1.033,3.816-1.5,8.15l-0.149,2.3
		c0-0.833,0.133-4.684,0.399-11.55c-0.1-0.467-0.333-0.733-0.699-0.8c-1.534,1.033-2.717,2.116-3.551,3.25
		c-1.533,2.1-2.066,5.649-1.6,10.649l0.05,7.55v0.75L137.5,142.3z M136.85,171.45c-0.1,0.2-0.25,0.35-0.449,0.45
		c-0.467-0.267-0.9-0.983-1.301-2.15c-0.366-1.167-0.5-2.2-0.399-3.1l0.3-1.801l0.55-0.699c5.467-3.9,10.3-5.233,14.5-4v0.199
		c-2.366,2-3.916,3.567-4.649,4.7c0,0.033-0.684,0.05-2.051,0.05c-0.8,0-1.283,0.2-1.449,0.601c-0.134,0.3-0.334,1.55-0.601,3.75
		c-1.366-1.134-2-2.217-1.899-3.25c-1.434-0.3-2.233,0.149-2.4,1.35C136.9,168.283,136.85,169.583,136.85,171.45z"/>
	<path style="fill-rule:evenodd;clip-rule:evenodd;fill:#635B52;" d="M207.6,166.1c0.434,0.767,1.051,2.284,1.851,4.551
		c-0.7,0.267-1.434,0.517-2.2,0.75l-0.8,0.199l-6.4,1.101l-0.149,2.6c-0.233-0.233-0.5-0.583-0.801-1.05c-1-3.8-1.616-6.134-1.85-7
		c-0.233-0.833-0.816-2.616-1.75-5.35c-0.333-1.334-0.634-2.717-0.9-4.15c-0.733-4.434-1.166-6.717-1.3-6.85l-1.25-4.95
		c0-0.033-0.483-2.667-1.45-7.9l-0.149-3l0.2,0.9c0.1,1,1.017,2.816,2.75,5.45c0.233,0.333,1.316,1.85,3.25,4.55
		c2.366,3.467,3.699,6.283,4,8.45l-0.101,0.3c-1.066-1.2-1.8-1.8-2.2-1.8c-0.066,0-0.466,0.366-1.199,1.1
		c-0.2,1.167-0.301,2.033-0.301,2.6c0,2.267,0.534,4.317,1.601,6.15c0.7,1.2,1.434,2.066,2.2,2.6
		c0.899,0.534,1.699,0.801,2.399,0.801c0.334,0,0.601-0.117,0.8-0.351c0.101-0.133,0.301-0.383,0.601-0.75
		c0.133-0.467,0.2-1.133,0.2-2L204.35,159l0.2,0.85c0.033,0.4,0.467,1.4,1.3,3C206.316,163.717,206.9,164.8,207.6,166.1z
		 M192.85,188.3l0.101,0.3l-1.05,0.4c-0.967-3.267-1.667-5.684-2.101-7.25c-0.833-2.767-1.383-5.25-1.649-7.45l-0.15-1.55
		c0.366,2.233,0.85,4.217,1.45,5.95C189.884,179.967,191.017,183.167,192.85,188.3z M182.15,185.25l0.899,5.35l0.101,0.75
		l-2.801,0.351c-0.733-3-1.066-5.3-1-6.9c0.034-1.467-0.05-2.55-0.25-3.25c-0.899-2.6-1.433-4.166-1.6-4.7
		c-0.2-0.6-0.417-2-0.65-4.199c1.267,3.267,2.684,6.316,4.25,9.149L182.15,185.25z M158.75,187.9l0.1,1.1
		c0.034,0-1.316-1.35-4.05-4.05c-1.233-1.033-2.366-1.8-3.399-2.3c-0.267-0.101-1.534-0.617-3.801-1.551
		c0.167-0.699,0.5-1.25,1-1.649c0.7-0.3,1.551-0.55,2.551-0.75c0.733-0.134,1.267-0.2,1.6-0.2c0.3-4.467,0.45-6.733,0.45-6.8
		c0.066-1.167,0.033-3.517-0.101-7.05c0.367,2.466,0.867,4.566,1.5,6.3c0.9,2.399,1.601,4.666,2.101,6.8l0.75,3.2
		C158.25,184.483,158.684,186.8,158.75,187.9z M132.55,175.4c0.4-0.667,0.617-2.217,0.65-4.65l-0.15-3.75
		c0.033-1.2,0.101-1.917,0.2-2.15c0.1-0.199,0.4-0.633,0.9-1.3c-0.167,3.267-0.15,5.634,0.05,7.101c0.267,2.233,1,4.433,2.2,6.6
		C135.2,176.85,133.917,176.233,132.55,175.4z M55.1,168.75c0.7-1.634,1.433-4.017,2.2-7.15c1.034-4.366,1.6-8.433,1.7-12.199v7.25
		c-0.067,8.699-0.133,14.133-0.2,16.3c-1.433,0.2-2.783,0.566-4.05,1.1c-0.867,0.334-1.483,0.634-1.85,0.9
		c0.2-1.066,0.483-2.033,0.85-2.9C54.45,170.45,54.9,169.35,55.1,168.75z M48,180c0.233-1.634,0.75-3.667,1.55-6.1
		c0.367,1.233,0.684,2.533,0.95,3.899c-0.733,0.867-1.483,1.566-2.25,2.101L48,180z M46.45,172.85c0.133,2.367,0.2,4.95,0.2,7.75
		c-0.566,0.233-1.233,0.367-2,0.4l1.4-8.3l0.35-2.101v-0.55L46.45,172.85z M26.5,180.8c0.033-0.267,1.183-4.666,3.45-13.2
		c2.233-8.3,3.583-15.767,4.05-22.399l0.65-7.55l-0.05,1.699l-0.35,6.45l0.5,12.95c0.133,3.066,0.2,5.616,0.2,7.65
		c-0.034,2.767-0.167,5.767-0.4,9c-0.2,2.233-0.35,3.783-0.45,4.649h-0.3h-3.15C29.15,180.083,27.767,180.333,26.5,180.8z
		 M20.95,184.55c-0.7,0.167-1.434,0.283-2.2,0.351c0.467-1.101,0.733-1.817,0.8-2.15c0.167-0.634,0.4-2.05,0.7-4.25l0.15,1.9
		l0.6-0.2c0.167-0.267,0.433-1.033,0.8-2.3c0.434-1.467,0.817-3.067,1.15-4.801L22.9,183.65L20.95,184.55z M108.5,65.5l-0.65-0.2
		c0-1.2-0.683-3.95-2.05-8.25c-1.367-4.167-2.1-6.383-2.2-6.65c-0.5-1.9-1.333-4.233-2.5-7c-0.5-1.2-0.733-3.333-0.7-6.4
		c2.333,0.567,3.817,1.983,4.45,4.25c0.333,1.2,0.483,3.5,0.45,6.9c-0.033,3.1,0.25,5.3,0.851,6.6
		c0.933,2.033,2.833,3.15,5.699,3.35c0.134,1.333-0.05,4.816-0.55,10.45c0,19.133-0.217,34.467-0.649,46L113.8,96.65v0.399
		c0.134,9.533,0.184,16.033,0.15,19.5c-0.033,9.934-0.334,16.934-0.9,21c-0.166,1.2-0.85,3.967-2.05,8.3
		c-1.134,4.134-1.7,6.284-1.7,6.45c0,0.934,0.267,3.884,0.8,8.851c0.5,4.866,0.884,8.1,1.15,9.699
		c0.066-4.866,0.184-8.416,0.35-10.649c0.2-2.267,0.601-4.667,1.2-7.2l0.2,1l0.05,1.1c-0.434,3.667-0.25,6.851,0.55,9.551
		c0.434,1.5,1.067,3.366,1.9,5.6l-2.05,0.4c-1.467,0.233-4.101,1.433-7.9,3.6c0.533-1.6,1.384-3.884,2.55-6.85
		c0.334-0.867,0.5-1.801,0.5-2.801c0-12.666-0.75-19.933-2.25-21.8c-0.8-0.633-1.383-1.316-1.75-2.05
		c-0.633-1.267-1.05-3.75-1.25-7.45l1.7,4.2l1.05,2.7c1,0.733,1.817,0.883,2.45,0.45c0.566-0.4,0.851-1.117,0.851-2.15l-0.4-9.1
		c-0.066-3.467,0.25-7.167,0.95-11.101c0.133-0.899,0.233-3.383,0.3-7.45c0.066-4.733,0.017-8.866-0.15-12.399
		c-0.5-7.5-0.816-11.85-0.949-13.05c-0.067-0.967-0.301-2.217-0.7-3.75L106.85,79l-0.149-0.2c-0.3-0.1-1.784-0.283-4.45-0.55
		c-2.733-0.233-4.433-0.467-5.1-0.7l1.45-0.15c1.167-0.1,2.367-0.4,3.6-0.9c0.066-0.033,0.15-0.067,0.25-0.1
		c0.633-0.267,1.25-0.533,1.85-0.8c0.133,0,0.25,0.033,0.35,0.1c0.167,0.066,0.317,0.2,0.45,0.4c0.167,0.3,0.417,0.45,0.75,0.45
		c0.134,0,0.384-0.133,0.75-0.4c0.5-0.333,0.9-0.583,1.2-0.75c1.066-0.267,1.65-0.75,1.75-1.45c0-3.267,0-5,0-5.2
		C109.45,67.15,109.1,66.067,108.5,65.5z M116.8,55.95c-0.1,3.466-0.149,8.5-0.149,15.1c-0.267-3.267-0.767-5.966-1.5-8.1
		c-0.834-2.034-1.434-3.583-1.801-4.65l-0.199-0.45c0.166-0.033,0.783-0.333,1.85-0.9C116,56.417,116.6,56.083,116.8,55.95z
		 M178.4,98.1c1.399,7.934,2.1,11.934,2.1,12c0.7,4.233,1.184,7.601,1.45,10.101l-0.65-0.851c-0.767-2.033-1.184-3.433-1.25-4.199
		c-0.333-1.4-0.583-2.684-0.75-3.851c-0.399-2.899-1.85-10.684-4.35-23.35C177.15,94.317,178.3,97.7,178.4,98.1z M175.9,167.9
		l0.199,1.05c0.467,1.333,0.717,2.566,0.75,3.7H176.2L175.9,167.9z M133.35,79.9l-0.199,1.85c-0.034-0.633-0.483-2-1.351-4.1
		c-0.833-2-1.267-3.033-1.3-3.1c-0.366-0.966-1.45-2.867-3.25-5.7c-0.934-1.533-2.116-5.567-3.55-12.1L123.3,55l0.2,0.5
		c0.134,0.4,0.3,0.833,0.5,1.3c0.434,1.4,1.25,3.434,2.45,6.1c0.399,1.5,1.133,3.033,2.2,4.6c0.233,0.533,0.5,1.083,0.8,1.65
		c1.467,2.934,2.85,5.667,4.149,8.2C133.6,78.083,133.517,78.933,133.35,79.9z M47.3,87.9c0.567-0.133,1.7-0.316,3.4-0.55
		c1.966-0.233,4.1-0.6,6.4-1.1c1.033,0,1.933,0.217,2.7,0.65c0.733,0.434,1.1,0.95,1.1,1.55c0.333,1,0.434,1.883,0.3,2.65L61,91.05
		l-2.1-1.1c-0.533-0.367-1.183-0.667-1.95-0.9c-0.633-0.133-0.967-0.2-1-0.2c-4.333-0.167-7.7-0.25-10.1-0.25l1.05-0.55L47.3,87.9z
		 M21.15,89.25c-0.2,2.567-0.433,7.35-0.7,14.35c-0.1,1.9-0.45,3.117-1.05,3.65c-0.066,0.167-0.15,0.283-0.25,0.35
		c-0.1,0.067-0.2,0.084-0.3,0.051c-0.133-0.067-0.233-0.15-0.3-0.25c-0.066-0.134-0.1-0.267-0.1-0.4c0-0.167,0-0.283,0-0.35
		l0.15-1.801c0.3-1.466,1-7.8,2.1-19l1.25-12.8C21.85,77.083,21.583,82.483,21.15,89.25z M48.8,64.9l1.15-0.05
		c1.566,0,3.617-0.05,6.15-0.15c0.833,0,1.45,0.083,1.85,0.25c0.3,0.133,0.867,0.417,1.7,0.85c-4.467,0.034-7.066,0.034-7.8,0
		C51.15,65.767,50.133,65.467,48.8,64.9z M68.8,100.5c-0.167,4.5-0.333,7.384-0.5,8.65c-0.2,1.767-0.566,2.649-1.1,2.649
		c-1.4,0-2.1-0.45-2.1-1.35c-0.233-1.867-0.35-3.617-0.35-5.25c0-2.566,0.617-12.45,1.85-29.65l1.3-17.35
		c0.2,9.267,0.517,21.8,0.95,37.6L68.8,100.5z M67.65,151.5c0.934,10.3,1.5,16.1,1.7,17.4l0.9,4.55c-2-0.434-4.033-0.717-6.1-0.851
		c0.7-5.267,1.25-10.583,1.65-15.949c0.434-5.467,0.733-8.9,0.9-10.301c0.133,0.101,0.233,0.233,0.3,0.4
		C67.267,147.983,67.483,149.566,67.65,151.5z"/>
</g>
</svg>
