<?xml version="1.0" encoding="iso-8859-1"?>
<!-- Generator: Adobe Illustrator 15.1.0, SVG Export Plug-In . SVG Version: 6.00 Build 0)  -->
<!DOCTYPE svg PUBLIC "-//W3C//DTD SVG 1.1//EN" "http://www.w3.org/Graphics/SVG/1.1/DTD/svg11.dtd">
<svg version="1.1" id="Layer_1" xmlns="http://www.w3.org/2000/svg" xmlns:xlink="http://www.w3.org/1999/xlink" x="0px" y="0px"
	 width="145.5px" height="213px" viewBox="0 0 145.5 213" style="enable-background:new 0 0 145.5 213;" xml:space="preserve">
<g>
	<path style="fill-rule:evenodd;clip-rule:evenodd;fill:#685F57;" d="M135.1,11.55c2.334-0.5,3.884-0.75,4.65-0.75
		c2.033,0,3.483,0.417,4.35,1.25c0.934,0.9,1.4,2.45,1.4,4.65c0,1.233,0,1.966,0,2.2c-0.134,1.533-0.5,5.2-1.1,11
		c-0.101,0.934-0.334,1.817-0.7,2.65l-0.4-2.65c0.101,1.333-0.267,3.15-1.1,5.45c-0.601,1.667-1.217,3.033-1.851,4.1l-0.1,0.15
		c-0.066,0.066-0.116,0.15-0.15,0.25c-0.966,1.3-2.017,2.633-3.149,4c1.366-2.033,2.333-3.95,2.899-5.75
		c0.601-1.967,0.9-4.25,0.9-6.85c0-1.6-0.1-2.667-0.3-3.2c-0.267-0.8-0.834-1.183-1.7-1.15l-0.1,0.4V29l-0.301-0.95l-0.75-1.75
		l-0.149,0.85c-0.101,0.633-0.601,3.367-1.5,8.2c-1.233,4.7-2.917,7.483-5.05,8.35l0.05-0.85c0.2-1.467,0.483-2.5,0.85-3.1
		c0.5-0.833,0.783-1.35,0.851-1.55c0.633-1.967,0.949-8.35,0.949-19.15l-0.149-6.3c-0.634,0.5-1.134,0.883-1.5,1.15
		c-0.134,1.533-0.15,3.8-0.05,6.8c0.066,1.833-0.267,4.65-1,8.45c-0.034-5.167-0.334-10.6-0.9-16.3
		C130.467,12.883,132.167,12.45,135.1,11.55z M117,8l1.3,0.8c0.2,0.667,1.033,3,2.5,7c0.634,1.667,0.95,3.65,0.95,5.95
		c0,0.667-0.05,7.667-0.15,21c-0.699-6.833-1.233-10.5-1.6-11c0.333,1.6,0,4.867-1,9.8c-1.233,6-3.017,10.217-5.35,12.65l0.3-1.6
		c1.866-6,3.017-9.883,3.45-11.65c1.399-5.7,2.1-10.934,2.1-15.7c0-0.533-0.083-1.1-0.25-1.7c-0.2-0.667-0.417-1.117-0.65-1.35
		l-0.399,0.7l0.05,0.9L118,23.75c-0.2-0.167-0.533-0.883-1-2.15c-0.134,2.767-0.634,6.833-1.5,12.2c-1,6.233-2.083,11.45-3.25,15.65
		l0.1-1.1c0.2-2.133,0.483-7.434,0.851-15.9c0.333-7.6,0.5-11.65,0.5-12.15c0-0.367-0.167-0.917-0.5-1.65
		c-0.367-0.7-0.566-1.083-0.601-1.15c1.767,0.3,2.934,0.283,3.5-0.05c0.7-0.367,1.051-1.333,1.051-2.9C117.05,11.983,117,9.8,117,8z
		 M123.45,16c0.166,0.367,0.383,0.7,0.649,1c1.334,1.633,2.034,2.717,2.101,3.25c0.166,0.967,0.316,2.45,0.45,4.45
		c0.1,1.733,0.149,2.933,0.149,3.6c0,1.4-0.083,2.434-0.25,3.1l-0.35-0.45c-0.467-0.867-1.05-3.517-1.75-7.95
		C124.05,20.267,123.717,17.933,123.45,16z M75,132.5c3.233-2.033,5.434-3.583,6.6-4.65L80.7,127.8
		c0.366-0.434,0.616-1.033,0.75-1.8c1.333-0.1,4.983-1.184,10.95-3.25l-1.15,1.05c-0.667,0.834-1.134,1.533-1.4,2.101
		c-2.533,0.733-4.866,1.649-7,2.75c-1.533,0.833-2.783,1.699-3.75,2.6c1.834-0.2,3.9-0.483,6.2-0.85
		c-1.133,1.433-1.983,2.533-2.55,3.3c-1.033,1.399-1.55,2.45-1.55,3.149c0,2.867,0.166,5.301,0.5,7.301l0.1-0.25
		c0-2.134,0.334-3.617,1-4.45c0.334-0.4,1.066-0.816,2.2-1.25c2.134-0.8,3.25-3.334,3.35-7.601c-0.033-0.6,0.101-0.949,0.4-1.05
		c0.134-0.033,0.267-0.017,0.4,0.05c-0.733,8.934-1.067,17.634-1,26.101c0.1,9.399,0.133,14.416,0.1,15.05
		c-0.233,3.9-1.134,7.366-2.7,10.4c-1.6,3.133-4.666,7.267-9.2,12.399c-0.6,0-1.25-0.217-1.949-0.649
		c-0.733-0.534-1.25-0.917-1.551-1.15c0.067-0.066,0.15-0.134,0.25-0.2c0.101-0.033,0.2-0.083,0.301-0.149
		c0.399-0.267,0.6-0.601,0.6-1c0.533-0.5,2.033-1.233,4.5-2.2l-1.9-0.05c0,0.1-0.75,0.199-2.25,0.3l0.051-1.25
		c0.566,0,1.449,0.05,2.649,0.149c1.101,0.134,1.834,0.184,2.2,0.15c-0.2-1.467,0.1-2.434,0.9-2.9c1-0.6,1.6-2.116,1.8-4.55
		c0.233-3.7,0.383-5.783,0.45-6.25c0.3-2.566,0.8-4.616,1.5-6.149l0.25,4.6c0,2.167-0.034,4.25-0.101,6.25
		c0.434-7.2,0.65-11.7,0.65-13.5c0-4.767-0.05-8.184-0.15-10.25c-0.133-3.467-0.434-5.634-0.899-6.5c-0.9,2.3-1.851,6.7-2.851,13.2
		c-0.5,3.267-1,6.733-1.5,10.399V158.4c0.233-1.9,0.351-3.784,0.351-5.65l-0.101-1.95c-0.7,2.167-1.316,4.334-1.85,6.5
		c0.566-6.6,0.85-10.3,0.85-11.1s-0.166-1.601-0.5-2.4c-0.166,0.434-0.283,0.733-0.35,0.9c-0.134,0.233-0.417,0.35-0.851,0.35
		c-0.399,0-0.633-0.05-0.699-0.149c0-0.101-0.034-0.15-0.101-0.15c-0.133-1.066-0.2-1.8-0.2-2.2L76,139.6l-0.4,2l-0.649,8.2v-8.55
		C75.217,137.884,75.233,134.967,75,132.5z M100.2,112.9c-1.033,1.966-2.634,3.3-4.8,4c-2.534,0.833-3.917,1.366-4.15,1.6
		c0.033,0.434,0.15,0.65,0.35,0.65c2.7-0.301,4.567-0.351,5.601-0.15l-1.2,1.15l-0.5,0.399c-0.533,0.267-2.583,1-6.15,2.2
		c-3.533,1.167-5.433,1.75-5.699,1.75c0.166-2.634,0.183-4.483,0.05-5.55c-0.2-1.634-0.75-2.45-1.65-2.45
		c-0.399,0-0.616,0.033-0.649,0.1l0.1,0.051l-0.35,1.05l0.05,2.399c-0.566-0.399-0.884-0.35-0.95,0.15
		c-0.033,0.267-0.017,0.583,0.05,0.95v0.3c-0.033,0.233-0.217,0.9-0.55,2c-0.366,1.167-0.634,1.884-0.8,2.15v-1.101
		c0.3-3.467-0.601-5.2-2.7-5.2c-1.366,0-2.116,0.284-2.25,0.851c-0.2,0.899-0.366,1.399-0.5,1.5c-0.333-0.4-0.384-2-0.15-4.8
		c0.233-2.767-0.017-4.467-0.75-5.101h4c0.834,0.667,1.684,1,2.551,1c0.533,0,1.433-0.25,2.699-0.75
		c1.233-0.5,1.917-0.733,2.051-0.7L82.95,111l-0.65-0.15c-0.533,0.567-0.916,0.95-1.149,1.15c-0.367,0.333-0.967,0.5-1.801,0.5
		c-0.566,0-1.267-0.366-2.1-1.1s-1.8-1.101-2.9-1.101c-0.233,0-0.699,0.2-1.399,0.601c-0.9,0.466-1.684,1.05-2.35,1.75
		c-1.167,1.733-1.934,2.866-2.3,3.399c-0.6,0.834-1.033,1.25-1.3,1.25c-0.4,0-0.65-0.033-0.75-0.1c-0.1-0.101-0.167-0.15-0.2-0.15
		c-0.1-1.733-0.183-3.05-0.25-3.95c-0.167-1.566-0.55-2.683-1.15-3.35l-0.35,0.8c-0.066,0.167-0.3,0.25-0.7,0.25
		c-0.333,0-0.35-0.233-0.05-0.7c0.3-0.466,0.284-0.699-0.05-0.699c-0.967,0-2.433,1.316-4.4,3.949c-2.333,3.101-3.5,6.301-3.5,9.601
		c0,0.533,1.117,1.883,3.35,4.05c2.133,2.066,3.267,3.1,3.4,3.1c0.167,0,2.25-0.449,6.25-1.35c4.333-1,7.95-1.866,10.85-2.6
		c-0.601,1.1-1.517,2.017-2.75,2.75c-2.167,1.133-4.3,2.333-6.4,3.6h0.2c-3.3,1.5-5.733,2.934-7.3,4.3
		c-1.3,1.134-2.133,2.417-2.5,3.851c-0.067-0.434-0.15-0.851-0.25-1.25c-0.4-2-1.583-3.301-3.55-3.9c0.1-1.167,0.117-2.4,0.05-3.7
		h3.35c-2.9-0.2-5.25-1.267-7.05-3.2c-1.767-1.899-2.917-2.85-3.45-2.85c-0.5,0-1.6,0.267-3.3,0.8c-1.8,0.601-2.95,0.967-3.45,1.101
		c-0.033-0.467-0.167-0.851-0.4-1.15l-0.35-0.3l0.55-1.15l2.6-5.8c0.733-0.3,1.35-0.616,1.85-0.95c0.267-0.166,0.583-0.25,0.95-0.25
		c0.033,0,1.15,0.533,3.35,1.601l0.05-0.4V116c0.467-2.833-0.316-5.267-2.35-7.3c0.333-0.967,0.633-2,0.9-3.1
		c2.333,0.9,3.716,1.5,4.15,1.8c0.833,0.6,1.25,1.533,1.25,2.8c0,0.333-0.1,1.399-0.3,3.2c-0.167,1.833-0.183,3.083-0.05,3.75
		c0.333-0.334,0.65-0.733,0.95-1.2c0.233-0.533,0.966-2.601,2.2-6.2c0.533-1.634,1.2-2.45,2-2.45c0.667,0,1.383,0.084,2.15,0.25
		c0.767,0.601,1.333,1.15,1.7,1.65c0.133,0.2,0.367,0.3,0.7,0.3c0.333,0,0.333-0.2,0-0.6c-0.333-0.4-0.333-0.601,0-0.601
		c0.767,0,1.4,0.4,1.9,1.2c0.533,0.9,1.05,1.434,1.55,1.6c0.467-0.333,0.817-0.8,1.05-1.399c0.2-0.634,0.45-1.066,0.75-1.3
		c1.066-0.834,4.55-1.134,10.45-0.9l-0.4-0.2c-0.533-0.267-2.583-0.483-6.15-0.65c-5.1-0.267-8.05-0.433-8.85-0.5
		c0.167-0.3,0.55-1.633,1.15-4c0.7-2.8,1.133-5.133,1.3-7c-0.034-0.6-0.067-0.85-0.1-0.75c-0.033,0.067-0.117,0.333-0.25,0.8
		c-2.7,4.433-4.133,6.833-4.3,7.2c2.333-6.033,4.5-11.217,6.5-15.55c2.8-6.033,5.084-11.167,6.851-15.4
		c0.133,0.466,0.199,0.917,0.199,1.35c-1.533,5.267-2.816,9.534-3.85,12.8c-2.533,7.833-4.433,13.75-5.7,17.75
		c1.833,0.767,3.483,1.15,4.95,1.15c3.6,0,6.2-0.45,7.8-1.35c1.334-0.767,2.167-2.033,2.5-3.8c0.066-0.434,0.167-2.35,0.3-5.75
		c0.101-2.8,0.5-5.25,1.2-7.35c1.934-3.7,3.351-6.433,4.25-8.2c1.601-3.167,2.084-6.35,1.45-9.55h-1.55c0,1.733-0.167,2.65-0.5,2.75
		c-1.601-0.3-3.684-1.217-6.25-2.75c-4.101-2.467-6.417-3.833-6.95-4.1L75,64.15l0.95-0.1c0.533,0.067,3.149,0.1,7.85,0.1
		c-3.267-0.667-5.35-1.3-6.25-1.9c-0.566-0.4-1.2-0.6-1.899-0.6c-0.534,0-1.117,0.317-1.75,0.95c-0.834,0.833-1.767,1.45-2.8,1.85
		c-0.434,0.133-1.483,1.966-3.15,5.5c-1.633,3.533-2.534,5.816-2.7,6.85l0.1-10.4l-0.85,0.3c-2.667,1.566-4.067,2.383-4.2,2.45
		c0.8-0.833,1.733-1.983,2.8-3.45l0.55-1.2l-3.35,0.65c0.167-0.333,0.35-1,0.55-2c0.2-1.033,0.283-1.7,0.25-2l0.9-2
		c0.133-0.133,0.433-0.483,0.9-1.05c0.533-0.5,1.133-0.917,1.8-1.25l0.9-0.5c0.767-0.2,1.55-0.3,2.35-0.3
		c0.7,0.034,1.216,0.117,1.55,0.25l1.4,1.05l-1.2-4.8c0-13.3-0.034-23.25-0.1-29.85c-0.1-4-0.15-6.167-0.15-6.5
		c0-1.267,0.117-2.65,0.35-4.15C69.933,11.35,69.783,9,69.35,5l3.25-0.05l-0.05,4.1l0.3-4.1c3.834,0.1,6.717-0.067,8.65-0.5
		c0.033,3.566-0.033,7.183-0.2,10.85c0,2.8,0.55,4.867,1.65,6.2c2.2,2.733,3.45,4.383,3.75,4.95l0.05,0.15
		c0.3,1.066,0.483,2.733,0.55,5c0.667,2.333,3,4.816,7,7.45l0.8-9.6l0.15-2.65l0.05-1.2c0,2.133,0.2,7.1,0.601,14.9
		c-0.101,7.233-1.334,12.1-3.7,14.6c0.633,0.533,1.35,1.783,2.149,3.75c0.567,1.367,1.634,2.05,3.2,2.05
		c0.601,0,2.55-0.517,5.851-1.55c3.6-1.133,5.683-1.75,6.25-1.85c1.8-0.333,4.683-0.717,8.649-1.15c2.4-0.233,6.634-0.667,12.7-1.3
		l-0.1,0.55l-0.101,0.55c-0.033,0.133-0.066,0.283-0.1,0.45l-0.5,2.9c-1.733-0.267-2.967,0.2-3.7,1.4
		c-0.934,1.533-1.566,2.367-1.9,2.5c1.434-0.5,2.184-0.066,2.25,1.3c0.067,1.867,0.717,3.033,1.95,3.5c-0.7,2.7-1.55,4.833-2.55,6.4
		c-1.366,1.767-2.533,3.383-3.5,4.85c-0.566-0.733-1.517-1.05-2.85-0.95c-1.101,0.033-1.65-0.3-1.65-1c0.5-4.9,0.583-7.933,0.25-9.1
		c-0.467-1.6-2.95-2.367-7.45-2.3h-4.5c-0.2,4.967-0.3,8.35-0.3,10.15l-0.1-1l-0.25-0.95c0.399,1.733,0.3,4.417-0.301,8.05
		c-0.6,3.566-1.35,6.25-2.25,8.05c-0.066-0.1-0.1-0.483-0.1-1.15c0.5-7.033,0.75-10.883,0.75-11.55c0-2.633-0.05-4.367-0.15-5.2
		c-0.233-1.733-0.75-2.6-1.55-2.6c-1.267,0-2.267,0.35-3,1.05c-1.033,1.033-1.783,2.8-2.25,5.3l0.65-4.7
		c-1.2,0.167-1.867,0.75-2,1.75c-0.167,1.2-0.55,1.967-1.15,2.3c-0.133-0.2-0.434-1.367-0.899-3.5
		c-0.334-1.467-1.233-2.483-2.7-3.05c1.1,4.3,1.649,6.784,1.649,7.45c0,2.7-0.6,5.85-1.8,9.45c-0.666,1.9-1.733,4.483-3.2,7.75v-2.5
		c-0.066,0.7-0.933,2.917-2.6,6.65c-1.566,3.566-2.5,5.517-2.8,5.85c0.767,0.033,1.8,0.3,3.1,0.8c-0.2,1.067-0.233,2.283-0.1,3.65
		c0.1,1.433,0.35,1.767,0.75,1l0.7-0.5c0.6-1.5,0.899-2.817,0.899-3.95c0-0.5-0.1-1.2-0.3-2.1c-0.2-0.934-0.384-1.5-0.55-1.7
		l0.1-0.75l2.15-7.05c1.033-2.267,1.583-3.45,1.649-3.55c0.2-0.566,0.434-1.667,0.7-3.3l0.05,1.9
		c-0.267,3.967-0.733,7.717-1.399,11.25c-0.767,3.9-1.15,5.917-1.15,6.05l7.3,0.1c0.134,1.3,0.434,2.184,0.9,2.65l0.55-0.101
		c0.033-0.199-0.083-1.5-0.35-3.899L96.75,95c0-0.6,0.066-2,0.2-4.2c0.166-2.4,0.3-4.05,0.399-4.95l0.351,1.7
		c0.5,6.7,1.133,11.717,1.899,15.05c0.534,2.267,1.334,3.5,2.4,3.7c0.634,0.1,1.533,0.167,2.7,0.2l-0.45-0.15
		c-0.267-0.1-0.467-0.217-0.6-0.35c-0.267-0.2-0.4-0.517-0.4-0.95c0-0.4,0.134-0.683,0.4-0.85c0.1-0.067,0.216-0.117,0.35-0.15
		c0.866,0.034,1.566,0.017,2.1-0.05c0.134-0.733,0.351-2.617,0.65-5.65c0.233-2.6,0.434-4.15,0.6-4.65l0.601,1.45
		c0.166,0.567,0.45,1.684,0.85,3.35c0.367,1.467,0.617,2.317,0.75,2.55v-0.6c0-0.6,0.15-1.1,0.45-1.5l0.35,0.35
		c0.2,0.233,0.7,1.3,1.5,3.2c0.867-2.033,1.467-6.717,1.801-14.05c0.366-7.333,0.666-11.284,0.899-11.85l0.5,1.4
		c0.667,2.567,1,4.783,1,6.65c0,0.667-0.05,1.517-0.149,2.55l0.399-0.9c0.134-0.8,0.8-1.733,2-2.8
		c0.167,0.133,0.367,0.333,0.601,0.6l0.05,1.45l0.25-1c0.434-0.966,1.184-1.983,2.25-3.05c-1.7,3.367-3.05,7.083-4.05,11.15
		c-1.767,7.3-2.75,11.25-2.95,11.85c-0.033,0-0.05,0.017-0.05,0.05v0.05c-0.601,0.7-1.483,1.217-2.65,1.55l-1.7,0.35l2.9-0.2
		c-0.5,0.534-0.917,0.95-1.25,1.25c-1.5,0.867-2.367,1.316-2.601,1.351c-0.6-0.034-1.517,0-2.75,0.1l-1.3-0.05
		c-0.133,0-1.1,0.25-2.899,0.75h-0.75c0.1,0.399-0.051,0.8-0.45,1.2c-0.334-0.934-0.834-1.4-1.5-1.4c-0.834,0-2.584,0.066-5.25,0.2
		c-3.167,0.133-5.25,0.283-6.25,0.45v2l-0.45-2.801c-0.733,1.101-1.533,1.801-2.4,2.101c0.4,0.166,0.95,0.483,1.65,0.95
		c0.533,0.366,0.967,0.55,1.3,0.55c0.134,0,1.717-0.4,4.75-1.2c3-0.833,4.9-1.25,5.7-1.25c0.5,0,0.967,0.083,1.4,0.25
		c0.399,0.167,0.666,0.366,0.8,0.6l-0.2,0.551L100.2,112.9z M92.75,98.6c0-1.767,0.4-4.733,1.2-8.9c0.399-2.067,0.8-3.95,1.2-5.65
		c-0.167,7.767-0.317,12.184-0.45,13.25c-0.167,1.3-0.733,2.917-1.7,4.85l-0.15-0.95C92.783,100.4,92.75,99.533,92.75,98.6z
		 M38.9,206.3c0.267-1.833-0.233-5.233-1.5-10.2c-1.5-5.866-3.35-9.866-5.55-12c-0.8,2.301-1.55,4.801-2.25,7.5
		c-0.5,1.867-0.95,3.15-1.35,3.851c-0.4-2.566-0.6-4.233-0.6-5c0-0.5,0.583-3.767,1.75-9.8c1.1-5.801,1.833-9.5,2.2-11.101
		c0.033,0.134,0.05,0.134,0.05,0c0.667,0,1.25,0.283,1.75,0.851c0.467,0.533,0.7,1.199,0.7,2c-0.1,0.3-0.1,0.649,0,1.05l1.8-1.05
		c1.167-0.134,1.934-0.233,2.3-0.301c0.533-0.133,1.733-0.466,3.6-1c-2.267,3.233-3.8,5.334-4.6,6.301c-1.2,1.5-1.8,3.183-1.8,5.05
		c0,0.666,0.067,1.899,0.2,3.7l0.3-0.5c0.3-0.334,0.65-0.5,1.05-0.5c0.533,0,1.35-1.684,2.45-5.051c1.667-5.233,2.667-8.283,3-9.149
		c0.467-0.601,1.783-3.733,3.95-9.4c1.833-4.733,4.383-8.45,7.65-11.149l-0.35,1.25c-1.1,2.767-4.05,9.899-8.85,21.399
		c-4.367,10.367-6.55,15.617-6.55,15.75c0,0.533,0.033,0.884,0.1,1.05c0.1,0.2,0.283,0.317,0.55,0.351
		c0.367-0.066,1.85-0.667,4.45-1.8l0.05,0.35c-0.066,0.6-0.55,2.816-1.45,6.65c0,1.966,0.833,2.949,2.5,2.949
		c1.433,0,2.35-1.449,2.75-4.35c0.233-3.5,0.517-5.9,0.85-7.2c0.934,0.134,1.867,0.283,2.8,0.45c-0.667,0.167-1.633,0.684-2.9,1.55
		l0.45,0.05l3.4,0.101c0.467-0.066,0.817-0.217,1.05-0.45c0.133-0.1,0.15-0.434,0.05-1c1.3,0.033,3.85,0.184,7.65,0.45
		c-0.267,0.033-1.367,0.283-3.3,0.75c-2.033,0.467-3.283,0.783-3.75,0.95c-1.333,0-2.417,0.149-3.25,0.449
		c-1.6,0.634-2.4,2.217-2.4,4.75c0,1.801,0.816,3.184,2.45,4.15c1.367,0.8,2.983,1.2,4.85,1.2c3.167,0,5.184-2.101,6.05-6.3
		c0.3-2.134,0.517-3.584,0.65-4.351c0.233-1.267,0.55-1.934,0.95-2l-1,0.101c0.4-1.9,1.483-4.65,3.25-8.25
		c1.6-3.233,2.417-5.483,2.45-6.75c0.133-2.9,0.5-5.784,1.1-8.65c0.5-2.6,0.75-4.483,0.75-5.65L69.3,157.2l-0.15,1.899l-2.9,16.101
		c0.1-4.066,0.267-8.267,0.5-12.601c0.233-3.466,0.35-5.366,0.35-5.699c0-0.801-0.067-1.584-0.2-2.351l-0.35,1
		c-0.1,0.4-0.75,4.2-1.95,11.4l0.1-1.55c-0.034-1.767-0.184-3.801-0.45-6.101l-0.5,1.55c-0.667,3.634-1.2,7.017-1.6,10.15
		c-0.333,2.434-0.517,3.7-0.55,3.8c-0.1-7.5-0.217-12.166-0.35-14l-0.2,1.2c-0.267,1.7-0.933,3.767-2,6.2
		c-1.066,2.366-1.983,3.916-2.75,4.649c-0.066-0.399-0.1-0.933-0.1-1.6c0-3.333,0.433-7.3,1.3-11.9c0.833-4.366,1.567-6.966,2.2-7.8
		c1.767-2.233,3.283-6.066,4.55-11.5l0.25,0.25l1.1,2.95c0.267-0.033,0.5-0.134,0.7-0.3c0.3-0.867,0.967-2.417,2-4.65
		c0.934-2,1.417-3.133,1.45-3.399c2.167,1.1,3.667,2.517,4.5,4.25c0.434,0.866,0.634,1.616,0.6,2.25l-0.75,12.55
		c-0.166,2.133-0.433,3.967-0.8,5.5c-0.434,1.866-1.716,6.267-3.85,13.2l0.95-1.301c2.1-3,3.633-6.283,4.6-9.85
		c0.7-3.434,1.233-5.65,1.6-6.65l0.051,0.95c-2.434,10.101-4.5,18.4-6.2,24.9l0.3-0.101c0.667-0.333,1.2-0.699,1.6-1.1l-1.05,2.15
		c-0.7,1.5-1.05,2.449-1.05,2.85c0,0.366,0.117,0.733,0.35,1.1c0.267,0.4,0.417,0.7,0.45,0.9c-0.033,0.634,0.2,0.95,0.7,0.95
		l-0.2,2.05c-1.1,0.033-1.85-0.267-2.25-0.9c-0.667-1.066-1-3.55-1-7.449c0-0.4,0.5-2.184,1.5-5.351l1.5-4.649
		c-0.533,1.399-1.883,3.983-4.05,7.75c-1.867,3.899-2.8,7.866-2.8,11.899l0.2,5l0.55-0.75l1.35-2.899
		c0.3,0.333,0.517,0.55,0.65,0.649c0.3,0.167,0.667,0.25,1.1,0.25c0.567,0,1.067-0.184,1.5-0.55c0.2-0.167,0.784-0.8,1.75-1.9
		l0.1,1.15l0.2,0.05c-1.033,0.566-2,1.167-2.9,1.8c-1.833,1.233-2.85,2.301-3.05,3.2c0.167,0.233,0.55,0.533,1.15,0.9
		c0.333,0.2,0.75,0.45,1.25,0.75c-4.333,0.533-6.816,1.5-7.45,2.899c-0.133,1.834-0.767,3.351-1.9,4.551h-1.2
		c-3.1-0.434-5.017-0.717-5.75-0.851c-0.9-0.166-2.083-0.616-3.55-1.35c0.6-0.767,1.683-1.601,3.25-2.5l-1.05-0.101
		c-1-0.166-2.3-0.649-3.9-1.449c-1.433-0.767-2.483-1.15-3.15-1.15c-0.5,0.233-1.05,0.283-1.65,0.15
		c-1.133-0.233-2.233-1.25-3.3-3.051v1c0.2,4.967,0.6,8.117,1.2,9.45L38.9,206.3z M78.15,134.65l0.25-1.2V132
		c-1.167,1.366-1.7,2.816-1.601,4.35C77.467,135.583,77.917,135.017,78.15,134.65z M53.7,135.15c-1.333,0.233-5.083,2-11.25,5.3
		c-5.833,3.133-9.6,4.7-11.3,4.7l0.85-0.7c0.5-0.533,1.183-1.351,2.05-2.45l0.15-0.2l1.35-2.35c0.1-0.267,0.633-1.55,1.6-3.851
		c1.8,0.434,3.317,0.551,4.55,0.351c1.3-0.2,1.95-0.684,1.95-1.45c0-1.767,0.684-3.217,2.05-4.35c1.1-0.9,2.183-1.351,3.25-1.351
		c0.966,0,1.5,0.884,1.6,2.65c0.133,1.767,0.467,2.649,1,2.649c1,0,1.667-0.083,2-0.25L53.7,135.15z M37.3,192.9
		c0.133,0.933,0.6,1.399,1.4,1.399c0.167,0,0.683-0.116,1.55-0.35c0-0.434-0.15-0.816-0.45-1.15c-0.033,0.233-0.133,0.316-0.3,0.25
		c-0.367-0.066-1.217-0.483-2.55-1.25L37.3,192.9z M20,208.7c0.033-0.566-0.033-1.767-0.2-3.601c-0.133-1.933-0.2-3.017-0.2-3.25
		c0-6.699,1.767-11.233,5.3-13.6c0.067,0.3,0.133,0.634,0.2,1c-0.367,3.833-0.033,7.733,1,11.7c0.533,2,1.117,3.733,1.75,5.2
		c0,0.267,0.05,0.5,0.15,0.699c0.067,0.2,0.167,0.301,0.3,0.301c0.3,0.3,0.784,0.533,1.45,0.699c-4.2,0.267-6.3-1.483-6.3-5.25
		c0.133-3.199,0.183-5.116,0.15-5.75c-1,0.7-1.85,1.817-2.55,3.351c-0.7,1.566-1.05,3.133-1.05,4.7c0,1.566,0.483,2.616,1.45,3.149
		c0.533,0.267,1.833,0.517,3.9,0.75c0.133,0,1.45,0.584,3.95,1.75c2.467,1.134,3.983,1.7,4.55,1.7c-0.233,0.167-0.467,0.3-0.7,0.4
		H33.1c-0.033,0-0.067,0.017-0.1,0.05h-0.05c-0.333,0.1-0.684,0.184-1.05,0.25c-0.1,0-0.2,0-0.3,0c-0.434,0-1.217-0.101-2.35-0.3
		c-0.833-0.134-1.433-0.25-1.8-0.351l-0.1-0.05h-0.1C23.35,210.517,20.933,209.333,20,208.7z M40.55,205.95
		c0-0.867,0.133-1.667,0.4-2.4c0.267-0.733,0.633-1.233,1.1-1.5c0.467-0.3,0.934-0.316,1.4-0.05c0.433,0.267,0.8,0.767,1.1,1.5
		c0.267,0.7,0.4,1.5,0.4,2.4C43.183,205.866,41.717,205.884,40.55,205.95z M16.55,198.95c-0.167-0.167-0.35-0.334-0.55-0.5
		c-0.5-0.434-0.75-0.816-0.75-1.15v-0.05c0-0.566,0.85-2.717,2.55-6.45c1.667-3.767,2.5-6.816,2.5-9.149
		c0-0.867-0.233-1.601-0.7-2.2c-0.4-0.5-0.817-0.75-1.25-0.75c-1.967,0-3.184,1.533-3.65,4.6c-0.467,3.233-1.684,5.017-3.65,5.351
		L11,187.3c-0.067-3.166,0.067-6.116,0.4-8.85c0.3-2.601,0.717-4.434,1.25-5.5c0.267-0.767,0.717-1.867,1.35-3.3
		c0.867-2.2,2.05-5.067,3.55-8.601l1.2-2.7l0.1,0.051c-1.067,3.133-1.6,5.333-1.6,6.6c0,0.134,0.75,0.233,2.25,0.3
		c1.867,0.267,3.583,0.95,5.15,2.05c0.434,0.334,1.05,0.917,1.85,1.75c0.8,0.667,1.817,0.983,3.05,0.95l-0.85,2.7l1-0.2l0.7-0.5
		c-0.267,2.066-1.033,4.3-2.3,6.7c-1.3,2.434-2.817,4.417-4.55,5.95c-2.133,1.899-3.716,4.717-4.75,8.45
		c-0.533,1.966-0.983,4.216-1.35,6.75C17.283,199.667,16.983,199.35,16.55,198.95z M112.1,5.9c1.034,2.833,0.75,4.783-0.85,5.85
		c-1.2,0.867-2.884,1.117-5.05,0.75l-0.15,2.9c0,5.033,0.351,10.5,1.05,16.4c0.167,5.3-0.983,12.4-3.449,21.3l-0.101-1.6
		c0.134-2.5,0.066-6.717-0.2-12.65c0.067,5.367-0.633,9.667-2.1,12.9c-0.767,1.7-1.767,3.467-3,5.3l-0.35-0.8
		C98,41.017,98.033,31.9,98,28.9c-0.033-3.267-0.833-9.3-2.4-18.1l6.75,20.65c0.367,1.167,0.601,2.267,0.7,3.3L103,29.7
		c-0.167-8.567-0.25-13.184-0.25-13.85c0-1.267,0.3-2.017,0.9-2.25c0.633-0.267,0.966-0.567,1-0.9c0.233-1.567,0.35-3.867,0.35-6.9
		l-0.05-1.15C107.15,4.917,109.533,5.333,112.1,5.9z M127.25,21.1c0.434,0.7,0.75,1.017,0.95,0.95c0.1-0.033,0.149-0.133,0.149-0.3
		L127.7,13c0.7,0.033,1.416,0,2.149-0.1c0,0.434-0.199,2.684-0.6,6.75c-0.4,4-0.616,6.383-0.65,7.15
		C128.033,24.833,127.583,22.933,127.25,21.1z M99.3,14.3c-0.633-1.367-1.05-2.833-1.25-4.4C98.017,9.667,97.9,8.383,97.7,6.05
		l-0.851,0.3l1.2-0.9l1.45-0.6c0,0.033,0,0.066,0,0.1c-0.267,2.167-0.4,4.083-0.4,5.75C99.1,11.367,99.167,12.567,99.3,14.3z
		 M116.2,60.85l-1.25-0.3c-0.667-0.133-1.917-0.316-3.75-0.55c-1.767-0.2-2.917-0.3-3.45-0.3c-1.5,0-3.233,0.367-5.2,1.1
		c-2.666,0.967-3.866,2.25-3.6,3.85l0.7,0.15c2.866-1.533,5-2.533,6.399-3C109.316,60.7,112.7,60.383,116.2,60.85z M110.5,71.15
		c-0.4,0-0.684-0.033-0.85-0.1c-0.067-0.066-0.134-0.1-0.2-0.1c-0.134-1.4-0.2-2.117-0.2-2.15h-1.3
		c2.967-0.9,5.434-1.383,7.399-1.45c1,0,1.75,0.066,2.25,0.2l0.051,0.9c-0.301,0.167-0.967,0.25-2,0.25
		c-1.233,0-2.134,0.017-2.7,0.05c-0.267,0.033-0.684,0.433-1.25,1.2C111.1,70.75,110.7,71.15,110.5,71.15z M104.35,67.1l-0.05-2.05
		c0,0.534-0.217,0.8-0.649,0.8C103.65,66.35,103.884,66.767,104.35,67.1z M102,65.55l1.2,0.8c0-0.233-0.134-0.4-0.4-0.5
		C102.333,65.683,102.066,65.583,102,65.55z M90.35,55.75c-0.833,0.833-2.633,1.817-5.399,2.95c-2.967,1.167-4.867,1.533-5.7,1.1
		l-2-0.25c2.2,0.5,3.967,0.867,5.3,1.1c0.9,0.133,2.75,0.417,5.55,0.85c0.034,0,0.351,0.3,0.95,0.9c0.7,0.7,1.601,1.25,2.7,1.65
		c0.667,0.267,1.816,0.417,3.45,0.45c2.066,0.033,3.184,0.067,3.35,0.1l0.5-2.3c-0.366,0.167-0.883,0.25-1.55,0.25
		c-1.066,0-2.45-0.483-4.15-1.45c-2.199-1.233-3.216-2.7-3.05-4.4L90.35,55.75z M129.65,53.55l0.449-0.75l3.2-3.85
		C132.6,50.283,131.384,51.817,129.65,53.55z M122.95,67.7c0.399,0,0.75-0.15,1.05-0.45s0.45-0.667,0.45-1.1
		c0-0.433-0.15-0.8-0.45-1.1c-0.3-0.3-0.65-0.45-1.05-0.45c-0.4,0-0.75,0.15-1.05,0.45c-0.301,0.3-0.45,0.667-0.45,1.1
		c0,0.434,0.149,0.8,0.45,1.1C122.2,67.55,122.55,67.7,122.95,67.7z M57.65,71.35c-0.933,1.1-1.75,3.066-2.45,5.9
		c-0.6,2.3-1.583,3.817-2.95,4.55H52.2c0.033-2.667,0.066-4.216,0.1-4.65c0.034-0.3,0.383-1.667,1.05-4.1
		c0.6-1.333,0.933-2.033,1-2.1c0.633-0.767,1.117-1.383,1.45-1.85l0.45-0.5l0.1-0.15c-0.033,0.167-0.217,0.783-0.55,1.85
		c-0.367,1.133-0.617,1.833-0.75,2.1l1.25-0.3L57.65,71.35z M70.2,61.2c-0.367-0.267-0.817-0.4-1.35-0.4s-0.983,0.133-1.35,0.4
		c-0.367,0.233-0.55,0.517-0.55,0.85c0,0.333,0.183,0.633,0.55,0.9c0.367,0.233,0.817,0.35,1.35,0.35s0.983-0.117,1.35-0.35
		c0.367-0.267,0.55-0.567,0.55-0.9C70.75,61.717,70.567,61.433,70.2,61.2z M71.9,71.3l0.1,1.95c0,3.1-0.667,6.717-2,10.85
		c-0.667,2.066-1.35,3.967-2.05,5.7l-6.6,6.65c0.5-2.034,2.233-6.367,5.2-13C69.85,76.083,71.633,72.033,71.9,71.3z M63.05,102.4
		c-0.466,0.833-0.933,1.934-1.4,3.3l-0.2-0.2c-1.367-1.367-2.3-2.05-2.8-2.05c-2.433,0.3-3.95,0.367-4.55,0.2
		c-0.833-0.2-1.55-1.483-2.15-3.85l-0.6,0.15l0.2-1.75c1.1,1.633,3.167,2.533,6.2,2.7c1.6,0.1,3.517,0.184,5.75,0.25L63.05,102.4z
		 M69.7,121.85c0-2.3,0.3-5.366,0.9-9.199c0.133,6.333,0,11.05-0.4,14.149l-0.45-2.149L69.7,121.85z M64.4,117.25
		c0.3-2.2,0.483-3.566,0.55-4.1c0.267,0.399,0.483,0.85,0.65,1.35c0.133,0.833,0.2,1.767,0.2,2.8c0,0.367,0.034,1.983,0.1,4.851
		c-0.1,2.966-0.617,5.166-1.55,6.6c-0.233-2.333-0.35-4.033-0.35-5.1C64,121.684,64.133,119.55,64.4,117.25z M51.65,148.1
		c-0.033,0.2-0.3,1.051-0.8,2.551c-0.467,1.433-0.75,2.267-0.85,2.5c-1.433,2.466-2.733,4.566-3.9,6.3c-1.367,2.1-2.667,4.1-3.9,6
		l0.25-0.45c0.767-1.366,1.45-2.7,2.05-4c1.167-2.566,1.75-4.583,1.75-6.05c0-0.767-0.267-1.217-0.8-1.351
		c-0.567,0.167-1.017,0.25-1.35,0.25c0.167,0.7-0.133,1.667-0.9,2.9c-0.9,1.434-1.383,2.283-1.45,2.55
		c-0.1,0.467-0.117,2.283-0.05,5.45c-0.2,3.1-1.017,5.066-2.45,5.9l0.05-0.75c0.067-1-0.05-2.2-0.35-3.601
		c-0.3-1.267-0.633-2.2-1-2.8c-0.167,0.366-0.333,0.917-0.5,1.65c-0.2,0.566-0.534,0.85-1,0.85c-0.4,0-0.583-0.017-0.55-0.05
		c0.033,0,0.1-0.017,0.2-0.05l-0.3-1c-0.2,0.033-0.433,0.133-0.7,0.3l-0.3,0.3l-0.2,0.4l-1,3.85l-0.2-0.8
		c-0.033-4.4-0.467-7.816-1.3-10.25c-0.7-2.134-1.567-3.2-2.6-3.2l-1.1,0.05c0.133,4.434,0.2,6.983,0.2,7.65
		c-0.033,0.6-0.233,1.05-0.6,1.35c-0.733-0.566-1.283-1.45-1.65-2.649c-0.2-1.101-0.3-1.667-0.3-1.7c0.367-2.8,0.55-4.233,0.55-4.3
		l-2.4,0.8c-1.034-2.233-1.65-3.566-1.85-4l1.4-1.4c1.6,0.2,2.667,0.45,3.2,0.75c0.3,0.167,0.417,0.3,0.35,0.4
		c0.567,0.066,1.917-0.533,4.05-1.8c2.3-1.367,3.617-2.101,3.95-2.2c0.3,0.033,0.534,0.583,0.7,1.649
		c1.067-0.533,3.283-1.6,6.65-3.199c2.9-1.7,4.45-3.617,4.65-5.75l4.3,5C51.667,146.783,51.683,147.434,51.65,148.1z M60.6,144.9
		c0.033,0.8-0.167,1.716-0.6,2.75c-0.467,1.033-1.033,1.833-1.7,2.399l-0.05-1.399c0-0.733,0.117-1.4,0.35-2
		c0.333-0.867,0.967-1.851,1.9-2.95c0.033,0.3,0.083,0.616,0.15,0.95L60.6,144.9z M14.25,179.4c0.333-0.367,0.617-0.801,0.85-1.301
		c-0.167-2.133,0.683-4.199,2.55-6.199c1-1.067,2.317-2.434,3.95-4.101c-2.267-2.133-4.05-1.816-5.35,0.95
		C15.25,170.917,14.583,174.467,14.25,179.4z M79.3,158.4l-0.1,2.1c-0.667,4.967-1.467,8.517-2.4,10.65
		c-0.566,1.3-1.533,3.1-2.899,5.399l0.949-1.899C77.184,169.017,78.667,163.6,79.3,158.4z M45.6,173.15l3.35-3.65l-0.35,4.3
		c2.667,0.066,4.383,0.467,5.15,1.2c0.733,0.7,1.783,1.05,3.15,1.05c1.167,0,2.6-0.116,4.3-0.35c1.833-0.267,3.2-0.566,4.1-0.9
		l-0.05,0.4c-0.8,1.333-2.667,2.399-5.6,3.2c-2.2,0.6-4.083,0.899-5.65,0.899c-0.2,0-0.6-0.283-1.2-0.85
		c-0.633-0.566-1.083-0.851-1.35-0.851c-0.267,0-0.9,0.217-1.9,0.65c-1.033,0.434-1.917,0.65-2.65,0.65c-0.4,0-0.583-0.067-0.55-0.2
		l0.15-0.2c0.033-1.7,0.033-2.833,0-3.4C46.5,174.134,46.2,173.483,45.6,173.15z"/>
	<path style="fill-rule:evenodd;clip-rule:evenodd;fill:#7C736A;" d="M143.7,32.55c-0.867,2.367-1.483,3.9-1.851,4.6
		c-0.466,0.733-0.966,1.5-1.5,2.3c0.634-1.067,1.25-2.434,1.851-4.1c0.833-2.3,1.2-4.117,1.1-5.45L143.7,32.55z M117,8
		c0,1.8,0.05,3.983,0.15,6.55c0,1.567-0.351,2.534-1.051,2.9c-0.566,0.333-1.733,0.35-3.5,0.05c0.034,0.067,0.233,0.45,0.601,1.15
		c0.333,0.733,0.5,1.283,0.5,1.65c0,0.5-0.167,4.55-0.5,12.15c-0.367,8.466-0.65,13.767-0.851,15.9l-0.1,1.1
		c1.167-4.2,2.25-9.417,3.25-15.65c0.866-5.367,1.366-9.433,1.5-12.2c0.467,1.267,0.8,1.983,1,2.15l0.25,0.05l-0.05-0.9l0.399-0.7
		c0.233,0.233,0.45,0.683,0.65,1.35c0.167,0.6,0.25,1.167,0.25,1.7c0,4.767-0.7,10-2.1,15.7c-0.434,1.767-1.584,5.65-3.45,11.65
		l-0.3,1.6c2.333-2.434,4.116-6.65,5.35-12.65c1-4.933,1.333-8.2,1-9.8c0.366,0.5,0.9,4.167,1.6,11
		c0.101-13.333,0.15-20.333,0.15-21c0-2.3-0.316-4.283-0.95-5.95c-1.467-4-2.3-6.333-2.5-7c0.434,0.267,1.717,0.95,3.851,2.05
		c2.066,1.066,3.399,1.717,4,1.95c-1.067-0.3-2.15-0.7-3.25-1.2c1.066,2.967,2.517,6.133,4.35,9.5c0.333,1.833,0.783,3.733,1.35,5.7
		c0.034-0.767,0.25-3.15,0.65-7.15c0.4-4.066,0.6-6.316,0.6-6.75c-0.733,0.1-1.449,0.133-2.149,0.1c0.3,0,1.333-0.167,3.1-0.5
		c1.834-0.367,3.267-0.683,4.3-0.95c-2.933,0.9-4.633,1.333-5.1,1.3c0.566,5.7,0.866,11.133,0.9,16.3c0.733-3.8,1.066-6.617,1-8.45
		c-0.101-3-0.084-5.267,0.05-6.8c0.366-0.267,0.866-0.65,1.5-1.15l0.149,6.3c0,10.8-0.316,17.184-0.949,19.15
		c-0.067,0.2-0.351,0.716-0.851,1.55c-0.366,0.6-0.649,1.633-0.85,3.1l-0.05,0.85c2.133-0.867,3.816-3.65,5.05-8.35
		c0.899-4.833,1.399-7.567,1.5-8.2l0.149-0.85l0.75,1.75L138.65,29v-1.7l0.1-0.4c0.866-0.033,1.434,0.35,1.7,1.15
		c0.2,0.534,0.3,1.6,0.3,3.2c0,2.6-0.3,4.883-0.9,6.85c-0.566,1.8-1.533,3.717-2.899,5.75c-2.334,3.167-3.717,5.167-4.15,6
		c-0.733,1.367-1.366,3.283-1.899,5.75l0.1-0.55c-6.066,0.633-10.3,1.067-12.7,1.3c-3.967,0.433-6.85,0.816-8.649,1.15
		c-0.567,0.1-2.65,0.717-6.25,1.85c-3.301,1.033-5.25,1.55-5.851,1.55c-1.566,0-2.633-0.683-3.2-2.05
		c-0.8-1.967-1.517-3.217-2.149-3.75c2.366-2.5,3.6-7.367,3.7-14.6C95.5,32.7,95.3,27.733,95.3,25.6l-0.05,1.2
		c0.033-1.533,0-3.867-0.1-7C95.05,16.4,95,14.533,95,14.2c0-2.567,0.15-4.35,0.45-5.35c0.1-0.3,0.566-1.133,1.399-2.5l0.851-0.3
		c0.2,2.333,0.316,3.617,0.35,3.85c0.2,1.567,0.617,3.033,1.25,4.4c0.167,1.267,0.816,4.65,1.95,10.15c1.1,5.3,1.667,8.117,1.7,8.45
		l0.05-3.2l0.05,5.05c-0.1-1.033-0.333-2.133-0.7-3.3L95.6,10.8c1.567,8.8,2.367,14.833,2.4,18.1c0.033,3,0,12.117-0.1,27.35
		l0.35,0.8c1.233-1.833,2.233-3.6,3-5.3c1.467-3.233,2.167-7.533,2.1-12.9c0.267,5.933,0.334,10.15,0.2,12.65l0.101,1.6
		c2.466-8.9,3.616-16,3.449-21.3c-0.699-5.9-1.05-11.367-1.05-16.4l0.15-2.9c2.166,0.367,3.85,0.117,5.05-0.75
		c1.6-1.067,1.884-3.017,0.85-5.85L117,8z M123.45,16c0.267,1.933,0.6,4.267,1,7c0.7,4.433,1.283,7.083,1.75,7.95l0.35,0.45
		c0.167-0.667,0.25-1.7,0.25-3.1c0-0.667-0.05-1.867-0.149-3.6c-0.134-2-0.284-3.483-0.45-4.45c-0.066-0.533-0.767-1.617-2.101-3.25
		C123.833,16.7,123.616,16.367,123.45,16z M122.75,79.45l-1.3,2.05c-1.066,1.067-1.816,2.083-2.25,3.05l-0.25,1l-0.05-1.45
		c-0.233-0.267-0.434-0.467-0.601-0.6c-1.2,1.067-1.866,2-2,2.8l-0.399,0.9c0.1-1.034,0.149-1.883,0.149-2.55
		c0-1.867-0.333-4.083-1-6.65l-0.5-1.4c-0.233,0.566-0.533,4.517-0.899,11.85c-0.334,7.333-0.934,12.017-1.801,14.05
		c-0.8-1.9-1.3-2.967-1.5-3.2L110,98.95c-0.3,0.4-0.45,0.9-0.45,1.5v0.6c-0.133-0.233-0.383-1.083-0.75-2.55
		c-0.399-1.667-0.684-2.783-0.85-3.35l-0.601-1.45c-0.166,0.5-0.366,2.05-0.6,4.65c-0.3,3.033-0.517,4.917-0.65,5.65
		c-0.533,0.067-1.233,0.083-2.1,0.05c-0.134,0.034-0.25,0.083-0.35,0.15c-0.267,0.167-0.4,0.45-0.4,0.85
		c0,0.434,0.134,0.75,0.4,0.95c0.133,0.133,0.333,0.25,0.6,0.35l0.45,0.15c-1.167-0.033-2.066-0.1-2.7-0.2
		c-1.066-0.2-1.866-1.433-2.4-3.7c-0.767-3.333-1.399-8.35-1.899-15.05l-0.351-1.7c-0.1,0.9-0.233,2.55-0.399,4.95
		c-0.134,2.2-0.2,3.6-0.2,4.2l0.45,9.2l-0.9-2.7l-0.2,4.05l-7.3-0.1c0-0.133,0.384-2.15,1.15-6.05
		c0.666-3.533,1.133-7.283,1.399-11.25l-0.05-1.9c-0.267,1.633-0.5,2.733-0.7,3.3c-0.066,0.1-0.616,1.284-1.649,3.55l1-3.3
		c-1.733,5-3.283,9.9-4.65,14.7c-1.3-0.5-2.333-0.767-3.1-0.8c0.3-0.333,1.233-2.284,2.8-5.85c1.667-3.733,2.533-5.95,2.6-6.65v2.5
		c1.467-3.267,2.534-5.85,3.2-7.75c1.2-3.6,1.8-6.75,1.8-9.45c0-0.667-0.55-3.15-1.649-7.45c1.467,0.567,2.366,1.583,2.7,3.05
		c0.466,2.133,0.767,3.3,0.899,3.5c0.601-0.333,0.983-1.1,1.15-2.3c0.133-1,0.8-1.583,2-1.75l-0.65,4.7
		c0.467-2.5,1.217-4.267,2.25-5.3c0.733-0.7,1.733-1.05,3-1.05c0.8,0,1.316,0.867,1.55,2.6c0.101,0.833,0.15,2.567,0.15,5.2
		c0,0.667-0.25,4.517-0.75,11.55c0,0.667,0.033,1.05,0.1,1.15c0.9-1.8,1.65-4.483,2.25-8.05c0.601-3.633,0.7-6.317,0.301-8.05
		l0.25,0.95l0.1,1c0-1.8,0.1-5.183,0.3-10.15h4.5c4.5-0.067,6.983,0.7,7.45,2.3c0.333,1.167,0.25,4.2-0.25,9.1
		c0,0.7,0.55,1.033,1.65,1C121.233,78.4,122.184,78.717,122.75,79.45z M114.4,104.6c-0.534,0.667-1.017,1.233-1.45,1.7l-2.9,0.2
		l1.7-0.35C112.917,105.817,113.8,105.3,114.4,104.6z M100.5,111.9l0.2-0.551c-0.134-0.233-0.4-0.433-0.8-0.6
		c-0.434-0.167-0.9-0.25-1.4-0.25c-0.8,0-2.7,0.417-5.7,1.25c-3.033,0.8-4.616,1.2-4.75,1.2c-0.333,0-0.767-0.184-1.3-0.55
		c-0.7-0.467-1.25-0.784-1.65-0.95c0.867-0.3,1.667-1,2.4-2.101l0.45,2.801v-2c1-0.167,3.083-0.317,6.25-0.45
		c2.666-0.134,4.416-0.2,5.25-0.2c0.666,0,1.166,0.467,1.5,1.4c0.399-0.4,0.55-0.801,0.45-1.2h0.75
		C101.384,110.634,100.833,111.366,100.5,111.9z M100.2,112.9c0,2-0.4,3.716-1.2,5.149c-0.833,1.4-1.833,2.101-3,2.101l1.2-1.15
		c-1.033-0.2-2.9-0.15-5.601,0.15c-0.199,0-0.316-0.217-0.35-0.65c0.233-0.233,1.616-0.767,4.15-1.6
		C97.566,116.2,99.167,114.866,100.2,112.9z M89.15,129.6c-0.134-0.066-0.267-0.083-0.4-0.05c-0.3,0.101-0.434,0.45-0.4,1.05
		c-0.1,4.267-1.216,6.801-3.35,7.601c-1.134,0.434-1.866,0.85-2.2,1.25c-0.666,0.833-1,2.316-1,4.45l-0.1,0.25
		c-0.334-2-0.5-4.434-0.5-7.301c0-0.699,0.517-1.75,1.55-3.149c0.566-0.767,1.417-1.867,2.55-3.3c-2.3,0.366-4.366,0.649-6.2,0.85
		c0.967-0.9,2.217-1.767,3.75-2.6c2.134-1.101,4.467-2.017,7-2.75C89.45,127.533,89.217,128.767,89.15,129.6z M91.25,123.8
		l1.15-1.05c-5.967,2.066-9.617,3.15-10.95,3.25c0.1-0.434,0.149-1.017,0.149-1.75c0-0.4-0.216-1.033-0.649-1.9L80.3,121.2
		c-0.066-0.367-0.083-0.684-0.05-0.95c0.066-0.5,0.384-0.55,0.95-0.15l-0.05-2.399l0.35-1.05l-0.1-0.051
		c0.033-0.066,0.25-0.1,0.649-0.1c0.9,0,1.45,0.816,1.65,2.45c0.133,1.066,0.116,2.916-0.05,5.55c0.267,0,2.166-0.583,5.699-1.75
		c3.567-1.2,5.617-1.934,6.15-2.2L91.25,123.8z M73.1,191.55c-0.1,0.066-0.183,0.134-0.25,0.2c0.301,0.233,0.817,0.616,1.551,1.15
		c0.699,0.433,1.35,0.649,1.949,0.649c-0.033,0.033-2.716,1.867-8.05,5.5c-4.867,3.3-7.983,5.584-9.35,6.851
		c1.133-1.2,1.767-2.717,1.9-4.551c0.633-1.399,3.117-2.366,7.45-2.899c-0.5-0.3-0.917-0.55-1.25-0.75
		c-0.6-0.367-0.983-0.667-1.15-0.9c0.2-0.899,1.217-1.967,3.05-3.2c0.9-0.633,1.867-1.233,2.9-1.8
		C72.316,191.8,72.733,191.717,73.1,191.55z M38.9,206.3c-1.066,0.8-2.3,2.334-3.7,4.601c-0.467,0.8-1.15,1.383-2.05,1.75
		c0.233-0.101,0.467-0.233,0.7-0.4c-0.567,0-2.083-0.566-4.55-1.7c-2.5-1.166-3.816-1.75-3.95-1.75
		c-2.067-0.233-3.367-0.483-3.9-0.75c-0.967-0.533-1.45-1.583-1.45-3.149c0-1.567,0.35-3.134,1.05-4.7
		c0.7-1.533,1.55-2.65,2.55-3.351c0.033,0.634-0.017,2.551-0.15,5.75c0,3.767,2.1,5.517,6.3,5.25l0.9,0.051l1.1-0.15
		c-0.733-0.5-1.383-0.983-1.95-1.45c-1.133-0.934-1.7-2.45-1.7-4.55c0.167-3.467,0.217-5.566,0.15-6.3
		c0.4-0.7,0.85-1.983,1.35-3.851c0.7-2.699,1.45-5.199,2.25-7.5c2.2,2.134,4.05,6.134,5.55,12
		C38.667,201.066,39.167,204.467,38.9,206.3z M75,132.5c0.233,2.467,0.217,5.384-0.05,8.75v8.55l0.649-8.2l0.4-2l-0.15,2.95
		c0,0.4,0.067,1.134,0.2,2.2c0.066,0,0.101,0.05,0.101,0.15c0.066,0.1,0.3,0.149,0.699,0.149c0.434,0,0.717-0.116,0.851-0.35
		c0.066-0.167,0.184-0.467,0.35-0.9c0.334,0.8,0.5,1.601,0.5,2.4s-0.283,4.5-0.85,11.1c0.533-2.166,1.149-4.333,1.85-6.5l0.101,1.95
		c0,1.866-0.117,3.75-0.351,5.65v13.449c0.5-3.666,1-7.133,1.5-10.399c1-6.5,1.95-10.9,2.851-13.2
		c0.466,0.866,0.767,3.033,0.899,6.5c0.101,2.066,0.15,5.483,0.15,10.25c0,1.8-0.217,6.3-0.65,13.5c0.066-2,0.101-4.083,0.101-6.25
		l-0.25-4.6c-0.7,1.533-1.2,3.583-1.5,6.149c-0.067,0.467-0.217,2.55-0.45,6.25c-0.2,2.434-0.8,3.95-1.8,4.55
		c-0.801,0.467-1.101,1.434-0.9,2.9c-0.366,0.033-1.1-0.017-2.2-0.15c-1.2-0.1-2.083-0.149-2.649-0.149l-0.45-10.05
		c0,0.3-0.733,3.733-2.2,10.3c-0.5,0-0.733-0.316-0.7-0.95c-0.033-0.2-0.183-0.5-0.45-0.9c-0.233-0.366-0.35-0.733-0.35-1.1
		c0-0.4,0.35-1.35,1.05-2.85l1.05-2.15c-0.399,0.4-0.933,0.767-1.6,1.1l-0.3,0.101c1.7-6.5,3.767-14.8,6.2-24.9l-0.051-0.95
		c-0.366,1-0.899,3.217-1.6,6.65c-0.967,3.566-2.5,6.85-4.6,9.85l-0.95,1.301c2.133-6.934,3.416-11.334,3.85-13.2
		c0.367-1.533,0.634-3.367,0.8-5.5l0.75-12.55c0.034-0.634-0.166-1.384-0.6-2.25c-0.833-1.733-2.333-3.15-4.5-4.25
		c-0.033,0.267-0.517,1.399-1.45,3.399c-1.033,2.233-1.7,3.783-2,4.65c-0.2,0.166-0.433,0.267-0.7,0.3l-1.1-2.95l-0.25-0.25
		c-1.267,5.434-2.783,9.267-4.55,11.5c-0.633,0.834-1.367,3.434-2.2,7.8c-0.867,4.601-1.3,8.567-1.3,11.9c0,0.667,0.033,1.2,0.1,1.6
		c0.767-0.733,1.684-2.283,2.75-4.649c1.067-2.434,1.733-4.5,2-6.2l0.2-1.2c0.133,1.834,0.25,6.5,0.35,14
		c0.033-0.1,0.217-1.366,0.55-3.8c0.4-3.134,0.934-6.517,1.6-10.15l0.5-1.55c0.267,2.3,0.417,4.334,0.45,6.101l-0.1,1.55
		c1.2-7.2,1.85-11,1.95-11.4l0.35-1c0.133,0.767,0.2,1.55,0.2,2.351c0,0.333-0.117,2.233-0.35,5.699
		c-0.233,4.334-0.4,8.534-0.5,12.601l2.9-16.101l0.15-1.899l0.05,1.149c0,1.167-0.25,3.051-0.75,5.65
		c-0.6,2.866-0.967,5.75-1.1,8.65c-0.033,1.267-0.85,3.517-2.45,6.75c-1.767,3.6-2.85,6.35-3.25,8.25l1-0.101
		c-0.4,0.066-0.716,0.733-0.95,2c-0.133,0.767-0.35,2.217-0.65,4.351c-0.867,4.199-2.883,6.3-6.05,6.3c-1.867,0-3.483-0.4-4.85-1.2
		c-1.633-0.967-2.45-2.35-2.45-4.15c0-2.533,0.8-4.116,2.4-4.75c0.833-0.3,1.917-0.449,3.25-0.449
		c0.467-0.167,1.717-0.483,3.75-0.95c1.933-0.467,3.033-0.717,3.3-0.75c-3.8-0.267-6.35-0.417-7.65-0.45l-1.15-0.05
		c-0.133-0.267-0.433-0.334-0.9-0.2c-0.934-0.167-1.867-0.316-2.8-0.45c-0.333,1.3-0.617,3.7-0.85,7.2
		c-0.4,2.9-1.317,4.35-2.75,4.35c-1.667,0-2.5-0.983-2.5-2.949c0.9-3.834,1.383-6.051,1.45-6.65l-0.05-0.35
		c-2.6,1.133-4.083,1.733-4.45,1.8c-0.267-0.033-0.45-0.15-0.55-0.351c-0.067-0.166-0.1-0.517-0.1-1.05
		c0-0.133,2.183-5.383,6.55-15.75c4.8-11.5,7.75-18.633,8.85-21.399L54,150.4c-3.267,2.699-5.817,6.416-7.65,11.149
		c-2.167,5.667-3.483,8.8-3.95,9.4c0.3-0.7,0.533-1.4,0.7-2.101l0.2-2c-0.033,0.267-0.2,0.967-0.5,2.101
		c-0.267,0.967-0.6,1.684-1,2.149c-1.867,0.534-3.066,0.867-3.6,1c-0.367,0.067-1.133,0.167-2.3,0.301
		c0.267-0.634,0.4-1.5,0.4-2.601c0-0.5-0.066-0.934-0.2-1.3c-0.1-0.333-0.533-1.333-1.3-3l0.3-0.3c0.267-0.167,0.5-0.267,0.7-0.3
		l0.3,1c-0.1,0.033-0.167,0.05-0.2,0.05c-0.033,0.033,0.15,0.05,0.55,0.05c0.466,0,0.8-0.283,1-0.85
		c0.167-0.733,0.333-1.284,0.5-1.65c0.367,0.6,0.7,1.533,1,2.8c0.3,1.4,0.417,2.601,0.35,3.601l-0.05,0.75
		c1.433-0.834,2.25-2.801,2.45-5.9c-0.067-3.167-0.05-4.983,0.05-5.45c0.067-0.267,0.55-1.116,1.45-2.55
		c0.767-1.233,1.066-2.2,0.9-2.9c0.333,0,0.783-0.083,1.35-0.25c0.533,0.134,0.8,0.584,0.8,1.351c0,1.467-0.583,3.483-1.75,6.05
		c-0.6,1.3-1.283,2.634-2.05,4l-0.25,0.45c1.233-1.9,2.533-3.9,3.9-6c1.167-1.733,2.467-3.834,3.9-6.3
		c1.467-2.367,2.85-5.017,4.15-7.95c1.767-4.033,2.684-7.267,2.75-9.7c1.967,0.6,3.15,1.9,3.55,3.9c0.1,0.399,0.183,0.816,0.25,1.25
		c0.367-1.434,1.2-2.717,2.5-3.851c1.566-1.366,4-2.8,7.3-4.3C72.767,132.634,74.267,132.634,75,132.5z M31.9,212.95
		c-0.333,0.033-0.667,0.05-1,0.05c-0.7,0-1.85-0.233-3.45-0.7c0.367,0.101,0.966,0.217,1.8,0.351c1.133,0.199,1.917,0.3,2.35,0.3
		C31.7,212.95,31.8,212.95,31.9,212.95z M16.55,198.95c0.434,0.399,0.733,0.717,0.9,0.95L18,201.05L16.55,198.95z M11.1,189.75
		l-0.05-1.1c1.967-0.334,3.184-2.117,3.65-5.351c0.466-3.066,1.683-4.6,3.65-4.6c0.433,0,0.85,0.25,1.25,0.75
		c0.467,0.6,0.7,1.333,0.7,2.2c0,2.333-0.833,5.383-2.5,9.149c-1.7,3.733-2.55,5.884-2.55,6.45c-0.833-0.566-1.7-1.684-2.6-3.35
		C11.783,192.267,11.267,190.884,11.1,189.75z M101.05,4.6l-0.95,0.15l0.25-0.1L101.05,4.6z M102,65.55
		c0.066,0.034,0.333,0.133,0.8,0.3c0.267,0.1,0.4,0.267,0.4,0.5L102,65.55z M104.35,67.1c-0.466-0.333-0.699-0.75-0.699-1.25
		c0.433,0,0.649-0.267,0.649-0.8L104.35,67.1z M110.5,71.15c0.2,0,0.6-0.4,1.2-1.2c0.566-0.767,0.983-1.167,1.25-1.2
		c0.566-0.033,1.467-0.05,2.7-0.05c1.033,0,1.699-0.083,2-0.25l-0.051-0.9c-0.5-0.133-1.25-0.2-2.25-0.2
		c-1.966,0.066-4.433,0.55-7.399,1.45h1.3c0,0.034,0.066,0.75,0.2,2.15c0.066,0,0.133,0.033,0.2,0.1
		C109.816,71.117,110.1,71.15,110.5,71.15z M63.05,102.4l0.45-1.25c-2.233-0.066-4.15-0.15-5.75-0.25
		c-3.033-0.167-5.1-1.066-6.2-2.7c0.467-4.934,0.7-10.4,0.7-16.4c1.367-0.733,2.35-2.25,2.95-4.55c0.7-2.833,1.517-4.8,2.45-5.9
		c0.8-0.567,1.684-1.3,2.65-2.2c0.133-0.066,1.534-0.883,4.2-2.45l0.85-0.3l-0.1,10.4c0.167-1.033,1.067-3.316,2.7-6.85
		c1.667-3.534,2.716-5.367,3.15-5.5c1.034-0.4,1.966-1.017,2.8-1.85c0.633-0.633,1.216-0.95,1.75-0.95c0.699,0,1.333,0.2,1.899,0.6
		c0.9,0.6,2.983,1.233,6.25,1.9c-4.7,0-7.316-0.033-7.85-0.1L75,64.15l-0.75,0.25c0.533,0.267,2.85,1.633,6.95,4.1
		c2.566,1.533,4.649,2.45,6.25,2.75c0.333-0.1,0.5-1.017,0.5-2.75h1.55c0.634,3.2,0.15,6.383-1.45,9.55
		c-0.899,1.767-2.316,4.5-4.25,8.2c-0.7,2.1-1.1,4.55-1.2,7.35c-0.133,3.4-0.233,5.316-0.3,5.75c-0.333,1.767-1.166,3.033-2.5,3.8
		c-1.6,0.9-4.2,1.35-7.8,1.35c-1.467,0-3.117-0.383-4.95-1.15c1.267-4,3.167-9.917,5.7-17.75c1.033-3.267,2.316-7.533,3.85-12.8
		c0-0.433-0.066-0.883-0.199-1.35c-1.767,4.233-4.051,9.367-6.851,15.4C67.55,91.183,65.383,96.367,63.05,102.4z M45.45,119.25
		c1.4-3.533,2.433-6.316,3.1-8.35l0.75-2.2c2.034,2.033,2.817,4.467,2.35,7.3v3.25l-0.05,0.4c-2.2-1.067-3.317-1.601-3.35-1.601
		c-0.367,0-0.683,0.084-0.95,0.25C46.8,118.634,46.183,118.95,45.45,119.25z M42.3,126.2l-0.05-0.05l0.6-1.101L42.3,126.2z
		 M53.7,135.15c-0.034,2.666-0.167,4.85-0.4,6.55c-0.3,2.066-0.85,4.2-1.65,6.399c0.033-0.666,0.017-1.316-0.05-1.949l-4.3-5
		c-0.2,2.133-1.75,4.05-4.65,5.75c-3.367,1.6-5.583,2.666-6.65,3.199c-0.167-1.066-0.4-1.616-0.7-1.649
		c-0.333,0.1-1.65,0.833-3.95,2.2c-2.133,1.267-3.483,1.866-4.05,1.8c0.067-0.101-0.05-0.233-0.35-0.4c-0.534-0.3-1.6-0.55-3.2-0.75
		l4.85-4l4.2-3.8l1.25-1.5c-0.867,1.1-1.55,1.917-2.05,2.45l-0.85,0.7c1.7,0,5.467-1.567,11.3-4.7
		C48.617,137.15,52.367,135.384,53.7,135.15z M80.3,121.5c0,1.8-0.283,3.35-0.85,4.65c-2.9,0.733-6.517,1.6-10.85,2.6
		c-4,0.9-6.083,1.35-6.25,1.35c-0.133,0-1.267-1.033-3.4-3.1c-2.233-2.167-3.35-3.517-3.35-4.05c0-3.3,1.167-6.5,3.5-9.601
		c1.967-2.633,3.433-3.949,4.4-3.949c0.333,0,0.35,0.233,0.05,0.699c-0.3,0.467-0.283,0.7,0.05,0.7c0.4,0,0.633-0.083,0.7-0.25
		l0.35-0.8c0.6,0.667,0.983,1.783,1.15,3.35c0.067,0.9,0.15,2.217,0.25,3.95c0.034,0,0.1,0.05,0.2,0.15c0.1,0.066,0.35,0.1,0.75,0.1
		c0.267,0,0.7-0.416,1.3-1.25c0.367-0.533,1.133-1.666,2.3-3.399c0.667-0.7,1.45-1.284,2.35-1.75c0.7-0.4,1.166-0.601,1.399-0.601
		c1.101,0,2.067,0.367,2.9,1.101s1.533,1.1,2.1,1.1c0.834,0,1.434-0.167,1.801-0.5c0.233-0.2,0.616-0.583,1.149-1.15l0.65,0.15
		l0.95,0.35c-0.134-0.033-0.817,0.2-2.051,0.7c-1.267,0.5-2.166,0.75-2.699,0.75c-0.867,0-1.717-0.333-2.551-1h-4
		c0.733,0.634,0.983,2.334,0.75,5.101c-0.233,2.8-0.183,4.399,0.15,4.8c0.134-0.101,0.3-0.601,0.5-1.5
		c0.134-0.566,0.884-0.851,2.25-0.851c2.1,0,3,1.733,2.7,5.2v1.101c0.166-0.267,0.434-0.983,0.8-2.15
		C80.083,122.4,80.267,121.733,80.3,121.5z M92.75,98.6c0,0.933,0.033,1.8,0.1,2.6l0.15,0.95c0.967-1.933,1.533-3.55,1.7-4.85
		c0.133-1.066,0.283-5.483,0.45-13.25c-0.4,1.7-0.801,3.583-1.2,5.65C93.15,93.867,92.75,96.833,92.75,98.6z M129.65,53.55
		c1.733-1.733,2.949-3.267,3.649-4.6l-3.2,3.85L129.65,53.55z M71.9,71.3c-0.267,0.733-2.05,4.784-5.35,12.15
		c-2.966,6.633-4.7,10.966-5.2,13l6.6-6.65c0.7-1.733,1.383-3.633,2.05-5.7c1.333-4.133,2-7.75,2-10.85L71.9,71.3z M64.4,117.25
		c-0.267,2.3-0.4,4.434-0.4,6.4c0,1.066,0.117,2.767,0.35,5.1c0.933-1.434,1.45-3.634,1.55-6.6c-0.066-2.867-0.1-4.483-0.1-4.851
		c0-1.033-0.066-1.967-0.2-2.8c-0.167-0.5-0.383-0.95-0.65-1.35C64.883,113.684,64.7,115.05,64.4,117.25z M69.7,121.85l0.05,2.801
		l0.45,2.149c0.4-3.1,0.533-7.816,0.4-14.149C70,116.483,69.7,119.55,69.7,121.85z M78.15,134.65
		c-0.233,0.366-0.684,0.933-1.351,1.699c-0.1-1.533,0.434-2.983,1.601-4.35v1.45L78.15,134.65z M18.75,158.35l-1.2,2.7l0.95-2.3
		l0.2-0.4H18.75z M34.6,165.9c0,2.6-0.167,4.767-0.5,6.5c0-0.801-0.233-1.467-0.7-2c-0.5-0.567-1.083-0.851-1.75-0.851
		c0-0.1,0-0.316,0-0.649c0-0.267-0.033-0.567-0.1-0.9c-0.3-1.467-0.833-4.35-1.6-8.65c0.267,1.767,0.4,3.5,0.4,5.2
		c0,1.601-0.267,3.434-0.8,5.5c-1.233,0.033-2.25-0.283-3.05-0.95c-0.8-0.833-1.417-1.416-1.85-1.75
		c-1.566-1.1-3.283-1.783-5.15-2.05c-1.5-0.066-2.25-0.166-2.25-0.3c0-1.267,0.533-3.467,1.6-6.6c1.467,0.267,3.5,0.3,6.1,0.1
		l-0.75-1.8l2.4-0.8c0,0.066-0.184,1.5-0.55,4.3c0,0.033,0.1,0.6,0.3,1.7c0.367,1.199,0.917,2.083,1.65,2.649
		c0.367-0.3,0.567-0.75,0.6-1.35c0-0.667-0.067-3.217-0.2-7.65l1.1-0.05c1.033,0,1.9,1.066,2.6,3.2
		c0.833,2.434,1.267,5.85,1.3,10.25l0.2,0.8L34.6,165.9z M60.6,144.9l0.05-0.25c-0.066-0.334-0.117-0.65-0.15-0.95
		c-0.933,1.1-1.567,2.083-1.9,2.95c-0.233,0.6-0.35,1.267-0.35,2l0.05,1.399c0.667-0.566,1.233-1.366,1.7-2.399
		C60.433,146.616,60.633,145.7,60.6,144.9z M79.3,158.4c-0.633,5.199-2.116,10.616-4.45,16.25L73.9,176.55
		c1.366-2.3,2.333-4.1,2.899-5.399c0.934-2.134,1.733-5.684,2.4-10.65L79.3,158.4z M45.6,173.15c0.6,0.333,0.9,0.983,0.9,1.949
		c0.033,0.567,0.033,1.7,0,3.4l-0.15,0.2c-0.033,0.133,0.15,0.2,0.55,0.2c0.733,0,1.617-0.217,2.65-0.65
		c1-0.434,1.633-0.65,1.9-0.65c0.267,0,0.716,0.284,1.35,0.851c0.6,0.566,1,0.85,1.2,0.85c1.567,0,3.45-0.3,5.65-0.899
		c2.934-0.801,4.8-1.867,5.6-3.2l0.05-0.4c-0.9,0.334-2.267,0.634-4.1,0.9c-1.7,0.233-3.133,0.35-4.3,0.35
		c-1.367,0-2.417-0.35-3.15-1.05c-0.767-0.733-2.483-1.134-5.15-1.2l0.35-4.3L45.6,173.15z M71.65,191.75l-0.1-1.15v-1.1
		L71.65,191.75z M27.85,206.15l0.45,1c-0.133,0-0.233-0.101-0.3-0.301C27.9,206.65,27.85,206.417,27.85,206.15z"/>
	<path style="fill-rule:evenodd;clip-rule:evenodd;fill:#514943;" d="M96.1,105.55l0.2-4.05l0.9,2.7c0.267,2.4,0.383,3.7,0.35,3.899
		L97,108.2C96.533,107.733,96.233,106.85,96.1,105.55z M128.8,68.2c-1.233-0.467-1.883-1.633-1.95-3.5
		c-0.066-1.367-0.816-1.8-2.25-1.3c0.334-0.133,0.967-0.967,1.9-2.5c0.733-1.2,1.967-1.667,3.7-1.4c0,0.233-0.167,1.5-0.5,3.8
		C129.3,65.833,129,67.467,128.8,68.2z M20,208.7c-0.533-0.767-0.95-2.017-1.25-3.75c-0.5-2.566-0.75-3.867-0.75-3.9l-0.55-1.149
		c0.367-2.534,0.816-4.784,1.35-6.75c1.034-3.733,2.617-6.551,4.75-8.45c1.733-1.533,3.25-3.517,4.55-5.95
		c1.267-2.4,2.033-4.634,2.3-6.7l-0.7,0.5l-1,0.2l0.85-2.7c0.534-2.066,0.8-3.899,0.8-5.5c0-1.7-0.133-3.434-0.4-5.2
		c0.767,4.301,1.3,7.184,1.6,8.65c0.067,0.333,0.1,0.634,0.1,0.9c0,0.333,0,0.55,0,0.649c0,0.134-0.017,0.134-0.05,0
		c-0.367,1.601-1.1,5.3-2.2,11.101c-1.167,6.033-1.75,9.3-1.75,9.8c0,0.767,0.2,2.434,0.6,5c0.067,0.733,0.017,2.833-0.15,6.3
		c0,2.1,0.566,3.616,1.7,4.55c0.567,0.467,1.217,0.95,1.95,1.45l-1.1,0.15l-0.9-0.051c-0.667-0.166-1.15-0.399-1.45-0.699l-0.45-1
		c-0.633-1.467-1.217-3.2-1.75-5.2c-1.033-3.967-1.367-7.867-1-11.7c-0.067-0.366-0.133-0.7-0.2-1c-3.533,2.366-5.3,6.9-5.3,13.6
		c0,0.233,0.066,1.317,0.2,3.25C19.967,206.934,20.033,208.134,20,208.7z M37.3,192.9l-0.35-1.101
		c1.333,0.767,2.183,1.184,2.55,1.25c0.167,0.066,0.267-0.017,0.3-0.25c0.3,0.334,0.45,0.717,0.45,1.15
		c-0.867,0.233-1.383,0.35-1.55,0.35C37.9,194.3,37.433,193.833,37.3,192.9z M39.85,206.05c-0.6-1.333-1-4.483-1.2-9.45v-1
		c1.067,1.801,2.167,2.817,3.3,3.051c0.6,0.133,1.15,0.083,1.65-0.15c0.667,0,1.717,0.384,3.15,1.15c1.6,0.8,2.9,1.283,3.9,1.449
		l1.05,0.101c-1.567,0.899-2.65,1.733-3.25,2.5c1.466,0.733,2.65,1.184,3.55,1.35c0.733,0.134,2.65,0.417,5.75,0.851h-12.8
		c0-0.9-0.133-1.7-0.4-2.4c-0.3-0.733-0.667-1.233-1.1-1.5c-0.467-0.267-0.934-0.25-1.4,0.05c-0.466,0.267-0.833,0.767-1.1,1.5
		c-0.267,0.733-0.4,1.533-0.4,2.4L39.85,206.05z M103,29.7l-0.05,3.2c-0.033-0.333-0.601-3.15-1.7-8.45
		c-1.134-5.5-1.783-8.883-1.95-10.15c-0.133-1.733-0.2-2.933-0.2-3.6c0-1.667,0.134-3.583,0.4-5.75c0-0.034,0-0.067,0-0.1l0.6-0.1
		l0.95-0.15c0.4-0.1,1.7-0.083,3.9,0.05L105,5.8c0,3.034-0.116,5.333-0.35,6.9c-0.034,0.333-0.367,0.633-1,0.9
		c-0.601,0.233-0.9,0.983-0.9,2.25C102.75,16.517,102.833,21.133,103,29.7z M127.25,21.1c-1.833-3.367-3.283-6.533-4.35-9.5
		c1.1,0.5,2.183,0.9,3.25,1.2c0.066,0,0.149,0.017,0.25,0.05l1.3,0.15l0.649,8.75c0,0.167-0.05,0.267-0.149,0.3
		C128,22.117,127.684,21.8,127.25,21.1z M116.2,60.85c-3.5-0.467-6.884-0.15-10.15,0.95c-1.399,0.467-3.533,1.467-6.399,3l-0.7-0.15
		c-0.267-1.6,0.934-2.883,3.6-3.85c1.967-0.733,3.7-1.1,5.2-1.1c0.533,0,1.684,0.1,3.45,0.3c1.833,0.233,3.083,0.417,3.75,0.55
		L116.2,60.85z M90.35,55.75L90.3,56.7c-0.166,1.7,0.851,3.167,3.05,4.4c1.7,0.967,3.084,1.45,4.15,1.45
		c0.667,0,1.184-0.083,1.55-0.25l-0.5,2.3c-0.166-0.033-1.283-0.067-3.35-0.1c-1.634-0.033-2.783-0.183-3.45-0.45
		c-1.1-0.4-2-0.95-2.7-1.65c-0.6-0.6-0.916-0.9-0.95-0.9c-2.8-0.433-4.649-0.717-5.55-0.85c-1.333-0.233-3.1-0.6-5.3-1.1l2,0.25
		c0.833,0.434,2.733,0.067,5.7-1.1C87.717,57.567,89.517,56.583,90.35,55.75z M50.2,105.6l1.05-4.85l0.1-0.8l0.6-0.15
		c0.6,2.367,1.316,3.65,2.15,3.85c0.6,0.167,2.117,0.1,4.55-0.2c0.5,0,1.434,0.683,2.8,2.05l0.2,0.2
		c0.467-1.367,0.934-2.467,1.4-3.3c0.167-0.367,1.6-2.767,4.3-7.2c0.133-0.467,0.217-0.733,0.25-0.8c0.033-0.1,0.066,0.15,0.1,0.75
		c-0.167,1.867-0.6,4.2-1.3,7c-0.6,2.367-0.983,3.7-1.15,4c0.8,0.067,3.75,0.233,8.85,0.5c3.567,0.167,5.617,0.383,6.15,0.65
		l0.4,0.2c-5.9-0.233-9.384,0.066-10.45,0.9c-0.3,0.233-0.55,0.666-0.75,1.3c-0.233,0.6-0.583,1.066-1.05,1.399
		c-0.5-0.166-1.017-0.699-1.55-1.6c-0.5-0.8-1.133-1.2-1.9-1.2c-0.333,0-0.333,0.2,0,0.601c0.333,0.399,0.333,0.6,0,0.6
		c-0.333,0-0.567-0.1-0.7-0.3c-0.367-0.5-0.933-1.05-1.7-1.65c-0.767-0.166-1.483-0.25-2.15-0.25c-0.8,0-1.467,0.816-2,2.45
		c-1.233,3.6-1.967,5.667-2.2,6.2c-0.3,0.467-0.617,0.866-0.95,1.2c-0.133-0.667-0.117-1.917,0.05-3.75c0.2-1.801,0.3-2.867,0.3-3.2
		c0-1.267-0.417-2.2-1.25-2.8C53.917,107.1,52.533,106.5,50.2,105.6z M40.3,124.65l1.95,1.5l0.05,0.05l0.35,0.3
		c0.233,0.3,0.367,0.684,0.4,1.15c0.5-0.134,1.65-0.5,3.45-1.101c1.7-0.533,2.8-0.8,3.3-0.8c0.534,0,1.684,0.95,3.45,2.85
		c1.8,1.934,4.15,3,7.05,3.2h-3.35c0.066,1.3,0.05,2.533-0.05,3.7c-0.066,2.434-0.983,5.667-2.75,9.7
		c-1.3,2.934-2.683,5.583-4.15,7.95c0.1-0.233,0.383-1.067,0.85-2.5c0.5-1.5,0.767-2.351,0.8-2.551c0.8-2.199,1.35-4.333,1.65-6.399
		c0.233-1.7,0.367-3.884,0.4-6.55l-0.15-1.301c-0.333,0.167-1,0.25-2,0.25c-0.533,0-0.867-0.883-1-2.649
		c-0.1-1.767-0.633-2.65-1.6-2.65c-1.067,0-2.15,0.45-3.25,1.351c-1.367,1.133-2.05,2.583-2.05,4.35c0,0.767-0.65,1.25-1.95,1.45
		c-1.233,0.2-2.75,0.083-4.55-0.351c-0.7-0.399-1.217-0.816-1.55-1.25c-0.167-0.366-0.35-1.25-0.55-2.649
		c-0.167-1.3-0.25-2.233-0.25-2.8c0.1-3.634,0.15-6.75,0.15-9.351c-0.034-5.733-0.117-11.566-0.25-17.5
		c-0.167-4.833-0.25-7.417-0.25-7.75c0-0.933,0.15-3.017,0.45-6.25c0.3-3.1,0.5-4.933,0.6-5.5l0.3-1.35c0.8,3.633,1.167,6.9,1.1,9.8
		c-0.066,3.433-0.017,5.75,0.15,6.95c0.3,2.066,0.534,5.066,0.7,9c0.167,3.467,0.5,6.517,1,9.149c0.033,0.267,0.15,1.517,0.35,3.75
		C39.4,122.15,39.8,123.75,40.3,124.65z M79.45,126.15c0.566-1.301,0.85-2.851,0.85-4.65v-0.3l0.65,1.149
		c0.434,0.867,0.649,1.5,0.649,1.9c0,0.733-0.05,1.316-0.149,1.75c-0.134,0.767-0.384,1.366-0.75,1.8l0.899,0.05
		c-1.166,1.067-3.366,2.617-6.6,4.65c-0.733,0.134-2.233,0.134-4.5,0h-0.2c2.101-1.267,4.233-2.467,6.4-3.6
		C77.934,128.167,78.85,127.25,79.45,126.15z M88.95,93.1l-2.15,7.05l-0.1,0.75c0.166,0.2,0.35,0.767,0.55,1.7
		c0.2,0.9,0.3,1.6,0.3,2.1c0,1.133-0.3,2.45-0.899,3.95l-0.7,0.5c-0.4,0.767-0.65,0.433-0.75-1c-0.134-1.367-0.101-2.583,0.1-3.65
		c1.367-4.8,2.917-9.7,4.65-14.7L88.95,93.1z M122.95,67.7c-0.4,0-0.75-0.15-1.05-0.45c-0.301-0.3-0.45-0.667-0.45-1.1
		c0-0.433,0.149-0.8,0.45-1.1c0.3-0.3,0.649-0.45,1.05-0.45c0.399,0,0.75,0.15,1.05,0.45c0.3,0.3,0.45,0.667,0.45,1.1
		c0,0.434-0.15,0.8-0.45,1.1S123.35,67.7,122.95,67.7z M70.2,61.2c0.367,0.233,0.55,0.517,0.55,0.85c0,0.333-0.183,0.633-0.55,0.9
		c-0.367,0.233-0.817,0.35-1.35,0.35s-0.983-0.117-1.35-0.35c-0.367-0.267-0.55-0.567-0.55-0.9c0-0.333,0.183-0.617,0.55-0.85
		c0.367-0.267,0.817-0.4,1.35-0.4S69.833,60.933,70.2,61.2z M60.3,69.15c-0.966,0.9-1.85,1.633-2.65,2.2L56.3,72.1l-1.25,0.3
		c0.133-0.267,0.383-0.967,0.75-2.1c0.333-1.066,0.517-1.683,0.55-1.85c0.066-0.867,0.617-5,1.65-12.4
		c0.767-5.433,1.083-10.533,0.95-15.3c0.233,0.833,0.383,4.933,0.45,12.3c0,1,0.184,2.15,0.55,3.45c0.566,1.9,0.95,3.45,1.15,4.65
		c0.033,0.3-0.05,0.967-0.25,2c-0.2,1-0.383,1.667-0.55,2l3.35-0.65l-0.55,1.2C62.033,67.167,61.1,68.317,60.3,69.15z M34.6,165.9
		l0.2-0.4c0.767,1.667,1.2,2.667,1.3,3c0.133,0.366,0.2,0.8,0.2,1.3c0,1.101-0.133,1.967-0.4,2.601l-1.8,1.05
		c-0.1-0.4-0.1-0.75,0-1.05C34.433,170.667,34.6,168.5,34.6,165.9z M18.75,158.35H18.7l-0.2-0.1c-0.5-0.5-0.917-1.066-1.25-1.7
		c-0.3-0.6-0.45-1.116-0.45-1.55c0.667-5.9,1.333-9.667,2-11.3c0.067-0.101,0.967-1.267,2.7-3.5l0.75-0.4c0,0.767-0.15,3.7-0.45,8.8
		c0,0.801,0.117,1.934,0.35,3.4l0.2,0.7c0.2,0.434,0.816,1.767,1.85,4l0.75,1.8c-2.6,0.2-4.633,0.167-6.1-0.1L18.75,158.35z
		 M50.85,187.25c0.467-0.134,0.767-0.066,0.9,0.2l1.15,0.05c0.1,0.566,0.083,0.9-0.05,1c-0.233,0.233-0.583,0.384-1.05,0.45
		l-3.4-0.101l-0.45-0.05C49.217,187.934,50.183,187.417,50.85,187.25z M41.8,171.1c0.4-0.466,0.733-1.183,1-2.149
		c0.3-1.134,0.467-1.834,0.5-2.101l-0.2,2c-0.167,0.7-0.4,1.4-0.7,2.101c-0.333,0.866-1.333,3.916-3,9.149
		c-1.1,3.367-1.917,5.051-2.45,5.051c-0.4,0-0.75,0.166-1.05,0.5l-0.3,0.5c-0.133-1.801-0.2-3.034-0.2-3.7
		c0-1.867,0.6-3.55,1.8-5.05C38,176.434,39.533,174.333,41.8,171.1z M74.4,187.2l-0.051,1.25c1.5-0.101,2.25-0.2,2.25-0.3l1.9,0.05
		c-2.467,0.967-3.967,1.7-4.5,2.2c0,0.399-0.2,0.733-0.6,1c-0.101,0.066-0.2,0.116-0.301,0.149c-0.366,0.167-0.783,0.25-1.25,0.25
		l-0.2-0.05l-0.1-2.25v1.1c-0.966,1.101-1.55,1.733-1.75,1.9c-0.433,0.366-0.933,0.55-1.5,0.55c-0.433,0-0.8-0.083-1.1-0.25
		c-0.133-0.1-0.35-0.316-0.65-0.649l-1.35,2.899l-0.55,0.75l-0.2-5c0-4.033,0.933-8,2.8-11.899c2.167-3.767,3.517-6.351,4.05-7.75
		l-1.5,4.649c-1,3.167-1.5,4.95-1.5,5.351c0,3.899,0.333,6.383,1,7.449c0.4,0.634,1.15,0.934,2.25,0.9l0.2-2.05
		c1.467-6.566,2.2-10,2.2-10.3L74.4,187.2z M14.25,179.4c0.333-4.934,1-8.483,2-10.65c1.3-2.767,3.083-3.083,5.35-0.95
		c-1.633,1.667-2.95,3.033-3.95,4.101c-1.867,2-2.717,4.066-2.55,6.199C14.867,178.6,14.583,179.033,14.25,179.4z"/>
	<path style="fill-rule:evenodd;clip-rule:evenodd;fill:#9B9286;" d="M20.65,104.4c-0.3-3.333-0.683-10.433-1.15-21.3
		c-0.4-8.467-0.867-14.133-1.4-17l-0.3-0.95c-0.3,4.2-0.333,11.133-0.1,20.8c0,0.333-0.15,4.983-0.45,13.95
		c-0.3,10.3-0.483,18.833-0.55,25.6c-0.3,1.8-0.85,8.684-1.65,20.65c-0.767,11.566-1.133,18.017-1.1,19.35
		c-0.167-0.3-0.417-0.884-0.75-1.75c-0.328-0.886-0.495-1.419-0.5-1.6l-0.05,10.8c-0.533,1.066-0.95,2.899-1.25,5.5
		c-0.333,2.733-0.467,5.684-0.4,8.85l0.05,1.351l0.05,1.1c-0.667-1.533-1.067-4.884-1.2-10.05c-0.1-4-1.066-6.367-2.9-7.101
		l0.25,0.051c-0.5-14.567-0.75-30.434-0.75-47.601c0-6.934-0.6-13.45-1.8-19.55l-0.2-1.1c0,1.867-0.667,9.083-2,21.65l0.55,2.101
		c-0.833-2.134-1.466-3.784-1.9-4.95C0.383,121.066,0,117.45,0,112.35C0.1,97.95,0.35,87.133,0.75,79.9
		c0.067-1.5,1.233-2.733,3.5-3.7c1.133-0.5,2.417-0.983,3.85-1.45c1.667-1.633,2.667-3.2,3-4.7c0.1-0.5,0.15-2.167,0.15-5L10.5,47.9
		c0-0.633,0.083-1.967,0.25-4c0.167-2.267,0.333-3.833,0.5-4.7c0.4,10.4,0.533,22.583,0.4,36.55
		c-0.133,13.633,0.05,26.467,0.55,38.5l0.25-1.95c0.4-9.633,1.25-23.583,2.55-41.85c0.967-13.567,1.483-26.367,1.55-38.4
		c1.434-0.466,2.967-0.783,4.6-0.95c0.1,16.767-0.017,31.883-0.35,45.35c0,0.5,0.2,2.45,0.6,5.85c0.367,3,0.633,5.133,0.8,6.4
		l-0.65,10.85c0.667-3.667,1.017-6.816,1.05-9.45c0.3,0.7,0.6,1.2,0.9,1.5l0.3,0.05c1.9-6.6,2.85-9.933,2.85-10l-0.45,8.5
		c0,0.4,0.15,0.75,0.45,1.05l0.5,0.5L27,80.3c0.133-0.566,0.317-4,0.55-10.3l-0.4,25.25c-0.833,3.067-1.7,7.717-2.6,13.95
		c-0.8,5.434-1.25,9.2-1.35,11.3L22.15,152c-0.233-1.467-0.35-2.6-0.35-3.4c0.3-5.1,0.45-8.033,0.45-8.8l-0.75,0.4
		c-0.1-12.634-0.283-23.017-0.55-31.15l0.6-9.5L20.65,104.4z M32.7,115.35l-0.05-1.649c0-1.233,0.1-3.983,0.3-8.25L32.7,115.35z
		 M2.85,154.1c0,0.067,0.433,1.95,1.3,5.65c1.033,4.6,1.934,8.866,2.7,12.8c-1.5-0.934-2.667-3.866-3.5-8.8
		C2.617,159.283,2.45,156.066,2.85,154.1z M31.75,30.55L30.5,30.9c0.333-0.1,0.883-0.3,1.65-0.6c0.333-0.133,0.65-0.25,0.95-0.35
		L31.75,30.55z M42.25,126.15l-1.95-1.5c0-0.134-0.517-2.983-1.55-8.551c-0.5-2.633-0.833-5.683-1-9.149
		c-0.167-3.934-0.4-6.934-0.7-9c0-0.967-0.083-14.4-0.25-40.3c-0.1-15.267-0.2-24.983-0.3-29.15c2.167-0.367,3.65-0.4,4.45-0.1
		c0.566,0.233,1.65,0.934,3.25,2.1l-0.45-0.3c0.233,2.133,1.083,4.267,2.55,6.4c1.333,1.967,2,3.733,2,5.3
		c0,0.667-0.283,10.867-0.85,30.6c-0.067,4.533-0.517,8.95-1.35,13.25c-0.8,4.167-1.2,7.15-1.2,8.95c0,2,0.817,4.733,2.45,8.2
		c1.367,3,1.767,5.667,1.2,8c-0.667,2.033-1.7,4.816-3.1,8.35l-2.6,5.8L42.25,126.15z M56.35,68.45l-0.1,0.15
		c0.433-4.3,0.133-11.383-0.9-21.25c-0.767-7.7-1.383-12.6-1.85-14.7V31.9c2.367,0,4.4-0.633,6.1-1.9c1.6-1.233,2.433-2.7,2.5-4.4
		L62,59.15l-0.9,2c-0.2-1.2-0.583-2.75-1.15-4.65c-0.367-1.3-0.55-2.45-0.55-3.45c-0.066-7.367-0.217-11.466-0.45-12.3
		c0.133,4.767-0.184,9.867-0.95,15.3C56.967,63.45,56.417,67.583,56.35,68.45z M65.6,56.35l-0.9,0.5c-0.2-0.5-0.383-3.767-0.55-9.8
		c-0.333-10.4-0.95-22.683-1.85-36.85c0.034-0.2,0.1-0.45,0.2-0.75c0.2-0.7,0.417-1.3,0.65-1.8c0.3,14.533,0.5,23.067,0.6,25.6
		C64.183,45.15,64.8,52.85,65.6,56.35z M85.25,0.05c3.733,0.067,8.767,1.6,15.1,4.6l-0.25,0.1l-0.6,0.1l-1.45,0.6l-1.2,0.9
		c-0.833,1.367-1.3,2.2-1.399,2.5c-0.3,1-0.45,2.783-0.45,5.35c0,0.333,0.05,2.2,0.15,5.6c0.1,3.133,0.133,5.467,0.1,7l-0.15,2.65
		c-0.633,0.1-1.433,0.1-2.399,0c-1.033-0.067-1.8-0.217-2.3-0.45c-0.867-1.133-1.717-2.5-2.551-4.1c0.301-2.5,0.167-4.433-0.399-5.8
		l0.05-0.95L87.3,19c-1.3-0.667-1.967-1.933-2-3.8C85.434,10.667,85.417,5.617,85.25,0.05z M83.8,10.4l0.3,8.1
		c-0.066-0.233-0.166-0.85-0.3-1.85c-0.133-1.033-0.2-1.783-0.2-2.25L83.8,10.4z M32.8,143.5l-4.2,3.8c0.8-4.333,1.2-7.149,1.2-8.45
		c0.3,0,0.633-0.399,1-1.199l0.7,2.449L32.8,143.5z"/>
	<path style="fill-rule:evenodd;clip-rule:evenodd;fill:#898074;" d="M55.8,69.1c-0.333,0.467-0.816,1.083-1.45,1.85
		c-0.067,0.066-0.4,0.767-1,2.1c0.2-11.133,0.3-19.483,0.3-25.05L52,32l1.5-0.1v0.75c0.1,2.9,0.15,8.017,0.15,15.35L55.8,69.1z
		 M69.7,52.55l-0.2,3.75c-0.333-0.133-0.85-0.216-1.55-0.25c-0.8,0-1.583,0.1-2.35,0.3c-0.8-3.5-1.417-11.2-1.85-23.1
		c-0.1-2.533-0.3-11.067-0.6-25.6L63.7,7l-0.05,16.35c0,2.767,0.283,6.983,0.85,12.65c0.767,7.467,1.667,11.983,2.7,13.55l0.15-1.15
		l0.05-5.15c0-5.867-0.3-12.9-0.9-21.1c-0.533-7.367-1.067-12.733-1.6-16.1c0.8-0.333,1.667-0.617,2.6-0.85L69.35,5
		c0.433,4,0.583,6.35,0.45,7.05c-0.233,1.5-0.35,2.883-0.35,4.15c0,0.333,0.05,2.5,0.15,6.5C69.667,29.3,69.7,39.25,69.7,52.55z
		 M83.8,10.4l0.05-7.9c0.134-0.233,0.25-0.483,0.351-0.75c0.133-0.533,0.2-1.1,0.2-1.7h0.1L85.25,0v0.05
		c0.167,5.567,0.184,10.617,0.05,15.15c0.033,1.867,0.7,3.133,2,3.8c-0.066,0.467-0.283,0.85-0.649,1.15
		c-0.367,0.267-0.767,0.367-1.2,0.3c-0.434-0.1-0.783-0.333-1.05-0.7s-0.367-0.783-0.301-1.25L83.8,10.4z M87.45,19.1
		c0.566,1.367,0.7,3.3,0.399,5.8c-0.1-0.167-0.233-0.566-0.399-1.2c-0.167-0.767-0.25-1.367-0.25-1.8
		C87.333,20.8,87.417,19.867,87.45,19.1z M90.4,29c0.5,0.233,1.267,0.383,2.3,0.45c0.967,0.1,1.767,0.1,2.399,0l-0.8,9.6
		c-4-2.633-6.333-5.117-7-7.45c-0.066-2.267-0.25-3.934-0.55-5c0.866,2.733,1.45,4.316,1.75,4.75c0.5,0.733,1.45,1.1,2.85,1.1
		c0.667,0,1.45-0.083,2.351-0.25l-0.15-0.35C93.217,31.417,92.167,30.467,90.4,29z"/>
	<path style="fill-rule:evenodd;clip-rule:evenodd;fill:#635B52;" d="M32.7,115.35c0.267,1.5,1.017,2.9,2.25,4.2
		c0,2.601-0.05,5.717-0.15,9.351c0,0.566,0.083,1.5,0.25,2.8c0.2,1.399,0.383,2.283,0.55,2.649l-0.05,5.101l-1.35,2.35l-0.15,0.2
		c-0.133-0.634-0.433-2.483-0.9-5.55c-0.5-3.167-0.816-5.351-0.95-6.55c-1.067-3.634-2.034-7.65-2.9-12.051
		c-1.767-8.733-2.483-16.266-2.15-22.6L27.55,70c0.333-9.033,0.717-21.983,1.15-38.85l1.55-0.2c0.067,0,0.15-0.017,0.25-0.05
		l1.25-0.35c0.3,3.5,0.45,7.083,0.45,10.75c0,5.567-0.25,13.35-0.75,23.35c-0.267,5-0.534,9.917-0.8,14.75
		c0,0.934,0.4,4.983,1.2,12.15c0.8,7,1.167,11.633,1.1,13.9c-0.2,4.267-0.3,7.017-0.3,8.25L32.7,115.35z M20.65,104.4l0.9-4.85
		l-0.6,9.5L18.8,143.7c-0.667,1.633-1.333,5.399-2,11.3c0,0.434,0.15,0.95,0.45,1.55c0.333,0.634,0.75,1.2,1.25,1.7v0.5l-0.95,2.3
		c-1.5,3.533-2.683,6.4-3.55,8.601l-0.05-4.15c-0.034-1.333,0.333-7.783,1.1-19.35c0.8-11.967,1.35-18.851,1.65-20.65L20.65,104.4z
		 M64.9,6.05c0.533,3.367,1.067,8.733,1.6,16.1c0.6,8.2,0.9,15.233,0.9,21.1l-0.05,5.15l-0.15,1.15
		c-1.034-1.566-1.934-6.083-2.7-13.55c-0.567-5.667-0.85-9.883-0.85-12.65L63.7,7C64.067,6.667,64.467,6.35,64.9,6.05z M87.85,24.9
		c0.834,1.6,1.684,2.967,2.551,4.1c1.767,1.467,2.816,2.417,3.149,2.85l0.15,0.35c-0.9,0.167-1.684,0.25-2.351,0.25
		c-1.399,0-2.35-0.367-2.85-1.1c-0.3-0.434-0.884-2.017-1.75-4.75l-0.05-0.15c-0.3-0.567-1.55-2.217-3.75-4.95
		c-1.101-1.333-1.65-3.4-1.65-6.2c0.167-3.667,0.233-7.283,0.2-10.85C81.667,4.317,82.066,4,82.7,3.5
		c0.666-0.533,1.05-0.867,1.149-1l-0.05,7.9l-0.2,4c0,0.467,0.067,1.217,0.2,2.25c0.134,1,0.233,1.617,0.3,1.85
		c-0.066,0.467,0.034,0.883,0.301,1.25s0.616,0.6,1.05,0.7c0.434,0.066,0.833-0.034,1.2-0.3c0.366-0.3,0.583-0.683,0.649-1.15
		l0.2-0.85l-0.05,0.95c-0.033,0.767-0.117,1.7-0.25,2.8c0,0.434,0.083,1.033,0.25,1.8C87.616,24.333,87.75,24.733,87.85,24.9z
		 M22.6,90.1c-0.033,2.633-0.383,5.783-1.05,9.45L22.2,88.7l0.3-5.35C22.633,85.35,22.667,87.6,22.6,90.1z"/>
	<path style="fill-rule:evenodd;clip-rule:evenodd;fill:#B3AA9E;" d="M6.85,172.55c-0.767-3.934-1.667-8.2-2.7-12.8
		c-0.867-3.7-1.3-5.583-1.3-5.65L2.9,153.4c0.267-8,0.4-13.584,0.4-16.75c0.034-3.334-0.05-6.167-0.25-8.5L2.5,126.05
		c1.333-12.566,2-19.783,2-21.65l0.2,1.1c1.2,6.1,1.8,12.616,1.8,19.55c0,17.167,0.25,33.033,0.75,47.601L7,172.6L6.85,172.55z
		 M16.55,32.05c-0.066,12.034-0.583,24.833-1.55,38.4c-1.3,18.267-2.15,32.216-2.55,41.85l-0.25,1.95
		c-0.5-12.033-0.684-24.867-0.55-38.5c0.133-13.967,0-26.15-0.4-36.55l1.9-4.35l0.55-0.65v0.05c0,0.8-0.083,2.367-0.25,4.7
		c0,0.533,0.066,1.25,0.2,2.15c0.1,0.967,0.217,1.6,0.35,1.9c0.567-3.2,1-6.617,1.3-10.25L16.55,32.05z M28.7,31.15
		C28.267,48.017,27.883,60.967,27.55,70c-0.233,6.3-0.417,9.733-0.55,10.3l0.15,11.4l-0.5-0.5c-0.3-0.3-0.45-0.65-0.45-1.05
		l0.45-8.5c0,0.067-0.95,3.4-2.85,10l-0.3-0.05c-0.3-0.3-0.6-0.8-0.9-1.5c0.066-2.5,0.033-4.75-0.1-6.75l-0.3,5.35
		c-0.167-1.267-0.434-3.4-0.8-6.4c-0.4-3.4-0.6-5.35-0.6-5.85c0.333-13.467,0.45-28.583,0.35-45.35
		C22.15,31.1,24.667,31.117,28.7,31.15z M51.35,99.95l-0.1,0.8l-1.05,4.85c-0.267,1.1-0.567,2.133-0.9,3.1l-0.75,2.2
		c0.567-2.334,0.167-5-1.2-8c-1.633-3.467-2.45-6.2-2.45-8.2c0-1.8,0.4-4.784,1.2-8.95c0.833-4.3,1.283-8.717,1.35-13.25
		c0.566-19.733,0.85-29.933,0.85-30.6c0-1.566-0.667-3.333-2-5.3c-1.466-2.133-2.316-4.267-2.55-6.4l0.45,0.3
		c1.2,0.867,2.433,1.383,3.7,1.55c0.367,0.034,1.733,0.017,4.1-0.05l1.65,16c0,5.567-0.1,13.917-0.3,25.05
		c-0.667,2.434-1.017,3.8-1.05,4.1c-0.033,0.434-0.066,1.983-0.1,4.65h0.05c0,6-0.233,11.467-0.7,16.4L51.35,99.95z M64.7,56.85
		c-0.667,0.333-1.267,0.75-1.8,1.25c-0.467,0.566-0.767,0.917-0.9,1.05l0.1-33.55v-0.2c0.066-1.533,0.1-3.967,0.1-7.3
		c0-3.9,0.017-6.4,0.05-7.5l0.05-0.55c0,0.034,0,0.083,0,0.15c0.9,14.167,1.517,26.45,1.85,36.85
		C64.317,53.083,64.5,56.35,64.7,56.85z M72.85,4.95l-0.3,4.1l0.05-4.1H72.85z M53.5,32.65c0.467,2.1,1.083,7,1.85,14.7
		c1.033,9.867,1.333,16.95,0.9,21.25l-0.45,0.5L53.65,48C53.65,40.667,53.6,35.55,53.5,32.65z M28.6,147.3l-4.85,4l-1.4,1.4
		l-0.2-0.7l1.05-31.5c0.1-2.1,0.55-5.866,1.35-11.3c0.9-6.233,1.767-10.883,2.6-13.95c-0.333,6.333,0.383,13.866,2.15,22.6
		c0.867,4.4,1.833,8.417,2.9,12.051L31.5,140.1l-0.7-2.449c-0.367,0.8-0.7,1.199-1,1.199C29.8,140.15,29.4,142.967,28.6,147.3z"/>
	<path style="fill-rule:evenodd;clip-rule:evenodd;fill:#7C7367;" d="M15.3,32.75C15,36.383,14.567,39.8,14,43
		c-0.133-0.3-0.25-0.933-0.35-1.9c-0.133-0.9-0.2-1.617-0.2-2.15c0.167-2.333,0.25-3.9,0.25-4.7V34.2L15.3,32.75z M36.5,28.5
		c0.1,4.167,0.2,13.883,0.3,29.15c0.167,25.9,0.25,39.333,0.25,40.3c-0.167-1.2-0.216-3.517-0.15-6.95c0.067-2.9-0.3-6.167-1.1-9.8
		l-0.3,1.35c-0.1,0.567-0.3,2.4-0.6,5.5c-0.3,3.233-0.45,5.317-0.45,6.25c0,0.333,0.083,2.917,0.25,7.75
		c0.133,5.934,0.216,11.767,0.25,17.5c-1.233-1.3-1.983-2.7-2.25-4.2l0.25-9.899c0.066-2.267-0.3-6.9-1.1-13.9
		c-0.8-7.167-1.2-11.216-1.2-12.15c0.267-4.833,0.533-9.75,0.8-14.75c0.5-10,0.75-17.783,0.75-23.35c0-3.667-0.15-7.25-0.45-10.75
		l1.35-0.6c0.6-0.233,1.1-0.45,1.5-0.65L36.5,28.5z M20.65,104.4l-3.95,21.1c0.066-6.767,0.25-15.3,0.55-25.6
		c0.3-8.967,0.45-13.617,0.45-13.95c-0.233-9.667-0.2-16.6,0.1-20.8l0.3,0.95c0.533,2.867,1,8.533,1.4,17
		C19.967,93.967,20.35,101.067,20.65,104.4z M32.8,143.5l-1.3-3.4l0.7-10.199c0.133,1.199,0.45,3.383,0.95,6.55
		c0.467,3.066,0.767,4.916,0.9,5.55L32.8,143.5z M35.6,134.35c0.333,0.434,0.85,0.851,1.55,1.25c-0.967,2.301-1.5,3.584-1.6,3.851
		L35.6,134.35z M69.7,52.55l1.2,4.8l-1.4-1.05L69.7,52.55z M38.75,116.1c1.033,5.567,1.55,8.417,1.55,8.551
		c-0.5-0.9-0.9-2.5-1.2-4.801C38.9,117.616,38.783,116.366,38.75,116.1z M12.65,172.95l0.05-10.8c0.005,0.181,0.172,0.714,0.5,1.6
		c0.333,0.866,0.583,1.45,0.75,1.75l0.05,4.15C13.367,171.083,12.917,172.184,12.65,172.95z M18.5,158.25l0.2,0.1l-0.2,0.4V158.25z
		 M21.5,140.2c-1.733,2.233-2.633,3.399-2.7,3.5l2.15-34.65C21.217,117.184,21.4,127.566,21.5,140.2z"/>
</g>
</svg>
