<?xml version="1.0" encoding="iso-8859-1"?>
<!-- Generator: Adobe Illustrator 15.1.0, SVG Export Plug-In . SVG Version: 6.00 Build 0)  -->
<!DOCTYPE svg PUBLIC "-//W3C//DTD SVG 1.1//EN" "http://www.w3.org/Graphics/SVG/1.1/DTD/svg11.dtd">
<svg version="1.1" id="Layer_1" xmlns="http://www.w3.org/2000/svg" xmlns:xlink="http://www.w3.org/1999/xlink" x="0px" y="0px"
	 width="73.05px" height="189px" viewBox="0 0 73.05 189" style="enable-background:new 0 0 73.05 189;" xml:space="preserve">
<g>
	<path style="fill-rule:evenodd;clip-rule:evenodd;fill:#9B9286;" d="M53.9,2.75c0.066,0.1,0.166,0.233,0.3,0.4
		C54.134,3.083,54.083,3.033,54.05,3L53.9,2.75z M46.6,44.55c-0.6,1.467-0.983,3.367-1.149,5.7c-0.533,0.9-0.967,1.783-1.3,2.65
		L44,53.2l-0.6,2.1v-2.25c-0.067,2.1-0.417,4.567-1.051,7.4c-0.333,1.633-0.899,4.083-1.699,7.35c-0.867,4.167-1.334,6.333-1.4,6.5
		c-0.6,2.333-1.467,4.333-2.6,6c-1.9,2.867-3.384,5.184-4.45,6.95c0.2-2.533,0.583-5.2,1.15-8c0.367-1.867,1.5-5.45,3.4-10.75
		c1.566-4.433,2.45-8.067,2.65-10.9c-0.634,0.367-1.067,0.667-1.301,0.9c1.434-3.1,2.2-7.367,2.301-12.8
		c0.199-7.9,0.35-12.284,0.449-13.15c0.334-2.533,0.517-5.5,0.551-8.9c0-0.8-0.017-3.783-0.051-8.95c0-2.633,0.051-4.217,0.15-4.75
		c0.366-1.934,1.333-2.85,2.9-2.75c-0.667-2.367-2.65-3.434-5.95-3.2c0.233-0.267,0.483-0.533,0.75-0.8
		c0.967-0.9,2.149-1.667,3.55-2.3c1.566-0.733,2.884-1.017,3.95-0.85L50,0.7c0.267,0.1,0.533,0.2,0.8,0.3
		c0.7,0.7,1.117,1.717,1.25,3.05c0.2,2.267,0.2,4.05,0,5.35c-0.1,0.567-0.517,2.117-1.25,4.65c-0.533,1.8-0.783,3.4-0.75,4.8
		L50,26.55c0,0.1,0.033,0.55,0.1,1.35c0.067,0.6,0.067,1.033,0,1.3c-0.166,0.533-0.483,1.05-0.949,1.55
		c-0.534,0.533-0.867,0.983-1,1.35c-0.733,1.6-1.2,3.583-1.4,5.95C46.583,39.683,46.533,41.85,46.6,44.55z M57.5,30.6
		c0.134,1.2,0.25,3.05,0.35,5.55c-0.033-0.4-0.066-0.816-0.1-1.25C57.616,32.533,57.533,31.1,57.5,30.6z M65.8,100.1
		c0.334,0.233,0.851,0.434,1.55,0.601c0.334,0.1,0.634,0.2,0.9,0.3c-0.3-0.1-0.65-0.2-1.05-0.3
		C66.634,100.566,66.167,100.366,65.8,100.1z M51.8,44.35l-0.45,0.15L51.9,44l-0.25,0.25L51.8,44.35z M58.45,188.5l-0.9-2.3
		c0.134-4.066,0.033-7.4-0.3-10c-0.233-0.066-0.934-0.233-2.1-0.5c0.966-2.233,1.517-5.167,1.649-8.8
		c-0.066-4.267-0.1-7.434-0.1-9.5c0.066-4.667,0.1-8.167,0.1-10.5c0-4.067-0.2-7.534-0.6-10.4c-0.9-5.967-1.533-10.434-1.9-13.4
		c-0.633-5.133-0.95-9.649-0.95-13.55c0.034-6.1-0.017-13.517-0.149-22.25c-0.167-9.867-0.283-17.267-0.351-22.2
		c0.134-0.9,0.467-2.383,1-4.45c0.467-1.867,0.75-3.333,0.851-4.4c0.133-1.267-0.066-2.983-0.601-5.15
		c-0.566-2.267-0.816-3.95-0.75-5.05V46c1.233,1.667,2.284,3.683,3.15,6.05c1.1,2.9,1.684,6.65,1.75,11.25
		c0.033,2.6-0.05,6.417-0.25,11.45c0.033,2.233-0.184,5.517-0.65,9.85c-0.466,4.367-0.699,7.633-0.699,9.8
		c0.033,1.3,0.233,2.933,0.6,4.9c0.434,2.334,0.684,3.917,0.75,4.75c0.066,0.5,0.017,1.5-0.15,3c-0.133,1.334-0.116,2.3,0.051,2.9
		c0.199,0.666,0.733,1.633,1.6,2.899c0.967,1.367,1.55,2.267,1.75,2.7c1.4,3.167,2.1,6.75,2.1,10.75
		c0.067,7.066,0.084,11.601,0.051,13.601c-0.067,2-0.267,4.583-0.601,7.75c-0.467,4.133-0.733,6.716-0.8,7.75
		c-0.1,1.1-0.116,2.833-0.05,5.199c0.066,2.267,0.033,3.983-0.101,5.15c-0.133,1.667-0.5,3.833-1.1,6.5
		c-0.667,3.233-1.083,5.384-1.25,6.45c-0.066,0.467-0.15,1.649-0.25,3.55c-0.1,1.434-0.283,2.616-0.55,3.55l-0.5,2L58.45,188.5z
		 M70.9,106.85c0.133,1.601,0.166,3.551,0.1,5.851c-0.066,1.666-0.167,4.116-0.3,7.35c0-0.866,0.066-2.833,0.2-5.899
		c0.1-2.534,0.116-4.551,0.05-6.051C70.917,107.634,70.9,107.217,70.9,106.85z M20.8,111.15c0.1-0.567,0.233-1.25,0.4-2.051
		c-0.067,0.434-0.15,0.9-0.25,1.4C20.917,110.667,20.867,110.884,20.8,111.15z M0.2,158.65c-0.5-1.7-0.067-4.167,1.3-7.4
		c2.467-4.6,4.183-7.8,5.15-9.6c0.5-0.567,1.617-1.733,3.35-3.5c1.4-1.434,2.5-2.634,3.3-3.601c-0.9,2.601-1.767,4.95-2.6,7.05
		c-1.9,4.667-3.167,7.634-3.8,8.9c-1.767,3.467-3.683,5.967-5.75,7.5L0.2,158.65z M16.9,176c1.967-2.667,3.667-6.033,5.1-10.1
		c1.167-3.434,2.45-6.767,3.85-10c1.233-2.733,2.083-6.467,2.55-11.2c0.567-5.967,1.05-9.767,1.45-11.4
		c2.5-9.633,4.283-16.866,5.35-21.7c1.8-8.3,2.75-15.683,2.85-22.149c-0.1,0.867-0.3,1.85-0.6,2.95
		c-0.167,0.633-0.467,1.583-0.9,2.85c-0.434,1.3-0.783,3-1.05,5.1c-0.367,2.634-0.633,4.334-0.8,5.101c-0.333,1.533-1,3.8-2,6.8
		c-0.7,2.533-1.417,4.467-2.15,5.8c-0.767,1.4-1.333,2.95-1.7,4.65c-0.2,1-0.467,2.633-0.8,4.899c-0.3,1.801-0.816,3.733-1.55,5.801
		c0.7-2.601,1.217-6.483,1.55-11.65c0.333-5.467,0.75-9.316,1.25-11.55l0.3-1.2c1.833-4.467,3.083-8.184,3.75-11.15
		c-0.3,1.167-0.867,2.567-1.7,4.2c0.967-2.733,2.6-6.866,4.9-12.4c2.267-5.433,3.867-9.533,4.8-12.3l0.15-0.5
		c-0.4,2.267-1.033,5.617-1.9,10.05c-0.733,3.867-1.283,7.15-1.649,9.85c-0.101,0.8-0.667,5.45-1.7,13.95
		c-0.667,5.6-1.367,10.2-2.1,13.8c-0.167,0.8-0.4,2.4-0.7,4.8c-0.267,2-0.567,3.601-0.9,4.8c-0.733,2.801-1.15,4.467-1.25,5
		c-0.4,1.801-0.6,3.467-0.6,5l-0.2,4.551c-0.5,1.933-1.317,4.866-2.45,8.8c-1.267,5.033-2.133,8.333-2.6,9.899
		c-1.133,3.867-2.367,7.017-3.7,9.45c2.4,0.3,4.433,0.467,6.1,0.5l2.6,0.05h4c2.833-0.066,5.116,0.184,6.85,0.75
		c0.233,0.067,0.467,0.167,0.7,0.301c-1.066-0.467-2.3-0.767-3.7-0.9c-0.633-0.066-2.95-0.1-6.95-0.1c-3.8,0-7.35-0.233-10.65-0.7
		C19.533,176.533,18.267,176.3,16.9,176z M20.75,143.6l1.5-2l-1.7,2.601L20.75,143.6z M13.1,175.05c-0.5-0.166-1.2-0.366-2.1-0.6
		l1.25-2.601c0.833-2.233,1.583-4.133,2.25-5.699c1.233-2.934,2.267-4.417,3.1-4.45c-0.3,1.333-1.033,3.5-2.2,6.5
		C14.233,171.2,13.467,173.483,13.1,175.05z M9.1,173.9c-0.633-0.2-1.35-0.417-2.15-0.65c0.066-0.134,0.117-0.267,0.15-0.4
		c0.6-0.666,1.333-1.55,2.2-2.649C9.433,171.267,9.367,172.5,9.1,173.9z M8.85,161.6L9.7,160.7c0.933-1.467,1.483-2.3,1.65-2.5
		l4.65-4.15c-2.033,2.601-3.95,4.65-5.75,6.15L8.85,161.6z M8,164.85c0.233-1.333,0.317-2.05,0.25-2.149
		c-0.1-0.167-0.75-0.4-1.95-0.7c0.9,0.2,1.45,0.35,1.65,0.45c0.3,0.133,0.433,0.366,0.4,0.7C8.317,163.384,8.2,163.95,8,164.85z
		 M45.45,181.2c-0.07-0.147-0.146-0.289-0.226-0.425l0.025,0.024C45.313,180.904,45.379,181.037,45.45,181.2z M49.7,81.95l-0.25-3.3
		c0.066,2.7,0.017,4.934-0.15,6.7c-0.267,2.833-0.733,5.95-1.399,9.35c0.899-8.867,1.383-18.633,1.449-29.3l-9,60.8
		c0.167-3.167,0.434-7.167,0.801-12c0.533-7.2,0.833-11.217,0.899-12.05c0.167-2.534,0.351-7.684,0.55-15.45
		c0.167-6.5,0.467-11.65,0.9-15.45c0.366-3.367,0.55-7.983,0.55-13.85c-0.166,2.4-0.366,4.733-0.6,7c0.066-2.467,0.066-4.933,0-7.4
		L44,56.05l0.1-0.1c0.367-0.5,0.784-0.934,1.25-1.3v1.15c0.034-0.233,0.15-0.7,0.351-1.4c1.133-0.733,2.25-0.917,3.35-0.55
		c1.167,0.367,2.101,1.316,2.8,2.85l0.301,0.7L49.7,81.95z M52.8,65.4v-4.95c0.101,1.167,0.117,2.5,0.05,4L52.8,65.4z"/>
	<path style="fill-rule:evenodd;clip-rule:evenodd;fill:#898074;" d="M54.05,3L54,3.4c0,2.233,0.15,6.517,0.45,12.85
		c0.267,5.4,0.35,9.717,0.25,12.95c-0.101,2.7-0.2,4.367-0.3,5c-0.267,2.3-0.767,3.867-1.5,4.7c-0.5,0.6-1.5,1.233-3,1.9
		c-1.233,0.534-2.134,1.35-2.7,2.45c-0.066,0.067-0.267,0.5-0.601,1.3c-0.066-2.7-0.017-4.867,0.15-6.5
		c0.2-2.367,0.667-4.35,1.4-5.95c0.133-0.367,0.466-0.817,1-1.35c0.466-0.5,0.783-1.017,0.949-1.55c0.067-0.267,0.067-0.7,0-1.3
		c-0.066-0.8-0.1-1.25-0.1-1.35l0.05-7.7c-0.033-1.4,0.217-3,0.75-4.8c0.733-2.533,1.15-4.083,1.25-4.65c0.2-1.3,0.2-3.083,0-5.35
		C51.917,2.717,51.5,1.7,50.8,1c0.434,0.167,0.9,0.317,1.4,0.45c0.1,0.033,0.184,0.066,0.25,0.1c0.233,0.133,0.467,0.3,0.7,0.5
		l0.75,0.7L54.05,3z M1.25,160.35c-0.033-0.033-0.067-0.066-0.1-0.1c-0.433-0.434-0.75-0.967-0.95-1.6L1.15,158
		c2.067-1.533,3.983-4.033,5.75-7.5c0.633-1.267,1.9-4.233,3.8-8.9c0.833-2.1,1.7-4.449,2.6-7.05c0.7-0.8,1.383-1.684,2.05-2.649
		c0.467-0.7,1-1.717,1.6-3.051c0.633-1.466,1.133-2.5,1.5-3.1c0.3-0.533,1.05-1.566,2.25-3.1c0.9-1.167,1.533-2.267,1.9-3.301
		c0.667-2.033,1.2-3.933,1.6-5.699c0.5-0.601,1.05-2.034,1.65-4.301c1-3.699,1.983-6.483,2.95-8.35c0.9-1.634,1.4-2.55,1.5-2.75
		c0.367-0.833,0.667-1.85,0.9-3.05c0.533-2.934,0.816-4.917,0.85-5.95l0.15-2c1.066-1.767,2.55-4.083,4.45-6.95
		c1.133-1.667,2-3.667,2.6-6c0.066-0.167,0.533-2.333,1.4-6.5c0.8-3.267,1.366-5.716,1.699-7.35c0.634-2.833,0.983-5.3,1.051-7.4
		v2.25c-0.101,0.767-0.134,1.417-0.101,1.95L43.45,57c0.066,2.467,0.066,4.933,0,7.4c0.233-2.267,0.434-4.6,0.6-7
		c0,5.867-0.184,10.483-0.55,13.85c-0.434,3.8-0.733,8.95-0.9,15.45c-0.199,7.767-0.383,12.916-0.55,15.45
		c-0.066,0.833-0.366,4.85-0.899,12.05c-0.367,4.833-0.634,8.833-0.801,12L38.7,137.4c0.033,0.8-0.084,2.133-0.351,4
		c-0.3,1.733-0.383,3.033-0.25,3.899c2,0.566,3.417-0.3,4.25-2.6c0.2-0.634,0.534-2.55,1-5.75c0.301-1.834,0.517-4.283,0.65-7.351
		c0.2-3.733,0.366-6.199,0.5-7.399c0.6-5.9,1.134-10.384,1.6-13.45c0.733-4.667,1.334-9.35,1.801-14.05
		c0.666-3.4,1.133-6.517,1.399-9.35c0.167-1.767,0.217-4,0.15-6.7l0.25,3.3L49.35,85.4c0,4,0.117,10.25,0.351,18.75
		c0.233,8.166,0.333,14.416,0.3,18.75c0,3.166-0.217,8.017-0.65,14.55c-0.433,6.366-0.649,11.2-0.649,14.5
		c0,6.1-0.233,10.8-0.7,14.1c-0.233,1.667-0.667,4.334-1.3,8c-0.5,3.267-0.7,5.884-0.601,7.851c0.834-0.767,1.884-2.134,3.15-4.101
		c0.066,0.5,0.1,1.184,0.1,2.05c0,0.967,0.017,1.65,0.051,2.051c2.633-1.434,4.55-3.5,5.75-6.2c1.166,0.267,1.866,0.434,2.1,0.5
		c0.333,2.6,0.434,5.934,0.3,10l-0.25-0.45c-0.833-1.467-1.533-2.217-2.1-2.25c-0.233-0.033-1.434,0.333-3.601,1.1
		c-0.267,0.101-0.75,0.2-1.449,0.301c-0.434,0.066-0.867,0.283-1.301,0.649c-0.3,0.2-0.566,0.55-0.8,1.05
		c-0.7-0.533-1.25-1.449-1.649-2.75c-0.301-0.966-0.567-1.733-0.801-2.3l-0.149-0.35c-0.071-0.163-0.138-0.296-0.2-0.4l0.1-2.05
		c0-3.1,0.45-7.717,1.351-13.85c0.899-6.101,1.35-10.717,1.35-13.851c0-5.967,0.117-14.883,0.351-26.75
		c0.166-10.233,0.267-18.25,0.3-24.05c-0.134,4.3-0.533,10.083-1.2,17.35c-0.167,1.934-0.184,5.117-0.05,9.551
		c0.133,4.133,0.05,7.316-0.25,9.55c-0.066,0.767-0.267,1.883-0.601,3.35c-0.3,1.467-0.5,2.566-0.6,3.3
		c-0.033,0.2-0.05,0.884-0.05,2.051c-0.033,0.8-0.167,1.466-0.4,2c-0.2,0.433-0.566,0.983-1.1,1.649
		c-0.566,0.7-0.934,1.25-1.101,1.65c-0.333,0.733-0.55,4.5-0.649,11.3c-0.134,7.366-0.601,12.733-1.4,16.1
		c-1.733-0.566-4.017-0.816-6.85-0.75l0.7-3.25c0.367-1.466,0.767-3.449,1.2-5.949c0.534-2.967,0.917-4.967,1.15-6
		c0.267-1.167,0.5-3.051,0.7-5.65c1.133-2.5,1.467-4.533,1-6.1c-0.467,1.399-0.8,3.433-1,6.1l-1.351,2.8
		c-0.366,0.7-1.033,1.566-2,2.601c-1.033,1.066-1.717,1.883-2.05,2.449c-0.367,0.667-0.6,1.584-0.7,2.75
		c-0.033,0.667-0.067,1.634-0.1,2.9c-0.067,2.167-0.583,4.616-1.55,7.35l-2.6-0.05c0.4-2.6,0.967-5.017,1.7-7.25
		c1.6-4.467,2.784-7.866,3.55-10.2c1.367-4.133,2.133-7.616,2.3-10.449c0.1-1.601,0.1-3.884,0-6.851c-0.1-3.2-0.133-5.5-0.1-6.899
		c0.133-2.9,0.483-7.617,1.05-14.15c0.534-6.1,0.851-10.833,0.95-14.2c-0.066,0.9-0.25,1.983-0.55,3.25
		c-0.134,0.733-0.366,1.816-0.7,3.25c-0.466,2.3-0.883,5.217-1.25,8.75c-0.6,5.533-0.917,8.467-0.95,8.8
		c-0.2,1.434-0.617,3.567-1.25,6.4s-1.05,4.983-1.25,6.45c-0.167,1.333-0.45,2.816-0.85,4.45l0.2-4.551c0-1.533,0.2-3.199,0.6-5
		c0.1-0.533,0.517-2.199,1.25-5c0.333-1.199,0.633-2.8,0.9-4.8c0.3-2.399,0.533-4,0.7-4.8c0.733-3.6,1.434-8.2,2.1-13.8
		c1.033-8.5,1.6-13.15,1.7-13.95c0.366-2.7,0.916-5.983,1.649-9.85c0.867-4.433,1.5-7.783,1.9-10.05l-0.15,0.5
		c-0.933,2.767-2.533,6.867-4.8,12.3c-2.3,5.534-3.933,9.667-4.9,12.4c-0.2,0.4-0.717,1.417-1.55,3.05
		c-0.667,1.233-1.15,2.217-1.45,2.95c-0.3,0.7-0.816,1.601-1.55,2.7c-0.8,1.167-1.333,2.033-1.6,2.6
		c-1.7,3.467-2.917,7.417-3.65,11.851c-0.434,2.967-1.05,5.566-1.85,7.8c-0.867,2.467-2.05,4.833-3.55,7.1
		c-1.6,2.467-3.7,5.384-6.3,8.75c-2.967,3.801-5.183,6.65-6.65,8.551L1.25,160.35z M67.2,100.7c0.399,0.1,0.75,0.2,1.05,0.3
		l0.25,0.1c0.267,0.134,0.483,0.267,0.65,0.4c0.566,0.434,0.949,1.033,1.149,1.8c0.033,0.033,0.167,0.733,0.4,2.101
		c0.033,0.166,0.066,0.333,0.1,0.5l0.101,0.949c0,0.367,0.017,0.784,0.05,1.25l-1.15-1.3c-0.6-2.633-1.866-4-3.8-4.1l3.8,4.1
		c0.233,1.233,0.351,2.834,0.351,4.8c-0.034,1.034-0.084,2.351-0.15,3.95c0.033,2.3,0.2,5.917,0.5,10.851
		c0.134,4.399-0.066,7.966-0.6,10.699c-1.867-3.5-2.983-8.216-3.351-14.149c-0.166-3.101-0.1-7.967,0.2-14.601
		c-0.5,5.2-0.767,11.367-0.8,18.5c-0.033,4.134-0.017,10.301,0.05,18.5c0.033,1.867-0.066,4.534-0.3,8
		c-0.233,3.601-0.351,6.267-0.351,8c0,0.301,0.051,2.551,0.15,6.75c0.066,2.733,0.033,4.983-0.1,6.75
		c-0.167,2-0.517,4.367-1.051,7.101c-0.3,1.566-0.767,3.916-1.399,7.05c-0.634-0.033-1.3-0.083-2-0.15l-0.601-0.05
		c-0.6-0.066-1.233-0.149-1.899-0.25v-0.05l-0.25-0.7l0.5-2c0.267-0.934,0.45-2.116,0.55-3.55c0.1-1.9,0.184-3.083,0.25-3.55
		c0.167-1.066,0.583-3.217,1.25-6.45c0.6-2.667,0.967-4.833,1.1-6.5c0.134-1.167,0.167-2.884,0.101-5.15
		c-0.066-2.366-0.05-4.1,0.05-5.199c0.066-1.034,0.333-3.617,0.8-7.75c0.334-3.167,0.533-5.75,0.601-7.75
		c0.033-2,0.017-6.534-0.051-13.601c0-4-0.699-7.583-2.1-10.75c-0.2-0.434-0.783-1.333-1.75-2.7c-0.866-1.267-1.4-2.233-1.6-2.899
		c-0.167-0.601-0.184-1.566-0.051-2.9c0.167-1.5,0.217-2.5,0.15-3c-0.066-0.833-0.316-2.416-0.75-4.75
		c-0.366-1.967-0.566-3.6-0.6-4.9c0-2.167,0.233-5.433,0.699-9.8c0.467-4.333,0.684-7.617,0.65-9.85
		c0.2-5.033,0.283-8.85,0.25-11.45c-0.066-4.6-0.65-8.35-1.75-11.25c-0.866-2.367-1.917-4.383-3.15-6.05L54,44.05
		c-0.6-0.1-1.333,0-2.2,0.3l-0.149-0.1L51.9,44c0.566-0.467,1.699-0.917,3.399-1.35c1.2-0.3,2.05-1.117,2.55-2.45
		c0.134-0.267,0.233-0.583,0.301-0.95c0,0.033,0.017,0.083,0.05,0.15l0.6,2.4L58,42.7c-0.033,1.566,0.417,3.55,1.35,5.95
		c0.034,0.033,0.867,1.917,2.5,5.65c0.7,1.534,1.184,2.733,1.45,3.6c0.4,1.2,0.65,2.483,0.75,3.85
		c0.767,9.567,0.15,15.783-1.85,18.65c-0.367-2.066-0.601-4.017-0.7-5.85c-0.066,3.233-0.333,5.917-0.8,8.05
		c-0.167,0.733-0.634,1.85-1.4,3.35c-0.733,1.433-1.166,2.583-1.3,3.45c-0.066,0.7,0,1.483,0.2,2.35c0.3,1.233,0.467,1.967,0.5,2.2
		c0.2,1.434,0.283,3.166,0.25,5.2c0,0.267-0.066,2.05-0.2,5.35c0.366-2.333,0.616-4.083,0.75-5.25c1.1,2.1,1.983,4.983,2.65,8.65
		C62.983,106.033,64.667,103.634,67.2,100.7z M22.25,141.6l-1.5,2c0.7-1.933,1.283-4.066,1.75-6.399c0.333-1.5,0.667-4.017,1-7.55
		c0.3-3.2,0.683-5.684,1.15-7.45c0.567-1.934,1.333-4.15,2.3-6.65c1.2-2.899,2.083-5.083,2.65-6.55l-0.3,1.2
		c-0.5,2.233-0.917,6.083-1.25,11.55c-0.333,5.167-0.85,9.05-1.55,11.65C25.467,136.267,24.05,139,22.25,141.6z"/>
	<path style="fill-rule:evenodd;clip-rule:evenodd;fill:#635B52;" d="M51.35,44.5c-2.133,0.933-4.1,2.85-5.899,5.75
		c0.166-2.333,0.55-4.233,1.149-5.7c0.334-0.8,0.534-1.233,0.601-1.3c0.566-1.1,1.467-1.917,2.7-2.45c1.5-0.667,2.5-1.3,3-1.9
		c0.733-0.833,1.233-2.4,1.5-4.7c0.1-0.633,0.199-2.3,0.3-5c0.1-3.233,0.017-7.55-0.25-12.95C54.15,9.917,54,5.633,54,3.4L54.05,3
		c0.033,0.033,0.084,0.083,0.15,0.15c0,0.033,0.017,0.067,0.05,0.1c0.3,0.6,0.667,1.533,1.1,2.8c0.5,1.4,0.851,3.267,1.051,5.6
		c0.1,1.3,0.199,3.217,0.3,5.75c0.467,7.934,0.733,12.333,0.8,13.2c0.033,0.5,0.116,1.933,0.25,4.3c0.033,0.434,0.066,0.85,0.1,1.25
		c0.034,0.7,0.084,1.333,0.15,1.9l0.15,1.2c-0.067,0.367-0.167,0.683-0.301,0.95c-0.5,1.333-1.35,2.15-2.55,2.45
		c-1.7,0.434-2.833,0.883-3.399,1.35L51.35,44.5z M65.8,100.1c0.367,0.267,0.834,0.467,1.4,0.601c-2.533,2.934-4.217,5.333-5.05,7.2
		c-0.667-3.667-1.551-6.551-2.65-8.65c-0.134,1.167-0.384,2.917-0.75,5.25c0.134-3.3,0.2-5.083,0.2-5.35
		c0.033-2.034-0.05-3.767-0.25-5.2c-0.033-0.233-0.2-0.967-0.5-2.2C58,90.883,57.934,90.1,58,89.4c0.134-0.867,0.566-2.017,1.3-3.45
		c0.767-1.5,1.233-2.617,1.4-3.35c0.467-2.133,0.733-4.817,0.8-8.05c0.1,1.833,0.333,3.784,0.7,5.85c2-2.867,2.616-9.083,1.85-18.65
		c-0.1-1.367-0.35-2.65-0.75-3.85c-0.267-0.867-0.75-2.066-1.45-3.6c-1.633-3.733-2.466-5.617-2.5-5.65
		c-0.933-2.4-1.383-4.383-1.35-5.95l0.8-0.9c0.101,0.333,0.217,0.65,0.351,0.95c0.433,0.933,1.316,2.5,2.649,4.7
		c1.101,1.8,1.867,3.367,2.3,4.7c0.267,0.733,0.667,1.7,1.2,2.9c0.4,1.034,0.634,2.017,0.7,2.95c0.066,0.833,0.1,1.867,0.1,3.1
		c-0.033,0.7-0.066,1.717-0.1,3.05c0,4.833-0.384,10.817-1.15,17.95c-0.1,1.066-0.483,4.066-1.149,9c-0.3,4.6,0.3,7.534,1.8,8.8
		L65.8,100.1z M57.55,186.2l0.9,2.3v0.05l-1.8-0.35c-0.2-0.066-0.4-0.117-0.601-0.15c-0.333-0.066-1.616-0.184-3.85-0.35
		c-1.7-0.101-2.934-0.367-3.7-0.8c-0.167-0.101-0.316-0.2-0.45-0.301c0.233-0.5,0.5-0.85,0.8-1.05
		c0.434-0.366,0.867-0.583,1.301-0.649c0.699-0.101,1.183-0.2,1.449-0.301c2.167-0.767,3.367-1.133,3.601-1.1
		c0.566,0.033,1.267,0.783,2.1,2.25L57.55,186.2z M70.7,120.05v24.601c0,1.699-0.066,4.3-0.2,7.8c-0.1,3.133-0.033,5.717,0.2,7.75
		c0.1,0.866,0.316,2.166,0.649,3.899c0.334,1.733,0.551,3.051,0.65,3.95c0.2,1.667,0.5,4.334,0.9,8c0.267,3.2,0.199,5.867-0.2,8
		c-0.2,1.066-0.917,2.05-2.15,2.95c-1.133,0.833-2.416,1.417-3.85,1.75c-1.033,0.233-2.283,0.316-3.75,0.25
		c0.633-3.134,1.1-5.483,1.399-7.05c0.534-2.733,0.884-5.101,1.051-7.101c0.133-1.767,0.166-4.017,0.1-6.75
		c-0.1-4.199-0.15-6.449-0.15-6.75c0-1.733,0.117-4.399,0.351-8c0.233-3.466,0.333-6.133,0.3-8c-0.066-8.199-0.083-14.366-0.05-18.5
		c0.033-7.133,0.3-13.3,0.8-18.5c-0.3,6.634-0.366,11.5-0.2,14.601c0.367,5.934,1.483,10.649,3.351,14.149
		c0.533-2.733,0.733-6.3,0.6-10.699c-0.3-4.934-0.467-8.551-0.5-10.851c0.066-1.6,0.116-2.916,0.15-3.95
		c0-1.966-0.117-3.566-0.351-4.8l-3.8-4.1c1.934,0.1,3.2,1.467,3.8,4.1l1.15,1.3c0.066,1.5,0.05,3.517-0.05,6.051
		C70.767,117.217,70.7,119.184,70.7,120.05z M30.5,148.65c0.4-1.634,0.683-3.117,0.85-4.45c0.2-1.467,0.617-3.617,1.25-6.45
		s1.05-4.967,1.25-6.4c0.033-0.333,0.35-3.267,0.95-8.8c0.367-3.533,0.784-6.45,1.25-8.75c0.334-1.434,0.566-2.517,0.7-3.25
		c0.3-1.267,0.483-2.35,0.55-3.25c-0.1,3.367-0.416,8.101-0.95,14.2c-0.566,6.533-0.917,11.25-1.05,14.15
		c-0.033,1.399,0,3.699,0.1,6.899c0.1,2.967,0.1,5.25,0,6.851c-0.167,2.833-0.933,6.316-2.3,10.449
		c-0.767,2.334-1.95,5.733-3.55,10.2c-0.733,2.233-1.3,4.65-1.7,7.25c-1.667-0.033-3.7-0.2-6.1-0.5
		c1.333-2.434,2.567-5.583,3.7-9.45c0.466-1.566,1.333-4.866,2.6-9.899C29.183,153.517,30,150.583,30.5,148.65z M20.75,143.6
		l-0.2,0.601c-2.133,3.267-3.983,5.717-5.55,7.35c-1.2,1.233-2.233,2.467-3.1,3.7c-1.3,1.767-1.933,3.15-1.9,4.15l1.35-1.2
		c-0.167,0.2-0.717,1.033-1.65,2.5L8.85,161.6l-0.9,0.851C7.75,162.35,7.2,162.2,6.3,162l-0.45-0.1
		c-0.867-0.167-1.517-0.301-1.95-0.4c-0.8-0.167-1.417-0.366-1.85-0.6c-0.3-0.167-0.566-0.351-0.8-0.551L3.5,157.4
		c1.467-1.9,3.683-4.75,6.65-8.551c2.6-3.366,4.7-6.283,6.3-8.75c1.5-2.267,2.683-4.633,3.55-7.1c0.8-2.233,1.417-4.833,1.85-7.8
		c0.733-4.434,1.95-8.384,3.65-11.851c0.267-0.566,0.8-1.433,1.6-2.6c0.733-1.1,1.25-2,1.55-2.7c0.3-0.733,0.783-1.717,1.45-2.95
		c0.833-1.633,1.35-2.649,1.55-3.05c0.833-1.633,1.4-3.033,1.7-4.2c-0.667,2.967-1.917,6.684-3.75,11.15
		c-0.567,1.467-1.45,3.65-2.65,6.55c-0.967,2.5-1.733,4.717-2.3,6.65c-0.467,1.767-0.85,4.25-1.15,7.45
		c-0.333,3.533-0.667,6.05-1,7.55C22.033,139.533,21.45,141.667,20.75,143.6z M34.45,177.35h-4c0.966-2.733,1.483-5.183,1.55-7.35
		c0.033-1.267,0.067-2.233,0.1-2.9c0.1-1.166,0.333-2.083,0.7-2.75c0.333-0.566,1.017-1.383,2.05-2.449
		c0.967-1.034,1.633-1.9,2-2.601l1.351-2.8c0.2-2.667,0.533-4.7,1-6.1c0.467,1.566,0.133,3.6-1,6.1c-0.2,2.6-0.434,4.483-0.7,5.65
		c-0.233,1.033-0.616,3.033-1.15,6c-0.433,2.5-0.833,4.483-1.2,5.949L34.45,177.35z M45.25,180.8l-0.025-0.024
		c-0.026-0.046-0.052-0.088-0.074-0.125c-0.101-0.134-0.184-0.25-0.25-0.351c-0.034-0.033-0.067-0.066-0.101-0.1
		c-0.066-0.066-0.116-0.117-0.149-0.15l-1.5-1.1c-0.067-0.033-0.117-0.05-0.15-0.05l-1-0.5c-0.233-0.134-0.467-0.233-0.7-0.301
		c0.8-3.366,1.267-8.733,1.4-16.1c0.1-6.8,0.316-10.566,0.649-11.3c0.167-0.4,0.534-0.95,1.101-1.65
		c0.533-0.666,0.899-1.217,1.1-1.649c0.233-0.534,0.367-1.2,0.4-2c0-1.167,0.017-1.851,0.05-2.051c0.1-0.733,0.3-1.833,0.6-3.3
		c0.334-1.467,0.534-2.583,0.601-3.35c0.3-2.233,0.383-5.417,0.25-9.55c-0.134-4.434-0.117-7.617,0.05-9.551
		c0.667-7.267,1.066-13.05,1.2-17.35c-0.033,5.8-0.134,13.816-0.3,24.05c-0.233,11.867-0.351,20.783-0.351,26.75
		c0,3.134-0.45,7.75-1.35,13.851c-0.9,6.133-1.351,10.75-1.351,13.85L45.25,180.8z M45.7,54.4c-0.2,0.7-0.316,1.167-0.351,1.4v-1.15
		L45.7,54.4z"/>
	<path style="fill-rule:evenodd;clip-rule:evenodd;fill:#B3AA9E;" d="M32.2,87.25l-0.15,2c-0.033,1.033-0.316,3.017-0.85,5.95
		c-0.233,1.2-0.534,2.217-0.9,3.05c-0.1,0.2-0.6,1.116-1.5,2.75c-0.966,1.866-1.95,4.65-2.95,8.35c-0.6,2.267-1.15,3.7-1.65,4.301
		c-0.4,1.767-0.934,3.666-1.6,5.699c-0.367,1.034-1,2.134-1.9,3.301c-1.2,1.533-1.95,2.566-2.25,3.1c-0.367,0.6-0.867,1.634-1.5,3.1
		c-0.6,1.334-1.133,2.351-1.6,3.051c-0.667,0.966-1.35,1.85-2.05,2.649c-0.8,0.967-1.9,2.167-3.3,3.601
		c-1.733,1.767-2.85,2.933-3.35,3.5H6.6l0.55-1.051c1.533-3.066,4.033-7.649,7.5-13.75c2.934-5.5,4.883-10.283,5.85-14.35
		c0-0.033,0.017-0.066,0.05-0.1l0.05-0.301c0.033-0.199,0.083-0.433,0.15-0.699l0.05-0.25c0.067-0.267,0.117-0.483,0.15-0.65
		c0.1-0.5,0.183-0.967,0.25-1.4l0.85-4.8c0.034-0.066,0.05-0.149,0.05-0.25l0.15-0.75c0.567-2.833,1.2-5.2,1.9-7.1
		c2.133-5.5,4.1-10.233,5.9-14.2c1.034-2.233,1.717-5.1,2.05-8.6c0.233-3.9,0.467-6.816,0.7-8.75c0.167-1.333,0.617-3.667,1.35-7
		c0.667-2.967,1.067-5.316,1.2-7.05C35.783,46.1,36,40.4,36,33.5c0-2.833,0.1-6.6,0.3-11.3c0.233-5.633,0.367-9.4,0.4-11.3
		c0-0.367,0.017-0.717,0.05-1.05l0.1-1.65c0-0.467,0.034-0.833,0.101-1.1C36.983,7,37,6.917,37,6.85l0.05-0.2
		c0.033-0.133,0.066-0.25,0.101-0.35c0.267-0.833,0.699-1.6,1.3-2.3c3.3-0.233,5.283,0.833,5.95,3.2
		c-1.567-0.1-2.534,0.816-2.9,2.75c-0.1,0.533-0.15,2.117-0.15,4.75c0.034,5.167,0.051,8.15,0.051,8.95
		c-0.034,3.4-0.217,6.367-0.551,8.9c-0.1,0.867-0.25,5.25-0.449,13.15c-0.101,5.433-0.867,9.7-2.301,12.8
		c0.233-0.233,0.667-0.533,1.301-0.9c-0.2,2.833-1.084,6.467-2.65,10.9c-1.9,5.3-3.033,8.883-3.4,10.75
		C32.783,82.05,32.4,84.717,32.2,87.25z M43.45,57l-0.15,0.25c-0.033-0.533,0-1.183,0.101-1.95l0.6-2.1l0.15-0.3
		c0.333-0.867,0.767-1.75,1.3-2.65c1.8-2.9,3.767-4.817,5.899-5.75l0.45-0.15c0.867-0.3,1.601-0.4,2.2-0.3L53.35,46v0.05
		c-0.066,1.1,0.184,2.784,0.75,5.05c0.534,2.167,0.733,3.883,0.601,5.15c-0.101,1.067-0.384,2.533-0.851,4.4
		c-0.533,2.067-0.866,3.55-1,4.45c0.067,4.933,0.184,12.333,0.351,22.2c0.133,8.733,0.184,16.15,0.149,22.25
		c0,3.9,0.317,8.417,0.95,13.55c0.367,2.967,1,7.434,1.9,13.4c0.399,2.866,0.6,6.333,0.6,10.4c0,2.333-0.033,5.833-0.1,10.5
		c0,2.066,0.033,5.233,0.1,9.5c-0.133,3.633-0.684,6.566-1.649,8.8c-1.2,2.7-3.117,4.767-5.75,6.2
		c-0.034-0.4-0.051-1.084-0.051-2.051c0-0.866-0.033-1.55-0.1-2.05c-1.267,1.967-2.316,3.334-3.15,4.101
		c-0.1-1.967,0.101-4.584,0.601-7.851c0.633-3.666,1.066-6.333,1.3-8c0.467-3.3,0.7-8,0.7-14.1c0-3.3,0.217-8.134,0.649-14.5
		c0.434-6.533,0.65-11.384,0.65-14.55c0.033-4.334-0.066-10.584-0.3-18.75c-0.233-8.5-0.351-14.75-0.351-18.75l0.351-3.45
		l2.45-24.55l-0.301-0.7c-0.699-1.534-1.633-2.483-2.8-2.85c-1.1-0.367-2.217-0.184-3.35,0.55l-0.351,0.25
		c-0.466,0.367-0.883,0.8-1.25,1.3l-0.1,0.1L43.45,57z M16.9,176c-0.967-0.2-1.983-0.45-3.05-0.75c-0.067-0.033-0.167-0.05-0.3-0.05
		l-0.45-0.15c0.367-1.566,1.133-3.85,2.3-6.85c1.167-3,1.9-5.167,2.2-6.5c-0.833,0.033-1.867,1.517-3.1,4.45
		c-0.667,1.566-1.417,3.466-2.25,5.699L11,174.45h-0.05L9.1,173.9c0.267-1.4,0.333-2.634,0.2-3.7c-0.867,1.1-1.6,1.983-2.2,2.649
		l0.4-1.6c0.067-0.7,0.133-1.5,0.2-2.4c0.133-2.199,0.233-3.517,0.3-3.949v-0.051c0.2-0.899,0.317-1.466,0.35-1.699
		c0.033-0.334-0.1-0.567-0.4-0.7l0.9-0.851l1.4-1.399c1.8-1.5,3.717-3.55,5.75-6.15l-4.65,4.15L10,159.4
		c-0.033-1,0.6-2.384,1.9-4.15c0.867-1.233,1.9-2.467,3.1-3.7c1.567-1.633,3.417-4.083,5.55-7.35l1.7-2.601
		c1.8-2.6,3.217-5.333,4.25-8.199c0.733-2.067,1.25-4,1.55-5.801c0.333-2.267,0.6-3.899,0.8-4.899c0.367-1.7,0.933-3.25,1.7-4.65
		c0.733-1.333,1.45-3.267,2.15-5.8c1-3,1.667-5.267,2-6.8c0.167-0.767,0.433-2.467,0.8-5.101c0.267-2.1,0.616-3.8,1.05-5.1
		c0.434-1.267,0.733-2.217,0.9-2.85c0.3-1.1,0.5-2.083,0.6-2.95C37.95,95.917,37,103.3,35.2,111.6
		c-1.067,4.834-2.85,12.067-5.35,21.7c-0.4,1.634-0.883,5.434-1.45,11.4c-0.467,4.733-1.316,8.467-2.55,11.2
		c-1.4,3.233-2.684,6.566-3.85,10C20.567,169.967,18.867,173.333,16.9,176z M47.9,94.7c-0.467,4.7-1.067,9.383-1.801,14.05
		c-0.466,3.066-1,7.55-1.6,13.45c-0.134,1.2-0.3,3.666-0.5,7.399c-0.134,3.067-0.35,5.517-0.65,7.351c-0.466,3.2-0.8,5.116-1,5.75
		c-0.833,2.3-2.25,3.166-4.25,2.6c-0.133-0.866-0.05-2.166,0.25-3.899c0.267-1.867,0.384-3.2,0.351-4l1.649-11.2l9-60.8
		C49.283,76.067,48.8,85.833,47.9,94.7z M52.8,65.4l0.05-0.95c0.067-1.5,0.051-2.833-0.05-4V65.4z"/>
</g>
</svg>
