<?xml version="1.0" encoding="iso-8859-1"?>
<!-- Generator: Adobe Illustrator 15.1.0, SVG Export Plug-In . SVG Version: 6.00 Build 0)  -->
<!DOCTYPE svg PUBLIC "-//W3C//DTD SVG 1.1//EN" "http://www.w3.org/Graphics/SVG/1.1/DTD/svg11.dtd">
<svg version="1.1" id="Layer_1" xmlns="http://www.w3.org/2000/svg" xmlns:xlink="http://www.w3.org/1999/xlink" x="0px" y="0px"
	 width="50.7px" height="181.6px" viewBox="0 0 50.7 181.6" style="enable-background:new 0 0 50.7 181.6;" xml:space="preserve">
<g>
	<path style="fill-rule:evenodd;clip-rule:evenodd;fill:#625954;" d="M46.5,18.85v0.1c-0.733-1.633-1.283-2.9-1.65-3.8
		c-0.566-1.433-1.216-3.467-1.949-6.1c-0.634-2.3-2.7-4.216-6.2-5.75c-3.667-1.233-5.8-2.066-6.4-2.5l0.851,0.05
		c2.633,0.2,5.3,0.933,8,2.2c0.633,0.3,2,1.083,4.1,2.35c0.5,0.3,1.083,0.483,1.75,0.55c0.467,0.066,0.767,0.283,0.9,0.65
		C46.134,7.233,46.333,11.317,46.5,18.85z M46.85,21.8C47.017,31,46.95,42.067,46.65,55c0,4.167,0.683,12.55,2.05,25.15
		c1.333,12.633,2,19.317,2,20.05c0,1.6-0.634,14.883-1.9,39.85l-0.05,1.45c0.467,5.6,0.366,8.783-0.3,9.55
		c-0.033,0.033-0.3,0.134-0.8,0.3c-0.267,0.101-0.4,0.467-0.4,1.101c0,0.066,0.167,0.733,0.5,2c0.3,1.399,0.45,2.517,0.45,3.35
		c0,6.233-0.601,10.934-1.8,14.101c-1.267,3.233-3.334,5.316-6.2,6.25c-2.101,0.699-5.767,1.483-11,2.35c-4.6,0.733-7.3,1.1-8.1,1.1
		c-1.667,0-4.317-0.316-7.95-0.949c-0.6-0.101-1.183-0.2-1.75-0.301c-0.1-0.066-0.2-0.116-0.3-0.149
		c-0.567-0.334-0.85-0.733-0.85-1.2l1.85-0.2l-0.4-0.6l1.3-0.05l3.95,0.05c9.533,1.233,16.45,0.149,20.75-3.25
		c5.267-4.233,6.983-12.167,5.149-23.8l-0.949,1.3c-1.801,1.767-2.834,4.25-3.101,7.45c-0.133,1.666-0.184,3.5-0.149,5.5
		c-0.4-0.733-0.617-1.101-0.65-1.101c-0.134-7.033-0.316-11.483-0.55-13.35c-2.334,0.434-4.483,0.816-6.45,1.149
		c-3.767,0.601-6.633,0.9-8.6,0.9c-9.6-0.066-16.167-0.283-19.7-0.65l-1.1-0.399H1.55l-0.3-1l2.25-0.3
		c1.967-0.134,4.433-0.301,7.4-0.5c2.367-0.167,4.617-0.25,6.75-0.25l0.45,0.35l12.7,1.1c-0.633-0.5-1.083-1.149-1.35-1.949
		c-0.367-1.134-0.55-2.834-0.55-5.101c0.033-1.666,0.083-3.283,0.149-4.85c0.066-0.134,0.15-0.25,0.25-0.351
		c0.167-0.366,0.184-1.5,0.05-3.399c-0.066-0.834-0.116-1.7-0.149-2.601c0.2-8.267,0.283-14.833,0.25-19.699
		c0.133,0.966,1.149,10.449,3.05,28.449c0.5,4.667,1.267,7,2.3,7c0.267,0,1.283-0.466,3.05-1.399c2.134-1.167,3.884-2.384,5.25-3.65
		c0.2-0.166,0.45-0.85,0.75-2.05c0.367-1.434,0.534-2.733,0.5-3.9c-0.133-4.6-0.199-12.966-0.199-25.1
		c0.433,12.467,0.633,20.65,0.6,24.55l0.35-0.7L45.4,135.7c0.199-1.367,0.416-4.566,0.649-9.601c0.2-4.233,0.3-6.883,0.3-7.949
		c0-1.934-0.233-3.934-0.699-6c-0.5-2.267-0.834-6.801-1-13.601c-0.067-2.866-0.134-8.183-0.2-15.95
		c-0.066-7.667-0.167-14.4-0.3-20.2L43.8,63.6c-0.333,1.233-0.583,2.633-0.75,4.2L42.6,54.9l0.25-9.05
		c-0.199,2.333-1.517,5.833-3.949,10.5c0.1-3.833,0-6.3-0.301-7.4l-0.05,0.3c-2.1,6.667-3.616,10.417-4.55,11.25l0.1-1.2
		c0.101-2.667,0.117-6.3,0.051-10.9c0.233,1.434,0.5,2.767,0.8,4c1.033-3.967,1.616-7.3,1.75-10c0.133-5.9,0.383-12.8,0.75-20.7
		l0.5,0.9c0.267,1.8,0.416,5.033,0.45,9.7c0.066,4.167,0.366,7.467,0.899,9.9c0.101-0.934,0.2-1.583,0.3-1.95l0.15-0.3
		c0.134-5,0.75-9.067,1.85-12.2c0.301,0.733,1.317,3.5,3.051,8.3l0.1-0.35c-0.134-3.3-0.134-6.35,0-9.15
		c0.033-0.4,0.35-1.183,0.95-2.35C46.4,22.867,46.783,22.067,46.85,21.8z"/>
	<path style="fill-rule:evenodd;clip-rule:evenodd;fill:#8B8178;" d="M30.3,0.8L29,0.65l2.15,0.2L30.3,0.8z M46.5,18.85l0.1,0.7
		l-0.1-0.6V18.85z M29.05,139.45c-0.6,0.767-1.3,1.767-2.1,3c-1.767,3.233-2.967,5.166-3.6,5.8c-0.7,0.667-2.6,1.217-5.7,1.65
		c-2.133,0-4.383,0.083-6.75,0.25c-2.967,0.199-5.433,0.366-7.4,0.5c-0.2-0.034-0.633,0-1.3,0.1c1.808-0.399,3.358-0.966,4.65-1.7
		c0.733-0.434,1.433-0.883,2.1-1.35c0.4-0.101,1.283-0.184,2.65-0.25c1.3-0.101,2.25-0.233,2.85-0.4c-4.434,0.167-7.233,0.167-8.4,0
		c-1.533-0.233-2.383-0.899-2.55-2l0.7-0.35c2.1,0.833,3.367-5.867,3.8-20.101c0.733-25.166,1.267-39.833,1.6-44l0.4,1.25
		c0.967,5.667,2.1,14.083,3.4,25.25c1.434,12.733,2.35,20.45,2.75,23.15l0.1-1.8c0.633-15.5,1.117-32.134,1.45-49.9
		c0.533-28.633,0.867-45.367,1-50.2c-1.733,5.667-3.15,14.017-4.25,25.05C13.417,63.733,12.467,70,11.6,72.2l-0.2-1.4
		c-0.133-1.5-0.2-3.05-0.2-4.65c0.167-20.633,0.017-31.9-0.45-33.8l0.05,0.45c0,8-0.216,14.883-0.65,20.65
		c-0.066-10.434-0.167-18.967-0.3-25.6c-0.133-4.6-0.2-7.067-0.2-7.4c0-1,0.15-2.184,0.45-3.55c0.233-1.233,0.467-2.117,0.7-2.65
		c0.5,0.6,1.117,1.367,1.85,2.3c0.5,0.633,0.817,0.95,0.95,0.95c0.667,0,0.783-0.05,0.35-0.15c0.233-0.467,0.566-1.617,1-3.45
		c0.4-1.667,0.883-2.983,1.45-3.95c1.767-3.067,5.283-4.6,10.55-4.6c0.666,0,2.333,0.083,5,0.25L30.8,4.95
		c-2.6-1.7-5.649-2.567-9.15-2.6c-3.9-0.033-6.117-0.167-6.65-0.4l0.2-0.5c2.433-0.934,4.433-1.367,6-1.3l-1,0.45
		c0.5-0.2,1.017-0.35,1.55-0.45c1.6-0.3,3.384-0.2,5.35,0.3c1.601,0.4,3.334,1.083,5.2,2.05c5.3,2.667,7.95,5.65,7.95,8.95
		c0,0.667-0.083,1.6-0.25,2.8l-6.1,0.05c-0.233,5.333-0.351,8.967-0.351,10.9l0.5,14.85L34,39.5c-0.033-0.4-0.533-2.35-1.5-5.85
		c-1-3.667-1.583-5.9-1.75-6.7c0.267,9.466,0.45,19.267,0.55,29.4c0.066,5.633,0.15,13.933,0.25,24.9
		C33.684,71.817,35,65.7,35.5,62.9C35.366,69.967,35.233,80,35.1,93c-0.066,9-0.183,14.3-0.35,15.9
		c-0.3,2.966-0.384,6.883-0.25,11.75c-0.1,3.433-0.917,5.25-2.45,5.449c-0.2-0.399-0.383-0.683-0.55-0.85l-0.25-0.15
		c-0.434-4.533-0.816-15.133-1.15-31.8c-1.033,17.634-1.333,30.9-0.899,39.8c0.033,0.9,0.083,1.767,0.149,2.601
		c0.134,1.899,0.117,3.033-0.05,3.399C29.2,139.2,29.116,139.316,29.05,139.45z M2.7,152.35L1.6,152v-0.05L2.7,152.35z M13,178.15
		l-1.55-0.25c-0.667-0.801-1.367-2.117-2.1-3.95C8.417,171.684,8,169.8,8.1,168.3l0.5,1.7c0.667,1.033,1.316,1.866,1.95,2.5
		c0.4,0.434,1.167,1.184,2.3,2.25c0.5-0.733,0.75-1.566,0.75-2.5c0-0.167-0.167-1.267-0.5-3.3c-0.367-2-0.55-3.8-0.55-5.4
		c0-2.767,1.983-4.467,5.95-5.1c1.2-0.2,3.233-0.45,6.1-0.75c2.766-0.3,5.117-0.733,7.05-1.3c0.333,0.6,0.616,1.683,0.85,3.25
		c0.2,1.433,0.3,2.783,0.3,4.05c0,5.467-1,8.899-3,10.3c-0.934,0.667-2.55,1.333-4.85,2c-3.133,0.833-5.8,1.566-8,2.2L13,178.15z
		 M3.9,154.9c0.667,0.199,1.65,0.449,2.95,0.75L4.25,156C4.25,155.566,4.133,155.2,3.9,154.9z"/>
	<path style="fill-rule:evenodd;clip-rule:evenodd;fill:#726A60;" d="M29,0.65l1.3,0.15c0.601,0.434,2.733,1.267,6.4,2.5
		c3.5,1.534,5.566,3.45,6.2,5.75c0.733,2.633,1.383,4.667,1.949,6.1c0.367,0.9,0.917,2.167,1.65,3.8l0.1,0.6l0.25,2.25
		c-0.066,0.267-0.449,1.067-1.149,2.4c-0.601,1.167-0.917,1.95-0.95,2.35c-0.134,2.8-0.134,5.85,0,9.15l-0.1,0.35
		c-1.733-4.8-2.75-7.566-3.051-8.3c-1.1,3.133-1.716,7.2-1.85,12.2l-0.15,0.3c-0.1,0.367-0.199,1.017-0.3,1.95
		c-0.533-2.434-0.833-5.733-0.899-9.9c-0.034-4.667-0.184-7.9-0.45-9.7l-0.5-0.9c-0.367,7.9-0.617,14.8-0.75,20.7
		c-0.134,2.7-0.717,6.033-1.75,10c-0.3-1.233-0.566-2.566-0.8-4c0.066,4.6,0.05,8.233-0.051,10.9L34,60.5
		c0.934-0.833,2.45-4.583,4.55-11.25l0.05-0.3c0.301,1.1,0.4,3.566,0.301,7.4c2.433-4.667,3.75-8.167,3.949-10.5L42.6,54.9
		l0.45,12.9c0.167-1.566,0.417-2.966,0.75-4.2l0.351-1.2c0.133,5.8,0.233,12.533,0.3,20.2c0.066,7.767,0.133,13.083,0.2,15.95
		c0.166,6.8,0.5,11.334,1,13.601c0.466,2.066,0.699,4.066,0.699,6c0,1.066-0.1,3.716-0.3,7.949c-0.233,5.034-0.45,8.233-0.649,9.601
		L45.1,136.6l-0.35,0.7c0.033-3.899-0.167-12.083-0.6-24.55c0,12.134,0.066,20.5,0.199,25.1c0.034,1.167-0.133,2.467-0.5,3.9
		c-0.3,1.2-0.55,1.884-0.75,2.05c-1.366,1.267-3.116,2.483-5.25,3.65c-1.767,0.934-2.783,1.399-3.05,1.399c-1.033,0-1.8-2.333-2.3-7
		c-1.9-18-2.917-27.483-3.05-28.449c0.033,4.866-0.05,11.433-0.25,19.699c-0.434-8.899-0.134-22.166,0.899-39.8
		c0.334,16.667,0.717,27.267,1.15,31.8l0.25,0.15c0.167,0.167,0.35,0.45,0.55,0.85c1.533-0.199,2.351-2.017,2.45-5.449
		c-0.134-4.867-0.05-8.784,0.25-11.75c0.167-1.601,0.283-6.9,0.35-15.9c0.134-13,0.267-23.033,0.4-30.1
		c-0.5,2.8-1.816,8.917-3.95,18.35c-0.1-10.967-0.184-19.267-0.25-24.9c-0.1-10.133-0.283-19.934-0.55-29.4
		c0.167,0.8,0.75,3.033,1.75,6.7c0.967,3.5,1.467,5.45,1.5,5.85l0.05,0.55l-0.5-14.85c0-1.934,0.117-5.567,0.351-10.9l6.1-0.05
		c0.167-1.2,0.25-2.133,0.25-2.8c0-3.3-2.65-6.284-7.95-8.95c-1.866-0.967-3.6-1.65-5.2-2.05c0.167,0,0.351,0.017,0.551,0.05
		L29,0.65z M17.65,149.9c3.1-0.434,5-0.983,5.7-1.65c0.633-0.634,1.833-2.566,3.6-5.8c0.8-1.233,1.5-2.233,2.1-3
		c-0.066,1.566-0.116,3.184-0.149,4.85c0,2.267,0.183,3.967,0.55,5.101c0.267,0.8,0.717,1.449,1.35,1.949l-12.7-1.1L17.65,149.9z
		 M1.25,150.9h0.2c0.254-0.048,0.504-0.099,0.75-0.15c0.667-0.1,1.1-0.134,1.3-0.1l-2.25,0.3V150.9z M1.55,151.95L1.6,152l1.1,0.35
		c3.533,0.367,10.1,0.584,19.7,0.65c1.967,0,4.833-0.3,8.6-0.9c1.967-0.333,4.116-0.716,6.45-1.149
		c0.233,1.866,0.416,6.316,0.55,13.35c0.033,0,0.25,0.367,0.65,1.101c-0.034-2,0.017-3.834,0.149-5.5
		c0.267-3.2,1.3-5.684,3.101-7.45l0.949-1.3c1.834,11.633,0.117,19.566-5.149,23.8c-4.3,3.399-11.217,4.483-20.75,3.25
		c2.2-0.634,4.867-1.367,8-2.2c2.3-0.667,3.916-1.333,4.85-2c2-1.4,3-4.833,3-10.3c0-1.267-0.1-2.617-0.3-4.05
		c-0.233-1.567-0.517-2.65-0.85-3.25l0.449-0.15c-2.433-0.9-3.983-1.35-4.649-1.35c-9.3,0.433-16.167,0.683-20.6,0.75
		c-1.3-0.301-2.283-0.551-2.95-0.75c0-0.034-0.017-0.051-0.05-0.051c-0.367-0.166-0.633-0.316-0.8-0.449
		C2.45,153.533,1.95,152.717,1.55,151.95z M11.7,178.2l-0.25-0.3l1.55,0.25L11.7,178.2z M11.4,180.35
		c-0.566-0.133-1.1-0.267-1.6-0.399c-0.066,0-0.133-0.017-0.2-0.05l-0.15-0.051c-0.4-0.133-0.95-0.333-1.65-0.6
		c-0.6-0.233-1.05-0.417-1.35-0.55c-0.167-0.066-0.317-0.134-0.45-0.2L5.25,178c0.567,0.267,1.383,0.5,2.45,0.7
		c1.033,0.2,1.883,0.3,2.55,0.3c0,0.467,0.283,0.866,0.85,1.2C11.2,180.233,11.3,180.283,11.4,180.35z M21.2,0.15
		c0.167,0,0.35,0,0.55,0C21.217,0.25,20.7,0.4,20.2,0.6L21.2,0.15z"/>
	<path style="fill-rule:evenodd;clip-rule:evenodd;fill:#A1978B;" d="M11.45,177.9l0.25,0.3l0.4,0.6l-1.85,0.2
		c-0.667,0-1.517-0.1-2.55-0.3c-1.067-0.2-1.883-0.434-2.45-0.7c-0.967-1-1.5-1.6-1.6-1.8C3.217,175.267,3,173.517,3,170.95
		c0-8.5,0.417-13.483,1.25-14.95l2.6-0.35c4.433-0.067,11.3-0.317,20.6-0.75c0.666,0,2.217,0.449,4.649,1.35l-0.449,0.15
		c-1.934,0.566-4.284,1-7.05,1.3c-2.867,0.3-4.9,0.55-6.1,0.75c-3.967,0.633-5.95,2.333-5.95,5.1c0,1.601,0.184,3.4,0.55,5.4
		c0.333,2.033,0.5,3.133,0.5,3.3c0,0.934-0.25,1.767-0.75,2.5c-1.133-1.066-1.9-1.816-2.3-2.25c-0.633-0.634-1.283-1.467-1.95-2.5
		l-0.5-1.7c-0.1,1.5,0.316,3.384,1.25,5.65C10.083,175.783,10.783,177.1,11.45,177.9z M2.2,150.75
		c-0.246,0.052-0.496,0.103-0.75,0.15h-0.2c-0.167-1-0.25-2.184-0.25-3.551l0.05-1.149c0.133-3.2,0-12.917-0.4-29.15
		C0.217,101.15,0,92.783,0,91.95c0-2.467,0.317-6.75,0.95-12.85c0.767-7.033,1.233-12.434,1.4-16.2c0.167-3.6,0.533-9.35,1.1-17.25
		c0.4-5.867,0.6-10.633,0.6-14.3C3.717,19.617,3.517,11.167,3.45,6L6.3,5.35l5.35-2.3c2.434-1.2,3.617-1.733,3.55-1.6L15,1.95
		c0.533,0.233,2.75,0.367,6.65,0.4c3.5,0.033,6.55,0.9,9.15,2.6l1.15,0.65c-2.667-0.167-4.334-0.25-5-0.25
		c-5.267,0-8.784,1.533-10.55,4.6c-0.566,0.966-1.05,2.283-1.45,3.95c-0.434,1.833-0.767,2.983-1,3.45
		c0.433,0.1,0.316,0.15-0.35,0.15c-0.133,0-0.45-0.317-0.95-0.95c-0.733-0.933-1.35-1.7-1.85-2.3c-0.233,0.533-0.466,1.417-0.7,2.65
		c-0.3,1.367-0.45,2.55-0.45,3.55c0,0.333,0.067,2.8,0.2,7.4c0.133,6.633,0.233,15.167,0.3,25.6c0.434-5.767,0.65-12.65,0.65-20.65
		l-0.05-0.45c0.467,1.9,0.617,13.167,0.45,33.8c0,1.6,0.066,3.15,0.2,4.65l0.2,1.4c0.867-2.2,1.816-8.467,2.85-18.8
		c1.1-11.033,2.517-19.383,4.25-25.05c-0.133,4.833-0.467,21.566-1,50.2c-0.333,17.767-0.817,34.4-1.45,49.9l-0.1,1.8
		c-0.4-2.7-1.316-10.417-2.75-23.15c-1.3-11.166-2.433-19.583-3.4-25.25L9.6,80.6c-0.333,4.167-0.867,18.833-1.6,44
		c-0.433,14.233-1.7,20.934-3.8,20.101l-0.7,0.35c0.167,1.101,1.017,1.767,2.55,2c1.167,0.167,3.967,0.167,8.4,0
		c-0.6,0.167-1.55,0.3-2.85,0.4c-1.367,0.066-2.25,0.149-2.65,0.25c-0.667,0.467-1.367,0.916-2.1,1.35
		C5.558,149.784,4.008,150.351,2.2,150.75z"/>
</g>
</svg>
