<?xml version="1.0" encoding="iso-8859-1"?>
<!-- Generator: Adobe Illustrator 15.1.0, SVG Export Plug-In . SVG Version: 6.00 Build 0)  -->
<!DOCTYPE svg PUBLIC "-//W3C//DTD SVG 1.1//EN" "http://www.w3.org/Graphics/SVG/1.1/DTD/svg11.dtd">
<svg version="1.1" id="Layer_1" xmlns="http://www.w3.org/2000/svg" xmlns:xlink="http://www.w3.org/1999/xlink" x="0px" y="0px"
	 width="177.2px" height="66.8px" viewBox="0 0 177.2 66.8" style="enable-background:new 0 0 177.2 66.8;" xml:space="preserve">
<g>
	<path style="fill-rule:evenodd;clip-rule:evenodd;fill:#514B44;" d="M92.55,24.8c1.367-0.1,3.367-0.283,6-0.55
		c0.634-0.067,1.334-0.15,2.101-0.25h0.05l0.1,0.05h0.05c1.467,0.133,3.284,0.15,5.45,0.05c0.9,0.033,2.334,0.05,4.3,0.05
		c1.733,0.067,3.117,0.35,4.15,0.85c0.5,0.233,0.767,0.4,0.8,0.5s-0.166,0.283-0.6,0.55c-0.4,0.233-0.967,0.483-1.7,0.75
		c-0.9,0.3-1.483,0.517-1.75,0.65c0.934,0.167,2.233,0.167,3.9,0c0.899-0.1,2.199-0.25,3.899-0.45c0.767-0.067,1.917-0.15,3.45-0.25
		c1.366-0.1,2.517-0.25,3.45-0.45c0.033-0.433,0.05-0.733,0.05-0.9c4.866-0.733,7.833-1.167,8.9-1.3c3.3-0.367,5.75-0.25,7.35,0.35
		c0.434,0.167,0.7,0.383,0.8,0.65c0.167,0.4,0.334,0.667,0.5,0.8l1.2,0.05c1.566,0,3.4-0.117,5.5-0.35
		c2.333-0.233,5.75-0.817,10.25-1.75l1.6-0.4c0.101,0.033,0.184,0.05,0.25,0.05h0.051c0.1,0.033,0.216,0.067,0.35,0.1
		c0.233,0.033,0.517,0.083,0.85,0.15h0.051c0.199,0.033,0.399,0.05,0.6,0.05c0.333,0,0.667-0.033,1-0.1c0.1,0,0.2-0.017,0.3-0.05
		c0.033,0,0.066,0.017,0.101,0.05c0.199,0.1,0.449,0.167,0.75,0.2c-0.101,0-0.2,0.017-0.301,0.05h-0.25
		c-0.666,0.1-1.25,0.2-1.75,0.3c-0.399,0.133-0.783,0.267-1.149,0.4c-1.4,0.4-2.5,0.684-3.3,0.85c-0.4,0.1-1.384,0.25-2.95,0.45
		c-1.233,0.167-2.217,0.367-2.95,0.6c-0.4,0.133-0.95,0.383-1.65,0.75c-0.333,0.2-0.633,0.35-0.899,0.45
		c-0.2-0.267-0.533-0.467-1-0.6l-2.25,1.35c0,0.033,0.017,0.067,0.05,0.1c-0.233,0.033-0.483,0.066-0.75,0.1
		c-1.866,0.233-2.95,0.383-3.25,0.45c-0.667,0.1-1.7,0.367-3.1,0.8c-1.301,0.367-2.334,0.6-3.101,0.7
		c-2.066,0.267-3.8,0.567-5.2,0.9L131.9,31.8c-0.167,0.034-0.317,0.067-0.45,0.1c-0.066,0.033-0.15,0.067-0.25,0.1
		c-0.04,0-0.09,0-0.15,0c-0.8,0.1-1.434,0.2-1.899,0.3c5.066-1.333,9.466-2.816,13.199-4.45c-0.199-0.333-0.55-0.517-1.05-0.55
		c-0.6,0.067-1.05,0.1-1.35,0.1c-1.167,0.133-2.05,0.217-2.65,0.25c-1.033,0.1-1.916,0.1-2.649,0
		c1.166-0.066,1.883-0.117,2.149-0.15c0.934-0.133,1.566-0.4,1.9-0.8c-0.9-0.034-2.134,0.117-3.7,0.45
		c-2.2,0.434-3.45,0.667-3.75,0.7c-1.066,0.066-1.866,0.133-2.4,0.2c-1,0.067-1.816,0.167-2.449,0.3c0.033,0.3,0.366,0.683,1,1.15
		c-0.233,0.3-0.5,0.483-0.801,0.55c-0.1,0.034-0.466,0.083-1.1,0.15c-1.634,0.2-4.083,0.4-7.35,0.6l-7.351,0.5
		c-1.8,0.133-2.8,0.184-3,0.15c5.434-0.8,8.834-1.35,10.2-1.65c1.1-0.267,1.767-0.466,2-0.6c-0.134-0.034-0.967,0.017-2.5,0.15
		c-4.3,0.4-7.517,0.667-9.65,0.8c-4.033,0.333-6.233,0.517-6.6,0.55c-2.6,0.133-4.816,0.1-6.65-0.1c0.4-0.2,1.017-0.367,1.851-0.5
		c0.5-0.067,1.166-0.167,2-0.3c0.767-0.133,2.017-0.35,3.75-0.65c1.5-0.3,2.717-0.683,3.649-1.15c-0.3-0.167-0.75-0.233-1.35-0.2
		c-0.667,0.1-1.134,0.15-1.4,0.15c0.367-0.034,1.5-0.317,3.4-0.85c0.3-0.067,0.833-0.184,1.6-0.35c0.667-0.167,1.167-0.383,1.5-0.65
		c-0.333-0.133-1.1-0.167-2.3-0.1c-3,0.133-5.283,0.3-6.85,0.5c-0.967,0.1-2.233,0.317-3.8,0.65c-1.867,0.4-3.15,0.65-3.851,0.75
		c-0.633,0.233-1.3,0.283-2,0.15l-1.899,0.2c-4.167,0.533-7.184,0.9-9.05,1.1c-1.7,0.2-3.184,0.566-4.45,1.1
		c-1.133,0.333-1.983,0.65-2.55,0.95c-1.067,0.533-1.417,1.184-1.05,1.95c-0.533,0.367-2.25,0.316-5.15-0.15
		c-0.167,0.267-0.35,0.433-0.55,0.5c-0.133,0.033-0.417,0.05-0.85,0.05c-2.133-0.033-4.683-0.183-7.65-0.45
		c-3.4-0.367-5.95-0.633-7.65-0.8c-6.667-0.733-11.733-1.35-15.2-1.85c-2.167-0.066-3.7,0.2-4.6,0.8c0.067,0.2,0.85,0.517,2.35,0.95
		c-3.9-0.4-7.867-0.95-11.9-1.65l0.15-0.15c0.067-0.067,0.067-0.184,0-0.35c-0.033-0.2-0.033-0.333,0-0.4
		c0.267-0.533,0.85-0.9,1.75-1.1L24,28.4c3.667-0.667,6.917-0.883,9.75-0.65c1.467,0.1,3.65,0.25,6.55,0.45
		c2.534,0.167,4.733,0.4,6.6,0.7c0.267,0.033,1.267,0.25,3,0.65c0.067,0.034,0.133,0.05,0.2,0.05l0.9,0.75
		c-0.067-0.167-0.15-0.367-0.25-0.6c0.833,0.167,1.533,0.233,2.1,0.2c0.6-0.034,1.1-0.117,1.5-0.25c0.267-0.1,0.717-0.317,1.35-0.65
		c0.167-0.1,0.45-0.183,0.85-0.25c0.067,0,2.067,0.133,6,0.4c2.534,0.2,3.833-0.184,3.9-1.15c-0.1-0.1-0.417-0.267-0.95-0.5
		c3.467,0.3,6.133,0.434,8,0.4c2.967-0.034,5.55-0.4,7.75-1.1c2.233-0.7,4.25-1.184,6.05-1.45l4.25-0.55c0.134,0,0.283,0,0.45,0
		h0.15C92.283,24.817,92.417,24.8,92.55,24.8z"/>
	<path style="fill-rule:evenodd;clip-rule:evenodd;fill:#B3AA9E;" d="M151.75,28.8c0-0.267-0.033-0.483-0.1-0.65
		c-0.034-0.133-0.101-0.267-0.2-0.4c0.267-0.1,0.566-0.25,0.899-0.45c0.7-0.367,1.25-0.617,1.65-0.75
		c0.733-0.233,1.717-0.433,2.95-0.6c1.566-0.2,2.55-0.35,2.95-0.45c0.8-0.167,1.899-0.45,3.3-0.85c0.2,0.033,0.416,0.067,0.649,0.1
		c0.567,0.1,1.117,0.1,1.65,0c1.4-0.233,3.467-0.583,6.2-1.05c0.399-0.067,1.366-0.117,2.899-0.15c1.034-0.033,1.9-0.117,2.601-0.25
		c-1.3,0.3-2.283,0.534-2.95,0.7c-1.333,0.333-2.434,0.55-3.3,0.65c-0.467,0.067-1.566,0.15-3.3,0.25
		c-1.334,0.1-2.434,0.25-3.301,0.45c-1.966,0.633-3.449,1.066-4.449,1.3c-0.367,0.067-1.351,0.217-2.95,0.45
		c-1.233,0.167-2.217,0.367-2.95,0.6c-0.4,0.133-0.95,0.4-1.65,0.8C152.116,28.6,151.917,28.7,151.75,28.8z M148.4,29.1
		c-0.667,0.233-1.067,0.417-1.2,0.55c0.399,0.733,0.633,1.6,0.7,2.6c0.033,0.2,0.05,0.667,0.05,1.4c-0.134,1.133-0.3,2.484-0.5,4.05
		c-0.167,1.366-0.334,4.483-0.5,9.35c0,0.9-0.066,1.517-0.2,1.851c-0.134-1.167-0.467-2.817-1-4.95c-0.566-2.233-0.917-3.9-1.05-5
		c-0.167-1.4-0.25-4.25-0.25-8.55c-0.066,0-0.134,0-0.2,0c-0.667,0.1-1.7,0.383-3.1,0.85c-1.301,0.4-2.334,0.65-3.101,0.75
		c-3.133,0.433-5.5,0.933-7.1,1.5c-0.967,0.433-1.834,0.816-2.601,1.15c0-0.5,0-0.95,0-1.351c0-0.066,0-0.133,0-0.2
		c0.767-0.3,1.634-0.65,2.601-1.05c0.095-0.032,0.179-0.048,0.25-0.05c0.1-0.033,0.184-0.067,0.25-0.1
		c0.133-0.033,0.283-0.066,0.45-0.1l0.949-0.25c1.4-0.333,3.134-0.633,5.2-0.9c0.767-0.1,1.8-0.333,3.101-0.7
		c1.399-0.434,2.433-0.7,3.1-0.8c0.3-0.066,1.384-0.217,3.25-0.45c0.267-0.034,0.517-0.067,0.75-0.1
		C148.316,28.733,148.366,28.9,148.4,29.1z M125.2,37.2c0,0.166,0.017,0.316,0.05,0.45c0,0.633,0,1.3,0,2
		c0.033,3.733,0,6.883-0.1,9.449c-0.067,2.101-0.301,5.051-0.7,8.851c-0.434,4.1-0.7,7.05-0.8,8.85
		c-0.267-0.467-0.45-1.333-0.551-2.6c-0.066-1.3-0.116-2.134-0.149-2.5c-0.233-2-0.617-4.367-1.15-7.101
		c-0.666-3.1-1.166-5.433-1.5-7c-0.434-2.199-0.899-5.3-1.399-9.3c0-0.399-0.034-0.767-0.101-1.1
		c-0.166-0.033-0.333-0.066-0.5-0.101c-0.1,0-0.217-0.017-0.35-0.05c-0.101,0.2-0.184,0.434-0.25,0.7c-0.233,0.7-0.5,1.2-0.8,1.5
		c-0.367-0.467-0.551-1.05-0.551-1.75c-0.666,0.033-1.033,1.15-1.1,3.35c0,1.167,0.033,2.567,0.1,4.2
		c-0.133,1.767-0.666,5.417-1.6,10.95c-0.566,3.3-0.917,6.134-1.05,8.5c0.066-2.767,0.083-6,0.05-9.7
		c-0.066-5.366-0.1-9.399-0.1-12.1c-0.034-0.934-0.034-1.634,0-2.101c0-0.8,0.1-1.5,0.3-2.1c0.2-0.7,0.467-1.283,0.8-1.75
		c-0.8-0.066-1.684-0.134-2.65-0.2c-1.833,0-3.483-0.033-4.949-0.1c0,0.467,0,0.983,0,1.55c-0.034,1.066-0.134,1.983-0.301,2.75
		c-0.267,1.366-0.75,3.366-1.449,6c-0.534,2.167-0.801,4.1-0.801,5.8c-0.166-6.833-0.25-11.95-0.25-15.35l0.301-0.851
		c-1.134-0.066-2.101-0.133-2.9-0.199c-4.667-0.4-8.7-0.584-12.1-0.551c-1.167,0.034-2.617,0.15-4.351,0.351
		c-1.933,0.233-3.383,0.399-4.35,0.5c-2.3,0.2-3.934,0.35-4.9,0.45c0.3-0.634,0.65-1.2,1.05-1.7c1.2-0.066,2.483-0.167,3.85-0.3
		c0.5-0.034,1.95-0.167,4.35-0.4c1.767-0.167,3.217-0.267,4.351-0.3c4.267,0,8.3,0.166,12.1,0.5c2.3,0.166,5.75,0.25,10.35,0.25
		l3.65,0.149c1.434,0.067,2.616,0.167,3.55,0.301c1.867,0.233,4-0.067,6.4-0.9c0.066-0.033,0.149-0.066,0.25-0.1
		C124.917,35.2,125,36.134,125.2,37.2z M70.5,37.05c0.233-0.566,0.517-1,0.85-1.3c0.133-0.134,0.283-0.25,0.45-0.35
		c0.8,0,1.684-0.034,2.65-0.101l-0.3,0.15c-0.2,0.2-0.3,0.533-0.3,1c0,0.233,0.017,0.533,0.05,0.899
		c-0.633,1.367-1.467,2.767-2.5,4.2c-0.033-0.7-0.2-1.666-0.5-2.899c-0.133-0.601-0.25-1.134-0.35-1.601H70.5z M37.65,34.55
		c0.067-0.066,0.133-0.133,0.2-0.2c0.233-0.233,0.633-0.55,1.2-0.95c0.133-0.133,0.233-0.25,0.3-0.35
		c0.633,0.034,1.583,0.133,2.85,0.3c1.333,0.2,2.35,0.3,3.05,0.3c1.2,0.067,2.933,0.117,5.2,0.15c2,0.067,3.716,0.25,5.15,0.55
		c1.8,0.4,4.017,0.667,6.65,0.801c1.233,0.066,2.967,0.133,5.2,0.199c-0.3,0.534-0.45,1.367-0.45,2.5c0,0.7,0.033,1.667,0.1,2.9
		v6.85c-0.133,1.434-0.267,3.217-0.4,5.351c-0.3,3.2-0.817,5.733-1.55,7.6c-0.267-1.666-0.367-3.934-0.3-6.8
		c0-0.833-0.117-2.4-0.35-4.7c-0.233-2-0.3-3.566-0.2-4.7c0.167-1.699,0.25-4.183,0.25-7.449c-0.9-0.034-1.667-0.067-2.3-0.101
		c-2.633-0.133-4.85-0.416-6.65-0.85c-1.467-0.367-3.184-0.566-5.15-0.601c-2.267,0-4-0.017-5.2-0.05c-0.7,0-1.717-0.1-3.05-0.3
		c-1.4-0.2-2.417-0.316-3.05-0.35C38.65,34.616,38.15,34.583,37.65,34.55z M13,29.15c2.167,0.533,4.033,0.95,5.6,1.25l1.55,0.3
		c4.3,0.767,8.85,1.383,13.65,1.85c0,0.733-0.1,1.783-0.3,3.15c0,1.2,0.033,2.217,0.1,3.05c-0.2,0.467-0.434,1-0.7,1.6
		c-0.367,1.534-0.566,2.317-0.6,2.351c-0.1-1.5-0.183-2.617-0.25-3.351c0.034-1.033,0.05-1.866,0.05-2.5
		c-0.033-1.233-0.25-2-0.65-2.3L30.55,35c-0.033-0.434-0.117-0.8-0.25-1.1c-4.133-0.5-8.033-1.1-11.7-1.8
		c-2.4-0.467-5.517-1.217-9.35-2.25c-4.467-1.233-7.467-2.033-9-2.4c1.267,0.267,2.95,0.4,5.05,0.4
		c0.467,0.033,1.784,0.333,3.95,0.9C10.783,29.117,12.033,29.25,13,29.15z M46.75,26.4c-1.9-0.066-3.267-0.167-4.1-0.3
		c-1.3-0.167-2.6-0.283-3.9-0.35c0.067-0.033,0.133-0.083,0.2-0.15c0.3-0.133,0.65-0.167,1.05-0.1c0.5,0.033,0.85,0.033,1.05,0
		c0.333-0.067,0.55-0.2,0.65-0.4c0.066-0.1,0.183-0.333,0.35-0.7c0.2-0.3,0.617-0.566,1.25-0.8c0.6-0.233,1-0.517,1.2-0.85
		c0.167-0.233,0.283-0.633,0.35-1.2c0.066-0.566,0.117-0.966,0.15-1.2L45.8,15c0.3-1.5,0.517-2.617,0.65-3.35
		c0.167-1.133,0.267-2.15,0.3-3.05V26.4z M57.55,28c-0.033-2.333,0.017-4.3,0.15-5.9c0.133-1.233,0.583-3.583,1.35-7.05
		c0.633-2.733,0.967-4.983,1-6.75c0,0.934,0,1.85,0,2.75c0,0.034,0,0.067,0,0.1c-0.333,3.067-0.5,5.8-0.5,8.2v4.75
		c0.034,0.9,0.217,1.767,0.55,2.6c0.033,0.1,0.066,0.183,0.1,0.25c-0.434,0.2-0.767,0.35-1,0.45l-1.1,0.4
		C57.9,27.867,57.717,27.933,57.55,28z M53.8,28.5c-0.267-0.067-0.483-0.133-0.65-0.2l-0.05-0.05c-0.434-0.267-0.85-0.517-1.25-0.75
		c-0.6-0.333-1.333-0.583-2.2-0.75c-0.167-0.433-0.333-0.833-0.5-1.2c0-0.9,0.184-1.417,0.55-1.55c0.5-0.167,1.033,0.2,1.6,1.1
		C51.767,25.867,52.6,27,53.8,28.5z M98.55,24.25c-2.633,0.267-4.633,0.45-6,0.55c0.066-0.2,0.134-0.433,0.2-0.7
		c0.2-0.934,0.45-1.5,0.75-1.7c0.167-0.1,0.517-0.1,1.05,0c0.5,0.1,0.834,0.083,1-0.05c0.267-0.2,0.45-0.6,0.55-1.2
		c0.034-0.7,0.067-1.167,0.101-1.4c0.566-4.4,0.85-7.45,0.85-9.15c-0.033-1.667-0.066-2.917-0.1-3.75c0-1.5,0.116-2.767,0.35-3.8
		c-0.066,5.833,0.066,10.417,0.4,13.75L98.55,24.25z M109.7,23.15l-2.5,0.3c-0.334,0-0.7,0.033-1.101,0.1c-0.133,0-0.25,0-0.35,0
		h-0.1L105.3,23.6c-0.366,0-0.733,0.017-1.1,0.05c0.399-0.333,0.883-0.6,1.45-0.8c0.3-0.1,0.6-0.2,0.899-0.3
		c0.134-0.1,0.233-0.417,0.3-0.95c0.067-0.267,0.084-0.7,0.051-1.3c-0.034-0.566-0.034-1,0-1.3c0.633,0.433,1.449,1.617,2.449,3.55
		C109.45,22.75,109.566,22.95,109.7,23.15z M138.95,22.7c-0.334,0.033-0.684,0.066-1.05,0.1l-1.2,0.1
		c-0.5,0.033-1.033,0.083-1.601,0.15c0.034-0.133,0.084-0.283,0.15-0.45c0.3-0.867,0.616-2.5,0.95-4.9c0.5-3.1,0.75-7.05,0.75-11.85
		c0.133-2.567,0.217-4.517,0.25-5.85c0,0.9,0.083,2.133,0.25,3.7l0.75,9.15c0.1,0.967,0.267,2.4,0.5,4.3
		c0.2,1.7,0.283,3.133,0.25,4.3C138.95,22.05,138.95,22.467,138.95,22.7z M142.15,22.5c1.199-1.4,1.916-2.183,2.149-2.35
		c0.167,0.367,0.517,1.167,1.05,2.4c-0.066,0-0.133,0-0.199,0L142.3,22.5C142.267,22.5,142.217,22.5,142.15,22.5z M151.4,23.1
		c-0.567-0.067-1.2-0.133-1.9-0.2c0.2-0.533,0.366-1.183,0.5-1.95c0.134-1.9,0.283-3.133,0.45-3.7
		c0.166,1.067,0.416,2.683,0.75,4.85C151.267,22.3,151.333,22.633,151.4,23.1z M162.35,23.45H162.2c-0.267-0.067-0.533-0.1-0.8-0.1
		l-0.25-0.05c-0.101,0-0.2,0-0.301,0c0.134-0.367,0.184-0.883,0.15-1.55c-0.066-1.1-0.1-1.783-0.1-2.05
		c0.1-5.767,0.433-10.85,1-15.25c-0.134,3.333-0.2,5.75-0.2,7.25c0.033,2.733,0.267,5.083,0.7,7.05c0.366,1.733,0.566,3.35,0.6,4.85
		c-0.134-0.033-0.25-0.067-0.35-0.1H162.6C162.533,23.5,162.45,23.483,162.35,23.45z"/>
	<path style="fill-rule:evenodd;clip-rule:evenodd;fill:#45403A;" d="M176.05,22.35L176,22.4c-2,0.467-3.45,0.8-4.35,1l-0.7,0.1
		c-0.367,0.067-1.351,0.167-2.95,0.3c-0.5,0.034-0.917,0.067-1.25,0.1h-0.1c-0.301-0.033-0.551-0.1-0.75-0.2
		c-0.034-0.034-0.067-0.05-0.101-0.05c1.4-0.233,3.367-0.566,5.9-1h0.05c0.033,0,0.066,0,0.1,0h0.051l0.449-0.05
		c0.934-0.133,2.167-0.233,3.7-0.3V22.35z M148.4,29.1c0.1-0.067,0.199-0.117,0.3-0.15h1.3c-0.2,0.066-0.35,0.3-0.45,0.7
		c-0.1,0.367-0.149,0.9-0.149,1.6c-0.034,0.867-0.017,1.9,0.05,3.1c-0.066,0.667-0.101,1.75-0.101,3.25
		c-0.133,1.367-0.517,2.384-1.149,3.051c-0.167-0.134-0.283-0.417-0.351-0.851c-0.066-0.434-0.083-1-0.05-1.7
		c0.101-1.6,0.15-2.6,0.15-3c0-0.566,0-1.05,0-1.45c0-0.733-0.017-1.2-0.05-1.4c-0.067-1-0.301-1.867-0.7-2.6
		C147.333,29.517,147.733,29.333,148.4,29.1z M125.25,37.65c-0.033-0.134-0.05-0.284-0.05-0.45c-0.033-0.2-0.05-0.434-0.05-0.7
		c0.033-1,0.05-1.733,0.05-2.2c0-0.133,0-0.25,0-0.35l0.75,0.7c0.566-0.2,0.916,0,1.05,0.6c0.1,0.333,0.116,0.816,0.05,1.45
		c-0.166,1.633-0.633,2.25-1.399,1.85c-0.101-0.066-0.184-0.2-0.25-0.399C125.333,38.017,125.283,37.85,125.25,37.65z M20.15,30.7
		l-1.55-0.3c-1.567-0.3-3.434-0.717-5.6-1.25c-1.167-0.3-2.417-0.633-3.75-1C4.483,26.883,1.4,26.083,0,25.75
		c1.267,0.267,3.033,0.45,5.3,0.55c0.5,0.067,1.817,0.35,3.95,0.85c1.633,0.4,2.933,0.533,3.9,0.4
		c0.333-0.033,0.917-0.216,1.75-0.55c0.633-0.267,1.267-0.367,1.9-0.3c1.934,0.167,4.784,0.117,8.55-0.15
		c0.3-0.033,1.383-0.05,3.25-0.05c1.3-0.033,2.383-0.133,3.25-0.3c1.5-0.267,2.6-0.417,3.3-0.45c1.2-0.033,2.4-0.033,3.6,0
		c1.3,0.067,2.6,0.183,3.9,0.35c0.833,0.133,2.2,0.233,4.1,0.3c0.1,0,0.183,0,0.25,0c0-0.5,0-1.15,0-1.95
		c-0.033-1.133-0.067-2-0.1-2.6c-0.033-1.067,0.017-1.9,0.15-2.5c0.267,0.5,0.517,1.383,0.75,2.65c0.3,0.9,0.75,2.083,1.35,3.55
		c0.167,0.367,0.333,0.767,0.5,1.2c0.867,0.167,1.6,0.417,2.2,0.75c0.4,0.233,0.816,0.483,1.25,0.75l0.05,0.05
		c0.167,0.067,0.383,0.133,0.65,0.2c0.133,0.033,0.3,0.067,0.5,0.1h0.15c0.3,0.033,1-0.083,2.1-0.35l0.45-0.1
		c0.1-0.033,0.2-0.066,0.3-0.1c0.067-0.033,0.15-0.05,0.25-0.05c0.167-0.067,0.35-0.133,0.55-0.2l1.1-0.4
		c0.233-0.1,0.566-0.25,1-0.45c-0.034-0.067-0.067-0.15-0.1-0.25c-0.333-0.833-0.517-1.7-0.55-2.6v-4.75c0-2.4,0.167-5.133,0.5-8.2
		c0-0.033,0-0.066,0-0.1c0.133-1.066,0.467-3.75,1-8.05c-0.033,0.4,0.034,1.3,0.2,2.7c0.1,0.9,0.2,2.233,0.3,4
		c0.1,1.566,0.25,2.9,0.45,4l1.8,9.25c0.333,1.6,0.5,2.517,0.5,2.75c0,0.1,0.017,0.183,0.05,0.25c0.467,0,0.983,0.033,1.55,0.1
		c0.767,0.067,1.883,0.184,3.35,0.35l5.95,0.25c0.6,0,1.2-0.083,1.8-0.25c0.333-0.133,0.9-0.333,1.7-0.6
		c1.633-0.433,3.683-0.716,6.15-0.85c1.433-0.034,3.534-0.067,6.3-0.1h0.399L87.3,25.4c-1.8,0.267-3.816,0.75-6.05,1.45
		c-2.2,0.7-4.783,1.066-7.75,1.1c-1.867,0.033-4.533-0.1-8-0.4c0.533,0.233,0.85,0.4,0.95,0.5c-0.067,0.967-1.367,1.35-3.9,1.15
		c-3.933-0.267-5.933-0.4-6-0.4c-0.4,0.067-0.683,0.15-0.85,0.25c-0.633,0.333-1.083,0.55-1.35,0.65c-0.4,0.133-0.9,0.216-1.5,0.25
		c-0.567,0.033-1.267-0.034-2.1-0.2c0.1,0.233,0.183,0.433,0.25,0.6l-0.9-0.75c-0.067,0-0.133-0.017-0.2-0.05
		c-1.733-0.4-2.733-0.617-3-0.65c-1.867-0.3-4.066-0.533-6.6-0.7c-2.9-0.2-5.083-0.35-6.55-0.45c-2.833-0.233-6.083-0.017-9.75,0.65
		l-1.5,0.35c-0.9,0.2-1.483,0.567-1.75,1.1c-0.033,0.066-0.033,0.2,0,0.4c0.067,0.167,0.067,0.283,0,0.35l-0.15,0.15L20.15,30.7z
		 M151.4,23.1c1.633,0.133,2.767,0.217,3.399,0.25h0.05c0.034,0,0.067,0,0.101,0c0.434,0.033,1.666,0,3.7-0.1
		c0.066,0,0.116,0,0.149,0l1.75,0.05c0.101,0,0.2,0,0.3,0c0.101,0,0.2,0,0.301,0l0.25,0.05c0.267,0,0.533,0.033,0.8,0.1h0.149
		l-1.6,0.4c-4.5,0.933-7.917,1.517-10.25,1.75c-2.1,0.233-3.934,0.35-5.5,0.35l-1.2-0.05c-0.166-0.133-0.333-0.4-0.5-0.8
		c-0.1-0.267-0.366-0.483-0.8-0.65c-1.6-0.6-4.05-0.717-7.35-0.35c-1.067,0.133-4.034,0.566-8.9,1.3c0,0.167-0.017,0.467-0.05,0.9
		c-0.934,0.2-2.084,0.35-3.45,0.45c-1.533,0.1-2.684,0.183-3.45,0.25c-1.7,0.2-3,0.35-3.899,0.45c-1.667,0.167-2.967,0.167-3.9,0
		c0.267-0.133,0.85-0.35,1.75-0.65c0.733-0.267,1.3-0.517,1.7-0.75c0.434-0.267,0.633-0.45,0.6-0.55s-0.3-0.267-0.8-0.5
		c-1.033-0.5-2.417-0.783-4.15-0.85c-1.966,0-3.399-0.017-4.3-0.05c-2.166,0.1-3.983,0.083-5.45-0.05
		c-0.066-0.033-0.116-0.05-0.149-0.05c1.2-0.133,2.366-0.25,3.5-0.35c0.366-0.033,0.733-0.05,1.1-0.05l0.351-0.05h0.1
		c0.1,0,0.217,0,0.35,0c0.4-0.066,0.767-0.1,1.101-0.1l2.5-0.3l4.95-0.45c0.199-0.034,0.416-0.05,0.649-0.05c0.066,0,0.134,0,0.2,0
		c2.5-0.133,4.667-0.167,6.5-0.1l3.1,0.25c0.034,0,0.067,0,0.101,0c3.733,0.467,6.7,0.583,8.899,0.35c0.334-0.033,0.667-0.066,1-0.1
		c0.567-0.066,1.101-0.117,1.601-0.15l1.2-0.1c0.366-0.033,0.716-0.066,1.05-0.1c0.566-0.034,1.083-0.067,1.55-0.1l1.6-0.1h0.051
		c0.066,0,0.116,0,0.149,0l2.851,0.05c0.066,0,0.133,0,0.199,0c0.233,0,0.467,0.017,0.7,0.05l2.3,0.2c0.101,0,0.2,0,0.301,0
		l0.399,0.05c0.134,0,0.283,0.017,0.45,0.05C150.2,22.967,150.833,23.033,151.4,23.1z M68.85,35.95
		c0.167,0.267,0.283,0.616,0.35,1.05c0,0.267,0,0.55,0,0.85c0,0.5-0.034,1.184-0.1,2.051c0,2.633-0.017,4.1-0.05,4.399
		c-0.267,2.334-0.5,4.084-0.7,5.25c-0.3-0.967-0.434-2.3-0.4-4c0-0.899,0.017-1.649,0.05-2.25c-0.033-0.866-0.067-1.467-0.1-1.8
		c-0.1-0.7-0.117-1.483-0.05-2.35c0.233-1,0.316-1.75,0.25-2.25L68.85,35.95z M34.75,35.5c0.033-0.434,0.117-0.816,0.25-1.15
		c0.2-0.633,0.533-1.066,1-1.3l1.5,0.7c-0.267,0.233-0.483,0.483-0.65,0.75c-0.1,0.134-0.184,0.267-0.25,0.4
		c-0.033,0.033-0.233,0.5-0.6,1.399c-0.067,0.2-0.217,0.634-0.45,1.3c-0.233,0.567-0.483,0.884-0.75,0.95
		C34.633,37.45,34.617,36.434,34.75,35.5z"/>
	<path style="fill-rule:evenodd;clip-rule:evenodd;fill:#635B52;" d="M171.65,23.4c0.899-0.2,2.35-0.533,4.35-1l0.05-0.05
		c0.434-0.067,0.816-0.133,1.15-0.2C174.866,22.75,173.017,23.167,171.65,23.4z M151.45,27.75c0.1,0.133,0.166,0.267,0.2,0.4
		c0.066,0.167,0.1,0.383,0.1,0.65c0,0.3-0.033,0.667-0.1,1.1c-0.101,0.633-0.267,2.15-0.5,4.55c-0.267,2.666-0.75,6.1-1.45,10.3
		c-1,5.7-1.584,9.134-1.75,10.3c0.066-1.533,0.083-3.434,0.05-5.7c-0.033-2.566-0.05-4.483-0.05-5.75
		c-0.033-1.233-0.066-2.149-0.101-2.75c0-0.399,0-0.75,0-1.05c0.067,0.434,0.184,0.717,0.351,0.851
		c0.633-0.667,1.017-1.684,1.149-3.051c0-1.5,0.034-2.583,0.101-3.25c-0.066-1.2-0.084-2.233-0.05-3.1c0-0.7,0.05-1.233,0.149-1.6
		c0.101-0.4,0.25-0.633,0.45-0.7h-1.3c-0.101,0.033-0.2,0.083-0.3,0.15c-0.034-0.2-0.084-0.367-0.15-0.5
		c-0.033-0.033-0.05-0.067-0.05-0.1l2.25-1.35C150.917,27.283,151.25,27.483,151.45,27.75z M73.9,37.35
		c-0.033-0.366-0.05-0.666-0.05-0.899c0-0.467,0.1-0.8,0.3-1l0.3-0.15C73.483,35.366,72.6,35.4,71.8,35.4
		c-0.167,0.1-0.316,0.216-0.45,0.35c-0.333,0.3-0.617,0.733-0.85,1.3c-0.167,0.367-0.317,0.783-0.45,1.25
		c-0.267,0.967-0.417,1.95-0.45,2.95c-0.033,1.8-0.033,4.55,0,8.25c-0.033,1.134-0.283,2.65-0.75,4.55
		c-0.067,0.367-0.217,1.017-0.45,1.95c-0.2,0.833-0.45,1.417-0.75,1.75c-0.367-2.167-0.55-5.55-0.55-10.15v-6.85
		c-0.067-1.233-0.1-2.2-0.1-2.9c0-1.133,0.15-1.966,0.45-2.5c-2.233-0.066-3.967-0.133-5.2-0.199c-2.633-0.134-4.85-0.4-6.65-0.801
		c-1.434-0.3-3.15-0.483-5.15-0.55c-2.267-0.033-4-0.083-5.2-0.15c-0.7,0-1.717-0.1-3.05-0.3c-1.267-0.167-2.217-0.267-2.85-0.3
		c-0.067,0.1-0.167,0.217-0.3,0.35c-0.566,0.4-0.966,0.716-1.2,0.95c-0.067,0.067-0.133,0.134-0.2,0.2
		c-0.8,0.867-1.367,2.033-1.7,3.5c-0.167,0.667-0.25,1.517-0.25,2.55c0,0.601,0.017,1.483,0.05,2.65v8.9
		c-0.333-0.601-0.567-1.517-0.7-2.75c-0.1-1.367-0.2-2.317-0.3-2.851l-1-6.55c-0.067-0.366-0.117-0.783-0.15-1.25
		c-0.067-0.833-0.1-1.85-0.1-3.05c0.2-1.367,0.3-2.417,0.3-3.15c-4.8-0.466-9.35-1.083-13.65-1.85l0.45,0.05
		c4.033,0.7,8,1.25,11.9,1.65c-1.5-0.433-2.283-0.75-2.35-0.95c0.9-0.6,2.434-0.867,4.6-0.8c3.467,0.5,8.533,1.117,15.2,1.85
		c1.7,0.167,4.25,0.433,7.65,0.8c2.967,0.267,5.517,0.417,7.65,0.45c0.433,0,0.717-0.017,0.85-0.05c0.2-0.067,0.383-0.233,0.55-0.5
		c2.9,0.466,4.617,0.517,5.15,0.15c-0.367-0.767-0.017-1.417,1.05-1.95c0.566-0.3,1.417-0.617,2.55-0.95
		c1.267-0.534,2.75-0.9,4.45-1.1c1.867-0.2,4.883-0.567,9.05-1.1l1.899-0.2c0.7,0.133,1.367,0.083,2-0.15
		c0.7-0.1,1.983-0.35,3.851-0.75c1.566-0.333,2.833-0.55,3.8-0.65c1.566-0.2,3.85-0.367,6.85-0.5c1.2-0.067,1.967-0.033,2.3,0.1
		c-0.333,0.267-0.833,0.483-1.5,0.65c-0.767,0.167-1.3,0.283-1.6,0.35c-1.9,0.533-3.033,0.816-3.4,0.85c0.267,0,0.733-0.05,1.4-0.15
		c0.6-0.033,1.05,0.034,1.35,0.2c-0.933,0.467-2.149,0.85-3.649,1.15c-1.733,0.3-2.983,0.517-3.75,0.65
		c-0.834,0.133-1.5,0.233-2,0.3c-0.834,0.133-1.45,0.3-1.851,0.5c1.834,0.2,4.051,0.233,6.65,0.1c0.366-0.034,2.566-0.217,6.6-0.55
		c2.134-0.133,5.351-0.4,9.65-0.8c1.533-0.133,2.366-0.184,2.5-0.15c-0.233,0.133-0.9,0.333-2,0.6c-1.366,0.3-4.767,0.85-10.2,1.65
		c0.2,0.033,1.2-0.017,3-0.15l7.351-0.5c3.267-0.2,5.716-0.4,7.35-0.6c0.634-0.067,1-0.117,1.1-0.15
		c0.301-0.066,0.567-0.25,0.801-0.55c-0.634-0.467-0.967-0.85-1-1.15c0.633-0.133,1.449-0.233,2.449-0.3
		c0.534-0.066,1.334-0.133,2.4-0.2c0.3-0.033,1.55-0.267,3.75-0.7c1.566-0.333,2.8-0.483,3.7-0.45c-0.334,0.4-0.967,0.667-1.9,0.8
		c-0.267,0.033-0.983,0.083-2.149,0.15c0.733,0.1,1.616,0.1,2.649,0c0.601-0.033,1.483-0.117,2.65-0.25c0.3,0,0.75-0.033,1.35-0.1
		c0.5,0.034,0.851,0.217,1.05,0.55c-3.733,1.633-8.133,3.117-13.199,4.45c0.466-0.1,1.1-0.2,1.899-0.3c0.061,0,0.11,0,0.15,0
		c-0.071,0.001-0.155,0.018-0.25,0.05c-0.967,0.4-1.834,0.75-2.601,1.05c0,0.066,0,0.133,0,0.2c0,0.4,0,0.851,0,1.351
		c-0.033,0.533-0.083,1.149-0.149,1.85c0,1.667-0.417,4.384-1.25,8.15c-0.566,2.533-0.9,4.649-1,6.35v-5.9c0-2-0.017-3.199-0.05-3.6
		c-0.034-0.366-0.2-1.483-0.5-3.35c0.066,0.199,0.149,0.333,0.25,0.399c0.767,0.4,1.233-0.217,1.399-1.85
		c0.066-0.634,0.05-1.117-0.05-1.45c-0.134-0.6-0.483-0.8-1.05-0.6l-0.75-0.7c0,0.1,0,0.217,0,0.35c0,0.467-0.017,1.2-0.05,2.2
		c0,0.267,0.017,0.5,0.05,0.7c-0.2-1.066-0.283-2-0.25-2.8c-0.101,0.033-0.184,0.066-0.25,0.1c-2.4,0.833-4.533,1.134-6.4,0.9
		c-0.934-0.134-2.116-0.233-3.55-0.301l-3.65-0.149c-4.6,0-8.05-0.084-10.35-0.25c-3.8-0.334-7.833-0.5-12.1-0.5
		c-1.134,0.033-2.583,0.133-4.351,0.3c-2.4,0.233-3.85,0.366-4.35,0.4c-1.367,0.133-2.65,0.233-3.85,0.3
		c-0.4,0.5-0.75,1.066-1.05,1.7c-0.733,1.466-1.133,2.916-1.2,4.35l0.05-3.7C73.9,37.483,73.9,37.417,73.9,37.35z M68.85,35.95
		L68.1,36.9c0.066,0.5-0.017,1.25-0.25,2.25c-0.067,0.866-0.05,1.649,0.05,2.35c0.033,0.333,0.067,0.934,0.1,1.8
		c-0.033,0.601-0.05,1.351-0.05,2.25c-0.034,1.7,0.1,3.033,0.4,4c0.2-1.166,0.433-2.916,0.7-5.25c0.034-0.3,0.05-1.767,0.05-4.399
		c0.066-0.867,0.1-1.551,0.1-2.051c0-0.3,0-0.583,0-0.85C69.133,36.566,69.017,36.217,68.85,35.95z M34.75,35.5
		c-0.133,0.934-0.117,1.95,0.05,3.05c0.267-0.066,0.517-0.383,0.75-0.95c0.233-0.666,0.383-1.1,0.45-1.3
		c0.367-0.899,0.567-1.366,0.6-1.399c0.066-0.134,0.15-0.267,0.25-0.4c0.167-0.267,0.383-0.517,0.65-0.75l-1.5-0.7
		c-0.467,0.233-0.8,0.667-1,1.3C34.867,34.684,34.783,35.066,34.75,35.5z"/>
</g>
</svg>
