<?xml version="1.0" encoding="iso-8859-1"?>
<!-- Generator: Adobe Illustrator 15.1.0, SVG Export Plug-In . SVG Version: 6.00 Build 0)  -->
<!DOCTYPE svg PUBLIC "-//W3C//DTD SVG 1.1//EN" "http://www.w3.org/Graphics/SVG/1.1/DTD/svg11.dtd">
<svg version="1.1" id="Layer_1" xmlns="http://www.w3.org/2000/svg" xmlns:xlink="http://www.w3.org/1999/xlink" x="0px" y="0px"
	 width="117.4px" height="99.7px" viewBox="0 0 117.4 99.7" style="enable-background:new 0 0 117.4 99.7;" xml:space="preserve">
<g>
	<path style="fill-rule:evenodd;clip-rule:evenodd;fill:#9B9286;" d="M97.35,41.4c-0.1-0.333-0.583-1.333-1.449-3
		c-0.834-1.566-1.351-2.467-1.551-2.7c0-0.434-0.166-0.833-0.5-1.2c0.334,0.233,0.667,0.517,1,0.85
		C96.517,37.017,97.35,39.033,97.35,41.4z M102.3,62.5c-1.399-0.767-2.717-0.9-3.95-0.4c-0.033-0.466,0.017-0.8,0.15-1
		c0-0.033,0.134-0.149,0.4-0.35c-0.467-0.467-0.75-0.9-0.851-1.3v-0.4c0.167,0.134,0.917,0.417,2.25,0.851
		c1.3,0.433,2.283,0.883,2.95,1.35l0.05,0.15l0.15,1.05L102.3,62.5z M103.6,62.45l-0.05-0.7l0.3,0.65L103.6,62.45z M55.5,16.9
		c-1.333,4.8-2.3,7.967-2.9,9.5c-1.667,4.467-3.434,7.233-5.3,8.3c-0.133-3.833-0.267-7.317-0.4-10.45
		c-0.267-6.167-0.6-9.867-1-11.1l-0.45-1.1c0-0.066,0.05-0.117,0.15-0.15c0.2-0.133,0.5-0.2,0.9-0.2c1,0,1.7,0.267,2.1,0.8
		c0.033,0.067,0.3,0.667,0.8,1.8C50.133,16.067,52.167,16.933,55.5,16.9z M69.05,36.8C67.35,48.633,66.5,57,66.5,61.9
		c0,2.833,0.017,7.449,0.05,13.85C65.85,75.917,64.366,76,62.1,76c0.667-25.033,1.017-38.833,1.051-41.4
		c0.3-14.6,0.333-26.067,0.1-34.4c2.6-0.1,4.733-0.1,6.4,0l0.149,2c0.134,1.566,0.25,2.517,0.351,2.85
		c-0.434,1.267-0.784,5.434-1.051,12.5C68.8,24.983,68.783,31.4,69.05,36.8z M78.25,48.4c-0.366-8.167-0.634-13.3-0.8-15.4
		c0.133,0.9,0.633,1.85,1.5,2.85c0.934,1.066,1.816,1.6,2.649,1.6c3.233,0,5.15-0.267,5.75-0.8c0.4-0.367,0.767-1.2,1.101-2.5
		c-1.134,7.733-1.983,11.967-2.55,12.7c-0.434,0.533-1.284,0.867-2.551,1C81.483,47.983,79.783,48.167,78.25,48.4z M88.25,66.35
		l-0.05,1.9c-1.101,0.467-2.533,0.95-4.3,1.45c-0.567,0.166-0.967,0.517-1.2,1.05l0.35,0.05c-0.733,0.334-1.184,0.733-1.35,1.2
		l-0.15,1c0.066,0.533,0.15,0.917,0.25,1.15l-5.1,0.199c0-1.699,0.633-4.149,1.899-7.35c1.233-3.2,1.851-5.7,1.851-7.5
		c0-0.934-0.55-3.45-1.65-7.55c0.934-0.267,2.033-0.5,3.3-0.7c1.2-0.2,2.067-0.3,2.601-0.3l3.399,0.1l0.15,13.9
		c-0.233,0-0.434,0.066-0.6,0.2c-0.2,0.133-0.301,0.3-0.301,0.5c0,0.199,0.101,0.366,0.301,0.5
		C87.816,66.283,88.017,66.35,88.25,66.35z M86.4,67.25L84.9,67c-2.334,0.5-3.801,0.917-4.4,1.25c-0.267,0.134-0.65,0.55-1.15,1.25
		c0.034,0.5,0.233,0.767,0.601,0.8C80.316,70.2,82.467,69.184,86.4,67.25z M55.85,43.9c0.267-5.3,0.833-9.75,1.7-13.35
		c0.8-3.433,1.233-5.566,1.3-6.4C58.717,26.95,57.717,33.533,55.85,43.9z M77.6,71.9c0,0.333,0.517,0.783,1.551,1.35l-1-2.25H77.8
		l-0.1,0.1C77.634,71.233,77.6,71.5,77.6,71.9z"/>
	<path style="fill-rule:evenodd;clip-rule:evenodd;fill:#7C7367;" d="M68.4,76.95c-0.034,0.066-0.134,0.166-0.301,0.3
		c-0.1,0.134-0.149,0.417-0.149,0.85c0,0.567,0.533,1,1.6,1.301c0.867,0.233,1.867,0.35,3,0.35c0.334,0,0.634-0.134,0.9-0.4
		c0.166-0.166,0.45-0.6,0.85-1.3V75.8c-2.3,0.167-3.566,0.267-3.8,0.3c2.5-1.066,3.684-1.6,3.55-1.6l0.55-19.45
		c0-2.267-0.267-3.934-0.8-5c-0.533-1.1-0.816-2.35-0.85-3.75V35.85c0.2-5.1,0.3-9.5,0.3-13.2c0.033-6.967-0.384-11.867-1.25-14.7
		l-0.45-0.8c-0.633-0.867-1.1-1.566-1.399-2.1C70.05,4.717,69.934,3.767,69.8,2.2l-0.149-2L69.6,0c1.334,0.133,2.284,0.3,2.851,0.5
		c1.133,0.967,1.934,3.167,2.399,6.6c0.233,1.7,0.5,5.15,0.801,10.35l0.75,11.7l-0.2,5.6c0,0.667,0.149,5.317,0.45,13.95l1.6-0.3
		c1.533-0.233,3.233-0.417,5.1-0.55c1.267-0.133,2.117-0.467,2.551-1c0.566-0.733,1.416-4.967,2.55-12.7
		c0.166-0.4,0.283-0.833,0.35-1.3L89.9,32.9c1.066,0.1,2.017,0.367,2.85,0.8c0.467,0.233,0.833,0.5,1.1,0.8
		c0.334,0.367,0.5,0.767,0.5,1.2l0.25,7.15c0,1.9-0.416,5.25-1.25,10.05c-0.833,4.767-1.25,8.333-1.25,10.699l-0.75,0.2
		c-0.566,0.533-0.416,0.55,0.45,0.05c0.134-0.066,0.233-0.116,0.3-0.149c0.301-0.134,0.301,0.066,0,0.6l0.101,1.65
		c-0.2,0.2-0.384,0.133-0.55-0.2c-0.267,0.167-0.5,0.5-0.7,1c-0.167,0.366-1.084,0.866-2.75,1.5l0.05-1.9
		c0.7-0.133,1.25-0.416,1.65-0.85l0.5-0.75c-1.167,0.066-1.884,0.134-2.15,0.2l-0.15-13.9l-3.399-0.1c-0.533,0-1.4,0.1-2.601,0.3
		c-1.267,0.2-2.366,0.434-3.3,0.7c-1.934,0.666-2.85,2.316-2.75,4.95c0.101,1.5,0.233,3.949,0.4,7.35
		c-0.3,2.267-0.566,5.65-0.8,10.15l1.05-0.051l5.1-0.199l0.05,0.149c0.5,0.033,2.351-0.05,5.551-0.25
		c3.1-0.166,5.083-0.217,5.949-0.149C88.384,74.733,84.9,75.2,82.9,75.3l1.649,0.8l0.55,0.25l-5.75-0.05
		c0.534,1.4,2.5,2.517,5.9,3.351c3.767,0.933,8.1,1.149,13,0.649l3.3,0.851c1.267,0.199,2.834,0.3,4.7,0.3
		c-2.333,0.934-3.5,2.916-3.5,5.95c0,1.933,1.85,3.699,5.55,5.3c4.601,2,7.634,4.017,9.101,6.05c-1.067,0.634-3.284,0.95-6.65,0.95
		c-0.866,0-3.15-0.167-6.85-0.5c-4-0.334-6.9-0.533-8.7-0.601c-2.3-0.066-5.95,0-10.95,0.2c-4.667,0.2-7.167,0.3-7.5,0.3
		c-9.866-0.1-15.967-0.383-18.3-0.85c-3.934-0.8-7.083-1.517-9.45-2.15c-1.367-0.366-3.617-1.017-6.75-1.949
		c1.467-0.367,2.6-0.983,3.4-1.851c0.5-0.566,2.333-0.85,5.5-0.85c8.067-1.3,12.667-2.283,13.8-2.95l0.2-0.4
		c-0.367-0.133-1.017-0.25-1.95-0.35c-0.934-0.134-1.65-0.2-2.15-0.2c-8.433,0.066-13.316,0.184-14.65,0.351L46.25,88
		c1.667,0.533,2.717,0.917,3.15,1.15l0.5,0.6c-1.467,0.066-5.367-0.033-11.7-0.3c-0.133,0.233-0.15,0.633-0.05,1.2
		c0.033,0.333,0.1,0.783,0.2,1.35c-1.533,0.1-2.267,0.167-2.2,0.2l-5.85-1.5l1.7,0.35c-2.4-1-5.217-1.899-8.45-2.7
		c-2.966-0.699-5.683-1.633-8.15-2.8l-0.15-0.5c2.1-0.866,4.533-1.283,7.3-1.25c1.567,0,3.95,0.066,7.15,0.2l-0.9,0.55
		c0.2,0.2,0.65,0.3,1.35,0.3c0.667,0,1-0.033,1-0.1c-0.233-0.134-0.5-0.25-0.8-0.35c-0.567-0.2-0.5-0.317,0.2-0.351
		c2.034-0.3,4.517-0.717,7.45-1.25c0.7-0.066,1.4-0.184,2.1-0.35C47.167,81.15,56.6,79.316,68.4,76.95z M6.05,86.6v-0.05l0.4,0.25
		L6.05,86.6z M94.15,83.25C93.884,83.65,93.7,84,93.6,84.3c0.2,0.733,1.217,1.134,3.051,1.2L94.15,83.25z M91.9,82.25
		c0-0.033-0.233-0.05-0.7-0.05s-0.767,0.017-0.9,0.05c0.467,0.233,1.25,0.316,2.351,0.25L91.9,82.25z M82.1,74.65l0.2,0.25
		l0.2,0.149C82.434,74.983,82.3,74.85,82.1,74.65z M87.1,85.35c0.667,0,1.267-0.033,1.801-0.1c-1.067-0.467-2.167-0.533-3.301-0.2
		c0.334,0.167,0.534,0.25,0.601,0.25C86.333,85.333,86.634,85.35,87.1,85.35z M81.3,89.85l0.4,0.25c4.767,0.834,7.7,1.317,8.8,1.45
		c1.7,0.167,4.6,0.25,8.7,0.25l4.2-0.05c0.033-0.233-0.051-0.566-0.25-1c-0.167-0.434-0.25-0.684-0.25-0.75
		c-2.233-0.267-5.917-0.467-11.051-0.6C85.75,89.366,82.233,89.517,81.3,89.85z M81.65,95c1.233-0.066,3.716,0.3,7.449,1.1
		c3.5,0.4,6.101-0.3,7.801-2.1c-0.767-0.134-1.301-0.25-1.601-0.35l-0.25-0.15H90.8c-1.833,0.033-3.517,0.15-5.05,0.35
		c-2.033,0.267-4,0.5-5.9,0.7l0.9,0.351L81.65,95z M97.3,88.05c0.367,0.033,1.233,0.017,2.601-0.05l-3.5-1l0.449,0.8L97.3,88.05z
		 M92.15,84.75c-1.733,0.2-2.667,0.35-2.801,0.45C89.75,85.533,90.684,85.384,92.15,84.75z M105.95,93.3
		c-0.334-0.1-0.733-0.149-1.2-0.149s-0.85,0.05-1.15,0.149c-0.333,0.101-0.5,0.217-0.5,0.351c0,0.133,0.167,0.25,0.5,0.35
		c0.301,0.1,0.684,0.15,1.15,0.15s0.866-0.051,1.2-0.15c0.3-0.1,0.45-0.217,0.45-0.35C106.4,93.517,106.25,93.4,105.95,93.3z
		 M102.2,95.45c-0.4,0-0.634,0.05-0.7,0.149c-0.066,0.067-0.15,0.2-0.25,0.4c0.8,0.467,2.35,0.634,4.65,0.5
		c-1.233-0.5-2.034-0.8-2.4-0.9C103.134,95.5,102.7,95.45,102.2,95.45z M50.8,37.55l-1.05-0.3c-0.767-0.367-1.317-0.683-1.65-0.95
		L47.85,36c-0.2-0.367-0.383-0.8-0.55-1.3c1.867-1.067,3.633-3.833,5.3-8.3c0.6-1.533,1.566-4.7,2.9-9.5
		c0.233,7.133,0.167,11.75-0.2,13.85c-0.066,0.433-0.716,2.033-1.95,4.8c-0.2,0.2-0.55,0.517-1.05,0.95
		c-0.466,0.467-0.917,0.833-1.35,1.1L50.8,37.55z M38.15,84.05c0.533,0.7,1.15,1.05,1.85,1.05c0.667,0,1.05-0.033,1.15-0.1l-1.25-1
		L38.15,84.05z M36.4,87.85c0.533,0.867,1.85,1.233,3.95,1.101c0.9,0,1.5-0.233,1.8-0.7c-1.667-1-2.833-1.5-3.5-1.5
		c-0.167,0-0.517,0.116-1.05,0.35C37.067,87.366,36.667,87.616,36.4,87.85z M51.45,84.05c0.4,0,0.617-0.033,0.65-0.1
		c-0.033-0.134-0.017-0.283,0.05-0.45c-0.233-0.1-0.55-0.083-0.95,0.05c-0.4,0.101-0.684,0.25-0.85,0.45L51.45,84.05z M56.05,84.45
		c0.934,0,1.6-0.117,2-0.351c0.367-0.166,0.65-0.533,0.851-1.1c-0.167,0-1.034,0.2-2.601,0.6c-1.533,0.367-2.433,0.601-2.7,0.7
		L56.05,84.45z M64.4,83.2c0-0.134-0.117-0.233-0.351-0.3c-0.267-0.101-0.566-0.15-0.899-0.15c-0.334,0-0.617,0.05-0.851,0.15
		c-0.267,0.066-0.399,0.166-0.399,0.3c0,0.133,0.133,0.25,0.399,0.35c0.233,0.066,0.517,0.101,0.851,0.101
		c0.333,0,0.633-0.034,0.899-0.101C64.283,83.45,64.4,83.333,64.4,83.2z M80.15,84.25c-1.567,0-2.717,0.167-3.45,0.5
		c-0.2,0.1-0.55,0.366-1.05,0.8c0.533,0.233,1.616,0.384,3.25,0.45c1.666,0.066,2.833-0.017,3.5-0.25
		C81.566,84.75,80.816,84.25,80.15,84.25z M65.35,93.55c0,0.434,0.334,0.816,1,1.15c0.634,0.3,1.4,0.45,2.301,0.45
		c0.899,0,1.683-0.15,2.35-0.45c0.634-0.334,0.95-0.717,0.95-1.15s-0.316-0.8-0.95-1.1c-0.667-0.334-1.45-0.5-2.35-0.5
		c-0.9,0-1.667,0.166-2.301,0.5C65.684,92.75,65.35,93.116,65.35,93.55z M76.2,92.05c-0.267,0.533-0.45,0.834-0.55,0.9
		c0.433,0.533,1.116,0.8,2.05,0.8c0.666,0,1.7-0.333,3.1-1c1.367-0.634,2.316-1.217,2.851-1.75C79.684,91.2,77.2,91.55,76.2,92.05z"
		/>
	<path style="fill-rule:evenodd;clip-rule:evenodd;fill:#635B52;" d="M98.05,59.05v0.4c0,0.166-0.133,0.35-0.399,0.55
		c-0.334,0.167-0.517,0.333-0.551,0.5c0.034,0.1,0.2,0.3,0.5,0.6C97.9,61.4,98.033,61.767,98,62.2c-0.434,0.166-1.467,0.8-3.1,1.899
		c-1.5,1-2.4,1.617-2.7,1.851L92.1,64.3c0.301-0.533,0.301-0.733,0-0.6V63.6c0-2.366,0.417-5.933,1.25-10.699
		c0.834-4.8,1.25-8.15,1.25-10.05l-0.25-7.15c0.2,0.233,0.717,1.133,1.551,2.7c0.866,1.667,1.35,2.667,1.449,3
		c0.101,3.833,0.051,8.667-0.149,14.5C97.2,57.2,97.483,58.25,98.05,59.05z M103.55,61.75l0.05,0.7h-0.149l-0.15-1.05l-0.05-0.15
		L103.55,61.75z M41.25,73.75c0.633,0.434,1.167,0.866,1.6,1.3c0.367,0.334,0.733,0.816,1.1,1.45c0.6,0.267,0.883,0.483,0.85,0.65
		c-0.066,0.133-0.267,0.25-0.6,0.35c-0.333,0.1-0.717,0.15-1.15,0.15c-0.367-0.034-0.55-0.034-0.55,0l-0.1-0.101L42.3,77.4L42,76.95
		c-0.1-0.4-0.417-1.101-0.95-2.101c-0.5-1-0.867-1.616-1.1-1.85C40.417,73.233,40.85,73.483,41.25,73.75z"/>
	<path style="fill-rule:evenodd;clip-rule:evenodd;fill:#D2CDC1;" d="M104.95,67c-0.367-0.434-0.55-1.066-0.55-1.9
		c0-0.399,0.066-0.783,0.199-1.149l0.2-0.45c0.267-0.2,0.75-0.467,1.45-0.8c0.767-0.367,1.366-0.617,1.8-0.75l0.45,0.149
		c0,1.367-0.35,2.534-1.05,3.5C106.75,66.533,105.917,67,104.95,67z M98.35,62.1c1.233-0.5,2.551-0.366,3.95,0.4
		c0.066,0.134,0.134,0.2,0.2,0.2c0.033,0.066,0.05,0.3,0.05,0.7c0,1.8-1.316,2.699-3.95,2.699c-0.199,0-0.55-0.216-1.05-0.649
		s-0.967-0.65-1.399-0.65c-0.367,0-1,0.7-1.9,2.101c-0.9,1.399-1.6,2.1-2.1,2.1c-0.434,0-0.75-0.116-0.95-0.35
		c-0.134-0.301-0.25-0.517-0.351-0.65c-0.066,0.066-0.783,0.684-2.149,1.85c-1.733,1.067-3.617,1.384-5.65,0.95l-0.35-0.05
		c0.233-0.533,0.633-0.884,1.2-1.05c1.767-0.5,3.199-0.983,4.3-1.45c1.666-0.634,2.583-1.134,2.75-1.5c0.2-0.5,0.434-0.833,0.7-1
		c0.166,0.333,0.35,0.4,0.55,0.2c0.3-0.233,1.2-0.851,2.7-1.851c1.633-1.1,2.666-1.733,3.1-1.899L98.35,62.1z M11.6,75.35l1.25,0.15
		l-0.65,2.95c-0.2,0.166-0.6,0.3-1.2,0.399c-0.567,0.134-0.95,0.167-1.15,0.101c-0.067,0-0.117-0.017-0.15-0.05
		c-0.067-0.034-0.117-0.084-0.15-0.15c-0.1-0.134-0.15-0.3-0.15-0.5l0.05-0.2L10.6,76l0.85-0.65H11.6z M31.4,72.2
		c0.3-0.334,0.667-0.617,1.1-0.851c0.7-0.399,1.5-0.517,2.4-0.35c0.233,1.667-0.066,2.733-0.9,3.2c-2.267,1.2-3.55,1.934-3.85,2.2
		l-0.5,0.1c-0.233-0.934,0.133-2.1,1.1-3.5C30.95,72.7,31.167,72.434,31.4,72.2z M37,72.35c-0.167,0.134-0.367,0.2-0.6,0.2
		s-0.417-0.066-0.55-0.2c-0.167-0.133-0.25-0.283-0.25-0.449c0-0.167,0.083-0.317,0.25-0.45c0.133-0.134,0.316-0.2,0.55-0.2
		s0.434,0.066,0.6,0.2c0.133,0.133,0.2,0.283,0.2,0.45C37.2,72.066,37.133,72.217,37,72.35z"/>
	<path style="fill-rule:evenodd;clip-rule:evenodd;fill:#B2AEA3;" d="M103.6,62.45l0.25-0.05c1.867-0.467,3.267-0.617,4.2-0.45
		c-0.434,0.133-1.033,0.383-1.8,0.75c-0.7,0.333-1.184,0.6-1.45,0.8c-0.467,0.366-1.166,1.134-2.1,2.3
		c-0.934,1.134-1.4,1.783-1.4,1.95c0,2.066-0.033,3.217-0.1,3.45c-0.334,1.133-1.15,1.816-2.45,2.05c-0.233,0-0.467,0.017-0.7,0.05
		c-0.133,0-0.267,0-0.399,0c-2,0-3.467-0.283-4.4-0.85c-1.066-0.634-1.684-1.767-1.85-3.4c-0.801,1.3-1.867,2.184-3.2,2.65
		C87.366,71.967,86.333,72.1,85.1,72.1L81.7,72c0.166-0.467,0.616-0.866,1.35-1.2c2.033,0.434,3.917,0.117,5.65-0.95
		c1.366-1.166,2.083-1.783,2.149-1.85c0.101,0.134,0.217,0.35,0.351,0.65c0.2,0.233,0.517,0.35,0.95,0.35c0.5,0,1.199-0.7,2.1-2.1
		c0.9-1.4,1.533-2.101,1.9-2.101c0.433,0,0.899,0.217,1.399,0.65S98.4,66.1,98.6,66.1c2.634,0,3.95-0.899,3.95-2.699
		c0-0.4-0.017-0.634-0.05-0.7c-0.066,0-0.134-0.066-0.2-0.2l1.15-0.05H103.6z M110.55,63.25c0.634,1.934,0.483,3.6-0.45,5
		c-0.767,1.167-1.649,1.75-2.649,1.75c-0.8,0-1.417-0.366-1.851-1.1c-0.199-0.367-0.416-1-0.649-1.9c0.967,0,1.8-0.467,2.5-1.4
		c0.7-0.966,1.05-2.133,1.05-3.5L110.55,63.25z M48.25,77.15l0.75,0.5c-0.433,0.267-1.067,0.466-1.9,0.6
		c-0.8,0.167-1.483,0.217-2.05,0.15c0.067-0.2,0.2-0.384,0.4-0.551c0.1-0.1,0.216-0.183,0.35-0.25l0.9-0.199
		c0.4-0.233,0.716-0.367,0.95-0.4c0.133-0.033,0.217-0.033,0.25,0L48.25,77.15z M12.85,75.5l-1.25-0.15
		c0.566-0.166,1.183-0.233,1.85-0.199c0.667,0.066,1.15,0.199,1.45,0.399l-2-0.3L12.85,75.5z M28.35,78.4
		c1.133-2.9,1.733-4.417,1.8-4.551L30.4,73.4c0.267-0.434,0.6-0.834,1-1.2c-0.233,0.233-0.45,0.5-0.65,0.8
		c-0.967,1.4-1.333,2.566-1.1,3.5l0.5-0.1c0.3-0.267,1.583-1,3.85-2.2c0.833-0.467,1.133-1.533,0.9-3.2
		c-0.9-0.167-1.7-0.05-2.4,0.35c0.233-0.199,0.5-0.366,0.8-0.5c1.667-0.066,3.217,0.017,4.65,0.25l0.4,0.301
		c0.333,0.3,0.617,0.6,0.85,0.899h0.05c0.733,0.033,1.383,0.483,1.95,1.351c0,0.033,0.017,0.066,0.05,0.1
		c-0.4-0.267-0.833-0.517-1.3-0.75c0.233,0.233,0.6,0.85,1.1,1.85c0.534,1,0.85,1.7,0.95,2.101l0.3,0.45l0.1,0.25l0.1,0.1l0.05,0.1
		L42.5,77.9l-0.3-0.551l-1.65-2.699c-0.1,0.166-0.233,0.366-0.4,0.6c-0.167,0.2-0.467,0.3-0.9,0.3c-0.6,0-1.017-0.283-1.25-0.85
		c-0.333-0.934-0.667-1.566-1-1.9c0.433,1,0.433,2.066,0,3.2c-0.567,1.4-1.633,2.1-3.2,2.1C31.4,78.3,29.583,78.4,28.35,78.4v0.55
		H28.3L28.35,78.4z M37,72.35c0.133-0.133,0.2-0.283,0.2-0.449c0-0.167-0.067-0.317-0.2-0.45c-0.167-0.134-0.367-0.2-0.6-0.2
		s-0.417,0.066-0.55,0.2c-0.167,0.133-0.25,0.283-0.25,0.45c0,0.166,0.083,0.316,0.25,0.449c0.133,0.134,0.316,0.2,0.55,0.2
		S36.833,72.483,37,72.35z M9.7,78.9L9.3,78.8l0.1-0.55c0,0.2,0.05,0.366,0.15,0.5C9.583,78.816,9.633,78.866,9.7,78.9z M10.55,79.8
		c-0.233,0-0.45-0.05-0.65-0.149c0.167,0.066,0.35,0.1,0.55,0.1L10.55,79.8z"/>
	<path style="fill-rule:evenodd;clip-rule:evenodd;fill:#9D9A90;" d="M101.05,73c-0.833,0.066-1.6,0.15-2.3,0.25
		c1.3-0.233,2.116-0.917,2.45-2.05c0.066-0.233,0.1-1.384,0.1-3.45c0-0.167,0.467-0.816,1.4-1.95c0.934-1.166,1.633-1.934,2.1-2.3
		l-0.2,0.45c-0.133,0.366-0.199,0.75-0.199,1.149c0,0.834,0.183,1.467,0.55,1.9c0.233,0.9,0.45,1.533,0.649,1.9
		c0.434,0.733,1.051,1.1,1.851,1.1c1,0,1.883-0.583,2.649-1.75c0.934-1.4,1.084-3.066,0.45-5c-0.033-0.033-0.05-0.066-0.05-0.1
		l1,0.649l3.2,2.95c0.066,0.1,0.25,0.366,0.55,0.8c0.134,0.233,0.333,0.533,0.6,0.9c0.733,1.133,1.167,1.899,1.301,2.3
		c0.133,0.733,0.133,1.566,0,2.5l-4.9-2.7c-2.066,1.233-4.467,1.851-7.2,1.851h-2C102.15,72.467,101.483,72.667,101.05,73z
		 M115.65,76l0.75-0.9l-0.801,1L115.65,76z M93.35,73.9c-0.866-0.067-2.85-0.017-5.949,0.149c-3.2,0.2-5.051,0.283-5.551,0.25
		L81.8,74.15c-0.1-0.233-0.184-0.617-0.25-1.15l0.15-1l3.399,0.1c1.233,0,2.267-0.133,3.101-0.399c1.333-0.467,2.399-1.351,3.2-2.65
		c0.166,1.634,0.783,2.767,1.85,3.4c0.934,0.566,2.4,0.85,4.4,0.85c0.133,0,0.267,0,0.399,0C96.116,73.5,94.55,73.7,93.35,73.9z
		 M82.1,74.65c0.2,0.199,0.334,0.333,0.4,0.399L82.3,74.9L82.1,74.65z M10.45,79.75c-0.2,0-0.383-0.033-0.55-0.1
		c-0.1-0.034-0.167-0.084-0.2-0.15c-0.233-0.167-0.367-0.35-0.4-0.55V78.8L9.7,78.9c0.033,0.033,0.083,0.05,0.15,0.05
		c0.2,0.066,0.583,0.033,1.15-0.101c0.6-0.1,1-0.233,1.2-0.399l-0.3,0.45c-0.066,0.066-0.25,0.199-0.55,0.399
		C11.05,79.533,10.75,79.684,10.45,79.75z M28.35,78.95V78.4c1.233,0,3.05-0.101,5.45-0.301c1.567,0,2.633-0.699,3.2-2.1
		c0.433-1.134,0.433-2.2,0-3.2c0.333,0.334,0.667,0.967,1,1.9c0.233,0.566,0.65,0.85,1.25,0.85c0.433,0,0.733-0.1,0.9-0.3
		c0.167-0.233,0.3-0.434,0.4-0.6l1.65,2.699l-0.9,0.25c-0.466-0.1-0.883-0.383-1.25-0.85c-0.9,1-2.867,1.684-5.9,2.05
		C31.75,79.1,29.817,79.15,28.35,78.95z"/>
	<path style="fill-rule:evenodd;clip-rule:evenodd;fill:#7F7C73;" d="M116.9,74.1c-2.4-0.267-4.667-0.517-6.801-0.75
		c-4.166-0.466-7.183-0.583-9.05-0.35c0.434-0.333,1.101-0.533,2-0.6h2c2.733,0,5.134-0.617,7.2-1.851l4.9,2.7L116.9,74.1z
		 M115.2,76.45l0.45-0.45l-0.051,0.1L115.2,76.45z M10.55,79.8l-0.1-0.05c0.3-0.066,0.6-0.217,0.9-0.45
		c0.3-0.2,0.483-0.333,0.55-0.399l-0.55,0.949L10.55,79.8z M40.7,78.65c-0.467,0.166-0.967,0.316-1.5,0.449
		c-0.333,0.101-0.667,0.184-1,0.25c-2.034,0.467-3.717,0.7-5.05,0.7c-0.533,0-1.333-0.083-2.4-0.25
		c-1.167-0.166-1.983-0.333-2.45-0.5v-0.35h0.05c1.467,0.2,3.4,0.149,5.8-0.15c3.033-0.366,5-1.05,5.9-2.05
		c0.367,0.467,0.784,0.75,1.25,0.85l0.9-0.25l0.3,0.551C42.033,78.167,41.433,78.417,40.7,78.65z"/>
	<path style="fill-rule:evenodd;clip-rule:evenodd;fill:#77766D;" d="M116.4,75.1l-0.75,0.9l-0.45,0.45
		c-0.934,0.767-2.167,1.633-3.7,2.6c-2.233,1.4-3.983,2.2-5.25,2.4c-1.866,0-3.434-0.101-4.7-0.3c3,0,5.533-0.384,7.601-1.15
		c1.233-0.467,2.366-1.167,3.399-2.1c0.867-0.767,1.3-1.284,1.3-1.551c0-0.433-0.033-0.716-0.1-0.85c-0.1-0.167-0.2-0.366-0.3-0.6
		c-1.667-0.134-2.834-0.2-3.5-0.2c-4.4,0-9.834,0.434-16.3,1.3c-4.601,0.634-7.634,0.667-9.101,0.1L82.9,75.3
		c2-0.1,5.483-0.566,10.449-1.399c1.2-0.2,2.767-0.4,4.7-0.601c0.233-0.033,0.467-0.05,0.7-0.05c0.7-0.1,1.467-0.184,2.3-0.25
		c1.867-0.233,4.884-0.116,9.05,0.35c2.134,0.233,4.4,0.483,6.801,0.75L116.4,75.1z M29.25,80.95c-0.5-0.566-0.817-1.117-0.95-1.65
		c0.633,0.934,1.233,1.65,1.8,2.15C29.8,81.283,29.517,81.116,29.25,80.95z"/>
	<path style="fill-rule:evenodd;clip-rule:evenodd;fill:#B3AA9E;" d="M63.25,0.2c0.233,8.333,0.2,19.8-0.1,34.4
		C63.116,37.167,62.767,50.967,62.1,76c-2.333,0.066-4.583,0.167-6.75,0.3L55.3,76c0.367-7.634,0.55-18.333,0.55-32.1
		c1.867-10.367,2.867-16.95,3-19.75v-0.1c0.134-2.333,0.134-5.316,0-8.95c0.301-0.333,0.617-1.033,0.95-2.1
		c0.3-0.933,0.45-1.517,0.45-1.75c0-3.433,0-5.367,0-5.8c0.066-2.067,0.267-3.5,0.6-4.3l0.7-0.55C62.25,0.333,62.816,0.2,63.25,0.2z
		 M77.45,33c0.166,2.1,0.434,7.233,0.8,15.4l-1.6,0.3c-0.301-8.633-0.45-13.284-0.45-13.95l0.2-5.6
		C76.667,30.317,77.017,31.6,77.45,33z M92.1,63.7c-0.066,0.033-0.166,0.083-0.3,0.149c-0.866,0.5-1.017,0.483-0.45-0.05l0.75-0.2
		V63.7z M98.35,62.1L98,62.2c0.033-0.434-0.1-0.8-0.4-1.101c-0.3-0.3-0.466-0.5-0.5-0.6c0.034-0.167,0.217-0.333,0.551-0.5
		c0.267-0.2,0.399-0.384,0.399-0.55c0.101,0.399,0.384,0.833,0.851,1.3c-0.267,0.2-0.4,0.316-0.4,0.35
		C98.366,61.3,98.316,61.634,98.35,62.1z M76.7,74.35L75.65,74.4c0.233-4.5,0.5-7.884,0.8-10.15c-0.167-3.4-0.3-5.85-0.4-7.35
		c-0.1-2.634,0.816-4.284,2.75-4.95c1.101,4.1,1.65,6.616,1.65,7.55c0,1.8-0.617,4.3-1.851,7.5C77.333,70.2,76.7,72.65,76.7,74.35z
		 M88.25,66.35c-0.233,0-0.434-0.066-0.6-0.199c-0.2-0.134-0.301-0.301-0.301-0.5c0-0.2,0.101-0.367,0.301-0.5
		c0.166-0.134,0.366-0.2,0.6-0.2c0.267-0.066,0.983-0.134,2.15-0.2l-0.5,0.75C89.5,65.934,88.95,66.217,88.25,66.35z M86.4,67.25
		c-3.934,1.934-6.084,2.95-6.45,3.05c-0.367-0.033-0.566-0.3-0.601-0.8c0.5-0.7,0.884-1.116,1.15-1.25
		c0.6-0.333,2.066-0.75,4.4-1.25L86.4,67.25z M72,7.95c0.866,2.833,1.283,7.733,1.25,14.7c0,3.7-0.1,8.1-0.3,13.2V46.3
		c0.033,1.4,0.316,2.65,0.85,3.75c0.533,1.066,0.8,2.733,0.8,5L74.05,74.5l-2.2,0.25c0.101-16.1,0-36.95-0.3-62.55L72,7.95z
		 M71.55,12.2l-2.5,24.6c-0.267-5.4-0.25-11.816,0.05-19.25c0.267-7.066,0.617-11.233,1.051-12.5c0.3,0.534,0.767,1.233,1.399,2.1
		V12.2z M53.35,35.55l-0.4,2.95l-0.1-0.1l-1.9-0.8c0.433-0.267,0.883-0.633,1.35-1.1C52.8,36.067,53.15,35.75,53.35,35.55z
		 M77.6,71.9c0-0.4,0.034-0.667,0.101-0.801l0.1-0.1h0.351l1,2.25C78.116,72.684,77.6,72.233,77.6,71.9z"/>
	<path style="fill-rule:evenodd;clip-rule:evenodd;fill:#8B8072;" d="M91.9,82.25l0.75,0.25c-1.101,0.066-1.884-0.017-2.351-0.25
		c0.134-0.033,0.434-0.05,0.9-0.05S91.9,82.217,91.9,82.25z M94.15,83.25l2.5,2.25c-1.834-0.066-2.851-0.467-3.051-1.2
		C93.7,84,93.884,83.65,94.15,83.25z M87.1,85.35c-0.466,0-0.767-0.017-0.899-0.05c-0.066,0-0.267-0.083-0.601-0.25
		c1.134-0.333,2.233-0.267,3.301,0.2C88.366,85.316,87.767,85.35,87.1,85.35z M97.3,88.05l-0.45-0.25L96.4,87l3.5,1
		C98.533,88.066,97.667,88.083,97.3,88.05z M102.2,95.45c0.5,0,0.934,0.05,1.3,0.149c0.366,0.101,1.167,0.4,2.4,0.9
		c-2.301,0.134-3.851-0.033-4.65-0.5c0.1-0.2,0.184-0.333,0.25-0.4C101.566,95.5,101.8,95.45,102.2,95.45z M30.55,84.05
		c-0.7,0.033-0.767,0.15-0.2,0.351c0.3,0.1,0.566,0.216,0.8,0.35c0,0.066-0.333,0.1-1,0.1c-0.7,0-1.15-0.1-1.35-0.3L29.7,84
		L30.55,84.05z M38.15,84.05L39.9,84l1.25,1c-0.1,0.066-0.483,0.1-1.15,0.1C39.3,85.1,38.683,84.75,38.15,84.05z M36.4,87.85
		c0.267-0.233,0.667-0.483,1.2-0.75c0.533-0.233,0.883-0.35,1.05-0.35c0.667,0,1.833,0.5,3.5,1.5c-0.3,0.467-0.9,0.7-1.8,0.7
		C38.25,89.083,36.933,88.717,36.4,87.85z M51.45,84.05L50.35,84c0.167-0.2,0.45-0.35,0.85-0.45c0.4-0.133,0.716-0.149,0.95-0.05
		c-0.066,0.167-0.083,0.316-0.05,0.45C52.067,84.017,51.85,84.05,51.45,84.05z M76.2,92.05c1-0.5,3.483-0.85,7.45-1.05
		c-0.534,0.533-1.483,1.116-2.851,1.75c-1.399,0.667-2.434,1-3.1,1c-0.934,0-1.617-0.267-2.05-0.8
		C75.75,92.884,75.934,92.583,76.2,92.05z"/>
	<path style="fill-rule:evenodd;clip-rule:evenodd;fill:#817F76;" d="M101.55,81.15l-3.3-0.851c-4.967-1.3-9.35-2.616-13.15-3.95
		l-0.55-0.25c1.467,0.567,4.5,0.534,9.101-0.1c6.466-0.866,11.899-1.3,16.3-1.3c0.666,0,1.833,0.066,3.5,0.2
		c0.1,0.233,0.2,0.433,0.3,0.6c0.066,0.134,0.1,0.417,0.1,0.85c0,0.267-0.433,0.784-1.3,1.551c-1.033,0.933-2.166,1.633-3.399,2.1
		C107.083,80.767,104.55,81.15,101.55,81.15z M39.2,79.1c0.533-0.133,1.033-0.283,1.5-0.449c1.167-0.101,2.483,0.283,3.95,1.149
		c-1.4,1.3-2.917,2.184-4.55,2.65c-0.7,0.166-1.4,0.283-2.1,0.35c-0.333,0.033-0.667,0.05-1,0.05L34,82.7l-1.65-0.4
		c1.367,0.267,2.55,0.101,3.55-0.5c0.333-0.2,1.083-0.85,2.25-1.95C38.483,79.55,38.833,79.3,39.2,79.1z M45.05,78.4
		c0.567,0.066,1.25,0.017,2.05-0.15c0.833-0.134,1.467-0.333,1.9-0.6c-0.133,0.8-0.25,1.316-0.35,1.55
		c-0.167,0.434-0.467,0.649-0.9,0.649c-0.5,0-1.05-0.1-1.65-0.3c-0.567-0.2-0.967-0.416-1.2-0.649V78.35
		C44.933,78.35,44.983,78.366,45.05,78.4z M70.5,76.1c0.233-0.033,1.5-0.133,3.8-0.3v2.25c-0.399,0.7-0.684,1.134-0.85,1.3
		c-0.267,0.267-0.566,0.4-0.9,0.4c-1.133,0-2.133-0.116-3-0.35c-1.066-0.301-1.6-0.733-1.6-1.301c0-0.433,0.05-0.716,0.149-0.85
		c0.167-0.134,0.267-0.233,0.301-0.3C68.866,76.583,69.566,76.3,70.5,76.1z"/>
	<path style="fill-rule:evenodd;clip-rule:evenodd;fill:#6D655A;" d="M36.15,92.2c-0.066-0.033,0.667-0.101,2.2-0.2
		c-0.1-0.566-0.167-1.017-0.2-1.35c-0.1-0.567-0.083-0.967,0.05-1.2c6.333,0.267,10.233,0.366,11.7,0.3l-0.5-0.6
		c-0.433-0.233-1.483-0.617-3.15-1.15l0.15-0.1c1.333-0.167,6.217-0.284,14.65-0.351c0.5,0,1.217,0.066,2.15,0.2
		c0.934,0.1,1.583,0.217,1.95,0.35l-0.2,0.4c-1.134,0.667-5.733,1.65-13.8,2.95c-3.167,0-5,0.283-5.5,0.85
		c-0.8,0.867-1.933,1.483-3.4,1.851L36.15,92.2z M7.55,83.15L13,82c0.067,0,1.1-0.167,3.1-0.5c2.133-0.333,3.566-0.517,4.3-0.55
		l0.85-0.05L24.4,80.8l3.05,0.101l1.8,0.05c0.267,0.166,0.55,0.333,0.85,0.5c-0.567-0.5-1.167-1.217-1.8-2.15
		c0.467,0.167,1.284,0.334,2.45,0.5c1.067,0.167,1.867,0.25,2.4,0.25c1.333,0,3.017-0.233,5.05-0.7c0.333-0.066,0.667-0.149,1-0.25
		c-0.367,0.2-0.717,0.45-1.05,0.75c-1.167,1.101-1.917,1.75-2.25,1.95c-1,0.601-2.183,0.767-3.55,0.5L34,82.7l3,0.149
		c0.333,0,0.667-0.017,1-0.05c-2.933,0.533-5.417,0.95-7.45,1.25L29.7,84c-3.2-0.134-5.583-0.2-7.15-0.2
		c-2.767-0.033-5.2,0.384-7.3,1.25l0.15,0.5c2.467,1.167,5.184,2.101,8.15,2.8c3.233,0.801,6.05,1.7,8.45,2.7l-1.7-0.35
		c-6.5-0.8-10.4-1.2-11.7-1.2c-2.333,0-4.217-0.116-5.65-0.35c-2.6-0.4-4.767-1.184-6.5-2.351l-0.4-0.25l-1.85-1.1
		c-0.167-0.033-0.284-0.066-0.35-0.101c-0.133-0.1-0.2-0.35-0.2-0.75c0-0.399,0.1-0.616,0.3-0.649C4.017,83.917,4.1,83.934,4.2,84
		C5.167,83.667,6.283,83.384,7.55,83.15z M98.25,80.3c-4.9,0.5-9.233,0.283-13-0.649c-3.4-0.834-5.366-1.95-5.9-3.351l5.75,0.05
		C88.9,77.684,93.283,79,98.25,80.3z M81.65,95l-0.9-0.1l-0.9-0.351c1.9-0.2,3.867-0.434,5.9-0.7c1.533-0.199,3.217-0.316,5.05-0.35
		h4.25l0.25,0.15c0.3,0.1,0.834,0.216,1.601,0.35c-1.7,1.8-4.301,2.5-7.801,2.1C85.366,95.3,82.884,94.934,81.65,95z M81.3,89.85
		c0.934-0.333,4.45-0.483,10.55-0.449c5.134,0.133,8.817,0.333,11.051,0.6c0,0.066,0.083,0.316,0.25,0.75
		c0.199,0.434,0.283,0.767,0.25,1l-4.2,0.05c-4.101,0-7-0.083-8.7-0.25c-1.1-0.133-4.033-0.616-8.8-1.45L81.3,89.85z M92.15,84.75
		c-1.467,0.634-2.4,0.783-2.801,0.45C89.483,85.1,90.417,84.95,92.15,84.75z M105.95,93.3c0.3,0.101,0.45,0.217,0.45,0.351
		c0,0.133-0.15,0.25-0.45,0.35c-0.334,0.1-0.733,0.15-1.2,0.15S103.9,94.1,103.6,94c-0.333-0.1-0.5-0.217-0.5-0.35
		c0-0.134,0.167-0.25,0.5-0.351c0.301-0.1,0.684-0.149,1.15-0.149S105.616,93.2,105.95,93.3z M66.55,75.75l5.3-1l2.2-0.25
		c0.134,0-1.05,0.533-3.55,1.6c-0.934,0.2-1.634,0.483-2.1,0.851c-11.8,2.366-21.234,4.2-28.3,5.5c1.633-0.467,3.15-1.351,4.55-2.65
		c-1.467-0.866-2.783-1.25-3.95-1.149c0.733-0.233,1.333-0.483,1.8-0.75l0.05-0.051l0.2,0.45l3.05-0.7
		c-0.133,0.067-0.25,0.15-0.35,0.25c-0.2,0.167-0.333,0.351-0.4,0.551c-0.066-0.034-0.117-0.051-0.15-0.051V78.9
		c0.233,0.233,0.633,0.449,1.2,0.649c0.6,0.2,1.15,0.3,1.65,0.3c0.433,0,0.733-0.216,0.9-0.649c0.1-0.233,0.217-0.75,0.35-1.55
		l-0.75-0.5l0.4-0.101l0.9-0.1l2-0.3l3.8-0.351c2.167-0.133,4.417-0.233,6.75-0.3C64.366,76,65.85,75.917,66.55,75.75z M56.05,84.45
		L53.6,84.3c0.267-0.1,1.167-0.333,2.7-0.7C57.867,83.2,58.733,83,58.9,83c-0.2,0.566-0.483,0.934-0.851,1.1
		C57.65,84.333,56.983,84.45,56.05,84.45z M80.15,84.25c0.666,0,1.416,0.5,2.25,1.5c-0.667,0.233-1.834,0.316-3.5,0.25
		c-1.634-0.066-2.717-0.217-3.25-0.45c0.5-0.434,0.85-0.7,1.05-0.8C77.434,84.417,78.583,84.25,80.15,84.25z M64.4,83.2
		c0,0.133-0.117,0.25-0.351,0.35c-0.267,0.066-0.566,0.101-0.899,0.101c-0.334,0-0.617-0.034-0.851-0.101
		c-0.267-0.1-0.399-0.217-0.399-0.35c0-0.134,0.133-0.233,0.399-0.3c0.233-0.101,0.517-0.15,0.851-0.15
		c0.333,0,0.633,0.05,0.899,0.15C64.283,82.967,64.4,83.066,64.4,83.2z M65.35,93.55c0-0.434,0.334-0.8,1-1.1
		c0.634-0.334,1.4-0.5,2.301-0.5c0.899,0,1.683,0.166,2.35,0.5c0.634,0.3,0.95,0.666,0.95,1.1S71.634,94.366,71,94.7
		c-0.667,0.3-1.45,0.45-2.35,0.45c-0.9,0-1.667-0.15-2.301-0.45C65.684,94.366,65.35,93.983,65.35,93.55z"/>
	<path style="fill-rule:evenodd;clip-rule:evenodd;fill:#898074;" d="M55.3,76c-0.133-1.033-0.5-2.783-1.1-5.25
		c-0.333-1.4-0.467-3.15-0.4-5.25l0.15-5l0.2-19.05c-0.4-1.567-0.8-2.55-1.2-2.95l0.4-2.95c1.233-2.767,1.883-4.367,1.95-4.8
		c0.367-2.1,0.434-6.717,0.2-13.85c0.5-0.233,1.067-0.5,1.7-0.8c0.5-0.267,1.05-0.6,1.649-1c0.134,3.633,0.134,6.617,0,8.95v0.1
		c-0.066,0.833-0.5,2.967-1.3,6.4c-0.867,3.6-1.433,8.05-1.7,13.35C55.85,57.667,55.667,68.366,55.3,76z M66.55,75.75
		c-0.033-6.4-0.05-11.017-0.05-13.85c0-4.9,0.85-13.267,2.55-25.101l2.5-24.6V7.15L72,7.95l-0.45,4.25c0.3,25.6,0.4,46.45,0.3,62.55
		L66.55,75.75z"/>
	<path style="fill-rule:evenodd;clip-rule:evenodd;fill:#A79E94;" d="M4.9,86.15l1.15,0.399v0.05L4.9,86.15z M44.8,10.4
		c0.2,0.567,0.417,1.117,0.65,1.65l0.45,1.1L45,11.1L44.8,10.4z M43.95,9.5l-0.9-0.05l-2.35-0.3L43.95,9.5z M45.3,36.2L45.2,25
		c0.033,1.2,0.1,2.083,0.2,2.65L45.3,36.2z M51.55,76.65l-2,0.3L48.8,56.2l-0.95-18.75v-1.4L48.5,46.9l-0.4-10.55L49,51.7l2.2,21.25
		L51.55,76.65z M45.6,29l-0.2-1.35l-0.1-8.55L45.6,29z M41.95,47.35l0.1,5.65L41.5,65.75L41.95,47.35z"/>
	<path style="fill-rule:evenodd;clip-rule:evenodd;fill:#968D83;" d="M6.05,86.55L4.9,86.15L4.2,85.85V85.45L6.05,86.55z M4.2,84
		C4.267,78.6,4.533,72.417,5,65.45C5.4,59.65,5.55,53.5,5.45,47c0.2-0.2,0.533-0.733,1-1.6c0.5-0.833,0.783-1.367,0.85-1.6
		C7.5,50.9,7.517,56.767,7.35,61.4C7.25,64.3,7.2,67.483,7.2,70.95L7.3,77.1l0.25,6.051C6.283,83.384,5.167,83.667,4.2,84z
		 M43.95,9.5l0.6,0.05l0.25,0.85l0.2,0.7L45.2,25l0.1,11.2v2.85v3.55c0.067,0.3,0.1,0.816,0.1,1.55
		c0.033,2.267-0.167,6.633-0.6,13.1c-0.6,8.467-1.133,13.917-1.6,16.35c0.5,0.2,1.15,0.617,1.95,1.25
		c0.767,0.601,1.2,1.017,1.3,1.25l0.15,0.25c-0.033,0.101-0.917,0.15-2.65,0.15c-0.367-0.634-0.733-1.116-1.1-1.45
		c-0.434-0.434-0.967-0.866-1.6-1.3c-0.033-0.033-0.05-0.066-0.05-0.1c-0.567-0.867-1.217-1.317-1.95-1.351H40l-0.05-1.1
		c0-1.134,0.1-2,0.3-2.601c0.067-0.267,0.483-1.216,1.25-2.85c0.267-0.7,0.467-1.366,0.6-2L42.05,53l-0.1-5.65
		c0.633-9,1.033-15,1.2-18c0.267-4.5,0.233-11.133-0.1-19.9L43.95,9.5z M47.85,36l0.25,0.3v0.05l0.4,10.55l-0.65-10.85V36z
		 M12.4,80.8c-0.3,0-0.55-0.083-0.75-0.25c-0.2-0.2-0.3-0.434-0.3-0.7L11.9,78.9l0.3-0.45l0.65-2.95l0.05-0.25l2,0.3
		c0.967,0.934,1.45,1.733,1.45,2.4C16.35,79.684,15.033,80.634,12.4,80.8z M42.3,77.4l0.1,0.149v0.101L42.3,77.4z"/>
	<path style="fill-rule:evenodd;clip-rule:evenodd;fill:#AEA397;" d="M39.25,72.3H39.2c-0.233-0.3-0.517-0.6-0.85-0.899l-0.4-0.301
		c1.267-6.899,1.9-15.1,1.9-24.6C39.817,25,39.833,12.517,39.9,9.05l0.8,0.1l2.35,0.3c0.333,8.767,0.367,15.4,0.1,19.9
		c-0.167,3-0.566,9-1.2,18l-0.45,18.4c-0.767,1.634-1.183,2.583-1.25,2.85c-0.2,0.601-0.3,1.467-0.3,2.601L40,72.3H39.25z
		 M51.2,72.95L49,51.7l0.75-14.45l1.05,0.3C51.133,47.55,51.267,59.35,51.2,72.95z M48.8,56.2l0.75,20.75l-0.9,0.1L48.8,56.2z
		 M42.4,77.65V77.55l0.1,0.101v0.1L42.4,77.65z M41.5,65.75L42.05,53l0.05,10.75C41.967,64.384,41.767,65.05,41.5,65.75z"/>
	<path style="fill-rule:evenodd;clip-rule:evenodd;fill:#E6DCCE;" d="M7.35,61.4C7.517,56.767,7.5,50.9,7.3,43.8
		c-0.033-5-0.05-7.833-0.05-8.5c0-2.933,0.683-5.167,2.05-6.7c1.034-1.133,2.2-1.7,3.5-1.7c0.3,0,0.967,0.083,2,0.25
		c1.4,0.2,2.833,0.367,4.3,0.5c-0.5,1-1.5,1.867-3,2.6c-1.267,1.4-1.883,4.633-1.85,9.7c0.033,3.1-0.467,6.433-1.5,10
		c-1,3.6-1.5,7.416-1.5,11.45l0.2,13.949L10.6,76l-1.15,2.05l-0.05,0.2L9.3,78.8v0.15c0.034,0.2,0.167,0.383,0.4,0.55
		c0.033,0.066,0.1,0.116,0.2,0.15c0.2,0.1,0.417,0.149,0.65,0.149l0.8,0.05c0,0.267,0.1,0.5,0.3,0.7c0.2,0.167,0.45,0.25,0.75,0.25
		l0.3,0.5c0.167,0.267,0.267,0.5,0.3,0.7l-5.45,1.15L7.3,77.1C7.4,71.267,7.417,66.033,7.35,61.4z M20.4,68.6
		c0.3,3.267,0.583,7.367,0.85,12.301l-0.1-13.5c0.233-21.101,0.333-34.351,0.3-39.75c1.833-0.133,3.1-0.35,3.8-0.65
		c-0.1,19.633-0.383,37.566-0.85,53.8L21.25,80.9l-0.85,0.05V68.6z M30.3,68.3c0.2-8.166,0.284-23.216,0.25-45.15
		c0.5-0.7,0.75-3.7,0.75-9c0-0.433,0.117-1.133,0.35-2.1c0.2-0.833,0.333-1.316,0.4-1.45c0.367-0.533,0.8-0.983,1.3-1.35l0.45-0.2
		c0.067,6.167,0.35,12.8,0.85,19.9c0.434,6.7,0.65,11.4,0.65,14.1c0,1.667-0.483,3.983-1.45,6.95c-0.833,2.533-1.05,5.333-0.65,8.4
		v11.1c0.033-0.2,0.117-0.4,0.25-0.6c0.233-0.434,0.55-0.65,0.95-0.65l2.4,0.05l0.15,0.05c0.1,0.067,0.167,0.2,0.2,0.4
		c-0.833,1.066-2.117,1.767-3.85,2.1c-0.3,0.134-0.566,0.301-0.8,0.5c-0.433,0.233-0.8,0.517-1.1,0.851
		c-0.4,0.366-0.733,0.767-1,1.2L30.3,68.3z M45.2,25L45,11.1l0.9,2.05c0.4,1.233,0.733,4.934,1,11.1
		c0.133,3.133,0.267,6.617,0.4,10.45c0.167,0.5,0.35,0.933,0.55,1.3v0.05v1.4c-0.033,0.333-0.133,0.667-0.3,1
		c-0.133,0.333-0.25,0.517-0.35,0.55l-1.6-10c0.1,3.8,0.117,6.433,0.05,7.9c-0.033,0.9-0.15,1.617-0.35,2.15V36.2l0.1-8.55
		C45.3,27.083,45.233,26.2,45.2,25z M53.95,60.5l-0.2,1.1l-0.9-23.2l0.1,0.1c0.4,0.4,0.8,1.383,1.2,2.95L53.95,60.5z M45.8,77.6
		l-3.05,0.7l-0.2-0.45l-0.05-0.1v-0.1c0-0.034,0.183-0.034,0.55,0c0.434,0,0.817-0.051,1.15-0.15c0.333-0.1,0.533-0.217,0.6-0.35
		c0.034-0.167-0.25-0.384-0.85-0.65c1.733,0,2.617-0.05,2.65-0.15l-0.15-0.25c-0.1-0.233-0.534-0.649-1.3-1.25
		c-0.8-0.633-1.45-1.05-1.95-1.25c0.466-2.433,1-7.883,1.6-16.35c0.434-6.467,0.633-10.833,0.6-13.1c0.567,8.7,1.067,15.2,1.5,19.5
		c0.367,3.966,0.7,8.416,1,13.35c-0.033-0.033-0.117-0.033-0.25,0c-0.233,0.033-0.55,0.167-0.95,0.4L45.8,77.6z M45.6,29l-0.3-9.9
		l0.1,8.55L45.6,29z"/>
	<path style="fill-rule:evenodd;clip-rule:evenodd;fill:#D1C6B9;" d="M2,49.8c0,0.233-0.3,3.384-0.9,9.45
		C0.5,66.517,0.233,73.3,0.3,79.6C0.1,76.2,0,74.167,0,73.5S0.083,66.333,0.25,54c0.067-0.467,0.217-1.1,0.45-1.9
		C1.133,51.134,1.567,50.366,2,49.8z M19.6,27.7c-0.267,6.333-0.3,11.683-0.1,16.05c-0.133,1.8-1.567,4.383-4.3,7.75
		c2.833,1.566,4.533,4.65,5.1,9.25c0.267,2.366,0.3,4.983,0.1,7.85V80.95c-0.733,0.033-2.167,0.217-4.3,0.55
		c-2,0.333-3.033,0.5-3.1,0.5c-0.033-0.2-0.133-0.434-0.3-0.7l-0.3-0.5c2.633-0.166,3.95-1.116,3.95-2.85
		c0-0.667-0.483-1.467-1.45-2.4c-0.3-0.2-0.783-0.333-1.45-0.399c-0.667-0.034-1.284,0.033-1.85,0.199h-0.15L11.25,61.4
		c0-4.034,0.5-7.851,1.5-11.45c1.033-3.567,1.533-6.9,1.5-10c-0.033-5.067,0.583-8.3,1.85-9.7c1.5-0.733,2.5-1.6,3-2.6L19.6,27.7z
		 M24.4,80.8c0.467-16.233,0.75-34.167,0.85-53.8c0.133-0.033,1.25-0.65,3.35-1.85c-0.8,9.4-1.184,18-1.15,25.8
		c0.066,16.2,0.066,26.184,0,29.95L24.4,80.8z M39.9,9.05C39.833,12.517,39.817,25,39.85,46.5c0,9.5-0.633,17.7-1.9,24.6
		c-1.434-0.233-2.983-0.316-4.65-0.25c1.733-0.333,3.017-1.033,3.85-2.1c-0.033-0.2-0.1-0.333-0.2-0.4L36.8,68.3l-2.4-0.05
		c-0.4,0-0.717,0.217-0.95,0.65c-0.133,0.199-0.217,0.399-0.25,0.6V58.4c-0.4-3.067-0.184-5.867,0.65-8.4
		c0.967-2.967,1.45-5.283,1.45-6.95c0-2.7-0.216-7.4-0.65-14.1c-0.5-7.1-0.783-13.733-0.85-19.9C34.833,8.85,36.867,8.85,39.9,9.05z
		 M53.95,60.5l-0.15,5c-0.066,2.1,0.067,3.85,0.4,5.25c0.6,2.467,0.966,4.217,1.1,5.25l0.05,0.3l-3.8,0.351l-0.35-3.7
		c0.066-13.601-0.067-25.4-0.4-35.4l0.15,0.05l1.9,0.8l0.9,23.2L53.95,60.5z M48.1,36.3c0.333,0.267,0.883,0.583,1.65,0.95L49,51.7
		l-0.9-15.35V36.3z M47.85,37.45L48.8,56.2l-0.15,20.85l-0.4,0.101L47.9,77c-0.3-4.934-0.633-9.384-1-13.35
		c-0.433-4.301-0.933-10.801-1.5-19.5c0-0.733-0.033-1.25-0.1-1.55v-3.55c0.2-0.533,0.317-1.25,0.35-2.15
		c0.067-1.467,0.05-4.1-0.05-7.9l1.6,10c0.1-0.033,0.216-0.217,0.35-0.55C47.717,38.117,47.817,37.783,47.85,37.45z M30.3,68.3
		l0.1,5.101l-0.25,0.449L30.3,68.3z"/>
	<path style="fill-rule:evenodd;clip-rule:evenodd;fill:#BDB2A5;" d="M5.45,47C5.55,53.5,5.4,59.65,5,65.45
		C4.533,72.417,4.267,78.6,4.2,84c-0.1-0.066-0.184-0.083-0.25-0.05c-0.2,0.033-0.3,0.25-0.3,0.649c0,0.4,0.067,0.65,0.2,0.75
		c0.066,0.034,0.183,0.067,0.35,0.101v0.399L3.8,85.65c-0.466-0.367-1.167-1.4-2.1-3.101c-0.833-1.533-1.3-2.517-1.4-2.95
		c-0.066-6.3,0.2-13.083,0.8-20.35C1.7,53.184,2,50.033,2,49.8C3.933,48.3,5.083,47.367,5.45,47z M20.4,68.6
		c0.2-2.866,0.167-5.483-0.1-7.85c-0.566-4.6-2.267-7.684-5.1-9.25c2.733-3.367,4.167-5.95,4.3-7.75
		c-0.2-4.367-0.167-9.717,0.1-16.05l1.85-0.05c0.033,5.4-0.067,18.65-0.3,39.75l0.1,13.5C20.983,75.967,20.7,71.866,20.4,68.6z
		 M7.35,61.4C7.417,66.033,7.4,71.267,7.3,77.1L7.2,70.95C7.2,67.483,7.25,64.3,7.35,61.4z M30.55,23.15
		c0.034,21.934-0.05,36.984-0.25,45.15l-0.15,5.55c-0.066,0.134-0.667,1.65-1.8,4.551l-0.05,0.55v0.35
		c0.133,0.533,0.45,1.084,0.95,1.65l-1.8-0.05c0.066-3.767,0.066-13.75,0-29.95c-0.034-7.8,0.35-16.4,1.15-25.8
		C29.2,24.75,29.85,24.083,30.55,23.15z"/>
</g>
</svg>
