<?xml version="1.0" encoding="iso-8859-1"?>
<!-- Generator: Adobe Illustrator 15.1.0, SVG Export Plug-In . SVG Version: 6.00 Build 0)  -->
<!DOCTYPE svg PUBLIC "-//W3C//DTD SVG 1.1//EN" "http://www.w3.org/Graphics/SVG/1.1/DTD/svg11.dtd">
<svg version="1.1" id="Layer_1" xmlns="http://www.w3.org/2000/svg" xmlns:xlink="http://www.w3.org/1999/xlink" x="0px" y="0px"
	 width="146px" height="213.05px" viewBox="0 0 146 213.05" style="enable-background:new 0 0 146 213.05;" xml:space="preserve">
<g>
	<path style="fill-rule:evenodd;clip-rule:evenodd;fill:#7C7367;" d="M109.9,139.55c-0.634-1.5-1.367-3.333-2.2-5.5
		c-0.367-1.033-0.816-1.983-1.351-2.85l-0.85-1.351l-0.65-1.05c2.534-12.5,3.851-28.767,3.95-48.8
		c-0.3-22.733-0.25-39.883,0.15-51.45l1.899,0.8l2.851,1.25c-0.3,5-0.45,9.233-0.45,12.7c0,6.934,0.267,12.517,0.8,16.75
		c0.533,4.233,0.8,10.45,0.8,18.65c0,1.367-0.416,4.983-1.25,10.85c-0.866,5.9-1.3,9.417-1.3,10.55c0,0.667,0.117,3.617,0.351,8.85
		l0.1,6.45c-0.434,1.1-1.283,2.483-2.55,4.149c-0.9,1.2-1.351,2.483-1.351,3.851c0,0.566,0.217,2.017,0.65,4.35
		C109.9,129.884,110.033,133.816,109.9,139.55z M131.75,34.25v0.05c0,0.6,0.167,1.983,0.5,4.15c0.167,2.2-0.1,3.733-0.8,4.6
		c-0.733-5.433-1.167-8.85-1.3-10.25L131.75,34.25z M113.25,129.95l0.7,10.25c-0.3,1.1-0.733,2.25-1.3,3.45l-1.25-1.551
		C112.4,136.634,113.017,132.583,113.25,129.95z M75.75,52.6L76,56.3l-1.4,1.05L75.75,52.6z M128.75,125.65l-3.95-21.2
		c0.434-4.034,0.851-11.133,1.25-21.3c0.367-8.6,0.816-14.267,1.351-17l0.25-0.95c0.366,4.2,0.416,10.733,0.149,19.6
		c0,0.333,0.15,5.2,0.45,14.6C128.55,110.066,128.717,118.816,128.75,125.65z M132.85,173.05l-1.399-3.35l0.05-4.15
		c0.4-0.366,0.733-0.899,1-1.6l0.25-1.75C133.017,164.7,133.05,168.316,132.85,173.05z M124.5,109.15
		c1.6,26.399,2.4,42.949,2.4,49.649c-0.301-0.633-0.817-1.6-1.551-2.899c-0.8-1.367-1.316-2.15-1.55-2.351L124.5,109.15z"/>
	<path style="fill-rule:evenodd;clip-rule:evenodd;fill:#B3AA9E;" d="M134.2,39.25c-0.367,9.767-0.566,25.45-0.601,47.05
		c-0.033,18.034-0.149,27.367-0.35,28c-0.566-12.2-1.434-26.333-2.6-42.4c-0.834-11.566-1.417-24.833-1.75-39.8l1.25,0.7
		c0.133,1.4,0.566,4.817,1.3,10.25c0.7-0.867,0.967-2.4,0.8-4.6c-0.333-2.167-0.5-3.55-0.5-4.15v-0.05l0.55,0.65
		C133.033,36.067,133.667,37.517,134.2,39.25z M142.45,128.125v0.025c-0.033,0-0.05,0.017-0.05,0.05
		c-0.267,2.566-0.4,4.783-0.4,6.649l0.6,19.301c-1.133,4.833-2.483,10.983-4.05,18.449l-0.35,0.101
		c0.566-5.934,0.816-14.816,0.75-26.65c-0.233-11-0.351-16.85-0.351-17.55c0-5.934,0.767-13.934,2.301-24
		c0.8,9.7,1.267,15.566,1.399,17.6C142.531,125.376,142.582,127.384,142.45,128.125z M118.25,95.3c0.634,6.133,1.6,11.267,2.9,15.4
		c0.933,2.934,1.35,6.434,1.25,10.5c0,1.267,0.1,5.316,0.3,12.149c0.3,8.567,0.5,15.101,0.6,19.601l-1.5-1.55
		c-2.899-2.4-4.55-3.733-4.95-4c-0.966-5.667-1.699-8.9-2.199-9.7l-0.7,2.5l-0.7-10.25c1.8-3.967,3.05-8.351,3.75-13.15
		C117.7,111.967,118.116,104.8,118.25,95.3z M83.45,59.2c-0.634-0.8-1-1.233-1.101-1.3c-0.199-0.1-0.716-0.433-1.55-1
		c0.2-1.933,0.384-5.383,0.55-10.35c0.167-4.1,0.25-6.667,0.25-7.7c0-0.667,0.517-10.233,1.551-28.7l0.05,0.25
		c0.033,0.333,0.017,4.167-0.05,11.5l0.1,2.65c0,0.1,0,0.217,0,0.35C83.483,34.533,83.55,45.967,83.45,59.2z M72.8,5l0.1,4.45
		L72.6,5H72.8z M96.9,110.95l-0.75-2.2l-0.9-3.05l-0.9-4.4L94,99.15l-0.1-0.85c-0.467-5.966-0.7-11.45-0.7-16.45h0.05l0.05-2.15
		c0-0.833-0.1-1.9-0.3-3.2c-0.233-1.567-0.517-2.7-0.85-3.4L91.8,48.05l-2.149,21.1l-0.4-0.5c-0.4-9.167-0.1-17.733,0.9-25.7
		c1.133-6.367,1.716-9.784,1.75-10.25L91.8,48.05l1.601-16l2.8,0.1c1.3,0,2.217-0.083,2.75-0.25c0.633-0.2,1.55-0.75,2.75-1.65
		c-0.134,1.333-0.95,3.45-2.45,6.35c-1.434,2.767-2.15,4.55-2.15,5.35c0,0.333,0.15,4.2,0.45,11.6
		c0.267,8.034,0.417,13.684,0.45,16.95c0.033,7.267,0.483,13.217,1.35,17.85c0.867,4.566,1.301,7.05,1.301,7.45
		c0,1.534-0.317,2.883-0.95,4.05c-0.767,1.1-1.25,1.85-1.45,2.25c-0.866,1.7-1.333,3.183-1.4,4.45
		C96.816,107.35,96.833,108.816,96.9,110.95z M123.25,88.8l-0.35-5.4l-0.051,6.8c-0.267,0.633-0.566,1.117-0.899,1.45l-0.3,0.05
		l-2.851-9.95c0.2,3.7,0.217,6.333,0.05,7.9c-0.066,0.833-0.25,1.55-0.55,2.15c0.033-3.466,0.05-5.983,0.05-7.55
		c0-2.833-0.033-4.417-0.1-4.75l-1.5-48.3c2.167,0.167,4.667,0.15,7.5-0.05l0.4,45.25c0,0.033-0.15,1.8-0.45,5.3
		C123.833,85.4,123.517,87.767,123.25,88.8z"/>
	<path style="fill-rule:evenodd;clip-rule:evenodd;fill:#9B9286;" d="M118.25,95.3V79.5c0.066,0.333,0.1,1.917,0.1,4.75
		c0,1.567-0.017,4.083-0.05,7.55c0.3-0.6,0.483-1.316,0.55-2.15c0.167-1.566,0.15-4.2-0.05-7.9l2.851,9.95l0.3-0.05
		c0.333-0.333,0.633-0.816,0.899-1.45c0.2,3.433,0.551,6.566,1.051,9.4l0.6,9.55l-0.7,44.399l-0.5-0.6
		c-0.1-4.5-0.3-11.033-0.6-19.601c-0.2-6.833-0.3-10.883-0.3-12.149c0.1-4.066-0.317-7.566-1.25-10.5
		C119.85,106.567,118.884,101.433,118.25,95.3z M142.45,128.125c0.132-0.741,0.081-2.749-0.15-6.025
		c-0.133-2.033-0.6-7.899-1.399-17.6c-1.534,10.066-2.301,18.066-2.301,24c0,0.7,0.117,6.55,0.351,17.55
		c0.066,11.834-0.184,20.717-0.75,26.65l0.35-0.101c1.566-7.466,2.917-13.616,4.05-18.449l0.051,3.5c0,3.833-0.351,7.083-1.051,9.75
		c-0.767,2.767-1.783,4.5-3.05,5.199c-1.7,0.634-2.649,3.334-2.85,8.101c-0.2,5.233-0.65,8.25-1.351,9.05
		c0.101-1,0.15-2.066,0.15-3.2c-0.167-4.866-0.333-7.899-0.5-9.1c-0.366-1.367-0.75-2.834-1.15-4.4c0.2-4.733,0.167-8.35-0.1-10.85
		l-0.25,1.75c-0.267,0.7-0.6,1.233-1,1.6c0.033-1.434-0.316-7.85-1.05-19.25c-0.8-11.899-1.367-18.783-1.7-20.649
		c-0.033-6.834-0.2-15.584-0.5-26.25c-0.3-9.4-0.45-14.267-0.45-14.6c0.267-8.867,0.217-15.4-0.149-19.6l-0.25,0.95
		c-0.534,2.733-0.983,8.4-1.351,17c-0.399,10.167-0.816,17.267-1.25,21.3L123.9,99.6l-0.65-10.8c0.267-1.033,0.583-3.4,0.95-7.1
		c0.3-3.5,0.45-5.267,0.45-5.3l-0.4-45.25c0.167,0,0.717,0.083,1.65,0.25c1.166,0.2,2.166,0.434,3,0.7
		c0.333,14.967,0.916,28.233,1.75,39.8c1.166,16.067,2.033,30.2,2.6,42.4c0.2-0.633,0.316-9.966,0.35-28
		c0.034-21.6,0.233-37.283,0.601-47.05c0.166,0.8,0.333,2.267,0.5,4.4c0.166,1.934,0.25,3.2,0.25,3.8c0,1.4-0.25,7.283-0.75,17.65
		c0,2.733,0.066,4.383,0.2,4.95c0.333,1.6,1.316,3.2,2.949,4.8c0.167,0.167,1.417,0.633,3.75,1.4c2.267,0.933,3.45,1.933,3.551,3
		c0.5,5.233,0.783,16.717,0.85,34.45c0,3.899-0.366,6.816-1.1,8.75C143.242,125.525,142.593,127.417,142.45,128.125z M58.15,19.05
		l-0.25-1L58,19.2c-0.433,0.8-0.65,1.733-0.65,2.8c0,0.667,0.066,1.667,0.2,3c-0.433,1-0.883,1.85-1.35,2.55
		c-0.133,0.2-0.517,0.7-1.15,1.5c-0.466,0.233-1.183,0.383-2.15,0.45c-0.967,0.1-1.8,0.1-2.5,0l-0.2-3.85v-3.6
		c-0.034-1.8,0.05-3.75,0.25-5.85c0.066-1.6-0.05-3.284-0.35-5.05c-0.333-2.167-0.867-3.75-1.6-4.75
		c0.333-0.033-0.517-0.533-2.55-1.5l-1-0.2l0.4-3.55c2.2,0,4.816-0.183,7.85-0.55C56.233,0.2,57.767,0,57.8,0l2.5,0.05
		c-0.1,0.767-0.05,4.65,0.15,11.65C60.55,15.833,59.783,18.283,58.15,19.05z M61.3,18.6c0.167-1.833,0.284-4.55,0.35-8.15
		C61.883,13.983,61.767,16.7,61.3,18.6z M76.1,5.05c-0.166,4.133-0.233,6.733-0.199,7.8c0.033,0.6,0.083,1.417,0.149,2.45
		c0,0.333-0.05,2.667-0.149,7c-0.101,6.9-0.15,17-0.15,30.3l-1.15,4.75c-0.566,0.467-1.5,0.95-2.8,1.45
		c-1.367,0.5-2.583,0.767-3.65,0.8c-0.333,0.1-0.667,0.183-1,0.25l-0.1,0.05l-0.15,0.05c-1.933,0.2-4.15-0.184-6.65-1.15
		c-2.4-0.9-4.117-1.883-5.15-2.95c-2.267-2-3.567-7.583-3.9-16.75c3.9-2.767,6.216-5.233,6.95-7.4c0.1-0.967,0.184-1.833,0.25-2.6
		c0.2-0.733,0.317-1.6,0.35-2.6c0.4-1.433,1.033-2.6,1.9-3.5c1.333-1.4,2.033-2.15,2.1-2.25c1.5-2.267,1.883-7.683,1.15-16.25
		c1.867,0.467,4.767,0.633,8.7,0.5l0.3,4.45L72.8,5L76.1,5.05z M83.45,59.2c0.1-13.233,0.033-24.667-0.2-34.3
		c0.1,1.9,0.95,3.55,2.55,4.95c1.7,1.433,3.75,2.15,6.15,2.15l-0.05,0.7c-0.034,0.466-0.617,3.883-1.75,10.25
		c-1,7.966-1.301,16.533-0.9,25.7c-2.134-2.2-3.483-3.95-4.05-5.25C84.8,61.967,84.217,60.567,83.45,59.2z M80.8,56.9l-0.95-0.5
		c1-7.467,1.667-15.85,2-25.15c0-0.5,0.15-8.35,0.45-23.55c0.4,0.767,0.684,1.583,0.851,2.45C82.116,28.617,81.6,38.183,81.6,38.85
		c0,1.033-0.083,3.6-0.25,7.7C81.184,51.517,81,54.967,80.8,56.9z M108.95,28.55c-0.4,11.567-0.45,28.717-0.15,51.45
		c-0.1,20.033-1.416,36.3-3.95,48.8l-0.8-1.2l-0.2-0.3c-0.8-1.1-2.166-3.983-4.1-8.649l-2.85-7.7
		c-0.067-2.134-0.084-3.601-0.051-4.4c0.067-1.267,0.534-2.75,1.4-4.45c0.2-0.4,0.684-1.15,1.45-2.25
		c0.633-1.167,0.95-2.517,0.95-4.05c0-0.4-0.434-2.883-1.301-7.45C98.483,83.717,98.033,77.767,98,70.5
		c-0.033-3.267-0.184-8.917-0.45-16.95c-0.3-7.4-0.45-11.267-0.45-11.6c0-0.8,0.717-2.583,2.15-5.35c1.5-2.9,2.316-5.017,2.45-6.35
		c1.233-0.9,2.233-1.483,3-1.75C105.967,28.067,107.384,28.083,108.95,28.55z M113.7,30.6l-2.851-1.25l4,1.6L113.7,30.6z
		 M113.95,140.2l0.7-2.5c0.5,0.8,1.233,4.033,2.199,9.7l-2.6-2.2l-1.6-1.55C113.217,142.45,113.65,141.3,113.95,140.2z"/>
	<path style="fill-rule:evenodd;clip-rule:evenodd;fill:#898074;" d="M76.1,5.05l2.2,0.25l1.8,0.6l0.45,0.2
		c-1.6,13.467-2.399,24.983-2.399,34.55l0.1,8.95c2-2.533,3.116-6.967,3.35-13.3c0-10.433,0.051-20.183,0.15-29.25L82.3,7.7
		c-0.3,15.2-0.45,23.05-0.45,23.55c-0.333,9.3-1,17.683-2,25.15c-0.433-0.167-1.066-0.25-1.899-0.25
		c-0.834-0.033-1.483,0.017-1.95,0.15l-0.25-3.7c0-13.3,0.05-23.4,0.15-30.3c0.1-4.333,0.149-6.667,0.149-7
		c-0.066-1.033-0.116-1.85-0.149-2.45C75.866,11.783,75.934,9.183,76.1,5.05z M61.65,10.45c-0.066,3.6-0.183,6.316-0.35,8.15
		c0.067,0.433-0.033,0.833-0.3,1.2s-0.6,0.583-1,0.65c-0.433,0.066-0.817-0.034-1.15-0.3c-0.367-0.267-0.6-0.633-0.7-1.1
		c1.633-0.767,2.4-3.216,2.3-7.35c-0.2-7-0.25-10.883-0.15-11.65c0.367,0,0.684,0.25,0.95,0.75c0.233,0.5,0.35,1.1,0.35,1.8
		L61.65,10.45z M93.4,32.05l-1.601,16L91.9,32.7l0.05-0.7L93.4,32.05z M91.8,48.05L92.15,73.1c-0.4-1.033-1.233-2.35-2.5-3.95
		L91.8,48.05z M57.55,25c-0.133-1.333-0.2-2.333-0.2-3c0-1.067,0.217-2,0.65-2.8C58.267,21.6,58.117,23.533,57.55,25z M51.2,39.1
		l-0.8-9.6c0.7,0.1,1.533,0.1,2.5,0c0.967-0.067,1.684-0.217,2.15-0.45c-1.933,1.7-2.966,2.65-3.1,2.85l-0.2,0.35l2.05,0.25
		c1.567,0,2.717-0.367,3.45-1.1c0.533-0.533,0.917-1.3,1.15-2.3c-0.066,0.767-0.15,1.633-0.25,2.6
		C57.417,33.867,55.1,36.333,51.2,39.1z"/>
	<path style="fill-rule:evenodd;clip-rule:evenodd;fill:#635B52;" d="M63.9,4.5c0.733,8.567,0.35,13.983-1.15,16.25
		c-0.067,0.1-0.767,0.85-2.1,2.25c-0.867,0.9-1.5,2.067-1.9,3.5c-0.033,1-0.15,1.867-0.35,2.6c-0.233,1-0.617,1.767-1.15,2.3
		c-0.733,0.733-1.883,1.1-3.45,1.1l-2.05-0.25l0.2-0.35c0.133-0.2,1.167-1.15,3.1-2.85c0.633-0.8,1.017-1.3,1.15-1.5
		c0.466-0.7,0.917-1.55,1.35-2.55c0.567-1.467,0.717-3.4,0.45-5.8l-0.1-1.15l0.25,1c0.1,0.467,0.333,0.833,0.7,1.1
		c0.333,0.267,0.717,0.367,1.15,0.3c0.4-0.067,0.733-0.284,1-0.65s0.367-0.767,0.3-1.2c0.467-1.9,0.583-4.617,0.35-8.15L61.6,2.6
		c0.066,0.133,0.383,0.433,0.95,0.9C63.183,4.067,63.633,4.4,63.9,4.5z M81.75,7.05c-0.1,9.067-0.15,18.817-0.15,29.25
		c-0.233,6.333-1.35,10.767-3.35,13.3l-0.1-8.95c0-9.566,0.8-21.083,2.399-34.55L81.75,7.05z M113.7,30.6l1.149,0.35l1.9,0.25
		l1.5,48.3v15.8c-0.134,9.5-0.55,16.667-1.25,21.5c-0.7,4.8-1.95,9.184-3.75,13.15c-0.233,2.633-0.85,6.684-1.85,12.149l-0.15-0.199
		l-1.35-2.351c0.133-5.733,0-9.666-0.4-11.8c-0.434-2.333-0.65-3.783-0.65-4.35c0-1.367,0.45-2.65,1.351-3.851
		c1.267-1.666,2.116-3.05,2.55-4.149l-0.1-6.45c-0.233-5.233-0.351-8.184-0.351-8.85c0-1.133,0.434-4.65,1.3-10.55
		c0.834-5.867,1.25-9.483,1.25-10.85c0-8.2-0.267-14.417-0.8-18.65c-0.533-4.233-0.8-9.816-0.8-16.75
		C113.25,39.833,113.4,35.6,113.7,30.6z M126.9,158.8c0-6.7-0.801-23.25-2.4-49.649l-0.6-9.55c-0.5-2.833-0.851-5.967-1.051-9.4
		l0.051-6.8l0.35,5.4l0.65,10.8l0.899,4.85l3.95,21.2c0.333,1.866,0.9,8.75,1.7,20.649c0.733,11.4,1.083,17.816,1.05,19.25
		l-0.05,4.15L126.9,158.8z"/>
	<path style="fill-rule:evenodd;clip-rule:evenodd;fill:#A79E94;" d="M134.5,186.55l-0.1,2.15c-1.434-0.101-2.617-1.783-3.551-5.05
		c-0.899-3.233-2.149-4.851-3.75-4.851c-0.366,0-0.75,0.233-1.149,0.7c-0.467,0.566-0.7,1.3-0.7,2.2c0,2.366,0.833,5.416,2.5,9.149
		c1.634,3.7,2.45,5.851,2.45,6.45v0.05c-0.033,0.367-0.283,0.767-0.75,1.2c-0.2,0.167-0.367,0.316-0.5,0.45
		c-0.5,0.434-0.834,0.75-1,0.95c-0.566-2.733-1.066-5.017-1.5-6.851c-0.8-3.533-2.3-6.333-4.5-8.399c-1.7-1.601-3.2-3.584-4.5-5.95
		c-1.233-2.3-2.033-4.5-2.4-6.6l0.8,0.449l0.9,0.2l-0.85-2.7l0.1,0.15c0.167,0.066,0.45,0.1,0.85,0.1c0.9,0,1.617-0.316,2.15-0.949
		c0.9-1.101,1.75-1.9,2.55-2.4c2.533-1.6,4.434-2.384,5.7-2.35c0.6,0.033,0.934,0.1,1,0.199c0-1.166-0.233-2.533-0.7-4.1
		c-0.566-1.934-1.217-2.9-1.95-2.9l-6.8-1.85l-1.75-0.4c-0.033-0.033-0.383-0.05-1.05-0.05c-0.767,0-1.283,0.217-1.55,0.65
		c-0.566,0.833-0.867,1.267-0.9,1.3c-0.467,0-1.3-0.167-2.5-0.5c-1.166-0.366-2.166-0.55-3-0.55c-0.7,0-1.217,0.3-1.55,0.899
		c-0.533,0.934-0.833,1.434-0.9,1.5c-0.6-0.3-1.483-0.949-2.649-1.949c-0.467,0-0.851-0.267-1.15-0.801
		c-0.333-0.533-0.5-1.166-0.5-1.899c0.533-0.101,1.233-0.066,2.101,0.1c1.033,0.2,1.6,0.3,1.699,0.3c0.267-0.333,0.4-0.783,0.4-1.35
		c2.134,0,3.35-0.05,3.65-0.15l0.3-2.949c-0.033,0-0.084-0.017-0.15-0.051c0.134-1.033,0.384-1.566,0.75-1.6
		c1.066,0,3.55,1.25,7.45,3.75v-0.05c0.066-0.134,0.184-0.25,0.35-0.351l3.95-0.449l1.5,1.55l0.5,0.6
		c0.233,0.2,0.75,0.983,1.55,2.351c0.733,1.3,1.25,2.267,1.551,2.899l4.55,10.9l1.399,3.35c0.4,1.566,0.784,3.033,1.15,4.4
		C134.167,178.65,134.333,181.684,134.5,186.55z M125.45,208.8c-0.733,0.533-2.483,1.45-5.25,2.75
		c-1.634,0.634-2.783,1.033-3.45,1.2c-0.733,0.167-1.684,0.25-2.85,0.25c-0.067,0-0.134,0-0.2,0c-0.3,0-0.533-0.017-0.7-0.05
		l-0.15-0.101h-0.05l-1.2-0.5h0.051c2.8-1.866,6.316-3.066,10.55-3.6c1.267-0.167,2.1-0.467,2.5-0.9
		c0.566-0.633,0.85-1.816,0.85-3.55c-0.934-3.533-2.166-6-3.7-7.399l0.15,6.25c0,1.633-0.434,2.733-1.3,3.3
		c-0.667,0.434-2.334,0.916-5,1.45c0.666-0.167,1.149-0.4,1.45-0.7c0.133,0,0.25-0.101,0.35-0.3c0.066-0.2,0.1-0.434,0.1-0.7
		c0.767-1.2,1.351-2.483,1.75-3.851c0.767-2.5,1.101-6.85,1-13.05c0.101,0,0.15-0.333,0.15-1c3.533,4.233,5.35,8.2,5.45,11.9
		c0.033,0.934-0.066,2.399-0.3,4.399C125.417,206.366,125.35,207.767,125.45,208.8z M103.05,171c0.367,0.833,1.351,3.55,2.95,8.15
		c1.333,3.833,2.167,5.85,2.5,6.05l1.35,1c0.167-2.467,0.25-4.033,0.25-4.7c0-1.1-0.616-2.417-1.85-3.95
		c-3.167-3.967-4.7-6.1-4.6-6.399c1.866,0.533,3.083,0.85,3.649,0.949c0.233,0.067,0.983,0.184,2.25,0.351l1.8,1.05
		c0.134-0.233,0.134-0.583,0-1.05c0-0.8,0.25-1.467,0.75-2c0.467-0.566,1.051-0.851,1.75-0.851c0.134,0.733,0.45,2.517,0.95,5.351
		c0.434,2.6,0.65,4.1,0.65,4.5c0,1.967,0.434,4.283,1.3,6.95c0.733,2.233,0.884,5.267,0.45,9.1c-0.334-0.6-0.95-2.467-1.851-5.6
		c-1-3.434-1.583-5.351-1.75-5.75c-1.3,1.8-2.8,5.566-4.5,11.3c-1.6,5.333-2.449,8.967-2.55,10.899l-0.399-0.1l-0.551-0.15
		c0.233-0.466,0.5-1.966,0.801-4.5c0.199-1.899,0.35-3.533,0.449-4.899l-0.05-1.05c-1,1.767-2.083,2.783-3.25,3.05
		c-1.033-0.101-1.6-0.15-1.7-0.15c-0.666-0.066-1.116-0.083-1.35-0.05c-0.4,0.033-0.6,0.267-0.6,0.7c0,0.633-0.601,1.066-1.801,1.3
		c-1.767,0.233-3.216,0.5-4.35,0.8c0.967,0.533,1.55,0.851,1.75,0.95c0.566,0.4,1.083,0.9,1.55,1.5
		c-0.934,0.533-2.733,1.066-5.399,1.6c-2.5,0.434-3.817,0.65-3.95,0.65h-1.2c-0.566-0.866-0.95-1.917-1.15-3.15
		c-0.1-1.166-0.199-1.883-0.3-2.149c-0.8-0.4-2.684-0.733-5.649-1l-1.101-0.5l-1.2-0.65c0.167-0.166,0.584-0.45,1.25-0.85
		c0.601-0.4,1.017-0.75,1.25-1.05c-0.166-0.4-1.133-1.301-2.899-2.7c-1.634-1.3-2.601-2-2.9-2.101L73.9,190.7
		c0.166,0.166,0.533,0.616,1.1,1.35c0.6,0.667,1.2,1,1.8,1c0.934,0,1.634-0.283,2.101-0.85L80.3,195.1l0.5,0.75
		c0.167-1.833,0.25-3.083,0.25-3.75c0-6.133-1.05-11.233-3.149-15.3c-0.101-0.133-0.2-0.267-0.301-0.399l0.2-1
		c1.5,2.166,2.634,3.949,3.4,5.35c1.399,2.6,2.217,4.917,2.45,6.95l1.25,0.3c4-0.3,6.55-0.45,7.649-0.45
		c-0.166,0.367-0.083,0.717,0.25,1.05c0.467,0.334,1.184,0.483,2.15,0.45l2.55-0.2c-0.866-0.733-1.6-1.267-2.2-1.6l2.101-0.4
		c0.267,0.667,0.666,3.084,1.199,7.25c0.367,2.9,1.184,4.351,2.45,4.351c1.7,0,2.55-0.884,2.55-2.65c0-0.2-0.25-1.434-0.75-3.7
		s-0.75-3.483-0.75-3.649c2.733,1.166,4.25,1.767,4.551,1.8c0.399,0.167,0.6-0.083,0.6-0.75c0-1.033-2-6.2-6-15.5
		c-5.767-13.5-8.917-20.934-9.45-22.3l-0.35-1.25c5,5.833,8.283,10.899,9.85,15.2c0.367,0.933,0.717,2.133,1.05,3.6
		C102.55,170.184,102.783,170.767,103.05,171z M106.3,194.7c1.033,0,1.767-0.95,2.2-2.851c-1.333,0.767-2.167,1.184-2.5,1.25
		c-0.167,0.067-0.3-0.017-0.4-0.25l-0.399,0.9c0.133,0.4,0.217,0.616,0.25,0.65C105.583,194.6,105.866,194.7,106.3,194.7z
		 M102.75,205.95h-2.25c0-0.9,0.15-1.7,0.45-2.4c0.267-0.733,0.633-1.233,1.1-1.5c0.434-0.267,0.884-0.25,1.351,0.05
		c0.466,0.267,0.833,0.767,1.1,1.5s0.4,1.534,0.4,2.4l-1.4-0.1L102.75,205.95z M69.1,193.6c-1.367-1.166-2.883-2.633-4.55-4.399
		l-1.6-1.95c0.033,0,0.083,0.017,0.15,0.05c1.2,0.3,2.217,0.384,3.05,0.25c0.867,0.101,2.133-0.017,3.8-0.35l0.55,0.2
		c0.367,0.233,0.55,0.616,0.55,1.149l-2.15-0.35l-1.95,0.05c0.633,0.134,1.517,0.533,2.65,1.2c1.133,0.666,1.9,1.233,2.3,1.7
		c0.067,0.066,0.167,0.149,0.3,0.25l0.55,0.399c-0.567,0.467-1.067,0.834-1.5,1.101C70.517,193.366,69.8,193.6,69.1,193.6z
		 M75.15,184.55l0.35,0.851c0.167-2.467,0-4-0.5-4.601c-0.5-2.467-1.267-5.866-2.3-10.2c-1.367-5.6-2.6-10.216-3.7-13.85l-0.15-0.9
		V154.9c0.733,1.8,1.3,4.1,1.7,6.899c0.733,2.967,2.55,6.601,5.45,10.9l1.6,3.649c-2.033-2.833-3.183-4.55-3.449-5.149
		c2,6.434,3,9.983,3,10.649c0,4.067-0.334,6.517-1,7.351c-0.934,0.333-1.684,0.45-2.25,0.35l-0.2-2.05h0.75
		c0.033-0.667,0.149-1.3,0.35-1.9C75,185.066,75.116,184.717,75.15,184.55z M55.4,125.55c-0.333-0.633-0.75-1.233-1.25-1.8L53,122.8
		c2.167,0.533,4.583,1.267,7.25,2.2c1.933,0.7,3.183,1.05,3.75,1.05l0.7,1.8l-0.85,0.051c0.933,0.6,2.183,1.5,3.75,2.699
		c1.2,0.967,2.15,1.617,2.85,1.95c-0.133,2-0.117,4.917,0.05,8.75v8.25c-0.033-0.899-0.117-2.267-0.25-4.1
		c-0.233-2.667-0.5-4.601-0.8-5.8c-0.167-1.233-0.434-2.317-0.8-3.25c-0.333-1.467-0.85-2.767-1.55-3.9v-1.1
		c-0.267-0.034-0.55-0.067-0.85-0.101c-1.167-1.434-2.7-2.583-4.6-3.45C57.917,126.783,55.833,126.017,55.4,125.55z M66,126.25
		c1.333,0.233,4.533,0.983,9.6,2.25c4.534,1.134,7.051,1.7,7.551,1.7c4.433-3.033,6.649-5.434,6.649-7.2
		c0-3.4-1.116-6.616-3.35-9.65c-1.9-2.6-3.4-3.899-4.5-3.899c-0.334,0-0.351,0.233-0.05,0.7c0.3,0.466,0.283,0.699-0.051,0.699
		c-0.399,0-0.666-0.116-0.8-0.35c-0.066-0.3-0.149-0.517-0.25-0.65c-0.633,1.134-0.967,2.367-1,3.7
		c-0.033,1.467-0.233,2.65-0.6,3.55l-0.7,0.25c-0.3-0.133-0.783-0.666-1.45-1.6c-1.2-1.7-1.934-2.717-2.2-3.05
		c-0.899-1.566-2.133-2.351-3.7-2.351c-1.133,0-2.117,0.367-2.95,1.101c-0.833,0.733-1.534,1.1-2.1,1.1c-0.4,0-1.067-0.283-2-0.85
		c-0.733-0.5-1.6-0.601-2.6-0.3l-1.15,0.1c-0.2-0.1-0.6-0.366-1.2-0.8c-0.367-0.267-0.8-0.4-1.3-0.4c-0.2,0-0.333,0.066-0.4,0.2
		c-0.034-0.1-0.05-0.2-0.05-0.3c-1.5-0.167-3.7-0.316-6.6-0.45c-2.367-0.134-3.95-0.2-4.75-0.2c-0.4,0-0.783,0.233-1.15,0.7
		l-0.5,0.55l-0.5-0.55l-0.6-0.5c-0.733-0.333-1.8-0.583-3.2-0.75h-0.45c-1.133,0.267-2.383,0.184-3.75-0.25
		c-1.533-0.5-2.683-1.3-3.45-2.4h0.05l2.2,0.15l0.7,0.05c2.5,0.2,4.283,0.2,5.35,0c3.5-0.267,5.517-2.4,6.05-6.4
		c0.1-5.566,0.4-9.967,0.9-13.2c0.1,0,0.233-0.35,0.4-1.05c0.533,2.7,0.75,5.983,0.65,9.85c-0.067,2.167-0.233,5-0.5,8.5
		c-0.033,0.7-0.167,1.883-0.4,3.55c0,0.667,0.133,0.834,0.4,0.5l0.3-0.05c0.167-0.1,0.367-0.233,0.6-0.4
		c0.133-1.133,0.2-1.883,0.2-2.25l7.3-0.1c-0.066-0.5-0.517-3.033-1.35-7.6c-0.7-3.733-1.066-6.967-1.1-9.7l-0.05-1.9
		c0.133,1.467,0.35,2.567,0.65,3.3c0.233,0.533,0.8,1.733,1.7,3.6l2.15,7l0.1,0.75c-0.533,0.867-0.8,1.783-0.8,2.75
		c0,3.066,0.533,4.899,1.6,5.5c0.333,0.666,0.567,0.35,0.7-0.95c0.1-1.2,0.067-2.417-0.1-3.65c1.267-0.533,2.3-0.817,3.1-0.85
		l0.6,0.55c0.5,0.4,0.933,0.717,1.3,0.95c0.067-0.267,0.033-0.767-0.1-1.5c5.333,0.533,8.134,0.8,8.4,0.8
		c0.733,0,1.7-0.167,2.899-0.5c0.867-0.233,1.551-0.45,2.051-0.65C77.033,98.733,75,92.383,72.3,84.35
		c-1.767-5.2-2.9-9.233-3.4-12.1L69,71.5c5.4,12,9.866,22.333,13.4,31c-2.434-4-3.851-6.417-4.25-7.25
		c-0.167-0.5-0.284-0.967-0.351-1.4c0.066,2.767,0.5,5.617,1.3,8.55c0.367,1.467,0.733,2.733,1.101,3.8
		c-0.7,0.066-3.584,0.216-8.65,0.45c-3.533,0.133-5.617,0.367-6.25,0.7l-0.5,0.2c5.733-0.233,9.184,0.066,10.351,0.9
		c0.333,0.267,0.633,0.7,0.899,1.3c0.233,0.634,0.566,1.1,1,1.4l1.45-1.5c0.733-0.733,1.267-1.184,1.6-1.351
		c0.601-0.333,0.733,0.084,0.4,1.25l2.45-1.95l1.7-0.149c1.199,0,2.033,0.55,2.5,1.649c0.366,0.834,1.083,3.134,2.149,6.9l0.9,1.2
		c0.166-0.7,0.166-1.95,0-3.75c-0.2-1.8-0.3-2.867-0.3-3.2c0-1.233,0.449-2.167,1.35-2.8c0.333-0.2,1.667-0.784,4-1.75l0.9,3.05
		l0.1,0.35c-1.4,0.767-2.217,2.517-2.45,5.25c-0.133,1.434-0.133,3.217,0,5.351c1.334-0.9,2.467-1.316,3.4-1.25
		c0.533,0.033,1.383,0.1,2.55,0.2c1.934,4.666,3.3,7.55,4.1,8.649l0.2,0.3l0.15,0.25c-0.934-0.1-2.417-0.483-4.45-1.149
		c-1.8-0.601-3.15-0.9-4.05-0.9c-0.5,0-1.917,0.917-4.25,2.75c-2.467,1.9-4.566,3-6.3,3.3h3.35l0.05,3.7c-1.1,0-2.033,0.767-2.8,2.3
		c-0.434,0.834-0.733,1.767-0.9,2.801c-0.399-1.467-1.25-2.75-2.55-3.851c-0.934-0.833-2.233-1.666-3.899-2.5
		c-2.301-1.133-3.467-1.717-3.5-1.75h0.25c-2.9-1.6-4.851-2.7-5.851-3.3C67.733,128.283,66.633,127.283,66,126.25z M16.65,68.3
		c1.2-0.466,1.8-1.417,1.8-2.85c0.033-1.233,0.833-1.9,2.4-2c-0.333-0.133-0.983-0.967-1.95-2.5c-0.767-1.2-1.983-1.667-3.65-1.4
		l-0.7-3.9c-0.033-0.2-0.066-0.383-0.1-0.55c2.033,0,9.316,0.867,21.85,2.6c0.233,0.033,1.95,0.6,5.15,1.7
		c3.333,1.067,5.533,1.6,6.6,1.6c1.333,0,2.25-0.483,2.75-1.45c1.267-2.466,2.083-3.933,2.45-4.4c-0.633-0.5-1.217-1.75-1.75-3.75
		c-0.9-3.267-1.35-7.75-1.35-13.45l0.05-12.3l0.2,3.85l0.8,9.6c0.333,9.167,1.633,14.75,3.9,16.75l0.3,3c0,0.5-0.967,1.217-2.9,2.15
		c-2.2,1.1-4.233,1.55-6.1,1.35l-0.25-0.8l0.1,0.75c-0.067,0-1.367-0.483-3.9-1.45c-1.9-0.733-3.434-1.1-4.6-1.1
		c-4.9,0.567-7.733,0.95-8.5,1.15l5-0.15c2.9,0,5.267,0.483,7.1,1.45c1.033,0.566,2.517,1.466,4.45,2.7l-2.3,0.65l-1.7,1.15
		c0-0.534-0.216-0.8-0.65-0.8v-3.35c-0.066,3.067-0.283,4.733-0.65,5c0,0.867-0.2,2.184-0.6,3.95l-0.75,4.8l0.05-2.35
		c0-0.3-0.217-2.9-0.65-7.8H34.4c-2.467,0.033-4.333,0.467-5.6,1.3c-0.5,0.1-0.816,0.367-0.95,0.8v0.05
		c-0.867,1-1.217,2.367-1.05,4.1c0.233,2.667,0.35,4.05,0.35,4.15c-0.167,1.267-1.083,1.9-2.75,1.9c-0.133,0-0.65,0.417-1.55,1.25
		l-0.4-0.55c-1.767-2.4-3-4.2-3.7-5.4C17.65,71.883,16.95,70.067,16.65,68.3z M15.6,12.95c0.133,0.033,0.25,0.05,0.35,0.05
		c0.667,0.067,1.25,0.083,1.75,0.05h0.05L17.1,22.8l1.1-1.65c-0.267,1.434-0.6,2.95-1,4.55l-0.4,1.15
		c0.067-1.434-0.1-4.017-0.5-7.75C15.867,15.433,15.633,13.383,15.6,12.95z M15.1,12.85l0.35,0.1c-0.567,6.7-0.883,11.433-0.95,14.2
		v2.05c-0.467-3.3-0.717-5.534-0.75-6.7c0.067-1.7,0.1-3.683,0.1-5.95c0-0.867-0.167-1.6-0.5-2.2
		c-0.267-0.467-0.717-0.983-1.35-1.55l-0.1-0.75l1.65,0.45c0.167,0.033,0.333,0.083,0.5,0.15l0.65,0.1l0.2,0.05
		c0.033,0,0.083,0.017,0.15,0.05H15.1z M42.35,34.7l-0.25,4.2c-0.133,3.7-0.2,8.333-0.2,13.9l-0.1,0.35
		c-0.667-1.4-1.35-4.283-2.05-8.65c-0.7-4.467-1.05-8.267-1.05-11.4l0.65-20.5c-2.567,0.1-4.217-0.017-4.95-0.35
		c-0.833-0.4-1.25-1.367-1.25-2.9l0.2-3.4l7.15-1.2c0.233,3.1,0.367,6.017,0.4,8.75c0.267,0.133,0.617,0.233,1.05,0.3
		c0.3,0.1,0.5,0.417,0.6,0.95c0.267,1.167,0.25,5.167-0.05,12L42.35,34.7z M111.4,142.1l1.25,1.551l1.6,1.55
		c-0.7-0.066-4.583-1.733-11.65-5c-7.199-3.334-10.816-5-10.85-5l0.1-1.3l2,0.3l0.75-0.2c0.034-0.033,0.134-1.05,0.301-3.05
		c0.133-1.4,0.649-2.101,1.55-2.101c0.8,0,2.517,1.034,5.149,3.101c1.4,1.066,3.15,2.45,5.25,4.149l-0.5-4.899
		c0.534,0.866,0.983,1.816,1.351,2.85c0.833,2.167,1.566,4,2.2,5.5l1.35,2.351L111.4,142.1z M83.45,59.2
		c0.767,1.367,1.35,2.767,1.75,4.2c0.566,1.3,1.916,3.05,4.05,5.25l0.4,0.5c1.267,1.6,2.1,2.917,2.5,3.95
		c0.333,0.7,0.616,1.833,0.85,3.4c0.2,1.3,0.3,2.367,0.3,3.2l-0.05,2.15H93.2c-0.867-0.667-1.517-1.7-1.95-3.1
		c-0.4-1.7-0.75-3.033-1.05-4c-1.267-3.6-4.367-6.283-9.3-8.05l-0.851-0.25c0.167,1.4,0.25,2.767,0.25,4.1l-0.1,6.5
		c-0.033-1.333-0.5-3.267-1.4-5.8c-1.133-3.1-2.416-5.167-3.85-6.2c-0.434-0.3-1.351-0.917-2.75-1.85
		c-1.5-0.967-2.284-1.45-2.35-1.45c-0.767,0-1.4,0.167-1.9,0.5c-0.867,0.567-2.883,1.2-6.05,1.9l-8.2-0.05
		c1.333-1.7,3.233-2.733,5.7-3.1c3.533-0.5,6.033-0.85,7.5-1.05l0.15-0.05l0.1-0.05c0.333-0.067,0.667-0.15,1-0.25
		c1.067-0.033,2.283-0.3,3.65-0.8c1.3-0.5,2.233-0.983,2.8-1.45L76,56.3c0.467-0.133,1.116-0.183,1.95-0.15
		c0.833,0,1.467,0.083,1.899,0.25l0.95,0.5c0.834,0.567,1.351,0.9,1.55,1C82.45,57.967,82.816,58.4,83.45,59.2z M46.15,14.4
		c0.167-3.033,0.1-6.2-0.2-9.5c2.033,0.967,2.883,1.467,2.55,1.5l-0.75-0.3c-0.067,1-0.15,2.316-0.25,3.95
		C47.3,11.45,46.85,12.9,46.15,14.4z M23.6,65.1c-0.3-0.3-0.65-0.45-1.05-0.45c-0.4,0-0.75,0.15-1.05,0.45
		c-0.3,0.3-0.45,0.667-0.45,1.1c0,0.433,0.15,0.8,0.45,1.1c0.3,0.3,0.65,0.45,1.05,0.45c0.4,0,0.75-0.15,1.05-0.45
		c0.3-0.3,0.45-0.667,0.45-1.1C24.05,65.767,23.9,65.4,23.6,65.1z M75.55,61.55c-0.2,0.133-0.45,0.417-0.75,0.85
		c0.533,0.533,1.101,0.85,1.7,0.95c0.833,0.1,1.483-0.35,1.95-1.35l0.05-1.15C77.233,60.817,76.25,61.05,75.55,61.55z M82.6,187.6
		c0.233,0.101,0.45,0.134,0.65,0.101c0.263,0,0.413,0.066,0.45,0.2l-0.05-0.2L82.6,187.6z M84.7,196.7
		c1.3,2.366,3.184,3.55,5.649,3.55c0.334,0,0.884-0.167,1.65-0.5c0.733-0.333,1.267-0.5,1.6-0.5c2.7,0,4.051-1.066,4.051-3.2
		c0-3.3-0.983-5.233-2.95-5.8c-3.5-0.333-6.767-1.083-9.8-2.25c-0.467,0-0.867-0.033-1.2-0.1C83.066,191.366,83.4,194.3,84.7,196.7z
		 M80.15,174.85c0.366,0.034,2.05,0.317,5.05,0.851c2.967,0.467,4.733,0.5,5.3,0.1c1.3-1.033,2.017-1.583,2.15-1.649
		c1-0.467,2.399-0.567,4.199-0.301c0.034-0.833-0.083-2.267-0.35-4.3c2.233,1.767,3.35,2.983,3.35,3.65l-0.449,1.75
		c-0.267,1.366-0.417,2.566-0.45,3.6c0.399,0.267,0.267,0.4-0.4,0.4l-4.45-1.3c-0.699,0-1.233,0.283-1.6,0.85s-0.634,0.85-0.8,0.85
		c-0.934,0-2.367-0.183-4.3-0.55c-1.934-0.399-3.384-0.6-4.351-0.6c-0.399,0-0.95-0.45-1.649-1.351c-0.634-0.966-1-1.5-1.101-1.6
		L80.15,174.85z M82.4,102.5l-0.45-1.3c0.733-0.2,2.684-0.267,5.85-0.2c3.033-0.2,5.066-1.1,6.101-2.7l0.1,0.85l0.1,0.85l-0.6-0.15
		c-0.333,2.367-0.967,3.65-1.9,3.85c-1.733-0.133-3.5-0.2-5.3-0.2c-0.267,0-0.616,0.217-1.05,0.65c-0.434,0.4-0.8,0.85-1.1,1.35
		l-0.4,0.25L82.4,102.5z M127.7,172.25c1.566,1.833,2.467,3.8,2.7,5.9l0.8,1.3c-0.334-4.066-0.95-7.334-1.851-9.8
		c-0.933-2.534-2-3.801-3.199-3.801c-0.4,0-0.9,0.334-1.5,1l-0.801,1C124.55,168.95,125.833,170.417,127.7,172.25z"/>
	<path style="fill-rule:evenodd;clip-rule:evenodd;fill:#BFB6AC;" d="M130.2,197.35v-0.05c0-0.6-0.816-2.75-2.45-6.45
		c-1.667-3.733-2.5-6.783-2.5-9.149c0-0.9,0.233-1.634,0.7-2.2c0.399-0.467,0.783-0.7,1.149-0.7c1.601,0,2.851,1.617,3.75,4.851
		c0.934,3.267,2.117,4.949,3.551,5.05l0.1-2.15c0,1.134-0.05,2.2-0.15,3.2c-0.199,1.167-0.716,2.566-1.55,4.2
		c-0.899,1.733-1.75,2.85-2.55,3.35L130.2,197.35z M127.35,201.35l0.601-1.399c0.166-0.2,0.5-0.517,1-0.95
		c-0.134,0.134-0.25,0.283-0.351,0.45C127.866,200.517,127.45,201.15,127.35,201.35z M113.7,213c0.066,0,0.133,0,0.2,0
		c1.166,0,2.116-0.083,2.85-0.25c0.667-0.167,1.816-0.566,3.45-1.2c-2.134,1-3.983,1.5-5.55,1.5
		C114.316,213.05,114,213.033,113.7,213z M117.15,207.2c0.1-0.033,0.25-0.367,0.449-1c0,0.267-0.033,0.5-0.1,0.7
		C117.4,207.1,117.283,207.2,117.15,207.2z M115.7,207.9c2.666-0.534,4.333-1.017,5-1.45c0.866-0.566,1.3-1.667,1.3-3.3l-0.15-6.25
		c1.534,1.399,2.767,3.866,3.7,7.399c0,1.733-0.283,2.917-0.85,3.55c-0.4,0.434-1.233,0.733-2.5,0.9
		c-4.233,0.533-7.75,1.733-10.55,3.6c-0.601-0.333-1.067-0.8-1.4-1.399c-1.3-2.2-2.667-3.767-4.1-4.7l0.399,0.1
		c0.101-1.933,0.95-5.566,2.55-10.899c1.7-5.733,3.2-9.5,4.5-11.3c0.167,0.399,0.75,2.316,1.75,5.75c0.9,3.133,1.517,5,1.851,5.6
		c0,0.434,0,1.833,0,4.2c0.033,2.033,0.017,3.467-0.05,4.3c-0.067,1.1-0.584,2-1.551,2.7c-1.066,0.566-1.716,0.934-1.949,1.1
		l1.449,0.15C115.767,207.95,115.967,207.934,115.7,207.9z M102.75,205.95L100.2,206l0.3-0.05H102.75z M79.4,199.7
		c2.966,0.267,4.85,0.6,5.649,1c0.101,0.267,0.2,0.983,0.3,2.149c0.2,1.233,0.584,2.284,1.15,3.15
		C83.033,202.533,80.667,200.434,79.4,199.7z M78.3,199.2c-2.133-1.066-3.733-1.917-4.8-2.55c-1.433-0.834-2.9-1.851-4.4-3.051
		c0.7,0,1.417-0.233,2.15-0.699c0.433-0.267,0.933-0.634,1.5-1.101L72.2,191.4c0.167,0.1,0.367,0.183,0.6,0.25
		c0.4,0.166,0.733,0.233,1,0.199l0.101-2.3v1.15L73.8,191.85c0.3,0.101,1.267,0.801,2.9,2.101c1.767,1.399,2.733,2.3,2.899,2.7
		c-0.233,0.3-0.649,0.649-1.25,1.05c-0.666,0.399-1.083,0.684-1.25,0.85L78.3,199.2z M88.55,135.55
		c0.101,2.566,1.017,5.834,2.75,9.8c1.334,3.034,2.717,5.65,4.15,7.851c0.866,1.566,2.316,3.883,4.35,6.95
		c1.934,2.866,3.066,4.649,3.4,5.35l-0.15-0.45c-0.767-1.333-1.45-2.616-2.05-3.85c-1.134-2.434-1.7-4.566-1.7-6.4
		c0-0.066,0.4-0.434,1.2-1.1l0.8,0.5c0,0.733,0.167,1.366,0.5,1.899c0.3,0.534,0.684,0.801,1.15,0.801
		c0.033,0.066,0.184,2.166,0.45,6.3c0.199,3.533,1.133,6.033,2.8,7.5v-1.4c-0.101-0.467,0.017-1.434,0.35-2.899
		c0.367-1.367,0.684-2.301,0.95-2.801l0.2,0.45c0.133,1.233,0.583,1.934,1.35,2.101c0.167-0.067,0.334-0.233,0.5-0.5
		c0.101-0.134,0.233-0.367,0.4-0.7c0.233,0.1,0.467,0.316,0.7,0.649c-0.733,1.634-1.167,2.617-1.301,2.95
		c-0.133,0.367-0.199,0.8-0.199,1.3c0,1.034,0.133,1.9,0.399,2.601c-1.267-0.167-2.017-0.283-2.25-0.351
		c-0.566-0.1-1.783-0.416-3.649-0.949c-0.467-0.534-0.967-1.95-1.5-4.25l0.1,1c0.134,0.833,0.4,1.866,0.8,3.1
		c-0.267-0.233-0.5-0.816-0.7-1.75c-0.333-1.467-0.683-2.667-1.05-3.6c-1.566-4.301-4.85-9.367-9.85-15.2l0.35,1.25
		c0.533,1.366,3.684,8.8,9.45,22.3c4,9.3,6,14.467,6,15.5c0,0.667-0.2,0.917-0.6,0.75c-0.301-0.033-1.817-0.634-4.551-1.8
		c0,0.166,0.25,1.383,0.75,3.649s0.75,3.5,0.75,3.7c0,1.767-0.85,2.65-2.55,2.65c-1.267,0-2.083-1.45-2.45-4.351
		c-0.533-4.166-0.933-6.583-1.199-7.25l-2.101,0.4l-1.6,0.3h-1.15c-1.1,0-3.649,0.15-7.649,0.45l-1.25-0.3
		c-0.233-2.033-1.051-4.351-2.45-6.95c-0.767-1.4-1.9-3.184-3.4-5.35c0.134-1.167-0.083-4.017-0.649-8.551
		c-0.634-5.1-0.967-8.3-1-9.6l0.25,1.9c1.1,7.233,2.033,12.616,2.8,16.149v-3.85c-0.101-2.967-0.267-6.2-0.5-9.7
		c-0.2-3.1-0.3-4.7-0.3-4.8l0.149-2.351l0.25,0.45c0.334,1.233,0.733,3.101,1.2,5.601c0.5,2.6,0.783,4.55,0.85,5.85
		c-0.033-1.733,0.084-4.116,0.351-7.15l0.55,1.551c1.167,6.3,1.866,10.949,2.1,13.949V173.4c0.2-3.134,0.317-7.317,0.351-12.551
		l0.3,1.2c0.467,3.167,1.083,5.566,1.85,7.2c0.634,1.467,1.567,2.684,2.801,3.65c0.1-0.7,0.149-1.384,0.149-2.051
		c0-1.267-0.35-4-1.05-8.199c-0.8-4.867-1.616-8.551-2.45-11.051c-0.033-0.1-0.5-0.75-1.399-1.949
		c-0.967-1.267-1.584-2.167-1.851-2.7c-0.434-0.9-0.666-2.217-0.7-3.95c-0.033-1.5-0.25-2.45-0.649-2.85L81,140.4
		c-0.366,0.533-0.65,1.116-0.85,1.75c-0.101,0.333-0.2,0.716-0.301,1.149c-0.966-0.533-2.35-3.316-4.149-8.35
		c-2.3,1.166-3.784,2.75-4.45,4.75c-0.4,1.233-0.533,3.184-0.4,5.85c0.133,2.8,0.333,6.05,0.6,9.75c0.066,1.367,0.3,2.783,0.7,4.25
		c0.033,0.134,0.583,1.934,1.65,5.4c0.967,3.267,1.7,5.85,2.2,7.75c-2.9-4.3-4.717-7.934-5.45-10.9c-0.4-2.8-0.966-5.1-1.7-6.899
		v0.949l0.15,0.9c1.1,3.634,2.333,8.25,3.7,13.85c1.033,4.334,1.8,7.733,2.3,10.2c-0.8-0.467-1.434-0.883-1.9-1.25l2.051,5
		c-0.034,0.167-0.15,0.517-0.351,1.05c-0.2,0.601-0.316,1.233-0.35,1.9H73.7c-0.033-0.8-0.4-2.717-1.1-5.75
		c-0.7-2.9-1.067-4.417-1.1-4.55l-0.45,11.35c0-0.533-0.183-0.916-0.55-1.149l-0.55-0.2c-1.667,0.333-2.934,0.45-3.8,0.35l0.25-0.05
		c0.333-0.8,0.067-1.75-0.8-2.85c-0.967-1-1.483-1.601-1.55-1.801c-0.367-1.433-0.75-4.25-1.15-8.449
		c-0.367-3.5-0.816-5.733-1.35-6.7l-0.1,1.399c-0.034,1.567-0.017,5.367,0.05,11.4c-0.467-9.333-0.7-15.1-0.7-17.3
		c0.3-8.467,0.633-13.434,1-14.9l0.6,1.65c1.167,5.366,2.434,12.816,3.8,22.35l-0.05-13.85l0.15,2
		c0.633,5.066,1.417,8.666,2.35,10.8c0.567,1.3,1.533,3.083,2.9,5.35c-1.066-2.366-2.367-6.75-3.9-13.149
		c-1.533-6.434-2.15-10.15-1.85-11.15c0.034-0.6,0.15-0.767,0.35-0.5c0.1,0.134,0.2,0.334,0.3,0.601
		c0.533,1.699,0.966,3.35,1.3,4.949l-0.1-1.35c-0.467-4.967-0.7-7.833-0.7-8.6c0-1.434,0.15-2.601,0.45-3.5
		c0.167,0.233,0.317,0.517,0.45,0.85c0.167,0.233,0.45,0.35,0.85,0.35c0.4,0,0.633-0.05,0.7-0.149c0.033-0.033,0.05-0.084,0.05-0.15
		c0.133-1,0.2-1.833,0.2-2.5c0-0.7-0.066-1.583-0.2-2.649c0.3,1.199,0.566,3.133,0.8,5.8c0.133,1.833,0.217,3.2,0.25,4.1v-8.25
		c-0.167-3.833-0.183-6.75-0.05-8.75c1.033,0.167,2.517,0.167,4.45,0c0.033,0.033,1.199,0.617,3.5,1.75
		c1.666,0.834,2.966,1.667,3.899,2.5c1.3,1.101,2.15,2.384,2.55,3.851c0.167-1.034,0.467-1.967,0.9-2.801
		C86.517,136.316,87.45,135.55,88.55,135.55z M55.4,125.55c0.434,0.467,2.517,1.233,6.25,2.3c1.9,0.867,3.434,2.017,4.6,3.45
		c-0.9-0.1-1.95-0.25-3.15-0.45c-1.467-0.233-2.45-0.366-2.95-0.399c1.133,1.934,2.267,3.45,3.4,4.55c0.5,0.5,0.75,1.2,0.75,2.1
		c0,0.634-0.066,1.834-0.2,3.601c-0.133,1.967-0.25,3.133-0.35,3.5l-0.05-0.25c-0.167-2.033-0.65-3.584-1.45-4.65
		c-0.367-0.5-1.167-1.149-2.4-1.95c-2.133-1.399-3.033-4.116-2.7-8.149l-0.8,0.45C56.083,127.983,55.767,126.616,55.4,125.55z
		 M65.15,121.25c-0.933,1.634-1.316,3.233-1.15,4.8c-0.567,0-1.817-0.35-3.75-1.05c-2.667-0.934-5.083-1.667-7.25-2.2l1.15,0.95
		l-4-3c0.667,0.267,2.35,0.884,5.05,1.85c3.367,1.2,5.433,1.867,6.2,2c0.2-0.133,0.317-1.566,0.35-4.3
		c0.067-2.5,0.633-3.75,1.7-3.75c0.667,0,0.933,0.066,0.8,0.2v3.45c0.6-0.467,0.933-0.434,1,0.1
		C65.283,120.566,65.25,120.884,65.15,121.25z M74.85,112.7l-0.1,7.1c0,0.533,0.066,1.65,0.2,3.351c0.1,1.767,0.2,3,0.3,3.699
		l0.55-2.149C75.7,120.634,75.384,116.634,74.85,112.7c0.267,0.333,1,1.35,2.2,3.05c0.667,0.934,1.15,1.467,1.45,1.6l0.7-0.25
		c0.366-0.899,0.566-2.083,0.6-3.55c0.033-1.333,0.367-2.566,1-3.7c0.101,0.134,0.184,0.351,0.25,0.65
		c0.134,0.233,0.4,0.35,0.8,0.35c0.334,0,0.351-0.233,0.051-0.699c-0.301-0.467-0.284-0.7,0.05-0.7c1.1,0,2.6,1.3,4.5,3.899
		c2.233,3.034,3.35,6.25,3.35,9.65c0,1.767-2.217,4.167-6.649,7.2c-0.5,0-3.017-0.566-7.551-1.7c-5.066-1.267-8.266-2.017-9.6-2.25
		c-0.567-1.2-0.85-2.767-0.85-4.7c0.033,0.2,0.233,0.884,0.6,2.05c0.367,1.2,0.6,1.917,0.7,2.15l0.1-1.25
		c-0.267-1.7-0.117-2.983,0.45-3.85c0.5-0.801,1.233-1.2,2.2-1.2c1.267,0,1.983,0.2,2.15,0.6c0.1,0.267,0.3,0.834,0.6,1.7
		c0.633-0.733,0.75-2.35,0.35-4.85c-0.4-2.467-0.216-4.15,0.55-5.051h-4c-0.767,0.667-1.6,1-2.5,1
		c-2.667-0.566-4.283-1.05-4.85-1.449c1-0.301,1.867-0.2,2.6,0.3c0.933,0.566,1.6,0.85,2,0.85c0.566,0,1.267-0.366,2.1-1.1
		c0.833-0.733,1.816-1.101,2.95-1.101C72.717,110.35,73.95,111.134,74.85,112.7z M45.2,112.95c1.1,1.967,2.733,3.3,4.9,4
		c2.5,0.8,3.883,1.333,4.15,1.6c-0.367,0.334-1.283,0.517-2.75,0.55c-1.667-0.033-2.75-0.033-3.25,0l0.9,0.801
		c-1.1,0-2.033-0.667-2.8-2C45.583,116.533,45.2,114.884,45.2,112.95z M60.35,111.5c-1.7,1-2.65,1.5-2.85,1.5
		c-0.733,0-2.1-0.4-4.1-1.2c-2-0.833-4.15-1.25-6.45-1.25c-1.1,0-1.833,0.283-2.2,0.851c0.167,0.399,0.3,0.8,0.4,1.199
		c-0.167-0.566-0.417-1.166-0.75-1.8l0.5-0.55c0.367-0.467,0.75-0.7,1.15-0.7c0.8,0,2.383,0.066,4.75,0.2
		c2.9,0.134,5.1,0.283,6.6,0.45c0,0.1,0.017,0.2,0.05,0.3c0.066-0.134,0.2-0.2,0.4-0.2c0.5,0,0.933,0.134,1.3,0.4
		C59.75,111.134,60.15,111.4,60.35,111.5z M32.45,106.3l2.25,0.2l-2.2-0.15L32.45,106.3z M24.95,83.5
		c-1.633-2.8-2.467-4.25-2.5-4.35l0.4,0.55c0.9-0.833,1.417-1.25,1.55-1.25c1.667,0,2.583-0.633,2.75-1.9
		c0-0.1-0.117-1.483-0.35-4.15c-0.167-1.733,0.184-3.1,1.05-4.1c0.1,0.333,0.383,0.517,0.85,0.55c0.466,0.033,1.85,0.033,4.15,0
		c0.133,0.133,0.483,0.583,1.05,1.35c0.567,0.667,0.934,1,1.1,1c0.667,0,1.033-0.067,1.1-0.2l0.1-2.15h1.3
		c-2.367-0.434-4.417-0.85-6.15-1.25c-0.567-0.133-1.217-0.2-1.95-0.2c-0.233,0-0.433,0.017-0.6,0.05
		c1.267-0.833,3.133-1.267,5.6-1.3h4.15c0.434,4.9,0.65,7.5,0.65,7.8l-0.05,2.35l0.75-4.8c-0.3,2.6-0.45,4.683-0.45,6.25
		c0,1.6,0.15,3.35,0.45,5.25c0.434,3.067,1.167,5.567,2.2,7.5c0.1-0.367,0.15-0.883,0.15-1.55c-0.533-6.967-0.8-10.784-0.8-11.45
		c0-5.033,0.566-7.55,1.7-7.55c2.5,0,4.184,1.517,5.05,4.55l-0.45-2.9c1.2,0.167,1.867,0.75,2,1.75c0.133,1.2,0.5,1.967,1.1,2.3
		c0.033-0.033,0.433-1.05,1.2-3.05c0.667-1.767,1.483-2.934,2.45-3.5l-0.8,3.35c-0.567,2.333-0.85,3.7-0.85,4.1
		c0,4.233,0.733,8.117,2.2,11.65c0.733,1.833,1.65,3.7,2.75,5.6l0.05-2.55c0.1,0.667,0.95,2.833,2.55,6.5c1.6,3.6,2.55,5.6,2.85,6
		c-0.8,0.033-1.833,0.317-3.1,0.85c-0.566-2.767-2.117-7.684-4.65-14.75l1,3.35c-0.9-1.867-1.467-3.067-1.7-3.6
		c-0.3-0.733-0.517-1.833-0.65-3.3l0.05,1.9c0.033,2.733,0.4,5.966,1.1,9.7c0.833,4.567,1.284,7.1,1.35,7.6l-7.3,0.1
		c0-1.367-0.067-2.717-0.2-4.05l-0.9,2.7c0.267-3.5,0.433-6.333,0.5-8.5c0.1-3.867-0.117-7.15-0.65-9.85
		c-0.167,0.7-0.3,1.05-0.4,1.05c-0.5,3.233-0.8,7.633-0.9,13.2c-0.533,4-2.55,6.133-6.05,6.4c0.6-0.233,0.95-0.383,1.05-0.45
		c0.333-0.233,0.5-0.567,0.5-1c0-0.4-0.066-0.65-0.2-0.75c-0.167-0.067-0.25-0.117-0.25-0.15l-2.7-0.15c0.033-1-0.066-2.633-0.3-4.9
		c-0.233-2.167-0.483-3.95-0.75-5.35l-0.6,1.45c-0.033,0.1-0.3,1.217-0.8,3.35c-0.333,1.433-0.617,2.283-0.85,2.55l0.05-0.65
		c0-0.667-0.15-1.167-0.45-1.5l-0.55,0.75l-1.35,2.8c-0.066-0.3-0.333-4.367-0.8-12.2c-0.467-7.333-1.1-11.9-1.9-13.7
		c-0.934,2.7-1.4,5.367-1.4,8l0.1,2.6c-0.367-1.233-0.85-2.183-1.45-2.85c-0.133-0.167-0.45-0.45-0.95-0.85
		c-0.233,0.233-0.45,0.917-0.65,2.05l-0.15-1c-0.5-1.033-1.283-2.05-2.35-3.05l0.4,0.65L24.95,83.5z M1.75,32.7l0.4-2.75
		c0.033,0.466,0.533,2.15,1.5,5.05c0.9,2.8,1.45,4.383,1.65,4.75c-0.867-1.2-1.433-2.05-1.7-2.55C3.2,36.5,2.583,35,1.75,32.7z
		 M22.7,11.6c-0.067,0.167-0.267,0.883-0.6,2.15c-0.4,1.467-0.733,2.317-1,2.55c-0.733,0.633-1.267,1.684-1.6,3.15
		c-0.2,0.8-0.383,2.383-0.55,4.75c-0.167,2-0.25,3.383-0.25,4.15c0,0.667,0.066,1.717,0.2,3.15l0.8-1.1c0.7-0.9,1.333-3.65,1.9-8.25
		C21.8,20.617,22.167,17.1,22.7,11.6z M27.15,8.85c-0.633,2.1-1.5,4.167-2.6,6.2c-0.566,1.034-0.85,2.75-0.85,5.15
		c0,0.667,0.05,8.2,0.15,22.6c0.867-6.633,1.383-10.3,1.55-11c0.067,0.333,0.233,2.833,0.5,7.5c0.833,5.434,2.8,10.434,5.9,15
		c-1.233-5.533-2.3-10.316-3.2-14.35C26.867,32.183,26,27.433,26,25.7c0-1.467,0.283-2.6,0.85-3.4l0.25,0.25
		c0.066,0.233,0.1,0.667,0.1,1.3c0.2-0.033,0.367-0.117,0.5-0.25c0.233-0.267,0.483-0.917,0.75-1.95
		c0.167,2.733,0.917,7.833,2.25,15.3c1.2,6.767,2.033,10.95,2.5,12.55l-0.05-1.1c-0.333-4.233-0.633-9.167-0.9-14.8
		c-0.333-6-0.5-10.083-0.5-12.25c0-1,0.1-1.767,0.3-2.3c0.333-0.566,0.583-1.066,0.75-1.5c-2.066,0.6-3.4,0.467-4-0.4
		c-0.3-0.433-0.45-1.45-0.45-3.05c0.1-2.434,0.117-4.434,0.05-6c0.1-0.033,1.75-0.75,4.95-2.15l-0.2,3.4c0,1.533,0.417,2.5,1.25,2.9
		c0.733,0.333,2.383,0.45,4.95,0.35L38.7,33.1c0,3.133,0.35,6.933,1.05,11.4c0.7,4.367,1.383,7.25,2.05,8.65l0.1-0.35
		c0-5.566,0.067-10.2,0.2-13.9c1.367,8.667,2.267,13.434,2.7,14.3c0.034,0.1,0.3,0.433,0.8,1c0.467,0.533,1,1.5,1.6,2.9
		c0.167-0.233,0.316-0.5,0.45-0.8c-0.133-15.233-0.183-24.35-0.15-27.35c0.033-3.034,0.817-9.067,2.35-18.1
		c-3,9.4-5.35,16.667-7.05,21.8c-0.267,0.833-0.417,1.517-0.45,2.05l0.15-7.95v6.75c0.433-4.2,1.117-8.283,2.05-12.25
		c1.034-4.367,1.567-6.65,1.6-6.85c0.7-1.5,1.15-2.95,1.35-4.35c0.1-1.633,0.183-2.95,0.25-3.95l0.75,0.3
		c0.733,1,1.267,2.583,1.6,4.75c0.3,1.767,0.417,3.45,0.35,5.05c-0.2,2.1-0.284,4.05-0.25,5.85v3.6l-0.05,12.3
		c0,5.7,0.45,10.183,1.35,13.45c0.533,2,1.117,3.25,1.75,3.75c-0.367,0.467-1.183,1.934-2.45,4.4C50.3,60.517,49.383,61,48.05,61
		c-1.066,0-3.267-0.533-6.6-1.6c-3.2-1.1-4.917-1.667-5.15-1.7c-12.533-1.733-19.816-2.6-21.85-2.6
		c-0.367-1.967-0.983-3.767-1.85-5.4c1.367,2.066,2.433,3.367,3.2,3.9l-0.5-0.8l-2.9-3.5c-0.066-0.1-0.117-0.183-0.15-0.25
		c-0.433-0.733-1.6-2.35-3.5-4.85c-1.867-2.267-3.083-5-3.65-8.2c-0.233-1.333-0.35-3.2-0.35-5.6c0-1.5,0.3-2.517,0.9-3.05
		c0.167-0.133,0.517-0.267,1.05-0.4l0.15,1.15L6.8,29.05l1-2.7c0.967,6.133,1.867,10.2,2.7,12.2c0.667,1.6,2.017,3.333,4.05,5.2
		V42.9c-0.466-1.833-0.933-4.017-1.4-6.55c-0.867-5.067-1.3-10.817-1.3-17.25L12,12.8c0.633,0.567,1.083,1.083,1.35,1.55
		c0.333,0.6,0.5,1.333,0.5,2.2c0,2.267-0.033,4.25-0.1,5.95c0.033,1.167,0.283,3.4,0.75,6.7v-2.05c0.067-2.767,0.383-7.5,0.95-14.2
		l-0.35-0.1c0.167,0.033,0.333,0.066,0.5,0.1c0.033,0.433,0.267,2.483,0.7,6.15c0.4,3.733,0.567,6.316,0.5,7.75l0.4-1.15
		c0.4-1.6,0.733-3.117,1-4.55c0.133-0.2,0.85-1.733,2.15-4.6c1.3-2.833,2.033-4.45,2.2-4.85c0.034-0.034,0.083-0.067,0.15-0.1
		c0.066-0.033,0.117-0.067,0.15-0.1C23.717,11.033,25.15,10.15,27.15,8.85z M96.15,108.75l0.75,2.2l2.85,7.7
		c-1.167-0.101-2.017-0.167-2.55-0.2c-0.934-0.066-2.066,0.35-3.4,1.25c-0.133-2.134-0.133-3.917,0-5.351
		c0.233-2.733,1.05-4.483,2.45-5.25L96.15,108.75z M104.2,127.85l-0.15-0.25l0.8,1.2l0.65,1.05L104.2,127.85z M73.55,71.35l-0.1,1.9
		c-0.267,2.2,0.283,5.283,1.649,9.25c0.733,2.033,1.551,4.267,2.45,6.7c-0.033,0.267,1.05,1.566,3.25,3.9
		c1.101,1.167,2.2,2.3,3.3,3.4c-0.1-0.6-1.616-4.367-4.55-11.3C76.95,79.067,74.95,74.45,73.55,71.35z M65.05,103.75
		c-0.566-4.2-1.117-7.983-1.65-11.35c-1.033-6.566-2.267-10.417-3.7-11.55c-1.8-1.467-2.934-3.7-3.4-6.7
		c-0.133-3.066-0.25-4.933-0.35-5.6h1.5l0.05,0.55c0.133,0.733,0.117,1.15-0.05,1.25c-0.034,0.033,0.35,0.35,1.15,0.95
		c4.667-2.7,8.867-4.983,12.6-6.85l-1.7-0.3h-7.6c3.167-0.7,5.184-1.333,6.05-1.9c0.5-0.333,1.133-0.5,1.9-0.5
		c0.066,0,0.85,0.483,2.35,1.45c1.399,0.933,2.316,1.55,2.75,1.85c1.434,1.034,2.717,3.1,3.85,6.2c0.9,2.533,1.367,4.467,1.4,5.8
		l0.1-6.5c0-1.333-0.083-2.7-0.25-4.1L80.9,66.7c4.933,1.767,8.033,4.45,9.3,8.05c0.3,0.967,0.649,2.3,1.05,4
		c0.434,1.4,1.083,2.433,1.95,3.1c0,5,0.233,10.483,0.7,16.45c-1.034,1.6-3.067,2.5-6.101,2.7c-3.166-0.067-5.116,0-5.85,0.2
		l0.45,1.3c-3.534-8.667-8-19-13.4-31l-0.1,0.75c0.5,2.867,1.633,6.9,3.4,12.1c2.7,8.033,4.733,14.383,6.101,19.05
		c-0.5,0.2-1.184,0.417-2.051,0.65c-1.199,0.333-2.166,0.5-2.899,0.5C73.184,104.55,70.383,104.283,65.05,103.75z M49.3,80.2
		c-0.066-0.2-0.1-0.117-0.1,0.25c2.367,8.9,3.367,12.216,3,9.95C51.667,87.5,50.7,84.1,49.3,80.2z M49.3,81.4
		c0.034,0.7,0.133,1.717,0.3,3.05c0.2,1.733,0.45,3.733,0.75,6c0.167,2.4,0.267,4.033,0.3,4.9c0.1,2.467,0.7,4.75,1.8,6.85l0.2-0.95
		C52.75,100.317,51.633,93.7,49.3,81.4z M41.8,66.7l-1.3,0.85c0.367-0.267,0.583-1.933,0.65-5v3.35
		C41.583,65.9,41.8,66.167,41.8,66.7z M80.5,113.2c-0.2,0.333-0.384,0.85-0.55,1.55c-0.2,0.767-0.3,1.384-0.3,1.85
		c0,6.9,0.483,10.983,1.449,12.25l0.351-1.5l0.05-3.6C81.5,118.983,81.167,115.467,80.5,113.2z M67.1,132.5
		c0.7,1.134,1.217,2.434,1.55,3.9c-0.7-0.934-1.167-1.684-1.4-2.25c-0.133-0.367-0.2-0.784-0.2-1.25L67.1,132.5z M80.15,174.85
		l0.149,0.4c0.101,0.1,0.467,0.634,1.101,1.6c0.699,0.9,1.25,1.351,1.649,1.351c0.967,0,2.417,0.2,4.351,0.6
		c1.933,0.367,3.366,0.55,4.3,0.55c0.166,0,0.434-0.283,0.8-0.85s0.9-0.85,1.6-0.85l4.45,1.3c0.667,0,0.8-0.134,0.4-0.4
		c0.033-1.033,0.184-2.233,0.45-3.6l0.449-1.75c0-0.667-1.116-1.884-3.35-3.65c0.267,2.033,0.384,3.467,0.35,4.3
		c-1.8-0.267-3.199-0.166-4.199,0.301c-0.134,0.066-0.851,0.616-2.15,1.649c-0.566,0.4-2.333,0.367-5.3-0.1
		C82.2,175.167,80.517,174.884,80.15,174.85z M94,99.15l0.35,2.15L94.1,100L94,99.15z M84.55,143.5c0.033,0.3,0.117,0.75,0.25,1.35
		c0.134,0.5,0.334,1.117,0.601,1.851c0.566,1.7,1.149,2.833,1.75,3.399V146.2l-2.551-2.9L84.55,143.5z M93.8,148.15
		c-0.833-2.4-1.399-4.534-1.7-6.4c-0.366-2.066-0.483-4.25-0.35-6.55c0.033,0,3.65,1.666,10.85,5c7.067,3.267,10.95,4.934,11.65,5
		l2.6,2.2c0.4,0.267,2.051,1.6,4.95,4l-3.95,0.449c-0.166,0.101-0.283,0.217-0.35,0.351v0.05c-3.9-2.5-6.384-3.75-7.45-3.75
		c-0.366,0.033-0.616,0.566-0.75,1.6c-2-0.633-3.899-1.433-5.7-2.399c-3.533-1.9-5.35-4.066-5.449-6.5l-4.301,5L93.8,148.15z
		 M84.7,196.7c-1.3-2.4-1.634-5.334-1-8.8c0.333,0.066,0.733,0.1,1.2,0.1c3.033,1.167,6.3,1.917,9.8,2.25
		c1.967,0.566,2.95,2.5,2.95,5.8c0,2.134-1.351,3.2-4.051,3.2c-0.333,0-0.866,0.167-1.6,0.5c-0.767,0.333-1.316,0.5-1.65,0.5
		C87.884,200.25,86,199.066,84.7,196.7z M82.6,187.6l1.051,0.101l0.05,0.2c-0.037-0.134-0.188-0.2-0.45-0.2
		C83.05,187.733,82.833,187.7,82.6,187.6z M113.85,169.6c-0.699,0-1.283,0.284-1.75,0.851c-0.5,0.533-0.75,1.2-0.75,2
		c-0.267-1.601-0.433-3.767-0.5-6.5l1,3.85l0.25-0.8c0.101-0.6,0.25-2.533,0.45-5.8c0.134-2.4,0.467-4.3,1-5.7
		c0.033-0.033,0.334-0.467,0.9-1.3c0.267-0.434,0.783-0.65,1.55-0.65c0.667,0,1.017,0.017,1.05,0.05l-0.2,6.2
		c0,1.367,0.167,2.3,0.5,2.8l0.601-0.1c0.666-0.7,1.083-1.333,1.25-1.9c0.166-0.6,0.25-1.8,0.25-3.6c0-0.434-0.101-1.05-0.3-1.85
		c-0.167-0.7-0.284-1.084-0.351-1.15l6.8,1.85c0.733,0,1.384,0.967,1.95,2.9c0.467,1.566,0.7,2.934,0.7,4.1
		c-0.066-0.1-0.4-0.166-1-0.199c-1.267-0.034-3.167,0.75-5.7,2.35c-0.8,0.5-1.649,1.3-2.55,2.4c-0.533,0.633-1.25,0.949-2.15,0.949
		c-0.399,0-0.683-0.033-0.85-0.1l-0.1-0.15c-0.167-0.8-0.334-1.983-0.5-3.55c-0.167-1.399-0.25-2.399-0.25-3
		c0-1.166,0.166-2.866,0.5-5.1c-1.134,5.267-1.717,7.967-1.75,8.1C113.833,167.116,113.816,168.134,113.85,169.6z"/>
	<path style="fill-rule:evenodd;clip-rule:evenodd;fill:#7B756E;" d="M113.85,169.6c-0.033-1.466-0.017-2.483,0.051-3.05
		c0.033-0.133,0.616-2.833,1.75-8.1c-0.334,2.233-0.5,3.934-0.5,5.1c0,0.601,0.083,1.601,0.25,3c0.166,1.566,0.333,2.75,0.5,3.55
		l0.85,2.7l-0.9-0.2l-0.8-0.449c0.367,2.1,1.167,4.3,2.4,6.6c1.3,2.366,2.8,4.35,4.5,5.95c2.2,2.066,3.7,4.866,4.5,8.399
		c0.434,1.834,0.934,4.117,1.5,6.851l-0.601,1.399c-0.033,0.134-0.199,1.467-0.5,4c-0.233,1.7-0.699,2.851-1.399,3.45
		c-0.101-1.033-0.033-2.434,0.2-4.2c0.233-2,0.333-3.466,0.3-4.399c-0.101-3.7-1.917-7.667-5.45-11.9c0,0.667-0.05,1-0.15,1
		c0.101,6.2-0.233,10.55-1,13.05c-0.399,1.367-0.983,2.65-1.75,3.851c-0.199,0.633-0.35,0.967-0.449,1
		c-0.301,0.3-0.784,0.533-1.45,0.7c0.267,0.033,0.066,0.05-0.601,0.05l-1.449-0.15c0.233-0.166,0.883-0.533,1.949-1.1
		c0.967-0.7,1.483-1.601,1.551-2.7c0.066-0.833,0.083-2.267,0.05-4.3c0-2.367,0-3.767,0-4.2c0.434-3.833,0.283-6.866-0.45-9.1
		c-0.866-2.667-1.3-4.983-1.3-6.95c0-0.4-0.217-1.9-0.65-4.5C114.3,172.116,113.983,170.333,113.85,169.6z M105.6,206.1L104.9,206
		c0-0.866-0.134-1.667-0.4-2.4s-0.634-1.233-1.1-1.5c-0.467-0.3-0.917-0.316-1.351-0.05c-0.467,0.267-0.833,0.767-1.1,1.5
		c-0.3,0.7-0.45,1.5-0.45,2.4l-0.3,0.05H87.7c0.133,0,1.45-0.217,3.95-0.65c2.666-0.533,4.466-1.066,5.399-1.6
		c-0.467-0.6-0.983-1.1-1.55-1.5c-0.2-0.1-0.783-0.417-1.75-0.95c1.134-0.3,2.583-0.566,4.35-0.8c1.2-0.233,1.801-0.667,1.801-1.3
		c0-0.434,0.199-0.667,0.6-0.7c0.233-0.033,0.684-0.017,1.35,0.05c0.101,0,0.667,0.05,1.7,0.15c1.167-0.267,2.25-1.283,3.25-3.05
		l0.05,1.05c-0.1,1.366-0.25,3-0.449,4.899C106.1,204.134,105.833,205.634,105.6,206.1z M106.3,194.7c-0.434,0-0.717-0.101-0.85-0.3
		c-0.033-0.034-0.117-0.25-0.25-0.65l0.399-0.9c0.101,0.233,0.233,0.317,0.4,0.25c0.333-0.066,1.167-0.483,2.5-1.25
		C108.066,193.75,107.333,194.7,106.3,194.7z M103.65,171.15c-0.101,0.3,1.433,2.433,4.6,6.399c1.233,1.533,1.85,2.851,1.85,3.95
		c0,0.667-0.083,2.233-0.25,4.7l-1.35-1c-0.333-0.2-1.167-2.217-2.5-6.05c-1.6-4.601-2.583-7.317-2.95-8.15
		c-0.399-1.233-0.666-2.267-0.8-3.1l-0.1-1C102.684,169.2,103.184,170.616,103.65,171.15z M95.3,187.25
		c0.601,0.333,1.334,0.866,2.2,1.6l-2.55,0.2c-0.967,0.033-1.684-0.116-2.15-0.45c-0.333-0.333-0.416-0.683-0.25-1.05h1.15
		L95.3,187.25z M15.25,59.55c1.667-0.267,2.883,0.2,3.65,1.4c0.967,1.533,1.617,2.367,1.95,2.5c-1.567,0.1-2.367,0.767-2.4,2
		c0,1.433-0.6,2.383-1.8,2.85L15.25,59.55z M18.2,21.15l-1.1,1.65l0.65-9.75l1.55-0.2l1-0.3c0.8-0.3,1.55-0.6,2.25-0.9v0.05
		c-0.167,0.4-0.9,2.017-2.2,4.85C19.05,19.417,18.333,20.95,18.2,21.15z M45.95,4.9c0.3,3.3,0.367,6.467,0.2,9.5
		c-0.033,0.2-0.566,2.483-1.6,6.85c-0.933,3.967-1.617,8.05-2.05,12.25v-6.75c0.3-6.833,0.317-10.833,0.05-12
		c-0.1-0.533-0.3-0.85-0.6-0.95c-0.434-0.066-0.784-0.167-1.05-0.3c-0.033-2.733-0.167-5.65-0.4-8.75
		c1.467-0.1,2.95-0.117,4.45-0.05L45.95,4.9z M46.4,62.35c1.867,0.2,3.9-0.25,6.1-1.35c1.933-0.933,2.9-1.65,2.9-2.15l-0.3-3
		c1.033,1.066,2.75,2.05,5.15,2.95c2.5,0.967,4.717,1.35,6.65,1.15c-1.467,0.2-3.967,0.55-7.5,1.05c-2.467,0.367-4.367,1.4-5.7,3.1
		c-2.367,0.1-4.633,0.283-6.8,0.55L46.4,62.35z M46.25,62.3l0.3,2.4l-0.75,0.2c-1.933-1.233-3.417-2.133-4.45-2.7
		c-1.833-0.967-4.2-1.45-7.1-1.45l-5,0.15c0.767-0.2,3.6-0.583,8.5-1.15c1.167,0,2.7,0.367,4.6,1.1
		C44.883,61.817,46.183,62.3,46.25,62.3z M23.6,65.1c0.3,0.3,0.45,0.667,0.45,1.1c0,0.433-0.15,0.8-0.45,1.1
		c-0.3,0.3-0.65,0.45-1.05,0.45c-0.4,0-0.75-0.15-1.05-0.45c-0.3-0.3-0.45-0.667-0.45-1.1c0-0.434,0.15-0.8,0.45-1.1
		c0.3-0.3,0.65-0.45,1.05-0.45C22.95,64.65,23.3,64.8,23.6,65.1z M49.35,105.6c0,0.367-0.067,1.117-0.2,2.25
		c-0.233,0.167-0.433,0.301-0.6,0.4l-0.3,0.05c-0.267,0.334-0.4,0.167-0.4-0.5c0.233-1.667,0.367-2.85,0.4-3.55l0.9-2.7
		C49.283,102.883,49.35,104.233,49.35,105.6z M60.15,104.6c0.167,1.233,0.2,2.45,0.1,3.65c-0.133,1.3-0.367,1.616-0.7,0.95
		c-1.066-0.601-1.6-2.434-1.6-5.5c0-0.967,0.267-1.883,0.8-2.75l-0.1-0.75l-2.15-7l-1-3.35
		C58.033,96.917,59.583,101.833,60.15,104.6z M75.55,61.55c0.7-0.5,1.684-0.733,2.95-0.7L78.45,62c-0.467,1-1.117,1.45-1.95,1.35
		c-0.6-0.1-1.167-0.417-1.7-0.95C75.1,61.967,75.35,61.683,75.55,61.55z M94.35,101.3l0.9,4.4c-2.333,0.966-3.667,1.55-4,1.75
		c-0.9,0.633-1.35,1.566-1.35,2.8c0,0.333,0.1,1.4,0.3,3.2c0.166,1.8,0.166,3.05,0,3.75l-0.9-1.2
		c-1.066-3.767-1.783-6.066-2.149-6.9c-0.467-1.1-1.301-1.649-2.5-1.649l-1.7,0.149l-2.45,1.95c0.333-1.166,0.2-1.583-0.4-1.25
		c-0.333,0.167-0.866,0.617-1.6,1.351l-1.45,1.5c-0.434-0.301-0.767-0.767-1-1.4c-0.267-0.6-0.566-1.033-0.899-1.3
		c-1.167-0.834-4.617-1.134-10.351-0.9l0.5-0.2c0.633-0.333,2.717-0.566,6.25-0.7c5.066-0.233,7.95-0.383,8.65-0.45
		c-0.367-1.067-0.733-2.333-1.101-3.8c-0.8-2.933-1.233-5.783-1.3-8.55c0.066,0.433,0.184,0.9,0.351,1.4
		c0.399,0.833,1.816,3.25,4.25,7.25l1.35,3.25l0.4-0.25c0.3-0.5,0.666-0.95,1.1-1.35c0.434-0.433,0.783-0.65,1.05-0.65
		c1.8,0,3.566,0.067,5.3,0.2c0.934-0.2,1.567-1.483,1.9-3.85l0.6,0.15L94.35,101.3z M64,126.05c-0.167-1.566,0.217-3.166,1.15-4.8
		v0.3c0,1.934,0.283,3.5,0.85,4.7c0.633,1.033,1.733,2.033,3.3,3c1,0.6,2.95,1.7,5.851,3.3H74.9c-1.934,0.167-3.417,0.167-4.45,0
		c-0.7-0.333-1.65-0.983-2.85-1.95c-1.567-1.199-2.817-2.1-3.75-2.699l0.85-0.051L64,126.05z M73.7,187.5l0.2,2.05
		c0.566,0.101,1.316-0.017,2.25-0.35c0.666-0.834,1-3.283,1-7.351c0-0.666-1-4.216-3-10.649c0.267,0.6,1.416,2.316,3.449,5.149
		v0.051c0.101,0.133,0.2,0.267,0.301,0.399c2.1,4.066,3.149,9.167,3.149,15.3c0,0.667-0.083,1.917-0.25,3.75l-0.5-0.75L78.9,192.2
		c-0.467,0.566-1.167,0.85-2.101,0.85c-0.6,0-1.2-0.333-1.8-1c-0.566-0.733-0.934-1.184-1.1-1.35v-1.15l-0.101,2.3
		c-0.267,0.034-0.6-0.033-1-0.199c-0.233-0.067-0.433-0.15-0.6-0.25c-0.133-0.101-0.233-0.184-0.3-0.25
		c-0.4-0.467-1.167-1.034-2.3-1.7c-1.133-0.667-2.017-1.066-2.65-1.2l1.95-0.05l2.15,0.35l0.45-11.35
		c0.033,0.133,0.4,1.649,1.1,4.55C73.3,184.783,73.667,186.7,73.7,187.5z M111.35,172.45c0.134,0.467,0.134,0.816,0,1.05l-1.8-1.05
		c-0.267-0.7-0.399-1.566-0.399-2.601c0-0.5,0.066-0.933,0.199-1.3c0.134-0.333,0.567-1.316,1.301-2.95l0.199,0.351
		C110.917,168.684,111.083,170.85,111.35,172.45z M93.8,148.15l1.65,5.05c-1.434-2.2-2.816-4.816-4.15-7.851
		c-1.733-3.966-2.649-7.233-2.75-9.8l-0.05-3.7h-3.35c1.733-0.3,3.833-1.399,6.3-3.3c2.333-1.833,3.75-2.75,4.25-2.75
		c0.899,0,2.25,0.3,4.05,0.9c2.033,0.666,3.517,1.05,4.45,1.149l1.3,2l0.85,1.351l0.5,4.899c-2.1-1.699-3.85-3.083-5.25-4.149
		c-2.633-2.066-4.35-3.101-5.149-3.101c-0.9,0-1.417,0.7-1.55,2.101c-0.167,2-0.267,3.017-0.301,3.05l-0.75,0.2l-2-0.3l-0.1,1.3
		c-0.134,2.3-0.017,4.483,0.35,6.55C92.4,143.616,92.967,145.75,93.8,148.15z M127.7,172.25c-1.867-1.833-3.15-3.3-3.851-4.4
		l0.801-1c0.6-0.666,1.1-1,1.5-1c1.199,0,2.267,1.267,3.199,3.801c0.9,2.466,1.517,5.733,1.851,9.8l-0.8-1.3
		C130.167,176.05,129.267,174.083,127.7,172.25z"/>
	<path style="fill-rule:evenodd;clip-rule:evenodd;fill:#D9D1C5;" d="M66.15,187.55c-0.833,0.134-1.85,0.05-3.05-0.25
		c-0.067-0.033-0.117-0.05-0.15-0.05l-1.35-1.95c-3.1-4.633-4.717-12.383-4.85-23.25c0.4-11.666,0.467-19.333,0.2-23
		c-0.167-3.434-0.317-5.816-0.45-7.149l-0.2-2.25h0.05l0.8-0.45c-0.333,4.033,0.567,6.75,2.7,8.149c1.233,0.801,2.033,1.45,2.4,1.95
		c0.8,1.066,1.283,2.617,1.45,4.65l0.05,0.25c0.1-0.367,0.217-1.533,0.35-3.5c0.133-1.767,0.2-2.967,0.2-3.601
		c0-0.899-0.25-1.6-0.75-2.1c-1.133-1.1-2.267-2.616-3.4-4.55c0.5,0.033,1.483,0.166,2.95,0.399c1.2,0.2,2.25,0.351,3.15,0.45
		c0.3,0.033,0.583,0.066,0.85,0.101v1.1l-0.05,0.4c0,0.466,0.067,0.883,0.2,1.25c0.233,0.566,0.7,1.316,1.4,2.25
		c0.367,0.933,0.633,2.017,0.8,3.25c0.133,1.066,0.2,1.949,0.2,2.649c0,0.667-0.066,1.5-0.2,2.5c0,0.066-0.017,0.117-0.05,0.15
		c-0.066,0.1-0.3,0.149-0.7,0.149c-0.4,0-0.684-0.116-0.85-0.35c-0.133-0.333-0.283-0.616-0.45-0.85c-0.3,0.899-0.45,2.066-0.45,3.5
		c0,0.767,0.233,3.633,0.7,8.6l0.1,1.35c-0.333-1.6-0.767-3.25-1.3-4.949c-0.1-0.267-0.2-0.467-0.3-0.601
		c-0.2-0.267-0.316-0.1-0.35,0.5c-0.3,1,0.317,4.717,1.85,11.15c1.533,6.399,2.833,10.783,3.9,13.149
		c-1.367-2.267-2.333-4.05-2.9-5.35c-0.933-2.134-1.717-5.733-2.35-10.8l-0.15-2l0.05,13.85c-1.367-9.533-2.633-16.983-3.8-22.35
		l-0.6-1.65c-0.367,1.467-0.7,6.434-1,14.9c0,2.2,0.233,7.967,0.7,17.3c-0.067-6.033-0.083-9.833-0.05-11.4l0.1-1.399
		c0.534,0.967,0.983,3.2,1.35,6.7c0.4,4.199,0.783,7.017,1.15,8.449c0.067,0.2,0.583,0.801,1.55,1.801
		c0.867,1.1,1.133,2.05,0.8,2.85L66.15,187.55z M74.85,112.7c0.534,3.934,0.851,7.934,0.95,12l-0.55,2.149
		c-0.1-0.699-0.2-1.933-0.3-3.699c-0.134-1.7-0.2-2.817-0.2-3.351L74.85,112.7z M65.15,121.25c0.1-0.366,0.133-0.684,0.1-0.95
		c-0.067-0.533-0.4-0.566-1-0.1v-3.45c0.133-0.134-0.133-0.2-0.8-0.2c-1.067,0-1.633,1.25-1.7,3.75
		c-0.033,2.733-0.15,4.167-0.35,4.3c-0.767-0.133-2.833-0.8-6.2-2c-2.7-0.966-4.383-1.583-5.05-1.85l-1-0.85l-0.9-0.801
		c0.5-0.033,1.583-0.033,3.25,0c1.467-0.033,2.383-0.216,2.75-0.55c-0.267-0.267-1.65-0.8-4.15-1.6c-2.167-0.7-3.8-2.033-4.9-4
		l-0.05-0.351c-0.1-0.399-0.233-0.8-0.4-1.199c0.367-0.567,1.1-0.851,2.2-0.851c2.3,0,4.45,0.417,6.45,1.25c2,0.8,3.367,1.2,4.1,1.2
		c0.2,0,1.15-0.5,2.85-1.5l1.15-0.1c0.567,0.399,2.183,0.883,4.85,1.449c0.9,0,1.733-0.333,2.5-1h4
		c-0.767,0.9-0.95,2.584-0.55,5.051c0.4,2.5,0.284,4.116-0.35,4.85c-0.3-0.866-0.5-1.434-0.6-1.7c-0.167-0.399-0.883-0.6-2.15-0.6
		c-0.967,0-1.7,0.399-2.2,1.2c-0.567,0.866-0.717,2.149-0.45,3.85l-0.1,1.25c-0.1-0.233-0.333-0.95-0.7-2.15
		c-0.367-1.166-0.567-1.85-0.6-2.05V121.25z M12.6,49.7c-0.133-0.233-0.283-0.467-0.45-0.7l0.25,0.3l2.9,3.5l0.5,0.8
		C15.033,53.067,13.967,51.767,12.6,49.7z M63.25,103.75c-0.3-0.4-1.25-2.4-2.85-6c-1.6-3.667-2.45-5.833-2.55-6.5L57.8,93.8
		c-1.1-1.9-2.017-3.767-2.75-5.6c-1.466-3.534-2.2-7.417-2.2-11.65c0-0.4,0.283-1.767,0.85-4.1l0.8-3.35
		c-0.967,0.566-1.783,1.733-2.45,3.5c-0.767,2-1.167,3.017-1.2,3.05c-0.6-0.333-0.967-1.1-1.1-2.3c-0.133-1-0.8-1.583-2-1.75
		l0.45,2.9c-0.867-3.033-2.55-4.55-5.05-4.55c-1.133,0-1.7,2.517-1.7,7.55c0,0.667,0.267,4.483,0.8,11.45
		c0,0.667-0.05,1.183-0.15,1.55c-1.033-1.933-1.767-4.433-2.2-7.5c-0.3-1.9-0.45-3.65-0.45-5.25c0-1.567,0.15-3.65,0.45-6.25
		c0.4-1.767,0.6-3.083,0.6-3.95l1.3-0.85l1.7-1.15l2.3-0.65l0.75-0.2l-0.3-2.4l-0.1-0.75l0.25,0.8l0.5,2.3
		c2.167-0.267,4.434-0.45,6.8-0.55l8.2,0.05h7.6l1.7,0.3c-3.733,1.867-7.934,4.15-12.6,6.85c-0.8-0.6-1.184-0.917-1.15-0.95
		c0.167-0.1,0.183-0.517,0.05-1.25l-0.05-0.55h-1.5c0.1,0.667,0.216,2.534,0.35,5.6c0.467,3,1.6,5.233,3.4,6.7
		c1.433,1.133,2.667,4.983,3.7,11.55c0.533,3.367,1.083,7.15,1.65,11.35c0.133,0.733,0.167,1.233,0.1,1.5
		c-0.367-0.233-0.8-0.55-1.3-0.95L63.25,103.75z M24.95,83.5l-0.55-1.3L24,81.55c1.067,1,1.85,2.017,2.35,3.05l0.15,1
		c0.2-1.133,0.417-1.817,0.65-2.05c0.5,0.4,0.817,0.684,0.95,0.85c0.6,0.667,1.083,1.617,1.45,2.85l-0.1-2.6
		c0-2.633,0.466-5.3,1.4-8c0.8,1.8,1.433,6.367,1.9,13.7c0.467,7.833,0.733,11.9,0.8,12.2l1.35-2.8L35.45,99
		c0.3,0.333,0.45,0.833,0.45,1.5l-0.05,0.65c0.233-0.267,0.517-1.117,0.85-2.55c0.5-2.133,0.767-3.25,0.8-3.35l0.6-1.45
		c0.267,1.4,0.517,3.184,0.75,5.35c0.233,2.267,0.333,3.9,0.3,4.9l2.7,0.15c0,0.033,0.083,0.083,0.25,0.15
		c0.133,0.1,0.2,0.35,0.2,0.75c0,0.433-0.167,0.767-0.5,1c-0.1,0.066-0.45,0.217-1.05,0.45c-1.067,0.2-2.85,0.2-5.35,0l-0.7-0.05
		l-2.25-0.2c-1.233-1.533-2.6-5.117-4.1-10.75C26.55,88.683,25.417,84.667,24.95,83.5z M1.75,32.7c-0.2-0.767-0.517-2.85-0.95-6.25
		C0.267,22.317,0,19.183,0,17.05c0-2.3,0.467-3.933,1.4-4.9c0.867-0.867,2.333-1.3,4.4-1.3c1.233,0,2.284,0.167,3.15,0.5
		c0.966,0.4,1.95,0.633,2.95,0.7L12,12.8l-0.15,6.3c0,6.433,0.433,12.183,1.3,17.25c0.467,2.533,0.934,4.717,1.4,6.55v0.85
		c-2.033-1.867-3.383-3.6-4.05-5.2c-0.833-2-1.733-6.066-2.7-12.2l-1,2.7l0.05-0.95L6.7,26.95c-0.534,0.133-0.883,0.267-1.05,0.4
		c-0.6,0.533-0.9,1.55-0.9,3.05c0,2.4,0.117,4.267,0.35,5.6c0.566,3.2,1.783,5.933,3.65,8.2l0.05,0.1
		c-2.233-2.833-3.4-4.35-3.5-4.55C5.1,39.383,4.55,37.8,3.65,35c-0.967-2.9-1.467-4.583-1.5-5.05L1.75,32.7z M28.8,67.45
		c0.167-0.034,0.367-0.05,0.6-0.05c0.733,0,1.383,0.067,1.95,0.2c1.733,0.4,3.783,0.816,6.15,1.25h-1.3L36.1,71
		c-0.067,0.133-0.434,0.2-1.1,0.2c-0.167,0-0.533-0.333-1.1-1c-0.566-0.767-0.917-1.217-1.05-1.35c-2.3,0.033-3.684,0.033-4.15,0
		c-0.467-0.033-0.75-0.217-0.85-0.55v-0.05C27.983,67.817,28.3,67.55,28.8,67.45z M27.15,8.85L28.4,8.1
		c0.067,1.566,0.05,3.566-0.05,6c0,1.6,0.15,2.617,0.45,3.05c0.6,0.867,1.934,1,4,0.4c-0.167,0.434-0.417,0.934-0.75,1.5
		c-0.2,0.534-0.3,1.3-0.3,2.3c0,2.167,0.167,6.25,0.5,12.25c0.267,5.633,0.567,10.566,0.9,14.8l0.05,1.1
		c-0.467-1.6-1.3-5.783-2.5-12.55c-1.333-7.467-2.083-12.567-2.25-15.3c-0.267,1.033-0.517,1.684-0.75,1.95
		c-0.133,0.133-0.3,0.217-0.5,0.25c0-0.633-0.034-1.067-0.1-1.3l-0.25-0.25C26.283,23.1,26,24.233,26,25.7
		c0,1.733,0.867,6.483,2.6,14.25c0.9,4.033,1.967,8.816,3.2,14.35c-3.1-4.566-5.066-9.566-5.9-15c-0.267-4.667-0.433-7.167-0.5-7.5
		c-0.167,0.7-0.683,4.367-1.55,11c-0.1-14.4-0.15-21.933-0.15-22.6c0-2.4,0.283-4.117,0.85-5.15
		C25.65,13.017,26.517,10.95,27.15,8.85z M22.7,11.6c-0.534,5.5-0.9,9.017-1.1,10.55c-0.567,4.6-1.2,7.35-1.9,8.25l-0.8,1.1
		c-0.133-1.433-0.2-2.483-0.2-3.15c0-0.767,0.083-2.15,0.25-4.15c0.167-2.367,0.35-3.95,0.55-4.75c0.333-1.467,0.867-2.517,1.6-3.15
		c0.267-0.233,0.6-1.083,1-2.55C22.433,12.483,22.633,11.767,22.7,11.6z M73.55,71.35c1.4,3.1,3.4,7.717,6,13.85
		c2.934,6.933,4.45,10.7,4.55,11.3c-1.1-1.1-2.199-2.233-3.3-3.4c-2.2-2.333-3.283-3.633-3.25-3.9
		c-0.899-2.434-1.717-4.667-2.45-6.7c-1.366-3.967-1.916-7.05-1.649-9.25L73.55,71.35z M42.1,38.9l0.25-4.2
		c0.033-0.534,0.183-1.217,0.45-2.05c1.7-5.133,4.05-12.4,7.05-21.8c-1.533,9.033-2.317,15.066-2.35,18.1
		c-0.033,3,0.017,12.117,0.15,27.35c-0.133,0.3-0.283,0.567-0.45,0.8c-0.6-1.4-1.133-2.367-1.6-2.9c-0.5-0.567-0.767-0.9-0.8-1
		C44.367,52.333,43.467,47.567,42.1,38.9z M49.3,81.4c2.333,12.3,3.45,18.917,3.35,19.85l-0.2,0.95c-1.1-2.1-1.7-4.383-1.8-6.85
		c-0.033-0.867-0.133-2.5-0.3-4.9c-0.3-2.267-0.55-4.267-0.75-6C49.433,83.117,49.333,82.1,49.3,81.4z M49.3,80.2
		c1.4,3.9,2.367,7.3,2.9,10.2c0.367,2.267-0.633-1.05-3-9.95C49.2,80.083,49.233,80,49.3,80.2z M80.5,113.2
		c0.667,2.267,1,5.783,1,10.55l-0.05,3.6l-0.351,1.5c-0.966-1.267-1.449-5.35-1.449-12.25c0-0.466,0.1-1.083,0.3-1.85
		C80.116,114.05,80.3,113.533,80.5,113.2z M75.15,184.55l-2.051-5c0.467,0.367,1.101,0.783,1.9,1.25
		c0.5,0.601,0.667,2.134,0.5,4.601L75.15,184.55z M77.8,175.4l-0.2,1v-0.051L76,172.7c-0.5-1.9-1.233-4.483-2.2-7.75
		c-1.066-3.467-1.617-5.267-1.65-5.4c-0.4-1.467-0.633-2.883-0.7-4.25c-0.267-3.7-0.467-6.95-0.6-9.75
		c-0.133-2.666,0-4.616,0.4-5.85c0.667-2,2.15-3.584,4.45-4.75c1.8,5.033,3.184,7.816,4.149,8.35c0.101-0.434,0.2-0.816,0.301-1.149
		c0.199-0.634,0.483-1.217,0.85-1.75l0.2-0.25c0.399,0.399,0.616,1.35,0.649,2.85c0.034,1.733,0.267,3.05,0.7,3.95
		c0.267,0.533,0.884,1.434,1.851,2.7c0.899,1.199,1.366,1.85,1.399,1.949c0.834,2.5,1.65,6.184,2.45,11.051
		c0.7,4.199,1.05,6.933,1.05,8.199c0,0.667-0.05,1.351-0.149,2.051c-1.233-0.967-2.167-2.184-2.801-3.65
		c-0.767-1.634-1.383-4.033-1.85-7.2l-0.3-1.2c-0.033,5.233-0.15,9.417-0.351,12.551v1.449c-0.233-3-0.933-7.649-2.1-13.949
		l-0.55-1.551c-0.267,3.034-0.384,5.417-0.351,7.15c-0.066-1.3-0.35-3.25-0.85-5.85c-0.467-2.5-0.866-4.367-1.2-5.601l-0.25-0.45
		L78.4,156.95c0,0.1,0.1,1.7,0.3,4.8c0.233,3.5,0.399,6.733,0.5,9.7v3.85c-0.767-3.533-1.7-8.916-2.8-16.149l-0.25-1.9
		c0.033,1.3,0.366,4.5,1,9.6C77.717,171.384,77.934,174.233,77.8,175.4z M101.3,154.2l-0.8-0.5c-0.8,0.666-1.2,1.033-1.2,1.1
		c0,1.834,0.566,3.967,1.7,6.4c0.6,1.233,1.283,2.517,2.05,3.85l0.15,0.45c-0.334-0.7-1.467-2.483-3.4-5.35
		c-2.033-3.067-3.483-5.384-4.35-6.95l-1.65-5.05l0.05-1.95l4.301-5c0.1,2.434,1.916,4.6,5.449,6.5c1.801,0.967,3.7,1.767,5.7,2.399
		c0.066,0.034,0.117,0.051,0.15,0.051l-0.3,2.949c-0.301,0.101-1.517,0.15-3.65,0.15c0,0.566-0.134,1.017-0.4,1.35
		c-0.1,0-0.666-0.1-1.699-0.3C102.533,154.134,101.833,154.1,101.3,154.2z M102.95,156.9c1.166,1,2.05,1.649,2.649,1.949
		c0.067-0.066,0.367-0.566,0.9-1.5c0.333-0.6,0.85-0.899,1.55-0.899c0.834,0,1.834,0.184,3,0.55c1.2,0.333,2.033,0.5,2.5,0.5
		c-0.533,1.4-0.866,3.3-1,5.7c-0.2,3.267-0.35,5.2-0.45,5.8l-0.25,0.8l-1-3.85l-0.199-0.351c-0.233-0.333-0.467-0.55-0.7-0.649
		c-0.167,0.333-0.3,0.566-0.4,0.7c-0.166,0.267-0.333,0.433-0.5,0.5c-0.767-0.167-1.217-0.867-1.35-2.101l-0.2-0.45
		c-0.267,0.5-0.583,1.434-0.95,2.801c-0.333,1.466-0.45,2.433-0.35,2.899v1.4c-1.667-1.467-2.601-3.967-2.8-7.5
		C103.134,159.066,102.983,156.967,102.95,156.9z M84.55,143.5l0.05-0.2l2.551,2.9v3.899c-0.601-0.566-1.184-1.699-1.75-3.399
		c-0.267-0.733-0.467-1.351-0.601-1.851C84.667,144.25,84.583,143.8,84.55,143.5z M118.8,156c0.066,0.066,0.184,0.45,0.351,1.15
		c0.199,0.8,0.3,1.416,0.3,1.85c0,1.8-0.084,3-0.25,3.6c-0.167,0.567-0.584,1.2-1.25,1.9l-0.601,0.1c-0.333-0.5-0.5-1.433-0.5-2.8
		l0.2-6.2L118.8,156z"/>
</g>
</svg>
