<?xml version="1.0" encoding="iso-8859-1"?>
<!-- Generator: Adobe Illustrator 15.1.0, SVG Export Plug-In . SVG Version: 6.00 Build 0)  -->
<!DOCTYPE svg PUBLIC "-//W3C//DTD SVG 1.1//EN" "http://www.w3.org/Graphics/SVG/1.1/DTD/svg11.dtd">
<svg version="1.1" id="Layer_1" xmlns="http://www.w3.org/2000/svg" xmlns:xlink="http://www.w3.org/1999/xlink" x="0px" y="0px"
	 width="173.65px" height="82px" viewBox="0 0 173.65 82" style="enable-background:new 0 0 173.65 82;" xml:space="preserve">
<g>
	<path style="fill-rule:evenodd;clip-rule:evenodd;fill:#C3B9AC;" d="M161.95,8.85l-1-0.3c-0.134,0-0.233-0.066-0.3-0.2
		c-0.101-0.133-0.15-0.3-0.15-0.5c0.033-0.1,0.25-0.167,0.65-0.2c0.199,0,0.383,0,0.55,0c0.366-0.033,0.75,0,1.149,0.1
		c0.4,0.1,0.65,0.233,0.75,0.4c0.101,0.133,0.017,0.267-0.25,0.4S162.616,8.783,161.95,8.85z M161.5,12.65l1.6-0.2l-0.05,0.2
		c-0.7,0.867-1.434,1.367-2.2,1.5h-1.899c-0.334-0.033-0.617-0.1-0.851-0.2C159.4,13.317,160.533,12.883,161.5,12.65z M158.95,7.7
		v0.05c-0.033,0.1-0.066,0.2-0.101,0.3C158.717,8.283,158.5,8.6,158.2,9c-0.867,1-1.467,1.617-1.8,1.85
		c-0.567,0.433-1.217,0.65-1.95,0.65c-0.533,0-1.467-0.083-2.8-0.25l-0.2-0.15c-0.134-0.1-0.2-0.35-0.2-0.75
		c0-0.633,0.217-1.184,0.65-1.65c0.466-0.567,1.183-0.967,2.149-1.2c0.167-0.033,0.334-0.067,0.5-0.1c1.2-0.1,2.667-0.15,4.4-0.15
		V7.7z M34.1,13.45l1.2-0.75l2.05-0.25c1.9,0,3.767,0.167,5.6,0.5c-0.567,0.5-1.867,0.75-3.9,0.75
		C38.183,13.7,36.533,13.617,34.1,13.45z M94.05,39.6c0.101-0.3,0.3-0.533,0.601-0.7c0.066-0.066,0.133-0.117,0.199-0.15
		c0.5-0.3,0.75-0.817,0.75-1.55c0-0.667-0.316-1.333-0.949-2c-0.801-0.8-1.217-1.25-1.25-1.35c1.1-0.7,2.066-0.783,2.899-0.25
		c0.9,0.6,1.351,1.767,1.351,3.5c0,1.633-0.25,2.667-0.75,3.1c-0.267,0.267-0.917,0.4-1.95,0.4c-0.434,0-0.7-0.033-0.8-0.1
		c-0.067-0.133-0.134-0.267-0.2-0.4C93.95,39.933,93.983,39.767,94.05,39.6z M146.6,20.1c-0.3,0.2-1,0.5-2.1,0.9
		s-1.783,0.6-2.05,0.6c0.233-0.533,0.7-1.15,1.399-1.85c0.801-0.867,1.45-1.25,1.95-1.15L146.6,20.1z M135.2,27.1
		c-1.434,0.7-2.816,1.133-4.15,1.3c-1.3,0.067-2.283,0.167-2.95,0.3l-3.75,0.05c-4,0-6.383-0.383-7.149-1.15
		c0.767-0.934,2.767-1.85,6-2.75c3-0.833,5.533-1.25,7.6-1.25c0.3,0,0.8,0.083,1.5,0.25l0.45,0.25c0.2,0,0.4,0,0.6,0
		c0.801,0.2,1.784,0.483,2.95,0.85C135.833,26.017,135.467,26.733,135.2,27.1z M87.4,22.6l-5.95-0.1c-3.1,0-5.6,0.5-7.5,1.5
		c-1.5,1.067-2.633,1.667-3.4,1.8c-0.133,0-0.233-0.017-0.3-0.05c-0.1-0.067-0.15-0.3-0.15-0.7c0-1.066,1.967-1.917,5.9-2.55
		C80.067,21.833,83.867,21.867,87.4,22.6z M86.4,36.4c-2.067,0.5-3.117,0.75-3.15,0.75c-0.8,0.267-1.267,0.65-1.4,1.15
		c-0.1,0.367-0.45,0.55-1.05,0.55c-0.667,0-2.2-0.184-4.6-0.55c-2.833-0.433-4.534-0.85-5.1-1.25c0.933-0.667,2.217-1.1,3.85-1.3
		l-1.4-0.45c-0.466-0.2-0.85-0.433-1.15-0.7c1.133-0.2,3.45-0.4,6.95-0.6c3-0.167,4.917-0.25,5.75-0.25c0.667,0,1.4,0.45,2.2,1.35
		C87.167,35.833,86.866,36.267,86.4,36.4z M50.3,16.05l3-0.3l1.15,1.35c-1.6,0.433-3.217,0.65-4.85,0.65
		c-5.233-0.5-8.167-0.883-8.8-1.15c0.733-0.133,3.233-0.233,7.5-0.3l1.85-0.2L50.3,16.05z M23.45,8.45c0.667,0,1.783,0.333,3.35,1
		c-3.133-0.233-4.7-0.417-4.7-0.55C22.4,8.6,22.85,8.45,23.45,8.45z M27.55,9.95c0.233-0.233,2.817-0.35,7.75-0.35
		c-2.633,0.533-4.7,0.75-6.2,0.65C28.1,10.05,27.583,9.95,27.55,9.95z"/>
	<path style="fill-rule:evenodd;clip-rule:evenodd;fill:#B3AA9E;" d="M164.6,6.25l0.351,0.5c0.633,0.233,1.416,0.283,2.35,0.15
		L164.6,6.25z M161.7,7.65c-0.4-0.4-1.134-0.683-2.2-0.85c-1.634-0.233-3.083-0.483-4.35-0.75l0.949-0.6
		c0.767-0.5,1.483-1.184,2.15-2.05c0.434-0.533,0.733-0.967,0.9-1.3l0.199-0.15c1.967,0.167,4.15,1.167,6.551,3
		c1.233,0.933,2.616,2,4.149,3.2c2.2,6.133,0.75,10.5-4.35,13.1c-3.267,1.667-7.733,2.5-13.4,2.5c-0.267,0-1.866-0.083-4.8-0.25
		c-2.9-0.2-4.7-0.3-5.4-0.3c0.834,0.133,2.634,0.316,5.4,0.55c2.733,0.3,4.934,0.65,6.6,1.05l-3.85-0.2
		c1.9,0.7,3.116,1.183,3.65,1.45c0.8,0.333,1.316,0.65,1.55,0.95c-0.8,0.333-2.417,1.117-4.851,2.35c-2.6,1.3-4.1,2.117-4.5,2.45
		c-1.666,1.667-3.116,2.983-4.35,3.95c-2.3,1.767-4.45,2.65-6.45,2.65c-3.967,0-6.866-0.617-8.7-1.85
		c-2-1.367-5.133-2.183-9.399-2.45l0.55,0.1l2.65,0.8l-2.2-0.35c1.267,0.3,2.267,0.667,3,1.1c0.866,0.5,1.3,1.033,1.3,1.6
		c0,0.2-0.45,0.8-1.35,1.8c-4.767,0.667-11.167,1.483-19.2,2.45c-6.533,0.801-12.233,1.567-17.1,2.301c0.8-0.7,3-1.65,6.6-2.851
		c1.133-0.367,2-0.85,2.6-1.45c-0.066,0.167-0.1,0.333-0.1,0.5c0.066,0.133,0.133,0.267,0.2,0.4c0.1,0.067,0.366,0.1,0.8,0.1
		c1.033,0,1.684-0.133,1.95-0.4c0.5-0.434,0.75-1.467,0.75-3.1c0-1.733-0.45-2.9-1.351-3.5c-0.833-0.533-1.8-0.45-2.899,0.25
		c0.033,0.1,0.449,0.55,1.25,1.35c0.633,0.667,0.949,1.333,0.949,2c0,0.733-0.25,1.25-0.75,1.55
		c-0.066,0.033-0.133,0.083-0.199,0.15c0.333-0.566,0.5-1.217,0.5-1.95c0-0.2-0.534-0.7-1.601-1.5c-1.066-0.767-1.6-1.167-1.6-1.2
		c0-0.4,0.083-0.817,0.25-1.25l0.25-0.55c-1.834,0.333-3.084,0.683-3.75,1.05c-0.3,0.3-0.5,0.467-0.601,0.5
		c0.101,0.267,0.267,0.583,0.5,0.95c0.067,0.5,0.051,0.983-0.05,1.45l-3.4,1.3c-1.267,0.066-2,0.133-2.2,0.2l-0.05,0.9
		c-1.467,0.434-3.75,0.667-6.85,0.7c-2.933-0.067-4.5-0.1-4.7-0.1c-0.633-0.367-3.45-1.583-8.45-3.65
		c-5.066-2.133-7.883-3.35-8.45-3.65l0.4-0.3c3.7-0.167,7.65-0.45,11.85-0.85c4.733-0.467,7.183-0.7,7.35-0.7l-2.45-0.2l-19.05,0.2
		c0.833-0.233,6.9-0.35,18.2-0.35l0.2-0.1c-3.233-0.7-6.284-1.283-9.15-1.75c-5.566-0.933-10.167-0.917-13.8,0.05v0.3
		c-5.8-4.767-11.683-9.033-17.65-12.8l0.7-0.35c0.167-0.033,0.684-0.3,1.55-0.8s1.367-0.833,1.5-1c2.433,0.167,4.083,0.25,4.95,0.25
		c2.034,0,3.333-0.25,3.9-0.75c-1.833-0.333-3.7-0.5-5.6-0.5L35.3,12.7c1.6-0.967,2.7-1.55,3.3-1.75l-2,0.3l1.55-0.45l1.3-0.2
		c-1.233,0.1-3.784,0.566-7.65,1.4c-3.233,0.667-5.583,0.933-7.05,0.8c-7.633-2.066-12.1-3.267-13.4-3.6C6.85,8,3.467,7.25,1.2,6.95
		l0.45-0.5h11.9c4.633,0.733,9.383,1.167,14.25,1.3l8.15,0.2c0.833,0,1.917,0.316,3.25,0.95c1.3,0.6,2.316,0.883,3.05,0.85
		c2.933-0.1,5.767,0.767,8.5,2.6c2.833,1.9,5.783,2.85,8.85,2.85c0.333,0,1.8-0.05,4.4-0.15c2.867-0.1,5.317-0.133,7.35-0.1
		c0.7,0,2.417,0.283,5.15,0.85c2.8,0.6,5.867,0.917,9.2,0.95c5.934,0.067,13.083,0.8,21.45,2.2c8.233,1.367,12.916,2.05,14.05,2.05
		c1.5,0,4.684-0.983,9.55-2.95c4.967-1.966,8.55-3,10.75-3.1c5.533-0.233,8.45-1.367,8.75-3.4c0.2-1.333,0.366-2.117,0.5-2.35
		c0.5-0.767,1.6-1.333,3.3-1.7c-0.967,0.233-1.684,0.633-2.149,1.2c-0.434,0.466-0.65,1.017-0.65,1.65c0,0.4,0.066,0.65,0.2,0.75
		l0.2,0.15c1.333,0.167,2.267,0.25,2.8,0.25c0.733,0,1.383-0.217,1.95-0.65c0.333-0.233,0.933-0.85,1.8-1.85
		c0.467,0.367,0.733,0.633,0.8,0.8c0.066,0.1,0.116,0.217,0.15,0.35c0.033,0.167,0.05,0.383,0.05,0.65c0,0.667-0.117,1-0.351,1v0.05
		c-0.233,0.2-0.566,0.417-1,0.65l-0.55,0.3c1,0.067,2.4,0.017,4.2-0.15c-0.967,0.233-2.1,0.667-3.4,1.3
		c0.233,0.1,0.517,0.167,0.851,0.2h1.899c0.767-0.133,1.5-0.633,2.2-1.5c0.7-0.133,1.117-0.283,1.25-0.45
		c-0.133-0.167-0.5-0.417-1.1-0.75c-0.667-0.367-1.15-0.733-1.45-1.1l0.2-1.5c0.666-0.067,1.133-0.167,1.399-0.3
		s0.351-0.267,0.25-0.4c-0.1-0.167-0.35-0.3-0.75-0.4C162.45,7.65,162.066,7.617,161.7,7.65z M138.5,54.45l-0.1,0.149l-0.2,0.2
		c-0.767-1.533-1.066-3.566-0.9-6.1c0.2-3.101,0.033-5.834-0.5-8.2c0-0.267-0.116-0.483-0.35-0.65c-0.233-0.2-0.517-0.3-0.851-0.3
		c0.467-0.133,1.567-0.583,3.301-1.35c-0.034,0.167-0.117,1.05-0.25,2.65c-0.167,1.7-0.25,2.766-0.25,3.2
		C138.4,44.717,138.434,48.184,138.5,54.45z M59.45,37.3c7.133,2.367,11.417,3.851,12.85,4.45c-0.1,0.366-0.283,0.7-0.55,1
		c-0.333,0.4-0.7,0.6-1.1,0.6c-0.333,0-0.9-0.116-1.7-0.35c-0.833-0.267-1.417-0.4-1.75-0.4c-0.467,0-1.483,0.534-3.05,1.601
		c-1.967,1.333-3.066,2.717-3.3,4.149c-1.067,6.134-1.633,9.45-1.7,9.95c0.2-7.467,0.3-13.5,0.3-18.1V37.3z M54.75,35.9
		c-1.933,6.234-2.883,10.117-2.85,11.65c0.067,1.667,0,2.851-0.2,3.55c-0.6-1.533-1.034-2.6-1.3-3.199l0.1-2.301l0.05-0.55
		c0.534-2.1,0.867-3.517,1-4.25c0.333-1.667,0.434-2.917,0.3-3.75c-0.033-1.033-0.017-1.8,0.05-2.3L52,34.3
		c0.9,0.667,1.817,1.184,2.75,1.55V35.9z M1.1,7.05l0.45,0.2C1.383,7.183,1.233,7.133,1.1,7.1V7.05z M146.6,20.1l-0.8-1.5
		c-0.5-0.1-1.149,0.283-1.95,1.15c-0.699,0.7-1.166,1.317-1.399,1.85c0.267,0,0.95-0.2,2.05-0.6S146.3,20.3,146.6,20.1z
		 M132.3,23.85c-0.7-0.167-1.2-0.25-1.5-0.25c-2.066,0-4.6,0.417-7.6,1.25c-3.233,0.9-5.233,1.816-6,2.75
		c0.767,0.767,3.149,1.15,7.149,1.15l3.75-0.05c-1.699,0.3-2.883,0.6-3.55,0.9l0.101,0.25c0.333,0.167,0.816,0.25,1.449,0.25
		c0.434,0,1.267-0.067,2.5-0.2c1.101-0.1,1.767-0.167,2-0.2l-3.8,1.2l1.05,0.15c1.7,0.233,3.817,0.017,6.351-0.65
		c2.467-0.667,3.983-1.417,4.55-2.25c1.267-0.033,2.267-0.417,3-1.15c0.667-0.667,1-1.4,1-2.2c0-0.4-0.05-0.65-0.15-0.75
		c-0.1-0.133-0.149-0.216-0.149-0.25c-0.533,0-1.783-0.167-3.75-0.5c-1.934-0.333-2.967-0.517-3.101-0.55l2.351-1.3l-0.55,0.05
		c-1.301,0.4-2.301,0.7-3,0.9c-1.267,0.4-2.117,0.8-2.551,1.2L132.3,23.85z M149.8,23.35c1.167,0.2,1.967,0.2,2.4,0
		c0.267-0.033,0.666-0.2,1.2-0.5c0.5-0.267,0.866-0.517,1.1-0.75c-0.634-0.767-1.667-1.383-3.1-1.85c-1-0.333-1.7-0.5-2.101-0.5
		c-0.399,0-0.8,0.2-1.2,0.6l-0.5,0.6v2.2l0.4,0.1L149.8,23.35z M138.15,25.5l-0.7-0.55c0.033,0.2-0.05,0.483-0.25,0.85
		c-0.2,0.333-0.434,0.6-0.7,0.8l-1.3,0.5c0.267-0.367,0.633-1.083,1.1-2.15c-1.166-0.367-2.149-0.65-2.95-0.85
		c1.601,0.033,2.634,0.117,3.101,0.25C136.884,24.45,137.45,24.833,138.15,25.5z M133.2,40.25l-1.5,1.2
		c-1.3,0.934-2.233,2.717-2.8,5.35c-0.601,2.601-0.75,5.5-0.45,8.7V57c-0.033-0.667-0.316-2.85-0.851-6.55
		c-0.466-3.167-0.683-6.267-0.649-9.3C128.65,41.083,130.733,40.783,133.2,40.25z M101.5,16.3l0.7,0.15l-0.601-0.1L101.5,16.3z
		 M87.4,22.6c-3.534-0.733-7.333-0.767-11.4-0.1c-3.933,0.633-5.9,1.483-5.9,2.55c0,0.4,0.05,0.633,0.15,0.7
		c0.067,0.033,0.167,0.05,0.3,0.05c0.767-0.133,1.9-0.733,3.4-1.8c1.9-1,4.4-1.5,7.5-1.5L87.4,22.6c1.1,0.1,1.649,0.75,1.649,1.95
		c0,0.767-1.416,1.434-4.25,2c-4.933,0.8-9.55,1.583-13.85,2.35l0.8,0.1c2.867,0.033,7.933,0.2,15.2,0.5
		c2.267,0,5.017-1.25,8.25-3.75c0-0.733-0.517-1.583-1.55-2.55c-1.434-1.3-3.4-1.95-5.9-1.95c-0.4,0-0.884,0.083-1.45,0.25
		C85.833,21.667,86.2,22.033,87.4,22.6z M100.05,26.4c-0.467,0.2-0.7,0.45-0.7,0.75c0,0.3,0.233,0.55,0.7,0.75
		c0.467,0.2,1.017,0.3,1.65,0.3c0.633,0,1.184-0.1,1.649-0.3c0.467-0.2,0.7-0.45,0.7-0.75c0-0.3-0.233-0.55-0.7-0.75
		c-0.466-0.2-1.017-0.3-1.649-0.3C101.066,26.1,100.517,26.2,100.05,26.4z M86.4,36.4c0.466-0.133,0.767-0.566,0.899-1.3
		c-0.8-0.9-1.533-1.35-2.2-1.35c-0.833,0-2.75,0.083-5.75,0.25c-3.5,0.2-5.817,0.4-6.95,0.6c0.3,0.267,0.684,0.5,1.15,0.7l1.4,0.45
		c-1.633,0.2-2.917,0.633-3.85,1.3c0.566,0.4,2.267,0.817,5.1,1.25c2.4,0.367,3.933,0.55,4.6,0.55c0.6,0,0.95-0.184,1.05-0.55
		c0.133-0.5,0.6-0.883,1.4-1.15C83.283,37.15,84.333,36.9,86.4,36.4z M84.9,45.3c-0.467,2.134-0.883,4.834-1.25,8.101
		c-0.433,3.566-0.6,6.233-0.5,8c-0.433-1.134-1-3.534-1.7-7.2c-0.7-3.467-1.133-5.367-1.3-5.7l-1.35,1.8l0.05-6.2
		c0.333,0.101,1.3,0.317,2.9,0.65C83.417,45.083,84.467,45.267,84.9,45.3z M90.8,44.3l1.3-0.05L91.45,44.3H90.8z M89.7,53.3
		l-0.05-1.6c0-0.967,0.199-1.834,0.6-2.601c0.1-0.1,0.583-0.55,1.45-1.35c0.8-1.033,1.1-2.2,0.899-3.5
		c2.934,0.033,6.051,0.333,9.351,0.9c-0.101,1.066-0.15,4.05-0.15,8.949c-0.3-1.199-0.566-2.216-0.8-3.05
		c-0.4-1.566-0.7-2.517-0.9-2.85l-0.5-0.5l-0.75,2.75L98.8,47l-0.05-0.35c0.267-0.034,0.066-0.051-0.6-0.051
		c-1.601,0-3.4,1.9-5.4,5.7c-2.366,4.434-3.25,9.267-2.65,14.5L90.05,67c-0.1-0.233-0.217-0.65-0.35-1.25
		c-0.167-0.667-0.25-1.233-0.25-1.7L89.7,53.3z M109.6,35.6c-0.966,0.367-1.566,0.717-1.8,1.05c0.367,0.333,0.95,0.467,1.75,0.4
		c0.8-0.1,1.417-0.333,1.851-0.7l-0.45-1.25C110.517,35.233,110.066,35.4,109.6,35.6z M107.85,44
		c0.967-0.533,2.567-1.083,4.801-1.65c2-0.5,3.383-0.767,4.149-0.8c-0.633,2.634-1.25,4.25-1.85,4.851
		c-0.434,0.466-1.467,0.783-3.101,0.949c-0.8,8.467-1.316,13.45-1.55,14.95l-0.149,1.5c-0.134-3.3-0.284-6.25-0.45-8.85
		c-0.267-5.066-0.584-8.084-0.95-9.05L107.85,44z M43.25,14.7c-1.7,0.167-2.867,0.283-3.5,0.35c-1,0.1-1.733,0.217-2.2,0.35
		c2.733,0.4,6.317,0.7,10.75,0.9c-4.267,0.067-6.767,0.167-7.5,0.3c0.633,0.267,3.567,0.65,8.8,1.15c1.633,0,3.25-0.217,4.85-0.65
		l-1.15-1.35l-3,0.3c1.167-0.167,1.784-0.517,1.85-1.05c-0.267-0.867-0.583-1.383-0.95-1.55c-0.1-0.034-2.067-0.3-5.9-0.8
		c0.034,0.267-0.017,0.567-0.15,0.9c-0.133,0.3-0.3,0.517-0.5,0.65L43.25,14.7z M22.75,5.4l0.35,0.05h-0.3L22.5,5.4H22.75z
		 M27.55,9.95c0.034,0,0.55,0.1,1.55,0.3c1.5,0.1,3.566-0.117,6.2-0.65C30.367,9.6,27.783,9.717,27.55,9.95z M23.45,8.45
		c-0.6,0-1.05,0.15-1.35,0.45c0,0.133,1.566,0.317,4.7,0.55C25.233,8.783,24.117,8.45,23.45,8.45z M37.4,22.5
		c-0.566,0.5-1.083,1.583-1.55,3.25c-0.5,1.7-0.633,3.067-0.4,4.1v1.3c-1.3-4.433-1.967-6.7-2-6.8c-0.233,0.367-0.55,1.333-0.95,2.9
		c-0.2,0.8-0.433,1.767-0.7,2.9c0-0.433-0.133-1.05-0.4-1.85c-0.333-1.066-0.783-1.733-1.35-2H29.5l-0.05,2.35
		c0,0.934,0.267,2.783,0.8,5.55c0.5,2.767,0.75,5.117,0.75,7.05c0,2.934-0.7,5.033-2.1,6.3c-1.133,0.967-1.383,3.101-0.75,6.4
		c-0.5,0.166-0.983,0.267-1.45,0.3c-0.534-0.134-0.934-0.85-1.2-2.15c-0.2-0.899-0.3-1.8-0.3-2.699c0-2.301,0.566-4.434,1.7-6.4
		c1.1-1.934,1.65-4.167,1.65-6.7c0-1.867-0.15-3.283-0.45-4.25c-0.3-0.867-0.783-1.55-1.45-2.05l-0.45,0.95
		c-0.267-1.534-0.467-2.7-0.6-3.5c-0.267-1.4-0.417-3.467-0.45-6.2l0.5-1.95l0.05-1.85l1.6-1.65c0.5,1.333,1.5,2.383,3,3.15
		C31.333,19.517,33.7,20.7,37.4,22.5z M20.8,14.6c-0.233,0.1-0.8,0.2-1.7,0.3L17.85,15c0.033,0.267,0.217,1.233,0.55,2.9
		c0.267,1.467,0.4,2.383,0.4,2.75c0,0.434-0.4,3.2-1.2,8.3c-0.5,5.4-0.283,10.267,0.65,14.6c-0.1-0.267-0.217-0.533-0.35-0.8
		c-0.467-0.833-0.816-1.684-1.05-2.55c-0.934-3.467-1.4-10.217-1.4-20.25l0.45-7.15c1.434,0.367,3.333,0.75,5.7,1.15L20.8,14.6z
		 M26.2,30.95c0.066,1.2,0.066,2.633,0,4.3l-0.1,1.9v-6.2H26.2z"/>
	<path style="fill-rule:evenodd;clip-rule:evenodd;fill:#A39A90;" d="M161.7,7.65c-0.167,0-0.351,0-0.55,0
		c-0.4,0.033-0.617,0.1-0.65,0.2c-0.233-0.3-0.533-0.6-0.9-0.9c-0.133,0.066-0.267,0.183-0.399,0.35
		c-0.101,0.1-0.184,0.233-0.25,0.4V7.25c-1.733,0-3.2,0.05-4.4,0.15c-0.166,0.033-0.333,0.067-0.5,0.1c-1.7,0.367-2.8,0.933-3.3,1.7
		c-0.134,0.233-0.3,1.017-0.5,2.35c-0.3,2.034-3.217,3.167-8.75,3.4c-2.2,0.1-5.783,1.133-10.75,3.1
		c-4.866,1.967-8.05,2.95-9.55,2.95c-1.134,0-5.816-0.683-14.05-2.05c-8.367-1.4-15.517-2.133-21.45-2.2
		c-3.333-0.033-6.4-0.35-9.2-0.95c-2.733-0.566-4.45-0.85-5.15-0.85c-2.033-0.034-4.483,0-7.35,0.1c-2.6,0.1-4.067,0.15-4.4,0.15
		c-3.067,0-6.017-0.95-8.85-2.85c-2.733-1.833-5.567-2.7-8.5-2.6C41.517,9.783,40.5,9.5,39.2,8.9c-1.333-0.633-2.417-0.95-3.25-0.95
		l-8.15-0.2c-4.867-0.133-9.617-0.567-14.25-1.3c4.034,0,7.967-0.333,11.8-1h0.25l3.8,0.05v0.3c-3.9,0.2-6.283,0.55-7.15,1.05
		l12.6,0.3c2.133,0,4.066-0.066,5.8-0.2c2.633,0.667,5.05,1.4,7.25,2.2c2.5,0.9,5.2,1.75,8.1,2.55c4.367,1.3,7.983,2.083,10.85,2.35
		c1.767,0.167,4.65,0.35,8.65,0.55c2.767,0.5,5.55,0.833,8.35,1c1.033,0.167,2.066,0.267,3.1,0.3
		c1.866,0.233,5.916,0.55,12.149,0.95c8,0.533,14.634,0.8,19.9,0.8c2.467,0,4.017-0.1,4.65-0.3c1.333-0.467,3-1.733,5-3.8
		c0.733-0.066,2.899-0.983,6.5-2.75c3.699-1.8,5.616-2.716,5.75-2.75c2.066-0.466,3.149-0.733,3.25-0.8
		c0.199-0.233,0.983-1.4,2.35-3.5c0.7-0.833,1.583-1.317,2.65-1.45c0.767-0.066,4.1-0.133,10-0.2c-0.167,0.333-0.467,0.767-0.9,1.3
		c-0.667,0.867-1.384,1.55-2.15,2.05l-0.949,0.6c1.267,0.267,2.716,0.517,4.35,0.75C160.566,6.967,161.3,7.25,161.7,7.65z
		 M164.6,6.25l2.7,0.65c-0.934,0.133-1.717,0.083-2.35-0.15L164.6,6.25z M158.85,11.85c1.634-0.167,2.334-1.267,2.101-3.3l1,0.3
		l-0.2,1.5c0.3,0.367,0.783,0.733,1.45,1.1c0.6,0.333,0.967,0.583,1.1,0.75c-0.133,0.167-0.55,0.316-1.25,0.45l0.05-0.2l-1.6,0.2
		c-1.8,0.167-3.2,0.217-4.2,0.15l0.55-0.3C158.283,12.267,158.616,12.05,158.85,11.85z M158.2,9c0.3-0.4,0.517-0.717,0.649-0.95
		c-0.033,0.1-0.05,0.2-0.05,0.3c0.2,0.633,0.316,1.233,0.351,1.8c-0.034-0.133-0.084-0.25-0.15-0.35
		C158.934,9.633,158.667,9.367,158.2,9z M91.45,25.25c-0.767-0.333-1.483-0.5-2.15-0.5c-0.267,0.433-0.6,0.9-1,1.4
		c-0.833,1-1.717,1.717-2.65,2.15l-1.35,0.3c3.8,0.1,5.95,0.05,6.45-0.15c0.3-0.1,0.634-0.8,1-2.1L91.45,25.25z M82.9,38.8
		c-0.367,0.733-0.717,1.117-1.05,1.15c-3.267,0.167-4.983,0.25-5.15,0.25l-0.95,0.1c0.267,0.1,1.483,0.233,3.65,0.4
		c1.967,0.167,3.267,0.25,3.9,0.25c5.101-1.4,7.65-2.517,7.65-3.35c0.033-0.7-0.033-1.333-0.2-1.9
		c-0.366-1.067-1.083-1.317-2.15-0.75c-0.233-0.367-0.399-0.684-0.5-0.95c0.101-0.033,0.301-0.2,0.601-0.5
		c0.666-0.367,1.916-0.717,3.75-1.05L92.2,33c-0.167,0.433-0.25,0.85-0.25,1.25c0,0.033,0.533,0.433,1.6,1.2
		c1.066,0.8,1.601,1.3,1.601,1.5c0,0.733-0.167,1.383-0.5,1.95c-0.301,0.167-0.5,0.4-0.601,0.7c-0.6,0.6-1.467,1.083-2.6,1.45
		c-3.601,1.2-5.8,2.15-6.6,2.851c-1.2,0.1-3.533-0.45-7-1.65c-3.367-1.167-5.533-2.117-6.5-2.85c0.2,0,1.767,0.033,4.7,0.1
		C79.15,39.467,81.433,39.233,82.9,38.8z M88.55,36.4c-1.233,0.867-2.366,1.3-3.4,1.3L88.55,36.4z M138.75,28.15
		c0.1-0.433,0.15-0.733,0.15-0.9c0-0.2-0.25-0.783-0.75-1.75c-0.7-0.667-1.267-1.05-1.7-1.15c-0.467-0.133-1.5-0.217-3.101-0.25
		c-0.199,0-0.399,0-0.6,0l-0.45-0.25l-0.45-0.25c0.434-0.4,1.284-0.8,2.551-1.2c0.699-0.2,1.699-0.5,3-0.9l0.55-0.05l-2.351,1.3
		c0.134,0.033,1.167,0.217,3.101,0.55c1.967,0.333,3.217,0.5,3.75,0.5c0,0.034,0.05,0.117,0.149,0.25c0.101,0.1,0.15,0.35,0.15,0.75
		c0,0.8-0.333,1.534-1,2.2C141.017,27.733,140.017,28.117,138.75,28.15z M136.5,26.6c-1.366,1.367-3.333,2.4-5.9,3.1
		c-0.233,0.033-0.899,0.1-2,0.2c-1.233,0.133-2.066,0.2-2.5,0.2c-0.633,0-1.116-0.083-1.449-0.25l-0.101-0.25
		c0.667-0.3,1.851-0.6,3.55-0.9c0.667-0.133,1.65-0.233,2.95-0.3c1.334-0.167,2.717-0.6,4.15-1.3L136.5,26.6z M152.2,23.35
		c0.233-0.167,0.434-0.583,0.6-1.25l-3.2-0.5l-0.05,0.8c-0.033,0.567,0.05,0.883,0.25,0.95l-1.8-0.1l-0.4-0.1v-2.2l0.5-0.6
		c0.4-0.4,0.801-0.6,1.2-0.6c0.4,0,1.101,0.167,2.101,0.5c1.433,0.467,2.466,1.083,3.1,1.85c-0.233,0.233-0.6,0.483-1.1,0.75
		C152.866,23.15,152.467,23.317,152.2,23.35z M87.4,22.6c-1.2-0.567-1.567-0.934-1.101-1.1c0.566-0.167,1.05-0.25,1.45-0.25
		c2.5,0,4.467,0.65,5.9,1.95c1.033,0.966,1.55,1.816,1.55,2.55c-3.233,2.5-5.983,3.75-8.25,3.75c-7.267-0.3-12.333-0.467-15.2-0.5
		l-0.8-0.1c4.3-0.767,8.917-1.55,13.85-2.35c2.834-0.566,4.25-1.233,4.25-2C89.05,23.35,88.5,22.7,87.4,22.6z M100.05,26.4
		c0.467-0.2,1.017-0.3,1.65-0.3c0.633,0,1.184,0.1,1.649,0.3c0.467,0.2,0.7,0.45,0.7,0.75c0,0.3-0.233,0.55-0.7,0.75
		c-0.466,0.2-1.017,0.3-1.649,0.3c-0.634,0-1.184-0.1-1.65-0.3c-0.467-0.2-0.7-0.45-0.7-0.75C99.35,26.85,99.583,26.6,100.05,26.4z
		 M109.6,35.6c0.467-0.2,0.917-0.367,1.351-0.5l0.45,1.25c-0.434,0.367-1.051,0.6-1.851,0.7c-0.8,0.067-1.383-0.066-1.75-0.4
		C108.033,36.317,108.634,35.967,109.6,35.6z M72.55,14H73l0.05,0.05L72.55,14z M48.3,16.3c-4.433-0.2-8.017-0.5-10.75-0.9
		c0.467-0.133,1.2-0.25,2.2-0.35c0.633-0.066,1.8-0.183,3.5-0.35c-0.067,0.066-0.133,0.133-0.2,0.2c-0.133,0.2-0.2,0.367-0.2,0.5
		l1.4,0.15c0.4,0,0.933-0.05,1.6-0.15c0.4-0.733,0.6-1.333,0.6-1.8v-0.35c-0.7,0.5-1.3,0.817-1.8,0.95
		c0.2-0.133,0.367-0.35,0.5-0.65c0.133-0.333,0.184-0.633,0.15-0.9c3.833,0.5,5.8,0.767,5.9,0.8c0.367,0.167,0.683,0.683,0.95,1.55
		c-0.066,0.533-0.683,0.883-1.85,1.05l-0.15,0.05L48.3,16.3z M20.25,5.4c-0.867,0.267-2.3,0.4-4.3,0.4l4.25-0.4H20.25z"/>
	<path style="fill-rule:evenodd;clip-rule:evenodd;fill:#D2C8BA;" d="M4.6,8.35l-1.95-0.8c-0.3-0.066-0.6-0.133-0.9-0.2l-0.2-0.1
		L1.1,7.05L0.75,6.9C0.883,6.933,1.033,6.95,1.2,6.95C3.467,7.25,6.85,8,11.35,9.2c1.3,0.333,5.767,1.533,13.4,3.6
		c-0.633,0-1.167,0.133-1.6,0.4c-0.467,0.233-0.7,0.517-0.7,0.85l-0.85-0.1c-2.367-0.4-4.267-0.784-5.7-1.15
		c-2.233-0.667-3.633-1.117-4.2-1.35c-0.567-0.267-1.317-0.583-2.25-0.95l-3-1.35L4.6,8.35z M35.3,12.7l-1.2,0.75
		c-0.133,0.167-0.633,0.5-1.5,1s-1.383,0.767-1.55,0.8l-0.7,0.35C36.317,19.367,42.2,23.633,48,28.4l-0.15,1.5
		c-1.9-1.633-3.2-2.717-3.9-3.25c-0.733-0.533-2.9-1.917-6.5-4.15H37.4c-3.7-1.8-6.066-2.983-7.1-3.55c-1.5-0.767-2.5-1.817-3-3.15
		l1.2-1.25l0.6-0.25c0.633-0.367,1.117-0.55,1.45-0.55c0.2-0.067,1.383-0.55,3.55-1.45l2.5-1.05l2-0.3
		C38,11.15,36.9,11.733,35.3,12.7z M72.3,41.75c-1.433-0.6-5.716-2.083-12.85-4.45l-4.7-1.45c-0.933-0.367-1.85-0.883-2.75-1.55
		l-0.5-0.45c0.2-0.6,0.317-1.25,0.35-1.95c-0.033-0.767-0.05-1.316-0.05-1.65h0.75l19.05-0.2l2.45,0.2
		c-0.167,0-2.617,0.233-7.35,0.7c-4.2,0.4-8.15,0.683-11.85,0.85l-0.4,0.3c0.566,0.3,3.383,1.517,8.45,3.65
		c5,2.067,7.817,3.283,8.45,3.65c0.967,0.733,3.133,1.683,6.5,2.85c3.467,1.2,5.8,1.75,7,1.65c4.867-0.733,10.567-1.5,17.1-2.301
		c8.033-0.966,14.434-1.783,19.2-2.45l-0.25,2.25h-0.4l-2.3,0.1l-1.4,0.05c-0.767,0.033-2.149,0.3-4.149,0.8
		c-2.233,0.567-3.834,1.117-4.801,1.65c-0.6,0.333-1.6,0.65-3,0.95c-1.1,0.233-1.783,0.35-2.05,0.35l-0.85-0.149
		c-3.3-0.567-6.417-0.867-9.351-0.9h-0.5l-1.3,0.05l-1,0.101c-0.7,0.1-1.934,0.333-3.7,0.699l-1.2,0.2
		c-0.433-0.033-1.483-0.217-3.15-0.55c-1.6-0.333-2.567-0.55-2.9-0.65l-1.35-0.5l-4.85-1.75L72.3,41.75z M155.45,27l0.149,2.3
		h-0.149c-2.533,0.7-4.101,1.184-4.7,1.45l-0.65,0.3c-0.966,0.5-1.783,1.167-2.449,2c-0.733,0.9-1.517,1.6-2.351,2.1l-0.85,0.5
		l-0.25,0.1L144.1,35.8l-5.199,2.4c-1.733,0.767-2.834,1.216-3.301,1.35l-2.399,0.7c-2.467,0.533-4.55,0.833-6.25,0.9
		c-0.066,0-0.117,0-0.15,0l-1.6,0.1h-0.15c0-2.2-0.184-3.617-0.55-4.25c0-0.4-0.066-0.733-0.2-1c-0.166-0.3-0.366-0.45-0.6-0.45
		c-0.601,0.1-1.7-0.083-3.3-0.55l-2.65-0.8l-0.55-0.1c4.267,0.267,7.399,1.083,9.399,2.45c1.834,1.233,4.733,1.85,8.7,1.85
		c2,0,4.15-0.883,6.45-2.65c1.233-0.967,2.684-2.283,4.35-3.95c0.4-0.333,1.9-1.15,4.5-2.45C153.033,28.117,154.65,27.333,155.45,27
		z M154.1,24.8c-1.666-0.4-3.866-0.75-6.6-1.05c-2.767-0.233-4.566-0.417-5.4-0.55c0.7,0,2.5,0.1,5.4,0.3
		c2.934,0.167,4.533,0.25,4.8,0.25c5.667,0,10.134-0.833,13.4-2.5c5.1-2.6,6.55-6.967,4.35-13.1c0.566,0,1.05,0.4,1.45,1.2
		c0.4,0.767,0.6,1.7,0.6,2.8v0.05l-0.1,1.35c0,0.2-0.2,1.083-0.6,2.65c-0.434,1.566-0.7,2.466-0.801,2.7l-0.5,0.8
		c-1,1.3-1.55,2-1.649,2.1c-0.601,0.633-1.3,1.583-2.101,2.85c-0.066,0.1-1.333,0.833-3.8,2.2l-0.85,0.45l-0.5,0.25l-1.15,0.4
		l-0.95,0.3c0-0.867-0.183-1.6-0.55-2.2c-0.366-0.633-0.816-0.95-1.35-0.95L154.1,24.8z"/>
	<path style="fill-rule:evenodd;clip-rule:evenodd;fill:#635B52;" d="M172,13.55l0.3-0.7V12.8l0.101,0.4
		c0.233,1.333,0.35,2.333,0.35,3v0.85l-1.9,5.5v-1.3c-0.033-0.7-0.083-1.3-0.149-1.8L170.6,18.9c0.101-0.233,0.367-1.133,0.801-2.7
		C171.8,14.633,172,13.75,172,13.55z M144.35,48.1c-0.466-2.866-0.699-4.767-0.699-5.699c0-0.5,0.033-1.034,0.1-1.601
		s0.134-0.816,0.2-0.75c0.566,1.134,0.883,3.316,0.95,6.55c0.033,2.034,1.25,3.551,3.649,4.551c-0.8,2.033-1.25,4.399-1.35,7.1
		c-0.033,1.434,0,3.033,0.1,4.8l-0.45,0.9l-0.35,0.25c-0.134-1.667-0.05-5.267,0.25-10.8C146.85,51.134,146.05,49.366,144.35,48.1z
		 M160.05,27.95c-0.5,0.7-0.866,2.517-1.1,5.45c-0.2,2.233-0.283,4.083-0.25,5.55c-0.167-0.767-0.566-2.184-1.2-4.25
		c-0.833-2.633-1.434-4.317-1.8-5.05l3.25,1.95l0.149-3.35L160.05,27.95z"/>
	<path style="fill-rule:evenodd;clip-rule:evenodd;fill:#7C7367;" d="M15.95,5.8c2,0,3.433-0.133,4.3-0.4l0.15-0.05l0.55-0.4
		c0.3,0.233,0.816,0.383,1.55,0.45l0.3,0.05h0.3h2.25c-3.833,0.667-7.767,1-11.8,1H1.65h-0.3C2.083,6.383,6.95,6.167,15.95,5.8z
		 M25.7,17.45c-0.4,0.9-1.284,2.4-2.65,4.5c-0.167-0.733-0.25-1.717-0.25-2.95l-0.05-2.15c0-0.233-0.1-0.467-0.3-0.7
		c-0.2-0.2-0.3-0.483-0.3-0.85c0-0.433,0.033-0.733,0.1-0.9c0.1-0.133,0.167-0.25,0.2-0.35c0-0.333,0.233-0.617,0.7-0.85
		c0.434-0.267,0.967-0.4,1.6-0.4c1.467,0.133,3.817-0.133,7.05-0.8c3.867-0.833,6.417-1.3,7.65-1.4l-1.3,0.2l-1.55,0.45l-2.5,1.05
		c-2.167,0.9-3.35,1.383-3.55,1.45c-0.333,0-0.816,0.183-1.45,0.55l-0.6,0.25l-1.2,1.25L25.7,17.45z M170.1,19.7
		c0.233,5.2,0.351,8.533,0.351,10c-0.101,0.167-0.184,0.333-0.25,0.5c-0.267,0.433-0.566,0.833-0.9,1.2
		c-0.3,0.133-0.533,0.067-0.7-0.2l-0.1-0.15l-0.05-9.25C168.55,21.7,169.1,21,170.1,19.7z M164.3,43c0-0.634-1.033-5.783-3.1-15.45
		l0.5-0.25c0.066,0.3,0.733,2.4,2,6.3c1.2,4.1,1.7,7,1.5,8.7C164.934,42.6,164.634,42.833,164.3,43z M159.65,41.9
		c-0.167-1.234-0.25-2.184-0.25-2.851l0.1-2.4c0.733,0.5,1.217,0.967,1.45,1.4c0.633,1.034,0.899,2.55,0.8,4.55L159.65,41.9z
		 M145.3,35.15c0.4,1.633,0.867,4.6,1.4,8.9c0.666,3.533,1.7,5.3,3.1,5.3c2.2-2.633,3.3-5.6,3.3-8.899c0-1.434-0.283-2.6-0.85-3.5
		c-0.733-1.133-1.884-1.717-3.45-1.75c0.033-0.233,0.233-0.95,0.601-2.15c0.366-1.1,0.6-1.767,0.699-2l0.65-0.3
		c0.934,0.767,2.15,1.017,3.65,0.75c0.933,0.233,1.233,2.083,0.899,5.55c-0.166,1.733-0.267,3.95-0.3,6.65
		c-0.033,1.767-0.05,3.033-0.05,3.8c-0.033,0.267-0.05,0.533-0.05,0.8c-2.233,0.3-3.534,0.517-3.9,0.65
		c-0.866,0.3-1.684,1.033-2.45,2.2c-2.399-1-3.616-2.517-3.649-4.551c-0.067-3.233-0.384-5.416-0.95-6.55
		c-0.066-1.133-0.017-2.4,0.149-3.8l0.101-0.5l0.25-0.1L145.3,35.15z M44.2,46.15l2.35-6.55c1.2,0,2.233-0.517,3.1-1.55
		c0.233-0.267,0.434-0.533,0.6-0.8l-1.95,7.9l-0.35,1.399l-2-0.05L44.2,46.15z M86.95,15.9c7.6-0.066,12.383,0.05,14.35,0.35
		l0.3,0.1l0.601,0.1l3.55,0.05l5.35-0.6c1.934-0.2,3.467-0.3,4.601-0.3l2.8,0.15c1.967,0,4.1-0.983,6.4-2.95
		c3.066-2.633,6.466-4.633,10.199-6c0.301-0.1,1.65-0.45,4.051-1.05c2.433-0.7,4-1.483,4.699-2.35c0.233-0.267,0.384-0.933,0.45-2
		c0.367-0.933,1.55-1.4,3.55-1.4c0.767,0,2.4,0.25,4.9,0.75c1.3,0.233,2.816,0.533,4.55,0.9l0.4,0.1
		c-2.834-0.267-4.584-0.4-5.25-0.4c-3.834,0-6.017,0.233-6.55,0.7c-1.301,1.7-3.65,3.767-7.051,6.2
		c-0.767,0.567-2.449,1.183-5.05,1.85c-2.066,0.5-3.783,1.65-5.149,3.45c-2,2.067-3.667,3.333-5,3.8c-0.634,0.2-2.184,0.3-4.65,0.3
		c-5.267,0-11.9-0.267-19.9-0.8C92.866,16.45,88.816,16.133,86.95,15.9z M47.85,6.95c-2.667-0.133-5.067-0.133-7.2,0
		c-1.733,0.133-3.667,0.2-5.8,0.2l-12.6-0.3C23.117,6.35,25.5,6,29.4,5.8V5.5V5.4l-0.1-0.15c6.8-0.3,11.233-0.217,13.3,0.25
		c1.133,0.233,2.167,0.583,3.1,1.05L47.85,6.95z M49.15,7.45c-0.033-0.034-0.05-0.067-0.05-0.1l0.9,0.4c2.267,1.8,5.6,3.2,10,4.2
		c2.067,0.5,6.25,1.183,12.55,2.05l0.5,0.05h0.7c2.6-0.066,5.117,0.217,7.55,0.85l0.5,0.15l-6.3-0.45c-4-0.2-6.883-0.383-8.65-0.55
		C63.983,13.783,60.367,13,56,11.7c-2.033-1.067-3.467-1.833-4.3-2.3C50.333,8.633,49.483,7.983,49.15,7.45z M123.6,53.6
		c0.334-1.199,0.65-3.333,0.95-6.399c0.233-3.167,0.4-5.15,0.5-5.95h0.15c-0.267,2.366-0.517,5.083-0.75,8.15
		C124.25,51.5,123.967,52.9,123.6,53.6z"/>
	<path style="fill-rule:evenodd;clip-rule:evenodd;fill:#6D655A;" d="M50.25,37.25c-0.167,0.267-0.367,0.533-0.6,0.8
		c-0.867,1.034-1.9,1.55-3.1,1.55c-0.2-1.7-0.05-2.867,0.45-3.5c0.6-0.8,0.9-2.483,0.9-5.05l-0.05-1.15L48,28.4v-0.3
		c3.633-0.967,8.233-0.983,13.8-0.05c2.867,0.467,5.917,1.05,9.15,1.75l-0.2,0.1c-11.3,0-17.367,0.117-18.2,0.35H51.8
		c0,0.333,0.017,0.883,0.05,1.65c-0.033,0.7-0.15,1.35-0.35,1.95l-0.55,0.5L50.25,37.25z M120.5,41.4h0.4l0.25-2.25
		c0.899-1,1.35-1.6,1.35-1.8c0-0.567-0.434-1.1-1.3-1.6c-0.733-0.433-1.733-0.8-3-1.1l2.2,0.35c1.6,0.467,2.699,0.65,3.3,0.55
		c0.233,0,0.434,0.15,0.6,0.45c0.134,0.267,0.2,0.6,0.2,1c0.366,0.633,0.55,2.05,0.55,4.25c-0.1,0.8-0.267,2.783-0.5,5.95
		c-0.3,3.066-0.616,5.2-0.95,6.399L123.4,55l-0.15-0.25c-0.134-0.4-0.2-0.983-0.2-1.75v-3.05c0.167-1.334-0.217-2.733-1.149-4.2
		c-0.967-1.533-1.45-2.566-1.45-3.1L120.5,41.4z M161.2,27.55c2.066,9.667,3.1,14.816,3.1,15.45c-0.6,0.167-1.45,0.033-2.55-0.4
		c0.1-2-0.167-3.516-0.8-4.55c-0.233-0.433-0.717-0.9-1.45-1.4l-0.1,2.4c0,0.667,0.083,1.617,0.25,2.851
		c-1.301,0-2.417,0.633-3.351,1.899c-0.8,1.033-1.25,2.267-1.35,3.7c0-0.767,0.017-2.033,0.05-3.8c0.033-2.7,0.134-4.917,0.3-6.65
		c0.334-3.466,0.033-5.316-0.899-5.55c-1.5,0.267-2.717,0.017-3.65-0.75c0.6-0.267,2.167-0.75,4.7-1.45h0.149L155.45,27
		c-0.233-0.3-0.75-0.617-1.55-0.95c-0.534-0.267-1.75-0.75-3.65-1.45l3.85,0.2l3.101,0.3c0.533,0,0.983,0.316,1.35,0.95
		c0.367,0.6,0.55,1.333,0.55,2.2l-0.149,3.35l-3.25-1.95c0.366,0.733,0.967,2.417,1.8,5.05c0.634,2.066,1.033,3.483,1.2,4.25
		c-0.033-1.467,0.05-3.317,0.25-5.55c0.233-2.933,0.6-4.75,1.1-5.45L161.2,27.55z M172.3,12.8v0.05l-0.3,0.7l0.1-1.35L172.3,12.8z
		 M170.45,29.7c0-1.467-0.117-4.8-0.351-10l0.5-0.8l0.101,0.55c0.066,0.5,0.116,1.1,0.149,1.8v1.3l1.9-5.5l0.05,0.55
		c0.566,3.733,0.851,5.8,0.851,6.2c0,0.567-0.25,1.267-0.75,2.1c-0.7,1.033-1.233,1.817-1.601,2.35l-0.7,1.2L170.45,29.7z
		 M89.8,44.4l1-0.101h0.65l-0.95,2.75v0.05c-0.033,0.167-0.2,0.551-0.5,1.15c-0.366,0.833-0.65,1.717-0.85,2.65l0.3-1.9
		C89.65,46.533,89.767,45,89.8,44.4z"/>
	<path style="fill-rule:evenodd;clip-rule:evenodd;fill:#898074;" d="M168.45,21.8l0.05,9.25l-0.35-0.4
		c-0.367-0.267-0.75-0.467-1.15-0.6L166.5,30c-0.033,1.167-0.083,3.933-0.15,8.3l-0.05,0.5c-0.033,0.2-0.166,0.717-0.399,1.55
		c-0.301,0.9-0.534,1.55-0.7,1.95c0.2-1.7-0.3-4.6-1.5-8.7c-1.267-3.9-1.934-6-2-6.3l0.85-0.45c2.467-1.367,3.733-2.1,3.8-2.2
		C167.15,23.383,167.85,22.433,168.45,21.8z M125.55,62.3c-0.967,0.367-2.467,0.351-4.5-0.05c0.066-1.467,0.283-3.333,0.65-5.6
		c0.3-2.101,0.45-3.384,0.45-3.851c0-2.934-0.784-4.816-2.351-5.649c-1.566-0.834-2.35-2.084-2.35-3.75
		c0-0.4,0.133-0.834,0.399-1.301c0.101-0.233,0.217-0.433,0.351-0.6l2.3-0.1l-0.05,1.25c0,0.533,0.483,1.566,1.45,3.1
		c0.933,1.467,1.316,2.866,1.149,4.2V53c0,0.767,0.066,1.35,0.2,1.75L123.4,55l0.199-1.4c0.367-0.699,0.65-2.1,0.851-4.199
		c0.233-3.067,0.483-5.784,0.75-8.15l1.6-0.1c0.101,3.633,0.05,7.6-0.149,11.899C126.384,57.983,126.017,61.066,125.55,62.3z
		 M108.75,45.9c-0.033,4.466-0.217,9.283-0.55,14.449c-0.4,6.034-0.684,12.267-0.851,18.7l-0.1,1.45c0,0.533-0.05,0.85-0.15,0.95
		c-0.033,0-0.066,0-0.1,0c0,0.1,0,0.184,0,0.25c-0.033,0.066-0.066,0.116-0.1,0.149l-0.051-0.399l-1.55-12.4l-0.05-0.1
		c-0.2-0.467-0.65-4.483-1.35-12.05c-0.667-7.601-1.034-11.467-1.101-11.601c0.267,0,0.95-0.116,2.05-0.35c1.4-0.3,2.4-0.617,3-0.95
		L108.75,45.9z M89.7,53.3C88.866,61.8,88.217,69,87.75,74.9c-0.167,0.333-0.333,0.583-0.5,0.75c-0.134,0.1-0.267,0.183-0.4,0.25
		c-0.066-0.267-0.116-0.601-0.149-1c-0.134-0.767-0.283-1.784-0.45-3.051c-0.2-1.899-0.3-3.116-0.3-3.649
		C86.05,64.033,86.1,56.333,86.1,45.1c1.767-0.366,3-0.6,3.7-0.699c-0.033,0.6-0.149,2.133-0.35,4.6l-0.3,1.9
		c0.199-0.934,0.483-1.817,0.85-2.65c0.3-0.6,0.467-0.983,0.5-1.15l-0.25,2c-0.4,0.767-0.6,1.634-0.6,2.601L89.7,53.3z M72.65,41.85
		l4.85,1.75l-0.05,4.9c0,0.634,0.15,2.233,0.45,4.8c0.333,2.8,0.617,4.55,0.85,5.25c-0.1-0.066-0.2-0.133-0.3-0.2
		c-0.267-0.233-0.5-0.5-0.7-0.8c0-0.767-0.517-1.416-1.55-1.95c-1.067-0.566-2.333-0.85-3.8-0.85c0.533-0.733,1.033-1.8,1.5-3.2
		c0.434-1.333,0.65-2.35,0.65-3.05c0.1-0.533,0.15-0.85,0.15-0.95c0-0.133-0.2-0.2-0.6-0.2c-0.567,0-0.934-0.583-1.1-1.75
		C72.867,44,72.75,42.75,72.65,41.85z M69.1,59.85c-0.133-0.633,0.066-1.433,0.6-2.399c0.566-1,1.283-1.733,2.15-2.2
		c-0.4,0.733-0.833,1.316-1.3,1.75c-0.4,0.333-0.65,0.533-0.75,0.6l0.6,1.45l-0.5,0.55L69.1,59.9V59.85z M46.55,39.6l-2.35,6.55
		l-2.1-0.5L41.2,45.6c-0.2-1.333-0.3-2.333-0.3-3c0-1.066,0.333-1.85,1-2.35c0.633-0.533,0.95-1.017,0.95-1.45
		c0-0.033-0.417-0.617-1.25-1.75c-0.867-1.167-1.367-1.983-1.5-2.45c-1.533-7.467-2.417-11.5-2.65-12.1
		c3.6,2.233,5.767,3.617,6.5,4.15c0.7,0.533,2,1.617,3.9,3.25l0.05,1.15c0,2.567-0.3,4.25-0.9,5.05
		C46.5,36.733,46.35,37.9,46.55,39.6z M4.6,8.35C4,10.383,3.65,11.633,3.55,12.1c-0.333,1.633-0.5,3.5-0.5,5.6
		c0,0.267,1.017,3.767,3.05,10.5c2.233,7.5,3.967,12.783,5.2,15.85l0.5,0.2c0.5-0.9,0.817-2.134,0.95-3.7c0.633-6.3,1-9.9,1.1-10.8
		l-0.05-2.3c0.3,2.5,0.8,8.017,1.5,16.55h-0.2c-1.133,0.066-2,0.316-2.6,0.75c-0.567,0.366-0.933,0.55-1.1,0.55
		c-2.133,0-4.1-1.733-5.9-5.2c-1.467-2.767-2.267-5.2-2.4-7.3C3.033,31.967,3,29.717,3,26.05c0-2.767-0.15-4.767-0.45-6
		c-0.233-1-0.75-1.716-1.55-2.15c-0.667-0.367-1-1-1-1.9c0.067-1.133,0.1-4.15,0.1-9.05l1,0.15c0.133,0.033,0.283,0.083,0.45,0.15
		l0.2,0.1c0.3,0.066,0.6,0.133,0.9,0.2L4.6,8.35z M131.7,41.45l1.5-1.2l2.399-0.7c0.334,0,0.617,0.1,0.851,0.3
		c0.233,0.167,0.35,0.383,0.35,0.65c-0.533,5.566-0.833,9.583-0.899,12.05l-0.051,1.4C133.717,48.05,132.333,43.884,131.7,41.45z
		 M144.1,36.25V35.8l0.101-0.05L144.1,36.25z M150.1,31.05c-0.1,0.233-0.333,0.9-0.699,2c-0.367,1.2-0.567,1.917-0.601,2.15
		c1.566,0.033,2.717,0.617,3.45,1.75c0.566,0.9,0.85,2.066,0.85,3.5c0,3.3-1.1,6.267-3.3,8.899c-1.399,0-2.434-1.767-3.1-5.3
		c-0.533-4.3-1-7.267-1.4-8.9c0.834-0.5,1.617-1.2,2.351-2.1C148.316,32.217,149.134,31.55,150.1,31.05z M20.8,14.6l0.8-0.65
		l0.85,0.1c-0.034,0.1-0.1,0.217-0.2,0.35c-0.067,0.167-0.1,0.467-0.1,0.9c0,0.367,0.1,0.65,0.3,0.85c0.2,0.233,0.3,0.467,0.3,0.7
		c-0.233-0.333-0.567-0.733-1-1.2C21.283,15.217,20.967,14.867,20.8,14.6z M25.15,21.25c-0.433,3.933-0.667,8.267-0.7,13
		c-0.267-0.833-0.633-2.317-1.1-4.45c-0.6-2.867-0.9-5.066-0.9-6.6c0-1.067,0.117-2.467,0.35-4.2c0,1.233,0.083,2.217,0.25,2.95
		c1.367-2.1,2.25-3.6,2.65-4.5l-0.05,1.85L25.15,21.25z M9.45,10.5c-0.1,3.967-0.167,9.433-0.2,16.4l-0.2,0.75
		c-0.5-2.533-0.95-5.933-1.35-10.2c-0.367-3.8-0.784-6.567-1.25-8.3L9.45,10.5z"/>
	<path style="fill-rule:evenodd;clip-rule:evenodd;fill:#9B9286;" d="M172.75,17.05V16.2l0.05,1.4L172.75,17.05z M170.2,30.2
		c0.066-0.167,0.149-0.333,0.25-0.5l0.149-0.25C170.467,29.717,170.333,29.967,170.2,30.2z M107,81.7
		c-0.033,0.133-0.083,0.233-0.15,0.3v-0.55l0.051,0.399C106.934,81.816,106.967,81.767,107,81.7z M107.35,79.05
		c0.167-6.434,0.45-12.666,0.851-18.7c0.333-5.166,0.517-9.983,0.55-14.449c0.366,0.966,0.684,3.983,0.95,9.05
		c0.166,2.6,0.316,5.55,0.45,8.85l0.149-1.5c0.233-1.5,0.75-6.483,1.55-14.95c1.634-0.166,2.667-0.483,3.101-0.949
		c0.6-0.601,1.217-2.217,1.85-4.851l1.4-0.05c-0.134,0.167-0.25,0.366-0.351,0.6c-0.267,0.467-0.399,0.9-0.399,1.301
		c0,1.666,0.783,2.916,2.35,3.75c1.566,0.833,2.351,2.716,2.351,5.649c0,0.467-0.15,1.75-0.45,3.851
		c-0.367,2.267-0.584,4.133-0.65,5.6c-1.066-0.267-1.934-0.4-2.6-0.4c-1.667,0-2.75,0.567-3.25,1.7c-0.334,1.4-0.634,2.334-0.9,2.8
		c-0.633,1.2-1.283,1.717-1.95,1.551c-0.899-0.434-1.767-0.65-2.6-0.65c-0.9,0-1.417,0.3-1.55,0.9
		c-0.033,0.166-0.05,1.583-0.05,4.25C108.15,73.934,107.884,76.15,107.35,79.05z M125.55,62.3c0.467-1.233,0.834-4.316,1.101-9.25
		c0.199-4.3,0.25-8.267,0.149-11.899c0.033,0,0.084,0,0.15,0c-0.033,3.033,0.184,6.133,0.649,9.3c0.534,3.7,0.817,5.883,0.851,6.55
		v-1.5c-0.3-3.2-0.15-6.1,0.45-8.7c0.566-2.633,1.5-4.416,2.8-5.35c0.633,2.434,2.017,6.6,4.149,12.5l0.051-1.4
		c0.066-2.467,0.366-6.483,0.899-12.05c0.533,2.366,0.7,5.1,0.5,8.2c-0.166,2.533,0.134,4.566,0.9,6.1l0.2-0.2
		c-0.5,1.434-1,2.4-1.5,2.9c-0.434,0.467-1.051,0.7-1.851,0.7c-0.333,0-1.066-0.15-2.2-0.45c-1.166-0.3-1.916-0.45-2.25-0.45
		c-0.933,0-1.75,0.634-2.449,1.9C127.316,60.8,126.45,61.833,125.55,62.3z M138.5,54.45c-0.066-6.267-0.1-9.733-0.1-10.4
		c0-0.434,0.083-1.5,0.25-3.2c0.133-1.6,0.216-2.483,0.25-2.65l5.199-2.4v0.45c-0.166,1.4-0.216,2.667-0.149,3.8
		c-0.066-0.066-0.134,0.184-0.2,0.75s-0.1,1.101-0.1,1.601c0,0.933,0.233,2.833,0.699,5.699
		C141.417,51.1,139.467,53.217,138.5,54.45z M87.25,75.65c0.167-0.167,0.333-0.417,0.5-0.75C88.217,69,88.866,61.8,89.7,53.3
		l-0.25,10.75c0,0.467,0.083,1.033,0.25,1.7c0.133,0.6,0.25,1.017,0.35,1.25l0.05-0.2c-0.6-5.233,0.284-10.066,2.65-14.5
		c2-3.8,3.8-5.7,5.4-5.7c0.666,0,0.866,0.017,0.6,0.051L98.8,47l0.05,3.45l0.75-2.75l0.5,0.5c0.2,0.333,0.5,1.283,0.9,2.85
		c0.233,0.834,0.5,1.851,0.8,3.05c0-4.899,0.05-7.883,0.15-8.949l0.85,0.149c0.066,0.134,0.434,4,1.101,11.601
		c0.699,7.566,1.149,11.583,1.35,12.05c-0.767-1-2.134-2.15-4.1-3.45c-1.867-1.2-3.067-1.8-3.601-1.8
		c-2.333,0.133-4.7,0.184-7.1,0.149c0.066,1.267-0.167,2.867-0.7,4.801c-0.566,2.166-0.884,4.933-0.95,8.3
		C88.3,76.75,87.783,76.316,87.25,75.65z M78.45,58.35c0.1,0.067,0.2,0.134,0.3,0.2c-0.233-0.7-0.517-2.45-0.85-5.25
		c-0.3-2.566-0.45-4.166-0.45-4.8l0.05-4.9l1.35,0.5l-0.05,6.2l1.35-1.8c0.167,0.333,0.6,2.233,1.3,5.7
		c0.7,3.666,1.267,6.066,1.7,7.2c-0.1-1.767,0.067-4.434,0.5-8c0.367-3.267,0.783-5.967,1.25-8.101l1.2-0.2
		c0,11.233-0.05,18.934-0.149,23.101c0,0.533,0.1,1.75,0.3,3.649c0.167,1.267,0.316,2.284,0.45,3.051
		c-0.733-1-1.483-2.384-2.25-4.15c-1.333-2.9-2.3-5.533-2.9-7.9c-0.433-1.767-0.933-2.85-1.5-3.25
		C79.417,59.167,78.883,58.75,78.45,58.35z M71.85,55.25c-0.867,0.467-1.583,1.2-2.15,2.2c-0.534,0.967-0.733,1.767-0.6,2.399
		c-0.633,0.267-1.2,0.4-1.7,0.4c-1.467,0-3.4-0.134-5.8-0.4s-4.1-0.533-5.1-0.8c0.367-1.066,0.95-4.366,1.75-9.899
		c0.733-5.534,1.133-8.517,1.2-8.95c0,4.6-0.1,10.633-0.3,18.1c0.067-0.5,0.633-3.816,1.7-9.95c0.233-1.433,1.333-2.816,3.3-4.149
		c1.567-1.066,2.583-1.601,3.05-1.601c0.333,0,0.917,0.134,1.75,0.4c0.8,0.233,1.367,0.35,1.7,0.35c0.4,0,0.767-0.199,1.1-0.6
		c0.267-0.3,0.45-0.634,0.55-1l0.35,0.1c0.1,0.9,0.217,2.15,0.35,3.75c0.167,1.167,0.533,1.75,1.1,1.75c0.4,0,0.6,0.067,0.6,0.2
		c0,0.101-0.05,0.417-0.15,0.95c0,0.7-0.216,1.717-0.65,3.05c-0.467,1.4-0.967,2.467-1.5,3.2L71.85,55.25z M51.7,51.1
		c0.2-0.699,0.267-1.883,0.2-3.55c-0.033-1.533,0.917-5.416,2.85-11.65c0.133,0.4,0.35,1.533,0.65,3.4
		c0.333,2.134,0.5,3.634,0.5,4.5c0,1.367-0.066,2.967-0.2,4.8c-0.233,2.467-0.517,4.2-0.85,5.2c-1.033-0.166-1.75-0.483-2.15-0.95
		C52.3,52.15,51.967,51.566,51.7,51.1z M47.95,46.55l0.35-1.399c0.667-0.134,1.117-0.117,1.35,0.05c0.1,0.1,0.283,0.45,0.55,1.05
		c0.133-0.167,0.233-0.384,0.3-0.65L50.4,47.9C49.633,47.2,48.817,46.75,47.95,46.55z M25.15,21.25c0.033,2.733,0.184,4.8,0.45,6.2
		c0.133,0.8,0.333,1.966,0.6,3.5L26.65,30c0.667,0.5,1.15,1.183,1.45,2.05c0.3,0.967,0.45,2.383,0.45,4.25
		c0,2.534-0.55,4.767-1.65,6.7c-1.133,1.967-1.7,4.1-1.7,6.4c0,0.899,0.1,1.8,0.3,2.699c0.267,1.301,0.667,2.017,1.2,2.15
		c0.466-0.033,0.95-0.134,1.45-0.3c-0.633-3.3-0.383-5.434,0.75-6.4c1.4-1.267,2.1-3.366,2.1-6.3c0-1.933-0.25-4.283-0.75-7.05
		c-0.533-2.767-0.8-4.617-0.8-5.55l0.05-2.35h0.55c0.567,0.267,1.017,0.934,1.35,2c0.267,0.8,0.4,1.417,0.4,1.85
		c0.267-1.133,0.5-2.1,0.7-2.9c0.4-1.567,0.717-2.533,0.95-2.9c0.033,0.1,0.7,2.367,2,6.8v-1.3c-0.233-1.033-0.1-2.4,0.4-4.1
		c0.467-1.667,0.983-2.75,1.55-3.25h0.05c0.233,0.6,1.117,4.633,2.65,12.1c0.133,0.467,0.633,1.283,1.5,2.45
		c0.833,1.133,1.25,1.717,1.25,1.75c0,0.434-0.317,0.917-0.95,1.45c-0.667,0.5-1,1.283-1,2.35c0,0.667,0.1,1.667,0.3,3
		c-2.733,0.667-4.517,2.584-5.35,5.75c-0.434,1.7-0.733,2.717-0.9,3.051c-0.467,0.899-1.217,1.35-2.25,1.35
		c-6.3,0-10.184-1.75-11.65-5.25c-1.033-2.566-1.583-3.9-1.65-4c-0.867-1.333-2.3-2.167-4.3-2.5h0.2c-0.7-8.533-1.2-14.05-1.5-16.55
		l0.05,2.3c-0.1,0.9-0.467,4.5-1.1,10.8c-0.133,1.566-0.45,2.8-0.95,3.7l-0.5-0.2c-1.233-3.066-2.966-8.35-5.2-15.85
		c-2.033-6.733-3.05-10.233-3.05-10.5c0-2.1,0.167-3.967,0.5-5.6C3.65,11.633,4,10.383,4.6,8.35l1.85,0.8
		c0.466,1.733,0.883,4.5,1.25,8.3c0.4,4.267,0.85,7.667,1.35,10.2l0.2-0.75c0.033-6.967,0.1-12.433,0.2-16.4
		c0.933,0.367,1.683,0.683,2.25,0.95c0.566,0.233,1.966,0.683,4.2,1.35l-0.45,7.15c0,10.033,0.466,16.783,1.4,20.25
		c0.233,0.866,0.583,1.717,1.05,2.55c0.133,0.267,0.25,0.533,0.35,0.8c-0.933-4.333-1.15-9.2-0.65-14.6c0.8-5.1,1.2-7.867,1.2-8.3
		c0-0.367-0.133-1.283-0.4-2.75c-0.333-1.667-0.517-2.633-0.55-2.9l1.25-0.1c0.9-0.1,1.467-0.2,1.7-0.3
		c0.167,0.267,0.483,0.617,0.95,1.05c0.433,0.467,0.767,0.867,1,1.2L22.8,19c-0.233,1.733-0.35,3.133-0.35,4.2
		c0,1.533,0.3,3.733,0.9,6.6c0.467,2.133,0.833,3.617,1.1,4.45C24.483,29.517,24.717,25.183,25.15,21.25z M91.45,44.3l0.649-0.05
		h0.5c0.2,1.3-0.1,2.467-0.899,3.5c-0.867,0.8-1.351,1.25-1.45,1.35l0.25-2v-0.05L91.45,44.3z M50.55,45.05
		c-0.1-0.633-0.15-1.283-0.15-1.95c0.733-3.399,1.217-5.417,1.45-6.05c0.133,0.833,0.033,2.083-0.3,3.75
		C51.417,41.533,51.083,42.95,50.55,45.05z M26.2,30.95h-0.1v6.2l0.1-1.9C26.267,33.583,26.267,32.15,26.2,30.95z"/>
	<path style="fill-rule:evenodd;clip-rule:evenodd;fill:#8C847C;" d="M160.95,8.55c0.233,2.034-0.467,3.133-2.101,3.3V11.8
		c0.233,0,0.351-0.333,0.351-1c0-0.267-0.017-0.483-0.05-0.65c-0.034-0.566-0.15-1.167-0.351-1.8c0-0.1,0.017-0.2,0.05-0.3
		c0.034-0.1,0.067-0.2,0.101-0.3V7.7c0.066-0.167,0.149-0.3,0.25-0.4c0.133-0.167,0.267-0.283,0.399-0.35
		c0.367,0.3,0.667,0.6,0.9,0.9c0,0.2,0.05,0.367,0.15,0.5C160.717,8.483,160.816,8.55,160.95,8.55z M82.9,38.8l0.05-0.9
		c0.2-0.066,0.933-0.133,2.2-0.2c1.034,0,2.167-0.434,3.4-1.3c0.101-0.467,0.117-0.95,0.05-1.45c1.067-0.567,1.784-0.317,2.15,0.75
		c0.167,0.566,0.233,1.2,0.2,1.9c0,0.833-2.55,1.95-7.65,3.35c-0.633,0-1.933-0.083-3.9-0.25c-2.167-0.167-3.383-0.3-3.65-0.4
		l0.95-0.1c0.167,0,1.883-0.083,5.15-0.25C82.183,39.917,82.533,39.533,82.9,38.8z M91.45,25.25l0.3,1.1c-0.366,1.3-0.7,2-1,2.1
		c-0.5,0.2-2.65,0.25-6.45,0.15l1.35-0.3c0.933-0.433,1.817-1.15,2.65-2.15c0.4-0.5,0.733-0.967,1-1.4
		C89.967,24.75,90.684,24.917,91.45,25.25z M159.15,2.1c-5.9,0.066-9.233,0.133-10,0.2c-1.067,0.133-1.95,0.617-2.65,1.45
		c-1.366,2.1-2.15,3.267-2.35,3.5c-0.101,0.067-1.184,0.333-3.25,0.8c-0.134,0.034-2.051,0.95-5.75,2.75
		c-3.601,1.767-5.767,2.684-6.5,2.75c1.366-1.8,3.083-2.95,5.149-3.45c2.601-0.667,4.283-1.283,5.05-1.85
		c3.4-2.433,5.75-4.5,7.051-6.2c0.533-0.466,2.716-0.7,6.55-0.7c0.666,0,2.416,0.133,5.25,0.4l-0.4-0.1l2.05,0.3L159.15,2.1z
		 M130.6,29.7c2.567-0.7,4.534-1.733,5.9-3.1c0.267-0.2,0.5-0.467,0.7-0.8c0.2-0.367,0.283-0.65,0.25-0.85l0.7,0.55
		c0.5,0.967,0.75,1.55,0.75,1.75c0,0.167-0.051,0.467-0.15,0.9c-0.566,0.833-2.083,1.583-4.55,2.25
		c-2.533,0.667-4.65,0.883-6.351,0.65l-1.05-0.15L130.6,29.7z M149.8,23.35c-0.2-0.067-0.283-0.383-0.25-0.95l0.05-0.8l3.2,0.5
		c-0.166,0.667-0.366,1.083-0.6,1.25C151.767,23.55,150.967,23.55,149.8,23.35z M75.5,14.6l6.3,0.45l-0.5-0.15l2.55,0.7
		C81.05,15.433,78.267,15.1,75.5,14.6z M40.65,6.95c2.133-0.133,4.533-0.133,7.2,0h0.1l1.2,0.5c0.333,0.533,1.184,1.183,2.55,1.95
		c0.833,0.467,2.267,1.233,4.3,2.3c-2.9-0.8-5.6-1.65-8.1-2.55C45.7,8.35,43.283,7.617,40.65,6.95z M25.6,5.45l3.8-0.05v0.1
		L25.6,5.45z M101.3,16.25l0.2,0.05l0.1,0.05L101.3,16.25z M73,14l0.75,0.05h-0.7L73,14z M43.25,14.7l1.4-0.5
		c0.5-0.133,1.1-0.45,1.8-0.95v0.35c0,0.467-0.2,1.066-0.6,1.8c-0.667,0.1-1.2,0.15-1.6,0.15l-1.4-0.15c0-0.133,0.066-0.3,0.2-0.5
		C43.117,14.833,43.183,14.767,43.25,14.7z M22.5,5.4c-0.733-0.066-1.25-0.217-1.55-0.45c0.333,0.233,0.933,0.383,1.8,0.45H22.5z
		 M20.25,5.4H20.2l0.2-0.05L20.25,5.4z"/>
</g>
</svg>
