<?xml version="1.0" encoding="iso-8859-1"?>
<!-- Generator: Adobe Illustrator 15.1.0, SVG Export Plug-In . SVG Version: 6.00 Build 0)  -->
<!DOCTYPE svg PUBLIC "-//W3C//DTD SVG 1.1//EN" "http://www.w3.org/Graphics/SVG/1.1/DTD/svg11.dtd">
<svg version="1.1" id="Layer_1" xmlns="http://www.w3.org/2000/svg" xmlns:xlink="http://www.w3.org/1999/xlink" x="0px" y="0px"
	 width="82px" height="59px" viewBox="0 0 82 59" style="enable-background:new 0 0 82 59;" xml:space="preserve">
<g>
	
		<linearGradient id="SVGID_1_" gradientUnits="userSpaceOnUse" x1="-3.8228" y1="-77.7847" x2="-1.9667" y2="-77.7847" gradientTransform="matrix(-0.0808 0.9967 -0.9967 -0.0808 -1.373142e-004 -7.291138e-005)">
		<stop  offset="0" style="stop-color:#FFFFFF"/>
		<stop  offset="1" style="stop-color:#D2DDE3"/>
	</linearGradient>
	<path style="fill-rule:evenodd;clip-rule:evenodd;fill:url(#SVGID_1_);" d="M77.4,2.35l0.25,0.25c0.8,0.533,1.1,0.983,0.899,1.35
		c-0.166,0.333-0.7,0.45-1.6,0.35c-0.033-0.533-0.033-1.083,0-1.65c0.133,0,0.233-0.033,0.3-0.1L77.4,2.35z"/>
	
		<linearGradient id="SVGID_2_" gradientUnits="userSpaceOnUse" x1="-3.4473" y1="-80.3716" x2="-2.3676" y2="-80.3716" gradientTransform="matrix(-0.0926 0.9957 -0.9957 -0.0926 -1.042187e-004 1.203418e-004)">
		<stop  offset="0" style="stop-color:#FFFFFF"/>
		<stop  offset="1" style="stop-color:#D2DDE3"/>
	</linearGradient>
	<path style="fill-rule:evenodd;clip-rule:evenodd;fill:url(#SVGID_2_);" d="M79.4,4.85l-0.75-1c0.3,0.033,0.916,0.083,1.85,0.15
		c0.8,0.1,1.3,0.3,1.5,0.6c-0.134,0.4-0.517,0.6-1.15,0.6C80.316,5.2,79.833,5.083,79.4,4.85z"/>
	
		<linearGradient id="SVGID_3_" gradientUnits="userSpaceOnUse" x1="-2.6069" y1="-70.1968" x2="0.58" y2="-70.1968" gradientTransform="matrix(-0.0863 0.9963 -0.9963 -0.0863 7.982776e-004 1.478642e-004)">
		<stop  offset="0" style="stop-color:#FFFFFF"/>
		<stop  offset="1" style="stop-color:#D2DDE3"/>
	</linearGradient>
	<path style="fill-rule:evenodd;clip-rule:evenodd;fill:url(#SVGID_3_);" d="M68.85,3.25H68.9c0.433-0.033,0.916,0,1.449,0.1
		c1.534,0.233,2.4,0.733,2.601,1.5C72.983,4.983,73,5.117,73,5.25c0,0.667-0.517,1.1-1.55,1.3c-0.634,0.133-1.384,0.167-2.25,0.1
		c-1.066-0.1-1.667-0.367-1.8-0.8c-0.101-0.4,0.033-0.7,0.399-0.9c0.434-0.267,0.717-0.45,0.851-0.55V4.35L68.3,4.2L67.15,3.6
		c0.066-0.033,0.149-0.067,0.25-0.1C67.8,3.333,68.283,3.25,68.85,3.25z"/>
	
		<linearGradient id="SVGID_4_" gradientUnits="userSpaceOnUse" x1="-4.6489" y1="-72.1797" x2="-1.1112" y2="-72.1797" gradientTransform="matrix(-0.0848 0.9964 -0.9964 -0.0848 7.441416e-004 2.485514e-005)">
		<stop  offset="0" style="stop-color:#FFFFFF"/>
		<stop  offset="1" style="stop-color:#D2DDE3"/>
	</linearGradient>
	<path style="fill-rule:evenodd;clip-rule:evenodd;fill:url(#SVGID_4_);" d="M73,5.25c0-0.133-0.017-0.267-0.05-0.4
		c-0.2-0.767-1.066-1.267-2.601-1.5c-0.533-0.1-1.017-0.133-1.449-0.1c0-0.067,0-0.117,0-0.15c0.033-0.5,0.316-0.817,0.85-0.95
		c0.134-0.033,0.6-0.05,1.4-0.05l1-0.75c0.933-0.067,1.783,0.233,2.55,0.9c0.833,0.733,0.934,1.533,0.3,2.4
		C74.667,5.083,74,5.283,73,5.25z"/>
	
		<linearGradient id="SVGID_5_" gradientUnits="userSpaceOnUse" x1="-5.3716" y1="-65.8433" x2="-0.9556" y2="-65.8433" gradientTransform="matrix(-0.0849 0.9964 -0.9964 -0.0849 2.816319e-004 -1.179576e-004)">
		<stop  offset="0" style="stop-color:#FFFFFF"/>
		<stop  offset="1" style="stop-color:#D2DDE3"/>
	</linearGradient>
	<path style="fill-rule:evenodd;clip-rule:evenodd;fill:url(#SVGID_5_);" d="M63.85,4.65c-0.199,0-0.35-0.033-0.449-0.1
		C62.8,4.217,62.616,3.633,62.85,2.8c0.034-0.167,0.101-0.316,0.2-0.45V2.3c0.2-0.466,0.483-0.867,0.851-1.2
		c1.366-1.267,2.649-1.417,3.85-0.45c0.5,0.434,0.833,1.033,1,1.8c0.033,0.2,0.066,0.466,0.1,0.8c-0.566,0-1.05,0.083-1.449,0.25
		c-0.101,0.033-0.184,0.067-0.25,0.1L68.3,4.2c-0.1,0.066-0.233,0.15-0.399,0.25c-0.267,0.1-0.601,0.167-1,0.2
		C66.1,4.617,65.533,4.6,65.2,4.6c-0.367,0.033-0.667,0.05-0.9,0.05C64.1,4.65,63.95,4.65,63.85,4.65z"/>
	<path style="fill-rule:evenodd;clip-rule:evenodd;fill:#CCD9E0;" d="M68.65,4.4c-0.233,0-0.483,0.017-0.75,0.05
		c0.166-0.1,0.3-0.184,0.399-0.25l0.351,0.15V4.4z M53.15,2.9c0.966-0.267,2.033-0.45,3.199-0.55c1.367-0.1,3.601-0.1,6.7,0
		c-0.1,0.133-0.166,0.283-0.2,0.45C62.616,3.633,62.8,4.217,63.4,4.55c0.1,0.067,0.25,0.1,0.449,0.1
		c-0.966,0.067-1.833,0.117-2.6,0.15c-0.033-0.367-0.184-0.716-0.45-1.05c-0.566-0.667-1.366-0.967-2.399-0.9l-1,0.25
		c-1.301,0-2.334,0.35-3.101,1.05c-0.033-0.1-0.066-0.2-0.1-0.3C54.033,3.417,53.684,3.1,53.15,2.9z M39.85,9.45
		c-0.133,0.066-0.267,0.15-0.4,0.25c0.066-0.1,0.117-0.2,0.15-0.3C39.7,9.4,39.783,9.417,39.85,9.45z M35.85,11.1
		c-0.967,0.167-2.25,0.25-3.85,0.25c-1.567,0-2.483,0.033-2.75,0.1c-0.333,0.066-0.667,0.183-1,0.35c0.033-0.367-0.167-0.6-0.6-0.7
		h-2c-0.267,0.867-0.367,1.383-0.3,1.55c0.133,0.233,0.583,0.317,1.35,0.25c-0.467,0.434-1.1,1.15-1.9,2.15
		c-0.9,1.067-1.617,1.833-2.15,2.3c-0.733,0.667-1.183,1.117-1.35,1.35c-0.267,0.367-0.483,0.917-0.65,1.65
		c-0.467,2.233-0.816,6.083-1.05,11.55c-0.233,5-0.717,8.816-1.45,11.449c-1.333,4.9-2.133,8.034-2.4,9.4
		c-0.067,0.467-0.083,1.15-0.05,2.05c0.033,0.934,0.017,1.617-0.05,2.05c-0.033,0.233-0.117,0.667-0.25,1.301
		c-0.033,0.033-0.05,0.083-0.05,0.149v0.05c-0.067,0.134-0.117,0.284-0.15,0.45c0-0.133,0-0.25,0-0.35L15.05,56
		c-0.066-0.467-0.133-0.95-0.2-1.45c-0.167-0.934-0.3-1.75-0.4-2.45l-0.3-1.75c-0.133-1.133-0.2-2-0.2-2.6
		c2-2.066,3.117-4.517,3.35-7.35c0.067-0.567,0.083-1.351,0.05-2.351c-0.033-1.166-0.05-1.95-0.05-2.35
		c0.034-0.733,0.167-1.7,0.4-2.9c0.3-1.566,0.466-2.55,0.5-2.95c0.133-1,0.15-2.45,0.05-4.35c-0.067-2-0.05-3.467,0.05-4.4
		c0-0.233-0.066-0.367-0.2-0.4l0.25-0.85c0.9-2.7,1.333-4.767,1.3-6.2c0-1.4,0.017-2.233,0.05-2.5c0.233-0.033,0.667,0.017,1.3,0.15
		c0.567,0.133,0.983,0.117,1.25-0.05c0.3-0.133,0.5-0.433,0.6-0.9c0.033-0.267,0.083-0.483,0.15-0.65c0.067,0,0.117-0.017,0.15-0.05
		c0.133-0.066,0.25-0.183,0.35-0.35c0.267-0.066,0.683-0.083,1.25-0.05c0.467,0,1.033,0.033,1.7,0.1h6.3
		c-0.067,0.2-0.1,0.367-0.1,0.5c0,0.667,0.367,1.083,1.1,1.25c0.3,0.033,0.933,0.033,1.9,0C35.717,11.1,35.783,11.1,35.85,11.1z
		 M16.6,17.9l-0.35-1.35l-1.05-2.3c-1.233,0.333-2,1.533-2.3,3.6c-0.367,2.533-0.75,4.05-1.15,4.55c-0.1-0.667-0.133-1.583-0.1-2.75
		c0.067-1.333,0.083-2.267,0.05-2.8l-0.15-1.35l-0.15-1.35h0.55c0.667-0.066,1.167-0.217,1.5-0.45
		c0.367-0.267,0.617-0.717,0.75-1.35c1.2-0.1,1.917,0,2.15,0.3c0.2,0.2,0.267,0.7,0.2,1.5c-0.033,0.434-0.083,0.983-0.15,1.65
		c0.033,0.434,0.133,0.85,0.3,1.25c0.133,0.233,0.316,0.6,0.55,1.1c0.367,0.934,0.283,1.783-0.25,2.55
		C16.933,19.667,16.8,18.733,16.6,17.9z"/>
	
		<linearGradient id="SVGID_6_" gradientUnits="userSpaceOnUse" x1="0.1592" y1="-37.1494" x2="60.5592" y2="-37.1494" gradientTransform="matrix(1.655629e-005 1 -1 -0.001 1.847143e-004 1.089873e-004)">
		<stop  offset="0" style="stop-color:#FFFFFF"/>
		<stop  offset="1" style="stop-color:#D2DDE3"/>
	</linearGradient>
	<path style="fill-rule:evenodd;clip-rule:evenodd;fill:url(#SVGID_6_);" d="M50.05,2.6c3.134-1.233,5.667-1.817,7.601-1.75
		L63.05,2.3v0.05c-3.1-0.1-5.333-0.1-6.7,0c-1.166,0.1-2.233,0.283-3.199,0.55c-0.301-0.133-0.617-0.217-0.95-0.25
		C52,2.617,51.283,2.6,50.05,2.6z M14.15,50.35c-0.267-1.966-0.35-4.533-0.25-7.699c0.167-3.467,0.25-6.051,0.25-7.75
		c-0.066-1.567-0.1-2.767-0.1-3.601c0-1.433,0.2-2.583,0.6-3.45c0.167-0.333,0.517-0.85,1.05-1.55c0.433-0.633,0.716-1.15,0.85-1.55
		c0.5-1.467,0.6-3.267,0.3-5.4c-0.067-0.5-0.15-0.983-0.25-1.45c0.2,0.833,0.333,1.767,0.4,2.8c0.533-0.767,0.617-1.617,0.25-2.55
		c-0.233-0.5-0.417-0.867-0.55-1.1c-0.167-0.4-0.267-0.816-0.3-1.25c0.067-0.667,0.117-1.216,0.15-1.65c0.067-0.8,0-1.3-0.2-1.5
		c-0.233-0.3-0.95-0.4-2.15-0.3c-0.133,0.633-0.383,1.083-0.75,1.35c-0.333,0.233-0.833,0.383-1.5,0.45H11.4l0.15,1.35
		c-0.1-0.633-0.167-1.15-0.2-1.55c-0.033-0.3-0.067-0.583-0.1-0.85c1.133-0.2,1.6-0.867,1.4-2l-1.15-0.15
		c0.067-0.367,0.133-0.883,0.2-1.55c0.1-1.066,0.25-1.667,0.45-1.8l-0.4-0.25c0.233-0.3,0.533-0.6,0.9-0.9
		c1.167-0.8,2.6-1.284,4.3-1.45c0.733-0.1,2.283-0.15,4.65-0.15c5.8,0.066,11.3,0.217,16.5,0.45c-0.7,0.434-1.2,0.867-1.5,1.3
		c-0.867-0.133-1.583-0.017-2.15,0.35c-0.367,0.233-0.75,0.667-1.15,1.3c-0.267,0.433-0.45,0.8-0.55,1.1h-6.3
		c-0.667-0.067-1.233-0.1-1.7-0.1c-0.567-0.033-0.983-0.017-1.25,0.05c0.1-0.233,0.15-0.55,0.15-0.95l-0.5-0.25
		c-0.3-0.167-0.833-0.117-1.6,0.15c-0.8,0.3-1.1,0.667-0.9,1.1c0.1,0.167,0.5,0.283,1.2,0.35c0.533,0.066,0.917,0.066,1.15,0
		c-0.067,0.167-0.117,0.383-0.15,0.65c-0.1,0.467-0.3,0.767-0.6,0.9c-0.267,0.167-0.683,0.183-1.25,0.05
		c-0.633-0.133-1.067-0.183-1.3-0.15c-0.034,0.267-0.05,1.1-0.05,2.5c0.033,1.434-0.4,3.5-1.3,6.2L18.1,20.7
		c0.133,0.033,0.2,0.167,0.2,0.4c-0.1,0.933-0.117,2.4-0.05,4.4c0.1,1.9,0.083,3.35-0.05,4.35c-0.034,0.4-0.2,1.383-0.5,2.95
		c-0.233,1.2-0.367,2.167-0.4,2.9c0,0.399,0.017,1.184,0.05,2.35c0.033,1,0.017,1.783-0.05,2.351c-0.233,2.833-1.35,5.283-3.35,7.35
		C13.95,48.35,14.017,49.217,14.15,50.35z M15.2,58.8c0.033-0.166,0.083-0.316,0.15-0.45c-0.067,0.233-0.117,0.45-0.15,0.65
		C15.2,58.934,15.2,58.866,15.2,58.8z M15.05,56c-0.066-0.3-0.117-0.616-0.15-0.95c-0.2-1.166-0.35-2.149-0.45-2.95
		c0.1,0.7,0.233,1.517,0.4,2.45C14.917,55.05,14.983,55.533,15.05,56z"/>
	
		<linearGradient id="SVGID_7_" gradientUnits="userSpaceOnUse" x1="-1.7529" y1="-57.4893" x2="2.8125" y2="-57.4893" gradientTransform="matrix(-0.0821 0.9966 -0.9966 -0.0821 3.370494e-004 -2.509207e-004)">
		<stop  offset="0" style="stop-color:#FFFFFF"/>
		<stop  offset="1" style="stop-color:#D2DDE3"/>
	</linearGradient>
	<path style="fill-rule:evenodd;clip-rule:evenodd;fill:url(#SVGID_7_);" d="M53.75,7.4c-0.2-0.033-0.384-0.066-0.55-0.1
		c-0.033-0.267-0.033-0.5,0-0.7c-0.033-0.067-0.033-0.117,0-0.15c0-0.133,0-0.25,0-0.35c0.133-0.767,0.483-1.417,1.05-1.95h0.05
		c0.767-0.7,1.8-1.05,3.101-1.05l1-0.25c1.033-0.067,1.833,0.233,2.399,0.9c0.267,0.333,0.417,0.683,0.45,1.05
		c0.033,0.4-0.083,0.833-0.35,1.3C60.167,7.433,57.783,7.867,53.75,7.4z"/>
	
		<linearGradient id="SVGID_8_" gradientUnits="userSpaceOnUse" x1="-1.3496" y1="-45.7412" x2="5.8753" y2="-45.7412" gradientTransform="matrix(-0.083 0.9965 -0.9965 -0.083 -7.664263e-004 -7.051229e-005)">
		<stop  offset="0" style="stop-color:#FFFFFF"/>
		<stop  offset="1" style="stop-color:#D2DDE3"/>
	</linearGradient>
	<path style="fill-rule:evenodd;clip-rule:evenodd;fill:url(#SVGID_8_);" d="M53.2,6.45C53.1,6.517,53,6.567,52.9,6.6h0.3
		c-0.033,0.2-0.033,0.433,0,0.7c0.166,0.034,0.35,0.067,0.55,0.1c-0.833,0.333-1.833,0.733-3,1.2c-0.934,0.467-1.934,0.717-3,0.75
		c-1.7-0.067-2.983-0.067-3.85,0C42.866,9.45,42.1,9.5,41.6,9.5c-0.633,0.033-1.216,0.017-1.75-0.05C39.783,9.417,39.7,9.4,39.6,9.4
		c0.066-0.167,0.133-0.333,0.2-0.5c0.1-0.467,0.133-0.983,0.1-1.55l-1-0.5c-0.167,0-0.917-0.083-2.25-0.25H36.6
		c0.3-0.434,0.8-0.867,1.5-1.3h0.05c0.533-0.333,1.6-0.816,3.2-1.45c2.134-0.833,4.867-1.25,8.2-1.25c0.167,0,0.334,0,0.5,0
		c1.233,0,1.95,0.017,2.15,0.05c0.333,0.033,0.649,0.117,0.95,0.25c0.533,0.2,0.883,0.517,1.05,0.95c0.033,0.1,0.066,0.2,0.1,0.3
		h-0.05c-0.566,0.533-0.917,1.184-1.05,1.95C53.2,6.2,53.2,6.317,53.2,6.45z"/>
	
		<linearGradient id="SVGID_9_" gradientUnits="userSpaceOnUse" x1="3.6162" y1="-36.9131" x2="7.9823" y2="-36.9131" gradientTransform="matrix(-0.0859 0.9963 -0.9963 -0.0859 -2.056807e-004 6.686151e-005)">
		<stop  offset="0" style="stop-color:#FFFFFF"/>
		<stop  offset="1" style="stop-color:#D2DDE3"/>
	</linearGradient>
	<path style="fill-rule:evenodd;clip-rule:evenodd;fill:url(#SVGID_9_);" d="M39.45,9.7c-0.167,0.233-0.383,0.45-0.65,0.65
		c-0.633,0.433-1.617,0.683-2.95,0.75c-0.067,0-0.133,0-0.2,0c-0.967,0.033-1.6,0.033-1.9,0c-0.733-0.167-1.1-0.583-1.1-1.25
		c0-0.133,0.033-0.3,0.1-0.5c0.1-0.3,0.283-0.667,0.55-1.1c0.4-0.633,0.784-1.067,1.15-1.3c0.566-0.367,1.283-0.483,2.15-0.35h0.05
		c1.333,0.167,2.083,0.25,2.25,0.25l1,0.5c0.033,0.566,0,1.083-0.1,1.55c-0.066,0.167-0.133,0.333-0.2,0.5
		C39.567,9.5,39.517,9.6,39.45,9.7z"/>
	
		<linearGradient id="SVGID_10_" gradientUnits="userSpaceOnUse" x1="6.2993" y1="-22.7393" x2="7.9042" y2="-22.7393" gradientTransform="matrix(-0.0779 0.997 -0.997 -0.0779 -4.653111e-004 6.480515e-005)">
		<stop  offset="0" style="stop-color:#FFFFFF"/>
		<stop  offset="1" style="stop-color:#D2DDE3"/>
	</linearGradient>
	<path style="fill-rule:evenodd;clip-rule:evenodd;fill:url(#SVGID_10_);" d="M23,9.7c-0.233,0.066-0.617,0.066-1.15,0
		c-0.7-0.067-1.1-0.184-1.2-0.35c-0.2-0.434,0.1-0.8,0.9-1.1c0.767-0.267,1.3-0.317,1.6-0.15l0.5,0.25c0,0.4-0.05,0.717-0.15,0.95
		c-0.1,0.167-0.217,0.284-0.35,0.35C23.117,9.683,23.067,9.7,23,9.7z"/>
	
		<linearGradient id="SVGID_11_" gradientUnits="userSpaceOnUse" x1="8.834" y1="-27.7056" x2="10.6402" y2="-27.7056" gradientTransform="matrix(-0.083 0.9965 -0.9965 -0.083 2.672896e-004 -7.256866e-006)">
		<stop  offset="0" style="stop-color:#FFFFFF"/>
		<stop  offset="1" style="stop-color:#D2DDE3"/>
	</linearGradient>
	<path style="fill-rule:evenodd;clip-rule:evenodd;fill:url(#SVGID_11_);" d="M28.25,11.8c-0.033,0.167-0.117,0.35-0.25,0.55
		c-0.133,0.267-0.267,0.417-0.4,0.45c-0.2,0-0.417,0.017-0.65,0.05c-0.067,0-0.15,0.017-0.25,0.05
		c-0.767,0.067-1.217-0.017-1.35-0.25c-0.067-0.167,0.033-0.683,0.3-1.55h2C28.083,11.2,28.283,11.433,28.25,11.8z"/>
	
		<linearGradient id="SVGID_12_" gradientUnits="userSpaceOnUse" x1="5.5732" y1="-9.0908" x2="11.5691" y2="-9.0908" gradientTransform="matrix(-0.0834 0.9965 -0.9965 -0.0834 -3.604963e-004 1.117289e-004)">
		<stop  offset="0" style="stop-color:#FFFFFF"/>
		<stop  offset="1" style="stop-color:#D2DDE3"/>
	</linearGradient>
	<path style="fill-rule:evenodd;clip-rule:evenodd;fill:url(#SVGID_12_);" d="M11.5,10.95l-0.85-0.1
		c-1.133-0.7-2.267-0.517-3.4,0.55c-0.333,0.333-0.55,0.617-0.65,0.85c-0.167-0.033-0.317-0.083-0.45-0.15
		C5.85,12,5.6,11.883,5.4,11.75c0-0.133,0-0.267,0-0.4l-0.75-0.5C4.583,10.683,4.567,10.5,4.6,10.3
		c0.066-0.633,0.583-1.283,1.55-1.95c1.667-1.067,2.6-1.65,2.8-1.75c1.433-0.7,2.25-0.533,2.45,0.5l0.35,0.25l0.4,0.25
		c-0.2,0.133-0.35,0.733-0.45,1.8C11.633,10.067,11.567,10.583,11.5,10.95z"/>
	
		<linearGradient id="SVGID_13_" gradientUnits="userSpaceOnUse" x1="9.8306" y1="-10.5625" x2="12.3386" y2="-10.5625" gradientTransform="matrix(-0.0797 0.9968 -0.9968 -0.0797 -4.921332e-004 -1.414716e-004)">
		<stop  offset="0" style="stop-color:#FFFFFF"/>
		<stop  offset="1" style="stop-color:#D2DDE3"/>
	</linearGradient>
	<path style="fill-rule:evenodd;clip-rule:evenodd;fill:url(#SVGID_13_);" d="M11.25,13.1c-1.467,0-2.5,0-3.1,0
		c-1.2-0.033-1.717-0.317-1.55-0.85c0.1-0.233,0.316-0.517,0.65-0.85c1.133-1.066,2.267-1.25,3.4-0.55l0.85,0.1l1.15,0.15
		C12.85,12.233,12.383,12.9,11.25,13.1z"/>
	
		<linearGradient id="SVGID_14_" gradientUnits="userSpaceOnUse" x1="9.2119" y1="-2.4253" x2="11.4687" y2="-2.4253" gradientTransform="matrix(-0.0775 0.997 -0.997 -0.0775 -4.642531e-004 -1.241267e-005)">
		<stop  offset="0" style="stop-color:#FFFFFF"/>
		<stop  offset="1" style="stop-color:#D2DDE3"/>
	</linearGradient>
	<path style="fill-rule:evenodd;clip-rule:evenodd;fill:url(#SVGID_14_);" d="M3.1,11.1c-0.033,0-0.067,0-0.1,0
		c-0.267,0.133-0.417,0.283-0.45,0.45c-0.066,0-0.117,0.017-0.15,0.05c-0.1,0.066-0.383,0.1-0.85,0.1c-0.466,0-0.767-0.034-0.9-0.1
		c-0.8-0.367-0.867-0.85-0.2-1.45c0.633-0.6,1.283-0.867,1.95-0.8l0.75,0.5c0.067,0.5,0.067,0.85,0,1.05
		C3.117,10.967,3.1,11.033,3.1,11.1z"/>
	
		<linearGradient id="SVGID_15_" gradientUnits="userSpaceOnUse" x1="10.5068" y1="-4.8882" x2="12.3878" y2="-4.8882" gradientTransform="matrix(-0.0797 0.9968 -0.9968 -0.0797 -5.528629e-004 -2.022833e-004)">
		<stop  offset="0" style="stop-color:#FFFFFF"/>
		<stop  offset="1" style="stop-color:#D2DDE3"/>
	</linearGradient>
	<path style="fill-rule:evenodd;clip-rule:evenodd;fill:url(#SVGID_15_);" d="M4.65,10.85l0.75,0.5c0,0.133,0,0.267,0,0.4
		c-0.066,0.433-0.333,0.75-0.8,0.95c-0.6,0.267-1.15,0.15-1.65-0.35c-0.333-0.3-0.467-0.567-0.4-0.8
		C2.583,11.383,2.733,11.233,3,11.1c0.033,0,0.067,0,0.1,0C3.467,10.933,3.983,10.85,4.65,10.85z"/>
</g>
</svg>
