<?xml version="1.0" encoding="iso-8859-1"?>
<!-- Generator: Adobe Illustrator 15.1.0, SVG Export Plug-In . SVG Version: 6.00 Build 0)  -->
<!DOCTYPE svg PUBLIC "-//W3C//DTD SVG 1.1//EN" "http://www.w3.org/Graphics/SVG/1.1/DTD/svg11.dtd">
<svg version="1.1" id="Layer_1" xmlns="http://www.w3.org/2000/svg" xmlns:xlink="http://www.w3.org/1999/xlink" x="0px" y="0px"
	 width="103.95px" height="198.65px" viewBox="0 0 103.95 198.65" style="enable-background:new 0 0 103.95 198.65;"
	 xml:space="preserve">
<g>
	<path style="fill-rule:evenodd;clip-rule:evenodd;fill:#635B52;" d="M99,97.15c-0.2,0.067-0.4,0.133-0.6,0.2l-1.15,0.9
		c-0.167,0.333-0.4,1.05-0.7,2.15v0.05L96.5,100.6c-0.667,1.601-1.85,2.551-3.55,2.851l-1.75,0.25c-1.233,0.133-2.65,0.2-4.25,0.2
		H81.85c1.7-0.067,3.384-0.684,5.051-1.851c0.733-0.566,1.35-1.1,1.85-1.6l1.7-1.55c0.166-0.167,0.816-0.7,1.95-1.6
		c0.6-0.466,1.05-1.05,1.35-1.75l0.3-0.75c0.2-0.566,0.434-1.933,0.7-4.1c0.2-1.667,0.583-2.867,1.15-3.6
		c0.433-0.6,0.833-1.15,1.199-1.65L97.2,85.2l0.2-0.75c0.133-0.667,0.25-1.534,0.35-2.6c0.1-1.2,0.167-2.083,0.2-2.65
		c0.3-3.233,0.399-7.35,0.3-12.35c-0.2-5.533-0.3-9.667-0.3-12.4c0-1.7,0.25-4.184,0.75-7.45c0.467-3.133,0.717-5.533,0.75-7.2
		l0.05,14.3c0.033-1.867,0.1-4.05,0.2-6.55c0.166-4.733,0.25-8.167,0.25-10.3c0-1.3-0.066-2.2-0.2-2.7
		c-0.2-0.633-0.65-1.333-1.35-2.1c0,2.2-0.167,5.716-0.5,10.55c-0.301,4.567-0.45,8.083-0.45,10.55L97.35,59.9l-0.25,2.05
		c-0.133-1.2-0.199-3.15-0.199-5.85c0.033-2.667-0.034-4.65-0.2-5.95c-0.733-5.3-1.483-10.05-2.25-14.25
		c-0.334-1.633-0.75-3.117-1.25-4.45c-0.867-2.2-1.733-3.184-2.601-2.95c-1.233,0.333-1.949,2-2.149,5
		c0.1-3.233,0.184-5.65,0.25-7.25c0.1-2.833,0.233-5.233,0.399-7.2c0.267-2.8,0.4-4.833,0.4-6.1c-0.134-1.567-0.217-2.817-0.25-3.75
		c-0.033-1.733,0.184-2.934,0.65-3.6c0.267,1.2,0.466,4.85,0.6,10.95c0.1,4.633,0.9,8.117,2.4,10.45
		c0.666-1.867,1.033-4.467,1.1-7.8c0.033-1.267,0.366-2.733,1-4.4c0.8-2.133,1.283-3.566,1.45-4.3l0.1-0.55l1.15,7.5
		c0.3,2.3,0.517,5.216,0.649,8.75c0.4-0.4,0.684-1.117,0.851-2.15c0.133-1.167,0.217-1.933,0.25-2.3c0.333-2.4,0.5-6,0.5-10.8V4.8
		c0.366,0.667,0.7,1.4,1,2.2l0.7,2.5c0.066,0.433,0.133,0.867,0.199,1.3c1.2,8.267,1.801,16.867,1.801,25.8v38.35
		c0,0.033,0.083,1.833,0.25,5.4c0.133,2.267,0.066,4.066-0.2,5.4c-0.233,1.2-0.9,2.717-2,4.55c-1.2,2-1.95,3.55-2.25,4.65L99,97.15z
		 M78.35,198l-0.05-0.95c0.667-0.133,1.733-0.217,3.2-0.25c4-0.467,6.983-1.1,8.95-1.899c1.1-0.434,2.7-0.934,4.8-1.5
		c1.634-0.667,2.65-1.817,3.05-3.45c0.434-1.8,0.584-4.2,0.45-7.2c-0.2-3.333-0.3-5.767-0.3-7.3v-22.7
		c0-5.533-0.084-13.833-0.25-24.9c-0.167-11.066-0.25-19.383-0.25-24.949l0.55-0.051v2.2c0.033,1.834,0.134,4.084,0.3,6.75
		c0.233,4.101,0.351,6.9,0.351,8.4c0,11.8,0.533,23.3,1.6,34.5c0.733,7.6,1.167,13.616,1.3,18.05c0.2,7.667-0.217,13.634-1.25,17.9
		c-1.066,4.333-4.083,6.916-9.05,7.75C89.017,198.866,84.55,198.733,78.35,198z M57.75,145l0.2,3.8
		c0.233,3.233,0.316,6.95,0.25,11.15c-0.066,2.2-0.217,5.934-0.45,11.2l-1.25,0.25c-0.767-8.067-1.934-16.184-3.5-24.351
		c-1-5.3-1.5-11.633-1.5-19c0-3.733,0.434-9.3,1.3-16.7c0.733-6.533,1.134-11.417,1.2-14.649v-0.85l0.8-6.6l1.25-10.35L56.15,78
		l2.35-19.4c-0.1,2.333-0.333,6.1-0.7,11.3c-0.333,4.833-0.55,8.583-0.649,11.25c-0.134,3.267-0.2,5.733-0.2,7.4L57,100.2v0.85
		c0.167,0.033,0.95,0.351,2.35,0.95c0.967,0.434,2.384,1.05,4.25,1.85c1.634,0.7,3.084,1.217,4.351,1.551l9-0.5
		c-1.167,0.767-2.733,1.316-4.7,1.649c-2.833,0.467-6.066,0.483-9.7,0.05c-1.399-0.233-2.5-0.449-3.3-0.649
		c-0.934-0.267-1.684-0.584-2.25-0.95v4.15v15.75c0,3.966,0.116,8.716,0.35,14.25L57.75,145z M25.95,95.4l-0.05,4.55l-0.45,16.85
		c-0.3,0.634-0.467,1.25-0.5,1.851l-0.1,1.75c-0.033,0.566-0.133,1-0.3,1.3l-0.05-0.351L24.45,121c-0.167-1.267-0.333-2.45-0.5-3.55
		c-3.4-0.167-6.1-0.934-8.1-2.3l-0.75-0.601c-0.145-0.115-0.287-0.231-0.425-0.35c-0.097-0.1-0.188-0.199-0.275-0.3l1.15,0.05
		l0.7,0.05l0.05,0.05c0.5,0.033,1.167,0.15,2,0.351c1.367,0.267,2.284,0.416,2.75,0.449c1.034,0.134,1.967,0.134,2.8,0
		c0.433-1.733,0.667-3.866,0.7-6.399c-0.066-2.867-0.1-5.017-0.1-6.45V72.25c0.066,2.733,0.316,6.417,0.75,11.05
		C25.7,88.7,25.95,92.733,25.95,95.4z M6.9,83.1c-0.2-0.167-0.417-0.317-0.65-0.45L6.2,82.6l-0.25-0.2V64.75v-1
		c0.1,5.567,0.517,12.083,1.25,19.55L6.9,83.1z M5.95,45.3c-0.567,4.967-0.867,8.867-0.9,11.7c-0.066,4.067-0.533,7.783-1.4,11.15
		c-0.667-2.733-0.983-6.233-0.95-10.5C2.9,52.817,3,49.283,3,47.05l0.05-0.85c0.4-0.2,1.083-0.417,2.05-0.65L5.95,45.3z M36.45,28.5
		c0.267,0.233,0.65,0.383,1.15,0.45c-0.267,3.133-0.8,7.8-1.6,14c-0.833,6.233-1.383,10.9-1.65,14c-0.067,1.033-0.2,3.533-0.4,7.5
		c-0.133,3.066-0.333,5.566-0.6,7.5l-0.15,1.2c-0.1,0.533-0.517,2.517-1.25,5.95c-0.5,2.467-0.817,4.5-0.95,6.1
		c0.067-4.5,0.083-10.117,0.05-16.85C31.017,60.85,31,55.233,31,51.5c-0.067-5-0.1-8.75-0.1-11.25
		c0.033-4.333,0.283-8.05,0.75-11.15c0.434-3.7,0.767-6.5,1-8.4v-0.05l3.5,3.55C35.85,25.533,35.95,26.967,36.45,28.5z M58.95,13.35
		c-0.134,1-0.667,4.583-1.601,10.75c-0.633,4.367-1.116,7.967-1.449,10.8c-0.233,1.867-0.617,4.667-1.15,8.4
		c-0.4,3.267-0.634,6.067-0.7,8.4c-0.066,1.8-0.283,4.05-0.649,6.75c-0.233,1.5-0.567,3.733-1,6.7c-0.034,0.3-0.2,2.133-0.5,5.5
		c-0.167,2.267-0.434,4.083-0.801,5.45c-0.366-2.267-0.5-5.2-0.399-8.8c0.2-4,0.3-6.95,0.3-8.85C51.167,46.183,51.184,37,51.05,30.9
		c0-1.033-0.167-2.483-0.5-4.35c-0.333-1.9-0.517-3.35-0.55-4.35c-0.1-5.1-0.117-8.167-0.05-9.2c0.3-0.033,0.6-0.05,0.9-0.05
		C54.583,12.75,57.283,12.883,58.95,13.35z M41.9,146.15c0,0.433,0.017,1.066,0.05,1.899c0,0.733-0.05,1.351-0.15,1.851
		c-0.4,1.899-1.033,3.783-1.9,5.649c-0.967,2.134-2.05,3.767-3.25,4.9c-0.233-1.066-0.083-2.334,0.45-3.8
		c0.733-1.634,1.2-2.851,1.4-3.65c0.533-1.9,1.05-4.517,1.55-7.85l0.35-2.351c0.2-1.233,0.4-3,0.6-5.3
		c0.233-2.434,0.433-4.2,0.6-5.3c0.8-5.634,1.233-8.851,1.3-9.65c0.033-0.833,0.067-1.467,0.1-1.899
		c0.033-0.733,0.2-1.334,0.5-1.801c0.067,7.9,0.083,13.034,0.05,15.4c-0.033,1.434-0.267,3.267-0.7,5.5
		c-0.5,2.667-0.8,4.467-0.9,5.4L41.9,146.15z M96.45,101.75l-2,48.65c0.666,2.033,1.033,4.517,1.1,7.449
		c0.033,1.667-0.017,4.167-0.149,7.5l0.05,11.101c0,0.166,0.017,1.017,0.05,2.55c0.033,1.033-0.017,1.884-0.15,2.55
		c-0.5-1.899-0.883-3.616-1.149-5.149c-0.233-1.434-0.367-2.75-0.4-3.95c-0.033-0.834-0.05-3.4-0.05-7.7c0-3.134-0.15-5.7-0.45-7.7
		c-0.2-1.666-0.684-3.3-1.45-4.899c-0.366-1.2-0.583-3-0.649-5.4L91,144c-0.366-3.033-0.634-5.316-0.8-6.85
		c-0.233-2.7-0.25-4.983-0.05-6.851l0.05-0.3c0.1-0.634,0.283-1.45,0.55-2.45c0.4-1.434,0.634-2.267,0.7-2.5
		c0.434-1.767,1.05-5.133,1.85-10.1c0.7-4.233,1.434-7.55,2.2-9.95L96.45,101.75z"/>
	<path style="fill-rule:evenodd;clip-rule:evenodd;fill:#898074;" d="M78.25,196.5c0.866-0.366,2.616-0.9,5.25-1.6
		c0.4-0.101,1.384-0.233,2.95-0.4c1.2-0.1,2.116-0.333,2.75-0.7c0.467-0.267,0.85-0.633,1.149-1.1c0.434-0.601,0.817-1.533,1.15-2.8
		c0.4-1.534,0.7-2.534,0.9-3c0.233-0.467,0.616-1.067,1.149-1.801c0.566-0.8,0.95-1.383,1.15-1.75
		c-0.2-1.933-0.384-3.333-0.55-4.199c-0.301-1.667-0.784-3.684-1.45-6.051c-1.066-3.866-1.617-5.866-1.65-6
		c-0.733-2.733-1.3-5.6-1.7-8.6c-1.1-3.733-1.983-6.917-2.649-9.55c-0.334-0.533-0.667-0.967-1-1.3L85.6,147.6
		c-0.6-0.6-1.183-1.05-1.75-1.35c-0.267-0.167-0.85-0.434-1.75-0.8c-0.333-0.134-1-0.5-2-1.101c-0.866-0.533-1.533-0.866-2-1
		c-0.533-0.1-1.3-0.033-2.3,0.2h-0.05c-0.1-0.1-0.2-0.2-0.3-0.3c-0.167-0.1-0.334-0.2-0.5-0.3c-0.134-0.066-0.283-0.134-0.45-0.2
		l-1.8-0.25c-0.733,0-1.584,0.083-2.55,0.25c-2.134,0.333-4.134,0.884-6,1.65L61.35,144.3c-0.966-0.066-1.683-0.066-2.149,0
		c-0.5,0.101-0.983,0.334-1.45,0.7l-0.4-5.85c0.534,0.333,0.934,0.517,1.2,0.55c0.367,0.066,0.684,0,0.95-0.2
		c0.333-0.2,0.6-0.3,0.8-0.3l2.45,0.25l2.1,0.2c1.601,0.133,2.584,0.216,2.95,0.25c1,0.033,1.967,0,2.9-0.101
		c0.6-0.3,1.2-0.5,1.8-0.6c0.434,0,1.333,0.333,2.7,1c1.066,0.5,1.983,0.566,2.75,0.2c0.3-0.134,0.666-0.483,1.1-1.051
		c0.4-0.533,0.767-0.883,1.101-1.05c0.433-0.1,0.933-0.116,1.5-0.05c0.767-0.566,1.333-1.583,1.699-3.05
		c0.301-1.7,0.551-2.917,0.75-3.65l1-3.2c0.101-2.433,0.45-4.566,1.051-6.399c0.566-1.767,0.85-3.134,0.85-4.101
		c0.066-2.267,0.066-5.666,0-10.199l-1.55-0.5c-1.5-0.367-3.334-0.567-5.5-0.601c-2.533,0.033-4.467,0.05-5.8,0.05l-1.9-0.05
		c1.967-0.333,3.533-0.883,4.7-1.649l-9,0.5c-1.267-0.334-2.717-0.851-4.351-1.551c-1.866-0.8-3.283-1.416-4.25-1.85
		c-1.399-0.6-2.183-0.917-2.35-0.95v-0.85c1.3,1.3,2.65,2.083,4.05,2.35l4.05,0.75c2.667,0.467,4.834,0.517,6.5,0.15
		c0.934-0.2,1.767-0.55,2.5-1.05c0.767-0.534,1.884-1.15,3.351-1.851c0.533-0.3,1.066-0.816,1.6-1.55
		c0.634-0.8,1.117-1.333,1.45-1.6c0.833-0.6,1.533-0.917,2.1-0.95c0.334-0.167,0.733-1.1,1.2-2.8
		c1.066-3.667,1.884-7.217,2.45-10.65L86,70.85c-0.033-2.867,0.134-6.05,0.5-9.55c0.167-1.867,0.55-5.033,1.15-9.5
		c0.633-3.066,1.033-5.6,1.199-7.6c0.367-3.767-0.066-6.267-1.3-7.5c-0.333,0.5-0.666,1.2-1,2.1c-0.467,1.2-0.75,1.917-0.85,2.15
		c-0.601-1.6-0.967-3.85-1.101-6.75c-0.066-3.267-0.116-5.567-0.149-6.9c-0.134-4.933,0.184-10.9,0.95-17.9
		c0.533-4.1,0.916-7.2,1.149-9.3V0.05c1.033-0.066,2-0.083,2.9-0.05l3.5,0.25c1.133,0.2,2.116,0.483,2.95,0.85
		C96.1,1.2,96.3,1.3,96.5,1.4l0.2,0.1c1.366,0.767,2.45,1.867,3.25,3.3v6.15c0,4.8-0.167,8.4-0.5,10.8
		c-0.033,0.367-0.117,1.133-0.25,2.3c-0.167,1.034-0.45,1.75-0.851,2.15c-0.133-3.534-0.35-6.45-0.649-8.75l-1.15-7.5l-0.1,0.55
		c-0.167,0.733-0.65,2.167-1.45,4.3c-0.634,1.667-0.967,3.133-1,4.4c-0.066,3.333-0.434,5.933-1.1,7.8
		c-1.5-2.333-2.301-5.817-2.4-10.45c-0.134-6.1-0.333-9.75-0.6-10.95c-0.467,0.667-0.684,1.867-0.65,3.6
		c0.033,0.933,0.116,2.183,0.25,3.75c0,1.267-0.134,3.3-0.4,6.1c-0.166,1.967-0.3,4.367-0.399,7.2c-0.066,1.6-0.15,4.017-0.25,7.25
		c0.2-3,0.916-4.667,2.149-5c0.867-0.233,1.733,0.75,2.601,2.95c0.5,1.333,0.916,2.816,1.25,4.45c0.767,4.2,1.517,8.95,2.25,14.25
		c0.166,1.3,0.233,3.283,0.2,5.95c0,2.7,0.066,4.65,0.199,5.85l0.25-2.05l0.101-6.35c0-2.466,0.149-5.983,0.45-10.55
		c0.333-4.833,0.5-8.35,0.5-10.55c0.699,0.767,1.149,1.466,1.35,2.1c0.134,0.5,0.2,1.4,0.2,2.7c0,2.133-0.084,5.567-0.25,10.3
		c-0.101,2.5-0.167,4.684-0.2,6.55l-0.05-14.3c-0.033,1.667-0.283,4.067-0.75,7.2c-0.5,3.267-0.75,5.75-0.75,7.45
		c0,2.733,0.1,6.867,0.3,12.4c0.1,5,0,9.117-0.3,12.35c-0.033,0.566-0.101,1.45-0.2,2.65c-0.1,1.066-0.217,1.933-0.35,2.6l-0.2,0.75
		v-1.3L97.1,85.45c-0.366,0.5-0.767,1.05-1.199,1.65c-0.567,0.733-0.95,1.933-1.15,3.6c-0.267,2.167-0.5,3.533-0.7,4.1l-0.3,0.75
		c-0.3,0.7-0.75,1.284-1.35,1.75c-1.134,0.9-1.784,1.434-1.95,1.6l-1.7,1.55c-0.5,0.5-1.116,1.033-1.85,1.6
		c-1.667,1.167-3.351,1.783-5.051,1.851h5.101c1.6,0,3.017-0.067,4.25-0.2l1.75-0.25c1.7-0.3,2.883-1.25,3.55-2.851l0.05-0.149
		v-0.05c0.3-1.101,0.533-1.817,0.7-2.15l1.15-0.9c0.199-0.067,0.399-0.133,0.6-0.2c-0.033,0.2-0.066,0.434-0.1,0.7l-0.4,5
		l-0.55,0.051c0,5.566,0.083,13.883,0.25,24.949c0.166,11.067,0.25,19.367,0.25,24.9v22.7c0,1.533,0.1,3.967,0.3,7.3
		c0.134,3-0.017,5.4-0.45,7.2c-0.399,1.633-1.416,2.783-3.05,3.45c-2.1,0.566-3.7,1.066-4.8,1.5c-1.967,0.8-4.95,1.433-8.95,1.899
		c-1.467,0.033-2.533,0.117-3.2,0.25L78.25,196.5z M56.2,171.4l-1.351,0.05H53.95c-2-0.066-3.284-0.066-3.85,0H50
		c-0.033,0-0.067,0-0.1,0c-0.133,1.166-0.25,3.1-0.35,5.8c-0.066,2.033-0.233,3.483-0.5,4.35c-0.833,2.467-3.65,3.5-8.45,3.101
		l-4.65-0.75c-1.333-0.334-2.434-0.8-3.3-1.4h0.05l3.25,0.2c2.7,0.134,4.55-0.116,5.55-0.75c1.6-1,2.483-2.333,2.65-4
		c0-0.033-0.083-1.7-0.25-5c-0.033-1.167-0.017-4.733,0.05-10.7c0-1.033-0.083-2.517-0.25-4.45c-0.2-2-0.3-3.466-0.3-4.399
		c-0.1-1.834-0.15-3.25-0.15-4.25c-0.033-0.601-0.017-1.5,0.05-2.7c0.1-1.134,0.35-2.167,0.75-3.1c-0.333,0.1-0.617,0.3-0.85,0.6
		c-0.467,0.5-0.9,1.217-1.3,2.15l0.05-1c0.1-0.934,0.4-2.733,0.9-5.4c0.433-2.233,0.667-4.066,0.7-5.5
		c0.034-2.366,0.017-7.5-0.05-15.4c-0.3,0.467-0.467,1.067-0.5,1.801c-0.033,0.433-0.067,1.066-0.1,1.899
		c-0.066,0.8-0.5,4.017-1.3,9.65c-0.167,1.1-0.367,2.866-0.6,5.3c-0.2,2.3-0.4,4.066-0.6,5.3l-0.35,2.351
		c-0.066-2.434-0.017-5.983,0.15-10.65c0.2-4.267,0.3-6.583,0.3-6.95c0.1-4.3,0.167-7.55,0.2-9.75c0.033-3.899-0.067-7.149-0.3-9.75
		c-0.733-7.934-1-15.566-0.8-22.9c0.167-7.066,0.3-11.25,0.4-12.55c0.333-4.8,1.05-8.917,2.15-12.35c1.533,0.133,1.934-1.9,1.2-6.1
		c-0.4-2.3-1.05-4.883-1.95-7.75c-1.066-3.367-1.683-7.233-1.85-11.6c-0.066-2.367,0.017-6.267,0.25-11.7v-0.05
		c0.167-0.8,0.317-1.517,0.45-2.15l0.225-1.425c0.066-0.4,0.125-0.725,0.175-0.975c0.167-1.267,0.267-2.433,0.3-3.5l-0.05-1.05
		c3.767-0.467,6.783-0.784,9.05-0.95c-0.067,1.033-0.05,4.1,0.05,9.2c0.033,1,0.217,2.45,0.55,4.35c0.333,1.867,0.5,3.317,0.5,4.35
		C51.184,37,51.167,46.183,51,58.45c0,1.9-0.1,4.85-0.3,8.85c-0.1,3.6,0.033,6.534,0.399,8.8c0.367-1.367,0.634-3.184,0.801-5.45
		c0.3-3.367,0.466-5.2,0.5-5.5c0.433-2.967,0.767-5.2,1-6.7c0.366-2.7,0.583-4.95,0.649-6.75c0.066-2.333,0.3-5.133,0.7-8.4
		c0.533-3.733,0.917-6.533,1.15-8.4c0.333-2.833,0.816-6.433,1.449-10.8c0.934-6.167,1.467-9.75,1.601-10.75L59.6,13.6
		c-0.267,3.933-0.433,6.9-0.5,8.9c-0.1,2-0.483,4.8-1.149,8.4c-0.767,3.867-1.217,6.667-1.351,8.4c-0.066,1.034-0.1,4.083-0.1,9.15
		c0,2.333,0.116,5.883,0.35,10.65c0.101,4.2-0.133,7.733-0.699,10.6c-0.334,1.7-0.617,3.716-0.851,6.05c-0.399,3.5-0.566,8-0.5,13.5
		l-0.8,6.6v0.85c-0.066,3.233-0.467,8.116-1.2,14.649c-0.866,7.4-1.3,12.967-1.3,16.7c0,7.367,0.5,13.7,1.5,19
		c1.566,8.167,2.733,16.283,3.5,24.351H56.2z M5.95,63.75L5.9,66c0,0.267-0.2,5.633-0.6,16.1c-0.267-0.133-0.533-0.267-0.8-0.4
		l-0.3-0.1c-0.7-0.267-1.467-0.483-2.3-0.65c0.033-1.367-0.2-3.25-0.7-5.65c-0.6-2.767-0.934-4.667-1-5.7
		c-0.133-1.567-0.184-3.567-0.15-6c0.1-2.7,0.15-4.717,0.15-6.05c-0.167-2.333-0.217-4.1-0.15-5.3c0.067-2.1,0.583-3.75,1.55-4.95
		c0.1-0.1,0.217-0.216,0.35-0.35c0.3-0.267,0.667-0.517,1.1-0.75L3,47.05c0,2.233-0.1,5.767-0.3,10.6
		c-0.034,4.267,0.283,7.767,0.95,10.5c0.867-3.367,1.333-7.083,1.4-11.15c0.034-2.833,0.333-6.733,0.9-11.7h0.1L6,47.25
		C6,57.017,5.983,62.517,5.95,63.75z M29.75,102.5c0.1-4.5-0.15-9.867-0.75-16.1V18.2h1.15l2.5,2.45v0.05
		c-0.233,1.9-0.566,4.7-1,8.4c-0.467,3.1-0.717,6.816-0.75,11.15c0,2.5,0.033,6.25,0.1,11.25c0,3.733,0.017,9.35,0.05,16.85
		C31.083,75.083,31.067,80.7,31,85.2c0.133-1.6,0.45-3.633,0.95-6.1c0.733-3.434,1.15-5.417,1.25-5.95l0.15-1.2
		c-0.133,4.933-0.267,8.6-0.4,11c-0.133,2.3-0.483,5.05-1.05,8.25c-0.333,1.833-0.867,4.566-1.6,8.2L29.75,102.5z M15.55,113.95
		l-0.75-0.05c0.833-9.4,2.083-19.5,3.75-30.3c-0.1,2.7-0.133,6.017-0.1,9.95c0,2.233,0.017,5.55,0.05,9.95
		c0,2.4-0.067,6.033-0.2,10.9c-0.833-0.2-1.5-0.317-2-0.351l0.05-2.25l-0.1,2.2L15.55,113.95z M57,109.15V105
		c0.566,0.366,1.316,0.684,2.25,0.95c0.8,0.2,1.9,0.416,3.3,0.649C61.083,106.934,59.233,107.783,57,109.15z M96.45,101.75L95.5,105
		c-0.767,2.4-1.5,5.717-2.2,9.95c-0.8,4.967-1.416,8.333-1.85,10.1c-0.066,0.233-0.3,1.066-0.7,2.5c-0.267,1-0.45,1.816-0.55,2.45
		l-0.05,0.3c-0.2,1.867-0.184,4.15,0.05,6.851c0.166,1.533,0.434,3.816,0.8,6.85l0.2,2.75c0.066,2.4,0.283,4.2,0.649,5.4
		c0.767,1.6,1.25,3.233,1.45,4.899c0.3,2,0.45,4.566,0.45,7.7c0,4.3,0.017,6.866,0.05,7.7c0.033,1.2,0.167,2.517,0.4,3.95
		c0.267,1.533,0.649,3.25,1.149,5.149c0.134-0.666,0.184-1.517,0.15-2.55c-0.033-1.533-0.05-2.384-0.05-2.55L95.4,165.35
		c0.133-3.333,0.183-5.833,0.149-7.5c-0.066-2.933-0.434-5.416-1.1-7.449L96.45,101.75z"/>
	<path style="fill-rule:evenodd;clip-rule:evenodd;fill:#A79E94;" d="M56.2,171.4c-0.3,0.033-0.617,0.05-0.95,0.05
		c-0.134,0-0.267,0-0.4,0L56.2,171.4z M78.25,196.5l0.05,0.55l0.05,0.95c-0.133-1.1-0.216-2.3-0.25-3.6
		C78.134,195.1,78.184,195.8,78.25,196.5z M77.95,183.9c-0.015,0.829-0.031,1.63-0.05,2.399c0-0.316,0-0.633,0-0.95
		C77.9,184.85,77.917,184.366,77.95,183.9z M24.5,121.35l0.05,0.351c0.034,0.133,0.05,0.283,0.05,0.45
		C24.567,121.884,24.533,121.616,24.5,121.35z M16.25,114l0.1-2.2l-0.05,2.25L16.25,114z M15.55,113.95l-1.15-0.05
		c0.087,0.101,0.178,0.2,0.275,0.3c-0.768-0.698-1.393-1.516-1.875-2.45c-0.267-0.5-0.483-1.05-0.65-1.65
		c0.5,1.5,1.25,2.767,2.25,3.801h0.4L15.55,113.95z M6.2,82.6c-0.169-0.13-0.328-0.247-0.475-0.35L5.95,82.4L6.2,82.6z M10.45,88.9
		c0.2,0.8,0.35,1.684,0.45,2.65c0.033,0.2,0.067,1.133,0.1,2.8C10.9,91.983,10.717,90.167,10.45,88.9z M6.9,83.1l0.3,0.2
		c0.226,0.197,0.443,0.405,0.65,0.625C7.556,83.625,7.239,83.35,6.9,83.1z M12.4,42.95c-0.6,0.6-1.467,1.083-2.6,1.45
		c-0.433,0.167-1.683,0.467-3.75,0.9h-0.1c0.333-0.1,0.7-0.183,1.1-0.25C9.683,44.517,11.467,43.817,12.4,42.95z M22.2,18.6
		c-0.6,0.1-1.133,0.233-1.6,0.4c0.233-0.1,0.483-0.183,0.75-0.25C21.55,18.683,21.833,18.633,22.2,18.6z M38.9,28.65
		c-0.4,0.267-0.833,0.367-1.3,0.3c-0.5-0.067-0.883-0.217-1.15-0.45C37.25,29.033,38.067,29.083,38.9,28.65z M40.475,19.475
		c0.255-1.75,0.413-3.241,0.475-4.475c-0.034,1.067-0.133,2.233-0.3,3.5C40.6,18.75,40.542,19.075,40.475,19.475z M59.6,13.6
		l-0.649-0.25c0.566,0.167,1.017,0.367,1.35,0.6L59.6,13.6z M62.8,25.6l-0.05-0.25L62.6,21.8l0.101,1.55
		c-0.101-2.5-0.15-3.983-0.15-4.45c0.066,0.967,0.134,2.883,0.2,5.75C62.75,24.983,62.767,25.3,62.8,25.6z M62.9,27.85
		c-0.031-0.688-0.065-1.379-0.101-2.075c0.021,0.292,0.045,0.576,0.075,0.85c0.407,3.728,1.732,5.853,3.975,6.375
		c-1.433-0.267-2.466-1.05-3.1-2.35c-0.452-0.936-0.743-2.277-0.875-4.025C62.892,27.033,62.9,27.442,62.9,27.85z M75.2,24.45
		c-1.733,0.1-3.101,0.367-4.101,0.8c-0.199,0.067-0.383,0.15-0.55,0.25c0.267-0.167,0.55-0.3,0.851-0.4
		c1.666-0.567,4.85-0.934,9.55-1.1C78.316,24.2,76.4,24.35,75.2,24.45z M96.5,1.4c-0.2-0.1-0.4-0.2-0.6-0.3
		c-0.834-0.367-1.817-0.65-2.95-0.85c0.967,0.133,1.816,0.35,2.55,0.65C95.833,1.033,96.167,1.2,96.5,1.4z M97.1,85.45L97.2,83.9
		v1.3L97.1,85.45z M56.05,78.9l0.05-0.55L56.15,78L56.05,78.9z M5.95,63.75v1L5.9,66L5.95,63.75z M26,97.55l-0.1,2.4l0.05-4.55
		L26,97.55z"/>
	<path style="fill-rule:evenodd;clip-rule:evenodd;fill:#9B9286;" d="M77.9,186.3c0.019-0.77,0.035-1.57,0.05-2.399l0.05-1.45
		c0-0.2,0.017-0.384,0.05-0.55v-2c0-0.167,0.017-0.334,0.05-0.5c-0.033-0.034-0.033-0.067,0-0.101c-0.033-0.033-0.033-0.066,0-0.1
		c-0.033-0.066-0.033-0.117,0-0.15c0.034-2.533,0.051-4.6,0.051-6.2c0-0.066,0-0.116,0-0.149l0.399-6
		c0.066-1.867,0.134-3.55,0.2-5.05c0.134-2.733,0.167-5.167,0.1-7.301l-0.699-5.8l2.05-0.35c1.434-0.267,3.233-0.467,5.399-0.601
		l0.101,0.051c0.333,0.333,0.666,0.767,1,1.3c0.666,2.633,1.55,5.816,2.649,9.55c0.4,3,0.967,5.866,1.7,8.6
		c0.033,0.134,0.584,2.134,1.65,6c0.666,2.367,1.149,4.384,1.45,6.051c0.166,0.866,0.35,2.267,0.55,4.199
		c-0.2,0.367-0.584,0.95-1.15,1.75c-0.533,0.733-0.916,1.334-1.149,1.801c-0.2,0.466-0.5,1.466-0.9,3
		c-0.333,1.267-0.717,2.199-1.15,2.8c-0.3,0.467-0.683,0.833-1.149,1.1c-0.634,0.367-1.55,0.601-2.75,0.7
		c-1.566,0.167-2.55,0.3-2.95,0.4c-2.634,0.699-4.384,1.233-5.25,1.6c-0.066-0.7-0.116-1.4-0.15-2.1L77.9,186.3z M43.25,149.2
		l-1.45,5.85c-2.8,6.601-4.633,13.601-5.5,21l-0.35,6.7l-3.25-0.2h-0.05c-0.267-0.2-0.517-0.399-0.75-0.6l-1.25-1.4
		c-1.066-1.566-1.75-3.666-2.05-6.3l-1.85-25.15c-0.033-0.399-0.067-0.783-0.1-1.149c-0.066-1-0.117-1.983-0.15-2.95l-1.9-22.85
		c0-0.167-0.017-0.317-0.05-0.45c0.167-0.3,0.267-0.733,0.3-1.3l0.1-1.75c0.033-0.601,0.2-1.217,0.5-1.851v0.101
		c0.066,1.433-0.1,2.583-0.5,3.449c1.966,0.5,3.25-0.699,3.85-3.6c0.267-3.434,0.434-5.583,0.5-6.45c0.267-2.6,0.417-5.2,0.45-7.8
		l0.55-3.1c0.733-3.633,1.267-6.367,1.6-8.2c0.567-3.2,0.917-5.95,1.05-8.25c0.133-2.4,0.267-6.067,0.4-11
		c0.267-1.934,0.467-4.434,0.6-7.5c0.2-3.967,0.333-6.467,0.4-7.5c0.267-3.1,0.816-7.767,1.65-14c0.8-6.2,1.333-10.867,1.6-14
		c0.467,0.066,0.9-0.034,1.3-0.3c0-0.033,0.017-0.083,0.05-0.15v-0.05l0.3-2.45c0.133-0.9,0.317-1.883,0.55-2.95v0.05
		c-0.233,5.433-0.316,9.333-0.25,11.7c0.167,4.367,0.784,8.233,1.85,11.6c0.9,2.867,1.55,5.45,1.95,7.75
		c0.733,4.2,0.333,6.233-1.2,6.1c-1.1,3.433-1.816,7.55-2.15,12.35c-0.1,1.3-0.233,5.483-0.4,12.55
		c-0.2,7.333,0.066,14.966,0.8,22.9c0.233,2.601,0.333,5.851,0.3,9.75c-0.034,2.2-0.1,5.45-0.2,9.75c0,0.367-0.1,2.684-0.3,6.95
		c-0.167,4.667-0.217,8.217-0.15,10.65c-0.5,3.333-1.017,5.949-1.55,7.85c-0.2,0.8-0.667,2.017-1.4,3.65
		c-0.533,1.466-0.684,2.733-0.45,3.8c1.2-1.134,2.283-2.767,3.25-4.9c0.867-1.866,1.5-3.75,1.9-5.649c0.1-0.5,0.15-1.117,0.15-1.851
		c-0.034-0.833-0.05-1.467-0.05-1.899c0.4-0.934,0.833-1.65,1.3-2.15l-0.05,0.55c0.1,0.667,0.15,1.316,0.15,1.95
		C43.233,147.7,43.217,148.6,43.25,149.2z M14.8,113.9h-0.4c-1-1.034-1.75-2.301-2.25-3.801c-0.167-0.466-0.316-0.966-0.45-1.5
		c-0.2-0.8-0.35-1.75-0.45-2.85l-0.2-3.7c0.067-0.366,0.117-0.717,0.15-1.05l4.05-21.5c0.133-1.033,0.1-2.1-0.1-3.2
		c-0.267-5.066,0.417-11.667,2.05-19.8c0.3-1.5,0.55-2.4,0.75-2.7c0.133-0.2,0.5-0.667,1.1-1.4c0.5-1.833,0.55-3.733,0.15-5.7
		c0.167-5.934,0.466-11.883,0.9-17.85l0.25-9.8L20.6,19c0.467-0.167,1-0.3,1.6-0.4c0.633-0.133,1.35-0.217,2.15-0.25
		c0.667-0.067,2.217-0.117,4.65-0.15v68.2c-0.267-2.667-0.95-8.5-2.05-17.5L26,97.55l-0.05-2.15c0-2.667-0.25-6.7-0.75-12.1
		c-0.434-4.633-0.684-8.316-0.75-11.05V102c0,1.434,0.033,3.583,0.1,6.45c-0.033,2.533-0.267,4.666-0.7,6.399
		c-0.833,0.134-1.767,0.134-2.8,0c-0.466-0.033-1.383-0.183-2.75-0.449c0.133-4.867,0.2-8.5,0.2-10.9
		c-0.033-4.4-0.05-7.717-0.05-9.95c-0.034-3.933,0-7.25,0.1-9.95C16.883,94.4,15.633,104.5,14.8,113.9z M62.6,21.8l0.15,3.55
		l0.05,0.25v0.175c0.035,0.696,0.069,1.388,0.101,2.075L63.3,38c0.434,10.367,0.95,21.6,1.55,33.7c-0.8,1.767-1.383,3.283-1.75,4.55
		L63.05,65.5c-0.267-12.367-0.483-26.267-0.649-41.7L62.6,21.8z M71.6,103.45c-1.933-0.066-3.383-0.084-4.35-0.05L65.1,103.3
		l-4.05-0.75c-1.399-0.267-2.75-1.05-4.05-2.35l-0.05-11.65c0-1.667,0.066-4.133,0.2-7.4c1.366,3.5,3.416,7.867,6.149,13.1
		c-0.066-4.433-0.116-7.75-0.149-9.95c0.767,1.434,2.033,2.45,3.8,3.05c0.7-6.934,0.8-14.833,0.3-23.7c-0.167-1.1-0.184-2.1-0.05-3
		c2.6-2.5,2.95-6.1,1.05-10.8L69.4,26.3c0.333-0.333,0.716-0.6,1.149-0.8c0.167-0.1,0.351-0.183,0.55-0.25
		c0.2,2.9,0.467,7.267,0.801,13.1c0.3,5.167,0.6,9.517,0.899,13.05c0.566-0.467,1.167-5.517,1.8-15.15l0.601-11.8
		c1.2-0.1,3.116-0.25,5.75-0.45c0.2-1.567,0.366-5.517,0.5-11.85c0.1-4.8,0.6-8.7,1.5-11.7c0.7-0.1,1.383-0.167,2.05-0.2l1.55-0.2
		V0.1c-0.233,2.1-0.616,5.2-1.149,9.3c-0.767,7-1.084,12.967-0.95,17.9c0.033,1.333,0.083,3.633,0.149,6.9
		c0.134,2.9,0.5,5.15,1.101,6.75c0.1-0.233,0.383-0.95,0.85-2.15c0.334-0.9,0.667-1.6,1-2.1c1.233,1.233,1.667,3.733,1.3,7.5
		c-0.166,2-0.566,4.533-1.199,7.6c-0.601,4.467-0.983,7.633-1.15,9.5c-0.366,3.5-0.533,6.684-0.5,9.55L86.25,83
		c-0.566,3.433-1.384,6.983-2.45,10.65c-0.467,1.7-0.866,2.633-1.2,2.8c-0.566,0.033-1.267,0.35-2.1,0.95
		c-0.333,0.267-0.816,0.8-1.45,1.6c-0.533,0.733-1.066,1.25-1.6,1.55c-1.467,0.7-2.584,1.316-3.351,1.851
		C73.366,102.9,72.533,103.25,71.6,103.45z M62.75,139.45c0.366-1.767,0.667-3.9,0.9-6.4c0-0.2,0.149-2.35,0.449-6.45
		c0.034-0.433,0.084-1.649,0.15-3.649c0.033-1.533,0.134-2.733,0.3-3.601c0.334-1.666,1.384-2.783,3.15-3.35
		c3.066-0.967,4.616-1.467,4.649-1.5c2.634-1.533,3.967-2.316,4-2.35c1.334-0.567,2.817-0.75,4.45-0.551
		c1.2,0.167,2.184-0.233,2.95-1.199c0.333-0.434,0.9-1.517,1.7-3.25l1.55,0.5c0.066,4.533,0.066,7.933,0,10.199
		c0,0.967-0.283,2.334-0.85,4.101c-0.601,1.833-0.95,3.967-1.051,6.399l-1,3.2c-0.199,0.733-0.449,1.95-0.75,3.65
		c-0.366,1.467-0.933,2.483-1.699,3.05c-0.567-0.066-1.067-0.05-1.5,0.05c-0.334,0.167-0.7,0.517-1.101,1.05
		c-0.434,0.567-0.8,0.917-1.1,1.051c-0.767,0.366-1.684,0.3-2.75-0.2c-1.367-0.667-2.267-1-2.7-1c-0.6,0.1-1.2,0.3-1.8,0.6
		c-0.934,0.101-1.9,0.134-2.9,0.101c-0.366-0.034-1.35-0.117-2.95-0.25L62.75,139.45z"/>
	<path style="fill-rule:evenodd;clip-rule:evenodd;fill:#B3AA9E;" d="M85.6,147.6c-2.166,0.134-3.966,0.334-5.399,0.601l-2.05,0.35
		l-1.601-4.1c-0.267-0.367-0.533-0.667-0.8-0.9h0.05c1-0.233,1.767-0.3,2.3-0.2c0.467,0.134,1.134,0.467,2,1
		c1,0.601,1.667,0.967,2,1.101c0.9,0.366,1.483,0.633,1.75,0.8C84.417,146.55,85,147,85.6,147.6z M57.75,171.15
		c0.233-5.267,0.384-9,0.45-11.2c0.066-4.2-0.017-7.917-0.25-11.15l-0.2-3.8c0.467-0.366,0.95-0.6,1.45-0.7
		c0.467-0.066,1.184-0.066,2.149,0l2.801,0.101c-1.167,0.533-2,1.033-2.5,1.5L61.55,146c-1.033,1.167-1.583,3.017-1.649,5.55
		c0,1.4,0.083,3.45,0.25,6.15c0.033,0.866,0.199,2.95,0.5,6.25c0.166,3.066-0.067,5.017-0.7,5.85l-0.2,0.25
		C59.25,170.616,58.583,170.983,57.75,171.15z M10.45,88.9c-0.267-0.933-0.567-1.783-0.9-2.55l-1-1.6
		c-0.157-0.213-0.323-0.413-0.5-0.6l-0.2-0.225c-0.207-0.22-0.424-0.428-0.65-0.625c-0.733-7.466-1.15-13.983-1.25-19.55
		C5.983,62.517,6,57.017,6,47.25l0.05-1.95c2.067-0.433,3.317-0.733,3.75-0.9c1.133-0.367,2-0.85,2.6-1.45l0.25-0.3
		c0.033,0,0.05-0.017,0.05-0.05c1.2-1.567,1.7-4.567,1.5-9c-0.267-4.767,0.066-8.033,1-9.8c1.233-2.367,2.95-3.95,5.15-4.75
		l-0.25,9.8c-0.434,5.967-0.733,11.917-0.9,17.85c0.4,1.966,0.35,3.867-0.15,5.7c-0.6,0.733-0.966,1.2-1.1,1.4
		c-0.2,0.3-0.45,1.2-0.75,2.7c-1.633,8.133-2.317,14.733-2.05,19.8c0.2,1.1,0.233,2.167,0.1,3.2L11.2,101
		c-0.034,0.333-0.083,0.684-0.15,1.05v-1.85c0.034-2.233,0.017-4.184-0.05-5.85c-0.033-1.667-0.067-2.6-0.1-2.8
		C10.8,90.583,10.65,89.7,10.45,88.9z M5.95,82.4l-0.225-0.15H5.65L5.3,82.1C5.7,71.633,5.9,66.267,5.9,66l0.05-1.25V82.4z
		 M75.2,24.45L74.6,36.25c-0.633,9.633-1.233,14.683-1.8,15.15c-0.3-3.533-0.6-7.883-0.899-13.05
		c-0.334-5.833-0.601-10.2-0.801-13.1C72.1,24.817,73.467,24.55,75.2,24.45z M62.9,27.85c0-0.408-0.009-0.817-0.025-1.225
		c0.132,1.748,0.423,3.089,0.875,4.025c0.634,1.3,1.667,2.083,3.1,2.35l0.601,0.1l0.1-2.15c0.167-2.1,0.783-3.65,1.851-4.65
		l-1.15,23.55c1.9,4.7,1.55,8.3-1.05,10.8c-0.134,0.9-0.117,1.9,0.05,3c0.5,8.867,0.4,16.767-0.3,23.7
		c-1.767-0.6-3.033-1.617-3.8-3.05c0.033,2.2,0.083,5.517,0.149,9.95c-2.733-5.233-4.783-9.6-6.149-13.1
		c0.1-2.667,0.316-6.417,0.649-11.25c0.367-5.2,0.601-8.967,0.7-11.3L56.15,78L56.1,78.35l-0.8-2.6
		c0.233-2.333,0.517-4.35,0.851-6.05c0.566-2.867,0.8-6.4,0.699-10.6c-0.233-4.767-0.35-8.317-0.35-10.65
		c0-5.067,0.033-8.117,0.1-9.15c0.134-1.733,0.584-4.533,1.351-8.4c0.666-3.6,1.05-6.4,1.149-8.4c0.067-2,0.233-4.967,0.5-8.9
		l0.7,0.35c0.967,0.7,1.634,1.9,2,3.6L62.4,18.1c0.033,0.2,0.066,0.417,0.1,0.65c0,0.033,0.017,0.083,0.05,0.15
		c0,0.467,0.05,1.95,0.15,4.45L62.6,21.8l-0.199,2c0.166,15.434,0.383,29.333,0.649,41.7l0.05,10.75
		c0.367-1.267,0.95-2.783,1.75-4.55c-0.6-12.1-1.116-23.333-1.55-33.7L62.9,27.85z M25.9,99.95l0.1-2.4l0.95-28.65
		c1.1,9,1.783,14.833,2.05,17.5c0.6,6.233,0.85,11.6,0.75,16.1c-0.033,2.6-0.183,5.2-0.45,7.8c-0.066,0.867-0.233,3.017-0.5,6.45
		c-0.6,2.9-1.883,4.1-3.85,3.6c0.4-0.866,0.566-2.017,0.5-3.449V116.8L25.9,99.95z M71.6,103.45c-1.666,0.366-3.833,0.316-6.5-0.15
		l2.15,0.101C68.217,103.366,69.667,103.384,71.6,103.45z M57.35,139.15C57.116,133.616,57,128.866,57,124.9v-15.75
		c2.233-1.367,4.083-2.217,5.55-2.551c3.634,0.434,6.867,0.417,9.7-0.05l1.9,0.05c1.333,0,3.267-0.017,5.8-0.05
		c2.166,0.033,4,0.233,5.5,0.601c-0.8,1.733-1.367,2.816-1.7,3.25c-0.767,0.966-1.75,1.366-2.95,1.199
		c-1.633-0.199-3.116-0.017-4.45,0.551c-0.033,0.033-1.366,0.816-4,2.35c-0.033,0.033-1.583,0.533-4.649,1.5
		c-1.767,0.566-2.816,1.684-3.15,3.35c-0.166,0.867-0.267,2.067-0.3,3.601c-0.066,2-0.116,3.217-0.15,3.649
		c-0.3,4.101-0.449,6.25-0.449,6.45c-0.233,2.5-0.534,4.634-0.9,6.4l-2.45-0.25c-0.2,0-0.467,0.1-0.8,0.3
		c-0.267,0.2-0.583,0.267-0.95,0.2C58.283,139.667,57.884,139.483,57.35,139.15z M43.3,146.5c0-0.634-0.05-1.283-0.15-1.95L43.2,144
		c0.233-0.3,0.517-0.5,0.85-0.6C43.65,144.333,43.4,145.366,43.3,146.5z M35.95,182.75l0.35-6.7c0.867-7.399,2.7-14.399,5.5-21
		l1.45-5.85c0,1,0.05,2.416,0.15,4.25c0,0.934,0.1,2.399,0.3,4.399c0.167,1.934,0.25,3.417,0.25,4.45
		c-0.067,5.967-0.083,9.533-0.05,10.7c0.167,3.3,0.25,4.967,0.25,5c-0.167,1.667-1.05,3-2.65,4
		C40.5,182.634,38.65,182.884,35.95,182.75z"/>
</g>
</svg>
