<?xml version="1.0" encoding="iso-8859-1"?>
<!-- Generator: Adobe Illustrator 15.1.0, SVG Export Plug-In . SVG Version: 6.00 Build 0)  -->
<!DOCTYPE svg PUBLIC "-//W3C//DTD SVG 1.1//EN" "http://www.w3.org/Graphics/SVG/1.1/DTD/svg11.dtd">
<svg version="1.1" id="Layer_1" xmlns="http://www.w3.org/2000/svg" xmlns:xlink="http://www.w3.org/1999/xlink" x="0px" y="0px"
	 width="99.3px" height="48.45px" viewBox="0 0 99.3 48.45" style="enable-background:new 0 0 99.3 48.45;" xml:space="preserve">
<g>
	<path style="fill-rule:evenodd;clip-rule:evenodd;fill:#514B44;" d="M95.8,25.7c-1.467,0-3.066,0.033-4.8,0.1
		c-1.167,0.033-2.233,0.084-3.2,0.15c0,0.1,0,0.2,0,0.3l-0.35-0.3c-1.934,0.066-3.483,0.116-4.65,0.149h-0.05c0-0.133,0-0.25,0-0.35
		l-0.45,0.4l-2.25,0.25c-0.333,0.066-0.666,0.133-1,0.199c-0.3,0.067-0.583,0.134-0.85,0.2l-1.851,0.4
		c-0.333,0.033-0.633,0.083-0.899,0.149c0.434-0.3,0.7-0.649,0.8-1.05c0.033-0.2,0.033-0.649,0-1.35
		c-6.167-0.7-10.066-0.284-11.7,1.25c-0.633,0.6-0.899,1.3-0.8,2.1c0,0.066,0.033,0.167,0.1,0.3c0.867,0.233,1.434,0.7,1.7,1.4
		c0.167,0.4,0.217,0.884,0.15,1.45C65.6,32.384,65.233,33.767,64.6,35.6c0.067-1.767,0.084-2.899,0.051-3.399
		c-0.067-0.4-0.217-0.867-0.45-1.4c-0.066-0.1-0.117-0.2-0.15-0.3c-0.267,0.066-0.517,0.116-0.75,0.15
		c0.066,0.366,0.101,0.767,0.101,1.199c-0.034,0.167-0.051,0.334-0.051,0.5c-0.066,0.667-0.199,1.517-0.399,2.551
		c-0.134,0.6-0.283,1.267-0.45,2c-0.1,0.933-0.417,2.866-0.95,5.8c-0.399,2.366-0.616,4.283-0.649,5.75v-6
		c0-0.8-0.084-1.867-0.25-3.2c-0.167-1.533-0.267-2.616-0.301-3.25c-0.033-0.4-0.033-1.017,0-1.85c0.067-0.801,0.067-1.417,0-1.851
		c0-0.166-0.033-0.333-0.1-0.5c-0.134-0.3-0.316-0.616-0.55-0.95c-0.134-0.166-0.233-0.333-0.3-0.5
		c-0.4-0.066-0.851-0.166-1.351-0.3c-1.033-0.267-1.967-0.399-2.8-0.399c-0.6,0-1.3-0.067-2.1-0.2c-1-0.167-1.65-0.267-1.95-0.3
		c-0.7-0.034-1.717,0.017-3.05,0.149c-0.133,0-0.283,0.017-0.45,0.05c0.033-0.033,0.083-0.05,0.15-0.05
		c1.133-0.2,2.683-0.416,4.65-0.649c0.267-0.067,1-0.217,2.2-0.45c0.934-0.3,1.116-0.717,0.55-1.25c-0.3-0.3-0.85-0.45-1.65-0.45
		c-0.899,0.033-1.517,0.05-1.85,0.05c-1.767,0-4.1,0.084-7,0.25c-3.533,0.233-5.867,0.367-7,0.4c0.5-0.066,1.2-0.283,2.1-0.65
		c0.967-0.366,1.667-0.583,2.1-0.649c0.833-0.134,2.2-0.301,4.1-0.5c1.667-0.233,2.934-0.601,3.8-1.101
		c-1.1-0.167-2.533-0.216-4.3-0.15c-1.933,0.067-3.367,0.1-4.3,0.1c-2.1-0.133-3.683-0.183-4.75-0.15c-1.867,0-3.3,0.383-4.3,1.15
		c-1.7,1.3-3.4,2.134-5.1,2.5c0.9,0.4,2.1,0.8,3.6,1.2c1.167,0.333,1.933,0.517,2.3,0.55c0.367,0.066,0.85,0.116,1.45,0.15
		c0.466,0.066,0.733,0.183,0.8,0.35l-2.1,0.35c-0.167,0-0.333,0.017-0.5,0.051l-0.3,0.05c-0.1,0-0.184,0-0.25,0
		c-0.133,0-0.25,0.017-0.35,0.05c-1.467,0.033-2.8-0.083-4-0.35c-0.467-0.101-1.167-0.167-2.1-0.2
		c-0.967-0.033-1.667-0.084-2.1-0.15c-0.033,0-0.066,0-0.1,0c-0.3,0.267-0.567,0.55-0.8,0.851c-0.967,1.1-1.45,2.3-1.45,3.6
		c0.033,1.1-0.184,2.667-0.65,4.7c-0.4,1.899-0.617,3.399-0.65,4.5v-9.5c0-0.066,0-0.134,0-0.2c-0.033-0.6-0.05-1.066-0.05-1.4
		c0.033-0.633,0.117-1.166,0.25-1.6c0.033-0.1,0.3-0.533,0.8-1.3c0.2-0.3,0.317-0.55,0.35-0.75c-0.033-0.033-0.067-0.066-0.1-0.101
		h0.05l0.1-0.05c0-0.133-0.033-0.233-0.1-0.3l0.75-0.05l0.4-0.2c-0.867,0.066-1.5,0.167-1.9,0.3c-1-0.333-2.367-0.517-4.1-0.55
		c-2.4-0.066-3.8-0.116-4.2-0.15c-2.6-0.3-6.017-0.483-10.25-0.55c1.967-0.033,3.967-0.233,6-0.6c0.8-0.167,1.6-0.351,2.4-0.55
		c0.034-0.834,0.3-1.95,0.8-3.351c0.467-1.333,0.733-2.4,0.8-3.2c0.033,0.667,0.15,1.467,0.35,2.4c0.133,0.733,0.35,1.783,0.65,3.15
		c0,0.067,0.017,0.133,0.05,0.2C13.25,25,13.6,24.867,14,24.7c0.1-0.034,0.217-0.067,0.35-0.1c0.167-0.1,0.367-0.2,0.6-0.3
		c0.933-0.367,1.783-0.583,2.55-0.65c0.533-0.033,1.5-0.183,2.9-0.45c1.333-0.2,2.3-0.233,2.9-0.1l2.5-1.3
		c2.567,0.034,4.117,0.05,4.65,0.05c1.633-0.033,3.117-0.2,4.45-0.5c0.967-0.2,2.467-0.517,4.5-0.95c1.267-0.267,2.4-0.45,3.4-0.55
		c0.034-0.434,0.133-0.9,0.3-1.4c0.467-0.967,0.717-1.65,0.75-2.05c-0.133-0.867-0.067-1.483,0.2-1.85
		c0.467,0.467,0.667,1.45,0.6,2.95c-0.033,0.6-0.083,1.333-0.15,2.2c6.333-0.434,12-0.534,17-0.3c0.033-0.867,0.15-1.833,0.35-2.9
		c0.4-2.5,0.617-4.167,0.65-5c0.033-0.8,0.116-1.883,0.25-3.25c0.167-1.533,0.267-2.617,0.3-3.25c0-0.533,0.084-1.383,0.25-2.55V2.4
		c0.134-1.033,0.217-1.833,0.25-2.4c0,0.733,0,1.55,0,2.45c0.033,1.367,0.101,2.95,0.2,4.75c0.2,3.7,0.316,6.167,0.35,7.4l0.25,4.7
		c0,0.1,0,0.184,0,0.25c0.167,0.034,0.334,0.05,0.5,0.05c0.334,0.566,0.95,0.767,1.851,0.6c0.033-0.133,0.05-0.267,0.05-0.4
		c0.467,0.034,0.934,0.083,1.4,0.15c1.733,0.2,4.083,0.716,7.05,1.55c0.733,0.167,1.649,0.35,2.75,0.55
		c0.033-0.8,0.083-1.433,0.149-1.9c0.2-1.4,0.351-2.467,0.45-3.2c0.2-1.3,0.434-2.35,0.7-3.15c0,0.7,0.134,1.7,0.4,3
		c0.267,1.333,0.399,2.317,0.399,2.95c0.033,1.033,0.101,1.9,0.2,2.6c0.066,0,0.134,0,0.2,0c0.267,0.033,0.533,0.133,0.8,0.3
		c0.066-0.433,0.1-0.917,0.1-1.45c-0.133-1.5-0.199-2.517-0.199-3.05c-0.034-1.633-0.034-2.867,0-3.7c0-1.434,0.1-2.667,0.3-3.7
		c0.3,0.7,0.533,1.633,0.7,2.8c0.033,0.233,0.116,1.2,0.25,2.9c0.033,0.333,0.05,1.85,0.05,4.55c0,0.5,0,1.2,0,2.1
		c0,0.1,0,0.217,0,0.35c0.533,0.367,0.916,0.6,1.149,0.7c0.801,0.3,1.75,0.517,2.851,0.65c-0.101-1.8,0.05-2.983,0.45-3.55
		c0.399,1.433,0.666,2.633,0.8,3.6c0.533,0,1.233,0.017,2.1,0.05c2.566,0.067,5.733,0.35,9.5,0.85
		C98.233,25.717,97.066,25.7,95.8,25.7z"/>
	<path style="fill-rule:evenodd;clip-rule:evenodd;fill:#B3AA9E;" d="M66.75,19.8c0,0.133-0.017,0.267-0.05,0.4
		c-0.9,0.167-1.517-0.034-1.851-0.6c-0.133-0.167-0.216-0.383-0.25-0.65L64.2,3.35c0.1,1.233,0.283,2.6,0.55,4.1
		c0.2,1.133,0.667,3.267,1.4,6.4C66.717,16.15,66.917,18.133,66.75,19.8z M7.9,26.45c-2.033,0.366-4.033,0.566-6,0.6
		c4.233,0.066,7.65,0.25,10.25,0.55c0.4,0.034,1.8,0.084,4.2,0.15c1.733,0.033,3.1,0.217,4.1,0.55c0.2,0.066,0.45,0.167,0.75,0.3
		h-0.05c0.033,0.034,0.067,0.067,0.1,0.101c-0.033,0.2-0.15,0.45-0.35,0.75c-0.5,0.767-0.767,1.2-0.8,1.3
		c-0.133,0.434-0.217,0.967-0.25,1.6c0,0.334,0.017,0.801,0.05,1.4l-0.25,1.15c-0.033,0.1-0.117,0.949-0.25,2.55
		c-0.133,1.033-0.333,1.85-0.6,2.45v-3.65c0.1-1.134,0.167-2.017,0.2-2.65c0.067-1.199-0.017-2.066-0.25-2.6
		c-0.2-0.533-0.617-0.917-1.25-1.15c-0.6-0.233-1.217-0.283-1.85-0.149c-0.566,0.3-1.017,0.483-1.35,0.55
		c-0.133,0.033-0.267,0-0.4-0.1C13.733,30.05,13.617,30,13.55,30c-0.966,0.1-1.533,0.783-1.7,2.05
		c-0.067,0.733-0.05,1.767,0.05,3.101c0,2.166-0.083,5.416-0.25,9.75c0-0.9-0.133-2.25-0.4-4.051c-0.267-1.8-0.4-3.166-0.4-4.1
		c0-2.7-0.067-4.434-0.2-5.2c-0.066-0.833-0.117-1.5-0.15-2c-0.067-0.533-0.167-0.934-0.3-1.2C7.967,28.184,5.067,28.066,1.5,28
		c0.933,0,1.883-0.05,2.85-0.15c-1.267-0.066-2.283-0.1-3.05-0.1c-1.167-0.033-1.533-0.2-1.1-0.5c0.433-0.3,1.05-0.467,1.85-0.5
		c2.5-0.167,4-0.25,4.5-0.25L7.9,26.45z M14,24.7c-0.1,0-0.183,0-0.25,0c-0.367-0.1-0.633-0.35-0.8-0.75
		c-0.067-0.1-0.083-0.3-0.05-0.6c0.033-0.3,0.05-0.5,0.05-0.6l-0.25-10c0.9,3.667,1.517,6.883,1.85,9.65c0,0.1,0.034,0.4,0.1,0.9
		c0.033,0.5,0.017,0.817-0.05,0.95c-0.1,0.133-0.184,0.25-0.25,0.35C14.217,24.633,14.1,24.667,14,24.7z M22.65,30.65
		c0.233-0.301,0.5-0.584,0.8-0.851c0.033,0,0.066,0,0.1,0c0.434,0.066,1.133,0.117,2.1,0.15c0.934,0.033,1.633,0.1,2.1,0.2
		c1.2,0.267,2.533,0.383,4,0.35c0.1-0.033,0.217-0.05,0.35-0.05c0.066,0,0.15,0,0.25,0l0.3-0.05c0.167-0.034,0.333-0.051,0.5-0.051
		l2.1-0.35c0.367-0.066,0.767-0.15,1.2-0.25c0.267-0.066,0.783-0.267,1.55-0.6c0.667-0.267,1.2-0.417,1.6-0.45
		c0.6-0.066,1.417,0.017,2.45,0.25c1.4,0.3,2.167,0.45,2.3,0.45c0.8,0.1,1.85,0.083,3.15-0.051c0.067,0,0.133,0,0.2,0
		c0.167-0.033,0.316-0.05,0.45-0.05c1.333-0.133,2.35-0.184,3.05-0.149c0.3,0.033,0.95,0.133,1.95,0.3c0.8,0.133,1.5,0.2,2.1,0.2
		c0.833,0,1.767,0.133,2.8,0.399c0.5,0.134,0.95,0.233,1.351,0.3c0.066,0.167,0.166,0.334,0.3,0.5c0.233,0.334,0.416,0.65,0.55,0.95
		c-0.5-0.133-1.233-0.333-2.2-0.6c-0.333-0.101-0.633-0.167-0.899-0.2c-0.534,0.5-0.934,1.184-1.2,2.05
		c-0.3,0.967-0.434,2.017-0.4,3.15c-0.2-0.4-0.316-0.983-0.35-1.75c-0.033-1-0.066-1.601-0.101-1.8
		c-0.166-0.867-0.283-1.367-0.35-1.5c-0.1-0.167-0.25-0.317-0.45-0.45c-0.366-0.033-0.767-0.084-1.2-0.15
		c-0.166-0.033-0.333-0.066-0.5-0.1c-0.199-0.033-0.366-0.066-0.5-0.101c-0.466-0.066-0.767-0.116-0.899-0.149
		c-0.7-0.033-1.834,0.033-3.4,0.2c-0.033,0-0.066,0.017-0.1,0.05c-0.034,0.066-0.067,0.133-0.1,0.2c-0.033,0.166-0.033,0.6,0,1.3
		c0,1.566-0.117,3.434-0.35,5.6c-0.067,0.5-0.333,1.601-0.8,3.3c-0.5,1.934-0.833,3.134-1,3.601c-0.067,0.2-0.184,0.483-0.35,0.85
		c-0.1,0.167-0.167,0.334-0.2,0.5c0.033-0.467,0.117-1.066,0.25-1.8c0.2-0.967,0.3-1.684,0.3-2.15v-5
		c-0.233-1.5-0.434-2.716-0.6-3.649c-0.167-1.134-0.167-2.017,0-2.65c-0.2,0-0.367-0.017-0.5-0.05c-0.167-0.033-0.934-0.2-2.3-0.5
		c-1.033-0.233-1.85-0.316-2.45-0.25c-0.4,0.033-0.934,0.2-1.6,0.5c-0.767,0.366-1.3,0.583-1.6,0.65
		c-3.433,0.866-6.333,1.033-8.7,0.5c-0.467-0.134-1.167-0.2-2.1-0.2c-0.967-0.033-1.65-0.101-2.05-0.2
		C23.283,30.934,22.983,30.816,22.65,30.65z M46.8,18.7c-0.133,0.433-0.35,0.683-0.65,0.75c-0.2,0.066-0.6,0.066-1.2,0l0.25-7.7
		c0,0.6,0.35,1.75,1.05,3.45C46.883,16.7,47.067,17.867,46.8,18.7z M95.8,25.7c0,0.066,0,0.133,0,0.2
		c1.101,0.133,2.25,0.283,3.45,0.449c-1.066-0.033-2.233-0.05-3.5-0.05c-0.066,0.4-0.233,0.884-0.5,1.45S94.6,29.066,94.1,30
		c-0.433,1.1-0.649,2.6-0.649,4.5c0.033,1.066,0.1,2.616,0.2,4.65c-0.367-1.034-0.483-2.917-0.351-5.65
		c0.134-2.5-0.1-4.316-0.7-5.45c-0.233-0.434-0.716-0.767-1.449-1c-0.667-0.2-1.267-0.233-1.801-0.1c-0.3,0.1-0.616,0.333-0.949,0.7
		c-0.367,0.433-0.65,0.699-0.851,0.8C87.483,27.684,87.4,27.2,87.3,27c-0.066-0.134-0.184-0.25-0.35-0.35
		c-1.733,0.066-3.134,0.116-4.2,0.149c0.033,1,0.083,2.267,0.15,3.8c0.033,1.967-0.051,3.567-0.25,4.801
		c-0.267-0.334-0.417-0.983-0.45-1.95c0.033-1.033,0.017-1.733-0.05-2.101c-0.034-0.267-0.184-0.983-0.45-2.149
		c-0.233-0.9-0.334-1.634-0.3-2.2l0.149-0.1c-0.833,0.066-1.7,0.216-2.6,0.449c-0.934,0.233-1.75,0.434-2.45,0.601
		c-0.066,0.1-0.116,0.217-0.15,0.35c-0.199,0.566-0.449,1.367-0.75,2.4l-0.35-2.45c-0.1,0.033-0.2,0.066-0.3,0.1
		c-0.233,0.167-0.45,0.45-0.65,0.851c-0.267,0.566-0.55,0.899-0.85,1l-0.25-0.4c-0.066,0.566-0.316,1.367-0.75,2.4
		c-0.066,0.333-0.167,0.85-0.3,1.55c-0.101-0.333-0.134-0.783-0.101-1.35c0.033-0.767,0.05-1.217,0.05-1.351
		c-0.166-1.066-0.267-1.934-0.3-2.6c-0.133,0-0.25,0-0.35,0c-0.134,0.133-0.267,0.217-0.4,0.25c0-0.101,0.017-0.184,0.05-0.25
		c-0.1,0-0.183,0-0.25,0c-0.399,0.033-0.833,0.1-1.3,0.2c-0.633,0.666-1.133,1.199-1.5,1.6c-0.967,1.066-1.633,2.066-2,3
		c-0.233,0.634-0.616,1.583-1.149,2.85C64.434,37.2,64.134,38.167,64,39c-0.134,0.866-0.35,2.2-0.65,4c0,0.066,0,0.55,0,1.45
		c0,0.6-0.083,1.083-0.25,1.45c-0.166-0.767-0.233-1.784-0.199-3.051c0.066-1.399,0.1-2.416,0.1-3.05
		c-0.033-1.333-0.05-2.333-0.05-3c-0.033-0.7-0.033-1.333,0-1.899c0.2-1.034,0.333-1.884,0.399-2.551c0-0.166,0.017-0.333,0.051-0.5
		c0-0.433-0.034-0.833-0.101-1.199c0.233-0.034,0.483-0.084,0.75-0.15c0.033,0.1,0.084,0.2,0.15,0.3c0.233,0.533,0.383,1,0.45,1.4
		c0.033,0.5,0.017,1.633-0.051,3.399c0.634-1.833,1-3.216,1.101-4.149c0.066-0.566,0.017-1.05-0.15-1.45
		c0.867-0.467,1.384-1.05,1.55-1.75c0.467-0.066,1.084-0.2,1.851-0.4c0.7-0.166,1.333-0.25,1.899-0.25c0.5,0,1.233,0,2.2,0
		c0.867,0,1.601-0.066,2.2-0.199c0.3-0.067,0.667-0.134,1.1-0.2l1.851-0.4c0.267-0.066,0.55-0.133,0.85-0.2
		c0.334-0.066,0.667-0.133,1-0.199l2.25-0.25l0.45-0.4c0,0.1,0,0.217,0,0.35h0.05c1.167-0.033,2.717-0.083,4.65-0.149l0.35,0.3
		c0-0.1,0-0.2,0-0.3c0.967-0.066,2.033-0.117,3.2-0.15C92.733,25.733,94.333,25.7,95.8,25.7z"/>
	<path style="fill-rule:evenodd;clip-rule:evenodd;fill:#635B52;" d="M21.2,28.6c-0.3-0.133-0.55-0.233-0.75-0.3
		c0.4-0.133,1.033-0.233,1.9-0.3l-0.4,0.2l-0.75,0.05c0.066,0.066,0.1,0.167,0.1,0.3L21.2,28.6z M47.7,29.35c-0.067,0-0.133,0-0.2,0
		c-1.3,0.134-2.35,0.15-3.15,0.051c-0.133,0-0.9-0.15-2.3-0.45c-1.033-0.233-1.85-0.316-2.45-0.25c-0.4,0.033-0.934,0.184-1.6,0.45
		c-0.767,0.333-1.283,0.533-1.55,0.6c-0.434,0.1-0.833,0.184-1.2,0.25c-0.067-0.167-0.333-0.283-0.8-0.35
		c-0.6-0.034-1.083-0.084-1.45-0.15c-0.367-0.033-1.133-0.217-2.3-0.55c-1.5-0.4-2.7-0.8-3.6-1.2c1.7-0.366,3.4-1.2,5.1-2.5
		c1-0.767,2.433-1.15,4.3-1.15c1.067-0.033,2.65,0.017,4.75,0.15c0.933,0,2.367-0.033,4.3-0.1c1.767-0.066,3.2-0.017,4.3,0.15
		c-0.866,0.5-2.133,0.867-3.8,1.101c-1.9,0.199-3.267,0.366-4.1,0.5c-0.434,0.066-1.133,0.283-2.1,0.649
		c-0.9,0.367-1.6,0.584-2.1,0.65c1.133-0.033,3.467-0.167,7-0.4c2.9-0.166,5.233-0.25,7-0.25c0.333,0,0.95-0.017,1.85-0.05
		c0.801,0,1.351,0.15,1.65,0.45c0.566,0.533,0.384,0.95-0.55,1.25c-1.2,0.233-1.934,0.383-2.2,0.45
		c-1.967,0.233-3.517,0.449-4.65,0.649C47.783,29.3,47.733,29.316,47.7,29.35z M76.35,27.2c-0.433,0.066-0.8,0.133-1.1,0.2
		c-0.6,0.133-1.333,0.199-2.2,0.199c-0.967,0-1.7,0-2.2,0c-0.566,0-1.199,0.084-1.899,0.25c-0.767,0.2-1.384,0.334-1.851,0.4
		c-0.166,0.7-0.683,1.283-1.55,1.75c-0.267-0.7-0.833-1.167-1.7-1.4c-0.066-0.133-0.1-0.233-0.1-0.3c-0.1-0.8,0.167-1.5,0.8-2.1
		c1.634-1.534,5.533-1.95,11.7-1.25c0.033,0.7,0.033,1.149,0,1.35c-0.1,0.4-0.366,0.75-0.8,1.05
		C75.717,27.283,76.017,27.233,76.35,27.2z"/>
</g>
</svg>
