<?xml version="1.0" encoding="iso-8859-1"?>
<!-- Generator: Adobe Illustrator 15.1.0, SVG Export Plug-In . SVG Version: 6.00 Build 0)  -->
<!DOCTYPE svg PUBLIC "-//W3C//DTD SVG 1.1//EN" "http://www.w3.org/Graphics/SVG/1.1/DTD/svg11.dtd">
<svg version="1.1" id="Layer_1" xmlns="http://www.w3.org/2000/svg" xmlns:xlink="http://www.w3.org/1999/xlink" x="0px" y="0px"
	 width="119.8px" height="399.7px" viewBox="0 0 119.8 399.7" style="enable-background:new 0 0 119.8 399.7;" xml:space="preserve"
	>
<g>
	<path style="fill-rule:evenodd;clip-rule:evenodd;fill:#625954;" d="M114.8,59.95c0.2,0.1,0.517,0.25,0.95,0.45
		c0.366,0.3,0.684,0.883,0.95,1.75l0.05,5.75c0.2-1.167,0.35-2.367,0.45-3.6l0.2,2.15c-0.434,4.533-1.284,8.3-2.551,11.3L113.9,80.2
		l-0.301,1.75v-2.2l-0.05,2.3c0,3.167-0.1,6.55-0.3,10.15c-0.233,4.633-0.684,7.433-1.35,8.4c-0.367,0.5-1.284,0.6-2.75,0.3
		c-0.2-0.4-0.417-0.7-0.65-0.9l-0.2,0.75l-1.45-0.15c-0.133-0.867-0.267-2.517-0.399-4.95c-0.233-4.433-0.367-6.883-0.4-7.35
		l-1.399,11.65c-0.601-0.233-1.351-0.65-2.25-1.25c-1.301-0.867-2.017-1.617-2.15-2.25l0.15-2.05c0.166-0.333,0.25-1.05,0.25-2.15
		c1-8.2,0.583-13.75-1.25-16.65l-1.5,1.3c-0.134-0.967-0.2-1.8-0.2-2.5c0-1.967,0.316-3.883,0.95-5.75
		C99.283,66.817,99.6,65,99.6,63.2c0-1.3-0.183-2.25-0.55-2.85c-0.566-0.633-1.066-1.233-1.5-1.8c3.066,0.733,6.733,1.2,11,1.4
		C112.05,60.117,114.134,60.117,114.8,59.95z M95.75,42.85l0.05-27.9l0.05,0.3c0.801,1.033,1.9,1.567,3.301,1.6
		c-0.267,3.767-0.567,7.217-0.9,10.35c-0.233,2-0.65,5.583-1.25,10.75l0.05-2.9c0-0.667-0.083-2.25-0.25-4.75
		c-0.166-2.767-0.316-4.55-0.45-5.35c-0.033,1.466-0.1,4.167-0.199,8.1C96.017,36.917,95.884,40.183,95.75,42.85z M112.2,24.25V52.8
		c-0.066,0.233-0.084,0.517-0.05,0.85c-0.067,0.233-0.301,0.35-0.7,0.35c-0.101,0-1.367-0.533-3.8-1.6
		c-1.034,0.3-1.9,0.55-2.601,0.75c-1.3,0.367-2.483,0.3-3.55-0.2c1.434-3.367,2.233-6.817,2.4-10.35c0.033-6.5,0.133-13.3,0.3-20.4
		c0.333,0.4,0.533,0.617,0.6,0.65c0.2,0.2,0.601,0.467,1.2,0.8c0.3,0.3,0.35,1.6,0.15,3.9c-0.167,1.934-0.25,3.75-0.25,5.45
		c0,0.6,0.083,2.133,0.25,4.6c0.133,2.6,0.25,4.183,0.35,4.75l0.4-18.6c0.133,0,0.6-0.167,1.399-0.5c0.767-0.333,1.334-0.5,1.7-0.5
		c0.7,0,1.2,0.167,1.5,0.5C111.667,23.45,111.9,23.783,112.2,24.25z M117.15,54.15l-0.45-1l-0.55,1.15
		c-0.301,0.333-0.584,0.5-0.851,0.5l-0.05-10.05l0.95-3.4l0.6,6.35C116.967,49,117.083,51.15,117.15,54.15z M119.3,111.35
		c-0.015-0.454-0.131-0.837-0.35-1.15c-0.267-0.434-0.584-0.65-0.95-0.65l0.4-0.45c0.233,0.033,0.533,0.267,0.899,0.7V111.35z
		 M119.5,149.5l0.05,10.45c-0.467-2.5-0.7-4.05-0.7-4.65l0.15-6.1L119.5,149.5z M109.55,143.6c0.101,3.933,0.25,6.933,0.45,9
		c0.066,0.033,0.2,0.117,0.4,0.25c0.066,0.066,0.3,0.1,0.699,0.1c0.467,0,0.834-0.05,1.101-0.15c0.166-0.066,0.5-0.267,1-0.6
		c0.399,0.566,0.733,1.9,1,4c0.233,2,0.35,4.2,0.35,6.6c0,11.867-0.35,20.567-1.05,26.1c-0.434,3.2-1.134,5.883-2.1,8.05
		c-0.134-0.7-0.284-2.2-0.45-4.5c-0.2-2.2-0.3-3.567-0.3-4.1c0-4.767,0.283-8.067,0.85-9.9c0.533-1.8,0.8-6.85,0.8-15.15
		c0-2.8-0.166-4.7-0.5-5.7c-0.1-0.333-0.45-0.833-1.05-1.5c-2.5,1.033-4.033,3.783-4.6,8.25c-0.334,2.467-0.5,9.1-0.5,19.9
		c0,0.333,0.017,2.483,0.05,6.45c0,4.1-0.033,6.816-0.101,8.15l-0.199-2.2c-0.067-1-0.534-8.15-1.4-21.45
		c-0.866-13.6-1.384-21.883-1.55-24.85c0.3-0.567,0.717-2.45,1.25-5.65c0.366-2.267,1.217-3.667,2.55-4.2
		c0.967,0.333,1.667,0.75,2.1,1.25C108.65,142.083,109.05,142.7,109.55,143.6z M119.55,197.5l-0.05,1.9
		c-0.434,6.034-1.134,15.167-2.1,27.4h-0.051V224l0.2-16.6c0-2.667-0.05-4.784-0.149-6.351l-0.051-1.25
		c-0.3,0.434-0.55,1.634-0.75,3.601c-0.199,1.866-0.566,3.066-1.1,3.6c-0.333,0-0.85-0.3-1.55-0.9c0.8-5.866,1.467-10.649,2-14.35
		c0.934-6.967,1.583-17.4,1.95-31.3c0.233,1.8,0.433,4.4,0.6,7.8c0.1,2.5,0.15,4.3,0.15,5.4c0,0.434-0.15,2.833-0.45,7.2
		c-0.334,4.467-0.55,7.033-0.65,7.7l1.8-8.45v-0.2l0.101-0.6l0.05-0.45l0.05-0.4V197.5z M112.4,230.95l-0.2,1.5
		c-0.233,1.066-0.767,2.25-1.601,3.55c-0.767,1.167-1.166,1.95-1.199,2.35c-0.5,5.767-1.134,10.351-1.9,13.75l-0.95-0.149
		c0-5.5-0.184-10.95-0.55-16.351c-0.4-5.433-0.6-11.699-0.6-18.8c0-1.833,0.116-4.184,0.35-7.05c0.134,0.233,0.4,0.816,0.8,1.75
		c0.367,0.833,0.584,1.35,0.65,1.55c0.033,1,0.2,7.483,0.5,19.45l0.3-0.85c0.2-0.867,0.4-2.601,0.6-5.2
		c0.167-2.233,0.25-3.717,0.25-4.45l-0.05-9.6l0.65-0.75l1,10.899c0.2-1.033,0.416-5.083,0.649-12.149l1.25-0.101
		c1.667,0,2.834,1.417,3.5,4.25c0.534,2.4,0.834,6.5,0.9,12.3c-1.2,0-2.217,0.4-3.05,1.2C112.833,228.85,112.4,229.816,112.4,230.95
		z M103.6,55.2c-1.833,0.1-3.216-0.4-4.149-1.5C100.05,53.833,101.434,54.333,103.6,55.2z M100.85,52.25L99.7,50.8
		c0.267-7,0.55-11.783,0.85-14.35v2.05c0.233,0,0.351,2.717,0.351,8.15L100.85,52.25z M100.05,101.1l1.2,0.35
		c-0.366,4.5-0.634,9.066-0.8,13.7c-0.134,3.833-0.267,6.233-0.4,7.2L100,120.8c-0.2-4.667-0.3-8.783-0.3-12.35L100.05,101.1z
		 M113.25,106.8c-0.434,3.534-0.65,8.417-0.65,14.65c0,5.433-0.133,8.6-0.399,9.5l-0.15,1c0.066-0.934-0.083-4.8-0.45-11.6
		c-0.033,3-0.116,6.1-0.25,9.3c-0.033,1.267-0.733,1.783-2.1,1.55l1.05,7.35l-0.05,0.15c0-0.867-0.616-1.6-1.85-2.2
		c-1.233-0.633-2.733-0.95-4.5-0.95c-0.2-1.367-0.301-2.7-0.301-4c0-2.5,0.284-6.6,0.851-12.3c0.8-7.767,1.267-12.583,1.399-14.45
		c0.434,0,0.801-0.083,1.101-0.25l2.399,0.9c0.801,0.466,1.351,1.15,1.65,2.05c0.333,0.9,0.517,2.3,0.55,4.2
		c0.2-2.233,0.617-3.983,1.25-5.25L113.25,106.8z M116.1,121.7l-0.6,19.65c-0.667,0.1-1.217,0.133-1.65,0.1
		c0.2-8.1,0.334-14.284,0.4-18.55c0.134-7.667,0.116-12.45-0.05-14.35c0.166,0.1,0.633,0.15,1.399,0.15
		c0.733,0.066,1.101,0.4,1.101,1c0,0.5-0.117,2.05-0.351,4.65c-0.199,2.566-0.366,4.383-0.5,5.45L116.1,121.7z M106.2,207.4
		c0.434-0.467,0.684-1,0.75-1.601l0.149-0.7v2.65L106.2,207.4z"/>
	<path style="fill-rule:evenodd;clip-rule:evenodd;fill:#726A60;" d="M112.2,24.25c0.967,0.867,1.733,1.6,2.3,2.2
		c0.066,7.066-0.7,15.85-2.3,26.35V24.25z M115.95,35.3l0.25,6.05l-0.95,3.4c0.2-4.7,0.283-9.717,0.25-15.05c0-0.1,0-0.2,0-0.3
		l0.25,6.8L115.95,35.3z M117.7,69.85c-0.601,3.867-0.967,5.983-1.101,6.35c-0.133,0.4-0.716,0.917-1.75,1.55
		c1.267-3,2.117-6.767,2.551-11.3L117.7,69.85z M100.4,94.4l-0.15,2.05c-0.066-0.534-0.1-1.133-0.1-1.8c0-0.4,0.033-0.533,0.1-0.4
		S100.366,94.433,100.4,94.4z M119.3,107.55c-0.8-0.767-1.7-1.417-2.7-1.95c-0.966-0.533-1.566-0.917-1.8-1.15
		c-0.866-0.833-1.3-3.333-1.3-7.5c0.066-2.534,0.1-7.534,0.1-15l0.301-1.75c0.333,5.833,0.333,12.133,0,18.9
		c0.1,2.1,0.517,3.633,1.25,4.6c0.8,1.066,2.166,1.75,4.1,2.05L119.3,107.55z M116.1,121.7c0.334,3.533,0.5,8.816,0.5,15.85l0.051,2
		c0.267-2.933,0.5-8.55,0.699-16.85c0.167-7.333,0.384-11.717,0.65-13.15c0.366,0,0.684,0.217,0.95,0.65
		c0.219,0.313,0.335,0.696,0.35,1.15l0.05,25.9c-0.666,0.933-1.216,1.667-1.649,2.2c-0.767,1.066-1.5,1.7-2.2,1.9L116.1,121.7z
		 M119.45,144.2l0.05,5.3l-0.5-0.3C119.033,148.067,119.184,146.4,119.45,144.2z M112,235.8c0,2.101-0.45,3.667-1.35,4.7
		c-0.167,0.2-0.434,0.384-0.801,0.55c-0.233,0.101-0.383,0.351-0.449,0.75c-0.167,0.867-0.101,4.367,0.199,10.5
		c-0.433,0.267-1.133,0.2-2.1-0.2c0.767-3.399,1.4-7.983,1.9-13.75c0.033-0.399,0.433-1.183,1.199-2.35
		c0.834-1.3,1.367-2.483,1.601-3.55L112,235.8z M92.3,283.6l-0.2,0.101c-0.133-24.434-0.199-36.983-0.199-37.65
		c0.166-16.467,0.333-28.816,0.5-37.05c0.1,3.366,0.399,10.6,0.899,21.7c0.167,7.3,0.283,24.633,0.351,52l-0.95,0.649
		C92.566,283.417,92.434,283.5,92.3,283.6z M109.15,265.3c-1.067,0.5-1.934,0.884-2.601,1.15c0-3.634,0.15-6.167,0.45-7.601
		l0.15-0.3c0.233,0.634,0.383,1.634,0.449,3c0.233-0.267,0.417-1.116,0.551-2.55C108.55,260.434,108.884,262.533,109.15,265.3z
		 M106.55,251.95c-1.166,2.467-1.95,3.983-2.35,4.55l-0.101-1.2l-1.3,11.351c-0.1-0.467-0.149-2.2-0.149-5.2
		c0-24.601-0.233-39.4-0.7-44.4c-0.066-0.6-0.233-1.533-0.5-2.8c-0.167-0.733-0.25-2.3-0.25-4.7c0-1.267-0.05-2.166-0.15-2.7
		c-0.2-0.966-0.416-2.083-0.649-3.35c0.233,0.6,0.483,1.05,0.75,1.35c0.466,0.534,0.75,0.983,0.85,1.351
		c0.4,1.533,0.55,8.483,0.45,20.85c0.1-1.467,0.217-4.033,0.35-7.7c0.101-3.199,0.15-5.183,0.15-5.949c0-2.967,0.55-4.45,1.649-4.45
		c0.434,0,0.7,0.066,0.801,0.2c0.066,0.1,0.183,0.3,0.35,0.6c-0.233,2.866-0.35,5.217-0.35,7.05c0,7.101,0.199,13.367,0.6,18.8
		C106.366,241,106.55,246.45,106.55,251.95z M104.25,258.85c0.333,1.667,0.55,3.717,0.65,6.15v1.2
		C104.6,264,104.384,261.55,104.25,258.85z M99.45,268.15l0.05-2.601v2.601H99.45z M83.25,294.95c0.366-0.834,0.583-2.15,0.65-3.95
		c0.166,2.667,0.25,5.2,0.25,7.6L83.7,311.9L83.1,312.1L83.25,294.95z M81.65,247.3L79.4,222c0.399-8.866,0.6-15.467,0.6-19.8
		c0-4.5,0.267-12.75,0.8-24.75l0.25-2.2C81.15,183.817,81.35,207.833,81.65,247.3z M79.25,227.9
		c0.9,31.366,1.384,58.583,1.45,81.649c-0.8,0.066-1.434,0.283-1.9,0.65L79.25,227.9z M77.1,333l-0.3-7.15
		c0-0.633,0.101-1.833,0.3-3.6c0.2-2.1,0.434-3.917,0.7-5.45c0.2,5.334,0.283,9.033,0.25,11.101l-0.25,2.75L77.4,332.35L77.1,333z
		 M74.5,89.65c-0.667,20.967-1,32.934-1,35.9l-0.6,23.6L73.8,190c0,4.2-0.233,8.833-0.7,13.9c-0.5,5.066-0.75,9.383-0.75,12.949
		l0.2,19.601c-0.233,1.399-0.684,2.95-1.35,4.649c-0.533,1.301-0.8,2.7-0.8,4.2c0,0.334,0.1,3.533,0.3,9.601
		c0.166,7.666,0.233,15.816,0.2,24.449l-0.45,5.851c-0.3,4.5-0.45,8.267-0.45,11.3l-0.05-0.3l0.05,0.55
		c0.2,14.833,0.583,27.05,1.15,36.65c0.199,0.866,0.399,2.3,0.6,4.3c-2.434,0.833-3.816,1.3-4.15,1.399
		c-0.6,0-1.783,0.051-3.55,0.15l0.101,6.9c0,8.366-0.284,14.383-0.851,18.05c-0.866,5.333-2.517,8.083-4.95,8.25H56.9l-1.65-4.15
		v2.75c-0.9,0.667-1.4,2.351-1.5,5.05c-0.167,6.134-0.283,9.517-0.35,10.15c-0.066,0.7-0.117,2.116-0.15,4.25
		c-0.1,2.1-0.317,3.783-0.65,5.05c-1,3.867-3.367,5.017-7.1,3.45c0.133-0.134,1.133-0.783,3-1.95c0.667-0.399,1-1.5,1-3.3
		c0-9.3-0.283-14.467-0.85-15.5c-0.3-0.6-0.967-0.983-2-1.15c-2.066-0.267-3.383-0.483-3.95-0.649c-0.233-0.3-0.633-0.7-1.2-1.2
		c-0.467-0.4-0.7-0.634-0.7-0.7l1.7-0.149h0.1c4.2-0.534,6.867-3.367,8-8.5c0.4-1.7,0.717-4.167,0.95-7.4
		c0.333-3.934,0.583-6.517,0.75-7.75c1.3-5.1,2.017-8.384,2.15-9.85c0.167-3.134,0.433-7.15,0.8-12.051v35.601h3.8
		c2.334-17.934,3.584-28.584,3.75-31.95c-0.1-0.733-0.149-1.434-0.149-2.1c0.066-1.367,0.1-6.351,0.1-14.95
		c0.167,7.666,0.184,13.35,0.05,17.05c0.967,1.934,2.3,2.833,4,2.7c0.4-1.634,0.55-4.434,0.45-8.4c-0.134-4.133-0.2-6.75-0.2-7.85
		c0.033,0.233,0.117,0.533,0.25,0.899L67.4,320c0.199-1,0.366-2.934,0.5-5.8c0.133-2.267,0.199-3.867,0.199-4.8
		c-0.633-5.767-0.949-8.983-0.949-9.65c0-17.634,0.5-34.75,1.5-51.35c1-16.601,1.5-32.434,1.5-47.5
		c0.133-20.434,0.199-37.067,0.199-49.9c0-3.167,0.267-9.1,0.801-17.8c0.6-10.333,1.017-19.534,1.25-27.6v-2.75l-2.051,4.45
		c-0.399,0.867-1.033,1.85-1.899,2.95c-0.733,0.933-1.3,1.567-1.7,1.9c-0.134-0.2-0.417-1.333-0.85-3.4
		c-0.367-1.7-1.117-2.95-2.25-3.75l-0.5,0.3l-2.4,49.45l0.1-18.2c0.233-13.267,0.417-21.4,0.551-24.4
		c0.066-2.066,0.366-5.333,0.899-9.8c0.4-3.233,0.917-7.1,1.55-11.6l-0.199,4.875c0.004-0.045,0.021-0.054,0.05-0.025
		c0.133,0.133,0.233,0.183,0.3,0.15c0.233,0.4,0.55,1.433,0.95,3.1c0.3,1.3,0.8,2.233,1.5,2.8c0.3,0.267,0.75,0.917,1.35,1.95
		c0.601,1.1,1.05,1.8,1.351,2.1c0.366-0.2,1-1.383,1.899-3.55c0.834-2.066,1.25-3.316,1.25-3.75c0-1.233-0.217-5.433-0.649-12.6
		c-0.233-4.066,0-12.383,0.699-24.95l0.301-6.15c-2.634,0.333-4.217,0.65-4.75,0.95c-1.034,0.533-2.084,1.934-3.15,4.2l0.45,6.05
		c0.133,1.5,0.399,4.65,0.8,9.45l0.15,1.1c-2.834-4.7-4.867-15.35-6.101-31.95c-0.934-18.033-1.767-29.617-2.5-34.75
		c1.4-0.433,3-0.75,4.8-0.95h0.101l0.2,6.9l0.25,17.6c-0.2-4.3-0.45-8.617-0.75-12.95l0.05,5.95c0,2.133,0,3.217,0,3.25
		c-0.134,0.6-0.717,0.917-1.75,0.95c0.033,0.267,0.017,1.3-0.05,3.1c0.066,1.633,0.3,2.45,0.699,2.45c1.034,0,1.75,4.633,2.15,13.9
		c0.2,4.8,0.434,10.483,0.7,17.05l0.1,0.3c0.3-2.1,0.5-4.466,0.601-7.1l0.1-0.35v-0.7l0.6-10.45l0.551-0.15
		c1.466,0.667,2.5,1.517,3.1,2.55c0.467,0.8,0.866,1.2,1.2,1.2c0.467,0,1-0.45,1.6-1.35c0.7-1,1.101-2.05,1.2-3.15l0.45-8.2
		c0.166,5.333,0.416,8.683,0.75,10.05c0.166,0.7,0.35,1.167,0.55,1.4l0.05,0.05c1.233,1.233,1.9,1.883,2,1.95
		c0.8,0.467,1.717,0.35,2.75-0.35l-1.7,1.2c-1.466,0.867-2.366,1.367-2.699,1.5l-1.101-0.25c0.134,0,0.25,5.75,0.351,17.25
		C74.467,78.167,74.5,83.917,74.5,89.65z M2.65,72.25v19.8v4.35l0.45-2.1l0.5-4.2L3.45,93L3.1,94.3l-0.2,3.15
		c-0.167,2.867-0.25,6.3-0.25,10.3l-1,19L1.8,81.7L2.65,72.25l0.1-21.2c-0.2-3.133-0.283-5.966-0.25-8.5
		c0.033-4.867,0.55-8.216,1.55-10.05c-0.633,4.9-1.066,11.083-1.3,18.55c0.3,2.733,0.783,4.55,1.45,5.45
		c0.267-0.3,0.466-0.817,0.6-1.55c0.167-0.867,0.367-2.55,0.6-5.05c0,1,0.133,2.633,0.4,4.9c0.333,2.867,0.7,4.6,1.1,5.2
		c1.133,0.133,2.15-0.15,3.05-0.85c1-0.8,1.517-1.2,1.55-1.2c0.3-0.067,1-0.1,2.1-0.1c0.933,0,1.683-0.1,2.25-0.3
		c1.233-1.233,2.083-5.367,2.55-12.4c0.867-13.2,1.917-24.5,3.15-33.9c0.133-3.867,0.2-7.25,0.2-10.15l1.85-0.45
		c-0.033,3.3-0.133,10.283-0.3,20.95c-0.167,11.566-0.267,22.767-0.3,33.6l-0.1,51.55c-0.133,9.4-0.316,15.533-0.55,18.4
		c0-6.367-0.1-10.033-0.3-11c-0.133-1.1-0.767-7.933-1.9-20.5c-0.867-9.2-1.5-14.2-1.9-15c-3.867,0-7.15,0.983-9.85,2.95
		c-2.733,1.933-4.1,4.267-4.1,7l-0.6,2.95l0.05-5.05l-0.1,1.9c-0.167-3.8,0.5-6.85,2-9.15c1.167-1.8,3.1-3.367,5.8-4.7
		c3.8-1.9,5.816-2.933,6.05-3.1c1.867-1.333,2.8-3.15,2.8-5.45c0-0.4-0.066-0.85-0.2-1.35c-0.233-0.633-0.417-1.183-0.55-1.65
		c-0.4-0.9-0.983-1.733-1.75-2.5c-0.633-0.567-1.033-0.85-1.2-0.85c-0.6,0-1.283,0.117-2.05,0.35c-0.233,0.067-0.917,0.467-2.05,1.2
		c-1.1,0.7-1.75,1.083-1.95,1.15c-0.5,0.133-1.283,0.15-2.35,0.05c-1.434-0.133-2.233-0.2-2.4-0.2c-1.4,0-2.3,1.017-2.7,3.05
		C3.033,65.617,2.883,67.95,2.65,72.25z M31.1,0.2l0.2,16.95c-0.033-0.5-0.05-0.983-0.05-1.45C31.117,6.567,31.067,1.4,31.1,0.2z
		 M54.65,148.05c-0.367,11.7-0.967,22.967-1.8,33.8v0.05c-0.367,1.833-0.684,5.4-0.95,10.7c0,8.133-0.117,24.2-0.35,48.2l0.15,15.8
		c-0.133-3.8-0.434-8.6-0.9-14.399c0.233-3.367,0.217-6.467-0.05-9.3c-0.567-5.534-2.267-9.25-5.1-11.15
		c0.9-1.167,1.867-2.417,2.9-3.75c0.633-0.967,1.034-2.167,1.2-3.6c0.033-0.233,0.133-8.067,0.3-23.5l0.4-8.25l-0.55,1.3
		c-1.133,1.667-1.967,3.216-2.5,4.65c-0.367,1.033-0.767,1.733-1.2,2.1c-0.2-0.767-0.717-1.534-1.55-2.3c-0.167,0.033-1,0.5-2.5,1.4
		c-1.233,0.733-2.767,1.017-4.6,0.85h-0.7l-0.8-13.45l-0.25,9.3l-0.15,3.05l-0.3-4.45c0,2.566,0.083,6.217,0.25,10.95L36,223.65
		c0,2.666-0.233,7.183-0.7,13.55c-0.466,6.366-0.7,13.25-0.7,20.649c0,4.934,0.1,11.301,0.3,19.101
		c0.267,9.733,0.617,17.45,1.05,23.149c0.133,1.634,0.733,6.817,1.8,15.551c0.933,8.366,1.2,13.466,0.8,15.3
		c-0.6,4.066-0.966,9.383-1.1,15.95c-0.133,7.433-0.467,13.666-1,18.699c-0.833-1.633-1.467-3.767-1.9-6.399
		c-0.333-1.867-0.5-3.384-0.5-4.55c0.567-9.9,0.85-15.184,0.85-15.851c0-2.133-0.367-5.283-1.1-9.45c-0.8-4.3-1.533-7.149-2.2-8.55
		l-0.65-1.85c-0.733-0.967-1.25-1.584-1.55-1.851l-0.1-0.1v-9.55c0.133-5.434,0.217-8.367,0.25-8.8
		c0.067,0.433,0.117,0.649,0.15,0.649c0.533,0,0.867-7.083,1-21.25c0.033-2.767,0.05-11.55,0.05-26.35
		c0-6.033,0.283-12.283,0.85-18.75c0.566-6.467,0.85-11.084,0.85-13.851c0-2.633-0.184-6.366-0.55-11.199
		c-0.367-4.867-0.55-8.134-0.55-9.8c0-2.5,0.233-8.317,0.7-17.45l0.2-3.3c0.6-8.067,1.167-16.967,1.7-26.7
		c0.466-8.967,0.733-14.933,0.8-17.9l0.05,14.6c0.167-1.767,0.25-4.9,0.25-9.4c0-4.6-0.15-7.417-0.45-8.45
		c-0.6-2.067-1.117-5.117-1.55-9.15l0.05-1.65c0.566,9.466,2.316,14.2,5.25,14.2c0.633,0,1.183-0.267,1.65-0.8l-1.6,2.95l-0.25,0.85
		l0.25,0.15c0.233,0.1,0.55,0.15,0.95,0.15c0.9,0,1.5-0.417,1.8-1.25c0.233-0.7,0.55-2.633,0.95-5.8c-0.167,1.633-0.167,3.033,0,4.2
		c-0.033,1.2-0.684,3.55-1.95,7.05c-0.167,0.467-0.833,1.684-2,3.65c-1.167,1.934-1.783,2.983-1.85,3.15
		c-0.5,1.667-0.85,3.05-1.05,4.15l-0.1,4.85c-0.066,5.9,0,15.533,0.2,28.9l0.25-9.3l0.45,1.4l1.45,2.8c0,0.7,0.2,1.3,0.6,1.8
		c0.367,0.467,0.816,0.7,1.35,0.7c0.566,0.867,1.316,1.567,2.25,2.1c0.7,0.4,1.2,0.6,1.5,0.6c1.066,0,2.417-1.517,4.05-4.55
		c0.333-0.633,0.683-1.316,1.05-2.05c0.067-0.133,0.133-0.25,0.2-0.35c2.167-4.667,3.267-9.783,3.3-15.35l0.2,7.65
		c-0.033-26.4-0.083-42.716-0.15-48.95c-0.067-6.2-0.217-9.983-0.45-11.35l5.15-70.95c-0.466,15.3-0.933,37.284-1.4,65.95
		c-0.1-7.667-0.133-16.183-0.1-25.55l-0.5,23.25c-0.767,10.9-1.2,17.833-1.3,20.8c-0.133,3.467-0.2,10.883-0.2,22.25l0.05,10.65
		C53.8,153.417,54.317,150.55,54.65,148.05z M2.8,137.3c-0.066,12.3-0.25,24.1-0.55,35.4c-0.067-2.2-0.233-4.917-0.5-8.15l-0.05-16
		c0.4-0.933,0.65-2.233,0.75-3.9c0.1-1.633,0.216-5.933,0.35-12.9V137.3z M10.55,310.85l2.2-58.449V311.6v0.051L10.55,310.85z
		 M7.6,28.35L7.7,38.5L6.6,29L7.6,28.35z M41.75,120.2c0.667-0.733,1.033-1.417,1.1-2.05c0.1-1.2,0.15-6.233,0.15-15.1
		c0-6.4-0.233-14.7-0.7-24.9c-0.466-10.167-0.7-17.333-0.7-21.5c0-7.9,0.333-17.383,1-28.45c0.033-0.534,0.066-1.05,0.1-1.55
		L42.25,12.9c0.033,6.7,0,11.967-0.1,15.8l-0.1,0.9c-0.3-1.767-1.15-5.283-2.55-10.55c-2.333-8.9-3.883-14.867-4.65-17.9
		c0.267,0.267,0.733,0.55,1.4,0.85c0.633,0.3,1.083,0.45,1.35,0.45c0,1.3,0.5,2.4,1.5,3.3c0.967,0.9,2.15,1.35,3.55,1.35l0.05,19.55
		c0.6-10.566,0.917-17.033,0.95-19.4L45.1,7.4l-0.3,19.3c-0.233,11.667-0.55,19.45-0.95,23.35c-0.3,2.867-0.45,8.25-0.45,16.15
		c0,0.333,0.033,4.7,0.1,13.1c0.067,11.4,0.083,24.833,0.05,40.3l-0.15,1.5c-0.1,0-0.233,0.066-0.4,0.2
		c-0.2,0.2-0.333,0.317-0.4,0.35c-0.1,0-0.233-0.15-0.4-0.45C42,120.867,41.85,120.533,41.75,120.2z M71.15,12.2l0.1,27.3
		c-1.366-15.833-2.066-23.95-2.1-24.35L69.1,9.3h2L71.15,12.2z M92.95,6.5l0.2,0.05c0.366,0.333,0.883,1.55,1.55,3.65
		c0.633,2.033,0.983,3.483,1.05,4.35l0.05,0.4l-0.05,27.9l-0.3,7c0,0.1-0.334,0.15-1,0.15c-0.634-0.167-1.283-0.417-1.95-0.75
		c-1.3-0.667-1.95-1.417-1.95-2.25c0-0.333,0.084-0.85,0.25-1.55c0.167-0.7,0.25-1.217,0.25-1.55c0.101-1.133,0.167-13.133,0.2-36
		l-1.8,32.15L89.2,35.1l0.149,6.35l-0.699,4.4l-0.75,4.4L88,47.3l-0.5,6.3l-0.2,7.5c-0.866-0.5-1.767-2.033-2.7-4.6
		c-0.833-2.567-1.333-3.983-1.5-4.25l0.051,6.15c0.033,3.033,0.1,7.267,0.199,12.7c0.067,4.533,0.067,8.15,0,10.85
		c-0.033,1.933-0.133,5.183-0.3,9.75c0.167,3.633,1.134,5.55,2.9,5.75c1.566-0.1,2.783-0.3,3.649-0.6
		c1.834-1.667,2.851-5.934,3.051-12.8c-0.2-7.333-0.301-11.8-0.301-13.4c0-0.9-0.083-2.367-0.25-4.4
		c-0.199-2.6-0.433-4.517-0.699-5.75L91.1,59.6c-1.633,1.167-2.517,3.933-2.649,8.3c-0.033,2.367-0.033,5.633,0,9.8
		c0.066,0.5,0.1,2.483,0.1,5.95l-0.3,1.5L87.9,81.2c0.133-12.034,0.416-19.967,0.85-23.8c0.467-4.3,1.384-6.45,2.75-6.45
		c1.2,0,2.434,0.517,3.7,1.55c1.2,0.967,2.616,1.367,4.25,1.2c0.934,1.1,2.316,1.6,4.149,1.5c2.867,0.433,5.551,1.333,8.051,2.7
		c1.267,0.667,2.316,1.35,3.149,2.05c-0.666,0.167-2.75,0.167-6.25,0c-4.267-0.2-7.934-0.667-11-1.4
		c0.434,0.567,0.934,1.167,1.5,1.8c0.367,0.6,0.55,1.55,0.55,2.85c0,1.8-0.316,3.617-0.949,5.45c-0.634,1.867-0.95,3.783-0.95,5.75
		c0,0.7,0.066,1.533,0.2,2.5l1.5-1.3c1.833,2.9,2.25,8.45,1.25,16.65c-0.4-3.5-0.65-8.4-0.75-14.7l-0.101-1
		c-0.7,4.1-1,7.034-0.899,8.8c0.033,1.167,0.149,3.45,0.35,6.85c0,0.767-0.134,1.767-0.4,3c-0.233,1.2-0.466,2.05-0.699,2.55
		c-0.767-0.7-1.5-2.083-2.2-4.15c-1-3.1-1.733-7.267-2.2-12.5l-0.3-0.85c-0.066,2.933-0.316,9.683-0.75,20.25
		c0,1.067,0.066,3.333,0.2,6.8c0.166,4.534,0.366,8.267,0.6,11.2c0-2.6-0.033-6.083-0.1-10.45c-0.101-4.933-0.15-7.566-0.15-7.9
		c0-1.3,0.2-4.633,0.6-10l0.9,3.15c-0.134,10.667-0.233,28.633-0.3,53.9l0.05,5.55c0,2.433-0.033,3.917-0.1,4.45l-0.101,1.35
		C94,151.483,93.316,131.3,92.25,98c-0.033,0.067-0.2,0.133-0.5,0.2c-0.4,0.033-0.783,0.033-1.15,0
		c-0.8,1.133-1.199,2.917-1.199,5.35c0.033,2.4-0.117,3.833-0.45,4.3l-0.351-0.1c-0.6-1.7-1.283-2.717-2.05-3.05
		c-0.8-0.333-1.35-0.833-1.649-1.5c-0.2-0.733-0.434-1.284-0.7-1.65c-0.4,0.2-0.684,0.3-0.851,0.3V139c0.2,4.433,0.15,7.7-0.149,9.8
		c-0.467-6.4-0.834-13.216-1.101-20.45c-0.233-5.833-0.35-8.767-0.35-8.8c0.1-6.9,0.083-11.216-0.05-12.95
		c-0.233-2.567-1.2-3.5-2.9-2.8c-0.3,0-0.916-0.117-1.85-0.35c-1.101-0.3-1.884-0.483-2.351-0.55v-6.8l0.4-0.4
		c0.1-0.034,0.434,0.017,1,0.15c0.667,0.133,1.167,0.2,1.5,0.2c1.134,0,1.884-0.35,2.25-1.05s0.566-2.167,0.6-4.4
		c-0.199-8.4-0.166-17.333,0.101-26.8c0.1-26.833,0.25-45.25,0.45-55.25c0.033-0.033,0.116-0.133,0.25-0.3
		c0.066-0.067,0.3-0.1,0.699-0.1c0.667,0,0.817,0.017,0.45,0.05l0.45,21.75c0.066,4.333,0.167,6.183,0.3,5.55
		c0.134,0.9,0.283,3.083,0.45,6.55c0.434,3.267,1.417,5.567,2.95,6.9c0.267-0.133,0.783-0.684,1.55-1.65
		c0.167-12.2,0.134-25.167-0.1-38.9c0.466,0,0.883,0.117,1.25,0.35C89.65,8.683,90.917,7.933,92.95,6.5z M100.85,52.25l0.051-5.6
		c0-5.433-0.117-8.15-0.351-8.15v-2.05c-0.3,2.566-0.583,7.35-0.85,14.35c-0.066-0.033-0.533-0.066-1.4-0.1
		c-0.333-0.034-0.783-0.467-1.35-1.3L97,42.8v-4.85c0.6-5.167,1.017-8.75,1.25-10.75c0.333-3.133,0.634-6.583,0.9-10.35
		c0.666,0.267,1.5,0.9,2.5,1.9c1.199,1.167,2.05,2.317,2.55,3.45c-0.167,7.1-0.267,13.9-0.3,20.4
		c-0.167,3.533-0.967,6.983-2.4,10.35L100.85,52.25z M106.9,23.75l-0.4,18.6c-0.1-0.567-0.217-2.15-0.35-4.75
		c-0.167-2.467-0.25-4-0.25-4.6c0-1.7,0.083-3.517,0.25-5.45c0.199-2.3,0.149-3.6-0.15-3.9L106.9,23.75z M106.85,100.6
		c-0.699-0.133-1.433-0.35-2.199-0.65l1.399-11.65c0.033,0.467,0.167,2.917,0.4,7.35C106.583,98.083,106.717,99.733,106.85,100.6z
		 M109.15,100.9l-0.851-0.15l0.2-0.75C108.733,100.2,108.95,100.5,109.15,100.9z M81.5,70.5c0,5.467,0.283,25.117,0.85,58.95
		c0.233-4.9,0.284-12.717,0.15-23.45l0.2-63.05c-0.033,0.867-0.25,4.033-0.65,9.5C81.684,57.217,81.5,63.233,81.5,70.5z
		 M113.25,106.8c0.533,1.034,0.85,1.617,0.95,1.75c0.166,1.9,0.184,6.684,0.05,14.35c-0.066,4.267-0.2,10.45-0.4,18.55
		c-0.433,0.033-0.816-0.2-1.149-0.7c-0.634-0.933-0.917-2.983-0.851-6.15l0.351-3.65c0.267-0.9,0.399-4.067,0.399-9.5
		C112.6,115.217,112.816,110.333,113.25,106.8z M105.85,104.8c-0.133,1.867-0.6,6.684-1.399,14.45c-0.566,5.7-0.851,9.8-0.851,12.3
		c0,1.3,0.101,2.633,0.301,4l-1.45,0.2c-1.334-1.433-2.233-4.167-2.7-8.2c-0.167-1.367-0.384-5.4-0.65-12.1
		c0.034,3.5-0.033,6.767-0.199,9.8c-0.067,1.8-0.217,4.467-0.45,8l-0.15,0.8c-0.267-1.867-0.633-4.4-1.1-7.6
		c-0.167-1.233-0.517-4.083-1.05-8.55l-0.101-1.1c0.066,1.733,0.584,13.534,1.55,35.4c0.167-1.133,0.334-3.267,0.5-6.4
		c0.167-3.667,0.301-6.35,0.4-8.05c0.033,0,0.017-0.067-0.05-0.2c0.066-0.167,0.3-0.25,0.7-0.25c1.633,0,2.517,1.883,2.649,5.65
		c0.101,1.9,0.017,3.883-0.25,5.95c0,0.733,0.184,1.283,0.55,1.65l0.351-0.2c0.166,2.967,0.684,11.25,1.55,24.85
		c0.866,13.3,1.333,20.45,1.4,21.45l0.199,2.2c0.067-1.333,0.101-4.05,0.101-8.15c-0.033-3.967-0.05-6.117-0.05-6.45
		c0-10.8,0.166-17.433,0.5-19.9c0.566-4.467,2.1-7.217,4.6-8.25c0.6,0.667,0.95,1.167,1.05,1.5c0.334,1,0.5,2.9,0.5,5.7
		c0,8.3-0.267,13.35-0.8,15.15c-0.566,1.833-0.85,5.133-0.85,9.9c0,0.533,0.1,1.9,0.3,4.1c0.166,2.3,0.316,3.8,0.45,4.5
		c0.966-2.167,1.666-4.85,2.1-8.05c0.7-5.533,1.05-14.233,1.05-26.1c0-2.4-0.116-4.6-0.35-6.6c-0.267-2.1-0.601-3.434-1-4
		c-0.5,0.333-0.834,0.533-1,0.6c-0.267,0.1-0.634,0.15-1.101,0.15c-0.399,0-0.633-0.034-0.699-0.1c-0.2-0.133-0.334-0.217-0.4-0.25
		c-0.2-2.067-0.35-5.067-0.45-9c0.101,0.033,0.5-0.233,1.2-0.8l0.35,3.1c0.034-0.566,0.101-1.133,0.2-1.7
		c0.2-1.133,0.45-1.717,0.75-1.75c0.9,0.533,1.5,1.816,1.8,3.85c0.167,1.133,0.384,2.784,0.65,4.95c0.033-0.1,0.167-0.833,0.4-2.2
		c0.166-0.833,0.483-1.417,0.949-1.75c0.233,0.567,0.467,1.55,0.7,2.95c0.167,1.167,0.617,4.567,1.351,10.2
		c-0.367,13.9-1.017,24.333-1.95,31.3c-0.533,3.7-1.2,8.483-2,14.35c-0.601-0.366-1.217-0.666-1.851-0.899
		c-0.466-0.167-0.75-0.25-0.85-0.25c-0.733,0-1.45,0.399-2.15,1.2c-0.8,0.899-1.466,1.433-2,1.6v-2.65l-0.149,0.7
		c-0.066,0.601-0.316,1.134-0.75,1.601c-0.367-0.367-1.184-1.4-2.45-3.101c-0.934-1.3-1.8-2.166-2.6-2.6
		c-0.4,0.066-0.75,0.116-1.051,0.149c-0.199-1.1-0.399-2.3-0.6-3.6l-0.3,6.35c-0.7-13.667-2.134-50.5-4.3-110.5l0.25,0.85
		c0.1,0.333,0.3,1.617,0.6,3.85c0.3,2.167,0.483,3.583,0.55,4.25v1.6c0.066-0.066,0.334-0.933,0.8-2.6
		c0.267-0.966,1.25-1.283,2.95-0.95l-0.35,7.35c0,3.566,0.1,7.683,0.3,12.35l0.05,1.55c0.134-0.967,0.267-3.367,0.4-7.2
		c0.166-4.633,0.434-9.2,0.8-13.7c1.5,0.667,2.616,1.383,3.35,2.15C105.4,104.4,105.816,104.8,105.85,104.8z M109.35,105.45
		l-2.399-0.9l0.649-0.2c0.167,0.066,0.483,0.25,0.95,0.55C109.017,105.2,109.283,105.383,109.35,105.45z M59.35,184.4l1.4-29.65
		c0.3,40.067,0.3,69.1,0,87.1c-0.1,5.634-0.366,14.334-0.8,26.101l-0.4-1.55c-0.3,3.166-0.933,8.866-1.9,17.1
		c0.167-9.1,0.25-26.267,0.25-51.5C57.867,217.3,58.35,201.434,59.35,184.4z M62.45,112.35v-4.9c-0.033,1.4-0.3,6.05-0.8,13.95
		l-0.051,1C62.033,117.6,62.316,114.25,62.45,112.35z M41.7,120.3c0.167,2.434,0.083,4.75-0.25,6.95l-0.15-3.6
		C41.3,122.617,41.433,121.5,41.7,120.3z M62.45,103.55l-0.15-1.2L62.45,103.55z M71.75,268.95v4.25l0.6-11.101
		c0.134-1.399,0.317-4.6,0.551-9.6l0.399,11.85l-1.55,8.851L71.5,274.6L71.75,268.95z M107.2,213.05l0.5,0.5l1.1-1.149l0.05,9.6
		c0,0.733-0.083,2.217-0.25,4.45c-0.199,2.6-0.399,4.333-0.6,5.2l-0.3,0.85C107.4,220.533,107.233,214.05,107.2,213.05z
		 M109.45,211.65c0.633-0.567,1.184-0.983,1.649-1.25c-0.233,7.066-0.449,11.116-0.649,12.149L109.45,211.65z M3.3,248l0.1-9.65
		c0,0.467,0.233,12.733,0.7,36.801v1.399L4,274.6l-0.3-5.8C3.5,261.533,3.367,254.6,3.3,248z"/>
	<path style="fill-rule:evenodd;clip-rule:evenodd;fill:#8B8178;" d="M116.2,41.35l-0.25-6.05l0.85,12.4L116.2,41.35z
		 M119.25,105.75c-1.934-0.3-3.3-0.983-4.1-2.05c-0.733-0.967-1.15-2.5-1.25-4.6c0.333-6.767,0.333-13.067,0-18.9l0.949-2.45
		c1.034-0.633,1.617-1.15,1.75-1.55c0.134-0.367,0.5-2.483,1.101-6.35c0.133,2.467,0.416,8.633,0.85,18.5
		C118.983,98.517,119.217,104.317,119.25,105.75z M117.2,226.85c0.066-0.633,0.116-1.583,0.149-2.85v2.8h0.051L117.2,226.85z
		 M99.45,268.15c-0.834,0.033-1.684,0.033-2.55,0H97.3c0-9.434-0.133-24.301-0.399-44.601c-0.434-29.8-1.017-55.716-1.75-77.75
		c-0.4,2.434-0.617,4.75-0.65,6.95l-0.05-5.55c0.066-25.267,0.166-43.233,0.3-53.9l0.4,1.65L94.9,94.1
		c2.166,60,3.6,96.833,4.3,110.5l0.3-6.35c0.2,1.3,0.4,2.5,0.6,3.6c-0.1,0-0.183,0-0.25,0c0.167,0.634,0.351,1.184,0.551,1.65
		c0.233,1.267,0.449,2.384,0.649,3.35c0.101,0.534,0.15,1.434,0.15,2.7c0,2.4,0.083,3.967,0.25,4.7c0.267,1.267,0.434,2.2,0.5,2.8
		c0.467,5,0.7,19.8,0.7,44.4c0,3,0.05,4.733,0.149,5.2l1.3-11.351l0.101,1.2l-0.101,1.3c0,0.667,0.051,1.017,0.15,1.05
		c0.134,2.7,0.35,5.15,0.65,7.351V265l0.05,2.05c-1.634,0.5-2.884,0.816-3.75,0.95l0.7-0.15l-1.301-32.3
		c-0.3,10.267-0.483,21.134-0.55,32.601H99.5v-2.601L99.45,268.15z M94.4,157.2c-0.067,10.7-0.2,23.566-0.4,38.6
		c-0.233,17.566-0.467,29.2-0.7,34.9C92.8,219.6,92.5,212.366,92.4,209c-0.167,8.233-0.334,20.583-0.5,37.05
		c0,0.667,0.066,13.217,0.199,37.65l0.2-0.101c-0.467,0.301-1.066,0.75-1.8,1.351c-0.733,0.6-1.233,1.033-1.5,1.3
		c0.167-1.267,0.6-3.15,1.3-5.65c0.434-1.566,0.65-4.05,0.65-7.449c0-0.667-0.684-14.551-2.05-41.65l-0.351-9.4v1.301
		c-0.2,2.166-0.35,5.883-0.45,11.149c-0.199,8.434-0.517,29.7-0.949,63.8l-0.101,2c-0.6,5.934-1.033,9.25-1.3,9.95
		c-0.134,0.4-0.366,0.684-0.7,0.851c-0.7,0.366-1.149,0.616-1.35,0.75l0.45-13.301c0-2.399-0.084-4.933-0.25-7.6
		c-0.067,1.8-0.284,3.116-0.65,3.95c0.2-4.733,0.134-12.601-0.2-23.601c-0.366-11.466-0.833-19.483-1.399-24.05
		c-0.301-39.467-0.5-63.483-0.601-72.05l-0.25,2.2c-0.533,12-0.8,20.25-0.8,24.75c0,4.333-0.2,10.934-0.6,19.8l-0.5-5.7L78.55,203.4
		c0.134-1.267,0.3-4.083,0.5-8.45c0.2-3.967,0.3-6.3,0.3-7v-32.3c-0.1-15.467-0.399-26-0.899-31.6
		c-0.634,0.034-1.167,0.317-1.601,0.85c-0.199-0.6-0.3-2.9-0.3-6.9c0-1.4,0.55-3.567,1.65-6.5c1.1-2.9,1.649-4.667,1.649-5.3
		c0-0.4-0.083-0.75-0.25-1.05l-0.8-1.35c1.7-0.7,2.667,0.233,2.9,2.8c0.133,1.733,0.149,6.05,0.05,12.95
		c0.1,26.967,0.384,47.333,0.85,61.1c0.801,22.767,1.334,40.5,1.601,53.2c0.333-1.633,0.5-3.133,0.5-4.5
		c-0.167-40.3-0.184-67.516-0.05-81.649c0.233-22.9,1.183-35.017,2.85-36.35c0.767,0.367,1.283,0.717,1.55,1.05
		c0.434,0,0.934-0.483,1.5-1.45c0.9-1.567,1.351-3.934,1.351-7.1c-0.233-2.9-0.667-4.783-1.301-5.65c0.367,0.033,0.75,0.033,1.15,0
		c0.3-0.067,0.467-0.133,0.5-0.2c1.066,33.3,1.75,53.483,2.05,60.55L94.4,157.2z M112,235.8l0.2-3.35l0.2-1.5L112,235.8z
		 M79.25,227.9l-0.45,82.3c-0.066,0.399-0.3,0.717-0.7,0.95c-0.333,0.733-0.433,2.616-0.3,5.649c-0.267,1.533-0.5,3.351-0.7,5.45
		c-0.199,1.767-0.3,2.967-0.3,3.6l0.3,7.15c-0.466,0.8-0.716,1.233-0.75,1.3c-0.333,0.4-0.949,1-1.85,1.8
		c-0.066-3.166-0.517-8.883-1.35-17.149c-1.034-9.934-2.084-17.417-3.15-22.45c0-3.033,0.15-6.8,0.45-11.3l0.45-5.851l0.6-4.75
		l0.25-1.399l1.55-8.851l0.4-2.6c0.566,3.434,1.2,9.116,1.899,17.05c0.2,2.566,0.967,12.417,2.301,29.55
		c0.267-3.8,0.483-8.3,0.649-13.5c0.101-3.767,0.15-6.283,0.15-7.55c0-24.833-0.25-41.883-0.75-51.149
		c-0.834-9.233-1.566-17.551-2.2-24.95l-0.05-18.9c0.133,1.6,0.149,6.483,0.05,14.65c0.366-1.233,0.467-5.233,0.3-12l1.601,11.95
		c0.3-0.2,0.517-0.817,0.649-1.851L78.9,216.3L79.25,227.9z M55.3,371.05l-0.05-2.75l1.65,4.15L55.3,371.05z M43.7,382.9
		c0,1.433,0.216,3.699,0.65,6.8c0.566,4.267,0.95,7.366,1.15,9.3c-1.033-0.233-1.8-0.517-2.3-0.85L43.7,382.9z M38.35,367.9
		c0.367-3.067,0.85-11.601,1.45-25.601c0.6-14.434,0.917-22.066,0.95-22.899l-0.1,44.449c0,2.267-0.3,5.034-0.9,8.301
		C39.25,371.417,39,370.8,39,370.3C39,369.667,38.783,368.866,38.35,367.9z M36.45,365.6c0.533-5.033,0.867-11.267,1-18.699
		c0.133-6.567,0.5-11.884,1.1-15.95c-0.133,4.833-0.233,11.633-0.3,20.399c-0.033,1.233-0.117,3.217-0.25,5.95
		c-0.033,0.7-0.35,2.283-0.95,4.75c-0.364,2.218-0.122,3.843,0.725,4.875C37.384,366.468,36.942,366.026,36.45,365.6z M12.75,311.6
		V252.4l-2.2,58.449c-2.4-1.233-3.6-3.767-3.6-7.6c0.033-6.866-0.233-11.6-0.8-14.2l0.15,0.45c0.633-0.934,1.034-1.75,1.2-2.45
		c0.233-0.967,0.35-4,0.35-9.1L7.15,250c-0.967-25.833-1.667-38.75-2.1-38.75c-0.4-9.634-0.7-17.817-0.9-24.55
		c0.3,5.4,0.55,9.417,0.75,12.05C5,178.983,5.05,151.067,5.05,115c0.133,1.3,0.317,4.85,0.55,10.65c0.3,5.5,0.633,8.85,1,10.05
		c0.4-3.434,0.683-7.817,0.85-13.15c0.133-5.9,0.7-13.6,1.7-23.1C9.817,92.883,11.433,87.733,14,84
		c0.633-0.933,1.533-2.017,2.7-3.25c0.9-0.967,1.417-1.667,1.55-2.1c0.4,0.8,1.033,5.8,1.9,15c1.133,12.567,1.767,19.4,1.9,20.5
		l-1.7,15c0.333,2.8,0.333,7.55,0,14.25c-0.4,7.9-1.15,14.3-2.25,19.2c2.433-4.1,4.433-13.684,6-28.75
		c1.2-11.467,1.733-19.667,1.6-24.6c0.6,10.7,1.8,23.4,3.6,38.1c1.6,13.6,2.517,24.7,2.75,33.3c-0.466,9.133-0.7,14.95-0.7,17.45
		c0,1.667,0.183,4.933,0.55,9.8c0.367,4.833,0.55,8.566,0.55,11.199c0,2.767-0.284,7.384-0.85,13.851
		c-0.567,6.467-0.85,12.717-0.85,18.75c0,14.8-0.017,23.583-0.05,26.35c-0.133,14.167-0.467,21.25-1,21.25
		c-0.034,0-0.083-0.217-0.15-0.649c-0.033,0.433-0.117,3.366-0.25,8.8V317l0.1,0.1c-0.833-0.733-1.55-1.3-2.15-1.699
		c-1.1-0.667-2.517-1-4.25-1c-1.167,0-2.367,0.133-3.6,0.399c-1.533,0.334-2.566,0.783-3.1,1.351c-0.566-1.134-1.033-2.034-1.4-2.7
		C14.333,312.583,13.617,311.967,12.75,311.6z M40.9,311.4l0.1-3.75l0.55-4.75L40.9,311.4z M1.75,200.3L3.3,248
		c0.067,6.6,0.2,13.533,0.4,20.8c0.2,9.733,0.367,14.917,0.5,15.55L4,274.6l0.1,1.95v-1.399c0.133,6.433,0.3,10.1,0.5,11l0.2,0.6
		c-1.667-1.667-2.783-3.134-3.35-4.4C0.483,280.15,0,277,0,272.9c0-2.034,0.35-8.351,1.05-18.95
		C1.683,244.083,1.917,226.2,1.75,200.3z M19.55,63c0.133,0.467,0.317,1.017,0.55,1.65c0.133,0.5,0.2,0.95,0.2,1.35
		c0,2.3-0.933,4.117-2.8,5.45c-0.233,0.167-2.25,1.2-6.05,3.1c-2.7,1.333-4.633,2.9-5.8,4.7c-1.5,2.3-2.167,5.35-2,9.15L3.6,90.1
		l-0.5,4.2l-0.45,2.1v-4.35l0.25,2.9L3.1,94c0.3-7.367,0.633-13.35,1-17.95c0.7-8.667,1.816-13,3.35-13c0.2,0,2.017,0.5,5.45,1.5
		C16.333,64.55,18.55,64.033,19.55,63z M8,28.15l1.3,30c0,0.367-0.267,0.667-0.8,0.9c-0.767,0.3-1.3,0.617-1.6,0.95
		c-0.4-0.6-0.767-2.333-1.1-5.2c-0.267-2.267-0.4-3.9-0.4-4.9c-0.233,2.5-0.433,4.184-0.6,5.05c-0.133,0.733-0.333,1.25-0.6,1.55
		c-0.667-0.9-1.15-2.717-1.45-5.45c0.233-7.466,0.667-13.65,1.3-18.55l0.85-1.4c0.633-1,1.2-1.7,1.7-2.1l1.1,9.5L7.6,28.35L8,28.15z
		 M31.1,0.2c-0.033,1.2,0.017,6.367,0.15,15.5c0,0.466,0.017,0.95,0.05,1.45L31.1,0.2z M21.75,1.1c0,2.9-0.067,6.283-0.2,10.15
		c-1.233,9.4-2.283,20.7-3.15,33.9c-0.467,7.033-1.316,11.167-2.55,12.4c-0.667-0.033-1.6-0.033-2.8,0
		c-1.233,0.034-1.85,0.067-1.85,0.1c0.566-2.9,1.066-6.383,1.5-10.45c0.867-8.034,1.117-16.017,0.75-23.95
		c0.233-1.467,0.25-2.65,0.05-3.55l0.05-13.95l0.2-0.25c0.367,3.767,0.95,7.833,1.75,12.2c0.1-3.233,0.217-7.917,0.35-14.05
		c0.733-0.4,1.816-0.9,3.25-1.5C20.367,1.617,21.25,1.267,21.75,1.1z M41.75,120.2l-0.1-1.25l0.05,1.35
		c-0.267,1.2-0.4,2.317-0.4,3.35l0.15,3.6c-0.333,1.5-0.65,2.667-0.95,3.5c-0.133,0.467-0.3,0.917-0.5,1.35
		c-0.467,0.533-1.017,0.8-1.65,0.8c-2.934,0-4.684-4.733-5.25-14.2l-0.05,1.65c0.434,4.033,0.95,7.083,1.55,9.15
		c0.3,1.033,0.45,3.85,0.45,8.45c0,4.5-0.083,7.633-0.25,9.4l-0.05-14.6c-0.067,2.967-0.333,8.933-0.8,17.9
		c-0.534,9.733-1.1,18.633-1.7,26.7c-0.1-4.067-0.85-23.667-2.25-58.8c-1.033-26.333-1.55-49.5-1.55-69.5
		c0-10.1,0.2-19.133,0.6-27.1C29.583,11.317,29.9,4.033,30,0.1l1.1,0.1c0.1,0.033,1.267,0.316,3.5,0.85c1.433,0.333,2.433,0.8,3,1.4
		c-0.267,0-0.717-0.15-1.35-0.45c-0.667-0.3-1.133-0.583-1.4-0.85c0.767,3.033,2.316,9,4.65,17.9c1.4,5.267,2.25,8.784,2.55,10.55
		l0.1-0.9c0.1-3.833,0.133-9.1,0.1-15.8l0.45,13.75c-0.034,0.5-0.067,1.017-0.1,1.55c-0.667,11.066-1,20.55-1,28.45
		c0,4.167,0.233,11.333,0.7,21.5c0.467,10.2,0.7,18.5,0.7,24.9c0,8.867-0.05,13.9-0.15,15.1
		C42.783,118.783,42.417,119.467,41.75,120.2z M57.55,9.75c0.733,5.133,1.566,16.717,2.5,34.75c1.233,16.6,3.267,27.25,6.101,31.95
		L66,75.35c-0.4-4.8-0.667-7.95-0.8-9.45c0.467-1.833,1.083-3.333,1.85-4.5c0.967-1.467,2.033-2.2,3.2-2.2c0.5,0,1.2,0.55,2.1,1.65
		C71.65,73.417,71.417,81.733,71.65,85.8c0.433,7.167,0.649,11.367,0.649,12.6c0,0.434-0.416,1.684-1.25,3.75
		c-0.899,2.167-1.533,3.35-1.899,3.55c-0.301-0.3-0.75-1-1.351-2.1c-0.6-1.033-1.05-1.684-1.35-1.95c-0.7-0.566-1.2-1.5-1.5-2.8
		c-0.4-1.667-0.717-2.7-0.95-3.1c-0.066,0.033-0.167-0.017-0.3-0.15c-0.029-0.029-0.046-0.021-0.05,0.025l0.199-4.875
		c-0.633,4.5-1.149,8.367-1.55,11.6c-0.533,4.467-0.833,7.733-0.899,9.8c-0.134,3-0.317,11.133-0.551,24.4
		c-0.199,2.7-0.517,9.7-0.949,21c-0.534,14.034-0.717,22.983-0.551,26.85c-1,17.034-1.483,32.9-1.45,47.6
		c0,25.233-0.083,42.4-0.25,51.5c0.967-8.233,1.6-13.934,1.9-17.1l0.4,1.55c0.434-11.767,0.7-20.467,0.8-26.101
		c0.066,1.434,0.184,10.051,0.35,25.851c0.134,10.3,0.801,19.283,2,26.95l0.15-1.051c0-1.666,0.267-6.483,0.8-14.449
		c0.533-7.733,0.8-15.051,0.8-21.95c0-3.767-0.199-7.084-0.6-9.95c-0.4-2.833-0.6-6.3-0.6-10.4l0.1-11.149
		c0-2.033,0.083-3.55,0.25-4.55c0.566-2.101,0.967-3.601,1.2-4.5c0.366-1.534,0.55-3.184,0.55-4.95c0-3.3-0.3-6.8-0.9-10.5
		c-0.5-3.233-0.649-8.167-0.449-14.8c0.166-6,0.116-14.183-0.15-24.55c-0.3-9.267-0.45-14.067-0.45-14.4
		c0-1.934,0.417-4.55,1.25-7.85c0.867-3.367,1.3-5.467,1.3-6.3c0.067-2.833,0.217-6.45,0.45-10.85c0.066-0.867,1.033-2.784,2.9-5.75
		c1.733-2.767,2.6-5.883,2.6-9.35c0-0.4-0.05-0.883-0.149-1.45l-0.2-0.7c-0.5,1.333-1.033,2.033-1.601,2.1l2.051-4.45v2.75
		c-0.233,8.066-0.65,17.267-1.25,27.6c-0.534,8.7-0.801,14.633-0.801,17.8c0,12.833-0.066,29.467-0.199,49.9
		c0,15.066-0.5,30.899-1.5,47.5c-1,16.6-1.5,33.716-1.5,51.35c0,0.667,0.316,3.884,0.949,9.65c0,0.933-0.066,2.533-0.199,4.8
		c-0.134,2.866-0.301,4.8-0.5,5.8l-0.101-0.15c-0.133-0.366-0.217-0.666-0.25-0.899c0,1.1,0.066,3.717,0.2,7.85
		c0.1,3.967-0.05,6.767-0.45,8.4c-1.7,0.133-3.033-0.767-4-2.7c0.134-3.7,0.117-9.384-0.05-17.05c0,8.6-0.033,13.583-0.1,14.95
		c0,0.666,0.05,1.366,0.149,2.1c-0.166,3.366-1.416,14.017-3.75,31.95h-3.8V328.85c-0.367,4.9-0.633,8.917-0.8,12.051
		c-0.133,1.466-0.85,4.75-2.15,9.85c0.633-6.833,1.067-12.55,1.3-17.15c0.267-5.966,0.4-13.767,0.4-23.399
		c0-4.3-0.017-6.667-0.05-7.101c-0.034-0.733-0.233-1.1-0.6-1.1c0.3,0,0.7-10.083,1.2-30.25c0.467-17.833,0.75-31.517,0.85-41.05
		l0.75-77.5l-0.2-45.6c-0.733,39.9-1.467,63.1-2.2,69.6c-0.033,0.333-0.333,1.883-0.9,4.65c0.833-10.833,1.433-22.1,1.8-33.8
		c0.267-2.066,0.417-3.867,0.45-5.4c-0.033-3.7-0.067-8.2-0.1-13.5l0.15-23.9c0.467-28.667,0.934-50.65,1.4-65.95l-5.15,70.95
		c0.233,1.367,0.383,5.15,0.45,11.35c0.066,6.233,0.117,22.55,0.15,48.95l-0.2-7.65c-0.033,5.567-1.133,10.684-3.3,15.35
		c0.033-0.233,0.083-0.467,0.15-0.7c0.367-1.6,0.6-4.466,0.7-8.6c0.167-7.267,0.3-11.95,0.4-14.05c-2.667,15.333-4,23.333-4,24
		c0,0.667,0.133,1.35,0.4,2.05H43.9c-0.767-0.067-2.9-0.383-6.4-0.95l-1.45-2.8l-0.45-1.4l-0.25,9.3c-0.2-13.367-0.267-23-0.2-28.9
		l0.1-4.85c0.2-1.1,0.55-2.483,1.05-4.15c0.067-0.167,0.684-1.217,1.85-3.15c1.167-1.966,1.833-3.183,2-3.65
		c1.267-3.5,1.917-5.85,1.95-7.05c-0.167-1.167-0.167-2.567,0-4.2c0.533-2.367,1.3-4.533,2.3-6.5c0.5-1,0.75-3.3,0.75-6.9
		c-0.3-19.833-0.633-35.083-1-45.75c-0.167,21.4-0.267,34.6-0.3,39.6c-0.067,5.5-0.167,8.833-0.3,10
		c0.034-15.467,0.017-28.9-0.05-40.3c-0.067-8.4-0.1-12.767-0.1-13.1c0-7.9,0.15-13.284,0.45-16.15c0.4-3.9,0.717-11.683,0.95-23.35
		c0.567,11.233,1.633,27.083,3.2,47.55c1.167,14.867,1.867,25.117,2.1,30.75c-0.233-26.667-0.033-44.717,0.6-54.15
		c0.733-10.767,1.1-17.417,1.1-19.95L51,11.45c0.4-0.1,1.433-0.284,3.1-0.55C55.7,10.567,56.85,10.183,57.55,9.75z M42.65,7.1
		l1,0.15c-0.033,2.367-0.35,8.833-0.95,19.4L42.65,7.1z M62.65,15.7l-0.2-6.9H62.6L62.65,15.7z M69.15,15.15
		c0.033,0.4,0.733,8.517,2.1,24.35l-0.1-27.3l0.35,7.2c0.134-2,0.366-4.25,0.7-6.75c0.333-2.1,0.5-3.233,0.5-3.4
		c1.267,0,2.35-0.233,3.25-0.7c0.853-0.492,1.286-1.034,1.3-1.625V16.6c0.066-1.867,0.483-3.583,1.25-5.15
		c0.7-1.4,1.5-2.367,2.4-2.9c-0.2,10-0.351,28.417-0.45,55.25c-0.267,9.467-0.3,18.4-0.101,26.8c-0.033,2.233-0.233,3.7-0.6,4.4
		s-1.116,1.05-2.25,1.05c-0.333,0-0.833-0.066-1.5-0.2c-0.566-0.133-0.9-0.184-1-0.15c-0.1-10.4-0.05-18.067,0.15-23
		c0.366-8.767,1.433-13.15,3.199-13.15c0.601,0,1.067,0.217,1.4,0.65c0.134-0.4,0.267-1.133,0.4-2.2
		c0.1-0.967,0.149-1.733,0.149-2.3c0-0.767-0.3-1.284-0.899-1.55c-0.167-0.066-0.684-0.15-1.551-0.25l1.7-1.2
		c-1.033,0.7-1.95,0.816-2.75,0.35c-0.1-0.066-0.767-0.716-2-1.95c0.245,0.236,0.745,0.436,1.5,0.6l0.05-6.4
		c0-2.333-0.449-7.75-1.35-16.25s-1.616-14.117-2.15-16.85c-0.1,2.1-0.199,5.633-0.3,10.6c-0.133,4.534-0.2,7.133-0.2,7.8
		c0.367,11.267,0.584,17,0.65,17.2c-0.1,1.1-0.5,2.15-1.2,3.15c-0.6,0.9-1.133,1.35-1.6,1.35c-0.334,0-0.733-0.4-1.2-1.2
		c-0.6-1.033-1.634-1.883-3.1-2.55L65.35,48.7c0.667-5.567,1-8.684,1-9.35c-0.399-3.3-0.816-6.95-1.25-10.95
		c-0.866-7.967-1.333-14.467-1.399-19.5l4.7,0.4C68.733,12.267,68.983,14.217,69.15,15.15z M92.95,6.5L92.35,6.3l0.801,0.25
		L92.95,6.5z M95.8,14.95l-0.05-0.4l0.1,0.7L95.8,14.95z M87.9,8.4c0.233,13.733,0.267,26.7,0.1,38.9
		c-0.767,0.967-1.283,1.517-1.55,1.65c-1.533-1.333-2.517-3.633-2.95-6.9c-0.167-3.466-0.316-5.65-0.45-6.55
		c-0.133,0.633-0.233-1.217-0.3-5.55c0.233,2.533,0.616,4.5,1.15,5.9C84.1,17.783,84.2,8.633,84.2,8.4l2.05-0.2
		C86.917,8.2,87.467,8.267,87.9,8.4z M89.35,41.45L89.2,35.1l0.25,4.95L89.35,41.45z M87.5,53.6l0.5-6.3l-0.1,2.95l0.75-4.4
		L87.5,53.6z M87.9,81.2l0.35,3.95l0.3-1.5c0-3.467-0.033-5.45-0.1-5.95c1.267-0.867,2.05-2.667,2.35-5.4
		c0.2-4.333,0.4-8.267,0.601-11.8c0.267,1.233,0.5,3.15,0.699,5.75c0.167,2.033,0.25,3.5,0.25,4.4c0,1.6,0.101,6.067,0.301,13.4
		c-0.2,6.867-1.217,11.133-3.051,12.8l-0.1-0.2c-1.866,0.467-3.05,0.733-3.55,0.8c-1.767-0.2-2.733-2.117-2.9-5.75
		c0.167-4.567,0.267-7.817,0.3-9.75c0.067-2.7,0.067-6.317,0-10.85c-0.1-5.434-0.166-9.667-0.199-12.7
		c0.866,2.567,1.883,4.267,3.05,5.1c0.6,0.467,0.899,2.15,0.899,5.05c0,3.934,0.217,10.417,0.65,19.45l0.1-6.15l0.051,1.2V81.2z
		 M97,42.8l-0.05,6.6c-0.066-0.433-0.101-0.983-0.101-1.65L97,42.8z M64.75,59.15v0.7l-0.1,0.35L64.75,59.15z M4.3,88.6
		c-0.2,12.467-0.517,25.75-0.95,39.85L2.8,137.3v-5.55v-1.9c0.467-15.233,0.767-28,0.9-38.3L4.3,88.6z M23,55.2
		c0.5,9.1,1.083,20.716,1.75,34.85c0,0.4-0.617,5.967-1.85,16.7L23,55.2z M3.45,93l-0.8,14.75c0-4,0.083-7.433,0.25-10.3l0.2-3.15
		L3.45,93z M47.25,180.65c-1.633,3.033-2.983,4.55-4.05,4.55c-0.3,0-0.8-0.2-1.5-0.6c-0.934-0.533-1.684-1.233-2.25-2.1
		c3,0.167,5.167-0.1,6.5-0.8C46.45,181.433,46.883,181.083,47.25,180.65z M37.55,190.65l-0.55,1.7l-0.15-1.7H37.55z M35.6,196.05
		c-0.167-4.733-0.25-8.383-0.25-10.95l0.3,4.45l0.15-3.05L35.6,196.05z M17.4,165.65c-1,4.267-1.967,12.033-2.9,23.3
		c-1.033,12.633-1.55,24.483-1.55,35.55c0,0.333,0.133,12.95,0.4,37.85c0.267,26.167,0.383,42.7,0.35,49.601
		c0.8-24.5,1.517-51.75,2.15-81.75C16.45,200.333,16.967,178.817,17.4,165.65z M50.8,242.2l0.05,55.2l0.2,0.199
		c-0.3,4.134-0.9,11.867-1.8,23.2c-0.733,9.8-0.95,16.084-0.65,18.851c0.367,3.566,0.417,8.449,0.15,14.649
		c-0.3,6.667-0.85,10.634-1.65,11.9c-0.233-7.5-0.383-13.45-0.45-17.851c-0.9,7.934-1.583,13.184-2.05,15.75
		c-0.333,1.767-1,5.2-2,10.301h-0.1c0.267-7.867,0.6-15.15,1-21.851c0.2-3.7,0.3-7.533,0.3-11.5l-0.1-23.95l-1.15,6.25
		c-0.033-3.433-0.216-10.583-0.55-21.449l0.25,1.149l0.1-0.05c0.467-2.866,0.833-8.717,1.1-17.55c0.233-6.9,0.35-13.084,0.35-18.55
		c0-3-0.35-7.967-1.05-14.9s-1.05-13.083-1.05-18.45c0-5.7,0.483-9.934,1.45-12.7c0.934-2.733,1.4-4.6,1.4-5.6
		c-0.133-9.167,0.467-14.783,1.8-16.85c0.4-0.6,1.033-1.383,1.9-2.35c0.767-1.133,1.367-2.85,1.8-5.15
		c-0.167,15.433-0.267,23.267-0.3,23.5c-0.167,1.433-0.567,2.633-1.2,3.6c-1.033,1.333-2,2.583-2.9,3.75
		c2.833,1.9,4.533,5.616,5.1,11.15C51.017,235.733,51.033,238.833,50.8,242.2z M72.35,262.1l-0.6,11.101v-4.25L72.35,262.1z
		 M112.2,130.95l-0.351,3.65l0.2-2.65L112.2,130.95z M119.45,179.2v0.1l-0.101,0.6L119.45,179.2z M70,296.75
		c0.767,7.467,1.15,19.684,1.15,36.65C70.583,323.8,70.2,311.583,70,296.75z"/>
	<path style="fill-rule:evenodd;clip-rule:evenodd;fill:#A1978B;" d="M117.4,226.8c0.966-12.233,1.666-21.366,2.1-27.4l0.05-1.9
		c0.033,13.6,0.117,21.9,0.25,24.9c0,1.866-0.25,3.033-0.75,3.5C118.384,226.2,117.833,226.5,117.4,226.8z M100.05,268.15
		c0.066-11.467,0.25-22.334,0.55-32.601l1.301,32.3l-0.7,0.15L100.05,268.15z M93.65,282.7c-0.067-27.367-0.184-44.7-0.351-52
		c0.233-5.7,0.467-17.334,0.7-34.9c0.2-15.033,0.333-27.9,0.4-38.6c0.066-0.534,0.1-2.017,0.1-4.45c0.033-2.2,0.25-4.517,0.65-6.95
		c0.733,22.034,1.316,47.95,1.75,77.75c0.267,20.3,0.399,35.167,0.399,44.601H96.9l-0.4-0.051c-0.066,1.867-0.066,4.5,0,7.9
		C96.267,278.767,95.316,281,93.65,282.7z M87.15,298.35c0.433-34.1,0.75-55.366,0.949-63.8c0.101-5.267,0.25-8.983,0.45-11.149
		V222.1l0.351,9.4c1.366,27.1,2.05,40.983,2.05,41.65c0,3.399-0.217,5.883-0.65,7.449c-0.7,2.5-1.133,4.384-1.3,5.65
		c-0.934,2.866-1.517,5.967-1.75,9.3C87.217,296.517,87.184,297.45,87.15,298.35z M71.15,333.4c0-16.967-0.384-29.184-1.15-36.65
		l-0.05-0.55l0.05,0.3c1.066,5.033,2.116,12.517,3.15,22.45c0.833,8.267,1.283,13.983,1.35,17.149
		c-0.9,0.567-1.816,1.101-2.75,1.601C71.55,335.7,71.35,334.267,71.15,333.4z M42.6,374.4c1-5.101,1.667-8.534,2-10.301
		c0.467-2.566,1.15-7.816,2.05-15.75c0.067,4.4,0.217,10.351,0.45,17.851c0.8-1.267,1.35-5.233,1.65-11.9
		c0.267-6.2,0.217-11.083-0.15-14.649c-0.3-2.767-0.083-9.051,0.65-18.851c0.9-11.333,1.5-19.066,1.8-23.2l-0.2-0.199l-0.05-55.2
		c0.467,5.8,0.767,10.6,0.9,14.399l-0.15-15.8c0.233-24,0.35-40.066,0.35-48.2c0.267-5.3,0.583-8.867,0.95-10.7v-0.05
		c0.566-2.767,0.867-4.317,0.9-4.65c0.733-6.5,1.467-29.7,2.2-69.6l0.2,45.6l-0.75,77.5c-0.1,9.533-0.383,23.217-0.85,41.05
		c-0.5,20.167-0.9,30.25-1.2,30.25c0.367,0,0.566,0.366,0.6,1.1C53.983,303.533,54,305.9,54,310.2c0,9.633-0.133,17.434-0.4,23.399
		c-0.233,4.601-0.667,10.317-1.3,17.15c-0.167,1.233-0.417,3.816-0.75,7.75c-0.233,3.233-0.55,5.7-0.95,7.4
		C49.467,371.033,46.8,373.866,42.6,374.4z M55.25,371.05v-2.75l0.05,2.75H55.25z M2.8,137.3l0.55-8.85
		c0.433-14.1,0.75-27.383,0.95-39.85c0-2.733,1.367-5.067,4.1-7c2.7-1.967,5.983-2.95,9.85-2.95c-0.133,0.434-0.65,1.133-1.55,2.1
		c-1.167,1.233-2.067,2.317-2.7,3.25c-2.567,3.733-4.183,8.883-4.85,15.45c-1,9.5-1.566,17.2-1.7,23.1
		C7.283,127.883,7,132.267,6.6,135.7c-0.367-1.2-0.7-4.55-1-10.05c-0.233-5.8-0.417-9.35-0.55-10.65
		c0,36.067-0.05,63.983-0.15,83.75c-0.2-2.633-0.45-6.65-0.75-12.05c0.2,6.733,0.5,14.916,0.9,24.55c0.434,0,1.133,12.917,2.1,38.75
		l0.7,27.95c0,5.1-0.117,8.133-0.35,9.1c-0.167,0.7-0.567,1.517-1.2,2.45l-0.15-0.45c-0.433-0.866-0.867-1.6-1.3-2.2l-0.35-5
		l0.1,4.301c-0.2-0.9-0.367-4.567-0.5-11c-0.467-24.067-0.7-36.334-0.7-36.801L3.3,248l-1.55-47.7v-35.75
		c0.267,3.233,0.433,5.95,0.5,8.15C2.55,161.4,2.733,149.6,2.8,137.3z M40.9,311.4l0.65-8.5L41,307.65
		c-0.733-13.233-1.5-26.384-2.3-39.45c-0.6-9.434-0.917-14.717-0.95-15.851c0.1-9.533,0.117-15.783,0.05-18.75l0.15-8.85
		c-0.367-18.167-0.684-28.967-0.95-32.4l0.55-1.7c1.833,0.167,3.367-0.117,4.6-0.85c1.5-0.9,2.333-1.367,2.5-1.4
		c0.833,0.767,1.35,1.533,1.55,2.3c0.433-0.367,0.833-1.067,1.2-2.1c0.533-1.434,1.367-2.983,2.5-4.65l0.55-1.3l-0.4,8.25
		c-0.433,2.3-1.033,4.017-1.8,5.15c-0.867,0.967-1.5,1.75-1.9,2.35c-1.333,2.067-1.934,7.683-1.8,16.85c0,1-0.466,2.866-1.4,5.6
		c-0.967,2.767-1.45,7-1.45,12.7c0,5.367,0.35,11.517,1.05,18.45s1.05,11.9,1.05,14.9c0,5.466-0.117,11.649-0.35,18.55
		c-0.267,8.833-0.633,14.684-1.1,17.55l-0.1,0.05L42,301.9c0.333,10.866,0.517,18.017,0.55,21.449l1.15-6.25l0.1,23.95
		c0,3.967-0.1,7.8-0.3,11.5c-0.4,6.7-0.733,13.983-1,21.851l-1.7,0.149c-0.233-0.833-0.583-1.633-1.05-2.399
		c0.6-3.267,0.9-6.034,0.9-8.301l0.1-44.449L40.9,311.4z M42.7,376.45c0.566,0.166,1.883,0.383,3.95,0.649
		c1.033,0.167,1.7,0.551,2,1.15c0.567,1.033,0.85,6.2,0.85,15.5c0,1.8-0.333,2.9-1,3.3c-1.867,1.167-2.867,1.816-3,1.95
		c-0.2-1.934-0.583-5.033-1.15-9.3c-0.434-3.101-0.65-5.367-0.65-6.8l0.05-2.051c0-0.3-0.1-0.949-0.3-1.949
		C43.183,377.767,42.933,376.95,42.7,376.45z M32.25,177.35l-0.2,3.3c-0.233-8.6-1.15-19.7-2.75-33.3c-1.8-14.7-3-27.4-3.6-38.1
		c0.133,4.933-0.4,13.133-1.6,24.6c-1.567,15.066-3.567,24.65-6,28.75c1.1-4.9,1.85-11.3,2.25-19.2c0.333-6.7,0.333-11.45,0-14.25
		l1.7-15c0.2,0.967,0.3,4.633,0.3,11c0.233-2.867,0.417-9,0.55-18.4c1.233-10.733,1.85-16.3,1.85-16.7
		C24.083,75.917,23.5,64.3,23,55.2c0.033-10.833,0.133-22.034,0.3-33.6c0.167-10.667,0.267-17.65,0.3-20.95L30,0v0.1
		c-0.1,3.933-0.417,11.217-0.95,21.85c-0.4,7.966-0.6,17-0.6,27.1c0,20,0.517,43.167,1.55,69.5
		C31.4,153.683,32.15,173.283,32.25,177.35z M8,28.15c1.7-0.566,3.033-1.383,4-2.45c0.733-0.767,1.217-1.583,1.45-2.45
		c0.367,7.933,0.117,15.917-0.75,23.95c-0.434,4.066-0.934,7.55-1.5,10.45c0-0.033,0.617-0.066,1.85-0.1
		c1.2-0.033,2.133-0.033,2.8,0c-0.567,0.2-1.317,0.3-2.25,0.3c-1.1,0-1.8,0.033-2.1,0.1c-0.033,0-0.55,0.4-1.55,1.2
		c-0.9,0.7-1.917,0.983-3.05,0.85c0.3-0.333,0.833-0.65,1.6-0.95c0.533-0.233,0.8-0.533,0.8-0.9L8,28.15z M19.55,63
		c-1,1.033-3.216,1.55-6.65,1.55c-3.433-1-5.25-1.5-5.45-1.5c-1.534,0-2.65,4.333-3.35,13c-0.367,4.6-0.7,10.583-1,17.95l-0.2,0.95
		l-0.25-2.9v-19.8c0.233-4.3,0.383-6.633,0.45-7c0.4-2.033,1.3-3.05,2.7-3.05c0.167,0,0.967,0.066,2.4,0.2
		c1.066,0.1,1.85,0.083,2.35-0.05c0.2-0.067,0.85-0.45,1.95-1.15c1.133-0.733,1.817-1.133,2.05-1.2c0.767-0.233,1.45-0.35,2.05-0.35
		c0.167,0,0.566,0.283,1.2,0.85C18.567,61.267,19.15,62.1,19.55,63z M74.5,89.65c0-5.733-0.033-11.483-0.1-17.25
		C74.3,60.9,74.184,55.15,74.05,55.15l1.101,0.25c0.333-0.133,1.233-0.633,2.699-1.5c0.867,0.1,1.384,0.184,1.551,0.25
		C80,54.417,80.3,54.933,80.3,55.7c0,0.566-0.05,1.333-0.149,2.3c-0.134,1.067-0.267,1.8-0.4,2.2c-0.333-0.434-0.8-0.65-1.4-0.65
		c-1.767,0-2.833,4.383-3.199,13.15c-0.2,4.933-0.25,12.6-0.15,23l-0.4,0.4v-9.6L74.5,89.65z M64.75,59.85
		c1.066-2.267,2.116-3.667,3.15-4.2c0.533-0.3,2.116-0.617,4.75-0.95l-0.301,6.15c-0.899-1.1-1.6-1.65-2.1-1.65
		c-1.167,0-2.233,0.733-3.2,2.2c-0.767,1.167-1.383,2.667-1.85,4.5L64.75,59.85z M13.5,19.7c-0.367-3.534-0.35-8.184,0.05-13.95
		L13.5,19.7z M15.85,3.65C15.717,9.783,15.6,14.467,15.5,17.7c-0.8-4.367-1.383-8.434-1.75-12.2L15.85,3.65z M62.35,8.8
		c-1.8,0.2-3.399,0.517-4.8,0.95c-0.7,0.433-1.85,0.817-3.45,1.15c-1.667,0.267-2.7,0.45-3.1,0.55l0.8,19.45
		c0,2.533-0.367,9.184-1.1,19.95c-0.633,9.433-0.833,27.483-0.6,54.15c-0.233-5.633-0.934-15.883-2.1-30.75
		c-1.567-20.467-2.633-36.317-3.2-47.55l0.3-19.3c7.033-0.133,11.583-0.017,13.65,0.35C59.95,7.95,61.15,8.3,62.35,8.8z M72.7,9.25
		c0,0.167-0.167,1.3-0.5,3.4c-0.334,2.5-0.566,4.75-0.7,6.75l-0.35-7.2L71.1,9.3L72.7,9.25z M80.9,8.55c-0.9,0.534-1.7,1.5-2.4,2.9
		c-0.767,1.566-1.184,3.283-1.25,5.15V6.925V6.8c1.2-0.833,3.533-1.233,7-1.2c0.5,0,3,0.167,7.5,0.5l0.6,0.2l0.601,0.2
		c-2.033,1.433-3.3,2.183-3.8,2.25C88.783,8.517,88.366,8.4,87.9,8.4c-0.434-0.133-0.983-0.2-1.65-0.2L84.2,8.4
		c0,0.233-0.101,9.383-0.3,27.45c-0.534-1.4-0.917-3.367-1.15-5.9L82.3,8.2c0.367-0.034,0.217-0.05-0.45-0.05
		c-0.399,0-0.633,0.033-0.699,0.1C81.017,8.417,80.934,8.517,80.9,8.55z M87.85,81.85L87.75,88c-0.434-9.033-0.65-15.517-0.65-19.45
		c0-2.9-0.3-4.583-0.899-5.05c-1.167-0.833-2.184-2.533-3.05-5.1L83.1,52.25c0.167,0.267,0.667,1.683,1.5,4.25
		c0.934,2.567,1.834,4.1,2.7,4.6C87.333,67,87.517,73.917,87.85,81.85z M89.6,96.85c-0.866,0.3-2.083,0.5-3.649,0.6
		c0.5-0.067,1.684-0.333,3.55-0.8L89.6,96.85z M88.45,77.7c-0.033-4.167-0.033-7.434,0-9.8c0.133-4.367,1.017-7.133,2.649-8.3
		l0.301,0.9c-0.2,3.533-0.4,7.467-0.601,11.8C90.5,75.033,89.717,76.833,88.45,77.7z M74.8,51.1l-0.05-0.05
		c-0.2-0.233-0.384-0.7-0.55-1.4c-0.334-1.367-0.584-4.717-0.75-10.05L73,47.8c-0.066-0.2-0.283-5.933-0.65-17.2
		c0-0.667,0.067-3.267,0.2-7.8c0.101-4.966,0.2-8.5,0.3-10.6c0.534,2.733,1.25,8.35,2.15,16.85s1.35,13.917,1.35,16.25l-0.05,6.4
		C75.545,51.536,75.045,51.336,74.8,51.1z M48.5,178.25c-0.067,0.1-0.133,0.217-0.2,0.35c-0.367,0.733-0.716,1.417-1.05,2.05
		c-0.367,0.434-0.8,0.783-1.3,1.05c-1.333,0.7-3.5,0.966-6.5,0.8c-0.534,0-0.983-0.233-1.35-0.7c-0.4-0.5-0.6-1.1-0.6-1.8
		c3.5,0.567,5.633,0.883,6.4,0.95h2.25c-0.267-0.7-0.4-1.383-0.4-2.05c0-0.667,1.333-8.667,4-24c-0.1,2.1-0.233,6.783-0.4,14.05
		c-0.1,4.133-0.333,7-0.7,8.6C48.583,177.783,48.533,178.017,48.5,178.25z M60.75,241.85c0.3-18,0.3-47.033,0-87.1l-1.4,29.65
		c-0.166-3.867,0.017-12.816,0.551-26.85c0.433-11.3,0.75-18.3,0.949-21l-0.1,18.2l2.4-49.45l0.5-0.3
		c1.133,0.8,1.883,2.05,2.25,3.75c0.433,2.067,0.716,3.2,0.85,3.4c0.4-0.333,0.967-0.967,1.7-1.9c0.866-1.1,1.5-2.083,1.899-2.95
		c0.567-0.066,1.101-0.767,1.601-2.1l0.2,0.7c0.1,0.567,0.149,1.05,0.149,1.45c0,3.467-0.866,6.583-2.6,9.35
		c-1.867,2.966-2.834,4.883-2.9,5.75c-0.233,4.4-0.383,8.017-0.45,10.85c0,0.833-0.433,2.934-1.3,6.3
		c-0.833,3.3-1.25,5.917-1.25,7.85c0,0.333,0.15,5.133,0.45,14.4c0.267,10.367,0.316,18.55,0.15,24.55
		c-0.2,6.633-0.051,11.567,0.449,14.8c0.601,3.7,0.9,7.2,0.9,10.5c0,1.767-0.184,3.416-0.55,4.95c-0.233,0.899-0.634,2.399-1.2,4.5
		c-0.167,1-0.25,2.517-0.25,4.55l-0.1,11.149c0,4.101,0.199,7.567,0.6,10.4c0.4,2.866,0.6,6.184,0.6,9.95
		c0,6.899-0.267,14.217-0.8,21.95c-0.533,7.966-0.8,12.783-0.8,14.449l-0.15,1.051c-1.199-7.667-1.866-16.65-2-26.95
		C60.934,251.9,60.816,243.283,60.75,241.85z M78.55,203.4l-0.2-6.45l-0.05,8.1c-0.133,1.033-0.35,1.65-0.649,1.851l-1.601-11.95
		c0.167,6.767,0.066,10.767-0.3,12c0.1-8.167,0.083-13.05-0.05-14.65L74.6,102.9c0.467,0.067,1.25,0.25,2.351,0.55
		c0.934,0.233,1.55,0.35,1.85,0.35l0.8,1.35c0.167,0.3,0.25,0.65,0.25,1.05c0,0.633-0.55,2.4-1.649,5.3
		c-1.101,2.933-1.65,5.1-1.65,6.5c0,4,0.101,6.3,0.3,6.9c0.434-0.533,0.967-0.816,1.601-0.85c0.5,5.6,0.8,16.133,0.899,31.6v32.3
		c0,0.7-0.1,3.033-0.3,7C78.85,199.317,78.684,202.134,78.55,203.4z M90.6,98.2c0.634,0.867,1.067,2.75,1.301,5.65
		c0,3.167-0.45,5.533-1.351,7.1c-0.566,0.966-1.066,1.45-1.5,1.45c-0.267-0.333-0.783-0.683-1.55-1.05
		c-1.667,1.333-2.616,13.45-2.85,36.35c-0.134,14.133-0.117,41.35,0.05,81.649c0,1.367-0.167,2.867-0.5,4.5
		c-0.267-12.699-0.8-30.433-1.601-53.2c-0.466-13.767-0.75-34.133-0.85-61.1c0,0.034,0.116,2.967,0.35,8.8
		c0.267,7.233,0.634,14.05,1.101,20.45c0.3-2.1,0.35-5.367,0.149-9.8v-37.15c0.167,0,0.45-0.1,0.851-0.3
		c0.267,0.367,0.5,0.917,0.7,1.65c0.3,0.667,0.85,1.167,1.649,1.5c0.767,0.333,1.45,1.35,2.05,3.05l0.351,0.1
		c0.333-0.467,0.483-1.9,0.45-4.3C89.4,101.117,89.8,99.333,90.6,98.2z M17.4,165.65c-0.433,13.167-0.95,34.683-1.55,64.55
		c-0.633,30-1.35,57.25-2.15,81.75c0.033-6.9-0.083-23.434-0.35-49.601c-0.267-24.899-0.4-37.517-0.4-37.85
		c0-11.066,0.517-22.917,1.55-35.55C15.433,177.683,16.4,169.917,17.4,165.65z M73.3,264.35L72.9,252.5
		c0.733-5.4,1.366-12.333,1.899-20.8c0.233-4.367,0.55-11.2,0.95-20.5c0.634,7.399,1.366,15.717,2.2,24.95
		c0.5,9.267,0.75,26.316,0.75,51.149c0,1.267-0.05,3.783-0.15,7.55c-0.166,5.2-0.383,9.7-0.649,13.5
		c-1.334-17.133-2.101-26.983-2.301-29.55c-0.699-7.934-1.333-13.616-1.899-17.05L73.3,264.35z M4,274.6l0.2,9.75
		c-0.133-0.633-0.3-5.816-0.5-15.55L4,274.6z"/>
	<path style="fill-rule:evenodd;clip-rule:evenodd;fill:#625952;" d="M114.5,26.45c0.434,0.667,0.733,1.35,0.9,2.05l0.1,0.9
		c0,0.1,0,0.2,0,0.3c0.033,5.333-0.05,10.35-0.25,15.05l0.05,10.05c0.267,0,0.55-0.167,0.851-0.5l0.55-1.15l0.45,1l0.05,10.15
		c-0.101,1.233-0.25,2.434-0.45,3.6l-0.05-5.75c-0.267-0.867-0.584-1.45-0.95-1.75c-0.434-0.2-0.75-0.35-0.95-0.45
		c-0.833-0.7-1.883-1.383-3.149-2.05c-2.5-1.367-5.184-2.267-8.051-2.7c-2.166-0.867-3.55-1.367-4.149-1.5
		c-1.634,0.167-3.05-0.233-4.25-1.2c-1.267-1.033-2.5-1.55-3.7-1.55c-1.366,0-2.283,2.15-2.75,6.45
		c-0.434,3.833-0.717,11.767-0.85,23.8v1.85l-0.051-1.2C87.517,73.917,87.333,67,87.3,61.1l0.2-7.5l1.15-7.75l0.699-4.4l0.101-1.4
		l1.8-32.15c-0.033,22.867-0.1,34.867-0.2,36c0,0.333-0.083,0.85-0.25,1.55c-0.166,0.7-0.25,1.216-0.25,1.55
		c0,0.833,0.65,1.583,1.95,2.25c0.667,0.333,1.316,0.583,1.95,0.75c0.666,0,1-0.05,1-0.15l0.3-7c0.134-2.667,0.267-5.934,0.4-9.8
		c0.1-3.933,0.166-6.633,0.199-8.1c0.134,0.8,0.284,2.583,0.45,5.35c0.167,2.5,0.25,4.083,0.25,4.75L97,37.95v4.85l-0.15,4.95
		c0,0.667,0.034,1.217,0.101,1.65c0.566,0.833,1.017,1.267,1.35,1.3c0.867,0.033,1.334,0.066,1.4,0.1l1.149,1.45l0.65,0.7
		c1.066,0.5,2.25,0.566,3.55,0.2c0.7-0.2,1.566-0.45,2.601-0.75c2.433,1.067,3.699,1.6,3.8,1.6c0.399,0,0.633-0.117,0.7-0.35
		c-0.034-0.333-0.017-0.617,0.05-0.85C113.8,42.3,114.566,33.517,114.5,26.45z M119.3,107.55v2.25
		c-0.366-0.433-0.666-0.667-0.899-0.7l-0.4,0.45c-0.267,1.434-0.483,5.817-0.65,13.15c-0.199,8.3-0.433,13.917-0.699,16.85l-0.051-2
		c0-7.033-0.166-12.316-0.5-15.85l-0.25-1.9c0.134-1.066,0.301-2.883,0.5-5.45c0.233-2.6,0.351-4.15,0.351-4.65
		c0-0.6-0.367-0.934-1.101-1c-0.767,0-1.233-0.05-1.399-0.15c-0.101-0.133-0.417-0.716-0.95-1.75l-0.45-0.35
		c-0.633,1.267-1.05,3.017-1.25,5.25c-0.033-1.9-0.217-3.3-0.55-4.2c-0.3-0.9-0.85-1.583-1.65-2.05
		c-0.066-0.067-0.333-0.25-0.8-0.55c-0.467-0.3-0.783-0.483-0.95-0.55l-0.649,0.2c-0.3,0.167-0.667,0.25-1.101,0.25
		c-0.033,0-0.449-0.4-1.25-1.2c-0.733-0.767-1.85-1.483-3.35-2.15l-1.2-0.35c-1.7-0.333-2.684-0.017-2.95,0.95
		c-0.466,1.667-0.733,2.534-0.8,2.6v-1.6c-0.066-0.667-0.25-2.083-0.55-4.25c-0.3-2.233-0.5-3.517-0.6-3.85l-0.4-1.65l-0.9-3.15
		c-0.399,5.367-0.6,8.7-0.6,10c0,0.333,0.05,2.967,0.15,7.9c0.066,4.367,0.1,7.85,0.1,10.45c-0.233-2.933-0.434-6.667-0.6-11.2
		c-0.134-3.466-0.2-5.733-0.2-6.8c0.434-10.567,0.684-17.317,0.75-20.25l0.3,0.85c0.467,5.233,1.2,9.4,2.2,12.5
		c0.7,2.066,1.434,3.45,2.2,4.15c0.233-0.5,0.466-1.35,0.699-2.55c0.267-1.233,0.4-2.233,0.4-3c-0.2-3.4-0.316-5.684-0.35-6.85
		c-0.101-1.767,0.199-4.7,0.899-8.8l0.101,1c0.1,6.3,0.35,11.2,0.75,14.7c0,1.1-0.084,1.817-0.25,2.15
		c-0.034,0.033-0.084-0.017-0.15-0.15s-0.1,0-0.1,0.4c0,0.667,0.033,1.267,0.1,1.8c0.134,0.633,0.85,1.383,2.15,2.25
		c0.899,0.6,1.649,1.017,2.25,1.25c0.767,0.3,1.5,0.517,2.199,0.65l1.45,0.15l0.851,0.15c1.466,0.3,2.383,0.2,2.75-0.3
		c0.666-0.967,1.116-3.767,1.35-8.4c0.2-3.6,0.3-6.983,0.3-10.15l0.05-2.3v2.2c0,7.466-0.033,12.466-0.1,15
		c0,4.167,0.434,6.667,1.3,7.5c0.233,0.233,0.834,0.617,1.8,1.15C117.6,106.133,118.5,106.783,119.3,107.55z M119.35,137.25
		l0.101,6.95c-0.267,2.2-0.417,3.867-0.45,5l-0.15,6.1c0,0.6,0.233,2.15,0.7,4.65v18.5l-0.05,0.4l-0.05,0.35l-0.101,0.7v0.2
		l-1.8,8.45c0.101-0.667,0.316-3.233,0.65-7.7c0.3-4.367,0.45-6.767,0.45-7.2c0-1.1-0.051-2.9-0.15-5.4c-0.167-3.4-0.366-6-0.6-7.8
		c-0.733-5.633-1.184-9.034-1.351-10.2c-0.233-1.4-0.467-2.383-0.7-2.95c-0.466,0.333-0.783,0.917-0.949,1.75
		c-0.233,1.367-0.367,2.1-0.4,2.2c-0.267-2.167-0.483-3.817-0.65-4.95c-0.3-2.033-0.899-3.316-1.8-3.85
		c-0.3,0.033-0.55,0.617-0.75,1.75c-0.1,0.566-0.166,1.133-0.2,1.7l-0.35-3.1c-0.7,0.567-1.1,0.833-1.2,0.8
		c-0.5-0.9-0.899-1.517-1.2-1.85c-0.433-0.5-1.133-0.917-2.1-1.25c-1.333,0.533-2.184,1.933-2.55,4.2
		c-0.533,3.2-0.95,5.083-1.25,5.65l-0.351,0.2c-0.366-0.367-0.55-0.917-0.55-1.65c0.267-2.066,0.351-4.05,0.25-5.95
		c-0.133-3.767-1.017-5.65-2.649-5.65c-0.4,0-0.634,0.083-0.7,0.25c0.066,0.133,0.083,0.2,0.05,0.2c-0.1,1.7-0.233,4.383-0.4,8.05
		c-0.166,3.133-0.333,5.267-0.5,6.4c-0.966-21.867-1.483-33.667-1.55-35.4l0.101,1.1c0.533,4.467,0.883,7.317,1.05,8.55
		c0.467,3.2,0.833,5.733,1.1,7.6l0.15-0.8c0.233-3.533,0.383-6.2,0.45-8c0.166-3.033,0.233-6.3,0.199-9.8
		c0.267,6.7,0.483,10.733,0.65,12.1c0.467,4.034,1.366,6.767,2.7,8.2l1.45-0.2c1.767,0,3.267,0.317,4.5,0.95
		c1.233,0.6,1.85,1.333,1.85,2.2l0.05-0.15l-1.05-7.35c1.366,0.233,2.066-0.284,2.1-1.55c0.134-3.2,0.217-6.3,0.25-9.3
		c0.367,6.8,0.517,10.667,0.45,11.6l-0.2,2.65c-0.066,3.167,0.217,5.217,0.851,6.15c0.333,0.5,0.717,0.733,1.149,0.7
		c0.434,0.033,0.983,0,1.65-0.1c0.7-0.2,1.434-0.833,2.2-1.9C118.134,138.917,118.684,138.183,119.35,137.25z M113.95,206.1
		c0.7,0.601,1.217,0.9,1.55,0.9c0.533-0.533,0.9-1.733,1.1-3.6c0.2-1.967,0.45-3.167,0.75-3.601l0.051,1.25
		c0.1,1.566,0.149,3.684,0.149,6.351l-0.2,16.6c-0.033,1.267-0.083,2.217-0.149,2.85h-0.45c-0.066-5.8-0.366-9.899-0.9-12.3
		c-0.666-2.833-1.833-4.25-3.5-4.25l-1.25,0.101c-0.466,0.267-1.017,0.683-1.649,1.25l-0.65,0.75l-1.1,1.149l-0.5-0.5
		c-0.066-0.2-0.283-0.717-0.65-1.55c-0.399-0.934-0.666-1.517-0.8-1.75c-0.167-0.3-0.283-0.5-0.35-0.6
		c-0.101-0.134-0.367-0.2-0.801-0.2c-1.1,0-1.649,1.483-1.649,4.45c0,0.767-0.05,2.75-0.15,5.949c-0.133,3.667-0.25,6.233-0.35,7.7
		c0.1-12.366-0.05-19.316-0.45-20.85c-0.1-0.367-0.384-0.816-0.85-1.351c-0.267-0.3-0.517-0.75-0.75-1.35
		c-0.2-0.467-0.384-1.017-0.551-1.65c0.067,0,0.15,0,0.25,0c0.301-0.033,0.65-0.083,1.051-0.149c0.8,0.434,1.666,1.3,2.6,2.6
		c1.267,1.7,2.083,2.733,2.45,3.101l0.899,0.35c0.534-0.167,1.2-0.7,2-1.6c0.7-0.801,1.417-1.2,2.15-1.2
		c0.1,0,0.384,0.083,0.85,0.25C112.733,205.434,113.35,205.733,113.95,206.1z M106.55,251.95l0.95,0.149
		c0.967,0.4,1.667,0.467,2.1,0.2c0.067,0.566,0.184,1.733,0.351,3.5c0.133,1.834,0.2,2.983,0.2,3.45c0,0.634-0.101,1.684-0.301,3.15
		c-0.233,1.633-0.466,2.6-0.699,2.899c-0.267-2.767-0.601-4.866-1-6.3c-0.134,1.434-0.317,2.283-0.551,2.55
		c-0.066-1.366-0.216-2.366-0.449-3l-0.15,0.3c-0.3,1.434-0.45,3.967-0.45,7.601l-1.6,0.6L104.9,265
		c-0.101-2.434-0.317-4.483-0.65-6.15c-0.1-0.033-0.15-0.383-0.15-1.05l0.101-1.3C104.6,255.934,105.384,254.417,106.55,251.95z
		 M80.7,309.55c-0.066-23.066-0.55-50.283-1.45-81.649L78.9,216.3L78.3,205.05l0.05-8.1l0.2,6.45L78.9,216.3l0.5,5.7l2.25,25.3
		c0.566,4.566,1.033,12.584,1.399,24.05c0.334,11,0.4,18.867,0.2,23.601L83.1,312.1l-0.3,0.101
		C81.767,310.866,81.066,309.983,80.7,309.55z M40.75,319.4c-0.033,0.833-0.35,8.466-0.95,22.899c-0.6,14-1.083,22.533-1.45,25.601
		l-0.45-0.851c-0.033-0.033-0.066-0.066-0.1-0.1l-0.025-0.025c-0.847-1.032-1.089-2.657-0.725-4.875c0.6-2.467,0.917-4.05,0.95-4.75
		c0.133-2.733,0.217-4.717,0.25-5.95c0.067-8.767,0.167-15.566,0.3-20.399c0.4-1.834,0.133-6.934-0.8-15.3
		c-1.067-8.733-1.667-13.917-1.8-15.551c-0.434-5.699-0.784-13.416-1.05-23.149c-0.2-7.8-0.3-14.167-0.3-19.101
		c0-7.399,0.233-14.283,0.7-20.649c0.467-6.367,0.7-10.884,0.7-13.55l-0.4-27.601l0.2-9.55l0.25-9.3l0.8,13.45l0.15,1.7
		c0.267,3.433,0.583,14.233,0.95,32.4l-0.15,8.85c0.067,2.967,0.05,9.217-0.05,18.75c0.033,1.134,0.35,6.417,0.95,15.851
		c0.8,13.066,1.566,26.217,2.3,39.45l-0.1,3.75L40.75,319.4z M4.6,286.15l-0.1-4.301l0.35,5l-0.05-0.1L4.6,286.15z M1.65,126.75
		l1-19L3.45,93l0.15-2.9l0.05-1.7l0.1-1.9L3.7,91.55c-0.133,10.3-0.434,23.067-0.9,38.3v1.9c-0.133,6.967-0.25,11.267-0.35,12.9
		c-0.1,1.667-0.35,2.967-0.75,3.9L1.65,126.75z M63.7,8.9c0.066,5.033,0.533,11.533,1.399,19.5c0.434,4,0.851,7.65,1.25,10.95
		c0,0.667-0.333,3.783-1,9.35l-0.6,10.45l-0.1,1.05c-0.101,2.633-0.301,5-0.601,7.1l-0.1-0.3c-0.267-6.567-0.5-12.25-0.7-17.05
		c-0.4-9.267-1.116-13.9-2.15-13.9c-0.399,0-0.633-0.816-0.699-2.45c0.066-1.8,0.083-2.833,0.05-3.1
		c1.033-0.033,1.616-0.35,1.75-0.95c0-0.033,0-1.117,0-3.25l-0.05-5.95c0.3,4.333,0.55,8.65,0.75,12.95l-0.25-17.6L62.6,8.8
		L63.7,8.9z M69.1,9.3l0.051,5.85c-0.167-0.933-0.417-2.883-0.75-5.85H69.1z M81.5,70.5c0-7.267,0.184-13.283,0.55-18.05
		c0.4-5.467,0.617-8.633,0.65-9.5L82.5,106c0.134,10.733,0.083,18.55-0.15,23.45C81.783,95.617,81.5,75.967,81.5,70.5z M43.55,119.6
		c0.133-1.167,0.233-4.5,0.3-10c0.033-5,0.133-18.2,0.3-39.6c0.367,10.667,0.7,25.917,1,45.75c0,3.6-0.25,5.9-0.75,6.9
		c-1,1.967-1.767,4.133-2.3,6.5c-0.4,3.167-0.717,5.1-0.95,5.8c-0.3,0.833-0.9,1.25-1.8,1.25c-0.4,0-0.717-0.05-0.95-0.15
		l-0.25-0.15l0.25-0.85l1.6-2.95c0.2-0.434,0.367-0.883,0.5-1.35c0.3-0.833,0.617-2,0.95-3.5c0.333-2.2,0.417-4.517,0.25-6.95
		l-0.05-1.35l0.1,1.25c0.1,0.333,0.25,0.667,0.45,1c0.167,0.3,0.3,0.45,0.4,0.45c0.066-0.033,0.2-0.15,0.4-0.35
		c0.167-0.133,0.3-0.2,0.4-0.2L43.55,119.6z M55.15,105.25L55,129.15c0.033,5.3,0.067,9.8,0.1,13.5
		c-0.033,1.533-0.184,3.333-0.45,5.4c-0.333,2.5-0.85,5.367-1.55,8.6L53.05,146c0-11.367,0.067-18.783,0.2-22.25
		c0.1-2.967,0.533-9.9,1.3-20.8l0.5-23.25C55.017,89.067,55.05,97.583,55.15,105.25z M62.45,112.35
		c-0.134,1.9-0.417,5.25-0.851,10.05l0.051-1c0.5-7.9,0.767-12.55,0.8-13.95V112.35z M74.6,96.1v6.8l1.101,89.4l0.05,18.9
		c-0.4,9.3-0.717,16.133-0.95,20.5c-0.533,8.467-1.166,15.399-1.899,20.8c-0.233,5-0.417,8.2-0.551,9.6l-0.6,6.851L71.5,274.6
		l-0.6,4.75c0.033-8.633-0.034-16.783-0.2-24.449c-0.2-6.067-0.3-9.267-0.3-9.601c0-1.5,0.267-2.899,0.8-4.2
		c0.666-1.699,1.116-3.25,1.35-4.649l-0.2-19.601c0-3.566,0.25-7.883,0.75-12.949c0.467-5.067,0.7-9.7,0.7-13.9L72.9,149.15
		l0.6-23.6c0-2.966,0.333-14.933,1-35.9l0.1-3.15V96.1z"/>
	
		<line style="fill-rule:evenodd;clip-rule:evenodd;fill:none;stroke:#514941;stroke-width:0.1;stroke-linecap:round;stroke-linejoin:round;stroke-miterlimit:3;" x1="62.45" y1="103.55" x2="62.3" y2="102.35"/>
</g>
</svg>
