<?xml version="1.0" encoding="iso-8859-1"?>
<!-- Generator: Adobe Illustrator 15.1.0, SVG Export Plug-In . SVG Version: 6.00 Build 0)  -->
<!DOCTYPE svg PUBLIC "-//W3C//DTD SVG 1.1//EN" "http://www.w3.org/Graphics/SVG/1.1/DTD/svg11.dtd">
<svg version="1.1" id="Layer_1" xmlns="http://www.w3.org/2000/svg" xmlns:xlink="http://www.w3.org/1999/xlink" x="0px" y="0px"
	 width="112.5px" height="97.05px" viewBox="0 0 112.5 97.05" style="enable-background:new 0 0 112.5 97.05;" xml:space="preserve"
	>
<g>
	<path style="fill-rule:evenodd;clip-rule:evenodd;fill:#B3AA9E;" d="M49.95,30.8H49.3c0.367-1.533,1.7-2.566,4-3.1
		c2.733-0.633,4.617-1.583,5.65-2.85c-0.233-0.367-0.65-0.684-1.25-0.95c-0.7-0.367-1.45-0.55-2.25-0.55l-3.1,0.1
		c-3.267-1.8-6.617-2.267-10.05-1.4c-2.233,1-3.6,1.617-4.1,1.85c0.066-0.133,0.15-0.217,0.25-0.25c1.933-1.1,3.333-1.967,4.2-2.6
		c-1.833-0.1-5.233-0.433-10.2-1c0.8-1.133,3.066-2.6,6.8-4.4c3.8-1.833,6.683-2.816,8.65-2.95c-2,0.466-3.683,0.966-5.05,1.5
		c-1.167,0.433-1.833,0.767-2,1c0.3,0.3,0.467,0.517,0.5,0.65c0.267,0.133,2.017,0.617,5.25,1.45c-1.5,0-3.95,0-7.35,0
		c3.233,0.633,5.283,0.95,6.15,0.95c0.467,0,0.883-0.083,1.25-0.25c0.3-0.167,0.483-0.367,0.55-0.6
		c0.767,0.233,1.966,0.417,3.6,0.55c0.233,0.167,0.8,0.35,1.7,0.55c0.9,0.167,1.6,0.25,2.1,0.25c0.7,0,1.6-0.05,2.7-0.15
		c1.334-0.133,2.233-0.3,2.7-0.5c1.167,0.1,2.033-0.05,2.6-0.45c0.4-0.333,0.601-0.733,0.601-1.2c0-0.3-0.384-0.95-1.15-1.95
		c-0.934-1.167-1.899-1.917-2.899-2.25l0.899-0.1c0.834-0.167,1.3-0.617,1.4-1.35c0.2-1.133,0.434-1.883,0.7-2.25
		c1.566-2,7.25-3,17.05-3c1.467,0,2.233,0.217,2.3,0.65c-0.033,0.233-0.167,0.5-0.4,0.8c-0.267,0.1-1.416,0.367-3.449,0.8
		c-2.034,0.434-3.167,0.7-3.4,0.8l0.85,0.3c4.067,0.1,8.717-0.467,13.95-1.7C91.684,6.6,94,5.967,96,5.3l-9.85-0.15
		c1.267-0.4,3.416-0.8,6.449-1.2c1.601-0.2,3.767-0.467,6.5-0.8c1,0.633,2.317,1.483,3.95,2.55c4.066,2.633,6.733,4.417,8,5.35
		c-0.033,0.1-0.083,0.817-0.149,2.15c-0.034,1.267-0.434,2.65-1.2,4.15c-0.566,1.2-2.434,2.717-5.601,4.55l-4.6,2.4
		c-0.1,0-1.8-1.15-5.1-3.45c0.633-0.5,1.25-1,1.85-1.5c0.4-0.333,0.767-0.684,1.1-1.05L96.6,18L90.7,17.6
		c-3.4-1.033-7.084-0.967-11.05,0.2c-3.367,1-5.051,1.833-5.051,2.5c0,0.4,0.051,0.633,0.15,0.7c0.066,0.033,0.116,0.033,0.15,0
		l4.949,0.1l9.051-0.6c-1,0.2-2.9,0.383-5.7,0.55c-2.4,0.167-3.783,0.35-4.15,0.55l0.75,0.25l0.851,0.1
		c-1.134-0.1-2.367,0.183-3.7,0.85L77.1,23l0.4,0.4l1.8,0.15c0.634,0,2.233-0.066,4.8-0.2c-0.6,0.4-1.333,0.85-2.199,1.35
		C79.8,25.933,78.6,27.017,78.3,27.95l2.5-0.8c-1.833,1.367-5.467,2.283-10.899,2.75c-6.5,0.3-11.15,0.517-13.95,0.65
		c1.899-1.767,2.899-2.667,3-2.7c0.333-0.133,0.666-0.333,1-0.6c-1.334,1.333-2.283,2.217-2.851,2.65
		c0.301,0.267,0.617,0.434,0.95,0.5c0.533-0.367,1.684-0.75,3.45-1.15c1.533-0.567,2.333-1.583,2.4-3.05
		c1.3-0.2,2.25-0.417,2.85-0.65l-2.3-0.6c0.5-0.733,1.6-1.534,3.3-2.4c1.667-0.867,2.566-1.4,2.7-1.6L67.6,20.9
		c-2.833,0-4.416-0.033-4.75-0.1c-0.699,0.434-1.1,0.8-1.199,1.1c-0.067,0.2-0.117,0.5-0.15,0.9c-0.967,0.233-1.616,0.333-1.95,0.3
		l-0.3,0.05c0.134,0.233,0.283,0.417,0.45,0.55c0.5,0.066,0.934,0.066,1.3,0c-0.967,1.066-3.066,2.4-6.3,4
		C51.8,29.167,50.217,30.2,49.95,30.8z M102.45,17.65c-0.4,0.5-0.634,0.783-0.7,0.85c1.866,0.633,3.2-0.1,4-2.2
		C104.184,16.667,103.083,17.117,102.45,17.65z M102.75,17.05l-1.25-1.25c-0.8,0.1-1.366,0.284-1.7,0.55
		c-0.233,0.3-0.416,0.517-0.55,0.65L102.75,17.05z M95.8,9.05L95,8.3c-8.434,0.934-14.15,1.633-17.15,2.1
		c-1.533,0.333-2.699,0.55-3.5,0.65l2-0.05c3.801-0.167,6.7,0.1,8.7,0.8c2.167,0.733,4.217,1.1,6.15,1.1c0.434,0,0.733,0,0.899,0
		l-2,0.45l0.9,0.3c2.967,0.133,4.634,0.184,5,0.15c1.467-0.033,2.45-0.383,2.95-1.05c0.333-0.467,0.5-1.2,0.5-2.2
		c0-0.767-0.55-1.233-1.65-1.4C96.634,9.15,95.967,9.117,95.8,9.05z M96.15,9.5c0.533,0.433,0.8,0.75,0.8,0.95l0.3-0.15l-1.7,0.95
		C96.083,10.483,96.283,9.9,96.15,9.5z M80.2,1.9L81,1.85L80.8,1.9h-0.2H80.2z M18.5,21.1c3.1,0.133,5.85,0.2,8.25,0.2l-4.7,0.75
		l2.05-0.5l-7.6,0.6c1.3-0.2,2.283-0.483,2.95-0.85L18.5,21.1z M4.65,21.2l-0.8-0.25l0.75-0.2L4.65,21.2z M33.4,26.15v0.6
		c0.567,0.133,1.217,0.2,1.95,0.2c0.667,0,1.383-0.05,2.15-0.15l-1.95-0.9l2.4-0.4c0.033,0.433,0.05,0.317,0.05-0.35
		c0-0.467,0.05-0.833,0.15-1.1c1.3,0.434,4.45,0.767,9.45,1c1.167,0,2.117-0.066,2.85-0.2l-1.35,0.6
		c-1.934,0.033-3.333,0.083-4.2,0.15c-1.533,0.1-2.7,0.433-3.5,1l0.75,0.05c-0.566,0.7-1.35,1.2-2.35,1.5
		c-1.4,0.4-2.5,0.833-3.3,1.3c1.333,0.233,2.2,0.45,2.6,0.65c-0.333-0.033-1.283-0.267-2.85-0.7c-1.467-0.4-2.633-0.6-3.5-0.6
		c-12.2-3.1-18.983-4.933-20.35-5.5c2.8-0.133,5.233-0.4,7.3-0.8c-0.034,0.033-0.05,0.25-0.05,0.65c0,0.434,0.684,0.8,2.05,1.1
		c1.7,0.4,4.033,0.6,7,0.6c1,0,1.816-0.217,2.45-0.65c0.667-0.434,1-0.983,1-1.65c0-0.433-0.066-0.716-0.2-0.85
		c-0.233-0.133-0.45-0.284-0.65-0.45c1.7,0.4,2.55,0.95,2.55,1.65c0,0.733-0.5,1.45-1.5,2.15c-1.1,0.8-2.3,1.15-3.6,1.05l0.45,0.25
		l1.05,0.2C31.15,26.517,32.2,26.383,33.4,26.15z M58.85,16.15c-0.8,0.434-1.916,0.833-3.35,1.2c0.167-0.367,0.467-1.1,0.9-2.2
		c0.466-1.2,0.699-1.867,0.699-2c0-0.4-0.05-0.633-0.149-0.7c-0.134,0-0.25-0.05-0.351-0.15c0.634,0,1.167,0.383,1.601,1.15
		C58.634,14.183,58.85,15.083,58.85,16.15z M84.25,23.2l-2.85-1.25c1.8-0.067,3.166-0.083,4.1-0.05
		C85.366,22.233,84.95,22.667,84.25,23.2z M95.7,25.4c-1.7,0.4-5.316,0.633-10.851,0.7c0.267-0.167,1.917-1,4.95-2.5
		c2.434-1.2,3.884-2.033,4.351-2.5c0.366,0.2,0.949,0.7,1.75,1.5c0.966,0.967,1.466,1.767,1.5,2.4
		c-0.634-0.633-1.384-1.117-2.25-1.45c-0.801-0.333-1.434-0.433-1.9-0.3L95.7,25.4z M84.4,32.7c1.933,1.1,2.816,2.517,2.649,4.25
		c-0.033,0.2-0.366,1.083-1,2.65c-0.566,1.433-1.383,2.233-2.45,2.4c-0.399,0-0.633-0.05-0.699-0.15c0.033-0.1,0.017-0.2-0.051-0.3
		c0.134-1.133,0.284-3.15,0.45-6.05l0.8-2.95L84.4,32.7z M103.25,25.15l0.55-0.4l-0.149,0.15L103.25,25.15z M66.2,15.6
		c0.366-0.133,0.55-0.283,0.55-0.45c0-0.167-0.184-0.3-0.55-0.4c-0.367-0.133-0.816-0.2-1.351-0.2c-0.533,0-0.983,0.067-1.35,0.2
		c-0.366,0.1-0.55,0.233-0.55,0.4c0,0.167,0.184,0.317,0.55,0.45c0.366,0.1,0.816,0.15,1.35,0.15
		C65.384,15.75,65.833,15.7,66.2,15.6z M53.4,24.15l-1.4,0.2l0.45-0.5L53.4,24.15z M54.9,32.05l1.2,0.05l0.051,2.7
		c0,2.733-0.484,6.1-1.45,10.1c-1.5,6.067-2.65,11.633-3.45,16.7c-1.033-1.133-1.55-3.949-1.55-8.449l0.05-3.75
		c0.067-2.734,0.3-4.833,0.7-6.3c0.4-1.467,1.4-3.867,3-7.2l2.05-3.8L54.9,32.05z M60.65,32.25H60.1l-0.5-0.05L60.65,32.25z
		 M38.2,40.05l1.45-0.95c1-0.667,1.767-1.65,2.3-2.95c0.867-2.066,1.517-3.433,1.95-4.1l1.4,0.15c-0.1,0.566-0.367,2.95-0.8,7.15
		c-0.733,4.133-1.883,6.8-3.45,8c-1.233,0.933-1.917,3.4-2.05,7.4c-0.067,2,0,3.967,0.2,5.9c0,0.666-0.034,0.966-0.1,0.899l-0.2,0.3
		c-2.367-3.267-3.55-6.949-3.55-11.05C35.35,45.9,36.3,42.317,38.2,40.05z M22.75,59.1L22.8,60.4l-0.1-1.45
		C22.533,57.75,21.967,53,21,44.7c-1-8.5-1.517-13.034-1.55-13.6c0.066-1.667,0.233-3.067,0.5-4.2c2.8,0.4,5.25,0.867,7.35,1.4
		c1.3,0.333,3.534,0.9,6.7,1.7c-0.867,0.367-1.617,0.517-2.25,0.45c-0.567-0.167-1-0.25-1.3-0.25c-0.467,0-0.934,0.383-1.4,1.15
		c-0.533,0.9-0.95,2.183-1.25,3.85c-0.7-0.333-1.233-1-1.6-2c-0.267-1.034-0.483-1.667-0.65-1.9c0.3-0.133,0.117-0.2-0.55-0.2
		c-0.633,0-1.2,1.233-1.7,3.7c-0.6,2.9-0.9,6.8-0.9,11.7L22.75,59.1z M78.5,24.8l-1,0.05c-0.934,0-1.733,0.15-2.4,0.45l0.601,0.35
		L77,25.7C77.667,25.7,78.167,25.4,78.5,24.8z M66.35,36.85c0.2-0.267,0.5-0.6,0.9-1l2.75-1.7l0.65-0.4
		c0.199-0.1,0.883-0.417,2.05-0.95c1.267-0.633,2.166-1.4,2.7-2.3h0.25c-0.233,2.867-0.417,4.533-0.551,5
		c-0.1,0.433-0.433,0.65-1,0.65c-1.533,1.267-2.666,2.05-3.399,2.35c-0.566-0.1-1.05-0.1-1.45,0c-0.8,0.167-1.417,0.95-1.85,2.35
		c-0.867,2.867-1.65,5.933-2.351,9.2L64.8,51.6c-0.233-7.133-0.35-11.033-0.35-11.7c0-0.367,0.25-0.783,0.75-1.25
		c0.533-0.533,0.816-0.917,0.85-1.15C66.05,37.333,66.15,37.117,66.35,36.85z M13.75,25.25c-0.2,3.567-0.3,8.033-0.3,13.4l0.05,0.95
		c-0.033-0.167-0.483-1.233-1.35-3.2c-0.9-2.1-1.433-3.383-1.6-3.85c-0.066,0.1-0.1-0.183-0.1-0.85c0-1.133,0.283-2.333,0.85-3.6
		c0.333-0.367,0.9-1.417,1.7-3.15L13.75,25.25z"/>
	<path style="fill-rule:evenodd;clip-rule:evenodd;fill:#D2C8BA;" d="M103.8,24.75l-0.55,0.4l-2.45,1.4l-0.25,0.1l-0.899,0.3
		c-0.2,0.066-0.4,0.15-0.601,0.25c-0.467,0.2-0.783,0.433-0.95,0.7c0.067-1.2-0.166-2.167-0.699-2.9
		c-0.034-0.633-0.534-1.433-1.5-2.4c-0.801-0.8-1.384-1.3-1.75-1.5c-0.167-0.067-0.601-0.25-1.301-0.55l1.551,0.3
		c3.3,2.3,5,3.45,5.1,3.45l4.6-2.4c3.167-1.833,5.034-3.35,5.601-4.55c0.767-1.5,1.166-2.883,1.2-4.15
		c0.066-1.333,0.116-2.05,0.149-2.15V11c0.733,1.467,1.101,2.333,1.101,2.6c0,0.033,0.05,0.3,0.149,0.8
		c0.101,0.567,0.15,1.05,0.15,1.45c0,0.133-0.017,0.283-0.05,0.45c-0.467,1.6-3.2,4.317-8.2,8.15L103.8,24.75z M55.95,30.55
		c2.8-0.133,7.45-0.35,13.95-0.65c5.433-0.467,9.066-1.383,10.899-2.75l4.05-1.05c5.534-0.067,9.15-0.3,10.851-0.7
		c0.366,0.7,0.483,1.4,0.35,2.1c-6.434-0.067-9.983-0.1-10.649-0.1c-0.567,0-1.301,0.083-2.2,0.25c-1.033,0.2-1.867,0.45-2.5,0.75
		l-1.4,0.85l-0.1,0.1c-0.434,0.267-0.834,0.483-1.2,0.65c-0.667,0.3-1.45,0.467-2.35,0.5H75.4l-0.2,0.05
		c-6.7,1.167-10.8,1.75-12.3,1.75l-2.25-0.05L59.6,32.2l-3.5-0.1l-1.2-0.05h-0.5L55.95,30.55z M59.95,27.25
		c0.066-0.033,1.149-1.383,3.25-4.05c1.033-1.3,2.5-2.067,4.399-2.3l2.851,0.05c-0.134,0.2-1.033,0.733-2.7,1.6
		c-1.7,0.867-2.8,1.667-3.3,2.4L63.9,26.2c-0.067,1.466-0.867,2.483-2.4,3.05c-1.767,0.4-2.917,0.783-3.45,1.15
		c-0.333-0.066-0.649-0.233-0.95-0.5C57.667,29.467,58.616,28.583,59.95,27.25z M41.2,31.6l-3.4-0.65L34,30
		c-3.167-0.8-5.4-1.367-6.7-1.7c-2.1-0.533-4.55-1-7.35-1.4l-2.2-0.45c-1.4-0.367-2.733-0.767-4-1.2L13,24.95l-0.9-0.4L9.75,23.3
		c0.333,0,0.233-0.066-0.3-0.2c0.733-0.4,3.083-0.717,7.05-0.95l7.6-0.6l-2.05,0.5l-2.2,0.45c-0.067-0.033-0.117-0.033-0.15,0
		c-2.067,0.4-4.5,0.667-7.3,0.8c1.367,0.567,8.15,2.4,20.35,5.5c0.867,0,2.033,0.2,3.5,0.6c1.567,0.434,2.517,0.667,2.85,0.7
		c1.333,0.633,3.367,0.967,6.1,1c2.233,0,3.6-0.1,4.1-0.3h0.65l-0.15,1.45l-1.7,0.05l-2.8-0.1l-1.4-0.15L43,31.9L41.2,31.6z"/>
	<path style="fill-rule:evenodd;clip-rule:evenodd;fill:#A39A90;" d="M88.15,0.75l4.1-0.35l0.6,0.1c1.034,0.267,2.2,0.617,3.5,1.05
		C95.783,1.383,94.6,1.3,92.8,1.3c-0.7,0-2.1,0.117-4.2,0.35c-2.566,0.267-4.083,0.533-4.55,0.8L83.75,3
		c0.667,0.133,1.316,0.2,1.95,0.2c2.434,0,6.517-0.25,12.25-0.75C98.017,2.417,98.1,2.4,98.2,2.4l1.2,0.7
		c-0.101,0-0.2,0.017-0.301,0.05c-2.733,0.333-4.899,0.6-6.5,0.8c-3.033,0.4-5.183,0.8-6.449,1.2L96,5.3
		c-2,0.667-4.316,1.3-6.95,1.9C83.816,8.433,79.167,9,75.1,8.9l-0.85-0.3c0.233-0.1,1.366-0.367,3.4-0.8
		C79.684,7.367,80.833,7.1,81.1,7c0.233-0.3,0.367-0.567,0.4-0.8c-0.066-0.434-0.833-0.65-2.3-0.65c-9.8,0-15.483,1-17.05,3
		c-0.267,0.367-0.5,1.117-0.7,2.25c-0.101,0.733-0.566,1.184-1.4,1.35l-0.899,0.1c1,0.333,1.966,1.083,2.899,2.25
		c0.767,1,1.15,1.65,1.15,1.95c0,0.466-0.2,0.867-0.601,1.2c-0.566,0.4-1.433,0.55-2.6,0.45l0.4-0.5
		c0.133-0.2,0.199-0.517,0.199-0.95l-0.1-0.85c-0.167-0.167-0.333-0.5-0.5-1c-0.366,0.667-0.75,1.117-1.15,1.35
		c0-1.066-0.216-1.967-0.649-2.7c-0.434-0.767-0.967-1.15-1.601-1.15l-1.35-0.5c-1.267-0.167-2.083-0.267-2.45-0.3
		c-0.533,0-2.167,0.4-4.9,1.2c-1.967,0.133-4.85,1.117-8.65,2.95c-3.733,1.8-6,3.267-6.8,4.4c4.966,0.567,8.367,0.9,10.2,1
		c-0.867,0.633-2.267,1.5-4.2,2.6c-0.1,0.033-0.184,0.117-0.25,0.25L38,24c0.033,0.033,0.083,0.05,0.15,0.05
		c-0.1,0.267-0.15,0.633-0.15,1.1c0,0.667-0.017,0.783-0.05,0.35l-2.4,0.4c-0.867-0.4-1.583-0.316-2.15,0.25
		c-1.2,0.233-2.25,0.367-3.15,0.4l-1.05-0.2l-0.45-0.25c1.3,0.1,2.5-0.25,3.6-1.05c1-0.7,1.5-1.417,1.5-2.15
		c0-0.7-0.85-1.25-2.55-1.65c-0.533-0.167-2.05-0.15-4.55,0.05c-2.4,0-5.15-0.066-8.25-0.2L15.4,21c-2.267,0.067-3.6,0.15-4,0.25
		c-0.433,0-1.633,0.35-3.6,1.05H7.65l-3-1.1L4.6,20.75c1.1-0.2,2.8-0.583,5.1-1.15c3.6-0.934,6.667-1.867,9.2-2.8
		c0.434-0.033,0.867-0.066,1.3-0.1c0.733-0.1,1.483-0.25,2.25-0.45c1.133-0.267,1.816-0.4,2.05-0.4c5.4,0,8.833-0.517,10.3-1.55
		c0.534-0.367,1.4-1.083,2.6-2.15c1.467-1.133,3.283-2.217,5.45-3.25c1.033-0.467,2.483-1.017,4.35-1.65
		c2.733-0.867,4.9-1.317,6.5-1.35c1.333,0,6.066-0.6,14.2-1.8l-3,2.55L66,6.3c5.134-0.667,9.384-1.017,12.75-1.05l-1.55-1.4
		c0.399-0.467,1.05-0.917,1.95-1.35c0.6-0.333,1.083-0.533,1.449-0.6h0.2L81,1.85C85.667,1.183,88.05,0.817,88.15,0.75z
		 M102.45,17.65c0.633-0.533,1.733-0.983,3.3-1.35c-0.8,2.1-2.134,2.833-4,2.2C101.816,18.433,102.05,18.15,102.45,17.65z
		 M96.15,9.5L95.8,9.05c0.167,0.067,0.834,0.1,2,0.1c1.101,0.167,1.65,0.633,1.65,1.4c0,1-0.167,1.733-0.5,2.2
		c-0.5,0.667-1.483,1.017-2.95,1.05c0.6-0.733,0.917-1.117,0.95-1.15c0.267-0.566,0.366-1.35,0.3-2.35l-0.3,0.15
		C96.95,10.25,96.684,9.933,96.15,9.5z M85.5,21.9l1.65,0.05c0.899,0,1.583-0.167,2.05-0.5c0.3-0.233,0.684-0.717,1.149-1.45
		c0.2,0,0.384-0.1,0.551-0.3c0.133-0.233,0.199-0.5,0.199-0.8l0.051-0.3c-0.134-0.5-0.284-0.833-0.45-1L96.6,18l0.75,0.3
		c-0.333,0.367-0.699,0.717-1.1,1.05c-0.6,0.5-1.217,1-1.85,1.5l-1.551-0.3c0.7,0.3,1.134,0.483,1.301,0.55
		c-0.467,0.467-1.917,1.3-4.351,2.5c-3.033,1.5-4.684,2.333-4.95,2.5l-4.05,1.05l-2.5,0.8c0.3-0.934,1.5-2.017,3.601-3.25
		c0.866-0.5,1.6-0.95,2.199-1.35c0.134-0.033,0.267-0.05,0.4-0.05l-0.25-0.1C84.95,22.667,85.366,22.233,85.5,21.9z M47.2,17.4
		c-0.067,0.233-0.25,0.434-0.55,0.6c-0.367,0.167-0.783,0.25-1.25,0.25c-0.867,0-2.917-0.317-6.15-0.95c3.4,0,5.85,0,7.35,0
		L47.2,17.4z M52.35,23.45l3.1-0.1c0.8,0,1.55,0.183,2.25,0.55c0.6,0.267,1.017,0.583,1.25,0.95c-1.033,1.267-2.917,2.217-5.65,2.85
		c-2.3,0.533-3.633,1.566-4,3.1c-0.5,0.2-1.867,0.3-4.1,0.3c-2.733-0.033-4.767-0.367-6.1-1c-0.4-0.2-1.267-0.417-2.6-0.65
		c0.8-0.467,1.9-0.9,3.3-1.3c1-0.3,1.784-0.8,2.35-1.5c2.8,0.233,5.434,0.1,7.9-0.4c2.367-0.5,3.95-1.183,4.75-2.05
		c-0.033-0.167-0.267-0.217-0.7-0.15l-0.7,0.1l-0.95-0.3L52.35,23.45z M42.15,26.65L41.4,26.6c0.8-0.567,1.967-0.9,3.5-1
		c0.867-0.067,2.267-0.117,4.2-0.15C47.4,26.283,45.083,26.683,42.15,26.65z"/>
	<path style="fill-rule:evenodd;clip-rule:evenodd;fill:#C3B9AC;" d="M102.75,17.05L99.25,17c0.134-0.133,0.316-0.35,0.55-0.65
		c0.334-0.267,0.9-0.45,1.7-0.55L102.75,17.05z M96.15,9.5c0.133,0.4-0.067,0.983-0.601,1.75c-1.434,0.767-2.55,1.3-3.35,1.6
		L92.1,12.9c-0.166,0-0.466,0-0.899,0c-1.934,0-3.983-0.367-6.15-1.1c-2-0.7-4.899-0.966-8.7-0.8l-2,0.05
		c0.801-0.1,1.967-0.316,3.5-0.65c3-0.467,8.717-1.167,17.15-2.1l0.8,0.75L96.15,9.5z M19.7,22.5c0.033-0.033,0.083-0.033,0.15,0
		l2.2-0.45l4.7-0.75c2.5-0.2,4.017-0.216,4.55-0.05c0.2,0.167,0.417,0.317,0.65,0.45c0.133,0.133,0.2,0.417,0.2,0.85
		c0,0.667-0.333,1.217-1,1.65c-0.633,0.433-1.45,0.65-2.45,0.65c-2.967,0-5.3-0.2-7-0.6c-1.367-0.3-2.05-0.667-2.05-1.1
		C19.65,22.75,19.667,22.533,19.7,22.5z M35.55,25.9l1.95,0.9c-0.767,0.1-1.483,0.15-2.15,0.15c-0.733,0-1.383-0.067-1.95-0.2v-0.6
		C33.967,25.583,34.683,25.5,35.55,25.9z M52,24.35l-1.55,0.5c-0.733,0.133-1.684,0.2-2.85,0.2c-5-0.233-8.15-0.566-9.45-1
		c-0.066,0-0.117-0.017-0.15-0.05l0.2-0.1c0.5-0.233,1.867-0.85,4.1-1.85c3.434-0.867,6.784-0.4,10.05,1.4l0.1,0.4L52,24.35z
		 M56.6,12.3c0.101,0.1,0.217,0.15,0.351,0.15c0.1,0.066,0.149,0.3,0.149,0.7c0,0.133-0.233,0.8-0.699,2
		c-0.434,1.1-0.734,1.833-0.9,2.2l-4.7,0.6c-1.633-0.133-2.833-0.317-3.6-0.55l-0.6-0.1c-3.233-0.833-4.983-1.316-5.25-1.45
		c-0.033-0.133-0.2-0.35-0.5-0.65c0.167-0.233,0.833-0.567,2-1c1.367-0.534,3.05-1.034,5.05-1.5c2.733-0.8,4.367-1.2,4.9-1.2
		c0.367,0.033,1.184,0.133,2.45,0.3L56.6,12.3z M81.4,21.95l2.85,1.25l0.25,0.1c-0.134,0-0.267,0.017-0.4,0.05
		c-2.566,0.133-4.166,0.2-4.8,0.2l-1.8-0.15L77.1,23l-0.149-0.2c1.333-0.667,2.566-0.95,3.7-0.85h0.05c0.066,0,0.116,0,0.149,0H81.4
		z M88.9,20.5l-9.051,0.6L74.9,21c-0.034,0.033-0.084,0.033-0.15,0c-0.1-0.067-0.15-0.3-0.15-0.7c0-0.667,1.684-1.5,5.051-2.5
		c3.966-1.167,7.649-1.233,11.05-0.2c0.166,0.167,0.316,0.5,0.45,1l-0.7,1.05L91.1,18.9c0,0.3-0.066,0.567-0.199,0.8
		C90.733,19.9,90.55,20,90.35,20l0.101-0.35C90.017,19.983,89.5,20.267,88.9,20.5z M66.2,15.6c-0.367,0.1-0.816,0.15-1.351,0.15
		c-0.533,0-0.983-0.05-1.35-0.15c-0.366-0.133-0.55-0.283-0.55-0.45c0-0.167,0.184-0.3,0.55-0.4c0.366-0.133,0.816-0.2,1.35-0.2
		c0.534,0,0.983,0.067,1.351,0.2c0.366,0.1,0.55,0.233,0.55,0.4C66.75,15.317,66.566,15.467,66.2,15.6z M63.9,26.2l0.55-1.25
		l2.3,0.6C66.15,25.783,65.2,26,63.9,26.2z M61,23.7c-0.366,0.066-0.8,0.066-1.3,0c-0.167-0.133-0.316-0.317-0.45-0.55l0.3-0.05
		c0.334,0.033,0.983-0.067,1.95-0.3L61,23.7z M78.5,24.8c-0.333,0.6-0.833,0.9-1.5,0.9l-1.3-0.05L75.1,25.3
		c0.667-0.3,1.467-0.45,2.4-0.45L78.5,24.8z"/>
	<path style="fill-rule:evenodd;clip-rule:evenodd;fill:#635B52;" d="M77.8,57.75c-0.833,0.4-1.45,0.733-1.85,1l1.399-1.95
		c0.334-0.434,0.884-1.1,1.65-2c0.866-1.066,1.85-2.45,2.95-4.149l0.2-0.15c-0.267,1.434-0.45,2.316-0.551,2.65
		c-0.066,0.267-0.25,0.8-0.55,1.6l0.7-0.3c0.533-0.4,1.65-1.566,3.35-3.5c1.434-1.601,2.384-2.434,2.851-2.5
		c1.533-0.267,2.899-0.45,4.1-0.55c0.566-0.133,1.2-0.55,1.9-1.25c0.833-0.967,1.583-1.816,2.25-2.55
		c0.399-0.533,1.116-1.7,2.149-3.5c0.067-0.1,1.051-1.717,2.95-4.85c1.9-3.267,2.851-5.383,2.851-6.35
		c0.1-1.133,0.116-2.783,0.05-4.95c5-3.833,7.733-6.55,8.2-8.15c0.033,0.7,0.05,1.45,0.05,2.25c0.066,2.267,0.033,4.333-0.101,6.2
		c-0.133,2.4-1.3,4.617-3.5,6.65c-2.566,1.967-4.3,3.367-5.199,4.2c-2.567,2.4-4.617,5.1-6.15,8.1
		c-1.533,2.933-3.033,5.083-4.5,6.45c-3.634,3.333-6.5,5.35-8.6,6.05C82.033,56.533,79.833,57.05,77.8,57.75z M12.95,63.25L12.55,63
		c-0.267-0.267-0.566-0.634-0.9-1.1l-0.4-0.801C11.417,61.366,11.983,62.083,12.95,63.25z M23.35,66c-0.5,0.267-0.867,0.65-1.1,1.15
		l-0.05,1.5c-0.067,1.733-0.083,4.466-0.05,8.199c-0.167-0.6-0.617-2.517-1.35-5.75c-0.8-3.6-1.383-6.083-1.75-7.449
		c-0.133-0.634-0.216-1.217-0.25-1.75l6.3,3.649C24.067,65.783,23.483,65.934,23.35,66z M30.4,66.75l1.65,0.7
		c-2.066-0.134-3.5-0.283-4.3-0.45L30.4,66.75z M21,62l6.4,3.1c-2.867-1-4.55-1.616-5.05-1.85C21.817,63.05,21.367,62.634,21,62z
		 M13.25,53l-2.05-5.7c1.433,1.434,2.417,2.634,2.95,3.601c0.2,0.399,0.333,0.767,0.4,1.1l0.85,2.5l0.35,1.35
		c-0.367-0.366-0.683-0.683-0.95-0.949c-0.433,0-0.8-0.184-1.1-0.551C13.4,53.983,13.25,53.533,13.25,53z M9.75,23.3
		c-1.1,0.833-1.95,2.017-2.55,3.55c-0.5,1.2-0.75,2.3-0.75,3.3c0,3.467,0.7,6.483,2.1,9.05c1.4,2.533,2.1,4.7,2.1,6.5l-0.55-1.45
		c0.033,0.367,0.3,1.583,0.8,3.65c0.267,1.067,0.533,2.083,0.8,3.05c0.3,1.333,0.45,2.3,0.45,2.899l-1.25,4.4l-0.15,0.8
		c-0.6-1.866-1.067-3.517-1.4-4.95c-0.333-1.3-0.617-3.649-0.85-7.05c-0.233-3.033-0.533-4.966-0.9-5.8
		c-1.233-2.733-2.167-5.983-2.8-9.75c-0.5-3-0.7-5.1-0.6-6.3c-0.067-0.034-0.817-0.167-2.25-0.4c-0.4-1.5-0.6-2.583-0.6-3.25
		c0-0.466,0.083-0.833,0.25-1.1c0.4,0.066,1.15,0.233,2.25,0.5l0.8,0.25l3,1.1H7.8c1.967-0.7,3.167-1.05,3.6-1.05
		c0.4-0.1,1.733-0.183,4-0.25l3.1,0.1l0.95,0.2c-0.667,0.367-1.65,0.65-2.95,0.85c-3.967,0.233-6.317,0.55-7.05,0.95
		C9.983,23.233,10.083,23.3,9.75,23.3z M96.05,29.7c-0.166,0.433-0.25,0.316-0.25-0.35l0.05-0.75l0.2-1.1
		c0.134-0.7,0.017-1.4-0.35-2.1l-2.45-2.15c0.467-0.133,1.1-0.033,1.9,0.3c0.866,0.333,1.616,0.817,2.25,1.45
		c0.533,0.733,0.767,1.7,0.699,2.9c0.167-0.267,0.483-0.5,0.95-0.7c0.2-0.1,0.4-0.184,0.601-0.25c-0.434,1.233-0.95,2.2-1.551,2.9
		c-0.066,0.033-0.399,0.3-1,0.8c-0.066-0.2-0.267-0.417-0.6-0.65L96.05,29.7z M73.4,44.9L72.3,45.2v-0.1c0.834-0.2,1.5-0.583,2-1.15
		c0.566-0.667,1.101-1.767,1.601-3.3l0.5-0.9c0.699-0.5,1.533-1.1,2.5-1.8c0.633-0.767,0.949-2.15,0.949-4.15l-0.3-2.8L79.4,29.8
		L79.3,29.25l1.4-0.85c0.2,5.8,0.05,9.217-0.45,10.25C79.95,39.25,77.667,41.333,73.4,44.9z M67.6,20.9
		c-1.899,0.233-3.366,1-4.399,2.3c-2.101,2.667-3.184,4.017-3.25,4.05c-0.334,0.267-0.667,0.467-1,0.6
		c-0.101,0.033-1.101,0.933-3,2.7l-1.55,1.5l-0.1,0.1c-0.733,0.667-1.35,1.633-1.85,2.9c-0.267,0.7-0.567,1.6-0.9,2.7
		c-0.367-0.733-0.6-1.1-0.7-1.1c-0.1-1.733-0.45-3.2-1.05-4.4l0.15-1.45c0.267-0.6,1.85-1.633,4.75-3.1c3.233-1.6,5.333-2.934,6.3-4
		l0.5-0.9c0.033-0.4,0.083-0.7,0.15-0.9c0.1-0.3,0.5-0.667,1.199-1.1C63.184,20.867,64.767,20.9,67.6,20.9z M68.25,62.85L66.5,64.6
		c-2.4,2-4.066,3.684-5,5.051c-1.733,2.6-1.866,4.966-0.4,7.1v0.3c-0.666-0.666-1.183-1.283-1.55-1.85
		c-0.967-1.4-1.45-2.783-1.45-4.15c0-0.5,0.2-1.033,0.601-1.6c0.366-0.566,0.55-0.9,0.55-1c0-1.233-0.116-2.117-0.35-2.65
		c-0.301-0.7-0.867-1.083-1.7-1.149L56.9,64.3c0.066,0,1.199-0.066,3.399-0.2c2.334-0.233,3.884-0.6,4.65-1.1l1.149-1.05l1.5-1.101
		L67.7,60.8h0.149l0.051-0.05l0.024-0.05l0.125-0.25c0.5-0.533,0.851-1.05,1.05-1.55l2,1c-0.199,0.233-0.666,0.75-1.399,1.55
		C68.833,62.35,68.35,62.816,68.25,62.85z M50.05,67.1l1.05,0.15l-0.9,0.4c-0.333,0.133-1.3,0.55-2.9,1.25
		c-0.733,0.333-2.15,0.783-4.25,1.35c-0.833,0.134-2.05,0.583-3.65,1.35c-1.8,0.834-2.75,1.267-2.85,1.301
		c0.4-0.801,0.684-1.4,0.85-1.801c0.3-0.666,0.45-1.216,0.45-1.649c0-0.167-0.167-0.434-0.5-0.8c-0.434-0.567-1.05-1.067-1.85-1.5
		l-0.8-0.45L34.55,66.6l0.6-0.05c3.5,0.267,6.8,0.267,9.9,0l1,0.05C47.083,66.7,48.417,66.866,50.05,67.1z M69.35,64.95H69.1
		L69,64.6c0.333-0.333,0.967-0.883,1.9-1.649c0.966-0.767,1.55-1.2,1.75-1.3L73.1,61.55c-0.066,0.4-0.6,0.967-1.6,1.7
		C70.5,64.017,69.783,64.583,69.35,64.95z M61.15,54l-0.25,1.7c-0.2,0.967-0.517,1.733-0.95,2.3L61.15,54z"/>
	<path style="fill-rule:evenodd;clip-rule:evenodd;fill:#8C847C;" d="M92.25,0.4l-4.1,0.35l2.55-0.6L92.25,0.4z M98.2,2.4
		c-0.101,0-0.184,0.017-0.25,0.05C92.217,2.95,88.134,3.2,85.7,3.2c-0.634,0-1.283-0.067-1.95-0.2l0.3-0.55
		c0.467-0.267,1.983-0.534,4.55-0.8C90.7,1.417,92.1,1.3,92.8,1.3c1.8,0,2.983,0.083,3.55,0.25L98.2,2.4z M97.25,10.3
		c0.066,1-0.033,1.784-0.3,2.35C96.917,12.683,96.6,13.067,96,13.8c-0.366,0.034-2.033-0.017-5-0.15l-0.9-0.3l2-0.45l0.101-0.05
		c0.8-0.3,1.916-0.833,3.35-1.6L97.25,10.3z M24.5,15.85c0.4-0.133,0.75-0.267,1.05-0.4c0.733-0.3,1.967-1.133,3.7-2.5
		c4.1-3.133,10.95-6.133,20.55-9C54.133,2.683,64.267,2,80.2,1.9H80.6c-0.366,0.067-0.85,0.267-1.449,0.6
		c-0.9,0.433-1.551,0.883-1.95,1.35l1.55,1.4C75.384,5.283,71.134,5.633,66,6.3l-1.1,0.35l3-2.55c-8.134,1.2-12.867,1.8-14.2,1.8
		c-1.6,0.033-3.767,0.483-6.5,1.35c-1.867,0.633-3.317,1.183-4.35,1.65c-2.167,1.033-3.983,2.117-5.45,3.25
		c-1.2,1.067-2.066,1.783-2.6,2.15C33.333,15.333,29.9,15.85,24.5,15.85z M55.5,17.35c1.434-0.367,2.55-0.767,3.35-1.2
		c0.4-0.233,0.784-0.683,1.15-1.35c0.167,0.5,0.333,0.833,0.5,1l0.1,0.85c0,0.434-0.066,0.75-0.199,0.95L60,18.1
		c-0.467,0.2-1.366,0.367-2.7,0.5c-1.1,0.1-2,0.15-2.7,0.15c-0.5,0-1.2-0.083-2.1-0.25c-0.9-0.2-1.467-0.383-1.7-0.55L55.5,17.35z
		 M91.15,18.6L91.1,18.9l-0.649,0.75L91.15,18.6z M81.4,21.95H80.85c-0.033,0-0.083,0-0.149,0h-0.05l-0.851-0.1l-0.75-0.25
		c0.367-0.2,1.75-0.383,4.15-0.55c2.8-0.167,4.7-0.35,5.7-0.55c0.6-0.233,1.116-0.517,1.55-0.85L90.35,20
		c-0.466,0.733-0.85,1.217-1.149,1.45c-0.467,0.333-1.15,0.5-2.05,0.5L85.5,21.9C84.566,21.867,83.2,21.883,81.4,21.95z
		 M50.45,24.85l1.55-0.5l1.4-0.2l0.7-0.1c0.433-0.066,0.667-0.017,0.7,0.15c-0.8,0.867-2.383,1.55-4.75,2.05
		c-2.466,0.5-5.1,0.633-7.9,0.4c2.934,0.033,5.25-0.367,6.95-1.2L50.45,24.85z"/>
	<path style="fill-rule:evenodd;clip-rule:evenodd;fill:#7C7367;" d="M3.85,20.95c-1.1-0.267-1.85-0.434-2.25-0.5L0,20.25
		c3.9-1.6,7.333-2.8,10.3-3.6c6.667-1.733,10.8-2.833,12.4-3.3c1.7-0.5,2.95-1.083,3.75-1.75c0.5-0.367,1.216-1.017,2.15-1.95
		c2.533-2.033,8.383-4.367,17.55-7C52.417,0.883,58.1,0,63.2,0c0.333,0,1.783,0.167,4.35,0.5c2.566,0.3,4.017,0.45,4.351,0.45
		c0.333,0,2.716-0.15,7.149-0.45c4.9-0.267,8.783-0.383,11.65-0.35l-2.55,0.6C88.05,0.817,85.667,1.183,81,1.85L80.2,1.9
		C64.267,2,54.133,2.683,49.8,3.95c-9.6,2.867-16.45,5.867-20.55,9c-1.733,1.367-2.967,2.2-3.7,2.5c-0.3,0.133-0.65,0.267-1.05,0.4
		c-0.233,0-0.917,0.133-2.05,0.4c-0.767,0.2-1.517,0.35-2.25,0.45c-0.434,0.033-0.867,0.066-1.3,0.1c-2.533,0.934-5.6,1.867-9.2,2.8
		c-2.3,0.566-4,0.95-5.1,1.15L3.85,20.95z M100.55,26.65c-0.1,0.9-0.684,2.467-1.75,4.7c-1.233,2.566-2.467,4.467-3.7,5.7
		c-1.033,1.034-2.216,2.467-3.55,4.3c-2.033,2.767-3.05,4.85-3.05,6.25c2.5-0.1,4.316-0.417,5.45-0.95
		c-0.7,0.7-1.334,1.117-1.9,1.25c-1.2,0.1-2.566,0.283-4.1,0.55c-0.467,0.066-1.417,0.899-2.851,2.5
		c-1.699,1.934-2.816,3.1-3.35,3.5l-0.7,0.3c0.3-0.8,0.483-1.333,0.55-1.6c0.101-0.334,0.284-1.217,0.551-2.65
		c0.267-0.167,0.916-0.717,1.949-1.65c1-0.9,1.551-1.4,1.65-1.5c1.066-1.3,1.833-2.367,2.3-3.2c0.2-0.3,0.5-0.9,0.9-1.8
		c0.333-0.633,0.517-0.75,0.55-0.35c0.267,0.233,0.417,0.417,0.45,0.55c0.366-0.3,0.866-0.867,1.5-1.7
		c0.566-0.733,1.533-2.033,2.899-3.9c0.867-1.034,1.434-3.45,1.7-7.25L96.5,30c0.333,0.233,0.533,0.45,0.6,0.65
		c0.601-0.5,0.934-0.767,1-0.8c0.601-0.7,1.117-1.667,1.551-2.9L100.55,26.65z M84.4,32.7L84.1,32.55l-0.8,2.95
		c-0.967,4.433-1.467,6.683-1.5,6.75c-0.533,1.167-1.233,1.967-2.1,2.4c-1.101,0.367-2.033,0.717-2.8,1.05
		c-0.967,0.466-2.217,2.533-3.75,6.2c-1.567,3.733-2.884,5.916-3.95,6.55l0.2-0.55c0.3-0.9,0.899-2.134,1.8-3.7
		c0.733-1.267,1.1-2.101,1.1-2.5l-0.25-3l0.05-1.25L73.4,44.9c4.267-3.566,6.55-5.65,6.85-6.25c0.5-1.033,0.65-4.45,0.45-10.25
		c0.633-0.3,1.467-0.55,2.5-0.75c0.899-0.167,1.633-0.25,2.2-0.25c0.666,0,4.216,0.033,10.649,0.1l-0.2,1.1l-0.199-0.9
		c-0.567,0.267-1.101,0.5-1.601,0.7c-0.934,0.4-1.717,0.6-2.35,0.6L88.6,27.8c-0.6,0-1.283,0.367-2.05,1.1
		C85.583,29.8,84.866,31.067,84.4,32.7z M100.8,26.55l2.45-1.4l0.4-0.25c-0.5,1.767-0.851,2.917-1.051,3.45
		c-0.466,1.333-0.933,2.233-1.399,2.7C100.967,28.85,100.833,27.35,100.8,26.55z M104.15,29.4c0,0.967-0.95,3.083-2.851,6.35
		c-1.899,3.133-2.883,4.75-2.95,4.85c0.301-1.5,0.917-3.067,1.851-4.7C100.267,35.8,101.583,33.633,104.15,29.4z M62.85,49.55
		L63,49.9l0.2,1.3c0,0.1,0.033,0.483,0.1,1.149c-0.1,0.834-0.467,1.733-1.1,2.7C62.366,54.517,62.583,52.684,62.85,49.55z
		 M77.35,56.8c0.301-0.7,0.767-1.517,1.4-2.45c1.033-1.6,2.1-2.833,3.2-3.699C80.85,52.35,79.866,53.733,79,54.8
		C78.233,55.7,77.684,56.366,77.35,56.8z M37.8,30.95l3.4,0.65c-0.1,0.5-0.55,1.75-1.35,3.75c-0.833,1.967-1.383,3.183-1.65,3.65
		c-0.5,0.767-1,1.267-1.5,1.5h-0.55c0.6-0.3,1.1-1.317,1.5-3.05C38.117,35.45,38.167,33.283,37.8,30.95z M76.4,39.75
		c0.1-1,0.3-2.017,0.6-3.05l2.2-3.1c0.233-0.967,0.35-1.833,0.35-2.6l0.3,2.8c0,2-0.316,3.383-0.949,4.15
		C77.934,38.65,77.1,39.25,76.4,39.75z M61.85,63.1c-0.166,0.2-0.283,0.284-0.35,0.25c-0.033-0.033-0.05-0.3-0.05-0.8
		c0-0.866,0.283-2.467,0.85-4.8c0.533-2.333,0.8-3.55,0.8-3.65l0.051,3.4c-0.067,1.566-0.2,2.733-0.4,3.5
		C62.583,61.634,62.283,62.333,61.85,63.1z M20.15,50.75c0.067,2.4-0.017,3.884-0.25,4.45l-0.1-0.15
		c-0.2-0.666-0.65-4.816-1.35-12.45c-0.7-7.467-1.05-11.833-1.05-13.1c0-1.033,0.117-2.05,0.35-3.05l2.2,0.45
		c-0.267,1.133-0.434,2.533-0.5,4.2c0,0.033,0.117,2.283,0.35,6.75C20,41.517,20.117,45.817,20.15,50.75z M68.05,60.45l-0.125,0.25
		c0.081-0.169,0.122-0.311,0.125-0.425V60.45z M66.5,64.6l1.75-1.75c0.267,0.2,0.566,0.351,0.9,0.45
		c-0.233,0.434-0.334,0.783-0.301,1.05c0.034,0.134,0.084,0.217,0.15,0.25l0.1,0.351c-1.233,0.733-2.3,1.283-3.199,1.649l0.75-2.05
		L66.5,64.6z"/>
	<path style="fill-rule:evenodd;clip-rule:evenodd;fill:#898074;" d="M77.8,58.45l2-0.9c-1.666,2.101-2.883,3.917-3.649,5.45
		c-0.434,0.866-1.551,2.167-3.351,3.9c-0.3,0.3-0.983,1.216-2.05,2.75c-0.967,1.433-1.5,2.233-1.6,2.399l-0.4,0.5
		c0.967-3.366,1.167-5.899,0.6-7.6c0.434-0.367,1.15-0.934,2.15-1.7c1-0.733,1.533-1.3,1.6-1.7L72.65,61.65
		c-0.2,0.1-0.784,0.533-1.75,1.3c-0.934,0.767-1.567,1.316-1.9,1.649c-0.066-0.033-0.116-0.116-0.15-0.25
		c-0.033-0.267,0.067-0.616,0.301-1.05c-0.334-0.1-0.634-0.25-0.9-0.45c0.1-0.033,0.583-0.5,1.45-1.399
		c0.733-0.8,1.2-1.316,1.399-1.55l-2-1c-0.199,0.5-0.55,1.017-1.05,1.55v-0.175c-0.003,0.114-0.044,0.256-0.125,0.425L67.9,60.75
		L67.85,60.8H67.7L67.6,60.85l-1.5,1.101c0.434-2.233,1.601-4.617,3.5-7.15c1.667-2.2,2.483-4.233,2.45-6.1l0.25,3
		c0,0.399-0.366,1.233-1.1,2.5c-0.9,1.566-1.5,2.8-1.8,3.7l-0.2,0.55c1.066-0.634,2.383-2.816,3.95-6.55
		c1.533-3.667,2.783-5.734,3.75-6.2c0.767-0.333,1.699-0.684,2.8-1.05c0.866-0.433,1.566-1.233,2.1-2.4
		c0.033-0.067,0.533-2.317,1.5-6.75c-0.166,2.9-0.316,4.917-0.45,6.05c0.067,0.1,0.084,0.2,0.051,0.3C82.967,41.95,83.2,42,83.6,42
		c1.067-0.167,1.884-0.967,2.45-2.4c0.634-1.567,0.967-2.45,1-2.65c0.167-1.733-0.717-3.15-2.649-4.25
		c0.466-1.633,1.183-2.9,2.149-3.8c0.767-0.733,1.45-1.1,2.05-1.1L91.7,29c0.633,0,1.416-0.2,2.35-0.6
		c0.5-0.2,1.033-0.433,1.601-0.7l0.199,0.9l-0.05,0.75c0,0.667,0.084,0.783,0.25,0.35c-0.267,3.8-0.833,6.216-1.7,7.25
		c-1.366,1.867-2.333,3.167-2.899,3.9c-0.634,0.833-1.134,1.4-1.5,1.7c-0.033-0.133-0.184-0.316-0.45-0.55
		c-0.033-0.4-0.217-0.283-0.55,0.35c-0.4,0.9-0.7,1.5-0.9,1.8c-0.467,0.833-1.233,1.9-2.3,3.2c-0.1,0.1-0.65,0.6-1.65,1.5
		c-1.033,0.933-1.683,1.483-1.949,1.65l-0.2,0.15c-1.101,0.866-2.167,2.1-3.2,3.699c-0.634,0.934-1.1,1.75-1.4,2.45l-1.399,1.95
		l-0.4,0.3L76.3,58.9C76.9,58.8,77.4,58.65,77.8,58.45z M11.3,28.1c-0.566,1.267-0.85,2.467-0.85,3.6c0,0.667,0.033,0.95,0.1,0.85
		l-0.1,1.05c0,0.533,0.4,1.617,1.2,3.25c0.867,1.767,1.35,2.95,1.45,3.55c0.133,0.8,0.183,2.434,0.15,4.9
		c0.067,2.1,0.367,3.967,0.9,5.601c-0.533-0.967-1.517-2.167-2.95-3.601l2.05,5.7c-0.633-0.7-1.15-1.384-1.55-2.05
		c-0.267-0.967-0.534-1.983-0.8-3.05c-0.5-2.066-0.767-3.283-0.8-3.65l0.55,1.45c0-1.8-0.7-3.967-2.1-6.5
		c-1.4-2.567-2.1-5.583-2.1-9.05c0-1,0.25-2.1,0.75-3.3c0.6-1.533,1.45-2.717,2.55-3.55l2.35,1.25L11.3,28.1z M35.15,66.55
		c-0.867-1.3-1.6-3.75-2.2-7.35c-0.467-2.867-0.7-5.15-0.7-6.851l0.2-4.8l0.4,3.65l0.25-0.9l0.3-0.7
		c0.533,4.767,1.067,7.65,1.6,8.65c1.3,2.467,4.65,5.233,10.05,8.3C41.95,66.816,38.65,66.816,35.15,66.55z M50.2,67.65l0.9-0.4
		l-1.05-0.15c1.567-1.6,3.517-3.233,5.85-4.899c1.734-1.233,2.867-2.316,3.4-3.25c1.233-2.2,1.851-9.384,1.851-21.55
		c-0.301-2.3-0.65-4.017-1.051-5.15h0.551l2.25,0.05c1.5,0,5.6-0.583,12.3-1.75c-2.101,1.467-3.834,2.667-5.2,3.6l-2.75,1.7
		c-0.4,0.4-0.7,0.733-0.9,1c-1.3,1.167-1.966,2.133-2,2.9c-0.033,1.667,0.017,4.8,0.15,9.4c0,4.1-0.45,6.883-1.35,8.35L63.1,54.1
		c0,0.101-0.267,1.317-0.8,3.65c-0.566,2.333-0.85,3.934-0.85,4.8c0,0.5,0.017,0.767,0.05,0.8c0.066,0.034,0.184-0.05,0.35-0.25
		c0.867,0.067,1.9,0.034,3.101-0.1c-0.767,0.5-2.316,0.866-4.65,1.1c-2.2,0.134-3.333,0.2-3.399,0.2l0.3,0.351
		c0.833,0.066,1.399,0.449,1.7,1.149c0.233,0.533,0.35,1.417,0.35,2.65c0,0.1-0.184,0.434-0.55,1c-0.4,0.566-0.601,1.1-0.601,1.6
		c0,1.367,0.483,2.75,1.45,4.15c0.367,0.566,0.884,1.184,1.55,1.85v-0.3c-1.466-2.134-1.333-4.5,0.4-7.1
		c0.934-1.367,2.6-3.051,5-5.051l0.15-0.05L65.9,66.6c-0.834,1.034-1.567,1.967-2.2,2.801c-1.167,1.6-1.75,3.5-1.75,5.699
		c0,0.667,0.05,1.884,0.149,3.65l0.051,1.05c-0.601-0.8-1.217-1.783-1.851-2.95c-0.666-1.199-1.333-2.233-2-3.1
		c-1.2-2.333-2.667-3.866-4.4-4.6C52.133,68.684,50.9,68.184,50.2,67.65z M34.25,81.5c-0.3,0.533-0.583,1.3-0.85,2.3
		c-0.267,0.967-0.367,1.634-0.3,2c-0.067,1.533,0.033,2.867,0.3,4c-0.3-0.233-0.583-0.517-0.85-0.85
		c-0.167-0.2-0.316-0.417-0.45-0.65c-0.667-1.333-1-3.467-1-6.399c0-1.867,0.05-3.134,0.15-3.801v-0.05
		c0.167-1.166,0.583-2.434,1.25-3.8c0.1-0.2,0.7-1.033,1.8-2.5c1-1.634,1.4-3.167,1.2-4.6c0.8,0.433,1.417,0.933,1.85,1.5
		c0.333,0.366,0.5,0.633,0.5,0.8c0,0.434-0.15,0.983-0.45,1.649c-0.167,0.4-0.45,1-0.85,1.801c0.1-0.034,1.05-0.467,2.85-1.301
		c1.6-0.767,2.817-1.216,3.65-1.35c-0.8,1.333-2.267,2.434-4.4,3.3c-1.5,0.634-2.533,2.617-3.1,5.95
		C35.183,80.233,34.75,80.9,34.25,81.5z M20.15,50.75c0.033,0.3,0.883,3.033,2.55,8.2l0.1,1.45L22.75,59.1l1.9,3.301l-3.75-1.95
		l0.8,0.8L21,62c-1.433-0.6-2.533-1.267-3.3-2c-0.633-0.566-0.967-0.85-1-0.85c-1.1,0-1.833-0.284-2.2-0.851
		c-0.233-0.399-0.35-1.149-0.35-2.25c0-0.399,0.083-0.684,0.25-0.85c0.067-0.066,0.2-0.167,0.4-0.3
		c0.267,0.267,0.583,0.583,0.95,0.949L15.4,54.5c0.7,1.934,1.434,3.066,2.2,3.4c1.2,0.5,2.033,1.017,2.5,1.55l-0.3-4.4l0.1,0.15
		C20.133,54.634,20.217,53.15,20.15,50.75z M14.35,67.1c-0.033-0.633-0.267-1.416-0.7-2.35c-0.4-0.866-0.633-1.366-0.7-1.5
		c1.167,0.8,1.867,1.316,2.1,1.55c0.267,0.267,0.95,1.15,2.05,2.65L16.75,66.6c-0.7-2.033-1.05-3.3-1.05-3.8
		c0-0.399,0.033-0.767,0.1-1.1l0.1-0.351l0.45,0.2c0.333,0.2,1.233,0.9,2.7,2.101C19.417,65.017,20,67.5,20.8,71.1
		c0.733,3.233,1.184,5.15,1.35,5.75c-0.033-3.733-0.017-6.466,0.05-8.199l0.05-1.5c0.233-0.5,0.6-0.884,1.1-1.15
		c1.066,0.366,2.533,0.7,4.4,1c-1.3,0.533-2.15,0.983-2.55,1.35c-0.534,0.634-1.2,1.284-2,1.95c-0.567,0.5-0.833,1.767-0.8,3.8
		c0.067,2.334-0.117,3.917-0.55,4.75L21.7,77.5c-0.534-2.3-1.067-4.033-1.6-5.2c-0.3-0.7-0.967-1.8-2-3.3v3.35
		c0,3.167-0.05,5.267-0.15,6.301l0.6,2.649l-0.05,0.55c-0.3-0.666-0.483-1.733-0.55-3.199C16.15,73.55,14.95,69.7,14.35,67.1z
		 M27.4,65.1c0.3,0.101,1.434,0.334,3.4,0.7c2.034,0.367,3.15,0.533,3.35,0.5l-0.25,0.2l-3.5,0.25L27.4,65.1z M62.85,49.55
		c-0.267,3.134-0.483,4.967-0.649,5.5c0.633-0.967,1-1.866,1.1-2.7c-0.066-0.666-0.1-1.05-0.1-1.149L63,49.9L62.85,49.55z
		 M103.65,24.9l0.149-0.15l0.4-0.3c0.066,2.167,0.05,3.816-0.05,4.95c-2.567,4.233-3.884,6.4-3.95,6.5
		c-0.934,1.633-1.55,3.2-1.851,4.7c-1.033,1.8-1.75,2.967-2.149,3.5c-0.667,0.733-1.417,1.583-2.25,2.55
		C92.816,47.183,91,47.5,88.5,47.6c0-1.4,1.017-3.483,3.05-6.25c1.334-1.833,2.517-3.267,3.55-4.3c1.233-1.233,2.467-3.133,3.7-5.7
		c1.066-2.233,1.65-3.8,1.75-4.7l0.25-0.1c0.033,0.8,0.167,2.3,0.4,4.5c0.467-0.466,0.934-1.367,1.399-2.7
		C102.8,27.817,103.15,26.667,103.65,24.9z M75.9,40.65c-0.5,1.533-1.034,2.633-1.601,3.3c-0.5,0.566-1.166,0.95-2,1.15
		c0.434-1.1,1.084-2.067,1.95-2.9C74.684,41.767,75.233,41.25,75.9,40.65z M72.1,47.45l0.2-2.25l1.101-0.3L72.1,47.45z M79.4,29.8
		l-0.2-0.45l0.1-0.1L79.4,29.8z M49.75,49.4c0,0.066-0.433,2.3-1.3,6.699c0.066-3.1-0.05-11.033-0.35-23.8l1.7-0.05
		c0.6,1.2,0.95,2.667,1.05,4.4c0.1,0,0.333,0.367,0.7,1.1c0.333-1.1,0.633-2,0.9-2.7c0.5-1.267,1.117-2.233,1.85-2.9l-0.85,3.75
		c-1.6,3.333-2.6,5.733-3,7.2C50.05,44.567,49.817,46.667,49.75,49.4z M38.2,39c0.267-0.467,0.816-1.683,1.65-3.65
		c0.8-2,1.25-3.25,1.35-3.75l1.8,0.3c-0.967,1.533-1.617,2.6-1.95,3.2c-0.566,1-1.033,2.333-1.4,4l-1.45,0.95V39z M79.2,33.6
		L77,36.7c0.167-0.434,0.583-1.067,1.25-1.9C78.583,34.367,78.9,33.967,79.2,33.6z M61.15,54l-1.2,4
		c0.434-0.566,0.75-1.333,0.95-2.3L61.15,54z"/>
	<path style="fill-rule:evenodd;clip-rule:evenodd;fill:#9B9286;" d="M72.8,66.9c-0.033,0.133-0.649,1.383-1.85,3.75
		c-1.167,2.267-1.834,4.383-2,6.35c-0.134,1.467-0.566,4.384-1.3,8.75c-0.634,3.934-1.017,7.25-1.15,9.95v1.35
		c-1.5-4.566-2.967-10.666-4.4-18.3c-0.1-1.767-0.149-2.983-0.149-3.65c0-2.199,0.583-4.1,1.75-5.699
		c0.633-0.834,1.366-1.767,2.2-2.801c0.899-0.366,1.966-0.916,3.199-1.649h0.25c0.567,1.7,0.367,4.233-0.6,7.6l0.4-0.5
		c0.1-0.166,0.633-0.967,1.6-2.399C71.816,68.116,72.5,67.2,72.8,66.9z M77.8,58.45c-0.399,0.2-0.899,0.35-1.5,0.45l-0.75,0.149
		l0.4-0.3c0.399-0.267,1.017-0.6,1.85-1V58.45z M43.05,70.25c2.1-0.566,3.517-1.017,4.25-1.35c1.6-0.7,2.567-1.117,2.9-1.25
		c0.7,0.533,1.933,1.033,3.7,1.5c1.733,0.733,3.2,2.267,4.4,4.6c-1.1,0.333-1.983,0.5-2.65,0.5c-0.467,0-0.816-0.217-1.05-0.65
		c-0.267-0.466-0.917-0.699-1.95-0.699c-2.633,0-4.667,0.533-6.1,1.6c-1.1,1.2-1.816,1.917-2.15,2.15
		c-0.233,0.166-1.5,0.283-3.8,0.35c-2.067,0.066-3.75,0.9-5.05,2.5c0.567-3.333,1.6-5.316,3.1-5.95
		C40.783,72.684,42.25,71.583,43.05,70.25z M22.7,58.95c-1.667-5.167-2.517-7.9-2.55-8.2c-0.033-4.933-0.15-9.233-0.35-12.9
		c-0.233-4.467-0.35-6.717-0.35-6.75C19.483,31.667,20,36.2,21,44.7C21.967,53,22.533,57.75,22.7,58.95z M32.1,88.3
		c0.133,0.233,0.283,0.45,0.45,0.65L32.3,90.35l-0.1,0.101C32.167,89.684,32.133,88.967,32.1,88.3z M33.1,85.8
		c-0.067-0.366,0.033-1.033,0.3-2c0.267-1,0.55-1.767,0.85-2.3C33.75,83.033,33.367,84.467,33.1,85.8z M35.15,66.55l-0.6,0.05
		L34.7,66.7l0.8,0.45c0.2,1.433-0.2,2.966-1.2,4.6c-1.1,1.467-1.7,2.3-1.8,2.5c-0.667,1.366-1.083,2.634-1.25,3.8v0.05
		c-0.6-3.1-1.55-4.649-2.85-4.649c-4.667,0-6.55,5.033-5.65,15.1C21.083,86.217,19.833,82.9,19,78.6
		c-0.533-3.899-0.833-5.983-0.9-6.25V69c1.033,1.5,1.7,2.6,2,3.3c0.533,1.167,1.066,2.9,1.6,5.2l0.15,1.35
		c0.433-0.833,0.617-2.416,0.55-4.75c-0.033-2.033,0.233-3.3,0.8-3.8c0.8-0.666,1.466-1.316,2-1.95c0.4-0.366,1.25-0.816,2.55-1.35
		c0.8,0.167,2.233,0.316,4.3,0.45l-1.65-0.7l3.5-0.25l0.25-0.2c-0.2,0.033-1.316-0.133-3.35-0.5c-1.966-0.366-3.1-0.6-3.4-0.7L21,62
		l0.7-0.75l-0.8-0.8l3.75,1.95l-1.9-3.301L22.4,46.5c0-4.9,0.3-8.8,0.9-11.7c0.5-2.466,1.067-3.7,1.7-3.7
		c0.667,0,0.85,0.066,0.55,0.2c0.167,0.233,0.383,0.867,0.65,1.9c0.367,1,0.9,1.667,1.6,2c0.3-1.667,0.717-2.95,1.25-3.85
		c0.467-0.767,0.934-1.15,1.4-1.15c0.3,0,0.733,0.083,1.3,0.25c0.633,0.066,1.383-0.083,2.25-0.45l3.8,0.95
		c0.367,2.333,0.317,4.5-0.15,6.5c-0.4,1.733-0.9,2.75-1.5,3.05h0.55c0.5-0.233,1-0.733,1.5-1.5v1.05
		c-1.9,2.267-2.85,5.85-2.85,10.75c0,4.101,1.183,7.783,3.55,11.05l0.2-0.3c0.066,0.066,0.1-0.233,0.1-0.899
		c-0.2-1.934-0.267-3.9-0.2-5.9c0.133-4,0.817-6.467,2.05-7.4c1.567-1.2,2.717-3.867,3.45-8c0.433-4.2,0.7-6.583,0.8-7.15l2.8,0.1
		c0.3,12.767,0.417,20.7,0.35,23.8c0.867-4.399,1.3-6.633,1.3-6.699l-0.05,3.75c0,4.5,0.517,7.316,1.55,8.449
		c0.8-5.066,1.95-10.633,3.45-16.7c0.966-4,1.45-7.367,1.45-10.1L56.1,32.1l3.5,0.1l0.5,0.05c0.4,1.133,0.75,2.85,1.051,5.15
		c0,12.167-0.617,19.35-1.851,21.55c-0.533,0.934-1.666,2.017-3.4,3.25c-2.333,1.666-4.283,3.3-5.85,4.899
		c-1.633-0.233-2.966-0.399-4-0.5l-1-0.05c-5.4-3.066-8.75-5.833-10.05-8.3c-0.533-1-1.067-3.884-1.6-8.65l-0.3,0.7l-0.25,0.9
		l-0.4-3.65l-0.2,4.8c0,1.7,0.233,3.983,0.7,6.851C33.55,62.8,34.283,65.25,35.15,66.55z M54.4,32.05h0.5l0.6,0.05l-2.05,3.8
		l0.85-3.75L54.4,32.05z M12.55,63l0.4,0.25c0.066,0.134,0.3,0.634,0.7,1.5c0.434,0.934,0.667,1.717,0.7,2.35l-0.65,0.7
		C12.867,65.467,12.483,63.866,12.55,63z M1.95,24.8c1.433,0.233,2.183,0.367,2.25,0.4c-0.1,1.2,0.1,3.3,0.6,6.3
		c0.633,3.767,1.567,7.017,2.8,9.75c0.367,0.833,0.667,2.767,0.9,5.8c0.233,3.4,0.517,5.75,0.85,7.05
		c-3.333-8.133-5.434-14.183-6.3-18.149C2.65,34.017,2.283,30.3,1.95,24.8z M72.1,47.45l-0.05,1.25
		c0.033,1.866-0.783,3.899-2.45,6.1c-1.899,2.533-3.066,4.917-3.5,7.15L64.95,63c-1.2,0.134-2.233,0.167-3.101,0.1
		c0.434-0.767,0.733-1.466,0.9-2.1c0.2-0.767,0.333-1.934,0.4-3.5c0.899-1.467,1.35-4.25,1.35-8.35
		c-0.134-4.601-0.184-7.734-0.15-9.4c0.034-0.767,0.7-1.733,2-2.9c-0.199,0.267-0.3,0.483-0.3,0.65
		c-0.033,0.233-0.316,0.617-0.85,1.15c-0.5,0.467-0.75,0.883-0.75,1.25c0,0.667,0.116,4.567,0.35,11.7l0.25-1.55
		c0.7-3.267,1.483-6.333,2.351-9.2c0.433-1.4,1.05-2.184,1.85-2.35c0.4-0.1,0.884-0.1,1.45,0c0.733-0.3,1.866-1.083,3.399-2.35
		c0.567,0,0.9-0.217,1-0.65c0.134-0.467,0.317-2.133,0.551-5c0.899-0.033,1.683-0.2,2.35-0.5c0.366-0.167,0.767-0.383,1.2-0.65
		l0.2,0.45L79.55,31c0,0.767-0.116,1.633-0.35,2.6c-0.3,0.367-0.617,0.767-0.95,1.2c-0.667,0.833-1.083,1.467-1.25,1.9
		c-0.3,1.033-0.5,2.05-0.6,3.05l-0.5,0.9c-0.667,0.6-1.217,1.117-1.65,1.55c-0.866,0.833-1.517,1.8-1.95,2.9v0.1L72.1,47.45z
		 M11.3,28.1l0.8-3.55l0.9,0.4C12.2,26.683,11.633,27.733,11.3,28.1z M39.65,39.1c0.367-1.667,0.833-3,1.4-4
		c0.333-0.6,0.983-1.667,1.95-3.2l0.9,0.15c-0.433,0.667-1.083,2.034-1.95,4.1C41.417,37.45,40.65,38.433,39.65,39.1z M75.4,30.5
		c-0.534,0.9-1.434,1.667-2.7,2.3c-1.167,0.534-1.851,0.85-2.05,0.95L70,34.15c1.366-0.933,3.1-2.133,5.2-3.6L75.4,30.5z
		 M19.8,55.05l0.3,4.4c-0.467-0.533-1.3-1.05-2.5-1.55c-0.767-0.334-1.5-1.467-2.2-3.4L14.55,52c-0.066-0.333-0.2-0.7-0.4-1.1
		c-0.533-1.634-0.833-3.5-0.9-5.601c0.033-2.466-0.017-4.1-0.15-4.9c-0.1-0.6-0.583-1.783-1.45-3.55c-0.8-1.633-1.2-2.717-1.2-3.25
		l0.1-1.05c0.167,0.467,0.7,1.75,1.6,3.85c0.867,1.967,1.317,3.033,1.35,3.2l-0.05-0.95c0-5.367,0.1-9.833,0.3-13.4
		c1.267,0.433,2.6,0.833,4,1.2c-0.233,1-0.35,2.017-0.35,3.05c0,1.267,0.35,5.633,1.05,13.1C19.15,50.233,19.6,54.384,19.8,55.05z"
		/>
</g>
</svg>
