<?xml version="1.0" encoding="iso-8859-1"?>
<!-- Generator: Adobe Illustrator 15.1.0, SVG Export Plug-In . SVG Version: 6.00 Build 0)  -->
<!DOCTYPE svg PUBLIC "-//W3C//DTD SVG 1.1//EN" "http://www.w3.org/Graphics/SVG/1.1/DTD/svg11.dtd">
<svg version="1.1" id="Layer_1" xmlns="http://www.w3.org/2000/svg" xmlns:xlink="http://www.w3.org/1999/xlink" x="0px" y="0px"
	 width="50.7px" height="181.5px" viewBox="0 0 50.7 181.5" style="enable-background:new 0 0 50.7 181.5;" xml:space="preserve">
<g>
	<path style="fill-rule:evenodd;clip-rule:evenodd;fill:#7B756E;" d="M46.55,18.75v0.1c-0.1-0.333-0.666-1.4-1.7-3.2
		c-0.466-0.867-0.966-2.6-1.5-5.2c-0.433-2.1-1.267-3.75-2.5-4.95C39.75,4.4,38,3.55,35.6,2.95C33.1,2.317,31.366,1.567,30.4,0.7
		l0.8,0.05C32.8,0.917,34.1,1.133,35.1,1.4c1.167,0.3,2.384,0.767,3.65,1.4c0.5,0.267,1.283,0.65,2.35,1.15
		c0.967,0.5,1.7,0.95,2.2,1.35c0.967,0.767,1.733,1.133,2.3,1.1c0.167,0.133,0.384,1.3,0.65,3.5
		C46.217,12.9,46.316,15.85,46.55,18.75z M48.85,139.95l-0.649,9.8c-0.101,1.033-0.4,1.9-0.9,2.6c0.5,0.5,0.783,1.184,0.851,2.051
		c0.066,0.5,0.083,1.3,0.05,2.399c0.066,4.267-0.15,8.05-0.65,11.351c-0.366,2.366-0.7,3.933-1,4.699c-0.6,1.534-1.6,2.684-3,3.45
		c-2.366,1.3-4.416,2.283-6.149,2.95c-2.167,0.833-4.334,1.35-6.5,1.55c-4.601,0.4-7.167,0.617-7.7,0.65
		c-2.9,0.133-5.467-0.033-7.7-0.5l-2.3-0.4l0.1-0.05l0.25-0.2c-2-0.066-3.083-0.533-3.25-1.399l1.85-0.2l-0.4-0.601l1.3-0.05
		c0.867-0.033,2.184-0.017,3.95,0.05c5.867,0.267,9.283,0.367,10.25,0.301c3.8-0.2,6.833-1.117,9.1-2.75
		c2.834-2.067,4.334-3.184,4.5-3.351c1.301-1.3,1.967-2.899,2-4.8c0.034-1.634,0.034-4.384,0-8.25c-0.066-3.5-0.05-6.233,0.051-8.2
		c-1.434,1.7-2.5,3.5-3.2,5.4c-0.4,1.066-0.601,2.55-0.601,4.45c-0.033,2.066-0.166,3.533-0.399,4.399
		c-0.8-1.3-1.117-3.616-0.95-6.95c0.2-3.833,0.134-6.333-0.2-7.5c-0.066,0-1.233,0.2-3.5,0.601c-1.1,0.166-1.983,0.166-2.649,0
		c-0.9,0.066-2.334,0.316-4.301,0.75c-1.866,0.434-3.283,0.666-4.25,0.7c-2.367-0.067-4.15-0.101-5.35-0.101H8.05
		c-2.8,0-4.95-0.316-6.45-0.95c-0.067-0.166-0.117-0.35-0.15-0.55l-0.15-0.45h0.05l2.2-0.3c2.534-0.267,4.483-0.399,5.85-0.399
		c0.067,0,1.45-0.167,4.15-0.5c2.034-0.233,3.417-0.184,4.15,0.149l0.5,0.351l12.7,1.1c-0.667-0.333-1.134-0.917-1.4-1.75
		c-0.533-1.733-0.7-4.316-0.5-7.75c0.333-3.733,0.5-6.366,0.5-7.9l0.1-10.25c0-4.133-0.033-7.566-0.1-10.3
		c0.934,9.033,2.05,17.316,3.35,24.851c0.101,0.5,0.134,2.116,0.101,4.85c-0.033,2.3,0.149,3.8,0.55,4.5
		c0.533,0.967,1.05,1.4,1.55,1.3c0.334-0.1,1-0.483,2-1.149c0.967-0.534,2.384-1.284,4.25-2.25c1.5-1,2.417-2.267,2.75-3.801
		c0.3-1.399,0.417-3.25,0.351-5.55c-0.134-2.566-0.2-4.45-0.2-5.649l0.05-17.601c0.066,2.634,0.184,5.95,0.35,9.95
		c0.267,6.2,0.334,11.017,0.2,14.45c0.467-0.834,0.816-2.101,1.05-3.8c0.167-1.867,0.284-3.167,0.351-3.9
		c0.066-0.767,0.1-1.75,0.1-2.95c-0.066-1.3-0.1-2.283-0.1-2.95c0.066-2.133,0.116-3.733,0.149-4.8
		c0.067-1.967,0.017-3.566-0.149-4.8c-0.066-0.7-0.3-1.783-0.7-3.25c-0.366-1.366-0.583-2.45-0.65-3.25
		c-0.166-2.4-0.216-5.417-0.149-9.05c0.1-4.033,0.149-7.05,0.149-9.05c0-2.8-0.116-7.316-0.35-13.55
		c-0.233-5.833-0.333-10.35-0.3-13.55c-0.634,1.434-1,3.233-1.101,5.4c-0.233-5.333-0.383-9.117-0.449-11.35
		c-0.067-4.233,0.017-8.05,0.25-11.45c-0.2,1.833-0.65,3.833-1.351,6c-0.8,2.333-1.666,4.117-2.6,5.35
		c-0.066-0.467-0.033-1.717,0.1-3.75c0.134-1.633,0-2.85-0.399-3.65c-0.2,0.433-0.834,2.467-1.9,6.1
		c-0.767,2.733-1.667,4.566-2.7,5.5c0.167-3.233,0.217-7.267,0.15-12.1c0.166,1.533,0.434,2.85,0.8,3.95
		c0.733-0.733,1.233-3.033,1.5-6.9c0.167-4.1,0.3-6.566,0.4-7.4c0.466-4.233,0.666-9.7,0.6-16.4c0.7,1,1.033,2.683,1,5.05
		c0,1.267-0.05,3.033-0.15,5.3c0.067,1.1,0.134,2.833,0.2,5.2c0.134,2.067,0.4,3.733,0.8,5c0.334-3.233,0.601-5.7,0.801-7.4
		c0.333-3.033,0.85-5.4,1.55-7.1c0.2,0.467,0.616,1.883,1.25,4.25c0.5,1.767,1.083,3.117,1.75,4.05c0.166-0.934,0.149-2.7-0.05-5.3
		c-0.167-2.333-0.067-4.066,0.3-5.2c0.1-0.233,0.383-0.6,0.85-1.1s0.767-0.967,0.9-1.4c0.133-0.3,0.2-0.717,0.2-1.25
		c0.033,0.333,0.066,0.667,0.1,1l0.05,0.35c0.066,1.4,0.084,2.867,0.05,4.4c-0.033,1.633-0.017,4.316,0.051,8.05
		c0.066,3.433,0.05,6.1-0.051,8c-0.333,5.4-0.466,9.6-0.399,12.6c0.066,4.6,0.517,8.683,1.35,12.25c0.566,2.566,0.9,6.033,1,10.4
		c0.134,4.933,0.334,8.35,0.601,10.25c0.6,4.267,0.949,7.434,1.05,9.5c0.066,1.967-0.05,4.5-0.351,7.6
		c-0.399,3.934-0.616,6.434-0.649,7.5c-0.066,1.534-0.101,4.4-0.101,8.601c0,3.566-0.066,6.383-0.199,8.45
		c-0.101,1.566-0.217,3.649-0.351,6.25L48.85,139.95z"/>
	<path style="fill-rule:evenodd;clip-rule:evenodd;fill:#A79E94;" d="M24.1,0.15c1.633,0.1,3.733,0.283,6.3,0.55
		C31.366,1.567,33.1,2.317,35.6,2.95c2.4,0.6,4.15,1.45,5.25,2.55c1.233,1.2,2.067,2.85,2.5,4.95c0.534,2.6,1.034,4.333,1.5,5.2
		c1.034,1.8,1.601,2.867,1.7,3.2L46.9,21.7c0,0.533-0.067,0.95-0.2,1.25c-0.134,0.433-0.434,0.9-0.9,1.4s-0.75,0.867-0.85,1.1
		c-0.367,1.133-0.467,2.867-0.3,5.2c0.199,2.6,0.216,4.367,0.05,5.3c-0.667-0.934-1.25-2.284-1.75-4.05
		c-0.634-2.367-1.05-3.783-1.25-4.25c-0.7,1.7-1.217,4.067-1.55,7.1c-0.2,1.7-0.467,4.167-0.801,7.4c-0.399-1.267-0.666-2.933-0.8-5
		c-0.066-2.367-0.133-4.1-0.2-5.2c0.101-2.267,0.15-4.034,0.15-5.3c0.033-2.367-0.3-4.05-1-5.05c0.066,6.7-0.134,12.167-0.6,16.4
		c-0.101,0.833-0.233,3.3-0.4,7.4c-0.267,3.867-0.767,6.167-1.5,6.9c-0.366-1.1-0.634-2.417-0.8-3.95
		c0.066,4.833,0.017,8.867-0.15,12.1c1.033-0.934,1.934-2.767,2.7-5.5c1.066-3.633,1.7-5.667,1.9-6.1
		c0.399,0.8,0.533,2.017,0.399,3.65c-0.133,2.033-0.166,3.283-0.1,3.75c0.934-1.233,1.8-3.017,2.6-5.35
		c0.7-2.167,1.15-4.167,1.351-6c-0.233,3.4-0.317,7.217-0.25,11.45c0.066,2.233,0.216,6.017,0.449,11.35
		c0.101-2.167,0.467-3.967,1.101-5.4c-0.033,3.2,0.066,7.717,0.3,13.55c0.233,6.233,0.35,10.75,0.35,13.55
		c0,2-0.05,5.017-0.149,9.05c-0.066,3.633-0.017,6.649,0.149,9.05c0.067,0.8,0.284,1.884,0.65,3.25c0.4,1.467,0.634,2.55,0.7,3.25
		c0.166,1.233,0.217,2.833,0.149,4.8c-0.033,1.066-0.083,2.667-0.149,4.8c0,0.667,0.033,1.65,0.1,2.95c0,1.2-0.033,2.184-0.1,2.95
		c-0.066,0.733-0.184,2.033-0.351,3.9c-0.233,1.699-0.583,2.966-1.05,3.8c0.134-3.434,0.066-8.25-0.2-14.45
		c-0.166-4-0.283-7.316-0.35-9.95L44.2,130.4c0,1.199,0.066,3.083,0.2,5.649c0.066,2.3-0.051,4.15-0.351,5.55
		c-0.333,1.534-1.25,2.801-2.75,3.801c-1.866,0.966-3.283,1.716-4.25,2.25c-1,0.666-1.666,1.05-2,1.149
		c-0.5,0.101-1.017-0.333-1.55-1.3c-0.4-0.7-0.583-2.2-0.55-4.5c0.033-2.733,0-4.35-0.101-4.85c-1.3-7.534-2.416-15.817-3.35-24.851
		c0.066,2.733,0.1,6.167,0.1,10.3l-0.1,10.25c0,1.534-0.167,4.167-0.5,7.9c-0.2,3.434-0.033,6.017,0.5,7.75
		c0.267,0.833,0.733,1.417,1.4,1.75l-12.7-1.1l-0.5-0.351l1.1-0.3c0.4-0.1,1.117-0.233,2.15-0.4c0.9-0.199,1.55-0.449,1.95-0.75
		c0.533-0.399,0.883-0.933,1.05-1.6c0.267-0.9,0.5-1.517,0.7-1.85c0.267-0.4,1.05-1.233,2.35-2.5c1.033-1,1.667-1.983,1.9-2.95
		c0.199-0.8,0.25-1.983,0.149-3.55c-0.133-1.667-0.2-2.851-0.2-3.551c0-11.967,0.426-24.592,1.275-37.875
		c-0.035,1.121,0.057,2.463,0.275,4.025c0.3,2.9,0.449,4.917,0.449,6.05v10.15c0,3.566,0.017,5.533,0.051,5.899
		c0.133,2.4,0.55,4.2,1.25,5.4c1.267-0.6,1.949-1.5,2.05-2.7c-0.101-1.566-0.117-2.816-0.05-3.75
		c0.466-6.866,0.699-11.967,0.699-15.3c0-11.6,0.233-25.417,0.7-41.45c-1,4.034-2.316,10.15-3.95,18.35
		C31.2,77.683,31.066,73.233,31.2,67.8c0.2-6,0.3-10.45,0.3-13.35c0-11.233-0.233-20.434-0.7-27.6c0.2,1.467,0.767,3.65,1.7,6.55
		c0.9,2.8,1.434,4.983,1.6,6.55c-0.267-5.733-0.433-10.067-0.5-13c-0.133-5.167,0.101-9.417,0.7-12.75
		c0.601-0.067,1.566-0.083,2.9-0.05c1.267,0.033,2.233,0,2.899-0.1c0.334-2.7,0.101-4.767-0.699-6.2
		C38.667,6.517,37.083,5.233,34.65,4c-1.367-0.8-2.4-1.4-3.101-1.8c-1.3-0.733-2.399-1.217-3.3-1.45c-1.033-0.233-2.467-0.3-4.3-0.2
		C21.017,0.717,19.533,0.8,19.5,0.8l1.75-0.75L21.3,0c0.3,0,0.65,0.017,1.05,0.05h0.4c0.2,0,0.417,0.017,0.65,0.05
		c0.033,0,0.067,0,0.1,0C23.7,0.1,23.9,0.117,24.1,0.15z M1.6,151.85c1.5,0.634,3.65,0.95,6.45,0.95h9.45
		c1.2,0,2.983,0.033,5.35,0.101c0.967-0.034,2.383-0.267,4.25-0.7c1.967-0.434,3.4-0.684,4.301-0.75c0.666,0.166,1.55,0.166,2.649,0
		c2.267-0.4,3.434-0.601,3.5-0.601c0.334,1.167,0.4,3.667,0.2,7.5c-0.167,3.334,0.15,5.65,0.95,6.95
		c0.233-0.866,0.366-2.333,0.399-4.399c0-1.9,0.2-3.384,0.601-4.45c0.7-1.9,1.767-3.7,3.2-5.4c-0.101,1.967-0.117,4.7-0.051,8.2
		c0.034,3.866,0.034,6.616,0,8.25c-0.033,1.9-0.699,3.5-2,4.8c-0.166,0.167-1.666,1.283-4.5,3.351c-2.267,1.633-5.3,2.55-9.1,2.75
		c-0.967,0.066-4.383-0.034-10.25-0.301c1.333-0.1,2.617-0.3,3.85-0.6c1.566-0.4,3.566-1.134,6-2.2
		c0.867-0.366,1.851-0.783,2.95-1.25c0.767-0.434,1.4-1.166,1.9-2.2c0.7-1.466,1.1-3.267,1.2-5.399
		c-0.034-2.5-0.051-4.384-0.051-5.65c0-2.366-0.383-3.866-1.149-4.5l0.5-0.149l-4.7-1.351c-1.467,0.033-3.767,0.15-6.9,0.351
		c-3.033,0.233-5.383,0.35-7.05,0.35c-3.933,0-6.15,0.017-6.65,0.05c-1.3-0.2-2.467-0.533-3.5-1
		c-0.066-0.066-0.117-0.116-0.15-0.149c-0.067-0.034-0.117-0.084-0.15-0.15c-0.367-0.333-0.684-0.717-0.95-1.15
		C1.95,152.733,1.767,152.316,1.6,151.85z M1.3,150.85v-0.05h0.05l1.7-0.35l0.5,0.1l-2.2,0.3H1.3z M11.5,177.8l1.55,0.25l-1.3,0.05
		L11.5,177.8z M9.7,179.8c-1.5-0.399-2.7-0.85-3.6-1.35c-0.267-0.167-0.517-0.316-0.75-0.45H5.4c1.367,0.667,3,0.967,4.9,0.9
		c0.167,0.866,1.25,1.333,3.25,1.399l-0.3,0.2l-0.05,0.05C11.9,180.316,10.733,180.066,9.7,179.8z"/>
	<path style="fill-rule:evenodd;clip-rule:evenodd;fill:#BFB6AC;" d="M30.4,0.7c-2.567-0.267-4.667-0.45-6.3-0.55
		c0.4,0,0.833,0.017,1.3,0.05c1.366,0.1,3.3,0.283,5.8,0.55L30.4,0.7z M46.55,18.75c0.2,1.233,0.351,2.55,0.45,3.95
		c-0.033-0.333-0.066-0.667-0.1-1l-0.351-2.85V18.75z M48.2,149.75l0.649-9.8c0,0.1,0,0.217,0,0.35
		C48.65,144.1,48.434,147.25,48.2,149.75z M6.35,5.25c1.5-0.533,3.283-1.3,5.35-2.3c1-0.5,1.95-0.934,2.85-1.3
		c-2.133,1-3.783,1.767-4.95,2.3C8.433,4.483,7.35,4.917,6.35,5.25z M15.3,1.35c1.733-0.7,3.2-1.117,4.4-1.25
		c0.466-0.033,0.983-0.05,1.55-0.05L19.5,0.8c0.033,0,1.517-0.083,4.45-0.25c1.833-0.1,3.267-0.033,4.3,0.2
		c0.9,0.233,2,0.717,3.3,1.45c0.7,0.4,1.733,1,3.101,1.8c2.433,1.233,4.017,2.517,4.75,3.85c0.8,1.433,1.033,3.5,0.699,6.2
		c-0.666,0.1-1.633,0.133-2.899,0.1c-1.334-0.033-2.3-0.017-2.9,0.05c-0.6,3.333-0.833,7.583-0.7,12.75
		c0.067,2.933,0.233,7.267,0.5,13c-0.166-1.567-0.699-3.75-1.6-6.55c-0.934-2.9-1.5-5.083-1.7-6.55c0.467,7.167,0.7,16.367,0.7,27.6
		c0,2.9-0.1,7.35-0.3,13.35c-0.134,5.434,0,9.883,0.399,13.35c1.634-8.2,2.95-14.316,3.95-18.35c-0.467,16.034-0.7,29.851-0.7,41.45
		c0,3.333-0.233,8.434-0.699,15.3c-0.067,0.934-0.051,2.184,0.05,3.75c-0.101,1.2-0.783,2.101-2.05,2.7c-0.7-1.2-1.117-3-1.25-5.4
		c-0.034-0.366-0.051-2.333-0.051-5.899v-10.15c0-1.133-0.149-3.149-0.449-6.05c-0.219-1.563-0.311-2.904-0.275-4.025
		c-0.85,13.283-1.275,25.908-1.275,37.875c0,0.7,0.067,1.884,0.2,3.551c0.101,1.566,0.05,2.75-0.149,3.55
		c-0.233,0.967-0.867,1.95-1.9,2.95c-1.3,1.267-2.083,2.1-2.35,2.5c-0.2,0.333-0.433,0.949-0.7,1.85
		c-0.167,0.667-0.517,1.2-1.05,1.6c-0.4,0.301-1.05,0.551-1.95,0.75c-1.034,0.167-1.75,0.301-2.15,0.4l-1.1,0.3
		c-0.733-0.333-2.117-0.383-4.15-0.149c-2.7,0.333-4.083,0.5-4.15,0.5c-1.367,0-3.316,0.133-5.85,0.399l-0.5-0.1l-1.7,0.35L4.5,150
		c0.533-0.2,1.367-0.65,2.5-1.35c1.067-0.634,1.883-1.034,2.45-1.2c0.466-0.134,1.316-0.15,2.55-0.05
		c1.033,0.066,1.867-0.084,2.5-0.45c-2.633,0.1-4.75,0.149-6.35,0.149c-3,0-4.533-0.716-4.6-2.149c0.8-0.533,1.883-0.834,3.25-0.9
		c0-0.967,0.117-2.366,0.35-4.2c0.233-1.933,0.35-3.366,0.35-4.3c0-2.166,0.083-5.017,0.25-8.55c0.233-4.3,0.367-7.15,0.4-8.55
		c0.267-11.566,0.417-17.9,0.45-19c0.233-7.267,0.583-13.583,1.05-18.95c1.067,3.067,1.833,7.2,2.3,12.4
		c0.267,2.899,0.566,7.083,0.9,12.55c0.2,2.1,0.816,6.2,1.85,12.3c0.867,5.233,1.367,9.366,1.5,12.4
		c0.033-4.601,0.383-11.75,1.05-21.45c0.633-9.4,0.95-16.55,0.95-21.45c-0.067-15.9-0.1-25.733-0.1-29.5
		c0.033-11.133,0.25-20.967,0.65-29.5c-0.167,1.167-0.633,2.9-1.4,5.2c-0.967,4.267-1.567,7.716-1.8,10.35
		c-0.267,2.9-0.767,7.233-1.5,13c-0.133,1.534-0.333,4.133-0.6,7.8c-0.367,3.267-0.967,5.767-1.8,7.5
		c-0.333-1.833-0.467-4.2-0.4-7.1c0.167-3.2,0.25-5.567,0.25-7.1V42.65c0.1-2.333,0.133-4.083,0.1-5.25
		c0-2.066-0.267-3.783-0.8-5.15c0.034,0.7,0.05,3.933,0.05,9.7c0,2.5-0.217,6.3-0.65,11.4v-22.9c-0.267-3.333-0.434-6.2-0.5-8.6
		c-0.133-4.567,0.25-7.133,1.15-7.7c0.467,0.6,1.15,1.567,2.05,2.9c0.767,0.733,1.434,0.267,2-1.4c0.133-0.367,0.167-1.033,0.1-2
		c-0.067-0.867,0.033-1.55,0.3-2.05c0.267-0.467,0.633-0.85,1.1-1.15c0.533-0.333,0.917-0.65,1.15-0.95
		c0.534-0.667,1.133-1.483,1.8-2.45c0.633-0.7,1.55-1.183,2.75-1.45c1.267-0.267,2.917-0.383,4.95-0.35
		C28.184,5.283,29.833,5.367,32,5.5c-1.667-0.967-3.033-1.667-4.1-2.1c-1.5-0.633-3-1-4.5-1.1c-0.233-0.033-1.65-0.017-4.25,0.05
		c-1.867,0.033-3.233-0.133-4.1-0.5C15.117,1.65,15.2,1.483,15.3,1.35z M13.05,178.05l-1.55-0.25c-0.733-0.866-1.25-1.517-1.55-1.95
		c-0.534-0.733-0.9-1.517-1.1-2.35c-0.5-1.934-0.733-3.7-0.7-5.3c0.033,1.033,0.65,2.217,1.85,3.55c0.667,0.733,1.633,1.7,2.9,2.9
		c0.6-0.767,0.833-2.017,0.7-3.75c-0.033-0.067-0.3-1.667-0.8-4.801c-0.667-4.033,0.233-6.233,2.7-6.6c4.867-0.7,7.617-1.1,8.25-1.2
		c2.934-0.533,5.583-1.2,7.95-2c0.767,0.634,1.149,2.134,1.149,4.5c0,1.267,0.017,3.15,0.051,5.65c-0.101,2.133-0.5,3.934-1.2,5.399
		c-0.5,1.034-1.134,1.767-1.9,2.2c-1.1,0.467-2.083,0.884-2.95,1.25c-2.433,1.066-4.433,1.8-6,2.2c-1.233,0.3-2.517,0.5-3.85,0.6
		C15.233,178.033,13.917,178.017,13.05,178.05z M13.3,180.5h-0.05l0.3-0.2L13.3,180.5z M3.45,159.3c0,0.134,0,0.267,0,0.4
		c0,0.5,0,1.066,0,1.7C3.417,160.566,3.417,159.866,3.45,159.3z M4.3,155.9c0.1-0.167,0.217-0.317,0.35-0.45
		c-0.467-0.267-0.883-0.566-1.25-0.9c1.033,0.467,2.2,0.8,3.5,1L4.3,155.9z M9.7,179.8c-0.4-0.066-0.633-0.116-0.7-0.149
		c-1.133-0.334-2.1-0.733-2.9-1.2C7,178.95,8.2,179.4,9.7,179.8z"/>
	<path style="fill-rule:evenodd;clip-rule:evenodd;fill:#D9D1C5;" d="M11.5,177.8l0.25,0.3l0.4,0.601l-1.85,0.2
		c-1.9,0.066-3.533-0.233-4.9-0.9H5.35l-0.05-0.05c-0.2-0.167-0.383-0.334-0.55-0.5l-0.5-0.5c-0.033-0.033-0.05-0.066-0.05-0.101
		l-0.05-0.05c-0.033-0.066-0.066-0.1-0.1-0.1c-0.033-0.066-0.066-0.134-0.1-0.2c-0.034-0.033-0.05-0.066-0.05-0.1
		c-0.1-0.134-0.183-0.267-0.25-0.4c-0.566-1.167-0.767-3.233-0.6-6.2c0.3-3.2,0.45-5.316,0.45-6.35l-0.05-2.05c0-0.634,0-1.2,0-1.7
		c0-0.134,0-0.267,0-0.4l0.2-1.649c0.1-0.434,0.217-0.801,0.35-1.101v-0.05c0.1-0.233,0.2-0.434,0.3-0.6l2.6-0.351
		c0.5-0.033,2.717-0.05,6.65-0.05c1.667,0,4.017-0.116,7.05-0.35c3.133-0.2,5.433-0.317,6.9-0.351l4.7,1.351l-0.5,0.149
		c-2.367,0.8-5.017,1.467-7.95,2c-0.633,0.101-3.383,0.5-8.25,1.2c-2.467,0.366-3.367,2.566-2.7,6.6
		c0.5,3.134,0.767,4.733,0.8,4.801c0.133,1.733-0.1,2.983-0.7,3.75c-1.267-1.2-2.233-2.167-2.9-2.9
		c-1.2-1.333-1.817-2.517-1.85-3.55c-0.033,1.6,0.2,3.366,0.7,5.3c0.2,0.833,0.566,1.616,1.1,2.35
		C10.25,176.283,10.767,176.934,11.5,177.8z M1.35,150.8H1.3c-0.133-0.566-0.216-1.233-0.25-2v-1.55c0-0.3,0-0.6,0-0.9l0.05-0.3
		c0-0.333,0.017-0.666,0.05-1c0.233-3.3,0.35-5.184,0.35-5.649l-0.35-32.45c0-1.434-0.25-4.634-0.75-9.601
		c-0.4-4.066-0.483-7.333-0.25-9.8c0.233-2.433,0.883-9.583,1.95-21.45c0.233-2.267,0.45-6.2,0.65-11.8
		c0.167-5.066,0.433-9.066,0.8-12C4.05,38.233,4.2,33.05,4,26.75c-0.3-7.167-0.467-12.533-0.5-16.1V5.9l2.85-0.65
		c1-0.333,2.083-0.767,3.25-1.3c1.167-0.534,2.816-1.3,4.95-2.3c0.233-0.133,0.5-0.267,0.8-0.4c-0.033,0.033-0.05,0.067-0.05,0.1
		c-0.1,0.133-0.183,0.3-0.25,0.5c0.867,0.367,2.233,0.533,4.1,0.5c2.6-0.067,4.017-0.083,4.25-0.05c1.5,0.1,3,0.467,4.5,1.1
		c1.066,0.434,2.433,1.133,4.1,2.1c-2.167-0.133-3.816-0.217-4.95-0.25c-2.033-0.033-3.683,0.083-4.95,0.35
		c-1.2,0.267-2.117,0.75-2.75,1.45c-0.667,0.967-1.267,1.784-1.8,2.45c-0.233,0.3-0.617,0.617-1.15,0.95
		c-0.467,0.3-0.833,0.683-1.1,1.15c-0.267,0.5-0.367,1.183-0.3,2.05c0.067,0.967,0.033,1.633-0.1,2c-0.566,1.667-1.233,2.133-2,1.4
		c-0.9-1.333-1.583-2.3-2.05-2.9c-0.9,0.567-1.283,3.133-1.15,7.7c0.066,2.4,0.233,5.267,0.5,8.6v22.9c0.433-5.1,0.65-8.9,0.65-11.4
		c0-5.767-0.017-9-0.05-9.7c0.534,1.367,0.8,3.083,0.8,5.15c0.033,1.167,0,2.917-0.1,5.25V57.9c0,1.533-0.083,3.9-0.25,7.1
		c-0.067,2.9,0.067,5.267,0.4,7.1c0.833-1.733,1.434-4.233,1.8-7.5c0.267-3.667,0.466-6.267,0.6-7.8c0.733-5.767,1.233-10.1,1.5-13
		c0.233-2.633,0.833-6.083,1.8-10.35c0.767-2.3,1.233-4.034,1.4-5.2c-0.4,8.533-0.617,18.367-0.65,29.5c0,3.767,0.033,13.6,0.1,29.5
		c0,4.9-0.317,12.05-0.95,21.45c-0.667,9.7-1.017,16.85-1.05,21.45c-0.133-3.034-0.633-7.167-1.5-12.4
		c-1.034-6.1-1.65-10.2-1.85-12.3c-0.333-5.467-0.633-9.65-0.9-12.55c-0.467-5.2-1.233-9.333-2.3-12.4
		C9.183,85.867,8.833,92.184,8.6,99.45c-0.033,1.1-0.184,7.434-0.45,19c-0.033,1.399-0.167,4.25-0.4,8.55
		c-0.167,3.533-0.25,6.384-0.25,8.55c0,0.934-0.117,2.367-0.35,4.3c-0.233,1.834-0.35,3.233-0.35,4.2
		c-1.367,0.066-2.45,0.367-3.25,0.9c0.067,1.434,1.6,2.149,4.6,2.149c1.6,0,3.717-0.05,6.35-0.149
		c-0.633,0.366-1.467,0.517-2.5,0.45c-1.233-0.101-2.083-0.084-2.55,0.05c-0.567,0.166-1.383,0.566-2.45,1.2
		C5.867,149.35,5.033,149.8,4.5,150L1.35,150.8z"/>
</g>
</svg>
