<?xml version="1.0" encoding="iso-8859-1"?>
<!-- Generator: Adobe Illustrator 15.1.0, SVG Export Plug-In . SVG Version: 6.00 Build 0)  -->
<!DOCTYPE svg PUBLIC "-//W3C//DTD SVG 1.1//EN" "http://www.w3.org/Graphics/SVG/1.1/DTD/svg11.dtd">
<svg version="1.1" id="Layer_1" xmlns="http://www.w3.org/2000/svg" xmlns:xlink="http://www.w3.org/1999/xlink" x="0px" y="0px"
	 width="72.2px" height="163.5px" viewBox="0 0 72.2 163.5" style="enable-background:new 0 0 72.2 163.5;" xml:space="preserve">
<g>
	<path style="fill-rule:evenodd;clip-rule:evenodd;fill:#A1978B;" d="M48.9,17.3c0.433,12.967,1.033,23.934,1.8,32.9
		c0.566,6.367,0.85,14.017,0.85,22.95c0,8.5-0.366,14.734-1.1,18.7c-0.367,2-0.983,3.767-1.851,5.301L48.35,97.3
		c0-0.366-0.267-2.184-0.8-5.45V17.3H48.9z M41.9,66.2c-0.834,4.133-1.534,7.05-2.101,8.75c-0.666,2.066-1.399,3.333-2.2,3.8
		c-1-7.567-1.5-14.35-1.5-20.35c0.167-4.5,0.233-6.9,0.2-7.2c0.101-1.3,0.084-2.383-0.05-3.25c-0.233-1.6-1.133-3-2.7-4.2
		c0-12.633-0.033-22.267-0.1-28.9c-0.067-4.2-0.1-6.467-0.1-6.8c0-2.867,0.2-4.617,0.6-5.25c0.633-0.966,2.333-1.483,5.1-1.55
		l2.9-0.6C43.85,0.217,45.3,0,46.3,0c1.434,0,3.184,0.267,5.25,0.8l0.05,0.05L51.7,0.9h0.1l0.55,0.25V1.2
		c0.101,0.767,0.117,1.55,0.051,2.35c-0.367,1.034-0.884,1.817-1.551,2.35c-0.466,0.367-0.933,0.55-1.399,0.55
		c-2.134-0.7-3.634-1.067-4.5-1.1c-0.134,0-0.25,0.033-0.351,0.1C44.333,5.617,44.2,5.9,44.2,6.3c0,1.067,0.333,2.633,1,4.7
		c0.666,2.1,1,3.317,1,3.65L45.55,29.7c0,1.1-0.267,3.383-0.8,6.85c-1.033,6.667-1.6,10.35-1.7,11.05c0,1.267-0.05,2.05-0.149,2.35
		v-4.4c0.033-7.867,0.1-14.867,0.199-21c0.101-4.566,0.15-7.017,0.15-7.35c0-2.2-0.167-4.383-0.5-6.55c0,0.267-0.233,0.7-0.7,1.3
		C41.616,11.45,41.267,11,41,10.6c-0.167,1.633-0.316,3.983-0.45,7.05c-0.1,2.567-0.149,4.233-0.149,5c0,8.2,0.633,16,1.899,23.4
		C42.366,52.85,42.233,59.567,41.9,66.2z M17.55,83.05H17.5c-2,2.334-3.117,6.684-3.35,13.05c-0.167,4.434,0.083,17.284,0.75,38.551
		c-2.167-18.2-4.183-31.417-6.05-39.65l-0.5-2c-0.1,0.634-0.15,2.767-0.15,6.4l0.05,37.1c-0.767-12.5-1.2-19.5-1.3-21
		c-0.434-6.233-1.167-15.8-2.2-28.7C4.383,88.866,4.167,90.9,4.1,92.9c-0.033,0.933-0.05,3.966-0.05,9.1
		c0,1.333-0.05,3.366-0.15,6.1c-0.133,3.867-0.3,6.617-0.5,8.25L2.9,115.4l-0.05,14.35c0,0.066,0.217,2.9,0.65,8.5
		c0.4,6.333,0.6,11.35,0.6,15.05l-0.4,9.3H2.85c-0.2-0.433-0.483-2.149-0.85-5.149c-0.333-2.733-0.5-4.25-0.5-4.55
		c0-5.301-0.25-16.017-0.75-32.15S0,92.417,0,84.15c0-7,0.767-11.9,2.3-14.7c1.267-2.367,3.367-3.55,6.3-3.55
		c0.333,0,1.617-0.433,3.85-1.3c2.233-0.867,3.517-1.3,3.85-1.3c0.667,0,1.25,0.034,1.75,0.1c0.567,0.033,1.117,0.083,1.65,0.15
		c1,0.2,1.9,0.6,2.7,1.2c1.167,0.867,1.75,1.933,1.75,3.2h-0.4l-4.8-0.15c-1.133,0-2.3,0.15-3.5,0.45L14.5,68.5
		c2.833,0.6,4.85,3.367,6.05,8.3c0.934,3.9,1.4,9.384,1.4,16.45c0,0.8-0.1,1.833-0.3,3.1L21.4,97.15
		c0.033-2.667-0.017-5.017-0.15-7.051C21.05,86.2,19.817,83.85,17.55,83.05z M24.05,68.55l0.1-0.6v0.75L24.05,68.55z M23.4,113.9
		c0.033-0.967,0.167-2.45,0.4-4.45c0.5-3.967,1.3-8.45,2.4-13.45l0.6,20.65l-0.35,9.75l-0.1,0.199c-0.1,0.267-0.2,0.717-0.3,1.351
		c-0.566-0.9-1.1-1.917-1.6-3.05c-0.4-0.967-0.717-2.767-0.95-5.4C23.333,117.134,23.3,115.267,23.4,113.9z"/>
	<path style="fill-rule:evenodd;clip-rule:evenodd;fill:#726A60;" d="M52.4,3.55c0.066-0.8,0.05-1.583-0.051-2.35V1.15
		C52.45,1.217,52.634,1.333,52.9,1.5c0.399,0.267,1.05,0.683,1.949,1.25c1.434,0.933,2.184,1.433,2.25,1.5l2.851,2.5L58.2,8
		c3.733,1,6.399,3.467,8,7.4c1.533,3.8,2.3,9.6,2.3,17.4c0,2.3-0.233,3.95-0.7,4.95c-0.2,0.5-0.633,0.983-1.3,1.45l-0.45-0.95
		c-0.1,0.3-0.267,1.65-0.5,4.05c-0.3,2.5-0.483,3.934-0.55,4.3l-0.15,0.3c0-0.7-0.55-4.75-1.649-12.15
		c-1.101-7.6-1.667-11.617-1.7-12.05c-0.434,11.167-0.65,17.85-0.65,20.05c0,2.933-0.05,8.133-0.149,15.6
		c0.033,6.2,0.467,9.8,1.3,10.8c1.467-7,2.217-10.9,2.25-11.7c0.366,9.066,0.717,17.683,1.05,25.85c0.167,4.5,0.25,9.917,0.25,16.25
		c0,6.434-0.017,9.917-0.05,10.45c-0.134,1.9-0.15,4.05-0.05,6.45c-0.066,1.899-0.783,3.95-2.15,6.149
		c-1.633,2.7-2.767,4.301-3.399,4.801c-0.5,0.399-1.4,0.6-2.7,0.6c-0.8,0-2-0.267-3.601-0.8c-1.833-0.634-3.149-1.316-3.949-2.05
		c-0.467-0.434-0.917-1.15-1.351-2.15s-0.684-1.533-0.75-1.6c-0.3-0.334-1.333-0.934-3.1-1.801c-1.467-0.733-2.316-1.517-2.55-2.35
		c-0.5-1.767-0.75-4.616-0.75-8.55l0.1-5.75c-0.134,0.399-0.4,0.866-0.8,1.399c-0.4,0.5-0.733,0.851-1,1.051
		c-0.334-0.101-0.5-1.067-0.5-2.9c0.133-1.2,0.233-2.184,0.3-2.95c0.066-1.467-0.1-2.2-0.5-2.2c-0.833,0-1.5-0.75-2-2.25
		c-0.967-3.5-2.133-7.267-3.5-11.3c-1.7-5.167-2.783-8.767-3.25-10.8c-0.5-2.433-0.983-4.4-1.45-5.9c1.4,0,2.6-0.633,3.6-1.9
		c0.967-1.267,1.45-2.784,1.45-4.55l0.05-0.6C35.683,65.683,37,73.383,37.6,83.15c0.5,7.566,1.567,11.866,3.2,12.899
		c0.5-7.899,0.767-13.283,0.8-16.15c0.101-5.967,0.2-10.533,0.301-13.7c0.333-6.633,0.466-13.35,0.399-20.15
		c0-2.6-0.05-5.233-0.149-7.9c0.433,3.067,0.683,5.533,0.75,7.4v4.4c0.1-0.3,0.149-1.083,0.149-2.35
		C44.217,64.833,45,75.617,45.4,79.95c1.333,14.533,3,25.45,5,32.75c0.267-0.2,0.433-0.634,0.5-1.3l0.5-1.301
		c-0.2,2.967,0.199,4.801,1.199,5.5c0.467,0.367,1.801,0.551,4,0.551l2.851-0.101c0.1-0.8,0.233-2.866,0.399-6.2
		c0.134-3.166,0.2-5.05,0.2-5.649l-0.5-21.25c-0.833,11.066-1.283,16.866-1.35,17.399c-0.367-1.1-0.584-2.816-0.65-5.149l-1.3,0.05
		c-1.033,0-1.767-0.267-2.2-0.8c-0.467-0.533-0.7-1.467-0.7-2.8c0.134-1.9,0.2-9.851,0.2-23.851c0.033,0.267,0.384,3.417,1.05,9.45
		c0.567,5.1,0.884,8.717,0.95,10.85V43.3l-0.05,1.5c-0.066,0-0.184,0.133-0.35,0.4c-0.167,0.367-0.317,0.633-0.45,0.8
		c-0.334-0.733-0.517-3.55-0.55-8.45c0.033-4.8,0.05-7.233,0.05-7.3c0-2.567-0.267-7.667-0.8-15.3
		C52.866,7.583,52.533,3.783,52.4,3.55z M23.4,113.9c-0.1,1.366-0.066,3.233,0.1,5.6c0.233,2.634,0.55,4.434,0.95,5.4
		c0.833,6.1,1.767,10.25,2.8,12.449c0.6,1.2,1.267,1.801,2,1.801c0.533,0,1.1-0.917,1.7-2.75l0.15,2.649c0,2.467-0.3,4.617-0.9,6.45
		c-0.7,2.167-1.217,7.05-1.55,14.65L26.9,161c-0.367-16.9-0.8-26.033-1.3-27.4c-0.467-0.533-0.883-1.133-1.25-1.8
		c-0.7-1.233-1.417-3.75-2.15-7.55v11.35c-0.567-3.066-1.25-6.149-2.05-9.25l2.05,11.5v0.5c-3.133-1.5-4.8-8.949-5-22.35
		c0.367-16.033,0.466-27.017,0.3-32.95h0.05c0.267,2.101,1.15,6.9,2.65,14.4C21.933,105.85,23,111.333,23.4,113.9z M19.2,163.25
		c0.033-0.1,0.183-1.25,0.45-3.45c0.3-2.267,0.55-3.75,0.75-4.45c0.133-0.433,0.5-0.833,1.1-1.199c0.7-0.434,1.183-0.884,1.45-1.351
		c0.267-0.434,0.483-0.983,0.65-1.649c0,5.333,0.033,8.416,0.1,9.25c0,0.5-0.25,1.017-0.75,1.55c-0.367,0.366-0.75,0.666-1.15,0.899
		L19.2,163.25z M14.2,163.4l-0.05-5.375c-0.008,0.566-0.042,1.491-0.1,2.774c-0.033,1.7-0.15,2.55-0.35,2.55
		c-2.067-0.033-3.333-0.033-3.8,0l-1.05-9V144.9c0.133,4.8,0.667,8.449,1.6,10.949c0.5,1.301,1.1,2.634,1.8,4
		c-0.4-13.966-0.6-21.283-0.6-21.949c0-2.7,0.233-4.051,0.7-4.051v-1.6c0.033,0.333,0.433,4.917,1.2,13.75
		c0.934,9.134,1.784,14.934,2.55,17.4H14.2z M26.25,65.65c0.033,0.967,0.217,3.55,0.55,7.75c0.3,3.7,0.434,6.5,0.4,8.4
		c-0.034,0.967,0.066,1.517,0.3,1.65c0.333,0.2,0.6,0.783,0.8,1.75c0.8,4.066,1.217,16.033,1.25,35.899
		c-0.1-0.566-0.15-2.433-0.15-5.6c0-4.667-0.066-9.233-0.2-13.7c0-0.566-0.817-2.233-2.45-5c-1.633-2.733-2.45-4.816-2.45-6.25
		c0-0.233,0.25-0.967,0.75-2.2c0.467-1.233,0.7-2.05,0.7-2.449c0-8.067-0.533-13.8-1.6-17.2v-0.75l-0.1,0.6l-0.3-0.6h0.4
		c0-1.267-0.583-2.333-1.75-3.2c-0.8-0.6-1.7-1-2.7-1.2C22.667,63.917,24.85,64.617,26.25,65.65z M41.55,95.2
		c0,1-0.033,2.483-0.1,4.45c-0.033,1.267-0.066,2.183-0.101,2.75c0.267-2,0.351-4.217,0.25-6.65L41.55,95.2z M23.55,145.05
		c-0.133-1.267-0.35-2.649-0.65-4.149l0.65,0.8C23.55,142.866,23.55,143.983,23.55,145.05z"/>
	<path style="fill-rule:evenodd;clip-rule:evenodd;fill:#8B8178;" d="M52.9,1.5c0.466,0.233,0.983,0.533,1.55,0.9
		C55.717,3.167,56.6,3.783,57.1,4.25c-0.066-0.067-0.816-0.567-2.25-1.5C53.95,2.183,53.3,1.767,52.9,1.5z M52.4,3.55
		c0.133,0.233,0.466,4.034,1,11.4c0.533,7.633,0.8,12.733,0.8,15.3c0,0.067-0.017,2.5-0.05,7.3c0.033,4.9,0.216,7.717,0.55,8.45
		c0.133-0.167,0.283-0.433,0.45-0.8c0.166-0.267,0.283-0.4,0.35-0.4l0.05-1.5v44.8c-0.066-2.133-0.383-5.75-0.95-10.85
		c-0.666-6.033-1.017-9.183-1.05-9.45c0,14-0.066,21.95-0.2,23.851c0,1.333,0.233,2.267,0.7,2.8c0.434,0.533,1.167,0.8,2.2,0.8
		l1.3-0.05c0.066,2.333,0.283,4.05,0.65,5.149c0.066-0.533,0.517-6.333,1.35-17.399l0.5,21.25c0,0.6-0.066,2.483-0.2,5.649
		c-0.166,3.334-0.3,5.4-0.399,6.2L56.6,116.15c-2.199,0-3.533-0.184-4-0.551c-1-0.699-1.399-2.533-1.199-5.5l-0.5,1.301
		c-0.067,0.666-0.233,1.1-0.5,1.3c-2-7.3-3.667-18.217-5-32.75C45,75.617,44.217,64.833,43.05,47.6c0.101-0.7,0.667-4.383,1.7-11.05
		c0.533-3.466,0.8-5.75,0.8-6.85l0.65-15.05c0-0.333-0.334-1.55-1-3.65c-0.667-2.067-1-3.633-1-4.7c0-0.4,0.133-0.683,0.399-0.85
		c0.101-0.067,0.217-0.1,0.351-0.1c0.866,0.033,2.366,0.4,4.5,1.1c0.467,0,0.934-0.184,1.399-0.55
		C51.517,5.367,52.033,4.583,52.4,3.55z M19.2,163.25c-0.833,0.1-1.867,0.15-3.1,0.15c-0.767-2.467-1.617-8.267-2.55-17.4
		c-0.767-8.833-1.167-13.417-1.2-13.75v1.6c-0.467,0-0.7,1.351-0.7,4.051c0,0.666,0.2,7.983,0.6,21.949c-0.7-1.366-1.3-2.699-1.8-4
		c-0.934-2.5-1.467-6.149-1.6-10.949v9.449l1.05,9c-0.933,0.101-2.017,0.15-3.25,0.15c-0.533,0-1.217-0.1-2.05-0.3
		c-0.867-0.2-1.45-0.4-1.75-0.601H3.7l0.4-9.3c0-3.7-0.2-8.717-0.6-15.05c-0.433-5.6-0.65-8.434-0.65-8.5L2.9,115.4l0.5,0.949
		c0.2-1.633,0.367-4.383,0.5-8.25c0.1-2.733,0.15-4.767,0.15-6.1c0-5.134,0.017-8.167,0.05-9.1c0.066-2,0.283-4.034,0.65-6.101
		c1.033,12.9,1.767,22.467,2.2,28.7c0.1,1.5,0.533,8.5,1.3,21L8.2,99.4c0-3.634,0.05-5.767,0.15-6.4l0.5,2
		c1.867,8.233,3.883,21.45,6.05,39.65c-0.667-21.267-0.917-34.117-0.75-38.551c0.233-6.366,1.35-10.716,3.35-13.05
		c0.167,5.934,0.067,16.917-0.3,32.95c0.2,13.4,1.867,20.85,5,22.35c0.066,0.801,0.3,1.65,0.7,2.551c0.3,1.5,0.517,2.883,0.65,4.149
		c0,2.267,0.017,4.3,0.05,6.101c-0.167,0.666-0.383,1.216-0.65,1.649c-0.267,0.467-0.75,0.917-1.45,1.351
		c-0.6,0.366-0.967,0.767-1.1,1.199c-0.2,0.7-0.45,2.184-0.75,4.45C19.383,162,19.233,163.15,19.2,163.25z M41.9,66.2
		c-0.101,3.167-0.2,7.733-0.301,13.7c-0.033,2.867-0.3,8.25-0.8,16.15c-1.633-1.033-2.7-5.333-3.2-12.899
		c-0.6-9.767-1.917-17.467-3.95-23.101l-0.05,0.6c0-0.533-0.017-6.167-0.05-16.9c1.567,1.2,2.467,2.6,2.7,4.2
		c0.134,0.867,0.15,1.95,0.05,3.25c0.033,0.3-0.033,2.7-0.2,7.2c0,6,0.5,12.783,1.5,20.35c0.801-0.467,1.534-1.733,2.2-3.8
		C40.366,73.25,41.066,70.333,41.9,66.2z M48.9,17.3H47.55v74.55c0.533,3.267,0.8,5.084,0.8,5.45l0.25-0.149
		c0.867-1.534,1.483-3.301,1.851-5.301c0.733-3.966,1.1-10.2,1.1-18.7c0-8.933-0.283-16.583-0.85-22.95
		C49.934,41.233,49.333,30.267,48.9,17.3z M42.9,45.55c-0.067-1.867-0.317-4.333-0.75-7.4c0.1,2.667,0.149,5.3,0.149,7.9
		c-1.267-7.4-1.899-15.2-1.899-23.4c0-0.767,0.05-2.433,0.149-5c0.134-3.066,0.283-5.417,0.45-7.05c0.267,0.4,0.616,0.85,1.05,1.35
		c0.467-0.6,0.7-1.034,0.7-1.3c0.333,2.167,0.5,4.35,0.5,6.55c0,0.333-0.05,2.783-0.15,7.35C43,30.683,42.934,37.683,42.9,45.55z
		 M24.15,68.7c1.067,3.4,1.6,9.133,1.6,17.2c0,0.399-0.233,1.216-0.7,2.449c-0.5,1.233-0.75,1.967-0.75,2.2
		c0,1.434,0.817,3.517,2.45,6.25c1.633,2.767,2.45,4.434,2.45,5c0.133,4.467,0.2,9.033,0.2,13.7c0,3.167,0.05,5.033,0.15,5.6
		l-0.05,10.4c0,0.366,0.483,2,1.45,4.9c-0.6,1.833-1.167,2.75-1.7,2.75c-0.733,0-1.4-0.601-2-1.801
		c-1.033-2.199-1.967-6.35-2.8-12.449c0.5,1.133,1.033,2.149,1.6,3.05c0.1-0.634,0.2-1.084,0.3-1.351l0.1-0.199l0.35-9.75L26.2,96
		c-1.1,5-1.9,9.483-2.4,13.45c-0.233,2-0.367,3.483-0.4,4.45c-0.4-2.567-1.467-8.051-3.2-16.45c-1.5-7.5-2.383-12.3-2.65-14.4
		c2.267,0.8,3.5,3.15,3.7,7.05c0.133,2.034,0.183,4.384,0.15,7.051l0.25-0.801c0.2-1.267,0.3-2.3,0.3-3.1
		c0-7.066-0.467-12.55-1.4-16.45c-1.2-4.933-3.216-7.7-6.05-8.3l0.95-0.25c1.2-0.3,2.367-0.45,3.5-0.45l4.8,0.15l0.3,0.6L24.15,68.7
		z M22.2,135.6v2.25l-2.05-11.5C20.95,129.45,21.633,132.533,22.2,135.6z"/>
	<path style="fill-rule:evenodd;clip-rule:evenodd;fill:#625954;" d="M28.65,160.15c0.333-7.601,0.85-12.483,1.55-14.65
		c0.6-1.833,0.9-3.983,0.9-6.45l-0.15-2.649c-0.967-2.9-1.45-4.534-1.45-4.9l0.05-10.4C29.517,101.233,29.1,89.267,28.3,85.2
		c-0.2-0.967-0.466-1.55-0.8-1.75c-0.233-0.134-0.333-0.684-0.3-1.65c0.033-1.9-0.1-4.7-0.4-8.4c-0.333-4.2-0.517-6.783-0.55-7.75
		l2,1.7l0.3-0.25c0.467,1.5,0.95,3.467,1.45,5.9c0.467,2.033,1.55,5.633,3.25,10.8c1.367,4.033,2.533,7.8,3.5,11.3
		c0.5,1.5,1.167,2.25,2,2.25c0.4,0,0.566,0.733,0.5,2.2c-0.066,0.767-0.167,1.75-0.3,2.95c0,1.833,0.166,2.8,0.5,2.9
		c0.267-0.2,0.6-0.551,1-1.051c0.399-0.533,0.666-1,0.8-1.399l-0.1,5.75c0,3.934,0.25,6.783,0.75,8.55
		c0.233,0.833,1.083,1.616,2.55,2.35c1.767,0.867,2.8,1.467,3.1,1.801c0.066,0.066,0.316,0.6,0.75,1.6s0.884,1.717,1.351,2.15
		c0.8,0.733,2.116,1.416,3.949,2.05C55.2,127.733,56.4,128,57.2,128c1.3,0,2.2-0.2,2.7-0.6c0.633-0.5,1.767-2.101,3.399-4.801
		c1.367-2.199,2.084-4.25,2.15-6.149c-0.101-2.4-0.084-4.55,0.05-6.45c0.033-0.533,0.05-4.017,0.05-10.45
		c0-6.333-0.083-11.75-0.25-16.25c-0.333-8.167-0.684-16.783-1.05-25.85c-0.033,0.8-0.783,4.7-2.25,11.7
		c-0.833-1-1.267-4.6-1.3-10.8c0.1-7.467,0.149-12.667,0.149-15.6c0-2.2,0.217-8.883,0.65-20.05c0.033,0.433,0.6,4.45,1.7,12.05
		c1.1,7.4,1.649,11.45,1.649,12.15L65,46.6c0.066-0.367,0.25-1.8,0.55-4.3c0.233-2.4,0.4-3.75,0.5-4.05l0.45,0.95
		c0.667-0.467,1.1-0.95,1.3-1.45c0.467-1,0.7-2.65,0.7-4.95c0-7.8-0.767-13.6-2.3-17.4C64.6,11.467,61.934,9,58.2,8l1.75-1.25
		c6.133,3.367,9.75,8.267,10.85,14.7c0.367,2.3,0.5,5.267,0.4,8.9c-0.066,2.033-0.167,5.117-0.3,9.25c0,1.566,0.366,10.167,1.1,25.8
		c0.134,2.967,0.2,7.434,0.2,13.4v2.85c0,7.267-0.884,19.817-2.65,37.65c-0.333,3.4-0.783,5.55-1.35,6.45
		c-1.767,2.667-5.617,4-11.55,4c-3.334,0-5.801-0.684-7.4-2.05c-1.833-2.134-3.717-3.967-5.65-5.5
		c-1.366-0.267-3.816-0.384-7.35-0.351c0.434,9.334,0.65,16.684,0.65,22.051c0,5-0.267,8.267-0.801,9.8
		C35.067,156.634,32.583,158.783,28.65,160.15z M21.8,162.85c0.4-0.233,0.784-0.533,1.15-0.899c0.5-0.533,0.75-1.05,0.75-1.55
		c-0.067-0.834-0.1-3.917-0.1-9.25c-0.033-1.801-0.05-3.834-0.05-6.101c0-1.066,0-2.184,0-3.35l-0.65-0.8
		c-0.4-0.9-0.633-1.75-0.7-2.551v-0.5v-2.25v-11.35c0.733,3.8,1.45,6.316,2.15,7.55c0.367,0.667,0.783,1.267,1.25,1.8
		c0.5,1.367,0.933,10.5,1.3,27.4c-1.566,0.733-2.867,1.25-3.9,1.55C22.4,162.75,22,162.85,21.8,162.85z M13.7,163.35
		c0.2,0,0.316-0.85,0.35-2.55c0.059-1.283,0.092-2.208,0.1-2.774l0.05,5.375L13.7,163.35z M41.55,95.2l0.05,0.55
		c0.101,2.434,0.017,4.65-0.25,6.65c0.034-0.567,0.067-1.483,0.101-2.75C41.517,97.684,41.55,96.2,41.55,95.2z"/>
</g>
</svg>
