<?xml version="1.0" encoding="iso-8859-1"?>
<!-- Generator: Adobe Illustrator 15.1.0, SVG Export Plug-In . SVG Version: 6.00 Build 0)  -->
<!DOCTYPE svg PUBLIC "-//W3C//DTD SVG 1.1//EN" "http://www.w3.org/Graphics/SVG/1.1/DTD/svg11.dtd">
<svg version="1.1" id="Layer_1" xmlns="http://www.w3.org/2000/svg" xmlns:xlink="http://www.w3.org/1999/xlink" x="0px" y="0px"
	 width="81.05px" height="188.75px" viewBox="0 0 81.05 188.75" style="enable-background:new 0 0 81.05 188.75;"
	 xml:space="preserve">
<g>
	<path style="fill-rule:evenodd;clip-rule:evenodd;fill:#625954;" d="M64.05,96.95c-3-1.566-5-4.25-6-8.05
		c-0.6-2.3-0.967-6.25-1.1-11.85c-0.134-5.867-0.517-10.233-1.15-13.1c-1.066-4.8-3.133-8.684-6.2-11.65l0.101,0.85
		c0.133,0.8,1.017,2.8,2.649,6c1.667,3.233,2.567,5.217,2.7,5.95c-0.066,0.633-0.184,0.85-0.35,0.65
		c-0.2-0.433-0.733-1.167-1.601-2.2c-0.733-0.867-1.233-1.767-1.5-2.7c0.4,4.833,0.684,9.7,0.851,14.6
		c-0.033,0.5-0.017,1.566,0.05,3.2c0,0.833-0.316,3.017-0.95,6.55c-0.633,3.5-0.95,6.05-0.95,7.65c0,2.4,0.25,4.216,0.75,5.45
		c0.567,1.367,1.5,2.184,2.801,2.45c-3.034,4.2-4.717,6.6-5.051,7.2c-0.033-0.267-0.416-1.65-1.149-4.15
		c-0.8-2.566-1.3-4.066-1.5-4.5c-0.167,1.8-0.417,3.55-0.75,5.25l0.1-2.149c0.066-2.134-0.05-4.367-0.35-6.7
		c-0.334-2.5-0.5-4.417-0.5-5.75c0-1,0.45-2.467,1.35-4.4c0.934-2,1.417-3.433,1.45-4.3c0.2-2.733,0.3-5.683,0.3-8.85
		c0-1.566-0.35-3.583-1.05-6.05c-0.667-2.2-0.884-4.467-0.65-6.8c0.301-3.3-0.483-6.95-2.35-10.95c-1.7-3.533-2.95-5.3-3.75-5.3
		c-0.567,0-1.117,0.333-1.65,1l-0.3,0.25c-0.4,0.233-1.45,1.184-3.15,2.85c-1.6,1.6-2.517,2.567-2.75,2.9l1.15-5.7
		c0.233-1.467,1.2-2.684,2.9-3.65c2.2-1.267,3.333-1.934,3.4-2c1.233-1.434,1.85-5.55,1.85-12.35L40.95,3.45
		c0-0.233,0.017-0.383,0.05-0.45c0.7,1.433,1.35,4.933,1.95,10.5c0.233,2.233,0.733,7.95,1.5,17.15
		c0.166,1.967,0.283,3.95,0.35,5.95c0.3,3.167,2.816,8.217,7.55,15.15c4.834,7,7.384,11.383,7.65,13.15
		c0.1,0.8,0.35,5.567,0.75,14.3C61.017,85.033,62.116,90.95,64.05,96.95z M56.35,149.8l3.051,22.45c-1.467-6.233-2.134-7.167-2-2.8
		c0.267,2.767,1.083,4.684,2.449,5.75l0.301,0.35c-0.034-0.066-0.051-0.116-0.051-0.149c0.233,0.133,0.467,0.25,0.7,0.35l0.3-0.35
		c0.367-4.267-0.166-9.233-1.6-14.9C57.833,154.9,56.783,151.333,56.35,149.8z M58.65,136.55c0.133,9.467,1.199,16.816,3.199,22.05
		c2.101,5.367,3.267,12.317,3.5,20.851c1.801-3.267,2.817-5.517,3.051-6.75c-0.067-0.8,0.033-1.517,0.3-2.15
		c0.2-0.467,0.633-0.883,1.3-1.25c0.533-0.333,0.8-0.717,0.8-1.149c-0.233-10.101-0.5-16.934-0.8-20.5v-2.601l0.25-1.85
		c1.5,4.733,2.6,9.983,3.3,15.75c0.334,2.899,0.667,5.95,1,9.149h0.7l1.05-2.199c0.3,0.066,0.55,0.166,0.75,0.3
		c0.167,0.333,0.267,0.7,0.3,1.1c0.067-1.733,0.101-3.95,0.101-6.649c0-7.134-0.517-11.834-1.55-14.101
		c-1.467-3.3-2.551-7.983-3.25-14.05c-0.334-3.066-0.434-5.967-0.301-8.7c0.233-2.434,0.334-4.1,0.301-5
		c-0.067-2.533-2.134-6.033-6.2-10.5c0.2,0.101,0.467,0.184,0.8,0.25c0.967,0.267,2.434,0.717,4.4,1.351
		c1.366,3.533,2.3,7.3,2.8,11.3c0.3,2.2,0.566,5.083,0.8,8.649c0.333,2.7,1.083,6.017,2.25,9.95c0.467,1.566,1.3,4.101,2.5,7.601
		c0.467,1.366,0.7,2.083,0.7,2.149c0.233,1.533,0.35,4.684,0.35,9.45c0,3.6-0.066,7.333-0.2,11.2c-0.066,2-0.899,3.483-2.5,4.45
		c-1.866,0.733-3.083,1.216-3.649,1.449c-0.4,0.167-1.5,0.517-3.3,1.051c-0.267,0.1-1.084,0.833-2.45,2.199
		c-0.967,0.967-2.134,1.584-3.5,1.851c-1.634,0.267-2.566,0.483-2.8,0.649c-0.801,0.5-1.483,0.967-2.051,1.4
		c-0.933,0.733-1.433,1.134-1.5,1.2l-0.8,0.6c-0.166,0.066-0.783,0.467-1.85,1.2c-0.867,0.566-1.517,0.9-1.95,1
		c-1,0.366-2.05,0.684-3.15,0.95L50,188.45c2-9.167,3-23,3-41.5c-0.066-13.367,0.15-26.217,0.65-38.55
		c-0.101,5.866,0.283,12.983,1.149,21.35c1,9.267,1.517,14.967,1.55,17.1l0.101-0.35c0.066-0.467,0.25-1.167,0.55-2.1l0.5-1.65
		l-0.75-5.8c0.134-0.367,0.3-1.566,0.5-3.601c0.167-1.899,0.25-3.149,0.25-3.75c-0.267-11.966-0.517-19.55-0.75-22.75l1.15,1.301
		c0.033,2.833-0.051,6.883-0.25,12.149C57.65,120.967,57.983,126.384,58.65,136.55z M28.15,187.15l-2.95,0.5
		c0.566-6.067,0.95-9.467,1.15-10.2c0.833-1.834,1.917-4.267,3.25-7.3C29.733,172.55,29.25,178.217,28.15,187.15z M33.75,185
		c0.1,0.134,0.267,0.434,0.5,0.9c0.233,0.399,0.483,0.649,0.75,0.75c1.467-1.5,3.833-2.551,7.1-3.15c0.434,0,1.233,0.917,2.4,2.75
		l0.9,2.3L45.1,188.5l-4.649-0.65l-1.3-0.1l-1.25-0.15l-1.15-0.199l-0.6,0.1c-0.4-0.1-1-0.217-1.8-0.35c-0.7-0.134-1.1-0.2-1.2-0.2
		l0.25-2.8L33.75,185z M18.7,188.25c1.066-2.967,1.966-7,2.7-12.1c1-7.2,1.567-11.101,1.7-11.7c0.4-3.767,0.883-10.75,1.45-20.95
		c0.4-7.267,0.684-12.917,0.85-16.95l0.1,1.351c0.033,1.466,0.317,8.066,0.85,19.8C26.783,157.6,27,163.85,27,166.45
		c0,3.767-0.567,7.85-1.7,12.25c-1.267,5-1.95,8.066-2.05,9.2L18.7,188.25z M6.15,178.4c-0.9-0.101-1.65-0.2-2.25-0.301
		c-1.133-0.166-1.967-0.366-2.5-0.6c2.934-5.4,5.617-10.9,8.05-16.5c2.966-6.733,4.583-11.467,4.85-14.2
		c0.867-8.666,1.833-14.149,2.9-16.45c0.6-1.1,1.083-2.017,1.45-2.75c0.6-1.333,1.167-3.216,1.7-5.649
		c0.267-0.767,0.483-1.533,0.65-2.3l0.25-1.051l0.1-0.85c-0.033,0.7-0.233,2.066-0.6,4.1c-0.433,2.5-0.95,4.834-1.55,7
		c-1.034,4.467-1.9,10.551-2.6,18.25c-0.767,8.233-1.267,12.934-1.5,14.101l-0.1,0.55c-1,2.1-2.7,5.2-5.1,9.3
		c-1.333,2.267-1.9,3.816-1.7,4.65l0.85-1.05l-1,2.149l-1.15,1.65L6.15,178.4z M28,65.25v-1.4l0.4,0.4L28,65.25z M28.25,70.35
		l0.3-0.3l-0.2,1.65L28.25,70.35z M32.3,54.7l0.35-0.25l-0.35,1.4V54.7z M58.85,113c0.634-0.733,0.95-1.733,0.95-3
		c0-0.634-0.1-1.217-0.3-1.75c-0.7-1.934-1.9-6.75-3.6-14.45c-0.434-0.933-0.717-1.683-0.851-2.25L55,90.9l0.9,2.9
		c1.166,2.066,2.5,5.65,4,10.75c1.5,5.134,2.25,8.684,2.25,10.65c0,0.934-0.2,2.5-0.601,4.7c-0.5,2.699-0.767,4.183-0.8,4.449
		c-0.2,2.267-0.366,3.667-0.5,4.2l-0.25-1.3c0.134-1.1,0.033-2.684-0.3-4.75c-0.367-2.2-0.9-4.333-1.601-6.4
		c-0.1-0.433-0.166-1.149-0.199-2.149H58.1L58.85,113z M55.6,104.2c0.667,0.899,1.051,1.783,1.15,2.649l-3.8-4.1
		C53.95,102.684,54.833,103.167,55.6,104.2z M57.65,138.7v3.55c0.066-0.533,0.1-1.15,0.1-1.85L57.65,138.7z M35.65,100.25v7.55
		c0,0.566-0.15,11.05-0.45,31.45c-0.167,12.1-0.534,19.55-1.1,22.35c0.233-8.1,0.333-15.566,0.3-22.399
		c-0.066-8.101-0.117-14.917-0.15-20.45l0.25-1.7c0.067,3.634,0.183,3.483,0.35-0.45C35.15,110.6,35.417,105.15,35.65,100.25z
		 M33.45,177.35L33,167.65c0-2.301,0.35-3.834,1.05-4.601L33.6,174.2L33.45,177.35z"/>
	<path style="fill-rule:evenodd;clip-rule:evenodd;fill:#726A60;" d="M71.65,109.9c-1.967-0.634-3.434-1.084-4.4-1.351
		c-0.333-0.066-0.6-0.149-0.8-0.25c4.066,4.467,6.133,7.967,6.2,10.5c0.033,0.9-0.067,2.566-0.301,5
		c-0.133,2.733-0.033,5.634,0.301,8.7c0.699,6.066,1.783,10.75,3.25,14.05c1.033,2.267,1.55,6.967,1.55,14.101
		c0,2.699-0.033,4.916-0.101,6.649c-0.033-0.399-0.133-0.767-0.3-1.1c-0.2-0.134-0.45-0.233-0.75-0.3l-1.05,2.199h-0.7
		c-0.333-3.199-0.666-6.25-1-9.149c-0.7-5.767-1.8-11.017-3.3-15.75L70,145.05c0-1.967-0.033-3.8-0.1-5.5l-0.101-2.5
		c0-1,0.334-1.967,1-2.899c0.667-0.934,1-1.417,1-1.45c0-3.467-0.616-6.884-1.85-10.25c-1.533-4.101-4.267-9.167-8.2-15.2l-0.4-0.95
		c0.801,0.367,1.801,0.7,3,1c0.4-0.633,0.75-1.066,1.051-1.3c0-0.6-2.134-4.833-6.4-12.7c-0.2-0.4-1.267-3.45-3.2-9.15
		c-1.8-5.333-2.916-8.233-3.35-8.7c-0.167-4.9-0.45-9.767-0.851-14.6c0.267,0.933,0.767,1.833,1.5,2.7
		c0.867,1.034,1.4,1.767,1.601,2.2c0.166,0.2,0.283-0.017,0.35-0.65c-0.133-0.733-1.033-2.717-2.7-5.95
		c-1.633-3.2-2.517-5.2-2.649-6L49.6,52.3c3.067,2.967,5.134,6.85,6.2,11.65c0.634,2.867,1.017,7.233,1.15,13.1
		c0.133,5.6,0.5,9.55,1.1,11.85c1,3.8,3,6.484,6,8.05c3.4,6.166,5.467,9.649,6.2,10.45C70.616,107.8,71.083,108.634,71.65,109.9z
		 M50,188.45l-0.35,0.05c-1.934,0.167-3.351,0.184-4.25,0.05c0.866-7.033,1.699-14.483,2.5-22.35c1.666-15.7,2.5-26.351,2.5-31.95
		c0-8.066-0.7-13.55-2.101-16.45c-0.833-1.366-1.45-2.45-1.85-3.25c-0.733-1.366-1.283-3.05-1.65-5.05
		c-0.8-4.267-1.2-9.283-1.2-15.05c0-3.267,0.284-8.184,0.851-14.75c0.533-6.6,0.8-11.3,0.8-14.1c0-2.133-0.384-5.1-1.15-8.9
		c-1-4.867-2.267-8.417-3.8-10.65l0.65-1.95c-0.7,0.033-1.434,0.133-2.2,0.3l-0.15-0.1c0.533-0.667,1.083-1,1.65-1
		c0.8,0,2.05,1.767,3.75,5.3c1.866,4,2.65,7.65,2.35,10.95c-0.233,2.333-0.017,4.6,0.65,6.8c0.7,2.467,1.05,4.483,1.05,6.05
		c0,3.167-0.1,6.117-0.3,8.85c-0.033,0.867-0.517,2.3-1.45,4.3c-0.899,1.934-1.35,3.4-1.35,4.4c0,1.333,0.166,3.25,0.5,5.75
		c0.3,2.333,0.416,4.566,0.35,6.7l-0.1,2.149c0.333-1.7,0.583-3.45,0.75-5.25c0.2,0.434,0.7,1.934,1.5,4.5
		c0.733,2.5,1.116,3.884,1.149,4.15c0.334-0.601,2.017-3,5.051-7.2c1.033,0,1.916,0.733,2.649,2.2
		c0.733,1.434,1.101,3.166,1.101,5.2l-1.15-1.301c0.233,3.2,0.483,10.784,0.75,22.75c0,0.601-0.083,1.851-0.25,3.75
		c-0.2,2.034-0.366,3.233-0.5,3.601l0.75,5.8L57,144.4c-0.3,0.933-0.483,1.633-0.55,2.1l-0.101,0.35
		c-0.033-2.133-0.55-7.833-1.55-17.1c-0.866-8.366-1.25-15.483-1.149-21.35c-0.5,12.333-0.717,25.183-0.65,38.55
		C53,165.45,52,179.283,50,188.45z M55.6,104.2c-0.767-1.033-1.649-1.517-2.649-1.45l3.8,4.1C56.65,105.983,56.267,105.1,55.6,104.2
		z M58.1,116.1c0.7,2.067,1.233,4.2,1.601,6.4c0.333,2.066,0.434,3.65,0.3,4.75l0.25,1.3c0.134-0.533,0.3-1.934,0.5-4.2
		c0.8,11.634,1.816,20.267,3.05,25.9c0.601,2.667,2.084,7.333,4.45,14l0.2,0.05c0.066-0.533,0.116-1.533,0.149-3
		c0.067-2.166,0.101-3.416,0.101-3.75c0.733,0.733,1.25,2.15,1.55,4.25l0.05,0.8c-0.166-4.066-0.267-9.05-0.3-14.949
		c0.3,3.566,0.566,10.399,0.8,20.5c0,0.433-0.267,0.816-0.8,1.149c-0.667,0.367-1.1,0.783-1.3,1.25
		c-0.267,0.634-0.367,1.351-0.3,2.15c-0.233,1.233-1.25,3.483-3.051,6.75c-0.233-8.533-1.399-15.483-3.5-20.851
		c-2-5.233-3.066-12.583-3.199-22.05C58.65,128.717,58.467,121.9,58.1,116.1z M58.85,113l-0.75,0.95l0.301-4.45
		C58.7,110.167,58.85,111.333,58.85,113z M40.45,187.85l4.649,0.65v0.25l-1.149-0.05c-0.033,0-0.084,0-0.15,0s-0.133,0-0.2,0
		c-0.066,0-0.149,0-0.25,0l-3.399-0.4L40.45,187.85z M36.15,187.5l0.6-0.1v0.25L36.15,187.5z M33.4,184.15l-0.25,2.8
		c-1.9-0.033-2.883-0.05-2.95-0.05l-2.05,0.25c1.1-8.934,1.583-14.601,1.45-17c-1.333,3.033-2.417,5.466-3.25,7.3
		c-0.2,0.733-0.583,4.133-1.15,10.2l-1.95,0.25c0.1-1.134,0.783-4.2,2.05-9.2c1.133-4.4,1.7-8.483,1.7-12.25
		c0-2.601-0.217-8.851-0.65-18.75c-0.533-11.733-0.817-18.334-0.85-19.8l-0.1-1.351c-0.167,4.033-0.45,9.684-0.85,16.95
		c-0.566,10.2-1.05,17.184-1.45,20.95c-0.1-2.601-0.15-4.233-0.15-4.9L26.6,95.3l-5.25,22.351v0.1l-1,4.2
		c-0.533,2.434-1.1,4.316-1.7,5.649c-0.367,0.733-0.85,1.65-1.45,2.75c-1.067,2.301-2.034,7.784-2.9,16.45
		c-0.267,2.733-1.883,7.467-4.85,14.2c-2.434,5.6-5.117,11.1-8.05,16.5c-0.267-0.233-0.517-0.517-0.75-0.85L0.4,176.2
		c2.567-3.7,3.917-5.717,4.05-6.05C4.717,169.417,6,164.066,8.3,154.1c2.833-6,5.35-13.283,7.55-21.85
		c2.633-10.066,3.833-18.5,3.6-25.3c3.466-8.2,5.517-15.784,6.15-22.75c0.1-6.934,0.35-12.133,0.75-15.6l0.2,2.65l0.05,2.25
		l0.15-0.35l0.55,7.5c0.034-1.667,0.05-3.333,0.05-5c0.167,5.1,0.6,19.534,1.3,43.3c0.4,14.033,0.6,22.3,0.6,24.8l-0.6,15.75
		c0,0.533,0.05,0.884,0.15,1.05c0.067,0.2,0.25,0.316,0.55,0.351c1.4-1.301,2.167-2.101,2.3-2.4c0.367-0.7,0.567-2.233,0.6-4.6
		c0.5-22.733,0.85-36.284,1.05-40.65c0.367-4.5,0.55-7.783,0.55-9.85l1-8.7c1.233-6.867,1.783-11.867,1.65-15l0.15,2.3
		c-0.167,7.533-0.066,20.717,0.3,39.55c0,6.167-0.317,14.851-0.95,26.05c-0.733,12.867-1.533,21.733-2.4,26.601l0.45-11.15
		c-0.7,0.767-1.05,2.3-1.05,4.601l0.45,9.699l-0.3,4.45l3.05-3.95l0.1,0.9l0.05,3.2c1.333-0.533,2.617-1.566,3.85-3.101
		c0.967-1.199,1.6-2.25,1.899-3.149c1.634,0.366,2.517,2.116,2.65,5.25c0.1,1.633,0.017,3.399-0.25,5.3
		c-1.167-1.833-1.967-2.75-2.4-2.75c-3.266,0.6-5.633,1.65-7.1,3.15c-0.267-0.101-0.517-0.351-0.75-0.75
		c-0.233-0.467-0.4-0.767-0.5-0.9l-0.65-2L33.4,184.15z M15.1,161.2c0.233-1.167,0.733-5.867,1.5-14.101
		c0.7-7.699,1.566-13.783,2.6-18.25c-0.067,1.601-0.117,5.2-0.15,10.801c-0.033,5.333-0.117,9.35-0.25,12.05
		c-0.033,0.133-0.466,1.383-1.3,3.75c-0.9,2.467-1.517,4.116-1.85,4.95L15.1,161.2z M37.8,1.05L37.75,1l0.75,0.25l1.4,0.65L41,3
		c-0.033,0.067-0.05,0.217-0.05,0.45L41.7,26.6c0,6.8-0.617,10.917-1.85,12.35c-0.067,0.066-1.2,0.733-3.4,2
		c-1.7,0.966-2.667,2.183-2.9,3.65c-0.6-3.8-0.2-7.55,1.2-11.25c1.567-3.167,2.333-5.133,2.3-5.9c-0.167-5.767,0.15-10.434,0.95-14
		c0.8-3.733,1.2-5.833,1.2-6.3c0-1.767-0.133-3.1-0.4-4C38.733,2.917,38.4,2.217,37.8,1.05z M28.95,64.85
		c0.1-2.267,0.25-3.934,0.45-5c0.333-1.533,0.633-3.783,0.9-6.75l0.05,2.25c-0.067,1.3-0.05,1.85,0.05,1.65v7.45
		c0.3-2.9,0.483-5.233,0.55-7c0.066,4.333-0.034,8.167-0.3,11.5C30.517,67.817,29.95,66.45,28.95,64.85z M56.35,149.8
		c0.434,1.533,1.483,5.101,3.15,10.7c1.434,5.667,1.967,10.634,1.6,14.9l-0.3,0.35c-0.233-0.1-0.467-0.217-0.7-0.35
		c0,0.033,0.017,0.083,0.051,0.149l-0.301-0.35c-1.366-1.066-2.183-2.983-2.449-5.75c-0.134-4.367,0.533-3.434,2,2.8L56.35,149.8z
		 M35.65,100.25c-0.233,4.9-0.5,10.35-0.8,16.35c-0.167,3.934-0.283,4.084-0.35,0.45l-0.25,1.7c0.033,5.533,0.083,12.35,0.15,20.45
		c0.033,6.833-0.066,14.3-0.3,22.399c0.566-2.8,0.933-10.25,1.1-22.35c0.3-20.4,0.45-30.884,0.45-31.45V100.25z"/>
	<path style="fill-rule:evenodd;clip-rule:evenodd;fill:#8B8178;" d="M45.4,188.55c0.899,0.134,2.316,0.117,4.25-0.05
		c-0.233,0.066-1.051,0.134-2.45,0.2c-0.767,0-1.467,0.017-2.101,0.05v-0.25L45.4,188.55l-0.9-2.3c0.267-1.9,0.35-3.667,0.25-5.3
		c-0.134-3.134-1.017-4.884-2.65-5.25c0.467-0.934,0.867-3.584,1.2-7.95c0.3-4.1,0.45-8.184,0.45-12.25
		c0.033-9.5-0.167-15.816-0.6-18.95c-1.934-14.3-2.884-23.283-2.851-26.95c0.066-5.333,0-14.233-0.2-26.7
		c-0.167-10.267-0.266-16.083-0.3-17.45c0-0.167,0-0.267,0-0.3c0-0.633,0.316-2.283,0.95-4.95c0.634-2.7,0.95-4.35,0.95-4.95
		c0-1.233-0.233-2.95-0.7-5.15c-0.467-2.233-0.7-3.583-0.7-4.05c1.533,2.233,2.8,5.784,3.8,10.65c0.767,3.8,1.15,6.767,1.15,8.9
		c0,2.8-0.267,7.5-0.8,14.1C43.884,86.267,43.6,91.183,43.6,94.45c0,5.767,0.4,10.783,1.2,15.05c0.367,2,0.917,3.684,1.65,5.05
		c0.399,0.8,1.017,1.884,1.85,3.25c1.4,2.9,2.101,8.384,2.101,16.45c0,5.6-0.834,16.25-2.5,31.95
		C47.1,174.066,46.267,181.517,45.4,188.55z M37.9,187.6l1.25,0.15l0.8,0.55l-3.2-0.649L37.9,187.6z M30.2,186.9
		c-2.333,0.399-4,0.649-5,0.75l2.95-0.5L30.2,186.9z M33.4,184.15L33.1,183l0.65,2L33.4,184.15z M23.1,164.45
		c-0.133,0.6-0.7,4.5-1.7,11.7c-0.733,5.1-1.633,9.133-2.7,12.1c-1.4,0-2.633-0.033-3.7-0.1c2.733-8.267,4.467-13.917,5.2-16.95
		c0.7-2.834,1.05-5.601,1.05-8.3c2.467-27.767,3.7-43.25,3.7-46.45c0-2.634-0.1-5.2-0.3-7.7c-0.633,7.066-1.483,13.533-2.55,19.4
		c-1.233,6.866-2.333,14.716-3.3,23.55c0.133-2.7,0.217-6.717,0.25-12.05c0.034-5.601,0.083-9.2,0.15-10.801
		c0.6-2.166,1.117-4.5,1.55-7c0.367-2.033,0.567-3.399,0.6-4.1l-0.1,0.85L21,119.65c-0.167,0.767-0.383,1.533-0.65,2.3l1-4.2v-0.1
		L26.6,95.3l-3.65,64.25C22.95,160.217,23,161.85,23.1,164.45z M10.35,187.65c0.7-2.7,1.25-4.767,1.65-6.2
		c0.767-2.601,1.517-4.184,2.25-4.75l-0.05,1c0,0.066-0.717,3.45-2.15,10.149L10.35,187.65z M7.3,186.85l1.35-2.35
		c0.167,0.533,0.25,1.517,0.25,2.95l-1.7-0.25L7.3,186.85z M9.05,174.65l3.3-4.051c-0.5,1.2-1.233,2.45-2.2,3.75
		c-0.233,0.301-0.933,1.117-2.1,2.45L9.05,174.65z M6.15,178.4l0.75,0.05l0.2,0.1L6.15,178.4z M0.4,176.2
		c-0.267-0.9-0.4-1.783-0.4-2.65c0-1.467,0.417-3.383,1.25-5.75c1.1-2.866,1.917-5.149,2.45-6.85c1.667-2.334,2.617-3.667,2.85-4
		c0.367-0.566,0.95-1.517,1.75-2.851c-2.3,9.967-3.583,15.317-3.85,16.051C4.317,170.483,2.967,172.5,0.4,176.2z M15.1,161.2
		l0.55-0.8L15,161.75L15.1,161.2z M23.05,16.2c-0.233,1.466-0.433,3.2-0.6,5.2c-0.1,1.167-0.233,2.9-0.4,5.2
		C22.05,23.333,22.383,19.867,23.05,16.2z M32.4,50.3c-0.2,0.434-0.566,1.133-1.1,2.1c-0.433,0.934-0.75,1.917-0.95,2.95L30.3,53.1
		c-0.267,2.967-0.566,5.217-0.9,6.75c-0.2,1.066-0.35,2.733-0.45,5l-0.55-0.6l-0.4-0.4v1.4c-0.633,1.667-1.033,3.05-1.2,4.15
		c-0.1,0.567-0.183,1.184-0.25,1.85l-0.2-2.65c-0.4,3.467-0.65,8.667-0.75,15.6c-0.633,6.966-2.684,14.55-6.15,22.75
		c-0.267-4,0.183-9.084,1.35-15.25c1.367-7.467,2.15-13.317,2.35-17.55l-1.1,1.05c0.333-1.067,0.617-2.65,0.85-4.75
		c0.2-1.8,0.3-3.4,0.3-4.8l-0.75-15.6c0-1.066,0.15-2.167,0.45-3.3c0.4-1.433,0.7-3.55,0.9-6.35c0.534-7,0.883-11.033,1.05-12.1
		c0-0.033,0.417-1.283,1.25-3.75v8.25c-0.167,9.3-0.45,17.7-0.85,25.2c1.567-5.367,2.4-15.933,2.5-31.7
		c0.033-6.333,0.233-10.767,0.6-13.3c0.5-3.7,1.5-5.633,3-5.8c-0.1-0.4-0.617-0.983-1.55-1.75c-0.867-0.7-1.533-1.133-2-1.3
		l0.55-0.35c0.333-0.1,1.417-0.683,3.25-1.75c2.133-0.966,4.167-1.316,6.1-1.05l0.1,0.05c0.6,1.167,0.934,1.867,1,2.1
		c0.267,0.9,0.4,2.233,0.4,4c0,0.467-0.4,2.567-1.2,6.3c-0.8,3.566-1.117,8.233-0.95,14c0.034,0.767-0.733,2.733-2.3,5.9
		c-1.4,3.7-1.8,7.45-1.2,11.25L32.4,50.3z M38.75,44.4l-0.45,0.15l0.3-0.25L38.75,44.4z M58.85,113c0-1.667-0.149-2.833-0.449-3.5
		l-0.301,4.45H57.9c0.033,1,0.1,1.717,0.199,2.149c0.367,5.801,0.551,12.617,0.551,20.45c-0.667-10.166-1-15.583-1-16.25
		c0.199-5.267,0.283-9.316,0.25-12.149c0-2.034-0.367-3.767-1.101-5.2c-0.733-1.467-1.616-2.2-2.649-2.2
		c-1.301-0.267-2.233-1.083-2.801-2.45c-0.5-1.233-0.75-3.05-0.75-5.45c0-1.6,0.317-4.15,0.95-7.65
		c0.634-3.534,0.95-5.717,0.95-6.55c-0.066-1.633-0.083-2.7-0.05-3.2c0.434,0.466,1.55,3.367,3.35,8.7c1.934,5.7,3,8.75,3.2,9.15
		c4.267,7.867,6.4,12.101,6.4,12.7c-0.301,0.233-0.65,0.667-1.051,1.3c-1.199-0.3-2.199-0.633-3-1l0.4,0.95
		c3.934,6.033,6.667,11.1,8.2,15.2c1.233,3.366,1.85,6.783,1.85,10.25c0,0.033-0.333,0.517-1,1.45c-0.666,0.933-1,1.899-1,2.899
		l0.101,2.5c0.066,1.7,0.1,3.533,0.1,5.5v2.601c0.033,5.899,0.134,10.883,0.3,14.949l-0.05-0.8c-0.3-2.1-0.816-3.517-1.55-4.25
		c0,0.334-0.033,1.584-0.101,3.75c-0.033,1.467-0.083,2.467-0.149,3l-0.2-0.05c-2.366-6.667-3.85-11.333-4.45-14
		c-1.233-5.634-2.25-14.267-3.05-25.9c0.033-0.267,0.3-1.75,0.8-4.449c0.4-2.2,0.601-3.767,0.601-4.7c0-1.967-0.75-5.517-2.25-10.65
		c-1.5-5.1-2.834-8.684-4-10.75L55,90.9l0.05,0.65c0.134,0.567,0.417,1.317,0.851,2.25c1.699,7.7,2.899,12.517,3.6,14.45
		c0.2,0.533,0.3,1.116,0.3,1.75C59.8,111.267,59.483,112.267,58.85,113z M36.65,82l-0.15-2.3c0.133,3.133-0.417,8.133-1.65,15
		l1.45-29.25C34,80.417,32.85,88.233,32.85,88.9c0,0.667,0.333,5.5,1,14.5c0,2.066-0.184,5.35-0.55,9.85
		c0-12.5-0.283-22.067-0.85-28.7l-3.2,59.2c0-2.5-0.2-10.767-0.6-24.8c-0.7-23.767-1.133-38.2-1.3-43.3c0,1.667-0.017,3.333-0.05,5
		l-0.55-7.5L26.6,73.5c0.2-0.733,0.483-1.4,0.85-2c0.2-0.333,0.466-0.717,0.8-1.15l0.1,1.35l0.2-1.65c1.9-0.667,2.6-1.033,2.1-1.1
		c0.267-3.333,0.367-7.167,0.3-11.5c-0.067,1.767-0.25,4.1-0.55,7V57c0.2-0.467,0.483-0.9,0.85-1.3c0.2-0.2,0.55-0.534,1.05-1v1.15
		l0.35-1.4c1.2-0.833,2.467-0.934,3.8-0.3c1.367,0.6,2.25,1.7,2.65,3.3L36.65,82z M25.95,58c0,0.133-0.133,0.933-0.4,2.4
		c-0.233,1.4-0.233,2.117,0,2.15c0.467-1.733,0.733-3.367,0.8-4.9L25.95,58z M57.65,138.7l0.1,1.7c0,0.699-0.033,1.316-0.1,1.85
		V138.7z"/>
	<path style="fill-rule:evenodd;clip-rule:evenodd;fill:#A1978B;" d="M8.9,187.45c0-1.434-0.083-2.417-0.25-2.95l-1.35,2.35
		L7.25,186.9l0.15-1.95l-0.25-4.55c0.067-0.834,0.083-1.4,0.05-1.7l-0.1-0.15l-0.2-0.1l1.15-1.65c1.167-1.333,1.867-2.149,2.1-2.45
		c0.967-1.3,1.7-2.55,2.2-3.75l-3.3,4.051L8.2,175.7c-0.2-0.834,0.367-2.384,1.7-4.65c2.4-4.1,4.1-7.2,5.1-9.3l0.65-1.35
		c0.333-0.834,0.95-2.483,1.85-4.95c0.833-2.367,1.267-3.617,1.3-3.75c0.967-8.834,2.067-16.684,3.3-23.55
		c1.066-5.867,1.917-12.334,2.55-19.4c0.2,2.5,0.3,5.066,0.3,7.7c0,3.2-1.233,18.684-3.7,46.45c0,2.699-0.35,5.466-1.05,8.3
		c-0.733,3.033-2.467,8.684-5.2,16.95l-2.95-0.051v-0.25c1.434-6.699,2.15-10.083,2.15-10.149l0.05-1
		c-0.733,0.566-1.483,2.149-2.25,4.75c-0.4,1.434-0.95,3.5-1.65,6.2L8.9,187.45z M29.25,143.75l3.2-59.2
		c0.566,6.633,0.85,16.2,0.85,28.7c-0.2,4.366-0.55,17.917-1.05,40.65c-0.033,2.366-0.233,3.899-0.6,4.6c-0.133,0.3-0.9,1.1-2.3,2.4
		c-0.3-0.034-0.483-0.15-0.55-0.351c-0.1-0.166-0.15-0.517-0.15-1.05L29.25,143.75z M42.1,175.7c-0.3,0.899-0.933,1.95-1.899,3.149
		c-1.233,1.534-2.517,2.567-3.85,3.101l-0.05-3.2l-0.1-0.9l-3.05,3.95l0.3-4.45l0.15-3.149c0.867-4.867,1.667-13.733,2.4-26.601
		c0.633-11.199,0.95-19.883,0.95-26.05c-0.367-18.833-0.467-32.017-0.3-39.55l2.45-24.55c-0.4-1.6-1.283-2.7-2.65-3.3
		c-1.333-0.633-2.6-0.533-3.8,0.3L32.3,54.7c-0.5,0.466-0.85,0.8-1.05,1c-0.367,0.4-0.65,0.833-0.85,1.3
		c-0.1,0.2-0.117-0.35-0.05-1.65c0.2-1.033,0.517-2.017,0.95-2.95c0.534-0.967,0.9-1.667,1.1-2.1c0.233-0.333,1.15-1.3,2.75-2.9
		c1.7-1.667,2.75-2.617,3.15-2.85l0.45-0.15c0.767-0.167,1.5-0.267,2.2-0.3l-0.65,1.95c0,0.467,0.233,1.817,0.7,4.05
		c0.467,2.2,0.7,3.917,0.7,5.15c0,0.6-0.316,2.25-0.95,4.95c-0.634,2.667-0.95,4.316-0.95,4.95c0,0.033,0,0.133,0,0.3
		c0.034,1.367,0.133,7.183,0.3,17.45c0.2,12.466,0.267,21.367,0.2,26.7c-0.033,3.667,0.917,12.65,2.851,26.95
		c0.433,3.134,0.633,9.45,0.6,18.95c0,4.066-0.15,8.15-0.45,12.25C42.967,172.116,42.566,174.767,42.1,175.7z M19.45,106.95
		c0.233,6.8-0.967,15.233-3.6,25.3c-2.2,8.566-4.717,15.85-7.55,21.85c-0.8,1.334-1.383,2.284-1.75,2.851
		c-0.233,0.333-1.183,1.666-2.85,4c2.033-5.533,3.7-10.217,5-14.05c2.433-7.167,3.55-12.051,3.35-14.65l0.15-2.5
		c0.167-3,1.183-9.083,3.05-18.25c1.833-9.066,2.767-14.15,2.8-15.25c0-4.167,0.05-8.2,0.15-12.1c0.233-7.333,0.966-16.867,2.2-28.6
		l0.55-7.25c0.533-11.9,0.8-18.083,0.8-18.55c0,0.733,0.1-0.317,0.3-3.15c0.167-2.3,0.3-4.033,0.4-5.2c0.167-2,0.367-3.733,0.6-5.2
		c-0.167-2.034-0.25-3.383-0.25-4.05c0-2.933,0.784-5.517,2.35-7.75c2.067-2.933,5.133-4.4,9.2-4.4c0.667,0,1.9,0.333,3.7,1h-0.3
		H37.7c-1.934-0.267-3.967,0.083-6.1,1.05c-1.833,1.067-2.917,1.65-3.25,1.75L27.8,4.15c0.467,0.167,1.133,0.6,2,1.3
		c0.934,0.767,1.45,1.35,1.55,1.75c-1.5,0.167-2.5,2.1-3,5.8c-0.367,2.533-0.567,6.967-0.6,13.3c-0.1,15.767-0.933,26.333-2.5,31.7
		c0.4-7.5,0.683-15.9,0.85-25.2v-8.25c-0.833,2.467-1.25,3.717-1.25,3.75c-0.167,1.067-0.517,5.1-1.05,12.1
		c-0.2,2.8-0.5,4.917-0.9,6.35c-0.3,1.133-0.45,2.233-0.45,3.3l0.75,15.6c0,1.4-0.1,3-0.3,4.8c-0.233,2.1-0.517,3.683-0.85,4.75
		l1.1-1.05c-0.2,4.233-0.983,10.083-2.35,17.55C19.633,97.866,19.183,102.95,19.45,106.95z M28.25,70.35
		c-0.333,0.433-0.6,0.816-0.8,1.15c-0.367,0.6-0.65,1.267-0.85,2l-0.05-2.25c0.067-0.667,0.15-1.283,0.25-1.85
		c0.167-1.1,0.567-2.483,1.2-4.15l0.4-1l0.55,0.6c1,1.6,1.566,2.967,1.7,4.1c0.5,0.066-0.2,0.433-2.1,1.1L28.25,70.35z M34.85,94.7
		l-1,8.7c-0.667-9-1-13.833-1-14.5c0-0.667,1.15-8.483,3.45-23.45L34.85,94.7z M25.95,58l0.4-0.35c-0.067,1.533-0.333,3.167-0.8,4.9
		c-0.233-0.033-0.233-0.75,0-2.15C25.817,58.933,25.95,58.133,25.95,58z M39.95,188.3l-0.8-0.55l1.3,0.1L39.95,188.3z M37.9,187.6
		l-1.15,0.051v-0.25L37.9,187.6z"/>
</g>
</svg>
