<?xml version="1.0" encoding="iso-8859-1"?>
<!-- Generator: Adobe Illustrator 15.1.0, SVG Export Plug-In . SVG Version: 6.00 Build 0)  -->
<!DOCTYPE svg PUBLIC "-//W3C//DTD SVG 1.1//EN" "http://www.w3.org/Graphics/SVG/1.1/DTD/svg11.dtd">
<svg version="1.1" id="Layer_1" xmlns="http://www.w3.org/2000/svg" xmlns:xlink="http://www.w3.org/1999/xlink" x="0px" y="0px"
	 width="84.45px" height="297.85px" viewBox="0 0 84.45 297.85" style="enable-background:new 0 0 84.45 297.85;"
	 xml:space="preserve">
<g>
	<path style="fill-rule:evenodd;clip-rule:evenodd;fill:#8B8178;" d="M46.75,69.25h-0.1c-0.733-8.967-1.334-16.517-1.801-22.65
		c-0.833-11.467-1.283-24.05-1.35-37.75l0.1,0.05C44.566,9.033,45.7,9.067,47,9C46.9,21.233,46.816,41.317,46.75,69.25z M42.4,7.85
		V7.9c0.1,36.867,0.267,59.583,0.5,68.15c0.533,5,0.133,9.983-1.2,14.95c-1.133,4.3-2.133,6.45-3,6.45c-0.733,0-1.567-1.034-2.5-3.1
		l-0.05-5.25c0-2.333,0.167-3.817,0.5-4.45c0.167-0.3,0.55-0.467,1.15-0.5c1.067-0.1,1.6-2.8,1.6-8.1l-0.15-3L39,71.9
		c0.067,1.167-0.033,2.85-0.3,5.05c-0.267,1.966-0.5,3.233-0.7,3.8c-0.467-1.433-0.783-3.8-0.95-7.1
		c-0.167-3.5-0.25-9.617-0.25-18.35c0-10.167,0.5-18.716,1.5-25.65c1.133-7.9,1.833-17.733,2.1-29.5V0.1l0.55,0.15
		c0.333,0.5,0.633,1.7,0.9,3.6C42.184,6.383,42.366,7.717,42.4,7.85z M47.2,9L48,9.15c0,0.033,0,0.067,0,0.1
		c0,3.933-0.15,6.95-0.45,9.05L47.2,9z M59.15,39.1l0.05,1.1c0,0.667-0.267,2.783-0.8,6.35c-0.134,0.133-0.317,0.3-0.551,0.5
		c-0.433-0.233-0.75-1.216-0.949-2.95L56.8,43.7c-0.267,0.7-0.633,1.65-1.1,2.85c-0.434,1.1-0.967,2.167-1.601,3.2
		c-0.533,0.833-0.85,2.4-0.949,4.7c-0.101,2.2-0.434,3.633-1,4.3l-0.101-12.9c0-0.033,0-0.067,0-0.1v-0.3
		c0.066-1.534,0.483-4.317,1.25-8.35l0.5,0.45c0.4,0.333,0.733,0.684,1,1.05c0.134-0.067,0.384-0.367,0.75-0.9
		c0.467,0.333,1.15,0.667,2.05,1C58.434,39,58.95,39.133,59.15,39.1z M61.55,39.15C61.517,45.717,61.5,52.4,61.5,59.2
		c-0.033,3.8-0.1,6.367-0.2,7.7c-0.1,0-0.283,0.35-0.55,1.05l-0.3,0.35c-0.033-1.033-0.167-10.767-0.4-29.2L61.55,39.15z
		 M79.9,100.1c1.699,8.533,2.517,13.733,2.449,15.6c-0.066,1.6-0.316,6.333-0.75,14.2c0,4.8,0.467,13.333,1.4,25.6
		c-0.333,4.934-0.5,9.6-0.5,14c0,0.667,0.25,11.667,0.75,33l-1.8,6.8L81.6,185.4c-0.066-20.5-0.133-33.233-0.199-38.2
		c-0.733,29.833-1.2,47.116-1.4,51.85c-0.134,2.8-0.2,4.5-0.2,5.101l-0.25,11l0.25,14.75l-1.25,2.35c-0.533,0.9-1.184,2.2-1.95,3.9
		c0,1-0.316,1.85-0.949,2.55c-0.634,0.7-1.4,1.05-2.301,1.05l-0.6,0.3c-1.2,1.3-1.816,2.101-1.85,2.4
		c-0.034,0.233-0.284,0.95-0.75,2.149c-0.367,2.2-0.434,6.051-0.2,11.551v0.399l-0.05,2.601l-0.5,3.75
		c-0.134-1.867-0.4-3.95-0.801-6.25l-0.449-1.95c0,2.833-0.017,4.184-0.051,4.05c0.067,1.134,0.101,4.1,0.101,8.9L66.6,268.6V267
		l1.551-12.35c-0.4,0.767-0.784,1.883-1.15,3.35c-0.333,1.2-0.517,2.267-0.55,3.2l0.1-17.45l0.3,3.15
		c0.2-24.733,0.084-43.801-0.35-57.2c1.7,4.333,2.65,9.533,2.85,15.6c0.233,6.634,0.834,11.55,1.801,14.75
		c0.433-5.8,0.916-16.483,1.449-32.05c0.567-15.366,0.851-25.7,0.851-31l-1-66.75L72.7,88l-1.351,2.05
		c0.233-2.4,0.784-4.017,1.65-4.85c0.9-0.9,1.384-1.6,1.45-2.1c0.1-0.733,0.149-2.283,0.149-4.65c-0.033-2.833-0.05-4.934-0.05-6.3
		c0.733,2.267,1.117,3.467,1.15,3.6c0.133,0.433,0.383,1.583,0.75,3.45l0.2,1.05v3c-1.034,3.933-1.733,10.067-2.101,18.4
		c-0.3,6.167-0.45,14.783-0.45,25.85l0.15,24.55c0.1-3.066,0.667-11.917,1.7-26.55c1.033-14.033,1.6-21.4,1.7-22.1l0.1-0.4
		c0.4,2.633,0.816,4.25,1.25,4.85l0.3,0.15C79.6,107.033,79.8,104.4,79.9,100.1z M16.65,45.1c0.267,6,0.4,10.167,0.4,12.5l0.5-17.55
		L17.6,40l0.4-1v0.35l0.75,40.6c0.1-7.6,0.45-14.733,1.05-21.4c0.9-9.867,1.367-16.95,1.4-21.25c0-0.066,0-0.133,0-0.2l2.95,0.1
		h1.15l-0.2,11.75c0.467,27.966,0.733,47.767,0.8,59.4c0.067-0.067,0.184-1.017,0.35-2.85c0.167-1.967,0.567-3.383,1.2-4.25
		c0.3-0.4,0.75-0.833,1.35-1.3c0.667-0.534,1.25-1.117,1.75-1.75l0.9,0.3l0.05,5.15l-0.05,1.95c-0.067,2.633-0.167,7.833-0.3,15.6
		C31.05,128.367,31,132.3,31,133l0.1,24c0.2-9.2,0.767-26.9,1.7-53.1c0.067,0,0.3,0.05,0.7,0.15c0.5,0.1,0.95,0.15,1.35,0.15
		c0.1,0,0.617-0.55,1.55-1.65c0.733,0,1.633,0.2,2.7,0.6c0.566,0.2,1.25,0.434,2.05,0.7c1.2,1.2,1.8,1.867,1.8,2
		c0.033,14.5-0.101,30.883-0.4,49.15c-0.033,2.7-0.383,5.667-1.05,8.9c-0.733,3.466-1.517,5.583-2.35,6.35
		c-0.167-0.3-0.717-1.1-1.65-2.4c-0.1,0-0.3,0.117-0.6,0.351c-0.333,0.267-0.55,0.399-0.65,0.399c-0.333-0.233-0.533-2.233-0.6-6
		v-1.25c1.033-10.866,1.55-18.149,1.55-21.85l-0.65-22.55c-0.3,0.8-0.617,11.783-0.95,32.95l-0.05,1.85l-0.2-4.4l-0.2-7v0.5
		l-0.15-3.5c-0.133,1.4-0.467,6.367-1,14.9c-0.567,9.066-0.85,14.333-0.85,15.8l-0.05,0.101c-2,0.1-2.934-5.117-2.8-15.65
		c0.233-19.667,0.284-30.767,0.15-33.3c-0.5,14.7-1.167,25.767-2,33.2c-0.867,7.633-1.983,12.1-3.35,13.399
		c-0.733-5.066-1.05-8.883-0.95-11.45c0.367-9.466,0.55-19.7,0.55-30.7c-0.2-26.767-0.45-46.933-0.75-60.5
		c-1.133,17-1.767,29.184-1.9,36.55c0,0.506,0,1.006,0,1.5l-0.2,12.85c0,0.3,0,0.567,0,0.8v13.2c-0.167,1.367-0.283,3.35-0.35,5.95
		c-0.033,1.4-0.267,2.717-0.7,3.95l-0.65,0.2c0.267-1.4,0.467-3.1,0.6-5.1l-0.05-1.5c-0.167,0.567-0.434,1.2-0.8,1.9
		c-0.566,1.1-1.167,1.9-1.8,2.4c-0.7-0.833-1.1-1.333-1.2-1.5c-0.1-0.167-0.117-1.267-0.05-3.3c0.5-11.367,0.667-28.716,0.5-52.05
		c-0.267,17.267-0.467,27.033-0.6,29.3c-0.667,12.667-2.167,21.434-4.5,26.3c-1.1-11.467-3.033-19.6-5.8-24.4
		c-0.733-1.267-1.25-2.767-1.55-4.5c-0.3-1.7-0.35-3.367-0.15-5v-6.25c0-4.6-0.067-7.05-0.2-7.35c-0.9-0.8-2.117-2.434-3.65-4.9
		c0-2.7,0.517-5,1.55-6.9c1.033-1.933,2.267-2.9,3.7-2.9c-0.5,13.667,0.067,22.95,1.7,27.85c0.433,1.3,1.1,2.967,2,5
		c0.667,2.033,1.083,4.567,1.25,7.6c0.4-7.4,0.6-24.117,0.6-50.15l0.35-1.05c0.034-0.033,1-1.517,2.9-4.45
		c1.167-1.8,1.75-3.517,1.75-5.15C16.633,48.117,16.617,45.8,16.65,45.1z M77.05,81.95l-0.2,0.7l0.051-1.3L77.05,81.95z
		 M83.4,201.95c0.066-4.601,0.083-18.117,0.05-40.55c0.666,15.166,1,24.533,1,28.1c0,2.833-0.017,4.616-0.05,5.35
		C84.267,197.184,83.934,199.55,83.4,201.95z M50.7,273.05l-1.2,1c0.033-0.333,0.45-9.217,1.25-26.649
		c0.767-16.834,1.4-26.983,1.9-30.45l0.25-0.75c1,0.866,1.633,2.583,1.899,5.149c0.3,3.067,0.5,4.717,0.601,4.95
		c0.366-2.133,0.616-9.033,0.75-20.7c0.133-10.133,0.916-17.183,2.35-21.149l0.55-0.8c0.033,0.066,0.367,0.633,1,1.699
		c0.634,1.567,0.967,3.617,1,6.15l0.2-3.65c0.333,0.233,0.934,0.517,1.8,0.851c0.667,0.233,1.066,0.483,1.2,0.75
		c0.533,1.934,0.85,3.616,0.95,5.05c0.066,0.833,0.25,5.833,0.55,15c-0.333-4.733-0.533-8.55-0.6-11.45L63.8,248.4
		c0.066,0.833,0.15,2.649,0.25,5.449c0.066,2.567,0.101,4.184,0.101,4.851c0,0.899-0.051,1.934-0.15,3.1
		c-0.134,1.634-0.316,2.667-0.55,3.101c-0.066,0.166-0.517,0.517-1.351,1.05c-0.833,0.533-1.333,0.916-1.5,1.149
		c-0.233,1.301-0.449,2.134-0.649,2.5c-0.367,0.767-1.066,1.301-2.101,1.601l-0.3,0.1l-0.85,0.2h-0.275H55.95l-0.2,0.4l-0.7,0.55
		l-0.25,0.5c0.066-1.101,0.917-9.834,2.55-26.2c1.601-15.866,2.4-24.684,2.4-26.45l-0.6-20.399c-0.233,5.333-0.5,10.6-0.801,15.8
		c-0.199,4-0.366,9.733-0.5,17.2l-0.05-0.851c-0.666,9.434-1.066,14.217-1.2,14.351c-0.466-0.301-0.8-0.817-1-1.551
		c-0.333-1.166-0.666-4.517-1-10.05c-0.133,0.2-0.267,0.9-0.399,2.101c-0.167,1.166-0.25,2.017-0.25,2.55
		c0,0.666,0.066,7.366,0.2,20.1l2.149-7.25c-0.066,0.233-0.517,3.983-1.35,11.25C54.35,268.616,52.934,271.783,50.7,273.05z
		 M48.15,284.5v-6.8c0.3,0.2,0.833,0.35,1.6,0.45c0.733,0.1,1.4,0.1,2,0c-0.8,0.8-1.467,1.566-2,2.3
		C48.717,281.816,48.184,283.167,48.15,284.5z M42.75,187.6c-0.066,10.467-0.233,27.184-0.5,50.15l0.9,5.45
		c0.866-11.5,1.5-20.75,1.899-27.75c0.434,2.2,1.184,3.467,2.25,3.8c0.8,1.667,1.084,7.634,0.851,17.9l0.6-7.101l0.15,2.4
		l-0.75,14.399v-9.699c-1.233,8-1.95,18.6-2.15,31.8c-0.233,13.666-0.6,22.366-1.1,26.1l-1.101-12
		c-0.066,1.4-0.133,5.434-0.2,12.101l-1.85,0.25L39.9,295.6l-0.05-0.149c0.1-1.434,0.1-2.884,0-4.351v-0.125l0.05-24.425
		c0-0.767-0.1-3.383-0.3-7.85c-0.233-5.134-0.45-8.917-0.65-11.351c-0.1,0.801-0.284,2.917-0.55,6.351l-2.1-13.75l0.75,6.149
		c-0.367,3.301-0.683,10.233-0.95,20.801l0.3,15.75l-1.9-0.301l-0.65-6.449v6.399l-1.25-0.1c0.367-3.533,0.55-5.533,0.55-6
		c0-0.667-0.066-1.467-0.2-2.4c-0.767,0.533-1.483,1.617-2.15,3.25c-0.667,1.667-0.983,3.217-0.95,4.65
		c-1.067-0.667-1.95-2.2-2.65-4.601c-0.667-2.933-1.15-5.033-1.45-6.3c0.467,0.2,1.067,0.351,1.8,0.45
		c2.167-1.1,3.65-8.35,4.45-21.75c0.867-15.1,1.7-23.667,2.5-25.7l0.35-0.5c0.2,0.7,0.333,1.917,0.4,3.65
		c0.1,2.934,0.35,6.416,0.75,10.45c0.1-1.4,0.267-8.7,0.5-21.9c0.167-11.767,0.633-20.384,1.4-25.85c0.067,0,0.083-0.051,0.05-0.15
		c0.033-0.1,0.25-0.15,0.65-0.15c0.333,0,0.717,0.15,1.15,0.45c0.4,0.3,0.767,0.45,1.1,0.45c0.433,0,0.8-0.283,1.1-0.85
		C42.116,189.134,42.384,188.533,42.75,187.6z M20.85,177.9c0.167,2.399,0.5,4.433,1,6.1c0.333-0.333,0.75-0.833,1.25-1.5
		c0.533-0.733,0.833-1.233,0.9-1.5c0.233,1.233,0.483,4.634,0.75,10.2c0.167,3.399,0.467,10.033,0.9,19.899
		c0.5-4.866,0.733-9.616,0.7-14.25c-0.133-4.533-0.217-7.649-0.25-9.35c-0.033-5.1,1.433-9.434,4.4-13
		c0.367,0.233,1.033,0.417,2,0.55c0.633,0.066,0.95,0.334,0.95,0.8c0,0.767-0.817,13.601-2.45,38.5
		c-0.3,7.101-0.717,18.017-1.25,32.75c-0.533,11.667-1.267,18.684-2.2,21.051c-0.767-0.801-1.417-1.95-1.95-3.45
		c-0.533-1.467-0.833-3-0.9-4.601l0.1,7.601c-0.1-0.4-0.716-1.417-1.85-3.05c-1.233-1.867-2.117-2.95-2.65-3.25l-2.15-1.25
		c-0.6-0.733-1.1-2.733-1.5-6c-0.467-3.601-0.733-5.483-0.8-5.65l-2.35-1.6l-2.75-0.65l0.05-17.2c0-1.866-0.2-9.5-0.6-22.899
		c-0.4-14.534-0.65-23.367-0.75-26.5C9.417,214.483,9.3,236.3,9.1,245.1c0,0.101,0,0.2,0,0.301c-0.5-0.534-0.833-1.184-1-1.95
		c0-0.134-0.017-0.25-0.05-0.351c-0.133-0.533-0.216-1.133-0.25-1.8L7.45,230c-0.1-5.2-0.217-8.15-0.35-8.85
		c-0.5-2.334-1.833-3.9-4-4.7c-0.733-0.733-1.383-1.566-1.95-2.5L0.7,212.8c0.033-1-0.05-2.483-0.25-4.45
		c-0.021-0.184-0.037-0.358-0.05-0.524c0.002-0.109,0.002-0.218,0-0.325v-0.05c-0.033-0.2-0.05-0.417-0.05-0.65
		c-0.1-1.033-0.15-1.6-0.15-1.7c0-0.3,0.017-0.6,0.05-0.899c0.167-2.334,0.967-5.267,2.4-8.8c1.6-3.934,2.35-7.284,2.25-10.051
		c-0.033-1.3,0.417-6.8,1.35-16.5c0.7-7.233,1.283-12.983,1.75-17.25l-0.1,2.7c0,0.867,0.767,2.834,2.3,5.9
		c1.533,3.133,2.333,5.916,2.4,8.35c0.033,2.134,0,9.017-0.1,20.65c0,5.066,0.5,15.166,1.5,30.3c0.767,12.134,1.367,20.533,1.8,25.2
		l0.05-3.25c0-13-0.033-20.634-0.1-22.9l0.2,0.65c0.133,1.467,0.316,4.416,0.55,8.85l0.8,7.351l0.65,4.949
		c-0.034-19.833,0.066-33.216,0.3-40.149c0.033-1.066,0.45-8.217,1.25-21.45L20.85,177.9z M30.1,55.4l-0.3-4.75
		c-0.233-4.367-0.483-14.483-0.75-30.35l0.15-0.2v1.35l0.2-1.6l0.3-0.45l0.85-0.95c-0.033,0.367-0.183,2.7-0.45,7
		c-0.233,4.267-0.35,6.65-0.35,7.15C29.75,33.267,29.867,40.867,30.1,55.4z M28.05,95.45l0.55,1.25c-0.167,0-0.3-0.117-0.4-0.35
		C28.1,96.083,28.05,95.783,28.05,95.45z M52.7,82.15c-0.367-2.066-0.316-3.6,0.149-4.6c0.567-0.7,0.9-1.133,1-1.3
		C53.75,76.783,53.366,78.75,52.7,82.15z M55.8,83.35c-0.267-1.367-0.55-3.633-0.85-6.8C55.45,77.95,55.733,80.217,55.8,83.35z
		 M53.75,171.45c0.033-0.467,0.05-0.9,0.05-1.3c0.033-0.801,0.017-1.051-0.05-0.75v-0.75c1.3-25,1.9-42.367,1.8-52.101
		c-0.066-7.7-0.066-11.933,0-12.7c2.5,0.833,4.4,3.867,5.7,9.1c0.9,3.5,1.434,7.5,1.6,12c-0.066-4.9,0-8.417,0.2-10.55
		c0.4-4.367,2.316-7.367,5.75-9c0.066,0.667,0.017,4.4-0.149,11.2c0,9.233,0.466,20.05,1.399,32.45c0.733,9.8-0.166,17.3-2.7,22.5
		c-1.666,3.467-3.3,5.2-4.899,5.2c-0.5,0-1.267-0.35-2.3-1.05c-1.034-0.733-1.767-1.45-2.2-2.15
		c-0.566-0.866-1.267-1.416-2.101-1.649C54.917,171.8,54.217,171.65,53.75,171.45z M77.15,191.95L77,195.6
		c-0.366,9.7-0.566,18-0.6,24.9l0.5-1.4c0.433-1.066,0.916-1.85,1.449-2.35H78.4c0.233-0.1,0.449,1.684,0.649,5.35
		c-0.033-1.466-0.6-12.583-1.7-33.35c-0.133-15.267,0.017-24.884,0.45-28.85c0.5-4.4,0.75-10.434,0.75-18.101
		c-0.066-11.667-0.133-19.4-0.2-23.2c-0.966,8.333-1.966,15.367-3,21.1c-0.566,4.167-0.85,11.85-0.85,23.05
		c0,6.267,0.533,12.217,1.6,17.85C76.8,184.3,77.15,188.083,77.15,191.95z M66.5,182.15c0-0.301,0.033-0.684,0.1-1.15
		c0.167-0.934,0.45-1.833,0.851-2.7L66.5,182.15z M60.05,218.15c0,5.566,0.184,17.666,0.55,36.3
		c0.067-6.134,0.217-27.117,0.45-62.95c-0.166,3.6-0.383,8.934-0.649,16C60.167,213.934,60.05,217.483,60.05,218.15z M48.15,271.2
		l0.449,3.75L48.15,275.6V271.2z M66.5,262.75c0,1.8-0.017,2.434-0.05,1.9v-2.375C66.454,262.446,66.471,262.604,66.5,262.75z
		 M44.4,279.7c0-0.667-0.384-3.851-1.15-9.55l0.35,12.899h0.2C44.2,281.483,44.4,280.366,44.4,279.7z"/>
	<path style="fill-rule:evenodd;clip-rule:evenodd;fill:#898074;" d="M42.4,7.85c0.033,0.033,0.083,0.1,0.149,0.2L42.4,7.9V7.85z
		 M43.6,8.9l-0.1-0.05c-0.134-0.067-0.25-0.15-0.35-0.25C43.283,8.7,43.434,8.8,43.6,8.9z M74.05,70.7l-0.35-0.85l-0.15-0.45
		L74.05,70.7z M76.75,80.6l-0.05,2l-0.05-2.35l-0.2-1.05L76.75,80.6z M76.6,236.15c0.767-1.7,1.417-3,1.95-3.9
		c-0.233,0.5-0.616,1.283-1.149,2.35C76.9,235.6,76.634,236.116,76.6,236.15z M69.9,259.15l0.05-2.601c0,1.2,0.083,2.95,0.25,5.25
		c0.033,2.066-0.233,3.533-0.8,4.4l0.399-1.25l0.15-6.05L69.9,259.15z M56.425,271.5H56.7c0.133,0,0.283,0.017,0.45,0.05
		C56.906,271.522,56.665,271.506,56.425,271.5z M1.45,109.8l0.1-0.1l-0.1,0.9V109.8z M1.1,85.95l0.05,1.8l-0.2-3.6L1.1,85.95z
		 M12.05,61.65L11.7,62.7l-0.1,0.2L12.05,61.65z M21.2,37.3c-0.034,4.3-0.5,11.383-1.4,21.25c-0.6,6.667-0.95,13.8-1.05,21.4
		L18,39.35c0.1-0.167,0.2-0.333,0.3-0.5c0.459-0.689,0.76-1.123,0.9-1.3h0.1c0.034,0,0.083,0,0.15,0l0.1-0.05
		C20.017,37.4,20.567,37.333,21.2,37.3z M26.2,37.15l-0.4,0.05h-0.5h-1.15C24.783,37.167,25.467,37.15,26.2,37.15z M29.7,19.4
		l-0.3,0.45l-0.2,0.25L29.7,19.4z M35.5,1.45l-0.45-0.7c0.333-0.167,0.75-0.3,1.25-0.4c-0.066,0.033-0.133,0.066-0.2,0.1
		C35.7,0.717,35.5,1.05,35.5,1.45z M27.6,27.6v4.45l-0.05-2.15L27.6,27.6z M27.5,31.85v-4.8l0.05,2.85L27.5,31.85z M22.1,102
		l-0.05-0.8c0-0.494,0-0.994,0-1.5L22.1,102z M31.55,110.1l-0.05,2.3l-0.05-6.8l0.05-1.95L31.55,110.1z M35.65,162.6l-0.3-15.25
		l0.2,4.4l0.05-1.85l0.05,11.449V162.6z M35,137.35l0.15,3.5l-0.25,7.55L35,137.35z M49,79.7l-0.1,0.15l0.1-3.1V79.7z M53.75,169.4
		c0.066-0.301,0.083-0.051,0.05,0.75c0,0.399-0.017,0.833-0.05,1.3V169.4z M49.2,234.95l-0.3-2.5l-0.15-2.4L49.2,234.95z
		 M2.1,103.95l-0.25,3.85l0.05-1.65l-0.2,1.75l0.3-4.05L2.1,103.95z M1.85,108.3l-0.1-0.3l0.1-0.2V108.3z M17.1,231.2l0.85,9.149
		L17.3,235.4L17.1,231.2z M18.15,148.5l-0.5,1.25l0.75-2.05L18.15,148.5z M52.05,191.25l0.45-3l-0.75,6.2L52.05,191.25z
		 M44.9,295.05l-3.15,0.351l1.85-0.25L44.9,295.05z M48.6,274.95l0.9-0.9l1.2-1L48.6,274.95z M38.4,253.7l-1.35-7.601l-0.75-6.149
		L38.4,253.7z M66.6,267v1.6l-0.149-3.949c0.033,0.533,0.05-0.101,0.05-1.9L66.6,267z"/>
	<path style="fill-rule:evenodd;clip-rule:evenodd;fill:#726A60;" d="M28.05,95.45c0,0.333,0.05,0.633,0.15,0.9
		c0.1,0.233,0.233,0.35,0.4,0.35c0.2-0.133,0.45-0.067,0.75,0.2c0.267,0.2,0.45,0.167,0.55-0.1c0.333-0.733,0.817-4.633,1.45-11.7
		l0.1-2.9c0.3-4.434,0.25-8.284-0.15-11.55c-0.5-2.633-0.8-4.2-0.9-4.7c-0.066,6.933-0.283,12.35-0.65,16.25
		C29.55,84.467,28.983,88.883,28.05,95.45z M30.1,55.4l0.25,4.7c0.066-0.167,0.383-0.85,0.95-2.05c0.4-0.833,0.6-1.65,0.6-2.45
		c-0.033-21.8-0.083-34.617-0.15-38.45c0.767-2.667,1.2-4.2,1.3-4.6c0.067-0.466,0.2-1.183,0.4-2.15L33.4,26.1l0.45-7.35
		c-0.033,2.267-0.033,7.033,0,14.3c0.033,6.967,0.017,13.017-0.05,18.15c-0.066,6.767-0.4,13.867-1,21.3
		C32.267,79.4,32,85.767,32,91.6c0,0.066,0.167,0.35,0.5,0.85c0.333,0.533,0.633,0.95,0.9,1.25l0.2-0.1c0.2-0.233,0.7-1.367,1.5-3.4
		c0.3,1.367,0.667,2.75,1.1,4.15c0.933,2.066,1.767,3.1,2.5,3.1c0.867,0,1.867-2.15,3-6.45c1.333-4.967,1.733-9.95,1.2-14.95
		c-0.233-8.566-0.4-31.283-0.5-68.15l0.149,0.15l0.2,0.2c0.066,0.067,0.134,0.117,0.2,0.15l0.2,0.2c0.1,0.1,0.216,0.183,0.35,0.25
		c0.066,13.7,0.517,26.283,1.35,37.75c0.467,6.133,1.067,13.683,1.801,22.65L46.4,69.1c0,0.9-0.267,2.066-0.801,3.5
		c-0.533,1.433-0.8,2.85-0.8,4.25c0,0.667,0.084,1.85,0.25,3.55c0.434-0.167,1.15-0.283,2.15-0.35c0.967-0.066,1.533-0.133,1.7-0.2
		c-0.601,28.733-1.184,46.95-1.75,54.65c-0.367,5.233-0.551,9.55-0.551,12.95c0,1.466,0.267,7.383,0.801,17.75
		c0.533,10.333,0.8,20.066,0.8,29.2c0,0.533-0.033,1.35-0.101,2.449c-0.133-0.133-0.35-0.199-0.649-0.199
		c-0.434,0-0.717,1.833-0.851,5.5c-0.066,1.666-0.1,3.75-0.1,6.25c0,0.066,0.45,2.8,1.35,8.199c0.834,6,1.134,10.483,0.9,13.45
		l-0.6,7.101c0.233-10.267-0.051-16.233-0.851-17.9c-1.066-0.333-1.816-1.6-2.25-3.8c-0.399,7-1.033,16.25-1.899,27.75l-0.9-5.45
		c0.267-22.967,0.434-39.684,0.5-50.15c-1-2.166-2.05-4.149-3.15-5.949c-1.633-2.7-2.934-4.25-3.9-4.65l-0.45,0.4
		c0,18.633-0.233,32.833-0.7,42.6l0.3-40.15c-1.934,18.9-2.9,28.684-2.9,29.351c-0.9,26.6-1.333,40.5-1.3,41.7
		c0.067,3.666-0.15,7.149-0.65,10.449c-0.667,4.5-1.75,7.351-3.25,8.551l0.8,1.35c-0.733-0.1-1.333-0.25-1.8-0.45
		c-0.133-0.767-0.45-1.8-0.95-3.1l-0.1-7.601c0.066,1.601,0.367,3.134,0.9,4.601c0.533,1.5,1.183,2.649,1.95,3.45
		c0.934-2.367,1.667-9.384,2.2-21.051c0.533-14.733,0.95-25.649,1.25-32.75c1.633-24.899,2.45-37.733,2.45-38.5
		c0-0.466-0.317-0.733-0.95-0.8c-0.967-0.133-1.633-0.316-2-0.55l-0.75-0.55c-0.3-0.167-0.667-0.25-1.1-0.25
		c-0.8,0.633-1.667,1.283-2.6,1.95c-1.8,1.333-3.533,2.083-5.2,2.25l-1.35,0.85c-1.367,1.934-2.167,3.566-2.4,4.9
		c-0.5,3.066-0.75,10.366-0.75,21.899l0.75,25.65l0.2,4.2l-0.8-7.351c-0.633-19.033-0.983-29.2-1.05-30.5L15.1,216.3
		c0,2.367,0.05,5.967,0.15,10.8c0.133,7.134,0.333,11.917,0.6,14.351l-0.05,3.25c-0.433-4.667-1.033-13.066-1.8-25.2
		c-1-15.134-1.5-25.233-1.5-30.3c0.1-11.634,0.133-18.517,0.1-20.65c-0.067-2.434-0.867-5.217-2.4-8.35
		c-1.534-3.066-2.3-5.033-2.3-5.9l0.1-2.7c-0.433-4.133-0.717-7.1-0.85-8.899c-0.267-3.034-0.267-5.583,0-7.65
		c0.767-5.466,0.15-11.216-1.85-17.25c-2.2-5.1-3.333-7.867-3.4-8.3c0.1-0.033,0.117-0.233,0.05-0.6c-0.034-0.3-0.067-0.5-0.1-0.6
		v-0.5l-0.1,0.2l-0.05-0.1l0.2-1.75l-0.05,1.65l0.25-3.85c0.4-3.767,0.6-6.867,0.6-9.3c0-3-0.067-5.117-0.2-6.35
		c-0.167-1.2-0.433-2.017-0.8-2.45c-0.133-0.567-0.383-1.133-0.75-1.7L0.9,82.2c1.533,2.466,2.75,4.1,3.65,4.9
		c0.133,0.3,0.2,2.75,0.2,7.35v6.25c-0.2,1.633-0.15,3.3,0.15,5c0.3,1.733,0.817,3.233,1.55,4.5c2.767,4.8,4.7,12.933,5.8,24.4
		c-0.067,0.667-0.367,2.05-0.9,4.15l-1-6.75c0.133-3.033,0.2-4.883,0.2-5.55c0-0.867-0.233-1.75-0.7-2.65
		c-0.9-1.533-1.767-3.167-2.6-4.9l-0.8-1.3c0.566,2.3,1.066,6.617,1.5,12.95c0.267,3.8,0.667,10.5,1.2,20.101
		c0.3,0,0.633,0.416,1,1.25c0.167-0.967,0.25-2.584,0.25-4.851c0-0.267-0.017-3.683-0.05-10.25c0.2,1.3,0.383,2.25,0.55,2.85
		c0.133-0.167,0.283-0.467,0.45-0.9l2.4,13.05c-0.033-0.033-0.067-0.05-0.1-0.05l0.3,1.1c0.1,0.233,0.25,1.017,0.45,2.351
		c0.233,1.399,0.35,2.333,0.35,2.8c0,0.9-0.167,2.9-0.5,6c-0.367,3.1-0.55,5.733-0.55,7.9l0.1,6.399
		c0.367-5.566,1.233-11.783,2.6-18.649c1.767-9,3.583-16.134,5.45-21.4c0,1.367-0.083,3.767-0.25,7.2c0,1.2,0.35,4.2,1.05,9
		c0.767,5.267,1.483,9.083,2.15,11.45l0.3-0.101c1.367-1.3,2.483-5.767,3.35-13.399c0.833-7.434,1.5-18.5,2-33.2
		c0.133,2.533,0.083,13.633-0.15,33.3c-0.133,10.533,0.8,15.75,2.8,15.65l0.05-0.101c0-1.467,0.283-6.733,0.85-15.8
		c0.533-8.533,0.867-13.5,1-14.9l-0.1,11.05l0.25-7.55v-0.5l0.2,7l0.3,15.25c0.067,3.767,0.267,5.767,0.6,6
		c0.1,0,0.317-0.133,0.65-0.399c0.3-0.233,0.5-0.351,0.6-0.351c0.933,1.301,1.483,2.101,1.65,2.4c0.833-0.767,1.617-2.884,2.35-6.35
		c0.667-3.233,1.017-6.2,1.05-8.9c0.3-18.267,0.434-34.65,0.4-49.15c0-0.133-0.601-0.8-1.8-2c-0.833-1.767-2.017-2.917-3.55-3.45
		c-2.467-0.9-3.917-1.5-4.35-1.8l-0.35-0.2l-1-0.45l-0.35,12.15l-0.05-6.45l-0.05-5.15l-0.9-0.3c-0.5,0.633-1.083,1.216-1.75,1.75
		c-0.6,0.466-1.05,0.9-1.35,1.3c-0.633,0.867-1.034,2.283-1.2,4.25c-0.167,1.833-0.283,2.783-0.35,2.85
		c-0.066-11.633-0.333-31.434-0.8-59.4l0.2-11.75h0.5c0.034,10.133,0.15,16.716,0.35,19.75c0.033-1.8,0.233-5.633,0.6-11.5
		c0.367-5.534,0.55-8.333,0.55-8.4l0.35,1.3l-0.05-6.3V27.6v-3.9l1.45-3.4c0.267,15.867,0.517,25.983,0.75,30.35L30.1,55.4z M47,9
		h0.2l0.35,9.3c0.3-2.1,0.45-5.117,0.45-9.05c0-0.033,0-0.067,0-0.1l0.7,0.2c0,0.033,0,0.083,0,0.15
		c-0.033,7.533,0.066,21.817,0.3,42.85c0.866-24.367,1.3-38.383,1.3-42.05c0-0.033,0-0.066,0-0.1l0.45,0.35l1.65,2.1
		c-0.134,8.6-0.25,19.533-0.351,32.8v0.3c0,0.033,0,0.067,0,0.1l0.101,12.9c0.566-0.667,0.899-2.1,1-4.3
		c0.1-2.3,0.416-3.867,0.949-4.7c0.634-1.033,1.167-2.1,1.601-3.2c0.467-1.2,0.833-2.15,1.1-2.85l0.101,0.4
		c0.199,1.733,0.517,2.717,0.949,2.95c0.233-0.2,0.417-0.367,0.551-0.5c0.533-3.566,0.8-5.683,0.8-6.35l-0.05-1.1h0.899
		c0.233,18.433,0.367,28.167,0.4,29.2l0.3-0.35c0.267-0.7,0.45-1.05,0.55-1.05c0.101-1.333,0.167-3.9,0.2-7.7
		c0-6.8,0.017-13.483,0.05-20.05c0.233,0.033,1.617,0.267,4.15,0.7c-0.3,6.233-0.467,14.283-0.5,24.15c0,1.567-0.101,2.55-0.3,2.95
		c-0.134,0.267-0.601,0.6-1.4,1l-0.2,1.85l0.15,1.2c0.233,0.133,1.133,0.117,2.7-0.05c0.533,0,0.899,0.2,1.1,0.6
		c0.1,0.233,0.267,0.717,0.5,1.45c0.667,1.6,2.366,2.817,5.1,3.65c0.167-1.533,0.284-2.7,0.351-3.5c0.166-1.5,0.333-2.6,0.5-3.3
		l0.35,0.85l0.5,1.45c0,1.367,0.017,3.467,0.05,6.3c0,2.367-0.05,3.917-0.149,4.65c-0.066,0.5-0.55,1.2-1.45,2.1
		c-0.866,0.833-1.417,2.45-1.65,4.85L72.7,88l-0.25,2.25l1,66.75c0,5.3-0.283,15.634-0.851,31
		c-0.533,15.566-1.017,26.25-1.449,32.05c-0.967-3.2-1.567-8.116-1.801-14.75c-0.199-6.066-1.149-11.267-2.85-15.6
		c0.434,13.399,0.55,32.467,0.35,57.2l-0.3-3.15l-0.1,17.45c0.033-0.934,0.217-2,0.55-3.2c0.366-1.467,0.75-2.583,1.15-3.35
		L66.6,267l-0.1-4.25c-0.029-0.146-0.046-0.304-0.05-0.475v2.375L66.6,268.6c-0.166,0.101-0.35,0.2-0.55,0.301
		c-1.233,0.666-3.616,1.517-7.149,2.55c-0.567,0.066-1.15,0.1-1.75,0.1c-0.167-0.033-0.317-0.05-0.45-0.05l0.85-0.2l0.3-0.1
		c1.034-0.3,1.733-0.834,2.101-1.601c0.2-0.366,0.416-1.199,0.649-2.5c0.167-0.233,0.667-0.616,1.5-1.149
		c0.834-0.533,1.284-0.884,1.351-1.05c0.233-0.434,0.416-1.467,0.55-3.101c0.1-1.166,0.15-2.2,0.15-3.1
		c0-0.667-0.034-2.283-0.101-4.851c-0.1-2.8-0.184-4.616-0.25-5.449l1.351-50.351c0.066,2.9,0.267,6.717,0.6,11.45
		c-0.3-9.167-0.483-14.167-0.55-15c-0.101-1.434-0.417-3.116-0.95-5.05c0-1.101-0.233-2.351-0.7-3.75
		c-0.633-1.8-1.45-2.867-2.45-3.2c-0.8-0.333-1.5-0.6-2.1-0.8c-1.134-0.367-2.267-0.55-3.4-0.55c-1.199,0-1.933,0.35-2.199,1.05
		c-0.167,0.467-0.467,2.483-0.9,6.05l-0.45,3l-0.3,1.9c0.033-19.667-0.15-35.7-0.55-48.101c-0.733-19.933-1.467-41.716-2.2-65.35
		c0.3-1.434,0.583-2.617,0.85-3.55c0.567-1.8,1.45-2.7,2.65-2.7c1.5,0,2.55,1.3,3.15,3.9c0.3,1.367,0.666,3.117,1.1,5.25
		c0.167,0.267,1.033,0.8,2.6,1.6c1.267,0.667,2.051,1.95,2.351,3.85c0.2-0.433,0.416-1.066,0.649-1.9c0.167-0.733,0.4-1.333,0.7-1.8
		c0.367,0.3,0.983,1.15,1.851,2.55c0.966,1.2,2,1.783,3.1,1.75l0.8,0.2c-2.233-1.267-3.866-3-4.899-5.2
		c-1.367-2.9-1.983-6.85-1.851-11.85c-0.133,2.4-0.25,5.517-0.35,9.35c-0.167,0.1-0.584,0.15-1.25,0.15c-2.033,0-3.434-2.7-4.2-8.1
		c-0.533-3.534-0.934-10.284-1.2-20.25L55,52.4c-0.267,1.434-0.4,4.233-0.4,8.4c0.034,2.967-0.5,5.483-1.6,7.55
		c-0.7,1.3-1.184,2-1.45,2.1c-0.467,0-1.033,0.1-1.7,0.3c-0.133,0.067-0.383,0.517-0.75,1.35c-0.399,0.967-0.666,1.533-0.8,1.7
		L47.9,74c0.166-1.167,0.35-3.033,0.55-5.6c0.2-2.433,0.3-3.933,0.3-4.5c-0.066-5.467-0.116-15.133-0.15-29
		c-0.633,17.067-0.949,27.85-0.949,32.35c0,0.5-0.101,0.95-0.301,1.35c-0.166,0.4-0.366,0.617-0.6,0.65
		C46.816,41.317,46.9,21.233,47,9z M73.35,68.35c-1,1.133-1.649,1.833-1.949,2.1c-0.4,0.433-0.817,0.683-1.25,0.75
		c-1.101-0.934-1.884-3.65-2.351-8.15c-0.399-3.7-0.6-8.95-0.6-15.75l0.1-3.8c0.367,0.467,0.617,0.75,0.75,0.85
		c0.3-0.133,0.584-1.267,0.851-3.4l0.3,0.15c1.399,1.233,2.517,5.95,3.35,14.15C73.083,60.783,73.35,65.15,73.35,68.35z M16.65,45.1
		c0.267-2.067,0.567-3.75,0.9-5.05l-0.5,17.55C17.05,55.267,16.917,51.1,16.65,45.1z M76.65,83.25v-3l0.05,2.35l0.05-2l0.15,0.75
		l-0.051,1.3l-0.199,3.1V83.25z M69.4,262.9l-0.45,4l-0.75,0.75c0-4.801-0.033-7.767-0.101-8.9c0.034,0.134,0.051-1.217,0.051-4.05
		l0.449,1.95C69,258.95,69.267,261.033,69.4,262.9z M51.75,278.15c-0.6,0.1-1.267,0.1-2,0c-0.767-0.101-1.3-0.25-1.6-0.45v6.8v0.1
		c-0.4,1.5-0.584,3.233-0.551,5.2c0.034,1.066,0.067,2.467,0.101,4.2c-0.134,2.566-1.783,3.85-4.95,3.85c-1.4,0-2.35-0.75-2.85-2.25
		l1.85-0.199l3.15-0.351c0.5-3.733,0.866-12.434,1.1-26.1c0.2-13.2,0.917-23.8,2.15-31.8v9.699V271.2v4.399l0.449-0.649l2.101-1.9
		c2.233-1.267,3.649-4.434,4.25-9.5c0.833-7.267,1.283-11.017,1.35-11.25l-2.149,7.25c-0.134-12.733-0.2-19.434-0.2-20.1
		c0-0.533,0.083-1.384,0.25-2.55c0.133-1.2,0.267-1.9,0.399-2.101c0.334,5.533,0.667,8.884,1,10.05c0.2,0.733,0.534,1.25,1,1.551
		c0.134-0.134,0.534-4.917,1.2-14.351l0.05,0.851c0.134-7.467,0.301-13.2,0.5-17.2c0.301-5.2,0.567-10.467,0.801-15.8l0.6,20.399
		c0,1.767-0.8,10.584-2.4,26.45c-1.633,16.366-2.483,25.1-2.55,26.2l0.25-0.5l0.7-0.55c-0.5,0.966-1.017,1.866-1.55,2.699
		C53.967,275,53.15,276.184,51.75,278.15z M29.2,20.1l0.2-0.25l-0.2,1.6V20.1z M28.25,88.5c0.567-3.2,0.85-7.45,0.85-12.75
		c-0.6-24.967-1.083-37.433-1.45-37.4L27.9,64.9c0,4.033-0.233,8.25-0.7,12.65c-0.467,4.4-0.7,8.633-0.7,12.7l0.1,2.2l0.25,0.4
		C27.383,92.15,27.85,90.7,28.25,88.5z M54.95,76.55c-0.367-0.267-0.733-0.367-1.101-0.3c-0.1,0.167-0.433,0.6-1,1.3
		c-0.466,1-0.517,2.534-0.149,4.6c0.2,4.5,0.45,13.567,0.75,27.2c0.267,12.967,0.399,21.45,0.399,25.45l-0.1,33.851v0.75v2.05
		c0.467,0.2,1.167,0.35,2.1,0.45c0.834,0.233,1.534,0.783,2.101,1.649c0.434,0.7,1.166,1.417,2.2,2.15c1.033,0.7,1.8,1.05,2.3,1.05
		c1.6,0,3.233-1.733,4.899-5.2c2.534-5.2,3.434-12.7,2.7-22.5c-0.934-12.4-1.399-23.216-1.399-32.45
		c0.166-6.8,0.216-10.533,0.149-11.2c-0.133-0.633-0.399-1.1-0.8-1.4l-0.55-0.2c-0.566,0.4-1.15,1.017-1.75,1.85
		c-0.434,0.667-0.767,1-1,1c-0.334,0-1.084-0.433-2.25-1.3c-1.3-0.967-2.017-1.85-2.15-2.65c-0.233-1.267-1.1-2.8-2.6-4.6
		c-1.334-1.633-2-3.133-2-4.5c0.267-3.7,0.3-7.117,0.1-10.25C55.733,80.217,55.45,77.95,54.95,76.55z M51.25,208.8
		c0.2,5.033,0.1,9.617-0.3,13.75c-0.3,3.101-0.65,5.167-1.05,6.2C50.467,223.583,50.917,216.934,51.25,208.8z M77.35,188.75
		c1.101,20.767,1.667,31.884,1.7,33.35c-0.2-3.666-0.416-5.449-0.649-5.35H78.35c-0.533,0.5-1.017,1.283-1.449,2.35l-0.5,1.4
		c0.033-6.9,0.233-15.2,0.6-24.9l0.15-3.649l0.149-4.75L77.35,188.75z M20.15,138.15l0.65-0.2c-0.433,1.066-0.917,2.95-1.45,5.65
		c-0.533,2.667-0.934,4.3-1.2,4.9l0.25-0.8L20.15,138.15z M15.45,152.7c0.267-0.233,0.7-0.767,1.3-1.601
		c0.533-0.733,0.833-1.183,0.9-1.35c0,0.8-0.217,1.5-0.65,2.1C16.567,152.417,16.05,152.7,15.45,152.7z M13.95,192l0.1,0.55
		c-0.033-0.233-0.066-0.45-0.1-0.649V192z M66.5,182.15l0.95-3.851c-0.4,0.867-0.684,1.767-0.851,2.7
		C66.533,181.467,66.5,181.85,66.5,182.15z M69.55,185.2c0,3.633,0.384,9.1,1.15,16.399l0.1,0.9c0.434-2.934,0.834-6.6,1.2-11
		c0.767-8.733,1.15-17.85,1.15-27.35c0-14.934-0.434-34.267-1.301-58c-0.033,31.667-0.166,53.917-0.399,66.75
		c0,1.699-0.316,3.5-0.95,5.399C69.866,180.2,69.55,182.5,69.55,185.2z"/>
	<path style="fill-rule:evenodd;clip-rule:evenodd;fill:#625952;" d="M50.3,10.2c0,0.033,0,0.066,0,0.1
		c0,3.667-0.434,17.684-1.3,42.05c-0.233-21.033-0.333-35.317-0.3-42.85c0-0.067,0-0.117,0-0.15L50.3,10.2z M73.55,69.4l0.15,0.45
		c-0.167,0.7-0.334,1.8-0.5,3.3c-0.066,0.8-0.184,1.967-0.351,3.5c-2.733-0.833-4.433-2.05-5.1-3.65
		c-0.233-0.733-0.4-1.217-0.5-1.45c-0.2-0.4-0.566-0.6-1.1-0.6c-1.567,0.167-2.467,0.183-2.7,0.05l-0.15-1.2l0.2-1.85
		c0.8-0.4,1.267-0.733,1.4-1c0.199-0.4,0.3-1.383,0.3-2.95c0.033-9.867,0.2-17.917,0.5-24.15l2.8,0.9l0.4,0.2
		c-0.267,2.133-0.551,3.267-0.851,3.4c-0.133-0.1-0.383-0.383-0.75-0.85l-0.1,3.8c0,6.8,0.2,12.05,0.6,15.75
		c0.467,4.5,1.25,7.217,2.351,8.15c0.433-0.067,0.85-0.317,1.25-0.75c0.3-0.267,0.949-0.967,1.949-2.1v0.5L73.55,69.4z M69.4,262.9
		l0.5-3.75l0.05-0.25l-0.15,6.05L69.4,266.2l-0.45,0.7L69.4,262.9z M33.85,282.3V275.9l0.65,6.449L33.85,282.3z M1.55,109.7
		l-0.1,0.1H1.4v-2.25l0.3,0.35l0.05,0.1l0.1,0.3c0.033,0.1,0.066,0.3,0.1,0.6c0.066,0.367,0.05,0.567-0.05,0.6L1.55,109.7z
		 M27.5,31.85l0.05-1.95l-0.05-2.85V31.85z M27.6,27.6l-0.05,2.3l0.05,2.15l0.05,6.3l-0.35-1.3c0,0.067-0.183,2.867-0.55,8.4
		c-0.367,5.867-0.567,9.7-0.6,11.5c-0.2-3.034-0.316-9.617-0.35-19.75l0.4-0.05h0.05c0.067-0.433,0.317-3.833,0.75-10.2l0.6-3.25
		V27.6z M33.85,18.75L33.4,26.1l0.05-15.7C33.617,9.767,33.8,8,34,5.1c0.167-2.3,0.517-3.75,1.05-4.35l0.45,0.7L33.85,18.75z
		 M17.65,149.75l0.5-1.25c0.267-0.6,0.667-2.233,1.2-4.9c0.533-2.7,1.017-4.583,1.45-5.65c0.434-1.233,0.667-2.55,0.7-3.95
		c0.067-2.6,0.183-4.583,0.35-5.95c0.233-5.133,0.233-9.8,0-14l0.2-12.85l0.05,0.8c0.167,6.6,0.4,12.617,0.7,18.05
		c0.067,3.733-0.25,9.8-0.95,18.2c-1.867,5.267-3.684,12.4-5.45,21.4c-1.367,6.866-2.233,13.083-2.6,18.649l-0.1-6.399
		c0-2.167,0.183-4.801,0.55-7.9c0.333-3.1,0.5-5.1,0.5-6c0-0.467-0.117-1.4-0.35-2.8c-0.2-1.334-0.35-2.117-0.45-2.351l-0.3-1.1
		c0.033,0,0.067,0.017,0.1,0.05c0.533,0.233,1.1,0.533,1.7,0.9c0.6,0,1.117-0.283,1.55-0.851
		C17.433,151.25,17.65,150.55,17.65,149.75z M10.35,132v4.8c0.033,6.567,0.05,9.983,0.05,10.25c0,2.267-0.083,3.884-0.25,4.851
		c-0.367-0.834-0.7-1.25-1-1.25c-0.533-9.601-0.933-16.3-1.2-20.101c-0.434-6.333-0.934-10.65-1.5-12.95l0.8,1.3
		c0.833,1.733,1.7,3.367,2.6,4.9c0.467,0.9,0.7,1.784,0.7,2.65C10.55,127.117,10.483,128.967,10.35,132z M1.1,85.95l-0.15-1.8
		c0.367,0.567,0.617,1.133,0.75,1.7L1.1,85.95z M28.25,88.5c-0.4,2.2-0.867,3.65-1.4,4.35l-0.25-0.4l-0.1-2.2
		c0-4.067,0.233-8.3,0.7-12.7c0.466-4.4,0.7-8.617,0.7-12.65l-0.25-26.55c0.367-0.033,0.85,12.433,1.45,37.4
		C29.1,81.05,28.817,85.3,28.25,88.5z M49,79.7c0.733,23.633,1.467,45.417,2.2,65.35c0.399,12.4,0.583,28.434,0.55,48.101v1.3
		c0,3.467-0.167,8.25-0.5,14.35c-0.333,8.134-0.783,14.783-1.35,19.95c-0.134,1.434-0.267,2.9-0.4,4.4
		c-0.066,0.833-0.167,1.433-0.3,1.8l-0.45-4.9c0.233-2.967-0.066-7.45-0.9-13.45c-0.899-5.399-1.35-8.133-1.35-8.199
		c0-2.5,0.033-4.584,0.1-6.25c0.134-3.667,0.417-5.5,0.851-5.5c0.3,0,0.517,0.066,0.649,0.199c0.067-1.1,0.101-1.916,0.101-2.449
		c0-9.134-0.267-18.867-0.8-29.2c-0.534-10.367-0.801-16.284-0.801-17.75c0-3.4,0.184-7.717,0.551-12.95
		c0.566-7.7,1.149-25.917,1.75-54.65L49,79.7v-2.95l-0.1,3.1c-0.167,0.066-0.733,0.133-1.7,0.2c-1,0.067-1.717,0.184-2.15,0.35
		c-0.166-1.7-0.25-2.883-0.25-3.55c0-1.4,0.267-2.817,0.8-4.25c0.534-1.434,0.801-2.6,0.801-3.5l0.25,0.15h0.1
		c0.233-0.033,0.434-0.25,0.6-0.65c0.2-0.4,0.301-0.85,0.301-1.35c0-4.5,0.316-15.283,0.949-32.35
		c0.034,13.867,0.084,23.533,0.15,29c0,0.567-0.1,2.067-0.3,4.5c-0.2,2.567-0.384,4.434-0.55,5.6l0.399-0.2
		c0.134-0.167,0.4-0.733,0.8-1.7c0.367-0.833,0.617-1.283,0.75-1.35c0.667-0.2,1.233-0.3,1.7-0.3c0.267-0.1,0.75-0.8,1.45-2.1
		c1.1-2.067,1.634-4.583,1.6-7.55c0-4.167,0.134-6.966,0.4-8.4l0.05,0.55c0.267,9.966,0.667,16.716,1.2,20.25
		c0.767,5.4,2.167,8.1,4.2,8.1c0.666,0,1.083-0.05,1.25-0.15c0.1-3.833,0.217-6.95,0.35-9.35c-0.133,5,0.483,8.95,1.851,11.85
		c1.033,2.2,2.666,3.934,4.899,5.2l-0.8-0.2c-1.1,0.033-2.134-0.55-3.1-1.75c-0.867-1.4-1.483-2.25-1.851-2.55
		c-0.3,0.467-0.533,1.066-0.7,1.8c-0.233,0.833-0.449,1.467-0.649,1.9c-0.3-1.9-1.084-3.183-2.351-3.85
		c-1.566-0.8-2.433-1.333-2.6-1.6c-0.434-2.133-0.8-3.883-1.1-5.25c-0.601-2.6-1.65-3.9-3.15-3.9c-1.2,0-2.083,0.9-2.65,2.7
		C49.583,77.083,49.3,78.267,49,79.7z M16.5,228.05c-0.233-4.434-0.417-7.383-0.55-8.85l-0.2-0.65c0.067,2.267,0.1,9.9,0.1,22.9
		c-0.267-2.434-0.467-7.217-0.6-14.351c-0.1-4.833-0.15-8.433-0.15-10.8l0.35-18.75C15.517,198.85,15.867,209.017,16.5,228.05z
		 M13.95,192v-0.1c0.033,0.199,0.066,0.416,0.1,0.649L13.95,192z M34.5,223.8c-0.8,2.033-1.633,10.601-2.5,25.7
		c-0.8,13.4-2.283,20.65-4.45,21.75l-0.8-1.35c1.5-1.2,2.583-4.051,3.25-8.551c0.5-3.3,0.717-6.783,0.65-10.449
		c-0.033-1.2,0.4-15.101,1.3-41.7c0-0.667,0.966-10.45,2.9-29.351L34.55,220L34.5,223.8z M69.55,185.2c0-2.7,0.316-5,0.95-6.9
		c0.634-1.899,0.95-3.7,0.95-5.399c0.233-12.834,0.366-35.083,0.399-66.75c0.867,23.733,1.301,43.067,1.301,58
		c0,9.5-0.384,18.616-1.15,27.35c-0.366,4.4-0.767,8.066-1.2,11l-0.1-0.9C69.934,194.3,69.55,188.833,69.55,185.2z"/>
	<path style="fill-rule:evenodd;clip-rule:evenodd;fill:#A1978B;" d="M55.55,37.7c-0.366,0.533-0.616,0.833-0.75,0.9
		c-0.267-0.367-0.6-0.717-1-1.05l-0.5-0.45c-0.767,4.033-1.184,6.816-1.25,8.35c0.101-13.267,0.217-24.2,0.351-32.8
		c1.066,3.033,1.683,5.117,1.85,6.25c0.066,0.633,0.05,1.2-0.05,1.7l0.05,2.35c-0.167,5.233-0.083,9.017,0.25,11.35
		C54.667,35.567,55.017,36.7,55.55,37.7z M77.05,81.95c0.367,1,0.934,3.733,1.7,8.2c0.833,4.867,1.217,8.184,1.15,9.95
		c-0.101,4.3-0.301,6.933-0.601,7.9l-0.3-0.15c-0.434-0.6-0.85-2.217-1.25-4.85l-0.1,0.4c-0.101,0.7-0.667,8.067-1.7,22.1
		c-1.033,14.633-1.601,23.483-1.7,26.55L74.1,127.5c0-11.067,0.15-19.683,0.45-25.85c0.367-8.333,1.066-14.467,2.101-18.4v2.5
		l0.199-3.1L77.05,81.95z M81.45,209.3l-0.15,16.25c0,0.101-0.116,0.566-0.35,1.4c-0.334,1.066-0.717,2.05-1.15,2.95l-0.25-14.75
		l0.25-11c0-0.601,0.066-2.301,0.2-5.101c0.2-4.733,0.667-22.017,1.4-51.85c0.066,4.967,0.133,17.7,0.199,38.2L81.45,209.3z
		 M83.25,202.5c-0.5-21.333-0.75-32.333-0.75-33c0-4.4,0.167-9.066,0.5-14l0.45,5.9c0.033,22.433,0.017,35.949-0.05,40.55
		L83.25,202.5z M32.6,282.2c-0.7,0-1.617-0.167-2.75-0.5c-0.033-1.434,0.283-2.983,0.95-4.65c0.667-1.633,1.383-2.717,2.15-3.25
		c0.133,0.934,0.2,1.733,0.2,2.4C33.15,276.667,32.967,278.667,32.6,282.2z M38.4,253.7c0.267-3.434,0.45-5.55,0.55-6.351
		c0.2,2.434,0.417,6.217,0.65,11.351c0.2,4.467,0.3,7.083,0.3,7.85l-0.05,24.425c-0.004-0.175-0.021-0.35-0.05-0.524
		c-0.367-3.233-1.5-5.834-3.4-7.8l-0.3-15.75c0.267-10.567,0.583-17.5,0.95-20.801L38.4,253.7z M9.1,245.4c0-0.101,0-0.2,0-0.301
		c0.2-8.8,0.316-30.616,0.35-65.449c0.1,3.133,0.35,11.966,0.75,26.5c0.4,13.399,0.6,21.033,0.6,22.899l-0.05,17.2L10,246L9.1,245.4
		z M0.4,207.825c0.013,0.166,0.03,0.341,0.05,0.524c0.2,1.967,0.283,3.45,0.25,4.45C0.572,212.127,0.472,210.468,0.4,207.825z
		 M8,151.6c-0.467,4.267-1.05,10.017-1.75,17.25c-0.933,9.7-1.383,15.2-1.35,16.5c0.1,2.767-0.65,6.117-2.25,10.051
		c-1.433,3.533-2.233,6.466-2.4,8.8c-0.033-0.967-0.067-2.017-0.1-3.15c-0.1-4.934-0.15-8.434-0.15-10.5
		c0.4-2.866,0.767-6.184,1.1-9.95c0.7-7.533,0.967-16.35,0.8-26.449c-0.1-9.934-0.25-24.45-0.45-43.55l0.1-0.9l0.35-0.2
		c0.067,0.433,1.2,3.2,3.4,8.3c2,6.034,2.617,11.784,1.85,17.25c-0.267,2.067-0.267,4.617,0,7.65C7.283,144.5,7.567,147.467,8,151.6
		z M11.7,62.7c0,26.033-0.2,42.75-0.6,50.15c-0.167-3.033-0.583-5.567-1.25-7.6c-0.9-2.033-1.567-3.7-2-5
		c-1.633-4.9-2.2-14.183-1.7-27.85c3.133-0.2,4.783-0.933,4.95-2.2c-0.233-2.434-0.067-4.867,0.5-7.3L11.7,62.7z M18,39.35V39
		l1.2-1.45c-0.141,0.178-0.441,0.611-0.9,1.3C18.2,39.017,18.1,39.183,18,39.35z M21.2,37.3c-0.633,0.034-1.184,0.1-1.65,0.2
		l1.65-0.4C21.2,37.167,21.2,37.233,21.2,37.3z M30.1,55.4c-0.233-14.533-0.35-22.133-0.35-22.8c0-0.5,0.117-2.883,0.35-7.15
		c0.267-4.3,0.417-6.633,0.45-7l1.2-1.3c0.067,3.833,0.117,16.65,0.15,38.45c0,0.8-0.2,1.617-0.6,2.45
		c-0.566,1.2-0.883,1.883-0.95,2.05L30.1,55.4z M28.05,95.45c0.934-6.567,1.5-10.983,1.7-13.25c0.367-3.9,0.583-9.317,0.65-16.25
		c0.1,0.5,0.4,2.066,0.9,4.7c0.4,3.267,0.45,7.117,0.15,11.55l-0.1,2.9c-0.633,7.066-1.117,10.967-1.45,11.7
		c-0.1,0.267-0.283,0.3-0.55,0.1c-0.3-0.267-0.55-0.333-0.75-0.2L28.05,95.45z M36.2,94.35c-0.434-1.4-0.8-2.783-1.1-4.15
		c-0.8,2.033-1.3,3.167-1.5,3.4l-0.2,0.1c-0.267-0.3-0.566-0.717-0.9-1.25c-0.333-0.5-0.5-0.784-0.5-0.85
		c0-5.833,0.267-12.2,0.8-19.1c0.6-7.433,0.934-14.533,1-21.3c0.067-5.133,0.083-11.184,0.05-18.15
		c-0.033-7.267-0.033-12.033,0-14.3l1.65-17.3c0-0.4,0.2-0.733,0.6-1c0.066-0.034,0.133-0.067,0.2-0.1
		c0.367-0.133,0.767-0.233,1.2-0.3L39.35,0l1.05,0.1v0.05c-0.267,11.767-0.967,21.6-2.1,29.5c-1,6.934-1.5,15.483-1.5,25.65
		c0,8.733,0.083,14.85,0.25,18.35c0.167,3.3,0.483,5.667,0.95,7.1c0.2-0.567,0.433-1.833,0.7-3.8c0.267-2.2,0.367-3.883,0.3-5.05
		l0.25,1.15l0.15,3c0,5.3-0.533,8-1.6,8.1c-0.6,0.033-0.983,0.2-1.15,0.5c-0.333,0.633-0.5,2.117-0.5,4.45L36.2,94.35z M31.55,110.1
		l0.35-12.15l1,0.45l0.35,0.2c0.433,0.3,1.883,0.9,4.35,1.8c1.533,0.533,2.717,1.684,3.55,3.45c-0.8-0.267-1.483-0.5-2.05-0.7
		c-1.067-0.4-1.967-0.6-2.7-0.6c-0.933,1.1-1.45,1.65-1.55,1.65c-0.4,0-0.85-0.05-1.35-0.15c-0.4-0.1-0.633-0.15-0.7-0.15
		c-0.933,26.2-1.5,43.9-1.7,53.1L31,133c0-0.7,0.05-4.633,0.15-11.8c0.133-7.767,0.233-12.967,0.3-15.6l0.05,6.8L31.55,110.1z
		 M22.1,102l-0.05-2.3c0.133-7.367,0.767-19.55,1.9-36.55c0.3,13.567,0.55,33.733,0.75,60.5c0,11-0.184,21.233-0.55,30.7
		c-0.1,2.567,0.217,6.384,0.95,11.45l-0.3,0.101c-0.667-2.367-1.383-6.184-2.15-11.45c-0.7-4.8-1.05-7.8-1.05-9
		c0.167-3.434,0.25-5.833,0.25-7.2c0.7-8.4,1.017-14.467,0.95-18.2C22.5,114.617,22.267,108.6,22.1,102z M55.8,83.35
		c0.2,3.133,0.167,6.55-0.1,10.25c0,1.367,0.666,2.867,2,4.5c1.5,1.8,2.366,3.333,2.6,4.6c0.134,0.8,0.851,1.683,2.15,2.65
		c1.166,0.867,1.916,1.3,2.25,1.3c0.233,0,0.566-0.333,1-1c0.6-0.833,1.184-1.45,1.75-1.85L68,104c0.4,0.3,0.667,0.767,0.8,1.4
		c-3.434,1.633-5.35,4.633-5.75,9c-0.2,2.133-0.267,5.65-0.2,10.55c-0.166-4.5-0.699-8.5-1.6-12c-1.3-5.233-3.2-8.267-5.7-9.1
		c-0.066,0.767-0.066,5,0,12.7c0.101,9.733-0.5,27.1-1.8,52.101l0.1-33.851c0-4-0.133-12.483-0.399-25.45
		c-0.3-13.633-0.55-22.7-0.75-27.2c0.666-3.4,1.05-5.367,1.149-5.9c0.367-0.067,0.733,0.033,1.101,0.3
		C55.25,79.717,55.533,81.983,55.8,83.35z M48.6,274.95l-0.449-3.75V246.85l0.75-14.399l0.3,2.5c0.133-0.367,0.233-0.967,0.3-1.8
		c0.134-1.5,0.267-2.967,0.4-4.4c0.399-1.033,0.75-3.1,1.05-6.2c0.399-4.133,0.5-8.717,0.3-13.75c0.333-6.1,0.5-10.883,0.5-14.35
		v-1.3l0.3-1.9l-0.3,3.2l0.75-6.2c0.434-3.566,0.733-5.583,0.9-6.05c0.267-0.7,1-1.05,2.199-1.05c1.134,0,2.267,0.183,3.4,0.55
		c0.6,0.2,1.3,0.467,2.1,0.8c1,0.333,1.817,1.4,2.45,3.2c0.467,1.399,0.7,2.649,0.7,3.75c-0.134-0.267-0.533-0.517-1.2-0.75
		c-0.866-0.334-1.467-0.617-1.8-0.851l-0.2,3.65c-0.033-2.533-0.366-4.583-1-6.15c-0.633-1.066-0.967-1.633-1-1.699l-0.55,0.8
		c-1.434,3.967-2.217,11.017-2.35,21.149c-0.134,11.667-0.384,18.567-0.75,20.7c-0.101-0.233-0.301-1.883-0.601-4.95
		c-0.267-2.566-0.899-4.283-1.899-5.149l-0.25,0.75c-0.5,3.467-1.134,13.616-1.9,30.45c-0.8,17.433-1.217,26.316-1.25,26.649
		L48.6,274.95z M44.9,295.05L43.6,295.15c0.067-6.667,0.134-10.7,0.2-12.101L44.9,295.05z M77.35,188.75l-0.05-1.55l-0.149,4.75
		c0-3.867-0.351-7.65-1.051-11.351c-1.066-5.633-1.6-11.583-1.6-17.85c0-11.2,0.283-18.883,0.85-23.05
		c1.034-5.733,2.034-12.767,3-21.1c0.067,3.8,0.134,11.533,0.2,23.2c0,7.667-0.25,13.7-0.75,18.101
		C77.366,163.866,77.217,173.483,77.35,188.75z M21.85,114.05c0.233,4.2,0.233,8.867,0,14v-13.2
		C21.85,114.617,21.85,114.35,21.85,114.05z M19.5,178.75c-0.8,13.233-1.217,20.384-1.25,21.45
		c-0.233,6.934-0.333,20.316-0.3,40.149L17.1,231.2l-0.75-25.65c0-11.533,0.25-18.833,0.75-21.899
		C17.333,182.316,18.133,180.684,19.5,178.75z M20.85,177.9c1.667-0.167,3.4-0.917,5.2-2.25c0.934-0.667,1.8-1.317,2.6-1.95
		c0.434,0,0.8,0.083,1.1,0.25l0.75,0.55c-2.967,3.566-4.433,7.9-4.4,13c0.033,1.7,0.117,4.816,0.25,9.35
		c0.033,4.634-0.2,9.384-0.7,14.25c-0.433-9.866-0.733-16.5-0.9-19.899c-0.267-5.566-0.517-8.967-0.75-10.2
		c-0.067,0.267-0.367,0.767-0.9,1.5c-0.5,0.667-0.917,1.167-1.25,1.5C21.35,182.333,21.017,180.3,20.85,177.9z M42.75,187.6
		c-0.366,0.934-0.634,1.534-0.8,1.801c-0.3,0.566-0.667,0.85-1.1,0.85c-0.333,0-0.7-0.15-1.1-0.45c-0.433-0.3-0.817-0.45-1.15-0.45
		c-0.4,0-0.617,0.051-0.65,0.15c0.033,0.1,0.017,0.15-0.05,0.15c-0.767,5.466-1.233,14.083-1.4,25.85c-0.233,13.2-0.4,20.5-0.5,21.9
		c-0.4-4.034-0.65-7.517-0.75-10.45c-0.067-1.733-0.2-2.95-0.4-3.65l-0.35,0.5l0.05-3.8c0.467-9.767,0.7-23.967,0.7-42.6l0.45-0.4
		c0.966,0.4,2.267,1.95,3.9,4.65C40.7,183.45,41.75,185.434,42.75,187.6z M35.65,161.35L35.6,149.9
		c0.333-21.167,0.65-32.15,0.95-32.95l0.65,22.55C37.2,143.2,36.683,150.483,35.65,161.35z M60.05,218.15
		c0-0.667,0.117-4.217,0.351-10.65c0.267-7.066,0.483-12.4,0.649-16c-0.233,35.833-0.383,56.816-0.45,62.95
		C60.233,235.816,60.05,223.717,60.05,218.15z M44.4,279.7c0,0.666-0.2,1.783-0.601,3.35h-0.2l-0.35-12.899
		C44.017,275.85,44.4,279.033,44.4,279.7z"/>
	<path style="fill-rule:evenodd;clip-rule:evenodd;fill:#625954;" d="M1.7,107.9l-0.3-0.35l-0.25-19.8l-0.05-1.8l0.6-0.1
		c0.367,0.433,0.633,1.25,0.8,2.45c0.133,1.233,0.2,3.35,0.2,6.35c0,2.434-0.2,5.533-0.6,9.3l-0.1-0.1L1.7,107.9z M18.4,147.7
		l-0.75,2.05c-0.066,0.167-0.367,0.616-0.9,1.35c-0.6,0.834-1.033,1.367-1.3,1.601c-0.6-0.367-1.167-0.667-1.7-0.9l-2.4-13.05
		c-0.167,0.433-0.317,0.733-0.45,0.9c-0.167-0.6-0.35-1.55-0.55-2.85V132l1,6.75c0.533-2.1,0.833-3.483,0.9-4.15
		c2.333-4.867,3.833-13.633,4.5-26.3c0.133-2.267,0.333-12.033,0.6-29.3c0.167,23.333,0,40.683-0.5,52.05
		c-0.067,2.034-0.05,3.133,0.05,3.3c0.1,0.167,0.5,0.667,1.2,1.5c0.633-0.5,1.233-1.3,1.8-2.4c0.367-0.7,0.633-1.333,0.8-1.9
		l0.05,1.5c-0.133,2-0.333,3.7-0.6,5.1L18.4,147.7z"/>
</g>
</svg>
