<?xml version="1.0" encoding="iso-8859-1"?>
<!-- Generator: Adobe Illustrator 15.1.0, SVG Export Plug-In . SVG Version: 6.00 Build 0)  -->
<!DOCTYPE svg PUBLIC "-//W3C//DTD SVG 1.1//EN" "http://www.w3.org/Graphics/SVG/1.1/DTD/svg11.dtd">
<svg version="1.1" id="Layer_1" xmlns="http://www.w3.org/2000/svg" xmlns:xlink="http://www.w3.org/1999/xlink" x="0px" y="0px"
	 width="98.6px" height="185.4px" viewBox="0 0 98.6 185.4" style="enable-background:new 0 0 98.6 185.4;" xml:space="preserve">
<g>
	<path style="fill-rule:evenodd;clip-rule:evenodd;fill:#B3AA9E;" d="M94.45,30.75c1.1,0.533,1.967,1.4,2.6,2.6L96.6,33.8
		c-0.366,0.367-0.85,0.6-1.449,0.7c-0.267,0.067-0.917,0.083-1.95,0.05c-0.767,0-1.384,0.167-1.851,0.5l-0.25,9.1
		c-0.267,6.9-0.366,15.4-0.3,25.5c0.033,5.667,0.084,14.15,0.15,25.45c0.066,5,0.05,9.534-0.05,13.601
		c0.466,2.2,0.267,4.283-0.601,6.25C89.667,109.85,89.2,103.6,88.9,96.2c-0.301-8.367-0.551-14.633-0.75-18.8
		c-0.101-2.633-0.334-5.95-0.7-9.95c-0.5-5.733-0.783-9.05-0.851-9.95c-0.433-5.567-0.649-12.633-0.649-21.2v-5.8l0.95-0.1
		c0,0.033,0,0.067,0,0.1c0.533,5.867,1.066,10.267,1.6,13.2c0.434-0.733,0.616-2.083,0.55-4.05c-0.166-2.1-0.25-3.483-0.25-4.15
		v-5.25l2-0.15c0.367,0,0.717,0.017,1.05,0.05L94.4,30.7L94.45,30.75z M75.25,80.15c-0.1-5.566-0.283-11.883-0.55-18.95
		c-0.767-22-1.217-40.383-1.351-55.15c0.2,0.833,0.317,4.6,0.351,11.3c0.033,3.667,0.666,6.566,1.899,8.7l1.351,1.9l1.899,1.45
		c0.733,0.367,1.517,0.65,2.351,0.85v0.05c0.133,1.767,0.166,5.067,0.1,9.9c-0.066,11.167-0.066,19.55,0,25.15
		c0,0.9,0.101,3.433,0.3,7.6c0.134,3.1,0.117,5.617-0.05,7.55c-0.166,3.333-0.583,6.317-1.25,8.95l-0.35-5.4
		c-0.101,2.667-0.117,4.934-0.05,6.8c-0.367,1-0.767,1.517-1.2,1.55c-1.767-6.1-2.717-9.433-2.851-10l0.45,8.5
		c-0.399,0.4-0.717,0.917-0.95,1.55v-4.6c0.101-2.533,0.134-4.817,0.101-6.85L75.25,80.15z M95.85,142.8v-2.1
		c-0.133-4.867-0.199-8.467-0.199-10.8c0,0.133,0.083,2.267,0.25,6.399C96.033,138.967,96.017,141.134,95.85,142.8z M96.2,115.6
		l-0.05,17.351l-0.5-3.851v-2.949C95.783,121.45,95.967,117.934,96.2,115.6z M75.3,96l0.15,0.55c0.2,4.101,0.8,7.884,1.8,11.351
		c0.3,0.666,0.684,1.416,1.15,2.25c0.466,1.366,0.75,3.1,0.85,5.199c0.033,1.233,0.05,3.017,0.05,5.351
		c0.033,0.633,0.15,1.533,0.351,2.7c0.199,1.166,0.3,2.05,0.3,2.649c0.1,2.767,0.1,6.9,0,12.4c0.033,2.899,0.149,7.233,0.35,13
		l-0.55,0.05H79.1c-0.6-1.2-1.033-2.833-1.3-4.9c-0.1-1.066-0.166-1.983-0.2-2.75l-0.149-1.199c-0.033-0.301-0.066-0.601-0.101-0.9
		l-0.449-9c-0.034-0.2-0.067-0.4-0.101-0.6c-0.3-1.801-0.883-3.167-1.75-4.101c-0.833-0.934-1.934-1.467-3.3-1.6
		c1.4-3.733,2.233-7.084,2.5-10.05C74.85,110.233,75.2,103.434,75.3,96z M51.8,11.5l-0.149,0.95c-0.167,1.066-0.267,2.1-0.301,3.1
		C51.116,18.517,50.95,23,50.85,29l-0.199,3.1l0.5-5.8L53.05,7.25c0.566-0.3,1.233-0.35,2-0.15c0.9,0.267,1.483,0.717,1.75,1.35
		c0.134,0.4,0.3,1.05,0.5,1.95c0.267,0.767,0.434,1.233,0.5,1.4c0.3,0.6,0.667,0.967,1.101,1.1c0.6,0.167,1.75-0.3,3.449-1.4
		c1.2-0.8,2.351-1.667,3.45-2.6l1.5-0.05l1.351-1.7c0.733,1,0.699,2.383-0.101,4.15c-0.633,1.4-1.483,2.6-2.55,3.6
		c-0.434,0.434-1.017,0.85-1.75,1.25c-0.833,0.434-1.467,0.767-1.9,1c-1.433,0.767-2.333,1.833-2.699,3.2
		c-0.034,0-0.25,1.55-0.65,4.65c-0.1,0.767-0.184,2.667-0.25,5.7c0.033,1.933-0.483,3.767-1.55,5.5c-1.066,1.9-2.084,4.033-3.05,6.4
		l0.1,1.6c0.434,4.2,0.65,8.533,0.65,13c0.066,3.133,0.116,7.8,0.149,14c0.066,5.566,0.217,10.216,0.45,13.95
		c0.134,1.934,0.733,4.6,1.8,8c0.667,3.033,0.334,5.699-1,8c-0.033,0.066-0.366,0.6-1,1.6c-0.333,0.5-0.583,1.017-0.75,1.55
		c-0.333,1-0.533,2.233-0.6,3.7c0,0.3,0,1.566,0,3.8v8.851c-0.167,1.6-0.101,3.133,0.2,4.6c0.333,0.934,0.816,1.884,1.449,2.85
		l0.4,1.851c0.167,5.899-0.033,11.8-0.6,17.7c-0.467,5.833-1.2,11.333-2.2,16.5c0,0.666-0.066,1.267-0.2,1.8
		c-1.4-4.2-2.434-7.351-3.1-9.45l-0.051-5.95c-0.166-7.733-0.517-17.35-1.05-28.85c0.334-7.101,0.5-17.75,0.5-31.95
		c0-4.8-0.066-11.633-0.2-20.5c-0.167-9.467-0.25-16.317-0.25-20.55l1.3-12.75c-0.634,3.433-1.017,5.617-1.15,6.55
		c0.066-3.167,0.05-6-0.05-8.5l-0.1,9.55l-0.1,1.3L49,42.5l-0.1,4.45l-0.1,2c-0.066,2.633-0.117,5.233-0.15,7.8l-0.1-5l-2.25,21.8
		c-0.066-3.133-0.066-7.816,0-14.05c-0.066-6.067,0.3-12,1.1-17.8c0.167-1.1,0.684-3.833,1.55-8.2c-0.167-3.667-0.467-6.833-0.9-9.5
		c-0.767,0.1-1.1,0.867-1,2.3c0.1,1.7,0,2.717-0.3,3.05l-0.85-6.3c0-0.167,0.017-0.333,0.05-0.5V19.5c0-1.767-0.05-3.767-0.15-6
		c-0.033-0.5-0.05-1-0.05-1.5c-0.133-4.8-0.017-8.467,0.35-11l9.8-0.85c1-0.033,1.966-0.066,2.899-0.1
		c6.533-0.1,10.684,0.633,12.45,2.2C70.917,2.617,70.267,2.867,69.3,3l-1.45,0.05H65.7c0.2,1.667-0.467,2.25-2,1.75
		c-1.834-0.933-3-1.517-3.5-1.75c-0.967-0.466-1.65-0.8-2.05-1C57.45,1.783,56.8,1.7,56.2,1.8l-0.55,0.15
		c-1,0.367-1.733,0.867-2.2,1.5c-0.101,0.1-0.267,0.4-0.5,0.9c-0.066,1.1-0.167,1.933-0.3,2.5c0,0.066,0,0.117,0,0.15L52.6,7.05v0.6
		C52.5,8.583,52.233,9.867,51.8,11.5z M16.2,40.4c-0.016-0.019-0.033-0.036-0.05-0.05l1.8-0.4c-0.467,0.133-1,0.267-1.6,0.4
		C16.283,40.35,16.233,40.367,16.2,40.4z M4,71.45L3.75,71.5L3.7,71.55c-0.534,0.333-0.9,0.767-1.1,1.3
		c-0.633,0.833-1.05,1.95-1.25,3.35c-0.1,0.6-0.167,1.816-0.2,3.65l-0.3,5.9C0.75,84.85,0.667,84,0.6,83.2l-0.35-4.05
		c-0.1-1-0.167-1.9-0.2-2.7c-0.033-1-0.033-1.917,0-2.75l1-5.45c0.633-1.167,2.133-2.167,4.5-3s3.85-1.8,4.45-2.9
		c0.4-0.7,0.5-2.233,0.3-4.6c-0.267-2.533-0.4-4.133-0.4-4.8c-0.167-2.4-0.233-4.184-0.2-5.35c0.066-2.033,0.566-3.65,1.5-4.85
		l0.05-0.05l0.25-0.3c0.6-0.633,1.417-1.117,2.45-1.45h0.2c0.8,0.2,1.4,0.583,1.8,1.15c0.833,1.233,1.267,1.867,1.3,1.9
		c0.433,0.5,0.95,0.883,1.55,1.15c0.367,0.167,0.983,0.4,1.85,0.7l0.1,0.05c0.4,0.2,1.033,0.633,1.9,1.3
		c0.8,0.633,1.45,1.033,1.95,1.2c0.633,0.233,2.017,0.267,4.15,0.1l0.9-0.05l-0.5,1l-0.5,1c-1.467,1.2-3.483,1.7-6.05,1.5
		c-3.934-0.3-6.067-0.434-6.4-0.4c-0.467,3.7-0.5,6.15-0.1,7.35c0.566,1.767,2.1,3.017,4.6,3.75c1.4,0.4,3.466,0.8,6.2,1.2
		c-1.333,0.2-3.35,0.25-6.05,0.15c-2.8-0.1-4.833-0.083-6.1,0.05c-0.133,0.434-0.183,1.067-0.15,1.9
		c0.033,0.966,0.017,1.617-0.05,1.95c-0.633,0.167-2.1-0.117-4.4-0.85c-1.7-0.533-2.917-0.066-3.65,1.4l-0.15,0.3
		c-0.033,0.133-0.1,0.6-0.2,1.4c-0.066,0.567-0.233,0.983-0.5,1.25c0,0.033-0.083,0.083-0.25,0.15L4.8,71.5
		C4.467,71.433,4.2,71.417,4,71.45z M33.15,80.45c0.333-2.3,0.783-4.684,1.35-7.15c1.2-4.667,2.233-9.233,3.1-13.7
		c0.767-6.667,1.117-13.367,1.05-20.1l0.7-12.75l1.05-0.1v0.05c0.2,17.566,0.167,30.216-0.1,37.95c-0.333,10-0.533,20.017-0.6,30.05
		c-0.034,10.1-0.417,21.8-1.15,35.1c-0.1,2.101-0.833,13.783-2.2,35.05c-0.533,0-1.1,0.15-1.7,0.45v-10.7
		c0.1-4.133,0.05-7.216-0.15-9.25c-0.1-1.133-0.167-3.083-0.2-5.85c-0.033-2.5-0.133-4.45-0.3-5.85
		c-0.867-6.801-1.267-15.65-1.2-26.551l0.1-1.699c0.2-2.367,0.3-5.15,0.3-8.351c-0.034-3.7-0.067-6.483-0.1-8.35l0.05-5.25l-0.1,0.5
		L33.15,80.45z M29.9,79c-0.533,1.633-1.25,2.75-2.15,3.35L25.3,84c-1.4,0.633-2.316,1.1-2.75,1.4
		c-0.733,0.467-1.316,1.483-1.75,3.05c-0.433,3.133-0.65,6.366-0.65,9.7c-0.1,1.733-0.383,3.149-0.85,4.25
		c-0.233,0.6-0.917,1.833-2.05,3.699c-1.3,2.2-2.017,5.084-2.15,8.65c-0.1,2.033-0.05,5.066,0.15,9.1
		c0.033,2.567,0.133,4.417,0.3,5.551c0.267,2,0.85,3.666,1.75,5c0.367-0.034,0.617,0.133,0.75,0.5l0.45,2.05
		c0.3,4.934,0.317,10.033,0.05,15.3c-0.033,5.467-0.483,10.866-1.35,16.2c-0.567,3-0.95,4.517-1.15,4.55
		c-0.233-0.434-0.383-0.767-0.45-1l0.15,3.95c0.2,1.7,0.35,3.399,0.45,5.1c-0.267-0.166-0.667-0.483-1.2-0.95
		c-0.5-0.433-0.917-0.733-1.25-0.899l1.1-6.351c-0.467,1.134-0.817,2.467-1.05,4l-0.4-3.5l-0.1-0.699c0-0.2,0.017-0.4,0.05-0.601
		l0.15-1.7c0.14-1.366,0.34-3.232,0.6-5.6c0.333-3.033,0.45-5.25,0.35-6.65v-0.149c-1.1-14.3-1.617-25.25-1.55-32.851
		c0.2-2.267,0.317-4.083,0.35-5.449c0.1-2.534-0.217-4.233-0.95-5.101c-0.066-0.1-0.15-0.184-0.25-0.25l-1.5-0.899
		c-0.6-0.267-1.35-0.483-2.25-0.65c0.167-4.767,0.15-8.866-0.05-12.3c-0.2-2.767-0.4-6.851-0.6-12.25c-0.066-1.8-0.367-4.467-0.9-8
		c0.3-0.567,0.617-1.05,0.95-1.45c2.2,0.033,3.566,0.05,4.1,0.05c1.5-0.033,2.817-0.2,3.95-0.5c1.033-0.267,2.367-0.716,4-1.35
		c1.3-0.233,2.4,0.383,3.3,1.85c0.5-0.066,0.95-0.466,1.35-1.2c0.567-1.033,0.9-1.617,1-1.75c0.533-0.567,1.5-1.167,2.9-1.8
		c0.934-0.566,1.7-1.233,2.3-2C30.233,74.117,30,76.433,29.9,79z"/>
	<path style="fill-rule:evenodd;clip-rule:evenodd;fill:#9B9286;" d="M96.6,33.8c0,18.2-0.133,45.467-0.399,81.8
		c-0.233,2.334-0.417,5.851-0.55,10.551v2.949v0.801c0,2.333,0.066,5.933,0.199,10.8v2.1c-0.1,1.3-0.3,2.517-0.6,3.65
		c-0.3,1.1-0.85,1.783-1.65,2.05c-1.133,0.134-2.133,0.283-3,0.45c-0.433,0.1-1.133,0.184-2.1,0.25
		c-0.3-6.101-0.934-12.334-1.9-18.7l-0.8-4.2v-0.649c0.066-15.267-0.233-27.667-0.899-37.2c-0.134-1.867-0.067-5.65,0.199-11.35
		c0.233-4.8,0.101-8.55-0.399-11.25c-0.8,2.2-1.184,5.35-1.15,9.45c0.033,6.233,0.05,9.45,0.05,9.65
		c-0.133,2.5-0.416,5.867-0.85,10.1c-0.467,4.867-0.767,8.217-0.9,10.05l-0.899-4.85l-0.65-10.8c0.667-2.633,1.084-5.617,1.25-8.95
		c0.167-1.933,0.184-4.45,0.05-7.55c-0.199-4.167-0.3-6.7-0.3-7.6c-0.066-5.6-0.066-13.983,0-25.15c0.066-4.833,0.033-8.133-0.1-9.9
		v-0.05c1.267,0.3,2.85,0.383,4.75,0.25v5.8c0,8.567,0.217,15.633,0.649,21.2c0.067,0.9,0.351,4.217,0.851,9.95
		c0.366,4,0.6,7.316,0.7,9.95c0.199,4.167,0.449,10.434,0.75,18.8c0.3,7.399,0.767,13.649,1.399,18.75
		c0.867-1.967,1.066-4.05,0.601-6.25c0.1-4.066,0.116-8.601,0.05-13.601c-0.066-11.3-0.117-19.783-0.15-25.45
		c-0.066-10.1,0.033-18.6,0.3-25.5l0.25-9.1c0.467-0.333,1.084-0.5,1.851-0.5c1.033,0.034,1.684,0.017,1.95-0.05
		C95.75,34.4,96.233,34.167,96.6,33.8z M75.3,96l0.05-3.55c0.233-0.633,0.551-1.15,0.95-1.55l-0.45-8.5
		c0.134,0.567,1.084,3.9,2.851,10c0.434-0.033,0.833-0.55,1.2-1.55c0.066,2.3,0.166,4.016,0.3,5.15l0.75,4.25l0.55,9.3
		c-0.167,3.134-0.233,5.834-0.2,8.101c0.033,7.5-0.116,18.767-0.45,33.8H80.3c-0.2-5.767-0.316-10.101-0.35-13
		c0.1-5.5,0.1-9.634,0-12.4c0-0.6-0.101-1.483-0.3-2.649c-0.2-1.167-0.317-2.067-0.351-2.7c0-2.334-0.017-4.117-0.05-5.351
		c-0.1-2.1-0.384-3.833-0.85-5.199c-0.467-0.834-0.851-1.584-1.15-2.25c-1-3.467-1.6-7.25-1.8-11.351L75.3,96z M75.25,80.15
		l0.2,0.85c0.033,2.033,0,4.317-0.101,6.85L75.25,80.15z M67.85,3.05c-0.566,1.167-1.033,2.017-1.399,2.55
		c-0.566,0.933-1.283,1.533-2.15,1.8c-1,0.333-1.816,0.133-2.45-0.6c-0.666-0.933-1.233-1.583-1.699-1.95
		c-0.301-0.233-0.967-0.55-2-0.95c-0.733-0.267-1.317-0.767-1.75-1.5l-0.2-0.6c0.6-0.1,1.25-0.017,1.95,0.25
		c0.399,0.2,1.083,0.534,2.05,1c0.5,0.233,1.666,0.817,3.5,1.75c1.533,0.5,2.2-0.083,2-1.75H67.85z M48.8,121.7
		c0.533,11.5,0.884,21.116,1.05,28.85l0.051,5.95c0.666,2.1,1.699,5.25,3.1,9.45c0.134-0.533,0.2-1.134,0.2-1.8
		c1-5.167,1.733-10.667,2.2-16.5c0.566-5.9,0.767-11.801,0.6-17.7l-0.4-1.851c-0.633-0.966-1.116-1.916-1.449-2.85
		c-0.301-1.467-0.367-3-0.2-4.6V111.8c0-2.233,0-3.5,0-3.8c0.066-1.467,0.267-2.7,0.6-3.7c0.167-0.533,0.417-1.05,0.75-1.55
		c0.634-1,0.967-1.533,1-1.6c1.334-2.301,1.667-4.967,1-8c-1.066-3.4-1.666-6.067-1.8-8c-0.233-3.733-0.384-8.383-0.45-13.95
		c-0.033-6.2-0.083-10.867-0.149-14c0-4.467-0.217-8.8-0.65-13l-0.1-1.6c0.966-2.367,1.983-4.5,3.05-6.4
		c1.066-1.733,1.583-3.567,1.55-5.5c0.066-3.034,0.15-4.934,0.25-5.7c0.4-3.1,0.616-4.65,0.65-4.65
		c0.366-1.367,1.267-2.434,2.699-3.2c0.434-0.233,1.067-0.566,1.9-1c0.733-0.4,1.316-0.816,1.75-1.25c1.066-1,1.917-2.2,2.55-3.6
		c0.8-1.767,0.834-3.15,0.101-4.15L67.3,8.85L65.8,8.9l0.25-0.2c0.233-0.233,0.767-0.833,1.601-1.8c0.666-0.833,1.25-1.4,1.75-1.7
		c0,3.233-0.217,6.066-0.65,8.5L67,21.35c-0.7,3.433-1.1,7.45-1.2,12.05c-0.033,0.6-0.05,4.65-0.05,12.15
		c0.066,17.4-0.033,31.333-0.3,41.8c-0.066,3.1-0.033,8,0.1,14.7c-0.033,5.967-0.6,10.8-1.7,14.5c-1.1,3.634-1.783,7.783-2.05,12.45
		c-0.133,2.8-0.116,7.05,0.05,12.75c-1.199,3.066-2.017,5.45-2.449,7.15c-0.2,0.8-0.4,4.783-0.601,11.949
		c-0.133,5.667-1.05,9.334-2.75,11c-0.033,0.034-0.066,0.084-0.1,0.15c-0.3,0.233-0.834,0.5-1.601,0.8
		c-1.6,0.601-3.433,0.95-5.5,1.05c-1.967,0.101-3.367-0.083-4.2-0.55l-0.35-0.25c-0.9-0.7-1.466-1.883-1.7-3.55
		c-0.033-0.134-0.05-0.267-0.05-0.4c-0.1-0.866-0.4-1.6-0.9-2.199c-0.167-0.233-0.367-0.434-0.6-0.601
		c-0.2-0.133-0.4-0.267-0.6-0.399c-0.167-0.101-0.333-0.184-0.5-0.25c-1.367-0.601-2.567-0.867-3.6-0.801
		c1.367-21.267,2.1-32.949,2.2-35.05c0.733-13.3,1.117-25,1.15-35.1c0.066-10.034,0.267-20.05,0.6-30.05
		c0.267-7.733,0.3-20.383,0.1-37.95v-0.05c0.367-0.033,0.783-0.066,1.25-0.1l4-0.5c0.1-0.667,0.184-1.667,0.25-3l0.85,6.3
		c0.3-0.333,0.4-1.35,0.3-3.05c-0.1-1.433,0.233-2.2,1-2.3c0.434,2.667,0.733,5.833,0.9,9.5c-0.867,4.367-1.383,7.1-1.55,8.2
		c-0.8,5.8-1.167,11.733-1.1,17.8c-0.066,6.233-0.066,10.917,0,14.05L44.8,88.5c-0.566,1.367-0.883,3.75-0.95,7.15
		c-0.033,1.8-0.017,4.017,0.05,6.649c-0.1,4.334-0.133,10.834-0.1,19.5c0.034,8.667,0,15.15-0.1,19.45l-0.45,15.3
		c0.433-1.333,0.85-2.95,1.25-4.85c0.433-2.101,0.767-3.684,1-4.75c0.4-1.9,0.8-3.467,1.2-4.7c0.3,0.333,0.533,0.767,0.7,1.3
		c0.067-3.033,0.233-5.883,0.5-8.55C48.3,130.533,48.6,126.1,48.8,121.7z M24.75,25.8c0.933,1.733,1.717,2.967,2.35,3.7
		c0.433,0.5,0.9,1,1.4,1.5c0.333,0.433,0.533,1.083,0.6,1.95c0.1,1.033,0.133,2.35,0.1,3.95c-0.034,0.9-0.067,2.217-0.1,3.95
		c0.033,1.633-0.283,2.617-0.95,2.95c-0.4,0.2-1.583,0.25-3.55,0.15c-2.1,0-3.434-0.184-4-0.55c-0.434-0.3-0.733-0.683-0.9-1.15
		c-0.167-0.567-0.3-1.017-0.4-1.35l0.35-0.15c-0.167-0.433-0.367-0.817-0.6-1.15c-0.433-0.667-0.667-1.067-0.7-1.2
		c-0.233-0.467-0.333-0.917-0.3-1.35c-1.1,0.067-1.583-0.617-1.45-2.05c0.066-0.733,0.35-1.233,0.85-1.5
		c0.733-0.4,1.167-0.7,1.3-0.9c0.267-0.367,0.45-0.8,0.55-1.3c0.1-0.667,0.2-1.1,0.3-1.3c0.3-0.7,0.617-1.133,0.95-1.3
		c0.233-0.133,0.767-0.367,1.6-0.7c0.333-0.2,0.767-0.567,1.3-1.1C23.983,26.367,24.417,26,24.75,25.8z M33.15,80.45
		c0.1-3.367,0.35-6.3,0.75-8.8c0.233-1.5,0.733-3.816,1.5-6.95c1.4-5.733,2.367-12.833,2.9-21.3c0.3-4.633,0.534-10.167,0.7-16.6
		v-0.05h0.35l-0.7,12.75c0.067,6.733-0.283,13.433-1.05,20.1c-0.867,4.467-1.9,9.033-3.1,13.7
		C33.933,75.767,33.483,78.15,33.15,80.45z M28.75,48.5c-2.133,0.167-3.517,0.133-4.15-0.1c-0.5-0.167-1.15-0.566-1.95-1.2
		c-0.867-0.667-1.5-1.1-1.9-1.3c0.467,0.033,1.3,0.033,2.5,0c1.1-0.033,1.983,0,2.65,0.1c0.567,0.067,1.05,0.1,1.45,0.1
		c0.133,0.066,0.4,0.4,0.8,1C28.317,47.367,28.517,47.833,28.75,48.5z M32.65,53.9c-0.533,2.2-1.4,5.75-2.6,10.65
		c-1.466,3.967-3.783,6.35-6.95,7.15c-0.7,0.133-1.167,0.233-1.4,0.3c-0.3,0.1-0.717,0.317-1.25,0.65
		c-0.867,0.7-1.483,1.15-1.85,1.35c-0.533,0.3-1.3,0.3-2.3,0c-4.133-1.233-7.45-2.983-9.95-5.25l0.15-0.3
		c0.733-1.467,1.95-1.934,3.65-1.4c2.3,0.733,3.767,1.017,4.4,0.85c0.067-0.333,0.083-0.983,0.05-1.95
		c-0.033-0.833,0.017-1.467,0.15-1.9c1.267-0.133,3.3-0.15,6.1-0.05c2.7,0.1,4.717,0.05,6.05-0.15c-2.733-0.4-4.8-0.8-6.2-1.2
		c-2.5-0.733-4.034-1.983-4.6-3.75c-0.4-1.2-0.367-3.65,0.1-7.35c0.333-0.033,2.466,0.1,6.4,0.4c2.566,0.2,4.583-0.3,6.05-1.5l0.5-1
		c0.1,0.2,0.25,0.367,0.45,0.5c0.5,0.466,1.15,1.066,1.95,1.8C32.15,52.383,32.517,53.1,32.65,53.9z M16.2,181.05
		c-0.1-1.7-0.25-3.399-0.45-5.1L15.6,172c0.066,0.233,0.217,0.566,0.45,1c0.2-0.033,0.583-1.55,1.15-4.55
		c0.867-5.334,1.316-10.733,1.35-16.2c0.267-5.267,0.25-10.366-0.05-15.3l-0.45-2.05c-0.133-0.367-0.383-0.534-0.75-0.5
		c-0.9-1.334-1.483-3-1.75-5c-0.167-1.134-0.267-2.983-0.3-5.551c-0.2-4.033-0.25-7.066-0.15-9.1c0.133-3.566,0.85-6.45,2.15-8.65
		c1.133-1.866,1.817-3.1,2.05-3.699c0.467-1.101,0.75-2.517,0.85-4.25c0-3.334,0.217-6.567,0.65-9.7
		c0.434-1.567,1.017-2.583,1.75-3.05c0.434-0.3,1.35-0.767,2.75-1.4l2.45-1.65c0.9-0.6,1.617-1.717,2.15-3.35l-0.1,3.75
		c0,1.333,0.067,3.517,0.2,6.55c0.067,2.767-0.033,5.017-0.3,6.75c-0.833,4.934-3.35,7.867-7.55,8.8
		c1.133-0.199,2.517,0.517,4.15,2.15c1.067,1.134,2.117,2.5,3.15,4.1l-0.05,0.5v0.101l-0.25,1.75V151c0,0.866,0.067,2.483,0.2,4.85
		c-0.167,1.934-1.05,2.834-2.65,2.7c-0.267,1.5-0.367,3.316-0.3,5.45c0.033,1.267,0.133,3.134,0.3,5.6
		c0.066,1.733,0.033,3.184-0.1,4.351c-0.067,0.934-0.184,2.2-0.35,3.8c-0.267,1.267-0.95,2.184-2.05,2.75
		c-1.233,0.667-2.65,1.083-4.25,1.25c-1.1,0.1-2.05,0.017-2.85-0.25C16.767,181.4,16.467,181.25,16.2,181.05z M13.7,179.2
		l-0.05-0.101v-0.05l0.15-2.2c0.233-1.533,0.583-2.866,1.05-4l-1.1,6.351H13.7z M6.75,80.2L6.5,78.75h1.2
		C7.367,79.15,7.05,79.633,6.75,80.2z M4,71.45L3.9,74.1l-0.2-2.55l0.05-0.05L4,71.45z"/>
	<path style="fill-rule:evenodd;clip-rule:evenodd;fill:#A79E94;" d="M94.45,30.75c0.533,0.2,0.983,0.483,1.35,0.85
		c0.767,0.7,1.367,1.7,1.8,3c-0.166-0.467-0.35-0.883-0.55-1.25C96.417,32.15,95.55,31.283,94.45,30.75z M75.6,26.05
		c-1.233-2.133-1.866-5.033-1.899-8.7c-0.033-6.7-0.15-10.467-0.351-11.3c0.167,0.567,0.284,1.167,0.351,1.8
		c0.133,1.233,0.149,3.533,0.05,6.9C73.616,19.75,74.233,23.517,75.6,26.05z M69.8,116.05l-0.1-5.8l0.05,1.3
		C69.884,113.35,69.9,114.85,69.8,116.05z M71.75,126.45c1.366,0.133,2.467,0.666,3.3,1.6c-1.232-1.308-3.041-1.833-5.425-1.575
		C70.392,126.375,71.1,126.366,71.75,126.45z M55.9,0.15c8.433-0.467,13.633,0.3,15.6,2.3l-0.25-0.2
		c-1.767-1.567-5.917-2.3-12.45-2.2C57.866,0.083,56.9,0.117,55.9,0.15z M48.8,48.95l0.1-2l-0.05,1.75L48.8,48.95z M48.85,43.55
		L49,42.5l-0.25,2.35L48.85,43.55z M51.15,26.3l-0.5,5.8L50.85,29L51.15,26.3z M18.4,39.85l-0.35,0.075L18.1,39.9
		c-0.7,0.067-1.367-0.05-2-0.35C16.833,39.85,17.6,39.95,18.4,39.85z M14.45,158.1c0.1,1.4-0.017,3.617-0.35,6.65
		c-0.26,2.367-0.46,4.233-0.6,5.6c0.017-0.199,0.033-0.399,0.05-0.6C14.183,163.116,14.483,159.233,14.45,158.1z M36.35,164.85
		c-0.934,0.067-1.733,0.384-2.4,0.95c0.2-0.2,0.433-0.366,0.7-0.5C35.25,165,35.817,164.85,36.35,164.85z M55.95,172
		c-0.934,0.8-2.8,1.384-5.601,1.75c-2.733,0.333-4.633,0.184-5.7-0.45c0.833,0.467,2.233,0.65,4.2,0.55
		c2.067-0.1,3.9-0.449,5.5-1.05C55.116,172.5,55.65,172.233,55.95,172z M10.55,113.4c-0.73-0.286-1.647-0.528-2.75-0.726l0.5,0.075
		C9.2,112.917,9.95,113.134,10.55,113.4z M0.9,87.25c-0.133-1.433-0.233-2.783-0.3-4.05c0.066,0.8,0.15,1.65,0.25,2.55L0.9,87.25z
		 M79.75,151.5l0.55-0.05h0.55L79.75,151.5z"/>
	<path style="fill-rule:evenodd;clip-rule:evenodd;fill:#898074;" d="M96.2,115.6C96.467,79.267,96.6,52,96.6,33.8l0.45-0.45
		c0.2,0.367,0.384,0.783,0.55,1.25l0.801,5.15c0.133,3.4,0.183,7.65,0.149,12.75c-0.033,2.867-0.083,7.117-0.149,12.75V137
		c0,1.866,0.066,4.866,0.199,9c-0.3,3.467-1.733,5.866-4.3,7.2c-1.033,0.533-3.283,0.883-6.75,1.05
		c-3.666,0.134-5.95-0.134-6.85-0.8c-0.2-0.134-0.384-0.3-0.55-0.5l-0.25-0.3c-0.301-0.334-0.567-0.717-0.801-1.15h0.65l1.1-0.05
		c0.7-0.066,1.217-0.2,1.551-0.4c0.233-0.133,0.75-0.45,1.55-0.95l0.05-0.05c0.733-0.333,2.233-0.616,4.5-0.85
		c0.967-0.066,1.667-0.15,2.1-0.25c0.867-0.167,1.867-0.316,3-0.45c0.801-0.267,1.351-0.95,1.65-2.05c0.3-1.134,0.5-2.351,0.6-3.65
		c0.167-1.666,0.184-3.833,0.051-6.5c-0.167-4.133-0.25-6.267-0.25-6.399V129.1l0.5,3.851L96.2,115.6z M48.85,43.55l0.1-9.55
		c0.1,2.5,0.116,5.333,0.05,8.5c0.134-0.933,0.517-3.117,1.15-6.55l-1.3,12.75c0,4.233,0.083,11.083,0.25,20.55
		c0.134,8.867,0.2,15.7,0.2,20.5c0,14.2-0.166,24.85-0.5,31.95c-0.2,4.399-0.5,8.833-0.9,13.3c-0.267,2.667-0.433,5.517-0.5,8.55
		c-0.167-0.533-0.4-0.967-0.7-1.3c-0.4,1.233-0.8,2.8-1.2,4.7c-0.233,1.066-0.567,2.649-1,4.75c-0.4,1.899-0.817,3.517-1.25,4.85
		l0.45-15.3c0.1-4.3,0.133-10.783,0.1-19.45c-0.033-8.666,0-15.166,0.1-19.5c-0.066-2.633-0.083-4.85-0.05-6.649
		c0.066-3.4,0.383-5.784,0.95-7.15l1.5-14.95l2.25-21.8l0.1,5c0.033-2.567,0.083-5.167,0.15-7.8l0.05-0.25l0.05-1.75L49,42.5
		L48.85,43.55z M51.8,11.5c0.434-1.633,0.7-2.917,0.8-3.85l0.45-0.4L51.15,26.3L50.85,29c0.101-6,0.267-10.483,0.5-13.45
		c0.301-1.333,0.45-2.417,0.45-3.25V11.5z M24.75,25.8c0.333-0.2,0.617-0.316,0.85-0.35c0.667-0.167,1.5-0.15,2.5,0.05
		c0.566,0.133,1.383,0.333,2.45,0.6c1.3,0.267,2.167,0.417,2.6,0.45h0.05c0.6,0.1,1.267,0.184,2,0.25c0.033,0,0.066,0,0.1,0
		c0,2.6-0.05,6.517-0.15,11.75c-0.066,4.7-0.017,8.617,0.15,11.75c1.633-1.8,2.65-4.867,3.05-9.2c0.133-4.934,0.25-8.317,0.35-10.15
		c0.066-1.867,0.117-3.25,0.15-4.15h0.05l0.1-0.05v0.05c-0.167,6.434-0.4,11.967-0.7,16.6c-0.533,8.467-1.5,15.567-2.9,21.3
		c-0.767,3.133-1.267,5.45-1.5,6.95c-0.4,2.5-0.65,5.434-0.75,8.8l-0.1,3.5l0.1-0.5L33.1,88.7c0.033,1.867,0.066,4.649,0.1,8.35
		c0,3.2-0.1,5.983-0.3,8.351l-0.1,1.699c-0.066,10.9,0.333,19.75,1.2,26.551c0.167,1.399,0.267,3.35,0.3,5.85
		c0.034,2.767,0.1,4.717,0.2,5.85c0.2,2.034,0.25,5.117,0.15,9.25v10.7c-0.267,0.134-0.5,0.3-0.7,0.5l-1.65,2.351
		c-0.7,1.633-1.15,3.899-1.35,6.8c-0.167,2.8-0.267,6.166-0.3,10.1c-3.8,0.434-6.833,0.483-9.1,0.15c-3.566-0.533-5.983-2-7.25-4.4
		c-0.066-0.133-0.133-0.267-0.2-0.399l-0.1-0.25c-0.1-0.267-0.2-0.584-0.3-0.95h0.05c0.333,0.166,0.75,0.467,1.25,0.899
		c0.533,0.467,0.933,0.784,1.2,0.95c0.267,0.2,0.566,0.351,0.9,0.45c0.8,0.267,1.75,0.35,2.85,0.25c1.6-0.167,3.017-0.583,4.25-1.25
		c1.1-0.566,1.783-1.483,2.05-2.75c0.167-1.6,0.283-2.866,0.35-3.8c0.133-1.167,0.167-2.617,0.1-4.351
		c-0.167-2.466-0.267-4.333-0.3-5.6c-0.066-2.134,0.033-3.95,0.3-5.45c1.6,0.134,2.483-0.767,2.65-2.7
		c-0.133-2.366-0.2-3.983-0.2-4.85v-37.55l0.25-1.75V111.6l0.05-0.5c-1.034-1.6-2.083-2.966-3.15-4.1
		c-1.633-1.634-3.017-2.35-4.15-2.15c4.2-0.933,6.717-3.866,7.55-8.8c0.267-1.733,0.367-3.983,0.3-6.75
		c-0.133-3.033-0.2-5.216-0.2-6.55L29.9,79c0.1-2.567,0.333-4.883,0.7-6.95c0.867-1.066,1.467-2.533,1.8-4.4
		c0.3-2.333,0.6-4.233,0.9-5.7l-0.4-7.15l-0.15,0.15l-0.1-1.05c-0.133-0.8-0.5-1.517-1.1-2.15c-0.8-0.733-1.45-1.333-1.95-1.8
		c-0.2-0.133-0.35-0.3-0.45-0.5l0.5-1l-0.9,0.05c-0.233-0.667-0.433-1.133-0.6-1.4c-0.4-0.6-0.667-0.934-0.8-1
		c-0.4,0-0.883-0.033-1.45-0.1c-0.667-0.1-1.55-0.133-2.65-0.1c-1.2,0.033-2.033,0.033-2.5,0l-0.1-0.05
		c-0.867-0.3-1.483-0.533-1.85-0.7c-0.6-0.267-1.117-0.65-1.55-1.15c-0.033-0.033-0.467-0.667-1.3-1.9c-0.4-0.567-1-0.95-1.8-1.15
		h-0.2c0.667-0.233,1.4-0.434,2.2-0.6c0.018,0.014,0.035,0.031,0.05,0.05c0.021,0.013,0.046,0.03,0.075,0.05
		c0.138,0.084,0.28,0.184,0.425,0.3l1.7,0.35c0.1-0.033,0.217-0.05,0.35-0.05c0.067-0.033,0.167-0.05,0.3-0.05
		c0.067-0.033,0.15-0.067,0.25-0.1c0.1,0.333,0.233,0.783,0.4,1.35c0.167,0.467,0.466,0.85,0.9,1.15c0.566,0.367,1.9,0.55,4,0.55
		c1.967,0.1,3.15,0.05,3.55-0.15c0.667-0.333,0.983-1.316,0.95-2.95c0.033-1.733,0.066-3.05,0.1-3.95c0.033-1.6,0-2.917-0.1-3.95
		c-0.067-0.867-0.267-1.517-0.6-1.95c-0.5-0.5-0.967-1-1.4-1.5C26.467,28.767,25.683,27.533,24.75,25.8z M3.9,74.1
		c-0.2,4.333-0.066,7.4,0.4,9.2c0.067,4.6,0.267,11.584,0.6,20.95c0.1,2.333-0.033,4.983-0.4,7.95
		c-1.633-0.167-2.817-0.417-3.55-0.75c-0.2-3.2-0.267-7.233-0.2-12.101c0.1-5.399,0.15-9.433,0.15-12.1l-0.05-1.5l0.3-5.9
		c0.033-1.833,0.1-3.05,0.2-3.65c0.2-1.4,0.617-2.517,1.25-3.35c0.2-0.533,0.566-0.967,1.1-1.3L3.9,74.1z"/>
	<path style="fill-rule:evenodd;clip-rule:evenodd;fill:#7C7367;" d="M86.9,30.4l1.899-0.15v5.25c0,0.667,0.084,2.05,0.25,4.15
		c0.066,1.967-0.116,3.317-0.55,4.05c-0.533-2.934-1.066-7.333-1.6-13.2C86.9,30.467,86.9,30.433,86.9,30.4z M85.8,126.3
		c-1.8-9.399-3.116-16.467-3.95-21.2c0.134-1.833,0.434-5.183,0.9-10.05c0.434-4.233,0.717-7.6,0.85-10.1
		c0-0.2-0.017-3.417-0.05-9.65c-0.033-4.1,0.351-7.25,1.15-9.45c0.5,2.7,0.633,6.45,0.399,11.25c-0.267,5.7-0.333,9.483-0.199,11.35
		c0.666,9.533,0.966,21.934,0.899,37.2V126.3z M72.5,3.8v0.05L71.3,21.8c0.134,1.667,0.066,3.833-0.2,6.5
		c-0.433,3.934-0.666,6.083-0.699,6.45C70.333,36.117,70.3,39.2,70.3,44c-0.066,6.267,0.25,12.05,0.95,17.35
		c0.233,1.733,0.366,3.883,0.4,6.45c0,1.434,0.017,3.583,0.05,6.45c0.133,3.3,0.184,5.25,0.149,5.85c0,2.1-0.199,4.017-0.6,5.75
		c-0.467,2.033-0.917,4.917-1.35,8.65c-0.067,0.767-0.2,1.8-0.4,3.1c-0.134,1.134-0.184,2.184-0.15,3.15
		c0.101,1.233,0.184,3.1,0.25,5.6l0.101,3.9l0.1,5.8l-0.149,1.101c-0.134,0.699-0.483,1.366-1.051,2
		c-1.267,1.267-1.949,1.966-2.05,2.1c-0.566,0.767-0.8,1.866-0.7,3.3c0.067,0.834,0.233,2.017,0.5,3.55l0.15,1.25
		c-0.1,0.301-0.184,0.617-0.25,0.95c-0.533,1.566-1.184,3.351-1.95,5.351l-0.45,1.149c-0.5,1.267-1.166,2.917-2,4.95
		c-0.166-5.7-0.183-9.95-0.05-12.75c0.267-4.667,0.95-8.816,2.05-12.45c1.101-3.7,1.667-8.533,1.7-14.5
		c-0.133-6.7-0.166-11.6-0.1-14.7c0.267-10.467,0.366-24.4,0.3-41.8c0-7.5,0.017-11.55,0.05-12.15c0.101-4.6,0.5-8.617,1.2-12.05
		l1.75-7.65c0.434-2.434,0.65-5.267,0.65-8.5c-0.5,0.3-1.084,0.867-1.75,1.7c-0.834,0.967-1.367,1.567-1.601,1.8L65.8,8.9
		c-1.1,0.934-2.25,1.8-3.45,2.6c-1.699,1.1-2.85,1.567-3.449,1.4c-0.434-0.133-0.801-0.5-1.101-1.1
		c-0.066-0.167-0.233-0.633-0.5-1.4c-0.2-0.9-0.366-1.55-0.5-1.95c-0.267-0.633-0.85-1.083-1.75-1.35c-0.767-0.2-1.434-0.15-2,0.15
		l-0.45,0.4v-0.6L52.65,7c0-0.033,0-0.083,0-0.15c0.133-0.567,0.233-1.4,0.3-2.5c0.233-0.5,0.399-0.8,0.5-0.9
		c0.467-0.633,1.2-1.133,2.2-1.5L56.2,1.8l0.2,0.6c0.433,0.733,1.017,1.233,1.75,1.5c1.033,0.4,1.699,0.717,2,0.95
		c0.466,0.367,1.033,1.017,1.699,1.95c0.634,0.733,1.45,0.934,2.45,0.6c0.867-0.267,1.584-0.867,2.15-1.8
		c0.366-0.533,0.833-1.383,1.399-2.55L69.3,3c0.967-0.133,1.617-0.383,1.95-0.75l0.25,0.2C71.833,2.783,72.167,3.233,72.5,3.8z
		 M6.35,68.75c2.5,2.267,5.816,4.017,9.95,5.25c1,0.3,1.767,0.3,2.3,0c0.367-0.2,0.983-0.65,1.85-1.35
		c0.533-0.333,0.95-0.55,1.25-0.65c0.233-0.067,0.7-0.167,1.4-0.3c3.167-0.8,5.483-3.184,6.95-7.15c1.2-4.9,2.067-8.45,2.6-10.65
		l0.1,1.05l0.15-0.15l0.4,7.15c-0.3,1.466-0.6,3.367-0.9,5.7c-0.333,1.867-0.933,3.333-1.8,4.4c-0.6,0.767-1.367,1.434-2.3,2
		c-1.4,0.633-2.367,1.233-2.9,1.8c-0.1,0.133-0.433,0.717-1,1.75c-0.4,0.733-0.85,1.133-1.35,1.2c-0.9-1.466-2-2.083-3.3-1.85
		c-1.633,0.633-2.967,1.083-4,1.35c-1.133,0.3-2.45,0.467-3.95,0.5c-0.533,0-1.9-0.017-4.1-0.05H6.5c-0.633-3.733-1-6.133-1.1-7.2
		c0.167-0.066,0.25-0.117,0.25-0.15c0.267-0.267,0.434-0.683,0.5-1.25C6.25,69.35,6.317,68.883,6.35,68.75z M4,71.45
		c0.2-0.034,0.467-0.017,0.8,0.05L4.3,83.3c-0.466-1.8-0.6-4.867-0.4-9.2L4,71.45z M81.5,109.55l2.45,40.55
		c-0.8,0.5-1.316,0.817-1.55,0.95c-0.334,0.2-0.851,0.334-1.551,0.4c0.334-15.033,0.483-26.3,0.45-33.8
		C81.267,115.384,81.333,112.684,81.5,109.55z"/>
	<path style="fill-rule:evenodd;clip-rule:evenodd;fill:#635B52;" d="M83.95,150.1l-2.45-40.55l-0.55-9.3l0.899,4.85
		c0.834,4.733,2.15,11.801,3.95,21.2l0.8,4.2c0.967,6.366,1.601,12.6,1.9,18.7c-2.267,0.233-3.767,0.517-4.5,0.85L83.95,150.1z
		 M73.35,6.05C73.483,20.817,73.934,39.2,74.7,61.2c0.267,7.066,0.45,13.383,0.55,18.95l0.1,7.7v4.6L75.3,96
		c-0.1,7.434-0.45,14.233-1.05,20.4c-0.267,2.966-1.1,6.316-2.5,10.05c-0.65-0.084-1.358-0.075-2.125,0.024L67.1,127
		c-0.166,0.733-0.366,1.517-0.6,2.35l-0.15-1.25c-0.267-1.533-0.433-2.716-0.5-3.55c-0.1-1.434,0.134-2.533,0.7-3.3
		c0.101-0.134,0.783-0.833,2.05-2.1c0.567-0.634,0.917-1.301,1.051-2l0.149-1.101c0.101-1.2,0.084-2.7-0.05-4.5l-0.05-1.3
		l-0.101-3.9c-0.066-2.5-0.149-4.366-0.25-5.6c-0.033-0.967,0.017-2.017,0.15-3.15c0.2-1.3,0.333-2.333,0.4-3.1
		c0.433-3.733,0.883-6.617,1.35-8.65c0.4-1.733,0.6-3.65,0.6-5.75c0.034-0.6-0.017-2.55-0.149-5.85
		c-0.033-2.867-0.05-5.017-0.05-6.45c-0.034-2.566-0.167-4.716-0.4-6.45c-0.7-5.3-1.017-11.083-0.95-17.35
		c0-4.8,0.033-7.883,0.101-9.25c0.033-0.367,0.267-2.517,0.699-6.45c0.267-2.667,0.334-4.833,0.2-6.5l1.2-17.95V3.8
		c0.066,0.133,0.134,0.284,0.2,0.45l0.5,1.3C73.267,5.717,73.316,5.883,73.35,6.05z M51.35,15.55c0.034-1,0.134-2.033,0.301-3.1
		L51.8,11.5v0.8C51.8,13.133,51.65,14.217,51.35,15.55z M35.3,26.8l1.75,0.05c0.553,0,1.153-0.017,1.8-0.05
		c-0.033,0.9-0.083,2.284-0.15,4.15c-0.1,1.833-0.217,5.216-0.35,10.15c-0.4,4.333-1.417,7.4-3.05,9.2
		c-0.167-3.133-0.216-7.05-0.15-11.75C35.25,33.317,35.3,29.4,35.3,26.8z M7.8,112.675l-0.15-0.024H7.4L7.3,112.6
		c-0.133-0.033-0.25-0.05-0.35-0.05L4.5,112.2c0.367-2.967,0.5-5.617,0.4-7.95C4.567,94.884,4.367,87.9,4.3,83.3l0.5-11.8l0.6,0.05
		c0.1,1.067,0.467,3.467,1.1,7.2l0.25,1.45c0.533,3.533,0.833,6.2,0.9,8c0.2,5.399,0.4,9.483,0.6,12.25
		c0.2,3.434,0.217,7.533,0.05,12.3L7.8,112.675z M13.4,173.35l-0.1-0.6v-0.1L13.4,173.35z M13.65,179.1
		c-0.077-0.306-0.143-0.631-0.2-0.975c0.058,0.316,0.125,0.625,0.2,0.925V179.1z"/>
</g>
</svg>
