<?xml version="1.0" encoding="iso-8859-1"?>
<!-- Generator: Adobe Illustrator 15.1.0, SVG Export Plug-In . SVG Version: 6.00 Build 0)  -->
<!DOCTYPE svg PUBLIC "-//W3C//DTD SVG 1.1//EN" "http://www.w3.org/Graphics/SVG/1.1/DTD/svg11.dtd">
<svg version="1.1" id="Layer_1" xmlns="http://www.w3.org/2000/svg" xmlns:xlink="http://www.w3.org/1999/xlink" x="0px" y="0px"
	 width="152.05px" height="217.6px" viewBox="0 0 152.05 217.6" style="enable-background:new 0 0 152.05 217.6;"
	 xml:space="preserve">
<g>
	<path style="fill-rule:evenodd;clip-rule:evenodd;fill:#7C736A;" d="M93.95,64.2c-1.867,0.333-3.084,0.5-3.65,0.5
		c-1.633,0-2.717-0.367-3.25-1.1c-0.333-0.467-0.55-1.383-0.649-2.75c-0.2-3.2-1.617-5.434-4.25-6.7c-0.4-0.6-0.983-2.1-1.75-4.5
		c-1-3.233-3.584-8.7-7.75-16.4c1.4-0.067,2.583-0.3,3.55-0.7L75.9,32c0.667,0.7,1.883,1.767,3.65,3.2l-0.75-0.5
		c2.467,6.966,4.851,12.216,7.15,15.75c1.899,2.867,3.483,4.3,4.75,4.3c0.434,0,0.8-0.15,1.1-0.45c0.134-0.133,0.351-0.433,0.65-0.9
		c1.066,2.934,1.6,5.283,1.6,7.05C94.083,61.45,94.05,62.7,93.95,64.2z M83.45,37.9c1,0.467,2.217,1.517,3.649,3.15
		c1.534,1.733,2.5,3.233,2.9,4.5c-0.167-0.233-1.233-1.5-3.2-3.8C84.8,39.383,83.684,38.1,83.45,37.9z M59.95,15.1
		c0.2,4.767,1.8,9.333,4.8,13.7c1.533,2.267,3.317,4.65,5.35,7.15c1.6,3.6,4.233,8.1,7.9,13.5c2.6,4.667,3.417,9.316,2.45,13.95
		c0.6-0.3,0.983-0.833,1.149-1.6c0.2-0.8,0.233-2.2,0.101-4.2c0.033,0,0.017-0.083-0.05-0.25c0.066-0.167,0.3-0.25,0.699-0.25
		c1.067,0,2.233,1.533,3.5,4.6c1.233,3.033,2.567,4.55,4,4.55c0.634,0,1.384-0.133,2.25-0.4c0.467-0.167,1.15-0.417,2.051-0.75
		c0.3,0.6,1.116,1.816,2.449,3.65l-1-1.25L95.7,69c0,0.667-0.05,0.917-0.15,0.75c-0.7-0.133-1.366-0.35-2-0.65
		c-0.3,2.8-1.05,4.2-2.25,4.2c-0.733,0-1.483-0.367-2.25-1.1c-0.934-0.9-1.25-1.95-0.95-3.15c0.4-0.333,0.634-0.517,0.7-0.55
		c0.167-0.033,0.934-0.217,2.3-0.55c-2.233,0.233-3.85-0.034-4.85-0.8c-1.366-1.066-1.767-3.066-1.2-6c-0.1,0-0.283-0.083-0.55-0.25
		c-0.333-0.233-0.6-0.4-0.8-0.5c-0.2,1.267-0.3,2.733-0.3,4.4c-0.101,1-0.65,1.5-1.65,1.5c-0.7,0-1.05,0.4-1.05,1.2
		c0,0.733,0.75,1.967,2.25,3.7c2.267,2.6,4.35,5.6,6.25,9c-0.9-0.034-2.584,0.017-5.05,0.15c-2.601,0.1-3.967,0.15-4.101,0.15
		c-0.434-1.467-0.95-2.967-1.55-4.5c-1.134-3.067-2.85-4.717-5.15-4.95l-0.85-0.2c1.367-0.2,2.967-1.633,4.8-4.3
		c1.733-2.566,2.601-4.566,2.601-6L79.8,58c-0.066,0-0.149-0.1-0.25-0.3c-0.133-0.333-0.233-0.55-0.3-0.65
		c-0.267,2.4-0.517,4.067-0.75,5c-0.7,0.3-1.733,0.534-3.1,0.7c-1.066,0.133-1.95,0.2-2.65,0.2c-1.967,0-3.683-1.35-5.15-4.05
		c-1.934-3.566-4.317-6.233-7.15-8c-5.733-4.133-9.1-6.933-10.1-8.4c-0.333-0.9-0.75-1.85-1.25-2.85
		c0.033-0.066,0.05-0.15,0.05-0.25c-0.933-3.3-1.583-5.533-1.95-6.7c-0.567-1.9-1.284-3.284-2.15-4.15
		c-1.933-2.033-3.15-3.216-3.65-3.55c-0.9-0.467-2.233-1.333-4-2.6L33.05,9.8c0.067-1.6,0.4-4.733,1-9.4
		c-1.2,0.434-2.433,0.95-3.7,1.55C28.517,3.217,27.967,5.567,28.7,9c0.433,1.867,1.233,4.367,2.4,7.5c-0.6-1.267-1.2-2.467-1.8-3.6
		c-1.133-2.2-2.283-3.933-3.45-5.2c0-2.133,1.033-3.95,3.1-5.45C31.017,0.75,33.5,0,36.4,0l-2.15,0.35
		c0.533,2.333,1.65,5.417,3.35,9.25c2.033,4.566,3.95,7.867,5.75,9.9c0-0.6-0.567-3.083-1.7-7.45c-1.2-4.7-1.816-7.117-1.85-7.25
		l-0.1-0.65c0.3,0.4,0.983,2.067,2.05,5c1.4,3.867,2.533,6.783,3.4,8.75c0.2,0.5,1.033,1.483,2.5,2.95
		c1.767,1.767,2.95,3.05,3.55,3.85c0.533,0.7,1.9,2.95,4.1,6.75c1.6,2.8,3.133,4.767,4.6,5.9l0.85,1.05
		c-0.133-0.933-0.833-2.6-2.1-5c-1.767-3.3-3.083-5.967-3.95-8l-0.4-1.5c0.633,0.733,2.75,3.633,6.35,8.7
		c4.167,5.833,6.867,9.85,8.1,12.05c0,0.2,1.467,2.1,4.4,5.7c2.966,5.033,4.216,6.633,3.75,4.8c-0.733-5.3-2.667-10.183-5.8-14.65
		c-3.633-4.4-6.117-7.767-7.45-10.1c-1.467-2.566-3-5.417-4.6-8.55c-1.633-3.233-2.733-5.35-3.3-6.35L59.95,15.1z M38.5,0
		c1.533,0,2.85,0.3,3.95,0.9c1.1,0.567,1.65,1.25,1.65,2.05c-0.467-0.8-1.333-1.5-2.6-2.1C40.367,0.317,39.367,0.033,38.5,0z
		 M60.65,15.05c2.833-0.033,4.317-0.017,4.45,0.05c0.3,0.133,1.783,1.55,4.45,4.25c1.9,1.933,3.034,3.65,3.4,5.15
		c0.767,2.8,1.25,4.467,1.45,5l-1.1-2.7l-0.55-0.6c-0.233,0.6-0.45,2.25-0.65,4.95l-0.1,0.3c-2.5-1.367-5-3.95-7.5-7.75
		C62.2,20.2,60.917,17.317,60.65,15.05z M75.15,84.6c-1.533,0.633-3.033,1.3-4.5,2l-0.3-0.05c-0.333-0.733-0.75-1.45-1.25-2.15
		c0.133,0,0.633-0.1,1.5-0.3c-0.5,0.066-1.05,0.1-1.65,0.1c-0.467,0-2.25-1.867-5.35-5.6c-0.567-0.667-1.083-1.283-1.55-1.85
		c-1.267-3.167-3.333-6.917-6.2-11.25c-3.7-5.267-6.4-9.167-8.1-11.7c-1.7-2.466-3.033-4.4-4-5.8l-3.1-15.65
		c1,1.133,1.8,2.417,2.4,3.85c0.333,0.867,0.8,2.183,1.4,3.95c0.933,2.3,2.55,4.6,4.85,6.9l-0.5-0.2c0.2,0.1,0.4,0.2,0.6,0.3
		c1.067,1.033,2.283,2.083,3.65,3.15c5.267,4.034,9.45,8.233,12.55,12.6c1.633,2.267,3.267,4.75,4.9,7.45l-1.85-0.5l-12.75-15
		c1.5,2.167,3.567,5.767,6.2,10.8c2.1,4,3.717,6.533,4.85,7.6c1.933,1.833,3.433,3.467,4.5,4.9c1.033,1.434,1.733,2.317,2.1,2.65
		c0.667,0.333,1.017,0.35,1.05,0.05c-0.667-3.167-1-4.8-1-4.9c0.733,0.066,1.85,0.767,3.35,2.1c0.8,0.7,1.75,1.534,2.85,2.5
		c-4.167,0.6-6.533,1.417-7.1,2.45c-0.2,0.367-0.583,0.65-1.15,0.85c0.6-0.133,1.284-0.3,2.05-0.5c2.5-0.667,5.383-0.883,8.65-0.65
		l-2.65,0.55c-1.1,0.067-1.933,0.183-2.5,0.35C76.4,83.8,75.75,84.133,75.15,84.6z M67.5,87.25l-5.25,1.25
		c-3.4,0.767-5.7,1.567-6.9,2.4l0.15,0.8c-0.167-0.367-0.467-0.733-0.9-1.1c-0.567-0.533-1.667-1.367-3.3-2.5
		c-4-3.5-6.133-5.467-6.4-5.9c0.133,4.4-0.066,7.566-0.6,9.5c-0.267,1-0.6,2.133-1,3.4c-0.066,0.566-0.267,1.967-0.6,4.2
		c-0.333,2.3-0.55,3.6-0.65,3.9l-0.45,0.85c-0.133-1.533-0.2-2.633-0.2-3.3c0.567-9.467,0.85-14.533,0.85-15.2
		c0-2.633-0.183-4.466-0.55-5.5c-0.567-1.633-1.9-3.216-4-4.75l-2.2-1.95l-3.15-2.8c-4.3-4.066-6.967-6.667-8-7.8L22.6,60.6
		l-0.9-1.4c-0.5-0.667-0.967-1.833-1.4-3.5c-0.333-1.2-0.533-2.083-0.6-2.65c-0.4-4.933-0.65-7.966-0.75-9.1
		c-0.1-1.233-0.534-5.467-1.3-12.7c1.667,3.333,3.417,6.6,5.25,9.8c1,1.833,2.483,4.45,4.45,7.85l0.85,1.45
		c-0.934-8-2.117-13.9-3.55-17.7c-1.733-4.6-4.233-7.517-7.5-8.75l-0.25-6.85l0.2-1.95L16.95,17c0,0.033,0.25,1,0.75,2.9
		c0.7,2.067,1.6,3.667,2.7,4.8c0.067,0.066,1.4,1.966,4,5.7c2.6,3.833,4.033,6.1,4.3,6.8l0.45,1.9l0.05-2.15
		c0-5.3-1.133-10.383-3.4-15.25c-1.233-2.367-2.1-4.05-2.6-5.05c-0.867-1.7-1.4-3.083-1.6-4.15c1,0,1.85-0.333,2.55-1
		c0.7-0.667,1.05-1.483,1.05-2.45c0.7,6.934,2.333,11.75,4.9,14.45c0.6,0.667,1.417,1.4,2.45,2.2c0.667,0.7,0.983,1.533,0.95,2.5
		C33.267,33,35.1,39.433,39,47.5c2.733,5.667,5.183,9.917,7.35,12.75c1.867,2.433,4.483,5.367,7.85,8.8
		c2.167,2.2,3.533,4.117,4.1,5.75c0.667,1.9,2.05,4.083,4.15,6.55C65.617,84.983,67.3,86.95,67.5,87.25z M102.55,132.55
		c-0.066-0.033-0.434-0.05-1.1-0.05c-1.2,0-3.634,0.45-7.3,1.35l0.1,0.101c-0.3,0.1-0.533,0.033-0.7-0.2
		c-0.133,0.033-0.233,0.083-0.3,0.15c-0.134,0.166,0,0.416,0.4,0.75c-0.134-0.101-1.117,0.033-2.95,0.399
		c-1.834,0.367-2.851,0.467-3.05,0.3l-7.5,2l1.25,0.051l1.399,0.3c-2.733,0.5-4.75,0.75-6.05,0.75c-1.1,0-2-0.233-2.7-0.7
		c-0.7-0.5-2.15-0.75-4.35-0.75c-2,0-4.517-3.9-7.55-11.7c-2.933-7.633-4.45-14.267-4.55-19.9l-0.05,8.15c0,6.233,0.1,9.8,0.3,10.7
		c-0.6-1.533-1.067-4.5-1.4-8.9c-0.233-3.3-0.35-6.333-0.35-9.1c0.133-5.767,0.15-9.467,0.05-11.1c1.233,1.3,2.233,2.583,3,3.85
		l0.65,1.45c0-0.8,0.45-2.017,1.35-3.65c1.033-1.933,2.05-2.966,3.05-3.1c1.267,5.466,2.6,14.25,4,26.35
		c1.833,9.601,5.233,15,10.2,16.2c-1.534-2.066-2.817-3.8-3.851-5.2c-1.966-2.666-3.25-6.05-3.85-10.149
		c-0.333-2.167-0.45-4.767-0.35-7.801c0.033-0.833,0.066-1.583,0.1-2.25c0.2,2.867,0.417,5.5,0.65,7.9l0.05,0.85L71.1,97.85
		c0.367,1,0.45,3.117,0.25,6.35l0.35,1.35c-0.1-1.1,0.25-2.133,1.05-3.1c0.7-0.8,1.267-1.2,1.7-1.2c0.733,0,1.316,0.483,1.75,1.45
		c0.533,1.2,0.916,3.283,1.149,6.25l0.101,1.55c0.434-6.833,0.649-10.317,0.649-10.45c0-0.7,0.267-1.85,0.801-3.45
		c0.566-1.633,1.083-2.7,1.55-3.2l0.7-0.45c0.5,1.5,1.633,5.883,3.399,13.15c2.367,7.534,5.55,13.75,9.55,18.65L84.65,96.2
		c0-1.667,0.449-2.784,1.35-3.35c0.5-0.333,1.434-0.767,2.8-1.3C87.866,90.117,87.4,89.2,87.4,88.8c0-1.733,0.517-3.017,1.55-3.85
		c1.8-1.434,5.399-2.267,10.8-2.5L99.7,81.2c0.1,1.2,0.333,2.983,0.7,5.35l-2.25-0.7c-0.067,0-0.134,0.05-0.2,0.15
		c-0.134,0.167-0.2,0.45-0.2,0.85c0,1.2,0.967,3.183,2.9,5.95c3.5,4.967,6.666,9.95,9.5,14.95c-0.834-0.267-1.801-0.867-2.9-1.8
		c-0.134-0.1-1.25-1.117-3.35-3.05l-1.25-1.05c0.066,0.133,1.433,2.333,4.1,6.6c2.1,3.3,3.15,6.166,3.15,8.6
		c0,0.667-0.034,0.967-0.101,0.9l-0.2,0.3c-0.366-0.667-1.1-1.783-2.199-3.35c-2.2-3.101-5.317-7.067-9.351-11.9
		c-0.033,1.6,0.634,4.383,2,8.35c1.4,4.067,2.117,6.301,2.15,6.7c0.333,0.967-0.117,0.617-1.351-1.05
		c-1.3-1.7-2.767-3.934-4.399-6.7c-4.601-7.633-7.066-13.367-7.4-17.2l-0.5-1.25c1.367,9,3.667,16.85,6.9,23.55
		c3.399,7.066,6.883,10.783,10.45,11.149l0.199,0.15c-0.233-0.767-0.35-1.233-0.35-1.4l-0.1-0.3c1.199,1.167,2.05,2.583,2.55,4.25
		c0,0.667-0.05,1.033-0.15,1.1c-0.333-0.066-1.149-0.649-2.45-1.75c-1.366-1.166-2.183-1.866-2.449-2.1l-0.051,4.3
		c0.467,0.066,1.733,0.017,3.801-0.149c2.767-0.167,4.35-0.267,4.75-0.301l1.149-0.05
		C112.733,130.333,109.316,131.083,102.55,132.55z M93.85,81.75l-5.3,0.2c0.467-0.133,0.983-0.367,1.55-0.7
		c0.434-0.267,0.834-0.4,1.2-0.4C92.167,80.85,93.017,81.15,93.85,81.75z M92.5,82.25l1.5-0.4l0.6,0.45L92.5,82.25z M84,94.25
		l0.05,0.8c-0.333-0.2-0.649-0.417-0.95-0.65c-0.533-0.4-1.066-0.917-1.6-1.55c0.2,0,0.5,0.083,0.9,0.25
		C83.033,93.367,83.566,93.75,84,94.25z M32.25,44.65c0.933,2.667,2.017,5.067,3.25,7.2c0.233,1.167,0.517,3.017,0.85,5.55
		c0.4,2.133,0.883,3.533,1.45,4.2c2.633,3.167,4.3,5.566,5,7.2c0.2,0.434,0.617,0.65,1.25,0.65c0.656,0,0.906-0.583,0.75-1.75
		c0.637,4.172,1.287,6.906,1.95,8.2c0.733,1.467,2.533,3.333,5.4,5.6l0.6,0.65c-1.433-2.267-2.217-3.883-2.35-4.85l0.15-0.65
		c0.3,0.434,1.617,1.967,3.95,4.6c1.767,1.967,2.65,3.283,2.65,3.95c0,0.367-0.083,0.617-0.25,0.75c-0.533,0.4-1,0.833-1.4,1.3
		c0.6,0.5,1.383,0.75,2.35,0.75s2.25-0.2,3.85-0.6c1.667-0.433,2.85-0.883,3.55-1.35c-2.6-2.9-7.5-9.617-14.7-20.15
		c-1.3-1.9-3.117-3.883-5.45-5.95c-2.467-2.233-4.217-4.034-5.25-5.4c-4-5.333-7.233-15.333-9.7-30
		C29.75,32.817,30.45,39.517,32.25,44.65z M69.65,97.2c0.067,1.566,0.15,3.083,0.25,4.55c-0.533-1.8-1.316-3.45-2.35-4.95
		C68.117,97.033,68.817,97.167,69.65,97.2z M65.65,113.25c-0.2-3-1.25-7.35-3.15-13.05l-0.85-1.35c-0.5,2.467-0.35,4.9,0.45,7.3
		c0.3,0.9,1.25,2.917,2.85,6.05L65.65,113.25z M66.3,144.75c0.167-0.1,1.317-0.45,3.45-1.05c2.367-0.7,4.667-1.55,6.9-2.55
		c1.3-0.567,2.966-1.334,5-2.301c1.066-0.533,1.716-0.8,1.949-0.8c0.067,0,1.467,0.884,4.2,2.65c1.533,1.366,2.767,2.934,3.7,4.7
		c-0.667-1.7-1.2-3.167-1.6-4.4l-0.15-1c0.7,0.167,1.316,0.434,1.85,0.8l0.45,0.45c-0.434-0.833-0.733-1.384-0.899-1.65
		c-0.2-0.399-0.7-1.199-1.5-2.399l2.449-0.45c1.733-0.333,2.801-0.5,3.2-0.5c0.934,0,2.233,2.167,3.9,6.5
		c2.533,6.733,4.166,10.816,4.899,12.25l0.4,0.75c0.167-0.833,0.25-1.583,0.25-2.25c0-3.566-0.816-6.8-2.45-9.7
		c1.033,1.5,1.617,2.717,1.75,3.65c0.066-2.467,0.101-4.033,0.101-4.7c-0.634-3.267-1.584-5.833-2.851-7.7
		c4.566-1.633,9.017-3.066,13.351-4.3c2.566-0.866,4.966-2.384,7.199-4.55c0.634,0.866,1.434,1.467,2.4,1.8
		c0.733,0.233,1.95,0.467,3.65,0.7l-0.75,0.149c1.433,1.233,2.767,2.65,4,4.25c1.3,1.7,1.916,2.917,1.85,3.65l-0.1,0.8
		c-0.034,0.267-0.067,0.45-0.101,0.55c-0.1,0.2-0.35,0.301-0.75,0.301c-0.434,0-0.967-0.2-1.6-0.601
		c-0.233-0.133-0.783-0.533-1.65-1.2l-1-1c0.134,0.233,0.55,1.434,1.25,3.601c0.7,2.133,1.066,3.333,1.101,3.6l-0.051,0.851
		c-0.233-0.334-1.5-1.667-3.8-4c-2.2-2.233-3.434-3.45-3.7-3.65c0.101,0.3,0.817,2.283,2.15,5.95c1.3,3.666,1.95,5.816,1.95,6.45
		c0,0.8-0.25,1.416-0.75,1.85c-1.033-0.434-1.816-0.85-2.351-1.25c-0.5,0.566-0.767,0.884-0.8,0.95
		c-0.3,0.267-0.616,0.399-0.95,0.399c-0.1,0-0.566-0.25-1.399-0.75c-0.867-0.466-1.483-0.716-1.851-0.75
		c-0.767,1.301-1.199,2.167-1.3,2.601l-0.149,0.1c-0.601-1.967-1.233-3.883-1.9-5.75c-1.3-3.6-2.95-6.066-4.95-7.399l-1.149-0.95
		c0.033,0.133,0.533,1.95,1.5,5.45c0.966,3.767,1.466,6.399,1.5,7.899c-0.067,0-0.25-0.083-0.551-0.25
		c-0.366-0.166-0.666-0.366-0.899-0.6l-0.101,6.85l0.351,0.05c0.733-0.133,2.399-0.583,5-1.35c2.633-0.667,4.833-1,6.6-1
		c0.601,0,1.167,0.233,1.7,0.7c0.533,0.434,0.85,0.649,0.95,0.649c0.333,0,1.116-0.149,2.35-0.449c1.267-0.301,2.101-0.45,2.5-0.45
		l-0.75,0.85c0.233-0.166,0.434-0.35,0.601-0.55c0.166-0.2,0.216-0.3,0.149-0.3c0.8-0.867,1.717-1.434,2.75-1.7
		c1.101-0.3,2.9-0.434,5.4-0.4l0.95,0.051c-1.367,0.733-2.351,1.033-2.95,0.899c-0.434-0.3-0.783-0.45-1.05-0.45
		c-0.4,0-1.351,0.417-2.851,1.25l-2.149,1.25c0.066,0,1.333-0.066,3.8-0.199c2.7-0.267,4.684-0.717,5.95-1.351l1.25,1.45
		c-0.767-0.533-1.801-0.6-3.101-0.2c-2.033,0.867-3.333,1.3-3.899,1.3l0.5,0.801c0.433,0.5,0.85,0.75,1.25,0.75
		c1.166,0,2.416-0.167,3.75-0.5c1.333-0.367,2.199-0.65,2.6-0.851c1.3,1.8,2.333,3.017,3.1,3.65c-0.399-0.3-1.033-0.45-1.899-0.45
		c-0.767,0-2.167,0.25-4.2,0.75c-2.366,0.6-3.717,0.917-4.05,0.95l-0.101,1.35c0.067,0,1.167-0.033,3.301-0.1l2.35,0.35
		c0,0.066,0.083,0.217,0.25,0.45c0.134,0.2,0.2,0.5,0.2,0.9c0,0.699-0.767,1.216-2.3,1.55c-1.534,0.333-2.301,0.983-2.301,1.95
		c0,0.666,0.284,1.866,0.851,3.6c0.333,0.967,0.816,2.3,1.45,4c0.533,1.5,1.017,4.233,1.449,8.2c0.367,3.767,0.5,6.666,0.4,8.7
		c0.667-0.9,1.05-1.617,1.15-2.15c0.166-0.6,0.25-3.467,0.25-8.6c0-0.567-0.334-3.284-1-8.15v-2.05c0.433,0,1.033,0.083,1.8,0.25
		c0.633-0.101,1.166-0.967,1.6-2.601c2.134,1.101,3.167,5.75,3.101,13.95c-0.067,4.467-0.25,10.9-0.551,19.3
		c0.267-1.066,0.584-4.05,0.95-8.949c0.233-3.5,0.384-6.184,0.45-8.051c0.134,0,0.45-0.3,0.95-0.899
		c0.066,0.133,0.434,0.833,1.1,2.1c0.566,1.367,0.95,2.717,1.15,4.05c-0.267,2.101-0.617,4.75-1.05,7.95
		c-0.567,4.566-0.733,7.884-0.5,9.95c0.267,2.134,0.3,3.65,0.1,4.55c-0.233,0.934-0.733,1.667-1.5,2.2c-0.8,0-2.5-0.134-5.1-0.4
		c-3.233-0.3-5.134-0.566-5.7-0.8l0.85,0.851c-1.133-0.834-1.783-1.25-1.95-1.25l-1.55,0.149l0.2-0.05
		c0.233-0.333,0.45-0.833,0.65-1.5c0.399-0.5,1.283-0.75,2.649-0.75c0.566,0,2.184,0.184,4.851,0.55l1.449,0.2
		c-2-0.7-3.449-1.3-4.35-1.8c-1.634-0.867-2.583-2.066-2.85-3.601c-0.167-0.899-0.717-2.216-1.65-3.949
		c-0.733-1.334-1.1-3.101-1.1-5.301c0-1.399,0.233-4.933,0.699-10.6c0.467-5.634,0.7-8.917,0.7-9.85c0-1.601-0.233-2.801-0.7-3.601
		c-1.033-1.7-2.366-6-4-12.899c-0.399-1.7-0.966-2.884-1.699-3.551c-0.567-0.5-1.301-0.75-2.2-0.75c-1.533,0-3.7,0.051-6.5,0.15
		c-4.2,0.167-7.351,0.4-9.45,0.7c-0.066,0-0.866,0.483-2.4,1.45c-1.566,1-2.566,1.55-3,1.649c-0.533-0.399-1.533-0.333-3,0.2
		c-0.866-0.2-1.716-0.134-2.55,0.2c-1.066,0.566-2.017,1.05-2.85,1.45c-3.533,1.699-8.533,2.716-15,3.05
		c-0.134-1.267-0.566-2.9-1.3-4.9c-0.601-1.2-1.284-2.383-2.051-3.55c0.101,2.8,0.101,4.9,0,6.3c0,1.066-0.216,2.566-0.649,4.5
		c-0.434,1.8-0.816,3-1.15,3.601c-0.333,0.267-0.7,0.416-1.1,0.449c-0.101-1.433-0.25-2.75-0.45-3.949
		c-0.567-4.4-1.05-7.351-1.45-8.851c-0.4-1.533-0.883-2.3-1.45-2.3c-0.4,0-0.684,0.134-0.85,0.4c-0.167,0.366-0.317,0.616-0.45,0.75
		c-0.267-0.434-0.517-1.45-0.75-3.051c-0.233-1.566-0.466-2.55-0.7-2.949c-0.1,0.033-0.2,0.1-0.3,0.199
		c-0.233,0.2-0.367,0.5-0.4,0.9c-0.033-1.866-0.316-3.583-0.85-5.15c-0.233-0.267-0.716-0.649-1.45-1.149
		c-0.7-0.467-1.05-0.717-1.05-0.75c0-0.4,0.133-0.533,0.4-0.4c0.066,0.033,0.15,0.084,0.25,0.15L66.3,144.75z M69.9,159.45
		c0-2.033,0.083-4.101,0.25-6.2v18L69.9,159.45z M132.25,213.85h0.05c0.434,0,0.717-0.416,0.851-1.25c0.033-0.333,0.05-1,0.05-2
		c0-1.3-0.367-4.566-1.101-9.8c-0.733-5.3-1.216-7.95-1.449-7.95c-0.4,0-1.034,0.134-1.9,0.4l-1.05,0.35
		c0.267-0.1,0.733-0.416,1.399-0.949c0.834-0.601,1.483-1,1.95-1.2c0.367,1.133,0.684,1.883,0.95,2.25
		c0.2,0.267,0.417,0.366,0.65,0.3c0.133,4.134,0.333,8.366,0.6,12.7c0.233,3.267,0.333,5.75,0.3,7.45
		C133.15,214.05,132.717,213.95,132.25,213.85z M131,213.65c-2.467-0.4-5.517-0.601-9.15-0.601c-1.433-1.566-2.149-3.066-2.149-4.5
		c0-0.733,0.2-1.467,0.6-2.2c0.5-0.866,1.184-1.316,2.05-1.35c0.267,0.733,0.9,1.1,1.9,1.1c0.833,0,1.583-0.3,2.25-0.899
		c0.134-0.233,0.2-0.517,0.2-0.851c-0.733-0.333-2.25-0.5-4.55-0.5l0.05,0.301c-1.834,0.3-3.084,0.449-3.75,0.449l-1.601-0.1h-0.199
		c0-0.134,0-0.267,0-0.4c-0.167-4.966-0.667-10.699-1.5-17.199c-0.801-6.301-1.434-9.817-1.9-10.551
		c-0.566-0.933-1.134-2.033-1.7-3.3c-0.934-2.066-1.467-3.833-1.6-5.3c-0.134-1.467-0.65-2.316-1.55-2.55
		c-0.867-0.233-1.301-0.851-1.301-1.851c0-1.066,2.284-2.267,6.851-3.6c4.333-1.267,7.899-1.9,10.7-1.9l0.899-0.199
		c-2.934,1.066-6.283,1.983-10.05,2.75c-2.9,0.6-4.45,1.017-4.65,1.25c-0.033-0.101-0.066-0.15-0.1-0.15c-0.066,0-0.1,0.2-0.1,0.6
		c0,1.101,0.683,1.784,2.05,2.051c1.533,0.267,2.467,1.333,2.8,3.199c0.233,1.301,0.684,2.534,1.35,3.7
		c0.9,1.634,1.983,2.483,3.25,2.55c-0.8-5.066-1.199-7.85-1.199-8.35c0-0.7,0.166-1.25,0.5-1.65l0.3-0.149
		c0.333,0.5,1.1,1.684,2.3,3.55c1.1,1.667,1.8,2.5,2.1,2.5c0.067,0,0.483-0.217,1.25-0.65c0.834-0.466,1.483-0.699,1.95-0.699
		c0.4,0,1.334,0.3,2.8,0.899c1.467,0.566,2.301,0.851,2.5,0.851l0.051,4.149c0,2.434-0.551,4.816-1.65,7.15
		c-0.566,1.2-1.2,2.517-1.9,3.95c-0.066,0.466-0.216,1.316-0.449,2.55c-0.233,1.166-0.584,2.166-1.051,3
		c-0.5,0.833-1.583,1.5-3.25,2c-1.933,0.399-3.283,0.75-4.05,1.05c1.167,0.233,2.851,0.35,5.05,0.35
		c-2.166,0.5-4.233,0.717-6.199,0.65c-1-0.1-1.617,0.033-1.851,0.4c-0.066,0.433-0.166,0.666-0.3,0.699
		c1.167,1.067,2.684,1.601,4.55,1.601c0.601,0,1.5-0.434,2.7-1.3c1.233-0.9,2.066-1.351,2.5-1.351c1.8,0,2.75,1.65,2.85,4.95
		c0.067,1.833-0.05,4.533-0.35,8.1c0,2.101,0.083,3.434,0.25,4C129.767,212.75,130.267,213.35,131,213.65z M134.15,214.3l0.1,0.05
		l-0.15-0.05H134.15z M113.2,181.2l0.649,3.45l-0.25,2.8c0,0.8,0.184,2.85,0.551,6.149c0.066,5.434,0.283,9.9,0.649,13.4
		c-1.267,1.8-1.684,2.917-1.25,3.35c0.9,1.034,1.384,1.733,1.45,2.101c0,0.333,0.083,0.616,0.25,0.85
		c0.134,0.233,0.316,0.351,0.55,0.351c-2.333,0.633-4.717,1.533-7.149,2.699c-1.733,0.834-3.184,1.25-4.351,1.25l-2.149-0.3
		c-1.067-0.366-1.917-0.934-2.551-1.7c-0.6-0.733-1.283-2.017-2.05-3.85c-0.666-1.9-1.116-3.15-1.35-3.75
		c-0.334-0.934-2.3-4.05-5.9-9.35c-2.467-5.634-4.149-9.534-5.05-11.7c-1.5-3.601-2.25-6.816-2.25-9.65c0-1.533,0.033-2.899,0.1-4.1
		c0.9-0.9,1.884-2.066,2.95-3.5c0.9-1,1.983-1.5,3.25-1.5l4.25,0.149c-0.833,1.134-1.533,3.167-2.1,6.101
		c-0.267,1.5-0.467,2.899-0.601,4.2c0,0.033-0.066,0.399-0.199,1.1c-0.067,0.2,0.1,0.3,0.5,0.3c0.3,0,1.783,2.55,4.449,7.65
		c3.267,6.233,5.217,9.883,5.851,10.95l-2.3-1.801c1.066,1.967,2.666,4.7,4.8,8.2c1.633,2.867,2.5,4.967,2.6,6.3l0.601,1.9
		c0.033-1.967-0.5-4.366-1.601-7.2c-0.633-1.533-1.717-3.783-3.25-6.75c-0.3-0.6-0.85-2.05-1.649-4.35
		c-0.801-2.334-1.334-3.783-1.601-4.351c-1.166-2.233-2.083-4.1-2.75-5.6c-1.566-3.7-2.35-6.634-2.35-8.8c0-1.7,1.066-2.95,3.2-3.75
		c1.366-0.5,2.767-0.75,4.199-0.75c0.667,0,2.067,0.083,4.2,0.25c0.066,0.733,0.217,3.483,0.45,8.25l0.15,0.7h-1.95
		c0.2-2.167,0.3-3.584,0.3-4.25c0-1.967-0.8-2.95-2.4-2.95c-0.199,0-0.517,0.149-0.949,0.45c-0.601,0.433-1.434,0.833-2.5,1.199
		c0.267,0.7,0.416,1.317,0.449,1.851c0,0.166-0.35,0.283-1.05,0.35c-0.934,0.033-1.6,0.134-2,0.3c1.334,3.167,2.167,5.067,2.5,5.7
		c2.101,4.167,3.4,6.75,3.9,7.75l0.6,0.851c0-0.434-0.05-1.5-0.149-3.2c-0.167-1.733-0.233-3.05-0.2-3.95
		c0.2,0.2,0.616,0.667,1.25,1.4c0.633,0.666,1.083,1,1.35,1c0.834,0,1.384-0.184,1.65-0.551c0.7-0.966,1.083-1.483,1.149-1.55
		c0.067,0.066,0.467,0.367,1.2,0.9c0.167,0.1,0.25,0.333,0.25,0.7c-0.066,2.767,0.15,6.199,0.65,10.3
		c0.6,5.066,1.066,8.267,1.399,9.6c0.5,2.233,0.801,3.667,0.9,4.3l0.5,1.5c0.333-1.899,0.5-3.683,0.5-5.35
		c-0.233-10.3-0.35-17.184-0.35-20.65c0.466-1.733,0.55-3.033,0.25-3.899c-0.567-1.601-2.851-2.2-6.851-1.8
		c0.367-0.867,0.816-1.45,1.351-1.75c0.366-0.167,0.949-0.25,1.75-0.25c0.433,0,0.883,0.283,1.35,0.85
		C111.6,180.45,112.333,180.934,113.2,181.2z M95.1,168.4c0.7,0.166,1.233,0.333,1.601,0.5l0.1-0.051
		c0.066,0.067,0.101,0.301,0.101,0.7c-0.2,1.033-1.267,2.267-3.2,3.7c0.333-0.467,0.85-1.184,1.55-2.15
		C95.717,170.2,95.667,169.3,95.1,168.4z M93.1,195.7c3.534,4.934,5.45,7.649,5.75,8.149l0.7,0.45c0.101,0,0.15-0.333,0.15-1
		c0-5.366-1.233-9.883-3.7-13.55c-1.333-1.733-2.3-2.983-2.9-3.75c-1-1.333-1.649-2.55-1.949-3.65v7.15
		C91.184,191.833,91.833,193.9,93.1,195.7z M146.7,162.1c0.366,0.434,1.083,2,2.149,4.7c-0.733-0.6-1.25-1.033-1.55-1.3
		c-0.467-0.434-0.7-1.15-0.7-2.15L146.7,162.1z M133.1,177.9c0-0.233-0.017-0.45-0.05-0.65c0-0.533,0.033-0.884,0.101-1.05
		L133.1,177.9z M142.4,197.9c0.3,0.767,0.55,1.316,0.75,1.649c0.699-0.399,1.083-1.166,1.149-2.3c0.066-1.434-0.434-3.333-1.5-5.7
		l-0.649-1.2c0,1.667-0.051,3.7-0.15,6.101C142,196.65,142.134,197.134,142.4,197.9z"/>
	<path style="fill-rule:evenodd;clip-rule:evenodd;fill:#685F57;" d="M90,45.55c1.3,2.434,1.884,3.95,1.75,4.55
		c-0.134,0.733,0.1,1.833,0.7,3.3c-0.3,0.467-0.517,0.767-0.65,0.9c-0.3,0.3-0.666,0.45-1.1,0.45c-1.267,0-2.851-1.433-4.75-4.3
		c-2.3-3.534-4.684-8.784-7.15-15.75l0.75,0.5l3.9,2.7c0.233,0.2,1.35,1.483,3.35,3.85C88.767,44.05,89.833,45.317,90,45.55z
		 M59.95,15.1l0.7-0.05c0.267,2.267,1.55,5.15,3.85,8.65c2.5,3.8,5,6.383,7.5,7.75l0.1-0.3c0.2-2.7,0.417-4.35,0.65-4.95l0.55,0.6
		l1.1,2.7v0.1c0.6,1.1,1.1,1.9,1.5,2.4l0.3,0.55c-0.967,0.4-2.15,0.633-3.55,0.7c4.167,7.7,6.75,13.167,7.75,16.4
		c0.767,2.4,1.35,3.9,1.75,4.5c2.633,1.267,4.05,3.5,4.25,6.7c0.1,1.367,0.316,2.283,0.649,2.75c0.533,0.733,1.617,1.1,3.25,1.1
		c0.566,0,1.783-0.167,3.65-0.5l0.2,0.9c-0.9,0.333-1.584,0.583-2.051,0.75c-0.866,0.267-1.616,0.4-2.25,0.4
		c-1.433,0-2.767-1.517-4-4.55c-1.267-3.067-2.433-4.6-3.5-4.6c-0.399,0-0.633,0.083-0.699,0.25c0.066,0.167,0.083,0.25,0.05,0.25
		c0.133,2,0.1,3.4-0.101,4.2c-0.166,0.767-0.55,1.3-1.149,1.6c0.967-4.633,0.149-9.283-2.45-13.95c-3.667-5.4-6.3-9.9-7.9-13.5
		c-2.033-2.5-3.817-4.883-5.35-7.15C61.75,24.433,60.15,19.867,59.95,15.1z M96.6,68.75c1.434,3.3,2.25,5.45,2.45,6.45
		c0.134,0.867,0.351,2.867,0.65,6l0.05,1.25c-5.4,0.233-9,1.066-10.8,2.5c-1.033,0.833-1.55,2.117-1.55,3.85
		c0,0.4,0.466,1.317,1.399,2.75c-1.366,0.534-2.3,0.967-2.8,1.3c-0.9,0.566-1.35,1.683-1.35,3.35l9.449,28.55
		c-4-4.9-7.183-11.116-9.55-18.65c-1.767-7.267-2.899-11.65-3.399-13.15l-0.7,0.45c-0.467,0.5-0.983,1.567-1.55,3.2
		c-0.534,1.6-0.801,2.75-0.801,3.45c0,0.133-0.216,3.617-0.649,10.45l-0.101-1.55c-0.233-2.967-0.616-5.05-1.149-6.25
		c-0.434-0.967-1.017-1.45-1.75-1.45c-0.434,0-1,0.4-1.7,1.2c-0.8,0.966-1.15,2-1.05,3.1l-0.35-1.35c0.2-3.233,0.117-5.35-0.25-6.35
		l0.05,21.75l-0.05-0.85c-0.233-2.4-0.45-5.033-0.65-7.9c-0.034,0.667-0.067,1.417-0.1,2.25c-0.1,3.034,0.017,5.634,0.35,7.801
		c0.6,4.1,1.883,7.483,3.85,10.149c1.034,1.4,2.316,3.134,3.851,5.2c-4.967-1.2-8.367-6.6-10.2-16.2c-1.4-12.1-2.733-20.883-4-26.35
		c-1,0.133-2.017,1.167-3.05,3.1c-0.9,1.633-1.35,2.85-1.35,3.65L59.15,99c-0.767-1.267-1.767-2.55-3-3.85H56.1
		c-0.067-1.133-0.267-2.283-0.6-3.45l-0.15-0.8c1.2,0.2,3.783,0.3,7.75,0.3l-0.45-0.85c0.333,0.566,1.383,0.9,3.15,1
		c1.833,0.133,3.05,0.617,3.65,1.45c0.167,0.233,0.3,1.65,0.4,4.25c0.1,2.667,0.383,4.367,0.85,5.1l0.15-0.8
		c-1.367-6.067,0.333-10.483,5.1-13.25c2.033-1.167,7.35-2.8,15.95-4.9L79.6,83.25l2.65-0.55c-3.267-0.233-6.15-0.017-8.65,0.65
		c-0.767,0.2-1.45,0.367-2.05,0.5c0.567-0.2,0.95-0.483,1.15-0.85c0.566-1.033,2.933-1.85,7.1-2.45c-1.1-0.966-2.05-1.8-2.85-2.5
		c-1.5-1.333-2.617-2.033-3.35-2.1c0,0.1,0.333,1.733,1,4.9c-0.033,0.3-0.383,0.283-1.05-0.05c-0.367-0.333-1.066-1.216-2.1-2.65
		c-1.067-1.433-2.567-3.066-4.5-4.9c-1.133-1.067-2.75-3.6-4.85-7.6c-2.633-5.033-4.7-8.633-6.2-10.8l12.75,15l1.85,0.5
		c-1.633-2.7-3.267-5.184-4.9-7.45c-3.1-4.367-7.283-8.566-12.55-12.6c-1.367-1.066-2.583-2.117-3.65-3.15
		c5.333,2.567,10.184,6.45,14.55,11.65c1.833,2.2,3.283,3.667,4.35,4.4c1.667,1.167,3.7,1.75,6.1,1.75c1,0,1.966-0.25,2.9-0.75
		c1.066-0.567,1.65-1.25,1.75-2.05l-0.55-0.1c0.233-0.933,0.483-2.6,0.75-5c0.066,0.1,0.167,0.317,0.3,0.65
		c0.101,0.2,0.184,0.3,0.25,0.3l0.101,2.55c0,1.434-0.867,3.434-2.601,6c-1.833,2.667-3.433,4.1-4.8,4.3l0.85,0.2
		c2.3,0.233,4.016,1.883,5.15,4.95c0.6,1.533,1.116,3.033,1.55,4.5c0.134,0,1.5-0.05,4.101-0.15c2.466-0.133,4.149-0.184,5.05-0.15
		c-1.9-3.4-3.983-6.4-6.25-9c-1.5-1.733-2.25-2.967-2.25-3.7c0-0.8,0.35-1.2,1.05-1.2c1,0,1.55-0.5,1.65-1.5
		c0-1.667,0.1-3.133,0.3-4.4c0.2,0.1,0.467,0.267,0.8,0.5c0.267,0.167,0.45,0.25,0.55,0.25c-0.566,2.934-0.166,4.934,1.2,6
		c1,0.767,2.616,1.033,4.85,0.8c-1.366,0.333-2.133,0.517-2.3,0.55c-0.066,0.033-0.3,0.217-0.7,0.55c-0.3,1.2,0.017,2.25,0.95,3.15
		c0.767,0.733,1.517,1.1,2.25,1.1c1.2,0,1.95-1.4,2.25-4.2c0.634,0.3,1.3,0.517,2,0.65c0.101,0.167,0.15-0.083,0.15-0.75L95.6,67.5
		L96.6,68.75z M92.5,82.25l2.1,0.05L94,81.85L92.5,82.25z M93.85,81.75c-0.833-0.6-1.683-0.9-2.55-0.9c-0.366,0-0.767,0.133-1.2,0.4
		c-0.566,0.333-1.083,0.567-1.55,0.7L93.85,81.75z M139.9,154.3c-1.267,0.634-3.25,1.084-5.95,1.351
		c-2.467,0.133-3.733,0.199-3.8,0.199l2.149-1.25c1.5-0.833,2.45-1.25,2.851-1.25c0.267,0,0.616,0.15,1.05,0.45
		c0.6,0.134,1.583-0.166,2.95-0.899l-0.95-0.051c-2.5-0.033-4.3,0.101-5.4,0.4c-1.033,0.267-1.95,0.833-2.75,1.7
		c0.066,0,0.017,0.1-0.149,0.3c-0.167,0.2-0.367,0.384-0.601,0.55l0.75-0.85c-0.399,0-1.233,0.149-2.5,0.45
		c-1.233,0.3-2.017,0.449-2.35,0.449c-0.101,0-0.417-0.216-0.95-0.649c-0.533-0.467-1.1-0.7-1.7-0.7c-1.767,0-3.967,0.333-6.6,1
		c-2.601,0.767-4.267,1.217-5,1.35l-0.351-0.05l0.101-6.85c0.233,0.233,0.533,0.434,0.899,0.6c0.301,0.167,0.483,0.25,0.551,0.25
		c-0.034-1.5-0.534-4.133-1.5-7.899c-0.967-3.5-1.467-5.317-1.5-5.45l1.149,0.95c2,1.333,3.65,3.8,4.95,7.399
		c0.667,1.867,1.3,3.783,1.9,5.75l0.149-0.1c0.101-0.434,0.533-1.3,1.3-2.601c0.367,0.034,0.983,0.284,1.851,0.75
		c0.833,0.5,1.3,0.75,1.399,0.75c0.334,0,0.65-0.133,0.95-0.399c0.033-0.066,0.3-0.384,0.8-0.95c0.534,0.4,1.317,0.816,2.351,1.25
		c0.5-0.434,0.75-1.05,0.75-1.85c0-0.634-0.65-2.784-1.95-6.45c-1.333-3.667-2.05-5.65-2.15-5.95c0.267,0.2,1.5,1.417,3.7,3.65
		c2.3,2.333,3.566,3.666,3.8,4l0.051-0.851c-0.034-0.267-0.4-1.467-1.101-3.6c-0.7-2.167-1.116-3.367-1.25-3.601l1,1
		c0.867,0.667,1.417,1.067,1.65,1.2c0.633,0.4,1.166,0.601,1.6,0.601c0.4,0,0.65-0.101,0.75-0.301c0.033-0.1,0.066-0.283,0.101-0.55
		l0.1-0.8c0.066-0.733-0.55-1.95-1.85-3.65c-1.233-1.6-2.567-3.017-4-4.25l0.75-0.149c2,1,4.449,4.7,7.35,11.1
		c2.6,5.733,4.033,9.783,4.3,12.15l0.25,1.95L139.9,154.3z M100.4,86.55c0.533,4.5,3.149,10.417,7.85,17.75
		c7.4,11.5,11.8,18.584,13.2,21.25l0.399,0.601v0.05c-2.233,2.166-4.633,3.684-7.199,4.55c-4.334,1.233-8.784,2.667-13.351,4.3
		c1.267,1.867,2.217,4.434,2.851,7.7c0,0.667-0.034,2.233-0.101,4.7c-0.133-0.934-0.717-2.15-1.75-3.65
		c1.634,2.9,2.45,6.134,2.45,9.7c0,0.667-0.083,1.417-0.25,2.25l-0.4-0.75c-0.733-1.434-2.366-5.517-4.899-12.25
		c-1.667-4.333-2.967-6.5-3.9-6.5c-0.399,0-1.467,0.167-3.2,0.5l-2.449,0.45c0.8,1.2,1.3,2,1.5,2.399
		c0.166,0.267,0.466,0.817,0.899,1.65l-0.45-0.45c-0.533-0.366-1.149-0.633-1.85-0.8l0.15,1c0.399,1.233,0.933,2.7,1.6,4.4
		c-0.934-1.767-2.167-3.334-3.7-4.7c-2.733-1.767-4.133-2.65-4.2-2.65c-0.233,0-0.883,0.267-1.949,0.8
		c-2.034,0.967-3.7,1.733-5,2.301c-2.234,1-4.534,1.85-6.9,2.55c-2.133,0.6-3.283,0.95-3.45,1.05l-2.05-3.6
		c-0.933-3.167-1.5-5.017-1.7-5.551c-0.033-0.1-0.933-2.166-2.7-6.199c-0.067-0.067-0.4-0.851-1-2.351c-0.567-1.5-0.9-2.434-1-2.8
		c-0.2-0.9-0.3-4.467-0.3-10.7l0.05-8.15c0.1,5.633,1.617,12.267,4.55,19.9c3.033,7.8,5.55,11.7,7.55,11.7
		c2.2,0,3.65,0.25,4.35,0.75c0.7,0.467,1.6,0.7,2.7,0.7c1.3,0,3.316-0.25,6.05-0.75l-1.399-0.3l-1.25-0.051l7.5-2
		c0.199,0.167,1.216,0.067,3.05-0.3c1.833-0.366,2.816-0.5,2.95-0.399c-0.4-0.334-0.534-0.584-0.4-0.75
		c0.066-0.067,0.167-0.117,0.3-0.15c0.167,0.233,0.4,0.3,0.7,0.2c3.566,2.866,5.667,4.434,6.3,4.7l-0.05-0.25
		c-0.866-2-1.3-3.051-1.3-3.15c0-0.3,0.434-0.75,1.3-1.35c0.667-0.467,1.434-0.9,2.3-1.301l-0.25-0.05
		c6.767-1.467,10.184-2.217,10.25-2.25l-1.149,0.05c-0.4,0.034-1.983,0.134-4.75,0.301c-2.067,0.166-3.334,0.216-3.801,0.149
		l0.051-4.3c0.267,0.233,1.083,0.934,2.449,2.1c1.301,1.101,2.117,1.684,2.45,1.75c0.101-0.066,0.15-0.433,0.15-1.1
		c-0.5-1.667-1.351-3.083-2.55-4.25l0.1,0.3c0,0.167,0.116,0.634,0.35,1.4l-0.199-0.15c-3.567-0.366-7.051-4.083-10.45-11.149
		c-3.233-6.7-5.533-14.55-6.9-23.55l0.5,1.25c0.334,3.833,2.8,9.566,7.4,17.2c1.633,2.767,3.1,5,4.399,6.7
		c1.233,1.667,1.684,2.017,1.351,1.05c-0.033-0.399-0.75-2.633-2.15-6.7c-1.366-3.966-2.033-6.75-2-8.35
		c4.033,4.833,7.15,8.8,9.351,11.9c1.1,1.566,1.833,2.683,2.199,3.35l0.2-0.3c0.066,0.066,0.101-0.233,0.101-0.9
		c0-2.434-1.051-5.3-3.15-8.6c-2.667-4.267-4.033-6.467-4.1-6.6l1.25,1.05c2.1,1.934,3.216,2.95,3.35,3.05
		c1.1,0.933,2.066,1.533,2.9,1.8c-2.834-5-6-9.983-9.5-14.95c-1.934-2.767-2.9-4.75-2.9-5.95c0-0.4,0.066-0.684,0.2-0.85
		c0.066-0.1,0.133-0.15,0.2-0.15L100.4,86.55z M84,94.25c-0.434-0.5-0.967-0.883-1.6-1.15c-0.4-0.167-0.7-0.25-0.9-0.25
		c0.533,0.633,1.066,1.15,1.6,1.55c0.301,0.233,0.617,0.45,0.95,0.65L84,94.25z M55.75,15.5c0.567,1,1.667,3.117,3.3,6.35
		c1.6,3.133,3.133,5.983,4.6,8.55c1.333,2.333,3.817,5.7,7.45,10.1c3.133,4.467,5.067,9.35,5.8,14.65
		c0.466,1.833-0.784,0.233-3.75-4.8c-2.933-3.6-4.4-5.5-4.4-5.7c-1.233-2.2-3.933-6.217-8.1-12.05c-3.6-5.067-5.717-7.967-6.35-8.7
		l0.4,1.5c0.867,2.033,2.183,4.7,3.95,8c1.267,2.4,1.967,4.067,2.1,5l-0.85-1.05c-1.467-1.133-3-3.1-4.6-5.9
		c-2.2-3.8-3.566-6.05-4.1-6.75c-0.6-0.8-1.784-2.083-3.55-3.85c-1.467-1.467-2.3-2.45-2.5-2.95c-0.867-1.967-2-4.883-3.4-8.75
		c-1.067-2.933-1.75-4.6-2.05-5l0.1,0.65c0.034,0.133,0.65,2.55,1.85,7.25c1.133,4.367,1.7,6.85,1.7,7.45
		c-1.8-2.033-3.717-5.333-5.75-9.9c-1.7-3.833-2.817-6.917-3.35-9.25L36.4,0h2.1c0.867,0.033,1.867,0.317,3,0.85
		c1.267,0.6,2.133,1.3,2.6,2.1c0.167,0.433,0.683,2.066,1.55,4.9c0.6,1.967,1.2,3.45,1.8,4.45C49.15,15.3,51.917,16.367,55.75,15.5z
		 M70.35,86.55c-0.533-0.167-3.35-2.583-8.45-7.25l0.3,0.75c0.267,0.467,1.35,1.65,3.25,3.55c1.7,1.733,2.55,2.75,2.55,3.05
		c0,0.667-0.05,0.8-0.15,0.4l-0.35,0.2c-0.2-0.3-1.883-2.267-5.05-5.9c-2.1-2.467-3.483-4.65-4.15-6.55
		c-0.566-1.633-1.933-3.55-4.1-5.75c-3.367-3.433-5.983-6.367-7.85-8.8c-2.167-2.833-4.617-7.083-7.35-12.75
		c-3.9-8.067-5.733-14.5-5.5-19.3c0.033-0.967-0.283-1.8-0.95-2.5c-1.033-0.8-1.85-1.534-2.45-2.2c-2.567-2.7-4.2-7.517-4.9-14.45
		l0.65-1.35c1.167,1.267,2.316,3,3.45,5.2c0.6,1.133,1.2,2.333,1.8,3.6c1.1,2.867,2.883,6.217,5.35,10.05
		c0.267,0.4,1.833,1.45,4.7,3.15c2.7,1.566,4.633,3.55,5.8,5.95l1.65,3.2c0.267,0.633,0.433,0.9,0.5,0.8c0.5,1,0.917,1.95,1.25,2.85
		c1,1.467,4.367,4.267,10.1,8.4L49.3,47.05c-2.3-2.3-3.917-4.6-4.85-6.9c-0.6-1.767-1.067-3.083-1.4-3.95
		c-0.6-1.434-1.4-2.717-2.4-3.85L43.75,48c0.967,1.4,2.3,3.333,4,5.8c1.7,2.534,4.4,6.434,8.1,11.7
		c2.867,4.333,4.933,8.083,6.2,11.25c0.467,0.567,0.983,1.183,1.55,1.85c3.1,3.733,4.883,5.6,5.35,5.6c0.6,0,1.15-0.034,1.65-0.1
		c-0.867,0.2-1.367,0.3-1.5,0.3C69.6,85.1,70.017,85.817,70.35,86.55z M37.4,22.4c1.767,1.267,3.1,2.133,4,2.6
		c0.5,0.333,1.717,1.517,3.65,3.55c-1-0.5-2.45-1.55-4.35-3.15C38.967,23.967,37.867,22.967,37.4,22.4z M30.35,1.95
		c1.267-0.6,2.5-1.117,3.7-1.55c-0.6,4.667-0.933,7.8-1,9.4L30.35,1.95z M20.4,24.7c0.1-0.434-0.083-1.633-0.55-3.6
		C19.283,18.8,19,16.783,19,15.05c0-0.4,0.067-0.95,0.2-1.65c0.1-0.633,0.15-0.967,0.15-1l2.25,0.05v0.05
		c0.2,1.067,0.733,2.45,1.6,4.15c0.5,1,1.367,2.684,2.6,5.05c2.267,4.867,3.4,9.95,3.4,15.25l-0.05,2.15l-0.45-1.9
		c-0.267-0.7-1.7-2.967-4.3-6.8C21.8,26.667,20.467,24.767,20.4,24.7z M17.65,31.25l-0.4-5.2l-0.1-2.15
		c3.267,1.233,5.767,4.15,7.5,8.75c1.434,3.8,2.617,9.7,3.55,17.7l-0.85-1.45c-1.967-3.4-3.45-6.017-4.45-7.85
		C21.067,37.85,19.317,34.583,17.65,31.25z M32.25,44.65c-1.8-5.133-2.5-11.833-2.1-20.1c2.467,14.667,5.7,24.667,9.7,30
		c1.033,1.367,2.783,3.167,5.25,5.4c2.333,2.066,4.15,4.05,5.45,5.95c7.2,10.533,12.1,17.25,14.7,20.15
		c-0.7,0.467-1.883,0.917-3.55,1.35c-1.6,0.4-2.883,0.6-3.85,0.6s-1.75-0.25-2.35-0.75c0.4-0.467,0.867-0.9,1.4-1.3
		c0.167-0.133,0.25-0.383,0.25-0.75c0-0.667-0.883-1.983-2.65-3.95c-2.333-2.633-3.65-4.167-3.95-4.6L50.4,77.3
		c0.133,0.967,0.917,2.583,2.35,4.85l-0.6-0.65c-2.867-2.267-4.667-4.133-5.4-5.6c-0.664-1.294-1.313-4.027-1.95-8.2
		c0.156,1.167-0.094,1.75-0.75,1.75c-0.633,0-1.05-0.217-1.25-0.65c-0.7-1.633-2.367-4.033-5-7.2c-0.566-0.667-1.05-2.067-1.45-4.2
		c-0.333-2.533-0.617-4.383-0.85-5.55C34.267,49.717,33.183,47.317,32.25,44.65z M48.8,57c-2.533-2.833-3.883-4.383-4.05-4.65
		c1.033,4.633,2.633,7.95,4.8,9.95c1.367,1.3,2.767,1.95,4.2,1.95l-0.15-0.5C53,62.283,51.4,60.033,48.8,57z M70.65,86.6
		c1.467-0.7,2.967-1.367,4.5-2C74.15,85.6,72.65,86.267,70.65,86.6z M69.65,97.2c-0.833-0.034-1.533-0.167-2.1-0.4
		c1.034,1.5,1.817,3.15,2.35,4.95C69.8,100.283,69.717,98.767,69.65,97.2z M65.65,113.25l-0.7-1.05c-1.6-3.134-2.55-5.15-2.85-6.05
		c-0.8-2.4-0.95-4.833-0.45-7.3l0.85,1.35C64.4,105.9,65.45,110.25,65.65,113.25z M84.85,167.95l-0.55,0.3
		c5.634-0.9,8.917-1.6,9.851-2.1l-0.601-0.25c0.101-0.067-0.184-0.101-0.85-0.101l-1.55,0.05
		C87.95,166.816,85.85,167.517,84.85,167.95z M103.6,161c-0.466,0.233-1.433,0.917-2.899,2.05c-1.566,1.167-2.533,1.983-2.9,2.45
		c0.267,0.167,1.233,0.517,2.9,1.05c1.467,0.467,2.366,0.9,2.7,1.3c0.3,0.4,1.066,1.483,2.3,3.25c1.3,1.667,2.467,2.717,3.5,3.15
		c0.5,1.333,1.767,3.316,3.8,5.95l0.2,1c-0.867-0.267-1.601-0.75-2.2-1.45c-0.467-0.566-0.917-0.85-1.35-0.85
		c-0.801,0-1.384,0.083-1.75,0.25c-0.534,0.3-0.983,0.883-1.351,1.75c4-0.4,6.283,0.199,6.851,1.8c0.3,0.866,0.216,2.166-0.25,3.899
		c0,3.467,0.116,10.351,0.35,20.65c0,1.667-0.167,3.45-0.5,5.35l-0.5-1.5c-0.1-0.633-0.4-2.066-0.9-4.3
		c-0.333-1.333-0.8-4.533-1.399-9.6c-0.5-4.101-0.717-7.533-0.65-10.3c0-0.367-0.083-0.601-0.25-0.7
		c-0.733-0.533-1.133-0.834-1.2-0.9c-0.066,0.066-0.449,0.584-1.149,1.55c-0.267,0.367-0.816,0.551-1.65,0.551
		c-0.267,0-0.717-0.334-1.35-1c-0.634-0.733-1.05-1.2-1.25-1.4c-0.033,0.9,0.033,2.217,0.2,3.95c0.1,1.7,0.149,2.767,0.149,3.2
		l-0.6-0.851c-0.5-1-1.8-3.583-3.9-7.75c-0.333-0.633-1.166-2.533-2.5-5.7c0.4-0.166,1.066-0.267,2-0.3
		c0.7-0.066,1.05-0.184,1.05-0.35c-0.033-0.533-0.183-1.15-0.449-1.851c1.066-0.366,1.899-0.767,2.5-1.199
		c0.433-0.301,0.75-0.45,0.949-0.45c1.601,0,2.4,0.983,2.4,2.95c0,0.666-0.1,2.083-0.3,4.25h1.95l-0.15-0.7
		c-0.233-4.767-0.384-7.517-0.45-8.25c-2.133-0.167-3.533-0.25-4.2-0.25c-1.433,0-2.833,0.25-4.199,0.75
		c-2.134,0.8-3.2,2.05-3.2,3.75c0,2.166,0.783,5.1,2.35,8.8c0.667,1.5,1.584,3.366,2.75,5.6c0.267,0.567,0.8,2.017,1.601,4.351
		c0.8,2.3,1.35,3.75,1.649,4.35c1.533,2.967,2.617,5.217,3.25,6.75c1.101,2.834,1.634,5.233,1.601,7.2l-0.601-1.9
		c-0.1-1.333-0.967-3.433-2.6-6.3c-2.134-3.5-3.733-6.233-4.8-8.2l2.3,1.801c-0.634-1.067-2.584-4.717-5.851-10.95
		c-2.666-5.101-4.149-7.65-4.449-7.65c-0.4,0-0.567-0.1-0.5-0.3c0.133-0.7,0.199-1.066,0.199-1.1c0.134-1.301,0.334-2.7,0.601-4.2
		c0.566-2.934,1.267-4.967,2.1-6.101L89.3,168.2c-1.267,0-2.35,0.5-3.25,1.5c-1.066,1.434-2.05,2.6-2.95,3.5
		c0.034-0.5,0.067-0.967,0.101-1.4c0.066-2.967,0.05-5-0.05-6.1h0.05c6.467-0.334,11.467-1.351,15-3.05
		c0.833-0.4,1.783-0.884,2.85-1.45C101.884,160.866,102.733,160.8,103.6,161z M106.6,160.8c0.434-0.1,1.434-0.649,3-1.649
		c1.534-0.967,2.334-1.45,2.4-1.45c2.1-0.3,5.25-0.533,9.45-0.7c2.8-0.1,4.967-0.15,6.5-0.15c0.899,0,1.633,0.25,2.2,0.75
		c0.733,0.667,1.3,1.851,1.699,3.551c1.634,6.899,2.967,11.199,4,12.899c0.467,0.8,0.7,2,0.7,3.601c0,0.933-0.233,4.216-0.7,9.85
		c-0.466,5.667-0.699,9.2-0.699,10.6c0,2.2,0.366,3.967,1.1,5.301c0.934,1.733,1.483,3.05,1.65,3.949
		c0.267,1.534,1.216,2.733,2.85,3.601c0.9,0.5,2.35,1.1,4.35,1.8l-1.449-0.2c-2.667-0.366-4.284-0.55-4.851-0.55
		c-1.366,0-2.25,0.25-2.649,0.75c-0.2,0.667-0.417,1.167-0.65,1.5c-0.033-1.267-0.2-3.35-0.5-6.25c-0.267-2.767-0.45-4.25-0.55-4.45
		l-0.5,1.3c-0.334,0.934-0.5,1.601-0.5,2c0,0.667,0.233,3.15,0.7,7.45H134.1c-0.166-0.066-0.35-0.116-0.55-0.149
		c0.033-1.7-0.066-4.184-0.3-7.45c-0.267-4.334-0.467-8.566-0.6-12.7c-0.233,0.066-0.45-0.033-0.65-0.3
		c-0.267-0.367-0.583-1.117-0.95-2.25c-0.467,0.2-1.116,0.6-1.95,1.2c-0.666,0.533-1.133,0.85-1.399,0.949l1.05-0.35
		c0.866-0.267,1.5-0.4,1.9-0.4c0.233,0,0.716,2.65,1.449,7.95c0.733,5.233,1.101,8.5,1.101,9.8c0,1-0.017,1.667-0.05,2
		c-0.134,0.834-0.417,1.25-0.851,1.25h-0.05c-0.4-0.066-0.816-0.133-1.25-0.199c-0.733-0.301-1.233-0.9-1.5-1.801
		c-0.167-0.566-0.25-1.899-0.25-4c0.3-3.566,0.417-6.267,0.35-8.1c-0.1-3.3-1.05-4.95-2.85-4.95c-0.434,0-1.267,0.45-2.5,1.351
		c-1.2,0.866-2.1,1.3-2.7,1.3c-1.866,0-3.383-0.533-4.55-1.601c0.134-0.033,0.233-0.267,0.3-0.699c0.233-0.367,0.851-0.5,1.851-0.4
		c1.966,0.066,4.033-0.15,6.199-0.65c-2.199,0-3.883-0.116-5.05-0.35c0.767-0.3,2.117-0.65,4.05-1.05c1.667-0.5,2.75-1.167,3.25-2
		c0.467-0.834,0.817-1.834,1.051-3c0.233-1.233,0.383-2.084,0.449-2.55c0.7-1.434,1.334-2.75,1.9-3.95
		c1.1-2.334,1.65-4.717,1.65-7.15L132.6,169.9c-0.199,0-1.033-0.284-2.5-0.851c-1.466-0.6-2.399-0.899-2.8-0.899
		c-0.467,0-1.116,0.233-1.95,0.699c-0.767,0.434-1.183,0.65-1.25,0.65c-0.3,0-1-0.833-2.1-2.5c-1.2-1.866-1.967-3.05-2.3-3.55
		l-0.3,0.149c-0.334,0.4-0.5,0.95-0.5,1.65c0,0.5,0.399,3.283,1.199,8.35c-1.267-0.066-2.35-0.916-3.25-2.55
		c-0.666-1.166-1.116-2.399-1.35-3.7c-0.333-1.866-1.267-2.933-2.8-3.199c-1.367-0.267-2.05-0.95-2.05-2.051
		c0-0.399,0.033-0.6,0.1-0.6c0.033,0,0.066,0.05,0.1,0.15c0.2-0.233,1.75-0.65,4.65-1.25c3.767-0.767,7.116-1.684,10.05-2.75
		l-0.899,0.199c-2.801,0-6.367,0.634-10.7,1.9c-4.566,1.333-6.851,2.533-6.851,3.6c0,1,0.434,1.617,1.301,1.851
		c0.899,0.233,1.416,1.083,1.55,2.55c0.133,1.467,0.666,3.233,1.6,5.3c0.566,1.267,1.134,2.367,1.7,3.3
		c0.467,0.733,1.1,4.25,1.9,10.551c0.833,6.5,1.333,12.233,1.5,17.199c-0.101-0.166-0.184-0.333-0.25-0.5
		c-0.467-1.066-0.733-2.149-0.801-3.25c0.067-4.267,0.034-7.517-0.1-9.75c-0.167-3.966-1-7.433-2.5-10.399
		c-0.566-1.9-1.25-3.334-2.05-4.3c-0.834-0.767-1.417-1.317-1.75-1.65c-0.4-0.9-1.4-2.233-3-4c-1-1.1-1.5-2.733-1.5-4.9
		c0-0.733,0.366-1.583,1.1-2.55c0.101-0.166,0.55-0.7,1.351-1.6L106.6,160.8z M148.75,215.75c0.1,0,0.2,0,0.3,0l-1.1,0.45
		c-1.033,0.2-1.967,0.316-2.8,0.35h-1.801c-1.899-0.166-3.033-0.316-3.399-0.45c-0.334-0.199-0.717-0.433-1.15-0.699l-0.85-0.851
		c0.566,0.233,2.467,0.5,5.7,0.8C146.25,215.616,147.95,215.75,148.75,215.75z M145.35,160.7l1.351,1.399l-0.101,1.25
		c0,1,0.233,1.717,0.7,2.15c0.3,0.267,0.816,0.7,1.55,1.3c0.067,0.5,0.467,2.184,1.2,5.05c0.767,3.301,1.3,6.351,1.601,9.15
		c0.267,2.134,0.399,4.333,0.399,6.6c0,1.2-0.1,2.5-0.3,3.9c0-0.134-0.017-0.267-0.05-0.4c-0.2-1.333-0.584-2.683-1.15-4.05
		c-0.666-1.267-1.033-1.967-1.1-2.1c-0.5,0.6-0.816,0.899-0.95,0.899c-0.066,1.867-0.217,4.551-0.45,8.051
		c-0.366,4.899-0.684,7.883-0.95,8.949c0.301-8.399,0.483-14.833,0.551-19.3c0.066-8.2-0.967-12.85-3.101-13.95
		c-0.434,1.634-0.967,2.5-1.6,2.601c-0.767-0.167-1.367-0.25-1.8-0.25V174c0.666,4.866,1,7.583,1,8.15c0,5.133-0.084,8-0.25,8.6
		c-0.101,0.533-0.483,1.25-1.15,2.15c0.1-2.034-0.033-4.934-0.4-8.7c-0.433-3.967-0.916-6.7-1.449-8.2
		c-0.634-1.7-1.117-3.033-1.45-4c-0.566-1.733-0.851-2.934-0.851-3.6c0-0.967,0.767-1.617,2.301-1.95
		c1.533-0.334,2.3-0.851,2.3-1.55c0-0.4-0.066-0.7-0.2-0.9c-0.167-0.233-0.25-0.384-0.25-0.45l-2.35-0.35
		c-2.134,0.066-3.233,0.1-3.301,0.1l0.101-1.35c0.333-0.033,1.684-0.351,4.05-0.95c2.033-0.5,3.434-0.75,4.2-0.75
		C144.316,160.25,144.95,160.4,145.35,160.7z M141.15,155.75l1.1,1.3c-0.4,0.2-1.267,0.483-2.6,0.851
		c-1.334,0.333-2.584,0.5-3.75,0.5c-0.4,0-0.817-0.25-1.25-0.75l-0.5-0.801c0.566,0,1.866-0.433,3.899-1.3
		C139.35,155.15,140.384,155.217,141.15,155.75z M93.1,195.7c-1.267-1.8-1.916-3.867-1.949-6.2v-7.15
		c0.3,1.101,0.949,2.317,1.949,3.65c0.601,0.767,1.567,2.017,2.9,3.75c2.467,3.667,3.7,8.184,3.7,13.55c0,0.667-0.05,1-0.15,1
		l-0.7-0.45C98.55,203.35,96.634,200.634,93.1,195.7z M95.1,168.4c0.567,0.899,0.617,1.8,0.15,2.699
		c-0.7,0.967-1.217,1.684-1.55,2.15c1.934-1.434,3-2.667,3.2-3.7c0-0.399-0.034-0.633-0.101-0.7l-0.1,0.051
		C96.333,168.733,95.8,168.566,95.1,168.4z M114.8,207c0.267,2.3,0.334,4.116,0.2,5.45c-0.066-0.367-0.55-1.066-1.45-2.101
		C113.116,209.917,113.533,208.8,114.8,207z M113.85,184.65c0.2,2.267,0.301,5.25,0.301,8.949c-0.367-3.3-0.551-5.35-0.551-6.149
		L113.85,184.65z M133.15,176.2c-0.067,0.166-0.101,0.517-0.101,1.05c0.033,0.2,0.05,0.417,0.05,0.65v0.05
		c-1.033,3.1-2,5.633-2.899,7.6c-0.533,1.167-1.334,2.816-2.4,4.95l0.45-0.15c0.333-0.166,1.116-0.733,2.35-1.699
		c0.9-0.7,1.567-1.051,2-1.051c0.4,0,0.75,0.367,1.051,1.101c0.433,1,0.683,1.55,0.75,1.649c0.133-0.866,0.199-2.05,0.199-3.55
		c0.101-3.133,0.117-5.399,0.051-6.8c-0.101-2.467-0.601-4.15-1.5-5.05V176.2z M133.15,174.95v-6.75l-0.351,6.649L133.15,174.95z
		 M142.4,197.9c-0.267-0.767-0.4-1.25-0.4-1.45c0.1-2.4,0.15-4.434,0.15-6.101l0.649,1.2c1.066,2.367,1.566,4.267,1.5,5.7
		c-0.066,1.134-0.45,1.9-1.149,2.3C142.95,199.217,142.7,198.667,142.4,197.9z M121.85,213.05c-1.233,0.033-2.416,0.101-3.55,0.2
		c-0.333-1.3-0.533-2.866-0.6-4.7c-0.101-1.666-0.2-2.633-0.3-2.899c-0.2-0.4-0.384-0.784-0.551-1.15l1.601,0.1
		c0.666,0,1.916-0.149,3.75-0.449l-0.05-0.301c2.3,0,3.816,0.167,4.55,0.5c0,0.334-0.066,0.617-0.2,0.851
		c-0.667,0.6-1.417,0.899-2.25,0.899c-1,0-1.634-0.366-1.9-1.1c-0.866,0.033-1.55,0.483-2.05,1.35c-0.399,0.733-0.6,1.467-0.6,2.2
		C119.7,209.983,120.417,211.483,121.85,213.05z"/>
	<path style="fill-rule:evenodd;clip-rule:evenodd;fill:#514943;" d="M60.45,50.9c2.833,1.767,5.216,4.434,7.15,8
		c1.467,2.7,3.183,4.05,5.15,4.05c0.7,0,1.583-0.067,2.65-0.2c1.367-0.167,2.4-0.4,3.1-0.7l0.55,0.1c-0.1,0.8-0.684,1.483-1.75,2.05
		c-0.934,0.5-1.9,0.75-2.9,0.75c-2.4,0-4.433-0.583-6.1-1.75c-1.066-0.733-2.517-2.2-4.35-4.4c-4.367-5.2-9.217-9.083-14.55-11.65
		c-0.2-0.1-0.4-0.2-0.6-0.3l0.5,0.2L60.45,50.9z M55.35,90.9c1.2-0.833,3.5-1.633,6.9-2.4l5.25-1.25l0.35-0.2
		c0.1,0.4,0.15,0.267,0.15-0.4c0-0.3-0.85-1.316-2.55-3.05c-1.9-1.9-2.983-3.083-3.25-3.55l-0.3-0.75
		c5.1,4.667,7.917,7.083,8.45,7.25l0.3,0.05c2-0.333,3.5-1,4.5-2c0.6-0.467,1.25-0.8,1.95-1c0.567-0.167,1.4-0.283,2.5-0.35
		L91.9,83.2c-8.601,2.1-13.917,3.733-15.95,4.9c-4.767,2.767-6.467,7.183-5.1,13.25l-0.15,0.8c-0.467-0.733-0.75-2.433-0.85-5.1
		c-0.1-2.6-0.233-4.017-0.4-4.25c-0.6-0.833-1.817-1.316-3.65-1.45c-1.767-0.1-2.816-0.434-3.15-1l0.45,0.85
		C59.133,91.2,56.55,91.1,55.35,90.9z M31.1,16.5c-1.167-3.133-1.967-5.633-2.4-7.5c-0.733-3.433-0.184-5.783,1.65-7.05l2.7,7.85
		l4.35,12.6c0.467,0.567,1.567,1.567,3.3,3c1.9,1.6,3.35,2.65,4.35,3.15c0.867,0.867,1.583,2.25,2.15,4.15
		c0.367,1.167,1.017,3.4,1.95,6.7c0,0.1-0.017,0.184-0.05,0.25c-0.067,0.1-0.233-0.167-0.5-0.8l-1.65-3.2
		c-1.167-2.4-3.1-4.383-5.8-5.95c-2.867-1.7-4.433-2.75-4.7-3.15C33.983,22.717,32.2,19.367,31.1,16.5z M19.35,12.4
		c0,0.033-0.05,0.367-0.15,1c-0.133,0.7-0.2,1.25-0.2,1.65c0,1.733,0.283,3.75,0.85,6.05c0.467,1.967,0.65,3.167,0.55,3.6
		c-1.1-1.133-2-2.733-2.7-4.8c-0.5-1.9-0.75-2.867-0.75-2.9l0.15-1.9c0.467-1,0.883-1.7,1.25-2.1
		C18.617,12.733,18.95,12.533,19.35,12.4z M48.8,57c2.6,3.033,4.2,5.283,4.8,6.75l0.15,0.5c-1.433,0-2.833-0.65-4.2-1.95
		c-2.167-2-3.767-5.316-4.8-9.95C44.917,52.617,46.267,54.167,48.8,57z M102.55,132.55l0.25,0.05c-0.866,0.4-1.633,0.834-2.3,1.301
		c-0.866,0.6-1.3,1.05-1.3,1.35c0,0.1,0.434,1.15,1.3,3.15l0.05,0.25c-0.633-0.267-2.733-1.834-6.3-4.7l-0.1-0.101
		c3.666-0.899,6.1-1.35,7.3-1.35C102.116,132.5,102.483,132.517,102.55,132.55z M103.6,161c1.467-0.533,2.467-0.6,3-0.2l0.551,0.4
		c-0.801,0.899-1.25,1.434-1.351,1.6c-0.733,0.967-1.1,1.816-1.1,2.55c0,2.167,0.5,3.801,1.5,4.9c1.6,1.767,2.6,3.1,3,4
		c0.333,0.333,0.916,0.884,1.75,1.65c0.8,0.966,1.483,2.399,2.05,4.3c1.5,2.967,2.333,6.434,2.5,10.399
		c0.134,2.233,0.167,5.483,0.1,9.75c0.067,1.101,0.334,2.184,0.801,3.25c0.066,0.167,0.149,0.334,0.25,0.5c0,0.134,0,0.267,0,0.4
		h0.199c0.167,0.366,0.351,0.75,0.551,1.15c0.1,0.267,0.199,1.233,0.3,2.899c0.066,1.834,0.267,3.4,0.6,4.7l-2.5,0.4
		c-0.233,0-0.416-0.117-0.55-0.351c-0.167-0.233-0.25-0.517-0.25-0.85c0.134-1.334,0.066-3.15-0.2-5.45
		c-0.366-3.5-0.583-7.967-0.649-13.4c0-3.699-0.101-6.683-0.301-8.949l-0.649-3.45l-0.2-1c-2.033-2.634-3.3-4.617-3.8-5.95
		c-1.033-0.434-2.2-1.483-3.5-3.15c-1.233-1.767-2-2.85-2.3-3.25c-0.334-0.399-1.233-0.833-2.7-1.3
		c-1.667-0.533-2.634-0.883-2.9-1.05c0.367-0.467,1.334-1.283,2.9-2.45C102.167,161.917,103.134,161.233,103.6,161z M135.5,214.25
		l-0.2,0.05l-1.05,0.05l-0.1-0.05c-0.467-4.3-0.7-6.783-0.7-7.45c0-0.399,0.166-1.066,0.5-2l0.5-1.3c0.1,0.2,0.283,1.684,0.55,4.45
		C135.3,210.9,135.467,212.983,135.5,214.25z M84.85,167.95c1-0.434,3.101-1.134,6.301-2.101l1.55-0.05
		c0.666,0,0.95,0.033,0.85,0.101l0.601,0.25c-0.934,0.5-4.217,1.199-9.851,2.1L84.85,167.95z M133.15,176.2v-1.25
		c0.899,0.899,1.399,2.583,1.5,5.05c0.066,1.4,0.05,3.667-0.051,6.8c0,1.5-0.066,2.684-0.199,3.55
		c-0.067-0.1-0.317-0.649-0.75-1.649c-0.301-0.733-0.65-1.101-1.051-1.101c-0.433,0-1.1,0.351-2,1.051
		c-1.233,0.966-2.017,1.533-2.35,1.699l-0.45,0.15c1.066-2.134,1.867-3.783,2.4-4.95c0.899-1.967,1.866-4.5,2.899-7.6v-0.05
		L133.15,176.2z M133.15,174.95l-0.351-0.101l0.351-6.649V174.95z"/>
	<path style="fill-rule:evenodd;clip-rule:evenodd;fill:#B3AA9E;" d="M56.15,95.15c0.1,1.633,0.083,5.333-0.05,11.1
		c0,2.767,0.117,5.8,0.35,9.1c0.333,4.4,0.8,7.367,1.4,8.9c0.1,0.366,0.433,1.3,1,2.8c0.6,1.5,0.933,2.283,1,2.351l-0.1,13.199
		c0,0.667,0.15,11.317,0.45,31.95l-0.85,23.55c-1.033-0.199-2.033-0.066-3,0.4c-0.3,0.134-0.85,0.5-1.65,1.1
		c-0.367,0.5-0.684,1.15-0.95,1.95c-0.033-0.5-0.167-3.25-0.4-8.25c-0.2-4.967-0.3-7.717-0.3-8.25c0-1.467,0.367-3.517,1.1-6.149
		c0.7-2.634,1.05-4.017,1.05-4.15c0.133-9.333-0.1-15.184-0.7-17.55c-0.133-0.467-0.75-1.667-1.85-3.601
		c-0.833-1.5-1.25-3.267-1.25-5.3c0-1.6,0.184-3.333,0.55-5.2c0.6-3.1,1-5.366,1.2-6.8c1.133-8.434,1.7-22.05,1.7-40.85
		c0-0.6-1.184-3.05-3.55-7.35c1.633,1.133,2.733,1.967,3.3,2.5c0.433,0.367,0.733,0.733,0.9,1.1c0.333,1.167,0.533,2.316,0.6,3.45
		H56.15z M35.5,73.35c-1.167,38.333-1.75,58.233-1.75,59.7v0.101c-0.067,0.5-0.1,2.616-0.1,6.35c0,1.967,0.017,3.9,0.05,5.8
		c-0.1-0.2-0.317-0.434-0.65-0.7c-0.2-0.199-0.3-0.483-0.3-0.85l0.45-8.5c0,0.066-0.95,3.4-2.85,10l-0.3-0.05
		c-0.3-0.3-0.6-0.8-0.9-1.5c0.067-2.5,0.033-4.75-0.1-6.75l-0.3,5.3c-0.4-2.233-0.7-3.983-0.9-5.25c-0.333-2.3-0.5-4.616-0.5-6.95
		c0.3-8.934,0.45-15.899,0.45-20.899c-0.133-11.167-0.2-17.9-0.2-20.2c-0.033-2.7,0.4-7.034,1.3-13l0.2-0.05
		c0.233-0.066,0.55-0.1,0.95-0.1c0.434,0,0.767,0.067,1,0.2c0.133,0.1,0.35,0.283,0.65,0.55c0.233-0.133,0.4-0.8,0.5-2
		c0.033-0.566,0.083-1.9,0.15-4L35.5,73.35z M13.95,26.3c-0.034,0.4-0.15,2.534-0.35,6.4c-0.233,4.566-0.517,8.167-0.85,10.8
		l-0.3,2.15c0.033-2.267-0.017-3.95-0.15-5.05c0.633-6.7,0.95-11.434,0.95-14.2h0.1l0.6-0.15V26.3z M11.2,36.95
		c-0.833-0.3-1.55-0.583-2.15-0.85c-1.133-0.434-1.917-1.067-2.35-1.9c-0.034-0.067-0.067-0.117-0.1-0.15l1.5-0.85l2.15-0.75
		l0.95-0.35V36.95z M23.05,72.05c0.5,16.267,0.267,31.917-0.7,46.95c-0.567,8.634-1.5,21.967-2.8,40l-1.45-0.25
		c0.066-38.233,0-60.517-0.2-66.85c-0.533-17.8-2.15-26.7-4.85-26.7c-0.333,0-0.867,0.15-1.6,0.45c-0.733,0.267-1.267,0.4-1.6,0.4
		c-0.633,0-1.55-0.7-2.75-2.1c-1.333-1.567-2-3.083-2-4.55c0-0.367,0.183-1.133,0.55-2.3c0.533-1.533,1.117-2.517,1.75-2.95
		c1.367,0.633,1.983,2.217,1.85,4.75c-0.133,2.233,0.25,3.35,1.15,3.35c0.667,0,0.883-0.017,0.65-0.05
		c0.333-0.333,0.6-0.883,0.8-1.65c0.367-0.633,1.283-0.95,2.75-0.95c1.133,0,2-0.434,2.6-1.3c0.566-0.9,1.083-1.35,1.55-1.35
		c0.667,0,1.167,0.333,1.5,1c0,10.667-0.017,20.767-0.05,30.3c0,4.367,0.1,7.133,0.3,8.3l0.25-1.2c0.733-5.767,1.283-10.767,1.65-15
		C22.7,76.417,22.917,73.65,23.05,72.05z M2.65,165.2L2.3,173c-0.733-2.3-1.333-4.65-1.8-7.05c-0.333-1.867-0.5-3.167-0.5-3.9
		l0.05-21.6c-0.066-6.334-0.05-10.233,0.05-11.7c0.1-1.8,0.633-3.467,1.6-5c0.033,1.066,0.167,7.967,0.4,20.7
		C2.233,152.283,2.417,159.2,2.65,165.2z M13.3,176.6c0,0.233,0,0.467,0,0.7c-1.1,0.101-2,0.167-2.7,0.2
		c-0.133,0.033-0.267,0.05-0.4,0.05c0.533-11.267,0.816-17.783,0.85-19.55l0.2,1.1c0.133,0.767,0.517,3,1.15,6.7
		C12.933,169.566,13.233,173.167,13.3,176.6z M77.8,174.85L77.75,211.9c-2.233,0.066-4.05-0.101-5.45-0.5
		c-0.867-12.867-1.417-21.184-1.65-24.95c-0.367-5.533-0.816-18.316-1.35-38.351c0.534,1.567,0.817,3.284,0.85,5.15
		c0.033-0.4,0.167-0.7,0.4-0.9c0.1-0.1,0.2-0.166,0.3-0.199c0.233,0.399,0.467,1.383,0.7,2.949c0.233,1.601,0.483,2.617,0.75,3.051
		c0.133-0.134,0.284-0.384,0.45-0.75c0.167-0.267,0.45-0.4,0.85-0.4c0.566,0,1.05,0.767,1.45,2.3c0.4,1.5,0.883,4.45,1.45,8.851
		c0,7.199-0.066,13.533-0.2,19c0.267-3.101,0.517-5.5,0.75-7.2C77.45,177.384,77.7,175.684,77.8,174.85z M33.7,148.85
		c-0.333,6.367,0.383,13.9,2.15,22.601c0.867,4.399,1.833,8.399,2.9,12l-0.2,2.55c0-1.866-0.716-3.45-2.15-4.75
		c-1.467-1.333-3.233-2-5.3-2l-2.05-0.15c0.5-4.066,0.75-7.333,0.75-9.8c0-3.633,0.483-6.083,1.45-7.35
		C32.15,160.783,32.967,156.417,33.7,148.85z M69.9,159.45l0.25,11.8v-18C69.983,155.35,69.9,157.417,69.9,159.45z M97.55,211.75
		l-0.8,5.55c-0.566,0.033-1.1,0.084-1.6,0.15c-1.9,0.1-3.301,0.066-4.2-0.101c0-0.233,0-0.466,0-0.699
		c-0.367-8.4-0.584-14.4-0.65-18c3.601,5.3,5.566,8.416,5.9,9.35C96.434,208.6,96.884,209.85,97.55,211.75z"/>
	<path style="fill-rule:evenodd;clip-rule:evenodd;fill:#635B52;" d="M22.6,60.6L22,80.35c-0.267-2.733-0.4-5.533-0.4-8.4
		c0.1-7.5,0.133-11.75,0.1-12.75L22.6,60.6z M33.75,133.15v-0.101c0-1.467,0.583-21.366,1.75-59.7l2.2,1.95
		c0.233,4.934,0.517,8.633,0.85,11.1c0.133,1.2,0.2,4.167,0.2,8.9c0,7.633-0.267,14.101-0.8,19.4c-0.534,5.3-0.8,11.383-0.8,18.25
		c0,2.467,0.4,7.1,1.2,13.899c0.767,6.601,1.133,10.733,1.1,12.4l-0.2,9.65c-0.1,1.633,0.517,2.949,1.85,3.949
		c1.4,1.067,2.1,2.267,2.1,3.601c0,0.934-0.184,2.399-0.55,4.399c-0.4,3.034-0.6,7.634-0.6,13.801L42.3,206l-1.1-4
		c-0.034-0.833-0.083-1.65-0.15-2.45c-0.133-1.5-0.466-3.717-1-6.649c-0.133-1.4-0.383-2.9-0.75-4.5l-0.1-0.4v-0.05
		c-0.133-2.233-0.284-3.733-0.45-4.5c-1.067-3.601-2.033-7.601-2.9-12c-1.767-8.7-2.483-16.233-2.15-22.601L33.75,133.15z
		 M29.15,143.7c-0.033,2.633-0.4,5.767-1.1,9.399l0.7-10.85l0.3-5.3C29.183,138.95,29.217,141.2,29.15,143.7z M13.25,26.4
		c0,2.767-0.317,7.5-0.95,14.2l-0.1,0.85l0.05-1.95c0-3.333-0.083-5.95-0.25-7.85l0.3-0.25l0.2-0.25c0.233-0.7,0.417-1.75,0.55-3.15
		l0.15-1.6H13.25z M2.85,51.35c0.167-2.233,0.25-4.3,0.25-6.2c0.733,6.3,0.85,12.267,0.35,17.9c-0.267,3-0.667,6.55-1.2,10.65
		l-0.1-5.25V66.8c0.133-1.667,0.267-3.966,0.4-6.9c0.1-3.1,0.133-5.1,0.1-6L2.85,51.35z M26.5,179.05c-0.2-0.066-0.7-0.35-1.5-0.85
		c-0.767-0.467-1.233-0.767-1.4-0.9l3.6-19.5l0.85-4.7L27.5,162.4L26.5,179.05z M102.15,217.3h-4.7h-0.7l0.8-5.55
		c0.767,1.833,1.45,3.116,2.05,3.85C100.233,216.366,101.083,216.934,102.15,217.3z"/>
	<path style="fill-rule:evenodd;clip-rule:evenodd;fill:#9B9286;" d="M19.7,53.05c-0.9,0.333-2.25,0.5-4.05,0.5
		c-2.7-0.3-4.867-0.483-6.5-0.55c-1.2-0.633-2.017-1.083-2.45-1.35c-0.667-0.433-1.15-1.033-1.45-1.8c-0.6-1.567-0.817-6-0.65-13.3
		C5.3,35.583,6,34.8,6.7,34.2c0.433,0.833,1.216,1.466,2.35,1.9c0.6,0.267,1.317,0.55,2.15,0.85c0,0.966-0.05,2.066-0.15,3.3
		l0.05,1.7c0.033,0,0.2,0.417,0.5,1.25l0.65-3.7l-0.05,1.95l0.1-0.85c0.133,1.1,0.184,2.783,0.15,5.05l0.3-2.15
		c0.333-2.633,0.617-6.233,0.85-10.8c0.2-3.867,0.316-6,0.35-6.4c1.1-0.133,2.2-0.216,3.3-0.25l0.4,5.2
		c0.767,7.233,1.2,11.467,1.3,12.7C19.05,45.083,19.3,48.117,19.7,53.05z M28.75,142.25l-0.7,10.85c0.7-3.633,1.067-6.767,1.1-9.399
		c0.3,0.7,0.6,1.2,0.9,1.5l0.3,0.05c1.9-6.6,2.85-9.934,2.85-10l-0.45,8.5c0,0.366,0.1,0.65,0.3,0.85c0.333,0.267,0.55,0.5,0.65,0.7
		c-0.034-1.899-0.05-3.833-0.05-5.8c0-3.733,0.033-5.85,0.1-6.35L33.7,148.85c-0.733,7.567-1.55,11.934-2.45,13.101
		c-0.967,1.267-1.45,3.717-1.45,7.35c0,2.467-0.25,5.733-0.75,9.8l2.05,0.15c-1.233,0.066-2.35,0.017-3.35-0.15
		c0-7.533-0.083-13.1-0.25-16.699l0.55-9.301l-0.85,4.7c-0.7-7.767-1.133-14.916-1.3-21.45c-0.133-4.133-0.65-9.399-1.55-15.8v-1.85
		c-0.367,10.533-0.567,16.75-0.6,18.649c-0.067,3.4-0.25,16.5-0.55,39.301c-0.3-0.967-0.45-2.051-0.45-3.25
		c0.433-4.534,0.633-7.534,0.6-9c-0.1-2.2-1.367-4-3.8-5.4c1.3-18.033,2.233-31.366,2.8-40c0.967-15.033,1.2-30.683,0.7-46.95
		c0.4-3.167,0.833-6.267,1.3-9.3c1.033,1.133,3.7,3.733,8,7.8c-0.067,2.1-0.117,3.434-0.15,4c-0.1,1.2-0.267,1.867-0.5,2
		c-0.3-0.267-0.517-0.45-0.65-0.55c-0.233-0.133-0.566-0.2-1-0.2c-0.4,0-0.716,0.034-0.95,0.1l-0.2,0.05
		c-0.9,5.966-1.333,10.3-1.3,13c0,2.3,0.066,9.033,0.2,20.2c0,5-0.15,11.966-0.45,20.899c0,2.334,0.167,4.65,0.5,6.95
		C28.05,138.267,28.35,140.017,28.75,142.25z M47.15,208.25l0.2-22.4c0-5.5-0.684-11.116-2.05-16.85c-1.3-5.5-1.9-10.2-1.8-14.1
		c0.1-4.301,0.083-13.851-0.05-28.65c-0.133-14.066-0.2-21.267-0.2-21.6l0.05-9.55c0.4-1.267,0.733-2.4,1-3.4
		c0.534-1.934,0.733-5.1,0.6-9.5c0.267,0.433,2.4,2.4,6.4,5.9c2.367,4.3,3.55,6.75,3.55,7.35c0,18.8-0.567,32.416-1.7,40.85
		c-0.2,1.434-0.6,3.7-1.2,6.8c-0.367,1.867-0.55,3.601-0.55,5.2c0,2.033,0.417,3.8,1.25,5.3c1.1,1.934,1.717,3.134,1.85,3.601
		c0.6,2.366,0.833,8.217,0.7,17.55c0,0.134-0.35,1.517-1.05,4.15c-0.733,2.633-1.1,4.683-1.1,6.149c0,0.533,0.1,3.283,0.3,8.25
		c0.233,5,0.367,7.75,0.4,8.25c0,1.867-0.633,3.45-1.9,4.75C50.55,207.6,48.983,208.25,47.15,208.25z M11.2,32.1l-0.95,0.35
		c0.567-0.267,1.25-0.617,2.05-1.05L12,31.65L11.2,32.1z M3.1,45.15c0,1.9-0.083,3.967-0.25,6.2c0.167-5.2,0.267-8.017,0.3-8.45
		c0.2-2.233,0.6-4.15,1.2-5.75c-0.1,0.467-0.333,1.883-0.7,4.25C3.283,43.667,3.1,44.917,3.1,45.15z M18.1,158.75
		c-1.467,0.967-2.333,2.583-2.6,4.85c-0.067,0.5-0.05,2.584,0.05,6.25c0.067,2.5-0.25,4.317-0.95,5.45
		c-0.333,0.533-0.767,0.967-1.3,1.3c-0.066-3.433-0.367-7.033-0.9-10.8c-0.633-3.7-1.017-5.934-1.15-6.7l-0.2-1.1
		c-0.033,1.767-0.316,8.283-0.85,19.55c-0.367,0.033-0.767,0.05-1.2,0.05c-1.133,0-2.05-0.149-2.75-0.449
		c-0.6-0.233-1.183-0.634-1.75-1.2l0.6,0.45l0.05-4.2C4.817,159.667,4.5,151.267,4.2,147l0.05,1.8c0,3.601-0.183,6.351-0.55,8.25
		c-0.534,2.5-0.883,5.217-1.05,8.15c-0.233-6-0.417-12.917-0.55-20.75c-0.233-12.733-0.367-19.634-0.4-20.7
		c1.233-1.634,2.25-4.35,3.05-8.15c0.9-4.3,1.35-9.316,1.35-15.05c0-2.8-0.717-5.233-2.15-7.3c-1.434-2.067-2.15-4.933-2.15-8.6
		c0.2-7.767,0.317-13.167,0.35-16.2l0.1,5.25l0.05,3.55c0.133-1.633,0.517-4.8,1.15-9.5C3.85,64.717,4.133,60.133,4.3,54
		c0.167,0.067,0.617,0.117,1.35,0.15c0.767,0.033,1.35,0.033,1.75,0c-0.633,0.434-1.217,1.417-1.75,2.95
		c-0.367,1.167-0.55,1.933-0.55,2.3c0,1.467,0.667,2.983,2,4.55c1.2,1.4,2.117,2.1,2.75,2.1c0.333,0,0.867-0.133,1.6-0.4
		c0.733-0.3,1.267-0.45,1.6-0.45c2.7,0,4.317,8.9,4.85,26.7C18.1,98.233,18.167,120.517,18.1,158.75z M40.3,198.3l0.15,1.05
		c0.167,0.867,0.417,1.75,0.75,2.65l1.1,4l0.05,0.25c-0.7-0.767-1.25-2.15-1.65-4.15C40.367,200.467,40.233,199.2,40.3,198.3z
		 M63.45,199.3c-3.5-0.8-5.3-1.2-5.4-1.2c-0.133,0-0.566,0.15-1.3,0.45c-0.833,0.334-1.517,0.684-2.05,1.05
		c0.8-0.6,1.35-0.966,1.65-1.1c0.967-0.467,1.967-0.6,3-0.4l0.85-23.55c0.033,0.867,0.3,4.566,0.8,11.101
		c0.367,5.267,0.567,8.866,0.6,10.8l0.7-1.351L63.45,199.3z M72.3,211.4c-1.367-0.667-2.733-2.45-4.1-5.351
		c-1.567-3.267-2.467-5.017-2.7-5.25c-0.533-38.467-0.95-58.35-1.25-59.649l2.05,3.6l1.15,1.2c-0.1-0.066-0.184-0.117-0.25-0.15
		c-0.267-0.133-0.4,0-0.4,0.4c0,0.033,0.35,0.283,1.05,0.75c0.733,0.5,1.217,0.883,1.45,1.149
		c0.534,20.034,0.983,32.817,1.35,38.351C70.883,190.217,71.433,198.533,72.3,211.4z M77.8,174.85c0.134-1.1,0.217-2.166,0.25-3.199
		c0.334-0.601,0.717-1.801,1.15-3.601c0.434-1.934,0.649-3.434,0.649-4.5l2.051-2.75c0.733,2,1.166,3.634,1.3,4.9h-0.05
		c0.1,1.1,0.116,3.133,0.05,6.1c-0.033,0.434-0.066,0.9-0.101,1.4c-0.066,1.2-0.1,2.566-0.1,4.1c0,2.834,0.75,6.05,2.25,9.65
		c0.9,2.166,2.583,6.066,5.05,11.7c0.066,3.6,0.283,9.6,0.65,18c-0.867-0.4-1.533-0.95-2-1.65c-0.767-1.1-1.467-1.833-2.101-2.2
		c-1.166-0.7-2.983-1.05-5.449-1.05c-1.034,0.066-2.25,0.116-3.65,0.15L77.8,174.85z M97.45,217.3
		c-0.834,0.066-1.601,0.117-2.3,0.15c0.5-0.066,1.033-0.117,1.6-0.15H97.45z"/>
	<path style="fill-rule:evenodd;clip-rule:evenodd;fill:#7C7367;" d="M21.7,59.2c0.033,1,0,5.25-0.1,12.75
		c0,2.867,0.133,5.667,0.4,8.4l0.6-19.75l1.75,2.15c-0.467,3.033-0.9,6.133-1.3,9.3c-0.133,1.6-0.35,4.367-0.65,8.3
		c-0.367,4.233-0.917,9.233-1.65,15l-0.25,1.2c-0.2-1.167-0.3-3.933-0.3-8.3c0.033-9.533,0.05-19.633,0.05-30.3
		c-0.333-0.667-0.833-1-1.5-1c-0.467,0-0.983,0.45-1.55,1.35c-0.6,0.867-1.467,1.3-2.6,1.3c-1.467,0-2.383,0.316-2.75,0.95
		c-0.2,0.767-0.467,1.317-0.8,1.65c0.233,0.033,0.017,0.05-0.65,0.05c-0.9,0-1.283-1.117-1.15-3.35
		c0.133-2.533-0.483-4.117-1.85-4.75c-0.4,0.033-0.983,0.033-1.75,0C4.917,54.117,4.467,54.067,4.3,54
		c-0.167,6.133-0.45,10.717-0.85,13.75c-0.633,4.7-1.017,7.867-1.15,9.5L2.25,73.7c0.533-4.1,0.933-7.65,1.2-10.65
		c0.5-5.633,0.383-11.6-0.35-17.9c0-0.233,0.183-1.483,0.55-3.75c0.367-2.367,0.6-3.783,0.7-4.25l0.25-0.6
		c-0.167,7.3,0.05,11.733,0.65,13.3c0.3,0.767,0.783,1.367,1.45,1.8c0.433,0.267,1.25,0.717,2.45,1.35
		c1.633,0.067,3.8,0.25,6.5,0.55c1.8,0,3.15-0.167,4.05-0.5c0.066,0.567,0.267,1.45,0.6,2.65C20.733,57.367,21.2,58.533,21.7,59.2z
		 M43.3,95.1l-0.05,9.55c0,0.333,0.067,7.534,0.2,21.6c0.133,14.8,0.15,24.35,0.05,28.65c-0.1,3.899,0.5,8.6,1.8,14.1
		c1.367,5.733,2.05,11.35,2.05,16.85l-0.2,22.4c-1.6,0.233-3.2-0.434-4.8-2L42.3,206l-0.25-11.35c0-6.167,0.2-10.767,0.6-13.801
		c0.367-2,0.55-3.466,0.55-4.399c0-1.334-0.7-2.533-2.1-3.601c-1.333-1-1.95-2.316-1.85-3.949l0.2-9.65
		c0.033-1.667-0.333-5.8-1.1-12.4c-0.8-6.8-1.2-11.433-1.2-13.899c0-6.867,0.267-12.95,0.8-18.25c0.533-5.3,0.8-11.767,0.8-19.4
		c0-4.733-0.067-7.7-0.2-8.9c-0.333-2.467-0.617-6.167-0.85-11.1c2.1,1.534,3.433,3.117,4,4.75c0.367,1.034,0.55,2.867,0.55,5.5
		c0,0.667-0.283,5.733-0.85,15.2c0,0.667,0.067,1.767,0.2,3.3l0.45-0.85c0.1-0.3,0.317-1.6,0.65-3.9
		C43.033,97.067,43.233,95.667,43.3,95.1z M12.25,39.5l-0.65,3.7c-0.3-0.833-0.467-1.25-0.5-1.25l-0.05-1.7
		c0.1-1.233,0.15-2.333,0.15-3.3V32.1l0.8-0.45C12.167,33.55,12.25,36.167,12.25,39.5z M2.65,53.9c0.033,0.9,0,2.9-0.1,6
		c-0.133,2.934-0.267,5.233-0.4,6.9c0.167-4.667,0.317-8.683,0.45-12.05L2.65,53.9z M4.5,175.95c-0.933-1.033-1.667-2.017-2.2-2.95
		l0.35-7.8c0.167-2.934,0.517-5.65,1.05-8.15c0.367-1.899,0.55-4.649,0.55-8.25L4.2,147c0.3,4.267,0.617,12.667,0.95,25.2l-0.05,4.2
		L4.5,175.95z M27.2,157.8l-3.6,19.5l-0.4-0.649c0.3-22.801,0.483-35.9,0.55-39.301c0.033-1.899,0.233-8.116,0.6-18.649v1.85
		c0.9,6.4,1.417,11.667,1.55,15.8C26.067,142.884,26.5,150.033,27.2,157.8z M38.75,183.45c0.167,0.767,0.317,2.267,0.45,4.5V188
		l-0.05-0.25l-0.6-1.75L38.75,183.45z M26.5,179.05l1-16.649c0.167,3.6,0.25,9.166,0.25,16.699L26.5,179.05z M40.3,198.3
		l-0.25-5.399c0.534,2.933,0.867,5.149,1,6.649c0.067,0.8,0.117,1.617,0.15,2.45c-0.333-0.9-0.583-1.783-0.75-2.65L40.3,198.3z"/>
	<path style="fill-rule:evenodd;clip-rule:evenodd;fill:#898074;" d="M77.8,174.85c-0.1,0.834-0.35,2.534-0.75,5.101
		c-0.233,1.7-0.483,4.1-0.75,7.2c0.134-5.467,0.2-11.801,0.2-19c0.2,1.199,0.35,2.517,0.45,3.949c0.399-0.033,0.767-0.183,1.1-0.449
		C78.017,172.684,77.934,173.75,77.8,174.85z M64.25,141.15c0.3,1.3,0.717,21.183,1.25,59.649l-2.05-1.5l-1.15-4.2l-0.7,1.351
		c-0.033-1.934-0.233-5.533-0.6-10.8c-0.5-6.534-0.767-10.233-0.8-11.101c-0.3-20.633-0.45-31.283-0.45-31.95l0.1-13.199
		c1.767,4.033,2.667,6.1,2.7,6.199C62.75,136.134,63.317,137.983,64.25,141.15z M81.9,160.8l-2.051,2.75
		c0.101-1.399,0.101-3.5,0-6.3C80.616,158.417,81.3,159.6,81.9,160.8z"/>
</g>
</svg>
