<?xml version="1.0" encoding="iso-8859-1"?>
<!-- Generator: Adobe Illustrator 15.1.0, SVG Export Plug-In . SVG Version: 6.00 Build 0)  -->
<!DOCTYPE svg PUBLIC "-//W3C//DTD SVG 1.1//EN" "http://www.w3.org/Graphics/SVG/1.1/DTD/svg11.dtd">
<svg version="1.1" id="Layer_1" xmlns="http://www.w3.org/2000/svg" xmlns:xlink="http://www.w3.org/1999/xlink" x="0px" y="0px"
	 width="141px" height="79.6px" viewBox="0 0 141 79.6" style="enable-background:new 0 0 141 79.6;" xml:space="preserve">
<g>
	<path style="fill-rule:evenodd;clip-rule:evenodd;fill:#848958;" d="M118.05,10.55c0.066,0,0.566-0.216,1.5-0.65
		c1.134-0.333,2.334-0.233,3.601,0.3c0.199,0.2,0.333,0.4,0.399,0.6c-0.434,0.367-0.934,0.717-1.5,1.05
		c-0.5,0.267-0.8,0.4-0.899,0.4c-1.101,0-1.917-0.25-2.45-0.75C118.333,10.967,118.116,10.65,118.05,10.55z M127.35,18.25l0.15,0.6
		l0.05,0.65l0.101,0.55l0.05,0.2l0.55,2l-0.7,0.1c-0.366-1.7-0.916-3.067-1.649-4.1c-1.101-1.533-1.7-2.4-1.801-2.6
		c0.601,0.133,0.717,0.033,0.351-0.3l0.2-0.05C126.083,16.733,126.983,17.717,127.35,18.25z M137.85,32.25
		c-1.866-0.8-3.833-2.183-5.899-4.15c-1.733-1.633-2.601-2.583-2.601-2.85c0-0.333,0.134-0.367,0.4-0.1
		c0.167,0.167,0.283,0.217,0.35,0.15c0.7,0.367,1.517,0.55,2.45,0.55c0.066,0.1,0.2,0.35,0.4,0.75c0.267,0.4,0.55,0.7,0.85,0.9
		l0.55,0.75l0.7,0.85c0.566,0.633,1.184,1.267,1.851,1.9c0.533,0.467,0.85,0.733,0.949,0.8l0.2,0.4L137.85,32.25z M116.85,46
		c-0.133,0.167-0.5,0.967-1.1,2.4c-0.967,2.333-1.417,3.966-1.35,4.899l-0.351-0.45c-0.033-0.133-0.05-0.267-0.05-0.399
		c0-0.7,0.417-2.834,1.25-6.4c0.833-3.5,1.3-5.25,1.4-5.25c0.199,0,0.35,0,0.449,0c0.101-0.033,0.167-0.05,0.2-0.05
		c0,0.033-0.017,0.184-0.05,0.45c0.033,0.166,0.083,0.35,0.15,0.55c0.233,0.866,0.35,1.35,0.35,1.45c0,0.467-0.1,1-0.3,1.6
		C117.25,45.366,117.05,45.767,116.85,46z M98.3,50.75c-0.133-0.167-0.25-0.316-0.35-0.45c-0.167-0.2-0.55-0.8-1.15-1.8l1.2,0.55
		C98,49.684,98.1,50.25,98.3,50.75z M83.9,56.2L83.4,55.6l0.35-0.75c0.434,0.9,0.717,1.384,0.85,1.45L83.9,56.2z M72.7,71.3l0.1-0.2
		v0.051L72.7,71.3z M60.55,73.75l0.3,1.45L60.9,72c0.633,2.833,0.85,4.934,0.65,6.3c-0.033,0.101-0.233,0.283-0.6,0.55
		C61.183,78.25,61.05,76.55,60.55,73.75z M59.5,68.65c0.033,0.6,0.133,1.25,0.3,1.949c0.067,0.367,0.167,0.767,0.3,1.2
		C59.7,70.7,59.5,69.65,59.5,68.65z M53.8,62.3l0.5-0.899c0-1.5,0.7-2.767,2.1-3.801c0.7-0.566,1.483-0.966,2.35-1.199
		c0.167,0.066,0.4,0.1,0.7,0.1c-0.167,0.434-0.617,0.85-1.35,1.25c-0.867,0.434-1.667,1.233-2.4,2.4c-2.3,3.633-3.633,5.55-4,5.75
		c-0.067,0.033-0.317,0.033-0.75,0c0.933-0.834,1.716-1.75,2.35-2.75L53.8,62.3z M39.5,58.75l-0.05-0.05
		c-0.233-0.434-0.434-0.917-0.6-1.45c0.333-1.733,0.55-3.017,0.65-3.85c0.167-0.467,0.467-0.884,0.9-1.25
		c0.2-0.167,0.4-0.301,0.6-0.4c-0.833,1-1.35,1.85-1.55,2.55l0.65-0.7c0.133,0.334,0.183,0.75,0.15,1.25
		c-0.033,0.301-0.067,0.767-0.1,1.4c0,0.3,0.4,1.65,1.2,4.05c0.7,2.134,0.9,3.884,0.6,5.25c-0.034,0.101-0.217,0.3-0.55,0.601
		c0.033-1.434-0.2-2.983-0.7-4.65C40.267,60.033,39.867,59.116,39.5,58.75z M8.6,59.45H7.9c0.5-0.467,2.25-3.2,5.25-8.2
		c0,0.134,0.417-0.184,1.25-0.95c0.333-0.133,0.717-0.267,1.15-0.399c0,0.033,0,0.066,0,0.1c0,0.333,0.15,0.35,0.45,0.05
		c0.267-0.333,0.4-0.333,0.4,0c0,0.167-0.5,0.684-1.5,1.55c-1.167,1-1.883,1.667-2.15,2C10.583,57,9.2,58.95,8.6,59.45z M19.2,52.65
		c0.033,0.1,0.05,0.25,0.05,0.449c0,0.733-0.517,1.483-1.55,2.25c-0.934,0.7-1.65,1.051-2.15,1.051c-0.6,0-1.167-0.351-1.7-1.051
		c0-0.8,0.5-1.466,1.5-2c1-0.566,2.2-0.85,3.6-0.85l0.15-0.05C19.133,52.45,19.167,52.517,19.2,52.65z M4,47.9L3.85,46.05l-0.3-1.25
		c0.1-0.934,0.267-1.7,0.5-2.3c0.367-0.467,0.6-0.816,0.7-1.05l0.8-1.25l1.4-0.6c-1.067,0.867-1.733,1.483-2,1.85H5l0.7-0.4
		l0.1,0.55c-0.033,0.233-0.216,1.884-0.55,4.95c-0.333,3-0.667,5.184-1,6.55l-0.7,0.4C3.95,52.467,4.1,50.6,4,47.9z M0.7,28.15
		c-0.1,0-0.333-0.133-0.7-0.4c0.5-0.033,1.233-0.233,2.2-0.6c1.233-0.467,2.466-1.1,3.7-1.9l2.4-1.65c0.3-0.067,1.2-0.417,2.7-1.05
		c1.4-0.6,2.283-0.933,2.65-1L12.6,21.9c0.767,0,1.3,0.05,1.6,0.15c-0.133,0-0.284,0-0.45,0l-1.7,0.1c0,0.167-0.216,0.35-0.65,0.55
		l0.45,0.1c0.333,0.133,0.483,0.367,0.45,0.7h-0.4l1,0.15c0.7,0.467,1.083,0.8,1.15,1c-0.066-0.066-0.483-0.25-1.25-0.55
		c-0.8-0.3-1.283-0.45-1.45-0.45l0.8,0.5c-0.233,0.233-2.05,0.95-5.45,2.15C3.267,27.5,1.267,28.117,0.7,28.15z M19,9.6l0.15,0.05
		c1.033,0.4,1.85,0.767,2.45,1.1c-0.067,0,0.05,0.233,0.35,0.7c-0.034,0.066-0.167,0.117-0.4,0.15c-0.3-0.1-1.7-0.283-4.2-0.55
		c-2.633-0.3-4.5-0.583-5.6-0.85L11.1,9.55C12.833,9.917,15.467,9.933,19,9.6z M36.05,13.35l2.85-0.95
		c0.5-0.333,1.367-0.483,2.6-0.45c1.067,0.267,2.05,0.55,2.95,0.85c0.867,0.567,1.333,0.917,1.4,1.05c-0.733-0.5-1.7-0.967-2.9-1.4
		l0.9,0.55c-0.133,0.067-0.717,0.083-1.75,0.05l-2.3-0.1c-3.633,0.8-5.7,1.183-6.2,1.15l-0.7-0.45
		C33.967,13.683,35.017,13.583,36.05,13.35z M62.15,20.25c-0.1,0-0.05,0.083,0.15,0.25c0.167,0.167,0.467,0.433,0.9,0.8
		c-0.467-0.367-0.867-0.667-1.2-0.9c-0.633-0.367-1.183-0.517-1.65-0.45l0.8,0.55c-0.133,0.1-0.45,0.15-0.95,0.15
		c-0.633-0.033-1.117-0.05-1.45-0.05c-0.7,0-1.967,0.316-3.8,0.95c-1.833,0.633-3.067,0.95-3.7,0.95L50,22.4L49.4,22
		c0.9,0.3,2.85-0.183,5.85-1.45c0.2-0.066,0.583-0.283,1.15-0.65c0.6-0.333,1.167-0.5,1.7-0.5
		C58.833,19.4,60.183,19.683,62.15,20.25z M67,14.1l1.05-0.75c0.167-0.033,0.333-0.067,0.5-0.1v-0.1c0.034,0,0.133,0.017,0.3,0.05
		c0.867-0.1,1.733-0.133,2.6-0.1c0.133,0.033,1.217,0.633,3.25,1.8c1.934,1.133,3.55,1.8,4.85,2l-0.05,0.05
		c-0.1,0.167-0.167,0.267-0.2,0.3s-0.25,0.05-0.649,0.05c-0.101,0-1.801-0.566-5.101-1.7c-3.3-1.167-4.95-1.783-4.95-1.85
		c-0.033-0.133-0.05-0.25-0.05-0.35C68.083,13.5,67.567,13.733,67,14.1z M96.15,1.9l1.5,0.4c2.933,0.6,4.649,0.8,5.149,0.6
		l-0.35,0.45C101.75,3.417,100.6,3.3,99,3c-1.7-0.333-2.65-0.5-2.85-0.5C95.017,2.367,94.1,2.283,93.4,2.25
		c-1.334-0.067-2,0.1-2,0.5L91.35,2.3C91.116,2.4,90.9,2.55,90.7,2.75c-0.367,0.467-0.634,0.767-0.8,0.9
		c0-0.566,0.3-1.05,0.899-1.45c0.601-0.434,1.316-0.65,2.15-0.65l0.35-0.1C94.566,1.383,95.517,1.533,96.15,1.9z M111.2,8.3
		l-1.05,1.15c-0.733-0.133-1.267-0.383-1.601-0.75l0.8-0.35L108.3,8.3l0.15-0.25L111.2,8.3z M112.55,10.3l0.75-0.75l0.45,0.55
		l-0.25,0.75L112.55,10.3z M117.2,7.8l1-0.8c0.166-0.033,0.35-0.05,0.55-0.05v-0.1c0.033,0,0.267,0.05,0.7,0.15h-0.05
		c1.399,0.167,3.116,0.717,5.149,1.65c2.834,1.3,4.566,1.95,5.2,1.95l-0.45,0.35c-0.733-0.034-2.684-0.6-5.85-1.7
		c-3.101-1.1-4.65-1.7-4.65-1.8c-0.033-0.133-0.05-0.25-0.05-0.35C118.283,7.2,117.767,7.433,117.2,7.8z M132.35,29.3
		c0.167,0.267,0.25,0.5,0.25,0.7c-0.3,0.467-0.899,0.7-1.8,0.7c-0.399,0-0.684-0.017-0.85-0.05l-0.15-0.1
		c-0.633-0.333-1.133-0.617-1.5-0.85c-0.666-0.434-1-0.867-1-1.3c0-0.2,0.017-0.333,0.05-0.4c0-0.133,0.017-0.2,0.051-0.2
		c0.033,0,0.066,0.017,0.1,0.05l1.6-0.2c0.801,0,1.4,0.15,1.801,0.45C131.167,28.3,131.65,28.7,132.35,29.3z M129.25,24.75
		c-0.233,0.033-0.384,0.05-0.45,0.05c-0.399,0-0.7,0.034-0.899,0.1l-0.2,0.1c0.2-0.2,0.633-0.35,1.3-0.45l-0.65-0.05l-0.6-1.6
		l0.85,0.35C128.6,23.817,128.816,24.317,129.25,24.75z M125.45,21.25c-1.2,0-2.217-0.367-3.05-1.1
		c-0.867-0.733-1.301-1.617-1.301-2.65C123.366,18.267,124.816,19.517,125.45,21.25z M126.2,36.3c-1.334-0.333-3.267-1.4-5.8-3.2
		c-1.934-1.333-3.067-2.184-3.4-2.55c-0.233-0.066-0.55-0.216-0.95-0.45l0.5-0.3l1.851,0.25c1.767,1.233,2.783,1.883,3.05,1.95
		c1.166,1.1,2.05,1.883,2.649,2.35c0.4,0.367,0.784,0.667,1.15,0.9C125.55,35.65,125.866,36,126.2,36.3z M111.45,36.65l0.7,0.9
		L111.8,39.6l-0.2,3.35c0.034,0.2,0.334-0.65,0.9-2.55c0.134,0.066,0.366,0.05,0.7-0.051c0.066,0.101,0.366,0.634,0.899,1.601
		c0.434,1.2,0.45,2.517,0.051,3.95c-1,0.699-1.7,0.583-2.101-0.351c-0.166-1.066-0.283-1.6-0.35-1.6c-0.434,0-0.667-0.167-0.7-0.5
		c0-0.533,0-0.967,0-1.3C111.233,39.683,111.384,37.85,111.45,36.65z M117.05,40.55c-0.066-0.133-0.133-0.267-0.2-0.399l-0.35-0.55
		h0.2C116.8,39.867,116.917,40.184,117.05,40.55z M112.8,12.55l0.3,0.4c0.233,0.367,0.034,0.716-0.6,1.05
		c-0.566,0.267-1.184,0.4-1.85,0.4c-0.4,0-0.733-0.05-1-0.15l-0.301-0.15c-0.767-0.267-1.3-0.467-1.6-0.6
		c-0.467-0.2-0.7-0.5-0.7-0.9c0.066-0.233,0.101-0.45,0.101-0.65l0.5-0.25c0.433-0.167,0.85-0.25,1.25-0.25
		c0.233,0,0.85,0.133,1.85,0.4S112.434,12.35,112.8,12.55z M108.15,33.75c0.333,0.467,0.666,1.033,1,1.7
		c0.466,1.066,0.699,1.833,0.699,2.3c-0.866,0.433-1.583,0.317-2.149-0.35c-0.533-0.566-0.8-1.35-0.8-2.35l0.149-1.7
		c0.101,0.033,0.233,0.017,0.4-0.05c0.033-0.066,0.1-0.117,0.2-0.15C107.816,33.317,107.983,33.517,108.15,33.75z M110.5,31.6
		L111,32c-0.167-0.233-0.283-0.4-0.35-0.5h0.05l0.1,0.1l0.351,0.55l-0.101,0.2L110.4,31.7L110.5,31.6z M94,6.85
		c0.333-0.233,0.634-0.5,0.9-0.8L91.95,5.3c0.434-0.433,1.1-0.75,2-0.95c0.833-0.167,1.55-0.2,2.149-0.1H96.2
		c0.2,0.033,0.416,0.183,0.649,0.45C96.116,5.767,95.167,6.483,94,6.85z M98.4,9.3c0.666,0.7,1.199,1.1,1.6,1.2
		c0.2,0.067,0.35,0.067,0.45,0c-0.267,0.367-0.4,0.583-0.4,0.65L98.65,11.2c-0.101,0-1.767-0.367-5-1.1
		c-2.567,0.333-4.101,0.417-4.601,0.25l0.55-0.6c-0.767,0.267-1.3,0.583-1.6,0.95l0.4-0.65L88.55,10l0.05-0.05
		c2-0.667,3.117-1,3.351-1C92.316,9.083,92.7,9.167,93.1,9.2c0.467,0.233,0.801,0.367,1,0.4c1,0.3,1.917,0.533,2.75,0.7l1.25,0.2
		l-0.3-0.8L98.4,9.3z M94,11.9c0.634,1.4-0.1,2.25-2.2,2.55h-2.5l-0.149-0.9c0.733-0.6,1.283-1,1.649-1.2
		C91.634,11.983,92.7,11.833,94,11.9z M99.85,12.85l-0.649-0.1l-0.3-0.4L99.3,11.9L99.85,12.85z M99.35,39.5
		c0.267-0.067,0.601-0.1,1-0.1c0.134,0.033,0.267,0.083,0.4,0.15c-0.134-0.033-0.3-0.05-0.5-0.05
		C99.85,39.467,99.55,39.467,99.35,39.5z M97.9,42.35c0-0.166,0.033-0.233,0.1-0.199c0.066,0.033,0.116,0.05,0.15,0.05h0.05
		c0.066,0.033,0.6,0.149,1.6,0.35c1.101,0.467,2.017,1.267,2.75,2.4l0.101,0.45c-0.2,0.333-0.634,0.5-1.301,0.5
		c-0.633-0.067-1.233-0.25-1.8-0.551c-1.133-0.6-1.7-1.5-1.7-2.699C97.85,42.517,97.866,42.417,97.9,42.35z M104.35,43.55v1.601
		c-0.633-1.534-1.466-2.733-2.5-3.601c-0.6-0.5-0.983-0.883-1.149-1.149c0.066,0.033,0.184-0.034,0.35-0.2
		c0.167-0.233,0.283-0.3,0.351-0.2c-0.034-0.067-0.051-0.117-0.051-0.15C102.583,40.583,103.583,41.816,104.35,43.55z M90.2,41.8
		h1.7l1.35,0.75v0.4c0,0.233,0,0.583,0,1.05c-0.767-0.566-1.25-1.083-1.45-1.55h0.9c-0.267-0.134-0.783-0.267-1.55-0.4
		c-0.667-0.1-1.067-0.149-1.2-0.149L90.2,41.8z M94.25,47.5c0.066,0.167,0.1,0.533,0.1,1.1L92.7,48.85
		c-0.7-0.267-1.533-0.899-2.5-1.899c-0.834-0.834-1.25-1.316-1.25-1.45s0.017-0.25,0.05-0.35c0-0.167,0.033-0.233,0.1-0.2
		C89.134,44.983,89.167,45,89.2,45c0.033-0.033,0.066-0.05,0.1-0.05c0.634,0,1.233,0.1,1.8,0.3C92.333,45.65,93.384,46.4,94.25,47.5
		z M120.4,34.05l0.3,0.4c-0.334,0.367-0.75,0.683-1.25,0.95c-0.4,0.2-0.65,0.3-0.75,0.3c-0.566,0-1.184-0.2-1.851-0.6
		c-0.633-0.367-1.149-0.8-1.55-1.3c0.101-0.033,0.15-0.216,0.15-0.55l0.45-0.15c0.366-0.133,0.75-0.2,1.149-0.2
		C117.75,32.9,118.866,33.283,120.4,34.05z M77.05,44.05c0.4-0.066,0.95,0,1.65,0.2c0.3,0.233,0.717,0.6,1.25,1.1
		c0.934,0.867,1.517,1.434,1.75,1.7v3.45c-0.066-0.366-0.566-1.3-1.5-2.8c-0.9-1.434-1.367-2.316-1.4-2.65l0.95,0.2
		C78.45,44.583,77.55,44.184,77.05,44.05z M75.3,46.9c0.033-0.134,0.084-0.184,0.15-0.15c0.033,0.033,0.083,0.05,0.149,0.05
		c0.067,0,0.117-0.017,0.15-0.05c0.767,0.333,1.517,0.833,2.25,1.5c0.866,0.733,1.483,1.483,1.85,2.25c0,0.467-0.05,0.8-0.149,1
		l-0.45,0.1c-0.7-0.1-1.467-0.466-2.3-1.1c-1.134-0.866-1.7-1.95-1.7-3.25C75.25,47.083,75.267,46.967,75.3,46.9z M67.85,16.85
		c0.6-0.5,1.267-0.783,2-0.85c0.667-0.033,1.65,0.117,2.95,0.45c0.267,0.133,0.45,0.35,0.55,0.65
		c-0.399,0.433-0.916,0.816-1.55,1.15l-0.85,0.35C69.717,18.6,68.683,18.017,67.85,16.85z M58.05,24.55l1.1-0.65l-2.65-0.55l0.1-0.7
		c1.167-0.367,2.45-0.333,3.85,0.1c0.333,0.1,0.983,0.4,1.95,0.9v0.6C61.267,24.75,59.817,24.85,58.05,24.55z M40.75,14.55
		c0.667-0.133,1.483-0.05,2.45,0.25c0.966,0.267,1.683,0.617,2.15,1.05c-0.067,0.267-0.033,0.433,0.1,0.5
		c-0.2,0.133-0.65,0.233-1.35,0.3c-0.667,0.1-1.167,0.133-1.5,0.1l1.5-0.5c-0.867-0.567-1.684-1.017-2.45-1.35L40.75,14.55z
		 M40.75,30.25l-1-0.7l0.15-0.1C40.433,29.85,40.717,30.117,40.75,30.25z M19.75,32.05l1.95-1.65c1.167-1.167,1.933-1.867,2.3-2.1
		c1.4-0.8,3.267-1.1,5.6-0.9h-1.5l1.8,0.6c-0.066,0-0.717-0.183-1.95-0.55c-0.5-0.133-0.583,0.033-0.25,0.5
		c-0.133,0.2-1.467,1.066-4,2.6c-2.7,1.633-4.583,2.65-5.65,3.05l-0.85-0.2C18.3,32.967,19.15,32.517,19.75,32.05z M30,30.55
		c0,0.233,0.067,0.4,0.2,0.5c-0.4,0.567-1.05,1.034-1.95,1.4c-0.7,0.267-1.217,0.4-1.55,0.4c-1.4,0-2.233-0.434-2.5-1.3
		c1.633-0.867,2.917-1.3,3.85-1.3C28.717,30.25,29.367,30.35,30,30.55z M34.55,34.5c0.667-0.867,1.017-1.55,1.05-2.05v-0.1
		c0.933-0.067,1.75-0.083,2.45-0.05c-0.533,0.2-1.05,0.55-1.55,1.05c-0.433,0.566-0.717,0.917-0.85,1.05
		c0.167,0.233,0.383,0.434,0.65,0.6C35.7,34.933,35.117,34.767,34.55,34.5z M63,42.15c1.467-0.733,2.25-1.25,2.35-1.551l-1-0.55
		c0.066,0,0.633-0.3,1.7-0.9c0.1-0.066,0.2-0.117,0.3-0.15l0.05,0.05c0.167,0.1,0.434,0.15,0.8,0.15
		c-0.167,0.533-0.534,0.983-1.1,1.35c-0.967,0.667-1.717,1.267-2.25,1.8L62.9,42.5L63,42.15z M68.6,49.6
		c-1,0.301-1.867,0.75-2.6,1.351l0.9-0.25c-0.1,0.6-0.7,2.283-1.8,5.05c-1.2,3.033-2.15,5.116-2.85,6.25l-0.65,0.15
		c0.3-0.5,0.717-1.45,1.25-2.851c0.566-2.633,0.867-4,0.9-4.1L63.8,54.6c0.034-0.466,0.117-0.949,0.25-1.449
		c0.133-0.233,0.517-0.7,1.15-1.4c0.667-0.767,1.233-1.384,1.7-1.85l0.05-0.051C67.917,49.65,68.467,49.566,68.6,49.6z M62.25,59.1
		c0.033,0.067,0.05,0.217,0.05,0.45c0,0.7-0.533,1.45-1.6,2.25c-0.934,0.7-1.633,1.05-2.1,1.05c-0.567,0-1.15-0.333-1.75-1
		c0-0.8,0.5-1.483,1.5-2.05s2.2-0.85,3.6-0.85C61.95,58.983,62,59,62.1,59h0.05C62.183,59,62.217,59.033,62.25,59.1z M66.05,56.6
		c0.534-1.6,1.35-2.8,2.45-3.6c0.567-0.4,1.083-0.65,1.55-0.75c0,1.2-0.383,2.233-1.15,3.1C68.1,56.184,67.15,56.6,66.05,56.6z
		 M59.3,48.65l0.8-0.5L59.45,48.6L59.3,48.65z M67.5,38.45c0.733,0.033,1.267,0.117,1.6,0.25c-0.267-0.1-1.083-0.05-2.45,0.15
		C66.95,38.683,67.233,38.55,67.5,38.45z M70.05,41.9c0,0.066,0,0.183,0,0.35c0,0.733-0.533,1.5-1.6,2.3
		c-0.934,0.7-1.617,1.05-2.05,1.05c-0.4,0-0.8-0.033-1.2-0.1l-0.45-0.1c-0.067-0.367-0.083-0.684-0.05-0.95
		c0-0.767,0.5-1.417,1.5-1.95c0.966-0.533,2.15-0.8,3.55-0.8L69.9,41.6C69.967,41.634,70.017,41.733,70.05,41.9z M23.65,12.6
		c-0.867-0.833-1.45-1.383-1.75-1.65c-0.066-0.067-0.117-0.117-0.15-0.15c0.167,0.1,0.317,0.2,0.45,0.3
		c0.066,0.066,0.283,0.267,0.65,0.6C23.25,12.067,23.517,12.367,23.65,12.6z M22.75,14.5c-1.433,0-2.65-0.233-3.65-0.7
		c-1-0.466-1.5-1.033-1.5-1.7c1.667,0.167,3,0.6,4,1.3C22.133,13.767,22.517,14.133,22.75,14.5z M27.4,16.2
		c-0.7,0.267-1.583,0.5-2.65,0.7c-1.2,0.2-2.2,0.283-3,0.25l-0.6-0.4l2.6-0.15l2.95-0.9L27.4,16.2z M28.65,18.95
		c0.467,0.033,1.033-0.05,1.7-0.25c0.7-0.167,1.233-0.383,1.6-0.65c0.6,0.267,1.15,0.567,1.65,0.9l0.1,0.55
		c-0.534,0.267-1.15,0.4-1.85,0.4c-0.467,0-1.033-0.1-1.7-0.3C29.517,19.4,29.017,19.183,28.65,18.95z M34.1,16.95l-1.45-0.9
		l0.1-0.1C33.583,16.417,34.033,16.75,34.1,16.95z M13,27.55c-0.3,0.534-0.733,0.967-1.3,1.3c-0.633,0.4-1.3,0.6-2,0.6
		c-0.733,0-1.367-0.2-1.9-0.6c-0.4-0.3-0.683-0.633-0.85-1l0.25-0.5c1.7-0.533,2.95-0.75,3.75-0.65
		C11.483,26.733,12.167,27.017,13,27.55z M6.35,46.65c0.1-0.5,0.45-1.301,1.05-2.4c0.667-1.2,1.267-2.033,1.8-2.5
		c0,1.366-0.267,2.533-0.8,3.5C7.833,46.184,7.15,46.65,6.35,46.65z M31.95,52.1c-0.1,0-0.184,0-0.25,0
		c-0.467,0-0.833,0.034-1.1,0.101c-0.2,0.066-0.583,0.217-1.15,0.45h0.9c-0.167,0.366-0.75,0.933-1.75,1.699
		c-1.033,0.801-1.684,1.417-1.95,1.851c-2.133,3.566-3.733,5.517-4.8,5.85c1.6-1.533,2.933-3.517,4-5.95
		c0.8-1.833,1.767-2.933,2.9-3.3l1.8-0.899C30.617,51.9,31.083,51.967,31.95,52.1z M33.2,55.35c0,0.067,0,0.184,0,0.351
		c0,0.767-0.534,1.533-1.6,2.3c-0.934,0.7-1.633,1.05-2.1,1.05c-0.767,0-1.35-0.35-1.75-1.05c0-0.8,0.5-1.467,1.5-2
		c1-0.566,2.2-0.85,3.6-0.85h0.05l0.15-0.101C33.117,55.083,33.167,55.184,33.2,55.35z M75.55,58.55c0.033,0,0.05,0.017,0.05,0.05
		l0.051,0.051c0.333,0.699,0.5,1.383,0.5,2.05c0,0.333-0.417,1.483-1.25,3.45c-0.534,0.267-0.817,0.399-0.851,0.399
		c-0.233-0.366-0.483-0.816-0.75-1.35c-0.2-0.467-0.3-0.75-0.3-0.851c0.066-0.699,0.184-1.366,0.35-2c0.4-1.233,0.95-1.85,1.65-1.85
		C75.3,58.5,75.483,58.517,75.55,58.55z M77.15,64c0.899-2.267,1.399-3.5,1.5-3.7c-0.034,0.233-0.267,0.851-0.7,1.851
		C77.55,63.15,77.283,63.767,77.15,64z M62.6,71.625V71.55c-0.1-1.366,0.183-2.616,0.85-3.75c0.333-0.6,0.7-1.083,1.1-1.45
		c0.267,0.167,0.534,0.233,0.8,0.2l0.2,2.75c0,0.8-0.316,1.483-0.95,2.05c-0.167,0.134-0.667,0.434-1.5,0.9
		C62.781,71.994,62.614,71.786,62.6,71.625z M42.2,58.8c-0.067-0.434-0.1-0.983-0.1-1.649c0-0.9,0.25-1.801,0.75-2.7
		c0.233-0.467,0.467-0.834,0.7-1.101c0.3,0.134,0.65,0.167,1.05,0.101c0,0.666,0.1,1.717,0.3,3.149c0,1.034-0.35,1.767-1.05,2.2
		c-0.067,0.033-0.533,0.184-1.4,0.45L42.2,58.8z"/>
	<path style="fill-rule:evenodd;clip-rule:evenodd;fill:#6D7247;" d="M127.5,12.15l-1.75,1c-0.866,0.267-1.934,0.533-3.2,0.8
		c-1.166,0.233-1.916,0.35-2.25,0.35c-1.033,0-1.85-0.216-2.45-0.65c-0.466-0.367-0.699-0.783-0.699-1.25
		c0-0.633,0.3-1.25,0.899-1.85c0.066,0.1,0.283,0.417,0.65,0.95c0.533,0.5,1.35,0.75,2.45,0.75c0.1,0,0.399-0.133,0.899-0.4
		c0.566-0.333,1.066-0.684,1.5-1.05c-0.066-0.2-0.2-0.4-0.399-0.6l0.899,0.3c-0.666-0.533-1.934-0.983-3.8-1.35
		c-1.8-0.333-2.85-0.65-3.15-0.95l0.101-0.4c0.566-0.367,1.083-0.6,1.55-0.7c0,0.1,0.017,0.217,0.05,0.35c0,0.1,1.55,0.7,4.65,1.8
		c3.166,1.1,5.116,1.667,5.85,1.7L127.5,12.15z M136.55,22.65l-0.95-1.05c0.134,0.066,0.567,0.316,1.301,0.75l0.05,0.05
		c-0.233,0-0.367,0.033-0.4,0.1V22.65z M127.7,25l0.2-0.1c0.199-0.066,0.5-0.1,0.899-0.1c0.066,0,0.217-0.017,0.45-0.05
		c0.167-0.067,0.366-0.133,0.6-0.2c0.2-0.066,0.301,0.1,0.301,0.5c0,0.133-0.017,0.217-0.051,0.25
		c-0.066,0.067-0.183,0.017-0.35-0.15c-0.267-0.267-0.4-0.233-0.4,0.1c0,0.267,0.867,1.217,2.601,2.85
		c2.066,1.967,4.033,3.35,5.899,4.15l-1.55,0.35l-0.55,0.15l-2.1,0.3c-2.134,0.067-3.934-0.216-5.4-0.85
		c-1.533-0.667-2.3-1.517-2.3-2.55c0-0.333,0.467-0.883,1.399-1.65c-0.033,0.067-0.05,0.2-0.05,0.4c0,0.434,0.334,0.867,1,1.3
		c0.367,0.233,0.867,0.517,1.5,0.85l0.15,0.1c0.166,0.033,0.45,0.05,0.85,0.05c0.9,0,1.5-0.233,1.8-0.7c0-0.2-0.083-0.433-0.25-0.7
		l0.75,0.65c-0.366-0.733-1.333-1.667-2.899-2.8c-1.566-1.066-2.467-1.683-2.7-1.85L127.7,25z M115.15,30.45l0.899-0.35
		c0.4,0.233,0.717,0.383,0.95,0.45c0.333,0.367,1.467,1.217,3.4,2.55c2.533,1.8,4.466,2.867,5.8,3.2
		c1.233,0.534,2.583,0.767,4.05,0.7c-0.4-0.333-0.667-0.633-0.8-0.9c0.233,0.233,1.517,1.267,3.85,3.1l-0.7,0.65
		c-0.833-0.233-1.866-0.434-3.1-0.6c-1.233-0.133-2.167-0.183-2.8-0.15c0.166,0.367,0.566,0.733,1.2,1.1
		c0.333,0.166,0.783,0.416,1.35,0.75c-0.033,0.133-0.417,0.267-1.15,0.399c-0.633,0.101-1.233,0.15-1.8,0.15
		c-1.166,0-2.316-0.066-3.45-0.2l-0.6-1l1.85-1.6l1.851-0.55c-0.334-0.1-0.617-0.25-0.851-0.45l0.65-1.2L124.3,37l-2.05,0.6
		c-0.9,0.066-1.684,0.1-2.35,0.1c-2.4,0-4.067-0.35-5-1.05c-0.534-0.367-0.801-0.833-0.801-1.4c0-0.367,0.45-1.033,1.351-2
		c0,0.333-0.05,0.517-0.15,0.55c0.4,0.5,0.917,0.934,1.55,1.3c0.667,0.4,1.284,0.6,1.851,0.6c0.1,0,0.35-0.1,0.75-0.3
		c0.5-0.267,0.916-0.583,1.25-0.95l-0.3-0.4l0.85,0.55c-0.566-0.733-1.634-1.5-3.2-2.3c-1.666-0.833-2.649-1.433-2.95-1.8
		L115.15,30.45z M118.1,42.6h2.75c2.567,0.134,4.667,0.25,6.301,0.351C123.983,42.884,120.967,42.767,118.1,42.6z M115.75,48.4
		c0.6-1.434,0.967-2.233,1.1-2.4c0.2,0.566,0.351,1.184,0.45,1.85C116.833,48.017,116.316,48.2,115.75,48.4z M117.05,40.55v0.101
		c0.033,0.033,0.05,0.083,0.05,0.149c-0.1,0-0.25,0-0.449,0c-0.101,0-0.567,1.75-1.4,5.25c-0.833,3.566-1.25,5.7-1.25,6.4
		c0,0.133,0.017,0.267,0.05,0.399L112.5,51c-0.5-0.667-0.95-1.316-1.35-1.95c-0.9-2.1-1.45-3.633-1.65-4.6
		c0-0.9-0.15-1.65-0.45-2.25c-0.3-0.634-0.649-0.95-1.05-0.95c-0.267-0.3-0.884-1.35-1.85-3.15c-1.034-1.967-1.567-3.167-1.601-3.6
		c0.601-0.833,1.101-1.3,1.5-1.4c0.101-0.067,0.467-0.067,1.101,0c0.1,0.066,0.199,0.133,0.3,0.2c-0.167,0.067-0.3,0.083-0.4,0.05
		l-0.149,1.7c0,1,0.267,1.784,0.8,2.35c0.566,0.667,1.283,0.783,2.149,0.35v0.95c0-0.034,0.167-0.5,0.5-1.4
		c0.101-0.233,0.15-0.55,0.15-0.95s-0.1-0.9-0.3-1.5c-0.233-0.633-0.4-1.1-0.5-1.4c0.1-0.8,0.333-1.383,0.7-1.75l0.649,0.65
		l-0.2,0.4l-0.149,0.8l0.25,1.8l0.5,1.3c-0.066,1.2-0.217,3.033-0.45,5.5c0,0.333,0,0.767,0,1.3c0.033,0.333,0.267,0.5,0.7,0.5
		c0.066,0,0.184,0.533,0.35,1.6c0.4,0.934,1.101,1.05,2.101,0.351l-0.301,1.05c0.467-0.733,0.851-2.117,1.15-4.15
		c0.233-1.5,0.35-2.616,0.35-3.35l1.15,0.15l0.35,0.55C116.917,40.283,116.983,40.417,117.05,40.55z M110.8,31.6l0.5-0.35L112.15,31
		c-0.434,0.4-0.767,0.783-1,1.15L110.8,31.6z M108.25,48.95c-0.233,0.233-0.667,0.45-1.3,0.649c-0.601,0.2-1.134,0.317-1.601,0.351
		C106.783,49.583,107.75,49.25,108.25,48.95z M82.3,55.8l1.101-0.2l0.5,0.601L82.3,55.8L81.65,55.65l-2.301-0.7
		c-4.199-2.2-6.3-4.351-6.3-6.45c0-0.667,0.75-1.2,2.25-1.6c-0.033,0.066-0.05,0.183-0.05,0.35c0,1.3,0.566,2.384,1.7,3.25
		c0.833,0.634,1.6,1,2.3,1.1l0.45-0.1c0.1-0.2,0.149-0.533,0.149-1l0.45,1.1c0.3-1.166-0.166-2.566-1.399-4.199
		c-1.334-1.767-2-2.75-2-2.95c0-0.4,0.033-0.584,0.1-0.55l0.05,0.149c0.5,0.134,1.4,0.533,2.7,1.2l-0.95-0.2
		c0.033,0.334,0.5,1.217,1.4,2.65c0.934,1.5,1.434,2.434,1.5,2.8C81.967,52.533,82.167,54.3,82.3,55.8z M94.85,51.9
		c-1.3-0.233-2.716-0.7-4.25-1.4c-2.3-1.033-3.449-2.1-3.449-3.2c0-0.166,0.116-0.416,0.35-0.75c0.333-0.5,0.833-0.967,1.5-1.399
		c-0.033,0.1-0.05,0.216-0.05,0.35s0.416,0.616,1.25,1.45c0.967,1,1.8,1.633,2.5,1.899l1.649-0.25c0-0.566-0.033-0.933-0.1-1.1
		l0.7,0.9c-0.101-0.267-0.2-0.517-0.3-0.75c-0.2-0.4-0.301-0.75-0.301-1.051l2.45,1.9c0.601,1,0.983,1.6,1.15,1.8
		c0.1,0.134,0.217,0.283,0.35,0.45c0.066,0.1,0.134,0.217,0.2,0.35c0.3,0.534,0.684,0.801,1.15,0.801L97.3,52
		c-0.934-0.033-1.733-0.066-2.399-0.1H94.85z M64.55,66.35c2.4-0.966,3.6-0.267,3.6,2.101c0,0.399-0.383,1.434-1.15,3.1
		c-0.767,1.667-1.383,2.851-1.85,3.55l-1.9,1.7l-1.7,1.5c0.2-1.366-0.017-3.467-0.65-6.3c0.133-1.233,0.583-2.8,1.35-4.7L61.8,69.9
		c0.034,0.666,0.317,1.616,0.85,2.85l-0.05-1.125c0.014,0.161,0.181,0.369,0.5,0.625c0.833-0.467,1.333-0.767,1.5-0.9
		c0.633-0.566,0.95-1.25,0.95-2.05l-0.2-2.75C65.083,66.583,64.817,66.517,64.55,66.35z M62.25,59.1l0.6,0.2
		c-0.533,1.4-0.95,2.351-1.25,2.851L62.25,62c0.7-1.134,1.65-3.217,2.85-6.25c1.1-2.767,1.7-4.45,1.8-5.05L66,50.95
		c0.733-0.601,1.6-1.05,2.6-1.351c0.066,0.634-0.517,1.75-1.75,3.351c-1.2,1.5-1.583,2.95-1.15,4.35l0.35-0.7
		c1.1,0,2.05-0.416,2.85-1.25c0.767-0.866,1.15-1.899,1.15-3.1c0.767,0,1.417,0.167,1.95,0.5c0.533,0.3,0.8,0.667,0.8,1.1
		c-1.133,0-2.1,0.551-2.9,1.65c-0.833,1.066-1.25,2.366-1.25,3.9L67,60.45l-2.45,0.8L64,61.8c-0.567,0.033-1.217,0.434-1.95,1.2
		c-1,1-2.55,1.9-4.65,2.7l-0.7,0.149L54.05,65.9H51.7c0.367-0.2,1.7-2.117,4-5.75c0.733-1.167,1.533-1.967,2.4-2.4
		c0.733-0.4,1.183-0.816,1.35-1.25c-0.3,0-0.534-0.033-0.7-0.1c-0.067-0.067-0.117-0.117-0.15-0.15l-0.1-0.3l2.7-0.05l0.2,0.1
		c-0.066,0.2-0.883,0.917-2.45,2.15c-1.4,1.133-2.284,2.566-2.65,4.3l0.55-0.601c0.6,0.667,1.183,1,1.75,1
		c0.467,0,1.167-0.35,2.1-1.05c1.066-0.8,1.6-1.55,1.6-2.25C62.3,59.316,62.283,59.167,62.25,59.1z M63.8,54.6L63.75,55.2
		c0-0.134-0.083-0.167-0.25-0.101c-0.133,0.034-0.5,0.051-1.1,0.051c0.033,0,0-0.717-0.1-2.15l0.7,0.9L63.8,54.6z M54.3,61.4
		L53.8,62.3L53.75,62l-1.1,0.6l-0.2,0.101l0.15-0.351l0.05,0.25c0.367-0.233,0.717-0.5,1.05-0.8
		C53.967,61.566,54.167,61.434,54.3,61.4z M45.15,61.95l-1.7,1.899l-1.5,1.7c0.3-1.366,0.1-3.116-0.6-5.25
		c-0.8-2.399-1.2-3.75-1.2-4.05c0.033-0.634,0.067-1.1,0.1-1.4c0.033-0.5-0.017-0.916-0.15-1.25l-0.65,0.7
		c0.2-0.7,0.716-1.55,1.55-2.55c0.233,0.533,0.4,1.85,0.5,3.95c0.133,1.967,0.433,3.366,0.9,4.2L42.2,58.8l0.25,0.45
		c0.867-0.267,1.333-0.417,1.4-0.45c0.7-0.434,1.05-1.166,1.05-2.2c-0.2-1.433-0.3-2.483-0.3-3.149
		c-0.4,0.066-0.75,0.033-1.05-0.101c1.333-0.899,2.367-0.949,3.1-0.149c0.5,0.533,0.75,1.166,0.75,1.899
		c0,0.5,0.017,0.917,0.05,1.25c0.033,0.801,0.133,1.184,0.3,1.15c-0.167,0.134-0.4,0.467-0.7,1
		C46.583,59.233,45.95,60.384,45.15,61.95z M39.45,58.75V58.7l0.05,0.05H39.45z M25,63.85c-0.033,0.867-0.067,1.367-0.1,1.5
		c-0.133,0.367-0.417,0.551-0.85,0.551c-1.167,0-1.867-0.5-2.1-1.5c-0.767-3.101-1.2-4.801-1.3-5.101c1.033,0,1.917-0.566,2.65-1.7
		c0.7-1.1,1.067-2.416,1.1-3.949V53.5c0-1.3-0.367-2.417-1.1-3.35c-0.767-0.934-1.667-1.4-2.7-1.4l-0.2-0.05
		c-0.1-0.3,0.083-0.684,0.55-1.15c0.4-0.399,0.667-0.6,0.8-0.6c1.233,0,2.167,0.333,2.8,1c0.333,0.366,0.617,0.85,0.85,1.45
		c0.367-0.233,0.867-0.684,1.5-1.351c0.6-0.566,1.1-0.95,1.5-1.149c0.233,0.033,0.434,0.033,0.6,0c0.067,0.066,0.1,0.316,0.1,0.75
		c0,0.666-0.117,2.383-0.35,5.149c-1.133,0.367-2.1,1.467-2.9,3.3c-1.067,2.434-2.4,4.417-4,5.95c1.066-0.333,2.667-2.283,4.8-5.85
		c0.267-0.434,0.917-1.05,1.95-1.851c1-0.767,1.583-1.333,1.75-1.699h-0.9c0.566-0.233,0.95-0.384,1.15-0.45
		c0.267-0.066,0.633-0.101,1.1-0.101c0.066,0,0.15,0,0.25,0c0.066,0,0.167,0.017,0.3,0.051L32.4,52.3c-0.933,0.733-1.767,1.4-2.5,2
		c-1.4,1.167-2.3,2.601-2.7,4.3l0.55-0.6c0.4,0.7,0.983,1.05,1.75,1.05c0.467,0,1.167-0.35,2.1-1.05c1.066-0.767,1.6-1.533,1.6-2.3
		c0-0.167,0-0.283,0-0.351c1.2,0.634,1.8,1.233,1.8,1.801c0,0.966-0.433,1.783-1.3,2.449c-1.2,0.967-3.3,1.784-6.3,2.45h-2.45
		l-0.2,0.351l-1.25,1.55L25,63.85z M11.05,59.45H8.6c0.6-0.5,1.983-2.45,4.15-5.851c0.267-0.333,0.983-1,2.15-2
		c1-0.866,1.5-1.383,1.5-1.55c0-0.333-0.133-0.333-0.4,0c-0.3,0.3-0.45,0.283-0.45-0.05c0-0.033,0-0.066,0-0.1
		c0.067-0.367,0.517-0.551,1.35-0.551c0.733,0,1.2,0.051,1.4,0.15c-0.1,0.3-1.033,1.134-2.8,2.5c-1.567,1.233-2.317,2.566-2.25,4
		l0.6-0.65c0.533,0.7,1.1,1.051,1.7,1.051c0.5,0,1.217-0.351,2.15-1.051c1.033-0.767,1.55-1.517,1.55-2.25
		c0-0.199-0.017-0.35-0.05-0.449c0.2,0.066,0.5,0.183,0.9,0.35c0.7,0.4,1.05,0.85,1.05,1.35c0,1-0.55,1.884-1.65,2.65
		c-1.167,0.833-3.117,1.634-5.85,2.4L11.05,59.45z M7.95,50.6c-0.2,0.067-0.434,0.101-0.7,0.101c-0.267-0.033-0.4,0.133-0.4,0.5
		c0,0.666-0.217,0.883-0.65,0.649L4.25,53.1c0.333-1.366,0.667-3.55,1-6.55c0.333-3.066,0.517-4.717,0.55-4.95l-0.1-0.55L5,41.45
		H4.95c0.267-0.367,0.933-0.983,2-1.85l0.25,0.05c0,0.333-0.233,1.167-0.7,2.5c-0.467,1.333-0.7,2.533-0.7,3.6
		c0,0.667,0.15,1.333,0.45,2l0.1-1.1c0.8,0,1.483-0.467,2.05-1.4c0.533-0.967,0.8-2.134,0.8-3.5c1.233,0,1.917,0.017,2.05,0.05
		c0.8,0.2,1.2,0.8,1.2,1.8c0,1.9-1.383,4.184-4.15,6.851C8.2,50.517,8.083,50.566,7.95,50.6z M3.25,36.25
		c0.333,0.633,1.483,1.017,3.45,1.15L8,37.95c-0.533,0.333-1.383,1.1-2.55,2.3l0.1-0.05l-0.8,1.25l-1.6,0.05L2.5,40.8
		c0.067-0.2,0.1-0.649,0.1-1.35c0.867,0.033,1.383-0.05,1.55-0.25c0.133-0.167,0.15-0.383,0.05-0.65
		C4.1,38.117,3.783,37.35,3.25,36.25z M14.2,39.5c0-0.6-0.434-1.117-1.3-1.55c-0.9-0.434-1.967-0.65-3.2-0.65l-0.3-0.55
		c0.133,0.2,0.5-0.1,1.1-0.9c0.5-0.7,0.817-1.217,0.95-1.55l-2.9,1.1l-1-1.45c3.034,0.233,4.9,0.3,5.6,0.2
		c1.2,0.767,1.833,1.15,1.9,1.15c0.434,0,0.65-0.1,0.65-0.3c-0.034-0.267-0.034-0.517,0-0.75c0.5,0.3,0.95,0.733,1.35,1.3
		c-0.466-0.833-0.7-1.267-0.7-1.3c0-0.733,0.167-1.55,0.5-2.45c1,0,1.85-0.566,2.55-1.7c0.7-1.133,1.05-2.5,1.05-4.1
		c1,0.3,2.25,0.067,3.75-0.7c1.1-0.566,2.017-1.216,2.75-1.95c-4.333-0.4-6.9-0.667-7.7-0.8c-0.433-0.4-1.033-0.75-1.8-1.05
		c-0.534-0.2-0.9-0.3-1.1-0.3l-1.7,0.1c0.067-0.9,0.1-1.45,0.1-1.65l0.15-0.05c0.167-0.067,0.45-0.1,0.85-0.1
		c0.233,0,0.417,0.017,0.55,0.05c0.034,0.034,0.067,0.067,0.1,0.1c0.5,0.3,1.167,0.6,2,0.9c0.7,0.3,1.1,0.45,1.2,0.45
		c0.533,0,1-0.133,1.4-0.4c0.733-0.434,1.2-0.7,1.4-0.8c1.2,0.267,3.483,1.184,6.85,2.75L27.5,24.2c0.3,0,1.533-0.284,3.7-0.85
		l2,0.6l-0.35,0.25c-2.767-0.267-4.2-0.184-4.3,0.25c0.034,0.267,0.117,0.533,0.25,0.8c0.4,0.367,1.3,0.783,2.7,1.25
		c1.267,0.4,2.083,0.6,2.45,0.6c0.867,0,1.466-0.117,1.8-0.35c0.2-0.133,0.483-0.367,0.85-0.7v0.45c1.767,0.3,3.783,0,6.05-0.9
		c0.2,0.167,0.567,0.483,1.1,0.95c0.567,0.434,1.2,0.75,1.9,0.95c-0.066,0.167-0.1,1.017-0.1,2.55l1.95-1.85
		c0.8,0.3,1.767,0.433,2.9,0.4c1-0.033,1.817-0.167,2.45-0.4l-3.3-1.8l1.8-1.4l1,0.55c-0.033,0.034,0.133,0.15,0.5,0.35
		c0.367,0.2,0.683,0.35,0.95,0.45c3.833,2.133,6.85,3.2,9.05,3.2c-1.434,0.034-2.667,0.367-3.7,1c-1.1,0.667-1.65,1.467-1.65,2.4
		c0.333-0.133,0.633-0.233,0.9-0.3c-0.167,0-0.333,0-0.5,0c0.9-0.633,2.017-1.167,3.35-1.6c0.967-0.3,1.617-0.45,1.95-0.45
		c2.533,0,5.017,0.85,7.45,2.55c2.1,1.434,3.35,2.817,3.75,4.15c0.767-0.933,2.283-1.433,4.55-1.5c2.434-0.066,3.75-0.183,3.95-0.35
		c0.1,1.066,0.3,1.683,0.6,1.85c0.233-0.667,0.384-1.117,0.45-1.35c0.1-0.333,0.35-0.5,0.75-0.5c2.666,0,4.083,0.583,4.25,1.75
		c-0.3,0.333-0.851,0.583-1.65,0.75c-1.033,0.233-1.7,0.417-2,0.55l0.9,0.7c-0.601,0.8-1.55,1.2-2.851,1.2L78.7,40.3
		c1.166,1.033,1.95,2.084,2.35,3.15c0.2,0.533,0.384,1.066,0.55,1.6l0.301-0.7c0.366-0.699,0.949-1.3,1.75-1.8
		c0.8-0.467,1.566-0.684,2.3-0.649c-2.434,1.966-3.65,3.05-3.65,3.25c0,0.3,0.05,0.733,0.15,1.3c0.1,0.5,0.133,0.883,0.1,1.149
		c-0.566-0.399-0.8-0.699-0.7-0.899c0.067-0.167,0.017-0.4-0.149-0.7v1.05c-0.233-0.267-0.816-0.833-1.75-1.7
		c-0.533-0.5-0.95-0.866-1.25-1.1c0.033,0,0.066,0,0.1,0l-0.45-0.3c-0.1-0.066-0.166-0.117-0.199-0.15c-1-0.533-1.601-0.8-1.801-0.8
		l0.5-2.1c-0.833-0.233-1.966-0.834-3.399-1.8c-1.233-0.833-2.184-1.25-2.851-1.25c-0.899,0-1.55,0.066-1.95,0.2
		c-0.2,0.034-0.433,0.117-0.7,0.25l-0.55,0.15c0.033,0,0.067,0,0.1,0c-0.267,0.1-0.55,0.233-0.85,0.4
		c1.367-0.2,2.184-0.25,2.45-0.15c-0.1,0.466-0.934,1.3-2.5,2.5c-1.533,1.166-2.383,2.483-2.55,3.95l0.65-0.7
		c-0.034,0.267-0.017,0.583,0.05,0.95l0.45,0.1c0.4,0.066,0.8,0.1,1.2,0.1c0.434,0,1.117-0.35,2.05-1.05
		c1.066-0.8,1.6-1.566,1.6-2.3c0-0.167,0-0.283,0-0.35c0.7,0.433,1.3,0.966,1.8,1.6c-0.767,0.7-1.3,1.616-1.6,2.75
		c-0.1,0.066-1.017,0.45-2.75,1.15c-1.767,0.666-2.85,1.066-3.25,1.199c-1.033,0-1.833,0.15-2.4,0.45l-0.6,0.45l-0.15-0.9h-1.65
		l0.65-0.449c0.733-0.267,1.6-1.134,2.6-2.601c0.933-1.434,1.433-2.517,1.5-3.25l-0.35,0.05c0.533-0.533,1.283-1.133,2.25-1.8
		c0.566-0.366,0.933-0.816,1.1-1.35c-0.367,0-0.633-0.05-0.8-0.15L66.35,39c-0.1,0.033-0.2,0.083-0.3,0.15
		c-1.066,0.6-1.633,0.9-1.7,0.9c-1.6-0.966-2.733-1.367-3.4-1.2c-0.434,0.367-0.75,0.566-0.95,0.6l-1.2-1.95
		c0.367,0.133,0.917,0.3,1.65,0.5c0.933,0.233,1.617,0.35,2.05,0.35c1.233,0,2.317-0.383,3.25-1.15c0.5-0.434,1.017-0.967,1.55-1.6
		c-2.133-0.2-3.933-0.434-5.4-0.7c-1.066-0.167-1.717-0.25-1.95-0.25c-0.7,0-1.483,0.317-2.35,0.95c-0.533-0.934-1.15-1.4-1.85-1.4
		c-0.867,0-1.783,0.483-2.75,1.45c-1.733-0.267-3.183-0.75-4.35-1.45c-1.033-0.6-1.767-0.9-2.2-0.9c-0.434,0-0.684,0.083-0.75,0.25
		c-0.067,0.133-0.1,0.45-0.1,0.95c0.3,0.433,1.033,0.983,2.2,1.65c1.333,0.767,2.4,1.15,3.2,1.15c0.7,0,1.383-0.117,2.05-0.35
		c0,1.033,0.617,1.917,1.85,2.65c1.2,0.733,2.667,1.1,4.4,1.1c0.333,0.333,0.967,0.666,1.9,1c0.833,0.3,1.433,0.45,1.8,0.45
		l-0.1,0.35c-1.467,0.333-2.65,0.884-3.55,1.65c-0.633,0.733-1,1.133-1.1,1.199c-0.633-1.3-1.15-2.25-1.55-2.85
		c-0.5-0.733-1.05-1.267-1.65-1.6c-0.233,0.866-0.367,1.767-0.4,2.699c0.2,1.067,0.483,2.167,0.85,3.301l0.05,0.199
		c0.7,1.7,1.083,2.601,1.15,2.7c0.4,1.066,0.6,1.917,0.6,2.55c0,0.767-0.1,1.467-0.3,2.101l-0.25,0.399l-5.3-1.25
		c-0.434-1.1-0.817-2.083-1.15-2.949c-0.6-1.667-0.9-2.75-0.9-3.25c0-0.334,0.133-0.601,0.4-0.801c0.267-0.233,0.4-0.517,0.4-0.85
		c0-0.1-0.567-0.55-1.7-1.35c-1.2-0.801-1.833-2.167-1.9-4.101l-0.3,0.45c-0.3,0.467-0.6,1.85-0.9,4.15c-0.2,1.8-0.3,3-0.3,3.6
		c-1.067,0-1.983,0.25-2.75,0.75c-0.6,0.4-1.2,1.05-1.8,1.95l-0.65-0.75c0.2-1.8,0.3-3.834,0.3-6.101
		c0.933-2.466,1.55-4.366,1.85-5.7l0.05-0.05c0.233-0.067,0.433-0.133,0.6-0.2c0.6-0.3,1-0.85,1.2-1.65
		c0-2.067-0.367-3.817-1.1-5.25c-0.767-1.467-1.667-2.2-2.7-2.2l1.15-1c-1.9-0.367-3.183-0.55-3.85-0.55c-0.133,0-0.55,0.2-1.25,0.6
		c-0.733,0.4-1.25,0.733-1.55,1l-0.05,0.05c-0.867-0.667-1.417-1.066-1.65-1.2c-0.833-0.434-1.933-0.7-3.3-0.8
		c-2.333-0.2-4.2,0.1-5.6,0.9c-0.367,0.233-1.133,0.934-2.3,2.1c-0.534,0-0.983,0.167-1.35,0.5c-0.4,0.3-0.6,0.684-0.6,1.15
		c-0.6,0.467-1.45,0.917-2.55,1.35l0.85,0.2c1.067-0.4,2.95-1.417,5.65-3.05c2.533-1.533,3.867-2.4,4-2.6
		c-0.333-0.467-0.25-0.633,0.25-0.5C29.183,27.817,29.833,28,29.9,28c-0.367,0.4-1.433,0.983-3.2,1.75c-1.7,0.767-2.8,1.5-3.3,2.2
		l0.8-0.4c0.267,0.867,1.1,1.3,2.5,1.3c0.333,0,0.85-0.133,1.55-0.4c0.9-0.367,1.55-0.833,1.95-1.4c-0.133-0.1-0.2-0.267-0.2-0.5
		c1.3,0.833,1.95,1.467,1.95,1.9c0,0.966-0.883,1.6-2.65,1.9c-0.9,0.167-2.9,0.3-6,0.4l-2.8-0.6c-0.2-0.033-0.4-0.05-0.6-0.05
		c-0.4,0-0.583,0.117-0.55,0.35l0.35,0.35l-1.05,0.5L24,36.15c0,0.067-0.067,0.267-0.2,0.6c-0.133,0.367-0.2,0.75-0.2,1.15
		c0,0.667,0.117,0.817,0.35,0.45c0.566-0.2,1.133-0.583,1.7-1.15c0.5,0,1,0.566,1.5,1.7c0.5,1.1,0.75,2.167,0.75,3.2
		c0,0.101-0.133,0.467-0.4,1.101c-0.3,0.733-0.6,1.383-0.9,1.95c-0.733-0.067-1.35-0.317-1.85-0.75
		c-0.467-0.534-0.817-0.9-1.05-1.101v-1.5l-0.5,0.55c-0.1-0.5-0.167-1.083-0.2-1.75V39.7c-1.833,0.366-3.483-0.417-4.95-2.35
		c-0.033-0.067-0.066-0.133-0.1-0.2c0,0.033,0.017,0.083,0.05,0.15c0.567,1.267,0.85,2.45,0.85,3.55c0,0.867-0.5,1.584-1.5,2.15
		c-1.133,0.5-1.85,0.866-2.15,1.1C15.2,42.233,14.867,40.7,14.2,39.5z M13,27.55c0.733,1,1.1,1.617,1.1,1.85
		c0,0.467-0.15,0.883-0.45,1.25c-0.566,0.733-1.617,1.1-3.15,1.1c-1.3,0-3.2-0.367-5.7-1.1l-2.1-1.3l-2-1.2
		c0.566-0.033,2.566-0.65,6-1.85c3.4-1.2,5.216-1.917,5.45-2.15l-0.8-0.5c0.167,0,0.65,0.15,1.45,0.45
		c0.767,0.3,1.184,0.483,1.25,0.55l0.05,0.25c-0.1,0.1-1.317,0.283-3.65,0.55c-2.1,0.2-3.467,0.917-4.1,2.15l0.85-0.25l-0.25,0.5
		c0.167,0.367,0.45,0.7,0.85,1c0.534,0.4,1.167,0.6,1.9,0.6c0.7,0,1.367-0.2,2-0.6C12.267,28.517,12.7,28.083,13,27.55z M8.3,23.6
		l-2.4,1.65c-0.2-0.733-0.3-1.333-0.3-1.8L8.3,23.6z M19.15,19l-2.7-1.7l0.5-0.85c1.5,1.133,2.5,1.85,3,2.15L19.15,19z M17.6,12.1
		c0,0.667,0.5,1.233,1.5,1.7c1,0.467,2.217,0.7,3.65,0.7c0.6,0.867,0.933,1.567,1,2.1l-2.6,0.15l0.6,0.4c0.8,0.033,1.8-0.05,3-0.25
		c1.067-0.2,1.95-0.433,2.65-0.7c1,0.566,1.9,0.816,2.7,0.75c0.467-0.067,1.316-0.367,2.55-0.9l1.45,0.9v0.35
		c-1.067-0.066-2.05-0.1-2.95-0.1c-1.767-0.034-3.083,0.167-3.95,0.6h0.15l-0.75,0.5c0.7,0.3,1.383,0.517,2.05,0.65
		c0.367,0.233,0.867,0.45,1.5,0.65c0.667,0.2,1.233,0.3,1.7,0.3c0.7,0,1.316-0.133,1.85-0.4l-0.1-0.55
		c0.133,0.167,0.433,0.483,0.9,0.95c0.4,0.434,0.6,0.75,0.6,0.95c0,0.4-0.05,0.65-0.15,0.75c-0.1,0.1-0.15,0.167-0.15,0.2L33.55,22
		c-0.267,0-1.383-0.267-3.35-0.8c-1.5-0.4-2.583-0.717-3.25-0.95L26.4,20l-2.35-1.45c-0.966-0.566-2.233-1.2-3.8-1.9
		c-1.267-0.533-2.85-1.467-4.75-2.8l-1.95-1.9l-1.8-1.75c1.1,0.267,2.967,0.55,5.6,0.85c2.5,0.267,3.9,0.45,4.2,0.55
		c0.233-0.033,0.367-0.083,0.4-0.15c-0.3-0.467-0.417-0.7-0.35-0.7c-0.6-0.333-1.417-0.7-2.45-1.1c1.567-0.7,2.583-0.217,3.05,1.45
		c-0.133-0.1-0.284-0.2-0.45-0.3c0.033,0.034,0.083,0.083,0.15,0.15c0.3,0.267,0.883,0.816,1.75,1.65
		c0.067,0.133,0.083,0.233,0.05,0.3c-0.4,0.2-1.2,0.05-2.4-0.45c-1.4-0.633-2.383-0.95-2.95-0.95l-1.55,0.45L17.6,12.1z M26.75,14
		l-0.55,0.55l-0.8-1C25.933,13.417,26.383,13.567,26.75,14z M37.1,23.7l0.95-0.9l0.35-0.3c0-1.433-0.267-2.667-0.8-3.7
		c-0.533-1.033-1.167-1.55-1.9-1.55c-0.534-0.333-1.35-0.733-2.45-1.2c0.533-0.4,0.983-0.633,1.35-0.7l-0.25,0.35
		c-0.233,0-0.1,0.167,0.4,0.5c0.267,0.167,0.55,0.333,0.85,0.5l0.1,0.55v-0.5c3.667,1.933,6.483,3.217,8.45,3.85
		c1.033,0.333,2.017,0.5,2.95,0.5c0.566,0,1.316-0.267,2.25-0.8c0.767,0.067,1.65-0.117,2.65-0.55c0.433,0,0.867-0.067,1.3-0.2
		c0.167-0.033,0.317-0.083,0.45-0.15c0.167-0.066,0.3-0.15,0.4-0.25l0.35-0.1h0.35L54.7,19.1l0.5-0.1l0.05,1.55
		c-3,1.267-4.95,1.75-5.85,1.45l0.6,0.4l1.25,0.1c0.633,0,1.867-0.317,3.7-0.95c1.833-0.633,3.1-0.95,3.8-0.95
		c0.333,0,0.817,0.017,1.45,0.05c0.5,0,0.816-0.05,0.95-0.15l-0.8-0.55c0.467-0.067,1.017,0.083,1.65,0.45
		c0.333,0.233,0.733,0.533,1.2,0.9l0.05,0.15c-0.367,0.233-1.533,0.383-3.5,0.45c-1.933,0.067-3.267,0.35-4,0.85l0.85-0.1l-0.1,0.7
		c-0.333-0.067-0.867-0.017-1.6,0.15c-0.833,0.167-1.483,0.417-1.95,0.75c-0.467-0.3-0.983-0.35-1.55-0.15
		c-1.433,0.066-2.433-0.383-3-1.35l-0.1,0.6c0.367,0.7,0.817,1.383,1.35,2.05l-0.15,1c-1.333-0.733-2.267-1.25-2.8-1.55
		c-0.934-0.5-1.583-0.95-1.95-1.35c0.233-0.4,0.45-0.85,0.65-1.35c0.1-0.033-0.183-0.05-0.85-0.05c-0.4,0-0.667,0.033-0.8,0.1
		c-0.133,0.133-0.283,0.233-0.45,0.3l-1.7-0.65l-0.25,0.95c0.1,0.633,0.316,1.267,0.65,1.9c-0.767,0.033-1.683-0.05-2.75-0.25
		C38.15,24.217,37.433,23.967,37.1,23.7z M39.55,14.3c-0.4,0-1.15,0.067-2.25,0.2c-1.267,0.133-2.05,0.267-2.35,0.4l-1.35-0.8
		c0.5,0.033,2.566-0.35,6.2-1.15l2.3,0.1c1.033,0.034,1.617,0.017,1.75-0.05l-0.9-0.55c1.2,0.433,2.167,0.9,2.9,1.4v0.3
		c-1.133-0.033-2.1-0.066-2.9-0.1C41.383,14.017,40.25,14.1,39.55,14.3z M38.9,12.4l-2.85,0.95c0.633-1.233,1.1-1.85,1.4-1.85
		c0.433,0,0.75,0.1,0.95,0.3L38.9,12.4z M44.45,12.8c-0.9-0.3-1.883-0.583-2.95-0.85c0.3-0.333,0.85-0.85,1.65-1.55
		c0.967-0.8,1.633-1.283,2-1.45c0.233,1.167,0.383,2.583,0.45,4.25l-1.3-0.5C44.333,12.733,44.383,12.767,44.45,12.8z M49.25,15.55
		c-1.533-1.167-2.367-1.767-2.5-1.8c0.367-0.967,0.717-1.5,1.05-1.6c0.333-0.133,0.65,0.017,0.95,0.45
		c0.267,0.4,0.433,0.95,0.5,1.65C49.283,14.95,49.283,15.383,49.25,15.55z M75.2,24.55c-1.434,0.633-2.45,1.117-3.05,1.45l-0.5,0.3
		H70.8l-0.25,1.65c0.134,0.533,0.601,1,1.4,1.4c0.6,0.333,1.184,0.55,1.75,0.65c-2.667,0.7-4.25,1.05-4.75,1.05
		c-0.233,0-0.467-0.216-0.7-0.65c-0.267-0.5-0.45-1.15-0.55-1.95c0.133-0.067,0.483-0.317,1.05-0.75c0.633-0.434,0.967-0.7,1-0.8
		l-2.3-0.15c0-1.533-0.317-2.85-0.95-3.95c-0.667-1.1-1.45-1.65-2.35-1.65l0.4-0.3c0.6,0.467,1.4,0.933,2.4,1.4s1.716,0.7,2.15,0.7
		c3.034,0,6.4-1.267,10.1-3.8c-0.3-0.267-0.584-0.45-0.851-0.55c-0.5-0.133-1.433,0.15-2.8,0.85c-2.666,0.8-4.6,1.2-5.8,1.2
		c-1.867,0-2.8-0.717-2.8-2.15c0-0.433,0.133-0.817,0.4-1.15l0.5-0.5c0.833,1.167,1.867,1.75,3.1,1.75l0.85-0.35
		c0.634-0.333,1.15-0.717,1.55-1.15c-0.1-0.3-0.283-0.517-0.55-0.65l1.05,0.35c-0.466-0.966-1.633-1.566-3.5-1.8
		c-1.933-0.067-3.066-0.133-3.399-0.2c0-0.4,0.017-0.633,0.05-0.7c0.567-0.367,1.083-0.6,1.55-0.7c0,0.1,0.017,0.217,0.05,0.35
		c0,0.067,1.65,0.683,4.95,1.85c3.3,1.133,5,1.7,5.101,1.7c0.399,0,0.616-0.017,0.649-0.05s0.101-0.133,0.2-0.3l0.05-0.05
		c-1.3-0.2-2.916-0.867-4.85-2c-2.033-1.167-3.117-1.767-3.25-1.8c0.399-0.434,0.816-0.833,1.25-1.2l1.55,0.2
		c0.033,0.1,0.083,0.217,0.15,0.35c0.199,0.533,0.316,0.983,0.35,1.35L75,12.1c2.167,0,3.316-0.083,3.45-0.25l-0.2-1.2L75.5,10.8
		c0.634-0.3,1.217-0.667,1.75-1.1L75.9,8.95c0-0.5,0.267-0.934,0.8-1.3s1.184-0.55,1.95-0.55C77.85,7.3,77.2,7.517,76.7,7.75
		l2.05-0.15l0.15,1.5c-0.034-0.067-0.067-0.083-0.101-0.05c-0.1,0.067-0.149,0.3-0.149,0.7c0,0.433,0.033,0.683,0.1,0.75
		c0.066,0.033,0.167,0.083,0.3,0.15l0.101,1.1l0.05-1.05c0.434,0.2,1.333,0.183,2.7-0.05c1.333-0.233,2.116-0.483,2.35-0.75
		L83.4,9.4l1.3-3.9l1-0.55L85.1,6.35l1.7-1.2c0.033,0.333,0.283,1.15,0.75,2.45c0.434,1.3,0.767,2.1,1,2.4L88.4,10.05L87.85,10.4
		c-0.399,0.6-0.8,1.05-1.199,1.35c-0.634,0.533-1.617,0.717-2.95,0.55l1.75,0.25c-0.367,0.867-0.55,1.784-0.55,2.75
		c0,0.4,0.05,0.65,0.149,0.75c0.233,0.367,0.384,0.617,0.45,0.75c-1.2,0.133-2.184,0.4-2.95,0.8c-0.7,0.4-1.05,0.833-1.05,1.3
		c0,0.4,0.083,0.717,0.25,0.95c0.134,0.233,0.2,0.367,0.2,0.4l2.5,0.2c1,0,2.1-0.6,3.3-1.8c1.066,0.434,1.917,0.65,2.55,0.65
		c2.533,0,5.283-1.45,8.25-4.35c0.867-0.267,1.3-0.684,1.3-1.25l0.45-0.45c-0.1,0.233-0.149,0.617-0.149,1.15
		c0.8,0.167,1.5,0.184,2.1,0.05l0.15,0.3c0.5,0.867,1.283,1.683,2.35,2.45c-2.5,2.633-4.066,4.033-4.7,4.2l0.8,0.45
		c0.534,0.167,1.351,0.367,2.45,0.6c0.934,0.267,1.684,0.3,2.25,0.1c1.101-0.2,3.033-0.533,5.8-1c2.334-0.433,3.767-0.9,4.301-1.4
		c0.233,0.7,0.55,1.35,0.949,1.95c0.801,1.267,1.817,2.2,3.051,2.8c-1.034,0.367-1.617,0.6-1.75,0.7
		c-0.067,0.033-0.101,0.283-0.101,0.75s-0.566,0.967-1.7,1.5c-1.133,0.566-2.35,0.917-3.649,1.05c0.233,0.067,1.133,0.167,2.7,0.3
		c0.533,0.066,1.017,0.15,1.449,0.25c-3.199,0.6-5.517,0.9-6.949,0.9l-0.551-0.4c0.267,0.1,0.75,0.167,1.45,0.2
		c0.634,0.033,1.134,0.033,1.5,0c0.267-0.233,0.434-0.483,0.5-0.75c-0.434-0.1-0.833-0.383-1.2-0.85L112.7,28
		c-2.566-0.667-4.483-1-5.75-1c-1.101,0-2,0.333-2.7,1c-0.5,0.5-0.75,0.917-0.75,1.25c0,0.4,0.05,0.6,0.15,0.6H104L103.85,30
		l-0.899-0.25l0.7,0.5c-0.301,0.4-0.767,0.317-1.4-0.25c-0.566,0.7-1.017,1.167-1.35,1.4c-0.967,0.6-2.134,0.75-3.5,0.45
		c0.6,1.133,1.017,1.816,1.25,2.05c0.199,0.133,0.6,0.45,1.199,0.95c0.2-0.333,0.551-0.684,1.051-1.05c0.5-0.4,0.916-0.633,1.25-0.7
		c-0.2,1.4,0.517,3.583,2.149,6.55c0.867,1.5,1.867,3.267,3,5.3l0.4,1.149c-0.7-0.533-1.316-1.25-1.851-2.149
		c-0.466-0.834-0.933-1.384-1.399-1.65l-0.101,1.25c-0.767-1.733-1.767-2.967-3-3.7c0,0.033,0.017,0.083,0.051,0.15
		c-0.067-0.1-0.184-0.033-0.351,0.2c-0.166,0.166-0.283,0.233-0.35,0.2c0.166,0.267,0.55,0.649,1.149,1.149
		c1.034,0.867,1.867,2.066,2.5,3.601l0.7,4.199l-0.149-0.3l-2.051-0.2c-2.166-0.366-3.899-1.116-5.199-2.25
		C96.616,45.7,96.1,44.884,96.1,44.15c0-0.167,0.134-0.417,0.4-0.75c0.3-0.367,0.767-0.717,1.4-1.051
		c-0.034,0.067-0.051,0.167-0.051,0.301c0,1.199,0.567,2.1,1.7,2.699c0.566,0.301,1.167,0.483,1.8,0.551
		c0.667,0,1.101-0.167,1.301-0.5l-0.101-0.45l0.5,0.75c-0.233-0.867-0.916-1.983-2.05-3.351c-1.2-1.399-1.884-2.333-2.05-2.8
		c0.1-0.033,0.233-0.05,0.399-0.05c0.2-0.033,0.5-0.033,0.9,0c0.2,0,0.366,0.017,0.5,0.05c-0.134-0.066-0.267-0.117-0.4-0.15h0.101
		c-1.367-0.5-2.483-0.75-3.351-0.75c-0.966,0-1.767,0.35-2.399,1.05C94.1,40.6,93.634,41.233,93.3,41.6l-1.5-0.55l-0.149-1.1
		c0.1-0.233,0.333-0.65,0.699-1.25c0.434-0.667,0.717-1.133,0.851-1.4c-0.967-0.267-2.2-1.066-3.7-2.4
		c-1.4-1.233-2.184-1.85-2.35-1.85c-0.334,0-1.134,0.267-2.4,0.8s-2.066,0.8-2.4,0.8c-0.866,0-1.85-0.183-2.949-0.55
		c-1.767-0.6-3.017-1.55-3.75-2.85l1.3,0.1c0.5,0.233,1.467,0.8,2.899,1.7l-0.05-0.5c-0.066-0.167-1.083-1.316-3.05-3.45
		c0.167-0.133,0.733-0.684,1.7-1.65c0.967-0.934,1.5-1.483,1.6-1.65l-3.85,0.25l3-1.3l-0.65-0.4l1.05-0.4
		c0.101,0.233,0.15,0.55,0.15,0.95c0.066,0.267,0.366,0.4,0.9,0.4c1.966,0,4.166-1.033,6.6-3.1l-4.3,0.5l-0.5-0.3l0.8-0.5
		c-2.134-1-3.533-1.5-4.2-1.5c-1.3,0-2.399,0.383-3.3,1.15c-0.833,0.7-1.25,1.434-1.25,2.2c0,0.433,0.083,0.683,0.25,0.75
		C74.85,24.533,75,24.55,75.2,24.55z M64.45,20.55l-0.4-0.45l-0.3-0.4L64.45,20.55z M79.55,8.8c0.233-0.9,0.617-1.85,1.15-2.85
		C81.1,5.983,81.9,5.967,83.1,5.9c0.101,0.767,0.15,1.9,0.15,3.4c-0.434-0.267-1.116-0.433-2.05-0.5
		C80.4,8.733,79.85,8.733,79.55,8.8z M86.3,3.4l-0.55-0.05l2.45-2.5l0.45,0.85C87.35,2.7,86.566,3.267,86.3,3.4z M97.8,1.3
		L96.15,1.9c-0.634-0.367-1.584-0.517-2.851-0.45c0.267-0.133,0.983-0.4,2.15-0.8C96.717,0.25,97.5,0.033,97.8,0V1.3z M94,6.85
		c1.167-0.367,2.116-1.083,2.85-2.15C96.616,4.433,96.4,4.283,96.2,4.25l1.05,0.05c-1.1-0.833-2.5-1.133-4.2-0.9
		C91.15,3.633,90.1,3.717,89.9,3.65c0.166-0.133,0.433-0.433,0.8-0.9c0.2-0.2,0.416-0.35,0.649-0.45L91.4,2.75
		c0-0.4,0.666-0.567,2-0.5c0.699,0.033,1.616,0.117,2.75,0.25C96.35,2.5,97.3,2.667,99,3c1.6,0.3,2.75,0.417,3.45,0.35L101,5
		l-1.4,1.4c-2.433,1.434-3.733,2.167-3.899,2.2c-0.167-0.067-1.033,0.133-2.601,0.6C92.7,9.167,92.316,9.083,91.95,8.95
		c-0.233,0-0.434-0.167-0.601-0.5c-0.199-0.367-0.3-0.784-0.3-1.25C91.95,7.4,92.934,7.283,94,6.85z M102.15,11.8l-1.45,1
		l-0.851,0.05L99.3,11.9L98.9,12.35l0.3,0.4c-0.566,0-1.05,0.133-1.45,0.4c-0.434,0.267-0.65,0.6-0.65,1
		c-0.699,0.467-1.866,1.033-3.5,1.7c-1.466,0.633-2.267,0.95-2.399,0.95c-0.767,0-1.384-0.133-1.851-0.4
		c-0.433-0.267-0.649-0.617-0.649-1.05c0-0.733,0.149-1.333,0.45-1.8l0.149,0.9h2.5c2.101-0.3,2.834-1.15,2.2-2.55l0.9,0.05
		c-0.934-0.9-2.284-1.217-4.051-0.95c-2.1,0.267-3.216,0.383-3.35,0.35l0.35-0.45c0-0.066,0.017-0.117,0.051-0.15
		c0.033-0.033,0.066-0.05,0.1-0.05c0.3-0.367,0.833-0.684,1.6-0.95l-0.55,0.6c0.5,0.167,2.033,0.083,4.601-0.25
		c3.233,0.733,4.899,1.1,5,1.1l1.399-0.05c0-0.066,0.134-0.283,0.4-0.65c-0.101,0.067-0.25,0.067-0.45,0c-0.4-0.1-0.934-0.5-1.6-1.2
		l2.1-1.65c0.866,0,1.6,0.184,2.2,0.55c0.6,0.333,0.899,0.75,0.899,1.25C103.333,9.683,102.85,10.467,102.15,11.8z M127.55,22.35
		H127.4c0.066,0.2,0.183,0.383,0.35,0.55l0.6,1.6c-1.733,0-2.683,0.083-2.85,0.25l-0.25,0.1c-1.167,0.133-2.566-0.434-4.2-1.7
		c-1.7-1.3-2.55-2.583-2.55-3.85c0-0.233,0.167-0.483,0.5-0.75c0.467-0.4,1.167-0.75,2.1-1.05c0,1.033,0.434,1.917,1.301,2.65
		c0.833,0.733,1.85,1.1,3.05,1.1l0.399,0.9c0.034-1.433-0.333-2.65-1.1-3.65c-1-1-1.717-1.817-2.15-2.45l1.851-0.7
		c0.366,0.333,0.25,0.433-0.351,0.3c0.101,0.2,0.7,1.067,1.801,2.6C126.634,19.283,127.184,20.65,127.55,22.35z M112.55,10.3
		l0.95,0.55c0,0.3,0.184,0.9,0.55,1.8c0.367,0.867,0.65,1.45,0.851,1.75l-0.7-0.65c0.566,0.767,1.184,1.4,1.85,1.9L115.9,16
		l-0.851,0.25c-1.2,0.167-2.55,0.25-4.05,0.25c-0.267,0-0.517,0-0.75,0c-0.9-0.033-1.533-0.083-1.9-0.15
		c0.301-0.4,0.617-0.883,0.95-1.45c0.033-0.066,0.066-0.133,0.101-0.2c-0.101,0.033-0.2,0.066-0.301,0.1
		c-0.533,0.167-1.116,0.317-1.75,0.45l-0.85,0.2h-0.05c-0.267-0.2-0.434-0.35-0.5-0.45c-0.101-0.1-0.15-0.35-0.15-0.75
		c0-0.333,0.45-1.1,1.351-2.3c0,0.2-0.034,0.417-0.101,0.65c0,0.4,0.233,0.7,0.7,0.9c0.3,0.133,0.833,0.333,1.6,0.6l0.301,0.15
		c0.267,0.1,0.6,0.15,1,0.15c0.666,0,1.283-0.133,1.85-0.4c0.634-0.333,0.833-0.683,0.6-1.05l-0.3-0.4l0.9,0.5
		c-0.634-0.733-1.834-1.433-3.601-2.1c-1.8-0.633-2.966-1.25-3.5-1.85c0.801-0.133,1.367-0.4,1.7-0.8l1.05,0.05l-0.8,0.35
		c0.334,0.367,0.867,0.617,1.601,0.75l-0.101,0.75c0,0.2,0.417,0.316,1.25,0.35C111.566,10.517,111.983,10.433,112.55,10.3z
		 M121.45,32c0.3,0.033,0.467-0.1,0.5-0.4c0-0.033-0.15-0.383-0.45-1.05c-0.134-0.267-0.417-1.667-0.85-4.2l-0.15-0.95l2.8,1.25
		c-0.233,0.3-0.383,0.617-0.45,0.95c-0.066,0.367-0.083,0.983-0.05,1.85c0.167,0.466,0.316,1.117,0.45,1.95
		c0.2,0.567,0.5,0.85,0.9,0.85c0.666,0,0.716,0.217,0.149,0.65l-0.2,1.45C123.5,33.883,122.616,33.1,121.45,32z M116.55,29.8
		l0.4-0.3c0.633,0.167,1.116,0.35,1.45,0.55L116.55,29.8z M110.6,18.9c0.101-0.033,0.2-0.066,0.301-0.1
		c-0.159,0.317-0.242,0.759-0.25,1.325C110.647,19.683,110.631,19.275,110.6,18.9z M84.05,14.4c-0.866-0.467-1.633-0.7-2.3-0.7
		c-1.667,0-2.55,0.133-2.65,0.4c0.134,0.467,0.067,0.85-0.199,1.15c0.133,0.1,0.3,0.2,0.5,0.3c0.166,0.067,0.466,0.117,0.899,0.15
		c0.334-0.034,1.017-0.233,2.05-0.6C83.384,14.733,83.95,14.5,84.05,14.4z M96.85,10.3l0.95-0.6l0.3,0.8L96.85,10.3z M91.8,23.6
		c0.533,0.167,1.834,0.5,3.9,1c0.666,0,0.916-0.083,0.75-0.25c-2.767-1.867-5.033-3.017-6.8-3.45c-0.2,0.033-0.4,0.117-0.601,0.25
		c-0.399,0.267-0.6,0.6-0.6,1c0,0.667,0.983,1.083,2.95,1.25c-3.2,0.167-5.051,0.5-5.551,1c0.034,0.567-0.149,0.967-0.55,1.2
		c0.033,0.133,0.334,0.267,0.9,0.4c0.533,0.1,1.066,0.15,1.6,0.15c1.467,0,2.5-0.333,3.101-1C91.233,24.817,91.533,24.3,91.8,23.6z
		 M96,21.85l-1.65-0.1l2.7,1.8l0.351-0.8l-0.15-0.05L96,21.85z M92.65,28c0.833,0.167,1.533,0.25,2.1,0.25
		c1.033,0,2.116-0.15,3.25-0.45c-1.967-1.133-3.2-1.816-3.7-2.05s-1.017-0.35-1.55-0.35c-0.467,0-0.85,0.133-1.15,0.4
		c-0.366,0.4-0.683,0.733-0.949,1l0.149,0.6C91.1,27.633,91.717,27.833,92.65,28z M95.45,21.55c1.866,0.1,3.399-0.333,4.6-1.3
		c0.7-0.6,1.717-1.717,3.05-3.35c-1.733,0.733-3.466,1.65-5.199,2.75C96.434,20.583,95.616,21.217,95.45,21.55z M93.25,44L94,46.05
		c-0.134-0.166-0.733-0.649-1.8-1.45c-1.101-0.833-1.9-1.583-2.4-2.25l0.15-0.449c0.133,0,0.533,0.05,1.2,0.149
		c0.767,0.134,1.283,0.267,1.55,0.4h-0.9C92,42.917,92.483,43.434,93.25,44z M84.4,50.65l0.5-1.2c0.3,0.434,0.733,0.916,1.3,1.45
		c-0.033,0.066-0.351,0.116-0.95,0.149L84.4,50.65z M94.3,51.85c-0.934-0.033-1.649-0.083-2.149-0.149
		c-1.7-0.2-3.017-0.517-3.95-0.95c1.233,0.4,2.833,0.733,4.8,1L94.3,51.85z M91.9,41.8h1.35v0.75L91.9,41.8z M113.2,40.35
		c-0.334,0.101-0.566,0.117-0.7,0.051c-0.566,1.899-0.866,2.75-0.9,2.55l0.2-3.35C112.4,39.867,112.866,40.116,113.2,40.35z
		 M54.05,24.95c1.567,0.267,2.9,0.133,4-0.4c1.767,0.3,3.217,0.2,4.35-0.3v-0.6c0.333,0.233,0.633,0.567,0.9,1
		c0.267,0.467,0.4,0.833,0.4,1.1s-0.133,0.533-0.4,0.8c-0.4,0.4-1.05,0.6-1.95,0.6c-3.567-0.867-5.833-1.5-6.8-1.9L54.05,24.95z
		 M38.7,17.05c1.333,0.034,2.633-0.066,3.9-0.3c0.333,0.033,0.833,0,1.5-0.1c0.7-0.066,1.15-0.167,1.35-0.3
		c-0.133-0.067-0.167-0.233-0.1-0.5c0.167,0.167,0.467,0.483,0.9,0.95c0.4,0.434,0.6,0.75,0.6,0.95c0,0.4-0.05,0.65-0.15,0.75
		c-0.1,0.133-0.15,0.217-0.15,0.25L45,18.85C43.1,18.783,41,18.183,38.7,17.05z M59.1,30c-1.2,0.033-2.317,0-3.35-0.1
		c-1.133-0.133-1.75-0.2-1.85-0.2c-2.467,0-3.6,0.867-3.4,2.6c1.1,0.9,2.75,0.867,4.95-0.1C56.85,31.6,58.067,30.867,59.1,30z
		 M60.15,34c0.467-0.833-0.033-1.283-1.5-1.35c-1.033,0.467-1.717,0.917-2.05,1.35c0.333,0.2,0.5,0.367,0.5,0.5l1.5,0.2
		C59.367,34.7,59.883,34.467,60.15,34z M35.55,30.7c0.434-0.034,1.184-0.2,2.25-0.5c1-0.267,1.65-0.483,1.95-0.65l1,0.7
		c-0.333,0.267-1,0.483-2,0.65c-0.067,0.033-1.083,0.2-3.05,0.5L35.55,30.7z M34.55,34.5c0.567,0.267,1.15,0.433,1.75,0.5
		c0.8,0.467,1.534,0.567,2.2,0.3c0.7-0.267,1.233-0.833,1.6-1.7c0.4,1,0.483,1.833,0.25,2.5c-0.333,0.833-1.233,1.25-2.7,1.25
		c-0.333,0-1.25-0.133-2.75-0.4c-1.633-0.3-2.8-0.567-3.5-0.8c0.7-0.1,1.317-0.316,1.85-0.65C33.583,35.3,34.017,34.967,34.55,34.5z
		 M61.55,50.4l5.35-0.5c-0.467,0.466-1.033,1.083-1.7,1.85c-0.633,0.7-1.017,1.167-1.15,1.4C62.517,51.517,61.683,50.6,61.55,50.4z
		 M64.75,48.6c2.233-0.199,3.983-0.483,5.25-0.85v0.05C68.567,48.2,66.817,48.467,64.75,48.6z M20.3,19.7l1.15-0.3l0.9,0.35
		c-0.4,0.2-0.767,0.3-1.1,0.3C21.017,20.017,20.7,19.9,20.3,19.7z M14.2,22.05c0.033,0.034,0.066,0.05,0.1,0.05
		c0,0.433-0.133,0.8-0.4,1.1c-0.267,0.3-0.6,0.45-1,0.45l-1-0.15h0.4c0.034-0.333-0.117-0.567-0.45-0.7l-0.45-0.1
		c0.434-0.2,0.65-0.383,0.65-0.55l1.7-0.1C13.917,22.05,14.067,22.05,14.2,22.05z M14.5,47.25l-0.75,1.05
		c0,0.733-0.317,1.367-0.95,1.9c-0.667,0.533-1.466,0.8-2.4,0.8l-0.05-0.05l1.4-1.25c0.833-0.834,1.717-1.95,2.65-3.351L14.5,47.25z
		 M23.65,27.15c-1.367,0.033-2.066,0.133-2.1,0.3l4.25-0.15C25.733,27.2,25.017,27.15,23.65,27.15z M30.85,37.6
		c0.967,0.5,2.1,0.983,3.4,1.45c0.033,0.233,0.117,1.033,0.25,2.4c-0.033,1.333-0.433,2.184-1.2,2.55
		c-1.167-0.3-1.883-0.533-2.15-0.7c-1.133-0.8-1.7-2.233-1.7-4.3l0.2-1.7L30.85,37.6z M36.8,52.5v0.05
		c-0.433-0.366-0.883-0.666-1.35-0.899l-0.6-0.25l-0.4-0.051c-0.067-0.033-0.95,0.017-2.65,0.15l-1.1,0.35
		c0.566-0.933,1.733-2.733,3.5-5.399c2.167-3.3,3.466-5.15,3.9-5.55c0.3,0.666,0.7,1.483,1.2,2.449c0,0.067-0.333,1.067-1,3
		C37.567,48.45,37.067,50.5,36.8,52.5z M35.7,39.5l1.15,0.2H35.7V39.5z M78.65,60.3c-0.101,0.2-0.601,1.434-1.5,3.7
		c-0.601,0.533-1.634,1.017-3.101,1.45c-1.233,0.333-2.149,1-2.75,2l-0.399-1.2c-0.367-6.066,0.533-9.1,2.699-9.1
		c0.134,0,0.4,0.133,0.801,0.399c0.466,0.267,0.85,0.601,1.149,1C75.483,58.517,75.3,58.5,75,58.5c-0.7,0-1.25,0.616-1.65,1.85
		c-0.166,0.634-0.283,1.301-0.35,2c0,0.101,0.1,0.384,0.3,0.851c0.267,0.533,0.517,0.983,0.75,1.35c0.033,0,0.316-0.133,0.851-0.399
		l-0.7,1c0.767-0.601,1.483-1.65,2.149-3.15c0.733-1.733,1.467-3,2.2-3.8C78.65,58.634,78.684,59.333,78.65,60.3z M67.8,62.1
		c0.267-0.267,0.534-0.466,0.8-0.6l0.05,1.2L67.8,62.1z M70.8,72.9c0.233,0.833,0.267,1.633,0.101,2.399l-0.25,0.75H68.7
		c0-0.434,0.033-0.934,0.1-1.5c0.1-1.1,0.3-1.883,0.6-2.35c-0.033,0.133-0.017,0.467,0.05,1c0.066,0.5,0.183,0.883,0.35,1.149
		c0.167,0.233,0.351,0.267,0.55,0.101C70.517,74.283,70.667,73.767,70.8,72.9z"/>
	<path style="fill-rule:evenodd;clip-rule:evenodd;fill:#585D3B;" d="M114.9,14.4c-0.2-0.3-0.483-0.883-0.851-1.75
		c-0.366-0.9-0.55-1.5-0.55-1.8l0.25-0.75c0.833-1.3,2.333-2.35,4.5-3.15L118.2,7l-1,0.8L117.1,8.2c0.301,0.3,1.351,0.617,3.15,0.95
		c1.866,0.367,3.134,0.817,3.8,1.35l-0.899-0.3c-1.267-0.534-2.467-0.633-3.601-0.3c-0.934,0.434-1.434,0.65-1.5,0.65
		c-0.6,0.6-0.899,1.217-0.899,1.85c0,0.467,0.233,0.883,0.699,1.25c0.601,0.434,1.417,0.65,2.45,0.65c0.334,0,1.084-0.117,2.25-0.35
		c1.267-0.267,2.334-0.534,3.2-0.8c-1.934,1.033-3.316,1.7-4.15,2c-1.033,0.367-2.116,0.55-3.25,0.55c-0.6,0-0.983-0.017-1.149-0.05
		C116.434,15.483,115.667,15.067,114.9,14.4z M132.05,21l3.55,0.6l0.95,1.05c-3.566-0.1-6.333-0.233-8.3-0.4l-0.55-2l0.35,0.05
		c0.434,0.2,1.033,0.4,1.8,0.6C130.85,21.133,131.583,21.167,132.05,21z M130.35,18.8l-2.85,0.05l-0.15-0.6
		C128.384,18.35,129.384,18.533,130.35,18.8z M127.55,19.5l0.55,0.6l-0.449-0.05L127.55,19.5z M132.25,24.95l0.3,0.9
		c-0.934,0-1.75-0.184-2.45-0.55c0.034-0.033,0.051-0.117,0.051-0.25c0-0.4-0.101-0.566-0.301-0.5c-0.233,0.067-0.433,0.133-0.6,0.2
		c-0.434-0.433-0.65-0.933-0.65-1.5c1.233,0.233,2.301,0.65,3.2,1.25c0.334,0,0.566,0,0.7,0c-0.333,0.133-0.616,0.183-0.85,0.15
		L131.3,24.6L132.25,24.95z M134.35,28.25l-0.55-0.75c0.767,0.433,1.5,0.65,2.2,0.65C135.533,28.183,134.983,28.217,134.35,28.25z
		 M135.55,29.25c0.233,0.267,1,1.117,2.3,2.55c-0.1-0.066-0.416-0.333-0.949-0.8c-0.667-0.633-1.284-1.267-1.851-1.9L135.55,29.25z
		 M138.05,32.2l0.2,0.35c-0.866,0.067-1.517,0.083-1.95,0.05l1.55-0.35L138.05,32.2z M138,34c-0.566,0-1.05-0.1-1.45-0.3
		c-0.399-0.2-0.6-0.434-0.6-0.7L138,34z M134.5,40.55l-1.9-0.7l0.7-0.65v-0.05L134.5,40.55z M124.1,38.7l-1.85,1.6l0.6,1
		c-2.767-0.267-4.416-0.316-4.949-0.149c0.066,3.033,0.333,5.05,0.8,6.05l0.35-0.351l-0.1,0.2c-0.233,0.233-0.783,0.517-1.65,0.851
		V47.85c-0.1-0.666-0.25-1.283-0.45-1.85c0.2-0.233,0.4-0.634,0.601-1.2c0.2-0.6,0.3-1.133,0.3-1.6c0-0.101-0.116-0.584-0.35-1.45
		c-0.067-0.2-0.117-0.384-0.15-0.55c0.033-0.267,0.05-0.417,0.05-0.45c-0.033,0-0.1,0.017-0.2,0.05c0-0.066-0.017-0.116-0.05-0.149
		V40.55c-0.133-0.366-0.25-0.683-0.35-0.95C118.6,39.6,121.066,39.3,124.1,38.7z M72.8,71.1c0.233,0,0.45-0.133,0.65-0.399
		c-0.2,0.3-0.417,0.45-0.65,0.45V71.1z M53.75,62l0.05,0.3l-0.5,0.851L53.75,62z M39.45,58.7v0.05l-1.6,0.05
		c0.267-0.033,0.5-0.184,0.7-0.45c0.2-0.3,0.3-0.666,0.3-1.1C39.017,57.783,39.217,58.267,39.45,58.7z M3.85,46.05L4,47.9
		c-0.133-0.134-0.233-0.233-0.3-0.301c-0.067-0.1-0.1-0.35-0.1-0.75c0-0.433,0.033-0.683,0.1-0.75
		C3.733,46.066,3.783,46.05,3.85,46.05z M3.15,41.5l1.6-0.05c-0.1,0.233-0.333,0.583-0.7,1.05L3.15,41.5z M2.6,39.45
		c0,0.7-0.033,1.149-0.1,1.35c-0.067,0.066-0.5-0.416-1.3-1.45l1.4,0.05V39.45z M6.7,37.4c-1.967-0.133-3.117-0.517-3.45-1.15
		c0.033,0.033,0.35,0.1,0.95,0.2C4.967,36.617,5.8,36.933,6.7,37.4z M9.7,37.3c1.233,0,2.3,0.217,3.2,0.65
		c0.867,0.433,1.3,0.95,1.3,1.55c0.2,0.533,0.367,1.583,0.5,3.15c-2.9,4.466-4.967,7.1-6.2,7.899c-0.333,0.233-0.517,0.25-0.55,0.05
		c0.133-0.033,0.25-0.083,0.35-0.149c2.767-2.667,4.15-4.95,4.15-6.851c0-1-0.4-1.6-1.2-1.8c-0.133-0.033-0.817-0.05-2.05-0.05
		c-0.534,0.467-1.133,1.3-1.8,2.5c-0.6,1.1-0.95,1.9-1.05,2.4l-0.1,1.1c-0.3-0.667-0.45-1.333-0.45-2c0-1.066,0.233-2.267,0.7-3.6
		c0.467-1.334,0.7-2.167,0.7-2.5L6.95,39.6l-1.4,0.6l-0.1,0.05c1.167-1.2,2.017-1.967,2.55-2.3C8.367,37.683,8.933,37.467,9.7,37.3z
		 M9.4,36.75L8.55,35.4l2.9-1.1c-0.133,0.333-0.45,0.85-0.95,1.55C9.9,36.65,9.533,36.95,9.4,36.75z M14.05,24.65
		c-0.066-0.2-0.45-0.533-1.15-1c0.4,0,0.733-0.15,1-0.45c0.267-0.3,0.4-0.667,0.4-1.1c-0.033,0-0.066-0.017-0.1-0.05
		c-0.3-0.1-0.833-0.15-1.6-0.15l1.05-0.35l1-0.25l1.7-0.1c0.2,0,0.566,0.1,1.1,0.3c0.767,0.3,1.367,0.65,1.8,1.05
		c-0.733-0.133-1.383-0.017-1.95,0.35c-0.1,0.067-0.417,0.367-0.95,0.9c0.533,0.667,1.883,1.4,4.05,2.2
		c-1.233,2.7-2.467,4.617-3.7,5.75c-1.133,1-2.45,1.5-3.95,1.5c-1.033,0-2.45-0.317-4.25-0.95c-1.6-0.566-2.833-1.117-3.7-1.65
		c2.5,0.733,4.4,1.1,5.7,1.1c1.533,0,2.583-0.367,3.15-1.1c0.3-0.367,0.45-0.783,0.45-1.25c0-0.233-0.367-0.85-1.1-1.85
		c-0.833-0.533-1.517-0.816-2.05-0.85c-0.8-0.1-2.05,0.117-3.75,0.65L6.35,27.6c0.633-1.233,2-1.95,4.1-2.15
		C12.783,25.183,14,25,14.1,24.9L14.05,24.65z M19.15,9.65L19,9.6c1.067-2.067,1.917-3.1,2.55-3.1c0.667,0,1.434,0.633,2.3,1.9
		l0.4,1.35c0.3,1.567,0.4,2.35,0.3,2.35l0.1,0.7l0.75,0.75l0.8,1c-0.067,0.333,0.1,0.717,0.5,1.15l-2.95,0.9
		c-0.067-0.533-0.4-1.233-1-2.1c-0.233-0.367-0.617-0.733-1.15-1.1c-1-0.7-2.333-1.133-4-1.3l-0.8-0.15l1.55-0.45
		c0.566,0,1.55,0.317,2.95,0.95c1.2,0.5,2,0.65,2.4,0.45c0.033-0.066,0.017-0.167-0.05-0.3c-0.133-0.233-0.4-0.533-0.8-0.9
		c-0.367-0.333-0.583-0.534-0.65-0.6C21.733,9.433,20.717,8.95,19.15,9.65z M34.1,16.95c-0.067-0.2-0.517-0.534-1.35-1l0.05-0.05
		l0.45,0.15c1.1,0.467,1.917,0.867,2.45,1.2c0.733,0,1.367,0.517,1.9,1.55c0.533,1.034,0.8,2.267,0.8,3.7l-0.35,0.3
		c-0.4,0.267-1.017,0.5-1.85,0.7c-3.534-1.133-6.284-2.083-8.25-2.85l-1-0.4c0.667,0.233,1.75,0.55,3.25,0.95
		c1.966,0.533,3.083,0.8,3.35,0.8l1.25-0.2c0-0.033,0.05-0.1,0.15-0.2c0.1-0.1,0.15-0.35,0.15-0.75c0-0.2-0.2-0.517-0.6-0.95
		c-0.467-0.467-0.767-0.783-0.9-0.95c-0.5-0.333-1.05-0.633-1.65-0.9H31.9c-1.2-0.3-2.283-0.417-3.25-0.35l-1.3,0.1H27.2
		c0.867-0.433,2.183-0.633,3.95-0.6c0.9,0,1.883,0.033,2.95,0.1V16.95z M46.75,13.75c0.133,0.033,0.967,0.633,2.5,1.8l1.05,1.7
		c-1.133-0.4-2.167-0.633-3.1-0.7l0.25,0.85c1,1,1.85,1.7,2.55,2.1c-1,0.633-1.85,0.95-2.55,0.95c-1.3,0-3.75-0.833-7.35-2.5
		l-1.65-0.9h0.25c2.3,1.133,4.4,1.733,6.3,1.8l1.55-0.1c0-0.033,0.05-0.117,0.15-0.25c0.1-0.1,0.15-0.35,0.15-0.75
		c0-0.2-0.2-0.517-0.6-0.95c-0.433-0.466-0.733-0.783-0.9-0.95c-0.467-0.434-1.184-0.783-2.15-1.05
		c-0.967-0.3-1.784-0.383-2.45-0.25l-1.2-0.25c0.7-0.2,1.833-0.283,3.4-0.25c0.8,0.034,1.767,0.067,2.9,0.1v-0.3
		c-0.067-0.133-0.533-0.483-1.4-1.05c-0.067-0.033-0.117-0.066-0.15-0.1l1.3,0.5L46.75,13.75z M55.2,19l-0.5,0.1l0.15-0.05L55.2,19z
		 M58.8,37.5l1.2,1.95c-0.2,0-0.367,0.133-0.5,0.4c-0.133,0.233-0.2,0.516-0.2,0.85c-1.733,0-3.2-0.367-4.4-1.1
		c-1.233-0.733-1.85-1.617-1.85-2.65c1.3-0.434,2.217-0.767,2.75-1l-2.8-0.3c0.967-0.967,1.883-1.45,2.75-1.45
		c0.7,0,1.317,0.466,1.85,1.4c0,0.533,0.117,0.983,0.35,1.35C58.183,37.317,58.467,37.5,58.8,37.5z M57.9,32.65l-0.4,0.3
		c0-0.934,0.55-1.733,1.65-2.4c1.033-0.633,2.267-0.966,3.7-1c0.066,0,0.15,0,0.25,0c0.5-0.033,1.117-0.183,1.85-0.45
		c0.9-0.033,1.816-0.25,2.75-0.65c0.1,0.8,0.283,1.45,0.55,1.95c0.233,0.434,0.467,0.65,0.7,0.65c0.5,0,2.083-0.35,4.75-1.05
		c1-0.067,2.017-0.367,3.05-0.9c1.967,2.133,2.983,3.283,3.05,3.45l0.05,0.5c-1.433-0.9-2.399-1.466-2.899-1.7l-1.3-0.1
		c0.733,1.3,1.983,2.25,3.75,2.85c1.1,0.367,2.083,0.55,2.949,0.55c0.334,0,1.134-0.267,2.4-0.8s2.066-0.8,2.4-0.8
		c0.166,0,0.949,0.617,2.35,1.85c1.5,1.333,2.733,2.133,3.7,2.4c-0.134,0.267-0.417,0.733-0.851,1.4
		c-0.366,0.6-0.6,1.017-0.699,1.25l0.149,1.1l-5.6-2v0.15l-0.9-0.7c0.3-0.133,0.967-0.317,2-0.55c0.8-0.167,1.351-0.417,1.65-0.75
		c-0.167-1.167-1.584-1.75-4.25-1.75c-0.4,0-0.65,0.167-0.75,0.5c-0.066,0.233-0.217,0.683-0.45,1.35c-0.3-0.167-0.5-0.783-0.6-1.85
		c-0.2,0.167-1.517,0.283-3.95,0.35c-2.267,0.067-3.783,0.567-4.55,1.5c-0.4-1.333-1.65-2.716-3.75-4.15
		c-2.434-1.7-4.917-2.55-7.45-2.55c-0.333,0-0.983,0.15-1.95,0.45C59.917,31.483,58.8,32.017,57.9,32.65z M67.45,26.75
		c-1.233-0.033-2.1-0.017-2.6,0.05c-0.8,0.1-1.317,0.483-1.55,1.15c0.1,0.333,0.3,0.617,0.6,0.85
		c-0.533,0.034-2.183-0.517-4.95-1.65c-2.5-1-3.967-1.633-4.4-1.9c0.967,0.4,3.233,1.033,6.8,1.9c0.9,0,1.55-0.2,1.95-0.6
		c0.267-0.267,0.4-0.533,0.4-0.8s-0.133-0.633-0.4-1.1c-0.267-0.433-0.566-0.767-0.9-1c-0.967-0.5-1.617-0.8-1.95-0.9
		c-1.4-0.433-2.684-0.467-3.85-0.1l-0.85,0.1c0.733-0.5,2.067-0.783,4-0.85c1.967-0.066,3.133-0.217,3.5-0.45L63.2,21.3
		c-0.434-0.367-0.733-0.633-0.9-0.8c-0.2-0.167-0.25-0.25-0.15-0.25c0.033,0,0.1,0.017,0.2,0.05l1.8,0.85
		c0.9,0,1.684,0.55,2.35,1.65C67.133,23.9,67.45,25.217,67.45,26.75z M75.55,19.45c-0.833,0.433-2.333,1-4.5,1.7
		c-1.933,0.6-2.966,0.9-3.1,0.9c-0.434,0-0.833-0.083-1.2-0.25c-0.7-0.4-1.467-0.816-2.3-1.25l-0.7-0.85c0-1.733,0.367-3.2,1.1-4.4
		c0.7-1.233,1.566-1.85,2.6-1.85l0.15-0.05h0.1l0.35-0.1v0.05L67,14.1c-0.033,0.066-0.05,0.3-0.05,0.7
		c0.333,0.067,1.466,0.133,3.399,0.2c1.867,0.233,3.034,0.833,3.5,1.8l-1.05-0.35c-1.3-0.333-2.283-0.483-2.95-0.45
		c-0.733,0.067-1.4,0.35-2,0.85l-0.5,0.5c-0.267,0.333-0.4,0.717-0.4,1.15c0,1.433,0.933,2.15,2.8,2.15
		C70.95,20.65,72.884,20.25,75.55,19.45z M72.7,11.9l1.05-0.6c0.134,0.133,0.25,0.3,0.35,0.5l0.2,0.3h-0.05L72.7,11.9z M75.5,10.8
		l2.75-0.15l0.2,1.2c-0.134,0.167-1.283,0.25-3.45,0.25l0.3-1.2L75.5,10.8z M78.75,7.6L76.7,7.75c0.5-0.233,1.149-0.45,1.95-0.65
		L78.75,7.6z M91.95,8.95c-0.233,0-1.351,0.333-3.351,1c-0.466-0.667-0.883-1.767-1.25-3.3C87.083,5.483,86.95,4.733,86.95,4.4
		L86.8,5.15l-1.7,1.2l0.601-1.4c0.5-0.4,1.017-0.867,1.55-1.4L86.3,3.4c0.267-0.133,1.05-0.7,2.351-1.7
		c0.733-0.3,1.533-0.5,2.399-0.6H91.4l1.55,0.45c-0.834,0-1.55,0.217-2.15,0.65C90.2,2.6,89.9,3.083,89.9,3.65
		C90.1,3.717,91.15,3.633,93.05,3.4c1.7-0.233,3.101,0.067,4.2,0.9L96.2,4.25H96.1c-0.6-0.1-1.316-0.067-2.149,0.1
		c-0.9,0.2-1.566,0.517-2,0.95C90.917,5.5,90.3,5.8,90.1,6.2c0.101,0.433,0.417,0.767,0.95,1c0,0.466,0.101,0.883,0.3,1.25
		C91.517,8.783,91.717,8.95,91.95,8.95z M93.1,9.2c1.567-0.467,2.434-0.667,2.601-0.6c0.166-0.033,1.467-0.767,3.899-2.2
		c-0.666,0.667-2.5,1.733-5.5,3.2C93.9,9.567,93.566,9.433,93.1,9.2z M97.65,2.3l-1.5-0.4L97.8,1.3l-0.1,0.9L97.65,2.3z
		 M104.35,8.95c0.233,0.066,0.983,0.117,2.25,0.15c0.534,0.6,1.7,1.217,3.5,1.85c1.767,0.667,2.967,1.367,3.601,2.1l-0.9-0.5
		c-0.366-0.2-1.05-0.433-2.05-0.7s-1.616-0.4-1.85-0.4c-0.4,0-0.817,0.083-1.25,0.25l-0.5,0.25c-0.9,1.2-1.351,1.966-1.351,2.3
		c0,0.4,0.05,0.65,0.15,0.75c0.066,0.1,0.233,0.25,0.5,0.45c-0.566,0-1.05,0.133-1.45,0.4s-0.6,0.583-0.6,0.95
		c-0.667-0.466-1.334-1.15-2-2.05l-0.15-0.3c0.366-0.067,0.934-0.233,1.7-0.5c0.833-0.267,1.316-0.45,1.45-0.55
		c-1.034-0.833-1.884-1.35-2.551-1.55l-0.699-0.05c0.699-1.333,1.183-2.117,1.449-2.35L104.35,8.95z M125.45,21.25
		c-0.634-1.733-2.084-2.983-4.351-3.75c-0.933,0.3-1.633,0.65-2.1,1.05c-0.333,0.267-0.5,0.517-0.5,0.75
		c0,1.267,0.85,2.55,2.55,3.85c1.634,1.267,3.033,1.833,4.2,1.7l0.25-0.1c0.167-0.167,1.116-0.25,2.85-0.25l0.65,0.05
		c-0.667,0.1-1.1,0.25-1.3,0.45l-0.2,0.3c0.233,0.167,1.134,0.784,2.7,1.85c1.566,1.133,2.533,2.067,2.899,2.8l-0.75-0.65
		c-0.699-0.6-1.183-1-1.449-1.2c-0.4-0.3-1-0.45-1.801-0.45l-1.6,0.2c-0.033-0.033-0.066-0.05-0.1-0.05
		c-0.034,0-0.051,0.067-0.051,0.2c-0.933,0.767-1.399,1.317-1.399,1.65c0,1.033,0.767,1.883,2.3,2.55
		c1.467,0.633,3.267,0.917,5.4,0.85c-2.9,0.367-4.934,0.434-6.101,0.2c-1.866-0.433-3.45-1.7-4.75-3.8
		c-0.033-0.867-0.017-1.483,0.05-1.85c0.067-0.333,0.217-0.65,0.45-0.95l1-1.3c-1.166-0.4-2.05-0.717-2.649-0.95
		c-3.4-2.133-5.334-3.85-5.801-5.15l0.2-1.2L115.6,18c0-0.733,0.101-1.4,0.301-2l0.149-0.35c0.7,0.3,1.917,0.467,3.65,0.5
		c1.3,0.033,2.267,0,2.899-0.1c0.434,0.633,1.15,1.45,2.15,2.45c0.767,1,1.134,2.217,1.1,3.65L125.45,21.25z M112.15,37.55
		c0.933,0.9,2,1.534,3.199,1.9c0,0.733-0.116,1.85-0.35,3.35c-0.3,2.033-0.684,3.417-1.15,4.15l0.301-1.05
		c0.399-1.434,0.383-2.75-0.051-3.95c-0.533-0.967-0.833-1.5-0.899-1.601c-0.334-0.233-0.8-0.483-1.4-0.75L112.15,37.55z
		 M125.1,37.7l-0.8-0.7l1.45-0.5L125.1,37.7z M124.1,34.35l0.2-1.45c0.5,1.333,0.816,2.117,0.95,2.35
		C124.884,35.017,124.5,34.717,124.1,34.35z M122.25,37.6c-0.733,0.2-1.8,0.417-3.2,0.65c-1.434,0.233-2.399,0.35-2.899,0.35
		c-0.801,0-1.717-0.333-2.75-1c-0.967-0.633-1.784-1.383-2.45-2.25l-0.25-1.8l0.149-0.8l0.2-0.4l0.101-0.2
		c0.233-0.367,0.566-0.75,1-1.15l3-0.55L115.1,30.5c0.301,0.367,1.284,0.967,2.95,1.8c1.566,0.8,2.634,1.567,3.2,2.3l-0.85-0.55
		c-1.534-0.767-2.65-1.15-3.351-1.15c-0.399,0-0.783,0.067-1.149,0.2l-0.45,0.15c-0.9,0.967-1.351,1.633-1.351,2
		c0,0.567,0.267,1.033,0.801,1.4c0.933,0.7,2.6,1.05,5,1.05C120.566,37.7,121.35,37.667,122.25,37.6z M105.3,17.3
		c1.267-0.133,2.283-0.45,3.05-0.95c0.367,0.066,1,0.117,1.9,0.15c0.233,0,0.483,0,0.75,0c1.5,0,2.85-0.083,4.05-0.25l-2.149,0.7
		c-0.934,0.1-1.767,0.2-2.5,0.3c-1.367,0.133-2.417,0.217-3.15,0.25C106.45,17.533,105.8,17.467,105.3,17.3z M103.85,30l0.15-0.15
		c0.5,0.133,1.167,0.2,2,0.2c1-0.033,1.9-0.183,2.7-0.45l2.649-1.05c0.367,0.467,0.767,0.75,1.2,0.85
		c-0.066,0.267-0.233,0.517-0.5,0.75c-0.366,0.033-0.866,0.033-1.5,0c-0.7-0.033-1.184-0.1-1.45-0.2l0.551,0.4
		c-0.567,0.033-1.45,0.017-2.65-0.05C105.733,30.233,104.684,30.133,103.85,30z M110.8,31.6l-0.1-0.1l0.6-0.25L110.8,31.6z
		 M107.15,33.1c-0.634-0.067-1-0.067-1.101,0c-0.399,0.1-0.899,0.566-1.5,1.4c0.033,0.433,0.566,1.633,1.601,3.6
		c0.966,1.8,1.583,2.85,1.85,3.15c-1.4-1.267-2.5-2.35-3.3-3.25c-1.4-1.633-2.101-3.117-2.101-4.45c0-0.633,0.217-1.55,0.65-2.75
		l-0.65,1.05l-0.449,1.25c-0.334,0.066-0.75,0.3-1.25,0.7c-0.5,0.367-0.851,0.717-1.051,1.05c-0.6-0.5-1-0.817-1.199-0.95
		c-0.233-0.233-0.65-0.917-1.25-2.05c1.366,0.3,2.533,0.15,3.5-0.45c0.333-0.233,0.783-0.7,1.35-1.4c0.634,0.567,1.1,0.65,1.4,0.25
		C104.384,31.083,105.55,32.033,107.15,33.1z M109.7,33.45c0.1,0.3,0.267,0.767,0.5,1.4c0.2,0.6,0.3,1.1,0.3,1.5
		s-0.05,0.717-0.15,0.95c-0.333,0.9-0.5,1.367-0.5,1.4v-0.95c0-0.467-0.233-1.233-0.699-2.3c-0.334-0.667-0.667-1.233-1-1.7
		c0.866,0.6,1.366,1.017,1.5,1.25L109.7,33.45z M110.65,31.5c0.066,0.1,0.183,0.267,0.35,0.5l-0.5-0.4L110.65,31.5z M94,11.9
		c-1.3-0.066-2.366,0.083-3.2,0.45c-0.366,0.2-0.916,0.6-1.649,1.2c-0.301,0.467-0.45,1.067-0.45,1.8
		c0,0.433,0.217,0.783,0.649,1.05c0.467,0.267,1.084,0.4,1.851,0.4c0.133,0,0.934-0.316,2.399-0.95c1.634-0.667,2.801-1.233,3.5-1.7
		c-0.767,0.767-2.017,1.7-3.75,2.8c-1.8,1.133-2.966,1.7-3.5,1.7L87.95,18.4l1.1-1.5c-1.066,0.067-1.916,0.083-2.55,0.05
		c-0.5-0.067-0.833-0.117-1-0.15c-0.066-0.133-0.217-0.383-0.45-0.75c-0.1-0.1-0.149-0.35-0.149-0.75c0-0.966,0.183-1.883,0.55-2.75
		L83.7,12.3c1.333,0.167,2.316-0.017,2.95-0.55c0.399-0.3,0.8-0.75,1.199-1.35l0.551-0.35L88,10.7c-0.033,0-0.066,0.017-0.1,0.05
		c-0.034,0.033-0.051,0.083-0.051,0.15l-0.35,0.45c0.134,0.033,1.25-0.083,3.35-0.35c1.767-0.267,3.117,0.05,4.051,0.95L94,11.9z
		 M82.95,22.7l-1.4,0.25l0.9-0.55L82.95,22.7z M76.2,26.05l-4.55,0.25l0.5-0.3c0.6-0.333,1.616-0.817,3.05-1.45
		c0.967,0.167,2.083,0.1,3.35-0.2l0.65,0.4L76.2,26.05z M94,46.05l0.35,0.55c0,0.301,0.101,0.65,0.301,1.051
		c0.1,0.233,0.199,0.483,0.3,0.75l-0.7-0.9c-0.866-1.1-1.917-1.85-3.15-2.25c-0.566-0.2-1.166-0.3-1.8-0.3
		c-0.033,0-0.066,0.017-0.1,0.05c-0.033,0-0.066-0.017-0.101-0.05c-0.066-0.033-0.1,0.033-0.1,0.2
		c-0.667,0.433-1.167,0.899-1.5,1.399c-0.233,0.334-0.35,0.584-0.35,0.75c0,1.101,1.149,2.167,3.449,3.2
		c1.534,0.7,2.95,1.167,4.25,1.4L94.3,51.85l-1.3-0.1c-1.967-0.267-3.566-0.6-4.8-1c-2.033-1.366-3.334-2.533-3.9-3.5l0.601,2.2
		l-0.5,1.2C83.8,50.116,83.184,49.1,82.55,47.6c0.033-0.267,0-0.649-0.1-1.149c-0.101-0.566-0.15-1-0.15-1.3
		c0-0.2,1.217-1.284,3.65-3.25c0.566,0,1.983-0.034,4.25-0.101L89.95,41.9L89.8,42.35c0.5,0.667,1.3,1.417,2.4,2.25
		C93.267,45.4,93.866,45.884,94,46.05z M93.3,41.6c0.334-0.366,0.8-1,1.4-1.899c0.633-0.7,1.434-1.05,2.399-1.05
		c0.867,0,1.983,0.25,3.351,0.75h-0.101c-0.399,0-0.733,0.033-1,0.1c-0.166,0-0.3,0.017-0.399,0.05c0.166,0.467,0.85,1.4,2.05,2.8
		c1.134,1.367,1.816,2.483,2.05,3.351l-0.5-0.75c-0.733-1.134-1.649-1.934-2.75-2.4c-1-0.2-1.533-0.316-1.6-0.35h-0.05
		c-0.034,0-0.084-0.017-0.15-0.05c-0.066-0.034-0.1,0.033-0.1,0.199c-0.634,0.334-1.101,0.684-1.4,1.051
		c-0.267,0.333-0.4,0.583-0.4,0.75c0,0.733,0.517,1.55,1.551,2.449c1.3,1.134,3.033,1.884,5.199,2.25c-2.666,0-4.933-0.6-6.8-1.8
		c-1.733-1.133-2.666-2.5-2.8-4.1v-0.4V41.8L93.3,41.6z M91.8,23.6c-0.434-0.133-0.416-0.167,0.05-0.1L91.4,23.4
		c-1.967-0.167-2.95-0.583-2.95-1.25c0-0.4,0.2-0.733,0.6-1c0.2-0.133,0.4-0.217,0.601-0.25c1.767,0.434,4.033,1.583,6.8,3.45
		c0.166,0.167-0.084,0.25-0.75,0.25C93.634,24.1,92.333,23.767,91.8,23.6z M98.55,14.95l1.3-1.25
		C99.85,14.267,99.417,14.683,98.55,14.95z M96,21.85l1.25,0.85l0.15,0.05l-0.351,0.8l-2.7-1.8L96,21.85z M52.35,25.55l1.45,0.8
		c-0.267-0.1-0.583-0.25-0.95-0.45C52.483,25.7,52.317,25.583,52.35,25.55z M49.5,26.4l0.15-1c-0.533-0.667-0.983-1.35-1.35-2.05
		l0.1-0.6c0.567,0.967,1.567,1.417,3,1.35c0,0.233-0.233,0.316-0.7,0.25l-0.65-0.05l1.3,0.7l-1.8,1.4H49.5z M38.05,32.3
		c-0.7-0.033-1.517-0.017-2.45,0.05v0.1c-1,1.233-3.2,2-6.6,2.3c-2.433,0.233-4.333,0.233-5.7,0c3.1-0.1,5.1-0.233,6-0.4
		c1.767-0.3,2.65-0.934,2.65-1.9c0-0.434-0.65-1.067-1.95-1.9c-0.633-0.2-1.283-0.3-1.95-0.3c-0.933,0-2.216,0.433-3.85,1.3
		l-0.8,0.4c0.5-0.7,1.6-1.434,3.3-2.2c1.767-0.767,2.833-1.35,3.2-1.75l-1.8-0.6h1.5c1.367,0.1,2.467,0.367,3.3,0.8
		c0.233,0.133,0.783,0.533,1.65,1.2c-0.133,0.3,0.2,0.733,1,1.3l0.15,0.7c1.966-0.3,2.983-0.467,3.05-0.5
		c1-0.167,1.667-0.383,2-0.65c-0.033-0.133-0.317-0.4-0.85-0.8l0.2-0.15c1.033,0,1.933,0.733,2.7,2.2
		c0.733,1.433,1.1,3.183,1.1,5.25c-0.2,0.8-0.6,1.35-1.2,1.65c-0.167,0.067-0.367,0.133-0.6,0.2c-1.3,0.233-3.633,0.017-7-0.65
		l-3.4-1.6l-0.3-0.2c0.7,0.233,1.867,0.5,3.5,0.8c1.5,0.267,2.417,0.4,2.75,0.4c1.467,0,2.367-0.417,2.7-1.25
		c0.233-0.667,0.15-1.5-0.25-2.5c0.233-0.3,0.433-0.667,0.6-1.1c0.066-0.167,0.383-0.483,0.95-0.95c-0.733,0.1-1.55,0.25-2.45,0.45
		L38.05,32.3z M45.65,27.5l1.85,0.7l-1.95,1.85C45.55,28.517,45.583,27.667,45.65,27.5z M36.6,26.05
		c1.1,0.267,0.983,0.017-0.35-0.75c-1.333-0.767-2.467-1.133-3.4-1.1l0.35-0.25c1.4,0.233,2.7,0.15,3.9-0.25
		c0.333,0.267,1.05,0.517,2.15,0.75c1.067,0.2,1.983,0.283,2.75,0.25l0.65,0.9c-2.267,0.9-4.283,1.2-6.05,0.9V26.05z M29.25,22.55
		l1.95,0.8c-2.167,0.566-3.4,0.85-3.7,0.85L29.25,22.55z M111.15,49.05v0.05c-0.067-0.133-0.134-0.25-0.2-0.35
		c-0.634-0.9-1.2-1.783-1.7-2.65l-1.3-2.899l1.55,1.25C109.7,45.417,110.25,46.95,111.15,49.05z M79.85,50.5
		c-0.366-0.767-0.983-1.517-1.85-2.25c-0.733-0.667-1.483-1.167-2.25-1.5c-0.033,0.033-0.083,0.05-0.15,0.05
		c-0.066,0-0.116-0.017-0.149-0.05c-0.066-0.033-0.117,0.017-0.15,0.15c-1.5,0.399-2.25,0.933-2.25,1.6c0,2.1,2.101,4.25,6.3,6.45
		c-2.5,0-4.633-0.851-6.399-2.55c-1.8-1.7-2.7-3.75-2.7-6.15c0.3-1.134,0.833-2.05,1.6-2.75c-0.5-0.634-1.1-1.167-1.8-1.6
		c-0.033-0.167-0.083-0.267-0.15-0.301L69.75,41.7c-1.4,0-2.583,0.267-3.55,0.8c-1,0.533-1.5,1.184-1.5,1.95l-0.65,0.7
		c0.167-1.467,1.017-2.784,2.55-3.95c1.566-1.2,2.4-2.034,2.5-2.5c-0.333-0.133-0.867-0.217-1.6-0.25c-0.033,0-0.067,0-0.1,0
		l0.55-0.15c0.267-0.133,0.5-0.216,0.7-0.25c0.4-0.133,1.05-0.2,1.95-0.2c0.667,0,1.617,0.417,2.851,1.25
		c1.434,0.966,2.566,1.567,3.399,1.8l-0.5,2.1c0.2,0,0.801,0.267,1.801,0.8c0.033,0.033,0.1,0.084,0.199,0.15l0.45,0.3
		c-0.033,0-0.066,0-0.1,0c-0.7-0.2-1.25-0.267-1.65-0.2L77,43.9c-0.066-0.034-0.1,0.149-0.1,0.55c0,0.2,0.666,1.184,2,2.95
		c1.233,1.633,1.699,3.033,1.399,4.199L79.85,50.5z M44.75,23.5l-1.45-1c0.167-0.067,0.317-0.167,0.45-0.3
		c0.133-0.067,0.4-0.1,0.8-0.1c0.667,0,0.95,0.017,0.85,0.05C45.2,22.65,44.983,23.1,44.75,23.5z M55.5,46.9
		c-0.367-1.134-0.65-2.233-0.85-3.301c0.033-0.933,0.167-1.833,0.4-2.699c0.6,0.333,1.15,0.866,1.65,1.6
		c0.4,0.6,0.917,1.55,1.55,2.85c-0.567,0.367-1.2,0.733-1.9,1.101L55.5,46.9z M55.55,47.1c1.567,0.534,2.35,1.467,2.35,2.801
		c0,2.033,0.017,3.1,0.05,3.199L58.3,52c0.6-2.134,0.934-3.25,1-3.35l0.15-0.051h1.65l0.15,0.9c0.033,0.267-0.117,0.483-0.45,0.65
		l-0.45,0.35l1.2-0.1c0.133,0.199,0.967,1.116,2.5,2.75c-0.133,0.5-0.216,0.983-0.25,1.449L63,53.9L62.3,53
		c0.1,1.434,0.133,2.15,0.1,2.15c0.6,0,0.967-0.017,1.1-0.051c0.167-0.066,0.25-0.033,0.25,0.101c-0.033,0.1-0.333,1.467-0.9,4.1
		l-0.6-0.2c-0.033-0.066-0.067-0.1-0.1-0.1H62.1c-0.1,0-0.15-0.017-0.15-0.05c-1.4,0-2.6,0.283-3.6,0.85s-1.5,1.25-1.5,2.05
		L56.3,62.45c0.367-1.733,1.25-3.167,2.65-4.3c1.566-1.233,2.383-1.95,2.45-2.15l-0.2-0.1l-2.7,0.05l0.1,0.3
		c0.033,0.033,0.083,0.083,0.15,0.15c-0.867,0.233-1.65,0.633-2.35,1.199C55,58.634,54.3,59.9,54.3,61.4
		c-0.133,0.033-0.333,0.166-0.6,0.399c-0.333,0.3-0.684,0.566-1.05,0.8l-0.05-0.25c0-1.866,0.333-3.449,1-4.75
		c0.625-1.283,1.4-1.933,2.325-1.949C55.158,55.644,54.25,55.427,53.2,55c-1-0.366-1.6-0.667-1.8-0.9
		c-0.033,1.801,0.383,2.884,1.25,3.25c-0.1,0.167-0.25,0.334-0.45,0.5c-1,0-1.8-0.1-2.4-0.3c0.934-1.233,0.833-3.133-0.3-5.7
		c-0.867-1.966-1.883-3.55-3.05-4.75l0.5,0.95c0.433,0.8,0.867,2.217,1.3,4.25l-0.8,4.05c-0.034-0.333-0.05-0.75-0.05-1.25
		c0-0.733-0.25-1.366-0.75-1.899c-0.733-0.8-1.767-0.75-3.1,0.149c-0.233,0.267-0.466,0.634-0.7,1.101c-0.5,0.899-0.75,1.8-0.75,2.7
		c0,0.666,0.033,1.216,0.1,1.649l0.2,1.101c-0.467-0.834-0.767-2.233-0.9-4.2c-0.1-2.101-0.267-3.417-0.5-3.95
		c-0.2,0.1-0.4,0.233-0.6,0.4c-0.433,0.366-0.733,0.783-0.9,1.25c0.167-0.967,0.3-1.95,0.4-2.95l0.65,0.75
		c0.6-0.9,1.2-1.55,1.8-1.95c0.767-0.5,1.683-0.75,2.75-0.75c0-0.6,0.1-1.8,0.3-3.6c0.3-2.301,0.6-3.684,0.9-4.15l0.3-0.45
		c0.066,1.934,0.7,3.3,1.9,4.101c1.133,0.8,1.7,1.25,1.7,1.35c0,0.333-0.133,0.616-0.4,0.85c-0.267,0.2-0.4,0.467-0.4,0.801
		c0,0.5,0.3,1.583,0.9,3.25c0.333,0.866,0.717,1.85,1.15,2.949l5.3,1.25l-0.8,0.801C56.583,55.483,57,55.2,57.2,54.8
		c0.2-0.333,0.3-0.967,0.3-1.899l-0.05,0.449c-0.1,0.4-0.25,0.767-0.45,1.101c0.2-0.634,0.3-1.334,0.3-2.101
		c0-0.633-0.2-1.483-0.6-2.55C56.633,49.7,56.25,48.8,55.55,47.1z M24,36.15c3.267,0.333,5.55,0.817,6.85,1.45l-1.2-0.3l-0.2,1.7
		c0,2.066,0.566,3.5,1.7,4.3c0.267,0.167,0.983,0.4,2.15,0.7c0.767-0.366,1.167-1.217,1.2-2.55c-0.133-1.367-0.217-2.167-0.25-2.4
		l1.45,0.45v0.2h1.15c1.8,0.399,3.533,0.05,5.2-1.05c-0.3,1.333-0.917,3.234-1.85,5.7V43.3c-1.534,3.834-2.333,6.434-2.4,7.8
		c0,0.233-0.333,0.7-1,1.4c0.267-2,0.767-4.05,1.5-6.15c0.667-1.933,1-2.933,1-3c-0.5-0.966-0.9-1.783-1.2-2.449
		c-0.434,0.399-1.733,2.25-3.9,5.55c-1.767,2.666-2.934,4.467-3.5,5.399l1.1-0.35c1.7-0.134,2.583-0.184,2.65-0.15l0.4,0.051
		l0.6,0.25c0.466,0.233,0.917,0.533,1.35,0.899c-0.233,0.2-0.5,0.45-0.8,0.75c0.4,0.033,0.733,0.167,1,0.4
		c0.333,0.267,0.5,0.633,0.5,1.1c0,0.5-0.05,1.283-0.15,2.351c-0.133,1.033-0.233,1.6-0.3,1.699
		c-0.633,0.634-1.583,1.233-2.85,1.801c-1.5,0.699-3.083,1.133-4.75,1.3c-0.5,0.066-1.017,0.1-1.55,0.1h-0.5
		c3-0.666,5.1-1.483,6.3-2.45c0.867-0.666,1.3-1.483,1.3-2.449c0-0.567-0.6-1.167-1.8-1.801c-0.034-0.166-0.083-0.267-0.15-0.3
		L32.9,55.15h-0.05c-1.4,0-2.6,0.283-3.6,0.85c-1,0.533-1.5,1.2-1.5,2l-0.55,0.6c0.4-1.699,1.3-3.133,2.7-4.3
		c0.733-0.6,1.567-1.267,2.5-2l-0.15-0.149c-0.133-0.034-0.233-0.051-0.3-0.051c-0.867-0.133-1.333-0.199-1.4-0.199l-1.8,0.899
		c0.233-2.767,0.35-4.483,0.35-5.149c0-0.434-0.033-0.684-0.1-0.75c-0.167,0.033-0.367,0.033-0.6,0c-0.4,0.199-0.9,0.583-1.5,1.149
		c-0.633,0.667-1.133,1.117-1.5,1.351c-0.233-0.601-0.517-1.084-0.85-1.45c-0.633-0.667-1.566-1-2.8-1c-0.133,0-0.4,0.2-0.8,0.6
		c-0.467,0.467-0.65,0.851-0.55,1.15l0.2,0.05c1.033,0,1.933,0.467,2.7,1.4c0.733,0.933,1.1,2.05,1.1,3.35v0.15
		c-0.066,1.566-1.117,2.916-3.15,4.05c-2.1,1.133-4.633,1.7-7.6,1.7c2.733-0.767,4.684-1.567,5.85-2.4
		c1.1-0.767,1.65-1.65,1.65-2.65c0-0.5-0.35-0.949-1.05-1.35c-0.4-0.167-0.7-0.283-0.9-0.35c-0.034-0.134-0.067-0.2-0.1-0.2
		l-0.15,0.05c-1.4,0-2.6,0.283-3.6,0.85c-1,0.534-1.5,1.2-1.5,2L13.25,56c-0.067-1.434,0.683-2.767,2.25-4
		c1.767-1.366,2.7-2.2,2.8-2.5c-0.2-0.1-0.667-0.15-1.4-0.15c-0.833,0-1.283,0.184-1.35,0.551c-0.433,0.133-0.816,0.267-1.15,0.399
		c2.1-2.066,4.35-3.25,6.75-3.55c0.8-0.1,1.35-0.3,1.65-0.6c0.4-0.467,0.7-1.417,0.9-2.851c0.233,0.2,0.583,0.566,1.05,1.101
		c0.5,0.433,1.117,0.683,1.85,0.75c0.3-0.567,0.6-1.217,0.9-1.95c0.267-0.634,0.4-1,0.4-1.101c0-1.033-0.25-2.1-0.75-3.2
		c-0.5-1.133-1-1.7-1.5-1.7c-0.566,0.566-1.133,0.95-1.7,1.15c-0.233,0.367-0.35,0.217-0.35-0.45c0-0.4,0.066-0.783,0.2-1.15
		C23.933,36.417,24,36.217,24,36.15z M14.5,47.25l-0.1-0.9c0.367-0.767,0.633-1.517,0.8-2.25c0.3-0.233,1.017-0.6,2.15-1.1
		c1-0.566,1.5-1.283,1.5-2.15c0-1.1-0.283-2.283-0.85-3.55c-0.033-0.066-0.05-0.117-0.05-0.15c0.033,0.067,0.066,0.133,0.1,0.2
		c1.467,1.933,3.117,2.716,4.95,2.35V40.6c0.033,0.667,0.1,1.25,0.2,1.75c-2.267,1.767-4.133,2.684-5.6,2.75
		C16.567,45.134,15.533,45.85,14.5,47.25z M70,47.75c-1.267,0.366-3.017,0.65-5.25,0.85h-0.5c0.4-0.133,1.483-0.533,3.25-1.199
		c1.733-0.7,2.65-1.084,2.75-1.15L70,47.75z M24.05,18.55l-0.95,0.2c-3.3-2.033-5.35-3.3-6.15-3.8c-0.7-0.467-1.3-0.917-1.8-1.35
		l0.35,0.25c1.9,1.333,3.483,2.267,4.75,2.8C21.817,17.35,23.083,17.983,24.05,18.55z M21.45,19.4l-1.15,0.3L19.15,19l0.8-0.4
		L21.45,19.4z M20.5,34.15l-0.8,0.65l-0.35-0.35c-0.033-0.233,0.15-0.35,0.55-0.35C20.1,34.1,20.3,34.117,20.5,34.15z M16.85,31.8
		c-0.333,0.9-0.5,1.717-0.5,2.45c0,0.033,0.233,0.467,0.7,1.3c-0.4-0.566-0.85-1-1.35-1.3c-0.034,0.233-0.034,0.483,0,0.75
		c0,0.2-0.217,0.3-0.65,0.3c-0.066,0-0.7-0.383-1.9-1.15c0.333-0.066,0.917-0.35,1.75-0.85C15.8,32.733,16.45,32.233,16.85,31.8z
		 M21.7,30.4l-1.95,1.65c0-0.466,0.2-0.85,0.6-1.15C20.717,30.567,21.167,30.4,21.7,30.4z M23.65,27.15
		c1.367,0,2.083,0.05,2.15,0.15l-4.25,0.15C21.583,27.283,22.283,27.183,23.65,27.15z M78.55,58.2c-0.733,0.8-1.467,2.066-2.2,3.8
		c-0.666,1.5-1.383,2.55-2.149,3.15l0.7-1c0.833-1.967,1.25-3.117,1.25-3.45c0-0.667-0.167-1.351-0.5-2.05L75.6,58.6
		c0-0.033-0.017-0.05-0.05-0.05c-0.3-0.399-0.684-0.733-1.149-1C74,57.283,73.733,57.15,73.6,57.15c-2.166,0-3.066,3.033-2.699,9.1
		l-0.4-1.45l0.25-8.899c0.4-0.467,0.934-0.983,1.6-1.551c0.4-0.366,0.551-0.533,0.45-0.5c0-0.433-0.267-0.8-0.8-1.1
		c-0.533-0.333-1.184-0.5-1.95-0.5c-0.466,0.1-0.983,0.35-1.55,0.75c-1.1,0.8-1.917,2-2.45,3.6l-0.35,0.7
		c-0.434-1.399-0.05-2.85,1.15-4.35c1.233-1.601,1.816-2.717,1.75-3.351c-0.133-0.033-0.684,0.051-1.65,0.25H66.9
		c1-0.699,2.05-1.216,3.15-1.55c0.267,1.667,1.684,3.5,4.25,5.5C76.934,55.833,78.35,57.3,78.55,58.2z M67,60.45l1.65-1.05
		c-0.033,0.3-0.316,0.566-0.85,0.8L67,60.45z M65.15,75.1c0.467-0.699,1.083-1.883,1.85-3.55c0.767-1.666,1.15-2.7,1.15-3.1
		c0-2.367-1.2-3.066-3.6-2.101c-0.4,0.367-0.767,0.851-1.1,1.45c-0.667,1.134-0.95,2.384-0.85,3.75v0.075l0.05,1.125
		c-0.533-1.233-0.816-2.184-0.85-2.85l0.45-2.601c0.367-0.8,1.167-1.75,2.4-2.85c1.1-0.967,2.15-1.75,3.15-2.351l0.85,0.601
		c0.067,0.666,0.3,1.816,0.7,3.45c0.333,1.433,0.5,2.316,0.5,2.649c0,0.967-0.5,2.05-1.5,3.25C67.717,72.783,66.65,73.8,65.15,75.1z
		 M69.4,72.2l0.8-1.5l0.6,2.2c-0.133,0.866-0.283,1.383-0.45,1.55c-0.199,0.166-0.383,0.133-0.55-0.101
		c-0.167-0.267-0.283-0.649-0.35-1.149C69.383,72.667,69.367,72.333,69.4,72.2z M45.15,61.95c0.8-1.566,1.434-2.717,1.9-3.45
		c-0.033,0.533-0.117,0.967-0.25,1.3l-1.85,2.45L45.15,61.95z"/>
	<path style="fill-rule:evenodd;clip-rule:evenodd;fill:#414428;" d="M116.05,15.65c-0.666-0.5-1.283-1.133-1.85-1.9l0.7,0.65
		c0.767,0.667,1.533,1.083,2.3,1.25c0.166,0.033,0.55,0.05,1.149,0.05c1.134,0,2.217-0.184,3.25-0.55c0.834-0.3,2.217-0.967,4.15-2
		l1.75-1c0.967,0.533,1.6,0.767,1.9,0.7c-0.9,0.533-1.967,1.1-3.2,1.7c-1,0.5-1.517,0.75-1.55,0.75l-0.2,0.05l-1.851,0.7
		c-0.633,0.1-1.6,0.133-2.899,0.1C117.967,16.117,116.75,15.95,116.05,15.65z M130.35,18.8l0.2,0.1
		c0.667,0.333,1.267,0.684,1.8,1.05c-0.433,0.066-1.083,0.117-1.949,0.15c-0.9,0.033-1.667,0.033-2.301,0l-0.55-0.6l-0.05-0.65
		L130.35,18.8z M132.05,21c-0.467,0.167-1.2,0.133-2.2-0.1c-0.767-0.2-1.366-0.4-1.8-0.6l-0.1-0.15
		C129.65,20.383,131.017,20.667,132.05,21z M128.25,22.25c1.967,0.167,4.733,0.3,8.3,0.4V22.5c0.033-0.067,0.167-0.1,0.4-0.1
		c0.066-0.033,0.166-0.05,0.3-0.05c0.4,0,0.65,0.1,0.75,0.3c0.066,0.1,0.167,0.283,0.3,0.55l0.3,0.95L138.4,24.3
		c-3.233,0.067-5.167,0.117-5.801,0.15c-0.033,0-0.066,0.017-0.1,0.05c-0.134,0-0.366,0-0.7,0c-0.899-0.6-1.967-1.017-3.2-1.25
		l-0.85-0.35c-0.167-0.167-0.283-0.35-0.35-0.55h0.149L128.25,22.25z M136,28.15c-0.7,0-1.434-0.217-2.2-0.65
		c-0.3-0.2-0.583-0.5-0.85-0.9c-0.2-0.4-0.334-0.65-0.4-0.75l-0.3-0.9c1.6,0.667,3.434,1.55,5.5,2.65c-0.1,0.2-0.4,0.35-0.9,0.45
		c-0.1,0.034-0.166,0.05-0.199,0.05C136.417,28.133,136.2,28.15,136,28.15z M137.85,31.8c-1.3-1.433-2.066-2.283-2.3-2.55l1.601,0.5
		c1.8,0.6,2.85,1.383,3.149,2.35l-1.7,0.4l-0.35,0.05l-0.2-0.35L137.85,31.8z M129.45,36.1c0.133,0.267,0.399,0.566,0.8,0.9
		c-1.467,0.067-2.816-0.167-4.05-0.7c-0.334-0.3-0.65-0.65-0.95-1.05c-0.134-0.233-0.45-1.017-0.95-2.35
		c0.566-0.433,0.517-0.65-0.149-0.65c-0.4,0-0.7-0.283-0.9-0.85c-0.134-0.833-0.283-1.483-0.45-1.95c1.3,2.1,2.884,3.367,4.75,3.8
		c1.167,0.233,3.2,0.167,6.101-0.2l2.1-0.3l0.2,0.25c0,0.267,0.2,0.5,0.6,0.7c0.4,0.2,0.884,0.3,1.45,0.3l1.9,1.1
		c-1.101,0.933-3.134,1.367-6.101,1.3C131.033,36.167,129.583,36.067,129.45,36.1z M119.05,46.85L118.7,47.2
		c-0.467-1-0.733-3.017-0.8-6.05c0.533-0.167,2.183-0.117,4.949,0.149c1.134,0.134,2.284,0.2,3.45,0.2c0.566,0,1.167-0.05,1.8-0.15
		c0.733-0.133,1.117-0.267,1.15-0.399c-0.566-0.334-1.017-0.584-1.35-0.75c-0.634-0.367-1.034-0.733-1.2-1.1
		c0.633-0.033,1.566,0.017,2.8,0.15c1.233,0.167,2.267,0.367,3.1,0.6l1.9,0.7c0.167,0.334,0.283,0.834,0.35,1.5l-1.399,0.5
		c-0.467,0.167-1.45,0.316-2.95,0.45c-0.634,0-1.267,0-1.9,0l-1.449-0.05c-1.634-0.101-3.733-0.217-6.301-0.351h-2.75
		c0.934,1.267,1.4,2.25,1.4,2.95c0,0.434-0.033,0.717-0.1,0.851C119.267,46.566,119.15,46.717,119.05,46.85z M102.85,48.85
		l2.051,0.2l0.149,0.3l-0.7-4.199V43.55l0.101-1.25c0.467,0.267,0.934,0.816,1.399,1.65c0.534,0.899,1.15,1.616,1.851,2.149
		l-0.4-1.149c-1.133-2.033-2.133-3.8-3-5.3c-1.633-2.967-2.35-5.15-2.149-6.55l0.449-1.25l0.65-1.05
		c-0.434,1.2-0.65,2.117-0.65,2.75c0,1.333,0.7,2.817,2.101,4.45c0.8,0.9,1.899,1.983,3.3,3.25c0.4,0,0.75,0.316,1.05,0.95
		c0.3,0.6,0.45,1.35,0.45,2.25l-1.55-1.25l1.3,2.899c0.5,0.867,1.066,1.75,1.7,2.65c0.066,0.1,0.133,0.217,0.2,0.35v-0.05
		c0.399,0.634,0.85,1.283,1.35,1.95c-0.3,0.7-0.5,1.417-0.6,2.15c-0.934-1.301-1.851-2.667-2.75-4.101l-0.9-0.1
		c-0.5,0.3-1.467,0.633-2.9,1l0.551,0.75l0.05,0.05c-0.7-0.033-2.101-0.283-4.2-0.75c-1.934-0.434-3.184-0.75-3.75-0.95l-1.2-0.55
		l-2.45-1.9L94,46.05L93.25,44c0-0.467,0-0.816,0-1.05c0.134,1.6,1.066,2.967,2.8,4.1C97.917,48.25,100.184,48.85,102.85,48.85z
		 M81.65,55.65c0.333,1.066,0.583,1.75,0.75,2.05l0.1,0.05c-1.134-0.333-2.3-0.717-3.5-1.15l0.1,0.25L79.4,58.15l0.05,2.05
		l-0.25,2.05C79.1,62.917,78.733,63.7,78.1,64.6C77.7,64.934,77.25,65.4,76.75,66c-0.5,0.566-0.95,1.017-1.35,1.35
		C75.3,67.417,74.833,67.934,74,68.9l-0.35,0.5l0.05,0.25v0.05L73.6,70.35c-0.066,0.134-0.116,0.25-0.149,0.351
		c-0.2,0.267-0.417,0.399-0.65,0.399l-0.1,0.2l-0.05-0.149l-0.4-0.051l0.15,4.2l-0.2,1.3L72,77l-0.25,0.3l-0.25,0.2l-0.65,0.15
		c0.334,0.366,0.483,0.716,0.45,1.05c-0.033,0.233-0.2,0.533-0.5,0.899c-0.434-0.199-0.95-0.583-1.55-1.149
		c-0.367-0.367-0.633-0.65-0.8-0.851c0.333,0.5,0.25,0.584-0.25,0.25c-0.567-0.399-1.1-0.883-1.6-1.449V76
		c-0.067,0.134-1.117,1.2-3.15,3.2c0.133-0.2,0.066-1-0.2-2.4l1.9-1.7c1.5-1.3,2.567-2.316,3.2-3.05c1-1.2,1.5-2.283,1.5-3.25
		c0-0.333-0.167-1.217-0.5-2.649c-0.4-1.634-0.633-2.784-0.7-3.45l-0.05-1.2c-0.267,0.134-0.533,0.333-0.8,0.6
		c-1,0.601-2.05,1.384-3.15,2.351c-1.233,1.1-2.033,2.05-2.4,2.85c-0.767,1.9-1.217,3.467-1.35,4.7l-0.05,3.2l-0.3-1.45L60.1,71.8
		c-0.133-0.434-0.233-0.833-0.3-1.2c-0.167-0.699-0.267-1.35-0.3-1.949c-0.467,0-0.917-0.051-1.35-0.15L59,67.2
		c-0.4,0.066-1.283,0.166-2.65,0.3c-1.633,0.167-2.883,0.267-3.75,0.3l1.45-1.899l2.65-0.051l0.7-0.149c2.1-0.8,3.65-1.7,4.65-2.7
		c0.733-0.767,1.383-1.167,1.95-1.2l0.55-0.55l2.45-0.8l0.8-0.25c0.534-0.233,0.817-0.5,0.85-0.8c0-1.534,0.417-2.834,1.25-3.9
		c0.8-1.1,1.767-1.65,2.9-1.65c0.101-0.033-0.05,0.134-0.45,0.5c-0.666,0.567-1.199,1.084-1.6,1.551L70.5,64.8l0.4,1.45l0.399,1.2
		c0.601-1,1.517-1.667,2.75-2c1.467-0.434,2.5-0.917,3.101-1.45c0.133-0.233,0.399-0.85,0.8-1.85c0.434-1,0.666-1.617,0.7-1.851
		c0.033-0.967,0-1.666-0.101-2.1c-0.2-0.9-1.616-2.367-4.25-4.4c-2.566-2-3.983-3.833-4.25-5.5c-1.1,0.334-2.15,0.851-3.15,1.55
		h0.05L66.9,49.9l-5.35,0.5l-1.2,0.1l0.45-0.35c0.333-0.167,0.483-0.384,0.45-0.65l0.6-0.45c0.566-0.3,1.367-0.45,2.4-0.45h0.5
		c2.067-0.133,3.817-0.399,5.25-0.8v-0.05l0.25-1.5c0,2.4,0.9,4.45,2.7,6.15c1.767,1.699,3.899,2.55,6.399,2.55L81.65,55.65z
		 M83.4,55.6L82.3,55.8c-0.133-1.5-0.333-3.267-0.6-5.3v-3.45V46c0.166,0.3,0.217,0.533,0.149,0.7c-0.1,0.2,0.134,0.5,0.7,0.899
		c0.634,1.5,1.25,2.517,1.851,3.051l0.85,0.399c0.6-0.033,0.917-0.083,0.95-0.149c-0.566-0.534-1-1.017-1.3-1.45l-0.601-2.2
		c0.566,0.967,1.867,2.134,3.9,3.5c0.934,0.434,2.25,0.75,3.95,0.95c0.5,0.066,1.216,0.116,2.149,0.149l0.55,0.051H94.9
		c0.666,0.033,1.466,0.066,2.399,0.1c0.733,1.167,1.184,1.75,1.351,1.75c-1.5,0.167-3.7-0.083-6.601-0.75
		c-2.3-0.5-3.8-0.917-4.5-1.25c-0.133,0.566-0.3,0.917-0.5,1.05c-0.333,0.167-0.666,0.334-1,0.5l-3-0.25l0.7,1.8L83.4,55.6z
		 M86.2,39.2v-0.15l5.6,2l1.5,0.55l-0.05,0.2H91.9h-1.7c-2.267,0.066-3.684,0.101-4.25,0.101c-0.733-0.034-1.5,0.183-2.3,0.649
		c-0.801,0.5-1.384,1.101-1.75,1.8l-0.301,0.7c-0.166-0.533-0.35-1.066-0.55-1.6c-0.399-1.066-1.184-2.117-2.35-3.15L83.35,40.4
		C84.65,40.4,85.6,40,86.2,39.2z M52.6,62.35L52.45,62.7c-1.833,0.3-2.917-0.066-3.25-1.101c0-0.033,0-1.133,0-3.3l-0.3,0.8
		c-0.767,1.367-2.417,3.733-4.95,7.101c0.033-0.334-0.133-1.117-0.5-2.351l1.7-1.899l-0.2,0.3l1.85-2.45
		c0.133-0.333,0.217-0.767,0.25-1.3c0.3-0.533,0.534-0.866,0.7-1c-0.167,0.033-0.267-0.35-0.3-1.15l0.8-4.05
		c-0.433-2.033-0.867-3.45-1.3-4.25l-0.5-0.95c1.167,1.2,2.183,2.784,3.05,4.75c1.133,2.567,1.233,4.467,0.3,5.7
		c0.6,0.2,1.4,0.3,2.4,0.3c0.2-0.166,0.35-0.333,0.45-0.5c-0.867-0.366-1.283-1.449-1.25-3.25c0.2,0.233,0.8,0.534,1.8,0.9
		c1.05,0.427,1.958,0.644,2.725,0.65C55,55.667,54.225,56.316,53.6,57.6C52.933,58.9,52.6,60.483,52.6,62.35z M23.2,42.35l0.5-0.55
		v1.5c-0.2,1.434-0.5,2.384-0.9,2.851c-0.3,0.3-0.85,0.5-1.65,0.6c-2.4,0.3-4.65,1.483-6.75,3.55c-0.833,0.767-1.25,1.084-1.25,0.95
		l-1.95,0.4l-1.1,0.1c-0.267-0.233-0.467-0.316-0.6-0.25c-0.567,0.467-1.733,1.384-3.5,2.75c0.133-0.2,0.2-1,0.2-2.4
		c0.433,0.233,0.65,0.017,0.65-0.649c0-0.367,0.133-0.533,0.4-0.5c0.267,0,0.5-0.033,0.7-0.101c0.033,0.2,0.216,0.184,0.55-0.05
		c1.233-0.8,3.3-3.434,6.2-7.899c-0.133-1.567-0.3-2.617-0.5-3.15c0.667,1.2,1,2.733,1,4.6c-0.167,0.733-0.434,1.483-0.8,2.25
		c-0.933,1.4-1.816,2.517-2.65,3.351l-1.4,1.25L10.4,51c0.934,0,1.733-0.267,2.4-0.8c0.633-0.533,0.95-1.167,0.95-1.9l0.75-1.05
		c1.033-1.4,2.067-2.116,3.1-2.15C19.067,45.033,20.933,44.116,23.2,42.35z M11.05,59.45l2.6-0.05c2.967,0,5.5-0.567,7.6-1.7
		c2.033-1.134,3.083-2.483,3.15-4.05c-0.033,1.533-0.4,2.85-1.1,3.949c-0.733,1.134-1.617,1.7-2.65,1.7
		c-0.5,0.3-1.15,0.584-1.95,0.851c-1.633,0.533-4.684,0.933-9.15,1.199L11.05,59.45z M25,63.85l-1.5,0.101l1.25-1.55l0.2-0.351h2.45
		h0.5c0.533,0,1.05-0.033,1.55-0.1c1.667-0.167,3.25-0.601,4.75-1.3c1.267-0.567,2.216-1.167,2.85-1.801
		c0.067-0.1,0.167-0.666,0.3-1.699c0.1-1.067,0.15-1.851,0.15-2.351c0-0.467-0.167-0.833-0.5-1.1c-0.267-0.233-0.6-0.367-1-0.4
		c0.3-0.3,0.567-0.55,0.8-0.75V52.5c0.667-0.7,1-1.167,1-1.4c0.067-1.366,0.867-3.966,2.4-7.8v1.05c0,2.267-0.1,4.301-0.3,6.101
		c-0.1,1-0.233,1.983-0.4,2.95c-0.1,0.833-0.317,2.116-0.65,3.85c0,0.434-0.1,0.8-0.3,1.1c-0.2,0.267-0.433,0.417-0.7,0.45
		c-0.033,0-0.067,0-0.1,0c-0.533,1.367-1.617,2.434-3.25,3.2C32.4,63,29.233,63.616,25,63.85z M20.4,26h0.05
		c0,1.6-0.35,2.967-1.05,4.1c-0.7,1.133-1.55,1.7-2.55,1.7c-0.4,0.434-1.05,0.934-1.95,1.5c-0.833,0.5-1.417,0.784-1.75,0.85
		c-0.7,0.1-2.566,0.033-5.6-0.2l-1.75,0.2l0.85-0.95c-0.633-0.233-1.316-0.534-2.05-0.9l-4.15-2.05
		c1.066-0.333,1.816-0.633,2.25-0.9l2.1,1.3c0.867,0.533,2.1,1.083,3.7,1.65c1.8,0.633,3.217,0.95,4.25,0.95
		c1.5,0,2.817-0.5,3.95-1.5C17.933,30.617,19.167,28.7,20.4,26z M20.5,34.15l2.8,0.6c1.367,0.233,3.267,0.233,5.7,0
		c3.4-0.3,5.6-1.067,6.6-2.3c-0.033,0.5-0.383,1.183-1.05,2.05c-0.533,0.467-0.966,0.8-1.3,1c-0.533,0.333-1.15,0.55-1.85,0.65
		l0.3,0.2l3.4,1.6c3.367,0.667,5.7,0.883,7,0.65l-0.05,0.05c-1.667,1.1-3.4,1.45-5.2,1.05l-1.15-0.2l-1.45-0.45
		c-1.3-0.466-2.433-0.95-3.4-1.45c-1.3-0.633-3.583-1.117-6.85-1.45l-5.35-0.85l1.05-0.5L20.5,34.15z M21.45,19.4l-1.5-0.8
		c-0.5-0.3-1.5-1.017-3-2.15l-5.45-4.7l2.05,0.2l1.95,1.9l-0.35-0.25c0.5,0.433,1.1,0.883,1.8,1.35c0.8,0.5,2.85,1.767,6.15,3.8
		l0.95-0.2L26.4,20l0.55,0.25l1,0.4c1.966,0.767,4.716,1.717,8.25,2.85c0.833-0.2,1.45-0.433,1.85-0.7l-0.95,0.9
		c-1.2,0.4-2.5,0.483-3.9,0.25l-2-0.6l-1.95-0.8c-3.367-1.566-5.65-2.483-6.85-2.75l-0.05-0.05L21.45,19.4z M64.45,20.55
		c0.833,0.434,1.6,0.85,2.3,1.25c0.367,0.167,0.767,0.25,1.2,0.25c0.133,0,1.167-0.3,3.1-0.9c2.167-0.7,3.667-1.267,4.5-1.7
		c1.367-0.7,2.3-0.983,2.8-0.85c0.267,0.1,0.551,0.283,0.851,0.55c-3.7,2.533-7.066,3.8-10.1,3.8c-0.434,0-1.15-0.233-2.15-0.7
		s-1.8-0.933-2.4-1.4l-0.5-0.75L64.45,20.55z M99.6,6.4L101,5c1.066,0.3,1.75,0.35,2.05,0.15l-2.55,2.5L98.4,9.3L97.8,9.7l-0.95,0.6
		c-0.833-0.167-1.75-0.4-2.75-0.7C97.1,8.133,98.934,7.067,99.6,6.4z M105.3,17.3c0.5,0.167,1.15,0.233,1.95,0.2
		c0.733-0.033,1.783-0.117,3.15-0.25c0.733-0.1,1.566-0.2,2.5-0.3l2.149-0.7L115.9,16c-0.2,0.6-0.301,1.267-0.301,2l-4.199-0.6
		c-0.167,0.567-0.334,1.033-0.5,1.4c-0.101,0.034-0.2,0.067-0.301,0.1c-1.3,0.367-2.833,0.067-4.6-0.9
		c-0.467-0.267-0.884-0.533-1.25-0.8c-1.066-0.767-1.85-1.583-2.35-2.45c0.666,0.9,1.333,1.583,2,2.05L105.3,17.3z M118.4,30.05
		c-0.334-0.2-0.817-0.383-1.45-0.55l-0.4,0.3l-0.5,0.3l-0.899,0.35l-3,0.55l-0.851,0.25l-0.6,0.25h-0.05l-0.15,0.1l-0.1,0.1
		c-0.367,0.367-0.601,0.95-0.7,1.75L109.65,35c-0.134-0.233-0.634-0.65-1.5-1.25c-0.167-0.233-0.334-0.433-0.5-0.6
		c-0.101,0.033-0.167,0.083-0.2,0.15c-0.101-0.066-0.2-0.133-0.3-0.2c-1.601-1.067-2.767-2.017-3.5-2.85l-0.7-0.5L103.85,30
		c0.834,0.133,1.884,0.233,3.15,0.3c1.2,0.067,2.083,0.083,2.65,0.05c1.433,0,3.75-0.3,6.949-0.9c-0.433-0.1-0.916-0.184-1.449-0.25
		c-1.567-0.133-2.467-0.233-2.7-0.3c1.3-0.133,2.517-0.483,3.649-1.05c1.134-0.533,1.7-1.033,1.7-1.5s0.033-0.717,0.101-0.75
		c0.133-0.1,0.716-0.333,1.75-0.7c-1.233-0.6-2.25-1.533-3.051-2.8c-0.399-0.6-0.716-1.25-0.949-1.95l0.199-0.9
		c0.467,1.3,2.4,3.017,5.801,5.15c0.6,0.233,1.483,0.55,2.649,0.95l-1,1.3l-2.8-1.25l0.15,0.95c0.433,2.533,0.716,3.933,0.85,4.2
		c0.3,0.667,0.45,1.017,0.45,1.05c-0.033,0.3-0.2,0.433-0.5,0.4C121.184,31.933,120.167,31.283,118.4,30.05z M125.1,37.7
		c0.233,0.2,0.517,0.35,0.851,0.45L124.1,38.7c-3.033,0.6-5.5,0.9-7.399,0.9h-0.2l-1.15-0.15c-1.199-0.367-2.267-1-3.199-1.9
		l-0.7-0.9l-0.5-1.3c0.666,0.867,1.483,1.617,2.45,2.25c1.033,0.667,1.949,1,2.75,1c0.5,0,1.466-0.117,2.899-0.35
		c1.4-0.233,2.467-0.45,3.2-0.65l2.05-0.6L125.1,37.7z M99.85,13.7l-1.3,1.25c-2.967,2.9-5.717,4.35-8.25,4.35
		c-0.633,0-1.483-0.216-2.55-0.65l0.2-0.25l1.899,0.25c0.534,0,1.7-0.566,3.5-1.7c1.733-1.1,2.983-2.034,3.75-2.8
		c0-0.4,0.217-0.733,0.65-1c0.4-0.267,0.884-0.4,1.45-0.4l0.649,0.1l0.851-0.05l-0.4,0.45L99.85,13.7z M88.55,10
		c-0.233-0.3-0.566-1.1-1-2.4c-0.467-1.3-0.717-2.117-0.75-2.45l0.15-0.75c0,0.333,0.133,1.083,0.399,2.25
		c0.367,1.533,0.784,2.633,1.25,3.3L88.55,10z M63.9,28.8c0.333,0.133,0.684,0.233,1.05,0.3c-0.733,0.267-1.35,0.417-1.85,0.45
		c-0.1,0-0.184,0-0.25,0c-2.2,0-5.217-1.066-9.05-3.2l-1.45-0.8l-1-0.55l-1.3-0.7l0.65,0.05c0.466,0.066,0.7-0.017,0.7-0.25
		c0.567-0.2,1.083-0.15,1.55,0.15c0,0.2,0.117,0.367,0.35,0.5c0.2,0.133,0.45,0.2,0.75,0.2l0.5,0.3c0.434,0.267,1.9,0.9,4.4,1.9
		C61.717,28.283,63.367,28.833,63.9,28.8z M35.7,16.75l-0.1-0.05c-0.3-0.167-0.583-0.333-0.85-0.5c-0.5-0.333-0.633-0.5-0.4-0.5
		c-0.067,0.1,0.35,0.3,1.25,0.6c0.9,0.3,1.85,0.55,2.85,0.75l1.65,0.9c3.6,1.667,6.05,2.5,7.35,2.5c0.7,0,1.55-0.317,2.55-0.95
		l0.05,0.05l-0.7,0.75c-0.934,0.534-1.684,0.8-2.25,0.8c-0.934,0-1.917-0.167-2.95-0.5C42.183,19.967,39.367,18.683,35.7,16.75z
		 M57,54.45c0.2-0.334,0.35-0.7,0.45-1.101L57.5,52.9c0,0.933-0.1,1.566-0.3,1.899c-0.2,0.4-0.617,0.684-1.25,0.851l0.8-0.801
		L57,54.45z M55.55,47.1L55.5,46.9l0.85-0.45c0.7-0.367,1.333-0.733,1.9-1.101c0.1-0.066,0.467-0.466,1.1-1.199
		c0.9-0.767,2.083-1.317,3.55-1.65l0.95-0.15l0.35-0.05c-0.067,0.733-0.567,1.816-1.5,3.25c-1,1.467-1.867,2.334-2.6,2.601l-0.8,0.5
		c-0.066,0.1-0.4,1.216-1,3.35l-0.35,1.1C57.917,53,57.9,51.934,57.9,49.9C57.9,48.566,57.117,47.634,55.55,47.1z M69.4,72.2
		c-0.3,0.467-0.5,1.25-0.6,2.35c-0.066,0.566-0.1,1.066-0.1,1.5h1.95l0.25-0.75c0.166-0.767,0.133-1.566-0.101-2.399l-0.6-2.2
		L69.4,72.2z"/>
	<path style="fill-rule:evenodd;clip-rule:evenodd;fill:#939865;" d="M16.45,17.3l2.7,1.7l1.15,0.7c0.4,0.2,0.717,0.316,0.95,0.35
		c0.333,0,0.7-0.1,1.1-0.3l0.05,0.05c-0.2,0.1-0.667,0.367-1.4,0.8c-0.4,0.267-0.867,0.4-1.4,0.4c-0.1,0-0.5-0.15-1.2-0.45
		c-0.833-0.3-1.5-0.6-2-0.9c-0.033-0.033-0.066-0.066-0.1-0.1c-1.267-1.367-2.033-2.316-2.3-2.85C14.7,16.7,15.517,16.9,16.45,17.3z
		 M32.75,15.95l-0.1,0.1c-1.233,0.534-2.083,0.833-2.55,0.9c-0.8,0.066-1.7-0.184-2.7-0.75l-0.7-0.5
		c-0.4-0.434-0.567-0.817-0.5-1.15L26.75,14l1-0.3l5.65,1.4l-0.6,0.8L32.75,15.95z M39.55,14.3l1.2,0.25l0.9,0.35
		c0.767,0.333,1.583,0.783,2.45,1.35l-1.5,0.5c-1.267,0.233-2.567,0.333-3.9,0.3h-0.25c-1-0.2-1.95-0.45-2.85-0.75
		c-0.9-0.3-1.317-0.5-1.25-0.6l0.25-0.35l0.35-0.45c0.3-0.133,1.083-0.267,2.35-0.4C38.4,14.367,39.15,14.3,39.55,14.3z M52,19.75
		c-0.7-0.033-1.35-0.1-1.95-0.2L50,19.5c-0.7-0.4-1.55-1.1-2.55-2.1l-0.25-0.85c0.933,0.067,1.966,0.3,3.1,0.7
		c0.2,0.1,1.017,0.633,2.45,1.6c0.433,0.267,0.767,0.45,1,0.55c-0.133,0.067-0.283,0.117-0.45,0.15
		C52.867,19.683,52.433,19.75,52,19.75z M75.9,8.95l1.35,0.75c-0.533,0.433-1.116,0.8-1.75,1.1l-0.2,0.1
		c-1.133,0.2-2.033,0.3-2.7,0.3c-0.8,0-1.699-0.25-2.7-0.75c-0.033-0.2-0.133-0.434-0.3-0.7C72.767,8.65,74.866,8.383,75.9,8.95z
		 M78.9,9.1l0.649-0.3c0.3-0.066,0.851-0.066,1.65,0c0.934,0.067,1.616,0.233,2.05,0.5l0.15,0.1l0.85,0.5
		c-0.233,0.267-1.017,0.517-2.35,0.75c-1.367,0.233-2.267,0.25-2.7,0.05l-0.15-0.05c-0.133-0.066-0.233-0.117-0.3-0.15
		c-0.066-0.067-0.1-0.317-0.1-0.75c0-0.4,0.05-0.633,0.149-0.7C78.833,9.017,78.866,9.033,78.9,9.1z M84.7,5.5
		c-0.5,0.167-1.033,0.3-1.601,0.4c-1.199,0.067-2,0.083-2.399,0.05C80.267,5.917,79.9,5.833,79.6,5.7
		c-0.233,0.233-0.35,0.017-0.35-0.65c0-0.6,0.417-1.083,1.25-1.45c1.167-0.533,2.917-0.617,5.25-0.25L86.3,3.4l0.95,0.15
		c-0.533,0.534-1.05,1-1.55,1.4L84.7,5.5z M106.6,9.1c-1.267-0.033-2.017-0.083-2.25-0.15c-0.166,0.033-0.267,0.033-0.3,0
		c-0.1,0-0.149-0.2-0.149-0.6c0-0.3,0.183-0.583,0.55-0.85c0.666-0.433,1.983-0.967,3.95-1.6c0.233,1,0.25,1.717,0.05,2.15
		L108.3,8.3C107.967,8.7,107.4,8.967,106.6,9.1z M112.55,10.3c-0.566,0.133-0.983,0.217-1.25,0.25c-0.833-0.033-1.25-0.15-1.25-0.35
		l0.101-0.75l1.05-1.15l0.85-0.6c1.033,0.767,1.45,1.383,1.25,1.85L112.55,10.3z M106.45,15.45h0.05l0.85-0.2
		c0.634-0.133,1.217-0.283,1.75-0.45c0.101-0.033,0.2-0.066,0.301-0.1c-0.034,0.066-0.067,0.133-0.101,0.2
		c-0.333,0.567-0.649,1.05-0.95,1.45c-0.767,0.5-1.783,0.816-3.05,0.95l-0.899-0.5c0-0.367,0.199-0.683,0.6-0.95
		S105.884,15.45,106.45,15.45z M115.6,18l0.45,0.05l-0.2,1.2l-0.199,0.9c-0.534,0.5-1.967,0.967-4.301,1.4
		c-2.767,0.467-4.699,0.8-5.8,1c-0.566,0.2-1.316,0.167-2.25-0.1c-1.1-0.233-1.916-0.434-2.45-0.6l-0.8-0.45
		c0.634-0.167,2.2-1.566,4.7-4.2c0.366,0.267,0.783,0.533,1.25,0.8c1.767,0.967,3.3,1.267,4.6,0.9
		c0.031,0.375,0.048,0.783,0.051,1.225c0.008-0.566,0.091-1.008,0.25-1.325c0.166-0.367,0.333-0.833,0.5-1.4L115.6,18z M100.7,12.8
		l1.45-1l0.699,0.05c0.667,0.2,1.517,0.717,2.551,1.55c-0.134,0.1-0.617,0.283-1.45,0.55c-0.767,0.267-1.334,0.433-1.7,0.5
		c-0.6,0.133-1.3,0.117-2.1-0.05c0-0.533,0.05-0.917,0.149-1.15L100.7,12.8z M91.05,7.2c-0.533-0.233-0.85-0.567-0.95-1
		c0.2-0.4,0.817-0.7,1.851-0.9l2.95,0.75c-0.267,0.3-0.567,0.567-0.9,0.8C92.934,7.283,91.95,7.4,91.05,7.2z M85.5,16.8
		c0.167,0.034,0.5,0.083,1,0.15c0.634,0.033,1.483,0.017,2.55-0.05l-1.1,1.5l-0.2,0.25c-1.2,1.2-2.3,1.8-3.3,1.8l-2.5-0.2
		c0-0.033-0.066-0.167-0.2-0.4c-0.167-0.233-0.25-0.55-0.25-0.95c0-0.467,0.35-0.9,1.05-1.3C83.316,17.2,84.3,16.933,85.5,16.8z
		 M84.05,14.4c-0.1,0.1-0.666,0.333-1.7,0.7c-1.033,0.367-1.716,0.566-2.05,0.6c-0.434-0.034-0.733-0.083-0.899-0.15
		c-0.2-0.1-0.367-0.2-0.5-0.3c0.267-0.3,0.333-0.683,0.199-1.15c0.101-0.267,0.983-0.4,2.65-0.4
		C82.417,13.7,83.184,13.933,84.05,14.4z M75.2,24.55c-0.2,0-0.351-0.017-0.45-0.05c-0.167-0.067-0.25-0.317-0.25-0.75
		c0-0.767,0.417-1.5,1.25-2.2c0.9-0.767,2-1.15,3.3-1.15c0.667,0,2.066,0.5,4.2,1.5l-0.8,0.5l-0.9,0.55l1.4-0.25l4.3-0.5
		c-2.434,2.066-4.634,3.1-6.6,3.1c-0.534,0-0.834-0.133-0.9-0.4c0-0.4-0.05-0.717-0.15-0.95l-1.05,0.4
		C77.283,24.65,76.167,24.717,75.2,24.55z M76.2,26.05l3.85-0.25c-0.1,0.167-0.633,0.717-1.6,1.65
		c-0.967,0.966-1.533,1.517-1.7,1.65c-1.033,0.533-2.05,0.833-3.05,0.9c-0.566-0.1-1.15-0.317-1.75-0.65
		c-0.8-0.4-1.267-0.867-1.4-1.4l0.25-1.65h0.851L76.2,26.05z M91.4,23.4l0.449,0.1c-0.466-0.067-0.483-0.033-0.05,0.1
		c-0.267,0.7-0.566,1.217-0.899,1.55c-0.601,0.667-1.634,1-3.101,1c-0.533,0-1.066-0.05-1.6-0.15c-0.566-0.133-0.867-0.267-0.9-0.4
		c0.4-0.233,0.584-0.633,0.55-1.2C86.35,23.9,88.2,23.567,91.4,23.4z M95.45,21.55c0.166-0.333,0.983-0.966,2.45-1.9
		c1.733-1.1,3.466-2.017,5.199-2.75c-1.333,1.633-2.35,2.75-3.05,3.35C98.85,21.217,97.316,21.65,95.45,21.55z M92.65,28
		c-0.934-0.167-1.551-0.367-1.851-0.6l-0.149-0.6c0.267-0.267,0.583-0.6,0.949-1c0.301-0.267,0.684-0.4,1.15-0.4
		c0.533,0,1.05,0.117,1.55,0.35s1.733,0.917,3.7,2.05c-1.134,0.3-2.217,0.45-3.25,0.45C94.184,28.25,93.483,28.167,92.65,28z
		 M57.9,32.65c0.167,0,0.333,0,0.5,0c-0.267,0.067-0.566,0.167-0.9,0.3L57.9,32.65z M58.8,37.5c-0.333,0-0.617-0.183-0.85-0.55
		c-0.233-0.367-0.35-0.817-0.35-1.35c0.867-0.633,1.65-0.95,2.35-0.95c0.233,0,0.883,0.083,1.95,0.25c1.467,0.267,3.267,0.5,5.4,0.7
		c-0.533,0.633-1.05,1.167-1.55,1.6c-0.933,0.767-2.017,1.15-3.25,1.15c-0.433,0-1.117-0.117-2.05-0.35
		C59.717,37.8,59.167,37.633,58.8,37.5z M49.55,26.4l3.3,1.8c-0.633,0.233-1.45,0.367-2.45,0.4c-1.133,0.033-2.1-0.1-2.9-0.4
		l-1.85-0.7c-0.7-0.2-1.333-0.517-1.9-0.95c-0.533-0.466-0.9-0.783-1.1-0.95L42,24.7c-0.333-0.633-0.55-1.267-0.65-1.9l0.25-0.95
		l1.7,0.65l1.45,1c0.367,0.4,1.017,0.85,1.95,1.35c0.533,0.3,1.466,0.816,2.8,1.55H49.55z M38.05,32.3L39.2,32
		c0.9-0.2,1.716-0.35,2.45-0.45c-0.566,0.467-0.883,0.784-0.95,0.95c-0.167,0.433-0.367,0.8-0.6,1.1c-0.367,0.867-0.9,1.433-1.6,1.7
		c-0.667,0.267-1.4,0.167-2.2-0.3c-0.267-0.167-0.483-0.367-0.65-0.6c0.133-0.133,0.417-0.483,0.85-1.05
		C37,32.85,37.517,32.5,38.05,32.3z M32.85,24.2c0.933-0.034,2.066,0.333,3.4,1.1c1.333,0.767,1.45,1.017,0.35,0.75
		c-0.367,0.333-0.65,0.567-0.85,0.7c-0.333,0.233-0.933,0.35-1.8,0.35c-0.367,0-1.184-0.2-2.45-0.6c-1.4-0.467-2.3-0.883-2.7-1.25
		c-0.133-0.267-0.216-0.533-0.25-0.8C28.65,24.017,30.083,23.933,32.85,24.2z M104,29.85h-0.35c-0.101,0-0.15-0.2-0.15-0.6
		c0-0.333,0.25-0.75,0.75-1.25c0.7-0.667,1.6-1,2.7-1c1.267,0,3.184,0.333,5.75,1l-1.351,0.55L108.7,29.6
		c-0.8,0.267-1.7,0.417-2.7,0.45C105.167,30.05,104.5,29.983,104,29.85z M58.05,24.55c-1.1,0.534-2.433,0.667-4,0.4
		c-0.3,0-0.55-0.067-0.75-0.2c-0.233-0.133-0.35-0.3-0.35-0.5c0.466-0.333,1.117-0.583,1.95-0.75c0.733-0.167,1.267-0.217,1.6-0.15
		l2.65,0.55L58.05,24.55z M67.45,26.75l2.3,0.15c-0.033,0.1-0.367,0.367-1,0.8c-0.567,0.433-0.917,0.683-1.05,0.75
		c-0.934,0.4-1.85,0.617-2.75,0.65c-0.367-0.067-0.717-0.167-1.05-0.3c-0.3-0.233-0.5-0.517-0.6-0.85
		c0.233-0.667,0.75-1.05,1.55-1.15C65.35,26.733,66.217,26.717,67.45,26.75z M59.1,30c-1.033,0.867-2.25,1.6-3.65,2.2
		c-2.2,0.966-3.85,1-4.95,0.1c-0.2-1.733,0.933-2.6,3.4-2.6c0.1,0,0.717,0.066,1.85,0.2C56.783,30,57.9,30.033,59.1,30z M60.15,34
		c-0.267,0.467-0.783,0.7-1.55,0.7l-1.5-0.2c0-0.133-0.167-0.3-0.5-0.5c0.333-0.433,1.017-0.883,2.05-1.35
		C60.117,32.717,60.617,33.167,60.15,34z M53.05,36.95C52.383,37.183,51.7,37.3,51,37.3c-0.8,0-1.867-0.383-3.2-1.15
		c-1.167-0.667-1.9-1.217-2.2-1.65c0-0.5,0.033-0.817,0.1-0.95c0.066-0.167,0.316-0.25,0.75-0.25c0.433,0,1.167,0.3,2.2,0.9
		c1.167,0.7,2.617,1.183,4.35,1.45l2.8,0.3C55.267,36.183,54.35,36.517,53.05,36.95z M64.35,40.05l1,0.55
		c-0.1,0.301-0.883,0.817-2.35,1.551c-0.367,0-0.967-0.15-1.8-0.45c-0.934-0.334-1.567-0.667-1.9-1c0-0.334,0.067-0.617,0.2-0.85
		c0.133-0.267,0.3-0.4,0.5-0.4c0.2-0.034,0.517-0.233,0.95-0.6C61.617,38.683,62.75,39.083,64.35,40.05z M39.9,29.45l-0.15,0.1
		c-0.3,0.167-0.95,0.383-1.95,0.65c-1.066,0.3-1.816,0.466-2.25,0.5c-0.8-0.567-1.133-1-1-1.3l0.05-0.05c0.3-0.267,0.816-0.6,1.55-1
		c0.7-0.4,1.117-0.6,1.25-0.6c0.667,0,1.95,0.183,3.85,0.55l-1.15,1L39.9,29.45z M31.95,18.05c-0.367,0.267-0.9,0.483-1.6,0.65
		c-0.667,0.2-1.233,0.283-1.7,0.25c-0.667-0.133-1.35-0.35-2.05-0.65l0.75-0.5l1.3-0.1c0.967-0.067,2.05,0.05,3.25,0.35H31.95z
		 M19.25,22.55c0.8,0.133,3.367,0.4,7.7,0.8c-0.733,0.733-1.65,1.383-2.75,1.95c-1.5,0.767-2.75,1-3.75,0.7H20.4
		c-2.167-0.8-3.517-1.533-4.05-2.2c0.533-0.533,0.85-0.833,0.95-0.9C17.867,22.533,18.517,22.417,19.25,22.55z"/>
</g>
</svg>
