<?xml version="1.0" encoding="iso-8859-1"?>
<!-- Generator: Adobe Illustrator 15.1.0, SVG Export Plug-In . SVG Version: 6.00 Build 0)  -->
<!DOCTYPE svg PUBLIC "-//W3C//DTD SVG 1.1//EN" "http://www.w3.org/Graphics/SVG/1.1/DTD/svg11.dtd">
<svg version="1.1" id="FlashAICB" xmlns="http://www.w3.org/2000/svg" xmlns:xlink="http://www.w3.org/1999/xlink" x="0px" y="0px"
	 width="1278.85px" height="871.25px" viewBox="0 0 1278.85 871.25" style="enable-background:new 0 0 1278.85 871.25;"
	 xml:space="preserve">
<symbol  id="freeze" viewBox="-0.011 -871.261 1278.881 871.247">
	<g id="Layer_1_2_">
		<g>
			<g>
				<g>
					<g>
						
							<radialGradient id="SVGID_1_" cx="2337.9058" cy="-1095.1279" r="149.8913" gradientTransform="matrix(1.2815 0.0783 0.1086 -1.158 -2418.5537 -2123.4175)" gradientUnits="userSpaceOnUse">
							<stop  offset="0" style="stop-color:#FFFFFF;stop-opacity:0.698"/>
							<stop  offset="1" style="stop-color:#FFFFFF;stop-opacity:0"/>
						</radialGradient>
						<path style="fill-rule:evenodd;clip-rule:evenodd;fill:url(#SVGID_1_);" d="M582.892-541.279
							c19.222-14.908,34.655-32.466,46.3-52.673c12.072-20.88,19.221-43.084,21.447-66.613c2.226-23.529-0.685-46.347-8.733-68.452
							c-7.749-21.354-19.735-40.593-35.96-57.715c-16.225-17.083-35.425-30.707-57.601-40.87
							c-22.946-10.559-47.455-16.628-73.526-18.21c-26.071-1.621-51.415,1.404-76.03,9.076
							c-23.803,7.355-45.315,18.507-64.536,33.455c-19.265,14.909-34.719,32.466-46.363,52.673
							c-12.072,20.88-19.222,43.084-21.448,66.614c-2.226,23.528,0.686,46.366,8.734,68.511
							c7.791,21.354,19.799,40.572,36.024,57.655c16.225,17.124,35.425,30.766,57.601,40.929
							c22.946,10.559,47.433,16.628,73.461,18.21s51.372-1.443,76.031-9.075C542.094-515.16,563.628-526.331,582.892-541.279z"/>
						
							<radialGradient id="SVGID_2_" cx="2196.3613" cy="-1080.2783" r="145.2405" gradientTransform="matrix(1.2813 0.0807 0.0965 -1.0238 -2415.3887 -1984.8657)" gradientUnits="userSpaceOnUse">
							<stop  offset="0" style="stop-color:#FFFFFF;stop-opacity:0.698"/>
							<stop  offset="1" style="stop-color:#FFFFFF;stop-opacity:0"/>
						</radialGradient>
						<path style="fill-rule:evenodd;clip-rule:evenodd;fill:url(#SVGID_2_);" d="M280.6-553.033
							c25.258,1.582,49.767-0.791,73.526-7.118c22.989-6.129,43.73-15.521,62.224-28.175c18.451-12.615,33.22-27.523,44.308-44.726
							c11.474-17.795,18.173-36.776,20.099-56.944c1.927-20.167-1.134-39.762-9.183-58.783c-7.706-18.388-19.5-34.978-35.382-49.767
							c-15.882-14.79-34.612-26.653-56.188-35.59c-22.304-9.253-46.085-14.671-71.343-16.252
							c-25.258-1.582-49.767,0.791-73.526,7.118c-22.989,6.129-43.709,15.521-62.16,28.176
							c-18.494,12.615-33.285,27.523-44.372,44.725c-11.474,17.795-18.173,36.777-20.1,56.944
							c-1.884,20.168,1.177,39.762,9.183,58.784c7.749,18.388,19.564,34.977,35.447,49.767c15.882,14.829,34.59,26.692,56.124,35.59
							C231.603-560.032,255.384-554.615,280.6-553.033z"/>
						
							<radialGradient id="SVGID_3_" cx="2550.1123" cy="-1129.0449" r="147.4332" gradientTransform="matrix(1.2809 0.0858 0.0699 -0.7293 -2342.5342 -1772.1323)" gradientUnits="userSpaceOnUse">
							<stop  offset="0" style="stop-color:#FFFFFF;stop-opacity:0.698"/>
							<stop  offset="1" style="stop-color:#FFFFFF;stop-opacity:0"/>
						</radialGradient>
						<path style="fill-rule:evenodd;clip-rule:evenodd;fill:url(#SVGID_3_);" d="M762.04-635.837
							c22.86,7.236,47.091,11.705,72.691,13.405c25.601,1.701,50.366,0.534,74.297-3.5c23.117-3.954,43.88-10.301,62.289-19.041
							c18.366-8.74,32.942-19.219,43.731-31.438c11.173-12.654,17.466-26.277,18.878-40.87c1.413-14.591-2.183-28.867-10.788-42.826
							c-8.348-13.525-20.764-25.823-37.245-36.896c-16.438-11.073-35.703-20.089-57.793-27.049
							c-22.86-7.236-47.091-11.705-72.691-13.405c-25.643-1.701-50.43-0.534-74.361,3.5c-23.117,3.954-43.858,10.301-62.225,19.041
							c-18.365,8.739-32.942,19.219-43.73,31.438c-11.174,12.654-17.467,26.277-18.879,40.87
							c-1.413,14.592,2.184,28.867,10.789,42.826c8.348,13.525,20.763,25.823,37.245,36.896
							C720.728-651.773,739.992-642.757,762.04-635.837z"/>
						
							<radialGradient id="SVGID_4_" cx="2681.6348" cy="-1145.9956" r="102.9747" gradientTransform="matrix(1.2815 0.0783 0.1087 -1.1581 -2400.0664 -2263.812)" gradientUnits="userSpaceOnUse">
							<stop  offset="0" style="stop-color:#FFFFFF;stop-opacity:0.698"/>
							<stop  offset="1" style="stop-color:#FFFFFF;stop-opacity:0"/>
						</radialGradient>
						<path style="fill-rule:evenodd;clip-rule:evenodd;fill:url(#SVGID_4_);" d="M850.207-619.763
							c15.796,7.237,32.643,11.409,50.537,12.516c17.895,1.107,35.318-0.969,52.271-6.229c16.354-5.062,31.144-12.733,44.373-23.015
							c13.185-10.242,23.802-22.303,31.85-36.184c8.306-14.354,13.207-29.618,14.706-45.792c1.499-16.174-0.514-31.873-6.036-47.098
							c-5.352-14.671-13.592-27.879-24.723-39.624c-11.131-11.745-24.316-21.117-39.556-28.117
							c-15.797-7.237-32.643-11.409-50.537-12.516c-17.895-1.107-35.318,0.969-52.271,6.229
							c-16.353,5.101-31.145,12.773-44.373,23.015c-13.186,10.282-23.803,22.343-31.851,36.184
							c-8.305,14.355-13.207,29.619-14.705,45.793c-1.542,16.173,0.45,31.872,5.972,47.097
							c5.351,14.671,13.614,27.879,24.787,39.624C821.781-636.134,834.966-626.763,850.207-619.763z"/>
						
							<radialGradient id="SVGID_5_" cx="1077.6396" cy="-593.4961" r="204.2282" gradientTransform="matrix(1.0825 0.0082 0.0189 -0.7001 -464.646 -1152.5176)" gradientUnits="userSpaceOnUse">
							<stop  offset="0" style="stop-color:#FFFFFF;stop-opacity:0.698"/>
							<stop  offset="1" style="stop-color:#FFFFFF;stop-opacity:0"/>
						</radialGradient>
						<path style="fill-rule:evenodd;clip-rule:evenodd;fill:url(#SVGID_5_);" d="M686.83-585.1
							c29.988,0.2,58.766-3.333,86.336-10.6c26.667-7.033,50.394-17.083,71.18-30.15c20.749-13.033,36.952-28.05,48.607-45.05
							c12.053-17.667,18.368-36.2,18.945-55.6c0.505-19.4-4.781-38-15.86-55.8c-10.754-17.2-26.144-32.483-46.172-45.85
							c-18.34-12.166-39.234-21.875-62.681-29.125c-2.25-0.699-4.524-1.375-6.821-2.025c-27.173-7.733-55.771-11.716-85.794-11.95
							c-29.987-0.233-58.802,3.316-86.444,10.65c-26.667,7.033-50.376,17.066-71.125,30.1c-4.112,2.589-8.045,5.256-11.8,8
							c-15.193,11.102-27.462,23.469-36.808,37.1c-12.089,17.633-18.386,36.167-18.891,55.6c-0.505,19.4,4.781,38,15.86,55.8
							c10.717,17.2,26.108,32.466,46.172,45.8c20.028,13.367,43.195,23.767,69.502,31.2C628.208-589.3,656.807-585.333,686.83-585.1
							z"/>
						
							<radialGradient id="SVGID_6_" cx="2337.9058" cy="-1095.1279" r="149.8913" gradientTransform="matrix(1.2815 -0.0783 0.1086 1.158 -2299.2529 1277.167)" gradientUnits="userSpaceOnUse">
							<stop  offset="0" style="stop-color:#FFFFFF;stop-opacity:0.698"/>
							<stop  offset="1" style="stop-color:#FFFFFF;stop-opacity:0"/>
						</radialGradient>
						<path style="fill-rule:evenodd;clip-rule:evenodd;fill:url(#SVGID_6_);" d="M702.192-304.971
							c19.222,14.908,34.655,32.466,46.3,52.673c12.072,20.88,19.221,43.084,21.447,66.613c2.226,23.529-0.685,46.347-8.733,68.452
							c-7.749,21.354-19.735,40.593-35.96,57.715c-16.225,17.083-35.425,30.707-57.601,40.87
							C644.699-8.089,620.19-2.02,594.119-0.438c-26.071,1.621-51.415-1.404-76.03-9.076c-23.803-7.355-45.315-18.507-64.536-33.455
							c-19.265-14.909-34.719-32.466-46.363-52.673c-12.072-20.88-19.222-43.084-21.448-66.614
							c-2.226-23.528,0.686-46.366,8.734-68.511c7.791-21.354,19.799-40.572,36.024-57.655
							c16.225-17.124,35.425-30.766,57.601-40.929c22.946-10.559,47.433-16.628,73.461-18.21s51.372,1.443,76.031,9.075
							C661.395-331.09,682.928-319.919,702.192-304.971z"/>
						
							<radialGradient id="SVGID_7_" cx="2196.3613" cy="-1080.2783" r="145.2405" gradientTransform="matrix(1.2813 -0.0807 0.0965 1.0238 -2317.8887 1088.0654)" gradientUnits="userSpaceOnUse">
							<stop  offset="0" style="stop-color:#FFFFFF;stop-opacity:0.698"/>
							<stop  offset="1" style="stop-color:#FFFFFF;stop-opacity:0"/>
						</radialGradient>
						<path style="fill-rule:evenodd;clip-rule:evenodd;fill:url(#SVGID_7_);" d="M378.1-343.767
							c25.258-1.582,49.767,0.791,73.526,7.118c22.989,6.129,43.73,15.521,62.224,28.175c18.451,12.615,33.22,27.523,44.308,44.726
							c11.474,17.795,18.173,36.776,20.099,56.944c1.927,20.167-1.134,39.762-9.183,58.783c-7.706,18.388-19.5,34.978-35.382,49.767
							c-15.882,14.79-34.612,26.653-56.188,35.59c-22.304,9.253-46.085,14.671-71.343,16.252
							c-25.258,1.582-49.767-0.791-73.526-7.118c-22.989-6.129-43.709-15.521-62.16-28.176
							c-18.494-12.615-33.285-27.523-44.372-44.725c-11.474-17.795-18.173-36.777-20.1-56.944
							c-1.884-20.168,1.177-39.762,9.183-58.784c7.749-18.388,19.564-34.977,35.447-49.767c15.882-14.829,34.59-26.692,56.124-35.59
							C329.103-336.768,352.884-342.185,378.1-343.767z"/>
						
							<radialGradient id="SVGID_8_" cx="2550.1123" cy="-1129.0449" r="147.4331" gradientTransform="matrix(1.2809 -0.0858 0.0699 0.7293 -2371.1846 914.833)" gradientUnits="userSpaceOnUse">
							<stop  offset="0" style="stop-color:#FFFFFF;stop-opacity:0.698"/>
							<stop  offset="1" style="stop-color:#FFFFFF;stop-opacity:0"/>
						</radialGradient>
						<path style="fill-rule:evenodd;clip-rule:evenodd;fill:url(#SVGID_8_);" d="M733.389-221.463
							c22.86-7.236,47.091-11.705,72.691-13.405c25.601-1.701,50.366-0.534,74.297,3.5c23.117,3.954,43.88,10.301,62.289,19.041
							c18.366,8.74,32.942,19.219,43.731,31.438c11.173,12.654,17.466,26.277,18.878,40.87c1.413,14.591-2.183,28.867-10.788,42.826
							c-8.348,13.525-20.764,25.823-37.245,36.896c-16.438,11.073-35.703,20.089-57.793,27.049
							c-22.86,7.236-47.091,11.705-72.691,13.405c-25.643,1.701-50.43,0.534-74.361-3.5c-23.117-3.954-43.858-10.301-62.225-19.041
							c-18.365-8.739-32.942-19.219-43.73-31.438c-11.174-12.654-17.467-26.277-18.879-40.87
							c-1.413-14.592,2.184-28.867,10.789-42.826c8.348-13.525,20.763-25.823,37.245-36.896
							C692.077-205.526,711.342-214.542,733.389-221.463z"/>
						
							<radialGradient id="SVGID_9_" cx="2681.6348" cy="-1145.9961" r="102.9746" gradientTransform="matrix(1.2815 -0.0783 0.1087 1.1581 -2288.2666 1368.9131)" gradientUnits="userSpaceOnUse">
							<stop  offset="0" style="stop-color:#FFFFFF;stop-opacity:0.698"/>
							<stop  offset="1" style="stop-color:#FFFFFF;stop-opacity:0"/>
						</radialGradient>
						<path style="fill-rule:evenodd;clip-rule:evenodd;fill:url(#SVGID_9_);" d="M962.007-275.137
							c15.796-7.237,32.643-11.409,50.537-12.516c17.895-1.107,35.318,0.969,52.271,6.229c16.354,5.062,31.144,12.733,44.373,23.015
							c13.185,10.242,23.802,22.303,31.85,36.184c8.306,14.354,13.207,29.618,14.706,45.792c1.499,16.174-0.514,31.873-6.036,47.098
							c-5.352,14.671-13.592,27.879-24.723,39.624c-11.131,11.745-24.316,21.117-39.556,28.117
							c-15.797,7.237-32.643,11.409-50.537,12.516c-17.895,1.107-35.318-0.969-52.271-6.229
							c-16.353-5.101-31.145-12.773-44.373-23.015c-13.186-10.282-23.803-22.343-31.851-36.184
							c-8.305-14.355-13.207-29.619-14.705-45.793c-1.542-16.173,0.45-31.872,5.972-47.097
							c5.351-14.671,13.614-27.879,24.787-39.624C933.582-258.766,946.767-268.138,962.007-275.137z"/>
					</g>
				</g>
				<g>
					
						<radialGradient id="SVGID_10_" cx="685.0386" cy="-917.2681" r="217.7925" gradientTransform="matrix(1.0218 -0.0502 -0.0208 -0.7071 284.0093 -1267.291)" gradientUnits="userSpaceOnUse">
						<stop  offset="0.5098" style="stop-color:#FFFFFF"/>
						<stop  offset="1" style="stop-color:#FFFFFF;stop-opacity:0"/>
					</radialGradient>
					<path style="fill-rule:evenodd;clip-rule:evenodd;fill:url(#SVGID_10_);" d="M1007.641-499.054
						c30.176-1.493,58.903-6.966,86.181-16.421c26.425-9.099,49.697-21.255,69.814-36.467
						c20.152-15.212,35.581-32.308,46.287-51.288c11.082-19.655,16.316-39.915,15.702-60.778
						c-0.217-7.384-1.155-14.617-2.813-21.699c-3.051-12.963-8.523-25.421-16.418-37.374c-11.798-17.878-28.182-33.428-49.151-46.65
						c-20.901-13.186-44.787-23.032-71.655-29.536c-27.824-6.682-56.823-9.294-87-7.837c-30.176,1.493-58.937,6.949-86.283,16.367
						c-26.426,9.135-49.68,21.308-69.763,36.521c-20.117,15.212-35.53,32.309-46.236,51.288c-3.208,5.69-5.927,11.43-8.157,17.221
						c-5.475,14.214-8.007,28.733-7.596,43.558c0.614,20.864,7.024,40.555,19.231,59.072c11.832,17.878,28.215,33.411,49.151,46.597
						c20.936,13.222,44.821,23.067,71.655,29.536C948.448-500.228,977.465-497.597,1007.641-499.054z"/>
					
						<radialGradient id="SVGID_11_" cx="3392.4429" cy="-836.873" r="140.6981" gradientTransform="matrix(1.9656 0.1347 0.2204 -0.993 -6052.582 -1938.8018)" gradientUnits="userSpaceOnUse">
						<stop  offset="0.5098" style="stop-color:#FFFFFF"/>
						<stop  offset="1" style="stop-color:#FFFFFF;stop-opacity:0"/>
					</radialGradient>
					<path style="fill-rule:evenodd;clip-rule:evenodd;fill:url(#SVGID_11_);" d="M707.645-631.934
						c4.22-18.942,1.023-37.568-9.595-55.877c-10.287-17.676-26.774-33.831-49.459-48.462
						c-22.619-14.632-49.689-26.614-81.211-35.946c-32.643-9.689-67.726-15.818-105.25-18.389
						c-37.523-2.571-74.222-1.365-110.096,3.618c-34.687,4.785-66.208,12.753-94.565,23.905
						c-28.422,11.151-51.471,24.597-69.144,40.335c-18.333,16.332-29.609,33.969-33.83,52.911
						c-4.22,18.942-0.989,37.567,9.694,55.876c10.287,17.676,26.741,33.831,49.36,48.462c22.686,14.631,49.789,26.613,81.311,35.946
						c32.643,9.688,67.726,15.818,105.249,18.388c37.523,2.57,74.222,1.364,110.096-3.618c34.622-4.785,66.143-12.753,94.565-23.905
						c28.357-11.151,51.372-24.597,69.045-40.335C692.147-595.356,703.424-612.993,707.645-631.934z"/>
					
						<radialGradient id="SVGID_12_" cx="2924.8799" cy="-878.8428" r="125.133" gradientTransform="matrix(4.1118 0.1895 0.4613 -1.397 -10951.9043 -2397.3042)" gradientUnits="userSpaceOnUse">
						<stop  offset="0.5098" style="stop-color:#FFFFFF"/>
						<stop  offset="1" style="stop-color:#FFFFFF;stop-opacity:0"/>
					</radialGradient>
					<path style="fill-rule:evenodd;clip-rule:evenodd;fill:url(#SVGID_12_);" d="M172.435-569.086
						c19.038,22.083,49.663,42.275,91.877,60.575c42.212,18.356,92.634,33.375,151.263,45.056
						c60.698,12.071,125.951,19.719,195.752,22.945c69.806,3.227,138.092,1.725,204.858-4.505
						c64.562-6.007,123.259-15.992,176.096-29.954c52.835-13.907,95.738-30.732,128.709-50.479
						c34.074-20.415,55.042-42.47,62.905-66.166c7.863-23.696,1.863-47.002-18.003-69.92c-19.173-22.139-49.8-42.359-91.875-60.659
						c-42.214-18.356-92.703-33.375-151.471-45.056c-60.7-12.071-125.951-19.72-195.752-22.945
						c-69.804-3.227-138.09-1.725-204.858,4.505c-64.424,6.064-123.053,16.048-175.888,29.955
						c-52.835,13.962-95.74,30.789-128.709,50.479c-34.074,20.415-55.044,42.498-62.907,66.25
						C146.569-615.311,152.571-592.004,172.435-569.086z"/>
					
						<radialGradient id="SVGID_13_" cx="3392.4424" cy="-836.873" r="140.6983" gradientTransform="matrix(1.3761 0.1347 0.1543 -0.993 -4335.1436 -1954.002)" gradientUnits="userSpaceOnUse">
						<stop  offset="0.5098" style="stop-color:#FFFFFF"/>
						<stop  offset="1" style="stop-color:#FFFFFF;stop-opacity:0"/>
					</radialGradient>
					<path style="fill-rule:evenodd;clip-rule:evenodd;fill:url(#SVGID_13_);" d="M397.755-647.134
						c2.955-18.942,0.716-37.568-6.718-55.877c-7.202-17.676-18.744-33.831-34.626-48.462
						c-15.836-14.632-34.788-26.614-56.857-35.946c-22.854-9.689-47.416-15.818-73.686-18.389
						c-26.271-2.571-51.963-1.365-77.079,3.618c-24.285,4.785-46.353,12.753-66.206,23.905
						c-19.899,11.151-36.036,24.597-48.409,40.335c-12.835,16.332-20.729,33.969-23.685,52.911
						c-2.954,18.942-0.693,37.567,6.787,55.876c7.202,17.676,18.722,33.831,34.557,48.462
						c15.882,14.631,34.857,26.613,56.927,35.946c22.854,9.688,47.416,15.818,73.686,18.388s51.963,1.364,77.079-3.618
						c24.239-4.785,46.307-12.753,66.206-23.905c19.853-11.151,35.966-24.597,48.339-40.335
						C386.905-610.556,394.8-628.193,397.755-647.134z"/>
					
						<radialGradient id="SVGID_14_" cx="3392.4429" cy="-836.873" r="140.6981" gradientTransform="matrix(1.9656 -0.1347 0.2204 0.993 -6058.582 1112.9521)" gradientUnits="userSpaceOnUse">
						<stop  offset="0.5098" style="stop-color:#FFFFFF"/>
						<stop  offset="1" style="stop-color:#FFFFFF;stop-opacity:0"/>
					</radialGradient>
					<path style="fill-rule:evenodd;clip-rule:evenodd;fill:url(#SVGID_14_);" d="M701.645-193.916
						c4.22,18.942,1.023,37.568-9.595,55.877c-10.287,17.676-26.774,33.831-49.459,48.462
						c-22.619,14.632-49.689,26.614-81.211,35.946c-32.643,9.689-67.726,15.818-105.25,18.389
						c-37.523,2.571-74.222,1.365-110.096-3.618c-34.687-4.785-66.208-12.753-94.565-23.905
						c-28.422-11.151-51.471-24.597-69.144-40.335c-18.333-16.332-29.609-33.969-33.83-52.911
						c-4.22-18.942-0.989-37.567,9.694-55.876c10.287-17.676,26.741-33.831,49.36-48.462c22.686-14.631,49.789-26.613,81.311-35.946
						c32.643-9.688,67.726-15.818,105.249-18.388c37.523-2.57,74.222-1.364,110.096,3.618c34.622,4.785,66.143,12.753,94.565,23.905
						c28.357,11.151,51.372,24.597,69.045,40.335C686.147-230.494,697.424-212.857,701.645-193.916z"/>
					
						<radialGradient id="SVGID_15_" cx="2924.8799" cy="-878.8428" r="125.1332" gradientTransform="matrix(3.247 -0.1895 0.3643 1.397 -8435.2998 1583.1543)" gradientUnits="userSpaceOnUse">
						<stop  offset="0.5098" style="stop-color:#FFFFFF"/>
						<stop  offset="1" style="stop-color:#FFFFFF;stop-opacity:0"/>
					</radialGradient>
					<path style="fill-rule:evenodd;clip-rule:evenodd;fill:url(#SVGID_15_);" d="M349.441-245.063
						c15.034-22.083,39.218-42.275,72.554-60.575c33.334-18.356,73.152-33.375,119.451-45.056
						c47.933-12.071,99.462-19.719,154.583-22.945c55.125-3.227,109.049-1.725,161.774,4.505
						c50.984,6.007,97.336,15.992,139.061,29.954c41.723,13.907,75.604,30.732,101.64,50.479
						c26.908,20.415,43.466,42.47,49.675,66.166c6.209,23.696,1.472,47.002-14.217,69.92
						c-15.141,22.139-39.326,42.359-72.552,60.659c-33.336,18.356-73.207,33.375-119.615,45.056
						c-47.934,12.071-99.461,19.72-154.583,22.945c-55.123,3.227-109.048,1.725-161.774-4.505
						c-50.875-6.064-97.173-16.048-138.896-29.955c-41.724-13.962-75.605-30.789-101.64-50.479
						c-26.908-20.415-43.467-42.498-49.677-66.25C329.015-198.838,333.754-222.146,349.441-245.063z"/>
					
						<radialGradient id="SVGID_16_" cx="-895.4316" cy="-927.9814" r="194.566" gradientTransform="matrix(0.9952 -0.0974 0.1116 0.7181 1189.6055 403.9438)" gradientUnits="userSpaceOnUse">
						<stop  offset="0.5098" style="stop-color:#FFFFFF"/>
						<stop  offset="1" style="stop-color:#FFFFFF;stop-opacity:0"/>
					</radialGradient>
					<path style="fill-rule:evenodd;clip-rule:evenodd;fill:url(#SVGID_16_);" d="M347.15-89.9c15.9-14.6,27.45-30.75,34.65-48.45
						c7.434-18.3,9.667-36.917,6.7-55.85c-2.967-18.967-10.867-36.617-23.7-52.95c-12.367-15.733-28.466-29.167-48.3-40.3
						c-19.9-11.167-41.967-19.133-66.2-23.9c-25.133-5-50.833-6.217-77.1-3.65c-26.267,2.567-50.833,8.7-73.7,18.4
						c-22.067,9.333-41.033,21.316-56.9,35.95c-15.833,14.633-27.35,30.783-34.55,48.45c-7.5,18.333-9.767,36.967-6.8,55.9
						c2.933,18.933,10.817,36.567,23.65,52.9c12.4,15.733,28.55,29.184,48.45,40.35c19.833,11.133,41.9,19.1,66.2,23.9
						c25.1,4.967,50.784,6.167,77.05,3.6s50.833-8.7,73.7-18.4C312.367-63.283,331.317-75.267,347.15-89.9z"/>
					
						<radialGradient id="SVGID_17_" cx="3392.4429" cy="-836.873" r="140.6981" gradientTransform="matrix(1.3761 -0.1347 0.1543 0.993 -3510.4434 1111.7021)" gradientUnits="userSpaceOnUse">
						<stop  offset="0.5098" style="stop-color:#FFFFFF"/>
						<stop  offset="1" style="stop-color:#FFFFFF;stop-opacity:0"/>
					</radialGradient>
					<path style="fill-rule:evenodd;clip-rule:evenodd;fill:url(#SVGID_17_);" d="M1222.455-195.166
						c2.955,18.942,0.716,37.568-6.718,55.877c-7.202,17.676-18.744,33.831-34.626,48.462
						c-15.836,14.632-34.788,26.614-56.857,35.946c-22.854,9.689-47.416,15.818-73.686,18.389
						c-26.271,2.571-51.963,1.365-77.079-3.618c-24.285-4.785-46.353-12.753-66.206-23.905
						c-19.899-11.151-36.036-24.597-48.409-40.335c-12.835-16.332-20.729-33.969-23.685-52.911
						c-2.954-18.942-0.693-37.567,6.787-55.876c7.202-17.676,18.722-33.831,34.557-48.462
						c15.882-14.631,34.857-26.613,56.927-35.946c22.854-9.688,47.416-15.818,73.686-18.388s51.963-1.364,77.079,3.618
						c24.239,4.785,46.307,12.753,66.206,23.905c19.853,11.151,35.966,24.597,48.339,40.335
						C1211.605-231.744,1219.5-214.107,1222.455-195.166z"/>
				</g>
				<g>
					<g>
						
							<linearGradient id="SVGID_18_" gradientUnits="userSpaceOnUse" x1="1544.3633" y1="-1515.5137" x2="1703.7654" y2="-1460.3698" gradientTransform="matrix(1.248 0 0 1.248 -1606.75 1178.25)">
							<stop  offset="0" style="stop-color:#FFFFFF;stop-opacity:0.3098"/>
							<stop  offset="0.749" style="stop-color:#FFFFFF;stop-opacity:0"/>
						</linearGradient>
						<path style="fill-rule:evenodd;clip-rule:evenodd;fill:url(#SVGID_18_);" d="M353.313-702.317
							c25.791,7.779,48.047,14.997,66.766,21.653c21.008,6.864,43.7,15.724,68.077,26.582c12.147,5.408,22.11,10.088,29.889,14.04
							c-7.488-4.118-17.118-8.965-28.891-14.539c-23.545-11.19-45.613-20.342-66.205-27.455
							c-22.588-8.487-46.487-16.369-71.695-23.649c-23.795-6.905-33.883-9.193-30.264-6.864
							C322.03-711.884,332.804-708.474,353.313-702.317z"/>
						
							<linearGradient id="SVGID_19_" gradientUnits="userSpaceOnUse" x1="1540.8804" y1="-1536.4033" x2="1700.7266" y2="-1474.2434" gradientTransform="matrix(1.248 0 0 1.248 -1606.75 1178.25)">
							<stop  offset="0" style="stop-color:#FFFFFF;stop-opacity:0.1294"/>
							<stop  offset="0.8471" style="stop-color:#FFFFFF;stop-opacity:0"/>
						</linearGradient>
						<path style="fill-rule:evenodd;clip-rule:evenodd;fill:url(#SVGID_19_);" d="M345.95-726.34
							c27.206,8.985,50.314,17.222,69.325,24.71c21.174,7.987,44.157,17.534,68.95,28.641c9.367,4.18,17.468,7.872,24.305,11.076
							c-6.563-3.286-14.352-7.02-23.369-11.201c-24.085-11.19-46.507-20.821-67.265-28.891
							c-26.832-10.899-49.649-19.614-68.452-26.145c-20.965-7.321-32.322-10.254-34.069-8.798
							C315.083-736.657,325.275-733.121,345.95-726.34z"/>
						
							<linearGradient id="SVGID_20_" gradientUnits="userSpaceOnUse" x1="4333.0273" y1="415.0146" x2="4508.0122" y2="415.0146" gradientTransform="matrix(1.114 0.5625 -0.4545 1.1685 -4119.9668 -3686.5132)">
							<stop  offset="0" style="stop-color:#FFFFFF;stop-opacity:0.1294"/>
							<stop  offset="0.8471" style="stop-color:#FFFFFF;stop-opacity:0"/>
						</linearGradient>
						<path style="fill-rule:evenodd;clip-rule:evenodd;fill:url(#SVGID_20_);" d="M547.435-748.118
							c26.624,11.773,49.212,22.401,67.765,31.886c20.674,10.191,43.117,22.151,67.328,35.879
							c9.145,5.154,17.07,9.698,23.774,13.634c-6.427-3.983-14.04-8.549-22.838-13.697c-23.545-13.769-45.447-25.771-65.706-36.004
							c-26.374-13.811-48.671-24.917-66.892-33.321c-20.508-9.443-31.615-13.499-33.32-12.167
							C517.254-761.658,527.218-757.061,547.435-748.118z"/>
						
							<linearGradient id="SVGID_21_" gradientUnits="userSpaceOnUse" x1="4359.9238" y1="393.918" x2="4534.9087" y2="393.918" gradientTransform="matrix(1.114 0.5625 -0.4545 1.1685 -4119.9668 -3686.5132)">
							<stop  offset="0" style="stop-color:#FFFFFF;stop-opacity:0.1294"/>
							<stop  offset="0.8471" style="stop-color:#FFFFFF;stop-opacity:0"/>
						</linearGradient>
						<path style="fill-rule:evenodd;clip-rule:evenodd;fill:url(#SVGID_21_);" d="M586.933-757.727
							c26.582,11.772,49.17,22.401,67.765,31.886c20.674,10.191,43.117,22.151,67.328,35.879c9.154,5.19,17.079,9.756,23.774,13.697
							c-6.396-3.983-14.008-8.549-22.838-13.697c-23.503-13.769-45.405-25.771-65.706-36.004
							c-26.374-13.769-48.671-24.876-66.892-33.321c-20.508-9.484-31.594-13.541-33.258-12.167
							C556.815-771.205,566.757-766.629,586.933-757.727z"/>
						
							<linearGradient id="SVGID_22_" gradientUnits="userSpaceOnUse" x1="1765.6982" y1="-1550.8203" x2="1925.1003" y2="-1495.6764" gradientTransform="matrix(1.248 0 0 1.248 -1606.75 1178.25)">
							<stop  offset="0" style="stop-color:#FFFFFF;stop-opacity:0.3098"/>
							<stop  offset="0.749" style="stop-color:#FFFFFF;stop-opacity:0"/>
						</linearGradient>
						<path style="fill-rule:evenodd;clip-rule:evenodd;fill:url(#SVGID_22_);" d="M696.255-724.78
							c21.09,6.905,43.783,15.766,68.077,26.582c12.188,5.408,22.151,10.109,29.889,14.103c-7.446-4.119-17.056-8.965-28.829-14.54
							c-23.544-11.231-45.634-20.404-66.267-27.517c-22.547-8.445-46.425-16.328-71.634-23.649
							c-23.794-6.864-33.882-9.131-30.263-6.801c1.04,0.666,11.814,4.077,32.323,10.233
							C655.384-738.591,677.619-731.395,696.255-724.78z"/>
						
							<linearGradient id="SVGID_23_" gradientUnits="userSpaceOnUse" x1="4286.2095" y1="437.5527" x2="4461.1943" y2="437.5527" gradientTransform="matrix(1.114 0.5625 -0.4545 1.1685 -4119.9668 -3686.5132)">
							<stop  offset="0" style="stop-color:#FFFFFF;stop-opacity:0.1294"/>
							<stop  offset="0.8471" style="stop-color:#FFFFFF;stop-opacity:0"/>
						</linearGradient>
						<path style="fill-rule:evenodd;clip-rule:evenodd;fill:url(#SVGID_23_);" d="M485.036-748.118
							c26.624,11.773,49.212,22.401,67.765,31.886c20.675,10.191,43.117,22.151,67.328,35.879
							c9.146,5.154,17.07,9.698,23.774,13.634c-6.428-3.983-14.04-8.549-22.838-13.697c-23.545-13.769-45.447-25.771-65.706-36.004
							c-26.374-13.811-48.67-24.917-66.891-33.321c-20.508-9.443-31.615-13.499-33.32-12.167
							C454.856-761.658,464.819-757.061,485.036-748.118z"/>
						
							<linearGradient id="SVGID_24_" gradientUnits="userSpaceOnUse" x1="3984.3745" y1="298.1694" x2="4196.0044" y2="298.1694" gradientTransform="matrix(1.1443 0.498 -0.4092 1.183 -3997.3721 -3087.3877)">
							<stop  offset="0" style="stop-color:#FFFFFF;stop-opacity:0.3098"/>
							<stop  offset="0.749" style="stop-color:#FFFFFF;stop-opacity:0"/>
						</linearGradient>
						<path style="fill-rule:evenodd;clip-rule:evenodd;fill:url(#SVGID_24_);" d="M479.795-733.703
							c31.407,12.438,58.467,23.691,81.18,33.757c25.583,10.733,53.268,23.816,83.052,39.249
							c14.893,7.737,27.102,14.352,36.628,19.843c-9.193-5.575-21.008-12.272-35.442-20.093
							c-28.87-15.724-55.847-29.036-80.931-39.935c-27.497-12.646-56.553-24.897-87.17-36.753
							c-28.87-11.189-41.058-15.267-36.565-12.229C441.835-748.991,454.918-743.604,479.795-733.703z"/>
						
							<linearGradient id="SVGID_25_" gradientUnits="userSpaceOnUse" x1="4487.7227" y1="272.1274" x2="4571.0161" y2="272.1274" gradientTransform="matrix(1.1422 0.5029 -0.4528 1.1642 -4319.6113 -3269.6689)">
							<stop  offset="0" style="stop-color:#FFFFFF;stop-opacity:0.1294"/>
							<stop  offset="0.8471" style="stop-color:#FFFFFF;stop-opacity:0"/>
						</linearGradient>
						<path style="fill-rule:evenodd;clip-rule:evenodd;fill:url(#SVGID_25_);" d="M777.061-651.712
							c-3.494-2.454-8.028-5.366-13.603-8.736c-11.19-6.78-21.735-12.334-31.636-16.66c-12.771-6.115-23.669-10.774-32.697-13.977
							c-10.151-3.619-15.829-4.597-17.035-2.933c-0.208,0.291,4.722,2.038,14.789,5.242c13.229,4.159,24.377,8.299,33.446,12.417
							c10.108,4.202,20.966,9.589,32.572,16.162C768.679-656.912,773.4-654.083,777.061-651.712z"/>
						
							<linearGradient id="SVGID_26_" gradientUnits="userSpaceOnUse" x1="1880.3633" y1="-1566.5137" x2="2039.7654" y2="-1511.3698" gradientTransform="matrix(1.248 0 0 1.248 -1606.75 1178.25)">
							<stop  offset="0" style="stop-color:#FFFFFF;stop-opacity:0.3098"/>
							<stop  offset="0.749" style="stop-color:#FFFFFF;stop-opacity:0"/>
						</linearGradient>
						<path style="fill-rule:evenodd;clip-rule:evenodd;fill:url(#SVGID_26_);" d="M772.631-765.963
							c25.791,7.779,48.047,14.997,66.767,21.653c21.008,6.864,43.7,15.724,68.077,26.582c12.147,5.408,22.11,10.088,29.889,14.04
							c-7.488-4.118-17.118-8.965-28.89-14.539c-23.545-11.19-45.614-20.342-66.205-27.455
							c-22.588-8.487-46.487-16.369-71.696-23.649c-23.795-6.905-33.883-9.193-30.263-6.864
							C741.348-775.531,752.122-772.12,772.631-765.963z"/>
						
							<linearGradient id="SVGID_27_" gradientUnits="userSpaceOnUse" x1="1890.8809" y1="-1583.4033" x2="2050.7271" y2="-1521.2434" gradientTransform="matrix(1.248 0 0 1.248 -1606.75 1178.25)">
							<stop  offset="0" style="stop-color:#FFFFFF;stop-opacity:0.1294"/>
							<stop  offset="0.8471" style="stop-color:#FFFFFF;stop-opacity:0"/>
						</linearGradient>
						<path style="fill-rule:evenodd;clip-rule:evenodd;fill:url(#SVGID_27_);" d="M782.74-784.995
							c27.206,8.985,50.313,17.222,69.324,24.709c21.174,7.987,44.157,17.534,68.951,28.641c9.366,4.18,17.467,7.873,24.304,11.076
							c-6.562-3.286-14.352-7.02-23.368-11.201c-24.086-11.19-46.508-20.82-67.266-28.89
							c-26.832-10.899-49.649-19.614-68.451-26.146c-20.966-7.321-32.323-10.253-34.069-8.798
							C751.873-795.311,762.064-791.776,782.74-784.995z"/>
						
							<linearGradient id="SVGID_28_" gradientUnits="userSpaceOnUse" x1="2134.8843" y1="-1600.0654" x2="2325.7527" y2="-1525.8481" gradientTransform="matrix(1.248 0 0 1.248 -1606.75 1190.25)">
							<stop  offset="0" style="stop-color:#FFFFFF;stop-opacity:0.1294"/>
							<stop  offset="0.8471" style="stop-color:#FFFFFF;stop-opacity:0"/>
						</linearGradient>
						<path style="fill-rule:evenodd;clip-rule:evenodd;fill:url(#SVGID_28_);" d="M1278.87-718.739
							c-5.887-2.808-12.438-5.834-19.656-9.079c-28.87-13.062-55.701-24.418-80.494-34.069c-32.239-12.979-59.465-23.4-81.68-31.262
							c-25.001-8.861-38.458-12.604-40.372-11.231c-0.333,0.249,11.814,4.555,36.44,12.916
							c32.364,10.982,59.903,20.924,82.616,29.827c25.208,9.568,52.664,20.841,82.366,33.82
							C1265.696-724.495,1272.622-721.469,1278.87-718.739z"/>
						
							<linearGradient id="SVGID_29_" gradientUnits="userSpaceOnUse" x1="2032.2007" y1="-1581.7764" x2="2191.6028" y2="-1526.6324" gradientTransform="matrix(1.248 0 0 1.248 -1606.75 1178.25)">
							<stop  offset="0" style="stop-color:#FFFFFF;stop-opacity:0.3098"/>
							<stop  offset="0.749" style="stop-color:#FFFFFF;stop-opacity:0"/>
						</linearGradient>
						<path style="fill-rule:evenodd;clip-rule:evenodd;fill:url(#SVGID_29_);" d="M962.135-784.995
							c25.833,7.779,48.088,14.976,66.767,21.589c21.048,6.864,43.741,15.725,68.077,26.583
							c12.147,5.407,22.11,10.108,29.889,14.102c-7.488-4.118-17.118-8.965-28.891-14.539
							c-23.544-11.232-45.613-20.404-66.205-27.518c-22.63-8.445-46.528-16.307-71.696-23.586
							c-23.753-6.906-33.84-9.194-30.263-6.864C930.853-794.563,941.627-791.152,962.135-784.995z"/>
						
							<linearGradient id="SVGID_30_" gradientUnits="userSpaceOnUse" x1="2134.8848" y1="-1600.0659" x2="2325.7532" y2="-1525.8486" gradientTransform="matrix(1.248 0 0 1.248 -2472.1504 1222.5498)">
							<stop  offset="0" style="stop-color:#FFFFFF;stop-opacity:0.1294"/>
							<stop  offset="0.8471" style="stop-color:#FFFFFF;stop-opacity:0"/>
						</linearGradient>
						<path style="fill-rule:evenodd;clip-rule:evenodd;fill:url(#SVGID_30_);" d="M413.47-686.439
							c-5.887-2.808-12.438-5.834-19.656-9.079c-28.87-13.062-55.701-24.418-80.494-34.069c-32.239-12.979-59.465-23.4-81.68-31.262
							c-25.001-8.861-38.458-12.604-40.372-11.231c-0.333,0.249,11.814,4.555,36.44,12.916
							c32.364,10.982,59.903,20.924,82.616,29.827c25.208,9.568,52.664,20.841,82.366,33.82
							C400.296-692.195,407.222-689.169,413.47-686.439z"/>
						
							<linearGradient id="SVGID_31_" gradientUnits="userSpaceOnUse" x1="4494.1025" y1="34.002" x2="4705.7324" y2="34.002" gradientTransform="matrix(1.1443 0.498 -0.4092 1.183 -4862.7715 -3043.0879)">
							<stop  offset="0" style="stop-color:#FFFFFF;stop-opacity:0.3098"/>
							<stop  offset="0.749" style="stop-color:#FFFFFF;stop-opacity:0"/>
						</linearGradient>
						<path style="fill-rule:evenodd;clip-rule:evenodd;fill:url(#SVGID_31_);" d="M506.631-655.209
							c-9.193-5.574-21.007-12.272-35.442-20.092c-28.87-15.725-55.847-29.036-80.931-39.935
							c-27.497-12.646-56.554-24.897-87.171-36.753c-28.869-11.19-41.058-15.267-36.565-12.23
							c1.29,0.874,14.373,6.261,39.249,16.162c31.407,12.438,58.467,23.69,81.18,33.757c25.583,10.732,53.268,23.815,83.052,39.249
							C484.896-667.314,497.105-660.7,506.631-655.209z"/>
						
							<linearGradient id="SVGID_32_" gradientUnits="userSpaceOnUse" x1="4494.1025" y1="34.002" x2="4705.7324" y2="34.002" gradientTransform="matrix(1.1443 0.498 -0.4092 1.183 -4964.8223 -3023.0879)">
							<stop  offset="0" style="stop-color:#FFFFFF;stop-opacity:0.3098"/>
							<stop  offset="0.749" style="stop-color:#FFFFFF;stop-opacity:0"/>
						</linearGradient>
						<path style="fill-rule:evenodd;clip-rule:evenodd;fill:url(#SVGID_32_);" d="M404.581-635.209
							c-9.193-5.574-21.007-12.272-35.442-20.092c-28.87-15.725-55.847-29.036-80.931-39.935
							c-27.497-12.646-56.554-24.897-87.171-36.753c-28.869-11.19-41.058-15.267-36.565-12.23
							c1.29,0.874,14.373,6.261,39.249,16.162c31.407,12.438,58.467,23.69,81.18,33.757c25.583,10.732,53.268,23.815,83.052,39.249
							C382.845-647.314,395.055-640.7,404.581-635.209z"/>
					</g>
				</g>
				<g>
					<g>
						
							<radialGradient id="SVGID_33_" cx="1568.7998" cy="-1548.5498" r="0.8375" gradientTransform="matrix(1.248 0 0 -1.248 -1622.75 -2686.8389)" gradientUnits="userSpaceOnUse">
							<stop  offset="0.0667" style="stop-color:#FFFFFF;stop-opacity:0.8"/>
							<stop  offset="1" style="stop-color:#FFFFFF;stop-opacity:0.8"/>
						</radialGradient>
						<path style="fill-rule:evenodd;clip-rule:evenodd;fill:url(#SVGID_33_);" d="M333.694-754.17c0,0.208,0.229,0.354,0.686,0.437
							c0.416,0.125,0.624,0.104,0.624-0.062c0.042-0.375,0.374-0.562,0.998-0.562c0.375,0,0.479-0.104,0.312-0.312
							c-0.208-0.208-0.499-0.312-0.873-0.312C334.318-754.981,333.735-754.711,333.694-754.17z"/>
						
							<radialGradient id="SVGID_34_" cx="1706.25" cy="-1553.75" r="0.925" gradientTransform="matrix(1.248 0 0 -1.248 -1622.75 -2699.8184)" gradientUnits="userSpaceOnUse">
							<stop  offset="0.0667" style="stop-color:#FFFFFF;stop-opacity:0.8"/>
							<stop  offset="1" style="stop-color:#FFFFFF;stop-opacity:0.8"/>
						</radialGradient>
						<path style="fill-rule:evenodd;clip-rule:evenodd;fill:url(#SVGID_34_);" d="M506.038-760.098
							c0.042,0.042,0.083,0.063,0.125,0.063l0.063,0.062c0.375,0.375,0.769,0.375,1.186,0c0.208-0.083,0.354-0.27,0.437-0.561
							c0.083-0.25,0.042-0.458-0.125-0.624c-0.417-0.417-0.853-0.624-1.311-0.624c-0.541-0.083-0.895,0.187-1.061,0.811
							c-0.125,0.499,0.083,0.79,0.624,0.873H506.038z"/>
						
							<radialGradient id="SVGID_35_" cx="1717.0996" cy="-1534.0498" r="1.4376" gradientTransform="matrix(1.248 0 0 -1.248 -1622.75 -2650.6484)" gradientUnits="userSpaceOnUse">
							<stop  offset="0.0667" style="stop-color:#FFFFFF;stop-opacity:0.8"/>
							<stop  offset="1" style="stop-color:#FFFFFF;stop-opacity:0.8"/>
						</radialGradient>
						<path style="fill-rule:evenodd;clip-rule:evenodd;fill:url(#SVGID_35_);" d="M518.019-736.075
							c-0.125,0.375-0.083,0.666,0.125,0.874c0.208,0.166,0.583,0.25,1.123,0.25h0.437c0.458,0,0.978-0.167,1.56-0.5
							c0.499-0.333,0.832-0.645,0.998-0.936c0.125-0.374,0.083-0.666-0.125-0.873c-0.208-0.167-0.583-0.25-1.124-0.25h-0.436
							c-0.458,0-0.978,0.167-1.56,0.499C518.56-736.719,518.227-736.407,518.019-736.075z"/>
						
							<radialGradient id="SVGID_36_" cx="1829.1494" cy="-1523.9497" r="1.2003" gradientTransform="matrix(1.248 0 0 -1.248 -1622.75 -2625.4385)" gradientUnits="userSpaceOnUse">
							<stop  offset="0.0667" style="stop-color:#FFFFFF;stop-opacity:0.8"/>
							<stop  offset="1" style="stop-color:#FFFFFF;stop-opacity:0.8"/>
						</radialGradient>
						<path style="fill-rule:evenodd;clip-rule:evenodd;fill:url(#SVGID_36_);" d="M660.287-724.905l-1.997,0.312v1.997
							c0,0.208,0.562,0.312,1.685,0.312c1.123,0,1.685-0.125,1.685-0.375v-0.624l-1.31-1.498L660.287-724.905z"/>
						
							<radialGradient id="SVGID_37_" cx="1692.4502" cy="-1556.7998" r="1.5625" gradientTransform="matrix(1.248 0 0 -1.248 -1622.75 -2707.4307)" gradientUnits="userSpaceOnUse">
							<stop  offset="0.0667" style="stop-color:#FFFFFF;stop-opacity:0.8"/>
							<stop  offset="1" style="stop-color:#FFFFFF;stop-opacity:0.8"/>
						</radialGradient>
						<path style="fill-rule:evenodd;clip-rule:evenodd;fill:url(#SVGID_37_);" d="M488.754-762.906
							c0.333,0.333,0.894,0.167,1.685-0.499c0.25-0.166,0.541-0.458,0.874-0.873c0.125-0.375,0.146-0.603,0.063-0.687l-0.874-0.687
							c-0.25-0.125-0.375-0.291-0.375-0.499c-0.042-0.375-0.52-0.333-1.435,0.125c-0.249,0.125-0.582,0.396-0.998,0.812
							c-0.25,0.499-0.375,0.769-0.375,0.811c0.042,0.333,0.229,0.624,0.562,0.874C488.088-763.405,488.379-763.197,488.754-762.906z
							"/>
						
							<radialGradient id="SVGID_38_" cx="1793.75" cy="-1556.2998" r="1.4375" gradientTransform="matrix(1.248 0 0 -1.248 -1622.75 -2706.1826)" gradientUnits="userSpaceOnUse">
							<stop  offset="0.0667" style="stop-color:#FFFFFF;stop-opacity:0.8"/>
							<stop  offset="1" style="stop-color:#FFFFFF;stop-opacity:0.8"/>
						</radialGradient>
						<path style="fill-rule:evenodd;clip-rule:evenodd;fill:url(#SVGID_38_);" d="M613.488-763.904v0.687
							c0,0.208,0.187,0.312,0.562,0.312c0.374,0.042,0.791,0,1.248-0.124c0.792-0.1,1.27-0.317,1.435-0.656
							c0.531-0.109,0.947-0.327,1.248-0.655c0.458-0.416,0.208-0.624-0.749-0.624h-1.373c-0.624,0-1.185,0.125-1.684,0.375
							C613.718-764.382,613.488-764.154,613.488-763.904z"/>
						
							<radialGradient id="SVGID_39_" cx="1800.7002" cy="-1523.75" r="1.525" gradientTransform="matrix(1.248 0 0 -1.248 -1622.75 -2624.9404)" gradientUnits="userSpaceOnUse">
							<stop  offset="0.0667" style="stop-color:#FFFFFF;stop-opacity:0.8"/>
							<stop  offset="1" style="stop-color:#FFFFFF;stop-opacity:0.8"/>
						</radialGradient>
						<path style="fill-rule:evenodd;clip-rule:evenodd;fill:url(#SVGID_39_);" d="M625.656-722.222
							c0-0.042,0.042-0.083,0.125-0.125c0.083,0,0.104-0.041,0.062-0.124c-0.249,0.042-0.416,0.021-0.499-0.063
							c0-0.083,0.063-0.146,0.187-0.187c-0.042-0.042-0.125-0.104-0.249-0.187l0.125-0.312l0.25,0.062
							c0.042-0.042,0.042-0.146,0-0.312c0.083,0,0.166,0.042,0.25,0.125c0.042,0.083,0.104,0.125,0.188,0.125v-0.25
							c0-0.041,0.062-0.083,0.187-0.125c0.083,0,0.125-0.042,0.125-0.125c-0.042-0.125-0.167-0.146-0.375-0.063
							c0.042-0.208,0.021-0.312-0.063-0.312h-0.063c-0.042,0-0.083,0.042-0.125,0.125c0,0.125-0.042,0.187-0.125,0.187
							c-0.042-0.125-0.083-0.187-0.125-0.187c-0.083,0.042-0.167,0.063-0.249,0.063l-0.188-0.188c0-0.083,0.042-0.166,0.125-0.249
							c0-0.083-0.083-0.125-0.249-0.125c0.041-0.125,0.187-0.187,0.437-0.187v-0.125l-0.25-0.125v-0.312
							c-0.083-0.041-0.146-0.021-0.187,0.063c-0.042,0.083-0.083,0.146-0.125,0.188l-0.25-0.125l-0.062,0.063
							c0.166,0.166,0.229,0.312,0.187,0.437c-0.083-0.041-0.167-0.062-0.25-0.062l-0.063,0.249c0,0.083-0.083,0.125-0.249,0.125
							c-0.042-0.166-0.104-0.25-0.188-0.25c-0.083,0.083-0.145,0.125-0.187,0.125c-0.042-0.041-0.042-0.125,0-0.249
							c0.042-0.125,0.021-0.208-0.062-0.25l-0.187,0.188c-0.125-0.167-0.25-0.229-0.375-0.188l-0.062,0.063
							c0.083,0.125,0.125,0.229,0.125,0.312c-0.167,0.042-0.229,0.125-0.188,0.25c0.083,0.083,0.25,0.104,0.5,0.063
							c-0.083,0.042-0.146,0.083-0.188,0.125v0.125l0.188,0.125c0.041,0.042,0.021,0.146-0.063,0.312
							c-0.083-0.083-0.167-0.104-0.249-0.063l-0.063,0.312c-0.125-0.25-0.27-0.333-0.437-0.25c0.042,0.125,0.063,0.229,0.063,0.312
							c-0.208,0-0.312,0.083-0.312,0.249l0.312,0.063c0.083,0,0.125,0.083,0.125,0.249h0.062c0.083,0,0.125-0.062,0.125-0.187
							c0.042-0.083,0.083-0.125,0.125-0.125c0.083,0,0.124,0.083,0.124,0.25c0.125,0,0.188-0.042,0.188-0.125l0.249,0.187
							c-0.125,0.083-0.167,0.167-0.125,0.25l0.25,0.125c0,0.083-0.062,0.125-0.187,0.125s-0.208,0.021-0.25,0.062v0.125l0.25,0.125
							c0.042,0.083,0.042,0.166,0,0.249c0,0.083,0.042,0.104,0.125,0.063c0.083,0,0.145-0.083,0.187-0.25l0.249,0.125l0.063-0.063
							c0.042-0.124-0.021-0.27-0.187-0.436c0.041-0.042,0.124-0.021,0.249,0.062l0.063-0.25c0-0.083,0.083-0.124,0.25-0.124
							c0.083,0,0.125,0.083,0.125,0.249c0.042,0.042,0.125,0,0.25-0.125c0.083,0.042,0.104,0.125,0.063,0.25s-0.042,0.208,0,0.25
							l0.187-0.188c0.125,0,0.25,0.063,0.375,0.188C625.802-721.972,625.781-722.097,625.656-722.222z"/>
						
							<radialGradient id="SVGID_40_" cx="1737.5" cy="-1550.1001" r="2.625" gradientTransform="matrix(1.248 0 0 -1.248 -1622.75 -2690.709)" gradientUnits="userSpaceOnUse">
							<stop  offset="0.0667" style="stop-color:#FFFFFF;stop-opacity:0.8"/>
							<stop  offset="1" style="stop-color:#FFFFFF;stop-opacity:0.8"/>
						</radialGradient>
						<path style="fill-rule:evenodd;clip-rule:evenodd;fill:url(#SVGID_40_);" d="M548.969-755.979
							c0.167-0.167,0.167-0.354,0-0.562c-0.416,0.042-0.687,0.021-0.812-0.063c0.167-0.208,0.25-0.396,0.25-0.562
							c0-0.25-0.104-0.375-0.312-0.375c-0.166,0-0.291,0.146-0.374,0.437c-0.125,0.333-0.25,0.52-0.375,0.562
							c-0.582,0.042-0.957,0.021-1.123-0.063c0.041-0.083,0.229-0.416,0.562-0.999c0.208-0.042,0.562-0.062,1.061-0.062l0.188-0.25
							c0-0.125-0.063-0.229-0.188-0.312l-0.624-0.062c0.042-0.125,0.125-0.333,0.25-0.624c0.042-0.208-0.062-0.333-0.312-0.375
							c-0.125,0.042-0.229,0.125-0.312,0.25c-0.083,0.208-0.167,0.333-0.25,0.375c-0.167-0.291-0.312-0.479-0.437-0.562
							c-0.375,0.042-0.5,0.208-0.375,0.499c0.25,0.375,0.375,0.624,0.375,0.749l-0.5,0.998c-0.416-0.416-0.624-0.728-0.624-0.936
							c-0.042-0.25,0.104-0.582,0.437-0.998c-0.083-0.25-0.229-0.354-0.437-0.312c-0.167,0.25-0.312,0.437-0.437,0.562
							c-0.25-0.333-0.395-0.52-0.437-0.562c-0.208-0.167-0.375-0.104-0.499,0.187c0.166,0.25,0.27,0.478,0.312,0.687
							c-0.333,0-0.542,0.042-0.624,0.125c-0.125,0.125-0.188,0.229-0.188,0.312c0.042,0.291,0.458,0.396,1.248,0.312l0.562,0.936
							c-0.167,0.167-0.541,0.188-1.123,0.063c-0.208-0.333-0.375-0.562-0.499-0.687c-0.208-0.25-0.417-0.229-0.624,0.063
							c0.166,0.208,0.249,0.417,0.249,0.624c-0.042,0.042-0.167,0.063-0.374,0.063c-0.208,0-0.333,0-0.375,0
							c-0.208,0.208-0.208,0.395,0,0.562c0.125,0.083,0.375,0.104,0.749,0.062c-0.167,0.25-0.249,0.479-0.249,0.687
							c0.208,0.291,0.416,0.291,0.624,0c0.124-0.125,0.291-0.354,0.499-0.687c0.125,0,0.333-0.021,0.624-0.062
							c0.249,0,0.416,0.042,0.499,0.125c-0.25,0.541-0.437,0.873-0.562,0.998h-1.06c-0.208,0.208-0.208,0.417,0,0.624l0.624,0.062
							l-0.312,0.624c0.083,0.292,0.229,0.417,0.436,0.375c0.042,0,0.188-0.208,0.437-0.624c0.208,0.042,0.375,0.208,0.499,0.499
							h0.312c0.125-0.208,0.125-0.416,0-0.624c-0.208-0.333-0.312-0.541-0.312-0.624c-0.042-0.167,0.021-0.333,0.188-0.499
							c0.083-0.125,0.208-0.292,0.375-0.499c0.25,0.333,0.437,0.666,0.562,0.998c0.042,0.083-0.021,0.229-0.188,0.437
							c-0.167,0.208-0.249,0.374-0.249,0.499c0,0.25,0.125,0.354,0.374,0.312c0.166-0.042,0.312-0.208,0.437-0.499
							c0.208,0.083,0.374,0.291,0.499,0.624c0.333,0,0.478-0.125,0.437-0.375c0-0.042-0.083-0.249-0.25-0.624
							c0.291,0,0.5-0.062,0.624-0.187c0.208-0.125,0.208-0.291,0-0.499h-1.061c-0.083-0.083-0.271-0.416-0.562-0.998
							c0.125-0.125,0.478-0.146,1.061-0.063c0.125,0.042,0.25,0.188,0.375,0.437c0.125,0.292,0.229,0.458,0.312,0.499
							c0.25,0.083,0.395,0,0.437-0.249c0-0.292-0.083-0.5-0.25-0.624C548.241-755.979,548.511-756.021,548.969-755.979z"/>
						
							<radialGradient id="SVGID_41_" cx="1736.7998" cy="-1561.3999" r="3.8625" gradientTransform="matrix(1.248 0 0 -1.248 -1622.75 -2718.9121)" gradientUnits="userSpaceOnUse">
							<stop  offset="0.0667" style="stop-color:#FFFFFF;stop-opacity:0.8"/>
							<stop  offset="1" style="stop-color:#FFFFFF;stop-opacity:0.8"/>
						</radialGradient>
						<path style="fill-rule:evenodd;clip-rule:evenodd;fill:url(#SVGID_41_);" d="M544.788-765.152
							c0.083-0.125,0.125-0.499,0.125-1.123c0.042-0.125,0.188-0.25,0.437-0.375c-0.208-0.083-0.354-0.27-0.437-0.561
							c-0.083-0.292-0.042-0.562,0.125-0.811h0.5c0-0.167-0.125-0.333-0.375-0.5c-0.208-0.124-0.292-0.291-0.25-0.499
							c0.083-0.333,0.312-0.499,0.687-0.499c0.208,0.042,0.333,0.187,0.374,0.437c0.083,0.374,0.146,0.582,0.188,0.624
							c0.25,0.042,0.375-0.104,0.375-0.437c0.583,0,0.915,0.333,0.998,0.998c0.167,0,0.312-0.083,0.437-0.249
							c0.083,0,0.291,0.104,0.624,0.312c0.25,0.166,0.458,0.208,0.624,0.125c-0.041-0.208-0.187-0.375-0.437-0.5
							c-0.333-0.124-0.52-0.229-0.562-0.312c0-0.291-0.021-0.457-0.063-0.499c-0.457,0.208-0.894,0.104-1.31-0.312
							c0-0.083,0.041-0.167,0.125-0.249c0.125-0.083,0.167-0.188,0.125-0.312c-0.125-0.083-0.271-0.083-0.437,0
							c-0.166,0.124-0.333,0.187-0.499,0.187c-0.291-0.042-0.437-0.25-0.437-0.624c0.041-0.375,0.208-0.583,0.499-0.624
							c0.083,0,0.229,0.062,0.437,0.187c0.167,0.083,0.292,0.104,0.375,0.062c0.125-0.166,0.063-0.333-0.187-0.499
							c0.333-0.499,0.77-0.624,1.31-0.374c-0.042-0.333,0.104-0.583,0.437-0.749c0.375-0.208,0.583-0.395,0.624-0.562
							c-0.166-0.083-0.374-0.063-0.624,0.063l-0.561,0.375c-0.125-0.167-0.291-0.25-0.5-0.25c-0.042,0.541-0.333,0.873-0.874,0.998
							c-0.083,0-0.146-0.083-0.187-0.25c-0.042-0.167-0.125-0.229-0.25-0.188c-0.083,0.083-0.146,0.292-0.188,0.624
							c-0.083,0.25-0.229,0.396-0.437,0.437c-0.25,0-0.479-0.146-0.687-0.437c-0.083-0.291,0-0.499,0.25-0.624
							c0.25-0.125,0.375-0.27,0.375-0.437c-0.083-0.083-0.25-0.083-0.5,0c-0.083-0.042-0.125-0.167-0.125-0.375
							c0-0.291,0-0.458,0-0.499c0-0.083,0.083-0.166,0.25-0.25c0.125-0.083,0.187-0.187,0.187-0.312l-0.437-0.25
							c0.083-0.708,0.042-1.124-0.125-1.248c-0.208,0.042-0.312,0.208-0.312,0.5c0,0.416,0,0.645,0,0.686
							c-0.208,0.125-0.333,0.229-0.375,0.312c0.5,0.499,0.604,0.978,0.312,1.435c-0.291-0.083-0.457-0.083-0.499,0
							c0,0.167,0.125,0.333,0.375,0.5c0.166,0.125,0.229,0.292,0.187,0.499c0,0.333-0.187,0.499-0.562,0.499
							c-0.249,0-0.416-0.125-0.499-0.374c-0.125-0.416-0.208-0.645-0.25-0.687c-0.124,0-0.229,0.146-0.312,0.437
							c-0.624-0.083-0.957-0.416-0.998-0.998c-0.125-0.042-0.208,0-0.25,0.125c-0.083,0.083-0.145,0.125-0.187,0.125
							c-0.499-0.458-0.894-0.604-1.185-0.437c0.042,0.208,0.167,0.375,0.374,0.5c0.333,0.167,0.52,0.27,0.562,0.312
							c0.042,0.167,0.062,0.333,0.062,0.499c0.458-0.208,0.895-0.104,1.31,0.312c0,0.083-0.042,0.167-0.124,0.249
							c-0.125,0.083-0.167,0.188-0.125,0.312c0.167,0.083,0.437,0,0.811-0.249c0.374,0.042,0.562,0.27,0.562,0.686
							c0,0.375-0.188,0.562-0.562,0.562c-0.083,0-0.208-0.063-0.374-0.187c-0.167-0.083-0.312-0.083-0.437,0
							c-0.042,0.124,0,0.229,0.125,0.312c0.083,0.042,0.124,0.104,0.124,0.187c-0.124,0.208-0.312,0.354-0.561,0.437
							c-0.292,0.041-0.541,0.021-0.749-0.063c-0.042,0.042-0.062,0.187-0.062,0.437c-0.042,0.083-0.208,0.208-0.5,0.374
							c-0.25,0.125-0.395,0.292-0.437,0.5c0.249,0.167,0.624,0.021,1.123-0.437c0.083-0.042,0.167,0,0.249,0.125
							c0.083,0.083,0.146,0.104,0.188,0.062c0.249-0.583,0.582-0.895,0.998-0.936c0.083,0,0.146,0.062,0.187,0.187
							c0,0.125,0.042,0.208,0.125,0.25c0.125-0.083,0.208-0.271,0.25-0.562c0.042-0.291,0.166-0.458,0.374-0.499
							c0.208-0.042,0.395,0.021,0.562,0.187c0.166,0.167,0.229,0.354,0.187,0.562c0,0.125-0.104,0.249-0.312,0.374
							c-0.208,0.083-0.292,0.208-0.25,0.375h0.499c0.25,0.374,0.146,0.852-0.312,1.435c0.25,0,0.375,0.188,0.375,0.562
							c0.042,0.5,0.083,0.791,0.125,0.874H544.788z"/>
						
							<radialGradient id="SVGID_42_" cx="1854.7002" cy="-1513.2998" r="0.925" gradientTransform="matrix(1.248 0 0 -1.248 -1622.75 -2598.8574)" gradientUnits="userSpaceOnUse">
							<stop  offset="0.0667" style="stop-color:#FFFFFF;stop-opacity:0.8"/>
							<stop  offset="1" style="stop-color:#FFFFFF;stop-opacity:0.8"/>
						</radialGradient>
						<path style="fill-rule:evenodd;clip-rule:evenodd;fill:url(#SVGID_42_);" d="M691.237-709.68l0.125,0.062l-0.063-0.062
							c0.083,0.042,0.125,0.083,0.125,0.125c0.042,0,0.083,0.042,0.125,0.125v-0.031c0.29,0.285,0.664,0.275,1.123-0.031
							c0.25-0.25,0.395-0.458,0.437-0.624c0.083-0.208,0.042-0.396-0.125-0.562c-0.416-0.417-0.853-0.645-1.311-0.686
							c-0.541,0-0.894,0.27-1.061,0.811c-0.042,0.25,0,0.458,0.125,0.624C690.863-709.763,691.029-709.68,691.237-709.68z"/>
						
							<radialGradient id="SVGID_43_" cx="1838" cy="-1541.8999" r="1.2375" gradientTransform="matrix(1.248 0 0 -1.248 -1622.75 -2670.2412)" gradientUnits="userSpaceOnUse">
							<stop  offset="0.0667" style="stop-color:#FFFFFF;stop-opacity:0.8"/>
							<stop  offset="1" style="stop-color:#FFFFFF;stop-opacity:0.8"/>
						</radialGradient>
						<path style="fill-rule:evenodd;clip-rule:evenodd;fill:url(#SVGID_43_);" d="M670.396-747.057
							c-0.291-0.083-0.479-0.104-0.562-0.062l-0.624,0.686c-0.083,0.083,0.104,0.271,0.562,0.562
							c0.333,0.208,0.604,0.374,0.811,0.499l1.061,0.437c0.291,0.124,0.479,0.145,0.562,0.062l0.686-0.686
							c0.125-0.125-0.333-0.458-1.373-0.999L670.396-747.057z"/>
						
							<radialGradient id="SVGID_44_" cx="1577.8999" cy="-1530.25" r="0.875" gradientTransform="matrix(1.248 0 0 -1.248 -1622.75 -2641.1641)" gradientUnits="userSpaceOnUse">
							<stop  offset="0.0667" style="stop-color:#FFFFFF;stop-opacity:0.8"/>
							<stop  offset="1" style="stop-color:#FFFFFF;stop-opacity:0.8"/>
						</radialGradient>
						<path style="fill-rule:evenodd;clip-rule:evenodd;fill:url(#SVGID_44_);" d="M345.425-730.646
							c0,0.375,0.353,0.479,1.061,0.312c0.582-0.249,0.874-0.624,0.874-1.123v-0.874c0-0.457-0.354-0.541-1.061-0.25
							c-0.582,0.25-0.873,0.604-0.873,1.061V-730.646z"/>
						
							<radialGradient id="SVGID_45_" cx="1543.25" cy="-1533.9502" r="2.625" gradientTransform="matrix(1.248 0 0 -1.248 -1622.75 -2650.3994)" gradientUnits="userSpaceOnUse">
							<stop  offset="0.0667" style="stop-color:#FFFFFF;stop-opacity:0.8"/>
							<stop  offset="1" style="stop-color:#FFFFFF;stop-opacity:0.8"/>
						</radialGradient>
						<path style="fill-rule:evenodd;clip-rule:evenodd;fill:url(#SVGID_45_);" d="M300.935-734.078l0.624,0.063
							c0,0.042-0.104,0.27-0.312,0.686c0.083,0.25,0.249,0.354,0.499,0.312c0.125-0.083,0.27-0.291,0.437-0.624
							c0.167,0.041,0.312,0.208,0.436,0.499h0.312c0.167-0.167,0.167-0.375,0-0.624c-0.208-0.292-0.312-0.479-0.312-0.562
							c0-0.167,0.063-0.354,0.188-0.562c0.083-0.083,0.208-0.229,0.374-0.437c0.208,0.208,0.416,0.52,0.624,0.936
							c0,0.083-0.083,0.229-0.25,0.437c-0.166,0.208-0.249,0.374-0.249,0.499c0,0.291,0.146,0.396,0.437,0.312
							c0.166,0,0.312-0.167,0.436-0.499c0.167,0.083,0.333,0.291,0.5,0.624c0.333,0.042,0.457-0.062,0.374-0.312
							c0-0.166-0.083-0.374-0.25-0.624c0.833-0.083,1.04-0.312,0.624-0.687c-0.416,0-0.748-0.021-0.998-0.063
							c-0.083-0.125-0.292-0.437-0.624-0.936c0.125-0.167,0.479-0.208,1.061-0.125c0.125,0,0.249,0.146,0.374,0.437
							c0.125,0.291,0.25,0.458,0.375,0.499c0.25,0.083,0.375,0,0.375-0.249c0-0.25-0.063-0.437-0.187-0.562
							c0.041-0.167,0.291-0.229,0.749-0.187c0.208-0.167,0.208-0.354,0-0.562c-0.416,0.042-0.666,0.021-0.749-0.062
							c0.374-0.624,0.353-0.936-0.063-0.936c-0.167,0-0.312,0.146-0.437,0.437c-0.125,0.333-0.25,0.52-0.375,0.561
							c-0.582,0.042-0.957,0.021-1.123-0.062c0.042-0.083,0.229-0.417,0.562-0.998c0.208-0.042,0.561-0.063,1.06-0.063l0.188-0.249
							l-0.125-0.312l-0.687-0.063c0.042-0.125,0.125-0.333,0.25-0.624c0.083-0.208-0.021-0.333-0.312-0.374
							c-0.125,0.042-0.229,0.125-0.312,0.249c-0.083,0.208-0.167,0.333-0.25,0.375c-0.124-0.292-0.27-0.479-0.436-0.562
							c-0.375,0.042-0.479,0.208-0.312,0.499c0.208,0.375,0.333,0.624,0.374,0.749c-0.042,0.083-0.229,0.417-0.562,0.999
							c-0.416-0.417-0.624-0.729-0.624-0.936c0-0.25,0.167-0.583,0.5-0.999c-0.083-0.208-0.25-0.312-0.5-0.312
							c-0.166,0.292-0.291,0.479-0.374,0.562c-0.208-0.25-0.374-0.437-0.499-0.562c-0.208-0.166-0.375-0.104-0.499,0.187
							c0.208,0.292,0.312,0.521,0.312,0.687c-0.042,0.083-0.146,0.104-0.312,0.062c-0.167,0-0.271,0.021-0.312,0.063
							c-0.083,0.166-0.125,0.27-0.125,0.312c0,0.291,0.395,0.395,1.185,0.312l0.562,0.936c-0.167,0.166-0.541,0.187-1.123,0.062
							c-0.208-0.333-0.375-0.562-0.499-0.686c-0.208-0.25-0.416-0.229-0.624,0.062c0.167,0.208,0.25,0.416,0.25,0.624
							c-0.042,0.042-0.167,0.062-0.375,0.062c-0.208,0-0.333,0-0.375,0c-0.167,0.208-0.167,0.396,0,0.562
							c0.125,0.083,0.375,0.104,0.749,0.062c-0.125,0.25-0.208,0.479-0.25,0.687c0.208,0.291,0.437,0.312,0.686,0.062
							c0.125-0.167,0.271-0.417,0.437-0.749c0.666,0,1.04,0.021,1.123,0.063c-0.125,0.333-0.312,0.665-0.562,0.998
							c-0.374,0-0.728,0.021-1.06,0.063c-0.083,0.042-0.125,0.125-0.125,0.25S300.851-734.161,300.935-734.078z"/>
						
							<radialGradient id="SVGID_46_" cx="1545.5498" cy="-1515.2002" r="2.625" gradientTransform="matrix(1.248 0 0 -1.248 -1622.75 -2603.6006)" gradientUnits="userSpaceOnUse">
							<stop  offset="0.0667" style="stop-color:#FFFFFF;stop-opacity:0.8"/>
							<stop  offset="1" style="stop-color:#FFFFFF;stop-opacity:0.8"/>
						</radialGradient>
						<path style="fill-rule:evenodd;clip-rule:evenodd;fill:url(#SVGID_46_);" d="M305.802-710.366
							c-0.208-0.333-0.312-0.541-0.312-0.624c0-0.042,0.187-0.374,0.561-0.998l0.624,0.998c0,0.083-0.083,0.229-0.25,0.437
							c-0.166,0.208-0.25,0.374-0.25,0.499c0,0.291,0.146,0.396,0.437,0.312c0.166-0.042,0.312-0.208,0.437-0.499
							c0.167,0.083,0.333,0.291,0.499,0.624c0.333,0,0.458-0.125,0.375-0.374c0-0.167-0.083-0.375-0.25-0.624
							c0.292,0,0.52-0.063,0.687-0.188c0.166-0.125,0.146-0.292-0.063-0.499h-0.999c-0.167-0.167-0.374-0.499-0.624-0.998
							c0.083-0.083,0.25-0.125,0.5-0.125c0.125,0,0.312,0.021,0.562,0.062c0.125,0.042,0.25,0.188,0.375,0.437
							c0.125,0.291,0.229,0.458,0.312,0.499c0.249,0.083,0.395,0,0.437-0.249c0.042-0.25-0.021-0.458-0.188-0.624
							c0.042-0.125,0.292-0.167,0.749-0.125c0.167-0.167,0.167-0.354,0-0.562c-0.416,0.042-0.666,0.021-0.749-0.062
							c0.375-0.624,0.354-0.936-0.062-0.936c-0.167,0-0.312,0.146-0.437,0.437c-0.125,0.333-0.25,0.52-0.374,0.561
							c-0.583,0.042-0.957,0.021-1.124-0.062c0.042-0.083,0.229-0.416,0.562-0.998c0.125-0.042,0.478-0.063,1.061-0.063l0.187-0.249
							c0-0.125-0.042-0.229-0.125-0.312c-0.083-0.042-0.188-0.063-0.312-0.063c-0.208,0-0.333,0-0.375,0
							c0.042-0.125,0.125-0.333,0.25-0.624c0.083-0.208-0.021-0.333-0.312-0.374c-0.125,0-0.229,0.083-0.312,0.25
							c-0.083,0.167-0.167,0.271-0.25,0.312c-0.083-0.041-0.146-0.124-0.187-0.249c-0.083-0.125-0.167-0.208-0.25-0.25
							c-0.375,0.042-0.479,0.208-0.312,0.499c0.208,0.375,0.333,0.624,0.374,0.749c-0.042,0.083-0.229,0.417-0.561,0.999
							c-0.417-0.417-0.624-0.729-0.624-0.936c0-0.25,0.166-0.583,0.499-0.999c-0.083-0.249-0.25-0.353-0.499-0.312
							c-0.167,0.25-0.292,0.417-0.375,0.499c-0.208-0.249-0.374-0.416-0.499-0.499c-0.208-0.166-0.374-0.104-0.499,0.188
							c0.208,0.25,0.312,0.479,0.312,0.687c-0.333,0-0.541,0.042-0.624,0.125c-0.083,0.167-0.125,0.27-0.125,0.312
							c0,0.291,0.396,0.395,1.186,0.312l0.561,0.936c-0.167,0.166-0.541,0.187-1.123,0.062c-0.208-0.333-0.374-0.562-0.499-0.686
							c-0.208-0.25-0.416-0.229-0.624,0.062c0.167,0.208,0.25,0.416,0.25,0.624c-0.042,0.042-0.167,0.062-0.375,0.062
							c-0.208,0-0.333,0-0.374,0c-0.167,0.208-0.167,0.396,0,0.562c0.125,0.083,0.374,0.104,0.749,0.062
							c-0.125,0.25-0.208,0.479-0.25,0.687c0.208,0.291,0.437,0.291,0.686,0c0.125-0.125,0.271-0.354,0.437-0.687
							c0.125,0,0.333-0.021,0.624-0.062c0.25,0,0.416,0.042,0.499,0.125c-0.125,0.333-0.312,0.665-0.561,0.998h-1.061
							c-0.208,0.208-0.208,0.416,0,0.624l0.624,0.063c0,0.083-0.104,0.292-0.312,0.624c0.083,0.292,0.25,0.416,0.499,0.374
							c0.125-0.083,0.271-0.291,0.437-0.624c0.166,0.041,0.312,0.208,0.437,0.499h0.312
							C305.926-709.95,305.926-710.159,305.802-710.366z"/>
						
							<radialGradient id="SVGID_47_" cx="1639.75" cy="-1545.1001" r="1.825" gradientTransform="matrix(1.248 0 0 -1.248 -1622.75 -2678.2285)" gradientUnits="userSpaceOnUse">
							<stop  offset="0.0667" style="stop-color:#FFFFFF;stop-opacity:0.8"/>
							<stop  offset="1" style="stop-color:#FFFFFF;stop-opacity:0.8"/>
						</radialGradient>
						<path style="fill-rule:evenodd;clip-rule:evenodd;fill:url(#SVGID_47_);" d="M424.671-747.868c0.208,0,0.291-0.083,0.249-0.25
							c0-0.083-0.042-0.229-0.125-0.437c0.582,0,0.707-0.145,0.375-0.437l-0.686-0.063l-0.437-0.687
							c0.083-0.083,0.333-0.104,0.749-0.063c0.083,0,0.167,0.104,0.25,0.312c0.083,0.208,0.167,0.333,0.25,0.375
							c0.166,0.042,0.27-0.021,0.312-0.187c0-0.208-0.063-0.354-0.188-0.437c0.042-0.083,0.229-0.104,0.562-0.063
							c0.166-0.167,0.166-0.292,0-0.374c-0.292,0-0.479-0.042-0.562-0.125c0.125-0.125,0.188-0.25,0.188-0.375
							c0-0.125-0.063-0.187-0.188-0.187s-0.229,0.083-0.312,0.25c-0.083,0.208-0.167,0.333-0.25,0.375
							c-0.458,0-0.729-0.021-0.811-0.063l0.437-0.686h0.686l0.125-0.188l-0.063-0.25h-0.437c0-0.083,0.042-0.229,0.125-0.437
							c0.042-0.167-0.021-0.27-0.187-0.312c-0.167,0.25-0.292,0.396-0.374,0.437c-0.125-0.167-0.229-0.271-0.312-0.312
							c-0.292,0.042-0.375,0.146-0.25,0.312c0.167,0.25,0.25,0.416,0.25,0.499l-0.375,0.749c-0.291-0.292-0.436-0.52-0.436-0.687
							c0-0.167,0.104-0.396,0.312-0.687c0-0.208-0.104-0.27-0.312-0.187c-0.083,0.167-0.167,0.271-0.25,0.312
							c-0.125-0.167-0.229-0.271-0.312-0.312c-0.167-0.125-0.291-0.083-0.374,0.125c0.124,0.166,0.187,0.312,0.187,0.437
							c-0.208,0-0.354,0.021-0.437,0.063c-0.042,0.125-0.062,0.208-0.062,0.25c0,0.125,0.104,0.188,0.312,0.188h0.499l0.437,0.686
							c-0.042,0.042-0.312,0.063-0.812,0.063c-0.166-0.25-0.291-0.416-0.374-0.5c-0.125-0.167-0.25-0.145-0.374,0.063
							c0.083,0.125,0.124,0.25,0.124,0.375c-0.249,0.042-0.416,0.083-0.499,0.125c-0.166,0.083-0.166,0.208,0,0.374l0.499,0.063
							l-0.124,0.437c0.124,0.208,0.27,0.208,0.436,0c0.083-0.125,0.188-0.291,0.312-0.5c0.083,0,0.229,0,0.437,0
							c0.167,0,0.292,0.021,0.375,0.063l-0.437,0.687l-0.749,0.063c-0.167,0.083-0.167,0.208,0,0.374l0.437,0.063
							c0,0.042-0.063,0.188-0.187,0.437c0,0.167,0.104,0.25,0.312,0.25l0.312-0.437c0.124,0.042,0.229,0.167,0.312,0.375
							l0.249-0.063c0.083-0.125,0.083-0.271,0-0.437c-0.167-0.167-0.249-0.292-0.249-0.375c0-0.083,0.124-0.312,0.374-0.687
							l0.437,0.687c-0.208,0.292-0.312,0.499-0.312,0.624c0,0.167,0.083,0.25,0.249,0.25c0.125-0.042,0.229-0.167,0.312-0.375
							C424.421-748.263,424.546-748.118,424.671-747.868z"/>
						
							<radialGradient id="SVGID_48_" cx="2031.7998" cy="-1580.8501" r="0.8375" gradientTransform="matrix(1.248 0 0 -1.248 -1622.75 -2767.459)" gradientUnits="userSpaceOnUse">
							<stop  offset="0.0667" style="stop-color:#FFFFFF;stop-opacity:0.8"/>
							<stop  offset="1" style="stop-color:#FFFFFF;stop-opacity:0.8"/>
						</radialGradient>
						<path style="fill-rule:evenodd;clip-rule:evenodd;fill:url(#SVGID_48_);" d="M911.504-794.479
							c0,0.208,0.229,0.354,0.686,0.437c0.416,0.125,0.624,0.104,0.624-0.063c0.042-0.374,0.374-0.561,0.998-0.561
							c0.375,0,0.479-0.104,0.312-0.312c-0.208-0.208-0.499-0.312-0.874-0.312C912.128-795.291,911.545-795.021,911.504-794.479z"/>
						
							<radialGradient id="SVGID_49_" cx="2169.25" cy="-1586.0498" r="0.925" gradientTransform="matrix(1.248 0 0 -1.248 -1622.75 -2780.4365)" gradientUnits="userSpaceOnUse">
							<stop  offset="0.0667" style="stop-color:#FFFFFF;stop-opacity:0.8"/>
							<stop  offset="1" style="stop-color:#FFFFFF;stop-opacity:0.8"/>
						</radialGradient>
						<path style="fill-rule:evenodd;clip-rule:evenodd;fill:url(#SVGID_49_);" d="M1085.221-800.282
							c0.208-0.125,0.354-0.312,0.437-0.562c0-0.333-0.042-0.541-0.125-0.624c-0.416-0.416-0.853-0.624-1.31-0.624
							c-0.583-0.083-0.957,0.187-1.123,0.811c-0.083,0.5,0.145,0.791,0.686,0.874h0.063c0.041,0.042,0.083,0.062,0.125,0.062
							l0.063,0.063C1084.41-799.908,1084.805-799.908,1085.221-800.282z"/>
						
							<radialGradient id="SVGID_50_" cx="2180.0996" cy="-1566.3496" r="1.4379" gradientTransform="matrix(1.248 0 0 -1.248 -1622.75 -2731.2666)" gradientUnits="userSpaceOnUse">
							<stop  offset="0.0667" style="stop-color:#FFFFFF;stop-opacity:0.8"/>
							<stop  offset="1" style="stop-color:#FFFFFF;stop-opacity:0.8"/>
						</radialGradient>
						<path style="fill-rule:evenodd;clip-rule:evenodd;fill:url(#SVGID_50_);" d="M1097.077-775.261h0.437
							c0.458,0,0.977-0.167,1.56-0.499c0.416-0.208,0.749-0.52,0.999-0.936c0.167-0.333,0.125-0.604-0.125-0.811
							c-0.167-0.167-0.541-0.25-1.124-0.25h-0.437c-0.458,0-0.978,0.167-1.56,0.499c-0.5,0.25-0.832,0.541-0.999,0.874
							c-0.167,0.416-0.125,0.707,0.125,0.874C1096.163-775.344,1096.537-775.261,1097.077-775.261z"/>
						
							<radialGradient id="SVGID_51_" cx="2155.4502" cy="-1589.1001" r="1.5625" gradientTransform="matrix(1.248 0 0 -1.248 -1622.75 -2788.0498)" gradientUnits="userSpaceOnUse">
							<stop  offset="0.0667" style="stop-color:#FFFFFF;stop-opacity:0.8"/>
							<stop  offset="1" style="stop-color:#FFFFFF;stop-opacity:0.8"/>
						</radialGradient>
						<path style="fill-rule:evenodd;clip-rule:evenodd;fill:url(#SVGID_51_);" d="M1069.123-804.588
							c0.167-0.333,0.187-0.562,0.062-0.687l-0.936-0.687c-0.208-0.125-0.312-0.292-0.312-0.499c-0.042-0.25-0.271-0.333-0.687-0.25
							c-0.291,0.083-0.541,0.208-0.749,0.375c-0.499,0.333-0.832,0.624-0.999,0.874c-0.25,0.25-0.375,0.499-0.375,0.749
							c0.042,0.333,0.229,0.624,0.562,0.874c0.166,0.167,0.458,0.375,0.874,0.624c0.333,0.333,0.895,0.167,1.685-0.499
							L1069.123-804.588z"/>
						
							<radialGradient id="SVGID_52_" cx="2072.5996" cy="-1512.5498" r="0.8002" gradientTransform="matrix(1.248 0 0 -1.248 -1622.75 -2596.9854)" gradientUnits="userSpaceOnUse">
							<stop  offset="0.0667" style="stop-color:#FFFFFF;stop-opacity:0.8"/>
							<stop  offset="1" style="stop-color:#FFFFFF;stop-opacity:0.8"/>
						</radialGradient>
						<path style="fill-rule:evenodd;clip-rule:evenodd;fill:url(#SVGID_52_);" d="M962.983-708.307l0.374-0.063l0.624,0.063h0.187
							c0.083,0.042,0.146,0.042,0.188,0c0.167-0.292,0.291-0.811,0.375-1.56l-0.375-0.374c-0.25-0.167-0.5-0.208-0.749-0.125
							c-0.291,0.083-0.5,0.271-0.624,0.562C962.816-709.388,962.816-708.889,962.983-708.307z"/>
						
							<radialGradient id="SVGID_53_" cx="2129.1499" cy="-1534.2998" r="1.4375" gradientTransform="matrix(1.248 0 0 -1.248 -1622.75 -2651.2725)" gradientUnits="userSpaceOnUse">
							<stop  offset="0.0667" style="stop-color:#FFFFFF;stop-opacity:0.8"/>
							<stop  offset="1" style="stop-color:#FFFFFF;stop-opacity:0.8"/>
						</radialGradient>
						<path style="fill-rule:evenodd;clip-rule:evenodd;fill:url(#SVGID_53_);" d="M1032.245-736.324
							c-0.167,0.333-0.125,0.603,0.125,0.811c0.167,0.166,0.541,0.25,1.124,0.25h0.437c0.458,0,0.978-0.167,1.56-0.5
							c0.5-0.249,0.832-0.561,0.999-0.936c0.167-0.333,0.125-0.603-0.125-0.811c-0.166-0.167-0.541-0.249-1.123-0.249h-0.437
							c-0.458,0-0.977,0.166-1.56,0.499C1032.828-737.052,1032.495-736.74,1032.245-736.324z"/>
						
							<radialGradient id="SVGID_54_" cx="2040.8999" cy="-1562.5498" r="0.875" gradientTransform="matrix(1.248 0 0 -1.248 -1622.75 -2721.7822)" gradientUnits="userSpaceOnUse">
							<stop  offset="0.0667" style="stop-color:#FFFFFF;stop-opacity:0.8"/>
							<stop  offset="1" style="stop-color:#FFFFFF;stop-opacity:0.8"/>
						</radialGradient>
						<path style="fill-rule:evenodd;clip-rule:evenodd;fill:url(#SVGID_54_);" d="M923.235-770.893
							c0,0.208,0.146,0.333,0.437,0.375c0.249,0,0.457-0.042,0.624-0.125c0.582-0.25,0.873-0.624,0.873-1.123v-0.874
							c0-0.458-0.354-0.541-1.061-0.25c-0.582,0.25-0.874,0.624-0.874,1.124V-770.893z"/>
						
							<radialGradient id="SVGID_55_" cx="2006.25" cy="-1566.2461" r="2.6268" gradientTransform="matrix(1.248 0 0 -1.248 -1622.75 -2731.0078)" gradientUnits="userSpaceOnUse">
							<stop  offset="0.0667" style="stop-color:#FFFFFF;stop-opacity:0.8"/>
							<stop  offset="1" style="stop-color:#FFFFFF;stop-opacity:0.8"/>
						</radialGradient>
						<path style="fill-rule:evenodd;clip-rule:evenodd;fill:url(#SVGID_55_);" d="M878.745-774.387l0.624,0.063
							c0,0.042-0.104,0.271-0.312,0.687c0.083,0.25,0.229,0.354,0.436,0.312c0.167-0.083,0.333-0.291,0.5-0.624
							c0.083,0,0.166,0.083,0.249,0.25c0.042,0.166,0.104,0.271,0.187,0.312l0.312-0.063c0.167-0.166,0.167-0.375,0-0.624
							c-0.208-0.291-0.312-0.478-0.312-0.562c0-0.042,0.188-0.374,0.562-0.998c0.125,0.083,0.333,0.395,0.624,0.936
							c0,0.125-0.083,0.292-0.25,0.5c-0.167,0.208-0.249,0.374-0.249,0.499c0,0.208,0.125,0.312,0.374,0.312
							c0.208-0.042,0.375-0.229,0.499-0.562c0.167,0.083,0.312,0.292,0.437,0.624c0.333,0.042,0.478-0.063,0.437-0.312
							c0-0.042-0.083-0.25-0.25-0.624c0.791-0.083,0.999-0.312,0.624-0.687c-0.416,0-0.749-0.021-0.998-0.062
							c-0.083-0.083-0.292-0.396-0.624-0.936c0.125-0.167,0.478-0.208,1.061-0.125c0.125,0.042,0.25,0.187,0.375,0.437
							c0.125,0.291,0.229,0.458,0.312,0.499c0.25,0.083,0.395,0,0.437-0.25c0.042-0.208-0.021-0.395-0.187-0.561
							c0.042-0.167,0.292-0.208,0.749-0.125c0.167-0.208,0.167-0.395,0-0.562c-0.416,0-0.666-0.042-0.749-0.124
							c0.333-0.583,0.292-0.874-0.125-0.874c-0.166,0-0.291,0.125-0.374,0.374c-0.125,0.333-0.25,0.521-0.375,0.562
							c-0.666,0-1.041-0.021-1.123-0.062c0.041-0.083,0.229-0.417,0.562-0.999c0.208-0.042,0.562-0.062,1.061-0.062l0.188-0.25
							l-0.125-0.312l-0.687-0.062c0.042-0.125,0.125-0.333,0.25-0.624c0.042-0.208-0.062-0.333-0.312-0.375
							c-0.125,0.042-0.229,0.146-0.312,0.312c-0.083,0.167-0.167,0.271-0.25,0.312c-0.083-0.041-0.167-0.124-0.25-0.249
							c-0.083-0.167-0.146-0.25-0.187-0.25c-0.375,0.042-0.5,0.208-0.375,0.499c0.25,0.333,0.396,0.562,0.437,0.687l-0.562,0.998
							c-0.416-0.416-0.624-0.728-0.624-0.936c0-0.249,0.167-0.561,0.5-0.936c-0.083-0.249-0.25-0.353-0.5-0.312
							c-0.167,0.25-0.291,0.417-0.374,0.499c-0.208-0.249-0.374-0.416-0.499-0.499c-0.208-0.166-0.375-0.125-0.499,0.125
							c0.166,0.292,0.27,0.52,0.312,0.686c-0.042,0.083-0.146,0.125-0.312,0.125c-0.167,0-0.271,0-0.312,0
							c-0.125,0.125-0.188,0.229-0.188,0.312c0.042,0.292,0.458,0.396,1.248,0.312l0.562,0.936
							c-0.042,0.083-0.417,0.125-1.123,0.125c-0.208-0.333-0.375-0.583-0.499-0.749c-0.208-0.249-0.417-0.229-0.624,0.063
							c0.166,0.249,0.249,0.457,0.249,0.624c-0.374,0-0.624,0.041-0.749,0.124c-0.208,0.167-0.208,0.354,0,0.562
							c0.042,0,0.167,0,0.375,0c0.167,0,0.291,0.021,0.374,0.062c-0.125,0.25-0.208,0.458-0.249,0.624
							c0.208,0.292,0.416,0.312,0.624,0.063c0.124-0.167,0.291-0.417,0.499-0.749c0.249,0.042,0.624,0.062,1.123,0.062
							c-0.125,0.416-0.312,0.749-0.562,0.999c-0.416,0-0.769,0.021-1.06,0.062c-0.083,0.042-0.125,0.125-0.125,0.25
							C878.62-774.574,878.662-774.471,878.745-774.387z"/>
						
							<radialGradient id="SVGID_56_" cx="2008.5498" cy="-1547.5" r="2.625" gradientTransform="matrix(1.248 0 0 -1.248 -1622.75 -2684.2188)" gradientUnits="userSpaceOnUse">
							<stop  offset="0.0667" style="stop-color:#FFFFFF;stop-opacity:0.8"/>
							<stop  offset="1" style="stop-color:#FFFFFF;stop-opacity:0.8"/>
						</radialGradient>
						<path style="fill-rule:evenodd;clip-rule:evenodd;fill:url(#SVGID_56_);" d="M881.927-750.239
							c0.083,0.25,0.229,0.354,0.437,0.312c0.167-0.083,0.333-0.291,0.499-0.624c0.083,0,0.167,0.083,0.25,0.25
							c0.042,0.125,0.104,0.208,0.187,0.25h0.312c0.167-0.166,0.167-0.375,0-0.624c-0.208-0.291-0.312-0.478-0.312-0.562
							c0-0.083,0.187-0.437,0.562-1.061c0.25,0.333,0.437,0.666,0.562,0.999c0.042,0.125-0.021,0.27-0.187,0.437
							c-0.167,0.25-0.25,0.416-0.25,0.499c0,0.25,0.125,0.354,0.375,0.312c0.208,0,0.374-0.166,0.499-0.499
							c0.167,0.083,0.312,0.292,0.437,0.624c0.333,0.042,0.478-0.063,0.436-0.312c0-0.042-0.083-0.25-0.249-0.624
							c0.791-0.083,0.998-0.312,0.624-0.687c-0.416,0-0.77-0.021-1.061-0.062l-0.562-0.936c0.125-0.167,0.479-0.208,1.061-0.125
							c0.125,0.042,0.25,0.187,0.375,0.437c0.124,0.291,0.229,0.458,0.312,0.499c0.249,0.083,0.395,0,0.436-0.25
							c0.042-0.208-0.021-0.395-0.187-0.561c0.042-0.167,0.292-0.229,0.749-0.187c0.167-0.167,0.167-0.354,0-0.562
							c-0.416,0.042-0.666,0.021-0.749-0.062c0.375-0.624,0.333-0.936-0.125-0.936c-0.166,0-0.291,0.145-0.374,0.436
							c-0.125,0.333-0.25,0.521-0.374,0.562c-0.583,0.042-0.957,0.021-1.124-0.062c0.042-0.083,0.229-0.417,0.562-0.999
							c0.208-0.042,0.562-0.062,1.061-0.062l0.187-0.25l-0.125-0.312l-0.686-0.062c0.042-0.125,0.125-0.333,0.249-0.624
							c0.042-0.208-0.062-0.333-0.312-0.375c-0.124,0.042-0.229,0.125-0.312,0.25c-0.083,0.208-0.166,0.333-0.249,0.375
							c-0.167-0.292-0.312-0.479-0.437-0.562c-0.374,0.042-0.499,0.208-0.374,0.499c0.249,0.374,0.374,0.624,0.374,0.749
							l-0.499,0.998c-0.416-0.416-0.624-0.728-0.624-0.936c0-0.249,0.146-0.582,0.437-0.998c0-0.208-0.146-0.312-0.437-0.312
							l-0.375,0.562c-0.208-0.25-0.375-0.437-0.499-0.562c-0.208-0.167-0.375-0.104-0.499,0.187c0.166,0.292,0.271,0.52,0.312,0.686
							c-0.333,0-0.542,0.042-0.624,0.125c-0.125,0.083-0.188,0.187-0.188,0.312c0.042,0.292,0.458,0.396,1.248,0.312l0.562,0.936
							c-0.167,0.167-0.541,0.187-1.123,0.063c-0.208-0.333-0.375-0.562-0.499-0.687c-0.208-0.249-0.417-0.229-0.624,0.063
							c0.166,0.208,0.25,0.416,0.25,0.624c-0.042,0.042-0.167,0.062-0.375,0.062c-0.208,0-0.333,0-0.374,0
							c-0.208,0.208-0.208,0.395,0,0.562c0.125,0.083,0.374,0.104,0.749,0.062c-0.167,0.25-0.25,0.479-0.25,0.686
							c0.208,0.292,0.416,0.312,0.624,0.063c0.125-0.167,0.291-0.417,0.499-0.749c0.666,0,1.04,0.021,1.123,0.062
							c-0.125,0.333-0.312,0.666-0.562,0.999c-0.416,0-0.77,0.021-1.061,0.062c-0.083,0.042-0.125,0.125-0.125,0.25
							c0,0.125,0.042,0.229,0.125,0.312l0.624,0.062C882.239-750.883,882.135-750.655,881.927-750.239z"/>
						
							<radialGradient id="SVGID_57_" cx="1979.6001" cy="-1516.8999" r="2.625" gradientTransform="matrix(1.248 0 0 -1.248 -1622.75 -2607.8428)" gradientUnits="userSpaceOnUse">
							<stop  offset="0.0667" style="stop-color:#FFFFFF;stop-opacity:0.8"/>
							<stop  offset="1" style="stop-color:#FFFFFF;stop-opacity:0.8"/>
						</radialGradient>
						<path style="fill-rule:evenodd;clip-rule:evenodd;fill:url(#SVGID_57_);" d="M848.669-712.363
							c0.166,0.083,0.333,0.292,0.499,0.624c0.333,0,0.478-0.125,0.437-0.374c0-0.042-0.083-0.25-0.25-0.624
							c0.291,0,0.499-0.062,0.624-0.187c0.208-0.125,0.208-0.292,0-0.499h-1.061c-0.083-0.083-0.27-0.417-0.561-0.999
							c0.125-0.125,0.478-0.146,1.061-0.062c0.125,0,0.25,0.146,0.375,0.437c0.125,0.291,0.229,0.457,0.312,0.499
							c0.25,0.083,0.395,0,0.437-0.25c0-0.291-0.083-0.499-0.25-0.624c0.083-0.125,0.354-0.166,0.811-0.125
							c0.167-0.166,0.167-0.353,0-0.561c-0.416,0.042-0.686,0.021-0.811-0.063c0.166-0.208,0.25-0.395,0.25-0.561
							c0-0.25-0.104-0.375-0.312-0.375c-0.166,0-0.291,0.146-0.375,0.437c-0.167,0.333-0.312,0.52-0.437,0.562
							c-0.541,0.042-0.895,0.021-1.061-0.063c0.083-0.291,0.27-0.624,0.561-0.998c0.167-0.042,0.521-0.062,1.061-0.062l0.125-0.25
							c0-0.042-0.042-0.146-0.125-0.312l-0.624-0.062c0.042-0.125,0.125-0.333,0.25-0.624c0.042-0.208-0.063-0.333-0.312-0.375
							c-0.125,0.042-0.229,0.125-0.312,0.25c-0.125,0.208-0.208,0.333-0.25,0.375c-0.167-0.292-0.312-0.479-0.437-0.562
							c-0.374,0.042-0.499,0.208-0.374,0.499c0.25,0.375,0.374,0.624,0.374,0.749c-0.125,0.333-0.312,0.666-0.561,0.998
							c-0.417-0.541-0.624-0.853-0.624-0.936c0-0.125,0.083-0.291,0.249-0.499c0.167-0.208,0.25-0.375,0.25-0.499
							c-0.083-0.25-0.25-0.354-0.499-0.312l-0.375,0.562c-0.249-0.333-0.395-0.52-0.436-0.562c-0.208-0.167-0.375-0.104-0.5,0.187
							c0.167,0.292,0.271,0.52,0.312,0.687c-0.333,0-0.561,0.042-0.686,0.125c-0.083,0.167-0.125,0.271-0.125,0.312
							c0.042,0.292,0.437,0.395,1.186,0.312c0.083,0.083,0.291,0.395,0.624,0.936c-0.167,0.167-0.541,0.187-1.123,0.062
							c-0.208-0.333-0.375-0.561-0.5-0.686c-0.208-0.25-0.416-0.229-0.624,0.063c0.167,0.208,0.25,0.416,0.25,0.624
							c-0.042,0.042-0.167,0.063-0.374,0.063c-0.208,0-0.333,0-0.375,0c-0.208,0.208-0.208,0.395,0,0.561
							c0.125,0.083,0.375,0.104,0.749,0.063c-0.167,0.249-0.25,0.479-0.25,0.686c0.208,0.292,0.416,0.292,0.624,0
							c0.125-0.125,0.292-0.354,0.5-0.686c0.124,0,0.333-0.021,0.624-0.063c0.249,0,0.416,0.042,0.499,0.125l-0.624,0.999h-1.061
							c-0.125,0.208-0.125,0.416,0,0.624l0.686,0.062l-0.312,0.624c0.083,0.291,0.229,0.416,0.437,0.374
							c0.125-0.083,0.271-0.291,0.437-0.624c0.208,0.042,0.354,0.208,0.437,0.5h0.374c0.125-0.208,0.104-0.416-0.062-0.624
							c-0.208-0.333-0.312-0.542-0.312-0.624c0-0.25,0.208-0.583,0.624-0.999c0.125,0.125,0.312,0.458,0.561,0.999
							c0.042,0.124-0.042,0.27-0.249,0.436c-0.167,0.25-0.25,0.417-0.25,0.5c0.083,0.249,0.229,0.353,0.437,0.312
							C848.398-711.864,848.544-712.03,848.669-712.363z"/>
						
							<radialGradient id="SVGID_58_" cx="2016.8999" cy="-1521" r="1.4126" gradientTransform="matrix(1.248 0 0 -1.248 -1622.75 -2618.0762)" gradientUnits="userSpaceOnUse">
							<stop  offset="0.0667" style="stop-color:#FFFFFF;stop-opacity:0.8"/>
							<stop  offset="1" style="stop-color:#FFFFFF;stop-opacity:0.8"/>
						</radialGradient>
						<path style="fill-rule:evenodd;clip-rule:evenodd;fill:url(#SVGID_58_);" d="M892.66-719.539c0,1.04,0.479,1.56,1.435,1.56
							c0.416-0.042,0.811-0.208,1.186-0.499c0.374-0.333,0.561-0.707,0.561-1.123v-0.686c0-1.041-0.479-1.56-1.435-1.56
							c-0.416,0-0.811,0.166-1.186,0.499c-0.374,0.333-0.561,0.707-0.561,1.123V-719.539z"/>
						
							<radialGradient id="SVGID_59_" cx="2102.75" cy="-1577.3984" r="1.8257" gradientTransform="matrix(1.248 0 0 -1.248 -1622.75 -2758.8438)" gradientUnits="userSpaceOnUse">
							<stop  offset="0.0667" style="stop-color:#FFFFFF;stop-opacity:0.8"/>
							<stop  offset="1" style="stop-color:#FFFFFF;stop-opacity:0.8"/>
						</radialGradient>
						<path style="fill-rule:evenodd;clip-rule:evenodd;fill:url(#SVGID_59_);" d="M1001.295-788.24
							c0.125-0.208,0.042-0.499-0.25-0.874c0-0.083,0.125-0.312,0.375-0.686l0.437,0.686c-0.25,0.291-0.375,0.521-0.375,0.687
							c0.083,0.167,0.188,0.229,0.312,0.187c0.125-0.042,0.229-0.166,0.312-0.374c0.125,0.042,0.229,0.187,0.312,0.437
							c0.333,0.042,0.375-0.187,0.125-0.687c0.583,0,0.728-0.146,0.437-0.437l-0.686-0.063l-0.437-0.624
							c0.083-0.125,0.333-0.166,0.749-0.125c0.083,0,0.166,0.104,0.25,0.312c0.083,0.208,0.166,0.333,0.25,0.374
							c0.167,0.042,0.25-0.021,0.25-0.187c0.042-0.167,0-0.292-0.125-0.375c0.042-0.125,0.229-0.166,0.561-0.125
							c0.083-0.125,0.083-0.25,0-0.375l-0.561-0.063c0.208-0.417,0.187-0.624-0.063-0.624c-0.125,0-0.208,0.083-0.25,0.25
							c-0.083,0.208-0.167,0.333-0.25,0.374h-0.811l0.375-0.686l0.749-0.063l0.125-0.187l-0.063-0.187l-0.499-0.063
							c0.042-0.083,0.104-0.229,0.187-0.437c0.042-0.125-0.021-0.208-0.187-0.25c-0.083,0-0.167,0.063-0.25,0.187
							c-0.083,0.125-0.146,0.208-0.188,0.25c-0.083-0.208-0.187-0.333-0.312-0.374c-0.25,0.041-0.333,0.145-0.25,0.312
							c0.208,0.249,0.312,0.436,0.312,0.561l-0.375,0.687c-0.292-0.291-0.437-0.52-0.437-0.687s0.104-0.395,0.312-0.686
							c-0.083-0.167-0.188-0.229-0.312-0.187c-0.042,0.041-0.125,0.166-0.25,0.374c-0.125-0.208-0.229-0.333-0.312-0.374
							c-0.167-0.125-0.292-0.083-0.375,0.124c0.125,0.167,0.188,0.312,0.188,0.437c-0.208,0.042-0.354,0.083-0.437,0.125
							c-0.083,0.083-0.125,0.146-0.125,0.187c0.042,0.208,0.333,0.291,0.874,0.25c0.125,0.083,0.249,0.291,0.374,0.624
							c-0.042,0.042-0.291,0.063-0.749,0.063c-0.166-0.25-0.291-0.417-0.374-0.499c-0.125-0.208-0.271-0.187-0.437,0.062
							c0.125,0.167,0.187,0.312,0.187,0.437c-0.249,0-0.416,0.021-0.499,0.063c-0.167,0.083-0.167,0.208,0,0.375l0.499,0.062
							c-0.083,0.167-0.145,0.312-0.187,0.437c0.167,0.208,0.312,0.208,0.437,0c0.083-0.083,0.208-0.25,0.374-0.499l0.749,0.062
							c-0.083,0.291-0.208,0.521-0.374,0.687l-0.749,0.063c-0.042,0.042-0.062,0.104-0.062,0.187c0,0.083,0.021,0.146,0.062,0.188
							l0.437,0.062c0,0.042-0.063,0.188-0.188,0.437c0,0.208,0.104,0.292,0.312,0.25c0.083-0.042,0.188-0.187,0.312-0.437
							c0.125,0.042,0.229,0.167,0.312,0.374H1001.295z"/>
						
							<radialGradient id="SVGID_60_" cx="1864.3999" cy="-1570.5498" r="0.925" gradientTransform="matrix(1.248 0 0 -1.248 -1622.75 -2741.75)" gradientUnits="userSpaceOnUse">
							<stop  offset="0.0667" style="stop-color:#FFFFFF;stop-opacity:0.8"/>
							<stop  offset="1" style="stop-color:#FFFFFF;stop-opacity:0.8"/>
						</radialGradient>
						<path style="fill-rule:evenodd;clip-rule:evenodd;fill:url(#SVGID_60_);" d="M703.467-781.001
							c0.042,0,0.083,0.021,0.125,0.063c0.374,0.375,0.79,0.375,1.248,0c0.249-0.166,0.395-0.354,0.437-0.562
							c0-0.292-0.042-0.499-0.125-0.624c-0.5-0.417-0.936-0.624-1.311-0.624c-0.582,0-0.957,0.271-1.123,0.811
							c-0.083,0.583,0.146,0.874,0.687,0.874L703.467-781.001z"/>
						
							<radialGradient id="SVGID_61_" cx="1875.2998" cy="-1550.8501" r="1.4375" gradientTransform="matrix(1.248 0 0 -1.248 -1622.75 -2692.5801)" gradientUnits="userSpaceOnUse">
							<stop  offset="0.0667" style="stop-color:#FFFFFF;stop-opacity:0.8"/>
							<stop  offset="1" style="stop-color:#FFFFFF;stop-opacity:0.8"/>
						</radialGradient>
						<path style="fill-rule:evenodd;clip-rule:evenodd;fill:url(#SVGID_61_);" d="M716.696-755.917h0.437
							c0.457,0,0.978-0.166,1.56-0.499c0.416-0.208,0.748-0.52,0.998-0.936c0.167-0.333,0.125-0.603-0.125-0.811
							c-0.167-0.166-0.561-0.25-1.185-0.25h-0.375c-0.458,0-0.978,0.166-1.56,0.499c-0.499,0.25-0.832,0.562-0.998,0.936
							c-0.208,0.375-0.166,0.645,0.125,0.812C715.739-756,716.113-755.917,716.696-755.917z"/>
						
							<radialGradient id="SVGID_62_" cx="1850.6499" cy="-1573.6001" r="1.5625" gradientTransform="matrix(1.248 0 0 -1.248 -1622.75 -2749.3633)" gradientUnits="userSpaceOnUse">
							<stop  offset="0.0667" style="stop-color:#FFFFFF;stop-opacity:0.8"/>
							<stop  offset="1" style="stop-color:#FFFFFF;stop-opacity:0.8"/>
						</radialGradient>
						<path style="fill-rule:evenodd;clip-rule:evenodd;fill:url(#SVGID_62_);" d="M687.868-784.371
							c0.416-0.333,0.686-0.624,0.811-0.874c0.291-0.291,0.333-0.52,0.125-0.686c-0.083-0.125-0.395-0.333-0.936-0.624
							c-0.167-0.125-0.292-0.292-0.374-0.499c0-0.292-0.208-0.375-0.624-0.25c-0.292,0.042-0.542,0.146-0.749,0.312
							c-0.499,0.333-0.832,0.624-0.999,0.874c-0.25,0.249-0.375,0.499-0.375,0.748c0,0.333,0.167,0.624,0.499,0.874
							c0.208,0.167,0.499,0.395,0.874,0.686C686.537-783.435,687.119-783.622,687.868-784.371z"/>
						
							<radialGradient id="SVGID_63_" cx="1895.6499" cy="-1566.8965" r="2.6266" gradientTransform="matrix(1.248 0 0 -1.248 -1622.75 -2732.6318)" gradientUnits="userSpaceOnUse">
							<stop  offset="0.0667" style="stop-color:#FFFFFF;stop-opacity:0.8"/>
							<stop  offset="1" style="stop-color:#FFFFFF;stop-opacity:0.8"/>
						</radialGradient>
						<path style="fill-rule:evenodd;clip-rule:evenodd;fill:url(#SVGID_63_);" d="M741.53-774.138
							c0.125-0.083,0.271-0.292,0.437-0.624c0.167,0.042,0.312,0.229,0.437,0.562l0.374-0.063c0.125-0.167,0.104-0.375-0.062-0.624
							c-0.208-0.291-0.312-0.479-0.312-0.562c0-0.25,0.208-0.583,0.624-0.998l0.561,0.936c0,0.125-0.083,0.292-0.249,0.5
							c-0.167,0.208-0.25,0.374-0.25,0.499c0,0.208,0.146,0.312,0.437,0.312c0.166-0.042,0.312-0.229,0.437-0.562
							c0.166,0.083,0.333,0.291,0.499,0.624c0.333,0.042,0.478-0.062,0.437-0.312c0-0.042-0.083-0.25-0.25-0.624
							c0.749-0.125,0.957-0.354,0.624-0.686c-0.458,0-0.811-0.021-1.061-0.063c-0.208-0.208-0.395-0.52-0.561-0.936
							c0.083-0.167,0.436-0.208,1.06-0.125c0.125,0,0.25,0.146,0.375,0.437c0.125,0.291,0.229,0.457,0.312,0.499
							c0.249,0.125,0.395,0.042,0.437-0.25c0-0.249-0.083-0.437-0.25-0.561c0.083-0.167,0.353-0.208,0.811-0.125
							c0.166-0.208,0.166-0.396,0-0.562c-0.458,0.042-0.729,0-0.811-0.125c0.333-0.582,0.312-0.873-0.063-0.873
							c-0.167,0-0.312,0.125-0.437,0.374c-0.167,0.333-0.292,0.52-0.375,0.562c-0.624,0-0.978-0.021-1.06-0.063l0.499-0.998h1.123
							l0.125-0.312l-0.125-0.312l-0.624-0.062c0.042-0.125,0.125-0.333,0.25-0.624c0.042-0.208-0.083-0.333-0.375-0.375
							c-0.125,0.042-0.208,0.146-0.25,0.312c-0.083,0.167-0.167,0.271-0.25,0.312c-0.083-0.041-0.167-0.125-0.25-0.249
							c-0.083-0.167-0.167-0.25-0.249-0.25c-0.375,0.042-0.479,0.208-0.312,0.499c0.208,0.333,0.333,0.583,0.374,0.749
							c-0.249,0.417-0.437,0.749-0.561,0.998l-0.375-0.499c-0.167-0.166-0.249-0.333-0.249-0.499c0-0.25,0.166-0.562,0.499-0.936
							c-0.083-0.25-0.25-0.354-0.499-0.312c-0.125,0.25-0.25,0.417-0.375,0.499c-0.166-0.249-0.312-0.416-0.437-0.499
							c-0.208-0.166-0.374-0.125-0.499,0.125c0.167,0.292,0.271,0.52,0.312,0.686c-0.042,0.083-0.146,0.125-0.312,0.125
							c-0.208,0-0.333,0-0.374,0l-0.125,0.312c0,0.167,0.146,0.25,0.437,0.25c0.458,0.042,0.707,0.062,0.749,0.062
							c0.167,0.167,0.374,0.499,0.624,0.998c-0.042,0.042-0.437,0.063-1.186,0.063c-0.167-0.333-0.312-0.583-0.437-0.749
							c-0.249-0.291-0.458-0.271-0.624,0.062c0.167,0.25,0.25,0.458,0.25,0.624c-0.042,0.083-0.167,0.104-0.375,0.063
							c-0.25,0-0.395,0.021-0.437,0.062c-0.167,0.167-0.167,0.354,0,0.562c0.042,0,0.187,0,0.437,0c0.167,0,0.291,0.021,0.375,0.062
							c-0.167,0.25-0.25,0.458-0.25,0.624c0.167,0.292,0.375,0.312,0.624,0.063c0.125-0.167,0.271-0.417,0.437-0.749
							c0.25,0.042,0.645,0.062,1.186,0.062c-0.25,0.499-0.458,0.832-0.624,0.999c-0.375,0-0.729,0.021-1.061,0.063
							c-0.208,0.208-0.208,0.395,0,0.562l0.686,0.063c-0.166,0.291-0.27,0.52-0.312,0.686
							C741.093-774.2,741.239-774.096,741.53-774.138z"/>
						
							<radialGradient id="SVGID_64_" cx="1894.9497" cy="-1578.1499" r="3.8627" gradientTransform="matrix(1.248 0 0 -1.248 -1622.75 -2760.7197)" gradientUnits="userSpaceOnUse">
							<stop  offset="0.0667" style="stop-color:#FFFFFF;stop-opacity:0.8"/>
							<stop  offset="1" style="stop-color:#FFFFFF;stop-opacity:0.8"/>
						</radialGradient>
						<path style="fill-rule:evenodd;clip-rule:evenodd;fill:url(#SVGID_64_);" d="M738.223-788.739
							c0.125-0.083,0.292-0.187,0.499-0.312c0.083-0.042,0.167,0,0.25,0.125c0.083,0.083,0.167,0.083,0.25,0
							c0.25-0.541,0.562-0.853,0.936-0.936c0.083,0,0.146,0.063,0.188,0.187c0.042,0.167,0.083,0.25,0.125,0.25
							c0.167-0.083,0.271-0.27,0.312-0.562c0.042-0.291,0.167-0.437,0.375-0.437c0.208-0.083,0.395-0.042,0.561,0.125
							c0.167,0.167,0.229,0.354,0.187,0.562c0,0.125-0.124,0.25-0.374,0.375c-0.208,0.083-0.291,0.208-0.25,0.375h0.5
							c0.333,0.458,0.249,0.936-0.25,1.435c0.208,0.042,0.333,0.25,0.374,0.624c0.042,0.458,0.083,0.729,0.125,0.812h0.187
							c0.125-0.167,0.167-0.541,0.125-1.124c0.042-0.125,0.167-0.25,0.375-0.375c-0.167-0.083-0.292-0.271-0.375-0.562
							c-0.083-0.292-0.062-0.562,0.063-0.811c0.291,0.083,0.457,0.083,0.499,0c0-0.167-0.104-0.312-0.312-0.437
							c-0.208-0.167-0.292-0.354-0.25-0.562c0-0.125,0.083-0.229,0.25-0.312c0.125-0.125,0.27-0.166,0.437-0.125
							c0.374,0.041,0.561,0.374,0.561,0.998c0.125,0.042,0.208,0,0.25-0.125c0.042-0.083,0.083-0.188,0.125-0.312
							c0.208,0,0.416,0.104,0.624,0.312c0.208,0.167,0.333,0.395,0.375,0.686c0.042,0,0.187-0.062,0.437-0.187
							c0.083,0,0.291,0.104,0.624,0.312c0.208,0.125,0.395,0.146,0.562,0.063c-0.042-0.333-0.354-0.604-0.936-0.812l-0.062-0.437
							c-0.499,0.125-0.936,0-1.311-0.375c0-0.083,0.042-0.166,0.125-0.25c0.125-0.042,0.167-0.125,0.125-0.25
							c-0.167-0.125-0.312-0.146-0.437-0.063c-0.208,0.125-0.374,0.187-0.499,0.187c-0.291-0.042-0.437-0.229-0.437-0.561
							c0.042-0.375,0.208-0.583,0.5-0.624c0.041,0,0.187,0.062,0.436,0.187c0.125,0.083,0.25,0.104,0.375,0.062
							c0.083-0.167,0.021-0.333-0.188-0.499c0.292-0.499,0.728-0.645,1.311-0.437c-0.042-0.333,0.104-0.582,0.437-0.748
							c0.333-0.167,0.52-0.333,0.562-0.5c-0.125-0.124-0.312-0.104-0.562,0.063c-0.291,0.208-0.478,0.312-0.562,0.312
							c-0.167-0.167-0.333-0.229-0.499-0.187c-0.042,0.499-0.354,0.811-0.936,0.936c-0.083,0-0.146-0.063-0.187-0.188
							c0-0.166-0.063-0.229-0.187-0.187c-0.042,0.083-0.125,0.292-0.25,0.624c-0.083,0.25-0.229,0.375-0.437,0.375
							c-0.167,0-0.374-0.125-0.624-0.375c-0.083-0.292-0.021-0.499,0.187-0.624c0.25-0.167,0.375-0.312,0.375-0.437
							c-0.083-0.208-0.229-0.208-0.437,0c-0.083-0.042-0.125-0.333-0.125-0.873c0-0.125,0.063-0.229,0.187-0.312
							c0.125-0.083,0.188-0.167,0.188-0.25c-0.042-0.125-0.167-0.208-0.375-0.249v-0.749c0-0.25-0.062-0.416-0.187-0.499
							c-0.167,0-0.25,0.145-0.25,0.437c0.042,0.333,0.042,0.583,0,0.749c-0.208,0.083-0.333,0.187-0.374,0.312
							c0.499,0.499,0.583,0.978,0.25,1.435c-0.292-0.083-0.458-0.083-0.5,0c0,0.125,0.125,0.271,0.375,0.437
							c0.208,0.167,0.292,0.354,0.249,0.562c-0.083,0.291-0.291,0.437-0.624,0.437c-0.249,0-0.416-0.125-0.499-0.375
							c-0.041-0.125-0.104-0.354-0.187-0.686c-0.125,0.042-0.229,0.187-0.312,0.437c-0.583-0.083-0.915-0.396-0.998-0.936
							c-0.125-0.042-0.208-0.021-0.25,0.062c-0.083,0.083-0.166,0.125-0.25,0.125c-0.042,0-0.229-0.104-0.562-0.312
							c-0.25-0.167-0.458-0.187-0.624-0.063c0.042,0.167,0.188,0.312,0.437,0.437c0.292,0.125,0.479,0.25,0.562,0.375
							c0,0.249,0.021,0.395,0.063,0.436c0.374-0.124,0.811-0.021,1.31,0.312c0.042,0.083,0,0.167-0.125,0.25
							c-0.083,0.083-0.125,0.187-0.125,0.312c0.125,0.083,0.271,0.083,0.437,0c0.083-0.042,0.208-0.104,0.375-0.187
							c0.374,0.042,0.561,0.249,0.561,0.624c-0.042,0.374-0.229,0.561-0.561,0.561c-0.083,0-0.208-0.062-0.375-0.187
							c-0.166-0.083-0.312-0.062-0.437,0.063c-0.042,0.125,0,0.208,0.125,0.25c0.083,0.083,0.125,0.146,0.125,0.187
							c-0.25,0.458-0.686,0.603-1.31,0.437c-0.042,0.042-0.063,0.166-0.063,0.375c-0.042,0.125-0.229,0.25-0.562,0.374
							c-0.25,0.125-0.396,0.292-0.437,0.5C737.766-788.593,737.974-788.614,738.223-788.739z"/>
						
							<radialGradient id="SVGID_65_" cx="1854.7002" cy="-1513.2998" r="0.925" gradientTransform="matrix(1.248 0 0 -1.248 -2116.25 -2645.707)" gradientUnits="userSpaceOnUse">
							<stop  offset="0.0667" style="stop-color:#FFFFFF;stop-opacity:0.8"/>
							<stop  offset="1" style="stop-color:#FFFFFF;stop-opacity:0.8"/>
						</radialGradient>
						<path style="fill-rule:evenodd;clip-rule:evenodd;fill:url(#SVGID_65_);" d="M197.737-756.529l0.125,0.062l-0.063-0.062
							c0.083,0.042,0.125,0.083,0.125,0.125c0.042,0,0.083,0.042,0.125,0.125v-0.031c0.29,0.285,0.664,0.275,1.123-0.031
							c0.25-0.25,0.395-0.458,0.437-0.624c0.083-0.208,0.042-0.396-0.125-0.562c-0.416-0.417-0.853-0.645-1.311-0.686
							c-0.541,0-0.894,0.27-1.061,0.811c-0.042,0.25,0,0.458,0.125,0.624C197.363-756.613,197.529-756.529,197.737-756.529z"/>
						
							<radialGradient id="SVGID_66_" cx="1864.3999" cy="-1570.5498" r="0.925" gradientTransform="matrix(1.248 0 0 -1.248 -2012.2002 -2723.5498)" gradientUnits="userSpaceOnUse">
							<stop  offset="0.0667" style="stop-color:#FFFFFF;stop-opacity:0.8"/>
							<stop  offset="1" style="stop-color:#FFFFFF;stop-opacity:0.8"/>
						</radialGradient>
						<path style="fill-rule:evenodd;clip-rule:evenodd;fill:url(#SVGID_66_);" d="M314.017-762.801
							c0.042,0,0.083,0.021,0.125,0.063c0.374,0.375,0.79,0.375,1.248,0c0.249-0.166,0.395-0.354,0.437-0.562
							c0-0.292-0.042-0.499-0.125-0.624c-0.5-0.417-0.936-0.624-1.311-0.624c-0.582,0-0.957,0.271-1.123,0.811
							c-0.083,0.583,0.146,0.874,0.687,0.874L314.017-762.801z"/>
						
							<radialGradient id="SVGID_67_" cx="1875.2998" cy="-1550.8501" r="1.4375" gradientTransform="matrix(1.248 0 0 -1.248 -2103.25 -2671.9297)" gradientUnits="userSpaceOnUse">
							<stop  offset="0.0667" style="stop-color:#FFFFFF;stop-opacity:0.8"/>
							<stop  offset="1" style="stop-color:#FFFFFF;stop-opacity:0.8"/>
						</radialGradient>
						<path style="fill-rule:evenodd;clip-rule:evenodd;fill:url(#SVGID_67_);" d="M236.196-735.267h0.437
							c0.457,0,0.978-0.166,1.56-0.499c0.416-0.208,0.748-0.52,0.998-0.936c0.167-0.333,0.125-0.603-0.125-0.811
							c-0.167-0.166-0.561-0.25-1.185-0.25h-0.375c-0.458,0-0.978,0.166-1.56,0.499c-0.499,0.25-0.832,0.562-0.998,0.936
							c-0.208,0.375-0.166,0.645,0.125,0.812C235.239-735.35,235.613-735.267,236.196-735.267z"/>
						
							<radialGradient id="SVGID_68_" cx="1850.6499" cy="-1573.6001" r="1.5625" gradientTransform="matrix(1.248 0 0 -1.248 -2012.2002 -2731.1631)" gradientUnits="userSpaceOnUse">
							<stop  offset="0.0667" style="stop-color:#FFFFFF;stop-opacity:0.8"/>
							<stop  offset="1" style="stop-color:#FFFFFF;stop-opacity:0.8"/>
						</radialGradient>
						<path style="fill-rule:evenodd;clip-rule:evenodd;fill:url(#SVGID_68_);" d="M298.417-766.17
							c0.416-0.333,0.686-0.624,0.811-0.874c0.291-0.291,0.333-0.52,0.125-0.686c-0.083-0.125-0.395-0.333-0.936-0.624
							c-0.167-0.125-0.292-0.292-0.374-0.499c0-0.292-0.208-0.375-0.624-0.25c-0.292,0.042-0.542,0.146-0.749,0.312
							c-0.499,0.333-0.832,0.624-0.999,0.874c-0.25,0.249-0.375,0.499-0.375,0.748c0,0.333,0.167,0.624,0.499,0.874
							c0.208,0.167,0.499,0.395,0.874,0.686C297.086-765.234,297.668-765.422,298.417-766.17z"/>
						
							<radialGradient id="SVGID_69_" cx="1895.6499" cy="-1566.8965" r="2.6266" gradientTransform="matrix(1.248 0 0 -1.248 -2101.2002 -2721.5322)" gradientUnits="userSpaceOnUse">
							<stop  offset="0.0667" style="stop-color:#FFFFFF;stop-opacity:0.8"/>
							<stop  offset="1" style="stop-color:#FFFFFF;stop-opacity:0.8"/>
						</radialGradient>
						<path style="fill-rule:evenodd;clip-rule:evenodd;fill:url(#SVGID_69_);" d="M263.08-763.038
							c0.125-0.083,0.271-0.292,0.437-0.624c0.167,0.042,0.312,0.229,0.437,0.562l0.374-0.063c0.125-0.167,0.104-0.375-0.062-0.624
							c-0.208-0.291-0.312-0.479-0.312-0.562c0-0.25,0.208-0.583,0.624-0.998l0.561,0.936c0,0.125-0.083,0.292-0.249,0.5
							c-0.167,0.208-0.25,0.374-0.25,0.499c0,0.208,0.146,0.312,0.437,0.312c0.166-0.042,0.312-0.229,0.437-0.562
							c0.166,0.083,0.333,0.291,0.499,0.624c0.333,0.042,0.478-0.062,0.437-0.312c0-0.042-0.083-0.25-0.25-0.624
							c0.749-0.125,0.957-0.354,0.624-0.686c-0.458,0-0.811-0.021-1.061-0.063c-0.208-0.208-0.395-0.52-0.561-0.936
							c0.083-0.167,0.436-0.208,1.06-0.125c0.125,0,0.25,0.146,0.375,0.437c0.125,0.291,0.229,0.457,0.312,0.499
							c0.249,0.125,0.395,0.042,0.437-0.25c0-0.249-0.083-0.437-0.25-0.561c0.083-0.167,0.353-0.208,0.811-0.125
							c0.166-0.208,0.166-0.396,0-0.562c-0.458,0.042-0.729,0-0.811-0.125c0.333-0.582,0.312-0.873-0.063-0.873
							c-0.167,0-0.312,0.125-0.437,0.374c-0.167,0.333-0.292,0.52-0.375,0.562c-0.624,0-0.978-0.021-1.06-0.063l0.499-0.998h1.123
							l0.125-0.312l-0.125-0.312l-0.624-0.062c0.042-0.125,0.125-0.333,0.25-0.624c0.042-0.208-0.083-0.333-0.375-0.375
							c-0.125,0.042-0.208,0.146-0.25,0.312c-0.083,0.167-0.167,0.271-0.25,0.312c-0.083-0.041-0.167-0.125-0.25-0.249
							c-0.083-0.167-0.167-0.25-0.249-0.25c-0.375,0.042-0.479,0.208-0.312,0.499c0.208,0.333,0.333,0.583,0.374,0.749
							c-0.249,0.417-0.437,0.749-0.561,0.998l-0.375-0.499c-0.167-0.166-0.249-0.333-0.249-0.499c0-0.25,0.166-0.562,0.499-0.936
							c-0.083-0.25-0.25-0.354-0.499-0.312c-0.125,0.25-0.25,0.417-0.375,0.499c-0.166-0.249-0.312-0.416-0.437-0.499
							c-0.208-0.166-0.374-0.125-0.499,0.125c0.167,0.292,0.271,0.52,0.312,0.686c-0.042,0.083-0.146,0.125-0.312,0.125
							c-0.208,0-0.333,0-0.374,0l-0.125,0.312c0,0.167,0.146,0.25,0.437,0.25c0.458,0.042,0.707,0.062,0.749,0.062
							c0.167,0.167,0.374,0.499,0.624,0.998c-0.042,0.042-0.437,0.063-1.186,0.063c-0.167-0.333-0.312-0.583-0.437-0.749
							c-0.249-0.291-0.458-0.271-0.624,0.062c0.167,0.25,0.25,0.458,0.25,0.624c-0.042,0.083-0.167,0.104-0.375,0.063
							c-0.25,0-0.395,0.021-0.437,0.062c-0.167,0.167-0.167,0.354,0,0.562c0.042,0,0.187,0,0.437,0c0.167,0,0.291,0.021,0.375,0.062
							c-0.167,0.25-0.25,0.458-0.25,0.624c0.167,0.292,0.375,0.312,0.624,0.063c0.125-0.167,0.271-0.417,0.437-0.749
							c0.25,0.042,0.645,0.062,1.186,0.062c-0.25,0.499-0.458,0.832-0.624,0.999c-0.375,0-0.729,0.021-1.061,0.063
							c-0.208,0.208-0.208,0.395,0,0.562l0.686,0.063c-0.166,0.291-0.27,0.52-0.312,0.686
							C262.643-763.1,262.789-762.996,263.08-763.038z"/>
						
							<radialGradient id="SVGID_70_" cx="1894.9497" cy="-1578.1499" r="3.8627" gradientTransform="matrix(1.248 0 0 -1.248 -2201.2002 -2714.2695)" gradientUnits="userSpaceOnUse">
							<stop  offset="0.0667" style="stop-color:#FFFFFF;stop-opacity:0.8"/>
							<stop  offset="1" style="stop-color:#FFFFFF;stop-opacity:0.8"/>
						</radialGradient>
						<path style="fill-rule:evenodd;clip-rule:evenodd;fill:url(#SVGID_70_);" d="M159.773-742.289
							c0.125-0.083,0.292-0.187,0.499-0.312c0.083-0.042,0.167,0,0.25,0.125c0.083,0.083,0.167,0.083,0.25,0
							c0.25-0.541,0.562-0.853,0.936-0.936c0.083,0,0.146,0.063,0.188,0.187c0.042,0.167,0.083,0.25,0.125,0.25
							c0.167-0.083,0.271-0.27,0.312-0.562c0.042-0.291,0.167-0.437,0.375-0.437c0.208-0.083,0.395-0.042,0.561,0.125
							c0.167,0.167,0.229,0.354,0.187,0.562c0,0.125-0.124,0.25-0.374,0.375c-0.208,0.083-0.291,0.208-0.25,0.375h0.5
							c0.333,0.458,0.249,0.936-0.25,1.435c0.208,0.042,0.333,0.25,0.374,0.624c0.042,0.458,0.083,0.729,0.125,0.812h0.187
							c0.125-0.167,0.167-0.541,0.125-1.124c0.042-0.125,0.167-0.25,0.375-0.375c-0.167-0.083-0.292-0.271-0.375-0.562
							c-0.083-0.292-0.062-0.562,0.063-0.811c0.291,0.083,0.457,0.083,0.499,0c0-0.167-0.104-0.312-0.312-0.437
							c-0.208-0.167-0.292-0.354-0.25-0.562c0-0.125,0.083-0.229,0.25-0.312c0.125-0.125,0.27-0.166,0.437-0.125
							c0.374,0.041,0.561,0.374,0.561,0.998c0.125,0.042,0.208,0,0.25-0.125c0.042-0.083,0.083-0.188,0.125-0.312
							c0.208,0,0.416,0.104,0.624,0.312c0.208,0.167,0.333,0.395,0.375,0.686c0.042,0,0.187-0.062,0.437-0.187
							c0.083,0,0.291,0.104,0.624,0.312c0.208,0.125,0.395,0.146,0.562,0.063c-0.042-0.333-0.354-0.604-0.936-0.812l-0.062-0.437
							c-0.499,0.125-0.936,0-1.311-0.375c0-0.083,0.042-0.166,0.125-0.25c0.125-0.042,0.167-0.125,0.125-0.25
							c-0.167-0.125-0.312-0.146-0.437-0.063c-0.208,0.125-0.374,0.187-0.499,0.187c-0.291-0.042-0.437-0.229-0.437-0.561
							c0.042-0.375,0.208-0.583,0.5-0.624c0.041,0,0.187,0.062,0.436,0.187c0.125,0.083,0.25,0.104,0.375,0.062
							c0.083-0.167,0.021-0.333-0.188-0.499c0.292-0.499,0.728-0.645,1.311-0.437c-0.042-0.333,0.104-0.582,0.437-0.748
							c0.333-0.167,0.52-0.333,0.562-0.5c-0.125-0.124-0.312-0.104-0.562,0.063c-0.291,0.208-0.478,0.312-0.562,0.312
							c-0.167-0.167-0.333-0.229-0.499-0.187c-0.042,0.499-0.354,0.811-0.936,0.936c-0.083,0-0.146-0.063-0.187-0.188
							c0-0.166-0.063-0.229-0.187-0.187c-0.042,0.083-0.125,0.292-0.25,0.624c-0.083,0.25-0.229,0.375-0.437,0.375
							c-0.167,0-0.374-0.125-0.624-0.375c-0.083-0.292-0.021-0.499,0.187-0.624c0.25-0.167,0.375-0.312,0.375-0.437
							c-0.083-0.208-0.229-0.208-0.437,0c-0.083-0.042-0.125-0.333-0.125-0.873c0-0.125,0.063-0.229,0.187-0.312
							c0.125-0.083,0.188-0.167,0.188-0.25c-0.042-0.125-0.167-0.208-0.375-0.249v-0.749c0-0.25-0.062-0.416-0.187-0.499
							c-0.167,0-0.25,0.145-0.25,0.437c0.042,0.333,0.042,0.583,0,0.749c-0.208,0.083-0.333,0.187-0.374,0.312
							c0.499,0.499,0.583,0.978,0.25,1.435c-0.292-0.083-0.458-0.083-0.5,0c0,0.125,0.125,0.271,0.375,0.437
							c0.208,0.167,0.292,0.354,0.249,0.562c-0.083,0.291-0.291,0.437-0.624,0.437c-0.249,0-0.416-0.125-0.499-0.375
							c-0.041-0.125-0.104-0.354-0.187-0.686c-0.125,0.042-0.229,0.187-0.312,0.437c-0.583-0.083-0.915-0.396-0.998-0.936
							c-0.125-0.042-0.208-0.021-0.25,0.062c-0.083,0.083-0.166,0.125-0.25,0.125c-0.042,0-0.229-0.104-0.562-0.312
							c-0.25-0.167-0.458-0.187-0.624-0.063c0.042,0.167,0.188,0.312,0.437,0.437c0.292,0.125,0.479,0.25,0.562,0.375
							c0,0.249,0.021,0.395,0.063,0.436c0.374-0.124,0.811-0.021,1.31,0.312c0.042,0.083,0,0.167-0.125,0.25
							c-0.083,0.083-0.125,0.187-0.125,0.312c0.125,0.083,0.271,0.083,0.437,0c0.083-0.042,0.208-0.104,0.375-0.187
							c0.374,0.042,0.561,0.249,0.561,0.624c-0.042,0.374-0.229,0.561-0.561,0.561c-0.083,0-0.208-0.062-0.375-0.187
							c-0.166-0.083-0.312-0.062-0.437,0.063c-0.042,0.125,0,0.208,0.125,0.25c0.083,0.083,0.125,0.146,0.125,0.187
							c-0.25,0.458-0.686,0.603-1.31,0.437c-0.042,0.042-0.063,0.166-0.063,0.375c-0.042,0.125-0.229,0.25-0.562,0.374
							c-0.25,0.125-0.396,0.292-0.437,0.5C159.315-742.143,159.523-742.164,159.773-742.289z"/>
					</g>
				</g>
			</g>
			<g>
				<polygon style="fill-rule:evenodd;clip-rule:evenodd;fill:#FFFFFF;" points="1111.15,-690.35 110.8,-690.35 110.8,-136.4 
					1111.15,-136.4 				"/>
			</g>
		</g>
	</g>
</symbol>
<use xlink:href="#freeze"  width="1278.881" height="871.247" x="-0.011" y="-871.261" transform="matrix(1 0 0 -1 0 0)" style="overflow:visible;"/>
</svg>
