<?xml version="1.0" encoding="iso-8859-1"?>
<!-- Generator: Adobe Illustrator 15.1.0, SVG Export Plug-In . SVG Version: 6.00 Build 0)  -->
<!DOCTYPE svg PUBLIC "-//W3C//DTD SVG 1.1//EN" "http://www.w3.org/Graphics/SVG/1.1/DTD/svg11.dtd">
<svg version="1.1" id="FlashAICB" xmlns="http://www.w3.org/2000/svg" xmlns:xlink="http://www.w3.org/1999/xlink" x="0px" y="0px"
	 width="550px" height="400px" viewBox="0 0 550 400" style="enable-background:new 0 0 550 400;" xml:space="preserve">
<symbol  id="Symbol_1" viewBox="-0.001 -129.328 254.97 141.646">
	<g id="Layer_6_2_">
		
			<use xlink:href="#Symbol_9"  width="134.853" height="97.241" x="-0.001" y="-97.22" transform="matrix(1 0 0 1 0 -9.9502)" style="overflow:visible;"/>
	</g>
	<g id="Layer_5_2_">
		
			<use xlink:href="#Symbol_8"  width="115.518" height="83.307" x="0.02" y="-83.328" transform="matrix(1.1526 0 0 1.1526 56.0498 6.3501)" style="overflow:visible;"/>
	</g>
	<g id="Layer_4_2_">
		
			<use xlink:href="#Symbol_7"  width="138.163" height="99.68" x="-0.006" y="-99.665" transform="matrix(1.2477 0 0 1.2477 81.5 12.2993)" style="overflow:visible;"/>
	</g>
	<g id="Layer_3_2_">
		
			<use xlink:href="#Symbol_6"  width="115.518" height="83.307" x="0.02" y="-83.328" transform="matrix(1 0 0 1 75.8501 -46)" style="overflow:visible;"/>
	</g>
	<g id="Layer_2_3_">
		
			<use xlink:href="#Symbol_5"  width="116.695" height="84.605" x="-0.02" y="-84.596" transform="matrix(1.1529 0 0 1.1529 120.4507 -28.7002)" style="overflow:visible;"/>
	</g>
</symbol>
<symbol  id="Symbol_10" viewBox="0 -108.794 150.816 108.787">
	<g id="Layer_1_2_">
		
			<radialGradient id="SVGID_1_" cx="798.8389" cy="478.2051" r="75.4236" gradientTransform="matrix(0.9975 0.0704 0.063 -0.7171 -751.5684 232.2578)" gradientUnits="userSpaceOnUse">
			<stop  offset="0" style="stop-color:#FFFFFF;stop-opacity:0.498"/>
			<stop  offset="0.9647" style="stop-color:#FFFFFF;stop-opacity:0"/>
		</radialGradient>
		<path style="fill-rule:evenodd;clip-rule:evenodd;fill:url(#SVGID_1_);" d="M150.65-49.05c0.667-7.333-0.684-14.5-4.05-21.5
			c-3.233-6.733-8.1-12.85-14.6-18.35c-13.767-11.6-31.05-18.133-51.85-19.6c-20.767-1.466-38.967,2.567-54.6,12.1
			C9.95-86.867,1.483-74.634,0.15-59.7c-0.633,7.333,0.733,14.5,4.1,21.5c3.233,6.733,8.1,12.833,14.6,18.3
			C32.616-8.3,49.883-1.767,70.65-0.3s38.966-2.567,54.6-12.1c7.4-4.467,13.283-9.817,17.65-16.05
			C147.433-34.851,150.017-41.717,150.65-49.05z"/>
	</g>
</symbol>
<symbol  id="Symbol_11" viewBox="-0.001 -108.793 150.816 108.786">
	<g id="Layer_1_3_">
		
			<radialGradient id="SVGID_2_" cx="798.8359" cy="478.2051" r="75.4252" gradientTransform="matrix(0.9975 0.0704 0.063 -0.7171 -751.5684 232.2578)" gradientUnits="userSpaceOnUse">
			<stop  offset="0" style="stop-color:#FFFFFF;stop-opacity:0.498"/>
			<stop  offset="0.9647" style="stop-color:#FFFFFF;stop-opacity:0"/>
		</radialGradient>
		<path style="fill-rule:evenodd;clip-rule:evenodd;fill:url(#SVGID_2_);" d="M142.899-28.45c4.534-6.433,7.117-13.317,7.75-20.65
			c0.667-7.333-0.683-14.483-4.05-21.45c-3.233-6.733-8.1-12.85-14.6-18.35c-13.8-11.6-31.083-18.133-51.85-19.6
			c-20.767-1.467-38.966,2.566-54.6,12.1c-15.6,9.5-24.067,21.733-25.4,36.7c-0.633,7.333,0.733,14.483,4.1,21.45
			c3.233,6.733,8.1,12.85,14.6,18.35C32.616-8.3,49.883-1.767,70.649-0.3s38.967-2.566,54.6-12.1
			C132.649-16.9,138.533-22.25,142.899-28.45z"/>
	</g>
</symbol>
<symbol  id="Symbol_12" viewBox="0 -108.794 150.816 108.776">
	<g id="Layer_1_4_">
		
			<radialGradient id="SVGID_3_" cx="798.8345" cy="478.2051" r="75.4267" gradientTransform="matrix(0.9975 0.0704 0.063 -0.7171 -751.5684 232.2578)" gradientUnits="userSpaceOnUse">
			<stop  offset="0" style="stop-color:#FFFFFF;stop-opacity:0.498"/>
			<stop  offset="0.9647" style="stop-color:#FFFFFF;stop-opacity:0"/>
		</radialGradient>
		<path style="fill-rule:evenodd;clip-rule:evenodd;fill:url(#SVGID_3_);" d="M150.65-49.1c0.667-7.333-0.684-14.5-4.05-21.5
			c-3.233-6.733-8.1-12.85-14.6-18.35c-13.767-11.6-31.05-18.116-51.85-19.55c-20.767-1.467-38.967,2.55-54.6,12.05
			c-15.6,9.534-24.066,21.767-25.4,36.7c-0.633,7.333,0.733,14.5,4.1,21.5c3.233,6.733,8.1,12.85,14.6,18.35
			C32.616-8.3,49.883-1.767,70.65-0.3c20.767,1.433,38.966-2.6,54.6-12.1c7.4-4.5,13.283-9.85,17.65-16.05
			C147.433-34.883,150.017-41.767,150.65-49.1z"/>
	</g>
</symbol>
<symbol  id="Symbol_13" viewBox="-0.002 -108.793 150.802 108.786">
	<g id="Layer_1_5_">
		
			<radialGradient id="SVGID_4_" cx="798.8369" cy="478.2061" r="75.425" gradientTransform="matrix(0.9975 0.0704 0.063 -0.7171 -751.5684 232.2598)" gradientUnits="userSpaceOnUse">
			<stop  offset="0" style="stop-color:#FFFFFF;stop-opacity:0.498"/>
			<stop  offset="0.9647" style="stop-color:#FFFFFF;stop-opacity:0"/>
		</radialGradient>
		<path style="fill-rule:evenodd;clip-rule:evenodd;fill:url(#SVGID_4_);" d="M146.55-70.55c-3.233-6.733-8.1-12.85-14.6-18.35
			c-13.767-11.6-31.033-18.134-51.8-19.6c-20.767-1.467-38.967,2.566-54.6,12.1C9.917-86.866,1.45-74.633,0.15-59.7
			c-0.633,7.333,0.716,14.483,4.05,21.45c3.233,6.733,8.117,12.85,14.65,18.35C32.616-8.3,49.883-1.766,70.65-0.3
			c20.767,1.467,38.966-2.566,54.6-12.1c15.6-9.5,24.066-21.733,25.4-36.7C151.283-56.433,149.917-63.583,146.55-70.55z"/>
	</g>
</symbol>
<symbol  id="Symbol_14" viewBox="-0.005 -129.795 173.362 129.789">
	<g id="Layer_1_6_">
		
			<radialGradient id="SVGID_5_" cx="-1320.6494" cy="-1919.5034" r="87.7718" gradientTransform="matrix(0.9769 -0.2135 -0.1416 -0.7059 1105.1196 -1701.832)" gradientUnits="userSpaceOnUse">
			<stop  offset="0" style="stop-color:#FFFFFF;stop-opacity:0.498"/>
			<stop  offset="0.9647" style="stop-color:#FFFFFF;stop-opacity:0"/>
		</radialGradient>
		<path style="fill-rule:evenodd;clip-rule:evenodd;fill:url(#SVGID_5_);" d="M34.851-7.851c19.167,8.434,40.583,10.067,64.25,4.9
			c23.667-5.167,42.667-15.633,57-31.4c6.767-7.466,11.583-15.366,14.45-23.7c2.934-8.667,3.567-17.2,1.9-25.6
			c-1.7-8.4-5.566-15.95-11.6-22.65c-5.833-6.467-13.284-11.684-22.35-15.65c-19.167-8.434-40.583-10.067-64.25-4.9
			c-23.667,5.167-42.667,15.634-57,31.4C10.484-88.017,5.667-80.117,2.8-71.75c-2.933,8.633-3.566,17.15-1.9,25.55
			c1.7,8.4,5.566,15.95,11.6,22.65C18.334-17.083,25.784-11.851,34.851-7.851z"/>
	</g>
</symbol>
<symbol  id="Symbol_15" viewBox="-0.001 -108.793 150.802 108.787">
	<g id="Layer_1_7_">
		
			<radialGradient id="SVGID_6_" cx="798.8369" cy="478.2051" r="75.4254" gradientTransform="matrix(0.9975 0.0704 0.063 -0.7171 -751.5684 232.2578)" gradientUnits="userSpaceOnUse">
			<stop  offset="0" style="stop-color:#FFFFFF;stop-opacity:0.498"/>
			<stop  offset="0.9647" style="stop-color:#FFFFFF;stop-opacity:0"/>
		</radialGradient>
		<path style="fill-rule:evenodd;clip-rule:evenodd;fill:url(#SVGID_6_);" d="M4.2-38.25c3.233,6.733,8.1,12.85,14.6,18.35
			C32.567-8.3,49.851-1.767,70.65-0.3c20.767,1.466,38.967-2.567,54.6-12.1c15.6-9.5,24.066-21.733,25.4-36.7
			c0.633-7.333-0.733-14.483-4.1-21.45c-3.233-6.733-8.1-12.85-14.6-18.35c-13.767-11.6-31.033-18.133-51.8-19.6
			c-20.8-1.467-39,2.566-54.6,12.1C9.917-86.9,1.45-74.667,0.15-59.7C-0.483-52.367,0.867-45.217,4.2-38.25z"/>
	</g>
</symbol>
<symbol  id="Symbol_16" viewBox="-0.001 -108.794 150.802 108.776">
	<g id="Layer_1_8_">
		
			<radialGradient id="SVGID_7_" cx="798.835" cy="478.2051" r="75.4268" gradientTransform="matrix(0.9975 0.0704 0.063 -0.7171 -751.5684 232.2578)" gradientUnits="userSpaceOnUse">
			<stop  offset="0" style="stop-color:#FFFFFF;stop-opacity:0.498"/>
			<stop  offset="0.9647" style="stop-color:#FFFFFF;stop-opacity:0"/>
		</radialGradient>
		<path style="fill-rule:evenodd;clip-rule:evenodd;fill:url(#SVGID_7_);" d="M125.25-12.4c15.6-9.533,24.066-21.767,25.4-36.7
			c0.633-7.333-0.733-14.5-4.1-21.5c-3.233-6.733-8.1-12.85-14.6-18.35c-13.767-11.6-31.033-18.117-51.8-19.55
			c-20.8-1.467-39,2.55-54.6,12.05c-15.633,9.534-24.1,21.767-25.4,36.7c-0.633,7.333,0.717,14.5,4.05,21.5
			c3.233,6.733,8.1,12.85,14.6,18.35C32.567-8.3,49.851-1.767,70.65-0.3C91.417,1.133,109.617-2.9,125.25-12.4z"/>
	</g>
</symbol>
<symbol  id="Symbol_17" viewBox="0 -97.85 101.85 97.85">
	<g id="Layer_1_9_">
		
			<radialGradient id="SVGID_8_" cx="50.9248" cy="-48.9248" r="50.8745" gradientTransform="matrix(1 0 0 -0.9614 0 -95.9634)" gradientUnits="userSpaceOnUse">
			<stop  offset="0" style="stop-color:#FFFFFF;stop-opacity:0.498"/>
			<stop  offset="0.9647" style="stop-color:#FFFFFF;stop-opacity:0"/>
		</radialGradient>
		<path style="fill-rule:evenodd;clip-rule:evenodd;fill:url(#SVGID_8_);" d="M101.85-48.9c0-13.533-4.966-25.067-14.9-34.6
			c-9.966-9.566-21.983-14.35-36.05-14.35c-14.067,0-26.067,4.784-36,14.35C4.966-73.967,0-62.433,0-48.9
			c0,13.5,4.966,25.017,14.9,34.55C24.833-4.783,36.833,0,50.9,0c14.066,0,26.083-4.783,36.05-14.35
			C96.883-23.883,101.85-35.4,101.85-48.9z"/>
	</g>
</symbol>
<symbol  id="Symbol_18" viewBox="0.075 -102.565 116.9 102.556">
	<g id="Layer_1_10_">
		
			<radialGradient id="SVGID_9_" cx="4300.9937" cy="2316.1074" r="58.0521" gradientTransform="matrix(0.927 0.375 0.3862 -0.7967 -4823.0781 181.1582)" gradientUnits="userSpaceOnUse">
			<stop  offset="0" style="stop-color:#FFFFFF;stop-opacity:0.498"/>
			<stop  offset="0.9647" style="stop-color:#FFFFFF;stop-opacity:0"/>
		</radialGradient>
		<path style="fill-rule:evenodd;clip-rule:evenodd;fill:url(#SVGID_9_);" d="M80.7-3.2c14.9-4.8,25.434-13.583,31.6-26.35
			c6.2-12.733,6.233-25.75,0.1-39.05c-6.1-13.267-16.583-22.917-31.45-28.95c-14.866-6-29.733-6.617-44.6-1.85
			c-14.867,4.8-25.4,13.583-31.6,26.35c-6.2,12.767-6.233,25.8-0.1,39.1c6.1,13.267,16.583,22.9,31.45,28.9
			C50.934,0.983,65.8,1.6,80.7-3.2z"/>
	</g>
</symbol>
<symbol  id="Symbol_19" viewBox="0 -98.3 118.55 98.3">
	<g id="Layer_1_11_">
		
			<radialGradient id="SVGID_10_" cx="59.2754" cy="-49.1499" r="59.2477" gradientTransform="matrix(1 0 0 -0.8294 0 -89.9126)" gradientUnits="userSpaceOnUse">
			<stop  offset="0" style="stop-color:#FFFFFF;stop-opacity:0.498"/>
			<stop  offset="0.9647" style="stop-color:#FFFFFF;stop-opacity:0"/>
		</radialGradient>
		<path style="fill-rule:evenodd;clip-rule:evenodd;fill:url(#SVGID_10_);" d="M59.25-98.3c-16.367,0-30.333,4.8-41.9,14.4
			C5.784-74.3,0-62.717,0-49.15C0-35.583,5.784-24,17.351-14.4C28.917-4.8,42.884,0,59.25,0s30.35-4.8,41.95-14.4
			c11.567-9.6,17.35-21.184,17.35-34.75c0-13.567-5.783-25.15-17.35-34.75C89.601-93.5,75.617-98.3,59.25-98.3z"/>
	</g>
</symbol>
<symbol  id="Symbol_2" viewBox="-34.001 -233.25 452.389 245.728">
	<g id="Layer_11_1_">
		
			<use xlink:href="#Symbol_19"  width="118.55" height="98.3" x="0" y="-98.3" transform="matrix(1.1847 0 0 1.1847 192.5005 -11.8994)" style="overflow:visible;"/>
	</g>
	<g id="Layer_10_1_">
		
			<use xlink:href="#Symbol_18"  width="116.9" height="102.556" x="0.075" y="-102.565" transform="matrix(1.29 0 0 1.29 33.75 -29.6504)" style="overflow:visible;"/>
	</g>
	<g id="Layer_9_1_">
		
			<use xlink:href="#Symbol_17"  width="101.85" height="97.85" y="-97.85" transform="matrix(1.0554 0 0 1.0554 263.4995 -49.7998)" style="overflow:visible;"/>
	</g>
	<g id="Layer_8_1_">
		
			<use xlink:href="#Symbol_16"  width="150.802" height="108.776" x="-0.001" y="-108.794" transform="matrix(1.2281 0 0 1.2281 87 12.5005)" style="overflow:visible;"/>
	</g>
	<g id="Layer_7_1_">
		
			<use xlink:href="#Symbol_15"  width="150.802" height="108.787" x="-0.001" y="-108.793" transform="matrix(1.1915 0 0 1.1915 89.7505 -43.8506)" style="overflow:visible;"/>
	</g>
	<g id="Layer_6_1_">
		
			<use xlink:href="#Symbol_14"  width="173.362" height="129.789" x="-0.005" y="-129.795" transform="matrix(1.1309 0 0 1.1309 87.8496 -82.5996)" style="overflow:visible;"/>
	</g>
	<g id="Layer_5_1_">
		
			<use xlink:href="#Symbol_13"  width="150.802" height="108.786" x="-0.002" y="-108.793" transform="matrix(1.2365 0 0 1.2365 142.7007 -62.7998)" style="overflow:visible;"/>
	</g>
	<g id="Layer_4_1_">
		
			<use xlink:href="#Symbol_12"  width="150.816" height="108.776" x="0" y="-108.794" transform="matrix(1.234 0 0 1.234 209.6499 -99)" style="overflow:visible;"/>
	</g>
	<g id="Layer_3_1_">
		
			<use xlink:href="#Symbol_11"  width="150.816" height="108.786" x="-0.001" y="-108.793" transform="matrix(1.4509 0 0 1.4509 -34 -43.25)" style="overflow:visible;"/>
	</g>
	<g id="Layer_2_2_">
		
			<use xlink:href="#Symbol_10"  width="150.816" height="108.787" x="0" y="-108.794" transform="matrix(1.0008 0 0 1.0008 267.4502 -72)" style="overflow:visible;"/>
	</g>
</symbol>
<symbol  id="Symbol_20" viewBox="0 -3.456 3.925 3.431">
	<g id="Layer_1_17_">
		
			<radialGradient id="SVGID_11_" cx="1.9502" cy="-1.75" r="1.825" gradientTransform="matrix(1 0 0 -1 0 -3.5)" gradientUnits="userSpaceOnUse">
			<stop  offset="0.0667" style="stop-color:#FFFFFF;stop-opacity:0.8"/>
			<stop  offset="1" style="stop-color:#FFFFFF;stop-opacity:0.8"/>
		</radialGradient>
		<path style="fill-rule:evenodd;clip-rule:evenodd;fill:url(#SVGID_11_);" d="M3.55-1.2c0-0.133-0.05-0.233-0.15-0.3
			c0.033-0.1,0.184-0.133,0.45-0.1c0.1-0.1,0.1-0.2,0-0.3C3.617-1.867,3.467-1.883,3.4-1.95c0.267-0.333,0.267-0.5,0-0.5
			c-0.1,0-0.184,0.083-0.25,0.25c-0.066,0.167-0.133,0.267-0.2,0.3L2.3-1.95L2.65-2.5l0.6-0.05L3.3-2.7L3.25-2.85L2.9-2.9
			c0-0.067,0.033-0.184,0.1-0.35c0.033-0.1-0.017-0.167-0.15-0.2c-0.067,0-0.134,0.05-0.2,0.15l-0.1,0.2
			C2.45-3.267,2.367-3.367,2.3-3.4c-0.2,0.033-0.267,0.133-0.2,0.3c0.133,0.2,0.2,0.333,0.2,0.4C2.167-2.467,2.067-2.283,2-2.15
			C1.767-2.383,1.65-2.566,1.65-2.7c0-0.133,0.083-0.316,0.25-0.55c0-0.133-0.083-0.184-0.25-0.15c-0.066,0.133-0.133,0.233-0.2,0.3
			c-0.1-0.167-0.183-0.267-0.25-0.3C1.101-3.5,1-3.467,0.9-3.3C1-3.167,1.05-3.033,1.05-2.9L0.7-2.85L0.65-2.7
			c0,0.167,0.217,0.233,0.65,0.2L1.65-2C1.617-1.967,1.4-1.95,1-1.95c-0.133-0.167-0.233-0.3-0.3-0.4c-0.1-0.133-0.2-0.117-0.3,0.05
			l0.1,0.35c-0.2,0-0.333,0.017-0.4,0.05c-0.134,0.133-0.134,0.233,0,0.3l0.4,0.05L0.4-1.2C0.5-1,0.617-0.983,0.75-1.15
			C0.817-1.25,0.9-1.383,1-1.55h0.65L1.3-1L0.7-0.95c-0.133,0.134-0.133,0.233,0,0.3L1.05-0.6C1.05-0.566,1-0.45,0.9-0.25
			c0,0.2,0.083,0.267,0.25,0.2C1.217-0.083,1.3-0.2,1.4-0.4c0.1,0.033,0.184,0.133,0.25,0.3h0.2c0.066-0.1,0.066-0.216,0-0.35
			c-0.134-0.167-0.2-0.283-0.2-0.35c0-0.067,0.117-0.25,0.35-0.55L2.3-0.8C2.134-0.566,2.05-0.383,2.05-0.25
			c0,0.167,0.067,0.217,0.2,0.15c0.1,0,0.183-0.1,0.25-0.3c0.1,0.066,0.2,0.183,0.3,0.35C2.967-0.017,3.034-0.083,3-0.25
			c0-0.066-0.034-0.167-0.1-0.3c0.434-0.1,0.55-0.233,0.35-0.4L2.65-1C2.55-1.066,2.434-1.233,2.3-1.5
			c0.034-0.066,0.133-0.1,0.3-0.1c0.066,0,0.167,0.017,0.3,0.05c0.133,0,0.267,0.167,0.4,0.5C3.434-1.017,3.517-1.066,3.55-1.2z"/>
	</g>
</symbol>
<symbol  id="Symbol_21" viewBox="0 -3.1 2.55 3.1">
	<g id="Layer_1_18_">
		
			<radialGradient id="SVGID_12_" cx="1.2998" cy="-1.5498" r="1.4126" gradientTransform="matrix(1 0 0 -1 0 -3.0996)" gradientUnits="userSpaceOnUse">
			<stop  offset="0.0667" style="stop-color:#FFFFFF;stop-opacity:0.8"/>
			<stop  offset="1" style="stop-color:#FFFFFF;stop-opacity:0.8"/>
		</radialGradient>
		<path style="fill-rule:evenodd;clip-rule:evenodd;fill:url(#SVGID_12_);" d="M0-1.8v0.55c0,0.367,0.1,0.667,0.3,0.9
			C0.533-0.117,0.816,0,1.149,0C1.516,0,1.833-0.133,2.1-0.4c0.3-0.267,0.45-0.566,0.45-0.9v-0.55c0-0.833-0.384-1.25-1.15-1.25
			C1.066-3.067,0.75-2.934,0.45-2.7C0.149-2.434,0-2.133,0-1.8z"/>
	</g>
</symbol>
<symbol  id="Symbol_22" viewBox="0 -4.923 5.65 4.93">
	<g id="Layer_1_19_">
		
			<radialGradient id="SVGID_13_" cx="2.8501" cy="-2.4502" r="2.625" gradientTransform="matrix(1 0 0 -1 0 -4.9004)" gradientUnits="userSpaceOnUse">
			<stop  offset="0.0667" style="stop-color:#FFFFFF;stop-opacity:0.8"/>
			<stop  offset="1" style="stop-color:#FFFFFF;stop-opacity:0.8"/>
		</radialGradient>
		<path style="fill-rule:evenodd;clip-rule:evenodd;fill:url(#SVGID_13_);" d="M4.35-0.25c0-0.034-0.066-0.2-0.2-0.5
			C4.784-0.817,4.95-1,4.65-1.3c-0.333,0-0.617-0.017-0.85-0.05L3.35-2.1c0.1-0.133,0.383-0.167,0.85-0.1
			c0.1,0.033,0.2,0.15,0.3,0.35c0.1,0.233,0.184,0.367,0.25,0.4c0.2,0.067,0.317,0,0.35-0.2C5.134-1.817,5.083-1.967,4.95-2.1
			c0.033-0.133,0.233-0.184,0.6-0.15c0.133-0.133,0.133-0.267,0-0.4c-0.333,0-0.534-0.033-0.6-0.1c0.3-0.5,0.267-0.75-0.1-0.75
			c-0.133,0-0.233,0.117-0.3,0.35c-0.1,0.267-0.2,0.417-0.3,0.45c-0.466,0.033-0.767,0.017-0.9-0.05
			c0.034-0.067,0.184-0.333,0.45-0.8C3.967-3.583,4.25-3.6,4.65-3.6L4.8-3.8L4.7-4.05L4.15-4.1c0.033-0.1,0.1-0.267,0.2-0.5
			C4.384-4.767,4.3-4.867,4.1-4.9C4-4.867,3.917-4.8,3.85-4.7c-0.066,0.167-0.133,0.267-0.2,0.3C3.517-4.633,3.4-4.784,3.3-4.85
			C3-4.817,2.9-4.684,3-4.45c0.2,0.3,0.3,0.5,0.3,0.6l-0.4,0.8C2.567-3.383,2.4-3.633,2.4-3.8C2.367-4,2.483-4.267,2.75-4.6
			C2.684-4.767,2.567-4.85,2.4-4.85C2.267-4.617,2.167-4.467,2.1-4.4C1.934-4.6,1.8-4.75,1.7-4.85C1.534-4.983,1.4-4.934,1.3-4.7
			c0.133,0.233,0.216,0.417,0.25,0.55C1.517-4.083,1.434-4.067,1.3-4.1c-0.133,0-0.217,0.017-0.25,0.05C0.95-3.983,0.9-3.9,0.9-3.8
			c0.033,0.233,0.366,0.317,1,0.25L2.35-2.8c-0.133,0.133-0.433,0.15-0.9,0.05C1.284-3.017,1.15-3.2,1.05-3.3
			c-0.167-0.2-0.333-0.183-0.5,0.05c0.133,0.167,0.2,0.333,0.2,0.5c-0.3,0-0.5,0.033-0.6,0.1c-0.2,0.133-0.2,0.267,0,0.4
			c0.1,0.066,0.3,0.083,0.6,0.05C0.617-2,0.55-1.817,0.55-1.65C0.717-1.417,0.884-1.4,1.05-1.6c0.1-0.133,0.233-0.333,0.4-0.6
			c0.533,0,0.833,0.017,0.9,0.05C2.25-1.883,2.1-1.617,1.9-1.35c-0.333,0-0.617,0.017-0.85,0.05c-0.067,0.033-0.1,0.1-0.1,0.2
			s0.033,0.183,0.1,0.25l0.5,0.05c0,0.067-0.083,0.25-0.25,0.55C1.367-0.05,1.483,0.033,1.65,0C1.684,0,1.8-0.167,2-0.5
			c0.1,0,0.167,0.066,0.2,0.2c0.066,0.133,0.133,0.2,0.2,0.2h0.25c0.133-0.133,0.133-0.3,0-0.5C2.483-0.833,2.4-0.983,2.4-1.05
			c0-0.133,0.05-0.283,0.15-0.45c0.066-0.067,0.167-0.184,0.3-0.35C3.05-1.65,3.2-1.4,3.3-1.1C3.333-1,3.284-0.883,3.15-0.75
			c-0.134,0.2-0.2,0.333-0.2,0.4c0,0.2,0.1,0.283,0.3,0.25c0.167,0,0.3-0.133,0.4-0.4C3.784-0.434,3.9-0.267,4,0
			C4.267,0.033,4.384-0.05,4.35-0.25z"/>
	</g>
</symbol>
<symbol  id="Symbol_23" viewBox="0 -4.922 5.65 4.93">
	<g id="Layer_1_20_">
		
			<radialGradient id="SVGID_14_" cx="2.8003" cy="-2.4497" r="2.625" gradientTransform="matrix(1 0 0 -1 0 -4.8994)" gradientUnits="userSpaceOnUse">
			<stop  offset="0.0667" style="stop-color:#FFFFFF;stop-opacity:0.8"/>
			<stop  offset="1" style="stop-color:#FFFFFF;stop-opacity:0.8"/>
		</radialGradient>
		<path style="fill-rule:evenodd;clip-rule:evenodd;fill:url(#SVGID_14_);" d="M0.5-1.649c0.167,0.233,0.35,0.25,0.55,0.05
			c0.1-0.133,0.216-0.333,0.35-0.6c0.2,0.034,0.5,0.05,0.9,0.05c-0.1,0.333-0.25,0.6-0.45,0.8C1.55-1.35,1.267-1.333,1-1.3
			C0.934-1.266,0.9-1.2,0.9-1.1S0.934-0.916,1-0.85L1.5-0.8c0,0.034-0.083,0.217-0.25,0.55c0.067,0.2,0.2,0.283,0.4,0.25
			C1.75-0.066,1.867-0.233,2-0.5c0.134,0.033,0.25,0.183,0.35,0.45L2.6-0.1c0.133-0.133,0.133-0.3,0-0.5
			C2.434-0.833,2.35-0.983,2.35-1.05c0-0.133,0.05-0.283,0.15-0.45c0.067-0.067,0.167-0.184,0.3-0.35C2.9-1.783,3.067-1.533,3.3-1.1
			c0,0.066-0.067,0.2-0.2,0.4c-0.133,0.167-0.2,0.3-0.2,0.4c0,0.167,0.116,0.25,0.35,0.25C3.384-0.083,3.5-0.233,3.6-0.5
			C3.733-0.433,3.867-0.266,4,0c0.267,0.033,0.367-0.05,0.3-0.25c0-0.133-0.067-0.3-0.2-0.5C4.767-0.816,4.934-1,4.6-1.3
			C4.267-1.3,4-1.316,3.8-1.35C3.733-1.45,3.567-1.7,3.3-2.1c0.1-0.133,0.383-0.167,0.85-0.1c0.1,0.034,0.2,0.15,0.3,0.35
			c0.1,0.233,0.184,0.367,0.25,0.4c0.2,0.067,0.316,0,0.35-0.2C5.083-1.816,5.034-1.966,4.9-2.1c0.033-0.133,0.25-0.184,0.65-0.15
			c0.133-0.133,0.133-0.267,0-0.4c-0.367,0-0.583-0.034-0.65-0.1c0.267-0.467,0.25-0.7-0.05-0.7c-0.133,0-0.25,0.1-0.35,0.3
			C4.367-2.883,4.267-2.733,4.2-2.7C3.733-2.666,3.434-2.683,3.3-2.75c0.033-0.067,0.183-0.333,0.45-0.8
			C3.917-3.583,4.2-3.6,4.6-3.6l0.15-0.2l-0.1-0.25L4.1-4.1c0.034-0.1,0.1-0.267,0.2-0.5c0.066-0.167-0.017-0.267-0.25-0.3
			C3.95-4.866,3.867-4.8,3.8-4.7c-0.067,0.167-0.133,0.267-0.2,0.3C3.5-4.633,3.384-4.783,3.25-4.85C2.95-4.816,2.867-4.683,3-4.45
			c0.167,0.3,0.267,0.5,0.3,0.6c-0.034,0.066-0.184,0.333-0.45,0.8c-0.333-0.333-0.5-0.583-0.5-0.75c0-0.2,0.133-0.466,0.4-0.8
			c-0.066-0.167-0.2-0.25-0.4-0.25c-0.1,0.233-0.2,0.383-0.3,0.45c-0.167-0.2-0.3-0.35-0.4-0.45c-0.167-0.133-0.3-0.083-0.4,0.15
			C1.417-4.466,1.5-4.283,1.5-4.149c-0.033,0.066-0.116,0.1-0.25,0.1c-0.133,0-0.216,0-0.25,0L0.9-3.8
			c0,0.233,0.316,0.317,0.95,0.25L2.3-2.8c-0.1,0.134-0.4,0.15-0.9,0.05C1.233-3.016,1.1-3.2,1-3.3C0.833-3.5,0.667-3.483,0.5-3.25
			c0.134,0.167,0.2,0.333,0.2,0.5c-0.3,0-0.5,0.033-0.6,0.1c-0.133,0.133-0.133,0.267,0,0.4c0.1,0.066,0.3,0.1,0.6,0.1
			C0.6-1.95,0.534-1.783,0.5-1.649z"/>
	</g>
</symbol>
<symbol  id="Symbol_24" viewBox="0 -4.899 5.65 4.907">
	<g id="Layer_1_21_">
		
			<radialGradient id="SVGID_15_" cx="2.7998" cy="-2.4458" r="2.6267" gradientTransform="matrix(1 0 0 -1 0 -4.8916)" gradientUnits="userSpaceOnUse">
			<stop  offset="0.0667" style="stop-color:#FFFFFF;stop-opacity:0.8"/>
			<stop  offset="1" style="stop-color:#FFFFFF;stop-opacity:0.8"/>
		</radialGradient>
		<path style="fill-rule:evenodd;clip-rule:evenodd;fill:url(#SVGID_15_);" d="M4.1-0.75C4.767-0.816,4.934-1,4.6-1.3
			C4.267-1.3,4-1.316,3.8-1.35C3.733-1.45,3.566-1.7,3.3-2.1c0.1-0.133,0.384-0.167,0.85-0.1c0.1,0,0.2,0.117,0.3,0.35
			c0.1,0.233,0.2,0.367,0.3,0.4c0.2,0.1,0.3,0.034,0.3-0.2C5.083-1.85,5.033-2,4.9-2.1c0.034-0.133,0.25-0.167,0.65-0.1
			c0.134-0.167,0.134-0.316,0-0.45c-0.366,0.033-0.583,0-0.65-0.1c0.267-0.467,0.25-0.7-0.05-0.7c-0.133,0-0.25,0.1-0.35,0.3
			C4.367-2.883,4.267-2.733,4.2-2.7c-0.567,0-0.867-0.017-0.9-0.05c0.034-0.067,0.184-0.333,0.45-0.8H4.6L4.75-3.8l-0.1-0.25
			L4.1-4.1c0.033-0.1,0.1-0.267,0.2-0.5c0.067-0.167-0.017-0.267-0.25-0.3c-0.1,0.033-0.183,0.116-0.25,0.25
			c-0.066,0.133-0.133,0.216-0.2,0.25C3.5-4.633,3.383-4.766,3.25-4.8C2.95-4.766,2.867-4.633,3-4.399
			c0.167,0.267,0.267,0.466,0.3,0.6C3.267-3.733,3.117-3.466,2.85-3c-0.333-0.434-0.5-0.7-0.5-0.8c0-0.2,0.133-0.45,0.4-0.75
			c-0.066-0.2-0.2-0.283-0.4-0.25c-0.1,0.2-0.2,0.333-0.3,0.4c-0.167-0.2-0.3-0.333-0.4-0.4c-0.167-0.133-0.3-0.1-0.4,0.1
			C1.417-4.466,1.5-4.266,1.5-4.1C1.267-4.1,1.1-4.083,1-4.05L0.9-3.8c0,0.233,0.317,0.317,0.95,0.25
			c0.066,0.067,0.216,0.333,0.45,0.8C2.267-2.716,1.967-2.7,1.4-2.7C1.233-2.966,1.1-3.166,1-3.3C0.833-3.5,0.684-3.483,0.55-3.25
			c0.1,0.2,0.15,0.367,0.15,0.5C0.667-2.683,0.566-2.666,0.4-2.7c-0.167,0-0.267,0.017-0.3,0.05c-0.133,0.133-0.133,0.283,0,0.45
			c0.033,0,0.133,0,0.3,0c0.133,0,0.233,0.017,0.3,0.05c-0.1,0.2-0.15,0.366-0.15,0.5c0.134,0.233,0.3,0.25,0.5,0.05
			c0.1-0.133,0.217-0.333,0.35-0.6c0.2,0.034,0.5,0.05,0.9,0.05c-0.1,0.333-0.25,0.6-0.45,0.8C1.55-1.35,1.267-1.333,1-1.3
			C0.934-1.266,0.9-1.2,0.9-1.1S0.934-0.916,1-0.85L1.5-0.8c0,0.034-0.083,0.217-0.25,0.55c0.066,0.2,0.2,0.283,0.4,0.25
			C1.75-0.066,1.867-0.233,2-0.5c0.133,0.033,0.25,0.183,0.35,0.45l0.3-0.05c0.1-0.133,0.083-0.3-0.05-0.5
			C2.434-0.833,2.35-0.983,2.35-1.05c0-0.033,0.15-0.3,0.45-0.8C2.9-1.783,3.066-1.533,3.3-1.1c0,0.1-0.066,0.233-0.2,0.4
			s-0.2,0.3-0.2,0.4c0,0.167,0.117,0.25,0.35,0.25C3.383-0.083,3.5-0.233,3.6-0.5C3.733-0.433,3.867-0.266,4,0
			c0.267,0.033,0.367-0.05,0.3-0.25C4.3-0.383,4.233-0.55,4.1-0.75z"/>
	</g>
</symbol>
<symbol  id="Symbol_25" viewBox="0 -2.995 3.29 2.978">
	<g id="Layer_1_22_">
		
			<radialGradient id="SVGID_16_" cx="1.6499" cy="-1.5" r="1.5625" gradientTransform="matrix(1 0 0 -1 0 -3)" gradientUnits="userSpaceOnUse">
			<stop  offset="0.0667" style="stop-color:#FFFFFF;stop-opacity:0.8"/>
			<stop  offset="1" style="stop-color:#FFFFFF;stop-opacity:0.8"/>
		</radialGradient>
		<path style="fill-rule:evenodd;clip-rule:evenodd;fill:url(#SVGID_16_);" d="M2.5-0.55l0.7-0.7C3.3-1.583,3.316-1.767,3.25-1.8
			l-0.7-0.55c-0.2-0.167-0.3-0.3-0.3-0.4c-0.033-0.233-0.217-0.3-0.55-0.2c-0.267,0.067-0.467,0.167-0.6,0.3
			C0.9-2.55,0.633-2.333,0.3-2C0.1-1.8,0-1.583,0-1.35c0.033,0.267,0.184,0.5,0.45,0.7c0.133,0.1,0.366,0.267,0.7,0.5
			C1.417,0.117,1.867-0.017,2.5-0.55z"/>
	</g>
</symbol>
<symbol  id="Symbol_26" viewBox="0 -1.94 1.55 1.941">
	<g id="Layer_1_23_">
		
			<radialGradient id="SVGID_17_" cx="2.0146" cy="-2.9097" r="0.6652" gradientTransform="matrix(1 0 0 -1 0 -5.8193)" gradientUnits="userSpaceOnUse">
			<stop  offset="0.0667" style="stop-color:#FFFFFF;stop-opacity:0.8"/>
			<stop  offset="1" style="stop-color:#FFFFFF;stop-opacity:0.8"/>
		</radialGradient>
		<path style="fill-rule:evenodd;clip-rule:evenodd;fill:url(#SVGID_17_);" d="M0-0.3C0-0.133,0.116-0.033,0.35,0
			c0.2,0,0.367-0.034,0.5-0.1c0.467-0.2,0.7-0.5,0.7-0.9v-0.65c0-0.267-0.284-0.35-0.85-0.25C0.233-1.7,0-1.399,0-1V-0.3z"/>
	</g>
</symbol>
<symbol  id="Symbol_27" viewBox="0 -3.106 2.55 3.106">
	<g id="Layer_1_24_">
		
			<radialGradient id="SVGID_18_" cx="1.25" cy="-1.5527" r="1.4109" gradientTransform="matrix(1 0 0 -1 0 -3.1055)" gradientUnits="userSpaceOnUse">
			<stop  offset="0.0667" style="stop-color:#FFFFFF;stop-opacity:0.8"/>
			<stop  offset="1" style="stop-color:#FFFFFF;stop-opacity:0.8"/>
		</radialGradient>
		<path style="fill-rule:evenodd;clip-rule:evenodd;fill:url(#SVGID_18_);" d="M1.15,0C1.483-0.033,1.8-0.183,2.1-0.45
			c0.3-0.267,0.45-0.566,0.45-0.9v-0.5c0-0.367-0.1-0.667-0.3-0.9C2.017-3.017,1.716-3.133,1.35-3.1c-0.333,0-0.633,0.133-0.9,0.4
			C0.15-2.433,0-2.133,0-1.8v0.55C0-0.417,0.383,0,1.15,0z"/>
	</g>
</symbol>
<symbol  id="Symbol_28" viewBox="-0.015 -1.8 2.981 1.79">
	<g id="Layer_1_25_">
		
			<radialGradient id="SVGID_19_" cx="1.4502" cy="-0.9502" r="1.2375" gradientTransform="matrix(1 0 0 -1 0 -1.9004)" gradientUnits="userSpaceOnUse">
			<stop  offset="0.0667" style="stop-color:#FFFFFF;stop-opacity:0.8"/>
			<stop  offset="1" style="stop-color:#FFFFFF;stop-opacity:0.8"/>
		</radialGradient>
		<path style="fill-rule:evenodd;clip-rule:evenodd;fill:url(#SVGID_19_);" d="M0.55-1.8L0-1.25c-0.067,0.034,0.083,0.167,0.45,0.4
			c0.267,0.2,0.483,0.333,0.65,0.4c0.333,0.2,0.616,0.316,0.85,0.35C2.184,0,2.334,0.016,2.4-0.05l0.55-0.55
			c0.1-0.1-0.267-0.366-1.1-0.8l-0.9-0.4H0.55z"/>
	</g>
</symbol>
<symbol  id="Symbol_29" viewBox="0.011 -2 3.592 2">
	<g id="Layer_1_26_">
		
			<radialGradient id="SVGID_20_" cx="1.7998" cy="-0.9995" r="1.4375" gradientTransform="matrix(1 0 0 -1 0 -1.999)" gradientUnits="userSpaceOnUse">
			<stop  offset="0.0667" style="stop-color:#FFFFFF;stop-opacity:0.8"/>
			<stop  offset="1" style="stop-color:#FFFFFF;stop-opacity:0.8"/>
		</radialGradient>
		<path style="fill-rule:evenodd;clip-rule:evenodd;fill:url(#SVGID_20_);" d="M0.149-0.85C-0.05-0.583-0.034-0.366,0.2-0.2
			C0.333-0.066,0.649,0,1.149,0h0.3c0.367,0,0.783-0.133,1.25-0.4c0.4-0.2,0.667-0.45,0.8-0.75c0.167-0.3,0.133-0.517-0.1-0.65
			C3.266-1.933,2.966-2,2.5-2h-0.35c-0.3,0-0.716,0.133-1.25,0.4C0.533-1.433,0.283-1.183,0.149-0.85z"/>
	</g>
</symbol>
<symbol  id="Symbol_30" viewBox="0.022 -1.712 2.061 1.687">
	<g id="Layer_1_27_">
		
			<radialGradient id="SVGID_21_" cx="1.0498" cy="-0.9004" r="0.925" gradientTransform="matrix(1 0 0 -1 0 -1.8008)" gradientUnits="userSpaceOnUse">
			<stop  offset="0.0667" style="stop-color:#FFFFFF;stop-opacity:0.8"/>
			<stop  offset="1" style="stop-color:#FFFFFF;stop-opacity:0.8"/>
		</radialGradient>
		<path style="fill-rule:evenodd;clip-rule:evenodd;fill:url(#SVGID_21_);" d="M1.7-0.25C1.866-0.317,1.983-0.467,2.05-0.7
			s0.033-0.4-0.1-0.5C1.616-1.534,1.267-1.7,0.9-1.7C0.466-1.767,0.183-1.55,0.05-1.05c-0.1,0.4,0.066,0.633,0.5,0.7H0.6
			C0.633-0.317,0.667-0.3,0.7-0.3l0.05,0.05C1.05,0.05,1.366,0.05,1.7-0.25z"/>
	</g>
</symbol>
<symbol  id="Symbol_31" viewBox="0 -8.25 7.2 8.25">
	<g id="Layer_1_28_">
		
			<radialGradient id="SVGID_22_" cx="3.6001" cy="-4.1494" r="3.8625" gradientTransform="matrix(1 0 0 -1 0 -8.2988)" gradientUnits="userSpaceOnUse">
			<stop  offset="0.0667" style="stop-color:#FFFFFF;stop-opacity:0.8"/>
			<stop  offset="1" style="stop-color:#FFFFFF;stop-opacity:0.8"/>
		</radialGradient>
		<path style="fill-rule:evenodd;clip-rule:evenodd;fill:url(#SVGID_22_);" d="M3.65,0c0.067-0.1,0.1-0.4,0.1-0.9
			C3.783-1,3.9-1.1,4.1-1.2c-0.167-0.066-0.284-0.216-0.35-0.45S3.717-2.1,3.85-2.3c0.033,0,0.1,0.017,0.2,0.05
			c0.067,0.033,0.134,0.017,0.2-0.05c0-0.1-0.1-0.216-0.3-0.35C3.783-2.783,3.717-2.933,3.75-3.1C3.816-3.366,4-3.5,4.3-3.5
			c0.167,0.033,0.267,0.15,0.3,0.35c0.066,0.267,0.117,0.433,0.15,0.5c0.2,0.033,0.3-0.083,0.3-0.35C5.483-3,5.767-2.733,5.9-2.2
			l0.3-0.15c0.066,0,0.233,0.083,0.5,0.25C6.9-2,7.066-1.983,7.2-2.05C7.133-2.316,6.867-2.533,6.4-2.7
			c0-0.233-0.017-0.35-0.05-0.35C5.983-2.916,5.633-3.016,5.3-3.35c0-0.066,0.034-0.133,0.1-0.2c0.1-0.033,0.133-0.1,0.1-0.2
			C5.4-3.85,5.283-3.866,5.15-3.8c-0.133,0.1-0.267,0.15-0.4,0.15c-0.233-0.034-0.35-0.2-0.35-0.5C4.434-4.416,4.566-4.566,4.8-4.6
			c0.167,0.033,0.384,0.1,0.65,0.2C5.55-4.533,5.5-4.666,5.3-4.8c0.233-0.4,0.583-0.517,1.05-0.35C6.316-5.416,6.434-5.616,6.7-5.75
			c0.3-0.133,0.466-0.267,0.5-0.4c-0.134-0.1-0.3-0.1-0.5,0c-0.2,0.167-0.35,0.267-0.45,0.3C6.15-5.983,6.033-6.033,5.9-6
			C5.8-5.6,5.55-5.35,5.15-5.25C5.083-5.25,5.033-5.3,5-5.399C4.967-5.533,4.9-5.583,4.8-5.55c-0.066,0.067-0.116,0.233-0.15,0.5
			c-0.066,0.2-0.183,0.3-0.35,0.3c-0.167,0-0.35-0.1-0.55-0.3c-0.066-0.233,0-0.4,0.2-0.5c0.2-0.133,0.3-0.267,0.3-0.4
			c-0.066-0.066-0.2-0.066-0.4,0c-0.067-0.033-0.1-0.117-0.1-0.25c0-0.233,0-0.367,0-0.4C3.783-6.766,3.9-6.916,4.1-7.05
			c-0.167-0.1-0.284-0.183-0.35-0.25c0.066-0.533,0.033-0.85-0.1-0.95c-0.167,0-0.25,0.117-0.25,0.35
			c0.067,0.267,0.083,0.466,0.05,0.6c-0.2,0.067-0.317,0.15-0.35,0.25c0.4,0.4,0.483,0.767,0.25,1.1h-0.4c0,0.1,0.1,0.233,0.3,0.4
			c0.167,0.134,0.233,0.284,0.2,0.45c-0.067,0.233-0.233,0.35-0.5,0.35c-0.2,0-0.333-0.1-0.4-0.3c-0.1-0.333-0.167-0.517-0.2-0.55
			c-0.1,0-0.184,0.117-0.25,0.35C1.633-5.316,1.367-5.566,1.3-6C1.2-6.033,1.133-6.016,1.1-5.95c-0.067,0.067-0.117,0.1-0.15,0.1
			C0.55-6.216,0.233-6.316,0-6.149c0.033,0.133,0.133,0.25,0.3,0.35c0.233,0.134,0.384,0.233,0.45,0.3
			c0.033,0.1,0.05,0.216,0.05,0.35c0.333-0.134,0.684-0.05,1.05,0.25c0.033,0.066,0,0.133-0.1,0.2c-0.066,0.067-0.1,0.15-0.1,0.25
			C1.717-4.416,1.934-4.466,2.3-4.6c0.3,0.033,0.45,0.2,0.45,0.5S2.6-3.649,2.3-3.649C2.267-3.649,2.167-3.7,2-3.8
			C1.9-3.866,1.783-3.85,1.65-3.75c-0.033,0.1,0,0.167,0.1,0.2c0.066,0.034,0.1,0.083,0.1,0.15C1.65-3.033,1.3-2.916,0.8-3.05
			c-0.033,0.034-0.05,0.134-0.05,0.3c-0.033,0.1-0.167,0.2-0.4,0.3C0.15-2.35,0.033-2.216,0-2.05C0.133-1.983,0.283-2,0.45-2.1
			L0.9-2.35c0.034,0,0.1,0.033,0.2,0.1c0.066,0.066,0.117,0.066,0.15,0C1.417-2.683,1.684-2.933,2.05-3C2.117-3,2.167-2.95,2.2-2.85
			c0,0.133,0.033,0.2,0.1,0.2C2.4-2.716,2.467-2.866,2.5-3.1s0.133-0.367,0.3-0.4c0.167-0.034,0.333,0.017,0.5,0.15
			c0.134,0.133,0.184,0.283,0.15,0.45c-0.034,0.1-0.134,0.2-0.3,0.3c-0.167,0.066-0.233,0.167-0.2,0.3h0.4
			c0.2,0.4,0.117,0.784-0.25,1.15C3.3-1.116,3.4-0.966,3.4-0.7C3.434-0.3,3.467-0.066,3.5,0H3.65z"/>
	</g>
</symbol>
<symbol  id="Symbol_32" viewBox="-0.006 -3.013 3.29 2.991">
	<g id="Layer_1_29_">
		
			<radialGradient id="SVGID_23_" cx="1.6499" cy="-1.5" r="1.5625" gradientTransform="matrix(1 0 0 -1 0 -3)" gradientUnits="userSpaceOnUse">
			<stop  offset="0.0667" style="stop-color:#FFFFFF;stop-opacity:0.8"/>
			<stop  offset="1" style="stop-color:#FFFFFF;stop-opacity:0.8"/>
		</radialGradient>
		<path style="fill-rule:evenodd;clip-rule:evenodd;fill:url(#SVGID_23_);" d="M1.1-0.15C1.366,0.117,1.833-0.033,2.5-0.6
			C2.8-0.767,3.017-1,3.15-1.3s0.167-0.467,0.1-0.5C3.083-1.966,2.833-2.15,2.5-2.35c-0.2-0.167-0.3-0.3-0.3-0.4
			c0-0.367-0.383-0.35-1.15,0.05L0.3-2C0.066-1.767-0.034-1.566,0-1.4c0,0.267,0.133,0.517,0.4,0.75C0.566-0.55,0.8-0.383,1.1-0.15z
			"/>
	</g>
</symbol>
<symbol  id="Symbol_33" viewBox="0.02 -2 3.56 2">
	<g id="Layer_1_30_">
		
			<radialGradient id="SVGID_24_" cx="1.8003" cy="-1" r="1.4376" gradientTransform="matrix(1 0 0 -1 0 -2)" gradientUnits="userSpaceOnUse">
			<stop  offset="0.0667" style="stop-color:#FFFFFF;stop-opacity:0.8"/>
			<stop  offset="1" style="stop-color:#FFFFFF;stop-opacity:0.8"/>
		</radialGradient>
		<path style="fill-rule:evenodd;clip-rule:evenodd;fill:url(#SVGID_24_);" d="M0.9-1.6C0.567-1.433,0.3-1.183,0.1-0.85
			C-0.033-0.583,0-0.367,0.2-0.2C0.333-0.066,0.634,0,1.1,0h0.35C1.817,0,2.233-0.133,2.7-0.4c0.4-0.2,0.667-0.45,0.8-0.75
			C3.634-1.417,3.6-1.633,3.4-1.8C3.267-1.933,2.967-2,2.5-2H2.15C1.784-2,1.367-1.867,0.9-1.6z"/>
	</g>
</symbol>
<symbol  id="Symbol_34" viewBox="0.022 -1.7 2.028 1.688">
	<g id="Layer_1_31_">
		
			<radialGradient id="SVGID_25_" cx="1.0498" cy="-0.8506" r="0.925" gradientTransform="matrix(1 0 0 -1 0 -1.7012)" gradientUnits="userSpaceOnUse">
			<stop  offset="0.0667" style="stop-color:#FFFFFF;stop-opacity:0.8"/>
			<stop  offset="1" style="stop-color:#FFFFFF;stop-opacity:0.8"/>
		</radialGradient>
		<path style="fill-rule:evenodd;clip-rule:evenodd;fill:url(#SVGID_25_);" d="M0.9-1.7c-0.5,0-0.784,0.216-0.85,0.65
			c-0.1,0.467,0.066,0.7,0.5,0.7l0.1,0.05L0.6-0.351c0.067,0.034,0.1,0.067,0.1,0.1c0.133,0.133,0.15,0.133,0.05,0
			C0.983,0.05,1.3,0.066,1.7-0.2c0.2-0.2,0.317-0.367,0.35-0.5c0-0.233-0.033-0.383-0.1-0.45C1.616-1.484,1.267-1.667,0.9-1.7z"/>
	</g>
</symbol>
<symbol  id="Symbol_35" viewBox="0.025 -1.778 1.475 1.778">
	<g id="Layer_1_32_">
		<path style="fill-rule:evenodd;clip-rule:evenodd;fill:#FFFFFF;" d="M1.5-1.3L1.25-1.6c-0.5-0.333-0.867-0.2-1.1,0.4
			c-0.167,0.367-0.167,0.75,0,1.15l0.3-0.05L0.95,0C1.017-0.066,1.066-0.066,1.1,0h0.1C1.4-0.4,1.5-0.833,1.5-1.3z"/>
	</g>
</symbol>
<symbol  id="Symbol_36" viewBox="-0.015 -1.778 1.464 1.778">
	<g id="Layer_1_33_">
		
			<radialGradient id="SVGID_26_" cx="1.7422" cy="-2.4897" r="0.435" gradientTransform="matrix(1 0 0 -1 0 -4.9795)" gradientUnits="userSpaceOnUse">
			<stop  offset="0.0667" style="stop-color:#FFFFFF;stop-opacity:0.8"/>
			<stop  offset="1" style="stop-color:#FFFFFF;stop-opacity:0.8"/>
		</radialGradient>
		<path style="fill-rule:evenodd;clip-rule:evenodd;fill:url(#SVGID_26_);" d="M1.45-1.3L1.2-1.6C0.7-1.933,0.333-1.8,0.1-1.2
			c-0.133,0.333-0.15,0.717-0.05,1.15L0.4-0.1l0.5,0.05L1,0h0.15C1.283-0.267,1.383-0.7,1.45-1.3z"/>
	</g>
</symbol>
<symbol  id="Symbol_37" viewBox="0 -4.923 5.65 4.93">
	<g id="Layer_1_34_">
		
			<radialGradient id="SVGID_27_" cx="2.8496" cy="-2.4502" r="2.625" gradientTransform="matrix(1 0 0 -1 0 -4.9004)" gradientUnits="userSpaceOnUse">
			<stop  offset="0.0667" style="stop-color:#FFFFFF;stop-opacity:0.8"/>
			<stop  offset="1" style="stop-color:#FFFFFF;stop-opacity:0.8"/>
		</radialGradient>
		<path style="fill-rule:evenodd;clip-rule:evenodd;fill:url(#SVGID_27_);" d="M2.55-1.5c0.066-0.067,0.167-0.184,0.3-0.35
			C3.017-1.684,3.167-1.434,3.3-1.1C3.333-1,3.283-0.867,3.15-0.7s-0.2,0.3-0.2,0.4c0,0.167,0.1,0.25,0.3,0.25
			C3.383-0.083,3.5-0.233,3.6-0.5C3.767-0.434,3.9-0.267,4,0c0.267,0.033,0.383-0.05,0.35-0.25c0-0.034-0.066-0.2-0.2-0.5
			c0.6-0.1,0.767-0.284,0.5-0.55c-0.333,0-0.617-0.017-0.85-0.05L3.35-2.1c0.1-0.133,0.384-0.167,0.85-0.1
			c0.1,0.033,0.2,0.15,0.3,0.35c0.1,0.233,0.183,0.367,0.25,0.4c0.2,0.066,0.316,0,0.35-0.2C5.1-1.85,5.033-2,4.9-2.1
			c0.066-0.133,0.283-0.184,0.65-0.15c0.133-0.134,0.133-0.267,0-0.4C5.216-2.65,5-2.684,4.9-2.75C5.033-2.917,5.1-3.067,5.1-3.2
			c0-0.167-0.083-0.25-0.25-0.25c-0.133,0-0.233,0.1-0.3,0.3c-0.1,0.267-0.2,0.417-0.3,0.45c-0.534,0-0.833-0.017-0.9-0.05
			c0.034-0.067,0.184-0.333,0.45-0.8C3.966-3.583,4.25-3.6,4.65-3.6L4.8-3.8c0-0.066-0.05-0.15-0.15-0.25L4.15-4.1
			c0.033-0.1,0.1-0.267,0.2-0.5C4.383-4.767,4.3-4.867,4.1-4.9C4-4.867,3.917-4.8,3.85-4.7c-0.066,0.167-0.133,0.267-0.2,0.3
			c-0.067-0.033-0.133-0.1-0.2-0.2C3.383-4.733,3.333-4.8,3.3-4.8C3-4.767,2.9-4.634,3-4.4c0.2,0.267,0.3,0.45,0.3,0.55
			c-0.033,0.167-0.167,0.433-0.4,0.8C2.566-3.384,2.4-3.634,2.4-3.8C2.366-4,2.483-4.267,2.75-4.6C2.683-4.767,2.566-4.833,2.4-4.8
			C2.267-4.6,2.167-4.467,2.1-4.4C1.933-4.6,1.8-4.75,1.7-4.85C1.533-4.983,1.4-4.934,1.3-4.7c0.133,0.233,0.217,0.417,0.25,0.55
			c-0.033,0.067-0.117,0.1-0.25,0.1s-0.217,0-0.25,0C0.95-3.95,0.9-3.867,0.9-3.8c0.033,0.233,0.367,0.317,1,0.25L2.35-2.8
			c-0.033,0.067-0.333,0.1-0.9,0.1c-0.167-0.267-0.3-0.467-0.4-0.6c-0.167-0.2-0.333-0.183-0.5,0.05c0.133,0.167,0.2,0.333,0.2,0.5
			c-0.3,0-0.5,0.033-0.6,0.1c-0.2,0.134-0.2,0.267,0,0.4c0.1,0.066,0.3,0.1,0.6,0.1c-0.134,0.2-0.2,0.367-0.2,0.5
			C0.716-1.417,0.883-1.4,1.05-1.6c0.1-0.133,0.233-0.333,0.4-0.6c0.2,0.033,0.5,0.05,0.9,0.05c-0.1,0.333-0.25,0.6-0.45,0.8
			c-0.333,0-0.617,0.017-0.85,0.05c-0.066,0.034-0.1,0.1-0.1,0.2s0.034,0.183,0.1,0.25l0.5,0.05c0,0.067-0.083,0.25-0.25,0.55
			C1.366-0.05,1.483,0.033,1.65,0C1.683,0,1.8-0.167,2-0.5c0.167,0.033,0.3,0.183,0.4,0.45L2.65-0.1c0.133-0.133,0.133-0.3,0-0.5
			C2.483-0.833,2.4-0.983,2.4-1.05C2.366-1.184,2.417-1.333,2.55-1.5z"/>
	</g>
</symbol>
<symbol  id="Symbol_38" viewBox="-0.008 -3.016 3.108 3.017">
	<g id="Layer_1_35_">
		
			<radialGradient id="SVGID_28_" cx="1.5498" cy="-1.4995" r="1.525" gradientTransform="matrix(1 0 0 -1 0 -2.999)" gradientUnits="userSpaceOnUse">
			<stop  offset="0.0667" style="stop-color:#FFFFFF;stop-opacity:0.8"/>
			<stop  offset="1" style="stop-color:#FFFFFF;stop-opacity:0.8"/>
		</radialGradient>
		<path style="fill-rule:evenodd;clip-rule:evenodd;fill:url(#SVGID_28_);" d="M2.7-2.1C2.667-1.933,2.6-1.833,2.5-1.8
			C2.466-1.933,2.433-2,2.4-2c-0.034,0-0.083,0.033-0.15,0.1l-0.2-0.2c0-0.066,0.033-0.133,0.1-0.2l-0.2-0.1
			C1.983-2.5,2.1-2.55,2.3-2.55v-0.1c-0.033-0.034-0.1-0.067-0.2-0.1V-3C2.033-3.033,1.983-3.016,1.95-2.95
			C1.917-2.85,1.883-2.8,1.85-2.8l-0.2-0.1L1.6-2.8c0.134,0.134,0.184,0.233,0.15,0.3c-0.067-0.034-0.134-0.034-0.2,0
			c-0.1,0-0.1,0.05,0,0.15c-0.033,0.066-0.117,0.1-0.25,0.1c-0.033-0.1-0.083-0.167-0.15-0.2C1.083-2.383,1.033-2.35,1-2.35
			c-0.034-0.033-0.034-0.1,0-0.2c0.033-0.1,0.017-0.167-0.05-0.2C0.883-2.649,0.833-2.6,0.8-2.6C0.733-2.7,0.633-2.75,0.5-2.75
			L0.45-2.7c0.067,0.1,0.1,0.184,0.1,0.25C0.417-2.416,0.366-2.333,0.4-2.2c0.033,0,0.1,0,0.2,0c0.1-0.033,0.167-0.033,0.2,0
			C0.733-2.133,0.7-2.083,0.7-2.05V-2c0.067,0.033,0.117,0.066,0.15,0.1l-0.1,0.25h-0.2c0.033,0.1,0.033,0.167,0,0.2
			C0.417-1.616,0.283-1.666,0.15-1.6c0.033,0.066,0.05,0.133,0.05,0.2C0.033-1.366-0.034-1.3,0-1.2c0.033,0.034,0.1,0.05,0.2,0.05
			c0.067,0,0.1,0.083,0.1,0.25h0.05c0.067-0.034,0.1-0.083,0.1-0.15c0.034-0.1,0.067-0.15,0.1-0.15c0.066,0,0.1,0.067,0.1,0.2
			l0.2-0.1L1-0.899C0.9-0.866,0.866-0.816,0.9-0.75l0.2,0.1c0,0.066-0.05,0.1-0.15,0.1L0.75-0.5v0.15l0.2,0.05
			c-0.033,0.067-0.033,0.15,0,0.25L1.05,0C1.116,0,1.167-0.066,1.2-0.2c0.067-0.033,0.133-0.017,0.2,0.05L1.45-0.2
			c0.034-0.1-0.017-0.2-0.15-0.3c0.066-0.067,0.133-0.067,0.2,0l0.05-0.2c0-0.033,0.066-0.05,0.2-0.05c0.066,0,0.1,0.05,0.1,0.15
			c0.067,0.033,0.134,0.017,0.2-0.05C2.116-0.616,2.133-0.566,2.1-0.5c-0.033,0.1-0.033,0.167,0,0.2c0.067,0.034,0.117,0,0.15-0.1
			c0.033,0,0.083,0.033,0.15,0.1c0.033,0.034,0.083,0.034,0.15,0c0.066-0.1,0.05-0.2-0.05-0.3c0-0.033,0.033-0.066,0.1-0.1
			c0.067,0,0.083-0.033,0.05-0.1c-0.167,0.034-0.3,0.034-0.4,0C2.283-0.866,2.333-0.933,2.4-1L2.25-1.1
			C2.216-1.2,2.233-1.283,2.3-1.35h0.2c0.033-0.033,0.033-0.1,0-0.2c0.133,0,0.25,0.067,0.35,0.2V-1.6C2.85-1.633,2.9-1.666,3-1.7
			c0.066,0,0.1-0.033,0.1-0.1c0-0.033-0.1-0.05-0.3-0.05C2.833-1.983,2.816-2.066,2.75-2.1H2.7z"/>
	</g>
</symbol>
<symbol  id="Symbol_39" viewBox="0 -1.178 0.9 1.185">
	<g id="Layer_1_36_">
		
			<radialGradient id="SVGID_29_" cx="0.8545" cy="-1.2964" r="0.0458" gradientTransform="matrix(1 0 0 -1 0 -2.5928)" gradientUnits="userSpaceOnUse">
			<stop  offset="0.0667" style="stop-color:#FFFFFF;stop-opacity:0.8"/>
			<stop  offset="1" style="stop-color:#FFFFFF;stop-opacity:0.8"/>
		</radialGradient>
		<path style="fill-rule:evenodd;clip-rule:evenodd;fill:url(#SVGID_29_);" d="M0.2-0.05c0.1,0.1,0.267,0.067,0.5-0.1
			C0.9-0.35,0.95-0.5,0.85-0.6C0.75-0.7,0.7-0.833,0.7-1c0-0.167-0.117-0.217-0.35-0.15C0.116-0.983,0-0.833,0-0.7
			C0-0.433,0.066-0.216,0.2-0.05z"/>
	</g>
</symbol>
<symbol  id="Symbol_4" viewBox="2.561 -219.75 341.522 268.467">
	<g id="Layer_34_1_">
		
			<use xlink:href="#Symbol_52"  width="1.784" height="2.949" x="-0.006" y="-2.952" transform="matrix(1 0 0 1 84.6001 -47.5)" style="overflow:visible;opacity:0.6719;"/>
	</g>
	<g id="Layer_33_1_">
		
			<use xlink:href="#Symbol_51"  width="2.162" height="1.064" y="-1.05" transform="matrix(1 0 0 1 115.6499 -54.75)" style="overflow:visible;opacity:0.8086;"/>
	</g>
	<g id="Layer_32_1_">
		
			<use xlink:href="#Symbol_50"  width="2.046" height="1.687" x="-0.012" y="-1.712" transform="matrix(1 0 0 1 187.1001 -19.8501)" style="overflow:visible;opacity:0.5313;"/>
	</g>
	<g id="Layer_31_1_">
		
			<use xlink:href="#Symbol_49"  width="3.56" height="2" x="0.02" y="-2" transform="matrix(1 0 0 1 210.1499 -4.7002)" style="overflow:visible;opacity:0.4219;"/>
	</g>
	<g id="Layer_30_1_">
		
			<use xlink:href="#Symbol_48"  width="2.7" height="2.1" x="0" y="-2.1" transform="matrix(1 0 0 1 315.5996 -62.7998)" style="overflow:visible;opacity:0.7695;"/>
	</g>
	<g id="Layer_29_1_">
		
			<use xlink:href="#Symbol_47"  width="2.98" height="1.857" x="-0.015" y="-1.867" transform="matrix(1 0 0 1 251.6001 24.1499)" style="overflow:visible;opacity:0.1797;"/>
	</g>
	<g id="Layer_28_1_">
		
			<use xlink:href="#Symbol_46"  width="2.55" height="3.061" y="-3.056" transform="matrix(1 0 0 1 268.75 -39.5498)" style="overflow:visible;opacity:0.7305;"/>
	</g>
	<g id="Layer_27_1_">
		
			<use xlink:href="#Symbol_45"  width="1.55" height="2" y="-2" transform="matrix(1 0 0 1 276.8496 -70.4502)" style="overflow:visible;opacity:0.8516;"/>
	</g>
	<g id="Layer_26_1_">
		
			<use xlink:href="#Symbol_44"  width="2.558" height="2.358" y="-2.358" transform="matrix(1 0 0 1 232.4502 0.1001)" style="overflow:visible;opacity:0.3594;"/>
	</g>
	<g id="Layer_25_1_">
		
			<use xlink:href="#Symbol_43"  width="3.333" height="2.918" x="0" y="-2.903" transform="matrix(1 0 0 1 162.6001 48.7002)" style="overflow:visible;opacity:0.0391;"/>
	</g>
	<g id="Layer_24_1_">
		
			<use xlink:href="#Symbol_42"  width="3.778" height="1.667" y="-1.65" transform="matrix(1 0 0 1 290.2002 -1.1499)" style="overflow:visible;opacity:0.2813;"/>
	</g>
	<g id="Layer_23_1_">
		
			<use xlink:href="#Symbol_41"  width="2.945" height="2.272" y="-2.25" transform="matrix(1 0 0 1 58.6001 -37)" style="overflow:visible;opacity:0.5898;"/>
	</g>
	<g id="Layer_22_1_">
		
			<use xlink:href="#Symbol_40"  width="3.573" height="2.4" x="0" y="-2.4" transform="matrix(1 0 0 1 81.75 -135.6001)" style="overflow:visible;opacity:0.5781;"/>
	</g>
	<g id="Layer_21_1_">
		
			<use xlink:href="#Symbol_39"  width="0.9" height="1.185" y="-1.178" transform="matrix(1 0 0 1 214.5 7.8501)" style="overflow:visible;opacity:0.1992;"/>
	</g>
	<g id="Layer_20_1_">
		
			<use xlink:href="#Symbol_38"  width="3.108" height="3.017" x="-0.008" y="-3.016" transform="matrix(0.1094 -0.9936 0.9936 0.1094 292.1504 -17.0498)" style="overflow:visible;opacity:0.4609;"/>
	</g>
	<g id="Layer_19_1_">
		
			<use xlink:href="#Symbol_37"  width="5.65" height="4.93" x="0" y="-4.923" transform="matrix(-0.4427 -0.8952 0.8952 -0.4427 226.6489 -35.9004)" style="overflow:visible;opacity:0.6484;"/>
	</g>
	<g id="Layer_18_1_">
		
			<use xlink:href="#Symbol_36"  width="1.464" height="1.778" x="-0.015" y="-1.778" transform="matrix(1 0 0 1 89.2998 -121.7998)" style="overflow:visible;opacity:0.6797;"/>
	</g>
	<g id="Layer_17_1_">
		
			<use xlink:href="#Symbol_35"  width="1.475" height="1.778" x="0.025" y="-1.778" transform="matrix(1 0 0 1 43 -112.3999)" style="overflow:visible;opacity:0.8398;"/>
	</g>
	<g id="Layer_16_1_">
		
			<use xlink:href="#Symbol_34"  width="2.028" height="1.688" x="0.022" y="-1.7" transform="matrix(1 0 0 1 332.4004 -58.5498)" style="overflow:visible;opacity:0.7695;"/>
	</g>
	<g id="Layer_15_1_">
		
			<use xlink:href="#Symbol_33"  width="3.56" height="2" x="0.02" y="-2" transform="matrix(1 0 0 1 337.7002 -156.8999)" style="overflow:visible;opacity:0.4609;"/>
	</g>
	<g id="Layer_14_1_">
		
			<use xlink:href="#Symbol_32"  width="3.29" height="2.991" x="-0.006" y="-3.013" transform="matrix(1 0 0 1 266.5498 -98.8999)" style="overflow:visible;opacity:0.8594;"/>
	</g>
	<g id="Layer_13_1_">
		
			<use xlink:href="#Symbol_31"  width="7.2" height="8.25" y="-8.25" transform="matrix(-0.7855 0.6163 -0.6163 -0.7855 209.9995 -129.9004)" style="overflow:visible;opacity:0.7813;"/>
	</g>
	<g id="Layer_12_1_">
		
			<use xlink:href="#Symbol_30"  width="2.061" height="1.687" x="0.022" y="-1.712" transform="matrix(1 0 0 1 342 -77.75)" style="overflow:visible;opacity:0.9102;"/>
	</g>
	<g id="Layer_11_2_">
		
			<use xlink:href="#Symbol_29"  width="3.592" height="2" x="0.011" y="-2" transform="matrix(1 0 0 1 142 -136.2998)" style="overflow:visible;opacity:0.6289;"/>
	</g>
	<g id="Layer_10_2_">
		
			<use xlink:href="#Symbol_28"  width="2.981" height="1.79" x="-0.015" y="-1.8" transform="matrix(1 0 0 1 330.7998 -217.9502)" style="overflow:visible;opacity:0.0313;"/>
	</g>
	<g id="Layer_9_2_">
		
			<use xlink:href="#Symbol_27"  width="2.55" height="3.106" y="-3.106" transform="matrix(1 0 0 1 337.0498 -174.8501)" style="overflow:visible;opacity:0.3203;"/>
	</g>
	<g id="Layer_8_2_">
		
			<use xlink:href="#Symbol_26"  width="1.55" height="1.941" x="0" y="-1.94" transform="matrix(1 0 0 1 66.9502 -163.2998)" style="overflow:visible;opacity:0.4102;"/>
	</g>
	<g id="Layer_7_2_">
		
			<use xlink:href="#Symbol_25"  width="3.29" height="2.978" y="-2.995" transform="matrix(1 0 0 1 304.3496 -205.5996)" style="overflow:visible;opacity:0.1602;"/>
	</g>
	<g id="Layer_6_3_">
		
			<use xlink:href="#Symbol_24"  width="5.65" height="4.907" x="0" y="-4.899" transform="matrix(0.9673 0.2506 -0.2506 0.9673 200.7505 -193.25)" style="overflow:visible;opacity:0.0703;"/>
	</g>
	<g id="Layer_5_3_">
		
			<use xlink:href="#Symbol_23"  width="5.65" height="4.93" x="0" y="-4.922" transform="matrix(-0.9954 -0.0924 0.0924 -0.9954 42.2017 -100.2002)" style="overflow:visible;opacity:0.9609;"/>
	</g>
	<g id="Layer_4_3_">
		
			<use xlink:href="#Symbol_22"  width="5.65" height="4.93" x="0" y="-4.923" transform="matrix(0.7227 0.6888 -0.6888 0.7227 1.5005 -191.8501)" style="overflow:visible;opacity:0.2383;"/>
	</g>
	<g id="Layer_3_3_">
		
			<use xlink:href="#Symbol_21"  width="2.55" height="3.1" x="0" y="-3.1" transform="matrix(1 0 0 1 57.2002 -132.25)" style="overflow:visible;opacity:0.6602;"/>
	</g>
	<g id="Layer_2_4_">
		
			<use xlink:href="#Symbol_20"  width="3.925" height="3.431" x="0" y="-3.456" transform="matrix(1 0 0 1 129.5498 -154)" style="overflow:visible;opacity:0.5117;"/>
	</g>
</symbol>
<symbol  id="Symbol_40" viewBox="0 -2.4 3.573 2.4">
	<g id="Layer_1_37_">
		
			<radialGradient id="SVGID_30_" cx="1.7505" cy="-1.2002" r="1.5001" gradientTransform="matrix(1 0 0 -1 0 -2.4004)" gradientUnits="userSpaceOnUse">
			<stop  offset="0.0667" style="stop-color:#FFFFFF;stop-opacity:0.8"/>
			<stop  offset="1" style="stop-color:#FFFFFF;stop-opacity:0.8"/>
		</radialGradient>
		<path style="fill-rule:evenodd;clip-rule:evenodd;fill:url(#SVGID_30_);" d="M3.05-1.875v0.025L3-1.9L3.05-1.875z M0.65-0.1
			c0.233-0.066,0.467-0.15,0.7-0.25l0.475-0.275C2.193-0.728,2.602-0.936,3.05-1.25c0.6-0.4,0.684-0.6,0.25-0.6h-0.2L3.05-1.875
			C3.017-1.956,3-2.098,3-2.3c-0.067-0.067-0.15-0.1-0.25-0.1c-0.333,0-0.8,0.133-1.4,0.4c-0.5,0.2-0.884,0.45-1.15,0.75
			C0.067-1.05,0-0.667,0-0.1C0,0.033,0.217,0.033,0.65-0.1z"/>
	</g>
</symbol>
<symbol  id="Symbol_41" viewBox="0 -2.25 2.945 2.272">
	<g id="Layer_1_38_">
		
			<radialGradient id="SVGID_31_" cx="1.5" cy="-1.0996" r="1.3" gradientTransform="matrix(1 0 0 -1 0 -2.1992)" gradientUnits="userSpaceOnUse">
			<stop  offset="0.0667" style="stop-color:#FFFFFF;stop-opacity:0.8"/>
			<stop  offset="1" style="stop-color:#FFFFFF;stop-opacity:0.8"/>
		</radialGradient>
		<path style="fill-rule:evenodd;clip-rule:evenodd;fill:url(#SVGID_31_);" d="M2.6-0.25L2.9-0.8C3-1.2,2.934-1.55,2.7-1.85
			c-0.233-0.233-0.55-0.367-0.95-0.4C1.117-2.25,0.534-2.033,0-1.6l0.25,0.4l0.15,0.8l0.1,0.2L0.55,0
			C1.05,0.067,1.733-0.016,2.6-0.25z"/>
	</g>
</symbol>
<symbol  id="Symbol_42" viewBox="0 -1.65 3.778 1.667">
	<g id="Layer_1_39_">
		
			<radialGradient id="SVGID_32_" cx="1.8496" cy="-0.8003" r="1.4375" gradientTransform="matrix(1 0 0 -1 0 -1.6006)" gradientUnits="userSpaceOnUse">
			<stop  offset="0.0667" style="stop-color:#FFFFFF;stop-opacity:0.8"/>
			<stop  offset="1" style="stop-color:#FFFFFF;stop-opacity:0.8"/>
		</radialGradient>
		<path style="fill-rule:evenodd;clip-rule:evenodd;fill:url(#SVGID_32_);" d="M2.525-0.55c0.441-0.091,0.8-0.275,1.075-0.55
			C3.966-1.467,3.767-1.65,3-1.65H1.9c-0.367,0-0.817,0.1-1.35,0.3C0.183-1.184,0-1,0-0.8v0.55C0-0.084,0.15,0,0.45,0
			c0.233,0.034,0.567,0.017,1-0.05C1.98-0.205,2.339-0.372,2.525-0.55z"/>
	</g>
</symbol>
<symbol  id="Symbol_43" viewBox="0 -2.903 3.333 2.918">
	<g id="Layer_1_40_">
		
			<radialGradient id="SVGID_33_" cx="1.6504" cy="-1.4502" r="1.5625" gradientTransform="matrix(1 0 0 -1 0 -2.9004)" gradientUnits="userSpaceOnUse">
			<stop  offset="0.0667" style="stop-color:#FFFFFF;stop-opacity:0.8"/>
			<stop  offset="1" style="stop-color:#FFFFFF;stop-opacity:0.8"/>
		</radialGradient>
		<path style="fill-rule:evenodd;clip-rule:evenodd;fill:url(#SVGID_33_);" d="M2.55-0.5C2.817-0.7,3.034-0.934,3.2-1.2
			c0.134-0.267,0.167-0.45,0.1-0.55l-0.75-0.5c-0.2-0.167-0.3-0.316-0.3-0.45C2.217-3,1.834-2.967,1.101-2.6
			C0.767-2.4,0.5-2.167,0.3-1.9C0.101-1.6,0-1.4,0-1.3c0.033,0.267,0.183,0.5,0.45,0.7c0.167,0.133,0.4,0.317,0.7,0.55
			C1.351,0.117,1.817-0.033,2.55-0.5z"/>
	</g>
</symbol>
<symbol  id="Symbol_44" viewBox="0 -2.358 2.558 2.358">
	<g id="Layer_1_41_">
		
			<radialGradient id="SVGID_34_" cx="1.25" cy="-1.1499" r="1.225" gradientTransform="matrix(1 0 0 -1 0 -2.2998)" gradientUnits="userSpaceOnUse">
			<stop  offset="0.0667" style="stop-color:#FFFFFF;stop-opacity:0.8"/>
			<stop  offset="1" style="stop-color:#FFFFFF;stop-opacity:0.8"/>
		</radialGradient>
		<path style="fill-rule:evenodd;clip-rule:evenodd;fill:url(#SVGID_34_);" d="M0.55,0L0.9-0.15l1.45-1.3
			C2.517-1.683,2.583-1.8,2.55-1.8C2.184-1.8,2-1.983,2-2.35c0-0.033-0.117,0.033-0.35,0.2L0.2-0.9C0.066-0.733,0-0.617,0-0.55
			C0-0.183,0.184,0,0.55,0z"/>
	</g>
</symbol>
<symbol  id="Symbol_45" viewBox="0 -2 1.55 2">
	<g id="Layer_1_42_">
		
			<radialGradient id="SVGID_35_" cx="0.7998" cy="-1" r="0.875" gradientTransform="matrix(1 0 0 -1 0 -2)" gradientUnits="userSpaceOnUse">
			<stop  offset="0.0667" style="stop-color:#FFFFFF;stop-opacity:0.8"/>
			<stop  offset="1" style="stop-color:#FFFFFF;stop-opacity:0.8"/>
		</radialGradient>
		<path style="fill-rule:evenodd;clip-rule:evenodd;fill:url(#SVGID_35_);" d="M0-0.3C0-0.133,0.117-0.034,0.35,0
			c0.2,0,0.367-0.034,0.5-0.1c0.466-0.2,0.7-0.5,0.7-0.9v-0.7c0-0.167-0.1-0.267-0.3-0.3c-0.2,0-0.367,0.033-0.5,0.1
			C0.25-1.7,0-1.4,0-1V-0.3z"/>
	</g>
</symbol>
<symbol  id="Symbol_46" viewBox="0 -3.056 2.55 3.061">
	<g id="Layer_1_43_">
		
			<radialGradient id="SVGID_36_" cx="1.25" cy="-1.5" r="1.4125" gradientTransform="matrix(1 0 0 -1 0 -3)" gradientUnits="userSpaceOnUse">
			<stop  offset="0.0667" style="stop-color:#FFFFFF;stop-opacity:0.8"/>
			<stop  offset="1" style="stop-color:#FFFFFF;stop-opacity:0.8"/>
		</radialGradient>
		<path style="fill-rule:evenodd;clip-rule:evenodd;fill:url(#SVGID_36_);" d="M0-1.2c0,0.333,0.1,0.617,0.3,0.85
			C0.5-0.083,0.784,0.033,1.15,0C1.483,0,1.8-0.133,2.1-0.4c0.3-0.267,0.45-0.566,0.45-0.9v-0.55c0-0.333-0.1-0.617-0.3-0.85
			C2.017-2.967,1.733-3.083,1.4-3.05c-0.333,0-0.65,0.133-0.95,0.4C0.15-2.383,0-2.083,0-1.75V-1.2z"/>
	</g>
</symbol>
<symbol  id="Symbol_47" viewBox="-0.015 -1.867 2.98 1.857">
	<g id="Layer_1_44_">
		
			<radialGradient id="SVGID_37_" cx="1.4995" cy="-0.9502" r="1.2375" gradientTransform="matrix(1 0 0 -1 0 -1.9004)" gradientUnits="userSpaceOnUse">
			<stop  offset="0.0667" style="stop-color:#FFFFFF;stop-opacity:0.8"/>
			<stop  offset="1" style="stop-color:#FFFFFF;stop-opacity:0.8"/>
		</radialGradient>
		<path style="fill-rule:evenodd;clip-rule:evenodd;fill:url(#SVGID_37_);" d="M0-1.3c-0.066,0.066,0.1,0.216,0.5,0.45
			c0.167,0.133,0.367,0.267,0.6,0.4L2-0.1C2.233,0,2.383,0.017,2.45-0.05l0.5-0.55c0.1-0.1-0.267-0.367-1.1-0.8L1-1.8
			C0.766-1.867,0.616-1.883,0.55-1.85L0-1.3z"/>
	</g>
</symbol>
<symbol  id="Symbol_48" viewBox="0 -2.1 2.7 2.1">
	<g id="Layer_1_45_">
		
			<radialGradient id="SVGID_38_" cx="1.3506" cy="-1.0498" r="1.2" gradientTransform="matrix(1 0 0 -1 0 -2.0996)" gradientUnits="userSpaceOnUse">
			<stop  offset="0.0667" style="stop-color:#FFFFFF;stop-opacity:0.8"/>
			<stop  offset="1" style="stop-color:#FFFFFF;stop-opacity:0.8"/>
		</radialGradient>
		<path style="fill-rule:evenodd;clip-rule:evenodd;fill:url(#SVGID_38_);" d="M1.601-2.1c-0.5,0-1.034,0.083-1.6,0.25v1.6
			C0-0.083,0.45,0,1.351,0C2.25-0.033,2.7-0.133,2.7-0.3v-0.5L1.65-2.05L1.601-2.1z"/>
	</g>
</symbol>
<symbol  id="Symbol_49" viewBox="0.02 -2 3.56 2">
	<g id="Layer_1_46_">
		
			<radialGradient id="SVGID_39_" cx="1.8003" cy="-1" r="1.4374" gradientTransform="matrix(1 0 0 -1 0 -2)" gradientUnits="userSpaceOnUse">
			<stop  offset="0.0667" style="stop-color:#FFFFFF;stop-opacity:0.8"/>
			<stop  offset="1" style="stop-color:#FFFFFF;stop-opacity:0.8"/>
		</radialGradient>
		<path style="fill-rule:evenodd;clip-rule:evenodd;fill:url(#SVGID_39_);" d="M2.15-2C1.784-2,1.367-1.866,0.9-1.6
			c-0.333,0.167-0.6,0.417-0.8,0.75C-0.033-0.583,0-0.366,0.2-0.2C0.334-0.066,0.634,0,1.101,0h0.35C1.817,0,2.234-0.133,2.7-0.4
			c0.4-0.2,0.667-0.45,0.8-0.75c0.133-0.267,0.1-0.483-0.1-0.65C3.267-1.933,2.967-2,2.5-2H2.15z"/>
	</g>
</symbol>
<symbol  id="Symbol_5" viewBox="-0.02 -84.596 116.695 84.605">
	<g id="Layer_1_12_">
		
			<radialGradient id="SVGID_40_" cx="-436.7148" cy="-707.1709" r="58.4396" gradientTransform="matrix(0.9967 -0.0813 -0.0462 -0.7185 460.9312 -585.8853)" gradientUnits="userSpaceOnUse">
			<stop  offset="0.2078" style="stop-color:#FFFFFF;stop-opacity:0.898"/>
			<stop  offset="0.9647" style="stop-color:#FFFFFF;stop-opacity:0"/>
		</radialGradient>
		<path style="fill-rule:evenodd;clip-rule:evenodd;fill:url(#SVGID_40_);" d="M97.6-75.35c-11.9-7.267-25.9-10.25-42-8.95
			c-16.1,1.333-29.566,6.55-40.4,15.65C4.366-59.517-0.684-49.15,0.05-37.55S7.1-16.517,19-9.25C30.933-1.95,44.933,1.033,61-0.3
			c16.1-1.3,29.583-6.517,40.45-15.65s15.917-19.5,15.15-31.1C115.866-58.65,109.533-68.083,97.6-75.35z"/>
	</g>
</symbol>
<symbol  id="Symbol_50" viewBox="-0.012 -1.712 2.046 1.687">
	<g id="Layer_1_47_">
		
			<radialGradient id="SVGID_41_" cx="1" cy="-0.8999" r="0.925" gradientTransform="matrix(1 0 0 -1 0 -1.7998)" gradientUnits="userSpaceOnUse">
			<stop  offset="0.0667" style="stop-color:#FFFFFF;stop-opacity:0.8"/>
			<stop  offset="1" style="stop-color:#FFFFFF;stop-opacity:0.8"/>
		</radialGradient>
		<path style="fill-rule:evenodd;clip-rule:evenodd;fill:url(#SVGID_41_);" d="M0-1.05c-0.033,0.167,0,0.333,0.1,0.5
			c0.1,0.133,0.233,0.2,0.4,0.2L0.6-0.3L0.55-0.35l0.1,0.05L0.7-0.25c0.3,0.3,0.617,0.3,0.95,0C1.817-0.35,1.934-0.5,2-0.7
			c0.067-0.233,0.034-0.4-0.1-0.5C1.567-1.533,1.217-1.7,0.85-1.7C0.417-1.767,0.134-1.55,0-1.05z"/>
	</g>
</symbol>
<symbol  id="Symbol_51" viewBox="0 -1.05 2.162 1.064">
	<g id="Layer_1_48_">
		
			<radialGradient id="SVGID_42_" cx="1.1001" cy="-0.4995" r="0.8375" gradientTransform="matrix(1 0 0 -1 0 -0.999)" gradientUnits="userSpaceOnUse">
			<stop  offset="0.0667" style="stop-color:#FFFFFF;stop-opacity:0.8"/>
			<stop  offset="1" style="stop-color:#FFFFFF;stop-opacity:0.8"/>
		</radialGradient>
		<path style="fill-rule:evenodd;clip-rule:evenodd;fill:url(#SVGID_42_);" d="M0-0.399c0,0.167,0.184,0.283,0.55,0.35
			c0.333,0.1,0.5,0.083,0.5-0.05c0.033-0.3,0.3-0.45,0.8-0.45c0.3,0,0.383-0.066,0.25-0.2c-0.133-0.2-0.367-0.3-0.7-0.3
			C0.5-1.05,0.034-0.833,0-0.399z"/>
	</g>
</symbol>
<symbol  id="Symbol_52" viewBox="-0.006 -2.952 1.784 2.949">
	<g id="Layer_1_49_">
		
			<radialGradient id="SVGID_43_" cx="0.8999" cy="-1.4497" r="1.175" gradientTransform="matrix(1 0 0 -1 0 -2.8994)" gradientUnits="userSpaceOnUse">
			<stop  offset="0.0667" style="stop-color:#FFFFFF;stop-opacity:0.8"/>
			<stop  offset="1" style="stop-color:#FFFFFF;stop-opacity:0.8"/>
		</radialGradient>
		<path style="fill-rule:evenodd;clip-rule:evenodd;fill:url(#SVGID_43_);" d="M0.15-1.05c0.633,1,1.1,1.284,1.4,0.85
			c0.267-0.4,0.3-1.083,0.1-2.05c-0.167-0.8-0.533-0.917-1.1-0.35C-0.017-2.033-0.15-1.516,0.15-1.05z"/>
	</g>
</symbol>
<symbol  id="Symbol_6" viewBox="0.02 -83.328 115.518 83.307">
	<g id="Layer_1_13_">
		
			<radialGradient id="SVGID_44_" cx="782.3086" cy="493.0186" r="57.7837" gradientTransform="matrix(0.9975 0.0706 0.063 -0.7172 -753.6348 256.7393)" gradientUnits="userSpaceOnUse">
			<stop  offset="0.2078" style="stop-color:#FFFFFF;stop-opacity:0.898"/>
			<stop  offset="0.9647" style="stop-color:#FFFFFF;stop-opacity:0"/>
		</radialGradient>
		<path style="fill-rule:evenodd;clip-rule:evenodd;fill:url(#SVGID_44_);" d="M54.149-0.25C70.083,0.883,84.016-2.2,95.95-9.5
			c11.966-7.3,18.45-16.667,19.45-28.1c1.034-11.434-3.733-21.6-14.3-30.5c-10.533-8.867-23.75-13.867-39.65-15
			c-15.934-1.134-29.867,1.95-41.8,9.25c-11.966,7.267-18.466,16.633-19.5,28.1c-1,11.434,3.784,21.6,14.35,30.5
			C25.033-6.383,38.25-1.383,54.149-0.25z"/>
	</g>
</symbol>
<symbol  id="Symbol_7" viewBox="-0.006 -99.665 138.163 99.68">
	<g id="Layer_1_14_">
		
			<radialGradient id="SVGID_45_" cx="792.6934" cy="484.0762" r="69.0693" gradientTransform="matrix(0.9975 0.0706 0.063 -0.7171 -752.1172 241.3818)" gradientUnits="userSpaceOnUse">
			<stop  offset="0.2078" style="stop-color:#FFFFFF;stop-opacity:0.898"/>
			<stop  offset="0.9647" style="stop-color:#FFFFFF;stop-opacity:0"/>
		</radialGradient>
		<path style="fill-rule:evenodd;clip-rule:evenodd;fill:url(#SVGID_45_);" d="M114.75-11.35c14.3-8.733,22.05-19.933,23.25-33.6
			c1.2-13.667-4.5-25.816-17.1-36.45c-12.6-10.667-28.417-16.667-47.45-18c-19.033-1.333-35.716,2.367-50.05,11.1
			c-14.3,8.733-22.05,19.933-23.25,33.6c-1.2,13.7,4.5,25.867,17.1,36.5C29.851-7.6,45.667-1.617,64.7-0.25
			C83.734,1.083,100.417-2.617,114.75-11.35z"/>
	</g>
</symbol>
<symbol  id="Symbol_8" viewBox="0.02 -83.328 115.518 83.307">
	<g id="Layer_1_15_">
		
			<radialGradient id="SVGID_46_" cx="782.3086" cy="493.0186" r="57.7837" gradientTransform="matrix(0.9975 0.0706 0.063 -0.7172 -753.6348 256.7393)" gradientUnits="userSpaceOnUse">
			<stop  offset="0.2078" style="stop-color:#FFFFFF;stop-opacity:0.898"/>
			<stop  offset="0.9647" style="stop-color:#FFFFFF;stop-opacity:0"/>
		</radialGradient>
		<path style="fill-rule:evenodd;clip-rule:evenodd;fill:url(#SVGID_46_);" d="M101.1-68.1c-10.533-8.867-23.75-13.867-39.65-15
			c-15.934-1.133-29.867,1.95-41.8,9.25c-11.966,7.267-18.466,16.633-19.5,28.1c-1,11.434,3.784,21.6,14.35,30.5
			c10.534,8.867,23.75,13.867,39.65,15C70.083,0.883,84.016-2.2,95.95-9.5c11.966-7.3,18.45-16.667,19.45-28.1
			C116.433-49.033,111.666-59.2,101.1-68.1z"/>
	</g>
</symbol>
<symbol  id="Symbol_9" viewBox="-0.001 -97.22 134.853 97.241">
	<g id="Layer_1_16_">
		
			<radialGradient id="SVGID_47_" cx="791.8809" cy="484.5215" r="67.4586" gradientTransform="matrix(0.9975 0.0704 0.063 -0.7171 -753.0215 243.0732)" gradientUnits="userSpaceOnUse">
			<stop  offset="0.2078" style="stop-color:#FFFFFF;stop-opacity:0.898"/>
			<stop  offset="0.9647" style="stop-color:#FFFFFF;stop-opacity:0"/>
		</radialGradient>
		<path style="fill-rule:evenodd;clip-rule:evenodd;fill:url(#SVGID_47_);" d="M16.85-17.75C29.15-7.383,44.6-1.55,63.2-0.25
			c18.566,1.333,34.833-2.267,48.8-10.8c13.967-8.5,21.534-19.433,22.7-32.8s-4.4-25.233-16.7-35.6
			c-12.3-10.367-27.733-16.2-46.3-17.5c-18.6-1.333-34.883,2.267-48.85,10.8c-13.966,8.5-21.533,19.433-22.7,32.8
			C-1.017-39.983,4.55-28.116,16.85-17.75z"/>
	</g>
</symbol>
<use xlink:href="#Symbol_2"  width="452.389" height="245.728" x="-34.001" y="-233.25" transform="matrix(1 0 0 -1 80.8501 75.0498)" style="overflow:visible;"/>
<use xlink:href="#Symbol_1"  width="254.97" height="141.646" x="-0.001" y="-129.328" transform="matrix(1 0 0 -1 159.25 135.9502)" style="overflow:visible;"/>
<use xlink:href="#Symbol_4"  width="341.522" height="268.467" x="2.561" y="-219.75" transform="matrix(1 0 0 -1 99.5 115.4502)" style="overflow:visible;"/>
</svg>
