<?xml version="1.0" encoding="iso-8859-1"?>
<!-- Generator: Adobe Illustrator 15.1.0, SVG Export Plug-In . SVG Version: 6.00 Build 0)  -->
<!DOCTYPE svg PUBLIC "-//W3C//DTD SVG 1.1//EN" "http://www.w3.org/Graphics/SVG/1.1/DTD/svg11.dtd">
<svg version="1.1" id="Layer_1" xmlns="http://www.w3.org/2000/svg" xmlns:xlink="http://www.w3.org/1999/xlink" x="0px" y="0px"
	 width="159.1px" height="421.35px" viewBox="0 0 159.1 421.35" style="enable-background:new 0 0 159.1 421.35;"
	 xml:space="preserve">
<g>
	<g>
		
			<linearGradient id="SVGID_1_" gradientUnits="userSpaceOnUse" x1="66.8574" y1="222.1328" x2="124.4542" y2="222.1328" gradientTransform="matrix(0.9988 0.0499 -0.0499 0.9988 -8.882210e-005 3.287159e-004)">
			<stop  offset="0" style="stop-color:#FFFFFF;stop-opacity:0.6275"/>
			<stop  offset="0.2627" style="stop-color:#FDFDFD;stop-opacity:0.6235"/>
			<stop  offset="0.4" style="stop-color:#F5F5F5;stop-opacity:0.6118"/>
			<stop  offset="0.5098" style="stop-color:#E7E7E7;stop-opacity:0.5882"/>
			<stop  offset="0.6039" style="stop-color:#D4D4D4;stop-opacity:0.5569"/>
			<stop  offset="0.6863" style="stop-color:#BCBCBC;stop-opacity:0.5137"/>
			<stop  offset="0.7647" style="stop-color:#9D9D9D;stop-opacity:0.4627"/>
			<stop  offset="0.8353" style="stop-color:#797979;stop-opacity:0.4"/>
			<stop  offset="0.902" style="stop-color:#4F4F4F;stop-opacity:0.3294"/>
			<stop  offset="0.9608" style="stop-color:#202020;stop-opacity:0.251"/>
			<stop  offset="1" style="stop-color:#000000;stop-opacity:0.2"/>
		</linearGradient>
		<path style="fill-rule:evenodd;clip-rule:evenodd;fill:url(#SVGID_1_);" d="M80,47.75c10.667-0.967,18.783-1.217,24.35-0.75
			c0.733,0.066,1.768,1.083,3.101,3.05c1.333,2,2.366,3.017,3.1,3.05c0.067,4.367,0.033,8.1-0.1,11.2
			c-0.101,6.567-0.367,12.134-0.8,16.7l-1.2,12.75c-0.233,2.1-0.783,5.217-1.65,9.35c-0.8,3.833-1.316,6.966-1.55,9.4l-0.4,5.9
			c-0.1,2.333-0.267,5.683-0.5,10.05c-0.166,3.8-0.232,7.167-0.199,10.1c0,4.067-0.4,9.05-1.2,14.95c0,4.967-0.066,8.667-0.2,11.1
			c-0.1,2.167-0.167,5.133-0.2,8.9c0,4.2-0.033,7.15-0.1,8.85c-0.101,3.066-0.417,6.267-0.95,9.6c-0.1,0.566-0.684,3.633-1.75,9.2
			l-1.15,5.45c-0.533,4.567-0.85,8.083-0.949,10.55c-0.367,8.899-1.117,19.783-2.25,32.649c-0.634,7.233-1.617,18.083-2.95,32.55
			C92.384,293.283,92,302.8,91.3,310.9c-0.2,2.233-0.583,5.716-1.149,10.449c-0.533,4.5-0.9,7.967-1.101,10.4v0.45
			c-0.433,9.133-0.967,16.6-1.6,22.399c-0.3,2.601-0.566,6.317-0.8,11.15c-0.233,5.3-0.45,9.05-0.65,11.25
			c-0.467,5.6-0.684,11.417-0.65,17.45c0,3.033-0.116,5.7-0.35,8c-0.4,3.733-1.033,5.267-1.9,4.6c-0.866,0.667-1.5-0.866-1.899-4.6
			c-0.233-2.3-0.351-4.967-0.351-8c0-6.7-0.232-12.517-0.699-17.45c-0.167-2.1-0.367-5.85-0.601-11.25
			c-0.233-4.767-0.5-8.483-0.8-11.15c-0.6-5.233-1.133-12.699-1.6-22.399c-0.133-2.934-0.45-7.45-0.95-13.55
			c-0.5-5.9-0.817-10.4-0.95-13.5c-0.433-9.601-1.566-24.268-3.4-44c-1.8-19.268-2.9-33.934-3.3-44c-0.1-2.601-0.433-6.351-1-11.25
			c-0.566-4.933-0.917-8.683-1.05-11.25c-0.566-13.733-1.25-24.317-2.05-31.75c-0.7-5.4-1.217-9.417-1.55-12.05
			c-0.566-4.667-0.85-8.767-0.85-12.3c0-3.5-0.25-10.217-0.75-20.15c-0.267-6.2-0.417-9.55-0.45-10.05
			c-0.2-3.733-0.483-7.083-0.85-10.05c-0.333-2.9-0.983-7.583-1.95-14.05c-0.9-6-1.533-10.684-1.9-14.05
			c-0.333-3.034-0.517-6.583-0.55-10.65c0-0.933,0.017-4.517,0.05-10.75C60.783,49.1,68.9,48.75,80,47.75z"/>
		<linearGradient id="SVGID_2_" gradientUnits="userSpaceOnUse" x1="78.5874" y1="368.2002" x2="85.0124" y2="368.2002">
			<stop  offset="0" style="stop-color:#FFFFFF;stop-opacity:0.6275"/>
			<stop  offset="1" style="stop-color:#FFFFFF;stop-opacity:0.2"/>
		</linearGradient>
		<path style="fill-rule:evenodd;clip-rule:evenodd;fill:url(#SVGID_2_);" d="M80.3,339.05c0.2,1.033,0.283,1.9,0.25,2.601
			c0,1.1,0.033,1.767,0.101,2c0.133,0.533,0.55,1.017,1.25,1.449c0.566,0.334,1.25,0.733,2.05,1.2c0.467,0.434,0.467,1.101,0,2
			c-0.101,0.2-0.283,0.467-0.55,0.8c-0.233,0.267-0.384,0.534-0.45,0.801c-0.066,0.366-0.05,0.966,0.05,1.8
			c-0.033,0.434-0.133,1.05-0.3,1.85c-0.101,0.733-0.117,1.367-0.05,1.9c0.066,0.434,0.133,0.983,0.199,1.649
			c0.034,0.534-0.149,1.051-0.55,1.551c-0.267,0.366-0.583,0.783-0.95,1.25c-0.232,0.399-0.383,0.899-0.449,1.5
			c-0.101,0.933,0.116,1.517,0.649,1.75c0.233,0.133,0.934,0.233,2.101,0.3c0.033,0.733,0.033,1.2,0,1.399
			c-0.067,0.434-0.283,0.834-0.65,1.2c-0.267,0.3-0.65,0.601-1.15,0.9c-0.333,0.267-0.533,0.684-0.6,1.25
			c-0.066,0.6,0.083,1.05,0.45,1.35c0.467,0.434,0.75,0.783,0.85,1.05c0.167,0.434,0.15,0.884-0.05,1.351
			c-0.133,0.233-0.35,0.616-0.65,1.149c-0.333,0.9-0.366,1.834-0.1,2.801c0.167,0.6,0.483,1.483,0.95,2.649
			c0.167,0.5,0.35,1.434,0.55,2.8c0.267,1.067,0.85,1.534,1.75,1.4c0.066,0.434-0.1,0.967-0.5,1.6c-0.5,0.801-0.783,1.301-0.85,1.5
			c-0.134,0.534-0.184,1.334-0.15,2.4c0.033,0.566,0.083,1.366,0.15,2.4c0,0.566-0.101,2.233-0.301,5c-0.066,2.566,0.15,4,0.65,4.3
			l-1.7-0.7c-0.033-0.333,0-0.75,0.101-1.25c0.166-0.7,0.25-1.116,0.25-1.25c0.066-0.467,0.083-1.083,0.05-1.85
			c-0.033-0.834-0.05-1.45-0.05-1.851c0-2.434-0.15-4.899-0.45-7.399c-0.134-1.4-0.217-2.2-0.25-2.4
			c-0.134-0.9-0.333-1.667-0.601-2.3c-0.3-0.566-0.517-1-0.649-1.3c-0.267-0.534-0.434-1.017-0.5-1.45
			c-0.233-1.601-0.351-3.684-0.351-6.25c0-8.233-0.1-13.983-0.3-17.25c-0.2-2.334-0.35-4.066-0.45-5.2
			c-0.166-2.066-0.25-3.8-0.25-5.2c-0.167-1.7-0.25-3.1-0.25-4.2c0-2.033,0.4-3.25,1.2-3.649C79.833,336.583,80,337.45,80.3,339.05z
			"/>
		<linearGradient id="SVGID_3_" gradientUnits="userSpaceOnUse" x1="70.5186" y1="234.4199" x2="91.1504" y2="234.4199">
			<stop  offset="0" style="stop-color:#FFFFFF;stop-opacity:0.6275"/>
			<stop  offset="1" style="stop-color:#FFFFFF;stop-opacity:0.2"/>
		</linearGradient>
		<path style="fill-rule:evenodd;clip-rule:evenodd;fill:url(#SVGID_3_);" d="M79.05,215.4c-0.1,0.5-0.4,1.066-0.9,1.699
			c-0.4,0.533-0.633,1.101-0.7,1.7c0,0.067,0,0.75,0,2.05c0,0.334-0.034,0.917-0.1,1.75c-0.067,0.801-0.033,1.384,0.1,1.75
			c0.167,0.567,0.75,1.117,1.75,1.65c0.967,0.566,1.55,1.167,1.75,1.8c0.066,0.233,0.149,1.367,0.25,3.4
			c0.066,1.267,0.566,2.3,1.5,3.1c0.934,0.733,2.3,1.101,4.1,1.101c2.834,0.033,4.283,0.05,4.351,0.05
			c0,0.933-1.051,1.483-3.15,1.649c-2.467,0.2-3.816,0.4-4.05,0.601c-0.434,0.366-0.75,1.033-0.95,2c-0.267,1.2-0.467,1.933-0.6,2.2
			c-0.667,1.3-1.033,2.066-1.101,2.3c-0.2,0.833,0.017,1.583,0.65,2.25c0.5,0.5,1.399,0.883,2.7,1.149
			c1.333,0.268,2.183,0.551,2.55,0.851c-0.101,0.5-0.583,0.833-1.45,1c-1.033,0.233-1.65,0.45-1.85,0.649
			c-0.233,0.233-0.384,0.667-0.45,1.301c-0.066,0.333-0.117,0.8-0.15,1.399c-0.033,0.601,0,1.617,0.101,3.05
			c-0.067,1.134-0.567,1.801-1.5,2c-1.667,0.334-3.017-0.267-4.05-1.8c-0.8-1.2-1.267-2.667-1.4-4.399
			c-0.034-0.268-0.017-0.733,0.05-1.4c0.033-0.633,0.017-1.1-0.05-1.4c-0.1-0.467-0.483-0.967-1.15-1.5
			c-0.667-0.5-1.083-1.017-1.25-1.55c-0.233-0.767-0.267-1.983-0.1-3.649c0.167-1.7,0.167-2.917,0-3.65
			c-0.434-1.934-0.65-4.8-0.65-8.6c0-1.934-0.216-4.768-0.65-8.5c-0.466-3.733-0.7-6.551-0.7-8.45l-0.525-0.775
			c0.349,0.128,0.807,0.22,1.375,0.275c0.934,0.1,2.167,0.133,3.7,0.1c3.233,0.333,5.45,0.283,6.65-0.149
			c-0.467,0.467-1.084,0.732-1.851,0.8c-0.899,0.033-1.6,0.083-2.1,0.149C79.1,214.684,79.05,215.367,79.05,215.4z M71.425,212.175
			c-0.716-0.272-1.008-0.698-0.875-1.275L71.425,212.175z"/>
		<linearGradient id="SVGID_4_" gradientUnits="userSpaceOnUse" x1="76.3955" y1="297.2285" x2="88.7205" y2="297.2285">
			<stop  offset="0" style="stop-color:#FFFFFF;stop-opacity:0.6275"/>
			<stop  offset="1" style="stop-color:#FFFFFF;stop-opacity:0.2"/>
		</linearGradient>
		<path style="fill-rule:evenodd;clip-rule:evenodd;fill:url(#SVGID_4_);" d="M81.6,262.3l2.051-1.05
			c0.433,0.4,1.233,0.566,2.399,0.5c1.533-0.133,2.434-0.167,2.7-0.1c-0.333,0.533-0.917,1.166-1.75,1.899
			c-0.767,0.667-1.467,1.184-2.1,1.55c-0.667,0.4-1.483,0.667-2.45,0.801c-1.101,0.1-1.95,0.183-2.55,0.25
			c0.3,0.467,0.967,0.933,2,1.399c1.3,0.601,2.1,1.017,2.399,1.25c-0.433,0.333-1.083,0.483-1.95,0.45
			c-1.366-0.033-2.066-0.05-2.1-0.05c-0.167,1.3,0,2.483,0.5,3.55c0.167,0.367,0.8,1.367,1.9,3c0.1,0.167,0.3,0.533,0.6,1.1
			c0.3,0.5,0.55,0.801,0.75,0.9c0.333,0.2,1.017,0.233,2.05,0.1c0.967-0.133,1.667-0.017,2.101,0.351
			c-0.533,1.5-1.317,2.533-2.351,3.1c-0.467,0.267-1.366,0.4-2.7,0.4c-1.267,0.033-2.083,0.217-2.449,0.55
			c0.467,0.467,1.233,0.75,2.3,0.85c1.233,0.134,2.05,0.317,2.45,0.551c-0.334,0.767-1.017,1.217-2.051,1.35
			c-1.133,0.1-1.85,0.367-2.149,0.8c0.267,1.033,1.116,1.65,2.55,1.851c0.767,0.133,1.9,0.199,3.4,0.199
			c-0.334,1.067-1.051,1.617-2.15,1.65c-1.6,0.033-2.583,0.133-2.95,0.3c0.067,0.434,0.317,0.967,0.75,1.601
			c0.434,0.699,0.7,1.232,0.8,1.6c0.101,0.367,0.134,0.9,0.101,1.6c-0.066,0.801-0.083,1.334-0.05,1.601
			c0.166,1.3,0.783,1.983,1.85,2.05c1.566,0.134,2.533,0.333,2.9,0.6c-0.601,1.667-1.467,2.934-2.601,3.801l-2.1,1.149
			c-1,0.533-1.566,1.066-1.7,1.601c-0.1,0.366,0.017,0.783,0.35,1.25c0.4,0.6,0.617,1,0.65,1.199c0.1,0.4,0.066,0.767-0.1,1.101
			c-0.134,0.2-0.334,0.517-0.601,0.95c-0.333,0.699-0.5,1.133-0.5,1.3c0,0.1,0.167,0.583,0.5,1.45c0.3,0.866,0.533,2.267,0.7,4.199
			c0.033,0.167,0.066,0.5,0.1,1c0,0.233,0.101,0.551,0.301,0.95c0.233,0.467,0.6,0.983,1.1,1.55c0.3,0.301,0.733,0.75,1.3,1.351
			c0.767,0.866,1.217,1.533,1.351,2c0.267,1.066-0.134,2.033-1.2,2.899c-1.634,1.301-2.5,2.034-2.601,2.2
			c-0.267,0.434-0.232,1.25,0.101,2.45c0.267,0.934,0,1.517-0.8,1.75c-1.934,0.6-3.184-0.1-3.75-2.1c-0.267-0.934-0.4-2.65-0.4-5.15
			v-13.8c0-0.8,0.1-1.834,0.3-3.101c0.233-1.533,0.367-2.566,0.4-3.1c0.033-0.566-0.017-1.3-0.15-2.2
			c-0.133-1.033-0.2-1.783-0.2-2.25c0-0.133-0.2-2.616-0.6-7.45c-0.267-3.033-0.15-5.482,0.35-7.35c0.133-0.5,0.066-1.2-0.2-2.1
			c-0.3-0.9-0.383-1.601-0.25-2.101c0.1-0.333,0.65-0.8,1.65-1.399c0.9-0.5,1.283-0.967,1.15-1.4c-0.101-0.333-0.566-0.617-1.4-0.85
			c-0.9-0.233-1.45-0.483-1.65-0.75c-0.167-0.233-0.316-1.051-0.45-2.45c-0.034-0.434-0.067-1.367-0.1-2.8
			c0-1.134-0.083-2.051-0.25-2.75c-0.367-1.167-0.583-2.067-0.65-2.7c-0.167-1.167,0.05-2.033,0.65-2.601
			c0.267-0.267,1.066-0.583,2.4-0.949C80.667,263.316,81.367,262.867,81.6,262.3z"/>
		<linearGradient id="SVGID_5_" gradientUnits="userSpaceOnUse" x1="58.4443" y1="132.2251" x2="95.5996" y2="132.2251">
			<stop  offset="0" style="stop-color:#FFFFFF;stop-opacity:0.6275"/>
			<stop  offset="1" style="stop-color:#FFFFFF;stop-opacity:0.2"/>
		</linearGradient>
		<path style="fill-rule:evenodd;clip-rule:evenodd;fill:url(#SVGID_5_);" d="M78.4,62c3.567-0.333,5.917-0.367,7.05-0.1
			c-0.333,1.267-1.517,1.983-3.55,2.15c-0.834,0.067-2.384,0-4.65-0.2c-2.133-0.5-3.867-0.85-5.2-1.05
			c-2.5-0.4-4.133-0.083-4.9,0.95c-0.667,0.934-0.367,2,0.9,3.2c0.8,0.8,2.117,1.4,3.95,1.8c0.4,0.1,1.7,0.233,3.9,0.4
			c2.067,0.2,3.2,0.517,3.4,0.95c-1.633,1.133-3.917,1.667-6.85,1.6c-3.833-0.034-6.184,0.05-7.05,0.25
			c-0.333,2.866,1.133,4.733,4.4,5.6c1.8,0.467,4.534,0.917,8.2,1.35c-1.5,0.9-3.267,1.483-5.3,1.75c-2.4,0.2-4.25,0.383-5.55,0.55
			c-0.2,0.5-0.05,1.066,0.45,1.7c0.667,0.8,1.033,1.3,1.1,1.5c0.133,0.367,0.2,0.983,0.2,1.85c0.5,0.033,0.95,0.283,1.35,0.75
			c-0.1,0.2-0.117,0.434-0.05,0.7c0.466,0.8,1.017,1.5,1.65,2.1c2.267,2.567,5.35,4.367,9.25,5.4c0.367,0.1,3.983,0.733,10.851,1.9
			c-0.333,0.9-1.283,1.383-2.851,1.45c-1.732-0.066-2.866-0.1-3.399-0.1c-3.9,0-7.583-0.35-11.05-1.05
			c-0.833-0.4-1.683-0.5-2.55-0.3c0.066,1.8,1.233,3.05,3.5,3.75c2.833,0.867,4.433,1.533,4.8,2c-0.4,0.1-1.734-0.017-4-0.35
			c-1.767-0.267-2.917-0.017-3.45,0.75c-0.267,0.367-0.4,1.033-0.4,2c0,0.5,0.034,1.217,0.1,2.15c-0.033,2.7,1.9,4.717,5.8,6.05
			c2.6,0.9,5.633,1.417,9.1,1.55c-1.2,0.967-2.116,1.617-2.75,1.95c-1.033,0.533-2.116,0.816-3.25,0.85c-1,0-2.3-0.05-3.9-0.15
			c-2.033-0.133-3.333-0.216-3.9-0.25c0.8,1.633,1.9,2.983,3.3,4.05c2.233,1.7,5.334,2.966,9.3,3.8c0.334,0.1,1.217,0.2,2.65,0.3
			c1.233,0.1,2.117,0.267,2.65,0.5c-0.601,0.7-1.517,1.884-2.75,3.55c-1.2,1.333-2.4,2.1-3.601,2.3c-0.6,0.1-1.566,0.034-2.899-0.2
			c-1.267-0.233-2.217-0.267-2.851-0.1c0,1.2-0.217,1.9-0.65,2.1c-0.833,0.1-1.617,0.2-2.35,0.3c-0.233,0.8-0.25,1.833-0.05,3.1
			c0.1,0.7,0.3,1.716,0.6,3.05c0.633,3.034,1.3,5.383,2,7.05c0.301,0.667,0.884,1.333,1.75,2c1.134,0.9,1.817,1.483,2.051,1.75
			c0.433,0.466,1.017,1.216,1.75,2.25c0.967,1.133,2.583,1.883,4.85,2.25c1.267,0.2,3.117,0.466,5.55,0.8
			c-0.033,0.033-0.833,0.517-2.399,1.45c-0.967,0.6-1.767,1.05-2.4,1.35c-0.833,0.367-2.1,0.684-3.8,0.95
			c-1.767,0.233-3.033,0.517-3.8,0.85c0.1,0.233,1.066,0.566,2.899,1c1.567,0.333,2.084,0.9,1.55,1.7
			c-0.366,0.533-1.699,0.75-4,0.65c-2.6-0.1-4.133-0.05-4.6,0.15c0.267,0.267,0.783,0.8,1.55,1.6c0.634,0.667,1.15,1.183,1.55,1.55
			c1.467,1.233,3.717,1.934,6.75,2.1c4.167,0.2,6.584,0.383,7.25,0.55c-0.166,0.867-1.033,1.417-2.6,1.65
			c-0.566,0.1-1.684,0.15-3.35,0.15c-3.834,0-7.65-0.967-11.45-2.9c-0.434-0.233-1-0.616-1.7-1.15c-0.7-0.5-1.267-0.867-1.7-1.1
			c0.333,1.033,1.1,2.167,2.3,3.4c1.367,1.4,2.216,2.417,2.55,3.05c-1.234-0.1-2.15,0-2.75,0.3c0.2,0.733,0.983,1.5,2.35,2.3
			c1.4,0.767,2.184,1.5,2.35,2.2c-1.6,0.333-3.3-0.3-5.1-1.9c-2.4-2.133-3.917-3.317-4.55-3.55c-0.2,1.033-0.333,2.583-0.4,4.65
			c-0.566,0-1.216-0.217-1.95-0.65c-0.067,1.733,0.85,3.15,2.75,4.25c0.767,0.433,1.85,0.95,3.25,1.55
			c1.633,0.667,2.75,1.15,3.35,1.45c1.167,0.1,1.866,0.6,2.1,1.5c-0.467,0.033-1.183,0.017-2.15-0.05c0.7,0.4,1.284,1.033,1.75,1.9
			c0.3,0.5,0.717,1.283,1.25,2.35c0.933,1.5,2.433,2.567,4.5,3.2c1.199,0.333,3.05,0.8,5.55,1.4c-0.233,1.1-2.351,1.467-6.351,1.1
			c-3-0.267-5.466-0.684-7.399-1.25c-0.9-0.367-1.567-0.633-2-0.8c-0.8-0.267-1.517-0.333-2.15-0.2c-0.167,0.767,0.034,1.7,0.6,2.8
			c0.667,1.333,1.034,2.267,1.1,2.8c0.133,1.267,0.35,2.15,0.65,2.65c0.333,0.533,1.05,1.1,2.15,1.7c4.067,2.2,8.65,2.9,13.75,2.1
			c-0.366,0.667-1.616,1.15-3.75,1.45c-0.967,0.1-2.433,0.184-4.399,0.25h-9.5c-1.333,0-2.316-0.066-2.95-0.2
			c-0.967-0.167-1.9-0.533-2.8-1.1c-0.667-0.434-1.117-0.767-1.35-1c-0.433-0.467-0.6-0.967-0.5-1.5
			c0.134-0.634,0.75-1.067,1.85-1.3c1.3-0.3,2.067-0.567,2.3-0.8c-0.967-0.633-1.617-1.317-1.95-2.05c-0.267-0.6-0.4-1.55-0.4-2.85
			c0-0.8,0-1.25,0-1.35c0.066-0.467,0.2-0.9,0.4-1.3c0.434-0.833,0.65-1.3,0.65-1.4c-0.033-0.3-0.4-0.767-1.1-1.4
			c-1.233-1.133-1.866-1.967-1.9-2.5c-0.066-0.767,0.75-1.417,2.45-1.95c1.367-0.4,2.1-0.75,2.2-1.05c0.067-0.267-0.3-0.867-1.1-1.8
			c-0.633-0.767-1.05-1.55-1.25-2.35c-0.233-0.767-0.45-1.85-0.65-3.25c-0.2-1.6-0.366-2.7-0.5-3.3
			c-0.267-1.167-0.283-2.05-0.05-2.65c0.133-0.267,0.65-0.983,1.55-2.15c0.733-0.9,0.884-1.867,0.45-2.9
			c-0.733-1.133-1.25-2.017-1.55-2.65c-0.367-0.867-0.534-2.2-0.5-4c0.033-1.934,0.316-3.167,0.85-3.7
			c0.567,0.033,1.184,0.217,1.85,0.55c0.367,0.2,0.934,0.517,1.7,0.95c1.066,0.533,2.267,0.85,3.6,0.95c0.8,0.066,2.05,0.1,3.75,0.1
			c-0.867-0.3-1.867-0.833-3-1.6c-1.367-0.967-2.333-1.583-2.9-1.85c-4.167-2.1-6.517-4.167-7.05-6.2
			c-0.167-0.667-0.167-1.65,0-2.95c0.2-1.367,0.233-2.367,0.1-3c-0.333-1.733-0.617-3.817-0.85-6.25c-0.233-2.8-0.417-4.9-0.55-6.3
			c-0.067-0.733-0.1-2.117-0.1-4.15c-0.033-1.733-0.133-3.117-0.3-4.15c-0.7-5.567-1.25-9.617-1.65-12.15
			c-0.066-0.434-0.1-1-0.1-1.7c0-1,0-1.566,0-1.7c0-0.767-0.066-1.7-0.2-2.8c-0.233-1.7-0.367-2.633-0.4-2.8
			c-0.267-2.034-0.4-4-0.4-5.9c-0.033-1.5-0.3-3.333-0.8-5.5c-0.6-2.433-1.033-4.25-1.3-5.45c-0.7-3.167-1.167-5.583-1.4-7.25
			c-0.366-2.733-0.45-5.184-0.25-7.35l0.7-8.55c0.167-1.833,0.483-3,0.95-3.5l3.8,0.7c1.3-0.033,2.15-0.033,2.55,0
			c0.967,0.067,1.784,0.284,2.45,0.65c0.333,0.2,0.75,0.567,1.25,1.1c0.533,0.534,0.95,0.883,1.25,1.05C73,62.033,75.3,62.3,78.4,62
			z"/>
		<linearGradient id="SVGID_6_" gradientUnits="userSpaceOnUse" x1="90" y1="101.9004" x2="170.1" y2="101.9004">
			<stop  offset="0" style="stop-color:#000000;stop-opacity:0.2"/>
			<stop  offset="0.8549" style="stop-color:#000000;stop-opacity:0.2"/>
			<stop  offset="1" style="stop-color:#000000;stop-opacity:0.2"/>
		</linearGradient>
		<path style="fill-rule:evenodd;clip-rule:evenodd;fill:url(#SVGID_6_);" d="M102.3,77.5c0.033-0.967,0.233-1.767,0.601-2.4
			c0.166-0.3,0.666-0.983,1.5-2.05c0.699-0.933,1.233-1.767,1.6-2.5c0.333-0.8,0.6-1.75,0.8-2.85c0.667-3.434,1.15-6,1.45-7.7
			c0.5-3,0.767-5.6,0.8-7.8c0.601,0.6,1.101,0.9,1.5,0.9c0.067,4.367,0.033,8.1-0.1,11.2l-0.05,1.1l-2.4,0.75
			c0,2.7-0.083,6.733-0.25,12.1c-0.2,5.4-0.3,9.434-0.3,12.1c0,0.267,0.05,1.667,0.149,4.2c0.067,1.733,0.084,3.167,0.051,4.3
			l-1.551,7.65l-0.149,0.4c-1.767,3.367-3.25,6.967-4.45,10.8c-1.3,4.1-2.083,7.917-2.35,11.45c-0.2,3.167,0.033,6.817,0.699,10.95
			c0.167,1.1,0.9,4.716,2.2,10.85l-0.149,0.65l-1.801-1.95c-1.133-1.433-1.866-2.95-2.199-4.55c-0.2-1.034-0.283-2.684-0.25-4.95
			c0.1-1.966,0.133-3.517,0.1-4.65c-0.066-1.967-0.434-3.417-1.1-4.35c-0.601-0.867-1.634-1.333-3.101-1.4
			c-1.666,0.1-2.866,0.083-3.6-0.05c0.7-0.767,2.083-1.667,4.149-2.7c2-1.033,3.367-2,4.101-2.9c0.967-1.2,1.533-2.833,1.7-4.9
			c0.166-2.3-0.533-3.5-2.101-3.6c0.2-0.4,0.617-0.767,1.25-1.1c0.601-0.3,1.017-0.75,1.25-1.35c0.134-0.4,0.167-1.05,0.101-1.95
			c-0.134-1-0.217-1.684-0.25-2.05c-1.267,0-2.101-0.05-2.5-0.15c0.3-0.367,0.967-0.767,2-1.2c1.033-0.467,1.717-0.933,2.05-1.4
			c0.366-0.5,0.583-1.133,0.649-1.9c-0.033-0.934-0.05-1.633-0.05-2.1v-9.05c-0.033-3.5-0.066-6.133-0.1-7.9
			C102.167,82.25,102.2,79.6,102.3,77.5z"/>
		<linearGradient id="SVGID_7_" gradientUnits="userSpaceOnUse" x1="84.625" y1="195.2998" x2="190.775" y2="195.2998">
			<stop  offset="0" style="stop-color:#000000;stop-opacity:0.2"/>
			<stop  offset="0.8549" style="stop-color:#000000;stop-opacity:0.2"/>
			<stop  offset="1" style="stop-color:#000000;stop-opacity:0.2"/>
		</linearGradient>
		<path style="fill-rule:evenodd;clip-rule:evenodd;fill:url(#SVGID_7_);" d="M101.9,151.6l0.35,0.3l0.7,4.1
			c0,2.667-0.05,5.316-0.15,7.95l-0.35,1.6c-0.101,0.333-0.55,1.617-1.351,3.85c-0.533,1.433-0.816,2.717-0.85,3.85
			c-0.033,1.533-0.15,5.633-0.35,12.3c-0.134,5.033-0.2,9.15-0.2,12.35l0.149,2.6l-1.6,9.25c-0.2,0.2-0.383,0.467-0.55,0.8
			c-0.2,0.5-0.25,1.25-0.15,2.25c0.101,1.233,0.134,2.017,0.101,2.351c-0.067,0.699-0.267,2.033-0.601,4c-0.3,1.6-0.45,2.933-0.45,4
			c0.067,3.833,0.067,7.666,0,11.5v0.449l-1.05,0.301v3.6l-0.149-0.05c-0.867-0.367-1.551-1.117-2.051-2.25
			c-0.833-1.9-1.267-2.867-1.3-2.9c-0.333-0.667-0.517-1.017-0.55-1.05c-0.133-0.033-0.533-0.233-1.2-0.6
			c-0.767-0.4-2.416-0.7-4.95-0.9c1.601-0.333,2.884-1.017,3.851-2.05c1.066-1.167,1.434-2.5,1.1-4
			c-0.566,0.667-1.45,1.116-2.649,1.35c-1.2,0.2-2.2,0.101-3-0.3c2.866-1.167,4.783-2.066,5.75-2.7c2.3-1.5,3.3-3.2,3-5.1
			l-2.351-0.3c0.767-1.567,1.3-2.817,1.601-3.75c0.566-1.7,0.55-2.983-0.051-3.851c-0.399-0.033-1.083-0.05-2.05-0.05
			c-0.866,0.033-1.533,0-2-0.1c0.733-0.3,1.75-0.633,3.05-1c1.034-0.433,1.684-1.267,1.95-2.5c0.067-0.4,0.033-1.267-0.1-2.6
			c-0.167-1.167-0.117-2.017,0.149-2.55c0.2-0.4,0.567-0.8,1.101-1.2c0.467-0.366,0.767-0.816,0.899-1.35
			c0.067-0.367,0.084-0.934,0.051-1.7c-0.067-0.8-0.051-1.383,0.05-1.75c0.133-0.566,0.566-1.517,1.3-2.85
			c0.667-1.2,1.033-2.2,1.1-3c-2.466,0.1-4.399,0.133-5.8,0.1c-2.533-0.066-4.316-0.5-5.35-1.3c0.533-0.934,2.033-1.534,4.5-1.8
			c2.333-0.267,3.783-1.2,4.35-2.8c-2.666,0.167-4.05,0.25-4.149,0.25c-1.733,0.033-2.983-0.167-3.75-0.6
			c2.533-0.767,4.449-1.434,5.75-2c2.433-1.066,3.399-2.667,2.899-4.8c-0.633,0.033-1.3-0.05-2-0.25c0.067-0.5,0.45-1.083,1.15-1.75
			c0.8-0.7,1.283-1.284,1.45-1.75c0.267-0.767,0.35-2.05,0.25-3.85c-0.067-1.934-0.317-3.083-0.75-3.45
			c-1.567,0.333-3.334,0.5-5.301,0.5c-1.966,0-3.716-0.15-5.25-0.45c0.768-0.634,2.184-0.917,4.25-0.85
			c2.233,0.033,3.717-0.167,4.45-0.6c0.834-0.467,1.334-1.083,1.5-1.85c0.067-0.966,0.167-1.733,0.3-2.3
			c0.233-0.867,0.684-1.483,1.351-1.85c0.967-0.467,1.6-0.883,1.899-1.25C100.417,156.55,101.1,154.667,101.9,151.6z"/>
		<linearGradient id="SVGID_8_" gradientUnits="userSpaceOnUse" x1="89.9248" y1="151.4248" x2="170.2748" y2="151.4248">
			<stop  offset="0" style="stop-color:#000000;stop-opacity:0.2"/>
			<stop  offset="0.8549" style="stop-color:#000000;stop-opacity:0.2"/>
			<stop  offset="1" style="stop-color:#000000;stop-opacity:0.2"/>
		</linearGradient>
		<polygon style="fill-rule:evenodd;clip-rule:evenodd;fill:url(#SVGID_8_);" points="102.05,150.95 102.25,151.9 101.9,151.6 		"/>
		<linearGradient id="SVGID_9_" gradientUnits="userSpaceOnUse" x1="84.6123" y1="151.4248" x2="191.0873" y2="151.4248">
			<stop  offset="0" style="stop-color:#000000;stop-opacity:0.2"/>
			<stop  offset="0.8549" style="stop-color:#000000;stop-opacity:0.2"/>
			<stop  offset="1" style="stop-color:#000000;stop-opacity:0.2"/>
		</linearGradient>
		<polygon style="fill-rule:evenodd;clip-rule:evenodd;fill:url(#SVGID_9_);" points="102.05,150.95 102.25,151.9 101.9,151.6 		"/>
		<linearGradient id="SVGID_10_" gradientUnits="userSpaceOnUse" x1="84.5254" y1="334.5254" x2="187.1754" y2="334.5254">
			<stop  offset="0" style="stop-color:#000000;stop-opacity:0.2"/>
			<stop  offset="0.8549" style="stop-color:#000000;stop-opacity:0.2"/>
			<stop  offset="1" style="stop-color:#000000;stop-opacity:0.2"/>
		</linearGradient>
		<path style="fill-rule:evenodd;clip-rule:evenodd;fill:url(#SVGID_10_);" d="M87.9,327.4c-0.334,4.833-0.533,9.733-0.601,14.699
			l-0.05-0.3c-0.167-0.467-0.583-1.033-1.25-1.7c-0.667-0.666-1.083-1.25-1.25-1.75c-0.434-1.333-0.116-3.616,0.95-6.85
			c0.167-0.467,0.533-1.2,1.1-2.2c0.567-1.066,0.95-1.85,1.15-2.35L87.9,327.4z"/>
		<linearGradient id="SVGID_11_" gradientUnits="userSpaceOnUse" x1="84.5371" y1="363.875" x2="187.1621" y2="363.875">
			<stop  offset="0" style="stop-color:#000000;stop-opacity:0.2"/>
			<stop  offset="0.8549" style="stop-color:#000000;stop-opacity:0.2"/>
			<stop  offset="1" style="stop-color:#000000;stop-opacity:0.2"/>
		</linearGradient>
		<path style="fill-rule:evenodd;clip-rule:evenodd;fill:url(#SVGID_11_);" d="M86.3,373.55c-0.7-6.934-0.55-12.283,0.45-16.05
			c0.267-0.967,0.434-2.066,0.5-3.3l0.05,1.95C86.9,359.95,86.566,365.75,86.3,373.55z"/>
		<linearGradient id="SVGID_12_" gradientUnits="userSpaceOnUse" x1="84.5371" y1="267.2754" x2="187.1621" y2="267.2754">
			<stop  offset="0" style="stop-color:#000000;stop-opacity:0.2"/>
			<stop  offset="0.8549" style="stop-color:#000000;stop-opacity:0.2"/>
			<stop  offset="1" style="stop-color:#000000;stop-opacity:0.2"/>
		</linearGradient>
		<path style="fill-rule:evenodd;clip-rule:evenodd;fill:url(#SVGID_12_);" d="M95.55,239l0.7,0.25
			c-0.767,9.6-2.033,23.967-3.8,43.1c-0.101,6.7-0.15,10.101-0.15,10.2c-0.333,1.233-0.55,2.233-0.649,3
			c-0.033-1.733-0.167-4.533-0.4-8.399c-0.2-3.601-0.316-6.367-0.35-8.301c0-1.467,0.116-2.533,0.35-3.199
			c0.1-0.268,0.35-0.733,0.75-1.4c0.267-0.4,0.417-0.917,0.45-1.55c0.066-1.2-0.066-2.767-0.4-4.7c-0.399-2.167-0.6-3.717-0.6-4.65
			c-0.066-0.866-0.117-1.55-0.15-2.05c-0.066-0.933-0.033-1.633,0.101-2.1c0.133-0.434,0.467-0.95,1-1.55
			c0.566-0.634,0.899-1.15,1-1.551c0.233-0.732,0.316-1.75,0.25-3.05c-0.101-1.467-0.15-2.517-0.15-3.149V245.3
			c-0.1-0.833-0.116-1.366-0.05-1.6c0.1-0.4,0.35-0.783,0.75-1.15c0.399-0.366,0.649-0.649,0.75-0.85
			C95.283,241,95.483,240.1,95.55,239z"/>
		<linearGradient id="SVGID_13_" gradientUnits="userSpaceOnUse" x1="84.5371" y1="312.9746" x2="187.1621" y2="312.9746">
			<stop  offset="0" style="stop-color:#000000;stop-opacity:0.2"/>
			<stop  offset="0.8549" style="stop-color:#000000;stop-opacity:0.2"/>
			<stop  offset="1" style="stop-color:#000000;stop-opacity:0.2"/>
		</linearGradient>
		<path style="fill-rule:evenodd;clip-rule:evenodd;fill:url(#SVGID_13_);" d="M88.7,310.4c-0.367,1.8-0.566,4.05-0.601,6.75
			c-0.033,1.533-0.05,3.85-0.05,6.949c-0.5-1.033-0.85-1.767-1.05-2.199c-0.4-0.801-0.467-1.7-0.2-2.7c0.334-1.533,0.5-3.3,0.5-5.3
			V308.8c-0.233-1.5-0.399-2.684-0.5-3.55c-0.2-1.566-0.066-2.7,0.4-3.4c0.467,0.367,1.399,1.334,2.8,2.9L88.7,310.4z"/>
		<linearGradient id="SVGID_14_" gradientUnits="userSpaceOnUse" x1="84.625" y1="237.1748" x2="190.675" y2="237.1748">
			<stop  offset="0" style="stop-color:#000000;stop-opacity:0.2"/>
			<stop  offset="0.8549" style="stop-color:#000000;stop-opacity:0.2"/>
			<stop  offset="1" style="stop-color:#000000;stop-opacity:0.2"/>
		</linearGradient>
		<polygon style="fill-rule:evenodd;clip-rule:evenodd;fill:url(#SVGID_14_);" points="96.6,235.1 96.25,239.25 95.55,239 
			95.55,235.4 		"/>
		<linearGradient id="SVGID_15_" gradientUnits="userSpaceOnUse" x1="84.5371" y1="237.1748" x2="187.0621" y2="237.1748">
			<stop  offset="0" style="stop-color:#000000;stop-opacity:0.2"/>
			<stop  offset="0.8549" style="stop-color:#000000;stop-opacity:0.2"/>
			<stop  offset="1" style="stop-color:#000000;stop-opacity:0.2"/>
		</linearGradient>
		<polygon style="fill-rule:evenodd;clip-rule:evenodd;fill:url(#SVGID_15_);" points="96.6,235.1 96.25,239.25 95.55,239 
			95.55,235.4 		"/>
		<linearGradient id="SVGID_16_" gradientUnits="userSpaceOnUse" x1="87.2627" y1="325.5254" x2="234.3377" y2="325.5254">
			<stop  offset="0" style="stop-color:#000000;stop-opacity:0.2"/>
			<stop  offset="0.8549" style="stop-color:#000000;stop-opacity:0.2"/>
			<stop  offset="1" style="stop-color:#000000;stop-opacity:0.2"/>
		</linearGradient>
		<path style="fill-rule:evenodd;clip-rule:evenodd;fill:url(#SVGID_16_);" d="M88.25,324.8c0.1,0.601,0,1.316-0.3,2.15l0.1-2.851
			L88.25,324.8z"/>
		<linearGradient id="SVGID_17_" gradientUnits="userSpaceOnUse" x1="87.2627" y1="300.8496" x2="234.3377" y2="300.8496">
			<stop  offset="0" style="stop-color:#000000;stop-opacity:0.2"/>
			<stop  offset="0.8549" style="stop-color:#000000;stop-opacity:0.2"/>
			<stop  offset="1" style="stop-color:#000000;stop-opacity:0.2"/>
		</linearGradient>
		<path style="fill-rule:evenodd;clip-rule:evenodd;fill:url(#SVGID_17_);" d="M91.4,306.15c-0.334-0.267-0.801-0.733-1.4-1.4
			l0.55-2.35c0.467-3.067,0.834-5.351,1.101-6.851C91.75,299.417,91.667,302.95,91.4,306.15z"/>
		<linearGradient id="SVGID_18_" gradientUnits="userSpaceOnUse" x1="90" y1="82.125" x2="170.1" y2="82.125">
			<stop  offset="0" style="stop-color:#000000;stop-opacity:0.2"/>
			<stop  offset="0.8549" style="stop-color:#000000;stop-opacity:0.2"/>
			<stop  offset="1" style="stop-color:#000000;stop-opacity:0.2"/>
		</linearGradient>
		<path style="fill-rule:evenodd;clip-rule:evenodd;fill:url(#SVGID_18_);" d="M107.75,78.25c0.167-5.367,0.25-9.4,0.25-12.1
			l2.4-0.75c-0.067,5.833-0.317,11.034-0.75,15.6l-1.2,12.75c-0.167,1.367-0.434,3.066-0.8,5.1c0.033-1.133,0.017-2.567-0.051-4.3
			c-0.1-2.533-0.149-3.933-0.149-4.2C107.45,87.684,107.55,83.65,107.75,78.25z"/>
		<linearGradient id="SVGID_19_" gradientUnits="userSpaceOnUse" x1="87.25" y1="82.125" x2="234.25" y2="82.125">
			<stop  offset="0" style="stop-color:#000000;stop-opacity:0.2"/>
			<stop  offset="0.8549" style="stop-color:#000000;stop-opacity:0.2"/>
			<stop  offset="1" style="stop-color:#000000;stop-opacity:0.2"/>
		</linearGradient>
		<path style="fill-rule:evenodd;clip-rule:evenodd;fill:url(#SVGID_19_);" d="M107.75,78.25c0.167-5.367,0.25-9.4,0.25-12.1
			l2.4-0.75c-0.067,5.833-0.317,11.034-0.75,15.6l-1.2,12.75c-0.167,1.367-0.434,3.066-0.8,5.1c0.033-1.133,0.017-2.567-0.051-4.3
			c-0.1-2.533-0.149-3.933-0.149-4.2C107.45,87.684,107.55,83.65,107.75,78.25z"/>
		<linearGradient id="SVGID_20_" gradientUnits="userSpaceOnUse" x1="89.9873" y1="128.7251" x2="170.1123" y2="128.7251">
			<stop  offset="0" style="stop-color:#000000;stop-opacity:0.2"/>
			<stop  offset="0.8549" style="stop-color:#000000;stop-opacity:0.2"/>
			<stop  offset="1" style="stop-color:#000000;stop-opacity:0.2"/>
		</linearGradient>
		<path style="fill-rule:evenodd;clip-rule:evenodd;fill:url(#SVGID_20_);" d="M105.25,112.5l-0.4,5.9
			c-0.1,2.333-0.267,5.683-0.5,10.05c-0.166,3.8-0.232,7.167-0.199,10.1c0,3.5-0.25,7.217-0.75,11.15L102.3,150l-0.25,0.95
			c-1.3-6.134-2.033-9.75-2.2-10.85c-0.666-4.133-0.899-7.784-0.699-10.95c0.267-3.533,1.05-7.35,2.35-11.45
			c1.2-3.833,2.684-7.434,4.45-10.8l0.149-0.4C105.7,108.633,105.417,110.633,105.25,112.5z"/>
		<linearGradient id="SVGID_21_" gradientUnits="userSpaceOnUse" x1="87.2373" y1="128.7251" x2="234.2623" y2="128.7251">
			<stop  offset="0" style="stop-color:#000000;stop-opacity:0.2"/>
			<stop  offset="0.8549" style="stop-color:#000000;stop-opacity:0.2"/>
			<stop  offset="1" style="stop-color:#000000;stop-opacity:0.2"/>
		</linearGradient>
		<path style="fill-rule:evenodd;clip-rule:evenodd;fill:url(#SVGID_21_);" d="M105.25,112.5l-0.4,5.9
			c-0.1,2.333-0.267,5.683-0.5,10.05c-0.166,3.8-0.232,7.167-0.199,10.1c0,3.5-0.25,7.217-0.75,11.15L102.3,150l-0.25,0.95
			c-1.3-6.134-2.033-9.75-2.2-10.85c-0.666-4.133-0.899-7.784-0.699-10.95c0.267-3.533,1.05-7.35,2.35-11.45
			c1.2-3.833,2.684-7.434,4.45-10.8l0.149-0.4C105.7,108.633,105.417,110.633,105.25,112.5z"/>
		<linearGradient id="SVGID_22_" gradientUnits="userSpaceOnUse" x1="84.6504" y1="222.2002" x2="190.8504" y2="222.2002">
			<stop  offset="0" style="stop-color:#000000;stop-opacity:0.2"/>
			<stop  offset="0.8549" style="stop-color:#000000;stop-opacity:0.2"/>
			<stop  offset="1" style="stop-color:#000000;stop-opacity:0.2"/>
		</linearGradient>
		<path style="fill-rule:evenodd;clip-rule:evenodd;fill:url(#SVGID_22_);" d="M97.65,215.15c0.033-0.334,0-1.117-0.101-2.351
			c-0.1-1-0.05-1.75,0.15-2.25c0.167-0.333,0.35-0.6,0.55-0.8c-0.3,2.467-0.5,4.934-0.6,7.4c-0.233,5.767-0.584,11.6-1.051,17.5
			c0.067-3.834,0.067-7.667,0-11.5c0-1.067,0.15-2.4,0.45-4C97.384,217.184,97.583,215.85,97.65,215.15z"/>
		<linearGradient id="SVGID_23_" gradientUnits="userSpaceOnUse" x1="87.25" y1="222.2002" x2="234.35" y2="222.2002">
			<stop  offset="0" style="stop-color:#000000;stop-opacity:0.2"/>
			<stop  offset="0.8549" style="stop-color:#000000;stop-opacity:0.2"/>
			<stop  offset="1" style="stop-color:#000000;stop-opacity:0.2"/>
		</linearGradient>
		<path style="fill-rule:evenodd;clip-rule:evenodd;fill:url(#SVGID_23_);" d="M97.65,215.15c0.033-0.334,0-1.117-0.101-2.351
			c-0.1-1-0.05-1.75,0.15-2.25c0.167-0.333,0.35-0.6,0.55-0.8c-0.3,2.467-0.5,4.934-0.6,7.4c-0.233,5.767-0.584,11.6-1.051,17.5
			c0.067-3.834,0.067-7.667,0-11.5c0-1.067,0.15-2.4,0.45-4C97.384,217.184,97.583,215.85,97.65,215.15z"/>
		<linearGradient id="SVGID_24_" gradientUnits="userSpaceOnUse" x1="84.6377" y1="182.2251" x2="190.7627" y2="182.2251">
			<stop  offset="0" style="stop-color:#000000;stop-opacity:0.2"/>
			<stop  offset="0.8549" style="stop-color:#000000;stop-opacity:0.2"/>
			<stop  offset="1" style="stop-color:#000000;stop-opacity:0.2"/>
		</linearGradient>
		<path style="fill-rule:evenodd;clip-rule:evenodd;fill:url(#SVGID_24_);" d="M100.25,173.25c0.033-1.133,0.316-2.417,0.85-3.85
			c0.801-2.233,1.25-3.517,1.351-3.85l0.35-1.6l-0.05,0.65c-0.1,2.167-0.167,5.133-0.2,8.9c0,4.2-0.033,7.15-0.1,8.85
			c-0.101,3-0.4,6.1-0.9,9.3c-0.233,1.433-0.8,4.383-1.7,8.85l-0.149-2.6c0-3.2,0.066-7.317,0.2-12.35
			C100.1,178.883,100.217,174.783,100.25,173.25z"/>
		<linearGradient id="SVGID_25_" gradientUnits="userSpaceOnUse" x1="87.2627" y1="182.2251" x2="234.2377" y2="182.2251">
			<stop  offset="0" style="stop-color:#000000;stop-opacity:0.2"/>
			<stop  offset="0.8549" style="stop-color:#000000;stop-opacity:0.2"/>
			<stop  offset="1" style="stop-color:#000000;stop-opacity:0.2"/>
		</linearGradient>
		<path style="fill-rule:evenodd;clip-rule:evenodd;fill:url(#SVGID_25_);" d="M100.25,173.25c0.033-1.133,0.316-2.417,0.85-3.85
			c0.801-2.233,1.25-3.517,1.351-3.85l0.35-1.6l-0.05,0.65c-0.1,2.167-0.167,5.133-0.2,8.9c0,4.2-0.033,7.15-0.1,8.85
			c-0.101,3-0.4,6.1-0.9,9.3c-0.233,1.433-0.8,4.383-1.7,8.85l-0.149-2.6c0-3.2,0.066-7.317,0.2-12.35
			C100.1,178.883,100.217,174.783,100.25,173.25z"/>
		<linearGradient id="SVGID_26_" gradientUnits="userSpaceOnUse" x1="84.6621" y1="153.9502" x2="190.7371" y2="153.9502">
			<stop  offset="0" style="stop-color:#000000;stop-opacity:0.2"/>
			<stop  offset="0.8549" style="stop-color:#000000;stop-opacity:0.2"/>
			<stop  offset="1" style="stop-color:#000000;stop-opacity:0.2"/>
		</linearGradient>
		<polygon style="fill-rule:evenodd;clip-rule:evenodd;fill:url(#SVGID_26_);" points="102.95,156 102.25,151.9 103.05,152.65 
			102.95,153.5 		"/>
		<linearGradient id="SVGID_27_" gradientUnits="userSpaceOnUse" x1="87.25" y1="153.9502" x2="234.15" y2="153.9502">
			<stop  offset="0" style="stop-color:#000000;stop-opacity:0.2"/>
			<stop  offset="0.8549" style="stop-color:#000000;stop-opacity:0.2"/>
			<stop  offset="1" style="stop-color:#000000;stop-opacity:0.2"/>
		</linearGradient>
		<polygon style="fill-rule:evenodd;clip-rule:evenodd;fill:url(#SVGID_27_);" points="102.95,156 102.25,151.9 103.05,152.65 
			102.95,153.5 		"/>
		<linearGradient id="SVGID_28_" gradientUnits="userSpaceOnUse" x1="89.9873" y1="151.1748" x2="170.1123" y2="151.1748">
			<stop  offset="0" style="stop-color:#000000;stop-opacity:0.2"/>
			<stop  offset="0.8549" style="stop-color:#000000;stop-opacity:0.2"/>
			<stop  offset="1" style="stop-color:#000000;stop-opacity:0.2"/>
		</linearGradient>
		<polygon style="fill-rule:evenodd;clip-rule:evenodd;fill:url(#SVGID_28_);" points="102.05,150.95 102.3,150 103.4,149.7 
			103.05,152.65 102.25,151.9 		"/>
		<linearGradient id="SVGID_29_" gradientUnits="userSpaceOnUse" x1="84.6123" y1="151.1748" x2="190.7873" y2="151.1748">
			<stop  offset="0" style="stop-color:#000000;stop-opacity:0.2"/>
			<stop  offset="0.8549" style="stop-color:#000000;stop-opacity:0.2"/>
			<stop  offset="1" style="stop-color:#000000;stop-opacity:0.2"/>
		</linearGradient>
		<polygon style="fill-rule:evenodd;clip-rule:evenodd;fill:url(#SVGID_29_);" points="102.05,150.95 102.3,150 103.4,149.7 
			103.05,152.65 102.25,151.9 		"/>
		<linearGradient id="SVGID_30_" gradientUnits="userSpaceOnUse" x1="87.2373" y1="151.1748" x2="234.2623" y2="151.1748">
			<stop  offset="0" style="stop-color:#000000;stop-opacity:0.2"/>
			<stop  offset="0.8549" style="stop-color:#000000;stop-opacity:0.2"/>
			<stop  offset="1" style="stop-color:#000000;stop-opacity:0.2"/>
		</linearGradient>
		<polygon style="fill-rule:evenodd;clip-rule:evenodd;fill:url(#SVGID_30_);" points="102.05,150.95 102.3,150 103.4,149.7 
			103.05,152.65 102.25,151.9 		"/>
		<linearGradient id="SVGID_31_" gradientUnits="userSpaceOnUse" x1="84.5254" y1="324.3496" x2="187.1754" y2="324.3496">
			<stop  offset="0" style="stop-color:#000000;stop-opacity:0.2"/>
			<stop  offset="0.8549" style="stop-color:#000000;stop-opacity:0.2"/>
			<stop  offset="1" style="stop-color:#000000;stop-opacity:0.2"/>
		</linearGradient>
		<path style="fill-rule:evenodd;clip-rule:evenodd;fill:url(#SVGID_31_);" d="M91.65,295.55c0.1-0.767,0.316-1.767,0.649-3
			c-0.166,6.5-0.5,12.617-1,18.351c-0.2,2.233-0.583,5.716-1.149,10.449c-0.533,4.5-0.9,7.967-1.101,10.4v0.45
			c-0.433,9.133-0.967,16.6-1.6,22.399c0,0.067-0.05,0.584-0.15,1.551l-0.05-1.95c0.066-1,0.1-2.233,0.1-3.7
			c-0.033-1.634-0.05-2.866-0.05-3.7c0.067-1,0.117-1.783,0.15-2.35c0.033-0.967-0.017-1.75-0.15-2.351
			c0.067-4.966,0.267-9.866,0.601-14.699l0.05-0.45c0.3-0.834,0.399-1.55,0.3-2.15l-0.2-0.7c0-3.1,0.017-5.416,0.05-6.949
			c0.034-2.7,0.233-4.95,0.601-6.75l1.3-5.65c0.6,0.667,1.066,1.134,1.4,1.4C91.667,302.95,91.75,299.417,91.65,295.55z"/>
		<linearGradient id="SVGID_32_" gradientUnits="userSpaceOnUse" x1="87.2246" y1="324.3496" x2="234.2746" y2="324.3496">
			<stop  offset="0" style="stop-color:#000000;stop-opacity:0.2"/>
			<stop  offset="0.8549" style="stop-color:#000000;stop-opacity:0.2"/>
			<stop  offset="1" style="stop-color:#000000;stop-opacity:0.2"/>
		</linearGradient>
		<path style="fill-rule:evenodd;clip-rule:evenodd;fill:url(#SVGID_32_);" d="M91.65,295.55c0.1-0.767,0.316-1.767,0.649-3
			c-0.166,6.5-0.5,12.617-1,18.351c-0.2,2.233-0.583,5.716-1.149,10.449c-0.533,4.5-0.9,7.967-1.101,10.4v0.45
			c-0.433,9.133-0.967,16.6-1.6,22.399c0,0.067-0.05,0.584-0.15,1.551l-0.05-1.95c0.066-1,0.1-2.233,0.1-3.7
			c-0.033-1.634-0.05-2.866-0.05-3.7c0.067-1,0.117-1.783,0.15-2.35c0.033-0.967-0.017-1.75-0.15-2.351
			c0.067-4.966,0.267-9.866,0.601-14.699l0.05-0.45c0.3-0.834,0.399-1.55,0.3-2.15l-0.2-0.7c0-3.1,0.017-5.416,0.05-6.949
			c0.034-2.7,0.233-4.95,0.601-6.75l1.3-5.65c0.6,0.667,1.066,1.134,1.4,1.4C91.667,302.95,91.75,299.417,91.65,295.55z"/>
		<linearGradient id="SVGID_33_" gradientUnits="userSpaceOnUse" x1="66.875" y1="226.9863" x2="101.425" y2="226.9863">
			<stop  offset="0" style="stop-color:#FFFFFF;stop-opacity:0.3569"/>
			<stop  offset="0.6471" style="stop-color:#D7EDFB;stop-opacity:0.6078"/>
			<stop  offset="1" style="stop-color:#C5E5F9;stop-opacity:0.7176"/>
		</linearGradient>
		<path style="fill-rule:evenodd;clip-rule:evenodd;fill:url(#SVGID_33_);" d="M80,47.75c10.667-0.967,18.783-1.217,24.35-0.75
			c0.667,0.066,1.467,0.733,2.4,2c1.533,2.1,2.3,3.167,2.3,3.2l0.351,0.35h0.05l0.35,0.3l0.351,0.2l0.399,0.05
			c0.067,4.367,0.033,8.1-0.1,11.2l-0.8,16.7l-1.601,15.7c-0.166,1.2-0.533,3.066-1.1,5.6L105,114.9l-0.15,3.5
			c-0.1,2.333-0.267,5.683-0.5,10.05c-0.166,3.8-0.232,7.167-0.199,10.1l-1.101,13.9v0.2l-0.1,0.85l-0.2,11.1
			c-0.1,2.167-0.167,5.133-0.2,8.9c0,4.2-0.033,7.15-0.1,8.85l-0.3,4.95L97.9,213l-0.25,4.15c-0.101,2.899-0.25,5.8-0.45,8.699
			L96.6,234.6v0.5l-0.35,4.15c-0.3,3.833-1.066,12.483-2.3,25.95l-1.5,17.149l-0.3,14.5c-0.033,2.034-0.134,4.051-0.301,6.051
			l-0.1,1.6c-0.1,2.134-0.25,4.267-0.45,6.4c-0.2,2.233-0.583,5.716-1.149,10.449c-0.533,4.5-0.9,7.967-1.101,10.4v0.45
			c-0.433,9.133-0.967,16.6-1.6,22.399c-0.066,0.334-0.117,0.851-0.15,1.551c-0.267,2.433-0.5,6.216-0.7,11.35l-0.3,6.05L86,377
			c-0.467,5.6-0.684,11.417-0.65,17.45c0,3.033-0.116,5.7-0.35,8c-0.4,3.733-1.033,5.267-1.9,4.6c-0.866,0.667-1.5-0.866-1.899-4.6
			c-0.233-2.3-0.351-4.967-0.351-8c0-5.101-0.133-9.584-0.399-13.45l-0.15-2.5l-0.1-0.3c-0.2-1.367-0.3-3.066-0.3-5.101L79.8,371.95
			c-0.166-3.867-0.3-6.783-0.399-8.75c-0.167-3.4-0.384-6.267-0.65-8.601c-0.6-5.233-1.133-12.699-1.6-22.399
			c-0.133-2.934-0.45-7.45-0.95-13.55c-0.5-5.9-0.817-10.4-0.95-13.5c-0.433-9.601-1.566-24.268-3.4-44
			c-1.8-19.268-2.9-33.934-3.3-44c-0.066-1.801-0.466-6.134-1.2-13c-0.3-0.4-0.4-0.8-0.3-1.2l0.1-0.25
			c-0.333-3.534-0.55-6.217-0.65-8.05c-0.566-13.733-1.25-24.317-2.05-31.75c-0.7-5.4-1.217-9.417-1.55-12.05
			c-0.566-4.667-0.85-8.767-0.85-12.3c0-3.5-0.25-10.217-0.75-20.15c-0.267-6.2-0.417-9.55-0.45-10.05
			c-0.2-3.733-0.483-7.083-0.85-10.05c-0.333-2.9-0.983-7.583-1.95-14.05c-0.9-6-1.533-10.684-1.9-14.05
			c-0.333-3.034-0.517-6.583-0.55-10.65c0-0.933,0.017-4.517,0.05-10.75C60.783,49.1,68.9,48.75,80,47.75z"/>
		<path style="fill-rule:evenodd;clip-rule:evenodd;fill:#FFFFFF;" d="M63.75,99.8c1.367,0.934,2.184,2.634,2.45,5.1
			c0.167,1.367,0.267,3.333,0.3,5.9c0.133,1.567,0.45,2.7,0.95,3.4c0.466,0.667,1.133,1.616,2,2.85c0.2,0.333,0.517,0.884,0.95,1.65
			c0.333,0.7,0.5,1.3,0.5,1.8c0,0.4-0.133,0.867-0.4,1.4c-0.3,0.633-0.483,1.083-0.55,1.35c-0.467,2,0.316,3.45,2.35,4.35
			c1.134,0.5,2.983,1.033,5.55,1.6c-0.533,1.3-2.267,2.083-5.2,2.35c-1.033,0.134-1.716,0.467-2.05,1
			c-0.267,0.434-0.4,1.233-0.4,2.4c0,0.433-0.034,1.183-0.1,2.25c-0.033,0.966,0.033,1.7,0.2,2.2c0.067,0.233,0.333,0.784,0.8,1.65
			c0.3,0.634,0.467,1.25,0.5,1.85c0,0.233-0.017,0.583-0.05,1.05c-0.033,0.466,0,0.816,0.1,1.05c0.1,0.267,0.367,0.6,0.8,1
			c0.466,0.467,0.767,0.8,0.9,1c0.367,0.633,0.583,1.083,0.65,1.35c0.067,0.466-0.066,0.966-0.4,1.5
			c-0.233,0.367-0.583,0.683-1.05,0.95c-0.466,0.233-0.9,0.367-1.3,0.4c-0.6,0.066-1.066-0.05-1.4-0.35
			c-0.4-0.4-0.767-0.717-1.1-0.95c-0.667-0.367-1.117-0.633-1.35-0.8c-0.3-0.233-0.517-0.684-0.65-1.35
			c-0.066-0.467-0.083-1.1-0.05-1.9c0.033-0.833,0.05-1.467,0.05-1.9c0-1.733-0.017-2.767-0.05-3.1c-0.067-0.567-0.1-1.434-0.1-2.6
			c-0.033-1.2-0.083-2.083-0.15-2.65c-0.1-0.867-0.167-2.067-0.2-3.6c-0.033-1.733-0.083-2.934-0.15-3.6
			c-0.067-0.667-0.267-1.533-0.6-2.6c-0.4-1.2-0.65-2.05-0.75-2.55c-0.167-1.2-0.233-2.75-0.2-4.65c0.1-2.1,0.15-3.65,0.15-4.65
			l-1.05-3.8v-5.6c-0.066-1.033-0.117-1.833-0.15-2.4C63.467,101.083,63.55,100.3,63.75,99.8z"/>
		<path style="fill-rule:evenodd;clip-rule:evenodd;fill:#FFFFFF;" d="M62.6,93.25c-0.167-1.2-0.017-1.8,0.45-1.8
			c0.167-0.034,0.817,0.216,1.95,0.75c1.167,0.566,2.633,0.983,4.4,1.25c0.833,0.133,2.367,0.3,4.6,0.5l1.05,4.1
			c-3.5,0-5.95-0.15-7.35-0.45C64.633,96.934,62.934,95.483,62.6,93.25z"/>
		<path style="fill-rule:evenodd;clip-rule:evenodd;fill:#FFFFFF;" d="M78.5,159.8l2.75,1.4c-2.367,1.2-5.2,1.4-8.5,0.6
			c-3.667-0.9-5.3-2.8-4.9-5.7c0.7-0.233,1.5-0.05,2.4,0.55c0.5,0.333,1.2,0.85,2.1,1.55c1.066,0.667,2.05,1.1,2.95,1.3
			C76.1,159.7,77.167,159.8,78.5,159.8z"/>
		<path style="fill-rule:evenodd;clip-rule:evenodd;fill:#FFFFFF;" d="M77.45,165l-2.4,1.05c-1.066,0.5-2.433,0.517-4.1,0.05
			c-1.733-0.5-2.767-1.3-3.1-2.4c-0.7-2.067,0.2-2.434,2.7-1.1C73.45,164.1,75.75,164.9,77.45,165z"/>
		<path style="fill-rule:evenodd;clip-rule:evenodd;fill:#FFFFFF;" d="M71.95,169.15l1,1.7c0.066,0.3,0.066,0.75,0,1.35
			c-1.4,0.267-2.3-0.217-2.7-1.45S70.417,168.983,71.95,169.15z"/>
		<path style="fill-rule:evenodd;clip-rule:evenodd;fill:#FFFFFF;" d="M76.1,183.95l-3.45-3.75c0.467,0.466,1.333,1.033,2.6,1.7
			c1.067,0.7,1.583,1.517,1.55,2.45c-0.033,0.367-0.167,0.783-0.4,1.25c-0.167,0.267-0.417,0.633-0.75,1.1
			c0,0.033-0.25,0.283-0.75,0.75c-0.167,0.167-0.133,0.517,0.1,1.05c0.133,0.233,0.633,0.684,1.5,1.35
			c0.833,0.633,1.9,1.167,3.2,1.6c0.767,0.267,1.917,0.566,3.45,0.9c-0.334,1.033-2.733,1.316-7.2,0.85c-1.1-0.2-1.8-0.284-2.1-0.25
			c-0.5,0.033-0.8,0.483-0.9,1.35c-0.1,0.833-0.083,2.2,0.05,4.1c0.1,1.8,0.067,3.167-0.1,4.1c-0.5-0.4-0.833-0.733-1-1
			c-0.1-0.2-0.167-0.483-0.2-0.85c-0.034-0.367-0.083-0.633-0.15-0.8c-0.133-0.3-0.433-0.7-0.9-1.2c-0.433-0.5-0.716-0.9-0.85-1.2
			c-0.267-0.6-0.3-1.25-0.1-1.95c0.3-0.8,0.483-1.434,0.55-1.9c0.167-1.034-0.083-2.15-0.75-3.35c-0.333-0.6-0.566-1.05-0.7-1.35
			c-0.233-0.533-0.333-1.033-0.3-1.5c0.033-0.8,0.333-1.167,0.9-1.1c0.767,0.067,1.284-0.033,1.55-0.3
			c0.533-0.533,0.517-1.033-0.05-1.5c-0.733-0.467-1.2-0.783-1.4-0.95c-0.8-0.667-1.133-1.55-1-2.65c1.333,0.2,2.667,0.55,4,1.05
			C74.1,182.55,75.3,183.217,76.1,183.95z"/>
		<path style="fill-rule:evenodd;clip-rule:evenodd;fill:#FFFFFF;" d="M76.1,204.35l5.5,0.65c-2.866,2-6.516,2.35-10.95,1.05
			c-2.267-0.633-3.216-1.55-2.85-2.75c0.934-0.033,2.317,0.15,4.15,0.55C73.75,204.217,75.133,204.383,76.1,204.35z"/>
		<path style="fill-rule:evenodd;clip-rule:evenodd;fill:#FFFFFF;" d="M77.8,213.3L80.9,214c-0.9,0.833-2.05,1.367-3.45,1.6
			c-1.633,0.233-2.567-0.3-2.8-1.6c-0.133-0.934,0.3-1.45,1.3-1.55C76.95,212.383,77.567,212.667,77.8,213.3z"/>
		<path style="fill-rule:evenodd;clip-rule:evenodd;fill:#FFFFFF;" d="M74.35,221.25l3.45,2.05c0.167,2.134-0.533,2.7-2.1,1.7
			C74.1,223.967,73.65,222.717,74.35,221.25z"/>
		<path style="fill-rule:evenodd;clip-rule:evenodd;fill:#FFFFFF;" d="M77.8,227.8c-0.532-0.106-0.865,0.035-1,0.425
			c-0.649-2.208-1-3.967-1.05-5.274L77.8,227.8z M77.375,230.025c0.062,0.157,0.12,0.315,0.175,0.475c1.1,3.167,1.65,5.7,1.65,7.6
			c0,0.434-0.017,1.067-0.05,1.9c0,0.767,0.1,1.383,0.3,1.85c0.033,0.134,0.184,0.483,0.45,1.051c0.166,0.366,0.267,0.732,0.3,1.1
			c0.1,0.8-0.05,1.617-0.45,2.45c-0.566,1.133-0.883,1.899-0.95,2.3c-0.1,0.566,0.034,1.383,0.4,2.45
			c0.1,0.899,0.083,1.917-0.05,3.05c-0.167-0.2-0.434-0.367-0.8-0.5c-0.4-0.133-0.667-0.267-0.8-0.4
			c-0.267-0.232-0.517-0.816-0.75-1.75c-0.3-0.833-0.366-1.866-0.2-3.1c0.133-0.4,0.2-0.633,0.2-0.7c0.034-0.1-0.1-0.35-0.4-0.75
			c-0.533-0.533-0.867-0.95-1-1.25c-0.267-0.433-0.5-1.267-0.7-2.5c-0.333-1.933-0.284-3.217,0.15-3.85
			c0.2-0.333,0.65-0.7,1.35-1.101c0.433-0.3,0.617-0.833,0.55-1.6c-0.033-0.533-0.383-1.283-1.05-2.25
			c-0.6-0.867-0.833-1.617-0.7-2.25c0.1-0.5,0.533-0.95,1.3-1.35C76.954,230.544,77.312,230.252,77.375,230.025z M76.8,228.225
			c0.168,0.536,0.352,1.104,0.55,1.7c-0.465-0.303-0.665-0.761-0.6-1.375C76.757,228.422,76.773,228.314,76.8,228.225z"/>
		<path style="fill-rule:evenodd;clip-rule:evenodd;fill:#FFFFFF;" d="M78.5,263.3h2.4c0,0.533,0.033,1.333,0.1,2.4
			c0.033,0.967-0.017,1.75-0.15,2.35c-0.066,0.367-0.283,0.9-0.649,1.601c-0.333,0.699-0.533,1.232-0.601,1.6
			c-0.133,0.7-0.183,1.617-0.149,2.75c0.033,0.633,0.066,1.566,0.1,2.8c0,0.367,0.017,1.117,0.05,2.25
			c-0.033,1.033-0.283,1.667-0.75,1.9c-1.167,0.6-1.75-0.2-1.75-2.4c0.066-2.566-0.184-4.633-0.75-6.2
			c-0.033-0.066-0.2-0.35-0.5-0.85c-0.167-0.3-0.217-0.617-0.15-0.95c0.066-0.233,0.216-0.417,0.45-0.55
			c0.3-0.133,0.483-0.3,0.55-0.5c0.233-0.566,0.233-1.367,0-2.4c-0.267-1.199-0.367-2-0.3-2.399c0.1-0.634,0.4-0.95,0.9-0.95
			C77.934,263.75,78.333,263.6,78.5,263.3z"/>
		<path style="fill-rule:evenodd;clip-rule:evenodd;fill:#FFFFFF;" d="M78.5,286.1c1.1,0.434,1.6,1.851,1.5,4.25
			c-0.167,3.033-0.184,4.717-0.05,5.051c0.1,0.333,0.583,0.916,1.45,1.75c0.699,0.666,1,1.316,0.899,1.949
			c-0.066,0.4-0.25,0.7-0.55,0.9c-0.533,0.333-0.816,0.517-0.85,0.55c-0.533,0.566-0.884,1.384-1.051,2.45
			c-0.166,1.566,0.067,3.616,0.7,6.15c0.7,2.8,1.05,4.783,1.05,5.949c0,0.534-0.05,1.334-0.149,2.4c-0.134,1.033-0.2,1.833-0.2,2.4
			c0,1.866,0,2.899,0,3.1c-0.033,1.167-0.167,2.2-0.4,3.1c-1.199,0.267-1.833-1-1.899-3.8c0.167-3.1,0.25-4.883,0.25-5.35v-8.7
			c0-3.033-0.467-6.15-1.4-9.35c-0.7-2.267-1.05-4.817-1.05-7.65L78.5,286.1z"/>
		<path style="fill-rule:evenodd;clip-rule:evenodd;fill:#FFFFFF;" d="M78.5,340.95c1.533-0.233,2.367,0.816,2.5,3.149
			c0.066,1.267,0.033,2.983-0.1,5.15c0.066,0.467,0.233,1.1,0.5,1.9c0.3,0.833,0.483,1.449,0.55,1.85c0.066,0.533,0.1,1.233,0.1,2.1
			c-0.033,0.467-0.066,1.167-0.1,2.101c0,0.1-0.017,2.85-0.05,8.25c-0.033,3.233-0.017,5.95,0.05,8.149
			c-0.4-0.699-0.634-1.649-0.7-2.85c0-1.366,0-2.35,0-2.95c0-2.267,0-3.55,0-3.85c-0.033-1.434-0.167-2.684-0.4-3.75
			c-0.566-2.5-0.883-4.634-0.949-6.4c-0.033-0.633-0.167-1.866-0.4-3.7c-0.2-1.5-0.3-2.733-0.3-3.699
			c-0.101-1.034-0.15-1.834-0.15-2.4c0-1.033,0.167-1.816,0.5-2.35L78.5,340.95z"/>
		<path style="fill-rule:evenodd;clip-rule:evenodd;fill:#FFFFFF;" d="M88.8,152.6c-1.833,0.167-3.633,0.167-5.399,0
			c-3.934-0.333-6.083-1.483-6.45-3.45c2.2,0.7,5.2,1.333,9,1.9c4.899,0.7,7.583,0.517,8.05-0.55l1.55-0.5
			c-1.467,0.767-2.533,1.316-3.2,1.65C91.15,152.217,89.967,152.533,88.8,152.6z"/>
		<path style="fill-rule:evenodd;clip-rule:evenodd;fill:#FFFFFF;" d="M90.9,168.1c0.133,2-1.45,3.117-4.75,3.35
			c-3.267,0.267-5-0.467-5.2-2.2c-0.167-1.333,0.566-1.9,2.2-1.7c0.6,0.067,1.8,0.417,3.6,1.05L90.9,168.1z"/>
		<linearGradient id="SVGID_34_" gradientUnits="userSpaceOnUse" x1="80.5625" y1="407.8857" x2="85.0375" y2="407.8857">
			<stop  offset="0" style="stop-color:#EBFBFC;stop-opacity:0.3882"/>
			<stop  offset="0.4118" style="stop-color:#E8FBFC;stop-opacity:0.4353"/>
			<stop  offset="0.7765" style="stop-color:#E1FAFD;stop-opacity:0.5765"/>
			<stop  offset="1" style="stop-color:#DAF9FF;stop-opacity:0.7176"/>
		</linearGradient>
		<path style="fill-rule:evenodd;clip-rule:evenodd;fill:url(#SVGID_34_);" d="M80.6,400.1c-0.3-6.267-0.232-7.216,0.2-2.85
			c0.367,3.4,0.733,5.616,1.101,6.65c0.3,0.8,0.8,1.199,1.5,1.199c0.399,0,0.899-0.6,1.5-1.8H85c0.033,0.2,0.05,0.7,0.05,1.5
			c0,0.767-0.133,1.55-0.399,2.351c-0.367,1.033-0.584,1.75-0.65,2.149c-0.3,1.7-0.25,3.4,0.15,5.101
			c0.199,0.899,0.483,2.033,0.85,3.399c0.2,2.066-0.6,3.2-2.4,3.4c-0.5,0.066-0.866-0.167-1.1-0.7c-0.267-0.566-0.3-1.35-0.1-2.35
			c0.533-1.367,0.916-2.684,1.149-3.95c0.5-2.367,0.367-4.283-0.399-5.75C81.316,406.85,80.8,404.066,80.6,400.1z"/>
		<path style="fill-rule:evenodd;clip-rule:evenodd;fill:#FFFFFF;" d="M80.95,394.2c-0.134,1.166-0.134,2.75,0,4.75
			c0.1,2.066,0.3,3.816,0.6,5.25c0.267,1.366,0.867,2.333,1.8,2.899l-0.25-0.05c-0.199-0.033-0.333,0.2-0.399,0.7
			c-0.134,0.566-0.083,1.184,0.149,1.85c0.268,0.801,0.384,1.733,0.351,2.801c-0.033,1.133-0.233,2-0.601,2.6
			c-0.433,0.733-0.783,2.217-1.05,4.45c-0.133,0.833,0.217,1.416,1.05,1.75c-0.533,0.333-0.949,0.05-1.25-0.851
			c-0.267-0.933-0.017-2.649,0.75-5.149c0.301-0.867,0.45-1.7,0.45-2.5c0.033-0.8-0.083-1.95-0.35-3.45
			c-0.134-0.767-0.483-2.417-1.05-4.95c-0.5-2.066-0.767-3.434-0.801-4.1c-0.033-0.767,0.067-2.05,0.301-3.851L80.95,394.2z"/>
		<path style="fill-rule:evenodd;clip-rule:evenodd;fill:#FFFFFF;" d="M82.3,417.45c0.533-1.233,0.8-0.684,0.8,1.649
			c0,0.467-0.066,0.817-0.199,1.051c-0.167,0.233-0.367,0.267-0.601,0.1c-0.233-0.134-0.333-0.566-0.3-1.3
			C82.033,418.25,82.134,417.75,82.3,417.45z"/>
		<path style="fill-rule:evenodd;clip-rule:evenodd;fill:#FFFFFF;" d="M55.1,60.65l0.5-12.25l1.05,0.8c0.7,0.6,1.1,1.083,1.2,1.45
			c0.267,0.9,0.1,3.35-0.5,7.35c-0.233,1.667-0.483,3.316-0.75,4.95c-0.133,1.466-0.184,4.616-0.15,9.45
			c0.066,3.833,0.333,5.967,0.8,6.4c1.4,1.167,2.883,3.783,4.45,7.85c2.2,5.7,3.2,10.417,3,14.15c-0.133,2.333-0.833,4.533-2.1,6.6
			c-0.733,1.2-0.883,2.617-0.45,4.25c0.267,1,0.833,2.784,1.7,5.35c0.733,2.934,1.183,9.983,1.35,21.15c0,0.2,0.117,1.75,0.35,4.65
			c0.134,3.3,0.017,6.083-0.35,8.35c-0.333,2.233-0.367,3.85-0.1,4.85c0.2,0.7,0.7,2.25,1.5,4.65c0.3,1.233,0.333,2.55,0.1,3.95
			c-0.167,1.133,0.333,3.483,1.5,7.05c1.367,4.067,2.017,6.3,1.95,6.7c-0.1,0.367-0.667,0.8-1.7,1.3c-0.7,0.9-0.9,4.5-0.6,10.8
			c0.267,5.1,0.6,9,1,11.7c0.167,1.1,0.967,2.083,2.4,2.95c0.467,0.267,0.684,0.433,0.65,0.5c-0.033,0.167-0.45,0.316-1.25,0.45
			c-1.433,0.267-1.983,2.05-1.65,5.351c0.2,1.967,0.733,5.55,1.6,10.75c0.333,3.066,0.45,5.149,0.35,6.25
			c-0.233,2.566-0.35,4.316-0.35,5.25c-0.067,2.232-0.067,3.866,0,4.899c0.033,1.134,0.033,2.75,0,4.851
			c-0.067,2.533,0.367,6.399,1.3,11.6c1,5.767,1.517,8.934,1.55,9.5c0.066,1.066,0.35,2.684,0.85,4.85c0.467,2,0.733,3.884,0.8,5.65
			c0.033,1.633-0.05,4.434-0.25,8.4c-0.133,3.732,0.033,6.767,0.5,9.1c0.5,2.633,0.933,6.25,1.3,10.85
			c0.3,3.867,0.45,6.667,0.45,8.4c0,2.267-0.05,4.316-0.15,6.15c-0.034,1.199,0.133,4.366,0.5,9.5c0.1,1.399,0.983,2.666,2.649,3.8
			c0.867,0.566,1.7,1,2.5,1.3c-0.767,0.6-1.649,0.733-2.649,0.4c-0.434-0.134-0.917-0.567-1.45-1.301c-0.233-0.3-0.333,0-0.3,0.9
			c0.1,1.667,0.15,6.55,0.15,14.65c0.033,2.666,0.45,8.8,1.25,18.399c0.601,7.467,1.051,12.667,1.351,15.601
			c0.167,1.666,0.167,5.616,0,11.85c-0.4-6.167-0.684-10.116-0.851-11.85c-0.633-6.867-1.017-12.25-1.149-16.15
			c-0.034-1.8-0.284-5.033-0.75-9.7c-0.467-4.899-0.717-7.866-0.75-8.899c-0.2-7.534-0.4-12.5-0.6-14.9L75.6,314
			c-0.233-5.9-0.367-9.65-0.4-11.25c-0.034-1.1-0.4-4.566-1.1-10.4c-0.667-5.566-1.133-9.183-1.4-10.85
			c-0.267-1.633-0.5-3.733-0.7-6.3c-0.233-2.767-0.333-4.917-0.3-6.45c0.066-1.5-0.367-8.6-1.3-21.3
			c-0.933-12.367-1.533-19.601-1.8-21.7c-0.2-1.434-0.434-4.6-0.7-9.5c-0.333-5.267-0.517-8.133-0.55-8.6
			c0-0.1-0.167-1.083-0.5-2.95c-0.133-0.8-0.067-1.384,0.2-1.75c0.233-0.267,0-3.667-0.7-10.2c-0.733-6.9-0.983-10.983-0.75-12.25
			c0.267-1.633,0.2-4.467-0.2-8.5c-0.333-3.533-0.733-6.316-1.2-8.35c-0.3-1.433-0.667-4.95-1.1-10.55
			c-0.467-6.8-0.817-11.65-1.05-14.55c-0.167-2.433-0.65-6.25-1.45-11.45c-0.6-4.067-0.85-7.1-0.75-9.1
			c0.167-3.8,0.017-9.283-0.45-16.45c-0.6-8.9-1.5-15.75-2.7-20.55C55.567,76.467,55.033,69.684,55.1,60.65z"/>
		<path style="fill-rule:evenodd;clip-rule:evenodd;fill:#A4B6C8;" d="M93.45,87.5c0.366-0.934,0.583-1.434,0.649-1.5
			c0.101-0.1,0.733-0.267,1.9-0.5c0.934-0.2,1.55-0.417,1.85-0.65c-0.366,0.667-0.833,1.517-1.399,2.55
			c-0.601,0.867-1.2,1.45-1.8,1.75l-2.101,0.8C92.75,89.55,93.05,88.733,93.45,87.5z"/>
		<path style="fill-rule:evenodd;clip-rule:evenodd;fill:#A4B6C8;" d="M103.15,81.9c0.1,0.233,0.199,0.967,0.3,2.2
			c0.066,0.633,0.116,1.333,0.149,2.1c0.101,0.566,0.384,1.167,0.851,1.8c0.133,0.2,0.533,0.617,1.2,1.25
			c0.433,0.434,0.717,0.85,0.85,1.25c0.134,0.4,0.2,1.017,0.2,1.85c-0.333-1.233-0.95-2.217-1.851-2.95
			c-0.767-0.633-1.866-1.133-3.3-1.5c-0.166-2.567-0.399-4.517-0.7-5.85c-0.466-0.1-0.982,0.134-1.55,0.7
			c0.3-0.633,0.533-1.05,0.7-1.25c0.333-0.333,0.816-0.5,1.45-0.5C102.316,80.967,102.884,81.267,103.15,81.9z"/>
		<path style="fill-rule:evenodd;clip-rule:evenodd;fill:#A4B6C8;" d="M87.75,95.1l1.15-1.05C88.066,95.983,87.3,97.3,86.6,98
			c-1.6,1.6-3.283,2.184-5.05,1.75c-1.1-0.233-2.8-1.15-5.1-2.75c-2.333-1.033-4.133-1.9-5.4-2.6c-2.366-1.233-3.4-2.7-3.1-4.4
			l4.2-5.1l10.8,12.6C84.517,97.533,86.117,96.733,87.75,95.1z"/>
		<path style="fill-rule:evenodd;clip-rule:evenodd;fill:#A4B6C8;" d="M66.3,84.4c-1.033-1.067-1.983-1.7-2.85-1.9l-0.6-0.05
			c-0.733-0.534-1.567-0.833-2.5-0.9c-0.934-0.066-1.817,0.1-2.65,0.5l-0.05-0.45l4.05-8.9l8.65,10.1
			c-0.3,3.434-1.067,4.983-2.3,4.65C68.017,86.55,67.434,85.533,66.3,84.4z"/>
		<path style="fill-rule:evenodd;clip-rule:evenodd;fill:#7992AA;" d="M75.3,60.2c9.867-1.034,19.467-1.45,28.8-1.25
			c2.334-0.2,4.483-0.017,6.45,0.55L109.65,81l-1.601,15.7l-0.8,4.25c-0.533-0.367-0.9-0.75-1.1-1.15
			c-0.467-0.933-0.551-2.15-0.25-3.65c0.467-1.7,0.733-2.966,0.8-3.8c0-0.833-0.066-1.45-0.2-1.85c-0.133-0.4-0.417-0.816-0.85-1.25
			c-0.667-0.633-1.067-1.05-1.2-1.25c-0.467-0.633-0.75-1.233-0.851-1.8c-0.033-0.767-0.083-1.467-0.149-2.1
			c-0.101-1.233-0.2-1.967-0.3-2.2c-0.267-0.633-0.834-0.933-1.7-0.9c-0.634,0-1.117,0.167-1.45,0.5c-0.167,0.2-0.4,0.617-0.7,1.25
			l-0.45,0.9c-0.433,0.633-0.767,1.034-1,1.2c-0.3,0.233-0.916,0.45-1.85,0.65c-1.167,0.233-1.8,0.4-1.9,0.5
			c-0.066,0.066-0.283,0.566-0.649,1.5c-0.4,1.233-0.7,2.05-0.9,2.45c-0.399,0.933-0.967,1.733-1.7,2.4
			c-0.199,0.233-0.85,0.8-1.949,1.7l-1.15,1.05c-1.633,1.633-3.233,2.433-4.8,2.4l-27.1-31.65c-0.1-1.1-0.15-2.217-0.15-3.35
			c2.466-0.066,5.833-0.4,10.1-1C71.133,60.733,74.3,60.3,75.3,60.2z"/>
	</g>
	<g>
		<path style="fill-rule:evenodd;clip-rule:evenodd;fill:#FFFFFF;" d="M145.7,16.7c-2.066-0.767-3.783-1.167-5.15-1.2l0.4,2.95
			c0,0.333,0.066,1.05,0.2,2.15c0.066,1.033,0.017,1.733-0.15,2.1c-0.467,1.066-2.033,1.75-4.7,2.05
			c0.267,0.467,1.134,0.833,2.601,1.1c1.366,0.233,2.166,0.617,2.399,1.15c0.467,1,0,2.033-1.399,3.1
			c-0.733,0.566-1.801,1.217-3.2,1.95c-0.634,0.467-1.45,1.083-2.45,1.85c-0.833,0.533-1.733,0.8-2.7,0.8
			c-3.1,0.133-5.399,0.1-6.899-0.1c0-0.5-0.084-1.817-0.25-3.95c-0.134-1.633-0.167-2.967-0.101-4c0.033-0.733,0.217-1.45,0.55-2.15
			l0.45-0.5c0.267-0.3,0.483-0.717,0.65-1.25c1.5-1.967,2.3-3.033,2.399-3.2c0.9-1.433,1.567-2.383,2-2.85
			c0.733-0.8,1.134-1.3,1.2-1.5c0.767,0.233,1.533,0.383,2.3,0.45c1.034,0.067,3.051,0.017,6.051-0.15
			c1.267-0.067,2.666,0.133,4.199,0.6C144.533,16.233,145.066,16.433,145.7,16.7z M153.025,21c0.483,0.36,0.934,0.677,1.35,0.95
			c-0.267-0.167-0.542-0.35-0.825-0.55C153.365,21.263,153.19,21.129,153.025,21z M90.75,2.55c0.833-0.5,1.55-0.783,2.15-0.85
			c1.466-0.167,3.683-0.15,6.649,0.05c3.4,0.233,7.8,1.133,13.2,2.7c2.733,0.8,5.083,1.75,7.05,2.85c0.634,1.067,1,1.767,1.101,2.1
			c0.133,0.467,0.149,1.567,0.05,3.3c-0.066,2.133-0.417,3.683-1.05,4.65c-0.467,0.7-1.167,1.233-2.101,1.6
			c-1.133,0.367-1.983,0.7-2.55,1c-0.733,0.4-1.35,0.633-1.85,0.7c-0.667,0.1-1.367,0-2.101-0.3c-1.233-0.5-2.383-1.85-3.45-4.05
			c-1.1-2.433-2.866-4.066-5.3-4.9c-2.934-1-4.666-1.617-5.2-1.85c-1.899-0.767-3.483-1.733-4.75-2.9
			C91.9,6.017,91.417,5.367,91.15,4.7C91.017,4.3,90.884,3.583,90.75,2.55z M84.75,4.45c-1.267,0.033-2.517-0.133-3.75-0.5l0.7,0.7
			c0.467,0.5,1.083,1.3,1.85,2.4c0.733,1.1,1.334,1.9,1.8,2.4c0.934,0.9,2.434,1.7,4.5,2.4c2.534,0.867,4.134,1.5,4.801,1.9
			c1.733,1.067,3.116,2.283,4.149,3.65c1.3,1.667,1.816,3.333,1.55,5C97.783,23.367,96,24.117,95,24.65l-0.25,0.05l-2.2-0.05
			c-1.566-0.3-2.883-0.65-3.95-1.05c-1.733-0.567-3.583-1.583-5.55-3.05c-0.866-0.6-2.3-1.5-4.3-2.7
			c-1.9-1.133-3.317-2.05-4.25-2.75c-2.9-2.133-4.783-3.483-5.65-4.05l-1.15-0.7c-0.567-0.367-1.167-0.583-1.8-0.65
			c-0.3-0.034-1-0.034-2.1,0c-2.6,0-4.566,0.117-5.9,0.35c0.2,0.3,0.6,0.6,1.2,0.9c0.8,0.4,1.25,0.633,1.35,0.7
			c1.033,0.7,1.933,1.7,2.7,3c1.233,2.3,1.95,4.2,2.15,5.7c0.167,1.033,0.184,2.117,0.05,3.25c-0.2,1.267-0.55,2.2-1.05,2.8
			c-0.7,0.867-1.7,1.4-3,1.6c-1.1,0.167-2.267,0.083-3.5-0.25c-0.566-0.133-1.7-0.833-3.4-2.1c-1.566-1.167-2.667-1.767-3.3-1.8
			l0.25-0.75c0.467-1.133,0.733-1.883,0.8-2.25c0.167-0.733,0.133-1.517-0.1-2.35c-0.167-0.667-0.533-1.417-1.1-2.25
			c-0.633-0.933-1.1-1.633-1.4-2.1c-0.4-0.7-1-1.45-1.8-2.25c-1.067-1.1-1.717-1.8-1.95-2.1c-1,0.4-2.017,0.7-3.05,0.9
			c2.633-0.6,5.733-1.95,9.3-4.05c4.934-2.867,8.517-4.583,10.75-5.15c0.133,0.067,1.317-0.167,3.55-0.7
			c2.267-0.533,3.467-0.8,3.6-0.8c1.066,0.2,4.183,1.317,9.35,3.35C81.167,4.083,82.983,4.45,84.75,4.45z M105.85,82.1
			c-0.233-0.867-0.316-1.567-0.25-2.1c0.367-1,0.65-1.783,0.851-2.35c0.333-1,0.25-1.733-0.25-2.2
			c-0.434-0.434-1.384-0.667-2.851-0.7c-0.199,0-0.399,0-0.6,0c-0.4,0-0.767,0.017-1.1,0.05c0.533-0.066,1.1-0.083,1.699-0.05
			l-0.1-0.65c-0.066-0.267-0.25-0.767-0.55-1.5c-0.233-0.6-0.367-1.117-0.4-1.55l1-0.6c0.8-0.434,1.733-0.733,2.8-0.9
			c1.2-0.233,2.167-0.2,2.9,0.1c0.833,0.367,1.467,1.25,1.9,2.65c0.3,1.067,0.433,2.217,0.399,3.45
			c-0.033,1.033-0.55,2.517-1.55,4.45c-0.934,1.767-1.316,3.283-1.15,4.55c-0.433-0.1-0.899-0.417-1.399-0.95
			c-0.101-0.1-0.483-0.583-1.15-1.45L105.85,82.1z M127.3,13.05l-2.5-2l-0.55-0.5c1.7,1.434,2.95,2.417,3.75,2.95
			c1.2,0.767,2.384,1.333,3.55,1.7C130.25,14.833,128.833,14.117,127.3,13.05z M71.4,64.7l-1.5-4.85l-0.05-0.1l0.1-2
			c0-3.1-0.083-5.417-0.25-6.95c-0.167-1.433-0.2-2.8-0.1-4.1c0.066-0.7,0.433-1.367,1.1-2c1.066-1,1.65-1.567,1.75-1.7
			c0.566-0.733,0.95-1.667,1.15-2.8c0.133-1.367,0.25-2.4,0.35-3.1c0.233-1.333,0.433-2.2,0.6-2.6c0.367-0.933,0.967-1.55,1.8-1.85
			c0.8-0.267,1.9-0.217,3.3,0.15c2.033,0.534,3.133,0.8,3.3,0.8c2.066,0.233,3.983,0.15,5.75-0.25c1.666-0.4,3.383-1.133,5.149-2.2
			l2.5-1.45c0.733-0.067,1.384-0.233,1.95-0.5c0.634-0.3,1.351-0.784,2.15-1.45c0.866-0.767,1.517-1.333,1.95-1.7
			c1.267-0.533,2.316-0.783,3.149-0.75c0.267,0.333,0.55,1.083,0.851,2.25c0.466,2.1,0.466,4.05,0,5.85
			c-0.134,0.434-0.584,1.15-1.351,2.15c-0.7,0.934-1.083,1.65-1.149,2.15c-0.067,0.566,0.1,1.383,0.5,2.45
			c0.366,1.067,0.767,1.783,1.199,2.15c0.101,0.1,0.267,0.133,0.5,0.1c0.2,0,0.351,0.033,0.45,0.1c0.101,0.067,0.267,0.317,0.5,0.75
			c0.3,0.367,0.634,1.083,1,2.15c0.533,1.167,0.884,2.133,1.05,2.9c0.233,1,0.267,2.017,0.101,3.05c-0.267,1.767-0.7,3.316-1.3,4.65
			c-0.467,0.967-1.2,1.7-2.2,2.2c-0.733,0.367-1.767,0.65-3.101,0.85l-0.649-1.95c0.066,0.767,0.033,1.467-0.101,2.1
			c-2.566,0.333-4.333,0.8-5.3,1.4l-0.35,0.2c-1.7-0.9-3.033-1.566-4-2c-1.733-0.733-3.117-0.983-4.15-0.75
			c0.566,0.667,2.084,2.067,4.55,4.2c1.767,1.967,1.551,3.45-0.649,4.45c-0.7,0.3-1.634,0.45-2.8,0.45
			c-1.301-0.3-2.267-0.517-2.9-0.65c-1.167-0.267-2.15-0.35-2.95-0.25c-0.5,0.067-2.066,0.1-4.7,0.1c-3.067,0-5.633-1.217-7.7-3.65
			L71.4,64.7z M35.45,48.1L35.3,50c-0.1,0.967-0.3,1.817-0.6,2.55c-1.034,0.867-1.967,1.367-2.8,1.5
			c-3.167,0.5-7.417,0.25-12.75-0.75c-1.2-0.267-2.933-0.833-5.2-1.7c-0.934-0.533-1.967-1.117-3.1-1.75c-1.833-1-3.5-2.417-5-4.25
			c-1.5-1.767-2.6-3.633-3.3-5.6c-0.466-1.3-0.917-3.633-1.35-7c-0.067-0.6-0.2-1.067-0.4-1.4c-0.167-0.3-0.283-0.8-0.35-1.5
			C0.417,28.3,0.367,26.933,0.3,26c-0.1-0.6-0.183-1.05-0.25-1.35C-0.017,24.15,0,23.7,0.1,23.3c0.633-0.066,1.383-0.683,2.25-1.85
			c0.9-1.233,1.65-1.934,2.25-2.1c1.867-0.467,4.667-1.067,8.4-1.8c3.3-0.733,6-1.667,8.1-2.8c1.566-0.8,2.85-1.683,3.85-2.65
			c0.1-0.1,0.466-0.533,1.1-1.3c0.467-0.566,0.867-0.933,1.2-1.1c0.7-0.3,1.883-0.35,3.55-0.15c0.467,0.067,1,0.133,1.6,0.2
			c0.1,0.7,0.35,1.317,0.75,1.85c0.3,0.433,0.883,1.017,1.75,1.75c1.867,1.533,2.9,2.4,3.1,2.6c1.167,1.033,2.067,2.05,2.7,3.05
			c0.933,1.4,1.233,2.933,0.9,4.6c-0.3,1.467-1.05,2.85-2.25,4.15c-0.2,0.233-0.417,0.467-0.65,0.7c-0.2,0.167-0.367,0.433-0.5,0.8
			c-0.167,0.467-0.25,1.383-0.25,2.75c0,0.667,0.033,1.667,0.1,3c0,1.2-0.033,2.183-0.1,2.95c-0.1,0.933-0.434,1.65-1,2.15
			c-0.467,0.433-1.233,0.767-2.3,1c-1.033,0.133-1.617,0.233-1.75,0.3c-0.433,0.267-0.6,0.617-0.5,1.05
			c0.1,0.267,0.267,0.733,0.5,1.4c0.133,0.767,0.15,1.9,0.05,3.4c0.2,0.067,0.6,0.2,1.2,0.4C34.717,47.817,35.15,47.967,35.45,48.1z
			 M68.4,75.2c-0.333,0.367-0.583,0.733-0.75,1.1l0.15-0.05c-0.267,0.433-0.55,0.8-0.85,1.1c-0.9,0.933-1.983,1.5-3.25,1.7
			c-1.534,0.067-2.767,0.184-3.7,0.35c0.267,0.233,0.7,0.4,1.3,0.5l-0.7,0.15h-0.4L57.95,78l-0.75-0.3c-0.7-1.5-1.367-2.45-2-2.85
			c-0.067,0.566,0.017,1.283,0.25,2.15c-2.467-1.067-4.267-2.15-5.4-3.25c-0.867-0.8-1.85-2.3-2.95-4.5
			c-0.833-2.133-1.517-3.45-2.05-3.95c-0.733,3.633-1.117,6.083-1.15,7.35s0.1,2.184,0.4,2.75c0.267,0.567,0.9,1.2,1.9,1.9
			c3.333,2.167,7.383,3.467,12.15,3.9h0.3c-0.1,0.066-0.2,0.133-0.3,0.2c-0.333,0.267-0.55,0.717-0.65,1.35
			c-0.167,0.9-0.267,1.4-0.3,1.5c-0.3-0.2-0.75-0.283-1.35-0.25c-0.733,0-1.2-0.017-1.4-0.05c-0.433-0.1-0.883-0.3-1.35-0.6
			c-0.533-0.333-0.95-0.583-1.25-0.75c-1.267-0.8-2.15-1.3-2.65-1.5c-0.333-0.133-0.933-0.283-1.8-0.45
			c-0.7-0.133-1.267-0.333-1.7-0.6c-2.6-1.533-4.6-2.933-6-4.2c-1.7-1.533-3.25-3.467-4.65-5.8c-0.733-1.233-1.167-2.133-1.3-2.7
			c-0.167-1.2-0.3-2.117-0.4-2.75c-0.167-1.133-0.466-2-0.9-2.6c-0.1-0.133-0.217-0.267-0.35-0.4c0.1-0.5,0.267-0.95,0.5-1.35
			c0.4-0.067,0.75-0.25,1.05-0.55c0.433-0.367,0.917-0.934,1.45-1.7c1-0.6,1.767-1.15,2.3-1.65c0.7-0.667,1.233-1.467,1.6-2.4
			c0.267-0.733,0.3-1.883,0.1-3.45c-0.2-1.667-0.216-2.817-0.05-3.45c0.267-1,0.967-2.017,2.1-3.05c0.333-0.3,1-0.717,2-1.25
			c0.867-0.467,1.467-0.933,1.8-1.4c0.3-0.434,0.533-0.983,0.7-1.65c0.167-0.767,0.283-1.35,0.35-1.75l0.25-1.05
			c0.566,0.333,1.517,0.85,2.85,1.55c1.8,1.1,2.733,1.667,2.8,1.7c0.8,0.267,1.733,0.1,2.8-0.5c2.767-1.633,4.2-2.467,4.3-2.5
			c1.6-1.033,2.867-2.083,3.8-3.15c0.667-0.8,1.167-1.383,1.5-1.75c0.6-0.667,1.2-1.167,1.8-1.5c0.267-0.167,0.583-0.317,0.95-0.45
			c0.333-0.033,0.7-0.15,1.1-0.35c0.733-0.2,1.617-0.3,2.65-0.3c0.6,0,1.583,0.017,2.95,0.05H71.6c-0.2,0.566-0.35,2.566-0.45,6
			c-0.1,2.6-0.717,4.4-1.85,5.4c-0.466,0.433-1.133,0.95-2,1.55V37.7l-1.35,6.65v0.05l-0.1,0.2c-0.2,0.533-0.317,1.367-0.35,2.5
			c-0.067,1.2-0.167,2.033-0.3,2.5s-0.55,1.2-1.25,2.2c-0.633,0.9-0.983,1.617-1.05,2.15c-1.3,0.3-3,0.267-5.1-0.1
			c-2.333-0.4-4.05-0.55-5.15-0.45c-0.1,0.6-0.133,1.367-0.1,2.3c0,0.5,0.017,1.267,0.05,2.3c0,1.6-0.033,2.65-0.1,3.15
			c0.8-1.667,2.117-2.767,3.95-3.3c1.867-0.533,3.583-0.283,5.15,0.75c1.4,0.9,2.633,2,3.7,3.3c0.633,0.8,1.483,2.1,2.55,3.9
			L68,67.1c0.167,0.733,0.617,1.95,1.35,3.65v-0.5l0.05,1.4c0,0.467-0.05,0.917-0.15,1.35C69.05,73.667,68.767,74.4,68.4,75.2z
			 M66.6,79.3c1.133-0.8,1.967-1.383,2.5-1.75c-0.267,0.733-0.583,1.233-0.95,1.5C67.917,79.217,67.4,79.3,66.6,79.3z M71.5,96.2
			l1.85,1.4c-0.267-0.167-0.567-0.383-0.9-0.65C72.05,96.65,71.733,96.4,71.5,96.2z M69.5,94.5c-0.5-0.533-0.9-1.1-1.2-1.7
			c-0.6-1.133-1.033-2.55-1.3-4.25c-0.2-1.9-0.4-3.367-0.6-4.4c-0.066-0.4-0.167-0.767-0.3-1.1c1.333-0.367,2.5-1.267,3.5-2.7
			c1.3-1.967,2.417-3.467,3.35-4.5c1.4-1.633,2.816-2.817,4.25-3.55c0.733-0.367,1.55-0.55,2.45-0.55
			c1.066-0.033,1.816,0.267,2.25,0.9c0.233,0.333,0.25,1.1,0.05,2.3c0.033,0.3,0.1,1.05,0.2,2.25c0.1,0.9,0.149,1.65,0.149,2.25
			c0,0.533,0.017,1.35,0.05,2.45c0.034,1-0.017,1.8-0.149,2.4l-0.45,0.1c0.3,0.467,0.333,1.267,0.1,2.4c-0.1,0.6-0.3,1.417-0.6,2.45
			c-0.533,2.4-1.2,3.983-2,4.75c-0.5,0.467-0.783,0.7-0.85,0.7c-0.4-0.034-0.7-0.034-0.9,0c-1.233,0.233-2.583,0.3-4.05,0.2
			c-1.7-0.1-3.15-0.4-4.35-0.9C69.233,94.167,69.367,94.333,69.5,94.5z M22.65,55.75c0.067,0,0.133,0.017,0.2,0.05
			c0.157,0.067,0.315,0.134,0.475,0.2C23.105,55.915,22.88,55.831,22.65,55.75z"/>
		<path style="fill-rule:evenodd;clip-rule:evenodd;fill:#F4FAFA;" d="M125.95,22.75c0.267-0.633,0.483-1.45,0.649-2.45
			c0.167-1.1,0.284-1.9,0.351-2.4c0.233-1.267,0.35-2.333,0.35-3.2v-1.65c1.533,1.067,2.95,1.784,4.25,2.15
			c-0.066,0.2-0.467,0.7-1.2,1.5c-0.433,0.466-1.1,1.417-2,2.85C128.25,19.717,127.45,20.783,125.95,22.75z M150.65,19.25l-1.7,1.1
			l-0.25-0.25c-0.167,0.633-0.367,1.15-0.601,1.55c-0.233,0.367-0.6,0.8-1.1,1.3c-0.3,0.333-0.8,0.75-1.5,1.25
			c-0.566,0.466-0.866,0.966-0.9,1.5c-0.033,0.5,0.134,1.25,0.5,2.25c0.367,1.033,0.551,1.733,0.551,2.1
			c0.033,1.034-0.167,2.284-0.601,3.75c-0.366,1.333-0.833,2.517-1.399,3.55c-0.9,1.633-1.434,2.6-1.601,2.9
			c-0.733,1.167-1.434,1.983-2.1,2.45c-0.533,0.367-0.983,0.583-1.351,0.65c-0.533-0.033-1.083-0.033-1.649,0
			c-0.533,0.1-1.184,0.3-1.95,0.6c-1.066,0.4-1.717,0.633-1.95,0.7c-1,0.267-1.733,0.417-2.2,0.45
			c-0.833,0.033-1.466-0.184-1.899-0.65c-0.233-0.233-0.483-0.883-0.75-1.95c-0.2-0.867-0.5-1.317-0.9-1.35
			c-0.467,0.633-1.283,2.35-2.45,5.15c-1.267,2.4-2.666,3.267-4.199,2.6c-1-0.433-1.983-1.367-2.95-2.8
			c-0.101-0.133-0.8-1.333-2.101-3.6c-0.166-0.267-0.366-0.917-0.6-1.95l0.95-1.95c0.8-1.5,1.25-3.317,1.35-5.45
			c-0.033-2.533-0.033-4.467,0-5.8c0.3,0.066,0.634,0.066,1,0c2.9-0.267,5.084-1.217,6.55-2.85c-0.333,0.7-0.517,1.417-0.55,2.15
			c-0.066,1.033-0.033,2.367,0.101,4c0.166,2.133,0.25,3.45,0.25,3.95c1.5,0.2,3.8,0.233,6.899,0.1c0.967,0,1.867-0.267,2.7-0.8
			c1-0.767,1.816-1.383,2.45-1.85c1.399-0.733,2.467-1.383,3.2-1.95c1.399-1.067,1.866-2.1,1.399-3.1
			c-0.233-0.533-1.033-0.917-2.399-1.15c-1.467-0.267-2.334-0.633-2.601-1.1c2.667-0.3,4.233-0.983,4.7-2.05
			c0.167-0.367,0.217-1.067,0.15-2.1c-0.134-1.1-0.2-1.817-0.2-2.15l-0.4-2.95c1.367,0.033,3.084,0.433,5.15,1.2l0.7,0.25
			c0.5,0.2,1.05,0.433,1.649,0.7C148.616,17.883,149.483,18.417,150.65,19.25z M124.25,10.55l0.55,0.5
			c0.334,0.867,0.517,1.5,0.55,1.9c0.134,1.3,0.101,2.35-0.1,3.15c-0.233,0.8-0.733,1.75-1.5,2.85
			c-1.167,1.633-1.783,2.517-1.85,2.65c-0.767,0.867-1.634,1.483-2.601,1.85c-0.967,0.333-2.116,0.533-3.45,0.6
			c-0.366,0-1.566-0.017-3.6-0.05l-1.6-0.8c-1.467-0.5-2.7-0.983-3.7-1.45c-1.9-0.833-2.783-1.633-2.65-2.4L101.95,20
			c-0.533,1.067-0.983,1.817-1.351,2.25l-0.25,0.15c0.267-1.667-0.25-3.333-1.55-5c-1.033-1.367-2.416-2.583-4.149-3.65
			c-0.667-0.4-2.267-1.033-4.801-1.9c-2.066-0.7-3.566-1.5-4.5-2.4c-0.466-0.5-1.066-1.3-1.8-2.4c-0.767-1.1-1.383-1.9-1.85-2.4
			L81,3.95c1.233,0.367,2.483,0.533,3.75,0.5L88.6,3.7c0.4-0.133,1.117-0.517,2.15-1.15c0.134,1.034,0.267,1.75,0.4,2.15
			c0.267,0.667,0.75,1.316,1.449,1.95c1.267,1.167,2.851,2.133,4.75,2.9c0.534,0.233,2.267,0.85,5.2,1.85
			c2.434,0.833,4.2,2.467,5.3,4.9c1.067,2.2,2.217,3.55,3.45,4.05c0.733,0.3,1.434,0.4,2.101,0.3c0.5-0.066,1.116-0.3,1.85-0.7
			c0.566-0.3,1.417-0.633,2.55-1c0.934-0.367,1.634-0.9,2.101-1.6c0.633-0.967,0.983-2.517,1.05-4.65
			c0.1-1.733,0.083-2.833-0.05-3.3c-0.101-0.333-0.467-1.033-1.101-2.1c0-0.033-0.017-0.066-0.05-0.1
			c0.733,0.433,1.417,0.883,2.05,1.35L122.35,9c0.233,0.167,0.45,0.333,0.65,0.5L124.25,10.55z M108.6,84.75
			c-0.166-1.267,0.217-2.783,1.15-4.55c1-1.934,1.517-3.417,1.55-4.45c0.033-1.233-0.1-2.383-0.399-3.45
			c-0.434-1.4-1.067-2.283-1.9-2.65c-0.733-0.3-1.7-0.333-2.9-0.1c-1.066,0.167-2,0.467-2.8,0.9l-1,0.6v-0.4
			c-0.033-1.833,0.733-3.267,2.3-4.3c1.467-1,2.667-2.067,3.601-3.2c1.267-1.566,1.783-3.033,1.55-4.4
			c-0.6,0.833-1.1,1.417-1.5,1.75c-0.566,0.467-1.233,0.75-2,0.85c-1.2,0.1-2.066-0.05-2.6-0.45c-0.4-0.333-0.75-0.95-1.051-1.85
			c1.334-0.2,2.367-0.483,3.101-0.85c1-0.5,1.733-1.233,2.2-2.2c0.6-1.333,1.033-2.883,1.3-4.65c0.166-1.033,0.133-2.05-0.101-3.05
			c-0.166-0.767-0.517-1.733-1.05-2.9c-0.366-1.066-0.7-1.783-1-2.15c-0.233-0.433-0.399-0.683-0.5-0.75
			c-0.1-0.067-0.25-0.1-0.45-0.1c-0.233,0.033-0.399,0-0.5-0.1c-0.433-0.367-0.833-1.083-1.199-2.15
			c-0.4-1.066-0.567-1.883-0.5-2.45c0.066-0.5,0.449-1.217,1.149-2.15c0.767-1,1.217-1.716,1.351-2.15c0.466-1.8,0.466-3.75,0-5.85
			c-0.301-1.167-0.584-1.917-0.851-2.25c0.934,0.133,1.733,0.483,2.4,1.05c1.233,1,1.95,2.417,2.149,4.25
			c0.2,1.867-0.199,3.367-1.199,4.5c-0.2,0.233-0.617,0.633-1.25,1.2c-0.567,0.567-0.917,1.017-1.051,1.35
			c-0.366,0.767-0.283,1.783,0.25,3.05c0.334,0.7,0.867,1.65,1.601,2.85c0.399,0.767,0.967,1.75,1.7,2.95
			c0.533,1,0.833,2.033,0.899,3.1c0.101,1.033,0.2,2.583,0.3,4.65c0.134-0.233,0.233-0.783,0.301-1.65l0.05-0.15
			c0.2,0.333,0.85,0.783,1.95,1.35c1.233,0.633,1.949,1.05,2.149,1.25c0.8,0.733,1.3,1.367,1.5,1.9c0.367,0.933,0.267,2.267-0.3,4
			c-0.3,0.966-0.767,2.333-1.4,4.1c-0.433,1.567-0.449,3.434-0.05,5.6c0,1.067-0.083,2.184-0.25,3.35
			c-0.233,1.467-0.35,2.7-0.35,3.7c0,0.167,0.033,0.517,0.1,1.05c0.033,0.5,0.017,0.833-0.05,1c-0.167,0.4-0.384,0.6-0.65,0.6
			c-0.366-0.033-0.716-0.033-1.05,0c-0.7,0.1-1.316,0.417-1.85,0.95c-0.3,0.3-0.566,0.817-0.8,1.55s-0.467,1.2-0.7,1.4
			C109.517,84.65,109.066,84.817,108.6,84.75z M102.4,26.05c-0.434,0.367-1.084,0.934-1.95,1.7c-0.8,0.667-1.517,1.15-2.15,1.45
			c-0.566,0.267-1.217,0.433-1.95,0.5l-2.5,1.45c-1.767,1.067-3.483,1.8-5.149,2.2c-1.767,0.4-3.684,0.483-5.75,0.25
			c-0.167,0-1.267-0.267-3.3-0.8c-1.4-0.367-2.5-0.417-3.3-0.15c-0.833,0.3-1.434,0.917-1.8,1.85c-0.167,0.4-0.367,1.267-0.6,2.6
			c-0.1,0.7-0.217,1.733-0.35,3.1c-0.2,1.133-0.583,2.066-1.15,2.8c-0.1,0.133-0.684,0.7-1.75,1.7c-0.667,0.633-1.034,1.3-1.1,2
			c-0.1,1.3-0.067,2.667,0.1,4.1c0.167,1.534,0.25,3.85,0.25,6.95l-0.1,2c-0.7-1.5-1.217-2.65-1.55-3.45
			c-0.633-1.433-0.966-2.633-1-3.6L66.95,56c-0.1,0.9,0.15,2.15,0.75,3.75c0.733,1.9,1.133,3.167,1.2,3.8
			c0.167,1.333,0.283,2.817,0.35,4.45l0.1,2.25v0.5c-0.733-1.7-1.184-2.917-1.35-3.65l-0.15-1.3c-1.067-1.8-1.917-3.1-2.55-3.9
			c-1.066-1.3-2.3-2.4-3.7-3.3c-1.567-1.033-3.283-1.283-5.15-0.75c-1.833,0.533-3.15,1.633-3.95,3.3c0.067-0.5,0.1-1.55,0.1-3.15
			c-0.033-1.033-0.05-1.8-0.05-2.3c-0.033-0.934,0-1.7,0.1-2.3c1.1-0.1,2.817,0.05,5.15,0.45c2.1,0.367,3.8,0.4,5.1,0.1
			c0.067-0.534,0.417-1.25,1.05-2.15c0.7-1,1.117-1.733,1.25-2.2s0.233-1.3,0.3-2.5c0.033-1.133,0.15-1.967,0.35-2.5l0.1-0.2
			c0,1.7-0.017,2.717-0.05,3.05c-0.066,1.1-0.3,2.1-0.7,3c-0.133,0.333-0.5,1.05-1.1,2.15c-0.367,0.933-0.083,1.417,0.85,1.45
			c0.7,0,1.2-0.4,1.5-1.2c0.167-0.4,0.316-1.1,0.45-2.1c0.267-2.367,0.4-5.067,0.4-8.1c0.867-0.6,1.534-1.117,2-1.55
			c1.133-1,1.75-2.8,1.85-5.4c0.1-3.434,0.25-5.434,0.45-6h2.35c-1.367-0.034-2.35-0.05-2.95-0.05c-1.033,0-1.917,0.1-2.65,0.3
			c0.2-0.1,0.733-0.55,1.6-1.35c0.767-0.733,1.25-1.267,1.45-1.6c0.333-0.533,0.517-1.217,0.55-2.05c0.066-1.6,0.05-2.667-0.05-3.2
			c-0.1-0.6-0.6-1.683-1.5-3.25c-0.8-1.367-1.167-2.417-1.1-3.15l-1.35,3.35c0.6,0.566,0.767,1.75,0.5,3.55
			c-0.233,1.6-0.633,2.767-1.2,3.5c-1.9,2.433-4.2,3.883-6.9,4.35c0.867,0.5,3.066,0.583,6.6,0.25l0.3-0.05
			c-0.367,0.133-0.683,0.284-0.95,0.45c-0.6,0.333-1.2,0.833-1.8,1.5C64.167,32.617,63.667,33.2,63,34
			c-0.933,1.067-2.2,2.117-3.8,3.15c-0.1,0.033-1.534,0.867-4.3,2.5c-1.066,0.6-2,0.767-2.8,0.5c-0.067-0.033-1-0.6-2.8-1.7
			c-1.333-0.7-2.283-1.217-2.85-1.55l-0.25,1.05c-0.067,0.4-0.184,0.983-0.35,1.75c-0.167,0.667-0.4,1.216-0.7,1.65
			c-0.333,0.467-0.933,0.933-1.8,1.4c-1,0.533-1.667,0.95-2,1.25c-1.133,1.033-1.833,2.05-2.1,3.05
			c-0.167,0.633-0.15,1.784,0.05,3.45c0.2,1.567,0.167,2.717-0.1,3.45c-0.367,0.933-0.9,1.733-1.6,2.4c-0.533,0.5-1.3,1.05-2.3,1.65
			c0.867-1.367,1.434-2.45,1.7-3.25c0.467-1.333,0.533-3.717,0.2-7.15c-0.067-0.934-0.15-1.5-0.25-1.7c-0.1-0.2-0.434-0.517-1-0.95
			L34.75,44c0.6,0.7,0.833,2.067,0.7,4.1c-0.3-0.133-0.733-0.283-1.3-0.45c-0.6-0.2-1-0.333-1.2-0.4c0.1-1.5,0.083-2.633-0.05-3.4
			c-0.233-0.667-0.4-1.133-0.5-1.4c-0.1-0.434,0.067-0.784,0.5-1.05c0.133-0.066,0.717-0.167,1.75-0.3
			c1.067-0.233,1.833-0.567,2.3-1c0.566-0.5,0.9-1.217,1-2.15c0.066-0.767,0.1-1.75,0.1-2.95c-0.066-1.333-0.1-2.333-0.1-3
			c0-1.367,0.083-2.283,0.25-2.75c0.133-0.367,0.3-0.633,0.5-0.8c0.233-0.233,0.45-0.467,0.65-0.7c1.2-1.3,1.95-2.683,2.25-4.15
			c0.333-1.667,0.033-3.2-0.9-4.6c-0.633-1-1.534-2.017-2.7-3.05c-0.2-0.2-1.233-1.067-3.1-2.6c-0.867-0.733-1.45-1.317-1.75-1.75
			c-0.4-0.533-0.65-1.15-0.75-1.85c0.533,0.067,1.133,0.15,1.8,0.25c0.833,0.067,2.05,0.133,3.65,0.2
			c0.833,0.667,1.867,0.933,3.1,0.8c0.133,0,0.283-0.017,0.45-0.05c0.2,0.433,0.55,1.1,1.05,2c0.433,0.8,0.716,1.383,0.85,1.75
			l1.25,3.05c0.5,1.333,0.75,3.317,0.75,5.95c0,0.267,0.034,0.716,0.1,1.35c0,0.567-0.033,1-0.1,1.3c-0.066,0.233-0.25,0.566-0.55,1
			c-0.267,0.367-0.417,0.7-0.45,1c-0.033,0.233-0.15,1.117-0.35,2.65c-0.3,1.833-0.4,3.133-0.3,3.9L45,33.65
			c0.667-0.566,1.1-0.983,1.3-1.25c0.4-0.533,0.65-1.183,0.75-1.95L47.6,24c0.1-1.3-0.033-2.7-0.4-4.2
			c-0.2-0.867-0.617-2.216-1.25-4.05c-0.233-0.733-0.6-1.45-1.1-2.15c-0.633-0.767-1.117-1.4-1.45-1.9l-0.65-1
			c1.033-0.2,2.05-0.5,3.05-0.9c0.233,0.3,0.883,1,1.95,2.1c0.8,0.8,1.4,1.55,1.8,2.25c0.3,0.467,0.767,1.167,1.4,2.1
			c0.566,0.833,0.933,1.583,1.1,2.25c0.233,0.833,0.267,1.617,0.1,2.35c-0.066,0.367-0.333,1.117-0.8,2.25l-0.25,0.75
			c0.633,0.033,1.733,0.633,3.3,1.8c1.7,1.267,2.833,1.967,3.4,2.1c1.233,0.333,2.4,0.417,3.5,0.25c1.3-0.2,2.3-0.733,3-1.6
			c0.5-0.6,0.85-1.533,1.05-2.8c0.133-1.133,0.117-2.217-0.05-3.25c-0.2-1.5-0.917-3.4-2.15-5.7c-0.767-1.3-1.667-2.3-2.7-3
			c-0.1-0.066-0.55-0.3-1.35-0.7c-0.6-0.3-1-0.6-1.2-0.9c1.333-0.233,3.3-0.35,5.9-0.35c1.1-0.034,1.8-0.034,2.1,0
			c0.633,0.066,1.233,0.283,1.8,0.65l1.15,0.7c0.867,0.567,2.75,1.917,5.65,4.05c0.933,0.7,2.35,1.617,4.25,2.75
			c2,1.2,3.434,2.1,4.3,2.7c1.967,1.467,3.816,2.483,5.55,3.05c1.067,0.4,2.384,0.75,3.95,1.05c-1.833,0-3.383-0.217-4.649-0.65
			c-2.2-0.6-3.851-1.067-4.95-1.4c-0.867-0.367-1.566-0.633-2.101-0.8c-0.933-0.367-1.649-0.5-2.149-0.4
			c1.399,0.6,3.467,1.467,6.2,2.6c2.366,1.033,4.383,2.05,6.05,3.05c1.166,0.7,1.95,1.133,2.35,1.3
			c0.767,0.267,1.65,0.383,2.65,0.35c0.767-0.034,1.85-0.367,3.25-1L102.4,26.05z M101,62c-1.767-0.133-3.2-0.45-4.3-0.95l-0.5-0.25
			l0.35-0.2c0.967-0.6,2.733-1.067,5.3-1.4C101.684,60.2,101.4,61.133,101,62z M83.75,93.35H83.7c-0.4,0.3-0.767,0.75-1.101,1.35
			c-0.466,0.8-0.767,1.283-0.899,1.45c-0.7,0.833-1.384,1.35-2.05,1.55c-0.767,0.233-1.784,0.283-3.05,0.15
			c-1.967-0.167-3.05-0.25-3.25-0.25l-1.85-1.4L71,95.85c-0.5-0.367-0.933-0.75-1.3-1.15l-0.2-0.2c-0.133-0.167-0.267-0.333-0.4-0.5
			c1.2,0.5,2.65,0.8,4.35,0.9c1.466,0.1,2.816,0.033,4.05-0.2c0.2-0.034,0.5-0.034,0.9,0c0.067,0,0.35-0.233,0.85-0.7
			c0.8-0.767,1.467-2.35,2-4.75c0.3-1.033,0.5-1.85,0.6-2.45c0.233-1.133,0.2-1.933-0.1-2.4l0.45-0.1c0.133-0.6,0.184-1.4,0.149-2.4
			c-0.033-1.1-0.05-1.917-0.05-2.45c0-0.6-0.05-1.35-0.149-2.25c-0.101-1.2-0.167-1.95-0.2-2.25c0.2-1.2,0.184-1.967-0.05-2.3
			c-0.434-0.633-1.184-0.933-2.25-0.9c-0.9,0-1.717,0.183-2.45,0.55c-1.434,0.733-2.85,1.917-4.25,3.55
			c-0.934,1.033-2.05,2.533-3.35,4.5c-1,1.433-2.167,2.333-3.5,2.7h-0.05c-0.466-1.1-1.417-1.75-2.85-1.95l-2.05-0.15l-0.95-0.9h0.4
			l0.7-0.15c1.367,0.333,2.583,0.367,3.65,0.1c0.566-0.1,1.117-0.333,1.65-0.7c0.8,0,1.316-0.083,1.55-0.25
			c0.367-0.267,0.684-0.767,0.95-1.5l0.2-0.15c1-0.6,1.717-1.066,2.15-1.4c0.767-0.533,1.383-1.117,1.85-1.75
			c1.133-1.567,1.333-3.283,0.6-5.15c-0.267-0.633-0.65-1.383-1.15-2.25c-0.6-0.934-1.05-1.65-1.35-2.15l-0.5-2
			c2.067,2.433,4.633,3.65,7.7,3.65c2.633,0,4.2-0.033,4.7-0.1c0.8-0.1,1.783-0.017,2.95,0.25c0.634,0.133,1.6,0.35,2.9,0.65
			C87.35,67.05,86.05,67,85.25,67c-3.066,0-4.783-0.017-5.15-0.05c-2-0.467-3.45-0.667-4.35-0.6c1.833,1.4,3.85,2.517,6.05,3.35
			c2.334,0.9,4.617,1.367,6.851,1.4c0.366,0.433,1.033,1.017,2,1.75c0.699,0.667,0.916,1.383,0.649,2.15
			c-0.233,0.7-0.767,1.067-1.6,1.1c-1.066-0.067-1.851-0.083-2.351-0.05c-0.199,1.1-0.233,2.967-0.1,5.6
			c0.1,2.4-0.033,4.25-0.4,5.55l-0.1,0.35c-0.267,0.534-0.783,1.45-1.55,2.75C84.5,91.5,84.017,92.517,83.75,93.35z M32.8,60.25
			c-0.233,0.4-0.4,0.85-0.5,1.35c-0.167-0.133-0.333-0.283-0.5-0.45l-0.8-0.5c-0.167-0.1-0.333-0.2-0.5-0.3H31
			C31.967,60.35,32.567,60.317,32.8,60.25z M34.7,52.55c-0.5,1.267-1.333,2.217-2.5,2.85c-1.067,0.633-2.517,0.934-4.35,0.9
			c-1.2,0-2.867-0.167-5-0.5c-0.067-0.033-0.133-0.05-0.2-0.05c-0.2-0.1-0.383-0.183-0.55-0.25c-0.033-0.033-0.083-0.05-0.15-0.05
			c-1.633-0.633-2.7-1.067-3.2-1.3c-0.6-0.267-1.917-0.967-3.95-2.1l-0.85-0.45c2.267,0.867,4,1.433,5.2,1.7
			c5.333,1,9.583,1.25,12.75,0.75C32.733,53.917,33.667,53.417,34.7,52.55z M57.2,77.7L55.45,77c-0.233-0.867-0.317-1.583-0.25-2.15
			C55.833,75.25,56.5,76.2,57.2,77.7z"/>
		<path style="fill-rule:evenodd;clip-rule:evenodd;fill:#DDEAF9;" d="M115.55,70.65c-0.399-2.167-0.383-4.033,0.05-5.6
			c0.634-1.767,1.101-3.133,1.4-4.1c0.566-1.733,0.667-3.067,0.3-4c-0.2-0.534-0.7-1.167-1.5-1.9c-0.2-0.2-0.916-0.617-2.149-1.25
			c-1.101-0.566-1.75-1.017-1.95-1.35l-0.05,0.15c-0.067,0.867-0.167,1.417-0.301,1.65c-0.1-2.067-0.199-3.617-0.3-4.65
			c-0.066-1.067-0.366-2.1-0.899-3.1c-0.733-1.2-1.301-2.183-1.7-2.95c-0.733-1.2-1.267-2.15-1.601-2.85
			c-0.533-1.267-0.616-2.284-0.25-3.05c0.134-0.333,0.483-0.783,1.051-1.35c0.633-0.566,1.05-0.966,1.25-1.2
			c1-1.133,1.399-2.633,1.199-4.5c-0.199-1.833-0.916-3.25-2.149-4.25c-0.667-0.567-1.467-0.917-2.4-1.05
			c-0.833-0.033-1.883,0.217-3.149,0.75l-3.2,1.65c-1.4,0.633-2.483,0.966-3.25,1c-1,0.033-1.884-0.083-2.65-0.35
			c-0.399-0.167-1.184-0.6-2.35-1.3c-1.667-1-3.684-2.017-6.05-3.05c-2.733-1.133-4.801-2-6.2-2.6c0.5-0.1,1.217,0.033,2.149,0.4
			c0.534,0.167,1.233,0.434,2.101,0.8c1.1,0.333,2.75,0.8,4.95,1.4c1.267,0.433,2.816,0.65,4.649,0.65l2.2,0.05L95,24.65
			c-1.434,0.8-1.983,1.567-1.65,2.3c1.767,0.367,3.584-0.133,5.45-1.5c3.101-2.233,4.7-3.383,4.8-3.45l-0.649-1.3
			c-0.3,0.466-1.084,0.983-2.351,1.55c0.367-0.433,0.817-1.183,1.351-2.25l2.35-0.65c-0.133,0.767,0.75,1.566,2.65,2.4
			c1,0.467,2.233,0.95,3.7,1.45l1.6,0.8c2.033,0.033,3.233,0.05,3.6,0.05c1.334-0.066,2.483-0.267,3.45-0.6
			c0.967-0.367,1.834-0.983,2.601-1.85c0.066-0.133,0.683-1.017,1.85-2.65c0.767-1.1,1.267-2.05,1.5-2.85
			c0.2-0.8,0.233-1.85,0.1-3.15c-0.033-0.4-0.216-1.034-0.55-1.9l2.5,2v1.65c0,0.867-0.116,1.933-0.35,3.2
			c-0.066,0.5-0.184,1.3-0.351,2.4c-0.166,1-0.383,1.817-0.649,2.45c-0.167,0.533-0.384,0.95-0.65,1.25l-0.45,0.5
			c-1.466,1.633-3.649,2.583-6.55,2.85c-0.366,0.066-0.7,0.066-1,0c-0.033,1.333-0.033,3.267,0,5.8c-0.1,2.133-0.55,3.95-1.35,5.45
			L115,40.55c0.233,1.034,0.434,1.684,0.6,1.95c1.301,2.267,2,3.467,2.101,3.6c0.967,1.433,1.95,2.367,2.95,2.8
			c1.533,0.667,2.933-0.2,4.199-2.6c1.167-2.8,1.983-4.517,2.45-5.15c0.4,0.033,0.7,0.483,0.9,1.35
			c0.267,1.067,0.517,1.717,0.75,1.95c0.434,0.466,1.066,0.683,1.899,0.65c0.467-0.033,1.2-0.184,2.2-0.45
			c0.233-0.066,0.884-0.3,1.95-0.7c0.767-0.3,1.417-0.5,1.95-0.6c0.566-0.033,1.116-0.033,1.649,0
			c0.367-0.067,0.817-0.283,1.351-0.65c0.666-0.467,1.366-1.284,2.1-2.45c0.167-0.3,0.7-1.267,1.601-2.9
			c0.566-1.033,1.033-2.217,1.399-3.55c0.434-1.466,0.634-2.716,0.601-3.75c0-0.367-0.184-1.066-0.551-2.1
			c-0.366-1-0.533-1.75-0.5-2.25c0.034-0.534,0.334-1.034,0.9-1.5c0.7-0.5,1.2-0.917,1.5-1.25c0.5-0.5,0.866-0.934,1.1-1.3
			c0.233-0.4,0.434-0.917,0.601-1.55l0.25,0.25l1.7-1.1c0.378,0.279,0.878,0.646,1.5,1.1c0.301,0.232,0.592,0.449,0.875,0.65
			c0.165,0.129,0.34,0.263,0.524,0.4c0.283,0.2,0.559,0.383,0.825,0.55L156.3,23c0.334,0.433,0.75,1.033,1.25,1.8l0.7,1.05v0.05
			c-0.7,0.733-1.45,1.2-2.25,1.4c-0.333,0.1-1.033,0.117-2.1,0.05c-0.9-0.067-1.584,0.066-2.051,0.4c-0.6,0.4-0.983,1.067-1.149,2
			c-0.066,0.367-0.101,1.15-0.101,2.35c0.034,1.133,0.051,1.816,0.051,2.05c-0.067,0.667-0.25,1.283-0.551,1.85
			c-0.366,0.633-1,1.383-1.899,2.25c-1.267,1.167-1.983,1.85-2.15,2.05c-1.133,1.333-2.066,2.317-2.8,2.95
			c-1.1,0.967-2.25,1.667-3.45,2.1c-1.666,0.633-3.149,1.083-4.45,1.35c-0.433,0.1-1.116,0.167-2.05,0.2
			c-0.934,0-1.633,0.05-2.1,0.15c-0.601,0.133-1.3,0.534-2.101,1.2c-1.133,0.967-1.767,1.5-1.899,1.6
			c-1.233,0.833-2.816,1.333-4.75,1.5c-1.066,0.133-2.017,0.117-2.851-0.05c-0.566-0.1-1.35-0.433-2.35-1
			c-0.967-0.566-1.733-0.883-2.3-0.95c0.767,1.7,2.283,3,4.55,3.9c1.8,0.7,3.816,1.067,6.05,1.1c0.601,0.033,1.667,0.033,3.2,0
			c1.233,0.2,1.75,0.95,1.55,2.25c-0.1,0.6-0.3,0.983-0.6,1.15c-0.134,0.067-0.617,0.183-1.45,0.35c-2.033,0.4-3.25,0.683-3.65,0.85
			c-0.899,0.3-1.583,0.533-2.05,0.7c-0.8,0.333-1.434,0.7-1.899,1.1c-0.367,0.3-0.667,0.733-0.9,1.3c-0.366,0.8-0.6,1.267-0.7,1.4
			c-0.267,0.433-0.733,0.883-1.399,1.35c-0.733,0.567-1.217,0.967-1.45,1.2c-0.3,0.3-0.467,0.617-0.5,0.95
			c-0.033,0.066-0.066,0.433-0.101,1.1L115.55,70.65z M41.4,10.95c0.434-0.067,0.883-0.15,1.35-0.25l0.65,1
			c0.333,0.5,0.817,1.133,1.45,1.9c0.5,0.7,0.867,1.417,1.1,2.15c0.633,1.833,1.05,3.183,1.25,4.05c0.367,1.5,0.5,2.9,0.4,4.2
			l-0.55,6.45c-0.1,0.767-0.35,1.417-0.75,1.95c-0.2,0.267-0.633,0.684-1.3,1.25l-1.35,1.25c-0.1-0.767,0-2.066,0.3-3.9
			c0.2-1.533,0.316-2.417,0.35-2.65c0.034-0.3,0.184-0.633,0.45-1c0.3-0.434,0.483-0.767,0.55-1c0.067-0.3,0.1-0.733,0.1-1.3
			c-0.066-0.633-0.1-1.083-0.1-1.35c0-2.633-0.25-4.617-0.75-5.95L43.3,14.7c-0.133-0.367-0.417-0.95-0.85-1.75
			C41.95,12.05,41.6,11.383,41.4,10.95z M34.7,52.55c0.3-0.733,0.5-1.583,0.6-2.55l0.15-1.9c0.133-2.033-0.1-3.4-0.7-4.1l1.2,0.95
			c0.566,0.433,0.9,0.75,1,0.95c0.1,0.2,0.183,0.767,0.25,1.7c0.333,3.433,0.267,5.816-0.2,7.15c-0.267,0.8-0.833,1.883-1.7,3.25
			c-0.533,0.767-1.017,1.333-1.45,1.7c-0.3,0.3-0.65,0.483-1.05,0.55c-0.233,0.067-0.833,0.1-1.8,0.1h-0.5
			c-0.933-0.5-1.6-0.867-2-1.1c-0.367-0.233-0.883-0.6-1.55-1.1c-0.7-0.533-1.233-0.917-1.6-1.15l-1.15-0.6
			c-0.277-0.139-0.569-0.272-0.875-0.4c-0.16-0.066-0.318-0.133-0.475-0.2c2.133,0.333,3.8,0.5,5,0.5
			c1.833,0.034,3.283-0.267,4.35-0.9C33.367,54.767,34.2,53.817,34.7,52.55z M67.3,42.65c0,3.033-0.133,5.733-0.4,8.1
			c-0.133,1-0.283,1.7-0.45,2.1c-0.3,0.8-0.8,1.2-1.5,1.2c-0.934-0.033-1.217-0.517-0.85-1.45c0.6-1.1,0.967-1.817,1.1-2.15
			c0.4-0.9,0.633-1.9,0.7-3c0.033-0.333,0.05-1.35,0.05-3.05v-0.05l1.35-6.65V42.65z M68.35,29.95c-0.4,0.2-0.767,0.316-1.1,0.35
			l-0.3,0.05c-3.534,0.333-5.733,0.25-6.6-0.25c2.7-0.467,5-1.917,6.9-4.35c0.567-0.733,0.967-1.9,1.2-3.5
			c0.267-1.8,0.1-2.983-0.5-3.55l1.35-3.35c-0.066,0.733,0.3,1.783,1.1,3.15c0.9,1.567,1.4,2.65,1.5,3.25
			c0.1,0.533,0.117,1.6,0.05,3.2c-0.034,0.833-0.217,1.517-0.55,2.05c-0.2,0.333-0.683,0.867-1.45,1.6
			C69.083,29.4,68.55,29.85,68.35,29.95z M86.75,87.55l0.1-0.35c0.367-1.3,0.5-3.15,0.4-5.55c-0.134-2.633-0.1-4.5,0.1-5.6
			c0.5-0.033,1.284-0.017,2.351,0.05c0.833-0.033,1.366-0.4,1.6-1.1c0.267-0.767,0.05-1.483-0.649-2.15
			c-0.967-0.733-1.634-1.317-2-1.75c-2.233-0.033-4.517-0.5-6.851-1.4c-2.2-0.833-4.216-1.95-6.05-3.35
			c0.9-0.067,2.35,0.133,4.35,0.6c0.367,0.033,2.084,0.05,5.15,0.05c0.8,0,2.1,0.05,3.9,0.15c1.166,0,2.1-0.15,2.8-0.45
			c2.2-1,2.416-2.483,0.649-4.45c-2.466-2.133-3.983-3.533-4.55-4.2c1.033-0.233,2.417,0.017,4.15,0.75c0.967,0.434,2.3,1.1,4,2
			l0.5,0.25c1.1,0.5,2.533,0.817,4.3,0.95c-0.366,0.7-0.8,1.283-1.3,1.75c-1.2,1.1-3.101,2-5.7,2.7c-3.134,0.8-5.134,1.433-6,1.9
			c0.2,0.367,0.45,0.667,0.75,0.9c0.866,0.633,2.4,1.083,4.6,1.35c2.5,0.267,4.084,0.55,4.75,0.85c-0.1,0.4-0.183,1.05-0.25,1.95
			c-0.033,0.867-0.116,1.517-0.25,1.95c-0.3,1.1-0.533,1.767-0.699,2c-0.267,0.4-0.817,0.767-1.65,1.1
			c-0.967,0.367-1.583,0.667-1.85,0.9c-0.301,0.3-0.601,0.783-0.9,1.45c-0.333,0.667-0.65,1.15-0.95,1.45
			c-0.434,0.433-0.916,0.667-1.45,0.7c-0.699,0-1.283,0.033-1.75,0.1c-0.466,1.867-0.949,3.284-1.449,4.25L86.75,87.55z M83.9,97.15
			c-0.667,0.533-1.634,1.017-2.9,1.45c-0.733,0.267-1.467,0.333-2.2,0.2c-1.1-0.4-1.966-0.65-2.6-0.75c-1.2,0.1-1.967,0.067-2.3-0.1
			c-0.133-0.067-0.316-0.184-0.55-0.35c0.2,0,1.283,0.083,3.25,0.25c1.267,0.133,2.283,0.083,3.05-0.15
			c0.666-0.2,1.35-0.717,2.05-1.55c0.133-0.167,0.434-0.65,0.899-1.45c0.334-0.6,0.7-1.05,1.101-1.35h0.05
			c-0.333,1.066-0.384,1.95-0.15,2.65L83.9,97.15z M69.1,77.55c-0.533,0.367-1.367,0.95-2.5,1.75c-0.533,0.367-1.083,0.6-1.65,0.7
			c-1.067,0.267-2.284,0.233-3.65-0.1c-0.6-0.1-1.033-0.267-1.3-0.5c0.933-0.167,2.167-0.283,3.7-0.35
			c1.267-0.2,2.35-0.767,3.25-1.7c0.3-0.3,0.583-0.667,0.85-1.1c2.034-0.533,3.317-2.267,3.85-5.2c0.2-1.167,0.184-2.883-0.05-5.15
			l-0.2-1.2c0.3,0.5,0.75,1.216,1.35,2.15c0.5,0.867,0.883,1.617,1.15,2.25c0.733,1.867,0.533,3.583-0.6,5.15
			c-0.466,0.633-1.083,1.217-1.85,1.75c-0.434,0.333-1.15,0.8-2.15,1.4L69.1,77.55z M55.45,77l1.75,0.7l0.75,0.3l2.25,2.05l0.95,0.9
			c-1.066-0.067-1.833-0.017-2.3,0.15l-0.2,0.1h-0.3c-4.767-0.434-8.817-1.733-12.15-3.9c-1-0.7-1.633-1.333-1.9-1.9
			c-0.3-0.566-0.433-1.483-0.4-2.75s0.417-3.717,1.15-7.35c0.534,0.5,1.217,1.817,2.05,3.95c1.1,2.2,2.083,3.7,2.95,4.5
			C51.183,74.85,52.983,75.933,55.45,77z M69.4,71.65c0.067,0.9,0.033,1.583-0.1,2.05c-0.1,0.367-0.4,0.867-0.9,1.5
			c0.367-0.8,0.65-1.534,0.85-2.2C69.35,72.567,69.4,72.117,69.4,71.65z"/>
		<path style="fill-rule:evenodd;clip-rule:evenodd;fill:#BACDDF;" d="M95,24.65c1-0.533,2.783-1.283,5.35-2.25l0.25-0.15
			c1.267-0.567,2.051-1.083,2.351-1.55L103.6,22c-0.1,0.067-1.699,1.217-4.8,3.45c-1.866,1.367-3.684,1.867-5.45,1.5
			C93.017,26.217,93.566,25.45,95,24.65z M158.25,25.9c0.667,0.9,0.934,1.733,0.8,2.5c-0.3,1.733-0.45,2.7-0.45,2.9
			c0,0.5,0.017,1.333,0.051,2.5c-0.034,1.034-0.233,1.8-0.601,2.3c-0.434,0.566-1.316,1.25-2.649,2.05
			c-2.534,1.967-6.217,5.05-11.051,9.25c-1.333,1.1-2.149,1.9-2.449,2.4c-0.434,0.733-0.634,1.833-0.601,3.3
			c0,2.267-0.649,4.467-1.95,6.6c-0.899,1.5-2.566,2.733-5,3.7c-3.166,1.267-5.066,2.133-5.699,2.6c0.6,0.6,0.166,1.167-1.301,1.7
			c-1.666,0.5-2.633,0.8-2.899,0.9c-0.601,0.267-0.983,0.45-1.15,0.55c-0.3,0.2-0.633,0.517-1,0.95c-1.267,1.6-2.166,2.833-2.7,3.7
			c-0.833,1.4-1.383,2.817-1.649,4.25c-0.101,0.367-0.184,0.817-0.25,1.35c-0.167,0.533-0.667,1.283-1.5,2.25
			c-0.467,0.5-1.084,1.15-1.851,1.95c-0.366,0.433-0.85,0.95-1.449,1.55c-0.5,0.5-0.9,1-1.2,1.5c-0.167,0.333-0.517,0.95-1.05,1.85
			c-0.534,0.7-1.101,0.983-1.7,0.85c-0.934-0.167-1.717-1.733-2.351-4.7l-0.8-2.6l0.05,0.05l0.2,0.25
			c0.667,0.867,1.05,1.35,1.15,1.45c0.5,0.534,0.967,0.85,1.399,0.95c0.467,0.067,0.917-0.1,1.351-0.5
			c0.233-0.2,0.467-0.667,0.7-1.4s0.5-1.25,0.8-1.55c0.533-0.533,1.149-0.85,1.85-0.95c0.334-0.033,0.684-0.033,1.05,0
			c0.267,0,0.483-0.2,0.65-0.6c0.066-0.167,0.083-0.5,0.05-1c-0.066-0.533-0.1-0.883-0.1-1.05c0-1,0.116-2.233,0.35-3.7
			c0.167-1.167,0.25-2.283,0.25-3.35l0.05-2.6c0.034-0.667,0.067-1.033,0.101-1.1c0.033-0.333,0.2-0.65,0.5-0.95
			c0.233-0.233,0.717-0.633,1.45-1.2c0.666-0.466,1.133-0.917,1.399-1.35c0.101-0.133,0.334-0.6,0.7-1.4
			c0.233-0.566,0.533-1,0.9-1.3c0.466-0.4,1.1-0.767,1.899-1.1c0.467-0.167,1.15-0.4,2.05-0.7c0.4-0.167,1.617-0.45,3.65-0.85
			c0.833-0.167,1.316-0.283,1.45-0.35c0.3-0.167,0.5-0.55,0.6-1.15c0.2-1.3-0.316-2.05-1.55-2.25c-1.533,0.033-2.6,0.033-3.2,0
			c-2.233-0.033-4.25-0.4-6.05-1.1c-2.267-0.9-3.783-2.2-4.55-3.9c0.566,0.066,1.333,0.383,2.3,0.95c1,0.567,1.783,0.9,2.35,1
			c0.834,0.167,1.784,0.184,2.851,0.05c1.934-0.167,3.517-0.667,4.75-1.5c0.133-0.1,0.767-0.633,1.899-1.6
			c0.801-0.667,1.5-1.067,2.101-1.2c0.467-0.1,1.166-0.15,2.1-0.15c0.934-0.033,1.617-0.1,2.05-0.2
			c1.301-0.267,2.784-0.717,4.45-1.35c1.2-0.434,2.351-1.133,3.45-2.1c0.733-0.633,1.667-1.617,2.8-2.95
			c0.167-0.2,0.884-0.883,2.15-2.05c0.899-0.867,1.533-1.617,1.899-2.25c0.301-0.567,0.483-1.183,0.551-1.85
			c0-0.233-0.017-0.917-0.051-2.05c0-1.2,0.034-1.983,0.101-2.35c0.166-0.933,0.55-1.6,1.149-2c0.467-0.333,1.15-0.467,2.051-0.4
			c1.066,0.066,1.767,0.05,2.1-0.05C156.8,27.1,157.55,26.633,158.25,25.9z M67.8,76.25l-0.15,0.05
			c0.167-0.367,0.417-0.733,0.75-1.1c0.5-0.633,0.8-1.133,0.9-1.5c0.133-0.467,0.167-1.15,0.1-2.05l-0.05-1.4L69.25,68
			c-0.067-1.633-0.183-3.117-0.35-4.45c-0.066-0.633-0.467-1.9-1.2-3.8c-0.6-1.6-0.85-2.85-0.75-3.75l0.35-3.3
			c0.034,0.966,0.367,2.167,1,3.6c0.333,0.8,0.85,1.95,1.55,3.45l0.05,0.1l1.5,4.85l0.2,1.2c0.233,2.267,0.25,3.983,0.05,5.15
			C71.117,73.983,69.833,75.717,67.8,76.25z M102.3,71.05c0.033,0.434,0.167,0.95,0.4,1.55c0.3,0.733,0.483,1.233,0.55,1.5l0.1,0.65
			c-0.6-0.033-1.166-0.017-1.699,0.05c-0.267,0.034-0.517,0.067-0.75,0.1c-0.767,0.133-1.284,0.3-1.551,0.5
			c-0.6,0.467-1.033,1.65-1.3,3.55c-0.3,1.833-0.8,2.95-1.5,3.35c-0.434,0.233-1.2,0.317-2.3,0.25c-0.967-0.066-1.733,0.2-2.3,0.8
			c-0.566,0.566-1,1.45-1.3,2.65c-0.167,0.633-0.417,1.583-0.75,2.85C89.6,89.683,89,90.7,88.1,91.9
			c-1.267,1.633-1.983,2.583-2.149,2.85c-0.634,1.067-1.316,1.867-2.05,2.4L83.6,96c-0.233-0.7-0.183-1.583,0.15-2.65
			c0.267-0.833,0.75-1.85,1.45-3.05c0.767-1.3,1.283-2.216,1.55-2.75l0.15-0.25c0.5-0.966,0.983-2.383,1.449-4.25
			c0.467-0.066,1.051-0.1,1.75-0.1c0.534-0.034,1.017-0.267,1.45-0.7c0.3-0.3,0.617-0.783,0.95-1.45c0.3-0.667,0.6-1.15,0.9-1.45
			c0.267-0.233,0.883-0.533,1.85-0.9c0.833-0.333,1.384-0.7,1.65-1.1c0.166-0.233,0.399-0.9,0.699-2
			c0.134-0.434,0.217-1.083,0.25-1.95c0.067-0.9,0.15-1.55,0.25-1.95c-0.666-0.3-2.25-0.583-4.75-0.85
			c-2.199-0.267-3.733-0.717-4.6-1.35c-0.3-0.233-0.55-0.533-0.75-0.9c0.866-0.467,2.866-1.1,6-1.9c2.6-0.7,4.5-1.6,5.7-2.7
			c0.5-0.467,0.934-1.05,1.3-1.75c0.4-0.867,0.684-1.8,0.85-2.8c0.134-0.633,0.167-1.333,0.101-2.1l0.649,1.95
			c0.301,0.9,0.65,1.517,1.051,1.85c0.533,0.4,1.399,0.55,2.6,0.45c0.767-0.1,1.434-0.383,2-0.85c0.4-0.333,0.9-0.917,1.5-1.75
			c0.233,1.367-0.283,2.833-1.55,4.4c-0.934,1.133-2.134,2.2-3.601,3.2c-1.566,1.033-2.333,2.467-2.3,4.3V71.05z"/>
	</g>
</g>
</svg>
