<?xml version="1.0" encoding="iso-8859-1"?>
<!-- Generator: Adobe Illustrator 15.1.0, SVG Export Plug-In . SVG Version: 6.00 Build 0)  -->
<!DOCTYPE svg PUBLIC "-//W3C//DTD SVG 1.1//EN" "http://www.w3.org/Graphics/SVG/1.1/DTD/svg11.dtd">
<svg version="1.1" id="Layer_1" xmlns="http://www.w3.org/2000/svg" xmlns:xlink="http://www.w3.org/1999/xlink" x="0px" y="0px"
	 width="62.5px" height="36.75px" viewBox="0 0 62.5 36.75" style="enable-background:new 0 0 62.5 36.75;" xml:space="preserve">
<path style="fill-rule:evenodd;clip-rule:evenodd;fill:#CFCABB;" d="M43.5,4.1l2.95,0.85c0.233,0.066,0.517,0.15,0.85,0.25
	c0.4,0.267,1.467,0.65,3.2,1.15c0.733,0.233,1.767,0.467,3.1,0.7c1.067,0.267,1.884,0.45,2.45,0.55c1.4,0.267,2.384,0.316,2.95,0.15
	L56.9,9.2l-3.75,1.65c-0.434,0.233-0.983,0.417-1.65,0.55c-0.767,0.133-1.384,0.25-1.85,0.35l-5.051,1.3l2.95-1L41.3,10.9
	c-0.967,0.4-1.983,0.65-3.05,0.75c-0.733,0.067-1.833,0.083-3.3,0.05c-1.9-0.034-4.233-0.217-7-0.55
	c-3.067-0.4-5.383-0.683-6.95-0.85c0,0.133-0.017,0.383-0.05,0.75c-1,0.067-2.55,0-4.65-0.2c-2.1-0.2-3.667-0.283-4.7-0.25
	c0.4,0.3,1.283,0.65,2.65,1.05c0.733,0.233,1.6,0.483,2.6,0.75c5.733,1.667,10.283,2.833,13.65,3.5c0.7,0.167,1.733,0.3,3.1,0.4
	L32.4,16.4c-1.034,0-1.8-0.033-2.3-0.1l-5.25-0.85c-2.4-0.4-5.684-1.35-9.85-2.85c-3.233-1.3-5.7-2.233-7.4-2.8
	c-1.733-0.667-3.067-1.15-4-1.45L2.85,8.3C2.517,8.367,2.1,8.333,1.6,8.2c0.3,0.2,0.833,0.433,1.6,0.7
	c0.433,0.167,0.933,0.333,1.5,0.5l3.75,1.35c2.4,0.933,3.767,1.45,4.1,1.55c2.6,0.733,5.317,1.733,8.15,3
	c2.066,0.967,4.333,1.65,6.8,2.05l0.55-0.2L27.2,17.5l0.3,0.55c-1.9-0.466-3.117-0.783-3.65-0.95c-3.4-1.3-5.983-2.217-7.75-2.75
	c-2.267-0.667-4.867-1.567-7.8-2.7c-1.667-0.733-2.933-1.233-3.8-1.5l0.05,0.05l0.25,0.15h-1c0.833,0.467,1.383,0.75,1.65,0.85
	C4.283,10.8,3.467,10.55,3,10.45c-0.2,0-0.383,0.05-0.55,0.15l1.15,0.3c0.767,0.233,3.217,1.15,7.35,2.75
	c4.4,1.9,7.367,3.25,8.9,4.05c2,1,5.167,2.283,9.5,3.85v0.25c-2.567-0.434-5.317-1.05-8.25-1.85c2.533,0.899,4.133,1.467,4.8,1.7
	l-3.2-0.801L9.05,16.95l0.6,0.25l-2.4-0.5c-0.8-0.133-2-0.434-3.6-0.9L3.5,15.75c-0.3-0.233-0.817-0.517-1.55-0.85
	c-0.435-0.062-0.768-0.095-1-0.1c0.05,0,0.1,0,0.15,0c0.333,0.034,0.833,0.083,1.5,0.15c0.133-0.3,0.05-0.883-0.25-1.75
	c3.733,0.966,6.9,1.9,9.5,2.8c-0.7-0.333-1.733-0.733-3.1-1.2c-1.6-0.533-2.667-0.917-3.2-1.15L3.2,12.6
	c2,0.6,3.483,1.017,4.45,1.25l-5.8-2.45c0.033-0.2,0.1-0.383,0.2-0.55c0.267-0.4,1.184-0.567,2.75-0.5L0.85,8.1l4.4,0.3
	c1.8,0.033,3.233-0.05,4.3-0.25c0.5-0.1,1.95-0.517,4.35-1.25c1.934-0.566,3.383-0.883,4.35-0.95c1.567-0.133,3.817-0.633,6.75-1.5
	c-1.433,0.466-2.767,0.833-4,1.1c1.267-0.167,3.417-0.083,6.45,0.25c1.1,0.133,1.667,0.2,1.7,0.2C29.517,6,30,5.85,30.6,5.55
	c0.233-0.066,0.683-0.233,1.35-0.5c0.6-0.167,1.033-0.083,1.3,0.25c0.333,0.467-0.05,0.983-1.15,1.55
	c-1.333,0.533-2.116,0.883-2.35,1.05c0.333,0.033,0.667,0,1-0.1c3.066-0.4,5-0.617,5.8-0.65c0.566-0.033,1.417-0.017,2.55,0.05
	c1.167,0.033,2.017,0.033,2.551,0c-0.267-0.233-0.717-0.5-1.351-0.8c-0.833-0.4-1.35-0.65-1.55-0.75c0.467-0.3,1.2-0.583,2.2-0.85
	C41.517,4.633,42.366,4.4,43.5,4.1z M58.2,12.1c-0.101-0.4-0.334-0.783-0.7-1.15V10.9c0.333,0.4,0.55,0.717,0.65,0.95
	C58.184,11.917,58.2,12,58.2,12.1z M57.85,15l0.45-0.15l-0.05,0.05c-0.031,0.063-0.048,0.129-0.05,0.2c0-0.038,0-0.071,0-0.1H57.85z
	 M58.55,21.45V20.5v-1.2C58.583,20.1,58.583,20.816,58.55,21.45z M15.5,27.9c-5.433-1.867-9.317-3.334-11.65-4.4
	c2.5,1.3,5.883,2.9,10.15,4.8c5.333,2.334,8.767,3.867,10.3,4.601l4,1.949L27.25,35.2l0.5,0.25L26.8,35
	c-0.7-0.366-3.3-1.85-7.8-4.45c0.2,0.367,0.6,0.783,1.2,1.25c0.333,0.267,0.816,0.634,1.45,1.101l0.95,0.649
	c-2.3-1.033-4.233-1.95-5.8-2.75c-5.066-2.633-8.333-4.35-9.8-5.149c-0.433-0.233-0.717-0.4-0.85-0.5L2.5,23.05l1.95,0.25l3.5,0.101
	l-2.5-1c-0.867-0.301-1.567-0.584-2.1-0.851C3.717,21.65,5.3,22.066,8.1,22.8l5.4,1.05l4.25,1.95c3.967,1.733,7.75,3.316,11.35,4.75
	L29,30.8c-0.7,0.066-1.7-0.2-3-0.8c-1.333-0.7-2.15-1.116-2.45-1.25c-2.167-1-4.7-2.066-7.6-3.2c-1.7-0.434-2.934-0.8-3.7-1.1
	c0.267,0.733,2.85,2,7.75,3.8l10,4.35l-1.15-0.05l-0.6-0.35c-1.8-0.834-2.783-1.283-2.95-1.351c-1.1-0.466-2.133-0.783-3.1-0.949
	c-0.1,0.133,0.233,0.399,1,0.8l-2.65-1l0.95,0.1L11.7,26L15.5,27.9z M3.25,19.35L9.3,22L8,21.65c-2.533-1-4.6-1.767-6.2-2.301
	L1.5,19.4C2.033,19.267,2.617,19.25,3.25,19.35z M4.25,18.85L5.2,19.3L4.55,19.15C4.45,19.05,4.35,18.95,4.25,18.85z M3.25,17.25
	c0.367,0,0.9,0.033,1.6,0.1c0.039,0,0.088,0.008,0.15,0.025L5.025,17.4c1.253,0.404,2.278,0.654,3.075,0.75
	c3.3,1.067,6.083,2.05,8.35,2.95c4.233,1.667,7.55,2.884,9.95,3.65l2.35,0.7l-0.2,0.1c0.367,0.367,0.434,0.783,0.2,1.25l-1.95-1.55
	c-1.333-0.033-3.05-0.4-5.15-1.1c-2.3-0.834-3.95-1.417-4.95-1.75c-1.2-0.4-2.267-0.75-3.2-1.051c-1.333-0.5-2.85-0.933-4.55-1.3
	l-1.55-0.8c-0.433-0.433-1.35-0.95-2.75-1.55l-0.9-0.4L3.25,17.25z M20.55,19.8c-2.333-1.1-4.816-2.033-7.45-2.8l-0.55-0.15
	c-2.267-0.633-4.4-1.1-6.4-1.4c0.934,0.533,1.783,0.966,2.55,1.3l2.45,0.75c2.5,0.767,6.283,1.85,11.35,3.25L20.55,19.8z M7.2,17.55
	l0.4,0.25l-0.45-0.25H7.2z M5.75,17.2c0.367,0.066,0.767,0.15,1.2,0.25l0.6,0.15C6.883,17.467,6.283,17.333,5.75,17.2z M52.15,10.35
	c0.199-0.3,0.449-0.483,0.75-0.55h-3.2c-0.467-0.1-0.934-0.1-1.4,0c-0.533,0.133-0.833,0.367-0.899,0.7
	c0.399,0.267,1.066,0.45,2,0.55c0.933,0.133,1.616,0.117,2.05-0.05C51.717,10.933,51.95,10.717,52.15,10.35z M29.9,23.4l-0.3-6.95
	l0.1,1.15l0.25,2.65v0.5L30,21.8l0.25,0.05v0.2L30,21.9l-0.1,1.35V23.4z M39.85,16.25L38.2,16.5l-3.15,0.95l-0.3,0.05h-0.1
	L33.6,17.35c1.733-0.4,2.801-0.633,3.2-0.7L39.85,16.25z M42.5,16.55c-0.333,0.133-0.733,0.3-1.2,0.5
	c0.2-0.133,0.417-0.233,0.65-0.3L42.5,16.55z M36.8,19.25l-1.35,0.55l4.75-2.2L36.8,19.25z M40.5,20.95l2.15-0.65L42,20.55
	l-0.25,0.05L40.5,20.95z M41.45,25.15l-0.8,0.399l-3.301,1.3L37.45,26.9l0.35-0.051l-1.1,0.25L41.45,25.15z M46.55,22.95L38.95,25
	l-0.05-0.05H39.1l7.75-2.101C46.75,22.884,46.65,22.917,46.55,22.95z M41.1,30.25l2.551-1.55L44.3,28.35
	c0.134-0.066,0.917-0.5,2.351-1.3c1.466-0.8,2.5-1.25,3.1-1.35c-1.6,0.566-2.717,1.133-3.35,1.7L41.1,30.25z M54.8,25.35l-2.45,0.4
	l-0.949,0.1l6.05-1.05h0.1c-0.434,0.267-0.85,0.533-1.25,0.8c0.334-0.233,0.684-0.466,1.05-0.699L57.45,24.8L54.8,25.35z M35,34.1
	l0.15-0.05L34.2,34.5L35,34.1z M27.55,22.1l-1-0.199l-0.3-0.15L27.55,22.1z M33,29.3l-0.4,0.55l-0.3-0.25l0.601-0.3H33z M28.25,35.7
	l1.5-0.05L29.7,36.3L29.5,35.9C29.133,36,28.717,35.934,28.25,35.7z M27.35,32.45l1.5,0.1c0.4,0.2,0.816,0.3,1.25,0.3V32.65
	l0.45,0.25l-0.25,0.55l-0.05,0.2L27.35,32.45z M29.85,30.95V30.85l1.35,0.5l-0.15,0.301l0.45-0.2l-0.75,0.35L29.85,30.95z
	 M31.4,32.4l0.3-0.101l-0.2,0.15L31.4,32.4z M32.65,24.6l-0.45-0.05l0.149-0.1L32.65,24.6z M34.9,25.65h0.35l0.15,0.1l-0.2,0.05
	L34.9,25.65z M29.85,25.75l0.3,0.1c-0.066,0.434,0,0.884,0.2,1.351c0.133,0.333,0.233,0.7,0.3,1.1L30,27.8
	C30.033,27.3,29.983,26.616,29.85,25.75z"/>
<path style="fill-rule:evenodd;clip-rule:evenodd;fill:#E3DDCE;" d="M53.6,7.05c-1.333-0.233-2.366-0.466-3.1-0.7
	c-1.733-0.5-2.8-0.883-3.2-1.15l6.4,1.85C53.667,7.05,53.634,7.05,53.6,7.05z M57.5,10.9v0.05l-0.1,0.1
	c-0.634,0.434-1.667,0.8-3.101,1.1l-2.55,0.7l-2.2,0.6c-0.233,0.066-1.149,0.5-2.75,1.3c-0.434,0.267-0.934,0.467-1.5,0.6l-0.1,0.05
	c-0.033,0-0.066,0.017-0.101,0.05c-0.267,0.033-0.533,0.083-0.8,0.15l-4.45,0.65l-3.05,0.4c-0.399,0.067-1.467,0.3-3.2,0.7
	L32.15,17.6c-0.801,0.066-1.617,0.066-2.45,0l-0.1-1.15l0.3,6.95l-0.25-0.25c-0.2-0.267-0.3-0.717-0.3-1.351v-0.25V21.5
	c0-0.134,0.033-0.384,0.1-0.75c0.1-0.333,0.117-0.583,0.05-0.75c-0.667-0.167-1.15-0.434-1.45-0.8c-0.1-0.134-0.283-0.517-0.55-1.15
	l-0.3-0.55l0.85-0.35l-0.55,0.2c-2.467-0.4-4.733-1.083-6.8-2.05c-2.833-1.267-5.55-2.267-8.15-3c-0.333-0.1-1.7-0.617-4.1-1.55
	L4.7,9.4C4.133,9.233,3.633,9.067,3.2,8.9C2.433,8.633,1.9,8.4,1.6,8.2c0.5,0.133,0.917,0.167,1.25,0.1L3.6,8.35
	c0.933,0.3,2.267,0.783,4,1.45c1.7,0.567,4.167,1.5,7.4,2.8c4.167,1.5,7.45,2.45,9.85,2.85l5.25,0.85c0.5,0.067,1.266,0.1,2.3,0.1
	l1.199-0.1c0.534-0.1,1.317-0.3,2.351-0.6l3.7-1.2c0.566-0.267,1.366-0.533,2.399-0.8c1.267-0.267,2.117-0.483,2.55-0.65l5.051-1.3
	c0.466-0.1,1.083-0.217,1.85-0.35c0.667-0.133,1.217-0.316,1.65-0.55L56.9,9.2l-0.45,0.3c-0.101,0.333-0.017,0.6,0.25,0.8
	C56.866,10.433,57.134,10.633,57.5,10.9z M9.3,22l4.8,1.4l0.35,0.149L17.5,24.4L16,24.2c-0.233-0.033-0.583-0.05-1.05-0.05
	L13.5,23.85L8.1,22.8c-2.8-0.733-4.383-1.149-4.75-1.25c-0.2-0.1-0.367-0.184-0.5-0.25c-0.867-0.467-1.333-0.934-1.4-1.399
	c-0.034-0.167-0.017-0.334,0.05-0.5l0.3-0.051C3.4,19.884,5.467,20.65,8,21.65L9.3,22z M3.65,15.8l3.3,1.65
	c-0.434-0.1-0.833-0.184-1.2-0.25L4.4,16.9c-0.433-0.1-0.8-0.183-1.1-0.25c-0.7-0.167-1.316-0.367-1.85-0.6L0,15.3
	c0.067-0.3,0.3-0.466,0.7-0.5c0.033,0,0.066,0,0.1,0h0.15c0.232,0.005,0.565,0.038,1,0.1c0.733,0.333,1.25,0.617,1.55,0.85
	L3.65,15.8z M3.25,17.25l0.5,0.05l0.9,0.4c1.4,0.6,2.317,1.117,2.75,1.55l1.55,0.8l3.65,1.8l0.15,0.051
	c-0.467,0-1.117-0.117-1.95-0.351c-0.167-0.066-1.4-0.566-3.7-1.5l-1.55-0.6l-0.3-0.15H5.2l-0.95-0.45
	C3.717,18.217,3.383,17.683,3.25,17.25z M5,17.375c-0.062-0.017-0.111-0.025-0.15-0.025L4.8,17.3L5,17.375z M1.85,11.4l5.8,2.45
	C6.683,13.617,5.2,13.2,3.2,12.6l-1.25-0.4C1.883,12.033,1.85,11.767,1.85,11.4z M29.85,30.85v0.101l-0.05,0.3
	c-0.633-0.033-0.9-0.184-0.8-0.45l0.1-0.25c0.667-0.633,1.033-1.033,1.1-1.2L29.85,30.85z M28.85,32.55l-1.5-0.1L27.1,32.35
	c-1.467-0.5-2.767-1.05-3.9-1.649c-0.767-0.4-1.1-0.667-1-0.8c0.966,0.166,2,0.483,3.1,0.949c0.167,0.067,1.15,0.517,2.95,1.351
	L28.85,32.55L30,32.6h0.1v0.051v0.199C29.667,32.85,29.25,32.75,28.85,32.55z M28.25,35.7c0.467,0.233,0.883,0.3,1.25,0.2l0.2,0.399
	l0.15,0.3c-1.934-0.767-3.7-1.5-5.3-2.199L23.6,34c-0.267-0.134-0.533-0.25-0.8-0.35c-0.066-0.034-0.133-0.067-0.2-0.101L21.65,32.9
	c-0.633-0.467-1.117-0.834-1.45-1.101c-0.6-0.467-1-0.883-1.2-1.25c4.5,2.601,7.1,4.084,7.8,4.45l0.95,0.45L28.25,35.7z M30,27.8
	c-0.033,0.3-0.167,0.533-0.4,0.7c-0.3,0.167-0.883,0.017-1.75-0.45c-0.833-0.467-1.283-0.833-1.35-1.1
	c0.567,0.066,1.283,0.366,2.15,0.899l-0.4-0.55l0.5-0.5c0.233-0.467,0.167-0.883-0.2-1.25l0.2-0.1l1-0.45l0.1,0.75
	C29.983,26.616,30.033,27.3,30,27.8z M25.3,32.15c0.767,0.366,1.9,0.899,3.4,1.6L21.8,31C22.767,31.167,23.933,31.55,25.3,32.15z"/>
<path style="fill-rule:evenodd;clip-rule:evenodd;fill:#9A968A;" d="M58.55,18.85c-4.967,1.8-8.866,3.133-11.7,4L39.1,24.95H38.9
	c-0.867,0.2-2.084,0.434-3.65,0.7H34.9l-1.45,0.199c0.1-0.066,0.5-0.133,1.2-0.199l0.1-0.051l0.35-0.05
	c0.634-0.166,1.483-0.5,2.551-1L39.6,23.8c4-1.333,6.7-2.133,8.101-2.399l10.55-3.65C58.417,17.917,58.517,18.283,58.55,18.85z
	 M10.8,21.55l-0.8-0.1c0.3,0.166,1.783,0.866,4.45,2.1L14.1,23.4C11.033,22,8.717,20.967,7.15,20.3
	c-0.033-0.033-0.066-0.05-0.1-0.05C6.917,20.184,6.8,20.134,6.7,20.1c-0.034,0-0.067-0.017-0.1-0.05L5,19.4
	c-0.167-0.067-0.3-0.117-0.4-0.15V19.2l-0.05-0.05L5.2,19.3h0.05l0.3,0.15l1.55,0.6C9.4,20.983,10.633,21.483,10.8,21.55z
	 M33.6,17.35l1.051,0.15h0.1l-3.8,1.15c-0.133,0.333-0.467,0.867-1,1.6L29.7,17.6c0.833,0.066,1.649,0.066,2.45,0L33.6,17.35z
	 M46.8,14.75c1.834-0.733,3.483-1.367,4.95-1.9l2.55-0.7c1.434-0.3,2.467-0.667,3.101-1.1l0.1-0.1c0.366,0.367,0.6,0.75,0.7,1.15
	c-1,0.367-2.134,0.683-3.4,0.95c-0.866,0.2-2,0.633-3.399,1.3c-1.467,0.667-2.617,1.1-3.45,1.3c-2.367,0.467-4.117,0.934-5.25,1.4
	c-0.9,0.434-1.584,0.767-2.05,1c-0.834,0.4-1.551,0.684-2.15,0.85l-1.7,0.35l3.4-1.65l1.1-0.55c0.467-0.2,0.867-0.367,1.2-0.5
	l2.6-1.1c0.034-0.034,0.067-0.05,0.101-0.05l0.1-0.05C45.866,15.217,46.366,15.017,46.8,14.75z M39.9,20.95
	c0.666-0.4,1.8-0.834,3.399-1.3c1.7-0.467,2.867-0.884,3.5-1.25c1.566-0.933,3.267-1.7,5.101-2.3c2.133-0.7,4.116-1.067,5.949-1.1
	L53.2,17.3L42,20.55l0.65-0.25l-2.15,0.65H39.9z M35.4,25.75L35.15,26l-2.101,0.55c-1.1,0.367-1.55,0.8-1.35,1.3h0.2
	c-0.034,0.067-0.084,0.15-0.15,0.25l1.9-0.25c1.033-0.133,2.05-0.383,3.05-0.75l1.1-0.25l2.4-0.649c0.2-0.066,1.684-0.334,4.45-0.8
	c-2,0.866-3.634,1.733-4.9,2.6l-0.3,0.2l-0.05,0.05c-0.101,0.066-0.7,0.6-1.801,1.6c-0.767,0.667-1.483,1.084-2.149,1.25
	c2.434,0,5.149-0.8,8.149-2.399h0.051L41.1,30.25l3.4-0.7c1.667-0.366,3.45-0.967,5.35-1.8c0.267-0.134,1.917-0.934,4.95-2.4
	l2.65-0.55L57.35,24.9c-0.366,0.233-0.716,0.466-1.05,0.699L55.4,26.1c-0.301,0.134-0.567,0.267-0.801,0.4
	c-0.1,0.066-0.25,0.134-0.449,0.2l-1.2,0.55L37,31.85c-0.4,0.301-1.366,0.617-2.9,0.95c-1.333,0.3-2.166,0.7-2.5,1.2
	c0.767,0.366,1.9,0.4,3.4,0.1l-0.8,0.4l-3.55,1.7L30.7,36l0.05-0.1c-0.2-0.134-0.45-0.2-0.75-0.2l-0.25-0.05l-1.5,0.05l-0.5-0.25
	l-0.5-0.25l1.05-0.351l0.25-0.1l2-1l0.4-0.25l-0.3,0.05c0-0.166,0.083-0.333,0.25-0.5l0.6-0.6l0.2-0.15
	c0.6-0.133,1.399-0.434,2.399-0.899c1.067-0.5,1.851-0.817,2.351-0.95l-1.2-0.3l1.4-1.051c-0.167-0.166-0.733-0.183-1.7-0.05
	c-1.267,0.167-1.917,0.25-1.95,0.25h-0.1c-0.467,0-0.817-0.017-1.051-0.05l-0.899-0.1l-0.1-0.65l-0.15-3.65
	c0-0.433-0.05-0.85-0.15-1.25l-0.3-1.55v-0.2L30,20.75c0.767,0.1,1.5,0.1,2.2,0c0.967-0.134,2.05-0.45,3.25-0.95l-0.601,0.45
	c-0.233,0.2-0.433,0.434-0.6,0.7c-0.033,0.066,0.017,0.149,0.15,0.25c0.133,0.1,0.166,0.217,0.1,0.35l-0.1,0.15L34.3,21.75
	c-0.6,0.233-1.066,0.434-1.399,0.6c-0.567,0.267-0.817,0.551-0.75,0.851c0.6,0.133,1.583,0.1,2.949-0.101L34.3,23.4l-1.95,1.05
	l-0.149,0.1l0.45,0.05c0.399,0,0.716,0.051,0.949,0.15L33.55,25c0,0.066-0.1,0.333-0.3,0.8l-0.15,0.45c0.334,0.033,0.7,0,1.101-0.1
	l1-0.351L35.4,25.75z M46.4,27.4c0.633-0.567,1.75-1.134,3.35-1.7l3.85-1.25L51.4,25.85l0.949-0.1l-0.25,0.1
	c-1.466,0.467-2.566,0.834-3.3,1.101c-1.333,0.5-2.366,1-3.1,1.5C45.8,28.083,46.033,27.733,46.4,27.4z M58.55,20.5v0.95
	c-0.934,0.333-2.25,0.866-3.95,1.6c-1.8,0.8-3.116,1.351-3.949,1.65c-0.134,0.066-0.517,0.2-1.15,0.399
	c-1.4,0.5-2.134,0.717-2.2,0.65c1.2-0.5,3.117-1.267,5.75-2.3c2.233-1,3.917-2.017,5.05-3.05L58.55,20.5z M10.95,13.65
	c-4.133-1.6-6.583-2.517-7.35-2.75l-1.15-0.3C2.617,10.5,2.8,10.45,3,10.45c0.467,0.1,1.283,0.35,2.45,0.75
	c2.5,0.8,4.05,1.333,4.65,1.6c3.767,1.567,6.033,2.483,6.8,2.75l7.75,2.75l-2.25-0.6c-1.433-0.4-4.633-1.517-9.6-3.35L10.95,13.65z
	 M20.55,19.8l1.95,0.95c-5.067-1.4-8.85-2.483-11.35-3.25L8.7,16.75c-0.767-0.333-1.617-0.767-2.55-1.3c2,0.3,4.133,0.767,6.4,1.4
	L13.1,17C15.733,17.767,18.217,18.7,20.55,19.8z M9.65,17.2l-0.6-0.25L22.7,20.85c1.133,0.601,1.95,1.067,2.45,1.4l-2-0.2
	c-1.6-0.133-3.25-0.533-4.95-1.2C14.933,19.616,12.083,18.4,9.65,17.2z M20.85,25.75l0.7-0.4c-0.4-0.133-1.05-0.433-1.95-0.899
	c-1-0.5-1.6-0.8-1.8-0.9c-2.1-0.833-3.833-1.399-5.2-1.7l-3.65-1.8c1.7,0.367,3.216,0.8,4.55,1.3c0.067,0.034,0.15,0.067,0.25,0.101
	c0.533,0.2,1.6,0.633,3.2,1.3c1.3,0.566,2.367,0.983,3.2,1.25c0.333,0.333,0.717,0.45,1.15,0.35l6.6,4.051
	C26.3,27.6,23.95,26.717,20.85,25.75z M20.55,29.7c-0.466-0.066-1.083-0.233-1.85-0.5c-0.934-0.3-2-0.733-3.2-1.3L11.7,26l9.8,3.8
	L20.55,29.7z"/>
<path style="fill-rule:evenodd;clip-rule:evenodd;fill:#BBB6A8;" d="M34.9,25.65l0.3,0.149l-1,0.351c-0.4,0.1-0.767,0.133-1.101,0.1
	l0.15-0.45c0.2-0.467,0.3-0.733,0.3-0.8l0.05-0.25c-0.233-0.1-0.55-0.15-0.949-0.15L32.35,24.45l1.95-1.05l0.8-0.301l2.9-0.5
	c1.9-0.333,4.017-0.933,6.35-1.8c1.301-0.3,2.934-0.866,4.9-1.7c2.634-0.933,5.116-1.883,7.45-2.85l-3.5,1.05L57.85,15
	c-1.833,0.033-3.816,0.4-5.949,1.1c-1.834,0.6-3.534,1.367-5.101,2.3c-0.633,0.367-1.8,0.784-3.5,1.25
	c-1.6,0.466-2.733,0.899-3.399,1.3c-1.4-0.101-2.684-0.033-3.851,0.2c-0.733,0.199-1.283,0.383-1.649,0.55l0.1-0.15
	c0.066-0.133,0.033-0.25-0.1-0.35c-0.134-0.101-0.184-0.184-0.15-0.25c0.167-0.267,0.366-0.5,0.6-0.7l0.601-0.45l1.35-0.55l1.7-0.35
	c0.6-0.167,1.316-0.45,2.15-0.85c0.466-0.233,1.149-0.566,2.05-1c1.133-0.466,2.883-0.933,5.25-1.4c0.833-0.2,1.983-0.633,3.45-1.3
	c1.399-0.667,2.533-1.1,3.399-1.3c1.267-0.267,2.4-0.583,3.4-0.95c0.033,0.233,0.05,0.517,0.05,0.85
	c0.066,1.066,0.083,1.683,0.05,1.85v0.05L57.85,15H58.2c0,0.029,0,0.063,0,0.1C58,15.367,57.6,15.567,57,15.7
	c-0.055,0.027-0.097,0.044-0.125,0.05c0.357-0.032,0.749,0.001,1.175,0.1c0.134,0.3-0.033,0.55-0.5,0.75c-0.6,0.3-0.95,0.5-1.05,0.6
	c1.033,0.267,1.616,0.45,1.75,0.55L47.7,21.4C46.3,21.667,43.6,22.467,39.6,23.8l-1.949,0.75c-1.067,0.5-1.917,0.834-2.551,1
	l-0.35,0.05l-0.1,0.051c-0.7,0.066-1.101,0.133-1.2,0.199L34.9,25.65z M46.85,22.85c2.834-0.866,6.733-2.199,11.7-4v0.45v1.2
	l-0.45-0.1c-1.133,1.033-2.816,2.05-5.05,3.05c-2.633,1.033-4.55,1.8-5.75,2.3c0.066,0.066,0.8-0.15,2.2-0.65
	c0.634-0.199,1.017-0.333,1.15-0.399c0.833-0.3,2.149-0.851,3.949-1.65c1.7-0.733,3.017-1.267,3.95-1.6v0.1
	c0,0.167-0.017,0.334-0.05,0.5c-1.5,0.5-3.134,1.3-4.9,2.4l-3.85,1.25c-0.6,0.1-1.634,0.55-3.1,1.35
	c-1.434,0.8-2.217,1.233-2.351,1.3L43.65,28.7H43.6c-3,1.6-5.716,2.399-8.149,2.399c0.666-0.166,1.383-0.583,2.149-1.25
	c1.101-1,1.7-1.533,1.801-1.6l0.05-0.05l0.3-0.2c1.267-0.866,2.9-1.733,4.9-2.6c-2.767,0.466-4.25,0.733-4.45,0.8l-2.4,0.649
	L37.45,26.9L37.35,26.85l3.301-1.3l0.8-0.399c0.3-0.134,0.583-0.25,0.85-0.351l3-1.35c0.667-0.267,1.217-0.467,1.65-0.601
	l-0.4,0.101C46.65,22.917,46.75,22.884,46.85,22.85z M9.3,22l-6.05-2.65L3.2,19.3l1.75,0.3L4.9,19.5
	c-0.033-0.033-0.066-0.05-0.1-0.05l-0.2-0.2c0.1,0.033,0.233,0.083,0.4,0.15l1.6,0.649c0.033,0.033,0.066,0.05,0.1,0.05
	c0.1,0.034,0.216,0.084,0.35,0.15c0.034,0,0.067,0.017,0.1,0.05c1.567,0.667,3.883,1.7,6.95,3.101L9.3,22z M25.3,32.15
	c-1.367-0.601-2.533-0.983-3.5-1.15l6.9,2.75C27.2,33.05,26.067,32.517,25.3,32.15z M29.85,30.85l0.35-1.5
	c-0.067,0.167-0.434,0.567-1.1,1.2c-3.6-1.434-7.383-3.017-11.35-4.75l-4.25-1.95l1.45,0.301c0.466,0,0.816,0.017,1.05,0.05
	l4.35,1.85l0.5-0.3c3.1,0.967,5.45,1.85,7.05,2.65l-6.6-4.051c-0.433,0.101-0.816-0.017-1.15-0.35c-0.833-0.267-1.9-0.684-3.2-1.25
	c-1.6-0.667-2.667-1.1-3.2-1.3c-0.1-0.033-0.183-0.066-0.25-0.101c0.933,0.301,2,0.65,3.2,1.051c1,0.333,2.65,0.916,4.95,1.75
	c2.1,0.699,3.817,1.066,5.15,1.1l1.95,1.55l-0.5,0.5l0.4,0.55c-0.867-0.533-1.583-0.833-2.15-0.899
	c0.067,0.267,0.517,0.633,1.35,1.1c0.867,0.467,1.45,0.617,1.75,0.45c0.233-0.167,0.367-0.4,0.4-0.7l0.65,0.5
	c-0.066-0.399-0.167-0.767-0.3-1.1c-0.2-0.467-0.267-0.917-0.2-1.351l-0.3-0.1L29.75,25l-1,0.45l-2.35-0.7
	c-2.4-0.767-5.717-1.983-9.95-3.65c-2.267-0.899-5.05-1.883-8.35-2.95h0.25L7.6,17.8l-0.4-0.25l0.1,0.05h0.25l-0.6-0.15l-3.3-1.65
	c1.6,0.467,2.8,0.767,3.6,0.9l2.4,0.5c2.434,1.2,5.283,2.416,8.55,3.649c1.7,0.667,3.35,1.067,4.95,1.2l2,0.2
	c-0.5-0.333-1.316-0.8-2.45-1.4l3.2,0.801c-0.667-0.233-2.267-0.801-4.8-1.7c2.933,0.8,5.683,1.416,8.25,1.85
	c0,0.634,0.1,1.084,0.3,1.351l0.25,0.25v-0.15L30,21.9l0.25,0.149l0.3,1.55c0.1,0.4,0.15,0.817,0.15,1.25l0.15,3.65l0.1,0.65
	l0.899,0.1c0.233,0.033,0.584,0.05,1.051,0.05L32.3,29.6l0.3,0.25L33,29.3c0.033,0,0.684-0.083,1.95-0.25
	c0.967-0.133,1.533-0.116,1.7,0.05l-1.4,1.051l-0.55-0.2l-3.2,1.5l-0.45,0.2l0.15-0.301L29.85,30.85z M1.95,12.2l1.25,0.4l2.35,1.05
	c0.534,0.233,1.6,0.617,3.2,1.15c1.367,0.467,2.4,0.867,3.1,1.2c-2.6-0.9-5.767-1.833-9.5-2.8H2.3l-0.1-0.3
	C2.1,12.633,2.017,12.4,1.95,12.2z M5.45,11.2c-0.267-0.1-0.817-0.383-1.65-0.85h1L4.55,10.2L4.5,10.15
	c0.867,0.267,2.133,0.767,3.8,1.5c2.934,1.133,5.534,2.033,7.8,2.7c1.767,0.533,4.35,1.45,7.75,2.75
	c0.533,0.167,1.75,0.483,3.65,0.95c0.267,0.633,0.45,1.017,0.55,1.15c0.3,0.366,0.784,0.633,1.45,0.8
	c0.067,0.167,0.05,0.417-0.05,0.75c-0.067,0.366-0.1,0.616-0.1,0.75v0.05c-4.333-1.566-7.5-2.85-9.5-3.85
	c-1.533-0.8-4.5-2.15-8.9-4.05l1.85,0.7c4.967,1.833,8.167,2.95,9.6,3.35l2.25,0.6l-7.75-2.75c-0.767-0.267-3.033-1.183-6.8-2.75
	C9.5,12.533,7.95,12,5.45,11.2z M29.85,36.6l-0.15-0.3l0.05-0.649L30,35.7c0.3,0,0.55,0.066,0.75,0.2L30.7,36l-0.05,0.2L29.85,36.6z
	 M54.8,25.35c-3.033,1.467-4.684,2.267-4.95,2.4c-1.899,0.833-3.683,1.434-5.35,1.8l-3.4,0.7L46.4,27.4
	c-0.367,0.333-0.601,0.683-0.7,1.05c0.733-0.5,1.767-1,3.1-1.5c0.733-0.267,1.834-0.634,3.3-1.101l0.25-0.1L54.8,25.35z
	 M29.95,20.75H30l0.25,1.1L30,21.8L29.95,20.75z M27.55,22.1l-1.3-0.35l0.3,0.15L27.55,22.1z M23.2,30.7
	c1.133,0.6,2.433,1.149,3.9,1.649l0.25,0.101l2.9,1.2l0.05-0.2l0.25-0.55l-0.45-0.25V32.6H30l-10-4.35
	c-4.9-1.8-7.483-3.066-7.75-3.8c0.767,0.3,2,0.666,3.7,1.1c2.9,1.134,5.433,2.2,7.6,3.2c0.3,0.134,1.117,0.55,2.45,1.25
	c1.3,0.6,2.3,0.866,3,0.8c-0.1,0.267,0.167,0.417,0.8,0.45l0.05-0.3l0.9,0.85L29.8,32.4c0.367,0.066,0.9,0.066,1.601,0l0.1,0.05
	l-0.6,0.6c-0.167,0.167-0.25,0.334-0.25,0.5l0.3-0.05l-0.4,0.25l-2,1l-0.25,0.1l-4-1.949c-1.533-0.733-4.966-2.267-10.3-4.601
	C9.733,26.4,6.35,24.8,3.85,23.5c2.333,1.066,6.217,2.533,11.65,4.4c1.2,0.566,2.267,1,3.2,1.3c0.767,0.267,1.383,0.434,1.85,0.5
	L23.2,30.7z M38.95,25l-3.5,0.95L35.15,26l0.25-0.25l-0.15-0.1c1.566-0.267,2.783-0.5,3.65-0.7L38.95,25z M31.9,27.85
	c0.566,0.067,1.149,0.067,1.75,0l-1.9,0.25C31.816,28,31.866,27.917,31.9,27.85z"/>
<path style="fill-rule:evenodd;clip-rule:evenodd;fill:#747068;" d="M34.75,17.5l0.3-0.05l3.15-0.95l1.649-0.25l4.45-0.65
	c0.267-0.067,0.533-0.117,0.8-0.15l-2.6,1.1l-0.55,0.2c-0.233,0.067-0.45,0.167-0.65,0.3l-1.1,0.55l-4.75,2.2
	c-1.2,0.5-2.283,0.816-3.25,0.95c-0.7,0.1-1.434,0.1-2.2,0h-0.05v-0.5c0.533-0.733,0.867-1.267,1-1.6L34.75,17.5z M51.75,12.85
	c-1.467,0.533-3.116,1.167-4.95,1.9c1.601-0.8,2.517-1.233,2.75-1.3L51.75,12.85z M42,20.55l11.2-3.25l3.5-1.05
	c-2.334,0.967-4.816,1.917-7.45,2.85c-1.967,0.834-3.6,1.4-4.9,1.7c-2.333,0.867-4.449,1.467-6.35,1.8l-2.9,0.5
	c-1.366,0.2-2.35,0.233-2.949,0.101c-0.067-0.3,0.183-0.584,0.75-0.851c0.333-0.166,0.8-0.366,1.399-0.6L34.4,21.7
	c0.366-0.167,0.916-0.351,1.649-0.55c1.167-0.233,2.45-0.301,3.851-0.2h0.6l1.25-0.351L42,20.55z M46.55,22.95l0.4-0.101
	c-0.434,0.134-0.983,0.334-1.65,0.601l-3,1.35c-0.267,0.101-0.55,0.217-0.85,0.351L36.7,27.1c-1,0.367-2.017,0.617-3.05,0.75
	c-0.601,0.067-1.184,0.067-1.75,0h-0.2c-0.2-0.5,0.25-0.933,1.35-1.3L35.15,26l0.3-0.05l3.5-0.95L46.55,22.95z M51.4,25.85
	L53.6,24.45c1.767-1.101,3.4-1.9,4.9-2.4c-0.033,0.233-0.066,0.45-0.1,0.65c1.033,0.133,1.767,0.133,2.199,0
	c-1.133,0.8-2.149,1.5-3.05,2.1h-0.1L51.4,25.85z M35.15,34.05L35,34.1c-1.5,0.301-2.634,0.267-3.4-0.1c0.334-0.5,1.167-0.9,2.5-1.2
	c1.534-0.333,2.5-0.649,2.9-0.95l15.95-4.6c-0.167,0.066-0.7,0.283-1.601,0.65L45.7,30.1c-0.033,0.034-0.066,0.051-0.101,0.051
	c-0.1,0.033-0.183,0.066-0.25,0.1c-0.3,0.1-0.6,0.217-0.899,0.35c-0.8,0.334-2.351,0.884-4.65,1.65
	C37.934,32.884,36.384,33.483,35.15,34.05z M31.7,32.3L31.4,32.4c-0.7,0.066-1.234,0.066-1.601,0l0.95-0.601l0.75-0.35l3.2-1.5
	l0.55,0.2l1.2,0.3c-0.5,0.133-1.283,0.45-2.351,0.95C33.1,31.866,32.3,32.167,31.7,32.3z M14.45,23.55
	c-2.667-1.233-4.15-1.934-4.45-2.1l0.8,0.1c0.833,0.233,1.483,0.351,1.95,0.351L12.6,21.85c1.367,0.301,3.1,0.867,5.2,1.7
	c0.2,0.101,0.8,0.4,1.8,0.9c0.9,0.467,1.55,0.767,1.95,0.899l-0.7,0.4l-0.5,0.3L16,24.2l1.5,0.2L14.45,23.55z"/>
<path style="fill-rule:evenodd;clip-rule:evenodd;fill:#C2BEB0;" d="M44.6,13.05c-0.433,0.167-1.283,0.383-2.55,0.65
	c-1.033,0.267-1.833,0.533-2.399,0.8l-3.7,1.2c-1.033,0.3-1.816,0.5-2.351,0.6c-1.366-0.1-2.399-0.233-3.1-0.4
	c-3.367-0.667-7.917-1.833-13.65-3.5c-1-0.267-1.867-0.517-2.6-0.75c-1.367-0.4-2.25-0.75-2.65-1.05c1.033-0.033,2.6,0.05,4.7,0.25
	c2.1,0.2,3.65,0.267,4.65,0.2C20.983,10.683,21,10.433,21,10.3c1.567,0.167,3.883,0.45,6.95,0.85c2.767,0.333,5.1,0.517,7,0.55
	c1.467,0.033,2.566,0.017,3.3-0.05c1.066-0.1,2.083-0.35,3.05-0.75l6.25,1.15L44.6,13.05z M43.5,4.1
	c-1.134,0.3-1.983,0.533-2.55,0.7c-1,0.267-1.733,0.55-2.2,0.85c0.2,0.1,0.717,0.35,1.55,0.75c0.634,0.3,1.084,0.567,1.351,0.8
	c-0.534,0.033-1.384,0.033-2.551,0c-1.133-0.067-1.983-0.083-2.55-0.05c-0.8,0.033-2.733,0.25-5.8,0.65
	c-0.333,0.1-0.667,0.133-1,0.1c0.233-0.167,1.017-0.517,2.35-1.05c1.101-0.567,1.483-1.083,1.15-1.55
	c-0.267-0.333-0.7-0.417-1.3-0.25c-0.667,0.267-1.117,0.434-1.35,0.5C30,5.85,29.517,6,29.15,6c-0.033,0-0.6-0.067-1.7-0.2
	C24.417,5.467,22.267,5.383,21,5.55c1.233-0.267,2.567-0.633,4-1.1c1.567-0.467,3.317-1.267,5.25-2.4l0.1-0.15
	c1.833-0.467,3.917-1.1,6.25-1.9c1.167,1.733,2.4,2.8,3.7,3.2l3.25,0.9H43.5z M52.15,10.35c-0.2,0.367-0.434,0.583-0.7,0.65
	c-0.434,0.167-1.117,0.183-2.05,0.05c-0.934-0.1-1.601-0.283-2-0.55c0.066-0.333,0.366-0.567,0.899-0.7c0.467-0.1,0.934-0.1,1.4,0
	h3.2C52.6,9.867,52.35,10.05,52.15,10.35z"/>
<linearGradient id="SVGID_1_" gradientUnits="userSpaceOnUse" x1="3.5005" y1="26.8115" x2="61.7197" y2="26.8115" gradientTransform="matrix(0.9984 0.0571 0.0441 1.0042 3.972016e-004 6.076321e-005)">
	<stop  offset="0" style="stop-color:#000000;stop-opacity:0.298"/>
	<stop  offset="0.8588" style="stop-color:#000000;stop-opacity:0.298"/>
	<stop  offset="1" style="stop-color:#000000;stop-opacity:0.298"/>
</linearGradient>
<path style="fill-rule:evenodd;clip-rule:evenodd;fill:url(#SVGID_1_);" d="M7,25.65c1.467,0.8,4.733,2.517,9.8,5.149
	c1.567,0.8,3.5,1.717,5.8,2.75c0.066,0.033,0.133,0.066,0.2,0.101c0.267,0.1,0.534,0.216,0.8,0.35l0.95,0.4
	c1.6,0.699,3.367,1.433,5.3,2.199l0.8-0.399l3.55-1.7l0.95-0.45c1.233-0.566,2.783-1.166,4.649-1.8c2.3-0.767,3.851-1.316,4.65-1.65
	c0.3-0.133,0.6-0.25,0.899-0.35c0.067-0.033,0.15-0.066,0.25-0.1c0.034,0,0.067-0.017,0.101-0.051L51.35,27.9
	c0.9-0.367,1.434-0.584,1.601-0.65l1.2-0.55c0.199-0.066,0.35-0.134,0.449-0.2c0.233-0.134,0.5-0.267,0.801-0.4l0.899-0.5
	c0.4-0.267,0.816-0.533,1.25-0.8c0.9-0.6,1.917-1.3,3.05-2.1c-0.433,0.133-1.166,0.133-2.199,0c0.033-0.2,0.066-0.417,0.1-0.65
	c0.434,0.033,0.967,0.066,1.6,0.101c1.5,0.233,2.301,0.716,2.4,1.449c0.033,0.467-0.233,0.851-0.8,1.15
	c-0.733,0.333-1.283,0.566-1.65,0.7c-0.333,0.133-0.899,0.416-1.7,0.85c-0.699,0.4-1.267,0.667-1.699,0.8
	c-1.367,0.233-2.284,0.517-2.75,0.851c-0.101,0.066-0.184,0.217-0.25,0.45c-0.101,0.267-0.167,0.416-0.2,0.449
	c-0.3-0.033-0.601,0.034-0.9,0.2c-0.333,0.2-0.6,0.334-0.8,0.4c-1.3,0.333-2.267,0.666-2.9,1c-0.633,0.333-1.6,0.7-2.899,1.1
	c-1.4,0.434-2.384,0.783-2.95,1.05c-2.934,1.2-5.066,1.967-6.4,2.301c-1.433,0.366-2.699,0.833-3.8,1.399
	c-0.434,0.233-0.717,0.367-0.85,0.4c-0.134,0.033-0.45,0.05-0.95,0.05c-1.767,0.033-3.617-0.35-5.55-1.15
	c-1.2-0.533-2.867-1.433-5-2.699c-0.333-0.233-0.833-0.483-1.5-0.75c-0.833-0.334-1.35-0.551-1.55-0.65l-3.05-1.55
	c-1.167-0.533-2.767-1.134-4.8-1.8c-2.566-0.834-4.2-1.384-4.9-1.65c0.133-0.233,0.583-0.434,1.35-0.6
	C6.4,25.833,6.733,25.75,7,25.65z"/>
</svg>
