<?xml version="1.0" encoding="iso-8859-1"?>
<!-- Generator: Adobe Illustrator 15.1.0, SVG Export Plug-In . SVG Version: 6.00 Build 0)  -->
<!DOCTYPE svg PUBLIC "-//W3C//DTD SVG 1.1//EN" "http://www.w3.org/Graphics/SVG/1.1/DTD/svg11.dtd">
<svg version="1.1" id="Layer_1" xmlns="http://www.w3.org/2000/svg" xmlns:xlink="http://www.w3.org/1999/xlink" x="0px" y="0px"
	 width="59.15px" height="20.9px" viewBox="0 0 59.15 20.9" style="enable-background:new 0 0 59.15 20.9;" xml:space="preserve">
<path style="fill-rule:evenodd;clip-rule:evenodd;fill:#B8B5A7;" d="M7.1,11.4c-0.434,0.267-0.767,0.466-1,0.6
	c-0.333,0.267-0.467,0.483-0.4,0.65c0.4,0.699,1.917,1.6,4.55,2.699c0.033,0,0.067,0.017,0.1,0.051c-3.2-1-5.317-1.7-6.35-2.101
	L0.25,11.9L3.8,11.8c1.034-0.066,1.967-0.184,2.8-0.35c0.167-0.033,0.333-0.066,0.5-0.101V11.4z M31.75,3.2
	c-1.267,0.233-2.733,0.816-4.4,1.75c-0.6,0.267-1.067,0.466-1.4,0.6c-0.8,0.267-1.934,0.617-3.4,1.05c-0.066,0-0.117,0-0.15,0
	l0.85-0.3c0.067-0.033,0.15-0.066,0.25-0.1c1.5-0.567,3.133-1.45,4.9-2.65c1.034-1.233,1.55-1.966,1.55-2.2L30.85,0l2.65,1.55
	c1.7,0.9,3.134,1.483,4.3,1.75c0.2,0.034,0.384,0.067,0.55,0.1L43.2,4.05l1.1,0.15c-3.2-0.3-5.217-0.483-6.05-0.55
	C38.083,3.617,37.934,3.6,37.8,3.6c-0.633-0.133-1.116-0.233-1.45-0.3C35.017,3,33.667,2.933,32.3,3.1
	C32.167,3.1,31.983,3.133,31.75,3.2z"/>
<path style="fill-rule:evenodd;clip-rule:evenodd;fill:#F5EFDD;" d="M55.4,6.55L55,6.85c-0.934,0.667-1.816,1.25-2.65,1.75L51.7,9
	c-0.033,0-0.066,0.017-0.101,0.05c-0.033,0-0.066,0.017-0.1,0.05L49.8,10c-0.767,0.367-1.684,0.8-2.75,1.3
	c-3.333,1.566-5.033,2.367-5.1,2.4C41.384,14,40,14.6,37.8,15.5c-0.066,0-0.133,0.017-0.2,0.05c-1.767,0.733-3.233,1.417-4.399,2.05
	L28.25,20.4C23.817,19.634,19.5,18.6,15.3,17.3c-5.8-1.767-9.55-3-11.25-3.7L3.5,13.35L0.25,11.9L4,13.3
	c1.033,0.4,3.15,1.101,6.35,2.101c0.333,0.1,0.7,0.216,1.1,0.35c1.5,0.366,4.066,1,7.7,1.9c3.2,0.8,5.283,1.233,6.25,1.3
	c1.767,0.133,3.017-0.05,3.75-0.55c0.399-0.301,0.783-0.75,1.149-1.351c0.767-0.6,0.667-1.184-0.3-1.75
	c-0.4-0.233-0.833-0.416-1.3-0.55c-0.7-0.167-1.35-0.333-1.95-0.5c-0.733-0.167-1.45-0.384-2.15-0.65l-0.8-0.35l0.65,0.2
	c0.433,0.133,0.966,0.25,1.6,0.35c1.167,0.267,2.2,0.434,3.101,0.5c0.733,0.066,1.983,0.267,3.75,0.601
	c1.533,0.333,2.566,0.483,3.1,0.449c0.267,0,0.55-0.05,0.85-0.149c0.301-0.101,0.617-0.217,0.95-0.351
	c0.033-0.033,0.066-0.05,0.101-0.05c0.399-0.2,0.767-0.366,1.1-0.5c0.3-0.166,0.583-0.283,0.85-0.35l0.301-0.101l0.1-0.05h0.05
	c1.434-0.399,2.434-0.934,3-1.6c0.334-0.4,0.05-0.767-0.85-1.101l-1.05-0.5l1.199,0.25c0.867,0.167,1.534,0.25,2,0.25
	c0.101,0,0.25-0.017,0.45-0.05c0.367-0.133,0.967-0.35,1.8-0.65c1.367-0.566,3.351-1.45,5.95-2.65c1-0.4,1.617-0.8,1.851-1.2
	c0.267-0.433,0.083-0.8-0.551-1.1h0.051c1.399,0.066,2.366,0,2.899-0.2c-0.033,0.033-0.066,0.067-0.1,0.1
	c-0.066,0.033-0.117,0.066-0.15,0.1L56.1,6C55.833,6.167,55.6,6.35,55.4,6.55z M30.85,0L29.95,1.35c0,0.233-0.517,0.967-1.55,2.2
	c-1.767,1.2-3.4,2.083-4.9,2.65c-0.1,0.033-0.183,0.066-0.25,0.1l1.3-0.7c0.534-0.233,1.217-0.6,2.05-1.1
	c0.733-0.467,1.217-0.8,1.45-1l1.25-1.6c0.2-0.333,0.367-0.633,0.5-0.9C30.066,0.633,30.417,0.3,30.85,0z M38.25,3.65
	c0.2,0.033,0.417,0.067,0.65,0.1l-0.851-0.1c-0.1,0-0.184,0-0.25,0C35.934,3.417,34.384,3.3,33.15,3.3
	c-0.634,0.034-1.267,0.15-1.9,0.35c-0.2,0.067-0.8,0.317-1.8,0.75c-0.367,0.067-0.833,0.25-1.4,0.55
	c-0.533,0.267-1.3,0.517-2.3,0.75l-0.8,0.2l0.5-0.15c0.1-0.033,0.267-0.1,0.5-0.2c0.333-0.133,0.8-0.333,1.4-0.6
	c0.2-0.1,0.4-0.2,0.6-0.3c0.566-0.3,1.333-0.617,2.3-0.95c0.6-0.233,1.1-0.4,1.5-0.5c0.233-0.067,0.417-0.1,0.55-0.1
	c1.367-0.167,2.717-0.1,4.05,0.2c0.334,0.067,0.817,0.167,1.45,0.3C37.934,3.6,38.083,3.617,38.25,3.65z"/>
<path style="fill-rule:evenodd;clip-rule:evenodd;fill:#E0DBCA;" d="M0.25,11.9l4.3-0.2c0.733-0.066,1.417-0.15,2.05-0.25
	c-0.833,0.166-1.767,0.283-2.8,0.35L0.25,11.9z M10.35,15.4c-0.033-0.034-0.067-0.051-0.1-0.051c-2.633-1.1-4.15-2-4.55-2.699
	C5.633,12.483,5.767,12.267,6.1,12c0.233-0.134,0.566-0.333,1-0.6c0.6-0.134,1.133-0.267,1.6-0.4c0.533-0.167,1.933-0.667,4.2-1.5
	c1.833-0.7,3.217-1.133,4.15-1.3c1.333-0.233,3.167-0.767,5.5-1.6c1.467-0.434,2.6-0.783,3.4-1.05c-0.233,0.1-0.4,0.167-0.5,0.2
	l-0.5,0.15l0.8-0.2c1-0.233,1.767-0.483,2.3-0.75c0.567-0.3,1.033-0.483,1.4-0.55c1-0.433,1.6-0.683,1.8-0.75
	c0.634-0.2,1.267-0.316,1.9-0.35c1.233,0,2.783,0.117,4.649,0.35c0.066,0,0.15,0,0.25,0l0.851,0.1c-0.233-0.033-0.45-0.067-0.65-0.1
	C39.083,3.717,41.1,3.9,44.3,4.2l-1.1-0.15l1.3,0.15c5.566,0.767,8.767,1.183,9.6,1.25c0.634,0.3,0.817,0.667,0.551,1.1
	c-0.233,0.4-0.851,0.8-1.851,1.2c-2.6,1.2-4.583,2.083-5.95,2.65c0.134-0.1,0.267-0.183,0.4-0.25c0.5-0.3,0.684-0.517,0.55-0.65
	c-0.066-0.067-0.35-0.183-0.85-0.35c-0.8-0.433-1.601-0.816-2.4-1.15c-1.566-0.6-3.116-0.883-4.649-0.85
	c-0.5,0-1.2-0.017-2.101-0.05c-1.166-0.033-2.684-0.1-4.55-0.2c-2.8-0.167-4.433-0.2-4.9-0.1c-0.533,0.133-0.517,0.3,0.05,0.5
	c0.4,0.133,1.4,0.45,3,0.95c1.433,0.467,3.566,1,6.399,1.6c0.767,0.167,1.584,0.333,2.45,0.5c1.467,0.267,2.517,0.417,3.15,0.45
	c0.5,0.034,0.983,0.1,1.449,0.2c0.067,0,0.134,0.017,0.2,0.05c-0.2,0.033-0.35,0.05-0.45,0.05c-0.466,0-1.133-0.083-2-0.25
	L41.4,10.6l1.05,0.5c0.899,0.334,1.184,0.7,0.85,1.101c-0.566,0.666-1.566,1.2-3,1.6L42.4,12.9H41.05c-0.6,0-1.684-0.101-3.25-0.301
	c-1.233-0.166-2.75-0.383-4.55-0.649c-1.267-0.167-3.6-0.767-7-1.8c-2.967-0.9-4.95-1.333-5.95-1.3C19.033,8.883,18.25,9,17.95,9.2
	c-0.233,0.133-0.233,0.35,0,0.65c0.333,0.467,2.367,1.6,6.1,3.4c0.133,0.066,0.267,0.134,0.4,0.2l-0.65-0.2l0.8,0.35
	c0.7,0.267,1.417,0.483,2.15,0.65c0.6,0.167,1.25,0.333,1.95,0.5c0.467,0.134,0.899,0.316,1.3,0.55c0.967,0.566,1.066,1.15,0.3,1.75
	c-0.366,0.601-0.75,1.05-1.149,1.351c-0.734,0.5-1.984,0.683-3.75,0.55c-0.967-0.066-3.05-0.5-6.25-1.3
	c-3.633-0.9-6.2-1.534-7.7-1.9C11.05,15.616,10.683,15.5,10.35,15.4z M39,14.3c-0.333,0.134-0.7,0.3-1.1,0.5
	c-0.034,0-0.067,0.017-0.101,0.05c-0.333,0.134-0.649,0.25-0.95,0.351c0.167-0.101,0.483-0.25,0.95-0.45L39,14.3z M26.05,13.8
	c0.167,0.033,0.367,0.066,0.6,0.101c0.667,0.1,1.633,0.216,2.9,0.35c1.2,0.1,3.351,0.467,6.45,1.1
	c-0.533,0.034-1.566-0.116-3.1-0.449c-1.767-0.334-3.017-0.534-3.75-0.601C28.25,14.233,27.217,14.066,26.05,13.8z M47,5.95
	c-1.1,0-1.483,0.133-1.15,0.4c0.4,0.333,0.934,0.75,1.601,1.25c0.7,0.533,1.083,0.8,1.149,0.8c0.067,0,0.434,0.033,1.101,0.1
	c0.8,0,1.633-0.183,2.5-0.55c2.267-1,1.6-1.6-2-1.8C48.7,6.05,47.634,5.983,47,5.95z M27.35,4.95c1.667-0.934,3.133-1.517,4.4-1.75
	c-0.4,0.1-0.9,0.267-1.5,0.5c-0.967,0.333-1.733,0.65-2.3,0.95C27.75,4.75,27.55,4.85,27.35,4.95z M10.45,11.35
	c2.5,0,4.5,0.217,6,0.65l3.1,0.95c-0.533-0.467-1.216-0.917-2.05-1.351c-1.633-0.899-3.15-1.316-4.55-1.25
	c-0.633,0.033-1.317,0.2-2.05,0.5C10.133,11.184,9.983,11.35,10.45,11.35z"/>
<path style="fill-rule:evenodd;clip-rule:evenodd;fill:#CDC9BA;" d="M45.05,11.05c-0.066-0.033-0.133-0.05-0.2-0.05
	c-0.466-0.1-0.949-0.167-1.449-0.2c-0.634-0.033-1.684-0.183-3.15-0.45c-0.866-0.167-1.684-0.333-2.45-0.5
	c-2.833-0.6-4.967-1.133-6.399-1.6c-1.601-0.5-2.601-0.817-3-0.95c-0.566-0.2-0.583-0.367-0.05-0.5c0.467-0.1,2.1-0.066,4.9,0.1
	c1.866,0.1,3.384,0.167,4.55,0.2C38.7,7.133,39.4,7.15,39.9,7.15C41.434,7.117,42.983,7.4,44.55,8c0.8,0.333,1.601,0.717,2.4,1.15
	c0.5,0.167,0.783,0.283,0.85,0.35c0.134,0.133-0.05,0.35-0.55,0.65c-0.134,0.067-0.267,0.15-0.4,0.25
	C46.017,10.7,45.417,10.917,45.05,11.05z M47,5.95c0.634,0.033,1.7,0.1,3.2,0.2c3.6,0.2,4.267,0.8,2,1.8
	c-0.867,0.367-1.7,0.55-2.5,0.55c-0.667-0.067-1.033-0.1-1.101-0.1c-0.066,0-0.449-0.267-1.149-0.8c-0.667-0.5-1.2-0.917-1.601-1.25
	C45.517,6.083,45.9,5.95,47,5.95z M30.8,11.9c1,0.033,2.184,0.149,3.55,0.35c0.767,0.134,1.917,0.333,3.45,0.6
	c0.033,0,0.066,0,0.101,0l1.35,0.601c0.3,0.066,0.467,0.149,0.5,0.25c-0.366,0.066-1.017,0.233-1.95,0.5h-0.05
	c-0.833,0.233-1.517,0.366-2.05,0.399c-0.467,0.034-0.816-0.017-1.05-0.149c-0.067-0.033-0.301-0.233-0.7-0.601
	C32.917,13.05,31.866,12.4,30.8,11.9z M10.45,11.35c-0.467,0-0.317-0.166,0.45-0.5c0.733-0.3,1.417-0.467,2.05-0.5
	c1.4-0.067,2.917,0.35,4.55,1.25c0.833,0.434,1.517,0.884,2.05,1.351L16.45,12C14.95,11.566,12.95,11.35,10.45,11.35z"/>
<path style="fill-rule:evenodd;clip-rule:evenodd;fill:#D9D5C5;" d="M26.05,13.8c-0.633-0.1-1.167-0.217-1.6-0.35
	c-0.133-0.066-0.267-0.134-0.4-0.2c-3.733-1.8-5.767-2.933-6.1-3.4c-0.233-0.3-0.233-0.517,0-0.65c0.3-0.2,1.083-0.317,2.35-0.35
	c1-0.033,2.983,0.4,5.95,1.3c3.4,1.034,5.733,1.633,7,1.8c1.8,0.267,3.316,0.483,4.55,0.649c1.566,0.2,2.65,0.301,3.25,0.301H42.4
	L40.3,13.8h-0.05l-0.1,0.05L39.85,13.95c-0.267,0.066-0.55,0.184-0.85,0.35l-1.2,0.45c-0.467,0.2-0.783,0.35-0.95,0.45
	c-0.3,0.1-0.583,0.149-0.85,0.149c-3.1-0.633-5.25-1-6.45-1.1c-1.267-0.134-2.233-0.25-2.9-0.35
	C26.417,13.866,26.217,13.833,26.05,13.8z M30.8,11.9c1.066,0.5,2.117,1.149,3.15,1.949c0.399,0.367,0.633,0.567,0.7,0.601
	c0.233,0.133,0.583,0.184,1.05,0.149c0.533-0.033,1.217-0.166,2.05-0.399h0.05c0.934-0.267,1.584-0.434,1.95-0.5
	c-0.033-0.101-0.2-0.184-0.5-0.25L37.9,12.85c-0.034,0-0.067,0-0.101,0c-1.533-0.267-2.684-0.466-3.45-0.6
	C32.983,12.05,31.8,11.934,30.8,11.9z"/>
<linearGradient id="SVGID_1_" gradientUnits="userSpaceOnUse" x1="0" y1="13.7246" x2="59.1504" y2="13.7246">
	<stop  offset="0" style="stop-color:#000000;stop-opacity:0.298"/>
	<stop  offset="0.8588" style="stop-color:#000000;stop-opacity:0.298"/>
	<stop  offset="1" style="stop-color:#000000;stop-opacity:0.298"/>
</linearGradient>
<path style="fill-rule:evenodd;clip-rule:evenodd;fill:url(#SVGID_1_);" d="M3.5,13.35l0.55,0.25c1.7,0.7,5.45,1.934,11.25,3.7
	c4.2,1.3,8.517,2.334,12.95,3.101L33.2,17.6c1.166-0.633,2.633-1.316,4.399-2.05c0.067-0.033,0.134-0.05,0.2-0.05
	c2.2-0.9,3.584-1.5,4.15-1.8c0.066-0.033,1.767-0.834,5.1-2.4c1.066-0.5,1.983-0.933,2.75-1.3l1.7-0.9
	c0.033-0.033,0.066-0.05,0.1-0.05C51.634,9.017,51.667,9,51.7,9l0.649-0.4c0.834-0.5,1.717-1.083,2.65-1.75l0.4-0.3
	c2.1,0.233,3.35,0.3,3.75,0.2c-0.767,0.467-1.467,0.8-2.101,1c-0.3,0.1-1.217,0.6-2.75,1.5c-1.767,1-3.149,1.733-4.149,2.2
	c-4.767,2.133-8.801,3.816-12.101,5.05c-0.1,0.033-0.184,0.066-0.25,0.1c-2.434,0.9-4.717,1.884-6.85,2.95l-2.5,1.351
	c-1.7-0.067-3.883-0.417-6.55-1.051c-2.8-0.6-4.967-1.05-6.5-1.35c-2.7-0.6-4.917-1.167-6.65-1.7L0,14.1l2.6-0.55
	C2.667,13.517,2.967,13.45,3.5,13.35z"/>
</svg>
