<?xml version="1.0" encoding="iso-8859-1"?>
<!-- Generator: Adobe Illustrator 15.1.0, SVG Export Plug-In . SVG Version: 6.00 Build 0)  -->
<!DOCTYPE svg PUBLIC "-//W3C//DTD SVG 1.1//EN" "http://www.w3.org/Graphics/SVG/1.1/DTD/svg11.dtd">
<svg version="1.1" id="Layer_1" xmlns="http://www.w3.org/2000/svg" xmlns:xlink="http://www.w3.org/1999/xlink" x="0px" y="0px"
	 width="130px" height="130px" viewBox="0 0 130 130" style="enable-background:new 0 0 130 130;" xml:space="preserve">
<symbol  id="campfire" viewBox="-64.4 -60.8 128.85 94.15">
	<g id="wood_1_">
		
			<use xlink:href="#wood"  width="84.974" height="40.05" x="-42.469" y="-20.05" transform="matrix(1 0 0 1 0.2998 -32.0498)" style="overflow:visible;"/>
	</g>
	<g id="glows_1_">
		
			<use xlink:href="#glows"  width="128.85" height="86.55" x="-64.4" y="-43.3" transform="matrix(1 0 0 1 0 -17.5)" style="overflow:visible;"/>
	</g>
	<g id="flame_1_">
		
			<use xlink:href="#flame"  width="35.465" height="65.28" x="-17.413" y="-0.63" transform="matrix(1 0 0 1 -0.7998 -31.2998)" style="overflow:visible;"/>
	</g>
</symbol>
<symbol  id="flame" viewBox="-17.413 -0.63 35.465 65.28">
	<g id="fire_1_">
		
			<radialGradient id="SVGID_1_" cx="17419.9219" cy="-1674.6821" r="70.5559" gradientTransform="matrix(-0.1869 0.9824 1.0121 0.1582 4962.6475 -16842.8359)" gradientUnits="userSpaceOnUse">
			<stop  offset="0" style="stop-color:#FCF43E;stop-opacity:0.8196"/>
			<stop  offset="1" style="stop-color:#E07518;stop-opacity:0.9176"/>
		</radialGradient>
		<path style="fill-rule:evenodd;clip-rule:evenodd;fill:url(#SVGID_1_);" d="M3.95,59c-0.133-0.333-0.3-0.617-0.5-0.85
			c-0.367,0-0.5,0.133-0.4,0.4l-0.125,0.025C2.92,58.519,2.912,58.46,2.9,58.4c0-0.066-0.017-0.133-0.05-0.2
			c-0.067-0.034-0.15-0.034-0.25,0c-0.067,0.033-0.1,0.083-0.1,0.15c-0.033,0.233-0.083,0.433-0.15,0.6c-3.833,1.133-5.5,0-5-3.4
			c0.033-0.4,0.15-0.816,0.35-1.25c1.5-3.233,3.617-6.05,6.35-8.45c3.667-3.133,5.667-6.8,6-11c0.667,0.2,1.2,0.583,1.6,1.15
			c0.033,0.033,0.067,0.067,0.1,0.1c-0.5,1.133-0.6,2.35-0.3,3.65c0.233,1.267-0.034,2.183-0.8,2.75
			c-0.967-0.033-1.95,0.083-2.95,0.35c-0.067,0.033-0.117,0.066-0.15,0.1c0.2,0.533,0.35,1.1,0.45,1.7c0.367,1.8,1.483,3,3.35,3.6
			c0.267,0.1,0.533,0.167,0.8,0.2c2.3,0.466,3.9-0.184,4.8-1.95c0.6-1.2,0.5-2.35-0.3-3.45c0.967-0.233,1.434-0.783,1.4-1.65
			c-0.066-1.833-1.1-3.117-3.1-3.85c-0.167-0.066-0.284-0.117-0.35-0.15c0.733-1,1.117-2.066,1.15-3.2
			c0.067-1.467-0.133-2.9-0.6-4.3c-0.094-0.252-0.203-0.493-0.325-0.725L14.9,29.15c1.4-3.333,1.867-6.617,1.4-9.85
			c-0.1-0.433-0.117-0.867-0.05-1.3c0.1-2.4-0.017-4.733-0.35-7c-0.1-0.9-0.417-1.767-0.95-2.6c-1.9-3.133-4.417-5.667-7.55-7.6
			C7.133,0.6,6.833,0.433,6.5,0.3c0.367,0,0.75,0,1.15,0c0.167,0.067,0.267,0.167,0.3,0.3C7.983,0.767,8.1,0.85,8.3,0.85
			c0.067,0,0.133-0.017,0.2-0.05c0.133-0.1,0.183-0.216,0.15-0.35c-0.1-0.133-0.167-0.267-0.2-0.4C8.417-0.05,8.367-0.133,8.3-0.2
			C2.333-1.267-2.967-0.35-7.6,2.55c-1.3,0.833-2.533,1.833-3.7,3c-1.267,1.267-2.367,2.567-3.3,3.9
			c-1.6,1.267-2.433,3.083-2.5,5.45c-0.1,2.867-0.2,5.717-0.3,8.55c-0.1,1.5,0.367,2.833,1.4,4c1.8,2,2.517,4.133,2.15,6.4
			c-0.131,0.822-0.557,1.464-1.275,1.925c-0.007,0.011-0.015,0.019-0.025,0.025c0-0.032-0.017-0.065-0.05-0.1
			c-0.8,0-1.1,0.367-0.9,1.1c0.267,1.034,0.917,1.784,1.95,2.25c0.033,0.034,0.083,0.05,0.15,0.05c1.867-0.033,3.183-0.833,3.95-2.4
			c0.633-1.167,0.433-2.083-0.6-2.75l0.075-0.075c1.521,1.362,2.629,3.053,3.325,5.075c0.333,1,0.583,2.017,0.75,3.05
			c0.267,1.833,0.383,3.617,0.35,5.35c-0.1,2.667-1.65,4.15-4.65,4.45c-0.2,0.034-0.4,0.05-0.6,0.05
			c-0.167,0.033-0.117,0.066,0.15,0.1h0.05l-0.025,0.025c-0.852,0.397-1.36,1.139-1.525,2.225c-0.133,0.833-0.283,1.633-0.45,2.4
			c-0.2,1-0.1,1.983,0.3,2.95c0.9,2.067,2.683,3.434,5.35,4.1c0.833,0.033,1.65,0.033,2.45,0c0.6-0.033,1.083-0.167,1.45-0.4
			c0.133,0.267,0.367,0.483,0.7,0.65c0.534,0.3,1.05,0.55,1.55,0.75c2.367-0.066,4.117-1.033,5.25-2.9C4.317,60.917,4.35,60,3.95,59
			z M11.075,42.45L11.1,42.5c-0.033,0-0.067,0-0.1,0C11.026,42.485,11.051,42.469,11.075,42.45z M-3.75,62.95H-3.8v-0.1
			C-3.799,62.884-3.782,62.917-3.75,62.95z"/>
	</g>
	<g id="inner_flame_1_">
		
			<radialGradient id="SVGID_2_" cx="16354.4658" cy="-101.8774" r="36.8402" gradientTransform="matrix(-0.0124 0.9999 0.7041 0.0087 274.7656 -16351.7783)" gradientUnits="userSpaceOnUse">
			<stop  offset="0" style="stop-color:#FFFFFF;stop-opacity:0.6"/>
			<stop  offset="1" style="stop-color:#F4D626;stop-opacity:0.7569"/>
		</radialGradient>
		<path style="fill-rule:evenodd;clip-rule:evenodd;fill:url(#SVGID_2_);" d="M4.45,34c-0.178-1.97-0.136-3.937,0.125-5.9
			c0.312-0.629,0.537-1.329,0.675-2.1c0.132-0.684,0.198-1.401,0.2-2.15c0.051-0.161,0.092-0.319,0.125-0.475
			c0.877,0.907,1.619,1.999,2.225,3.275c0.333,0.633,0.817,1.133,1.45,1.5c-0.333-2.633-0.317-5.367,0.05-8.2
			c0.1-1,0.333-1.983,0.7-2.95c0.633-1.833,0.4-3.6-0.7-5.3c-0.867-1.367-1.216-2.917-1.05-4.65c0.267-2.833-0.833-4.933-3.3-6.3
			C4.117,0.283,3.217,0,2.25-0.1C0.309-0.318-1.366-0.01-2.775,0.825C-3.569,1.208-4.344,1.717-5.1,2.35
			C-7.131,4.017-8.098,6.067-8,8.5c-0.5,1.067-0.75,2.383-0.75,3.95c0,0.6-0.133,1.183-0.4,1.75c-1.533,3.767-1.167,7.333,1.1,10.7
			c0.066,0.067,0.15,0.133,0.25,0.2c0.216-0.468,0.491-0.843,0.825-1.125C-6.733,24.5-6.508,25.024-6.3,25.55
			c0.066-0.033,0.1-0.066,0.1-0.1c0.1-0.1,0.15-0.217,0.15-0.35c0-0.033,0-0.067,0-0.1c0-0.133,0-0.267,0-0.4c0-0.2,0-0.4,0-0.6
			c0.167-0.1,0.35-0.2,0.55-0.3c0.2-0.067,0.383-0.15,0.55-0.25c0.017-0.008,0.034-0.016,0.05-0.025
			c0.066,0.008,0.132,0.016,0.2,0.025c0.034,0,0.067,0.017,0.1,0.05c0.967,3.367,1.717,6.8,2.25,10.3
			c0.364,2.186,1.081,4.127,2.15,5.825c-0.047,0.345,0.003,0.72,0.15,1.125c0.2,0.467,0.483,0.817,0.85,1.05
			c0.6-2.233,1.7-4.35,3.3-6.35C4.4,35.083,4.517,34.6,4.45,34z M0,39c-0.017-0.058-0.034-0.117-0.05-0.175L0.1,38.8
			C0.059,38.864,0.025,38.93,0,39z M-4.8,2.6l-0.05-0.025c0.059-0.041,0.117-0.083,0.175-0.125C-4.718,2.5-4.76,2.55-4.8,2.6z"/>
	</g>
</symbol>
<symbol  id="glow1" viewBox="-64.4 -24.35 128.85 48.7">
	<g id="Layer_1_4_">
		<g>
			
				<radialGradient id="SVGID_3_" cx="0.0254" cy="0" r="64.4466" gradientTransform="matrix(1 0 0 -0.378 0 0)" gradientUnits="userSpaceOnUse">
				<stop  offset="0" style="stop-color:#FDF8D7;stop-opacity:0"/>
				<stop  offset="0.5529" style="stop-color:#F8E776;stop-opacity:0.2"/>
				<stop  offset="1" style="stop-color:#F4D626;stop-opacity:0"/>
			</radialGradient>
			<path style="fill-rule:evenodd;clip-rule:evenodd;fill:url(#SVGID_3_);" d="M45.6,17.2C58.167,12.467,64.45,6.733,64.45,0
				S58.167-12.467,45.6-17.2C33-21.967,17.817-24.35,0.05-24.35c-17.8,0-32.983,2.383-45.55,7.15C-58.1-12.467-64.4-6.733-64.4,0
				s6.3,12.467,18.9,17.2c12.567,4.767,27.75,7.15,45.55,7.15C17.817,24.35,33,21.967,45.6,17.2z"/>
		</g>
	</g>
</symbol>
<symbol  id="glow2" viewBox="-24.9 -34 49.8 68">
	<g id="Layer_1_2_">
		<g>
			
				<radialGradient id="SVGID_4_" cx="0" cy="0" r="24.9" gradientTransform="matrix(1 0 0 -1.365 0 -0.0015)" gradientUnits="userSpaceOnUse">
				<stop  offset="0" style="stop-color:#FDF8D7"/>
				<stop  offset="1" style="stop-color:#F4D626;stop-opacity:0"/>
			</radialGradient>
			<path style="fill-rule:evenodd;clip-rule:evenodd;fill:url(#SVGID_4_);" d="M17.6,24.05C22.467,17.417,24.9,9.4,24.9,0
				c0-9.367-2.433-17.383-7.3-24.05C12.733-30.683,6.867-34,0-34s-12.733,3.317-17.6,9.95C-22.467-17.383-24.9-9.367-24.9,0
				c0,9.4,2.433,17.417,7.3,24.05S-6.867,34,0,34S12.733,30.683,17.6,24.05z"/>
		</g>
	</g>
</symbol>
<symbol  id="glow3" viewBox="-24.9 -10.7 49.85 21.4">
	<g id="Layer_1_3_">
		<g>
			
				<radialGradient id="SVGID_5_" cx="0.0254" cy="0" r="24.8788" gradientTransform="matrix(1 0 0 -0.4292 0 4.882813e-004)" gradientUnits="userSpaceOnUse">
				<stop  offset="0" style="stop-color:#FDF8D7;stop-opacity:0.6588"/>
				<stop  offset="1" style="stop-color:#F4D626;stop-opacity:0"/>
			</radialGradient>
			<path style="fill-rule:evenodd;clip-rule:evenodd;fill:url(#SVGID_5_);" d="M17.65,7.55c4.867-2.066,7.3-4.583,7.3-7.55
				s-2.434-5.483-7.3-7.55C12.783-9.65,6.9-10.7,0-10.7c-6.867,0-12.733,1.05-17.6,3.15c-4.867,2.066-7.3,4.583-7.3,7.55
				c0,2.933,2.433,5.45,7.3,7.55C-12.733,9.65-6.867,10.7,0,10.7C6.9,10.7,12.783,9.65,17.65,7.55z"/>
		</g>
	</g>
</symbol>
<symbol  id="glows" viewBox="-64.4 -43.3 128.85 86.55">
	<g id="glow1_1_">
		
			<use xlink:href="#glow1"  width="128.85" height="48.7" x="-64.4" y="-24.35" transform="matrix(1 0 0 1 0 -18.9502)" style="overflow:visible;"/>
	</g>
	<g id="glow3_1_">
		
			<use xlink:href="#glow3"  width="49.85" height="21.4" x="-24.9" y="-10.7" transform="matrix(1 0 0 1 1 -8.7002)" style="overflow:visible;"/>
	</g>
	<g id="glow2_1_">
		
			<use xlink:href="#glow2"  width="49.8" height="68" x="-24.9" y="-34" transform="matrix(1 0 0 1 -0.2002 9.25)" style="overflow:visible;"/>
	</g>
</symbol>
<symbol  id="wood" viewBox="-42.469 -20.05 84.974 40.05">
	<g id="Layer_1_5_">
		<g>
			<g>
				
					<radialGradient id="SVGID_6_" cx="37.1001" cy="-3.3501" r="3.45" gradientTransform="matrix(1 0 0 -1 0 -6.7002)" gradientUnits="userSpaceOnUse">
					<stop  offset="0.2392" style="stop-color:#000000;stop-opacity:0.1373"/>
					<stop  offset="0.4471" style="stop-color:#000000;stop-opacity:0.1373"/>
				</radialGradient>
				<path style="fill-rule:evenodd;clip-rule:evenodd;fill:url(#SVGID_6_);" d="M41.2-1.9c-0.034-0.4-0.1-0.667-0.2-0.8
					c-0.1-0.066-0.333-0.183-0.7-0.35c-0.033,0-0.417-0.284-1.15-0.85c-0.467-0.3-0.8-0.55-1-0.75l-1.2-1.2
					c-0.233-0.133-0.6-0.183-1.1-0.15c-0.533,0.067-0.9,0.1-1.1,0.1c-0.367-0.067-0.7-0.1-1-0.1c-0.5-0.067-0.733,0-0.7,0.2l1.5,0.4
					c1.133,0.233,1.75,0.45,1.85,0.65c0.067,0.1,0.083,0.233,0.05,0.4c-0.034,0.2,0,0.35,0.1,0.45c0.1,0.1,0.3,0.167,0.6,0.2
					c0.133,0,0.333,0.017,0.6,0.05C38.183-3.583,38.6-3.433,39-3.2c0.533,0.267,0.75,0.567,0.65,0.9l1.4,1.65
					C41.15-0.917,41.2-1.333,41.2-1.9z"/>
			</g>
			<g>
				
					<radialGradient id="SVGID_7_" cx="29.8501" cy="-14.25" r="7.15" gradientTransform="matrix(1 0 0 -1 0 -28.5)" gradientUnits="userSpaceOnUse">
					<stop  offset="0.2392" style="stop-color:#000000;stop-opacity:0.1373"/>
					<stop  offset="0.4471" style="stop-color:#000000;stop-opacity:0.1373"/>
				</radialGradient>
				<path style="fill-rule:evenodd;clip-rule:evenodd;fill:url(#SVGID_7_);" d="M37.65-8.4c-0.033-0.333,0.1-0.8,0.4-1.4
					c0.067-0.833,0.05-1.417-0.05-1.75c-0.133-0.4-0.467-0.767-1-1.1c-0.633-0.333-1.083-0.567-1.35-0.7
					c-0.467-0.3-0.75-0.517-0.85-0.65c-0.1-0.167-0.133-0.467-0.1-0.9l-0.05-1.3c0-0.167,0.017-0.417,0.05-0.75
					c0.033-0.333-0.017-0.583-0.15-0.75c-0.4-0.367-0.833-0.617-1.3-0.75c-0.6-0.267-1.2-0.466-1.8-0.6
					c-0.133-0.267-0.267-0.5-0.4-0.7c-0.133-0.167-0.316-0.267-0.55-0.3h-0.7c-0.8,0-2,0.167-3.6,0.5l-3.85,0.65
					c-0.434,0.1-0.7,0.167-0.8,0.2c0.833,0.5,2.117,1.034,3.85,1.6c0.434,0.133,1.15,0.317,2.15,0.55
					c0.867,0.233,1.517,0.533,1.95,0.9c0.167,0.133,0.517,0.45,1.05,0.95c0.434,0.4,0.8,0.7,1.1,0.9
					c0.067,0.033,0.283,0.117,0.65,0.25c0.3,0.066,0.5,0.167,0.6,0.3c0.133,0.1,0.217,0.217,0.25,0.35
					c0.033,0.066,0.184,0.133,0.45,0.2c0.333,0.1,0.867,0.217,1.6,0.35c0.667,0.167,1.15,0.45,1.45,0.85
					c0.333,0.467,0.5,1.167,0.5,2.1L37.65-8.4z"/>
			</g>
			<g>
				
					<radialGradient id="SVGID_8_" cx="37.5" cy="-7.1001" r="1.225" gradientTransform="matrix(1 0 0 -1 0 -14.2002)" gradientUnits="userSpaceOnUse">
					<stop  offset="0.2392" style="stop-color:#000000;stop-opacity:0.1373"/>
					<stop  offset="0.4471" style="stop-color:#000000;stop-opacity:0.1373"/>
				</radialGradient>
				<path style="fill-rule:evenodd;clip-rule:evenodd;fill:url(#SVGID_8_);" d="M38.55-7.05l0.5,0.75
					c-0.2-0.667-0.583-1.117-1.15-1.35c-0.566-0.233-1.217-0.267-1.95-0.1c0,0.333,0.383,0.567,1.15,0.7
					C37.8-6.917,38.283-6.917,38.55-7.05z"/>
			</g>
			<g>
				
					<radialGradient id="SVGID_9_" cx="30.3501" cy="-15.5" r="3.1375" gradientTransform="matrix(1 0 0 -1 0 -31)" gradientUnits="userSpaceOnUse">
					<stop  offset="0.2392" style="stop-color:#000000;stop-opacity:0.1373"/>
					<stop  offset="0.4471" style="stop-color:#000000;stop-opacity:0.1373"/>
				</radialGradient>
				<path style="fill-rule:evenodd;clip-rule:evenodd;fill:url(#SVGID_9_);" d="M27.95-17.55c-1.567,0.733-1.817,1.566-0.75,2.5
					c0.566,0.5,1.633,1.083,3.2,1.75l3.5,0.15c-0.667-0.467-1.2-0.684-1.6-0.65c0.233-0.1,0.583-0.217,1.05-0.35
					c0.4-0.133,0.633-0.383,0.7-0.75c0.1-0.4,0.067-0.817-0.1-1.25c-0.167-0.4-0.434-0.7-0.8-0.9c-0.333-0.2-0.9-0.367-1.7-0.5
					c-0.767-0.133-1.35-0.217-1.75-0.25C29.033-17.867,28.45-17.783,27.95-17.55z"/>
			</g>
			<g>
				
					<radialGradient id="SVGID_10_" cx="36.7002" cy="-11.7002" r="1.3626" gradientTransform="matrix(1 0 0 -1 0 -23.4004)" gradientUnits="userSpaceOnUse">
					<stop  offset="0.2392" style="stop-color:#000000;stop-opacity:0.1373"/>
					<stop  offset="0.4471" style="stop-color:#000000;stop-opacity:0.1373"/>
				</radialGradient>
				<path style="fill-rule:evenodd;clip-rule:evenodd;fill:url(#SVGID_10_);" d="M36.8-12.05l1.25,1.75c-0.1-0.233-0.433-0.8-1-1.7
					c-0.066-0.3-0.233-0.6-0.5-0.9c-0.466-0.267-0.867-0.283-1.2-0.05C35.783-12.617,36.267-12.317,36.8-12.05z"/>
			</g>
			<g>
				
					<radialGradient id="SVGID_11_" cx="35.8525" cy="3.9502" r="5.0983" gradientTransform="matrix(1 0 0 -1 0 7.9004)" gradientUnits="userSpaceOnUse">
					<stop  offset="0.2392" style="stop-color:#000000;stop-opacity:0.1373"/>
					<stop  offset="0.4471" style="stop-color:#000000;stop-opacity:0.1373"/>
				</radialGradient>
				<path style="fill-rule:evenodd;clip-rule:evenodd;fill:url(#SVGID_11_);" d="M29.2,6.15c0.066,0,0.767-0.017,2.1-0.05
					c0.934,0,1.55,0.233,1.85,0.7c0-0.133-0.083-0.3-0.25-0.5c-0.167-0.167-0.25-0.316-0.25-0.45c0-0.467,1.25-0.95,3.75-1.45
					c1.833-0.467,3.167-0.867,4-1.2c1.367-0.467,2.067-0.8,2.1-1c0.033-0.2-0.1-0.383-0.4-0.55c-0.333-0.2-0.517-0.383-0.55-0.55
					l-3.9,2.1C35.05,3.967,32.233,4.95,29.2,6.15z"/>
			</g>
			<g>
				
					<radialGradient id="SVGID_12_" cx="40.1499" cy="2.0498" r="0.9375" gradientTransform="matrix(1 0 0 -1 0 4.0996)" gradientUnits="userSpaceOnUse">
					<stop  offset="0.2392" style="stop-color:#000000;stop-opacity:0.1373"/>
					<stop  offset="0.4471" style="stop-color:#000000;stop-opacity:0.1373"/>
				</radialGradient>
				<path style="fill-rule:evenodd;clip-rule:evenodd;fill:url(#SVGID_12_);" d="M39.4,3.2l0.65-0.5c0.6,0.033,0.85-0.3,0.75-1
					c-0.1-0.733-0.3-0.967-0.6-0.7c-0.067,0.067-0.1,0.233-0.1,0.5S40.083,1.933,40.05,2c-0.033,0.1-0.167,0.3-0.4,0.6
					C39.45,2.833,39.367,3.033,39.4,3.2z"/>
			</g>
			<g>
				
					<radialGradient id="SVGID_13_" cx="12.7002" cy="-18.3501" r="3.0875" gradientTransform="matrix(1 0 0 -1 0 -36.7002)" gradientUnits="userSpaceOnUse">
					<stop  offset="0.2392" style="stop-color:#000000;stop-opacity:0.1373"/>
					<stop  offset="0.4471" style="stop-color:#000000;stop-opacity:0.1373"/>
				</radialGradient>
				<path style="fill-rule:evenodd;clip-rule:evenodd;fill:url(#SVGID_13_);" d="M16.95-18.05v-0.05
					c-1.167-0.433-2.567-0.633-4.2-0.6c-0.167,0-1.65,0.1-4.45,0.3c0.2,0,0.833,0.033,1.9,0.1c0.7,0.1,2.283,0.183,4.75,0.25H16.95z
					"/>
			</g>
			<g>
				
					<radialGradient id="SVGID_14_" cx="-14.2002" cy="-18.5498" r="8.1625" gradientTransform="matrix(1 0 0 -1 0 -37.0996)" gradientUnits="userSpaceOnUse">
					<stop  offset="0.2392" style="stop-color:#000000;stop-opacity:0.1373"/>
					<stop  offset="0.4471" style="stop-color:#000000;stop-opacity:0.1373"/>
				</radialGradient>
				<path style="fill-rule:evenodd;clip-rule:evenodd;fill:url(#SVGID_14_);" d="M-12.55-18.15c1.066,0,1.933,0.117,2.6,0.35
					c0.8,0.3,1.75,0.433,2.85,0.4c1.033,0,1.733-0.1,2.1-0.3c0.5,0.1,0.983,0.15,1.45,0.15h0.05l-1.35-0.25
					c-0.033,0.033-0.083,0.066-0.15,0.1c-1.133-0.133-2.433-0.417-3.9-0.85c-1.467-0.6-2.567-0.967-3.3-1.1
					c-0.333-0.067-0.767-0.083-1.3-0.05c-0.6,0.034-1.033,0.05-1.3,0.05c-1.633-0.033-3.467,0-5.5,0.1
					c-1.133,0.033-2.034,0.083-2.7,0.15c-1.167,0.133-2.067,0.35-2.7,0.65c0.133,0.433,0.233,0.667,0.3,0.7l4.2-0.1
					c1.333-0.033,3.317,0,5.95,0.1C-14.683-18.05-13.783-18.083-12.55-18.15z"/>
			</g>
			<g>
				
					<radialGradient id="SVGID_15_" cx="-15.7002" cy="-17.9502" r="5.3875" gradientTransform="matrix(1 0 0 -1 0 -35.9004)" gradientUnits="userSpaceOnUse">
					<stop  offset="0.2392" style="stop-color:#000000;stop-opacity:0.1373"/>
					<stop  offset="0.4471" style="stop-color:#000000;stop-opacity:0.1373"/>
				</radialGradient>
				<path style="fill-rule:evenodd;clip-rule:evenodd;fill:url(#SVGID_15_);" d="M-9-17.45c-1-0.566-2.133-0.933-3.4-1.1
					c-2.333-0.5-5.267-0.867-8.8-1.1c-0.5-0.067-1.017-0.067-1.55,0l-0.35,0.15c0,0.033,0.033,0.2,0.1,0.5
					c0.2,0.533,0.533,1.117,1,1.75c0.333,0.333,0.783,0.567,1.35,0.7c0.066,0.033,0.583,0.117,1.55,0.25l10.65,0.15
					C-8.05-16.217-8.233-16.65-9-17.45z"/>
			</g>
			<g>
				
					<radialGradient id="SVGID_16_" cx="-12.9487" cy="-17.7002" r="5.0116" gradientTransform="matrix(1 0 0 -1 0 -35.4004)" gradientUnits="userSpaceOnUse">
					<stop  offset="0.2392" style="stop-color:#000000;stop-opacity:0.1373"/>
					<stop  offset="0.4471" style="stop-color:#000000;stop-opacity:0.1373"/>
				</radialGradient>
				<path style="fill-rule:evenodd;clip-rule:evenodd;fill:url(#SVGID_16_);" d="M-19.95-18.45c0,0.067,0.067,0.184,0.2,0.35
					c1.267,0.367,2.45,0.767,3.55,1.2l10.25,0.35c0.067-1.034-1.233-1.7-3.9-2c-3.2-0.367-6.033-0.45-8.5-0.25
					C-18.983-18.9-19.517-18.783-19.95-18.45z"/>
			</g>
			<g>
				
					<radialGradient id="SVGID_17_" cx="-31.2002" cy="-13.751" r="3.3373" gradientTransform="matrix(1 0 0 -1 0 -27.502)" gradientUnits="userSpaceOnUse">
					<stop  offset="0.2392" style="stop-color:#000000;stop-opacity:0.1373"/>
					<stop  offset="0.4471" style="stop-color:#000000;stop-opacity:0.1373"/>
				</radialGradient>
				<path style="fill-rule:evenodd;clip-rule:evenodd;fill:url(#SVGID_17_);" d="M-29.95-13.65h3.35
					c0.167-0.767-0.816-1.133-2.95-1.1c-1.833,0-3.133,0.167-3.9,0.5c-1.066,0.5-1.85,1-2.35,1.5c0.6-0.3,1.283-0.467,2.05-0.5
					c0.3-0.033,0.55-0.133,0.75-0.3c0.4-0.1,0.917-0.15,1.55-0.15C-31.117-13.7-30.617-13.683-29.95-13.65z"/>
			</g>
			<g>
				
					<radialGradient id="SVGID_18_" cx="-39.6001" cy="-7.3496" r="2.2001" gradientTransform="matrix(1 0 0 -1 0 -14.6992)" gradientUnits="userSpaceOnUse">
					<stop  offset="0.2392" style="stop-color:#000000;stop-opacity:0.1373"/>
					<stop  offset="0.4471" style="stop-color:#000000;stop-opacity:0.1373"/>
				</radialGradient>
				<path style="fill-rule:evenodd;clip-rule:evenodd;fill:url(#SVGID_18_);" d="M-36.7-8.55c-0.833,0.566-1.45,0.933-1.85,1.1
					c-0.067,0.034-0.133,0.067-0.2,0.1c-0.533,0.067-1.067,0.133-1.6,0.2c-1.667,0.233-2.35,0.566-2.05,1
					c0.167,0,0.316-0.067,0.45-0.2c0.067-0.066,0.184-0.183,0.35-0.35c0.233-0.133,0.583-0.2,1.05-0.2c0.566,0,1.167-0.15,1.8-0.45
					c0.533-0.033,1.05-0.05,1.55-0.05L-36.7-8.55z"/>
			</g>
			<g>
				
					<radialGradient id="SVGID_19_" cx="-37.8496" cy="-8.2998" r="1.9373" gradientTransform="matrix(1 0 0 -1 0 -16.5996)" gradientUnits="userSpaceOnUse">
					<stop  offset="0.2392" style="stop-color:#000000;stop-opacity:0.1373"/>
					<stop  offset="0.4471" style="stop-color:#000000;stop-opacity:0.1373"/>
				</radialGradient>
				<path style="fill-rule:evenodd;clip-rule:evenodd;fill:url(#SVGID_19_);" d="M-35.45-7.8c0.2-0.067,0.3-0.4,0.3-1
					c-1.133-0.067-2.283-0.067-3.45,0c-0.367,0-0.7,0.033-1,0.1c-0.533,0.067-0.85,0.217-0.95,0.45c0.333,0.333,1.233,0.233,2.7-0.3
					L-35.45-7.8z"/>
			</g>
			<g>
				
					<radialGradient id="SVGID_20_" cx="-30.7998" cy="-14.7998" r="2.64" gradientTransform="matrix(1 0 0 -1 0 -29.5996)" gradientUnits="userSpaceOnUse">
					<stop  offset="0.2392" style="stop-color:#000000;stop-opacity:0.1373"/>
					<stop  offset="0.4471" style="stop-color:#000000;stop-opacity:0.1373"/>
				</radialGradient>
				<path style="fill-rule:evenodd;clip-rule:evenodd;fill:url(#SVGID_20_);" d="M-30.45-14.4l3.35-0.9
					c-3.167,0-5.633,0.283-7.4,0.85c0.267,0.067,0.767,0.1,1.5,0.1c0.4,0,0.883-0.017,1.45-0.05H-30.45z"/>
			</g>
			<g>
				<path style="fill-rule:evenodd;clip-rule:evenodd;fill:#413729;" d="M13.1,14.55c0.433-0.066,0.833-0.216,1.2-0.45
					c0.2-0.167,0.4-0.35,0.6-0.55L9.5,11.2C9.8,12.033,11,13.15,13.1,14.55z M6,7.35C5.9,7.45,5.8,7.533,5.7,7.6
					c0.4,0.133,0.966,0.433,1.7,0.9c0.767,0.467,1.4,0.75,1.9,0.85C9.033,9.017,8.6,8.7,8,8.4C7.333,8.1,6.85,7.883,6.55,7.75
					L6,7.35z M-2.6,5.25l1.3,0.65c0.167-0.2,0.367-0.417,0.6-0.65l0.6-0.7C-0.033,4.483,0.05,4.4,0.15,4.3l3.1-3.5
					c0.867-1.033,1.5-1.783,1.9-2.25c-0.3,0-0.533,0.017-0.7,0.05H4.3c-2.6-1.934-5.066-4-7.4-6.2c-1.767-1.7-4.267-3.066-7.5-4.1
					c-0.267-0.066-0.533-0.133-0.8-0.2c-2.867-0.833-5-1.167-6.4-1h-0.25c-0.4,0.1-0.367,0.25,0.1,0.45
					c0.9,0.367,1.417,0.684,1.55,0.95l0.75,1.7c0.2,0.5,0.316,0.933,0.35,1.3l1.3,0.55c0.3,0.133,0.75,0.4,1.35,0.8
					c0.533,0.3,1.017,0.467,1.45,0.5c0.167,0,0.45-0.05,0.85-0.15c0.133,0.033,0.833,0.333,2.1,0.9c1.767,0.767,3.717,1.8,5.85,3.1
					c0.4,0.233,1.017,0.566,1.85,1C0.217-1.367,0.767-0.933,1.1-0.5C1.033-0.367,1-0.183,1,0.05c0,0.333,0,0.534,0,0.6
					c-0.033,0.934-0.617,1.9-1.75,2.9L-3.8,1.6c-2.233-1.367-4.284-2.4-6.15-3.1h-0.15l-1-0.35l-0.25-0.1
					c-0.433-0.133-0.833-0.233-1.2-0.3c-0.733-0.167-1.2-0.15-1.4,0.05c0.4,0.7,1.217,1.217,2.45,1.55
					c0.667,0.167,1.667,0.283,3,0.35L-4,2l3.2,1.6L-2.6,5.25z M7.85,5.9c3.066,2.733,5.767,4.75,8.1,6.05
					c0-0.034,0.017-0.067,0.05-0.1c0-0.033,0.017-0.067,0.05-0.1c0.067-0.133,0.133-0.283,0.2-0.45l0.15-0.45
					c0.033-0.167,0.083-0.333,0.15-0.5c0.067-0.367,0.133-0.733,0.2-1.1c0.1-0.7,0.15-1.417,0.15-2.15
					c-1.9-1.4-3.717-2.667-5.45-3.8C10.417,3.933,9.583,4.5,8.95,5C8.55,5.3,8.183,5.6,7.85,5.9z"/>
				<path style="fill-rule:evenodd;clip-rule:evenodd;fill:#574936;" d="M15.25,13.15c-0.1,0.133-0.217,0.267-0.35,0.4l0.15-0.2
					c-2.566-1.133-5.417-2.283-8.55-3.45c1.2,1.133,3.2,2.684,6,4.65l0.2,0.05l0.4-0.05c-2.1-1.4-3.3-2.517-3.6-3.35l5.4,2.35
					c-0.2,0.2-0.4,0.383-0.6,0.55c0.3,0.233,0.667,0.483,1.1,0.75c3.133,0,5.583-0.05,7.35-0.15l0.55-0.4l-0.65-0.15
					c-1.733-0.267-3.017-0.517-3.85-0.75c1.133-0.167,2.883-0.183,5.25-0.05c0.167-0.367,0.233-0.767,0.2-1.2l-6.55-0.1
					C16.967,12.017,16.383,12,15.95,12c-0.034,0.1-0.083,0.2-0.15,0.3l-0.1,0.2c0.033,0.033,0.066,0.05,0.1,0.05
					c1.934,0.3,3.617,0.467,5.05,0.5c-1.333,0.1-2.684,0.15-4.05,0.15C16.167,13.167,15.65,13.15,15.25,13.15z M15.5,12.8l0.45-0.85
					c-2.333-1.3-5.034-3.317-8.1-6.05c-0.633,0.5-1.2,0.95-1.7,1.35c1.2,0.6,2.733,1.55,4.6,2.85c0.967,0.533,2.417,1.417,4.35,2.65
					l0.35,0.15L15.5,12.8z M-1.85,14.55c-0.2,0.133-0.333,0.333-0.4,0.6c-0.033,0.1-0.067,0.2-0.1,0.3
					c-0.033,0.833-0.1,1.433-0.2,1.8c0.9,0.933,1.783,1.85,2.65,2.75l-0.05-0.2l-0.5-1.55C-0.583,17.083-0.317,16,0.35,15v-0.05
					c-0.1-0.167-0.217-0.3-0.35-0.4c-0.333-0.2-0.767-0.267-1.3-0.2C-1.5,14.383-1.683,14.45-1.85,14.55z M-15.3-8.45
					c0,0.067,0.017,0.1,0.05,0.1v0.05c0,0.466-0.033,0.95-0.1,1.45l-0.05,0.4c-0.1,0.4-0.233,0.833-0.4,1.3
					c0.667,0.133,1.617,0.45,2.85,0.95c2.434,0.934,4.133,1.633,5.1,2.1c0.667,0.267,1.5,0.833,2.5,1.7
					C-5.083-0.267-4.7-0.133-4.2,0c0.333,0.2,0.517,0.5,0.55,0.9c0,0.267-0.05,0.5-0.15,0.7l3.05,1.95c1.133-1,1.717-1.966,1.75-2.9
					c0-0.066,0-0.267,0-0.6C1-0.183,1.033-0.367,1.1-0.5C0.767-0.933,0.217-1.367-0.55-1.8C-1.383-2.233-2-2.567-2.4-2.8
					c-2.133-1.3-4.083-2.333-5.85-3.1c-1.267-0.567-1.967-0.867-2.1-0.9c-0.4,0.1-0.683,0.15-0.85,0.15
					c-0.433-0.033-0.917-0.2-1.45-0.5c-0.6-0.4-1.05-0.667-1.35-0.8l-1.3-0.55V-8.45z M-28.6,7.25
					c-0.267,1.133,0.217,2.567,1.45,4.3l0.3,0.3l5.25-1.55c1.133-0.267,2.65-0.3,4.55-0.1c1.7,0.2,3.05,0.517,4.05,0.95
					c0.433,0.2,1.8,0.617,4.1,1.25c0.5,0.133,0.95,0.267,1.35,0.4l0.45-0.5c0.1-0.1,0.2-0.2,0.3-0.3
					c-0.1-0.067-0.217-0.15-0.35-0.25c-0.533-0.367-1.283-0.717-2.25-1.05c-0.133-0.034-0.25-0.083-0.35-0.15
					c-0.7-0.233-1.5-0.466-2.4-0.7c-0.434,0-0.833-0.15-1.2-0.45c0.434-0.066,0.967-0.083,1.6-0.05c0.8,0.1,1.783,0.25,2.95,0.45
					c0.1,0.034,0.216,0.067,0.35,0.1c0.534,0.1,1.267,0.383,2.2,0.85l-0.25-0.5l-0.2-0.05c-0.767-0.4-1.833-0.85-3.2-1.35h-0.05
					L-10.2,8.8l0.55,0.05h0.05l0.7,0.1l-0.6-0.1l2.9,0.05c0.067,0,0.5,0.017,1.3,0.05c0.133,0,0.267,0,0.4,0
					c0.5-0.034,0.85-0.1,1.05-0.2c0-0.033,0.017-0.067,0.05-0.1C-3.833,8.517-3.917,8.367-4.05,8.2C-4.217,8.1-4.417,8-4.65,7.9
					c-0.3-0.1-0.517-0.183-0.65-0.25L-7.35,6.6L-9.4,5.85c-0.4-0.067-0.85-0.117-1.35-0.15c-0.167,0-0.75,0-1.75,0
					c-1.4,0-2.333,0.05-2.8,0.15c0.4,0,1.066,0.217,2,0.65c1,0.433,1.867,0.783,2.6,1.05c0.4,0.133,0.75,0.25,1.05,0.35
					c-2.167-0.1-4.5-0.066-7,0.1c-0.7,0.033-1.667,0.05-2.9,0.05c-0.1,0-0.184,0-0.25,0c-0.1,0-0.184,0-0.25,0
					c-0.034,0-0.067,0-0.1,0c-0.233,0-0.467,0-0.7,0c-0.133,0-0.267,0-0.4,0c-2.067-0.033-3.617-0.017-4.65,0.05
					c-0.567,0-1.184,0.083-1.85,0.25l2.9-0.95c0.033,0,0.4-0.133,1.1-0.4c0.167-0.067,0.35-0.133,0.55-0.2
					c0.733-0.233,1.317-0.383,1.75-0.45c-1.5,0.033-2.767,0.083-3.8,0.15c-2.033,0.167-3.15,0.55-3.35,1.15V7.25z M16.55,10.35
					c-0.066,0.167-0.117,0.333-0.15,0.5c0.5,0.167,1.283,0.35,2.35,0.55c1.8,0.3,3.633,0.533,5.5,0.7
					c-0.033-0.434-0.083-0.817-0.15-1.15C21.4,10.417,18.883,10.217,16.55,10.35z M20.9,9.35c-0.333,0-0.65,0-0.95,0
					c0.395,0.033,0.819,0.049,1.275,0.05C21.133,9.398,21.025,9.381,20.9,9.35z M-9.35,7.9c0.3,0,0.833,0.017,1.6,0.05
					c0.7,0.066,1.2,0.2,1.5,0.4c-0.933,0.1-2.067-0.05-3.4-0.45H-9.35z M-28.5,6.9c0.133-0.367,0.35-0.783,0.65-1.25
					c0.067-0.1,0.133-0.2,0.2-0.3c0.433-0.6,0.883-1.133,1.35-1.6c-0.667,0.633-1.2,1.267-1.6,1.9
					C-28.167,6.083-28.367,6.5-28.5,6.9z M-2.6,17.2c-0.1-0.133-0.217-0.383-0.35-0.75C-2.983,16.35-3,16.267-3,16.2
					c-0.1,0.1-0.183,0.2-0.25,0.3C-3.05,16.733-2.833,16.967-2.6,17.2z M-12.85,8.45c-0.8-0.067-1.4-0.184-1.8-0.35
					c0.467-0.167,1.283-0.117,2.45,0.15l2,0.55l-0.85-0.15C-11.817,8.583-12.417,8.517-12.85,8.45z M-11.1-1.85
					C-11.867-2.317-12.833-2.8-14-3.3l-2.15-0.85c-0.033,0.1-0.083,0.217-0.15,0.35l-0.55,1.2c0.5,0.167,1.267,0.483,2.3,0.95
					c1,0.433,1.75,0.733,2.25,0.9l3.25,0.85c0.066,0,0.367,0.083,0.9,0.25C-7.617,0.517-7.3,0.567-7.2,0.5l-1.3-0.8
					c-1.333-0.067-2.333-0.184-3-0.35c-1.233-0.333-2.05-0.85-2.45-1.55c0.2-0.2,0.667-0.216,1.4-0.05
					c0.367,0.067,0.767,0.167,1.2,0.3L-11.1-1.85z M-2.6,5.25l1.8-1.65L-4,2c-0.4,0.467-0.633,0.867-0.7,1.2
					c-0.066,0.233-0.1,0.55-0.1,0.95c0.2,0.1,0.417,0.2,0.65,0.3C-3.75,4.65-3.233,4.917-2.6,5.25z"/>
				<path style="fill-rule:evenodd;clip-rule:evenodd;fill:#63533E;" d="M15.25,13.15l0.2-0.25l-0.35-0.15
					c-1.934-1.233-3.383-2.117-4.35-2.65c-1.867-1.3-3.4-2.25-4.6-2.85C6.083,7.283,6.033,7.317,6,7.35l0.55,0.4
					C6.85,7.883,7.333,8.1,8,8.4c0.6,0.3,1.033,0.617,1.3,0.95C8.8,9.25,8.167,8.967,7.4,8.5C6.667,8.033,6.1,7.733,5.7,7.6
					c-0.8,0.7-1.467,1.25-2,1.65c0.233,0.2,0.466,0.383,0.7,0.55c0.333,0.233,0.667,0.467,1,0.7c0.1,0.1,0.217,0.2,0.35,0.3
					c0.2,0.167,0.417,0.333,0.65,0.5c0.767,0.633,1.483,1.233,2.15,1.8c0.333,0.3,0.667,0.6,1,0.9c1.367,0.567,2.55,0.75,3.55,0.55
					l-0.4,0.05l-0.2-0.05c-2.8-1.966-4.8-3.517-6-4.65c3.133,1.167,5.983,2.317,8.55,3.45l-0.15,0.2
					C15.033,13.417,15.15,13.283,15.25,13.15z M15.5,12.8l0.1-0.1c0.033-0.067,0.066-0.133,0.1-0.2l0.1-0.2
					c0.034-0.1,0.083-0.216,0.15-0.35L15.5,12.8z M-15.65-9.8c0.167,0.5,0.283,0.95,0.35,1.35V-8.5
					C-15.333-8.867-15.45-9.3-15.65-9.8z M-16.85-2.6c-0.8,1.5-2.267,2.383-4.4,2.65L-24.45,0l1.75,0.35
					c1.567,0.267,3.35,0.45,5.35,0.55s3.3,0.2,3.9,0.3c0.833,0.167,2.034,0.533,3.6,1.1l1.5,0.5l2.3,0.85
					c0.4,0.133,0.816,0.3,1.25,0.5c0-0.4,0.033-0.717,0.1-0.95C-4.633,2.867-4.4,2.467-4,2l-4.5-2.3l1.3,0.8
					c-0.1,0.067-0.417,0.017-0.95-0.15C-8.683,0.183-8.983,0.1-9.05,0.1l-3.25-0.85c-0.5-0.167-1.25-0.467-2.25-0.9
					C-15.583-2.117-16.35-2.433-16.85-2.6z M-15.8-5.15c-0.1,0.333-0.217,0.667-0.35,1L-14-3.3c1.167,0.5,2.133,0.983,2.9,1.45
					l1,0.35h0.15c1.867,0.7,3.917,1.733,6.15,3.1c0.1-0.2,0.15-0.434,0.15-0.7C-3.683,0.5-3.867,0.2-4.2,0
					c-0.5-0.133-0.883-0.267-1.15-0.4c-1-0.867-1.833-1.434-2.5-1.7c-0.967-0.467-2.667-1.167-5.1-2.1
					C-14.183-4.7-15.133-5.017-15.8-5.15z"/>
				<path style="fill-rule:evenodd;clip-rule:evenodd;fill:#43392A;" d="M15.4,14.85c-0.433-0.267-0.8-0.517-1.1-0.75
					c-0.367,0.233-0.767,0.383-1.2,0.45c-1,0.2-2.184,0.017-3.55-0.55c-0.333-0.3-0.667-0.6-1-0.9c0.167,0.333,0.284,0.733,0.35,1.2
					c0.033,0.2,0.05,0.417,0.05,0.65c2.066-0.067,3.85-0.1,5.35-0.1H15.4z M5.75,10.8c0.267,0.267,0.467,0.434,0.6,0.5H6.4
					C6.167,11.133,5.95,10.967,5.75,10.8z M15.45,12.9l-0.2,0.25c0.4,0,0.917,0.017,1.55,0.05c1.367,0,2.717-0.05,4.05-0.15
					c-1.434-0.033-3.117-0.2-5.05-0.5c-0.033,0-0.066-0.017-0.1-0.05c-0.034,0.067-0.067,0.133-0.1,0.2l-0.1,0.1L15.45,12.9z
					 M19.95,9.35l-3.2-0.1c-0.067,0.367-0.133,0.733-0.2,1.1c2.333-0.133,4.85,0.066,7.55,0.6c0-0.067-0.017-0.15-0.05-0.25
					c-0.133-0.5-0.316-0.9-0.55-1.2l-2.275-0.1C20.77,9.399,20.345,9.383,19.95,9.35z M24.25,12.15V12.1
					c-1.867-0.167-3.7-0.4-5.5-0.7c-1.067-0.2-1.85-0.383-2.35-0.55l-0.15,0.45c-0.067,0.167-0.133,0.317-0.2,0.45
					c-0.033,0.033-0.05,0.067-0.05,0.1c-0.033,0.066-0.05,0.117-0.05,0.15c0.433,0,1.017,0.017,1.75,0.05L24.25,12.15z M23.3,14.3
					l0.15-0.1c0.033-0.034,0.066-0.067,0.1-0.1c0.133-0.133,0.25-0.267,0.35-0.4c0.067-0.1,0.117-0.217,0.15-0.35
					c-2.367-0.133-4.117-0.117-5.25,0.05c0.833,0.233,2.117,0.483,3.85,0.75L23.3,14.3z"/>
				<path style="fill-rule:evenodd;clip-rule:evenodd;fill:#78654A;" d="M6.4,11.3H6.35c-0.133-0.066-0.333-0.233-0.6-0.5
					c-0.133-0.1-0.25-0.2-0.35-0.3c-0.133,0.1-0.267,0.183-0.4,0.25c-0.633,0.367-1.3,0.85-2,1.45l-1.25,1.1l-0.8,0.9L0.7,14.45
					l-0.35,0.5V15c-0.667,1-0.934,2.083-0.8,3.25l0.5,1.55c0.534,0.167,1.767,0.15,3.7-0.05c0.533-0.033,1.3-0.317,2.3-0.85
					c0.934-0.467,1.667-1.083,2.2-1.85c0.467-0.7,0.7-1.4,0.7-2.1c0-0.233-0.017-0.45-0.05-0.65c-0.066-0.466-0.183-0.867-0.35-1.2
					C7.883,12.533,7.167,11.933,6.4,11.3z M1.4,14.9c0.733-1.1,1.9-1.816,3.5-2.15c1.833-0.367,2.783,0.15,2.85,1.55
					c0,0.233-0.017,0.45-0.05,0.65c-0.267,1.2-1.317,2.283-3.15,3.25c-1.1,0.6-1.917,0.9-2.45,0.9c-0.633,0-1.05-0.417-1.25-1.25
					c-0.2-0.867-0.083-1.733,0.35-2.6C1.267,15.15,1.333,15.033,1.4,14.9z"/>
				<path style="fill-rule:evenodd;clip-rule:evenodd;fill:#957D5D;" d="M4.35,16.55l-0.85-0.2c-0.133,0.033-0.25,0.033-0.35,0
					S2.967,16.267,2.9,16.2C2.767,16,2.8,15.8,3,15.6c0.067-0.1,0.15-0.184,0.25-0.25c-0.033-0.033-0.083-0.1-0.15-0.2
					c-0.033-0.033-0.067-0.1-0.1-0.2c-0.167-0.4-0.217-0.85-0.15-1.35c0.333,0.333,0.633,0.85,0.9,1.55c0,0.1,0.033,0.184,0.1,0.25
					c0.033,0.067,0.066,0.117,0.1,0.15C4.283,15.817,4.417,16.15,4.35,16.55z M3.15,16.35l-0.9,0.25l0.1,0.6
					c1.566,0.167,2.617-0.05,3.15-0.65c0.4-0.466,0.567-0.883,0.5-1.25c-0.033-0.1-0.067-0.183-0.1-0.25
					c-0.2-0.2-0.5-0.316-0.9-0.35c0.2-0.4,0.533-0.534,1-0.4s0.75,0.367,0.85,0.7v0.05c0.1,0.333,0.1,0.667,0,1
					c-0.267,0.733-1.6,1.4-4,2l-0.2,0.5V18.1c0.067,0,0.133-0.017,0.2-0.05c-0.533,0.1-0.883-0.183-1.05-0.85
					c-0.033-0.167-0.05-0.317-0.05-0.45l-0.6,0.2c0.167-0.067,0.367-0.15,0.6-0.25c-0.033-0.367,0.1-0.617,0.4-0.75l0.1,0.5
					C2.55,16.35,2.85,16.317,3.15,16.35z M1.4,14.9c-0.066,0.133-0.133,0.25-0.2,0.35c-0.434,0.867-0.55,1.733-0.35,2.6
					c0.2,0.833,0.617,1.25,1.25,1.25c0.533,0,1.35-0.3,2.45-0.9c1.833-0.967,2.883-2.05,3.15-3.25c0.033-0.2,0.05-0.417,0.05-0.65
					c-0.067-1.4-1.017-1.917-2.85-1.55C3.3,13.083,2.133,13.8,1.4,14.9z M23.35-13.45L23.1-13.2c0.033,0,0.066-0.017,0.1-0.05
					c0.133-0.067,0.167,0.083,0.1,0.45c-0.1,0.7-0.15,1.216-0.15,1.55c0.033,0.5,0.133,0.933,0.3,1.3L23.5-9.8
					c0.1,0.233,0.233,0.417,0.4,0.55v0.05c0.2,0.2,0.434,0.383,0.7,0.55c0,0.033,0.017,0.05,0.05,0.05c0.1,0.133,0.2,0.25,0.3,0.35
					l0.55,0.5c0.567,0.433,1.233,0.683,2,0.75L28-6.95c0.7-0.033,1.317-0.167,1.85-0.4c-0.167,0.167-0.35,0.333-0.55,0.5
					c1.034-0.233,1.434-1.3,1.2-3.2c-0.067-0.7-0.467-1.35-1.2-1.95c-0.9-0.6-1.55-1.033-1.95-1.3c-0.667-0.434-1.3-0.633-1.9-0.6
					c-0.567,0.066-1.017,0.133-1.35,0.2C23.8-13.633,23.55-13.55,23.35-13.45z M24.55-11.15c0.034-0.033,0.067-0.083,0.1-0.15
					c0.067,0.033,0.133,0.1,0.2,0.2c0.133,0.167,0.283,0.45,0.45,0.85c0.2,0.5,0.467,0.817,0.8,0.95c0.233,0.066,0.633,0.066,1.2,0
					c0.1,0,0.233,0.033,0.4,0.1c0.033,0.034,0.066,0.05,0.1,0.05c0.1,0.033,0.184,0.05,0.25,0.05c-0.066-0.066-0.117-0.133-0.15-0.2
					c-0.233-0.333-0.316-0.617-0.25-0.85l0.1-0.15l-1.1-0.85c-0.1-0.1-0.183-0.184-0.25-0.25c-0.066,0.1-0.083,0.183-0.05,0.25
					c0,0.033,0.017,0.066,0.05,0.1c0.1,0.133,0.3,0.267,0.6,0.4c0.4,0.2,0.617,0.367,0.65,0.5l-1.3-0.3
					c-0.333-0.2-0.567-0.35-0.7-0.45c-0.066-0.067-0.117-0.133-0.15-0.2c-0.133-0.133-0.183-0.316-0.15-0.55
					c0.066-0.167,0.167-0.3,0.3-0.4c-0.3-0.3-0.5-0.6-0.6-0.9c0.233,0.167,0.534,0.434,0.9,0.8c0.2-0.033,0.433-0.017,0.7,0.05
					c0.033,0.133-0.017,0.283-0.15,0.45c0.2,0.2,0.417,0.417,0.65,0.65c0.2,0.2,0.4,0.4,0.6,0.6L28-11.15
					c0,0.033,0.017,0.1,0.05,0.2c0.067,0.233,0.3,0.617,0.7,1.15c0,0.033,0.017,0.066,0.05,0.1c0-0.033,0.017-0.083,0.05-0.15
					c0.066-0.233,0.066-0.433,0-0.6c-0.033-0.167-0.1-0.316-0.2-0.45c-0.167-0.233-0.417-0.45-0.75-0.65
					c-0.6-0.4-0.95-0.75-1.05-1.05c0.6,0.033,1.15,0.25,1.65,0.65c0.367,0.3,0.65,0.65,0.85,1.05c0.066,0.133,0.117,0.267,0.15,0.4
					c0.033,0.067,0.067,0.133,0.1,0.2c0.066,0.2,0.117,0.417,0.15,0.65c0.033,0.433,0,0.717-0.1,0.85
					c-0.033,0.1-0.15,0.15-0.35,0.15c-0.033,0.2-0.133,0.367-0.3,0.5c-0.2-0.133-0.367-0.283-0.5-0.45h-0.05
					c-0.127,0-0.252,0-0.375,0c0.091-0.002,0.2-0.019,0.325-0.05h-1.25c0.267,0.033,0.517,0.05,0.75,0.05
					c-0.5,0.033-0.9,0.05-1.2,0.05c-0.8-0.067-1.367-0.333-1.7-0.8c-0.233-0.3-0.383-0.617-0.45-0.95
					C24.45-10.633,24.45-10.917,24.55-11.15z M-18.9-3.25c0.433-0.5,0.783-1.117,1.05-1.85c0.5-1.367,0.567-2.633,0.2-3.8
					c-0.2-0.667-0.55-1.3-1.05-1.9c-1.1-1.267-2.333-1.583-3.7-0.95c-0.133,0.1-0.267,0.183-0.4,0.25
					c-0.767,0.433-1.417,1.033-1.95,1.8c-0.4,0.534-0.75,1.133-1.05,1.8c-0.1,0.2-0.184,0.383-0.25,0.55
					c-0.1,0.267-0.184,0.517-0.25,0.75c-0.2,0.9-0.117,1.767,0.25,2.6c0.133,0.333,0.316,0.65,0.55,0.95
					c0.133,0.2,0.267,0.367,0.4,0.5c0.667,0.8,1.267,1.183,1.8,1.15C-21.367-1.5-19.9-2.117-18.9-3.25z M-19.35-8.5
					c-0.133-0.633-0.167-1.05-0.1-1.25c0.333,0.267,0.567,0.633,0.7,1.1c0.067,0.267,0.117,0.55,0.15,0.85
					c0,0.033,0.017,0.083,0.05,0.15h0.05c0.567,0,0.9,0.066,1,0.2c-0.133,0.133-0.317,0.2-0.55,0.2c-0.2-0.033-0.367-0.05-0.5-0.05
					c-0.034,0.4-0.067,1.017-0.1,1.85c-0.033,1.067-0.6,1.833-1.7,2.3c-0.133,0.066-0.267,0.117-0.4,0.15
					c-0.4,0.133-0.833,0.217-1.3,0.25c-0.034,0.233-0.083,0.433-0.15,0.6c-0.066-0.067-0.1-0.267-0.1-0.6
					c-0.367,0-0.733-0.017-1.1-0.05h-0.1l-0.15-0.15c-0.733-0.267-1.267-0.6-1.6-1c-0.233-0.3-0.367-0.633-0.4-1
					c-0.033-0.333,0-0.683,0.1-1.05c-0.067,0-0.117,0-0.15,0c0.034-0.033,0.083-0.05,0.15-0.05c0-0.1,0.017-0.217,0.05-0.35
					c0.067-0.167,0.133-0.35,0.2-0.55c0.133-0.333,0.3-0.633,0.5-0.9c0.167-0.3,0.383-0.55,0.65-0.75c-0.1,0.2-0.184,0.45-0.25,0.75
					c-0.1,0.4-0.167,0.85-0.2,1.35c0,0.067,0,0.133,0,0.2c0.1-0.034,0.217-0.05,0.35-0.05c0.3-0.033,0.733-0.066,1.3-0.1
					c0-0.066,0.017-0.15,0.05-0.25c0.1-0.367,0.233-0.65,0.4-0.85c0-0.1,0-0.233,0-0.4c-0.033-0.367-0.067-0.833-0.1-1.4
					c0-0.033,0-0.066,0-0.1c0.067-0.8,0.333-1.316,0.8-1.55c0.033-0.033,0.066-0.05,0.1-0.05c0,0.066,0,0.15,0,0.25
					c0,0.3-0.05,0.75-0.15,1.35c0,0.034,0,0.067,0,0.1v1.55h0.05c0.333,0.033,0.533,0.15,0.6,0.35c0.567-0.066,1.233-0.133,2-0.2
					c-0.033-0.233-0.066-0.45-0.1-0.65C-19.3-8.367-19.317-8.433-19.35-8.5z M-19.15-6.5c0-0.267,0-0.517,0-0.75
					c-0.967,0.067-1.65,0.1-2.05,0.1C-21.233-7.083-21.267-7-21.3-6.9c-0.167,0.4-0.35,0.566-0.55,0.5v0.45l-0.3-0.55v1.15
					c0.033,0.7,0.066,1.233,0.1,1.6c0,0.267,0,0.5,0,0.7c0.4,0,0.767-0.117,1.1-0.35c0.5-0.333,0.917-0.8,1.25-1.4
					C-19.333-5.4-19.15-5.967-19.15-6.5z M-24.35-4.35c0.067,0.167,0.15,0.317,0.25,0.45c0.267,0.367,0.667,0.617,1.2,0.75
					c0.2,0.066,0.383,0.1,0.55,0.1c0-0.133,0-0.284,0-0.45v-1.8c-0.1,0.033-0.2,0.033-0.3,0c0-0.1,0-0.184,0-0.25
					c0.066,0.066,0.167,0.1,0.3,0.1v-0.7v-0.5l0.05-0.15l-0.1-0.15c-0.1,0.1-0.167,0.267-0.2,0.5l0.25,0.3h-0.3
					c0,0.167,0,0.367,0,0.6c-0.2-0.1-0.3-0.3-0.3-0.6h-1.2c-0.167,0.033-0.317,0.066-0.45,0.1V-6
					C-24.6-5.333-24.517-4.783-24.35-4.35z"/>
				<path style="fill-rule:evenodd;clip-rule:evenodd;fill:#846F53;" d="M4.35,16.55c0.066-0.4-0.067-0.733-0.4-1
					c-0.034-0.033-0.067-0.083-0.1-0.15c-0.067-0.066-0.1-0.15-0.1-0.25c-0.267-0.7-0.567-1.217-0.9-1.55
					C2.783,14.1,2.833,14.55,3,14.95c0.033,0.1,0.067,0.167,0.1,0.2c0.066,0.1,0.117,0.167,0.15,0.2C3.15,15.417,3.067,15.5,3,15.6
					c-0.2,0.2-0.233,0.4-0.1,0.6c0.067,0.066,0.15,0.117,0.25,0.15s0.217,0.033,0.35,0L4.35,16.55z M3.15,16.35
					c-0.3-0.033-0.6,0-0.9,0.1l-0.1-0.5c-0.3,0.133-0.433,0.383-0.4,0.75c-0.233,0.1-0.433,0.183-0.6,0.25l0.6-0.2
					c0,0.133,0.017,0.283,0.05,0.45c0.167,0.667,0.517,0.95,1.05,0.85c-0.067,0.034-0.133,0.05-0.2,0.05v0.45l0.2-0.5
					c2.4-0.6,3.733-1.267,4-2c0.1-0.333,0.1-0.667,0-1V15c-0.1-0.333-0.383-0.567-0.85-0.7s-0.8,0-1,0.4
					c0.4,0.033,0.7,0.15,0.9,0.35C5.933,15.117,5.967,15.2,6,15.3c0.067,0.367-0.1,0.784-0.5,1.25c-0.533,0.6-1.583,0.817-3.15,0.65
					l-0.1-0.6L3.15,16.35z M24.55-11.15c-0.1,0.233-0.1,0.517,0,0.85c0.067,0.333,0.217,0.65,0.45,0.95
					c0.333,0.467,0.9,0.733,1.7,0.8c0.3,0,0.7-0.017,1.2-0.05c-0.233,0-0.483-0.017-0.75-0.05h1.25
					c-0.125,0.031-0.233,0.048-0.325,0.05c0.123,0,0.248,0,0.375,0h0.05c0.133,0.167,0.3,0.317,0.5,0.45
					c0.167-0.133,0.267-0.3,0.3-0.5c0.2,0,0.317-0.05,0.35-0.15c0.1-0.133,0.133-0.417,0.1-0.85c-0.033-0.233-0.083-0.45-0.15-0.65
					c-0.033-0.067-0.067-0.133-0.1-0.2c-0.033-0.133-0.083-0.267-0.15-0.4c-0.2-0.4-0.483-0.75-0.85-1.05
					c-0.5-0.4-1.05-0.617-1.65-0.65c0.1,0.3,0.45,0.65,1.05,1.05c0.333,0.2,0.583,0.417,0.75,0.65c0.1,0.133,0.167,0.283,0.2,0.45
					c0.066,0.167,0.066,0.367,0,0.6C28.817-9.783,28.8-9.733,28.8-9.7c-0.033-0.033-0.05-0.066-0.05-0.1
					c-0.4-0.534-0.633-0.917-0.7-1.15c-0.033-0.1-0.05-0.167-0.05-0.2l-0.25,0.75c-0.2-0.2-0.4-0.4-0.6-0.6
					c-0.233-0.233-0.45-0.45-0.65-0.65c0.133-0.167,0.183-0.317,0.15-0.45c-0.267-0.066-0.5-0.083-0.7-0.05
					c-0.367-0.367-0.667-0.633-0.9-0.8c0.1,0.3,0.3,0.6,0.6,0.9c-0.133,0.1-0.233,0.233-0.3,0.4c-0.033,0.233,0.017,0.417,0.15,0.55
					c0.033,0.067,0.083,0.133,0.15,0.2c0.133,0.1,0.367,0.25,0.7,0.45l1.3,0.3c-0.033-0.133-0.25-0.3-0.65-0.5
					c-0.3-0.133-0.5-0.267-0.6-0.4c-0.033-0.034-0.05-0.067-0.05-0.1c-0.033-0.067-0.017-0.15,0.05-0.25
					c0.067,0.066,0.15,0.15,0.25,0.25l1.1,0.85l-0.1,0.15c-0.066,0.233,0.017,0.517,0.25,0.85c0.033,0.066,0.083,0.133,0.15,0.2
					c-0.066,0-0.15-0.017-0.25-0.05c-0.033,0-0.066-0.017-0.1-0.05c-0.167-0.066-0.3-0.1-0.4-0.1c-0.566,0.066-0.966,0.066-1.2,0
					c-0.333-0.133-0.6-0.45-0.8-0.95c-0.167-0.4-0.316-0.683-0.45-0.85c-0.067-0.1-0.133-0.167-0.2-0.2
					C24.617-11.233,24.583-11.183,24.55-11.15z M-19.35-8.5c0.033,0.067,0.05,0.133,0.05,0.2c0.033,0.2,0.066,0.417,0.1,0.65
					c-0.767,0.066-1.433,0.133-2,0.2c-0.066-0.2-0.267-0.316-0.6-0.35h-0.05v-1.55c0-0.033,0-0.066,0-0.1
					c0.1-0.6,0.15-1.05,0.15-1.35c0-0.1,0-0.184,0-0.25c-0.033,0-0.066,0.017-0.1,0.05c-0.467,0.233-0.733,0.75-0.8,1.55
					c0,0.034,0,0.067,0,0.1c0.033,0.567,0.067,1.033,0.1,1.4c0,0.167,0,0.3,0,0.4c-0.167,0.2-0.3,0.483-0.4,0.85
					c-0.033,0.1-0.05,0.184-0.05,0.25c-0.566,0.034-1,0.067-1.3,0.1c-0.133,0-0.25,0.017-0.35,0.05c0-0.067,0-0.133,0-0.2
					c0.033-0.5,0.1-0.95,0.2-1.35c0.066-0.3,0.15-0.55,0.25-0.75c-0.267,0.2-0.483,0.45-0.65,0.75c-0.2,0.267-0.367,0.567-0.5,0.9
					c-0.067,0.2-0.133,0.383-0.2,0.55c-0.033,0.133-0.05,0.25-0.05,0.35c-0.067,0-0.117,0.017-0.15,0.05c0.034,0,0.083,0,0.15,0
					c-0.1,0.367-0.133,0.717-0.1,1.05c0.033,0.367,0.167,0.7,0.4,1c0.333,0.4,0.867,0.733,1.6,1l0.15,0.15h0.1
					c0.367,0.033,0.733,0.05,1.1,0.05c0,0.333,0.033,0.533,0.1,0.6c0.067-0.167,0.117-0.367,0.15-0.6
					c0.466-0.033,0.9-0.117,1.3-0.25c0.133-0.033,0.267-0.083,0.4-0.15c1.1-0.467,1.667-1.233,1.7-2.3
					c0.033-0.833,0.066-1.45,0.1-1.85c0.133,0,0.3,0.017,0.5,0.05c0.233,0,0.417-0.067,0.55-0.2c-0.1-0.133-0.433-0.2-1-0.2h-0.05
					c-0.034-0.067-0.05-0.117-0.05-0.15c-0.033-0.3-0.083-0.583-0.15-0.85c-0.133-0.467-0.367-0.833-0.7-1.1
					C-19.517-9.55-19.483-9.133-19.35-8.5z M-19.15-6.5c0,0.533-0.184,1.1-0.55,1.7c-0.333,0.6-0.75,1.066-1.25,1.4
					c-0.333,0.233-0.7,0.35-1.1,0.35c0-0.2,0-0.434,0-0.7c-0.034-0.367-0.067-0.9-0.1-1.6V-6.5l0.3,0.55V-6.4
					c0.2,0.066,0.383-0.1,0.55-0.5c0.033-0.1,0.066-0.184,0.1-0.25c0.4,0,1.083-0.033,2.05-0.1C-19.15-7.017-19.15-6.767-19.15-6.5z
					 M-24.35-4.35C-24.517-4.783-24.6-5.333-24.6-6v-0.05c0.133-0.034,0.283-0.067,0.45-0.1h1.2c0,0.3,0.1,0.5,0.3,0.6
					c0-0.233,0-0.434,0-0.6h0.3l-0.25-0.3c0.033-0.233,0.1-0.4,0.2-0.5l0.1,0.15l-0.05,0.15v0.5v0.7c-0.133,0-0.233-0.033-0.3-0.1
					c0,0.066,0,0.15,0,0.25c0.1,0.033,0.2,0.033,0.3,0v1.8c0,0.167,0,0.317,0,0.45c-0.167,0-0.35-0.034-0.55-0.1
					c-0.533-0.133-0.934-0.383-1.2-0.75C-24.2-4.033-24.283-4.183-24.35-4.35z"/>
				<path style="fill-rule:evenodd;clip-rule:evenodd;fill:#483D2D;" d="M-0.5,13c-0.633,0.633-1.083,1.15-1.35,1.55
					c0.167-0.1,0.35-0.167,0.55-0.2c0.533-0.067,0.966,0,1.3,0.2c0.133,0.1,0.25,0.233,0.35,0.4l0.35-0.5l0.25-0.25v-0.05
					c-0.1-0.033-0.167-0.083-0.2-0.15c-0.067-0.033-0.133-0.083-0.2-0.15L-0.5,13z M3,12.2l-0.05-0.05L2.3,11.7
					c-0.3-0.2-0.566-0.383-0.8-0.55c-0.3,0.267-0.567,0.5-0.8,0.7c0.267,0.4,0.617,0.867,1.05,1.4v0.05L3,12.2z M-5.55,10.65
					c-0.067-0.033-0.133-0.066-0.2-0.1l-0.55-0.2c-0.067-0.033-0.133-0.067-0.2-0.1l0.25,0.5C-7.183,10.283-7.917,10-8.45,9.9
					C-8.583,9.867-8.7,9.833-8.8,9.8c-1.167-0.2-2.15-0.35-2.95-0.45c-0.633-0.033-1.167-0.017-1.6,0.05
					c0.367,0.3,0.767,0.45,1.2,0.45c0.9,0.233,1.7,0.467,2.4,0.7c0.1,0.067,0.217,0.117,0.35,0.15
					c0.967,0.333,1.717,0.683,2.25,1.05c0.133,0.1,0.25,0.183,0.35,0.25c0.133-0.133,0.267-0.267,0.4-0.4L-5.55,10.65z M-8.9,8.95
					l0.6,0.1c1.1,0.167,2.033,0.317,2.8,0.45c0.3,0.067,0.583,0.117,0.85,0.15L-4,8.95c0.033-0.067,0.083-0.133,0.15-0.2
					c-0.2,0.1-0.55,0.167-1.05,0.2c-0.133,0-0.267,0-0.4,0C-6.1,8.917-6.533,8.9-6.6,8.9l-2.9-0.05L-8.9,8.95z M-28.5,6.9
					c-0.033,0.1-0.067,0.217-0.1,0.35v0.4c0.2-0.6,1.317-0.983,3.35-1.15c1.033-0.067,2.3-0.117,3.8-0.15
					c-0.433,0.066-1.017,0.217-1.75,0.45c-0.2,0.067-0.383,0.133-0.55,0.2c-0.7,0.267-1.067,0.4-1.1,0.4l-2.9,0.95
					c0.667-0.167,1.283-0.25,1.85-0.25c1.033-0.067,2.583-0.083,4.65-0.05c0.133,0,0.267,0,0.4,0c0.233,0,0.467,0,0.7,0
					c0.033,0,0.066,0,0.1,0c0.066,0,0.15,0,0.25,0c0.066,0,0.15,0,0.25,0c1.233,0,2.2-0.017,2.9-0.05c2.5-0.167,4.833-0.2,7-0.1
					c-0.3-0.1-0.65-0.217-1.05-0.35c-0.733-0.267-1.6-0.617-2.6-1.05c-0.934-0.433-1.6-0.65-2-0.65c0.466-0.1,1.4-0.15,2.8-0.15
					c1,0,1.583,0,1.75,0c0.5,0.033,0.95,0.083,1.35,0.15l-1.4-0.5c-2.367-0.733-5.15-1.033-8.35-0.9c-1.967,0.066-4.8,0.367-8.5,0.9
					c-0.067,0.1-0.133,0.2-0.2,0.3C-28.15,6.117-28.367,6.533-28.5,6.9z M-2.55,17.25c0.1-0.367,0.167-0.967,0.2-1.8
					c0.033-0.1,0.067-0.2,0.1-0.3C-2.483,15.483-2.733,15.833-3,16.2c0,0.066,0.017,0.15,0.05,0.25
					c0.133,0.367,0.25,0.617,0.35,0.75C-2.6,17.233-2.583,17.25-2.55,17.25z M-4.65,7.9c-1-0.566-1.9-1-2.7-1.3l2.05,1.05
					C-5.167,7.717-4.95,7.8-4.65,7.9z M-9.35,7.9h-0.3c1.333,0.4,2.467,0.55,3.4,0.45c-0.3-0.2-0.8-0.333-1.5-0.4
					C-8.517,7.917-9.05,7.9-9.35,7.9z M-4.05,8.2c0.133,0.167,0.216,0.316,0.25,0.45c0.066-0.066,0.133-0.133,0.2-0.2
					C-3.733,8.383-3.883,8.3-4.05,8.2z"/>
				<path style="fill-rule:evenodd;clip-rule:evenodd;fill:#3E3427;" d="M3.7,9.25c-0.434,0.367-0.767,0.65-1,0.85
					c-0.434,0.367-0.833,0.717-1.2,1.05C1.733,11.317,2,11.5,2.3,11.7l0.65,0.45L3,12.2c0.7-0.6,1.367-1.083,2-1.45
					c0.133-0.067,0.267-0.15,0.4-0.25c-0.333-0.233-0.667-0.467-1-0.7C4.167,9.633,3.933,9.45,3.7,9.25z M0.7,11.85
					C0.233,12.283-0.167,12.667-0.5,13l1.05,0.85c0.067,0.066,0.133,0.117,0.2,0.15c0.033,0.067,0.1,0.117,0.2,0.15v0.05l0.8-0.9
					v-0.05C1.317,12.717,0.967,12.25,0.7,11.85z M-4.65,9.65C-4.917,9.617-5.2,9.567-5.5,9.5c-0.767-0.133-1.7-0.283-2.8-0.45
					l-0.6-0.1l-0.7-0.1h-0.05L-10.2,8.8l0.25,0.05h0.05c1.367,0.5,2.433,0.95,3.2,1.35l0.2,0.05c0.067,0.033,0.133,0.067,0.2,0.1
					l0.55,0.2c0.067,0.034,0.133,0.067,0.2,0.1L-4.65,9.65z M-1.3,5.9l-1.3-0.65c-0.633-0.333-1.15-0.6-1.55-0.8
					c-0.233-0.1-0.45-0.2-0.65-0.3c-0.434-0.2-0.85-0.367-1.25-0.5l-2.3-0.85c-0.066,0-0.117,0-0.15,0h-0.1
					c-2.533-0.233-4.25-0.433-5.15-0.6c-1.067-0.2-2.6-0.2-4.6,0c-1.767,0.2-2.833,0.4-3.2,0.6c-0.067,0.034-0.2,0.083-0.4,0.15
					c-0.3,0.1-0.767,0.2-1.4,0.3c-0.233,0.067-0.483,0.117-0.75,0.15l-2.2,0.35c-0.467,0.467-0.917,1-1.35,1.6
					c3.7-0.533,6.533-0.833,8.5-0.9c3.2-0.133,5.983,0.167,8.35,0.9l1.4,0.5l2.05,0.75c0.8,0.3,1.7,0.733,2.7,1.3
					c0.233,0.1,0.433,0.2,0.6,0.3c0.167,0.1,0.316,0.183,0.45,0.25C-2.933,7.717-2.167,6.867-1.3,5.9z M-12.85,8.45
					c0.434,0.066,1.033,0.133,1.8,0.2l0.85,0.15l-2-0.55c-1.167-0.267-1.983-0.317-2.45-0.15C-14.25,8.267-13.65,8.383-12.85,8.45z"
					/>
				<path style="fill-rule:evenodd;clip-rule:evenodd;fill:#715F47;" d="M28-6.95L21-2.3c0.533-0.6,1.367-1.284,2.5-2.05
					c0.633-0.4,1.55-0.967,2.75-1.7L27.5-7c-0.767-0.067-1.433-0.317-2-0.75c-1.867,0.933-3.25,1.683-4.15,2.25
					c-2,1.3-3.55,2.4-4.65,3.3l0.35-0.5c0.6-0.7,1.284-1.383,2.05-2.05c0.8-0.733,2.133-1.6,4-2.6l1.85-0.9
					c-0.1-0.1-0.2-0.217-0.3-0.35L23.9-8.5l-0.55,0.25c-2.233,1-3.983,1.85-5.25,2.55c-1.4,0.867-2.45,1.483-3.15,1.85
					c-1.167,0.667-2.233,1.434-3.2,2.3c-1.067,1.167-1.883,2.033-2.45,2.6C9.367,0.75,9.583,0.4,9.95,0
					c0.233-0.2,0.55-0.483,0.95-0.85c1-0.867,1.567-1.35,1.7-1.45c0.6-0.633,1-1.233,1.2-1.8c-0.633,0.2-1.383,0.667-2.25,1.4
					C10.383-1.767,9.667-1.217,9.4-1.05c-1.633,1.066-2.95,2.2-3.95,3.4c-0.3,0.367-0.767,0.816-1.4,1.35
					C3.283,4.333,2.8,4.75,2.6,4.95l-5.5,6.1c0.333-0.5,0.383-0.9,0.15-1.2c-0.133,0.333-0.4,0.733-0.8,1.2
					c-0.5,0.5-0.833,0.867-1,1.1c-1.633,2.1-2.517,3.25-2.65,3.45c-1.033,1.6-1.55,2.9-1.55,3.9H-8.8c1,0.533,1.867,0.633,2.6,0.3
					c0.367-0.167,0.633-0.383,0.8-0.65l1.25-1.55c0.333-0.4,0.633-0.767,0.9-1.1c0.067-0.1,0.15-0.2,0.25-0.3
					c0.267-0.367,0.517-0.717,0.75-1.05c0.067-0.267,0.2-0.467,0.4-0.6c0.267-0.4,0.717-0.917,1.35-1.55
					c0.333-0.333,0.733-0.717,1.2-1.15c0.233-0.2,0.5-0.434,0.8-0.7c0.367-0.333,0.767-0.683,1.2-1.05c0.233-0.2,0.566-0.483,1-0.85
					c0.533-0.4,1.2-0.95,2-1.65C5.8,7.533,5.9,7.45,6,7.35c0.033-0.033,0.083-0.067,0.15-0.1c0.5-0.4,1.067-0.85,1.7-1.35
					c0.333-0.3,0.7-0.6,1.1-0.9c0.633-0.5,1.466-1.067,2.5-1.7c1.333-0.767,2.966-1.633,4.9-2.6c0.9-0.434,1.733-0.833,2.5-1.2
					c0.467-0.233,0.917-0.467,1.35-0.7c0.667-0.333,1.25-0.617,1.75-0.85c0.233-0.1,0.433-0.2,0.6-0.3
					c0.667-0.333,1.1-0.566,1.3-0.7c2.3-1.367,4.117-2.633,5.45-3.8c0.2-0.167,0.383-0.333,0.55-0.5
					C29.317-7.117,28.7-6.983,28-6.95z M23.9-9.25c-0.167-0.133-0.3-0.317-0.4-0.55c0.067,0.167,0.15,0.316,0.25,0.45
					C23.783-9.317,23.833-9.283,23.9-9.25z M-0.7,5.25C-0.933,5.483-1.133,5.7-1.3,5.9c-0.867,0.967-1.633,1.817-2.3,2.55
					c-0.066,0.066-0.133,0.133-0.2,0.2c-0.034,0.033-0.05,0.067-0.05,0.1l2.4-2.65C-1.217,5.833-0.967,5.55-0.7,5.25z M-9.9,16.35
					c0-0.434,0.066-0.883,0.2-1.35c0.167-0.4,0.333-0.683,0.5-0.85C-9.767,14.683-10,15.633-9.9,17V16.35z M11.9,1
					c0.4-0.167,0.934-0.267,1.6-0.3l-15,12.35c-0.1-0.667,0.15-1.367,0.75-2.1c0.333-0.434,0.85-1,1.55-1.7
					c2.633-2.833,5.75-5.267,9.35-7.3C11.15,1.383,11.733,1.067,11.9,1z"/>
				<path style="fill-rule:evenodd;clip-rule:evenodd;fill:#60513D;" d="M0.35,10c0.833-1.1,2-2.25,3.5-3.45
					c0.533-0.433,1.867-1.433,4-3l-2,2C5.117,6.417,4.033,7.533,2.6,8.9c-1.6,1.533-2.7,2.617-3.3,3.25C-0.8,11.717-0.45,11,0.35,10
					z M23.5-9.8l-0.05-0.15c-0.167-0.367-0.267-0.8-0.3-1.3c-0.933,0.4-1.566,0.683-1.9,0.85L17.8-8.6
					c-2.466,1.167-3.85,1.817-4.15,1.95c-0.533,0.267-1.1,0.633-1.7,1.1c-0.7,0.566-1.233,1-1.6,1.3C7.817-2.35,5.917-0.9,4.65,0.1
					C4.217,0.5,3.833,0.9,3.5,1.3C2.867,1.867,2.367,2.333,2,2.7L1,3.9C0.5,4.433-0.317,5.167-1.45,6.1l-2.4,2.65
					C-3.917,8.817-3.967,8.883-4,8.95l-0.65,0.7l-0.9,1L-6.4,11.6c-0.133,0.133-0.267,0.267-0.4,0.4c-0.1,0.1-0.2,0.2-0.3,0.3
					l-0.45,0.5c-0.034,0.034-0.067,0.067-0.1,0.1l-1.05,1l-0.5,0.25C-9.367,14.317-9.533,14.6-9.7,15c0.5-0.6,1.267-1.333,2.3-2.2
					c0.909-0.714,1.601-1.306,2.075-1.775c-0.091,0.096-0.167,0.188-0.225,0.275c-0.833,0.867-2.284,2.55-4.35,5.05V17
					c0.066,0.833,0.267,1.5,0.6,2c0.167,0.233,0.333,0.4,0.5,0.5h0.05c0-1,0.517-2.3,1.55-3.9c0.133-0.2,1.017-1.35,2.65-3.45
					c0.167-0.233,0.5-0.6,1-1.1c0.4-0.466,0.667-0.867,0.8-1.2c0.233,0.3,0.183,0.7-0.15,1.2l5.5-6.1c0.2-0.2,0.683-0.617,1.45-1.25
					c0.633-0.534,1.1-0.983,1.4-1.35c1-1.2,2.316-2.333,3.95-3.4c0.267-0.167,0.983-0.717,2.15-1.65c0.867-0.733,1.617-1.2,2.25-1.4
					c-0.2,0.567-0.6,1.167-1.2,1.8c-0.133,0.1-0.7,0.583-1.7,1.45C10.5-0.483,10.183-0.2,9.95,0C9.583,0.4,9.367,0.75,9.3,1.05
					c0.567-0.566,1.383-1.433,2.45-2.6c0.967-0.867,2.033-1.633,3.2-2.3l-0.45,0.2c0.667-1.133,1.883-2.167,3.65-3.1
					c1-0.533,2.467-1.2,4.4-2l1.2-0.6C23.65-9.483,23.567-9.633,23.5-9.8z M11.9,1c-0.167,0.067-0.75,0.383-1.75,0.95
					c-3.6,2.033-6.717,4.466-9.35,7.3c-0.7,0.7-1.216,1.267-1.55,1.7c-0.6,0.733-0.85,1.433-0.75,2.1l15-12.35
					C12.833,0.733,12.3,0.833,11.9,1z M28-6.95L27.5-7l-1.25,0.95c-1.2,0.733-2.117,1.3-2.75,1.7C22.367-3.583,21.533-2.9,21-2.3
					L28-6.95z M23.9-8.5c-1.4,0.267-3.333,1.2-5.8,2.8c1.267-0.7,3.017-1.55,5.25-2.55L23.9-8.5z M25.5-7.75l-0.55-0.5l-1.85,0.9
					c-1.867,1-3.2,1.867-4,2.6c-0.767,0.667-1.45,1.35-2.05,2.05L16.7-2.2c1.1-0.9,2.65-2,4.65-3.3
					C22.25-6.067,23.633-6.817,25.5-7.75z M-4.25,10.1c-0.267,0.233-0.5,0.433-0.7,0.6c0.133-0.133,0.417-0.45,0.85-0.95
					c0.367-0.467,0.684-0.8,0.95-1C-3.317,9.117-3.683,9.567-4.25,10.1z"/>
				<path style="fill-rule:evenodd;clip-rule:evenodd;fill:#43392B;" d="M0.35,10c-0.8,1-1.15,1.717-1.05,2.15
					c0.6-0.633,1.7-1.717,3.3-3.25c1.433-1.367,2.517-2.483,3.25-3.35l2-2c-2.133,1.567-3.467,2.567-4,3
					C2.35,7.75,1.183,8.9,0.35,10z M23.15-11.25c0-0.333,0.05-0.85,0.15-1.55c0.067-0.367,0.034-0.517-0.1-0.45
					c-0.034,0.033-0.067,0.05-0.1,0.05c-0.3,0.133-0.583,0.284-0.85,0.45c-3.433,1.767-5.983,3.183-7.65,4.25
					c-2.1,1.3-3.733,2.333-4.9,3.1C7.633-4.033,6.217-2.833,5.45-1.8c-0.067,0.1-0.167,0.216-0.3,0.35
					c-0.4,0.467-1.033,1.217-1.9,2.25l-3.1,3.5C0.05,4.4-0.033,4.483-0.1,4.55l-0.6,0.7c-0.267,0.3-0.517,0.583-0.75,0.85
					C-0.317,5.167,0.5,4.433,1,3.9l1-1.2c0.367-0.367,0.867-0.833,1.5-1.4c0.333-0.4,0.717-0.8,1.15-1.2
					c1.267-1,3.167-2.45,5.7-4.35c0.367-0.3,0.9-0.733,1.6-1.3c0.6-0.467,1.167-0.833,1.7-1.1c0.3-0.133,1.684-0.783,4.15-1.95
					l3.45-1.8C21.583-10.567,22.217-10.85,23.15-11.25z M-9.7,15c-0.133,0.467-0.2,0.917-0.2,1.35c2.066-2.5,3.517-4.184,4.35-5.05
					c0.058-0.087,0.133-0.179,0.225-0.275C-5.799,11.494-6.491,12.086-7.4,12.8C-8.433,13.667-9.2,14.4-9.7,15z M14.95-3.85
					c0.7-0.367,1.75-0.983,3.15-1.85c2.467-1.6,4.4-2.533,5.8-2.8l0.75-0.1c-0.033,0-0.05-0.017-0.05-0.05
					C24.333-8.817,24.1-9,23.9-9.2v-0.05c-0.066-0.033-0.117-0.067-0.15-0.1l-1.2,0.6c-1.933,0.8-3.4,1.467-4.4,2
					c-1.767,0.933-2.983,1.967-3.65,3.1L14.95-3.85z M-4.25,10.1c0.567-0.533,0.933-0.983,1.1-1.35c-0.267,0.2-0.583,0.533-0.95,1
					c-0.433,0.5-0.717,0.817-0.85,0.95C-4.75,10.533-4.517,10.333-4.25,10.1z"/>
				<path style="fill-rule:evenodd;clip-rule:evenodd;fill:#C0A178;" d="M-24.45,0l3.2,0.05c2.133-0.267,3.6-1.15,4.4-2.65l0.55-1.2
					c0.066-0.133,0.117-0.25,0.15-0.35c0.133-0.333,0.25-0.667,0.35-1c0.167-0.467,0.3-0.9,0.4-1.3l0.05-0.4
					c0.067-0.5,0.1-0.983,0.1-1.45v-0.05c-0.033,0-0.05-0.033-0.05-0.1c-0.067-0.4-0.184-0.85-0.35-1.35l-0.75-1.7
					c-0.133-0.267-0.65-0.583-1.55-0.95c-0.466-0.2-0.5-0.35-0.1-0.45c-0.434,0.1-0.467,0.233-0.1,0.4
					c0.767,0.333,1.2,0.617,1.3,0.85c0.434,0.867,0.75,1.617,0.95,2.25c0.066,0.433,0.1,0.816,0.1,1.15
					c-0.067,0.933-0.583,2.467-1.55,4.6c-0.033,0.033-0.05,0.066-0.05,0.1c-0.767,1.667-2.15,2.767-4.15,3.3L-24.45,0z M15.95,12
					c0-0.033,0.017-0.083,0.05-0.15c-0.033,0.033-0.05,0.066-0.05,0.1c-0.067,0.133-0.117,0.25-0.15,0.35
					C15.867,12.2,15.917,12.1,15.95,12z"/>
				<path style="fill-rule:evenodd;clip-rule:evenodd;fill:#5C5037;" d="M20.75-15.25l0.35,0.65c-1.833,1.367-3.233,2.383-4.2,3.05
					c-1.633,1.167-3.117,2.083-4.45,2.75L6.7-6.4c-0.8,0.467-1.6,0.8-2.4,1C4.1-6.233,4.167-7.133,4.5-8.1
					C4.833-9,5.317-9.783,5.95-10.45c0.133-0.133,0.433-0.4,0.9-0.8c0.4-0.367,0.6-0.7,0.6-1l-0.9,0.1
					c-0.267-0.434-0.833-0.684-1.7-0.75c-0.167-0.033-0.434-0.05-0.8-0.05H2.9L2.3-12.9c-1,0-1.95,0.15-2.85,0.45
					c-0.333,0.1-0.5,0.284-0.5,0.55c0.033,0.467,0.017,0.767-0.05,0.9c-0.1,0.3-0.267,0.367-0.5,0.2c-0.3-0.233-0.55-0.4-0.75-0.5
					c-0.333-0.267-0.583-0.434-0.75-0.5c-0.2-0.1-0.517-0.15-0.95-0.15c-0.567,0-0.9-0.017-1-0.05c-0.667-0.133-1.4-0.2-2.2-0.2
					c-0.4,0-1.517,0.167-3.35,0.5c3.233,1.034,5.733,2.4,7.5,4.1c2.333,2.2,4.8,4.267,7.4,6.2h0.15c0.167-0.033,0.4-0.05,0.7-0.05
					C5.283-1.583,5.383-1.7,5.45-1.8C6.217-2.833,7.633-4.033,9.7-5.4c1.167-0.767,2.8-1.8,4.9-3.1
					c1.667-1.067,4.217-2.483,7.65-4.25L20.75-15.25z M24.15-15.5c0.333,0.1,0.667,0.2,1,0.3l1.45,0.45
					C25.8-15.05,24.983-15.3,24.15-15.5z M20.85,5.55c-0.8,0-1.25-0.083-1.35-0.25c0.367-0.2,0.933-0.35,1.7-0.45
					c0.433-0.067,1-0.117,1.7-0.15l3.4-0.3V4.1l-0.85-0.15L27.2,3.3c0.933-0.3,1.466-0.55,1.6-0.75c0.133-0.2,0.167-0.566,0.1-1.1
					L28.8,0.7l-0.45,0.25c0.066-0.233,0.183-0.434,0.35-0.6c-0.267-1-0.95-1.417-2.05-1.25c0.2,0.3,0.233,0.75,0.1,1.35
					c-0.1,0.633-0.317,1-0.65,1.1c-0.1-0.233-0.117-0.633-0.05-1.2l-0.25-0.5c-0.133-0.233-0.383-0.533-0.75-0.9
					c-0.633-0.633-1.667-0.967-3.1-1c-0.5,0.233-1.083,0.517-1.75,0.85c0.066,0.034,0.117,0.05,0.15,0.05
					c0.233,0.1,0.333,0.3,0.3,0.6h-0.5c-0.533,0.033-0.967,0.05-1.3,0.05c-0.767,0.367-1.6,0.767-2.5,1.2
					c-1.934,0.966-3.567,1.833-4.9,2.6C13.183,4.433,15,5.7,16.9,7.1c0,0.733-0.05,1.45-0.15,2.15l3.2,0.1c0.3,0,0.617,0,0.95,0
					c0.833-0.133,1.633-0.283,2.4-0.45l-0.4-0.1l-0.05-0.65c-1-0.066-1.883-0.217-2.65-0.45c-0.567-0.2-1.117-0.417-1.65-0.65
					c-1-0.466-1.433-0.8-1.3-1c0.067-0.133,0.233-0.167,0.5-0.1L20.85,5.55z M18.55,1.2c0.133-0.434,0.7-0.667,1.7-0.7
					c0.133,0,0.833,0.033,2.1,0.1c0.7,0,1.133,0.017,1.3,0.05c0.434,0.133,0.7,0.4,0.8,0.8c0.167,0.7,0.066,1.083-0.3,1.15
					l-1.6,0.25c-0.7,0.033-1.75-0.283-3.15-0.95c-0.233-0.066-0.417-0.133-0.55-0.2C18.583,1.567,18.483,1.4,18.55,1.2z M35.35,0.65
					c0.066-0.9,0.217-1.55,0.45-1.95c-0.3,0.466-0.466,1.25-0.5,2.35c0-0.133-0.017-0.283-0.05-0.45l0.05,0.7L35.35,0.65z M34.8-1.9
					l0.05,0.4L34.8-2.15V-1.9z M32.35-0.8L32.2-0.75l0.15,0.05C32.35-0.733,32.35-0.767,32.35-0.8z M32.8-2.85L32.75-2.8
					c-0.033,0.066-0.05,0.133-0.05,0.2C32.733-2.7,32.767-2.783,32.8-2.85z M33.1-4.8c0,0.133,0,0.25,0,0.35
					c0,0.2-0.05,0.367-0.15,0.5C33.15-4.183,33.2-4.467,33.1-4.8z M7.4-14.6C7.667-14.967,7.867-15.433,8-16l0.05-0.2
					C7.85-15.5,7.633-14.967,7.4-14.6z M-3.05-15.75c0.3,0.467,0.816,1.033,1.55,1.7l0.3,0.25C-2.133-14.667-2.75-15.317-3.05-15.75
					z M-23.8-15.35c0.033-0.066,0.1-0.133,0.2-0.2c0.934,0.667,1.717,1.167,2.35,1.5c-0.267-0.633,0.583-1.467,2.55-2.5
					c-1.133,0.033-2.017,0.117-2.65,0.25c-1.066,0.2-1.816,0.45-2.25,0.75c-0.066,0.033-0.133,0.083-0.2,0.15V-15.35z M-35.65-7.2
					l0.2,0.05l-0.25-0.2L-35.65-7.2z M-32-4.65l2.75,1.45c1.167,0.633,1.883,1,2.15,1.1l-0.25,0.05c-2.066-0.133-3.6-0.284-4.6-0.45
					c-0.8-0.167-1.417-0.283-1.85-0.35c-0.7-0.133-1.317-0.2-1.85-0.2c-0.533-0.034-0.934-0.05-1.2-0.05c-0.533,0-0.9,0.133-1.1,0.4
					c-0.333,0.434-0.333,0.9,0,1.4c0.2,0.3,0.4,0.55,0.6,0.75c0-0.267,0.117-0.467,0.35-0.6c0.167-0.067,0.533-0.133,1.1-0.2
					c0.2-0.033,0.533-0.083,1-0.15c0.433,0,0.667,0.15,0.7,0.45c0.034,0.167,0,0.417-0.1,0.75c-0.1,0.333-0.117,0.583-0.05,0.75
					c0.233,0.533,0.783,0.95,1.65,1.25l-0.65,1l-0.05-0.05l-0.45-0.3c0.167,0.133,0.333,0.25,0.5,0.35
					c0.8,0.533,1.333,0.933,1.6,1.2c0.533,0.434,0.983,0.733,1.35,0.9c0.433,0.233,1.2,0.5,2.3,0.8c0.067,0.033,0.133,0.05,0.2,0.05
					c0.4-0.633,0.933-1.267,1.6-1.9l2.2-0.35c0.267-0.033,0.517-0.083,0.75-0.15c0.633-0.1,1.1-0.2,1.4-0.3l-7.65-0.1
					c-1.033-0.8-1.683-1.283-1.95-1.45c-0.534-0.3-0.767-0.65-0.7-1.05c0.333-0.467,0.75-0.8,1.25-1c1.1-0.6,2.2-1.033,3.3-1.3
					l0.6-0.15c0.167-0.033,0.35-0.083,0.55-0.15c-0.4-0.567-0.684-1.183-0.85-1.85c-0.367-0.033-0.783-0.133-1.25-0.3
					c-1-0.3-1.567-0.467-1.7-0.5c-0.5-0.1-0.9-0.2-1.2-0.3c-0.567-0.2-0.784-0.483-0.65-0.85c0.233-0.233,0.483-0.367,0.75-0.4
					c0.833-0.3,1.917-0.417,3.25-0.35c0.2,0,0.417,0,0.65,0c0.033-0.4,0.117-0.8,0.25-1.2c-0.633-0.067-1.217-0.167-1.75-0.3
					C-29.35-8.367-30-8.4-31-8.4c-0.933,0-1.55,0.05-1.85,0.15c-0.833,0.233-1.383,0.567-1.65,1c-0.133,0.167-0.2,0.367-0.2,0.6
					L-32-4.65z M-38.8-6.5c0,0.667,0.15,1.3,0.45,1.9c0.233,0.467,0.533,0.833,0.9,1.1C-38.283-4.167-38.733-5.167-38.8-6.5z
					 M27.1,0.65c-0.133-0.467-0.15-0.783-0.05-0.95c0.133-0.167,0.317-0.217,0.55-0.15c0.233,0.067,0.383,0.184,0.45,0.35
					c0.1,0.167,0.133,0.517,0.1,1.05c-0.066,0.566-0.1,0.95-0.1,1.15L27.3,1.7C27.3,1.567,27.233,1.217,27.1,0.65z M25.75,2
					c0.2-0.067,0.417-0.083,0.65-0.05c0.067,0.167,0.067,0.333,0,0.5h-0.75C25.45,2.217,25.483,2.067,25.75,2z M1.65-9.9
					c0.167,0.1,0.333,0.3,0.5,0.6L1.3-9.05C1.133-9.217,1-9.333,0.9-9.4C0.733-9.533,0.633-9.667,0.6-9.8
					c0.1-0.067,0.267-0.117,0.5-0.15C1.333-9.983,1.517-9.967,1.65-9.9z M0.95-11.3c0.1-0.133,0.45-0.2,1.05-0.2
					c0.333,0.033,0.733,0.067,1.2,0.1c0.667,0,1.283,0.167,1.85,0.5l-0.9,0.5c-0.8,0-1.45-0.033-1.95-0.1
					C1.133-10.633,0.717-10.9,0.95-11.3z M-32.2-0.65l-0.75,0.75c-0.167-0.133-0.283-0.3-0.35-0.5c-0.1-0.267-0.1-0.483,0-0.65
					c0.133-0.2,0.333-0.233,0.6-0.1C-32.433-1.05-32.267-0.883-32.2-0.65z"/>
				<path style="fill-rule:evenodd;clip-rule:evenodd;fill:#534731;" d="M25.15-15.2c-0.333-0.1-0.667-0.2-1-0.3
					c-0.767-0.2-1.483-0.35-2.15-0.45c-0.233,0.233-0.483,0.417-0.75,0.55l-0.5,0.15l1.5,2.5c0.267-0.167,0.55-0.317,0.85-0.45
					l0.25-0.25L25.15-15.2z M-26.95-14l1.15,0.25c0.933,0.267,1.767,0.667,2.5,1.2c1.566-0.767,3.4-0.883,5.5-0.35
					c1.4-0.167,3.533,0.167,6.4,1c0.267,0.066,0.533,0.133,0.8,0.2c1.833-0.333,2.95-0.5,3.35-0.5c0.8,0,1.533,0.067,2.2,0.2
					c0.1,0.033,0.433,0.05,1,0.05c0.433,0,0.75,0.05,0.95,0.15c0.167,0.066,0.417,0.233,0.75,0.5c0.2,0.1,0.45,0.267,0.75,0.5
					c0.233,0.167,0.4,0.1,0.5-0.2c0.067-0.133,0.083-0.433,0.05-0.9c0-0.267,0.167-0.45,0.5-0.55c0.9-0.3,1.85-0.45,2.85-0.45
					l0.6-0.05H2.55c-1.333-0.033-2.333-0.066-3-0.1c0.233-0.167,0.617-0.35,1.15-0.55c0-0.133,0-0.35,0-0.65
					c-0.534,0.1-1.05,0.15-1.55,0.15H-0.9c0.066,0.3,0.066,0.483,0,0.55v0.05l-0.3-0.3l-0.3-0.25c-0.467,0-0.75,0.133-0.85,0.4
					c0.033,0.6,0.033,1.05,0,1.35c-0.4-0.567-0.717-0.95-0.95-1.15c-0.4-0.167-0.7-0.316-0.9-0.45l-0.35-0.4
					c-0.3-0.233-0.75-0.383-1.35-0.45c-0.633-0.067-1.1-0.117-1.4-0.15c-1-0.133-2.05,0.066-3.15,0.6l-5.4-2.3H-16
					c-1.033,0-1.933,0.017-2.7,0.05c-1.966,1.033-2.816,1.867-2.55,2.5c-0.633-0.333-1.417-0.833-2.35-1.5
					c-0.1,0.066-0.167,0.133-0.2,0.2c-0.133,0.133-0.233,0.25-0.3,0.35c-0.1,0.233-0.167,0.367-0.2,0.4
					c-0.133,0.133-0.633,0.267-1.5,0.4C-26.2-14.133-26.583-14.067-26.95-14z M20.85,5.55l-3.1,0.4
					c-0.267-0.067-0.433-0.034-0.5,0.1c-0.133,0.2,0.3,0.534,1.3,1c0.534,0.233,1.083,0.45,1.65,0.65
					c0.767,0.233,1.65,0.383,2.65,0.45c-0.1-0.8-0.367-1.45-0.8-1.95C21.783,5.9,21.383,5.683,20.85,5.55z M26.3,4.4h0.4
					c0.333-0.033,0.95-0.117,1.85-0.25c0.833-0.1,1.417-0.05,1.75,0.15v0.55l0.25,0.05L33,4.2l2.05-1.85
					c0.133-0.1,0.317-0.233,0.55-0.4c0.2-0.167,0.283-0.367,0.25-0.6c-0.033-0.167-0.2-0.4-0.5-0.7L35.3,1.3l-0.05-0.7
					c-0.533-0.4-1.05-0.7-1.55-0.9l-0.1-0.05l-0.45-0.1l-0.1,0.2c-0.267,0.3-0.466,0.567-0.6,0.8l-0.1-1.25L32.2-0.75l0.15-0.05
					v-0.4L28.8,0.7l0.1,0.75c0.067,0.533,0.033,0.9-0.1,1.1C28.667,2.75,28.133,3,27.2,3.3l-1.75,0.65L26.3,4.1V4.4z M9.8-16
					l0.4,0.25l0.05,0.05c-0.1-0.066-0.233-0.133-0.4-0.2l-0.4-0.05L8-16c-0.133,0.567-0.333,1.033-0.6,1.4l-0.1,0.15l-0.1,0.1
					c-0.133-0.533-0.217-1.066-0.25-1.6l-0.7,0.05C5.917-15.367,5.533-15.067,5.1-15c-0.033,0-0.067,0-0.1,0
					c0.133-0.233,0.333-0.517,0.6-0.85l-1.25,0.2c-0.6,0.133-1.15,0.383-1.65,0.75c-0.3,0.233-0.684,0.4-1.15,0.5L1.2-14.35
					c-0.034,0.033-0.05,0.067-0.05,0.1L1.1-14.1l-0.05,0.05c-0.033,0.1-0.083,0.2-0.15,0.3c0,0.033-0.017,0.067-0.05,0.1
					c0.767-0.267,2.3-0.4,4.6-0.4c0.167,0,0.517-0.017,1.05-0.05c0.5,0,0.85,0.067,1.05,0.2c0.133,0.133,0.267,0.383,0.4,0.75
					c0.1,0.433,0.216,0.717,0.35,0.85l-0.85,0.05c0,0.3-0.2,0.633-0.6,1c-0.467,0.4-0.767,0.667-0.9,0.8
					C5.317-9.783,4.833-9,4.5-8.1C4.167-7.133,4.1-6.233,4.3-5.4c0.8-0.2,1.6-0.533,2.4-1l5.75-2.4
					c1.333-0.667,2.816-1.583,4.45-2.75c0.967-0.667,2.367-1.684,4.2-3.05l-0.35-0.65l-1.95,0.3c-1.466,0.233-3.233,0.85-5.3,1.85
					c-1.733,0.934-3.483,2.05-5.25,3.35C7.783-9.317,7.267-8.967,6.7-8.7c0.066-0.233,0.1-0.583,0.1-1.05
					c0.1-0.5,0.35-0.983,0.75-1.45c0.167-0.2,0.55-0.566,1.15-1.1c1.1-0.967,1.966-1.6,2.6-1.9c0.333-0.1,0.583-0.216,0.75-0.35
					c-0.2-0.133-0.75-0.2-1.65-0.2L7.55-14.8c0.1-0.2,0.717-0.35,1.85-0.45l1.25-0.25l-0.15-0.15l-0.2-0.05
					c-0.033-0.033-0.066-0.05-0.1-0.05l-0.05-0.05L9.8-16z M22.55-2.35c-0.167,0.1-0.367,0.2-0.6,0.3c1.433,0.033,2.466,0.367,3.1,1
					c0.367,0.367,0.617,0.667,0.75,0.9c-0.3-0.7-0.533-1.117-0.7-1.25c-0.633-0.233-1-0.483-1.1-0.75c1.1-0.233,2.233-0.6,3.4-1.1
					c1.3-0.5,2.184-0.983,2.65-1.45c0.1-0.066,0.383-0.25,0.85-0.55c0.4-0.3,0.5-0.533,0.3-0.7C31.033-6.083,30.733-6.1,30.3-6
					l-0.9,0.35C26.533-4.05,24.25-2.95,22.55-2.35z M28.7,0.35c0.267-0.3,0.733-0.667,1.4-1.1c0.3-0.233,0.75-0.55,1.35-0.95
					c0.566-0.4,1-0.767,1.3-1.1l0.05-0.05c-0.566-0.333-0.633-0.617-0.2-0.85l0.25-0.15l0.1-0.1c0.1-0.133,0.15-0.3,0.15-0.5
					L32.8-4.4c-1.7,0.2-2.966,0.517-3.8,0.95c-0.3,0.133-0.717,0.417-1.25,0.85c-0.533,0.4-0.95,0.684-1.25,0.85
					c-0.367,0.1-0.6,0.167-0.7,0.2c-0.066,0.033-0.066,0.216,0,0.55c0,0.033,0.15,0.333,0.45,0.9c0.2,0.434,0.233,0.733,0.1,0.9
					l-0.3-0.45C25.983,0.917,26,1.317,26.1,1.55c0.333-0.1,0.55-0.466,0.65-1.1c0.133-0.6,0.1-1.05-0.1-1.35
					C27.75-1.067,28.433-0.65,28.7,0.35z M34.8-1.9v-0.25L34.6-2.2l-0.3,0.45l0.4-0.15H34.8z M-32.6-10.45
					c-0.033,0.633-0.1,1.117-0.2,1.45c-0.167-0.467-0.317-0.9-0.45-1.3c-0.133,0.033-0.233,0.133-0.3,0.3
					c0,0.4-0.017,0.667-0.05,0.8c-0.967-0.1-1.517-0.05-1.65,0.15c-0.033,0.1,0.017,0.267,0.15,0.5c0.167,0.267,0.25,0.433,0.25,0.5
					c-0.5-0.067-0.833-0.05-1,0.05l-0.05,0.05l0.15,0.5h0.05l1,0.8c0-0.233,0.067-0.434,0.2-0.6c0.267-0.433,0.817-0.767,1.65-1
					c0.3-0.1,0.917-0.15,1.85-0.15c1,0,1.65,0.033,1.95,0.1c0.533,0.133,1.117,0.233,1.75,0.3c0.2-0.7,0.533-1.35,1-1.95
					c-2.233-0.367-4.017-0.533-5.35-0.5H-32.6z M-37.45-3.5c-0.367-0.267-0.667-0.633-0.9-1.1c-1.033,0.067-1.667,0.267-1.9,0.6
					c0.233,0.467,0.717,1.083,1.45,1.85c0.033,0.033,0.066,0.066,0.1,0.1l0.8,0.9c-0.033-0.033-0.05-0.083-0.05-0.15
					c-0.333-0.5-0.333-0.967,0-1.4c0.2-0.267,0.567-0.4,1.1-0.4c0.267,0,0.667,0.017,1.2,0.05c0.533,0,1.15,0.066,1.85,0.2
					c0.433,0.067,1.05,0.184,1.85,0.35c1,0.167,2.534,0.317,4.6,0.45l0.25-0.05c-0.267-0.1-0.983-0.467-2.15-1.1L-32-4.65
					c1.2,0.733,2.117,1.233,2.75,1.5c-1.133-0.1-1.833-0.184-2.1-0.25c-1.233-0.533-2.2-0.883-2.9-1.05L-36-4.6v0.05l-0.1-0.05
					l-1.3-0.05C-37.4-4.183-37.417-3.8-37.45-3.5z M-21.95,2.95c0.2-0.067,0.333-0.117,0.4-0.15c0.367-0.2,1.433-0.4,3.2-0.6
					c2-0.2,3.533-0.2,4.6,0c0.9,0.167,2.617,0.367,5.15,0.6h0.1c0.033,0,0.083,0,0.15,0l-1.5-0.5c-1.566-0.566-2.767-0.933-3.6-1.1
					c-0.6-0.1-1.9-0.2-3.9-0.3s-3.783-0.283-5.35-0.55L-24.45,0c-0.533-0.367-1.066-0.867-1.6-1.5c-0.2-0.233-0.367-0.483-0.5-0.75
					c-0.2,0.067-0.383,0.117-0.55,0.15l-0.6,0.15c-1.1,0.267-2.2,0.7-3.3,1.3c-0.5,0.2-0.917,0.533-1.25,1
					c-0.067,0.4,0.167,0.75,0.7,1.05c0.267,0.167,0.917,0.65,1.95,1.45L-21.95,2.95z"/>
				<path style="fill-rule:evenodd;clip-rule:evenodd;fill:#685A3E;" d="M18.55,1.2c-0.066,0.2,0.034,0.367,0.3,0.5
					c0.133,0.066,0.316,0.133,0.55,0.2c1.4,0.667,2.45,0.983,3.15,0.95l1.6-0.25c0.367-0.067,0.467-0.45,0.3-1.15
					c-0.1-0.4-0.367-0.667-0.8-0.8c-0.167-0.033-0.6-0.05-1.3-0.05c-1.267-0.067-1.967-0.1-2.1-0.1
					C19.25,0.533,18.683,0.767,18.55,1.2z M20.2-1.2c-0.434,0.233-0.883,0.467-1.35,0.7c0.333,0,0.767-0.017,1.3-0.05h0.5
					c0.033-0.3-0.066-0.5-0.3-0.6C20.317-1.15,20.267-1.167,20.2-1.2z M-33.85,2.35l0.45,0.3l0.05,0.05l0.65-1
					c-0.867-0.3-1.417-0.717-1.65-1.25c-0.066-0.167-0.05-0.417,0.05-0.75c0.1-0.333,0.133-0.583,0.1-0.75
					c-0.033-0.3-0.267-0.45-0.7-0.45c-0.467,0.067-0.8,0.117-1,0.15c-0.567,0.067-0.934,0.133-1.1,0.2
					c-0.233,0.133-0.35,0.333-0.35,0.6c0,0.033,0,0.066,0,0.1l0.6,0.85L-33.85,2.35z M25.75,2c-0.267,0.067-0.3,0.217-0.1,0.45h0.75
					c0.067-0.167,0.067-0.333,0-0.5C26.167,1.917,25.95,1.933,25.75,2z M27.1,0.65c0.133,0.567,0.2,0.917,0.2,1.05l0.75,0.4
					c0-0.2,0.034-0.583,0.1-1.15c0.033-0.534,0-0.883-0.1-1.05c-0.066-0.167-0.216-0.283-0.45-0.35
					c-0.233-0.066-0.417-0.017-0.55,0.15C26.95-0.133,26.967,0.183,27.1,0.65z M0.95-11.3c-0.233,0.4,0.183,0.667,1.25,0.8
					c0.5,0.067,1.15,0.1,1.95,0.1l0.9-0.5c-0.566-0.333-1.183-0.5-1.85-0.5c-0.467-0.033-0.867-0.067-1.2-0.1
					C1.4-11.5,1.05-11.433,0.95-11.3z M1.65-9.9C1.517-9.967,1.333-9.983,1.1-9.95C0.867-9.917,0.7-9.867,0.6-9.8
					c0.033,0.133,0.133,0.267,0.3,0.4C1-9.333,1.133-9.217,1.3-9.05L2.15-9.3C1.983-9.6,1.817-9.8,1.65-9.9z M-27.4-4.1
					c-0.167-0.533-0.25-1.083-0.25-1.65c0-0.333,0.033-0.683,0.1-1.05c-0.233,0-0.45,0-0.65,0c-1.333-0.067-2.417,0.05-3.25,0.35
					c-0.267,0.034-0.517,0.167-0.75,0.4c-0.133,0.367,0.083,0.65,0.65,0.85c0.3,0.1,0.7,0.2,1.2,0.3c0.133,0.033,0.7,0.2,1.7,0.5
					C-28.183-4.233-27.767-4.133-27.4-4.1z M-32.2-0.65c-0.066-0.233-0.233-0.4-0.5-0.5c-0.267-0.133-0.466-0.1-0.6,0.1
					c-0.1,0.167-0.1,0.383,0,0.65c0.066,0.2,0.183,0.367,0.35,0.5L-32.2-0.65z"/>
				<path style="fill-rule:evenodd;clip-rule:evenodd;fill:#413827;" d="M30.55,4.9L30.3,4.85V4.3c-0.333-0.2-0.917-0.25-1.75-0.15
					c-0.9,0.133-1.517,0.217-1.85,0.25h-0.4l-3.4,0.3c-0.7,0.033-1.267,0.083-1.7,0.15c-0.767,0.1-1.333,0.25-1.7,0.45
					c0.1,0.167,0.55,0.25,1.35,0.25c0.533,0.133,0.933,0.35,1.2,0.65c0.434,0.5,0.7,1.15,0.8,1.95L22.9,8.8l0.4,0.1
					c0.233-0.066,0.467-0.117,0.7-0.15c1.9-0.4,3.4-0.767,4.5-1.1c0.4-0.133,0.75-0.25,1.05-0.35c1.3-0.533,1.567-0.983,0.8-1.35
					L28.8,5.5L30.55,4.9z M20.75-15.25l0.5-0.15c0.267-0.133,0.517-0.317,0.75-0.55c-0.533-0.066-1.2-0.15-2-0.25l-3.95-0.25
					L15.9-15.3c-0.5-0.567-0.883-0.983-1.15-1.25l-0.95-0.1c0.067,0.533,0.034,0.917-0.1,1.15c-0.367-0.067-0.617-0.467-0.75-1.2
					l-1.85-0.15c0.033,0.3,0.15,0.667,0.35,1.1c0.233,0.467,0.383,0.817,0.45,1.05l-1.4-0.95l0.15,0.15L9.4-15.25
					C8.267-15.15,7.65-15,7.55-14.8l2.85,0.05c0.9,0,1.45,0.067,1.65,0.2c-0.167,0.133-0.417,0.25-0.75,0.35
					c-0.633,0.3-1.5,0.934-2.6,1.9c-0.6,0.533-0.983,0.9-1.15,1.1c-0.4,0.467-0.65,0.95-0.75,1.45c0,0.467-0.033,0.817-0.1,1.05
					c0.566-0.267,1.083-0.617,1.55-1.05c1.767-1.3,3.517-2.417,5.25-3.35c2.067-1,3.833-1.617,5.3-1.85L20.75-15.25z M6.25-15.9
					l0.7-0.05c-0.034-0.367-0.034-0.75,0-1.15h-0.1c-0.167,0.367-0.317,0.684-0.45,0.95L6.25-15.9z M8-16l1.45,0.05l0.4,0.05
					c0.167,0.066,0.3,0.133,0.4,0.2l-0.05-0.05L9.8-16c-0.167-0.1-0.5-0.433-1-1l-0.55-0.05c-0.033,0.233-0.083,0.433-0.15,0.6v0.05
					l-0.05,0.2L8-16z M28.8,0.7l3.55-1.9c0.033-0.533,0.15-1,0.35-1.4c0-0.066,0.017-0.133,0.05-0.2c-0.3,0.333-0.733,0.7-1.3,1.1
					c-0.6,0.4-1.05,0.717-1.35,0.95c-0.667,0.433-1.133,0.8-1.4,1.1c-0.167,0.167-0.284,0.367-0.35,0.6L28.8,0.7z M22.55-2.35
					c1.7-0.6,3.983-1.7,6.85-3.3L30.3-6c0.434-0.1,0.733-0.083,0.9,0.05c0.2,0.167,0.1,0.4-0.3,0.7c-0.467,0.3-0.75,0.483-0.85,0.55
					c-0.466,0.467-1.35,0.95-2.65,1.45c-1.167,0.5-2.3,0.867-3.4,1.1c0.1,0.267,0.467,0.517,1.1,0.75c0.167,0.133,0.4,0.55,0.7,1.25
					l0.25,0.5l0.3,0.45c0.133-0.167,0.1-0.466-0.1-0.9C25.95-0.667,25.8-0.967,25.8-1c-0.066-0.333-0.066-0.517,0-0.55
					c0.1-0.034,0.333-0.1,0.7-0.2c0.3-0.167,0.717-0.45,1.25-0.85C28.283-3.033,28.7-3.317,29-3.45c0.833-0.433,2.1-0.75,3.8-0.95
					l0.3-0.05c0-0.1,0-0.216,0-0.35c-0.2-0.7-0.917-1.483-2.15-2.35L35-8.6c0.833-0.267,0.617-0.917-0.65-1.95L33.6-9.3
					c-0.267-0.333-0.333-0.967-0.2-1.9l-0.5-0.35c-0.267,0.466-0.467,0.8-0.6,1C32.067-10.183,31.817-10,31.55-10v-2.35
					c-1.7-0.933-3.35-1.733-4.95-2.4l-1.45-0.45l-1.8,1.75c0.2-0.1,0.45-0.183,0.75-0.25c0.333-0.066,0.783-0.133,1.35-0.2
					c0.6-0.033,1.233,0.167,1.9,0.6c0.4,0.267,1.05,0.7,1.95,1.3c0.733,0.6,1.133,1.25,1.2,1.95c0.233,1.9-0.167,2.966-1.2,3.2
					c-1.333,1.167-3.15,2.434-5.45,3.8C23.65-2.917,23.217-2.683,22.55-2.35z M35.8-1.3c-0.233,0.4-0.383,1.05-0.45,1.95
					c0.3,0.3,0.467,0.533,0.5,0.7c0.033,0.233-0.05,0.433-0.25,0.6c-0.233,0.167-0.417,0.3-0.55,0.4L33,4.2
					c0.2-0.034,0.4-0.083,0.6-0.15c1.967-0.5,3.533-1.55,4.7-3.15c1.133-1.533,1.233-2.333,0.3-2.4l-1.25-0.15L37.3-1.6
					c-0.233,0.4-0.316,1.167-0.25,2.3c-0.3-0.467-0.517-0.8-0.65-1c-0.267-0.434-0.433-0.817-0.5-1.15L35.8-1.3z M34.85-1.5
					L34.8-1.9h-0.1l-0.4,0.15l-1.15,1.3l0.45,0.1l0.1,0.05c0.5,0.2,1.017,0.5,1.55,0.9c-0.067-0.467-0.2-1.017-0.4-1.65V-1.5z
					 M1.2-14.35l0.35-0.05c0.467-0.1,0.85-0.267,1.15-0.5c0.5-0.367,1.05-0.617,1.65-0.75l1.25-0.2c0.367-0.4,0.517-0.8,0.45-1.2
					L6-17.15c-1.4-0.067-2.217-0.067-2.45,0H3.5l0.4,1.35c-0.267,0.167-0.733-0.184-1.4-1.05l-0.6,0.3
					C1.833-15.883,1.6-15.15,1.2-14.35z M0.7-13.6c-0.534,0.2-0.917,0.383-1.15,0.55c0.667,0.033,1.667,0.066,3,0.1H2.9h1.15
					c0.367,0,0.633,0.017,0.8,0.05c0.867,0.066,1.433,0.316,1.7,0.75l0.9-0.1L8.3-12.3c-0.133-0.133-0.25-0.417-0.35-0.85
					c-0.133-0.367-0.267-0.617-0.4-0.75C7.35-14.033,7-14.1,6.5-14.1c-0.533,0.033-0.883,0.05-1.05,0.05c-2.3,0-3.833,0.133-4.6,0.4
					c-0.033,0.066-0.083,0.133-0.15,0.2C0.7-13.483,0.7-13.533,0.7-13.6z M-0.9-14.1h0.05c0.5,0,1.017-0.05,1.55-0.15
					c0-0.133,0-0.283,0-0.45c0.033-0.633-0.034-1.033-0.2-1.2c-0.533,0.267-0.967,0.4-1.3,0.4h-0.3v0.35L-0.9-14.1z M-1.5-14.05
					c-0.733-0.667-1.25-1.233-1.55-1.7l-0.05-0.1l-0.35-0.05c0.067,1.267,0.383,2.217,0.95,2.85C-3.233-13.617-3.783-14.6-4.15-16
					h-0.1c0.067,0.867,0.083,1.517,0.05,1.95c-0.8-0.867-1.233-1.567-1.3-2.1l-2-0.15c-3.333-0.2-6.117-0.3-8.35-0.3l5.4,2.3
					c1.1-0.534,2.15-0.733,3.15-0.6c0.3,0.033,0.767,0.083,1.4,0.15c0.6,0.067,1.05,0.217,1.35,0.45l0.35,0.4
					c0.2,0.133,0.5,0.283,0.9,0.45c0.233,0.2,0.55,0.583,0.95,1.15c0.033-0.3,0.033-0.75,0-1.35C-2.25-13.917-1.967-14.05-1.5-14.05
					z M-33.25-10.3c-0.167-0.633-0.267-1.167-0.3-1.6l-0.3,0.2l-1,2.3c0.1-0.5,0.117-1.033,0.05-1.6l-0.65,0.4l-0.1,0.05
					c-0.633,0.367-0.75,1.233-0.35,2.6L-35.85-8c0.167-0.1,0.5-0.117,1-0.05c0-0.067-0.083-0.233-0.25-0.5
					c-0.133-0.233-0.183-0.4-0.15-0.5c0.133-0.2,0.683-0.25,1.65-0.15c0.033-0.133,0.05-0.4,0.05-0.8
					C-33.483-10.167-33.383-10.267-33.25-10.3z M-32.6-10.45h0.95c1.333-0.033,3.117,0.133,5.35,0.5
					c0.333-0.466,0.733-0.917,1.2-1.35c0.567-0.534,1.167-0.95,1.8-1.25c-0.733-0.534-1.567-0.934-2.5-1.2L-26.95-14
					c-0.867,0.167-1.683,0.317-2.45,0.45l-0.1,0.15c-1.1,1.733-1.717,2.683-1.85,2.85c-0.2-0.2-0.367-0.55-0.5-1.05
					c-0.133-0.633-0.233-1-0.3-1.1l-0.3,0.1c-0.066,0.367-0.117,0.983-0.15,1.85C-32.6-10.65-32.6-10.55-32.6-10.45z M-38.8-6.5
					l-0.05,0.05c0,0.1-0.233,0.467-0.7,1.1V-6.2l-0.05,0.05C-40.533-5.717-40.75-5-40.25-4c0.233-0.333,0.867-0.533,1.9-0.6
					C-38.65-5.2-38.8-5.833-38.8-6.5z M-32-4.65l-2.7-2l-1-0.8h-0.05v0.1h0.05l0.25,0.2l-0.2-0.05h-0.05l0.05,0.05
					c-0.233,0-0.517,0.033-0.85,0.1v0.4c0,0.367,0,0.667,0,0.9c0.033,0.5,0.183,0.883,0.45,1.15H-36l1.75,0.15
					c0.7,0.167,1.667,0.517,2.9,1.05c0.267,0.066,0.967,0.15,2.1,0.25C-29.883-3.417-30.8-3.917-32-4.65z M-37.4-4.65l1.3,0.05
					c-0.333-0.167-0.6-0.433-0.8-0.8l-0.5-1.5h-0.05C-37.417-6.033-37.4-5.283-37.4-4.65z"/>
				<path style="fill-rule:evenodd;clip-rule:evenodd;fill:#826D51;" d="M-17.8-12.9c-2.1-0.533-3.934-0.417-5.5,0.35
					c-0.633,0.3-1.233,0.716-1.8,1.25c-0.467,0.433-0.867,0.883-1.2,1.35c-0.467,0.6-0.8,1.25-1,1.95c-0.133,0.4-0.217,0.8-0.25,1.2
					c-0.067,0.367-0.1,0.716-0.1,1.05c0,0.567,0.083,1.117,0.25,1.65c0.167,0.667,0.45,1.283,0.85,1.85
					c0.133,0.267,0.3,0.517,0.5,0.75c0.533,0.633,1.066,1.133,1.6,1.5l2.9-0.25c2-0.533,3.383-1.633,4.15-3.3
					c0-0.034,0.017-0.067,0.05-0.1c0.967-2.133,1.483-3.667,1.55-4.6c0-0.333-0.034-0.717-0.1-1.15
					c-0.2-0.633-0.517-1.383-0.95-2.25c-0.1-0.233-0.533-0.517-1.3-0.85c-0.367-0.167-0.333-0.3,0.1-0.4H-17.8z M-18.9-3.25
					c-1,1.133-2.467,1.75-4.4,1.85c-0.534,0.033-1.133-0.35-1.8-1.15c-0.133-0.133-0.267-0.3-0.4-0.5
					c-0.233-0.3-0.417-0.617-0.55-0.95c-0.367-0.833-0.45-1.7-0.25-2.6c0.066-0.233,0.15-0.483,0.25-0.75
					c0.066-0.167,0.15-0.35,0.25-0.55c0.3-0.667,0.65-1.267,1.05-1.8c0.533-0.767,1.183-1.367,1.95-1.8
					c0.133-0.067,0.267-0.15,0.4-0.25c1.367-0.633,2.6-0.317,3.7,0.95c0.5,0.6,0.85,1.233,1.05,1.9c0.367,1.167,0.3,2.433-0.2,3.8
					C-18.117-4.367-18.467-3.75-18.9-3.25z"/>
			</g>
		</g>
	</g>
</symbol>
<use xlink:href="#campfire"  width="128.85" height="94.15" x="-64.4" y="-60.8" transform="matrix(1 0 0 -1 65 66)" style="overflow:visible;"/>
</svg>
