<?xml version="1.0" encoding="iso-8859-1"?>
<!-- Generator: Adobe Illustrator 15.1.0, SVG Export Plug-In . SVG Version: 6.00 Build 0)  -->
<!DOCTYPE svg PUBLIC "-//W3C//DTD SVG 1.1//EN" "http://www.w3.org/Graphics/SVG/1.1/DTD/svg11.dtd">
<svg version="1.1" id="Layer_1" xmlns="http://www.w3.org/2000/svg" xmlns:xlink="http://www.w3.org/1999/xlink" x="0px" y="0px"
	 width="64.75px" height="75px" viewBox="0 0 64.75 75" style="enable-background:new 0 0 64.75 75;" xml:space="preserve">
<g>
	<path style="fill-rule:evenodd;clip-rule:evenodd;fill:#898176;" d="M56.3,26.65l1.351,0.85c-0.9,0-1.434-0.117-1.601-0.35
		L56.3,26.65z M60.3,27.8l1.351,1c-0.067,0.1-0.233,0.1-0.5,0c-0.301-0.1-0.517-0.267-0.65-0.5L60.3,27.8z M53.15,29.45
		c-0.667,0.1-1.367,0.3-2.101,0.6c-0.166-0.066-0.333-0.3-0.5-0.7c-0.166-0.4-0.25-0.85-0.25-1.35l0.5-5.5
		c0.2,1.233,0.417,2.267,0.65,3.1c0.233,0.833,0.366,1.417,0.399,1.75c1.101-0.533,1.967-0.667,2.601-0.4
		c0,0.1,0.033,0.383,0.1,0.85c0.033,0.534-0.033,0.967-0.2,1.3L53.15,29.45z M42.1,41.4c-0.566-0.5-1.166-1.134-1.8-1.9l0.15,0.95
		c0.233,0.633,0.45,1.116,0.649,1.45l-0.35-0.2c-0.366-0.566-0.717-1.233-1.05-2l-0.45-1l-0.05-0.3V38.35L39.1,36.4
		c0.233-0.433,0.517-0.8,0.851-1.1c0.033,0.267,0.066,0.667,0.1,1.2c0.066,0.467,0.2,0.75,0.4,0.85c0.267,0.3,0.684,0.683,1.25,1.15
		c0.7,0.533,1.166,0.816,1.399,0.85C42.566,39.884,42.233,40.566,42.1,41.4z M47.85,47.8l1.95,0.45c-0.733,0.333-2.217,0.333-4.45,0
		L45.2,48.2c-0.533-0.134-1-0.3-1.4-0.5L43.7,47.1C44.3,47.1,45.684,47.333,47.85,47.8z M56.45,43.85
		c0.233-0.333,1.066-0.733,2.5-1.199L59.8,43.1c0,0.101,0.033,0.267,0.101,0.5c0.066,0.233,0.1,0.534,0.1,0.9
		c0,0.667-0.033,1.033-0.1,1.1c-0.5,0.233-1.301,0.267-2.4,0.101L56.45,43.85z M48,41.7c1.1,1.1,2.184,1.517,3.25,1.25
		c0.833-0.167,1.566,0.45,2.2,1.85c-0.134,0.2-0.351,0.434-0.65,0.7c-0.333,0.3-0.566,0.45-0.7,0.45l-2-0.25
		c0-0.934,0.034-1.584,0.101-1.95c0.033-0.066,0.05-0.15,0.05-0.25c-0.066-0.167-0.3-0.25-0.7-0.25c-0.5,0-1.383,0.417-2.649,1.25
		c-0.4-0.3-0.801-0.483-1.2-0.55l-1-0.65l-0.65-0.55c0-0.134,0.101-0.517,0.3-1.15c0.167-0.666,0.317-1.133,0.45-1.399L48,41.7z
		 M49.65,29.15c1.233,0.767,0.416,1.083-2.45,0.95c-1.033,0-2.45,0.483-4.25,1.45c-2.334,1.233-3.601,1.883-3.8,1.95L38.8,33.45
		c0.101-1.8,0.434-2.967,1-3.5c0.8-0.767,3.967-1.534,9.5-2.3L49.65,29.15z M28.5,6.2l1.95-3.35c-0.1,0.233-0.383,1.267-0.85,3.1
		c-0.5,1.833-0.767,2.9-0.8,3.2h-0.15c-0.2,0.033-0.333,0.017-0.4-0.05C28.083,9.033,28,8.783,28,8.35C28,7.517,28.167,6.8,28.5,6.2
		z M25.75,8v0.05c-0.933,0.8-2.117,1.434-3.55,1.9c-1.467,0.466-2.983,0.7-4.55,0.7L16.1,10.6c-0.033,0-0.067,0-0.1,0l-0.05-0.05
		c-0.067-0.033-0.1-0.15-0.1-0.35c-0.033-0.1-0.05-0.217-0.05-0.35l1.65-1.45c1.833-0.933,4.6-1.233,8.3-0.9V8z M33.5,24.65
		c0.134-0.2,0.616-0.967,1.45-2.3c0.767-1.333,1.184-2.067,1.25-2.2c0.333,0.767,0.5,1.633,0.5,2.6
		C36.7,23.817,35.634,24.45,33.5,24.65z M31.65,29.7c0.233-0.6,0.35-1.25,0.35-1.95l-0.05-0.55c-0.733,0.066-1.284,0.15-1.65,0.25
		c-0.633,0.133-0.95,0.417-0.95,0.85c0,0.667,0.017,1.133,0.05,1.4c-0.066,0.367-0.267,1.017-0.6,1.95l-0.45,1.05l0.8,0.3l1.45,0.05
		l0.9-0.1l-2.2,1.25c-0.267,0.267-0.533,1.2-0.8,2.8l-0.2,1.65c0-1.101-0.133-2.367-0.4-3.8l-0.1-1.1l0.8-2.25
		c0.2-0.633,0.35-1.217,0.45-1.75v-1.2L29,28.6l0.05-0.85c-0.133,0.033-0.133,0,0-0.1V27.5l0.05,0.1c0.2-0.133,0.6-0.367,1.2-0.7
		c1.567-0.867,2.367-1.316,2.4-1.35L33.05,26c0.066,0.9,0.15,2,0.25,3.3C32.833,29.633,32.283,29.767,31.65,29.7z M12,24.9
		c1.9,0,3.533,0.617,4.9,1.85c1.333,1.2,2,2.667,2,4.4h-0.75c-1.667-0.033-3.1-0.633-4.3-1.8C12.617,28.117,12,26.633,12,24.9z
		 M14.3,11.65c-0.733,0.167-1.417,0.25-2.05,0.25c-0.4,0-0.65-0.017-0.75-0.05V11.8l-0.25-0.15L13.3,10L14.3,11.65z M26.8,31.15
		h-4.75c0-0.9,0.233-1.667,0.7-2.3c0.467-0.667,1.033-1,1.7-1c0.667,0,1.233,0.333,1.7,1C26.617,29.483,26.833,30.25,26.8,31.15z
		 M26.4,51.75c-0.066,0-0.15-0.033-0.25-0.1H25.7c-1.4-0.134-2.15-0.284-2.25-0.45c-0.133-0.167-0.2-0.45-0.2-0.851
		c0-0.399,0.017-0.666,0.05-0.8c0.1-0.1,0.167-0.233,0.2-0.399l0.25-0.051c0.267-0.066,0.6-0.1,1-0.1c0.667,0,1.517,0.05,2.55,0.15
		c-0.2,0.5-0.316,1.166-0.35,2C26.783,51.517,26.6,51.717,26.4,51.75z M28.8,68.45c-0.833,0.233-1.417,0.467-1.75,0.7
		c0.067,0.699,0.15,1.133,0.25,1.3l1,1.55c0.3,0.634,0.05,0.717-0.75,0.25c-0.633-0.366-0.95-0.983-0.95-1.85l-0.15-1.25l-0.1-0.2
		L26.2,67.8c0.4,0.101,0.9,0.117,1.5,0.05c0.633-0.1,1.133-0.25,1.5-0.449l0.75-0.101L28.8,68.45z M24.7,69l-1.05-0.05
		c-0.267-0.033-0.667-0.217-1.2-0.55c-0.567-0.367-1-0.75-1.3-1.15v-0.6c0.4-0.034,0.934,0.199,1.6,0.699
		c0.667,0.434,1.7,0.551,3.1,0.351L24.7,69z M29.25,51.4c-0.133,0.133-0.3,0.199-0.5,0.199s-0.367-0.066-0.5-0.199
		c-0.133-0.134-0.2-0.284-0.2-0.45c0-0.167,0.067-0.316,0.2-0.45s0.3-0.2,0.5-0.2s0.367,0.066,0.5,0.2s0.2,0.283,0.2,0.45
		C29.45,51.116,29.383,51.267,29.25,51.4z M21.4,50.6c-2.433,2.534-3.767,3.884-4,4.051L17.25,54.3
		c-0.067-0.434,0.017-0.866,0.25-1.3c0.467-0.833,1.683-1.733,3.65-2.7c0.033-0.1,0.083-0.166,0.15-0.2
		C21.367,50.033,21.4,50.2,21.4,50.6z"/>
	<path style="fill-rule:evenodd;clip-rule:evenodd;fill:#635B52;" d="M56.1,29.75c-1.3,0.433-2.883,0.867-4.75,1.3
		c-1.566,0.367-3.966,1.117-7.199,2.25c-0.733,0.5-1.184,0.833-1.351,1c-0.333,0.333-0.633,0.8-0.899,1.4
		c0.133,0.4,0.333,0.767,0.6,1.1l0.6,0.25c0.034,0.034,0.067,0.067,0.101,0.1c0.333,0.333,0.616,0.583,0.85,0.75
		c0.134,0.1,0.3,0.216,0.5,0.35l9.25,4.05c-2.533-0.1-4.467-0.3-5.8-0.6l-3.2-1.5c-0.133,0.267-0.283,0.733-0.45,1.399
		c-0.199,0.634-0.3,1.017-0.3,1.15c0.4,1.267,0.967,2.033,1.7,2.3l2.35,0.25c0.733,0,1.367,0.15,1.9,0.45
		c0.7,0.033,1.366,0.25,2,0.65c0.533-0.367,1.017-0.784,1.45-1.25C53.816,44.717,54,44.4,54,44.2c0-0.4-0.066-0.65-0.2-0.75
		c-0.166-0.033-0.3-0.101-0.399-0.2l-0.851-0.7c0.467,0.134,1.184,0.334,2.15,0.601c0.8,0.233,1.383,0.466,1.75,0.699L57.5,45.7
		c0.033,0.033,0.05,0.1,0.05,0.2c0.066,0.1,0.3,0.149,0.7,0.149c0.733,0,1.733-0.3,3-0.899l0.9,0.149
		c-1.733,1.566-2.65,2.316-2.75,2.25c-1.334-0.5-2.567-0.75-3.7-0.75c-1.101,0-2.084,0.217-2.95,0.65
		c-0.733,0.366-2.366,0.483-4.9,0.35c-2.166-0.467-3.55-0.7-4.149-0.7c-1.134-1.399-2.217-3.116-3.25-5.149
		c-0.867-1.7-1.3-2.767-1.3-3.2c0-0.4,0.017-0.533,0.05-0.4V38.4l0.05,0.3l0.45,1c0.333,0.767,0.684,1.434,1.05,2l0.8,0.95l0.5,0.5
		l0.05-1.75c0.134-0.834,0.467-1.517,1-2.051c-0.233-0.033-0.699-0.316-1.399-0.85c-0.566-0.467-0.983-0.85-1.25-1.15
		c0.399-2.2,2.35-4.017,5.85-5.45c1.834-0.767,4.117-1.583,6.851-2.45l1.199-0.35l1.5-0.15c0.567,0,1.534,0.233,2.9,0.7
		c1.267,0.434,2.134,0.8,2.6,1.1c-1.033,0-1.816-0.167-2.35-0.5c-0.066-0.1-0.517-0.2-1.35-0.3
		C56.783,29.85,56.267,29.783,56.1,29.75z M45.2,48.2c-0.167,0.533-0.384,1.967-0.65,4.3c-0.3,2.4-0.434,4-0.399,4.8l-0.101,0.95
		L43.8,47.7C44.2,47.9,44.667,48.066,45.2,48.2z M34.7,13.55l-0.5-0.6l-0.45-0.45c-0.434-0.467-0.884-0.9-1.35-1.3
		c-1.634-1.133-2.5-1.7-2.601-1.7c-1.267,0-3.1,0.4-5.5,1.2c-2.533,0.833-4.066,1.267-4.6,1.3c-1.534-0.033-2.667,0-3.4,0.1
		c-1.066,0.1-3.25,0.617-6.55,1.55H9.8c-1.6,0.5-2.9,0.783-3.9,0.85c-1.5,0.1-2.517,0.2-3.05,0.3c0.9-0.5,1.933-0.833,3.1-1
		c1.466-0.233,2.45-0.433,2.95-0.6l6.1-1.55c0.133-3.767,0.267-5.867,0.4-6.3l0.3-0.55c-0.333,2.467-0.284,4.267,0.15,5.4
		c0,0.2,0.033,0.316,0.1,0.35L16,10.6c0.367,0.6,0.883,0.9,1.55,0.9c1.667,0,2.967-0.133,3.9-0.4c1.966-0.6,3.4-1,4.3-1.2
		c-0.033-0.467-0.033-1.083,0-1.85V8c0.233-0.933,0.967-2.317,2.2-4.15C29.317,1.817,30.5,0.533,31.5,0L31,0.85
		C29.467,3.217,28.633,5,28.5,6.2C28.167,6.8,28,7.517,28,8.35c0,0.433,0.083,0.683,0.25,0.75c0.067,0.066,0.2,0.083,0.4,0.05h0.15
		c2.034,0.067,3.767,1.15,5.2,3.25C34.267,12.767,34.5,13.15,34.7,13.55z M27.9,34.85l-0.1,3.1l-0.7-4.8
		c-1.167-0.033-2.7-0.3-4.6-0.8c-0.067,0-0.15,0-0.25,0c-0.133,0.033-0.217,0.133-0.25,0.3c0,0.3,0.35,1.033,1.05,2.2
		c0.6,1.066,0.85,2.05,0.75,2.95V44c-0.966-5.333-1.617-8.45-1.95-9.35c-0.367-0.967-1.317-2.05-2.85-3.25l-0.1-0.25
		c0-1.733-0.667-3.2-2-4.4c-1.367-1.233-3-1.85-4.9-1.85l-0.35-0.1c0.233,0.034,1.1,0.1,2.6,0.2c1.633,0.2,3,0.65,4.1,1.35
		c2.767,0.8,5.933,0.767,9.5-0.1c5.3-1.3,7.95-4.483,7.95-9.55c0-0.067,0-0.117,0-0.15c0.267,1.1,0.4,2.3,0.4,3.6
		c-0.066,0.133-0.483,0.867-1.25,2.2c-0.834,1.333-1.316,2.1-1.45,2.3l-0.8,0.9c-0.033,0.034-0.833,0.483-2.4,1.35
		c-0.6,0.333-1,0.567-1.2,0.7l-0.05-0.1v0.15c-0.133,0.1-0.133,0.133,0,0.1L29,28.6l-0.2,1.2c-0.033,0.434-0.1,1-0.2,1.7l-0.8,2.25
		L27.9,34.85z M29.15,33l-0.8-0.3l0.45-1.05c1.233,0,2.3-0.233,3.2-0.7c0.866-0.467,1.3-1.017,1.3-1.65c-0.1-1.3-0.184-2.4-0.25-3.3
		L33,25.4c0.5,0.533,0.866,1.067,1.1,1.6c0.067,0.167,0.184,0.533,0.351,1.1c0.2,0.233,0.483,0.383,0.85,0.45
		c0.233-0.2,0.351-0.767,0.351-1.7c0-0.6,0.116-1.1,0.35-1.5c0.2-0.434,0.45-0.65,0.75-0.65c0.3-0.867,0.667-1.65,1.1-2.35
		c0.134-0.8,0.45-1.95,0.95-3.45v-0.1c0.066,0.667,0.2,1.883,0.4,3.65c0,1.367-0.283,2.75-0.851,4.15c-0.3,0.833-0.833,2.167-1.6,4
		c-0.4,1.2-1.5,1.933-3.3,2.2C31.35,32.867,29.917,32.933,29.15,33z M22.05,31.15v1.05l2.3,0.15c0.2,0,1.05-0.1,2.55-0.3l-0.1-0.9
		c0.034-0.9-0.183-1.667-0.65-2.3c-0.467-0.667-1.033-1-1.7-1c-0.667,0-1.233,0.333-1.7,1C22.283,29.483,22.05,30.25,22.05,31.15z
		 M34.8,65.35c0.101-0.267,0.101-0.783,0-1.55C34.7,63,34.5,62.4,34.2,62c-0.334-0.4-0.684-0.483-1.05-0.25
		c-0.367,0.2-0.7,0.9-1,2.1c-0.833,1.233-1.417,2.051-1.75,2.45c-0.233,0.267-0.633,0.634-1.2,1.101
		c-0.367,0.199-0.867,0.35-1.5,0.449c-0.6,0.067-1.1,0.051-1.5-0.05l0.15,1.15l0.1,0.2l0.15,1.25c-1.2-0.101-1.833-0.167-1.9-0.2
		c-0.534-0.134-0.883-0.417-1.05-0.851l0.7-0.199L24.7,69l1.15-1.3c1.767,0,3.267-1.283,4.5-3.851c1.233-2.6,1.85-5.716,1.85-9.35
		c-0.9-0.9-2.117-1.384-3.65-1.45c-1.7,0.101-2.95,0.084-3.75-0.05c-1.466,0.733-2.667,1.4-3.6,2c-0.133-0.2-0.483-0.233-1.05-0.1
		L20.1,54.3c1.9-1.7,3.767-2.583,5.6-2.649h0.45c0.1,0.066,0.184,0.1,0.25,0.1c2.033,0.733,4.05,1.366,6.05,1.9
		c1.066,0.466,1.6,1.533,1.6,3.199l-0.1,2.301c-0.101,0.433-0.066,0.8,0.1,1.1c0.066,0.1,0.25,0.3,0.55,0.6
		c0.167,0.233,0.317,1.067,0.45,2.5L36,63.4c0.467,0,1.134-0.617,2-1.851l0.15,1.05c0.033,1.167-0.417,1.884-1.351,2.15
		c0.167,2,0.2,5.15,0.101,9.45L36.75,75c-0.134-1.7-0.267-3.233-0.4-4.6C36.116,67.767,35.6,66.083,34.8,65.35z M30.75,67.6
		c0.333-0.267,0.633-0.566,0.9-0.899c0.8-0.934,1.267-1.95,1.4-3.05l0.25-0.5l0.05,2.149c0,1.033-0.199,1.917-0.6,2.65
		s-1.117,1.467-2.15,2.2c-0.567,0.366-1.417,0.483-2.55,0.35l-0.75-0.05c-0.1-0.167-0.183-0.601-0.25-1.3
		c1.067-0.134,2-0.434,2.8-0.9C30.183,68.083,30.483,67.866,30.75,67.6z"/>
	<path style="fill-rule:evenodd;clip-rule:evenodd;fill:#877E74;" d="M57.2,37.8l1.5-0.6C58.7,37.5,58.2,37.7,57.2,37.8z
		 M53.85,38.3l-1.75,0.25c0.301,0.2,0.983,0.5,2.051,0.9l0.149,0.5c-2.366,0.2-4.833-0.25-7.399-1.351
		c-1.867-0.766-3.134-1.283-3.801-1.55l-0.6-0.25c-0.267-0.333-0.467-0.7-0.6-1.1c0.267-0.6,0.566-1.067,0.899-1.4
		c0.167-0.167,0.617-0.5,1.351-1c1-0.233,2.85-0.417,5.55-0.55c2.566-0.367,4.7-1.367,6.399-3c0.167,0.033,0.684,0.1,1.551,0.2
		c0.833,0.1,1.283,0.2,1.35,0.3l0.55,0.4c-8.066,3.1-13.467,4.733-16.2,4.9l-0.3,0.15l3.4,0.15c0.733,0.3,1.6,0.7,2.6,1.2
		c0.2,0.067,0.767,0.233,1.7,0.5c0.233,0.067,0.5,0.133,0.8,0.2C52.95,38.116,53.717,38.3,53.85,38.3z M60.7,40.55
		c-0.733,0.367-1.4,0.55-2,0.55L57.75,41c-0.167-0.066-0.283-0.116-0.35-0.15c-0.101-0.1-0.15-0.35-0.15-0.75l0.1-1.1
		c1.334-0.3,2.067-0.983,2.2-2.05c1.667-0.934,2.65-1.55,2.95-1.85c0.333-0.567,0.934-1.3,1.8-2.2V33
		c0.033,0.433,0.05,0.85,0.05,1.25l-3.5,4c0.367,0.2,1.067,0.3,2.101,0.3h0.1c-0.166,0.334-0.633,0.816-1.399,1.45L60.7,40.55z
		 M31.75,14.6c0.1-0.1,0.167-0.184,0.2-0.25c0.033-0.033,0.05-0.267,0.05-0.7c0-0.167-0.217-0.717-0.65-1.65
		c-0.434-1-0.684-1.617-0.75-1.85c-0.367,0.133-1.2,0.3-2.5,0.5c-1.3,0.167-2.184,0.35-2.65,0.55c-1.434,0.633-2.684,1-3.75,1.1
		c-0.2,0.034-1.6,0.05-4.2,0.05c-0.4,0-1.267,0.15-2.6,0.45c-1.767,0.367-3.467,0.65-5.1,0.85H9.75c3.3-0.933,5.483-1.45,6.55-1.55
		c0.733-0.1,1.867-0.133,3.4-0.1c0.533-0.033,2.066-0.467,4.6-1.3c2.4-0.8,4.233-1.2,5.5-1.2c0.1,0,0.967,0.567,2.601,1.7
		c0,0.033,0.116,1.2,0.35,3.5c0,0.333-0.116,1.083-0.35,2.25c-0.267,1.133-0.4,1.867-0.4,2.2c0,1.467-0.517,2.467-1.55,3
		c-0.333,0.167-2.367,0.75-6.1,1.75l-1.3,0.1c0.367-0.133,1.35-0.4,2.95-0.8c0.967-0.267,1.617-0.65,1.95-1.15l0.3-0.65
		c-4.333,0.6-7.567,0.917-9.7,0.95L17.5,22.3c0.7,0.467,1.45,1.1,2.25,1.9c-0.867,0.8-1.55,1.2-2.05,1.2
		c-0.6,0-2.217-0.316-4.85-0.95c-2.467-0.633-4.283-1.15-5.45-1.55c-0.933-0.533-1.8-1.05-2.6-1.55c-1.533-0.967-2.7-1.783-3.5-2.45
		c1.6,0.5,3.184,0.75,4.75,0.75h0.4H9.2c0,0.967,0.283,1.8,0.85,2.5c0.534,0.667,1.184,1,1.95,1c-0.367-0.967-0.45-1.717-0.25-2.25
		c1.433,0.567,2.767,0.85,4,0.85c3.567,0,6.633-0.2,9.2-0.6c1.3-0.2,2.417-1.083,3.35-2.65c0.733-1.633,1.184-2.567,1.35-2.8
		c0.567,0,1.067-0.1,1.5-0.3C31.55,15.167,31.75,14.9,31.75,14.6z M16.5,19.3c0.033-0.1,0.1-0.2,0.2-0.3
		c0.233-0.233,0.55-0.367,0.95-0.4c0.4-0.133,0.8-0.317,1.2-0.55l1.7-0.35h0.35l-1.55,0.65l-0.8,0.2h0.3
		C18.117,18.85,17.333,19.1,16.5,19.3z M13.55,23.9L12,23.15c0.333,0.434,0.717,0.717,1.15,0.85L13.55,23.9z M12.2,20.15l1.15-0.8
		l1.6-0.3l-0.2,0.65L12.2,20.15z M30.55,57.45L30.6,59.1c0,1.867-0.934,3.317-2.8,4.351c-1.7,0.899-3.216,1.1-4.55,0.6L22.3,64.15
		h-0.25c0.733,0.1,2.717,0.216,5.95,0.35l0.1,1.2c-0.3,0.066-0.783,0.1-1.45,0.1c-0.4,0-1.883-0.399-4.45-1.2
		c-0.2,0-0.383-0.017-0.55-0.05H21.6c-0.233-0.033-0.434-0.083-0.6-0.149c-0.2-0.101-0.317-0.233-0.35-0.4
		c-0.033-0.033-0.05-0.066-0.05-0.1c-0.033-0.267,0.083-0.584,0.35-0.95L18,62.4c-0.3-0.267-0.583-0.584-0.85-0.95
		c0.033-0.101,0.1-0.15,0.2-0.15c0.033-0.033,0.083-0.033,0.15,0c0.833,0.2,2.667,0.351,5.5,0.45c0,0.434-0.2,0.75-0.6,0.95l0.9,0.1
		c2,0,3.717-0.517,5.15-1.55C29.85,60.184,30.55,58.917,30.55,57.45z M30.75,55.95c-0.633-0.367-1.883-0.617-3.75-0.75
		c-1.7-0.101-3.75-0.084-6.15,0.05l0.05-0.05l3.9-2.2c0.8,0.134,2.05,0.15,3.75,0.05c1.534,0.066,2.75,0.55,3.65,1.45l-1.4,1.85V56
		L30.75,55.95z"/>
	<path style="fill-rule:evenodd;clip-rule:evenodd;fill:#A99F92;" d="M61.35,30.75c0.801,0,1.5,0.217,2.101,0.65
		c0.566,0.4,0.85,0.9,0.85,1.5c-0.866,0.9-1.467,1.633-1.8,2.2c-0.3,0.3-1.283,0.917-2.95,1.85l-0.3-0.7
		c0.767-0.233,1.634-0.867,2.6-1.9c0.7-0.733,1.167-1.333,1.4-1.8c-0.6,0.6-1.2,1.15-1.8,1.65c-0.566,0.433-0.9,0.65-1,0.65
		c-0.4,0-1-0.25-1.8-0.75c-0.767-0.434-1.517-0.6-2.25-0.5l-1.551,0.2l0.2,0.3c0.3,0.3,0.8,0.6,1.5,0.9l-2.75-0.3
		c0.467,0.1,1.267,0.433,2.4,1c1.2,0.6,2.033,1.1,2.5,1.5l-1.5,0.6l-3.351,0.5c-0.133,0-0.899-0.184-2.3-0.55
		c-0.3-0.067-0.566-0.133-0.8-0.2c0.767,0.1,1.65,0.117,2.65,0.05c1.033-0.067,2.666-0.184,4.899-0.35l-0.5-0.5
		c-2.233,0.733-4.45,0.783-6.649,0.15c-3.134-0.9-5.317-1.367-6.551-1.4l1.851,0.35l-3.4-0.15l0.3-0.15
		c2.733-0.167,8.134-1.8,16.2-4.9L59,30.25C59.533,30.583,60.316,30.75,61.35,30.75z M64.1,36.85l0.25-2.6
		c0,0.633-0.033,1.267-0.1,1.9L64.1,36.85z M31.75,14.6c-0.2-0.7-0.55-1.333-1.05-1.9c0.2,1-0.2,1.633-1.2,1.9
		c-1.067,0.1-1.683,0.2-1.85,0.3c-0.433,0.367-1.1,1.217-2,2.55c-0.7,1.1-1.283,1.65-1.75,1.65c-0.9,0-2.017,0.3-3.35,0.9
		c-1.333,0.6-2.566,0.9-3.7,0.9c-0.4,0-0.75-0.083-1.05-0.25l-0.3-0.25c0.167-0.033,0.367-0.167,0.6-0.4
		c0.2-0.233,0.333-0.467,0.4-0.7c0.833-0.2,1.617-0.45,2.35-0.75c1.267,0.267,2.617-0.133,4.05-1.2c1.233-0.934,1.934-1.667,2.1-2.2
		c-0.167,0.4-0.817,0.934-1.95,1.6c-1.167,0.667-2.4,1.2-3.7,1.6l1.55-0.65h-0.35l-1.7,0.35l2.35-1.7l-1.1,0.6
		c-1.067,0.167-2.717,0.5-4.95,1C14.95,17.983,13.8,18,11.7,18c-1.7,0-3.617-0.15-5.75-0.45c-2.867-0.433-4.717-1.017-5.55-1.75
		c0.333-0.3,0.817-0.55,1.45-0.75L1.95,15l0.9-0.2c0.533-0.1,1.55-0.2,3.05-0.3c1-0.067,2.3-0.35,3.9-0.85
		c1.633-0.2,3.333-0.483,5.1-0.85c1.333-0.3,2.2-0.45,2.6-0.45c2.6,0,4-0.017,4.2-0.05c1.066-0.1,2.316-0.466,3.75-1.1
		c0.466-0.2,1.35-0.383,2.65-0.55c1.3-0.2,2.133-0.367,2.5-0.5c0.066,0.233,0.316,0.85,0.75,1.85c0.433,0.933,0.65,1.483,0.65,1.65
		c0,0.434-0.017,0.667-0.05,0.7C31.917,14.417,31.85,14.5,31.75,14.6z M60.7,40.55L61.65,40l1.55-1.1
		c-1.367,1.066-2.367,1.716-3,1.949L60.7,40.55z M35.8,16.55c-0.233-1.066-0.566-2.033-1-2.9l0.15,0.2
		C35.483,14.75,35.767,15.65,35.8,16.55z M11.75,20.9l0.1-0.3c2.467,0.533,6.25,0.683,11.35,0.45c1.867-0.1,3.367-0.883,4.5-2.35
		c0.933-1.6,1.583-2.6,1.95-3c-0.167,0.233-0.617,1.167-1.35,2.8c-0.933,1.567-2.05,2.45-3.35,2.65c-2.567,0.4-5.633,0.6-9.2,0.6
		C14.517,21.75,13.183,21.467,11.75,20.9z M9.6,19.3l-0.4,0.35H6.45C7.35,19.617,8.4,19.5,9.6,19.3z M12.2,20.15l2.55-0.45
		c-0.833,0.433-1.733,0.65-2.7,0.65L12.2,20.15z M13.35,19.35L14.3,19c0.2,0.033,0.417,0.05,0.65,0.05L13.35,19.35z M16.8,60.5
		l0.7,0.8c-0.067-0.033-0.117-0.033-0.15,0C17.117,61,16.933,60.733,16.8,60.5z M20.85,55.25c2.4-0.134,4.45-0.15,6.15-0.05
		c1.867,0.133,3.117,0.383,3.75,0.75l-0.95,0.6c0.4-0.166,0.733-0.35,1-0.55v0.35l-0.25,1.101c0,1.467-0.7,2.733-2.1,3.8
		c-1.434,1.033-3.15,1.55-5.15,1.55c1.867-0.066,3-0.483,3.4-1.25c1.367-2.5,2.4-4.166,3.1-5c-0.966,0.467-1.85,1.467-2.65,3
		c-0.667,1.3-1.45,1.95-2.35,1.95c-4.8-0.767-7.45-1.333-7.95-1.7C18.35,57.5,19.683,55.983,20.85,55.25z M21.2,55
		c0.933-0.6,2.133-1.267,3.6-2l-3.9,2.2L21.2,55z"/>
	<path style="fill-rule:evenodd;clip-rule:evenodd;fill:#C5BBAE;" d="M50.75,37.55c-0.934-0.267-1.5-0.433-1.7-0.5
		c-1-0.5-1.866-0.9-2.6-1.2L44.6,35.5c1.233,0.033,3.417,0.5,6.551,1.4c2.199,0.633,4.416,0.583,6.649-0.15l0.5,0.5
		c-2.233,0.167-3.866,0.283-4.899,0.35C52.4,37.667,51.517,37.65,50.75,37.55z M59.25,36.25c-0.333-0.1-0.65-0.233-0.95-0.4
		c-0.434-0.267-1.017-0.55-1.75-0.85c-0.7-0.3-1.2-0.6-1.5-0.9l-0.2-0.3l1.551-0.2c0.733-0.1,1.483,0.066,2.25,0.5
		c0.8,0.5,1.399,0.75,1.8,0.75c0.1,0,0.434-0.217,1-0.65c0.6-0.5,1.2-1.05,1.8-1.65c-0.233,0.467-0.7,1.067-1.4,1.8
		C60.884,35.383,60.017,36.017,59.25,36.25z M18.85,18.05c-0.4,0.233-0.8,0.417-1.2,0.55c-0.4,0.033-0.717,0.167-0.95,0.4
		c-0.1,0.1-0.167,0.2-0.2,0.3c-0.067,0.233-0.2,0.467-0.4,0.7c-0.233,0.233-0.434,0.367-0.6,0.4l0.3,0.25
		c0.3,0.167,0.65,0.25,1.05,0.25c1.133,0,2.367-0.3,3.7-0.9c1.333-0.6,2.45-0.9,3.35-0.9c0.467,0,1.05-0.55,1.75-1.65
		c0.9-1.333,1.567-2.184,2-2.55c0.167-0.1,0.783-0.2,1.85-0.3c1-0.267,1.4-0.9,1.2-1.9c0.5,0.566,0.85,1.2,1.05,1.9
		c0,0.3-0.2,0.566-0.6,0.8c-0.433,0.2-0.933,0.3-1.5,0.3c-0.367,0.4-1.017,1.4-1.95,3c-1.133,1.466-2.633,2.25-4.5,2.35
		c-5.1,0.233-8.883,0.083-11.35-0.45l0.2-0.25c0.967,0,1.867-0.217,2.7-0.65l0.2-0.65c-0.233,0-0.45-0.017-0.65-0.05
		c-0.767-0.033-1.55-0.033-2.35,0c-0.967,0-1.75,0.1-2.35,0.3c-1.2,0.2-2.25,0.317-3.15,0.35h-0.4c-1.566,0-3.15-0.25-4.75-0.75
		c-0.433-0.4-0.733-0.7-0.9-0.9C0.133,17.7,0,17.333,0,16.9c0-0.433,0.067-0.75,0.2-0.95c0.133-0.2,0.2-0.25,0.2-0.15
		c0.833,0.733,2.684,1.317,5.55,1.75C8.083,17.85,10,18,11.7,18c2.1,0,3.25-0.017,3.45-0.05c2.233-0.5,3.883-0.833,4.95-1l1.1-0.6
		L18.85,18.05z M18.85,18.55h-0.3l0.8-0.2c1.3-0.4,2.533-0.934,3.7-1.6c1.133-0.667,1.784-1.2,1.95-1.6
		c-0.167,0.533-0.867,1.267-2.1,2.2C21.467,18.417,20.117,18.817,18.85,18.55z M17.5,61.3l-0.7-0.8v-0.75l0.05,0.05
		c0.5,0.367,3.15,0.934,7.95,1.7c0.9,0,1.684-0.65,2.35-1.95c0.8-1.533,1.684-2.533,2.65-3c-0.7,0.834-1.733,2.5-3.1,5
		c-0.4,0.767-1.534,1.184-3.4,1.25l-0.9-0.1c0.4-0.2,0.6-0.517,0.6-0.95C20.167,61.65,18.333,61.5,17.5,61.3z M30.8,56
		c-0.267,0.2-0.6,0.384-1,0.55l0.95-0.6L30.8,56z"/>
	<path style="fill-rule:evenodd;clip-rule:evenodd;fill:#726B63;" d="M43.1,37.05c0.667,0.267,1.934,0.784,3.801,1.55
		c2.566,1.101,5.033,1.551,7.399,1.351l-0.149-0.5c-1.067-0.4-1.75-0.7-2.051-0.9l1.75-0.25l3.351-0.5c1-0.1,1.5-0.3,1.5-0.6
		c-0.467-0.4-1.3-0.9-2.5-1.5c-1.134-0.567-1.934-0.9-2.4-1l2.75,0.3c0.733,0.3,1.316,0.583,1.75,0.85c0.3,0.167,0.617,0.3,0.95,0.4
		l0.3,0.7c-0.133,1.066-0.866,1.75-2.2,2.05l-0.1,1.1c0,0.4,0.05,0.65,0.15,0.75c0.066,0.034,0.183,0.084,0.35,0.15l0.95,0.1
		c0.6,0,1.267-0.183,2-0.55l-0.5,0.3L59.6,41.3c-2.333,0.867-3.566,1.3-3.699,1.3C55.8,42.434,55.1,42.333,53.8,42.3l-9.25-4.05
		c-0.2-0.134-0.366-0.25-0.5-0.35c-0.233-0.167-0.517-0.417-0.85-0.75C43.167,37.117,43.134,37.083,43.1,37.05z M56.1,29.75
		c-1.699,1.633-3.833,2.633-6.399,3c-2.7,0.133-4.55,0.317-5.55,0.55c3.233-1.133,5.633-1.883,7.199-2.25
		C53.217,30.617,54.8,30.183,56.1,29.75z M63.2,38.9L61.65,40c0.767-0.634,1.233-1.116,1.399-1.45h-0.1
		c-1.033,0-1.733-0.1-2.101-0.3l3.5-4l-0.25,2.6C63.8,37.85,63.5,38.533,63.2,38.9z M18.35,26.35c-1.1-0.7-2.467-1.15-4.1-1.35
		c-1.5-0.1-2.367-0.167-2.6-0.2c-1.7-0.167-3.117-0.8-4.25-1.9c1.167,0.4,2.983,0.917,5.45,1.55c2.633,0.633,4.25,0.95,4.85,0.95
		c0.5,0,1.183-0.4,2.05-1.2c-0.8-0.8-1.55-1.434-2.25-1.9l1.05,0.05c2.133-0.033,5.367-0.35,9.7-0.95l-0.3,0.65
		c-0.333,0.5-0.983,0.883-1.95,1.15c-1.6,0.4-2.583,0.667-2.95,0.8l1.3-0.1c3.733-1,5.767-1.583,6.1-1.75
		c1.033-0.533,1.55-1.533,1.55-3c0-0.333,0.134-1.066,0.4-2.2c0.233-1.167,0.35-1.917,0.35-2.25c-0.233-2.3-0.35-3.467-0.35-3.5
		c0.466,0.4,0.916,0.833,1.35,1.3l0.45,0.45c0,0.033,0.017,0.066,0.05,0.1c0.366,1.133,0.733,2.2,1.1,3.2
		c0,3.6-2.183,6.233-6.55,7.9c-2.533,0.967-4.883,1.45-7.05,1.45c-0.4,0-1.05,0.117-1.95,0.35
		C18.933,26.217,18.45,26.35,18.35,26.35z M32.2,54.5c0,3.634-0.617,6.75-1.85,9.35c-1.233,2.567-2.733,3.851-4.5,3.851
		c-0.667-0.233-1.434-0.601-2.3-1.101C22.783,65.7,22.2,65.066,21.8,64.7l-0.15-0.15c0.167,0.033,0.35,0.05,0.55,0.05
		c2.566,0.801,4.05,1.2,4.45,1.2c0.667,0,1.15-0.033,1.45-0.1L28,64.5c-3.233-0.134-5.217-0.25-5.95-0.35h0.25l0.95-0.101
		c1.333,0.5,2.85,0.3,4.55-0.6c1.867-1.033,2.8-2.483,2.8-4.351l-0.05-1.649l0.25-1.101L32.2,54.5z M18,62.4l2.95,0.55
		c-0.267,0.366-0.383,0.684-0.35,0.95c0,0.033,0.017,0.066,0.05,0.1C19.917,63.566,19.033,63.033,18,62.4z"/>
	<path style="fill-rule:evenodd;clip-rule:evenodd;fill:#6D655A;" d="M41.1,41.9c-0.199-0.334-0.416-0.817-0.649-1.45L40.3,39.5
		c0.634,0.767,1.233,1.4,1.8,1.9l-0.05,1.75l-0.5-0.5L41.1,41.9z M61.25,45.15c0.267-0.301,0.467-0.517,0.6-0.65
		c0.167-0.233,0.25-0.566,0.25-1c0-0.134-0.267-0.45-0.8-0.95c-0.6-0.6-1.166-1.017-1.7-1.25l0.601-0.45
		c0.633-0.233,1.633-0.883,3-1.949c0.3-0.367,0.6-1.05,0.899-2.05l0.15-0.7h0.05c0.3,2.867,0.45,4.55,0.45,5.05
		c0,0.967-0.184,3.149-0.55,6.55c-0.134,0-0.283,0.116-0.45,0.35c-0.333,0.434-0.533,0.667-0.6,0.7c-0.467-1.2-0.801-2-1-2.399
		l-0.2-0.15c-0.367,1.8-1.517,2.767-3.45,2.9c-0.6,0.033-1.866,0.399-3.8,1.1c-1.834,0.733-2.783,1.1-2.851,1.1
		c-0.1,0-2.267-1.033-6.5-3.1c2.233,0.333,3.717,0.333,4.45,0l-1.95-0.45c2.534,0.134,4.167,0.017,4.9-0.35
		c0.866-0.434,1.85-0.65,2.95-0.65c1.133,0,2.366,0.25,3.7,0.75c0.1,0.066,1.017-0.684,2.75-2.25L61.25,45.15z M46.9,44.5l0.3,0.3
		c0.3,0.2,0.6,0.367,0.899,0.5l-2.35-0.25c-0.733-0.267-1.3-1.033-1.7-2.3l0.65,0.55l1,0.65C46.1,44.017,46.5,44.2,46.9,44.5z
		 M35.65,26.85c0,0.933-0.117,1.5-0.351,1.7c-0.366-0.066-0.649-0.216-0.85-0.45C34.55,27.967,34.95,27.55,35.65,26.85z M29.15,33
		c0.767-0.067,2.2-0.133,4.3-0.2c1.8-0.267,2.899-1,3.3-2.2c0.767-1.833,1.3-3.167,1.6-4c0.567-1.4,0.851-2.783,0.851-4.15
		c-0.2-1.767-0.334-2.983-0.4-3.65v0.1c-0.267-1.433-0.416-2.167-0.45-2.2c-0.233-0.633-1.133-2.267-2.699-4.9
		c0.733,0.333,1.783,1.5,3.149,3.5c1.467,2.167,2.2,3.9,2.2,5.2c0,1.4-0.25,3.25-0.75,5.55c-0.467,2.067-0.884,3.5-1.25,4.3
		c-0.366,0.867-1.9,1.767-4.6,2.7c-2.434,0.833-4.134,1.217-5.101,1.15l2.2-1.25l-0.9,0.1L29.15,33z M31.65,29.7
		c0.633,0.066,1.183-0.067,1.65-0.4c0,0.633-0.434,1.184-1.3,1.65c-0.9,0.466-1.967,0.7-3.2,0.7c0.333-0.933,0.534-1.583,0.6-1.95
		H31.65z M18.15,31.15h0.75L19,31.4l-1.65-0.25H18.15z M28.6,31.5c0.1-0.7,0.167-1.267,0.2-1.7l0.25-0.05
		C28.95,30.283,28.8,30.867,28.6,31.5z M26.8,31.15l0.1,0.9c-1.5,0.2-2.35,0.3-2.55,0.3l-2.3-0.15v-1.05H26.8z M34.6,60.85
		c-0.3-0.3-0.483-0.5-0.55-0.6c-0.166-0.3-0.2-0.667-0.1-1.1C34.25,59.45,34.467,60.017,34.6,60.85z M30.6,70.15
		c1.033-0.733,1.75-1.467,2.15-2.2s0.6-1.617,0.6-2.65L33.3,63.15l-0.25,0.5c-0.133,1.1-0.6,2.116-1.4,3.05
		c-0.267,0.333-0.566,0.633-0.9,0.899c0.167-0.166,0.317-0.333,0.45-0.5c0.633-0.899,0.95-1.983,0.95-3.25
		c0.3-1.199,0.633-1.899,1-2.1c0.366-0.233,0.716-0.15,1.05,0.25c0.3,0.4,0.5,1,0.6,1.8c0.101,0.767,0.101,1.283,0,1.55
		c0.066,1.334-0.217,2.733-0.85,4.2c-0.334,0.8-0.867,1.983-1.601,3.55C32.35,72.3,31.767,71.316,30.6,70.15z M23.65,68.95L24.7,69
		l-0.35,0.15L23.65,68.95z M27.05,69.15c0.333-0.233,0.917-0.467,1.75-0.7c0.367,0,0.717-0.066,1.05-0.2
		C29.05,68.717,28.117,69.017,27.05,69.15z"/>
	<path style="fill-rule:evenodd;clip-rule:evenodd;fill:#615B54;" d="M18.35,26.35c0.1,0,0.583-0.133,1.45-0.4
		c0.9-0.233,1.55-0.35,1.95-0.35c2.167,0,4.517-0.483,7.05-1.45c4.367-1.667,6.55-4.3,6.55-7.9c-0.366-1-0.733-2.067-1.1-3.2
		c-0.033-0.033-0.05-0.066-0.05-0.1l0.5,0.6l0.1,0.1c0.434,0.867,0.767,1.833,1,2.9c0,0.034,0,0.083,0,0.15
		c0,5.066-2.649,8.25-7.95,9.55C24.283,27.117,21.117,27.15,18.35,26.35z M14.3,19l-0.95,0.35l-1.15,0.8l-0.15,0.2l-0.2,0.25
		l-0.1,0.3c-0.2,0.533-0.117,1.283,0.25,2.25c-0.767,0-1.417-0.333-1.95-1c-0.566-0.7-0.85-1.533-0.85-2.5l0.4-0.35
		c0.6-0.2,1.383-0.3,2.35-0.3C12.75,18.967,13.533,18.967,14.3,19z M13.55,23.9l-0.4,0.1c-0.433-0.133-0.816-0.417-1.15-0.85
		L13.55,23.9z"/>
</g>
</svg>
