<?xml version="1.0" encoding="iso-8859-1"?>
<!-- Generator: Adobe Illustrator 15.1.0, SVG Export Plug-In . SVG Version: 6.00 Build 0)  -->
<!DOCTYPE svg PUBLIC "-//W3C//DTD SVG 1.1//EN" "http://www.w3.org/Graphics/SVG/1.1/DTD/svg11.dtd">
<svg version="1.1" id="Layer_1" xmlns="http://www.w3.org/2000/svg" xmlns:xlink="http://www.w3.org/1999/xlink" x="0px" y="0px"
	 width="47.55px" height="71.2px" viewBox="0 0 47.55 71.2" style="enable-background:new 0 0 47.55 71.2;" xml:space="preserve">
<g>
	<path style="fill-rule:evenodd;clip-rule:evenodd;fill:#7C7367;" d="M22.1,55.3c-1.533-0.666-2.75-1.467-3.65-2.399
		c0.7,0.6,1.417,1.116,2.15,1.55L22.1,55.3z M29.9,57.1c0.433-0.166,1.267-0.5,2.5-1c1.833-0.699,2.966-1.216,3.399-1.55
		c-0.434,0.733-1.166,1.267-2.2,1.601C32.2,56.483,30.967,56.8,29.9,57.1z M45.15,50.65c-2.301-0.167-3.834-0.184-4.601-0.051
		C39.384,50.833,38.2,51.767,37,53.4c0.533-1.034,0.983-2,1.35-2.9c0.301-0.7,0.534-1.333,0.7-1.9l0.2,0.101l0.1-2.15
		c-0.033-0.233-0.133-0.517-0.3-0.85c-0.166-0.334-0.25-0.684-0.25-1.05c0-0.4,0.066-0.601,0.2-0.601c0.1-0.033,0.15-0.066,0.15-0.1
		c1.899-0.3,3-0.45,3.3-0.45c0.066,0,0.717,0.15,1.95,0.45c1.267,0.733,1.983,2.166,2.149,4.3c-0.033,0-0.2,0.25-0.5,0.75
		C45.684,49.566,45.384,50.116,45.15,50.65z M46.3,50.4l0.8-2.601c0.301-1.1,0.45-2.066,0.45-2.899
		c0.033,0.733-0.033,1.483-0.2,2.25C47.217,47.684,46.866,48.767,46.3,50.4z M21.925,14.75c-0.824,0.007-1.549,0.307-2.175,0.9
		c-0.667,0.6-1,1.333-1,2.2l-1.25-0.4l2.1,1.4c-1.2-0.4-2.55-1.517-4.05-3.35c-0.566-0.733-1.1-1.483-1.6-2.25
		c-0.267-0.533-0.483-0.967-0.65-1.3c-0.033-0.133-0.066-0.25-0.1-0.35c-0.167-0.434-0.25-0.817-0.25-1.15
		c0-0.167,0.017-0.35,0.05-0.55c0,0.033,0,0.083,0,0.15c0,0.4,0.083,0.883,0.25,1.45v-0.05c0.5-0.7,1.283-1.167,2.35-1.4
		c1.066-0.267,1.967-0.316,2.7-0.15c-0.1,2.067,0.317,3.017,1.25,2.85c0,0.567,0.25,1.05,0.75,1.45
		C20.792,14.561,21.334,14.744,21.925,14.75z M32.15,15.15l0.8-0.2l-0.9,0.75c-0.733,0.233-1.85,0.283-3.35,0.15l0.2-0.35
		C30.167,15.5,31.25,15.383,32.15,15.15z M23.65,14.75c0.899-0.067,1.55-0.217,1.949-0.45l0.15,0.65L23.65,14.75z M13,32.95
		l-2.8-0.75c0.1-0.2,0.117-0.833,0.05-1.9c0.6-1.267,1.333-1.9,2.2-1.9c0.633,0,1.2,0.15,1.7,0.45c0.733,0.467,1.117,0.7,1.15,0.7
		c-0.066,0.2-0.433,0.784-1.1,1.75C13.567,32.233,13.167,32.783,13,32.95z"/>
	<path style="fill-rule:evenodd;clip-rule:evenodd;fill:#635B52;" d="M47.55,44.9c0,0.833-0.149,1.8-0.45,2.899l-0.55,0.45
		c-0.166-2.134-0.883-3.566-2.149-4.3c-1.233-0.3-1.884-0.45-1.95-0.45c-0.3,0-1.4,0.15-3.3,0.45c0,0.033-0.051,0.066-0.15,0.1
		c-0.134,0-0.2,0.2-0.2,0.601c0,0.366,0.084,0.716,0.25,1.05c0.167,0.333,0.267,0.616,0.3,0.85l-0.1,2.15l-0.2-0.101L38,48.1
		c-0.333-0.6-0.75-1.166-1.25-1.699c-0.833-0.934-1.634-1.4-2.4-1.4s-1.6,0.434-2.5,1.3c-1,0.967-1.383,1.95-1.149,2.95
		c-3.566-1.1-5.033,0.35-4.4,4.35l-0.6-0.149c-0.367-0.3-0.767-0.967-1.2-2c-0.333-0.733-0.533-1.267-0.6-1.601l-0.351,0.2
		c-0.333,0.267-0.867,0.934-1.6,2c-0.767,1.134-1.217,1.934-1.35,2.4c-0.733-0.434-1.45-0.95-2.15-1.55c-0.5-1-0.75-1.834-0.75-2.5
		c0-0.634,0.383-1.334,1.15-2.101c0.8-0.833,1.267-2.316,1.4-4.45l0.25,1.301c0.2,1,0.433,1.816,0.7,2.449
		c0.933-1.133,2.366-1.583,4.3-1.35c1.333-0.4,1.667-3.083,1-8.05c0.467,2.566,0.783,4.833,0.95,6.8
		c1.066-0.366,3.083-1.134,6.05-2.3c2.533-0.934,4-1.4,4.4-1.4l0.6-11.7v1.1c0,0.7,0.316,2.3,0.95,4.8
		c0.767,3.066,1.25,5.15,1.45,6.25c0.699,0.134,1.883,0.366,3.55,0.7C45.884,42.884,46.917,43.7,47.55,44.9z M18.3,9.9V8.95
		c-0.4,0-1.316,0.183-2.75,0.55c-1.4,0.433-2.216,0.667-2.45,0.7c0.367-1.034,0.517-1.6,0.45-1.7V8.45l0.1-0.1
		c0.667-0.333,2.283-0.65,4.85-0.95c2.333-0.233,4.417-0.35,6.25-0.35c-0.2-0.333-0.5-0.667-0.9-1c-0.233-0.2-0.35-0.517-0.35-0.95
		c0-0.533,0.167-2.233,0.5-5.1c0.333,1.233,1.283,2.367,2.85,3.4c0.9,0.6,0.817,1.817-0.25,3.65c1.9,0.4,2.9,0.383,3-0.05
		c0.2-0.9,0.351-1.383,0.45-1.45l0.2-0.05c0.333,0.367,0.5,1.05,0.5,2.05l1.3-0.05c1,0,1.867,0.2,2.601,0.6
		c0.699,0.367,1.05,0.816,1.05,1.35L35.95,10c-0.601,0.833-1.134,1.967-1.601,3.4c-0.233,0.667-0.966,1.25-2.199,1.75
		c-0.9,0.233-1.983,0.35-3.25,0.35l-1.25-0.25l-1.051-0.4c1.534-0.4,2.45-0.667,2.75-0.8c1.634-0.566,2.684-1.233,3.15-2
		c-0.533-0.533-1.917-1.15-4.15-1.85c-2.133-0.667-3.649-1-4.55-1c-1.667,0-2.833,0.417-3.5,1.25l-0.05,0.15
		c-0.133,1.167-0.367,1.883-0.7,2.15C18.617,12.917,18.2,11.967,18.3,9.9z M10.25,30.3L10,31.15c-0.133-1.1-0.517-1.816-1.15-2.15
		C8.483,28.767,7.867,28.65,7,28.65c-1.533,0-2.783,0.184-3.75,0.55c-1.133,0.466-2.2,1.3-3.2,2.5C-0.083,29.833,0,28.733,0.3,28.4
		c0.2-0.267,1.184-0.5,2.95-0.7c2.667-0.333,4.2-0.95,4.6-1.85c0.267-0.5,0.55-1.283,0.85-2.35l0.8,4.05
		c2.267,0.167,4.567,0.25,6.9,0.25l-0.25,0.75L15.5,28.5l-0.2,1.05c-0.033,0-0.417-0.233-1.15-0.7c-0.5-0.3-1.066-0.45-1.7-0.45
		C11.583,28.4,10.85,29.033,10.25,30.3z"/>
	<path style="fill-rule:evenodd;clip-rule:evenodd;fill:#B3AA9E;" d="M47.1,47.8L46.3,50.4c-0.267,1.5-0.983,2.949-2.149,4.35
		c-1.467,1.566-2.567,2.75-3.301,3.55l-0.1-2h-0.3c0.267-0.366,1.166-1.017,2.7-1.95c1.066-0.666,1.733-1.899,2-3.699
		c0.233-0.534,0.533-1.084,0.899-1.65c0.3-0.5,0.467-0.75,0.5-0.75L47.1,47.8z M38.9,58.15c0.199,0.3,0.35,0.649,0.449,1.05
		c-0.399,0.066-1.25,0.1-2.55,0.1c-1.566,0.033-2.649,0.066-3.25,0.101c0.033-0.4-0.033-0.784-0.2-1.15
		C36.316,58.35,38.167,58.316,38.9,58.15z M24.45,57.35c0.533,0.167,1.483,0.5,2.85,1c1.267,0.4,2.4,0.584,3.4,0.551
		c0.1,0.199,0.5,0.433,1.2,0.699c-0.267,0.101-0.733,0.15-1.4,0.15C27.833,59.15,25.816,58.35,24.45,57.35z M35.85,13.3
		c-0.267,0.6-0.583,1.15-0.949,1.65V15c-0.534,0.533-2.217,1.383-5.051,2.55c-0.233,0.1-0.433,0.184-0.6,0.25
		c0.2-0.1,0.417-0.233,0.65-0.4c0.633-0.433,1.35-1,2.149-1.7l0.9-0.75L35.85,13.3z M24.8,19.3l0.9-0.65
		c0.8-0.033,1.55-0.15,2.25-0.35C26.316,18.933,25.267,19.267,24.8,19.3z M23.3,18.65l-0.25,0.75l-1.65-0.1l0.45-0.7L23.3,18.65z
		 M19.9,18.25l-0.3,0.6l-2.1-1.4l1.25,0.4L19.9,18.25z M16.15,28.55c0,2-0.65,3.7-1.95,5.1c-1.3,1.4-2.867,2.1-4.7,2.1v-1.2
		c1.067-0.267,2.233-0.8,3.5-1.6c0.167-0.167,0.567-0.717,1.2-1.65c0.667-0.966,1.033-1.55,1.1-1.75l0.2-1.05L16.15,28.55z
		 M8.4,34.7l0.15,1.1c-1.333,0.267-3-0.117-5-1.15c-1.533-0.8-2.617-1.533-3.25-2.2l0.75,0.3c1.967,0.933,3.117,1.45,3.45,1.55
		C5.333,34.567,6.633,34.7,8.4,34.7z"/>
	<path style="fill-rule:evenodd;clip-rule:evenodd;fill:#6D655A;" d="M35.8,54.55c-0.434,0.334-1.566,0.851-3.399,1.55
		c-1.233,0.5-2.067,0.834-2.5,1c-0.167,0.034-0.284,0.051-0.351,0.051c-1.467,0.133-3.166,0.183-5.1,0.149l-2.35-2l-1.5-0.85
		c0.133-0.467,0.583-1.267,1.35-2.4c0.733-1.066,1.267-1.733,1.6-2l0.351-0.2c0.066,0.334,0.267,0.867,0.6,1.601
		c0.434,1.033,0.833,1.7,1.2,2l0.6,0.149c-0.633-4,0.834-5.449,4.4-4.35c-0.233-1,0.149-1.983,1.149-2.95
		c0.9-0.866,1.733-1.3,2.5-1.3s1.567,0.467,2.4,1.4c0.5,0.533,0.917,1.1,1.25,1.699l1.05,0.5c-0.166,0.567-0.399,1.2-0.7,1.9
		c-0.366,0.9-0.816,1.866-1.35,2.9L35.8,54.55z M40.45,56.3h0.3l0.1,2C40.684,64.9,40.4,69.2,40,71.2
		c-0.134-4.334-0.35-8.334-0.65-12c-0.1-0.4-0.25-0.75-0.449-1.05C38.566,57.983,38.267,57.8,38,57.6
		c-0.533-0.366-1.033-0.899-1.5-1.6L40.45,56.3z M31.9,59.6c-0.7-0.267-1.101-0.5-1.2-0.699l-0.95-1.65
		c0.667,0.033,1.384,0.15,2.15,0.35c0.733,0.2,1.216,0.417,1.449,0.65c0.167,0.366,0.233,0.75,0.2,1.15
		c0,0.633-0.133,1.583-0.399,2.85L33.05,62.4C33.184,61.6,32.8,60.667,31.9,59.6z M32.15,15.15c1.233-0.5,1.966-1.083,2.199-1.75
		c0.467-1.433,1-2.566,1.601-3.4l0.25,0.9v0.75c-0.066,0.6-0.184,1.15-0.351,1.65l-2.899,1.65L32.15,15.15z M24.8,19.3l-1.75,1.65
		c-0.033-0.5-0.033-1.017,0-1.55l0.25-0.75l0.7-0.5c0.7-0.3,1.616-0.35,2.75-0.15l-1.05,0.65L24.8,19.3z M21.4,19.3
		c-0.433,0.867-0.717,2.167-0.85,3.9c-0.167,2.267-0.367,3.9-0.6,4.9c-0.1-0.833-0.2-2.317-0.3-4.45c-0.133-2.033-0.2-3.333-0.2-3.9
		c0-0.433,0.05-0.733,0.15-0.9l0.3-0.6c0.167-0.367,0.383-0.633,0.65-0.8c0.467-0.3,1.367-0.617,2.7-0.95l-1.4,2.1L21.4,19.3z
		 M21.925,14.75c-0.591-0.006-1.133-0.189-1.625-0.55c-0.5-0.4-0.75-0.883-0.75-1.45c0.333-0.267,0.567-0.983,0.7-2.15l0.05-0.15
		c0.667-0.833,1.833-1.25,3.5-1.25c0.9,0,2.417,0.333,4.55,1c2.233,0.7,3.617,1.316,4.15,1.85c-0.467,0.767-1.517,1.434-3.15,2
		c-0.3,0.133-1.216,0.4-2.75,0.8l1.051,0.4c-0.4,0-0.817-0.05-1.25-0.15c-0.4-0.1-0.617-0.15-0.65-0.15L25.6,14.3
		c-0.399,0.233-1.05,0.383-1.949,0.45H21.925z M13.55,8.45V8.5c0.067,0.1-0.083,0.667-0.45,1.7c0.233-0.034,1.05-0.267,2.45-0.7
		c1.434-0.367,2.35-0.55,2.75-0.55V9.9c-0.733-0.167-1.633-0.117-2.7,0.15c-1.067,0.233-1.85,0.7-2.35,1.4v0.05
		C13.083,10.933,13,10.45,13,10.05c0-0.066,0-0.117,0-0.15c0-0.333,0.05-0.583,0.15-0.75c0.067-0.1,0.133-0.2,0.2-0.3
		c0.033-0.1,0.083-0.2,0.15-0.3C13.532,8.518,13.549,8.484,13.55,8.45z M8.55,35.8L8.4,34.7l-0.75-0.85
		c0.867,0.133,1.417,0.283,1.65,0.45c-0.6,0.267-0.533,0.35,0.2,0.25v1.2L9.45,36.7l-0.5,0.649l-0.4,0.15
		c0-0.267,0.05-0.55,0.15-0.85C8.867,36.083,8.817,35.8,8.55,35.8z M10.2,32.2c-1,0.367-4.05,0.55-9.15,0.55l-0.75-0.3L0.05,31.7
		c1-1.2,2.067-2.034,3.2-2.5c0.967-0.367,2.217-0.55,3.75-0.55c0.867,0,1.483,0.117,1.85,0.35c0.633,0.333,1.017,1.05,1.15,2.15
		l0.25-0.85C10.317,31.367,10.3,32,10.2,32.2z"/>
	<path style="fill-rule:evenodd;clip-rule:evenodd;fill:#898074;" d="M30.7,58.9c-1,0.033-2.134-0.15-3.4-0.551
		c-1.366-0.5-2.316-0.833-2.85-1V57.3c1.934,0.033,3.633-0.017,5.1-0.149c0.066,0,0.184-0.017,0.351-0.051
		c1.066-0.3,2.3-0.616,3.699-0.949c1.034-0.334,1.767-0.867,2.2-1.601L37,53.4c1.2-1.634,2.384-2.567,3.55-2.801
		c0.767-0.133,2.3-0.116,4.601,0.051c-0.267,1.8-0.934,3.033-2,3.699c-1.534,0.934-2.434,1.584-2.7,1.95L36.5,56
		c0.467,0.7,0.967,1.233,1.5,1.6c0.267,0.2,0.566,0.384,0.9,0.551c-0.733,0.166-2.584,0.199-5.551,0.1
		c-0.233-0.233-0.716-0.45-1.449-0.65c-0.767-0.199-1.483-0.316-2.15-0.35L30.7,58.9z M28.9,15.5l-0.2,0.35
		c1.5,0.133,2.616,0.083,3.35-0.15c-0.8,0.7-1.517,1.267-2.149,1.7c-0.233,0.167-0.45,0.3-0.65,0.4c-0.434,0.2-0.866,0.367-1.3,0.5
		c-0.7,0.2-1.45,0.317-2.25,0.35L26.75,18c-1.134-0.2-2.05-0.15-2.75,0.15l-0.7,0.5l-1.45-0.05l1.4-2.1
		c-1.333,0.333-2.233,0.65-2.7,0.95c-0.267,0.167-0.483,0.433-0.65,0.8l-1.15-0.4c0-0.867,0.333-1.6,1-2.2
		c0.626-0.593,1.351-0.893,2.175-0.9h1.726l2.1,0.2c0.033,0,0.25,0.05,0.65,0.15c0.433,0.1,0.85,0.15,1.25,0.15L28.9,15.5z
		 M9.5,34.55c-0.733,0.1-0.8,0.017-0.2-0.25c-0.233-0.167-0.783-0.316-1.65-0.45L8.4,34.7c-1.767,0-3.066-0.133-3.9-0.4
		c-0.333-0.1-1.483-0.617-3.45-1.55c5.1,0,8.15-0.183,9.15-0.55l2.8,0.75C11.733,33.75,10.567,34.283,9.5,34.55z"/>
</g>
</svg>
