<?xml version="1.0" encoding="iso-8859-1"?>
<!-- Generator: Adobe Illustrator 15.1.0, SVG Export Plug-In . SVG Version: 6.00 Build 0)  -->
<!DOCTYPE svg PUBLIC "-//W3C//DTD SVG 1.1//EN" "http://www.w3.org/Graphics/SVG/1.1/DTD/svg11.dtd">
<svg version="1.1" id="Layer_1" xmlns="http://www.w3.org/2000/svg" xmlns:xlink="http://www.w3.org/1999/xlink" x="0px" y="0px"
	 width="89.7px" height="198.2px" viewBox="0 0 89.7 198.2" style="enable-background:new 0 0 89.7 198.2;" xml:space="preserve">
<g>
	<path style="fill-rule:evenodd;clip-rule:evenodd;fill:#7C7367;" d="M61.55,105.8c0.101-0.899,0.15-1.983,0.15-3.25
		c0-4.133,0.166-10.316,0.5-18.55c0.333-8.233,0.5-14.417,0.5-18.55l-1.5-1.8L66.6,64L63.7,63.95l-0.5,2.5
		c0,3.667-0.084,9.133-0.25,16.4c-0.167,7.267-0.25,12.717-0.25,16.35c0,0.767-0.084,2.116-0.25,4.05
		c-0.101,1.767-0.017,3.083,0.25,3.95c0.3,0.8,1.116,1.7,2.45,2.7c1.466,1.066,2.383,1.966,2.75,2.699
		c0.366,0.767,0.716,1.9,1.05,3.4c0.366,1.8,0.649,2.967,0.85,3.5c0.7-1.033,1.367-2.65,2-4.85c0.667-2.467,1.134-4.2,1.4-5.2
		l2.6-8.851c0.533-1.733,0.767-4.116,0.7-7.149c-0.2-3.367-0.3-5.8-0.3-7.3c0.066-3.433,0.1-6.017,0.1-7.75
		c0.066-3.1,0-5.683-0.2-7.75c-1.1,1.667-2,3.8-2.699,6.4c-0.267,1.067-0.717,3.35-1.351,6.85c-0.434-1-0.616-2.45-0.55-4.35
		c0.134-2.1,0.2-3.617,0.2-4.55c0.133-1.3,0.217-2.367,0.25-3.2c0.1-1.566-0.017-2.633-0.351-3.2c-0.566-1-1.716-1.7-3.449-2.1
		c-0.367-0.1-1.733-0.283-4.101-0.55c1.033,0.033,2.617,0.083,4.75,0.15c1.867,0.033,3.417-0.05,4.65-0.25
		c-0.667-0.6-1.617-1.033-2.851-1.3c1.5,0.233,4.384,0.717,8.65,1.45c3.6,0.633,6.467,1.083,8.6,1.35
		c-0.699-0.1-1.866-0.533-3.5-1.3c0.801-1.433,1.417-4.466,1.851-9.1c0.833-5.733,1.316-12.85,1.45-21.35
		c0.399,0.233,0.716,0.533,0.949,0.9c0.834,1.267,1.184,3.567,1.051,6.9c-0.067,1.8-0.217,4.133-0.45,7v21.55v78.45
		c0,1.8-0.167,3.883-0.5,6.25c-0.017,0.083-0.05,0.274-0.101,0.574c0.207-1.562,0.323-2.503,0.351-2.824l-1.75-8.45
		c0.7,5.333,0.95,9.517,0.75,12.55c-0.367,5.467-1.983,8.983-4.851,10.55c-0.133,0.066-0.449,0.184-0.949,0.351
		c-0.467,0.1-0.801,0.25-1,0.449c-0.2,0.167-0.367,0.517-0.5,1.051c-0.167,0.5-0.367,0.816-0.601,0.949
		c-0.733,0.467-1.483,0.267-2.25-0.6c-0.866-0.934-1.533-1.333-2-1.2c-0.434,0.101-0.8,0.667-1.1,1.7v-2.8l-1,6.5v1.35l-1.05,6.15
		c-0.601,0.967-0.934,1.649-1,2.05l-0.101,0.9c-0.399-0.567-0.666-1.417-0.8-2.551c-0.066-1.3-0.134-2.199-0.2-2.699
		c-0.434,0.933-0.666,2.35-0.7,4.25c-0.1,2.366-0.199,3.833-0.3,4.399c-0.1,0.533-0.333,1.417-0.7,2.65
		c-0.267,1.133-0.25,2.017,0.051,2.649h0.149c-0.267,0.034-0.5,0.101-0.7,0.2c-0.699,0.334-1.083,0.517-1.149,0.55
		c-0.566,0.267-1,0.434-1.3,0.5c-0.467,0.167-0.917,0.217-1.351,0.15c-0.899-0.134-1.6-0.684-2.1-1.65
		c-0.634-1.267-1.15-2.05-1.55-2.35c-0.767-0.6-1.634-0.95-2.601-1.05c-0.633-0.066-1.133,0.033-1.5,0.3l-0.05-0.2
		c-0.733-5.1-1.1-10.3-1.1-15.6c0.1-1.533,0.183-2.783,0.25-3.75c0.133-1.733,0.083-2.983-0.15-3.75
		c-0.333-1.033-1.134-2.617-2.4-4.75c-0.066-1.967-0.066-4.417,0-7.351c0.134-3.3,0.217-5.767,0.25-7.399
		c0.834,0.166,1.534,0.184,2.101,0.05c0.666-0.134,1.7-0.6,3.1-1.4c1.267-0.699,2.4-1.083,3.4-1.149s2.416,0.116,4.25,0.55
		c0.934,2,1.583,3.95,1.95,5.85l-0.051,0.9l-0.649,1.2c0,0.7,0.083,1.883,0.25,3.55c0.066,1.533-0.017,2.684-0.25,3.45l-0.101,0.2
		l-0.85,1.1c-0.967-0.2-1.5-0.3-1.6-0.3c-0.434-0.033-1.034,0.05-1.801,0.25c-0.767,0.233-1.366,0.333-1.8,0.3
		c-0.399,0-1.017-0.1-1.85-0.3c-0.8-0.167-1.434-0.25-1.9-0.25c0.767,0.5,1.816,0.833,3.15,1c1.767,0.267,2.85,0.45,3.25,0.55
		c0.899,0.267,1.684,0.783,2.35,1.55L66.9,165.9c1.166,1.433,1.899,2.283,2.199,2.55c0.067-0.3,0.184-1.351,0.351-3.15v-0.05
		l0.2,0.8c0.166,0.434,0.283,0.816,0.35,1.15c0.066,0.133,0.467,0.217,1.2,0.25c1.066,0.033,1.717-0.9,1.95-2.8
		c0.033-2.233,0.05-3.667,0.05-4.301c0.066-2.133,0.1-3.216,0.1-3.25c0.2-0.533,0.967-0.949,2.3-1.25
		c0.434-0.1,1.284-0.333,2.551-0.699c1.066-0.301,1.916-0.5,2.55-0.601c0.5-0.066,1.316-0.083,2.45-0.05
		c1.066,0.033,1.883,0,2.449-0.1l0.65-2.45c-0.533-0.467-1.384-0.834-2.55-1.101c-1.334-0.199-2.25-0.366-2.75-0.5
		c-1.367-0.399-2.4-0.699-3.101-0.899c-1.233-0.334-2.283-0.5-3.149-0.5H70.6l-0.6-0.5l0.2-2.5l-0.05,1.399
		c1.133,0.233,2.316,0.434,3.55,0.601l1,1c0.267-0.4,0.649-0.634,1.149-0.7c2.634,0.3,6,0.55,10.101,0.75
		c-0.533-0.066-1.217-0.333-2.05-0.8c-1.233-0.7-1.95-1.084-2.15-1.15l-3.45-0.899c0.601-0.967,1-2.534,1.2-4.7
		c0.066-0.8,0.134-2.351,0.2-4.65c0.399-13.233,0.566-23.184,0.5-29.85L78.35,118.6c0.233-5.267,0.334-8.767,0.301-10.5
		c-0.067-4-0.517-7.35-1.351-10.05c-1.1,9.066-1.649,15.75-1.649,20.05c0.033,1.9,0.116,4.784,0.25,8.65
		c0.066,3.467,0,6.35-0.2,8.65c-0.101,1.066-0.434,2.616-1,4.649c-0.101,0.566-0.217,1.367-0.351,2.4
		c-0.166,0.899-0.366,1.55-0.6,1.95c-1.667-0.667-3.05-1.101-4.15-1.301c-3-0.566-5.3-1.267-6.899-2.1
		c-0.434-0.233-1.117-0.684-2.05-1.35c-0.867-0.667-1.567-1.117-2.101-1.351c-0.267-0.133-0.934-0.3-2-0.5
		c-0.866-0.166-1.5-0.434-1.899-0.8c-0.367-0.267-0.767-0.783-1.2-1.55c-0.2-3.3-0.3-4.983-0.3-5.05l-0.2-3.7
		c0.467-1.934,0.717-3.617,0.75-5.05c0.033-1.5,0.083-2.634,0.149-3.4c0.101-1.233,0.334-2.316,0.7-3.25
		c0.533-1.267,1.55-2.134,3.05-2.6c1.634-0.534,2.667-1.167,3.101-1.9C61.267,109.533,61.55,107.967,61.55,105.8z M53.45,198.2
		c0.533-0.005,0.983-0.021,1.35-0.05c1-0.067,1.617-0.301,1.851-0.7C56.384,197.983,55.316,198.233,53.45,198.2z M53.75,44.1
		c0.366,0.533,0.884,0.85,1.55,0.95c0.7,0.167,1.3-0.017,1.8-0.55c0.301-0.333,0.483-1.4,0.551-3.2c0.066-1.933,0.116-3.1,0.149-3.5
		c0.334-3.3,0.634-5.767,0.9-7.4c0.399-2.733,0.517-5.8,0.35-9.2c-0.066-1.467-0.35-4.55-0.85-9.25L54,30.55
		c0.1-6.813,0.149-13.646,0.15-20.5V10c0-0.233-0.017-0.533-0.051-0.9c-0.066-0.533-0.033-0.917,0.101-1.15
		c0.566-0.9,2.833-1.167,6.8-0.8l-0.1,1.3c0,3.933,0.133,9.983,0.399,18.15c0.167,7.3-0.017,13.283-0.55,17.95
		c-0.1,1.133-0.167,2.867-0.2,5.2c0,2.333-0.066,4.05-0.2,5.15L59.7,56.95c-0.3,0.9-0.684,1.633-1.15,2.2
		c-1.566,0.133-2.666,0.167-3.3,0.1C54.55,59.183,53.8,59,53,58.7c0-4.467,0.1-7.583,0.3-9.35c0.267-2,0.4-3.067,0.4-3.2L53.75,44.1
		z M78.9,30.9c-0.034-0.133-0.051-0.267-0.051-0.4c-0.033-0.267-0.05-0.5-0.05-0.7C78.833,30.133,78.866,30.5,78.9,30.9z M63.3,7.45
		c0.7,0.066,1.434,0.167,2.2,0.3c-0.066,0.633-0.167,1.2-0.3,1.7l-1.05,2.9l-0.051,0.1c-0.233,0.733-0.366,1.4-0.399,2
		c-0.167,1.7-0.283,3.617-0.351,5.75l-0.1,3.35c0,2.667,0.066,6.483,0.2,11.45c0.166,4.867,0.25,8.5,0.25,10.9
		c0.1-3.4,1.066-8.117,2.899-14.15c1.967-6.467,3-11.333,3.101-14.6c0.1,1.6,0.033,3.833-0.2,6.7c-0.233,3.267-0.35,5.5-0.35,6.7
		c0,2.733-0.134,7.217-0.4,13.45c0.033,5.5,0.816,9.85,2.35,13.05c0.301-3.133,0.483-6.75,0.551-10.85
		c0.033-1.467,0.05-5.1,0.05-10.9c0-4.133-0.384-7.733-1.15-10.8c-0.333-1.4-0.533-2.75-0.6-4.05c-0.101-1.8,0.116-3.117,0.649-3.95
		c0.301-0.467,0.801-0.9,1.5-1.3c0.934-0.534,1.5-0.883,1.7-1.05c0.167,1.667,0.617,3.85,1.351,6.55c0.966,3.667,1.5,5.783,1.6,6.35
		c0.634,2.7,1.017,5.35,1.15,7.95c0.133,2.767,0.133,6.8,0,12.1v5l-0.2,2.35l0.2,0.4v1.2c0,2.633-0.15,4.684-0.45,6.15
		c-0.3,0.3-0.684,0.566-1.15,0.8l-1.1-0.4c-3.233-0.9-5.634-1.667-7.2-2.3c-1.5-0.6-3.134-1-4.9-1.2
		c0.267-2.033,0.301-4.934,0.101-8.7v-2.9C63,37.767,62.967,30.45,63.1,25.55L63,26.7L63.3,7.45z M74.45,13.35
		c-0.413-0.784-0.805-1.476-1.175-2.075c0.169,0.259,0.344,0.534,0.524,0.825c0.353,0.635,0.678,1.26,0.976,1.875
		C74.673,13.773,74.564,13.565,74.45,13.35z M81.8,65l-2.1-0.65l0.149-0.05c0.7-0.433,1.101-1.75,1.2-3.95
		c0-0.434-0.033-1.917-0.1-4.45c-0.033-2.8,0.033-6.333,0.2-10.6c0.199-6.3,0.3-9.85,0.3-10.65c-0.733-0.167-1.283-0.433-1.65-0.8
		c0.601,0.566,2.084,0.883,4.45,0.95c0.3,0,0.583,0.017,0.85,0.05c-1.033-0.033-1.8-0.067-2.3-0.1l-0.6,0.7
		c0,2.5-0.117,7.183-0.351,14.05c-0.199,5.867-0.25,10.533-0.149,14C81.7,64.167,81.733,64.667,81.8,65z M81.25,67.4
		c-2.333-0.7-4.167-1-5.5-0.9c0.467,0.667,1.05,1.2,1.75,1.6c0.233,0.133,0.983,0.467,2.25,1c0.833,0.333,2.366,0.95,4.6,1.85
		c2.034,0.733,3.65,1.066,4.851,1l-2.5-3.5C85.467,68.483,83.65,68.133,81.25,67.4z M30.2,23.45l1.5-4c0,4.2,0.167,10.45,0.5,18.75
		c0.333,8.3,0.5,14.566,0.5,18.8v19.35c0,2.3,0,3.483,0,3.55c-0.067,1.3-0.284,2.45-0.65,3.45c-0.566,1.5-0.9,2.45-1,2.85
		c-0.2,0.733-0.316,1.533-0.35,2.4c0-7.333-0.083-18.067-0.25-32.2C30.283,41.8,30.2,30.817,30.2,23.45z M16.7,76.45
		c0.2,2.533,0.233,5.9,0.1,10.1l-0.1,5.05v-3.15c-0.034-0.8-0.167-1.817-0.4-3.05c-0.3-1.566-0.483-2.583-0.55-3.05l-0.1-0.8
		c-0.267-3.433-0.417-7.5-0.45-12.2c0-5.467,0-9.567,0-12.3c0-2.167,0.1-4.65,0.3-7.45c0.267-3.233,0.467-5.7,0.6-7.4l0.1-0.9
		c0.1-1.167,0.183-1.867,0.25-2.1c0.133-0.567,0.433-1.017,0.9-1.35c0.3-0.233,0.75-0.483,1.35-0.75c0.5-0.2,1.517-0.533,3.05-1
		c1.267-0.367,2.25-0.75,2.95-1.15l1.95,0.5c-1.066,0.133-2.35,0.917-3.85,2.35c-1.167,1.167-2.167,2.4-3,3.7
		c-0.9,1.367-1.45,2.683-1.65,3.95c-0.2,1.333-0.35,3.35-0.45,6.05c-0.067,0.667-0.2,1.267-0.4,1.8c-0.133,0.3-0.383,0.85-0.75,1.65
		c-0.367,1-0.533,2.383-0.5,4.15c0,0.967,0.05,2.383,0.15,4.25c0,4.566,0.083,8,0.25,10.3L16.7,76.45z M11.8,100.7
		c-0.133-0.367-0.167-0.733-0.1-1.1c0.133-0.5,0.566-0.867,1.3-1.1c0.467-0.167,1.233-0.3,2.3-0.4l1.3-0.15c1.1-0.167,1.8-0.5,2.1-1
		l5.75-0.8c-0.2,0.133-0.417,0.417-0.65,0.85c-0.233,0.433-0.483,0.733-0.75,0.9c-0.3,0.2-0.683,0.317-1.15,0.35
		c-0.633,0.033-1.033,0.083-1.2,0.15c-1.767,0.867-3.2,1.5-4.3,1.9c-2.033,0.8-3.566,0.967-4.6,0.5V100.7z M26.65,123.75l-0.2-1.35
		c-0.467-2.801-0.784-4.917-0.95-6.351c-0.233-1.934-0.35-3.583-0.35-4.95c0-3.699,0.1-6.233,0.3-7.6c0.367-2.833,1.267-5.167,2.7-7
		l0.05-0.05l5-2.5c-0.567,1.633-0.95,3.683-1.15,6.149c-0.133,1.4-0.267,3.5-0.4,6.301c-0.3,3.233-0.417,7.017-0.35,11.35
		c0.034,2.066,0.167,5.833,0.4,11.3c-0.6-6.967-1.034-12.217-1.3-15.75c-0.433-6.133-0.667-11.383-0.7-15.75
		c-0.5,1.434-0.784,3.117-0.85,5.05c-0.067,1.134-0.117,2.884-0.15,5.25c-0.534,7.9-0.7,18.584-0.5,32.051
		c-0.2-1.801-0.367-4.284-0.5-7.45C27.633,130.283,27.283,127.384,26.65,123.75z M24.65,96.1l-0.2,0.05l0.2-0.15
		c0.233-0.1,0.583-0.117,1.05-0.05L24.65,96.1z M5.6,67.1c-0.7,2.467-1,4.6-0.9,6.4c-0.267-3.433-0.417-6.433-0.45-9
		c0-4.033,0.35-7.1,1.05-9.2c0.9-2.6,2.367-3.883,4.4-3.85l2,0.5C10.767,52.55,9.867,54,9,56.3c-0.367,0.9-0.933,2.633-1.7,5.2
		C6.933,62.733,6.367,64.6,5.6,67.1z M60.25,86c-0.5,2.267-0.816,5.083-0.95,8.45c-0.033,0.7-0.066,3.45-0.1,8.25
		c-0.033,1.866-0.15,3.083-0.351,3.649c-0.366,1.167-1.25,1.884-2.649,2.15c-1,0.167-2.367-0.15-4.101-0.95
		c0.367-2.366,0.567-5.166,0.601-8.4c0-3.733,0-6.533,0-8.4l-0.05-1.4c0.133,0.233,0.466,0.633,1,1.2c0.5,0.5,0.816,0.967,0.949,1.4
		c0.2,0.633,0.434,2.1,0.7,4.4c0.434-0.633,0.7-1.9,0.8-3.8c0.034-2.1,0.101-3.483,0.2-4.15c0.267-2.133,0.934-4.733,2-7.8
		c0.7-2,1.066-4.5,1.101-7.5c-0.134-3.434-0.2-5.983-0.2-7.65l-1.3-1.95l2.3,0.1L60.25,86z M64.7,117.95
		c-1.2-0.101-2.15-0.184-2.851-0.25c-1.267-0.101-2.149-0.033-2.649,0.2c-1.467,0.633-2.316,2.449-2.55,5.449
		c-0.134,1.534-0.134,2.601,0,3.2c0.233,1.101,0.899,1.767,2,2c1.3,0.267,2.649-0.517,4.05-2.35c0.767-1,1.767-2.417,3-4.25
		L64.7,117.95z M14.9,155.1c-0.267,3.301-0.683,6.367-1.25,9.2c0.1-2.866,0.133-6.416,0.1-10.649
		c-0.033-4.733-0.05-8.284-0.05-10.65v-8.3v-2.95c0-6.3-0.35-12.634-1.05-19c-0.167-1.366-0.283-2.417-0.35-3.15
		c-0.133-1.233-0.167-2.283-0.1-3.149l4-4c0,9.7-0.184,22.1-0.55,37.2C15.517,146.116,15.267,151.267,14.9,155.1z M31.7,131.95
		l2,0.5l-0.05,7.7c-0.033,3.1-0.017,5.666,0.05,7.699c-0.9-2.3-1.483-4.883-1.75-7.75C31.783,138.467,31.7,135.75,31.7,131.95z
		 M64.2,148.95c-2.767,0.066-4.3,0.1-4.601,0.1c-1.866,0.167-3.216,0.601-4.05,1.3c-0.934,0.801-1.467,2.4-1.6,4.801
		c-0.134,2.533,0.55,3.8,2.05,3.8c0.267-0.7,0.35-1.75,0.25-3.15c-0.1-1.566-0.1-2.649,0-3.25c0.366-0.1,0.9-0.267,1.6-0.5
		c0.634-0.133,1.184-0.149,1.65-0.05c0.634,1.866,1.217,3.167,1.75,3.9c1.033,1.433,2.333,1.949,3.9,1.55
		c0-1.5,0.183-2.667,0.55-3.5L64.2,148.95z M65.95,167.5c-3.033-1.066-5.167-1.25-6.4-0.55c-1.066,0.6-1.633,2.333-1.7,5.2
		c-0.033,1.6,0.067,3.833,0.301,6.699c0.133-0.6,0.533-1,1.199-1.199c0.601-0.2,1.233-0.2,1.9,0c0.233,0.066,0.7,0.366,1.4,0.899
		c0.5,0.367,1.017,0.517,1.55,0.45c1.133-0.167,1.967-1.184,2.5-3.05l5-6C69.467,168.917,67.55,168.1,65.95,167.5z M86.45,107.6
		c0.733-0.433,0.983-1.149,0.75-2.149h-6v16.45c0,1.399-0.084,3.566-0.25,6.5c-0.066,2.666,0.05,4.816,0.35,6.449
		c1.267-2.866,2.101-6.233,2.5-10.1c0.267-2.366,0.4-5.85,0.4-10.45c-0.101-1.2-0.15-2.149-0.15-2.85
		c-0.033-1.267,0.134-2.15,0.5-2.65C84.65,108.667,85.283,108.267,86.45,107.6z"/>
	<path style="fill-rule:evenodd;clip-rule:evenodd;fill:#898074;" d="M87.65,35.6c-0.134,8.5-0.617,15.617-1.45,21.35
		c-0.434,4.633-1.05,7.667-1.851,9.1c-0.199,0.367-0.433,0.55-0.699,0.55c-1,0.033-1.617-0.5-1.851-1.6
		c-0.066-0.333-0.1-0.833-0.1-1.5c-0.101-3.467-0.05-8.133,0.149-14c0.233-6.867,0.351-11.55,0.351-14.05l0.6-0.7
		c0.5,0.033,1.267,0.067,2.3,0.1c0.101,0,0.2,0,0.301,0c0.966,0.1,1.716,0.333,2.25,0.7V35.6z M73.275,11.275
		c0.37,0.599,0.762,1.291,1.175,2.075l-0.65,0.8c-0.2,0.167-0.767,0.517-1.7,1.05c-0.699,0.4-1.199,0.833-1.5,1.3
		c-0.533,0.833-0.75,2.15-0.649,3.95c0.066,1.3,0.267,2.65,0.6,4.05c0.767,3.067,1.15,6.667,1.15,10.8c0,5.8-0.017,9.434-0.05,10.9
		c-0.067,4.1-0.25,7.716-0.551,10.85c-1.533-3.2-2.316-7.55-2.35-13.05c0.267-6.233,0.4-10.717,0.4-13.45
		c0-1.2,0.116-3.433,0.35-6.7c0.233-2.867,0.3-5.1,0.2-6.7c-0.101,3.267-1.134,8.133-3.101,14.6C64.767,37.783,63.8,42.5,63.7,45.9
		c0-2.4-0.084-6.033-0.25-10.9c-0.134-4.967-0.2-8.783-0.2-11.45l0.1-3.35c0.067-2.133,0.184-4.05,0.351-5.75
		c0.033-0.6,0.166-1.267,0.399-2l0.051-0.1l1.05-2.9c0.133-0.5,0.233-1.067,0.3-1.7V7.7l0.75,0.15c0.4,0.066,1.167,0.133,2.3,0.2
		c1.033,0.133,1.75,0.3,2.15,0.5c0.233,0.1,0.483,0.267,0.75,0.5L72.6,10.3c0.062,0.083,0.12,0.167,0.176,0.25L73.275,11.275z
		 M81.25,67.4c2.4,0.733,4.217,1.083,5.45,1.05l2.5,3.5c-1.2,0.066-2.816-0.267-4.851-1c-2.233-0.9-3.767-1.517-4.6-1.85
		c-1.267-0.533-2.017-0.867-2.25-1c-0.7-0.4-1.283-0.934-1.75-1.6C77.083,66.4,78.917,66.7,81.25,67.4z M53.75,44.1l-0.1-0.1
		c-0.334-0.533-0.434-1.783-0.301-3.75c0.233-2.067,0.351-3.367,0.351-3.9v-4.4l0.3-1.4l4.2-18.6c0.5,4.7,0.783,7.783,0.85,9.25
		c0.167,3.4,0.05,6.466-0.35,9.2c-0.267,1.633-0.566,4.1-0.9,7.4c-0.033,0.4-0.083,1.567-0.149,3.5c-0.067,1.8-0.25,2.867-0.551,3.2
		c-0.5,0.533-1.1,0.717-1.8,0.55C54.634,44.95,54.116,44.633,53.75,44.1z M66.6,64c1.567,0.067,2.9,0.25,4,0.55
		c1.233,0.267,2.184,0.7,2.851,1.3c-1.233,0.2-2.783,0.283-4.65,0.25c-2.133-0.067-3.717-0.117-4.75-0.15
		c2.367,0.267,3.733,0.45,4.101,0.55c1.733,0.4,2.883,1.1,3.449,2.1c0.334,0.566,0.45,1.633,0.351,3.2
		c-0.033,0.833-0.117,1.9-0.25,3.2c0,0.933-0.066,2.45-0.2,4.55c-0.066,1.9,0.116,3.35,0.55,4.35c0.634-3.5,1.084-5.783,1.351-6.85
		c0.699-2.6,1.6-4.733,2.699-6.4c0.2,2.067,0.267,4.65,0.2,7.75c0,1.733-0.033,4.317-0.1,7.75c0,1.5,0.1,3.934,0.3,7.3
		c0.066,3.033-0.167,5.417-0.7,7.149l-2.6,8.851c-0.267,1-0.733,2.733-1.4,5.2c-0.633,2.199-1.3,3.816-2,4.85
		c-0.2-0.533-0.483-1.7-0.85-3.5c-0.334-1.5-0.684-2.634-1.05-3.4c-0.367-0.733-1.284-1.633-2.75-2.699c-1.334-1-2.15-1.9-2.45-2.7
		c-0.267-0.867-0.351-2.184-0.25-3.95c0.166-1.934,0.25-3.283,0.25-4.05c0-3.633,0.083-9.083,0.25-16.35
		c0.166-7.267,0.25-12.733,0.25-16.4l0.5-2.5L66.6,64z M52.65,89.35c-0.634-1.2-0.884-3.133-0.75-5.8
		c0.166-3.533,0.216-5.583,0.149-6.15c-0.399-3.233-0.666-5.683-0.8-7.35c-0.267-2.9-0.267-5.4,0-7.5l1.65-0.2
		c0.966-0.033,2.399,0,4.3,0.1l0.7,1.05l1.3,1.95c0,1.667,0.066,4.216,0.2,7.65c-0.034,3-0.4,5.5-1.101,7.5
		c-1.066,3.066-1.733,5.667-2,7.8c-0.1,0.667-0.166,2.05-0.2,4.15c-0.1,1.9-0.366,3.167-0.8,3.8c-0.267-2.3-0.5-3.767-0.7-4.4
		c-0.133-0.434-0.449-0.9-0.949-1.4C53.116,89.983,52.783,89.583,52.65,89.35z M64.7,117.95l1,4c-1.233,1.833-2.233,3.25-3,4.25
		c-1.4,1.833-2.75,2.616-4.05,2.35c-1.101-0.233-1.767-0.899-2-2c-0.134-0.6-0.134-1.666,0-3.2c0.233-3,1.083-4.816,2.55-5.449
		c0.5-0.233,1.383-0.301,2.649-0.2C62.55,117.767,63.5,117.85,64.7,117.95z M70.6,148.95H74.7c0.866,0,1.916,0.166,3.149,0.5
		c0.7,0.2,1.733,0.5,3.101,0.899c0.5,0.134,1.416,0.301,2.75,0.5c1.166,0.267,2.017,0.634,2.55,1.101l-0.65,2.45
		c-0.566,0.1-1.383,0.133-2.449,0.1c-1.134-0.033-1.95-0.017-2.45,0.05c-0.634,0.101-1.483,0.3-2.55,0.601
		c-1.267,0.366-2.117,0.6-2.551,0.699c-1.333,0.301-2.1,0.717-2.3,1.25c0,0.034-0.033,1.117-0.1,3.25
		c0,0.634-0.017,2.067-0.05,4.301c-0.233,1.899-0.884,2.833-1.95,2.8c-0.733-0.033-1.134-0.117-1.2-0.25
		c-0.066-0.334-0.184-0.717-0.35-1.15l-0.2-0.8c-0.233-1.033-0.267-2.6-0.101-4.7c0.233-2.8,0.351-4.3,0.351-4.5v-7.1H70.6z
		 M64.2,148.95l1.5,5c-0.367,0.833-0.55,2-0.55,3.5c-1.567,0.399-2.867-0.117-3.9-1.55c-0.533-0.733-1.116-2.034-1.75-3.9
		c-0.467-0.1-1.017-0.083-1.65,0.05c-0.699,0.233-1.233,0.4-1.6,0.5c-0.1,0.601-0.1,1.684,0,3.25c0.1,1.4,0.017,2.45-0.25,3.15
		c-1.5,0-2.184-1.267-2.05-3.8c0.133-2.4,0.666-4,1.6-4.801c0.834-0.699,2.184-1.133,4.05-1.3
		C59.9,149.05,61.434,149.017,64.2,148.95z M65.95,167.5c1.6,0.6,3.517,1.417,5.75,2.45l-5,6c-0.533,1.866-1.367,2.883-2.5,3.05
		c-0.533,0.066-1.05-0.083-1.55-0.45c-0.7-0.533-1.167-0.833-1.4-0.899c-0.667-0.2-1.3-0.2-1.9,0
		c-0.666,0.199-1.066,0.6-1.199,1.199c-0.233-2.866-0.334-5.1-0.301-6.699c0.067-2.867,0.634-4.601,1.7-5.2
		C60.783,166.25,62.917,166.434,65.95,167.5z M86.45,107.6c-1.167,0.667-1.8,1.067-1.9,1.2c-0.366,0.5-0.533,1.384-0.5,2.65
		c0,0.7,0.05,1.649,0.15,2.85c0,4.601-0.134,8.084-0.4,10.45c-0.399,3.866-1.233,7.233-2.5,10.1c-0.3-1.633-0.416-3.783-0.35-6.449
		c0.166-2.934,0.25-5.101,0.25-6.5v-16.45h6C87.434,106.45,87.184,107.167,86.45,107.6z"/>
	<path style="fill-rule:evenodd;clip-rule:evenodd;fill:#72695E;" d="M88.6,157.225l-0.949,5.726
		c-0.134,0.899-0.233,2.133-0.301,3.7c-0.199,1.267-0.783,2.199-1.75,2.8c-2.366,1.166-4.05,2.066-5.05,2.7
		c-1.7,1.066-2.934,2.517-3.7,4.35c-0.566,1.333-1.017,3.167-1.35,5.5c-0.5,3.634-0.767,5.5-0.8,5.6
		c-0.033,0.2-0.351,1.317-0.95,3.351c-0.366,1.366-0.566,2.517-0.6,3.45c-0.434,0.066-1.017,0.083-1.75,0.05
		c-0.834-0.033-1.417-0.033-1.75,0c-0.233,0.033-0.434,0.083-0.601,0.149H68.9c-0.301-0.633-0.317-1.517-0.051-2.649
		c0.367-1.233,0.601-2.117,0.7-2.65c0.101-0.566,0.2-2.033,0.3-4.399c0.034-1.9,0.267-3.317,0.7-4.25
		c0.066,0.5,0.134,1.399,0.2,2.699c0.134,1.134,0.4,1.983,0.8,2.551c-0.033,0.899,0.05,1.883,0.25,2.949
		c0.4-0.833,0.767-2.149,1.101-3.949c0.433-2.334,0.699-3.7,0.8-4.101c0.6-2.1,0.934-5.116,1-9.05c0.3-1.033,0.666-1.6,1.1-1.7
		c0.467-0.133,1.134,0.267,2,1.2c0.767,0.866,1.517,1.066,2.25,0.6c0.233-0.133,0.434-0.449,0.601-0.949
		c0.133-0.534,0.3-0.884,0.5-1.051c0.199-0.199,0.533-0.35,1-0.449c0.5-0.167,0.816-0.284,0.949-0.351
		c2.867-1.566,4.483-5.083,4.851-10.55c0.2-3.033-0.05-7.217-0.75-12.55l1.75,8.45C88.923,154.722,88.807,155.663,88.6,157.225z
		 M69.45,165.3c-0.167,1.8-0.283,2.851-0.351,3.15c-0.3-0.267-1.033-1.117-2.199-2.55c0.433,0.333,1.033,0.333,1.8,0
		C69,165.767,69.25,165.566,69.45,165.3z M66.55,165.55c-0.666-0.767-1.45-1.283-2.35-1.55c-0.4-0.1-1.483-0.283-3.25-0.55
		c-1.334-0.167-2.384-0.5-3.15-1c0.467,0,1.101,0.083,1.9,0.25c0.833,0.2,1.45,0.3,1.85,0.3c0.434,0.033,1.033-0.066,1.8-0.3
		c0.767-0.2,1.367-0.283,1.801-0.25c0.1,0,0.633,0.1,1.6,0.3l-0.1,0.2C66.184,163.917,66.15,164.783,66.55,165.55z M70,148.45
		l-2.3-2c0.733,1,0.967,2.967,0.7,5.899c-0.367-1.899-1.017-3.85-1.95-5.85c-1.834-0.434-3.25-0.616-4.25-0.55
		s-2.134,0.45-3.4,1.149c-1.399,0.801-2.434,1.267-3.1,1.4c-0.566,0.134-1.267,0.116-2.101-0.05c-0.033,1.633-0.116,4.1-0.25,7.399
		c-0.066,2.934-0.066,5.384,0,7.351c1.267,2.133,2.067,3.717,2.4,4.75c0.233,0.767,0.283,2.017,0.15,3.75
		c-0.067,0.967-0.15,2.217-0.25,3.75c0,5.3,0.366,10.5,1.1,15.6l0.05,0.2c-0.267,0.134-0.483,0.384-0.649,0.75
		c-0.2,0.533-0.117,1.467,0.25,2.8c0.366,1.334,0.449,2.217,0.25,2.65c-0.233,0.399-0.851,0.633-1.851,0.7
		c-0.366,0.028-0.816,0.045-1.35,0.05c-0.101,0-0.2,0-0.3,0c-0.334-0.033-0.717-0.066-1.15-0.101c-0.533-0.033-0.95-0.066-1.25-0.1
		l-0.7-0.05c-2.399,0.066-4.3,0.1-5.7,0.1l-0.149-5.1c0.1-3.533,0.066-6.167-0.101-7.9c0.534,1.467,1.551,3.066,3.051,4.8
		c0.033-0.333,0.05-1.966,0.05-4.899c0-1.033,0.116-3.25,0.35-6.65c0.233-2.767,0.25-4.967,0.05-6.6c-0.6,0.267-1.066,0.8-1.399,1.6
		c-0.3,0.667-0.467,1.417-0.5,2.25v-6.399c0.066-2.467,0.267-4.601,0.6-6.4c0.3-1.3,0.5-2.233,0.601-2.8
		c0.199-1.033,0.3-1.983,0.3-2.851c0-1.233-0.25-3.583-0.75-7.05c-0.4-2.833-0.483-5.133-0.25-6.899
		c0.133-0.867,0.267-1.534,0.399-2c0.334-1.334,0.534-2.934,0.601-4.801V114.9c0.133-3.733,0.217-6.551,0.25-8.45
		c0.1-3.467,0.017-6.283-0.25-8.45c-0.134-0.967-0.533-2.317-1.2-4.05c-0.7-1.833-1.116-3.184-1.25-4.05
		c-0.134-0.7-0.184-1.583-0.15-2.65c0.067-1.2,0.101-2.083,0.101-2.65v-4.5c-0.066-0.533-0.233-1.184-0.5-1.95
		c-0.2-0.533-0.333-0.967-0.4-1.3c-0.2-7.9-0.283-13.684-0.25-17.35c0.034-5.3,0.117-12.267,0.25-20.9
		c0.167-10.867,0.267-17.85,0.3-20.95c-0.066,0-0.133-0.017-0.2-0.05c1.133,0.167,2.117,0.167,2.95,0
		c1.834-0.4,3.534-1.633,5.101-3.7c1.233-1.733,1.95-2.917,2.149-3.55c0.029-0.059,0.046-0.158,0.051-0.3
		C54.149,16.903,54.1,23.737,54,30.55l-0.3,1.4v4.4c0,0.533-0.117,1.833-0.351,3.9c-0.133,1.967-0.033,3.217,0.301,3.75l0.1,0.1
		l-0.05,2.05c0,0.133-0.134,1.2-0.4,3.2c-0.2,1.767-0.3,4.883-0.3,9.35c0.8,0.3,1.55,0.483,2.25,0.55
		c0.634,0.067,1.733,0.033,3.3-0.1c-0.5,0.533-1.2,0.883-2.1,1.05c-1.233,0.1-2.283,0.233-3.15,0.4c1.5,0.733,3.351,1.033,5.55,0.9
		c0.367,0,0.65-0.017,0.851-0.05c1.2-0.1,1.983-0.467,2.35-1.1c0.101-0.233,0.316-1.2,0.65-2.9c0.333-1.9,0.5-4.25,0.5-7.05
		c0.2,3.767,0.166,6.667-0.101,8.7c1.767,0.2,3.4,0.6,4.9,1.2c1.566,0.633,3.967,1.4,7.2,2.3l1.1,0.4
		c-0.767,0.533-1.116,1.167-1.05,1.9c1.3,0.233,2.3,0,3-0.7c0.9-0.867,1.384-2.667,1.45-5.4c0.1-3.466,0.133-7.65,0.1-12.55
		c-0.033-5.567-0.066-9.733-0.1-12.5c0.033,0.033,0.066,0.067,0.1,0.1c0.367,0.367,0.917,0.633,1.65,0.8c0,0.8-0.101,4.35-0.3,10.65
		c-0.167,4.267-0.233,7.8-0.2,10.6c0.066,2.533,0.1,4.017,0.1,4.45c-0.1,2.2-0.5,3.517-1.2,3.95L79.7,64.35L81.8,65
		c0.233,1.1,0.851,1.633,1.851,1.6c0.267,0,0.5-0.184,0.699-0.55c1.634,0.767,2.801,1.2,3.5,1.3c-2.133-0.267-5-0.717-8.6-1.35
		c-4.267-0.733-7.15-1.217-8.65-1.45c-1.1-0.3-2.433-0.483-4-0.55L61.2,63.65l-1-1.2v1.15l-2.3-0.1l-0.7-1.05
		c-1.9-0.1-3.334-0.133-4.3-0.1l-1.65,0.2c-0.267,2.1-0.267,4.6,0,7.5c0.134,1.667,0.4,4.117,0.8,7.35
		c0.066,0.567,0.017,2.617-0.149,6.15c-0.134,2.667,0.116,4.6,0.75,5.8l0.05,1.4c0,1.867,0,4.667,0,8.4
		c-0.033,3.234-0.233,6.034-0.601,8.4c1.733,0.8,3.101,1.117,4.101,0.95c1.399-0.267,2.283-0.983,2.649-2.15
		c0.2-0.566,0.317-1.783,0.351-3.649c0.033-4.8,0.066-7.55,0.1-8.25c0.134-3.367,0.45-6.184,0.95-8.45
		c0.134,3.567,0.116,6.217-0.05,7.95c-0.167,1.7-0.334,4.233-0.5,7.6c-0.233,2.834-0.533,4.816-0.9,5.95
		c-0.1,0.333-0.383,0.884-0.85,1.65c-0.4,0.666-0.634,1.199-0.7,1.6c2.4,1.3,3.833-0.35,4.3-4.95c0,2.167-0.283,3.733-0.85,4.7
		c-0.434,0.733-1.467,1.366-3.101,1.9c-1.5,0.466-2.517,1.333-3.05,2.6c-0.366,0.934-0.6,2.017-0.7,3.25
		c-0.066,0.767-0.116,1.9-0.149,3.4c-0.033,1.433-0.283,3.116-0.75,5.05l0.2,3.7c0,0.066,0.1,1.75,0.3,5.05
		c0.434,0.767,0.833,1.283,1.2,1.55c0.399,0.366,1.033,0.634,1.899,0.8c1.066,0.2,1.733,0.367,2,0.5
		c0.533,0.233,1.233,0.684,2.101,1.351c0.933,0.666,1.616,1.116,2.05,1.35c1.6,0.833,3.899,1.533,6.899,2.1
		c1.101,0.2,2.483,0.634,4.15,1.301c0.233-0.4,0.434-1.051,0.6-1.95c0.134-1.033,0.25-1.834,0.351-2.4
		c0.566-2.033,0.899-3.583,1-4.649c0.2-2.301,0.267-5.184,0.2-8.65c-0.134-3.866-0.217-6.75-0.25-8.65
		c0-4.3,0.55-10.983,1.649-20.05c0.834,2.7,1.283,6.05,1.351,10.05c0.033,1.733-0.067,5.233-0.301,10.5L76.7,128.95
		c0,1.434,0.066,3.883,0.2,7.35c0,3.134-0.4,5.517-1.2,7.15c-0.267,0.5-0.601,0.85-1,1.05c-0.267,0.1-0.667,0.184-1.2,0.25
		c-0.8,0-1.434,0.15-1.9,0.45l-0.3,0.25l0.2,0.35c0.2,0.3,0.533,0.634,1,1c0.866,0.566,1.866,0.816,3,0.75
		c1.167-0.066,2.017-0.416,2.55-1.05l0.2-0.25l0.05-0.1l3.45,0.899c0.2,0.066,0.917,0.45,2.15,1.15
		c0.833,0.467,1.517,0.733,2.05,0.8c-4.101-0.2-7.467-0.45-10.101-0.75c-0.5,0.066-0.883,0.3-1.149,0.7l-1-1
		c-1.233-0.167-2.417-0.367-3.55-0.601l0.05-1.399L70,148.45z M35.75,15.5c-0.7-0.2-1.333-0.383-1.9-0.55V14.9
		C34.383,15.067,35.017,15.267,35.75,15.5z M78.9,30.9c0.066,0.6,0.166,1.117,0.3,1.55l0.149,0.65
		c0.051,0.125,0.101,0.242,0.15,0.35L77.9,52.1v-5c0.133-5.3,0.133-9.333,0-12.1c-0.134-2.6-0.517-5.25-1.15-7.95
		c-0.1-0.566-0.634-2.683-1.6-6.35c-0.733-2.7-1.184-4.883-1.351-6.55l0.65-0.8c0.114,0.215,0.223,0.423,0.325,0.625l0.274,0.575
		c0.02,0.036,0.036,0.069,0.05,0.1c0.02,0.037,0.036,0.07,0.051,0.1c0.233,0.6,0.449,1.183,0.649,1.75
		c0.233,0.9,0.384,1.833,0.45,2.8c0.2,1.267,0.533,2.7,1,4.3c0.267,0.933,0.684,2.35,1.25,4.25c0.033,0.1,0.066,0.25,0.1,0.45
		l0.2,1.5c0,0.2,0.017,0.434,0.05,0.7C78.85,30.633,78.866,30.767,78.9,30.9z M63.3,7.45L63,26.7l-1.8,22.75
		c0.1,1.5-0.184,3.316-0.851,5.45c0.134-1.1,0.2-2.816,0.2-5.15c0.033-2.333,0.101-4.067,0.2-5.2
		c0.533-4.667,0.717-10.65,0.55-17.95C61.033,18.433,60.9,12.383,60.9,8.45l0.1-1.3c0.434,0.033,0.884,0.083,1.35,0.15l0.95,0.1
		V7.45z M37.3,16h-0.05v-0.05h0.05V16z M77.45,62.2c0.3-1.467,0.45-3.517,0.45-6.15v-1.2c0.366,0.9,0.466,2.566,0.3,5
		c-0.033,0.333-0.066,0.683-0.101,1.05c-0.033,0.3-0.149,0.6-0.35,0.9L77.45,62.2z M67.6,161.65l0.101-0.2
		c0.233-0.767,0.316-1.917,0.25-3.45c-0.167-1.667-0.25-2.85-0.25-3.55l0.649-1.2l-0.149,2.7c0,0.467,0.033,1.217,0.1,2.25
		c0.066,0.967,0.033,1.717-0.1,2.25C68.134,160.783,67.934,161.184,67.6,161.65z M72.65,182.95l1.05-6.15
		c0.133,2.334-0.033,4.033-0.5,5.101C73.066,182.233,72.884,182.583,72.65,182.95z"/>
	<path style="fill-rule:evenodd;clip-rule:evenodd;fill:#514B44;" d="M36.65,88.9l1.55-0.45c0.533-0.1,1.066-0.15,1.6-0.15
		c0.3-0.1,0.6-0.55,0.9-1.35c0.133-0.267,0.167-0.75,0.1-1.45c-0.066-0.767-0.1-1.283-0.1-1.55c0-4.467,0.2-8.017,0.6-10.65
		c0.267-1.633,0.367-4.017,0.3-7.15c-0.067-3.267,0-5.667,0.2-7.2l0.3-2.9c-0.267-1.4-0.45-2.417-0.55-3.05
		c-0.233-1.667-0.35-4.183-0.35-7.55c0-1.133-0.083-2.784-0.25-4.95c-0.167-2.167-0.25-3.833-0.25-5
		c0.167-2.967,0.283-5.233,0.35-6.8c0.133-2.867,0.017-5.117-0.35-6.75c-0.167-0.7-0.733-1.7-1.7-3
		c-0.067-0.067-0.117-0.15-0.15-0.25l-1.2-1.85c-0.167-0.333-0.283-0.617-0.35-0.85v-0.05c-0.032-0.001-0.049-0.018-0.05-0.05
		l5.25,1.45c0.233,0.066,0.467,0.117,0.7,0.15l0.55,0.1h0.15c0.067,0.033,0.133,0.05,0.2,0.05c-0.033,3.1-0.133,10.083-0.3,20.95
		c-0.133,8.633-0.216,15.6-0.25,20.9c-0.033,3.667,0.05,9.45,0.25,17.35c0.034,2.933,0.1,6.15,0.2,9.65c0,0.067,0,0.133,0,0.2
		c0.3,11.5,0.35,20.566,0.15,27.2v0.5c-0.034,0.6-0.051,1.233-0.051,1.899l-0.8,16.55c-0.033,0.134-0.05,0.301-0.05,0.5
		c0,0.167,0,0.351,0,0.551c-0.033,0.166-0.05,0.35-0.05,0.55c0,0.233-0.017,0.483-0.05,0.75c0,0.133,0,0.267,0,0.399l-1.2,19
		c-0.034,0.534-0.067,1.084-0.1,1.65c-0.033,0.434-0.05,0.866-0.05,1.3l-0.45,17.95c0,0.066,0,0.15,0,0.25
		c-0.033,8.3,0.283,15.717,0.95,22.25c-1.566,0-3.233-0.134-5-0.4l-2.35-0.699c-0.467-0.2-0.917-0.417-1.35-0.65l-0.5-0.3
		c-0.2-0.134-0.383-0.25-0.55-0.351c-0.1-0.066-0.2-0.133-0.3-0.199c-0.092-0.07-0.184-0.138-0.275-0.2
		c-0.024-0.019-0.049-0.035-0.075-0.05l-0.45-0.351c-1.313-1.003-2.346-1.77-3.1-2.3c0.066-0.1,0.517-1.033,1.35-2.8
		c0.233-0.767,0.433-1.4,0.6-1.9c0.333-0.967,0.617-1.517,0.85-1.649c1.067-0.601,1.8,0.116,2.2,2.149
		c0.2,1.066,0.333,2.467,0.4,4.2c0.933-0.066,1.517-1.517,1.75-4.35c0.033-3.134,0.1-5,0.2-5.601c0.667-4.399,1-8.3,1-11.7
		c0.1-1.166,0.167-2.1,0.2-2.8c0.1-1.233,0.05-2.133-0.15-2.7c-0.267-0.767-0.783-1.283-1.55-1.55c-1.1-0.399-1.784-0.7-2.05-0.899
		c-0.633-0.534-0.983-1.301-1.05-2.301c0.066-1.199,0.1-2.1,0.1-2.699v-7.7c0.066,1.033,0.333,2.566,0.8,4.6
		c0.467,2.066,0.717,3.601,0.75,4.601c1.833,0.633,3.5-1.017,5-4.95c1.167-3.033,1.817-5.7,1.95-8c0.033-1.101,0.017-2.934-0.05-5.5
		c-0.1-2.367-0.1-4.2,0-5.5c0.333-4.134,0.517-8,0.55-11.601c0.167-2.533,0.267-4.6,0.3-6.199c-0.533-2.7-0.9-4.834-1.1-6.4
		l-0.2-0.3l0.2,0.2c-0.167-1.567-0.233-2.967-0.2-4.2c0.066-1.767,0.117-3.117,0.15-4.05c0.066-1.634,0.017-2.967-0.15-4
		c-0.4-2.933-1.1-5.233-2.1-6.9l-1.6,0.35l-0.5,0.1c-1.533,0.367-3.05,0.667-4.55,0.9l-2.85,0.2c-1,0-1.9-0.066-2.7-0.2h-0.1
		l0.3-0.15c0.3-0.167,0.717-0.284,1.25-0.35c0.333-0.067,0.8-0.133,1.4-0.2l1.45-0.35c1.433-0.533,2.466-1.017,3.1-1.45
		C35.033,89.717,36.15,89.067,36.65,88.9z M27.1,191.8l-1.25-0.7c-0.2-0.1-0.417-0.183-0.65-0.25V162.45
		c0.1,3.267,0.55,7.983,1.35,14.149c0.867,6.667,1.25,11.834,1.15,15.5L27.1,191.8z M4.75,182.8c0.133,3.967,0.183,6.95,0.15,8.95
		l-2.7,0.2c0-1.601,0-3.4,0-5.4c0.033-3.399,0.1-7.399,0.2-12c0-0.866,0.017-1.767,0.05-2.7l0.15-5.899
		c0.066-3.733,0.1-6.584,0.1-8.55c0-0.101,0-0.2,0-0.301c0-2.866,0.017-4.483,0.05-4.85l0.1-0.6c0,0.033,0.017,0.083,0.05,0.149
		c0,0.134,0.017,0.267,0.05,0.4l0.4,3.649c0.066,0.967,0.133,2.667,0.2,5.101c0.034,2.133,0.117,3.816,0.25,5.05
		c0.6,6.167,0.9,10.233,0.9,12.2C4.667,179.233,4.683,180.767,4.75,182.8z M13.3,188.45c0.067,1.2-0.033,2.233-0.3,3.1
		c-0.347,0.029-0.947,0.029-1.8,0c-0.126,0.005-0.26,0.005-0.4,0c-0.466,0-0.983-0.017-1.55-0.05l-0.1-0.45
		c-0.367-1.467-0.433-3.217-0.2-5.25v-0.25c0.133-1.166,0.417-2.883,0.85-5.149c0.434-2.233,0.7-3.834,0.8-4.801l0.1-1.3
		c0.267-3.666,0.3-8.733,0.1-15.2l-0.1-7.149l2.5-19v5.3L13.3,188.45z M11.7,99.6c-0.6,0.066-1.133,0.183-1.6,0.35
		c-3.633,1.066-5.95,2.066-6.95,3c-0.6,0.566-1.117,1.35-1.55,2.35c-0.233,0.566-0.533,1.4-0.9,2.5c-0.033,0-0.049,0.017-0.05,0.05
		c0-3.367,0.033-5.884,0.1-7.55l0.15-2.85c0.067-1.233,0.133-2.517,0.2-3.85c0.2-1.767,0.3-3.184,0.3-4.25
		c0-1.967-0.467-3.083-1.4-3.35c0.667-3.733,0.967-8.833,0.9-15.3c-0.133-7.4-0.05-12.517,0.25-15.35c0.133-1.1,0.5-2.05,1.1-2.85
		c0.267-0.367,0.983-1.117,2.15-2.25l0.55-0.6v0.05l0.25,1.25l0.05,2.4L5.3,55.3c-0.7,2.1-1.05,5.167-1.05,9.2
		c-0.2,0.667-0.533,1.65-1,2.95c-0.333,1.1-0.517,2.1-0.55,3c-0.133,2.333-0.184,5.267-0.15,8.8C2.583,81.183,2.633,84.1,2.7,88
		c0,1.1-0.083,2.767-0.25,5c-0.167,2.133-0.25,3.783-0.25,4.95l0.15,2.5c0.867-0.033,1.7-0.367,2.5-1c0.967-0.8,1.733-1.3,2.3-1.5
		c0.434-0.133,1.083-0.15,1.95-0.05c1,0.133,1.667,0.167,2,0.1c0.3-0.067,0.783-0.283,1.45-0.65c0.6-0.3,1.117-0.467,1.55-0.5
		c0.633-1.167,0.983-2.6,1.05-4.3l0.05-1.95v1.7c0.1,2.1,0.15,3.167,0.15,3.2l-0.05,2.6c-1.066,0.1-1.833,0.233-2.3,0.4
		C12.267,98.733,11.833,99.1,11.7,99.6z M17.7,18.1c-0.5,3.267-1.35,8.117-2.55,14.55c-0.833,5.1-1.316,9.55-1.45,13.35
		c0-3.4-0.1-7.333-0.3-11.8c-0.3-5.8-0.517-10.167-0.65-13.1v-0.05c1.133-2.333,2.05-4.65,2.75-6.95l2.6-5.4l0.6-1.25
		C18.633,10.483,18.3,14.033,17.7,18.1z M29.25,12.35l-0.05,3.1l-0.4-0.2c-0.066,0.8-0.1,2-0.1,3.6l-0.15,2.1
		c-0.133,1.566-0.216,3.917-0.25,7.05c0,3.1-0.083,5.433-0.25,7c-0.4,4.6-0.683,8.683-0.85,12.25c-0.233,4.2-0.383,8.083-0.45,11.65
		L26.7,32.7v-0.65c0-0.7-0.117-1.4-0.35-2.1c-0.3-1.034-0.483-1.684-0.55-1.95c-0.133-0.567-0.117-1.233,0.05-2
		c0.2-0.9,0.316-1.583,0.35-2.05c0.133-1.567,0.15-3.383,0.05-5.45c-0.167-2.433-0.3-4.267-0.4-5.5
		c-0.434-0.7-0.917-1.817-1.45-3.35c-0.6-1.733-0.967-2.917-1.1-3.55c-0.033-0.167-0.35-1.083-0.95-2.75
		c-0.467-1.333-0.7-2.35-0.7-3.05V0.25C22.317,0.417,22.933,0.667,23.5,1l0.55,0.35c0.367,0.267,0.7,0.6,1,1
		c0.233,0.3,0.45,0.633,0.65,1c0.333,0.6,0.783,1.867,1.35,3.8l1.3,3.9C28.617,11.583,28.917,12.017,29.25,12.35z"/>
	<path style="fill-rule:evenodd;clip-rule:evenodd;fill:#6D655A;" d="M10.7,174.3l-0.1,1.3c-0.1,0.967-0.367,2.567-0.8,4.801
		c-0.433,2.267-0.716,3.983-0.85,5.149v0.25c-0.233,2.033-0.167,3.783,0.2,5.25l0.1,0.45c-0.433-0.033-0.783-0.05-1.05-0.05
		l-3.3,0.3c0.033-2-0.017-4.983-0.15-8.95l1.95,1.45v-15.5c-0.2-2.434-0.3-4.517-0.3-6.25c0.033-3.333,0.6-5.05,1.7-5.15
		C8.467,150.884,8.7,146,8.8,142.7c0.2-5.733,0.034-10.634-0.5-14.7c-0.867-4.866-1.517-8.5-1.95-10.9
		c-0.733-4.3-0.934-7.983-0.6-11.05c1.267,0.934,2.35,2.483,3.25,4.65c0.7,1.733,1.1,3.366,1.2,4.899
		c-0.034-1.433-0.017-3.666,0.05-6.699c0.067-3.134,0.05-5.617-0.05-7.45c0.667-0.2,1.2-0.45,1.6-0.75v0.1
		c1.034,0.467,2.567,0.3,4.6-0.5c1.1-0.4,2.533-1.033,4.3-1.9c0.167-0.066,0.566-0.117,1.2-0.15c0.467-0.033,0.85-0.15,1.15-0.35
		c0.267-0.167,0.517-0.467,0.75-0.9c0.233-0.433,0.45-0.717,0.65-0.85l-5.75,0.8c-0.3,0.5-1,0.833-2.1,1
		c1.066-0.867,1.783-1.434,2.15-1.7c0.833-0.6,1.65-1.017,2.45-1.25c0.833-0.267,1.966-0.467,3.4-0.6l0.1,0.05L24.65,96l-0.2,0.15
		l0.2-0.05c0,5.4,0.017,8.817,0.05,10.25c0.066,3.867,0.267,7.25,0.6,10.15l0.2-0.45c0.167,1.434,0.483,3.55,0.95,6.351
		c-0.067,2.166-0.2,4-0.4,5.5c-0.1,0.699-0.3,1.649-0.6,2.85c-0.333,1.3-0.55,2.233-0.65,2.8c-0.466,3.233-0.767,5.417-0.9,6.55
		c-0.233,2.467-0.267,4.667-0.1,6.601c0.267,3.133,0.417,6.783,0.45,10.95c0,0.6-0.017,4.25-0.05,10.949
		c-0.034,1.233-0.217,2.084-0.55,2.551c-0.066,0.066-0.767,0.666-2.1,1.8c-0.767,0.666-1.233,1.399-1.4,2.2
		c-0.1,0.533-0.1,1.449,0,2.75c0.1,1.066,0.283,2.916,0.55,5.55c0.233,2.5,0.367,4.616,0.4,6.35c-1.9-0.233-3.35-0.184-4.35,0.15
		c-0.1,0.033-0.2,0.083-0.3,0.149l-1.75-0.949v2.1c-0.8,0.267-1.8,0.384-3,0.35c-0.175-0.017-0.341-0.034-0.5-0.05
		c0.853,0.029,1.453,0.029,1.8,0c0.267-0.866,0.367-1.899,0.3-3.1l1.4,0.7V177.7c0-1.434,0.133-4.9,0.4-10.4
		c0.2-4.267,0.2-7.7,0-10.3l-0.2-1.9c0.367-3.833,0.617-8.983,0.75-15.449c0.367-15.101,0.55-27.5,0.55-37.2l-4,4
		c-0.067,0.866-0.034,1.916,0.1,3.149c0.067,0.733,0.184,1.784,0.35,3.15c0.7,6.366,1.05,12.7,1.05,19v2.95l-0.5,3.55v-5.3l-2.5,19
		l0.1,7.149c-0.066,2.167-0.1,7.034-0.1,14.601V174.3z M27.1,191.8l0.6,0.3l0.65,0.4c0.754,0.53,1.787,1.297,3.1,2.3
		C29.583,193.434,28.133,192.434,27.1,191.8z M8.85,185.75l-2.15-1.5l-0.05,6.8C6.683,189.816,7.417,188.05,8.85,185.75z
		 M4.15,146.45c-0.1,0.767-0.3,1.733-0.6,2.899c0.2-0.866,0.367-1.649,0.5-2.35C4.087,146.81,4.121,146.627,4.15,146.45z M5.6,67.1
		c0.767-2.5,1.333-4.367,1.7-5.6c0.767-2.567,1.333-4.3,1.7-5.2c0.867-2.3,1.767-3.75,2.7-4.35l-2-0.5
		c-2.034-0.034-3.5,1.25-4.4,3.85l-0.05-1.95c0.133-1.967,0.2-3.383,0.2-4.25c1.066-1.367,1.8-2.917,2.2-4.65
		c0.333-1.5,0.517-3.8,0.55-6.9c-0.133-2.1-0.233-3.7-0.3-4.8c-0.133-2.067,0-3.633,0.4-4.7c0.267-0.767,0.8-1.667,1.6-2.7
		c0.633-0.8,1.117-1.417,1.45-1.85l-0.25,0.35c0.4,5.367,0.6,8.7,0.6,10c-0.034,3.5,0.25,8.816,0.85,15.95
		c0.067,0.767,0.284,2.633,0.65,5.6c0.3,2.4,0.466,4.317,0.5,5.75c0.1-2.6,0.417-5.733,0.95-9.4c0.667-4.167,1.133-7.267,1.4-9.3
		l0.05-0.25c-0.133,1.7-0.333,4.167-0.6,7.4c-0.2,2.8-0.3,5.283-0.3,7.45c0,2.733,0,6.833,0,12.3c0.033,4.7,0.183,8.767,0.45,12.2
		l0.1,0.8l-0.1,1.55c0,0.567,0.017,1.85,0.05,3.85c0,2-0.167,3.517-0.5,4.55v-1.7l-0.05,1.95c-0.233,0.733-0.55,1.233-0.95,1.5
		c-0.467,0.333-1.233,0.417-2.3,0.25c-1.4-0.233-2.283-0.333-2.65-0.3c0.033,0.2,0.017,0.517-0.05,0.95
		c-0.1,0.466-0.133,0.783-0.1,0.95c-1.8,0.5-2.967-0.117-3.5-1.85c-0.267-0.8-0.4-2.316-0.4-4.55c-0.233-5.833-0.25-10.167-0.05-13
		c0.333-3.567,0.517-6.167,0.55-7.8L5.6,67.1z M17.7,18.1c0.6-4.067,0.933-7.617,1-10.65L18.1,8.7L18.5,0h-0.25
		c1.3-0.067,2.433,0.033,3.4,0.3c0,0.7,0.233,1.717,0.7,3.05c0.6,1.667,0.917,2.583,0.95,2.75c0.133,0.633,0.5,1.816,1.1,3.55
		c0,2.2-0.066,4.85-0.2,7.95c0,1.3,0.1,3.583,0.3,6.85c0.067,2.9-0.333,5.083-1.2,6.55c-0.4,0.7-1.283,1.5-2.65,2.4
		c-1.367,0.934-2.233,1.7-2.6,2.3l-0.25,0.7c1.4,0.133,2.934-0.05,4.6-0.55c1.867-0.6,3.133-1.4,3.8-2.4l0.5-0.75l0.05,26.2
		c0.067-3.566,0.217-7.45,0.45-11.65v1.9c0,6.133-0.034,10.733-0.1,13.8c-0.133,5.1-0.4,9.7-0.8,13.8
		c-0.167,1.733-0.583,4.433-1.25,8.1c-0.667,3.566-1.083,6.25-1.25,8.05c-3.133-0.066-5.5,0.383-7.1,1.35l-1.05,0.7
		c0.567-1.034,0.917-2.017,1.05-2.95v-0.4l0.1-5.05c0.133-4.2,0.1-7.566-0.1-10.1v-7c-0.034,1.267-0.117,2.667-0.25,4.2
		c-0.167-2.3-0.25-5.733-0.25-10.3c-0.1-1.867-0.15-3.283-0.15-4.25c-0.033-1.767,0.133-3.15,0.5-4.15
		c0.367-0.8,0.617-1.35,0.75-1.65c0.2-0.533,0.333-1.133,0.4-1.8c0.1-2.7,0.25-4.717,0.45-6.05c0.2-1.267,0.75-2.583,1.65-3.95
		c0.833-1.3,1.833-2.533,3-3.7c1.5-1.433,2.784-2.216,3.85-2.35l-1.95-0.5c-0.7,0.4-1.684,0.783-2.95,1.15
		c-1.533,0.467-2.55,0.8-3.05,1c-0.6,0.267-1.05,0.517-1.35,0.75l1.25-4.35c0.3-1.733,0.233-4.2-0.2-7.4
		c-0.533-3.8-0.783-6.333-0.75-7.6L17.7,18.1z M43.75,17.6l-0.55-0.1c-0.233-0.033-0.467-0.083-0.7-0.15
		c0.167,0.033,0.35,0.066,0.55,0.1l0.25,0.05C43.433,17.533,43.583,17.567,43.75,17.6z M37.25,16h0.05
		c0.067,0.233,0.184,0.517,0.35,0.85C37.45,16.517,37.317,16.233,37.25,16z M26.65,123.75c0.633,3.634,0.983,6.533,1.05,8.7
		c0.133,3.166,0.3,5.649,0.5,7.45c-0.2-13.467-0.034-24.15,0.5-32.051c0.033-2.366,0.083-4.116,0.15-5.25
		c0.066-1.933,0.35-3.616,0.85-5.05c0.033,4.367,0.267,9.617,0.7,15.75c0.267,3.533,0.7,8.783,1.3,15.75
		c-0.233-5.467-0.367-9.233-0.4-11.3c-0.066-4.333,0.05-8.116,0.35-11.35c0.133-2.801,0.267-4.9,0.4-6.301
		c0.2-2.466,0.583-4.516,1.15-6.149l-5,2.5l-0.05,0.05l0.25-1.45c0.7-0.167,1.184-0.583,1.45-1.25l1.6-0.45
		c1.5-0.233,3.017-0.533,4.55-0.9l0.5-0.1l0.05,0.1c0.367,0.533,0.567,1.183,0.6,1.95c0,0.467,0,1.283,0,2.45
		c0.4,5.3,0.583,8.716,0.55,10.25c-0.034,0.7-0.2,1.617-0.5,2.75c-0.3,1.233-0.483,2.15-0.55,2.75
		c-0.033,0.534-0.017,1.351,0.05,2.45c0.033,1.101,0.033,1.917,0,2.45c-0.333,4.167-0.5,6.65-0.5,7.45c0,0.5-0.017,1.3-0.05,2.399
		c0.067,0.334,0.217,0.733,0.45,1.2c0.267,0.533,0.433,0.9,0.5,1.101c0.233,1.166,0.316,2.733,0.25,4.699
		c-0.1,3.034-0.15,4.601-0.15,4.7c0,1.867,0.017,4.7,0.05,8.5c-0.067,3.3-0.267,6.101-0.6,8.4c-3.433-6.267-5.25-11.517-5.45-15.75
		c0.066,2.899,0.033,6.217-0.1,9.95c-0.033,0.833-0.184,4.366-0.45,10.6c-0.1,2.233-0.217,3.866-0.35,4.9
		c-0.267,1.933-0.667,3.483-1.2,4.649c-0.9-0.533-1.4-1.816-1.5-3.85c0.066-2.3,0.1-3.816,0.1-4.55c0.033-4,0.05-7,0.05-9
		c-0.033-3.467-0.183-6.45-0.45-8.95c-0.333-2.934-0.533-6.3-0.6-10.101C26.667,132.417,26.65,129.05,26.65,123.75z M36.65,88.9
		c-0.5,0.167-1.617,0.817-3.35,1.95c-0.633,0.433-1.667,0.917-3.1,1.45V48.8c0-2.9-0.217-8.216-0.65-15.95
		c-0.1-3.067-0.183-5.383-0.25-6.95c-0.1-2.833-0.3-5.15-0.6-6.95l0.15-0.4c3.566-0.333,5.733-0.417,6.5-0.25
		c2.133,0.434,3.25,1.95,3.35,4.55c0.033,1.133,0.2,2.833,0.5,5.1c0.3,2.233,0.466,3.917,0.5,5.05c0.033,1.6-0.167,3.583-0.6,5.95
		c-0.633,3.433-0.983,5.4-1.05,5.9c-0.233,1.9-0.283,4.25-0.15,7.05c0.2,4.1,0.3,6.434,0.3,7v10.95c0,1.933-0.017,4.833-0.05,8.7
		c0,0.467,0.15,1.817,0.45,4.05c0.2,1.633,0.2,2.967,0,4c-0.867-0.833-1.467-2.233-1.8-4.2C37.033,85.533,36.983,87.7,36.65,88.9z
		 M30.2,23.45c0,7.367,0.083,18.35,0.25,32.95c0.167,14.133,0.25,24.867,0.25,32.2c0.033-0.867,0.15-1.667,0.35-2.4
		c0.1-0.4,0.434-1.35,1-2.85c0.367-1,0.583-2.15,0.65-3.45c0-0.066,0-1.25,0-3.55V57c0-4.233-0.167-10.5-0.5-18.8
		c-0.333-8.3-0.5-14.55-0.5-18.75L30.2,23.45z M16.7,68.55v-10V68.55z M31.7,131.95c0,3.8,0.083,6.517,0.25,8.149
		c0.267,2.867,0.85,5.45,1.75,7.75c-0.067-2.033-0.083-4.6-0.05-7.699l0.05-7.7L31.7,131.95z"/>
	<path style="fill-rule:evenodd;clip-rule:evenodd;fill:#635B52;" d="M37.3,197.6c1.767,0.267,3.434,0.4,5,0.4
		c-0.667-6.533-0.983-13.95-0.95-22.25c0-0.1,0-0.184,0-0.25l0.45-17.95c0-0.434,0.017-0.866,0.05-1.3
		c0.033-0.566,0.066-1.116,0.1-1.65l1.2-19c0-0.133,0-0.267,0-0.399c0.033-0.267,0.05-0.517,0.05-0.75c0-0.2,0.017-0.384,0.05-0.55
		c0-0.2,0-0.384,0-0.551c0-0.199,0.017-0.366,0.05-0.5l0.8-16.55c0-0.666,0.017-1.3,0.051-1.899v-0.5
		C44.35,107.267,44.3,98.2,44,86.7c0-0.067,0-0.133,0-0.2c-0.1-3.5-0.167-6.717-0.2-9.65c0.067,0.333,0.2,0.767,0.4,1.3
		c0.267,0.767,0.434,1.417,0.5,1.95v4.5c0,0.566-0.033,1.45-0.101,2.65c-0.033,1.067,0.017,1.95,0.15,2.65
		c0.134,0.867,0.55,2.217,1.25,4.05c0.667,1.733,1.066,3.083,1.2,4.05c0.267,2.167,0.35,4.983,0.25,8.45
		c-0.033,1.899-0.117,4.717-0.25,8.45v21.449c-0.066,1.867-0.267,3.467-0.601,4.801c-0.133,0.466-0.267,1.133-0.399,2
		c-0.233,1.767-0.15,4.066,0.25,6.899c0.5,3.467,0.75,5.816,0.75,7.05c0,0.867-0.101,1.817-0.3,2.851
		c-0.101,0.566-0.301,1.5-0.601,2.8c-0.333,1.8-0.533,3.934-0.6,6.4v6.399c0.033-0.833,0.2-1.583,0.5-2.25
		c0.333-0.8,0.8-1.333,1.399-1.6c0.2,1.633,0.184,3.833-0.05,6.6c-0.233,3.4-0.35,5.617-0.35,6.65c0,2.934-0.017,4.566-0.05,4.899
		c-1.5-1.733-2.517-3.333-3.051-4.8c0.167,1.733,0.2,4.367,0.101,7.9l0.149,5.1c-0.233,0-0.466,0-0.7,0
		C41.15,198.05,39.033,197.9,37.3,197.6z M28.35,192.5l-0.65-0.4c0.1-3.666-0.284-8.833-1.15-15.5
		c-0.8-6.166-1.25-10.883-1.35-14.149v28.399c-1.4-0.5-2.767-0.833-4.1-1v-0.05c-0.033-1.733-0.167-3.85-0.4-6.35
		c-0.267-2.634-0.45-4.483-0.55-5.55c-0.1-1.301-0.1-2.217,0-2.75c0.167-0.801,0.633-1.534,1.4-2.2c1.333-1.134,2.034-1.733,2.1-1.8
		c0.333-0.467,0.517-1.317,0.55-2.551c0.033-6.699,0.05-10.35,0.05-10.949c-0.033-4.167-0.183-7.817-0.45-10.95
		c-0.167-1.934-0.133-4.134,0.1-6.601c0.133-1.133,0.434-3.316,0.9-6.55c0.1-0.566,0.317-1.5,0.65-2.8c0.3-1.2,0.5-2.15,0.6-2.85
		c0.2-1.5,0.333-3.334,0.4-5.5l0.2,1.35c0,5.3,0.017,8.667,0.05,10.1c0.066,3.801,0.267,7.167,0.6,10.101
		c0.267,2.5,0.417,5.483,0.45,8.95c0,2-0.017,5-0.05,9c0,0.733-0.034,2.25-0.1,4.55c0.1,2.033,0.6,3.316,1.5,3.85
		c0.533-1.166,0.933-2.717,1.2-4.649c0.133-1.034,0.25-2.667,0.35-4.9c0.267-6.233,0.417-9.767,0.45-10.6
		c0.133-3.733,0.167-7.051,0.1-9.95c0.2,4.233,2.017,9.483,5.45,15.75c0.333-2.3,0.533-5.101,0.6-8.4
		c-0.033-3.8-0.05-6.633-0.05-8.5c0-0.1,0.05-1.666,0.15-4.7c0.066-1.966-0.017-3.533-0.25-4.699c-0.067-0.2-0.233-0.567-0.5-1.101
		c-0.233-0.467-0.383-0.866-0.45-1.2c0.033-1.1,0.05-1.899,0.05-2.399c0-0.8,0.167-3.283,0.5-7.45c0.033-0.533,0.033-1.35,0-2.45
		c-0.067-1.1-0.083-1.916-0.05-2.45c0.067-0.6,0.25-1.517,0.55-2.75c0.3-1.133,0.466-2.05,0.5-2.75
		c0.033-1.533-0.15-4.949-0.55-10.25c0-1.167,0-1.983,0-2.45c-0.033-0.767-0.233-1.417-0.6-1.95l-0.05-0.1L38.1,92
		c1,1.667,1.7,3.967,2.1,6.9c0.167,1.033,0.216,2.367,0.15,4c-0.033,0.933-0.083,2.283-0.15,4.05c-0.034,1.233,0.033,2.633,0.2,4.2
		l-0.2-0.2l0.2,0.3c0.2,1.566,0.567,3.7,1.1,6.4c-0.033,1.6-0.133,3.666-0.3,6.199c-0.034,3.601-0.217,7.467-0.55,11.601
		c-0.1,1.3-0.1,3.133,0,5.5c0.067,2.566,0.083,4.399,0.05,5.5c-0.133,2.3-0.784,4.967-1.95,8c-1.5,3.934-3.167,5.583-5,4.95
		c-0.033-1-0.283-2.534-0.75-4.601c-0.467-2.033-0.733-3.566-0.8-4.6v7.7c0,0.6-0.034,1.5-0.1,2.699c0.066,1,0.417,1.767,1.05,2.301
		c0.267,0.199,0.95,0.5,2.05,0.899c0.767,0.267,1.283,0.783,1.55,1.55c0.2,0.567,0.25,1.467,0.15,2.7c-0.033,0.7-0.1,1.634-0.2,2.8
		c0,3.4-0.333,7.301-1,11.7c-0.1,0.601-0.167,2.467-0.2,5.601c-0.233,2.833-0.817,4.283-1.75,4.35c-0.067-1.733-0.2-3.134-0.4-4.2
		c-0.4-2.033-1.133-2.75-2.2-2.149c-0.233,0.133-0.517,0.683-0.85,1.649c-0.167,0.5-0.367,1.134-0.6,1.9
		C28.867,191.467,28.417,192.4,28.35,192.5z M14.7,191.25v-2.1l1.75,0.949c-0.034,0.034-0.067,0.051-0.1,0.051
		c-0.133,0.1-0.317,0.25-0.55,0.449c-0.267,0.233-0.5,0.4-0.7,0.5C14.967,191.167,14.833,191.217,14.7,191.25z M3.55,149.35
		c0.3-1.166,0.5-2.133,0.6-2.899c0.167-1.101,0.133-1.95-0.1-2.55L2.7,142.8c0.3-0.3,0.517-0.666,0.65-1.1
		c0.033-0.066,0.15-0.517,0.35-1.351c0.333-1.466,0.517-3.25,0.55-5.35c0.033-1.1,0.017-2.9-0.05-5.4
		c-0.034-1.699-0.4-3.983-1.1-6.85c-0.833-3.267-1.317-5.517-1.45-6.75c-0.6-3.134-0.917-5.517-0.95-7.15l-0.05-1
		c0.001-0.033,0.018-0.05,0.05-0.05c0.367-1.1,0.667-1.934,0.9-2.5c0.433-1,0.95-1.783,1.55-2.35c1-0.934,3.317-1.934,6.95-3
		c0.467-0.167,1-0.284,1.6-0.35c-0.067,0.367-0.034,0.733,0.1,1.1c-0.4,0.3-0.933,0.55-1.6,0.75c0.1,1.833,0.117,4.316,0.05,7.45
		c-0.067,3.033-0.083,5.267-0.05,6.699c-0.1-1.533-0.5-3.166-1.2-4.899c-0.9-2.167-1.983-3.717-3.25-4.65
		c-0.333,3.066-0.133,6.75,0.6,11.05c0.433,2.4,1.083,6.034,1.95,10.9c0.534,4.066,0.7,8.967,0.5,14.7
		c-0.1,3.3-0.333,8.184-0.7,14.649c-1.1,0.101-1.667,1.817-1.7,5.15c0,1.733,0.1,3.816,0.3,6.25v15.5l-1.95-1.45
		c-0.067-2.033-0.083-3.566-0.05-4.6c0-1.967-0.3-6.033-0.9-12.2c-0.133-1.233-0.216-2.917-0.25-5.05
		c-0.066-2.434-0.133-4.134-0.2-5.101l-0.4-3.649c-0.034-0.134-0.05-0.267-0.05-0.4c-0.033-0.066-0.05-0.116-0.05-0.149V151.6
		C3.117,150.767,3.35,150.017,3.55,149.35z M5.45,49.1c0,0.867-0.067,2.283-0.2,4.25l-0.05-2.4L4.95,49.7v-0.05l0.5-0.6V49.1z
		 M11.35,23.5c0.233-0.3,0.383-0.517,0.45-0.65l0.95-1.8v0.05c0.133,2.933,0.35,7.3,0.65,13.1c0.2,4.466,0.3,8.4,0.3,11.8
		c0.133-3.8,0.617-8.25,1.45-13.35c1.2-6.433,2.05-11.283,2.55-14.55l-0.05,0.4c-0.033,1.267,0.217,3.8,0.75,7.6
		c0.434,3.2,0.5,5.667,0.2,7.4l-1.25,4.35c-0.467,0.333-0.767,0.783-0.9,1.35c-0.067,0.233-0.15,0.933-0.25,2.1l-0.1,0.9l-0.05,0.25
		c-0.267,2.033-0.733,5.133-1.4,9.3c-0.533,3.667-0.85,6.8-0.95,9.4c-0.034-1.433-0.2-3.35-0.5-5.75
		c-0.367-2.967-0.583-4.833-0.65-5.6c-0.6-7.133-0.883-12.45-0.85-15.95c0-1.3-0.2-4.633-0.6-10L11.35,23.5z M18.1,8.7l-2.6,5.4
		c0.667-2.167,1.25-4.45,1.75-6.85l1-7.25h0.25L18.1,8.7z M24.4,9.65c0.533,1.533,1.017,2.65,1.45,3.35
		c0.1,1.233,0.233,3.067,0.4,5.5c0.1,2.067,0.083,3.883-0.05,5.45c-0.034,0.466-0.15,1.15-0.35,2.05
		c-0.167,0.767-0.184,1.433-0.05,2c0.067,0.267,0.25,0.917,0.55,1.95c0.233,0.7,0.35,1.4,0.35,2.1v0.65l-0.5,0.75
		c-0.667,1-1.934,1.8-3.8,2.4c-1.667,0.5-3.2,0.683-4.6,0.55l0.25-0.7c0.367-0.6,1.233-1.367,2.6-2.3c1.367-0.9,2.25-1.7,2.65-2.4
		c0.867-1.467,1.267-3.65,1.2-6.55c-0.2-3.267-0.3-5.55-0.3-6.85C24.333,14.5,24.4,11.85,24.4,9.65z M36.65,88.9
		c0.333-1.2,0.383-3.367,0.15-6.5c0.333,1.967,0.934,3.367,1.8,4.2c0.2-1.033,0.2-2.367,0-4c-0.3-2.233-0.45-3.583-0.45-4.05
		c0.033-3.867,0.05-6.767,0.05-8.7V58.9c0-0.566-0.1-2.9-0.3-7c-0.133-2.8-0.083-5.15,0.15-7.05c0.067-0.5,0.417-2.467,1.05-5.9
		c0.433-2.367,0.633-4.35,0.6-5.95c-0.034-1.133-0.2-2.817-0.5-5.05c-0.3-2.267-0.467-3.967-0.5-5.1c-0.1-2.6-1.217-4.117-3.35-4.55
		c-0.767-0.167-2.934-0.083-6.5,0.25l-0.15,0.4c0.3,1.8,0.5,4.117,0.6,6.95c0.067,1.567,0.15,3.883,0.25,6.95
		c0.434,7.733,0.65,13.05,0.65,15.95v43.5l-1.45,0.35c-0.6,0.067-1.067,0.133-1.4,0.2c-0.533,0.066-0.95,0.183-1.25,0.35l-0.3,0.15
		h0.1c0.8,0.133,1.7,0.2,2.7,0.2l2.85-0.2l-1.6,0.45c-0.267,0.667-0.75,1.083-1.45,1.25l-0.25,1.45c-1.433,1.833-2.333,4.167-2.7,7
		c-0.2,1.366-0.3,3.9-0.3,7.6c0,1.367,0.117,3.017,0.35,4.95l-0.2,0.45c-0.333-2.9-0.533-6.283-0.6-10.15
		c-0.034-1.433-0.05-4.85-0.05-10.25l1.05-0.15c-0.467-0.067-0.817-0.05-1.05,0.05l0.05-1.55l-0.1-0.05
		c-1.434,0.133-2.567,0.333-3.4,0.6c-0.8,0.233-1.617,0.65-2.45,1.25c-0.367,0.267-1.083,0.833-2.15,1.7l-1.3,0.15l0.05-2.6
		c0-0.033-0.05-1.1-0.15-3.2c0.333-1.033,0.5-2.55,0.5-4.55c-0.034-2-0.05-3.283-0.05-3.85l0.1-1.55
		c0.067,0.467,0.25,1.483,0.55,3.05c0.233,1.233,0.367,2.25,0.4,3.05v3.15V92c-0.133,0.933-0.483,1.917-1.05,2.95l1.05-0.7
		c1.6-0.967,3.966-1.417,7.1-1.35c0.167-1.8,0.583-4.483,1.25-8.05c0.667-3.667,1.083-6.367,1.25-8.1c0.4-4.1,0.667-8.7,0.8-13.8
		c0.066-3.067,0.1-7.667,0.1-13.8v-1.9c0.167-3.567,0.45-7.65,0.85-12.25c0.167-1.567,0.25-3.9,0.25-7
		c0.034-3.133,0.117-5.483,0.25-7.05l0.15-2.1c0-1.6,0.033-2.8,0.1-3.6l0.4,0.2l0.05-3.1c0.267,0.3,0.583,0.583,0.95,0.85l0.3,0.25
		c0.6,0.367,1.317,0.716,2.15,1.05l0.3,0.1c0.267,0.1,0.566,0.217,0.9,0.35c0.566,0.167,1.2,0.35,1.9,0.55
		c0.467,0.133,0.967,0.267,1.5,0.4v0.05V16c0.067,0.233,0.2,0.517,0.4,0.85l1.2,1.85c0.033,0.1,0.083,0.183,0.15,0.25
		c0.967,1.3,1.533,2.3,1.7,3c0.367,1.633,0.483,3.883,0.35,6.75c-0.066,1.566-0.183,3.833-0.35,6.8c0,1.167,0.083,2.833,0.25,5
		c0.167,2.167,0.25,3.817,0.25,4.95c0,3.367,0.117,5.883,0.35,7.55c0.1,0.633,0.284,1.65,0.55,3.05l-0.3,2.9
		c-0.2,1.533-0.267,3.933-0.2,7.2c0.066,3.133-0.033,5.517-0.3,7.15c-0.4,2.633-0.6,6.184-0.6,10.65c0,0.267,0.033,0.783,0.1,1.55
		c0.067,0.7,0.034,1.183-0.1,1.45c-0.3,0.8-0.6,1.25-0.9,1.35c-0.533,0-1.066,0.05-1.6,0.15L36.65,88.9z M77.9,52.1l1.6-18.65
		c0.017,0.033,0.033,0.066,0.05,0.1c0.033,0.067,0.084,0.133,0.15,0.2c0.033,2.767,0.066,6.933,0.1,12.5
		c0.033,4.9,0,9.083-0.1,12.55c-0.066,2.733-0.55,4.534-1.45,5.4c-0.7,0.7-1.7,0.933-3,0.7c-0.066-0.733,0.283-1.367,1.05-1.9
		c0.467-0.233,0.851-0.5,1.15-0.8l0.3-0.4c0.2-0.3,0.316-0.6,0.35-0.9c0.034-0.367,0.067-0.717,0.101-1.05
		c0.166-2.434,0.066-4.1-0.3-5l-0.2-0.4L77.9,52.1z M58.55,59.15c0.467-0.566,0.851-1.3,1.15-2.2l0.649-2.05
		c0.667-2.133,0.95-3.95,0.851-5.45L63,26.7l0.1-1.15C62.967,30.45,63,37.767,63.2,47.5v2.9c0,2.8-0.167,5.15-0.5,7.05
		c-0.334,1.7-0.55,2.667-0.65,2.9c-0.366,0.633-1.149,1-2.35,1.1c-0.2,0.033-0.483,0.05-0.851,0.05
		c-2.199,0.133-4.05-0.167-5.55-0.9c0.867-0.167,1.917-0.3,3.15-0.4C57.35,60.033,58.05,59.683,58.55,59.15z M16.7,76.45l-0.25-2.8
		c0.133-1.533,0.216-2.933,0.25-4.2V76.45z M5.6,67.1l0.1,1.6c-0.034,1.633-0.217,4.233-0.55,7.8c-0.2,2.833-0.183,7.167,0.05,13
		c0,2.233,0.133,3.75,0.4,4.55c0.533,1.733,1.7,2.35,3.5,1.85c-0.033-0.167,0-0.483,0.1-0.95C9.267,94.517,9.283,94.2,9.25,94
		c0.367-0.033,1.25,0.067,2.65,0.3c1.067,0.167,1.833,0.083,2.3-0.25c0.4-0.267,0.716-0.767,0.95-1.5
		c-0.066,1.7-0.417,3.133-1.05,4.3c-0.434,0.033-0.95,0.2-1.55,0.5c-0.667,0.367-1.15,0.583-1.45,0.65c-0.333,0.067-1,0.033-2-0.1
		c-0.867-0.1-1.517-0.083-1.95,0.05c-0.566,0.2-1.333,0.7-2.3,1.5c-0.8,0.633-1.633,0.967-2.5,1l-0.15-2.5
		c0-1.167,0.083-2.817,0.25-4.95c0.167-2.233,0.25-3.9,0.25-5c-0.067-3.9-0.117-6.817-0.15-8.75c-0.033-3.533,0.017-6.467,0.15-8.8
		c0.033-0.9,0.216-1.9,0.55-3c0.467-1.3,0.8-2.284,1-2.95c0.033,2.567,0.183,5.567,0.45,9C4.6,71.7,4.9,69.567,5.6,67.1z
		 M61.55,105.8c-0.467,4.601-1.899,6.25-4.3,4.95c0.066-0.4,0.3-0.934,0.7-1.6c0.467-0.767,0.75-1.317,0.85-1.65
		c0.367-1.134,0.667-3.116,0.9-5.95c0.166-3.367,0.333-5.9,0.5-7.6c0.166-1.733,0.184-4.383,0.05-7.95L60.2,63.6v-1.15l1,1.2
		l1.5,1.8c0,4.133-0.167,10.316-0.5,18.55c-0.334,8.233-0.5,14.417-0.5,18.55C61.7,103.816,61.65,104.9,61.55,105.8z M78.3,146.15
		l-0.05,0.1l-0.2,0.25c-0.533,0.634-1.383,0.983-2.55,1.05c-1.134,0.066-2.134-0.184-3-0.75c-0.467-0.366-0.8-0.7-1-1l-0.2-0.35
		l0.3-0.25c0.467-0.3,1.101-0.45,1.9-0.45c0.533-0.066,0.934-0.15,1.2-0.25c0.399-0.2,0.733-0.55,1-1.05
		c0.8-1.634,1.2-4.017,1.2-7.15c-0.134-3.467-0.2-5.916-0.2-7.35L78.35,118.6L80.2,106.95c0.066,6.666-0.101,16.616-0.5,29.85
		c-0.066,2.3-0.134,3.851-0.2,4.65C79.3,143.616,78.9,145.184,78.3,146.15z M70,148.45l0.6,0.5H69.7v7.1c0,0.2-0.117,1.7-0.351,4.5
		c-0.166,2.101-0.133,3.667,0.101,4.7v0.05c-0.2,0.267-0.45,0.467-0.75,0.601c-0.767,0.333-1.367,0.333-1.8,0l-0.351-0.351
		c-0.399-0.767-0.366-1.633,0.101-2.6l0.1-0.2l0.85-1.1c0.334-0.467,0.534-0.867,0.601-1.2c0.133-0.533,0.166-1.283,0.1-2.25
		c-0.066-1.033-0.1-1.783-0.1-2.25l0.149-2.7l0.051-0.9c0.267-2.933,0.033-4.899-0.7-5.899L70,148.45z M14.9,155.1l0.2,1.9
		c0.2,2.6,0.2,6.033,0,10.3c-0.267,5.5-0.4,8.967-0.4,10.4v11.45l-1.4-0.7l-0.1-50.2l0.5-3.55v8.3c0,2.366,0.017,5.917,0.05,10.65
		c0.033,4.233,0,7.783-0.1,10.649C14.217,161.467,14.633,158.4,14.9,155.1z M8.85,185.75c-1.434,2.3-2.167,4.066-2.2,5.3l0.05-6.8
		L8.85,185.75z M10.7,174.3v-0.6c0-7.566,0.033-12.434,0.1-14.601C11,165.566,10.967,170.634,10.7,174.3z M71.55,185.9l0.101-0.9
		c0.066-0.4,0.399-1.083,1-2.05c0.233-0.367,0.416-0.717,0.55-1.05c0.467-1.067,0.633-2.767,0.5-5.101v-1.35l1-6.5v2.8
		c-0.066,3.934-0.4,6.95-1,9.05c-0.101,0.4-0.367,1.767-0.8,4.101c-0.334,1.8-0.7,3.116-1.101,3.949
		C71.6,187.783,71.517,186.8,71.55,185.9z"/>
	
		<line style="fill-rule:evenodd;clip-rule:evenodd;fill:none;stroke:#635B52;stroke-width:0.1;stroke-linecap:round;stroke-linejoin:round;stroke-miterlimit:3;" x1="16.7" y1="68.55" x2="16.7" y2="58.55"/>
</g>
</svg>
