<?xml version="1.0" encoding="iso-8859-1"?>
<!-- Generator: Adobe Illustrator 15.1.0, SVG Export Plug-In . SVG Version: 6.00 Build 0)  -->
<!DOCTYPE svg PUBLIC "-//W3C//DTD SVG 1.1//EN" "http://www.w3.org/Graphics/SVG/1.1/DTD/svg11.dtd">
<svg version="1.1" id="Layer_1" xmlns="http://www.w3.org/2000/svg" xmlns:xlink="http://www.w3.org/1999/xlink" x="0px" y="0px"
	 width="71.8px" height="68.55px" viewBox="0 0 71.8 68.55" style="enable-background:new 0 0 71.8 68.55;" xml:space="preserve">
<g>
	<path style="fill-rule:evenodd;clip-rule:evenodd;fill:#BBB0A1;" d="M40.9,11.6c-2.367,1.5-4.434,2.6-6.2,3.3
		c-0.667,0.267-1.25,0.383-1.75,0.35c-0.267-0.033-0.85-0.167-1.75-0.4c-0.567-0.133-1.367-0.283-2.4-0.45
		c-1.133-0.167-1.933-0.3-2.4-0.4c0.167,0.167,1.483,0.517,3.95,1.05c2.2,0.5,3.35,1.083,3.45,1.75l-0.25,0.05
		c-0.4-0.5-1.383-0.833-2.95-1c-0.133,0-0.25,0-0.35,0L30.2,15.8l-2.4-0.2c-0.033,0-0.066,0-0.1,0h-0.1c0.2,0.033,0.433,0.1,0.7,0.2
		l1.3,0.55c0.333,0.167,0.7,0.35,1.1,0.55l-0.65,0.15c-0.333-0.1-0.816-0.117-1.45-0.05c-0.767,0.1-1.267,0.133-1.5,0.1
		c-0.833-0.067-1.517-0.167-2.05-0.3c-0.1-0.033-0.833-0.316-2.2-0.85c-0.9-0.333-1.65-0.483-2.25-0.45
		c-0.3,0.033-0.717,0.183-1.25,0.45c-0.567,0.3-0.983,0.466-1.25,0.5c-0.267,0.033-0.717-0.017-1.35-0.15
		c-0.767-0.2-1.267-0.316-1.5-0.35c-0.167-1-0.333-1.733-0.5-2.2c-0.067-0.133-0.45-0.483-1.15-1.05
		c-0.567-0.5-0.817-0.883-0.75-1.15c0.1-0.4,1.133-0.633,3.1-0.7c2.2-0.067,3.466-0.167,3.8-0.3c0.3-0.1,0.917-0.466,1.85-1.1
		c0.8-0.534,1.467-0.833,2-0.9c0.2-0.033,0.467,0,0.8,0.1c0.367,0.067,0.633,0.1,0.8,0.1c0.533,0,1.35-0.217,2.45-0.65
		c1.434-0.4,2.633-1.3,3.6-2.7c0.467,0.1,0.967,0.25,1.5,0.45c1.233,0.433,2.017,0.683,2.35,0.75c0.667,0.167,1.534,0.367,2.601,0.6
		c0.866,0.267,1.633,0.716,2.3,1.35c0.8,0.733,1.15,1.633,1.05,2.7L40.9,11.6z M41,11.55c0.031-0.095,0.048-0.178,0.05-0.25
		c0,0.043,0,0.109,0,0.2L41,11.55z M63.85,37.45l-0.699,0.2c0.466-0.467,0.783-0.917,0.949-1.351c-0.366-0.233-1.033-0.05-2,0.55
		c-1,0.733-1.649,1.15-1.949,1.25c-0.601,0.2-1.4,0.2-2.4,0c-1.1-0.267-1.9-0.449-2.4-0.55c-0.733-0.133-1.649-0.25-2.75-0.35
		c-1.199-0.101-2.116-0.184-2.75-0.25c-0.966-0.066-1.683-0.117-2.149-0.15c-0.834-0.1-1.517-0.283-2.05-0.55
		c-0.534-0.3-1.101-0.733-1.7-1.3c-0.7-0.733-0.917-1.284-0.65-1.65l-0.35-0.15c-0.9,1.033-1.217,2.317-0.95,3.85
		c0,0.066,0.017,0.134,0.05,0.2c0,0.033,0,0.083,0,0.149c-0.366-1.267-0.233-2.45,0.4-3.55c1.033-1.8,2.8-2.433,5.3-1.9l0.55-0.2
		c0.9,0.9,2.3,1.517,4.2,1.85c1.033,0.167,2.566,0.317,4.6,0.45c2.167,0.233,3.567,0.45,4.2,0.65c0.033,0,0.617,0.117,1.75,0.35
		c0.834,0.134,1.367,0.316,1.601,0.55C64.55,36.15,64.283,36.783,63.85,37.45z M66.55,37.5c0.167-0.667,0.167-1.3,0-1.9
		c-0.033-0.1-0.05-0.183-0.05-0.25C66.767,35.983,66.783,36.7,66.55,37.5z M47.15,38.55c1.066,0.233,1.75,0.384,2.05,0.45
		c1.666,0.3,3.149,0.467,4.45,0.5L53,39.7l-1.05-0.15c-1.2-0.133-2.15-0.267-2.851-0.399C48.434,38.95,47.783,38.75,47.15,38.55z
		 M44.1,37.9c0.134,0.033,0.267,0.066,0.4,0.1h-0.05C44.316,37.967,44.2,37.934,44.1,37.9z M59.55,38.85L60.9,38.9
		c-0.534,0.366-1.101,0.583-1.7,0.649c-0.767,0.033-1.384,0.066-1.851,0.101c-1-0.233-1.85-0.351-2.55-0.351l1.8-0.6
		C57.167,38.634,58.15,38.684,59.55,38.85z M29.85,5.55l0.4-0.25l0.1-0.05L29.85,5.55z M11.15,9.75
		C9.383,10.417,8.6,11.433,8.8,12.8c0.067,0.4,0.184,0.833,0.35,1.3c-0.9-1.967-0.316-3.4,1.75-4.3
		C10.933,9.767,11.017,9.75,11.15,9.75z M14.45,16.1c0.933,0.333,2.483,0.6,4.65,0.8c0.4,0.067,0.933,0.2,1.6,0.4L20,17.55
		l-0.05,0.1c-0.2-0.033-0.4-0.05-0.6-0.05l-1.1-0.05c-0.9-0.167-1.55-0.233-1.95-0.2C15.5,16.95,14.883,16.533,14.45,16.1z
		 M14.8,15.9L14.35,16L14,15.55C14.2,15.583,14.467,15.7,14.8,15.9z M27.05,46.7c-0.333-0.101-0.966-0.15-1.9-0.15
		c0.633-0.033,1.133-0.017,1.5,0.05c0.035,0,0.068,0,0.1,0C26.85,46.634,26.95,46.667,27.05,46.7z M27.85,48.25
		c-0.233,0.134-0.533,0.583-0.9,1.35c-0.434,0.9-0.717,1.434-0.85,1.601c-0.434,0.467-0.917,0.8-1.45,1
		c-0.4,0.133-0.983,0.25-1.75,0.35c-0.967,0.134-2.167,0.084-3.6-0.149c-2.033-0.367-3.2-0.567-3.5-0.601l-0.3-0.149
		c-0.032-0.032-0.065-0.05-0.1-0.051h0.05c-0.8-0.566-1.367-0.916-1.7-1.05L13.7,50.5l-0.05-0.45c0.5-0.2,1.367-0.383,2.6-0.55
		c1.167-0.167,2.017-0.384,2.55-0.65l1.15-0.649c0.433-0.267,0.883-0.434,1.35-0.5l5.9-0.95c0.033,0.033,0.066,0.05,0.1,0.05
		C27.533,46.967,27.717,47.45,27.85,48.25z M27.55,51.75c0.2-0.3,0.333-0.583,0.4-0.85c0,0.066-0.017,0.133-0.05,0.199
		C27.833,51.3,27.717,51.517,27.55,51.75z M19.05,47.25c-0.167,0.033-0.333,0.066-0.5,0.1c-0.633,0.134-1.233,0.25-1.8,0.351
		c0.3-0.066,0.617-0.134,0.95-0.2C18.167,47.4,18.617,47.316,19.05,47.25z M15.75,51.8h0.05l0.8,0.5L15.75,51.8z M13.75,54.7
		c0.6,0.467,1.283,0.833,2.05,1.1c-0.733-0.233-1.4-0.566-2-1C13.767,54.767,13.75,54.733,13.75,54.7z"/>
	<path style="fill-rule:evenodd;clip-rule:evenodd;fill:#635B52;" d="M41.05,11.3c-0.002,0.072-0.019,0.155-0.05,0.25
		c-0.033,0-0.066,0.017-0.1,0.05l0.149-0.35V11.3z M30.25,15.85c-1.167-0.1-1.983-0.184-2.45-0.25l2.4,0.2L30.25,15.85z M38.75,16.8
		c0.033-0.133,0.066-0.25,0.1-0.35l0.051-0.1c0.966-1.8,1.6-3.133,1.899-4l0.15-0.4V12c-0.066,0.367-0.15,0.817-0.25,1.35
		c-0.167,0.8-0.417,1.433-0.75,1.9C39.483,15.817,39.083,16.333,38.75,16.8z M51.35,49.7c0.167,0.033,0.334,0.066,0.5,0.1H51.9
		c-0.134-0.666-0.2-1.467-0.2-2.399c0.1-0.634,0.149-1.117,0.149-1.45c0-0.033,0.017-0.084,0.051-0.15l0.25-0.899H52.1
		c-0.133,0.233-0.25,0.483-0.35,0.75c-0.6-0.334-1.167-0.717-1.7-1.15c-0.899-0.233-1.666-0.483-2.3-0.75
		c-1.1-0.434-1.917-0.783-2.45-1.05c-0.934-0.467-1.633-1-2.1-1.601c-0.767-0.833-1.2-1.6-1.3-2.3c-0.034-0.3,0-0.733,0.1-1.3
		c0-0.066,0.017-0.116,0.05-0.15c0-0.066,0-0.116,0-0.149c0.167,0.767,0.533,1.55,1.101,2.35c0.5,0.733,1.517,1.584,3.05,2.55
		c1.166,0.733,2.333,1.367,3.5,1.9c1,0.467,2.3,0.833,3.899,1.1c0.067,0,0.15,0.017,0.25,0.051c0.301,0.033,0.584,0.083,0.851,0.149
		c0.066,0,0.133,0,0.2,0c1.267,0.134,2.316,0.15,3.149,0.05c0.367-0.033,0.767-0.133,1.2-0.3c1.333-0.533,2.8-1.633,4.4-3.3
		c0.033-0.033,0.083-0.066,0.149-0.1C63.9,41.517,64,41.4,64.1,41.3c0.101-0.1,0.2-0.217,0.301-0.35c0.866-1,1.5-1.917,1.899-2.75
		l0.25-0.7c0.233-0.8,0.217-1.517-0.05-2.15l-0.15-0.3c-0.066-0.066-0.116-0.133-0.149-0.2l-0.55-0.65
		c-0.434-0.4-1.2-0.65-2.301-0.75c-1.6-0.133-2.449-0.217-2.55-0.25c-2.566-0.534-3.934-0.817-4.1-0.85l-5.5-0.6
		c0.033,0,0.083,0,0.149,0c0.634-0.033,1.567-0.033,2.801,0c1.166,0,3.416-0.067,6.75-0.2c2.966,0.1,5,0.833,6.1,2.2
		c0.967,1.167,1.35,2.533,1.15,4.1c-0.101,0.767-0.467,1.517-1.101,2.25c-0.767,0.867-1.333,1.517-1.7,1.95
		c-1.366,1.667-2.666,2.917-3.899,3.75c-0.2,0.167-0.533,0.351-1,0.55c-0.467,0.2-0.783,0.367-0.95,0.5
		c-0.233,0.167-0.517,0.45-0.85,0.851c-0.434,0.5-0.717,0.816-0.851,0.95c-0.6-0.367-1.033-0.634-1.3-0.801
		c-0.434-0.3-0.884-0.517-1.35-0.649c-0.2-0.066-0.434-0.15-0.7-0.25c-0.033,0-0.05,0.017-0.05,0.05
		c-0.4,0.833-0.584,1.533-0.551,2.1c0,0.134,0.034,0.284,0.101,0.45c0.233-0.033,0.483-0.083,0.75-0.149
		c0.3-0.034,0.583,0.017,0.85,0.149c0.134,0.066,0.367,0.184,0.7,0.351c0.566,0.233,1.167,0.333,1.8,0.3
		c0.4-0.066,0.983-0.217,1.75-0.45c0.4-0.1,0.783-0.233,1.15-0.4c0.733-0.333,1.416-0.75,2.05-1.25l1.25-1.3
		c0.6-0.666,1-0.934,1.2-0.8l-0.101,0.55H65.4c0.933,0.134,1.1,0.634,0.5,1.5c-0.467,0.733-1.217,1.367-2.25,1.9
		c-0.134,0.066-0.267,0.149-0.4,0.25c-1.2,0.6-1.917,0.983-2.15,1.149c-1.199,1.2-2.149,1.934-2.85,2.2
		c-0.366,0.134-0.884,0.15-1.55,0.05c-0.566-0.1-1.017-0.166-1.351-0.199c-0.033,0.267-0.066,0.566-0.1,0.899
		c-0.066,0.467-0.15,1-0.25,1.601c-0.1,0.933-0.517,2.267-1.25,4c-0.634,1.466-1.033,2.649-1.2,3.55c0.3-2.066,0.5-3.667,0.601-4.8
		c0.166-1.801,0.166-3.334,0-4.601c-0.034-0.233-0.067-0.434-0.101-0.6c-0.033-0.134-0.066-0.267-0.1-0.4
		c-0.134-0.033-0.25-0.066-0.351-0.1c-0.1-0.233-0.35-0.684-0.75-1.351c-0.3-0.533-0.466-1.017-0.5-1.449
		C51.35,50.017,51.35,49.866,51.35,49.7z M51.1,49.6c0,0.101,0,0.2,0,0.301c0,0.133,0.084,0.616,0.25,1.449
		c0.101,0.5,0.101,0.934,0,1.301c-0.3-0.101-0.55-0.233-0.75-0.4c-0.233-0.167-0.566-0.5-1-1c-0.5-0.533-0.85-0.967-1.05-1.3
		c-0.2-0.334-0.366-0.8-0.5-1.4c-0.133-0.7-0.25-1.217-0.35-1.55l0.649,0.2l0.351,0.1c0.8,1,1.25,1.55,1.35,1.65
		C50.35,49.25,50.7,49.467,51.1,49.6z M49.1,39.15c-0.433-0.067-0.767-0.134-1-0.2c-1.466-0.334-2.55-0.634-3.25-0.9
		c0.9,0.2,1.667,0.367,2.301,0.5C47.783,38.75,48.434,38.95,49.1,39.15z M29.85,5.55l-2.45,1.4c-1.633-0.4-3.5-0.367-5.6,0.1
		c-2.367,0.7-4.167,1.184-5.4,1.45l-3.45,0.8c-0.833,0.167-1.333,0.267-1.5,0.3c-0.1,0.033-0.2,0.083-0.3,0.15
		c-0.133,0-0.217,0.017-0.25,0.05c-2.066,0.9-2.65,2.333-1.75,4.3c0.267,0.566,0.817,1.167,1.65,1.8c1.1,0.9,1.733,1.434,1.9,1.6
		c0.333,0.333,0.85,0.917,1.55,1.75c0.667,0.8,1.2,1.4,1.6,1.8c0.566,0.567,1.167,1.034,1.8,1.4c0.767,0.466,1.6,0.783,2.5,0.95
		c0.533,0.1,1.8,0.2,3.8,0.3c0.133,0.033,0.267,0.05,0.4,0.05s0.467,0.067,1,0.2c0.4,0.1,0.717,0.133,0.95,0.1
		c0.1,0,0.233-0.017,0.4-0.05c0.267,0.067,0.55,0.133,0.85,0.2c0.8,0.2,1.467,0.3,2,0.3c-0.133,0.1-0.233,0.217-0.3,0.35H29.2
		l-0.15,0.1V25c-0.566,0.533-1.15,0.7-1.75,0.5c-0.566-0.3-0.95-0.517-1.15-0.65c-0.333-0.167-0.717-0.133-1.15,0.1
		c-0.433,0.3-0.733,0.483-0.9,0.55c-0.233,0.133-0.583,0.167-1.05,0.1c-0.267-0.067-0.5-0.117-0.7-0.15
		c-0.133-0.067-0.267-0.1-0.4-0.1c-0.867-0.2-1.567-0.35-2.1-0.45c-0.667-0.133-1.25-0.15-1.75-0.05
		c-0.467,0.066-0.85,0.217-1.15,0.45c0.066-0.4,0.083-0.767,0.05-1.1c-0.067-0.534-0.283-1.017-0.65-1.45
		c-0.867-0.733-1.533-1.367-2-1.9C14.117,20.617,13.633,20,12.9,19c-0.566-0.8-1.066-1.367-1.5-1.7c-0.1-0.066-0.25-0.15-0.45-0.25
		c-0.167-0.033-0.4-0.066-0.7-0.1c-0.5-0.067-0.833-0.1-1-0.1C8.65,16.983,8.167,17.033,7.8,17c-0.367,1.133-0.8,1.967-1.3,2.5
		c-0.3,0.367-0.783,0.517-1.45,0.45c-0.7-0.034-1.216,0.1-1.55,0.4c-0.4,0.367-0.783,1.083-1.15,2.15c-0.2,0.6-0.467,1.4-0.8,2.4
		c-0.767,2.1-1.267,3.717-1.5,4.85c0-0.1,0-0.217,0-0.35c-0.033-0.667-0.033-1.1,0-1.3c0.467-2.8,0.8-4.9,1-6.3
		c0.2-1.066,0.333-1.667,0.4-1.8c0.2-0.4,0.683-0.7,1.45-0.9c0.033,0,0.434-0.067,1.2-0.2c0.467-0.1,0.816-0.233,1.05-0.4
		c0.4-0.267,0.717-0.883,0.95-1.85s0.533-1.6,0.9-1.9c0.067-0.033,0.133-0.083,0.2-0.15c0.133-0.033,0.25-0.083,0.35-0.15
		c0.2-0.1,0.434-0.184,0.7-0.25C8.183,14,8.133,13.817,8.1,13.65c-0.1-0.833,0-1.583,0.3-2.25c0.167-0.4,0.55-0.95,1.15-1.65
		c0.567-0.7,1.034-1.183,1.4-1.45c0.533-0.367,1.383-0.533,2.55-0.5c1.367,0.034,2.25-0.017,2.65-0.15c0.1-0.033,1-0.45,2.7-1.25
		c1.2-0.566,2.15-0.867,2.85-0.9c0.433-0.033,1.233,0.05,2.4,0.25c1,0.167,1.8,0.167,2.4,0c0.067-0.033,0.533-0.233,1.4-0.6
		c0.6-0.267,1.083-0.383,1.45-0.35c0.3,0.034,0.6,0.2,0.9,0.5L29.85,5.55z M12.5,22.9c0.367,0.434,0.667,0.733,0.9,0.9
		c0.5,0.333,1.633,0.867,3.4,1.6c0.2,0.1,0.4,0.2,0.6,0.3c0.733,0.333,1.283,0.533,1.65,0.6c1.067,0.233,2.684,0.483,4.85,0.75
		c0.467,0.1,1.1,0.333,1.9,0.7c0.8,0.367,1.417,0.583,1.85,0.65c0.6,0.167,0.967,0.2,1.1,0.1c0.067-0.033,0.133-0.067,0.2-0.1
		c-0.133,0.567-0.3,1.067-0.5,1.5c-0.034,0-0.067,0-0.1,0c-0.7,0.133-2,0.05-3.9-0.25c-0.333-0.066-0.733-0.183-1.2-0.35
		c-0.667-0.233-1.067-0.367-1.2-0.4c-0.5-0.133-1.25-0.267-2.25-0.4c-1.033-0.133-1.8-0.283-2.3-0.45
		c-1.233-0.267-2.133-0.483-2.7-0.65c-0.466-0.133-0.883-0.316-1.25-0.55c-0.433-0.233-0.816-0.533-1.15-0.9
		c-0.8-0.9-1.417-2.017-1.85-3.35c-0.033-0.1-0.066-0.2-0.1-0.3c-0.167-0.6-0.267-1.133-0.3-1.6c-0.033-0.733,0.067-1.367,0.3-1.9
		c0.233,0.333,0.483,0.867,0.75,1.6c0.267,0.767,0.5,1.317,0.7,1.65C12.133,22.383,12.333,22.667,12.5,22.9z M19.9,59.35
		c-0.1-0.066-0.2-0.133-0.3-0.199c-0.533-0.367-0.917-0.601-1.15-0.7c-0.567-0.2-1.117-0.316-1.65-0.351c-0.2,0-0.383,0-0.55,0
		c0.067,0.2,0.2,0.367,0.4,0.5c0.233,0.134,0.617,0.351,1.15,0.65c0.3,0.233,0.5,0.467,0.6,0.7c0.033,0.066,0.067,0.149,0.1,0.25
		c0.033,0.2,0.067,0.467,0.1,0.8c0.066,0.566,0.033,1.434-0.1,2.6c-0.033,0.534-0.067,1.367-0.1,2.5c-0.066,1-0.2,1.817-0.4,2.45
		c-0.033-0.133-0.3-1.5-0.8-4.1c-0.3-1.566-0.867-2.834-1.7-3.8c-0.267-0.2-0.5-0.4-0.7-0.601L14.75,60
		c-0.167-0.566-0.333-0.884-0.5-0.95l-3.05-5.7c0.033,0.167,0.05,0.351,0.05,0.551C11.117,53.167,11,52.6,10.9,52.2
		c-0.633-0.867-0.967-1.667-1-2.4c0-0.2,0.017-0.383,0.05-0.55c-0.1-0.233-0.2-0.417-0.3-0.55l0.45,0.1
		c0.3-0.633,0.967-1.116,2-1.45c0.933-0.267,2.1-0.5,3.5-0.699c0.8-0.101,1.983-0.25,3.55-0.45c1.367-0.233,2.633-0.167,3.8,0.2
		c0.3,0.066,0.566,0.149,0.8,0.25l-4.3,0.55c-0.067,0-0.133,0.017-0.2,0.05h-0.2c-0.433,0.066-0.883,0.15-1.35,0.25
		c-0.333,0.066-0.65,0.134-0.95,0.2l-4.85,0.95l-0.3,0.1h-0.1l-1.3,0.2l1.55,3c0.5,1.166,1.167,2.083,2,2.75
		c0,0.033,0.017,0.066,0.05,0.1c0.6,0.434,1.267,0.767,2,1l2.5,0.3c0.067,0,0.15,0,0.25,0c0.034,0,0.067,0,0.1,0
		c-0.033,0.034-0.05,0.067-0.05,0.101c-0.233,0.434-0.583,0.733-1.05,0.899c-0.233,0.067-0.45,0.117-0.65,0.15
		c0.2,0.1,0.4,0.217,0.6,0.35c0.633,0.434,1.067,0.7,1.3,0.801c0.367,0.166,1.15,0.166,2.35,0c0.767-0.101,1.233-0.184,1.4-0.25
		c0.167-0.067,0.367-0.233,0.6-0.5c0.2-0.167,0.434-0.233,0.7-0.2c0.033,0.133,0.05,0.25,0.05,0.35c0,0.134-0.017,0.25-0.05,0.351
		c-0.1,0.133-0.2,0.267-0.3,0.399c-0.2,0.134-0.433,0.267-0.7,0.4c-0.667,0.333-1.367,0.533-2.1,0.6
		C20.483,59.583,20.2,59.517,19.9,59.35z M26.75,46.6c-0.032,0-0.065,0-0.1,0c0.035-0.001,0.068-0.018,0.1-0.05V46.6z M32.25,27.45
		c-0.4,0.367-0.95,0.833-1.65,1.4c-0.233,0.3-0.434,0.533-0.6,0.7c0.3-0.8,0.517-1.733,0.65-2.8c0-0.2,0.017-0.383,0.05-0.55
		l4.35-3.6c-0.133,0.533-0.483,1.3-1.05,2.3c-0.367,0.9-0.7,1.517-1,1.85C32.833,26.95,32.583,27.183,32.25,27.45z M12.55,54.45
		L12.5,54.35c-0.133-0.199-0.267-0.383-0.4-0.55l0.5,0.75l0.05,0.101V54.6C12.617,54.533,12.583,54.483,12.55,54.45z"/>
	<path style="fill-rule:evenodd;clip-rule:evenodd;fill:#D7CDBE;" d="M20.7,17.3c-0.667-0.2-1.2-0.333-1.6-0.4
		c-2.167-0.2-3.717-0.467-4.65-0.8l-0.2-0.05l0.1-0.05l0.45-0.1l0.45,0.05c0.233,0.033,0.733,0.15,1.5,0.35
		c0.633,0.133,1.083,0.184,1.35,0.15c0.267-0.034,0.683-0.2,1.25-0.5c0.533-0.267,0.95-0.417,1.25-0.45
		c0.6-0.033,1.35,0.117,2.25,0.45c1.367,0.533,2.1,0.816,2.2,0.85c0.534,0.133,1.217,0.233,2.05,0.3c0.233,0.033,0.733,0,1.5-0.1
		c0.633-0.067,1.117-0.05,1.45,0.05l0.65-0.15l1.2-0.3l0.1-0.05l-0.2,0.75c-0.2,0.434-0.533,0.7-1,0.8
		c-0.7,0.066-1.283,0.117-1.75,0.15L24.7,18.3c-0.167-0.033-0.333-0.05-0.5-0.05c-0.067-0.033-0.133-0.05-0.2-0.05h-0.05l-0.75-0.15
		l-1.25-0.35l-1.05-0.35L20.7,17.3z M40.8,12.35l-1.1,1.35c-0.334,0.533-0.934,1.15-1.8,1.85c-0.134,0.1-0.267,0.2-0.4,0.3
		c-0.6,0.5-1.066,0.85-1.4,1.05c-0.5,0.333-1.017,0.533-1.55,0.6l-0.75-0.4v-0.3c-0.1-0.667-1.25-1.25-3.45-1.75
		c-2.467-0.533-3.783-0.883-3.95-1.05c0.467,0.1,1.267,0.233,2.4,0.4c1.034,0.167,1.833,0.317,2.4,0.45
		c0.9,0.233,1.483,0.367,1.75,0.4c0.5,0.033,1.083-0.083,1.75-0.35c1.767-0.7,3.833-1.8,6.2-3.3c0.033-0.033,0.066-0.05,0.1-0.05
		l0.05-0.05v0.1L41,11.75v0.15l-0.05,0.05L40.8,12.35z M15.75,51.8c-0.367-0.033-0.75-0.033-1.15,0c-0.133,0-0.283,0-0.45,0
		l0.75-0.35c0.2,0.066,0.367,0.116,0.5,0.149c0.035,0.001,0.068,0.019,0.1,0.051l0.3,0.149c0.3,0.033,1.467,0.233,3.5,0.601
		c1.434,0.233,2.633,0.283,3.6,0.149c0.767-0.1,1.35-0.217,1.75-0.35c0.533-0.2,1.017-0.533,1.45-1
		c0.133-0.167,0.417-0.7,0.85-1.601c0.367-0.767,0.667-1.216,0.9-1.35l0.05,0.55c0.133,0.9,0.15,1.601,0.05,2.101
		c-0.067,0.267-0.2,0.55-0.4,0.85c-0.167,0.233-0.383,0.483-0.65,0.75c-0.6,0.134-1.533,0.267-2.8,0.4l-0.35,0.05
		c-1.033,0.233-1.817,0.383-2.35,0.45c-0.967,0.199-1.767,0.25-2.4,0.149c-0.667-0.1-1.467-0.517-2.4-1.25l-0.8-0.5H15.75z"/>
	<path style="fill-rule:evenodd;clip-rule:evenodd;fill:#898176;" d="M52.1,28.8c0.5,1.633-0.783,2.217-3.85,1.75
		c-0.033-0.333-0.15-0.95-0.35-1.85l1.399-1.45c0.334-0.367,0.867-0.283,1.601,0.25C51.6,27.967,52,28.4,52.1,28.8z M65.8,44.95
		c0.033-0.334,0.017-0.634-0.05-0.9c-0.267,0.233-0.55,0.517-0.85,0.851L64.85,44.6l1.351-1.05c-0.101,0.601-0.184,0.983-0.25,1.15
		C65.917,44.8,65.866,44.884,65.8,44.95z M50.25,52.9c-0.066-0.067-0.134-0.117-0.2-0.15l1.2,0.05
		c0.033-0.066,0.066-0.116,0.1-0.149c0.101-0.367,0.101-0.801,0-1.301c-0.166-0.833-0.25-1.316-0.25-1.449c0-0.101,0-0.2,0-0.301
		c-0.033-1.433,0.184-2.75,0.65-3.949c0.1-0.267,0.217-0.517,0.35-0.75h0.051L51.9,45.8c-0.034,0.066-0.051,0.117-0.051,0.15
		l-0.1,0.25c-0.033,0.233-0.116,0.899-0.25,2c-0.1,0.6-0.15,1.1-0.15,1.5c0,0.166,0,0.316,0,0.45c0.034,0.433,0.2,0.916,0.5,1.449
		c0.4,0.667,0.65,1.117,0.75,1.351V53c0.101,0.3,0.2,0.634,0.301,1c0.466,2.134,0.3,4.934-0.5,8.4
		c-0.067-0.567,0.017-1.65,0.25-3.25c0.166-1.367,0.166-2.4,0-3.101C52.483,55.583,52.134,55,51.6,54.3
		C51.1,53.667,50.65,53.2,50.25,52.9z M46.5,30.35c-0.066,0.367-0.233,0.583-0.5,0.65c-0.267,0.1-0.467,0.05-0.6-0.15
		c-0.134-0.3-0.233-0.517-0.301-0.65l1.5-0.75C46.566,29.65,46.533,29.95,46.5,30.35z M71.65,34
		c-0.067,0.067-0.267,0.183-0.601,0.35c-0.333,0.167-0.55,0.25-0.649,0.25c-0.267-0.033-0.517-0.2-0.75-0.5
		c-0.233-0.367-0.4-0.617-0.5-0.75c-1.534-1.867-3.034-2.917-4.5-3.15c-0.634-0.067-1.101-0.117-1.4-0.15l-2.15,0.1
		c0.867-0.133,1.934-0.167,3.2-0.1c0.7,0,1.75,0.05,3.15,0.15c0.866,0,1.35,0.017,1.45,0.05c0.366,0.067,0.649,0.267,0.85,0.6
		c1.167,1.033,1.8,1.733,1.9,2.1C71.783,33.45,71.783,33.8,71.65,34z M71.7,37.05C71.366,37.384,71,37.366,70.6,37
		c-0.333-0.3-0.517-0.65-0.55-1.05L70.7,35.1c0.267,0.2,0.533,0.5,0.8,0.9C71.833,36.467,71.9,36.816,71.7,37.05z M69.2,38.7
		c0.3,0.3,0.8,0.633,1.5,1c0.566,0.366,0.816,0.866,0.75,1.5c-0.066,0.633-0.367,1.3-0.9,2c-0.6,0.767-1.2,1.1-1.8,1
		c-0.533-0.101-0.816-0.483-0.85-1.15c-0.034-0.267,0.017-0.816,0.149-1.649L69.2,38.7z M30.45,1.25c0.4,0,0.683,0.2,0.85,0.6
		c0.167,0.4,0.117,0.75-0.15,1.05c-0.233,0.267-0.583,0.383-1.05,0.35C29.567,3.117,29.167,3.033,28.9,3
		c-0.5-0.067-0.833-0.133-1-0.2c-0.3-0.1-0.45-0.333-0.45-0.7c-0.067-0.567,0.183-0.967,0.75-1.2L30.45,1.25z M7.55,14.45
		c-0.1,0.066-0.216,0.117-0.35,0.15c-0.067,0.033-0.15,0.066-0.25,0.1c-0.4,0.133-0.717,0.133-0.95,0
		c-0.3-0.133-0.45-0.333-0.45-0.6c0.133-0.4,0.217-0.75,0.25-1.05l1.95,1.2C7.683,14.317,7.617,14.383,7.55,14.45z M19.05,4.25
		c-0.8,1.233-1.75,1.867-2.85,1.9c-0.667,0-1.2,0.033-1.6,0.1c-0.1,0.033-0.8,0.067-2.1,0.1c-0.867,0.033-1.533,0.217-2,0.55
		c-0.467,0.6-0.85,1.067-1.15,1.4c-0.567,0.6-1.1,0.667-1.6,0.2C7.383,8.133,7.433,7.533,7.9,6.7c0.7-1.167,1.15-1.817,1.35-1.95
		c0.167-0.133,0.3-0.2,0.4-0.2c0.067,0,0.233,0.017,0.5,0.05c0.4,0.033,0.75,0,1.05-0.1c0.2-0.067,0.517-0.217,0.95-0.45
		c1.733-0.833,3.5-1.517,5.3-2.05L19.05,4.25z M18.1,24.85c0.9,0.467,1.667,0.717,2.3,0.75l-2.65-0.05
		c-0.1,0.067-0.217,0.117-0.35,0.15c-0.2-0.1-0.4-0.2-0.6-0.3c-1.767-0.733-2.9-1.267-3.4-1.6c-0.233-0.167-0.533-0.466-0.9-0.9
		c0.067-0.5,0.217-0.833,0.45-1c0.333,0.333,0.75,0.633,1.25,0.9c0.3,0.133,0.8,0.35,1.5,0.65c0.3,0.167,0.733,0.417,1.3,0.75
		c0.033,0.333,0.017,0.7-0.05,1.1C17.25,25.067,17.633,24.917,18.1,24.85z M26.9,32c0.7-0.8,1.133-1.35,1.3-1.65
		c0.1-0.133,0.183-0.283,0.25-0.45c0.2-0.433,0.367-0.933,0.5-1.5c0.033-0.233,0.066-0.467,0.1-0.7c0.2-1.1,0.2-2,0-2.7v-0.05
		l0.15-0.1h0.05l0.45-0.35c0.1-0.033,0.183-0.05,0.25-0.05c0.3-0.034,0.6-0.1,0.9-0.2c-0.067,0.533-0.117,1.183-0.15,1.95
		c-0.034,0.167-0.05,0.35-0.05,0.55c-0.133,1.067-0.35,2-0.65,2.8c-0.067,0.067-0.117,0.15-0.15,0.25c-0.1,0.233-0.217,0.5-0.35,0.8
		c-0.333,0.633-0.817,1.3-1.45,2c-1.066,1.233-1.933,1.7-2.6,1.4c0.133-0.467,0.566-1.083,1.3-1.85
		C26.783,32.117,26.833,32.067,26.9,32z M22.35,25.45c0.033,0.466,0.017,0.767-0.05,0.9c-0.1,0.233-0.383,0.333-0.85,0.3
		c-0.867,0-1.233-0.233-1.1-0.7l1.6-0.6C22.083,25.35,22.217,25.383,22.35,25.45z M23.95,4.3c-0.034,0-0.25-0.033-0.65-0.1
		c-0.966-0.233-1.566-0.434-1.8-0.6c-0.333-0.3-0.433-0.867-0.3-1.7L22.75,0c0.567,0.267,1.05,0.833,1.45,1.7
		c0.4,0.9,0.433,1.617,0.1,2.15C24.167,4.15,24.05,4.3,23.95,4.3z M14.75,60.05c0.033,0.101,0.067,0.217,0.1,0.351
		c0.1,0.466,0.233,1.05,0.4,1.75c0.167,0.699,0.367,1.816,0.6,3.35c-0.4-2.134-1.167-3.85-2.3-5.15
		c-0.033-0.033-0.066-0.066-0.1-0.1c-0.767-0.8-1.167-1.233-1.2-1.3c-0.367-0.434-0.6-0.95-0.7-1.55
		c-0.066-0.867-0.117-1.634-0.15-2.301c-0.066-0.466-0.117-0.866-0.15-1.199c0-0.2-0.017-0.384-0.05-0.551l3.05,5.7
		c0.167,0.066,0.333,0.384,0.5,0.95V60.05z M12.55,45.55c-0.267,0.367-0.733,0.517-1.4,0.45c-0.1-0.134-0.15-0.3-0.15-0.5l1.1-1.05
		C12.7,44.816,12.85,45.184,12.55,45.55z M15.35,45.55c-0.233-0.833-0.217-1.383,0.05-1.649l1.35,0.699c0.2,0.4,0.1,0.667-0.3,0.801
		C16.283,45.434,15.917,45.483,15.35,45.55z M17.25,43.25l4.5-0.7c1.933-0.033,3.017,0.684,3.25,2.15
		c-1.1,0.399-2.133,0.517-3.1,0.35c-0.5-0.166-0.867-0.283-1.1-0.35c-0.433-0.101-0.816-0.117-1.15-0.05L17.25,43.25z M29.4,46.15
		l0.3,0.949c0.066,0.367,0,0.667-0.2,0.9c-0.133-0.1-0.45-0.767-0.95-2c-0.433-1-0.9-1.434-1.4-1.3l-0.75-1.3
		c0.333,0.133,0.85,0.233,1.55,0.3c0.6,0.133,0.983,0.416,1.15,0.85C29.233,44.884,29.333,45.417,29.4,46.15z M27.75,53.25
		c0.8-0.566,1.3-0.9,1.5-1c0.667,1.167,0.05,2.066-1.85,2.7c-1.133,0.467-2,0.767-2.6,0.899c-0.066,0.034-1.05,0.184-2.95,0.45
		l4.3-2.3C26.583,53.934,27.117,53.684,27.75,53.25z M12.55,54.45l0.05,0.1l-0.5-0.75c0.133,0.167,0.267,0.351,0.4,0.55L12.55,54.45
		z"/>
	<path style="fill-rule:evenodd;clip-rule:evenodd;fill:#A99F92;" d="M8.8,12.8c-0.2-1.367,0.583-2.383,2.35-3.05
		c0.1-0.067,0.2-0.117,0.3-0.15c0.167-0.033,0.667-0.133,1.5-0.3l3.45-0.8c1.233-0.267,3.033-0.75,5.4-1.45
		c2.1-0.466,3.967-0.5,5.6-0.1l2.45-1.4l0.5-0.3c0.267,0.033,0.566,0.083,0.9,0.15c-0.967,1.4-2.167,2.3-3.6,2.7
		c-1.1,0.433-1.917,0.65-2.45,0.65c-0.167,0-0.434-0.033-0.8-0.1c-0.333-0.1-0.6-0.133-0.8-0.1c-0.533,0.067-1.2,0.367-2,0.9
		c-0.934,0.633-1.55,1-1.85,1.1c-0.333,0.133-1.6,0.233-3.8,0.3c-1.967,0.066-3,0.3-3.1,0.7c-0.067,0.267,0.183,0.65,0.75,1.15
		c0.7,0.566,1.083,0.917,1.15,1.05c0.167,0.467,0.333,1.2,0.5,2.2L14.8,15.9c-0.333-0.2-0.6-0.316-0.8-0.35L14.35,16l-0.1,0.05
		l0.2,0.05c0.433,0.433,1.05,0.85,1.85,1.25c0.233,0.1,0.5,0.217,0.8,0.35l-0.6-0.15c-0.2-0.033-0.383-0.083-0.55-0.15
		c-0.434-0.133-0.8-0.35-1.1-0.65c-0.467-0.533-0.867-0.967-1.2-1.3c-0.533-0.534-1.25-1.05-2.15-1.55
		C10.567,13.4,9.667,13.033,8.8,12.8z M38.9,16.35l-0.45,0.45c-0.167,0.1-0.316,0.217-0.45,0.35c-0.333,0.267-0.616,0.5-0.85,0.7
		L36.6,18.3h-0.05c-0.434,0.267-0.8,0.617-1.1,1.05c-0.367,0.566-0.75,0.9-1.15,1c-0.5,0.1-0.8-0.2-0.9-0.9
		c-0.033-0.233,0.05-0.684,0.25-1.35c0.133-0.533,0.1-0.95-0.1-1.25l0.25-0.05v0.3l0.75,0.4c0.533-0.067,1.05-0.267,1.55-0.6
		c0.334-0.2,0.801-0.55,1.4-1.05c0.134-0.1,0.267-0.2,0.4-0.3c0.866-0.7,1.466-1.316,1.8-1.85l1.1-1.35
		C40.5,13.217,39.866,14.55,38.9,16.35z M66.55,35.6c-0.267,0.5-0.6,0.884-1,1.15c-0.399,0.3-0.967,0.533-1.7,0.7
		c0.434-0.667,0.7-1.3,0.801-1.9c-0.233-0.233-0.767-0.416-1.601-0.55c-1.133-0.233-1.717-0.35-1.75-0.35
		c-0.633-0.2-2.033-0.417-4.2-0.65c-2.033-0.133-3.566-0.283-4.6-0.45c-1.9-0.333-3.3-0.95-4.2-1.85l0.55-0.2l2.351,0.25l5.5,0.6
		c0.166,0.033,1.533,0.316,4.1,0.85c0.101,0.033,0.95,0.117,2.55,0.25c1.101,0.1,1.867,0.35,2.301,0.75l0.55,0.65
		c0.033,0.066,0.083,0.133,0.149,0.2l0.15,0.3C66.5,35.417,66.517,35.5,66.55,35.6z M19.25,18.1l0.7-0.45l0.05-0.1l0.7-0.25
		l0.2,0.05l0.25,0.1c-0.4,0.3-0.8,0.5-1.2,0.6C19.683,18.117,19.45,18.133,19.25,18.1z M31.8,17.3l0.3,0.1
		c0.066,0.434-0.2,0.917-0.8,1.45c-0.533,0.433-1.033,0.717-1.5,0.85c-0.367,0.133-0.867,0.1-1.5-0.1c-1-0.267-1.533-0.4-1.6-0.4
		c-0.1,0-0.184,0-0.25,0l-0.75-0.05c-0.067-0.033-0.133-0.05-0.2-0.05c-0.3-0.033-0.567-0.083-0.8-0.15l-0.35-0.1
		c-0.033,0-0.067,0-0.1,0L24.2,18.8c-0.267-0.1-0.6-0.35-1-0.75l0.75,0.15H24c0.067,0,0.133,0.017,0.2,0.05
		c0.167,0,0.333,0.017,0.5,0.05l4.35-0.05c0.467-0.033,1.05-0.083,1.75-0.15C31.267,18,31.6,17.733,31.8,17.3z M13.7,50.5
		c-0.434-0.1-0.75-0.184-0.95-0.25c-0.367-0.1-0.633-0.267-0.8-0.5c-0.2-0.267-0.217-0.634-0.05-1.1l4.85-0.95
		c0.567-0.101,1.167-0.217,1.8-0.351c0.167-0.033,0.333-0.066,0.5-0.1h0.2c0.067-0.033,0.133-0.05,0.2-0.05l4.3-0.55
		c0.4-0.067,0.8-0.101,1.2-0.101c0.066,0,0.133,0,0.2,0c0.934,0,1.567,0.05,1.9,0.15c0.034,0,0.067,0.017,0.1,0.05h0.05l-5.9,0.95
		c-0.466,0.066-0.917,0.233-1.35,0.5L18.8,48.85c-0.533,0.267-1.383,0.483-2.55,0.65c-1.233,0.167-2.1,0.35-2.6,0.55L13.7,50.5z
		 M26,53.3c-2,0.601-3.8,1-5.4,1.2c-1.9,0.233-2.9,0.066-3-0.5c0.533-0.167,1.617-0.316,3.25-0.45c1.467-0.133,2.55-0.35,3.25-0.649
		c1.267-0.134,2.2-0.267,2.8-0.4l-0.3,0.3c-0.067,0.033-0.133,0.084-0.2,0.15C26.267,53.083,26.133,53.2,26,53.3z"/>
	<path style="fill-rule:evenodd;clip-rule:evenodd;fill:#8C847A;" d="M29.55,24.5c-0.533,0-1.2-0.1-2-0.3
		c-0.3-0.067-0.583-0.133-0.85-0.2c-0.7-0.167-1.2-0.25-1.5-0.25c-0.467,0-0.883-0.017-1.25-0.05c-2-0.1-3.267-0.2-3.8-0.3
		c-0.9-0.167-1.733-0.483-2.5-0.95c-0.633-0.367-1.233-0.833-1.8-1.4c-0.4-0.4-0.934-1-1.6-1.8c-0.7-0.833-1.217-1.417-1.55-1.75
		c-0.167-0.167-0.8-0.7-1.9-1.6c-0.833-0.633-1.383-1.233-1.65-1.8c-0.167-0.467-0.283-0.9-0.35-1.3c0.867,0.233,1.767,0.6,2.7,1.1
		c0.9,0.5,1.617,1.017,2.15,1.55c0.333,0.333,0.733,0.767,1.2,1.3c0.3,0.3,0.667,0.517,1.1,0.65c0.167,0.067,0.35,0.117,0.55,0.15
		l0.6,0.15c1.133,0.233,1.85,0.367,2.15,0.4c0.2,0.033,0.433,0.017,0.7-0.05c0.4-0.1,0.8-0.3,1.2-0.6l0.8,0.25l1.25,0.35
		c0.4,0.4,0.733,0.65,1,0.75l0.05,0.05c0.033,0,0.067,0,0.1,0l0.35,0.1c0.233,0.066,0.5,0.117,0.8,0.15
		c0.067,0,0.133,0.017,0.2,0.05l0.75,0.05c0.066,0,0.15,0,0.25,0c0.066,0,0.6,0.133,1.6,0.4c0.633,0.2,1.133,0.233,1.5,0.1
		c0.467-0.133,0.967-0.417,1.5-0.85c0.6-0.533,0.867-1.017,0.8-1.45l-0.3-0.1l0.2-0.75l-0.1,0.05l-1.2,0.3
		c-0.4-0.2-0.767-0.383-1.1-0.55l-1.3-0.55c-0.267-0.1-0.5-0.167-0.7-0.2h0.1c0.033,0,0.066,0,0.1,0
		c0.467,0.066,1.284,0.15,2.45,0.25c0.1,0,0.217,0,0.35,0c1.566,0.167,2.55,0.5,2.95,1c0.2,0.3,0.233,0.717,0.1,1.25
		c-0.2,0.667-0.283,1.117-0.25,1.35c0.1,0.7,0.4,1,0.9,0.9c0.4-0.1,0.783-0.434,1.15-1c0.3-0.434,0.666-0.783,1.1-1.05h0.05
		l0.551-0.45c0.233-0.2,0.517-0.434,0.85-0.7c0.134-0.133,0.283-0.25,0.45-0.35l0.45-0.45l-0.051,0.1
		c-0.033,0.1-0.066,0.216-0.1,0.35c-0.134,0.367-0.316,0.883-0.55,1.55c-0.3,0.767-0.617,1.3-0.95,1.6
		c-0.3,0.267-0.733,0.533-1.3,0.8c-0.667,0.267-1.117,0.483-1.35,0.65c-0.1,0.067-0.817,0.684-2.15,1.85c-0.5,0.467-1.034,0.8-1.6,1
		c-0.3,0.1-0.6,0.167-0.9,0.2c-0.067,0-0.15,0.017-0.25,0.05C29.633,24.5,29.583,24.5,29.55,24.5z M63.85,37.45
		c0.733-0.167,1.301-0.4,1.7-0.7c0.4-0.267,0.733-0.65,1-1.15c0.167,0.601,0.167,1.233,0,1.9l-0.25,0.7
		c-0.399,0.833-1.033,1.75-1.899,2.75C64.3,41.083,64.2,41.2,64.1,41.3C64,41.4,63.9,41.517,63.8,41.65
		c-0.066,0.033-0.116,0.066-0.149,0.1c-1.601,1.667-3.067,2.767-4.4,3.3c-0.434,0.167-0.833,0.267-1.2,0.3
		c-0.833,0.101-1.883,0.084-3.149-0.05c-0.067,0-0.134,0-0.2,0c-0.267-0.066-0.55-0.116-0.851-0.149
		c-0.1-0.034-0.183-0.051-0.25-0.051C52,44.833,50.7,44.467,49.7,44c-1.167-0.533-2.334-1.167-3.5-1.9
		c-1.533-0.966-2.55-1.816-3.05-2.55c-0.567-0.8-0.934-1.583-1.101-2.35C42.017,37.134,42,37.066,42,37
		c-0.267-1.533,0.05-2.817,0.95-3.85l0.35,0.15c-0.267,0.367-0.05,0.917,0.65,1.65c0.6,0.566,1.166,1,1.7,1.3
		c0.533,0.267,1.216,0.45,2.05,0.55c0.467,0.033,1.184,0.084,2.149,0.15c0.634,0.066,1.551,0.149,2.75,0.25
		c1.101,0.1,2.017,0.217,2.75,0.35c0.5,0.101,1.301,0.283,2.4,0.55c1,0.2,1.8,0.2,2.4,0c0.3-0.1,0.949-0.517,1.949-1.25
		c0.967-0.6,1.634-0.783,2-0.55c-0.166,0.434-0.483,0.884-0.949,1.351L63.85,37.45z M49.1,39.15c0.7,0.133,1.65,0.267,2.851,0.399
		L53,39.7l0.65-0.2c-1.301-0.033-2.784-0.2-4.45-0.5c-0.3-0.066-0.983-0.217-2.05-0.45c-0.634-0.133-1.4-0.3-2.301-0.5
		c0.7,0.267,1.784,0.566,3.25,0.9C48.333,39.017,48.667,39.083,49.1,39.15z M44.1,37.9c0.101,0.033,0.217,0.066,0.351,0.1h0.05
		C44.366,37.967,44.233,37.934,44.1,37.9z M59.55,38.85c-1.399-0.166-2.383-0.216-2.95-0.149l-1.8,0.6c0.7,0,1.55,0.117,2.55,0.351
		c0.467-0.034,1.084-0.067,1.851-0.101c0.6-0.066,1.166-0.283,1.7-0.649L59.55,38.85z M15.8,55.8c-0.767-0.267-1.45-0.633-2.05-1.1
		c-0.833-0.667-1.5-1.584-2-2.75l-1.55-3l1.3-0.2h0.1l0.3-0.1c-0.167,0.466-0.15,0.833,0.05,1.1c0.167,0.233,0.433,0.4,0.8,0.5
		c0.2,0.066,0.517,0.15,0.95,0.25l0.05,0.05c0.333,0.134,0.9,0.483,1.7,1.05H15.4c-0.133-0.033-0.3-0.083-0.5-0.149l-0.75,0.35
		c0.167,0,0.317,0,0.45,0c0.4-0.033,0.783-0.033,1.15,0l0.85,0.5c0.933,0.733,1.733,1.15,2.4,1.25c0.633,0.101,1.433,0.05,2.4-0.149
		c0.533-0.067,1.317-0.217,2.35-0.45l0.35-0.05c-0.7,0.3-1.783,0.517-3.25,0.649c-1.633,0.134-2.717,0.283-3.25,0.45
		c0.1,0.566,1.1,0.733,3,0.5c1.6-0.2,3.4-0.6,5.4-1.2c-2.133,1.8-4.583,2.733-7.35,2.8c-0.033,0-0.066,0-0.1,0
		c-0.1,0-0.183,0-0.25,0L15.8,55.8z"/>
	<path style="fill-rule:evenodd;clip-rule:evenodd;fill:#6D655A;" d="M65.4,46.55H65.35L65.45,46c-0.2-0.134-0.601,0.134-1.2,0.8
		L63,48.1c-0.634,0.5-1.316,0.917-2.05,1.25c0.533-0.566,1.25-1.383,2.149-2.449c0.667-0.801,1.267-1.467,1.801-2
		c0.3-0.334,0.583-0.617,0.85-0.851c0.066,0.267,0.083,0.566,0.05,0.9C65.767,45.417,65.634,45.95,65.4,46.55z M55.25,54.3
		c0.033-0.333,0.066-0.633,0.1-0.899c0.334,0.033,0.784,0.1,1.351,0.199c0.666,0.101,1.184,0.084,1.55-0.05
		c0.7-0.267,1.65-1,2.85-2.2c0.233-0.166,0.95-0.55,2.15-1.149c-0.267,0.333-0.65,0.816-1.15,1.45
		c-0.233,0.333-0.466,0.583-0.699,0.75c-0.134,0.1-0.45,0.25-0.95,0.449c-0.3,0.134-0.7,0.367-1.2,0.7
		c-0.5,0.367-0.884,0.601-1.15,0.7c-0.3,0.134-0.683,0.2-1.149,0.2C56.483,54.417,55.917,54.366,55.25,54.3z M52.6,52.95
		c0.101,0.033,0.217,0.066,0.351,0.1c0.033,0.134,0.066,0.267,0.1,0.4c0.033,0.166,0.066,0.366,0.101,0.6
		C53.05,54.017,52.967,54,52.9,54c-0.101-0.366-0.2-0.7-0.301-1V52.95z M51.35,52.65c-0.033,0.033-0.066,0.083-0.1,0.149l-1.2-0.05
		c0.066,0.033,0.134,0.083,0.2,0.15c-0.1-0.067-0.167-0.101-0.2-0.101c-0.366-0.166-0.967-0.267-1.8-0.3
		c-0.833-0.066-1.434-0.167-1.8-0.3c-0.566-0.267-0.917-0.7-1.05-1.3c-0.067-0.733-0.117-1.284-0.15-1.65
		c-0.233-0.833-0.4-1.467-0.5-1.9c-0.2-0.866-0.267-1.8-0.2-2.8l0.2-0.149c0.5,0.199,1.467,0.85,2.9,1.949
		c0.3,0.233,0.533,0.517,0.699,0.851L47.7,47c0.1,0.333,0.217,0.85,0.35,1.55c0.134,0.601,0.3,1.066,0.5,1.4
		c0.2,0.333,0.55,0.767,1.05,1.3c0.434,0.5,0.767,0.833,1,1C50.8,52.417,51.05,52.55,51.35,52.65z M13.55,26.85
		c0.367,0.233,0.784,0.417,1.25,0.55c0.567,0.167,1.467,0.383,2.7,0.65c0.5,0.167,1.267,0.317,2.3,0.45c1,0.133,1.75,0.267,2.25,0.4
		c0.133,0.033,0.534,0.167,1.2,0.4c0.467,0.167,0.867,0.284,1.2,0.35c1.9,0.3,3.2,0.383,3.9,0.25c0.033,0,0.066,0,0.1,0
		c-0.067,0.167-0.15,0.317-0.25,0.45c-0.167,0.3-0.6,0.85-1.3,1.65c-0.3,0.033-0.533,0.083-0.7,0.15c-1,0.267-2.034,0.283-3.1,0.05
		c-1.067-0.233-2-0.684-2.8-1.35c-0.167-0.133-0.4-0.4-0.7-0.8c-0.233-0.333-0.467-0.566-0.7-0.7c-0.4-0.2-0.95-0.35-1.65-0.45
		c-0.933-0.167-1.5-0.283-1.7-0.35c-0.566-0.167-1.017-0.433-1.35-0.8C14.033,27.583,13.817,27.283,13.55,26.85z M10.45,22.3
		c-0.6-0.867-0.9-1.55-0.9-2.05c0.2,0.1,0.4,0.25,0.6,0.45C10.183,21.167,10.283,21.7,10.45,22.3z M23.85,58.15
		c0.033-0.101,0.05-0.217,0.05-0.351c0.067,0,0.117,0,0.15,0C23.983,57.934,23.917,58.05,23.85,58.15z M16.8,58.1
		c0.167,0.067,0.333,0.134,0.5,0.2c0.233,0.066,0.567,0.233,1,0.5c0.4,0.233,0.733,0.384,1,0.45c0.2,0.033,0.4,0.066,0.6,0.1
		c0.3,0.167,0.583,0.233,0.85,0.2c0.733-0.066,1.433-0.267,2.1-0.6c0.267-0.134,0.5-0.267,0.7-0.4c-0.9,1-2.083,1.601-3.55,1.8
		c-0.367,0.034-0.867-0.017-1.5-0.149c-0.033-0.101-0.067-0.184-0.1-0.25c-0.1-0.233-0.3-0.467-0.6-0.7
		c-0.533-0.3-0.917-0.517-1.15-0.65c-0.2-0.133-0.333-0.3-0.4-0.5C16.417,58.1,16.6,58.1,16.8,58.1z M13.55,60.35
		c-0.3,0.034-0.55,0-0.75-0.1c-0.7-0.3-1.35-1.333-1.95-3.1c-0.733-1.733-1.167-3.034-1.3-3.9l1.85,1.85
		c0.033,0.667,0.083,1.434,0.15,2.301c0.1,0.6,0.333,1.116,0.7,1.55c0.033,0.066,0.433,0.5,1.2,1.3
		C13.483,60.283,13.517,60.316,13.55,60.35z M14.75,60.05V60l0.05,0.05H14.75z M29.5,30.6c0.133-0.3,0.25-0.567,0.35-0.8
		c0.033-0.1,0.083-0.183,0.15-0.25c0.167-0.167,0.367-0.4,0.6-0.7c0.7-0.567,1.25-1.033,1.65-1.4l-0.4,1.8
		c-0.367,0.3-0.9,0.617-1.6,0.95C29.983,30.333,29.733,30.467,29.5,30.6z"/>
	<path style="fill-rule:evenodd;clip-rule:evenodd;fill:#776E62;" d="M23.95,23.7c0.367,0.033,0.783,0.05,1.25,0.05
		c0.3,0,0.8,0.083,1.5,0.25c-0.167,0.033-0.3,0.05-0.4,0.05c-0.233,0.034-0.55,0-0.95-0.1c-0.533-0.133-0.867-0.2-1-0.2
		S24.083,23.733,23.95,23.7z M21.95,17.7l-0.8-0.25l-0.25-0.1L21.95,17.7z M19.95,17.65l-0.7,0.45c-0.3-0.033-1.017-0.167-2.15-0.4
		c-0.3-0.133-0.567-0.25-0.8-0.35c0.4-0.033,1.05,0.033,1.95,0.2l1.1,0.05C19.55,17.6,19.75,17.617,19.95,17.65z"/>
</g>
</svg>
