<?xml version="1.0" encoding="iso-8859-1"?>
<!-- Generator: Adobe Illustrator 15.1.0, SVG Export Plug-In . SVG Version: 6.00 Build 0)  -->
<!DOCTYPE svg PUBLIC "-//W3C//DTD SVG 1.1//EN" "http://www.w3.org/Graphics/SVG/1.1/DTD/svg11.dtd">
<svg version="1.1" id="Layer_1" xmlns="http://www.w3.org/2000/svg" xmlns:xlink="http://www.w3.org/1999/xlink" x="0px" y="0px"
	 width="49.55px" height="66.15px" viewBox="0 0 49.55 66.15" style="enable-background:new 0 0 49.55 66.15;" xml:space="preserve"
	>
<g>
	<path style="fill-rule:evenodd;clip-rule:evenodd;fill:#C5BBAE;" d="M43.6,48.8c-0.767-0.467-2.183-0.833-4.25-1.1
		c-1.966-0.2-2.983-0.316-3.05-0.351c1.601-0.466,3.316-0.383,5.15,0.25c1.934,0.067,4.633-1.517,8.1-4.75v0.2L49.5,43.3v0.15
		c-0.033,0.066-0.05,0.149-0.05,0.25c-0.3,0.934-1.15,2.1-2.55,3.5c-1.267,1.3-2.101,2.017-2.5,2.149
		c-0.301-0.1-0.534-0.216-0.7-0.35L43.6,48.8z M36.7,10.7l-1.5,0.2c-3.233,0.4-6.017,0.55-8.351,0.45l-1.05-0.3
		c-1-0.433-2.9-0.767-5.7-1c-0.467-0.133-1.133-0.6-2-1.4c-0.3-0.467-0.55-0.917-0.75-1.35C18.017,7.7,18.9,8.25,20,8.95
		c0.9,0.466,1.733,0.7,2.5,0.7c5.9,0,9.733-0.2,11.5-0.6c1.467-0.333,2.517-1.15,3.15-2.45l0.3-0.05L37.5,6.5
		c0.033,0.033,0.066,0.083,0.1,0.15C37.767,7.05,37.9,7.6,38,8.3c0.1,0.767,0.1,1.4,0,1.9c-0.233,0.133-0.517,0.267-0.85,0.4
		L36.7,10.7z M6.05,30.85c-1.233,0.066-2.117,0.083-2.65,0.05c-0.433-0.533-0.816-1.3-1.15-2.3c-0.233-0.733-0.35-1.233-0.35-1.5
		c0.434,0.333,0.85,1,1.25,2c0.667,0.833,1.967,1.25,3.9,1.25c1.1,0,2.317-0.233,3.65-0.7c0.733-0.233,1.7-0.583,2.9-1.05L13,29.2
		c-0.467,0.733-1.05,1.216-1.75,1.45c-0.533,0.167-1.4,0.25-2.6,0.25L6.05,30.85z M13.6,28.6l0.25-0.2c0.367-0.2,0.8-0.217,1.3-0.05
		L13.7,28.6H13.6z M25.7,50.9l0.1-0.051l0.45-0.05l2.25,0.15l0.9-0.5c0.633-0.4,1.216-0.684,1.75-0.851
		c0.366-0.1,1.216-0.05,2.55,0.15c1.533,0.267,2.399,0.4,2.6,0.4c0.934,0,2.417-0.267,4.45-0.801l1.05,0.25
		c-1,1.2-3.383,1.867-7.149,2l-0.7-0.05l-2-0.25l-0.45-0.05c-2.267-0.066-4.116-0.116-5.55-0.15c-0.167-0.033-0.316-0.05-0.45-0.05
		L25.4,51L25.7,50.9z"/>
	<path style="fill-rule:evenodd;clip-rule:evenodd;fill:#877E74;" d="M48.3,47.6c-0.333,0.467-0.983,1.25-1.95,2.351
		c-1,1.133-1.666,1.866-2,2.2C43.95,51.884,43.634,50.8,43.4,48.9L43.6,48.8L43.7,49c0.166,0.134,0.399,0.25,0.7,0.35
		c0.399-0.133,1.233-0.85,2.5-2.149c1.399-1.4,2.25-2.566,2.55-3.5L48.3,47.6z M26.25,50.8l-0.45,0.05L25.7,50.9
		c-0.267-0.167-0.533-0.334-0.8-0.5c-1.467-0.967-3.15-1.483-5.05-1.551c-0.033,0-0.067,0-0.1,0c0-0.1,0-0.183,0-0.25
		c0.033-0.399,0.083-0.75,0.15-1.05c0.067-0.267,0.15-0.5,0.25-0.7c0.033-0.133,0.1-0.25,0.2-0.35c0.2-0.4,0.467-0.684,0.8-0.85
		c-0.167,0.199-0.3,0.399-0.4,0.6c0.4-0.4,0.733-0.65,1-0.75c0.933-0.366,3.517-1.2,7.75-2.5c4.167-1.434,7.2-2.866,9.1-4.3
		l0.95-0.101C37.717,40.467,35,42.2,31.4,43.8c-3.934,1.5-6.617,2.601-8.05,3.3c0.133,0.301,0.6,0.7,1.4,1.2
		C25.45,48.733,25.95,49.566,26.25,50.8z M15.15,6.4l0.95-1.2c1.033-0.3,5.6-0.583,13.7-0.85l1.25,0.05
		c0.867,0.033,1.4,0.1,1.601,0.2c-1.634,0.967-4.5,1.533-8.601,1.7c-4.733,0.167-7.117,0.25-7.15,0.25l0.55,1.85
		C17.283,8.3,16.9,8,16.3,7.5c-0.533-0.467-0.883-0.8-1.05-1C15.217,6.467,15.183,6.433,15.15,6.4z M25.8,11.05l1.05,0.3
		c1.301,0.133,2.801,0.133,4.5,0c1.5-0.067,2.784-0.217,3.851-0.45l1.5-0.2c-1,0.6-1.834,0.917-2.5,0.95
		c-1.9,0.167-4.384,0.583-7.45,1.25c0.3,0.2,0.833,0.4,1.6,0.6c0.733,0.167,1.4,0.267,2,0.3c-1.866,0.7-3.149,1.05-3.85,1.05
		c-1.667,0-2.867-0.167-3.6-0.5c-1.066-0.467-1.883-0.75-2.45-0.85l-0.5-0.6l-0.3-0.75l3.85,0.2c0.667,0,1.267-0.167,1.8-0.5
		c-0.366-0.3-1.017-0.55-1.95-0.75L25.8,11.05z M3.4,30.9c0.533,0.033,1.417,0.017,2.65-0.05c0.8,0.133,2.883,0.15,6.25,0.05
		c-0.633,0.4-1.6,0.684-2.9,0.85c-1.566,0.167-3.25,0.083-5.05-0.25C4.017,31.3,3.7,31.1,3.4,30.9z M2.25,25.6l0.45-0.2h0.05
		c0.4-0.066,1.083-0.183,2.05-0.35c1.9-0.133,5.9-0.117,12,0.05c0,0.566-0.133,1.05-0.4,1.45c-0.267,0.367-0.6,0.55-1,0.55
		l-0.05-0.45c-0.8,0.033-2.05-0.083-3.75-0.35C9.467,25.967,6.35,25.733,2.25,25.6z M30.3,52.2l1.2-0.95l0.45,0.05
		C31.283,51.9,30.733,52.2,30.3,52.2z M41.8,49.6L42,49.65c0.1,0.1,0.167,0.216,0.2,0.35c-0.367,0.566-0.7,1.033-1,1.4
		c-0.533,0.633-1.017,0.949-1.45,0.949c-2.033,0-3.967-0.267-5.8-0.8l0.7,0.05C38.417,51.467,40.8,50.8,41.8,49.6z"/>
	<path style="fill-rule:evenodd;clip-rule:evenodd;fill:#A99F92;" d="M19.75,48.6c-0.033-0.233-0.05-0.449-0.05-0.649V47.9
		c0-0.334,0.15-0.684,0.45-1.051c-0.1,0.2-0.183,0.434-0.25,0.7C19.833,47.85,19.783,48.2,19.75,48.6z M43.4,48.9
		c-0.934-0.367-2.817-0.467-5.65-0.301c0.233,0.034,1.233,0.284,3,0.75c-2.033,0.534-3.517,0.801-4.45,0.801
		c-0.2,0-1.066-0.134-2.6-0.4c-1.334-0.2-2.184-0.25-2.55-0.15c-0.534,0.167-1.117,0.45-1.75,0.851l-0.9,0.5l-2.25-0.15
		c-0.3-1.233-0.8-2.066-1.5-2.5c-0.8-0.5-1.267-0.899-1.4-1.2c1.433-0.699,4.117-1.8,8.05-3.3c3.6-1.6,6.316-3.333,8.149-5.2
		c0.3,0.034,1.95,0.217,4.95,0.551c2.9,0.699,4.583,1.933,5.05,3.699c-3.467,3.233-6.166,4.817-8.1,4.75
		c-1.834-0.633-3.55-0.716-5.15-0.25c0.066,0.034,1.084,0.15,3.05,0.351c2.067,0.267,3.483,0.633,4.25,1.1L43.4,48.9z M18.1,8.65
		L17.45,8.4L16.9,6.55c0.033,0,2.417-0.083,7.15-0.25c4.101-0.167,6.967-0.733,8.601-1.7c0.5,0.267,1.633,0.617,3.399,1.05
		c0.566,0.233,1.033,0.533,1.4,0.9l-0.3,0.05C36.517,7.9,35.467,8.717,34,9.05c-1.767,0.4-5.6,0.6-11.5,0.6
		c-0.767,0-1.6-0.233-2.5-0.7c-1.1-0.7-1.983-1.25-2.65-1.65C17.55,7.733,17.8,8.183,18.1,8.65z M26.85,11.35
		c2.334,0.1,5.117-0.05,8.351-0.45c-1.066,0.233-2.351,0.383-3.851,0.45C29.65,11.483,28.15,11.483,26.85,11.35z M36.95,12.25
		c0.434-0.633,0.783-1.317,1.05-2.05c0.1-0.5,0.1-1.133,0-1.9c-0.1-0.7-0.233-1.25-0.4-1.65c0.467,0.533,0.7,1.15,0.7,1.85
		C38.3,9.8,37.85,11.05,36.95,12.25z M30.6,15.85l-0.399,0.1l0.85-0.3L30.6,15.85z M20.1,10.05c2.8,0.233,4.7,0.567,5.7,1
		l-2.45,0.05C21.917,10.9,20.833,10.55,20.1,10.05z M15.65,10.1c-0.5-1.067-0.75-2.017-0.75-2.85c0-0.1,0.083-0.283,0.25-0.55
		L15,7.65c0,0.434,0.067,0.833,0.2,1.2C15.267,9.083,15.417,9.5,15.65,10.1z M28.2,16.45l-0.45,0.1H27.7L28.2,16.45z M4.8,25.05
		l0.65-0.1c1.966-0.067,6.283-0.017,12.95,0.15h-1.6C10.7,24.933,6.7,24.917,4.8,25.05z M2.25,25.6c4.1,0.133,7.217,0.367,9.35,0.7
		c1.7,0.267,2.95,0.383,3.75,0.35l0.05,0.45l-1.55,1.3l-0.25,0.2h0.1L13,29.2l0.6-0.6c-1.2,0.467-2.167,0.816-2.9,1.05
		c-1.333,0.467-2.55,0.7-3.65,0.7c-1.933,0-3.233-0.417-3.9-1.25c-0.4-1-0.816-1.667-1.25-2C1.967,26.4,2.083,25.9,2.25,25.6z
		 M31.5,51.25l-1.2,0.95c-0.5,0.1-1.2,0.083-2.1-0.05l-2.7-1.101c0.134,0,0.283,0.017,0.45,0.05
		C27.384,51.134,29.233,51.184,31.5,51.25z"/>
	<path style="fill-rule:evenodd;clip-rule:evenodd;fill:#898176;" d="M40.85,60.3c0-1.1-0.133-2.133-0.399-3.1l0.2-0.351l0.3-0.3
		l0.2-0.05l0.8-0.3L42.1,58c0.101,1.134,0.067,2.2-0.1,3.2l-0.35,1.149c-1.4,2.267-2.284,3.534-2.65,3.801L38.45,66.1
		c0.434-1,0.767-1.683,1-2.05c0.333-0.333,0.733-1.083,1.2-2.25L40.85,60.3z M29.65,59.55c-0.334-0.066-1.15-0.35-2.45-0.85
		c-1.367-0.5-2.184-0.816-2.45-0.95c0.033-0.434,0.1-0.783,0.2-1.05c0.5,0.366,1.166,0.684,2,0.95
		c0.467,0.133,1.184,0.333,2.149,0.6L29.2,59.3c0.3-0.233,0.649-0.45,1.05-0.649L31.5,59h1c-0.4,0.066-0.833,0.134-1.3,0.2
		C30.3,59.366,29.783,59.483,29.65,59.55z M18.95,50.35H19l-0.1,0.15l-0.4,0.3l-0.65,0.3c-0.434-0.033-0.733-0.233-0.9-0.6l0.05-1
		L18.95,50.35z M33.2,1.85c0,0.5-0.184,0.933-0.55,1.3C32.283,3.517,31.833,3.7,31.3,3.7s-0.983-0.184-1.35-0.55
		c-0.367-0.367-0.55-0.8-0.55-1.3s0.183-0.934,0.55-1.3C30.316,0.183,30.767,0,31.3,0s0.983,0.183,1.351,0.55
		C33.017,0.917,33.2,1.35,33.2,1.85z M28,17.35c0.267,1.2,0.333,2.467,0.2,3.8c0,0.133-0.084,0.5-0.25,1.1
		c-0.134,0.633-0.217,1.2-0.25,1.7l1.149,0.2l-0.3,0.2c-0.967,0.833-1.717,2.233-2.25,4.2c-0.434,1.4-0.649,2.667-0.649,3.8
		L25.55,29.5c0-1.333,0.184-2.833,0.55-4.5l0.351-0.9c0.967-1.367,1.467-2.333,1.5-2.9c0.066-0.934,0.033-2.15-0.101-3.65l-0.149-1
		h0.05L28,17.35z M15.7,15.3c-0.233-0.3-0.467-0.6-0.7-0.9l-0.1,0.8l-0.25-1.35C15.417,14.617,15.767,15.1,15.7,15.3z M34.9,4
		c-0.233-0.233-0.367-0.55-0.4-0.95V2.7l1.3,0.8c-0.033,0.1-0.184,0.35-0.45,0.75C35.217,4.25,35.066,4.167,34.9,4z M11.55,2.4
		c0.6-0.833,1.333-1.25,2.2-1.25c0.633,0,1.917,0.083,3.85,0.25c-1.1,0.033-2.217,0.517-3.35,1.45c-1.367,1.4-2.233,2.133-2.6,2.2
		l-0.9-0.25C10.75,3.933,11.017,3.133,11.55,2.4z M11.65,5.9c0.167,0.167,0.25,0.367,0.25,0.6s-0.083,0.45-0.25,0.65
		C11.45,7.317,11.233,7.4,11,7.4s-0.433-0.083-0.6-0.25c-0.2-0.2-0.3-0.417-0.3-0.65s0.1-0.433,0.3-0.6c0.167-0.2,0.367-0.3,0.6-0.3
		S11.45,5.7,11.65,5.9z M13.25,11.6c0,0.733-0.15,1.367-0.45,1.9c-0.333,0.5-0.733,0.75-1.2,0.75S10.75,14,10.45,13.5
		c-0.333-0.533-0.5-1.167-0.5-1.9s0.167-1.35,0.5-1.85c0.3-0.533,0.683-0.8,1.15-0.8s0.867,0.267,1.2,0.8
		C13.1,10.25,13.25,10.867,13.25,11.6z M6.45,21.2c1.2-0.467,2.716-0.583,4.55-0.35c-1.667,1.167-2.783,1.867-3.35,2.1
		C7.283,23.117,6.367,23.3,4.9,23.5L4,23.35C4.433,22.35,5.25,21.633,6.45,21.2z M1.25,24.4c-0.467,0.767-0.733,1.617-0.8,2.55
		l-0.1,0.15C0.117,27.233,0,26.967,0,26.3c0-1.2,0.117-2.05,0.35-2.55c0.367-0.767,1.083-1.233,2.15-1.4
		C2.4,22.617,1.983,23.3,1.25,24.4z M12.8,21.2c0.233,0.233,0.367,0.566,0.4,1c-0.034,0.233-0.233,0.383-0.6,0.45
		c-0.3,0.033-0.55,0.033-0.75,0c-0.1-0.1-0.167-0.316-0.2-0.65L12.8,21.2z M16,21.2l0.6,0.45c0.367,0.3,0.566,0.517,0.6,0.65
		c-0.567,0.4-1.117,0.333-1.65-0.2l0.15-0.55L16,21.2z M18.3,30.95l0.1,1.55c0,0.667-0.15,1.3-0.45,1.9
		c-0.5,0.933-0.8,1.55-0.9,1.85c-0.6,1.233-1.017,2.417-1.25,3.55l-0.15,1.351l0.2-5.051L15.9,35.9
		c0.033-0.101,0.783-2.284,2.25-6.55l0.05,0.3L18.3,30.95z M2.6,31.9c1.433,0.5,3.45,1.1,6.05,1.8c-2.833-0.1-4.8-0.367-5.9-0.8
		c-0.567-0.2-1.117-0.65-1.65-1.35C1.433,31.55,1.933,31.667,2.6,31.9z M19.95,40.95c0.367-0.033,0.633-0.101,0.8-0.2
		c0.933-0.333,2.033-0.983,3.3-1.95c1.134-0.866,1.834-1.3,2.101-1.3c0.666,0,1.283,0.616,1.85,1.85
		c-0.3,1.301-1.134,2.15-2.5,2.551c-0.267,0.1-1.083,0.199-2.45,0.3c-0.867,0.133-1.8,0.6-2.8,1.399
		c-1.133,0.967-1.833,1.5-2.1,1.601L18,45.1c-0.1-0.066-0.15-0.3-0.15-0.699c0-0.301,0.083-0.733,0.25-1.301
		c0.267-0.899,0.667-1.583,1.2-2.05C19.333,41.017,19.55,40.983,19.95,40.95z M33.15,36.75c0,0.5-0.167,0.934-0.5,1.3
		c-0.367,0.367-0.801,0.55-1.301,0.55s-0.916-0.183-1.25-0.55c-0.366-0.366-0.55-0.8-0.55-1.3s0.184-0.934,0.55-1.3
		c0.334-0.367,0.75-0.55,1.25-0.55s0.934,0.183,1.301,0.55C32.983,35.816,33.15,36.25,33.15,36.75z M39.25,35.8
		c0,0.267-0.184,0.5-0.55,0.7c-0.367,0.167-0.816,0.25-1.351,0.25c-0.533,0-0.983-0.083-1.35-0.25c-0.366-0.2-0.55-0.434-0.55-0.7
		s0.184-0.483,0.55-0.649c0.366-0.2,0.816-0.301,1.35-0.301c0.534,0,0.983,0.101,1.351,0.301C39.066,35.316,39.25,35.533,39.25,35.8
		z M34.2,58.55l0.149,0.75c-0.166,0.367-0.416,0.55-0.75,0.55H32.9L32.6,59.7l0.101-0.25c0.2-0.267,0.583-0.566,1.149-0.9H34.2z"/>
	<path style="fill-rule:evenodd;clip-rule:evenodd;fill:#726B63;" d="M43.4,48.9c0.233,1.899,0.55,2.983,0.949,3.25
		c0.334-0.334,1-1.067,2-2.2c0.967-1.101,1.617-1.884,1.95-2.351c-0.233,1.4-1.066,2.834-2.5,4.301
		c-2.066,2.133-3.35,3.566-3.85,4.3l-0.8,0.3l-0.2,0.05L40.85,56.6c-1.3,0-3.017,0.084-5.149,0.25c-2.167,0.134-3.316,0.2-3.45,0.2
		c-2.134,0-4.4-0.816-6.8-2.45C25.217,54.4,24.967,54.2,24.7,54c-0.367-0.267-0.684-0.483-0.95-0.65
		c-1.133-0.966-2.3-2.083-3.5-3.35l-0.5-1.15c0.033,0,0.067,0,0.1,0c1.9,0.067,3.583,0.584,5.05,1.551
		c0.267,0.166,0.533,0.333,0.8,0.5L25.4,51l0.1,0.05l2.7,1.101c0.899,0.133,1.6,0.149,2.1,0.05c0.434,0,0.983-0.3,1.65-0.9l2,0.25
		c1.833,0.533,3.767,0.8,5.8,0.8c0.434,0,0.917-0.316,1.45-0.949c0.3-0.367,0.633-0.834,1-1.4c-0.033-0.134-0.101-0.25-0.2-0.35
		L41.8,49.6l-1.05-0.25c-1.767-0.466-2.767-0.716-3-0.75C40.583,48.434,42.467,48.533,43.4,48.9z M38,10.2
		c-0.267,0.733-0.616,1.417-1.05,2.05c0.033,0.233-0.167,0.5-0.601,0.8c-0.8,0.633-2.566,1.5-5.3,2.6l-0.85,0.3
		c-0.533,0.167-0.934,0.283-1.2,0.35l-0.8,0.15l-0.5,0.1L24.1,16.7c-1.1-0.133-2.2-0.517-3.3-1.15c-2.033-1.133-3.75-2.95-5.15-5.45
		c-0.233-0.6-0.383-1.017-0.45-1.25C15.067,8.483,15,8.083,15,7.65l0.15-0.95V6.4c0.033,0.033,0.067,0.067,0.1,0.1
		c0.167,0.2,0.517,0.533,1.05,1c0.6,0.5,0.983,0.8,1.15,0.9l0.65,0.25c0.867,0.8,1.533,1.267,2,1.4c0.733,0.5,1.816,0.85,3.25,1.05
		c0.933,0.2,1.583,0.45,1.95,0.75c-0.533,0.333-1.133,0.5-1.8,0.5l-3.85-0.2l0.3,0.75l0.5,0.6c0.566,0.1,1.383,0.383,2.45,0.85
		c0.733,0.333,1.933,0.5,3.6,0.5c0.7,0,1.983-0.35,3.85-1.05c-0.6-0.033-1.267-0.133-2-0.3c-0.767-0.2-1.3-0.4-1.6-0.6
		c3.066-0.667,5.55-1.083,7.45-1.25c0.666-0.033,1.5-0.35,2.5-0.95l0.45-0.1C37.483,10.467,37.767,10.333,38,10.2z M4.35,31.5
		c1.8,0.333,3.483,0.417,5.05,0.25c1.3-0.167,2.267-0.45,2.9-0.85c-3.367,0.1-5.45,0.083-6.25-0.05l2.6,0.05
		c1.2,0,2.067-0.083,2.6-0.25c0.7-0.233,1.283-0.717,1.75-1.45l0.7-0.6l1.45-0.25c-0.5-0.167-0.933-0.15-1.3,0.05l1.55-1.3
		c0.4,0,0.733-0.184,1-0.55c0.267-0.4,0.4-0.883,0.4-1.45h1.6c0,2.133-0.566,3.967-1.7,5.5c-1.133,1.5-2.5,2.25-4.1,2.25L11.65,33
		c-0.967,0.067-2.433-0.017-4.4-0.25C6.317,32.417,5.35,32,4.35,31.5z"/>
	<path style="fill-rule:evenodd;clip-rule:evenodd;fill:#635B52;" d="M42.1,58l3.551-4c-0.067,0.4-0.317,1.184-0.75,2.35
		c-0.467,1.4-0.851,2.284-1.15,2.65c-0.866,1-1.45,1.733-1.75,2.2C42.167,60.2,42.2,59.134,42.1,58z M40.85,60.3l-0.199,1.5
		c-1.434,0.267-2.483,0.4-3.15,0.4c-0.634,0-2.15-0.101-4.55-0.3c-2.7-0.2-4.917-0.417-6.65-0.65c-1.467-0.667-2.65-1.934-3.55-3.8
		c-0.2-0.467-0.367-0.95-0.5-1.45l-0.1-0.95l0.05-0.85c1.267,1.934,2.116,3.116,2.55,3.55c0.267,0.134,1.083,0.45,2.45,0.95
		c1.3,0.5,2.116,0.783,2.45,0.85c0.8,0.2,1.883,0.3,3.25,0.3H33.6c1.4,0.134,2.983,0.284,4.75,0.45
		C39.517,60.4,40.35,60.4,40.85,60.3z M40.45,57.2c-0.434,0.2-1.084,0.3-1.95,0.3c-0.8-0.033-1.233-0.05-1.3-0.05
		c-0.367,0-0.7,0.217-1,0.649c-0.267,0.367-0.934,0.517-2,0.45H33.85c-1.666-0.066-2.866-0.033-3.6,0.101
		c-0.4,0.199-0.75,0.416-1.05,0.649L29.1,58.25c-1.033-1.267-2.25-2.483-3.649-3.65c2.399,1.634,4.666,2.45,6.8,2.45
		c0.134,0,1.283-0.066,3.45-0.2c2.133-0.166,3.85-0.25,5.149-0.25l-0.199,0.25L40.45,57.2z M18.5,50.8l0.4-0.3l0.1-0.15h-0.05
		c0.167-0.866,0.417-1.666,0.75-2.399c0,0.2,0.017,0.416,0.05,0.649c0,0.067,0,0.15,0,0.25l0.5,1.15c1.2,1.267,2.367,2.384,3.5,3.35
		c-0.833-0.6-1.317-0.899-1.45-0.899c-1.933,0-3.783,1.533-5.55,4.6c-1.767,3-2.633,5.983-2.6,8.95
		c-0.167-1.333-0.25-2.866-0.25-4.6c0-2.834,0.25-4.467,0.75-4.9c0.934-0.267,1.783-0.866,2.55-1.8c0.2-0.233,0.417-0.834,0.65-1.8
		C18.183,51.767,18.4,51.066,18.5,50.8z M38.6,38.7c-1.899,1.434-4.933,2.866-9.1,4.3c-4.233,1.3-6.817,2.134-7.75,2.5
		c-0.267,0.1-0.6,0.35-1,0.75c0.1-0.2,0.233-0.4,0.4-0.6c1.367-1.7,3.317-3.101,5.85-4.2C29.566,40.35,33.434,39.434,38.6,38.7z
		 M27.85,17.55c0,2.434-0.133,3.65-0.399,3.65h0.5c-0.033,0.566-0.533,1.533-1.5,2.9c-0.167,0-0.316,0.1-0.45,0.3
		c-0.134,0.167-0.2,0.383-0.2,0.65c-0.333,2.2-0.467,4.633-0.399,7.3v1.3c-1-5.167-1.517-8.033-1.55-8.6V24.2
		c-0.033,0.066-0.383,0.1-1.05,0.1c-1.267,0-2.283-0.383-3.05-1.15c-1.733-1.667-2.717-2.583-2.95-2.75
		c-0.566-0.333-1.083-0.733-1.55-1.2c-0.6-0.6-0.917-1.133-0.95-1.6c0.034-0.434,0.317-0.7,0.85-0.8l-0.05-0.55
		c0.167,0.133,0.483,0.483,0.95,1.05c0.667,0.733,1.633,1.583,2.9,2.55c0.433,0.2,1.15,0.45,2.15,0.75
		c0.933,0.267,1.45,0.4,1.55,0.4c0.233,0,0.75-0.067,1.55-0.2c0.6-0.1,1.05-0.1,1.35,0l0.2-0.85c-0.267-1.1-0.4-1.667-0.4-1.7
		c-0.5,0.167-0.983,0.45-1.45,0.85c-0.333,0.267-0.967,0.4-1.9,0.4c-0.1,0-0.433-0.3-1-0.9c-0.833-0.867-1.55-1.567-2.15-2.1
		c-2.133-1.9-3.35-3.05-3.65-3.45c-1.2-1.433-1.8-3-1.8-4.7c0-3.467,2.167-5.2,6.5-5.2c1.4,0,3.25,0.184,5.55,0.55
		c2.666,0.4,4.116,0.617,4.35,0.65C21.7,4.617,17.133,4.9,16.1,5.2l-0.95,1.2v0.3c-0.167,0.267-0.25,0.45-0.25,0.55
		c0,0.833,0.25,1.783,0.75,2.85c1.4,2.5,3.117,4.316,5.15,5.45c1.1,0.633,2.2,1.017,3.3,1.15l3.601-0.15L27.85,17.55z M28,17.35
		l-0.25-0.8l0.45-0.1L29,16.3c0.267-0.066,0.667-0.183,1.2-0.35l0.399-0.1C29.6,16.483,28.733,16.983,28,17.35z M27.7,23.95
		c0.033-0.5,0.116-1.067,0.25-1.7c0.166-0.6,0.25-0.967,0.25-1.1c0.467-0.133,0.967-0.45,1.5-0.95c0.6-0.534,1.05-0.883,1.35-1.05
		c0,1.333-0.316,2.467-0.95,3.4C29.434,23.483,28.634,23.95,27.7,23.95z M15.9,35.9l-0.15,0.149c-0.4,0.7-0.767,2.217-1.1,4.55
		c-0.333,2.534-0.517,3.834-0.55,3.9l-0.4-0.95c-0.733-3-1.167-5.233-1.3-6.7c0.367-0.666,0.967-1.449,1.8-2.35l-0.55,0.1
		c-1.333,0.667-2.2,1.2-2.6,1.601c-0.4,0.166-1.017,0.217-1.85,0.149c-0.8-0.066-1.4-0.199-1.8-0.399l-0.2-0.2L7,35.4
		c1.867,0.1,3.133,0.1,3.8,0c1.133-0.2,1.983-0.717,2.55-1.55c-0.967-0.267-1.533-0.55-1.7-0.85l0.95-0.15
		c1.6,0,2.967-0.75,4.1-2.25c1.133-1.533,1.7-3.367,1.7-5.5c-6.667-0.167-10.983-0.217-12.95-0.15c0.867-0.7,3.4-1.083,7.6-1.15
		c2.467,0,4.067,0.184,4.8,0.55c0.7,0.333,1.05,1.033,1.05,2.1c0,0.367-0.117,0.933-0.35,1.7c-0.233,0.833-0.35,1.333-0.35,1.5
		l-0.05-0.3C16.683,33.617,15.933,35.8,15.9,35.9z"/>
	<path style="fill-rule:evenodd;clip-rule:evenodd;fill:#6D655A;" d="M41.65,62.35L42,61.2c0.3-0.467,0.884-1.2,1.75-2.2
		c0,0.934-0.2,1.733-0.6,2.4C42.717,62.033,42.217,62.35,41.65,62.35z M40.65,61.8c-0.467,1.167-0.867,1.917-1.2,2.25
		c-1.4,0.467-2.55,0.7-3.45,0.7c-3.167-1.467-5.366-2.2-6.6-2.2c-0.233,0-0.75-0.166-1.551-0.5c-0.833-0.333-1.35-0.6-1.55-0.8
		c1.733,0.233,3.95,0.45,6.65,0.65c2.399,0.199,3.916,0.3,4.55,0.3C38.167,62.2,39.217,62.066,40.65,61.8z M22.25,56
		c0.133,0.5,0.3,0.983,0.5,1.45c-0.667-1-1.05-1.601-1.15-1.8L22.25,56z M27.7,23.95c0.934,0,1.733-0.467,2.399-1.4
		c0.634-0.933,0.95-2.066,0.95-3.4c0.3-0.233,0.9-0.633,1.8-1.2c0.867-0.567,1.434-0.9,1.7-1L34.8,17c-1.133,4.1-1.7,6.167-1.7,6.2
		c-0.5,0.733-2.017,1.117-4.55,1.15l0.3-0.2L27.7,23.95z M23.85,25.05c-1.934,0-3.583-0.45-4.95-1.35c-1.4-0.9-2.1-2-2.1-3.3
		c0.233,0.167,1.217,1.083,2.95,2.75c0.767,0.767,1.783,1.15,3.05,1.15c0.667,0,1.017-0.033,1.05-0.1V25.05z M25.8,25.05
		c0-0.267,0.066-0.483,0.2-0.65c0.134-0.2,0.283-0.3,0.45-0.3L26.1,25L25.8,25.05z M14.9,15.2l0.1-0.8c0.233,0.3,0.467,0.6,0.7,0.9
		c1.2,1.6,2.283,3.117,3.25,4.55c-1.267-0.967-2.233-1.817-2.9-2.55c-0.466-0.566-0.783-0.917-0.95-1.05l0.05,0.55L14.9,15.2z
		 M15.85,36.1l-0.1-0.05L15.9,35.9L15.85,36.1z M17.05,36.25c0.1-0.3,0.4-0.917,0.9-1.85c0.3-0.601,0.45-1.234,0.45-1.9l-0.1-1.55
		L19.65,29c0,0.967-0.15,2.1-0.45,3.4C18.733,34.434,18.017,35.717,17.05,36.25z M7.4,35.95c0.4,0.2,1,0.333,1.8,0.399
		c0.833,0.067,1.45,0.017,1.85-0.149c0.4-0.4,1.267-0.934,2.6-1.601l0.55-0.1c-0.833,0.9-1.434,1.684-1.8,2.35
		C12.133,37.083,11.667,37.2,11,37.2C9.3,36.767,8.1,36.35,7.4,35.95z"/>
</g>
</svg>
