<?xml version="1.0" encoding="iso-8859-1"?>
<!-- Generator: Adobe Illustrator 15.1.0, SVG Export Plug-In . SVG Version: 6.00 Build 0)  -->
<!DOCTYPE svg PUBLIC "-//W3C//DTD SVG 1.1//EN" "http://www.w3.org/Graphics/SVG/1.1/DTD/svg11.dtd">
<svg version="1.1" id="Layer_1" xmlns="http://www.w3.org/2000/svg" xmlns:xlink="http://www.w3.org/1999/xlink" x="0px" y="0px"
	 width="91.65px" height="173.4px" viewBox="0 0 91.65 173.4" style="enable-background:new 0 0 91.65 173.4;" xml:space="preserve"
	>
<g>
	<path style="fill-rule:evenodd;clip-rule:evenodd;fill:#B3AA9E;" d="M86.4,158c0.699-0.733,1.066-1.783,1.1-3.15
		c0-2.533,0.083-5.183,0.25-7.949l0.1-14.101c0.733-5.666,1.101-9.7,1.101-12.1c0-1.867-0.084-3.566-0.25-5.101
		c-0.066-0.633,0.017-1.149,0.25-1.55c0.467-0.733,0.7-1.383,0.7-1.95c0-0.699-0.25-1.616-0.75-2.75
		c-0.5-1.166-0.75-3.683-0.75-7.55c0-3.866,0.25-6.7,0.75-8.5c0.5-1.066,0.75-1.633,0.75-1.7c0-0.333-0.233-0.767-0.7-1.3
		c-0.467-0.5-0.7-0.783-0.7-0.85c0-6.8-0.167-13.667-0.5-20.6v-11.5l-0.3-7.85c0.233-1.667-0.334-3.05-1.7-4.15V45
		c0.667,0.367,1.366,0.417,2.1,0.15c0.434,0.1,0.717,1.283,0.851,3.55c0.166,3.066,0.1,6.517-0.2,10.35c0,5.9,0.333,11.617,1,17.15
		c0.5,4.1,0.75,8.517,0.75,13.25c0,0.066,0.233,0.35,0.7,0.85c0.467,0.533,0.7,0.967,0.7,1.3c0,0.067-0.25,0.634-0.75,1.7
		c-0.5,1.8-0.75,4.634-0.75,8.5c0,0.334,0.183,1.733,0.55,4.2c0.366,2.467,0.55,3.866,0.55,4.2c0,2.7-0.184,4.033-0.55,4
		c-0.233-0.033-0.233,0.85,0,2.649c0.133,1.334,0.2,2.817,0.2,4.45c0,0.033-0.384,2.684-1.15,7.95c-0.8,5.767-1.2,9.9-1.2,12.4
		c0,0.666,0.351,4.183,1.05,10.55c0,2.666-0.183,4.366-0.55,5.1c-0.366,0.767-1.217,1.184-2.55,1.25L86.4,158z M13.8,141.4
		c-0.133,2.833-0.133,6.066,0,9.699c-0.167,2.334-1.283,3.767-3.35,4.301c0-2.7-0.034-5-0.1-6.9c-0.067-3.6-0.233-5.717-0.5-6.35
		c0.4-0.101,0.85-0.284,1.35-0.551C11.767,141.4,12.633,141.333,13.8,141.4z"/>
	<path style="fill-rule:evenodd;clip-rule:evenodd;fill:#7C7367;" d="M74.8,30.15c0.9,0.7,1.4,1.367,1.5,2
		c0.033,0.367,0.066,1.217,0.101,2.55c-0.067-1.3-0.334-2.067-0.801-2.3c0.2,1.5,0.95,5.967,2.25,13.4
		c0.434,2.6,0.717,6.583,0.851,11.95L79,57c1-9.667,1.5-15.1,1.5-16.3c1.434,0.367,2.233,1.167,2.4,2.4
		c0.199,1.167,1.149,1.917,2.85,2.25c1.366,1.1,1.934,2.483,1.7,4.15L86.6,48.05c-0.1,1.833-0.199,4.067-0.3,6.7
		c-0.333,1.7-1.45,2.383-3.35,2.05c-0.3,1.7-1.667,2.667-4.101,2.9c-2.666-0.034-4.3-0.017-4.899,0.05
		c0.934-2.167,1.399-8.867,1.399-20.1c0-0.566-0.066-1.95-0.199-4.15C75.017,33.1,74.9,31.317,74.8,30.15z M73.15,29.9L73.1,30.45
		c-1.3-0.034-2.35,0.05-3.149,0.25l-0.8,0.3c0.399-0.3,0.899-0.55,1.5-0.75C71.583,29.883,72.417,29.767,73.15,29.9z M81.45,162.9
		c-1.334,0.066-2.15,0.116-2.45,0.149c0.033-0.6,0.316-3.217,0.85-7.85c0.534-4.767,0.834-7.667,0.9-8.7l0.15,0.3
		c0.1,0.233,0.383,0.667,0.85,1.3c0.134,0.2,0.2,1.25,0.2,3.15c0,0.866-0.05,2.55-0.15,5.05
		C81.7,159.366,81.583,161.566,81.45,162.9z M71.8,145.2c0.066,6,0,12.883-0.2,20.649c0.5-3.933,0.967-7.149,1.4-9.649
		c0.467-2.533,1.184-5.934,2.15-10.2v0.9c0,0.233,0.199,0.35,0.6,0.35c0.333,0,0.55-0.2,0.65-0.6c0.1-0.5,0.833-0.9,2.199-1.2v8.5
		l0.051-0.55c-0.034,4.033-0.117,7.316-0.25,9.85h0.05c-0.667,0.434-1.117,1.25-1.351,2.45c-0.133,0.7-0.316,1.833-0.55,3.399
		c-0.633,2.867-2.733,4.301-6.3,4.301c-0.4,0-0.684-0.101-0.85-0.301c-0.2-0.333-0.434-0.633-0.7-0.899
		c0.267-1.5,0.35-2.767,0.25-3.8c-0.066-0.634-0.167-1.017-0.3-1.15c-0.367-0.5-1.134-0.75-2.301-0.75l0.9,3.05
		c-0.833-2.533-1.384-4.116-1.65-4.75l0.301-6.05c0.366,0.033,0.783,0.017,1.25-0.05c0.166-2.066,0.25-3.434,0.25-4.101
		c-0.367-4.966-0.551-8.166-0.551-9.6c0.4-1.866,0.601-3.517,0.601-4.95c-0.033-2.7-1.101-4.8-3.2-6.3
		c-0.6,0.366-1.833,0.517-3.7,0.45c-0.233-0.033-0.467-0.05-0.7-0.05l-0.3-0.051c-2-0.233-3.483-0.416-4.45-0.55
		c4.334-0.066,6.817-0.3,7.45-0.7c0.7,0.034,1.533,0.134,2.5,0.301c1.233,0.199,1.884,0.399,1.95,0.6c0.5,2,0.75,3.7,0.75,5.1
		c0,0.667-0.083,1.817-0.25,3.45h2.05l0.9-0.1L71,147.1l0.35-0.25C71.616,146.35,71.767,145.8,71.8,145.2z M55.95,165.5
		c-1,0.634-1.45,1.566-1.351,2.8c0.101,1.167-0.116,1.867-0.649,2.101c-0.834,0.466-1.4,0.767-1.7,0.899
		c-0.434,0.2-1.066,0.3-1.9,0.3c-0.899,0-1.949-0.216-3.149-0.649c0.399,0.133,0.95,0.25,1.649,0.35
		c0.834,0.167,1.483,0.233,1.95,0.2v-0.4c0.101-2.399-0.116-6.283-0.649-11.649c-0.567-5.834-0.851-10.101-0.851-12.8
		c0-2,0.233-4.267,0.7-6.801c-0.066,0.667-0.116,1.384-0.15,2.15c0.101,3.533,0.95,5.3,2.551,5.3c0.6,0,1.066-0.35,1.399-1.05
		c0.267-0.566,0.4-1.25,0.4-2.05c0-0.5-0.134-1.634-0.4-3.4c0.467-0.767,1.066-1.316,1.8-1.649c0.467-0.233,0.867-0.351,1.2-0.351
		c1.101,0,1.816,0.517,2.15,1.55c0.7,1.967,1.366,3.4,2,4.301l0.2-0.2c0.1-0.767,0.183-1.367,0.25-1.8
		c0.133-0.801,0.316-1.317,0.55-1.551c0.366,0.034,0.633,0.101,0.8,0.2c0.7,0.5,1.283,3.667,1.75,9.5l-0.2-1.1l-0.3-2.25
		c-0.233,7-0.884,10.967-1.95,11.899c-0.366,0.334-1.05,0.483-2.05,0.45c-1.267-0.066-2.267,0-3,0.2
		C56.934,160.767,56.583,162.6,55.95,165.5z M18.4,166.9h-1.15c-0.6-5.233-0.9-9.084-0.9-11.551c0-2.466-0.217-5.566-0.65-9.3
		l1.15-2.399l0.3,0.199c0.667,0.834,1.233,2.967,1.7,6.4c0.566,4.267,1.15,7.333,1.75,9.2c0.433-0.066,1.066-0.334,1.9-0.8
		c0.1-1.034,0.15-1.884,0.15-2.551c-0.467-4.966-0.617-8.449-0.45-10.449c0.3-3.334,2.1-5.284,5.4-5.851
		c0.633,1.101,0.95,2.4,0.95,3.9c0,0.566-0.45,1.45-1.35,2.649c-0.9,1.233-1.35,2.567-1.35,4c0,1.233,0.2,2.301,0.6,3.2
		c0.3-0.233,0.6-0.45,0.9-0.649c0.566-0.434,1.2-0.65,1.9-0.65c0.933,0,1.767,1.217,2.5,3.65c0.733,2.433,1.033,4.949,0.9,7.55h-0.8
		c-0.833-1.667-1.35-3.584-1.55-5.75c-0.233-2.834-0.4-4.417-0.5-4.75l-0.3,0.7c-0.167,0.366-0.333,1.083-0.5,2.149
		c-0.2,1.033-0.3,1.8-0.3,2.3c0,1.301,0.25,3.15,0.75,5.551c-0.967,0.166-1.8,0.8-2.5,1.899c-0.567,0.934-1.75,1.3-3.55,1.101
		c-1.066-1.733-1.9-3.434-2.5-5.101c-0.667-1.7-1.367-3.166-2.1-4.399v0.35C18.833,159.634,18.7,162.767,18.4,166.9z M19.95,166.85
		l0.2-1.649c0.5,0.566,0.917,1.1,1.25,1.6L19.95,166.85z M8.2,40.25C8.667,44.817,9,49,9.2,52.8c-0.4,0.2-0.767,0.35-1.1,0.45
		c-0.4-0.333-0.75-1.383-1.05-3.15c-0.267-1.934-0.45-3.15-0.55-3.65c0.1-0.4,0.283-1.517,0.55-3.35
		C7.183,42.267,7.567,41.317,8.2,40.25z M11.65,37.1c-0.233,1.633-0.467,4.7-0.7,9.2c-0.167,3.1-0.5,5.05-1,5.85
		c0.1-0.3,0.316-2.4,0.65-6.3c0.333-3.7,0.55-6.467,0.65-8.3L11.65,37.1c0.5-0.667,0.85-1.35,1.05-2.05
		c0.133-0.566,0.216-1.233,0.25-2c0,0.7-0.05,1.284-0.15,1.75C12.633,35.733,12.25,36.5,11.65,37.1z M13.35,29.05L15,25.6
		c-0.067,5.167,0.117,9.867,0.55,14.1c0.233,2.167,0.467,4.117,0.7,5.85c0,1.4,0.7,2.717,2.1,3.95c1.133,1.033,1.45,2.083,0.95,3.15
		l-4.05,0.9c-0.7-0.9-1.133-4.2-1.3-9.9C13.65,34.883,13.45,30.017,13.35,29.05z M20.6,16.05c1.433,7.934,2.833,20.517,4.2,37.75
		l-3.2,0.35c0.533-2.767,0.05-6.167-1.45-10.2c-1.7-4.567-2.55-8.15-2.55-10.75c0-0.9,0.283-3.55,0.85-7.95
		c0.667-5.033,1.05-8.033,1.15-9L20.6,16.05z M24.4,17.45c-1.267-0.467-2.367-0.983-3.3-1.55c0.167,0,0.617,0.15,1.35,0.45
		C23.317,16.717,23.967,17.083,24.4,17.45z M34.8,54.4L30,54c-1-7.267-1.633-11.967-1.9-14.1c-0.4-3.066-0.7-5.917-0.9-8.55
		c0.167,0.3,0.45,1.433,0.85,3.4c0.534,1.9,1.267,2.983,2.2,3.25l-1-0.1c0.033,1.4,0.183,2.633,0.45,3.7l0.25,0.8
		c0.5-2.533,0.75-4,0.75-4.4c2.1,0.333,3.583,0.5,4.45,0.5c1.2,0,2.6-0.317,4.2-0.95c0.2,3.567,0.133,8.5-0.2,14.8
		c0,0.667,0.1,1.967,0.3,3.9L39,56.05c-1-3.433-1.65-5.7-1.95-6.8c-0.466-1.667-0.95-3.9-1.45-6.7L35.45,43
		c0,0.033-0.05,1.667-0.15,4.9C35.2,50.667,35.033,52.833,34.8,54.4z M56.45,32c0.066,1.6,0.066,3.533,0,5.8
		c-0.101-0.566-0.15-1.183-0.15-1.85C56.4,34.483,56.45,33.167,56.45,32z M55.9,24.1l-3.25-0.5c0.466-4.667,0.783-8.517,0.949-11.55
		l-5,11c-0.033-0.167-0.083-0.216-0.149-0.15c-0.033,0.033-0.066,0.083-0.101,0.15C48.15,23.717,47.5,26.7,46.4,32l1.35-8.95
		c-0.8,0.034-1.684,0.017-2.65-0.05c0.067,3.367,0.034,6.133-0.1,8.3c0-3.9,0-6.983,0-9.25c0-4.2,0.134-7.633,0.4-10.3
		C46.267,3.917,48.634,0,52.5,0c0.866,0,1.467,1.967,1.8,5.9C55.267,17.233,55.8,23.3,55.9,24.1z M59.1,41.35
		c0.167,3.167,0.084,6.25-0.25,9.25c0,0.5,0.067,1.967,0.2,4.4c-0.033,2.367-0.533,3.983-1.5,4.85L55.5,59.6
		c0.267-1,0.65-3.317,1.15-6.95c0.666-4.767,1-8.8,1-12.1c0-0.167-0.017-0.3-0.051-0.4L59.1,41.35z M64.4,58.5
		c-0.167-7.433-0.517-12.2-1.051-14.3c-0.366-1.4-0.517-2.434-0.449-3.1c0.633-0.233,1.25-0.6,1.85-1.1
		c0,0.967,0.217,3.467,0.65,7.5c0.399,4,0.6,6.35,0.6,7.05C66,55.883,65.467,57.2,64.4,58.5z M87.75,57.35v11.5l-0.05-1
		c-1.634,0.9-2.717,1.533-3.25,1.9c-0.2,0.133-0.584,0.45-1.15,0.95c-0.233-1.667-0.366-3.05-0.399-4.15
		c0.033-0.466-0.351,0.05-1.15,1.55c-0.366,0.767-0.75,1.583-1.15,2.45c0.134-0.566,0.4-2.05,0.801-4.45
		c0.3-1.867,0.566-2.983,0.8-3.35h1.6c0.533,2.633,0.851,4.067,0.95,4.3c1.066-0.6,1.717-1.5,1.95-2.7
		C86.967,62.083,87.316,59.75,87.75,57.35z M55.75,61.5l0.35,4.25c0,1.533-0.083,3.817-0.25,6.85c-0.066,3.1,0.067,6.4,0.4,9.9
		c1,9.833,1.9,17.934,2.7,24.3c0,0.101,0,2.4,0,6.9c0,2.267-0.467,4.267-1.4,6c-0.5,0.967-1.316,2.416-2.45,4.35
		c0-2.399-0.017-4.366-0.05-5.899c0.066,0.267,0.15,0.466,0.25,0.6c0.5,0.6,0.8,1.033,0.9,1.3c0.267-2.434,0.399-5.2,0.399-8.3
		c0-2.5-0.166-5.184-0.5-8.05c-0.566-4.634-1.066-10.283-1.5-16.95h-0.35c0.134,12.5,0.267,21.134,0.4,25.9
		c-0.5-4.467-1.134-10.101-1.9-16.9c0,0.934-0.033,1.4-0.1,1.4c0.1,3.433,0.05,7.566-0.15,12.399c0,0.167,0.15,2.867,0.45,8.101
		c0.2,5.199-0.05,7.8-0.75,7.8c-0.4,0-0.601,0.333-0.601,1c0,1.3-0.466,2.883-1.399,4.75c-0.733-8.601-1.233-14.851-1.5-18.75
		c-0.5-6.634-0.75-13.851-0.75-21.65c0.5,3.934,0.75,7.634,0.75,11.101l0.35-16.8c0.066-0.467,0.217-0.9,0.45-1.3
		c0.066-0.1,0.316-0.45,0.75-1.05c0.366-0.5,0.583-1.433,0.65-2.8c0-0.367,0-2.184,0-5.45l0.35,2c0.733,3.8,1.2,6.133,1.4,7
		c0.333,1.533,0.683,2.6,1.05,3.2c0.533-0.3,0.816-0.45,0.85-0.45c0.167-10.767,0.3-17.767,0.4-21v-3.2h-5.4
		c-1.733,0.2-2.85,0.467-3.35,0.8c-0.367-8.567-0.55-13.184-0.55-13.85l0.399-5.55c0.2,2.633,0.417,5.95,0.65,9.95
		c0.233,2.867,0.45,4.767,0.649,5.7l0.801,0.05c1.267,0,2.649-0.15,4.149-0.45l-0.05-0.3c-0.833-0.967-1.45-1.683-1.85-2.15
		c-0.634-0.833-0.95-2.067-0.95-3.7c0-1.533,0.967-10.233,2.899-26.1c0.634,10.1,1.117,16.883,1.45,20.35
		c0.066,1,0.533,5.25,1.4,12.75c-1,0-2.05,0.1-3.15,0.3c-1.133,0.2-1.899,0.417-2.3,0.65c0.1,0.2,0.283,0.467,0.55,0.8
		c0.2,0.267,0.3,0.45,0.3,0.55h2.2l2.9-0.35H55.75z M72.2,59.7c-0.233-0.067-0.45-0.25-0.65-0.55c-0.2-0.333-0.3-0.733-0.3-1.2
		c-0.5-8.333-0.75-12.833-0.75-13.5c0-2.434,0.316-4.467,0.95-6.1c0.666-1.233,1.017-1.934,1.05-2.1
		c-0.066,0.667-0.384,2.217-0.95,4.65c-0.566,2.367-0.85,3.617-0.85,3.75L72.2,59.7z M32.25,57.4l1.85-0.2l-0.1,1L32.25,57.4z
		 M31.65,57.45c4.7,17.9,7.283,39.983,7.75,66.25l-0.25-0.4c-1.066-6.533-1.7-11.133-1.9-13.8C36.483,99.6,35.7,90.434,34.9,82
		l-1.05,18.7l0.9,22.85c0,1.3-0.367,2.983-1.1,5.05c-0.767,2.233-1.6,3.801-2.5,4.7L30,132.85c-0.033-0.133-0.25-2.3-0.65-6.5
		c-0.333-3.533-0.667-5.649-1-6.35l-0.25,1.05c-0.233,1.134-0.35,2.566-0.35,4.3l0.1,6.5c-2.434,0.467-3.95,0.45-4.55-0.05
		c-0.833-0.7-1.2-4-1.1-9.899c0.8-5.367,1.417-9.601,1.85-12.7c0.8-5.667,1.2-11.75,1.2-18.25c0-4.567-0.2-8.717-0.6-12.45
		C24.217,74.767,24,72.8,24,72.6c0-1.467,0.45-3.983,1.35-7.55c1.1-4.367,1.667-6.617,1.7-6.75c0.434-0.066,1.167-0.233,2.2-0.5
		C30.217,57.6,31.017,57.483,31.65,57.45z M11.55,57.1c2.8,1.7,4.35,5.383,4.65,11.05c0.1,1.833,0.2,5.2,0.3,10.1
		c0.167,5.067,0.483,9.816,0.95,14.25c0.3,3,1.25,14.2,2.85,33.6l-0.05,6.2h-3.3c-0.7,0.033-1.784-0.217-3.25-0.75
		c-1.133-0.434-1.934-0.8-2.4-1.1c0.167-0.5,0.35-1.267,0.55-2.3c0.2-1.034,0.3-1.801,0.3-2.301c0-0.666-0.733-9.816-2.2-27.449
		l-1,24.699c0,1.534-0.15,3.084-0.45,4.65l-0.05-1.85c-0.133-2-0.2-3.967-0.2-5.9c0-1.3,0.133-4.3,0.4-9c0.3-5.9,0.517-10.9,0.65-15
		c-2.533,3.967-4.216,6.75-5.05,8.35c0.367-8.6,0.633-14.116,0.8-16.55c0.2-3.4,0.7-7.066,1.5-11c0.267-1.433,0.8-3.216,1.6-5.35
		c0.667-1.833,1-2.983,1-3.45c0.067-3.233,0.267-5.567,0.6-7C10.05,59.8,10.65,58.5,11.55,57.1z M78.9,104.3l-1.551-4.2l-0.199,2.25
		c-1.534-5.3-3.034-10.216-4.5-14.75L72.6,88.5c0.167,2.967,0.567,6.884,1.2,11.75c0.533,4,0.8,7.667,0.8,11
		c0,1.066-0.083,3.033-0.25,5.9c-0.199,3.633-0.433,5.966-0.699,7l-0.5-0.65c-0.434-0.533-0.967-1.017-1.601-1.45
		c-0.967,0.601-1.666,1.816-2.1,3.65c-0.2,0.934-0.384,1.916-0.55,2.95c-0.233-0.467-0.467-0.784-0.7-0.95l-0.3-0.15l-0.65-9
		c0.134,6.7,0.134,10.3,0,10.8c-1.434-0.166-2.217,0.034-2.35,0.601c-0.233,0.866-0.7,1.45-1.4,1.75c0.2-0.4,0.45-1.867,0.75-4.4
		c0.233-2.399,0.384-4.434,0.45-6.1l0.05-3.601l-0.6,0.601c-1.434-10.066-2.2-16.184-2.301-18.351
		C61.45,92.917,61.184,88.7,61.05,87.2c0.566-4.133,0.967-12.3,1.2-24.5c1.066,0.167,1.884,0.25,2.45,0.25
		c0.366,14.733,0.55,22.55,0.55,23.45l0.15-2.3c0.333-4.233,0.8-9.184,1.399-14.85c0.367-3.533,0.517-5.65,0.45-6.35l2.1-0.1
		c1.367,0,2.233,0.284,2.601,0.85c0.233,0.367,0.35,1.133,0.35,2.3c0,2.833,1.184,5.066,3.55,6.7c0.667,0.467,1.467,3.684,2.4,9.65
		c0.9,5.834,1.35,10.316,1.35,13.45C79.6,96.783,79.366,99.634,78.9,104.3z M59.6,63.35l-0.1-1.8l2.85,0.05l-0.1,0.8
		c-0.434,0.033-0.917,0.15-1.45,0.35C60.233,62.917,59.833,63.117,59.6,63.35z M69.6,65.05h-2.35c0,2.2-0.25,8.95-0.75,20.25
		c0,4.634,0.467,10.634,1.4,18c1.1,8.566,1.699,13.684,1.8,15.351c0.133-0.334,0.233-0.75,0.3-1.25l0.05-0.65
		C70.017,94.983,69.967,80.9,69.9,74.5C69.833,70,69.733,66.85,69.6,65.05z M61,87.35l0.8,19.051L60.25,88.05L61,87.35z M72.25,83.8
		c0.167,1.067,0.434,2.034,0.8,2.9l0.351-0.9l0.149-1.2c0.033-1.934,0-3.633-0.1-5.1c-0.134-2.733-0.533-4.883-1.2-6.45V83.8z
		 M84.6,117.6c0.134,4.267,0.167,7.167,0.101,8.7c-0.066,1.5-0.283,2.533-0.65,3.101c-0.934,0-2.566,0.5-4.899,1.5
		c-2.334,1-4.4,1.5-6.2,1.5c2.6-0.2,4.2-1.351,4.8-3.45c0.267-1.367,0.5-2.434,0.7-3.2c0.333-1.467,0.833-2.75,1.5-3.85v5.149l3.2-9
		C83.816,118.017,84.3,117.866,84.6,117.6z M41.7,137.7l-0.1-2.851v2.9c-3.767,0.467-7.083,0.717-9.95,0.75c3.7-0.9,6.6-1.5,8.7-1.8
		c0.333-0.066,0.717-0.834,1.15-2.3c3.866,0,6.767,0.233,8.7,0.699c0,0.367-0.033,1.117-0.101,2.25l-2.5-0.1
		C44.667,137.483,42.7,137.634,41.7,137.7z M56.05,135.2c-0.267,0.6-0.967,1.2-2.1,1.8C54.35,136.333,55.05,135.733,56.05,135.2z
		 M27.65,134.3l0.05,0.851l2.5,0.1c0.933,0,2.566-0.167,4.9-0.5c0.566,0.033,1.683,0,3.35-0.1c-7.534,0.733-13.117,1.1-16.75,1.1
		c-1.8,0.134-3.383,0.217-4.75,0.25c-2.688,0.033-4.038-0.15-4.05-0.55c0,0.468-0.084,0.851-0.25,1.149
		c-0.133,0.233-0.367,0.517-0.7,0.851c0.333,0.434,0.9,1.434,1.7,3c0.767,1.533,1.167,2.434,1.2,2.7l-1.05-1.75
		c-1.167-0.067-2.033,0-2.6,0.199c-0.5,0.267-0.95,0.45-1.35,0.551c-1.233-2.934-1.567-5.034-1-6.301
		c0.7-1.633,2.95-2.449,6.75-2.449c0.433,0,1.483,0.233,3.15,0.699c1.633,0.434,2.983,0.65,4.05,0.65
		C23.6,134.75,25.217,134.6,27.65,134.3z M41.45,162.2l0.2-0.8l0.25,0.949L41.45,162.2z"/>
	<path style="fill-rule:evenodd;clip-rule:evenodd;fill:#6D655A;" d="M64.15,118.2l0.6-0.601L64.7,121.2L64.15,118.2z M61.8,106.4
		l0.75,8.8c0.2,2.267,0.3,4.35,0.3,6.25c0,4.133-0.366,7.133-1.1,9c-0.434,1.133-0.866,1.7-1.3,1.7c-0.4,0-0.783-0.167-1.15-0.5
		c-0.399-0.434-0.75-0.767-1.05-1c-0.434,0.433-0.717,0.75-0.85,0.949c-0.101,0.067-0.601,0.284-1.5,0.65
		c-0.4-2.2-0.667-4.934-0.801-8.2c1.134-1.934,1.95-3.383,2.45-4.35c0.934-1.733,1.4-3.733,1.4-6c0-4.5,0-6.8,0-6.9
		c-0.8-6.366-1.7-14.467-2.7-24.3c-0.333-3.5-0.467-6.8-0.4-9.9c0.167-3.033,0.25-5.317,0.25-6.85l-0.35-4.25
		c0.967,0.033,2.217,0.05,3.75,0.05l0.1,1.8c-0.1,0.267-0.183,1.066-0.25,2.4c-0.1,1.167-0.149,2.05-0.149,2.65
		c0,6.633,0.133,11.55,0.399,14.75c0.167,1.733,0.384,3.367,0.65,4.9L61.8,106.4z M77.15,102.35c0.033,2,0.116,5.801,0.25,11.4
		c0.133,4.233,0.183,7.767,0.149,10.6c0.066-1.666,0.617-3.116,1.65-4.35c1.1-1.3,2.416-1.95,3.95-1.95l-3.2,9V121.9
		c-0.667,1.1-1.167,2.383-1.5,3.85c-0.2,0.767-0.434,1.833-0.7,3.2c-0.6,2.1-2.2,3.25-4.8,3.45c1.8,0,3.866-0.5,6.2-1.5
		c2.333-1,3.966-1.5,4.899-1.5c0.367-0.567,0.584-1.601,0.65-3.101c0.066-1.533,0.033-4.434-0.101-8.7
		c0.534-1.333,0.867-2.949,1-4.85c0.134-1.7,0.2-5.1,0.2-10.2c0-11.2-0.833-21.816-2.5-31.85c0.566-0.5,0.95-0.817,1.15-0.95
		c0.533-0.367,1.616-1,3.25-1.9l0.05,1c0.333,6.933,0.5,13.8,0.5,20.6c0,0.066,0.233,0.35,0.7,0.85c0.467,0.533,0.7,0.967,0.7,1.3
		c0,0.067-0.25,0.634-0.75,1.7c-0.5,1.8-0.75,4.634-0.75,8.5c0,3.867,0.25,6.384,0.75,7.55c0.5,1.134,0.75,2.051,0.75,2.75
		c0,0.567-0.233,1.217-0.7,1.95c-0.233,0.4-0.316,0.917-0.25,1.55c0.166,1.534,0.25,3.233,0.25,5.101
		c0,2.399-0.367,6.434-1.101,12.1l-0.1,14.101c-0.167,2.767-0.25,5.416-0.25,7.949c-0.033,1.367-0.4,2.417-1.1,3.15
		c-1.567,0.566-2.634,1.4-3.2,2.5c-0.667,1.3-1.25,2.1-1.75,2.4c0.133-1.334,0.25-3.534,0.35-6.601c0.101-2.5,0.15-4.184,0.15-5.05
		c0-1.9-0.066-2.95-0.2-3.15c-0.467-0.633-0.75-1.066-0.85-1.3l-0.15-0.3c-0.066,1.033-0.366,3.934-0.9,8.7
		c-0.533,4.633-0.816,7.25-0.85,7.85l-0.55,0.2H78.4c0.133-2.533,0.216-5.816,0.25-9.85c0.3-2.967,0.566-4.9,0.8-5.801
		c0.033-0.033,0.283-0.566,0.75-1.6l0.5-0.15c0.767,0.634,1.2,1.084,1.3,1.351c0.467,1.133,0.767,3.483,0.9,7.05l0.149,0.2
		c0.101,0.233,0.2,0.666,0.3,1.3c0.301-3.533,0.65-7.134,1.051-10.8c0.8-7.233,1.767-12.3,2.899-15.2
		c-1.666-0.267-3.566,0.083-5.7,1.05c-2.633,1.167-4.566,1.816-5.8,1.95c-4.666,0.434-7.6,0.767-8.8,1h15.2
		c-0.101,2.434-0.167,4.634-0.2,6.6c-0.033,0.067-0.384,0.101-1.05,0.101c-0.467,0-0.867-0.101-1.2-0.3
		c-0.2-0.101-0.533-0.351-1-0.75l-0.1,0.399c-0.067,0.334-0.101,0.7-0.101,1.101l0.05,4.55c-1.366,0.3-2.1,0.7-2.199,1.2
		c-0.101,0.399-0.317,0.6-0.65,0.6c-0.4,0-0.6-0.116-0.6-0.35V146c-0.967,4.267-1.684,7.667-2.15,10.2
		c-0.434,2.5-0.9,5.717-1.4,9.649c0.2-7.767,0.267-14.649,0.2-20.649c0.334-4.434,0.5-7.05,0.5-7.851l-0.05-1.949l-0.95,1.25
		c-0.633,1.3-0.916,3.149-0.85,5.55l-0.9,0.1H67.5c0.167-1.633,0.25-2.783,0.25-3.45c0-1.399-0.25-3.1-0.75-5.1
		c-0.066-0.2-0.717-0.4-1.95-0.6c-0.967-0.167-1.8-0.267-2.5-0.301L60.9,132.5l2.6-0.8c0.7-0.3,1.167-0.884,1.4-1.75
		c0.133-0.566,0.916-0.767,2.35-0.601c0.134-0.5,0.134-4.1,0-10.8l0.65,9l0.3,0.15c0.233,0.166,0.467,0.483,0.7,0.95
		c0.166-1.034,0.35-2.017,0.55-2.95c0.434-1.834,1.133-3.05,2.1-3.65c0.634,0.434,1.167,0.917,1.601,1.45l0.5,0.65
		c0.267-1.034,0.5-3.367,0.699-7c0.167-2.867,0.25-4.834,0.25-5.9c0-3.333-0.267-7-0.8-11c-0.633-4.866-1.033-8.783-1.2-11.75
		l0.051-0.9C74.116,92.134,75.616,97.05,77.15,102.35z M67.25,169.55l-0.9-3.05c1.167,0,1.934,0.25,2.301,0.75
		c0.133,0.134,0.233,0.517,0.3,1.15c0.1,1.033,0.017,2.3-0.25,3.8L67.25,169.55z M65.6,164.8c-0.566-0.7-1.05-1.2-1.449-1.5
		c-1.034-0.733-2.267-1.1-3.7-1.1c-0.8,0-1.566,0.333-2.3,1c-0.467,0.434-1.2,1.2-2.2,2.3c0.633-2.9,0.983-4.733,1.05-5.5
		c0.733-0.2,1.733-0.267,3-0.2c1,0.033,1.684-0.116,2.05-0.45c1.066-0.933,1.717-4.899,1.95-11.899l0.3,2.25
		c-0.033,3.767-0.283,7.233-0.75,10.399c0.033,0.334,0.101,0.634,0.2,0.9l0.35,0.05c0.334-0.133,0.601-0.467,0.801-1
		c0.166-0.399,0.383-1.116,0.649-2.149l0.351,0.85L65.6,164.8z M42.3,163.4c0.434-1.467,1.083-2.2,1.95-2.2
		c0.833,0,1.417,0.583,1.75,1.75c0.267,1,0.333,2.233,0.2,3.7C45,165.05,43.7,163.967,42.3,163.4z M35.6,163.3
		c-0.367-0.033-0.967-0.017-1.8,0.05c-0.733,0.067-1.117,0.101-1.15,0.101c0.133-2.601-0.167-5.117-0.9-7.55
		c-0.733-2.434-1.567-3.65-2.5-3.65c-0.7,0-1.333,0.217-1.9,0.65c-0.3,0.199-0.6,0.416-0.9,0.649c-0.4-0.899-0.6-1.967-0.6-3.2
		c0-1.433,0.45-2.767,1.35-4c0.9-1.199,1.35-2.083,1.35-2.649c0-1.5-0.316-2.8-0.95-3.9c1.167-0.434,2.517-0.866,4.05-1.3
		c2.867-0.033,6.184-0.283,9.95-0.75c-0.1,1.434-0.4,2.917-0.9,4.45c-1.567,0.934-2.633,1.666-3.2,2.2
		c-0.533,0.533-1.083,0.966-1.65,1.3c1.733,1.066,3.983,1.533,6.75,1.399c0.066,1.4,0.1,3.067,0.1,5c0,0.7-0.083,2.167-0.25,4.4
		c-0.167,2.6-0.35,4.55-0.55,5.85l-0.25-0.949l-0.2,0.8c-0.367-0.267-1.333-1.384-2.9-3.351c-1.6-2-2.533-3.283-2.8-3.85l-0.15-0.55
		C35.733,156.85,35.733,159.8,35.6,163.3z M9.2,52.8C9,49,8.667,44.817,8.2,40.25l3.05-2.7c-0.1,1.833-0.317,4.6-0.65,8.3
		c-0.333,3.9-0.55,6-0.65,6.3L9.2,52.8z M57.55,59.85l-3.8,1.55c0.434,0.033,1.083,0.067,1.95,0.1l-2.9,0.35h-2.2
		c0-0.1-0.1-0.283-0.3-0.55c-0.267-0.333-0.45-0.6-0.55-0.8c0.4-0.233,1.167-0.45,2.3-0.65c1.101-0.2,2.15-0.3,3.15-0.3
		c-0.867-7.5-1.334-11.75-1.4-12.75c-0.333-3.466-0.816-10.25-1.45-20.35l0.301-2.85l3.25,0.5h0.05c0.333,2.6,0.5,5.233,0.5,7.9
		c0,1.167-0.05,2.483-0.15,3.95c0,0.667,0.05,1.283,0.15,1.85c0.066,0.333,0.267,0.95,0.6,1.85l0.3,0.1
		c0.101,0.067,0.184,0.2,0.25,0.4c0.034,0.1,0.051,0.233,0.051,0.4c0,3.3-0.334,7.333-1,12.1c-0.5,3.633-0.884,5.95-1.15,6.95
		L57.55,59.85z M42.65,36.2c0.133,4.367,0.65,12.117,1.55,23.25c-0.333-0.034-1.067-0.467-2.2-1.3c-1.233-0.967-2.083-1.6-2.55-1.9
		c-0.2-1.933-0.3-3.233-0.3-3.9c0.333-6.3,0.4-11.233,0.2-14.8l3-1.2L42.65,36.2z M69.15,31l0.8-0.3c0.8-0.2,1.85-0.284,3.149-0.25
		l-0.6,5.8c-0.033,0.167-0.384,0.867-1.05,2.1c-0.634,1.633-0.95,3.667-0.95,6.1c0,0.667,0.25,5.167,0.75,13.5
		c0,0.466,0.1,0.867,0.3,1.2c0.2,0.3,0.417,0.483,0.65,0.55l0.75,0.6L65.6,60.35c1.534,0.566,3.567,1.117,6.101,1.65
		c2.666,0.533,4.8,0.8,6.399,0.8c2.134,0,3.467-0.25,4-0.75c0.5-0.466,1.334-0.683,2.5-0.65c-0.5-1.3-3.066-1.833-7.699-1.6
		c-1.4,0.133-2.5,0.233-3.301,0.3l0.351-0.35c0.6-0.067,2.233-0.083,4.899-0.05c2.434-0.233,3.801-1.2,4.101-2.9
		c1.899,0.333,3.017-0.35,3.35-2.05c0.101-2.633,0.2-4.867,0.3-6.7l0.851,1.45l0.3,7.85c-0.434,2.4-0.783,4.733-1.05,7
		c-0.233,1.2-0.884,2.1-1.95,2.7c-0.1-0.233-0.417-1.667-0.95-4.3h-1.6c-0.233,0.367-0.5,1.483-0.8,3.35
		c-0.4,2.4-0.667,3.883-0.801,4.45c-0.8,1.8-0.916,5.483-0.35,11.05c0.066,0.9,0.7,5.583,1.9,14.05
		c1.066,7.866,1.6,13.333,1.6,16.399c0,0.434-0.033,0.816-0.1,1.15c0.166,0.166-0.084,0.25-0.75,0.25c-0.7,0-1.301-0.434-1.801-1.3
		c-0.767-1.4-1.5-4.017-2.199-7.851c0.466-4.666,0.699-7.517,0.699-8.55c0-3.134-0.449-7.616-1.35-13.45
		c-0.934-5.966-1.733-9.183-2.4-9.65c-2.366-1.633-3.55-3.867-3.55-6.7c0-1.167-0.116-1.934-0.35-2.3
		c-0.367-0.566-1.233-0.85-2.601-0.85l-2.1,0.1c0.066,0.7-0.083,2.817-0.45,6.35c-0.6,5.667-1.066,10.617-1.399,14.85l-0.15,2.3
		c0-0.9-0.184-8.717-0.55-23.45c-0.566,0-1.384-0.083-2.45-0.25v-0.3l0.1-0.8c0.301-0.733,0.983-1.767,2.051-3.1
		c1.066-1.3,1.6-2.617,1.6-3.95c0-0.7-0.2-3.05-0.6-7.05c-0.434-4.033-0.65-6.533-0.65-7.5c0-0.033,0.017-0.05,0.05-0.05
		c0.167-0.167,0.351-0.35,0.55-0.55c1.2-1.367,1.801-3.017,1.801-4.95C67.217,34.217,67.884,33.067,69.15,31z M80.5,40.7
		c0,1.2-0.5,6.633-1.5,16.3l-0.3,0.75c-0.134-5.367-0.417-9.35-0.851-11.95c-1.3-7.433-2.05-11.9-2.25-13.4
		c0.467,0.233,0.733,1,0.801,2.3c0,0.167,0,0.367,0,0.6l0.05,0.8l0.399,2.05c0,0.7,0.367,1.3,1.101,1.8
		C78.65,40.45,79.5,40.7,80.5,40.7z M34.8,54.4c0.233-1.566,0.4-3.733,0.5-6.5c0.1-3.233,0.15-4.867,0.15-4.9l0.15-0.45
		c0.5,2.8,0.983,5.034,1.45,6.7c0.3,1.1,0.95,3.367,1.95,6.8C38.067,55.55,36.667,55,34.8,54.4z M31.65,57.45l0.6-0.05L34,58.2
		l0.1-1c4.5,1.3,7.667,4.066,9.5,8.3c1.567,3.667,2.567,9.65,3,17.95l0.15-1.35c0.6,3.633,1,6.534,1.2,8.7
		c0,7.8,0.25,15.017,0.75,21.65c0.267,3.899,0.767,10.149,1.5,18.75c-1.033,1.233-1.75,1.75-2.15,1.55
		c-1.399-0.733-3.183-1.1-5.35-1.1c-0.967,0-2.784,0.366-5.45,1.1c-2.333,0.634-4.367,0.816-6.1,0.55c0.9-0.899,1.733-2.467,2.5-4.7
		c0.733-2.066,1.1-3.75,1.1-5.05l-0.9-22.85L34.9,82c0.8,8.434,1.583,17.6,2.35,27.5c0.2,2.667,0.833,7.267,1.9,13.8l0.25,0.4
		C38.933,97.434,36.35,75.35,31.65,57.45z M27.65,134.3c1.033,0,3.517,0.15,7.45,0.45c-2.333,0.333-3.967,0.5-4.9,0.5l-2.5-0.1
		L27.65,134.3z M22.2,121.9c-0.034-2.233-0.267-4.367-0.7-6.4c-0.4-1.833-0.85-3.217-1.35-4.15c0.1,0.767,0.083,2.567-0.05,5.4
		c0,0.333,0.066,1.75,0.2,4.25c0.1,2.533,0.1,4.233,0,5.1c-1.6-19.399-2.55-30.6-2.85-33.6c-0.467-4.434-0.784-9.183-0.95-14.25
		c-0.1-4.9-0.2-8.267-0.3-10.1c-0.3-5.667-1.85-9.35-4.65-11.05c1.067,0.1,3.083,0.066,6.05-0.1c1.5-0.1,3.1-0.2,4.8-0.3
		c0.767,0,1.567,0.3,2.4,0.9c0.8,0.533,1.55,0.767,2.25,0.7c-0.033,0.133-0.6,2.383-1.7,6.75C24.45,68.617,24,71.133,24,72.6
		c0,0.2,0.217,2.167,0.65,5.9c0.4,3.733,0.6,7.883,0.6,12.45c0,6.5-0.4,12.583-1.2,18.25C23.617,112.3,23,116.533,22.2,121.9z
		 M30,132.85l-2.15-1l-0.1-6.5c0-1.733,0.117-3.166,0.35-4.3l0.25-1.05c0.333,0.7,0.667,2.816,1,6.35
		C29.75,130.55,29.967,132.717,30,132.85z M55.1,133.55c0.967,0.134,2.45,0.316,4.45,0.55c-1.366-0.1-2.267-0.033-2.7,0.2
		c-0.3,0.167-0.566,0.467-0.8,0.9c-1,0.533-1.7,1.133-2.1,1.8c-0.2,0.233-0.45,0.5-0.75,0.8c-0.2,0.233-0.3,0.566-0.3,1
		c0,1.101,0.199,2.167,0.6,3.2l0.3-1.2c0.267,1.767,0.4,2.9,0.4,3.4c0,0.8-0.134,1.483-0.4,2.05c-0.333,0.7-0.8,1.05-1.399,1.05
		c-1.601,0-2.45-1.767-2.551-5.3c0.034-0.767,0.084-1.483,0.15-2.15c-0.467,2.534-0.7,4.801-0.7,6.801
		c0,2.699,0.283,6.966,0.851,12.8c0.533,5.366,0.75,9.25,0.649,11.649l-1.95,0.051c0.134-11.801,0.2-18.034,0.2-18.7
		c0-2.134-0.166-4.117-0.5-5.95c-0.366-1.8-0.783-2.95-1.25-3.45c-1.967,0-3.3-0.017-4-0.05c-1.167-0.066-2.033-0.333-2.6-0.8
		c0.466-0.533,0.767-1.134,0.9-1.8c0.066-0.4,0.1-1.301,0.1-2.7c1-0.066,2.966-0.217,5.899-0.45l2.5,0.1
		c0.067-1.133,0.101-1.883,0.101-2.25c0.399-0.267,1.233-0.6,2.5-1C53.9,133.733,54.7,133.55,55.1,133.55z"/>
	<path style="fill-rule:evenodd;clip-rule:evenodd;fill:#635B52;" d="M41.6,137.75v-2.9l0.1,2.851c0,1.399-0.034,2.3-0.1,2.7
		c-0.133,0.666-0.434,1.267-0.9,1.8c0.566,0.467,1.433,0.733,2.6,0.8c0.7,0.033,2.033,0.05,4,0.05c0.467,0.5,0.884,1.65,1.25,3.45
		c0.334,1.833,0.5,3.816,0.5,5.95c0,0.666-0.066,6.899-0.2,18.7l1.95-0.051v0.4c-0.467,0.033-1.116-0.033-1.95-0.2
		c-0.699-0.1-1.25-0.217-1.649-0.35l-0.05-0.05c-0.067,0-0.117-0.017-0.15-0.051c0.066-0.433,0.017-1.083-0.15-1.949
		c-0.166-0.967-0.383-1.717-0.649-2.25c0.133-1.467,0.066-2.7-0.2-3.7c-0.333-1.167-0.917-1.75-1.75-1.75
		c-0.867,0-1.517,0.733-1.95,2.2c-0.8-0.067-2.083-0.101-3.85-0.101c-1.767,0-2.717,0-2.85,0c0.133-3.5,0.133-6.45,0-8.85l0.15,0.55
		c0.267,0.566,1.2,1.85,2.8,3.85c1.567,1.967,2.534,3.084,2.9,3.351l0.45,0.149c0.2-1.3,0.383-3.25,0.55-5.85
		c0.167-2.233,0.25-3.7,0.25-4.4c0-1.933-0.034-3.6-0.1-5c-2.767,0.134-5.017-0.333-6.75-1.399c0.566-0.334,1.117-0.767,1.65-1.3
		c0.567-0.534,1.633-1.267,3.2-2.2C41.2,140.667,41.5,139.184,41.6,137.75z M31.85,163.45l-2.4,0.2c-0.5-2.4-0.75-4.25-0.75-5.551
		c0-0.5,0.1-1.267,0.3-2.3c0.167-1.066,0.333-1.783,0.5-2.149l0.3-0.7c0.1,0.333,0.267,1.916,0.5,4.75
		C30.5,159.866,31.017,161.783,31.85,163.45z M18.4,166.9c0.3-4.134,0.434-7.267,0.4-9.4v-0.35c0.733,1.233,1.434,2.699,2.1,4.399
		c0.6,1.667,1.434,3.367,2.5,5.101l-2,0.149c-0.333-0.5-0.75-1.033-1.25-1.6l-0.2,1.649L18.4,166.9z M27.65,134.3
		c-2.433,0.3-4.05,0.45-4.85,0.45c-1.066,0-2.417-0.217-4.05-0.65c-1.667-0.466-2.717-0.699-3.15-0.699
		c-3.8,0-6.05,0.816-6.75,2.449c-0.567,1.267-0.233,3.367,1,6.301c0.267,0.633,0.433,2.75,0.5,6.35c0.066,1.9,0.1,4.2,0.1,6.9
		c0.1,3.133,0.133,6.466,0.1,10l-0.6-0.4c-1.434-1.233-2.117-2.667-2.05-4.3c0.067-2-0.267-3.584-1-4.75
		c-0.833-1.4-1.483-2.417-1.95-3.05c-0.8-1-1.833-1.784-3.1-2.351c-1.167-0.533-1.783-3.35-1.85-8.45
		c0.1-12.267,0.15-25.683,0.15-40.25L0.3,56c0-1.667,0.934-2.983,2.8-3.95c2-1.033,3.133-2.9,3.4-5.6c0.1,0.5,0.283,1.716,0.55,3.65
		c0.3,1.767,0.65,2.816,1.05,3.15c0.333-0.1,0.7-0.25,1.1-0.45l0.75-0.65c0.5-0.8,0.833-2.75,1-5.85c0.233-4.5,0.466-7.566,0.7-9.2
		c0.6-0.6,0.983-1.367,1.15-2.3c0.1-0.466,0.15-1.05,0.15-1.75l-0.05-1.4c0-0.7,0.083-1.35,0.25-1.95l0.2-0.65
		c0.1,0.967,0.3,5.833,0.6,14.6c0.167,5.7,0.6,9,1.3,9.9l4.05-0.9c0.5-1.066,0.184-2.117-0.95-3.15c-1.4-1.233-2.1-2.55-2.1-3.95
		c-0.233-1.733-0.467-3.683-0.7-5.85c-0.433-4.233-0.617-8.934-0.55-14.1c0.667-1.367,1.3-2.733,1.9-4.1
		c1.2-2.767,1.667-4.2,1.4-4.3c0.434-0.367,0.867-0.684,1.3-0.95c-0.1,0.967-0.483,3.967-1.15,9c-0.567,4.4-0.85,7.05-0.85,7.95
		c0,2.6,0.85,6.183,2.55,10.75c1.5,4.033,1.983,7.433,1.45,10.2l3.2-0.35c-1.367-17.233-2.767-29.816-4.2-37.75
		c0-0.033,0-0.066,0-0.1l0.5-0.05c0.933,0.567,2.033,1.083,3.3,1.55c0.3,0.566,0.567,2.167,0.8,4.8c0.133,1.367,0.25,2.95,0.35,4.75
		c0.1,0.8,0.267,1.467,0.5,2l1.15,2.35c0.2,2.633,0.5,5.483,0.9,8.55C28.367,42.033,29,46.733,30,54l4.8,0.4
		c1.867,0.6,3.267,1.15,4.2,1.65l0.45,0.2c0.466,0.3,1.316,0.933,2.55,1.9c1.133,0.833,1.867,1.267,2.2,1.3
		c-0.9-11.133-1.417-18.883-1.55-23.25l0.55-0.3c0.733-0.4,1.233-1.117,1.5-2.15c0.033-0.2,0.133-1.017,0.3-2.45
		c0.134-2.167,0.167-4.933,0.1-8.3c0.967,0.067,1.851,0.083,2.65,0.05L46.4,32c-0.267,2.367-0.384,6.183-0.351,11.45L45.65,49
		c0,0.667,0.183,5.283,0.55,13.85c-0.134,0.267-0.25,0.783-0.351,1.55c-0.1,0.733-0.149,1.367-0.149,1.9
		c0,1.867,0.35,7.133,1.05,15.8l-0.15,1.35c-0.433-8.3-1.433-14.284-3-17.95c-1.833-4.233-5-7-9.5-8.3l-1.85,0.2l-0.6,0.05
		c-0.633,0.033-1.433,0.15-2.4,0.35c-1.033,0.267-1.767,0.434-2.2,0.5c-0.7,0.067-1.45-0.167-2.25-0.7c-0.833-0.6-1.633-0.9-2.4-0.9
		c-1.7,0.1-3.3,0.2-4.8,0.3c-2.967,0.167-4.983,0.2-6.05,0.1c-0.9,1.4-1.5,2.7-1.8,3.9c-0.333,1.433-0.533,3.767-0.6,7
		c0,0.467-0.333,1.617-1,3.45c-0.8,2.133-1.333,3.917-1.6,5.35c-0.8,3.934-1.3,7.6-1.5,11c-0.167,2.434-0.433,7.95-0.8,16.55
		c0.833-1.6,2.517-4.383,5.05-8.35c-0.133,4.1-0.35,9.1-0.65,15c-0.267,4.7-0.4,7.7-0.4,9c0,1.934,0.067,3.9,0.2,5.9l0.05,1.85
		c0.3-1.566,0.45-3.116,0.45-4.65l1-24.699c1.466,17.633,2.2,26.783,2.2,27.449c0,0.5-0.1,1.267-0.3,2.301
		c-0.2,1.033-0.383,1.8-0.55,2.3c0.467,0.3,1.267,0.666,2.4,1.1c1.466,0.533,2.55,0.783,3.25,0.75h3.3l0.05-6.2
		c0.1-0.866,0.1-2.566,0-5.1c-0.133-2.5-0.2-3.917-0.2-4.25c0.133-2.833,0.15-4.634,0.05-5.4c0.5,0.934,0.95,2.317,1.35,4.15
		c0.433,2.033,0.667,4.167,0.7,6.4c-0.1,5.899,0.267,9.199,1.1,9.899c0.6,0.5,2.117,0.517,4.55,0.05l2.15,1l1.15,0.45
		c1.733,0.267,3.767,0.084,6.1-0.55c2.667-0.733,4.483-1.1,5.45-1.1c2.167,0,3.95,0.366,5.35,1.1c0.4,0.2,1.117-0.316,2.15-1.55
		c0.934-1.867,1.399-3.45,1.399-4.75c0-0.667,0.2-1,0.601-1c0.7,0,0.95-2.601,0.75-7.8c-0.3-5.233-0.45-7.934-0.45-8.101
		c0.2-4.833,0.25-8.967,0.15-12.399c0.066,0,0.1-0.467,0.1-1.4c0.767,6.8,1.4,12.434,1.9,16.9c0.066,0.666,0.133,1.3,0.199,1.899
		c0.067,0.733,0.134,1.934,0.2,3.601c0.033,1.533,0.05,3.5,0.05,5.899c0.134,3.267,0.4,6,0.801,8.2
		c0.899-0.366,1.399-0.583,1.5-0.65c0.133-0.199,0.416-0.517,0.85-0.949c0.3,0.233,0.65,0.566,1.05,1c0.367,0.333,0.75,0.5,1.15,0.5
		c0.434,0,0.866-0.567,1.3-1.7c0.733-1.867,1.1-4.867,1.1-9c0-1.9-0.1-3.983-0.3-6.25l-0.75-8.8L61,87.35l0.05-0.149
		c0.134,1.5,0.4,5.717,0.8,12.649c0.101,2.167,0.867,8.284,2.301,18.351l0.55,3c-0.066,1.666-0.217,3.7-0.45,6.1
		c-0.3,2.533-0.55,4-0.75,4.4l-2.6,0.8l1.649,0.35c-0.633,0.4-3.116,0.634-7.45,0.7c-0.399,0-1.199,0.184-2.399,0.55
		c-1.267,0.4-2.101,0.733-2.5,1c-1.934-0.466-4.834-0.699-8.7-0.699l0.1-0.351c-0.133,0.2-0.583,0.334-1.35,0.4l-1.8,0.2
		c-1.667,0.1-2.784,0.133-3.35,0.1C31.167,134.45,28.683,134.3,27.65,134.3z M30.7,38c0,0.4-0.25,1.867-0.75,4.4l-0.25-0.8
		c-0.267-1.067-0.417-2.3-0.45-3.7l1,0.1H30.7z M55.7,61.5c-0.867-0.033-1.517-0.067-1.95-0.1l3.8-1.55
		c0.967-0.867,1.467-2.483,1.5-4.85c-0.133-2.433-0.2-3.9-0.2-4.4c0.334-3,0.417-6.083,0.25-9.25l0.551,0.05
		c0.433,0.067,0.85,0.083,1.25,0.05c0.3,0,0.6-0.017,0.899-0.05c0.367-0.066,0.733-0.167,1.101-0.3
		c-0.067,0.667,0.083,1.7,0.449,3.1c0.534,2.1,0.884,6.867,1.051,14.3c-1.067,1.333-1.75,2.367-2.051,3.1l-2.85-0.05
		c-1.533,0-2.783-0.017-3.75-0.05H55.7z M77.15,102.35l0.199-2.25l1.551,4.2c0.699,3.834,1.433,6.45,2.199,7.851
		c0.5,0.866,1.101,1.3,1.801,1.3c0.666,0,0.916-0.084,0.75-0.25c0.066-0.334,0.1-0.717,0.1-1.15c0-3.066-0.533-8.533-1.6-16.399
		c-1.2-8.467-1.834-13.15-1.9-14.05c-0.566-5.567-0.45-9.25,0.35-11.05c0.4-0.867,0.784-1.683,1.15-2.45
		c0.8-1.5,1.184-2.017,1.15-1.55c0.033,1.1,0.166,2.483,0.399,4.15c1.667,10.033,2.5,20.649,2.5,31.85c0,5.101-0.066,8.5-0.2,10.2
		c-0.133,1.9-0.466,3.517-1,4.85c-0.3,0.267-0.783,0.417-1.449,0.45c-1.534,0-2.851,0.65-3.95,1.95
		c-1.033,1.233-1.584,2.684-1.65,4.35c0.033-2.833-0.017-6.366-0.149-10.6C77.267,108.15,77.184,104.35,77.15,102.35z M72.95,60.3
		h0.399l0.25-0.2c0.801-0.067,1.9-0.167,3.301-0.3c4.633-0.233,7.199,0.3,7.699,1.6c-1.166-0.033-2,0.184-2.5,0.65
		c-0.533,0.5-1.866,0.75-4,0.75c-1.6,0-3.733-0.267-6.399-0.8c-2.533-0.533-4.566-1.083-6.101-1.65L72.95,60.3z M64.3,149.7l0.2,1.1
		l1.05,7.101c-0.267,1.033-0.483,1.75-0.649,2.149c-0.2,0.533-0.467,0.867-0.801,1L63.75,161c-0.1-0.267-0.167-0.566-0.2-0.9
		C64.017,156.934,64.267,153.467,64.3,149.7z M70.45,142.2c-0.066-2.4,0.217-4.25,0.85-5.55l0.95-1.25l0.05,1.949
		c0,0.801-0.166,3.417-0.5,7.851c-0.033,0.6-0.184,1.149-0.45,1.649L71,147.1L70.45,142.2z M78.65,153.4l-0.051,0.55v-8.5
		l-0.05-4.55c0-0.4,0.033-0.767,0.101-1.101l0.1-0.399c0.467,0.399,0.8,0.649,1,0.75c0.333,0.199,0.733,0.3,1.2,0.3
		c0.666,0,1.017-0.033,1.05-0.101c0.033-1.966,0.1-4.166,0.2-6.6H67c1.2-0.233,4.134-0.566,8.8-1c1.233-0.134,3.167-0.783,5.8-1.95
		c2.134-0.967,4.034-1.316,5.7-1.05c-1.133,2.9-2.1,7.967-2.899,15.2c-0.4,3.666-0.75,7.267-1.051,10.8
		c-0.1-0.634-0.199-1.066-0.3-1.3l-0.149-0.2c-0.134-3.566-0.434-5.917-0.9-7.05c-0.1-0.267-0.533-0.717-1.3-1.351L80.2,146
		c-0.467,1.033-0.717,1.566-0.75,1.6C79.217,148.5,78.95,150.434,78.65,153.4z"/>
	<path style="fill-rule:evenodd;clip-rule:evenodd;fill:#898176;" d="M73.15,29.9l1.649,0.25c0.101,1.167,0.217,2.95,0.351,5.35
		c0.133,2.2,0.199,3.583,0.199,4.15c0,11.233-0.466,17.934-1.399,20.1L73.6,60.1l-0.25,0.2H72.95l-0.75-0.6l-1.5-15.05
		c0-0.133,0.283-1.383,0.85-3.75c0.566-2.433,0.884-3.983,0.95-4.65l0.6-5.8L73.15,29.9z M52.65,23.6l-0.301,2.85
		c-1.933,15.867-2.899,24.566-2.899,26.1c0,1.633,0.316,2.867,0.95,3.7c0.399,0.467,1.017,1.183,1.85,2.15l0.05,0.3
		c-1.5,0.3-2.883,0.45-4.149,0.45L47.35,59.1c-0.199-0.934-0.416-2.833-0.649-5.7c-0.233-4-0.45-7.316-0.65-9.95
		C46.017,38.183,46.134,34.367,46.4,32c1.1-5.3,1.75-8.283,1.949-8.95c0.034-0.066,0.067-0.117,0.101-0.15
		c0.066-0.066,0.116-0.017,0.149,0.15l5-11C53.434,15.083,53.116,18.933,52.65,23.6z M61.05,87.2L61,87.35l-0.75,0.7
		c-0.267-1.533-0.483-3.167-0.65-4.9c-0.267-3.2-0.399-8.117-0.399-14.75c0-0.6,0.05-1.483,0.149-2.65
		c0.067-1.333,0.15-2.133,0.25-2.4c0.233-0.233,0.634-0.434,1.2-0.6c0.533-0.2,1.017-0.317,1.45-0.35v0.3
		C62.017,74.9,61.616,83.067,61.05,87.2z M69.6,65.05c0.134,1.8,0.233,4.95,0.301,9.45c0.066,6.4,0.116,20.483,0.149,42.25L70,117.4
		c-0.066,0.5-0.167,0.916-0.3,1.25c-0.101-1.667-0.7-6.784-1.8-15.351c-0.934-7.366-1.4-13.366-1.4-18
		C67,74,67.25,67.25,67.25,65.05H69.6z M47.95,90.8c-0.2-2.166-0.601-5.066-1.2-8.7c-0.7-8.667-1.05-13.934-1.05-15.8
		c0-0.533,0.05-1.167,0.149-1.9c0.101-0.767,0.217-1.283,0.351-1.55c0.5-0.333,1.616-0.6,3.35-0.8h5.4v3.2
		c-0.101,3.233-0.233,10.233-0.4,21c-0.033,0-0.316,0.15-0.85,0.45c-0.367-0.6-0.717-1.667-1.05-3.2c-0.2-0.867-0.667-3.2-1.4-7
		l-0.35-2c0,3.267,0,5.083,0,5.45c-0.067,1.367-0.284,2.3-0.65,2.8c-0.434,0.6-0.684,0.95-0.75,1.05
		c-0.233,0.4-0.384,0.833-0.45,1.3l-0.35,16.8C48.7,98.434,48.45,94.733,47.95,90.8z M55.05,118.15
		c-0.066-1.667-0.133-2.867-0.2-3.601c-0.066-0.6-0.133-1.233-0.199-1.899c-0.134-4.767-0.267-13.4-0.4-25.9h0.35
		c0.434,6.667,0.934,12.316,1.5,16.95c0.334,2.866,0.5,5.55,0.5,8.05c0,3.1-0.133,5.866-0.399,8.3c-0.101-0.267-0.4-0.7-0.9-1.3
		C55.2,118.616,55.116,118.417,55.05,118.15z M72.25,83.8V73.05c0.667,1.567,1.066,3.717,1.2,6.45c0.1,1.467,0.133,3.167,0.1,5.1
		L73.4,85.8l-0.351,0.9C72.684,85.833,72.417,84.867,72.25,83.8z M53.95,137c1.133-0.6,1.833-1.2,2.1-1.8
		c0.233-0.434,0.5-0.733,0.8-0.9c0.434-0.233,1.334-0.3,2.7-0.2l0.3,0.051c0.233,0,0.467,0.017,0.7,0.05
		c1.867,0.066,3.101-0.084,3.7-0.45c2.1,1.5,3.167,3.6,3.2,6.3c0,1.434-0.2,3.084-0.601,4.95c0,1.434,0.184,4.634,0.551,9.6
		c0,0.667-0.084,2.034-0.25,4.101c-0.467,0.066-0.884,0.083-1.25,0.05l-0.351-0.85L64.5,150.8c-0.467-5.833-1.05-9-1.75-9.5
		c-0.167-0.1-0.434-0.166-0.8-0.2c-0.233,0.233-0.417,0.75-0.55,1.551c-0.067,0.433-0.15,1.033-0.25,1.8l-0.2,0.2
		c-0.634-0.9-1.3-2.334-2-4.301c-0.334-1.033-1.05-1.55-2.15-1.55c-0.333,0-0.733,0.117-1.2,0.351
		c-0.733,0.333-1.333,0.883-1.8,1.649l-0.3,1.2c-0.4-1.033-0.6-2.1-0.6-3.2c0-0.434,0.1-0.767,0.3-1
		C53.5,137.5,53.75,137.233,53.95,137z M31.65,138.5c-1.533,0.434-2.883,0.866-4.05,1.3c-3.3,0.566-5.1,2.517-5.4,5.851
		c-0.167,2-0.017,5.483,0.45,10.449c0,0.667-0.05,1.517-0.15,2.551c-0.833,0.466-1.467,0.733-1.9,0.8
		c-0.6-1.867-1.184-4.934-1.75-9.2c-0.467-3.434-1.033-5.566-1.7-6.4l-0.3-0.199l-1.15,2.399c-0.067,0.967-0.184,1.601-0.35,1.9
		c-0.267-2.634-0.434-4.233-0.5-4.8c-0.033-0.267-0.434-1.167-1.2-2.7c-0.8-1.566-1.367-2.566-1.7-3
		c0.333-0.334,0.566-0.617,0.7-0.851c0.166-0.299,0.25-0.682,0.25-1.149c0.013,0.399,1.363,0.583,4.05,0.55
		c1.367-0.033,2.95-0.116,4.75-0.25c3.633,0,9.216-0.366,16.75-1.1l1.8-0.2c0.767-0.066,1.217-0.2,1.35-0.4l-0.1,0.351
		c-0.433,1.466-0.817,2.233-1.15,2.3C38.25,137,35.35,137.6,31.65,138.5z"/>
	<path style="fill-rule:evenodd;clip-rule:evenodd;fill:#9B9286;" d="M15.7,146.05c0.433,3.733,0.65,6.834,0.65,9.3
		c0,2.467,0.3,6.317,0.9,11.551c-1.367-0.167-2.45-0.301-3.25-0.4c-1.467-0.2-2.5-0.483-3.1-0.85l-0.35-0.25
		c0.034-3.534,0-6.867-0.1-10c2.066-0.534,3.183-1.967,3.35-4.301c-0.133-3.633-0.133-6.866,0-9.699l1.05,1.75
		c0.066,0.566,0.233,2.166,0.5,4.8C15.517,147.65,15.633,147.017,15.7,146.05z"/>
</g>
</svg>
