<?xml version="1.0" encoding="iso-8859-1"?>
<!-- Generator: Adobe Illustrator 15.1.0, SVG Export Plug-In . SVG Version: 6.00 Build 0)  -->
<!DOCTYPE svg PUBLIC "-//W3C//DTD SVG 1.1//EN" "http://www.w3.org/Graphics/SVG/1.1/DTD/svg11.dtd">
<svg version="1.1" id="Layer_1" xmlns="http://www.w3.org/2000/svg" xmlns:xlink="http://www.w3.org/1999/xlink" x="0px" y="0px"
	 width="55.55px" height="72.85px" viewBox="0 0 55.55 72.85" style="enable-background:new 0 0 55.55 72.85;" xml:space="preserve"
	>
<g>
	<path style="fill-rule:evenodd;clip-rule:evenodd;fill:#635B52;" d="M55.5,32.25l-0.2,0.6c-0.566,0.667-1.184,1.167-1.85,1.5
		c-1.5,0.633-2.55,1.017-3.15,1.15c-0.399,0.1-0.866,0.117-1.399,0.05c0.333-0.333,0.466-0.983,0.399-1.95l-0.35,0.05
		c-0.2,0.033-0.7,0.217-1.5,0.55c-0.934,0.4-1.467,0.617-1.601,0.65c0.434-0.367,0.867-0.75,1.301-1.15
		c0.267-0.3,0.416-0.65,0.449-1.05c-0.033-0.233-0.383-0.45-1.05-0.65c-0.566-0.133-1.149-0.2-1.75-0.2
		c-0.934,0-1.916,0.35-2.95,1.05c-0.933,0.6-1.616,1.283-2.05,2.05v0.35c-0.3-0.367-0.583-0.667-0.85-0.9
		c-0.533-0.5-0.983-0.75-1.351-0.75c-0.399,0-0.899,0.25-1.5,0.75c-0.8,0.667-1.35,1.467-1.649,2.4
		c-0.4-0.233-0.684-0.433-0.851-0.6c-0.333-0.267-0.5-0.617-0.5-1.05c0-0.867,0.584-1.65,1.75-2.35
		c1.334-0.833,3.25-1.383,5.75-1.65l-0.05-0.35l0.5-5.3c0,2.233,0.066,4.05,0.2,5.45c0.866-0.033,2.884-0.65,6.05-1.85
		c1.4,0,2.667,0.284,3.8,0.85c0.034-2.133,0.101-3.867,0.2-5.2l0.45-1.4c0.167,1.633,0.2,3.867,0.1,6.7
		c1.233,0,2.034,0.083,2.4,0.25C54.85,30.517,55.267,31.183,55.5,32.25z M9.05,17.15c0,0.367-0.066,0.667-0.2,0.9
		c-0.633-0.367-1.367-0.75-2.2-1.15c-0.767-0.367-1.2-0.55-1.3-0.55c-1.1,0.9-2.033,1.5-2.8,1.8l-0.7-0.65
		c-0.1-0.133-0.4-0.567-0.9-1.3C0.417,15.367,0.1,14.85,0,14.65c0.3-1.233,0.883-1.95,1.75-2.15c0.6-0.133,1.95-0.217,4.05-0.25
		l0.05-1.9c0.1,0,0.333-0.333,0.7-1c0.2,0.4,0.3,1.2,0.3,2.4c2.9-0.8,4.883-1.2,5.95-1.2c0-0.867,0.217-2.433,0.65-4.7
		c0.533-2.533,0.883-4.3,1.05-5.3L14.75,0c0.1,0.767,0.183,2.367,0.25,4.8c0.067,2.7,0.133,4.6,0.2,5.7
		c0.3-0.033,1.35-0.383,3.15-1.05c1.733-0.633,3.1-0.95,4.1-0.95c0.466,0,1.25,0.783,2.35,2.35c0.833,1.2,1.434,2.167,1.8,2.9
		c-0.6-0.067-1.5-0.433-2.7-1.1c-1.133-0.6-2.15-0.9-3.05-0.9c-1.7,0-2.667,0.917-2.9,2.75c-0.2,1.9-1.233,2.933-3.1,3.1
		c1.4-0.733,2.1-1.467,2.1-2.2c0-0.433-0.133-0.717-0.4-0.85c-0.1-0.066-0.35-0.117-0.75-0.15c-1.9,0.5-3.05,0.8-3.45,0.9
		c0-1.533-0.033-2.517-0.1-2.95l-0.55,0.2c-0.567,0.5-1.367,1.017-2.4,1.55c-0.333,0.167-0.5,0.683-0.5,1.55
		C8.8,15.917,8.883,16.417,9.05,17.15z"/>
	<path style="fill-rule:evenodd;clip-rule:evenodd;fill:#898074;" d="M55.35,35.8c-1.199,1.5-2.399,2.667-3.6,3.5
		c-2.267,1.566-5.634,1.8-10.1,0.7L39.1,39c0.101-0.066,0.467-0.366,1.101-0.9c0.8-0.5,1.75-0.75,2.85-0.75l0.4,0.351l0.25,0.1
		c1.566,0.033,2.767-0.05,3.6-0.25c1.8-0.434,3.851-1.5,6.15-3.2c0.666-0.333,1.283-0.833,1.85-1.5l0.25,0.3L55.35,35.8z M12.8,19.8
		c3.133,0.267,7.5-0.533,13.1-2.4c-0.3,1.967-1.433,3.633-3.4,5v-0.05c-1.433,0-2.333-0.1-2.7-0.3l0.25,1l0.9,0.05
		c-0.567,0.167-1.1,0.367-1.6,0.6c-0.733-0.2-1.917-0.333-3.55-0.4c0.067,0.467,0.284,0.917,0.65,1.35
		c-0.367-0.033-1.534-0.483-3.5-1.35c-2.067-0.933-3.267-1.45-3.6-1.55C11.483,20.517,12.633,19.867,12.8,19.8z M21.9,59.95
		c-0.066,0.366-0.483,1.233-1.25,2.6c-0.667,1.167-1.183,2.017-1.55,2.55c-0.233-0.233-0.567-0.5-1-0.8
		c-0.5-0.3-0.85-0.467-1.05-0.5l0.8,2c-0.8-0.033-1.517-0.25-2.15-0.649c-0.667-0.434-1.417-0.7-2.25-0.801
		c3.9-2.833,5.966-4.5,6.2-5c0.133-0.033,0.417-0.017,0.85,0.051C21.067,59.5,21.533,59.684,21.9,59.95z"/>
	<path style="fill-rule:evenodd;clip-rule:evenodd;fill:#7C7367;" d="M39.8,34.9c0.033,0,0.667,0.434,1.9,1.3
		c0.7,0.5,1.149,0.883,1.35,1.149c-1.1,0-2.05,0.25-2.85,0.75c-0.634,0.534-1,0.834-1.101,0.9c-2.933-1.4-4.483-2.15-4.649-2.25
		c0.3-0.933,0.85-1.733,1.649-2.4c0.601-0.5,1.101-0.75,1.5-0.75c0.367,0,0.817,0.25,1.351,0.75c0.267,0.233,0.55,0.533,0.85,0.9
		V34.9z M55.5,32.25l0.05,0.9l-0.25-0.3L55.5,32.25z M1.85,17.5C1.017,16.667,0.4,15.717,0,14.65c0.1,0.2,0.417,0.717,0.95,1.55
		C1.45,16.933,1.75,17.367,1.85,17.5z M2.55,18.15c0.767-0.3,1.7-0.9,2.8-1.8c0.1,0,0.533,0.183,1.3,0.55
		c0.833,0.4,1.567,0.783,2.2,1.15c0.133-0.233,0.2-0.533,0.2-0.9c0.2,0.633,0.817,1.233,1.85,1.8c0.7,0.433,1.333,0.716,1.9,0.85
		c-0.167,0.067-1.316,0.717-3.45,1.95c-2.033-0.6-3.317-0.95-3.85-1.05L2.55,18.15z M19.65,59.35c0.233-2.533,0.033-4.883-0.6-7.05
		c0.733,0.101,1.35,0.134,1.85,0.101c0.3,0.066,1.017,0.399,2.15,1c0.034,1.733-0.033,2.933-0.2,3.6c-0.1,0.5-0.417,1.483-0.95,2.95
		c-0.367-0.267-0.833-0.45-1.4-0.55C20.067,59.333,19.783,59.316,19.65,59.35z M13.1,64.05l0.35,0.3l0.95,1.2L13.1,64.05z"/>
	<path style="fill-rule:evenodd;clip-rule:evenodd;fill:#6D655A;" d="M43.05,37.35C42.85,37.083,42.4,36.7,41.7,36.2
		c-1.233-0.867-1.867-1.3-1.9-1.3c0.434-0.767,1.117-1.45,2.05-2.05c1.034-0.7,2.017-1.05,2.95-1.05c0.601,0,1.184,0.067,1.75,0.2
		c0.667,0.2,1.017,0.417,1.05,0.65c-0.033,0.4-0.183,0.75-0.449,1.05c-0.434,0.4-0.867,0.783-1.301,1.15
		c0.134-0.033,0.667-0.25,1.601-0.65c0.8-0.333,1.3-0.517,1.5-0.55l0.35-0.05c0.066,0.967-0.066,1.617-0.399,1.95
		c0.533,0.067,1,0.05,1.399-0.05c0.601-0.133,1.65-0.517,3.15-1.15c-2.3,1.7-4.351,2.766-6.15,3.2c-0.833,0.2-2.033,0.283-3.6,0.25
		l-0.25-0.1L43.05,37.35z M25.9,17.4c-5.6,1.867-9.967,2.667-13.1,2.4c-0.566-0.133-1.2-0.417-1.9-0.85
		c-1.033-0.567-1.65-1.167-1.85-1.8c-0.167-0.733-0.25-1.233-0.25-1.5c0-0.867,0.167-1.383,0.5-1.55
		c1.034-0.533,1.833-1.05,2.4-1.55l0.55-0.2c0.067,0.433,0.1,1.417,0.1,2.95c0.4-0.1,1.55-0.4,3.45-0.9
		c0.4,0.033,0.65,0.083,0.75,0.15c0.267,0.133,0.4,0.417,0.4,0.85c0,0.733-0.7,1.467-2.1,2.2c1.867-0.167,2.9-1.2,3.1-3.1
		c0.233-1.833,1.2-2.75,2.9-2.75c0.9,0,1.917,0.3,3.05,0.9c1.2,0.667,2.1,1.033,2.7,1.1l0.3,1.5
		C26.467,15.883,26.133,16.6,25.9,17.4z M22.5,24.05c-0.1,0.467-0.283,0.833-0.55,1.1L21.6,25.3l-0.1-0.9l-0.1-1.3h-0.45l-0.9-0.05
		l-0.25-1c0.367,0.2,1.267,0.3,2.7,0.3v0.05V24.05z M17.4,25.6l-0.95-0.95c-0.367-0.433-0.583-0.883-0.65-1.35
		c1.633,0.067,2.817,0.2,3.55,0.4c0.2,0.2,0.3,0.633,0.3,1.3c-0.3,2.967-0.767,5.883-1.4,8.75c-0.067-0.433-0.167-1.683-0.3-3.75
		C17.85,28.1,17.667,26.633,17.4,25.6z M13.45,64.35l-0.35-0.3c-1.267-0.733-2.283-1.316-3.05-1.75c-1.4-0.866-2.1-1.866-2.1-3
		c0-0.767,0.517-1.566,1.55-2.399c1.467-1.2,2.367-2.034,2.7-2.5l0.5-0.351c-0.1-0.033-0.15-0.616-0.15-1.75
		c0-0.399,0.217-1.566,0.65-3.5l0.6-2.75c0.1,3.434,0.117,5.867,0.05,7.3c0.267-0.133,0.867-0.416,1.8-0.85
		c0.7-0.333,0.833-0.483,0.4-0.45l2-11.75c-0.066,2.467-0.25,6.45-0.55,11.95l1.55,0.05c0.633,2.167,0.833,4.517,0.6,7.05
		C19.417,59.85,17.35,61.517,13.45,64.35z M18.1,66.9L17.85,65.8l-0.8-2c0.2,0.033,0.55,0.2,1.05,0.5c0.433,0.3,0.767,0.566,1,0.8
		L19.05,66.7l-0.3,6.149C18.25,71.483,18.033,69.5,18.1,66.9z"/>
	<path style="fill-rule:evenodd;clip-rule:evenodd;fill:#B3AA9E;" d="M41.65,40c4.466,1.1,7.833,0.866,10.1-0.7
		c1.2-0.833,2.4-2,3.6-3.5c0,1.533-1.066,2.851-3.199,3.95c-2.167,1.066-4.767,1.6-7.801,1.6L41.65,40z M21.5,24.4L19.65,25
		c0-0.667-0.1-1.1-0.3-1.3c0.5-0.233,1.033-0.434,1.6-0.6h0.45L21.5,24.4z M22.5,24.05V22.4c1.967-1.367,3.1-3.033,3.4-5
		c0.233-0.8,0.567-1.517,1-2.15c0,2.433-0.433,4.517-1.3,6.25C24.733,23.2,23.7,24.05,22.5,24.05z M16.45,24.65l0.95,0.95
		c-2.333-0.533-4.25-1.1-5.75-1.7c-1.4-0.6-3.45-1.667-6.15-3.2c0.533,0.1,1.817,0.45,3.85,1.05c0.333,0.1,1.533,0.617,3.6,1.55
		C14.917,24.167,16.083,24.617,16.45,24.65z M19.1,65.1c0.367-0.533,0.883-1.383,1.55-2.55c0.767-1.366,1.184-2.233,1.25-2.6
		c0.533-1.467,0.85-2.45,0.95-2.95c0.167-0.667,0.233-1.866,0.2-3.6C23.683,54.167,24,54.967,24,55.8c0,4.367-0.683,7.417-2.05,9.15
		c-0.467,0.6-1.434,1.184-2.9,1.75L19.1,65.1z M17.85,65.8L18.1,66.9c-1.133,0.033-1.767,0.033-1.9,0
		c-0.2-0.167-0.8-0.617-1.8-1.351l-0.95-1.2c0.833,0.101,1.583,0.367,2.25,0.801C16.333,65.55,17.05,65.767,17.85,65.8z"/>
</g>
</svg>
