<?xml version="1.0" encoding="iso-8859-1"?>
<!-- Generator: Adobe Illustrator 15.1.0, SVG Export Plug-In . SVG Version: 6.00 Build 0)  -->
<!DOCTYPE svg PUBLIC "-//W3C//DTD SVG 1.1//EN" "http://www.w3.org/Graphics/SVG/1.1/DTD/svg11.dtd">
<svg version="1.1" id="Layer_1" xmlns="http://www.w3.org/2000/svg" xmlns:xlink="http://www.w3.org/1999/xlink" x="0px" y="0px"
	 width="218.15px" height="176px" viewBox="0 0 218.15 176" style="enable-background:new 0 0 218.15 176;" xml:space="preserve">
<g>
	<path style="fill-rule:evenodd;clip-rule:evenodd;fill:#5E513E;" d="M213.3,135.8c-0.2-0.467-1.366-1.517-3.5-3.149
		c-2-1.567-3.166-2.967-3.5-4.2l-0.149-0.851c-0.4,1.534-0.601,2.867-0.601,4c0,0.967,0.55,1.717,1.65,2.25
		c1.366,0.634,2.383,2.15,3.05,4.551c-5.1,9.899-11.866,15.05-20.3,15.449l-5.2,1c1.634-1.8,2.667-3.233,3.1-4.3
		c0.267-0.633,0.4-1.666,0.4-3.1c0-0.767-0.5-1.717-1.5-2.851c-1-1.166-1.5-2.133-1.5-2.899c0-0.834,0.483-1.783,1.45-2.851
		c0.934-1.033,1.399-2.433,1.399-4.199c0-4.167-0.933-7.617-2.8-10.351c-0.899-1.366-2.033-2.483-3.399-3.35l-1.4-0.9
		c0.733,1,2.083,2.684,4.05,5.05c1.4,2.467,1.517,5.233,0.351,8.301c0.233-4.801-1.384-8.767-4.851-11.9c-1.1-0.967-2.434-1.9-4-2.8
		c-1.6-0.934-2.45-1.45-2.55-1.55c6.066,1.066,10,2.566,11.8,4.5c1,1.1,1.983,2.716,2.95,4.85c0.1,0.667,0.083,1.634-0.05,2.9
		c0,1.733,0.467,4.316,1.399,7.75c0.067-0.4,0.184-0.801,0.351-1.2c0.566,0.5,1.149,0.75,1.75,0.75c0.967,0,3.333-1.634,7.1-4.9
		c4.533-3.934,6.8-7.684,6.8-11.25c0-2.866-1.449-5.649-4.35-8.35c-1.3-1.233-4.467-3.584-9.5-7.05c-4.434-3.034-7.616-5.7-9.55-8
		c-2.9-3.434-4.351-7.2-4.351-11.3c0-2.033,0.417-3.833,1.25-5.4c0.034-0.1,0.084-0.184,0.15-0.25c-0.5,1.1-0.75,2.333-0.75,3.7
		c0,4.3,1.7,8.034,5.1,11.2c1.733,1.634,3.483,2.817,5.25,3.551c1.7,0,2.851-0.617,3.45-1.851c0.634-1.233,1.517-1.85,2.65-1.85
		c1.366,0,2.2,0.133,2.5,0.399c0.166,0.167,0.316,0.784,0.45,1.851c0.366,3.333,2.283,7.333,5.75,12c1.3,1.733,2.75,2.767,4.35,3.1
		c1.967,0.434,3.033,0.717,3.2,0.851c1.767,1.333,2.583,8.8,2.45,22.399L213.3,135.8z M145.7,168.65
		c0.3-0.434,1.616-1.817,3.95-4.15c2.333-2.3,3.699-3.583,4.1-3.85c-0.733,1.767-1.434,3.583-2.1,5.449
		c0.966-1.233,2.649-2.449,5.05-3.649c3.767-1.934,5.934-3.084,6.5-3.45c5.6-3.533,9.116-9.25,10.55-17.15l1.35-5.55l0.601-0.6
		c0,0.833,0.05,3.35,0.149,7.55c-0.466,4.134-2.199,7.033-5.199,8.7l-0.4,0.3c-0.767,0.866-1.717,2.467-2.85,4.8
		c-1.301,2.667-2,4.75-2.101,6.25c-3.066,1.733-7,3.15-11.8,4.25C149.667,168.417,147.066,168.783,145.7,168.65z M110.55,174.85
		c1.2-0.866,2.267-2.966,3.2-6.3c0.767-2.7,1.15-4.684,1.15-5.95c0-1.6-0.317-3.183-0.95-4.75c-1.134-2.767-3.017-4.149-5.65-4.149
		c-2.1,0-3.667,0.899-4.7,2.7c-0.033,0.066-0.783,2.066-2.25,6c-2.133,5.8-6.8,8.699-14,8.699c-0.8,0-1.717-0.083-2.75-0.25
		c-1.6-0.267-2.65-0.683-3.15-1.25l1.3-0.199c2.5-0.467,4.283-0.884,5.35-1.25c3.767,0,6.983-1.45,9.65-4.351
		c2.633-2.899,3.95-6.399,3.95-10.5l-0.85,1.101c0.267-1.4,1.267-3.7,3-6.9c1.233-2.3,2.15-3.9,2.75-4.8l0.1-0.101
		c2.066,0.334,3.434,0.5,4.1,0.5c4.9,0,8.467-2.399,10.7-7.199c1.4-3.067,2.1-6.434,2.1-10.101c0-0.666-0.399-2.2-1.199-4.6
		c-0.934-2.533-1.5-4.15-1.7-4.851c-0.566,4.233-0.983,7.767-1.25,10.601c-0.167,1.066-0.851,2.633-2.05,4.7
		c0.6-3.634,0.25-7.551-1.051-11.75c-1.633-4.334-2.649-7.551-3.05-9.65c0.033-0.333,0.184-0.5,0.45-0.5l0.4,0.1
		c3.8,2.567,6.566,4.634,8.3,6.2c3,2.733,4.5,6.134,4.5,10.2c0,1.3-1.5,5-4.5,11.1c-3.033,6.101-4.55,9.384-4.55,9.851
		c0,1.267,0.3,2.116,0.899,2.55c0.367,0.267,1.033,0.65,2,1.15c1.934,1.5,2.9,6.017,2.9,13.55c0,0.066-0.267,1.233-0.8,3.5
		c-0.767,2.533-1.784,4.483-3.051,5.85c-0.833,0.101-2.183,0.316-4.05,0.65C113.967,174.717,112.217,174.85,110.55,174.85z
		 M37.05,152.4c-0.667-2.067,0.45-5.917,3.35-11.551c3.533-6.133,5.65-10.233,6.35-12.3v1.65c0.9,5.3-0.117,10.083-3.05,14.35
		c-0.567,0.834-1.75,2.316-3.55,4.45c-1.3,1.533-2.1,2.733-2.4,3.6L37.05,152.4z M13.5,131.85l-0.2-0.05
		c-0.5-0.233-1.367-0.5-2.6-0.8c0.966-0.167,1.633-0.384,2-0.65c0.4-0.333,0.667-0.933,0.8-1.8l-0.15-1.05
		c-0.467,0-1.15-0.066-2.05-0.2c-1.167-0.2-2-0.434-2.5-0.7l2.65-1.449c0.966-0.4,1.8-0.834,2.5-1.301
		c1.3-0.866,2.883-2.616,4.75-5.25l1,0.15c1.2-0.4,2.25-1.5,3.15-3.3c0.8-1.566,1.2-2.967,1.2-4.2c0-0.4-0.233-0.983-0.7-1.75
		c-0.233-0.4-0.467-0.75-0.7-1.05c-0.033,2.267-0.15,3.717-0.35,4.35c-0.2,0.467-0.883,1.4-2.05,2.8c0.6-1.066,1.033-2.683,1.3-4.85
		c0.2-1.833,0.217-3.25,0.05-4.25c-0.1-1.3-0.283-2.75-0.55-4.35l-0.35-1.95l-0.25-1.15L20.6,99.4
		c0.066,0.267,0.183,0.449,0.35,0.55c1.5,1.333,2.6,2.6,3.3,3.8c1.233,2.1,1.85,4.65,1.85,7.65c0,4.933-1.783,9.566-5.35,13.899
		C19.017,127.366,16.6,129.55,13.5,131.85z M123,27.45c-0.833-0.7-1.634-1.5-2.4-2.4c-1.3-1.633-2.017-2.883-2.149-3.75
		c-0.434-1.5-0.65-2.667-0.65-3.5c0-1.1,0.334-2.5,1-4.2c0.3-0.767,1.434-2.383,3.4-4.85s2.967-3.75,3-3.85l0.25-0.75V4.1
		l1.149,0.65c-0.133,1.7-0.883,4.133-2.25,7.3c-1.3,3.034-1.949,5.217-1.949,6.55c0,1.7,0.517,3.816,1.55,6.35
		c0.5,1.3,1.1,2.767,1.8,4.4C124.783,28.817,123.866,28.183,123,27.45z M183.95,73.7c0.3-1.2-0.316-2.983-1.851-5.35
		c-1.5-2.367-3.533-4.717-6.1-7.05c-6.434-5.833-12.384-8.517-17.85-8.05c0.833,1.767,2.283,3.667,4.35,5.7c1.2,1.2,1.8,3.2,1.8,6
		c0,5.1,0.384,8.767,1.15,11c0.467,1.333,1.316,2.466,2.55,3.4c1.233,0.967,2.066,2.066,2.5,3.3c0.767,2.1,1.15,5.6,1.15,10.5
		L171.6,96.35c-0.3-1.5-0.616-3.1-0.949-4.8c-0.601-3.366-1.067-6.816-1.4-10.35l0.05,6.85c-0.5-2.9-1.7-4.966-3.6-6.2
		c-4.033-1.434-6.7-3.133-8-5.1c2.033-0.133,3.233-0.767,3.6-1.9c0.167-0.5,0.25-2.483,0.25-5.95c0-2.933-0.899-6.367-2.7-10.3
		c-2.233-4.767-4.833-7.15-7.8-7.15c-1.6,0-3.05,0.517-4.35,1.55c-0.767,0.633-1.9,1.8-3.4,3.5c-1.267,1.267-2.717,2.3-4.35,3.1
		c0.767-0.4,1.399-0.9,1.899-1.5c1.301-1.5,1.95-3.883,1.95-7.15c0-2.567-0.3-5.417-0.899-8.55c-0.067-0.267-0.101-0.5-0.101-0.7
		c0-0.1,0-0.167,0-0.2l0.101-1.05c0.366-2.233-0.2-4.733-1.7-7.5c-1.7-2.6-2.601-4.233-2.7-4.9c2.033,0.2,4.25,2.2,6.65,6
		c2.233,4.133,3.566,6.534,4,7.2c1.699,1.133,5.05,2.45,10.05,3.95c7.399,2.233,11.899,3.633,13.5,4.2c11.333,4.1,17,9.333,17,15.7
		c0,0.5-0.033,0.833-0.101,1c-0.066,0.133-0.233,0.217-0.5,0.25c-0.6-0.1-1.583-0.783-2.949-2.05c-1.467-1.433-3-2.417-4.601-2.95
		l-1.2-0.4c2.134,1.2,4.334,3.216,6.601,6.05c2.366,2.933,3.434,5.117,3.2,6.55l0.35,0.75c0.2-1.2,0.25-3.15,0.15-5.85l-0.051-0.3
		c0.4,0.167,1.467,1.083,3.2,2.75c1.667,1.633,2.5,2.5,2.5,2.6c0,0.067-0.184,0.55-0.55,1.45c-0.366,1.033-0.55,1.867-0.55,2.5
		c0,0.233,0.366,1.383,1.1,3.45c0.7,2.1,1.05,3.6,1.05,4.5c0,2.434-0.616,4.183-1.85,5.25c-1.033,0.866-2.583,1.3-4.65,1.3
		c-1.033,0-2.3-0.917-3.8-2.75c-1.6-1.934-2.399-3.767-2.399-5.5C183.917,79.033,184.017,75.7,183.95,73.7z M169.35,40.15
		c-0.833,0.5-2.416,0.75-4.75,0.75c-0.1,0-0.733,0.35-1.899,1.05c-0.167,0-1.3-1.65-3.4-4.95c-2.467-3.8-4.467-6.467-6-8l-0.6-0.9
		c0.066,0.467,0.434,1.483,1.1,3.05c0.7,1.6,1.084,2.617,1.15,3.05c-0.767-0.767-1.434-1.717-2-2.85c-0.5-1-0.75-1.75-0.75-2.25
		c0-1.267,0.184-2.583,0.55-3.95s0.55-2.383,0.55-3.05c0-0.767-0.2-1.95-0.6-3.55c-0.367-1.333-0.634-2.167-0.8-2.5l2.699,1.35
		c1.334,0.633,2.5,1.317,3.5,2.05c4.434,5.533,7.067,9.133,7.9,10.8C166.434,31.05,167.55,34.35,169.35,40.15z M172.15,109
		c0.133,2.3-0.25,4.184-1.15,5.65c-0.833,1.366-1.934,2.05-3.3,2.05c-1.334-0.967-2.7-1.934-4.101-2.9
		c-2.767-1.967-5.033-2.95-6.8-2.95c-0.133,0-0.483,0.4-1.05,1.2c-0.866,1.134-2.066,2.3-3.6,3.5
		c-0.827,0.662-1.294,1.111-1.4,1.351c2.066-4.936,3.1-9.853,3.1-14.75c0-2.567-0.517-5.067-1.55-7.5
		c-1.133-2.634-2.649-4.7-4.55-6.2c0.134-1.5-0.434-2.967-1.7-4.4c-0.666-0.7-2.166-1.966-4.5-3.8c-0.434-0.333-0.833-0.667-1.2-1
		c-0.566-0.533-1.166-1.1-1.8-1.7c-0.133-0.133-0.267-0.25-0.399-0.35c-2.434-2.6-3.767-5.2-4-7.8c6,2.333,11.116,6.117,15.35,11.35
		c4.2,5.233,7,11.267,8.4,18.1l1,3.7c0.1,1.8,0.683,3.3,1.75,4.5c1.066,1.2,2.333,1.75,3.8,1.65c0.366-0.033,0.733-0.101,1.1-0.2
		c-0.233,0.233-0.467,0.434-0.7,0.6l-0.149,0.7c0.467,0.2,1.35,0.117,2.649-0.25c1.367-0.399,2.4-0.899,3.101-1.5l-1.2,3.65
		l1.85,0.45C171.366,111.616,171.717,110.566,172.15,109z M171.95,103.15l0.1,2.449l-0.75,1.051
		C171.467,106.384,171.684,105.217,171.95,103.15z M159.55,150.5c0.3-0.233,0.634-0.45,1-0.65c2.267-1.333,5.017-2,8.25-2
		c-1.033,2.534-2.967,4.317-5.8,5.351c-3.434,1.2-6.05,2.916-7.85,5.149l1.949-3.649C157.967,153.167,158.783,151.767,159.55,150.5z
		 M124.1,59.4c5.634-0.7,9.601-1.617,11.9-2.75c1.634-0.833,2.983-2.217,4.05-4.15c-1.5,3.2-4.2,5.383-8.1,6.55
		C128.783,60.017,126.167,60.133,124.1,59.4z M122.65,59.45l-0.801,0.1c0.634,0.267,2.534,0.567,5.7,0.9
		c2.634,0.267,4.184,0.4,4.65,0.4c2.267,0,4.166-0.267,5.7-0.8c-2.467,0.967-5.351,1.45-8.65,1.45c-4.967,0-8.816-0.517-11.55-1.55
		c-3-1.167-5.351-3.217-7.05-6.15l0.55,0.25c2.1,1.733,3.733,2.95,4.899,3.65C118.066,58.933,120.25,59.517,122.65,59.45z
		 M76.3,37.75c-0.6,1.167-1.633,2.083-3.1,2.75c-0.733,0.3-1.434,0.5-2.1,0.6c-1.2,0-2.733-0.467-4.6-1.4c2.533,0,4.7-0.733,6.5-2.2
		s2.7-3.233,2.7-5.3c0.2-0.833,0.25-2.017,0.15-3.55c0-0.133,1.083-2.483,3.25-7.05l0.9-1.95c0.4,0.4,0.683,1.05,0.85,1.95
		c0.167,0.9,0.1,1.783-0.2,2.65l-0.2,0.4c-0.034,0.1-0.083,0.2-0.15,0.3c-0.1,0.267-0.8,2.15-2.1,5.65L78,32.05
		c-0.133,0.6-0.383,1.567-0.75,2.9C76.817,36.55,76.5,37.483,76.3,37.75z M88.8,62.55c-0.2,3.367-0.333,7.967-0.4,13.8
		c-0.033,3.833-0.233,6.367-0.6,7.6c-0.5,1.633-1.617,2.7-3.35,3.2c-1.5,0.434-4.383,0.65-8.65,0.65c-1.2,0-2.417-0.417-3.65-1.25
		c-1.267-0.833-2.333-1.25-3.2-1.25c-0.3,0-1.617,0.034-3.95,0.1c-2.433-0.066-4.25-0.333-5.45-0.8c-0.167-0.3-0.267-0.633-0.3-1
		c0.733,0.066,1.433,0.1,2.1,0.1c1,0,2.066-0.25,3.2-0.75c1.1-0.534,1.95-0.8,2.55-0.8c0.333,0,1.267,0.167,2.8,0.5
		c1.533,0.333,2.467,0.5,2.8,0.5c3.3,0,5.917-0.883,7.85-2.65c3.3-3.067,6.05-9.167,8.25-18.3V62.55z M146.75,113.65
		c0.066,0.366,0.3,0.916,0.7,1.649c0.166,0.767-0.3,1.717-1.4,2.851l0.101-3.5c0-0.101,0.017-0.2,0.05-0.301c0-0.033,0-0.066,0-0.1
		c0.033-0.1,0.083-0.2,0.149-0.3C146.45,113.75,146.583,113.65,146.75,113.65z M147.8,90.85c0.434,0.733,0.816,2.117,1.15,4.15
		c0.3,1.9,0.45,3.65,0.45,5.25c0,0.167-0.184,1.167-0.551,3c-0.366,2.033-0.649,3.316-0.85,3.85
		C148.1,99.066,148.033,93.65,147.8,90.85z M81.3,82.4c-2.233,2-4.517,2.55-6.85,1.65h-0.4c-0.033,1,0.55,1.667,1.75,2
		c0.9,0.267,2.434,0.4,4.6,0.4c2,0,3.45-0.417,4.35-1.25c0.933-0.9,1.4-2.417,1.4-4.55L86,76.1C84.333,79,82.767,81.1,81.3,82.4z
		 M58.65,150.25c0-4.667,0.833-8.65,2.5-11.95c0.9-1.8,1.917-3.1,3.05-3.899c0.867-0.4,1.867-0.75,3-1.051
		c4.4-0.433,8.2-1.816,11.4-4.149c4.633-3.334,6.033-7.783,4.2-13.351l-0.65,1c0.067-1.6,0.184-2.85,0.35-3.75
		c0.1-0.699,0.5-2.683,1.2-5.949l0.45,10.6c0,2.467-0.45,4.983-1.35,7.55c-0.966,2.8-2.183,4.684-3.65,5.65
		c-6.267,1.166-10.767,4.267-13.5,9.3c-0.267,0.5-1.333,2.85-3.2,7.05c-1.333,3.066-2.733,5.566-4.2,7.5L58.65,150.25z M64.35,38
		l-0.9-1.05c0.867,0.4,2.167,0.566,3.9,0.5h0.3L64.35,38z M46.3,81.95c0.1-1.167,0.15-2.083,0.15-2.75l-0.2-6.8l-1.85,5.95V72
		c0.067-0.367,0.417-1.033,1.05-2c0.8-1.267,1.216-1.95,1.25-2.05c0.3,2.167,0.333,6.033,0.1,11.6L46.3,81.95z M44.2,81.6
		c-0.6,2.267-2.75,3.816-6.45,4.65c0.6,0.533,1.6,0.9,3,1.1c1.333,0.2,2.533,0.183,3.6-0.05c-0.567,0.5-1.184,1.05-1.85,1.65
		c-0.567,0.366-1.5,0.55-2.8,0.55c-1.6,0-3.35-0.55-5.25-1.65c-1.934-1.133-3.05-2.267-3.35-3.4l0.8,0.35c0,0.2,0.85,0.35,2.55,0.45
		c0.1,0,0.2,0,0.3,0c1.233,0.333,2.983,0.05,5.25-0.85C42.2,83.533,43.6,82.6,44.2,81.6z M150.3,123.25
		c-0.633,1.7-1.467,3.35-2.5,4.95v0.05c-0.033,0-0.066,0.017-0.1,0.05c-0.134,0.2-0.267,0.4-0.4,0.601
		c-1.166,1.6-2.217,2.399-3.149,2.399c-0.567,0-1.717-0.583-3.45-1.75c-1.867-1.366-3.084-2.233-3.65-2.6l1.5,0.05
		c1.434,0,2.367-0.033,2.8-0.1l-1.1,1c0.533,0.366,1.233,0.55,2.1,0.55c1.534,0,3.717-2.65,6.551-7.95c0.633-1.2,1.216-2.4,1.75-3.6
		c-0.101,0.233-0.217,1.399-0.351,3.5C150.366,121.634,150.366,122.583,150.3,123.25z M116.45,170.4
		c-0.9,1.233-1.384,1.966-1.45,2.199v0.4c0,0.366-0.1,0.75-0.3,1.15c2.2-1.301,3.666-2.717,4.399-4.25
		c0.567-1.167,0.851-2.934,0.851-5.301c0-1.466-0.967-3.616-2.9-6.449c-0.033,1.733,0.117,4.683,0.45,8.85
		C117.5,168.3,117.15,169.434,116.45,170.4z"/>
	<path style="fill-rule:evenodd;clip-rule:evenodd;fill:#4C4336;" d="M169.35,40.15c0.9,3.2,2.584,5.833,5.051,7.9
		c0.5,0.4,3.05,2.067,7.649,5c7.434,4.7,12.634,12.034,15.601,22l6,26.05c2.466,4.7,5.816,8.95,10.05,12.75
		c1.633,1.467,2.717,2.601,3.25,3.4c0.8,1.233,1.2,2.717,1.2,4.45c0,0.5-0.101,1.166-0.301,2c-0.199,0.8-0.399,1.399-0.6,1.8v0.1
		l-0.1,0.15c-0.067,0.434-0.351,1.5-0.851,3.2c-0.666,2.267-1.366,4.233-2.1,5.899l-0.55,0.7c0.133-13.6-0.684-21.066-2.45-22.399
		c-0.167-0.134-1.233-0.417-3.2-0.851c-1.6-0.333-3.05-1.366-4.35-3.1c-3.467-4.667-5.384-8.667-5.75-12
		c-0.134-1.066-0.284-1.684-0.45-1.851c-0.3-0.267-1.134-0.399-2.5-0.399c-1.134,0-2.017,0.616-2.65,1.85
		c-0.6,1.233-1.75,1.851-3.45,1.851c-1.767-0.733-3.517-1.917-5.25-3.551c-3.399-3.166-5.1-6.899-5.1-11.2
		c0-1.367,0.25-2.6,0.75-3.7c0.3-0.667,0.684-1.284,1.15-1.85c0.1-0.1,0.199-0.184,0.3-0.25c0.566-0.7,1.233-1.417,2-2.15
		c0.166-0.434,0.316-1.15,0.45-2.15c0.166-1.5,0.283-2.433,0.35-2.8l0.45,2.7c0.066,2-0.033,5.333-0.3,10
		c0,1.733,0.8,3.566,2.399,5.5c1.5,1.833,2.767,2.75,3.8,2.75c2.067,0,3.617-0.434,4.65-1.3c1.233-1.067,1.85-2.817,1.85-5.25
		c0-0.9-0.35-2.4-1.05-4.5c-0.733-2.066-1.1-3.217-1.1-3.45c0-0.633,0.184-1.467,0.55-2.5c0.366-0.9,0.55-1.383,0.55-1.45
		c0-0.1-0.833-0.967-2.5-2.6c-1.733-1.667-2.8-2.583-3.2-2.75l0.051,0.3c0.1,2.7,0.05,4.65-0.15,5.85l-0.35-0.75
		c0.233-1.433-0.834-3.617-3.2-6.55c-2.267-2.833-4.467-4.85-6.601-6.05l1.2,0.4c1.601,0.533,3.134,1.517,4.601,2.95
		c1.366,1.267,2.35,1.95,2.949,2.05c0.267-0.033,0.434-0.117,0.5-0.25c0.067-0.167,0.101-0.5,0.101-1c0-6.367-5.667-11.6-17-15.7
		c-1.601-0.566-6.101-1.967-13.5-4.2c-5-1.5-8.351-2.817-10.05-3.95l-0.2-0.75c3.1,0.333,5.116,0.167,6.05-0.5
		c0.7-0.533,1.05-1.717,1.05-3.55l-0.1-2.25c-0.066-0.434-0.45-1.45-1.15-3.05c-0.666-1.566-1.033-2.583-1.1-3.05l0.6,0.9
		c1.533,1.533,3.533,4.2,6,8c2.101,3.3,3.233,4.95,3.4,4.95c1.166-0.7,1.8-1.05,1.899-1.05C166.934,40.9,168.517,40.65,169.35,40.15
		z M210.25,138.4c-0.667-2.4-1.684-3.917-3.05-4.551c-1.101-0.533-1.65-1.283-1.65-2.25c0-1.133,0.2-2.466,0.601-4l0.149,0.851
		c0.334,1.233,1.5,2.633,3.5,4.2c2.134,1.633,3.3,2.683,3.5,3.149l-1.1,0.851C211.366,137.35,210.717,137.934,210.25,138.4z
		 M138.95,59.6l-0.351,0.15c-0.133,0.033-0.267,0.083-0.399,0.15l-0.3,0.15c-1.534,0.534-3.434,0.8-5.7,0.8
		c-0.467,0-2.017-0.133-4.65-0.4c-3.166-0.333-5.066-0.633-5.7-0.9l2.25-0.15c2.067,0.733,4.684,0.617,7.851-0.35
		c3.899-1.167,6.6-3.35,8.1-6.55c0.167-0.7,0.384-1.933,0.65-3.7c0.434-2.867,0.8-5.233,1.1-7.1c0,0.2,0.033,0.433,0.101,0.7
		c0.6,3.133,0.899,5.983,0.899,8.55c0,3.267-0.649,5.65-1.95,7.15C140.35,58.7,139.717,59.2,138.95,59.6z M171.6,96.35
		c0.367,2.834,0.483,5.101,0.351,6.801c-0.267,2.066-0.483,3.233-0.65,3.5l-0.85,1.399c-0.7,0.601-1.733,1.101-3.101,1.5
		c-1.3,0.367-2.183,0.45-2.649,0.25l0.149-0.7c0.233-0.166,0.467-0.366,0.7-0.6c0.967-0.333,1.8-0.967,2.5-1.9
		c0.967-1.333,1.4-2.866,1.3-4.6c0.067-2.167,0.051-4.434-0.05-6.8c0.334-2.8,0.334-5.184,0-7.15l-0.05-6.85
		c0.333,3.533,0.8,6.983,1.4,10.35C170.983,93.25,171.3,94.85,171.6,96.35z M146.75,113.65l0.2-2.9c0.434-1.8,0.783-3.017,1.05-3.65
		c0.2-0.533,0.483-1.816,0.85-3.85c0.367-1.833,0.551-2.833,0.551-3c0-1.6-0.15-3.35-0.45-5.25c-0.334-2.033-0.717-3.417-1.15-4.15
		c-0.1-0.399-0.35-1.283-0.75-2.649c-0.166-0.667-0.2-0.917-0.1-0.75l0.8,1c1.9,1.5,3.417,3.566,4.55,6.2
		c1.033,2.433,1.55,4.933,1.55,7.5c0,4.897-1.033,9.814-3.1,14.75h-0.1c-0.534,1.199-1.117,2.399-1.75,3.6
		c-2.834,5.3-5.017,7.95-6.551,7.95c-0.866,0-1.566-0.184-2.1-0.55l1.1-1c1.301,0,2.417-0.851,3.351-2.551
		c0.899-1.733,1.35-3.8,1.35-6.199c1.101-1.134,1.566-2.084,1.4-2.851C147.05,114.566,146.816,114.017,146.75,113.65z
		 M173.85,137.25l0.051-0.05c0,1.3-0.051,2.85-0.15,4.649c-1.434,7.9-4.95,13.617-10.55,17.15c-0.566,0.366-2.733,1.517-6.5,3.45
		c-2.4,1.2-4.084,2.416-5.05,3.649c0.666-1.866,1.366-3.683,2.1-5.449l1.4-2.301c1.8-2.233,4.416-3.949,7.85-5.149
		c2.833-1.033,4.767-2.816,5.8-5.351c0.5-0.966,1.233-2.5,2.2-4.6C172,141.05,172.95,139.05,173.85,137.25z M81.3,82.4
		c1.467-1.3,3.034-3.4,4.7-6.3l0.15,4.55c0,2.133-0.467,3.65-1.4,4.55c-0.9,0.833-2.35,1.25-4.35,1.25c-2.167,0-3.7-0.133-4.6-0.4
		c-1.2-0.333-1.783-1-1.75-2h0.4C76.783,84.95,79.067,84.4,81.3,82.4z M75.7,32.2c0,2.066-0.9,3.833-2.7,5.3s-3.967,2.2-6.5,2.2
		c-0.533-0.133-1.183-0.284-1.95-0.45c-0.6-0.167-1.15-0.5-1.65-1L64.35,38l3.3-0.55c1.033-0.133,2.233-0.483,3.6-1.05
		c1.667-0.733,2.733-1.483,3.2-2.25c0.3-0.367,0.6-0.8,0.9-1.3L75.7,32.2z M46.3,81.95c-0.033,0.5-0.267,1.367-0.7,2.6
		c-0.467,1.3-0.883,2.217-1.25,2.75c-1.067,0.233-2.267,0.25-3.6,0.05c-1.4-0.2-2.4-0.567-3-1.1c3.7-0.833,5.85-2.383,6.45-4.65
		c0.2-1.267,0.267-2.35,0.2-3.25l1.85-5.95l0.2,6.8C46.45,79.867,46.4,80.783,46.3,81.95z M82.15,116.85l0.65-1
		c1.833,5.567,0.434,10.017-4.2,13.351c-3.2,2.333-7,3.717-11.4,4.149c-1.133,0.301-2.133,0.65-3,1.051
		c-0.4,0.133-0.767,0.3-1.1,0.5l-1,0.699c1.7-1.6,4.483-3.05,8.35-4.35c3.333-1.1,5.933-2.983,7.8-5.65
		c1.067-1.533,2.017-3.416,2.85-5.649C81.733,117.983,82.083,116.95,82.15,116.85z M18.7,118.6l-0.15-0.05
		c0.267-0.934,0.5-1.517,0.7-1.75c0.567-0.666,0.9-1.066,1-1.2c1.167-1.399,1.85-2.333,2.05-2.8c0.2-0.633,0.317-2.083,0.35-4.35
		c0.233,0.3,0.467,0.649,0.7,1.05c0.467,0.767,0.7,1.35,0.7,1.75c0,1.233-0.4,2.634-1.2,4.2c-0.9,1.8-1.95,2.899-3.15,3.3
		L18.7,118.6z M112.8,135.95c1.334-1.033,2.483-2.05,3.45-3.05c0.733-0.767,1.116-1.184,1.15-1.25c1.199-2.067,1.883-3.634,2.05-4.7
		c0.267-2.834,0.684-6.367,1.25-10.601c0.2,0.7,0.767,2.317,1.7,4.851c0.8,2.399,1.199,3.934,1.199,4.6
		c0,3.667-0.699,7.033-2.1,10.101c-2.233,4.8-5.8,7.199-10.7,7.199c-0.666,0-2.033-0.166-4.1-0.5l-0.25-0.05
		c0.2-0.666,0.917-1.633,2.15-2.899C109.833,138.384,111.233,137.15,112.8,135.95z M88.1,168.15h-1.5
		c3.2-0.767,6.066-2.551,8.6-5.351c1.5-1.7,3.383-4.5,5.65-8.399l0.85-1.101c0,4.101-1.317,7.601-3.95,10.5
		C95.083,166.7,91.867,168.15,88.1,168.15z M116.45,170.4c0.7-0.967,1.05-2.101,1.05-3.4c-0.333-4.167-0.483-7.116-0.45-8.85
		c1.934,2.833,2.9,4.983,2.9,6.449c0,2.367-0.283,4.134-0.851,5.301c-0.733,1.533-2.199,2.949-4.399,4.25
		c0.2-0.4,0.3-0.784,0.3-1.15v-0.4C115.066,172.366,115.55,171.634,116.45,170.4z"/>
	<path style="fill-rule:evenodd;clip-rule:evenodd;fill:#6C5D45;" d="M188.25,126.5c-0.967-2.134-1.95-3.75-2.95-4.85
		c-1.8-1.934-5.733-3.434-11.8-4.5c0.1,0.1,0.95,0.616,2.55,1.55c1.566,0.899,2.9,1.833,4,2.8c3.467,3.134,5.084,7.1,4.851,11.9
		c1.166-3.067,1.05-5.834-0.351-8.301c-1.967-2.366-3.316-4.05-4.05-5.05l1.4,0.9c1.366,0.866,2.5,1.983,3.399,3.35
		c1.867,2.733,2.8,6.184,2.8,10.351c0,1.767-0.466,3.166-1.399,4.199c-0.967,1.067-1.45,2.017-1.45,2.851
		c0,0.767,0.5,1.733,1.5,2.899c1,1.134,1.5,2.084,1.5,2.851c0,1.434-0.134,2.467-0.4,3.1c-0.433,1.066-1.466,2.5-3.1,4.3
		l-3.15,0.851l-2,0.75l-14.3,6.85c0.101-1.5,0.8-3.583,2.101-6.25c1.133-2.333,2.083-3.934,2.85-4.8l0.4-0.3
		c3-1.667,4.733-4.566,5.199-8.7c-0.1-4.2-0.149-6.717-0.149-7.55c0.899-0.9,1.6-2.134,2.1-3.7c0.467-1.467,0.7-2.967,0.7-4.5
		c0-1.7-0.267-2.95-0.8-3.75c-0.3-0.467-0.601-0.7-0.9-0.7c-0.033,0-2.666-0.75-7.899-2.25c-6.067-1.566-11.233-2.55-15.5-2.95
		l-0.9,0.2c-1.033,0.667-1.767,1.45-2.2,2.351c0.134-2.101,0.25-3.267,0.351-3.5h0.1c0.106-0.239,0.573-0.688,1.4-1.351
		c1.533-1.2,2.733-2.366,3.6-3.5c0.566-0.8,0.917-1.2,1.05-1.2c1.767,0,4.033,0.983,6.8,2.95c1.4,0.967,2.767,1.934,4.101,2.9
		c1.366,0,2.467-0.684,3.3-2.05c0.9-1.467,1.283-3.351,1.15-5.65c0.233-0.967,0.383-2.366,0.449-4.2l-0.55,0.8l-0.1-2.449
		c0.133-1.7,0.017-3.967-0.351-6.801l0.051-3.199c0-4.9-0.384-8.4-1.15-10.5c-0.434-1.233-1.267-2.333-2.5-3.3
		c-1.233-0.934-2.083-2.067-2.55-3.4c-0.767-2.233-1.15-5.9-1.15-11c0-2.8-0.6-4.8-1.8-6c-2.066-2.034-3.517-3.934-4.35-5.7
		c5.466-0.467,11.416,2.217,17.85,8.05c2.566,2.333,4.6,4.684,6.1,7.05c1.534,2.367,2.15,4.15,1.851,5.35L183.5,71
		c-0.066,0.367-0.184,1.3-0.35,2.8c-0.134,1-0.284,1.717-0.45,2.15c-0.767,0.733-1.434,1.45-2,2.15c-0.101,0.066-0.2,0.15-0.3,0.25
		c-0.467,0.566-0.851,1.183-1.15,1.85c-0.066,0.066-0.116,0.15-0.15,0.25c-0.833,1.566-1.25,3.367-1.25,5.4
		c0,4.1,1.45,7.867,4.351,11.3c1.934,2.3,5.116,4.966,9.55,8c5.033,3.466,8.2,5.816,9.5,7.05c2.9,2.7,4.35,5.483,4.35,8.35
		c0,3.566-2.267,7.316-6.8,11.25c-3.767,3.267-6.133,4.9-7.1,4.9c-0.601,0-1.184-0.25-1.75-0.75c0.934-1.3,1.533-2.167,1.8-2.601
		c0.467-0.899,0.7-1.833,0.7-2.8c0-3-0.5-5.6-1.5-7.8c-1.434-3.134-3.65-4.7-6.65-4.7c-0.666,0-1.2,0.066-1.6,0.2
		c0.1,0.167,1.133,1.333,3.1,3.5C187.467,123.55,188.283,125.134,188.25,126.5z M125.35,172.9l-0.149,0.05l-5.351,0.85
		c1.267-1.366,2.284-3.316,3.051-5.85c0.533-2.267,0.8-3.434,0.8-3.5c0-7.533-0.967-12.05-2.9-13.55c-0.967-0.5-1.633-0.884-2-1.15
		c-0.6-0.434-0.899-1.283-0.899-2.55c0-0.467,1.517-3.75,4.55-9.851c3-6.1,4.5-9.8,4.5-11.1c0-4.066-1.5-7.467-4.5-10.2
		c-1.733-1.566-4.5-3.633-8.3-6.2l-0.4-0.1c-0.267,0-0.417,0.167-0.45,0.5c0.4,2.1,1.417,5.316,3.05,9.65
		c1.301,4.199,1.65,8.116,1.051,11.75c-0.034,0.066-0.417,0.483-1.15,1.25c-0.967,1-2.116,2.017-3.45,3.05
		c0.2-1.2,0.3-2.283,0.3-3.25c0-2.134-0.633-5.15-1.899-9.05c-1.334-4.134-2.033-6.584-2.101-7.351c-0.533-1-1.083-2-1.649-3
		c-1.133-1.967-1.8-2.934-2-2.899c-0.2-0.7-0.517-2.684-0.95-5.95c-0.433-3.3-0.65-5.467-0.65-6.5c0-2.867,1.05-5.533,3.15-8
		c2.066-2.5,3.1-5.067,3.1-7.7c0-7.833-0.166-13.9-0.5-18.2c-0.6-7.333-1.766-12.617-3.5-15.85l-0.3-0.9
		c0.5,0.267,3.467,2.434,8.9,6.5c4.566,3.434,7.366,5.15,8.399,5.15c0.7-0.833,1.5-1.667,2.4-2.5c1.8-1.667,4.184-2.534,7.15-2.6h-1
		c0.267-0.533,0.517-1.733,0.75-3.6c0.267-1.9,0.399-3.533,0.399-4.9c0-4.367-1.066-7.733-3.2-10.1c-2.566-2.9-4.767-5.5-6.6-7.8
		c0.866,0.733,1.783,1.367,2.75,1.9c-0.7-1.633-1.3-3.1-1.8-4.4c-1.033-2.534-1.55-4.65-1.55-6.35c0-1.333,0.649-3.517,1.949-6.55
		c1.367-3.167,2.117-5.6,2.25-7.3c0.534,0.3,4.25,1.967,11.15,5c8.033,3.567,12.75,5.667,14.15,6.3c0.166,0.333,0.433,1.167,0.8,2.5
		c0.399,1.6,0.6,2.784,0.6,3.55c0,0.667-0.184,1.683-0.55,3.05s-0.55,2.684-0.55,3.95c0,0.5,0.25,1.25,0.75,2.25
		c0.566,1.133,1.233,2.083,2,2.85l0.1,2.25c0,1.833-0.35,3.017-1.05,3.55c-0.934,0.667-2.95,0.833-6.05,0.5l0.2,0.75
		c-0.434-0.667-1.767-3.067-4-7.2c-2.4-3.8-4.617-5.8-6.65-6c0.1,0.667,1,2.3,2.7,4.9c1.5,2.767,2.066,5.267,1.7,7.5l0.05-0.6
		c-0.334-0.167-0.384,0.45-0.15,1.85c-0.3,1.867-0.666,4.233-1.1,7.1c-0.267,1.767-0.483,3-0.65,3.7
		c-1.066,1.933-2.416,3.317-4.05,4.15c-2.3,1.133-6.267,2.05-11.9,2.75l-1.449,0.05c-2.4,0.066-4.584-0.517-6.551-1.75
		c-1.166-0.7-2.8-1.917-4.899-3.65l-0.55-0.25c1.699,2.934,4.05,4.983,7.05,6.15c2.733,1.033,6.583,1.55,11.55,1.55
		c3.3,0,6.184-0.483,8.65-1.45l0.3-0.15c0.133-0.066,0.267-0.117,0.399-0.15l0.351-0.15c1.633-0.8,3.083-1.833,4.35-3.1
		c1.5-1.7,2.634-2.867,3.4-3.5c1.3-1.033,2.75-1.55,4.35-1.55c2.967,0,5.566,2.383,7.8,7.15c1.801,3.933,2.7,7.367,2.7,10.3
		c0,3.467-0.083,5.45-0.25,5.95c-0.366,1.133-1.566,1.767-3.6,1.9c1.3,1.967,3.967,3.667,8,5.1c1.899,1.233,3.1,3.3,3.6,6.2
		c0.334,1.967,0.334,4.351,0,7.15c0.101,2.366,0.117,4.633,0.05,6.8c0.101,1.733-0.333,3.267-1.3,4.6
		c-0.7,0.934-1.533,1.567-2.5,1.9c-0.366,0.1-0.733,0.167-1.1,0.2c-1.467,0.1-2.733-0.45-3.8-1.65c-1.067-1.2-1.65-2.7-1.75-4.5
		c0.566,0.967,1.166,1.566,1.8,1.8c0.434-0.066,0.7-0.283,0.8-0.649c-2.467-11.7-3.85-18.1-4.15-19.2c-1-3.267-2.616-5.7-4.85-7.3
		l-0.5-0.8c2.7,8.667,4.083,13.15,4.15,13.45c1.033,3.634,1.616,6.634,1.75,9c-1.4-6.833-4.2-12.866-8.4-18.1
		c-4.233-5.233-9.35-9.017-15.35-11.35c0.233,2.6,1.566,5.2,4,7.8c-4.434-4.1-7.817-6.517-10.15-7.25
		c-0.033-0.133-0.467-1.167-1.3-3.1l-1.2,1.7l-0.2,0.25c-0.7-0.4-1.616-1.5-2.75-3.3c-0.8-1.267-2.2-1.9-4.2-1.9
		c-0.267,0-0.949,0.15-2.05,0.45c-1.233,0.3-2.1,0.6-2.6,0.9c0.233,0.8,0.55,2.333,0.95,4.6c0.6,3.267,0.899,5.817,0.899,7.65
		l-1.899,13.7c0,2.033,1.333,5.767,4,11.199c2.666,5.4,4.933,9.017,6.8,10.851c0.033,0.033,1.666,1.083,4.899,3.149
		c2.7,1.767,4.517,3.384,5.45,4.851c1.033,1.633,1.634,3.283,1.8,4.95c0.367,0.833,1.95,1.166,4.75,1
		c-0.433,0.066-1.366,0.1-2.8,0.1l-1.5-0.05c0.566,0.366,1.783,1.233,3.65,2.6c1.733,1.167,2.883,1.75,3.45,1.75
		c0.933,0,1.983-0.8,3.149-2.399c-0.899,1.566-1.45,3.833-1.649,6.8c-0.534,1.8-0.817,4.1-0.851,6.899l0.05,1.45l0.101,4.4
		l-0.25,1.05c-0.8-0.6-1.184-1.833-1.15-3.7c0.233-2.3,0.351-4.033,0.351-5.2c-0.067-4.466-2.867-6.699-8.4-6.699
		c-3.066,0-5.217,0.267-6.45,0.8c-1.633,0.666-3.184,2.184-4.649,4.55C124.434,140.55,124.75,151.767,125.35,172.9z M150.3,123.25
		l-0.399,2.9c-0.267,0.366-0.967,1.05-2.101,2.05C148.833,126.6,149.667,124.95,150.3,123.25z M100.85,154.4
		c-2.267,3.899-4.15,6.699-5.65,8.399c-2.534,2.8-5.4,4.584-8.6,5.351h1.5c-1.067,0.366-2.85,0.783-5.35,1.25l-1.3,0.199
		c0.5,0.567,1.55,0.983,3.15,1.25c1.033,0.167,1.95,0.25,2.75,0.25c7.2,0,11.867-2.899,14-8.699c1.467-3.934,2.217-5.934,2.25-6
		c1.033-1.801,2.6-2.7,4.7-2.7c2.634,0,4.517,1.383,5.65,4.149c0.633,1.567,0.95,3.15,0.95,4.75c0,1.267-0.384,3.25-1.15,5.95
		c-0.934,3.334-2,5.434-3.2,6.3C103.683,175.616,96.2,176,88.1,176c-5.133,0-9.7-0.533-13.7-1.6c-3.9-1-7.783-2.634-11.65-4.9
		l8.85,0.1c6.667,0,11.717-1.033,15.15-3.1c2.533-1.533,4.617-4,6.25-7.4c2.667-5.666,4.1-8.633,4.3-8.899
		c2.133-3.334,5.233-5.834,9.3-7.5c-0.6,0.899-1.517,2.5-2.75,4.8C102.117,150.7,101.117,153,100.85,154.4z M58.65,150.25l-0.4,4.55
		c1.467-1.934,2.867-4.434,4.2-7.5c1.867-4.2,2.933-6.55,3.2-7.05c2.733-5.033,7.233-8.134,13.5-9.3
		c-2.533,3.666-5.283,6.633-8.25,8.899c-2.367,1.834-4.7,4.9-7,9.2c-3.066,5.8-4.683,9.2-4.85,10.2c-0.3,1.967-0.9,4.1-1.8,6.4
		l-2.1-1.851c0.5-2.566,1.1-5.1,1.8-7.6C57.717,153.566,58.283,151.583,58.65,150.25z M21.55,149.6c0.967-1,2.167-2.3,3.6-3.899
		c2.367-1.4,4.75-3.017,7.15-4.851c4.733-3.666,7.317-6.716,7.75-9.149c2.133-2.667,3.967-4.9,5.5-6.7
		c2.934-3.366,5.65-5.2,8.15-5.5l0.05,3.65c0,6.433-1.633,13.35-4.9,20.75c-1.667,3.767-3.667,7.416-6,10.949
		c-1.867-0.966-3.567-1.716-5.1-2.25c0.3-0.866,1.1-2.066,2.4-3.6c1.8-2.134,2.983-3.616,3.55-4.45
		c2.933-4.267,3.95-9.05,3.05-14.35v-1.65c-0.7,2.066-2.817,6.167-6.35,12.3c-2.9,5.634-4.017,9.483-3.35,11.551
		c-2.4-0.534-4.367-0.884-5.9-1.051c-3.667-0.333-5.933-0.55-6.8-0.649l-0.95-0.25c-0.233-0.066-0.467-0.134-0.7-0.2
		c-0.467-0.2-0.9-0.384-1.3-0.55C21.433,149.667,21.483,149.634,21.55,149.6z M34.7,102.35l0.1,4.65c0,0.3-3,4.366-9,12.2
		c-5.466,7.1-9.017,11.666-10.65,13.7l-1.5-0.95l-0.15-0.101c3.1-2.3,5.517-4.483,7.25-6.55c3.567-4.333,5.35-8.967,5.35-13.899
		c0-3-0.617-5.551-1.85-7.65c-0.7-1.2-1.8-2.467-3.3-3.8c4.667-2.4,7.45-6.45,8.35-12.15c0.233-1.533,0.367-3.7,0.4-6.5
		c0.066-2.433,0.2-4.05,0.4-4.85l0.05-0.35l0.5,2.05c0,1.967,0.4,3.65,1.2,5.05c0.733,1.233,1.6,1.917,2.6,2.05
		c-1.7-0.1-2.55-0.25-2.55-0.45l-0.8-0.35c0.3,1.133,1.417,2.267,3.35,3.4c1.9,1.1,3.65,1.65,5.25,1.65c1.3,0,2.233-0.184,2.8-0.55
		c0.667-0.601,1.283-1.15,1.85-1.65c0.367-0.533,0.783-1.45,1.25-2.75c0.433-1.233,0.667-2.1,0.7-2.6l0.5-2.4
		c0.1,2.133-0.033,3.817-0.4,5.05c-0.7,2.233-2.25,4.567-4.65,7l-2.65,2.95l-0.5,0.601c-1.067,0-1.983,0.699-2.75,2.1
		S34.7,100.35,34.7,102.35z M0.95,127.25c1.066-0.167,4.566-0.866,10.5-2.1L8.8,126.6c0.5,0.267,1.333,0.5,2.5,0.7
		c0.9,0.134,1.583,0.2,2.05,0.2l0.15,1.05c-0.133,0.867-0.4,1.467-0.8,1.8c-0.367,0.267-1.034,0.483-2,0.65l-2.5-0.5
		c-1.867-0.4-3.284-0.783-4.25-1.15L0.95,127.25z M79.1,21.6c0-2.8-0.767-4.883-2.3-6.25l-0.55-0.9L76.15,13
		c0.9-0.367,2.1-1.1,3.6-2.2c0.533,0.833,1.017,2.034,1.45,3.6c0.433,1.5,0.65,2.733,0.65,3.7c0,1.333-0.2,2.75-0.6,4.25
		c-0.2,0.733-0.4,1.367-0.6,1.9c0.3-0.867,0.367-1.75,0.2-2.65c-0.167-0.9-0.45-1.55-0.85-1.95L79.1,21.6z M172,86.35
		c0.733,3.433,0.934,9.583,0.6,18.45c2.167-2.066,3.25-5.333,3.25-9.8c0-3.5-0.683-6.75-2.05-9.75c-1.7-3-2.883-5.2-3.55-6.6
		l-0.1-0.6C170.417,80.917,171.033,83.683,172,86.35z M147.75,88.45l-0.8-1c-0.934-2.034-3.134-4.767-6.601-8.2
		c0.367,0.333,0.767,0.667,1.2,1c2.334,1.833,3.834,3.1,4.5,3.8C147.316,85.483,147.884,86.95,147.75,88.45z M168.8,147.85
		c-3.233,0-5.983,0.667-8.25,2c-0.366,0.2-0.7,0.417-1,0.65c1.533-2.566,2.9-4.533,4.101-5.9c2.666-3.1,6.066-5.55,10.199-7.35
		c-0.899,1.8-1.85,3.8-2.85,6C170.033,145.35,169.3,146.884,168.8,147.85z M173.9,137.2c0.433-0.233,0.833-0.533,1.199-0.9
		l-1.35,5.55C173.85,140.05,173.9,138.5,173.9,137.2z M118.8,13.6c0.233-1.033,0.95-2.45,2.15-4.25c1.434-2.2,2.85-3.684,4.25-4.45
		c-0.033,0.1-1.033,1.383-3,3.85S119.1,12.833,118.8,13.6z M73.35,51.95c-0.567,0.133-1.533,0.517-2.9,1.15
		c-2.133-2.033-5.267-7.467-9.4-16.3c0-0.4,0.117-1.066,0.35-2c0.267-0.966,0.434-1.6,0.5-1.9l0.2,0.95l0.05-0.05
		c0.2,1.133,0.633,2.083,1.3,2.85c0.667,0.367,1.966,0.633,3.9,0.8c-1.733,0.066-3.033-0.1-3.9-0.5l0.9,1.05l-1.45,0.25
		c0.5,0.5,1.05,0.833,1.65,1c0.767,0.167,1.417,0.317,1.95,0.45c1.867,0.933,3.4,1.4,4.6,1.4c0.667-0.1,1.367-0.3,2.1-0.6
		c1.466-0.667,2.5-1.583,3.1-2.75c0,5.2,0.034,8.533,0.1,10c0,0.833-0.3,1.533-0.9,2.1C74.3,50.95,73.583,51.65,73.35,51.95z
		 M57.3,72.4l0.1,2.45c-0.1,2.4,0.083,4.55,0.55,6.45c0.433,1.567,0.966,2.667,1.6,3.3c1.2,0.467,3.017,0.733,5.45,0.8
		c2.333-0.066,3.65-0.1,3.95-0.1c0.867,0,1.933,0.417,3.2,1.25c1.233,0.833,2.45,1.25,3.65,1.25c4.267,0,7.15-0.216,8.65-0.65
		c1.733-0.5,2.85-1.566,3.35-3.2c0.367-1.233,0.567-3.767,0.6-7.6c0.067-5.833,0.2-10.434,0.4-13.8c0.567-2.8,2.883-10,6.95-21.6
		l-0.25,0.9l-1.05,3.3c-2.1,8.667-3.2,13.3-3.3,13.9l-0.2,1.35c-0.034,0.367-0.05,0.817-0.05,1.35l-0.25,7.3
		c0.133-0.9,0.367-1.85,0.7-2.85c0.167,1.433,0.433,3.1,0.8,5c0.5,5.466-0.583,10.4-3.25,14.8c-0.967,1.6-1.867,2.75-2.7,3.45
		c-1.167,0.967-2.883,1.767-5.15,2.399c-1.867,0.534-4.35,1.917-7.45,4.15s-5.1,4.05-6,5.45c-0.533-1-0.917-2.334-1.15-4
		c-0.333-2.2-0.684-3.9-1.05-5.101c-0.033-0.466-0.333-0.983-0.9-1.55c-0.3-0.267-0.6-0.5-0.9-0.7c-3.133-2.6-4.95-4.3-5.45-5.1
		c-1.033-1.667-1.55-4.533-1.55-8.6c0-0.533,0.083-1.267,0.25-2.2C57.017,73.2,57.167,72.6,57.3,72.4z M146.95,110.75l-0.2,2.9
		c-0.167,0-0.3,0.1-0.4,0.3c-0.066,0.1-0.116,0.2-0.149,0.3C146.333,112.884,146.583,111.717,146.95,110.75z M75.85,28.65
		c0.1,1.533,0.05,2.717-0.15,3.55l-0.35,0.65c-0.3,0.5-0.6,0.933-0.9,1.3c0.033-0.1,0.133-0.7,0.3-1.8
		C74.883,31.217,75.25,29.983,75.85,28.65z M20.7,100.2l0.35,1.95c0.267,1.6,0.45,3.05,0.55,4.35c-0.833-2.833-1.25-4.467-1.25-4.9
		c0-0.433,0.017-0.716,0.05-0.85C20.5,100.616,20.6,100.434,20.7,100.2z"/>
	<path style="fill-rule:evenodd;clip-rule:evenodd;fill:#827155;" d="M14.2,98.3l2.1-0.649c0.934-0.101,1.784,0.449,2.55,1.649
		c0.767,1.3,1.15,2.95,1.15,4.95c0,7.366-1.65,12.583-4.95,15.65c-3.066,2.8-8.066,4.216-15,4.25H0c0.167-0.834,1.05-2.567,2.65-5.2
		c1.733-2.667,2.75-4.25,3.05-4.75c0.633-1,1.5-2.601,2.6-4.8c0.467-0.934,0.934-1.867,1.4-2.801l2.4-4.55
		c0.433-0.8,0.783-1.45,1.05-1.95L14.2,98.3z M30.15,76.1c1.1-5.267,1.667-7.934,1.7-8c0.367-0.967,1.783-3.117,4.25-6.45l0.05-0.05
		c0.6-0.533,1.15-0.85,1.65-0.95c0.3-0.033,0.667-0.3,1.1-0.8c0.8-0.867,2.217-2.75,4.25-5.65c0.767,1.566,1.917,3.3,3.45,5.2
		c0.867,1.067,1.3,2.317,1.3,3.75c0,0.1-0.167,0.817-0.5,2.15c-0.333,1.4-0.566,2.284-0.7,2.65c-0.034,0.1-0.45,0.783-1.25,2.05
		c-0.633,0.967-0.983,1.633-1.05,2c-1.133,2.133-2.217,4.617-3.25,7.45c-0.9,1.733-2.433,2.6-4.6,2.6c-1.767,0-3.066-0.3-3.9-0.9
		c-0.7-0.5-1.367-1.5-2-3L30.15,76.1z M34.7,102.35c0-2,0.383-3.699,1.15-5.1s1.683-2.1,2.75-2.1l0.15-0.101L35.25,99
		c0.933-0.1,1.85-0.45,2.75-1.05c1.1-0.733,2.017-1.316,2.75-1.75C43.683,94.634,48.1,93.85,54,93.85c1,0,2.983,0.5,5.95,1.5
		c2,0.667,3.667,1.267,5,1.801c-0.3,1.733-1,3-2.1,3.8c-2.967,2.267-4.8,3.733-5.5,4.399c-1.333,1.301-3.633,1.95-6.9,1.95
		c-1.667,0.033-3.217-0.083-4.65-0.35c-1.9,0-3.65-0.566-5.25-1.7C38.483,103.783,36.533,102.816,34.7,102.35z M44.85,40.1
		l-0.15,1.15l0.1,0.85c0.833-0.667,1.617-1.25,2.35-1.75c1.367-1,2.633-1.5,3.8-1.5c0.367,0,1.133,0.367,2.3,1.1
		c1.633,1,2.933,2.283,3.9,3.85l0.2,0.75l0.05-6.25c0.333,0.667,0.783,2,1.35,4c0.533,1.833,0.8,2.817,0.8,2.95
		c0,1.833-0.283,3.433-0.85,4.8c-0.167,0.367-0.784,1.45-1.85,3.25c-4.567-2.833-7.8-5.333-9.7-7.5c-0.967-1.1-1.5-1.9-1.6-2.4
		c-0.267,0-1,0.6-2.2,1.8c0.233-0.9,0.467-1.7,0.7-2.4C44.317,42.1,44.583,41.2,44.85,40.1z M88.9,1.65l0.2-0.3l0.1,0.45L88.9,1.65z
		 M102.3,0.2l1.25-0.05l7.7-0.1c-0.267,0.3-1.917,1.9-4.95,4.8c-2.667,3.2-3.483,5.9-2.45,8.1c-0.267,0.1-0.067,0.15,0.6,0.15
		c1.433,0,3.816-1.35,7.149-4.05c3.334-2.7,5.884-4.05,7.65-4.05c0.9,0,1.833-0.267,2.8-0.8c0.867-0.467,1.316-0.867,1.351-1.2
		l0.5,0.3c-1.434,1.767-3.084,3.483-4.95,5.15c-2.066,1.833-3.483,2.75-4.25,2.75c-0.101-0.567-0.084-1.3,0.05-2.2L115,8
		c-2.267,1.467-5.2,4.05-8.8,7.75c-2.034,2.067-4.417,3.1-7.15,3.1c-2.9,0-5.25-0.934-7.05-2.8c-1.267-1.3-1.9-2.383-1.9-3.25
		l0.15-3.7c0.433,1,0.65,1.667,0.65,2c1.467-1.367,3-2.4,4.6-3.1c1.633-0.533,2.767-0.933,3.4-1.2
		C100.833,6.067,101.967,3.867,102.3,0.2z M172.15,109c-0.434,1.566-0.784,2.616-1.051,3.15l-1.85-0.45l1.2-3.65l2.149-3.25
		C172.533,106.634,172.384,108.033,172.15,109z M188.25,126.5c0.033-1.366-0.783-2.95-2.45-4.75c-1.967-2.167-3-3.333-3.1-3.5
		c0.399-0.134,0.934-0.2,1.6-0.2c3,0,5.217,1.566,6.65,4.7c1,2.2,1.5,4.8,1.5,7.8c0,0.967-0.233,1.9-0.7,2.8
		c-0.267,0.434-0.866,1.301-1.8,2.601c-0.167,0.399-0.283,0.8-0.351,1.2c-0.933-3.434-1.399-6.017-1.399-7.75
		C188.333,128.134,188.35,127.167,188.25,126.5z M172,86.35c-0.967-2.667-1.583-5.434-1.85-8.3l0.1,0.6c0.667,1.4,1.85,3.6,3.55,6.6
		c1.367,3,2.05,6.25,2.05,9.75c0,4.467-1.083,7.733-3.25,9.8C172.934,95.934,172.733,89.783,172,86.35z M157.9,98.85
		c-0.134-2.366-0.717-5.366-1.75-9c-0.067-0.3-1.45-4.783-4.15-13.45l0.5,0.8c2.233,1.6,3.85,4.033,4.85,7.3
		c0.301,1.1,1.684,7.5,4.15,19.2c-0.1,0.366-0.366,0.583-0.8,0.649c-0.634-0.233-1.233-0.833-1.8-1.8L157.9,98.85z M144.85,144.05
		l-0.05-1.45c0.167-2.199,0.45-4.5,0.851-6.899c0.199-2.967,0.75-5.233,1.649-6.8c0.134-0.2,0.267-0.4,0.4-0.601
		c0.033-0.033,0.066-0.05,0.1-0.05v-0.05c1.134-1,1.834-1.684,2.101-2.05c0.366-0.601,0.883-1.9,1.55-3.9c0.7-2.1,1.05-3.5,1.05-4.2
		l0.9-0.2l3.85,0.801c-0.066,1.833-0.833,6.433-2.3,13.8c0,6.399,0.483,13.45,1.45,21.149c-0.034,0.7-0.084,1.184-0.15,1.45
		c0,0.066-0.1,0.3-0.3,0.7c-2.033-0.967-3.851-2.033-5.45-3.2C147.366,150.283,145.483,147.45,144.85,144.05z M78.3,33.15
		c0.434,0.467,0.95,0.883,1.55,1.25c0.667,0.4,1.233,0.6,1.7,0.6c4.067,0,6.383-0.017,6.95-0.05c2.667-0.2,4.4-0.75,5.2-1.65
		c0.333-0.4,1.85-1.233,4.55-2.5c2.067-1,3.233-2.383,3.5-4.15l0.3,0.1c-0.367,0.867-0.683,2.117-0.95,3.75
		c-0.233,1.4-0.517,2.383-0.85,2.95c-1.133,1.833-4.65,2.867-10.55,3.1c-2.067,0.067-4.217,1.717-6.45,4.95
		c-2.2,3.2-3.683,4.8-4.45,4.8c-0.667,0-1.117-0.417-1.35-1.25c-0.1-0.833-0.15-1.283-0.15-1.35C77.3,42.9,77.633,39.383,78.3,33.15
		z M57.4,74.85l-0.1-2.45c0.2-1.433,0.717-2.933,1.55-4.5l-0.05,0.3c1.5-3.967,5.833-7.684,13-11.15c3-1.466,6.4-2.85,10.2-4.15
		c3.333-1,5.117-1.55,5.35-1.65l0.2-0.15c-0.833,0.233-1.25,0.333-1.25,0.3l4.35-1.5c-0.733,0.633-0.933,2.417-0.6,5.35
		c0.333,2.667-0.483,4.433-2.45,5.3c-1.7,0.733-3.017,1.434-3.95,2.1c-1.933,1.3-3.333,2.934-4.2,4.9
		c-2.567,5.633-4.3,8.55-5.2,8.75c-0.3,0.067-0.967-0.1-2-0.5c-1.133-0.433-2.3-0.633-3.5-0.6c-1.7,0.033-3.25,0.883-4.65,2.55
		c-0.7,0.833-1.367,1.667-2,2.5c-1.133,0-2.033-0.267-2.7-0.8C58.433,78.617,57.767,77.083,57.4,74.85z M91.35,66.2
		c-0.333,1-0.567,1.95-0.7,2.85l0.25-7.3c0-0.533,0.017-0.983,0.05-1.35l0.2-1.35c1.033-2.5,1.783-4.517,2.25-6.05
		c0.867-2.733,1.217-5.35,1.05-7.85l1.05-3.3c0.033-0.067,0.067-0.117,0.1-0.15c0.6-0.667,3.883-3.184,9.85-7.55
		c-1.9,5.767-4.867,12.45-8.9,20.05C94.017,58.933,92.283,62.933,91.35,66.2z M108.8,44.5c-0.066-0.667-0.1-1.333-0.1-2l0.15-1.6
		L108.8,44.5z M109.1,45.65c1.067-2.167,1.917-4.017,2.551-5.55c1.166-2.9,1.666-6.567,1.5-11c0.399-0.8,0.85-1.417,1.35-1.85
		c0.967-0.867,2.25-1.083,3.85-0.65c-0.199,2.4-0.767,4.883-1.699,7.45c-1.034,2.8-1.551,5.184-1.551,7.15
		c0,1.466,0.634,3.733,1.9,6.8c0.634,1.533,1.267,2.95,1.9,4.25c0,0.667-0.034,1.183-0.101,1.55l0.2,0.15
		c0.066,0.1-0.116,0.15-0.55,0.15c-1.334,0-3.017-0.733-5.05-2.2C110.934,50.1,109.5,48.017,109.1,45.65z M96.5,88
		c1.933-0.4,3.317-1.233,4.15-2.5c0.767-1.133,1.533-1.7,2.3-1.7c0.433,0,1.133,0.1,2.1,0.3l1.3,0.3
		c-0.633,2.367-1.283,4.167-1.95,5.4c-1,1.733-2.217,2.733-3.65,3c-6.167,1.2-10.167,3.467-12,6.8
		c-0.467,0.834-1.033,2.267-1.7,4.301c-0.566,1.833-1.167,3.199-1.8,4.1l0.1,0.1c-0.033,0.067-0.267,0.101-0.7,0.101
		c-0.4,0-0.717-0.351-0.95-1.05c-0.167-0.5-0.284-1.134-0.35-1.9c-0.3-2.533-0.533-3.983-0.7-4.35
		C90.517,95.667,95.133,91.366,96.5,88z M83.45,96.1c-0.5,1.101-0.883,2.4-1.15,3.9c-0.1-0.167-0.15-0.583-0.15-1.25
		C82.15,97.917,82.583,97.033,83.45,96.1z M128,69.95c0.033,0.966-0.733,3.383-2.3,7.25c-1.601,3.933-2.4,7.683-2.4,11.25
		c0,2.833,2.134,8.566,6.4,17.2c2.133,4.366,4.399,8.883,6.8,13.55c-4.434-1.066-8.434-4.884-12-11.45c-1.134-2.1-2.3-4.667-3.5-7.7
		c-1.134-2.934-1.884-4.833-2.25-5.7c0.733-5,1.283-8.8,1.65-11.399c0.633-4.6,1.05-8.4,1.25-11.4
		c0.666-0.167,1.216-0.383,1.649-0.65c0.834-0.433,1.566-1.217,2.2-2.35l1.2-1.7C127.533,68.783,127.967,69.817,128,69.95z
		 M76.8,15.35c0.167,0.333,0.333,0.95,0.5,1.85c0.167,0.933,0.25,1.65,0.25,2.15c0,1.467-0.517,3.983-1.55,7.55
		c-1.067,3.767-1.617,5.733-1.65,5.9c-0.133,1.333-1.167,2.383-3.1,3.15c-2.1,0.833-4.7,1.066-7.8,0.7
		c-0.667-0.767-1.1-1.717-1.3-2.85c0.367-0.5,1.184-2.883,2.45-7.15c0.967-3.267,2.816-5.633,5.55-7.1
		c0.367-0.2,2.133-0.783,5.3-1.75c0.833-0.233,1.1-1.35,0.8-3.35L76.8,15.35z M57,87.7c0.133,0,0.267,0.017,0.4,0.05l-1.35,0.05
		c-4.3,0-6.783,0.017-7.45,0.05c1.333-0.467,2.683-0.7,4.05-0.7C53.783,87.15,55.233,87.333,57,87.7z M48.35,67.85
		c0-0.967,0.3-1.733,0.9-2.3c0.9-0.8,2.767-1.7,5.6-2.7c-0.2,0.9-0.883,2.1-2.05,3.6c-1.233,1.566-2.267,2.517-3.1,2.85l-1.25-0.2
		C48.383,68.933,48.35,68.517,48.35,67.85z M76.8,104.8c0.4,0.167,0.8,0.367,1.2,0.601c0.433,0.267,0.85,0.533,1.25,0.8
		c-0.3-0.167-0.6-0.351-0.9-0.55C77.817,105.316,77.3,105.033,76.8,104.8z M56.65,116.3l0.05,2.25c0.833-1.133,1.75-1.85,2.75-2.149
		c0.566-0.167,1.633-0.25,3.2-0.25c1.567,0,2.75-0.384,3.55-1.15c0.8-1.066,1.483-1.9,2.05-2.5c2.167-2.333,6.883-3.4,14.15-3.2
		c-0.333,2.467-0.667,3.8-1,4c-0.1,0.066-1.6,0.101-4.5,0.101c-3.8,0-6.066,1.983-6.8,5.949c-0.2,0.967-0.434,2.317-0.7,4.051
		c-0.367,1.233-1.033,1.85-2,1.85c-0.333,0-1.316-0.134-2.95-0.4c-1.633-0.3-2.617-0.449-2.95-0.449c-1.267,0-2.283,0.35-3.05,1.05
		c-0.867,0.767-1.284,1.85-1.25,3.25l-0.25,0.75c-0.233-0.566-0.483-1.417-0.75-2.55c-0.267-1.2-0.4-2.15-0.4-2.851
		c0-0.5,0.117-1.75,0.35-3.75C56.35,118.3,56.517,116.967,56.65,116.3z M40.05,131.7c-0.433,2.434-3.017,5.483-7.75,9.149
		c-2.4,1.834-4.783,3.45-7.15,4.851c-0.967,0.633-2.45,1.366-4.45,2.2c0.333-2,1.7-4.317,4.1-6.95c2.233-2.467,3.35-4.684,3.35-6.65
		c0-1.133-0.45-2-1.35-2.6c-1.167-0.767-3.433-1.434-6.8-2c0.7-1.2,1.417-2.351,2.15-3.45c1.434-2.134,2.917-4,4.45-5.6
		c4.833-5.067,10.183-7.601,16.05-7.601c2.267,0,3.733,0.184,4.4,0.55c1.7,0.934,3.9,1.801,6.6,2.601c-0.9,1.5-2.033,2.75-3.4,3.75
		c-0.767,0.6-1.967,1.366-3.6,2.3C43.617,124.217,41.417,127.366,40.05,131.7z M66.25,152.15c0.567-1.9,2.733-4.7,6.5-8.4
		c4.233-4.2,7.733-6.3,10.5-6.3c2,0,4.683,0.75,8.05,2.25c3.534,1.566,5.467,2.366,5.8,2.399l0.3,1.5
		c-1.033,0.167-2.95,0.25-5.75,0.25c-1.833,0-3.167,0.967-4,2.9c-0.8,1.9-1.483,2.85-2.05,2.85c-0.4,0-1.6-0.433-3.6-1.3
		c-2-0.899-3.8-1.35-5.4-1.35c-1.5,0-3.117,0.684-4.85,2.05c-0.967,0.8-2.5,2.083-4.6,3.85
		C66.583,153.384,66.283,153.15,66.25,152.15z M102.05,110.95c-2.466,0.899-4.833,4.85-7.1,11.85c-2.3,7.134-2.733,12.467-1.3,16
		c-0.633-0.633-1.35-1.816-2.15-3.55c-1.2-2.6-1.8-5.283-1.8-8.05c0-3.367,1.167-6.667,3.5-9.9c2.4-3.366,5.45-5.8,9.15-7.3
		L102.05,110.95z"/>
	<path style="fill-rule:evenodd;clip-rule:evenodd;fill:#76664D;" d="M214.2,134.85c0.733-1.666,1.434-3.633,2.1-5.899
		c0.5-1.7,0.783-2.767,0.851-3.2c-0.067,0.5-0.384,1.717-0.95,3.65C215.467,131.866,214.8,133.684,214.2,134.85z M181.6,155.7
		l3.15-0.851l5.2-1L181.6,155.7z M172.6,104.8l-2.149,3.25l0.85-1.399l0.75-1.051L172.6,104.8z M125.35,172.9
		c-0.6-21.134-0.916-32.351-0.949-33.65c1.466-2.366,3.017-3.884,4.649-4.55c1.233-0.533,3.384-0.8,6.45-0.8
		c5.533,0,8.333,2.233,8.4,6.699c0,1.167-0.117,2.9-0.351,5.2c-0.033,1.867,0.351,3.101,1.15,3.7l0.25-1.05l-0.101-4.4
		c0.634,3.4,2.517,6.233,5.65,8.5c1.6,1.167,3.417,2.233,5.45,3.2c0.2-0.4,0.3-0.634,0.3-0.7c0.066-0.267,0.116-0.75,0.15-1.45
		c-0.967-7.699-1.45-14.75-1.45-21.149c1.467-7.367,2.233-11.967,2.3-13.8l-3.85-0.801c4.267,0.4,9.433,1.384,15.5,2.95
		c5.233,1.5,7.866,2.25,7.899,2.25c0.3,0,0.601,0.233,0.9,0.7c0.533,0.8,0.8,2.05,0.8,3.75c0,1.533-0.233,3.033-0.7,4.5
		c-0.5,1.566-1.2,2.8-2.1,3.7l-0.601,0.6c-0.366,0.367-0.767,0.667-1.199,0.9l-0.051,0.05c-4.133,1.8-7.533,4.25-10.199,7.35
		c-1.2,1.367-2.567,3.334-4.101,5.9c-0.767,1.267-1.583,2.667-2.45,4.2l-1.949,3.649l-1.4,2.301c-0.4,0.267-1.767,1.55-4.1,3.85
		c-2.334,2.333-3.65,3.717-3.95,4.15l-6.4-0.2c-2.366,0-4.967,0.616-7.8,1.85C127.667,171.967,125.616,172.833,125.35,172.9z
		 M102.3,0.2c-1.733,0-3.033-0.05-3.9-0.15c1.4,0.1,3.117,0.133,5.15,0.1L102.3,0.2z M88.9,1.65l0.3,0.15
		c0.267,1.034,0.4,2.117,0.4,3.25c-0.033,1.1,0.183,2.45,0.65,4.05l-0.15,3.7c0,0.867,0.633,1.95,1.9,3.25
		c1.8,1.867,4.15,2.8,7.05,2.8c2.733,0,5.117-1.033,7.15-3.1c3.6-3.7,6.533-6.283,8.8-7.75l-0.25,1c-0.134,0.9-0.15,1.633-0.05,2.2
		c0.767,0,2.184-0.917,4.25-2.75c1.866-1.667,3.517-3.383,4.95-5.15l1.55,0.85L125.2,4.9c-1.4,0.767-2.816,2.25-4.25,4.45
		c-1.2,1.8-1.917,3.217-2.15,4.25c-0.666,1.7-1,3.1-1,4.2c0,0.833,0.217,2,0.65,3.5c0.133,0.867,0.85,2.117,2.149,3.75
		c0.767,0.9,1.567,1.7,2.4,2.4c1.833,2.3,4.033,4.9,6.6,7.8c2.134,2.367,3.2,5.733,3.2,10.1c0,1.367-0.133,3-0.399,4.9
		c-0.233,1.867-0.483,3.067-0.75,3.6h1c-2.967,0.066-5.351,0.933-7.15,2.6c-0.9,0.833-1.7,1.667-2.4,2.5
		c-1.033,0-3.833-1.717-8.399-5.15c-5.434-4.066-8.4-6.233-8.9-6.5l0.3,0.9c1.733,3.233,2.9,8.517,3.5,15.85
		c0.334,4.3,0.5,10.367,0.5,18.2c0,2.633-1.033,5.2-3.1,7.7c-2.1,2.467-3.15,5.133-3.15,8c0,1.033,0.217,3.2,0.65,6.5
		c0.433,3.267,0.75,5.25,0.95,5.95c0.2-0.034,0.867,0.933,2,2.899c0.566,1,1.117,2,1.649,3c0.067,0.767,0.767,3.217,2.101,7.351
		c1.267,3.899,1.899,6.916,1.899,9.05c0,0.967-0.1,2.05-0.3,3.25c-1.566,1.2-2.967,2.434-4.2,3.7
		c-1.233,1.267-1.95,2.233-2.15,2.899l0.25,0.05l-0.1,0.101c-4.067,1.666-7.167,4.166-9.3,7.5c-0.2,0.267-1.633,3.233-4.3,8.899
		c-1.633,3.4-3.717,5.867-6.25,7.4c-3.433,2.066-8.483,3.1-15.15,3.1l-8.85-0.1c-1.833-1.2-3.667-2.483-5.5-3.85
		c0.9-2.301,1.5-4.434,1.8-6.4c0.167-1,1.784-4.4,4.85-10.2c2.3-4.3,4.633-7.366,7-9.2c2.967-2.267,5.717-5.233,8.25-8.899
		c1.467-0.967,2.684-2.851,3.65-5.65c0.9-2.566,1.35-5.083,1.35-7.55l-0.45-10.6c0.233,0.699,0.55,1.05,0.95,1.05
		c0.434,0,0.667-0.033,0.7-0.101l-0.1-0.1c0.633-0.9,1.233-2.267,1.8-4.1c0.667-2.034,1.233-3.467,1.7-4.301
		c1.833-3.333,5.833-5.6,12-6.8c1.433-0.267,2.65-1.267,3.65-3c0.667-1.233,1.317-3.033,1.95-5.4l-1.3-0.3
		c-0.966-0.2-1.667-0.3-2.1-0.3c-0.767,0-1.534,0.567-2.3,1.7c-0.833,1.267-2.217,2.1-4.15,2.5v-0.8c-4.3,1.866-7.3,3.45-9,4.75
		c-0.8,0.6-2.15,1.983-4.05,4.149c-0.867,0.934-1.3,1.817-1.3,2.65c0,0.667,0.05,1.083,0.15,1.25l0.35,0.9
		c0.167,0.366,0.4,1.816,0.7,4.35c0.066,0.767,0.183,1.4,0.35,1.9c-0.7,3.267-1.1,5.25-1.2,5.949c-0.167,0.9-0.283,2.15-0.35,3.75
		c-0.066,0.101-0.417,1.134-1.05,3.101c-0.833,2.233-1.783,4.116-2.85,5.649c-1.867,2.667-4.467,4.551-7.8,5.65
		c-3.867,1.3-6.65,2.75-8.35,4.35l1-0.699c0.333-0.2,0.7-0.367,1.1-0.5c-1.133,0.8-2.15,2.1-3.05,3.899
		c-1.667,3.3-2.5,7.283-2.5,11.95c-0.367,1.333-0.933,3.316-1.7,5.95c-0.7,2.5-1.3,5.033-1.8,7.6c-1.6-1.333-3.25-2.717-4.95-4.149
		c-1.4-1.101-3.85-2.7-7.35-4.801c2.333-3.533,4.333-7.183,6-10.949c3.267-7.4,4.9-14.317,4.9-20.75l-0.05-3.65
		c-2.5,0.3-5.217,2.134-8.15,5.5c-1.533,1.8-3.367,4.033-5.5,6.7c1.367-4.334,3.567-7.483,6.6-9.45c1.633-0.934,2.833-1.7,3.6-2.3
		c1.367-1,2.5-2.25,3.4-3.75c-2.7-0.8-4.9-1.667-6.6-2.601c-0.667-0.366-2.133-0.55-4.4-0.55c-5.867,0-11.217,2.533-16.05,7.601
		c-1.533,1.6-3.017,3.466-4.45,5.6c-0.733,1.1-1.45,2.25-2.15,3.45c3.367,0.566,5.633,1.233,6.8,2c0.9,0.6,1.35,1.467,1.35,2.6
		c0,1.967-1.117,4.184-3.35,6.65c-2.4,2.633-3.767,4.95-4.1,6.95c2-0.834,3.483-1.567,4.45-2.2c-1.433,1.6-2.633,2.899-3.6,3.899
		c-1.9-1.333-3.216-3.699-3.95-7.1c-0.434-2.6-0.767-4.467-1-5.6c-0.367-1.967-0.85-3.301-1.45-4
		c1.633-2.034,5.184-6.601,10.65-13.7c6-7.834,9-11.9,9-12.2l-0.1-4.65c1.833,0.467,3.783,1.434,5.85,2.9
		c1.6,1.134,3.35,1.7,5.25,1.7c1.434,0.267,2.983,0.383,4.65,0.35c3.267,0,5.566-0.649,6.9-1.95c0.7-0.666,2.533-2.133,5.5-4.399
		c1.1-0.8,1.8-2.066,2.1-3.8c0.5-1,0.65-2.601,0.45-4.801c0.367,1.2,0.717,2.9,1.05,5.101c0.233,1.666,0.617,3,1.15,4
		c0.9-1.4,2.9-3.217,6-5.45s5.583-3.616,7.45-4.15c2.267-0.633,3.983-1.433,5.15-2.399c0.833-0.7,1.733-1.85,2.7-3.45
		c2.667-4.4,3.75-9.333,3.25-14.8c-0.367-1.9-0.633-3.567-0.8-5c0.933-3.267,2.667-7.267,5.2-12c4.034-7.6,7-14.284,8.9-20.05
		c-5.967,4.367-9.25,6.883-9.85,7.55c-0.033,0.033-0.067,0.083-0.1,0.15l0.25-0.9c-4.067,11.6-6.383,18.8-6.95,21.6V62.2
		c-2.2,9.133-4.95,15.233-8.25,18.3c-1.933,1.767-4.55,2.65-7.85,2.65c-0.333,0-1.267-0.167-2.8-0.5c-1.533-0.333-2.467-0.5-2.8-0.5
		c-0.6,0-1.45,0.267-2.55,0.8c-1.133,0.5-2.2,0.75-3.2,0.75c-0.667,0-1.367-0.034-2.1-0.1c0.033,0.367,0.133,0.7,0.3,1
		c-0.633-0.633-1.167-1.733-1.6-3.3c-0.467-1.9-0.65-4.05-0.55-6.45c0.367,2.233,1.033,3.767,2,4.6c0.667,0.533,1.567,0.8,2.7,0.8
		c0.633-0.833,1.3-1.667,2-2.5c1.4-1.667,2.95-2.517,4.65-2.55c1.2-0.034,2.367,0.167,3.5,0.6c1.033,0.4,1.7,0.567,2,0.5
		c0.9-0.2,2.633-3.117,5.2-8.75c0.867-1.966,2.267-3.6,4.2-4.9c0.934-0.667,2.25-1.367,3.95-2.1c1.967-0.867,2.783-2.633,2.45-5.3
		c-0.333-2.933-0.133-4.717,0.6-5.35l-4.35,1.5c-1.9-0.367-6.216-0.183-12.95,0.55c0.233-0.3,0.95-1,2.15-2.1
		c0.6-0.567,0.9-1.267,0.9-2.1c-0.066-1.467-0.1-4.8-0.1-10c0.2-0.267,0.517-1.2,0.95-2.8c0.367-1.333,0.617-2.3,0.75-2.9l0.3,1.1
		c-0.667,6.233-1,9.75-1,10.55c0,0.066,0.05,0.517,0.15,1.35c0.233,0.833,0.683,1.25,1.35,1.25c0.767,0,2.25-1.6,4.45-4.8
		c2.233-3.233,4.383-4.883,6.45-4.95c5.9-0.233,9.417-1.267,10.55-3.1c0.333-0.567,0.617-1.55,0.85-2.95
		c0.267-1.633,0.583-2.883,0.95-3.75l-0.3-0.1l-1.3-0.4c-0.467-0.533-2.083-1.183-4.85-1.95c-2.867-0.833-5.1-1.25-6.7-1.25
		c-2.167,0-4.467,1.067-6.9,3.2c-1.8,1.533-3.067,2.983-3.8,4.35c1.3-3.5,2-5.383,2.1-5.65c0.067-0.1,0.117-0.2,0.15-0.3l0.2-0.4
		c0.2-0.533,0.4-1.167,0.6-1.9c0.4-1.5,0.6-2.917,0.6-4.25c0-0.967-0.217-2.2-0.65-3.7c-0.434-1.566-0.917-2.767-1.45-3.6
		c0.267-0.233,1.05-1.066,2.35-2.5C83.567,6.667,85.833,4.45,88.9,1.65z M22.7,150.25c0.233,0.066,0.466,0.134,0.7,0.2l0.95,0.25
		C23.783,150.6,23.233,150.45,22.7,150.25z M39.1,94.55l-0.35,0.5L38.6,95.15L39.1,94.55z M30.1,76.45
		c-0.2,0.8-0.333,2.417-0.4,4.85c-0.034,2.8-0.167,4.967-0.4,6.5c-0.9,5.7-3.683,9.75-8.35,12.15
		c-0.167-0.101-0.284-0.283-0.35-0.55l-0.15-0.351l0.25,1.15c-0.1,0.233-0.2,0.416-0.3,0.55c-0.033,0.134-0.05,0.417-0.05,0.85
		c0,0.434,0.417,2.067,1.25,4.9c0.167,1,0.15,2.417-0.05,4.25c-0.267,2.167-0.7,3.783-1.3,4.85c-0.1,0.134-0.433,0.534-1,1.2
		c-0.2,0.233-0.433,0.816-0.7,1.75l0.15,0.05c-1.867,2.634-3.45,4.384-4.75,5.25c-0.7,0.467-1.534,0.9-2.5,1.301
		c-5.934,1.233-9.434,1.933-10.5,2.1c-0.133-0.167-0.284-0.517-0.45-1.05c-0.233-0.7-0.383-1.384-0.45-2.05
		c6.934-0.034,11.934-1.45,15-4.25c3.3-3.067,4.95-8.284,4.95-15.65c0-2-0.383-3.65-1.15-4.95c-0.767-1.2-1.617-1.75-2.55-1.649
		L14.2,98.3c1.633-2.6,4.566-6.017,8.8-10.25C26.033,85.017,28.4,81.15,30.1,76.45z M13.5,131.85l0.15,0.101l-0.35-0.15L13.5,131.85
		z M70.45,53.1c-3.2,0-5.934,1.45-8.2,4.35c-2.267,2.867-3.4,6.35-3.4,10.45c-0.833,1.567-1.35,3.067-1.55,4.5
		c-0.133,0.2-0.283,0.8-0.45,1.8c-0.167,0.933-0.25,1.667-0.25,2.2c0,4.067,0.517,6.934,1.55,8.6c0.5,0.8,2.317,2.5,5.45,5.1
		c-0.3-0.166-1.05-0.716-2.25-1.649c-1.233-0.667-2.684-0.917-4.35-0.75c-1.767-0.367-3.217-0.55-4.35-0.55
		c-1.367,0-2.717,0.233-4.05,0.7c-3.434,1.433-5.35,2.35-5.75,2.75c-0.567,0.567-0.934,0.9-1.1,1c2.4-2.433,3.95-4.766,4.65-7
		c0.367-1.233,0.5-2.917,0.4-5.05c0.233-5.566,0.2-9.433-0.1-11.6c0.133-0.367,0.367-1.25,0.7-2.65c0.333-1.333,0.5-2.05,0.5-2.15
		c0-1.433-0.433-2.683-1.3-3.75c-1.533-1.9-2.684-3.633-3.45-5.2c-2.033,2.9-3.45,4.783-4.25,5.65c-0.433,0.5-0.8,0.767-1.1,0.8
		c-0.5,0.1-1.05,0.417-1.65,0.95c2.567-2.5,4.25-4.75,5.05-6.75c0.633-1.533,1.35-4.75,2.15-9.65c1.2-1.2,1.933-1.8,2.2-1.8
		c0.1,0.5,0.633,1.3,1.6,2.4c1.9,2.167,5.133,4.667,9.7,7.5c1.066-1.8,1.683-2.883,1.85-3.25c0.566-1.367,0.85-2.966,0.85-4.8
		c0-0.133-0.267-1.117-0.8-2.95c-0.567-2-1.017-3.333-1.35-4c0.2-1.3,0-3.283-0.6-5.95c-0.367-1.8-0.716-3.133-1.05-4
		c0.667-0.333,1.783-1.184,3.35-2.55c1.833-1.6,3.383-3.15,4.65-4.65c-0.833,2.267-1.367,4.633-1.6,7.1
		c-0.133,1.333-0.217,2.883-0.25,4.65c-0.066,0.3-0.233,0.934-0.5,1.9c-0.233,0.934-0.35,1.6-0.35,2
		C65.183,45.633,68.317,51.067,70.45,53.1z M118.75,94.35c0.366,0.867,1.116,2.767,2.25,5.7c1.2,3.033,2.366,5.601,3.5,7.7
		c3.566,6.566,7.566,10.384,12,11.45c-2.4-4.667-4.667-9.184-6.8-13.55c-4.267-8.634-6.4-14.367-6.4-17.2
		c0-3.567,0.8-7.317,2.4-11.25c1.566-3.867,2.333-6.284,2.3-7.25c2.333,0.733,5.717,3.15,10.15,7.25
		c0.133,0.1,0.267,0.216,0.399,0.35c0.634,0.6,1.233,1.167,1.8,1.7c3.467,3.433,5.667,6.167,6.601,8.2
		c-0.101-0.167-0.066,0.083,0.1,0.75c0.4,1.366,0.65,2.25,0.75,2.649c0.233,2.801,0.3,8.217,0.2,16.25
		c-0.267,0.634-0.616,1.851-1.05,3.65c-0.367,0.967-0.617,2.134-0.75,3.5c0,0.033,0,0.066,0,0.1c-0.033,0.101-0.05,0.2-0.05,0.301
		l-0.101,3.5c0,2.399-0.45,4.466-1.35,6.199c-0.934,1.7-2.05,2.551-3.351,2.551c-2.8,0.166-4.383-0.167-4.75-1
		c-0.166-1.667-0.767-3.317-1.8-4.95c-0.934-1.467-2.75-3.084-5.45-4.851c-3.233-2.066-4.866-3.116-4.899-3.149
		c-1.867-1.834-4.134-5.45-6.8-10.851c-2.667-5.433-4-9.166-4-11.199l1.899-13.7c0-1.833-0.3-4.383-0.899-7.65
		c-0.4-2.267-0.717-3.8-0.95-4.6c0.5-0.3,1.366-0.6,2.6-0.9c1.101-0.3,1.783-0.45,2.05-0.45c2,0,3.4,0.633,4.2,1.9
		c1.134,1.8,2.05,2.9,2.75,3.3l0.2-0.25c-0.634,1.133-1.366,1.917-2.2,2.35c-0.434,0.267-0.983,0.483-1.649,0.65l0.149-1.3
		c-1.066,2-2.217,5.767-3.45,11.3c-0.6,2.8-1.1,5.417-1.5,7.851c0,1.767,0.184,3.283,0.551,4.55c0.233,0.767,0.649,2,1.25,3.7
		l0.1-0.551V94.35z M122.65,59.45l1.449-0.05l-2.25,0.15L122.65,59.45z M91.15,59.05c0.1-0.6,1.2-5.233,3.3-13.9
		c0.167,2.5-0.184,5.117-1.05,7.85C92.933,54.533,92.183,56.55,91.15,59.05z M113.15,29.1c-0.667,1-1.551,3.1-2.65,6.3
		c-1.033,2.967-1.583,4.8-1.65,5.5l-0.15,1.6c0,0.667,0.033,1.333,0.1,2l0.1,1.35l0.2-0.2c0.4,2.367,1.834,4.45,4.301,6.25
		c2.033,1.467,3.716,2.2,5.05,2.2c0.434,0,0.616-0.05,0.55-0.15l-0.2-0.15c0.066-0.367,0.101-0.883,0.101-1.55
		c-0.634-1.3-1.267-2.717-1.9-4.25c-1.267-3.067-1.9-5.333-1.9-6.8c0-1.967,0.517-4.35,1.551-7.15c0.933-2.566,1.5-5.05,1.699-7.45
		c-1.6-0.434-2.883-0.217-3.85,0.65C114,27.683,113.55,28.3,113.15,29.1z M67.35,37.45c-1.934-0.167-3.233-0.434-3.9-0.8
		c3.1,0.367,5.7,0.133,7.8-0.7c1.933-0.767,2.967-1.817,3.1-3.15c0.033-0.167,0.583-2.133,1.65-5.9
		c1.033-3.566,1.55-6.083,1.55-7.55c0-0.5-0.083-1.217-0.25-2.15c-0.167-0.9-0.333-1.517-0.5-1.85c1.534,1.367,2.3,3.45,2.3,6.25
		c-2.167,4.566-3.25,6.917-3.25,7.05c-0.6,1.333-0.967,2.567-1.1,3.7c-0.167,1.1-0.267,1.7-0.3,1.8
		c-0.467,0.767-1.534,1.517-3.2,2.25c-1.367,0.567-2.567,0.917-3.6,1.05H67.35z M30.65,78.15c0.633,1.5,1.3,2.5,2,3
		c0.833,0.6,2.133,0.9,3.9,0.9c2.167,0,3.7-0.867,4.6-2.6c1.033-2.833,2.117-5.317,3.25-7.45v6.35c0.067,0.9,0,1.983-0.2,3.25
		c-0.6,1-2,1.933-4.2,2.8c-2.267,0.9-4.017,1.184-5.25,0.85c-0.1,0-0.2,0-0.3,0c-1-0.133-1.867-0.817-2.6-2.05
		C31.05,81.8,30.65,80.117,30.65,78.15z M48.35,67.85c0,0.667,0.033,1.083,0.1,1.25l1.25,0.2c0.833-0.333,1.867-1.283,3.1-2.85
		c1.167-1.5,1.85-2.7,2.05-3.6c-2.833,1-4.7,1.9-5.6,2.7C48.65,66.117,48.35,66.883,48.35,67.85z M76.8,104.8
		c-1.5-0.767-2.833-1.166-4-1.2c-4.466,0-8.267,1.25-11.4,3.75c-3.167,2.467-4.75,5.45-4.75,8.95c-0.133,0.667-0.3,2-0.5,4
		c-0.233,2-0.35,3.25-0.35,3.75c0,0.7,0.133,1.65,0.4,2.851c0.267,1.133,0.517,1.983,0.75,2.55l0.25-0.75
		c-0.034-1.4,0.383-2.483,1.25-3.25c0.767-0.7,1.783-1.05,3.05-1.05c0.333,0,1.317,0.149,2.95,0.449c1.633,0.267,2.617,0.4,2.95,0.4
		c0.967,0,1.633-0.616,2-1.85c0.267-1.733,0.5-3.084,0.7-4.051c0.733-3.966,3-5.949,6.8-5.949c2.9,0,4.4-0.034,4.5-0.101
		c0.333-0.2,0.667-1.533,1-4c0.1,0.033,0.167-0.133,0.2-0.5c0-0.366,0-0.566,0-0.6l-3.35-2c-0.4-0.267-0.817-0.533-1.25-0.8
		C77.6,105.167,77.2,104.967,76.8,104.8z M66.25,152.15c0.033,1,0.333,1.233,0.9,0.699c2.1-1.767,3.633-3.05,4.6-3.85
		c1.733-1.366,3.35-2.05,4.85-2.05c1.6,0,3.4,0.45,5.4,1.35c2,0.867,3.2,1.3,3.6,1.3c0.566,0,1.25-0.949,2.05-2.85
		c0.833-1.934,2.167-2.9,4-2.9c2.8,0,4.717-0.083,5.75-0.25l-0.3-1.5c-0.333-0.033-2.267-0.833-5.8-2.399
		c-3.367-1.5-6.05-2.25-8.05-2.25c-2.767,0-6.267,2.1-10.5,6.3C68.983,147.45,66.817,150.25,66.25,152.15z M150.3,123.25
		c0.066-0.667,0.066-1.616,0-2.85c0.434-0.9,1.167-1.684,2.2-2.351c0,0.7-0.35,2.101-1.05,4.2c-0.667,2-1.184,3.3-1.55,3.9
		L150.3,123.25z M144.8,142.6c0.033-2.8,0.316-5.1,0.851-6.899C145.25,138.1,144.967,140.4,144.8,142.6z M102.05,110.95l0.3-0.95
		c-3.7,1.5-6.75,3.934-9.15,7.3c-2.333,3.233-3.5,6.533-3.5,9.9c0,2.767,0.6,5.45,1.8,8.05c0.8,1.733,1.517,2.917,2.15,3.55
		c-1.433-3.533-1-8.866,1.3-16C97.217,115.8,99.583,111.85,102.05,110.95z"/>
	<path style="fill-rule:evenodd;clip-rule:evenodd;fill:#928164;" d="M57.4,38.3l-0.05,6.25l-0.2-0.75
		c-0.967-1.566-2.267-2.85-3.9-3.85c-1.167-0.733-1.933-1.1-2.3-1.1c-1.167,0-2.434,0.5-3.8,1.5c-0.733,0.5-1.517,1.083-2.35,1.75
		l-0.1-0.85l0.15-1.15c1.467-3.367,3.25-5.9,5.35-7.6c2.433-1.5,4.283-2.883,5.55-4.15c0.333,0.867,0.683,2.2,1.05,4
		C57.4,35.017,57.6,37,57.4,38.3z M62.15,33.8l-0.05,0.05l-0.2-0.95c0.033-1.767,0.117-3.316,0.25-4.65
		c0.233-2.467,0.767-4.833,1.6-7.1c3.533-4.033,5.367-6.083,5.5-6.15c0.467,0.333,2.767-0.333,6.9-2l0.1,1.45
		c0.3,2,0.033,3.117-0.8,3.35c-3.167,0.967-4.934,1.55-5.3,1.75c-2.733,1.467-4.583,3.833-5.55,7.1
		C63.333,30.917,62.517,33.3,62.15,33.8z M89.2,1.8l-0.1-0.45c0.8-0.4,2.433-0.733,4.9-1c2.3-0.3,3.767-0.4,4.4-0.3
		c0.867,0.1,2.167,0.15,3.9,0.15c-0.333,3.667-1.466,5.867-3.4,6.6c-0.633,0.267-1.767,0.667-3.4,1.2c-1.6,0.7-3.133,1.733-4.6,3.1
		c0-0.333-0.217-1-0.65-2c-0.467-1.6-0.683-2.95-0.65-4.05C89.6,3.917,89.467,2.833,89.2,1.8z M123.4,3
		c-0.034,0.333-0.483,0.733-1.351,1.2c-0.967,0.533-1.899,0.8-2.8,0.8c-1.767,0-4.316,1.35-7.65,4.05
		c-3.333,2.7-5.716,4.05-7.149,4.05c-0.667,0-0.867-0.05-0.6-0.15c-1.033-2.2-0.217-4.9,2.45-8.1c3.033-2.9,4.684-4.5,4.95-4.8
		C116.05,0.05,120.1,1.033,123.4,3z M78,32.05l0.2-1.45c0.733-1.367,2-2.817,3.8-4.35c2.433-2.133,4.733-3.2,6.9-3.2
		c1.6,0,3.833,0.417,6.7,1.25c2.767,0.767,4.383,1.417,4.85,1.95l1.3,0.4c-0.267,1.767-1.433,3.15-3.5,4.15
		c-2.7,1.267-4.217,2.1-4.55,2.5c-0.8,0.9-2.534,1.45-5.2,1.65C87.933,34.983,85.617,35,81.55,35c-0.466,0-1.033-0.2-1.7-0.6
		c-0.6-0.367-1.117-0.783-1.55-1.25L78,32.05z M70.45,53.1c1.367-0.633,2.333-1.017,2.9-1.15c6.733-0.733,11.05-0.917,12.95-0.55
		c0,0.033,0.417-0.066,1.25-0.3l-0.2,0.15c-0.233,0.1-2.017,0.65-5.35,1.65c-3.8,1.3-7.2,2.684-10.2,4.15
		c-7.167,3.467-11.5,7.184-13,11.15l0.05-0.3c0-4.1,1.133-7.583,3.4-10.45C64.517,54.55,67.25,53.1,70.45,53.1z M39.1,94.55
		l2.65-2.95c0.167-0.1,0.533-0.433,1.1-1c0.4-0.399,2.316-1.316,5.75-2.75c0.667-0.033,3.15-0.05,7.45-0.05l1.35-0.05
		c-0.133-0.033-0.267-0.05-0.4-0.05c1.667-0.167,3.117,0.083,4.35,0.75c1.2,0.934,1.95,1.483,2.25,1.649c0.3,0.2,0.6,0.434,0.9,0.7
		c0.567,0.566,0.867,1.084,0.9,1.55c0.2,2.2,0.05,3.801-0.45,4.801c-1.333-0.534-3-1.134-5-1.801c-2.967-1-4.95-1.5-5.95-1.5
		c-5.9,0-10.317,0.784-13.25,2.351c-0.733,0.434-1.65,1.017-2.75,1.75c-0.9,0.6-1.817,0.95-2.75,1.05l3.5-3.95L39.1,94.55z
		 M109.1,45.65l-0.2,0.2l-0.1-1.35l0.05-3.6c0.066-0.7,0.617-2.533,1.65-5.5c1.1-3.2,1.983-5.3,2.65-6.3
		c0.166,4.433-0.334,8.1-1.5,11C111.017,41.633,110.167,43.483,109.1,45.65z M83.45,96.1c1.9-2.166,3.25-3.55,4.05-4.149
		c1.7-1.3,4.7-2.884,9-4.75V88c-1.367,3.366-5.983,7.667-13.85,12.9L82.3,100C82.567,98.5,82.95,97.2,83.45,96.1z M121.65,71.55
		c-0.2,3-0.617,6.8-1.25,11.4c-0.367,2.6-0.917,6.399-1.65,11.399v2.75l-0.1,0.551c-0.601-1.7-1.017-2.934-1.25-3.7
		c-0.367-1.267-0.551-2.783-0.551-4.55c0.4-2.434,0.9-5.05,1.5-7.851c1.233-5.533,2.384-9.3,3.45-11.3L121.65,71.55z M82.4,109.3
		c-7.267-0.2-11.983,0.867-14.15,3.2c-0.567,0.6-1.25,1.434-2.05,2.5c-0.8,0.767-1.983,1.15-3.55,1.15
		c-1.566,0-2.633,0.083-3.2,0.25c-1,0.3-1.917,1.017-2.75,2.149l-0.05-2.25c0-3.5,1.583-6.483,4.75-8.95
		c3.133-2.5,6.934-3.75,11.4-3.75c1.167,0.034,2.5,0.434,4,1.2c0.5,0.233,1.017,0.517,1.55,0.851c0.3,0.199,0.6,0.383,0.9,0.55
		l3.35,2c0,0.033,0,0.233,0,0.6C82.567,109.167,82.5,109.333,82.4,109.3z"/>
</g>
</svg>
