<?xml version="1.0" encoding="iso-8859-1"?>
<!-- Generator: Adobe Illustrator 15.1.0, SVG Export Plug-In . SVG Version: 6.00 Build 0)  -->
<!DOCTYPE svg PUBLIC "-//W3C//DTD SVG 1.1//EN" "http://www.w3.org/Graphics/SVG/1.1/DTD/svg11.dtd">
<svg version="1.1" id="Layer_1" xmlns="http://www.w3.org/2000/svg" xmlns:xlink="http://www.w3.org/1999/xlink" x="0px" y="0px"
	 width="125.2px" height="129.05px" viewBox="0 0 125.2 129.05" style="enable-background:new 0 0 125.2 129.05;"
	 xml:space="preserve">
<g>
	<path style="fill-rule:evenodd;clip-rule:evenodd;fill:#5E513E;" d="M89.7,32.55c0.566,0.934,1.05,1.9,1.45,2.9
		c0.333,0.667,0.733,1.283,1.199,1.85c-0.633,0.833-1.133,2.383-1.5,4.65c0,0.566,0.2,1.033,0.601,1.4
		c0.467,0.467,1.184,0.7,2.149,0.7c0.434,0,0.934-0.1,1.5-0.3l0.75-0.3l0.75-0.5l0.051-0.05v0.95c-0.767,2.333-2.65,4.066-5.65,5.2
		c-1.667,0.6-4.017,1.167-7.05,1.7c-2.667,0.667-5.3,2.117-7.9,4.35c-2.3,1.933-4.033,2.917-5.2,2.95
		c0.301-0.7,1.184-2.466,2.65-5.3c1-1.9,1.5-3.167,1.5-3.8c0-0.5-0.134-0.983-0.4-1.45c-0.066-0.1-0.316-0.467-0.75-1.1
		c0.9,0.2,2.5,0.383,4.801,0.55c1.899,0.133,3.233,0.2,4,0.2c2.133,0,3.699-0.883,4.699-2.65c0.7-1.2,1.051-2.55,1.051-4.05
		c0-0.4-0.25-0.934-0.75-1.6c-0.267-0.333-0.534-0.617-0.801-0.85v0.9c-0.133-1.467-0.649-2.783-1.55-3.95
		c-0.866-1.133-1.7-1.7-2.5-1.7c-0.633,0-1.684-1.15-3.149-3.45c-2.434-2.333-6.4-3.5-11.9-3.5c-0.134,0-0.816,0.217-2.05,0.65
		c-1.334,0.5-2.184,0.867-2.55,1.1L64.3,26.8c1.434-1.4,2.783-2.1,4.05-2.1c2.334,0.233,3.884,0.35,4.65,0.35
		c0-0.3-0.05-0.633-0.15-1L72.7,23.6c-0.601-0.767-3.017-1.85-7.25-3.25c-4.034-1.3-6.267-2.5-6.7-3.6
		c-0.567-1.367-1.467-2.483-2.7-3.35c-1.633-1.1-3.733-1.65-6.3-1.65c-1.167,0-2.45,0.55-3.85,1.65c-0.833,0.7-1.583,1.45-2.25,2.25
		L42.8,16.4c-0.1-0.8-0.15-1.533-0.15-2.2c0-0.467,0.15-1.184,0.45-2.15c0.733-1,1.566-1.833,2.5-2.5
		c0.833-0.566,1.316-0.917,1.45-1.05c1.2-0.833,2.2-1.4,3-1.7c1-0.367,1.95-0.466,2.85-0.3c0.567,0.1,4.567,0.467,12,1.1
		c0.767,0,1.566-0.184,2.399-0.55c0.934-0.4,1.684-0.933,2.25-1.6C69.684,4.883,69.8,4.5,69.9,4.3
		c0.066-0.167,0.116-0.25,0.149-0.25c0.7,0.367,1.283,0.733,1.75,1.1c0.101,0.067,0.184,0.133,0.25,0.2c0.9,0.8,1.7,2.267,2.4,4.4
		c0.833,2.7,2.017,5.167,3.55,7.4l0.6,0.95c-1.366-0.067-2.699-0.45-4-1.15c-1.5-0.833-2.25-1.833-2.25-3
		c0.334-0.833,0.551-1.434,0.65-1.8c0.167-0.633-0.25-1.383-1.25-2.25c-1.066,1.133-1.783,2.233-2.15,3.3
		c-0.166,0.5-0.583,0.75-1.25,0.75c-0.199,0-0.699-0.083-1.5-0.25c-0.833-0.167-1.75-0.267-2.75-0.3c3.434,2.7,6.284,5.3,8.551,7.8
		c4.1,4.533,6.366,7.017,6.8,7.45c-0.033-0.133,0.017-0.433,0.149-0.9c0-0.033,0.017-0.067,0.051-0.1c0.8,0.533,1.75,1.233,2.85,2.1
		c2.733,2.067,4.767,4.117,6.1,6.15l0.301-0.15c0.199-0.3,0.383-0.783,0.55-1.45C89.616,33.633,89.7,33.05,89.7,32.55z M75.45,42.35
		c1.967-0.333,3.283-0.517,3.95-0.55c1-0.1,2.183,0.15,3.55,0.75C81.483,42.817,78.983,42.75,75.45,42.35z M72.9,46.1
		c-1.5-0.067-3.167-0.383-5-0.95c-0.967-0.267-1.95-0.6-2.95-1l1.25,0.35l-3.55-1.4c-4.101-1.633-5.917-4.934-5.45-9.9l0.3,0.75
		c1.9,2.466,3.7,4.383,5.4,5.75c2.666,2.1,5.949,3.066,9.85,2.9c-2.4,0.233-3.684,0.35-3.85,0.35c-0.101,0-2.417-1.017-6.95-3.05
		c0.066,1.367,1.184,2.5,3.35,3.4C68.434,44.367,70.967,45.3,72.9,46.1z M104.4,58.1c0,2.2-0.9,4.083-2.7,5.65
		c-1.667,1.434-3.65,2.217-5.95,2.35c1.967-0.166,3.634-1.05,5-2.649C102.316,61.083,103.533,59.3,104.4,58.1z M97.85,71.45
		c0,0.233-0.116,0.434-0.35,0.6c-0.267,0.167-0.583,0.25-0.95,0.25l-0.1-0.649H90.6l-2.75-0.2c-1.566,0-2.899,0.383-4,1.149
		c-1.133,0.733-1.699,1.634-1.699,2.7c-2.267,0-4.2,1.667-5.801,5C75.517,82,74.9,83.9,74.5,86c-0.5,1.066-0.75,2.15-0.75,3.25
		l0.15,3.1c0.466,1.467,0.8,2.351,1,2.65l1.449,1.45l0.9,0.45c0.066-0.5-0.1-1.4-0.5-2.7l1.85,1.1l0.9,0.101
		c1.833,0,3.65,0.267,5.45,0.8c1.434,0.566,2.184,0.85,2.25,0.85L85,96.9c4.167,0.833,6.783,1.25,7.85,1.25
		c2.367-0.467,4.584-1.301,6.65-2.5c4.134-2.4,5.583-5.45,4.35-9.15l0.15-0.9l0.4-0.75c0.033,0.367,0.966,2.317,2.8,5.851
		c1.733,3.366,2.6,5.767,2.6,7.2c0,1-0.366,1.966-1.1,2.899c-0.834,1.033-1.367,2.351-1.601,3.95
		c-0.138,0.169-0.271,0.336-0.399,0.5c-0.167,0.167-0.316,0.35-0.45,0.55c-0.833,1-1.434,1.834-1.8,2.5
		c0,4.434-1.851,8.217-5.55,11.351c-0.301,0.233-0.601,0.466-0.9,0.699c1.233-1.666,1.85-3.899,1.85-6.699
		c0-8.101-2.449-12.15-7.35-12.15c-1.167,0-1.967,0.25-2.4,0.75c-0.267,0.366-0.5,1.167-0.699,2.4
		c-0.567,3.866-1.834,7.433-3.801,10.699l0.051-3.75c-0.198,0.694-0.624,1.536-1.275,2.525c0.816-3.533,1.225-6.458,1.225-8.775
		c0-1.666-0.633-3.216-1.899-4.649c-1.867-2.134-4.733-3.2-8.601-3.2c-4.066,0-6.149,2.05-6.25,6.15
		c-0.733,0.866-1.35,1.566-1.85,2.1c-0.2,0.2-0.967,0.65-2.3,1.35c-0.834,0-2.134-0.083-3.9-0.25c-1.333,0.167-2,1.217-2,3.15
		c0,1.967,0.067,3.184,0.2,3.65c0.133,0.566,0.6,1.183,1.4,1.85c0.533,1.634,1.467,2.717,2.8,3.25
		c0.767,0.267,2.066,0.434,3.899,0.5c1.667,0.066,2.817,0.3,3.45,0.7c1,0.633,1.5,1.866,1.5,3.7c0,1.6-0.149,2.75-0.45,3.449
		C71.4,127.566,71,128.2,70.4,129l-0.351,0.05c-1.333,0.033-2.883,0.017-4.649-0.05l-0.801-0.1l-0.5-0.051
		c0.567-0.366,1.084-0.883,1.551-1.55c0.433-0.666,0.649-1.217,0.649-1.649c0-2.733-1.6-4.417-4.8-5.051
		c-1.967-0.366-3.083-0.6-3.35-0.699c-1-0.367-1.5-1.017-1.5-1.95c0-0.066,0.184-0.967,0.55-2.7c0.333-1.733,0.5-3.917,0.5-6.55
		c0-0.667-0.534-2.351-1.6-5.05c-1.133-2.9-2.167-5.067-3.1-6.5l0.6,0.55c2.667,2.3,4.433,3.767,5.3,4.399
		c1.3,0.967,2.684,1.45,4.15,1.45c1.7,0,2.884-0.666,3.55-2c0.434-0.899,0.65-2.2,0.65-3.899c0-1.634-0.1-3.301-0.3-5
		c-4.5,0.8-7.067-0.367-7.7-3.5c-0.2-0.967-0.25-2.483-0.15-4.551c0.1-2.267,0.1-3.833,0-4.699c-0.233-1.9-1-3.467-2.3-4.7
		c-0.7-0.7-2.05-1.601-4.05-2.7c-3.833-2.134-5.85-4.9-6.05-8.3v-0.15l0.5,0.8c0.033-0.067,0.05-0.15,0.05-0.25
		c-0.067-0.167,0.05-0.4,0.35-0.7l0.4,1.15c0.867,1.634,3.017,2.717,6.45,3.25c3.566,0.566,5.65,1.267,6.25,2.101
		c1.3,2.233,2.333,3.816,3.1,4.75c1.334,1.666,2.983,2.5,4.95,2.5c2.566,0,5.384-1.834,8.45-5.5C79.934,68.35,81.483,66.3,81.85,66
		c0.934,0.4,3.601,1.316,8,2.75C94.316,70.184,96.983,71.083,97.85,71.45z M108.65,84.25c0.433,0.866,1.033,1.616,1.8,2.25
		c1,0.8,2,1.184,3,1.15c1,0.267,1.5,0.066,1.5-0.601c0-3.267-1.05-6.399-3.15-9.399c-2.233-3.2-4.283-3.75-6.149-1.65
		c0.199,1.333,0.767,2.366,1.699,3.1c0.767,0.601,1.134,1.617,1.101,3.051c-0.2-0.434-1.434-1.95-3.7-4.551
		c-2.033-2.333-3.05-3.85-3.05-4.55c0-1,0.633-2.066,1.899-3.2c1.7-1.533,2.784-2.683,3.25-3.449l0.4,0.35
		c0.767,0.634,2.717,2.85,5.85,6.65l2.75,3.85c2.2,3,3.767,5.033,4.7,6.1c0.7,0.7,1.267,1.317,1.7,1.851l0.6,0.6
		c0.767,0.733,1.384,1.7,1.851,2.9c0.333,0.8,0.5,1.35,0.5,1.649c0,0.434-0.084,0.834-0.25,1.2c-0.101,0.134-0.316,0.45-0.65,0.95
		l-0.149-0.85c-0.534,0.166-1.467,0.783-2.801,1.85c-1.133,0.9-1.966,1.35-2.5,1.35c-2.3,0-3.449-0.833-3.449-2.5
		c0-0.199,0.383-0.833,1.149-1.899c-0.399-0.2-1.633-0.3-3.7-0.3c-1.767,0-3-0.684-3.699-2.051
		c-0.367-0.699-0.551-1.433-0.551-2.199L108.65,84.25z M100.55,75.3c-0.434-0.633-0.7-1.5-0.8-2.6l0.3,0.399
		C100.283,73.6,100.45,74.333,100.55,75.3z M15.95,44.6c-0.034,1.1-0.15,1.983-0.35,2.65c-0.167,0.467-0.45,1.017-0.85,1.65
		C15.317,47.367,15.717,45.933,15.95,44.6z M15.95,34.3v-2.15l-1.55,0.3c-0.267-0.3-0.467-0.667-0.6-1.1
		c0.767-0.233,1.534-0.583,2.3-1.05c0.133-0.1,0.7-0.75,1.7-1.95c0.967-1.233,1.517-1.95,1.65-2.15c0.2-0.534,0.35-1,0.45-1.4
		l-0.15,0.65c-0.133,0.7-0.317,1.333-0.55,1.9c-0.167,0.6-0.717,1.717-1.65,3.35c0,0.033,0,0.066,0,0.1c0,0.667,0.1,1.534,0.3,2.6
		c0.433,1.967,0.65,3.717,0.65,5.25c0.067,0.233,0.183,0.867,0.35,1.9c0.133,1.067,0.2,1.833,0.2,2.3c0,4.066-0.716,7.233-2.15,9.5
		C15.767,54.117,14.567,55,13.3,55c-1.5,0-2.683-0.15-3.55-0.45c-1.367-0.466-2.767-1.433-4.2-2.9c0.733,0.2,1.5,0.417,2.3,0.65
		c1.633,0.4,3,0.6,4.1,0.6c2.133,0,3.767-1.117,4.9-3.35c0.8-1.533,1.2-2.966,1.2-4.3c-0.5-4.9-0.783-9.033-0.85-12.4
		c0-0.233,0-0.467,0-0.7L15.95,34.3z M33.85,78.3c0.8,0.733,1.333,1.2,1.6,1.4l1.9,1.399c0.566,0.601,1.367,1.134,2.4,1.601
		s1.983,0.7,2.85,0.7c2.933,0,4.75-0.384,5.45-1.15c0.034-0.033,0.333-1,0.9-2.9L47.3,79.9c0.6-0.667,0.95-1.067,1.05-1.2
		c0.033-0.101,0.233-1.017,0.6-2.75l0.65,1.399c0.4,0.801,0.6,1.567,0.6,2.301c0,1.699-0.55,3.133-1.65,4.3
		c-1.1,1.166-1.65,2.184-1.65,3.05c0,0.9,0.6,1.95,1.8,3.15c1.4,1.433,2.2,2.416,2.4,2.949C46.367,91.2,43.333,89.467,42,87.9
		c-0.533-0.634-1.567-1.934-3.1-3.9C37.467,82.2,35.783,80.3,33.85,78.3z M80.1,72.25c-0.833,0.434-2.666,1.634-5.5,3.6
		c-2.733,1.767-4.767,2.65-6.1,2.65c-1.733,0-3.434-0.566-5.1-1.7c-1.833-1.2-3.184-2.816-4.05-4.85L59.1,72.8
		c1.167,6.434,4.85,9.65,11.05,9.65c1.966,0,3.883-1.167,5.75-3.5c2.433-3.066,3.933-4.783,4.5-5.15L80.1,72.25z M60.4,115.5
		c2.8,0.233,5.234,0.55,7.3,0.95c3.934,0.8,6.283,2.6,7.05,5.399c-0.733-1.699-2.667-2.966-5.8-3.8
		C64.116,116.783,61.267,115.934,60.4,115.5z M34.1,116.05l-0.2-0.149l-0.45-0.45c2.133,0.1,3.667-0.233,4.6-1
		c1.434-1.2,2.6-3.25,3.5-6.15l0.1,3.101c0,0.066-0.167,1.066-0.5,3c-0.633,1.933-1.667,2.899-3.1,2.899
		c-0.2,0-0.816-0.166-1.85-0.5C35.2,116.467,34.5,116.217,34.1,116.05z M84.6,124.45L81,125.35l-0.3,0.051
		c0.533-0.7,1.434-3.267,2.7-7.7c0.066-0.2,0.133-0.4,0.199-0.601c0.067,0.801,0.267,2,0.601,3.601
		C84.634,122.733,84.767,123.983,84.6,124.45z M73.35,128.55l-0.3,0.05l0.3-0.149V128.55z M86.15,117.85
		c1.8-0.133,3.149-0.683,4.05-1.649c1.133-1.566,2.184-3.017,3.149-4.351L93.4,112.4v9L93.3,121.85c-0.566,0.101-1.35,0.4-2.35,0.9
		l0.35,0.3c0.167,0.101,0.283,0.167,0.351,0.2c0.1,0.033,0.316,0.05,0.649,0.05c-2.1,0.667-4.366,1-6.8,1h-0.1
		c1.133-0.833,2.033-1.583,2.699-2.25c1.301-1.267,1.934-2.666,1.9-4.2c-0.267,0.067-0.45,0.217-0.55,0.45
		c-0.101,0.2-0.517,0.3-1.25,0.3C87.333,118.6,86.65,118.35,86.15,117.85z"/>
	<path style="fill-rule:evenodd;clip-rule:evenodd;fill:#6C5D45;" d="M78.6,18.1l2.851,3.5c5.1,6.6,7.85,10.25,8.25,10.95
		c0,0.5-0.084,1.083-0.25,1.75c-0.167,0.667-0.351,1.15-0.55,1.45L88.6,35.9c-1.333-2.033-3.366-4.083-6.1-6.15
		c-1.1-0.867-2.05-1.567-2.85-2.1c-0.034,0.033-0.051,0.067-0.051,0.1c-0.133,0.467-0.183,0.767-0.149,0.9
		c-0.434-0.433-2.7-2.917-6.8-7.45c-2.267-2.5-5.117-5.1-8.551-7.8c1,0.033,1.917,0.133,2.75,0.3c0.801,0.167,1.301,0.25,1.5,0.25
		c0.667,0,1.084-0.25,1.25-0.75c0.367-1.067,1.084-2.167,2.15-3.3c1,0.867,1.417,1.617,1.25,2.25c-0.1,0.367-0.316,0.967-0.65,1.8
		c0,1.167,0.75,2.167,2.25,3C75.9,17.65,77.233,18.033,78.6,18.1z M52.9,6.5c1.467-0.1,3.783-0.067,6.95,0.1c3,0.2,4.667,0.3,5,0.3
		c1.867-0.3,3.434-0.783,4.7-1.45c-0.566,0.667-1.316,1.2-2.25,1.6C66.467,7.417,65.667,7.6,64.9,7.6
		C57.467,6.967,53.467,6.6,52.9,6.5z M43.1,12.05c0.267-1,0.517-1.583,0.75-1.75c0.833-0.367,1.9-0.966,3.2-1.8
		c-0.133,0.133-0.617,0.483-1.45,1.05C44.667,10.217,43.833,11.05,43.1,12.05z M62.65,43.1c-0.534-0.167-2.767-1-6.7-2.5l0.4-0.1
		l-0.6,0.05c-0.667-2.433-2.183-6.133-4.55-11.1c-2.567-5.434-5.083-10.034-7.55-13.8c0.667-0.8,1.417-1.55,2.25-2.25
		c1.4-1.1,2.684-1.65,3.85-1.65c2.567,0,4.667,0.55,6.3,1.65c1.233,0.867,2.133,1.983,2.7,3.35c0.433,1.1,2.667,2.3,6.7,3.6
		c4.233,1.4,6.649,2.483,7.25,3.25l0.149,0.45c0.101,0.367,0.15,0.7,0.15,1c-0.767,0-2.316-0.117-4.65-0.35
		c-1.267,0-2.616,0.7-4.05,2.1l-1.149,1.25c0.366-0.233,1.216-0.6,2.55-1.1c1.233-0.434,1.916-0.65,2.05-0.65
		c5.5,0,9.467,1.167,11.9,3.5c1.466,2.3,2.517,3.45,3.149,3.45c0.8,0,1.634,0.567,2.5,1.7c0.9,1.167,1.417,2.483,1.55,3.95
		c-0.133,0.767-0.399,1.35-0.8,1.75c-0.467,0.434-1.5,1.067-3.1,1.9c-1.367-0.6-2.55-0.85-3.55-0.75
		c-0.667,0.034-1.983,0.217-3.95,0.55h-0.2c-0.934,0.1-1.767,0.183-2.5,0.25c-3.9,0.167-7.184-0.8-9.85-2.9
		c-1.7-1.367-3.5-3.284-5.4-5.75l-0.3-0.75C56.733,38.167,58.55,41.467,62.65,43.1z M48,65.05c1.567,0.7,2.733,1.2,3.5,1.5
		c1.367,0.533,2.65,0.8,3.85,0.8c3.8,0,7.85-2.133,12.15-6.399c4.167-4.133,6.25-7.883,6.25-11.25c0-1.1-1.017-2.1-3.05-3
		c-0.033-0.034-2.684-1-7.95-2.9l2.2,0.35c1,0.4,1.983,0.733,2.95,1c1.833,0.567,3.5,0.883,5,0.95l0.949,0.3
		c0.434,0.633,0.684,1,0.75,1.1c0.267,0.467,0.4,0.95,0.4,1.45c0,0.633-0.5,1.9-1.5,3.8c-1.467,2.833-2.35,4.6-2.65,5.3
		c1.167-0.033,2.9-1.017,5.2-2.95c2.601-2.233,5.233-3.684,7.9-4.35c3.033-0.533,5.383-1.1,7.05-1.7c3-1.133,4.884-2.867,5.65-5.2
		c0.533,1.6,2.017,3.933,4.449,7c2.134,2.667,3.267,4.95,3.4,6.85l-0.1,0.4c-0.867,1.2-2.084,2.983-3.65,5.35
		c-1.366,1.6-3.033,2.483-5,2.649H95.1c-2.466,0-5.649-0.166-9.55-0.5c-1.934-0.166-3.166-0.033-3.7,0.4
		c-0.366,0.3-1.916,2.35-4.649,6.15c-3.066,3.666-5.884,5.5-8.45,5.5c-1.967,0-3.616-0.834-4.95-2.5
		c-0.767-0.934-1.8-2.517-3.1-4.75c-0.6-0.834-2.684-1.534-6.25-2.101C51.017,67.767,48.867,66.684,48,65.05z M92.35,37.3L95,39.8
		c0.134,0.2,0.417,0.7,0.85,1.5c0.5,0.9,0.767,1.434,0.801,1.6L96.6,42.95l-0.75,0.5l-0.75,0.3c-0.566,0.2-1.066,0.3-1.5,0.3
		c-0.966,0-1.683-0.233-2.149-0.7c-0.4-0.367-0.601-0.833-0.601-1.4C91.217,39.683,91.717,38.133,92.35,37.3z M90.6,71.65h-1.05
		c-0.767-0.034-1.333-0.101-1.7-0.2L90.6,71.65z M96.55,72.3c0.367,0,0.684-0.083,0.95-0.25c0.233-0.166,0.35-0.366,0.35-0.6
		l1.9,1.25c0.1,1.1,0.366,1.967,0.8,2.6c0,6-1.3,11.134-3.899,15.4c-2.601,4.233-5.75,6.35-9.45,6.35
		c-0.066,0-0.816-0.283-2.25-0.85c-1.8-0.533-3.617-0.8-5.45-0.8L78.6,95.3l-1.85-1.1c-0.1-1.167-0.15-2.084-0.15-2.75
		c0-2.767,2.517-6.517,7.551-11.25c5.233-4.934,9.433-7.066,12.6-6.4L96.55,72.3z M46.7,64.2c0.2,3.399,2.216,6.166,6.05,8.3
		c2,1.1,3.35,2,4.05,2.7c1.3,1.233,2.067,2.8,2.3,4.7c0.1,0.866,0.1,2.433,0,4.699c-0.1,2.067-0.05,3.584,0.15,4.551
		c0.633,3.133,3.2,4.3,7.7,3.5c0.2,1.699,0.3,3.366,0.3,5c0,1.699-0.217,3-0.65,3.899c-0.666,1.334-1.85,2-3.55,2
		c-1.466,0-2.85-0.483-4.15-1.45c-0.867-0.633-2.633-2.1-5.3-4.399L53,97.15c0.933,1.433,1.967,3.6,3.1,6.5
		c1.066,2.699,1.6,4.383,1.6,5.05c0,2.633-0.167,4.816-0.5,6.55c-0.367,1.733-0.55,2.634-0.55,2.7c0,0.934,0.5,1.583,1.5,1.95
		c0.267,0.1,1.383,0.333,3.35,0.699c3.2,0.634,4.8,2.317,4.8,5.051c0,0.433-0.217,0.983-0.649,1.649
		c-0.467,0.667-0.983,1.184-1.551,1.55H63.7l-4.1-0.449l-0.7-0.101c1.3-0.267,2.15-0.816,2.55-1.649
		c0.167-0.334,0.25-0.867,0.25-1.601c0-1.5-2.284-3.083-6.85-4.75c-4.6-1.666-6.9-3.583-6.9-5.75c0-1.166,0.367-2.2,1.1-3.1
		c0.733-0.9,1.1-1.617,1.1-2.15c0-0.967-0.233-1.717-0.7-2.25c-0.3-0.333-0.917-0.866-1.85-1.6c-2.233-1.934-4.184-5.316-5.85-10.15
		l-0.65-2.25c-0.367-1.366-0.733-2.316-1.1-2.85c0-1,0.033-1.5,0.1-1.5l-3.35-0.351c-1.6,0-2.917,0.65-3.95,1.95
		c-1.167,1.467-1.75,3.55-1.75,6.25c0,0.867,0.267,1.717,0.8,2.55C31.45,98.7,31.167,98.4,31,98.2c-1.167-1.601-1.75-4.2-1.75-7.8
		c0-1.434,0.7-3.467,2.1-6.101c1.367-2.633,2.05-4.383,2.05-5.25c0-0.033-0.316-0.316-0.95-0.85c-0.633-0.733-1-1.684-1.1-2.851
		c0.333,0.534,0.65,0.983,0.95,1.351c0.067,0.133,0.55,0.633,1.45,1.5c0.033,0.033,0.067,0.066,0.1,0.1c1.933,2,3.617,3.9,5.05,5.7
		c1.533,1.967,2.567,3.267,3.1,3.9c1.333,1.566,4.367,3.3,9.1,5.199c-0.2-0.533-1-1.517-2.4-2.949c-1.2-1.2-1.8-2.25-1.8-3.15
		c0-0.866,0.55-1.884,1.65-3.05c1.1-1.167,1.65-2.601,1.65-4.3c0-0.733-0.2-1.5-0.6-2.301l-0.65-1.399
		c-0.367,1.733-0.567,2.649-0.6,2.75c-0.1,0.133-0.45,0.533-1.05,1.2c-0.167,0.3-0.683,0.733-1.55,1.3
		c-1.033,0.633-1.95,0.95-2.75,0.95c-0.467,0-1.433-0.184-2.9-0.551c-1.467-0.333-2.383-0.5-2.75-0.5l-1.9-1.399l0.85,0.45
		c0-0.101-0.05-0.65-0.15-1.65c2.667,1.8,4.55,2.7,5.65,2.7c1.9,0,3.25-0.417,4.05-1.25c0.633-1.033,1.117-1.8,1.45-2.3
		c-2-0.233-3.25-1.967-3.75-5.2c-0.267-4.066-0.533-6.967-0.8-8.7c0-1.133-0.25-2.1-0.75-2.9c-0.5-0.833-1.1-1.25-1.8-1.25
		c-0.162-0.064,0.222-0.165,1.15-0.3c-0.543,0.063-1.193,0.063-1.95,0c-0.833-0.033-1.383-0.033-1.65,0l-2.1-0.2
		c-1.433-0.7-3.017-1.867-4.75-3.5c-2.667-2.467-3.683-4.6-3.05-6.4L28.2,48c0.533,3.267,1.55,5.483,3.05,6.65
		c0.967,0.767,2.367,1.15,4.2,1.15c1.433,0,2.966-1.35,4.6-4.05c1.633-2.667,2.45-5.167,2.45-7.5c0-1.7-0.867-4.2-2.6-7.5
		c-1.767-3.3-2.65-6.167-2.65-8.6c0-0.667,0.5-3.233,1.5-7.7c0,0.5-0.083,1.8-0.25,3.9c0,3.2,1.2,6.1,3.6,8.7
		c2.4,2.6,3.6,5.317,3.6,8.15c0,2.066-0.333,3.9-1,5.5c-0.667,1.6-1,3.117-1,4.55c0,1.467,0.3,3.683,0.9,6.65
		c0,0.067,0.017,0.133,0.05,0.2c0,0.233,0.017,0.467,0.05,0.7l0.05-0.1C45.383,61.567,46.033,63.4,46.7,64.2z M108.65,84.25
		l-0.2-2.1c0.033-1.434-0.334-2.45-1.101-3.051c-0.933-0.733-1.5-1.767-1.699-3.1c1.866-2.1,3.916-1.55,6.149,1.65
		c2.101,3,3.15,6.133,3.15,9.399c0,0.667-0.5,0.867-1.5,0.601c-1,0.033-2-0.351-3-1.15C109.684,85.866,109.083,85.116,108.65,84.25z
		 M81.65,58.95c0,0.7,0.166,1.35,0.5,1.95c0.066,0.133,0.333,0.483,0.8,1.05c1.733-3.067,3.95-5.534,6.649-7.4
		c3.534-2.367,7.45-3.35,11.75-2.95l-3.3-1.05c-2.3-0.733-3.666-1.1-4.1-1.1c-3.167,0-5.867,0.683-8.101,2.05
		C83.05,53.2,81.65,55.683,81.65,58.95z M74.5,86c0.4-2.1,1.017-4,1.85-5.7c1.601-3.333,3.534-5,5.801-5
		c-0.9,1.601-2.801,4.134-5.7,7.601C75.583,83.934,74.934,84.967,74.5,86z M39,120.45l-4.9-4.4c0.4,0.167,1.1,0.417,2.1,0.75
		c1.033,0.334,1.65,0.5,1.85,0.5c1.434,0,2.467-0.967,3.1-2.899c0.333-1.934,0.5-2.934,0.5-3l-0.1-3.101
		c-0.9,2.9-2.066,4.95-3.5,6.15c-0.933,0.767-2.466,1.1-4.6,1l-6.7-7.45c-3.567-3.033-5.85-5.983-6.85-8.85
		c-0.4-2.534-0.683-4.067-0.85-4.601c3.567,5.066,6.217,8.717,7.95,10.95c3.033,3.9,6.283,5.85,9.75,5.85c1.533,0,2.5-0.199,2.9-0.6
		c0.333-0.333,0.5-1.167,0.5-2.5c0-0.467-0.1-1-0.3-1.6c-0.133-0.567-0.283-0.967-0.45-1.2l-0.4-0.4c0.967,0.533,1.933,1.5,2.9,2.9
		c1.033,1.533,1.55,2.95,1.55,4.25c0,0.434-0.333,1.316-1,2.649c-0.7,1.334-1.05,2.483-1.05,3.45c0,1.5,0.434,3.033,1.3,4.601v0.05
		L39,120.45z M16.1,30.3c0.967-2.3,2.217-6.85,3.75-13.65l0.1-1.3c0.167,4.267,0,7.883-0.5,10.85c-0.133,0.2-0.684,0.917-1.65,2.15
		C16.8,29.55,16.233,30.2,16.1,30.3z M15.95,34.3l1.25-2.15c0,0.233,0,0.467,0,0.7c0.066,3.367,0.35,7.5,0.85,12.4
		c0,1.333-0.4,2.767-1.2,4.3c-1.133,2.233-2.767,3.35-4.9,3.35c-1.1,0-2.467-0.2-4.1-0.6c-0.8-0.233-1.567-0.45-2.3-0.65
		c1.434,1.467,2.833,2.434,4.2,2.9C10.617,54.85,11.8,55,13.3,55c1.267,0,2.467-0.883,3.6-2.65c1.434-2.267,2.15-5.434,2.15-9.5
		c0-0.467-0.066-1.233-0.2-2.3c-0.167-1.033-0.283-1.667-0.35-1.9c1.1,2.267,1.317,5.35,0.65,9.25c-0.633,3.7-0.35,6.517,0.85,8.45
		c0.467,0.733,2.433,2.083,5.9,4.05c3.233,1.833,5.133,3.617,5.7,5.35c-0.133,2-0.317,3.8-0.55,5.4c-1.1-3.534-2.917-6-5.45-7.4
		c-1.333-0.767-3.85-1.517-7.55-2.25c-3.533-0.667-6.233-1.6-8.1-2.8c-2.867-1.9-5.15-4.983-6.85-9.25L2.35,47.9
		c1,1.367,1.683,2.25,2.05,2.65c0.567,0.667,1.95,1,4.15,1c0.967,0,2.083-0.216,3.35-0.65c1.533-0.533,2.483-1.2,2.85-2
		c0.4-0.633,0.683-1.183,0.85-1.65c0.2-0.667,0.316-1.55,0.35-2.65V34.3z M64.5,69.8c0,0.667,0.066,1.684,0.2,3.05
		c2.366-0.5,4.934-2.433,7.7-5.8c2.699-3.767,4.433-6.15,5.199-7.15c-1.633,0.2-4.267,1.75-7.899,4.65
		C66.233,67.316,64.5,69.066,64.5,69.8z M83.6,117.1c-0.066,0.2-0.133,0.4-0.199,0.601c-1.267,4.434-2.167,7-2.7,7.7l-1.55,0.649
		c-0.767,0.367-1.9,0.9-3.4,1.601c-1.2,0.566-2,0.866-2.4,0.899v-0.1c1.101-1.101,1.667-1.684,1.7-1.75
		c0.2-0.601,0.101-2.217-0.3-4.851c-0.767-2.8-3.116-4.6-7.05-5.399c-2.066-0.4-4.5-0.717-7.3-0.95c-0.8-0.667-1.267-1.283-1.4-1.85
		c-0.133-0.467-0.2-1.684-0.2-3.65c0-1.934,0.667-2.983,2-3.15c1.767,0.167,3.066,0.25,3.9,0.25c-0.934,0.334-2.167,0.551-3.7,0.65
		c0.233,0.4,0.6,0.8,1.1,1.2c-0.866,0-1.649,0.066-2.35,0.2l-0.1,1.1c0,2.3,1.684,3.717,5.05,4.25c0.666,0.1,2.75,0.15,6.25,0.15
		c0.633,0,2.017-1.2,4.149-3.601c2.567-2.899,3.851-5.684,3.851-8.35c0-0.967-0.267-1.816-0.8-2.55
		c-0.534-0.733-1.117-1.101-1.75-1.101c-0.7,0-1.584,0.233-2.65,0.7c-1.3,0.6-2.134,1.316-2.5,2.15
		c-0.066-0.034-0.333,0.116-0.8,0.449c-0.533,0.367-1.066,0.801-1.601,1.301c0.101-4.101,2.184-6.15,6.25-6.15
		c3.867,0,6.733,1.066,8.601,3.2c1.267,1.434,1.899,2.983,1.899,4.649c0,2.317-0.408,5.242-1.225,8.775l-0.025,0.025v0.05
		c-0.566,0.8-0.85,1.483-0.85,2.05C83.5,116.45,83.533,116.733,83.6,117.1z M98,120.35c-0.267,0.334-0.55,0.65-0.85,0.95
		c-1.4,1.334-2.95,2-4.65,2c-0.066,0-0.134,0-0.2,0c-0.333,0-0.55-0.017-0.649-0.05c-0.067-0.033-0.184-0.1-0.351-0.2l-0.35-0.3
		c1-0.5,1.783-0.8,2.35-0.9L93.4,121.4v-9l-0.051-0.551c-0.966,1.334-2.017,2.784-3.149,4.351c-0.9,0.967-2.25,1.517-4.05,1.649
		c-0.2-0.366-0.384-1.199-0.551-2.5c1.967-3.267,3.233-6.833,3.801-10.699c0.199-1.233,0.433-2.034,0.699-2.4
		c0.434-0.5,1.233-0.75,2.4-0.75c4.9,0,7.35,4.05,7.35,12.15C99.85,116.45,99.233,118.684,98,120.35z"/>
	<path style="fill-rule:evenodd;clip-rule:evenodd;fill:#4C4336;" d="M73.85,46.4L72.9,46.1c-1.934-0.8-4.467-1.733-7.601-2.8
		c-2.166-0.9-3.283-2.033-3.35-3.4c4.533,2.033,6.85,3.05,6.95,3.05c0.166,0,1.449-0.117,3.85-0.35c0.733-0.067,1.566-0.15,2.5-0.25
		h0.2c3.533,0.4,6.033,0.467,7.5,0.2c1.6-0.833,2.633-1.466,3.1-1.9c0.4-0.4,0.667-0.983,0.8-1.75V38
		c0.267,0.233,0.534,0.517,0.801,0.85c0.5,0.667,0.75,1.2,0.75,1.6c0,1.5-0.351,2.85-1.051,4.05c-1,1.767-2.566,2.65-4.699,2.65
		c-0.767,0-2.101-0.066-4-0.2C76.35,46.783,74.75,46.6,73.85,46.4z M104.5,57.7l-0.2,3.9c-0.033,0.267,0.033,0.733,0.2,1.4
		s0.384,1.267,0.65,1.8l0.05,0.1c0.033,0.067,0.066,0.117,0.1,0.15l1.55,1.351c-0.466,0.767-1.55,1.916-3.25,3.449
		c-1.267,1.134-1.899,2.2-1.899,3.2c0,0.7,1.017,2.217,3.05,4.55c2.267,2.601,3.5,4.117,3.7,4.551l0.2,2.1L108.6,85.9
		c0,0.767,0.184,1.5,0.551,2.199c0.699,1.367,1.933,2.051,3.699,2.051c2.067,0,3.301,0.1,3.7,0.3
		c-0.767,1.066-1.149,1.7-1.149,1.899c0,1.667,1.149,2.5,3.449,2.5c0.534,0,1.367-0.449,2.5-1.35
		c1.334-1.066,2.267-1.684,2.801-1.85l0.149,0.85c-0.366,0.533-1.217,1.283-2.55,2.25c-1.4,0.967-3.3,2.167-5.7,3.6
		c-1.399,0.834-2.383,1.417-2.95,1.75c-0.199,0.067-0.383,0.15-0.55,0.25l-3.899,3.051l-1.551,1.35
		c0.233-1.6,0.767-2.917,1.601-3.95c0.733-0.934,1.1-1.899,1.1-2.899c0-1.434-0.866-3.834-2.6-7.2
		c-1.834-3.533-2.767-5.483-2.8-5.851L104,85.6l-0.15,0.9c1.233,3.7-0.216,6.75-4.35,9.15c-2.066,1.199-4.283,2.033-6.65,2.5
		c-1.066,0-3.683-0.417-7.85-1.25l2.2,0.149c3.7,0,6.85-2.116,9.45-6.35c2.6-4.267,3.899-9.4,3.899-15.4
		c-0.1-0.967-0.267-1.7-0.5-2.2l-0.3-0.399l-1.9-1.25c-0.866-0.367-3.533-1.267-8-2.7c-4.399-1.434-7.066-2.35-8-2.75
		c0.534-0.434,1.767-0.566,3.7-0.4c3.9,0.334,7.084,0.5,9.55,0.5h0.65c2.3-0.133,4.283-0.916,5.95-2.35c1.8-1.567,2.7-3.45,2.7-5.65
		L104.5,57.7z M47.3,79.9l1.65-0.551c-0.567,1.9-0.867,2.867-0.9,2.9c-0.7,0.767-2.517,1.15-5.45,1.15
		c-0.867,0-1.817-0.233-2.85-0.7s-1.833-1-2.4-1.601c0.367,0,1.283,0.167,2.75,0.5c1.467,0.367,2.433,0.551,2.9,0.551
		c0.8,0,1.717-0.317,2.75-0.95C46.617,80.634,47.133,80.2,47.3,79.9z M80.1,72.25L80.4,73.8c-0.567,0.367-2.067,2.084-4.5,5.15
		c-1.867,2.333-3.784,3.5-5.75,3.5c-6.2,0-9.884-3.217-11.05-9.65l0.25-0.85c0.867,2.033,2.217,3.649,4.05,4.85
		c1.666,1.134,3.366,1.7,5.1,1.7c1.333,0,3.366-0.884,6.1-2.65C77.434,73.884,79.267,72.684,80.1,72.25z M71.05,128.95L70.4,129
		c0.6-0.8,1-1.434,1.199-1.9c0.301-0.699,0.45-1.85,0.45-3.449c0-1.834-0.5-3.067-1.5-3.7c-0.633-0.4-1.783-0.634-3.45-0.7
		c-1.833-0.066-3.133-0.233-3.899-0.5c-1.333-0.533-2.267-1.616-2.8-3.25c0.867,0.434,3.716,1.283,8.55,2.55
		c3.133,0.834,5.066,2.101,5.8,3.8c0.4,2.634,0.5,4.25,0.3,4.851c-0.033,0.066-0.6,0.649-1.7,1.75l-0.3,0.149l-1.3,0.301
		L71.05,128.95z M85.4,124.3l-0.45,0.101l-0.351,0.05c0.167-0.467,0.034-1.717-0.399-3.75c-0.334-1.601-0.533-2.8-0.601-3.601
		c-0.066-0.366-0.1-0.649-0.1-0.85c0-0.566,0.283-1.25,0.85-2.05v-0.05l0.025-0.025c0.651-0.989,1.077-1.831,1.275-2.525
		l-0.051,3.75c0.167,1.301,0.351,2.134,0.551,2.5c0.5,0.5,1.183,0.75,2.05,0.75c0.733,0,1.149-0.1,1.25-0.3
		c0.1-0.233,0.283-0.383,0.55-0.45c0.033,1.534-0.6,2.934-1.9,4.2C87.434,122.717,86.533,123.467,85.4,124.3z"/>
	<path style="fill-rule:evenodd;clip-rule:evenodd;fill:#76664D;" d="M113.1,100.1c0.567-0.333,1.551-0.916,2.95-1.75
		c2.4-1.433,4.3-2.633,5.7-3.6C119.616,96.417,116.733,98.2,113.1,100.1z M78,17.15l3.45,4.45L78.6,18.1L78,17.15z M57.35,0.7
		c1.6,0.4,3.167,0.867,4.7,1.4c2.267,0.566,4.066,1.033,5.4,1.4c0.967,0.267,1.783,0.533,2.45,0.8C69.8,4.5,69.684,4.883,69.55,5.45
		c-1.267,0.667-2.833,1.15-4.7,1.45c-0.333,0-2-0.1-5-0.3c-3.167-0.167-5.483-0.2-6.95-0.1c-0.9-0.167-1.85-0.067-2.85,0.3
		c-0.8,0.3-1.8,0.867-3,1.7c-1.3,0.833-2.367,1.433-3.2,1.8c-0.233,0.167-0.483,0.75-0.75,1.75c-0.3,0.967-0.45,1.684-0.45,2.15
		c0,0.667,0.05,1.4,0.15,2.2l0.85-0.75c2.467,3.767,4.983,8.367,7.55,13.8c2.367,4.966,3.883,8.667,4.55,11.1
		c-0.567-0.133-1.333-0.2-2.3-0.2c-1.434,0-2.483,0.267-3.15,0.8c-2.167-0.4-3.75,1.417-4.75,5.45c-0.667,2.733-1,5.95-1,9.65
		c0,0.5,0.034,1.117,0.1,1.85c-0.033-0.067-0.05-0.133-0.05-0.2c-0.6-2.967-0.9-5.183-0.9-6.65c0-1.433,0.333-2.95,1-4.55
		c0.667-1.6,1-3.434,1-5.5c0-2.833-1.2-5.55-3.6-8.15c-2.4-2.6-3.6-5.5-3.6-8.7c0.167-2.1,0.25-3.4,0.25-3.9
		c-1,4.466-1.5,7.033-1.5,7.7c0,2.434,0.883,5.3,2.65,8.6c1.733,3.3,2.6,5.8,2.6,7.5c0,2.333-0.817,4.833-2.45,7.5
		c-1.633,2.7-3.167,4.05-4.6,4.05c-1.833,0-3.233-0.383-4.2-1.15c-1.5-1.167-2.517-3.383-3.05-6.65l-0.35,1.2
		c-0.633,1.8,0.383,3.933,3.05,6.4c1.733,1.633,3.317,2.8,4.75,3.5c-2.033,0.066-3.25,0.633-3.65,1.7
		c-0.167,0.367-0.3,2.017-0.4,4.95c-0.567-1.733-2.467-3.517-5.7-5.35c-3.467-1.967-5.433-3.316-5.9-4.05
		c-1.2-1.934-1.483-4.75-0.85-8.45c0.667-3.9,0.45-6.983-0.65-9.25c0-1.533-0.217-3.283-0.65-5.25c-0.2-1.066-0.3-1.933-0.3-2.6
		c0-0.033,0-0.066,0-0.1c0.934-1.633,1.483-2.75,1.65-3.35c0.233-0.567,0.417-1.2,0.55-1.9l0.15-0.65c-0.1,0.4-0.25,0.867-0.45,1.4
		c0.5-2.967,0.667-6.583,0.5-10.85l-0.1,1.3C18.317,23.45,17.067,28,16.1,30.3c-0.767,0.467-1.533,0.817-2.3,1.05
		c0.133,0.433,0.333,0.8,0.6,1.1l1.55-0.3v2.15v10.3c-0.233,1.333-0.633,2.767-1.2,4.3c-0.367,0.8-1.317,1.467-2.85,2
		c-1.267,0.434-2.383,0.65-3.35,0.65c-2.2,0-3.583-0.333-4.15-1c-0.367-0.4-1.05-1.283-2.05-2.65l0.75,1.55
		c1.7,4.267,3.983,7.35,6.85,9.25c1.867,1.2,4.566,2.133,8.1,2.8c3.7,0.733,6.217,1.483,7.55,2.25c2.533,1.4,4.35,3.866,5.45,7.4
		l0.15,1.1c-0.167,1.066-0.117,2.1,0.15,3.1c0.1,1.167,0.467,2.117,1.1,2.851c0.633,0.533,0.95,0.816,0.95,0.85
		c0,0.867-0.683,2.617-2.05,5.25c-1.4,2.634-2.1,4.667-2.1,6.101c0,3.6,0.583,6.199,1.75,7.8c0.167,0.2,0.45,0.5,0.85,0.899
		c-0.533-0.833-0.8-1.683-0.8-2.55c0-2.7,0.583-4.783,1.75-6.25c1.034-1.3,2.35-1.95,3.95-1.95L40.1,88.7c-0.067,0-0.1,0.5-0.1,1.5
		c-2.433-1.167-4.517-0.967-6.25,0.6c-1.467,1.3-2.2,2.95-2.2,4.95c0,1.233,0.9,2.616,2.7,4.15c2.367,1.8,4.133,3.233,5.3,4.3
		c0.267-0.334,0.434-0.5,0.5-0.5c-0.066-1.7,0.233-2.867,0.9-3.5c0.7-0.7,1.05-1.667,1.05-2.9l-0.25-2
		c1.667,4.834,3.617,8.217,5.85,10.15c0.933,0.733,1.55,1.267,1.85,1.6c0.466,0.533,0.7,1.283,0.7,2.25c0,0.533-0.367,1.25-1.1,2.15
		c-0.733,0.899-1.1,1.934-1.1,3.1c0,2.167,2.3,4.084,6.9,5.75c4.566,1.667,6.85,3.25,6.85,4.75c0,0.733-0.083,1.267-0.25,1.601
		c-0.4,0.833-1.25,1.383-2.55,1.649l0.7,0.101c-2.434-0.2-5.15-0.75-8.15-1.65c-3.534-1.066-6.45-2.35-8.75-3.85
		c-0.867-1.567-1.3-3.101-1.3-4.601c0-0.967,0.35-2.116,1.05-3.45c0.667-1.333,1-2.216,1-2.649c0-1.3-0.517-2.717-1.55-4.25
		c-0.967-1.4-1.933-2.367-2.9-2.9l0.4,0.4c0.167,0.233,0.317,0.633,0.45,1.2c0.2,0.6,0.3,1.133,0.3,1.6c0,1.333-0.167,2.167-0.5,2.5
		c-0.4,0.4-1.367,0.6-2.9,0.6c-3.467,0-6.717-1.949-9.75-5.85c-1.733-2.233-4.383-5.884-7.95-10.95l-0.3-3.25l0.9,0.05
		c-0.033-0.633,0.333-1.816,1.1-3.55c0.533-1.267,0.95-2.149,1.25-2.649l3.15,4.649c0.8-2.6,1.6-4.616,2.4-6.05
		c0.467-0.866,0.7-1.65,0.7-2.35c0-1.601-0.7-2.767-2.1-3.5c-0.767-0.4-2.333-0.834-4.7-1.301c-2.2-0.399-3.75-0.899-4.65-1.5
		c-1.433-0.899-2.15-2.3-2.15-4.199c0-0.367,0.05-0.801,0.15-1.301c0.1-0.533,0.15-0.866,0.15-1c1.167-0.166,2-0.25,2.5-0.25
		c4.333,0.5,6.833,0.75,7.5,0.75c2,0,3-0.55,3-1.649c0-0.434-0.034-0.7-0.1-0.8c-0.067-0.101-0.217-0.284-0.45-0.551l-0.1-0.149
		c-0.933-0.767-1.9-1.2-2.9-1.3c-0.533-0.066-1.017-0.05-1.45,0.05c-0.2-0.067-1.017-0.117-2.45-0.15c-0.733,0-1.433,0-2.1,0
		c-1.367-0.3-2.467-0.6-3.3-0.9c-0.267-0.1-0.983-0.15-2.15-0.15c-0.6,0-1.3,0.133-2.1,0.4l-0.5-0.15l0.3,1.25
		c-0.566-1.767-2.85-6.217-6.85-13.35c-2.933-5.3-4.167-9.617-3.7-12.95c0.233,2.7,0.733,4.633,1.5,5.8
		c0.833,0.933,1.417,1.733,1.75,2.4c-1.567-6.066-0.5-9.767,3.2-11.1c2.067-0.466,3.567-0.816,4.5-1.05
		c1.667-0.367,2.684-1.017,3.05-1.95c-0.467-0.267-1.783-1-3.95-2.2c-2-1.067-3.233-1.6-3.7-1.6c-0.133,0-0.567,0.133-1.3,0.4
		c-0.867,0.333-1.633,0.667-2.3,1L1.4,30.3l1.15-2.8c1.967,0.7,3.833-0.367,5.6-3.2c2.2-3.533,3.883-5.533,5.05-6
		c2.066-0.867,3.95-2.983,5.65-6.35c1.433-2.867,3.35-4.3,5.75-4.3c1.433,0,2.517,0.1,3.25,0.3c0.533,0.133,1,0.383,1.4,0.75
		c-0.333,0.6-0.633,1.45-0.9,2.55c-0.3,1.067-0.45,1.917-0.45,2.55c0,0.833,0.383,1.784,1.15,2.85c4.3-5.1,8.3-8.733,12-10.9
		C45.183,3.283,50.617,1.6,57.35,0.7z M46.55,8.05L47.5,7.4c0.133-0.167,0.283-0.316,0.45-0.45
		C47.383,7.317,46.917,7.683,46.55,8.05z M95,39.8l-2.65-2.5c-0.466-0.566-0.866-1.183-1.199-1.85c0.133,0.233,0.666,0.883,1.6,1.95
		C93.684,38.433,94.434,39.233,95,39.8z M108.65,103.4c-0.167,0.166-0.817,0.783-1.95,1.85c0.128-0.164,0.262-0.331,0.399-0.5
		L108.65,103.4z M104.3,61.6c0.066,0.533,0.2,1.167,0.4,1.9c0.166,0.533,0.316,0.967,0.45,1.3c-0.267-0.533-0.483-1.133-0.65-1.8
		S104.267,61.867,104.3,61.6z M81.65,58.95c0-3.267,1.399-5.75,4.199-7.45c2.233-1.367,4.934-2.05,8.101-2.05
		c0.434,0,1.8,0.367,4.1,1.1l3.3,1.05c-4.3-0.4-8.216,0.583-11.75,2.95c-2.699,1.867-4.916,4.333-6.649,7.4
		c-0.467-0.567-0.733-0.917-0.8-1.05C81.816,60.3,81.65,59.65,81.65,58.95z M87.85,71.45c0.367,0.1,0.934,0.166,1.7,0.2h1.05h5.851
		l0.1,0.649l0.2,1.5c-3.167-0.666-7.366,1.467-12.6,6.4c-5.034,4.733-7.551,8.483-7.551,11.25c0,0.666,0.051,1.583,0.15,2.75
		c0.4,1.3,0.566,2.2,0.5,2.7l-0.9-0.45L74.9,95c-0.2-0.3-0.534-1.184-1-2.65l-0.15-3.1c0-1.1,0.25-2.184,0.75-3.25
		c0.434-1.033,1.083-2.066,1.95-3.1c2.899-3.467,4.8-6,5.7-7.601c0-1.066,0.566-1.967,1.699-2.7
		C84.95,71.833,86.283,71.45,87.85,71.45z M62.05,2.1l-6.3,1.7c-0.733,0.2-1.433,0.4-2.1,0.6c0.434-0.033,0.867-0.05,1.3-0.05
		c2.867,0,4.716-0.017,5.55-0.05C63.8,4.133,64.316,3.4,62.05,2.1z M48,65.05l-0.4-1.15c0-5.566,1.483-10.3,4.45-14.2
		c2.934-3.934,6.5-5.9,10.7-5.9c5.267,1.9,7.917,2.867,7.95,2.9c2.033,0.9,3.05,1.9,3.05,3c0,3.367-2.083,7.117-6.25,11.25
		c-4.3,4.267-8.35,6.399-12.15,6.399c-1.2,0-2.483-0.267-3.85-0.8C50.733,66.25,49.567,65.75,48,65.05z M24.75,26.05
		c-0.233,0.4-0.817,1.267-1.75,2.6c-0.867,1.434-1.367,2.8-1.5,4.1c-0.467,2.333-0.7,4.017-0.7,5.05c0,0.767,0.15,1.3,0.45,1.6
		l0.6-1.45c0.1,0.867,1.017,3.033,2.75,6.5l-0.1-1.4c-1.033-3.733-1.05-6.5-0.05-8.3c0.733-1.233,2.267-2.3,4.6-3.2
		c2.9-1.1,4.8-2.017,5.7-2.75c1.967-1.566,3.1-3.933,3.4-7.1l-1.7-0.5l0.45-0.45l-1,0.35l-1.15-0.35c0,0.167-0.083,0.367-0.25,0.6
		c-0.067,0.1-0.167,0.2-0.3,0.3c-1.733,0.6-3.333,1.133-4.8,1.6c-1.033,0.3-1.983,0.583-2.85,0.85
		C25.783,24.4,25.183,25.05,24.75,26.05z M39.5,59.6c-0.833-0.1-1.417-0.2-1.75-0.3c0.267-0.033,0.817-0.033,1.65,0
		c0.757,0.063,1.407,0.063,1.95,0c-0.928,0.136-1.312,0.236-1.15,0.3H39.5z M16.95,80.4c0.633,1.3,1.066,2.699,1.3,4.199
		c0,0.134,0.033,0.534,0.1,1.2c-0.1-0.633-0.233-1.3-0.4-2C17.65,82.434,17.317,81.3,16.95,80.4z M42.75,63.75
		c0.267,1.733,0.533,4.634,0.8,8.7c0.5,3.233,1.75,4.967,3.75,5.2c-0.333,0.5-0.816,1.267-1.45,2.3c-0.8,0.833-2.15,1.25-4.05,1.25
		c-1.1,0-2.983-0.9-5.65-2.7c0-4.066,0.65-7.533,1.95-10.4C39.367,65.2,40.917,63.75,42.75,63.75z M64.5,69.8
		c0-0.733,1.733-2.483,5.2-5.25c3.633-2.9,6.267-4.45,7.899-4.65c-0.767,1-2.5,3.383-5.199,7.15c-2.767,3.367-5.334,5.3-7.7,5.8
		C64.566,71.483,64.5,70.467,64.5,69.8z M44.8,58.6l1.9,5.45v0.15c-0.667-0.8-1.317-2.633-1.95-5.5L44.8,58.6z M63.7,128.85H64.1
		l0.5,0.051L63.7,128.85z M70.4,129l0.649-0.05l-1,0.1L70.4,129z M62.1,108.95c2.534,0,4.7-0.684,6.5-2.05
		c1.767-1.4,2.65-3.067,2.65-5c0.366-0.834,1.2-1.551,2.5-2.15c1.066-0.467,1.95-0.7,2.65-0.7c0.633,0,1.216,0.367,1.75,1.101
		c0.533,0.733,0.8,1.583,0.8,2.55c0,2.666-1.283,5.45-3.851,8.35c-2.133,2.4-3.517,3.601-4.149,3.601c-3.5,0-5.584-0.051-6.25-0.15
		c-3.367-0.533-5.05-1.95-5.05-4.25l0.1-1.1C60.45,109.017,61.233,108.95,62.1,108.95z M33.9,115.9l0.2,0.149l4.9,4.4
		C37.167,118.983,35.467,117.467,33.9,115.9z M80.7,125.4l0.3-0.051l-1.85,0.7L80.7,125.4z M85.5,124.3l-0.55,0.101l0.45-0.101H85.5
		z"/>
	<path style="fill-rule:evenodd;clip-rule:evenodd;fill:#827155;" d="M62.05,2.1c2.267,1.3,1.75,2.033-1.55,2.2
		c-0.833,0.034-2.683,0.05-5.55,0.05c-0.434,0-0.867,0.017-1.3,0.05c0.667-0.2,1.367-0.4,2.1-0.6L62.05,2.1z M46.55,8.05
		c0.367-0.367,0.833-0.733,1.4-1.1c-0.167,0.133-0.317,0.283-0.45,0.45L46.55,8.05z M57.35,0.7c-6.733,0.9-12.167,2.583-16.3,5.05
		c-3.7,2.167-7.7,5.8-12,10.9c-0.767-1.066-1.15-2.017-1.15-2.85c0-0.633,0.15-1.483,0.45-2.55c0.267-1.1,0.566-1.95,0.9-2.55
		c-0.4-0.367-0.867-0.617-1.4-0.75c-0.733-0.2-1.817-0.3-3.25-0.3c-2.4,0-4.317,1.434-5.75,4.3c-1.7,3.367-3.583,5.483-5.65,6.35
		c-1.167,0.467-2.85,2.467-5.05,6c-1.767,2.833-3.633,3.9-5.6,3.2l0.4-1.55c2.167-0.767,3.983-3.583,5.45-8.45
		c1.667-5.5,2.883-8.633,3.65-9.4c0.167,0.267,0.267,0.983,0.3,2.15l0.25,0.55c2.367-2.466,4.15-4.066,5.35-4.8
		c3.233-2.033,7.233-3.05,12-3.05c0.566,0,1.867,0.1,3.9,0.3c-0.6,0.567-1.2,1.483-1.8,2.75c-0.667,1.4-0.883,2.383-0.65,2.95
		l0.05,0.95c1.466-0.566,3.367-1.767,5.7-3.6c2.867-2.4,5.217-4.3,7.05-5.7l5.3-0.4c2.233-0.067,4.467,0.033,6.7,0.3l1.2,0.2H57.35z
		 M0.1,38.7l0.05-2.75c0.033-0.034,0.067-0.067,0.1-0.1c0.333-0.667,0.833-1.233,1.5-1.7c1.333-0.933,3.1-1.333,5.3-1.2
		c0.367-0.133,0.583-0.333,0.65-0.6c-0.5-0.434-1.15-0.85-1.95-1.25c-1.067-0.5-2.033-0.733-2.9-0.7c0.667-0.333,1.433-0.667,2.3-1
		c0.733-0.267,1.167-0.4,1.3-0.4c0.466,0,1.7,0.533,3.7,1.6c2.167,1.2,3.483,1.933,3.95,2.2c-0.367,0.934-1.383,1.583-3.05,1.95
		c-0.933,0.233-2.433,0.583-4.5,1.05c-3.7,1.333-4.767,5.034-3.2,11.1c-0.333-0.667-0.917-1.467-1.75-2.4
		C0.833,43.333,0.333,41.4,0.1,38.7z M18.4,64.55c-3.566-0.033-6.083-0.25-7.55-0.65c0.8-0.267,1.5-0.4,2.1-0.4
		c1.167,0,1.883,0.05,2.15,0.15C15.933,63.95,17.033,64.25,18.4,64.55z M18.75,91.3l-0.1-2c0.033-0.934-0.066-2.1-0.3-3.5
		c-0.067-0.666-0.1-1.066-0.1-1.2c-0.233-1.5-0.667-2.899-1.3-4.199c-0.333-0.801-0.667-1.434-1-1.9
		c-0.633-0.8-1.567-2.616-2.8-5.45c-1.367-3.166-2.117-5.45-2.25-6.85c0.4-0.7,0.833-1.167,1.3-1.4c0.367-0.2,0.883-0.3,1.55-0.3
		c1.533,0.667,3.033,1.233,4.5,1.7c2.833,0.934,5.883,0.899,9.15-0.101c0.233,0.267,0.383,0.45,0.45,0.551
		c0.066,0.1,0.1,0.366,0.1,0.8c0,1.1-1,1.649-3,1.649c-0.667,0-3.167-0.25-7.5-0.75c-0.5,0-1.333,0.084-2.5,0.25
		c0,0.134-0.05,0.467-0.15,1c-0.1,0.5-0.15,0.934-0.15,1.301c0,1.899,0.717,3.3,2.15,4.199c0.9,0.601,2.45,1.101,4.65,1.5
		c2.367,0.467,3.933,0.9,4.7,1.301c1.4,0.733,2.1,1.899,2.1,3.5c0,0.699-0.233,1.483-0.7,2.35c-0.8,1.434-1.6,3.45-2.4,6.05
		L22,85.15c-0.3,0.5-0.717,1.383-1.25,2.649c-0.767,1.733-1.133,2.917-1.1,3.55L18.75,91.3z M40,90.2
		c0.367,0.533,0.733,1.483,1.1,2.85l0.65,2.25l0.25,2c0,1.233-0.35,2.2-1.05,2.9c-0.667,0.633-0.967,1.8-0.9,3.5
		c-0.066,0-0.233,0.166-0.5,0.5c-1.167-1.066-2.933-2.5-5.3-4.3c-1.8-1.534-2.7-2.917-2.7-4.15c0-2,0.733-3.65,2.2-4.95
		C35.483,89.233,37.567,89.033,40,90.2z M31.35,75.35c-0.267-1-0.317-2.033-0.15-3.1l0.2,1.25c1-0.634,1.65-1.616,1.95-2.95
		c0-0.033,0.167-1.316,0.5-3.85c0.433-3.467,2.316-5.833,5.65-7.1h0.7c0.7,0,1.3,0.417,1.8,1.25c0.5,0.8,0.75,1.767,0.75,2.9
		c-1.833,0-3.383,1.45-4.65,4.35c-1.3,2.867-1.95,6.334-1.95,10.4c0.1,1,0.15,1.55,0.15,1.65l-0.85-0.45
		c-0.267-0.2-0.8-0.667-1.6-1.4c-0.033-0.033-0.067-0.066-0.1-0.1c-0.9-0.867-1.383-1.367-1.45-1.5
		C32,76.333,31.683,75.884,31.35,75.35z M50.3,41.15c0.667-0.533,1.717-0.8,3.15-0.8c0.966,0,1.733,0.066,2.3,0.2L50.3,41.15z
		 M44.8,58.6c0-4.967,1.1-9.2,3.3-12.7c2.167-3.533,4.783-5.3,7.85-5.3c3.933,1.5,6.166,2.333,6.7,2.5l3.55,1.4l-1.25-0.35
		l-2.2-0.35c-4.2,0-7.767,1.967-10.7,5.9c-2.966,3.9-4.45,8.633-4.45,14.2c-0.3,0.3-0.417,0.533-0.35,0.7
		c0,0.1-0.017,0.183-0.05,0.25l-0.5-0.8L44.8,58.6z M21.5,32.75c0.133-1.3,0.633-2.667,1.5-4.1c0.933-1.333,1.517-2.2,1.75-2.6
		L21.5,32.75z M21.85,37.95c0-4.633,1.433-8.583,4.3-11.85c1-1.167,2.083-2.117,3.25-2.85c1.467-0.467,3.067-1,4.8-1.6
		c0.133-0.1,0.233-0.2,0.3-0.3c0.167-0.233,0.25-0.434,0.25-0.6l1.15,0.35l-0.45,0.15c0.333-0.033,0.667-0.05,1-0.05l1.7,0.5
		c-0.3,3.167-1.433,5.533-3.4,7.1c-0.9,0.733-2.8,1.65-5.7,2.75c-2.333,0.9-3.867,1.967-4.6,3.2c-1,1.8-0.983,4.567,0.05,8.3
		l0.1,1.4C22.867,40.983,21.95,38.817,21.85,37.95z M68.85,103.65c0.534-0.5,1.067-0.934,1.601-1.301
		c0.467-0.333,0.733-0.483,0.8-0.449c0,1.933-0.884,3.6-2.65,5c-1.8,1.366-3.966,2.05-6.5,2.05c-0.5-0.4-0.866-0.8-1.1-1.2
		c1.533-0.1,2.767-0.316,3.7-0.65c1.333-0.699,2.1-1.149,2.3-1.35C67.5,105.217,68.116,104.517,68.85,103.65z"/>
	<path style="fill-rule:evenodd;clip-rule:evenodd;fill:#928164;" d="M0.15,35.95L1.4,30.3l1.45,0.1c0.867-0.033,1.833,0.2,2.9,0.7
		c0.8,0.4,1.45,0.816,1.95,1.25c-0.067,0.267-0.284,0.467-0.65,0.6c-2.2-0.133-3.966,0.267-5.3,1.2
		c-0.667,0.467-1.167,1.033-1.5,1.7C0.217,35.883,0.183,35.917,0.15,35.95z M10.85,63.9c1.467,0.4,3.983,0.617,7.55,0.65
		c0.667,0,1.367,0,2.1,0c1.433,0.034,2.25,0.083,2.45,0.15c0.433-0.1,0.917-0.117,1.45-0.05c1,0.1,1.967,0.534,2.9,1.3l0.1,0.149
		c-3.267,1-6.316,1.034-9.15,0.101c-1.467-0.467-2.967-1.033-4.5-1.7c-0.667,0-1.183,0.1-1.55,0.3c-0.467,0.233-0.9,0.7-1.3,1.4
		L10.65,65l-0.3-1.25L10.85,63.9z M39.5,59.6c-3.333,1.267-5.217,3.633-5.65,7.1c-0.333,2.533-0.5,3.816-0.5,3.85
		c-0.3,1.334-0.95,2.316-1.95,2.95l-0.2-1.25l-0.15-1.1c0.233-1.601,0.417-3.4,0.55-5.4c0.1-2.933,0.233-4.583,0.4-4.95
		c0.4-1.066,1.617-1.633,3.65-1.7l2.1,0.2C38.083,59.4,38.667,59.5,39.5,59.6z M44.8,58.6l-0.05,0.1l-0.05,0.1
		c-0.034-0.233-0.05-0.466-0.05-0.7c-0.066-0.733-0.1-1.35-0.1-1.85c0-3.7,0.333-6.917,1-9.65c1-4.033,2.583-5.85,4.75-5.45
		l5.45-0.6l0.6-0.05l-0.4,0.1c-3.067,0-5.684,1.767-7.85,5.3C45.9,49.4,44.8,53.633,44.8,58.6z M2.95,25.95
		c0.033-7.667,2.8-14.083,8.3-19.25C16.017,2.233,20.983,0,26.15,0c2.9,0.367,5.45,0.667,7.65,0.9c4.233,0.434,7.7,0.333,10.4-0.3
		c-1.833,1.4-4.184,3.3-7.05,5.7c-2.333,1.833-4.233,3.034-5.7,3.6L31.4,8.95C31.167,8.383,31.383,7.4,32.05,6
		c0.6-1.267,1.2-2.183,1.8-2.75c-2.033-0.2-3.333-0.3-3.9-0.3c-4.767,0-8.767,1.017-12,3.05c-1.2,0.733-2.983,2.333-5.35,4.8
		l-0.25-0.55c-0.033-1.167-0.133-1.883-0.3-2.15c-0.767,0.767-1.983,3.9-3.65,9.4C6.933,22.367,5.117,25.183,2.95,25.95z
		 M29.4,23.25c-1.167,0.733-2.25,1.683-3.25,2.85c-2.867,3.267-4.3,7.217-4.3,11.85l-0.6,1.45c-0.3-0.3-0.45-0.833-0.45-1.6
		c0-1.033,0.233-2.716,0.7-5.05l3.25-6.7c0.433-1,1.033-1.65,1.8-1.95C27.417,23.833,28.367,23.55,29.4,23.25z M36.45,21.2
		c-0.333,0-0.667,0.017-1,0.05l0.45-0.15l1-0.35L36.45,21.2z"/>
</g>
</svg>
