<?xml version="1.0" encoding="iso-8859-1"?>
<!-- Generator: Adobe Illustrator 15.1.0, SVG Export Plug-In . SVG Version: 6.00 Build 0)  -->
<!DOCTYPE svg PUBLIC "-//W3C//DTD SVG 1.1//EN" "http://www.w3.org/Graphics/SVG/1.1/DTD/svg11.dtd">
<svg version="1.1" id="Layer_1" xmlns="http://www.w3.org/2000/svg" xmlns:xlink="http://www.w3.org/1999/xlink" x="0px" y="0px"
	 width="55.15px" height="47px" viewBox="0 0 55.15 47" style="enable-background:new 0 0 55.15 47;" xml:space="preserve">
<g>
	<path style="fill-rule:evenodd;clip-rule:evenodd;fill:#6D7247;" d="M44.4,6.25c0,0.133,0,0.283,0,0.45
		c0.123-0.093,0.29-0.16,0.5-0.2v0.3c-0.134,0.034-0.284,0.133-0.45,0.3c0.166,0.133,0.467,0.283,0.899,0.45
		c0.334,0.2,0.467,0.467,0.4,0.8C45.684,8.683,45.434,8.867,45,8.9c-0.634,0-0.983,0.017-1.05,0.05
		c0.866,0.367,1.35,0.583,1.45,0.65v0.1L45.3,9.85c-0.6,0.1-0.983,0.083-1.149-0.05c0.1,0.2,0.116,0.55,0.05,1.05
		c-1.033,0.133-1.634,0.05-1.8-0.25v0.9c-0.434,0-0.75,0.017-0.95,0.05c-0.101,0.633-0.533,1.034-1.3,1.2
		c-0.134-0.133-0.2-0.25-0.2-0.35l-0.05,0.4c-0.058,0.029-0.124,0.045-0.2,0.05h0.2c-0.067,0.367-0.15,0.6-0.25,0.7
		c-0.167,0.167-0.45,0.217-0.851,0.15c-0.366-0.067-0.583-0.25-0.649-0.55c-0.034-0.367-0.101-0.683-0.2-0.95
		c-0.533,0.767-1.267,1.083-2.2,0.95c-0.066-0.233-0.033-0.533,0.1-0.9c0.233-0.5,0.351-0.783,0.351-0.85
		c-0.601,0.2-1.3,0.233-2.101,0.1c-0.1-0.233-0.017-0.467,0.25-0.7c0.334-0.3,0.517-0.517,0.551-0.65
		c0.1-0.333-0.034-0.517-0.4-0.55c-0.467,0.066-0.816,0.083-1.05,0.05c-0.101-0.267-0.033-0.566,0.2-0.9
		c0.233-0.367,0.316-0.667,0.25-0.9H33.1c-0.033-0.233,0.101-0.5,0.4-0.8c0.366-0.3,0.6-0.533,0.7-0.7h-0.25
		c-0.2-0.567,0.116-0.85,0.95-0.85c-0.467-0.067-0.733-0.2-0.801-0.4C33.7,5.067,33.384,5.117,33.15,5.25
		c0.267-0.167,0.616-0.217,1.05-0.15c0.467,0.1,0.767,0.3,0.899,0.6c0-0.067,0-0.133,0-0.2l0.45,0.05c0,0.167-0.116,0.4-0.35,0.7
		c-0.267,0.267-0.351,0.5-0.25,0.7c0.166,0.066,0.416,0.1,0.75,0.1c-0.134,0.133-0.4,0.4-0.8,0.8c-0.334,0.4-0.45,0.733-0.351,1
		c0.566,0.066,1.101-0.033,1.601-0.3c0.066,0.133,0.066,0.383,0,0.75c-0.067,0.267,0.017,0.467,0.25,0.6
		c0.566,0.367,0.949,0.033,1.149-1c0.101,0.5,0.217,0.783,0.351,0.85c0.133,0.1,0.466,0.133,1,0.1V8.9
		c0.199,0.2,0.55,0.367,1.05,0.5c0.533,0.133,0.899,0.117,1.1-0.05c0.233-0.233,0.267-0.467,0.101-0.7
		c-0.134-0.167-0.317-0.267-0.551-0.3c0.367,0,1.067-0.067,2.101-0.2c0.133-0.533-0.05-0.883-0.55-1.05
		C41.483,6.933,41,6.767,40.7,6.6c0.5-0.3,0.783-0.6,0.85-0.9C41.616,5.333,41.434,5.1,41,5c-0.566-0.033-0.967-0.1-1.2-0.2
		c0.367-0.267,0.517-0.783,0.45-1.55c-0.467,0.1-0.85,0.267-1.15,0.5c0.067-0.067,0.15-0.133,0.25-0.2c0.534-0.3,1.101-0.4,1.7-0.3
		v1.2c0.8-0.067,1.45-0.067,1.95,0L41.75,4.5c-0.533,0.067-0.85,0.133-0.95,0.2c0.167,0.167,0.566,0.233,1.2,0.2
		c0.6-0.033,1,0.067,1.2,0.3c0.166,0.2,0.25,0.517,0.25,0.95C43.583,6.183,43.9,6.217,44.4,6.25z M43.65,4.65
		c0.066,0,0.116,0.017,0.149,0.05c0.3,0.167,0.483,0.533,0.55,1.1C44.25,5.233,44.017,4.85,43.65,4.65z M49.15,8.25
		c0.066,0.1,0.116,0.2,0.149,0.3c0.066,0.133,0.117,0.5,0.15,1.1C49.384,8.95,49.283,8.483,49.15,8.25z M39.9,12.85l1.6-0.05
		l0.95-0.15l-0.05,0.7c-0.301,0.066-0.667,0.066-1.101,0c-0.467-0.1-0.816-0.267-1.05-0.5H39.9z M48.4,11.65l-0.2,0.95l0.1-0.6
		L48.4,11.65z M52.7,14.4l-0.65-0.1H51.8C51.967,14.267,52.267,14.3,52.7,14.4z M46.1,19.55c-0.033,0.233-0.149,0.45-0.35,0.65
		c0.2-0.233,0.316-0.467,0.35-0.7V19.55z M44.6,21.7c-0.03,0.151-0.047,0.293-0.05,0.425c0-0.092,0-0.167,0-0.225
		C44.55,21.833,44.566,21.767,44.6,21.7z M46.25,17.5l0.05-0.2l0.101-0.35l0.149-0.4L46.25,17.5z M35.2,23.1
		c0.1-0.033,0.217-0.05,0.35-0.05l1.101-0.2c-0.2,0.066-0.367,0.117-0.5,0.15c-0.301,0.033-0.551,0.067-0.75,0.1
		C35.333,23.1,35.267,23.1,35.2,23.1z M35.75,15.55c0.3,0.067,0.5,0.167,0.6,0.3c-0.333,0.267-0.383,0.483-0.149,0.65
		c0.2,0.133,0.483,0.2,0.85,0.2c0.033,0.133,0,0.333-0.1,0.6c-0.066,0.233-0.066,0.417,0,0.55c0.1,0.167,0.25,0.233,0.45,0.2
		c0.199-0.066,0.366-0.167,0.5-0.3c0,0.367,0.017,0.6,0.05,0.7c0.066,0.233,0.233,0.367,0.5,0.4c0.399,0.1,0.684-0.083,0.85-0.55
		c0.233-0.7,0.367-1.066,0.4-1.1c0.1,0.233,0.283,0.35,0.55,0.35c0.233-0.033,0.366-0.15,0.4-0.35c0.066-0.4,0.1-0.617,0.1-0.65
		c0-0.033,0.15-0.316,0.45-0.85c0.166-0.333,0.233-0.667,0.2-1l-0.851,0.5c0.267-0.267,0.25-0.467-0.05-0.6
		c-0.134-0.033-0.25-0.05-0.35-0.05c0.1-0.033,0.283-0.05,0.55-0.05c-0.3-0.033-0.467-0.183-0.5-0.45c0.5-0.1,1.283-0.167,2.35-0.2
		c-0.3-0.367-0.217-0.583,0.25-0.65c0.267-0.034,0.634-0.05,1.101-0.05V12.7c0.166-0.034,0.433-0.05,0.8-0.05
		c-0.367,0.333-0.517,0.617-0.45,0.85c0.033,0.167,0.184,0.317,0.45,0.45c0.3,0.167,0.467,0.3,0.5,0.4
		c0.233,0.467,0.184,0.816-0.15,1.05c-0.133,0.133-0.316,0.217-0.55,0.25c0.066,0,0.134,0.017,0.2,0.05
		c0.066,0.433,0.066,0.867,0,1.3c-0.3,0.133-0.517,0.033-0.65-0.3c0.066,0.367,0.066,0.75,0,1.15c-0.533,0.033-0.883,0.033-1.05,0
		c-0.333-0.067-0.583-0.283-0.75-0.65c0,0.033,0.017,0.4,0.05,1.1c0.033,0.534,0,0.833-0.1,0.9c-0.101,0.1-0.25,0.117-0.45,0.05
		c-0.134-0.067-0.25-0.167-0.35-0.3v0.85c0,0.434-0.067,0.833-0.2,1.2c-0.667,0.1-1.267-0.05-1.8-0.45c0.066,0.4-0.267,0.583-1,0.55
		c-0.7-0.033-1.034-0.283-1-0.75v-0.1c-0.2,0.133-0.584,0.167-1.15,0.1c-0.066-0.434-0.05-0.8,0.05-1.1l0.05-0.1L35.95,19H35.4
		v-0.45l0.149-0.95l-0.399-0.1l0.1-1.3l-0.55-0.65c0.233-0.233,0.583-0.2,1.05,0.1V15.55z M36.8,14.9
		c-0.267-0.1-0.533-0.133-0.8-0.1c0.1-0.1,0.233-0.15,0.4-0.15C36.6,14.717,36.733,14.8,36.8,14.9z M35.1,5.3
		c-0.033-0.867,0.534-1.433,1.7-1.7c1.267-0.267,1.834-0.033,1.7,0.7c0-0.233-0.1-0.417-0.3-0.55c-0.267-0.2-0.634-0.267-1.101-0.2
		L37.25,4l-0.7-0.3c-0.533,0.167-0.934,0.433-1.2,0.8l0.301,0.35H35.2C35.134,4.983,35.1,5.133,35.1,5.3z M30.85,8.7
		c0.2-0.1,0.367-0.233,0.5-0.4c0.065-0.097,0.099-0.18,0.101-0.25C31.447,8.351,31.247,8.567,30.85,8.7z M31.25,7.6
		c0.033,0,0.066,0,0.1,0v0.15L31.25,7.6z M29.65,7.2c0.366-0.434,0.5-0.817,0.399-1.15c0.101,0.267,0.066,0.517-0.1,0.75
		c-0.101,0.167-0.283,0.417-0.55,0.75L29.65,7.2z M27.4,8.35l-0.45,0.3c0.233,0,0.5,0.1,0.8,0.3c0.3,0.2,0.5,0.316,0.6,0.35
		c0.434,0.6,0.567,1.1,0.4,1.5c-0.134,0.3-0.417,0.483-0.85,0.55c-0.5,0-0.867,0.017-1.101,0.05c0.034,0.133,0.133,0.467,0.3,1
		c0.101,0.5,0.084,0.833-0.05,1c-0.4,0.333-1.117,0.217-2.15-0.35c0,0.133,0.017,0.367,0.05,0.7c-0.034,0.267-0.167,0.417-0.4,0.45
		L24.4,14c0,1.033-0.167,1.65-0.5,1.85c-0.267,0.167-0.583,0.083-0.95-0.25c-0.3-0.267-0.5-0.55-0.6-0.85
		c0.066,0.633,0.083,1.1,0.05,1.4c-0.467,0.2-0.883,0.1-1.25-0.3c-0.333-0.567-0.583-0.967-0.75-1.2
		c-0.167,0.167-0.217,0.517-0.15,1.05c0.067,0.5,0,0.833-0.2,1c-0.133,0.1-0.433,0.117-0.9,0.05s-0.767-0.15-0.9-0.25
		c-0.267-0.233-0.433-0.55-0.5-0.95c-0.067,0.833-0.45,1.317-1.15,1.45c-0.7,0.133-0.983-0.35-0.85-1.45
		c-0.067,0.434-0.367,0.784-0.9,1.05c-0.5,0.233-0.983,0.316-1.45,0.25c-0.1-0.3-0.017-0.7,0.25-1.2c0.3-0.633,0.45-1.05,0.45-1.25
		c-0.333,0.333-0.817,0.6-1.45,0.8c-0.667,0.233-1.2,0.25-1.6,0.05c0.133-0.433,0.233-0.783,0.3-1.05c0.133-0.467,0.083-0.8-0.15-1
		c-0.067-0.067-0.233-0.083-0.5-0.05c-0.267,0.033-0.45,0.033-0.55,0c0-0.2,0.117-0.4,0.35-0.6c-1.333,0.267-2.583,0.317-3.75,0.15
		c0.233-0.5,0.617-0.833,1.15-1c-0.367,0.1-0.65,0.2-0.85,0.3c-0.433,0.133-0.7,0.3-0.8,0.5l-0.6-0.4c-0.1,0.1-0.167,0.2-0.2,0.3
		c0.1-0.333,0.417-0.583,0.95-0.75c0.267-0.066,0.483-0.083,0.65-0.05c-0.033-0.167-0.017-0.333,0.05-0.5
		c0.4-0.067,0.683,0,0.85,0.2c0.066,0.1,0.117,0.2,0.15,0.3v-0.2c0.7-0.033,1.4-0.033,2.1,0c-0.967-0.667-1.733-1.233-2.3-1.7
		c-1-0.833-1.066-1.55-0.2-2.15c0.267,0.133,0.716,0.2,1.35,0.2c0.5,0,0.934,0.183,1.3,0.55c0.433-0.233,0.75-0.2,0.95,0.1
		c0.067,0.067,0.117,0.15,0.15,0.25c0.033-0.1,0.117-0.2,0.25-0.3c0.433,0.066,0.8,0.233,1.1,0.5c0.133,0.133,0.233,0.267,0.3,0.4
		c-0.033-0.5-0.017-0.867,0.05-1.1c0.133,0.133,0.217,0.283,0.25,0.45c0-1.533,0.017-2.4,0.05-2.6
		c0.367-0.133,1.017-0.083,1.95,0.15c0.067-0.533,0.05-1.017-0.05-1.45c-0.5,0.066-0.883-0.05-1.15-0.35
		c-0.233-0.3-0.267-0.65-0.1-1.05c0.5-0.167,0.833-0.15,1,0.05c-0.033-0.4,0.066-0.8,0.3-1.2c0.367-0.566,0.7-0.5,1,0.2v-1.2
		c0.633-0.167,1.233-0.083,1.8,0.25c0.8,0.467,1.3,0.717,1.5,0.75c-0.067-0.5,0.1-0.833,0.5-1c0.433-0.2,0.85-0.066,1.25,0.4
		C21.317,0.783,21.4,0.267,21.7,0c0.9,0.767,1.8,2.033,2.7,3.8l1-0.25c0-0.4,0.167-0.7,0.5-0.9c0.333-0.233,0.717-0.283,1.15-0.15
		c0.033,0.133,0.033,0.267,0,0.4c1.367-0.7,2.167-0.367,2.4,1c0.2,1.133-0.05,1.817-0.75,2.05H28.6c0.2-0.133,0.384-0.333,0.551-0.6
		L28.4,5.5l0.449-0.1L28.4,4.9v0.6c-0.5,0.1-0.95,0.3-1.351,0.6c-1.167,0.767-1.867,1.267-2.1,1.5L24.6,8c0.4-0.2,1-0.3,1.8-0.3
		l0.8,0.05c-0.066,0.067-0.2,0.1-0.4,0.1L27.4,8.35z M8.05,21.55c-0.767-0.066-1.1-0.333-1-0.8c-0.3,0.4-0.783,0.533-1.45,0.4
		c0-0.066,0.183-0.316,0.55-0.75c-0.367,0-0.667-0.017-0.9-0.05c-0.433-0.067-0.567-0.25-0.4-0.55c-0.467-0.066-0.867-0.133-1.2-0.2
		c-0.566-0.133-0.617-0.35-0.15-0.65c-0.567-0.067-0.917-0.167-1.05-0.3s-0.217-0.267-0.25-0.4C2.2,18.083,2.317,18,2.55,18L2,17.7
		c0.067,0,0.133,0,0.2,0c1.1,0.033,1.733,0.233,1.9,0.6c-0.267-0.667-0.033-1.066,0.7-1.2c0.1-0.033,0.184-0.05,0.25-0.05
		c0.267-0.033,0.467-0.017,0.6,0.05c0.133-0.133,0.367-0.167,0.7-0.1l0.05-0.45c0.1,0,0.25,0,0.45,0h0.6
		c0.3,0,0.683,0.017,1.15,0.05h0.1c0.566-0.033,0.917-0.167,1.05-0.4h0.3c0.133,0.433,0.05,0.716-0.25,0.85
		c0.367-0.133,0.617-0.133,0.75,0c0.133,0.1,0.2,0.217,0.2,0.35v0.3c0,1.5-0.2,2.05-0.6,1.65c0.167,0.367,0.184,0.8,0.05,1.3
		c-0.233,0.033-0.434,0.167-0.6,0.4c-0.267,0.267-0.533,0.434-0.8,0.5H8.05z M20.5,18.8c-0.133-0.133-0.033-0.333,0.3-0.6
		c0.367-0.233,0.967-0.35,1.8-0.35c-0.067,0.3-0.4,0.5-1,0.6c-0.5,0.066-0.7,0.2-0.6,0.4L20.5,18.8z M19.9,19.05l-0.05,0.15
		c0.033,0.367,0.316,0.466,0.85,0.3c-0.967,0.6-1.083,0.983-0.35,1.15c0.733,0.2,1.233-0.05,1.5-0.75l0.05,0.75
		c0.5,0.167,0.883,0.1,1.15-0.2c0.133-0.133,0.3-0.483,0.5-1.05c0.133,0.4,0.367,0.55,0.7,0.45c0.167-0.033,0.267-0.133,0.3-0.3
		c0.034-0.2,0.05-0.367,0.05-0.5c0.5,0.267,0.867,0.233,1.1-0.1c0.2-0.267,0.267-0.684,0.2-1.25l-0.65-0.2
		c-0.367,0-0.633,0.017-0.8,0.05l-0.05,0.3l-0.7-0.25c-0.034-0.267,0.117-0.434,0.45-0.5c0.033,0,0.333-0.033,0.9-0.1
		c-0.066-0.4,0.184-0.717,0.75-0.95c0.8-0.3,1.217-0.466,1.25-0.5c-0.433-0.066-0.65-0.233-0.65-0.5h0.3
		c0.733,0.167,1.066,0.367,1,0.6c-0.066,0.033-0.15,0.083-0.25,0.15h0.05c-0.066,0.034-0.134,0.067-0.2,0.1
		c0.101,0.067,0.55,0.133,1.351,0.2c0.6,0.066,0.916,0.316,0.949,0.75c0.034,0.433-0.233,0.733-0.8,0.9c-0.1,0-0.467,0.033-1.1,0.1
		c0.467,0,0.7,0.283,0.7,0.85c0,0.367-0.101,0.583-0.301,0.65c-0.267,0-0.517,0-0.75,0c0.233,0.633,0.134,1-0.3,1.1
		c-0.633,0-1.117,0.033-1.45,0.1c-0.067,0.233-0.117,0.617-0.15,1.15c-0.067,0.367-0.367,0.483-0.9,0.35
		c-0.466-0.133-0.733-0.417-0.8-0.85c0.033,0.533-0.217,0.867-0.75,1c-0.533,0.1-0.833-0.117-0.9-0.65c0,0.7-0.217,1.083-0.65,1.15
		c-0.534,0.066-0.883-0.083-1.05-0.45c0.133,0.533-0.066,0.85-0.6,0.95c-0.533,0.066-0.783-0.167-0.75-0.7
		c-0.2,0.433-0.333,0.7-0.4,0.8c-0.233,0.3-0.483,0.317-0.75,0.05c-0.2-0.167-0.25-0.434-0.15-0.8c0.133-0.4,0.217-0.667,0.25-0.8
		c-0.267-0.1-0.467-0.133-0.6-0.1V21.4l-0.1,0.65L17.05,22l0.05-0.3l0.3-0.55c0-0.233,0.05-0.45,0.15-0.65l-0.1,0.6
		c0.133-0.1,0.316-0.15,0.55-0.15c0.3-0.034,0.533-0.083,0.7-0.15l0.05-1.1l0.45-0.05C19.067,19.317,19.3,19.117,19.9,19.05z
		 M30.8,11.85l0.25-0.15l-0.6,0.4L30.8,11.85z M26.85,4.7c0.3-0.233,0.417-0.5,0.35-0.8c-0.2-0.066-0.35-0.083-0.45-0.05h-1
		c-0.6-0.033-1.083,0.133-1.45,0.5c-0.367,0.4-0.216,0.617,0.45,0.65c-0.733,0.067-1.133,0.233-1.2,0.5
		c-0.066,0.3,0.067,0.483,0.4,0.55c0.267,0.067,0.533,0.067,0.8,0c0.367-0.1,0.8-0.4,1.3-0.9C26.45,4.95,26.717,4.8,26.85,4.7z
		 M21.75,4.55c0.467-0.267,0.583-0.617,0.35-1.05c-0.333-0.633-1.167-0.583-2.5,0.15L19.55,3.2c-0.566-0.067-1,0.167-1.3,0.7
		c0-0.066-0.017-0.133-0.05-0.2c-0.1,0-0.25-0.067-0.45-0.2L17.25,3c-0.667-0.033-0.983,0.133-0.95,0.5
		c0.034,0.367,0.333,0.483,0.9,0.35c-0.167,0.066-0.284,0.183-0.35,0.35c-0.1,0.3-0.15,0.466-0.15,0.5
		c-0.067,0.133-0.2,0.283-0.4,0.45c-0.1,0.133-0.117,0.317-0.05,0.55c-0.367,0.167-0.617,0.417-0.75,0.75
		c-0.167,0.333-0.067,0.633,0.3,0.9c-0.933,0-1.533,0.167-1.8,0.5c0.167,0.233,0.633,0.35,1.4,0.35c0,0.066-0.017,0.367-0.05,0.9
		c-0.067,0.433-0.033,0.717,0.1,0.85c0.3,0.333,0.683,0.383,1.15,0.15c0.4-0.2,0.617-0.483,0.65-0.85l-0.05,0.8
		c0,0.367,0.133,0.633,0.4,0.8c0.667,0.367,1.083,0.2,1.25-0.5c0.033-0.233,0.05-0.817,0.05-1.75c0.033,0.233,0.15,0.45,0.35,0.65
		c0.2,0.233,0.4,0.333,0.6,0.3c0.267-0.066,0.4-0.216,0.4-0.45c0-0.333,0-0.583,0-0.75c0.133,0,0.367,0.017,0.7,0.05
		c0.333,0,0.566-0.066,0.7-0.2s0.233-0.317,0.3-0.55C22.017,7.383,22.067,7.167,22.1,7l-0.5-0.35c0.467-0.367,0.717-0.783,0.75-1.25
		C22.383,4.967,22.183,4.683,21.75,4.55z M21.95,9.85c-0.2,0.066-0.267,0.333-0.2,0.8c-0.733,0.033-1.233,0.083-1.5,0.15
		c-0.433,0.133-0.6,0.517-0.5,1.15c-0.567-0.467-0.85,0-0.85,1.4c-0.6-0.367-1.15-0.684-1.65-0.95
		c-0.933-0.467-1.383-0.283-1.35,0.55c0.367,0.1,1.184,0.3,2.45,0.6c1.1,0.2,1.8,0,2.1-0.6c-0.133,0.4,0.1,0.55,0.7,0.45
		c0.434-0.066,0.75-0.467,0.95-1.2c0.133,0.233,0.4,0.367,0.8,0.4c0.1,0,0.434-0.033,1-0.1v-1.1c0.067,0,0.45,0,1.15,0
		c0.4,0,0.633-0.217,0.7-0.65c0.067-0.3,0.067-0.583,0-0.85c-0.067-0.3-0.233-0.433-0.5-0.4L23.55,9c-0.566,0-0.9,0.05-1,0.15
		c-0.167,0.167-0.216,0.417-0.15,0.75C22.267,9.767,22.117,9.75,21.95,9.85z M18,23.75c-0.1,0-0.183-0.017-0.25-0.05
		c-0.133-0.034-0.217-0.1-0.25-0.2c-0.1-0.1-0.15-0.25-0.15-0.45V23c0-0.267,0.066-0.5,0.2-0.7c-0.167,0-0.35-0.033-0.55-0.1
		c0.2,0.033,0.433,0.033,0.7,0c-0.2,0.2-0.3,0.45-0.3,0.75c-0.033,0.267,0.05,0.483,0.25,0.65C17.717,23.667,17.833,23.717,18,23.75
		z M18.85,25.1c-0.063-0.01-0.13-0.026-0.2-0.05c-0.767-0.166-0.833-0.633-0.2-1.4l-0.05,0.1c-0.566,0.7-0.467,1.134,0.3,1.3
		C18.746,25.073,18.796,25.09,18.85,25.1z M31.35,15.55l0.2,0.55c-0.1-0.033-0.149-0.1-0.149-0.2L31.35,15.55z M27.25,24.6
		c-0.3-0.133-0.567-0.35-0.8-0.649l0.1,0.1c0.434,0.467,0.917,0.684,1.45,0.65c-0.2,0.033-0.384,0.033-0.55,0
		c-0.033-0.033-0.066-0.05-0.101-0.05C27.316,24.616,27.283,24.6,27.25,24.6z M26.4,24.15c-0.133,0.399-0.45,0.699-0.95,0.899
		c-0.144,0.048-0.277,0.081-0.4,0.101c0.062-0.013,0.128-0.03,0.2-0.051c0.467-0.133,0.817-0.399,1.05-0.8L26.4,24.15z M29.4,24.05
		C29.3,24.15,29.2,24.233,29.1,24.3c-0.071,0.036-0.138,0.069-0.199,0.101C29.059,24.303,29.225,24.187,29.4,24.05z M33.05,21.55
		c-0.1,0.034-0.2,0.067-0.3,0.1c-0.233,0.033-0.45,0.017-0.65-0.05C32.4,21.667,32.717,21.65,33.05,21.55z M10.25,9
		c-0.133-0.467-0.367-0.683-0.7-0.65l0.2,0.3c-0.2-0.267-0.467-0.383-0.8-0.35c-0.4,0.034-0.5,0.233-0.3,0.6
		C8.15,9.033,7.833,9.183,7.7,9.35C7.833,9.583,8.267,9.7,9,9.7c-0.067,0.1-0.1,0.25-0.1,0.45c0.2,0.1,0.533,0.05,1-0.15
		c-0.066,0.233,0,0.4,0.2,0.5c0.167,0.1,0.367,0.1,0.6,0v-0.4c0.233,0.233,0.633,0.316,1.2,0.25c0.133-0.567-0.017-0.85-0.45-0.85
		c0.2-0.1,0.35-0.15,0.45-0.15c0.133-0.434-0.017-0.65-0.45-0.65C10.917,8.633,10.517,8.733,10.25,9z M10.5,12.55
		c1.5-0.3,2.617-0.683,3.35-1.15c-0.333-0.066-0.867,0.017-1.6,0.25C11.45,11.883,10.867,12.183,10.5,12.55z M5.5,17.2l-0.3,0.15
		c0.267,0.2,0.883,0.25,1.85,0.15c-0.8,0.233-1.117,0.517-0.95,0.85h0.95c0.034,0.133,0.034,0.333,0,0.6
		c0,0.233,0.067,0.383,0.2,0.45C7.683,19.567,8,19.3,8.2,18.6C8.3,19,8.583,19.133,9.05,19l0.15-1.2
		c0.167-0.267,0.233-0.533,0.2-0.8l-3.85,0.2H5.5z M2.15,22.35c0,0.2,0.1,0.383,0.3,0.55c-0.567-0.433-0.417-0.883,0.45-1.35
		c0.567-0.3,1.217-0.533,1.95-0.7C3.117,21.383,2.217,21.883,2.15,22.35z M5.75,22.6v0.05c-0.029,0.059-0.046,0.133-0.05,0.225
		C5.703,22.752,5.72,22.661,5.75,22.6z M14.15,21.6c0.067-0.367,0.15-0.617,0.25-0.75l-0.05,0.1
		C14.283,21.083,14.217,21.3,14.15,21.6z M16.3,21.9c-0.267-0.167-0.383-0.333-0.35-0.5c-0.1,0.067-0.2,0.117-0.3,0.15
		c-0.333,0.133-0.667,0.184-1,0.15c0.333,0,0.667-0.067,1-0.2l0.4-0.2C15.983,21.533,16.067,21.733,16.3,21.9z"/>
	<path style="fill-rule:evenodd;clip-rule:evenodd;fill:#585D3B;" d="M45.4,6.5c-0.067,0.2-0.034,0.383,0.1,0.55
		c0,0.133,0.1,0.417,0.3,0.85c0.134,0.367,0.167,0.684,0.101,0.95c-0.267,0.033-0.434,0.033-0.5,0V9.6
		c-0.101-0.067-0.584-0.283-1.45-0.65C44.017,8.917,44.366,8.9,45,8.9c0.434-0.033,0.684-0.217,0.75-0.55
		c0.066-0.333-0.066-0.6-0.4-0.8c-0.433-0.167-0.733-0.316-0.899-0.45c0.166-0.167,0.316-0.267,0.45-0.3V6.5h0.05
		c0.033-0.033,0.066-0.05,0.1-0.05c0.101,0,0.2,0.017,0.3,0.05H45.4z M44.35,5.8L44.4,6.05c0,0.067,0,0.133,0,0.2
		c-0.5-0.033-0.817-0.067-0.95-0.1c0-0.433-0.084-0.75-0.25-0.95C43,4.967,42.6,4.867,42,4.9c-0.634,0.033-1.033-0.033-1.2-0.2
		c0.101-0.067,0.417-0.133,0.95-0.2L43,4.45h0.2c0.166,0.033,0.316,0.1,0.45,0.2C44.017,4.85,44.25,5.233,44.35,5.8z M37.75,22.25
		L37.7,21.9c-0.101,0.167-0.233,0.3-0.4,0.4c-0.233,0.133-0.434,0.15-0.6,0.05c-0.101-0.067-0.15-0.4-0.15-1
		c-0.366,0.2-0.684,0.25-0.95,0.15c0-0.2,0-0.333,0-0.4c-0.033-0.167-0.1-0.283-0.199-0.35c-0.101,0.067-0.284,0.1-0.551,0.1
		c0.134-0.533,0.217-1,0.25-1.4V19.4c-0.033,0.033-0.05,0.083-0.05,0.15l-0.149,0.3V19.7l-0.15,0.05v-0.6
		c-0.066-0.9-0.233-1.533-0.5-1.9c0,0.133,0,0.4,0,0.8c-0.033,0.367-0.2,0.483-0.5,0.35c-0.134-0.066-0.2-0.183-0.2-0.35
		c0.033-0.6,0.033-0.983,0-1.15c-0.2,0.3-0.45,0.5-0.75,0.6l-0.5-0.65l0.4-0.95c-0.267,0.333-0.566,0.434-0.9,0.3
		c-0.2-0.2-0.35-0.417-0.45-0.65c0.101-0.533,0.483-0.983,1.15-1.35c-0.533,0.167-0.85,0.05-0.95-0.35
		c-0.066-0.233,0.017-0.533,0.25-0.9c0.2-0.3,0.417-0.534,0.65-0.7c-0.2,0.133-0.483,0.167-0.851,0.1
		c-0.033-0.2-0.017-0.483,0.051-0.85c0.1-0.367,0.133-0.65,0.1-0.85c-0.2-0.7-0.316-1.233-0.35-1.6v0.6
		c-0.067,1.1-0.334,1.483-0.801,1.15c0.2,0.3,0.267,0.65,0.2,1.05l-0.35,0.25l0.6-0.4c0.2,0.5,0.283,0.95,0.25,1.35
		c-0.066,0.5-0.35,0.717-0.85,0.65c-0.033,0.233-0.101,0.533-0.2,0.9c-0.066,0.3-0.233,0.5-0.5,0.6
		c-0.267,0.066-0.65,0.05-1.15-0.05c-0.533-0.133-0.883-0.283-1.05-0.45h-0.6c0.333,0.033,0.583,0.183,0.75,0.45
		c0.066,0.1,0.1,0.217,0.1,0.35c-0.033,0.033-0.066,0.083-0.1,0.15c0.066-0.233-0.267-0.433-1-0.6h-0.3
		c0,0.267,0.217,0.434,0.65,0.5c-0.033,0.034-0.45,0.2-1.25,0.5c-0.566,0.233-0.816,0.55-0.75,0.95c-0.566,0.067-0.867,0.1-0.9,0.1
		c-0.333,0.066-0.483,0.233-0.45,0.5c-0.5-0.133-0.867-0.133-1.1,0v0.25c-0.833,0-1.434,0.117-1.8,0.35
		c-0.333,0.267-0.433,0.466-0.3,0.6c-0.3,0-0.5,0.083-0.6,0.25c-0.6,0.067-0.833,0.267-0.7,0.6l-0.45,0.05l-0.05,1.1
		c-0.167,0.067-0.4,0.117-0.7,0.15c-0.233,0-0.417,0.05-0.55,0.15l0.1-0.6c-0.1,0.2-0.15,0.417-0.15,0.65l-0.3,0.55L17.05,22H16.6
		c-0.133-0.5-0.05-0.867,0.25-1.1c-0.467,0-0.717-0.15-0.75-0.45l0.1-0.05c0.233-0.1,0.417-0.333,0.55-0.7
		c0.133-0.034,0.383-0.05,0.75-0.05c0.3,0,0.55-0.033,0.75-0.1c0.467-0.2,0.817-0.633,1.05-1.3c-0.133,0.133-0.316,0.167-0.55,0.1
		c-0.233-0.033-0.4-0.133-0.5-0.3c0.1,0.633-0.383,0.833-1.45,0.6c-0.033-0.1-0.05-0.183-0.05-0.25c-0.167,0.767-0.833,1.083-2,0.95
		c0-0.267,0-0.467,0-0.6c-0.033-0.2-0.083-0.367-0.15-0.5c-0.1,0.1-0.267,0.2-0.5,0.3c-0.233,0.067-0.417,0.067-0.55,0
		c-0.133-0.1-0.183-0.267-0.15-0.5c0.033-0.267,0.033-0.45,0-0.55c-0.133-0.233-0.55-0.45-1.25-0.65c-0.733-0.2-1.2-0.217-1.4-0.05
		l0.4,0.55l0.95,0.85c-0.067,0.267-0.083,0.733-0.05,1.4V20c-0.433-0.1-0.75-0.1-0.95,0c-0.2,0.1-0.3,0.183-0.3,0.25
		c-0.033,0.067-0.05,0.217-0.05,0.45c-0.033,0.233-0.083,0.517-0.15,0.85c-0.033,0.2-0.184,0.367-0.45,0.5l-0.4,0.05
		c-0.133-0.133-0.25-0.217-0.35-0.25c-0.2-0.033-0.433,0-0.7,0.1c-0.267-0.067-0.483-0.2-0.65-0.4H8.8
		c0.267-0.066,0.534-0.233,0.8-0.5c0.167-0.233,0.367-0.367,0.6-0.4c0.133-0.5,0.117-0.933-0.05-1.3c0.4,0.4,0.6-0.15,0.6-1.65v-0.3
		c0-0.133-0.067-0.25-0.2-0.35c-0.133-0.133-0.383-0.133-0.75,0c0.3-0.133,0.383-0.417,0.25-0.85h-0.3
		c0.033-0.034,0.067-0.067,0.1-0.1c0.033-0.167-0.017-0.383-0.15-0.65L9.15,15.4c0-0.566-0.35-0.85-1.05-0.85
		c-0.033-0.466-0.017-0.8,0.05-1c-0.8,0.034-1.4,0.034-1.8,0c-0.7-0.066-1.033-0.367-1-0.9c0-0.066,0.017-0.133,0.05-0.2l0.05-0.05
		c0.033-0.1,0.1-0.2,0.2-0.3l0.6,0.4c0.1-0.2,0.367-0.367,0.8-0.5c0.2-0.1,0.483-0.2,0.85-0.3c-0.533,0.167-0.917,0.5-1.15,1
		c1.167,0.167,2.417,0.117,3.75-0.15c-0.233,0.2-0.35,0.4-0.35,0.6c0.1,0.033,0.283,0.033,0.55,0c0.267-0.033,0.433-0.017,0.5,0.05
		c0.233,0.2,0.283,0.533,0.15,1c-0.067,0.267-0.167,0.617-0.3,1.05c0.4,0.2,0.934,0.183,1.6-0.05c0.633-0.2,1.117-0.467,1.45-0.8
		c0,0.2-0.15,0.617-0.45,1.25c-0.267,0.5-0.35,0.9-0.25,1.2c0.467,0.066,0.95-0.017,1.45-0.25c0.533-0.267,0.833-0.617,0.9-1.05
		c-0.133,1.1,0.15,1.583,0.85,1.45c0.7-0.133,1.083-0.617,1.15-1.45c0.067,0.4,0.233,0.717,0.5,0.95c0.133,0.1,0.433,0.183,0.9,0.25
		s0.767,0.05,0.9-0.05c0.2-0.167,0.267-0.5,0.2-1c-0.067-0.534-0.017-0.883,0.15-1.05c0.167,0.233,0.417,0.633,0.75,1.2
		c0.367,0.4,0.783,0.5,1.25,0.3c0.033-0.3,0.017-0.767-0.05-1.4c0.1,0.3,0.3,0.583,0.6,0.85c0.367,0.333,0.683,0.417,0.95,0.25
		c0.333-0.2,0.5-0.817,0.5-1.85l0.15,0.2c0.233-0.034,0.367-0.184,0.4-0.45c-0.034-0.333-0.05-0.567-0.05-0.7
		c1.033,0.567,1.75,0.684,2.15,0.35c0.134-0.167,0.15-0.5,0.05-1c-0.167-0.533-0.266-0.867-0.3-1c0.233-0.033,0.601-0.05,1.101-0.05
		c0.433-0.067,0.716-0.25,0.85-0.55c0.167-0.4,0.033-0.9-0.4-1.5c0.134,0,0.284-0.066,0.45-0.2C28.9,8.967,29.1,8.383,29.4,7.35
		l0.05-0.15h0.2L29.4,7.55c0.399,0.067,1.017,0.083,1.85,0.05l0.1,0.15V7.6H31.4c0.033,0.133,0.05,0.267,0.05,0.4v0.05
		c-0.002,0.07-0.035,0.153-0.101,0.25c-0.133,0.167-0.3,0.3-0.5,0.4h0.5c0.067-0.067,0.167-0.15,0.301-0.25
		c0.133-0.1,0.267-0.167,0.399-0.2c0.033-0.033,0.066-0.05,0.101-0.05h0.05c0-0.034,0.017-0.05,0.05-0.05l0.1-0.05
		C32.283,7.867,32.3,7.617,32.4,7.35c0.1-0.167,0.233-0.3,0.399-0.4c-0.1-0.034-0.166-0.2-0.2-0.5c0-0.534,0.084-0.867,0.25-1H32.9
		l0.25-0.2C33.384,5.117,33.7,5.067,34.1,5.1c0.067,0.2,0.334,0.333,0.801,0.4c-0.834,0-1.15,0.283-0.95,0.85h0.25
		c-0.101,0.167-0.334,0.4-0.7,0.7c-0.3,0.3-0.434,0.567-0.4,0.8H33.9c0.066,0.233-0.017,0.533-0.25,0.9
		c-0.233,0.333-0.301,0.633-0.2,0.9c0.233,0.033,0.583,0.017,1.05-0.05c0.366,0.033,0.5,0.217,0.4,0.55
		c-0.034,0.133-0.217,0.35-0.551,0.65c-0.267,0.233-0.35,0.467-0.25,0.7c0.801,0.133,1.5,0.1,2.101-0.1
		c0,0.067-0.117,0.35-0.351,0.85c-0.133,0.367-0.166,0.667-0.1,0.9c0.934,0.133,1.667-0.183,2.2-0.95
		c0.1,0.267,0.166,0.583,0.2,0.95c0.066,0.3,0.283,0.483,0.649,0.55c0.4,0.066,0.684,0.017,0.851-0.15c0.1-0.1,0.183-0.333,0.25-0.7
		h0.35c0.233,0.233,0.583,0.4,1.05,0.5c0.434,0.066,0.8,0.066,1.101,0l0.05-0.7l0.95-0.15h1.149c0.233-0.033,0.517-0.133,0.851-0.3
		l0.199-0.1l0.351-0.25l0.45-0.15c0.333-0.034,0.666-0.017,1,0.05C47.6,11.817,47.9,11.9,48.3,12l-0.1,0.6c0.5-0.167,1-0.2,1.5-0.1
		c-0.033,0.067-0.033,0.233,0,0.5c0,0.2-0.05,0.367-0.15,0.5c0.5,0.067,1.217,0.083,2.15,0.05c-0.033,0.167,0,0.417,0.1,0.75h0.25
		c0.066,0.6,0.017,1.05-0.149,1.35c-1.167,0.233-1.784,0.1-1.851-0.4v0.4c-0.267,0.067-0.533,0.067-0.8,0
		c-0.066-0.3-0.017-0.667,0.15-1.1c-0.167,0.4-0.551,0.55-1.15,0.45v-0.6c-0.233,0.567-0.566,0.767-1,0.6
		c-0.134-0.033-0.233-0.133-0.3-0.3l-0.05,1.65c-0.167,0.033-0.301,0.017-0.4-0.05c-0.033-0.033-0.066-0.083-0.1-0.15v0.8L46.3,17.3
		l-0.55-0.1l0.1,1.35l-0.5,0.3L45,19.25c-0.9-0.067-1.483-0.083-1.75-0.05c-0.033,0.466-0.15,0.816-0.35,1.05
		c-0.267,0.267-0.601,0.267-1,0v1.4L40.6,21.7c-0.066,0.5-0.283,0.767-0.649,0.8c-0.367,0.067-0.717-0.083-1.05-0.45
		c0.033,0.1,0.033,0.25,0,0.45c-0.5,0.067-0.834,0.017-1-0.15V22.2L37.75,22.25z M40.15,12.75L39.9,12.8l0.05-0.4
		C39.95,12.5,40.017,12.617,40.15,12.75z M40.15,14.55c-0.233,0-0.367,0.067-0.4,0.2c-0.066,0.033-0.1,0.117-0.1,0.25
		c-0.334-0.2-0.817-0.367-1.45-0.5c-0.601-0.133-1-0.183-1.2-0.15c0,0.267,0.083,0.533,0.25,0.8c-0.134-0.133-0.283-0.217-0.45-0.25
		c-0.066-0.1-0.2-0.183-0.399-0.25c-0.167,0-0.301,0.05-0.4,0.15c-0.533,0-0.8,0.184-0.8,0.55c0.1,0.066,0.283,0.133,0.55,0.2v0.1
		c-0.467-0.3-0.816-0.333-1.05-0.1l0.55,0.65l-0.1,1.3l0.399,0.1L35.4,18.55V19h0.55l0.399,0.15l-0.05,0.1
		c-0.1,0.3-0.116,0.667-0.05,1.1c0.566,0.066,0.95,0.033,1.15-0.1v0.1c-0.034,0.467,0.3,0.717,1,0.75c0.733,0.033,1.066-0.15,1-0.55
		c0.533,0.4,1.133,0.55,1.8,0.45c0.133-0.367,0.2-0.767,0.2-1.2v-0.85c0.1,0.133,0.216,0.233,0.35,0.3
		c0.2,0.067,0.35,0.05,0.45-0.05c0.1-0.067,0.133-0.367,0.1-0.9c-0.033-0.7-0.05-1.066-0.05-1.1c0.167,0.367,0.417,0.583,0.75,0.65
		c0.167,0.033,0.517,0.033,1.05,0c0.066-0.4,0.066-0.783,0-1.15c0.134,0.333,0.351,0.433,0.65,0.3c0.066-0.433,0.066-0.867,0-1.3
		c-0.066-0.034-0.134-0.05-0.2-0.05c0.233-0.033,0.417-0.117,0.55-0.25c0.334-0.233,0.384-0.583,0.15-1.05
		c-0.033-0.1-0.2-0.233-0.5-0.4c-0.267-0.133-0.417-0.284-0.45-0.45c-0.066-0.233,0.083-0.517,0.45-0.85
		c-0.367,0-0.634,0.017-0.8,0.05v0.45c-0.467,0-0.834,0.017-1.101,0.05c-0.467,0.066-0.55,0.283-0.25,0.65
		c-1.066,0.033-1.85,0.1-2.35,0.2c0.033,0.267,0.2,0.417,0.5,0.45C40.434,14.5,40.25,14.517,40.15,14.55z M28.4,5.5V4.9l0.449,0.5
		L28.4,5.5z M27.2,7.75l1.55,0.1c-0.366,0.033-0.816,0.2-1.35,0.5L26.8,7.85C27,7.85,27.134,7.817,27.2,7.75z M27.5,15.8
		c0.866,0.133,1.616,0.3,2.25,0.5l0.2,0.1c0.533,0.333,0.684,0.717,0.45,1.15v0.05c-0.134,0.233-0.334,0.316-0.601,0.25
		c0.167,0.167,0.267,0.417,0.3,0.75c0.034,0.3-0.033,0.55-0.199,0.75c-0.134,0.2-0.301,0.316-0.5,0.35c-0.233,0-0.45,0-0.65,0
		c-0.033,0.6-0.083,0.966-0.15,1.1c-0.133,0.333-0.416,0.467-0.85,0.4l-0.05,1.3c-0.566,0.133-1.15-0.017-1.75-0.45
		c-0.034,0.2-0.034,0.483,0,0.85c-0.034,0.333-0.167,0.55-0.4,0.65c-0.333,0.133-0.65,0.017-0.95-0.35c0,0.2-0.017,0.483-0.05,0.85
		c-0.1,0.3-0.316,0.467-0.65,0.5c-0.533,0.033-0.867-0.233-1-0.8c-0.333,0.866-0.783,1.25-1.35,1.15
		c-0.5-0.101-0.65-0.367-0.45-0.801c-0.733,0.5-1.233,0.634-1.5,0.4c-0.133-0.1-0.2-0.25-0.2-0.45
		c-0.033-0.267-0.05-0.417-0.05-0.45l-0.95,0.15l0.05-0.1c-0.167,0.067-0.317,0.1-0.45,0.1c-0.167-0.033-0.283-0.083-0.35-0.15
		c-0.2-0.167-0.283-0.383-0.25-0.65l0.2-0.45c0.1-0.167,0.133-0.317,0.1-0.45h-0.4l0.1-0.65v0.25c0.133-0.033,0.333,0,0.6,0.1
		c-0.033,0.133-0.117,0.4-0.25,0.8c-0.1,0.367-0.05,0.633,0.15,0.8c0.267,0.267,0.517,0.25,0.75-0.05c0.067-0.1,0.2-0.367,0.4-0.8
		c-0.033,0.533,0.217,0.767,0.75,0.7c0.534-0.1,0.733-0.417,0.6-0.95c0.167,0.367,0.517,0.517,1.05,0.45
		c0.433-0.067,0.65-0.45,0.65-1.15c0.066,0.534,0.367,0.75,0.9,0.65c0.533-0.133,0.783-0.467,0.75-1
		c0.067,0.433,0.333,0.716,0.8,0.85c0.534,0.133,0.833,0.017,0.9-0.35c0.033-0.534,0.083-0.917,0.15-1.15
		c0.333-0.066,0.816-0.1,1.45-0.1c0.434-0.1,0.533-0.467,0.3-1.1c0.233,0,0.483,0,0.75,0c0.2-0.067,0.301-0.283,0.301-0.65
		c0-0.567-0.233-0.85-0.7-0.85c0.633-0.067,1-0.1,1.1-0.1c0.566-0.167,0.834-0.467,0.8-0.9c-0.033-0.434-0.35-0.684-0.949-0.75
		c-0.801-0.067-1.25-0.133-1.351-0.2C27.366,15.867,27.434,15.833,27.5,15.8z M10.5,12.55c0.367-0.367,0.95-0.667,1.75-0.9
		c0.733-0.233,1.267-0.316,1.6-0.25C13.117,11.867,12,12.25,10.5,12.55z M8.05,21.55l-0.5,0.35l-0.1-0.2L7.3,22
		c-0.466,0.167-0.867,0.183-1.2,0.05c-0.4-0.167-0.583-0.483-0.55-0.95c-0.733,1.066-1.867,1.483-3.4,1.25
		c0.067-0.467,0.967-0.967,2.7-1.5L4.1,20.8c0-0.3,0.066-0.533,0.2-0.7c-0.433,0.233-0.85,0.3-1.25,0.2
		c-0.433-0.1-0.667-0.367-0.7-0.8c-0.667,0-1.233-0.083-1.7-0.25c-0.633-0.267-0.816-0.633-0.55-1.1c0.2-0.3,0.717-0.45,1.55-0.45
		c0.1,0,0.217,0,0.35,0L2.55,18c-0.233,0-0.35,0.083-0.35,0.25c0.033,0.133,0.117,0.267,0.25,0.4s0.483,0.233,1.05,0.3
		c-0.467,0.3-0.417,0.517,0.15,0.65c0.333,0.066,0.733,0.133,1.2,0.2c-0.167,0.3-0.033,0.483,0.4,0.55
		c0.233,0.033,0.533,0.05,0.9,0.05c-0.367,0.434-0.55,0.684-0.55,0.75c0.667,0.133,1.15,0,1.45-0.4
		C6.95,21.217,7.283,21.483,8.05,21.55z"/>
	<path style="fill-rule:evenodd;clip-rule:evenodd;fill:#848958;" d="M38.5,4.3c-0.033,0.067-0.05,0.133-0.05,0.2
		c0.066-0.133,0.133-0.25,0.2-0.35c0.133-0.167,0.283-0.3,0.449-0.4c0.301-0.233,0.684-0.4,1.15-0.5
		c0.066,0.767-0.083,1.283-0.45,1.55C40.033,4.9,40.434,4.967,41,5c0.434,0.1,0.616,0.333,0.55,0.7C41.483,6,41.2,6.3,40.7,6.6
		c0.3,0.167,0.783,0.333,1.45,0.5c0.5,0.167,0.683,0.517,0.55,1.05c-1.033,0.133-1.733,0.2-2.101,0.2
		c0.233,0.033,0.417,0.133,0.551,0.3c0.166,0.233,0.133,0.467-0.101,0.7c-0.2,0.167-0.566,0.183-1.1,0.05
		c-0.5-0.133-0.851-0.3-1.05-0.5v0.95c-0.534,0.033-0.867,0-1-0.1C37.767,9.683,37.65,9.4,37.55,8.9c-0.2,1.033-0.583,1.367-1.149,1
		c-0.233-0.133-0.317-0.333-0.25-0.6c0.066-0.367,0.066-0.617,0-0.75c-0.5,0.267-1.034,0.367-1.601,0.3
		c-0.1-0.267,0.017-0.6,0.351-1c0.399-0.4,0.666-0.667,0.8-0.8c-0.334,0-0.584-0.033-0.75-0.1c-0.101-0.2-0.017-0.434,0.25-0.7
		c0.233-0.3,0.35-0.533,0.35-0.7L35.1,5.5h-0.05c0-0.067,0.017-0.133,0.05-0.2c0-0.167,0.034-0.316,0.101-0.45h0.45L35.35,4.5
		c0.267-0.367,0.667-0.633,1.2-0.8l0.7,0.3L37.1,3.55c0.467-0.066,0.834,0,1.101,0.2C38.4,3.883,38.5,4.067,38.5,4.3z M36,14.8
		c0.267-0.033,0.533,0,0.8,0.1c0.167,0.033,0.316,0.117,0.45,0.25c-0.167-0.267-0.25-0.533-0.25-0.8c0.2-0.033,0.6,0.017,1.2,0.15
		c0.633,0.133,1.116,0.3,1.45,0.5c0-0.133,0.033-0.217,0.1-0.25c0.033-0.133,0.167-0.2,0.4-0.2c0.1,0,0.216,0.017,0.35,0.05
		c0.3,0.133,0.316,0.333,0.05,0.6l0.851-0.5c0.033,0.333-0.034,0.667-0.2,1c-0.3,0.533-0.45,0.816-0.45,0.85
		c0,0.034-0.033,0.25-0.1,0.65c-0.034,0.2-0.167,0.316-0.4,0.35c-0.267,0-0.45-0.117-0.55-0.35c-0.033,0.033-0.167,0.4-0.4,1.1
		c-0.166,0.467-0.45,0.65-0.85,0.55c-0.267-0.033-0.434-0.167-0.5-0.4c-0.033-0.1-0.05-0.333-0.05-0.7
		c-0.134,0.133-0.301,0.233-0.5,0.3c-0.2,0.034-0.351-0.033-0.45-0.2c-0.066-0.133-0.066-0.317,0-0.55
		c0.1-0.267,0.133-0.466,0.1-0.6c-0.366,0-0.649-0.067-0.85-0.2c-0.233-0.167-0.184-0.383,0.149-0.65c-0.1-0.133-0.3-0.233-0.6-0.3
		c-0.267-0.066-0.45-0.133-0.55-0.2C35.2,14.983,35.467,14.8,36,14.8z M19.9,19.05c0.1-0.167,0.3-0.25,0.6-0.25l0.5,0.05
		c-0.1-0.2,0.1-0.333,0.6-0.4c0.6-0.1,0.933-0.3,1-0.6V17.6c0.233-0.133,0.6-0.133,1.1,0l0.7,0.25l0.05-0.3
		c0.167-0.033,0.433-0.05,0.8-0.05l0.65,0.2c0.067,0.566,0,0.983-0.2,1.25c-0.233,0.333-0.6,0.367-1.1,0.1
		c0,0.133-0.017,0.3-0.05,0.5c-0.033,0.167-0.133,0.267-0.3,0.3c-0.333,0.1-0.567-0.05-0.7-0.45c-0.2,0.567-0.367,0.917-0.5,1.05
		c-0.267,0.3-0.65,0.367-1.15,0.2l-0.05-0.75c-0.267,0.7-0.767,0.95-1.5,0.75c-0.733-0.167-0.617-0.55,0.35-1.15
		c-0.534,0.167-0.817,0.067-0.85-0.3L19.9,19.05z M26.85,4.7c-0.133,0.1-0.4,0.25-0.8,0.45c-0.5,0.5-0.933,0.8-1.3,0.9
		c-0.267,0.067-0.533,0.067-0.8,0c-0.333-0.066-0.467-0.25-0.4-0.55c0.067-0.267,0.467-0.433,1.2-0.5
		c-0.667-0.033-0.817-0.25-0.45-0.65c0.367-0.367,0.85-0.533,1.45-0.5h1C26.85,3.817,27,3.833,27.2,3.9
		C27.267,4.2,27.15,4.467,26.85,4.7z M21.95,9.85c0.167-0.1,0.316-0.083,0.45,0.05c-0.066-0.333-0.017-0.583,0.15-0.75
		c0.1-0.1,0.434-0.15,1-0.15l1.7,0.5c0.267-0.033,0.433,0.1,0.5,0.4c0.067,0.267,0.067,0.55,0,0.85c-0.067,0.433-0.3,0.65-0.7,0.65
		c-0.7,0-1.083,0-1.15,0v1.1c-0.566,0.067-0.9,0.1-1,0.1c-0.4-0.033-0.667-0.167-0.8-0.4c-0.2,0.733-0.517,1.133-0.95,1.2
		c-0.6,0.1-0.833-0.05-0.7-0.45c-0.3,0.6-1,0.8-2.1,0.6c-1.267-0.3-2.083-0.5-2.45-0.6c-0.033-0.833,0.417-1.017,1.35-0.55
		c0.5,0.267,1.05,0.583,1.65,0.95c0-1.4,0.283-1.867,0.85-1.4c-0.1-0.633,0.067-1.017,0.5-1.15c0.267-0.066,0.767-0.117,1.5-0.15
		C21.683,10.183,21.75,9.917,21.95,9.85z M21.75,4.55c0.433,0.133,0.633,0.417,0.6,0.85c-0.033,0.467-0.283,0.883-0.75,1.25L22.1,7
		c-0.033,0.167-0.083,0.383-0.15,0.65c-0.067,0.233-0.167,0.417-0.3,0.55s-0.367,0.2-0.7,0.2c-0.333-0.033-0.567-0.05-0.7-0.05
		c0,0.167,0,0.417,0,0.75c0,0.233-0.133,0.383-0.4,0.45c-0.2,0.034-0.4-0.066-0.6-0.3c-0.2-0.2-0.317-0.417-0.35-0.65
		c0,0.933-0.017,1.517-0.05,1.75c-0.167,0.7-0.583,0.867-1.25,0.5c-0.267-0.167-0.4-0.434-0.4-0.8l0.05-0.8
		C17.217,9.617,17,9.9,16.6,10.1c-0.467,0.233-0.85,0.183-1.15-0.15c-0.133-0.133-0.167-0.417-0.1-0.85
		c0.033-0.533,0.05-0.833,0.05-0.9c-0.767,0-1.233-0.117-1.4-0.35c0.267-0.333,0.867-0.5,1.8-0.5c-0.367-0.267-0.466-0.567-0.3-0.9
		c0.133-0.333,0.383-0.583,0.75-0.75c-0.067-0.233-0.05-0.417,0.05-0.55c0.2-0.167,0.333-0.316,0.4-0.45c0-0.034,0.05-0.2,0.15-0.5
		c0.066-0.167,0.183-0.284,0.35-0.35c-0.567,0.133-0.867,0.017-0.9-0.35c-0.033-0.367,0.284-0.533,0.95-0.5l0.5,0.5
		c0.2,0.133,0.35,0.2,0.45,0.2c0.033,0.066,0.05,0.133,0.05,0.2c0.3-0.533,0.733-0.767,1.3-0.7l0.05,0.45
		c1.333-0.733,2.167-0.783,2.5-0.15C22.333,3.933,22.217,4.283,21.75,4.55z M10.25,9c0.267-0.267,0.667-0.367,1.2-0.3
		c0.433,0,0.583,0.216,0.45,0.65c-0.1,0-0.25,0.05-0.45,0.15c0.433,0,0.583,0.283,0.45,0.85c-0.566,0.066-0.967-0.017-1.2-0.25v0.4
		c-0.233,0.1-0.434,0.1-0.6,0c-0.2-0.1-0.267-0.267-0.2-0.5c-0.467,0.2-0.8,0.25-1,0.15C8.9,9.95,8.933,9.8,9,9.7
		c-0.733,0-1.167-0.117-1.3-0.35C7.833,9.183,8.15,9.033,8.65,8.9c-0.2-0.367-0.1-0.566,0.3-0.6c0.333-0.033,0.6,0.083,0.8,0.35
		l-0.2-0.3C9.883,8.317,10.117,8.533,10.25,9z M5.5,17.2h0.05L9.4,17c0.033,0.267-0.033,0.533-0.2,0.8L9.05,19
		c-0.466,0.133-0.75,0-0.85-0.4c-0.2,0.7-0.517,0.967-0.95,0.8c-0.133-0.066-0.2-0.217-0.2-0.45c0.034-0.267,0.034-0.467,0-0.6H6.1
		c-0.167-0.333,0.15-0.617,0.95-0.85c-0.966,0.1-1.583,0.05-1.85-0.15L5.5,17.2z"/>
	<path style="fill-rule:evenodd;clip-rule:evenodd;fill:#4E512F;" d="M39.9,12.8l0.25-0.05c0.767-0.167,1.199-0.567,1.3-1.2
		c0.2-0.033,0.517-0.05,0.95-0.05v-0.9c0.166,0.3,0.767,0.383,1.8,0.25c0.066-0.5,0.05-0.85-0.05-1.05
		c0.166,0.133,0.55,0.15,1.149,0.05c-0.033,0.1-0.033,0.35,0,0.75c0,0.333-0.066,0.566-0.2,0.7c1.334,0,2.117,0.017,2.351,0.05
		c0.066,0,0.383,0.1,0.95,0.3L48.3,12c-0.399-0.1-0.7-0.183-0.899-0.25c-0.334-0.067-0.667-0.083-1-0.05l-0.45,0.15L45.6,12.1
		L45.4,12.2c-0.334,0.167-0.617,0.267-0.851,0.3H43.4l-0.95,0.15L41.5,12.8l-1.6,0.05h-0.2C39.776,12.845,39.843,12.829,39.9,12.8z
		 M49.05,8.15c0,0.2,0.017,0.5,0.05,0.9c-0.133,0.467-0.666,0.633-1.6,0.5c-0.233-0.033-0.384-0.066-0.45-0.1
		c-0.133-0.067-0.233-0.184-0.3-0.35c0.1,0.4-0.033,0.667-0.4,0.8C46.017,10,45.7,9.933,45.4,9.7V9.6V8.85
		c0.066,0.033,0.233,0.033,0.5,0c0.066-0.267,0.033-0.583-0.101-0.95c-0.2-0.433-0.3-0.717-0.3-0.85
		c-0.134-0.167-0.167-0.35-0.1-0.55h0.1c0.066,0,0.134,0.017,0.2,0.05c0,0.067,0.017,0.217,0.05,0.45c0.033,0.1,0.033,0.2,0,0.3
		c0.167-0.4,0.5-0.466,1-0.2c0.467,0.267,0.7,0.6,0.7,1c0.1-0.233,0.383-0.317,0.85-0.25c0.2,0,0.367,0.033,0.5,0.1
		C48.9,8.017,48.983,8.083,49.05,8.15z M52.7,14.4c0,0.133,0,0.3,0,0.5c0,0.167-0.066,0.333-0.2,0.5
		c0.634-0.066,0.95,0.167,0.95,0.7v0.15c-0.101,0.033-0.167,0.15-0.2,0.35c-0.066,0.267-0.184,0.467-0.35,0.6
		c-0.233,0.2-0.601,0.283-1.101,0.25c-0.533-0.034-0.783-0.233-0.75-0.6c-0.267,0.2-0.6,0.267-1,0.2
		c-0.233-0.066-0.399-0.167-0.5-0.3c-0.133-0.2-0.25-0.333-0.35-0.4c-0.066-0.033-0.351-0.033-0.851,0
		c-0.399,0.066-0.649-0.033-0.75-0.3c0.034,0.3-0.066,0.517-0.3,0.65c-0.267,0.1-0.517,0.05-0.75-0.15l-0.149,0.4v-0.8
		c0.033,0.067,0.066,0.117,0.1,0.15c0.1,0.067,0.233,0.083,0.4,0.05l0.05-1.65c0.066,0.167,0.166,0.267,0.3,0.3
		c0.434,0.167,0.767-0.033,1-0.6V15c0.6,0.1,0.983-0.05,1.15-0.45c-0.167,0.434-0.217,0.8-0.15,1.1c0.267,0.067,0.533,0.067,0.8,0
		v-0.4c0.066,0.5,0.684,0.633,1.851,0.4c0.166-0.3,0.216-0.75,0.149-1.35L52.7,14.4z M46.3,17.3l-0.05,0.2
		c-0.033,0.133-0.033,0.367,0,0.7c-0.1,0.167-0.233,0.283-0.4,0.35l-0.1-1.35L46.3,17.3z M37.9,22.35c0.166,0.167,0.5,0.217,1,0.15
		c0.033-0.2,0.033-0.35,0-0.45c0.333,0.367,0.683,0.517,1.05,0.45c0.366-0.033,0.583-0.3,0.649-0.8l1.301-0.05v-1.4
		c0.399,0.267,0.733,0.267,1,0c0.199-0.233,0.316-0.583,0.35-1.05c0.267-0.034,0.85-0.017,1.75,0.05l-0.25,0.3
		c-0.134,0.067-0.366,0.117-0.7,0.15c-0.267,0.233-0.467,0.683-0.6,1.35H43.4c-0.034,0.3-0.034,0.767,0,1.4
		c-0.5,0.167-0.983,0.133-1.45-0.1c0.033,0.533-0.351,0.8-1.15,0.8c-0.733,0-1.233-0.15-1.5-0.45c-0.066,0.167-0.233,0.283-0.5,0.35
		c-0.267,0.067-0.483,0.05-0.649-0.05C37.95,22.833,37.866,22.617,37.9,22.35z M35.55,23.05c-0.133,0-0.25,0.017-0.35,0.05
		c-0.134-0.033-0.25-0.05-0.351-0.05c-0.267-0.066-0.449-0.183-0.55-0.35l0.05-0.1v-0.1l0.5-1.65c0.267,0,0.45-0.033,0.551-0.1
		c0.1,0.067,0.166,0.183,0.199,0.35c0,0.066,0,0.2,0,0.4c0.267,0.1,0.584,0.05,0.95-0.15c0,0.6,0.05,0.933,0.15,1
		c0.166,0.1,0.366,0.083,0.6-0.05c0.167-0.1,0.3-0.233,0.4-0.4l0.05,0.35L35.55,23V23.05z M27.4,8.35
		c0.533-0.3,0.983-0.467,1.35-0.5l-1.55-0.1L26.4,7.7c-0.8,0-1.4,0.1-1.8,0.3l0.35-0.4c0.233-0.233,0.933-0.733,2.1-1.5
		c0.4-0.3,0.851-0.5,1.351-0.6l0.75-0.15C28.983,5.617,28.8,5.817,28.6,5.95C28.566,5.983,28.533,6,28.5,6h-0.05
		c-0.033,0-0.066,0-0.101,0c-0.833,0.2-1.45,0.367-1.85,0.5c0.3,0,0.8,0.133,1.5,0.4c0.634,0.233,1.116,0.333,1.45,0.3L29.4,7.35
		C29.1,8.383,28.9,8.967,28.8,9.1c-0.166,0.133-0.316,0.2-0.45,0.2c-0.1-0.033-0.3-0.15-0.6-0.35c-0.3-0.2-0.566-0.3-0.8-0.3
		L27.4,8.35z M7.55,21.9l0.5-0.35c0.167,0.2,0.383,0.333,0.65,0.4C8.2,22.217,7.817,22.2,7.55,21.9z M9.75,22.1l0.4-0.05
		c0.267-0.133,0.417-0.3,0.45-0.5c0.066-0.333,0.117-0.617,0.15-0.85c0-0.233,0.017-0.383,0.05-0.45c0-0.067,0.1-0.15,0.3-0.25
		c0.2-0.1,0.517-0.1,0.95,0c-0.033,0.233-0.117,0.4-0.25,0.5c-0.1,0.067-0.333,0.133-0.7,0.2c-0.067,0.8-0.283,1.283-0.65,1.45
		c-0.233,0.067-0.417,0.083-0.55,0.05L9.75,22.1z M12.1,18.2l-0.95-0.85l-0.4-0.55c0.2-0.167,0.667-0.15,1.4,0.05
		c0.7,0.2,1.117,0.417,1.25,0.65c0.033,0.1,0.033,0.283,0,0.55c-0.033,0.233,0.017,0.4,0.15,0.5c0.133,0.067,0.317,0.067,0.55,0
		c0.233-0.1,0.4-0.2,0.5-0.3c0.066,0.133,0.117,0.3,0.15,0.5c0,0.133,0,0.333,0,0.6c1.167,0.133,1.833-0.184,2-0.95
		c0,0.067,0.017,0.15,0.05,0.25c1.067,0.233,1.55,0.033,1.45-0.6c0.1,0.167,0.267,0.267,0.5,0.3c0.233,0.066,0.417,0.033,0.55-0.1
		c-0.233,0.667-0.583,1.1-1.05,1.3c-0.2,0.067-0.45,0.1-0.75,0.1c-0.367,0-0.617,0.017-0.75,0.05l0.15-0.3
		c-0.3,0.133-0.75,0.167-1.35,0.1l-0.65,0.05c-0.233-0.3-0.417-0.483-0.55-0.55c-0.167-0.1-0.4-0.1-0.7,0
		c-0.3,0.067-0.5,0.067-0.6,0c-0.167-0.1-0.283-0.317-0.35-0.65l0.7,0.35l-0.65-1.5l-0.05,1.15l-0.6-0.3V18.2z M7.3,22
		c-0.367,0.667-0.883,0.883-1.55,0.65V22.6c-0.333-0.1-0.567-0.35-0.7-0.75c-0.167,0.033-0.333,0.117-0.5,0.25
		c-0.2,0.233-0.316,0.367-0.35,0.4c-0.167,0.167-0.567,0.367-1.2,0.6c-0.233-0.033-0.417-0.1-0.55-0.2c-0.2-0.167-0.3-0.35-0.3-0.55
		c1.533,0.233,2.667-0.184,3.4-1.25c-0.033,0.467,0.15,0.783,0.55,0.95C6.433,22.183,6.833,22.167,7.3,22z M17.05,22l0.25,0.05h0.4
		c0.033,0.133,0,0.284-0.1,0.45l-0.2,0.45c0-0.3,0.1-0.55,0.3-0.75c-0.267,0.033-0.5,0.033-0.7,0c-0.033,0-0.067,0-0.1,0
		c-0.133-0.034-0.267-0.083-0.4-0.15c-0.067-0.033-0.133-0.083-0.2-0.15c-0.233-0.167-0.316-0.367-0.25-0.6l-0.4,0.2
		c-0.733-0.067-1.167-0.25-1.3-0.55l0.05-0.1h-0.1l-0.1-0.55c0.133,0.2,0.417,0.3,0.85,0.3c0.4,0,0.75-0.05,1.05-0.15
		c0.033,0.3,0.283,0.45,0.75,0.45c-0.3,0.233-0.383,0.6-0.25,1.1H17.05z M18.85,25.1c-0.054-0.01-0.104-0.026-0.15-0.05
		c-0.767-0.166-0.867-0.6-0.3-1.3l0.95-0.15c0,0.033,0.017,0.183,0.05,0.45c0,0.2,0.067,0.351,0.2,0.45
		c0.267,0.233,0.767,0.1,1.5-0.4c-0.2,0.434-0.05,0.7,0.45,0.801c0.567,0.1,1.017-0.284,1.35-1.15c0.133,0.566,0.467,0.833,1,0.8
		c0.333-0.033,0.55-0.2,0.65-0.5c0.034-0.367,0.05-0.65,0.05-0.85c0.3,0.367,0.617,0.483,0.95,0.35c0.233-0.1,0.367-0.316,0.4-0.65
		c-0.034-0.367-0.034-0.65,0-0.85c0.6,0.434,1.184,0.583,1.75,0.45l0.05-1.3c0.434,0.066,0.717-0.067,0.85-0.4
		c0.067-0.133,0.117-0.5,0.15-1.1c0.2,0,0.417,0,0.65,0c0.199-0.034,0.366-0.15,0.5-0.35c0.166-0.2,0.233-0.45,0.199-0.75
		c-0.033-0.333-0.133-0.583-0.3-0.75c0.267,0.066,0.467-0.017,0.601-0.25v-0.05c0.233-0.433,0.083-0.816-0.45-1.15l-0.2-0.1
		c-0.634-0.2-1.384-0.367-2.25-0.5h-0.05c0.1-0.066,0.184-0.117,0.25-0.15c0.033-0.066,0.066-0.117,0.1-0.15
		c0-0.133-0.033-0.25-0.1-0.35c-0.167-0.267-0.417-0.417-0.75-0.45h0.6c0.167,0.167,0.517,0.316,1.05,0.45
		c0.5,0.1,0.884,0.117,1.15,0.05c0.267-0.1,0.434-0.3,0.5-0.6c0.1-0.367,0.167-0.667,0.2-0.9c0.5,0.066,0.783-0.15,0.85-0.65
		c0.033-0.4-0.05-0.85-0.25-1.35l-0.25,0.15c0.066-0.4,0-0.75-0.2-1.05c0.467,0.333,0.733-0.05,0.801-1.15v-0.6
		c0.033,0.367,0.149,0.9,0.35,1.6c0.033,0.2,0,0.483-0.1,0.85c-0.067,0.367-0.084,0.65-0.051,0.85c0.367,0.066,0.65,0.033,0.851-0.1
		c-0.233,0.167-0.45,0.4-0.65,0.7c-0.233,0.367-0.316,0.667-0.25,0.9c0.101,0.4,0.417,0.517,0.95,0.35
		c-0.667,0.367-1.05,0.816-1.15,1.35L31.4,15.9c0,0.1,0.05,0.167,0.149,0.2c0.334,1,0.45,1.75,0.351,2.25
		c-0.2,0.033-0.351,0.05-0.45,0.05c-0.2,0-0.334-0.033-0.4-0.1c0.134,0.633,0.134,1.1,0,1.4c-0.066,0.167-0.149,0.283-0.25,0.35
		c-0.066,0-0.25,0-0.55,0c-0.033,0.267-0.05,0.7-0.05,1.3c-0.566,0.1-0.9,0-1-0.3c0.1,0.867,0.116,1.383,0.05,1.55
		c-0.1,0.267-0.283,0.383-0.55,0.35c-0.367-0.034-0.617-0.017-0.75,0.05c-0.167,0.1-0.267,0.233-0.3,0.4c0,0.167-0.051,0.3-0.15,0.4
		c-0.167,0.167-0.483,0.25-0.95,0.25l-0.1-0.1v0.1h-0.2l0.05,0.25c-0.233,0.4-0.583,0.667-1.05,0.8
		c-0.072,0.021-0.139,0.038-0.2,0.051c-0.151,0.022-0.285,0.022-0.4,0c-0.1-0.034-0.2-0.084-0.3-0.15
		c-0.133-0.066-0.25-0.167-0.35-0.3c-0.267,0.434-0.667,0.733-1.2,0.899c-0.533,0.167-1.1,0.184-1.7,0.051
		c0.066-0.2,0.017-0.4-0.15-0.601c-0.534,0.033-0.983,0.066-1.35,0.101L19.1,25.1H18.85z M32.3,16.85l-0.5-0.65
		c0.334,0.133,0.634,0.033,0.9-0.3L32.3,16.85z M34.9,19.85c-0.067,0.066-0.117,0.15-0.15,0.25c-0.2,0.3-0.45,0.583-0.75,0.85
		L33.95,21c-0.066,0.067-0.15,0.133-0.25,0.2c-0.233,0.167-0.45,0.283-0.65,0.35v-0.1c-0.033-0.4-0.133-0.717-0.3-0.95
		c-0.267-0.3-0.5-0.567-0.7-0.8c0.4-0.3,0.667-0.534,0.8-0.7c0.267-0.267,0.351-0.6,0.25-1l-0.3-0.5c0.3-0.1,0.55-0.3,0.75-0.6
		c0.033,0.167,0.033,0.55,0,1.15c0,0.167,0.066,0.284,0.2,0.35c0.3,0.133,0.467,0.017,0.5-0.35c0-0.4,0-0.667,0-0.8
		c0.267,0.367,0.434,1,0.5,1.9v0.6l0.15-0.05V19.85z"/>
	<path style="fill-rule:evenodd;clip-rule:evenodd;fill:#414428;" d="M45.4,9.7c0.3,0.233,0.616,0.3,0.949,0.2
		c0.367-0.133,0.5-0.4,0.4-0.8c0.066,0.167,0.167,0.283,0.3,0.35c0.066,0.033,0.217,0.066,0.45,0.1c0.934,0.133,1.467-0.033,1.6-0.5
		c-0.033-0.4-0.05-0.7-0.05-0.9c0.033,0.033,0.066,0.067,0.101,0.1c0.133,0.233,0.233,0.7,0.3,1.4c0,0.567-0.033,0.934-0.101,1.1
		c-0.133,0.4-0.433,0.617-0.899,0.65l-0.05,0.25c-0.567-0.2-0.884-0.3-0.95-0.3c-0.233-0.033-1.017-0.05-2.351-0.05
		c0.134-0.133,0.2-0.367,0.2-0.7c-0.033-0.4-0.033-0.65,0-0.75L45.4,9.7z M53.45,16.25c0,0.133,0,0.3,0,0.5
		c0.899,0,1.467,0.2,1.7,0.6c-0.634,0.733-1.65,0.983-3.051,0.75l-0.05-0.4c-0.767,0.433-1.45,0.566-2.05,0.4
		c-0.366-0.1-0.9-0.417-1.6-0.95c0,0.633-0.15,1.217-0.45,1.75c-0.367,0.7-0.9,1.083-1.601,1.15L46.15,19.7v-0.05
		c-0.034-0.033-0.051-0.066-0.051-0.1V19.5c-0.033,0.233-0.149,0.467-0.35,0.7c-0.033,0.033-0.066,0.066-0.1,0.1
		c-0.167,0.167-0.4,0.383-0.7,0.65c-0.2,0.3-0.316,0.55-0.351,0.75c-0.033,0.066-0.05,0.133-0.05,0.2c0,0.059,0,0.133,0,0.225v0.025
		c-0.033,0.167-0.05,0.3-0.05,0.4l-0.05,0.05c-0.2,0.667-0.634,1.15-1.3,1.45c-0.634,0.3-1.417,0.367-2.351,0.2
		c-0.366,0-0.616-0.017-0.75-0.05c-0.166-0.033-0.283-0.15-0.35-0.35c-1.2,0.233-2.3,0.3-3.3,0.2c-0.034-0.367,0.05-0.767,0.25-1.2
		l-1.101,0.2V23l2.2-0.75l0.15-0.05v0.15c-0.034,0.267,0.05,0.483,0.25,0.65c0.166,0.1,0.383,0.117,0.649,0.05
		c0.267-0.066,0.434-0.183,0.5-0.35c0.267,0.3,0.767,0.45,1.5,0.45c0.8,0,1.184-0.267,1.15-0.8c0.467,0.233,0.95,0.267,1.45,0.1
		c-0.034-0.633-0.034-1.1,0-1.4h0.05c0.133-0.667,0.333-1.117,0.6-1.35c0.334-0.034,0.566-0.083,0.7-0.15l0.25-0.3l0.35-0.4l0.5-0.3
		c0.167-0.066,0.301-0.183,0.4-0.35c-0.033-0.333-0.033-0.567,0-0.7l0.3-0.95c0.233,0.2,0.483,0.25,0.75,0.15
		c0.233-0.133,0.334-0.35,0.3-0.65c0.101,0.267,0.351,0.367,0.75,0.3c0.5-0.033,0.784-0.033,0.851,0c0.1,0.066,0.217,0.2,0.35,0.4
		c0.101,0.133,0.267,0.233,0.5,0.3c0.4,0.067,0.733,0,1-0.2c-0.033,0.367,0.217,0.566,0.75,0.6c0.5,0.033,0.867-0.05,1.101-0.25
		c0.166-0.133,0.283-0.333,0.35-0.6C53.283,16.4,53.35,16.283,53.45,16.25z M30.05,6.05c0.101,0.333-0.033,0.717-0.399,1.15h-0.2
		C29.116,7.233,28.634,7.133,28,6.9c-0.7-0.267-1.2-0.4-1.5-0.4c0.4-0.133,1.017-0.3,1.85-0.5c0.034,0,0.067,0,0.101,0h0.05
		c0.033,0,0.066-0.017,0.1-0.05H28.7L29.35,6C29.583,6,29.8,6,30,6L30.05,6.05z M8.7,21.95c0.267-0.1,0.5-0.133,0.7-0.1
		c0.1,0.033,0.217,0.117,0.35,0.25l0.15,0.1c0.133,0.033,0.317,0.017,0.55-0.05c0.367-0.167,0.583-0.65,0.65-1.45
		c0.367-0.067,0.6-0.133,0.7-0.2c0.133-0.1,0.217-0.267,0.25-0.5v-0.4c-0.033-0.667-0.017-1.133,0.05-1.4v-0.15l0.6,0.3l0.05-1.15
		l0.65,1.5l-0.7-0.35c0.066,0.333,0.183,0.55,0.35,0.65c0.1,0.067,0.3,0.067,0.6,0c0.3-0.1,0.533-0.1,0.7,0
		c0.133,0.067,0.316,0.25,0.55,0.55l0.65-0.05c0.6,0.067,1.05,0.033,1.35-0.1l-0.15,0.3c-0.133,0.367-0.317,0.6-0.55,0.7l-0.1,0.05
		c-0.3,0.1-0.65,0.15-1.05,0.15c-0.433,0-0.716-0.1-0.85-0.3l0.1,0.55c-0.333-0.033-0.617-0.017-0.85,0.05H13.4
		c-0.233,0.033-0.433,0.117-0.6,0.25c-0.066,0.067-0.15,0.15-0.25,0.25c-0.2,0.2-0.466,0.467-0.8,0.8c-0.8,0.7-1.9,0.95-3.3,0.75
		c-0.067-0.1-0.083-0.184-0.05-0.25c-0.233,0.367-0.583,0.617-1.05,0.75c-0.5,0.167-1.033,0.183-1.6,0.05
		C5.717,23.3,5.7,23.133,5.7,23v-0.125c0.004-0.092,0.021-0.167,0.05-0.225C6.417,22.883,6.933,22.667,7.3,22l0.15-0.3l0.1,0.2
		C7.817,22.2,8.2,22.217,8.7,21.95z M31.55,16.1l-0.2-0.55C31.45,15.783,31.6,16,31.8,16.2l0.5,0.65l0.5,0.65l0.3,0.5
		c0.101,0.4,0.017,0.733-0.25,1c-0.133,0.167-0.399,0.4-0.8,0.7c0.2,0.233,0.434,0.5,0.7,0.8c0.167,0.233,0.267,0.55,0.3,0.95v0.1
		c-0.333,0.1-0.649,0.117-0.95,0.05v-0.65c-0.033,0.433-0.183,0.767-0.449,1c-0.167,0.167-0.483,0.4-0.95,0.7
		c-0.434,0-0.733,0.2-0.9,0.6l-0.1,0.55l-0.3,0.25c-0.176,0.137-0.342,0.253-0.5,0.351c-0.123,0.077-0.239,0.145-0.351,0.199
		L28.4,24.65c-0.067,0-0.117,0.017-0.15,0.05c-0.1,0-0.184,0-0.25,0c-0.533,0.033-1.017-0.184-1.45-0.65
		c0.467,0,0.783-0.083,0.95-0.25c0.1-0.1,0.15-0.233,0.15-0.4c0.033-0.167,0.133-0.3,0.3-0.4c0.133-0.067,0.383-0.083,0.75-0.05
		c0.267,0.033,0.45-0.083,0.55-0.35c0.066-0.167,0.05-0.684-0.05-1.55c0.1,0.3,0.434,0.4,1,0.3c0-0.6,0.017-1.033,0.05-1.3
		c0.3,0,0.483,0,0.55,0c0.101-0.066,0.184-0.183,0.25-0.35c0.134-0.3,0.134-0.767,0-1.4c0.066,0.067,0.2,0.1,0.4,0.1
		c0.1,0,0.25-0.017,0.45-0.05C32,17.85,31.884,17.1,31.55,16.1z M26.4,24.15L26.3,24.3l-0.05-0.25h0.2L26.4,24.15z M3,23.1
		c0.633-0.233,1.033-0.434,1.2-0.6c0.033-0.033,0.15-0.167,0.35-0.4c0.167-0.133,0.333-0.217,0.5-0.25
		c0.133,0.4,0.367,0.65,0.7,0.75c-0.3,0.167-0.717,0.3-1.25,0.4c-0.133,0.033-0.267,0.05-0.4,0.05c-0.067,0-0.133,0.017-0.2,0.05
		C3.533,23.133,3.233,23.133,3,23.1z M14.15,21.6c0.067-0.3,0.133-0.517,0.2-0.65c0.133,0.3,0.566,0.483,1.3,0.55
		c-0.333,0.133-0.667,0.2-1,0.2l-0.4-0.1H14.15z"/>
	<path style="fill-rule:evenodd;clip-rule:evenodd;fill:#635B52;" d="M48.9,33.55c-0.267-0.467-0.551-0.866-0.851-1.2
		c0-0.033-0.017-0.05-0.05-0.05c-0.1-0.1-0.2-0.2-0.3-0.3c0-0.033-0.017-0.05-0.05-0.05H47.2h-0.9V31.2
		c0.167-0.601,0.267-1.033,0.3-1.3c0.067-0.434,0.084-0.983,0.051-1.65c-0.034-0.533-0.051-0.967-0.051-1.3
		c0.034,0.8,0.217,1.6,0.551,2.399c0.066,0.101,0.166,0.317,0.3,0.65c0.399,0.533,0.767,1.1,1.1,1.7l0.05,0.35
		C48.533,32.417,48.634,32.917,48.9,33.55z M48.9,38.9c0.1-0.167,0.199-0.351,0.3-0.551c0,0.467,0.033,0.867,0.1,1.2
		c0,0.066-0.017,0.117-0.05,0.15c-0.3,0.767-0.467,1.217-0.5,1.35c0,0.033,0,0.15,0,0.351c0,0.133-0.033,0.233-0.1,0.3
		c-0.067-0.733-0.084-1.283-0.051-1.65C48.634,39.717,48.733,39.333,48.9,38.9z M45.75,31.9c-0.333,0.166-0.65,0.333-0.95,0.5
		c-0.066-0.134-0.1-0.301-0.1-0.5c0-0.4,0.083-0.733,0.25-1c-0.033,0.3-0.033,0.566,0,0.8c0.066-0.066,0.116-0.15,0.149-0.25V32
		c0.233,0.1,0.434,0.033,0.601-0.2C45.7,31.833,45.717,31.866,45.75,31.9z M46.45,40.3c0.366-0.033,0.75-0.133,1.149-0.3
		c0.067-0.033,0.134-0.066,0.2-0.1c0.101-0.067,0.217-0.134,0.351-0.2c-0.101,0.166-0.217,0.333-0.351,0.5v0.05l-0.05-0.05
		c-0.2,0.2-0.283,0.649-0.25,1.35c0.033,0.367,0.066,0.851,0.1,1.45c0,0.233,0.017,0.533,0.051,0.9
		c-0.034,0.333-0.101,0.55-0.2,0.649c0-0.666,0-1.2,0-1.6c0-0.733-0.167-1.2-0.5-1.4c0,0.066,0,0.117,0,0.15
		c-0.033,0.267-0.101,0.483-0.2,0.649H46.7c-0.233-0.133-0.4-0.517-0.5-1.149c-0.066-0.367-0.134-0.667-0.2-0.9
		C46.134,40.3,46.283,40.3,46.45,40.3z M43.9,39.25h0.05c0.133,0.033,0.3,0.134,0.5,0.3C44.217,39.483,44.033,39.384,43.9,39.25z"/>
	<path style="fill-rule:evenodd;clip-rule:evenodd;fill:#B3AA9E;" d="M49.3,39.55c-0.066-0.333-0.1-0.733-0.1-1.2
		c0.233-0.5,0.366-1.066,0.399-1.699V36.55c0-0.166,0-0.35,0-0.55c0-0.033,0-0.083,0-0.15c0-0.133-0.017-0.267-0.05-0.399
		c0-0.066-0.017-0.15-0.05-0.25c-0.1-0.434-0.267-0.9-0.5-1.4c-0.033-0.1-0.066-0.184-0.1-0.25c-0.267-0.633-0.367-1.133-0.301-1.5
		l-0.05-0.35l-0.899-4.9c0.267,1.2,0.533,2.084,0.8,2.65c0.1,0.233,0.316,0.616,0.649,1.149c0.334,0.5,0.551,0.884,0.65,1.15
		c0.467,1.1,0.7,2.15,0.7,3.15c0,0.267-0.033,1.149-0.101,2.649C50.184,38.917,49.833,39.583,49.3,39.55z M45.7,31.8
		c-0.167,0.233-0.367,0.3-0.601,0.2v-0.55V30.9l0.5-6C46.1,28.8,46.134,31.1,45.7,31.8z M46.75,42.35
		c0.1-0.166,0.167-0.383,0.2-0.649v1c0,0.233,0.017,0.633,0.05,1.2c0,0.5-0.066,0.866-0.2,1.1
		C46.6,43.866,46.583,42.983,46.75,42.35z M47.8,40.25l0.8,0.95c0,1.633-0.05,2.633-0.149,3c0,0.066-0.101,0.533-0.3,1.399
		c-0.134,0.567-0.2,1.034-0.2,1.4c-0.134-0.833-0.2-1.45-0.2-1.85c-0.066-0.467-0.1-0.884-0.1-1.25
		C47.616,43.533,47.6,43.233,47.6,43c-0.033-0.6-0.066-1.083-0.1-1.45c-0.033-0.7,0.05-1.149,0.25-1.35L47.8,40.25z M44.9,42.85
		c-0.2-0.133-0.284-0.533-0.25-1.199c0.066-0.767,0.1-1.25,0.1-1.45l0.2,0.85C44.95,42.083,44.934,42.684,44.9,42.85z"/>
	<path style="fill-rule:evenodd;clip-rule:evenodd;fill:#93846F;" d="M46.3,31.95h0.9c-0.434,0.066-0.834,0.184-1.2,0.35
		c-0.8,0.334-1.384,0.617-1.75,0.851c-0.2,0.133-0.55,0.233-1.05,0.3c-0.8,0.066-1.733,0.399-2.8,1l-0.75,0.35
		c-0.167,0.101-0.417,0.3-0.75,0.601c-0.167,0.133-0.517,0.25-1.051,0.35H37.8c0.066-0.033,0.117-0.05,0.15-0.05
		c0.133-0.066,0.267-0.134,0.399-0.2l0.551-0.45L40.8,34l3.7-1.45c0.1-0.066,0.2-0.116,0.3-0.149c0.3-0.167,0.617-0.334,0.95-0.5
		L46.3,31.95z M44.65,33.55l0.8,0.101c0.3,0.033,0.783-0.067,1.45-0.301c0.633-0.267,1.116-0.366,1.449-0.3
		c0,0.101,0.084,0.267,0.25,0.5c-0.1,0.101-0.383,0.2-0.85,0.3l-1.3,0.65c-0.434,0.167-0.983,0.217-1.65,0.15
		c-0.866-0.101-1.717,0.033-2.55,0.399C40.816,35.65,40,35.967,39.8,36l-0.1,0.05H39.6c-0.433,0.101-1.1,0.15-2,0.15
		c0.2-0.033,0.551-0.134,1.051-0.3c0.966-0.267,1.716-0.551,2.25-0.851l1.35-0.649l0.65-0.351c0.767-0.333,1.25-0.5,1.449-0.5H44.65
		z M31.35,36.05l-0.6-0.3c1.033,0.333,2.1,0.533,3.2,0.6l1-0.05c0.333,0,0.684-0.033,1.05-0.1l0.65-0.101
		c0.233-0.033,0.466-0.083,0.699-0.149l-0.8,0.3c-0.7,0.2-1.8,0.233-3.3,0.1C32.384,36.283,31.75,36.184,31.35,36.05z M26.15,33.35
		l0.1,0.351c0,0.033,0,0.066,0,0.1c0.033,0.4,0.233,0.7,0.6,0.9l1.7,1.1c0.233,0.134,0.617,0.467,1.15,1
		c0.166,0.101,0.267,0.217,0.3,0.351c-0.7-0.2-1.217-0.4-1.55-0.601l-1.7-1.3c-0.6-0.434-0.967-1.017-1.1-1.75
		c-0.1-0.5-0.083-1.2,0.05-2.1c0.033,0.033,0.1,0.333,0.2,0.899L26.15,33.35z M28.05,28.65L28.4,28.55c0.028,0,0.07,0,0.125,0h0.024
		c0.066,0,0.134,0.017,0.2,0.05c0.5,0.034,0.95,0.034,1.35,0c0-0.033,0.017-0.05,0.051-0.05l0.1-0.05v0.05
		c-0.467,0.434-0.983,0.75-1.55,0.95c-0.367,0.1-0.65,0.15-0.851,0.15L27.45,29.7l-0.5-0.05c-0.8-0.067-1.25-0.233-1.35-0.5
		l0.3-0.051c0.7-0.066,1.133-0.133,1.3-0.199h0.05L28.05,28.65z M24.6,34.05L24.5,34l-0.05-0.05L24.4,33.85
		c0-0.199,0.117-0.8,0.35-1.8c0.1-0.366,0.167-0.883,0.2-1.55c0.2-0.033,0.316,0.083,0.35,0.35c0.034,0.233,0,0.483-0.1,0.75
		c-0.133,0.334-0.184,0.75-0.15,1.25c0,0.301,0.017,0.733,0.05,1.301L24.6,34.05z M32.85,37.95h0.101c0.033,0,0.066,0,0.1,0
		c0.2,0.033,0.417,0.05,0.65,0.05l3,0.2c-0.167,0.066-0.65,0.149-1.45,0.25c-0.967,0.066-1.783,0.033-2.45-0.101
		c-0.8-0.166-1.2-0.366-1.2-0.6C32.134,37.884,32.55,37.95,32.85,37.95z M43.35,36.65c-0.933,0.066-1.633,0.166-2.1,0.3
		c-0.533,0.166-1.366,0.25-2.5,0.25c-1,0-1.75-0.05-2.25-0.15l-1.85-0.45c2.199,0.067,3.816,0.017,4.85-0.149l2.1-0.15L43.35,36.65z
		 M26.7,26.35c0.133-0.199,0.25-0.433,0.35-0.699l0.05,0.55c-0.066,0.233-0.149,0.35-0.25,0.35l-0.2-0.05L26.7,26.35z
		 M18.025,26.575L18.05,26.6v0.051l0.05,0.05c0.133,0.166,0.283,0.267,0.45,0.3c0.1,0.033,0.4,0.05,0.9,0.05
		c0.533,0,1.35,0.017,2.45,0.05c0.967-0.033,1.767-0.116,2.4-0.25l1.2-0.199c-0.233,0.399-0.483,0.633-0.75,0.699
		c-0.267,0.067-0.583,0.084-0.95,0.051c-0.466-0.034-0.8-0.067-1-0.101h-2.7c-0.867,0-1.467-0.1-1.8-0.3
		c-0.2-0.066-0.316-0.233-0.35-0.5C17.979,26.529,18.004,26.554,18.025,26.575z M15.85,24.3H15.8c0.1-0.066,0.184-0.149,0.25-0.25
		l0.1-0.05c0.1-0.133,0.184-0.267,0.25-0.4c0.133,0.167,0.167,0.367,0.1,0.6C16.267,24.333,16.05,24.366,15.85,24.3z M33.4,27.6
		L32.75,27.7H32.7c-0.434,0.033-0.783,0.017-1.05-0.05c0.433-0.267,0.85-0.45,1.25-0.551l0.35-0.05c0.5-0.066,0.8-0.116,0.9-0.149
		c-0.101,0.267-0.267,0.449-0.5,0.55C33.583,27.483,33.5,27.533,33.4,27.6z M27.8,25.2V26.1l-0.05,0.25v0.101
		c-0.066,0.166-0.167,0.25-0.3,0.25H27.35L27.5,26.1v-0.55l0.15-0.399l0.1-0.351L27.8,25.2z"/>
	<path style="fill-rule:evenodd;clip-rule:evenodd;fill:#786C5C;" d="M35.75,37.7l2.2-0.05h-1.226
		c0.192-0.005,0.434-0.021,0.726-0.051c0.5,0,0.916,0.034,1.25,0.101c1.1,0.267,1.816,0.316,2.149,0.149l0.5-0.35l1.101-0.25
		c0.399-0.134,0.899-0.2,1.5-0.2h2.3c0.406,0.063,0.723,0.171,0.95,0.325c-0.356-0.254-0.807-0.429-1.351-0.525H45
		c-0.333,0.034-0.6-0.017-0.8-0.149c-0.867-0.434-1.483-0.65-1.851-0.65h-1.1c-0.033,0-0.35,0.05-0.95,0.15h-1l0.3-0.15H39.7
		L39.8,36l0.8-0.15l1.2,0.051c0.066,0,0.434-0.034,1.101-0.101c0.466-0.033,0.833-0.017,1.1,0.05l0.25,0.101L42.5,35.9
		c0.5,0.033,1.2,0.166,2.1,0.399c0.101,0.033,0.717,0.134,1.851,0.3c0.267,0.101,0.533,0.134,0.8,0.101
		c0.267,0,0.65-0.084,1.15-0.25c0.466-0.066,0.816-0.05,1.05,0.05l0.149,0.05v0.101l-0.1,0.55c-0.134,0.233-0.4,0.383-0.8,0.45
		c-0.967,0.066-1.816,0.05-2.55-0.051c-0.834-0.1-1.7-0.149-2.601-0.149c-0.8,0-1.399,0.066-1.8,0.2
		c-0.667,0.333-1.2,0.517-1.6,0.55c-0.301,0.033-0.684,0.017-1.15-0.05c-0.566-0.067-0.95-0.101-1.15-0.101L37.9,38
		c-0.117,0-0.234,0.017-0.351,0.05h-0.1c-0.066,0-0.134,0-0.2,0c-0.033,0-0.083,0-0.15,0c-0.166,0-0.283,0-0.35,0L35,37.85
		L35.75,37.7z M48,32.3l-2,0.5l1.5-0.75L47.7,32C47.8,32.1,47.9,32.2,48,32.3z M44.5,33.35l1.15-0.05l-1,0.25H44.35
		c-0.199,0-0.683,0.167-1.449,0.5L42.25,34.4l-0.7,0.3C41.85,34.467,42.833,34.017,44.5,33.35z M26.6,36.3
		c0.433,0.134,0.817,0.4,1.15,0.8l0.05,0.051c0.334,0.267,0.584,0.366,0.75,0.3l-0.35-0.4l1,0.15h1l0.149,0.05H30.4
		c0.133,0.066,0.416,0.316,0.85,0.75c-0.5-0.167-1.05-0.267-1.65-0.3L29,37.65c-1.1-0.2-1.983-0.634-2.65-1.301L26.6,36.3z
		 M29.4,35.3L29.8,35.4l0.95,0.35l0.6,0.3c-1.433,0-2.416-0.233-2.949-0.7c-0.334-0.3-0.65-0.649-0.95-1.05
		c0.5,0.533,1.083,0.851,1.75,0.95L29.4,35.3z M26.9,33.75c-0.066,0.066-0.117,0.184-0.15,0.35c-0.067,0.2-0.133,0.317-0.2,0.351
		c-0.1-0.167-0.2-0.384-0.3-0.65c0-0.033,0-0.066,0-0.1l-0.1-0.351L26.1,33c-0.067-0.366-0.067-0.7,0-1v0.9
		c0.066-0.267,0.15-0.434,0.25-0.5c0.1,0.066,0.183,0.267,0.25,0.6c0.066,0.366,0.15,0.6,0.25,0.7L26.9,33.75z M26.6,30.5
		c0.267,0.167,0.267,0.35,0,0.55h-0.05L26.6,30.5z M29.95,29.45c-0.2,0.166-0.533,0.35-1,0.55l-0.05,0.05h-0.15
		c-0.667,0.167-1.184,0.217-1.55,0.15l-0.4-0.15l0.15-0.399l0.5,0.05l0.399-0.05l0.101,0.05c0.434,0.1,0.767,0.1,1,0l0.3-0.25
		c0.3-0.033,0.517-0.084,0.65-0.15L29.8,29.45H29.95z M28,24.7c0.033,0.033,0.083,0.05,0.15,0.05l0.05,0.55
		c0,0.134-0.084,0.617-0.25,1.45c-0.066,0.267-0.167,0.483-0.3,0.65c-0.167,0.133-0.483,0.35-0.95,0.649h0.1
		c-0.233,0.233-0.383,0.417-0.45,0.55c0.467-0.066,0.8-0.083,1-0.05l0.7,0.101l-0.8,0.25H27.2l-0.7,0.05l0.05-0.15l-0.2,0.05
		L25.9,29.1l-0.3,0.051l-0.55,0.1l0.05-0.05l0.15-0.3l0.1-0.101l0.45-0.35l0.35-0.601c0.3-0.166,0.533-0.333,0.7-0.5
		c0.1-0.1,0.266-0.449,0.5-1.05c0,0.2-0.033,0.5-0.1,0.9c0.066,0,0.134-0.167,0.2-0.5c0.133,0,0.233-0.084,0.3-0.25V26.35l0.05-0.25
		l0.05-0.55L27.8,25.2l-0.05-0.4l-0.1,0.351H27.6L27.5,25.1L27.45,24.7C27.616,24.733,27.8,24.733,28,24.7z M27.8,36.55l-0.75-0.7
		c0.334,0.167,0.517,0.284,0.55,0.351L27.8,36.55z M34.8,40.2l-1.1-0.5l1.05,0.05c0.4,0.033,0.733,0.017,1-0.05
		C35.583,39.634,35.333,39.6,35,39.6c-0.366,0.034-0.634,0.051-0.8,0.051c-0.5-0.134-0.884-0.233-1.15-0.301l-0.649-0.6l0.649,0.15
		c0.2,0.033,0.8,0.05,1.8,0.05c0.2,0,0.45-0.066,0.75-0.2c0.2-0.1,0.45-0.134,0.75-0.1c0.534,0,0.95-0.134,1.25-0.4l2.15,0.3
		c0.233,0.033,0.566,0.017,1-0.05h0.35L41,38.55c-0.7,0.101-1.2,0.2-1.5,0.3l-1.25,0.601c-0.5,0.233-0.934,0.383-1.3,0.45
		L36.1,40.15c-0.133,0.033-0.55,0.05-1.25,0.05H34.8z M48.05,32.35l0.45,0.601h-1.05l-0.8,0.149
		C46.983,32.967,47.45,32.717,48.05,32.35z M44.95,36.1c0.3-0.033,0.717-0.283,1.25-0.75c0.434-0.366,0.816-0.55,1.149-0.55
		c0.467,0,1.134-0.033,2-0.1l0.15,0.5c-0.333-0.066-0.634-0.066-0.9,0c-0.166,0.066-0.35,0.184-0.55,0.35
		c-0.233,0.267-0.383,0.417-0.45,0.45v0.05c-0.066,0.033-0.149,0.066-0.25,0.101l-0.6,0.149h-0.8
		C45.684,36.3,45.35,36.233,44.95,36.1z M17.5,23.5c-0.033,0.1-0.05,0.2-0.05,0.3c0,0.267-0.034,0.467-0.1,0.601
		c-0.067,0.1-0.25,0.199-0.55,0.3c-0.267,0.133-0.566,0.184-0.9,0.149c0.167,0.034,0.417,0.15,0.75,0.351L16.3,25.1l-0.7-0.35
		c0.467,0.033,0.8,0,1-0.1c0.167-0.134,0.283-0.334,0.35-0.601c0-0.4-0.034-0.65-0.1-0.75l-0.2-0.15l0.1-0.3h0.05
		c0.267,0,0.45,0.066,0.55,0.2C17.35,23.25,17.4,23.4,17.5,23.5z M17.7,27.4c-0.8-0.934-1.383-1.5-1.75-1.7l0.45,0.1
		c-0.333-0.233-0.75-0.434-1.25-0.6c-0.4-0.066-0.717-0.15-0.95-0.25c-0.534-0.3-0.817-0.667-0.85-1.1c-0.033-0.067,0-0.25,0.1-0.55
		c0-0.033,0-0.066,0-0.1c0.033,0.433,0.133,0.75,0.3,0.95v0.05c0.067,0.366,0.267,0.616,0.6,0.75c0.133,0.066,0.517,0.149,1.15,0.25
		l1,0.25c-0.167,0-0.3,0-0.4,0c0.467,0.1,0.816,0.283,1.05,0.55c0.133,0.134,0.233,0.35,0.3,0.65
		C17.517,27.017,17.6,27.267,17.7,27.4z M34.95,26.4c0.066-0.067,0.116-0.15,0.149-0.25c-0.066,0.399-0.183,0.733-0.35,1L34.7,27.2
		l-0.2,0.1l-0.25-0.05c0.233-0.134,0.434-0.366,0.6-0.7L34.95,26.4z M13.4,22.1v0.2l-0.2-0.15L13.4,22.1z M32.45,27.8l0.3-0.1
		L33.4,27.6l0.149-0.05c-0.233,0.101-0.366,0.15-0.399,0.15h0.55c-0.367,0.166-0.75,0.2-1.15,0.1H32.45z"/>
	<path style="fill-rule:evenodd;clip-rule:evenodd;fill:#867966;" d="M44.65,33.55l1-0.25l0.899-0.2h0.101l0.8-0.149h1.05
		l-0.45-0.601c0.3,0.334,0.584,0.733,0.851,1.2c0.033,0.066,0.066,0.15,0.1,0.25c0.233,0.5,0.4,0.967,0.5,1.4l-0.15-0.5
		c-0.866,0.066-1.533,0.1-2,0.1c-0.333,0-0.716,0.184-1.149,0.55c-0.533,0.467-0.95,0.717-1.25,0.75l-0.7-0.149L44,35.85
		c-0.267-0.066-0.634-0.083-1.1-0.05C42.233,35.866,41.866,35.9,41.8,35.9l-1.2-0.051L39.8,36c0.2-0.033,1.017-0.35,2.45-0.95
		c0.833-0.366,1.684-0.5,2.55-0.399c0.667,0.066,1.217,0.017,1.65-0.15l1.3-0.65c0.467-0.1,0.75-0.199,0.85-0.3
		c-0.166-0.233-0.25-0.399-0.25-0.5c-0.333-0.066-0.816,0.033-1.449,0.3c-0.667,0.233-1.15,0.334-1.45,0.301L44.65,33.55z
		 M49.5,37.2l0.1-0.55c-0.033,0.633-0.166,1.199-0.399,1.699c-0.101,0.2-0.2,0.384-0.3,0.551c-0.067,0.1-0.134,0.199-0.2,0.3
		c0.1-0.167,0.2-0.334,0.3-0.5C49.3,38.2,49.467,37.7,49.5,37.2z M47.7,32l-0.2,0.05L46,32.8l-0.4,0.05
		c-0.433,0.233-0.8,0.4-1.1,0.5c-1.667,0.667-2.65,1.117-2.95,1.351l0.7-0.3L40.9,35.05c-0.534,0.3-1.284,0.584-2.25,0.851
		c-0.5,0.166-0.851,0.267-1.051,0.3c0.9,0,1.567-0.05,2-0.15l-0.3,0.15h1c0.601-0.101,0.917-0.15,0.95-0.15h1.1
		c0.367,0,0.983,0.217,1.851,0.65c0.2,0.133,0.467,0.184,0.8,0.149h0.85c0.544,0.097,0.994,0.271,1.351,0.525
		c-0.228-0.154-0.544-0.263-0.95-0.325h-2.3c-0.601,0-1.101,0.066-1.5,0.2L41.35,37.5l-0.5,0.35
		c-0.333,0.167-1.05,0.117-2.149-0.149c-0.334-0.066-0.75-0.101-1.25-0.101c-0.292,0.029-0.533,0.046-0.726,0.051H34.5
		c-1.566,0-2.816-0.284-3.75-0.851c0.2,0.7,0.9,1.084,2.1,1.15c-0.3,0-0.716-0.066-1.25-0.2c0,0.233,0.4,0.434,1.2,0.6
		c0.667,0.134,1.483,0.167,2.45,0.101c0.8-0.101,1.283-0.184,1.45-0.25l-3-0.2c0.133,0,0.267-0.017,0.399-0.05l1.65-0.25L35,37.85
		l1.75,0.2c0.066,0,0.184,0,0.35,0c0.034,0.066,0.2,0.134,0.5,0.2c-0.3,0.267-0.716,0.4-1.25,0.4c-0.3-0.034-0.55,0-0.75,0.1
		c-0.3,0.134-0.55,0.2-0.75,0.2c-1,0-1.6-0.017-1.8-0.05L32.4,38.75l-0.15-0.1c-0.267-0.233-0.6-0.45-1-0.65
		c-0.434-0.434-0.717-0.684-0.85-0.75H30.35L30.2,37.2h-1l-1-0.15c-0.2-0.2-0.334-0.366-0.4-0.5l-0.2-0.35
		c-0.033-0.066-0.216-0.184-0.55-0.351c-0.3-0.3-0.6-0.533-0.9-0.699L24.6,34.05l0.5,0.101c-0.033-0.567-0.05-1-0.05-1.301
		c-0.033-0.5,0.017-0.916,0.15-1.25c0.1-0.267,0.133-0.517,0.1-0.75c-0.033-0.267-0.15-0.383-0.35-0.35c0-0.134,0-0.283,0-0.45
		c-0.034-0.267,0-0.533,0.1-0.8l0.55-0.1c0.1,0.267,0.55,0.433,1.35,0.5L26.8,30.05c-0.733-0.267-1.167-0.383-1.3-0.35
		c0.033,0.133,0.183,0.283,0.45,0.45c0.133,0.066,0.35,0.183,0.65,0.35l-0.05,0.55c-0.2,0.167-0.333,0.384-0.4,0.65L26.1,32
		c-0.067,0.3-0.067,0.634,0,1l0.05,0.35L25.9,32.3c-0.1-0.566-0.167-0.866-0.2-0.899c-0.133,0.899-0.15,1.6-0.05,2.1
		c0.133,0.733,0.5,1.316,1.1,1.75l1.7,1.3c0.333,0.2,0.85,0.4,1.55,0.601c-0.033-0.134-0.134-0.25-0.3-0.351
		c-0.533-0.533-0.917-0.866-1.15-1l-1.7-1.1c-0.367-0.2-0.567-0.5-0.6-0.9c0.1,0.267,0.2,0.483,0.3,0.65
		c0.067-0.033,0.133-0.15,0.2-0.351c0.033-0.166,0.083-0.283,0.15-0.35l0.55,0.55c0.3,0.4,0.616,0.75,0.95,1.05
		c0.533,0.467,1.517,0.7,2.949,0.7c0.4,0.134,1.034,0.233,1.9,0.3c1.5,0.134,2.6,0.101,3.3-0.1l0.8-0.3
		c-0.233,0.066-0.466,0.116-0.699,0.149c0.466-0.1,0.866-0.216,1.199-0.35c0.534-0.1,0.884-0.217,1.051-0.35
		c0.333-0.301,0.583-0.5,0.75-0.601l0.75-0.35c1.066-0.601,2-0.934,2.8-1c0.5-0.066,0.85-0.167,1.05-0.3
		c0.366-0.233,0.95-0.517,1.75-0.851c0.366-0.166,0.767-0.283,1.2-0.35h0.45C47.684,31.95,47.7,31.967,47.7,32z M43.35,36.65
		L41.6,36.3l-2.1,0.15c-1.033,0.166-2.65,0.217-4.85,0.149l1.85,0.45c0.5,0.101,1.25,0.15,2.25,0.15c1.134,0,1.967-0.084,2.5-0.25
		C41.717,36.816,42.417,36.717,43.35,36.65z M37.55,38.05C37.666,38.017,37.783,38,37.9,38l-0.051,0.05
		C37.763,38.021,37.662,38.021,37.55,38.05z M47.6,40c-0.399,0.167-0.783,0.267-1.149,0.3c0.267-0.033,0.533-0.1,0.8-0.2L47.6,40z
		 M32.6,40.5l0.15,0.05c0.167,0.066,0.35,0.117,0.55,0.15C33,40.667,32.767,40.6,32.6,40.5z M26.35,36.725
		c0.088,0.172,0.221,0.347,0.4,0.525c-0.133-0.1-0.25-0.217-0.35-0.35c-0.033-0.034-0.05-0.067-0.05-0.101l0.2,0.25
		C26.468,36.938,26.401,36.831,26.35,36.725z M24.45,33.95c0,0.066,0.033,0.217,0.1,0.45c-0.066-0.2-0.117-0.384-0.15-0.551
		L24.45,33.95z M27.35,24.65V26.3c-0.233,0.601-0.399,0.95-0.5,1.05c-0.167,0.167-0.4,0.334-0.7,0.5
		c0.267-0.399,0.434-0.649,0.5-0.75c-0.2,0.101-0.316,0.217-0.35,0.351l-0.1,0.1L26,27.8l0.1-0.2v-0.05L26,27.65l-0.15,0.1
		l-0.4,0.35L24.7,28.15L24.25,28.1c0.033-0.033,0.167-0.133,0.4-0.3c-0.6,0.101-0.917,0.15-0.95,0.15l-1.15-0.25
		c-0.3-0.066-0.667-0.084-1.1-0.05c-0.733,0.033-1.117,0.05-1.15,0.05c-0.566,0.033-1.017,0.05-1.35,0.05
		c-0.567,0-0.983-0.116-1.25-0.35c-0.1-0.134-0.184-0.384-0.25-0.75c-0.067-0.301-0.167-0.517-0.3-0.65
		c-0.233-0.267-0.583-0.45-1.05-0.55c0.1,0,0.233,0,0.4,0l-1-0.25c-0.633-0.101-1.017-0.184-1.15-0.25
		c-0.333-0.134-0.533-0.384-0.6-0.75c0.167,0.166,0.433,0.3,0.8,0.399l0.7,0.15c0.2-0.134,0.4-0.283,0.6-0.45
		c0.2,0.066,0.417,0.033,0.65-0.1c0.067-0.233,0.033-0.434-0.1-0.6c0.1-0.133,0.184-0.283,0.25-0.45l0.2,0.15
		c0.066,0.1,0.1,0.35,0.1,0.75c-0.067,0.267-0.184,0.467-0.35,0.601c-0.2,0.1-0.533,0.133-1,0.1l0.7,0.35l0.35,0.101l0.45,0.25
		l-0.15-0.15c0.167,0.101,0.483,0.467,0.95,1.101c0.031,0.062,0.073,0.12,0.125,0.175c-0.021-0.021-0.046-0.046-0.075-0.075
		c0.033,0.267,0.15,0.434,0.35,0.5c0.333,0.2,0.934,0.3,1.8,0.3h2.7c0.2,0.033,0.534,0.066,1,0.101
		c0.367,0.033,0.684,0.017,0.95-0.051c0.267-0.066,0.517-0.3,0.75-0.699l-1.2,0.199c0.7-0.233,1.467-0.316,2.3-0.25l0.1-0.25
		l-0.05,0.15l0.2,0.05c0.1,0,0.183-0.116,0.25-0.35l-0.05-0.55V25.6c0.101-0.3,0.167-0.633,0.2-1
		C27.283,24.6,27.316,24.616,27.35,24.65z M35.6,26.75c-0.267,0.467-0.616,0.783-1.05,0.95c-0.166,0.066-0.333,0.116-0.5,0.149
		C34.783,27.616,35.3,27.25,35.6,26.75z M13.4,22.1v-1.2h0.05c0,0.467-0.017,1.184-0.05,2.15V22.3V22.1z M25.1,29.2
		c0.033-0.134,0.083-0.25,0.15-0.351V28.9L25.1,29.2z M33.55,27.55L33.4,27.6c0.1-0.066,0.183-0.116,0.25-0.149
		c0.233-0.101,0.399-0.283,0.5-0.55h0.05c0.3-0.067,0.55-0.233,0.75-0.5L34.85,26.55c-0.166,0.334-0.366,0.566-0.6,0.7H34.1
		C33.866,27.384,33.684,27.483,33.55,27.55z M32.75,27.7l-0.3,0.1c-0.334-0.066-0.617-0.05-0.851,0.05
		c-0.333,0.167-0.633,0.483-0.899,0.95c-0.233,0.3-0.483,0.517-0.75,0.65H29.8L29.9,29.3c-0.134,0.066-0.351,0.117-0.65,0.15
		l-0.3,0.25c-0.233,0.1-0.566,0.1-1,0l-0.101-0.05c0.2,0,0.483-0.051,0.851-0.15c0.566-0.2,1.083-0.517,1.55-0.95
		c0.333-0.133,0.783-0.434,1.35-0.899c0.434-0.267,0.867-0.45,1.301-0.551c-0.4,0.101-0.817,0.284-1.25,0.551
		c0.267,0.066,0.616,0.083,1.05,0.05H32.75z M27.5,26.1L27.45,24.7L27.5,25.1l0.1,0.051h0.051L27.5,25.55V26.1z M27.8,26.1V25.2
		l0.05,0.35L27.8,26.1z M27.2,28.9c-0.167,0.066-0.6,0.133-1.3,0.199l0.45-0.25l0.2-0.05l-0.05,0.15L27.2,28.9z M28.6,30.5h0.15
		c-0.057,0.012-0.106,0.028-0.15,0.05V30.5z M28.95,30l1.2-0.4l-0.301,0.2l-0.1,0.05c-0.267,0.233-0.634,0.4-1.1,0.5
		C28.783,30.184,29,30.066,29.3,30l-0.05-0.05l-0.35,0.1L28.95,30z M28.4,28.55l-0.15-0.05c0.099,0.03,0.19,0.048,0.275,0.05
		C28.471,28.55,28.429,28.55,28.4,28.55z M28.45,27.55l-0.2,0.95l0.1-0.55L28.45,27.55z M33.05,39.35
		c0.267,0.067,0.65,0.167,1.15,0.301c0.166,0,0.434-0.017,0.8-0.051c0.333,0,0.583,0.034,0.75,0.101c-0.267,0.066-0.6,0.083-1,0.05
		L33.7,39.7l-0.45-0.2L33.05,39.35z"/>
	<path style="fill-rule:evenodd;clip-rule:evenodd;fill:#655A4C;" d="M47.6,36.05V36c0.067-0.033,0.217-0.184,0.45-0.45
		c0.2-0.166,0.384-0.283,0.55-0.35c0.267-0.066,0.567-0.066,0.9,0c0.033,0.1,0.05,0.184,0.05,0.25h-0.8c-0.1,0-0.434,0.166-1,0.5
		L47.6,36.05z M46.75,36.3l-0.8,0.101c0.267,0.1,0.666,0.149,1.2,0.149c0.333,0,0.683-0.133,1.05-0.399
		C48.467,36.05,48.934,36,49.6,36c0,0.2,0,0.384,0,0.55L49.45,36.5c-0.233-0.1-0.584-0.116-1.05-0.05
		c-0.5,0.166-0.884,0.25-1.15,0.25c-0.267,0.033-0.533,0-0.8-0.101c-1.134-0.166-1.75-0.267-1.851-0.3
		C43.7,36.066,43,35.934,42.5,35.9l1.75,0.05l0.7,0.149c0.399,0.134,0.733,0.2,1,0.2H46.75z M27.45,34.3l-0.55-0.55l-0.05-0.05
		c-0.1-0.101-0.184-0.334-0.25-0.7c-0.067-0.333-0.15-0.533-0.25-0.6c-0.1,0.066-0.184,0.233-0.25,0.5V32l0.05-0.3
		c0.067-0.267,0.2-0.483,0.4-0.65h0.05c0.267-0.2,0.267-0.383,0-0.55c-0.3-0.167-0.517-0.283-0.65-0.35
		c-0.267-0.167-0.417-0.317-0.45-0.45c0.133-0.033,0.567,0.083,1.3,0.35l0.4,0.15c0.366,0.066,0.883,0.017,1.55-0.15h0.15l0.35-0.1
		L29.3,30c-0.3,0.066-0.517,0.184-0.649,0.35c-0.2,0.067-0.367,0.101-0.5,0.101L28.6,30.5v0.05c-0.433,0.101-0.833,0.15-1.199,0.15
		l-0.7-0.55c0,0.133,0.066,0.3,0.2,0.5l0.05,0.649c-0.034,0.434,0,0.934,0.1,1.5c0.267,1.167,1.05,2,2.351,2.5l-0.2-0.05
		C28.533,35.15,27.95,34.833,27.45,34.3z M26.6,36.3l-0.25,0.05c0.667,0.667,1.55,1.101,2.65,1.301c-0.634,0.033-1.134,0.033-1.5,0
		c-0.066-0.034-0.116-0.051-0.15-0.051c-0.066-0.033-0.116-0.05-0.149-0.05l-0.4-0.25l-0.05-0.05
		c-0.179-0.179-0.312-0.354-0.4-0.525L26.3,36.6c-0.023-0.063-0.04-0.13-0.05-0.199v-0.2L26.6,36.3z M28.2,37.05l0.35,0.4
		c-0.166,0.066-0.416-0.033-0.75-0.3c-0.033-0.101-0.2-0.301-0.5-0.601c-0.4-0.333-0.917-0.666-1.55-1L24.6,34.7
		c-0.033-0.101-0.05-0.2-0.05-0.3c-0.066-0.233-0.1-0.384-0.1-0.45L24.5,34l0.1,0.05l1.55,1.101c0.3,0.166,0.6,0.399,0.9,0.699
		l0.75,0.7C27.866,36.684,28,36.85,28.2,37.05z M40.75,38.5c-0.434,0.066-0.767,0.083-1,0.05l-2.15-0.3
		c-0.3-0.066-0.466-0.134-0.5-0.2c0.067,0,0.117,0,0.15,0c0.066,0,0.134,0,0.2,0h0.1c0.112-0.029,0.213-0.029,0.3,0
		c0.2,0,0.584,0.033,1.15,0.101c0.467,0.066,0.85,0.083,1.15,0.05c0.399-0.033,0.933-0.217,1.6-0.55c0.4-0.134,1-0.2,1.8-0.2
		c0.9,0,1.767,0.05,2.601,0.149c0.733,0.101,1.583,0.117,2.55,0.051c0.399-0.067,0.666-0.217,0.8-0.45c-0.033,0.5-0.2,1-0.5,1.5
		c-1.833-0.2-3.217-0.351-4.15-0.45l-2-0.05C41.783,38.2,41.083,38.3,40.75,38.5z M33.7,38c-0.233,0-0.45-0.017-0.65-0.05
		c-0.033,0-0.066,0-0.1,0H32.85c-1.199-0.066-1.899-0.45-2.1-1.15c0.934,0.566,2.184,0.851,3.75,0.851h2.225h1.226l-2.2,0.05
		l-1.65,0.25C33.967,37.983,33.833,38,33.7,38z M33.3,40.7c-0.2-0.033-0.383-0.084-0.55-0.15l-0.1-0.1l-0.25-0.5
		c0.5,0.233,1.267,0.316,2.3,0.25h0.1h0.05c0.7,0,1.117-0.017,1.25-0.05l0.851-0.25c0.366-0.067,0.8-0.217,1.3-0.45l1.25-0.601
		c0.3-0.1,0.8-0.199,1.5-0.3l0.1-0.05c1.167-0.033,2.617,0.066,4.351,0.3c0.633,0.134,1.083,0.316,1.35,0.55
		c0.134,0.2,0.267,0.334,0.4,0.4l0.6,0.15c-0.066,0.033-0.133,0.066-0.2,0.1l-0.35,0.1l-0.45-0.05c-0.3-0.066-0.7-0.233-1.2-0.5
		c-0.566-0.267-0.966-0.434-1.199-0.5C43.9,38.884,43.1,38.8,42,38.8c-1,0-1.55,0.017-1.65,0.05c-0.466,0.167-0.883,0.4-1.25,0.7
		c-0.366,0.267-0.783,0.45-1.25,0.55l-1.5,0.25c-0.533,0-1,0.067-1.399,0.2C34.25,40.684,33.7,40.733,33.3,40.7z M34.85,20.85
		l-0.5,1.65c-0.233-0.2-0.75-0.267-1.55-0.2l-0.05-0.65c0.1-0.033,0.2-0.066,0.3-0.1c0.2-0.066,0.417-0.183,0.65-0.35
		c0.1-0.067,0.184-0.133,0.25-0.2L34,20.95c0.3-0.267,0.55-0.55,0.75-0.85c0.033-0.1,0.083-0.184,0.15-0.25l0.149-0.3
		c0-0.066,0.017-0.117,0.05-0.15v0.05C35.066,19.85,34.983,20.317,34.85,20.85z M17.75,23.7c-0.033,0.066-0.067,0.133-0.1,0.2
		c-0.333,0.767-0.566,1.234-0.7,1.4l0.15,0.15l-0.45-0.25c-0.333-0.2-0.583-0.316-0.75-0.351c0.333,0.034,0.633-0.017,0.9-0.149
		c0.3-0.101,0.483-0.2,0.55-0.3c0.066-0.134,0.1-0.334,0.1-0.601c0-0.1,0.017-0.2,0.05-0.3C17.533,23.6,17.617,23.667,17.75,23.7z
		 M13.4,20.9v1.2l-0.2,0.05l0.2,0.15v0.75l0.05,0.15c0,0.033,0,0.066,0,0.1c-0.1,0.3-0.133,0.483-0.1,0.55
		c0.033,0.433,0.316,0.8,0.85,1.1c0.233,0.1,0.55,0.184,0.95,0.25c0.5,0.166,0.917,0.366,1.25,0.6l-0.45-0.1
		c0.367,0.2,0.95,0.767,1.75,1.7c0.267,0.233,0.683,0.35,1.25,0.35c0.333,0,0.783-0.017,1.35-0.05c0.034,0,0.417-0.017,1.15-0.05
		c0.433-0.034,0.8-0.017,1.1,0.05l1.15,0.25c0.033,0,0.35-0.05,0.95-0.15c-0.233,0.167-0.367,0.267-0.4,0.3l0.45,0.051l0.75-0.051
		c-0.167,0.167-0.35,0.267-0.55,0.301l-0.95-0.15C23.517,28.184,23.2,28.1,23,28c-0.267-0.134-0.65-0.2-1.15-0.2
		c-1.1,0-1.767,0.017-2,0.05c-0.833,0.101-1.633,0.051-2.4-0.149c-0.034-0.267-0.05-0.45-0.05-0.55c-0.066-0.167-0.2-0.317-0.4-0.45
		c-0.467-0.367-0.817-0.584-1.05-0.65c-0.3-0.133-0.65-0.25-1.05-0.35c-0.5-0.101-0.816-0.184-0.95-0.25
		c-0.3-0.134-0.55-0.351-0.75-0.65c-0.1-0.166-0.2-0.5-0.3-1c-0.1-0.433-0.233-0.75-0.4-0.95l0.1-0.15l-0.05-1.3
		c0.1-0.1,0.184-0.183,0.25-0.25C12.967,21.017,13.167,20.933,13.4,20.9z M26.15,27.85L25.8,28.45l-0.45,0.35
		c0.3-0.333,0.517-0.666,0.65-1l0.2-0.25l0.1-0.1c0.034-0.134,0.15-0.25,0.35-0.351C26.583,27.2,26.417,27.45,26.15,27.85z
		 M27.45,24.7L27.5,26.1L27.35,26.7h0.101c-0.066,0.333-0.134,0.5-0.2,0.5c0.066-0.4,0.1-0.7,0.1-0.9V24.65
		C27.384,24.65,27.417,24.667,27.45,24.7z M35.35,23.25L35.2,23.6l-0.25-0.35c-0.033-0.067-0.066-0.133-0.101-0.2
		c0.101,0,0.217,0.017,0.351,0.05c0.066,0,0.133,0,0.2,0l-0.051,0.1V23.25z M30.15,29.6l-1.2,0.4c0.467-0.2,0.8-0.384,1-0.55
		c0.267-0.134,0.517-0.351,0.75-0.65c0.267-0.467,0.566-0.783,0.899-0.95c0.233-0.1,0.517-0.116,0.851-0.05h0.1
		c0.4,0.101,0.783,0.066,1.15-0.1h-0.55c0.033,0,0.166-0.05,0.399-0.15c0.134-0.066,0.316-0.166,0.55-0.3h0.15l0.25,0.05l0.2-0.1
		c-0.267,0.333-0.483,0.55-0.65,0.649c-0.434,0.134-0.8,0.25-1.1,0.351c-0.467,0-0.8,0.033-1,0.1
		c-0.467,0.066-0.884,0.316-1.25,0.75L30.15,29.6z M16.75,22.85c0.067-0.233,0.117-0.45,0.15-0.65c0.033,0,0.067,0,0.1,0
		c0.2,0.066,0.383,0.1,0.55,0.1c-0.133,0.2-0.2,0.434-0.2,0.7v0.05c-0.1-0.133-0.283-0.2-0.55-0.2H16.75z M28.15,24.75l0.05,0.05
		c0.233,0.167,0.267,0.584,0.1,1.25c-0.033,0.167-0.1,0.4-0.2,0.7c-0.1,0.267-0.216,0.467-0.35,0.6l-0.1,0.051
		c0.133-0.167,0.233-0.384,0.3-0.65c0.166-0.833,0.25-1.316,0.25-1.45L28.15,24.75z M26.8,28.05l1.55-0.1l-0.1,0.55l0.15,0.05
		L28.05,28.65l-0.7-0.101c-0.199-0.033-0.533-0.017-1,0.05C26.417,28.467,26.567,28.283,26.8,28.05z"/>
	<path style="fill-rule:evenodd;clip-rule:evenodd;fill:#473E36;" d="M49.6,36c-0.666,0-1.133,0.05-1.399,0.15
		c-0.367,0.267-0.717,0.399-1.05,0.399c-0.534,0-0.934-0.05-1.2-0.149l0.8-0.101l0.6-0.149c0.101-0.034,0.184-0.067,0.25-0.101
		l0.15-0.1c0.566-0.334,0.9-0.5,1-0.5h0.8c0.033,0.133,0.05,0.267,0.05,0.399C49.6,35.917,49.6,35.967,49.6,36z M45.65,33.3
		l-1.15,0.05c0.3-0.1,0.667-0.267,1.1-0.5L46,32.8l2-0.5c0.033,0,0.05,0.017,0.05,0.05c-0.6,0.367-1.066,0.617-1.399,0.75H46.55
		L45.65,33.3z M29.4,35.3c-1.301-0.5-2.084-1.333-2.351-2.5c-0.1-0.566-0.133-1.066-0.1-1.5L26.9,30.65
		c-0.133-0.2-0.2-0.367-0.2-0.5l0.7,0.55c-0.534,1.6-0.2,2.899,1,3.899c0.366,0.301,0.833,0.567,1.399,0.801L29.4,35.3z M29,37.65
		l0.6,0.05c0.601,0.033,1.15,0.133,1.65,0.3c0.4,0.2,0.733,0.417,1,0.65l0.15,0.1l0.649,0.6l0.2,0.15l0.45,0.2l1.1,0.5h-0.1
		c-1.033,0.066-1.8-0.017-2.3-0.25l0.25,0.5l0.1,0.1L32.6,40.5c-0.199-0.1-0.416-0.366-0.649-0.8c-0.267-0.434-0.5-0.7-0.7-0.8
		c-0.566-0.067-0.95-0.117-1.15-0.15c-0.3-0.066-0.699-0.233-1.199-0.5c-0.667-0.267-1.184-0.483-1.551-0.65
		c0.034,0,0.084,0.017,0.15,0.051C27.866,37.684,28.366,37.684,29,37.65z M48.7,39.2c-0.066,0.033-0.117,0.083-0.15,0.149L48.3,39.6
		c-0.066,0.034-0.116,0.067-0.149,0.101c-0.134,0.066-0.25,0.133-0.351,0.2l-0.6-0.15c-0.134-0.066-0.267-0.2-0.4-0.4
		c-0.267-0.233-0.717-0.416-1.35-0.55c-1.733-0.233-3.184-0.333-4.351-0.3h-0.35c0.333-0.2,1.033-0.3,2.1-0.3l2,0.05
		c0.934,0.1,2.317,0.25,4.15,0.45C48.9,38.866,48.8,39.033,48.7,39.2z M44.45,39.55c-0.2-0.166-0.367-0.267-0.5-0.3H43.9
		c-1.233-0.5-2.634-0.333-4.2,0.5c-0.467,0.267-1.017,0.434-1.65,0.5c-0.1,0.033-0.333,0.05-0.7,0.05
		c-0.199,0-0.383,0.017-0.55,0.05c-0.033,0-0.066,0-0.1,0c-0.134,0-0.25,0-0.351,0l1.5-0.25c0.467-0.1,0.884-0.283,1.25-0.55
		c0.367-0.3,0.784-0.533,1.25-0.7C40.45,38.816,41,38.8,42,38.8c1.1,0,1.9,0.084,2.4,0.25c0.233,0.066,0.633,0.233,1.199,0.5
		c0.5,0.267,0.9,0.434,1.2,0.5l0.45,0.05c-0.267,0.101-0.533,0.167-0.8,0.2c-0.167,0-0.316,0-0.45,0c-0.167,0-0.35-0.033-0.55-0.1
		S45,39.983,44.7,39.75C44.6,39.684,44.517,39.616,44.45,39.55z M24.6,34.7l1.15,0.85c0.633,0.334,1.15,0.667,1.55,1
		c0.3,0.3,0.467,0.5,0.5,0.601L27.75,37.1c-0.333-0.399-0.717-0.666-1.15-0.8l-0.35-0.1v0.2c0.01,0.069,0.026,0.136,0.05,0.199
		l0.05,0.125c0.051,0.106,0.118,0.214,0.2,0.325l-0.2-0.25H26.3l-0.1-0.149c-0.167-0.2-0.317-0.367-0.45-0.5
		c-0.267-0.233-0.483-0.467-0.65-0.7C24.867,35.15,24.7,34.9,24.6,34.7z M26,27.8c-0.133,0.334-0.35,0.667-0.65,1l-0.1,0.101V28.85
		c-0.6-0.233-1.033-0.383-1.3-0.449c-0.2-0.034-0.934-0.101-2.2-0.2H19.6c-0.434,0.033-0.767,0.033-1,0
		c-0.434,0-0.75-0.066-0.95-0.2c-0.2-0.134-0.383-0.384-0.55-0.75c-0.2-0.366-0.367-0.616-0.5-0.75
		c-0.167-0.167-0.383-0.316-0.65-0.45c0.233,0.066,0.583,0.283,1.05,0.65c0.2,0.133,0.333,0.283,0.4,0.45
		c0,0.1,0.017,0.283,0.05,0.55c0.767,0.2,1.566,0.25,2.4,0.149c0.233-0.033,0.9-0.05,2-0.05c0.5,0,0.883,0.066,1.15,0.2
		c0.2,0.1,0.517,0.184,0.95,0.25l0.95,0.15c0.2-0.034,0.383-0.134,0.55-0.301l0.4-0.35l0.15-0.1l0.1-0.101v0.05L26,27.8z
		 M28.15,24.75c-0.067,0-0.117-0.017-0.15-0.05c0.066,0,0.15,0,0.25,0c0.033-0.033,0.083-0.05,0.15-0.05L28.55,24.6
		c0.111-0.055,0.228-0.122,0.351-0.199c0.062-0.031,0.128-0.064,0.199-0.101c-0.033,1.101-0.25,2.184-0.649,3.25l-0.101,0.4
		l-1.55,0.1h-0.1c0.467-0.3,0.783-0.517,0.95-0.649l0.1-0.051c0.134-0.133,0.25-0.333,0.35-0.6c0.101-0.3,0.167-0.533,0.2-0.7
		c0.167-0.666,0.134-1.083-0.1-1.25L28.15,24.75z M35.4,23.1c0.199-0.033,0.449-0.067,0.75-0.1c-0.067,0.5-0.15,1.066-0.25,1.7
		c0,0.233,0,0.533,0,0.899c0,0.367-0.067,0.667-0.2,0.9c-0.033,0.066-0.066,0.134-0.101,0.2v0.05c-0.3,0.5-0.816,0.866-1.55,1.1
		c0.167-0.1,0.384-0.316,0.65-0.649l0.05-0.05c0.167-0.267,0.283-0.601,0.35-1c0.2-0.467,0.284-1.334,0.25-2.601
		c0-0.033,0-0.083,0-0.15c0-0.066,0-0.117,0-0.15V23.2L35.4,23.1z M28.65,30.35c0.466-0.1,0.833-0.267,1.1-0.5l0.1-0.05l0.301-0.2
		l0.55-0.55c0.366-0.434,0.783-0.684,1.25-0.75c0.2-0.066,0.533-0.1,1-0.1c-0.334,0.133-0.783,0.434-1.351,0.899
		C31,29.566,30.533,29.866,30.2,30c-0.434,0.2-0.834,0.35-1.2,0.45c-0.066,0.033-0.116,0.05-0.15,0.05h-0.024
		c-0.025,0-0.05,0-0.075,0H28.6l-0.449-0.05C28.283,30.45,28.45,30.417,28.65,30.35z"/>
	<path style="fill-rule:evenodd;clip-rule:evenodd;fill:#706556;" d="M32.8,22.3c0.8-0.066,1.316,0,1.55,0.2v0.1
		c-0.366-0.067-0.883-0.1-1.55-0.1V22.3z"/>
</g>
</svg>
