<?xml version="1.0" encoding="iso-8859-1"?>
<!-- Generator: Adobe Illustrator 15.1.0, SVG Export Plug-In . SVG Version: 6.00 Build 0)  -->
<!DOCTYPE svg PUBLIC "-//W3C//DTD SVG 1.1//EN" "http://www.w3.org/Graphics/SVG/1.1/DTD/svg11.dtd">
<svg version="1.1" id="Layer_1" xmlns="http://www.w3.org/2000/svg" xmlns:xlink="http://www.w3.org/1999/xlink" x="0px" y="0px"
	 width="383px" height="218.75px" viewBox="0 0 383 218.75" style="enable-background:new 0 0 383 218.75;" xml:space="preserve">
<g>
	<path style="fill-rule:evenodd;clip-rule:evenodd;fill:#5E513E;" d="M312.35,181.2c-0.899,0.7-2.433,1.899-4.6,3.6
		c-1.3,0.9-6.066,2.367-14.3,4.4c-8.467,2.066-14.25,3.116-17.351,3.149L274.4,192.4c2.366-2.167,5.25-3.551,8.649-4.15
		c3.634-0.667,5.467-1.017,5.5-1.05l0.25-0.351c-2.8,0.667-6.649-0.6-11.55-3.8c-4.8-3.133-7.2-5.816-7.2-8.05
		c0-0.3,0.184-0.733,0.55-1.3c0.367-0.566,0.551-1.066,0.551-1.5c0-2.033-1.584-4.967-4.75-8.8c-3.067-3.667-4.467-6.617-4.2-8.851
		c0.7-4.6-0.017-8.033-2.15-10.3c-3.5-2.667-6.517-5.3-9.05-7.9c0.366,1,0.75,2.351,1.15,4.051c0.433,1.866,0.616,3.083,0.55,3.649
		c-1.101-2.7-1.783-4.399-2.05-5.1c-0.967-2.5-1.45-4.2-1.45-5.101c0-1.899,0.583-4.1,1.75-6.6c1.2-2.267,1.833-3.583,1.899-3.95
		c0.233-1.267,0.284-3.967,0.15-8.1c-0.1-3.4,0.017-5.101,0.35-5.101c0.334,0,0.384,0.184,0.15,0.551
		c-0.233,0.333-0.184,0.5,0.15,0.5c1.366,0,1.649-1.25,0.85-3.75c-1-3.167-3.667-7.283-8-12.35l0.6,0.6l0.851,0.65l2.55,1.6
		l-0.8-0.65c-3.5-2.567-6.351-4.6-8.55-6.1c-7.7-5.2-13.067-8.85-16.101-10.95c2.066-0.034,3.733-0.883,5-2.55
		c1.167-1.533,1.75-3.35,1.75-5.45c0-4.067-1.383-6.517-4.149-7.35c-1.967-0.434-3.567-0.833-4.801-1.2
		c-2.267-0.633-4.366-1.566-6.3-2.8c0.101-0.533,0.384-1.583,0.851-3.15c0.267-0.9,0.399-1.85,0.399-2.85
		c0-1.434-0.383-3.333-1.149-5.7c-0.934-2.733-1.534-5.383-1.801-7.95c-0.233-2.034-2.5-3.55-6.8-4.55
		c-2.2-0.533-4.616-0.917-7.25-1.15c0.101,0,2.367-0.183,6.8-0.55c6.967,0,10.75,2.767,11.351,8.3c0.3,2.767-0.033,5.533-1,8.3
		c0.333,0,0.533-0.117,0.6-0.35c0.066-0.267,0.267-0.4,0.601-0.4c0.033,0-0.051,0.3-0.25,0.9c-0.167,0.767-0.117,1.517,0.149,2.25
		c0.9,2.367,3.884,4.183,8.95,5.45c1.533,0.367,3.167,1.533,4.9,3.5c2.033,2.333,3.05,4.717,3.05,7.15
		c0,3.333-1.117,6.167-3.351,8.5c-1.767,1.833-3.449,2.733-5.05,2.7l2.7,0.35c2.667,0,5.434-1.4,8.3-4.2
		c3.267-3.167,4.9-6.767,4.9-10.8c0-0.934-1.5-3.133-4.5-6.6c-2.9-3.367-4.584-5.05-5.05-5.05c-0.667,0-4.983-2.15-12.95-6.45
		c0-2.033,0.316-3.433,0.95-4.2c0.633-0.7,1.783-1.05,3.449-1.05c3.733,0,7.601,1.75,11.601,5.25c1,0.867,2.316,2.067,3.95,3.6
		c1.267,1.1,2.25,1.65,2.949,1.65c1.2,0,2.65-0.317,4.351-0.95c1.666-0.667,3.633-1,5.899-1c4.301,0,8.284,0.5,11.95,1.5
		c2.867,4,5.033,6.617,6.5,7.85c0,4.133-1.767,7.667-5.3,10.6c-3.4,2.767-7.467,4.217-12.2,4.35c-0.7-0.633-1.184-1.167-1.45-1.6
		c4.233-0.3,6.934-0.683,8.101-1.15c2.566-1.033,3.85-3.167,3.85-6.4c0-1.1-2-3.05-6-5.85c-4.1-2.867-7.149-4.3-9.149-4.3
		c-1.434,0-2.784,0.483-4.051,1.45c-1.933,1.5-2.899,3.833-2.899,7c0,0.033,0.233,1.9,0.7,5.6c0.433,3.667,0.649,5.733,0.649,6.2
		c0,0.333-0.149,1.317-0.45,2.95c-0.333,1.633-0.5,2.617-0.5,2.95c0,1.5,1.767,4.05,5.301,7.65c3.633,3.667,5.583,7.05,5.85,10.15
		c0.467,5.3,1.15,9.483,2.05,12.55c0.9,3.2,2.167,5.617,3.8,7.25c1.7,1.733,3.617,3.733,5.75,6c1.634,1.4,3.584,2.101,5.851,2.101
		c1.566,0,2.684-0.184,3.35-0.551c0.634-0.333,0.95-0.883,0.95-1.649c0-3.733-1.333-7.783-4-12.15c-4-5.933-7.366-11.417-10.1-16.45
		c5.267-0.333,8.216-0.567,8.85-0.7c1.233-0.267-4.417-7.2-16.95-20.8c0.066,0,0.134,0.017,0.2,0.05
		c12.333,9.067,15.566,11.333,9.7,6.8c-3.101-2.267-5.316-3.9-6.65-4.9c-0.899-0.667-1.649-1.267-2.25-1.8
		c1.834,0.333,5.4,0.85,10.7,1.55c1.866,0,3.55-1.133,5.05-3.4c1.5-2.3,3.066-3.45,4.7-3.45c3.467,0,5.4-0.184,5.8-0.55
		c0.334-0.3,0.267-1.55-0.2-3.75l1.051,0.55c0.333,0.2,2.55,1.6,6.649,4.2c3.533,2.233,7.45,4.417,11.75,6.55
		c0.8,0.4,2.517,1.183,5.15,2.35c1.967,0.867,4.45,1.95,7.45,3.25c-1.2,3-2.167,4.8-2.9,5.4c-1.033,0.9-3.15,1.35-6.35,1.35
		l-1.551-0.15l0.051-1.25c0.6-0.9,1.3-1.633,2.1-2.2c0.566-0.434,0.85-0.817,0.85-1.15c0-0.5-1.333-1.983-4-4.45
		c-3.033-2.8-5.616-4.2-7.75-4.2c-0.966,0-1.833,0.467-2.6,1.4c-0.767,0.934-1.517,1.4-2.25,1.4c-1.967-0.233-3.917-0.333-5.85-0.3
		c-3.801,0.067-5.7,0.75-5.7,2.05c0,2.566,3.116,6.867,9.35,12.9c5.934,5.767,10.634,9.316,14.101,10.65
		c4.633,1.8,8.566,5.9,11.8,12.3c2.6,5.134,3.899,9.367,3.899,12.7c0,1.6-0.366,3-1.1,4.2c-0.167,0.3-0.983,1.35-2.45,3.149
		c-2.366,2.9-3.55,6.75-3.55,11.551c0,4.566,2.616,7.35,7.85,8.35l-2.8,0.95c1,0.166,2.684,0.45,5.05,0.85
		c2.233,0.334,4.351,0.5,6.351,0.5c1.566,0,2.967-0.366,4.2-1.1c1.8-1.066,3.05-1.717,3.75-1.95l0.149,0.3
		c0.101,0.3,0.15,0.65,0.15,1.05c0,0.067-3.267,3.367-9.8,9.9C317.783,174.967,313.684,179.366,312.35,181.2z M205.9,212.6
		c0.966,1,2.616,1.617,4.949,1.851c0.434,0.033,1.817,0.05,4.15,0.05l-0.05,1.05c-0.533,0.667-0.867,1.05-1,1.15
		c-0.267,0.166-1.3,0.7-3.101,1.6l-0.55,0.25l-8.95,0.2c-0.533,0.033-1.116,0.033-1.75,0h-0.225c-0.175-0.004-0.35-0.021-0.525-0.05
		c-1.033-1.066-1.916-2.017-2.649-2.851c-1.434-1.566-2.4-3.133-2.9-4.699c3.601-1.834,5.851-3.534,6.75-5.101
		c0.767-1.399,1.15-4.083,1.15-8.05c0-2.6-0.316-4.684-0.95-6.25c-0.934-2.366-1.566-4.5-1.9-6.4
		c0.067,0.034,2.051,1.817,5.95,5.351c1.101,1.267,1.884,2.416,2.351,3.45l1.1,2.8l-0.05,0.899
		c-0.066,0.767-0.184,1.467-0.351,2.101c-0.199,0.666-0.517,1.616-0.949,2.85c-0.301,1.101-0.367,2.334-0.2,3.7
		c0,1.533-0.167,3.2-0.5,5L205.9,212.6z M24.7,173.6l-0.15-0.1H24.5c-0.167-0.134-0.283-0.217-0.35-0.25
		c-8.1-3.934-12.217-5.917-12.35-5.95c3.934,0.733,7.333,0.65,10.2-0.25c3.867-1.267,5.8-3.967,5.8-8.1l-0.15-1.851H27.3
		c-1.8,0.434-3.65-0.083-5.55-1.55c-1.933-1.5-2.9-3.133-2.9-4.899c0.367-2.967,0.667-5.684,0.9-8.15l0.1,2.15L20.1,147v0.15
		c0.033,1.933,1.017,3.6,2.95,5c1.967,1.433,4.35,2.149,7.15,2.149c2.433,0.233,4.066,0.283,4.9,0.15
		c1.3-0.167,3.066-1.617,5.3-4.351c-1.4,2.334-2.7,3.884-3.9,4.65c-1.033,0.667-2.433,1-4.2,1c-0.566,0-2.483-0.25-5.75-0.75
		l-1.3-0.2c1.6,0.7,3.483,1.384,5.65,2.05c2.667,0.801,4.517,1.134,5.55,1c-0.833,0.634-2.7,2.834-5.6,6.601
		C27.65,168.583,25.6,171.634,24.7,173.6z M12.4,134.2c-1.5,1.934-2.433,3.133-2.8,3.6c-0.6,0.733-1.434,1.65-2.5,2.75l-1.9,2.25
		c-0.1-0.8-0.333-1.866-0.7-3.2c-0.5-1.8-1.05-3.283-1.65-4.449l0.4-0.301c3.333-1.633,6.117-3.733,8.35-6.3
		c3.267-3.767,5.4-6.066,6.4-6.899c0.3-0.301,4.7-4.367,13.2-12.2c4.466-4.1,8.533-9.184,12.2-15.25l0.1,0.7
		c0.033,0.567,0.033,1.05,0,1.45c-0.3,0.2-0.75,0.9-1.35,2.1c-0.667,1.233-1.033,2.133-1.1,2.7l1.1-0.5
		c-0.167,0.467-0.35,0.967-0.55,1.5c-1.434,2.1-3,4.45-4.7,7.05c-0.967,1.434-2.183,3.2-3.65,5.3c-1.767,1.9-3.75,3.866-5.95,5.9
		c-0.333,0.3-3.316,2.916-8.95,7.85C15.317,130.95,13.333,132.934,12.4,134.2z M238.1,18.8c-0.033,0.5-0.399,1.383-1.1,2.65
		c0.1-0.8,0.217-1.9,0.35-3.3L238.1,18.8z M314.75,99.7c0.9-0.733,1.983-1.1,3.25-1.1c0.733,0,2.134,0.083,4.2,0.25
		c1.2,0.1,2.033,0.033,2.5-0.2c0.934-0.5,1.399-3.083,1.399-7.75l1.7,1.1c0.134,0.133,0.334,0.567,0.601,1.3
		c0.333,0.9,0.5,1.717,0.5,2.45c0,0.967-0.334,2.267-1,3.9h3.05c-0.667,0.934-1.483,1.617-2.45,2.05c-1.1,0.5-2.566,0.75-4.4,0.75
		C320.767,102.35,317.65,101.433,314.75,99.7z M348.05,165.05c-2.866,0.667-5.533,1.467-8,2.4l-7.95,3.05
		c3.834-2.434,6.784-4.366,8.851-5.8c3.733-2.601,5.6-4.917,5.6-6.95c0-1.467-0.416-2.533-1.25-3.2c-0.866-0.666-1.3-1.033-1.3-1.1
		c0-0.467,0.483-1.566,1.45-3.3c0.934-1.767,1.399-4.4,1.399-7.9c0-3.566-0.483-6.333-1.449-8.3c-1.567-3.101-4.367-4.65-8.4-4.65
		l-2.15,0.15c0,0.166-0.233,0.333-0.699,0.5l1.949,1.95c-0.666-0.134-1.399-0.567-2.199-1.301c-0.7-0.633-1.184-1.25-1.45-1.85
		c1.399-0.934,2.416-1.7,3.05-2.3c1.066-1.066,1.6-2.584,1.6-4.55l-0.35-2.9c1.333,0.634,4.616,1.1,9.85,1.4
		c2.334,0,4.067,1.083,5.2,3.25c0.7,1.333,1.351,3.75,1.95,7.25s1.233,5.899,1.9,7.199c1.066,2.167,2.75,3.25,5.05,3.25
		c2.866,0,4.666,0.117,5.399,0.351c1.801,0.566,2.7,1.983,2.7,4.25c0,3.434-3.05,7.366-9.149,11.8
		C356.45,160.083,352.583,162.517,348.05,165.05z M324.75,155.1c0.533-0.5,3.333-2.899,8.4-7.199c3.366-2.867,5.5-4.917,6.399-6.15
		c0,3.7-1.434,6.85-4.3,9.45C332.35,153.8,328.85,155.1,324.75,155.1z M265.1,98.05c1.034,1.8,3.934,5.483,8.7,11.05
		c4.233,5.6,6.351,10.367,6.351,14.3c0,3.433-0.517,5.833-1.551,7.199c-0.633,0.834-1.399,1.25-2.3,1.25
		c-0.833,0-1.816-0.25-2.95-0.75c-1.6-0.699-3-1.3-4.199-1.8c7.399,8.267,11.116,12.4,11.149,12.4c1.867,0,3.084-1.55,3.65-4.65
		c0.366-1.967,0.55-5.783,0.55-11.45c0-4.6-2.717-10.017-8.15-16.25c-0.066-0.067-3.6-3.55-10.6-10.45L265.1,98.05z M235.4,23.9
		c-0.667,0.967-1.15,1.583-1.45,1.85c0.3,0.2,1.033,0.383,2.2,0.55c0.966,0.133,1.767,0.2,2.399,0.2c1.9,0,3.134,0.383,3.7,1.15
		c0.467,0.6,0.7,1.833,0.7,3.7c0,3.733-0.167,6-0.5,6.8c-0.533,1.3-1.967,1.95-4.3,1.95c-2.934,0-5.417-1.917-7.45-5.75
		c-1.101-2.3-1.967-4.033-2.601-5.2c-1.1-2.033-2.267-3.633-3.5-4.8l1.801,0.35c1.267,0.2,2.1,0.3,2.5,0.3
		C231.9,25,234.066,24.633,235.4,23.9z M221.25,23.1c-3.833-0.167-7.566-0.267-11.2-0.3l-5.2-0.4l11.2-0.4L221.25,23.1z
		 M212.95,33.7c1.866-0.3,3.533-1,5-2.1c0.5-0.4,0.934-0.817,1.3-1.25c1.467-0.633,2.2-1.417,2.2-2.35c0-0.4-0.117-0.817-0.351-1.25
		l-0.35-0.55c-0.333-0.367-0.75-0.733-1.25-1.1c-1.033-0.7-2.25-1.15-3.65-1.35c2.767-0.133,4.75,0.267,5.95,1.2
		c0.867,0.667,1.3,1.533,1.3,2.6c0,2.2-0.866,3.75-2.6,4.65C219.1,32.9,216.583,33.4,212.95,33.7z M162.85,43.75
		c-0.533,0.067-1.267,0-2.2-0.2c-0.933-0.2-1.733-0.45-2.4-0.75l0.8-0.45l-1.1,0.35l-4.85-3.05c-0.467-0.4-0.85-0.767-1.15-1.1
		c1.966,0.6,4.45,0.867,7.45,0.8c1.267-0.2,2.2-0.45,2.8-0.75c0.833-0.467,1.25-1.184,1.25-2.15c0-0.267-0.367-2.3-1.1-6.1
		c-0.767-3.8-1.15-6.233-1.15-7.3c0-2.733,2.85-5.167,8.55-7.3c3.6-1.367,7.267-2.333,11-2.9c-1.4,1.767-4.133,5.433-8.2,11
		c-3.933,5.367-5.9,8.1-5.9,8.2c0,2.067,2.367,4.217,7.1,6.45c4.467,2.067,8.367,3.1,11.7,3.1l8.75-0.15
		c-1.367,4.267-4.284,6.4-8.75,6.4c-0.967,0-3.467-0.767-7.5-2.3c-4.034-1.533-7.167-2.3-9.4-2.3
		C167.65,43.25,165.75,43.417,162.85,43.75z M163.45,75.5c-0.367,0.4-4.7,1.833-13,4.3c-7.534,2.967-11.45,6.383-11.75,10.25
		l-0.25-1.2l-0.2-1.15c0.067-0.867,0.283-1.784,0.65-2.75c0.333-0.1,1.083-0.667,2.25-1.7c1.233-1.033,1.95-1.767,2.15-2.2
		c1.434-1.966,3.917-3.716,7.45-5.25c3.5-1.267,5.533-2.133,6.1-2.6c3-2.267,4.667-4.2,5-5.8c0.667-3.233,1.65-6,2.95-8.3l3.1-3.35
		l0.35-0.25c-0.667,1.533-1.367,4.267-2.1,8.2c-0.967,5.333-1.683,8.933-2.15,10.8L163.45,75.5z M153.1,133.5
		c-1.3,0.434-3.133,1.566-5.5,3.4c-1.2,0.899-2.283,1.767-3.25,2.6c-1.633-0.333-3.117-1.05-4.45-2.15l0.25,0.801
		c-0.5-0.5-1.533-0.934-3.1-1.301c-1.133-0.267-1.917-0.399-2.35-0.399c-2.1-0.233-3.733-0.483-4.9-0.75l-1.25-0.5
		c3.367-1.167,5.833-1.983,7.4-2.45c2.7-0.833,5.966-1.4,9.8-1.7c1.033,0,1.917-0.383,2.65-1.149c0.7-0.801,1.05-1.767,1.05-2.9
		l0.55-1.65c0.733-1.033,2.6-2.616,5.6-4.75c1.7-1.199,2.55-3.316,2.55-6.35c0-0.767-0.133-3.05-0.4-6.85l-0.05-0.35
		c-0.034-0.566-0.733-2.35-2.1-5.35l-2.1-4.3c2.033,2.833,3.233,4.55,3.6,5.15c0.867,1.3,1.517,2.467,1.95,3.5
		c0.067,0.434,0.284,0.967,0.65,1.6c0.333,1.067,0.5,2.984,0.5,5.75c0,4.866-1.133,9.616-3.4,14.25
		C155.333,130.65,154.1,132.6,153.1,133.5z M186.15,169.35c0.467-1.433,0.667-2.883,0.6-4.35c-0.1-2.9,0.683-9.55,2.35-19.95
		l0.15,15.65c0,6.399-0.217,10.333-0.65,11.8c-0.967,3.233-3.45,4.85-7.45,4.85c-1.433,0-3.033-0.166-4.8-0.5
		c-1.133-0.199-3.25-0.633-6.35-1.3h1.55c3.534-0.133,6.217-0.45,8.05-0.95c1.467-0.399,2.767-1,3.9-1.8
		C184.933,171.8,185.817,170.65,186.15,169.35z M199.35,134.7l0.851-1.7l-1.15,1.6c-2.267-0.633-4.05-0.983-5.35-1.05
		c-0.267-0.033-0.4-0.25-0.4-0.649c0-1.5-0.6-2.851-1.8-4.051c-1.5-1.199-2.567-2.116-3.2-2.75l0.5-0.1
		c3.5,0.333,5.55,0.434,6.15,0.3c3.3-0.666,4.95-3.033,4.95-7.1c0-0.667-0.067-1.517-0.2-2.55c0-1.367-0.316-2.567-0.95-3.601
		c-0.267-0.399-1.15-1.45-2.65-3.15c-3.267-3.733-6.05-8.667-8.35-14.8c2.067,2.533,5.35,5.833,9.85,9.9
		c2.601,2.333,4.75,5.517,6.45,9.55l-0.149,1.75c0,0.634,0.1,1.767,0.3,3.4c0.2,1.833,0.416,3.083,0.649,3.75l-0.35,2
		c-0.5,1.8-1.4,2.95-2.7,3.45c-1.066,0.399-1.6,1.083-1.6,2.05c0,1.434,1.416,3.533,4.25,6.3c1.5,1.467,3.434,3.25,5.8,5.35
		l-0.85-0.149c-0.667-0.267-2.317-1.533-4.95-3.8C201.75,136.35,200.05,135.033,199.35,134.7z M204.85,65.7l0.75-2.05
		c0.101-1.233,0.267-2.217,0.5-2.95l0.601-0.3c0.399,0.8,1.184,2.15,2.35,4.05c1,1.9,1.5,3.733,1.5,5.5
		c0,3.833-0.616,6.783-1.85,8.85c-1.601,2.667-4.25,4-7.95,4c-0.533,0-3.167-1.45-7.9-4.35c-4.633-2.8-7.7-4.8-9.2-6l-4.2-2.15
		l-0.4-0.25l4.2,0.15c1.633,0.533,3.35,1.367,5.15,2.5c1.9,0.833,4.734,1.25,8.5,1.25C201.733,73.95,204.384,71.2,204.85,65.7z
		 M84.05,146.9c5.167,0,9.583-2.034,13.25-6.101c3.633-4.066,5.45-8.983,5.45-14.75l1.75-2.3V125v7.4c0,1.366,0.05,3.066,0.15,5.1
		c0,0.333-0.066,0.667-0.2,1c-0.067,0.134-0.45,1.017-1.15,2.65c-3.3,3.333-6.316,5.616-9.05,6.85c-2.033,0.9-4.367,1.35-7,1.35
		c-1.633,0-2.883-0.05-3.75-0.149c-0.9-0.134-4.167-0.601-9.8-1.4h0.65C78.817,147.267,82.05,146.967,84.05,146.9z M233.9,129.05
		c0.033-0.166,0.083-0.283,0.149-0.35c0.033-0.033,0.066-0.05,0.101-0.05c0.366-0.5,0.767-0.934,1.199-1.301
		c0.7-2.066,1.051-3.116,1.051-3.149c0-1.134-0.467-2.834-1.4-5.101c0-0.166-0.017-0.333-0.05-0.5c-0.3-2.399-0.867-3.6-1.7-3.6
		c-0.3,0-1.184,0.366-2.65,1.1c-0.6,0.4-1.267,0.7-2,0.9c-1.133,0.267-2.116,0.616-2.949,1.05c-0.4,0.233-0.7,0.434-0.9,0.601
		c-0.634,0-1.217-0.101-1.75-0.301c-0.3-0.133-0.533-0.267-0.7-0.399c-0.233-0.2-0.35-0.417-0.35-0.65
		c0-0.033,0.133-0.533,0.399-1.5c0.101-0.399,0.233-0.899,0.4-1.5c0.533-1.934,0.8-3.7,0.8-5.3c0-1.333-0.383-2.183-1.149-2.55
		c-0.367-0.167-1.534-0.333-3.5-0.5c-4.834-0.4-9.483-2.317-13.95-5.75c-11.2-8.633-17.217-13.284-18.05-13.95
		c1.434,0.633,9.617,3.017,24.55,7.15c11.633,3.233,17.45,5.833,17.45,7.8c0,3.367,0.716,5.583,2.149,6.65
		c0.2,0.167,1.75,0.733,4.65,1.7c2.1,0.7,3.666,2.084,4.7,4.15c1.399,2.899,2.1,7.583,2.1,14.05c0,2.6-0.417,4.65-1.25,6.15
		c-0.6,1.066-2.083,3.3-4.45,6.699c-0.767-1.066-1.517-2.966-2.25-5.699l-0.899-3.801C233.65,130.134,233.733,129.45,233.9,129.05z
		 M235.05,145.85c0.7,0.767,1.934,1.534,3.7,2.301c2.2,0.899,4.233,1.25,6.1,1.05l4.301,0.149c1.899,0.334,3.55,2.084,4.949,5.25
		c1.167,2.667,1.75,5,1.75,7c0,6.801-1.633,11.517-4.899,14.15c-2.533,2-5.983,2.733-10.351,2.2l-1.149,0.35
		c0.5,0.3,1.267,0.601,2.3,0.9c1.066,0.3,1.884,0.45,2.45,0.45c3.434,0,6.316-0.75,8.649-2.25c3.434-2.233,5.584-6,6.45-11.301
		l0.15-1.149c1.5,2.6,2.383,4.467,2.649,5.6c0.467,1.9,0.534,5.017,0.2,9.351c-0.1,1.666,0.867,3.949,2.9,6.85
		c2.066,2.9,3.083,4.783,3.05,5.65c-3.3-1.267-6.8-3.7-10.5-7.301c-3.333-3.3-5.1-4.949-5.3-4.949c-1.2,0-2.267,0.6-3.2,1.8
		c-0.934,1.233-1.4,2.616-1.4,4.149c0,1.5,0.2,2.9,0.601,4.2c0.366,1.3,0.55,2.517,0.55,3.65c0,2.2-0.45,4.75-1.35,7.649
		c-1.067,3.567-2.367,5.634-3.9,6.2l0.05-0.3c0.634-2.6,0.95-4.316,0.95-5.15c0-5.933-1.017-10.833-3.05-14.699
		c-2.066-3.867-3.101-7.75-3.101-11.65c5.167,1.2,9.084,0.116,11.75-3.25c2-2.533,3-5.733,3-9.6c0-2.767-0.699-4.767-2.1-6
		c-0.9-0.767-2.634-1.551-5.2-2.351c-2.934-0.866-5.133-1.767-6.6-2.7c-2.533-1.6-4.617-3.983-6.25-7.149L235.05,145.85z
		 M165.5,198.35c0.133-0.8-0.467-2.866-1.8-6.199c-1.233-3.034-2.1-4.9-2.6-5.601c-0.167-0.166-0.35-0.316-0.55-0.45
		c-0.333-0.267-0.517-0.283-0.55-0.05c0.033,0.3,0.25,1.25,0.65,2.851c0.333,1.267,0.5,3,0.5,5.199c0,2.367-0.45,4.567-1.35,6.601
		c-0.667,1.5-1.433,2.633-2.3,3.399c0.7-2.899,0.867-5.6,0.5-8.1c-0.767-4.9-3.7-7.35-8.8-7.35c-2,0-3.45,0.333-4.35,1
		c-0.467,0.366-0.967,1.1-1.5,2.199c-1.033,2.134-3.367,3.2-7,3.2c-0.667,0-1.55-0.05-2.65-0.149l1.1-0.801
		c2.067-0.966,3.483-2.116,4.25-3.449c0.534-1,0.8-2.334,0.8-4c0-1.267-0.7-2.75-2.1-4.45c-1.933-2.167-3.467-4.017-4.6-5.55
		c-1.033-1.867-1.767-3.684-2.2-5.45l-0.15-1.9c0.367,1.267,1.767,3.184,4.2,5.75c0.967,1.066,3.117,1.884,6.45,2.45
		c3.167,0.366,4.767,0.55,4.8,0.55c1.433,0,2.783-0.133,4.05-0.399c-1.133,0.566-2.783,1.083-4.95,1.55
		c-2.533,0.533-4.633,0.717-6.3,0.55l-1.25-0.05c3.467,0.633,5.75,1.033,6.85,1.2c1.633,0.3,4.017,0.449,7.15,0.449
		c3.367,0,5.717-1.983,7.05-5.949c0.8-2.367,1.2-5.334,1.2-8.9c0-1.533-0.383-3.3-1.15-5.3c-1.133-2.8-2.033-5.9-2.7-9.3v-0.15
		c1.6,1,2.983,3.384,4.15,7.15c1.1,3.5,1.65,6.85,1.65,10.05c0,0.666-0.333,3.533-1,8.6c0,1.2,0.367,2.25,1.1,3.15
		c0.433,0.566,1.217,1.399,2.35,2.5c2.3,2.467,3.45,6.017,3.45,10.649c0,1.134-0.117,1.867-0.35,2.2
		C167.35,196.35,166.667,197.116,165.5,198.35z M271.55,164.45h-1.399l2.399,0.8c0.2,0.1,0.884,0.316,2.05,0.65
		c1.167,0.333,1.801,0.5,1.9,0.5c1.267,0.399,2.8,1.1,4.6,2.1c0.834,0.467,2.534,0.7,5.101,0.7c2.333,0,4.1-0.15,5.3-0.45
		c0.8-0.233,2.217-0.7,4.25-1.4c-0.866,2.167-3.35,4.851-7.45,8.051c-2.1,1.666-4.45,3.449-7.05,5.35c0.467,0.934,1.184,1.6,2.15,2
		c1.166,0.5,2.966,0.75,5.399,0.75c3.9,0,6.884-1.3,8.95-3.9c2.467-3.066,3.866-8.216,4.2-15.449c0.733-1.101,1.166-2.417,1.3-3.95
		c0.066-0.566,0.1-2.15,0.1-4.75c0-2.533-0.05-4.134-0.149-4.8c-0.267-1.9-0.983-4.084-2.15-6.551c-2.8,0.7-4.416,1.467-4.85,2.301
		c0.133-1.167,0.45-2.167,0.95-3c0.066-0.134,0.8-0.983,2.199-2.551c2.101-2.433,3.15-6.35,3.15-11.75
		c0-4.433-1.816-7.933-5.45-10.5c-2.833-2.033-4.55-3.316-5.149-3.85c-2.067-1.8-3.801-3.983-5.2-6.55l-0.15,1.4
		c-0.533,2.867-0.8,4.667-0.8,5.4c0,1.033,0.934,2.783,2.8,5.25c1.834,2.467,2.75,4.15,2.75,5.05c0,1.7-0.717,4.566-2.149,8.601
		c-1.667,4.8-3.5,8.267-5.5,10.399c-4.534-2.566-8.067-4.566-10.601-6c-4.666-2.633-7.517-3.95-8.55-3.95
		c-0.7,0-1.9,0.517-3.6,1.551c-1.767,1.066-2.65,1.916-2.65,2.55c0,2.899,1.634,5.7,4.9,8.399c3.8,3.134,5.8,4.95,6,5.45
		c0.466,1.101,0.866,3.267,1.199,6.5C270.65,161.767,271.05,163.65,271.55,164.45z M287.15,101.25
		c0.899,2.133,4.35,5.933,10.35,11.4c5.2,4.767,7.8,8.649,7.8,11.649c0,0.667-0.416,3.334-1.25,8c0,0.9,0.267,1.467,0.8,1.7
		c1.233,0.5,2.584,1.55,4.051,3.15c0.199-5.667,0.3-8.834,0.3-9.5c0-5.667-1.566-10.017-4.7-13.051c-1.2-1.133-3.467-2.916-6.8-5.35
		C293.333,106.05,289.816,103.383,287.15,101.25z M296.4,150.65c-0.167-1.467-0.25-2.534-0.25-3.2
		c0.033,0.233,0.083,0.517,0.149,0.85C296.5,149.134,296.533,149.917,296.4,150.65z M137.8,42.75c-0.733,2.5-1.35,4.1-1.85,4.8
		c-0.467,0.667-1.05,1.184-1.75,1.55c-1.067,0.267-1.967,0.517-2.7,0.75c-0.333,0.033-0.683,0.05-1.05,0.05
		c-5.034,0-9.017-1.883-11.95-5.65l1.65,0.65c0.367,0.1,1.617,0.567,3.75,1.4c1.367,0.534,2.684,0.8,3.95,0.8
		c0.967,0,1.9-0.267,2.8-0.8c0.4-0.233,0.983-0.7,1.75-1.4c1.367-1.566,2.317-2.75,2.85-3.55c0.767-1.133,3-5.583,6.7-13.35
		c-0.133,0.7-0.684,2.633-1.65,5.8C139.2,37.3,138.367,40.283,137.8,42.75z M89.1,45.95c0.1-0.034,0.783-0.617,2.05-1.75
		c1.167-1.034,2.184-1.717,3.05-2.05c0.966-0.566,1.55-1.017,1.75-1.35l0.55-0.3c6.6,0.1,10.167,0.167,10.7,0.2
		c2.2,0.167,4.816,0.733,7.85,1.7l-1.2,0.05c-4.333-0.3-8.833,0.783-13.5,3.25c-1.2,0.633-2.8,1.517-4.8,2.65
		c-1.566,0.8-2.85,1.2-3.85,1.2l-6.2-0.65c-4.267-0.867-6.65-2.383-7.15-4.55c4.433,1.467,6.7,2.2,6.8,2.2
		c0.5,0,1.217-0.066,2.15-0.2C88.233,46.217,88.833,46.083,89.1,45.95z M90.8,63.35c0,2.6-2.283,5.3-6.85,8.1
		c-1.467,0-2.667-0.467-3.6-1.4c-1.167-1.133-1.75-2.816-1.75-5.05c0-2,0.667-3.617,2-4.85c0.733-0.633,3.6-2.55,8.6-5.75
		c0,1.533,0.267,3.25,0.8,5.15C90.533,61.417,90.8,62.683,90.8,63.35z M39.05,157.55c2.1-0.767,3.483-2.75,4.15-5.95
		c0.367-1.866,0.6-5.449,0.7-10.75l-0.8,2.051c0.533-2.2,1.5-4.95,2.9-8.25l2-4.301c-1.533-0.166-3.733-1.017-6.6-2.55
		c-2.767-1.566-4.367-2.45-4.8-2.649l1.15,0.399c0.867,0.3,2.533,0.75,5,1.351c2.3,0.533,3.517,0.8,3.65,0.8
		c0.6,0,1.367-0.25,2.3-0.75c0.966-0.533,1.8-1.167,2.5-1.9c1.133-0.967,3.583-2.7,7.35-5.2c3.733-2.5,6.567-4.583,8.5-6.25
		c6.467-5.6,9.3-11.633,8.5-18.1l-0.9,1.4c0.167-0.767,0.133-1.3-0.1-1.6c-0.233-0.333-0.333-0.566-0.3-0.7
		c0.033-0.867,1.783-4.4,5.25-10.6v2c1.167,14.467-2.017,24.917-9.55,31.35c-2.367,1.967-5.983,4.2-10.85,6.7
		c-5.367,2.733-9.05,4.834-11.05,6.3c0,0.067-0.05,2.034-0.15,5.9c-0.1,3.333-0.333,6.184-0.7,8.55
		C46.033,152.3,43.317,156.55,39.05,157.55z M52.8,122.65c0.7-1.067,1.167-1.75,1.4-2.051c0.267-0.433,1.167-1.383,2.7-2.85
		C55.733,119.25,54.367,120.884,52.8,122.65z M92.45,160.15c0.167,0.233,0.783,0.883,1.85,1.949c0.967,1.4,1.45,3.167,1.45,5.301
		c0,1.767-0.8,3.316-2.4,4.649c-0.767,0.9-2.767,3.017-6,6.351c-0.5-1.267-1.033-2.384-1.6-3.351l-0.65-0.85
		c0.033,5.133-0.283,8.883-0.95,11.25c-0.667,2.267-1.9,4.1-3.7,5.5c-0.934-0.533-2.25-0.783-3.95-0.75c-0.933,0-2.2,0.066-3.8,0.2
		l1.65-0.5c3.367-1.5,5.517-5.534,6.45-12.101c0.367-6.8,0.767-10.75,1.2-11.85c1.7-1.267,3.167-2.601,4.4-4
		c1.533-1.767,3-3.917,4.4-6.45l0.3,0.75c0,0.066,0.2,0.684,0.6,1.85C92.1,159.233,92.35,159.917,92.45,160.15z M156.15,151.75
		l0.05,0.15c-0.467,5.633-0.7,10.733-0.7,15.3c0,1.267-0.2,2.633-0.6,4.1c-0.367,1.367-0.8,2.467-1.3,3.3
		c1.733-7.767,0.367-15.383-4.1-22.85c-1.133-1.934-2.95-4.533-5.45-7.8c-2.133-2.767-3.433-4.7-3.9-5.8
		c2.833,2.433,5.617,4.85,8.35,7.25C150.4,147,152.95,149.116,156.15,151.75z M88.75,193.55h-0.8l0.4-1.1L88.75,193.55z"/>
	<path style="fill-rule:evenodd;clip-rule:evenodd;fill:#4C4336;" d="M336.75,119c-0.634-0.3-1.866-0.65-3.7-1.05
		c-1.7-0.367-3.3-0.983-4.8-1.851c-4.9-2.833-11.85-9.8-20.85-20.899c1.399,1.233,2.883,2.267,4.449,3.1
		c0.834,0.434,1.801,0.9,2.9,1.4c2.9,1.733,6.017,2.65,9.35,2.75c1.834,0,3.301-0.25,4.4-0.75c0.967-0.434,1.783-1.117,2.45-2.05
		h-3.05c0.666-1.633,1-2.933,1-3.9c0-0.733-0.167-1.55-0.5-2.45c-0.267-0.733-0.467-1.167-0.601-1.3l7.9,5.25
		c5.366,4.233,9.967,8.65,13.8,13.25c3.066,3.634,5.85,7.667,8.35,12.1c3.601,6.334,9.184,12.367,16.75,18.101
		c2.967,2.267,4.983,4.083,6.051,5.45c1.566,2.066,2.35,4.533,2.35,7.399c0,2.101-1.983,3.783-5.95,5.05
		c-2.767,0.867-11.934,2.95-27.5,6.25l-1.5,0.2c4.533-2.533,8.4-4.967,11.601-7.3c6.1-4.434,9.149-8.366,9.149-11.8
		c0-2.267-0.899-3.684-2.7-4.25c-0.733-0.233-2.533-0.351-5.399-0.351c-2.3,0-3.983-1.083-5.05-3.25
		c-0.667-1.3-1.301-3.699-1.9-7.199s-1.25-5.917-1.95-7.25c-1.133-2.167-2.866-3.25-5.2-3.25
		C341.366,120.1,338.083,119.634,336.75,119z M332.1,170.5l-0.1,0.05c-3.5,0.9-7.083,2.434-10.75,4.601
		c-1.967,1.166-4.634,2.966-8,5.399l-0.9,0.65c1.334-1.834,5.434-6.233,12.301-13.2c6.533-6.533,9.8-9.833,9.8-9.9
		c0-0.399-0.05-0.75-0.15-1.05l-0.149-0.3c-0.7,0.233-1.95,0.884-3.75,1.95c-1.233,0.733-2.634,1.1-4.2,1.1
		c-2,0-4.117-0.166-6.351-0.5c-2.366-0.399-4.05-0.684-5.05-0.85l2.8-0.95l7.15-2.4c4.1,0,7.6-1.3,10.5-3.899
		c2.866-2.601,4.3-5.75,4.3-9.45c0.434-3.033,0.084-5.467-1.05-7.3c-0.1-0.2-0.9-1.05-2.4-2.55l-1.949-1.95
		c0.466-0.167,0.699-0.334,0.699-0.5l2.15-0.15c4.033,0,6.833,1.55,8.4,4.65c0.966,1.967,1.449,4.733,1.449,8.3
		c0,3.5-0.466,6.134-1.399,7.9c-0.967,1.733-1.45,2.833-1.45,3.3c0,0.066,0.434,0.434,1.3,1.1c0.834,0.667,1.25,1.733,1.25,3.2
		c0,2.033-1.866,4.35-5.6,6.95C338.884,166.134,335.934,168.066,332.1,170.5z M268.25,192.4c0.033-0.867-0.983-2.75-3.05-5.65
		c-2.033-2.9-3-5.184-2.9-6.85c0.334-4.334,0.267-7.45-0.2-9.351c-0.267-1.133-1.149-3-2.649-5.6l-0.15,1.149
		c-0.866,5.301-3.017,9.067-6.45,11.301c-2.333,1.5-5.216,2.25-8.649,2.25c-0.566,0-1.384-0.15-2.45-0.45
		c-1.033-0.3-1.8-0.601-2.3-0.9l1.149-0.35c4.367,0.533,7.817-0.2,10.351-2.2c3.267-2.634,4.899-7.35,4.899-14.15
		c0-2-0.583-4.333-1.75-7c-1.399-3.166-3.05-4.916-4.949-5.25l-4.301-0.149c-1.866,0.2-3.899-0.15-6.1-1.05
		c-1.767-0.767-3-1.534-3.7-2.301l-0.6-2.149c0.533,0.1,2.3,0.717,5.3,1.85c3.233,1.066,5.884,1.601,7.95,1.601
		c2.399,0,4.066-1.034,5-3.101c0.066-0.566-0.117-1.783-0.55-3.649c-0.4-1.7-0.784-3.051-1.15-4.051
		c2.533,2.601,5.55,5.233,9.05,7.9c2.134,2.267,2.851,5.7,2.15,10.3c-0.267,2.233,1.133,5.184,4.2,8.851
		c3.166,3.833,4.75,6.767,4.75,8.8c0,0.434-0.184,0.934-0.551,1.5c-0.366,0.566-0.55,1-0.55,1.3c0,2.233,2.4,4.917,7.2,8.05
		c4.9,3.2,8.75,4.467,11.55,3.8l-0.25,0.351c-0.033,0.033-1.866,0.383-5.5,1.05c-3.399,0.6-6.283,1.983-8.649,4.15l-0.851,0.1
		c-1.066,0.167-2.383,0.566-3.95,1.2l-2.35,1.35C267.684,194.25,268.017,193.366,268.25,192.4z M276.5,166.4l-3.95-1.15l-2.399-0.8
		h1.399c3.634,0,6.983-0.367,10.05-1.101c0.5,0,1.017,0,1.551,0c2.3,0,4.5-1.083,6.6-3.25c0.033-0.033,0.083-0.083,0.15-0.149
		c4.333-2.601,6.5-5.7,6.5-9.3c0.133-0.733,0.1-1.517-0.101-2.351c-0.066-0.333-0.116-0.616-0.149-0.85
		c-0.067-0.367-0.084-0.617-0.051-0.75c0-0.101,0.034-0.2,0.101-0.3c0.434-0.834,2.05-1.601,4.85-2.301
		c1.167,2.467,1.884,4.65,2.15,6.551c0.1,0.666,0.149,2.267,0.149,4.8c0,2.6-0.033,4.184-0.1,4.75c-0.134,1.533-0.566,2.85-1.3,3.95
		c-0.2,0.366-0.816,0.899-1.851,1.6c-1.433,0.967-2.883,1.5-4.35,1.6c-2.033,0.7-3.45,1.167-4.25,1.4c-1.2,0.3-2.967,0.45-5.3,0.45
		c-2.566,0-4.267-0.233-5.101-0.7C279.3,167.5,277.767,166.8,276.5,166.4z M165.5,198.35c0.5,3.601,0.75,5.7,0.75,6.301l-9.4,0.1
		l0.65-0.65c0.867-0.767,1.633-1.899,2.3-3.399c0.9-2.033,1.35-4.233,1.35-6.601c0-2.199-0.167-3.933-0.5-5.199
		c-0.4-1.601-0.617-2.551-0.65-2.851c0.033-0.233,0.217-0.217,0.55,0.05c0.2,0.134,0.383,0.284,0.55,0.45
		c0.5,0.7,1.367,2.566,2.6,5.601C165.033,195.483,165.633,197.55,165.5,198.35z M88.35,192.45l-0.4,1.1l-9.7-0.399l-0.5-0.051
		l2.7-2.149c1.8-1.4,3.033-3.233,3.7-5.5c0.667-2.367,0.983-6.117,0.95-11.25l0.65,0.85c0.567,0.967,1.1,2.084,1.6,3.351
		c0.233,0.699,0.566,2.449,1,5.25c0.367,2.566,0.55,4.066,0.55,4.5C88.9,189.517,88.717,190.95,88.35,192.45z M224.6,24.35
		c1.233,1.167,2.4,2.767,3.5,4.8c0.634,1.167,1.5,2.9,2.601,5.2c2.033,3.833,4.517,5.75,7.45,5.75c2.333,0,3.767-0.65,4.3-1.95
		c0.333-0.8,0.5-3.066,0.5-6.8c0-1.867-0.233-3.1-0.7-3.7c-0.566-0.767-1.8-1.15-3.7-1.15c-0.633,0-1.434-0.067-2.399-0.2
		c-1.167-0.167-1.9-0.35-2.2-0.55c0.3-0.267,0.783-0.883,1.45-1.85c0.233-0.367,0.5-0.767,0.8-1.2c0.3-0.467,0.566-0.883,0.8-1.25
		c0.7-1.267,1.066-2.15,1.1-2.65c1.567,1.733,2.717,3.284,3.45,4.65c0.733,1.333,1.4,3.1,2,5.3l0.8,2.35
		c2.767,6,6.517,10.433,11.25,13.3c3.2,1.934,5,3.05,5.4,3.35c1.967,1.467,3.65,3.317,5.05,5.55c-3.666-1-7.649-1.5-11.95-1.5
		c-2.267,0-4.233,0.333-5.899,1c-1.7,0.633-3.15,0.95-4.351,0.95c-0.699,0-1.683-0.55-2.949-1.65c-1.634-1.533-2.95-2.733-3.95-3.6
		c-4-3.5-7.867-5.25-11.601-5.25c-1.666,0-2.816,0.35-3.449,1.05c-0.634,0.767-0.95,2.167-0.95,4.2
		c7.967,4.3,12.283,6.45,12.95,6.45c0.466,0,2.149,1.683,5.05,5.05c3,3.467,4.5,5.667,4.5,6.6c0,4.033-1.634,7.633-4.9,10.8
		c-2.866,2.8-5.633,4.2-8.3,4.2l-2.7-0.35c1.601,0.033,3.283-0.867,5.05-2.7c2.233-2.333,3.351-5.167,3.351-8.5
		c0-2.433-1.017-4.816-3.05-7.15c-1.733-1.967-3.367-3.133-4.9-3.5c-5.066-1.267-8.05-3.083-8.95-5.45
		c-0.267-0.733-0.316-1.483-0.149-2.25c0.199-0.6,0.283-0.9,0.25-0.9c-0.334,0-0.534,0.133-0.601,0.4
		c-0.066,0.233-0.267,0.35-0.6,0.35c0.967-2.767,1.3-5.533,1-8.3c-0.601-5.533-4.384-8.3-11.351-8.3l1.15-0.55
		c0.767-0.233,1.55-0.433,2.35-0.6c0.634-0.033,1.25-0.066,1.851-0.1c3.633-0.3,6.149-0.8,7.55-1.5c1.733-0.9,2.6-2.45,2.6-4.65
		c0-1.066-0.433-1.933-1.3-2.6c-1.2-0.934-3.184-1.333-5.95-1.2c-1.8-0.333-3.733-0.65-5.8-0.95c3.634,0.034,7.367,0.133,11.2,0.3
		L224.6,24.35z M255.55,76.5c-0.2-0.133-0.366-0.267-0.5-0.4c4.733-0.133,8.8-1.583,12.2-4.35c3.533-2.933,5.3-6.467,5.3-10.6
		c0.434,0.367,1.55,1.15,3.351,2.35c1.733,1.167,2.883,1.9,3.449,2.2l2.25,1.2c0.467,2.2,0.534,3.45,0.2,3.75
		c-0.399,0.367-2.333,0.55-5.8,0.55c-1.634,0-3.2,1.15-4.7,3.45c-1.5,2.267-3.184,3.4-5.05,3.4
		C260.95,77.35,257.384,76.833,255.55,76.5z M254.75,76.4c-0.066-0.033-0.134-0.05-0.2-0.05L252.9,76.1h1.449
		C254.483,76.2,254.616,76.3,254.75,76.4z M265.1,98.05l0.65,0.85c7,6.9,10.533,10.383,10.6,10.45
		c5.434,6.233,8.15,11.65,8.15,16.25c0,5.667-0.184,9.483-0.55,11.45c-0.566,3.101-1.783,4.65-3.65,4.65
		c-0.033,0-3.75-4.134-11.149-12.4c1.199,0.5,2.6,1.101,4.199,1.8c1.134,0.5,2.117,0.75,2.95,0.75c0.9,0,1.667-0.416,2.3-1.25
		c1.034-1.366,1.551-3.767,1.551-7.199c0-3.934-2.117-8.7-6.351-14.3C269.033,103.533,266.134,99.85,265.1,98.05z M204.85,64.65
		v1.05c-0.466,5.5-3.116,8.25-7.949,8.25c-3.767,0-6.601-0.417-8.5-1.25c-1.8-1.133-3.517-1.967-5.15-2.5l-0.45-0.1
		c6,0.1,10.084,0.05,12.25-0.15c1.634,0.133,3.167-0.284,4.601-1.25c0.633-0.434,1.25-1,1.85-1.7c0.134-0.2,0.583-1.25,1.35-3.15
		c0.7-1.8,1.2-3.117,1.5-3.95l0.5-0.9v1V64.65z M97.55,133.95c0.167-0.167,0.45-0.884,0.85-2.15c0.5-1.533,1.617-3.517,3.35-5.95
		l1.35-1.649l-0.35,1.85c0,5.767-1.817,10.684-5.45,14.75c-3.667,4.066-8.083,6.101-13.25,6.101H76.6
		c2.4-0.334,5.95-1.967,10.65-4.9C92.517,138.7,95.95,136.017,97.55,133.95z M150.3,177.65c0.767-0.534,1.55-1.184,2.35-1.95
		c0.633-0.7,0.95-1.066,0.95-1.101c0.5-0.833,0.933-1.933,1.3-3.3c0.4-1.467,0.6-2.833,0.6-4.1c0-4.566,0.233-9.667,0.7-15.3
		c0.667,3.399,1.566,6.5,2.7,9.3c0.767,2,1.15,3.767,1.15,5.3c0,3.566-0.4,6.533-1.2,8.9c-1.333,3.966-3.684,5.949-7.05,5.949
		c-3.133,0-5.517-0.149-7.15-0.449c-1.1-0.167-3.383-0.567-6.85-1.2l1.25,0.05c1.667,0.167,3.767-0.017,6.3-0.55
		C147.517,178.733,149.167,178.217,150.3,177.65z M287.15,101.25c2.666,2.133,6.183,4.8,10.55,8c3.333,2.434,5.6,4.217,6.8,5.35
		c3.134,3.034,4.7,7.384,4.7,13.051c0,0.666-0.101,3.833-0.3,9.5c-1.467-1.601-2.817-2.65-4.051-3.15c-0.533-0.233-0.8-0.8-0.8-1.7
		c0.834-4.666,1.25-7.333,1.25-8c0-3-2.6-6.883-7.8-11.649C291.5,107.183,288.05,103.383,287.15,101.25z M71.75,101.35l2.9-4.45
		l0.9-1.4c0.8,6.467-2.033,12.5-8.5,18.1c-1.933,1.667-4.767,3.75-8.5,6.25c-3.767,2.5-6.216,4.233-7.35,5.2
		c-0.6,0.334-1.2,0.617-1.8,0.851c0.767-0.534,1.9-1.617,3.4-3.25c1.567-1.767,2.934-3.4,4.1-4.9c0.667-0.667,4.3-3.95,10.9-9.85
		c2.434-2.167,3.717-4.25,3.85-6.25L71.75,101.35z M40.4,150.1l2.7-7.199l0.8-2.051c-0.1,5.301-0.333,8.884-0.7,10.75
		c-0.667,3.2-2.05,5.184-4.15,5.95c-0.066,0-0.933,0.101-2.6,0.3c-1.034,0.134-2.883-0.199-5.55-1c-2.167-0.666-4.05-1.35-5.65-2.05
		l1.3,0.2c3.267,0.5,5.184,0.75,5.75,0.75c1.767,0,3.167-0.333,4.2-1C37.7,153.983,39,152.434,40.4,150.1z"/>
	<path style="fill-rule:evenodd;clip-rule:evenodd;fill:#6C5D45;" d="M296.15,147.45c0,0.666,0.083,1.733,0.25,3.2
		c0,3.6-2.167,6.699-6.5,9.3c2-2.134,3-4.351,3-6.65c0-4.033,0-6.083,0-6.149c-0.101-1.4-0.467-2.101-1.101-2.101
		c-5.866,0.167-10.5,1.533-13.899,4.101c-3.4,2.566-5.101,5.933-5.101,10.1c0,1.2,0.75,2.15,2.25,2.85
		c1.5,0.7,3.684,1.117,6.55,1.25c-3.066,0.733-6.416,1.101-10.05,1.101c-0.5-0.8-0.899-2.684-1.2-5.65
		c-0.333-3.233-0.733-5.399-1.199-6.5c-0.2-0.5-2.2-2.316-6-5.45c-3.267-2.699-4.9-5.5-4.9-8.399c0-0.634,0.884-1.483,2.65-2.55
		c1.699-1.034,2.899-1.551,3.6-1.551c1.033,0,3.884,1.317,8.55,3.95c2.533,1.434,6.066,3.434,10.601,6c2-2.133,3.833-5.6,5.5-10.399
		c1.433-4.034,2.149-6.9,2.149-8.601c0-0.899-0.916-2.583-2.75-5.05c-1.866-2.467-2.8-4.217-2.8-5.25c0-0.733,0.267-2.533,0.8-5.4
		l0.15-1.4c1.399,2.566,3.133,4.75,5.2,6.55c0.6,0.533,2.316,1.816,5.149,3.85c3.634,2.567,5.45,6.067,5.45,10.5
		c0,5.4-1.05,9.317-3.15,11.75c-1.399,1.567-2.133,2.417-2.199,2.551c-0.5,0.833-0.817,1.833-0.95,3
		c-0.066,0.1-0.101,0.199-0.101,0.3C296.066,146.833,296.083,147.083,296.15,147.45z M272.55,165.25l3.95,1.15
		c-0.1,0-0.733-0.167-1.9-0.5C273.434,165.566,272.75,165.35,272.55,165.25z M268.25,192.4c-0.233,0.966-0.566,1.85-1,2.649
		l-1.05,0.9c-8.033,6.633-13.733,11.05-17.101,13.25c-5.1,3.333-9.583,5.05-13.449,5.149c-3.801,0.167-7.2,0.784-10.2,1.851
		c-3.8,1.333-8.834,2.116-15.101,2.35l0.5-0.25c1.801-0.899,2.834-1.434,3.101-1.6c0.133-0.101,0.467-0.483,1-1.15l0.05-1.05
		c-2.333,0-3.717-0.017-4.15-0.05c-2.333-0.233-3.983-0.851-4.949-1.851c0.833,0.167,3.633,0.5,8.399,1
		c5.033,0.534,8.25,0.801,9.65,0.801c4.3,0,8.55-1.934,12.75-5.801c3.533-3.267,5.3-5.616,5.3-7.05c0-2.767-0.7-7-2.1-12.7
		c-1.4-5.666-2.101-9.449-2.101-11.35c0-2.066,1.783-3.684,5.351-4.85c3.566-1.167,5.35-2.334,5.35-3.5
		c0-1.967-0.55-3.884-1.65-5.75c-1.233-2.034-2.883-3.534-4.949-4.5c-0.534-0.567-1.851-1.434-3.95-2.601
		c-2.7-1.467-5.033-2.283-7-2.45c-3.834-1.199-7.066-1.916-9.7-2.149c-0.267-0.033-0.533-0.05-0.8-0.05
		c-2.667-0.301-4.917-0.7-6.75-1.2c-0.8-0.233-1.917-1.117-3.351-2.65c-0.966-1.033-2.083-2.383-3.35-4.05
		c-2.833-3.8-5.75-5.684-8.75-5.65l1.1-3.399c0.7,0.333,2.4,1.649,5.101,3.95c2.633,2.267,4.283,3.533,4.95,3.8l0.85,0.149
		c-2.366-2.1-4.3-3.883-5.8-5.35c-2.834-2.767-4.25-4.866-4.25-6.3c0-0.967,0.533-1.65,1.6-2.05c1.3-0.5,2.2-1.65,2.7-3.45
		c4.866,3.166,9.417,7.55,13.65,13.149c1.399,1.834,2.683,3.084,3.85,3.75c1.634,0.9,3.884,1.351,6.75,1.351
		c1.767,0,2.866-0.55,3.3-1.65c0.267-0.7,0.316-2.083,0.15-4.149c-0.267-3.801,0.3-6.75,1.7-8.851c-0.167,0.4-0.25,1.084-0.25,2.05
		l0.899,3.801c0.733,2.733,1.483,4.633,2.25,5.699c2.367-3.399,3.851-5.633,4.45-6.699c0.833-1.5,1.25-3.551,1.25-6.15
		c0-6.467-0.7-11.15-2.1-14.05c-1.034-2.066-2.601-3.45-4.7-4.15c-2.9-0.966-4.45-1.533-4.65-1.7
		c-1.434-1.067-2.149-3.283-2.149-6.65c0-1.967-5.817-4.567-17.45-7.8c-14.934-4.133-23.117-6.517-24.55-7.15
		c0.833,0.667,6.85,5.317,18.05,13.95c4.467,3.433,9.116,5.35,13.95,5.75c1.966,0.167,3.133,0.333,3.5,0.5
		c0.767,0.367,1.149,1.216,1.149,2.55c0,1.6-0.267,3.366-0.8,5.3c-0.167,0.601-0.3,1.101-0.4,1.5c0-0.267-0.017-0.533-0.05-0.8
		c-0.2-2.767-1.5-5.05-3.899-6.85c-0.467-0.467-1.101-0.95-1.9-1.45c-1.533-0.967-3.017-1.45-4.45-1.45
		c-8.233-3.667-14.483-7.233-18.75-10.7c-5.2-4.267-7.8-8.683-7.8-13.25c0-2.033-0.067-3.55-0.2-4.55
		c-0.267-1.9-0.816-3.333-1.65-4.3c1.5,1.2,4.567,3.2,9.2,6c4.733,2.9,7.367,4.35,7.9,4.35c3.7,0,6.35-1.333,7.95-4
		c1.233-2.066,1.85-5.017,1.85-8.85c0-1.767-0.5-3.6-1.5-5.5c-1.166-1.9-1.95-3.25-2.35-4.05l-0.601,0.3
		c-0.199-0.267-0.616-0.5-1.25-0.7v-1l-0.5,0.9c-1.733,0.067-3.05,0.117-3.949,0.15c-0.5-0.566-1.034-1.133-1.601-1.7
		c-1.133-1.133-1.899-1.733-2.3-1.8c-0.467-0.433-2.316-0.783-5.55-1.05c-2.434-0.233-4.4-0.35-5.9-0.35c-5.367,0-9.7,1.817-13,5.45
		c-2.066,2.267-4.75,6.9-8.05,13.9c0.467-1.867,1.183-5.467,2.15-10.8c0.733-3.934,1.434-6.667,2.1-8.2
		c2.933-1.167,4.917-2.017,5.95-2.55c1.733-0.9,2.6-2.317,2.6-4.25c0-1.534-1.3-2.434-3.9-2.7c-4.267-0.4-7.617-1.15-10.05-2.25
		c2.9-0.333,4.8-0.5,5.7-0.5c2.233,0,5.367,0.767,9.4,2.3c4.033,1.534,6.533,2.3,7.5,2.3c4.466,0,7.383-2.133,8.75-6.4l-8.75,0.15
		c-3.333,0-7.233-1.033-11.7-3.1c-4.733-2.233-7.1-4.383-7.1-6.45c0-0.1,1.967-2.833,5.9-8.2c4.067-5.567,6.8-9.233,8.2-11
		c-3.733,0.566-7.4,1.533-11,2.9c-5.7,2.133-8.55,4.567-8.55,7.3c0,1.067,0.383,3.5,1.15,7.3c0.733,3.8,1.1,5.833,1.1,6.1
		c0,0.966-0.417,1.683-1.25,2.15c-0.6,0.3-1.534,0.55-2.8,0.75c0.4-1.3,0.6-3.217,0.6-5.75c0-0.633-0.3-2.35-0.9-5.15
		c-0.633-3.067-1.133-4.9-1.5-5.5c-0.267-1.6-0.4-2.517-0.4-2.75c0-1,0.716-2.133,2.15-3.4c1.6-1.4,2.617-3.083,3.05-5.05
		c0.167-0.833,1.533-1.85,4.1-3.05c3.067-1.434,4.933-2.45,5.6-3.05c1.3,0.567,5.967,1.667,14,3.3c8.466,1.667,13.6,2.417,15.4,2.25
		c-1.5,0.933-2.4,1.517-2.7,1.75c-0.267,0.2-0.95,0.933-2.05,2.2c-2.9,0.833-5.066,2.117-6.5,3.85c-0.733,0.933-1.467,2.067-2.2,3.4
		l-2.3,0.05h2.2c-1.133,0.566-2.717,1.05-4.75,1.45c-2.567,0.5-5.067,0.7-7.5,0.6c0,1.1-0.034,1.85-0.1,2.25l-0.95,1.1
		c-1.767,0.233-2.95,0.7-3.55,1.4c-0.4,0.4-0.6,1.05-0.6,1.95c0,3.267,1.817,5.667,5.45,7.2c2.767,1.167,6.35,1.75,10.75,1.75
		c1.466,0,2.95-0.35,4.45-1.05c1.133-0.5,2.116-1.117,2.949-1.85l9.051-3.85c0.899,0,1.933,0.1,3.1,0.3c1.167,0.233,2,0.466,2.5,0.7
		l-1.15,0.55c-4.433,0.367-6.699,0.55-6.8,0.55c2.634,0.233,5.05,0.617,7.25,1.15c4.3,1,6.566,2.517,6.8,4.55
		c0.267,2.566,0.867,5.216,1.801,7.95c0.767,2.367,1.149,4.267,1.149,5.7c0,1-0.133,1.95-0.399,2.85
		c-0.467,1.566-0.75,2.617-0.851,3.15c1.934,1.233,4.033,2.167,6.3,2.8c1.233,0.367,2.834,0.767,4.801,1.2
		c2.767,0.833,4.149,3.283,4.149,7.35c0,2.1-0.583,3.917-1.75,5.45c-1.267,1.667-2.934,2.517-5,2.55
		c3.033,2.1,8.4,5.75,16.101,10.95c2.199,1.5,5.05,3.533,8.55,6.1l0.8,0.65l-2.55-1.6l-0.851-0.65l-0.6-0.6
		c4.333,5.067,7,9.184,8,12.35c0.8,2.5,0.517,3.75-0.85,3.75c-0.334,0-0.384-0.167-0.15-0.5c0.233-0.367,0.184-0.551-0.15-0.551
		c-0.333,0-0.449,1.7-0.35,5.101c0.134,4.133,0.083,6.833-0.15,8.1c-0.066,0.367-0.699,1.684-1.899,3.95
		c-1.167,2.5-1.75,4.7-1.75,6.6c0,0.9,0.483,2.601,1.45,5.101c0.267,0.7,0.949,2.399,2.05,5.1c-0.934,2.066-2.601,3.101-5,3.101
		c-2.066,0-4.717-0.534-7.95-1.601c-3-1.133-4.767-1.75-5.3-1.85l0.6,2.149l-1.85-0.899c1.633,3.166,3.717,5.55,6.25,7.149
		c1.467,0.934,3.666,1.834,6.6,2.7c2.566,0.8,4.3,1.584,5.2,2.351c1.4,1.233,2.1,3.233,2.1,6c0,3.866-1,7.066-3,9.6
		c-2.666,3.366-6.583,4.45-11.75,3.25c0,3.9,1.034,7.783,3.101,11.65c2.033,3.866,3.05,8.767,3.05,14.699
		c0,0.834-0.316,2.551-0.95,5.15l-0.05,0.3c1.533-0.566,2.833-2.633,3.9-6.2c0.899-2.899,1.35-5.449,1.35-7.649
		c0-1.134-0.184-2.351-0.55-3.65c-0.4-1.3-0.601-2.7-0.601-4.2c0-1.533,0.467-2.916,1.4-4.149c0.934-1.2,2-1.8,3.2-1.8
		c0.2,0,1.967,1.649,5.3,4.949C261.45,188.7,264.95,191.134,268.25,192.4z M198.85,218.7h-0.25l-4.05-1.5l-4.5-2.851l-0.05-1.3
		c0-0.566,0.417-1.166,1.25-1.8c1.2-0.767,2.15-1.417,2.85-1.95c2.7-2.166,4.051-5.083,4.051-8.75c0-1.666-0.617-4.166-1.851-7.5
		c-1.399-3.866-2.866-6.25-4.399-7.149l-0.25-0.15c-1.5-0.7-3.7-2.384-6.601-5.05c-1.9-1.7-4.367-2.55-7.4-2.55
		c-2.633,0-4.417,0.399-5.35,1.199c-1.1,0.934-1.716,2.834-1.85,5.7l-1.25,3L169,188.4c-0.1,0.3-0.083,0.649,0.05,1.05
		c0.067,0.333,0.317,1.033,0.75,2.1c0.4,1.033,0.65,1.634,0.75,1.8c1.8,3.134,4.25,6.334,7.35,9.601c1.667,1.7,2.267,3.533,1.8,5.5
		c-6.1-2.434-10.583-3.7-13.45-3.8c0-0.601-0.25-2.7-0.75-6.301c1.167-1.233,1.85-2,2.05-2.3c0.233-0.333,0.35-1.066,0.35-2.2
		c0-4.633-1.15-8.183-3.45-10.649c-1.133-1.101-1.917-1.934-2.35-2.5c-0.733-0.9-1.1-1.95-1.1-3.15c0.667-5.066,1-7.934,1-8.6
		c0-3.2-0.55-6.55-1.65-10.05c-1.167-3.767-2.55-6.15-4.15-7.15l0.1-1.15l-0.15,1.15c-3.2-2.634-5.75-4.75-7.65-6.35
		c-2.733-2.4-5.517-4.817-8.35-7.25c0.467,1.1,1.767,3.033,3.9,5.8c2.5,3.267,4.317,5.866,5.45,7.8
		c4.467,7.467,5.833,15.083,4.1,22.85c0,0.034-0.317,0.4-0.95,1.101c-0.8,0.767-1.583,1.416-2.35,1.95
		c-1.267,0.267-2.617,0.399-4.05,0.399c-0.033,0-1.633-0.184-4.8-0.55c-3.333-0.566-5.483-1.384-6.45-2.45l9.25,0.05
		c3.4,0,5.5-0.066,6.3-0.199c1.167-0.167,1.75-0.65,1.75-1.45c0-8.2-1.517-15.5-4.55-21.9c-0.767-1.633-1.617-3.166-2.55-4.6
		c-1.267-1.967-2.684-3.75-4.25-5.351c-1.867-1.966-3.95-3.683-6.25-5.149c0.433,0,1.216,0.133,2.35,0.399
		c1.567,0.367,2.6,0.801,3.1,1.301l-0.25-0.801c1.333,1.101,2.817,1.817,4.45,2.15c0.967-0.833,2.05-1.7,3.25-2.6
		c2.367-1.834,4.2-2.967,5.5-3.4l-0.05,3.45c0,6.233,1.883,11.934,5.65,17.1c0.966,1.334,2.316,3.084,4.05,5.25
		c1.3,1.834,2.033,3.45,2.2,4.851c0.6,5.166,2.583,8.416,5.95,9.75c1.233,0.466,4.133,0.699,8.7,0.699
		c-1.833,0.5-4.517,0.817-8.05,0.95H170c3.1,0.667,5.217,1.101,6.35,1.3c1.767,0.334,3.367,0.5,4.8,0.5c4,0,6.483-1.616,7.45-4.85
		c0.433-1.467,0.65-5.4,0.65-11.8l-0.15-15.65c-1.667,10.4-2.45,17.05-2.35,19.95c0.067,1.467-0.133,2.917-0.6,4.35
		c0.167-1.5,0.25-3.133,0.25-4.899s-0.4-3.367-1.2-4.8c-0.833-1.434-1.25-2.45-1.25-3.051c0-0.8,0.55-1.883,1.65-3.25
		c1.1-1.366,1.65-4.033,1.65-8c0-1.933-0.983-6.216-2.95-12.85c-1.633-5.667-2.917-9.634-3.85-11.9
		c-1.434-2.933-2.633-5.517-3.6-7.75c-1.8-4.266-2.7-7.8-2.7-10.6c0-1.6,0.167-3.75,0.5-6.45c0.367-2.933,0.767-4.95,1.2-6.05
		l0.35-0.85c-0.9,10.133,0.867,18.95,5.3,26.45c1.733,2.934,3.683,5.284,5.85,7.051c2,1.633,3.784,2.449,5.35,2.449
		c1.666,0,2.6-0.933,2.8-2.8c0.066-3.333,0.283-6.517,0.65-9.55c2.233,2.6,3.416,3.983,3.55,4.15c0.133,1.033,0.2,1.883,0.2,2.55
		c0,4.066-1.65,6.434-4.95,7.1c-0.601,0.134-2.65,0.033-6.15-0.3l-0.5,0.1c0.633,0.634,1.7,1.551,3.2,2.75
		c1.2,1.2,1.8,2.551,1.8,4.051c0,0.399,0.134,0.616,0.4,0.649c1.3,0.066,3.083,0.417,5.35,1.05l-2.85,4.25
		c-1.934,2.934-2.9,4.7-2.9,5.301c-0.267,0.933-0.434,2.416-0.5,4.449c-0.7,1.367-1.166,2.567-1.399,3.601
		c-0.167,0.833-0.25,2.133-0.25,3.899c0,0.667,0.183,2.45,0.55,5.351l-0.15,3.7c0,0.767,0.066,1.75,0.2,2.949
		c0.167,1.867,0.267,3.733,0.3,5.601c0.334,1.267,1.733,2.816,4.2,4.649l3.05,2.7c1.033,1.267,2.066,3.084,3.101,5.45
		c0.966,2.2,1.6,3.45,1.899,3.75v0.45c-3.899-3.533-5.883-5.316-5.95-5.351c0.334,1.9,0.967,4.034,1.9,6.4
		c0.634,1.566,0.95,3.65,0.95,6.25c0,3.967-0.384,6.65-1.15,8.05c-0.899,1.566-3.149,3.267-6.75,5.101
		c0.5,1.566,1.467,3.133,2.9,4.699C196.934,216.684,197.816,217.634,198.85,218.7z M133.15,176.65c1.133,1.533,2.667,3.383,4.6,5.55
		c1.4,1.7,2.1,3.184,2.1,4.45c0,1.666-0.267,3-0.8,4c-0.767,1.333-2.183,2.483-4.25,3.449l-1.1,0.801
		c1.1,0.1,1.983,0.149,2.65,0.149c3.633,0,5.967-1.066,7-3.2c0.533-1.1,1.033-1.833,1.5-2.199c0.9-0.667,2.35-1,4.35-1
		c5.1,0,8.033,2.449,8.8,7.35c0.367,2.5,0.2,5.2-0.5,8.1l-0.65,0.65c-7.833-0.767-14.633-2.316-20.4-4.65
		c-7.633-3.066-12.867-4.933-15.7-5.6l-0.4-0.1c0.4-0.034,1.133,0,2.2,0.1c1.133,0.066,1.833,0.1,2.1,0.1c2.6,0,4.8-1.716,6.6-5.149
		C133.15,185.783,133.783,181.517,133.15,176.65z M117.9,50.4c-0.3-0.066-1.75-0.583-4.35-1.55c-2.933-0.934-5.517-1.4-7.75-1.4
		c-5.5,0-9.566,1.017-12.2,3.05c-2.333,1.8-3.5,4.333-3.5,7.6c0,2.1,0.933,3.316,2.8,3.65c3.233,0.1,6.167,0.217,8.8,0.35
		c0,0.066,0.316,0.133,0.95,0.2c-0.566,0.833-1.117,1.434-1.65,1.8c-5.433,1.633-8.8,2.95-10.1,3.95c-0.9,0.7-2.083,2.083-3.55,4.15
		l-1.95,3.7l-1.05,2.75c-1.467,2.7-2.533,7.9-3.2,15.6c-0.733,8.7-1.25,13.583-1.55,14.65c-0.1,0.333-1.7,2.667-4.8,7
		c-2.667,3.733-4.083,7.466-4.25,11.199c-0.1,1.2-0.15,1.934-0.15,2.2c0,2.367,0.233,4,0.7,4.9c0.3,0.666,1.083,1.434,2.35,2.3
		c-0.1,1.967-0.284,4.1-0.55,6.4c-0.233,2.033-0.35,3.133-0.35,3.3c0,0.133,0.067,0.283,0.2,0.45c0.3,0.333,0.833,0.716,1.6,1.149
		H73.7c5.633,0.8,8.9,1.267,9.8,1.4c0.867,0.1,2.117,0.149,3.75,0.149c2.633,0,4.967-0.449,7-1.35c2.733-1.233,5.75-3.517,9.05-6.85
		c-0.466,0.8-2.483,2.733-6.05,5.8c-3.3,3.3-4.95,6.283-4.95,8.95l0.15,4.25c-0.1-0.233-0.35-0.917-0.75-2.051
		c-0.4-1.166-0.6-1.783-0.6-1.85l-0.3-0.75c-1.4,2.533-2.867,4.684-4.4,6.45c-1.233,1.399-2.7,2.733-4.4,4
		c-0.433,1.1-0.833,5.05-1.2,11.85c-0.933,6.566-3.083,10.601-6.45,12.101l-1.65,0.5c1.6-0.134,2.867-0.2,3.8-0.2
		c1.7-0.033,3.017,0.217,3.95,0.75l-2.7,2.149H75.8l-5.95-0.149c-3.533,0.1-6.717,0.133-9.55,0.1l-0.2-0.399
		c2.733,0.5,6.25-0.5,10.55-3c4.667-2.7,7-5.65,7-8.851c0-2.399-0.233-4.883-0.7-7.45c-0.5-2.566-0.75-4.433-0.75-5.6
		c0-3.833,0.9-6.816,2.7-8.95c1.9-1.6,2.983-2.783,3.25-3.55c-2.833-0.1-4.85-0.25-6.05-0.45c-1.533-0.233-2.817-0.583-3.85-1.05
		c-0.833-0.4-1.5-0.866-2-1.4c-0.967-1.066-1.45-2.75-1.45-5.05c-0.033-0.434-0.033-0.883,0-1.35c0.4-2.867,0.534-4.483,0.4-4.851
		c-1-3.166-2.9-5.6-5.7-7.3c-2.3-1.399-3.433-3.3-3.4-5.7c-5,3.767-8.3,8.301-9.9,13.601c-0.467,1.533-1.133,3.916-2,7.149
		c-0.867,3.034-2,5.801-3.4,8.301l-2.4,1.699c-2.367,2.367-5.3,5.801-8.8,10.301c-1.767,2.267-3.65,4.666-5.65,7.199l-2.95-2.5
		l-0.05-0.05H24.9l-0.05-0.05l-0.15-0.15c0.9-1.966,2.95-5.017,6.15-9.149c2.9-3.767,4.767-5.967,5.6-6.601
		c1.667-0.199,2.533-0.3,2.6-0.3c4.267-1,6.983-5.25,8.15-12.75c0.367-2.366,0.6-5.217,0.7-8.55c0.1-3.866,0.15-5.833,0.15-5.9
		c2-1.466,5.684-3.566,11.05-6.3c4.867-2.5,8.483-4.733,10.85-6.7c7.533-6.433,10.716-16.883,9.55-31.35v-2
		c-3.467,6.2-5.217,9.733-5.25,10.6c-0.033,0.133,0.067,0.367,0.3,0.7c0.233,0.3,0.267,0.833,0.1,1.6l-2.9,4.45
		c0-0.033,0.383-1.867,1.15-5.5c0.733-3.6,1.417-6.3,2.05-8.1c0.466-1.3,1.783-3.65,3.95-7.05c2.033-3.133,3.05-4.75,3.05-4.85
		c0-1.567-0.467-2.65-1.4-3.25c-0.5-0.3-1.533-0.567-3.1-0.8c-3.034-0.433-4.55-2.183-4.55-5.25c0-3.367,0.583-5.933,1.75-7.7
		c1.167-1.733,1.75-3.35,1.75-4.85c0-1.2-0.3-2.983-0.9-5.35c-0.8-3.133-1.333-5.467-1.6-7v-5.3c0.233,2.5,1.867,4.816,4.9,6.95
		c3.5,2.467,6.934,3.35,10.3,2.65c-0.267,0.133-0.867,0.267-1.8,0.4c-0.933,0.133-1.65,0.2-2.15,0.2c-0.1,0-2.367-0.733-6.8-2.2
		c0.5,2.167,2.883,3.683,7.15,4.55l6.2,0.65c1,0,2.283-0.4,3.85-1.2c2-1.133,3.6-2.017,4.8-2.65c4.667-2.467,9.167-3.55,13.5-3.25
		l1.2-0.05c-3.033-0.967-5.65-1.533-7.85-1.7c-0.534-0.034-4.1-0.1-10.7-0.2c2-0.667,3.55-1,4.65-1c6.167,0,11.833,1.167,17,3.5
		c2.367,1.167,4.033,1.967,5,2.4c1.6,0.733,2.934,1.1,4,1.1c1.3,0,2.2-0.067,2.7-0.2c0.8-0.167,1.65-0.633,2.55-1.4
		c-0.767,0.7-1.35,1.167-1.75,1.4c-0.9,0.534-1.833,0.8-2.8,0.8c-1.267,0-2.583-0.267-3.95-0.8c-2.133-0.833-3.383-1.3-3.75-1.4
		l-1.65-0.65c2.933,3.767,6.917,5.65,11.95,5.65c0.367,0,0.716-0.017,1.05-0.05c-1,0.3-1.717,0.583-2.15,0.85
		c-2.067,0-4.15-0.034-6.25-0.1C121.933,50.567,120.2,50.5,117.9,50.4z M93.35,172.05c0.433,0.834,1.55,1.816,3.35,2.95
		c1.533,0.967,2.3,1.85,2.3,2.65c0,1.133-1.583,2.416-4.75,3.85c-3.2,1.434-4.8,3.083-4.8,4.95c0,1.967,3.8,3.483,11.4,4.55
		c5.133,0.733,9.633,1.1,13.5,1.1c1.433,0,2.55-0.55,3.35-1.649c0.633-0.9,0.95-1.95,0.95-3.15c0-1.399-0.533-3.1-1.6-5.1
		c-1.867-3.5-3.517-7.117-4.95-10.851c2.833-0.5,4.9-1.533,6.2-3.1c1.733-2.066,2.817-5.6,3.25-10.6l0.15-1.051
		c0.433,0.801,0.65,1.634,0.65,2.5c0,0.667-0.25,4.817-0.75,12.45c0.767,4.5,1.15,6.8,1.15,6.9c0,0.5-0.417,3.033-1.25,7.6
		c-0.867,4.9-1.483,7.65-1.85,8.25c-0.467-0.1-2.45-0.217-5.95-0.35c-5.267-0.2-11.667-0.3-19.2-0.3l-5.75-0.101l-0.4-1.1
		c0.367-1.5,0.55-2.934,0.55-4.3c0-0.434-0.183-1.934-0.55-4.5c-0.434-2.801-0.767-4.551-1-5.25
		C90.583,175.066,92.583,172.95,93.35,172.05z M148.2,44.2c-0.534,0.2-1.267,0.7-2.2,1.5c-0.833,0.7-3.483,1.533-7.95,2.5
		c-1.466,0.333-2.75,0.633-3.85,0.9c0.7-0.367,1.283-0.883,1.75-1.55c0.5-0.7,1.117-2.3,1.85-4.8c0.767-0.8,1.95-1.617,3.55-2.45
		c2.3-1.167,4.583-1.75,6.85-1.75c1.233,0,2.867,0.367,4.9,1.1l4.85,3.05h-0.15C153.433,42.633,150.233,43.133,148.2,44.2z
		 M9.8,166.45c4.833,0,8.967-0.917,12.4-2.75c3.4-1.834,5.1-4.033,5.1-6.601h0.35l0.15,1.851c0,4.133-1.933,6.833-5.8,8.1
		c-2.867,0.9-6.267,0.983-10.2,0.25L9.8,166.45z M205.05,11.5l-0.1-0.2l0.8,0.05L205.05,11.5z M317.6,157.5
		c-5.233-1-7.85-3.783-7.85-8.35c0-4.801,1.184-8.65,3.55-11.551c1.467-1.8,2.283-2.85,2.45-3.149c0.733-1.2,1.1-2.601,1.1-4.2
		c0-3.333-1.3-7.566-3.899-12.7c-3.233-6.399-7.167-10.5-11.8-12.3c-3.467-1.333-8.167-4.883-14.101-10.65
		c-6.233-6.033-9.35-10.333-9.35-12.9c0-1.3,1.899-1.983,5.7-2.05c1.933-0.033,3.883,0.067,5.85,0.3c0.733,0,1.483-0.467,2.25-1.4
		c0.767-0.933,1.634-1.4,2.6-1.4c2.134,0,4.717,1.4,7.75,4.2c2.667,2.467,4,3.95,4,4.45c0,0.333-0.283,0.717-0.85,1.15
		c-0.8,0.566-1.5,1.3-2.1,2.2l-0.051,1.25l1.551,0.15c3.199,0,5.316-0.45,6.35-1.35c0.733-0.6,1.7-2.4,2.9-5.4
		c0.133,0.067,0.25,0.117,0.35,0.15c1.167,0.5,3.267,1.633,6.3,3.4c2.867,1.667,4.8,2.85,5.8,3.55c0,4.667-0.466,7.25-1.399,7.75
		c-0.467,0.233-1.3,0.3-2.5,0.2c-2.066-0.167-3.467-0.25-4.2-0.25c-1.267,0-2.35,0.367-3.25,1.1c-1.1-0.5-2.066-0.967-2.9-1.4
		c-1.566-0.833-3.05-1.867-4.449-3.1c9,11.1,15.949,18.066,20.85,20.899c1.5,0.867,3.1,1.483,4.8,1.851
		c1.834,0.399,3.066,0.75,3.7,1.05l0.35,2.9c0,1.966-0.533,3.483-1.6,4.55c-0.634,0.6-1.65,1.366-3.05,2.3
		c0.267,0.6,0.75,1.217,1.45,1.85c0.8,0.733,1.533,1.167,2.199,1.301c1.5,1.5,2.301,2.35,2.4,2.55c1.134,1.833,1.483,4.267,1.05,7.3
		c-0.899,1.233-3.033,3.283-6.399,6.15c-5.067,4.3-7.867,6.699-8.4,7.199L317.6,157.5z M328.85,132.8
		c-6.666,0-11.267,1.117-13.8,3.351c-2.566,2.3-3.85,6.5-3.85,12.6c0,2.033,0.25,3.55,0.75,4.55c0.899,1.9,2.666,2.851,5.3,2.851
		c2.233,0,5.283-2.834,9.15-8.5c3.866-5.667,5.8-10.2,5.8-13.601C332.2,133.217,331.083,132.8,328.85,132.8z M254.75,76.4
		c-0.134-0.1-0.267-0.2-0.4-0.3H252.9l1.649,0.25c12.533,13.6,18.184,20.533,16.95,20.8c-0.634,0.133-3.583,0.367-8.85,0.7
		c2.733,5.033,6.1,10.517,10.1,16.45c2.667,4.367,4,8.417,4,12.15c0,0.767-0.316,1.316-0.95,1.649
		c-0.666,0.367-1.783,0.551-3.35,0.551c-2.267,0-4.217-0.7-5.851-2.101c-2.133-2.267-4.05-4.267-5.75-6
		c-1.633-1.633-2.899-4.05-3.8-7.25c-0.899-3.066-1.583-7.25-2.05-12.55c-0.267-3.1-2.217-6.483-5.85-10.15
		c-3.534-3.6-5.301-6.15-5.301-7.65c0-0.333,0.167-1.317,0.5-2.95c0.301-1.633,0.45-2.617,0.45-2.95c0-0.466-0.217-2.533-0.649-6.2
		c-0.467-3.7-0.7-5.567-0.7-5.6c0-3.167,0.967-5.5,2.899-7c1.267-0.967,2.617-1.45,4.051-1.45c2,0,5.05,1.434,9.149,4.3
		c4,2.8,6,4.75,6,5.85c0,3.233-1.283,5.367-3.85,6.4c-1.167,0.467-3.867,0.85-8.101,1.15c0.267,0.433,0.75,0.967,1.45,1.6
		c0.134,0.133,0.3,0.267,0.5,0.4c0.601,0.533,1.351,1.133,2.25,1.8c1.334,1,3.55,2.633,6.65,4.9
		C270.316,87.733,267.083,85.467,254.75,76.4z M260.45,95.7c3.033,0.433,5.1,0.2,6.2-0.7c1.1-0.867,1.05-2.133-0.15-3.8
		c-2.934-4.167-9.934-8.034-21-11.6c0,1.867,1.15,4.4,3.45,7.6c3.233,4.533,5.533,8.25,6.899,11.15c0.7,1.467,1.217,5.4,1.551,11.8
		c0.933,5.699,3.416,8.55,7.449,8.55c1.101,0,1.817-0.384,2.15-1.15c0.267-0.566,0.4-1.717,0.4-3.45c0-2.699-1.217-5.85-3.65-9.45
		s-3.65-5.933-3.65-7C260.1,97.117,260.217,96.467,260.45,95.7z M138.9,84.95c0.667-1.5,1.267-2.383,1.8-2.65
		c0.833-0.233,1.7-0.65,2.6-1.25c-0.2,0.434-0.917,1.167-2.15,2.2C139.983,84.283,139.233,84.85,138.9,84.95z M138.45,88.85
		l0.25,1.2c0.3-3.867,4.216-7.283,11.75-10.25c8.3-2.466,12.633-3.9,13-4.3c-0.4,1.133-0.784,2-1.15,2.6l-0.25,0.1l-0.2-0.25
		l-1.8,1.1c-0.733,0.2-2.017,0.483-3.85,0.85c-3.067,0.033-5.233,0.583-6.5,1.65c-1.167,0.967-1.75,2.55-1.75,4.75
		c0,1.167,0.517,2.233,1.55,3.2c0.167,0.533,0.567,1.1,1.2,1.7c0.9,0.9,1.783,1.35,2.65,1.35c0.367,0,0.717,0,1.05,0
		c1.967,1.333,3.417,2.85,4.35,4.55l0.1,0.8l0.2-5v13.15c-0.433-1.033-1.083-2.2-1.95-3.5c-0.367-0.6-1.567-2.316-3.6-5.15l2.1,4.3
		c1.367,3,2.066,4.783,2.1,5.35c-0.2-0.267-1-1.483-2.4-3.65c-0.9-1.433-1.816-2.517-2.75-3.25l0.05-2.3
		c-12.767-0.367-19.567-0.434-20.4-0.2c-0.467,0.167-0.8,0.633-1,1.4c-0.233,1.034-0.8,2-1.7,2.9c-1.667,0.966-2.983,2.867-3.95,5.7
		l-1.5,6.15c-0.3,1.2-1.267,2.65-2.9,4.351c-1.7,1.8-2.583,2.8-2.65,3c-0.833,2.066-3.283,4.416-7.35,7.05
		c-2.066,1.333-4.283,2.733-6.65,4.2V125c5.067-0.566,8.617-2.533,10.65-5.9c1.733-2.899,2.6-7.399,2.6-13.5
		c0-1.333-1.067-2.7-3.2-4.1c-2.667-1.767-6.1-2.65-10.3-2.65c-0.567,0-1.45,0.083-2.65,0.25c-1.333,0.167-2.4,0.367-3.2,0.6
		c1.133-0.8,3.033-1.483,5.7-2.05c2.167-0.5,3.767-0.75,4.8-0.75c0.233,0,0.967,0.184,2.2,0.55s2.333,0.55,3.3,0.55
		c2.233,0,3.75-0.733,4.55-2.2c0.667-1.233,1.117-3.733,1.35-7.5c2.333,2.767,3.767,4.333,4.3,4.7c1.2,0.867,3.05,1.3,5.55,1.3
		c2.434,0,4.067-0.25,4.9-0.75C136.05,92.95,137.183,91.383,138.45,88.85z M201.5,67c-0.6,0.7-1.217,1.267-1.85,1.7
		c-1.434,0.966-2.967,1.383-4.601,1.25C197.15,68.683,199.3,67.7,201.5,67z M167.9,55.75l-3.1,3.35c0.133-0.267,0.534-0.767,1.2-1.5
		C166.733,56.733,167.367,56.117,167.9,55.75z M101.75,125.85c-1.733,2.434-2.85,4.417-3.35,5.95c-0.4,1.267-0.683,1.983-0.85,2.15
		c0-2.233,0.417-4.134,1.25-5.7C99.6,126.65,100.583,125.85,101.75,125.85z M204.85,65.7v-1.05l0.75-1L204.85,65.7z M222.3,117.95
		c0.167,0.133,0.4,0.267,0.7,0.399c0.533,0.2,1.116,0.301,1.75,0.301c0.2-0.167,0.5-0.367,0.9-0.601
		c0.833-0.434,1.816-0.783,2.949-1.05c-1,0.5-2.267,1.1-3.8,1.8c-1.633,0.733-2.55,1.117-2.75,1.15
		C222.15,119.25,222.233,118.583,222.3,117.95z M234.95,118.6c-0.134-0.633-0.55-1.166-1.25-1.6c-0.867-0.6-1.9-0.9-3.101-0.9
		c1.467-0.733,2.351-1.1,2.65-1.1C234.083,115,234.65,116.2,234.95,118.6z M206.2,206.5c-0.167-1.366-0.101-2.6,0.2-3.7
		c0.433-1.233,0.75-2.184,0.949-2.85c0.334,0.666,0.717,1.434,1.15,2.3c0.267,0.6,0.4,1.134,0.4,1.6c0,0.834-0.267,1.4-0.801,1.7
		C207.767,205.75,207.134,206.066,206.2,206.5z M295.75,167.35c1.467-0.1,2.917-0.633,4.35-1.6c1.034-0.7,1.65-1.233,1.851-1.6
		c-0.334,7.233-1.733,12.383-4.2,15.449c-2.066,2.601-5.05,3.9-8.95,3.9c-2.434,0-4.233-0.25-5.399-0.75
		c-0.967-0.4-1.684-1.066-2.15-2c2.6-1.9,4.95-3.684,7.05-5.35C292.4,172.2,294.884,169.517,295.75,167.35z M90.8,63.35
		c0-0.667-0.267-1.934-0.8-3.8c-0.533-1.9-0.8-3.617-0.8-5.15c-5,3.2-7.867,5.117-8.6,5.75c-1.333,1.233-2,2.85-2,4.85
		c0,2.233,0.583,3.917,1.75,5.05c0.933,0.934,2.133,1.4,3.6,1.4C88.517,68.65,90.8,65.95,90.8,63.35z M3.25,134.85
		c0.9-3.933,3.133-7.199,6.7-9.8c2.8-2.033,5.483-3.166,8.05-3.399c-1,0.833-3.133,3.133-6.4,6.899
		C9.367,131.116,6.583,133.217,3.25,134.85z M7.1,140.55c1.066-1.1,1.9-2.017,2.5-2.75c0.367-0.467,1.3-1.666,2.8-3.6
		c-0.3,1.066-1.1,2.366-2.4,3.899C8.7,139.566,7.733,140.384,7.1,140.55z M43.1,142.9l-2.7,7.199c-2.233,2.733-4,4.184-5.3,4.351
		c-0.833,0.133-2.467,0.083-4.9-0.15c0.333,0,0.633-0.149,0.9-0.45c0.233-0.333,0.35-0.733,0.35-1.199
		c3.6-0.434,6.55-3.534,8.85-9.301c1.567-4,2.35-7.017,2.35-9.05c0-1.3-0.233-2.467-0.7-3.5c-0.6-1.233-1.45-1.983-2.55-2.25
		c-0.533-0.333-1.217-0.833-2.05-1.5c-0.967-0.8-1.567-1.366-1.8-1.7c3.934-0.833,6.983-1.633,9.15-2.399
		c3.867-1.334,7.216-3.384,10.05-6.15c4.133-4.033,7.733-7.05,10.8-9.05c1.967-1.333,4-3.367,6.1-6.1
		c-0.133,2-1.417,4.083-3.85,6.25c-6.6,5.9-10.233,9.183-10.9,9.85c-1.533,1.467-2.433,2.417-2.7,2.85
		c-0.233,0.301-0.7,0.983-1.4,2.051c-1.5,1.633-2.633,2.716-3.4,3.25c0.6-0.233,1.2-0.517,1.8-0.851c-0.7,0.733-1.534,1.367-2.5,1.9
		c-0.934,0.5-1.7,0.75-2.3,0.75c-0.133,0-1.35-0.267-3.65-0.8c-2.467-0.601-4.133-1.051-5-1.351l-1.15-0.399
		c0.433,0.199,2.033,1.083,4.8,2.649c2.867,1.533,5.067,2.384,6.6,2.55l-2,4.301C44.6,137.95,43.633,140.7,43.1,142.9z
		 M157.75,107.4c0.267,3.8,0.4,6.083,0.4,6.85c0,3.033-0.85,5.15-2.55,6.35c-3,2.134-4.867,3.717-5.6,4.75
		c0.5-1.233,1.25-2.283,2.25-3.149c1.1-0.8,1.917-1.483,2.45-2.05C156.567,118.15,157.583,113.9,157.75,107.4z M145.75,131.05
		c1-0.5,1.733-1,2.2-1.5c0.466-0.5,0.966-1.35,1.5-2.55c0,1.134-0.35,2.1-1.05,2.9C147.667,130.667,146.783,131.05,145.75,131.05z"
		/>
	<path style="fill-rule:evenodd;clip-rule:evenodd;fill:#76664D;" d="M332,170.55l0.1-0.05l7.95-3.05c2.467-0.934,5.134-1.733,8-2.4
		l1.5-0.2c-4.666,1.101-7.6,1.9-8.8,2.4C337.217,168.684,334.3,169.783,332,170.55z M307.75,184.8c2.167-1.7,3.7-2.899,4.6-3.6
		l0.9-0.65c-0.1,0.101-0.767,0.634-2,1.601C309.816,183.316,308.65,184.2,307.75,184.8z M273.55,192.5l0.851-0.1l1.699-0.051
		L273.55,192.5z M266.2,195.95l1.05-0.9l2.35-1.35L266.2,195.95z M225.45,216.2c3-1.066,6.399-1.684,10.2-1.851
		C230.75,214.95,227.35,215.566,225.45,216.2z M210.3,218.55l0.55-0.25l-0.5,0.25H210.3z M198.6,218.7h0.25
		c0.176,0.029,0.351,0.046,0.525,0.05C199.015,218.748,198.756,218.731,198.6,218.7z M207.75,196.95l1.25,3.1
		c-0.833-9.066,1.434-15.399,6.8-19c1.5-1,3.634-1.983,6.4-2.95c2.434-0.866,3.916-1.566,4.45-2.1c-0.4-0.267-1.2-0.55-2.4-0.85
		c-1-0.233-1.6-0.351-1.8-0.351c-2.566,0-5.75,0.767-9.55,2.3c-1.9,0.767-3.617,1.534-5.15,2.301c-0.434,0-1.55-1.184-3.35-3.551
		c-2.134-2.833-4.284-4.899-6.45-6.199c-0.4-2.601-0.601-4.784-0.601-6.551l0.101-5.899c0.899-1,2.133-1.834,3.7-2.5
		c1.6-0.667,3.166-1,4.699-1c0.7,0,2.733,0.383,6.101,1.149c6.033,1.367,9.866,2.217,11.5,2.551c12,1.8,18.05,2.699,18.149,2.699
		c0.667,0,1.017-0.066,1.051-0.199l-0.75-1c2.066,0.966,3.716,2.466,4.949,4.5c1.101,1.866,1.65,3.783,1.65,5.75
		c0,1.166-1.783,2.333-5.35,3.5c-3.567,1.166-5.351,2.783-5.351,4.85c0,1.9,0.7,5.684,2.101,11.35c1.399,5.7,2.1,9.934,2.1,12.7
		c0,1.434-1.767,3.783-5.3,7.05c-4.2,3.867-8.45,5.801-12.75,5.801c-1.4,0-4.617-0.267-9.65-0.801c-4.767-0.5-7.566-0.833-8.399-1
		l-0.2-1.1c0.333-1.8,0.5-3.467,0.5-5c0.934-0.434,1.566-0.75,1.899-0.95c0.534-0.3,0.801-0.866,0.801-1.7c0-0.466-0.134-1-0.4-1.6
		c-0.434-0.866-0.816-1.634-1.15-2.3c0.167-0.634,0.284-1.334,0.351-2.101L207.75,196.95z M206.65,194.15
		c-0.467-1.034-1.25-2.184-2.351-3.45v-0.45c0.634,0,1.184,0.384,1.65,1.15S206.65,193.083,206.65,194.15z M220.45,151.65
		c0.267,0,0.533,0.017,0.8,0.05c2.634,0.233,5.866,0.95,9.7,2.149C227.116,153.25,223.616,152.517,220.45,151.65z M196.25,178.35
		c-2.467-1.833-3.866-3.383-4.2-4.649c-0.033-1.867-0.133-3.733-0.3-5.601L192,169.2c0.033,1.333,0.434,2.899,1.2,4.7
		C194.066,175.934,195.083,177.417,196.25,178.35z M191.9,185.9c1.533,0.899,3,3.283,4.399,7.149c1.233,3.334,1.851,5.834,1.851,7.5
		c0,3.667-1.351,6.584-4.051,8.75c-0.699,0.533-1.649,1.184-2.85,1.95c-0.833,0.634-1.25,1.233-1.25,1.8l0.05,1.3l-10.35-5.899
		c0.466-1.967-0.133-3.8-1.8-5.5c-3.1-3.267-5.55-6.467-7.35-9.601c1.367,1.233,3.167,2.917,5.4,5.051
		c1.633,1.533,2.733,2.533,3.3,3l-0.6-0.75c-0.867-1.9-1.533-3.45-2-4.65c-0.8-2.167-1.2-4.5-1.2-7c0-1.4,0.333-2.4,1-3
		c0.8-0.733,2.233-1.1,4.3-1.1l8.15,0.55C190.133,185.983,191.134,186.134,191.9,185.9z M120.75,194.5l-1.1-0.2
		c0.367-0.6,0.983-3.35,1.85-8.25c0.833-4.566,1.25-7.1,1.25-7.6c0-0.101-0.383-2.4-1.15-6.9c0.5-7.633,0.75-11.783,0.75-12.45
		c0-0.866-0.217-1.699-0.65-2.5l-0.15,1.051c-0.433,5-1.517,8.533-3.25,10.6c-1.3,1.566-3.367,2.6-6.2,3.1
		c1.433,3.733,3.083,7.351,4.95,10.851c1.067,2,1.6,3.7,1.6,5.1c0,1.2-0.316,2.25-0.95,3.15c-0.8,1.1-1.917,1.649-3.35,1.649
		c-3.867,0-8.367-0.366-13.5-1.1c-7.6-1.066-11.4-2.583-11.4-4.55c0-1.867,1.6-3.517,4.8-4.95c3.167-1.434,4.75-2.717,4.75-3.85
		c0-0.801-0.767-1.684-2.3-2.65c-1.8-1.134-2.917-2.116-3.35-2.95c1.6-1.333,2.4-2.883,2.4-4.649c0-2.134-0.483-3.9-1.45-5.301
		c-1.066-1.066-1.683-1.716-1.85-1.949l-0.15-4.25c0-2.667,1.65-5.65,4.95-8.95c3.567-3.066,5.583-5,6.05-5.8
		c0.7-1.634,1.083-2.517,1.15-2.65c0.133-0.333,0.2-0.667,0.2-1c-0.1-2.033-0.15-3.733-0.15-5.1c2.367-1.467,4.583-2.867,6.65-4.2
		c4.067-2.634,6.517-4.983,7.35-7.05c0.067-0.2,0.95-1.2,2.65-3c1.633-1.7,2.6-3.15,2.9-4.351l1.5-6.15
		c0.967-2.833,2.284-4.733,3.95-5.7c-1.167,2.3-1.75,3.483-1.75,3.55c-0.933,2.2-1.4,4.25-1.4,6.15c0,0.533,0.133,1.399,0.4,2.6
		c0.267,1.233,0.567,2.233,0.9,3l0.8-0.35c1.2,1.833,2.367,3.017,3.5,3.55c0.6,0.267,1.55,0.399,2.85,0.399
		c2.833,0.134,5.017,0.2,6.55,0.2c2.8,0.033,5.083-0.2,6.85-0.7c5.033-1.433,7.55-5.5,7.55-12.2c0-1.133-0.183-2.05-0.55-2.75
		c-0.4-0.8-1.383-2.117-2.95-3.95l0.3-1.3c0.934,0.733,1.85,1.817,2.75,3.25c1.4,2.167,2.2,3.383,2.4,3.65l0.05,0.35
		c-0.167,6.5-1.183,10.75-3.05,12.75c-0.534,0.566-1.35,1.25-2.45,2.05c-1,0.866-1.75,1.916-2.25,3.149l-0.55,1.65
		c-0.534,1.2-1.034,2.05-1.5,2.55c-0.467,0.5-1.2,1-2.2,1.5c-3.833,0.3-7.1,0.867-9.8,1.7c-1.567,0.467-4.034,1.283-7.4,2.45
		l1.25,0.5c1.167,0.267,2.8,0.517,4.9,0.75c2.3,1.467,4.383,3.184,6.25,5.149c-1.567-1.166-3.317-1.75-5.25-1.75
		c-9.633,0-15.8-0.25-18.5-0.75c-2.7-0.533-4.733-0.8-6.1-0.8c-1.267,0-3.917,2.267-7.95,6.8c-4.167,4.667-6.25,7.934-6.25,9.801
		c0,2.733,1.267,4.816,3.8,6.25c0.6,0.366,1.45,0.866,2.55,1.5c0.8,0.533,1.2,1.166,1.2,1.899c0,0.267-0.233,0.834-0.7,1.7
		c-0.667,1.134-1.45,2.033-2.35,2.7l0.8,0.55c0.533,0.167,1.417,0.366,2.65,0.6c1.233,0.2,2.1,0.301,2.6,0.301
		c3,0,5.216-0.851,6.65-2.551c0.967-1.1,1.75-2.949,2.35-5.55c0.667-2.899,1.25-4.767,1.75-5.6c1-1.7,2.633-2.55,4.9-2.55
		c1.066,0,1.767,0.866,2.1,2.6c0.633,3.167,1.083,5.05,1.35,5.65c2.2,5.5,8.583,8.25,19.15,8.25c1.466,0,2.333-0.233,2.6-0.7
		c0.467-0.9,0.7-3.584,0.7-8.05c0-3.5-0.833-7.483-2.5-11.95c-0.4-1.101-0.833-2.101-1.3-3c0.933,1.434,1.783,2.967,2.55,4.6
		c3.033,6.4,4.55,13.7,4.55,21.9c0,0.8-0.583,1.283-1.75,1.45c-0.8,0.133-2.9,0.199-6.3,0.199l-9.25-0.05
		c-2.433-2.566-3.833-4.483-4.2-5.75l0.15,1.9c0.433,1.767,1.167,3.583,2.2,5.45c0.633,4.866,0,9.133-1.9,12.8
		c-1.8,3.434-4,5.149-6.6,5.149c-0.267,0-0.967-0.033-2.1-0.1c-1.066-0.1-1.8-0.134-2.2-0.1L120.75,194.5z M156.2,151.75v0.15
		l-0.05-0.15l0.15-1.15L156.2,151.75z M88.75,193.55l5.75,0.101c-1.7,0.066-3.883,0.033-6.55-0.101H88.75z M77.75,193.1l0.5,0.051
		L75.8,193.1H77.75z M72.25,153.75c1.033,0.467,2.317,0.816,3.85,1.05c1.2,0.2,3.217,0.351,6.05,0.45
		c-0.267,0.767-1.35,1.95-3.25,3.55c-1.8,2.134-2.7,5.117-2.7,8.95c0,1.167,0.25,3.033,0.75,5.6c0.466,2.567,0.7,5.051,0.7,7.45
		c0,3.2-2.333,6.15-7,8.851c-4.3,2.5-7.816,3.5-10.55,3l0.2,0.399c-8.933,0-16.55-1.633-22.85-4.899
		c-6.333-3.267-9.5-7.2-9.5-11.801c2-2.533,3.883-4.933,5.65-7.199c3.5-4.5,6.433-7.934,8.8-10.301l-3.65,4.551
		c1.2,0.866,5.1,1.233,11.7,1.1c4.667,0,9.25-0.5,13.75-1.5c5.9-1.333,8.85-3.167,8.85-5.5C73.05,156.4,72.783,155.15,72.25,153.75z
		 M24.55,173.5l0.15,0.1l0.15,0.15C24.746,173.649,24.646,173.566,24.55,173.5z M159.4,39.35c-3,0.066-5.483-0.2-7.45-0.8
		c0.3,0.333,0.683,0.7,1.15,1.1c-2.033-0.733-3.667-1.1-4.9-1.1c-2.267,0-4.55,0.583-6.85,1.75c-1.6,0.833-2.783,1.65-3.55,2.45
		c0.567-2.467,1.4-5.45,2.5-8.95c0.967-3.167,1.517-5.1,1.65-5.8c-3.7,7.767-5.934,12.217-6.7,13.35
		c-0.533,0.8-1.483,1.983-2.85,3.55c-0.9,0.767-1.75,1.233-2.55,1.4c-0.5,0.133-1.4,0.2-2.7,0.2c-1.066,0-2.4-0.367-4-1.1
		c-0.967-0.433-2.633-1.233-5-2.4c-5.167-2.333-10.833-3.5-17-3.5c-1.1,0-2.65,0.333-4.65,1l-0.55,0.3
		c-0.2,0.333-0.784,0.784-1.75,1.35c-0.867,0.333-1.883,1.017-3.05,2.05c-1.267,1.133-1.95,1.716-2.05,1.75
		c-3.367,0.7-6.8-0.184-10.3-2.65c-3.033-2.133-4.667-4.45-4.9-6.95v5.3c0.267,1.533,0.8,3.867,1.6,7c0.6,2.367,0.9,4.15,0.9,5.35
		c0,1.5-0.583,3.117-1.75,4.85c-1.167,1.767-1.75,4.333-1.75,7.7c0,3.067,1.517,4.817,4.55,5.25c1.566,0.233,2.6,0.5,3.1,0.8
		c0.934,0.6,1.4,1.683,1.4,3.25c0,0.1-1.017,1.717-3.05,4.85c-2.167,3.4-3.483,5.75-3.95,7.05c-0.633,1.8-1.317,4.5-2.05,8.1
		c-0.767,3.633-1.15,5.467-1.15,5.5l-0.1,0.3c-2.1,2.733-4.133,4.767-6.1,6.1c-3.066,2-6.667,5.017-10.8,9.05
		c-2.833,2.767-6.183,4.816-10.05,6.15c-2.167,0.767-5.217,1.566-9.15,2.399c0.233,0.334,0.833,0.9,1.8,1.7
		c0.833,0.667,1.517,1.167,2.05,1.5c-4.533-0.866-7.767-1.3-9.7-1.3c-2.3-0.033-4,0.483-5.1,1.55c-1.033,1-1.9,2.816-2.6,5.45
		c-0.267,1.033-0.983,4.5-2.15,10.4l-0.1-2.15c-0.233,2.467-0.533,5.184-0.9,8.15c0,1.767,0.967,3.399,2.9,4.899
		c1.9,1.467,3.75,1.983,5.55,1.55c0,2.567-1.7,4.767-5.1,6.601c-3.434,1.833-7.567,2.75-12.4,2.75c-2.966-1.101-4.833-2.033-5.6-2.8
		c-1.067-1.101-1.6-3.983-1.6-8.65c0-1.733,0.617-3.717,1.85-5.95c1.033-1.866,1.283-3.95,0.75-6.25l1.9-2.25
		c0.633-0.166,1.6-0.983,2.9-2.45c1.3-1.533,2.1-2.833,2.4-3.899c0.934-1.267,2.917-3.25,5.95-5.95
		c5.633-4.934,8.617-7.55,8.95-7.85c2.2-2.034,4.184-4,5.95-5.9c-0.4,0.5-0.817,1.05-1.25,1.65c0.633,0.3,1.85,0.583,3.65,0.85
		c1.434,0.2,2.4,0.3,2.9,0.3c2.534,0,5.633-1.3,9.3-3.899c5.1-3.601,10.367-6.417,15.8-8.45c2.8-1.067,5.367-4.917,7.7-11.55
		c2.033-5.9,3.05-11.05,3.05-15.45c0-0.5-0.333-1.083-1-1.75c-0.667-0.667-1.25-1-1.75-1c-0.333,0-0.816,0.133-1.45,0.4
		S69.083,76,68.75,76c-1.4,0-3.167-0.1-5.3-0.3c-1.667-0.067-3.117,0.2-4.35,0.8c-2.4,1.767-4.567,4.083-6.5,6.95
		c-3.667,5.566-6.7,9.867-9.1,12.9c0.033-0.4,0.033-0.883,0-1.45l-0.1-0.7c-3.667,6.066-7.733,11.15-12.2,15.25
		c-8.5,7.833-12.9,11.899-13.2,12.2c-2.567,0.233-5.25,1.366-8.05,3.399c-3.567,2.601-5.8,5.867-6.7,9.8l-0.4,0.301
		c-0.6-1.301-1.25-3.4-1.95-6.301c-0.6-2.666-0.9-4.017-0.9-4.05c0-1.133,0.117-1.967,0.35-2.5c0.167-0.434,0.617-1.066,1.35-1.899
		c1.833,0.8,5.367,0.033,10.6-2.301c5.4-2.433,10.717-5.733,15.95-9.899c13.833-11.034,19.667-21.733,17.5-32.1
		c0.9-1.3,1.55-2.283,1.95-2.95c0.1-0.167,0.683-1.217,1.75-3.15c0.367,1.8,1.083,2.983,2.15,3.55c0.867,0.434,2.45,0.65,4.75,0.65
		c3.7,0,7.167-1.817,10.4-5.45c3.6-4.067,5.4-9.083,5.4-15.05c0-7.934-0.417-12.4-1.25-13.4c-0.533-0.333-0.95-0.633-1.25-0.9
		c-0.566-0.467-1.033-1.433-1.4-2.9l-0.3,0.35l8.8-11.55c1.267,0.833,2.7,2.4,4.3,4.7c0,2.367,0.267,4.133,0.8,5.3
		c0.767,1.733,2.2,2.6,4.3,2.6c1.533,0,3.017-0.85,4.45-2.55c0.566-0.7,1.8-2.567,3.7-5.6c3.333-5.467,6.883-8.2,10.65-8.2
		l1.85,0.05c0.167,0.733-0.017,1.9-0.55,3.5c-0.3,0.867-0.7,1.933-1.2,3.2c0.1,0.034,2.95,0.3,8.55,0.8c4,0.4,6.367,1.05,7.1,1.95
		c-2.233-6.867-0.9-12.966,4-18.3c4.6-5,10.367-7.5,17.3-7.5c1.333,0,2.4,0.167,3.2,0.5c-0.1,0.967-0.684,2.617-1.75,4.95
		c0,0.633,0.267,1.183,0.8,1.65c0.867,0.8,2.283,1.2,4.25,1.2c6.567,0,11.567-3.95,15-11.85c5.567,2.566,8.433,3.883,8.6,3.95
		c-0.667,0.6-2.533,1.617-5.6,3.05c-2.567,1.2-3.933,2.216-4.1,3.05c-0.433,1.967-1.45,3.65-3.05,5.05
		c-1.434,1.267-2.15,2.4-2.15,3.4c0,0.233,0.133,1.15,0.4,2.75c-0.267-1.167-0.684-2.034-1.25-2.6c-1.067-1.1-2.917-1.167-5.55-0.2
		c-1.367,0-2.533,0.467-3.5,1.4c-0.966,0.934-1.45,2.067-1.45,3.4c-0.434,0.733-0.783,2.4-1.05,5c-0.167,1.833-0.25,3.417-0.25,4.75
		c0,0.867,1.434,1.7,4.3,2.5c2.467,0.7,4.517,1.05,6.15,1.05c1.9,0,3.233-0.45,4-1.35c0.533-0.667,0.867-1.767,1-3.3
		C160,36.133,159.8,38.05,159.4,39.35z M145,46.9c-3,1.667-5.5,2.934-7.5,3.8h-8.15c0.433-0.267,1.15-0.55,2.15-0.85
		c0.733-0.233,1.633-0.483,2.7-0.75c1.1-0.267,2.383-0.567,3.85-0.9c4.467-0.967,7.117-1.8,7.95-2.5L145,46.9z M196.5,18.35
		l0.05,0.55h5.9c2.7,0.133,6.283,0.25,10.75,0.35c0.733,0.167,2.684,0.683,5.85,1.55c3.434,0.833,6.517,1.25,9.25,1.25
		c1.8,0,2.917-0.316,3.351-0.95c0.399-0.533,0.6-1.934,0.6-4.2l-0.15-1.65l5.25,2.9c-0.133,1.4-0.25,2.5-0.35,3.3
		c-0.233,0.367-0.5,0.783-0.8,1.25c-0.3,0.433-0.566,0.833-0.8,1.2c-1.334,0.733-3.5,1.1-6.5,1.1c-0.4,0-1.233-0.1-2.5-0.3
		l-1.801-0.35l-3.35-1.25l-5.2-1.1l-11.2,0.4l-0.3-0.05l0.7-0.1l-6.65,0.15c-4.133,0.033-7.649,0.033-10.55,0
		c0.733-1.333,1.467-2.467,2.2-3.4c1.434-1.733,3.6-3.017,6.5-3.85c-0.066,0.133-0.467,1.15-1.2,3.05L196.5,18.35z M328.85,132.8
		c2.233,0,3.351,0.417,3.351,1.25c0,3.4-1.934,7.934-5.8,13.601c-3.867,5.666-6.917,8.5-9.15,8.5c-2.634,0-4.4-0.95-5.3-2.851
		c-0.5-1-0.75-2.517-0.75-4.55c0-6.1,1.283-10.3,3.85-12.6C317.583,133.917,322.184,132.8,328.85,132.8z M208.75,34.4
		c-0.5-0.233-1.333-0.467-2.5-0.7c-1.167-0.2-2.2-0.3-3.1-0.3c5.899-0.967,10.017-1.667,12.35-2.1
		c1.533-0.267,2.783-0.583,3.75-0.95c-0.366,0.433-0.8,0.85-1.3,1.25c-1.467,1.1-3.134,1.8-5,2.1
		c-0.601,0.033-1.217,0.066-1.851,0.1C210.3,33.967,209.517,34.167,208.75,34.4z M175.6,26.75c0.066-0.4,0.1-1.15,0.1-2.25
		c2.433,0.1,4.933-0.1,7.5-0.6c2.033-0.4,3.617-0.883,4.75-1.45h3l-0.3,0.4c-2.1,0.3-4.6,0.783-7.5,1.45
		C179.183,25.2,176.667,26.017,175.6,26.75z M148.2,44.2c2.033-1.067,5.233-1.567,9.6-1.5c-1.867,0.767-3.617,1.117-5.25,1.05
		C150.783,43.65,149.333,43.8,148.2,44.2z M156.95,44.4l1.3-1.6c0.667,0.3,1.467,0.55,2.4,0.75c0.934,0.2,1.667,0.267,2.2,0.2
		c2.433,1.1,5.783,1.85,10.05,2.25c2.6,0.267,3.9,1.167,3.9,2.7c0,1.933-0.867,3.35-2.6,4.25c-1.034,0.533-3.017,1.383-5.95,2.55
		l-0.35,0.25c-0.533,0.367-1.167,0.983-1.9,1.85c-0.667,0.733-1.067,1.233-1.2,1.5c-1.3,2.3-2.283,5.066-2.95,8.3
		c-0.333,1.6-2,3.533-5,5.8c-0.567,0.466-2.6,1.333-6.1,2.6c-3.533,1.534-6.017,3.284-7.45,5.25c-0.9,0.6-1.767,1.017-2.6,1.25
		c-0.534,0.267-1.133,1.15-1.8,2.65c-0.367,0.966-0.583,1.883-0.65,2.75l0.2,1.15c-1.267,2.533-2.4,4.1-3.4,4.7
		c-0.833,0.5-2.466,0.75-4.9,0.75c-2.5,0-4.35-0.433-5.55-1.3c-0.533-0.367-1.967-1.933-4.3-4.7c-0.233,3.767-0.683,6.267-1.35,7.5
		c-0.8,1.467-2.317,2.2-4.55,2.2c-0.967,0-2.066-0.183-3.3-0.55s-1.967-0.55-2.2-0.55c-1.033,0-2.633,0.25-4.8,0.75
		c-2.667,0.567-4.567,1.25-5.7,2.05c0.8-0.233,1.867-0.434,3.2-0.6c1.2-0.167,2.083-0.25,2.65-0.25c4.2,0,7.633,0.883,10.3,2.65
		c2.133,1.4,3.2,2.767,3.2,4.1c0,6.1-0.867,10.6-2.6,13.5c-2.033,3.367-5.583,5.334-10.65,5.9v-1.25l-1.75,2.3l0.35-1.85
		l-1.35,1.649c-1.167,0-2.15,0.801-2.95,2.4c-0.833,1.566-1.25,3.467-1.25,5.7c-1.6,2.066-5.033,4.75-10.3,8.05
		c-4.7,2.934-8.25,4.566-10.65,4.9h7.45c-2,0.066-5.233,0.366-9.7,0.899c-0.767-0.434-1.3-0.816-1.6-1.149
		c-0.133-0.167-0.2-0.317-0.2-0.45c0-0.167,0.117-1.267,0.35-3.3c0.267-2.301,0.45-4.434,0.55-6.4c1.267,1.366,2.167,2.283,2.7,2.75
		c1.4,1.2,2.583,1.8,3.55,1.8c3.2,0,6.5-3.166,9.9-9.5c1.6-3.166,2.733-5.35,3.4-6.55c1.133-1.967,2.05-2.95,2.75-2.95
		c4.567,0.5,7.183,0.75,7.85,0.75c0.967,0,2.75-1.383,5.35-4.149c3-3.167,4.5-6.051,4.5-8.65c0-2.3-0.133-3.967-0.4-5
		c-0.333-1.2-0.95-2.167-1.85-2.9l0.7-1l-7.2-0.7c-1.167-0.133-1.833-0.2-2-0.2c-2.6-0.233-5.633-0.383-9.1-0.45
		c-2.467-0.1-4.317,0.067-5.55,0.5c-0.833,0.333-1.583,0.9-2.25,1.7c-0.267,0.267-0.9,1.066-1.9,2.4c-0.967,1.3-1.5,2.033-1.6,2.2
		c-0.733,0.733-1.4,1.633-2,2.7c-0.4,0.8-0.683,1.483-0.85,2.05c-0.167,0.2-0.55,0.9-1.15,2.101c-0.6,1.3-0.95,2.149-1.05,2.55
		c3.933,0.399,6.667,1.184,8.2,2.35c1.133,0.9,1.7,2.184,1.7,3.851c0,1.833-1.75,2.816-5.25,2.949c-5.167,0.2-8.95,0.867-11.35,2
		c0.167-3.733,1.583-7.466,4.25-11.199c3.1-4.334,4.7-6.667,4.8-7c0.3-1.066,0.816-5.95,1.55-14.65c0.667-7.7,1.733-12.9,3.2-15.6
		L84,80.5l0.15,1.35c-0.433,2.267-0.867,4.367-1.3,6.3c-0.233,1.333-0.35,3.467-0.35,6.4c0,0.467,0.117,1.083,0.35,1.85
		c0.167,0.667,0.316,1.1,0.45,1.3c3.233-3.034,5.867-6.034,7.9-9c1.7-2.833,2.867-4.717,3.5-5.65c0.966-1.466,2.117-2.45,3.45-2.95
		c1.567-0.567,4.217-0.85,7.95-0.85c2.533,0,5.566,0.55,9.1,1.65c3.5,1.1,5.517,1.65,6.05,1.65c0.4,0,0.75-0.117,1.05-0.35
		c0.3-0.233,0.45-0.517,0.45-0.85c0-1.167-1.267-3.567-3.8-7.2c-0.367-0.5-2-2.667-4.9-6.5c0.1-0.533-1.05-1.816-3.45-3.85
		c-0.233-0.267-0.633-0.367-1.2-0.3c-0.3,0.033-0.566,0.083-0.8,0.15c-2.434-0.066-4.967,0.083-7.6,0.45
		c0.533-0.367,1.083-0.967,1.65-1.8c-0.633-0.066-0.95-0.133-0.95-0.2c-2.633-0.133-5.567-0.25-8.8-0.35
		c-1.867-0.333-2.8-1.55-2.8-3.65c0-3.267,1.167-5.8,3.5-7.6c2.633-2.033,6.7-3.05,12.2-3.05c2.233,0,4.817,0.466,7.75,1.4
		c2.6,0.967,4.05,1.483,4.35,1.55c-0.566,0-1.033,0.117-1.4,0.35c-0.4,0.233-0.6,0.517-0.6,0.85c0.3,3.267,3.333,7.3,9.1,12.1
		c6.6,5.466,13.267,8.2,20,8.2c0.867,0,1.75-0.767,2.65-2.3c1.467-2.567,3.867-5.233,7.2-8c2.633-2.2,6.15-4.45,10.55-6.75
		c2.633-1.4,3.95-2.767,3.95-4.1l-0.1-4.25c-2.133,0.033-4.783-0.3-7.95-1C159.733,45.133,158.283,44.767,156.95,44.4z M174.3,28.5
		c-1.6,0.833-2.4,2.383-2.4,4.65c0,1.733,0.967,3.083,2.9,4.05c2.034,1,5,1.5,8.9,1.5c2.566,0,4.35-0.05,5.35-0.15
		c1.767-0.2,3.45-0.633,5.05-1.3c-0.833,0.733-1.816,1.35-2.949,1.85c-1.5,0.7-2.984,1.05-4.45,1.05c-4.4,0-7.983-0.583-10.75-1.75
		c-3.633-1.533-5.45-3.933-5.45-7.2c0-0.9,0.2-1.55,0.6-1.95c0.6-0.7,1.783-1.167,3.55-1.4L174.3,28.5z M187.2,55.9
		c-3.167,0-5.867,0.7-8.1,2.1c-2.267,1.367-3.4,3.033-3.4,5l-1.3,3.3c4.533,1.067,8.434,1.6,11.7,1.6c4.2,0,7.317-0.283,9.35-0.85
		c3.533-1,5.3-2.95,5.3-5.85c0-0.4-0.05-0.717-0.15-0.95l-0.199-0.2c0.899-0.033,2.216-0.083,3.949-0.15
		c-0.3,0.833-0.8,2.15-1.5,3.95c-0.767,1.9-1.216,2.95-1.35,3.15c-2.2,0.7-4.35,1.683-6.45,2.95c-2.166,0.2-6.25,0.25-12.25,0.15
		l0.45,0.1l-4.2-0.15l0.4,0.25l4.2,2.15c0.833,0.966,1.383,2.4,1.65,4.3c0.133,1,0.2,2.517,0.2,4.55c0,4.567,2.6,8.983,7.8,13.25
		c4.267,3.467,10.517,7.034,18.75,10.7c-4.3-0.067-6.616,0.35-6.95,1.25c-0.066,0.233-0.1,1.017-0.1,2.35
		c0,1.097-0.108,2.171-0.325,3.225l-0.05,0.175c-0.024,0.098-0.05,0.198-0.075,0.3l-0.5,2c-1.7-4.033-3.85-7.216-6.45-9.55
		c-4.5-4.067-7.783-7.367-9.85-9.9c2.3,6.133,5.083,11.066,8.35,14.8c1.5,1.7,2.384,2.75,2.65,3.15
		c0.634,1.033,0.95,2.233,0.95,3.601c-0.134-0.167-1.316-1.551-3.55-4.15c-0.367,3.033-0.584,6.217-0.65,9.55
		c-0.2,1.867-1.134,2.8-2.8,2.8c-1.566,0-3.35-0.816-5.35-2.449c-2.167-1.767-4.117-4.117-5.85-7.051
		c-4.433-7.5-6.2-16.316-5.3-26.45l-0.35,0.85c-0.434,1.1-0.833,3.117-1.2,6.05c-0.333,2.7-0.5,4.85-0.5,6.45
		c0,2.8,0.9,6.333,2.7,10.6c0.967,2.233,2.167,4.817,3.6,7.75c0.933,2.267,2.216,6.233,3.85,11.9
		c1.967,6.634,2.95,10.917,2.95,12.85c0,3.967-0.55,6.634-1.65,8c-1.1,1.367-1.65,2.45-1.65,3.25c0,0.601,0.417,1.617,1.25,3.051
		c0.8,1.433,1.2,3.033,1.2,4.8s-0.083,3.399-0.25,4.899c-0.333,1.301-1.217,2.45-2.65,3.45c-1.133,0.8-2.433,1.4-3.9,1.8
		c-4.567,0-7.467-0.233-8.7-0.699c-3.367-1.334-5.35-4.584-5.95-9.75c-0.167-1.4-0.9-3.017-2.2-4.851
		c-1.733-2.166-3.083-3.916-4.05-5.25c-3.767-5.166-5.65-10.866-5.65-17.1l0.05-3.45c1-0.9,2.233-2.85,3.7-5.85
		c2.267-4.634,3.4-9.384,3.4-14.25c0-2.767-0.167-4.684-0.5-5.75c-0.367-0.633-0.583-1.167-0.65-1.6V92.9l-0.2,5l-0.1-0.8
		c-0.933-1.7-2.383-3.217-4.35-4.55c6.1-0.233,10.333-2.383,12.7-6.45c1.4-2.5,2.566-7.517,3.5-15.05
		c-4.033,3.067-6.15,4.833-6.35,5.3c-0.167,0.367-0.817,0.95-1.95,1.75c0.367-0.6,0.75-1.467,1.15-2.6l0.55-1
		c3.3-7,5.983-11.633,8.05-13.9c3.3-3.633,7.633-5.45,13-5.45c1.5,0,3.467,0.117,5.9,0.35c3.233,0.267,5.083,0.617,5.55,1.05
		C192.634,56.117,189.533,55.9,187.2,55.9z M149.5,89.5c-1.033-0.967-1.55-2.033-1.55-3.2c0-2.2,0.583-3.783,1.75-4.75
		c1.267-1.066,3.433-1.617,6.5-1.65c-0.267,0.1-0.833,0.4-1.7,0.9s-1.383,0.817-1.55,0.95c-0.267,0-0.483,0.183-0.65,0.55
		c-0.2,0.333-0.3,0.75-0.3,1.25c-0.1,0.233-0.583,1.034-1.45,2.4c-0.767,1.367-1.15,2.35-1.15,2.95
		C149.4,89.1,149.433,89.3,149.5,89.5z M176.55,86.85l-0.2,5.15c0,5.2,0.517,9.3,1.55,12.3c2.4,7.101,7.217,10.65,14.45,10.65
		c0.434,0,0.801-0.566,1.101-1.7c0.2-0.866,0.3-1.684,0.3-2.45c0-0.166-2.667-4.066-8-11.7c-5.467-7.8-8.483-11.883-9.05-12.25
		H176.55z M205.6,63.65l-0.75,1V60c0.634,0.2,1.051,0.433,1.25,0.7C205.866,61.433,205.7,62.417,205.6,63.65z M234.95,118.6
		c0.033,0.167,0.05,0.334,0.05,0.5c0.934,2.267,1.4,3.967,1.4,5.101c0,0.033-0.351,1.083-1.051,3.149
		c-0.433,0.367-0.833,0.801-1.199,1.301c-0.034,0-0.067,0.017-0.101,0.05c-0.066,0.066-0.116,0.184-0.149,0.35
		c-1.4,2.101-1.967,5.05-1.7,8.851c0.166,2.066,0.116,3.449-0.15,4.149c-0.434,1.101-1.533,1.65-3.3,1.65
		c-2.866,0-5.116-0.45-6.75-1.351c-1.167-0.666-2.45-1.916-3.85-3.75c-4.233-5.6-8.784-9.983-13.65-13.149l0.35-2
		c0.534,0.733,1.084,1.366,1.65,1.899l1.3,0.2c1.667-0.066,2.75-0.416,3.25-1.05c0.134-0.167,0.25-0.366,0.351-0.6
		c1.267-0.834,2.449-2.034,3.55-3.601c2.3-3.366,3.45-7.416,3.45-12.15c2.399,1.8,3.699,4.083,3.899,6.85
		c0.033,0.267,0.05,0.533,0.05,0.8c-0.267,0.967-0.399,1.467-0.399,1.5c0,0.233,0.116,0.45,0.35,0.65c-0.066,0.633-0.149,1.3-0.25,2
		c0.2-0.033,1.117-0.417,2.75-1.15c1.533-0.7,2.8-1.3,3.8-1.8c0.733-0.2,1.4-0.5,2-0.9c1.2,0,2.233,0.301,3.101,0.9
		C234.4,117.434,234.816,117.967,234.95,118.6z M231.3,120.65c0-0.4-0.25-1.167-0.75-2.301l-0.75-1.55
		c-3.033,1.601-5.583,3.717-7.649,6.351c-1.967,2.566-2.95,4.916-2.95,7.05c0,1.267,0.366,2.149,1.1,2.649
		c0.9,0.601,2.566,0.9,5,0.9c1.7,0,3.134-1.333,4.3-4C230.733,127.184,231.3,124.15,231.3,120.65z M210.35,147.8
		c-1.966-1-3.716-2.1-5.25-3.3c-1.733-1.366-3.083-2.783-4.05-4.25c-0.633-1.2-0.967-1.8-1-1.8c-0.434,0-0.75,0.033-0.95,0.1
		c-0.133,0.066-0.483,0.25-1.05,0.55l0.2-1c3-0.033,5.917,1.851,8.75,5.65C208.267,145.417,209.384,146.767,210.35,147.8z
		 M163.3,109.85h-0.1c-0.2,3.733-1.434,8.617-3.7,14.65c-2.167,5.733-3.25,11.033-3.25,15.9c0,1.1,0.317,4.5,0.95,10.199
		c3.966-1.533,7.1,1.584,9.4,9.351c0.6,2,1.417,4.816,2.45,8.45c0.967,2.633,2.05,3.949,3.25,3.949c1.367,0,3.534-1.05,6.5-3.149
		c3.534-2.5,5.3-5,5.3-7.5c0-1.267-0.667-2.417-2-3.45c-1.767-1.2-3.133-2.267-4.1-3.2c0.7-1.166,2.017-2.583,3.95-4.25
		c1.167-1.033,1.75-2.434,1.75-4.2c0-5.733-2.9-13.316-8.7-22.75C169.6,115.116,165.7,110.45,163.3,109.85z M192.35,156.3
		l-0.649,5.15c-0.367-2.9-0.55-4.684-0.55-5.351c0-1.767,0.083-3.066,0.25-3.899c0.233-1.033,0.699-2.233,1.399-3.601v0.601
		C192.5,152.366,192.35,154.733,192.35,156.3z M191.65,185.75c-0.634,0-1.55-0.1-2.75-0.3c-0.533-0.3-2.633-1.584-6.3-3.851
		c-2-1.267-3.5-1.899-4.5-1.899c-1.067,0-2.283,0.566-3.65,1.7c-0.8,0.666-2.133,1.883-4,3.649c0.133-2.866,0.75-4.767,1.85-5.7
		c0.934-0.8,2.717-1.199,5.35-1.199c3.033,0,5.5,0.85,7.4,2.55C187.95,183.366,190.15,185.05,191.65,185.75z M169.2,188.05
		l-0.15,1.4c-0.133-0.4-0.15-0.75-0.05-1.05L169.2,188.05z M289.9,159.95c-0.067,0.066-0.117,0.116-0.15,0.149
		c-2.1,2.167-4.3,3.25-6.6,3.25c-0.534,0-1.051,0-1.551,0c-2.866-0.133-5.05-0.55-6.55-1.25c-1.5-0.699-2.25-1.649-2.25-2.85
		c0-4.167,1.7-7.533,5.101-10.1c3.399-2.567,8.033-3.934,13.899-4.101c0.634,0,1,0.7,1.101,2.101c0,0.066,0,2.116,0,6.149
		C292.9,155.6,291.9,157.816,289.9,159.95z M41.6,102.15c0.2-0.533,0.383-1.033,0.55-1.5l0.75-0.45
		C42.467,100.833,42.033,101.483,41.6,102.15z M30.2,154.3c-2.8,0-5.184-0.717-7.15-2.149c-1.933-1.4-2.917-3.067-2.95-5
		c0.066,1.5,1.183,2.783,3.35,3.85c2.2,1.1,4.867,1.65,8,1.65c0,0.466-0.117,0.866-0.35,1.199
		C30.833,154.15,30.533,154.3,30.2,154.3z M44.8,157.15c1.4-2.5,2.534-5.267,3.4-8.301c0.867-3.233,1.533-5.616,2-7.149
		c1.6-5.3,4.9-9.834,9.9-13.601c-0.033,2.4,1.1,4.301,3.4,5.7c2.8,1.7,4.7,4.134,5.7,7.3c0.133,0.367,0,1.983-0.4,4.851
		c-0.033,0.467-0.033,0.916,0,1.35c-0.466-0.7-0.966-1.416-1.5-2.149c-5.133-7-7.8-10.717-8-11.15c-3.733,0.6-6.867,4.316-9.4,11.15
		c-0.667,1.733-1.517,4.216-2.55,7.449C46.45,155.066,45.6,156.583,44.8,157.15z M20.65,163c1.633-0.366,2.45-0.8,2.45-1.3
		c0-1.434-0.617-2.417-1.85-2.95c-0.767-0.3-2.15-0.667-4.15-1.1c-4-1.233-6-4.983-6-11.25c-2.333-0.334-4.2,0.85-5.6,3.55
		c-1.033,2-1.55,3.883-1.55,5.649c0,1.7,0.833,3.301,2.5,4.801c2.267,2.066,5.55,3.1,9.85,3.1
		C17.733,163.5,19.183,163.333,20.65,163z M71.9,170.85H48.95V182.4H71.9V170.85z M130.35,179.55c-0.767-1.166-1.684-1.75-2.75-1.75
		c-1.067,0-1.967,0.584-2.7,1.75c-0.767,1.134-1.15,2.517-1.15,4.15c0,1.633,0.383,3.033,1.15,4.2
		c0.733,1.133,1.633,1.699,2.7,1.699c1.066,0,1.983-0.566,2.75-1.699c0.733-1.167,1.1-2.567,1.1-4.2
		C131.45,182.066,131.083,180.684,130.35,179.55z"/>
	<path style="fill-rule:evenodd;clip-rule:evenodd;fill:#827155;" d="M3.7,118.4c8.367-1.634,16.917-6.9,25.65-15.8
		c8.633-8.8,12.717-16.25,12.25-22.35c0.2-0.133,0.9-0.8,2.1-2c1.167-1.2,1.85-1.933,2.05-2.2v0.05
		c2.167,10.367-3.667,21.066-17.5,32.1c-5.233,4.166-10.55,7.467-15.95,9.899c-5.233,2.334-8.767,3.101-10.6,2.301l-0.05-0.051
		L3.7,118.4z M145,46.9c0,1.033-0.733,1.934-2.2,2.7c-1.466,0.733-3.233,1.1-5.3,1.1C139.5,49.833,142,48.567,145,46.9z
		 M67.95,36.85l0.3-0.35c0.367,1.467,0.833,2.433,1.4,2.9c0.3,0.267,0.717,0.567,1.25,0.9c0.833,1,1.25,5.467,1.25,13.4
		c0,5.966-1.8,10.983-5.4,15.05c-3.233,3.633-6.7,5.45-10.4,5.45c-2.3,0-3.883-0.217-4.75-0.65c-1.067-0.566-1.783-1.75-2.15-3.55
		c0.867-1.433,1.583-2.817,2.15-4.15c1.633,0.133,2.783,0.2,3.45,0.2c4.2,0,6.767-0.5,7.7-1.5c0.367-0.367,0.633-0.933,0.8-1.7
		c0.3-1.133,0.5-1.85,0.6-2.15c1.934-4.733,3.85-8.117,5.75-10.15c1.233-1.333,1.85-2.383,1.85-3.15c0-0.933-0.417-2.05-1.25-3.35
		c-1.1-1.8-2.717-3.333-4.85-4.6L67.95,36.85z M150.8,20.15c2.633-0.967,4.483-0.9,5.55,0.2c0.566,0.566,0.983,1.433,1.25,2.6
		c0.367,0.6,0.867,2.433,1.5,5.5c0.6,2.8,0.9,4.517,0.9,5.15c-0.133,1.533-0.467,2.633-1,3.3c-0.767,0.9-2.1,1.35-4,1.35
		c-1.633,0-3.683-0.35-6.15-1.05c-2.867-0.8-4.3-1.633-4.3-2.5c0-1.333,0.083-2.917,0.25-4.75c0.267-2.6,0.617-4.267,1.05-5
		c0.167,1.733,0.3,3.883,0.4,6.45c0.267,1.7,0.967,2.55,2.1,2.55c2.733,0,4.783-3.967,6.15-11.9
		C154.467,20.783,153.233,20.15,150.8,20.15z M81.05,30l0.2,0.15c0.633-0.4,1.85-1.9,3.65-4.5c1.533-2.167,3.05-3.367,4.55-3.6
		c2.066-0.333,5.3-1.15,9.7-2.45c4-1.233,6.017-1.85,6.05-1.85c0.733,0,1.383,0.533,1.95,1.6c0.333,0.667,0.867,1.833,1.6,3.5
		l0.3,0.45c3.067-11.033,11.067-17.383,24-19.05c1.534-0.2,6.733-0.517,15.6-0.95c5.934-0.3,10.233-1.05,12.9-2.25
		c1.3,0.367,1.95,0.583,1.95,0.65c-3.433,7.9-8.433,11.85-15,11.85c-1.967,0-3.383-0.4-4.25-1.2c-0.533-0.467-0.8-1.017-0.8-1.65
		c1.066-2.333,1.65-3.983,1.75-4.95c-0.8-0.333-1.867-0.5-3.2-0.5c-6.933,0-12.7,2.5-17.3,7.5c-4.9,5.333-6.233,11.433-4,18.3
		c-0.733-0.9-3.1-1.55-7.1-1.95c-5.6-0.5-8.45-0.767-8.55-0.8c0.5-1.267,0.9-2.333,1.2-3.2c0.533-1.6,0.717-2.767,0.55-3.5
		l-1.85-0.05c-3.767,0-7.317,2.733-10.65,8.2c-1.9,3.033-3.133,4.9-3.7,5.6c-1.434,1.7-2.917,2.55-4.45,2.55
		c-2.1,0-3.533-0.867-4.3-2.6C81.317,34.133,81.05,32.367,81.05,30z M205.05,11.5l0.7-0.15l8.75,0.15
		c0.767,0.033,3.583,0.55,8.45,1.55c5.033,1.067,8.083,1.8,9.149,2.2l0.15,1.65c0,2.267-0.2,3.667-0.6,4.2
		c-0.434,0.633-1.551,0.95-3.351,0.95c-2.733,0-5.816-0.417-9.25-1.25c-3.166-0.867-5.116-1.383-5.85-1.55
		c4.934,0.5,7.899,0.933,8.899,1.3c0.9,0.333,1.567,0.517,2,0.55L225,21c-3.8-1.033-7.116-2.067-9.95-3.1
		C209.65,15.933,206.316,13.8,205.05,11.5z M260.45,95.7c-0.233,0.767-0.351,1.417-0.351,1.95c0,1.067,1.217,3.4,3.65,7
		s3.65,6.75,3.65,9.45c0,1.733-0.134,2.884-0.4,3.45c-0.333,0.767-1.05,1.15-2.15,1.15c-4.033,0-6.517-2.851-7.449-8.55
		c-0.334-6.4-0.851-10.333-1.551-11.8c-1.366-2.9-3.666-6.617-6.899-11.15c-2.3-3.2-3.45-5.733-3.45-7.6
		c11.066,3.566,18.066,7.433,21,11.6c1.2,1.667,1.25,2.933,0.15,3.8C265.55,95.9,263.483,96.133,260.45,95.7z M203.15,33.4
		l-9.051,3.85c-1.6,0.667-3.283,1.1-5.05,1.3c-1,0.1-2.783,0.15-5.35,0.15c-3.9,0-6.867-0.5-8.9-1.5
		c-1.933-0.967-2.9-2.317-2.9-4.05c0-2.267,0.8-3.816,2.4-4.65c-0.033,0.2-0.333,0.817-0.9,1.85c-0.566,1-0.867,1.583-0.9,1.75
		c3.467-0.533,8.2-2,14.2-4.4c6.267-2.534,12.217-4.317,17.85-5.35l0.3,0.05l5.2,0.4c2.066,0.3,4,0.617,5.8,0.95
		c1.4,0.2,2.617,0.65,3.65,1.35c0.5,0.367,0.917,0.733,1.25,1.1l0.35,0.55c0.233,0.433,0.351,0.85,0.351,1.25
		c0,0.933-0.733,1.717-2.2,2.35c-0.967,0.367-2.217,0.683-3.75,0.95C213.167,31.733,209.05,32.433,203.15,33.4z M188.05,22.4
		c2.9,0.033,6.417,0.033,10.55,0c-3.333,0.133-5.983,0.283-7.95,0.45l0.3-0.4h-3h-2.2L188.05,22.4z M202.45,18.9h-5.9l-0.05-0.55
		C199.1,18.683,201.083,18.867,202.45,18.9z M200.4,60.05l0.199,0.2c0.101,0.233,0.15,0.55,0.15,0.95c0,2.9-1.767,4.85-5.3,5.85
		c-2.033,0.567-5.15,0.85-9.35,0.85c-3.267,0-7.167-0.533-11.7-1.6l1.3-3.3c1.133,1.3,2.633,1.95,4.5,1.95
		c8.433,0,12.649-2.034,12.649-6.1c0-0.467-0.233-0.8-0.699-1c-1.434-0.567-3.083-1.217-4.95-1.95c2.333,0,5.434,0.217,9.3,0.65
		c0.4,0.067,1.167,0.667,2.3,1.8C199.366,58.917,199.9,59.483,200.4,60.05z M154.4,92.55c-0.333,0-0.683,0-1.05,0
		c-0.867,0-1.75-0.45-2.65-1.35c-0.633-0.6-1.034-1.167-1.2-1.7c-0.067-0.2-0.1-0.4-0.1-0.6c0-0.6,0.383-1.583,1.15-2.95
		c0.867-1.367,1.35-2.167,1.45-2.4c1.367,0.8,2.067,1.217,2.1,1.25c1.367,0.534,3.283,0.8,5.75,0.8c1.267,0,2.25-0.184,2.95-0.55
		c0.8-0.4,1.867-1.367,3.2-2.9l-3.95-3.95l0.25-0.1c1.133-0.8,1.784-1.383,1.95-1.75c0.2-0.467,2.317-2.233,6.35-5.3
		c-0.934,7.534-2.1,12.55-3.5,15.05C164.733,90.167,160.5,92.317,154.4,92.55z M218.4,108.15c0,4.734-1.15,8.784-3.45,12.15
		c-1.101,1.566-2.283,2.767-3.55,3.601c0.267-0.733,0.399-1.851,0.399-3.351c0-3.033-0.333-5.217-1-6.55
		c-0.866-1.767-2.7-3.3-5.5-4.6l-0.625,2.675c0.217-1.054,0.325-2.128,0.325-3.225c0-1.333,0.033-2.117,0.1-2.35
		c0.334-0.9,2.65-1.317,6.95-1.25c1.434,0,2.917,0.483,4.45,1.45C217.3,107.2,217.934,107.683,218.4,108.15z M115.9,51.6
		c1.434,1.767,4.617,3.517,9.55,5.25c4.267,1.467,7.233,2.2,8.9,2.2c2.333,0,6.233-1.617,11.7-4.85c5.967-3.534,9.6-6.8,10.9-9.8
		c1.333,0.367,2.783,0.733,4.35,1.1c3.167,0.7,5.817,1.033,7.95,1l0.1,4.25c0,1.333-1.317,2.7-3.95,4.1
		c-4.4,2.3-7.917,4.55-10.55,6.75c-3.333,2.767-5.733,5.433-7.2,8c-0.9,1.533-1.783,2.3-2.65,2.3c-6.733,0-13.4-2.733-20-8.2
		C119.233,58.9,116.2,54.867,115.9,51.6z M108.6,63.65c0.233-0.066,0.5-0.117,0.8-0.15c0.567-0.067,0.967,0.033,1.2,0.3L108.6,63.65
		z M84.15,81.85l0.4,0.65c7.267-5.367,11.317-8.25,12.15-8.65c2.667-1.3,7.017-1.95,13.05-1.95c0.7,0,1.483-0.417,2.35-1.25
		c0.867-0.867,1.517-1.867,1.95-3c2.9,3.833,4.534,6,4.9,6.5c2.533,3.633,3.8,6.033,3.8,7.2c0,0.333-0.15,0.617-0.45,0.85
		c-0.3,0.233-0.65,0.35-1.05,0.35c-0.533,0-2.55-0.55-6.05-1.65c-3.534-1.1-6.567-1.65-9.1-1.65c-3.733,0-6.383,0.283-7.95,0.85
		c-1.333,0.5-2.483,1.483-3.45,2.95c-0.633,0.934-1.8,2.817-3.5,5.65c-2.034,2.966-4.667,5.966-7.9,9
		c-0.133-0.2-0.283-0.633-0.45-1.3c-0.233-0.767-0.35-1.383-0.35-1.85c0-2.933,0.117-5.066,0.35-6.4
		C83.283,86.217,83.717,84.117,84.15,81.85z M73.45,136.5c-1.267-0.866-2.05-1.634-2.35-2.3c-0.467-0.9-0.7-2.533-0.7-4.9
		c0-0.267,0.05-1,0.15-2.2c2.4-1.133,6.184-1.8,11.35-2c3.5-0.133,5.25-1.116,5.25-2.949c0-1.667-0.566-2.95-1.7-3.851
		c-1.534-1.166-4.267-1.95-8.2-2.35c0.1-0.4,0.45-1.25,1.05-2.55c0.6-1.2,0.983-1.9,1.15-2.101l0.05,0.4c6-1,9.917-1.601,11.75-1.8
		c2.967-0.3,7.033-0.45,12.2-0.45c2.066,0,3.733-0.65,5-1.95c1.066-1.133,1.983-2.933,2.75-5.4c0.9,0.733,1.517,1.7,1.85,2.9
		c0.267,1.033,0.4,2.7,0.4,5c0,2.6-1.5,5.483-4.5,8.65c-2.6,2.767-4.383,4.149-5.35,4.149c-0.667,0-3.283-0.25-7.85-0.75
		c-0.7,0-1.617,0.983-2.75,2.95c-0.667,1.2-1.8,3.384-3.4,6.55c-3.4,6.334-6.7,9.5-9.9,9.5c-0.967,0-2.15-0.6-3.55-1.8
		C75.617,138.783,74.717,137.866,73.45,136.5z M82.3,106.55c0.1-0.167,0.633-0.9,1.6-2.2c1-1.333,1.633-2.133,1.9-2.4
		c-0.333,0.5-0.917,1.316-1.75,2.45C83.183,105.5,82.6,106.217,82.3,106.55z M104.7,100.4c-2.667-0.2-4.534-0.316-5.6-0.35
		c-1.934-0.033-3.767-0.133-5.5-0.3c3.467,0.067,6.5,0.217,9.1,0.45C102.867,100.2,103.533,100.267,104.7,100.4z M176.55,86.85h0.15
		c0.566,0.367,3.583,4.45,9.05,12.25c5.333,7.633,8,11.534,8,11.7c0,0.767-0.1,1.584-0.3,2.45c-0.3,1.134-0.667,1.7-1.101,1.7
		c-7.233,0-12.05-3.55-14.45-10.65c-1.033-3-1.55-7.1-1.55-12.3L176.55,86.85z M231.3,120.65c0,3.5-0.566,6.533-1.7,9.1
		c-1.166,2.667-2.6,4-4.3,4c-2.434,0-4.1-0.3-5-0.9c-0.733-0.5-1.1-1.383-1.1-2.649c0-2.134,0.983-4.483,2.95-7.05
		c2.066-2.634,4.616-4.75,7.649-6.351l0.75,1.55C231.05,119.483,231.3,120.25,231.3,120.65z M210.35,147.8
		c1.434,1.533,2.551,2.417,3.351,2.65c1.833,0.5,4.083,0.899,6.75,1.2c3.166,0.866,6.666,1.6,10.5,2.199
		c1.967,0.167,4.3,0.983,7,2.45c2.1,1.167,3.416,2.033,3.95,2.601l0.75,1c-0.034,0.133-0.384,0.199-1.051,0.199
		c-0.1,0-6.149-0.899-18.149-2.699c-1.634-0.334-5.467-1.184-11.5-2.551c-3.367-0.767-5.4-1.149-6.101-1.149
		c-1.533,0-3.1,0.333-4.699,1c-1.567,0.666-2.801,1.5-3.7,2.5l-0.101-9.45c0-0.533,0.084-1.866,0.25-4
		c0.167-2.167,0.317-3.717,0.45-4.65c0.566-0.3,0.917-0.483,1.05-0.55c0.2-0.066,0.517-0.1,0.95-0.1c0.033,0,0.367,0.6,1,1.8
		c0.967,1.467,2.316,2.884,4.05,4.25C206.634,145.7,208.384,146.8,210.35,147.8z M163.3,109.85c2.4,0.6,6.3,5.266,11.7,14
		c5.8,9.434,8.7,17.017,8.7,22.75c0,1.767-0.583,3.167-1.75,4.2c-1.934,1.667-3.25,3.084-3.95,4.25c0.967,0.934,2.333,2,4.1,3.2
		c1.333,1.033,2,2.184,2,3.45c0,2.5-1.767,5-5.3,7.5c-2.966,2.1-5.133,3.149-6.5,3.149c-1.2,0-2.283-1.316-3.25-3.949
		c-1.033-3.634-1.85-6.45-2.45-8.45c-2.3-7.767-5.434-10.884-9.4-9.351c-0.633-5.699-0.95-9.1-0.95-10.199
		c0-4.867,1.083-10.167,3.25-15.9c2.267-6.033,3.5-10.917,3.7-14.65H163.3z M192.8,148.6c0.066-2.033,0.233-3.517,0.5-4.449
		c0,1.5-0.166,3.183-0.5,5.05V148.6z M191.75,168.1c-0.134-1.199-0.2-2.183-0.2-2.949l0.15-3.7l0.649-5.15c0,6-0.116,10.3-0.35,12.9
		L191.75,168.1z M197.95,169.65c2.166,1.3,4.316,3.366,6.45,6.199c1.8,2.367,2.916,3.551,3.35,3.551
		c1.533-0.767,3.25-1.534,5.15-2.301c3.8-1.533,6.983-2.3,9.55-2.3c0.2,0,0.8,0.117,1.8,0.351c1.2,0.3,2,0.583,2.4,0.85
		c-0.534,0.533-2.017,1.233-4.45,2.1c-2.767,0.967-4.9,1.95-6.4,2.95c-5.366,3.601-7.633,9.934-6.8,19l-1.25-3.1l-1.1-2.8
		c0-1.067-0.233-1.983-0.7-2.75s-1.017-1.15-1.65-1.15c-0.3-0.3-0.934-1.55-1.899-3.75c-1.034-2.366-2.067-4.184-3.101-5.45
		c0.334,0.233,1.483,1.334,3.45,3.3l0.7,0.851C200.384,176.434,198.55,171.25,197.95,169.65z M191.65,185.75l0.25,0.15
		c-0.767,0.233-1.767,0.083-3-0.45l-8.15-0.55c-2.067,0-3.5,0.366-4.3,1.1c-0.667,0.6-1,1.6-1,3c0,2.5,0.4,4.833,1.2,7
		c0.467,1.2,1.133,2.75,2,4.65l0.6,0.75c-0.567-0.467-1.667-1.467-3.3-3c-2.233-2.134-4.034-3.817-5.4-5.051
		c-0.1-0.166-0.35-0.767-0.75-1.8c-0.433-1.066-0.683-1.767-0.75-2.1l0.15-1.4l1.25-3c1.867-1.767,3.2-2.983,4-3.649
		c1.367-1.134,2.583-1.7,3.65-1.7c1,0,2.5,0.633,4.5,1.899c3.667,2.267,5.767,3.551,6.3,3.851
		C190.1,185.65,191.017,185.75,191.65,185.75z M156.2,79.9c1.833-0.367,3.117-0.65,3.85-0.85c-3.233,1.434-4.983,2.2-5.25,2.3
		c-0.233,0.066-0.85,0.2-1.85,0.4c0.167-0.133,0.683-0.45,1.55-0.95S155.933,80,156.2,79.9z M152.25,101.45
		c1.567,1.833,2.55,3.15,2.95,3.95c0.367,0.7,0.55,1.617,0.55,2.75c0,6.7-2.517,10.767-7.55,12.2c-1.767,0.5-4.05,0.733-6.85,0.7
		c-1.533,0-3.717-0.066-6.55-0.2c-1.3,0-2.25-0.133-2.85-0.399c-1.133-0.533-2.3-1.717-3.5-3.55c0.466-0.233,1.767-2.134,3.9-5.7
		c1.767-2.967,3.967-4.483,6.6-4.55c2.667-0.066,5.35-0.6,8.05-1.6C149.767,103.983,151.517,102.783,152.25,101.45z M33.25,114.5
		c1.467-2.1,2.683-3.866,3.65-5.3c1.7-2.6,3.267-4.95,4.7-7.05c0.433-0.667,0.867-1.316,1.3-1.95c3.3-2.6,6.817-6.017,10.55-10.25
		c3.4-3.867,5.683-6.184,6.85-6.95c1.4-0.9,3.934-1.667,7.6-2.3c2.233-0.4,3.167-1.467,2.8-3.2c-4.8-1.033-7.4-1.567-7.8-1.6
		c-0.6,0-1.867,0.2-3.8,0.6c1.233-0.6,2.683-0.867,4.35-0.8c2.133,0.2,3.9,0.3,5.3,0.3c0.333,0,0.817-0.133,1.45-0.4
		s1.117-0.4,1.45-0.4c0.5,0,1.083,0.333,1.75,1c0.667,0.667,1,1.25,1,1.75c0,4.4-1.017,9.55-3.05,15.45
		c-2.333,6.633-4.9,10.483-7.7,11.55c-5.433,2.033-10.7,4.85-15.8,8.45c-3.667,2.6-6.767,3.899-9.3,3.899c-0.5,0-1.466-0.1-2.9-0.3
		c-1.8-0.267-3.017-0.55-3.65-0.85C32.433,115.55,32.85,115,33.25,114.5z M31.45,152.65c-3.133,0-5.8-0.551-8-1.65
		c-2.167-1.066-3.284-2.35-3.35-3.85V147l-0.25-2.35c1.167-5.9,1.883-9.367,2.15-10.4c0.7-2.634,1.567-4.45,2.6-5.45
		c1.1-1.066,2.8-1.583,5.1-1.55c1.933,0,5.167,0.434,9.7,1.3c1.1,0.267,1.95,1.017,2.55,2.25c0.466,1.033,0.7,2.2,0.7,3.5
		c0,2.033-0.783,5.05-2.35,9.05C38,149.116,35.05,152.217,31.45,152.65z M42.4,158.85l2.4-1.699c0.8-0.567,1.65-2.084,2.55-4.551
		c1.033-3.233,1.883-5.716,2.55-7.449c2.533-6.834,5.667-10.551,9.4-11.15c0.2,0.434,2.867,4.15,8,11.15
		c0.534,0.733,1.034,1.449,1.5,2.149c0,2.3,0.483,3.983,1.45,5.05c0.5,0.534,1.167,1,2,1.4c0.533,1.4,0.8,2.65,0.8,3.75
		c0,2.333-2.95,4.167-8.85,5.5c-4.5,1-9.083,1.5-13.75,1.5c-6.6,0.134-10.5-0.233-11.7-1.1L42.4,158.85z M20.65,163
		c-1.467,0.333-2.917,0.5-4.35,0.5c-4.3,0-7.583-1.033-9.85-3.1c-1.667-1.5-2.5-3.101-2.5-4.801c0-1.767,0.517-3.649,1.55-5.649
		c1.4-2.7,3.267-3.884,5.6-3.55c0,6.267,2,10.017,6,11.25c2,0.433,3.383,0.8,4.15,1.1c1.233,0.533,1.85,1.517,1.85,2.95
		C23.1,162.2,22.283,162.634,20.65,163z M71.9,170.85V182.4H48.95V170.85H71.9z M140.95,141.6c1.566,1.601,2.983,3.384,4.25,5.351
		c0.466,0.899,0.9,1.899,1.3,3c1.667,4.467,2.5,8.45,2.5,11.95c0,4.466-0.233,7.149-0.7,8.05c-0.267,0.467-1.133,0.7-2.6,0.7
		c-10.567,0-16.95-2.75-19.15-8.25c-0.267-0.601-0.716-2.483-1.35-5.65c-0.333-1.733-1.034-2.6-2.1-2.6c-2.267,0-3.9,0.85-4.9,2.55
		c-0.5,0.833-1.083,2.7-1.75,5.6c-0.6,2.601-1.383,4.45-2.35,5.55c-1.434,1.7-3.65,2.551-6.65,2.551c-0.5,0-1.367-0.101-2.6-0.301
		c-1.233-0.233-2.117-0.433-2.65-0.6l-0.8-0.55c0.9-0.667,1.684-1.566,2.35-2.7c0.467-0.866,0.7-1.434,0.7-1.7
		c0-0.733-0.4-1.366-1.2-1.899c-1.1-0.634-1.95-1.134-2.55-1.5c-2.534-1.434-3.8-3.517-3.8-6.25c0-1.867,2.083-5.134,6.25-9.801
		c4.033-4.533,6.684-6.8,7.95-6.8c1.367,0,3.4,0.267,6.1,0.8c2.7,0.5,8.867,0.75,18.5,0.75
		C137.633,139.85,139.383,140.434,140.95,141.6z M130.35,179.55c0.733,1.134,1.1,2.517,1.1,4.15c0,1.633-0.367,3.033-1.1,4.2
		c-0.767,1.133-1.684,1.699-2.75,1.699c-1.067,0-1.967-0.566-2.7-1.699c-0.767-1.167-1.15-2.567-1.15-4.2
		c0-1.634,0.383-3.017,1.15-4.15c0.733-1.166,1.633-1.75,2.7-1.75C128.667,177.8,129.583,178.384,130.35,179.55z"/>
	<path style="fill-rule:evenodd;clip-rule:evenodd;fill:#928164;" d="M41.6,80.25c0.467,6.1-3.617,13.55-12.25,22.35
		c-8.733,8.9-17.283,14.167-25.65,15.8c0.6-0.434,3.617-3.584,9.05-9.45c1.333-1.6,3.8-3.417,7.4-5.45
		c3.333-1.933,6.067-4.383,8.2-7.35c1.833-3.5,3.383-6.267,4.65-8.3C35.367,84.117,38.233,81.583,41.6,80.25z M65.65,39.45
		c2.133,1.267,3.75,2.8,4.85,4.6c0.833,1.3,1.25,2.417,1.25,3.35c0,0.767-0.617,1.817-1.85,3.15c-1.9,2.034-3.816,5.417-5.75,10.15
		c-0.1,0.3-0.3,1.017-0.6,2.15c-0.167,0.767-0.433,1.333-0.8,1.7c-0.933,1-3.5,1.5-7.7,1.5c-0.667,0-1.816-0.066-3.45-0.2
		c1.233-3.4,2.283-6.15,3.15-8.25c1.533-3.9,3.867-8.3,7-13.2L65.65,39.45z M76.75,25.3c0.667-0.8,3.65-2.533,8.95-5.2
		c5.867-2.9,12.25-5.75,19.15-8.55C123.983,3.85,138.717,0,149.05,0c2.2,0,4.417,0.133,6.65,0.4c2.933,0.367,4.883,0.583,5.85,0.65
		c-2.667,1.2-6.966,1.95-12.9,2.25c-8.867,0.434-14.066,0.75-15.6,0.95c-12.933,1.667-20.933,8.017-24,19.05l-0.3-0.45
		c-0.733-1.667-1.267-2.833-1.6-3.5c-0.566-1.067-1.217-1.6-1.95-1.6c-0.034,0-2.05,0.617-6.05,1.85c-4.4,1.3-7.633,2.117-9.7,2.45
		c-1.5,0.233-3.017,1.434-4.55,3.6c-1.8,2.6-3.017,4.1-3.65,4.5L81.05,30C79.45,27.7,78.017,26.133,76.75,25.3z M150.8,20.15
		c2.434,0,3.667,0.633,3.7,1.9c-1.367,7.934-3.417,11.9-6.15,11.9c-1.133,0-1.833-0.85-2.1-2.55c-0.1-2.566-0.233-4.717-0.4-6.45
		c0-1.333,0.483-2.467,1.45-3.4C148.267,20.617,149.433,20.15,150.8,20.15z M196.75,15.15c1.1-1.267,1.783-2,2.05-2.2
		c0.3-0.233,1.2-0.817,2.7-1.75l3.45,0.1l0.1,0.2c1.267,2.3,4.601,4.433,10,6.4c2.834,1.033,6.15,2.067,9.95,3.1l-0.9,0.1
		c-0.433-0.033-1.1-0.217-2-0.55c-1-0.367-3.966-0.8-8.899-1.3c-4.467-0.1-8.05-0.217-10.75-0.35
		c-1.367-0.033-3.351-0.217-5.95-0.55l-0.95-0.15C196.283,16.3,196.684,15.283,196.75,15.15z M174.65,27.85l0.95-1.1
		c1.066-0.733,3.583-1.55,7.55-2.45c2.9-0.667,5.4-1.15,7.5-1.45c1.966-0.167,4.617-0.317,7.95-0.45l6.65-0.15l-0.7,0.1
		c-5.633,1.033-11.583,2.816-17.85,5.35c-6,2.4-10.733,3.867-14.2,4.4c0.033-0.167,0.333-0.75,0.9-1.75
		c0.567-1.033,0.867-1.65,0.9-1.85L174.65,27.85z M157.95,42.7l1.1-0.35l-0.8,0.45l-1.3,1.6c-1.3,3-4.934,6.267-10.9,9.8
		c-5.466,3.233-9.367,4.85-11.7,4.85c-1.667,0-4.633-0.733-8.9-2.2c-4.934-1.733-8.117-3.483-9.55-5.25c0-0.333,0.2-0.617,0.6-0.85
		c0.367-0.233,0.833-0.35,1.4-0.35c2.3,0.1,4.033,0.167,5.2,0.2c2.1,0.066,4.183,0.1,6.25,0.1h8.15c2.067,0,3.833-0.367,5.3-1.1
		c1.467-0.767,2.2-1.667,2.2-2.7l1-1.2c0.933-0.8,1.667-1.3,2.2-1.5c1.133-0.4,2.583-0.55,4.35-0.45
		c1.633,0.067,3.383-0.283,5.25-1.05H157.95z M175.7,63c0-1.967,1.133-3.633,3.4-5c2.233-1.4,4.933-2.1,8.1-2.1
		c1.867,0.733,3.517,1.383,4.95,1.95c0.466,0.2,0.699,0.533,0.699,1c0,4.066-4.216,6.1-12.649,6.1
		C178.333,64.95,176.833,64.3,175.7,63z M204.675,112.075l0.625-2.675c2.8,1.3,4.634,2.833,5.5,4.6c0.667,1.333,1,3.517,1,6.55
		c0,1.5-0.133,2.617-0.399,3.351c-0.101,0.233-0.217,0.433-0.351,0.6c-0.5,0.634-1.583,0.983-3.25,1.05l-1.3-0.2
		c-0.566-0.533-1.116-1.166-1.65-1.899c-0.233-0.667-0.449-1.917-0.649-3.75c-0.2-1.634-0.3-2.767-0.3-3.4l0.149-1.75l0.5-2
		c0.025-0.102,0.051-0.202,0.075-0.3L204.675,112.075z M84.15,81.85L84,80.5l0.35-1.85l1.05-2.75l1.95-3.7
		c1.467-2.067,2.65-3.45,3.55-4.15c1.3-1,4.667-2.316,10.1-3.95c2.633-0.367,5.167-0.517,7.6-0.45l2,0.15
		c2.4,2.034,3.55,3.317,3.45,3.85c-0.433,1.133-1.083,2.133-1.95,3c-0.867,0.833-1.65,1.25-2.35,1.25
		c-6.033,0-10.383,0.65-13.05,1.95c-0.833,0.4-4.883,3.283-12.15,8.65L84.15,81.85z M104.7,100.4l7.2,0.7l-0.7,1
		c-0.767,2.467-1.684,4.267-2.75,5.4c-1.267,1.3-2.934,1.95-5,1.95c-5.167,0-9.233,0.15-12.2,0.45c-1.833,0.2-5.75,0.8-11.75,1.8
		l-0.05-0.4c0.167-0.566,0.45-1.25,0.85-2.05c0.6-1.067,1.267-1.967,2-2.7c0.3-0.333,0.883-1.05,1.75-2.15
		c0.833-1.133,1.417-1.95,1.75-2.45c0.667-0.8,1.417-1.367,2.25-1.7c1.233-0.433,3.083-0.6,5.55-0.5
		c1.733,0.167,3.566,0.267,5.5,0.3C100.167,100.083,102.033,100.2,104.7,100.4z M152,83.55c0-0.5,0.1-0.917,0.3-1.25
		c0.167-0.367,0.383-0.55,0.65-0.55c1-0.2,1.617-0.333,1.85-0.4c0.267-0.1,2.017-0.867,5.25-2.3l1.8-1.1l0.2,0.25l3.95,3.95
		c-1.333,1.533-2.4,2.5-3.2,2.9c-0.7,0.367-1.683,0.55-2.95,0.55c-2.467,0-4.383-0.267-5.75-0.8
		C154.067,84.767,153.367,84.35,152,83.55z M199.35,134.7l-1.1,3.399l-0.2,1c-0.133,0.934-0.283,2.483-0.45,4.65
		c-0.166,2.134-0.25,3.467-0.25,4l0.101,9.45l-0.101,5.899c0,1.767,0.2,3.95,0.601,6.551c0.6,1.6,2.434,6.783,5.5,15.55l-0.7-0.851
		c-1.967-1.966-3.116-3.066-3.45-3.3l-3.05-2.7c-1.167-0.933-2.184-2.416-3.05-4.449c-0.767-1.801-1.167-3.367-1.2-4.7
		c0.233-2.601,0.35-6.9,0.35-12.9c0-1.566,0.15-3.934,0.45-7.1c0.334-1.867,0.5-3.55,0.5-5.05c0-0.601,0.967-2.367,2.9-5.301
		l2.85-4.25l1.15-1.6L199.35,134.7z M152.55,100.15l-0.3,1.3c-0.733,1.333-2.483,2.533-5.25,3.6c-2.7,1-5.383,1.534-8.05,1.6
		c-2.633,0.067-4.833,1.583-6.6,4.55c-2.133,3.566-3.434,5.467-3.9,5.7l-0.8,0.35c-0.333-0.767-0.633-1.767-0.9-3
		c-0.267-1.2-0.4-2.066-0.4-2.6c0-1.9,0.467-3.95,1.4-6.15c0-0.067,0.583-1.25,1.75-3.55c0.9-0.9,1.467-1.867,1.7-2.9
		c0.2-0.767,0.533-1.233,1-1.4c0.833-0.233,7.633-0.167,20.4,0.2L152.55,100.15z M59.1,76.5c1.933-0.4,3.2-0.6,3.8-0.6
		c0.4,0.033,3,0.567,7.8,1.6c0.367,1.733-0.567,2.8-2.8,3.2c-3.667,0.633-6.2,1.4-7.6,2.3c-1.167,0.767-3.45,3.083-6.85,6.95
		c-3.733,4.233-7.25,7.65-10.55,10.25l-0.75,0.45l-1.1,0.5c0.067-0.566,0.434-1.467,1.1-2.7c0.6-1.2,1.05-1.9,1.35-2.1
		c2.4-3.033,5.433-7.333,9.1-12.9C54.533,80.583,56.7,78.267,59.1,76.5z"/>
</g>
</svg>
