<?xml version="1.0" encoding="iso-8859-1"?>
<!-- Generator: Adobe Illustrator 15.1.0, SVG Export Plug-In . SVG Version: 6.00 Build 0)  -->
<!DOCTYPE svg PUBLIC "-//W3C//DTD SVG 1.1//EN" "http://www.w3.org/Graphics/SVG/1.1/DTD/svg11.dtd">
<svg version="1.1" id="Layer_1" xmlns="http://www.w3.org/2000/svg" xmlns:xlink="http://www.w3.org/1999/xlink" x="0px" y="0px"
	 width="68.6px" height="62.75px" viewBox="0 0 68.6 62.75" style="enable-background:new 0 0 68.6 62.75;" xml:space="preserve">
<g>
	<path style="fill-rule:evenodd;clip-rule:evenodd;fill:#414428;" d="M65.15,20.95c0.166,0.233,0.233,0.45,0.199,0.65
		c-0.699,0.1-1.75,0.167-3.149,0.2c0.033,0.067,0.05,0.117,0.05,0.15c-2.934-1-4.184-1.9-3.75-2.7c1.2,0.867,2.717,1.433,4.55,1.7
		l1.8,0.15L65.15,20.95z M54,28.95c-0.3,0.133-0.6,0.267-0.9,0.4c-0.333,0.1-0.683,0.2-1.05,0.3c-1.434,0.3-2.116-0.083-2.05-1.15
		c-0.5,0.667-1.3,1.117-2.4,1.35c-0.133,0.033-0.25,0.05-0.35,0.05c-0.366,0.033-0.616-0.033-0.75-0.2
		c-0.134-0.233-0.083-0.617,0.15-1.15c-0.5,0.233-1.134,0.35-1.9,0.35c-0.866,0-1.45-0.15-1.75-0.45c0.1-0.4,0.333-0.7,0.7-0.9
		c-0.601,0.167-1.351,0.184-2.25,0.05c-0.834-0.133-1.55-0.367-2.15-0.7c-0.066,0-0.116,0.017-0.149,0.05
		c-0.167-0.034-0.334-0.067-0.5-0.1l0.1-0.15l-0.55,0.05c-0.167-0.1-0.316-0.217-0.45-0.35l-0.05-0.05
		c-0.066-0.067-0.117-0.133-0.15-0.2l-0.3,0.15c-0.2-0.3-0.316-0.733-0.35-1.3c0.033-0.633,0.05-1.067,0.05-1.3
		c0.2,0.966,0.899,1.633,2.1,2c1.033,0.333,2.101,0.383,3.2,0.15l0.55-0.2c0.233-0.1,0.417-0.133,0.55-0.1
		c0.167,0.067,0.25,0.167,0.25,0.3c0,0.1-0.033,0.267-0.1,0.5c1.434,0.566,2.384,0.55,2.85-0.05l-0.399,1.15
		c0.267,0.267,0.733,0.433,1.399,0.5c0.534,0.033,1.034-0.017,1.5-0.15c0.233-0.066,0.483-0.183,0.75-0.35
		c0.233-0.233,0.417-0.4,0.551-0.5c-0.134,0.733,0.583,0.983,2.149,0.75c0.533-0.067,0.816-0.217,0.851-0.45
		c0.1-0.467,0.183-0.733,0.25-0.8c0.133,0,0.866,0.05,2.199,0.15c1.2-0.033,1.717-0.283,1.551-0.75c-0.034-0.167-0.2-0.267-0.5-0.3
		c-0.367,0.034-0.601,0.034-0.7,0c-0.9-0.066-1.517-0.383-1.851-0.95c0.567,0.167,1.167,0.3,1.801,0.4
		c0.899,0.1,1.483,0.017,1.75-0.25c0.066-0.067,0.1-0.433,0.1-1.1c0.033-0.566,0.15-0.833,0.35-0.8
		c0.067,0.133,0.084,0.45,0.051,0.95c-0.034,0.4,0.066,0.65,0.3,0.75c0.434,0.233,0.783,0.217,1.05-0.05
		c0.233-0.2,0.384-0.483,0.45-0.85c-0.066,0.333,0.017,0.6,0.25,0.8c0.333,0.267,0.934,0.45,1.8,0.55c0.733,0.1,1.384,0.1,1.95,0
		v-1.1c0.399,0.067,1.083,0.067,2.05,0c0.066,0,0.134,0,0.2,0c0.767,0.067,1.217,0.367,1.35,0.9v0.15h0.3
		c0.101,0.167,0.267,0.3,0.5,0.4l0.25,0.15c-0.366,0.133-1.033,0.317-2,0.55L65.2,26.1l-0.05-0.05c-0.667-0.133-1.2,0.034-1.601,0.5
		L63.2,26.6l-0.05,0.6c-0.5,0.1-1.167,0.133-2,0.1c-0.867-0.033-1.5-0.117-1.9-0.25c-0.3,0.534-0.75,0.733-1.35,0.6
		c-0.567,0.4-1.25,0.5-2.051,0.3L55.15,28.1C54.816,28.433,54.434,28.717,54,28.95z M48.1,10.35c0.167,0.333,0.25,0.783,0.25,1.35
		l-0.05,0.4c-0.1,0.167-0.166,0.267-0.2,0.3l-0.35,0.15h-0.3c-0.367-0.033-0.884-0.233-1.55-0.6l-0.45-0.2c0,0.6-0.167,1.267-0.5,2
		L44.85,14l-0.3,0.3c-0.2,0.067-0.35,0.083-0.45,0.05c-0.199-0.033-0.533-0.283-1-0.75c0.4-0.2,0.65-0.45,0.75-0.75
		c0.134-0.333,0.034-0.65-0.3-0.95L43.4,11.8l0.149-0.05c0.2,0,0.584,0.017,1.15,0.05c0.533,0,0.934-0.066,1.2-0.2l0.1-0.1
		c0.233-0.1,0.35-0.283,0.35-0.55c0.034-0.567-0.6-0.85-1.899-0.85c1.033-0.067,1.616-0.117,1.75-0.15c0.767-0.133,1.1-0.434,1-0.9
		c0-0.1-0.05-0.233-0.15-0.4l2.2,0.25c0.066,0.4-0.05,0.733-0.35,1c-0.167,0.133-0.367,0.233-0.601,0.3h-0.2v0.05l-0.55,0.1h0.25
		H48.1z M14.45,21.7v-0.05h0.05l0.55,0.15c-0.233,0.967-0.483,1.567-0.75,1.8c-0.167,0.167-0.433,0.233-0.8,0.2
		c-0.4,0-0.583-0.133-0.55-0.4c-0.6,0.667-1.3,1.1-2.1,1.3c0-0.123,0.017-0.231,0.05-0.325l0.025-0.1
		c0.005-0.024,0.014-0.049,0.025-0.075V24c-0.567,0.267-1.167,0.383-1.8,0.35c-0.733,0-1.233-0.233-1.5-0.7
		C7.483,23.817,7.267,23.967,7,24.1c0.067-0.367,0.167-0.617,0.3-0.75c0.233,0.3,0.8,0.4,1.7,0.3c0.9-0.066,1.35-0.316,1.35-0.75
		c0.167,0.133,0.35,0.283,0.55,0.45c0.2,0.1,0.467,0.133,0.8,0.1c0.267-0.034,0.566-0.184,0.9-0.45l0.35-0.3
		c0.066-0.034,0.267-0.05,0.6-0.05c0.4,0.067,0.65,0.067,0.75,0C14.467,22.55,14.517,22.233,14.45,21.7z M25.25,25.15
		c-0.167-0.066-0.483,0.017-0.95,0.25c-0.5,0.233-0.85,0.35-1.05,0.35c-0.267,0.033-0.45,0.017-0.55-0.05
		c-0.067-0.067-0.117-0.184-0.15-0.35c-0.033-0.2-0.066-0.3-0.1-0.3c-0.133-0.066-0.383-0.05-0.75,0.05
		c-0.467,0.133-0.75,0.2-0.85,0.2H20l-0.5-0.05c-0.633-0.067-1.05-0.167-1.25-0.3c-0.233-0.167-0.35-0.517-0.35-1.05l0.4-0.15
		c-0.033,0.233-0.033,0.4,0,0.5c0.067,0.1,0.217,0.217,0.45,0.35c0.367,0.2,1.067,0.3,2.1,0.3l0.95-0.1
		c0.534-0.167,0.867-0.383,1-0.65V24.1v-0.05l0.1,0.3c0.067,0.267,0.15,0.433,0.25,0.5c0.233,0.267,0.633,0.333,1.2,0.2
		c0.4-0.066,0.566-0.25,0.5-0.55c0.066,0.233,0.133,0.383,0.2,0.45L25.1,25L25.25,25.15z M27.55,32
		c-0.267,0.434-0.55,0.75-0.85,0.95c-0.034,0-0.067,0.017-0.1,0.05h-0.05c-0.833,0.233-1.566,0.467-2.2,0.7
		c-0.067,0.033-0.167,0.083-0.3,0.149c-0.167,0.067-0.35,0.167-0.55,0.301c-0.1,0.033-0.2,0.083-0.3,0.149l-0.15,0.05
		c-0.4,0.233-0.9,0.384-1.5,0.45c-0.833,0.101-1.783,0.084-2.85-0.05l-0.1-0.65c-0.434-0.066-1.117-0.1-2.05-0.1v-1.15l0.35,0.101
		c0.333,0.033,0.65-0.05,0.95-0.25c0.333-0.3,0.583-0.517,0.75-0.65c0.1,0.233,0.167,0.601,0.2,1.101
		c0.067,0.433,0.267,0.683,0.6,0.75c0.4,0.1,0.8,0,1.2-0.301c0.167-0.166,0.433-0.483,0.8-0.949l0.05,0.649
		c0.733,0.167,1.517-0.149,2.35-0.95c0.733-0.733,1.184-1.399,1.35-2c-0.066,0.267-0.033,0.483,0.1,0.65
		c0.833-0.033,1.483-0.433,1.95-1.2c0.367-0.6,0.533-1.283,0.5-2.05c0.066,0.333,0.533,0.4,1.4,0.2l0.05-0.7
		c-0.1-0.1-0.217-0.317-0.35-0.65c-0.133-0.267-0.267-0.45-0.4-0.55c-0.1,0.167-0.2,0.333-0.3,0.5c-0.067,0.1-0.233,0.167-0.5,0.2
		c-0.6,0.067-1.133-0.083-1.6-0.45c-0.295-0.623-0.512-0.99-0.65-1.1c0.403,0.298,0.87,0.332,1.4,0.1
		c0.3-0.167,0.483-0.45,0.55-0.85l0.2-0.5l0.8,0.5c0.3,0.167,0.567,0.216,0.8,0.15c0.333-0.067,0.5-0.283,0.5-0.65
		c0-0.5,0.033-0.817,0.1-0.95c0.2,0.3,0.383,0.667,0.55,1.1c0.167,0.267,0.533,0.383,1.1,0.35c0.367,0,0.65-0.083,0.85-0.25
		c0.133-0.1,0.3-0.333,0.5-0.7c-0.034,0.767,0,1.217,0.1,1.35c0.167,0.267,0.6,0.367,1.3,0.3c0.9-0.066,1.384-0.433,1.45-1.1
		c0.533-0.133,0.9,0.083,1.101,0.65c0.199,0.5,0.199,1.1,0,1.8l-0.301,0.1c-0.166,0.066-0.35,0.117-0.55,0.15
		c-0.166,0.033-0.333,0.067-0.5,0.1h-0.2c-0.133,0-0.25,0.017-0.35,0.05c-0.434,0-0.867-0.017-1.3-0.05L33.4,27.2
		c-0.066,0.2-0.117,0.383-0.15,0.55l-0.1,0.2c-0.2,0.466-0.583,0.75-1.15,0.85l-0.25,0.05c-0.2,0-0.4,0-0.6,0
		c-0.066,0-0.117,0-0.15,0h-0.05c-0.034,0.267-0.05,0.683-0.05,1.25c0,0.566-0.033,0.983-0.1,1.25c-0.3,0.033-0.566,0.05-0.8,0.05
		h-1.1c-0.2-0.033-0.383-0.066-0.55-0.1c-0.133-0.033-0.25-0.066-0.35-0.1l-0.1-0.05C27.8,31.45,27.683,31.733,27.55,32z
		 M38.15,15.1c2.566,0.233,3.816-0.083,3.75-0.95L41.85,14v-0.1l0.301-0.05c0.333,0,0.633-0.083,0.899-0.25
		c-0.033,0.167-0.066,0.4-0.1,0.7L42.8,15c-0.033,0-0.05,0.017-0.05,0.05v0.05c-0.033,0-0.05,0.017-0.05,0.05
		c-0.2,0.567-0.584,0.867-1.15,0.9L40.05,16h-0.1c-0.8-0.1-1.4-0.333-1.8-0.7l-0.2-0.25L38.15,15.1z M15.7,31.4
		c0.066-0.033,0.117-0.066,0.15-0.1v-0.1c0.066,0.066,0.117,0.183,0.15,0.35L15.7,31.4z M11.05,31.45
		c-0.133,0.133-0.316,0.25-0.55,0.35l-0.2,0.05c-0.367,0.033-0.816,0.017-1.35-0.05c-0.167-0.066-0.35-0.117-0.55-0.15l0.25-0.15
		c0.233-0.167,0.383-0.267,0.45-0.3c0.1-0.034,0.25-0.034,0.45,0c0,0.167,0.067,0.267,0.2,0.3c0.267,0.067,0.517,0.067,0.75,0
		L11.05,31.45z M11.3,31.75c-0.033-0.1-0.05-0.2-0.05-0.3c0.667-0.133,1.183-0.267,1.55-0.4c0.233-0.066,0.434-0.167,0.6-0.3
		c0.1-0.033,0.217,0.067,0.35,0.3v0.9c-0.1,0.033-0.183,0.066-0.25,0.1l-0.3,0.05C12.133,32.366,11.5,32.25,11.3,31.75z"/>
	<path style="fill-rule:evenodd;clip-rule:evenodd;fill:#6D7247;" d="M62.2,18.65c2.267,1.333,3.316,2.317,3.149,2.95
		c0.034-0.2-0.033-0.417-0.199-0.65C64.783,20.417,63.8,19.65,62.2,18.65z M63.1,23c-0.066,0.7,0.601,1,2,0.9c0.334,0,0.634,0,0.9,0
		c-0.967,0.067-1.65,0.067-2.05,0C63.316,23.833,63.033,23.533,63.1,23z M54.45,11.45L53.8,11.5c-1.133,0.1-1.916,0.333-2.35,0.7
		c0.033,0.167,0.333,0.633,0.899,1.4c0,0.2,0.067,0.367,0.2,0.5c0.233,0.1,0.45,0.25,0.65,0.45c0.533,0.867-0.017,1.25-1.65,1.15
		c0.167,0.133,0.65,0.4,1.45,0.8c0.667,0.433,0.833,0.833,0.5,1.2c-0.267,0.3-1.083,0.25-2.45-0.15
		c0.867,0.534,1.217,1.133,1.05,1.8L50.7,19.4c0.3,0.067,0.533,0.3,0.7,0.7c0.133,0.4,0.066,0.7-0.2,0.9
		c-0.2,0.167-0.55,0.2-1.05,0.1c-0.467-0.067-0.801-0.184-1-0.35c-0.134,0.033-0.217,0.2-0.25,0.5c-0.067,0.4-0.117,0.617-0.15,0.65
		c-0.267,0.367-0.75,0.45-1.45,0.25c-0.967-0.167-1.45-0.8-1.45-1.9c-0.233,0.1-0.383,0.3-0.449,0.6
		c-0.301,0.566-0.75,0.867-1.351,0.9c-0.934,0.233-1.533,0.183-1.8-0.15c-0.066-0.133,0.083-0.517,0.45-1.15
		c0.399-0.633,0.616-0.983,0.649-1.05c0.334-0.4,0.584-0.683,0.75-0.85c-0.233,0.167-0.533,0.317-0.899,0.45
		c-0.5,0.133-0.934,0.167-1.3,0.1c-0.167-0.5-0.017-1.033,0.449-1.6c0.167-0.167,0.601-0.567,1.301-1.2
		c-0.634,0.3-1.434,0.383-2.4,0.25l0.1-0.2c0.267,0,0.534-0.067,0.801-0.2c0.1-0.066,0.199-0.183,0.3-0.35
		c0.1-0.2,0.184-0.333,0.25-0.4c0.1-0.066,0.267-0.1,0.5-0.1c0.233,0.034,0.383,0.034,0.45,0c0.233-0.133,0.383-0.45,0.449-0.95
		c0.101,0.033,0.25,0.017,0.45-0.05l0.3-0.3l0.551-0.25c-0.134,0.2-0.233,0.433-0.301,0.7c0.267,0.167,0.601,0.216,1,0.15
		c-0.466,0.133-0.899,0.333-1.3,0.6c-0.434,0.3-0.616,0.566-0.55,0.8c0.467,0,0.733,0.05,0.8,0.15
		c-0.233,0.434-0.35,0.684-0.35,0.75c-0.066,0.233,0.066,0.434,0.399,0.6c0.4,0.2,0.934,0.15,1.601-0.15
		c0.533-0.267,0.899-0.567,1.1-0.9c-0.1,0.2-0.149,0.517-0.149,0.95c0,0.333,0.017,0.517,0.05,0.55c0.033,0.066,0.2,0.117,0.5,0.15
		c0.5,0.1,0.816,0,0.95-0.3c0.1-0.2,0.133-0.55,0.1-1.05c0.1,0.067,0.233,0.117,0.4,0.15c0.166,0,0.283-0.05,0.35-0.15
		c0.333-0.367,0.066-0.9-0.8-1.6c-1-0.633-1.584-1.017-1.75-1.15c0.866,0.133,1.35,0.183,1.45,0.15c0.433-0.066,0.649-0.4,0.649-1
		c0-0.367-0.149-0.617-0.45-0.75c-0.267-0.1-0.6-0.1-1,0c0.034-0.033,0.101-0.133,0.2-0.3l0.2-0.15l1.05-0.45h-0.1l-0.25-0.05
		c0.267,0.033,0.583,0.05,0.95,0.05c0.566,0,0.983,0.067,1.25,0.2c0.366-0.6,1.366-0.784,3-0.55
		C54.4,11.25,54.417,11.35,54.45,11.45z M24.35,9c-0.033-0.3-0.017-0.6,0.05-0.9c0.633,0.066,1.033,0.367,1.2,0.9
		c-0.133-1.133,0.167-1.817,0.9-2.05c0.533-0.167,1.033-0.083,1.5,0.25c0.4,0.233,0.65,0.566,0.75,1c-0.167-0.833-0.1-1.5,0.2-2
		c-0.133-0.167-0.184-0.333-0.15-0.5V5.15c0.467,0.067,0.717,0.1,0.75,0.1c-0.8-0.733-1.4-1.317-1.8-1.75
		c-0.7-0.833-0.8-1.55-0.3-2.15C27.983,0.717,29,0.8,30.5,1.6c-0.467-1.2-0.167-1.733,0.9-1.6c1.033,0.133,1.75,0.633,2.15,1.5
		c-0.066-0.167-0.083-0.367-0.05-0.6c0-0.333,0-0.55,0-0.65c1.4-0.1,2.983,0.35,4.75,1.35c0.066-0.167,0.2-0.35,0.4-0.55
		c0.233-0.267,0.366-0.417,0.399-0.45c0.4,0.533,0.75,1.1,1.05,1.7L38.9,2.35c0.066,0.5-0.334,0.967-1.2,1.4
		c0.2,0.1,0.6,0.2,1.2,0.3c0.466,0.167,0.666,0.434,0.6,0.8c-0.033,0.3-0.2,0.467-0.5,0.5c-0.434,0.066-0.7,0.133-0.8,0.2
		c0.133,0.067,0.533,0.15,1.2,0.25c0.533,0.1,0.916,0.233,1.149,0.4c0.3,0.233,0.434,0.383,0.4,0.45
		c-0.033,0.067-0.017,0.167,0.05,0.3c0.1,0.267,0.283,0.65,0.55,1.15c0.101,0.333,0.134,0.85,0.101,1.55
		c0,0.8-0.117,1.233-0.351,1.3c0.3,1.066,0.25,1.767-0.149,2.1c-0.233,0.167-0.601,0.2-1.101,0.1l-1.149-0.2
		c-0.233,0.367-0.434,0.6-0.601,0.7c-0.233,0.167-0.55,0.2-0.95,0.1c-0.199-0.033-0.333-0.067-0.399-0.1
		c-0.134-0.033-0.233-0.133-0.3-0.3C36.517,13.583,36.3,13.967,36,14.5c-0.333,0.433-0.717,0.517-1.15,0.25
		c-0.199-0.1-0.3-0.283-0.3-0.55c0-0.367-0.033-0.617-0.1-0.75c-0.2-0.4-0.483-0.4-0.85,0l-0.85,0.85
		c-0.433,0.167-0.667,0.083-0.7-0.25c0.067-0.5,0.067-0.85,0-1.05c-0.2-0.067-0.433,0.017-0.7,0.25L30.8,13.8
		c-0.433,0.267-0.883,0.4-1.35,0.4c-0.2-0.267-0.284-0.717-0.25-1.35c0.1-0.667,0.133-1.133,0.1-1.4c-1.033,0.667-1.95,0.9-2.75,0.7
		c-0.167-0.267-0.2-0.65-0.1-1.15c0.1-0.7,0.15-1.1,0.15-1.2c-0.3,0.133-0.533,0.233-0.7,0.3c-0.333,0.1-0.583,0.083-0.75-0.05
		c-0.233-0.133-0.233-0.6,0-1.4L24.35,9z M22.95,12.95c0.1,0.267,0.466,0.95,1.1,2.05c0.5,0.967,0.467,1.45-0.1,1.45
		c-0.034,0.233-0.034,0.6,0,1.1c-0.667,0.067-1.15-0.017-1.45-0.25c0.133,0.133,0.233,0.383,0.3,0.75c0.1,0.4,0.083,0.65-0.05,0.75
		c-0.133,0.133-0.283,0.133-0.45,0c-0.033-0.033-0.066-0.066-0.1-0.1c0.1,0.633,0.083,1.283-0.05,1.95
		c-0.367,0.033-0.767-0.05-1.2-0.25c-0.467-0.2-0.767-0.45-0.9-0.75c0.3,1.3-0.066,1.883-1.1,1.75
		c-0.667-0.133-1.017-0.55-1.05-1.25c-0.033,0.267-0.167,0.517-0.4,0.75c-0.333,0.3-0.7,0.333-1.1,0.1
		c-0.233-0.133-0.333-0.35-0.3-0.65v-0.8c-0.367,0.167-0.617,0.15-0.75-0.05c-0.067-0.133-0.117-0.4-0.15-0.8
		c-0.1,0.3-0.383,0.45-0.85,0.45S13.567,19,13.4,18.7c0,0.066,0.05,0.45,0.15,1.15c0.034,0.4,0.017,0.617-0.05,0.65
		c-0.167,0.067-0.367,0.117-0.6,0.15c-0.3,0.067-0.483,0.167-0.55,0.3c-0.1,0.2-0.233,0.333-0.4,0.4c-0.2,0.1-0.434,0.083-0.7-0.05
		c-0.233-0.1-0.4-0.25-0.5-0.45c-0.1,0.066-0.167,0.217-0.2,0.45c-0.066,0.2-0.183,0.317-0.35,0.35c-0.3,0.033-0.6-0.3-0.9-1
		c0,0.367-0.133,0.617-0.4,0.75c-0.3,0.133-0.633,0.117-1-0.05c-0.267-0.133-0.4-0.3-0.4-0.5c-0.133,0.633-0.783,0.883-1.95,0.75
		c-1.3-0.133-1.683-0.45-1.15-0.95L3.9,20.6c-0.1,0.467,0.117,0.883,0.65,1.25c-1.033-0.633-1.066-1.317-0.1-2.05
		c0.966-0.733,1.667-0.816,2.1-0.25c-0.066-0.167-0.1-0.316-0.1-0.45V19L6.4,18.6l0.1-1.05c3.3-0.267,5.45-0.117,6.45,0.45
		c-0.034-0.567,0-1.217,0.1-1.95c0.267-0.1,0.534-0.15,0.8-0.15c-0.133-0.733,0.017-1.283,0.45-1.65c0.034,0.067,0.1,0.167,0.2,0.3
		c-0.167,0.167-0.233,0.317-0.2,0.45c0.633,0.3,1.284,0.35,1.95,0.15c-0.533,0.667-0.733,1.184-0.6,1.55s0.383,0.433,0.75,0.2
		c0.233-0.167,0.467-0.417,0.7-0.75c0.066,0.2,0.066,0.617,0,1.25c0,0.533,0.167,0.833,0.5,0.9c0.367,0.1,0.6-0.083,0.7-0.55
		c0.067-0.533,0.117-0.883,0.15-1.05c0.233,0.167,0.566,0.267,1,0.3c0.433,0.067,0.75,0.017,0.95-0.15
		c0.033-0.467,0.017-0.767-0.05-0.9c-0.067-0.167-0.317-0.3-0.75-0.4c0.1-0.1,0.583-0.15,1.45-0.15c0.633,0,0.917-0.267,0.85-0.8
		c-0.066-0.333-0.316-0.533-0.75-0.6c-0.2-0.033-0.617-0.033-1.25,0c0.067-0.033,0.133-0.167,0.2-0.4c0.2-0.5-0.017-0.934-0.65-1.3
		s-1.133-0.566-1.5-0.6c0.3-0.967,0.867-1.2,1.7-0.7c0.833,0.533,1.217,1.283,1.15,2.25C21.2,12.617,21.917,12.517,22.95,12.95z
		 M2.35,24.35C2.683,24.417,3,24.467,3.3,24.5c-1.466-0.1-2.566-0.367-3.3-0.8C0.5,23.967,1.283,24.183,2.35,24.35z M21.8,24.8
		l-0.95,0.1l0.1-0.1H21.8z M22.8,24.1v0.05l-0.05-0.4L22.8,24.1z M45.25,7.85c0-0.1,0.017-0.217,0.05-0.35l-0.2-0.1h0.2l0.05-0.7
		c0-0.067,0-0.133,0-0.2C45.384,7.033,45.35,7.483,45.25,7.85z M45.1,8.1c-0.066,0.1-0.149,0.2-0.25,0.3l0.101-0.15
		C45.017,8.183,45.066,8.133,45.1,8.1z M45.9,11.6v-0.1H46L45.9,11.6z M48.1,10.35h-0.3h-0.25l0.55-0.1V10.2h0.2
		c0.233-0.067,0.434-0.167,0.601-0.3c-0.233,0.2-0.601,0.35-1.101,0.45c0.867-0.1,1.217,0.233,1.05,1
		C48.95,10.75,48.7,10.417,48.1,10.35z M47.45,12.55h0.3l-0.1,0.05l-0.15,0.45h-0.4L47.4,12.9
		C47.233,12.833,47.25,12.717,47.45,12.55z M42.95,14.3c0.033-0.3,0.066-0.533,0.1-0.7h0.05C43.066,13.767,43.017,14,42.95,14.3z
		 M38.2,26.75l0.45,0.1c0.166,0.033,0.333,0.066,0.5,0.1C38.783,26.95,38.467,26.883,38.2,26.75z M7.3,31.35
		c-0.066-0.567,0.184-1.033,0.75-1.4c-0.333,0.267-0.533,0.483-0.6,0.65L7.3,31.35l1.1,0.3c0.2,0.033,0.383,0.083,0.55,0.15
		C8.483,31.7,7.933,31.55,7.3,31.35z M35.45,3.35c0.066-0.967,0.033-1.55-0.101-1.75c-0.333-0.4-0.75-0.283-1.25,0.35
		c-0.399,0.5-0.633,0.966-0.7,1.4c-0.1-0.3-0.183-0.533-0.25-0.7c-0.1-0.3-0.25-0.467-0.45-0.5c-0.333-0.066-0.817,0.35-1.45,1.25
		c-0.267-0.833-0.433-1.3-0.5-1.4c-0.3-0.6-0.633-0.633-1-0.1L29.6,2.45c-0.233,0.267-0.2,0.583,0.1,0.95
		c0.2,0.167,0.483,0.417,0.85,0.75c0.2,0.033,0.333,0.184,0.4,0.45c0.033,0.1,0.033,0.2,0,0.3c-0.034,0.1,0,0.184,0.1,0.25
		c-0.033,0.067-0.183,0.2-0.45,0.4C30.4,5.717,30.283,5.867,30.25,6c-0.033,0.267,0.033,0.5,0.2,0.7c0.2,0.167,0.433,0.2,0.7,0.1
		c-0.433,0.434-0.667,0.767-0.7,1l-0.7,0.05v1.1c-1.067-0.267-1.867-0.367-2.4-0.3c-0.167,0.567,0.283,0.9,1.35,1
		c1.066,0.067,1.667-0.066,1.8-0.4c-0.067,0.367-0.067,0.633,0,0.8c0.8,0.167,1.283-0.083,1.45-0.75c-0.1,0.733,0.3,1.284,1.2,1.65
		c0.833,0.333,1.667,0.417,2.5,0.25c0.066-0.233,0.066-0.55,0-0.95c-0.101-0.5-0.15-0.833-0.15-1c0.9,0.2,1.65,0.233,2.25,0.1V8.8
		c-0.1-0.367-0.384-0.667-0.85-0.9c-0.567-0.2-0.983-0.35-1.25-0.45c0-0.167,0.283-0.317,0.85-0.45c0.5-0.133,0.717-0.433,0.65-0.9
		c-0.034-0.267-0.167-0.434-0.4-0.5c0.4-0.067,0.65-0.167,0.75-0.3c0.134-0.167,0.184-0.5,0.15-1c-0.034-0.5-0.134-0.816-0.301-0.95
		c-0.133-0.1-0.399-0.15-0.8-0.15C36.184,3.2,35.816,3.25,35.45,3.35z M14.55,14.6l0.05,0.05c0.033,0.067,0.066,0.15,0.1,0.25
		c-0.067-0.667,0.033-1.2,0.3-1.6c-1.033-1.2-1.067-1.983-0.1-2.35c1-0.4,1.983-0.067,2.95,1l-0.3-0.25l-0.05-0.05l-0.3-0.25
		c-0.367-0.167-0.667-0.233-0.9-0.2c-0.1,0.4-0.117,0.833-0.05,1.3s0.2,0.8,0.4,1c-0.133-0.067-0.316-0.067-0.55,0l0.1,0.25
		c-0.633,0.1-1.133,0.3-1.5,0.6l0.05,0.75C14.717,14.967,14.65,14.8,14.55,14.6z M8.4,17.7c-0.3-0.034-0.617-0.017-0.95,0.05
		c-0.467,0.1-0.7,0.267-0.7,0.5c-0.033,0.233,0.183,0.383,0.65,0.45c-0.467,0.167-0.633,0.433-0.5,0.8
		c0.133,0.333,0.684,0.483,1.65,0.45c0.967-0.034,1.4-0.3,1.3-0.8c0.167,0.5,0.717,0.717,1.65,0.65c0.067-0.5-0.017-0.816-0.25-0.95
		c0.7,0.233,1.133,0.217,1.3-0.05c0.167-0.3,0.017-0.667-0.45-1.1c-0.667-0.167-1.6-0.25-2.8-0.25L8.4,17.7z M11,25.35
		c-0.203-0.29-0.236-0.615-0.1-0.975c-0.033,0.094-0.05,0.202-0.05,0.325v0.25C10.883,25.083,10.933,25.217,11,25.35z M11.25,31.45
		c0,0.1,0.017,0.2,0.05,0.3c-0.066-0.167-0.083-0.367-0.05-0.6V31.45z M13.5,32.05c0.067-0.033,0.15-0.066,0.25-0.1l1.85-0.6
		C14.833,31.65,14.133,31.883,13.5,32.05z M16.55,32.75c-0.006-0.12-0.023-0.22-0.05-0.3c-0.033-0.4-0.2-0.7-0.5-0.9
		C16.348,31.771,16.531,32.172,16.55,32.75z M25.25,25.15h0.05l0.05,0.05L25.25,25.15z M18.2,26.7l-0.1-0.05l0.15-0.4L18.2,26.7z
		 M13.65,26.85c0.067,0.033,0.4,0.083,1,0.15c0.3,0,0.717,0.067,1.25,0.2l0.5,0.35c0.667,0.733,0.283,0.967-1.15,0.7
		c0.033,0.333-0.217,0.5-0.75,0.5c-0.6-0.067-1-0.083-1.2-0.05c0,0.4-0.267,0.6-0.8,0.6c-0.633-0.133-1.05-0.2-1.25-0.2
		c-0.533,0.066-0.917,0.117-1.15,0.15c-0.467,0-0.817-0.167-1.05-0.5c-0.267,0.1-0.683,0.117-1.25,0.05
		c-0.066-0.3,0.017-0.6,0.25-0.9c-0.233-0.1-0.466-0.183-0.7-0.25c0.233,0.033,0.483,0.117,0.75,0.25
		c0.033-0.033,0.05-0.066,0.05-0.1c0.1-0.133,0.233-0.267,0.4-0.4l-0.3,0.05c0-0.034,0-0.067,0-0.1L9,27.2
		c-0.033-0.1-0.017-0.267,0.05-0.5c0.067-0.267,0.1-0.434,0.1-0.5c0.533-0.133,1.083-0.15,1.65-0.05
		c0.534,0.133,0.967,0.367,1.3,0.7c0.033-0.167,0.133-0.333,0.3-0.5l-0.2,0.3l0.05,0.2c-0.033,0-0.083,0-0.15,0
		c-0.6-0.033-1.083-0.033-1.45,0c-0.733,0-1.2,0.133-1.4,0.4C9.083,27.483,9.333,27.667,10,27.8c0.567,0.133,1.15,0.184,1.75,0.15
		c0.3,0.133,0.75,0.2,1.35,0.2c0.566,0,0.933-0.033,1.1-0.1C14.2,27.55,14.017,27.15,13.65,26.85z M11.375,25.65H11.35
		c-0.029-0.029-0.054-0.054-0.075-0.075C11.303,25.602,11.336,25.626,11.375,25.65z"/>
	<path style="fill-rule:evenodd;clip-rule:evenodd;fill:#4E512F;" d="M37.25,26.3l-0.6,0.2c0.199-0.7,0.199-1.3,0-1.8
		c-0.2-0.567-0.567-0.784-1.101-0.65c-0.066,0.667-0.55,1.034-1.45,1.1c-0.7,0.067-1.133-0.033-1.3-0.3
		c-0.1-0.133-0.133-0.583-0.1-1.35c-0.2,0.367-0.367,0.6-0.5,0.7c-0.2,0.167-0.483,0.25-0.85,0.25
		c-0.567,0.033-0.934-0.083-1.1-0.35c-0.167-0.434-0.35-0.8-0.55-1.1c-0.067,0.133-0.1,0.45-0.1,0.95c0,0.367-0.167,0.583-0.5,0.65
		c-0.233,0.066-0.5,0.017-0.8-0.15h0.1c0.033-0.167-0.017-0.467-0.15-0.9c-0.1-0.433-0.117-0.75-0.05-0.95
		c0.233,0,0.583,0.017,1.05,0.05c0.367,0,0.583-0.15,0.65-0.45c0.133-0.633-0.183-1.017-0.95-1.15c1.1,0.1,0.816-0.85-0.85-2.85
		c0.1,0.033,0.55,0.1,1.35,0.2c0.566,0.067,1,0.184,1.3,0.35c-0.1,0.167-0.25,0.4-0.45,0.7c0.3,0.133,0.733,0.2,1.3,0.2
		c0.633,0,1.066,0.033,1.3,0.1c0,0.167-0.066,0.5-0.2,1c-0.1,0.467-0.067,0.767,0.1,0.9c0.467,0.3,0.917,0.033,1.351-0.8
		c0.033,0.2,0.033,0.5,0,0.9c0.033,0.333,0.183,0.567,0.449,0.7c0.134,0.066,0.384,0.1,0.75,0.1c0.334,0,0.567-0.033,0.7-0.1
		c0.233-0.1,0.4-0.217,0.5-0.35l0.25-0.55c-0.033,0.434,0.084,0.8,0.351,1.1c0.267,0.333,0.633,0.55,1.1,0.65
		c1.3,0.267,2.4,0.284,3.3,0.05c-0.467,0.133-0.816,0.267-1.05,0.4c-0.434,0.2-0.733,0.483-0.9,0.85
		c0.267,0.267,0.784,0.383,1.551,0.35c0.6-0.034,1.133-0.133,1.6-0.3c0,0.333,0.017,0.533,0.05,0.6s0.2,0.133,0.5,0.2
		c0.4,0.133,0.733,0.083,1-0.15c0.2-0.2,0.334-0.433,0.4-0.7c0,0.566,0.333,0.95,1,1.15c0.434,0.133,0.883,0.2,1.35,0.2
		c0.634,0.033,0.983-0.1,1.05-0.4c0.267,0.267,0.75,0.367,1.45,0.3c0.134-0.733,0-1.367-0.399-1.9c0.399,0.333,0.816,0.466,1.25,0.4
		c0.267-0.067,0.399-0.2,0.399-0.4c0-0.3,0.033-0.483,0.101-0.55c0.166-0.133,0.5-0.1,1,0.1c0.533,0.2,0.899,0.25,1.1,0.15
		c0.2-0.133,0.3-0.4,0.3-0.8c-0.033-0.567-0.033-0.9,0-1c0.2,0.066,0.667,0.25,1.4,0.55c0.7,0.267,1.166,0.25,1.399-0.05
		c0.233-0.3,0.2-0.633-0.1-1c-0.267-0.333-0.566-0.583-0.9-0.75c0.233-0.1,0.684-0.117,1.351-0.05c0.8,0.067,1.267,0.1,1.399,0.1
		c0.101-0.6,0.117-0.983,0.051-1.15c-0.101-0.3-0.334-0.533-0.7-0.7c-0.467-0.167-0.8-0.316-1-0.45c0-0.167,0.149-0.317,0.45-0.45
		c0.3-0.167,0.416-0.383,0.35-0.65c-0.033-0.367-0.384-0.667-1.05-0.9c-0.733-0.167-1.233-0.3-1.5-0.4
		c0.033-0.267,0.05-0.467,0.05-0.6c0.033-0.267,0.017-0.467-0.05-0.6c-0.233-0.167-0.384-0.317-0.45-0.45
		c-0.233-0.566,0.033-1.383,0.8-2.45L54.9,11.8c0.966,0.034,1.55,0.35,1.75,0.95c0.033,0.067,0.05,0.117,0.05,0.15v0.05
		c0,0.066,0.017,0.15,0.05,0.25c-0.033,0.533-0.316,1.216-0.85,2.05c1.267,0.5,3.366,1.633,6.3,3.4c1.6,1,2.583,1.767,2.95,2.3
		L64.85,21.1l-1.8-0.15c-1.833-0.267-3.35-0.833-4.55-1.7c-0.434,0.8,0.816,1.7,3.75,2.7c0.1,0.267,0.15,0.517,0.15,0.75l0.699,0.15
		V23c-0.066,0.533,0.217,0.833,0.851,0.9V25c-0.566,0.1-1.217,0.1-1.95,0c-0.866-0.1-1.467-0.283-1.8-0.55
		c-0.233-0.2-0.316-0.467-0.25-0.8c-0.066,0.367-0.217,0.65-0.45,0.85c-0.267,0.267-0.616,0.283-1.05,0.05
		c-0.233-0.1-0.334-0.35-0.3-0.75c0.033-0.5,0.017-0.816-0.051-0.95c-0.199-0.033-0.316,0.233-0.35,0.8c0,0.667-0.033,1.033-0.1,1.1
		C57.384,25.017,56.8,25.1,55.9,25c-0.634-0.1-1.233-0.233-1.801-0.4c0.334,0.566,0.95,0.883,1.851,0.95
		c0.1,0.034,0.333,0.034,0.7,0c0.3,0.034,0.466,0.133,0.5,0.3c0.166,0.467-0.351,0.717-1.551,0.75c-1.333-0.1-2.066-0.15-2.199-0.15
		c-0.067,0.066-0.15,0.333-0.25,0.8c-0.034,0.233-0.317,0.383-0.851,0.45c-1.566,0.233-2.283-0.017-2.149-0.75
		c-0.134,0.1-0.317,0.267-0.551,0.5c-0.267,0.167-0.517,0.283-0.75,0.35c-0.466,0.133-0.966,0.184-1.5,0.15
		c-0.666-0.067-1.133-0.233-1.399-0.5l0.399-1.15c-0.466,0.6-1.416,0.617-2.85,0.05c0.066-0.233,0.1-0.4,0.1-0.5
		c0-0.133-0.083-0.233-0.25-0.3c-0.133-0.033-0.316,0-0.55,0.1l-0.55,0.2c-1.1,0.233-2.167,0.183-3.2-0.15
		c-1.2-0.367-1.899-1.034-2.1-2c0,0.233-0.017,0.667-0.05,1.3C36.934,25.567,37.05,26,37.25,26.3z M49.45,11.5l-1.101,0.2
		c0-0.567-0.083-1.017-0.25-1.35c0.601,0.066,0.851,0.4,0.75,1c0.101,0.033,0.217,0.066,0.351,0.1L49.45,11.5z M43.05,13.6
		c-0.267,0.167-0.566,0.25-0.899,0.25c0.066-0.1,0.133-0.5,0.199-1.2c0.167-0.033,0.384-0.05,0.65-0.05
		c0.233-0.033,0.4-0.167,0.5-0.4l0.05-0.3c0.334,0.3,0.434,0.617,0.3,0.95c-0.1,0.3-0.35,0.55-0.75,0.75
		c0.467,0.467,0.801,0.717,1,0.75c-0.066,0.5-0.216,0.816-0.449,0.95c-0.067,0.034-0.217,0.034-0.45,0c-0.233,0-0.4,0.034-0.5,0.1
		c-0.066,0.067-0.15,0.2-0.25,0.4c-0.101,0.167-0.2,0.284-0.3,0.35c-0.267,0.133-0.534,0.2-0.801,0.2c-0.633,0-1.066-0.117-1.3-0.35
		l1.5,0.05c0.566-0.033,0.95-0.333,1.15-0.9c0-0.033,0.017-0.05,0.05-0.05v-0.05c0-0.033,0.017-0.05,0.05-0.05l0.15-0.7
		c0.066-0.3,0.116-0.533,0.149-0.7H43.05z M12.6,23c-0.333,0.267-0.633,0.417-0.9,0.45c-0.333,0.033-0.6,0-0.8-0.1
		c-0.2-0.167-0.383-0.317-0.55-0.45c0,0.434-0.45,0.684-1.35,0.75c-0.9,0.1-1.467,0-1.7-0.3C7.167,23.483,7.067,23.733,7,24.1
		l-0.25,0.1c-0.867,0.333-2.017,0.433-3.45,0.3c-0.3-0.033-0.617-0.083-0.95-0.15c0.333-0.067,0.6-0.167,0.8-0.3
		c0.1-0.066,0.217-0.25,0.35-0.55c0.1-0.233,0.217-0.367,0.35-0.4c0.667,0.066,1.2,0.1,1.6,0.1c0.733,0,1.283-0.05,1.65-0.15
		c0.566-0.133,0.867-0.466,0.9-1c0.1,0.034,0.267,0.117,0.5,0.25c0.2,0.167,0.383,0.267,0.55,0.3c0.233,0.066,0.75,0.066,1.55,0
		l0.05-0.45C10.817,22.783,11.467,23.067,12.6,23z M25.1,25h0.05v-0.1c-0.033-0.2-0.05-0.35-0.05-0.45c0-0.167,0.066-0.3,0.2-0.4
		l1.45,0.35l0.55,0.05c-0.066,0.4-0.25,0.683-0.55,0.85c-0.53,0.232-0.997,0.199-1.4-0.1l-0.05-0.05h-0.05l0.1,0.05
		c0.138,0.11,0.354,0.477,0.65,1.1c0.467,0.367,1,0.517,1.6,0.45c0.267-0.033,0.433-0.1,0.5-0.2c0.1-0.167,0.2-0.333,0.3-0.5
		c0.133,0.1,0.267,0.284,0.4,0.55c0.133,0.333,0.25,0.55,0.35,0.65l-0.05,0.7c-0.867,0.2-1.333,0.133-1.4-0.2
		c0.033,0.767-0.133,1.45-0.5,2.05c-0.467,0.767-1.117,1.167-1.95,1.2c-0.133-0.167-0.167-0.383-0.1-0.65
		c-0.167,0.6-0.617,1.267-1.35,2c-0.833,0.801-1.617,1.117-2.35,0.95L21.4,32.65c-0.367,0.466-0.633,0.783-0.8,0.949
		C20.2,33.9,19.8,34,19.4,33.9c-0.333-0.067-0.533-0.317-0.6-0.75c-0.033-0.5-0.1-0.867-0.2-1.101
		c-0.167,0.134-0.417,0.351-0.75,0.65c-0.3,0.2-0.617,0.283-0.95,0.25l-0.35-0.101v-0.1c-0.019-0.578-0.202-0.979-0.55-1.2
		c-0.033-0.167-0.083-0.283-0.15-0.35v0.1c-0.033,0.034-0.083,0.067-0.15,0.1l-0.1-0.05l-1.85,0.6v-0.9
		c-0.133-0.233-0.25-0.333-0.35-0.3c-0.167,0.133-0.367,0.233-0.6,0.3c-0.367,0.133-0.883,0.267-1.55,0.4v-0.3
		c-0.033,0.1-0.1,0.2-0.2,0.3L10.5,31.5c-0.233,0.067-0.483,0.067-0.75,0c-0.133-0.033-0.2-0.133-0.2-0.3
		c-0.2-0.034-0.35-0.034-0.45,0c-0.067,0.033-0.217,0.133-0.45,0.3L8.4,31.65l-1.1-0.3l0.15-0.75c0.233-0.033,0.933-0.1,2.1-0.2
		c0.867-0.066,1.567-0.2,2.1-0.4c-0.1,0.1-0.15,0.217-0.15,0.35c0.367,0.233,1.233,0.367,2.6,0.4c1.467,0.067,2.316-0.1,2.55-0.5
		c-0.033,0.267,0.167,0.4,0.6,0.4c0.367,0,0.683-0.066,0.95-0.2c0.133,0.1,0.216,0.267,0.25,0.5c0.066,0.233,0.183,0.4,0.35,0.5
		c0.434,0.2,0.983,0.2,1.65,0c0.733-0.2,1.117-0.534,1.15-1c0.367,0.5,0.816,0.5,1.35,0c0.5-0.5,0.75-1,0.75-1.5
		c0.533,0.466,1.05,0.617,1.55,0.45c0.233-0.066,0.367-0.117,0.4-0.15c0-0.033,0.033-0.167,0.1-0.4c0.033-0.167,0.067-0.467,0.1-0.9
		c0-0.5-0.033-0.8-0.1-0.9c-0.1-0.1-0.8-0.117-2.1-0.05c-1.066,0-1.566-0.333-1.5-1c-0.566,0.033-1,0.033-1.3,0
		c-0.533-0.033-0.934-0.167-1.2-0.4l-0.15-0.15c-0.6,0.167-1.133,0.2-1.6,0.1c-0.033-0.3-0.35-0.466-0.95-0.5
		c-0.667,0-1.1-0.017-1.3-0.05c-0.066-0.233-0.05-0.433,0.05-0.6h-1.1c-0.267,0.033-0.567,0.233-0.9,0.6
		c-0.333,0.333-0.667,0.533-1,0.6c-0.333,0.033-0.733-0.083-1.2-0.35c0.033-0.133-0.033-0.25-0.2-0.35l-0.35,0.05h-0.1V24.7
		c0.8-0.2,1.5-0.633,2.1-1.3c-0.034,0.267,0.15,0.4,0.55,0.4c0.367,0.034,0.633-0.033,0.8-0.2c0.267-0.233,0.517-0.833,0.75-1.8
		l-0.55-0.15l0.15-0.3c0.1-0.5-0.2-0.967-0.9-1.4l2.5,1.1c-0.2,0.034-0.317,0.3-0.35,0.8c-0.066,0.433-0.05,0.733,0.05,0.9
		c0.2,0.267,0.716,0.4,1.55,0.4c0.7,0,1.267-0.083,1.7-0.25c0,0.567,0.083,0.934,0.25,1.1c0.167,0.167,0.517,0.25,1.05,0.25
		s0.833,0.067,0.9,0.2c-0.066,0.133-0.217,0.25-0.45,0.35l-0.1,0.1c-1.033,0-1.733-0.1-2.1-0.3c-0.233-0.133-0.383-0.25-0.45-0.35
		c-0.033-0.1-0.033-0.267,0-0.5l-0.4,0.15c0,0.533,0.117,0.883,0.35,1.05c0.2,0.133,0.617,0.233,1.25,0.3L20,25.3h0.85
		c0.1,0,0.383-0.066,0.85-0.2c0.367-0.1,0.617-0.117,0.75-0.05c0.033,0,0.066,0.1,0.1,0.3c0.034,0.167,0.083,0.283,0.15,0.35
		c0.1,0.066,0.283,0.083,0.55,0.05c0.2,0,0.55-0.117,1.05-0.35c0.467-0.233,0.784-0.316,0.95-0.25L25.1,25z M14.45,21.7
		c0.066,0.533,0.017,0.85-0.15,0.95c-0.1,0.067-0.35,0.067-0.75,0c0.1-0.066,0.133-0.183,0.1-0.35c-0.066-0.133-0.033-0.267,0.1-0.4
		c0.1-0.1,0.233-0.15,0.4-0.15C14.317,21.75,14.417,21.733,14.45,21.7z M24.35,25.05c-0.567,0.133-0.967,0.067-1.2-0.2
		c-0.1-0.067-0.183-0.233-0.25-0.5C23.2,24.75,23.683,24.983,24.35,25.05z M45.25,7.85H45.2C45.167,7.917,45.134,8,45.1,8.1
		c-0.033,0.033-0.083,0.083-0.149,0.15c-0.101-0.167-0.233-0.267-0.4-0.3l0.8-1.25L45.3,7.4h-0.2l0.2,0.1
		C45.267,7.633,45.25,7.75,45.25,7.85z M43.55,11.75c0-0.033-0.149-0.4-0.45-1.1c0.301-0.033,0.767-0.05,1.4-0.05
		c0.066-0.167,0.05-0.333-0.05-0.5c-0.334-0.333-0.533-0.567-0.601-0.7c0.267-0.033,0.684-0.066,1.25-0.1
		c0.101-0.233,0.084-0.517-0.05-0.85V8.4l2,0.25c0.101,0.167,0.15,0.3,0.15,0.4c0.1,0.467-0.233,0.767-1,0.9
		c-0.134,0.033-0.717,0.083-1.75,0.15c1.3,0,1.934,0.283,1.899,0.85c0,0.267-0.116,0.45-0.35,0.55h-0.1v0.1
		c-0.267,0.133-0.667,0.2-1.2,0.2C44.134,11.767,43.75,11.75,43.55,11.75z M45.9,11.95c0,0.867-0.034,1.367-0.101,1.5
		c-0.1,0.033-0.233,0.133-0.399,0.3h-0.45c0.333-0.733,0.5-1.4,0.5-2L45.9,11.95z M38.65,26.85l-0.45-0.1l0.55-0.05L38.65,26.85z
		 M41.9,14.15c0.066,0.867-1.184,1.184-3.75,0.95v-0.9c0.433,0.233,1.066,0.35,1.899,0.35C40.917,14.55,41.533,14.417,41.9,14.15z
		 M39.95,16c-0.101,1.1-0.4,1.667-0.9,1.7c-0.3,0.033-0.533-0.067-0.7-0.3c-0.166-0.3-0.316-0.533-0.449-0.7
		c-0.134,0.3-0.317,0.533-0.551,0.7c-0.267,0.167-0.55,0.167-0.85,0c-0.134-0.1-0.217-0.25-0.25-0.45
		c-0.066-0.233-0.116-0.383-0.15-0.45c-0.199,0.133-0.449,0.217-0.75,0.25c-0.366,0.033-0.6-0.033-0.699-0.2
		C34.616,16.517,34.6,16.2,34.6,15.6c0.034,0.133,0.184,0.233,0.45,0.3c0.233,0.033,0.434,0.017,0.601-0.05
		c0.267-0.167,0.366-0.434,0.3-0.8c0.333,0.434,1.066,0.55,2.2,0.35v-0.1C38.55,15.667,39.15,15.9,39.95,16z"/>
	<path style="fill-rule:evenodd;clip-rule:evenodd;fill:#585D3B;" d="M48.35,11.7l1.101-0.2h0.1l-1.05,0.45l-0.2,0.15L48.35,11.7z
		 M44.85,14l0.101-0.25h0.45L44.85,14z M40.05,16c0.233,0.233,0.667,0.35,1.3,0.35l-0.1,0.2c0.967,0.133,1.767,0.05,2.4-0.25
		c-0.7,0.633-1.134,1.034-1.301,1.2c-0.466,0.567-0.616,1.1-0.449,1.6c0.366,0.066,0.8,0.033,1.3-0.1
		c0.366-0.133,0.666-0.283,0.899-0.45c-0.166,0.167-0.416,0.45-0.75,0.85c-0.033,0.067-0.25,0.417-0.649,1.05
		c-0.367,0.633-0.517,1.017-0.45,1.15c0.267,0.333,0.866,0.383,1.8,0.15c0.601-0.033,1.05-0.333,1.351-0.9
		c0.066-0.3,0.216-0.5,0.449-0.6c0,1.1,0.483,1.733,1.45,1.9c0.7,0.2,1.184,0.117,1.45-0.25c0.033-0.033,0.083-0.25,0.15-0.65
		c0.033-0.3,0.116-0.467,0.25-0.5c0.199,0.167,0.533,0.283,1,0.35c0.5,0.1,0.85,0.066,1.05-0.1c0.267-0.2,0.333-0.5,0.2-0.9
		c-0.167-0.4-0.4-0.633-0.7-0.7l1.399-0.05c0.167-0.667-0.183-1.267-1.05-1.8c1.367,0.4,2.184,0.45,2.45,0.15
		c0.333-0.367,0.167-0.767-0.5-1.2c-0.8-0.4-1.283-0.667-1.45-0.8c1.634,0.1,2.184-0.284,1.65-1.15c-0.2-0.2-0.417-0.35-0.65-0.45
		c-0.133-0.133-0.2-0.3-0.2-0.5c-0.566-0.767-0.866-1.233-0.899-1.4c0.434-0.367,1.217-0.6,2.35-0.7l0.65-0.05L54.6,11.8
		c0.101,0,0.2,0,0.301,0L54.8,11.85c-0.767,1.066-1.033,1.883-0.8,2.45c0.066,0.133,0.217,0.284,0.45,0.45
		c0.066,0.133,0.083,0.333,0.05,0.6c0,0.133-0.017,0.333-0.05,0.6c0.267,0.1,0.767,0.233,1.5,0.4c0.666,0.233,1.017,0.533,1.05,0.9
		c0.066,0.267-0.05,0.483-0.35,0.65c-0.301,0.133-0.45,0.283-0.45,0.45c0.2,0.133,0.533,0.283,1,0.45c0.366,0.167,0.6,0.4,0.7,0.7
		c0.066,0.167,0.05,0.55-0.051,1.15c-0.133,0-0.6-0.033-1.399-0.1c-0.667-0.066-1.117-0.05-1.351,0.05
		c0.334,0.167,0.634,0.417,0.9,0.75c0.3,0.367,0.333,0.7,0.1,1c-0.233,0.3-0.699,0.316-1.399,0.05c-0.733-0.3-1.2-0.483-1.4-0.55
		c-0.033,0.1-0.033,0.433,0,1c0,0.4-0.1,0.667-0.3,0.8c-0.2,0.1-0.566,0.05-1.1-0.15c-0.5-0.2-0.834-0.233-1-0.1
		c-0.067,0.067-0.101,0.25-0.101,0.55c0,0.2-0.133,0.333-0.399,0.4c-0.434,0.066-0.851-0.067-1.25-0.4
		c0.399,0.533,0.533,1.167,0.399,1.9c-0.7,0.066-1.184-0.033-1.45-0.3c-0.066,0.3-0.416,0.434-1.05,0.4
		c-0.467,0-0.916-0.067-1.35-0.2c-0.667-0.2-1-0.583-1-1.15c-0.066,0.267-0.2,0.5-0.4,0.7c-0.267,0.233-0.6,0.284-1,0.15
		c-0.3-0.067-0.467-0.133-0.5-0.2s-0.05-0.267-0.05-0.6c-0.467,0.167-1,0.267-1.6,0.3c-0.767,0.033-1.284-0.083-1.551-0.35
		c0.167-0.367,0.467-0.65,0.9-0.85c0.233-0.133,0.583-0.267,1.05-0.4c-0.899,0.233-2,0.217-3.3-0.05
		c-0.467-0.1-0.833-0.316-1.1-0.65c-0.267-0.3-0.384-0.667-0.351-1.1l-0.25,0.55c-0.1,0.133-0.267,0.25-0.5,0.35
		c-0.133,0.066-0.366,0.1-0.7,0.1c-0.366,0-0.616-0.033-0.75-0.1c-0.267-0.133-0.416-0.367-0.449-0.7c0.033-0.4,0.033-0.7,0-0.9
		c-0.434,0.833-0.884,1.1-1.351,0.8c-0.167-0.133-0.2-0.433-0.1-0.9c0.133-0.5,0.2-0.833,0.2-1c-0.233-0.067-0.667-0.1-1.3-0.1
		c-0.567,0-1-0.066-1.3-0.2c0.2-0.3,0.35-0.534,0.45-0.7c-0.3-0.167-0.733-0.283-1.3-0.35c-0.8-0.1-1.25-0.167-1.35-0.2
		c1.667,2,1.95,2.95,0.85,2.85c0.767,0.133,1.083,0.517,0.95,1.15c-0.066,0.3-0.283,0.45-0.65,0.45
		c-0.467-0.033-0.817-0.05-1.05-0.05c-0.067,0.2-0.05,0.517,0.05,0.95c0.133,0.434,0.183,0.733,0.15,0.9h-0.1l-0.8-0.5l-0.2,0.5
		l-0.55-0.05l-1.45-0.35c-0.133,0.1-0.2,0.233-0.2,0.4c0,0.1,0.017,0.25,0.05,0.45V25H25.1l-0.05-0.05
		c-0.066-0.067-0.133-0.217-0.2-0.45c0.066,0.3-0.1,0.483-0.5,0.55c-0.667-0.066-1.15-0.3-1.45-0.7l-0.1-0.3v0.05l-0.05-0.35
		l0.05,0.4c-0.133,0.267-0.466,0.483-1,0.65h-0.85c0.233-0.1,0.383-0.216,0.45-0.35c-0.066-0.133-0.367-0.2-0.9-0.2
		s-0.883-0.083-1.05-0.25c-0.167-0.167-0.25-0.533-0.25-1.1c-0.434,0.167-1,0.25-1.7,0.25c-0.833,0-1.35-0.133-1.55-0.4
		c-0.1-0.167-0.117-0.467-0.05-0.9c0.033-0.5,0.15-0.767,0.35-0.8l-2.5-1.1c0.7,0.433,1,0.9,0.9,1.4l-0.15,0.3h-0.05v0.05
		c-0.034,0.033-0.133,0.05-0.3,0.05c-0.167,0-0.3,0.05-0.4,0.15c-0.133,0.133-0.167,0.267-0.1,0.4c0.033,0.167,0,0.284-0.1,0.35
		c-0.333,0-0.533,0.017-0.6,0.05L12.6,23c-1.133,0.067-1.783-0.217-1.95-0.85L10.6,22.6c-0.8,0.066-1.317,0.066-1.55,0
		c-0.167-0.033-0.35-0.133-0.55-0.3c-0.233-0.133-0.4-0.216-0.5-0.25c-0.033,0.534-0.333,0.867-0.9,1
		c-0.367,0.1-0.917,0.15-1.65,0.15c-0.4,0-0.934-0.034-1.6-0.1c-0.133,0.033-0.25,0.167-0.35,0.4c-0.133,0.3-0.25,0.483-0.35,0.55
		c-0.2,0.133-0.467,0.233-0.8,0.3C1.283,24.183,0.5,23.967,0,23.7l0.55-0.2H0.3c0-0.867,0.583-1.367,1.75-1.5
		c0.167-0.033,1.133-0.017,2.9,0.05c-0.133-0.066-0.267-0.133-0.4-0.2C4.017,21.483,3.8,21.067,3.9,20.6l0.5,0.05
		c-0.533,0.5-0.15,0.817,1.15,0.95c1.167,0.133,1.817-0.117,1.95-0.75c0,0.2,0.133,0.367,0.4,0.5c0.367,0.167,0.7,0.183,1,0.05
		c0.267-0.133,0.4-0.383,0.4-0.75c0.3,0.7,0.6,1.033,0.9,1c0.167-0.033,0.283-0.15,0.35-0.35c0.034-0.233,0.1-0.383,0.2-0.45
		c0.1,0.2,0.267,0.35,0.5,0.45c0.267,0.133,0.5,0.15,0.7,0.05c0.167-0.067,0.3-0.2,0.4-0.4c0.066-0.133,0.25-0.233,0.55-0.3
		c0.233-0.033,0.434-0.083,0.6-0.15c0.067-0.033,0.083-0.25,0.05-0.65c-0.1-0.7-0.15-1.083-0.15-1.15
		c0.167,0.3,0.483,0.45,0.95,0.45S15.1,19,15.2,18.7c0.033,0.4,0.083,0.667,0.15,0.8c0.133,0.2,0.383,0.217,0.75,0.05v0.8
		c-0.033,0.3,0.066,0.517,0.3,0.65c0.4,0.233,0.767,0.2,1.1-0.1c0.233-0.233,0.367-0.483,0.4-0.75c0.033,0.7,0.383,1.117,1.05,1.25
		c1.033,0.133,1.4-0.45,1.1-1.75c0.133,0.3,0.434,0.55,0.9,0.75c0.433,0.2,0.833,0.283,1.2,0.25c0.133-0.667,0.15-1.316,0.05-1.95
		c0.033,0.033,0.066,0.066,0.1,0.1c0.167,0.133,0.317,0.133,0.45,0c0.133-0.1,0.15-0.35,0.05-0.75
		c-0.066-0.367-0.167-0.617-0.3-0.75c0.3,0.233,0.783,0.317,1.45,0.25c-0.034-0.5-0.034-0.867,0-1.1c0.566,0,0.6-0.483,0.1-1.45
		c-0.633-1.1-1-1.783-1.1-2.05V12.9c1,0.4,1.633,0.9,1.9,1.5c0-0.033,0-0.066,0-0.1c-0.033-0.066-0.05-0.15-0.05-0.25
		c0-0.167,0.017-0.35,0.05-0.55c0.033-0.133,0.083-0.25,0.15-0.35c0.033-0.066,0.083-0.133,0.15-0.2l0.05-0.05l0.05-0.1
		c0.133-0.433,0.133-0.867,0-1.3c-0.233-0.5-0.417-0.917-0.55-1.25C24.467,9.783,24.333,9.367,24.3,9h0.05l0.8-0.35
		c-0.233,0.8-0.233,1.267,0,1.4c0.167,0.133,0.417,0.15,0.75,0.05c0.167-0.067,0.4-0.167,0.7-0.3c0,0.1-0.05,0.5-0.15,1.2
		c-0.1,0.5-0.067,0.883,0.1,1.15c0.8,0.2,1.717-0.033,2.75-0.7c0.034,0.267,0,0.733-0.1,1.4c-0.034,0.633,0.05,1.083,0.25,1.35
		c0.466,0,0.917-0.133,1.35-0.4l0.55-0.55c0.267-0.233,0.5-0.317,0.7-0.25c0.067,0.2,0.067,0.55,0,1.05
		c0.034,0.333,0.267,0.417,0.7,0.25l0.85-0.85c0.367-0.4,0.65-0.4,0.85,0c0.066,0.133,0.1,0.383,0.1,0.75
		c0,0.267,0.101,0.45,0.3,0.55c0.434,0.267,0.817,0.183,1.15-0.25c0.3-0.533,0.517-0.917,0.65-1.15c0.066,0.167,0.166,0.267,0.3,0.3
		c0.066,0.033,0.2,0.067,0.399,0.1c0.4,0.1,0.717,0.067,0.95-0.1c0.167-0.1,0.367-0.333,0.601-0.7l1.149,0.2
		c0.5,0.1,0.867,0.067,1.101-0.1c0.399-0.333,0.449-1.033,0.149-2.1c0.233-0.067,0.351-0.5,0.351-1.3c0.033-0.7,0-1.217-0.101-1.55
		C41.283,7.6,41.1,7.217,41,6.95c-0.066-0.133-0.083-0.233-0.05-0.3c0.033-0.066-0.101-0.217-0.4-0.45
		c-0.233-0.167-0.616-0.3-1.149-0.4c-0.667-0.1-1.067-0.183-1.2-0.25c0.1-0.066,0.366-0.133,0.8-0.2c0.3-0.033,0.467-0.2,0.5-0.5
		c0.066-0.367-0.134-0.633-0.6-0.8c-0.601-0.1-1-0.2-1.2-0.3c0.866-0.433,1.267-0.9,1.2-1.4L40.1,2.3c0.134,0.3,0.267,0.6,0.4,0.9
		l3.05,1.5c0.5-0.1,0.884,0,1.15,0.3c0.2,0.267,0.267,0.583,0.2,0.95c0.033-0.1,0.133-0.2,0.3-0.3c0.066,0.3,0.116,0.583,0.149,0.85
		c0,0.067,0,0.133,0,0.2l-0.8,1.25c0.167,0.033,0.3,0.133,0.4,0.3L44.85,8.4h0.2v0.05c0.134,0.333,0.15,0.617,0.05,0.85
		c-0.566,0.034-0.983,0.067-1.25,0.1c0.067,0.133,0.267,0.367,0.601,0.7c0.1,0.167,0.116,0.333,0.05,0.5
		c-0.634,0-1.1,0.017-1.4,0.05c0.301,0.7,0.45,1.067,0.45,1.1L43.4,11.8l0.149,0.1l-0.05,0.3c-0.1,0.233-0.267,0.367-0.5,0.4
		c-0.267,0-0.483,0.017-0.65,0.05c-0.066,0.7-0.133,1.1-0.199,1.2L41.85,13.9V14l0.051,0.15c-0.367,0.267-0.983,0.4-1.851,0.4
		c-0.833,0-1.467-0.117-1.899-0.35v0.9l-0.2-0.05l0.2,0.25v0.1c-1.134,0.2-1.867,0.083-2.2-0.35c0.066,0.367-0.033,0.633-0.3,0.8
		c-0.167,0.066-0.367,0.083-0.601,0.05c-0.267-0.066-0.416-0.167-0.45-0.3c0,0.6,0.017,0.917,0.051,0.95
		c0.1,0.167,0.333,0.233,0.699,0.2c0.301-0.033,0.551-0.117,0.75-0.25c0.034,0.067,0.084,0.217,0.15,0.45
		c0.033,0.2,0.116,0.35,0.25,0.45c0.3,0.167,0.583,0.167,0.85,0c0.233-0.167,0.417-0.4,0.551-0.7c0.133,0.167,0.283,0.4,0.449,0.7
		c0.167,0.233,0.4,0.333,0.7,0.3c0.5-0.034,0.8-0.6,0.9-1.7H40.05z M45.9,11.95c0.666,0.367,1.183,0.566,1.55,0.6
		c-0.2,0.167-0.217,0.284-0.05,0.35L47.1,13.05c-0.5,0-0.933,0.133-1.3,0.4C45.866,13.317,45.9,12.817,45.9,11.95z M13.65,26.85
		c-0.3-0.267-0.717-0.434-1.25-0.5c0.067-0.067,0.133-0.133,0.2-0.2c0.2-0.233,0.45-0.45,0.75-0.65
		c-0.267,0.133-0.517,0.233-0.75,0.3l-0.4,0.05c-0.167,0-0.317-0.017-0.45-0.05l-0.1-0.05c-0.066-0.033-0.133-0.05-0.2-0.05
		c-0.027-0.027-0.052-0.043-0.075-0.05c-0.039-0.023-0.072-0.048-0.1-0.075L11.25,25.55c-0.1-0.066-0.183-0.133-0.25-0.2
		c-0.067-0.133-0.117-0.267-0.15-0.4h0.1l0.35-0.05c0.167,0.1,0.233,0.217,0.2,0.35c0.467,0.267,0.867,0.383,1.2,0.35
		c0.333-0.067,0.667-0.267,1-0.6c0.333-0.367,0.633-0.567,0.9-0.6h1.1c-0.1,0.167-0.117,0.367-0.05,0.6
		c0.2,0.033,0.633,0.05,1.3,0.05c0.6,0.034,0.917,0.2,0.95,0.5c0.467,0.1,1,0.067,1.6-0.1l0.15,0.15
		c0.267,0.233,0.667,0.367,1.2,0.4c0.3,0.033,0.733,0.033,1.3,0c-0.066,0.667,0.434,1,1.5,1c1.3-0.067,2-0.05,2.1,0.05
		c0.067,0.1,0.1,0.4,0.1,0.9c-0.033,0.433-0.067,0.733-0.1,0.9c-0.067,0.233-0.1,0.367-0.1,0.4c-0.033,0.033-0.167,0.083-0.4,0.15
		c-0.5,0.167-1.017,0.017-1.55-0.45c0,0.5-0.25,1-0.75,1.5c-0.534,0.5-0.983,0.5-1.35,0c-0.033,0.466-0.417,0.8-1.15,1
		c-0.667,0.2-1.217,0.2-1.65,0c-0.167-0.1-0.283-0.267-0.35-0.5c-0.034-0.233-0.117-0.4-0.25-0.5c-0.267,0.133-0.583,0.2-0.95,0.2
		c-0.433,0-0.633-0.133-0.6-0.4c-0.233,0.4-1.083,0.567-2.55,0.5c-1.367-0.033-2.233-0.167-2.6-0.4c0-0.133,0.05-0.25,0.15-0.35
		c-0.533,0.2-1.233,0.333-2.1,0.4c-1.167,0.1-1.867,0.167-2.1,0.2c0.066-0.167,0.267-0.383,0.6-0.65c-0.5-0.1-1.333-0.367-2.5-0.8
		c-0.633-0.1-1.083-0.217-1.35-0.35c-0.434-0.167-0.534-0.533-0.3-1.1l0.2-0.05l0.6-0.05c0.3,0.066,0.45,0.3,0.45,0.7
		c0.033-0.5,0.434-0.75,1.2-0.75c0.066,0,0.15,0,0.25,0l0.75,0.1c0.233,0.067,0.467,0.15,0.7,0.25c-0.233,0.3-0.316,0.6-0.25,0.9
		c0.567,0.067,0.983,0.05,1.25-0.05c0.233,0.333,0.583,0.5,1.05,0.5c0.233-0.033,0.617-0.083,1.15-0.15c0.2,0,0.617,0.066,1.25,0.2
		c0.533,0,0.8-0.2,0.8-0.6c0.2-0.034,0.6-0.017,1.2,0.05c0.533,0,0.783-0.167,0.75-0.5c1.433,0.267,1.817,0.033,1.15-0.7l-0.5-0.35
		c-0.533-0.133-0.95-0.2-1.25-0.2C14.05,26.933,13.717,26.883,13.65,26.85z M18.2,26.7l0.05-0.45l-0.15,0.4L18.2,26.7z M8.15,27.8
		c0.067-0.133,0.1-0.25,0.1-0.35l0.3-0.05C8.383,27.533,8.25,27.667,8.15,27.8z"/>
	<path style="fill-rule:evenodd;clip-rule:evenodd;fill:#848958;" d="M47.75,12.55l0.35-0.15c0.4-0.1,0.733-0.1,1,0
		c0.301,0.133,0.45,0.383,0.45,0.75c0,0.6-0.217,0.934-0.649,1c-0.101,0.033-0.584-0.017-1.45-0.15
		c0.166,0.133,0.75,0.517,1.75,1.15c0.866,0.7,1.133,1.233,0.8,1.6c-0.066,0.1-0.184,0.15-0.35,0.15
		c-0.167-0.033-0.301-0.083-0.4-0.15c0.033,0.5,0,0.85-0.1,1.05c-0.134,0.3-0.45,0.4-0.95,0.3c-0.3-0.033-0.467-0.083-0.5-0.15
		c-0.033-0.034-0.05-0.217-0.05-0.55c0-0.433,0.05-0.75,0.149-0.95c-0.2,0.333-0.566,0.633-1.1,0.9c-0.667,0.3-1.2,0.35-1.601,0.15
		c-0.333-0.167-0.466-0.367-0.399-0.6c0-0.066,0.116-0.316,0.35-0.75c-0.066-0.1-0.333-0.15-0.8-0.15
		c-0.066-0.233,0.116-0.5,0.55-0.8c0.4-0.267,0.834-0.467,1.3-0.6c-0.399,0.066-0.733,0.017-1-0.15c0.067-0.267,0.167-0.5,0.301-0.7
		c0.166-0.167,0.3-0.267,0.399-0.3c0.367-0.267,0.8-0.4,1.3-0.4h0.4l0.15-0.45L47.75,12.55z M35.45,3.35
		c0.366-0.1,0.733-0.15,1.1-0.15c0.4,0,0.667,0.05,0.8,0.15c0.167,0.133,0.267,0.45,0.301,0.95c0.033,0.5-0.017,0.833-0.15,1
		c-0.1,0.133-0.35,0.233-0.75,0.3c0.233,0.066,0.366,0.233,0.4,0.5C37.217,6.567,37,6.867,36.5,7c-0.566,0.133-0.85,0.283-0.85,0.45
		c0.267,0.1,0.683,0.25,1.25,0.45c0.466,0.233,0.75,0.533,0.85,0.9v0.55c-0.6,0.133-1.35,0.1-2.25-0.1c0,0.167,0.05,0.5,0.15,1
		c0.066,0.4,0.066,0.717,0,0.95c-0.834,0.167-1.667,0.083-2.5-0.25c-0.9-0.367-1.3-0.917-1.2-1.65
		c-0.167,0.667-0.65,0.917-1.45,0.75c-0.067-0.167-0.067-0.433,0-0.8c-0.133,0.333-0.733,0.467-1.8,0.4
		c-1.067-0.1-1.517-0.433-1.35-1c0.533-0.066,1.333,0.033,2.4,0.3v-1.1l0.7-0.05c0.033-0.233,0.267-0.566,0.7-1
		c-0.267,0.1-0.5,0.067-0.7-0.1c-0.167-0.2-0.233-0.434-0.2-0.7c0.033-0.133,0.15-0.283,0.35-0.45c0.267-0.2,0.417-0.333,0.45-0.4
		c-0.1-0.066-0.133-0.15-0.1-0.25c0.033-0.1,0.033-0.2,0-0.3c-0.067-0.267-0.2-0.417-0.4-0.45C30.183,3.817,29.9,3.567,29.7,3.4
		c-0.3-0.367-0.333-0.683-0.1-0.95l0.15-0.55c0.367-0.533,0.7-0.5,1,0.1c0.067,0.1,0.233,0.567,0.5,1.4
		c0.633-0.9,1.117-1.316,1.45-1.25c0.2,0.033,0.35,0.2,0.45,0.5c0.067,0.167,0.15,0.4,0.25,0.7c0.067-0.434,0.3-0.9,0.7-1.4
		c0.5-0.633,0.917-0.75,1.25-0.35C35.483,1.8,35.517,2.383,35.45,3.35z M14.5,14.55V14.5c0.033,0.033,0.05,0.067,0.05,0.1
		c0.1,0.2,0.167,0.367,0.2,0.5l-0.05-0.75c0.367-0.3,0.867-0.5,1.5-0.6l-0.1-0.25c0.233-0.067,0.417-0.067,0.55,0
		c-0.2-0.2-0.333-0.533-0.4-1s-0.05-0.9,0.05-1.3c0.233-0.034,0.534,0.033,0.9,0.2l0.3,0.25l0.05,0.05l0.3,0.25l0.05-0.25h0.05
		c0.367,0.033,0.867,0.233,1.5,0.6s0.85,0.8,0.65,1.3c-0.067,0.233-0.133,0.367-0.2,0.4c0.633-0.033,1.05-0.033,1.25,0
		c0.434,0.067,0.684,0.267,0.75,0.6c0.067,0.533-0.217,0.8-0.85,0.8c-0.867,0-1.35,0.05-1.45,0.15c0.433,0.1,0.683,0.233,0.75,0.4
		c0.066,0.133,0.083,0.433,0.05,0.9c-0.2,0.167-0.517,0.217-0.95,0.15c-0.434-0.033-0.767-0.133-1-0.3
		c-0.034,0.167-0.083,0.517-0.15,1.05c-0.1,0.467-0.333,0.65-0.7,0.55c-0.333-0.066-0.5-0.367-0.5-0.9
		c0.066-0.633,0.066-1.05,0-1.25c-0.233,0.333-0.467,0.583-0.7,0.75c-0.367,0.233-0.617,0.167-0.75-0.2s0.067-0.883,0.6-1.55
		c-0.667,0.2-1.317,0.15-1.95-0.15C14.267,14.867,14.333,14.717,14.5,14.55z M8.4,17.7l0.9-0.25c1.2,0,2.133,0.083,2.8,0.25
		c0.467,0.433,0.617,0.8,0.45,1.1c-0.167,0.267-0.6,0.284-1.3,0.05c0.233,0.133,0.317,0.45,0.25,0.95
		c-0.933,0.067-1.483-0.15-1.65-0.65c0.1,0.5-0.333,0.767-1.3,0.8c-0.966,0.033-1.517-0.117-1.65-0.45
		c-0.133-0.367,0.033-0.633,0.5-0.8c-0.467-0.067-0.683-0.217-0.65-0.45c0-0.233,0.233-0.4,0.7-0.5
		C7.783,17.683,8.1,17.667,8.4,17.7z M13.65,26.85c0.367,0.3,0.55,0.7,0.55,1.2c-0.167,0.067-0.534,0.1-1.1,0.1
		c-0.6,0-1.05-0.066-1.35-0.2c-0.6,0.033-1.183-0.017-1.75-0.15c-0.667-0.133-0.917-0.316-0.75-0.55c0.2-0.267,0.667-0.4,1.4-0.4
		c0.367-0.033,0.85-0.033,1.45,0c0.066,0,0.117,0,0.15,0l-0.05-0.2l0.2-0.3C12.933,26.417,13.35,26.583,13.65,26.85z M12.45,27.3
		c0.1,0.167,0.15,0.333,0.15,0.5c0.066-0.2,0.183-0.316,0.35-0.35L12.45,27.3z"/>
	<path style="fill-rule:evenodd;clip-rule:evenodd;fill:#655A4C;" d="M46.5,29.7c0.134,0.167,0.384,0.233,0.75,0.2
		c0,0.033,0,0.067,0,0.1c0,0.2-0.017,0.4-0.05,0.6c-0.3,0-0.533-0.05-0.7-0.15c0-0.034,0-0.067,0-0.1
		C46.5,30.083,46.5,29.867,46.5,29.7z M54,28.95c-0.2,0.267-0.417,0.583-0.65,0.95c-0.6,0.967-1.267,1.567-2,1.8
		c-0.3,0.1-0.75,0.15-1.35,0.15c-0.634,0-1.1,0.033-1.4,0.1c-0.366,0.066-1,0.45-1.899,1.149c-0.334-0.066-0.834,0.267-1.5,1
		c-0.334,0.334-0.9,0.567-1.7,0.7c0.333-0.133,0.583-0.267,0.75-0.399c0.333-0.2,0.917-0.7,1.75-1.5
		c0.634-0.634,1.267-1.034,1.9-1.2c0.3-0.067,0.949-0.1,1.949-0.1h1.2c0.3-0.167,0.417-0.517,0.351-1.05
		c0.233-0.033,0.433-0.083,0.6-0.15c0.3-0.1,0.667-0.45,1.1-1.05C53.4,29.217,53.7,29.083,54,28.95z M35.2,27.95l-0.05,0.15
		L35.1,28.15l-0.1-0.4c-0.066-0.1-0.116-0.217-0.15-0.35L35,27.65c-0.066-0.167-0.05-0.4,0.05-0.7c0-0.034,0.017-0.067,0.05-0.1h0.2
		c0.167-0.033,0.334-0.067,0.5-0.1c0.233,0.4,0.533,0.95,0.9,1.65c0.133,0.4,0.233,1.117,0.3,2.15l0.4,2l0.05,0.9l-1.4,1.05
		c-0.133-1.267-0.166-2.3-0.1-3.1l0.1-0.5v-0.2l0.05-0.2c0.067,0.467,0.2,0.717,0.4,0.75c0.333-1.367,0.184-2.317-0.45-2.85
		C35.65,28.2,35.366,28.05,35.2,27.95z M40.35,47.8l0.25,0.65c0.167,0.7,0.267,1.399,0.301,2.1V49.2l0.1,0.5
		c0.1,0.434,0.116,1.116,0.05,2.05c0.434,0,0.75-0.017,0.95-0.05c0.1-0.334,0.1-0.584,0-0.75c-0.366-0.3-0.533-0.533-0.5-0.7
		c0.066-0.333,0.517-0.467,1.35-0.4c0.567,0.067,0.9,0.084,1,0.051c0.367-0.067,0.851-0.45,1.45-1.15c0.601-0.7,0.95-1.267,1.05-1.7
		c0.034,0.334,0.051,0.733,0.051,1.2v0.05l-0.351,0.3c-0.2,0.2-0.533,0.517-1,0.95c-0.399,0.367-0.783,0.601-1.149,0.7
		c0.333,0,0.683-0.15,1.05-0.45c0.033,0.334-0.2,0.617-0.7,0.851c-0.634,0.333-1.05,0.633-1.25,0.899c-0.6,0.733-1.2,1.134-1.8,1.2
		c-0.3,0.033-0.684,0.017-1.15-0.05c-0.7-0.101-1.1-0.15-1.2-0.15c-0.199,0-0.433,0.05-0.699,0.15c-0.034,0-0.067,0-0.101,0
		L37.6,52.35c-0.466-0.199-0.816-0.399-1.05-0.6l-0.2-0.25l0.051-0.55c0.533,0.366,0.899,0.517,1.1,0.45
		c0.066-0.267,0.083-0.467,0.05-0.601c0.634,0.566,1.017,0.9,1.15,1c0.566,0.367,1,0.4,1.3,0.101
		c0.267-0.267,0.384-0.717,0.35-1.351c-0.066-0.733-0.116-1.283-0.149-1.649C40.134,48.467,40.184,48.1,40.35,47.8z M44.05,44.95
		l-0.6,0.399c-0.367,0.2-0.717,0.334-1.05,0.4c0.166-0.1,0.449-0.3,0.85-0.6l0.65-0.5l0.55-0.5l0.3,0.149L44.05,44.95z M46.25,46.45
		l0.05,0.35c-0.267,0.167-0.616,0.467-1.05,0.9l-0.05-0.2l0.149-0.55c-0.767,0.733-1.533,1.166-2.3,1.3l-0.2,0.05
		c-0.366,0-0.633-0.033-0.8-0.1c0.134-0.233,0.367-0.483,0.7-0.75c0.333-0.3,0.583-0.533,0.75-0.7l0.5-0.5
		c0.066-0.066,0.217-0.333,0.45-0.8c0.467-0.134,0.833-0.2,1.1-0.2c0.033,0.366-0.166,0.783-0.6,1.25
		c-0.233,0.267-0.584,0.616-1.05,1.05c0.699-0.333,1.216-0.583,1.55-0.75L46.25,46.45z M28.4,35c0-0.066,0-0.134,0-0.2
		c0.033,0.2,0.083,0.351,0.15,0.45c0.067,0.1,0.267,0.283,0.6,0.55c0.5,0.3,1.017,0.45,1.55,0.45h1.15v0.05v0.05
		c-0.6,0.2-1.434,0.217-2.5,0.051c-0.434-0.034-0.717-0.167-0.85-0.4c-0.1-0.167-0.133-0.467-0.1-0.9V35z M34.05,38.4l-0.25,0.05
		L33.45,38.1c-0.467-0.333-1.184-0.5-2.15-0.5c-1.066,0-1.8-0.083-2.2-0.25c-0.2-0.066-0.417-0.216-0.65-0.449
		c-0.233-0.267-0.417-0.434-0.55-0.5l2.3,0.199c0.5,0.134,1.267,0.217,2.3,0.25h0.2c0.367,0.101,0.683,0.284,0.95,0.551
		c0.267,0.3,0.4,0.616,0.4,0.949V38.4z M36.6,39.45v0.05l0.2,0.55c0,0.033,0,0.066,0,0.101c-0.133,0.199-0.133,0.399,0,0.6
		c0.033,0.066,0.167,0.267,0.4,0.6c0.3,0.4,0.633,1.034,1,1.9c0.133,0.333,0.283,0.833,0.45,1.5l0.55,0.8L40.1,47.2
		c0,0.533-0.066,0.883-0.199,1.05c-0.233-0.1-0.417-0.333-0.551-0.7c-0.166-0.434-0.316-0.7-0.449-0.8l-0.051,0.7
		c0-0.434-0.116-0.834-0.35-1.2c-0.2-0.5-0.366-0.85-0.5-1.05c-0.066-0.101-0.35-0.316-0.85-0.65c-0.367-0.3-0.567-0.566-0.601-0.8
		c0.2,0.134,0.517,0.434,0.95,0.9c0.434,0.466,0.767,0.767,1,0.899c0-0.033-0.167-0.6-0.5-1.7c-0.267-0.699-0.583-1.216-0.95-1.55
		c-0.399-0.399-0.616-0.633-0.649-0.7c-0.134-0.199-0.2-0.5-0.2-0.899c0.066-0.434,0.083-0.75,0.05-0.95
		c-0.033-0.4-0.217-0.583-0.55-0.55l0.5-1c0,0.1,0.116,0.5,0.35,1.2L36.6,39.45z"/>
	<path style="fill-rule:evenodd;clip-rule:evenodd;fill:#786C5C;" d="M46,32.7l0.1-0.101c0.067-0.066,0.134-0.149,0.2-0.25
		l0.101-0.1c0.066-0.2,0.116-0.4,0.149-0.6c0-0.167-0.017-0.566-0.05-1.2c0.167,0.1,0.4,0.15,0.7,0.15l0.05,0.8
		c0.366,0.067,0.717,0.017,1.05-0.15c0.533-0.3,0.851-0.467,0.95-0.5c0.167-0.067,0.384-0.1,0.65-0.1c0.399-0.066,0.899-0.1,1.5-0.1
		c0.066,0.534-0.051,0.883-0.351,1.05h-1.2c-1,0-1.649,0.033-1.949,0.1c-0.634,0.167-1.267,0.566-1.9,1.2
		c-0.833,0.8-1.417,1.3-1.75,1.5c-0.167,0.133-0.417,0.267-0.75,0.399H43l0.25-0.05c0.434-0.134,0.967-0.45,1.6-0.95
		c0.467-0.333,0.834-0.666,1.101-1L46,32.7z M36.35,51.5c-0.033-0.1-0.066-0.316-0.1-0.65c0-0.133-0.017-0.267-0.05-0.399l0.2-0.05
		c0.3-0.067,0.449-0.167,0.449-0.301c-0.066-0.199-0.116-0.416-0.149-0.649c-0.066-0.634-0.05-1.2,0.05-1.7
		c0.134,0.1,0.483,0.767,1.05,2c0.434,1,0.967,1.45,1.601,1.35c0.366-0.066,0.533-0.35,0.5-0.85c-0.134-0.634-0.184-1.066-0.15-1.3
		c-0.233,0-0.3,0.25-0.2,0.75c-0.166-0.233-0.3-0.566-0.399-1c-0.101-0.5-0.184-0.867-0.25-1.101l-0.051-0.05
		c-0.166-0.467-0.716-1.267-1.649-2.399c-0.834-1-1.267-1.851-1.3-2.551c0.666,0.101,0.666-0.533,0-1.899
		c-0.634-1.367-0.851-2.351-0.65-2.95c0.134-0.4,0.533-1,1.2-1.8c0.8-0.9,1.366-1.217,1.7-0.95c-0.801,0.134-1.351,0.533-1.65,1.2
		c-0.2,0.399-0.3,1.033-0.3,1.899V38.2l-0.5,1c0.333-0.033,0.517,0.149,0.55,0.55c0.033,0.2,0.017,0.517-0.05,0.95
		c0,0.399,0.066,0.7,0.2,0.899c0.033,0.067,0.25,0.301,0.649,0.7c0.367,0.334,0.684,0.851,0.95,1.55c0.333,1.101,0.5,1.667,0.5,1.7
		c-0.233-0.133-0.566-0.434-1-0.899c-0.434-0.467-0.75-0.767-0.95-0.9c0.033,0.233,0.233,0.5,0.601,0.8
		c0.5,0.334,0.783,0.55,0.85,0.65c0.134,0.2,0.3,0.55,0.5,1.05c0.233,0.366,0.35,0.767,0.35,1.2l0.051-0.7
		c0.133,0.1,0.283,0.366,0.449,0.8c0.134,0.367,0.317,0.601,0.551,0.7c0.133-0.167,0.199-0.517,0.199-1.05l0.25,0.6
		c-0.166,0.3-0.216,0.667-0.149,1.101c0.033,0.366,0.083,0.916,0.149,1.649c0.034,0.634-0.083,1.084-0.35,1.351
		c-0.3,0.3-0.733,0.267-1.3-0.101c-0.134-0.1-0.517-0.434-1.15-1c0.033,0.134,0.017,0.334-0.05,0.601
		c-0.2,0.066-0.566-0.084-1.1-0.45L36.35,51.5z M44.45,45.45c-0.233,0.467-0.384,0.733-0.45,0.8l-0.5,0.5l0.4-0.65l-0.4,0.15
		c-0.066-0.1-0.1-0.283-0.1-0.55c-0.267,0.2-0.584,0.517-0.95,0.95c-0.367,0.433-0.601,0.767-0.7,1
		c-0.033-0.267,0.134-0.634,0.5-1.101s0.767-0.816,1.2-1.05l0.1-0.1L43.5,45.35h-0.05l0.6-0.399l-0.35,0.6h0.35L44.45,45.45z
		 M44.25,44.3l-0.95-0.2L43.4,43.9c0.3,0,0.649,0.083,1.05,0.25L44.25,44.3z M43.25,45.15l-0.65-0.7l-0.05-0.05L42.9,44.05L43,44.1
		l1.25,0.2L43.9,44.65L43.25,45.15z M46.3,46.8l0.05,0.25c-0.1,0.434-0.449,1-1.05,1.7c-0.6,0.7-1.083,1.083-1.45,1.15
		c-0.1,0.033-0.433,0.017-1-0.051c-0.833-0.066-1.283,0.067-1.35,0.4c-0.033,0.167,0.134,0.4,0.5,0.7c0.1,0.166,0.1,0.416,0,0.75
		c-0.2,0.033-0.517,0.05-0.95,0.05c0.066-0.934,0.05-1.616-0.05-2.05l-0.1-0.5V47.1c0.3,0.301,0.5,0.517,0.6,0.65
		c0.134,0.267,0.134,0.533,0,0.8l-0.05,0.15l0.25-0.25c0.133-0.367,0.25-0.634,0.35-0.8C42.184,47.283,42.4,47.1,42.7,47.1
		l0.05,0.351c-0.333,0.267-0.566,0.517-0.7,0.75c0.167,0.066,0.434,0.1,0.8,0.1v0.2l0.2-0.25c0.767-0.134,1.533-0.566,2.3-1.3
		L45.2,47.5l0.05,0.2C45.684,47.267,46.033,46.967,46.3,46.8z M44.55,48.4h-1c-0.1,0.133-0.416,0.3-0.95,0.5
		c-0.833,0.267-1.199,0.55-1.1,0.85c0.4,0,0.684-0.017,0.85-0.05c0.334-0.066,0.7-0.233,1.101-0.5L44.55,48.4z M35.4,28.65
		c-0.067-0.066-0.117-0.117-0.15-0.15l-0.15-0.35h0.051l0.05-0.2c0.166,0.1,0.45,0.25,0.85,0.45c0.634,0.533,0.783,1.483,0.45,2.85
		c-0.2-0.033-0.333-0.283-0.4-0.75l-0.05,0.2c-0.033-0.5-0.116-0.934-0.25-1.3l-0.1-0.15C35.634,29.017,35.533,28.817,35.4,28.65z
		 M34.85,27.4v-0.05l-0.05-0.1c-0.033-0.133-0.05-0.25-0.05-0.35c0.1-0.033,0.217-0.05,0.35-0.05c-0.033,0.033-0.05,0.066-0.05,0.1
		c-0.1,0.3-0.116,0.533-0.05,0.7L34.85,27.4z M28.4,34.8c0,0.066,0,0.134,0,0.2c-0.233-0.134-0.35-0.55-0.35-1.25L28,33l0.05,0.05
		c0.167,0.267,0.284,0.717,0.35,1.351c0,0.033,0,0.066,0,0.1v0.05C28.4,34.65,28.4,34.733,28.4,34.8z M27.9,36.4
		c-0.133-0.067-0.367-0.084-0.7-0.051c-0.367,0.034-0.6,0.051-0.7,0.051l-0.95-0.15c-0.8-0.1-1.383-0.517-1.75-1.25
		c0.434,0.533,1.034,0.833,1.8,0.9c0.433,0.033,1.133,0.033,2.1,0c0.3,0.033,0.75,0.216,1.35,0.55L27.9,36.4z M34.05,38.35
		c0-0.333-0.133-0.649-0.4-0.949c-0.267-0.267-0.583-0.45-0.95-0.551h-0.2c0.433-0.066,0.767-0.05,1,0.051
		C33.933,37.033,34.116,37.517,34.05,38.35z"/>
	<path style="fill-rule:evenodd;clip-rule:evenodd;fill:#867966;" d="M47.25,31.4l-0.05-0.8c0.033-0.2,0.05-0.4,0.05-0.6
		C47.283,30.367,47.283,30.833,47.25,31.4z M48.6,31.95c-0.333,0.1-0.733,0.316-1.199,0.649c-0.267,0.2-0.65,0.483-1.15,0.851
		L46.7,33.1C47.6,32.4,48.233,32.017,48.6,31.95z M38.15,35c-0.334-0.267-0.9,0.05-1.7,0.95c-0.667,0.8-1.066,1.399-1.2,1.8
		c-0.2,0.6,0.017,1.583,0.65,2.95c0.666,1.366,0.666,2,0,1.899c0.033,0.7,0.466,1.551,1.3,2.551
		c0.934,1.133,1.483,1.933,1.649,2.399L38.9,47.6c0.066,0.233,0.149,0.601,0.25,1.101c0.1,0.434,0.233,0.767,0.399,1
		c-0.1-0.5-0.033-0.75,0.2-0.75c-0.033,0.233,0.017,0.666,0.15,1.3c0.033,0.5-0.134,0.783-0.5,0.85
		c-0.634,0.101-1.167-0.35-1.601-1.35c-0.566-1.233-0.916-1.9-1.05-2c-0.1,0.5-0.116,1.066-0.05,1.7
		c0.033,0.233,0.083,0.45,0.149,0.649c0,0.134-0.149,0.233-0.449,0.301l-0.2,0.05c-0.233-1.2-0.4-2.101-0.5-2.7L36,49l0.2-0.4v-0.55
		c0-0.267,0.1-0.416,0.3-0.45c0.2,0,0.434,0.2,0.7,0.601c0.5,0.6,0.883,1.25,1.149,1.95c0.101-0.733-0.166-1.75-0.8-3.051
		c-0.133-0.3-0.35-0.583-0.649-0.85c-0.5-0.434-0.767-0.667-0.801-0.7c-0.233-0.267-0.416-0.633-0.55-1.1
		c-0.166-0.667-0.267-1.05-0.3-1.15l-0.2,0.15c0,0.033,0,0.083,0,0.149L35,43.25c-0.033-0.267-0.134-0.583-0.3-0.95
		c-0.2-0.434-0.316-0.733-0.351-0.899l0.45,1.1c0.066-1.533,0.101-2.667,0.101-3.4c-0.034-0.433,0.033-1,0.199-1.699
		c0.067-0.467,0.117-0.817,0.15-1.051c0.066-0.433,0.2-0.75,0.4-0.949c-0.667,0.333-1.084,0.767-1.25,1.3
		c0.066-0.267,0.199-0.533,0.399-0.8c0.233-0.434,0.384-0.7,0.45-0.801c0.3-0.566,0.467-1.283,0.5-2.149
		c-0.033-0.967-0.05-1.7-0.05-2.2l0.05,1l0.2-0.35c-0.066,0.8-0.033,1.833,0.1,3.1l1.4-1.05v0.2c0.934-0.134,1.666-0.117,2.2,0.05
		c-0.667-0.134-1.367-0.15-2.101-0.05l-0.6,0.25l-0.4,0.25c-0.333,0.3-0.616,0.6-0.85,0.899c0.434,0.101,1.017-0.033,1.75-0.399
		c0.8-0.467,1.366-0.717,1.7-0.75h1.35l-0.85-0.2c1.3,0.267,2,0.399,2.1,0.399c1.066,0.134,1.783,0.134,2.15,0
		c0.666-0.199,1.366-0.666,2.1-1.399l-0.05,0.1c-0.267,0.334-0.634,0.667-1.101,1c-0.633,0.5-1.166,0.816-1.6,0.95L43,34.8
		l-2.1-0.05c-0.534,0-1.301,0.066-2.301,0.2L38.15,35z M46.4,32.25c0.1-0.333,0.133-0.7,0.1-1.1c0-0.267,0-0.5,0-0.7
		c0.033,0.633,0.05,1.033,0.05,1.2C46.517,31.85,46.467,32.05,46.4,32.25z M36.25,50.85c0.033,0.334,0.066,0.551,0.1,0.65
		c-0.066-0.134-0.1-0.25-0.1-0.35C36.25,51.05,36.25,50.95,36.25,50.85z M43.25,45.15c-0.4,0.3-0.684,0.5-0.85,0.6
		c0.333-0.066,0.683-0.2,1.05-0.4h0.05l0.05,0.051l-0.1,0.1c-0.434,0.233-0.834,0.583-1.2,1.05s-0.533,0.834-0.5,1.101
		c0.1-0.233,0.333-0.567,0.7-1c0.366-0.434,0.684-0.75,0.95-0.95c0,0.267,0.033,0.45,0.1,0.55l0.4-0.15l-0.4,0.65
		c-0.167,0.167-0.417,0.4-0.75,0.7L42.7,47.1c-0.3,0-0.517,0.184-0.65,0.551c-0.1,0.166-0.217,0.433-0.35,0.8l-0.25,0.25l0.05-0.15
		c0.134-0.267,0.134-0.533,0-0.8c-0.1-0.134-0.3-0.35-0.6-0.65v-0.05H40.85c0.067-0.033,0.15-0.1,0.25-0.2
		c0.101-0.133,0.2-0.3,0.301-0.5c0.199-0.5,0.316-0.767,0.35-0.8c0.3-0.467,0.583-0.833,0.85-1.1L43.25,45.15z M43.4,43.9
		c0.633-0.067,1.233,0.166,1.8,0.699l-0.45-0.3l-0.3-0.149l-0.55,0.5l0.35-0.351L43,44.1C43.134,43.967,43.267,43.9,43.4,43.9z
		 M46.3,46.35c0,0.167,0.017,0.4,0.05,0.7L46.3,46.8l-0.05-0.35c-0.066-0.367-0.184-0.7-0.35-1c0.166,0.233,0.283,0.5,0.35,0.8
		C46.25,46.283,46.267,46.316,46.3,46.35z M44.25,44.3l0.2-0.149c-0.4-0.167-0.75-0.25-1.05-0.25L43.3,44.1L44.25,44.3z
		 M43.05,48.25l-0.2,0.25v-0.2L43.05,48.25z M45.95,49.8c0.267-0.467,0.416-0.967,0.45-1.5c0,0.434-0.067,0.8-0.2,1.101
		C46.134,49.5,46.05,49.634,45.95,49.8z M35.15,28.15V28.1l0.05-0.15L35.15,28.15z M31.85,36.3c1.033,0.033,1.816,0.134,2.35,0.3
		l0.2,0.101c0,0.066,0,0.333,0,0.8c0.033,0.333-0.017,0.583-0.15,0.75l-0.2,0.15V38.35c0.066-0.833-0.117-1.316-0.55-1.449
		c-0.233-0.101-0.567-0.117-1-0.051c-1.033-0.033-1.8-0.116-2.3-0.25L27.9,36.4l1.15,0.05c-0.6-0.334-1.05-0.517-1.35-0.55
		c-0.967,0.033-1.667,0.033-2.1,0c-0.767-0.067-1.367-0.367-1.8-0.9c-0.133-0.267-0.233-0.55-0.3-0.85
		c0.2-0.134,0.383-0.233,0.55-0.301c0,0.067,0.017,0.134,0.05,0.2c0.2,0.566,0.45,0.917,0.75,1.05c0.233,0.134,0.65,0.25,1.25,0.351
		c0.633,0.1,1.066,0.083,1.3-0.05c0.233-0.101,0.367-0.5,0.4-1.2c0-0.533-0.033-1.017-0.1-1.45c-0.067-0.3-0.117-0.55-0.15-0.75
		c0.133-0.267,0.25-0.55,0.35-0.85L28,31.2c0.1,0.033,0.217,0.066,0.35,0.1c0.066,0.333,0.1,0.717,0.1,1.15
		c0,0.467-0.017,1.116-0.05,1.95c-0.066-0.634-0.183-1.084-0.35-1.351L28,33l0.05,0.75c0,0.7,0.117,1.116,0.35,1.25v0.1
		c-0.033,0.434,0,0.733,0.1,0.9c0.133,0.233,0.417,0.366,0.85,0.4c1.066,0.166,1.9,0.149,2.5-0.051V36.3z"/>
	<path style="fill-rule:evenodd;clip-rule:evenodd;fill:#473E36;" d="M36.6,39.45l-0.05-0.05c-0.233-0.7-0.35-1.101-0.35-1.2V38.1
		c0-0.866,0.1-1.5,0.3-1.899c0.3-0.667,0.85-1.066,1.65-1.2l0.449-0.05c1-0.134,1.767-0.2,2.301-0.2L43,34.8h0.5
		c0.8-0.133,1.366-0.366,1.7-0.7c0.666-0.733,1.166-1.066,1.5-1l-0.45,0.351c-0.167,0.133-0.5,0.416-1,0.85
		c-0.4,0.4-0.733,0.667-1,0.8c-0.533,0.301-1.384,0.351-2.55,0.15c-0.867-0.2-1.816-0.217-2.851-0.05
		c-0.3,0.066-0.616,0.2-0.949,0.399c-0.2,0.134-0.483,0.317-0.851,0.551L36.7,36.9C36.434,37.667,36.4,38.517,36.6,39.45z
		 M42.35,52.95c-0.1,0.066-0.199,0.133-0.3,0.2l-0.1,0.05c-0.3,0.133-0.55,0.25-0.75,0.35c-0.267,0.134-0.533,0.2-0.8,0.2h-0.45
		c-0.134-0.033-0.283-0.083-0.45-0.15c-0.066-0.033-0.134-0.066-0.2-0.1c-0.267-0.134-0.684-0.4-1.25-0.8c0.033,0,0.066,0,0.101,0
		c0.267-0.101,0.5-0.15,0.699-0.15c0.101,0,0.5,0.05,1.2,0.15c0.467,0.066,0.851,0.083,1.15,0.05c0.6-0.066,1.2-0.467,1.8-1.2
		c0.2-0.267,0.616-0.566,1.25-0.899c0.5-0.233,0.733-0.517,0.7-0.851c-0.367,0.3-0.717,0.45-1.05,0.45
		c0.366-0.1,0.75-0.333,1.149-0.7c0.467-0.434,0.8-0.75,1-0.95l0.351-0.3c-0.034,0.533-0.184,1.033-0.45,1.5
		c-0.101,0.167-0.233,0.351-0.4,0.55c-0.133,0.167-0.267,0.467-0.399,0.9c-0.134,0.434-0.284,0.717-0.45,0.85
		c-0.2,0.134-0.5,0.25-0.9,0.351c-0.267,0.066-0.566,0.116-0.899,0.149L42.85,52.65c-0.033,0.033-0.066,0.05-0.1,0.05
		C42.616,52.8,42.483,52.884,42.35,52.95z M45.2,44.6l0.05,0.051c0.033,0.033,0.066,0.066,0.1,0.1l0.551,0.7
		c0.166,0.3,0.283,0.633,0.35,1l-0.8,0.35c-0.334,0.167-0.851,0.417-1.55,0.75c0.466-0.434,0.816-0.783,1.05-1.05
		c0.434-0.467,0.633-0.884,0.6-1.25c-0.267,0-0.633,0.066-1.1,0.2l-0.4,0.1H43.7l0.35-0.6l0.7-0.65L45.2,44.6z M40.9,49.2v1.35
		c-0.034-0.7-0.134-1.399-0.301-2.1l-0.25-0.65l-0.25-0.6L39.2,45.55l-0.55-0.8c-0.167-0.667-0.317-1.167-0.45-1.5
		c-0.367-0.866-0.7-1.5-1-1.9c-0.233-0.333-0.367-0.533-0.4-0.6c-0.133-0.2-0.133-0.4,0-0.6c0-0.034,0-0.067,0-0.101
		c0.101,0.334,0.233,0.65,0.4,0.95c0.033,0,0.05,0.017,0.05,0.05c0.733,1.101,1.434,2.384,2.1,3.851
		c0.101,0.166,0.267,0.633,0.5,1.399c0.267,0.634,0.601,0.884,1,0.75H40.9v0.05V49.2z"/>
	<path style="fill-rule:evenodd;clip-rule:evenodd;fill:#B3AA9E;" d="M46.7,50.3v-1.25c0-0.233-0.084-0.983-0.25-2.25
		c-0.033-0.2-0.084-0.35-0.15-0.45c-0.033-0.033-0.05-0.066-0.05-0.1c-0.066-0.3-0.184-0.566-0.35-0.8l-0.551-0.7
		c-0.033-0.233-0.033-0.467,0-0.7L46.1,37.9c0.167,0.5,0.217,1.199,0.15,2.1c-0.066,1.066-0.066,1.783,0,2.15
		c0.033,0.366,0.15,0.916,0.35,1.649c0.134,0.8,0.434,1.917,0.9,3.351c0.267,0.866,0.366,2.066,0.3,3.6
		c-0.066,2.3-0.1,3.55-0.1,3.75c-0.667-1.267-1-2.3-1-3.1V50.3z M46.2,51.4v0.149l-0.101,5.5c0,0.601-0.116,1.483-0.35,2.65
		c-0.033,0.333-0.033,0.85,0,1.55c0.033,0.667,0.017,1.167-0.05,1.5c-0.134-0.2-0.184-0.5-0.15-0.9
		c0.033-0.433,0.05-0.733,0.05-0.899l0.101-6.4L46.2,51.4z M44.05,52.85l0.05-0.05c0,0.066,0,0.134,0,0.2
		c-0.033,0.667,0,1.65,0.101,2.95v1.95c-0.3-0.601-0.467-1.4-0.5-2.4c0-1.134,0-1.95,0-2.45L44.05,52.85z M41.95,53.2l0.1-0.05
		c0.101-0.067,0.2-0.134,0.3-0.2C42.217,53.816,42.167,54.5,42.2,55C42.066,54.267,41.983,53.667,41.95,53.2z M45.2,41.1
		c-0.2-0.066-0.3-0.267-0.3-0.6c0.033-0.4,0.05-0.684,0.05-0.85L45.2,35.8c0,0.601,0.033,1.483,0.1,2.65
		C45.3,39.55,45.267,40.434,45.2,41.1z M42.1,41.15c0,0.767-0.05,1.316-0.149,1.649c-0.066,0.167-0.267,0.434-0.601,0.8
		c-0.333,0.334-0.5,0.634-0.5,0.9c-0.066-0.233,0.017-0.517,0.25-0.85c0.267-0.4,0.417-0.65,0.45-0.75
		c0.033-0.101,0.05-0.717,0.05-1.851l0.5-3.5V41.15z M43.95,43.65c0,0.033,0,0.066,0,0.1c-0.167,0.066-0.316,0.066-0.45,0
		c0-0.066,0-0.167,0-0.3c-0.033-0.267-0.05-0.65-0.05-1.15l-0.101-5.85c0.034,0.633,0.184,1.833,0.45,3.6
		C44,41.517,44.05,42.717,43.95,43.65z"/>
	<path style="fill-rule:evenodd;clip-rule:evenodd;fill:#635B52;" d="M44.1,53c0-0.066,0-0.134,0-0.2l-0.05,0.05
		c-0.1-0.133-0.184-0.267-0.25-0.399c-0.2,0.233-0.283,0.649-0.25,1.25c-0.166,0-0.399-0.351-0.7-1.05L42.9,52.6
		c0.333-0.033,0.633-0.083,0.899-0.149c0.4-0.101,0.7-0.217,0.9-0.351c0.166-0.133,0.316-0.416,0.45-0.85
		c0.133-0.434,0.267-0.733,0.399-0.9c0.167-0.199,0.3-0.383,0.4-0.55c0.1-0.166,0.184-0.3,0.25-0.399
		c0.133-0.301,0.2-0.667,0.2-1.101v-0.05c0-0.467-0.017-0.866-0.051-1.2c-0.033-0.3-0.05-0.533-0.05-0.7
		c0.066,0.101,0.117,0.25,0.15,0.45c0.166,1.267,0.25,2.017,0.25,2.25v1.25c-0.033,0.066-0.066,0.15-0.101,0.25
		c-0.066,0.134-0.083,0.483-0.05,1.05c0,0.467-0.066,0.767-0.2,0.9c-0.066-0.2-0.116-0.517-0.149-0.95V51.4
		c-0.033-0.4-0.084-0.684-0.15-0.851c-0.1,0.167-0.166,0.467-0.2,0.9c0,0.233-0.017,0.533-0.05,0.899
		c-0.133,1.267-0.2,2.233-0.2,2.9c-0.066,1.833-0.199,2.983-0.399,3.45C45.267,56.4,44.9,54.5,44.1,53z M45.2,44.6
		c-0.566-0.533-1.167-0.767-1.8-0.699c-0.134,0-0.267,0.066-0.4,0.199l-0.1-0.05L42.55,44.4l0.05,0.05
		c-0.267,0.267-0.55,0.633-0.85,1.1c-0.033,0.033-0.15,0.3-0.35,0.8c-0.101,0.2-0.2,0.367-0.301,0.5V45.8
		c0.034-0.133,0.4-0.649,1.101-1.55c0.533-0.634,0.833-1.033,0.899-1.2c0.063-0.125,0.097-0.408,0.101-0.85
		c0.01,0.549,0.11,0.965,0.3,1.25c0,0.133,0,0.233,0,0.3c0.134,0.066,0.283,0.066,0.45,0c0-0.033,0-0.066,0-0.1
		c0.066-0.034,0.149-0.084,0.25-0.15c0.233-0.134,0.35-0.533,0.35-1.2c-0.033-1.166-0.017-2.033,0.05-2.6
		c0.233,0.366,0.351,1.399,0.351,3.1c0.066,0.8,0.166,1.417,0.3,1.851L45.2,44.6z"/>
	<path style="fill-rule:evenodd;clip-rule:evenodd;fill:#93846F;" d="M39.65,33.7l0.85,0.2h-1.35c-0.334,0.033-0.9,0.283-1.7,0.75
		c-0.733,0.366-1.316,0.5-1.75,0.399c0.233-0.3,0.517-0.6,0.85-0.899l0.4-0.25l0.6-0.25C38.283,33.55,38.983,33.566,39.65,33.7z
		 M36.05,30.7v0.2l-0.1,0.5l-0.2,0.35l-0.05-1c0-0.033,0-0.067,0-0.1l-0.05-1.1c-0.034-0.167-0.067-0.316-0.101-0.45
		s-0.066-0.25-0.1-0.35c-0.033-0.033-0.05-0.067-0.05-0.1c0.133,0.167,0.233,0.367,0.3,0.6l0.1,0.15
		C35.934,29.767,36.017,30.2,36.05,30.7z M34.35,41.4c-0.1-0.267-0.149-1.034-0.149-2.301V39l-0.4-0.55l0.25-0.05l0.2-0.15
		c0.134-0.167,0.184-0.417,0.15-0.75c0-0.467,0-0.733,0-0.8c0.166-0.533,0.583-0.967,1.25-1.3c-0.2,0.199-0.334,0.517-0.4,0.949
		c-0.033,0.233-0.083,0.584-0.15,1.051C34.934,38.1,34.866,38.667,34.9,39.1c0,0.733-0.034,1.867-0.101,3.4L34.35,41.4z M35.7,47.75
		l-0.601-3.9c-0.033-0.1-0.05-0.183-0.05-0.25c0-0.066,0-0.116,0-0.149l0.2-0.15c0.033,0.101,0.134,0.483,0.3,1.15
		c0.134,0.467,0.316,0.833,0.55,1.1c0.034,0.033,0.301,0.267,0.801,0.7c0.3,0.267,0.517,0.55,0.649,0.85
		c0.634,1.301,0.9,2.317,0.8,3.051C38.083,49.45,37.7,48.8,37.2,48.2c-0.267-0.4-0.5-0.601-0.7-0.601c-0.2,0.034-0.3,0.184-0.3,0.45
		v0.55L36,49L35.7,47.75z M44.55,48.4l-1.1,0.8c-0.4,0.267-0.767,0.434-1.101,0.5c-0.166,0.033-0.449,0.05-0.85,0.05
		c-0.1-0.3,0.267-0.583,1.1-0.85c0.534-0.2,0.851-0.367,0.95-0.5H44.55z"/>
</g>
</svg>
