<?xml version="1.0" encoding="iso-8859-1"?>
<!-- Generator: Adobe Illustrator 15.1.0, SVG Export Plug-In . SVG Version: 6.00 Build 0)  -->
<!DOCTYPE svg PUBLIC "-//W3C//DTD SVG 1.1//EN" "http://www.w3.org/Graphics/SVG/1.1/DTD/svg11.dtd">
<svg version="1.1" id="Layer_1" xmlns="http://www.w3.org/2000/svg" xmlns:xlink="http://www.w3.org/1999/xlink" x="0px" y="0px"
	 width="436.05px" height="214.75px" viewBox="0 0 436.05 214.75" style="enable-background:new 0 0 436.05 214.75;"
	 xml:space="preserve">
<g>
	<path style="fill-rule:evenodd;clip-rule:evenodd;fill:#6C5D45;" d="M334.4,51.8c-0.767-0.9-1.634-2.017-2.601-3.35
		c-1.366-1.9-2.649-3.35-3.85-4.35c-1.4-2.667-2.25-5.5-2.55-8.5c-0.134,0-0.334,0.017-0.601,0.05c-3.833-2-8.133-4.167-12.899-6.5
		c-9.601-4.7-16.934-7.85-22-9.45c-0.733-0.633-1.551-1.15-2.45-1.55c4.6,1.267,10.033,3.017,16.3,5.25
		c11.667,4.167,17.634,6.25,17.9,6.25c3.533,0,5.783-0.6,6.75-1.8c0.1-0.167,0.533-1.633,1.3-4.4V23.4c1.633,0.8,3.7,2.317,6.2,4.55
		c2.866,2.566,4.833,4.917,5.899,7.05c0.3,7.9,0.033,13.017-0.8,15.35c-0.566,1.533-1.767,2.3-3.6,2.3
		C336.4,52.65,335.4,52.367,334.4,51.8z M361.15,66.95c1.8,1.233,3.083,2.167,3.85,2.8l2.05,1.75c1.967,1.733,3.634,3.917,5,6.55
		c1,1.867,1.967,4.3,2.9,7.3c0.066,2.833,0.133,4.7,0.2,5.6c0,0.2-0.217,0.6-0.65,1.2l-0.05-1.45l-1.55,2.8
		c-0.5,0.7-1.15,2.5-1.95,5.4c-0.101,0.2-0.566,0.8-1.4,1.8c-0.967,1.133-1.649,1.8-2.05,2c-2.333,0-4.316-0.667-5.95-2
		c-1.5-1.233-2.316-2.7-2.45-4.4c-0.033-0.2-0.05-0.383-0.05-0.55c0.033-2-0.2-3.883-0.7-5.65c-0.3-1.133-0.8-2.417-1.5-3.85
		l0.051,1.2c-0.034-0.034-0.7-0.717-2-2.05c-1.767-1.8-3.601-3.783-5.5-5.95L348.6,78.4c0.634,1.8,2.101,4.5,4.4,8.1
		c1.934,3.667,2.816,7.417,2.65,11.25c-0.101,1.833,1.833,5.217,5.8,10.15c3.467,4.333,6.633,7.716,9.5,10.15
		c4.733,4,11.983,12.566,21.75,25.7c9.333,12.5,14,19.5,14,21c0,5.134-2.033,8.967-6.101,11.5c-2.833,1.767-5.899,2.65-9.199,2.65
		c-6.367,0-11.784-2.284-16.25-6.851c-4.101-4.166-6.15-8.767-6.15-13.8c0-2.667,0.983-4.566,2.95-5.7
		c2.3-0.833,3.75-1.517,4.35-2.05c-1.066,1.233-2.2,2.467-3.399,3.7c-0.634,1.1-0.95,3.133-0.95,6.1c0,1.967,0.566,3.55,1.7,4.75
		c0.733,0.733,2.133,1.95,4.199,3.65c-0.233-0.8-0.466-2.45-0.699-4.95c-0.2-2.233-0.301-3.7-0.301-4.4
		c0-1.899,0.467-3.683,1.4-5.35c1.333-2.467,2.25-4.566,2.75-6.3c0.366-1,0.15-1.367-0.65-1.101c-0.733,0.267-1.5,0.834-2.3,1.7
		c0.033-0.166,0.05-0.399,0.05-0.7c0-2.333-4.316-4.866-12.949-7.6c-4.5-1.4-9.95-3.033-16.351-4.9
		c-1.3-0.633-2.283-1.983-2.95-4.05c-0.899-2.833-3.066-5.967-6.5-9.399c0-0.534-0.066-1.4-0.199-2.601
		c0.066,0.066,1.166,0.95,3.3,2.65c2.133,1.666,4.05,3.35,5.75,5.05c-0.033-2.366-1.017-7.717-2.95-16.05
		c-1.833-7.9-4-16.217-6.5-24.95l-0.6-1.15c-0.101,1.9-0.384,3.367-0.851,4.4c-0.366,2.3-0.517,8.017-0.45,17.15
		c-1-3.233-1.533-4.933-1.6-5.1l-0.05-5.3c0-10.633,1.184-18.767,3.55-24.4c2.134-5.1,5-7.65,8.6-7.65c1.4,0,3.983,0.55,7.75,1.65
		C358.866,66.417,360.884,66.95,361.15,66.95z M379.45,115.8c-0.066-0.666-0.101-1.333-0.101-2c0-0.767,0.15-1.316,0.45-1.649
		c0.334-0.334,0.867-0.5,1.601-0.5c7.866,0,13.267,2.017,16.199,6.05c1.634,2.267,3.017,5.75,4.15,10.45
		c0.7,1.6,2.017,2.666,3.95,3.199c1.133,0.334,3.033,0.65,5.7,0.95c5.033,0.934,7.949,4.417,8.75,10.45
		c-0.733,0.1-2.784,0.033-6.15-0.2h-1.5c2.6,2.3,5.634,3.434,9.1,3.4c1.334-0.033,2.367,0.166,3.101,0.6
		c1.066,0.634,2.1,1.934,3.1,3.9c-0.1,0.2-0.633,0.833-1.6,1.899c-0.9,1-1.434,1.567-1.601,1.7c-1.133,0.5-2.267,0.967-3.399,1.4
		c-2.2,0.8-3.934,1.2-5.2,1.2c-0.467,0-0.884-0.051-1.25-0.15c-0.566-0.467-1.167-0.884-1.8-1.25c-0.066-0.066-0.117-0.134-0.15-0.2
		c-0.1-0.166-0.649-1.5-1.649-4c-1.801-4.533-5.467-7.95-11-10.25c-3.567-1.5-7.434-4.3-11.601-8.399
		c-2.767-2.7-4.899-5.45-6.399-8.25C380.95,120.517,380.05,117.733,379.45,115.8z M230.95,125.5l1,4.9
		c-0.233,2.199,0.283,4.55,1.55,7.05c1.5,2.967,3.55,4.6,6.15,4.899c1.066,0.101,3.783,0.801,8.149,2.101
		c4.134,1.233,6.634,1.85,7.5,1.85c1.533,0,3.634-0.366,6.3-1.1c3.601-1,6.134-1.634,7.601-1.9c-0.834,3.167-3,5.017-6.5,5.55
		c-1.867,0.267-4.233,0.233-7.101-0.1c-0.466,0-1.233,0.083-2.3,0.25c-1,0.167-1.566,0.283-1.7,0.35l-0.149,0.15l1.45,0.8
		l-1.75,0.05l-0.9,0.45c2.5,2.233,5.9,3.517,10.2,3.851c4.566,0,8.399-1,11.5-3c2.166-1.434,4.3-3.65,6.399-6.65
		c2.667-3.8,4.317-6.033,4.95-6.7c2-2,4.367-3,7.101-3c0.733,0,4.449,2.667,11.149,8c7.467,5.3,13.483,7.95,18.05,7.95
		c4.067,0,7.767-1.566,11.101-4.7c1.5-1.566,2.55-2.649,3.149-3.25c1-0.967,1.834-1.45,2.5-1.45c6.434,0,11.15,1.667,14.15,5
		c2,2.267,3,4.867,3,7.801c0,3.533-1.384,5.8-4.15,6.8c-0.699,0.267-1.666,0.55-2.899,0.85c-0.867,0.334-1.3,0.816-1.3,1.45
		c0,0.2-0.367,1.3-1.101,3.3c-0.767,2-1.149,3.733-1.149,5.2c0,1.767,0.5,3.167,1.5,4.2c0.433,0.5,1.517,1.25,3.25,2.25
		c3.133,1.866,4.699,4.783,4.699,8.75c0,2.866-3.1,7.333-9.3,13.399c-3.3,3.233-7.583,7.051-12.85,11.45
		c-0.066,0.033-1.033,0.483-2.9,1.351c-2.7,0.833-6.35,1.183-10.95,1.05c-1.8-1.134-5.083-4.033-9.85-8.7
		c-4.866-4.733-7.3-7.434-7.3-8.1c0-1.167,0.467-2.117,1.399-2.851c1.334-0.767,2.351-1.383,3.051-1.85
		c2.8-1.934,3.916-5.4,3.35-10.4l1.8-4.2l-1.8-0.5l-0.1-1.199l-0.15,0.3c-0.066,0.3-0.283,0.5-0.65,0.6l-1.399-0.35
		c-0.9,0-1.667,0.25-2.3,0.75c-0.667,0.467-1,1.033-1,1.7c-0.4-2.067-0.601-3.434-0.601-4.101c0-1.566,0.617-2.95,1.851-4.149
		c1.233-1.2,1.85-2.983,1.85-5.351c0-2.033-2.384-5.866-7.15-11.5c-5.066-6-9.083-9-12.05-9c-0.033,0-4.083,3.934-12.149,11.8
		c-8.2,8.801-12.767,15.617-13.7,20.45l-0.25,0.45c-0.367-1.5-2.667-5.167-6.9-11c-4.333-6-6.6-9.283-6.8-9.85l1.6-0.051l-1.75-1.35
		c-0.866-2.767-3.216-5-7.05-6.7c-3.366-1.533-7-2.217-10.899-2.05c-0.167,0-0.334,0-0.5,0c-0.567,0-1.101,0.066-1.601,0.2
		l-0.55,0.399l-1.4,1.2c-0.433,0.267-2.449,1.684-6.05,4.25c-2.433,1.7-4,2.667-4.7,2.9l0.35,0.55l-0.35,0.9
		c0.133,0.633,0.316,1.166,0.55,1.6c0.4,1.134,0.867,2.983,1.4,5.55c0.534,2.533,0.8,4.117,0.8,4.75c0,4.267-2.1,7.967-6.3,11.101
		c-2.267,1.633-3.716,2.833-4.35,3.6c-1.333,1.533-2,3.333-2,5.4c0,2.8,0.3,5.25,0.9,7.35c0.833,2.967,2.183,4.717,4.05,5.25
		c-3.066-0.066-6.033-0.017-8.9,0.15c-3.675,0.43-7.133,0.93-10.375,1.5L189,203.7c2.467-1.367,4.183-3.367,5.15-6
		c0.4-1.066,1.15-4.5,2.25-10.3c0.567-2.967,2.9-5.617,7-7.95c1.9-1.101,3.2-2.05,3.9-2.851c1.167-1.267,1.75-2.866,1.75-4.8
		c-0.7-3.366-1.05-5.333-1.05-5.899c0-1.867,1.733-5.934,5.2-12.2c3.466-6.233,5.2-10.967,5.2-14.2c0-0.5-0.217-0.9-0.65-1.2
		c-1.167-0.733-2.483-1.666-3.95-2.8l0.25-0.95l-0.45,0.8c-1-0.833-6.867-6.3-17.6-16.399c0-1.367,0.983-3.084,2.95-5.15
		c1.966-2.033,2.95-4.149,2.95-6.35c0-0.9-0.167-2.117-0.5-3.65c-0.3-1.3-0.6-2.316-0.9-3.05l0.35-0.8l-0.45,0.4l-0.3-1.75
		c0.6-0.533,1.283-1.067,2.05-1.6c1.233,0.7,3.05,1.85,5.45,3.45c3.267,2,5.65,2.933,7.15,2.8c3.967-0.3,6.85,0.033,8.65,1
		c2.399,1.267,3.566,3.783,3.5,7.55l0.199,1.3l-0.05-1.899c0-2.267,0.3-5.684,0.9-10.25c0.666-5.1,1.316-8.083,1.95-8.95
		c-0.233,1.4-0.483,3.633-0.75,6.7c0.033,0.4,0.033,0.783,0,1.15c-0.067,0.767-0.233,1.517-0.5,2.25c-0.434,1.2-0.65,3.433-0.65,6.7
		c0,0.634,0.134,2,0.4,4.101c0.3,2.433,0.616,4.383,0.949,5.85c0,0.033,0.017,0.066,0.051,0.1c0.533,2.733,0.816,4.167,0.85,4.301
		C230.384,123.517,230.616,124.3,230.95,125.5z M279.7,208.35l-1.9-0.1l-0.649-0.05c-0.2-0.033-0.367-0.05-0.5-0.05
		c-1.267-0.034-8.233-1.367-20.9-4l-2.75-0.7c1.267-0.566,2.55-1.217,3.85-1.95c2.4,0,4.467-0.583,6.2-1.75
		c1.601-1.1,2.45-2.417,2.55-3.95v-0.3c0.301-0.8,0.534-1.6,0.7-2.4c0.101-0.1,0.684-1.05,1.75-2.85
		c0.967-1.7,1.584-2.783,1.851-3.25c2.166,1.167,5.35,1.9,9.55,2.2c4.267,0.1,6.85,0.166,7.75,0.2l2.6,1.1
		c4.167,7.033,6.25,11.4,6.25,13.1c0,1.034-0.6,1.584-1.8,1.65c-0.366,0-1.8-0.167-4.3-0.5c-4.867-0.634-8.351,0.333-10.45,2.9
		L279.7,208.35z M178.25,89.2v0.2c-0.333,1.3-1.333,3.65-3,7.05c-1.567,3.2-2.7,5.283-3.4,6.25l-0.95,2.7c-0.667,1.867-1,3-1,3.4
		c0,1.7,1.283,3,3.85,3.9c1.733,0.6,3.417,0.899,5.05,0.899c10.133-1.733,15.617-3.366,16.45-4.899c-0.933,3.066-3.933,4.934-9,5.6
		c-0.833,0.101-2.65,0.233-5.45,0.4c-1.767,0.1-2.816,0.3-3.15,0.6c-1.533,0-2.583-0.017-3.15-0.05
		c3.733,0.833,7.333,2.684,10.8,5.55c2.333,1.934,3.65,3.017,3.95,3.25c1.4,0.967,2.717,1.467,3.95,1.5
		c3.867,0.167,7.267,2.066,10.2,5.7c2.434,3,3.65,5.616,3.65,7.85c0,2-1.5,6.717-4.5,14.15c-3.066,7.733-4.667,12.116-4.8,13.15
		c-0.667,0.966-1.333,1.767-2,2.399c-0.333,0.434-0.467,1.217-0.4,2.351c-0.367,0.399-1.167,1.116-2.4,2.149
		c-0.333,0.267-0.467,0.684-0.4,1.25c0.6,5.9,0.9,11.017,0.9,15.351c0,5.3-0.7,8.85-2.1,10.649c-0.667,0.834-3.083,2.334-7.25,4.5
		l-11,2.4c-1.5,0.2-2.067,0.333-1.7,0.399c-1.1,0.233-6.267,0.867-15.5,1.9l0.05-0.05c0.933-0.601,3.017-1.601,6.25-3
		c3-1.3,5.367-2.566,7.1-3.8c5.6-4,9.117-10.534,10.55-19.601c0.633,0,1.167-0.35,1.6-1.05c0.433-0.733,0.65-1.6,0.65-2.6
		c0.433-0.934,0.65-1.767,0.65-2.5c0-0.467-0.15-1.267-0.45-2.4c-0.133-0.467-0.283-0.983-0.45-1.55
		c-0.6-1.967-1.15-3.517-1.65-4.65c-0.1-0.934-0.1-1.767,0-2.5c0.167-1.767,0.816-3.066,1.95-3.899c0.633-0.467,2.583-1.2,5.85-2.2
		c2.8-0.834,4.85-2.084,6.15-3.75c1.9-2.4,2.85-6.117,2.85-11.15c0-1.1-0.35-2.533-1.05-4.3c-0.467-1.134-1.3-2.917-2.5-5.35
		l-0.3-0.75c0.867,3.166,1.3,4.933,1.3,5.3c0,0.467-0.05,1-0.15,1.6c-0.233,1.167-0.6,2.101-1.1,2.8c0.8-4.199-0.534-7.033-4-8.5
		c-1.9-0.8-4.833-1.199-8.8-1.199c-0.867,0-1.816-0.334-2.85-1c-1.233-0.9-2.216-1.584-2.95-2.051c-2.767-1.733-5.9-2.149-9.4-1.25
		l-1.7,0.301c-1.333,0.3-2.567,0.6-3.7,0.899c2.7-1.733,4.583-2.883,5.65-3.45l1.45-0.699c-6.933,0.666-11.383,1.25-13.35,1.75
		c-3.7,0.899-6.283,2.517-7.75,4.85c-1.167,1.866-2.533,4.833-4.1,8.9c-1.467,3.1-3.217,4.649-5.25,4.649c-1.867,0-3.2-0.533-4-1.6
		c-0.5-0.667-0.75-1.434-0.75-2.3c0-0.967,0.117-1.75,0.35-2.351c0.434-0.767,0.8-1.6,1.1-2.5c1.367,0,2.55-1.116,3.55-3.35
		c0.533-1.3,0.933-2.733,1.2-4.3c0.633-0.567,0.95-0.934,0.95-1.101c0-0.7-0.233-1.633-0.7-2.8c0-2.233-0.983-4.134-2.95-5.7
		c-1.967-1.566-4.35-2.35-7.15-2.35c-6.066,1.666-10.983,4.566-14.75,8.7c-1.733,1.899-4.367,5.1-7.9,9.6
		c-1.333,1.667-2.783,3.517-4.35,5.55c-1.4,1.601-2.517,3.033-3.35,4.3c-0.6,0.867-1.05,1.65-1.35,2.351
		c-0.633,1.467-2.417,5.767-5.35,12.899c-2.3,5.134-4.567,8.167-6.8,9.101c-0.7,0.267-1.817,0.6-3.35,1c-1.533,0.5-3,1.283-4.4,2.35
		c2.367-2.733,4.4-5.166,6.1-7.3c3.267-4.134,4.9-7.733,4.9-10.8l-0.2-5.851c-0.067,0-0.133-0.583-0.2-1.75
		c0.034,1.134-0.233,2.601-0.8,4.4c-0.733,2.233-1.717,4-2.95,5.3c0.534-0.8,1.3-2.916,2.3-6.35c1-3.4,1.5-5.566,1.5-6.5l2.45-0.9
		L87.1,145.9v-1.851c7.533,1.2,13.816-1.616,18.85-8.45c5.066-6.833,6.816-14.85,5.25-24.05c0.3-0.6,0.55-1.2,0.75-1.8l0.2-1.65
		c0.267,1.467,0.233,4.801-0.1,10l3.8-5.6l0.25-0.75c-0.067,1.533,0.183,2.583,0.75,3.15c0.633,0.666,1.833,1,3.6,1
		c1.367,0,2.583-0.284,3.65-0.851c1.167-0.6,3.417-2.149,6.75-4.649c2.667,1.066,4.816,1.8,6.45,2.199
		c4.333,1.067,9.383,1.601,15.15,1.601c2.066,0,3.75-0.684,5.05-2.05c1.267-1.733,2.2-2.967,2.8-3.7
		c2.367-0.733,4.833-2.083,7.4-4.05c2.733-2.1,4.517-4.1,5.35-6l2.15-4L178.25,89.2z M120.1,190.7c-4.467,0.1-8.167,0.467-11.1,1.1
		c-1.767,0.367-4.817,1.033-9.15,2c1.967-3.033,4.95-7,8.95-11.899c3.067-3.767,4.934-5.983,5.6-6.65
		c-0.867,1.4-2.233,3.116-4.1,5.15c3.967-0.534,7.4-3.817,10.3-9.851c2.467-6.633,4.05-10.649,4.75-12.05
		c0.6,1.066,1.767,2.75,3.5,5.05c0.933,1.233,1.4,2.467,1.4,3.7c0,3.2-1.667,6.233-5,9.1c-1.3,1.101-2.4,3.634-3.3,7.601
		C121.017,188.116,120.4,190.366,120.1,190.7z M140.65,158c0.633-0.267,1.483-1.1,2.55-2.5c1.033-1.366,1.683-2.533,1.95-3.5
		c-0.367,1.634-0.633,4.033-0.8,7.2c-0.4,3.366-1.55,6.899-3.45,10.6l-2.05,1.8l-0.55,0.351c0.8-1.467,1.333-3.467,1.6-6
		C140.133,162.717,140.383,160.066,140.65,158z M30.05,190.3c4.867-0.066,9-0.366,12.4-0.899c6.4-1,10.633-2.983,12.7-5.95
		c1.033-0.134,2.6-0.917,4.7-2.351c2.033-1.399,3.7-2.166,5-2.3c0,4.101-2.233,7.601-6.7,10.5c-4.467,2.867-9.85,4.3-16.15,4.3
		c-0.6-0.066-4.6-1.166-12-3.3H30.05z M162.9,41.7l-0.3,0.1l-2.15,0.25c-0.9,0.1-1.534,0.05-1.9-0.15c0.867-0.133,1.75-0.2,2.65-0.2
		C162.033,41.733,162.6,41.733,162.9,41.7z M145.1,43.15c-3.934-1.9-7.917-2.9-11.95-3c-2.333-0.033-5.533,0.184-9.6,0.65
		c0.4-0.566,0.75-1.15,1.05-1.75c0.3-0.966,0.55-1.75,0.75-2.35c0.367-1.133,0.6-1.684,0.7-1.65c-0.133,1.434,0.133,2.483,0.8,3.15
		c0.467,0.5,1.1,0.75,1.9,0.75c1.967,0,3.867-0.2,5.7-0.6c1.833-0.434,3.5-0.65,5-0.65c0.5,0,2.417,0.6,5.75,1.8
		c3.733,1.367,8.183,2.3,13.35,2.8c-0.867,0.167-1.75,0.284-2.65,0.35l-0.65-0.05c6.167,1.2,10.85,1.417,14.05,0.65l-2.1,1.35
		c-1.067,0.2-1.784,0.433-2.15,0.7c-0.267,0.2-0.45,0.45-0.55,0.75l-0.2,0.1c-1.133,0.567-2.05,1.05-2.75,1.45l-1.05,0.45
		c-2.533,0.067-4.95-0.566-7.25-1.9C150.517,44.55,147.8,43.55,145.1,43.15z M305.8,32.8c0.066,3.133,0.017,5.333-0.149,6.6
		l-0.051,0.2c0,2.667-1.333,4.95-4,6.85c-2.666,1.9-5.883,2.85-9.649,2.85c2.934-2.8,5.7-5.767,8.3-8.9
		c3.467-4.233,5.184-7.117,5.15-8.65L305.8,32.8z M284.25,50.95c3.167,0.867,5.55,1.3,7.15,1.3c2.399-0.233,4.783-0.45,7.149-0.65
		c1.2,0.3,3.017,0,5.45-0.9c1.866-0.667,3.45-1.4,4.75-2.2c1.233,2.167,1.95,3.367,2.15,3.6c0.366,0.467,0.883,0.7,1.55,0.7
		c2.033,0,4.399-0.25,7.1-0.75s4.4-0.75,5.101-0.75l0.85,0.1c0,0.067,0.083,0.9,0.25,2.5c0,1.967-0.267,3.583-0.8,4.85
		c-0.533,1.3-0.8,2.367-0.8,3.2c0,1.466,0.583,3.05,1.75,4.75c1.466,2.133,2.633,5.966,3.5,11.5v0.35
		c-0.867,2.633-2.483,3.95-4.851,3.95c-14.033-6.333-22.6-10.783-25.7-13.35c-0.767-0.533-1.416-1-1.949-1.4
		c-0.067-0.2-0.117-0.367-0.15-0.5c-0.033,0.067-0.083,0.15-0.15,0.25c-0.366-0.3-0.666-0.567-0.899-0.8
		c-0.9-0.8-3.316-3.483-7.25-8.05c-1.867-2.133-5.233-3.883-10.101-5.25c-3.666-1-6.616-1.5-8.85-1.5c-2.8,0-8.3,1.85-16.5,5.55
		l-1,0.3c3.934,1.8,8.583,2.883,13.95,3.25c5.733,0.133,9.833,0.333,12.3,0.6c4.167,0.5,7.366,1.85,9.6,4.05
		c2.534,2.434,4.384,6.333,5.551,11.7c0.1,0.5,0.216,1.066,0.35,1.7l0.15,0.75c-2.967-5.4-4.483-8.15-4.551-8.25L290,71.6
		c-1.267-4.5-5.783-7.45-13.55-8.85c-3.867-0.7-10.167-1.05-18.9-1.05c-4.733,0-8.366,0.95-10.899,2.85
		c-1.101,0.833-4.134,4.133-9.101,9.9c-0.7,0.566-1.166,1-1.399,1.3c0.366-2.2,0.55-4.167,0.55-5.9l-0.05-1.65l-7.5,16.65
		l-0.301,0.45c0,3.034-2.05,5.617-6.149,7.75c-4.101,2.133-9.05,3.2-14.85,3.2c-0.367,0-1.533-0.05-3.5-0.15
		c-0.267,0-0.517,0-0.75,0c0.566-0.333,1.183-0.667,1.85-1c5.233-2.2,9.2-3.883,11.9-5.05c4.933-2.1,8.567-4.233,10.9-6.4
		c3.167-2.933,4.75-6.467,4.75-10.6c-1.634-16.8-3.2-27.133-4.7-31c-0.166-0.367-0.399-0.7-0.7-1
		c-0.366-0.267-0.833-0.55-1.399-0.85c-0.533-0.267-0.851-0.4-0.95-0.4c-1.467,0-2.833,0.333-4.1,1c-1,0.534-2.134,1.383-3.4,2.55
		l-7.05,4.9c-0.8,0.367-2.067,0.683-3.8,0.95c-1.566,0.2-3.117,0.3-4.65,0.3c-1.567,0-3.617-0.167-6.15-0.5
		c5.167-2.1,9.117-3.95,11.85-5.55c4.033-2.367,6.05-4.483,6.05-6.35c0-0.567-0.583-1.15-1.75-1.75c-1.2-0.6-2.35-0.9-3.45-0.9
		c-2.466,0-4.633,1.1-6.5,3.3c-1.867,2.167-3,3.25-3.4,3.25c-0.667,0-5.15-0.283-13.45-0.85c-1,0-2.367,0.067-4.1,0.2
		c-2.533,0.2-4.567,0.467-6.1,0.8c1.267-0.667,4.367-2.55,9.3-5.65c3.6-2.233,6.667-3.867,9.2-4.9c6.667,0.1,10.4,0.15,11.2,0.15
		c0.466,0,1.633-0.233,3.5-0.7l7.7,0.4c1.4-0.633,2.784-1.684,4.15-3.15c2.733-2.9,4.167-6.433,4.3-10.6l-6.1,1.35l5.2-8.15
		l-3.5,1.7c0.233-3.1,0.517-4.9,0.85-5.4c0.3-0.5,1.267-0.75,2.9-0.75c0.566,0,2.733,0.333,6.5,1c4.899,0.9,8.866,1.566,11.899,2
		c-0.767,0.767-1.8,1.7-3.1,2.8c-1.8,0-3.333,1.45-4.6,4.35c-1.267,2.867-1.9,6.333-1.9,10.4l0.3,0.9
		c0.101,0.2,0.917,2.15,2.45,5.85c-0.1,1.233-0.366,3.6-0.8,7.1c0,1,0.25,2.367,0.75,4.1c0.033,2.8,0.85,5.65,2.45,8.55
		c1.699,3.133,3.533,4.7,5.5,4.7c1.1,0,2.517-0.65,4.25-1.95c2.233-1.8,4.083-3.217,5.55-4.25c5.866-4.167,12.416-6.25,19.649-6.25
		c1.101,0,2.567,0.917,4.4,2.75C279.217,49.467,281.55,50.617,284.25,50.95z M279.45,133.55c0.533-2.166,0.883-3.816,1.05-4.95
		c0.366-2.566,0.55-6.033,0.55-10.399c0-2.566,0.134-4.334,0.4-5.3c0.7-1.834,1.467-3.9,2.3-6.2l0.7,4v0.3l1.2-3.05
		c0.399,4.033,0.616,6.483,0.649,7.35l0.101,0.101c0.066,0.166,0.133,0.433,0.199,0.8c1.2-2.4,2.667-5.816,4.4-10.25
		c1.667-4.267,2.533-6.45,2.6-6.55c2.167-1.566,3.334-2.417,3.5-2.55c2.634-1.4,4.483-4.333,5.551-8.8
		c0.466-1.966,0.949-3.3,1.449-4c0.834-1.1,2.101-1.65,3.801-1.65c9.433,0,16.316,6.5,20.649,19.5
		c2.233,6.633,3.767,13.984,4.601,22.05c-0.134,0.5-1.934,4.733-5.4,12.7c-0.7,0.199-2.517,1.083-5.45,2.649
		c-3.3,1.467-6.6,2.2-9.899,2.2c-2.767,0-5.667-1.55-8.7-4.65c-4.533-4.666-6.834-7.033-6.9-7.1c1.101,0.566,2.8,1.333,5.101,2.3
		c2.066,0.834,3.3,1.3,3.699,1.4c1.134-14.934,3.117-30.517,5.95-46.75c-4,0.633-6.399,1.883-7.2,3.75
		c-1.466,3.333-3.25,5.883-5.35,7.65c-3.167,2.633-4.833,4.1-5,4.4c-0.833,1.4-1.25,4.583-1.25,9.55l0.45,12.9
		c-2.267-0.467-4.367-0.184-6.3,0.85c0-0.066,0-0.149,0-0.25l-0.45,0.55c-1.533,0.9-2.7,2.15-3.5,3.75L279.45,133.55z M350.4,128.95
		l-2.2-2.2c0.066,0.767,0.267,1.316,0.6,1.65l0.95,0.399L350.4,128.95z M325.1,162.9l-0.3,0.1c-2.233,0.4-4.517,1.75-6.85,4.05
		c-2,1.934-3.417,3.834-4.25,5.7c-0.233,0.833-0.967,4.566-2.2,11.2c-1.267,6.967-1.9,10.967-1.9,12c0,0.233,0.084,0.467,0.25,0.7
		c0.301,0.399,0.667,1.366,1.101,2.899c2.233-2.066,4.233-3.95,6-5.649c3.366-3.301,5.684-6.434,6.95-9.4l-3.15-0.3
		c0.066-3.467,2.7-7.45,7.9-11.95c3.199-2.767,4.983-4.333,5.35-4.7c1.6-1.6,2.4-2.967,2.4-4.1c0-1.2-0.367-2.184-1.101-2.95
		c-0.666-0.7-1.383-1.05-2.149-1.05c-0.733,0-2.101,0.533-4.101,1.6C327.217,162.05,325.9,162.667,325.1,162.9z M276.5,15.8
		c1.767,0.233,3.833,0.617,6.2,1.15c-3.9-0.667-5.967-1.034-6.2-1.1V15.8z M302,54.3c-0.4-0.733-1-1.1-1.8-1.1
		c-0.934,0-1.867,0.466-2.8,1.4c-1.067,1.066-1.601,2.316-1.601,3.75c0,2.267,0.634,4.566,1.9,6.9c0.833,1.467,1.75,2.7,2.75,3.7
		l0.95,0.5c-0.5-1.1-0.75-2-0.75-2.7c0-0.967,0.316-2.55,0.949-4.75c0.601-2.2,0.9-3.983,0.9-5.35
		C302.5,55.717,302.333,54.933,302,54.3z M178.25,157.65c-0.167,1.3,0.2,4.1,1.1,8.399c0.066,0.367,0.133,0.733,0.2,1.101
		c-0.233-0.301-0.45-0.667-0.65-1.101c-0.2-0.399-0.4-0.866-0.6-1.399c-0.533-1.5-0.8-3.017-0.8-4.551
		C177.5,159.066,177.75,158.25,178.25,157.65z M126.35,191.45c1.533-2.066,2.583-3.601,3.15-4.601c1.167-1.966,2.567-4.883,4.2-8.75
		c0.7-0.6,1.216-1.083,1.55-1.449c-0.167,0.6-0.367,1.216-0.6,1.85c-0.066,0.1-0.117,0.2-0.15,0.3c-0.5,1.033-0.883,2.05-1.15,3.05
		c-0.4,0.867-0.817,1.75-1.25,2.65C130,188.767,128.083,191.083,126.35,191.45z M72.25,139.35l-1.5,0.101
		c1.133,0.333,3.517,1.517,7.15,3.55c2.3,1.267,4.617,1.616,6.95,1.05c-2.367,1.334-4.25,2-5.65,2c-3.067,0-5.95-1.017-8.65-3.05
		c-3.2-2.4-4.8-5.517-4.8-9.35l0.15-2.2C69.8,136.45,71.917,139.083,72.25,139.35z M143.05,109.55c-1.267,0.066-3.466,0.15-6.6,0.25
		c-2.333,0.066-4.083,0.2-5.25,0.4c0.867-0.434,2.75-0.667,5.65-0.7C139.717,109.566,141.783,109.583,143.05,109.55z M64,170.3
		c3.2-0.133,5.85-0.467,7.95-1c-1.133,0.7-2.8,1.3-5,1.8c-0.467,0-1.034-0.1-1.7-0.3C64.683,170.634,64.267,170.467,64,170.3z
		 M62.2,170.65l-0.65,1.3c-0.533,1-1.066,1.916-1.6,2.75c0-1.134,0.216-2.084,0.65-2.851C61.033,171.05,61.567,170.65,62.2,170.65z
		 M68.2,190.45c2.533-2.7,4.05-4.884,4.55-6.55c0.333,0.399,0.8,0.733,1.4,1c0.5,0.199,0.95,0.3,1.35,0.3
		c0.833,0,1.717-0.283,2.65-0.851c1.2-0.733,2.367-1.233,3.5-1.5l1.05,0.051c-0.7,0.466-2.383,1.783-5.05,3.949
		C74.683,188.884,71.533,190.083,68.2,190.45z"/>
	<path style="fill-rule:evenodd;clip-rule:evenodd;fill:#4C4336;" d="M334.4,51.8c1.433,1.733,2.399,2.6,2.899,2.6
		c1.667,0,3.25-1.3,4.75-3.9c1.867-3.233,3.05-5.033,3.55-5.4v-0.05l1.301,6.55l0.399,1.25c-0.7,4.133-1.616,6.933-2.75,8.4
		c-0.6,0.767-1.316,1.15-2.149,1.15c-0.9,0-1.767-0.017-2.601-0.05c-0.399,0.033-0.75,0.3-1.05,0.8c-3.5,6.5-5.366,9.934-5.6,10.3
		c-1.7-2.934-3.034-6.767-4-11.5c-0.634-4.2-0.95-6.333-0.95-6.4c0-3.066-0.384-5.216-1.15-6.45c-1.566-2.533-4.934-3.8-10.1-3.8
		c-4.367,0-7.9,0.733-10.601,2.2c-4.899,2.633-7.5,4-7.8,4.1c-2.366,0.2-4.75,0.417-7.149,0.65c-1.601,0-3.983-0.433-7.15-1.3
		c-0.8-0.3-1.384-0.6-1.75-0.9l-0.25-0.3c1.233-0.167,4.467-0.317,9.7-0.45c3.767,0,6.983-0.95,9.649-2.85c2.667-1.9,4-4.184,4-6.85
		l0.051-0.2c0.166-1.033,0.267-2.183,0.3-3.45c0.066-1.333,0.017-2.383-0.15-3.15l-0.399-1.05L304.8,30.2l-0.3-1.15
		c3,2.767,5.233,6.067,6.7,9.9c1.7,2.433,6.066,3.617,13.1,3.55c1.101,0,2.316,0.533,3.65,1.6c1.2,1,2.483,2.45,3.85,4.35
		C332.767,49.783,333.634,50.9,334.4,51.8z M414.3,126.7c-1.666-0.434-4.184-1.667-7.55-3.7c-3.634-2.167-6.017-3.983-7.15-5.45
		L414.3,126.7z M426.325,165.325c-0.113,0.146-0.289,0.338-0.525,0.575c-0.066,0.066-0.616,0.949-1.649,2.649
		c-0.767,1.5-1.617,3.517-2.551,6.05c-1.233,2.334-3.566,4.784-7,7.351c-1.033,0.6-2.116,1.149-3.25,1.649
		c-3.699,1.067-5.616,1.617-5.75,1.65c-0.767,0.2-1.483,0.333-2.149,0.4c-1.033,0.1-1.684,0.149-1.95,0.149
		c-8.434-0.733-15.15-1.1-20.15-1.1c-1.433,0-3.483,0.399-6.149,1.2c-2.601,0.733-4.367,1.416-5.3,2.05
		c0.267-2.7-0.084-4.884-1.051-6.55c-0.533-0.9-1.699-2.15-3.5-3.75c-3.6-3.267-5.399-7.767-5.399-13.5
		c0-5.334,0.866-9.967,2.6-13.9l0.2,0.55l0.2,1.25c1,11.934,4.8,20.084,11.399,24.45c4.467,2.934,11.267,4.4,20.4,4.4
		c3.366,0,6.667-1.15,9.9-3.45c3.233-2.334,5.133-3.5,5.699-3.5c0.834,0,1.9,0.05,3.2,0.149c0.934-0.133,1.4-0.983,1.4-2.55
		c0-2.733-1.934-7.133-5.8-13.2c-2.801-4.433-4.717-7.517-5.75-9.25c1.233,1.567,2.8,2.867,4.699,3.9
		c1.134,0.6,2.267,1.083,3.4,1.45c0.5,0.233,0.983,0.5,1.45,0.8c0.633,0.366,1.233,0.783,1.8,1.25c1.4,1.134,2.583,2.467,3.55,4
		c1.3,2.1,2.15,3.15,2.55,3.15c1.434,0,2.601-0.601,3.5-1.801c0.7-0.933,1.334-2.366,1.9-4.3c-0.366-0.1-0.884-0.149-1.55-0.149
		c-3.167,0.166-5.3,0.216-6.4,0.149c3.8-2.033,5.9-3.2,6.3-3.5c0.167-0.133,0.7-0.7,1.601-1.7c0.967-1.066,1.5-1.699,1.6-1.899
		c0.2-0.3,0.384-0.75,0.55-1.351c0.167-0.633,0.25-1.183,0.25-1.649c-0.066-1-0.25-1.967-0.55-2.9c-0.6-1.833-1.5-2.75-2.7-2.75
		c-0.333,0-0.767,0.134-1.3,0.4s-0.967,0.399-1.3,0.399l-1.45-0.149l0.8-0.7c0.233-0.434,0.517-1.283,0.851-2.55
		c0.333-1.167,0.5-1.816,0.5-1.95c0-1.533-0.7-3.417-2.101-5.65l6.7,5.7c0.233,0.233,0.65,0.7,1.25,1.4l0.2,0.25
		c0.033,0.033,0.083,0.083,0.15,0.149c1.166,1.334,2.166,2.567,3,3.7c1.466,3.934,2.517,6.566,3.149,7.9
		c0.167,0.399,0.25,0.649,0.25,0.75c0,1.6-1.5,4.267-4.5,8c-1.533,1.866-3.233,3.767-5.1,5.7l-0.05,0.05
		C426.379,165.235,426.354,165.277,426.325,165.325z M295.5,210.875l-0.8-0.175c1.1,0.066,2.017-0.167,2.75-0.7
		c0.833-0.6,1.25-1.5,1.25-2.7c0-0.533-0.084-1.483-0.25-2.85c-0.2-1.4-0.384-2.45-0.55-3.15l0.949,0.95
		c4.233,4.833,6.884,8.483,7.95,10.95L295.5,210.875z M67.1,190.55l-4.75,0.75c-6.367,1.2-10.033,1.867-11,2
		c-4.267,0.634-7.383,0.733-9.35,0.3c6.3,0,11.683-1.433,16.15-4.3c4.467-2.899,6.7-6.399,6.7-10.5
		c0.467-1.934,0.283-3.184-0.55-3.75c-1.233-0.8-1.867-1.267-1.9-1.399c-0.033-0.634,0.483-1.101,1.55-1.4
		c1.566-0.3,2.85-0.55,3.85-0.75c4.167-0.8,7-2.5,8.5-5.1c1.333-1.367,2.434-2.45,3.3-3.25c1.033-0.967,1.6-1.5,1.7-1.601
		c0.233,3.367-0.133,5.483-1.1,6.351c-0.167,0.1-1.034,0.666-2.6,1.699c-1.567,1-3.067,2.15-4.5,3.45
		c-2.467,2.2-3.717,5.25-3.75,9.15C69.283,186.267,68.533,189.05,67.1,190.55z M297.1,96.85c-0.166,0.133-1.333,0.983-3.5,2.55
		c-0.166,0.2-1.783,0.883-4.85,2.05l-0.35,0.3c-0.767,0.8-1.351,1.783-1.75,2.95c-0.233,0.7-0.567,1.783-1,3.25l-1.2,3.05v-0.3
		l-0.7-4c-0.2-1.867-0.3-3.184-0.3-3.95c0-1.433,0.6-3.083,1.8-4.95c0.233-0.333,1.55-2.066,3.95-5.2
		c3.633-4.767,5.2-9.033,4.7-12.8l-0.15-0.75c-0.134-0.633-0.25-1.2-0.35-1.7c-0.301-1.567-0.45-2.533-0.45-2.9
		c0-0.633,0.1-1.133,0.3-1.5c0.9-1.4,2.017-3.217,3.35-5.45c0.067-0.1,0.117-0.183,0.15-0.25c0.033,0.133,0.083,0.3,0.15,0.5
		c0.666,1.867,1.899,4.933,3.699,9.2c0.767,1.833,1.15,4.05,1.15,6.65c0,3-0.316,5.483-0.95,7.45
		C300.066,93.183,298.833,95.117,297.1,96.85z M333.15,123.95c0.533-2.2,0.35-6.533-0.551-13c-1.033-7.6-1.55-11.95-1.55-13.05
		c0.101-0.767,0.134-1.45,0.101-2.05c-0.034-0.934-0.367-2.967-1-6.1c0.433,0.933,1.166,2.333,2.199,4.2
		c1.067,2.033,2.034,4.4,2.9,7.1c0.066,0.167,0.6,1.867,1.6,5.1c-0.233,1.833-0.033,4.284,0.601,7.35c0.566,2.7,1.133,4.55,1.7,5.55
		c0.133,1.2,0.199,2.066,0.199,2.601c0.134,4.933-0.949,9.85-3.25,14.75c-3.3,7.066-8.333,10.6-15.1,10.6
		c-3.5,0-6.95-0.917-10.35-2.75c-3.267-2.167-5.534-3.566-6.801-4.2l1.351,0.45c1.5,0.667,2.833,1.2,4,1.6
		c2.166,0.7,5.05,1.051,8.649,1.051c2.267,0,3.934-0.4,5-1.2c0.434-0.334,2.067-2.101,4.9-5.3
		C331.217,128.684,333.017,124.45,333.15,123.95z M286.9,125.8c0.033,6.533-3.317,12.783-10.051,18.75
		c-2.267,2.033-4.716,3.834-7.35,5.4c-2.134,1.267-3.467,1.899-4,1.899c-6.8,0-11-0.517-12.6-1.55l-1.45-0.8l0.149-0.15
		c0.134-0.066,0.7-0.183,1.7-0.35c1.066-0.167,1.834-0.25,2.3-0.25c2.867,0.333,5.233,0.366,7.101,0.1
		c3.5-0.533,5.666-2.383,6.5-5.55c0.5-1.033,2.267-2.883,5.3-5.55c3.066-2.566,4.717-3.967,4.95-4.2l3.5-3.7l3.5-3.75l0.45-0.55
		C286.9,125.65,286.9,125.733,286.9,125.8z M359.1,96.3c0.101,2.4,0.301,3.934,0.601,4.6c0.7,1.6,2.35,2.4,4.95,2.4
		c0.933,0,1.883-0.2,2.85-0.6c0.4-0.2,1.083-0.867,2.05-2c0.834-1,1.3-1.6,1.4-1.8c0.8-2.9,1.45-4.7,1.95-5.4l1.55-2.8l0.05,1.45
		c0.366,2.333,1.467,6.567,3.3,12.7c0,3.266,0.351,6.233,1.05,8.9c0.134,0.533,0.334,1.217,0.601,2.05
		c0.6,1.934,1.5,4.717,2.7,8.351c0.033,0.199,0.083,0.383,0.149,0.55l-0.25-0.351c-1.3-2.433-6.116-6.816-14.45-13.149
		c-7.366-5.534-11.05-9.867-11.05-13l0.351-10.75l-0.051-1.2c0.7,1.433,1.2,2.717,1.5,3.85c0.5,1.767,0.733,3.65,0.7,5.65
		C359.05,95.917,359.066,96.1,359.1,96.3z M220.2,11.6l3.5-1.7l-5.2,8.15c-3.033,4.833-5.05,7.833-6.05,9c-0.534,0.6-1.867,1.6-4,3
		c-1.867,0.467-3.034,0.7-3.5,0.7c-0.8,0-4.534-0.05-11.2-0.15c-2.833,0.7-5.567,1.75-8.2,3.15c-1.533,0.8-3.683,2.05-6.45,3.75
		c-5.267,2.967-11.417,4.567-18.45,4.8l0.9-0.1l1.05-0.4l0.3-0.1c4.967-3.2,9.5-5.95,13.6-8.25c7.833-4.4,13.95-6.45,18.35-6.15
		c2.9,0.233,5.267,0.184,7.1-0.15c2.466-0.8,5.017-2.983,7.65-6.55C212.533,16.667,216.067,13.667,220.2,11.6z M178.65,86.4
		c-1.566,2.867-2.7,5.1-3.4,6.7c-0.2,0.467-0.667,1.683-1.4,3.65l-0.8,1.65c-0.833,1.9-2.617,3.9-5.35,6
		c-2.567,1.967-5.034,3.317-7.4,4.05c-3.966,0.767-7.75,1.583-11.35,2.45c-2.6,0.6-4.45,0.966-5.55,1.1l0.45-0.35
		c0.833-1.034,2.15-2.284,3.95-3.75c2.133-1.7,3.7-2.967,4.7-3.8c0.667-0.467,2.617-1.55,5.85-3.25L163,98.4
		c3.233-2,5.867-4.283,7.9-6.85c2.067-2.533,4.5-4.683,7.3-6.45l-0.5,2c0.133-0.233,0.233-0.434,0.3-0.6
		c0.067-0.233,0.35-0.483,0.85-0.75L178.65,86.4z M177.65,115.3c0.333-0.3,1.383-0.5,3.15-0.6c2.8-0.167,4.617-0.3,5.45-0.4
		c5.067-0.666,8.067-2.533,9-5.6c0.3-1.867,0.45-2.833,0.45-2.9c0.233-1.033,0.6-1.767,1.1-2.2l3.6-3.25l0.45-0.4l-0.35,0.8
		c-2.367,7.333-3.883,11.616-4.55,12.85c-1.6,3.067-3.917,4.601-6.95,4.601c-0.933,0-2.6-0.283-5-0.851
		C181.333,116.717,179.217,116.033,177.65,115.3z M228.85,85.3l0.601-0.75l1.95-2.5c-1.733,5.567-3.9,10.05-6.5,13.45
		c-2.2,2.867-4.067,4.3-5.601,4.3c-0.8,0-2.7-0.417-5.7-1.25c-3.267-0.9-5.184-1.667-5.75-2.3c5.8,0,10.75-1.067,14.85-3.2
		C226.8,90.917,228.85,88.333,228.85,85.3z M195.35,171.15c-0.067-1.134,0.066-1.917,0.4-2.351c0.667-0.633,1.333-1.434,2-2.399
		c2.5-2.733,4.633-5.884,6.4-9.45c0.767-1.601,3.684-8.25,8.75-19.95l1.15-2.45l-0.25,0.95c-0.466,7.733-3.35,17.483-8.65,29.25
		c-2.7,5.934-5.483,11.333-8.35,16.2C196,176.483,195.517,173.217,195.35,171.15z M304.7,177.45l2.3,0.649l1.8,0.5l-1.8,4.2
		c0,2.134-1.684,3.95-5.05,5.45c-3.367,1.5-7.417,2.25-12.15,2.25l-2.6-1.1c-2.634-1.801-5.434-2.934-8.4-3.4
		c-1.666-0.3-4-0.533-7-0.7l1.65-0.55c1.7-0.366,3.416-0.55,5.149-0.55c0.7,0,2.9,0.184,6.601,0.55c3.733,0.333,5.934,0.5,6.6,0.5
		c1.3,0,2.4-0.15,3.3-0.45c0.601-0.267,1.75-1.083,3.45-2.45c1.566-1.233,2.517-2.05,2.851-2.449c0-0.667,0.333-1.233,1-1.7
		C303.033,177.7,303.8,177.45,304.7,177.45z M264.3,194.4c0.334-0.434,0.667-1.45,1-3.051c0.601-2.899,1.217-5.517,1.851-7.85
		L267.1,184l-0.149,1.4c-0.066,0.833-0.2,2.899-0.4,6.199l-0.2,1.4l-0.05,0.1c-0.166,0.801-0.399,1.601-0.7,2.4v0.3
		c-0.133,1.334-1.166,2.483-3.1,3.45c-2.066,1.033-4.55,1.55-7.45,1.55h-3.1c0.833-0.1,1.7-0.283,2.6-0.55c2.7,0,5-0.566,6.9-1.7
		C263.35,197.384,264.3,196,264.3,194.4z M88.95,139.55c4.7-1.3,8.3-3.166,10.8-5.6c1.733-1.667,4.433-5.417,8.1-11.25l-0.3,1.45
		c-2,7.466-4.633,12.3-7.9,14.5c-1.833,1.233-4.95,1.85-9.35,1.85c-1.333,0-2.367-0.184-3.1-0.55l0.25-0.101L88.95,139.55z
		 M128.7,141.4l0.95-2.301v1.7c-0.767,5.434-1.683,9.066-2.75,10.9c-0.7,1.2-1.983,2.717-3.85,4.55
		c-0.333,0.434-1.05,3.066-2.15,7.9c-1.433,4.933-3.267,8.083-5.5,9.449l-2.05,1.75l-0.95,0.551l-0.95,0.3
		c4.267-5.4,6.483-8.917,6.65-10.55c0.066-0.567-0.033-1.634-0.3-3.2c-0.333-1.8-0.5-3.617-0.5-5.45c0-2,0.267-3.3,0.8-3.9
		c1.233-1.066,2.566-2.5,4-4.3c0.8-0.467,1.583-1,2.35-1.6C125.95,146.033,127.367,144.1,128.7,141.4z M140.65,158
		c-0.267,2.066-0.517,4.717-0.75,7.95c-0.267,2.533-0.8,4.533-1.6,6c-0.233,0.467-0.566,1.149-1,2.05c0,0.033-0.017,0.066-0.05,0.1
		c-0.167,0.301-0.35,0.601-0.55,0.9c-0.4,0.533-0.883,1.083-1.45,1.65c-0.333,0.366-0.85,0.85-1.55,1.449
		c-0.333,0.2-1.25,0.717-2.75,1.551c-1.434,0.8-2.25,1.233-2.45,1.3l0.65-1.45c1.4-1.533,2.617-3.033,3.65-4.5
		c2.034-2.866,3.05-6.083,3.05-9.65l-1.05-10.1c0-0.566,1.3-2.6,3.9-6.1c3.267-4.334,5.9-8.917,7.9-13.75v2.55
		c0.5,3.267-0.233,7.233-2.2,11.899C143.4,152.283,142.15,155,140.65,158z"/>
	<path style="fill-rule:evenodd;clip-rule:evenodd;fill:#5E513E;" d="M341.8,35c1.033,1.9,2.25,4.967,3.65,9.2l0.149,0.85v0.05
		c-0.5,0.367-1.683,2.167-3.55,5.4c-1.5,2.6-3.083,3.9-4.75,3.9c-0.5,0-1.467-0.867-2.899-2.6c1,0.567,2,0.85,3,0.85
		c1.833,0,3.033-0.767,3.6-2.3C341.833,48.017,342.1,42.9,341.8,35z M298.55,51.6c0.3-0.1,2.9-1.467,7.8-4.1
		c2.7-1.467,6.233-2.2,10.601-2.2c5.166,0,8.533,1.267,10.1,3.8c0.767,1.233,1.15,3.383,1.15,6.45c0,0.067,0.316,2.2,0.95,6.4
		c0.966,4.733,2.3,8.566,4,11.5c0.233-0.367,2.1-3.8,5.6-10.3c0.3-0.5,0.65-0.767,1.05-0.8c0.834,0.033,1.7,0.05,2.601,0.05
		c0.833,0,1.55-0.383,2.149-1.15c1.134-1.467,2.05-4.267,2.75-8.4l0.351,0.85c0.3,0.667,0.883,1.65,1.75,2.95
		c0.866,1.267,1.666,2.333,2.399,3.2l2.55,2.3l6.801,4.8c-0.267,0-2.284-0.534-6.051-1.6c-3.767-1.1-6.35-1.65-7.75-1.65
		c-3.6,0-6.466,2.55-8.6,7.65c-2.366,5.633-3.55,13.767-3.55,24.4l0.05,5.3c-0.866-2.7-1.833-5.066-2.9-7.1
		c-1.033-1.867-1.767-3.267-2.199-4.2c0.633,3.133,0.966,5.167,1,6.1c0.033,0.6,0,1.283-0.101,2.05c0,1.1,0.517,5.45,1.55,13.05
		c0.9,6.467,1.084,10.8,0.551,13c-0.834-8.066-2.367-15.417-4.601-22.05c-4.333-13-11.217-19.5-20.649-19.5
		c-1.7,0-2.967,0.55-3.801,1.65c-0.5,0.7-0.983,2.034-1.449,4c-1.067,4.467-2.917,7.4-5.551,8.8c1.733-1.733,2.967-3.667,3.7-5.8
		c0.634-1.966,0.95-4.45,0.95-7.45c0-2.6-0.384-4.817-1.15-6.65c-1.8-4.267-3.033-7.333-3.699-9.2c0.533,0.4,1.183,0.867,1.949,1.4
		c3.101,2.567,11.667,7.017,25.7,13.35c2.367,0,3.983-1.317,4.851-3.95V78.2c-0.867-5.534-2.034-9.367-3.5-11.5
		c-1.167-1.7-1.75-3.284-1.75-4.75c0-0.833,0.267-1.9,0.8-3.2c0.533-1.267,0.8-2.883,0.8-4.85c-0.167-1.6-0.25-2.433-0.25-2.5
		l-0.85-0.1c-0.7,0-2.4,0.25-5.101,0.75s-5.066,0.75-7.1,0.75c-0.667,0-1.184-0.233-1.55-0.7c-0.2-0.233-0.917-1.434-2.15-3.6
		c-1.3,0.8-2.884,1.533-4.75,2.2C301.566,51.6,299.75,51.9,298.55,51.6z M399.6,117.55c1.134,1.467,3.517,3.283,7.15,5.45
		c3.366,2.033,5.884,3.267,7.55,3.7l7.05,4.899c1.4,2.233,2.101,4.117,2.101,5.65c0,0.134-0.167,0.783-0.5,1.95
		c-0.334,1.267-0.617,2.116-0.851,2.55l-0.8,0.7l1.45,0.149c0.333,0,0.767-0.133,1.3-0.399s0.967-0.4,1.3-0.4
		c1.2,0,2.101,0.917,2.7,2.75c0.3,0.934,0.483,1.9,0.55,2.9c0,0.467-0.083,1.017-0.25,1.649c-0.166,0.601-0.35,1.051-0.55,1.351
		c-1-1.967-2.033-3.267-3.1-3.9c-0.733-0.434-1.767-0.633-3.101-0.6c-3.466,0.033-6.5-1.101-9.1-3.4h1.5
		c3.366,0.233,5.417,0.3,6.15,0.2c-0.801-6.033-3.717-9.517-8.75-10.45c-2.667-0.3-4.567-0.616-5.7-0.95
		c-1.934-0.533-3.25-1.6-3.95-3.199c-1.134-4.7-2.517-8.184-4.15-10.45c-2.933-4.033-8.333-6.05-16.199-6.05
		c-0.733,0-1.267,0.166-1.601,0.5c-0.3,0.333-0.45,0.883-0.45,1.649c0,0.667,0.034,1.334,0.101,2
		c-0.267-0.833-0.467-1.517-0.601-2.05c-0.699-2.667-1.05-5.634-1.05-8.9c-1.833-6.133-2.934-10.367-3.3-12.7
		c0.434-0.6,0.65-1,0.65-1.2c-0.067-0.9-0.134-2.767-0.2-5.6l2.649,8.9L378.7,97l2.649,4.25c2.134,3.233,4.184,5.867,6.15,7.9
		l3.6,2.8C393.434,113.75,396.267,115.616,399.6,117.55z M412.95,155.25c-0.467-0.3-0.95-0.566-1.45-0.8
		c-1.134-0.367-2.267-0.851-3.4-1.45c-1.899-1.033-3.466-2.333-4.699-3.9c1.033,1.733,2.949,4.817,5.75,9.25
		c3.866,6.067,5.8,10.467,5.8,13.2c0,1.566-0.467,2.417-1.4,2.55c-1.3-0.1-2.366-0.149-3.2-0.149c-0.566,0-2.466,1.166-5.699,3.5
		c-3.233,2.3-6.534,3.45-9.9,3.45c-9.134,0-15.934-1.467-20.4-4.4c-6.6-4.366-10.399-12.517-11.399-24.45l-0.2-1.25l-0.2-0.55
		c-1.733,3.934-2.6,8.566-2.6,13.9c0,5.733,1.8,10.233,5.399,13.5c1.801,1.6,2.967,2.85,3.5,3.75c0.967,1.666,1.317,3.85,1.051,6.55
		c-1.834,1.333-7.317,4.75-16.45,10.25c-9.867,5.967-15.733,9.566-17.601,10.8l-4.699,2.85l-0.95,0.45
		c5.267-4.399,9.55-8.217,12.85-11.45c6.2-6.066,9.3-10.533,9.3-13.399c0-3.967-1.566-6.884-4.699-8.75
		c-1.733-1-2.817-1.75-3.25-2.25c-1-1.033-1.5-2.434-1.5-4.2c0-1.467,0.383-3.2,1.149-5.2c0.733-2,1.101-3.1,1.101-3.3
		c0-0.634,0.433-1.116,1.3-1.45c1.233-0.3,2.2-0.583,2.899-0.85c2.767-1,4.15-3.267,4.15-6.8c0-2.934-1-5.534-3-7.801
		c-3-3.333-7.717-5-14.15-5c-0.666,0-1.5,0.483-2.5,1.45c-0.6,0.601-1.649,1.684-3.149,3.25c-3.334,3.134-7.033,4.7-11.101,4.7
		c-4.566,0-10.583-2.65-18.05-7.95c-6.7-5.333-10.416-8-11.149-8c-2.733,0-5.101,1-7.101,3c-0.633,0.667-2.283,2.9-4.95,6.7
		c-2.1,3-4.233,5.217-6.399,6.65c-3.101,2-6.934,3-11.5,3c-4.3-0.334-7.7-1.617-10.2-3.851l0.9-0.45l1.75-0.05
		c1.6,1.033,5.8,1.55,12.6,1.55c0.533,0,1.866-0.633,4-1.899c2.634-1.566,5.083-3.367,7.35-5.4
		c6.733-5.967,10.084-12.217,10.051-18.75c1.933-1.033,4.033-1.316,6.3-0.85c0.333,2,1.533,3.6,3.6,4.8
		c0.066,0.066,2.367,2.434,6.9,7.1c3.033,3.101,5.934,4.65,8.7,4.65c3.3,0,6.6-0.733,9.899-2.2c2.934-1.566,4.75-2.45,5.45-2.649
		c-2.833,3.199-4.467,4.966-4.9,5.3c-1.066,0.8-2.733,1.2-5,1.2c-3.6,0-6.483-0.351-8.649-1.051c-1.167-0.399-2.5-0.933-4-1.6
		l-1.351-0.45c1.267,0.634,3.534,2.033,6.801,4.2c3.399,1.833,6.85,2.75,10.35,2.75c6.767,0,11.8-3.533,15.1-10.6
		c2.301-4.9,3.384-9.817,3.25-14.75c3.434,3.433,5.601,6.566,6.5,9.399c0.667,2.066,1.65,3.417,2.95,4.05
		c6.4,1.867,11.851,3.5,16.351,4.9c8.633,2.733,12.949,5.267,12.949,7.6c0,0.301-0.017,0.534-0.05,0.7
		c-0.033,0.167-0.083,0.217-0.149,0.15l-1.601,2.05c-0.6,0.533-2.05,1.217-4.35,2.05c-1.967,1.134-2.95,3.033-2.95,5.7
		c0,5.033,2.05,9.634,6.15,13.8c4.466,4.566,9.883,6.851,16.25,6.851c3.3,0,6.366-0.884,9.199-2.65
		c4.067-2.533,6.101-6.366,6.101-11.5c0-1.5-4.667-8.5-14-21c-9.767-13.134-17.017-21.7-21.75-25.7
		c-2.867-2.434-6.033-5.816-9.5-10.15c-3.967-4.933-5.9-8.316-5.8-10.15c0.166-3.833-0.717-7.583-2.65-11.25
		c-2.3-3.6-3.767-6.3-4.4-8.1l0.801,1.05c1.899,2.167,3.733,4.15,5.5,5.95c1.3,1.333,1.966,2.017,2,2.05L356.55,98.2
		c0,3.133,3.684,7.466,11.05,13c8.334,6.333,13.15,10.717,14.45,13.149l0.25,0.351c-0.066-0.167-0.116-0.351-0.149-0.55
		c1.5,2.8,3.633,5.55,6.399,8.25c4.167,4.1,8.033,6.899,11.601,8.399c5.533,2.3,9.199,5.717,11,10.25c1,2.5,1.55,3.834,1.649,4
		C412.833,155.116,412.884,155.184,412.95,155.25z M294.7,210.7c-0.025,0-0.259-0.033-0.7-0.101l-0.5-0.1
		c-1.934-0.3-6.167-0.95-12.7-1.95c-0.366-0.066-0.733-0.133-1.1-0.2l-0.2-0.699c2.1-2.567,5.583-3.534,10.45-2.9
		c2.5,0.333,3.934,0.5,4.3,0.5c1.2-0.066,1.8-0.616,1.8-1.65c0-1.699-2.083-6.066-6.25-13.1c4.733,0,8.783-0.75,12.15-2.25
		c3.366-1.5,5.05-3.316,5.05-5.45c0.566,5-0.55,8.467-3.35,10.4c-0.7,0.467-1.717,1.083-3.051,1.85
		c-0.933,0.733-1.399,1.684-1.399,2.851c0,0.666,2.434,3.366,7.3,8.1c4.767,4.667,8.05,7.566,9.85,8.7
		c-1.8-0.167-3.816-0.434-6.05-0.8c-2.1-0.334-3.267-0.567-3.5-0.7c-1.066-2.467-3.717-6.117-7.95-10.95l-0.949-0.95
		c0.166,0.7,0.35,1.75,0.55,3.15c0.166,1.366,0.25,2.316,0.25,2.85c0,1.2-0.417,2.101-1.25,2.7
		C296.717,210.533,295.8,210.767,294.7,210.7z M265.6,195.8c-0.1,1.533-0.949,2.851-2.55,3.95c-1.733,1.167-3.8,1.75-6.2,1.75
		c-0.666-0.134-1.267-0.366-1.8-0.7c2.9,0,5.384-0.517,7.45-1.55C264.434,198.283,265.467,197.134,265.6,195.8z M189,203.7
		l-0.65,0.45h-0.05l-4.2,0.899c4.167-2.166,6.583-3.666,7.25-4.5c1.4-1.8,2.1-5.35,2.1-10.649c0-4.334-0.3-9.45-0.9-15.351
		c-0.066-0.566,0.067-0.983,0.4-1.25c1.233-1.033,2.033-1.75,2.4-2.149c0.167,2.066,0.65,5.333,1.45,9.8
		c2.867-4.867,5.65-10.267,8.35-16.2c5.3-11.767,8.184-21.517,8.65-29.25c1.467,1.134,2.784,2.066,3.95,2.8
		c0.434,0.3,0.65,0.7,0.65,1.2c0,3.233-1.734,7.967-5.2,14.2c-3.467,6.267-5.2,10.333-5.2,12.2c0,0.566,0.35,2.533,1.05,5.899
		c0,1.934-0.583,3.533-1.75,4.8c-0.7,0.801-2,1.75-3.9,2.851c-4.1,2.333-6.433,4.983-7,7.95c-1.1,5.8-1.85,9.233-2.25,10.3
		C193.183,200.333,191.467,202.333,189,203.7z M140.65,158c1.5-3,2.75-5.717,3.75-8.15c1.967-4.666,2.7-8.633,2.2-11.899v-2.55
		c-2,4.833-4.633,9.416-7.9,13.75c-2.6,3.5-3.9,5.533-3.9,6.1l1.05,10.1c0,3.567-1.017,6.784-3.05,9.65
		c-1.033,1.467-2.25,2.967-3.65,4.5l-0.65,1.45c0.2-0.066,1.017-0.5,2.45-1.3c1.5-0.834,2.417-1.351,2.75-1.551
		c-1.633,3.867-3.034,6.784-4.2,8.75c-0.567,1-1.617,2.534-3.15,4.601L126,191.4l-1.4-0.351l-4.5-0.35
		c0.3-0.334,0.917-2.584,1.85-6.75c0.9-3.967,2-6.5,3.3-7.601c3.333-2.866,5-5.899,5-9.1c0-1.233-0.467-2.467-1.4-3.7
		c-1.733-2.3-2.9-3.983-3.5-5.05c-0.7,1.4-2.283,5.417-4.75,12.05c-2.9,6.033-6.333,9.316-10.3,9.851
		c1.867-2.034,3.233-3.75,4.1-5.15l1-1.65c2.233-1.366,4.067-4.517,5.5-9.449c1.1-4.834,1.817-7.467,2.15-7.9
		c1.867-1.833,3.15-3.35,3.85-4.55c1.067-1.834,1.983-5.467,2.75-10.9c1.1-0.666,1.9-1.217,2.4-1.649
		c0.233-0.2,0.733-0.684,1.5-1.45l0.35-0.851l-0.75,1.95c-0.3,0.9-0.667,1.733-1.1,2.5c-0.233,0.601-0.35,1.384-0.35,2.351
		c0,0.866,0.25,1.633,0.75,2.3c0.8,1.066,2.133,1.6,4,1.6c2.033,0,3.783-1.55,5.25-4.649c1.566-4.067,2.933-7.034,4.1-8.9
		c1.467-2.333,4.05-3.95,7.75-4.85c1.967-0.5,6.417-1.084,13.35-1.75l-1.45,0.699c-1.067,0.567-2.95,1.717-5.65,3.45
		c-3.667,0-6.783,1.601-9.35,4.8c-2.6,3.2-3.9,7.067-3.9,11.601c-0.033,0.133-0.233,0.717-0.6,1.75
		c-0.367,1.133-0.617,1.85-0.75,2.149v0.051l-0.05,0.1c-0.267,0.967-0.917,2.134-1.95,3.5C142.133,156.9,141.283,157.733,140.65,158
		z M304.8,30.2c-0.8-1.267-1.833-2.184-3.1-2.75c-1.601-0.7-2.667-1.25-3.2-1.65c0.233-0.2,0.2-0.233-0.1-0.1
		c-0.034,0-0.067-0.017-0.101-0.05l-0.5,0.3c-1.366-0.1-2.883-0.917-4.55-2.45c-2.167-2-4.316-3.483-6.45-4.45l3.101,0.65
		c5.066,1.6,12.399,4.75,22,9.45c4.767,2.333,9.066,4.5,12.899,6.5c0.267-0.033,0.467-0.05,0.601-0.05c0.3,3,1.149,5.833,2.55,8.5
		c-1.334-1.067-2.55-1.6-3.65-1.6c-7.033,0.067-11.399-1.117-13.1-3.55c-1.467-3.833-3.7-7.133-6.7-9.9L304.8,30.2z M305.65,39.4
		c0.166-1.267,0.216-3.467,0.149-6.6c0.167,0.767,0.217,1.817,0.15,3.15C305.917,37.217,305.816,38.367,305.65,39.4z M359.1,96.3
		c0.134,1.7,0.95,3.167,2.45,4.4c1.634,1.333,3.617,2,5.95,2c-0.967,0.4-1.917,0.6-2.85,0.6c-2.601,0-4.25-0.8-4.95-2.4
		C359.4,100.233,359.2,98.7,359.1,96.3z M414.75,156.5c0.366,0.1,0.783,0.15,1.25,0.15c1.267,0,3-0.4,5.2-1.2
		c1.133-0.434,2.267-0.9,3.399-1.4c-0.399,0.3-2.5,1.467-6.3,3.5c1.101,0.066,3.233,0.017,6.4-0.149c0.666,0,1.184,0.05,1.55,0.149
		c-0.566,1.934-1.2,3.367-1.9,4.3c-0.899,1.2-2.066,1.801-3.5,1.801c-0.399,0-1.25-1.051-2.55-3.15
		C417.333,158.967,416.15,157.634,414.75,156.5z M296.6,67.5c-1.333,2.233-2.449,4.05-3.35,5.45c-0.2,0.367-0.3,0.867-0.3,1.5
		c0,0.367,0.149,1.333,0.45,2.9c-1.167-5.367-3.017-9.267-5.551-11.7c-2.233-2.2-5.433-3.55-9.6-4.05
		c-2.467-0.267-6.566-0.467-12.3-0.6c-5.367-0.367-10.017-1.45-13.95-3.25l1-0.3c8.2-3.7,13.7-5.55,16.5-5.55
		c2.233,0,5.184,0.5,8.85,1.5c4.867,1.367,8.233,3.117,10.101,5.25c3.934,4.567,6.35,7.25,7.25,8.05
		C295.934,66.933,296.233,67.2,296.6,67.5z M236.15,75.75L236,76.6c-2.366,2.767-3.983,5.7-4.85,8.8c-0.5,1.7-0.917,3.9-1.25,6.6
		c-0.634,0.867-1.284,3.85-1.95,8.95c-0.601,4.566-0.9,7.983-0.9,10.25l0.05,1.899l-0.199-1.3c0.066-3.767-1.101-6.283-3.5-7.55
		c-1.801-0.967-4.684-1.3-8.65-1c-1.5,0.133-3.883-0.8-7.15-2.8c-2.4-1.6-4.217-2.75-5.45-3.45c-0.5-0.3-0.9-0.517-1.2-0.65l0.7-0.1
		c0.567-0.067,1.217-0.117,1.95-0.15c0.233,0,0.483,0,0.75,0c1.967,0.1,3.133,0.15,3.5,0.15c0.566,0.633,2.483,1.4,5.75,2.3
		c3,0.833,4.9,1.25,5.7,1.25c1.533,0,3.4-1.433,5.601-4.3c2.6-3.4,4.767-7.883,6.5-13.45l-1.95,2.5l-0.3,0.3l7.5-16.65l0.05,1.65
		C236.7,71.583,236.517,73.55,236.15,75.75z M178.25,89.2l-3.05,5.2l-1.35,2.35c0.733-1.967,1.2-3.183,1.4-3.65
		c0.7-1.6,1.833-3.833,3.4-6.7C178.45,87.533,178.317,88.467,178.25,89.2z M194.85,27.3c2.4-0.1,4.767-0.15,7.1-0.15
		C200.117,27.483,197.75,27.533,194.85,27.3z M160.45,42.05l2.15-0.25l-1.05,0.4l-0.9,0.1c7.033-0.233,13.184-1.833,18.45-4.8
		c2.767-1.7,4.917-2.95,6.45-3.75c2.633-1.4,5.367-2.45,8.2-3.15c-2.533,1.033-5.6,2.667-9.2,4.9c-4.933,3.1-8.033,4.983-9.3,5.65
		l-3.3,1.4c-1.1,0.167-1.983,0.4-2.65,0.7c-3.2,0.767-7.883,0.55-14.05-0.65l0.65,0.05c0.9-0.066,1.783-0.183,2.65-0.35
		L160.45,42.05z M218.5,18.05l6.1-1.35c-0.133,4.167-1.566,7.7-4.3,10.6c-1.366,1.467-2.75,2.517-4.15,3.15l-7.7-0.4
		c2.133-1.4,3.466-2.4,4-3C213.45,25.883,215.467,22.883,218.5,18.05z M163,98.4c0.733-0.6,3.167-3.517,7.3-8.75
		c4.333-5.5,9.3-10.7,14.9-15.6c-0.434,0.5-1.667,2.367-3.7,5.6c-2,3.2-3.1,5.017-3.3,5.45c-2.8,1.767-5.233,3.917-7.3,6.45
		C168.867,94.117,166.233,96.4,163,98.4z M131.2,110.2c1.167-0.2,2.917-0.334,5.25-0.4c3.133-0.1,5.333-0.184,6.6-0.25l0.5-0.05
		c0.7-0.2,2.017-0.95,3.95-2.25c2.333-1.567,4-2.617,5-3.15c-1,0.833-2.567,2.1-4.7,3.8c-1.8,1.466-3.117,2.716-3.95,3.75L143.4,112
		c1.1-0.134,2.95-0.5,5.55-1.1c3.6-0.867,7.383-1.684,11.35-2.45c-0.6,0.733-1.533,1.967-2.8,3.7c-1.3,1.366-2.983,2.05-5.05,2.05
		c-5.767,0-10.817-0.533-15.15-1.601c-1.633-0.399-3.783-1.133-6.45-2.199L131.2,110.2z M200.1,98.6l0.3,1.75l-3.6,3.25l-0.55,0.45
		c0-0.066,0.467-0.867,1.4-2.4l2.3-3.85L200.1,98.6z M177.65,115.3c1.567,0.733,3.684,1.417,6.35,2.05
		c2.4,0.567,4.067,0.851,5,0.851c3.033,0,5.35-1.533,6.95-4.601c0.667-1.233,2.183-5.517,4.55-12.85c0.3,0.733,0.6,1.75,0.9,3.05
		c0.333,1.534,0.5,2.75,0.5,3.65c0,2.2-0.983,4.316-2.95,6.35c-1.967,2.066-2.95,3.783-2.95,5.15
		c10.733,10.1,16.6,15.566,17.6,16.399l-0.7,1.65c-5.066,11.7-7.983,18.35-8.75,19.95c-1.767,3.566-3.9,6.717-6.4,9.45
		c0.133-1.034,1.733-5.417,4.8-13.15c3-7.434,4.5-12.15,4.5-14.15c0-2.233-1.216-4.85-3.65-7.85c-2.933-3.634-6.333-5.533-10.2-5.7
		c-1.233-0.033-2.55-0.533-3.95-1.5c-0.3-0.233-1.617-1.316-3.95-3.25c-3.466-2.866-7.066-4.717-10.8-5.55
		C175.067,115.283,176.117,115.3,177.65,115.3z M307,178.1l-0.9-0.3c0.367-0.1,0.584-0.3,0.65-0.6l0.15-0.3L307,178.1z
		 M179.55,167.15c-0.066-0.367-0.133-0.733-0.2-1.101c-0.9-4.3-1.267-7.1-1.1-8.399c0.933-2.434,3.317-4.817,7.15-7.15
		c4.2-2.533,6.8-4.583,7.8-6.15c0.5-0.699,0.867-1.633,1.1-2.8c0.1-0.6,0.15-1.133,0.15-1.6c0-0.367-0.434-2.134-1.3-5.3l0.3,0.75
		c1.2,2.433,2.033,4.216,2.5,5.35c0.7,1.767,1.05,3.2,1.05,4.3c0,5.033-0.95,8.75-2.85,11.15c-1.3,1.666-3.35,2.916-6.15,3.75
		c-3.267,1-5.217,1.733-5.85,2.2c-1.133,0.833-1.783,2.133-1.95,3.899c-0.1,0.733-0.1,1.566,0,2.5v1.7L179.55,167.15z M128.7,141.4
		c-1.333,2.699-2.75,4.633-4.25,5.8c-0.767,0.6-1.55,1.133-2.35,1.6c1.033-2.533,2.05-4.217,3.05-5.05
		C126.483,142.983,127.667,142.2,128.7,141.4z M293.6,99.4c-0.066,0.1-0.933,2.283-2.6,6.55c-1.733,4.434-3.2,7.85-4.4,10.25
		c-0.066-0.367-0.133-0.634-0.199-0.8L286.3,115.3c-0.033-0.866-0.25-3.316-0.649-7.35c0.433-1.467,0.767-2.55,1-3.25
		c0.399-1.167,0.983-2.15,1.75-2.95l0.35-0.3C291.816,100.283,293.434,99.6,293.6,99.4z M286.45,126.1l-3.5,3.75
		C283.75,128.25,284.917,127,286.45,126.1z M287.2,189.4c-0.9-0.034-3.483-0.101-7.75-0.2c-4.2-0.3-7.384-1.033-9.55-2.2l-2.95-1.6
		l0.149-1.4c1.367,0.066,3.884,0.017,7.551-0.15c3.5-0.233,5.416-0.35,5.75-0.35c1.699,0,3.683,0.233,5.949,0.7
		c2.233,0.434,5.15,0.633,8.75,0.6c-0.899,0.3-2,0.45-3.3,0.45c-0.666,0-2.866-0.167-6.6-0.5c-3.7-0.366-5.9-0.55-6.601-0.55
		c-1.733,0-3.449,0.184-5.149,0.55l-1.65,0.55c3,0.167,5.334,0.4,7,0.7C281.767,186.467,284.566,187.6,287.2,189.4z M264.7,184.15
		L267,184c-0.233,0.833-0.566,1.167-1,1l-0.55-0.3L264.7,184.15z M266.55,191.6l0.3-0.399l-0.5,1.8L266.55,191.6z M264.3,194.4
		c0,1.6-0.95,2.983-2.85,4.149c-1.9,1.134-4.2,1.7-6.9,1.7l-0.05-0.1c2.5-0.967,4.267-1.7,5.3-2.2
		C261.9,196.884,263.4,195.7,264.3,194.4z M111.2,111.55c1.566,9.2-0.184,17.217-5.25,24.05c-5.034,6.834-11.317,9.65-18.85,8.45
		h-2.25c-2.333,0.566-4.65,0.217-6.95-1.05c-3.633-2.033-6.017-3.217-7.15-3.55l1.5-0.101c7.767,0.467,12.833,0.634,15.2,0.5
		l-0.25,0.101c0.733,0.366,1.767,0.55,3.1,0.55c4.4,0,7.517-0.616,9.35-1.85c3.267-2.2,5.9-7.034,7.9-14.5l0.3-1.45
		c-3.667,5.833-6.367,9.583-8.1,11.25c-2.5,2.434-6.1,4.3-10.8,5.6c3.933-2.233,7.066-4.416,9.4-6.55c2.5-2.667,4.617-4.9,6.35-6.7
		l1.7-4.1c1.333-4.066,2.217-6.816,2.65-8.25c0.733-2.334,1.117-4.533,1.15-6.6l1.55-1.25
		C111.383,107.133,111.2,108.95,111.2,111.55z M62.2,170.65c0.6-1.4,1.066-2.834,1.4-4.301l0.05-1.3c0,2,0.017,3.25,0.05,3.75
		c0.033,0.634,0.133,1.134,0.3,1.5c0.267,0.167,0.683,0.334,1.25,0.5c0.667,0.2,1.233,0.3,1.7,0.3c2.2-0.5,3.867-1.1,5-1.8
		l4.35-2.899c-1.5,2.6-4.333,4.3-8.5,5.1c-1,0.2-2.283,0.45-3.85,0.75c-1.067,0.3-1.583,0.767-1.55,1.4
		c0.033,0.133,0.667,0.6,1.9,1.399c0.833,0.566,1.017,1.816,0.55,3.75c-1.3,0.134-2.967,0.9-5,2.3c-2.1,1.434-3.667,2.217-4.7,2.351
		l-2.4-0.05L52,183.2c1.767-1.033,3.267-2.283,4.5-3.75c0.667-0.767,1.817-2.351,3.45-4.75c0.533-0.834,1.066-1.75,1.6-2.75
		L62.2,170.65z M83.3,159.05c1.233-1.3,2.217-3.066,2.95-5.3c0.567-1.8,0.833-3.267,0.8-4.4c0.067,1.167,0.133,1.75,0.2,1.75
		l0.2,5.851c0,3.066-1.633,6.666-4.9,10.8c-1.7,2.134-3.733,4.566-6.1,7.3c-0.133,0.3-0.633,1.267-1.5,2.9
		c-0.9,1.866-1.633,3.85-2.2,5.95c-0.5,1.666-2.017,3.85-4.55,6.55l-1.1,0.1c1.433-1.5,2.183-4.283,2.25-8.35
		c0.033-3.9,1.283-6.95,3.75-9.15c1.433-1.3,2.933-2.45,4.5-3.45c1.566-1.033,2.433-1.6,2.6-1.699
		c0.966-0.867,1.333-2.983,1.1-6.351L83.3,159.05z"/>
	<path style="fill-rule:evenodd;clip-rule:evenodd;fill:#76664D;" d="M347.65,53.7l-0.351-0.85L346.9,51.6L347.65,53.7z
		 M424.15,168.55c1.033-1.7,1.583-2.583,1.649-2.649c0.236-0.237,0.412-0.429,0.525-0.575L424.15,168.55z M280.8,208.55
		c-1.066-0.133-2.066-0.233-3-0.3l1.9,0.1C280.066,208.417,280.434,208.483,280.8,208.55z M294,210.6
		c0.441,0.067,0.675,0.101,0.7,0.101l0.8,0.175C294.99,210.782,294.49,210.69,294,210.6z M189,203.7l-0.625,0.45h-0.025L189,203.7z
		 M255.05,200.8c0.533,0.334,1.134,0.566,1.8,0.7c-1.3,0.733-2.583,1.384-3.85,1.95l2.75,0.7l-8.5-1.351
		c-1.866,0-5.066,0.617-9.6,1.851c-4.567,1.233-8.517,1.85-11.851,1.85c-0.566,0-3.233-0.55-8-1.65
		c-5.1-1.166-11.45-1.899-19.05-2.199c2.867-0.167,5.833-0.217,8.9-0.15c-1.867-0.533-3.217-2.283-4.05-5.25
		c-0.6-2.1-0.9-4.55-0.9-7.35c0-2.067,0.667-3.867,2-5.4c0.633-0.767,2.083-1.967,4.35-3.6c4.2-3.134,6.3-6.834,6.3-11.101
		c0-0.633-0.267-2.217-0.8-4.75c-0.533-2.566-1-4.416-1.4-5.55c1.167,1.833,2.15,3.616,2.95,5.35c0.5,0.834,1.4,1.25,2.7,1.25
		c5.7,0,10.4-1,14.101-3c5.366-2.866,9.566-4.683,12.6-5.449c0.2,0.566,2.467,3.85,6.8,9.85c4.233,5.833,6.533,9.5,6.9,11l0.25-0.45
		c0.934-4.833,5.5-11.649,13.7-20.45c8.066-7.866,12.116-11.8,12.149-11.8c2.967,0,6.983,3,12.05,9
		c4.767,5.634,7.15,9.467,7.15,11.5c0,2.367-0.616,4.15-1.85,5.351c-1.233,1.199-1.851,2.583-1.851,4.149
		c0,0.667,0.2,2.033,0.601,4.101c-0.334,0.399-1.284,1.216-2.851,2.449c-1.7,1.367-2.85,2.184-3.45,2.45
		c-3.6,0.033-6.517-0.166-8.75-0.6c-2.267-0.467-4.25-0.7-5.949-0.7c-0.334,0-2.25,0.116-5.75,0.35
		c-3.667,0.167-6.184,0.217-7.551,0.15l0.051-0.5c-0.634,2.333-1.25,4.95-1.851,7.85c-0.333,1.601-0.666,2.617-1,3.051
		c-0.899,1.3-2.399,2.483-4.5,3.55c-1.033,0.5-2.8,1.233-5.3,2.2l0.05,0.1c-0.899,0.267-1.767,0.45-2.6,0.55H255.05z M126,191.4
		l0.35,0.05c1.733-0.367,3.65-2.684,5.75-6.95c0.433-0.9,0.85-1.783,1.25-2.65c-0.434,1.434-0.65,2.817-0.65,4.15
		c0,0.066,0.716,1.9,2.15,5.5c1.9,3.6,4.1,5.4,6.6,5.4c1.033,0,3.433-1.584,7.2-4.75c3.867-3.267,6.4-5,7.6-5.2
		c3.733-0.4,7.383-0.851,10.95-1.351c7.033-0.933,11.25-1.699,12.65-2.3c-1.434,9.066-4.95,15.601-10.55,19.601
		c-1.733,1.233-4.1,2.5-7.1,3.8c-3.233,1.399-5.317,2.399-6.25,3c-1.067,0.066-2.8,0.149-5.2,0.25c-2.3,0.1-3.717,0.149-4.25,0.149
		c-3.467,0-6.483-0.449-9.05-1.35c-4.367-1.533-7.034-4.283-8-8.25c-0.467-3.7-0.817-6.017-1.05-6.95
		C128.133,192.517,127.333,191.8,126,191.4z M87.1,146.2c0,0.934-0.5,3.1-1.5,6.5c-1,3.434-1.767,5.55-2.3,6.35l-2,2.5
		c-0.1,0.101-0.667,0.634-1.7,1.601c-0.867,0.8-1.967,1.883-3.3,3.25l-4.35,2.899c-2.1,0.533-4.75,0.867-7.95,1
		c-0.167-0.366-0.267-0.866-0.3-1.5c-0.034-0.5-0.05-1.75-0.05-3.75l-0.05,1.3c-0.333,1.467-0.8,2.9-1.4,4.301
		c-0.633,0-1.167,0.399-1.6,1.199c-0.434,0.767-0.65,1.717-0.65,2.851c-1.633,2.399-2.784,3.983-3.45,4.75
		c-1.233,1.467-2.733,2.717-4.5,3.75l0.75,0.2l2.4,0.05c-2.066,2.967-6.3,4.95-12.7,5.95c-3.4,0.533-7.534,0.833-12.4,0.899
		c-7.633-4.1-13.333-7.217-17.1-9.35C4.85,176.283,0.533,173.8,0,173.5c0-0.366,0.317-1.1,0.95-2.2c0.933-1.566,2.2-3.184,3.8-4.85
		c1.3,3.267,4.267,5.616,8.9,7.05c4.434,0.8,6.667,1.2,6.7,1.2c1.333,0,2.9-0.584,4.7-1.75c1.833-1.2,3.2-1.8,4.1-1.8
		c4.867,0,8.533,1.883,11,5.649c1.567,2.334,2.45,3.617,2.65,3.851c1.067,1.166,2.383,1.75,3.95,1.75c2.533,0,5.1-1.534,7.7-4.601
		c2.367-2.8,3.55-5.184,3.55-7.149l-0.25-2.2c-2.167-0.066-3.283-0.117-3.35-0.15c-0.633-0.133-0.95-0.684-0.95-1.649
		c0-0.567,0.917-1.917,2.75-4.051c1.833-2.166,2.75-3.666,2.75-4.5c0-0.433-1.05-0.75-3.15-0.949c-1.267-0.101-3.6-0.267-7-0.5
		c-6.767-0.634-10.15-2.317-10.15-5.051c0-1.333,1.617-3.149,4.85-5.449c2.933-2.067,4.783-3.101,5.55-3.101
		c1.6,0,4.983,1.283,10.15,3.851c5.167,2.533,9.083,3.8,11.75,3.8c1.966,0,4.683-0.55,8.15-1.65
		C80.833,148.517,83.5,147.566,87.1,146.2z M76.45,175.05c1.4-1.066,2.867-1.85,4.4-2.35c1.533-0.4,2.65-0.733,3.35-1
		c2.233-0.934,4.5-3.967,6.8-9.101c2.933-7.133,4.717-11.433,5.35-12.899c0.3-0.7,0.75-1.483,1.35-2.351
		c-0.1,0.301-0.15,0.567-0.15,0.801c0,0.666,0.034,0.983,0.1,0.949c6.6,0.2,10.233,0.301,10.9,0.301c0.6,0,5.767-3.034,15.5-9.101
		c7.333-4.566,11.95-7.616,13.85-9.149c-0.267,1.566-0.667,3-1.2,4.3c-1,2.233-2.184,3.35-3.55,3.35l0.75-1.95l-0.35,0.851
		c-0.767,0.767-1.267,1.25-1.5,1.45c-0.5,0.433-1.3,0.983-2.4,1.649v-1.7l-0.95,2.301c-1.034,0.8-2.217,1.583-3.55,2.35
		c-1,0.833-2.017,2.517-3.05,5.05c-1.434,1.8-2.767,3.233-4,4.3c-0.533,0.601-0.8,1.9-0.8,3.9c0,1.833,0.167,3.65,0.5,5.45
		c0.267,1.566,0.367,2.633,0.3,3.2c-0.167,1.633-2.383,5.149-6.65,10.55l0.95-0.3l0.95-0.551l2.05-1.75l-1,1.65
		c-0.667,0.667-2.533,2.884-5.6,6.65c-4,4.899-6.983,8.866-8.95,11.899c-0.367,0.066-1.7,0.233-4,0.5
		c-2.467,0.267-3.917,0.4-4.35,0.4c-2.3,0-5.933-0.717-10.9-2.15c-5-1.434-7.817-2.149-8.45-2.149c-0.467,0-2.1,0.133-4.9,0.399
		c-2.733,0.267-4.367,0.434-4.9,0.5l4.75-0.75l1.1-0.1c3.333-0.367,6.483-1.566,9.45-3.601c2.667-2.166,4.35-3.483,5.05-3.949
		l-1.05-0.051c-1.133,0.267-2.3,0.767-3.5,1.5c-0.933,0.567-1.816,0.851-2.65,0.851c-0.4,0-0.85-0.101-1.35-0.3
		c-0.6-0.267-1.066-0.601-1.4-1c0.567-2.101,1.3-4.084,2.2-5.95C75.817,176.316,76.317,175.35,76.45,175.05z M135.2,45.25
		c-5.467-0.4-10.767-0.667-15.9-0.8c0.9-0.6,1.534-1.05,1.9-1.35c1.5-1.233,2.633-2.583,3.4-4.05c-0.3,0.6-0.65,1.184-1.05,1.75
		c4.067-0.466,7.267-0.683,9.6-0.65c4.033,0.1,8.017,1.1,11.95,3c-2.333-0.433-4.65-0.467-6.95-0.1
		c-2.133,0.367-3.617,0.934-4.45,1.7C134.067,44.95,134.567,45.117,135.2,45.25z M162.9,41.7c-0.3,0.033-0.867,0.033-1.7,0
		c-0.9,0-1.784,0.066-2.65,0.2c0.367,0.2,1,0.25,1.9,0.15l-1.9,0.25c-5.167-0.5-9.617-1.433-13.35-2.8c-3.333-1.2-5.25-1.8-5.75-1.8
		c-1.5,0-3.167,0.216-5,0.65c-1.833,0.4-3.733,0.6-5.7,0.6c-0.8,0-1.433-0.25-1.9-0.75c-0.667-0.667-0.934-1.717-0.8-3.15
		c0.934-1.733,4.067-4.583,9.4-8.55c4.333-3.167,7.017-5.017,8.05-5.55l1.85,0.1c-0.9,0.667-2.467,1.667-4.7,3
		c-1.767,1.233-2.65,2.317-2.65,3.25c0,1.467,1.767,2.7,5.3,3.7c3.367,0.967,7.284,1.45,11.75,1.45c2.567,0,4.883-0.8,6.95-2.4
		c2.3-2.267,4.133-4.033,5.5-5.3c5.367-5.167,12.733-7.75,22.1-7.75c1.233,0,1.95,0.533,2.15,1.6c0.2,1.066,1.15,1.6,2.85,1.6
		c6.7,0,12.617-1.6,17.75-4.8c5.566-3.467,8.383-7.833,8.45-13.1c3.134,1.2,8.05,2.583,14.75,4.15c6.3,1.466,10.117,2.2,11.45,2.2
		c-0.967,0.067-2.033,0.05-3.2-0.05l-1.45-0.15c-3.033-0.434-7-1.1-11.899-2c-3.767-0.667-5.934-1-6.5-1
		c-1.634,0-2.601,0.25-2.9,0.75c-0.333,0.5-0.616,2.3-0.85,5.4c-4.133,2.066-7.667,5.066-10.6,9c-2.633,3.566-5.184,5.75-7.65,6.55
		c-2.333,0-4.7,0.05-7.1,0.15c-4.4-0.3-10.517,1.75-18.35,6.15C172.4,35.75,167.867,38.5,162.9,41.7z M293.2,124.95l-0.45-12.9
		c0-4.966,0.417-8.15,1.25-9.55c0.167-0.3,1.833-1.767,5-4.4c2.1-1.767,3.884-4.317,5.35-7.65c0.801-1.867,3.2-3.117,7.2-3.75
		c-2.833,16.233-4.816,31.816-5.95,46.75c-0.399-0.101-1.633-0.566-3.699-1.4c-2.301-0.967-4-1.733-5.101-2.3
		C294.733,128.55,293.533,126.95,293.2,124.95z M152.5,104.1c-1,0.533-2.667,1.583-5,3.15c-1.933,1.3-3.25,2.05-3.95,2.25l-0.5,0.05
		c-1.267,0.033-3.333,0.017-6.2-0.05c-2.9,0.033-4.783,0.267-5.65,0.7l-0.35,0.2c-3.333,2.5-5.583,4.05-6.75,4.649
		c-1.067,0.566-2.283,0.851-3.65,0.851c-1.767,0-2.967-0.334-3.6-1c-0.567-0.567-0.817-1.617-0.75-3.15l-0.25,0.75l-3.8,5.6
		c0.333-5.199,0.367-8.533,0.1-10l-0.2,1.65c-0.2,0.6-0.45,1.2-0.75,1.8c0-2.6,0.183-4.417,0.55-5.45l-1.55,1.25
		c-0.034,2.067-0.417,4.266-1.15,6.6c-0.433,1.434-1.316,4.184-2.65,8.25l-1.7,4.1c-1.733,1.8-3.85,4.033-6.35,6.7
		c-2.333,2.134-5.467,4.316-9.4,6.55l-1.5,0.3c-2.367,0.134-7.434-0.033-15.2-0.5c-0.333-0.267-2.45-2.899-6.35-7.899l-0.15,2.2
		c0,3.833,1.6,6.949,4.8,9.35c2.7,2.033,5.583,3.05,8.65,3.05c1.4,0,3.283-0.666,5.65-2h2.25v1.851
		c-4.233,0.267-7.184,0.399-8.85,0.399c-3.867-0.033-7.033-0.434-9.5-1.2c-3.1-5.166-5.2-8.25-6.3-9.25l-0.4-1.149
		c-0.367-3.533-0.55-5.634-0.55-6.3c0-0.167,0.133-0.367,0.4-0.601c0.367-0.267,0.633-0.5,0.8-0.7
		c0.133,0.067,1.167,0.684,3.1,1.851c1.467,0.866,2.45,1.333,2.95,1.399l0.45-0.149c-1.4-8.566,0.733-15.75,6.4-21.55
		c5-5.101,10.767-7.65,17.3-7.65c2.267,0,4.883,1.75,7.85,5.25c3.7,4.4,5.667,6.684,5.9,6.85c1.067-1.767,2.467-4.767,4.2-9
		c1.5-3.733,2.25-5.717,2.25-5.95c0-2.333-0.817-5.483-2.45-9.45c-2.433-5.9-5.75-9.3-9.95-10.2c-0.833-0.333-1.684-0.633-2.55-0.9
		c3.633-2.8,6.9-7.684,9.8-14.65c2.367-6.767,3.667-10.5,3.9-11.2c1.4,5.867,2.517,10.817,3.35,14.85c0.3,0.9,0.667,1.433,1.1,1.6
		c0.233,0.066,0.967,0.1,2.2,0.1c1.3,0,2.4-0.867,3.3-2.6c0.967-2.4,1.817-4.284,2.55-5.65c3-5.5,8.583-8.25,16.75-8.25
		c2.8,0,5.917,0.983,9.35,2.95c3.433,1.933,5.867,2.9,7.3,2.9c0.167,0,3.25-1.383,9.25-4.15c6.333-2.933,10.45-4.683,12.35-5.25
		c3.9-1.133,7.583-2.283,11.05-3.45c4.9-1.633,7.733-2.566,8.5-2.8l-26.95,0.55l3.3-1.4c1.533-0.333,3.567-0.6,6.1-0.8
		c1.733-0.133,3.1-0.2,4.1-0.2c8.3,0.567,12.783,0.85,13.45,0.85c0.4,0,1.533-1.083,3.4-3.25c1.867-2.2,4.034-3.3,6.5-3.3
		c1.1,0,2.25,0.3,3.45,0.9c1.167,0.6,1.75,1.183,1.75,1.75c0,1.867-2.017,3.983-6.05,6.35c-2.733,1.6-6.684,3.45-11.85,5.55
		c2.533,0.333,4.583,0.5,6.15,0.5c1.533,0,3.083-0.1,4.65-0.3c1.733-0.267,3-0.583,3.8-0.95c-1,0.9-2.184,1.55-3.55,1.95
		c-0.767,0.2-1.95,0.483-3.55,0.85c-3.067,0.9-5.8,3.4-8.2,7.5c-4.333,7.434-7.733,12.6-10.2,15.5c-5.6,4.9-10.567,10.1-14.9,15.6
		c-4.133,5.233-6.566,8.15-7.3,8.75l-4.65,2.45C155.117,102.55,153.167,103.633,152.5,104.1z M276.5,15.8
		c2.434-0.4,4.017-0.65,4.75-0.75c1.033-0.167,2.8-0.25,5.3-0.25c1.101,0,4.15,0.7,9.15,2.1S304.8,19,308,19
		c1,0,1.684-0.083,2.05-0.25c0.467-0.2,0.7-0.617,0.7-1.25l-0.1-1.2c1.466-0.033,4.783,0.983,9.949,3.05
		c4.434,1.8,7.467,3.167,9.101,4.1c-0.767,2.767-1.2,4.233-1.3,4.4c-0.967,1.2-3.217,1.8-6.75,1.8c-0.267,0-6.233-2.083-17.9-6.25
		c-6.267-2.233-11.7-3.983-16.3-5.25c0.899,0.4,1.717,0.917,2.45,1.55l-3.101-0.65c2.134,0.967,4.283,2.45,6.45,4.45
		c1.667,1.533,3.184,2.35,4.55,2.45c0.2-0.1,0.384-0.167,0.55-0.2c-0.033-0.033-0.05-0.067-0.05-0.1
		c0.033,0.033,0.066,0.05,0.101,0.05c0.3-0.133,0.333-0.1,0.1,0.1c0.533,0.4,1.6,0.95,3.2,1.65c1.267,0.566,2.3,1.483,3.1,2.75
		l0.601,1.55c0.033,1.533-1.684,4.417-5.15,8.65c-2.6,3.133-5.366,6.1-8.3,8.9c-5.233,0.133-8.467,0.284-9.7,0.45l0.25,0.3
		c0.366,0.3,0.95,0.6,1.75,0.9c-2.7-0.333-5.033-1.483-7-3.45c-1.833-1.833-3.3-2.75-4.4-2.75c-7.233,0-13.783,2.083-19.649,6.25
		c-1.467,1.033-3.316,2.45-5.55,4.25c-1.733,1.3-3.15,1.95-4.25,1.95c-1.967,0-3.801-1.567-5.5-4.7c-1.601-2.9-2.417-5.75-2.45-8.55
		c0.033,0.1,0.416,0.7,1.149,1.8c0.7,1.067,1.117,1.667,1.25,1.8c1.4-2.466,3.95-4.35,7.65-5.65c3.4-1.167,6.733-1.566,10-1.2
		l0.05-1.65c0-5.033,1.233-9.033,3.7-12C262.55,23.017,268,21,275.6,21h6.601l-1.05-0.7c-1.667-0.133-2.983-0.583-3.95-1.35
		c-0.767-0.633-1.15-1.3-1.15-2c0-0.4,0.084-0.7,0.25-0.9l0.2-0.2c0.233,0.066,2.3,0.433,6.2,1.1
		C280.333,16.417,278.267,16.033,276.5,15.8z M296.95,37.05c2.733-2.233,3.217-5.966,1.45-11.2c-0.801,0.5-3.2,1.883-7.2,4.15
		c-2.467,1.4-4.733,2.917-6.8,4.55c-2.067,1.633-3.101,2.717-3.101,3.25c0,0.8,0.867,1.35,2.601,1.65
		c1.399,0.267,3.649,0.4,6.75,0.4C292.55,39.85,294.65,38.917,296.95,37.05z M339.15,119.05c-0.567-1-1.134-2.85-1.7-5.55
		c-0.634-3.066-0.834-5.517-0.601-7.35c-0.066-9.133,0.084-14.85,0.45-17.15c0.467-1.033,0.75-2.5,0.851-4.4l0.6,1.15
		c2.5,8.733,4.667,17.05,6.5,24.95c1.934,8.333,2.917,13.684,2.95,16.05c-1.7-1.7-3.617-3.384-5.75-5.05
		C340.316,120,339.217,119.116,339.15,119.05z M378.05,148.3c0.8-0.866,1.566-1.434,2.3-1.7c0.801-0.267,1.017,0.101,0.65,1.101
		c-0.5,1.733-1.417,3.833-2.75,6.3c-0.934,1.667-1.4,3.45-1.4,5.35c0,0.7,0.101,2.167,0.301,4.4c0.233,2.5,0.466,4.15,0.699,4.95
		c-2.066-1.7-3.466-2.917-4.199-3.65c-1.134-1.2-1.7-2.783-1.7-4.75c0-2.967,0.316-5,0.95-6.1c1.199-1.233,2.333-2.467,3.399-3.7
		l1.601-2.05C377.967,148.517,378.017,148.467,378.05,148.3z M350.4,128.95l-0.65-0.15l-0.95-0.399
		c-0.333-0.334-0.533-0.884-0.6-1.65L350.4,128.95z M325.1,162.9c0.801-0.233,2.117-0.851,3.95-1.851c2-1.066,3.367-1.6,4.101-1.6
		c0.767,0,1.483,0.35,2.149,1.05c0.733,0.767,1.101,1.75,1.101,2.95c0,1.133-0.801,2.5-2.4,4.1c-0.366,0.367-2.15,1.934-5.35,4.7
		c-5.2,4.5-7.834,8.483-7.9,11.95l3.15,0.3c-1.267,2.967-3.584,6.1-6.95,9.4c-1.767,1.699-3.767,3.583-6,5.649
		c-0.434-1.533-0.8-2.5-1.101-2.899c-0.166-0.233-0.25-0.467-0.25-0.7c0-1.033,0.634-5.033,1.9-12
		c1.233-6.634,1.967-10.367,2.2-11.2c-0.101,1.2-0.4,4.717-0.9,10.55c-0.366,4.066-0.566,7.017-0.6,8.851
		c0.6-0.834,1.583-3.051,2.95-6.65c1.699-4.533,3.083-7.917,4.149-10.15c3.7-7.733,8.017-12.433,12.95-14.1L325.1,162.9z
		 M289.35,71.55c0.067,0.1,1.584,2.85,4.551,8.25c0.5,3.767-1.067,8.034-4.7,12.8c-2.4,3.133-3.717,4.867-3.95,5.2
		c-1.2,1.867-1.8,3.517-1.8,4.95c0,0.767,0.1,2.083,0.3,3.95c-0.833,2.3-1.6,4.366-2.3,6.2c-0.267,0.966-0.4,2.733-0.4,5.3
		c0,4.366-0.184,7.833-0.55,10.399c-0.167,1.134-0.517,2.784-1.05,4.95c-0.233,0.233-1.884,1.634-4.95,4.2
		c-3.033,2.667-4.8,4.517-5.3,5.55c-1.467,0.267-4,0.9-7.601,1.9c-2.666,0.733-4.767,1.1-6.3,1.1c-0.866,0-3.366-0.616-7.5-1.85
		c-4.366-1.3-7.083-2-8.149-2.101c-2.601-0.3-4.65-1.933-6.15-4.899c-1.267-2.5-1.783-4.851-1.55-7.05l0.899,4.35
		c-0.833-4.467-1-10.017-0.5-16.65c0.634-8.1,2.184-15.566,4.65-22.399c6.733-18.534,18.333-27.8,34.8-27.8
		c2.601,0,5.483,0.483,8.65,1.45C284.45,70.55,287.417,71.283,289.35,71.55z M236,76.6l0.15-0.85c0.233-0.3,0.699-0.733,1.399-1.3
		l-1.149,1.7L236,76.6z M302,54.3c0.333,0.633,0.5,1.417,0.5,2.35c0,1.367-0.3,3.15-0.9,5.35c-0.633,2.2-0.949,3.783-0.949,4.75
		c0,0.7,0.25,1.6,0.75,2.7l-0.95-0.5c-1-1-1.917-2.233-2.75-3.7c-1.267-2.333-1.9-4.633-1.9-6.9c0-1.434,0.533-2.684,1.601-3.75
		c0.933-0.934,1.866-1.4,2.8-1.4C301,53.2,301.6,53.567,302,54.3z M239.25,11.25c1.3-1.1,2.333-2.033,3.1-2.8L241.7,9.9
		L239.25,11.25z M217.75,43.35c1.267-1.167,2.4-2.017,3.4-2.55c1.267-0.667,2.633-1,4.1-1c0.1,0,0.417,0.133,0.95,0.4
		c0.566,0.3,1.033,0.583,1.399,0.85c-0.267-0.133-0.55-0.167-0.85-0.1c-0.4,0.033-1.05,0.233-1.95,0.6l0.101-0.2
		c-2.034,0.267-3.834,0.683-5.4,1.25C218.7,42.867,218.116,43.117,217.75,43.35z M228.3,42.05c1.5,3.867,3.066,14.2,4.7,31
		c0,4.133-1.583,7.667-4.75,10.6c-2.333,2.167-5.967,4.3-10.9,6.4c-2.7,1.167-6.667,2.85-11.9,5.05c-0.667,0.333-1.284,0.667-1.85,1
		c-0.733,0.033-1.383,0.083-1.95,0.15l-0.7,0.1c0.3,0.133,0.7,0.35,1.2,0.65c-0.767,0.533-1.45,1.067-2.05,1.6l-0.15-0.8l-2.3,3.85
		c-0.933,1.533-1.4,2.333-1.4,2.4l0.55-0.45c-0.5,0.433-0.867,1.167-1.1,2.2c0,0.067-0.15,1.034-0.45,2.9
		c-0.833,1.533-6.317,3.166-16.45,4.899c-1.633,0-3.316-0.3-5.05-0.899c-2.567-0.9-3.85-2.2-3.85-3.9c0-0.399,0.333-1.533,1-3.4
		l0.95-2.7c0.7-0.967,1.833-3.05,3.4-6.25c1.667-3.4,2.667-5.75,3-7.05c-0.233,3.9-0.45,6.233-0.65,7l0.75-1.1
		c5.2-5.867,8.85-9.6,10.95-11.2c3.8-2.9,7.967-4.267,12.5-4.1c3.567,0.133,5.934-0.433,7.1-1.7c0.567-0.667,1.017-2.15,1.35-4.45
		c0.3-2.1,1.067-3.6,2.3-4.5c1.833-1.4,5.117-2.1,9.851-2.1c2.1,0,3.666-1.2,4.699-3.6c1.334-3.133,2-8.633,2-16.5
		c0-0.533-0.083-1.35-0.25-2.45C228.684,43.5,228.5,42.617,228.3,42.05z M164.45,46.25c-0.8,0.433-1.767,0.883-2.9,1.35
		c0.7-0.4,1.617-0.883,2.75-1.45l0.2-0.1l1.3-0.6C165.4,45.717,164.95,45.983,164.45,46.25z M140.65,77.05
		c-4.333,3.567-7.15,6.45-8.45,8.65c-0.867,1.433-1.95,3.867-3.25,7.3c5.267-3.333,11.716-5.2,19.35-5.6
		c3.9-0.2,6.434-0.417,7.6-0.65c2.5-0.467,4.55-1.433,6.15-2.9c1.434-1.3,3.65-2.55,6.65-3.75c4.5-1.867,7-2.917,7.5-3.15
		c5.8-2.967,8.7-7.833,8.7-14.6c0-1.434-0.65-2.383-1.95-2.85c-2.267-0.6-5.467-0.933-9.6-1c-5.733-0.067-10.667,0.683-14.8,2.25
		c-6.133,2.3-10.05,4.767-11.75,7.4c-0.533,0.8-1.25,2.1-2.15,3.9C143.617,73.783,142.283,75.45,140.65,77.05z M173.85,96.75
		l1.35-2.35l-2.15,4L173.85,96.75z M228.85,85.3l0.301-0.45l0.3-0.3L228.85,85.3z M214.05,134.55L212.9,137l0.7-1.65L214.05,134.55z
		 M230.95,125.5c-0.334-1.2-0.566-1.983-0.7-2.35c-0.033-0.134-0.316-1.567-0.85-4.301C229.5,119.316,230.017,121.533,230.95,125.5z
		 M245.35,156.25c-2.633-2.934-5.816-5.184-9.55-6.75c-2.967-1.267-5.767-1.934-8.399-2c3.899-0.167,7.533,0.517,10.899,2.05
		C242.134,151.25,244.483,153.483,245.35,156.25z M212.6,157.9l0.35-0.9l0.05,0.05L212.6,157.9z M307,178.1l-2.3-0.649l1.399,0.35
		L307,178.1z M193.2,144.35c-1,1.567-3.6,3.617-7.8,6.15c-3.833,2.333-6.217,4.717-7.15,7.15c-0.5,0.6-0.75,1.416-0.75,2.449
		c0,1.534,0.267,3.051,0.8,4.551c0.2,0.533,0.4,1,0.6,1.399c-8.167,0.167-18.35,0.117-30.55-0.149c-0.1,0-2.583,1.3-7.45,3.899
		c1.9-3.7,3.05-7.233,3.45-10.6c0.167-3.167,0.433-5.566,0.8-7.2l0.05-0.1v-0.051c0.133-0.3,0.383-1.017,0.75-2.149
		c0.367-1.033,0.566-1.617,0.6-1.75c2.034,1,5.7,1.684,11,2.05c2.733,0.167,6.35,0.25,10.85,0.25c1.167,0,3.767-1.417,7.8-4.25
		c4.033-2.866,6.85-4.3,8.45-4.3c0.667,0,1.367,0.366,2.1,1.1c0.7,0.7,1.233,1.05,1.6,1.05c1.066,0,1.767-0.133,2.1-0.399
		c0.367-0.3,0.55-0.917,0.55-1.851c0-3.133-1.533-5.033-4.6-5.699c-1.633-0.367-3.583-0.45-5.85-0.25l-3.95-1.75
		c-1.767-1.367-2.983-2.25-3.65-2.65c-1-0.566-3.583-0.866-7.75-0.9c3.5-0.899,6.633-0.483,9.4,1.25
		c0.733,0.467,1.717,1.15,2.95,2.051c1.034,0.666,1.983,1,2.85,1c3.967,0,6.9,0.399,8.8,1.199
		C192.667,137.316,194,140.15,193.2,144.35z M182.1,179.65c0.1-0.834,0.167-2.467,0.2-4.9c0.3,1.134,0.45,1.934,0.45,2.4
		C182.75,177.884,182.533,178.717,182.1,179.65z M224.75,148.1l-0.55,0.65l-0.851,0.55L224.75,148.1z M266.55,191.6
		c0.2-3.3,0.334-5.366,0.4-6.199l2.95,1.6c-0.267,0.467-0.884,1.55-1.851,3.25c-1.066,1.8-1.649,2.75-1.75,2.85l0.05-0.1l0.5-1.8
		L266.55,191.6z M264.7,184.15l0.75,0.55L266,185c0.434,0.167,0.767-0.167,1-1L264.7,184.15z M62.45,135.85
		c0.367,1.034,1.216,2.601,2.55,4.7c1.467,2.367,2.617,3.834,3.45,4.4c-1.733,0-3.2-0.917-4.4-2.75
		c-1.233-1.834-1.85-4.033-1.85-6.601L62.45,135.85z M136.7,175c-0.9,1.434-1.583,2.6-2.05,3.5c0.233-0.634,0.434-1.25,0.6-1.85
		C135.817,176.083,136.3,175.533,136.7,175z M138.3,171.95l0.55-0.351c-0.567,0.867-1.083,1.667-1.55,2.4
		C137.733,173.1,138.067,172.417,138.3,171.95z M105.4,137.5c3.533-4.5,6.167-7.7,7.9-9.6c3.767-4.134,8.684-7.034,14.75-8.7
		c-3.167,1.066-8.983,5.5-17.45,13.3C108.633,134.3,106.9,135.967,105.4,137.5z M113,169.65c-0.567-0.034-3-0.317-7.3-0.851
		c-4.3-0.467-7.1-0.7-8.4-0.7c-5.233,0-10.216,1.767-14.95,5.301c-3.867,2.866-5.867,5.083-6,6.649c8.767,0,14.95-0.267,18.55-0.8
		C100.633,178.35,106.667,175.15,113,169.65z"/>
	<path style="fill-rule:evenodd;clip-rule:evenodd;fill:#827155;" d="M135.2,45.25c3.066,0.467,7.667,1.85,13.8,4.15
		c5.767,2.133,8.917,3.2,9.45,3.2c0.466,0,4.617-1.2,12.45-3.6c9.1-2.767,16.833-4.8,23.2-6.1c-13.934,0.3-22.9,0.867-26.9,1.7
		l2.1-1.35c0.667-0.3,1.55-0.533,2.65-0.7L198.9,42c-0.767,0.233-3.6,1.167-8.5,2.8c-3.467,1.167-7.15,2.317-11.05,3.45
		c-1.9,0.567-6.017,2.317-12.35,5.25c-6,2.767-9.083,4.15-9.25,4.15c-1.433,0-3.867-0.967-7.3-2.9c-3.434-1.967-6.55-2.95-9.35-2.95
		c-8.167,0-13.75,2.75-16.75,8.25c-0.733,1.367-1.583,3.25-2.55,5.65c-0.9,1.733-2,2.6-3.3,2.6c-1.233,0-1.967-0.033-2.2-0.1
		c-0.433-0.167-0.8-0.7-1.1-1.6c-0.833-4.033-1.95-8.983-3.35-14.85c0.3-1.2,1.283-2.55,2.95-4.05c1.667-1.267,2.55-1.95,2.65-2.05
		l1.75-1.2c0.033,0,0.066,0,0.1,0C124.433,44.583,129.733,44.85,135.2,45.25z M87.1,146.2c-3.6,1.366-6.267,2.316-8,2.85
		c-3.467,1.101-6.184,1.65-8.15,1.65c-2.667,0-6.583-1.267-11.75-3.8c-5.167-2.567-8.55-3.851-10.15-3.851
		c-0.767,0-2.617,1.033-5.55,3.101c-3.233,2.3-4.85,4.116-4.85,5.449c0,2.733,3.383,4.417,10.15,5.051c3.4,0.233,5.733,0.399,7,0.5
		c2.1,0.199,3.15,0.517,3.15,0.949c0,0.834-0.917,2.334-2.75,4.5c-1.833,2.134-2.75,3.483-2.75,4.051
		c0,0.966,0.316,1.517,0.95,1.649c0.067,0.033,1.184,0.084,3.35,0.15l0.25,2.2c0,1.966-1.183,4.35-3.55,7.149
		c-2.6,3.066-5.167,4.601-7.7,4.601c-1.567,0-2.883-0.584-3.95-1.75c-0.2-0.233-1.083-1.517-2.65-3.851
		c-2.467-3.767-6.133-5.649-11-5.649c-0.9,0-2.267,0.6-4.1,1.8c-1.8,1.166-3.367,1.75-4.7,1.75c-0.033,0-2.267-0.4-6.7-1.2
		c-4.633-1.434-7.6-3.783-8.9-7.05L4.7,166.4l4.55-4.551c-0.064,0.067,0.236,0.101,0.9,0.101c2,0,4.85-0.7,8.55-2.101
		c3.6-1.466,5.783-2.3,6.55-2.5c2.067-0.5,4.217-0.649,6.45-0.449c3.066,0.233,5.7,0.267,7.9,0.1c0-0.1,0.1-0.233,0.3-0.4
		c0.2-0.233,0.333-0.416,0.4-0.55c-3.3-1.366-5.033-2.1-5.2-2.2c-2.133-1.199-3.2-2.616-3.2-4.25c0-5.399,2.833-10.433,8.5-15.1
		c4.934-4.066,9.217-6.1,12.85-6.1c0.833,0,2.233,0.75,4.2,2.25c2.167,1.633,3.75,3.283,4.75,4.949c0,2.567,0.617,4.767,1.85,6.601
		c1.2,1.833,2.667,2.75,4.4,2.75l0.35,0.2l-0.05-0.051c2.467,0.767,5.633,1.167,9.5,1.2c1.667,0,4.617-0.133,8.85-0.399l2.45-0.601
		L87.1,146.2z M73.25,147c-1.433-0.5-2.917-1.116-4.45-1.85c0.333,0.433,1.233,1.083,2.7,1.949c1.533,0.9,2.583,1.367,3.15,1.4
		l2.5-0.2C76.217,148,74.917,147.566,73.25,147z M220.8,2.3c-0.066,5.267-2.883,9.633-8.45,13.1c-5.133,3.2-11.05,4.8-17.75,4.8
		c-1.7,0-2.65-0.534-2.85-1.6c-0.2-1.067-0.917-1.6-2.15-1.6c-9.367,0-16.733,2.583-22.1,7.75c-1.367,1.267-3.2,3.033-5.5,5.3
		c-2.067,1.6-4.383,2.4-6.95,2.4c-4.466,0-8.383-0.483-11.75-1.45c-3.533-1-5.3-2.233-5.3-3.7c0-0.933,0.883-2.017,2.65-3.25
		c2.233-1.333,3.8-2.333,4.7-3c13.333-3.6,21.6-7.483,24.8-11.65c1.167-1.5,2.383-2.433,3.65-2.8c2.034-0.633,6.117-0.95,12.25-0.95
		c2.4,0,4.15,0.467,5.25,1.4c0.633,0.534,0.95,1.034,0.95,1.5c0,0.367-0.117,0.7-0.35,1c-0.333,0.434-0.55,0.767-0.65,1
		c0.6,1.1,2.867,1.817,6.8,2.15c0.5,0,1.333-0.45,2.5-1.35c1.534-1.267,2.85-2.3,3.95-3.1c4.433-3.267,9.333-5.433,14.7-6.5
		L220.8,2.3z M235.5,32.75l0.8,0.75c-0.133-3.933-0.2-6.233-0.2-6.9c0-3.467,1.167-6.684,3.5-9.65c3.2-3.367,5.667-6.133,7.4-8.3
		h4.55c13.267,1,21.867,1.75,25.8,2.25c4.934,0.6,16.034,2.35,33.301,5.25v0.15l0.1,1.2c0,0.633-0.233,1.05-0.7,1.25
		C309.684,18.917,309,19,308,19c-3.2,0-7.3-0.7-12.3-2.1s-8.05-2.1-9.15-2.1c-2.5,0-4.267,0.083-5.3,0.25
		c-0.733,0.1-2.316,0.35-4.75,0.75v0.05l-0.2,0.2c-0.166,0.2-0.25,0.5-0.25,0.9c0,0.7,0.384,1.367,1.15,2
		c0.967,0.767,2.283,1.216,3.95,1.35l1.05,0.7H275.6c-7.6,0-13.05,2.017-16.35,6.05c-2.467,2.967-3.7,6.967-3.7,12l-0.05,1.65
		c-3.267-0.367-6.6,0.033-10,1.2c-3.7,1.3-6.25,3.184-7.65,5.65c-0.133-0.133-0.55-0.733-1.25-1.8c-0.733-1.1-1.116-1.7-1.149-1.8
		c-0.5-1.733-0.75-3.1-0.75-4.1C235.134,36.35,235.4,33.983,235.5,32.75z M227.6,41.05c0.301,0.3,0.534,0.633,0.7,1
		c0.2,0.567,0.384,1.45,0.55,2.65c0.167,1.1,0.25,1.917,0.25,2.45c0,7.867-0.666,13.367-2,16.5c-1.033,2.4-2.6,3.6-4.699,3.6
		c-4.734,0-8.017,0.7-9.851,2.1c-1.233,0.9-2,2.4-2.3,4.5c-0.333,2.3-0.783,3.783-1.35,4.45c-1.167,1.267-3.533,1.833-7.1,1.7
		c-4.533-0.167-8.7,1.2-12.5,4.1c-2.1,1.6-5.75,5.333-10.95,11.2l-0.75,1.1c0.2-0.767,0.417-3.1,0.65-7v-0.2
		c0.067-0.733,0.2-1.667,0.4-2.8l0.2-0.65c6.533-3.967,11.017-6.917,13.45-8.85c3.967-3.1,6.717-7.3,8.25-12.6
		c1.4-4.867,4.633-9.05,9.7-12.55c3.067-1.967,5.417-3.483,7.05-4.55c2.967-1.9,5.467-3.784,7.5-5.65c0.9-0.367,1.55-0.566,1.95-0.6
		C227.05,40.883,227.333,40.917,227.6,41.05z M297.8,25.95l0.5-0.3c0,0.033,0.017,0.067,0.05,0.1
		C298.184,25.783,298,25.85,297.8,25.95z M296.95,37.05c-2.3,1.867-4.4,2.8-6.3,2.8c-3.101,0-5.351-0.133-6.75-0.4
		c-1.733-0.3-2.601-0.85-2.601-1.65c0-0.533,1.033-1.617,3.101-3.25c2.066-1.633,4.333-3.15,6.8-4.55c4-2.267,6.399-3.65,7.2-4.15
		C300.167,31.083,299.684,34.817,296.95,37.05z M313.7,172.75c0.833-1.866,2.25-3.767,4.25-5.7c2.333-2.3,4.616-3.649,6.85-4.05
		l0.3-0.1l7.15-1.65c-4.934,1.667-9.25,6.366-12.95,14.1c-1.066,2.233-2.45,5.617-4.149,10.15c-1.367,3.6-2.351,5.816-2.95,6.65
		c0.033-1.834,0.233-4.784,0.6-8.851C313.3,177.467,313.6,173.95,313.7,172.75z M231.95,130.4l-1-4.9
		c-0.934-3.967-1.45-6.184-1.55-6.65c-0.034-0.033-0.051-0.066-0.051-0.1c-0.333-1.467-0.649-3.417-0.949-5.85
		c-0.267-2.101-0.4-3.467-0.4-4.101c0-3.267,0.217-5.5,0.65-6.7c0.267-0.733,0.433-1.483,0.5-2.25l-0.051,5.55
		c0,3.767,0.634,8.333,1.9,13.7l0.55,1.351l-0.1-6.45c0-4.634,0.983-10.567,2.95-17.8c1.833-6.733,3.55-11.317,5.149-13.75
		c3.334-6.1,6.283-10.517,8.851-13.25c3-3.267,6.483-5.15,10.449-5.65c-5.333-0.233-8.25-0.35-8.75-0.35
		c-0.733,0-2.517,1.367-5.35,4.1c-2.7,2.567-5.483,5.517-8.35,8.85l1.149-1.7c4.967-5.767,8-9.067,9.101-9.9
		c2.533-1.9,6.166-2.85,10.899-2.85c8.733,0,15.033,0.35,18.9,1.05c7.767,1.4,12.283,4.35,13.55,8.85l-0.65-0.05
		c-1.933-0.267-4.899-1-8.899-2.2c-3.167-0.967-6.05-1.45-8.65-1.45c-16.467,0-28.066,9.267-34.8,27.8
		c-2.467,6.833-4.017,14.3-4.65,22.399c-0.5,6.634-0.333,12.184,0.5,16.65L231.95,130.4z M243.8,8.6l-2.1,1.3l0.649-1.45L243.8,8.6z
		 M160.5,48.05l1.05-0.45c1.133-0.467,2.1-0.917,2.9-1.35c-0.034,0.133-0.034,0.3,0,0.5C164.183,47.317,162.867,47.75,160.5,48.05z
		 M182.95,59.5c1.3,0.467,1.95,1.417,1.95,2.85c0,6.767-2.9,11.633-8.7,14.6c-0.5,0.233-3,1.283-7.5,3.15
		c-3,1.2-5.217,2.45-6.65,3.75c-1.6,1.467-3.65,2.433-6.15,2.9c-1.167,0.233-3.7,0.45-7.6,0.65c-7.633,0.4-14.083,2.267-19.35,5.6
		c1.3-3.433,2.383-5.867,3.25-7.3c1.3-2.2,4.117-5.083,8.45-8.65c-0.4,0.534-1.8,1.917-4.2,4.15c-2.3,2.3-3.65,4.233-4.05,5.8
		c0.934-0.167,4.434-2.517,10.5-7.05c6.9-5.167,11.567-8.417,14-9.75c1.533-0.833,6.85-2.233,15.95-4.2c7.4-1.567,11.1-3.233,11.1-5
		c0-0.467-0.05-0.75-0.15-0.85C183.8,60.117,183.517,59.9,182.95,59.5z M224.2,148.75l0.55-0.65l0.55-0.399
		c0.5-0.134,1.033-0.2,1.601-0.2c0.166,0,0.333,0,0.5,0c2.633,0.066,5.433,0.733,8.399,2c3.733,1.566,6.917,3.816,9.55,6.75
		l1.75,1.35l-1.6,0.051c-3.033,0.767-7.233,2.583-12.6,5.449c-3.7,2-8.4,3-14.101,3c-1.3,0-2.2-0.416-2.7-1.25
		c-0.8-1.733-1.783-3.517-2.95-5.35c-0.233-0.434-0.417-0.967-0.55-1.6l0.4-0.851c0.733,0.3,2.1,0.667,4.1,1.101
		c2.3,0.466,4.067,0.699,5.3,0.699c2.333,0,4.066-0.366,5.199-1.1c1.767-1.134,3.034-3.434,3.801-6.9l-3.45-1.199
		C225.616,148.884,224.366,148.583,224.2,148.75z M134.65,178.5c0.467-0.9,1.15-2.066,2.05-3.5c0.2-0.3,0.383-0.6,0.55-0.9
		c0.033-0.033,0.05-0.066,0.05-0.1c0.467-0.733,0.983-1.533,1.55-2.4l2.05-1.8c4.867-2.6,7.35-3.899,7.45-3.899
		c12.2,0.267,22.383,0.316,30.55,0.149c0.2,0.434,0.417,0.8,0.65,1.101l0.65,3.1v-1.7c0.5,1.134,1.05,2.684,1.65,4.65
		c0.167,0.566,0.316,1.083,0.45,1.55c-0.033,2.434-0.1,4.066-0.2,4.9c0,1-0.217,1.866-0.65,2.6c-0.434,0.7-0.967,1.05-1.6,1.05
		c-1.4,0.601-5.617,1.367-12.65,2.3c-3.567,0.5-7.217,0.95-10.95,1.351c-1.2,0.2-3.733,1.934-7.6,5.2
		c-3.767,3.166-6.167,4.75-7.2,4.75c-2.5,0-4.7-1.801-6.6-5.4c-1.434-3.6-2.15-5.434-2.15-5.5c0-1.333,0.216-2.717,0.65-4.15
		c0.267-1,0.65-2.017,1.15-3.05C134.533,178.7,134.583,178.6,134.65,178.5z M146.55,147.95c0-4.533,1.3-8.4,3.9-11.601
		c2.566-3.199,5.683-4.8,9.35-4.8c1.133-0.3,2.367-0.6,3.7-0.899l1.7-0.301c4.167,0.034,6.75,0.334,7.75,0.9
		c0.667,0.4,1.883,1.283,3.65,2.65c-1.9-0.801-3.7-1.601-5.4-2.4c-1.067-0.434-2.467-0.65-4.2-0.65
		c-4.533,0-8.583,1.284-12.15,3.851c-1.833,1.333-3.517,2.883-5.05,4.649l-0.5,0.65c10.333,0.767,16.3,1.15,17.9,1.15
		c0.633,0,1.85-0.417,3.65-1.25c2.4-1.167,6.35-2.25,11.85-3.25l-2.15-1c2.267-0.2,4.217-0.117,5.85,0.25
		c3.067,0.666,4.6,2.566,4.6,5.699c0,0.934-0.183,1.551-0.55,1.851c-0.333,0.267-1.034,0.399-2.1,0.399c-0.367,0-0.9-0.35-1.6-1.05
		c-0.733-0.733-1.433-1.1-2.1-1.1c-1.6,0-4.417,1.434-8.45,4.3c-4.034,2.833-6.633,4.25-7.8,4.25c-4.5,0-8.117-0.083-10.85-0.25
		C152.25,149.634,148.583,148.95,146.55,147.95z M100.7,78.5c4.2,0.9,7.517,4.3,9.95,10.2c1.633,3.966,2.45,7.117,2.45,9.45
		c0,0.233-0.75,2.217-2.25,5.95c-1.733,4.233-3.133,7.233-4.2,9c-0.233-0.166-2.2-2.449-5.9-6.85c-2.967-3.5-5.583-5.25-7.85-5.25
		c-6.533,0-12.3,2.55-17.3,7.65c-5.667,5.8-7.8,12.983-6.4,21.55l-0.45,0.149c-0.5-0.066-1.483-0.533-2.95-1.399
		c-1.933-1.167-2.966-1.783-3.1-1.851c-0.167,0.2-0.434,0.434-0.8,0.7c-0.267,0.233-0.4,0.434-0.4,0.601
		c0,0.666,0.183,2.767,0.55,6.3c-0.267-1-0.5-2.217-0.7-3.65c-0.167-1.3-0.25-2.233-0.25-2.8c0-1.8,0.267-3.116,0.8-3.95
		c0.533-0.866,0.8-2.916,0.8-6.149c0-7.134,4.45-14.05,13.35-20.75c8.133-6.133,15.417-9.2,21.85-9.2c1.8,0,3.583,0.3,5.35,0.9
		c3.5,1.167,6.05,3.267,7.65,6.3c-0.467-4.9-1.316-8.283-2.55-10.15C107.417,83.783,104.867,81.533,100.7,78.5z M105.4,137.5
		c1.5-1.533,3.233-3.2,5.2-5c8.467-7.8,14.283-12.233,17.45-13.3c2.8,0,5.184,0.783,7.15,2.35c1.966,1.566,2.95,3.467,2.95,5.7
		c0.467,1.167,0.7,2.1,0.7,2.8c0,0.167-0.317,0.533-0.95,1.101c-1.9,1.533-6.517,4.583-13.85,9.149
		c-9.733,6.066-14.9,9.101-15.5,9.101c-0.667,0-4.3-0.101-10.9-0.301c-0.066,0.034-0.1-0.283-0.1-0.949c0-0.233,0.05-0.5,0.15-0.801
		c0.833-1.267,1.95-2.699,3.35-4.3C102.617,141.017,104.067,139.167,105.4,137.5z M113,169.65c-6.333,5.5-12.367,8.699-18.1,9.6
		c-3.6,0.533-9.783,0.8-18.55,0.8c0.133-1.566,2.133-3.783,6-6.649c4.733-3.534,9.717-5.301,14.95-5.301c1.3,0,4.1,0.233,8.4,0.7
		C110,169.333,112.433,169.616,113,169.65z"/>
	<path style="fill-rule:evenodd;clip-rule:evenodd;fill:#928164;" d="M73.25,147c1.667,0.566,2.967,1,3.9,1.3l-2.5,0.2
		c-0.566-0.033-1.617-0.5-3.15-1.4c-1.467-0.866-2.367-1.517-2.7-1.949C70.333,145.884,71.817,146.5,73.25,147z M68.75,145.1
		l0.05,0.051l-0.35-0.2c-0.833-0.566-1.983-2.033-3.45-4.4c-1.333-2.1-2.183-3.666-2.55-4.7l-0.25-0.25
		c-1-1.666-2.583-3.316-4.75-4.949c-1.967-1.5-3.367-2.25-4.2-2.25c-3.633,0-7.917,2.033-12.85,6.1c-5.667,4.667-8.5,9.7-8.5,15.1
		c0,1.634,1.067,3.051,3.2,4.25c0.167,0.101,1.9,0.834,5.2,2.2c-0.066,0.134-0.2,0.316-0.4,0.55c-0.2,0.167-0.3,0.301-0.3,0.4
		c-2.2,0.167-4.833,0.134-7.9-0.1c-2.233-0.2-4.383-0.051-6.45,0.449c-0.767,0.2-2.95,1.034-6.55,2.5
		c-3.7,1.4-6.55,2.101-8.55,2.101c-0.664,0-0.964-0.033-0.9-0.101l7.15-6.699c0.1-0.101,0.2-0.2,0.3-0.301l0.8-0.699
		c0.9-0.9,2.2-2.184,3.9-3.851c2.167-2.166,3.517-3.55,4.05-4.149c0.133-0.167,0.216-0.284,0.25-0.351
		c2.167-2.899,3.867-5.566,5.1-8c1.034-2.233,1.784-3.783,2.25-4.649c1.4-2.467,5.517-5.834,12.35-10.101
		c2.467-1.533,8.75-7.233,18.85-17.1C74.45,95.983,82.333,89.2,87.9,85.6l4.5-3.15l5.75-4.85c0.867,0.267,1.717,0.566,2.55,0.9
		c4.167,3.033,6.716,5.283,7.65,6.75c1.233,1.867,2.083,5.25,2.55,10.15c-1.6-3.033-4.15-5.133-7.65-6.3
		c-1.767-0.6-3.55-0.9-5.35-0.9c-6.433,0-13.717,3.066-21.85,9.2c-8.9,6.7-13.35,13.617-13.35,20.75c0,3.233-0.267,5.283-0.8,6.149
		c-0.533,0.834-0.8,2.15-0.8,3.95c0,0.566,0.083,1.5,0.25,2.8c0.2,1.434,0.433,2.65,0.7,3.65l0.4,1.149
		C63.55,136.85,65.65,139.934,68.75,145.1z M145.35,21.05l-1.85-0.1c5.433-3.034,9.567-5.333,12.4-6.9
		c5.167-2.867,9.75-5.133,13.75-6.8C181.183,2.417,193.75,0,207.35,0c1.6,0,3.933,0.267,7,0.8c2.267,0.367,3.883,0.684,4.85,0.95
		c-5.367,1.067-10.267,3.233-14.7,6.5c-1.1,0.8-2.417,1.833-3.95,3.1c-1.167,0.9-2,1.35-2.5,1.35c-3.933-0.333-6.2-1.05-6.8-2.15
		c0.1-0.233,0.317-0.566,0.65-1c0.233-0.3,0.35-0.633,0.35-1c0-0.466-0.317-0.966-0.95-1.5c-1.1-0.933-2.85-1.4-5.25-1.4
		c-6.133,0-10.216,0.317-12.25,0.95c-1.267,0.367-2.483,1.3-3.65,2.8C166.95,13.567,158.683,17.45,145.35,21.05z M241.7,9.9l2.1-1.3
		c1.167,0.1,2.233,0.117,3.2,0.05c-1.733,2.167-4.2,4.934-7.4,8.3c-2.333,2.966-3.5,6.183-3.5,9.65c0,0.667,0.067,2.967,0.2,6.9
		l-0.8-0.75c-1.533-3.7-2.35-5.65-2.45-5.85l-0.3-0.9c0-4.067,0.634-7.533,1.9-10.4c1.267-2.9,2.8-4.35,4.6-4.35L241.7,9.9z
		 M229.15,99.85c0.033-0.367,0.033-0.75,0-1.15c0.267-3.067,0.517-5.3,0.75-6.7c0.333-2.7,0.75-4.9,1.25-6.6
		c0.866-3.1,2.483-6.033,4.85-8.8l0.4-0.45c2.866-3.333,5.649-6.283,8.35-8.85c2.833-2.733,4.616-4.1,5.35-4.1
		c0.5,0,3.417,0.117,8.75,0.35c-3.966,0.5-7.449,2.383-10.449,5.65c-2.567,2.733-5.517,7.15-8.851,13.25
		c-1.6,2.433-3.316,7.017-5.149,13.75c-1.967,7.233-2.95,13.166-2.95,17.8l0.1,6.45L231,119.1c-1.267-5.366-1.9-9.933-1.9-13.7
		L229.15,99.85z M224.8,41.55c-2.033,1.867-4.533,3.75-7.5,5.65c-1.633,1.066-3.983,2.583-7.05,4.55c-5.067,3.5-8.3,7.683-9.7,12.55
		c-1.533,5.3-4.283,9.5-8.25,12.6c-2.433,1.934-6.917,4.883-13.45,8.85c-0.5,0.267-0.783,0.517-0.85,0.75
		c-0.067,0.167-0.167,0.367-0.3,0.6l0.5-2c0.2-0.434,1.3-2.25,3.3-5.45c2.033-3.233,3.267-5.1,3.7-5.6
		c2.466-2.9,5.867-8.066,10.2-15.5c2.4-4.1,5.133-6.6,8.2-7.5c1.6-0.367,2.783-0.65,3.55-0.85c1.367-0.4,2.55-1.05,3.55-1.95
		l7.05-4.9c0.366-0.233,0.95-0.483,1.75-0.75c1.566-0.567,3.366-0.983,5.4-1.25L224.8,41.55z M167.2,44.6
		c4-0.833,12.966-1.4,26.9-1.7c-6.367,1.3-14.1,3.333-23.2,6.1c-7.833,2.4-11.983,3.6-12.45,3.6c-0.534,0-3.684-1.067-9.45-3.2
		c-6.133-2.3-10.733-3.683-13.8-4.15c-0.633-0.133-1.133-0.3-1.5-0.5c0.833-0.767,2.316-1.333,4.45-1.7
		c2.3-0.367,4.617-0.333,6.95,0.1c2.7,0.4,5.417,1.4,8.15,3c2.3,1.333,4.717,1.967,7.25,1.9c2.367-0.3,3.683-0.733,3.95-1.3
		c-0.034-0.2-0.034-0.367,0-0.5c0.5-0.267,0.95-0.533,1.35-0.8l-1.3,0.6c0.1-0.3,0.283-0.55,0.55-0.75
		C165.417,45.033,166.133,44.8,167.2,44.6z M140.65,77.05c1.633-1.6,2.967-3.267,4-5c0.9-1.8,1.617-3.1,2.15-3.9
		c1.7-2.633,5.617-5.1,11.75-7.4c4.133-1.567,9.067-2.317,14.8-2.25c4.133,0.067,7.333,0.4,9.6,1c0.566,0.4,0.85,0.617,0.85,0.65
		c0.1,0.1,0.15,0.383,0.15,0.85c0,1.767-3.7,3.433-11.1,5c-9.1,1.967-14.417,3.367-15.95,4.2c-2.433,1.333-7.1,4.583-14,9.75
		c-6.066,4.533-9.566,6.883-10.5,7.05c0.4-1.567,1.75-3.5,4.05-5.8C138.85,78.967,140.25,77.583,140.65,77.05z M180.55,135.65
		l2.15,1c-5.5,1-9.45,2.083-11.85,3.25c-1.8,0.833-3.017,1.25-3.65,1.25c-1.6,0-7.567-0.384-17.9-1.15l0.5-0.65
		c1.534-1.767,3.217-3.316,5.05-4.649c3.566-2.566,7.617-3.851,12.15-3.851c1.733,0,3.133,0.217,4.2,0.65c1.7,0.8,3.5,1.6,5.4,2.4
		L180.55,135.65z M213,157.05l-0.05-0.05l-0.35-0.55c0.7-0.233,2.267-1.2,4.7-2.9c3.601-2.566,5.617-3.983,6.05-4.25l0.851-0.55
		c0.166-0.167,1.416,0.134,3.75,0.9l3.45,1.199c-0.767,3.467-2.034,5.767-3.801,6.9c-1.133,0.733-2.866,1.1-5.199,1.1
		c-1.233,0-3-0.233-5.3-0.699C215.1,157.717,213.733,157.35,213,157.05z"/>
</g>
</svg>
