<?xml version="1.0" encoding="iso-8859-1"?>
<!-- Generator: Adobe Illustrator 15.1.0, SVG Export Plug-In . SVG Version: 6.00 Build 0)  -->
<!DOCTYPE svg PUBLIC "-//W3C//DTD SVG 1.1//EN" "http://www.w3.org/Graphics/SVG/1.1/DTD/svg11.dtd">
<svg version="1.1" id="Layer_1" xmlns="http://www.w3.org/2000/svg" xmlns:xlink="http://www.w3.org/1999/xlink" x="0px" y="0px"
	 width="78px" height="59.1px" viewBox="0 0 78 59.1" style="enable-background:new 0 0 78 59.1;" xml:space="preserve">
<g>
	<path style="fill-rule:evenodd;clip-rule:evenodd;fill:#4E512F;" d="M65.35,13.8c-0.066,0.467,0.134,0.8,0.601,1L66,14.85l2.1,0.35
		l2.051,0.3c0.933,0.2,1.566,0.35,1.899,0.45c0.767,0.233,1.267,0.5,1.5,0.8l-0.1,0.05l0.2,0.2c0,0.033,0.017,0.067,0.05,0.1
		c0,0.066-0.017,0.15-0.05,0.25c-0.167,0.5-0.45,0.733-0.851,0.7c0.3,0.1,0.55,0.25,0.75,0.45c0.134,0.167,0.217,0.4,0.25,0.7
		c0,0.1,0,0.2,0,0.3c-0.066,0.2-0.184,0.333-0.35,0.4c-0.2,0.033-0.467,0.033-0.8,0l0.149,0.75c-1.133-0.1-2-0.2-2.6-0.3
		c0,0.2,0.116,0.45,0.35,0.75c0.2,0.3,0.283,0.566,0.25,0.8c-0.133,0-0.283,0-0.45,0l-0.05,0.05c-0.434-0.067-0.75-0.1-0.95-0.1
		c-0.333-0.033-0.566,0.066-0.699,0.3c-0.134,0.2-0.15,0.567-0.051,1.1c-0.166,0.033-0.283,0.117-0.35,0.25
		c-0.066,0.167-0.134,0.267-0.2,0.3l-0.1,0.05L67.3,23.9c0.066-0.033,0.134-0.133,0.2-0.3c0.066-0.333-0.283-0.833-1.05-1.5
		c-0.667-0.533-1.184-0.85-1.55-0.95c0.933,0.233,1.733,0.283,2.399,0.15c-0.033-0.4-0.283-0.833-0.75-1.3
		c-0.533-0.467-0.899-0.817-1.1-1.05c0.233,0.1,0.583,0.233,1.05,0.4c0.434,0.167,0.816,0.2,1.15,0.1
		c-0.267-0.3-0.65-0.667-1.15-1.1c-0.733-0.6-1.15-0.95-1.25-1.05c0.866,0.434,1.866,0.65,3,0.65c0.233-0.6-0.066-1.15-0.9-1.65
		c-0.699-0.433-1.55-0.7-2.55-0.8l-2,0.95c-0.833,0.367-1.383,0.7-1.649,1L60.2,19.5c-0.467,0.267-0.834,0.483-1.101,0.65
		c-0.033,0.033-0.066,0.05-0.1,0.05c-0.533,0.267-0.967,0.316-1.3,0.15c-0.233-0.1-0.417-0.317-0.55-0.65
		c-0.134-0.333-0.301-0.567-0.5-0.7c-1.067,0.3-1.834,0.483-2.301,0.55c-0.8,0.067-1.166-0.367-1.1-1.3l-0.05,0.1h-0.025
		c-0.118,0.07-0.21,0.153-0.274,0.25l-0.2,0.15c-0.033,0-0.05,0.017-0.05,0.05l-0.101,0.1c-0.133,0.1-0.25,0.2-0.35,0.3
		c-0.066,0.033-0.117,0.083-0.15,0.15c-0.033,0-0.05,0.017-0.05,0.05c-0.233,0.167-0.417,0.317-0.55,0.45l-0.4,0.35H51
		c-1.134,0.733-1.783,0.55-1.95-0.55V19.6H49c0.134-0.3-0.066-0.517-0.6-0.65c-0.101-0.034-0.417-0.017-0.95,0.05
		c-0.367,0-0.634-0.1-0.8-0.3L45.8,19.2c-0.366,0.2-0.666,0.183-0.899-0.05c-0.134-0.1-0.2-0.333-0.2-0.7
		c-0.033-0.367-0.101-0.583-0.2-0.65c-0.033,0.233-0.033,0.784,0,1.65c-0.066,0.733-0.333,1.117-0.8,1.15
		c-0.3,0.033-0.483-0.05-0.55-0.25c0-0.3-0.017-0.533-0.051-0.7c-0.233,0.6-0.366,0.934-0.399,1c-0.167,0.267-0.467,0.434-0.9,0.5
		C41.4,21.183,41.134,21.133,41,21c-0.167-0.133-0.233-0.533-0.2-1.2c-0.066,0.133-0.184,0.233-0.35,0.3
		C40.217,20.2,40,20.167,39.8,20c0.134-0.167,0.217-0.467,0.25-0.9c0.033-0.5,0.066-0.867,0.101-1.1c0.533,0.433,0.866,0.683,1,0.75
		C41.616,19.05,42,19.133,42.3,19c0.233-0.1,0.367-0.367,0.4-0.8c0.033-0.5,0.066-0.85,0.1-1.05c0.167,0,0.267,0.05,0.3,0.15
		c0.034-0.9,0.15-1.6,0.351-2.1c0.267-0.667,0.767-1.15,1.5-1.45c0,0.733-0.066,1.7-0.2,2.9c0.3,0.2,0.75,0.2,1.35,0
		c0.534-0.2,0.934-0.467,1.2-0.8c-0.033,0.533-0.033,0.883,0,1.05c0.066,0.367,0.283,0.6,0.65,0.7c0.3,0.1,0.55,0.083,0.75-0.05
		c0.233-0.133,0.333-0.367,0.3-0.7c0.333,0.9,0.9,1.333,1.7,1.3c0.434-0.033,0.717-0.2,0.85-0.5c0.101-0.433,0.184-0.816,0.25-1.15
		c0.533,0.9,1.367,1.45,2.5,1.65c1.2,0.2,1.684-0.367,1.45-1.7c0.167,0.066,0.6,0.283,1.3,0.65c0.634,0.333,1.05,0.4,1.25,0.2
		c0.233-0.2,0.316-0.667,0.25-1.4c-0.033-1.033-0.05-1.566-0.05-1.6c0.767,0.333,1.533,0.55,2.3,0.65v-1.1l-0.149-1
		c0.1-0.2,0.25-0.283,0.449-0.25c0.067-0.067,0.25-0.1,0.551-0.1c0.1,0,0.166-0.2,0.199-0.6c0.067-0.767-0.25-1.433-0.949-2
		c0.333,0.1,0.533-0.133,0.6-0.7c0.066-0.6-0.1-0.967-0.5-1.1c0.267-0.067,0.434-0.25,0.5-0.55c0-0.4,0-0.683,0-0.85
		c0.1,0.367,0.134,0.716,0.1,1.05c-0.066,0.133-0.116,0.267-0.149,0.4c0.233-0.3,0.783-0.566,1.649-0.8
		c0.934-0.267,1.551-0.267,1.851,0c0.333,0.3,0.366,0.833,0.1,1.6c-0.033,0.133-0.267,0.65-0.7,1.55
		c-0.133,0.2-0.316,0.317-0.55,0.35c-0.033,0.1-0.05,0.183-0.05,0.25c-0.033,0.066-0.05,0.15-0.05,0.25l-0.25,0.25l0.1,0.15
		c-0.166,0.3-0.267,0.483-0.3,0.55c-0.033,0.034-0.066,0.067-0.1,0.1c-0.134,0.1-0.301,0.167-0.5,0.2
		c0.133,0,0.267,0.017,0.399,0.05c0.167,0,0.351,0.033,0.55,0.1c0.067,0.033,0.167,0.067,0.301,0.1l-0.7,0.1
		c-0.467-0.034-0.8-0.05-1-0.05c-0.367,0.033-0.566,0.217-0.601,0.55c-0.033,0.233,0.051,0.633,0.25,1.2
		c-0.3,0.3-0.85,0.45-1.649,0.45c-0.367,0.133-0.55,0.267-0.55,0.4s0.033,0.4,0.1,0.8c0.033,0.534-0.184,0.9-0.65,1.1
		c-0.6,0.1-1.066,0.2-1.399,0.3c0.866,0.1,1.7-0.15,2.5-0.75c0.166-0.133,0.816-0.767,1.95-1.9c0.233-0.233,0.483-0.4,0.75-0.5
		c0.133-0.066,0.383-0.15,0.75-0.25c0.399-0.133,0.8-0.433,1.199-0.9L65.35,13.8z M13.8,28.35c-0.233,0.066-0.533,0.117-0.9,0.15
		c0.1-0.1,0.267-0.4,0.5-0.9c0.767-0.033,1.5-0.184,2.2-0.45c0,0.033,0,0.267,0,0.7c-0.033,0.3,0,0.517,0.1,0.65
		c0.167,0.167,0.4,0.217,0.7,0.15c0.267-0.066,0.434-0.217,0.5-0.45c0.233,0.367,0.617,0.583,1.15,0.65c0.267,0,0.733-0.033,1.4-0.1
		l-0.05-0.3c0.033,0,0.45,0.117,1.25,0.35c0.533,0.133,0.967,0.184,1.3,0.15c0.367-0.034,0.583-0.117,0.65-0.25
		c0.033-0.233,0.05-0.467,0.05-0.7c0.6,0.067,0.983,0.033,1.15-0.1c0.133-0.1,0.2-0.316,0.2-0.65c0-0.467,0-0.733,0-0.8
		c0.133,0.1,0.333,0.35,0.6,0.75c0.267,0.267,0.55,0.267,0.85,0v0.7c0.033,0.167,0.183,0.3,0.45,0.4
		c0.267,0.067,0.567,0.05,0.9-0.05c0.367-0.133,0.583-0.317,0.65-0.55c-0.1,0.5,0.3,0.716,1.2,0.65c0.833-0.067,1.4-0.233,1.7-0.5
		c0.167,0.4,0.5,0.733,1,1c-0.467,0-0.767-0.184-0.9-0.55c-0.1,0.233-0.4,0.35-0.9,0.35c-0.367-0.033-0.583-0.05-0.65-0.05
		c-0.1,0-0.233,0.117-0.4,0.35c0,0.367-0.067,0.7-0.2,1c-0.333,0.1-0.667,0.1-1,0c-0.233-0.034-0.85-0.3-1.85-0.8
		c0,0.233-0.017,0.567-0.05,1c-0.033,0.399-0.2,0.633-0.5,0.699c-0.433,0.134-0.75,0-0.95-0.399c-0.167-0.5-0.284-0.85-0.35-1.05
		c-0.267,0.567-0.55,0.85-0.85,0.85c-0.333,0-0.483-0.3-0.45-0.9c-0.667,0.566-1.233,0.9-1.7,1c-0.533-0.033-0.917-0.05-1.15-0.05
		L19.2,30.65c-0.567-0.034-1.083-0.15-1.55-0.351c-0.433-0.166-0.683-0.367-0.75-0.6c-0.033-0.034-0.05-0.067-0.05-0.1
		c-0.767,0.2-1.533,0.15-2.3-0.15c-0.797-0.333-0.914-0.782-0.35-1.35c-0.07,0.067-0.153,0.118-0.25,0.15
		C13.917,28.283,13.867,28.317,13.8,28.35z M0.35,26.75c0.3-0.2,0.767-0.3,1.4-0.3c0.333,0,0.817,0.017,1.45,0.05
		c0-0.567,0.216-0.917,0.65-1.05c0-0.034,0.017-0.05,0.05-0.05s0.1-0.017,0.2-0.05h0.45c0.067,0,0.117,0,0.15,0
		c0.1,0,0.2,0.017,0.3,0.05c0.077,0.01,0.161,0.019,0.25,0.025c0.063,0.022,0.129,0.047,0.2,0.075l0.85,0.3
		c-0.066,0.633,0.167,1.017,0.7,1.15c0.5,0.133,0.833-0.133,1-0.8c0.2,0.267,0.467,0.483,0.8,0.65c0.4,0.2,0.733,0.267,1,0.2
		c0.067-0.033,0.184-0.15,0.35-0.35c0.133-0.167,0.267-0.283,0.4-0.35h1.05c-0.067,0.233-0.2,0.567-0.4,1
		c0.367,0.167,0.783,0.267,1.25,0.3c-0.467,0.3-0.917,0.467-1.35,0.5c-0.233,0.033-0.55,0.017-0.95-0.05
		c-0.4-0.066-0.683-0.1-0.85-0.1c-0.667,0.167-1.15,0.267-1.45,0.3l-0.7-0.1l-0.35-0.2c-0.367-0.233-0.617-0.4-0.75-0.5
		c-0.233-0.1-0.533-0.133-0.9-0.1c-1.4,0.1-2.566,0.033-3.5-0.2C1.117,26.95,0.683,26.817,0.35,26.75z M32.35,29.2
		c0.767,0.066,1.2-0.284,1.3-1.05c0.133-0.033,0.467-0.05,1-0.05c0.4,0,0.717-0.05,0.95-0.15c0.066-0.233,0.083-0.383,0.05-0.45
		c0.267,0,0.767-0.017,1.5-0.05c0.633-0.034,1.017-0.2,1.15-0.5c0.034-0.067,0.034-0.2,0-0.4c-0.033-0.167,0.017-0.3,0.15-0.4
		c0.167-0.1,0.55-0.117,1.149-0.05v-0.15c-0.267-0.034-0.5-0.117-0.7-0.25c-0.2-0.2-0.183-0.4,0.05-0.6
		c0.1-0.1,0.283-0.184,0.55-0.25l-0.35-0.35c0.699,0.133,0.816-0.167,0.35-0.9c-0.366-0.6-0.75-1.05-1.15-1.35
		c-0.133-0.1-0.633-0.35-1.5-0.75l-0.35-0.15l-0.2-0.15l-0.5-0.55c-0.466-0.467-0.983-0.767-1.55-0.9l-0.4-0.05
		c-0.167-0.034-0.45-0.05-0.85-0.05l-1.9,0.05c-0.667,0-1.05-0.083-1.15-0.25c0,0.066-0.034,0.066-0.1,0l-0.4-0.2
		c-0.2-0.1-0.35-0.183-0.45-0.25c-0.2-0.067-0.367-0.067-0.5,0c0,0.067-0.017,0.217-0.05,0.45c-1.233-0.233-2.184-0.35-2.85-0.35
		c-0.367,0.033-0.6,0.083-0.7,0.15c-0.033,0.067-0.133,0.25-0.3,0.55c-0.367,0.434-0.883,0.684-1.55,0.75H23
		c0.267-0.433,0.433-0.716,0.5-0.85c0.033-0.067,0.05-0.117,0.05-0.15c-0.267,0.034-0.566-0.066-0.9-0.3
		c-0.333-0.2-0.533-0.3-0.6-0.3c-0.233,0-0.683,0.066-1.35,0.2c-0.534,0.133-1.034,0.15-1.5,0.05c-0.1-0.133-0.15-0.284-0.15-0.45
		c-0.367-0.033-0.65-0.067-0.85-0.1c-0.333-0.033-0.6-0.117-0.8-0.25c0.133-0.133,0.283-0.367,0.45-0.7
		c0.133-0.367,0.267-0.617,0.4-0.75c0.133-0.1,0.283-0.184,0.45-0.25c0.133,0.2,0.167,0.6,0.1,1.2c0.7,0.267,1.767,0.083,3.2-0.55
		c-0.067,0.1-0.083,0.283-0.05,0.55c0.5,0.233,1.183,0.267,2.05,0.1c0.9-0.167,1.45-0.5,1.65-1c-0.1,0.433-0.1,0.7,0,0.8
		c0.167,0.3,0.583,0.367,1.25,0.2c0.667-0.133,1.067-0.35,1.2-0.65c-0.1,0.7,0.267,1.066,1.1,1.1c0.833,0.033,1.35-0.217,1.55-0.75
		c0,0.5,0.333,0.65,1,0.45c0.6-0.2,0.983-0.467,1.15-0.8c-0.033,0.7,0.367,1.017,1.2,0.95c0.733-0.066,1.133-0.583,1.2-1.55
		c0.034,0.5,0.167,0.95,0.4,1.35c0.3,0.433,0.667,0.667,1.1,0.7c0.434,0.133,0.7,0.067,0.8-0.2c0,1.133,0.433,1.717,1.3,1.75
		l0.5-0.05c-0.134,0.267-0.317,0.45-0.55,0.55c-0.3,0.1-0.75,0.033-1.35-0.2c-0.633-0.233-1.067-0.517-1.3-0.85
		c0.566,1.233,1.583,1.95,3.05,2.15L39.4,22c0.533,0.067,0.883,0.15,1.05,0.25c0.267,0.167,0.383,0.5,0.35,1
		c0.4,0.133,0.75,0.35,1.05,0.65c0.367,0.367,0.467,0.733,0.301,1.1c-0.134,0.333-0.384,0.417-0.75,0.25l-0.051,0.3l0.101,1.35
		c0.066,0.733,0,1.233-0.2,1.5l-0.05,0.05l-0.25,0.2c-0.4,0.167-1,0.184-1.8,0.05c-0.867-0.233-1.484-0.367-1.851-0.4
		c0.034,0.6-0.117,1.1-0.45,1.5c-0.333,0.434-0.8,0.617-1.4,0.55c-0.434-0.033-0.717-0.183-0.85-0.45c-0.067-0.167-0.117-0.5-0.15-1
		c-0.167,0.3-0.467,0.517-0.9,0.65c-0.5,0.1-0.867,0.017-1.1-0.25L32.35,29.2z M67,24c0.434,0,0.75-0.05,0.95-0.15
		c1.7-0.133,2.633-0.05,2.8,0.25c0.3,0.467,0.1,0.8-0.6,1c-0.867,0.1-1.367,0.167-1.5,0.2c-0.167,0.067-0.467,0.267-0.9,0.6
		c-0.366,0.267-0.7,0.434-1,0.5c-0.667,0.133-1.066,0.083-1.2-0.15c-0.333,0.267-1.033,0.333-2.1,0.2v-0.3
		c-0.601,0.4-1.4,0.667-2.4,0.8c-1.166,0.066-2.017,0.117-2.55,0.15c-1.267,0-1.967,0.05-2.1,0.15V27
		c-0.034,0.033-0.067,0.05-0.101,0.05l-0.25,0.1c-0.133,0.033-0.267,0.05-0.399,0.05c-0.034,0-0.084,0-0.15,0h-0.15
		c-0.1,0-0.183,0-0.25,0c-0.1,0-0.199,0-0.3,0c-0.333,0-0.6-0.017-0.8-0.05c-0.4-0.066-0.667-0.167-0.8-0.3l-0.2-0.3
		c0.267-0.5,0.7-0.7,1.3-0.6c-0.033,0.133-0.033,0.25,0,0.35c0.5,0.2,1.017,0.284,1.55,0.25c0.634-0.033,0.884-0.316,0.75-0.85
		c0.167-0.1,0.551-0.1,1.15,0c0.533,0.066,0.884,0.017,1.05-0.15c0.167-0.133,0.267-0.333,0.3-0.6
		c0.034-0.233-0.017-0.434-0.149-0.6c0.333,0.2,0.8,0.35,1.399,0.45c0.567,0.067,1.034,0.067,1.4,0c0.1-0.233,0.083-0.466-0.05-0.7
		c1.066,0.3,1.983,0.417,2.75,0.35c0.033-0.233,0-0.45-0.101-0.65c-0.166-0.233-0.3-0.417-0.399-0.55
		c0.166,0.033,0.633,0.183,1.399,0.45C66.116,23.933,66.667,24.033,67,24z"/>
	<path style="fill-rule:evenodd;clip-rule:evenodd;fill:#6D7247;" d="M63.7,11.35c0,0.066,0,0.117,0,0.15
		c-0.101,0.167-0.217,0.4-0.351,0.7c-0.033,0.033-0.066,0.066-0.1,0.1c0.033-0.066,0.134-0.25,0.3-0.55l-0.1-0.15L63.7,11.35z
		 M70.35,21.9c-0.1,0.233-0.216,0.517-0.35,0.85c-0.1,0.2-0.2,0.367-0.3,0.5c0.133-0.2,0.333-0.633,0.6-1.3L70.35,21.9z M65.35,13.8
		l-0.5-0.4c-0.233-0.2-0.55-0.383-0.949-0.55c-0.134-0.033-0.233-0.067-0.301-0.1C64.2,12.883,64.783,13.233,65.35,13.8z M61.5,6.7
		c-0.2-0.633-0.566-1.133-1.1-1.5c1,0.6,1.399,1.45,1.199,2.55C61.634,7.417,61.6,7.067,61.5,6.7z M68.1,15.2L66,14.85l-0.05-0.05
		L68.1,15.2z M73.7,17.1c-0.033-0.033-0.05-0.067-0.05-0.1l-0.101-0.25c-0.233-0.3-0.733-0.567-1.5-0.8
		C72.184,15.983,72.267,16,72.3,16c0.634,0.233,1.05,0.483,1.25,0.75C73.616,16.85,73.667,16.967,73.7,17.1z M73.55,18.5
		c-0.2-0.2-0.45-0.35-0.75-0.45c0.4,0.034,0.684-0.2,0.851-0.7c-0.101,0.433-0.317,0.683-0.65,0.75
		C73.233,18.167,73.417,18.3,73.55,18.5z M72.4,21.85l0.05-0.05c0.333-0.133,0.45-0.517,0.35-1.15L72.65,19.9
		c0.3,1.067,0.25,1.7-0.15,1.9C72.469,21.8,72.436,21.817,72.4,21.85z M24.2,32.9c0.2,0.066,0.4,0.116,0.6,0.149
		c-0.133,0-0.267-0.017-0.4-0.05C24.333,32.967,24.267,32.934,24.2,32.9z M16.9,29.7c0.067,0.233,0.317,0.434,0.75,0.6
		c0.467,0.2,0.983,0.316,1.55,0.351c0.3,0.033,0.566,0.033,0.8,0c-0.433,0.1-0.967,0.066-1.6-0.101C17.5,30.384,17,30.1,16.9,29.7z
		 M7.15,28.15l0.7,0.1c2.2,0.3,3.883,0.383,5.05,0.25c0.367-0.033,0.667-0.083,0.9-0.15c-0.6,0.2-1.716,0.267-3.35,0.2
		c-1.434-0.1-2.767-0.267-4-0.5L7.15,28.15z M3.2,26.5c-0.633-0.033-1.117-0.05-1.45-0.05c-0.633,0-1.1,0.1-1.4,0.3L0,27.15
		c0.2-0.433,0.667-0.667,1.4-0.7C1.8,26.417,2.4,26.433,3.2,26.5z M5.45,25.5c-0.071-0.028-0.138-0.053-0.2-0.075
		c0.477,0.071,1.11,0.163,1.9,0.275C6.983,25.733,6.417,25.667,5.45,25.5z M36.3,21.2l0.2,0.15l0.15,0.15
		c0.067,0.067,0.15,0.2,0.25,0.4c0.067,0.133,0.184,0.25,0.35,0.35s0.45,0.25,0.85,0.45c0.367,0.2,0.5,0.483,0.4,0.85
		c-0.133,0.567-0.583,0.75-1.35,0.55c0.2,0.233,0.25,0.816,0.15,1.75c-1.033,0.3-2.083,0.233-3.15-0.2
		c0.067,1.233-0.767,1.6-2.5,1.1c-1.667-0.5-2.367-1.15-2.1-1.95c-0.167,0.434-0.517,0.784-1.05,1.05
		c-0.533,0.3-1.05,0.383-1.55,0.25c0.033-0.5,0.283-1.117,0.75-1.85c-0.1-0.1-0.434-0.133-1-0.1c-0.5,0.067-0.767-0.017-0.8-0.25
		c-0.033-0.3,0.2-0.55,0.7-0.75c-1.3,0.1-2.083,0.217-2.35,0.35c0.033,0.233,0.067,0.617,0.1,1.15c0,0.033,0.117,0.15,0.35,0.35
		c0.133,0.133,0.183,0.283,0.15,0.45c-0.067,0.133-0.184,0.183-0.35,0.15s-0.283-0.017-0.35,0.05c-0.167,0.167-0.25,0.434-0.25,0.8
		c-1.033,0.1-2.017-0.217-2.95-0.95c0,0.733-0.1,1.233-0.3,1.5c-0.566-0.067-1.017-0.333-1.35-0.8c-0.333-0.6-0.617-1.05-0.85-1.35
		c-0.067,0.167-0.15,0.467-0.25,0.9c-0.1,0.4-0.284,0.583-0.55,0.55c-0.467-0.033-0.816-0.583-1.05-1.65
		c-0.133,0.367-0.4,0.717-0.8,1.05c-0.433,0.333-0.833,0.483-1.2,0.45v-1.5c-0.2,0.067-0.483,0.217-0.85,0.45
		c-0.367,0.2-0.65,0.333-0.85,0.4c-0.2-0.2-0.083-0.683,0.35-1.45c-0.367,0.1-0.8,0.117-1.3,0.05c0-0.3,0.233-0.617,0.7-0.95
		c-1.2,0.233-2.2,0.267-3,0.1c0.033-0.233,0.233-0.417,0.6-0.55c0.533-0.233,0.817-0.367,0.85-0.4l-0.5-0.1
		c0.033,0,0.066-0.017,0.1-0.05c0.566-0.3,1.233-0.417,2-0.35c0.367,0.034,0.9,0.133,1.6,0.3c0.6,0.066,0.983-0.133,1.15-0.6
		c0.5-0.033,1.183,0.167,2.05,0.6c0-0.1,0.067-0.283,0.2-0.55c0.1-0.233,0.15-0.417,0.15-0.55c0.2,0.067,0.417,0.133,0.65,0.2
		c0.133,0.066,0.25,0.216,0.35,0.45c0.066-1.066,0.95-1.267,2.65-0.6c1.633,0.7,2.583,1.45,2.85,2.25
		c-0.067-0.533,0.133-0.966,0.6-1.3v-0.45c-0.5-0.066-0.883-0.133-1.15-0.2c-0.367-0.1-0.65-0.233-0.85-0.4
		c0.267,0.2,0.783,0.367,1.55,0.5c0.2-0.467,0.35-0.767,0.45-0.9c0.233-0.267,0.55-0.316,0.95-0.15l0.1,0.05
		c0.133-0.667,0.833-0.784,2.1-0.35l-0.25,0.2c0.161,0.291,0.403,0.441,0.725,0.45c-1.484,0.005-2.276,0.406-2.375,1.2
		c0.4,0.267,1.133,0.433,2.2,0.5c1.067,0.033,1.817-0.067,2.25-0.3c-0.167,0.1-0.5,0.434-1,1c0.2,0.2,0.483,0.25,0.85,0.15
		c0.267-0.1,0.517-0.267,0.75-0.5c0.267,0.934,0.883,1.317,1.85,1.15c0.066-0.8,0.017-1.3-0.15-1.5c0.433,0.466,0.867,0.7,1.3,0.7
		c0.1-0.4,0.067-0.767-0.1-1.1c-0.033-0.066-0.267-0.4-0.7-1c0.233-0.167,0.683-0.2,1.35-0.1v-0.3l0.1,0.15
		c0.2,0.1,0.383,0.15,0.55,0.15L36.3,21.2z M26,20.95c0.233,0.033,0.333-0.017,0.3-0.15c-0.033-0.133-0.133-0.25-0.3-0.35
		C25.967,20.583,25.967,20.75,26,20.95z M34.25,19.75L34.4,20l-0.6-0.05h-0.1l0.15-0.25L34.25,19.75z M33,19.65l0.4,0.3l-1.65-0.1
		V19.7H31.1l0.25,0.1H31.3c-0.867-0.066-1.533-0.083-2-0.05c0.1-0.133,0.284-0.233,0.55-0.3c0.066,0.066,0.1,0.066,0.1,0
		c0.1,0.167,0.483,0.25,1.15,0.25L33,19.65z M21.3,16.75c-0.3,0.133-0.733,0.133-1.3,0c-0.2-0.033-0.383-0.05-0.55-0.05
		c0.1-0.034,0.216-0.034,0.35,0C20.533,16.833,21.033,16.85,21.3,16.75z M52.8,7.4V7.3l-1.85,0.15
		c-0.767,0.267-1.134,0.683-1.101,1.25c-0.433,0.066-0.767,0.15-1,0.25c0.291,0.323,0.816,0.456,1.575,0.4
		c-0.751,0.08-1.143,0.33-1.175,0.75c0,0.333,0.167,0.517,0.5,0.55c0.233,0.033,0.467,0,0.7-0.1c-0.233,0.133-0.45,0.333-0.65,0.6
		c-0.267,0.434-0.267,0.767,0,1c0.334,0.333,0.684,0.25,1.05-0.25c0.267-0.3,0.467-0.683,0.601-1.15
		c0.066,0.067,0.184,0.283,0.35,0.65c0.167,0.4,0.316,0.65,0.45,0.75c0.233,0.233,0.517,0.417,0.85,0.55
		c0.5,0.233,0.834,0.216,1-0.05c0.067-0.1,0.084-0.233,0.051-0.4c-0.034-0.2,0.017-0.35,0.149-0.45
		c0.101-0.066,0.351-0.083,0.75-0.05c0.5,0.033,0.783,0.05,0.851,0.05c0.233-0.7-0.017-1.183-0.75-1.45
		C54.25,10.183,53.634,10,53.3,9.8l-2.2-0.85l-0.149-0.1c1.066,0,1.684-0.3,1.85-0.9c3.134,1.3,4.533,2.2,4.2,2.7
		c-0.134,0.267-0.333,0.267-0.6,0c0.566,0.7,0.816,1.583,0.75,2.65c-0.367,0.1-0.817,0.05-1.351-0.15c-0.6-0.233-1.05-0.4-1.35-0.5
		c-0.033,0.3-0.017,0.7,0.05,1.2c0,0.367-0.2,0.583-0.6,0.65c-0.4,0.067-0.867,0-1.4-0.2c-0.434-0.133-0.717-0.3-0.85-0.5
		c0.233,0.9-0.034,1.267-0.801,1.1c-0.866-0.167-1.333-0.667-1.399-1.5c-0.101,0.633-0.533,0.867-1.3,0.7
		c-0.034-0.233,0-0.55,0.1-0.95c0.066-0.433,0.1-0.75,0.1-0.95c-0.5,0.267-0.899,0.45-1.199,0.55c-0.567,0.167-0.967,0.133-1.2-0.1
		c0.267-0.5,0.717-1.05,1.35-1.65c0.967-0.867,1.483-1.35,1.55-1.45c-0.633,0.1-1.116,0.117-1.449,0.05
		c0.1-0.3,0.483-0.767,1.149-1.4c0.634-0.534,0.934-1.034,0.9-1.5c0,0.3-0.217,0.45-0.65,0.45c-0.467,0-0.783,0-0.95,0
		c-0.199,0.7-0.333,1.1-0.399,1.2C47.25,8.683,46.967,8.567,46.6,8c0.167,1.3,0.233,2.117,0.2,2.45c-0.366,0.1-0.8,0.083-1.3-0.05
		c-0.5-0.167-0.866-0.4-1.1-0.7c0.333,0.7,0.466,1.566,0.399,2.6c-0.233,0.133-0.616,0.117-1.149-0.05
		c-0.7-0.233-1.084-0.35-1.15-0.35c0.167,0.5,0.2,0.967,0.1,1.4c-0.533,0.1-0.916,0-1.149-0.3c0.233,0.533,0.283,1.067,0.149,1.6
		c-0.433,0.133-1.133-0.117-2.1-0.75c-0.033,0.267-0.083,0.717-0.15,1.35c-0.1,0.5-0.417,0.7-0.95,0.6
		c-0.867-0.133-1.35-1.017-1.45-2.65c0,0.467-0.117,0.867-0.35,1.2c-0.3,0.433-0.667,0.583-1.1,0.45s-0.65-0.5-0.65-1.1
		c-0.033-0.667-0.15-1.067-0.35-1.2c-0.267,0.667-0.433,1.067-0.5,1.2c-0.333,0.5-0.683,0.65-1.05,0.45
		c-0.333-0.167-0.434-0.9-0.3-2.2c-0.1,0.533-0.367,1.033-0.8,1.5c-0.533,0.533-1.05,0.7-1.55,0.5c-0.066-0.367-0.066-0.85,0-1.45
		c0.1-0.733,0.15-1.2,0.15-1.4c-1.067,1.267-1.617,1.917-1.65,1.95c-0.767,0.733-1.483,1.117-2.15,1.15v-0.25
		c-0.433,0.333-0.95,0.55-1.55,0.65c-0.6,0.133-1.133,0.133-1.6,0c0.1-0.5,0.3-0.917,0.6-1.25c-0.767,0.8-1.583,1.367-2.45,1.7
		c0.1,0.034,0.233,0.067,0.4,0.1c-0.267-0.033-0.466-0.083-0.6-0.15c0.066-0.067,0.133-0.217,0.2-0.45c0.033-0.2,0.1-0.35,0.2-0.45
		c-1.2-0.033-2.167-0.15-2.9-0.35c-0.3-0.067-0.55-0.15-0.75-0.25c0.1-0.4,0.65-0.517,1.65-0.35c-0.833-0.3-1.267-0.816-1.3-1.55
		c0-0.767,0.517-1.05,1.55-0.85c-0.533-0.2-0.917-0.583-1.15-1.15C19.417,9.367,20,9.3,20.7,9.4c0.633,0.067,1.183,0.267,1.65,0.6
		c0.033-0.667,0.083-1.167,0.15-1.5l0.35,0.05c-0.467-0.233-0.7-0.617-0.7-1.15c0.033-0.367,0.1-0.566,0.2-0.6
		c0.2,0,0.35-0.05,0.45-0.15c0.333-0.1,0.583-0.283,0.75-0.55c0.067-0.1,0.083-0.3,0.05-0.6c0-0.333,0.017-0.55,0.05-0.65
		c0.2-0.033,0.767,0,1.7,0.1c0.066-0.6,0.15-1.017,0.25-1.25c2.2,1.033,3.517,1.767,3.95,2.2c-0.267-0.467-0.316-0.967-0.15-1.5
		c1.333-0.066,2.383,0.217,3.15,0.85c0.034-0.067,0.083-0.417,0.15-1.05c0.033-0.367,0.267-0.6,0.7-0.7
		c0.3-0.067,0.733,0.05,1.3,0.35c0.566,0.3,1,0.417,1.3,0.35l0.1-0.65c0.066,0,0.183-0.017,0.35-0.05c0.167-0.033,0.3-0.033,0.4,0
		c-0.5-0.633-0.217-0.967,0.85-1c0.6-0.033,1.366-0.017,2.3,0.05c-0.2-0.4-0.25-0.816-0.15-1.25c0.334-0.033,0.817-0.017,1.45,0.05
		c0-0.467,0.267-0.717,0.8-0.75c0.334-0.033,0.801,0,1.4,0.1l-0.05,0.05c0.5-0.2,1-0.25,1.5-0.15c0.5,0.066,0.733,0.283,0.7,0.65
		c0.199-0.433,0.55-0.767,1.05-1c0.566-0.267,1.066-0.3,1.5-0.1c0.434,0.2,0.75,0.65,0.95,1.35c0.066,0.3,0.149,0.85,0.25,1.65
		c0.6-0.5,1.066-0.333,1.399,0.5c0.3,0.833,0.25,1.633-0.149,2.4c0.833-0.667,1.816-1.066,2.949-1.2V6.6
		c0.167,0.033,0.417,0.05,0.75,0.05c0.233,0.067,0.317,0.233,0.25,0.5C54.533,7.45,53.934,7.533,52.8,7.4z M59.5,4.8
		c-0.3-0.1-0.616-0.183-0.95-0.25c-1.566-0.233-2.7,0.133-3.399,1.1C56.017,4.383,57.4,4.067,59.3,4.7
		C59.366,4.733,59.434,4.767,59.5,4.8z M67,24l-0.6-0.05L67.3,23.9l0.65-0.05C67.75,23.95,67.434,24,67,24z M53.2,26.85
		c-0.3-0.333-0.4-0.617-0.3-0.85c-0.067,0.167-0.034,0.35,0.1,0.55L53.2,26.85z M56,20.85l-0.75-0.4c0.333,0,0.684,0.05,1.05,0.15
		c0.066,0,0.117,0.017,0.15,0.05L55.4,20.5L56,20.85z M50.8,23.95c0-0.233,0.066-0.5,0.2-0.8l0.2-0.35l0.25-0.3
		c0.3,0.367,0.983,0.617,2.05,0.75s1.8,0.083,2.2-0.15c0.3-0.133,0.55-0.617,0.75-1.45c0.7,0.5,1.033,1.05,1,1.65
		c0,0.2-0.066,0.467-0.2,0.8c-0.634,0.133-1.15,0.083-1.55-0.15c-0.167,0.9-0.967,1.167-2.4,0.8c-0.1-0.3-0.1-0.667,0-1.1
		c-0.066,0.167-0.233,0.333-0.5,0.5c-0.366,0.167-0.767,0.283-1.2,0.35C51.1,24.5,50.833,24.317,50.8,23.95z M47.15,3.3
		c0.133-0.833-0.384-1.066-1.551-0.7L45.45,2c-0.467-0.167-0.8-0.067-1,0.3H41.8c-0.366-0.066-0.85-0.017-1.45,0.15
		c-0.6,0.167-1.017,0.383-1.25,0.65c0.134,0.133,0.4,0.233,0.801,0.3l-0.25,0.1C38.55,3.867,37.3,4.35,35.9,4.95
		c-0.1,0.066-0.35,0.35-0.75,0.85c0.3,0.267,0.967,0.317,2,0.15c0.067,0.233-0.083,0.533-0.45,0.9c-0.4,0.433-0.617,0.733-0.65,0.9
		c0.367,0.167,0.784,0.133,1.25-0.1c-0.7,0.867-0.85,1.417-0.45,1.65l0.05,0.05l-1.3,0.8c-0.5,0.467-0.85,1-1.05,1.6
		c0.667,0.267,1.233,0.1,1.7-0.5c0.433-0.867,0.733-1.483,0.9-1.85c0.333,0.067,0.65-0.167,0.95-0.7
		c0.267-0.633,0.433-1.034,0.5-1.2l0.05,1.8c0.367,0.1,0.617-0.15,0.75-0.75c0.1-0.667,0.199-1.083,0.3-1.25
		c1.066,0.4,1.6-0.033,1.6-1.3C41.434,5.967,42,5.983,43,6.05c0.866-0.033,1.233-0.233,1.1-0.6c0.134-0.1,0.551-0.184,1.25-0.25
		C45.95,5.167,46.3,4.983,46.4,4.65c0.133-0.3,0.066-0.517-0.2-0.65C46.767,3.933,47.083,3.7,47.15,3.3z M45.3,21.6
		c-0.333,0.733-0.666,1.167-1,1.3c0.334-0.167,0.667-0.633,1-1.4C45.3,21.533,45.3,21.566,45.3,21.6z M49.05,19.6
		c-0.034,0.001-0.067,0.018-0.1,0.05c0-0.033,0.017-0.05,0.05-0.05H49.05z M54.8,20.4l-0.1,0.05h-0.3V20.4
		C54.533,20.4,54.667,20.4,54.8,20.4z M53.175,18.35c-0.05,0.036-0.075,0.069-0.075,0.1c-0.066,0.033-0.133,0.083-0.199,0.15
		C52.965,18.503,53.057,18.42,53.175,18.35z M41.25,28.4c-0.066,0.467-0.25,0.684-0.55,0.65c0.1,0,0.2-0.05,0.3-0.15
		c0.1-0.133,0.167-0.283,0.2-0.45L41.25,28.4z M34.1,10.3c1.1-0.433,1.667-0.933,1.7-1.5l-0.35-0.5c-0.434-0.033-1.1,0.184-2,0.65
		c-0.967,0.466-1.383,0.917-1.25,1.35C32.333,10.733,32.967,10.733,34.1,10.3z M32.15,8.8c0.3-0.433,0.233-0.733-0.2-0.9
		c0.6-0.433,0.433-0.8-0.5-1.1c-0.633,0-1.1-0.017-1.4-0.05c-0.466-0.067-0.716-0.383-0.75-0.95l-2.7-0.35
		c-0.1-0.133-0.367-0.2-0.8-0.2c-0.466-0.033-0.75,0.033-0.85,0.2c-0.167,0.3-0.017,0.533,0.45,0.7c0.4,0.133,0.75,0.184,1.05,0.15
		c-1,0.434-1.717,0.934-2.15,1.5c-0.7,1.167-0.683,1.567,0.05,1.2c-0.067,0.233-0.317,0.75-0.75,1.55c-0.3,0.7-0.3,1.2,0,1.5
		c0.333,0,0.617-0.15,0.85-0.45c-0.233,0.533-0.35,0.883-0.35,1.05c0.8,0,1.417-0.133,1.85-0.4c0.4-0.233,0.683-0.617,0.85-1.15
		c0.1-0.6,0.217-1.05,0.35-1.35L27.1,10.3c0.6,0.133,1.083,0.1,1.45-0.1c0.333-0.133,0.534-0.367,0.6-0.7c0.1-0.5,0.167-0.8,0.2-0.9
		c0.2,0.033,0.683,0.133,1.45,0.3C31.533,9.033,31.983,9,32.15,8.8z M18.95,13.75l1.4,0.2l0.15-0.8c-0.1,0.133-0.317,0.267-0.65,0.4
		C19.517,13.683,19.217,13.75,18.95,13.75z M20.95,23.8c0.2-0.167,0.25-0.483,0.15-0.95c0.267,0.1,0.717,0.183,1.35,0.25
		c0.167-0.7-0.233-1.1-1.2-1.2c-1.267-0.133-1.983-0.283-2.15-0.45l-0.8,0.7c-0.433-0.066-1.017-0.033-1.75,0.1
		c-0.833,0.167-1.333,0.4-1.5,0.7c0.233,0.267,0.684,0.417,1.35,0.45c0.633,0.033,1.217-0.033,1.75-0.2
		c-0.267,0.267-0.383,0.517-0.35,0.75c0.7,0.133,1.184,0.15,1.45,0.05c0.133-0.067,0.3-0.217,0.5-0.45
		c0.133-0.2,0.317-0.267,0.55-0.2c0.067,0,0.15,0.117,0.25,0.35C20.65,23.867,20.783,23.9,20.95,23.8z"/>
	<path style="fill-rule:evenodd;clip-rule:evenodd;fill:#585D3B;" d="M5.45,25.5c0.966,0.167,1.533,0.233,1.7,0.2l-0.2-1.1
		c-0.1-0.533-0.067-0.883,0.1-1.05c0.167-0.167,0.5-0.233,1-0.2c0.233,0,0.6,0.017,1.1,0.05c-0.033-0.167,0.033-0.316,0.2-0.45
		c-0.233-0.1-0.367-0.2-0.4-0.3c0.3-0.033,0.65-0.1,1.05-0.2l0.15-0.05c0.1-0.066,0.233-0.133,0.4-0.2h0.05l0.5,0.1
		c-0.033,0.034-0.317,0.167-0.85,0.4c-0.367,0.133-0.567,0.316-0.6,0.55c0.8,0.167,1.8,0.133,3-0.1c-0.467,0.333-0.7,0.65-0.7,0.95
		c0.5,0.066,0.933,0.05,1.3-0.05c-0.433,0.767-0.55,1.25-0.35,1.45c0.2-0.067,0.483-0.2,0.85-0.4c0.367-0.233,0.65-0.383,0.85-0.45
		v1.5c0.367,0.033,0.767-0.117,1.2-0.45c0.4-0.333,0.667-0.684,0.8-1.05c0.233,1.067,0.583,1.617,1.05,1.65
		c0.267,0.034,0.45-0.15,0.55-0.55c0.1-0.433,0.183-0.733,0.25-0.9c0.233,0.3,0.517,0.75,0.85,1.35
		c0.333,0.466,0.784,0.733,1.35,0.8c0.2-0.267,0.3-0.767,0.3-1.5c0.933,0.733,1.917,1.05,2.95,0.95c0-0.367,0.083-0.633,0.25-0.8
		c0.067-0.066,0.184-0.083,0.35-0.05s0.283-0.017,0.35-0.15c0.033-0.167-0.017-0.317-0.15-0.45c-0.233-0.2-0.35-0.317-0.35-0.35
		c-0.033-0.533-0.067-0.917-0.1-1.15c0.267-0.133,1.05-0.25,2.35-0.35c-0.5,0.2-0.733,0.45-0.7,0.75c0.033,0.233,0.3,0.317,0.8,0.25
		c0.566-0.033,0.9,0,1,0.1c-0.467,0.733-0.717,1.35-0.75,1.85c0.5,0.133,1.017,0.05,1.55-0.25c0.533-0.267,0.883-0.617,1.05-1.05
		c-0.267,0.8,0.434,1.45,2.1,1.95c1.733,0.5,2.567,0.133,2.5-1.1c1.067,0.434,2.117,0.5,3.15,0.2c0.1-0.934,0.05-1.517-0.15-1.75
		c0.767,0.2,1.217,0.017,1.35-0.55c0.1-0.367-0.033-0.65-0.4-0.85c-0.4-0.2-0.684-0.35-0.85-0.45s-0.283-0.217-0.35-0.35
		c-0.1-0.2-0.183-0.333-0.25-0.4l-0.15-0.15l0.35,0.15c0.867,0.4,1.367,0.65,1.5,0.75c0.4,0.3,0.784,0.75,1.15,1.35
		c0.467,0.733,0.35,1.033-0.35,0.9l0.35,0.35c-0.267,0.066-0.45,0.15-0.55,0.25c-0.233,0.2-0.25,0.4-0.05,0.6
		c0.2,0.133,0.433,0.216,0.7,0.25v0.15c-0.6-0.067-0.983-0.05-1.149,0.05c-0.133,0.1-0.184,0.233-0.15,0.4
		c0.034,0.2,0.034,0.333,0,0.4c-0.133,0.3-0.517,0.466-1.15,0.5c-0.733,0.033-1.233,0.05-1.5,0.05
		c0.033,0.067,0.017,0.217-0.05,0.45c-0.233,0.1-0.55,0.15-0.95,0.15c-0.533,0-0.867,0.017-1,0.05c-0.1,0.767-0.533,1.117-1.3,1.05
		c-0.033-0.367-0.067-0.65-0.1-0.85c-0.167,0.267-0.467,0.433-0.9,0.5c-0.5-0.267-0.833-0.6-1-1c-0.3,0.267-0.867,0.433-1.7,0.5
		c-0.9,0.066-1.3-0.15-1.2-0.65c-0.067,0.233-0.284,0.417-0.65,0.55c-0.333,0.1-0.633,0.117-0.9,0.05
		c-0.267-0.1-0.417-0.233-0.45-0.4v-0.7c-0.3,0.267-0.583,0.267-0.85,0c-0.267-0.4-0.467-0.65-0.6-0.75c0,0.066,0,0.333,0,0.8
		c0,0.333-0.067,0.55-0.2,0.65c-0.167,0.133-0.55,0.167-1.15,0.1c0,0.233-0.017,0.467-0.05,0.7c-0.067,0.133-0.283,0.216-0.65,0.25
		c-0.333,0.033-0.767-0.017-1.3-0.15c-0.8-0.233-1.217-0.35-1.25-0.35l0.05,0.3c-0.667,0.067-1.133,0.1-1.4,0.1
		c-0.533-0.067-0.917-0.283-1.15-0.65c-0.066,0.233-0.233,0.383-0.5,0.45c-0.3,0.067-0.533,0.017-0.7-0.15
		c-0.1-0.133-0.133-0.35-0.1-0.65c0-0.434,0-0.667,0-0.7c-0.7,0.267-1.434,0.417-2.2,0.45c0.167-0.467,0.233-0.783,0.2-0.95
		c-0.233,0.233-0.617,0.55-1.15,0.95c-0.467-0.033-0.883-0.133-1.25-0.3c0.2-0.433,0.333-0.767,0.4-1h-1.05
		c-0.133,0.067-0.267,0.184-0.4,0.35C9.983,26.85,9.867,26.967,9.8,27c-0.267,0.067-0.6,0-1-0.2c-0.333-0.167-0.6-0.383-0.8-0.65
		c-0.167,0.667-0.5,0.934-1,0.8c-0.533-0.133-0.767-0.517-0.7-1.15L5.45,25.5z M29.85,19.45c-0.267,0.066-0.45,0.167-0.55,0.3
		c-0.466,0-0.867,0.117-1.2,0.35c-1.267-0.434-1.967-0.317-2.1,0.35l-0.1-0.05c-0.4-0.167-0.717-0.117-0.95,0.15
		c-0.1,0.133-0.25,0.434-0.45,0.9c-0.767-0.133-1.283-0.3-1.55-0.5l-0.1-0.1l0.15-0.3h0.05c0.667-0.066,1.184-0.316,1.55-0.75
		c0.167-0.3,0.267-0.483,0.3-0.55c0.1-0.067,0.333-0.117,0.7-0.15c0.667,0,1.617,0.117,2.85,0.35c0.033-0.233,0.05-0.383,0.05-0.45
		c0.133-0.067,0.3-0.067,0.5,0c0.1,0.067,0.25,0.15,0.45,0.25L29.85,19.45z M59.5,4.8c0.333,0.1,0.634,0.233,0.9,0.4
		c0.533,0.367,0.899,0.867,1.1,1.5c0,0.167,0,0.45,0,0.85c-0.066,0.3-0.233,0.483-0.5,0.55c0.4,0.133,0.566,0.5,0.5,1.1
		c-0.066,0.566-0.267,0.8-0.6,0.7c0.699,0.567,1.017,1.233,0.949,2c-0.033,0.4-0.1,0.6-0.199,0.6c-0.301,0-0.483,0.033-0.551,0.1
		c-0.199-0.033-0.35,0.05-0.449,0.25l0.149,1v1.1c-0.767-0.1-1.533-0.317-2.3-0.65c0,0.034,0.017,0.567,0.05,1.6
		c0.066,0.733-0.017,1.2-0.25,1.4c-0.2,0.2-0.616,0.133-1.25-0.2c-0.7-0.367-1.133-0.583-1.3-0.65c0.233,1.333-0.25,1.9-1.45,1.7
		c-1.133-0.2-1.967-0.75-2.5-1.65c-0.066,0.333-0.149,0.717-0.25,1.15c-0.133,0.3-0.416,0.467-0.85,0.5
		c-0.8,0.033-1.367-0.4-1.7-1.3c0.033,0.333-0.066,0.566-0.3,0.7c-0.2,0.133-0.45,0.15-0.75,0.05c-0.367-0.1-0.584-0.333-0.65-0.7
		c-0.033-0.167-0.033-0.517,0-1.05c-0.267,0.333-0.666,0.6-1.2,0.8c-0.6,0.2-1.05,0.2-1.35,0c0.134-1.2,0.2-2.167,0.2-2.9
		c-0.733,0.3-1.233,0.783-1.5,1.45c-0.2,0.5-0.316,1.2-0.351,2.1c-0.033-0.1-0.133-0.15-0.3-0.15c-0.033,0.2-0.066,0.55-0.1,1.05
		c-0.033,0.433-0.167,0.7-0.4,0.8c-0.3,0.133-0.684,0.05-1.149-0.25c-0.134-0.067-0.467-0.317-1-0.75
		c-0.034,0.233-0.067,0.6-0.101,1.1c-0.033,0.433-0.116,0.733-0.25,0.9c-0.133-0.133-0.2-0.25-0.2-0.35L39.4,20.3l-0.5,0.05
		c-0.867-0.033-1.3-0.617-1.3-1.75c-0.1,0.267-0.367,0.333-0.8,0.2c-0.433-0.033-0.8-0.267-1.1-0.7c-0.233-0.4-0.367-0.85-0.4-1.35
		c-0.066,0.967-0.466,1.483-1.2,1.55c-0.833,0.067-1.233-0.25-1.2-0.95c-0.167,0.333-0.55,0.6-1.15,0.8c-0.667,0.2-1,0.05-1-0.45
		c-0.2,0.533-0.717,0.783-1.55,0.75c-0.833-0.034-1.2-0.4-1.1-1.1c-0.133,0.3-0.533,0.517-1.2,0.65c-0.667,0.167-1.083,0.1-1.25-0.2
		c-0.1-0.1-0.1-0.367,0-0.8c-0.2,0.5-0.75,0.833-1.65,1c-0.867,0.167-1.55,0.133-2.05-0.1c-0.034-0.267-0.017-0.45,0.05-0.55
		c-1.433,0.633-2.5,0.816-3.2,0.55c0.067-0.6,0.034-1-0.1-1.2c0.133-0.034,0.3-0.05,0.5-0.05l0.25,0.05
		c0.167,0,0.35,0.017,0.55,0.05c0.567,0.133,1,0.133,1.3,0c0.267-0.1,0.534-0.317,0.8-0.65c0.267-0.333,0.617-0.55,1.05-0.65
		l0.6-0.05c-0.067-0.066-0.117-0.1-0.15-0.1c-0.2-0.1-0.517-0.15-0.95-0.15c-0.033,0-0.066,0-0.1,0h-0.5
		c-0.167-0.033-0.3-0.066-0.4-0.1c0.867-0.333,1.684-0.9,2.45-1.7c-0.3,0.333-0.5,0.75-0.6,1.25c0.467,0.133,1,0.133,1.6,0
		c0.6-0.1,1.117-0.317,1.55-0.65v0.25c0.667-0.034,1.383-0.417,2.15-1.15c0.034-0.033,0.583-0.683,1.65-1.95
		c0,0.2-0.05,0.667-0.15,1.4c-0.066,0.6-0.066,1.083,0,1.45c0.5,0.2,1.017,0.033,1.55-0.5c0.433-0.467,0.7-0.967,0.8-1.5
		c-0.133,1.3-0.033,2.033,0.3,2.2c0.367,0.2,0.716,0.05,1.05-0.45c0.067-0.133,0.233-0.534,0.5-1.2c0.2,0.133,0.317,0.533,0.35,1.2
		c0,0.6,0.217,0.966,0.65,1.1s0.8-0.017,1.1-0.45c0.233-0.333,0.35-0.733,0.35-1.2c0.1,1.633,0.583,2.517,1.45,2.65
		c0.533,0.1,0.85-0.1,0.95-0.6c0.067-0.633,0.117-1.083,0.15-1.35c0.967,0.633,1.667,0.883,2.1,0.75
		c0.134-0.533,0.084-1.067-0.149-1.6c0.233,0.3,0.616,0.4,1.149,0.3c0.101-0.433,0.067-0.9-0.1-1.4c0.066,0,0.45,0.117,1.15,0.35
		c0.533,0.167,0.916,0.183,1.149,0.05c0.066-1.033-0.066-1.9-0.399-2.6c0.233,0.3,0.6,0.533,1.1,0.7c0.5,0.133,0.934,0.15,1.3,0.05
		c0.033-0.333-0.033-1.15-0.2-2.45c0.367,0.567,0.65,0.683,0.851,0.35c0.066-0.1,0.2-0.5,0.399-1.2c0.167,0,0.483,0,0.95,0
		c0.434,0,0.65-0.15,0.65-0.45c0.033,0.466-0.267,0.966-0.9,1.5C47.884,8.833,47.5,9.3,47.4,9.6c0.333,0.066,0.816,0.05,1.449-0.05
		c-0.066,0.1-0.583,0.583-1.55,1.45c-0.633,0.6-1.083,1.15-1.35,1.65c0.233,0.233,0.633,0.267,1.2,0.1
		c0.3-0.1,0.699-0.283,1.199-0.55c0,0.2-0.033,0.517-0.1,0.95c-0.1,0.4-0.134,0.717-0.1,0.95c0.767,0.167,1.199-0.067,1.3-0.7
		c0.066,0.833,0.533,1.333,1.399,1.5c0.767,0.167,1.034-0.2,0.801-1.1c0.133,0.2,0.416,0.367,0.85,0.5c0.533,0.2,1,0.267,1.4,0.2
		c0.399-0.067,0.6-0.283,0.6-0.65c-0.066-0.5-0.083-0.9-0.05-1.2c0.3,0.1,0.75,0.267,1.35,0.5c0.533,0.2,0.983,0.25,1.351,0.15
		c0.066-1.066-0.184-1.95-0.75-2.65c0.267,0.267,0.466,0.267,0.6,0c0.333-0.5-1.066-1.4-4.2-2.7V7.4
		c1.134,0.133,1.733,0.05,1.8-0.25c0.067-0.267-0.017-0.433-0.25-0.5c-0.333,0-0.583-0.017-0.75-0.05V4.85V4.8
		c0.4-0.033,0.717-0.017,0.95,0.05c0.334,0.066,0.517,0.267,0.55,0.6c-0.033,0.1-0.066,0.233-0.1,0.4l0.15-0.2
		c0.699-0.967,1.833-1.333,3.399-1.1C58.884,4.617,59.2,4.7,59.5,4.8z M31.35,19.8l-0.25-0.1h0.65v0.15L31.35,19.8z M36.3,21.2
		l-0.85-0.25c-0.167,0-0.35-0.05-0.55-0.15l-0.1-0.15c0-0.4-0.133-0.617-0.4-0.65l-0.15-0.25c0.567,0.133,1.083,0.433,1.55,0.9
		L36.3,21.2z M33.85,19.7l-0.15,0.25h-0.3l-0.4-0.3C33.4,19.65,33.683,19.667,33.85,19.7z M26,20.95c-0.033-0.2-0.033-0.367,0-0.5
		c0.167,0.1,0.267,0.216,0.3,0.35C26.333,20.933,26.233,20.983,26,20.95z M67.3,23.9L66.4,23.95L67,24
		c-0.333,0.033-0.884-0.067-1.65-0.3c-0.767-0.267-1.233-0.417-1.399-0.45c0.1,0.133,0.233,0.317,0.399,0.55
		c0.101,0.2,0.134,0.417,0.101,0.65c-0.767,0.066-1.684-0.05-2.75-0.35c0.133,0.233,0.149,0.467,0.05,0.7
		c-0.366,0.067-0.833,0.067-1.4,0c-0.6-0.1-1.066-0.25-1.399-0.45c0.133,0.167,0.184,0.367,0.149,0.6
		c-0.033,0.267-0.133,0.466-0.3,0.6c-0.166,0.167-0.517,0.217-1.05,0.15c-0.6-0.1-0.983-0.1-1.15,0
		c0.134,0.533-0.116,0.816-0.75,0.85c-0.533,0.034-1.05-0.05-1.55-0.25c-0.033-0.1-0.033-0.216,0-0.35c-0.6-0.1-1.033,0.1-1.3,0.6
		c-0.134-0.2-0.167-0.383-0.1-0.55l0.05-0.2l0.1-0.1c-0.733,0.133-1.233,0.066-1.5-0.2c-0.166-0.167-0.25-0.35-0.25-0.55V24.9
		c0-0.2,0.101-0.333,0.3-0.4c0.434-0.067,0.834-0.183,1.2-0.35c0.267-0.167,0.434-0.333,0.5-0.5c-0.1,0.434-0.1,0.8,0,1.1
		c1.434,0.367,2.233,0.1,2.4-0.8c0.399,0.233,0.916,0.283,1.55,0.15c0.134-0.333,0.2-0.6,0.2-0.8c0.033-0.6-0.3-1.15-1-1.65
		l0.149-0.5l-0.6-0.3l-0.6-0.35l1.05,0.15c0.033,0,0.066,0.017,0.1,0.05c0.7,0.2,1.05,0.517,1.05,0.95l1.851-0.45
		c0.533,0,1.383,0.117,2.55,0.35l0.2-0.35c-0.3,0.033-0.684-0.233-1.15-0.8c-0.399-0.566-0.649-0.883-0.75-0.95
		c-0.033,0.033-0.066,0.05-0.1,0.05l0.95-2.05c0.267-0.3,0.816-0.633,1.649-1l2-0.95c1,0.1,1.851,0.367,2.55,0.8
		c0.834,0.5,1.134,1.05,0.9,1.65c-1.134,0-2.134-0.217-3-0.65c0.1,0.1,0.517,0.45,1.25,1.05c0.5,0.433,0.884,0.8,1.15,1.1
		c-0.334,0.1-0.717,0.066-1.15-0.1c-0.467-0.167-0.816-0.3-1.05-0.4c0.2,0.233,0.566,0.583,1.1,1.05c0.467,0.467,0.717,0.9,0.75,1.3
		c-0.666,0.133-1.467,0.083-2.399-0.15c0.366,0.1,0.883,0.417,1.55,0.95c0.767,0.667,1.116,1.167,1.05,1.5
		C67.434,23.767,67.366,23.867,67.3,23.9z M54.7,20.45l-0.3,0.2v-0.2H54.7z M18.95,13.75c0.267,0,0.566-0.067,0.9-0.2
		c0.333-0.133,0.55-0.267,0.65-0.4l-0.15,0.8L18.95,13.75z"/>
	<path style="fill-rule:evenodd;clip-rule:evenodd;fill:#414428;" d="M72.8,20.65c0.101,0.633-0.017,1.017-0.35,1.15l-0.05,0.05
		c-0.233,0-0.767,0.017-1.601,0.05c0.033-0.233-0.05-0.5-0.25-0.8c-0.233-0.3-0.35-0.55-0.35-0.75
		C70.8,20.45,71.667,20.55,72.8,20.65z M61.8,27.95h-0.05c-0.267,0-0.517,0-0.75,0c-0.066-0.034-0.116-0.034-0.15,0
		c-0.6-0.034-1.066-0.067-1.399-0.1c-1.4,0.033-2.434-0.033-3.101-0.2l0.051-0.3v-0.1c0.133-0.1,0.833-0.15,2.1-0.15
		c0.533-0.033,1.384-0.083,2.55-0.15c1-0.133,1.8-0.4,2.4-0.8v0.3c1.066,0.133,1.767,0.066,2.1-0.2
		c0.134,0.233,0.533,0.283,1.2,0.15c0.3-0.066,0.634-0.233,1-0.5c0.434-0.333,0.733-0.533,0.9-0.6c0.133-0.033,0.633-0.1,1.5-0.2
		c0.699-0.2,0.899-0.533,0.6-1c-0.167-0.3-1.1-0.383-2.8-0.25l0.1-0.05c0.066-0.033,0.134-0.133,0.2-0.3
		c0.066-0.133,0.184-0.217,0.35-0.25c-0.1-0.533-0.083-0.9,0.051-1.1c0.133-0.233,0.366-0.333,0.699-0.3c0.2,0,0.517,0.033,0.95,0.1
		c-0.267,0.667-0.467,1.1-0.6,1.3c-0.033,0.033-0.066,0.067-0.101,0.1c0.267,0.033,0.667,0.133,1.2,0.3
		c0.5,0.2,0.851,0.283,1.05,0.25c0.134,0,0.334-0.1,0.601-0.3c0.233-0.2,0.5-0.267,0.8-0.2c0.267,0.033,0.45,0.117,0.55,0.25
		c0.167,0.2,0.283,0.317,0.351,0.35c0.066,0.033,0.816,0.15,2.25,0.35c1.1,0.167,1.633,0.467,1.6,0.9s-0.45,0.633-1.25,0.6
		c-0.934-0.1-1.533-0.15-1.8-0.15c0.033,0.167,0,0.483-0.101,0.95c-1.033,0.1-1.816,0.133-2.35,0.1
		c-0.866-0.033-1.566-0.217-2.1-0.55c0,0.333-0.084,0.583-0.25,0.75c-0.2,0.167-0.467,0.183-0.801,0.05
		c-0.133,0.4-0.566,0.8-1.3,1.2c-0.767,0.4-1.35,0.517-1.75,0.35l-0.05-0.45c-0.5-0.1-1.1-0.067-1.8,0.1
		c-0.733,0.133-1.334,0.167-1.8,0.1C62.25,28.1,61.967,27.983,61.8,27.95z M25.45,32.95c-0.034,0-0.067,0.017-0.1,0.05H25.2
		c-0.034,0-0.083,0.017-0.15,0.05H24.8c-0.2-0.033-0.4-0.083-0.6-0.149c-0.3-0.134-0.467-0.367-0.5-0.7
		c-0.5,0.166-1.167,0.217-2,0.149c-0.967-0.066-1.517-0.3-1.65-0.699c-0.066-0.367,0.133-0.784,0.6-1.25
		c-0.2,0.133-0.417,0.216-0.65,0.25c-0.233,0.033-0.5,0.033-0.8,0l0.25-0.351c0.233,0,0.617,0.017,1.15,0.05
		c0.467-0.1,1.033-0.433,1.7-1c-0.033,0.6,0.117,0.9,0.45,0.9c0.3,0,0.583-0.283,0.85-0.85c0.066,0.2,0.183,0.55,0.35,1.05
		c0.2,0.399,0.517,0.533,0.95,0.399c0.3-0.066,0.467-0.3,0.5-0.699c0.033-0.434,0.05-0.767,0.05-1c1,0.5,1.617,0.767,1.85,0.8
		c0.333,0.1,0.667,0.1,1,0c0.133-0.3,0.2-0.633,0.2-1c0.167-0.233,0.3-0.35,0.4-0.35c0.067,0,0.283,0.017,0.65,0.05
		c0.5,0,0.8-0.117,0.9-0.35c0.133,0.367,0.433,0.55,0.9,0.55c0.433-0.067,0.733-0.233,0.9-0.5c0.033,0.2,0.067,0.483,0.1,0.85
		l0.1,0.1c0.233,0.267,0.6,0.35,1.1,0.25c0.434-0.133,0.733-0.35,0.9-0.65c0.033,0.5,0.083,0.833,0.15,1
		c0.133,0.267,0.417,0.417,0.85,0.45c0.6,0.067,1.066-0.116,1.4-0.55c0.333-0.4,0.483-0.9,0.45-1.5
		c0.367,0.034,0.983,0.167,1.851,0.4c0.8,0.133,1.399,0.117,1.8-0.05l0.25-0.2c-0.033,0.167-0.101,0.316-0.2,0.45
		c-0.1,0.1-0.2,0.15-0.3,0.15c-0.033,0-0.066,0-0.101,0c0.5,0.5,0.233,1.184-0.8,2.05c-1,0.834-1.6,0.801-1.8-0.1
		c-0.067,0.634-0.7,0.95-1.9,0.95c-1.067-0.033-1.867-0.217-2.4-0.55c0.1-0.334,0.1-0.684,0-1.051c-0.034,0-0.067,0-0.1,0
		s-0.067,0-0.1,0h-0.05c-0.1,0-0.184,0-0.25,0c-0.167,0-0.333,0-0.5,0l-0.3-0.05c-0.167,0-0.316,0-0.45,0s-0.267,0-0.4,0l-0.3-0.05
		c-0.033,0-0.067,0-0.1,0c-1.066-0.066-1.883-0.217-2.45-0.45c0.033,0.601-0.217,1.066-0.75,1.4c-0.534,0.333-1.034,0.25-1.5-0.25
		c-0.133,0.133-0.267,0.5-0.4,1.1c0,0.066-0.017,0.15-0.05,0.25v0.05c-0.033,0.034-0.05,0.084-0.05,0.15
		c-0.034,0.033-0.067,0.066-0.1,0.1L25.8,32.7C25.7,32.8,25.583,32.884,25.45,32.95z M7.15,28.15l-0.7-0.1
		C6.317,28.017,5.167,27.933,3,27.8c-1.567-0.1-2.567-0.316-3-0.65l0.35-0.4c0.333,0.067,0.767,0.2,1.3,0.4
		c0.934,0.233,2.1,0.3,3.5,0.2c0.367-0.033,0.667,0,0.9,0.1c0.133,0.1,0.383,0.267,0.75,0.5L7.15,28.15z M63.9,12.85
		c0.399,0.167,0.716,0.35,0.949,0.55c-0.399,0.467-0.8,0.767-1.199,0.9c-0.367,0.1-0.617,0.184-0.75,0.25
		c-0.267,0.1-0.517,0.267-0.75,0.5c-1.134,1.133-1.784,1.767-1.95,1.9c-0.8,0.6-1.634,0.85-2.5,0.75c0.333-0.1,0.8-0.2,1.399-0.3
		c0.467-0.2,0.684-0.566,0.65-1.1c-0.066-0.4-0.1-0.667-0.1-0.8s0.183-0.267,0.55-0.4c0.8,0,1.35-0.15,1.649-0.45
		c-0.199-0.566-0.283-0.967-0.25-1.2c0.034-0.333,0.233-0.517,0.601-0.55c0.2,0,0.533,0.017,1,0.05L63.9,12.85z M73.55,16.75
		L73.65,17l-0.2-0.2L73.55,16.75z M49,19.6c-0.033,0-0.05,0.017-0.05,0.05c-0.101,0-0.2,0.033-0.3,0.1c-0.2,0.1-0.45,0.233-0.75,0.4
		c-0.367,0.2-0.684,0.317-0.95,0.35h-0.2c0.1-0.167,0.116-0.367,0.05-0.6c-0.533-0.1-0.983,0.3-1.35,1.2v0.1
		c-0.033,0-0.05,0.017-0.05,0.05c-0.034,0.067-0.051,0.133-0.051,0.2L45.3,21.5c-0.333,0.767-0.666,1.233-1,1.4h-0.05
		c-0.033,0-0.05,0.017-0.05,0.05h-0.05C43.983,22.983,43.783,23,43.55,23c0.267,0.067,0.517,0.133,0.75,0.2l0.05,0.05
		c0.801,0.2,1.417,0.4,1.851,0.6c0.3,0.1,0.5,0.2,0.6,0.3c0.167,0.1,0.316,0.267,0.45,0.5c0.033,0.033,0.066,0.067,0.1,0.1
		c0.067,0.1,0.134,0.2,0.2,0.3c0,0.034,0.017,0.05,0.05,0.05v0.05l0.4,0.4l0.05,0.05l0.4,0.15c0.033,0.167,0,0.3-0.101,0.4
		c0.067,0.3,0,0.567-0.199,0.8c-0.134,0.267-0.5,0.5-1.101,0.7c-0.133,0.1-0.233,0.233-0.3,0.4c0,0.034,0,0.067,0,0.1L46.7,28.2
		c-0.066,0.066-0.167,0.133-0.3,0.2c-0.034,0-0.067,0.017-0.101,0.05h-0.05c-0.4-0.034-0.733-0.05-1-0.05
		c-0.1-0.033-0.184-0.05-0.25-0.05c-0.2,0-0.35,0-0.45,0c-0.033,0.833-0.5,1.15-1.399,0.95c-0.7-0.133-1.334-0.433-1.9-0.9
		c0.2-0.267,0.267-0.767,0.2-1.5l-0.101-1.35l0.051-0.3c0.366,0.167,0.616,0.083,0.75-0.25c0.166-0.367,0.066-0.733-0.301-1.1
		c-0.3-0.3-0.649-0.517-1.05-0.65c0.033-0.5-0.083-0.833-0.35-1c-0.167-0.1-0.517-0.183-1.05-0.25l-0.15-0.05
		c-1.467-0.2-2.483-0.917-3.05-2.15c0.233,0.333,0.667,0.617,1.3,0.85c0.6,0.233,1.05,0.3,1.35,0.2c0.233-0.1,0.417-0.283,0.55-0.55
		l0.199-0.65c0,0.1,0.067,0.217,0.2,0.35c0.2,0.167,0.417,0.2,0.65,0.1c0.166-0.067,0.283-0.167,0.35-0.3
		c-0.033,0.667,0.033,1.067,0.2,1.2c0.134,0.133,0.4,0.183,0.8,0.15c0.434-0.066,0.733-0.233,0.9-0.5c0.033-0.066,0.166-0.4,0.399-1
		c0.034,0.167,0.051,0.4,0.051,0.7c0.066,0.2,0.25,0.283,0.55,0.25c0.467-0.033,0.733-0.417,0.8-1.15
		c-0.033-0.867-0.033-1.417,0-1.65c0.1,0.067,0.167,0.284,0.2,0.65c0,0.367,0.066,0.6,0.2,0.7c0.233,0.233,0.533,0.25,0.899,0.05
		l0.851-0.5c0.166,0.2,0.433,0.3,0.8,0.3c0.533-0.067,0.85-0.083,0.95-0.05C48.934,19.083,49.134,19.3,49,19.6z M13.4,27.6
		c-0.233,0.5-0.4,0.8-0.5,0.9c-1.167,0.133-2.85,0.05-5.05-0.25c0.3-0.033,0.783-0.133,1.45-0.3c0.167,0,0.45,0.033,0.85,0.1
		c0.4,0.067,0.717,0.083,0.95,0.05c0.433-0.033,0.883-0.2,1.35-0.5c0.533-0.4,0.917-0.717,1.15-0.95
		C13.633,26.817,13.567,27.133,13.4,27.6z"/>
	<path style="fill-rule:evenodd;clip-rule:evenodd;fill:#848958;" d="M55.25,20.45l0.75,0.4l0.6,0.3l-0.149,0.5
		c-0.2,0.833-0.45,1.317-0.75,1.45c-0.4,0.233-1.134,0.283-2.2,0.15s-1.75-0.383-2.05-0.75l0.1-0.1c0.233-0.233,0.533-0.433,0.9-0.6
		c0.5-0.267,1.133-0.5,1.899-0.7c-0.033-0.1-0.017-0.25,0.051-0.45l0.3-0.2l0.1-0.05h0.4L55.25,20.45z M52.8,7.4v0.55
		c-0.166,0.6-0.783,0.9-1.85,0.9l0.149,0.1l2.2,0.85c0.334,0.2,0.95,0.383,1.851,0.55c0.733,0.267,0.983,0.75,0.75,1.45
		c-0.067,0-0.351-0.017-0.851-0.05c-0.399-0.033-0.649-0.017-0.75,0.05c-0.133,0.1-0.184,0.25-0.149,0.45
		c0.033,0.167,0.017,0.3-0.051,0.4c-0.166,0.267-0.5,0.283-1,0.05c-0.333-0.133-0.616-0.317-0.85-0.55
		c-0.134-0.1-0.283-0.35-0.45-0.75c-0.166-0.367-0.283-0.583-0.35-0.65c-0.134,0.467-0.334,0.85-0.601,1.15
		c-0.366,0.5-0.716,0.583-1.05,0.25c-0.267-0.233-0.267-0.566,0-1c0.2-0.267,0.417-0.467,0.65-0.6c-0.233,0.1-0.467,0.133-0.7,0.1
		c-0.333-0.033-0.5-0.217-0.5-0.55c0.032-0.42,0.424-0.67,1.175-0.75c-0.759,0.056-1.284-0.077-1.575-0.4
		c0.233-0.1,0.567-0.184,1-0.25c-0.033-0.567,0.334-0.983,1.101-1.25L52.8,7.3V7.4z M47.15,3.3C47.083,3.7,46.767,3.933,46.2,4
		c0.267,0.133,0.333,0.35,0.2,0.65C46.3,4.983,45.95,5.167,45.35,5.2c-0.699,0.066-1.116,0.15-1.25,0.25
		c0.134,0.367-0.233,0.566-1.1,0.6C42,5.983,41.434,5.967,41.3,6c0,1.267-0.533,1.7-1.6,1.3c-0.101,0.167-0.2,0.583-0.3,1.25
		c-0.134,0.6-0.384,0.85-0.75,0.75L38.6,7.5c-0.067,0.167-0.233,0.567-0.5,1.2c-0.3,0.533-0.617,0.767-0.95,0.7
		c-0.167,0.367-0.467,0.983-0.9,1.85c-0.467,0.6-1.033,0.767-1.7,0.5c0.2-0.6,0.55-1.133,1.05-1.6l1.3-0.8L36.85,9.3
		c-0.4-0.233-0.25-0.783,0.45-1.65c-0.466,0.233-0.883,0.267-1.25,0.1c0.034-0.167,0.25-0.467,0.65-0.9
		c0.367-0.367,0.517-0.667,0.45-0.9c-1.033,0.167-1.7,0.117-2-0.15c0.4-0.5,0.65-0.783,0.75-0.85c1.4-0.6,2.65-1.083,3.75-1.45
		l0.25-0.1c-0.4-0.066-0.667-0.167-0.801-0.3c0.233-0.267,0.65-0.483,1.25-0.65c0.601-0.167,1.084-0.217,1.45-0.15h2.65
		c0.2-0.367,0.533-0.466,1-0.3L45.6,2.6C46.767,2.233,47.283,2.467,47.15,3.3z M32.15,8.8C31.983,9,31.533,9.033,30.8,8.9
		c-0.767-0.167-1.25-0.267-1.45-0.3c-0.033,0.1-0.1,0.4-0.2,0.9c-0.066,0.333-0.267,0.567-0.6,0.7c-0.367,0.2-0.85,0.233-1.45,0.1
		l0.05-0.55c-0.133,0.3-0.25,0.75-0.35,1.35c-0.167,0.533-0.45,0.917-0.85,1.15c-0.434,0.267-1.05,0.4-1.85,0.4
		c0-0.167,0.117-0.517,0.35-1.05c-0.233,0.3-0.517,0.45-0.85,0.45c-0.3-0.3-0.3-0.8,0-1.5c0.433-0.8,0.683-1.316,0.75-1.55
		c-0.733,0.367-0.75-0.033-0.05-1.2c0.434-0.566,1.15-1.066,2.15-1.5c-0.3,0.034-0.65-0.017-1.05-0.15
		c-0.467-0.167-0.617-0.4-0.45-0.7c0.1-0.167,0.383-0.233,0.85-0.2c0.434,0,0.7,0.067,0.8,0.2l2.7,0.35
		c0.034,0.567,0.284,0.883,0.75,0.95c0.3,0.033,0.767,0.05,1.4,0.05c0.933,0.3,1.1,0.667,0.5,1.1
		C32.383,8.067,32.45,8.367,32.15,8.8z M34.1,10.3c-1.133,0.434-1.767,0.434-1.9,0c-0.133-0.433,0.283-0.883,1.25-1.35
		c0.9-0.467,1.566-0.684,2-0.65l0.35,0.5C35.767,9.367,35.2,9.867,34.1,10.3z M29.3,19.75c0.467-0.033,1.133-0.017,2,0.05h0.05
		l0.4,0.05l1.65,0.1h0.3h0.1L34.4,20c0.267,0.033,0.4,0.25,0.4,0.65v0.3c-0.667-0.1-1.117-0.067-1.35,0.1
		c0.433,0.6,0.667,0.934,0.7,1c0.167,0.333,0.2,0.7,0.1,1.1c-0.433,0-0.867-0.233-1.3-0.7c0.167,0.2,0.216,0.7,0.15,1.5
		c-0.967,0.167-1.583-0.217-1.85-1.15c-0.233,0.233-0.483,0.4-0.75,0.5c-0.367,0.1-0.65,0.05-0.85-0.15c0.5-0.566,0.833-0.9,1-1
		c-0.433,0.233-1.183,0.333-2.25,0.3c-1.066-0.067-1.8-0.233-2.2-0.5c0.099-0.794,0.891-1.195,2.375-1.2
		c-0.322-0.009-0.564-0.159-0.725-0.45l0.25-0.2C28.433,19.867,28.833,19.75,29.3,19.75z M20.95,23.8c-0.167,0.1-0.3,0.067-0.4-0.1
		c-0.1-0.233-0.183-0.35-0.25-0.35c-0.233-0.067-0.417,0-0.55,0.2c-0.2,0.233-0.367,0.383-0.5,0.45c-0.267,0.1-0.75,0.083-1.45-0.05
		c-0.033-0.233,0.083-0.483,0.35-0.75c-0.533,0.167-1.117,0.233-1.75,0.2c-0.667-0.033-1.117-0.183-1.35-0.45
		c0.167-0.3,0.667-0.534,1.5-0.7c0.733-0.133,1.317-0.167,1.75-0.1l0.8-0.7c0.167,0.167,0.883,0.316,2.15,0.45
		c0.967,0.1,1.367,0.5,1.2,1.2c-0.633-0.067-1.083-0.15-1.35-0.25C21.2,23.317,21.15,23.633,20.95,23.8z"/>
	<path style="fill-rule:evenodd;clip-rule:evenodd;fill:#655A4C;" d="M44.5,35.2c0.434-0.267,0.95-0.4,1.55-0.4l0.8-0.05
		c-0.699,0.2-1.166,0.5-1.399,0.9l-0.25-0.2C44.967,35.184,44.733,35.1,44.5,35.2z M42.9,36.5c-0.301,0.233-0.534,0.333-0.7,0.3
		c0.166,0.2,0.483,0.367,0.95,0.5c0.466,0.134,0.767,0.283,0.899,0.45c0.101,0.134,0.15,0.434,0.15,0.9
		c-0.033,0.633,0.083,1.133,0.35,1.5c0.2,0.267,0.601,0.6,1.2,1l1,0.5L47,41.9l0.1,0.05C47.134,41.983,47.167,42,47.2,42
		c0.032,0.001,0.065,0.018,0.1,0.05c0.2,0.066,0.467,0.101,0.8,0.101c0.134,0,0.267,0,0.4,0c0.066,0,0.15,0,0.25,0
		c0.1-0.034,0.2-0.051,0.3-0.051h0.101c0.066,0,0.116,0,0.149,0l0.8-0.05c0.067,0,0.134,0,0.2,0s0.15,0.017,0.25,0.05
		c0.167,0.034,0.3,0.101,0.4,0.2H51l0.2,0.101c0.066,0.066,0.149,0.149,0.25,0.25c0.133,0.1,0.233,0.216,0.3,0.35
		c0,0.033,0.017,0.066,0.05,0.1c0.066,0.167,0.134,0.417,0.2,0.75c0,0.034,0,0.067,0,0.101l0.05,0.2
		C51.15,44.184,50.467,44.167,50,44.1c0.233-0.233,0.733-0.466,1.5-0.699c0.167-1-0.55-1.317-2.15-0.95l-0.449,0.1
		c-0.667,0.134-1.233,0.15-1.7,0.05c-0.267-0.033-0.75-0.183-1.45-0.449c-0.634-0.2-0.967-0.317-1-0.351
		c-0.267-0.166-0.45-0.483-0.55-0.95L43.85,39.5v-0.25c-0.199-0.767-0.316-1.184-0.35-1.25c-0.1-0.134-0.2-0.217-0.3-0.25
		c-0.167-0.033-0.267-0.066-0.3-0.1H42.85l-1-0.551V36.7C42.017,36.634,42.366,36.566,42.9,36.5z M48.3,47.15L48.65,47.3
		c0.3,0.066,0.866-0.05,1.699-0.35c0.167-0.467-0.183-0.917-1.05-1.351l0.25-0.149L49.3,45.3c0.334,0,0.851,0.017,1.55,0.05
		c0.601,0,1.017-0.116,1.25-0.35l0.051-0.05V45.6c-0.301-0.066-1-0.05-2.101,0.051c0.2,0.233,0.5,0.483,0.9,0.75
		c0.2,0.133,0.533,0.316,1,0.55l-0.3,0.55l-0.301-0.05c-0.233,0.233-0.683,0.333-1.35,0.3c-0.6-0.033-1.033-0.134-1.3-0.3
		L48.3,47.15z M47.7,48.45l1.1,0.5c-0.455,0.228-0.756,0.345-0.899,0.35H47.85c-0.066,0-0.116,0-0.149,0s-0.066,0-0.101,0
		c-0.1-0.033-0.183-0.066-0.25-0.1c-0.166-0.066-0.333-0.15-0.5-0.25l-0.5-0.4L46.3,48.5c-0.166-0.3-0.316-0.533-0.45-0.7
		c-0.166-0.233-0.333-0.416-0.5-0.55L45.3,47.2L45.15,47.1l0.05-0.75C45.9,47.35,46.733,48.05,47.7,48.45z M28.35,38.05h0.05
		c0.967-0.066,2.15-0.05,3.55,0.05c0.767,0.034,1.95,0.101,3.55,0.2c0.833,0.033,1.733,0.217,2.7,0.55
		c0.367,0.134,1.25,0.65,2.649,1.551c1.334,0.699,2.25,0.716,2.75,0.05c0,0.166-0.1,0.416-0.3,0.75c-0.233,0.3-0.434,0.5-0.6,0.6
		c-0.233,0.134-0.533,0.2-0.9,0.2h-0.05l-0.9-1.05c-0.399-0.334-1.066-0.767-2-1.3C38.283,39.35,37.5,39.134,36.5,39
		c-1.5-0.2-2.317-0.316-2.45-0.35c-0.533-0.134-1.35-0.184-2.45-0.15c-1.067,0.033-1.867-0.033-2.4-0.2
		c-0.2-0.066-0.383-0.116-0.55-0.149L28.6,38.1h-0.05L28.35,38.05z M25.45,32.95c0,0.066,0.017,0.133,0.05,0.2
		c0.067,0.166,0.217,0.449,0.45,0.85l-0.25-0.05c-0.2-0.033-0.517-0.017-0.95,0.05l-0.05-0.1c-0.133-0.334-0.233-0.634-0.3-0.9
		c0.133,0.033,0.267,0.05,0.4,0.05h0.25C25.117,33.017,25.167,33,25.2,33h0.15C25.383,32.967,25.417,32.95,25.45,32.95z M56.4,27.25
		v0.1c-0.167,0.133-0.301,0.283-0.4,0.45c0-0.333-0.116-0.533-0.35-0.6c0.133,0,0.267-0.017,0.399-0.05l0.25-0.1
		c0.033,0,0.066-0.017,0.101-0.05V27.25z M45.25,28.4c-0.134,0.233-0.283,0.5-0.45,0.8l-0.1-0.1l0.05-0.1
		c0.1-0.2,0.184-0.417,0.25-0.65C45.066,28.35,45.15,28.367,45.25,28.4z M48.45,25.2L48,25.55l-0.4-0.4V25.1
		c-0.033,0-0.05-0.017-0.05-0.05l0.601-0.7V24.3l1.399-0.5c0.566-0.333,1.017-0.767,1.351-1.3h0.05h0.1l0.5-0.1l-0.1,0.1l-0.25,0.3
		L51,23.15l-0.55,0.95l-1.65,0.8C48.733,24.933,48.616,25.033,48.45,25.2z M44.3,22.9c0.334-0.133,0.667-0.566,1-1.3
		c0.001-0.033,0.034-0.05,0.101-0.05L45.3,21.5l0.05-0.05l0.051,0.1l0.3,0.85l-0.65,0.4L44.3,22.9z M52.05,19.35v1.6h-0.5l0.2-1
		c0.1-0.2,0.184-0.383,0.25-0.55C52,19.367,52.017,19.35,52.05,19.35z M53.05,18.6l-0.85,0.6c0.1-0.1,0.217-0.2,0.35-0.3l0.101-0.1
		c0-0.033,0.017-0.05,0.05-0.05L53.05,18.6z M59.35,30c0.767-0.733,1.267-1.417,1.5-2.05c0.034-0.034,0.084-0.034,0.15,0
		c-0.134,0.2-0.283,0.533-0.45,1c-0.033,0.1-0.05,0.25-0.05,0.45c-0.1,0.233-0.417,0.517-0.95,0.85c-0.5,0.366-1.116,0.733-1.85,1.1
		h-0.15c0.4-0.133,0.9-0.433,1.5-0.899L59.35,30z M53.7,31.55c0.467-0.066,1.166-0.05,2.1,0.05c0.533,0.034,1.101-0.033,1.7-0.199
		c-0.9,0.3-1.983,0.383-3.25,0.25L53.7,31.55z M51.85,32.95l-1.35,1l-0.65,0.1l0.2-0.1c0.334-0.167,0.717-0.45,1.15-0.851
		c0.533-0.466,0.899-0.767,1.1-0.899L52.1,32.6L51.85,32.95z M45.35,45.15c0.301,0,0.617,0.133,0.95,0.399
		c0.4,0.601,1.316,1.4,2.75,2.4l0.851,0.6L49.55,48.6l-1.7-1.149c-0.733-0.5-1.216-0.767-1.449-0.8L46.35,46.85
		c-0.5-0.666-0.883-1.166-1.149-1.5l0.35,0.101L45.35,45.15z M31.95,30.3c-0.034,0.3-0.067,0.634-0.1,1c0,0.3,0,0.733,0,1.3
		c-0.033,0.467-0.15,0.867-0.35,1.2c-0.3,0.467-0.917,1.017-1.85,1.65c-0.066,0.033-0.333,0.383-0.8,1.05
		c0.333,0.2,0.95,0.3,1.85,0.3l1.1,0.05l-1.95-0.05c-0.867,0-1.4-0.017-1.6-0.05c-0.5-0.134-0.567-0.45-0.2-0.95
		c0.3-0.434,1.017-0.95,2.15-1.55c0.3-0.167,0.517-0.366,0.65-0.6c0.1-0.134,0.167-0.25,0.2-0.351L31,33
		c-0.033-0.134-0.083-0.25-0.15-0.35l0.2-0.351c0.133-0.399,0.2-0.916,0.2-1.55c0-0.167,0-0.333,0-0.5l0.3,0.05
		C31.683,30.3,31.817,30.3,31.95,30.3z"/>
	<path style="fill-rule:evenodd;clip-rule:evenodd;fill:#786C5C;" d="M47.3,44.95l0.4,0.2c0.666,0.5,1.2,0.649,1.6,0.449
		c0.867,0.434,1.217,0.884,1.05,1.351c-0.833,0.3-1.399,0.416-1.699,0.35L48.3,47.15l-1-1L46.15,45.35l0.149,0.2
		c-0.333-0.267-0.649-0.399-0.95-0.399L45.15,44.9l-0.101-0.15c0.066-0.066,0.4,0,1,0.2c0.667,0.267,1.101,0.366,1.3,0.3L47.3,44.95
		z M43.6,44.45c0,0.467,0.101,0.8,0.301,1c0.066,0.1,0.216,0.184,0.449,0.25c0.233,0.033,0.4,0,0.5-0.101
		C44.95,45.533,45,45.434,45,45.3l0.2,0.05c0.267,0.334,0.649,0.834,1.149,1.5c0,0.534,0.45,1.067,1.351,1.601
		c-0.967-0.4-1.8-1.101-2.5-2.101l-0.05,0.75c-0.301-0.233-0.7-0.466-1.2-0.699s-0.884-0.417-1.15-0.551l-0.1-0.05
		c-0.233-0.1-0.367-0.166-0.4-0.2c-0.033-0.033-0.066-0.183-0.1-0.449V42.35c-0.066-0.033-0.134-0.083-0.2-0.149L41.75,42h0.05
		c0.367,0,0.667-0.066,0.9-0.2c0.166-0.1,0.366-0.3,0.6-0.6c0.2-0.334,0.3-0.584,0.3-0.75c-0.5,0.666-1.416,0.649-2.75-0.05
		c-1.399-0.9-2.283-1.417-2.649-1.551c-0.967-0.333-1.867-0.517-2.7-0.55c-1.6-0.1-2.783-0.166-3.55-0.2
		c-1.4-0.1-2.583-0.116-3.55-0.05h-0.05l-0.15-0.1c-0.1-0.033-0.184-0.084-0.25-0.15c-0.133-0.1-0.317-0.35-0.55-0.75
		c-0.5-0.2-0.8-0.45-0.9-0.75v-0.2l-1-0.8l-0.3-0.45c0.133-0.466,0.45-0.383,0.95,0.25c0.2,0.233,0.517,0.65,0.95,1.25
		c0.433,0.5,0.85,0.801,1.25,0.9c0.1,0.033,0.717,0.05,1.85,0.05c1.333,0,2.483,0.084,3.45,0.25c0.1,0.066,0.583,0.25,1.45,0.55
		c0.6,0.134,1.433,0.267,2.5,0.4l2.05,0.65c0.233,0.033,0.483,0.116,0.75,0.25c0.033,0.233,0.233,0.433,0.6,0.6
		c0.3,0.4,0.517,0.634,0.65,0.7c0.267,0.166,0.616,0.2,1.05,0.1c0.333-0.066,0.583-0.233,0.75-0.5c0.133-0.333,0.267-0.6,0.399-0.8
		c0.233,1,0.233,1.767,0,2.3c-0.1,0.2-0.333,0.384-0.699,0.55c-0.367,0.134-0.567,0.267-0.601,0.4c0.434,0.033,0.733,0.2,0.9,0.5
		c0,0.6,0.033,0.983,0.1,1.15L43.6,44.45z M43.85,39.25C43.384,38.783,43.1,38.4,43,38.1l-0.1-0.449
		c0.033,0.033,0.133,0.066,0.3,0.1c0.1,0.033,0.2,0.116,0.3,0.25C43.533,38.066,43.65,38.483,43.85,39.25z M48.15,24.3v0.05
		l-0.601,0.7c-0.066-0.1-0.133-0.2-0.2-0.3c-0.033-0.033-0.066-0.067-0.1-0.1c0.033-0.033,0.066-0.05,0.1-0.05L48.15,24.3z
		 M44.35,23.25c-0.066-0.1-0.116-0.2-0.149-0.3c0-0.034,0.017-0.05,0.05-0.05h0.05l0.75-0.1l0.65-0.4c0.2,0.467,0.366,0.95,0.5,1.45
		C45.767,23.65,45.15,23.45,44.35,23.25z M45.3,21.6c0-0.034,0-0.067,0-0.1l0.101,0.05C45.334,21.55,45.301,21.567,45.3,21.6z
		 M52.9,18.6c0.066-0.067,0.133-0.117,0.199-0.15c-0.033,0.033-0.05,0.083-0.05,0.15l-0.35,0.15L52.9,18.6z M51.55,20.95h0.5
		c0,0.333-0.05,0.617-0.149,0.85l-0.351,0.6l-0.5,0.1v-0.1L51,22.35c0.167-0.233,0.316-0.533,0.45-0.9l0.05-0.35L51.55,20.95z
		 M57.5,31.4c-0.6,0.166-1.167,0.233-1.7,0.199c-0.934-0.1-1.633-0.116-2.1-0.05c-0.5-0.1-0.9,0.017-1.2,0.351l-0.2,0.3
		c-0.2,0.133-0.566,0.434-1.1,0.899c-0.434,0.4-0.816,0.684-1.15,0.851l-0.2,0.1L48.45,34.3c0.533-0.267,1.283-0.816,2.25-1.649
		c0.833-0.733,1.45-1.134,1.85-1.2c0.101,0,0.483,0,1.15,0c0.5,0.033,0.883-0.033,1.149-0.2c0.067,0,0.233-0.1,0.5-0.3h1
		c1.334,0,2.301-0.283,2.9-0.851c0.033-0.033,0.066-0.066,0.1-0.1l-0.3,0.45c-0.6,0.467-1.1,0.767-1.5,0.899L57.5,31.4z M44.5,35.2
		c-0.167,0.033-0.684,0.45-1.55,1.25L43,36.3c0.033-0.5,0.066-0.8,0.1-0.899c0.101-0.301,0.284-0.534,0.551-0.7
		c0.433-0.267,1.449-0.4,3.05-0.4l0.899,0.2l-0.75,0.25l-0.8,0.05C45.45,34.8,44.934,34.934,44.5,35.2z M52.05,44.15l0.101,0.8
		L52.1,45c-0.233,0.233-0.649,0.35-1.25,0.35c-0.699-0.033-1.216-0.05-1.55-0.05l-0.8-0.45l-0.4-0.25
		c0.634,0.067,1.017,0.017,1.15-0.149c-0.233-0.101-0.4-0.15-0.5-0.15c0.434-0.2,0.566-0.533,0.4-1c-1.601,0.167-2.5,0.25-2.7,0.25
		c-0.733-0.6-1.283-0.899-1.65-0.899c-0.1-0.267-0.116-0.551-0.05-0.851c0.033,0.033,0.366,0.15,1,0.351
		c0.7,0.267,1.184,0.416,1.45,0.449c0.467,0.101,1.033,0.084,1.7-0.05l0.449-0.1c1.601-0.367,2.317-0.05,2.15,0.95
		c-0.767,0.233-1.267,0.466-1.5,0.699C50.467,44.167,51.15,44.184,52.05,44.15z M30.15,33.55c0.3-0.3,0.533-0.6,0.7-0.899
		c0.066,0.1,0.117,0.216,0.15,0.35l0.05,0.3c-0.033,0.101-0.1,0.217-0.2,0.351L30.15,33.55z M24.75,34
		c0.433-0.066,0.75-0.083,0.95-0.05L25.95,34l-0.75,0.3h-0.3L24.75,34z"/>
	<path style="fill-rule:evenodd;clip-rule:evenodd;fill:#473E36;" d="M51.85,32.95L52.1,32.6l0.4-0.699
		c0.3-0.334,0.7-0.45,1.2-0.351l0.55,0.101c1.267,0.133,2.35,0.05,3.25-0.25l0.05-0.051h0.15c0.733-0.366,1.35-0.733,1.85-1.1
		c0.533-0.333,0.851-0.617,0.95-0.85c0-0.2,0.017-0.35,0.05-0.45c0.167-0.467,0.316-0.8,0.45-1c0.233,0,0.483,0,0.75,0h0.05
		l-0.1,0.5c-0.134,0.533-0.334,0.95-0.601,1.25c-0.066,0.066-0.416,0.383-1.05,0.95c-1.233,1-3.066,1.5-5.5,1.5
		C53.65,32.15,52.75,32.417,51.85,32.95z M50.5,33.95c-0.2,0.166-0.384,0.316-0.55,0.45l-0.5,0.25
		c-0.233,0.133-0.434,0.233-0.601,0.3c-0.333,0.133-0.783,0.25-1.35,0.35c-0.866,0.101-1.35,0.167-1.45,0.2L45.4,35.75
		c-0.101,0.066-0.184,0.116-0.25,0.15c-0.167,0.066-0.317,0.116-0.45,0.149v0.25c0.033,0.533,0.2,1.184,0.5,1.95
		c0.166,0.434,0.434,1.066,0.8,1.9c0.333,0.833,0.583,1.333,0.75,1.5l-1-0.5c-0.6-0.4-1-0.733-1.2-1
		c-0.267-0.367-0.383-0.867-0.35-1.5c0-0.467-0.05-0.767-0.15-0.9c-0.133-0.167-0.434-0.316-0.899-0.45
		c-0.467-0.133-0.784-0.3-0.95-0.5c0.166,0.033,0.399-0.066,0.7-0.3l0.05-0.05c0.866-0.8,1.383-1.217,1.55-1.25
		c0.233-0.101,0.467-0.017,0.7,0.25l0.25,0.2c0.233-0.4,0.7-0.7,1.399-0.9L50.5,33.95z M53.6,28.05l0.4-0.9
		c0.2,0.033,0.467,0.05,0.8,0.05c0.101,0,0.2,0,0.3,0c-0.466,0.6-0.75,1.183-0.85,1.75L54.2,29.6l-1-0.15v-0.6L53.6,28.05z
		 M44.9,32.3C44.467,32.5,44.167,32.4,44,32c-0.033-0.1-0.017-0.35,0.05-0.75l0.15-0.8c0.033-0.134,0.083-0.267,0.149-0.4
		c0.101-0.267,0.25-0.55,0.45-0.85c0.167-0.3,0.316-0.567,0.45-0.8c0.267,0,0.6,0.017,1,0.05h0.05
		c0.033-0.034,0.066-0.05,0.101-0.05c-0.101,0.4-0.317,0.9-0.65,1.5c-0.366,0.7-0.6,1.2-0.7,1.5L44.9,32.25V32.3z M52,19.4
		c-0.066,0.167-0.15,0.35-0.25,0.55c-0.033,0-0.05,0.017-0.05,0.05c-0.167,0.2-0.351,0.4-0.55,0.6L50.3,21.3l-0.35-0.1
		c-0.066-0.034-0.134-0.133-0.2-0.3c-0.066-0.133-0.15-0.233-0.25-0.3v-0.05l-0.3-0.1c-0.2-0.034-0.5,0.05-0.9,0.25
		c-0.434,0.267-0.684,0.4-0.75,0.4C47.116,21.033,46.8,21,46.6,21c-0.466,0.1-0.866,0.183-1.199,0.25c0-0.033,0.017-0.05,0.05-0.05
		v-0.1c0.366-0.9,0.816-1.3,1.35-1.2c0.066,0.233,0.05,0.434-0.05,0.6h0.2c0.267-0.033,0.583-0.15,0.95-0.35
		c0.3-0.167,0.55-0.3,0.75-0.4v0.05c0.133-0.066,0.267-0.117,0.399-0.15c0.167,1.1,0.816,1.283,1.95,0.55h0.05l0.4-0.35
		C51.583,19.717,51.767,19.567,52,19.4z M52.05,20.95v-1.6c0.033-0.067,0.084-0.117,0.15-0.15l0.85-0.6
		c-0.066,0.5-0.133,0.95-0.2,1.35c-0.1,0.7-0.233,1.316-0.399,1.85c-0.367,0.167-0.667,0.367-0.9,0.6l0.351-0.6
		C52,21.567,52.05,21.283,52.05,20.95z M50.8,23.95c-0.1,0.033-0.217,0.083-0.35,0.15L51,23.15C50.866,23.45,50.8,23.717,50.8,23.95
		z M47.7,48.45c-0.9-0.533-1.351-1.066-1.351-1.601L46.4,46.65c0.233,0.033,0.716,0.3,1.449,0.8l1.7,1.149H49.5l-0.7,0.351
		L47.7,48.45z M48.3,47.15l0.4,0.3c0.267,0.166,0.7,0.267,1.3,0.3c0.667,0.033,1.116-0.066,1.35-0.3l0.301,0.05l-0.5,0.6L51.05,48.2
		c-0.233,0.133-0.5,0.233-0.8,0.3c-0.1,0-0.184,0.017-0.25,0.05h-0.1l-0.851-0.6c-1.434-1-2.35-1.8-2.75-2.4l-0.149-0.2L47.3,46.15
		L48.3,47.15z M52,46.9c-0.033,0-0.05,0.017-0.05,0.05c-0.467-0.233-0.8-0.417-1-0.55c-0.4-0.267-0.7-0.517-0.9-0.75
		c1.101-0.101,1.8-0.117,2.101-0.051V46c0,0.066,0,0.134,0,0.2v0.149c-0.034,0.134-0.067,0.267-0.101,0.4L52,46.9z"/>
	<path style="fill-rule:evenodd;clip-rule:evenodd;fill:#867966;" d="M50.5,33.95l1.35-1c-0.733,0.6-1.366,1.083-1.899,1.45
		C50.116,34.267,50.3,34.116,50.5,33.95l-3.65,0.8l0.75-0.25L46.7,34.3c-1.601,0-2.617,0.134-3.05,0.4
		c-0.267,0.166-0.45,0.399-0.551,0.7C43.066,35.5,43.033,35.8,43,36.3l-0.05,0.15L42.9,36.5c-0.534,0.066-0.884,0.134-1.051,0.2
		V37.1c-0.066-0.333-0.017-0.649,0.15-0.949c0.066-0.233,0.233-0.534,0.5-0.9c0.3-0.434,0.483-0.7,0.55-0.8
		c0.134-0.2,0.25-0.417,0.351-0.65c0.233,0.2,0.733,0.283,1.5,0.25c0.399,0,0.933-0.033,1.6-0.1c0.934,0.033,1.634-0.033,2.1-0.2
		c0.634-0.233,1.084-0.667,1.351-1.3c0.133-0.066,0.267-0.134,0.399-0.2c1.301-0.6,2.134-0.967,2.5-1.1
		c-0.066-0.733,0-1.417,0.2-2.05l0.55-1.05l-0.399,0.8v0.6l1,0.15c0,0.367,0.033,0.817,0.1,1.35h1.05c-0.267,0.2-0.433,0.3-0.5,0.3
		c-0.267,0.167-0.649,0.233-1.149,0.2c-0.667,0-1.05,0-1.15,0c-0.399,0.066-1.017,0.467-1.85,1.2
		c-0.967,0.833-1.717,1.383-2.25,1.649l1.399-0.25L50.5,33.95z M45.15,35.9c0.066-0.034,0.149-0.084,0.25-0.15l0.649-0.25
		C45.684,35.667,45.384,35.8,45.15,35.9z M47.25,42l0.05,0.05c-0.034-0.032-0.067-0.049-0.1-0.05H47.25z M42.8,45.85
		c0.267,0.134,0.65,0.317,1.15,0.551s0.899,0.466,1.2,0.699L45.3,47.2C45.033,47.033,44.2,46.583,42.8,45.85z M30.15,33.55
		l0.7,0.101c-0.133,0.233-0.35,0.433-0.65,0.6c-1.133,0.6-1.85,1.116-2.15,1.55c-0.367,0.5-0.3,0.816,0.2,0.95
		c0.2,0.033,0.733,0.05,1.6,0.05l1.95,0.05l-1.1-0.05c1.4,0,2.8,0.101,4.2,0.3c0.5,0.067,1.267,0.134,2.3,0.2
		c0.5,0.066,1.216,0.184,2.149,0.351c0.634,0,1.467-0.184,2.5-0.551l1,0.551H42.9L43,38.1c0.1,0.301,0.384,0.684,0.85,1.15v0.25
		l0.351,1.35c0.1,0.467,0.283,0.784,0.55,0.95c-0.066,0.3-0.05,0.584,0.05,0.851h-0.25c-0.1,0.333,0.217,0.75,0.95,1.25
		c0.1,0.066,0.7,0.416,1.8,1.05l0.05,0.3c-0.199,0.066-0.633-0.033-1.3-0.3c-0.6-0.2-0.934-0.267-1-0.2l0.101,0.15L44.7,44.3
		c-0.2-0.166-0.4-0.483-0.601-0.95c-0.233-0.533-0.416-0.883-0.55-1.05l-0.1,0.95c-0.167-0.3-0.467-0.467-0.9-0.5
		c0.033-0.134,0.233-0.267,0.601-0.4c0.366-0.166,0.6-0.35,0.699-0.55c0.233-0.533,0.233-1.3,0-2.3
		c-0.133,0.2-0.267,0.467-0.399,0.8c-0.167,0.267-0.417,0.434-0.75,0.5c-0.434,0.101-0.783,0.066-1.05-0.1
		C41.517,40.634,41.3,40.4,41,40c0.366,0.1,1.1,0.15,2.2,0.15l-1.65-0.7c-0.033,0-0.416-0.05-1.149-0.15V39.4
		c-0.267-0.134-0.517-0.217-0.75-0.25L37.6,38.5l2.4,0.15c0.167,0,0.616,0.033,1.35,0.1c0.534,0.066,0.967,0.066,1.301,0
		c0.1-0.366-0.5-0.667-1.801-0.9c-0.899-0.133-1.733-0.199-2.5-0.199l-1.5,0.149c-0.733-0.233-1.3-0.399-1.7-0.5
		c-0.733-0.2-1.333-0.233-1.8-0.1c0.066,0.166,0.167,0.283,0.3,0.35c-0.967-0.166-2.117-0.25-3.45-0.25
		c-1.133,0-1.75-0.017-1.85-0.05c-0.4-0.1-0.817-0.4-1.25-0.9c-0.434-0.6-0.75-1.017-0.95-1.25c-0.5-0.633-0.816-0.716-0.95-0.25
		l0.3,0.45c-0.3-0.333-0.55-0.767-0.75-1.3l0.15,0.3h0.3l0.75-0.3c0.267,0.434,0.667,0.866,1.2,1.3c0.7-0.3,1.167-0.517,1.4-0.649
		C29.217,34.283,29.75,33.917,30.15,33.55z M48.45,25.2c-0.101,0.1-0.233,0.233-0.4,0.4L48,25.55L48.45,25.2z M44.2,22.95
		c0.033,0.1,0.083,0.2,0.149,0.3L44.3,23.2c-0.066-0.1-0.116-0.184-0.149-0.25H44.2z M51.5,21.1l0.2-1.1
		c0-0.033,0.017-0.05,0.05-0.05l-0.2,1L51.5,21.1z M50.95,22.5c0.033-0.033,0.066-0.067,0.1-0.1v0.1H50.95z M50.8,23.95
		c-0.5,0.3-1.166,0.617-2,0.95l1.65-0.8C50.583,24.033,50.7,23.983,50.8,23.95z M52.1,32.6l0.2-0.399l0.2-0.3L52.1,32.6z M44.8,29.2
		c-0.2,0.3-0.35,0.583-0.45,0.85c0.101-0.3,0.217-0.617,0.351-0.95L44.8,29.2z M44.9,32.3c-0.034,0.134-0.051,0.283-0.051,0.45
		L45.2,32.8h-0.15c-0.633-0.066-1.116,0.084-1.45,0.45c0.067-0.233,0.101-0.483,0.101-0.75c0.033-0.533,0.2-1.217,0.5-2.05
		l-0.15,0.8C43.983,31.65,43.967,31.9,44,32C44.167,32.4,44.467,32.5,44.9,32.3z M48.5,44.85l-0.95-0.55
		c-0.2-0.066-0.566-0.316-1.1-0.75c0.2,0,1.1-0.083,2.7-0.25c0.166,0.467,0.033,0.8-0.4,1c0.1,0,0.267,0.05,0.5,0.15
		c-0.134,0.166-0.517,0.217-1.15,0.149L48.5,44.85z M43.6,44.45C43.733,44.816,44.2,45.1,45,45.3c0,0.134-0.05,0.233-0.15,0.3
		c-0.1,0.101-0.267,0.134-0.5,0.101c-0.233-0.066-0.383-0.15-0.449-0.25C43.7,45.25,43.6,44.917,43.6,44.45z M49.5,48.6
		c-0.727,0.463-1.26,0.696-1.6,0.7c0.144-0.005,0.444-0.122,0.899-0.35L49.5,48.6z M51.95,46.95
		c-0.033,0.066-0.066,0.149-0.101,0.25c-0.166,0.333-0.399,0.633-0.699,0.899l0.5-0.6L51.95,46.95z M51.05,48.2
		c-0.2,0.133-0.416,0.233-0.649,0.3c-0.067,0-0.117,0-0.15,0C50.55,48.434,50.816,48.333,51.05,48.2z"/>
	<path style="fill-rule:evenodd;clip-rule:evenodd;fill:#93846F;" d="M45.2,32.8c0.366,0.101,1.149,0.15,2.35,0.15l1.25-0.101
		L49.4,32.7c0.166-0.066,0.35-0.15,0.55-0.25c-0.267,0.633-0.717,1.066-1.351,1.3c-0.466,0.167-1.166,0.233-2.1,0.2
		c-0.667,0.066-1.2,0.1-1.6,0.1c-0.767,0.033-1.267-0.05-1.5-0.25l0.05-0.05l0.1-0.45l0.05-0.05c0.334-0.366,0.817-0.517,1.45-0.45
		H45.2z M46.45,43.55c0.533,0.434,0.899,0.684,1.1,0.75l0.95,0.55l0.8,0.45l0.25,0.15L49.3,45.6c-0.399,0.2-0.934,0.051-1.6-0.449
		l-0.4-0.2c-1.1-0.634-1.7-0.983-1.8-1.05c-0.733-0.5-1.05-0.917-0.95-1.25h0.25C45.167,42.65,45.717,42.95,46.45,43.55z M37.6,38.5
		c-1.067-0.134-1.9-0.267-2.5-0.4c-0.867-0.3-1.35-0.483-1.45-0.55c-0.133-0.066-0.233-0.184-0.3-0.35
		c0.467-0.134,1.066-0.101,1.8,0.1c0.4,0.101,0.967,0.267,1.7,0.5l1.5-0.149c0.766,0,1.6,0.066,2.5,0.199
		c1.301,0.233,1.9,0.534,1.801,0.9c-0.334,0.066-0.767,0.066-1.301,0c-0.733-0.066-1.183-0.1-1.35-0.1L37.6,38.5z M40.4,39.4V39.3
		c0.733,0.101,1.116,0.15,1.149,0.15l1.65,0.7C42.1,40.15,41.366,40.1,41,40C40.634,39.833,40.434,39.634,40.4,39.4z M45.15,44.9
		l0.199,0.25l0.2,0.3L45.2,45.35L45,45.3c-0.8-0.2-1.267-0.483-1.4-0.85l-0.05-0.05c-0.066-0.167-0.1-0.551-0.1-1.15l0.1-0.95
		c0.134,0.167,0.316,0.517,0.55,1.05c0.2,0.467,0.4,0.784,0.601,0.95L45.15,44.9z"/>
	<path style="fill-rule:evenodd;clip-rule:evenodd;fill:#4C4640;" d="M47.3,42.05L47.25,42v-0.1
		C47.251,41.936,47.268,41.985,47.3,42.05z M50.95,42.3c0-0.133,0.017-0.25,0.05-0.35c0.033-0.167,0.1-0.3,0.2-0.4
		c0.033-0.033,0.083-0.066,0.149-0.1c0.034,0.333,0.067,0.733,0.101,1.2c-0.101-0.101-0.184-0.184-0.25-0.25L51,42.3H50.95z
		 M49.9,52.4L49.6,52l-0.1-0.55c0-0.134,0-0.25,0-0.351c0-0.399,0-0.699,0-0.899c0-0.467-0.083-0.867-0.25-1.2
		c-0.066,0.033-0.233,0.116-0.5,0.25c-0.2,0.1-0.333,0.217-0.4,0.35c-0.066,0.134-0.116,0.384-0.149,0.75
		c-0.066,0.334-0.167,0.567-0.3,0.7c-0.101-0.267-0.167-0.85-0.2-1.75c0.033,0,0.083,0,0.149,0H47.9c0.34-0.004,0.873-0.237,1.6-0.7
		h0.05l0.351-0.05H50c0.066-0.033,0.15-0.05,0.25-0.05c0.033,0,0.083,0,0.15,0c0.233-0.066,0.449-0.167,0.649-0.3L51.15,48.1
		c0.3-0.267,0.533-0.566,0.699-0.899c0,0.2,0,0.45,0,0.75s0,0.6,0,0.899c-0.066,0.867-0.216,1.434-0.449,1.7
		c-0.067,0.033-0.134,0.066-0.2,0.101c-0.2,0.066-0.334,0.05-0.4-0.051c-0.133-0.133-0.2-0.35-0.2-0.649
		c-0.033-0.267-0.066-0.483-0.1-0.65c-0.1-0.3-0.184-0.467-0.25-0.5C50.083,48.934,50,49.184,50,49.55c0,0.233,0.017,0.533,0.05,0.9
		c-0.033,0.467-0.066,0.899-0.1,1.3C49.917,51.983,49.9,52.2,49.9,52.4z"/>
	<path style="fill-rule:evenodd;clip-rule:evenodd;fill:#B3AA9E;" d="M52.2,48.25c-0.066-0.533-0.134-0.967-0.2-1.3V46.9l0.05-0.15
		c0.033-0.134,0.066-0.267,0.101-0.4V46.2c0-0.066,0-0.134,0-0.2v-0.4V44.95l-0.101-0.8L52,43.95c0-0.033,0-0.066,0-0.101
		c-0.066-0.333-0.134-0.583-0.2-0.75c0-0.066,0-0.133,0-0.199c0.033-0.934-0.05-1.467-0.25-1.601V40.65l-0.2-4.7
		c0.034,0.533,0.25,1.267,0.65,2.2c0.2,0.5,0.333,1.233,0.4,2.199c0,0.067,0.1,0.5,0.3,1.301c0.1,0.5,0.149,0.933,0.149,1.3
		L52.9,44.3c0.033,0.566,0.017,1.017-0.051,1.351c-0.1,0.733-0.149,1.833-0.149,3.3c0,1.8-0.117,3.166-0.351,4.1L52.2,51.8v-2.35
		C52.2,49.017,52.2,48.616,52.2,48.25z M49.6,52l0.301,0.4l0.3,0.399c0,0.4,0.1,1.45,0.3,3.15c0.167,1.3,0.167,2.35,0,3.149
		c-0.333-0.433-0.55-1.166-0.65-2.199c-0.033-1.167-0.083-1.967-0.149-2.4c-0.101-0.566-0.15-1.417-0.15-2.55L49.6,52z M48.5,53.9
		c-0.1-0.733-0.15-2.101-0.15-4.101l0.301,0.351L49.2,50.8c-0.066,0.634,0,1.934,0.2,3.9c0.133,1.666,0.1,2.967-0.101,3.899
		C49.2,58.4,49.1,57.7,49,56.5l-0.45-2.4C48.55,54.033,48.533,53.967,48.5,53.9z M49.55,40.9c-0.033,0.433-0.066,0.666-0.1,0.699
		c-0.101,0.233-0.283,0.284-0.55,0.15l-0.051-1.1l0.7-3.851V40.9z M51.85,54.6c-0.199-0.233-0.283-0.683-0.25-1.35
		c0.067-0.733,0.101-1.217,0.101-1.45l0.5,1c0,0.2-0.017,0.517-0.05,0.95C52.116,54.116,52.017,54.4,51.85,54.6z"/>
	<path style="fill-rule:evenodd;clip-rule:evenodd;fill:#635B52;" d="M48.1,42.15c0.067-0.101,0.117-0.217,0.15-0.351
		c0.2-0.5,0.3-0.899,0.3-1.2c0.033,0.434,0.101,0.95,0.2,1.551c-0.1,0-0.184,0-0.25,0C48.366,42.15,48.233,42.15,48.1,42.15z
		 M50.95,42.3c-0.101-0.1-0.233-0.166-0.4-0.2c-0.1-0.033-0.184-0.05-0.25-0.05l0.05-0.85c0.2,0.166,0.417,0.416,0.65,0.75
		C50.967,42.05,50.95,42.167,50.95,42.3z M51.8,43.1c-0.033-0.033-0.05-0.066-0.05-0.1c-0.066-0.134-0.167-0.25-0.3-0.35
		c-0.033-0.467-0.066-0.867-0.101-1.2c-0.066,0.033-0.116,0.066-0.149,0.1V39.1c0.033,0.4,0.149,0.917,0.35,1.551V41.3
		c0.2,0.134,0.283,0.667,0.25,1.601C51.8,42.967,51.8,43.033,51.8,43.1z M51.85,47.2c0.034-0.101,0.067-0.184,0.101-0.25
		c0-0.033,0.017-0.05,0.05-0.05v0.05c0.066,0.333,0.134,0.767,0.2,1.3l-0.05,0.05c-0.034,0.101-0.134,0.283-0.301,0.55
		c0-0.3,0-0.6,0-0.899S51.85,47.4,51.85,47.2z M50.8,50.6c0.066,0.101,0.2,0.117,0.4,0.051c0.066-0.034,0.133-0.067,0.2-0.101
		c-0.034,0.267-0.051,0.566-0.051,0.9c0,0.833-0.116,1.483-0.35,1.95c0.033-0.301-0.033-1.134-0.2-2.5
		C50.8,50.8,50.8,50.7,50.8,50.6z M49.95,51.75c0.033-0.4,0.066-0.833,0.1-1.3c-0.033-0.367-0.05-0.667-0.05-0.9
		c0-0.366,0.083-0.616,0.25-0.75c0.066,0.033,0.15,0.2,0.25,0.5c-0.066-0.133-0.116-0.233-0.15-0.3c0.067,1.3,0.067,2.283,0,2.95
		C50.217,51.917,50.083,51.85,49.95,51.75z M48.65,50.15L48.35,49.8c0,2,0.051,3.367,0.15,4.101c-0.2-0.567-0.35-0.983-0.45-1.25
		c-0.267-0.667-0.483-1.417-0.649-2.25c-0.067-0.301-0.084-0.7-0.051-1.2c0.067,0.033,0.15,0.066,0.25,0.1c0.034,0,0.067,0,0.101,0
		c0.033,0.9,0.1,1.483,0.2,1.75c0.133-0.133,0.233-0.366,0.3-0.7c0.033-0.366,0.083-0.616,0.149-0.75c0.067-0.133,0.2-0.25,0.4-0.35
		c0.267-0.134,0.434-0.217,0.5-0.25c0.167,0.333,0.25,0.733,0.25,1.2c0,0.2,0,0.5,0,0.899c-0.033-0.066-0.066-0.149-0.1-0.25
		c-0.034-0.166-0.167-0.683-0.4-1.55C48.8,49.366,48.684,49.65,48.65,50.15z"/>
</g>
</svg>
