<?xml version="1.0" encoding="iso-8859-1"?>
<!-- Generator: Adobe Illustrator 15.1.0, SVG Export Plug-In . SVG Version: 6.00 Build 0)  -->
<!DOCTYPE svg PUBLIC "-//W3C//DTD SVG 1.1//EN" "http://www.w3.org/Graphics/SVG/1.1/DTD/svg11.dtd">
<svg version="1.1" id="Layer_1" xmlns="http://www.w3.org/2000/svg" xmlns:xlink="http://www.w3.org/1999/xlink" x="0px" y="0px"
	 width="277.45px" height="213.5px" viewBox="0 0 277.45 213.5" style="enable-background:new 0 0 277.45 213.5;"
	 xml:space="preserve">
<g>
	<path style="fill-rule:evenodd;clip-rule:evenodd;fill:#827155;" d="M17.8,145.95c0.7-1.5,1.45-2.25,2.25-2.25
		c0.367,0,1.184,0.083,2.45,0.25c1.433,0.2,2.3,0.316,2.6,0.35l0.25,2.3c0,3.467-1.767,6.867-5.3,10.2
		c-3.566,3.334-7.583,5.334-12.05,6l-1.35-0.25c0-0.033-0.066-0.133-0.2-0.3c-0.1-0.1-0.15-0.25-0.15-0.45
		c-0.033-0.1-0.05-0.217-0.05-0.35c0-1.334,0.667-2.533,2-3.601c2.3-1.833,4.017-3.416,5.15-4.75l0.25-0.25
		c1.2-1.733,2.55-3.966,4.05-6.699C17.733,146.05,17.767,145.983,17.8,145.95z M43.25,111.7l4.5-0.4c5.4,0.2,9.333,0.601,11.8,1.2
		c2.633,0.634,3.95,1.55,3.95,2.75c0,2-0.45,3.267-1.35,3.8c-0.667,0.4-1.917,0.5-3.75,0.3c-5.633-0.6-10.05-0.183-13.25,1.25
		c-3.267,1.434-7.717,3.634-13.35,6.601c-1.9,1-4.033,1.5-6.4,1.5c-0.267,0-0.917-0.434-1.95-1.3c-0.1-0.167,0.8-1.267,2.7-3.301
		c1.467-1.366,2.35-2.116,2.65-2.25c2.233-1.533,5.117-3.433,8.65-5.699c2.566-1.667,4.017-2.667,4.35-3
		c0.434-0.367,0.8-0.717,1.1-1.051C43.033,111.967,43.15,111.833,43.25,111.7z M75.55,70.2c0.233,0.533,0.55,2.15,0.95,4.85
		c0.367,2.4,0.55,3.733,0.55,4c0,0.133-0.083,0.417-0.25,0.85c-0.233,0.6-0.517,1.083-0.85,1.45c-0.067-0.267-0.417-0.7-1.05-1.3
		c-0.633-0.6-1.066-0.9-1.3-0.9c-0.667,0-1.417,1.184-2.25,3.55c-0.533,1.4-1.417,4-2.65,7.8c-2.767,7.533-6.133,11.3-10.1,11.3
		c-3.7,0-5.817-2.033-6.35-6.1c2.7-1.9,4.75-4.25,6.15-7.05c0.567-1.2,1.367-3.533,2.4-7c0.167-0.533,0.333-1.033,0.5-1.5
		c0.667-1.733,1.417-3,2.25-3.8c0.733-0.733,1.684-1.267,2.85-1.6c1.167-0.367,2.533-0.55,4.1-0.55c0.9,0,1.583,0.283,2.05,0.85
		c0.467,0.667,0.883,1.133,1.25,1.4c0.167-0.367,0.333-1.35,0.5-2.95c0.167-1.633,0.217-2.617,0.15-2.95l0.9-0.25L75.55,70.2z
		 M97.15,56.9c0.233,1.367,0.35,2.633,0.35,3.8c0,0.333-2.2,2.783-6.6,7.35c-2.2,2.267-4.4,4.5-6.6,6.7c-1.833,0-3.2-0.45-4.1-1.35
		c-0.633-0.633-1.417-2.05-2.35-4.25l1.4-0.8c1.633-0.867,3.383-1.867,5.25-3c3.633-2.2,7.75-4.934,12.35-8.2L97.15,56.9z
		 M133.7,18.85c2.466,1.233,3.7,2.417,3.7,3.55c0,3.033-1.117,6.017-3.35,8.95c-1.867,2.467-3.233,3.7-4.1,3.7
		c-0.5,0-0.9-0.45-1.2-1.35c-0.333-0.934-0.633-1.4-0.9-1.4c-0.167,0-2.3,2.95-6.4,8.85c-4.1,5.867-6.167,8.8-6.2,8.8
		c-0.967,0-1.617-0.217-1.95-0.65c-0.233-0.3-0.35-0.8-0.35-1.5c0.267-3.233,0.367-6.05,0.3-8.45c0.033,0.1,0.133,0.383,0.3,0.85
		c0.2,0.466,0.5,0.7,0.9,0.7c2.7,0,4.533-1.3,5.5-3.9l0.9-3c0.3-1.067,0.65-1.75,1.05-2.05c2.2-1.633,4.7-3.167,7.5-4.6
		c1.633-0.833,2.45-1.517,2.45-2.05c0-1.167-0.567-1.8-1.7-1.9c-0.633-0.066-1.566-0.066-2.8,0c0.066-0.033,0.133-0.066,0.2-0.1
		l0.15-0.1c1.133-0.733,2.2-1.467,3.2-2.2L133.7,18.85z M140.1,7.6V7.55l1.7-3.75c0.233,0.667,0.5,1.75,0.8,3.25
		c0.467,1.167,1.4,1.75,2.801,1.75c2.066,0,3.716-0.383,4.949-1.15c2.733-1.7,4.267-2.633,4.601-2.8
		c-0.233-0.2-0.884-0.517-1.95-0.95c-0.7-0.3-1.05-0.833-1.05-1.6c0-0.066,0.366-0.833,1.1-2.3l2.25,0.35
		c1.7,0.467,2.783,0.833,3.25,1.1l1.65,0.7c-0.334,1.767-0.733,3.083-1.2,3.95l-0.3-0.5c-0.601,0.467-2.4,2.217-5.4,5.25
		c-1.166,1.2-2.95,1.8-5.35,1.8c-0.033,0-0.934-0.183-2.7-0.55C143.217,11.3,141.5,9.8,140.1,7.6z M158.9,8
		c0.699-0.2,1.6-0.833,2.699-1.9c0.934-0.9,1.617-1.684,2.051-2.35l1.449,0.6c-1.066,1.467-1.85,2.833-2.35,4.1
		c-0.5,0.7-2.066,1.45-4.7,2.25C158.083,10.467,158.366,9.567,158.9,8z M137.75,39.3c0.167-0.267,0.333-0.5,0.5-0.7
		c1.934-2.467,3.184-5.667,3.75-9.6c0.733-1.567,1.566-3.233,2.5-5c0.467,0.767,0.967,2.2,1.5,4.3c0.467,1.833,0.7,3,0.7,3.5
		c0,2.333-0.533,4.567-1.601,6.7c-1.333,2.6-3.05,3.9-5.149,3.9c-1.733,0-2.6-0.383-2.6-1.15
		C137.35,40.783,137.483,40.133,137.75,39.3z M136.75,61.2c1.467-2.434,2.884-4.383,4.25-5.85c2.066-2.3,4.566-4.217,7.5-5.75
		c-4.3,4.833-6.917,8-7.85,9.5c-2.734,4.533-3.5,9.05-2.301,13.55c0.634,2.333,0.7,4.083,0.2,5.25c-0.233,0.6-0.95,1.434-2.15,2.5
		c-2.566,2.2-3.7,6.017-3.4,11.45c-0.5-0.5-0.8-1.6-0.9-3.3V84c0-2.267,0.267-4.05,0.8-5.35c0.667-1.167,1.133-2.066,1.4-2.7
		l0.1-0.15c0.5-0.7,0.917-2.466,1.25-5.3c0.333-2.7,0.383-4.3,0.15-4.8C135.867,64.067,136.183,62.567,136.75,61.2z M185.8,97.5
		c-1.967-0.767-2.95-2.533-2.95-5.3l0.25-3.45l0.45-2.9l0.351-0.55c1.566,2.133,2.566,3.817,3,5.05c0.3,0.867,0.449,2.133,0.449,3.8
		c0,0.8-0.083,1.4-0.25,1.8C186.9,96.517,186.467,97.033,185.8,97.5z M161.7,93.55c0.3,0,0.583,0,0.85,0
		c1.334-0.033,2.2-0.017,2.601,0.05c0.466,0.066,0.75,0.6,0.85,1.6c0.033,0.3,0.05,0.65,0.05,1.05c0,1.233-0.399,2.35-1.2,3.35
		c-0.8,1-1.199,2.933-1.199,5.8c0,2,1.3,5.317,3.899,9.95c2.867,5.134,4.334,7.851,4.4,8.15c-2.9-1-5.066-2.767-6.5-5.3
		c-0.867-1.566-2.4-4.467-4.601-8.7l0.45,0.35c-0.7-1.466-1.116-2.416-1.25-2.85c-0.566-1.6-0.85-3.333-0.85-5.2
		c0-1.667,0.35-2.983,1.05-3.95C161.05,96.783,161.533,95.35,161.7,93.55z M221.1,141.2l-0.199,0.25
		c-1.101-0.566-2.4-2.351-3.9-5.351c-2.066-4.066-3.767-7-5.1-8.8c2.533,0,4.699,1.367,6.5,4.101
		C220.2,134.1,221.1,137.366,221.1,141.2z M172.35,149.65c1.601-0.467,2.483-0.75,2.65-0.851c0.566-0.133,1.184-0.2,1.85-0.2
		c0.301,0,0.7,0.051,1.2,0.15s1.033,0.15,1.601,0.15c-5.767,5.466-8.7,8.199-8.801,8.199c-1,0-1.883-0.3-2.649-0.899
		c-0.8-0.601-1.2-1.3-1.2-2.101c0-1.233,0.634-2.216,1.9-2.949C170.533,150.45,171.684,149.95,172.35,149.65z M144.2,170.95v0.1
		l0.6,0.101c1.7-3.601,3.384-7.051,5.05-10.351c3.334-6.467,6.167-10.083,8.5-10.85l1-0.5L155.65,151l-0.551,0.2l0.65-0.5
		c0.566-0.3,1.45-0.634,2.65-1c1.066-0.334,1.666-0.5,1.8-0.5c3.866,0,5.8,0.816,5.8,2.45c0,1.366-0.65,2.166-1.95,2.399
		c-0.8,0.167-2.25,0.267-4.35,0.3c-4.2,0.567-6.367,4.317-6.5,11.25c-0.066,3.534-1.267,6.25-3.601,8.15c-3.333,2.7-5.35,4.7-6.05,6
		c-0.267-0.167-0.649-0.55-1.149-1.15c-0.5-0.633-0.801-1.083-0.9-1.35C141.9,175.75,142.8,173.65,144.2,170.95z M142.3,183.75
		l1.05,2c0.301,0.566,0.684,1.1,1.15,1.6c0.967,0.967,1.884,1.767,2.75,2.4c1.033,0.934,1.967,1.4,2.8,1.4
		c-1.733,1.199-3.633,3.1-5.7,5.699c-0.899,1.167-2.899,1.75-6,1.75c-0.733,0-1.399-0.433-2-1.3c-0.733-1.033-1.1-2.416-1.1-4.149
		c0-0.167,0.017-0.334,0.05-0.5c0.034-1.134,0.317-2.25,0.85-3.351c0.4-0.833,0.934-1.666,1.6-2.5
		C139.35,184.833,140.866,183.816,142.3,183.75z M201.5,166.25c0-2.533,0.316-4.717,0.95-6.55c0.434,5.1,1.116,8.95,2.05,11.55
		c0.6,1.667,0.9,6.4,0.9,14.2c0,1.2-0.117,2.017-0.351,2.45c-0.233,0.399-0.649,0.6-1.25,0.6c-1.066,0-1.767-1.083-2.1-3.25
		c-0.233-1.667-0.3-4.4-0.2-8.2V166.25z M176.9,182.65l-0.051,0.05c0-0.033-0.183-0.217-0.55-0.55c-0.333-0.534-0.5-1.367-0.5-2.5
		c0-0.167,0.017-0.367,0.05-0.601c0.034-1.1,0.217-2.934,0.551-5.5c0.466-3.633,0.883-5.75,1.25-6.35
		c0.533-0.601,1.616-2.084,3.25-4.45c1.399-2.066,2.466-3.417,3.199-4.05c0.4-0.267,1.167-0.55,2.301-0.851
		c-0.967,3.101-2.284,5.801-3.95,8.101c-0.267,0.366-1.566,1.866-3.9,4.5c-1.267,1.467-2.017,2.85-2.25,4.149
		c-0.3,1.7,0.05,3.967,1.05,6.801l-0.25,1L176.9,182.65z M211.45,178.85l-0.101-6.8c0-0.467,0.101-1.366,0.301-2.7
		c0.166-1.3,0.283-2.017,0.35-2.149c0.6-2.134,1.1-3.816,1.5-5.05c0.733-2.233,1.4-3.634,2-4.2c0.134-0.167,0.283-0.3,0.45-0.4
		c0.333-0.2,0.566-0.1,0.7,0.3c-0.567,1.4-1.301,5.434-2.2,12.101c-0.967,7.066-1.5,10.767-1.601,11.1l-0.449,0.2
		C212.033,180.517,211.717,179.717,211.45,178.85z M194.2,153.05c0.5,0.101,0.783,0.15,0.85,0.15h0.15
		c-1.167,0.666-1.917,2.116-2.25,4.35c-0.233,1.367-0.434,3.851-0.601,7.45l-0.199,0.1c-0.134,0.134-0.301,0.367-0.5,0.7
		c-0.834-0.666-1.534-1.416-2.101-2.25c-0.7-0.967-1.05-1.85-1.05-2.649c0-2.834,0.517-4.967,1.55-6.4c0.8-1.066,1.733-1.6,2.8-1.6
		C193.25,152.9,193.7,152.95,194.2,153.05z M172.25,167.65c-0.1,0.633-0.35,1.149-0.75,1.55c-0.3,0.3-0.866,0.717-1.7,1.25
		c-1.633,1.399-2.45,4.133-2.45,8.2c0,0.8-0.3,1.267-0.899,1.399c-0.367,0.101-1.05,0.217-2.05,0.351
		c-1.967,0.666-2.95,3.683-2.95,9.05c0,0.333,0.05,2.05,0.149,5.149c0.067,3.101,0.034,5.034-0.1,5.801
		c-1.934-0.634-3.316-2.301-4.15-5c-0.566-1.801-0.85-3.851-0.85-6.15c0-1.533,0.434-3.333,1.3-5.4c0.834-2.1,1.25-3.166,1.25-3.199
		c-0.434-4.634-0.616-7.95-0.55-9.95c0.2-1.4,0.767-3.601,1.7-6.601c0.066-0.133,0.366-0.6,0.899-1.399
		c0.534-0.8,0.884-1.3,1.051-1.5l1.75-0.3c0.1,0.066,0.233,0.166,0.399,0.3c0.867,0.566,2.584,1.6,5.15,3.1
		c1.866,1.066,2.8,1.983,2.8,2.75C172.25,167.25,172.25,167.45,172.25,167.65z M223.15,207.15c-0.4-0.733-0.767-1.551-1.101-2.45
		c-0.166-0.467-0.316-0.95-0.45-1.45c0-3.733,0.75-6.616,2.25-8.65c1.167-1.633,3.384-3.3,6.65-5c-0.3,2.034-0.9,5.184-1.8,9.45
		c-0.634,2.867-0.95,5.334-0.95,7.4c0,0.666-0.033,1.3-0.1,1.899c-0.034,0-0.067,0.051-0.101,0.15c-0.1,0.066-0.35,0.1-0.75,0.1
		C225.3,208.6,224.083,208.116,223.15,207.15z M153.75,32.4c0,3.033-0.167,5.1-0.5,6.2c-0.533,1.7-1.616,2.55-3.25,2.55
		c-1.533,0-2.3-0.85-2.3-2.55c0-1.167,0.533-2.8,1.6-4.9c1-2,1.45-3.383,1.351-4.15l3.05,0.3L153.75,32.4z M112.85,79.35l0.2,2.95
		c0.233-0.133,1.117-1.683,2.65-4.65c1.433-2.833,3.566-4.883,6.4-6.15c2.833-1.267,4.383-2,4.65-2.2c1.367-1,2.317-2.683,2.85-5.05
		l1,0.45c-0.167,0.8-0.1,3.117,0.2,6.95c-0.167,3.6-1.65,5.85-4.45,6.75c-2.833,0.9-4.817,3.75-5.95,8.55
		c-0.3,1.167-0.667,2.733-1.1,4.7c-0.433,1.367-0.983,2.05-1.65,2.05c-2.4,0-3.983-1.817-4.75-5.45l-0.4-5.45
		C112.5,81.733,112.617,80.583,112.85,79.35z M119.4,116.6l0.7,0.551l-0.9,1.05L119.4,116.6z M92.75,111.05
		c4.1-1.899,7.533-3.233,10.3-4c3.867-0.9,7.65-1.85,11.35-2.85c0.2,2.133-0.617,3.783-2.45,4.95c-1.6,1-4.233,1.783-7.9,2.35
		c-0.433,0.066-1,0.767-1.7,2.1c-0.4,0.834-1.133,2.351-2.2,4.551c-2.367,4.5-5.033,7.166-8,8c-0.333-0.667-0.5-1.334-0.5-2
		c0-1.467,0.2-5.084,0.6-10.851L92.75,111.05z M98.4,164.4c0.633-0.434,1.25-0.817,1.85-1.15c0.533-0.3,0.833-0.467,0.9-0.5
		c1.233-0.667,2.383-1.517,3.45-2.55c1.333-1.367,2.483-2.533,3.45-3.5l0.35-0.4c-0.367,2.9-0.75,6.384-1.15,10.45
		c-0.5,2.667-1.6,4.017-3.3,4.05c-3.133,0.066-5.534,1.184-7.2,3.351c-0.233,0.3-0.683,1.033-1.35,2.199c-0.4,0.667-0.75,1-1.05,1
		c-0.4,0-0.684-0.033-0.85-0.1c-0.1-0.033-0.3-0.134-0.6-0.3c-0.133-0.467-0.2-1.033-0.2-1.7
		C95.267,169.25,97.167,165.634,98.4,164.4z M99.25,140.65c0.767-4.5,1.4-7.351,1.9-8.551c0.533-0.8,1-1.767,1.4-2.899l0.05,1.149
		c2.033-0.8,4.5-2.183,7.4-4.149c2.933-2.033,5.733-4.267,8.4-6.7c-3.133,6.134-4.8,11.533-5,16.2c-0.033,1.434-0.167,2.267-0.4,2.5
		c-0.333,0.366-1.283,0.55-2.85,0.55c-0.733,0-1.383-0.517-1.95-1.55c-0.567-1.033-1.45-1.55-2.65-1.55
		c-1.533,0-2.45,0.733-2.75,2.199c-0.8,3.7-1.8,6.884-3,9.551c-0.7-1.067-1.05-2.034-1.05-2.9l0.2-2.4L99.25,140.65z M108.35,71.95
		c-1.3,1.133-3.033,2.3-5.2,3.5c-4.633,2.633-7.733,3.95-9.3,3.95c-0.667,0-0.917-0.05-0.75-0.15c-0.233-1.033-0.35-2.233-0.35-3.6
		c0-1.4,0.633-3.033,1.9-4.9c1.6-2.333,3.867-4.417,6.8-6.25c-0.333,0.4-1.684,1.5-4.05,3.3c-2.267,2.034-3.633,4.017-4.1,5.95
		c9.233-3.1,15.2-5.833,17.9-8.2l0.05,1.4c0,1.3-0.65,2.65-1.95,4.05c-0.1,0.067-0.2,0.15-0.3,0.25
		C108.767,71.45,108.55,71.683,108.35,71.95z M77.65,94.25c0.033-1.3,0.267-2.8,0.7-4.5c0.533-2.067,0.833-3.3,0.9-3.7
		c0.433-1.533,1.85-2.9,4.25-4.1c3.367-1.434,6.117-2.65,8.25-3.65c0,2.7-1.167,6.833-3.5,12.4c-2.767,6.667-5.6,10-8.5,10
		c-1.067,0-1.75-0.367-2.05-1.1c-0.1-0.267-0.15-0.817-0.15-1.65L77.65,94.25z M83,113.85c0.733,0.267,1.4,0.617,2,1.051
		c1.633,1.166,2.45,2.583,2.45,4.25c0,1.666-0.817,3.083-2.45,4.25c-1.633,1.166-3.6,1.75-5.9,1.75c-2.3,0-4.267-0.584-5.9-1.75
		c-1.633-1.167-2.45-2.584-2.45-4.25c0-1.667,0.817-3.084,2.45-4.25c1.566-1.101,3.433-1.684,5.6-1.75
		c0,0.133,0.184,0.35,0.55,0.649c0.5,0.4,1.05,0.601,1.65,0.601C81.667,114.434,82.333,114.25,83,113.85z M77.55,131.55
		c-0.566-0.733-1.45-1.7-2.65-2.899c0.434,0.133,0.883,0.267,1.35,0.399c0.167,0.033,0.3,0.084,0.4,0.15
		c0.3,0.1,0.517,0.25,0.65,0.45c0.067,0.066,0.117,0.149,0.15,0.25C77.483,130.1,77.517,130.65,77.55,131.55z M48.75,149.05
		c0.167,0.5,0.25,1.3,0.25,2.4c0,0.399-0.6,1.517-1.8,3.35c-1.4,2.134-2.65,3.2-3.75,3.2c-0.4,0-0.667-0.116-0.8-0.35
		c-0.066-0.134-0.167-0.367-0.3-0.7c-2.533,3.5-5.4,7.866-8.6,13.1c-1.167,1.934-2.35,2.9-3.55,2.9c-0.333,0-1.767-0.101-4.3-0.3
		c-2.733-0.2-4.85-0.284-6.35-0.25L19.1,172.3c0-0.1,0.316-1,0.95-2.7c0.6-1.533,1-2.533,1.2-3c0.4-0.767,1.183-1.983,2.35-3.649
		c0.967-1.4,1.6-2.3,1.9-2.7l1.25-1.5c0.567-0.333,4.3-1.517,11.2-3.55C43.483,153.566,47.083,151.517,48.75,149.05z M83.75,176.95
		c-0.5,4.1-1.367,6.95-2.6,8.55c-0.967,1.267-2.483,1.9-4.55,1.9l-3-0.101c-0.167-1.133-0.25-2.033-0.25-2.7
		c0-1.333,0.316-2.399,0.95-3.199c1.633-2.101,2.567-3.301,2.8-3.601c0.133,0,0.85-0.017,2.15-0.05
		c1.633-0.033,3.017-0.25,4.15-0.65C83.5,177.033,83.617,176.983,83.75,176.95z M80.95,173.6l2-0.199l1.1-0.15L84,174.4
		c0,0.1,0,0.199,0,0.3C83.3,174.333,82.283,173.967,80.95,173.6z M101.7,186.2c-0.067,0.033-0.35,0.383-0.85,1.05
		c-0.567,0.7-0.917,1.184-1.05,1.45c0.034,0.166,0.233,0.35,0.6,0.55c0.434,0.233,0.883,0.35,1.35,0.35
		c1.3,0,2.417-0.233,3.35-0.699c1.267-0.667,1.95-1.667,2.05-3c0.733,0.5,1.3,1,1.7,1.5c0.3,0.366,0.45,0.6,0.45,0.699
		c0,3.634-1.466,6.4-4.4,8.301c-2.267,1.466-4.833,2.199-7.7,2.199c-2.733,0-4.1-0.983-4.1-2.949c0-1.034,0.983-2.717,2.95-5.051
		C98.183,188.1,100.067,186.634,101.7,186.2z M112.55,200c0.167-0.833,0.3-1.483,0.4-1.95c0.167-0.899,0.267-1.633,0.3-2.2
		L113,190.2c0-0.8,0.05-2.017,0.15-3.65c0.133-1.934,0.283-2.967,0.45-3.1c3.533,1.133,5.3,3.916,5.3,8.35c0,3.4-0.667,5.45-2,6.15
		c-0.4,0.2-1.066,0.483-2,0.85c-0.867,0.467-1.6,1.2-2.2,2.2L112.55,200z"/>
	<path style="fill-rule:evenodd;clip-rule:evenodd;fill:#76664D;" d="M157.75,13.9c-1.1,0.434-2.066,1.85-2.9,4.25
		c-0.666,1.9-1,3.317-1,4.25c0,0.4,0.284,1.15,0.851,2.25c0.566,1.067,1.1,1.917,1.6,2.55c0.767,1.133,1.033,3.5,0.8,7.1
		c-0.199,3.034,0.917,5.35,3.351,6.95c-0.167,0.2-1.033,1.15-2.601,2.85c-1.267,1.367-2.316,2.767-3.149,4.2
		c-2.5,4.434-3.967,10.85-4.4,19.25c-0.8,5.167-1.517,9.45-2.149,12.85c-0.334,1.9-0.5,2.967-0.5,3.2
		c0,1.233,0.483,3.316,1.449,6.25c0.834,2.5,1.45,4.083,1.851,4.75c0.366,1.533,0.55,3.467,0.55,5.8
		c-0.033,0.434-0.517,2.383-1.45,5.85c-1.3,0.333-3.066-0.3-5.3-1.9c-1.267-0.9-3.1-2.367-5.5-4.4c0.066,0.3,0.467,1.283,1.2,2.95
		c0.7,1.767,1.05,3.233,1.05,4.4c0,2.167-1.384,3.25-4.15,3.25c-1.133,0-1.917-0.2-2.35-0.6c-0.267-0.3-0.95-1.066-2.05-2.3
		l-1.75-4.05c-0.067-0.7-0.05-1.867,0.05-3.5c0-0.4,0.017-0.833,0.05-1.3c0.133-2.3,0.2-3.617,0.2-3.95
		c0-1.333-0.067-2.617-0.2-3.85l-0.1-1c-0.034,0.967-0.133,1.85-0.3,2.65c-0.033-0.2-0.05-0.383-0.05-0.55
		c-0.367-3.867-0.55-6.633-0.55-8.3c0-2.4,1.333-5.233,4-8.5v0.65c-0.267,0.633-0.733,1.533-1.4,2.7c-0.533,1.3-0.8,3.083-0.8,5.35
		v4.55c0.1,1.7,0.4,2.8,0.9,3.3c-0.3-5.434,0.833-9.25,3.4-11.45c1.2-1.066,1.917-1.9,2.15-2.5c0.5-1.167,0.434-2.917-0.2-5.25
		c-1.2-4.5-0.433-9.017,2.301-13.55c0.933-1.5,3.55-4.667,7.85-9.5c-2.934,1.533-5.434,3.45-7.5,5.75
		c-1.366,1.467-2.783,3.417-4.25,5.85c2.833-4.9,4.75-8.4,5.75-10.5c1.7-3.467,2.566-7.483,2.6-12.05
		c-0.3,2.667-1.933,5.017-4.899,7.05c-1.5,1-3,1.75-4.5,2.25c-1,0-1.5-0.633-1.5-1.9c0-1.466,0.417-2.816,1.25-4.05
		c0.9-1.067,1.667-1.967,2.3-2.7c-0.267,0.833-0.4,1.483-0.4,1.95c0,0.767,0.867,1.15,2.6,1.15c2.1,0,3.816-1.3,5.149-3.9
		c1.067-2.133,1.601-4.367,1.601-6.7c0-0.5-0.233-1.667-0.7-3.5c-0.533-2.1-1.033-3.533-1.5-4.3c-0.934,1.767-1.767,3.433-2.5,5
		c0.2-1.567,0.3-3.267,0.3-5.1c0-2.566-0.366-5.2-1.1-7.9s-1.101-5.483-1.101-8.35V7.6c1.4,2.2,3.117,3.7,5.15,4.5
		c1.767,0.367,2.667,0.55,2.7,0.55c2.399,0,4.184-0.6,5.35-1.8c3-3.033,4.8-4.783,5.4-5.25l0.3,0.5
		c-0.267,0.667-0.467,1.283-0.6,1.85L158.9,8c-0.534,1.567-0.817,2.467-0.851,2.7c2.634-0.8,4.2-1.55,4.7-2.25
		c0.5-1.267,1.283-2.633,2.35-4.1L166.65,5c0,2.467-0.867,4.567-2.601,6.3C162.316,13.033,160.217,13.9,157.75,13.9z M177.1,25.15
		l-0.449-1.4c-0.534-2.467-1.2-5.133-2-8c0.233,0.567,0.666,2.2,1.3,4.9C176.417,22.65,176.8,24.15,177.1,25.15z M255.95,123.6
		l-1.5-2.449c-0.033-0.101-0.617-1.034-1.75-2.801c-1.066-1.633-1.733-2.633-2-3C251.934,116.85,253.684,119.6,255.95,123.6z
		 M241.35,205.05c-0.8,0.367-2.866,1.351-6.199,2.95c-3.5,1.4-6.733,2.116-9.7,2.15c-0.9-0.767-1.667-1.767-2.3-3
		c0.933,0.966,2.149,1.449,3.649,1.449c0.4,0,0.65-0.033,0.75-0.1c0.033-0.1,0.066-0.15,0.101-0.15c0.066-0.6,0.1-1.233,0.1-1.899
		c0-2.066,0.316-4.533,0.95-7.4c0.899-4.267,1.5-7.416,1.8-9.45c-3.267,1.7-5.483,3.367-6.65,5c-1.5,2.034-2.25,4.917-2.25,8.65
		c-0.5-1.866-0.75-3.8-0.75-5.8c0.467-1.5,1.217-2.983,2.25-4.45c2.034-2.866,4.4-4.3,7.101-4.3c3.967,0,6.733,1.816,8.3,5.45
		c0.566,1.399,1.333,5.1,2.3,11.1L241.35,205.05z M162.55,93.55c-0.267,0-0.55,0-0.85,0l-0.15-0.3
		C161.85,93.317,162.184,93.417,162.55,93.55z M184.7,213.5c-2.767-0.467-4.15-1.35-4.15-2.65c0-1.3,0.634-2.083,1.9-2.35
		c1.5-0.033,2.483-0.116,2.95-0.25l-0.101-0.4c-0.333-0.3-1.133-0.966-2.399-2c-1.067-1.166-1.601-2.483-1.601-3.949
		c0-0.767,0.134-1.551,0.4-2.351c0.934,1.434,2.383,2.384,4.35,2.851c0.767,0.166,1.783,0.25,3.05,0.25c1.334,0,3.667-0.467,7-1.4
		c3.334-0.967,5.534-1.45,6.601-1.45c0.5,0,1.116,0.517,1.85,1.55c1,1.367,2.417,2.517,4.25,3.45c2.967,1.533,4.783,2.851,5.45,3.95
		c-0.233,0.4-2.134,0.95-5.7,1.65c-3.934,0.767-7.467,1.149-10.6,1.149c-4.233,0-6.7-0.066-7.4-0.2c-0.8-0.166-2.166-0.916-4.1-2.25
		l0.05,0.601c0.1,0.366,0.767,1.066,2,2.1c1.1,0.934,1.816,1.483,2.15,1.65l-5.851,0.05C184.767,213.5,184.733,213.5,184.7,213.5z
		 M136.15,206.85l0.6-0.1l0.45-0.05L136.15,206.85z M82.95,173.4l-2,0.199c-0.4,0.067-0.85,0.184-1.35,0.351
		c0.4-0.533,0.65-0.834,0.75-0.9c0.167-0.133,0.483-0.2,0.95-0.2c0.434,0,0.833,0.101,1.2,0.301L82.95,173.4z M84.6,176.45
		c0.5,1.833,1.283,4.733,2.35,8.7c1.667,5.399,3.133,8.1,4.4,8.1c0.2,0,1.433-1,3.7-3c2.867-2.5,4.717-4.066,5.55-4.7
		c0.633,0,1.217-0.2,1.75-0.6c3.633-0.134,5.767,0.083,6.4,0.649c0.967,0.801,1.45,3.367,1.45,7.7c0,0.667-0.083,1.667-0.25,3
		c-0.967,1.467-2.217,2.717-3.75,3.75c-1.6,1.066-3.633,2-6.1,2.8c-4.7,1.067-9.467-0.033-14.3-3.3c-1.6-1.1-3.05-2.333-4.35-3.7
		c-1.067-1.166-1.6-1.899-1.6-2.199c0-0.2,0.133-1.233,0.4-3.101l-0.1,0.351c-0.533,0.899-1.8,1.35-3.8,1.35
		c-1.533,0-2.95-0.767-4.25-2.3l0.15,0.95c-0.267-1.367-0.517-2.301-0.75-2.801c-0.2-1.133-0.417-1.899-0.65-2.3l1.5-2.35l4.7-6.25
		l0.05,0.55v0.05c-0.233,0.3-1.167,1.5-2.8,3.601c-0.633,0.8-0.95,1.866-0.95,3.199c0,0.667,0.083,1.567,0.25,2.7l3,0.101
		c2.066,0,3.583-0.634,4.55-1.9c1.233-1.6,2.1-4.45,2.6-8.55C84.117,176.783,84.4,176.616,84.6,176.45z M21.25,166.6
		c-0.2,0.467-0.6,1.467-1.2,3c-0.633,1.7-0.95,2.601-0.95,2.7l0.45,0.101c1.5-0.034,3.617,0.05,6.35,0.25
		c2.533,0.199,3.967,0.3,4.3,0.3c1.2,0,2.383-0.967,3.55-2.9c3.2-5.233,6.067-9.6,8.6-13.1c0.133,0.333,0.233,0.566,0.3,0.7
		c0.133,0.233,0.4,0.35,0.8,0.35c1.1,0,2.35-1.066,3.75-3.2c1.2-1.833,1.8-2.95,1.8-3.35c0-1.101-0.083-1.9-0.25-2.4
		c0.1-0.267,0.083-0.55-0.05-0.85c-0.167-0.467-0.6-1.316-1.3-2.55c0.533,0.333,1.017,1.05,1.45,2.149
		c0.367,1.033,0.55,1.967,0.55,2.8c0,1.034-0.217,2.483-0.65,4.351c-0.033,0.133-0.417,1.666-1.15,4.6
		c-1.467,4.101-2.517,6.783-3.15,8.05c-1.833,3.634-4.083,6.483-6.75,8.551c-2.133,0.767-6.05,2.066-11.75,3.899
		c-2.934,0.934-6.117,2.25-9.55,3.95l-1.1-3.45c1.133-1.333,2.117-3.533,2.95-6.6C19.117,170.65,20.117,168.2,21.25,166.6z
		 M16.7,184.5c0.466,0.5,1.033,1,1.7,1.5l0.8,0.6l0.7,0.351c-0.6-0.2-1.283-0.634-2.05-1.3C17.35,185.217,16.967,184.833,16.7,184.5
		z M12.95,176.05l0.8,0.55l0.65,0.7L12.95,176.05z M17.25,164.75c-0.533,0.533-1.067,1.083-1.6,1.65
		c-2.733,2.8-5.283,5.416-7.65,7.85l2.85,0.85C3.617,173.967,0,172.233,0,169.9c0-0.534,1.183-2.167,3.55-4.9
		c0.967-1.134,1.883-2.2,2.75-3.2c0,0.2,0.05,0.351,0.15,0.45c0.133,0.167,0.2,0.267,0.2,0.3L8,162.8
		c4.467-0.666,8.483-2.666,12.05-6c3.534-3.333,5.3-6.733,5.3-10.2l-0.25-2.3c-0.3-0.033-1.167-0.149-2.6-0.35
		c-1.267-0.167-2.083-0.25-2.45-0.25c-0.8,0-1.55,0.75-2.25,2.25c0.534-1.233,1.434-4.267,2.7-9.101
		c1.333-5.066,2.317-8.216,2.95-9.449c1.033,0.866,1.683,1.3,1.95,1.3c2.367,0,4.5-0.5,6.4-1.5
		c5.633-2.967,10.083-5.167,13.35-6.601c3.2-1.433,7.617-1.85,13.25-1.25c1.833,0.2,3.083,0.101,3.75-0.3
		c0.9-0.533,1.35-1.8,1.35-3.8c0-1.2-1.317-2.116-3.95-2.75c-2.466-0.6-6.4-1-11.8-1.2c2.8-0.767,4.433-1.217,4.9-1.35
		c0.467-0.134,1.184-0.2,2.15-0.2c4.8,0,9.567,0.566,14.3,1.7c4.133,1,7.367,1.566,9.7,1.7c-2.167,0.066-4.033,0.649-5.6,1.75
		c-1.633,1.166-2.45,2.583-2.45,4.25c0,1.666,0.817,3.083,2.45,4.25c1.633,1.166,3.6,1.75,5.9,1.75c2.3,0,4.267-0.584,5.9-1.75
		c1.633-1.167,2.45-2.584,2.45-4.25c0-1.667-0.817-3.084-2.45-4.25c-0.6-0.434-1.267-0.784-2-1.051c1.233-0.733,2.5-2.149,3.8-4.25
		c0.467-1.6,0.917-3.033,1.35-4.3c0.867-2.5,1.917-4.05,3.15-4.65l0.4,0.1c0.167,0.267,0.267,0.433,0.3,0.5
		c0.033,0.133,0.05,0.433,0.05,0.9c0,0.434-0.75,2.75-2.25,6.95c-1.533,4.2-2.3,6.9-2.3,8.101c0,6.3-0.167,10-0.5,11.1
		c-0.6,2.033-2.417,3.05-5.45,3.05c-1.167,0-2.216-0.316-3.15-0.949c-0.367-0.267-0.733-0.517-1.1-0.75
		c-0.133-0.2-0.35-0.351-0.65-0.45c-1.6-1.134-2.767-1.917-3.5-2.351l0.35,0.4c0.5,0.5,0.967,0.967,1.4,1.4
		c1.2,1.199,2.083,2.166,2.65,2.899c0.167,0.2,0.317,0.4,0.45,0.601c0.9,1.366,1.45,3.55,1.65,6.55c-1.3,2.166-4.217,4.533-8.75,7.1
		c-3.967,2.233-6.383,3.351-7.25,3.351c-1.7,0-4.2-1.051-7.5-3.15c-2.9-1.866-4.6-3.184-5.1-3.95v0.05
		c-0.4-0.767-0.816-1.283-1.25-1.55c-0.367-0.233-0.9-0.35-1.6-0.35c-0.667,0-1.4,0.033-2.2,0.1l3.35,0.5l-0.55,0.15
		c-1.466,0.066-3.417,0.783-5.85,2.149c-2.434,1.334-4.1,2-5,2c-0.333,0-0.967-0.433-1.9-1.3c-1.167-1.066-1.75-2.217-1.75-3.45
		c0.167-1.066,0.417-2.116,0.75-3.149c0.633-2.033,1.317-3.05,2.05-3.05c0.167,0,0.867-0.684,2.1-2.051l0.35-0.649l-0.8,0.45
		c-3.367,2.333-5.483,5.716-6.35,10.149c-1.033,5.2-2.533,8.934-4.5,11.2c-2,2.267-4.733,5.233-8.2,8.9
		C18.767,163.017,17.95,163.884,17.25,164.75z M29.6,153.1c0.833-1.699,2.383-3.199,4.65-4.5c2.367-1.399,5.083-2.333,8.15-2.8
		c-1.566,0.601-3.167,1.7-4.8,3.3l-7.55,6.2l-1.15,0.8c0-0.333,0.017-0.649,0.05-0.949c0.5-0.767,1.066-1.717,1.7-2.851l-0.05-0.55
		C30.3,152.184,29.967,152.634,29.6,153.1z M46.3,105.95c1.3-3,3.034-6.567,5.2-10.7l0.75,0.45c0.533,4.066,2.65,6.1,6.35,6.1
		c3.967,0,7.333-3.767,10.1-11.3c1.233-3.8,2.117-6.4,2.65-7.8c0.833-2.367,1.583-3.55,2.25-3.55c0.233,0,0.667,0.3,1.3,0.9
		c0.633,0.6,0.983,1.034,1.05,1.3c0.333-0.367,0.617-0.85,0.85-1.45c0.167-0.433,0.25-0.717,0.25-0.85c0-0.267-0.183-1.6-0.55-4
		c-0.4-2.7-0.717-4.316-0.95-4.85l3.7-1.85l-1.4,0.8c0.933,2.2,1.717,3.617,2.35,4.25c0.9,0.9,2.267,1.35,4.1,1.35
		c2.2-2.2,4.4-4.433,6.6-6.7c4.4-4.566,6.6-7.017,6.6-7.35c0-1.167-0.117-2.434-0.35-3.8c0.633-0.5,1.25-1.033,1.85-1.6l-0.35,0.35
		c1.833,2.833,4.767,4.8,8.8,5.9c1.667,0.467,2.783,0.917,3.35,1.35c0.9,0.7,1.35,1.817,1.35,3.35c0,1.1-0.283,2.017-0.85,2.75
		c-0.133,0.2-0.8,0.867-2,2c1.3-1.4,1.95-2.75,1.95-4.05l-0.05-1.4c0.133-0.1,0.216-0.183,0.25-0.25c0.066-0.066,0.1-0.316,0.1-0.75
		c0-0.267-0.267-0.466-0.8-0.6c-1-0.267-2.75-0.184-5.25,0.25l-2.95-0.05c-0.333,0-0.7,0.117-1.1,0.35
		c-2.934,1.833-5.2,3.917-6.8,6.25c-1.267,1.867-1.9,3.5-1.9,4.9c0,1.367,0.117,2.567,0.35,3.6c-0.167,0.1,0.083,0.15,0.75,0.15
		c1.566,0,4.667-1.316,9.3-3.95c2.167-1.2,3.9-2.367,5.2-3.5c-2.567,2.6-4.8,6.3-6.7,11.1c-0.3,0.733-1.033,3.417-2.2,8.05
		c-0.7,2.767-1.534,4.15-2.5,4.15c-0.7,0-1.317-1.217-1.85-3.65c-0.767-3.233-1.6-5.583-2.5-7.05c-1.6,4.467-3.434,10.233-5.5,17.3
		c-1.767,4.833-4.1,7.25-7,7.25c-1.733,0-3-0.183-3.8-0.55c-1-0.434-1.5-1.184-1.5-2.25c0-1.2,0.4-3.383,1.2-6.55
		c0.7-2.7,1.25-4.533,1.65-5.5l-0.1,3.7c0,0.833,0.05,1.383,0.15,1.65c0.3,0.733,0.983,1.1,2.05,1.1c2.9,0,5.733-3.333,8.5-10
		c2.333-5.567,3.5-9.7,3.5-12.4c-2.133,1-4.883,2.217-8.25,3.65c-2.4,1.2-3.817,2.566-4.25,4.1c0.067-3.933,0.083-6.517,0.05-7.75
		c-0.033-1.9-0.617-3.633-1.75-5.2c0.867,8.733-0.216,15.8-3.25,21.2c-0.3,0.333-0.55,0.5-0.75,0.5c-0.333,0-1.383,1.267-3.15,3.8
		c-0.9,1.267-1.867,2.65-2.9,4.15c-0.367,0.333-1.633,0.9-3.8,1.7c-2.233,0.833-4.267,1.483-6.1,1.95
		c-0.567-0.267-1.017-0.667-1.35-1.2c-0.2-0.3-0.783-0.45-1.75-0.45c-1.8,0-2.917-0.133-3.35-0.4c-0.833-0.467-1.2-1.65-1.1-3.55
		l-0.25,0.15C49.233,101.483,48.067,103.15,46.3,105.95z M111,37.5c-0.533,0.9-1.8,3.1-3.8,6.6c-1.967,3.3-3.483,5.633-4.55,7
		C106.317,45,109.1,40.467,111,37.5z M127.55,98.8c-0.767,1.167-2.167,2.2-4.2,3.1c-1.833,0.833-3.15,1.167-3.95,1l0.3,0.25
		c-0.4-0.167-1.117-0.6-2.15-1.3c-0.833-0.6-1.4-1.033-1.7-1.3l-0.1,1.95c1,3.367,2.967,5.083,5.9,5.15
		c1.367-0.067,2.283-0.051,2.75,0.05c0.767,0.2,1.15,0.767,1.15,1.7c0,1.866-0.5,4.433-1.5,7.699c0.6-3.366,0.9-6.267,0.9-8.699
		c-1.3,3.1-2.367,5.399-3.2,6.899c-0.2,0.334-0.3,0.851-0.3,1.55c0,1.5,0.25,3.95,0.75,7.351c0.6,3.967,1,7.833,1.2,11.6
		c0,3.867-0.9,7.167-2.7,9.9c-1.8,2.733-3.967,4.1-6.5,4.1c-2.067,0.033-4.233,0.25-6.5,0.65c-2.934,0.566-4.784,0.866-5.55,0.899
		c-0.433-0.233-1.133-0.716-2.1-1.449c-0.933-0.667-1.55-1.15-1.85-1.45v0.05c-0.2-0.8-0.3-1.384-0.3-1.75l1.05-4.65l-0.2,2.4
		c0,0.866,0.35,1.833,1.05,2.9c1.2-2.667,2.2-5.851,3-9.551c0.3-1.466,1.217-2.199,2.75-2.199c1.2,0,2.083,0.517,2.65,1.55
		c0.566,1.033,1.216,1.55,1.95,1.55c1.567,0,2.517-0.184,2.85-0.55c0.233-0.233,0.367-1.066,0.4-2.5c0.2-4.667,1.867-10.066,5-16.2
		l0.8-1.3l0.9-1.05l-0.7-0.551c-1.467-0.267-4.433,1.167-8.9,4.301c-4.7,3.267-7.35,6.033-7.95,8.3c-0.4,1.133-0.867,2.1-1.4,2.899
		c-0.5,1.2-1.133,4.051-1.9,8.551c-0.533-0.834-1.283,0.1-2.25,2.8c-0.867,2.434-1.3,4.05-1.3,4.85c0,8.533,0.9,13.9,2.7,16.101
		c-1.233,1.233-3.133,4.85-5.7,10.85c0,0.667,0.066,1.233,0.2,1.7c0.3,0.166,0.5,0.267,0.6,0.3c0.167,0.066,0.45,0.1,0.85,0.1
		c0.3,0,0.65-0.333,1.05-1c0.667-1.166,1.117-1.899,1.35-2.199c1.667-2.167,4.067-3.284,7.2-3.351c1.7-0.033,2.8-1.383,3.3-4.05
		c0.4-4.066,0.783-7.55,1.15-10.45l-0.35,0.4c-0.966,0.967-2.117,2.133-3.45,3.5c-1.067,1.033-2.217,1.883-3.45,2.55
		c0.167-0.134,1.567-1.566,4.2-4.3c2-2.134,3.967-3.517,5.9-4.15l3,0.101c-0.867,1.267-1.8,3.283-2.8,6.05
		c-0.967,2.666-1.467,4.483-1.5,5.45c-0.767,1.767-1.367,3.666-1.8,5.699c-0.633,0.434-1.933,2.25-3.9,5.45
		c-1.467,2.4-3.45,3.601-5.95,3.601c-2.1,0-4.45-1.483-7.05-4.45c-2.6-2.934-3.9-5.517-3.9-7.75c0-13.101,0.267-21.267,0.8-24.5
		c1.733-10.867,3.1-21.084,4.1-30.65c-0.4,5.767-0.6,9.384-0.6,10.851c0,0.666,0.167,1.333,0.5,2c2.967-0.834,5.633-3.5,8-8
		c1.067-2.2,1.8-3.717,2.2-4.551c0.7-1.333,1.267-2.033,1.7-2.1c3.667-0.566,6.3-1.35,7.9-2.35c1.833-1.167,2.65-2.817,2.45-4.95
		h0.45v-1.85c-5.4,0.033-10.15-0.1-14.25-0.4c0.667-1.867,2.5-5.9,5.5-12.1c3.433-7.167,5.767-11.417,7-12.75l-0.25,2.25
		c-0.233,1.233-0.35,2.383-0.35,3.45l0.4,5.45c0.767,3.633,2.35,5.45,4.75,5.45c0.667,0,1.217-0.684,1.65-2.05
		c0.434-1.967,0.8-3.533,1.1-4.7c1.133-4.8,3.117-7.65,5.95-8.55c2.8-0.9,4.283-3.15,4.45-6.75c-0.3-3.833-0.367-6.15-0.2-6.95
		l-1-0.45l-0.85-1.4c-0.6,0.1-1.667,0.717-3.2,1.85c-0.767,0.6-1.65,1.3-2.65,2.1c0.167-0.4,0.434-1.483,0.8-3.25
		c0.466-2.1,0.7-3.583,0.7-4.45l-0.1-3.15l-0.55,0.85c-0.7,1.367-2.3,2.333-4.8,2.9c-1.267,0.3-2.534,0.45-3.8,0.45
		c-2.566,0-4.1-1.816-4.6-5.45c0-0.067,0-2.483,0-7.25c0-3.267,0.167-5.817,0.5-7.65c0.333-1.833,0.5-2.867,0.5-3.1l1.3-1.8
		c0.267,1.934,0.4,3.417,0.4,4.45c0.067,2.4-0.033,5.217-0.3,8.45c0,0.7,0.117,1.2,0.35,1.5c0.333,0.434,0.983,0.65,1.95,0.65
		c0.033,0,2.1-2.934,6.2-8.8c4.1-5.9,6.233-8.85,6.4-8.85c0.267,0,0.566,0.467,0.9,1.4c0.3,0.9,0.7,1.35,1.2,1.35
		c0.867,0,2.233-1.233,4.1-3.7c2.233-2.934,3.35-5.917,3.35-8.95c0-1.133-1.233-2.316-3.7-3.55c1.4-1.233,3.483-4.867,6.25-10.9
		c-0.9,2.633-1.167,6.833-0.8,12.6c0.366,5.534-0.634,10.35-3,14.45c-1.2,2.1-2.633,3.983-4.3,5.65c-1.133,1.133-1.7,2.017-1.7,2.65
		c0,1.5,0.7,3.3,2.1,5.4c1.4,2.066,2.1,3.65,2.1,4.75c0,2.9-0.233,5.433-0.7,7.6c-0.533,2.467-0.833,4.1-0.9,4.9L134,64.7l0.35,9.35
		c0,0.333-0.783,1.467-2.35,3.4c-1.567,1.9-2.35,3.8-2.35,5.7c0,2.3,0.184,4.6,0.55,6.9C130.2,91.983,129.317,94.9,127.55,98.8z
		 M127.35,23.4c-0.434,0.3-1.267,0.85-2.5,1.65c-1.4,0.934-2.2,1.417-2.4,1.45c0.8-0.567,2.316-1.533,4.55-2.9
		C127.133,23.533,127.25,23.467,127.35,23.4z M183.1,88.75c-0.066-0.4-0.1-0.933-0.1-1.6c0-0.4,0.1-0.733,0.3-1
		c0.134-0.167,0.217-0.267,0.25-0.3L183.1,88.75z M185.8,97.5c0.667-0.467,1.101-0.983,1.3-1.55c0.167-0.4,0.25-1,0.25-1.8
		c0-1.667-0.149-2.933-0.449-3.8c-0.434-1.233-1.434-2.917-3-5.05l1-0.9c0.133-0.2,0.416-0.483,0.85-0.85S186.434,83,186.5,83
		c1.134,0,2.384,1.917,3.75,5.75c1.2,3.367,1.8,5.767,1.8,7.2c0,2.2-0.316,3.3-0.95,3.3c-0.566,0-1.333-0.067-2.3-0.2
		c-1.066-0.167-1.783-0.35-2.149-0.55L185.8,97.5z M180.35,54.55c-1.966,0.733-3.55,2.3-4.75,4.7
		c-0.866,1.733-1.333,3.567-1.399,5.5c-0.101,1.667-0.283,2.65-0.55,2.95c-0.834-0.133-1.384-0.8-1.65-2
		c-0.2-0.767-0.3-1.934-0.3-3.5c0-4.434,0.434-7.233,1.3-8.4c1.233-1.667,4.116-2.183,8.65-1.55c0.3,0.8,0.316,1.35,0.05,1.65
		C181.6,54.067,181.15,54.283,180.35,54.55z M186.25,110.5c0.8,0.9,2.134,2.517,4,4.85c1.967,2.467,3.1,3.884,3.4,4.25
		c-0.434,0.9-0.867,3.351-1.301,7.351L191.95,129c-0.733,1.2-1.566,2.45-2.5,3.75l-2.5,2c-1.267,0.033-3.066-0.684-5.4-2.15
		c-3.5-2.166-5.666-3.449-6.5-3.85L175,127l-1.95,0.3l-3-2.25c-0.066,0.134-0.267-0.217-0.6-1.05c0.533,4.233,0.133,7.566-1.2,10
		c-1.366,2.434-3.783,4.116-7.25,5.05h-3.75l0.2,0.15c-0.467-0.101-0.884-0.233-1.25-0.4c-0.3,2.267-0.733,3.733-1.3,4.4
		c-0.601,0.733-1.767,1.1-3.5,1.1c-2.867,0-5.517-3.583-7.95-10.75c-2-5.833-3-10.3-3-13.399c0-2.4,0.533-3.634,1.6-3.7
		c2.3-0.4,4.634,1.383,7,5.35c2.8,4.667,4.45,7.134,4.95,7.4c-0.8-3.934,0.283-6.533,3.25-7.8c1.8-0.767,2.9-1.317,3.3-1.65
		c1.066-0.9,1.601-2.217,1.601-3.95c0-2.133-0.733-4.467-2.2-7l0.899,0.7c2.2,4.233,3.733,7.134,4.601,8.7
		c1.434,2.533,3.6,4.3,6.5,5.3c-0.066-0.3-1.533-3.017-4.4-8.15c-2.6-4.633-3.899-7.949-3.899-9.95c0-2.867,0.399-4.8,1.199-5.8
		c0.801-1,1.2-2.117,1.2-3.35c0-0.4-0.017-0.75-0.05-1.05c2.434,1.367,5.417,3.45,8.95,6.25
		C181.083,106.55,184.85,109.566,186.25,110.5z M228.35,128.6l-4.6-5.399c-0.967-1.134-3.233-3.233-6.8-6.3
		c-3.533-3.034-5.417-4.684-5.65-4.95L211.9,112c3.133,1.533,7.149,4.316,12.05,8.35c6.934,5.7,10.399,10.45,10.399,14.25
		c0,1.134-0.05,1.75-0.149,1.851c-0.7-0.167-1.434-0.8-2.2-1.9C231.566,133.95,230.35,131.967,228.35,128.6z M219.55,128.75
		c0.334,0.2,0.566,0.35,0.7,0.45c1.566,1.2,2.75,2.95,3.55,5.25c0.134,0.399,0.283,0.85,0.45,1.35c0.7,2.5,1.3,6.017,1.8,10.55
		l-4.95-5.149c0-3.834-0.899-7.101-2.699-9.8c-1.801-2.733-3.967-4.101-6.5-4.101c-2.367-2.166-4.184-3.8-5.45-4.899
		c-0.066-0.067-0.334-0.934-0.8-2.601c2.767,2.334,5.716,4.351,8.85,6.05C216.934,127.184,218.616,128.15,219.55,128.75z
		 M215.35,148.55l-0.85,0.95c-0.634,0-1.167,0.25-1.6,0.75c-0.434,0.5-0.65,1.116-0.65,1.85c-0.233,0.301-0.8,1.567-1.7,3.801
		c-1,2.533-1.5,4.283-1.5,5.25c0,0.466,0.283,2.85,0.851,7.149l0.149-0.2c0.101,1.634,0.117,4.117,0.05,7.45
		c-0.066,1.867,0.184,3.55,0.75,5.05l0.4-0.85l0.2-0.9c0.267,0.867,0.583,1.667,0.95,2.4l0.449-0.2
		c0.101-0.333,0.634-4.033,1.601-11.1c0.899-6.667,1.633-10.7,2.2-12.101c-0.134-0.399-0.367-0.5-0.7-0.3
		c-0.167,0.101-0.316,0.233-0.45,0.4c-0.6,0.566-1.267,1.967-2,4.2c-0.4,1.233-0.9,2.916-1.5,5.05c-0.6-4.033,0.116-7.217,2.15-9.55
		c1.533-1.767,3.183-2.65,4.949-2.65c2.134,0,3.5,0.667,4.101,2c0.399,0.9,0.6,2.85,0.6,5.85c0,2.2-0.133,4.851-0.399,7.95
		l-0.601,2.45c-0.7,3.634-2.2,7.05-4.5,10.25c-2.166,3.066-3.467,6.066-3.899,9c-0.101,0.2-0.434,0.767-1,1.7
		c-0.601,1-0.983,1.6-1.15,1.8c-0.4,0.233-2.3,0.667-5.7,1.3l-2-0.8c-0.166-0.233-0.916-2.517-2.25-6.85c-1.333-4.334-2-6.65-2-6.95
		c0-1.667,0.184-3.05,0.55-4.15c0.4-0.866,0.617-1.366,0.65-1.5c-0.1,3.8-0.033,6.533,0.2,8.2c0.333,2.167,1.033,3.25,2.1,3.25
		c0.601,0,1.017-0.2,1.25-0.6c0.233-0.434,0.351-1.25,0.351-2.45c0-7.8-0.301-12.533-0.9-14.2c-0.934-2.6-1.616-6.45-2.05-11.55
		c-0.634,1.833-0.95,4.017-0.95,6.55c0-0.033-0.3-1.233-0.9-3.6c-0.6-2.4-1.066-4.95-1.399-7.65l-0.05,1.55
		c-0.301,3.066-0.601,6.517-0.9,10.351c-0.4,2.3-1.45,3.449-3.15,3.449c-1,0-1.916-0.649-2.75-1.949
		c-1.199-1.9-2.066-3.084-2.6-3.551v0.95c0.634,2.533,1.184,6.05,1.65,10.55c0.199,1.601,0.899,2.4,2.1,2.4
		c1.4-0.3,2.566-0.417,3.5-0.35c1.8,0.133,2.583,1.083,2.35,2.85l-1.55-2.2l0.5,0.95c0.367,0.9,0.601,3.517,0.7,7.85
		c0.134,3.9,0.95,7.15,2.45,9.75c-4.101-1.166-6.334-3.35-6.7-6.55c-0.066-1.733-0.184-3-0.35-3.8c-0.301-1.434-1-2.583-2.101-3.45
		l-0.05,0.851c-0.434,2.233-0.65,3.699-0.65,4.399c0,2.233-0.267,3.783-0.8,4.65c-0.7,1.166-2.066,1.75-4.1,1.75
		c-3.334,0-6.25-3.3-8.75-9.9c-0.4-1-0.75-1.967-1.05-2.899l0.199-0.25l0.25-1c-1-2.834-1.35-5.101-1.05-6.801
		c0.233-1.3,0.983-2.683,2.25-4.149c2.334-2.634,3.634-4.134,3.9-4.5c1.666-2.3,2.983-5,3.95-8.101
		c-1.134,0.301-1.9,0.584-2.301,0.851c0.4-1.4,0.034-3.084-1.1-5.05c-0.6-1.067-1.434-2.384-2.5-3.95v0.399
		c0.733,2.834,0.1,5.467-1.9,7.9c-1.633,2.033-3.116,3.05-4.449,3.05c-1.301,0-2.801-0.8-4.5-2.399
		c-0.934-0.867-2.101-2.101-3.5-3.7c-2.4,2.2-4.134,4.017-5.2,5.45c-2.601,3.6-3.884,7.383-3.851,11.35
		c0.034,4.1-0.267,6.783-0.899,8.05c-1.267,2.434-4.233,3.65-8.9,3.65c-1.666,0-2.883-0.267-3.649-0.8
		c-1.334-0.9-2.051-2.7-2.15-5.4c0.1,0.267,0.4,0.717,0.9,1.35c0.5,0.601,0.883,0.983,1.149,1.15c0.7-1.3,2.717-3.3,6.05-6
		c2.334-1.9,3.534-4.616,3.601-8.15c0.133-6.933,2.3-10.683,6.5-11.25c2.1-0.033,3.55-0.133,4.35-0.3
		c1.3-0.233,1.95-1.033,1.95-2.399c0-1.634-1.934-2.45-5.8-2.45c-0.134,0-0.733,0.166-1.8,0.5c-1.2,0.366-2.084,0.7-2.65,1
		c0.434-0.267,1.184-0.634,2.25-1.101c1-0.466,1.55-0.699,1.65-0.699c6.933,0.533,10.733,0.8,11.399,0.8l1.3-0.05
		c-0.666,0.3-1.816,0.8-3.449,1.5c-1.267,0.733-1.9,1.716-1.9,2.949c0,0.801,0.4,1.5,1.2,2.101c0.767,0.6,1.649,0.899,2.649,0.899
		c0.101,0,3.034-2.733,8.801-8.199c-0.567,0-1.101-0.051-1.601-0.15s-0.899-0.15-1.2-0.15c-0.666,0-1.283,0.067-1.85,0.2
		c1.134-1.533,1.717-4.166,1.75-7.899c0.033-3.601,0.45-5.817,1.25-6.65c1.533,1.267,2.7,2.15,3.5,2.65
		c1.167,0.767,5.15,2.699,11.95,5.8l0.149-0.351c0-2.066,0.051-3.666,0.15-4.8c0.134-2.033,0.517-3.633,1.15-4.8
		c0.933-0.9,1.699-1.783,2.3-2.65c5,0,9.283,1.801,12.85,5.4C213.583,139.1,215.35,143.45,215.35,148.55z M246.65,180.4
		c0.133,1.133,0.25,2.333,0.35,3.6l-1.2-0.15c-1.533-0.666-2.899-1.883-4.1-3.649c-0.601-0.9-1.101-1.8-1.5-2.7l0.5,1.45
		c-0.867-2-1.566-3.967-2.101-5.9c0-0.1-0.199-1.05-0.6-2.85c-0.033-0.834,0-1.834,0.1-3c0.101-1.167,0.233-2.033,0.4-2.601
		c3.467,0.367,5.8,3.217,7,8.551c0.033,0.166,0.066,0.35,0.1,0.55c-0.333,0.767-0.5,1.434-0.5,2
		C245.1,176.134,245.616,177.7,246.65,180.4z M239.65,143.2c0.3-1.134,0.466-2.467,0.5-4c3.866,1.5,6.699,3.217,8.5,5.149
		c2.133,2.301,3.199,5.267,3.199,8.9c0,0.667-0.066,1.283-0.199,1.85l-0.5-0.85c-0.4-1.134-1.384-2.7-2.95-4.7
		c-1.9-2.434-3.684-4.033-5.351-4.8c-0.533-0.2-1.267-0.467-2.199-0.8C240.017,143.684,239.684,143.434,239.65,143.2z M194.2,153.05
		c-0.5-0.1-0.95-0.149-1.351-0.149c-1.066,0-2,0.533-2.8,1.6c-1.033,1.434-1.55,3.566-1.55,6.4c0,0.8,0.35,1.683,1.05,2.649
		c0.566,0.834,1.267,1.584,2.101,2.25c0.199-0.333,0.366-0.566,0.5-0.7l0.199-0.1c0.167-3.6,0.367-6.083,0.601-7.45
		c0.333-2.233,1.083-3.684,2.25-4.35h-0.15C194.983,153.2,194.7,153.15,194.2,153.05z M162.15,161.2l0.949-1.7
		c0.367,0.566,0.767,1.134,1.2,1.7c-0.166-0.134-0.3-0.233-0.399-0.3L162.15,161.2z M161.5,200.4c0.134-0.767,0.167-2.7,0.1-5.801
		c-0.1-3.1-0.149-4.816-0.149-5.149c0-5.367,0.983-8.384,2.95-9.05c1-0.134,1.683-0.25,2.05-0.351c0.6-0.133,0.899-0.6,0.899-1.399
		c0-4.067,0.817-6.801,2.45-8.2c0.834-0.533,1.4-0.95,1.7-1.25c0.4-0.4,0.65-0.917,0.75-1.55c0.366,0.199,0.684,0.383,0.95,0.55
		c-0.2,0.7-0.283,2.399-0.25,5.1c0.066,1.834,0.133,3.783,0.2,5.851c-0.634,2.533-0.95,4.05-0.95,4.55c0,1.866,0.833,4.017,2.5,6.45
		c1.633,2.433,2.45,5.5,2.45,9.199c0,1.567-0.667,3-2,4.301c-1.467,1.433-3.25,2.149-5.351,2.149c-2.333,0-4.316-0.733-5.95-2.2
		C162.816,202.7,162.033,201.634,161.5,200.4z M160.2,164.1c-0.934,3-1.5,5.2-1.7,6.601c0.066-1.5,0.184-2.55,0.35-3.15
		C159.017,166.85,159.467,165.7,160.2,164.1z M177.65,167.2c-0.367,0.6-0.784,2.717-1.25,6.35c-0.334,2.566-0.517,4.4-0.551,5.5
		c-0.566-2.2-0.85-4.066-0.85-5.6c0-0.667,0.384-1.816,1.15-3.45C176.783,168.667,177.283,167.733,177.65,167.2z M173.6,168.4
		c0.067,0.033,0.117,0.066,0.15,0.1c0.467,0.267,0.45,0.4-0.05,0.4C173.366,168.9,173.333,168.733,173.6,168.4z M206.55,197.3
		L210,197.4c-0.366,0.1-0.917,0.133-1.65,0.1C207.616,197.5,207.017,197.434,206.55,197.3z M153.75,32.4l-0.05-2.55l-3.05-0.3
		c0.1,0.767-0.351,2.15-1.351,4.15c-1.066,2.1-1.6,3.733-1.6,4.9c0,1.7,0.767,2.55,2.3,2.55c1.634,0,2.717-0.85,3.25-2.55
		C153.583,37.5,153.75,35.433,153.75,32.4z M134.4,75.8l1.4-10.1c0.233,0.5,0.184,2.1-0.15,4.8
		C135.317,73.333,134.9,75.1,134.4,75.8z M154.45,95.05c0.133-0.167,0.533-0.5,1.2-1c0.699-0.533,1.149-0.833,1.35-0.9
		c-0.767,0.9-1.65,2.55-2.65,4.95C154.75,96.8,154.783,95.783,154.45,95.05z M26.15,158.55l0.1-0.149l-0.05,0.1L26.15,158.55z
		 M25.5,160.25l0.8-1.5h0.45L25.5,160.25z M84,174.4c0.033,0.1,0.067,0.216,0.1,0.35c-0.033-0.033-0.067-0.05-0.1-0.05
		C84,174.6,84,174.5,84,174.4z M66.7,183.7l0.55-0.5l-0.5,0.5H66.7z M118.05,161.8l1.35-0.05l-2.3,0.15L118.05,161.8z M107.15,185.9
		V185.3l-2.5-0.35c-0.233,0.066-0.75,0.267-1.55,0.6c-0.833,0.334-1.3,0.55-1.4,0.65c-1.633,0.434-3.517,1.899-5.65,4.399
		c-1.966,2.334-2.95,4.017-2.95,5.051c0,1.966,1.367,2.949,4.1,2.949c2.867,0,5.433-0.733,7.7-2.199c2.934-1.9,4.4-4.667,4.4-8.301
		c0-0.1-0.15-0.333-0.45-0.699C108.45,186.9,107.883,186.4,107.15,185.9z M149.65,156.15c-0.367,0.3-0.733,0.949-1.101,1.949
		c-0.434,1.101-0.666,1.667-0.7,1.7c0.034-1.233,0.034-2.6,0-4.1c-0.066-1.334-0.1-2.101-0.1-2.3
		C148.45,154.3,149.083,155.217,149.65,156.15z M154.7,151.4l0.399-0.2l0.551-0.2L154.7,151.4z M142.3,183.75
		c-1.434,0.066-2.95,1.083-4.55,3.05c-0.667,0.834-1.2,1.667-1.6,2.5c0.133-0.467,0.283-0.934,0.45-1.399
		c1.2-3.667,2.216-5.5,3.05-5.5c0.133,0,0.449,0.116,0.949,0.35C141.2,183.017,141.767,183.35,142.3,183.75z M135.3,192.65
		c-0.033,0.166-0.05,0.333-0.05,0.5c0,1.733,0.367,3.116,1.1,4.149c0.6,0.867,1.267,1.3,2,1.3c3.101,0,5.101-0.583,6-1.75
		c2.067-2.6,3.967-4.5,5.7-5.699c-0.833,0-1.767-0.467-2.8-1.4c2.934,1.167,4.7,1.95,5.3,2.35c0.7,0.5,1.05,1.65,1.05,3.45
		c0,3.434-0.166,5.517-0.5,6.25c-0.933,2.033-3.35,3.05-7.25,3.05c-0.033,0-1.883-0.583-5.55-1.75c-3.6-1.833-5.4-4.383-5.4-7.649
		C134.9,194.717,135.033,193.783,135.3,192.65z"/>
	<path style="fill-rule:evenodd;clip-rule:evenodd;fill:#5E513E;" d="M194.1,121.75c-0.033,0.3-0.366,1.533-1,3.7
		c-0.633,2.1-1.017,3.283-1.149,3.55l0.399-2.05c0.034-0.167,0.301-0.983,0.801-2.45C193.616,123.1,193.934,122.184,194.1,121.75z
		 M194.9,132.75c-1.634,1.066-2.601,1.667-2.9,1.8c-1.167,0.566-2.483,0.851-3.95,0.851c-0.666,0-1.3-0.051-1.899-0.15l0.8-0.5
		l2.5-2l-0.601,0.75c4-3.167,6.034-4.8,6.101-4.9c1.833-1.767,2.75-3.6,2.75-5.5c0-4.8-0.667-8.133-2-10
		c-0.4-0.566-1.934-1.683-4.601-3.35l-0.399-0.25c0.066,1.167,0.45,2.35,1.149,3.55c0.867,1.5,1.617,3.851,2.25,7.05l-0.449-0.5
		c-0.301-0.366-1.434-1.783-3.4-4.25c-1.866-2.333-3.2-3.949-4-4.85c-1.833-1.934-3.384-3.417-4.65-4.45
		c-1.466-1.2-2.416-2.017-2.85-2.45l0.5,0.1c1.1,0.566,1.75,0.867,1.95,0.9c-1.033-0.967-2.566-2.117-4.601-3.45
		c-1.133-0.733-1.699-1.433-1.699-2.1c0.199-1.333,0.283-2.417,0.25-3.25c-0.034-1.566-0.634-2.65-1.801-3.25
		c-1.899-1-3.733-2.583-5.5-4.75c-0.866-1.066-1.566-2.033-2.1-2.9c-1.134,0-2.65-0.65-4.55-1.95c-2.566-1.767-4.783-4.25-6.65-7.45
		c-0.566-0.967-0.899-4.483-1-10.55c0-6,0-9.167,0-9.5c0-1.5,0.767-3.133,2.3-4.9c1.967-2.3,3.5-5.4,4.601-9.3
		c-2.434-1.6-3.55-3.917-3.351-6.95c0.233-3.6-0.033-5.966-0.8-7.1c-0.434-0.833-0.8-1.65-1.1-2.45c3.6,0.533,7.05,3.65,10.35,9.35
		c3.101,5.367,4.65,10.283,4.65,14.75c0,5.1-1.617,8.267-4.851,9.5c-2.033,0.8-3.149,1.267-3.35,1.4c-1,0.7-1.5,1.883-1.5,3.55
		c0,8.034,2.083,14.5,6.25,19.4c3.233,3.8,6.333,5.7,9.3,5.7c0.934,0,1.533-0.167,1.8-0.5c0.301-0.333,0.45-1.05,0.45-2.15
		c0-1.533-0.166-4.717-0.5-9.55c1.601,1.6,2.917,2.917,3.95,3.95c1.934,1.967,2.983,3.383,3.15,4.25l-1,0.9l-0.351,0.55
		c-0.033,0.033-0.116,0.133-0.25,0.3c-0.2,0.267-0.3,0.6-0.3,1c0,0.667,0.033,1.2,0.1,1.6l-0.25,3.45c0,2.767,0.983,4.533,2.95,5.3
		l0.851,1c0.767,0.767,2.083,1.667,3.949,2.7c1.767,1,2.834,1.5,3.2,1.5c4.167-2.2,6.25-5.034,6.25-8.5l0.75,1.1
		c0.533,1.3,0.9,2.7,1.101,4.2l0.649-0.65c0.2-0.434,0.467-1.117,0.8-2.05c0.4-1.133,0.601-1.917,0.601-2.35
		c0-1.367-0.634-2.784-1.9-4.25c-1.267-1.467-1.899-2.75-1.899-3.85c0-0.5,0.8-1.217,2.399-2.15c1.601-0.934,2.4-1.867,2.4-2.8
		c0-3.566-1.117-5.717-3.351-6.45c-1.333-0.434-5.283-0.583-11.85-0.45c-2.1,0.033-3.333-0.65-3.7-2.05
		c-0.399-1.4-1.483-2.1-3.25-2.1c-2.7,0-4.8-0.117-6.3-0.35c-0.1,0-0.184-0.017-0.25-0.05c0.3,0.033,0.583,0.05,0.85,0.05
		c0.9,0,2.317-0.967,4.25-2.9c2.034-2.033,3.051-3.684,3.051-4.95c-0.9-4.733-1.351-7.783-1.351-9.15l0.45,0.35
		c1,1.333,1.9,2.7,2.7,4.1c1,1.733,1.5,2.95,1.5,3.65c0,2.667,0.083,4.066,0.25,4.2c2.133,1.4,4.05,3.05,5.75,4.95l-1.351,0.55
		l-1.3,0.15c1,0.4,1.584,0.633,1.75,0.7c1.167,0.333,2.4,0.5,3.7,0.5c1.934,0,3.833-0.767,5.7-2.3c1.934-1.6,2.899-3.333,2.899-5.2
		c0-0.967-0.649-2.4-1.949-4.3c-1.534-2.233-3.717-4.684-6.551-7.35c0.7,3.6,1.284,6.267,1.75,8c-0.267-0.8-0.666-1.483-1.199-2.05
		c-0.7-0.733-2-1.583-3.9-2.55c-4.1-2.066-6.566-4.967-7.4-8.7c-0.733-3.267-3.25-6.983-7.55-11.15c-4.066-3.933-6.1-6.3-6.1-7.1
		c0-0.567,0.283-1.717,0.85-3.45c0.533-1.733,0.8-3.133,0.8-4.2c0-0.933-0.267-2.25-0.8-3.95c-0.166-0.5-0.866-2.517-2.1-6.05
		c-0.434,0.7-0.934,2-1.5,3.9c-0.834,1.533-2.334,2.3-4.5,2.3c-0.8,0-1.7-0.367-2.7-1.1c-1.934-1.4-3.434-2.4-4.5-3
		c2.467,0,4.566-0.867,6.3-2.6c1.733-1.733,2.601-3.833,2.601-6.3c4.1,1.8,6.767,5.383,8,10.75c0.8,2.867,1.466,5.533,2,8
		c-0.301,0.3-0.617,1.017-0.95,2.15c-0.334,1.133-0.5,2.1-0.5,2.9c0,0.733,2.583,3.483,7.75,8.25c5.6,5.167,8.6,8.034,9,8.6
		l0.25,0.3c0.1-0.534,0.116-2.067,0.05-4.6c0.134,0,0.316-0.25,0.55-0.75l3.95,2.55l3.9,3.55c0.133,1.933,1.199,4.15,3.199,6.65
		c0.167,0.233,2.301,2.583,6.4,7.05c6.066,6.7,9.1,13,9.1,18.9c0,0.2-0.3,0.784-0.899,1.75c-0.8,1.233-1.717,2.233-2.75,3
		l-0.851,0.3c0.233-0.9-0.149-2.483-1.149-4.75c-0.033-0.067-0.05-0.133-0.05-0.2c0.433,0.434,0.916,0.783,1.449,1.05v-2.6
		c0.567-2.3,0.217-4.383-1.05-6.25s-2.767-2.517-4.5-1.95c0.134,1.8,0.634,3.717,1.5,5.75c0.066,0.167,0.15,0.35,0.25,0.55
		c-0.267-0.2-0.517-0.333-0.75-0.4l-1.1-0.8c2.533,1.933,3.8,6.017,3.8,12.25c0,1-0.2,1.717-0.6,2.15
		c-0.4,0.434-0.601,0.817-0.601,1.15c0,0.133,0.917,1.367,2.75,3.7c1.834,2.367,2.783,5.1,2.851,8.2
		c0.166,0.3,0.316,0.55,0.449,0.75c0.834-2.9,1.25-4.434,1.25-4.6c0.034,3.233,0.417,4.883,1.15,4.95c0.4-0.333,0.684-0.6,0.85-0.8
		c0.301-0.4,0.45-0.9,0.45-1.5c0-1.167-0.217-2.067-0.649-2.7c-0.334-0.466-0.884-0.867-1.65-1.2c-1-7.4-1.5-11.417-1.5-12.05
		c0-0.4,0.05-0.816,0.15-1.25l0.149-0.5c0.101-0.133,0.483-0.2,1.15-0.2c1.633,0,2.8,1.967,3.5,5.9
		c0.899,5.067,1.95,8.433,3.149,10.1c0.9,1.233,3.551,3.283,7.95,6.15c4.967,3.2,8.45,4.733,10.45,4.6
		c3.6,2.934,5.667,4.767,6.2,5.5c0.267,0.367,0.934,1.367,2,3c1.133,1.767,1.717,2.7,1.75,2.801c2.533,4.399,3.816,7.649,3.85,9.75
		c0.033,1.233-0.2,2.983-0.7,5.25l0.101,0.399c0.467,0,1.267-0.434,2.399-1.3c1.067-0.9,1.667-1.384,1.801-1.45
		c2.1,3.033,3.55,5.217,4.35,6.55c1.267,2.233,1.9,4.517,1.9,6.851c0,0.533-0.034,1.05-0.101,1.55c-0.033,0-0.1,0.083-0.2,0.25
		c-0.199,0.167-0.5,0.25-0.899,0.25c-0.834,0-1.783-0.434-2.851-1.3c-1.633-1.367-2.566-2.117-2.8-2.25L260.9,145.6
		c-0.301,0-0.467,0.184-0.5,0.551c0.566,1.133,2.399,3.883,5.5,8.25c1.767,2.466,2.649,5,2.649,7.6c0,4.9-1.333,8.467-4,10.7
		c-2.3,1.934-5.116,2.583-8.45,1.95c-0.199-2.2-0.3-4.534-0.3-7c0-1.167,0.334-2.15,1-2.95c0.634-0.8,0.95-2.101,0.95-3.9
		c0-2.833-0.217-4.833-0.65-6c-0.633-1.767-2.383-4.483-5.25-8.149c-0.166-0.5-0.333-0.983-0.5-1.45
		c-0.333-0.9-0.517-1.25-0.55-1.05c-0.233-0.467-1.7-1.733-4.399-3.801c-2.567-2.267-3.851-4.35-3.851-6.25
		c0-2.233,0.283-4.083,0.851-5.55c0.566-1.5,0.85-3.083,0.85-4.75c0-0.7-0.333-2.3-1-4.8c-0.767-2.833-1.434-4.25-2-4.25
		c-0.333,0-1.634,0.15-3.9,0.45s-3.566,0.45-3.899,0.45c-5.2,0-8.717-0.184-10.55-0.551c-1.767-0.333-2.834-1.033-3.2-2.1
		c0.733,0.267,1.8,0.483,3.2,0.65c1.033,0.1,1.916,0.149,2.649,0.149c2.167,0,3.851-0.184,5.05-0.55
		c1.101-0.333,1.65-0.783,1.65-1.35c-3.934-6.367-5.95-9.55-6.05-9.55c-0.667,0-1.7,0.3-3.101,0.9l0.101,3.4
		c0,1.4-0.417,2.433-1.25,3.1c-0.367,0.3-1.25,0.684-2.65,1.15c-0.566-2.034-2.133-3.733-4.7-5.101c-2.399-1.3-5.017-1.95-7.85-1.95
		c-0.033,0-1.033,0.267-3,0.8c-2.167,0.533-3.783,0.8-4.85,0.8l-5.65-1.2c-1.9,0-2.85,0.567-2.85,1.7c0,0.867,1.883,2.767,5.649,5.7
		c3.733,2.899,5.601,5.55,5.601,7.949c0,2.4-0.233,4.051-0.7,4.95c-0.4,0.8-1.65,2.65-3.75,5.55
		C196.6,130.967,195.833,131.85,194.9,132.75z M238.55,133.2c-0.666,1.8-1.633,3.184-2.899,4.149
		c-1.034,0.767-2.017,1.134-2.95,1.101c0.033,1.366,0.283,2.434,0.75,3.2c0.434,0.6,0.934,0.899,1.5,0.899
		c0.399,0,0.85-0.2,1.35-0.6c0.934-0.767,1.65-2.017,2.15-3.75c-0.033,0.533-0.15,1.233-0.351,2.1
		c-0.166,0.733-0.25,1.267-0.25,1.601c0,0.166,0.167,0.35,0.5,0.55c0.034,0.033,0.467,0.283,1.301,0.75
		c0.033,0.233,0.366,0.483,1,0.75c0.933,0.333,1.666,0.6,2.199,0.8c2.067,1.866,3.817,4.566,5.25,8.1c1.2,3,2.4,4.767,3.601,5.301
		c0.3-0.301,0.45-0.834,0.45-1.601c0-1.133-0.034-2.75-0.101-4.85c-0.133-2.9-0.283-4.684-0.45-5.351l0.25,0.301
		c0.767,3.1,1.483,5.199,2.15,6.3c0.333,0.6,0.5,1.483,0.5,2.649c0,2.634-0.9,3.95-2.7,3.95c-0.566,0-1.267-0.066-2.1-0.2
		c-0.9-0.1-1.351-0.216-1.351-0.35l-1.149-0.45c0.733,0.767,1.95,3.384,3.649,7.851c2,5.333,3,9.633,3,12.899
		c0,0.667,0.034,3.533,0.101,8.601c-0.533,0.8-1.566,2.25-3.101,4.35c-1.233,2.066-1.783,4-1.649,5.8l-0.65,2.3L248.15,201
		c-0.334,0.467-0.684,0.866-1.051,1.2c0.634-4.134-1.517-8.717-6.449-13.75c-1.134-1.167-3.034-2.917-5.7-5.25
		c-2.033-1.767-3.283-3-3.75-3.7c0.233-0.366,0.899-0.934,2-1.7c0.934-0.666,1.399-1.217,1.399-1.649c0-0.934-0.733-3.2-2.199-6.801
		c-1.434-3.5-2.567-5.866-3.4-7.1c0.066-0.3,0.267-0.483,0.6-0.55h0.45c0.634,0.133,1.934,1.149,3.9,3.05
		c2.233,2.134,3.583,3.95,4.05,5.45c0.4,1.8,0.6,2.75,0.6,2.85c0.534,1.934,1.233,3.9,2.101,5.9c0.399,1.7,0.883,3,1.45,3.899
		c0.966,1.567,3.35,3.267,7.149,5.101c-0.233-1.101-1.017-3.367-2.35-6.8c-0.101-0.267-0.2-0.517-0.3-0.75
		c-1.034-2.7-1.551-4.267-1.551-4.7c0-0.566,0.167-1.233,0.5-2c0.267-0.634,0.634-1.316,1.101-2.05
		c1.033-1.733,1.55-2.834,1.55-3.301c0-0.199-2.15-2.3-6.45-6.3c-4.399-4.1-6.967-6.149-7.7-6.149c-2.566,0-5.017-0.733-7.35-2.2
		s-3.816-2.2-4.45-2.2c-1.033,0-4.1,1.434-9.2,4.3c-1.833,1.033-2.683,3.05-2.55,6.05c0.167,3.467,0,5.551-0.5,6.25l-0.149,0.2
		c-0.567-4.3-0.851-6.684-0.851-7.149c0-0.967,0.5-2.717,1.5-5.25c0.9-2.233,1.467-3.5,1.7-3.801c0.767,0.767,1.384,1.15,1.85,1.15
		c0.434,0,1.467-0.733,3.101-2.2c1.566-1.399,2.35-2.166,2.35-2.3l-0.149-2.3c-0.867,0-2.5,1.017-4.9,3.05l0.85-0.95
		c1.167-1.3,1.95-2.133,2.351-2.5c0.633-0.6,1.184-0.899,1.649-0.899c0.634,0,2.334,1.05,5.101,3.149
		c2.767,2.101,4.283,3.15,4.55,3.15c1.7,0,2.55-0.867,2.55-2.601c0-1.233-2.434-5.583-7.3-13.05c-0.167-0.5-0.316-0.95-0.45-1.35
		c-0.8-2.3-1.983-4.05-3.55-5.25c-0.134-0.101-0.366-0.25-0.7-0.45c-6.5-9.866-10.366-15.866-11.6-18l0.75,1
		c2.533,2.667,5.316,4.934,8.35,6.8c3.367,2.101,5.601,3.65,6.7,4.65l4.6,5.399c1.301,3.034,2.15,5,2.551,5.9
		c0.6,1.434,1.483,2.15,2.649,2.15c1.2,0,2.334-0.434,3.4-1.301c1-0.833,1.533-1.8,1.6-2.899V133.2z M86.5,171.95
		c-0.467-1.134-0.7-2.351-0.7-3.65l0.1-5.5c0.033,2.533,0.15,4.384,0.35,5.55c0.4,2.233,1.2,4.233,2.4,6
		C87.75,174.017,87.033,173.217,86.5,171.95z M111.25,154.3c-7.5,0.167-11.317,0.217-11.45,0.15c-0.667-0.367-1.2-2.351-1.6-5.95
		v-0.05c0.3,0.3,0.917,0.783,1.85,1.45c0.967,0.733,1.667,1.216,2.1,1.449l2.4,0.101c2.3,0.2,4.4,0.533,6.3,1
		c1.533,0.366,2.833,0.55,3.9,0.55c0.767,0,2.667-0.866,5.7-2.6c3.6-2.067,5.4-3.95,5.4-5.65c0-1.333-0.317-3.35-0.95-6.05
		c-0.867-3.667-1.316-5.584-1.35-5.75l-0.05-1l-0.1,3.85c-0.2-3.767-0.6-7.633-1.2-11.6c-0.5-3.4-0.75-5.851-0.75-7.351
		c0-0.699,0.1-1.216,0.3-1.55c0.833-1.5,1.9-3.8,3.2-6.899c0,2.433-0.3,5.333-0.9,8.699c0.067,1.601,0.567,4.784,1.5,9.551
		c0.867,4.5,1.284,7.767,1.25,9.8l0.4-1c0.933-1.5,1.667-4.117,2.2-7.851c0.233,2.634,1.1,4.784,2.6,6.45l0.7,0.65
		c0.1-0.733,0.133-2.117,0.1-4.15c-0.033-2.033-0.05-3.217-0.05-3.55c0-0.566,0.267-2.267,0.8-5.1
		c0.467-2.334,0.534-4.851,0.2-7.551l-0.05-0.6l-0.75,0.8c-0.5,0.634-0.75,1.15-0.75,1.55c0,1.7-0.467,3.75-1.4,6.15
		c-0.466,1.167-0.816,2.083-1.05,2.75c0-0.233,0.017-0.45,0.05-0.65c0.333-3.633,0.5-7.533,0.5-11.699c0-2.634-0.15-4.567-0.45-5.8
		c-0.267-1.033-0.783-2.033-1.55-3c0.833-0.667,1.5-2.05,2-4.15c0.467-2.133,0.567-4.117,0.3-5.95c0.1-0.333,0.2-0.7,0.3-1.1
		c0.167-0.8,0.267-1.683,0.3-2.65l0.1,1c0.133,1.233,0.2,2.517,0.2,3.85c0,0.333-0.067,1.65-0.2,3.95
		c-0.033,0.467-0.05,0.9-0.05,1.3c-0.1,1.633-0.117,2.8-0.05,3.5l1.75,4.05c0.533,1.466,1.4,2.683,2.6,3.649
		c0.967,0.733,1.45,1.533,1.45,2.4c0,0.666-0.333,3.583-1,8.75c0,1.566,0.583,3.5,1.75,5.8c0.033,0.066,1.3,2.316,3.8,6.75
		c3.667,6.5,5.5,12.417,5.5,17.75c0,2.634-2.416,6.616-7.25,11.95c-4.867,5.333-7.3,9.35-7.3,12.05c0,0.866,0.433,1.533,1.3,2
		c0.8-1.333,1.7-2.767,2.7-4.3c1.967-3.101,3.733-5.467,5.3-7.101l-0.75,1.4c-1.566,5.4-3.683,10.233-6.35,14.5
		c-1.434,2.267-2.15,6.684-2.15,13.25c0,1.1,0.95,2.967,2.85,5.6c2.067,2.867,3.117,4.351,3.15,4.45l-1.35,0.15l-0.45,0.05
		c-0.3-1.4-1.383-3.15-3.25-5.25c-1.533-1.733-2.3-4.167-2.3-7.3c0-1.4,0.267-3.45,0.8-6.15c0.5-2.666,0.75-4.366,0.75-5.1
		c0-1.467-0.533-2.75-1.6-3.851c-2.233-2.366-3.783-4.166-4.65-5.399l-0.45-0.95c0.1,2.434,0.767,4.934,2,7.5
		c1.2,2.5,1.8,4.684,1.8,6.55c0,0.967-0.483,2.983-1.45,6.05c0,0.467,0.184,1.75,0.55,3.851c0.333,2.6,0.5,5.316,0.5,8.149
		c0,1.067-0.434,2.15-1.3,3.25c-1.633,0.233-7.183,0.834-16.65,1.801c-0.5,0-1.583-0.067-3.25-0.2c4.5-0.233,8.267-2.283,11.3-6.15
		c3.4-4.366,5.1-9.184,5.1-14.45c0-0.933-0.667-1.833-2-2.699c-1.7-1.134-3.083-3.301-4.15-6.5c-0.533-1.601-1.1-2.784-1.7-3.551
		c-0.833-0.966-1.867-1.449-3.1-1.449c-1.733,0-3.767,1.283-6.1,3.85c-1.267,1.434-3.017,3.5-5.25,6.2
		c-0.533,0.399-1.117,0.6-1.75,0.6c-2.434-0.166-4.333-0.684-5.7-1.55c-1.4-0.967-2.1-2.25-2.1-3.85l0.9,1.1
		c0.533,0.434,1.417,0.8,2.65,1.1c1.033,0.233,1.9,0.351,2.6,0.351c2.733,0,5.367-2.55,7.9-7.65c2.066-4.2,3.1-7.25,3.1-9.149
		c0.033-0.967,0.533-2.784,1.5-5.45c1-2.767,1.933-4.783,2.8-6.05L111.25,154.3z M72.35,183.45l-1.5,2.35l-0.45,0.65l-2.15-1.9
		l0.1-2.399l-1.1,1.05l-0.55,0.5c-2.934-0.934-5.833-1.4-8.7-1.4c-4.4,0-9.7,0.967-15.9,2.9c-6.233,1.934-11.417,2.899-15.55,2.899
		c-1.667,0-2.883-0.133-3.65-0.399c-1.133-0.367-2.133-0.617-3-0.75l-0.7-0.351c3.833,0.667,10.083-0.983,18.75-4.949
		c8.833-4.034,13.25-7.467,13.25-10.301c0-1.866-0.883-2.8-2.65-2.8c-0.833,0-2.8,1.584-5.9,4.75c-3.267,3.267-6.4,5.066-9.4,5.4
		l1.3-0.45c0.733-0.4,1.784-1.1,3.15-2.1c2.667-2.067,4.917-4.917,6.75-8.551c0.633-1.267,1.683-3.949,3.15-8.05l3.15-9.6l0.1,6.85
		c0,3.533,1.55,6.267,4.65,8.2c0.2,0.134,1.25,0.684,3.15,1.65c0.967,0.466,1.45,0.899,1.45,1.3c0,0.133-0.2,0.666-0.6,1.6
		c-0.433,0.9-0.65,1.8-0.65,2.7c0,0.934,0.617,1.65,1.85,2.15c1,0.399,2.15,0.6,3.45,0.6c1.8,0,4.767-3.55,8.9-10.65
		c4.1-7.066,6.467-12.616,7.1-16.649c2.033,2.3,3.35,3.783,3.95,4.45c0.9,1.033,1.35,2.267,1.35,3.699
		c0,2.267-1.733,6.634-5.2,13.101C78.383,172.483,75.75,177.316,72.35,183.45z M64.55,176.85c1.534-0.033,2.4-0.05,2.6-0.05
		c1.567,0.267,1.967,2.05,1.2,5.351c5.667-7.167,9.3-11.867,10.9-14.101c2.333-3.3,3.5-6.517,3.5-9.649c0-0.467-0.1-1.217-0.3-2.25
		c-0.2-1-0.4-1.733-0.6-2.2l-0.55-0.7c0,4-2.2,9.05-6.6,15.15c-4.8,6.699-9.2,9.366-13.2,8C62.3,176.7,63.317,176.85,64.55,176.85z
		 M14.7,177.8l-0.3-0.5l-0.65-0.7l-0.05-3.35c0-2.833,1.183-5.667,3.55-8.5c0.7-0.866,1.517-1.733,2.45-2.6
		c0.133-0.134,0.283-0.267,0.45-0.4c2.467-2.066,4.317-3.65,5.55-4.75c1.566-1.4,2.867-2.7,3.9-3.9c0.367-0.466,0.7-0.916,1-1.35
		l0.05,0.55c-0.633,1.134-1.2,2.084-1.7,2.851c-0.6,0.899-1.1,1.55-1.5,1.949l-1.2,1.301l-0.1,0.149c-2.9,3.167-5.5,6.65-7.8,10.45
		C15.95,172.934,14.733,175.866,14.7,177.8z M155,103.55l2.05,2.45c0.434,1.066,0.783,2.167,1.05,3.3
		c-0.066,0.467-0.166,0.717-0.3,0.75c-0.8-0.033-2.517,0.101-5.149,0.4c-0.467,0-1.45-0.384-2.95-1.15
		c-1.4-0.733-2.316-1.283-2.75-1.649c0.366-0.034,0.866-0.184,1.5-0.45c0.633-0.267,1.166-0.583,1.6-0.95
		c0.934-3.467,1.417-5.417,1.45-5.85c0-2.333-0.184-4.267-0.55-5.8c-0.4-0.667-1.017-2.25-1.851-4.75
		c-0.966-2.934-1.449-5.017-1.449-6.25c0-0.233,0.166-1.3,0.5-3.2c0.633-3.4,1.35-7.683,2.149-12.85l-0.3,12.9
		c0,2.966,0.417,5.5,1.25,7.6c0.5,1.333,1.566,3.667,3.2,7c0.333,0.733,0.3,1.75-0.101,3.05c-0.033-0.233-0.733-1.85-2.1-4.85
		c-1.366-2.967-2.316-4.983-2.85-6.05c2.5,6.7,3.75,10.9,3.75,12.6c0,1.434-0.167,3.067-0.5,4.9c-0.233,1.4-0.467,2.434-0.7,3.1
		l0.25,0.75c1.133,0.233,1.916,0.351,2.35,0.351C154.85,108.467,155,106.683,155,103.55z M194.35,48.5c0,0.1,0.25,0.583,0.75,1.45
		c0.534,0.966,1.034,1.783,1.5,2.45l0.9,0.3c0.033-0.767-0.033-1.35-0.2-1.75c-0.233-0.6-1.1-1.733-2.6-3.4l-0.15,0.1
		C194.417,47.817,194.35,48.1,194.35,48.5z M196.6,68.65c0.101-0.2,0.617-0.85,1.551-1.95c0.433-0.5,0.649-1.4,0.649-2.7
		c0-0.8-0.066-1.533-0.2-2.2c0.134,0.5,0.267,0.883,0.4,1.15c0.233,0.466,0.35,1.05,0.35,1.75c0,0.733-0.133,1.35-0.399,1.85
		C198.55,67.183,197.767,67.883,196.6,68.65z M161,139.05c2.634,0.733,4.95-0.3,6.95-3.1c1.833-2.533,3.533-5.417,5.1-8.65L175,127
		l0.05,1.75c0.8,4.533,0.434,8.017-1.1,10.45c-1.566,2.5-4.283,3.75-8.15,3.75c-1.5,0-3.133-0.5-4.899-1.5
		c-0.334-0.167-1.483-0.917-3.45-2.25l-0.2-0.15H161z M249,137.2c0.167,0.166,0.517,0.783,1.05,1.85
		c0.533,1.101,0.816,1.783,0.851,2.05c0.666,0.167,1.283,0.25,1.85,0.25c0.6,0,1.033-0.116,1.3-0.35c0.334-0.3,0.5-0.866,0.5-1.7
		c0-3.133-0.333-5.717-1-7.75c-0.6-1.833-1.3-2.75-2.1-2.75c-0.5,0-1.066,0.601-1.7,1.8c-0.7,1.367-1.116,2.867-1.25,4.5
		c-0.066-0.366-0.1-0.883-0.1-1.55c0-1,0.233-2.217,0.699-3.649c0.467-1.434,0.7-2.4,0.7-2.9c0-1.733-0.767-3.634-2.3-5.7
		c-0.934-1.267-2.783-3.467-5.55-6.6l-0.55-0.9c0.166,0.566,1.083,2.7,2.75,6.4c1.133,2.5,1.699,5.25,1.699,8.25
		c0,0.767-0.466,2.934-1.399,6.5c0,0.434,0.533,1.35,1.6,2.75c1.167,1.6,2.2,2.616,3.101,3.05l1.3,0.55L249,137.2z M227.35,130.65
		c-3.3-4.733-5.966-7.467-8-8.2c0.434,1.233,1.934,4.166,4.5,8.8c2.834,5.167,5.267,10.167,7.301,15
		C232.717,141.75,231.45,136.55,227.35,130.65z M212.25,196c0.167-0.2,0.55-0.8,1.15-1.8c0.566-0.934,0.899-1.5,1-1.7
		c0,0.967-0.2,1.8-0.601,2.5C213.366,195.667,212.85,196,212.25,196z M210,197.4c3.533,0,6.55-2.351,9.05-7.051
		c2.5-4.733,3.75-10.433,3.75-17.1l0.601-2.45l1.55-6.2l0.3,11.75c0,4.767-1.4,9.983-4.2,15.65c-3,6.1-6.1,9.15-9.3,9.15
		c-1,0-2.5-0.534-4.5-1.601c-2.1-1.133-3.417-2.184-3.95-3.149l0.2-0.051l1.05,0.15l2,0.8c0.467,0.134,1.066,0.2,1.8,0.2
		C209.083,197.533,209.634,197.5,210,197.4z M259.5,137.8c0.267,1.566,0.467,2.55,0.6,2.95c0.534,1.6,1.367,2.583,2.5,2.95
		c0.4-0.033,0.617-0.066,0.65-0.101c0.2-0.1,0.3-0.366,0.3-0.8s-0.366-1.267-1.1-2.5C261.55,138.767,260.566,137.934,259.5,137.8z
		 M258.85,154.35v5.95c-0.233,0.334-0.699,1.517-1.399,3.55c-0.733,2.233-1.101,3.75-1.101,4.551c0,1.133,0.317,2,0.95,2.6
		c0.533,0.533,1.15,0.8,1.851,0.8c1.3,0,2.233-0.833,2.8-2.5c0.366-1.066,0.55-2.416,0.55-4.05c0-2.467-0.417-4.783-1.25-6.95
		C260.55,156.467,259.75,155.15,258.85,154.35z M124.3,103.8c-2.333,0-3.867-0.216-4.6-0.65l-0.3-0.25c0.8,0.167,2.117-0.167,3.95-1
		c2.033-0.9,3.433-1.933,4.2-3.1l1.8-2.4c-0.333,1.3-1.267,2.75-2.8,4.35c-1.367,1.433-2.466,2.3-3.3,2.6
		C123.617,103.55,123.967,103.7,124.3,103.8z M57.6,106.4c1.833-0.467,3.867-1.117,6.1-1.95c2.167-0.8,3.433-1.367,3.8-1.7
		c1.033-1.5,2-2.883,2.9-4.15c1.767-2.533,2.817-3.8,3.15-3.8c0.2,0,0.45-0.167,0.75-0.5c0.367-0.5,0.817-1.283,1.35-2.35l1.3-2.9
		c-0.133,2.5-1.317,5.817-3.55,9.95c-3.1,5.667-6.75,8.5-10.95,8.5c-0.534,0-1.367-0.1-2.5-0.3c-1.233-0.233-2.133-0.45-2.7-0.65
		L57.6,106.4z M79.65,138.7c1.4,2.767,0.967,5.8-1.3,9.1c-2.633,3.733-6.733,5.601-12.3,5.601c-2.066,0-4.983-1.117-8.75-3.351
		c-4.2-2.5-6.3-4.899-6.3-7.2l0.05-0.75v-0.05c0.5,0.767,2.2,2.084,5.1,3.95c3.3,2.1,5.8,3.15,7.5,3.15
		c0.867,0,3.283-1.117,7.25-3.351C75.433,143.233,78.35,140.866,79.65,138.7z M118.05,161.8l-0.95,0.101
		c1.133,0.833,3.65,1.783,7.55,2.85c3.3,0.934,5.167,1.4,5.6,1.4c1.767,0,3.933-1.25,6.5-3.75c2.566-2.5,3.85-4.601,3.85-6.301
		c0-1.866-0.149-3.216-0.449-4.05c-0.534-1.066-1.051-2.217-1.551-3.45L137.7,148.7c-0.633,0.1-0.934,0.283-0.9,0.55
		c-0.066,0.167-0.65,2-1.75,5.5c-0.7,2.267-1.566,3.75-2.6,4.45c0.7-1.033,1.383-2.533,2.05-4.5c0.9-2.667,1.35-5.184,1.35-7.55
		c0-1.034-0.267-2.2-0.8-3.5c-0.833-2.034-2.117-3.617-3.85-4.75c0.667,2.899,0.566,5.267-0.3,7.1c-0.6,1.3-1.85,2.684-3.75,4.15
		c-2.6,2.033-4.283,3.466-5.05,4.3C120.233,156.483,118.883,158.934,118.05,161.8z M110.3,195.45c0.067-0.8,0.1-3.267,0.1-7.4
		C110.633,191.783,110.6,194.25,110.3,195.45z M112.55,200c-0.566,1.566-1.767,3.134-3.6,4.7c-1.767,1.533-3.217,2.3-4.35,2.3
		c-1.1,0-2.467-0.217-4.1-0.65c-1.867-0.5-3.267-1.1-4.2-1.8c4.4,0,8.167-1.166,11.3-3.5c3.1-2.333,4.65-5.149,4.65-8.45l1,3.25
		c-0.033,0.567-0.133,1.301-0.3,2.2C112.85,198.517,112.717,199.167,112.55,200z M95.55,204l-0.65-0.55h3.2
		C96.833,203.75,95.983,203.934,95.55,204z"/>
	<path style="fill-rule:evenodd;clip-rule:evenodd;fill:#6C5D45;" d="M247.1,202.2l-5.75,2.85l-0.55,0.2
		c-0.967-6-1.733-9.7-2.3-11.1c-1.566-3.634-4.333-5.45-8.3-5.45c-2.7,0-5.066,1.434-7.101,4.3c-1.033,1.467-1.783,2.95-2.25,4.45
		c0,2,0.25,3.934,0.75,5.8c0.134,0.5,0.284,0.983,0.45,1.45c0.334,0.899,0.7,1.717,1.101,2.45c0.633,1.233,1.399,2.233,2.3,3
		c-0.733,0.066-8.384,0.933-22.95,2.6l-0.7,0.05c-6.1,0.4-9.816,0.617-11.149,0.65c-0.334-0.167-1.051-0.717-2.15-1.65
		c-1.233-1.033-1.9-1.733-2-2.1l-0.05-0.601c1.934,1.334,3.3,2.084,4.1,2.25c0.7,0.134,3.167,0.2,7.4,0.2
		c3.133,0,6.666-0.383,10.6-1.149c3.566-0.7,5.467-1.25,5.7-1.65c-0.667-1.1-2.483-2.417-5.45-3.95
		c-1.833-0.934-3.25-2.083-4.25-3.45c-0.733-1.033-1.35-1.55-1.85-1.55c-1.066,0-3.267,0.483-6.601,1.45
		c-3.333,0.934-5.666,1.4-7,1.4c-1.267,0-2.283-0.084-3.05-0.25c-1.967-0.467-3.416-1.417-4.35-2.851
		c-0.267,0.8-0.4,1.584-0.4,2.351c0,1.466,0.533,2.783,1.601,3.949c1.267,1.034,2.066,1.7,2.399,2l0.101,0.4
		c-0.467,0.134-1.45,0.217-2.95,0.25c-1.267,0.267-1.9,1.05-1.9,2.35c0,1.301,1.384,2.184,4.15,2.65
		c-11.066-0.233-18.483-1.184-22.25-2.85c-0.934-0.434-2.184-1-3.75-1.7c-1.566-0.5-3.834-0.75-6.8-0.75
		c-1.101,0-3.15-0.25-6.15-0.75c-3.134-0.533-5.533-0.834-7.2-0.9c-0.033-0.1-1.083-1.583-3.15-4.45c-1.9-2.633-2.85-4.5-2.85-5.6
		c0-6.566,0.717-10.983,2.15-13.25c2.667-4.267,4.783-9.1,6.35-14.5l0.75-1.4c-1.566,1.634-3.333,4-5.3,7.101
		c-1,1.533-1.9,2.967-2.7,4.3c-0.867-0.467-1.3-1.134-1.3-2c0-2.7,2.433-6.717,7.3-12.05c4.834-5.334,7.25-9.316,7.25-11.95
		c0-5.333-1.833-11.25-5.5-17.75c-2.5-4.434-3.767-6.684-3.8-6.75c-1.167-2.3-1.75-4.233-1.75-5.8c0.667-5.167,1-8.084,1-8.75
		c0-0.867-0.483-1.667-1.45-2.4c-1.2-0.967-2.066-2.184-2.6-3.649c1.1,1.233,1.783,2,2.05,2.3c0.433,0.399,1.217,0.6,2.35,0.6
		c2.766,0,4.15-1.083,4.15-3.25c0-1.167-0.35-2.633-1.05-4.4c-0.733-1.667-1.134-2.65-1.2-2.95c2.4,2.033,4.233,3.5,5.5,4.4
		c2.233,1.6,4,2.233,5.3,1.9c-0.434,0.367-0.967,0.683-1.6,0.95c-0.634,0.267-1.134,0.416-1.5,0.45
		c0.434,0.366,1.35,0.916,2.75,1.649c1.5,0.767,2.483,1.15,2.95,1.15c2.633-0.3,4.35-0.434,5.149-0.4
		c0.134-0.033,0.233-0.283,0.3-0.75c-0.267-1.133-0.616-2.233-1.05-3.3l2.9,2.8c1.467,2.533,2.2,4.867,2.2,7
		c0,1.733-0.534,3.05-1.601,3.95c-0.399,0.333-1.5,0.884-3.3,1.65c-2.967,1.267-4.05,3.866-3.25,7.8c-0.5-0.267-2.15-2.733-4.95-7.4
		c-2.366-3.967-4.7-5.75-7-5.35c-1.066,0.066-1.6,1.3-1.6,3.7c0,3.1,1,7.566,3,13.399c2.434,7.167,5.083,10.75,7.95,10.75
		c1.733,0,2.899-0.366,3.5-1.1c0.566-0.667,1-2.134,1.3-4.4c0.366,0.167,0.783,0.3,1.25,0.4c1.967,1.333,3.116,2.083,3.45,2.25
		c1.767,1,3.399,1.5,4.899,1.5c3.867,0,6.584-1.25,8.15-3.75c1.533-2.434,1.899-5.917,1.1-10.45c0.834,0.4,3,1.684,6.5,3.85
		c2.334,1.467,4.134,2.184,5.4,2.15l-0.8,0.5c0.6,0.1,1.233,0.15,1.899,0.15c1.467,0,2.783-0.284,3.95-0.851
		c0.3-0.133,1.267-0.733,2.9-1.8c-0.634,1.167-1.017,2.767-1.15,4.8c-0.1,1.134-0.15,2.733-0.15,4.8l-0.149,0.351
		c-6.8-3.101-10.783-5.033-11.95-5.8c-0.8-0.5-1.967-1.384-3.5-2.65c-0.8,0.833-1.217,3.05-1.25,6.65
		c-0.033,3.733-0.616,6.366-1.75,7.899c-0.167,0.101-1.05,0.384-2.65,0.851l-1.3,0.05c-0.666,0-4.467-0.267-11.399-0.8
		c-0.101,0-0.65,0.233-1.65,0.699c-1.066,0.467-1.816,0.834-2.25,1.101l-0.65,0.5l-0.399,0.2c-1.334,0.8-2.316,1.683-2.95,2.649
		c-0.634,0.934-1.333,1.634-2.1,2.101c-0.567-0.934-1.2-1.851-1.9-2.75c0,0.199,0.033,0.966,0.1,2.3c0.034,1.5,0.034,2.866,0,4.1
		c-0.267,0.533-0.883,2.15-1.85,4.851c-1.2,3.333-1.8,5.433-1.8,6.3c-1.4,2.7-2.3,4.8-2.7,6.3c0.1,2.7,0.816,4.5,2.15,5.4
		c0.767,0.533,1.983,0.8,3.649,0.8c4.667,0,7.634-1.217,8.9-3.65c0.633-1.267,0.934-3.95,0.899-8.05
		c-0.033-3.967,1.25-7.75,3.851-11.35c1.066-1.434,2.8-3.25,5.2-5.45c1.399,1.6,2.566,2.833,3.5,3.7
		c1.699,1.6,3.199,2.399,4.5,2.399c1.333,0,2.816-1.017,4.449-3.05c2-2.434,2.634-5.066,1.9-7.9V149.7
		c1.066,1.566,1.9,2.883,2.5,3.95c1.134,1.966,1.5,3.649,1.1,5.05c-0.733,0.633-1.8,1.983-3.199,4.05
		c-1.634,2.366-2.717,3.85-3.25,4.45c-0.367,0.533-0.867,1.467-1.5,2.8c-0.767,1.634-1.15,2.783-1.15,3.45
		c0,1.533,0.283,3.399,0.85,5.6c-0.033,0.233-0.05,0.434-0.05,0.601c0,1.133,0.167,1.966,0.5,2.5c0.367,0.333,0.55,0.517,0.55,0.55
		l0.051-0.05c0.3,0.933,0.649,1.899,1.05,2.899c2.5,6.601,5.416,9.9,8.75,9.9c2.033,0,3.399-0.584,4.1-1.75
		c0.533-0.867,0.8-2.417,0.8-4.65c0-0.7,0.217-2.166,0.65-4.399l0.05-0.851c1.101,0.867,1.8,2.017,2.101,3.45
		c0.166,0.8,0.283,2.066,0.35,3.8c0.366,3.2,2.6,5.384,6.7,6.55c-1.5-2.6-2.316-5.85-2.45-9.75c-0.1-4.333-0.333-6.949-0.7-7.85
		l-0.5-0.95l1.55,2.2c0.233-1.767-0.55-2.717-2.35-2.85c-0.934-0.067-2.1,0.05-3.5,0.35c-1.2,0-1.9-0.8-2.1-2.4
		c-0.467-4.5-1.017-8.017-1.65-10.55v-0.95c0.533,0.467,1.4,1.65,2.6,3.551c0.834,1.3,1.75,1.949,2.75,1.949
		c1.7,0,2.75-1.149,3.15-3.449c0.3-3.834,0.6-7.284,0.9-10.351l0.05-1.55c0.333,2.7,0.8,5.25,1.399,7.65
		c0.601,2.366,0.9,3.566,0.9,3.6v10.8c-0.033,0.134-0.25,0.634-0.65,1.5c-0.366,1.101-0.55,2.483-0.55,4.15
		c0,0.3,0.667,2.616,2,6.95c1.334,4.333,2.084,6.616,2.25,6.85l-1.05-0.15l-0.2,0.051c0.533,0.966,1.851,2.017,3.95,3.149
		c2,1.066,3.5,1.601,4.5,1.601c3.2,0,6.3-3.051,9.3-9.15c2.8-5.667,4.2-10.884,4.2-15.65l-0.3-11.75l-1.55,6.2
		c0.267-3.1,0.399-5.75,0.399-7.95c0-3-0.2-4.949-0.6-5.85c-0.601-1.333-1.967-2-4.101-2c-1.767,0-3.416,0.884-4.949,2.65
		c-2.034,2.333-2.75,5.517-2.15,9.55c-0.066,0.133-0.184,0.85-0.35,2.149c-0.2,1.334-0.301,2.233-0.301,2.7l0.101,6.8l-0.2,0.9
		l-0.4,0.85c-0.566-1.5-0.816-3.183-0.75-5.05c0.067-3.333,0.051-5.816-0.05-7.45c0.5-0.699,0.667-2.783,0.5-6.25
		c-0.133-3,0.717-5.017,2.55-6.05c5.101-2.866,8.167-4.3,9.2-4.3c0.634,0,2.117,0.733,4.45,2.2s4.783,2.2,7.35,2.2
		c0.733,0,3.301,2.05,7.7,6.149c4.3,4,6.45,6.101,6.45,6.3c0,0.467-0.517,1.567-1.55,3.301c-0.467,0.733-0.834,1.416-1.101,2.05
		c-0.033-0.2-0.066-0.384-0.1-0.55c-1.2-5.334-3.533-8.184-7-8.551c-0.167,0.567-0.3,1.434-0.4,2.601c-0.1,1.166-0.133,2.166-0.1,3
		c-0.467-1.5-1.816-3.316-4.05-5.45c-1.967-1.9-3.267-2.917-3.9-3.05h-0.45c-0.333,0.066-0.533,0.25-0.6,0.55
		c0.833,1.233,1.967,3.6,3.4,7.1c1.466,3.601,2.199,5.867,2.199,6.801c0,0.433-0.466,0.983-1.399,1.649
		c-1.101,0.767-1.767,1.334-2,1.7c0.467,0.7,1.717,1.934,3.75,3.7c2.666,2.333,4.566,4.083,5.7,5.25
		C245.583,193.483,247.733,198.066,247.1,202.2z M162.55,93.55c-0.366-0.133-0.7-0.233-1-0.3c-1.1-0.5-2.616-0.533-4.55-0.1
		c-0.2,0.067-0.65,0.367-1.35,0.9c-0.667,0.5-1.067,0.833-1.2,1c-1.634-3.333-2.7-5.667-3.2-7c-0.833-2.1-1.25-4.633-1.25-7.6
		l0.3-12.9c0.434-8.4,1.9-14.816,4.4-19.25c0.833-1.433,1.883-2.833,3.149-4.2c1.567-1.7,2.434-2.65,2.601-2.85
		c-1.101,3.9-2.634,7-4.601,9.3c-1.533,1.767-2.3,3.4-2.3,4.9c0,0.333,0,3.5,0,9.5c0.101,6.066,0.434,9.583,1,10.55
		c1.867,3.2,4.084,5.683,6.65,7.45c1.899,1.3,3.416,1.95,4.55,1.95c0.533,0.867,1.233,1.833,2.1,2.9
		c1.767,2.167,3.601,3.75,5.5,4.75c1.167,0.6,1.767,1.684,1.801,3.25c0.033,0.833-0.051,1.917-0.25,3.25
		c0,0.667,0.566,1.367,1.699,2.1c2.034,1.333,3.567,2.483,4.601,3.45c-0.2-0.033-0.851-0.333-1.95-0.9l-0.5-0.1
		c0.434,0.433,1.384,1.25,2.85,2.45c1.267,1.033,2.817,2.517,4.65,4.45c-1.4-0.934-5.167-3.95-11.3-9.05
		c-3.533-2.8-6.517-4.883-8.95-6.25c-0.1-1-0.384-1.534-0.85-1.6C164.75,93.533,163.884,93.517,162.55,93.55z M128.3,103.85
		c0.767,0.967,1.284,1.967,1.55,3c0.3,1.233,0.45,3.167,0.45,5.8c0,4.166-0.167,8.066-0.5,11.699c-0.033,0.2-0.05,0.417-0.05,0.65
		c-0.267,0.667-0.4,1.05-0.4,1.15c0,0.5,0.017,0.983,0.05,1.449c-0.533,3.733-1.267,6.351-2.2,7.851l-0.4,1
		c0.034-2.033-0.383-5.3-1.25-9.8c-0.933-4.767-1.433-7.95-1.5-9.551c1-3.267,1.5-5.833,1.5-7.699c0-0.934-0.383-1.5-1.15-1.7
		c-0.467-0.101-1.383-0.117-2.75-0.05c-2.933-0.067-4.9-1.784-5.9-5.15l0.1-1.95c0.3,0.267,0.867,0.7,1.7,1.3
		c1.034,0.7,1.75,1.133,2.15,1.3c0.733,0.434,2.267,0.65,4.6,0.65c0.534,0.133,1.233,0.217,2.1,0.25
		C127.2,104.05,127.833,103.983,128.3,103.85z M98.1,203.45h-3.2l0.65,0.55l0.75,0.55c0.934,0.7,2.333,1.3,4.2,1.8
		c1.633,0.434,3,0.65,4.1,0.65c1.133,0,2.583-0.767,4.35-2.3c1.833-1.566,3.033-3.134,3.6-4.7l0.15,1c0.6-1,1.333-1.733,2.2-2.2
		c0.934-0.366,1.6-0.649,2-0.85c1.333-0.7,2-2.75,2-6.15c0-4.434-1.767-7.217-5.3-8.35c-0.167,0.133-0.317,1.166-0.45,3.1
		c-0.1,1.634-0.15,2.851-0.15,3.65l0.25,5.649l-1-3.25c-0.033-0.8-0.167-1.916-0.4-3.35c-0.333-1.934-0.5-2.917-0.5-2.95v-1.35
		l-0.9,2.7l-0.05,0.1v0.3c0,4.134-0.033,6.601-0.1,7.4l-0.35,0.85c0.167-1.333,0.25-2.333,0.25-3c0-4.333-0.483-6.899-1.45-7.7
		c-0.633-0.566-2.767-0.783-6.4-0.649c2.233-2.7,3.983-4.767,5.25-6.2c2.333-2.566,4.367-3.85,6.1-3.85
		c1.233,0,2.267,0.483,3.1,1.449c0.6,0.767,1.167,1.95,1.7,3.551c1.067,3.199,2.45,5.366,4.15,6.5c1.333,0.866,2,1.767,2,2.699
		c0,5.267-1.7,10.084-5.1,14.45c-3.033,3.867-6.8,5.917-11.3,6.15c-0.333-0.033-0.667-0.066-1-0.101
		c-2.4-0.199-3.967-0.383-4.7-0.55l-2.8-0.75c-9.867-4.733-16.85-8.283-20.95-10.649c-3.7-2.167-5.767-3.801-6.2-4.9
		c-0.133-0.7-0.25-1.316-0.35-1.85l-0.15-0.95c1.3,1.533,2.717,2.3,4.25,2.3c2,0,3.267-0.45,3.8-1.35l0.1-0.351
		c-0.267,1.867-0.4,2.9-0.4,3.101c0,0.3,0.533,1.033,1.6,2.199c1.3,1.367,2.75,2.601,4.35,3.7c4.833,3.267,9.6,4.367,14.3,3.3
		L98.1,203.45z M70.4,186.45l0.45-0.65c0.233,0.4,0.45,1.167,0.65,2.3L70.4,186.45z M16.7,184.5l-0.3-0.5
		c3.434-1.7,6.617-3.017,9.55-3.95c5.7-1.833,9.617-3.133,11.75-3.899c-1.367,1-2.417,1.699-3.15,2.1l-1.3,0.45
		c3-0.334,6.133-2.134,9.4-5.4c3.1-3.166,5.067-4.75,5.9-4.75c1.767,0,2.65,0.934,2.65,2.8c0,2.834-4.417,6.267-13.25,10.301
		c-8.667,3.966-14.917,5.616-18.75,4.949l-0.8-0.6C17.733,185.5,17.167,185,16.7,184.5z M14.7,177.8
		c0.033-1.934,1.25-4.866,3.65-8.8c2.3-3.8,4.9-7.283,7.8-10.45l0.05-0.05l0.1,0.25l-0.8,1.5c-0.3,0.4-0.933,1.3-1.9,2.7
		c-1.167,1.666-1.95,2.883-2.35,3.649c-1.133,1.601-2.133,4.051-3,7.351c-0.833,3.066-1.817,5.267-2.95,6.6
		C15.133,179.25,14.933,178.333,14.7,177.8z M72.35,183.45c3.4-6.134,6.033-10.967,7.9-14.5c3.467-6.467,5.2-10.834,5.2-13.101
		c0-1.433-0.45-2.666-1.35-3.699c-0.6-0.667-1.917-2.15-3.95-4.45c-0.633,4.033-3,9.583-7.1,16.649
		c-4.133,7.101-7.1,10.65-8.9,10.65c-1.3,0-2.45-0.2-3.45-0.6c-1.233-0.5-1.85-1.217-1.85-2.15c0-0.9,0.217-1.8,0.65-2.7
		c0.4-0.934,0.6-1.467,0.6-1.6c0-0.4-0.483-0.834-1.45-1.3c-1.9-0.967-2.95-1.517-3.15-1.65c-3.1-1.934-4.65-4.667-4.65-8.2
		l-0.1-6.85l-3.15,9.6c0.733-2.934,1.117-4.467,1.15-4.6c0.433-1.867,0.65-3.316,0.65-4.351c0-0.833-0.183-1.767-0.55-2.8
		c-0.434-1.1-0.917-1.816-1.45-2.149l-0.25-0.2c-1.667,0-3.25,0.116-4.75,0.35c-3.066,0.467-5.783,1.4-8.15,2.8
		c-2.267,1.301-3.817,2.801-4.65,4.5c-1.033,1.2-2.333,2.5-3.9,3.9c-1.233,1.1-3.083,2.684-5.55,4.75
		c-0.167,0.134-0.316,0.267-0.45,0.4c3.466-3.667,6.2-6.634,8.2-8.9c1.967-2.267,3.467-6,4.5-11.2
		c0.867-4.434,2.983-7.816,6.35-10.149l0.8-0.45L39.2,132.1c-1.233,1.367-1.934,2.051-2.1,2.051c-0.733,0-1.417,1.017-2.05,3.05
		c-0.333,1.033-0.583,2.083-0.75,3.149c0,1.233,0.583,2.384,1.75,3.45c0.934,0.867,1.567,1.3,1.9,1.3c0.9,0,2.566-0.666,5-2
		c2.433-1.366,4.383-2.083,5.85-2.149l0.55-0.15L46,140.3c0.8-0.066,1.533-0.1,2.2-0.1c0.7,0,1.233,0.116,1.6,0.35
		c0.434,0.267,0.85,0.783,1.25,1.55L51,142.85c0,2.301,2.1,4.7,6.3,7.2c3.767,2.233,6.684,3.351,8.75,3.351
		c5.567,0,9.667-1.867,12.3-5.601c2.267-3.3,2.7-6.333,1.3-9.1c-0.2-3-0.75-5.184-1.65-6.55c-0.133-0.2-0.283-0.4-0.45-0.601
		c-0.033-0.899-0.066-1.45-0.1-1.649c-0.034-0.101-0.083-0.184-0.15-0.25c0.367,0.233,0.733,0.483,1.1,0.75
		c0.934,0.633,1.983,0.949,3.15,0.949c3.034,0,4.85-1.017,5.45-3.05c0.333-1.1,0.5-4.8,0.5-11.1c0-1.2,0.767-3.9,2.3-8.101
		c1.5-4.2,2.25-6.516,2.25-6.95c0-0.467-0.017-0.767-0.05-0.9c-0.033-0.067-0.133-0.233-0.3-0.5l-0.4-0.1
		c-1.233,0.6-2.283,2.15-3.15,4.65c-0.433,1.267-0.883,2.7-1.35,4.3c-1.3,2.101-2.566,3.517-3.8,4.25
		c-0.667,0.4-1.333,0.584-2,0.551c-0.6,0-1.15-0.2-1.65-0.601c-0.367-0.3-0.55-0.517-0.55-0.649c-2.333-0.134-5.566-0.7-9.7-1.7
		c-4.733-1.134-9.5-1.7-14.3-1.7c-0.966,0-1.683,0.066-2.15,0.2c-0.467,0.133-2.1,0.583-4.9,1.35l-4.5,0.4
		c0.2-0.267,0.383-0.5,0.55-0.7c0.567-0.667,1.25-1.983,2.05-3.95c0.133-0.367,0.283-0.733,0.45-1.1c1.767-2.8,2.934-4.467,3.5-5
		l0.25-0.15c-0.1,1.9,0.267,3.083,1.1,3.55c0.434,0.267,1.55,0.4,3.35,0.4c0.967,0,1.55,0.15,1.75,0.45
		c0.333,0.533,0.783,0.933,1.35,1.2l-0.35,0.15c0.567,0.2,1.467,0.417,2.7,0.65c1.133,0.2,1.966,0.3,2.5,0.3
		c4.2,0,7.85-2.833,10.95-8.5c2.233-4.133,3.417-7.45,3.55-9.95l-1.3,2.9c-0.533,1.066-0.983,1.85-1.35,2.35
		c3.034-5.4,4.117-12.466,3.25-21.2c1.133,1.566,1.717,3.3,1.75,5.2c0.034,1.233,0.017,3.817-0.05,7.75
		c-0.067,0.4-0.367,1.633-0.9,3.7c-0.434,1.7-0.667,3.2-0.7,4.5c-0.4,0.967-0.95,2.8-1.65,5.5c-0.8,3.167-1.2,5.35-1.2,6.55
		c0,1.066,0.5,1.816,1.5,2.25c0.8,0.367,2.067,0.55,3.8,0.55c2.9,0,5.233-2.417,7-7.25c2.066-7.067,3.9-12.833,5.5-17.3
		c0.9,1.467,1.733,3.817,2.5,7.05c0.533,2.433,1.15,3.65,1.85,3.65c0.966,0,1.8-1.383,2.5-4.15c1.167-4.633,1.9-7.317,2.2-8.05
		c1.9-4.8,4.133-8.5,6.7-11.1c0.2-0.267,0.417-0.5,0.65-0.7c0.1-0.1,0.2-0.183,0.3-0.25c1.2-1.133,1.867-1.8,2-2
		c0.567-0.733,0.85-1.65,0.85-2.75c0-1.533-0.45-2.65-1.35-3.35c-0.566-0.433-1.683-0.883-3.35-1.35c-4.034-1.1-6.967-3.066-8.8-5.9
		L99,55.3l0.5-0.45c0.733-0.567,1.783-1.817,3.15-3.75c1.067-1.367,2.583-3.7,4.55-7c2-3.5,3.267-5.7,3.8-6.6l0.55-0.85v0.05
		c0,0.233-0.167,1.267-0.5,3.1c-0.333,1.833-0.5,4.383-0.5,7.65c0,4.767,0,7.183,0,7.25c0.5,3.633,2.034,5.45,4.6,5.45
		c1.267,0,2.533-0.15,3.8-0.45c2.5-0.567,4.1-1.534,4.8-2.9l0.55-0.85l0.1,3.15c0,0.867-0.233,2.35-0.7,4.45
		c-0.367,1.767-0.633,2.85-0.8,3.25c-1.167,0.633-2.967,2.233-5.4,4.8c-2.5,2.566-3.967,4.4-4.4,5.5
		c-1.233,1.333-3.567,5.583-7,12.75c-3,6.2-4.833,10.233-5.5,12.1c-2.367,0.7-4.367,2.333-6,4.9c-0.967,1.567-1.583,2.966-1.85,4.2
		l-0.5,2.25c-1,9.566-2.367,19.783-4.1,30.65c-0.533,3.233-0.8,11.399-0.8,24.5c0,2.233,1.3,4.816,3.9,7.75
		c2.6,2.967,4.95,4.45,7.05,4.45c2.5,0,4.483-1.2,5.95-3.601c1.967-3.2,3.267-5.017,3.9-5.45c0.434-2.033,1.033-3.933,1.8-5.699
		c0,1.899-1.034,4.949-3.1,9.149c-2.533,5.101-5.167,7.65-7.9,7.65c-0.7,0-1.567-0.117-2.6-0.351c-1.233-0.3-2.117-0.666-2.65-1.1
		l-0.9-1.1c0,1.6,0.7,2.883,2.1,3.85c1.367,0.866,3.267,1.384,5.7,1.55c-0.833,0.634-2.684,2.2-5.55,4.7c-2.267,2-3.5,3-3.7,3
		c-1.267,0-2.733-2.7-4.4-8.1c-1.067-3.967-1.85-6.867-2.35-8.7c0.267-0.267,0.4-0.55,0.4-0.851c-0.033-0.267-0.333-0.55-0.9-0.85
		c-0.033-0.134-0.067-0.25-0.1-0.35l0.05-1.15l-1.1,0.15l-0.45-0.25c-0.367-0.2-0.767-0.301-1.2-0.301
		c-0.466,0-0.783,0.067-0.95,0.2c-0.1,0.066-0.35,0.367-0.75,0.9c-0.267,0.2-0.717,0.684-1.35,1.45
		c-0.667,0.833-1.067,1.433-1.2,1.8L72.35,183.45z M10.85,175.1L8,174.25c2.367-2.434,4.917-5.05,7.65-7.85
		c0.533-0.567,1.067-1.117,1.6-1.65c-2.367,2.833-3.55,5.667-3.55,8.5l0.05,3.35l-0.8-0.55L10.85,175.1z M74.9,128.65
		c-0.433-0.434-0.9-0.9-1.4-1.4l-0.35-0.4c0.733,0.434,1.9,1.217,3.5,2.351c-0.1-0.066-0.233-0.117-0.4-0.15
		C75.783,128.917,75.333,128.783,74.9,128.65z M99.25,140.65l-0.3,1.449l-1.05,4.65c0,0.366,0.1,0.95,0.3,1.75
		c0.4,3.6,0.933,5.583,1.6,5.95c0.133,0.066,3.95,0.017,11.45-0.15c-1.933,0.634-3.9,2.017-5.9,4.15
		c-2.633,2.733-4.033,4.166-4.2,4.3c-0.066,0.033-0.367,0.2-0.9,0.5c-0.6,0.333-1.217,0.717-1.85,1.15
		c-1.8-2.2-2.7-7.567-2.7-16.101c0-0.8,0.433-2.416,1.3-4.85C97.967,140.75,98.717,139.816,99.25,140.65z M86.5,171.95
		c0.533,1.267,1.25,2.066,2.15,2.399c-1.2-1.767-2-3.767-2.4-6c-0.2-1.166-0.317-3.017-0.35-5.55l-0.1,5.5
		C85.8,169.6,86.033,170.816,86.5,171.95z M134.3,75.95V75.3c-2.667,3.267-4,6.1-4,8.5c0,1.667,0.184,4.434,0.55,8.3
		c0,0.167,0.017,0.35,0.05,0.55c-0.1,0.4-0.2,0.767-0.3,1.1v-1.6c-0.833,2.467-1.25,3.883-1.25,4.25l-1.8,2.4
		c1.767-3.9,2.65-6.816,2.65-8.75c-0.367-2.3-0.55-4.6-0.55-6.9c0-1.9,0.783-3.8,2.35-5.7c1.567-1.934,2.35-3.067,2.35-3.4L134,64.7
		l-1.25,1.25c0.067-0.8,0.367-2.434,0.9-4.9c0.467-2.167,0.7-4.7,0.7-7.6c0-1.1-0.7-2.684-2.1-4.75c-1.4-2.1-2.1-3.9-2.1-5.4
		c0-0.633,0.567-1.517,1.7-2.65c1.667-1.667,3.1-3.55,4.3-5.65c2.367-4.1,3.367-8.917,3-14.45c-0.367-5.767-0.101-9.966,0.8-12.6
		c0.033-0.133,0.083-0.267,0.149-0.4V7.6v0.05c0,2.867,0.367,5.65,1.101,8.35s1.1,5.333,1.1,7.9c0,1.833-0.1,3.533-0.3,5.1
		c-0.566,3.933-1.816,7.133-3.75,9.6c-0.167,0.2-0.333,0.433-0.5,0.7c-0.633,0.733-1.4,1.633-2.3,2.7
		c-0.833,1.233-1.25,2.583-1.25,4.05c0,1.267,0.5,1.9,1.5,1.9c1.5-0.5,3-1.25,4.5-2.25c2.967-2.034,4.6-4.383,4.899-7.05
		c-0.033,4.567-0.899,8.583-2.6,12.05c-1,2.1-2.917,5.6-5.75,10.5c-0.567,1.367-0.883,2.867-0.95,4.5l-1.4,10.1L134.3,75.95z
		 M194.1,121.75c-0.166,0.434-0.483,1.35-0.949,2.75c-0.5,1.467-0.767,2.283-0.801,2.45c0.434-4,0.867-6.45,1.301-7.351l0.449,0.5
		V121.75z M186.65,98.5c0.366,0.2,1.083,0.383,2.149,0.55c0.967,0.133,1.733,0.2,2.3,0.2c0.634,0,0.95-1.1,0.95-3.3
		c0-1.434-0.6-3.833-1.8-7.2c-1.366-3.833-2.616-5.75-3.75-5.75c-0.066,0-0.316,0.183-0.75,0.55s-0.717,0.65-0.85,0.85
		c-0.167-0.867-1.217-2.283-3.15-4.25c-1.033-1.033-2.35-2.35-3.95-3.95c0.334,4.833,0.5,8.017,0.5,9.55
		c0,1.1-0.149,1.817-0.45,2.15c-0.267,0.333-0.866,0.5-1.8,0.5c-2.967,0-6.066-1.9-9.3-5.7c-4.167-4.9-6.25-11.367-6.25-19.4
		c0-1.667,0.5-2.85,1.5-3.55c0.2-0.133,1.316-0.6,3.35-1.4c3.233-1.233,4.851-4.4,4.851-9.5c0-4.467-1.55-9.383-4.65-14.75
		c-3.3-5.7-6.75-8.817-10.35-9.35c0.3,0.8,0.666,1.617,1.1,2.45c-0.5-0.633-1.033-1.483-1.6-2.55c-0.566-1.1-0.851-1.85-0.851-2.25
		c0-0.933,0.334-2.35,1-4.25c0.834-2.4,1.801-3.816,2.9-4.25c1.066,0.6,2.566,1.6,4.5,3c1,0.733,1.9,1.1,2.7,1.1
		c2.166,0,3.666-0.767,4.5-2.3c0.566-1.9,1.066-3.2,1.5-3.9c1.233,3.534,1.934,5.55,2.1,6.05c0.533,1.7,0.8,3.017,0.8,3.95
		c0,1.067-0.267,2.467-0.8,4.2c-0.566,1.733-0.85,2.883-0.85,3.45c0,0.8,2.033,3.167,6.1,7.1c4.3,4.167,6.816,7.883,7.55,11.15
		c0.834,3.733,3.301,6.633,7.4,8.7c1.9,0.967,3.2,1.817,3.9,2.55c0.533,0.566,0.933,1.25,1.199,2.05
		c0.067,0.267,0.15,0.533,0.25,0.8c0.134,0.667,0.2,1.4,0.2,2.2c0,1.3-0.217,2.2-0.649,2.7c-0.934,1.1-1.45,1.75-1.551,1.95
		l-0.85,0.55c-0.733,0.4-1.417,0.75-2.05,1.05c-1.7-1.9-3.617-3.55-5.75-4.95c-0.167-0.133-0.25-1.533-0.25-4.2
		c0-0.7-0.5-1.917-1.5-3.65c-0.8-1.4-1.7-2.767-2.7-4.1L183.05,53c0,1.367,0.45,4.417,1.351,9.15c0,1.267-1.017,2.917-3.051,4.95
		c-1.933,1.933-3.35,2.9-4.25,2.9c-0.267,0-0.55-0.017-0.85-0.05c0.066,0.033,0.15,0.05,0.25,0.05c1.5,0.233,3.6,0.35,6.3,0.35
		c1.767,0,2.851,0.7,3.25,2.1c0.367,1.4,1.601,2.083,3.7,2.05c6.566-0.133,10.517,0.017,11.85,0.45
		c2.233,0.733,3.351,2.883,3.351,6.45c0,0.934-0.8,1.867-2.4,2.8c-1.6,0.933-2.399,1.65-2.399,2.15c0,1.1,0.633,2.383,1.899,3.85
		c1.267,1.466,1.9,2.883,1.9,4.25c0,0.433-0.2,1.216-0.601,2.35c-0.333,0.934-0.6,1.617-0.8,2.05L201.9,99.5
		c-0.2-1.5-0.567-2.9-1.101-4.2l-0.75-1.1c0,3.466-2.083,6.3-6.25,8.5c-0.366,0-1.434-0.5-3.2-1.5
		C188.733,100.167,187.417,99.267,186.65,98.5z M194.35,48.5c0-0.4,0.067-0.683,0.2-0.85l0.15-0.1c1.5,1.667,2.366,2.8,2.6,3.4
		c0.167,0.4,0.233,0.983,0.2,1.75l-0.9-0.3c-0.466-0.667-0.966-1.483-1.5-2.45C194.6,49.083,194.35,48.6,194.35,48.5z M180.35,54.55
		c0.801-0.267,1.25-0.483,1.351-0.65c0.267-0.3,0.25-0.85-0.05-1.65c-4.534-0.633-7.417-0.117-8.65,1.55
		c-0.866,1.167-1.3,3.967-1.3,8.4c0,1.566,0.1,2.733,0.3,3.5c0.267,1.2,0.816,1.867,1.65,2c0.267-0.3,0.449-1.284,0.55-2.95
		c0.066-1.933,0.533-3.767,1.399-5.5C176.8,56.85,178.384,55.283,180.35,54.55z M173.05,127.3c-1.566,3.233-3.267,6.117-5.1,8.65
		c-2,2.8-4.316,3.833-6.95,3.1c3.467-0.934,5.884-2.616,7.25-5.05c1.333-2.434,1.733-5.767,1.2-10c0.333,0.833,0.533,1.184,0.6,1.05
		L173.05,127.3z M213.65,79.4c-0.801-1.733-1.584-2.883-2.351-3.45c-0.1-0.2-0.184-0.383-0.25-0.55
		c-0.866-2.033-1.366-3.95-1.5-5.75c1.733-0.566,3.233,0.083,4.5,1.95s1.617,3.95,1.05,6.25v2.6
		C214.566,80.183,214.083,79.833,213.65,79.4z M219.5,97.1c0.767,0.333,1.316,0.733,1.65,1.2c0.433,0.633,0.649,1.534,0.649,2.7
		c0,0.6-0.149,1.1-0.45,1.5c-0.166,0.2-0.449,0.467-0.85,0.8c-0.733-0.066-1.116-1.716-1.15-4.95l0.101-1.25H219.5z M215.35,148.55
		c0-5.1-1.767-9.45-5.3-13.05c-3.566-3.6-7.85-5.4-12.85-5.4c2.1-2.899,3.35-4.75,3.75-5.55c0.467-0.899,0.7-2.55,0.7-4.95
		c0-2.399-1.867-5.05-5.601-7.949c-3.767-2.934-5.649-4.833-5.649-5.7c0-1.133,0.949-1.7,2.85-1.7l5.65,1.2
		c1.066,0,2.683-0.267,4.85-0.8c1.967-0.533,2.967-0.8,3-0.8c2.833,0,5.45,0.65,7.85,1.95c2.567,1.367,4.134,3.066,4.7,5.101
		l-0.35,0.149c-0.267,0.2-0.4,0.5-0.4,0.9c0,0.033,0.384,0.383,1.15,1.05c0.366,1.066,1.434,1.767,3.2,2.1
		c1.833,0.367,5.35,0.551,10.55,0.551c0.333,0,1.633-0.15,3.899-0.45s3.567-0.45,3.9-0.45c0.566,0,1.233,1.417,2,4.25
		c0.667,2.5,1,4.1,1,4.8c0,1.667-0.283,3.25-0.85,4.75c-0.567,1.467-0.851,3.316-0.851,5.55c0,1.9,1.283,3.983,3.851,6.25
		c2.699,2.067,4.166,3.334,4.399,3.801c0.134,0.699,0.4,1.433,0.8,2.199c0.167,0.667,0.317,2.45,0.45,5.351
		c0.066,2.1,0.101,3.717,0.101,4.85c0,0.767-0.15,1.3-0.45,1.601c-1.2-0.534-2.4-2.301-3.601-5.301
		c-1.433-3.533-3.183-6.233-5.25-8.1c1.667,0.767,3.45,2.366,5.351,4.8c1.566,2,2.55,3.566,2.95,4.7l0.5,0.85
		c0.133-0.566,0.199-1.183,0.199-1.85c0-3.634-1.066-6.6-3.199-8.9c-1.801-1.933-4.634-3.649-8.5-5.149
		c-0.034,1.533-0.2,2.866-0.5,4c-0.834-0.467-1.267-0.717-1.301-0.75c-0.333-0.2-0.5-0.384-0.5-0.55c0-0.334,0.084-0.867,0.25-1.601
		c0.2-0.866,0.317-1.566,0.351-2.1c0.166-0.634,0.333-1.65,0.5-3.05c0.133-1.367,0.2-2.534,0.2-3.5l-0.601,1.55v-0.75
		c-0.066,1.1-0.6,2.066-1.6,2.899c-1.066,0.867-2.2,1.301-3.4,1.301c-1.166,0-2.05-0.717-2.649-2.15c-0.4-0.9-1.25-2.866-2.551-5.9
		c2,3.367,3.217,5.351,3.65,5.95c0.767,1.101,1.5,1.733,2.2,1.9c0.1-0.101,0.149-0.717,0.149-1.851c0-3.8-3.466-8.55-10.399-14.25
		c-4.9-4.033-8.917-6.816-12.05-8.35l-0.601-0.05c0.233,0.267,2.117,1.916,5.65,4.95c3.566,3.066,5.833,5.166,6.8,6.3
		c-1.1-1-3.333-2.55-6.7-4.65c-3.033-1.866-5.816-4.133-8.35-6.8l-0.75-1c1.233,2.134,5.1,8.134,11.6,18
		c-0.934-0.6-2.616-1.566-5.05-2.9c-3.134-1.699-6.083-3.716-8.85-6.05c0.466,1.667,0.733,2.533,0.8,2.601
		c1.267,1.1,3.083,2.733,5.45,4.899c1.333,1.8,3.033,4.733,5.1,8.8c1.5,3,2.8,4.784,3.9,5.351l0.199-0.25l4.95,5.149
		c-0.5-4.533-1.1-8.05-1.8-10.55c4.866,7.467,7.3,11.816,7.3,13.05c0,1.733-0.85,2.601-2.55,2.601c-0.267,0-1.783-1.05-4.55-3.15
		c-2.767-2.1-4.467-3.149-5.101-3.149c-0.466,0-1.017,0.3-1.649,0.899C217.3,146.417,216.517,147.25,215.35,148.55z M248.5,135.1
		c0.134-1.633,0.55-3.133,1.25-4.5c0.634-1.199,1.2-1.8,1.7-1.8c0.8,0,1.5,0.917,2.1,2.75c0.667,2.033,1,4.617,1,7.75
		c0,0.834-0.166,1.4-0.5,1.7c-0.267,0.233-0.7,0.35-1.3,0.35c-0.566,0-1.184-0.083-1.85-0.25c-0.034-0.267-0.317-0.949-0.851-2.05
		c-0.533-1.066-0.883-1.684-1.05-1.85C248.733,136.733,248.566,136.033,248.5,135.1z M142.3,183.75c-0.533-0.4-1.1-0.733-1.7-1
		c-0.5-0.233-0.816-0.35-0.949-0.35c-0.834,0-1.851,1.833-3.05,5.5c-0.167,0.466-0.317,0.933-0.45,1.399
		c-0.533,1.101-0.816,2.217-0.85,3.351c-0.267,1.133-0.4,2.066-0.4,2.8c0,3.267,1.8,5.816,5.4,7.649
		c3.667,1.167,5.517,1.75,5.55,1.75c3.9,0,6.317-1.017,7.25-3.05c0.334-0.733,0.5-2.816,0.5-6.25c0-1.8-0.35-2.95-1.05-3.45
		c-0.6-0.399-2.366-1.183-5.3-2.35c-0.866-0.634-1.783-1.434-2.75-2.4c-0.467-0.5-0.85-1.033-1.15-1.6L142.3,183.75z M240.7,178.95
		l-0.5-1.45c0.399,0.9,0.899,1.8,1.5,2.7c1.2,1.767,2.566,2.983,4.1,3.649L247,184c-0.1-1.267-0.217-2.467-0.35-3.6
		c0.1,0.233,0.199,0.483,0.3,0.75c1.333,3.433,2.116,5.699,2.35,6.8c-3.8-1.834-6.184-3.533-7.149-5.101
		C241.583,181.95,241.1,180.65,240.7,178.95z M164.3,161.2c-0.434-0.566-0.833-1.134-1.2-1.7l-0.949,1.7
		c-0.167,0.2-0.517,0.7-1.051,1.5c-0.533,0.8-0.833,1.267-0.899,1.399c-0.733,1.601-1.184,2.75-1.351,3.45
		c-0.166,0.601-0.283,1.65-0.35,3.15c-0.066,2,0.116,5.316,0.55,9.95c0,0.033-0.416,1.1-1.25,3.199c-0.866,2.067-1.3,3.867-1.3,5.4
		c0,2.3,0.283,4.35,0.85,6.15c0.834,2.699,2.217,4.366,4.15,5c0.533,1.233,1.316,2.3,2.35,3.199c1.634,1.467,3.617,2.2,5.95,2.2
		c2.101,0,3.884-0.717,5.351-2.149c1.333-1.301,2-2.733,2-4.301c0-3.699-0.817-6.767-2.45-9.199c-1.667-2.434-2.5-4.584-2.5-6.45
		c0-0.5,0.316-2.017,0.95-4.55c-0.067-2.067-0.134-4.017-0.2-5.851c-0.033-2.7,0.05-4.399,0.25-5.1
		c-0.267-0.167-0.584-0.351-0.95-0.55c0-0.2,0-0.4,0-0.601c0-0.767-0.934-1.684-2.8-2.75C166.884,162.8,165.167,161.767,164.3,161.2
		z M173.6,168.4c-0.267,0.333-0.233,0.5,0.101,0.5c0.5,0,0.517-0.134,0.05-0.4C173.717,168.467,173.667,168.434,173.6,168.4z
		 M259.5,137.8c1.066,0.134,2.05,0.967,2.95,2.5c0.733,1.233,1.1,2.066,1.1,2.5s-0.1,0.7-0.3,0.8
		c-0.033,0.034-0.25,0.067-0.65,0.101c-1.133-0.367-1.966-1.351-2.5-2.95C259.967,140.35,259.767,139.366,259.5,137.8z
		 M258.85,154.35c0.9,0.801,1.7,2.117,2.4,3.95c0.833,2.167,1.25,4.483,1.25,6.95c0,1.634-0.184,2.983-0.55,4.05
		c-0.566,1.667-1.5,2.5-2.8,2.5c-0.7,0-1.317-0.267-1.851-0.8c-0.633-0.6-0.95-1.467-0.95-2.6c0-0.801,0.367-2.317,1.101-4.551
		c0.7-2.033,1.166-3.216,1.399-3.55V154.35z M114.2,149.8c-0.8,0.434-2.967,0.65-6.5,0.65
		C109.967,150.05,112.133,149.833,114.2,149.8z M28.9,156.1l-1.45,1c0.4-0.399,0.9-1.05,1.5-1.949
		C28.917,155.45,28.9,155.767,28.9,156.1z M132.45,159.2c-0.233,0.066-1.534,0.434-3.9,1.1c-2.9,0.7-5.95,1.184-9.15,1.45
		l-1.35,0.05c0.833-2.866,2.184-5.316,4.05-7.35c0.767-0.834,2.45-2.267,5.05-4.3c1.9-1.467,3.15-2.851,3.75-4.15
		c0.867-1.833,0.967-4.2,0.3-7.1c1.733,1.133,3.017,2.716,3.85,4.75c0.534,1.3,0.8,2.466,0.8,3.5c0,2.366-0.45,4.883-1.35,7.55
		C133.833,156.667,133.15,158.167,132.45,159.2z"/>
	<path style="fill-rule:evenodd;clip-rule:evenodd;fill:#4C4336;" d="M196.75,43.15l-3.95-2.55c-0.233,0.5-0.416,0.75-0.55,0.75
		c0.066,2.533,0.05,4.066-0.05,4.6l-0.25-0.3c-0.4-0.566-3.4-3.433-9-8.6c-5.167-4.767-7.75-7.517-7.75-8.25
		c0-0.8,0.166-1.767,0.5-2.9c0.333-1.133,0.649-1.85,0.95-2.15l0.449,1.4l0.301,0.9c1.166,3.434,2.75,6.05,4.75,7.85
		c1.966,1.267,3.1,2,3.399,2.2l2.4,1.55C193.448,40.849,196.382,42.683,196.75,43.15z M219.5,97.1h-0.05l-0.101,1.25
		c0,0.167-0.416,1.7-1.25,4.6c-0.133-0.2-0.283-0.45-0.449-0.75c-0.067-3.1-1.017-5.833-2.851-8.2c-1.833-2.333-2.75-3.567-2.75-3.7
		c0-0.333,0.2-0.716,0.601-1.15c0.399-0.433,0.6-1.15,0.6-2.15c0-6.233-1.267-10.317-3.8-12.25l1.1,0.8
		c0.233,0.067,0.483,0.2,0.75,0.4c0.767,0.566,1.55,1.716,2.351,3.45c0,0.067,0.017,0.133,0.05,0.2c1,2.267,1.383,3.85,1.149,4.75
		l0.851-0.3c1.033-0.767,1.95-1.767,2.75-3c0.6-0.966,0.899-1.55,0.899-1.75c0-5.9-3.033-12.2-9.1-18.9
		c-4.1-4.467-6.233-6.816-6.4-7.05c-2-2.5-3.066-4.717-3.199-6.65c7.166,5.9,12.699,12.433,16.6,19.6
		c2.233,4.133,4.517,10.067,6.85,17.8c2.134,7,4.167,11.967,6.101,14.9c3.166,4.7,7.934,8.316,14.3,10.85
		c-2,0.134-5.483-1.399-10.45-4.6c-4.399-2.867-7.05-4.917-7.95-6.15c-1.199-1.667-2.25-5.033-3.149-10.1
		c-0.7-3.933-1.867-5.9-3.5-5.9c-0.667,0-1.05,0.066-1.15,0.2l-0.149,0.5c-0.101,0.434-0.15,0.85-0.15,1.25
		C218,85.683,218.5,89.7,219.5,97.1z M253.95,187.9c-0.066-5.067-0.101-7.934-0.101-8.601c0-3.267-1-7.566-3-12.899
		c-1.699-4.467-2.916-7.084-3.649-7.851l1.149,0.45c0,0.134,0.45,0.25,1.351,0.35c0.833,0.134,1.533,0.2,2.1,0.2
		c1.8,0,2.7-1.316,2.7-3.95c0-1.166-0.167-2.05-0.5-2.649c-0.667-1.101-1.384-3.2-2.15-6.3l-0.25-0.301
		c-0.399-0.767-0.666-1.5-0.8-2.199c0.033-0.2,0.217,0.149,0.55,1.05c0.167,0.467,0.334,0.95,0.5,1.45
		c2.867,3.666,4.617,6.383,5.25,8.149c0.434,1.167,0.65,3.167,0.65,6c0,1.8-0.316,3.101-0.95,3.9c-0.666,0.8-1,1.783-1,2.95
		c0,2.466,0.101,4.8,0.3,7c3.334,0.633,6.15-0.017,8.45-1.95c2.667-2.233,4-5.8,4-10.7c0-2.6-0.883-5.134-2.649-7.6
		c-3.101-4.367-4.934-7.117-5.5-8.25c0.033-0.367,0.199-0.551,0.5-0.551l0.399,0.101c0.233,0.133,1.167,0.883,2.8,2.25
		c1.067,0.866,2.017,1.3,2.851,1.3c0.399,0,0.7-0.083,0.899-0.25c0.101-0.167,0.167-0.25,0.2-0.25c0.066-0.5,0.101-1.017,0.101-1.55
		c0-2.334-0.634-4.617-1.9-6.851c-0.8-1.333-2.25-3.517-4.35-6.55c-0.134,0.066-0.733,0.55-1.801,1.45
		c-1.133,0.866-1.933,1.3-2.399,1.3l-0.101-0.399c0.5-2.267,0.733-4.017,0.7-5.25c-0.033-2.101-1.316-5.351-3.85-9.75l1.5,2.449
		c2.333,3.567,5.75,8.117,10.25,13.65c4.5,5.5,8.2,10.467,11.1,14.9c0.233,0.433,0.217,1.25-0.05,2.449
		c-1.366,1.934-2.25,3.567-2.65,4.9c-0.233,0.733-0.35,1.6-0.35,2.6c0,0.2,0.5,1.317,1.5,3.351c1,2,1.5,4.5,1.5,7.5
		c0,3.233-2.95,5.833-8.85,7.8c-1.567,0.5-3.934,1.217-7.101,2.15c-2.6,0.866-4.416,1.75-5.45,2.649L253.95,187.9z M136.75,206.75
		l-0.6,0.1l-8,1.25c0.867-1.1,1.3-2.183,1.3-3.25c0-2.833-0.167-5.55-0.5-8.149c-0.367-2.101-0.55-3.384-0.55-3.851
		c0.967-3.066,1.45-5.083,1.45-6.05c0-1.866-0.6-4.05-1.8-6.55c-1.233-2.566-1.9-5.066-2-7.5l0.45,0.95
		c0.867,1.233,2.417,3.033,4.65,5.399c1.067,1.101,1.6,2.384,1.6,3.851c0,0.733-0.25,2.434-0.75,5.1c-0.533,2.7-0.8,4.75-0.8,6.15
		c0,3.133,0.767,5.566,2.3,7.3C135.367,203.6,136.45,205.35,136.75,206.75z M68.25,184.55l-1.55-0.85h0.05l0.5-0.5l1.1-1.05
		L68.25,184.55z M64.55,176.85c-1.233,0-2.25-0.149-3.05-0.449c4,1.366,8.4-1.301,13.2-8c4.4-6.101,6.6-11.15,6.6-15.15l0.55,0.7
		c0.2,0.467,0.4,1.2,0.6,2.2c0.2,1.033,0.3,1.783,0.3,2.25c0,3.133-1.167,6.35-3.5,9.649c-1.6,2.233-5.233,6.934-10.9,14.101
		c0.767-3.301,0.367-5.084-1.2-5.351C66.95,176.8,66.083,176.816,64.55,176.85z M193.7,70.25c0.633-0.3,1.316-0.65,2.05-1.05
		l0.85-0.55c1.167-0.767,1.95-1.467,2.351-2.1c0.267-0.5,0.399-1.117,0.399-1.85c0-0.7-0.116-1.284-0.35-1.75
		c-0.134-0.267-0.267-0.65-0.4-1.15c-0.1-0.267-0.183-0.533-0.25-0.8c-0.466-1.733-1.05-4.4-1.75-8
		c2.834,2.667,5.017,5.117,6.551,7.35c1.3,1.9,1.949,3.333,1.949,4.3c0,1.867-0.966,3.6-2.899,5.2c-1.867,1.533-3.767,2.3-5.7,2.3
		c-1.3,0-2.533-0.167-3.7-0.5c-0.166-0.066-0.75-0.3-1.75-0.7l1.3-0.15L193.7,70.25z M191.95,129c0.133-0.267,0.517-1.45,1.149-3.55
		c0.634-2.167,0.967-3.4,1-3.7v-1.65c-0.633-3.199-1.383-5.55-2.25-7.05c-0.699-1.2-1.083-2.383-1.149-3.55l0.399,0.25
		c2.667,1.667,4.2,2.783,4.601,3.35c1.333,1.867,2,5.2,2,10c0,1.9-0.917,3.733-2.75,5.5c-0.066,0.101-2.101,1.733-6.101,4.9
		l0.601-0.75C190.384,131.45,191.217,130.2,191.95,129z M219.7,113c-0.767-0.667-1.15-1.017-1.15-1.05c0-0.4,0.134-0.7,0.4-0.9
		l0.35-0.149c1.4-0.467,2.283-0.851,2.65-1.15c0.833-0.667,1.25-1.7,1.25-3.1l-0.101-3.4c1.4-0.6,2.434-0.9,3.101-0.9
		c0.1,0,2.116,3.183,6.05,9.55c0,0.566-0.55,1.017-1.65,1.35c-1.199,0.366-2.883,0.55-5.05,0.55c-0.733,0-1.616-0.05-2.649-0.149
		C221.5,113.483,220.434,113.267,219.7,113z M248.5,135.1c0.066,0.934,0.233,1.634,0.5,2.101l1.45,4.1l-1.3-0.55
		c-0.9-0.434-1.934-1.45-3.101-3.05c-1.066-1.4-1.6-2.316-1.6-2.75c0.934-3.566,1.399-5.733,1.399-6.5c0-3-0.566-5.75-1.699-8.25
		c-1.667-3.7-2.584-5.834-2.75-6.4l0.55,0.9c2.767,3.133,4.616,5.333,5.55,6.6c1.533,2.066,2.3,3.967,2.3,5.7
		c0,0.5-0.233,1.467-0.7,2.9c-0.466,1.433-0.699,2.649-0.699,3.649C248.4,134.217,248.434,134.733,248.5,135.1z M212.25,152.1
		c0-0.733,0.217-1.35,0.65-1.85c0.433-0.5,0.966-0.75,1.6-0.75c2.4-2.033,4.033-3.05,4.9-3.05l0.149,2.3c0,0.134-0.783,0.9-2.35,2.3
		c-1.634,1.467-2.667,2.2-3.101,2.2C213.634,153.25,213.017,152.866,212.25,152.1z M238.45,138.2c-0.5,1.733-1.217,2.983-2.15,3.75
		c-0.5,0.399-0.95,0.6-1.35,0.6c-0.566,0-1.066-0.3-1.5-0.899c-0.467-0.767-0.717-1.834-0.75-3.2
		c0.934,0.033,1.916-0.334,2.95-1.101c1.267-0.966,2.233-2.35,2.899-4.149l0.601-1.55c0,0.966-0.067,2.133-0.2,3.5
		C238.783,136.55,238.616,137.566,238.45,138.2z M227.35,130.65c4.101,5.899,5.367,11.1,3.801,15.6
		c-2.034-4.833-4.467-9.833-7.301-15c-2.566-4.634-4.066-7.566-4.5-8.8C221.384,123.184,224.05,125.917,227.35,130.65z M210,197.4
		l-3.45-0.101c3.4-0.633,5.3-1.066,5.7-1.3c0.6,0,1.116-0.333,1.55-1c0.4-0.7,0.601-1.533,0.601-2.5
		c0.433-2.934,1.733-5.934,3.899-9c2.3-3.2,3.8-6.616,4.5-10.25c0,6.667-1.25,12.366-3.75,17.1
		C216.55,195.05,213.533,197.4,210,197.4z M107.7,150.45c3.533,0,5.7-0.217,6.5-0.65c2.533,0,4.7-1.366,6.5-4.1
		c1.8-2.733,2.7-6.033,2.7-9.9l0.1-3.85l0.05,1c0.034,0.166,0.483,2.083,1.35,5.75c0.633,2.7,0.95,4.717,0.95,6.05
		c0,1.7-1.8,3.583-5.4,5.65c-3.034,1.733-4.934,2.6-5.7,2.6c-1.067,0-2.367-0.184-3.9-0.55c-1.9-0.467-4-0.8-6.3-1l-2.4-0.101
		C102.917,151.316,104.767,151.017,107.7,150.45z M130.6,93.75c0.267,1.833,0.167,3.817-0.3,5.95c-0.5,2.1-1.167,3.483-2,4.15
		c-0.466,0.133-1.1,0.2-1.9,0.2c-0.867-0.033-1.566-0.117-2.1-0.25c-0.333-0.1-0.683-0.25-1.05-0.45c0.833-0.3,1.933-1.167,3.3-2.6
		c1.534-1.6,2.467-3.05,2.8-4.35c0-0.367,0.417-1.783,1.25-4.25V93.75z M154.35,98.1l-0.149,0.95c-0.134,0.7-0.2,1.25-0.2,1.65
		c0,0.433,0.083,0.867,0.25,1.3c0.066,0.167,0.316,0.683,0.75,1.55c0,3.133-0.15,4.917-0.45,5.351c-0.434,0-1.217-0.117-2.35-0.351
		l-0.25-0.75c0.233-0.666,0.467-1.7,0.7-3.1c0.333-1.833,0.5-3.467,0.5-4.9c0-1.7-1.25-5.9-3.75-12.6
		c0.533,1.066,1.483,3.083,2.85,6.05C153.616,96.25,154.316,97.867,154.35,98.1z M96.3,204.55L95.55,204
		c0.434-0.066,1.284-0.25,2.55-0.55l2-0.601c2.467-0.8,4.5-1.733,6.1-2.8c1.533-1.033,2.783-2.283,3.75-3.75l0.35-0.85
		c0.3-1.2,0.333-3.667,0.1-7.4v-0.3l0.05-0.1l0.9-2.7v1.35c0,0.033,0.167,1.017,0.5,2.95c0.233,1.434,0.367,2.55,0.4,3.35
		c0,3.301-1.55,6.117-4.65,8.45C104.467,203.384,100.7,204.55,96.3,204.55z M129.4,127.6c-0.033-0.466-0.05-0.949-0.05-1.449
		c0-0.101,0.133-0.483,0.4-1.15c0.233-0.667,0.583-1.583,1.05-2.75c0.934-2.4,1.4-4.45,1.4-6.15c0-0.399,0.25-0.916,0.75-1.55
		l0.75-0.8l0.05,0.6c0.333,2.7,0.267,5.217-0.2,7.551c-0.533,2.833-0.8,4.533-0.8,5.1c0,0.333,0.017,1.517,0.05,3.55
		c0.034,2.033,0,3.417-0.1,4.15l-0.7-0.65C130.5,132.384,129.633,130.233,129.4,127.6z M119.4,161.75c3.2-0.267,6.25-0.75,9.15-1.45
		c2.367-0.666,3.667-1.033,3.9-1.1c1.033-0.7,1.9-2.184,2.6-4.45c1.1-3.5,1.684-5.333,1.75-5.5c-0.033-0.267,0.267-0.45,0.9-0.55
		l0.899-0.101c0.5,1.233,1.017,2.384,1.551,3.45c0.3,0.834,0.449,2.184,0.449,4.05c0,1.7-1.283,3.801-3.85,6.301
		c-2.567,2.5-4.733,3.75-6.5,3.75c-0.433,0-2.3-0.467-5.6-1.4c-3.9-1.066-6.417-2.017-7.55-2.85L119.4,161.75z"/>
	<path style="fill-rule:evenodd;clip-rule:evenodd;fill:#928164;" d="M61.3,80.15c-0.167,0.467-0.333,0.967-0.5,1.5
		c-1.033,3.467-1.833,5.8-2.4,7c-1.4,2.8-3.45,5.15-6.15,7.05l-0.75-0.45C54.933,89.05,58.2,84.017,61.3,80.15z M74.45,70.55
		c0.066,0.333,0.017,1.317-0.15,2.95c-0.167,1.6-0.333,2.583-0.5,2.95c-0.367-0.267-0.783-0.733-1.25-1.4
		c-0.466-0.566-1.15-0.85-2.05-0.85c-1.567,0-2.933,0.183-4.1,0.55c2.7-2.367,5.267-3.733,7.7-4.1L74.45,70.55z M113.25,39.35
		c0-1.033-0.133-2.517-0.4-4.45c2.433-2.767,4.017-4.433,4.75-5c1.333-0.867,2.95-2,4.85-3.4c0.2-0.033,1-0.517,2.4-1.45
		c1.233-0.8,2.066-1.35,2.5-1.65c1.233-0.066,2.167-0.066,2.8,0c1.133,0.1,1.7,0.733,1.7,1.9c0,0.534-0.817,1.217-2.45,2.05
		c-2.8,1.433-5.3,2.967-7.5,4.6c-0.4,0.3-0.75,0.983-1.05,2.05l-0.9,3c-0.967,2.6-2.8,3.9-5.5,3.9c-0.4,0-0.7-0.233-0.9-0.7
		C113.383,39.733,113.283,39.45,113.25,39.35z M160.2,2.15l3.45,1.6c-0.434,0.667-1.117,1.45-2.051,2.35c-1.1,1.066-2,1.7-2.699,1.9
		l-0.5-0.05c0.133-0.567,0.333-1.184,0.6-1.85C159.467,5.233,159.866,3.917,160.2,2.15z M153.05,0c-0.733,1.467-1.1,2.233-1.1,2.3
		c0,0.767,0.35,1.3,1.05,1.6c1.066,0.434,1.717,0.75,1.95,0.95c-0.334,0.167-1.867,1.1-4.601,2.8
		c-1.233,0.767-2.883,1.15-4.949,1.15c-1.4,0-2.334-0.583-2.801-1.75c-0.3-1.5-0.566-2.583-0.8-3.25
		c1.434-1.767,2.733-2.833,3.9-3.2C146.767,0.267,149.217,0.067,153.05,0z M157.05,106l-2.05-2.45
		c-0.434-0.867-0.684-1.383-0.75-1.55c-0.167-0.433-0.25-0.867-0.25-1.3c0-0.4,0.066-0.95,0.2-1.65l0.149-0.95
		c1-2.4,1.884-4.05,2.65-4.95c1.934-0.433,3.45-0.4,4.55,0.1l0.15,0.3c-0.167,1.8-0.65,3.233-1.45,4.3
		c-0.7,0.967-1.05,2.283-1.05,3.95c0,1.867,0.283,3.6,0.85,5.2c0.134,0.434,0.55,1.384,1.25,2.85l-0.45-0.35l-0.899-0.7L157.05,106z
		 M113.1,77.1c0.433-1.1,1.9-2.934,4.4-5.5c2.433-2.567,4.233-4.167,5.4-4.8c1-0.8,1.883-1.5,2.65-2.1
		c1.534-1.133,2.6-1.75,3.2-1.85l0.85,1.4c-0.533,2.367-1.483,4.05-2.85,5.05c-0.267,0.2-1.817,0.934-4.65,2.2
		c-2.833,1.267-4.967,3.317-6.4,6.15c-1.534,2.967-2.417,4.517-2.65,4.65l-0.2-2.95L113.1,77.1z M92.75,111.05
		c0.267-1.233,0.883-2.633,1.85-4.2c1.633-2.567,3.633-4.2,6-4.9c4.1,0.3,8.85,0.433,14.25,0.4v1.85h-0.45
		c-3.7,1-7.483,1.95-11.35,2.85C100.283,107.816,96.85,109.15,92.75,111.05z M119.4,116.6l-0.2,1.601l-0.8,1.3
		c-2.667,2.434-5.467,4.667-8.4,6.7c-2.9,1.967-5.367,3.35-7.4,4.149l-0.05-1.149c0.6-2.267,3.25-5.033,7.95-8.3
		C114.967,117.767,117.933,116.333,119.4,116.6z M101.45,64.5c0.4-0.233,0.767-0.35,1.1-0.35l2.95,0.05
		c2.5-0.434,4.25-0.517,5.25-0.25c0.533,0.133,0.8,0.333,0.8,0.6c0,0.434-0.033,0.684-0.1,0.75c-0.034,0.067-0.117,0.15-0.25,0.25
		c-2.7,2.367-8.667,5.1-17.9,8.2c0.467-1.933,1.833-3.917,4.1-5.95C99.767,66,101.117,64.9,101.45,64.5z M48.75,149.05
		c-1.667,2.467-5.267,4.517-10.8,6.15c-6.9,2.033-10.633,3.217-11.2,3.55H26.3l-0.1-0.25l0.05-0.1l1.2-1.301l1.45-1l1.15-0.8
		l7.55-6.2c1.633-1.6,3.233-2.699,4.8-3.3c1.5-0.233,3.083-0.35,4.75-0.35l0.25,0.2c0.7,1.233,1.133,2.083,1.3,2.55
		C48.833,148.5,48.85,148.783,48.75,149.05z M79.6,173.95c0.5-0.167,0.95-0.283,1.35-0.351c1.333,0.367,2.35,0.733,3.05,1.101
		c0.033,0,0.067,0.017,0.1,0.05c0.566,0.3,0.867,0.583,0.9,0.85c0,0.301-0.133,0.584-0.4,0.851c-0.2,0.166-0.483,0.333-0.85,0.5
		c-0.133,0.033-0.25,0.083-0.35,0.149c-1.133,0.4-2.517,0.617-4.15,0.65c-1.3,0.033-2.017,0.05-2.15,0.05v-0.05l-0.05-0.55
		c0.133-0.367,0.534-0.967,1.2-1.8C78.883,174.634,79.333,174.15,79.6,173.95z M107.15,185.9c-0.1,1.333-0.783,2.333-2.05,3
		c-0.934,0.466-2.05,0.699-3.35,0.699c-0.467,0-0.917-0.116-1.35-0.35c-0.367-0.2-0.566-0.384-0.6-0.55
		c0.133-0.267,0.483-0.75,1.05-1.45c0.5-0.667,0.783-1.017,0.85-1.05c0.1-0.101,0.566-0.316,1.4-0.65
		c0.8-0.333,1.316-0.533,1.55-0.6l2.5,0.35V185.9z M144.2,170.95c0-0.867,0.6-2.967,1.8-6.3c0.967-2.7,1.583-4.317,1.85-4.851
		c0.034-0.033,0.267-0.6,0.7-1.7c0.367-1,0.733-1.649,1.101-1.949c0.767-0.467,1.466-1.167,2.1-2.101
		c0.634-0.967,1.616-1.85,2.95-2.649l0.95-0.4l3.699-1.55l-1,0.5c-2.333,0.767-5.166,4.383-8.5,10.85
		c-1.666,3.3-3.35,6.75-5.05,10.351l-0.6-0.101V170.95z"/>
</g>
</svg>
