<?xml version="1.0" encoding="iso-8859-1"?>
<!-- Generator: Adobe Illustrator 15.1.0, SVG Export Plug-In . SVG Version: 6.00 Build 0)  -->
<!DOCTYPE svg PUBLIC "-//W3C//DTD SVG 1.1//EN" "http://www.w3.org/Graphics/SVG/1.1/DTD/svg11.dtd">
<svg version="1.1" id="Layer_1" xmlns="http://www.w3.org/2000/svg" xmlns:xlink="http://www.w3.org/1999/xlink" x="0px" y="0px"
	 width="103.6px" height="28.5px" viewBox="0 0 103.6 28.5" style="enable-background:new 0 0 103.6 28.5;" xml:space="preserve">
<symbol  id="FlashAICB_x2F_Layer_9_x2F__x3C_Path_x3E_" viewBox="0 -19.502 79.3 19.511">
	<g id="Layer_1_4_">
		<path style="fill-rule:evenodd;clip-rule:evenodd;fill:#FFC996;" d="M75.2-5.75l0.5-0.35c0.066-0.033,0.25-0.066,0.55-0.1
			c0.233-0.066,0.233-0.117,0-0.15c-0.333-0.066-0.067-0.2,0.8-0.4c1.167-0.3,1.917-0.583,2.25-0.85
			c-0.133-0.367-0.367-0.617-0.7-0.75c-0.5-0.2-0.817-0.35-0.95-0.45c-0.667-0.534-1.133-1.017-1.4-1.45
			c-0.1-0.2-0.367-0.467-0.8-0.8c-0.467-0.4-0.767-0.65-0.9-0.75c-0.7-0.7-1.3-1.233-1.8-1.6c-1-0.633-1.7-1.1-2.1-1.4
			c-0.233-0.2-0.583-0.383-1.05-0.55c-0.4-0.133-0.717-0.35-0.95-0.65c-0.333-0.367-0.717-0.6-1.15-0.7
			c-0.567-0.066-1.067-0.167-1.5-0.3c-0.9-0.267-1.7-0.45-2.4-0.55c-1.533-0.467-3.467-0.75-5.8-0.85
			c-2.667-0.033-4.667-0.067-6-0.1h-4.05l-0.3-0.1c-1.133-0.066-3.133-0.233-6-0.5c-2.534-0.233-4.534-0.367-6-0.4
			c-2.333-0.033-5.034,0.35-8.1,1.15c-3.533,1.067-6.167,1.867-7.9,2.4c-1.9,0.567-4.15,1.067-6.75,1.5
			c-3.034,0.434-5.333,0.767-6.9,1c-2,0.333-3.933,0.833-5.8,1.5c1.667,0.6,3.183,1.35,4.55,2.25C5.65-9.033,6.1-8.017,5.9-6.65
			c1.8,0.733,3.2,1.383,4.2,1.95c3.1,1.633,6.133,2.817,9.1,3.55c2.966,0.733,6.2,1.117,9.7,1.15
			c7.633,0.067,17.083-0.25,28.35-0.95c1.8-0.3,3.583-0.716,5.35-1.25c0.767-0.233,2.05-0.566,3.85-1l1.5-0.05
			c0.566,0.033,1.117-0.1,1.65-0.4c0.3-0.2,0.75-0.5,1.35-0.9l0.65-0.2c0.167-0.033,0.483-0.067,0.95-0.1
			c0.367,0,0.667-0.05,0.9-0.15C74.583-5.467,75.167-5.717,75.2-5.75z"/>
	</g>
</symbol>
<symbol  id="FlashAICB_x2F_Layer_9_x2F__x3C_Path_x3E__x5F_1" viewBox="0 -26.083 92.75 26.106">
	<g id="Layer_1_3_">
		<path style="fill-rule:evenodd;clip-rule:evenodd;fill:#17130D;" d="M91.5-11.1c0.433-0.1,0.85-0.316,1.25-0.65
			c-0.133-0.4-0.367-0.7-0.7-0.9c-0.433-0.2-0.767-0.383-1-0.55c-0.2-0.2-0.35-0.433-0.45-0.7c-0.167-0.367-0.283-0.6-0.35-0.7
			c-0.2-0.367-0.617-0.816-1.25-1.35c-0.267-0.267-0.75-0.55-1.45-0.85c-0.733-0.3-1.216-0.534-1.45-0.7
			c-0.167-0.133-0.417-0.433-0.75-0.9c-0.333-0.434-0.6-0.733-0.8-0.9c-0.233-0.2-0.65-0.383-1.25-0.55
			c-0.5-0.133-0.883-0.35-1.15-0.65c-0.4-0.533-0.683-0.883-0.85-1.05c-0.233-0.2-0.633-0.383-1.2-0.55
			c-0.867-0.267-1.7-0.45-2.5-0.55c-1.567-0.5-3.583-0.8-6.05-0.9c-2.8-0.034-4.9-0.083-6.3-0.15c-0.9-0.033-2.317-0.017-4.25,0.05
			l-1.65-0.65c-1.3-0.6-2.7-0.9-4.2-0.9c-1.633,0.1-3,0.15-4.1,0.15l-2.7-0.6v-0.05l-2.9-0.25c-2.934-0.267-5.184-0.133-6.75,0.4
			c-1.967,0.566-3.35,0.85-4.15,0.85c-1.2,0-2.066,0.05-2.6,0.15c-0.333,0.066-0.733,0.216-1.2,0.45
			c-0.467,0.267-0.833,0.467-1.1,0.6l-3.55,0.4c-2.1-0.066-3.517-0.033-4.25,0.1c-1.367,0.033-2.35,0.117-2.95,0.25
			c-0.167,0.067-0.5,0.217-1,0.45c-0.4,0.2-0.8,0.316-1.2,0.35c-0.667,0.034-1.1,0.083-1.3,0.15l-0.45,0.3L12-21
			c-1.367,0.233-2.3,0.4-2.8,0.5c-0.867,0.233-1.633,0.55-2.3,0.95c-0.533,0.133-0.933,0.25-1.2,0.35c-0.5,0.133-0.9,0.3-1.2,0.5
			c-0.133,0.1-0.35,0.317-0.65,0.65c-0.233,0.3-0.45,0.5-0.65,0.6c-0.133,0.067-0.383,0.117-0.75,0.15
			c-0.3,0.033-0.517,0.083-0.65,0.15c-0.3,0.333-0.483,0.517-0.55,0.55C1.083-16.5,0.667-16.3,0-16c0.233,0.1,0.467,0.267,0.7,0.5
			C1-15.233,1.217-15.067,1.35-15c0.033,0,0.483,0.183,1.35,0.55l0.45,0.2l1.1,0.7c2,1.333,3.533,2.283,4.6,2.85
			c0.333,0.2,0.833,0.4,1.5,0.6c0.733,0.233,1.233,0.417,1.5,0.55c0.533,0.3,1.15,0.733,1.85,1.3c0.233,0.167,0.55,0.483,0.95,0.95
			c0.367,0.466,0.7,0.783,1,0.95C15.95-6.183,16.433-6,17.1-5.8l1.3,0.7c0.2,0.533,0.733,1.017,1.6,1.45
			c1.533,0.8,3.317,1.183,5.35,1.15h0.9c2,0.367,4.383,0.65,7.15,0.85c1.567,0.133,3.85,0.267,6.85,0.4l2.7,0.2
			c0.566,0.167,1.333,0.433,2.3,0.8c0.8,0.233,1.6,0.317,2.4,0.25c0.033,0,0.517-0.117,1.45-0.35c0.467-0.1,1.417-0.15,2.85-0.15
			c1.2,0,1.95-0.067,2.25-0.2c0.1-0.033,0.3-0.2,0.6-0.5l0.75-0.2c0.2-0.033,0.55-0.05,1.05-0.05c0.767-0.033,1.85-0.466,3.25-1.3
			c1.367-0.767,2.467-1.15,3.3-1.15c0.267,0,0.7,0.017,1.3,0.05c0.533,0.033,0.966,0.017,1.3-0.05c0.4-0.067,0.933-0.3,1.6-0.7
			c2.967-0.333,6.033-0.95,9.2-1.85c0.5-0.167,1.85-0.533,4.05-1.1c0.533-0.034,1.066-0.034,1.6,0c0.6,0.033,1.167-0.117,1.7-0.45
			c0.3-0.2,0.767-0.517,1.4-0.95L86-9.2c0.067,0,0.383-0.017,0.95-0.05c0.4,0,0.716-0.067,0.95-0.2
			c0.434-0.167,0.934-0.517,1.5-1.05l0.75-0.35C90.517-10.95,90.967-11.033,91.5-11.1z"/>
	</g>
</symbol>
<symbol  id="FlashAICB_x2F_Layer_9_x2F__x3C_Path_x3E__x5F_2" viewBox="0 -28.5 103.6 28.506">
	<g id="Layer_1_2_">
		<path style="fill-rule:evenodd;clip-rule:evenodd;fill:#29180D;" d="M101.55-11.85c1.067-0.133,1.75-0.267,2.05-0.4
			c-0.333-0.233-0.967-0.517-1.9-0.85c-0.833-0.333-1.45-0.667-1.85-1c-0.833-0.767-1.383-1.45-1.65-2.05
			c-0.1-0.233-0.184-0.6-0.25-1.1c-0.2-0.3-0.434-0.5-0.7-0.6c-0.367-0.1-0.667-0.2-0.9-0.3c-0.067-0.033-0.317-0.184-0.75-0.45
			c-1.067-0.8-1.85-1.5-2.35-2.1c-0.667-0.733-1.25-1.25-1.75-1.55c-0.333-0.167-0.817-0.317-1.45-0.45
			c-0.767-0.133-1.25-0.233-1.45-0.3l-0.5-0.2l-0.4-0.3c-0.067-0.067-0.317-0.367-0.75-0.9c-0.267-0.3-0.6-0.517-1-0.65
			c-0.333-0.067-0.817-0.1-1.45-0.1c-0.7,0.033-1.2,0.05-1.5,0.05c-0.933,0.1-1.9,0.067-2.9-0.1c-0.667-0.066-1.533-0.066-2.6,0
			c-1.567,0.133-2.417,0.2-2.55,0.2c-0.3,0.033-0.667-0.017-1.1-0.15c-0.5-0.133-0.867-0.2-1.1-0.2s-0.967,0.117-2.2,0.35h-2.3
			c-0.233-0.067-0.4-0.167-0.5-0.3c-0.1-0.467-0.2-0.767-0.3-0.9c-0.434-0.7-1.567-1.083-3.4-1.15c-0.333,0-1.083,0.05-2.25,0.15
			c-0.867,0.1-1.6,0.1-2.2,0c-0.367-0.066-0.9-0.066-1.6,0c-0.7,0.034-1.217,0.034-1.55,0c-0.3-0.033-0.7-0.15-1.2-0.35
			C54.817-27.717,54.4-27.8,54-27.8c-1.3,0-2.167-0.05-2.6-0.15c-0.633-0.267-1.15-0.417-1.55-0.45c-1.4-0.2-2.5-0.1-3.3,0.3
			c-0.566,0.3-0.883,0.45-0.95,0.45c-0.033,0-0.317-0.05-0.85-0.15c-1.933-0.3-3.083-0.417-3.45-0.35
			c-0.833,0.233-1.533,0.35-2.1,0.35c-0.267-0.034-0.483-0.05-0.65-0.05c-0.267,0-0.466,0.05-0.6,0.15c-0.133,0.1-0.2,0.267-0.2,0.5
			c-0.033,0.267-0.083,0.434-0.15,0.5c-0.3,0.267-1.333,0.367-3.1,0.3c-1.633-0.033-2.533,0.15-2.7,0.55
			c-1.3-0.1-2.216-0.083-2.75,0.05c-0.267,0.066-0.533,0.183-0.8,0.35c-0.5,0.3-0.767,0.467-0.8,0.5
			c-0.434,0.233-1.117,0.4-2.05,0.5c-1.066,0.1-1.816,0.184-2.25,0.25c-0.267,0.034-1.467,0.067-3.6,0.1c-1.4,0-2.55,0.25-3.45,0.75
			c-0.2,0.1-0.833,0.317-1.9,0.65c-0.233,0.067-0.6,0.317-1.1,0.75c-1.067,0.167-1.867,0.35-2.4,0.55
			c-1.4,0.066-2.383,0.283-2.95,0.65c-0.233,0.167-0.417,0.367-0.55,0.6L6.55-19.8c-0.167,0.133-0.4,0.367-0.7,0.7
			c-0.3,0.3-0.55,0.5-0.75,0.6c-0.133,0.067-0.383,0.117-0.75,0.15s-0.617,0.1-0.75,0.2l-0.4,0.4c-0.867,0.033-1.417,0.067-1.65,0.1
			C0.917-17.517,0.4-17.267,0-16.9l1.4,0.3c0.367,0.267,0.7,0.45,1,0.55c0.167,0.066,0.417,0.133,0.75,0.2
			c0.167,0.1,0.4,0.2,0.7,0.3c0.367,0.1,0.6,0.167,0.7,0.2l0.35,0.2c0.1,0.133,0.233,0.5,0.4,1.1c0.133,0.5,0.317,0.867,0.55,1.1
			c0.566,0.467,1.367,0.817,2.4,1.05c0.633,0.133,1.567,0.283,2.8,0.45l0.1,0.05l1.5,0.6c0.1,0.2,0.283,0.383,0.55,0.55
			c0.3,0.267,0.5,0.45,0.6,0.55c0.3,0.3,0.434,0.534,0.4,0.7c-0.067,0.267-0.067,0.483,0,0.65c0.167,0.5,0.733,0.85,1.7,1.05
			c0.533,0.133,1.367,0.267,2.5,0.4l0.45,0.25c0.066,0.2,0.283,0.483,0.65,0.85c0.433,0.466,1.233,1.066,2.4,1.8
			c0.567,0.367,1.4,0.55,2.5,0.55c1.3,0.434,2.7,0.65,4.2,0.65c0.933,0.4,1.65,0.667,2.15,0.8c0.833,0.167,1.817,0.233,2.95,0.2
			c0.633,0,1.6-0.05,2.9-0.15c1.9,0.133,3.25,0.217,4.05,0.25c1.467,0.2,2.533,0.383,3.2,0.55c0.233,0.033,0.6,0.15,1.1,0.35
			c0.466,0.133,0.833,0.216,1.1,0.25c0.767,0.1,1.95,0.066,3.55-0.1c1.033,0.367,2.117,0.533,3.25,0.5l0.8-0.15
			c1.667,0.233,3.067,0.333,4.2,0.3c0.633-0.033,1.483-0.067,2.55-0.1c0.9-0.1,1.684-0.383,2.35-0.85
			c0.167-0.1,0.617-0.483,1.35-1.15c0.2-0.1,0.65-0.333,1.35-0.7c0.133,0,0.433,0.05,0.9,0.15c0.367,0.066,0.65,0.066,0.85,0
			c0.133-0.067,0.3-0.233,0.5-0.5c0.2-0.267,0.383-0.434,0.55-0.5c0.233-0.1,0.517-0.167,0.85-0.2c0.4,0,0.667-0.017,0.8-0.05
			l3.25-0.35c0.5-0.067,1.1-0.283,1.8-0.65c0.333-0.1,0.883-0.184,1.65-0.25l1.65-0.5l1.15-0.2l0.15-0.05
			c0.133,0,0.55,0.017,1.25,0.05C81.333-5.783,81.733-5.8,82-5.9c0.233-0.067,0.467-0.217,0.7-0.45c0.3-0.233,0.517-0.383,0.65-0.45
			l0.2-0.1c0.333-0.033,0.883,0.017,1.65,0.15c1.833,0.067,3.25-0.383,4.25-1.35h0.45l0.8-0.1c0.566,0.067,1.65-0.15,3.25-0.65
			c0.933-0.267,2.4-0.633,4.4-1.1c0.8-0.133,1.25-0.267,1.35-0.4c0.066-0.066,0.1-0.2,0.1-0.4s0.017-0.317,0.05-0.35
			C100.183-11.467,100.75-11.717,101.55-11.85z"/>
	</g>
</symbol>
<g>
	
		<use xlink:href="#FlashAICB_x2F_Layer_9_x2F__x3C_Path_x3E__x5F_2"  width="103.6" height="28.506" y="-28.5" transform="matrix(1 0 0 -1 0 0)" style="overflow:visible;opacity:0.2109;enable-background:new    ;"/>
	
		<use xlink:href="#FlashAICB_x2F_Layer_9_x2F__x3C_Path_x3E__x5F_1"  width="92.75" height="26.106" y="-26.083" transform="matrix(1 0 0 -1 5.2998 0.5498)" style="overflow:visible;opacity:0.1484;enable-background:new    ;"/>
	
		<use xlink:href="#FlashAICB_x2F_Layer_9_x2F__x3C_Path_x3E_"  width="79.3" height="19.511" y="-19.502" transform="matrix(1 0 0 -1 15.6499 4.5)" style="overflow:visible;opacity:0.1484;enable-background:new    ;"/>
	<g>
		<path style="fill-rule:evenodd;clip-rule:evenodd;fill:#57432C;" d="M18.3,11.85c0.567-0.367,1.267-0.967,2.1-1.8
			c1-1,1.684-1.667,2.05-2c2.667-2.3,6.333-3.866,11-4.7c2.1-0.367,6.083-0.684,11.95-0.95c1.3-0.066,3.4-0.25,6.3-0.55
			c2.6-0.2,4.683-0.1,6.25,0.3c0.8,0.2,2.1,0.784,3.899,1.75c1.5,0.8,2.851,1.217,4.051,1.25c3.967,0.1,7.967,0.717,12,1.85
			C78.8,7.267,80.35,7.684,82.55,8.25c2.267,0.633,4.467,1.383,6.601,2.25c2.166,0.9,2.017,2.383-0.45,4.45
			c-3.101,2.1-4.817,3.316-5.15,3.649c-1.767,1.834-4.217,2.967-7.35,3.4c-0.233,0.033-3.05,0.15-8.45,0.35
			c-1.934,0-3.4-0.017-4.4-0.05c-1.8,0-3.25,0.117-4.35,0.351c-2.533,0.666-4.45,1.116-5.75,1.35c-2.2,0.434-4.167,0.517-5.9,0.25
			c-0.934-0.133-3-0.517-6.2-1.15c-2.6-0.533-4.7-0.866-6.3-1c-2.267-0.199-7.2-0.899-14.8-2.1c-1.533-0.233-2.583-0.45-3.15-0.65
			c-0.933-0.3-1.816-0.833-2.65-1.6c-0.7-0.566-1.133-1.017-1.3-1.35c-0.267-0.533-0.217-1.167,0.15-1.9
			c0.367-0.667,1.167-1.2,2.4-1.6C17.167,12.333,18.1,11.983,18.3,11.85z"/>
		<g>
			<path style="fill-rule:evenodd;clip-rule:evenodd;fill:#614B31;" d="M77.4,7.1l-0.45-0.35L77.9,7
				C78.8,7.267,80.35,7.684,82.55,8.25c2.267,0.633,4.467,1.383,6.601,2.25c2.166,0.9,2.017,2.383-0.45,4.45
				c-3.101,2.1-4.817,3.316-5.15,3.649c-0.667,0.7-1.433,1.301-2.3,1.801C80.383,20,79.7,19.566,79.2,19.1
				c-1.9-1.566-2.467-3.25-1.7-5.05c0.133-0.3,0.767-1,1.9-2.1c0.8-0.767,1.1-1.617,0.899-2.55c-0.133-0.533-0.533-0.983-1.2-1.35
				C78.066,7.517,77.5,7.2,77.4,7.1z"/>
			<path style="fill-rule:evenodd;clip-rule:evenodd;fill:#6B5336;" d="M58.35,3.35c0-0.3-0.1-0.684-0.3-1.15
				c0.8,0.233,1.767,0.633,2.9,1.2c1.233,0.667,2.1,1.083,2.6,1.25l0.3,0.9c0.2,1.233-0.05,2.317-0.75,3.25
				c-0.3,0.367-0.566,0.6-0.8,0.7c-0.2,0.1-0.566,0.117-1.1,0.05c-0.533-0.066-1.017-0.3-1.45-0.7c-0.3-0.233-0.684-0.667-1.15-1.3
				c-0.6-0.767-0.816-1.466-0.649-2.1C58.217,4.35,58.35,3.65,58.35,3.35z"/>
		</g>
		<g>
			<path style="fill-rule:evenodd;clip-rule:evenodd;fill:#54412B;" d="M21.5,8.9l-0.55,1.05c-0.134,0.3-0.333,0.633-0.6,1
				c-0.1,0.3,0,0.7,0.3,1.2c0.434,0.667,1.184,0.934,2.25,0.8L21.85,15.1c-2.4,0.834-4.2,1.45-5.4,1.851
				c-2.134,0.667-3.284,0.316-3.45-1.05h-0.2c-0.066-0.467,0.034-0.934,0.3-1.4c0.367-0.667,1.167-1.2,2.4-1.6
				c1.667-0.566,2.6-0.917,2.8-1.05c0.5-0.3,1.05-0.75,1.65-1.35C20.316,10.167,20.833,9.633,21.5,8.9z"/>
			<path style="fill-rule:evenodd;clip-rule:evenodd;fill:#473725;" d="M29.95,11c-0.434,0-1.367,0.05-2.8,0.15
				c-1.167,0.067-2.117,0.067-2.85,0c-0.066-0.7,0.25-1.466,0.95-2.3c1.033-1.233,1.566-1.883,1.6-1.95
				c0.367-0.633,0.433-1.2,0.2-1.7c3.134-1.367,7.567-2.217,13.3-2.55c-0.034,0.8,0.433,1.45,1.4,1.95
				c0.5,0.267,1.217,0.55,2.15,0.85c-0.633,0-1.267,0.133-1.9,0.4c-0.1,0.367-0.233,0.6-0.4,0.7c-0.2,0.1-0.5,0.184-0.9,0.25
				c-0.434,0.067-0.733,0.134-0.9,0.2c-0.966,0.367-1.716,0.767-2.25,1.2c-0.167,0.133-0.466,0.517-0.9,1.15
				c-0.4,0.5-0.767,0.85-1.1,1.05c-0.7,0.4-1.616,0.617-2.75,0.65C31.5,11.017,30.55,11,29.95,11z"/>
			<path style="fill-rule:evenodd;clip-rule:evenodd;fill:#523F2A;" d="M64.4,7.65C64.3,7.517,64.1,7.067,63.8,6.3
				c-0.333-0.966-0.517-1.483-0.55-1.55L63.1,4.5c0.934,0.4,1.867,0.617,2.801,0.65c1.066,0,2.566,0.1,4.5,0.3
				c-1.134,0.233-1.884,0.5-2.25,0.8C67.55,6.75,67.533,7.467,68.1,8.4c-0.433,0.1-1.083,0.083-1.949-0.05
				C65.217,8.184,64.633,7.95,64.4,7.65z"/>
		</g>
		<path style="fill-rule:evenodd;clip-rule:evenodd;fill:#54412B;" d="M81.75,13.5c0.1-0.6,0.133-1.017,0.1-1.25
			c0.301-0.033,1.268-0.033,2.9,0c1.066,0.033,1.967-0.1,2.7-0.4c0.133-0.467,0.017-0.934-0.351-1.4c-0.5-0.5-0.866-0.883-1.1-1.15
			l3.15,1.2c2.166,0.9,2.017,2.383-0.45,4.45c-3.101,2.1-4.817,3.316-5.15,3.649c-1.033,1.134-2.366,2-4,2.601
			c-1.133-0.733-2.149-1.566-3.05-2.5L72,12.55c0.533-0.066,1.283,0,2.25,0.2c1.233,0.267,1.983,0.417,2.25,0.45
			C79.1,13.5,80.85,13.6,81.75,13.5z"/>
	</g>
	<g>
		<path style="fill-rule:evenodd;clip-rule:evenodd;fill:#7A5F3E;" d="M25.65,9.7c1.1-0.733,2.35-1.217,3.75-1.45
			c0.8-0.133,2.117-0.3,3.95-0.5c0.9-0.133,2.133-0.583,3.7-1.35c1.7-0.833,2.95-1.35,3.75-1.55c1-0.233,2.35-0.317,4.05-0.25
			c2.167,0.033,3.533,0.033,4.1,0c2.566-0.2,4.517-0.267,5.85-0.2c1.233,0.067,2.783,0.367,4.65,0.9
			c2.667,0.767,4.183,1.184,4.55,1.25c0.533,0.134,1.4,0.284,2.6,0.45c0.268,0.1,0.634,0.317,1.101,0.65
			c0.433,0.333,0.8,0.55,1.1,0.65c0.634,0.2,1.567,0.3,2.8,0.3c1.5,0.033,2.45,0.083,2.851,0.15c1.066,0.133,2.433,0.533,4.1,1.2
			c1.867,0.7,3.184,1.133,3.95,1.3l1.15,0.2c1.066,0.7,1.8,1.15,2.199,1.35c0.567,0.733,1.551,1.417,2.95,2.05
			c-0.7,0.6-1.75,1.367-3.149,2.3c-1.268,0.833-1.967,1.316-2.101,1.449c-1.767,1.834-4.217,2.967-7.35,3.4
			c-0.233,0.033-3.05,0.15-8.45,0.35c-1.934,0-3.4-0.017-4.4-0.05c-1.8,0-3.25,0.117-4.35,0.351c-2.533,0.666-4.45,1.116-5.75,1.35
			c-2.2,0.434-4.167,0.517-5.9,0.25c-0.934-0.133-3-0.517-6.2-1.15c-2.6-0.533-4.7-0.866-6.3-1c-2.267-0.199-7.2-0.899-14.8-2.1
			c-1.533-0.233-2.583-0.45-3.15-0.65c-0.933-0.3-1.816-0.833-2.65-1.6l-0.9-0.8c0.8-0.4,1.3-0.667,1.5-0.8
			c1.167-0.167,2.2-0.551,3.1-1.15c0.466-0.3,0.966-0.717,1.5-1.25c0.433-0.066,0.816-0.233,1.15-0.5c0.233-0.2,0.533-0.55,0.9-1.05
			c0.333-0.467,0.667-0.817,1-1.05s0.85-0.466,1.55-0.7C24.783,10.184,25.316,9.934,25.65,9.7z"/>
		<path style="fill-rule:evenodd;clip-rule:evenodd;fill:#705739;" d="M14.85,16.15c1.167-0.167,2.2-0.551,3.1-1.15
			c0.466-0.3,0.966-0.717,1.5-1.25c0.433-0.066,0.816-0.233,1.15-0.5c0.233-0.2,0.533-0.55,0.9-1.05
			c0.285-0.398,0.568-0.715,0.85-0.95c0.167,0.4,0.05,0.883-0.35,1.45c1.033-0.167,1.483,0.167,1.35,1c0.433,0.033,1.267,0,2.5-0.1
			c1.066,0,1.8,0.167,2.2,0.5c-0.1,0.233-0.3,0.5-0.6,0.8c-0.333,0.367-0.55,0.633-0.65,0.8c0.634,0,0.867,0.316,0.7,0.95
			c0.333,0.066,0.833,0.033,1.5-0.101l0.15,0.5c0.3-0.1,1.117-0.416,2.45-0.95c1.133-0.3,1.6,0.051,1.4,1.051
			c0.434-0.033,0.967,0.116,1.6,0.449c0.7,0.367,1.05,0.733,1.05,1.101c1.034,0,1.65,0.017,1.85,0.05
			c0.233,0.033,0.55,0.167,0.95,0.4c0.433,0.233,0.683,0.35,0.75,0.35c0.2,0.033,0.583-0.033,1.15-0.2
			c0.5-0.133,0.867-0.149,1.1-0.05c0.167,0.066,0.316,0.184,0.45,0.35c0.1,0.167,0.184,0.268,0.25,0.301
			c0.233,0.3,0.4,0.467,0.5,0.5c0.233,0.133,0.8,0.133,1.7,0c0.233-0.033,0.533-0.101,0.9-0.2c0.267-0.101,0.35-0.367,0.25-0.8
			c0.967,0.233,1.733,0.1,2.3-0.4c0.6-0.533,0.517-1.283-0.25-2.25c0.333,0.3,1.05,0.667,2.15,1.1c0.9,0.467,1.267,1.084,1.1,1.851
			c0.601,0.033,1.583,0.033,2.95,0c1.267-0.033,2.233,0.066,2.9,0.3c0.066-0.4,0.25-0.717,0.55-0.95s0.616-0.25,0.95-0.05
			c0.033-0.366,0.017-0.633-0.051-0.8c0.268-0.066,0.634,0,1.101,0.2c0.5,0.199,0.866,0.3,1.1,0.3c-0.1-0.634,0.083-0.967,0.55-1
			c0.367,0,0.817,0.149,1.351,0.45c0.033-0.4,0.017-0.717-0.05-0.95c3.967,1,6.8,1.55,8.5,1.649c0.033-0.8-0.301-1.699-1-2.699
			c-0.667-0.967-1.384-1.667-2.15-2.101c0.633,0.034,1.867,0.434,3.7,1.2c1.533,0.634,2.75,0.8,3.649,0.5l0.45,0.4v-1.5
			c0.233-0.033,0.583,0.017,1.05,0.15c0.4,0.134,0.733,0.167,1,0.1c-0.033-0.4-0.35-0.867-0.949-1.4
			c-0.7-0.533-1.167-0.917-1.4-1.15c0.7,0.033,1.5,0.217,2.4,0.55c0.166,0.067,0.933,0.4,2.3,1c-0.367-0.733-1.317-1.483-2.851-2.25
			c-1.767-0.733-2.967-1.25-3.6-1.55c0.566,0,1.583,0.283,3.05,0.85c1.3,0.5,2.317,0.7,3.05,0.6c-0.033,0-0.149-0.167-0.35-0.5
			l0.65,0.15c-0.4-0.4-0.65-0.633-0.75-0.7c1,0.5,1.75,0.733,2.25,0.7c0.3,0,0.517-0.05,0.649-0.15l0.7,0.2l1.15,0.2
			c1.066,0.7,1.8,1.15,2.199,1.35c0.567,0.733,1.551,1.417,2.95,2.05c-0.7,0.6-1.75,1.367-3.149,2.3
			c-1.268,0.833-1.967,1.316-2.101,1.449c-1.767,1.834-4.217,2.967-7.35,3.4c-0.233,0.033-3.05,0.15-8.45,0.35
			c-1.934,0-3.4-0.017-4.4-0.05c-1.8,0-3.25,0.117-4.35,0.351c-2.533,0.666-4.45,1.116-5.75,1.35c-2.2,0.434-4.167,0.517-5.9,0.25
			c-0.934-0.133-3-0.517-6.2-1.15c-2.6-0.533-4.7-0.866-6.3-1c-2.267-0.199-7.2-0.899-14.8-2.1c-1.533-0.233-2.583-0.45-3.15-0.65
			c-0.933-0.3-1.816-0.833-2.65-1.6l-0.9-0.8C14.15,16.55,14.65,16.283,14.85,16.15z"/>
		<g>
			<path style="fill-rule:evenodd;clip-rule:evenodd;fill:#695135;" d="M14.85,16.15c1.167-0.167,2.2-0.551,3.1-1.15
				c0.466-0.3,0.833-0.6,1.1-0.9l0.45-0.15c-0.533,0.4-0.75,0.983-0.65,1.75c0.2-0.066,0.533-0.017,1,0.149l-0.2,0.5
				c0.867,0.167,1.983-0.267,3.35-1.3c0.133-0.1,0.283-0.3,0.45-0.6C23.617,14.184,23.8,14,24,13.9c0.033,0,0.617-0.1,1.75-0.3
				c0.833,0,1.4,0.05,1.7,0.15c-0.1,0.167-0.417,0.533-0.95,1.1c-0.434,0.466-0.7,0.817-0.8,1.05c-0.1,0.199-0.184,0.517-0.25,0.949
				c-0.067,0.467-0.15,0.801-0.25,1c-0.067,0.167-0.25,0.45-0.55,0.851c-0.267,0.333-0.433,0.616-0.5,0.85
				c0.434,0.233,0.883,0.217,1.35-0.05c0.566-0.366,0.983-0.55,1.25-0.55c0,0.133,0.033,0.434,0.1,0.899
				c0.5,0.101,0.983-0.05,1.45-0.449c0.434-0.4,0.733-0.851,0.9-1.351c0.3,0.8,0.783,0.834,1.45,0.101
				c0.967-1.101,1.567-1.684,1.8-1.75c0.066,0.533-0.067,1.233-0.4,2.1c-0.366,0.9-0.55,1.533-0.55,1.9
				c0.033,0.767,0.4,1.083,1.1,0.949c0.267-0.066,0.883-0.316,1.85-0.75c0.133,0.601,0.417,0.967,0.85,1.101
				c0.4,0.1,0.85,0,1.35-0.3c0.1,0.533,0.333,0.833,0.7,0.899c0.267,0.033,0.7,0,1.3-0.1c0.1,0,0.317,0.033,0.65,0.1
				c0.267,0.067,0.483,0.084,0.65,0.05c0.1,0,0.283-0.1,0.55-0.3c0.233-0.2,0.434-0.3,0.6-0.3c0.066,0.267,0.383,0.45,0.95,0.55
				c0.8,0.134,1.217,0.2,1.25,0.2c-0.066-0.533,0.2-0.717,0.8-0.55c0.333,0.1,0.85,0.25,1.55,0.45h1.8
				c0.2-0.067,0.433-0.351,0.7-0.851c0.133-0.267,0.3-0.633,0.5-1.1c0.034,0.033,0.25,0.667,0.65,1.899c0.2,0.5,0.75,0.567,1.65,0.2
				c0.3-0.1,0.633-0.283,1-0.55c0.333-0.133,0.733-0.083,1.2,0.15c-0.033-0.667,0.25-0.801,0.85-0.4c0.767,0.467,1.25,0.467,1.45,0
				c0.633,0.1,1.3,0.1,2,0c0.433-0.033,1.1-0.116,2-0.25c0.1-0.533,0.116-0.917,0.05-1.15c0.9-0.133,2.15,0.15,3.75,0.851
				c0.167-1,0.117-1.783-0.15-2.351c1.033,0.934,2.434,1.7,4.2,2.301c1.9,0.633,3.134,0.6,3.7-0.101
				c0.566-0.733,0.434-1.683-0.4-2.85c-0.166-0.767-0.566-1.566-1.199-2.4c-0.634-0.8-1.268-1.383-1.9-1.75
				c0.667,0.034,1.583,0.3,2.75,0.8c1.3,0.567,2.2,0.9,2.7,1L73.3,16.4c0.434,0.5,1.117,1.149,2.05,1.949
				c0.233,0.233,0.483,0.551,0.75,0.95c0.233,0.3,0.584,0.483,1.051,0.55c0.066-0.366,0.033-0.767-0.101-1.199
				c-0.167-0.533-0.3-0.95-0.399-1.25c0.433,0.333,1.033,0.633,1.8,0.899c0.733,0.233,1.399,0.367,2,0.4
				c0-0.267,0.033-0.733,0.1-1.4c0.067-0.566,0.067-1.05,0-1.45c0.367-0.133,0.833-0.166,1.4-0.1c0.767,0.066,1.233,0.1,1.399,0.1
				c-0.166-0.566-0.55-1.033-1.149-1.399c-0.267-0.133-0.851-0.383-1.75-0.75c0.333-0.2,0.866-0.2,1.6,0
				c0.434,0.133,1.017,0.333,1.75,0.6l-1.1-1.05c0.167,0,0.467,0.017,0.899,0.05c0.367,0.067,0.667,0.083,0.9,0.05
				c-0.1-0.233-0.4-0.5-0.9-0.8c-0.433-0.3-0.683-0.583-0.75-0.85l1.25,0.05c0.4,0.233,0.983,0.583,1.75,1.05
				c0.567,0.733,1.551,1.417,2.95,2.05c-0.7,0.6-1.75,1.367-3.149,2.3c-1.268,0.833-1.967,1.316-2.101,1.449
				c-1.767,1.834-4.217,2.967-7.35,3.4c-0.233,0.033-3.05,0.15-8.45,0.35c-1.934,0-3.4-0.017-4.4-0.05c-1.8,0-3.25,0.117-4.35,0.351
				c-2.533,0.666-4.45,1.116-5.75,1.35c-2.2,0.434-4.167,0.517-5.9,0.25c-0.934-0.133-3-0.517-6.2-1.15c-2.6-0.533-4.7-0.866-6.3-1
				c-2.267-0.199-7.2-0.899-14.8-2.1c-1.533-0.233-2.583-0.45-3.15-0.65c-0.933-0.3-1.816-0.833-2.65-1.6l-0.9-0.8
				C14.15,16.55,14.65,16.283,14.85,16.15z"/>
		</g>
		<g>
			<path style="fill-rule:evenodd;clip-rule:evenodd;fill:#5C472E;" d="M14.85,16.15L14.9,16.1L14.65,16.7
				c0.133-0.033,0.35-0.017,0.65,0.05c-0.033,0.1-0.017,0.3,0.05,0.6L16.8,17.4c0.1,0.566,0.684,0.8,1.75,0.699
				c0.034,0,0.784-0.116,2.25-0.35c0.6-0.1,1.333-0.333,2.2-0.7c0.2-0.066,0.55-0.116,1.05-0.149c0.5,0,0.85-0.051,1.05-0.15
				c0.133,0.434-0.083,1.066-0.65,1.9c-0.367,0.6-0.184,1.066,0.55,1.399c0.633,0.267,1.383,0.417,2.25,0.45
				c0.9,0,1.633-0.15,2.2-0.45c0.366,0.867,0.917,0.684,1.65-0.55c0.066-0.133,0.117-0.333,0.15-0.6c0-0.233,0.066-0.417,0.2-0.551
				c0.033-0.033,0.417-0.232,1.15-0.6c0.066,0.533,0.066,1.283,0,2.25c0.1,0.7,0.533,1.15,1.3,1.35c0.4,0.101,0.75,0.084,1.05-0.05
				c0.466-0.166,0.767-0.25,0.9-0.25c0.566-0.033,1.033,0.117,1.4,0.45c0.566,0.5,0.917,0.783,1.05,0.85
				c0.267,0.134,0.634,0.2,1.1,0.2c0.633,0,1,0,1.1,0c0.333,0.033,0.783,0.134,1.35,0.3c0.633,0.2,1.066,0.317,1.3,0.351
				c0.534,0.1,1.45,0.3,2.75,0.6c1.167,0.2,2.083,0.167,2.75-0.1c0-0.233,0.05-0.533,0.15-0.9c0.134-0.467,0.217-0.767,0.25-0.899
				c0.233,0.066,0.65,0.399,1.25,1c0.467,0.467,0.917,0.683,1.351,0.649c0.267-0.033,0.649-0.2,1.149-0.5
				c0.467-0.267,0.917-0.383,1.351-0.35c0.199-0.467,0.717-0.65,1.55-0.55c0.467,0.033,1.116,0.116,1.95,0.25
				c0.333-0.033,0.916-0.15,1.75-0.351c0.699-0.166,1.267-0.233,1.699-0.2l0.101-0.3c0.366-0.033,0.833-0.017,1.399,0.05
				c0.301,0.034,0.75,0.101,1.351,0.2c0.066-0.267,0.083-0.45,0.05-0.55c0.434-0.033,0.934,0,1.5,0.1l1.5,0.2
				c0.267,0.033,0.934,0.017,2-0.05c0.833-0.033,1.483,0.017,1.95,0.15c0.3-0.801,0.45-1.317,0.45-1.551
				c0.033-0.5-0.167-1.017-0.601-1.55l-0.2-0.2c-0.133-0.767-0.517-1.583-1.149-2.449c-0.601-0.834-1.233-1.45-1.9-1.851l0.851,0.1
				c0.767,0.5,1.5,1.183,2.199,2.05c0.067,0.066,0.134,0.233,0.2,0.5c0.033,0.267,0.101,0.434,0.2,0.5
				c0.133,0.1,0.383,0.133,0.75,0.1c0.367,0,0.633,0.084,0.8,0.25c0.067,0.067,0.15,0.283,0.25,0.65c0.101,0.333,0.2,0.55,0.3,0.649
				c0.233,0.301,0.551,0.534,0.95,0.7c0.267,0.067,0.634,0.184,1.101,0.351c0.933,0.333,1.866,0.483,2.8,0.449
				c0.066-0.3,0.083-0.5,0.05-0.6c0.167,0,0.667,0.167,1.5,0.5c0.667,0.233,1.2,0.233,1.6,0c0.334-0.2,0.5-0.55,0.5-1.05
				c0-0.566,0.084-0.934,0.25-1.101c0.2-0.232,0.584-0.3,1.15-0.199c0.733,0.1,1.184,0.133,1.35,0.1l-0.8,0.6
				c-1.767,1.834-4.217,2.967-7.35,3.4c-0.233,0.033-3.05,0.15-8.45,0.35c-1.934,0-3.4-0.017-4.4-0.05c-1.8,0-3.25,0.117-4.35,0.351
				c-2.533,0.666-4.45,1.116-5.75,1.35c-2.2,0.434-4.167,0.517-5.9,0.25c-0.934-0.133-3-0.517-6.2-1.15c-2.6-0.533-4.7-0.866-6.3-1
				c-2.267-0.199-7.2-0.899-14.8-2.1c-1.533-0.233-2.583-0.45-3.15-0.65c-0.933-0.3-1.816-0.833-2.65-1.6l-0.9-0.8
				C14.15,16.55,14.65,16.283,14.85,16.15z"/>
			<path style="fill-rule:evenodd;clip-rule:evenodd;fill:#5C472E;" d="M88.8,14.85c-0.667,0.6-1.833,1.433-3.5,2.5
				c0.3-0.433,0.134-0.966-0.5-1.6l0.5-0.05c-0.066-0.467-0.2-0.883-0.399-1.25c0.399-0.1,0.949-0.117,1.649-0.05
				c0.876,0.091,1.409,0.141,1.601,0.15L88.8,14.85z"/>
		</g>
		<path style="fill-rule:evenodd;clip-rule:evenodd;fill:#5C472E;" d="M73.45,15.9c0.533,0,0.917,0.05,1.149,0.149
			c0.334,0.101,0.601,0.334,0.801,0.7c0.232,0.434,0.25,0.6,0.05,0.5c-0.4-0.233-0.65-0.333-0.75-0.3
			c-0.033,0.133-0.033,0.35,0,0.649c-0.4-0.466-0.733-0.833-1-1.1c-0.4-0.372-0.751-0.572-1.05-0.6H73.45z"/>
		<path style="fill-rule:evenodd;clip-rule:evenodd;fill:#5C472E;" d="M79.2,13.3h0.649c-0.199-0.2-0.25-0.383-0.149-0.55
			c0.133-0.167,0.333-0.233,0.6-0.2c0.101,0.233,0.601,0.317,1.5,0.25c0.8-0.033,1.217,0.15,1.25,0.55
			c-0.3-0.033-0.533-0.05-0.7-0.05c-0.3-0.033-0.533-0.017-0.699,0.05c0.033,0.033,0.3,0.233,0.8,0.6
			c0.333,0.3,0.483,0.55,0.45,0.75c-1.167-0.4-1.95-0.583-2.351-0.55c0.033,0.067,0.2,0.284,0.5,0.65
			c0.2,0.233,0.267,0.483,0.2,0.75c-0.333,0.033-0.583-0.033-0.75-0.2c-0.167-0.267-0.35-0.483-0.55-0.649
			c-0.367-0.1-0.65-0.2-0.851-0.3c-0.433-0.133-0.533-0.316-0.3-0.55V14c0.033-0.1,0.2-0.1,0.5,0
			C79.167,13.833,79.133,13.6,79.2,13.3z"/>
		<path style="fill-rule:evenodd;clip-rule:evenodd;fill:#5C472E;" d="M82.9,12.05c1.038,0.006,1.639,0.106,1.8,0.3
			c0.033,0.066,0.066,0.2,0.1,0.4c0,0.2-0.033,0.317-0.1,0.35c-0.2,0.133-0.55,0.033-1.05-0.3C83.117,12.5,82.867,12.25,82.9,12.05z
			"/>
	</g>
	<g>
		<path style="fill-rule:evenodd;clip-rule:evenodd;fill:#8C6F4C;" d="M28.3,8.65L28,8.75h1.8c0.1,0.4-0.183,0.733-0.85,1
			c-0.567,0.233-1.067,0.317-1.5,0.25c-0.367-0.033-0.65-0.066-0.85-0.1c-0.333-0.066-0.517-0.183-0.55-0.35
			c-0.033-0.233,0.3-0.433,1-0.6C27.383,8.85,27.8,8.75,28.3,8.65z"/>
		<path style="fill-rule:evenodd;clip-rule:evenodd;fill:#8C6F4C;" d="M26.3,10.15l-0.25,0.4c0.267-0.033,0.45,0.017,0.55,0.15
			s0.017,0.267-0.25,0.4c-0.1,0.066-0.284,0.083-0.55,0.05c-0.3-0.033-0.466-0.1-0.5-0.2c-0.066-0.2,0.05-0.383,0.35-0.55
			C25.816,10.333,26.033,10.25,26.3,10.15z"/>
		<path style="fill-rule:evenodd;clip-rule:evenodd;fill:#8C6F4C;" d="M31.4,8.3c-0.141-0.012-0.257-0.012-0.35,0
			c-0.039,0.015-0.072,0.032-0.1,0.05L31.4,8.3z M31.8,8.25c0.067,0.2,0.034,0.317-0.1,0.35c-0.034,0.033-0.184,0.05-0.45,0.05
			c-0.4,0.034-0.566-0.017-0.5-0.15c0.021-0.108,0.122-0.175,0.3-0.2c0.089-0.033,0.206-0.05,0.35-0.05
			C31.5,8.25,31.633,8.25,31.8,8.25z"/>
		<path style="fill-rule:evenodd;clip-rule:evenodd;fill:#8C6F4C;" d="M32.3,8.65l0.175-0.1c0.348,0.003,0.473,0.086,0.375,0.25
			c-0.133,0.2-0.367,0.233-0.7,0.1C32.117,8.767,32.167,8.684,32.3,8.65z"/>
		<path style="fill-rule:evenodd;clip-rule:evenodd;fill:#8C6F4C;" d="M41.45,5.85c0.833,0.167,1.05,0.433,0.65,0.8
			c-0.067,0.067-0.284,0.117-0.65,0.15h-0.7L40,7.1c-0.5,0.133-1,0.2-1.5,0.2c0.033-0.3,0.25-0.55,0.65-0.75
			c-0.533,0.067-0.933,0.083-1.2,0.05c0.2-0.233,0.533-0.467,1-0.7c0.267-0.133,0.633-0.333,1.1-0.6l0.1,0.1
			C41.083,5.4,41.517,5.55,41.45,5.85z"/>
		<path style="fill-rule:evenodd;clip-rule:evenodd;fill:#8C6F4C;" d="M42.95,6.35h0.25c0.366-0.067,0.533,0.066,0.5,0.4
			C42.566,6.75,42.316,6.617,42.95,6.35z"/>
		<path style="fill-rule:evenodd;clip-rule:evenodd;fill:#8C6F4C;" d="M49.2,5.25L48.95,5.3c1.267,0,1.633,0.117,1.1,0.35
			c-0.167,0.067-0.483,0.117-0.95,0.15c-0.5,0.034-0.767,0-0.8-0.1c-0.066-0.167,0.034-0.3,0.3-0.4C48.8,5.233,49,5.217,49.2,5.25z"
			/>
		<path style="fill-rule:evenodd;clip-rule:evenodd;fill:#8C6F4C;" d="M49.25,6.65c-0.1,0.167-0.35,0.217-0.75,0.15
			c-0.333-0.033-0.6-0.1-0.8-0.2c0.033-0.167,0.15-0.283,0.35-0.35c0.135-0.06,0.243-0.11,0.325-0.15
			C48.61,6.106,48.818,6.14,49,6.2C49.333,6.3,49.417,6.45,49.25,6.65z"/>
		<path style="fill-rule:evenodd;clip-rule:evenodd;fill:#8C6F4C;" d="M45.75,6.35l-0.1-0.05h0.4c0.034,0.233-0.133,0.317-0.5,0.25
			C45.483,6.417,45.55,6.35,45.75,6.35z"/>
		<path style="fill-rule:evenodd;clip-rule:evenodd;fill:#8C6F4C;" d="M49.6,8.3c0.142-0.035,0.292-0.069,0.45-0.1
			c0.137-0.1,0.52-0.15,1.15-0.15l0.899-0.2c1.033-0.133,1.7-0.067,2,0.2c0.7,0.534,0.15,0.8-1.649,0.8
			C51.917,8.95,51.483,9,51.15,9c-0.601,0.067-0.867-0.083-0.8-0.45C49.883,8.55,49.633,8.467,49.6,8.3z"/>
		<path style="fill-rule:evenodd;clip-rule:evenodd;fill:#8C6F4C;" d="M55,7.5l-0.05,0.05c1.133,0,1.433,0.134,0.899,0.4
			c-0.566,0.267-1,0.25-1.3-0.05C54.617,7.733,54.767,7.6,55,7.5z"/>
		<path style="fill-rule:evenodd;clip-rule:evenodd;fill:#8C6F4C;" d="M60,6.35L59.15,6.6c0.166,0.033,0.717-0.05,1.649-0.25
			c0.867-0.1,1.283,0.083,1.25,0.55c-0.033,0.367-0.6,0.6-1.7,0.7c-1.1,0.066-1.517-0.117-1.25-0.55c-0.699,0-1.116-0.017-1.25-0.05
			c0.134-0.267,0.467-0.45,1-0.55C59.117,6.417,59.5,6.383,60,6.35z"/>
		<path style="fill-rule:evenodd;clip-rule:evenodd;fill:#8C6F4C;" d="M57.5,8.05L57.25,8c1.633,0.133,2.1,0.4,1.4,0.8
			c-0.134,0.067-0.434,0.067-0.9,0c-0.467-0.1-0.733-0.2-0.8-0.3C56.783,8.133,56.967,7.983,57.5,8.05z"/>
		<path style="fill-rule:evenodd;clip-rule:evenodd;fill:#8C6F4C;" d="M50.55,10.4h0.15c0.167,0,0.833-0.017,2-0.05
			c1.066,0.1,1.533,0.383,1.399,0.85c-0.1,0.433-1.083,0.75-2.949,0.95c-1.667,0.367-2.734,0.467-3.2,0.3c-0.067-0.2,0-0.4,0.2-0.6
			c0.167-0.167,0.367-0.267,0.6-0.3H47.4c-0.1-0.533,0.3-0.883,1.2-1.05C49.1,10.434,49.75,10.4,50.55,10.4z"/>
		<path style="fill-rule:evenodd;clip-rule:evenodd;fill:#8C6F4C;" d="M45.975,12.8c0.015-0.016,0.032-0.032,0.05-0.05
			c0.042-0.02,0.091-0.036,0.15-0.05c0.193-0.026,0.468-0.01,0.825,0.05c0.1,0.4-0.267,0.533-1.1,0.4
			c-0.064-0.112-0.064-0.212,0-0.3l0.025-0.025L45.975,12.8z"/>
		<path style="fill-rule:evenodd;clip-rule:evenodd;fill:#8C6F4C;" d="M49.15,13.25l-0.65,0.1c0.333,0,0.833-0.05,1.5-0.15
			c0.6-0.034,1.1,0,1.5,0.1c0.066,0.267-0.1,0.434-0.5,0.5c-1.066,0.2-2.05,0.184-2.95-0.05C48.15,13.35,48.517,13.184,49.15,13.25z
			"/>
		<path style="fill-rule:evenodd;clip-rule:evenodd;fill:#8C6F4C;" d="M36.3,13.85c0.367-0.133,0.85-0.283,1.45-0.45
			c0.2-0.066,0.6-0.183,1.2-0.35c0.48-0.141,0.813-0.291,1-0.45l-0.15,0.15c1.167,0,1.867,0.217,2.1,0.65
			c0.067,0.133,0.05,0.317-0.05,0.55c-0.133,0.233-0.184,0.383-0.15,0.45c0,0.1,0.15,0.233,0.45,0.4c0.233,0.134,0.3,0.3,0.2,0.5
			c-0.167,0.3-0.85,0.45-2.05,0.45c-0.9-0.2-1.517-0.233-1.85-0.1c-0.134,0.166-0.284,0.316-0.45,0.449
			c-0.367,0.233-0.75,0.268-1.15,0.101c-0.4-0.2-0.65-0.5-0.75-0.9l-0.4-0.05c0.167-0.267,0.55-0.533,1.15-0.8
			c-0.8,0.133-1.417,0.183-1.85,0.15C35.2,14.333,35.633,14.083,36.3,13.85z"/>
		<path style="fill-rule:evenodd;clip-rule:evenodd;fill:#8C6F4C;" d="M36.9,12.8c-0.633,0.167-1.117,0.284-1.45,0.35
			c-0.567,0.1-1.05,0.117-1.45,0.05c-0.033-0.3,0.283-0.467,0.95-0.5c0.333,0,0.75,0.017,1.25,0.05c0.8-0.133,1.133-0.083,1,0.15
			c-0.1,0.2-0.25,0.267-0.45,0.2L36.9,12.8z"/>
		<path style="fill-rule:evenodd;clip-rule:evenodd;fill:#8C6F4C;" d="M32.05,12.9l0.2,0.1L33,13.05c0.066,0.134,0.066,0.233,0,0.3
			c-0.167,0.133-0.434,0.2-0.8,0.2c-0.4-0.033-0.684-0.116-0.85-0.25C31.383,13.267,31.617,13.133,32.05,12.9z"/>
		<path style="fill-rule:evenodd;clip-rule:evenodd;fill:#8C6F4C;" d="M44.9,16.75c0.293-0.023,0.676-0.057,1.15-0.1
			c0.634,0,1.117,0.066,1.45,0.199c0.033,0.233-0.3,0.467-1,0.7c-0.667,0.267-1.917,0.4-3.75,0.4c-0.5,0-0.767,0-0.8,0
			c-0.367-0.033-0.617-0.15-0.75-0.351c0.2-0.199,0.517-0.3,0.95-0.3c0.209,0,0.509,0.017,0.9,0.05
			c-0.232-0.044-0.249-0.193-0.05-0.449c0.163-0.229,0.771-0.278,1.825-0.15C44.85,16.747,44.875,16.747,44.9,16.75z"/>
		<path style="fill-rule:evenodd;clip-rule:evenodd;fill:#8C6F4C;" d="M44.3,14.6l-0.75-0.2c0.934,0,1.517,0.05,1.75,0.15
			c0.1,0.333-0.133,0.55-0.7,0.65c-0.5,0.066-0.883,0.033-1.15-0.101C42.883,14.767,43.167,14.6,44.3,14.6z"/>
		<path style="fill-rule:evenodd;clip-rule:evenodd;fill:#8C6F4C;" d="M66.2,7.55l-0.55,0.1C65.883,7.617,66,7.717,66,7.95
			c0,0.2-0.066,0.383-0.2,0.55c-0.267,0.267-0.783,0.4-1.55,0.4c-0.767-0.033-0.95-0.25-0.55-0.65c-0.634,0-0.95-0.1-0.95-0.3
			c0.3-0.233,0.867-0.367,1.7-0.4C64.883,7.55,65.467,7.55,66.2,7.55z"/>
		<path style="fill-rule:evenodd;clip-rule:evenodd;fill:#8C6F4C;" d="M68.7,8.75L68.8,9c0.467-0.066,0.684,0.083,0.65,0.45
			s-0.233,0.6-0.601,0.7l-1.1,0.35c-0.333,0.133-0.617,0.233-0.85,0.3c-0.4,0.134-0.684,0.15-0.851,0.05
			c-0.3-0.167-0.25-0.367,0.15-0.6c0.5-0.333,0.767-0.533,0.8-0.6c-0.133-0.2,0.066-0.4,0.6-0.6C67.867,8.95,68.233,8.85,68.7,8.75z
			"/>
		<path style="fill-rule:evenodd;clip-rule:evenodd;fill:#8C6F4C;" d="M68.45,10.75L68,10.9c0.167,0.1,0.184,0.267,0.05,0.5
			c-0.066,0.133-0.233,0.233-0.5,0.3c-0.267,0.033-0.483,0.017-0.649-0.05c-0.434-0.167-0.351-0.333,0.25-0.5
			C67.483,11.05,67.917,10.917,68.45,10.75z"/>
		<path style="fill-rule:evenodd;clip-rule:evenodd;fill:#8C6F4C;" d="M65.45,12.05l0.1,0.05c0.434-0.033,0.65,0.033,0.65,0.2
			c0,0.2-0.217,0.284-0.65,0.25c-0.333-0.033-0.517-0.133-0.55-0.3S65.117,12.017,65.45,12.05z"/>
		<path style="fill-rule:evenodd;clip-rule:evenodd;fill:#8C6F4C;" d="M67.8,12.35l-0.25-0.2c0.667-0.066,0.851,0.083,0.55,0.45
			c-0.333,0.4-0.666,0.4-1,0C67.267,12.434,67.5,12.35,67.8,12.35z"/>
		<path style="fill-rule:evenodd;clip-rule:evenodd;fill:#8C6F4C;" d="M69.05,10.925l0.2,0.025c0.066,0.133,0.05,0.25-0.05,0.35
			c-0.067,0.067-0.184,0.067-0.351,0C68.85,11.189,68.917,11.064,69.05,10.925z"/>
		<path style="fill-rule:evenodd;clip-rule:evenodd;fill:#8C6F4C;" d="M70.4,11.4c0.587,0.011,0.938,0.044,1.05,0.1
			c-0.033,0.533-0.533,0.917-1.5,1.15c-0.934,0.233-1.567,0.184-1.9-0.15c0.134-0.033,0.351-0.217,0.65-0.55
			c0.033-0.034,0.066-0.133,0.1-0.3C68.934,11.55,69.467,11.467,70.4,11.4z"/>
		<path style="fill-rule:evenodd;clip-rule:evenodd;fill:#8C6F4C;" d="M67,12.9l0.2,0.25c0.066,0.367-0.167,0.483-0.7,0.35
			C66,13.367,66.167,13.167,67,12.9z"/>
	</g>
	<g>
		<path style="fill-rule:evenodd;clip-rule:evenodd;fill:#5C472E;" d="M25.4,13.65l0.9-0.8c0.333-0.133,0.717-0.184,1.15-0.15
			c0.5,0.033,0.767,0.183,0.8,0.45c0.066,0.3-0.033,0.55-0.3,0.75c-0.3,0.167-0.733,0.233-1.3,0.2c-0.566-0.033-1-0.133-1.3-0.3
			C25.283,13.733,25.3,13.684,25.4,13.65z"/>
		<path style="fill-rule:evenodd;clip-rule:evenodd;fill:#5C472E;" d="M31.3,10.25L31,10.8c0.4-0.3,0.95-0.466,1.65-0.5
			c0.767-0.033,1.1,0.25,1,0.85c-0.033,0.1-0.117,0.217-0.25,0.35c-0.033,0.1,0,0.25,0.1,0.45c-0.033,0.2-0.066,0.316-0.1,0.35
			c-0.033,0-0.15,0.017-0.35,0.05c-0.8,0.133-1.5,0.083-2.1-0.15c-0.167-0.067-0.25-0.133-0.25-0.2c0.033-0.1,0.033-0.217,0-0.35
			C30.533,10.75,30.733,10.283,31.3,10.25z"/>
		<path style="fill-rule:evenodd;clip-rule:evenodd;fill:#5C472E;" d="M37.9,9.75c0.034-0.2,0.15-0.333,0.35-0.4
			c0.133-0.067,0.316-0.15,0.55-0.25c0.333-0.167,0.817-0.434,1.45-0.8c1.133-0.466,1.867-0.483,2.2-0.05
			c0.3,0.4,0.167,0.767-0.4,1.1c-0.7,0.4-1.066,0.633-1.1,0.7c-0.034,0.1-0.034,0.267,0,0.5c0.033,0.233,0,0.417-0.1,0.55
			c-0.067,0.1-0.45,0.316-1.15,0.65c-0.8,0.367-1.767,0.333-2.9-0.1c-0.267-0.066-0.517-0.183-0.75-0.35
			c-0.366-0.233-0.533-0.466-0.5-0.7L37.9,9.75z"/>
		<path style="fill-rule:evenodd;clip-rule:evenodd;fill:#5C472E;" d="M33.7,8.15L35.3,8c0.467-0.066,0.95-0.033,1.45,0.1
			c0.7,0.133,0.934,0.417,0.7,0.85c-0.167,0.267-0.833,0.283-2,0.05C34.25,8.767,33.667,8.483,33.7,8.15z"/>
		<path style="fill-rule:evenodd;clip-rule:evenodd;fill:#5C472E;" d="M43.55,5.1l1.2-0.1c1.8-0.133,2.733,0.05,2.8,0.55
			c0.067,0.3-0.066,0.483-0.4,0.55c-0.033,0-0.316,0-0.85,0c-0.767,0.033-1.35,0.05-1.75,0.05c-0.7,0-1.25-0.05-1.65-0.15
			c-0.533-0.133-0.633-0.3-0.3-0.5C42.8,5.4,43.117,5.267,43.55,5.1z"/>
		<path style="fill-rule:evenodd;clip-rule:evenodd;fill:#5C472E;" d="M55.7,5.65h3.35c1.634,0,2.217,0.133,1.75,0.4
			C60.733,6.083,60.467,6.1,60,6.1c-0.733,0-1.367,0.083-1.9,0.25c-0.333,0.1-0.916,0.167-1.75,0.2c-0.8,0.034-1.383,0.134-1.75,0.3
			c-0.666,0.333-1.333,0.566-2,0.7c-0.366,0-0.649,0.017-0.85,0.05c-0.967,0.233-2.184,0.733-3.65,1.5
			c0.833-0.733,1.417-1.167,1.75-1.3c0.5-0.167,0.8-0.35,0.9-0.55c0-0.1,0-0.183,0-0.25c0.033-0.1,0.117-0.183,0.25-0.25l0.7-0.5
			c0.066,0,0.183,0.067,0.35,0.2C52.184,6.55,52.3,6.6,52.4,6.6c0.1,0,0.283-0.133,0.55-0.4C53.517,5.833,54.434,5.65,55.7,5.65z"/>
		<path style="fill-rule:evenodd;clip-rule:evenodd;fill:#5C472E;" d="M43.9,9.75c-0.133-0.7,0.5-1.117,1.9-1.25
			c1.1-0.1,2.034-0.066,2.8,0.1c0.966,0.2,1.316,0.5,1.05,0.9C49.517,9.733,49.1,9.9,48.4,10c-0.767,0.1-1.233,0.2-1.4,0.3
			c0.3,0.434,0.316,0.9,0.05,1.4c-0.267,0.466-0.667,0.767-1.2,0.9c-0.5,0.1-1.233,0.05-2.2-0.15c-1.1-0.2-1.633-0.55-1.6-1.05
			L43.9,9.75z"/>
		<path style="fill-rule:evenodd;clip-rule:evenodd;fill:#5C472E;" d="M55.15,15.05c0.199-0.1,0.517-0.333,0.949-0.7
			c0.367-0.367,0.717-0.6,1.051-0.7c0.333-0.1,0.75-0.15,1.25-0.15h1.25c0.166-0.033,0.35-0.066,0.55-0.1
			c-1.101-0.233-1.601-0.517-1.5-0.85c0.066-0.3,0.417-0.55,1.05-0.75c0.533-0.2,1-0.3,1.4-0.3c0.633-0.033,1.267,0.2,1.899,0.7
			c0.567,0.4,1.05,0.9,1.45,1.5c0.167,0.267,0.417,0.417,0.75,0.45c0.4,0.034,0.7,0.117,0.9,0.25c0.366,0.333,0.316,0.717-0.15,1.15
			c-0.167,0.167-0.316,0.267-0.45,0.3c-0.399,0-0.7,0.051-0.899,0.15c-0.367,0.167-0.634,0.25-0.801,0.25
			c-0.232-0.066-0.416-0.1-0.55-0.1c-0.167,0-0.3,0.083-0.399,0.25l0.35,0.699l-0.1,0.301c0,0.166,0.1,0.467,0.3,0.899
			c0.167,0.4,0.217,0.717,0.149,0.95c-0.6-0.4-0.949-0.6-1.05-0.6l0.05,0.55c-0.5-0.167-0.933-0.267-1.3-0.3
			c-0.7,0.033-1.2,0.017-1.5-0.051c-0.167-0.033-0.45-0.166-0.85-0.399c-1.067-0.367-1.667-0.55-1.8-0.55
			c-0.768,0.166-1.351,0.217-1.75,0.149l-1.25-0.25c-0.801-0.3-1.217-0.467-1.25-0.5c-0.167-0.166-0.268-0.399-0.301-0.7
			c-0.033-0.3,0.018-0.533,0.15-0.699L55.15,15.05z"/>
		<path style="fill-rule:evenodd;clip-rule:evenodd;fill:#5C472E;" d="M73.55,12.4c0.134,0,0.7,0.034,1.7,0.1
			c0.566,0,0.934,0.083,1.1,0.25l0.15,0.3c0.7,0.7,1.017,1.3,0.95,1.8c-0.333-0.467-0.684-0.667-1.05-0.6L76.6,14.5
			C75.9,14.2,75.434,14.033,75.2,14c-0.8-0.033-1.434-0.083-1.9-0.15c-0.833-0.067-1.366-0.267-1.6-0.6c0-0.066,0.033-0.1,0.1-0.1
			L72,12.9C72.267,12.6,72.783,12.434,73.55,12.4z"/>
		<path style="fill-rule:evenodd;clip-rule:evenodd;fill:#5C472E;" d="M73.55,9.7c0.2,0.033,0.5,0.183,0.9,0.45
			c0.333,0.2,0.566,0.383,0.7,0.55c-1.033-0.3-1.75-0.434-2.15-0.4c-0.7,0.067-1.133,0.1-1.3,0.1c-0.533-0.033-0.884-0.167-1.05-0.4
			l1.1-0.2c0.167,0,0.467-0.033,0.9-0.1C73.05,9.633,73.35,9.633,73.55,9.7z"/>
		<path style="fill-rule:evenodd;clip-rule:evenodd;fill:#5C472E;" d="M74.4,9.1c1.287,0.054,1.871,0.354,1.75,0.9L75.05,9.8
			c-0.233-0.066-0.383-0.15-0.45-0.25C74.533,9.483,74.467,9.333,74.4,9.1z"/>
		<path style="fill-rule:evenodd;clip-rule:evenodd;fill:#5C472E;" d="M31.05,15.65L30.7,15.3c0.233-0.4,1.033-0.65,2.4-0.75
			c1.133-0.133,1.8-0.033,2,0.3l0.05,0.7l-0.05,0.3c-0.1,0-0.2,0.018-0.3,0.051l-0.4,0.35l-0.7,0.4c-0.2,0.199-0.333,0.316-0.4,0.35
			c-0.133-0.033-0.233-0.033-0.3,0c-0.133,0.066-0.233,0.2-0.3,0.4c-0.1,0.267-0.15,0.416-0.15,0.449
			c-0.233-0.033-0.383-0.166-0.45-0.399c-0.067-0.3-0.133-0.517-0.2-0.65c-0.1,0.233-0.233,0.317-0.4,0.25
			c-0.233-0.166-0.417-0.283-0.55-0.35c-0.9-0.101-1.5-0.25-1.8-0.45c0.133-0.066,0.467-0.116,1-0.15
			C30.55,16.033,30.85,15.884,31.05,15.65z"/>
		<path style="fill-rule:evenodd;clip-rule:evenodd;fill:#5C472E;" d="M74.55,15.1l0.101,0.051c0.566-0.467,1.383-0.75,2.449-0.851
			c0.533-0.033,0.834-0.267,0.9-0.7c0-0.567,0.017-1,0.05-1.3c0.033-0.366,0.15-0.767,0.351-1.2c0.232-0.533,0.482-0.783,0.75-0.75
			c0.232,0.066,0.316,0.35,0.25,0.85c-0.134,0.333-0.2,0.533-0.2,0.6c0,0.134,0.05,0.317,0.149,0.55c-0.3,0-0.517,0.033-0.649,0.1
			l0.2,1.35c0,0.367-0.033,0.617-0.101,0.75l-0.55,0.65c-0.133,0.066-0.4,0.083-0.8,0.05c-0.5-0.066-0.817-0.1-0.95-0.1
			c-0.367,0.033-0.583,0.133-0.65,0.3c-0.066,0.1-0.116,0.366-0.149,0.8c-0.3-0.233-0.533-0.4-0.7-0.5
			c-0.3-0.133-0.517-0.033-0.65,0.3C74.35,15.65,74.417,15.333,74.55,15.1z"/>
		<path style="fill-rule:evenodd;clip-rule:evenodd;fill:#5C472E;" d="M37.25,15.05h0.4l0.55,0.101c0.2,0.666-0.05,0.883-0.75,0.649
			C36.717,15.533,36.65,15.283,37.25,15.05z"/>
		<path style="fill-rule:evenodd;clip-rule:evenodd;fill:#5C472E;" d="M38,16.45l0.15-0.05c0.233-0.367,0.7-0.634,1.4-0.801
			c0.567-0.133,1.117-0.183,1.65-0.149c-0.034,0.434-0.3,0.7-0.8,0.8c-0.633,0.066-1,0.167-1.1,0.3
			c-0.066,0.267-0.116,0.45-0.15,0.55c-0.033,0.134-0.25,0.167-0.65,0.101C37.934,17.134,37.767,16.884,38,16.45z"/>
		<path style="fill-rule:evenodd;clip-rule:evenodd;fill:#5C472E;" d="M43.25,18.3c0.066,0.067,0.15,0.167,0.25,0.3
			c0.033,0.067,0.15,0.134,0.35,0.2h1c0.833,0,1.3,0.017,1.4,0.05c0.5,0.101,0.8,0.384,0.9,0.851c0.1,0.6-0.117,0.85-0.65,0.75
			l-0.05,0.35c-0.233-0.033-0.517-0.149-0.85-0.35c-0.4-0.233-0.684-0.384-0.85-0.45c-0.733,0.033-1.267,0.017-1.6-0.05
			c-0.966-0.167-1.417-0.55-1.35-1.15c-0.267,0.033-0.5,0.05-0.7,0.05c-0.333,0-0.55-0.05-0.65-0.149
			c-0.134-0.167-0.134-0.384,0-0.65c0.133-0.267,0.283-0.433,0.45-0.5L40.8,17.9c0.333,0,0.784,0,1.35,0
			C42.617,17.9,42.983,18.033,43.25,18.3z"/>
		<path style="fill-rule:evenodd;clip-rule:evenodd;fill:#5C472E;" d="M46.3,16.05l-0.25,0.101c0.134-0.233,0.05-0.517-0.25-0.851
			c-0.233-0.3-0.2-0.5,0.1-0.6c0.367-0.133,0.75-0.067,1.15,0.2c0.4,0.234,0.583,0.534,0.55,0.9c0.966,0,1.517,0.117,1.65,0.351
			c0.133,0.199,0.15,0.383,0.05,0.55c-0.133,0.133-0.316,0.2-0.55,0.2c-0.066,0.166-0.017,0.416,0.15,0.75
			c0.133,0.3,0.184,0.533,0.15,0.699c-0.433-0.666-1.05-1.066-1.85-1.199c-0.6-0.101-0.983-0.2-1.15-0.301
			C45.783,16.65,45.867,16.384,46.3,16.05z"/>
		<path style="fill-rule:evenodd;clip-rule:evenodd;fill:#5C472E;" d="M51.5,18.35h-0.05c-0.067-0.066-0.05-0.133,0.05-0.199V18.35z
			 M52.85,18.4c0.7,0.066,1.018,0.283,0.95,0.649c-0.033,0.233-0.133,0.367-0.3,0.4c-0.033,0.033-0.217,0.066-0.55,0.1
			c-0.601,0.101-1.067,0.084-1.4-0.05c-0.2-0.133-0.333-0.283-0.399-0.45c-0.067-0.2,0.05-0.316,0.35-0.35V18.35
			C51.699,18.384,52.149,18.4,52.85,18.4z"/>
		<path style="fill-rule:evenodd;clip-rule:evenodd;fill:#5C472E;" d="M56.55,10.4c0.467-0.033,0.9,0,1.3,0.1
			c0.5,0.167,0.733,0.434,0.7,0.8c-0.033,0.3-0.233,0.483-0.6,0.55C57.85,11.883,57.533,11.9,57,11.9c-0.4,0-0.733-0.017-1-0.05
			c-0.533-0.033-0.833-0.133-0.9-0.3c-0.1-0.167-0.05-0.333,0.15-0.5c0.133-0.133,0.3-0.216,0.5-0.25L56.55,10.4z"/>
	</g>
	<g>
		<path style="fill-rule:evenodd;clip-rule:evenodd;fill:#7D7368;" d="M32.55,11.55c-0.433,0.4-0.917,0.6-1.45,0.6
			c-0.633,0-0.95-0.25-0.95-0.75v-0.05c0-0.233,0.15-0.483,0.45-0.75c0.3-0.233,0.65-0.383,1.05-0.45
			c0.367-0.1,0.733-0.083,1.1,0.05c0.167,0.033,0.3,0.133,0.4,0.3l0.05,0.2v0.1L33.15,11C33.017,11.167,32.816,11.35,32.55,11.55z"
			/>
		<path style="fill-rule:evenodd;clip-rule:evenodd;fill:#7D7368;" d="M40.3,9.8v0.05c-0.066,0.3-0.383,0.617-0.95,0.95l-0.15,0.15
			l-0.35,0.2c-0.667,0.233-1.233,0.367-1.7,0.4h-0.1c-0.433,0-0.85-0.167-1.25-0.5l-0.3-0.2l-0.05-0.1
			c0.5-0.066,0.816-0.167,0.95-0.3c0.067-0.034,0.1-0.117,0.1-0.25l0.05-0.3l0.7,0.05c0.5,0.066,0.917,0.066,1.25,0
			c0.4-0.1,0.733-0.25,1-0.45l0.4-0.55l0.2,0.3C40.233,9.417,40.3,9.6,40.3,9.8z"/>
		<path style="fill-rule:evenodd;clip-rule:evenodd;fill:#7D7368;" d="M42.85,11.55l-0.15-0.1c-0.2-0.2-0.3-0.4-0.3-0.6
			c0-0.367,0.233-0.684,0.7-0.95c0.367-0.267,0.816-0.4,1.35-0.4l0.05-0.05c0.267-0.034,0.517-0.034,0.75,0L45.2,9.4l-0.5-0.25
			h-0.15l-0.3-0.25L44,8.75l0.1-0.3c0.767,0.066,1.3,0.033,1.6-0.1c0.5-0.2,0.65-0.583,0.45-1.15l0.1-0.15
			c0.233-0.433,0.6-0.483,1.1-0.15c0.1,0.067,0.15,0.133,0.15,0.2l0.4,0.4l0.25,0.4v0.4l-0.2,0.4L47.7,8.95l-0.45,0.2
			c-0.333,0.167-0.7,0.25-1.1,0.25h-0.1l-0.7,0.1l0.6,0.1c0.466,0.2,0.7,0.467,0.7,0.8c0,0.133-0.05,0.25-0.15,0.35
			c-0.033,0.2-0.184,0.4-0.45,0.6c-0.533,0.4-1.216,0.6-2.05,0.6c-0.467,0-0.833-0.1-1.1-0.3L42.85,11.55z"/>
		<path style="fill-rule:evenodd;clip-rule:evenodd;fill:#7D7368;" d="M61.3,10.5c0.233,0.1,0.384,0.217,0.45,0.35h-0.1L61.5,10.8
			L61,10.55l-0.5-0.1l-0.55,0.1c-0.2,0.1-0.3,0.3-0.3,0.6l-0.2,0.4L59.3,12.2l0.101,0.4l0.3,0.2h-0.05
			c-0.601,0-1.018-0.183-1.25-0.55l-0.15-0.45l-0.05-0.25c0-0.267,0.2-0.533,0.6-0.8c0.4-0.233,0.817-0.367,1.25-0.4h0.601L61,10.4
			L61.3,10.5z"/>
		<path style="fill-rule:evenodd;clip-rule:evenodd;fill:#59534B;" d="M56.9,16c0.666-0.133,1.166-0.383,1.5-0.75l0.8-0.7l0.2,0.15
			l0.05,0.15V15c0,0.167-0.067,0.384-0.2,0.65L58.2,17c-0.767,0.667-1.55,1-2.351,1L54.9,17.85l-0.65-0.25l-0.2-0.1l0.45-0.35
			c0.133-0.033,0.217-0.101,0.25-0.2L55.3,16.6c0.2-0.1,0.367-0.199,0.5-0.3C55.967,16.2,56.333,16.1,56.9,16z M62.3,11.2
			c0,0.133-0.149,0.383-0.45,0.75c-0.133,0.133-0.366,0.3-0.699,0.5L61,12.55c-0.333,0.134-0.583,0.2-0.75,0.2
			c-0.233,0-0.417-0.033-0.55-0.1l-0.3-0.2l-0.101-0.4l0.15-0.65l0.2-0.45c0-0.267,0.1-0.45,0.3-0.55c0.1-0.066,0.283-0.1,0.55-0.1
			l0.5,0.1c0.267,0.067,0.434,0.15,0.5,0.25l0.15,0.05h0.1c0.367-0.1,0.55,0.05,0.55,0.45V11.2z M62.9,15.55
			c0-0.2,0.149-0.45,0.449-0.75c0.367-0.333,0.733-0.583,1.101-0.75c0.433-0.233,0.8-0.35,1.1-0.35l0.25,0.1
			c0.167,0.167,0.25,0.367,0.25,0.6c0,0.167-0.066,0.333-0.2,0.5l-0.699,0.55l-1,0.45L63.4,16c-0.233,0-0.4-0.066-0.5-0.2V15.55z
			 M61,18.75l-0.95,0.05c-0.8,0-1.2-0.233-1.2-0.7V17.95l0.25-0.2l0.351-0.2l1.45-0.399L61,17.1c0.533-0.066,0.95-0.066,1.25,0
			l0.5,0.15c0.1,0.1,0.15,0.217,0.15,0.35v0.15c-0.101,0.267-0.367,0.5-0.801,0.7C62.033,18.483,61.667,18.583,61,18.75z"/>
		<path style="fill-rule:evenodd;clip-rule:evenodd;fill:#9A8B7C;" d="M29.4,14.95l0.2-0.35l0.7-1l3.45,0.4
			c0.3,0.1,0.5,0.217,0.6,0.35c0.1,0.1,0.15,0.283,0.15,0.55c0,0.3-0.083,0.534-0.25,0.7c-0.167,0.167-0.367,0.301-0.6,0.4
			c-0.767,0.233-1.95,0.35-3.55,0.35c-0.467,0-0.784-0.1-0.95-0.3C29.05,16.017,29,15.934,29,15.8L29.4,14.95z M57.3,9.95
			c0.333,0.133,0.5,0.333,0.5,0.6v0.05c0,0.233-0.1,0.417-0.3,0.55c-0.3,0.233-0.75,0.35-1.35,0.35c-0.634,0-1.051-0.15-1.25-0.45
			L54.8,10.9c-0.033,0-0.05-0.05-0.05-0.15v-0.1c0-0.3,0.15-0.533,0.45-0.7l0.1-0.05L56,9.7h0.25l0.5,0.05h0.2L57.3,9.95z
			 M38.5,9.95c-0.333,0.066-0.75,0.066-1.25,0l-0.7-0.05l-0.05,0.3c0,0.133-0.033,0.216-0.1,0.25c-0.133,0.133-0.45,0.233-0.95,0.3
			H35.2c-0.467,0-0.75-0.133-0.85-0.4l-0.05-0.4c0-0.267,0.3-0.583,0.9-0.95c0.6-0.367,1.233-0.667,1.9-0.9
			c0.8-0.2,1.45-0.283,1.95-0.25c0.6,0,0.9,0.217,0.9,0.65L39.9,8.95L39.5,9.5C39.233,9.7,38.9,9.85,38.5,9.95z M51.9,5.75
			l0.05,0.05c0.2,0.1,0.3,0.267,0.3,0.5c0,0.233-0.117,0.417-0.35,0.55L51.2,7h-0.05c-0.467,0-0.817-0.117-1.05-0.35L50,6.3
			c0-0.267,0.117-0.45,0.35-0.55c0.167-0.133,0.433-0.2,0.8-0.2C51.483,5.55,51.733,5.617,51.9,5.75z M46.25,7.05l-0.1,0.15
			c0.2,0.566,0.05,0.95-0.45,1.15c-0.3,0.133-0.833,0.167-1.6,0.1L44,8.725L43.85,8.6c-0.2-0.2-0.3-0.417-0.3-0.65
			c0-0.5,0.217-0.833,0.65-1c0.3-0.2,0.716-0.25,1.25-0.15L46.25,7.05z"/>
		<path style="fill-rule:evenodd;clip-rule:evenodd;fill:#A6866D;" d="M30.35,9.7c0.466-0.2,0.867-0.317,1.2-0.35
			c0.4-0.033,0.8,0.033,1.2,0.2c0.167,0.067,0.3,0.167,0.4,0.3c0.1,0.167,0.15,0.333,0.15,0.5l-0.1,0.35l-0.05-0.2
			c-0.1-0.167-0.233-0.267-0.4-0.3c-0.367-0.133-0.733-0.15-1.1-0.05c-0.4,0.067-0.75,0.217-1.05,0.45
			c-0.3,0.267-0.45,0.517-0.45,0.75l-0.2-0.2l-0.1-0.7c0-0.267,0.117-0.467,0.35-0.6L30.35,9.7z M26,13.7
			c-0.434,0-0.75-0.117-0.95-0.35c-0.1-0.1-0.15-0.233-0.15-0.4c0-0.2,0.184-0.367,0.55-0.5c0.233-0.1,0.6-0.184,1.1-0.25
			c0.5-0.067,0.867-0.05,1.1,0.05c0.3,0.067,0.467,0.167,0.5,0.3l0.1,0.2v0.05c0,0.233-0.3,0.45-0.9,0.65
			C26.85,13.617,26.4,13.7,26,13.7z M41.2,7.05c0.333-0.033,0.633,0,0.9,0.1c0.2,0.133,0.3,0.25,0.3,0.35
			c0.067,0.067,0.1,0.2,0.1,0.4c0,0.233-0.083,0.434-0.25,0.6L42.1,8.6c-0.233,0.133-0.55,0.2-0.95,0.2h-0.4
			c-0.3-0.033-0.533-0.167-0.7-0.4l-0.1-0.45c0-0.233,0.116-0.417,0.35-0.55c0.067-0.066,0.284-0.167,0.65-0.3L41.2,7.05z M42.25,5
			c0-0.233,0.25-0.45,0.75-0.65c0.467-0.167,1.033-0.267,1.7-0.3c0.6-0.033,1.133,0.034,1.6,0.2c0.3,0.033,0.534,0.167,0.7,0.4
			L47.1,5c0,0.3-0.2,0.517-0.6,0.65c-0.4,0.2-0.934,0.3-1.6,0.3c-1.133,0-1.9-0.133-2.3-0.4C42.367,5.383,42.25,5.2,42.25,5z
			 M35.05,7.1l0.55,0.2c0.3,0.167,0.45,0.35,0.45,0.55c0,0.467-0.466,0.7-1.4,0.7c-0.633,0-1.05-0.1-1.25-0.3L33.3,7.9V7.85
			c0-0.267,0.15-0.483,0.45-0.65c0.233-0.133,0.533-0.167,0.9-0.1H35.05z"/>
		<path style="fill-rule:evenodd;clip-rule:evenodd;fill:#948A7D;" d="M55.95,13.15l0.85,0.55c0.467,0.333,0.7,0.566,0.7,0.7
			l-0.15,0.4l-0.05,0.05c-0.333-0.1-0.783-0.117-1.35-0.05l-0.45,0.05c-0.434,0.1-0.833,0.25-1.2,0.45
			c-0.533,0.334-0.8,0.684-0.8,1.05c0,0.21,0.066,0.394,0.2,0.551c-0.333-0.134-0.583-0.267-0.75-0.4l-0.101,0.15v0.1l-0.5-0.6
			C52.15,15.783,52,15.417,51.9,15.05l-0.15-0.5c0-0.433,0.15-0.8,0.45-1.1c0.233-0.2,0.467-0.35,0.7-0.45
			c0.666-0.233,1.517-0.333,2.55-0.3c0.7,0,1.3,0.1,1.8,0.3C56.883,13,56.45,13.05,55.95,13.15z M53.85,13
			c-0.399,0.067-0.699,0.167-0.899,0.3l-0.2,0.2c-0.167,0.1-0.25,0.233-0.25,0.4c0,0.133,0.05,0.267,0.15,0.4
			c0.166,0.2,0.482,0.3,0.949,0.3c0.268,0,0.601-0.083,1-0.25l0.351-0.25c0.133-0.133,0.2-0.267,0.2-0.4c0-0.3-0.15-0.5-0.45-0.6
			C54.434,13,54.15,12.967,53.85,13z M60.35,15.85L61,15.8l0.85,0.2l0.25,0.1c-0.333,0-0.699,0.15-1.1,0.45l-0.8,0.95l-0.75,0.2
			L59.1,17.9H58.95c-0.267,0-0.434-0.051-0.5-0.15L58.3,17.4l-0.05,0.149V17.4l-0.05-0.2l0.8-1.05
			C59.533,15.95,59.983,15.85,60.35,15.85z M62.15,15.35l-0.4-0.3l-0.35-0.4L61.35,14.4c0-0.433,0.217-0.816,0.65-1.15
			c0.434-0.267,0.9-0.4,1.4-0.4c0.633,0.066,1.116,0.217,1.449,0.45l0.2,0.15c-0.333,0-0.683,0.117-1.05,0.35
			c-0.5,0.267-0.934,0.534-1.3,0.8c-0.4,0.3-0.601,0.483-0.601,0.55L62.15,15.35z"/>
		<path style="fill-rule:evenodd;clip-rule:evenodd;fill:#A3998A;" d="M55.15,13.7c0,0.133-0.067,0.267-0.2,0.4L54.6,14.35
			c-0.399,0.167-0.732,0.25-1,0.25c-0.467,0-0.783-0.1-0.949-0.3c-0.101-0.133-0.15-0.267-0.15-0.4c0-0.167,0.083-0.3,0.25-0.4
			l0.2-0.2c0.2-0.133,0.5-0.233,0.899-0.3c0.301-0.033,0.584,0,0.851,0.1C55,13.2,55.15,13.4,55.15,13.7z M42.85,11.55l0.05,0.1
			l-0.1-0.05c-0.366-0.033-0.65-0.184-0.85-0.45L41.8,10.7v-0.25c0-0.4,0.2-0.733,0.6-1l0.65-0.25l0.8-0.1l0.7,0.05h0.15l0.5,0.25
			l0.05,0.05c-0.233-0.034-0.483-0.034-0.75,0L44.45,9.5c-0.534,0-0.983,0.133-1.35,0.4c-0.467,0.267-0.7,0.583-0.7,0.95
			c0,0.2,0.1,0.4,0.3,0.6L42.85,11.55z"/>
		<path style="fill-rule:evenodd;clip-rule:evenodd;fill:#7D7368;" d="M57.25,13c0.867-0.033,1.483,0.1,1.85,0.4
			c0.233,0.233,0.351,0.717,0.351,1.45V15l-0.05-0.15l-0.2-0.1l-0.8,0.65c-0.334,0.366-0.834,0.616-1.5,0.75
			c-0.634,0.166-1.167,0.383-1.601,0.649l-0.8,0.5l-0.45,0.351l0.2,0.1l-0.5-0.15c-0.633-0.232-0.95-0.482-0.95-0.75l0.05-0.1v-0.1
			l0.101-0.15c0.167,0.134,0.417,0.267,0.75,0.4c-0.134-0.157-0.2-0.341-0.2-0.551c0-0.366,0.267-0.716,0.8-1.05
			c0.367-0.2,0.767-0.35,1.2-0.45l0.45-0.05c0.566-0.066,1.017-0.05,1.35,0.05l0.05-0.05l0.15-0.4c0-0.133-0.233-0.367-0.7-0.7
			l-0.85-0.55C56.45,13.05,56.883,13,57.25,13z M62.9,15.8c-0.334-0.066-0.551-0.166-0.65-0.3l-0.1-0.15L62.1,15.15
			c0-0.067,0.2-0.25,0.601-0.55c0.366-0.267,0.8-0.533,1.3-0.8c0.367-0.233,0.717-0.35,1.05-0.35c0.4-0.034,0.65,0.15,0.75,0.55
			c-0.066-0.066-0.149-0.1-0.25-0.1c-0.3-0.033-0.667,0.067-1.1,0.3c-0.367,0.167-0.733,0.417-1.101,0.75
			c-0.3,0.366-0.449,0.616-0.449,0.75V15.8z M62.4,16.2C62.8,16.3,63,16.517,63,16.85c0,0.134-0.083,0.317-0.25,0.551l-0.5-0.15
			c-0.367-0.066-0.783-0.05-1.25,0.05h-0.1l-0.7,0.2l0.8-0.95c0.4-0.3,0.767-0.45,1.1-0.45L62.4,16.2z"/>
		<path style="fill-rule:evenodd;clip-rule:evenodd;fill:#59534B;" d="M45.25,10.15h0.15c0.167-0.033,0.383-0.1,0.65-0.2
			c0.233-0.034,0.4,0.083,0.5,0.35c0.167,0.5-0.116,0.983-0.85,1.45c-0.333,0.2-0.917,0.3-1.75,0.3c-0.9-0.033-1.333-0.25-1.3-0.65
			c0.633,0,1.1-0.167,1.4-0.5c0.2-0.167,0.35-0.35,0.45-0.55C44.633,10.217,44.883,10.15,45.25,10.15z"/>
		<path style="fill-rule:evenodd;clip-rule:evenodd;fill:#59534B;" d="M48.4,7.65c0.2,0.367,0.067,0.784-0.4,1.25
			c-0.3,0.333-0.8,0.534-1.5,0.6c-0.7,0.067-1.217-0.05-1.55-0.35c0.1-0.233,0.533-0.417,1.3-0.55
			c0.539-0.085,0.813-0.327,0.825-0.725C47.211,7.811,47.419,7.653,47.7,7.4C48,7.233,48.233,7.317,48.4,7.65z"/>
		<path style="fill-rule:evenodd;clip-rule:evenodd;fill:#59534B;" d="M39.8,9.95h0.25c-0.167,0.5-0.333,0.833-0.5,1
			c-0.2,0.267-0.517,0.466-0.95,0.6c-0.434,0.134-0.917,0.167-1.45,0.1c-0.7-0.1-1-0.383-0.9-0.85c0.934-0.066,1.533-0.133,1.8-0.2
			C38.65,10.5,39.233,10.283,39.8,9.95z"/>
		<path style="fill-rule:evenodd;clip-rule:evenodd;fill:#59534B;" d="M32.25,10.9h-0.6c0.233-0.233,0.617-0.316,1.15-0.25
			c-0.167,0.833-0.767,1.217-1.8,1.15C31.066,11.367,31.483,11.067,32.25,10.9z"/>
		<path style="fill-rule:evenodd;clip-rule:evenodd;fill:#7D7368;" d="M41.3,16.9V16.8c0.1,0,0.434,0.033,1,0.101
			c0.1,0.967-0.233,1.467-1,1.5c-0.8,0.033-1.2-0.2-1.2-0.7S40.5,16.934,41.3,16.9z"/>
		<path style="fill-rule:evenodd;clip-rule:evenodd;fill:#948A7D;" d="M71.95,8.35L71.8,8.4c0.134,0.034,0.351,0.067,0.65,0.1
			c0.3,0.067,0.5,0.15,0.6,0.25c0.2,0.2,0.25,0.434,0.15,0.7C73.1,9.717,72.934,9.9,72.7,10c-0.434,0.1-0.983,0.133-1.65,0.1
			c-0.8-0.033-1.25-0.2-1.35-0.5c-0.167-0.533,0.083-0.867,0.75-1C70.85,8.533,71.35,8.45,71.95,8.35z"/>
		<path style="fill-rule:evenodd;clip-rule:evenodd;fill:#948A7D;" d="M74.325,8.625L74.2,8.6c0.3-0.033,0.583,0.05,0.85,0.25
			c0.3,0.233,0.283,0.467-0.05,0.7c-0.066,0.067-0.267,0.067-0.6,0c-0.334-0.033-0.518-0.083-0.551-0.15
			c-0.133-0.167-0.116-0.35,0.051-0.55C74.033,8.69,74.175,8.615,74.325,8.625z"/>
		<path style="fill-rule:evenodd;clip-rule:evenodd;fill:#948A7D;" d="M73.525,10.9c0.598,0.054,1.206,0.288,1.824,0.7
			c0.801,0.533,0.884,1.066,0.25,1.6c-0.5,0.433-1.25,0.6-2.25,0.5c-0.933-0.1-1.683-0.367-2.25-0.8
			c-0.767-0.5-0.616-0.983,0.45-1.45C72.273,11.131,72.932,10.948,73.525,10.9z"/>
		<path style="fill-rule:evenodd;clip-rule:evenodd;fill:#7D7368;" d="M74.65,11.4h0.05c0.366,0,0.7,0.1,1,0.3
			c0.333,0.233,0.5,0.533,0.5,0.9c0,0.533-0.233,0.85-0.7,0.95c-0.133,0.034-0.566,0.05-1.3,0.05c-0.8,0-1.467-0.083-2-0.25
			c-0.4-0.1-0.7-0.2-0.9-0.3c-0.399-0.167-0.6-0.366-0.6-0.6c0.167,0,0.566,0.017,1.2,0.05c0.5,0.033,0.899,0.017,1.199-0.05
			c0.134-0.034,0.317-0.083,0.551-0.15c0.199-0.033,0.333-0.133,0.399-0.3c0.067-0.233,0.117-0.4,0.15-0.5S74.383,11.367,74.65,11.4
			z"/>
		<path style="fill-rule:evenodd;clip-rule:evenodd;fill:#7D7368;" d="M72.2,8.8l-0.25-0.15l-0.2-0.35c0.8,0,1.316,0.167,1.55,0.5
			c0.3,0.467,0.101,0.85-0.6,1.15c-0.333,0.167-0.9,0.25-1.7,0.25c-0.934,0.033-1.383-0.133-1.35-0.5
			c0.767-0.067,1.217-0.133,1.35-0.2c0.1-0.033,0.283-0.183,0.55-0.45C71.717,8.883,71.934,8.8,72.2,8.8z"/>
		<path style="fill-rule:evenodd;clip-rule:evenodd;fill:#7D7368;" d="M74.8,9L74.9,9.05c0.199-0.033,0.316,0.017,0.35,0.15
			s-0.033,0.25-0.2,0.35c-0.133,0.134-0.433,0.134-0.899,0c0.033-0.2,0.25-0.333,0.649-0.4V9z"/>
		<path style="fill-rule:evenodd;clip-rule:evenodd;fill:#59534B;" d="M75.5,12.1l0.55,0.35c0.101,0.867-0.5,1.3-1.8,1.3
			c-0.4,0-0.8-0.05-1.2-0.15c-0.667,0-1.149-0.067-1.45-0.2c0.067-0.167,0.334-0.25,0.801-0.25c0.232,0,0.55,0,0.949,0
			c0.434,0,0.867-0.183,1.301-0.55c0.1-0.067,0.267-0.117,0.5-0.15c0.066-0.034,0.1-0.1,0.1-0.2C75.283,12.15,75.367,12.1,75.5,12.1
			z"/>
		<path style="fill-rule:evenodd;clip-rule:evenodd;fill:#59534B;" d="M72.9,9.05H72.8c0.134-0.167,0.267-0.2,0.4-0.1
			c0.133,0.133,0.2,0.283,0.2,0.45c0,0.4-0.2,0.65-0.601,0.75c-0.267,0.1-0.633,0.117-1.1,0.05c-0.321-0.057-0.579-0.09-0.775-0.1
			c0.436-0.02,0.761-0.069,0.976-0.15c0.166-0.034,0.333-0.184,0.5-0.45C72.6,9.267,72.767,9.117,72.9,9.05z"/>
		<path style="fill-rule:evenodd;clip-rule:evenodd;fill:#59534B;" d="M74.9,9.3h-0.15c0.167-0.1,0.4-0.116,0.7-0.05
			c0,0.2-0.15,0.3-0.45,0.3c-0.333,0-0.55,0-0.65,0C74.417,9.45,74.6,9.367,74.9,9.3z"/>
		<path style="fill-rule:evenodd;clip-rule:evenodd;fill:#7D7368;" d="M29,16.15c-0.066-0.233,0.184-0.384,0.75-0.45
			c0.3-0.033,0.684-0.066,1.15-0.101L32,15.4c0.233-0.033,0.517-0.184,0.85-0.45c0.1-0.034,0.3-0.05,0.6-0.05
			c0.267-0.066,0.366-0.2,0.3-0.4l0.05,0.05c0.067-0.233,0.3-0.316,0.7-0.25c0.066,0.467-0.083,0.917-0.45,1.351
			c-0.366,0.467-0.8,0.717-1.3,0.75C31.816,16.566,30.566,16.483,29,16.15z"/>
		<path style="fill-rule:evenodd;clip-rule:evenodd;fill:#635D54;" d="M42.25,17.35l0.05,0.25c0.067,0.467-0.017,0.733-0.25,0.801
			c-0.033,0.033-0.167,0.05-0.4,0.05s-0.383-0.017-0.45-0.05c-0.367-0.233-0.333-0.45,0.1-0.65
			C41.533,17.617,41.85,17.483,42.25,17.35z"/>
		<path style="fill-rule:evenodd;clip-rule:evenodd;fill:#59534B;" d="M31.95,16.6c-0.567,0.067-1.067,0.018-1.5-0.149V16.35
			c0.2-0.066,0.533-0.083,1-0.05c0.433,0.033,0.75,0.017,0.95-0.05c0.133-0.033,0.333-0.184,0.6-0.45
			c0.233-0.267,0.45-0.433,0.65-0.5l0.05-0.25c0.066-0.167,0.233-0.283,0.5-0.35c0.233-0.034,0.383,0.033,0.45,0.2l-0.2,0.6
			c-0.233,0.4-0.567,0.667-1,0.8C32.55,16.5,32.05,16.6,31.95,16.6z"/>
		<path style="fill-rule:evenodd;clip-rule:evenodd;fill:#A6866D;" d="M47.55,14.65l-0.3,0.25c0.434-0.233,0.917-0.15,1.45,0.25
			c0.5,0.399,0.517,0.8,0.05,1.199c-0.233,0.2-0.733,0.334-1.5,0.4c-0.767,0.033-1.25-0.033-1.45-0.2
			c-0.366-0.3-0.233-0.683,0.4-1.149C46.533,15.167,46.983,14.917,47.55,14.65z"/>
		<path style="fill-rule:evenodd;clip-rule:evenodd;fill:#A6866D;" d="M46.25,14.7c-0.133,0.1-0.3,0.15-0.5,0.15
			s-0.35-0.067-0.45-0.2c-0.167-0.2-0.1-0.383,0.2-0.55c0.267-0.167,0.517-0.217,0.75-0.15c0.267,0.1,0.434,0.3,0.5,0.6
			c0.033,0.333-0.133,0.467-0.5,0.4V14.7z"/>
		<path style="fill-rule:evenodd;clip-rule:evenodd;fill:#A6866D;" d="M40.5,14.8l-0.2,0.1c0.134,0,0.384-0.017,0.75-0.05
			c0.333,0,0.534,0.066,0.6,0.2c0.167,0.3,0,0.55-0.5,0.75c-0.233,0.067-0.583,0.084-1.05,0.05c-0.5-0.033-0.767-0.133-0.8-0.3
			C39.3,15.184,39.7,14.934,40.5,14.8z"/>
		<path style="fill-rule:evenodd;clip-rule:evenodd;fill:#A6866D;" d="M38.075,16L37.8,16.05c0.4-0.267,0.767-0.25,1.1,0.05
			c0.333,0.301,0.25,0.567-0.25,0.801c-0.466,0.233-0.8,0.149-1-0.25C37.503,16.327,37.645,16.11,38.075,16z"/>
		<path style="fill-rule:evenodd;clip-rule:evenodd;fill:#A6866D;" d="M37.25,14.8c0.167-0.066,0.333-0.033,0.5,0.1
			c0.2,0.1,0.2,0.234,0,0.4c-0.1,0.167-0.4,0.184-0.9,0.05C36.787,15.001,36.92,14.817,37.25,14.8z"/>
		<path style="fill-rule:evenodd;clip-rule:evenodd;fill:#A6866D;" d="M52.55,18.05L52.3,18.2c0.3-0.033,0.601,0.017,0.9,0.149
			c0.333,0.167,0.399,0.4,0.2,0.7c-0.134,0.167-0.518,0.233-1.15,0.2c-0.566-0.033-0.983-0.1-1.25-0.2c-0.1-0.333,0.066-0.6,0.5-0.8
			C51.867,18.083,52.217,18.017,52.55,18.05z"/>
		<path style="fill-rule:evenodd;clip-rule:evenodd;fill:#9A8B7C;" d="M43.75,17.7l-0.5,0.2c0.167-0.233,0.684-0.351,1.55-0.351
			c0.867-0.033,1.417,0.05,1.65,0.25c0.267,0.233,0.4,0.55,0.4,0.95c-0.034,0.367-0.2,0.667-0.5,0.9c-0.267,0.199-0.9,0.3-1.9,0.3
			s-1.65-0.101-1.95-0.3c-0.566-0.367-0.6-0.75-0.1-1.15C42.5,18.4,42.95,18.134,43.75,17.7z"/>
		<path style="fill-rule:evenodd;clip-rule:evenodd;fill:#7D7368;" d="M46.4,18.4l-0.1-0.25c0.6-0.067,0.784,0.283,0.55,1.05
			c-0.1,0.333-0.233,0.55-0.4,0.649c-0.1,0.034-0.367,0.051-0.8,0.051c-0.733,0.033-1.316,0.05-1.75,0.05
			c-0.7,0-1.233-0.101-1.6-0.3c0.3-0.167,0.884-0.317,1.75-0.45c0.367-0.101,0.967-0.2,1.8-0.3
			C45.983,18.833,46.167,18.667,46.4,18.4z"/>
	</g>
	<g>
		<path style="fill-rule:evenodd;clip-rule:evenodd;fill:#808043;" d="M59.775,5.15c0.268,0.008,0.626,0.108,1.074,0.3
			c0.533,0.2,0.834,0.4,0.9,0.6c-0.867-0.1-1.483-0.15-1.85-0.15H57.3c-1.467,0-2.283,0.017-2.45,0.05
			c-0.166,0.033-0.767,0.383-1.8,1.05c-0.433,0.233-0.983,0.434-1.649,0.6C50.233,7.867,49.633,8,49.6,8
			c-0.333,0.067-0.75,0.367-1.25,0.9C47.883,9.367,47.434,9.633,47,9.7c0.267-0.133,0.517-0.35,0.75-0.65
			c0.1-0.2,0.283-0.483,0.55-0.85c0.3-0.367,0.634-0.617,1-0.75c0.167-0.067,0.6-0.167,1.3-0.3c0.6-0.133,1.15-0.367,1.65-0.7
			c0.3-0.2,0.783-0.534,1.45-1c0.5-0.333,1.45-0.467,2.85-0.4L60,5.15H59.775z"/>
		<path style="fill-rule:evenodd;clip-rule:evenodd;fill:#7A7A38;" d="M71.75,13.5h0.1v0.05L69.3,18.1L68.1,20.9
			C67.967,21.1,67.9,21.25,67.9,21.35c-0.4,0.934-0.684,1.4-0.851,1.4s-0.25-0.1-0.25-0.3c-0.066-0.101-0.066-0.217,0-0.351
			l0.15-0.699c-0.233,0.699-0.4,1.05-0.5,1.05c-0.167,0-0.25-0.117-0.25-0.351l1.25-4.6c1.1-2.533,1.833-4.017,2.2-4.45l0.199,0.1
			L69.9,13.3L68.6,16.2c-0.699,1.633-1.1,2.816-1.199,3.55l-0.2,0.9c0.366-1.101,0.967-2.334,1.8-3.7
			C70.2,14.817,71.117,13.667,71.75,13.5z"/>
		<path style="fill-rule:evenodd;clip-rule:evenodd;fill:#7A7A38;" d="M25.8,12.15c0.1,0,0.15,0.15,0.15,0.45l-1,2.75
			c-0.6,1.934-0.967,3.301-1.1,4.101V21c0,0.1-0.034,0.15-0.1,0.15L23.6,21.2c-0.2,0-0.333-0.15-0.4-0.45L23.15,21
			c0,0.1-0.033,0.15-0.1,0.15l-0.15,0.1c-0.3,0-0.5-0.15-0.6-0.45C22.167,20.934,22.066,21,22,21c-0.4,0-0.583-0.583-0.55-1.75
			l0.1-1.7c0.1-0.666,0.233-1.267,0.4-1.8c0.267-0.733,0.566-1.316,0.9-1.75h0.05c0.1,0.3,0.05,0.85-0.15,1.65v0.05l0.3-0.75
			c0.4-1.333,0.75-2.083,1.05-2.25V14l-0.85,3.65c-0.133,0.666-0.2,1.233-0.2,1.699c0,0.322,0.025,0.581,0.075,0.775
			c-0.042-0.184-0.033-0.392,0.025-0.625c0-0.566,0.05-1.133,0.15-1.7c0-0.166,0.333-1.149,1-2.95c0.167-1,0.517-1.8,1.05-2.4
			C25.55,12.25,25.7,12.15,25.8,12.15z"/>
		<path style="fill-rule:evenodd;clip-rule:evenodd;fill:#7A7A38;" d="M85.3,15.05C85.1,15.517,85,16.3,85,17.4l-2.85,2.149
			c0.066-0.467,0.017-1.183-0.15-2.149c-0.133-1.067-0.2-1.817-0.2-2.25c0.134-1.667,0.517-3.017,1.15-4.05
			c0.033,0.9,0.033,2.1,0,3.6c0.066,1.2,0.35,2.316,0.85,3.35c0-0.899,0.017-1.55,0.05-1.95c0.033-0.767,0.217-1.383,0.551-1.85
			c0.3-0.433,0.649-0.683,1.05-0.75c0.7-0.133,1.133-0.233,1.3-0.3C85.983,13.934,85.5,14.55,85.3,15.05z"/>
		<path style="fill-rule:evenodd;clip-rule:evenodd;fill:#7A7A38;" d="M81.5,20.05l1.15,0.15c-1.167,0.533-1.9,0.283-2.2-0.75
			c-0.4-1.367-0.817-2.134-1.25-2.3c0.8-0.367,1.483-0.134,2.05,0.699C81.85,18.65,81.934,19.384,81.5,20.05z"/>
		<path style="fill-rule:evenodd;clip-rule:evenodd;fill:#7A7A38;" d="M59.85,7.6c0.9,0.333,1.617,0.967,2.15,1.9
			c0.391,0.703,0.607,1.428,0.65,2.175c0.045-4.332,0.545-7.357,1.5-9.075c0,0.767,0.017,2.5,0.05,5.2
			c0.033,2.167,0.017,3.9-0.05,5.2c-0.467-0.033-0.967,0.017-1.5,0.15c-0.567,0.167-0.967,0.4-1.2,0.7
			c-0.101-0.033-0.15-0.067-0.15-0.1c0.033-0.1,0.033-0.167,0-0.2l0.2-0.5c0-1.333-0.066-2.316-0.2-2.95
			C61.066,9.167,60.583,8.333,59.85,7.6z"/>
		<path style="fill-rule:evenodd;clip-rule:evenodd;fill:#7A7A38;" d="M36.8,4.25c-0.533-1.167-0.9-2-1.1-2.5
			c0.767,0.434,1.417,1.35,1.95,2.75c0.5,1.333,0.667,2.45,0.5,3.35c-0.966,0.133-1.633,0.367-2,0.7H35.8
			c0.134-0.233,0.217-0.583,0.25-1.05c0-0.5-0.083-0.867-0.25-1.1c-0.267-0.367-0.65-0.583-1.15-0.65
			c-0.833-0.066-1.283-0.117-1.35-0.15c2.267-0.4,3.6,0.033,4,1.3C37.4,6.2,37.233,5.317,36.8,4.25z"/>
		<path style="fill-rule:evenodd;clip-rule:evenodd;fill:#878745;" d="M29.65,14.25c0.1-0.733-0.083-1.383-0.55-1.95
			c-0.233-0.267-0.767-0.716-1.6-1.35c0.833-0.034,1.467,0.133,1.9,0.5c0.3,0.233,0.767,0.716,1.4,1.45
			c0.067-0.7,0.017-1.5-0.15-2.4c-0.133-1-0.35-1.8-0.65-2.4c0.667,0.7,1.167,1.6,1.5,2.7c0.367,1.1,0.467,2.134,0.3,3.1
			c-0.333,0.133-0.883,0.2-1.65,0.2L29.65,14.25z"/>
		<path style="fill-rule:evenodd;clip-rule:evenodd;fill:#808043;" d="M78.7,9.65c0.267,0,0.433,0.083,0.5,0.25
			c0.133,0.167,0.133,0.517,0,1.05c-0.033,0.167-0.15,0.367-0.351,0.6c-0.166,0.233-0.283,0.417-0.35,0.55
			c-0.066,0.267-0.05,0.733,0.05,1.4c-0.033,0.567-0.316,0.934-0.85,1.1c-0.267,0.1-0.817,0.167-1.65,0.2
			c-0.3,0.034-0.667,0.184-1.1,0.45c-0.381,0.214-0.606,0.431-0.675,0.65c0.029-0.286,0.121-0.569,0.274-0.851
			c0.2-0.366,0.483-0.616,0.851-0.75c0.133-0.033,0.5-0.066,1.1-0.1c0.434-0.034,0.767-0.167,1-0.4
			c0.267-0.267,0.367-0.616,0.3-1.05c-0.167-0.566-0.183-0.95-0.05-1.15c0.066-0.1,0.2-0.217,0.4-0.35
			c0.133-0.066,0.217-0.217,0.25-0.45v-1l-0.2,0.1C78.233,9.733,78.4,9.65,78.7,9.65z"/>
	</g>
</g>
</svg>
