<?xml version="1.0" encoding="iso-8859-1"?>
<!-- Generator: Adobe Illustrator 15.1.0, SVG Export Plug-In . SVG Version: 6.00 Build 0)  -->
<!DOCTYPE svg PUBLIC "-//W3C//DTD SVG 1.1//EN" "http://www.w3.org/Graphics/SVG/1.1/DTD/svg11.dtd">
<svg version="1.1" id="Layer_1" xmlns="http://www.w3.org/2000/svg" xmlns:xlink="http://www.w3.org/1999/xlink" x="0px" y="0px"
	 width="208.9px" height="26.5px" viewBox="0 0 208.9 26.5" style="enable-background:new 0 0 208.9 26.5;" xml:space="preserve">
<g>
	<path style="fill-rule:evenodd;clip-rule:evenodd;fill:#A39A90;" d="M19.9,5.95c9.9,0.2,18.783,0.433,26.65,0.7
		c1.467,0,6.8-0.55,16-1.65c9.2-1.1,16.767-1.65,22.7-1.65c0.333,0,0.7,0.167,1.1,0.5c0.4,0.333,0.767,0.5,1.1,0.5
		c11.767,0,21.566-0.717,29.399-2.15c3.9-0.733,7.117-1.467,9.65-2.2c0.066,0,0.333,0.05,0.8,0.15c0.434,0.067,0.9,0.083,1.4,0.05
		l0.1,2.65c0.834,0,1.75,0.05,2.75,0.15l32.3-0.45c1.367,0,2.434-0.267,3.2-0.8c0.767-0.567,1.25-0.85,1.45-0.85
		c0.233,0,1.7,0.5,4.4,1.5c2.767,1,4.517,1.533,5.25,1.6c4.533,0.467,9.333,0.633,14.399,0.5c9.233-0.267,13.867-0.4,13.9-0.4
		c0.666,0,1.483,0.15,2.45,0.45V5.6h-1.75L191.9,5.7c-5.733,0-10.25-0.184-13.551-0.55c-3.133-0.4-7.1-0.6-11.899-0.6
		c-0.066-0.133-0.101-0.333-0.101-0.6c0-0.4-0.449-0.567-1.35-0.5c-1.066,0.167-1.767,0.25-2.1,0.25c-2.7,0.533-5.767,1.033-9.2,1.5
		c-6.867,1-12.267,1.45-16.2,1.35l-4-0.05c-0.533,0-2.85,0.25-6.95,0.75C122.583,7.75,120.566,8,120.5,8
		c-8.634-0.567-13.283-0.85-13.95-0.85c-1.733,0-3.167,0.317-4.3,0.95c-1.167,0.633-2.233,0.95-3.2,0.95
		C82.783,9.383,72.35,9.1,67.75,8.2l0.7-1.6c0.066-0.233-0.233-0.35-0.9-0.35C65.717,6.417,63.667,6.6,61.4,6.8
		c-4.467,0.333-9.333,0.5-14.6,0.5C34.833,6.933,24.15,6.667,14.75,6.5L19.9,5.95z M124.9,10.8c-0.134,0-0.267,0-0.4,0l-0.35,0.3
		c0.933,0.4,2.017,0.566,3.25,0.5c-0.367,1.667-1.351,2.5-2.95,2.5c-4.033-0.167-6.75-0.25-8.15-0.25l-0.149-0.05
		c2.466,0,3.933-0.5,4.399-1.5l0.101-0.2c-1.067-0.3-1.934-0.55-2.601-0.75c-1.166-0.367-1.883-0.667-2.149-0.9
		c-0.034-0.133-0.034-0.267,0-0.4c0.033-0.2,0.267-0.3,0.699-0.3c1.867,0,3.7,0.2,5.5,0.6C123.233,10.583,124.167,10.733,124.9,10.8
		z M108.5,13.5c0.2,0.433-0.3,0.7-1.5,0.8l-0.8-0.149c0.133-0.101,0.883-0.333,2.25-0.7C108.45,13.483,108.467,13.5,108.5,13.5z
		 M196.35,8.45l3,0.95c-0.1,0.1-0.483,0.15-1.149,0.15c-0.367,0-0.7-0.05-1-0.15L196.5,9c-0.1-0.1-0.2-0.233-0.3-0.4
		c-0.066-0.067-0.117-0.15-0.15-0.25L196.35,8.45z M183.75,11.4l-6.25,0.25c-1.267,0-2.833-0.15-4.7-0.45l-1.2-0.35
		c0.101,0,1.4-0.05,3.9-0.15c2.033-0.1,3.667-0.2,4.9-0.3l4.199,0.05c1.367,0,2.284-0.15,2.75-0.45c1.534-1,3.017-1.833,4.45-2.5
		l2,0.85c-0.333,0.333-1.434,0.85-3.3,1.55c-1.733,0.7-2.783,1.067-3.15,1.1L183.75,11.4z M195.65,13.75v0.425V14.3
		c-0.434,0.066-1.034,0.05-1.801-0.05c-0.8-0.134-1.35-0.267-1.649-0.4l0.5-0.2C193.3,13.617,194.283,13.65,195.65,13.75z
		 M173.85,9.4c-2.466-0.033-4.883-0.15-7.25-0.35l7.25,0.3V9.4z M145.45,10.45c-0.634,0.3-2.033,0.566-4.2,0.8
		c-2.434,0.2-3.833,0.05-4.2-0.45c0.167-0.267,0.566-0.45,1.2-0.55c1.066-0.2,3.167-0.367,6.3-0.5L145.45,10.45z M110.45,18.2
		c0.366-0.4,0.816-0.667,1.35-0.8c1.667-0.4,4.483,0.267,8.45,2c-1.066,0.066-2.45,0.1-4.15,0.1c-2.1,0-3.816-0.083-5.149-0.25
		l-1.15-0.3C109.934,18.85,110.15,18.6,110.45,18.2z M86.6,14.55c1.467-1.3,4.717-2.1,9.75-2.4v2.4c-1.033,0.233-2.367,0.45-4,0.65
		c-1.533,0.2-2.567,0.3-3.1,0.3c-0.5,0-1.033-0.1-1.6-0.3C87.083,15,86.733,14.783,86.6,14.55z M66,12.6
		c0.3-0.3,0.983-0.45,2.05-0.45c-0.066,0.467-0.533,0.7-1.4,0.7L66,12.6z M53.85,16l-12.3-0.45l-1.15-0.2
		c0.267-0.033,2.05-0.133,5.35-0.3c3.3-0.399,5.217-1.25,5.75-2.55l7.35,2.4c-0.434,0.333-1.184,0.6-2.25,0.8
		C55.667,15.9,54.75,16,53.85,16z M31.75,11.8c0-0.1-0.333-0.216-1-0.35l-0.8-0.35c2.867-0.3,7.966-0.533,15.3-0.7
		c-5.533,0.833-8.55,1.267-9.05,1.3C35.333,11.7,33.85,11.733,31.75,11.8z"/>
	<path style="fill-rule:evenodd;clip-rule:evenodd;fill:#C3B9AC;" d="M2,9.2l1.4-0.15c1.733,0,4.434,0.267,8.1,0.8
		c4.033,0.6,7.3,0.95,9.8,1.05c-0.133-0.233-0.25-0.517-0.35-0.85l8.85,1.75c-2.533,0.167-4.55,0.184-6.05,0.05l-0.8-0.15
		c0.066,0.033,0.5,0.667,1.3,1.9c0.467,0.667,1.433,1.016,2.9,1.05c1.867,0,3.017,0.05,3.45,0.149c0.833,0.167,1.517,0.667,2.05,1.5
		c0.833,1.2,2.283,2.3,4.35,3.3c3.633,1.7,8.333,2.551,14.1,2.551c2.633,0,5.017-0.301,7.15-0.9c2.1-0.6,4.733-0.9,7.9-0.9
		c0.767,0,5.317,0.084,13.65,0.25c9.233,0.2,16.05,0.367,20.45,0.5c1.467,0.034,3.2,0.667,5.2,1.9c1.967,1.233,3.967,1.85,6,1.85
		c1.767,0,4.133-0.633,7.1-1.899c1.8-0.767,4.884-2.15,9.25-4.15c9.367-4.066,18.684-6.1,27.95-6.1c1.167,0,1.967,0.183,2.4,0.55
		c0.133,0.1,0.399,0.567,0.8,1.4c0.8,1.566,3.083,2.733,6.85,3.5c2.667,0.533,9.233,0.649,19.7,0.35c6,0,10.083-0.733,12.25-2.2
		c1.333-0.899,4.467-4.466,9.4-10.7h1.75c-0.2,0.667-0.417,1.1-0.65,1.3c-0.7,0.667-1.833,2.067-3.4,4.2
		c-0.1,0.167-0.316,1.133-0.649,2.9c-0.467,1.767-1.184,2.8-2.15,3.1c-2.066,0.634-4.633,1.301-7.7,2c-4.5,1-7.916,1.5-10.25,1.5
		c-4,0-7.283-0.183-9.85-0.55c-3.467-0.467-6.283-0.767-8.45-0.899c-3.033-0.2-5.483-1.15-7.35-2.851c-1.767-1.6-4-2.4-6.7-2.4
		c-6.366,0-13.85,2.1-22.45,6.3c-4.434,2.166-7.684,3.616-9.75,4.35c-3.7,1.3-7.35,1.95-10.95,1.95c-1.767,0-3.55-0.85-5.35-2.55
		c-1.833-1.733-3.833-2.601-6-2.601c-1.567,0-5.017,0.317-10.35,0.95c-5.033,0.634-7.583,0.95-7.65,0.95
		c-8.667-0.634-13.333-0.95-14-0.95c-2.2,0-4.583,0.517-7.15,1.55c-2.533,1-4.617,1.5-6.25,1.5c-3.167,0-6.85-0.5-11.05-1.5
		c-4.066-1-7.017-2.066-8.85-3.199c-0.9-0.567-1.517-1.284-1.85-2.15c-0.2-0.9-0.383-1.533-0.55-1.9
		c-0.167-0.333-0.733-0.566-1.7-0.699c-1.233-0.134-2.2-0.417-2.9-0.851c-0.534-0.333-1.517-1.133-2.95-2.4
		c-0.767-0.667-1.867-1.15-3.3-1.45c-0.534-0.1-2.467-0.333-5.8-0.7c-3.467-0.367-5.917-0.6-7.35-0.7l-2.2-0.25L2,9.2z M196.2,8.6
		c-2.367,2.833-5.95,4.25-10.75,4.25l-4.95-0.15c0-0.067-0.45-0.15-1.35-0.25c0.5-0.167,1.267-0.367,2.3-0.6
		c1.033-0.267,1.8-0.417,2.3-0.45l3.6-0.4c1.801,0.133,3.884-0.383,6.25-1.55c2.2-1.133,3.617-2.3,4.25-3.5
		c-0.433,0.933-0.933,1.767-1.5,2.5l-0.3-0.1C196.083,8.45,196.134,8.533,196.2,8.6z M199.6,8.95c-0.699,0-1.149-0.083-1.35-0.25
		h3.3C200.917,8.867,200.267,8.95,199.6,8.95z M195.65,13.75c0-0.367,0.316-0.417,0.949-0.15c0.634,0.333,0.967,0.617,1,0.85
		c-0.1,0.267-0.233,0.5-0.399,0.7l-0.851,0.3c-0.166-0.101-0.333-0.434-0.5-1c-0.128-0.418-0.194-0.509-0.199-0.275V13.75z
		 M173.85,9.35c0.367-0.533,0.65-0.867,0.851-1c0.633-0.467,1.616-0.7,2.95-0.7c0.466,0,0.816,0.3,1.05,0.9
		c0.2,0.6,0.149,0.934-0.15,1l-3.25,0.2c-0.5-0.067-0.983-0.183-1.45-0.35V9.35z M179.45,6.7l5.2,0.25
		c-0.867,0.033-1.917,0.017-3.15-0.05C180.134,6.867,179.45,6.8,179.45,6.7z M124.9,10.8c0.267-0.033,0.566-0.033,0.899,0l3.65,0.3
		c-0.367,0.2-1.05,0.367-2.05,0.5c-1.233,0.066-2.317-0.1-3.25-0.5l0.35-0.3C124.634,10.8,124.767,10.8,124.9,10.8z M133.5,6.5
		l4,0.05l4.45,0.4c-2.334,0.233-4.334,0.35-6,0.35C134.684,7.3,133.866,7.033,133.5,6.5z M153.05,9.65L152.8,9.4
		c0.7-0.5,1.783-0.933,3.25-1.3c1.167-0.3,1.983-0.45,2.45-0.45c0.667,0,3,0.8,7,2.4c-1.467,0.233-2.983,0.35-4.55,0.35
		c-0.9,0-2.117-0.05-3.65-0.15C155.233,10.083,153.816,9.883,153.05,9.65z M108.5,13.5c-0.033,0-0.05-0.017-0.05-0.05
		c-2.233-1.067-1.983-1.9,0.75-2.5c2.8-0.6,4.399-0.9,4.8-0.9c0.667,0,1.283,0.817,1.85,2.45c-0.566,0.933-1.899,1.367-4,1.3
		C109.783,13.767,108.667,13.667,108.5,13.5z M81.15,12.95c-1,0-2.066-0.05-3.2-0.15c0-0.1-0.25-0.233-0.75-0.4
		c0.333-0.1,0.583-0.3,0.75-0.6c0.133-0.233,0.483-0.4,1.05-0.5c1.7-0.3,7.117-0.367,16.25-0.2
		C93.517,12.333,88.817,12.95,81.15,12.95z M61.55,11.1c2.067,0,3.133-0.1,3.2-0.3l-0.05,0.3c-0.2,0.3-0.434,0.55-0.7,0.75
		c-0.5,0.4-1.1,0.566-1.8,0.5c-0.467,0.066-0.767,0.1-0.9,0.1c-0.133-0.034-0.2-0.25-0.2-0.65c0-0.4,0.05-0.617,0.15-0.65
		c0.031-0.031,0.106-0.048,0.225-0.05H61.55z M79.45,15.25c0.667,0,1.4,0.233,2.2,0.7l-2.3,0.1l-0.85-0.2l-0.3-0.25l0.25-0.149
		C78.717,15.316,79.05,15.25,79.45,15.25z M52.675,10c0.378-0.005,0.403-0.172,0.075-0.5c0.367-0.233,2.65-0.05,6.85,0.55L52.675,10
		z M35.65,7.65c-3.433,1.033-5.45,1.533-6.05,1.5c-0.333-0.233-1.033-0.316-2.1-0.25l-1.25-0.35c0.567-0.2,1.333-0.4,2.3-0.6
		c1.067-0.233,1.833-0.35,2.3-0.35L35.65,7.65z M34.35,13.7c-1.867-0.3-2.9-0.817-3.1-1.55l8.1,2.05
		C36.55,13.967,34.883,13.8,34.35,13.7z M11.05,8.7c-0.066,0.033-0.433,0.05-1.1,0.05c-0.833,0-1.517-0.117-2.05-0.35L7.6,8
		c1.333-0.267,3.45-0.383,6.35-0.35L11.05,8.7z"/>
	<path style="fill-rule:evenodd;clip-rule:evenodd;fill:#B3AA9E;" d="M173.85,9.4c0.467,0.167,0.95,0.283,1.45,0.35
		c-2.066,0.2-4.017,0.3-5.85,0.3l10.95,0.35c-1.233,0.1-2.867,0.2-4.9,0.3c-2.5,0.1-3.8,0.15-3.9,0.15l1.2,0.35
		c1.867,0.3,3.434,0.45,4.7,0.45l6.25-0.25c-0.5,0.033-1.267,0.184-2.3,0.45c-1.033,0.233-1.8,0.433-2.3,0.6
		c0.899,0.1,1.35,0.183,1.35,0.25l4.95,0.15c4.8,0,8.383-1.417,10.75-4.25c0.1,0.167,0.2,0.3,0.3,0.4l0.7,0.4
		c0.3,0.1,0.633,0.15,1,0.15c0.666,0,1.05-0.05,1.149-0.15l-3-0.95c0.567-0.733,1.067-1.567,1.5-2.5c-0.633,1.2-2.05,2.367-4.25,3.5
		c-2.366,1.167-4.449,1.683-6.25,1.55c0.367-0.033,1.417-0.4,3.15-1.1c1.866-0.7,2.967-1.217,3.3-1.55l-2-0.85l0.55-0.55
		c-2.033-0.2-3.383-0.3-4.05-0.3c-0.033,0-0.717,0.434-2.05,1.3c-1.434,0.9-4,1.433-7.7,1.6c0.3-0.066,0.351-0.4,0.15-1
		c-0.233-0.6-0.584-0.9-1.05-0.9c-1.334,0-2.317,0.233-2.95,0.7c-0.2,0.133-0.483,0.467-0.851,1l-7.25-0.3
		C168.967,9.25,171.384,9.367,173.85,9.4z M19.9,5.95L14.75,6.5c9.4,0.167,20.083,0.433,32.05,0.8c5.267,0,10.133-0.167,14.6-0.5
		c2.267-0.2,4.317-0.383,6.15-0.55c0.667,0,0.967,0.117,0.9,0.35l-0.7,1.6c4.6,0.9,15.033,1.183,31.3,0.85
		c0.967,0,2.034-0.316,3.2-0.95c1.133-0.633,2.566-0.95,4.3-0.95c0.667,0,5.316,0.283,13.95,0.85c0.066,0,2.083-0.25,6.05-0.75
		c4.101-0.5,6.417-0.75,6.95-0.75c0.366,0.533,1.184,0.8,2.45,0.8c1.666,0,3.666-0.117,6-0.35l-4.45-0.4
		c3.934,0.1,9.333-0.35,16.2-1.35c3.434-0.467,6.5-0.967,9.2-1.5c0.333,0,1.033-0.083,2.1-0.25c0.9-0.067,1.35,0.1,1.35,0.5
		c0,0.267,0.034,0.466,0.101,0.6c4.8,0,8.767,0.2,11.899,0.6c3.301,0.367,7.817,0.55,13.551,0.55l15.25-0.1
		c-4.934,6.233-8.067,9.8-9.4,10.7c-2.167,1.467-6.25,2.2-12.25,2.2c-10.467,0.3-17.033,0.184-19.7-0.35
		c-3.767-0.767-6.05-1.934-6.85-3.5c-0.4-0.833-0.667-1.3-0.8-1.4c-0.434-0.367-1.233-0.55-2.4-0.55
		c-9.267,0-18.583,2.033-27.95,6.1c-4.366,2-7.45,3.384-9.25,4.15c-2.967,1.267-5.333,1.899-7.1,1.899c-2.033,0-4.033-0.616-6-1.85
		c-2-1.233-3.733-1.866-5.2-1.9c-4.4-0.133-11.217-0.3-20.45-0.5c-8.333-0.166-12.883-0.25-13.65-0.25c-3.167,0-5.8,0.301-7.9,0.9
		c-2.133,0.6-4.517,0.9-7.15,0.9c-5.767,0-10.467-0.851-14.1-2.551c-2.067-1-3.517-2.1-4.35-3.3c-0.533-0.833-1.217-1.333-2.05-1.5
		c-0.434-0.1-1.583-0.149-3.45-0.149c-1.467-0.034-2.433-0.384-2.9-1.05c-0.8-1.233-1.233-1.867-1.3-1.9l0.8,0.15
		c1.5,0.133,3.517,0.117,6.05-0.05l-8.85-1.75c0.1,0.333,0.216,0.617,0.35,0.85c-2.5-0.1-5.767-0.45-9.8-1.05
		c-3.667-0.533-6.367-0.8-8.1-0.8L2,9.2L0.9,8.8L0,8.25C4.067,7.117,6.217,6.567,6.45,6.6C9.017,6.733,13.5,6.517,19.9,5.95z
		 M199.6,8.95c0.667,0,1.317-0.083,1.95-0.25h-3.3C198.45,8.867,198.9,8.95,199.6,8.95z M195.65,14.175
		c0.005-0.234,0.071-0.143,0.199,0.275c0.167,0.566,0.334,0.899,0.5,1l0.851-0.3c0.166-0.2,0.3-0.434,0.399-0.7
		c-0.033-0.233-0.366-0.517-1-0.85c-0.633-0.267-0.949-0.217-0.949,0.15c-1.367-0.1-2.351-0.133-2.95-0.1l-0.5,0.2
		c0.3,0.133,0.85,0.266,1.649,0.4c0.767,0.1,1.367,0.116,1.801,0.05V14.175z M179.45,6.7c0,0.1,0.684,0.167,2.05,0.2
		c1.233,0.067,2.283,0.083,3.15,0.05L179.45,6.7z M153.05,9.65c0.767,0.233,2.184,0.434,4.25,0.6c1.533,0.1,2.75,0.15,3.65,0.15
		c1.566,0,3.083-0.117,4.55-0.35c-4-1.6-6.333-2.4-7-2.4c-0.467,0-1.283,0.15-2.45,0.45c-1.467,0.367-2.55,0.8-3.25,1.3L153.05,9.65
		z M145.45,10.45l-0.9-0.7c-3.133,0.133-5.233,0.3-6.3,0.5c-0.634,0.1-1.033,0.283-1.2,0.55c0.367,0.5,1.767,0.65,4.2,0.45
		C143.417,11.017,144.816,10.75,145.45,10.45z M108.5,13.5c0.167,0.167,1.283,0.267,3.35,0.3c2.101,0.067,3.434-0.367,4-1.3
		c-0.566-1.633-1.183-2.45-1.85-2.45c-0.4,0-2,0.3-4.8,0.9c-2.733,0.6-2.983,1.433-0.75,2.5c-1.367,0.367-2.117,0.6-2.25,0.7
		L107,14.3C108.2,14.2,108.7,13.933,108.5,13.5z M124.9,10.8c-0.733-0.066-1.667-0.216-2.801-0.45c-1.8-0.4-3.633-0.6-5.5-0.6
		c-0.433,0-0.666,0.1-0.699,0.3c-0.034,0.133-0.034,0.267,0,0.4c0.267,0.233,0.983,0.533,2.149,0.9c0.667,0.2,1.533,0.45,2.601,0.75
		l-0.101,0.2c-0.467,1-1.934,1.5-4.399,1.5l0.149,0.05c1.4,0,4.117,0.083,8.15,0.25c1.6,0,2.583-0.833,2.95-2.5
		c1-0.133,1.683-0.3,2.05-0.5l-3.65-0.3C125.467,10.767,125.167,10.767,124.9,10.8z M110.45,18.2c-0.3,0.399-0.517,0.649-0.65,0.75
		l1.15,0.3c1.333,0.167,3.05,0.25,5.149,0.25c1.7,0,3.084-0.033,4.15-0.1c-3.967-1.733-6.783-2.4-8.45-2
		C111.267,17.533,110.816,17.8,110.45,18.2z M86.6,14.55c0.133,0.233,0.483,0.45,1.05,0.65c0.567,0.2,1.1,0.3,1.6,0.3
		c0.533,0,1.567-0.1,3.1-0.3c1.633-0.2,2.967-0.417,4-0.65v-2.4C91.317,12.45,88.067,13.25,86.6,14.55z M81.15,12.95
		c7.667,0,12.367-0.617,14.1-1.85C86.117,10.933,80.7,11,79,11.3c-0.567,0.1-0.917,0.267-1.05,0.5c-0.167,0.3-0.417,0.5-0.75,0.6
		c0.5,0.167,0.75,0.3,0.75,0.4C79.083,12.9,80.15,12.95,81.15,12.95z M61.475,11.1H58.45H61.475
		c-0.119,0.002-0.194,0.019-0.225,0.05c-0.1,0.033-0.15,0.25-0.15,0.65c0,0.4,0.066,0.617,0.2,0.65c0.133,0,0.434-0.034,0.9-0.1
		c0.7,0.066,1.3-0.1,1.8-0.5c0.267-0.2,0.5-0.45,0.7-0.75l0.05-0.3c-0.067,0.2-1.133,0.3-3.2,0.3H61.475z M64.7,11.1h3.7H64.7z
		 M66,12.6l0.65,0.25c0.867,0,1.333-0.233,1.4-0.7C66.983,12.15,66.3,12.3,66,12.6z M52.675,10l6.925,0.05
		c-4.2-0.6-6.483-0.783-6.85-0.55C53.078,9.828,53.053,9.995,52.675,10z M79.45,15.25c-0.4,0-0.733,0.066-1,0.2L78.2,15.6l0.3,0.25
		l0.85,0.2l2.3-0.1C80.85,15.483,80.117,15.25,79.45,15.25z M53.85,16c0.9,0,1.816-0.1,2.75-0.3c1.066-0.2,1.816-0.467,2.25-0.8
		l-7.35-2.4c-0.533,1.3-2.45,2.15-5.75,2.55c-3.3,0.167-5.083,0.267-5.35,0.3l1.15,0.2L53.85,16z M31.75,11.8
		c2.1-0.066,3.583-0.1,4.45-0.1c0.5-0.034,3.517-0.467,9.05-1.3c-7.333,0.167-12.433,0.4-15.3,0.7l0.8,0.35
		C31.417,11.583,31.75,11.7,31.75,11.8z M11.05,8.7l2.9-1.05C11.05,7.617,8.933,7.733,7.6,8l0.3,0.4
		c0.533,0.233,1.217,0.35,2.05,0.35C10.617,8.75,10.983,8.733,11.05,8.7z M34.35,13.7c0.533,0.1,2.2,0.267,5,0.5l-8.1-2.05
		C31.45,12.883,32.483,13.4,34.35,13.7z M35.65,7.65l-4.8-0.05c-0.467,0-1.233,0.117-2.3,0.35c-0.966,0.2-1.733,0.4-2.3,0.6
		L27.5,8.9c1.067-0.066,1.767,0.017,2.1,0.25C30.2,9.183,32.217,8.683,35.65,7.65z"/>
	<path style="fill-rule:evenodd;clip-rule:evenodd;fill:#8C847C;" d="M180.4,10.4l-10.95-0.35c1.833,0,3.783-0.1,5.85-0.3l3.25-0.2
		c3.7-0.167,6.267-0.7,7.7-1.6c1.333-0.867,2.017-1.3,2.05-1.3c0.667,0,2.017,0.1,4.05,0.3L191.8,7.5
		c-1.434,0.667-2.916,1.5-4.45,2.5c-0.466,0.3-1.383,0.45-2.75,0.45L180.4,10.4z"/>
	
		<path style="fill-rule:evenodd;clip-rule:evenodd;fill:none;stroke:#A39A90;stroke-width:0.1;stroke-linecap:round;stroke-linejoin:round;stroke-miterlimit:3;" d="
		M61.55,11.1h-0.075H58.45 M64.7,11.1h3.7"/>
</g>
</svg>
