<?xml version="1.0" encoding="iso-8859-1"?>
<!-- Generator: Adobe Illustrator 15.1.0, SVG Export Plug-In . SVG Version: 6.00 Build 0)  -->
<!DOCTYPE svg PUBLIC "-//W3C//DTD SVG 1.1//EN" "http://www.w3.org/Graphics/SVG/1.1/DTD/svg11.dtd">
<svg version="1.1" id="Layer_1" xmlns="http://www.w3.org/2000/svg" xmlns:xlink="http://www.w3.org/1999/xlink" x="0px" y="0px"
	 width="286.75px" height="156.05px" viewBox="0 0 286.75 156.05" style="enable-background:new 0 0 286.75 156.05;"
	 xml:space="preserve">
<g>
	<path style="fill-rule:evenodd;clip-rule:evenodd;fill:#CED1D6;" d="M265.5,81.7c0.134,0.6,0.35,1.833,0.65,3.7
		c-0.233,0.033-0.483,0.166-0.75,0.399c-0.434-0.666-0.784-1.3-1.051-1.899c-0.366,0.233-0.8,0.916-1.3,2.05
		c-0.467,1.166-1.05,1.95-1.75,2.35c-0.833,0.467-1.816,0.55-2.95,0.25c-1.3-0.434-2.3-0.717-3-0.85
		c-0.199-0.033-0.517-0.05-0.949-0.05c-0.067,2.333-0.067,3.933,0,4.8c0.133,1.733,0.517,3.25,1.149,4.55
		c0.9,1.833,1.45,3.1,1.65,3.8c0.5,1.533,0.55,2.917,0.149,4.15c-0.399,1.3-1.366,2.083-2.899,2.35c-1.367,0.233-2.667,0-3.9-0.7
		c-0.967-0.533-1.899-1.517-2.8-2.949c-0.9-1.733-1.55-2.967-1.95-3.7c-1.066-1.834-1.85-3.233-2.35-4.2c-0.9-1.7-1.45-3.2-1.65-4.5
		c-0.233-1.366-0.2-3.283,0.101-5.75c0.333-2.634,0.433-4.55,0.3-5.75c-0.101-1.4-0.217-2.517-0.351-3.35
		c-0.267-1.5-0.733-2.517-1.399-3.05c-0.967-0.8-2.733-1.317-5.3-1.55c-3.134-0.333-5.051-0.617-5.75-0.85
		c-1.801-0.667-3.684-1.784-5.65-3.35c-2.233-1.934-3.934-3.383-5.1-4.35c-2.233-2.2-4.084-3.967-5.551-5.3
		c-2.733-2.534-4.816-3.9-6.25-4.1c-0.433,0.667-1.35,1.417-2.75,2.25c-1.666,1-2.699,1.7-3.1,2.1c-1.033,1.033-1.8,1.9-2.3,2.6
		c-0.634,1-1.05,2.067-1.25,3.2c-0.101,0.533-0.15,2.1-0.15,4.7c0,1.9-0.316,3.417-0.95,4.55c-0.899,1.6-2.033,3.133-3.399,4.6
		c-1.634,1.7-3.084,2.683-4.351,2.95c-1.899,0.4-4.466,0.55-7.699,0.45c-1.634-0.066-4.217-0.25-7.75-0.55
		c-0.067-0.733-0.067-2.167,0-4.3c0.533-0.5,1.333-1.417,2.399-2.75c1.033-1.367,1.7-2.4,2-3.1c0.467-1.033,0.717-2.233,0.75-3.6
		c-0.166-2.833-0.283-5.017-0.35-6.55c-0.101-2.733,0.2-4.8,0.899-6.2h-1.699c0-1.133,0-1.717,0-1.75
		c0.1-0.833,0.466-1.417,1.1-1.75c0.366-0.233,1.15-0.417,2.35-0.55c1.034-0.133,1.851-0.467,2.45-1
		c1.467-1.333,2.684-3.717,3.65-7.15c1.233-4.333,2.083-6.95,2.55-7.85c0.866-1.667,2.017-2.933,3.45-3.8
		c1.666-1,3.267-1.167,4.8-0.5c1.967,1.967,3.934,3.7,5.9,5.2c2.233,1.767,4.033,3.267,5.399,4.5c1,0.733,1.667,1.15,2,1.25
		c0.3,0.067,1.15,0.117,2.55,0.15h10.601c0.267,0.233,0.533,0.45,0.8,0.65l0.25,0.2c0.134,0.067,0.25,0.15,0.35,0.25l1.2,0.85
		c0.8,0.567,3.4,2.15,7.8,4.75c3.167,1.867,5.601,3.633,7.301,5.3c1.199,1.167,2.466,2.7,3.8,4.6c1.866,2.733,3,4.35,3.399,4.85
		c0.667,0.833,3.534,3.1,8.601,6.8c4.066,2.966,6.233,5.566,6.5,7.8l-0.351-0.05l0.15,0.25c0.6,0.933,1.083,1.983,1.45,3.149
		l0.149,0.7c0.034,0.066,0.051,0.134,0.051,0.2C265.434,81.316,265.467,81.467,265.5,81.7z M165.4,74.3
		c-0.834,0.534-1.551,0.917-2.15,1.15c0.2-0.3,0.066-0.667-0.4-1.1C163.85,74.417,164.7,74.4,165.4,74.3z M13.75,111.75
		c-1.533-1.967-2.867-3.4-4-4.3c-0.4-0.367-0.933-0.767-1.6-1.2L8.1,106.1c1.8,0,2.816-0.017,3.05-0.05
		c1.1-0.133,1.967-0.533,2.6-1.2c0.667-0.666,1.233-1.75,1.7-3.25c0.367-1.199,0.617-2.416,0.75-3.649
		c0.2-1.767,0.017-4.334-0.55-7.7c-0.6-3.366-0.783-5.934-0.55-7.7c2.433-0.267,4.933-0.017,7.5,0.75c2,0.601,4.333,1.617,7,3.05
		c2.333,1.267,4.45,3.051,6.35,5.351c1.633,1.967,3.75,3.399,6.35,4.3c1.867,0.634,4.45,1.083,7.75,1.35c5.7,0.5,10.617,0.5,14.75,0
		c1.233-0.133,2.867-0.716,4.9-1.75c2-1,3.633-1.55,4.9-1.649c1.9-0.134,4.733-0.134,8.5,0c3.833,0.133,6.667,0.149,8.5,0.05
		c1.033-0.066,3.066-0.366,6.1-0.9c2.566-0.466,4.55-0.649,5.95-0.55c-0.566,1.167-1.233,2.134-2,2.9
		c-0.6,0.566-1.566,1.267-2.9,2.1c-1.067,0.7-3.533,2.483-7.4,5.351c-3,2.199-5.567,3.866-7.7,5c-1.733,0.933-2.783,1.633-3.15,2.1
		c-0.533,0.634-0.817,1.783-0.85,3.45c0,0.967,0.1,2.35,0.3,4.149c0.2,1.867,0.3,3.233,0.3,4.101c0,1.833-1.383,3.383-4.15,4.649
		c-1.533,0.7-3.75,1.65-6.65,2.851c-2.133,1.399-4.833,2.233-8.1,2.5c-1.9,0.133-4.833,0.066-8.8-0.2c-2.966-0.233-5.6-0.5-7.9-0.8
		c5.767-0.601,10.017-1.167,12.75-1.7c4.867-0.934,8.25-2.934,10.15-6c0.5-0.767,1.1-2.434,1.8-5c0.5-1.833,1.467-3.25,2.9-4.25
		c2.433-1.667,4.233-3.2,5.4-4.6c1.867-2.233,2.533-4.417,2-6.551c-2.467-0.666-5.717-0.866-9.75-0.6
		c-2.233,0.134-5.517,0.35-9.85,0.65c-1.667,0.033-3.583-0.101-5.75-0.4c-1.167-0.134-3.066-0.434-5.7-0.9
		c-2.167-0.366-4.184-1.216-6.05-2.55c-2.1-1.8-3.75-3.2-4.95-4.2c0.367,1.367,1.05,3,2.05,4.9c1,1.934,1.967,3.434,2.9,4.5
		c0.833,0.9,2.467,1.833,4.9,2.8c2.367,0.867,3.9,1.783,4.6,2.75c0.833,1.066,1.034,2.55,0.6,4.45
		c-0.333,1.634-0.95,3.017-1.85,4.15c-1.8,2.166-4.066,3.733-6.8,4.699c-6.233,2.2-11.7,0.417-16.4-5.35
		c-0.833-1.033-1.417-1.816-1.75-2.35c-0.367-0.667-0.75-1.567-1.15-2.7c-0.067-0.167-0.284-1.15-0.65-2.95
		c-0.3-1.3-0.65-2.184-1.05-2.65c-0.933,0.867-2.4,1.75-4.4,2.65C15.8,110.767,14.183,111.517,13.75,111.75z"/>
	<path style="fill-rule:evenodd;clip-rule:evenodd;fill:#ABB5C0;" d="M180.8,155.65c-1.467-0.233-3.184-0.684-5.149-1.351
		c-1.067-0.3-2.601-0.8-4.601-1.5c-0.066-0.033-0.116-0.05-0.149-0.05c-0.101-0.033-0.2-0.066-0.301-0.1
		c2.101-0.067,3.717-0.334,4.851-0.801c2.566-1.033,4.6-3.583,6.1-7.649c1.367-3.767,1.783-7.066,1.25-9.9
		c-6.066,2.5-10.033,4.066-11.899,4.7c-0.2,0.066-0.867,0.267-2,0.6l0.899-0.399c1.867-0.967,4.667-2.483,8.4-4.55
		c2.7-1.301,4.833-2.417,6.399-3.351c2.9-1.767,4.567-3.5,5-5.2c0.067-0.233,0.101-0.716,0.101-1.449
		c0.033-0.7,0.116-1.25,0.25-1.65c0.6-1.7,0.95-3.1,1.05-4.2c0.1-0.967,0.083-2.133-0.05-3.5c-0.101-1.233-0.55-2.283-1.351-3.149
		c-1.066-1-1.899-1.9-2.5-2.7c-1.399-1.834-2.216-4.084-2.449-6.75c0-3.233,0-5.75,0-7.55c0.1-1.301,0.149-2.334,0.149-3.101
		c0.033-1.366-0.166-2.3-0.6-2.8c-0.566-0.7-1.566-1.083-3-1.15c-0.8,0-1.934,0.051-3.4,0.15c-4.6,0-7.066-0.017-7.399-0.05
		c-2.767-0.134-5.15-0.65-7.15-1.55c-1.033-0.467-2.866-1.134-5.5-2c-2.333-0.834-4-1.75-5-2.75c-0.866-0.867-1.616-1.45-2.25-1.75
		c-0.467-0.2-1.4-0.534-2.8-1c-0.867-0.3-1.5-0.7-1.9-1.2c-0.333-0.367-0.583-0.883-0.75-1.55c-0.533-1.533-0.833-2.35-0.899-2.45
		L144.2,74c1.333,1.467,2.816,2.667,4.45,3.6l0.899,0.95c1.033,1.066,1.967,1.717,2.8,1.95c0.534,0.167,1.667,0.25,3.4,0.25
		c3.8,0.1,6.616,0.05,8.45-0.15c3.5-0.366,6.483-1.766,8.95-4.2c-0.067,2.133-0.067,3.567,0,4.3c3.533,0.3,6.116,0.483,7.75,0.55
		c3.233,0.1,5.8-0.05,7.699-0.45c1.267-0.267,2.717-1.25,4.351-2.95c1.366-1.467,2.5-3,3.399-4.6c0.634-1.133,0.95-2.65,0.95-4.55
		c0-2.6,0.05-4.167,0.15-4.7c0.2-1.133,0.616-2.2,1.25-3.2c0.5-0.7,1.267-1.566,2.3-2.6c0.4-0.4,1.434-1.1,3.1-2.1
		c1.4-0.833,2.317-1.583,2.75-2.25c1.434,0.2,3.517,1.566,6.25,4.1c1.467,1.333,3.317,3.1,5.551,5.3
		c1.166,0.967,2.866,2.417,5.1,4.35c1.967,1.566,3.85,2.683,5.65,3.35c0.699,0.233,2.616,0.517,5.75,0.85
		c2.566,0.233,4.333,0.75,5.3,1.55c0.666,0.533,1.133,1.55,1.399,3.05c0.134,0.833,0.25,1.95,0.351,3.35
		c0.133,1.2,0.033,3.116-0.3,5.75c-0.301,2.467-0.334,4.384-0.101,5.75c0.2,1.3,0.75,2.8,1.65,4.5c0.5,0.967,1.283,2.366,2.35,4.2
		c0.4,0.733,1.05,1.967,1.95,3.7c0.9,1.433,1.833,2.416,2.8,2.949c1.233,0.7,2.533,0.934,3.9,0.7c1.533-0.267,2.5-1.05,2.899-2.35
		c0.4-1.233,0.351-2.617-0.149-4.15c-0.2-0.7-0.75-1.967-1.65-3.8c-0.633-1.3-1.017-2.816-1.149-4.55
		c-0.067-0.867-0.067-2.467,0-4.8c0.433,0,0.75,0.017,0.949,0.05c0.7,0.133,1.7,0.416,3,0.85c1.134,0.3,2.117,0.217,2.95-0.25
		c0.7-0.399,1.283-1.184,1.75-2.35c0.5-1.134,0.934-1.816,1.3-2.05c0.267,0.6,0.617,1.233,1.051,1.899
		c-0.4,0.3-0.767,0.733-1.101,1.3c-0.3,0.601-0.483,1.167-0.55,1.7c-0.134,0.267-0.733,0.467-1.8,0.601
		c-3.533,0.333-5.733-0.233-6.601-1.7c0.534,2.166,1.233,3.883,2.101,5.149c0.833,1.2,2.066,1.817,3.7,1.851
		c0.933,0,2.517-0.017,4.75-0.05c0.166,0.866,0.166,1.916,0,3.149c-0.101,0.667-0.267,1.7-0.5,3.101
		c-0.334,3.166,0.483,6.449,2.449,9.85c0.7,1.233,1.801,2.866,3.301,4.9c1.133,1.833,1.716,3.649,1.75,5.449
		c0,1.367-0.034,2.334-0.101,2.9c-0.166,1.267-0.5,2.083-1,2.45c-0.5,0.399-1.25,0.583-2.25,0.55c-1,0-1.666-0.217-2-0.65
		c-0.533-0.6-0.75-1.899-0.649-3.899c0.233-2.134,0.316-3.5,0.25-4.101c-0.134-1.6-0.551-2.55-1.25-2.85
		c-0.301-0.134-1.367-0.184-3.2-0.15c-1.7-0.066-2.7,0.5-3,1.7c-0.467,1.834-1.017,3.017-1.65,3.55
		c-1.233,1.067-3.7,1.051-7.399-0.05c-3.601-1.033-5.717-2.2-6.351-3.5c-0.267-0.566-0.399-1.399-0.399-2.5
		c0.1-1.2,0.149-2.05,0.149-2.55c0.033-0.967-0.05-1.783-0.25-2.45c-0.1-0.366-0.416-1.133-0.95-2.3c-0.733-2.5-1.3-4.4-1.699-5.7
		c-0.7-2.366-1.667-4.066-2.9-5.1c-1.8,1.1-2.384,4.517-1.75,10.25c0.1,1.033,0.566,2.366,1.4,4c0.933,1.8,1.5,3.149,1.699,4.05
		c0.567,2.634,0.9,4.8,1,6.5c0.034,0.333,0.101,1.3,0.2,2.9c0.033,1.5-0.116,2.383-0.45,2.649c-0.366,0.3-1.149,0.316-2.35,0.05
		c-1.267-0.366-2.033-0.583-2.3-0.649c-1.566-0.434-2.733-0.934-3.5-1.5c-0.867-0.634-1.584-1.634-2.15-3
		c-0.033-0.066-0.283-0.851-0.75-2.351c-0.267-0.866-0.684-1.583-1.25-2.149c-0.633-0.634-1.267-1.033-1.899-1.2
		c-0.534-0.134-1.301-0.167-2.301-0.1c-0.066,0-0.517,0.166-1.35,0.5c-0.6,0.233-1.033,0.233-1.3,0c-0.4-0.334-0.55-1.5-0.45-3.5
		c0.167-2.101,0.233-3.367,0.2-3.801c-0.033-1.3-0.2-2.3-0.5-3c-0.267-0.633-0.851-1.433-1.75-2.399c-0.8-1.101-1.45-1.9-1.95-2.4
		c-0.9-0.899-1.767-1.184-2.6-0.85c-0.367,2.733-0.217,6.283,0.449,10.649c0.801,5.167,1.2,8.684,1.2,10.551
		c0,0.6,0.05,1.583,0.15,2.949c0.066,1.267,0.017,2.233-0.15,2.9c-0.033,0.233-0.2,0.417-0.5,0.55
		c-0.333,0.167-0.517,0.351-0.55,0.55c-0.1,0.434-0.134,1.051-0.1,1.851c-0.167,1.066-0.317,2.616-0.45,4.649
		c-0.4,1.4-1.584,1.9-3.55,1.5c-0.101-0.966-0.134-2.199-0.101-3.699c0.033-1.634,0.05-2.867,0.05-3.7
		c0.101-1.267,0.167-2.267,0.2-3c0-1.4-0.25-2.316-0.75-2.75c-0.533-0.467-1.149-0.533-1.85-0.2c-1.134,0.533-1.851,0.816-2.15,0.85
		c-0.6,3.834-1.017,9-1.25,15.5c-0.033,2.4-0.883,4.45-2.55,6.15c-1.866,1.9-4.533,3.667-8,5.3c-2.333,1.066-5.35,2.217-9.05,3.45
		c-0.367,0.134-0.7,0.25-1,0.35c-0.167,0.034-0.316,0.084-0.45,0.15c-0.033,0-0.083,0.017-0.15,0.05l-2.3,0.55
		C181.134,155.6,180.967,155.616,180.8,155.65z M201.1,63.85c0.034,0.967,0.267,2.6,0.7,4.9c0.334,1.867,0.55,3.917,0.65,6.15
		c0.033,1.133,0.05,3.184,0.05,6.15c0,0.733,0.066,2.167,0.2,4.3c-0.033,1.934-0.467,3.25-1.3,3.95
		c-0.601,0.5-1.801,0.684-3.601,0.55c-1.733-0.1-2.866,0.117-3.399,0.65c-0.733,0.733-0.934,2.7-0.601,5.9
		c0.066,0.566,0.267,1.333,0.601,2.3c0.366,1,0.583,1.75,0.649,2.25c0.033,0.267,0.033,0.833,0,1.7
		c-0.033,0.699,0,1.267,0.101,1.699c0.1,0.467,0.399,1.634,0.899,3.5c0.367,1.367,0.601,2.517,0.7,3.45
		c0.134,1.4,0.134,3.517,0,6.351c0.033,1.6,0.217,2.649,0.55,3.149c0.467,0.7,1.434,1,2.9,0.9c2.566-0.233,3.533-1.783,2.899-4.65
		c-0.733-2.267-1.116-4.166-1.149-5.7c0-0.866-0.101-2.216-0.3-4.05c-0.2-1.733-0.301-3.083-0.301-4.05
		c-0.066-1.566-0.083-2.7-0.05-3.4c0.101-1.166,0.517-2.116,1.25-2.85c0.267-0.3,1.351-1.017,3.25-2.15
		c1.233-0.767,2.033-1.816,2.4-3.149c0.5-1.834,0.55-3.967,0.149-6.4c-0.333-2.1-0.933-4.149-1.8-6.149
		c-0.733-1.601-1.267-2.8-1.6-3.601c-0.601-1.4-1.033-2.65-1.3-3.75c-0.367-1.767-0.65-3.1-0.851-4
		c-0.366-1.566-0.85-2.833-1.45-3.8l1.15-4.6C201.467,60.033,201,61.517,201.1,63.85z M17.75,116.95c-1.767-2.3-3.1-4.033-4-5.2
		c0.433-0.233,2.05-0.983,4.85-2.25c2-0.9,3.467-1.783,4.4-2.65c0.4,0.467,0.75,1.351,1.05,2.65c0.367,1.8,0.583,2.783,0.65,2.95
		c0.4,1.133,0.783,2.033,1.15,2.7c0.333,0.533,0.917,1.316,1.75,2.35c4.7,5.767,10.167,7.55,16.4,5.35
		c2.733-0.966,5-2.533,6.8-4.699c0.9-1.134,1.517-2.517,1.85-4.15c0.434-1.9,0.233-3.384-0.6-4.45c-0.7-0.967-2.233-1.883-4.6-2.75
		c-2.434-0.967-4.067-1.899-4.9-2.8c-0.933-1.066-1.9-2.566-2.9-4.5c-1-1.9-1.683-3.533-2.05-4.9c1.2,1,2.85,2.4,4.95,4.2
		c1.867,1.334,3.883,2.184,6.05,2.55c2.633,0.467,4.533,0.767,5.7,0.9c2.167,0.3,4.083,0.434,5.75,0.4
		c4.333-0.301,7.617-0.517,9.85-0.65c4.033-0.267,7.283-0.066,9.75,0.6c0.533,2.134-0.133,4.317-2,6.551
		c-1.167,1.399-2.967,2.933-5.4,4.6c-1.433,1-2.4,2.417-2.9,4.25c-0.7,2.566-1.3,4.233-1.8,5c-1.9,3.066-5.283,5.066-10.15,6
		c-2.733,0.533-6.983,1.1-12.75,1.7c-1.267,0.267-2.333,0.583-3.2,0.95H41.4c-0.433-0.267-0.867-0.534-1.3-0.801l-3.95-2.8
		c-0.433-0.3-0.867-0.616-1.3-0.95c-1.5-1.133-3.55-2.183-6.15-3.149c-2.967-1.066-5.017-1.95-6.15-2.65
		c-1.533-0.899-3.1-2.316-4.7-4.25C17.817,117.017,17.783,116.983,17.75,116.95z M125.15,143.05c-3.4-0.633-5.617-1.033-6.65-1.2
		c-0.1,0-1.233-0.116-3.4-0.35c-1.367-0.1-2.517-0.316-3.45-0.65c-0.1-0.033-0.2-0.066-0.3-0.1l-0.95-0.4
		c-1.633-0.699-3.75-1.767-6.35-3.199h0.05c2.9-0.367,6.617-0.517,11.15-0.45c0.9,0.066,1.617,0.1,2.15,0.1
		c0.9,0.033,1.6-0.033,2.1-0.2c1.133-0.399,2.85-1.716,5.15-3.949c0.9-0.9,1.8-2.4,2.7-4.5c0.967-2.233,1.417-3.967,1.35-5.2
		c1.733-0.533,3.1-1.316,4.1-2.351c1.133-1.166,1.717-2.566,1.75-4.199c-0.833-0.534-2.75-0.634-5.75-0.301
		c-2.833,0.334-4.6,0.134-5.3-0.6c4.267-1.066,7.183-1.733,8.75-2c4.1-0.667,6.533-1.983,7.3-3.95c0.567-1.566,0.934-3.3,1.1-5.2
		l0.15-2.25c0-1.1-0.216-3.1-0.65-6c-0.433-3.199-0.617-5.416-0.55-6.649c3.534,3.033,6.016,5.883,7.45,8.55
		c1.8,3.3,2.417,6.967,1.851,11c-0.167,1.233-0.634,2.517-1.4,3.85c-0.434,0.767-1.15,1.934-2.15,3.5c-0.533,1-0.866,2.15-1,3.45
		c-0.066,0.533-0.1,1.75-0.1,3.65c0,0.866,0.066,2.283,0.2,4.25c0.1,1.8,0.017,3.2-0.25,4.2c-0.4,1.433-1.267,3.1-2.6,5
		c-0.733,1.066-1.85,2.6-3.35,4.6c-1.1,1.6-2.15,2.934-3.15,4l-0.55-1.1l-0.15-0.051c1.533-1.633,3.184-3.966,4.95-7
		c1.066-1.8,1.717-3.55,1.95-5.25c0.233-1.666,0.117-3.517-0.35-5.55c-0.267-1.166-0.534-1.916-0.8-2.25
		c-0.433-0.566-1.15-0.633-2.15-0.2c-0.733,0.301-1.283,0.967-1.65,2c-0.2,0.601-0.45,1.534-0.75,2.801c-1,3-2.15,5.5-3.45,7.5
		c-1.233,1.966-3.033,3.75-5.4,5.35C125.883,142.35,125.35,142.783,125.15,143.05z M156.4,148.95c-0.101,0.866-0.15,1.717-0.15,2.55
		c0,0.033,0,0.066,0,0.1c-2.6,0.134-4.833,0.184-6.7,0.15c-0.7,0-1.366-0.033-2-0.1l1.851,0.05c2,0,3.483-0.184,4.449-0.55
		C154.816,150.75,155.667,150.017,156.4,148.95z M60.05,117.05l-4.65-2.3c0.333,2-0.733,3.934-3.2,5.8
		c-1.667,1.3-3.767,2.434-6.3,3.4c-0.233,0.1-1.95,0.25-5.15,0.45c-2.367,0.166-3.633,0.8-3.8,1.899c-0.3,1.733,0.8,2.733,3.3,3
		c0.6,0.066,2.417,0.033,5.45-0.1c3.167-0.2,6.033-1.55,8.6-4.05C56.1,123.384,58.017,120.684,60.05,117.05z"/>
	<path style="fill-rule:evenodd;clip-rule:evenodd;fill:#8D959E;" d="M148.65,77.6c-1.233-1.4-2.367-2.434-3.4-3.1L144.2,74
		l-0.05-0.05l-1.15-0.4c-1.3-0.5-2.15-1.167-2.55-2l-0.05-0.1c0.567-0.633,2.434-0.2,5.6,1.3c3.767,1.8,5.833,2.733,6.2,2.8
		c1.7,0.267,3.566,0.417,5.6,0.45c2.434,0.033,4.25-0.15,5.45-0.55c0.6-0.233,1.316-0.617,2.15-1.15
		c1.733-1.433,2.949-2.417,3.649-2.95c2.434-1.434,4.017-2.517,4.75-3.25l0.65-0.8c0.8-1.2,1.45-2.833,1.95-4.9l0.399-1.95
		c0.367-2.367,0.483-4.45,0.351-6.25h1.699c-0.699,1.4-1,3.466-0.899,6.2c0.066,1.533,0.184,3.717,0.35,6.55
		c-0.033,1.367-0.283,2.566-0.75,3.6c-0.3,0.7-0.967,1.733-2,3.1c-1.066,1.333-1.866,2.25-2.399,2.75
		c-2.467,2.434-5.45,3.833-8.95,4.2c-1.834,0.2-4.65,0.25-8.45,0.15c-1.733,0-2.866-0.083-3.4-0.25
		c-0.833-0.233-1.767-0.884-2.8-1.95L148.65,77.6z M266.15,85.4l0.399,2.05c1.167,4.7,3.217,9.517,6.15,14.45
		c0.533,0.933,1.2,2.333,2,4.199c0.866,1.934,1.533,3.334,2,4.2c0.467,0.867,1.35,2.101,2.649,3.7
		c1.267,1.566,2.134,2.783,2.601,3.65c0.666,1.233,1.316,3.05,1.95,5.449c0.699,2.733,1.267,4.601,1.699,5.601
		c1.233,3,1.534,5.133,0.9,6.399c-0.566,1.167-2.384,2.483-5.45,3.95c-4.8,2.3-9.6,4.033-14.399,5.2
		c-7.034,1.733-11.867,3.116-14.5,4.15c-3.9,1.5-9,2.233-15.301,2.199c-9.533-0.033-14.783,0-15.75,0.101
		c-2.566,0.233-6.55,1.116-11.949,2.649c-5.134,1.434-9.067,2.217-11.801,2.351c-4.466,0.233-7.1,0.35-7.899,0.35
		c-3.101,0.066-5.733-0.033-7.9-0.3c-0.2-0.033-0.434-0.066-0.7-0.1h-0.05c0.167-0.034,0.334-0.051,0.5-0.051l2.3-0.55
		c0.067-0.033,0.117-0.05,0.15-0.05c0.134-0.066,0.283-0.116,0.45-0.15c0.3-0.1,0.633-0.216,1-0.35c3.7-1.233,6.717-2.384,9.05-3.45
		c3.467-1.633,6.134-3.399,8-5.3c1.667-1.7,2.517-3.75,2.55-6.15c0.233-6.5,0.65-11.666,1.25-15.5c0.3-0.033,1.017-0.316,2.15-0.85
		c0.7-0.333,1.316-0.267,1.85,0.2c0.5,0.434,0.75,1.35,0.75,2.75c-0.033,0.733-0.1,1.733-0.2,3c0,0.833-0.017,2.066-0.05,3.7
		c-0.033,1.5,0,2.733,0.101,3.699c1.966,0.4,3.149-0.1,3.55-1.5c0.133-2.033,0.283-3.583,0.45-4.649c-0.034-0.8,0-1.417,0.1-1.851
		c0.033-0.199,0.217-0.383,0.55-0.55c0.3-0.133,0.467-0.316,0.5-0.55c0.167-0.667,0.217-1.634,0.15-2.9
		c-0.101-1.366-0.15-2.35-0.15-2.949c0-1.867-0.399-5.384-1.2-10.551c-0.666-4.366-0.816-7.916-0.449-10.649
		c0.833-0.334,1.699-0.05,2.6,0.85c0.5,0.5,1.15,1.3,1.95,2.4c0.899,0.967,1.483,1.767,1.75,2.399c0.3,0.7,0.467,1.7,0.5,3
		c0.033,0.434-0.033,1.7-0.2,3.801c-0.1,2,0.05,3.166,0.45,3.5c0.267,0.233,0.7,0.233,1.3,0c0.833-0.334,1.283-0.5,1.35-0.5
		c1-0.067,1.767-0.034,2.301,0.1c0.633,0.167,1.267,0.566,1.899,1.2c0.566,0.566,0.983,1.283,1.25,2.149
		c0.467,1.5,0.717,2.284,0.75,2.351c0.566,1.366,1.283,2.366,2.15,3c0.767,0.566,1.934,1.066,3.5,1.5
		c0.267,0.066,1.033,0.283,2.3,0.649c1.2,0.267,1.983,0.25,2.35-0.05c0.334-0.267,0.483-1.149,0.45-2.649
		c-0.1-1.601-0.166-2.567-0.2-2.9c-0.1-1.7-0.433-3.866-1-6.5c-0.199-0.9-0.767-2.25-1.699-4.05c-0.834-1.634-1.301-2.967-1.4-4
		c-0.634-5.733-0.05-9.15,1.75-10.25c1.233,1.033,2.2,2.733,2.9,5.1c0.399,1.3,0.966,3.2,1.699,5.7
		c0.534,1.167,0.851,1.934,0.95,2.3c0.2,0.667,0.283,1.483,0.25,2.45c0,0.5-0.05,1.35-0.149,2.55c0,1.101,0.133,1.934,0.399,2.5
		c0.634,1.3,2.75,2.467,6.351,3.5c3.699,1.101,6.166,1.117,7.399,0.05c0.634-0.533,1.184-1.716,1.65-3.55c0.3-1.2,1.3-1.767,3-1.7
		c1.833-0.033,2.899,0.017,3.2,0.15c0.699,0.3,1.116,1.25,1.25,2.85c0.066,0.601-0.017,1.967-0.25,4.101
		c-0.101,2,0.116,3.3,0.649,3.899c0.334,0.434,1,0.65,2,0.65c1,0.033,1.75-0.15,2.25-0.55c0.5-0.367,0.834-1.184,1-2.45
		c0.066-0.566,0.101-1.533,0.101-2.9c-0.034-1.8-0.617-3.616-1.75-5.449c-1.5-2.034-2.601-3.667-3.301-4.9
		c-1.966-3.4-2.783-6.684-2.449-9.85c0.233-1.4,0.399-2.434,0.5-3.101c0.166-1.233,0.166-2.283,0-3.149
		c-2.233,0.033-3.817,0.05-4.75,0.05c-1.634-0.033-2.867-0.65-3.7-1.851c-0.867-1.267-1.566-2.983-2.101-5.149
		c0.867,1.467,3.067,2.033,6.601,1.7c1.066-0.134,1.666-0.334,1.8-0.601c0.066-0.533,0.25-1.1,0.55-1.7c0.334-0.566,0.7-1,1.101-1.3
		C265.667,85.566,265.917,85.434,266.15,85.4z M201.1,63.85c-0.1-2.333,0.367-3.817,1.4-4.45l-1.15,4.6
		c0.601,0.967,1.084,2.233,1.45,3.8c0.2,0.9,0.483,2.233,0.851,4c0.267,1.1,0.699,2.35,1.3,3.75c0.333,0.8,0.866,2,1.6,3.601
		c0.867,2,1.467,4.05,1.8,6.149c0.4,2.434,0.351,4.566-0.149,6.4c-0.367,1.333-1.167,2.383-2.4,3.149
		c-1.899,1.134-2.983,1.851-3.25,2.15c-0.733,0.733-1.149,1.684-1.25,2.85c-0.033,0.7-0.017,1.834,0.05,3.4
		c0,0.967,0.101,2.316,0.301,4.05c0.199,1.834,0.3,3.184,0.3,4.05c0.033,1.534,0.416,3.434,1.149,5.7
		c0.634,2.867-0.333,4.417-2.899,4.65c-1.467,0.1-2.434-0.2-2.9-0.9c-0.333-0.5-0.517-1.55-0.55-3.149
		c0.134-2.834,0.134-4.95,0-6.351c-0.1-0.934-0.333-2.083-0.7-3.45c-0.5-1.866-0.8-3.033-0.899-3.5
		c-0.101-0.433-0.134-1-0.101-1.699c0.033-0.867,0.033-1.434,0-1.7c-0.066-0.5-0.283-1.25-0.649-2.25
		c-0.334-0.967-0.534-1.733-0.601-2.3c-0.333-3.2-0.133-5.167,0.601-5.9c0.533-0.533,1.666-0.75,3.399-0.65
		c1.8,0.134,3-0.05,3.601-0.55c0.833-0.7,1.267-2.017,1.3-3.95c-0.134-2.133-0.2-3.566-0.2-4.3c0-2.966-0.017-5.017-0.05-6.15
		c-0.101-2.233-0.316-4.283-0.65-6.15C201.366,66.45,201.134,64.817,201.1,63.85z M156.25,151.6c0-0.033,0-0.066,0-0.1
		c0-0.833,0.05-1.684,0.15-2.55c0.466-3.167,1.633-5.384,3.5-6.65c1.066-0.7,2.5-1.267,4.3-1.7c2.133-0.433,3.7-0.767,4.7-1
		c1.133-0.333,1.8-0.533,2-0.6c1.866-0.634,5.833-2.2,11.899-4.7c0.533,2.834,0.117,6.134-1.25,9.9
		c-1.5,4.066-3.533,6.616-6.1,7.649c-1.134,0.467-2.75,0.733-4.851,0.801c-0.533-0.134-1.05-0.267-1.55-0.4l-4.399-0.8
		c-0.334-0.033-0.634-0.05-0.9-0.05s-0.533,0-0.8,0h-1.4C160.15,151.4,158.384,151.467,156.25,151.6z M60.05,117.05
		c-2.033,3.634-3.95,6.334-5.75,8.101c-2.566,2.5-5.433,3.85-8.6,4.05c-3.034,0.133-4.85,0.166-5.45,0.1c-2.5-0.267-3.6-1.267-3.3-3
		c0.167-1.1,1.433-1.733,3.8-1.899c3.2-0.2,4.917-0.351,5.15-0.45c2.533-0.967,4.633-2.101,6.3-3.4c2.466-1.866,3.533-3.8,3.2-5.8
		L60.05,117.05z M134.4,144.35l-0.95-0.05c-1.934-0.166-4.434-0.533-7.5-1.1c-0.267-0.066-0.534-0.117-0.8-0.15
		c0.2-0.267,0.733-0.7,1.6-1.3c2.367-1.6,4.167-3.384,5.4-5.35c1.3-2,2.45-4.5,3.45-7.5c0.3-1.267,0.55-2.2,0.75-2.801
		c0.367-1.033,0.917-1.699,1.65-2c1-0.433,1.717-0.366,2.15,0.2c0.267,0.334,0.533,1.084,0.8,2.25
		c0.466,2.033,0.583,3.884,0.35,5.55c-0.233,1.7-0.883,3.45-1.95,5.25C137.583,140.384,135.933,142.717,134.4,144.35z"/>
	
		<linearGradient id="SVGID_1_" gradientUnits="userSpaceOnUse" x1="62.7642" y1="-6.2241" x2="326.3878" y2="-6.2241" gradientTransform="matrix(0.8989 0.4381 -0.4381 0.8989 2.201796e-004 2.063811e-004)">
		<stop  offset="0" style="stop-color:#E7E7E8"/>
		<stop  offset="1" style="stop-color:#C3CED9"/>
	</linearGradient>
	<path style="fill-rule:evenodd;clip-rule:evenodd;fill:url(#SVGID_1_);" d="M224.75,41.6c-0.267-0.2-0.533-0.417-0.8-0.65H213.35
		c-1.399-0.034-2.25-0.083-2.55-0.15c-0.333-0.1-1-0.517-2-1.25c-1.366-1.233-3.166-2.733-5.399-4.5c-1.967-1.5-3.934-3.233-5.9-5.2
		c-1.533-0.667-3.134-0.5-4.8,0.5c-1.434,0.867-2.584,2.133-3.45,3.8c-0.467,0.9-1.316,3.517-2.55,7.85
		c-0.967,3.433-2.184,5.817-3.65,7.15c-0.6,0.533-1.416,0.867-2.45,1c-1.199,0.133-1.983,0.317-2.35,0.55
		c-0.634,0.333-1,0.917-1.1,1.75c0,0.033,0,0.617,0,1.75c0.133,1.8,0.017,3.883-0.351,6.25L176.4,62.4c-0.5,2.067-1.15,3.7-1.95,4.9
		l-0.65,0.8c-0.733,0.733-2.316,1.816-4.75,3.25c-0.7,0.533-1.916,1.517-3.649,2.95c-0.7,0.1-1.551,0.117-2.551,0.05
		c0.467,0.433,0.601,0.8,0.4,1.1c-1.2,0.4-3.017,0.583-5.45,0.55c-2.033-0.033-3.899-0.183-5.6-0.45c-0.367-0.066-2.434-1-6.2-2.8
		c-3.167-1.5-5.033-1.933-5.6-1.3l0.05,0.1c-0.6-0.167-1.534-0.283-2.8-0.35c-1.267-0.034-2.15-0.117-2.65-0.25
		c-2.667-0.667-5.233-2.1-7.7-4.3c-2.767-2.433-4.233-4.917-4.4-7.45c-0.033,0.633-0.05,1.25-0.05,1.85
		c-0.067-0.133-0.15-0.25-0.25-0.35c-1-1.767-1.75-3.067-2.25-3.9c-0.9-1.466-1.983-2.367-3.25-2.7c-3.1-0.833-5.283-1.533-6.55-2.1
		c-2.2-1.033-4.033-2.467-5.5-4.3c-1.767-2.233-2.017-4.784-0.75-7.65c0.733-1.667,2.317-3.9,4.75-6.7
		c-1.833-0.333-4.283-0.184-7.35,0.45c-1.7,0.333-4.15,0.917-7.35,1.75c-1.833,0.434-3.65,1.117-5.45,2.05
		c-1.267,0.667-2.95,1.7-5.05,3.1c-1.267,0.867-2.833,1.95-4.7,3.25c-1.533,0.867-3.3,1.3-5.3,1.3c-6-0.067-10.483,0.083-13.45,0.45
		c-1.367,0.167-3.7,0.75-7,1.75c-2.867,0.833-5.25,1.267-7.15,1.3c-2.967,0-4.65-0.033-5.05-0.1c-1.5-0.267-2.867-1.117-4.1-2.55
		c-1.3-1.533-1.9-3.117-1.8-4.75c0.067-1.133,0.583-2.85,1.55-5.15c0.5-1.167,0.783-1.883,0.85-2.15c0.1-0.6-0.083-1.25-0.55-1.95
		c-0.467-0.7-1.417-1.233-2.85-1.6c-1.4-0.367-2.3-0.883-2.7-1.55c-0.133,0.733-0.283,1.433-0.45,2.1c0.4-1.767,0.833-4.2,1.3-7.3
		c0.4-2.4,0.883-4.4,1.45-6l1.3-2l-0.5,0.1c0.233-0.5,0.483-0.934,0.75-1.3c1.4-1.867,3.95-3.6,7.65-5.2c3.3-1.367,6.3-2.2,9-2.5
		c2.4-0.267,5.833-0.4,10.3-0.4c4.8,0,8.233-0.083,10.3-0.25c2.033-0.167,4.917-0.233,8.65-0.2c3.933,0,6.8-0.05,8.6-0.15
		c2.667,0.033,4.833,0.05,6.5,0.05c3.2-0.033,5.3-0.333,6.3-0.9c1.367-0.9,2.283-1.483,2.75-1.75c0.7-0.367,1.85-0.583,3.45-0.65
		c2.633-0.1,6.133-0.467,10.5-1.1c5.1-0.733,8.583-1.183,10.45-1.35c3.067-0.3,6.017-0.2,8.85,0.3c1.633,0.267,4.45,0.966,8.45,2.1
		c7.2,2.067,16.434,4.167,27.7,6.3c5.566,0.733,9.8,1.3,12.699,1.7c5.267,0.733,9.384,1.8,12.351,3.2
		c1.333,0.633,2.633,1.65,3.899,3.05c0.733,0.833,1.767,2.117,3.101,3.85c2.2,2.6,5.217,6.533,9.05,11.8
		C218.934,36.217,221.85,39.267,224.75,41.6z M265.5,81.7c0.033,0.133,0.066,0.267,0.1,0.399c0.2,1.101,0.517,2.884,0.95,5.351
		l-0.399-2.05C265.85,83.533,265.634,82.3,265.5,81.7z M143,73.55l1.15,0.4c0.066,0.1,0.366,0.917,0.899,2.45
		C144.684,76.067,144,75.117,143,73.55z M144.2,74l1.05,0.5c1.033,0.667,2.167,1.7,3.4,3.1C147.017,76.667,145.533,75.467,144.2,74z
		 M169.05,152.25c0.5,0.134,1.017,0.267,1.55,0.4c0.101,0.033,0.2,0.066,0.301,0.1C170.233,152.583,169.616,152.417,169.05,152.25z"
		/>
	<path style="fill-rule:evenodd;clip-rule:evenodd;fill:#C0C6CC;" d="M156.4,148.95c-0.733,1.066-1.584,1.8-2.551,2.2
		c-0.966,0.366-2.449,0.55-4.449,0.55l-1.851-0.05L140.2,150c-0.7-0.333-1.333-0.684-1.9-1.05c-0.167-0.134-0.333-0.25-0.5-0.351
		l-0.15-0.1c-0.267-0.233-0.533-0.467-0.8-0.7c-0.033-0.033-0.067-0.066-0.1-0.1c-0.2-0.2-0.4-0.4-0.6-0.601L136,146.9
		c-0.333-0.4-0.633-0.867-0.9-1.4c1-1.066,2.05-2.4,3.15-4c1.5-2,2.617-3.533,3.35-4.6c1.333-1.9,2.2-3.567,2.6-5
		c0.267-1,0.35-2.4,0.25-4.2c-0.134-1.967-0.2-3.384-0.2-4.25c0-1.9,0.033-3.117,0.1-3.65c0.134-1.3,0.467-2.45,1-3.45
		c1-1.566,1.717-2.733,2.15-3.5c0.767-1.333,1.233-2.616,1.4-3.85c0.566-4.033-0.051-7.7-1.851-11
		c-1.434-2.667-3.916-5.517-7.45-8.55c-0.067,1.233,0.117,3.45,0.55,6.649c-0.267-0.267-0.4-0.416-0.4-0.449
		c-0.067-0.233-0.083-0.617-0.05-1.15c0.033-0.5,0.017-0.866-0.05-1.1c-0.833-2.733-1.45-4.417-1.85-5.051
		c-0.833-1-1.367-1.683-1.6-2.05c-0.4-0.6-0.6-1.5-0.6-2.7c0.066-0.767,0.1-1.35,0.1-1.75c0.033-0.767-0.034-1.333-0.2-1.699
		c-0.3-0.634-0.767-1.051-1.4-1.25c-0.367-0.133-1.017-0.333-1.95-0.6c-3.167-1.4-5.617-4.1-7.35-8.1
		c-1.267-2.967-1.917-6.017-1.95-9.15c0-0.6,0.017-1.216,0.05-1.85c0.167,2.533,1.633,5.017,4.4,7.45c2.467,2.2,5.034,3.633,7.7,4.3
		c0.5,0.133,1.383,0.216,2.65,0.25c1.267,0.066,2.2,0.183,2.8,0.35c0.4,0.833,1.25,1.5,2.55,2c1,1.567,1.684,2.517,2.05,2.85
		c0.167,0.667,0.417,1.184,0.75,1.55c0.4,0.5,1.033,0.9,1.9,1.2c1.399,0.466,2.333,0.8,2.8,1c0.634,0.3,1.384,0.883,2.25,1.75
		c1,1,2.667,1.916,5,2.75c2.634,0.866,4.467,1.533,5.5,2c2,0.899,4.384,1.416,7.15,1.55c0.333,0.033,2.8,0.05,7.399,0.05
		c1.467-0.1,2.601-0.15,3.4-0.15c1.434,0.067,2.434,0.45,3,1.15c0.434,0.5,0.633,1.434,0.6,2.8c0,0.767-0.05,1.8-0.149,3.101
		c0,1.8,0,4.316,0,7.55c0.233,2.666,1.05,4.916,2.449,6.75c0.601,0.8,1.434,1.7,2.5,2.7c0.801,0.866,1.25,1.916,1.351,3.149
		c0.133,1.367,0.149,2.533,0.05,3.5c-0.1,1.101-0.45,2.5-1.05,4.2c-0.134,0.4-0.217,0.95-0.25,1.65c0,0.733-0.033,1.216-0.101,1.449
		c-0.433,1.7-2.1,3.434-5,5.2c-1.566,0.934-3.699,2.05-6.399,3.351c-3.733,2.066-6.533,3.583-8.4,4.55L168.9,139.6
		c-1,0.233-2.567,0.567-4.7,1c-1.8,0.434-3.233,1-4.3,1.7C158.033,143.566,156.866,145.783,156.4,148.95z M104.05,137.15
		c-0.1-0.067-0.2-0.117-0.3-0.15c-1.333-0.6-2.45-1-3.35-1.2c-0.7-0.166-1.433-0.267-2.2-0.3l-4.4,0.1
		c-0.533,0.067-1.1,0.15-1.7,0.25l0.05-0.05l0.2-0.25c1.9-0.934,3.333-1.633,4.3-2.1c1.733-0.867,3.167-1.483,4.3-1.851
		c0.633-0.199,2.066-0.517,4.3-0.949c1.733-0.301,3.1-0.733,4.1-1.301c0.933-0.533,1.633-1.033,2.1-1.5
		c0.433-0.433,0.9-1.133,1.4-2.1c1.7-3.033,2.783-5.066,3.25-6.1c0.967-2.2,1.533-4.384,1.7-6.551c0.667,0.034,1.3-0.05,1.9-0.25
		c0.133-0.066,0.733-0.333,1.8-0.8c3.733-1.7,8.267-2.934,13.6-3.7c0.967,0,1.633-0.017,2-0.05c0.6-0.033,1.217-0.316,1.85-0.85
		c0.733-0.601,1.3-1.634,1.7-3.101c-0.167,1.9-0.533,3.634-1.1,5.2c-0.767,1.967-3.2,3.283-7.3,3.95
		c-1.567,0.267-4.483,0.934-8.75,2c0.7,0.733,2.467,0.934,5.3,0.6c3-0.333,4.917-0.233,5.75,0.301
		c-0.033,1.633-0.617,3.033-1.75,4.199c-1,1.034-2.367,1.817-4.1,2.351c0.066,1.233-0.383,2.967-1.35,5.2c-0.9,2.1-1.8,3.6-2.7,4.5
		c-2.3,2.233-4.017,3.55-5.15,3.949c-0.5,0.167-1.2,0.233-2.1,0.2c-0.533,0-1.25-0.033-2.15-0.1c-4.533-0.066-8.25,0.083-11.15,0.45
		H104.05z"/>
	
		<linearGradient id="SVGID_2_" gradientUnits="userSpaceOnUse" x1="24.1812" y1="73.1978" x2="203.5505" y2="73.1978" gradientTransform="matrix(0.9894 0.145 -0.145 0.9894 8.302927e-005 2.023578e-004)">
		<stop  offset="0" style="stop-color:#DDDFE0"/>
		<stop  offset="1" style="stop-color:#C8D4E0"/>
	</linearGradient>
	<path style="fill-rule:evenodd;clip-rule:evenodd;fill:url(#SVGID_2_);" d="M9.75,107.45c1.133,0.899,2.467,2.333,4,4.3
		c0.9,1.167,2.233,2.9,4,5.2c-0.567-0.667-1.15-1.4-1.75-2.2C13.2,111.017,11.117,108.583,9.75,107.45
		c-0.067-0.066-1.583-1.15-4.55-3.25c-2-1.434-3.333-2.667-4-3.7c-0.9-1.333-1.284-2.533-1.15-3.6c0.1-0.601,0.6-1.834,1.5-3.7
		c0.5-1.066,1.417-2.634,2.75-4.7c1.367-2.134,2.317-3.733,2.85-4.8c0.3-0.601,1.367-3.101,3.2-7.5c1.267-3.034,2.55-5.467,3.85-7.3
		c1.566-2.167,2.5-3.467,2.8-3.9c0.833-1.333,1.517-2.783,2.05-4.35c0.434-1.233,0.983-3.617,1.65-7.15
		c0.6-3.067,1.283-5.417,2.05-7.05c0.667-1.4,1.95-3.5,3.85-6.3c1.8-2.633,3.05-4.8,3.75-6.5c0.1-0.233,0.2-0.5,0.3-0.8l0.5-1.8
		c0.167-0.667,0.317-1.367,0.45-2.1c0.4,0.667,1.3,1.183,2.7,1.55c1.434,0.367,2.383,0.9,2.85,1.6c0.467,0.7,0.65,1.35,0.55,1.95
		c-0.067,0.267-0.35,0.983-0.85,2.15c-0.967,2.3-1.483,4.017-1.55,5.15c-0.1,1.633,0.5,3.217,1.8,4.75
		c1.233,1.433,2.6,2.283,4.1,2.55c0.4,0.067,2.083,0.1,5.05,0.1c1.9-0.033,4.283-0.467,7.15-1.3c3.3-1,5.633-1.583,7-1.75
		c2.967-0.367,7.45-0.517,13.45-0.45c2,0,3.767-0.433,5.3-1.3c1.867-1.3,3.434-2.383,4.7-3.25c2.1-1.4,3.783-2.434,5.05-3.1
		c1.8-0.934,3.617-1.617,5.45-2.05c3.2-0.833,5.65-1.417,7.35-1.75c3.066-0.633,5.517-0.783,7.35-0.45
		c-2.433,2.8-4.017,5.033-4.75,6.7c-1.267,2.867-1.017,5.417,0.75,7.65c1.467,1.833,3.3,3.267,5.5,4.3
		c1.267,0.567,3.45,1.267,6.55,2.1c1.267,0.333,2.35,1.233,3.25,2.7c0.5,0.833,1.25,2.133,2.25,3.9c0.1,0.1,0.183,0.216,0.25,0.35
		c0.033,3.133,0.683,6.184,1.95,9.15c1.733,4,4.184,6.7,7.35,8.1c0.934,0.267,1.583,0.467,1.95,0.6c0.633,0.2,1.1,0.617,1.4,1.25
		c0.167,0.366,0.233,0.933,0.2,1.699c0,0.4-0.034,0.983-0.1,1.75c0,1.2,0.2,2.101,0.6,2.7c0.233,0.367,0.767,1.05,1.6,2.05
		c0.4,0.634,1.017,2.317,1.85,5.051c0.067,0.233,0.083,0.6,0.05,1.1c-0.034,0.533-0.017,0.917,0.05,1.15
		c0,0.033,0.133,0.183,0.4,0.449c0.434,2.9,0.65,4.9,0.65,6l-0.15,2.25c-0.4,1.467-0.967,2.5-1.7,3.101
		c-0.633,0.533-1.25,0.816-1.85,0.85c-0.367,0.033-1.033,0.05-2,0.05c-5.333,0.767-9.867,2-13.6,3.7
		c-1.067,0.467-1.667,0.733-1.8,0.8c-0.6,0.2-1.233,0.284-1.9,0.25c-0.167,2.167-0.733,4.351-1.7,6.551
		c-0.467,1.033-1.55,3.066-3.25,6.1c-0.5,0.967-0.967,1.667-1.4,2.1c-0.467,0.467-1.167,0.967-2.1,1.5c-1,0.567-2.367,1-4.1,1.301
		c-2.233,0.433-3.667,0.75-4.3,0.949c-1.133,0.367-2.567,0.983-4.3,1.851c-0.967,0.467-2.4,1.166-4.3,2.1l-0.2,0.25
		c-0.3,0.033-0.6,0.084-0.9,0.15c-0.633,0.133-3.633,0.883-9,2.25c-6.667,1.666-12.633,2.25-17.9,1.75
		c-7.467-0.667-15.1-3.434-22.9-8.3c0.867-0.367,1.933-0.684,3.2-0.95c2.3,0.3,4.934,0.566,7.9,0.8c3.967,0.267,6.9,0.333,8.8,0.2
		c3.267-0.267,5.967-1.101,8.1-2.5c2.9-1.2,5.117-2.15,6.65-2.851c2.767-1.267,4.15-2.816,4.15-4.649c0-0.867-0.1-2.233-0.3-4.101
		c-0.2-1.8-0.3-3.183-0.3-4.149c0.033-1.667,0.317-2.816,0.85-3.45c0.367-0.467,1.417-1.167,3.15-2.1c2.133-1.134,4.7-2.801,7.7-5
		c3.867-2.867,6.333-4.65,7.4-5.351c1.333-0.833,2.3-1.533,2.9-2.1c0.767-0.767,1.434-1.733,2-2.9c-1.4-0.1-3.383,0.084-5.95,0.55
		c-3.034,0.534-5.067,0.834-6.1,0.9c-1.833,0.1-4.667,0.083-8.5-0.05c-3.767-0.134-6.6-0.134-8.5,0c-1.267,0.1-2.9,0.649-4.9,1.649
		c-2.034,1.034-3.667,1.617-4.9,1.75c-4.133,0.5-9.05,0.5-14.75,0c-3.3-0.267-5.883-0.716-7.75-1.35c-2.6-0.9-4.716-2.333-6.35-4.3
		c-1.9-2.3-4.017-4.084-6.35-5.351c-2.667-1.433-5-2.449-7-3.05c-2.567-0.767-5.067-1.017-7.5-0.75
		c-0.233,1.767-0.05,4.334,0.55,7.7c0.567,3.366,0.75,5.934,0.55,7.7c-0.133,1.233-0.383,2.45-0.75,3.649
		c-0.467,1.5-1.034,2.584-1.7,3.25c-0.633,0.667-1.5,1.067-2.6,1.2c-0.233,0.033-1.25,0.05-3.05,0.05l0.05,0.15
		C8.817,106.684,9.35,107.083,9.75,107.45z M136,146.9c-0.633-0.733-1.117-1.567-1.45-2.5l-1.1-0.101l0.95,0.05l0.15,0.051l0.55,1.1
		C135.367,146.033,135.667,146.5,136,146.9z M138.3,148.95h-0.05c-0.167-0.134-0.317-0.25-0.45-0.351
		C137.967,148.7,138.133,148.816,138.3,148.95z"/>
	
		<linearGradient id="SVGID_3_" gradientUnits="userSpaceOnUse" x1="24.1909" y1="11.6221" x2="203.3835" y2="11.6221" gradientTransform="matrix(0.9894 0.145 -0.145 0.9894 5.693734e-005 2.386570e-004)">
		<stop  offset="0" style="stop-color:#DDDFE0"/>
		<stop  offset="1" style="stop-color:#C8D4E0"/>
	</linearGradient>
	<path style="fill-rule:evenodd;clip-rule:evenodd;fill:url(#SVGID_3_);" d="M33.9,17.75l-0.1,0.1l0.25-0.6
		c0.133-0.367,0.284-0.7,0.45-1l0.15-0.4h0.05l0.5-0.1L33.9,17.75z"/>
</g>
<radialGradient id="SVGID_4_" cx="112.5" cy="90.0498" r="174" gradientTransform="matrix(1 0 0 -1 0 180.0996)" gradientUnits="userSpaceOnUse">
	<stop  offset="0" style="stop-color:#FFFFFF;stop-opacity:0.3569"/>
	<stop  offset="1" style="stop-color:#A8B9C9;stop-opacity:0.7176"/>
</radialGradient>
<path style="fill-rule:evenodd;clip-rule:evenodd;fill:url(#SVGID_4_);" d="M224.05,40.95l2.55,1.95
	c0.801,0.567,3.4,2.15,7.801,4.75c3.166,1.867,5.6,3.633,7.3,5.3c1.2,1.167,2.467,2.7,3.8,4.6c1.866,2.733,3,4.35,3.4,4.85
	c0.666,0.833,3.533,3.1,8.6,6.8c4.066,2.967,6.233,5.566,6.5,7.8l-0.35-0.05l1.149,2.25l0.101,0.149l0.3,0.851v0.05l0.649,2.9V83.3
	l0.351,2.05v0.101l0.399,2c1.167,4.7,3.217,9.517,6.15,14.45c0.533,0.933,1.2,2.333,2,4.199c0.866,1.934,1.533,3.334,2,4.2
	c0.467,0.867,1.35,2.101,2.65,3.7c1.267,1.566,2.133,2.783,2.6,3.65c0.667,1.232,1.316,3.05,1.95,5.449
	c0.7,2.733,1.267,4.601,1.7,5.601c1.233,3,1.533,5.133,0.899,6.399c-0.566,1.167-2.383,2.483-5.45,3.95
	c-4.8,2.3-9.6,4.033-14.399,5.2c-7.033,1.733-11.867,3.117-14.5,4.15c-3.9,1.5-9,2.232-15.3,2.199
	c-9.534-0.033-14.784,0-15.75,0.101c-2.567,0.233-6.551,1.116-11.95,2.649c-5.134,1.434-9.066,2.217-11.8,2.351
	c-4.467,0.233-7.101,0.35-7.9,0.35c-3.1,0.067-5.733-0.033-7.9-0.3l-0.75-0.1c-1.5-0.233-4.116-0.967-7.85-2.2l-5.65-1.65
	l-1.55-0.25H165.4c-0.5-0.1-1.034-0.149-1.601-0.149l-12.05,0.35c-0.566,0.066-1.15,0.066-1.75,0l-2.35-0.05l-0.051-0.05
	L144.4,151.3l-3.101-0.85l-2-0.9l-1.3-0.85c-0.533-0.333-0.933-0.667-1.2-1l-0.65-0.65l-0.5-0.649c-0.467-0.667-0.816-1.334-1.05-2
	l-16.05-2.551c-0.1,0-1.233-0.116-3.4-0.35c-1.367-0.1-2.517-0.316-3.45-0.65l-1.3-0.5l-0.25-0.149
	c-1.367-0.601-3.383-1.617-6.05-3.05l-3.65-1.351l-2.05-0.35l-4,0.05l-0.25,0.05l-0.85,0.101l-0.2,0.05l-0.95,0.1
	c-1.4,0.233-3.083,0.617-5.05,1.15c-1.133,0.3-2.733,0.717-4.8,1.25c-6.667,1.667-12.633,2.25-17.9,1.75
	c-9.533-0.867-19.367-5.15-29.5-12.851c-1.5-1.133-3.55-2.183-6.15-3.149c-2.967-1.067-5.017-1.95-6.15-2.65
	c-0.233-0.1-0.617-0.35-1.15-0.75l-0.35-0.25l-2.1-1.95l-8.2-10L9.1,106.9L8.95,106.8l-0.7-0.55c-1.733-1.2-3.033-2.117-3.9-2.75
	c-1.467-1.1-2.5-2.1-3.1-3c-0.9-1.333-1.283-2.533-1.15-3.6c0.1-0.601,0.6-1.834,1.5-3.7c0.5-1.067,1.417-2.634,2.75-4.7
	c1.367-2.133,2.316-3.733,2.85-4.8c0.3-0.601,1.367-3.101,3.2-7.5c1.267-3.033,2.55-5.467,3.85-7.3c1.567-2.167,2.5-3.466,2.8-3.9
	c0.833-1.333,1.517-2.783,2.05-4.35c0.433-1.233,0.983-3.617,1.65-7.15c0.6-3.066,1.283-5.417,2.05-7.05
	c0.667-1.4,1.95-3.5,3.85-6.3c1.8-2.633,3.05-4.8,3.75-6.5c0.6-1.433,1.3-4.733,2.1-9.9c0.7-4.367,1.7-7.434,3-9.2
	c1.4-1.866,3.95-3.6,7.65-5.2c3.3-1.367,6.3-2.2,9-2.5c2.4-0.267,5.833-0.4,10.3-0.4c4.8,0,8.233-0.083,10.3-0.25
	c2.033-0.167,4.917-0.233,8.65-0.2c3.934,0,6.8-0.05,8.6-0.15c2.667,0.033,4.833,0.05,6.5,0.05c3.2-0.033,5.3-0.333,6.3-0.9
	c1.367-0.9,2.284-1.483,2.75-1.75c0.7-0.367,1.85-0.583,3.45-0.65c2.633-0.1,6.133-0.467,10.5-1.1c5.1-0.733,8.583-1.184,10.45-1.35
	c3.066-0.3,6.017-0.2,8.85,0.3c1.633,0.267,4.45,0.967,8.45,2.1c7.2,2.067,16.434,4.167,27.7,6.3c5.566,0.733,9.8,1.3,12.7,1.7
	c5.267,0.733,9.383,1.8,12.35,3.2c1.333,0.633,2.634,1.65,3.9,3.05c0.733,0.833,1.767,2.117,3.1,3.85
	c1.967,2.333,4.667,5.867,8.1,10.6C218.267,35.383,221.25,38.617,224.05,40.95z"/>
</svg>
