<?xml version="1.0" encoding="iso-8859-1"?>
<!-- Generator: Adobe Illustrator 15.1.0, SVG Export Plug-In . SVG Version: 6.00 Build 0)  -->
<!DOCTYPE svg PUBLIC "-//W3C//DTD SVG 1.1//EN" "http://www.w3.org/Graphics/SVG/1.1/DTD/svg11.dtd">
<svg version="1.1" id="Layer_1" xmlns="http://www.w3.org/2000/svg" xmlns:xlink="http://www.w3.org/1999/xlink" x="0px" y="0px"
	 width="84.6px" height="24.5px" viewBox="0 0 84.6 24.5" style="enable-background:new 0 0 84.6 24.5;" xml:space="preserve">
<g>
	<path style="fill-rule:evenodd;clip-rule:evenodd;fill:#8C847C;" d="M75.25,17.5c0.167,0.634-0.05,1.066-0.65,1.3
		c-0.1,0.033-0.199,0.066-0.3,0.101c0.334,0.933,0.983,1.267,1.95,1s1.283-0.867,0.95-1.801c-0.101-0.267-0.184-0.55-0.25-0.85
		c0.533-0.134,0.916-0.25,1.149-0.35c0.634-0.301,1.317-0.983,2.051-2.051c0.333-0.5,1.017-1.183,2.05-2.05
		c1-0.867,1.649-1.533,1.95-2c0.1-0.167,0.199-0.333,0.3-0.5c0.066,0.434,0.033,0.934-0.101,1.5c-0.166,0.767-0.483,1.533-0.949,2.3
		c-0.667,1.067-2.084,2.717-4.25,4.95c-0.7,0.7-1.45,1.184-2.25,1.45c-0.301,0.1-1.184,0.267-2.65,0.5
		c-0.767,0.134-1.6,0.517-2.5,1.15c-1.267,0.833-2.066,1.333-2.4,1.5c-0.399,0.199-0.866,0.366-1.399,0.5
		c-0.834,0.199-1.75,0.316-2.75,0.35c0.1-0.333,0.1-0.634,0-0.9C64.8,22.333,64.1,21.366,63.1,20.7c1.434-0.3,2.834-0.816,4.2-1.55
		c0.967-0.534,2.184-0.917,3.65-1.15c0.366-0.4,0.633-0.917,0.8-1.55c0.3-0.967-0.083-1.45-1.15-1.45
		c0.601-0.033,1.317,0.1,2.15,0.4c1,0.333,1.667,0.733,2,1.199C74.983,16.934,75.15,17.233,75.25,17.5z M0.2,13.8
		c0-0.1,0.017-0.2,0.05-0.3H0.4C0.333,13.6,0.267,13.7,0.2,13.8z M38.25,20.5c-0.533,0-2.517,0.083-5.95,0.25
		c0.4-0.134,2.6-0.917,6.6-2.35c0.5-0.167,0.983-0.334,1.45-0.5l-0.5-0.15l-0.2-0.1c0.434,0.033,1.167-0.2,2.2-0.7
		c0.766-0.367,1.733-0.851,2.9-1.45c2.967-0.967,5.75-1.467,8.35-1.5c-0.6,0.033-1.517,0.3-2.75,0.8c-0.033,0-0.899,0.4-2.6,1.2
		c-0.6,0.267-1.366,0.75-2.3,1.45c-0.434,0.333-0.8,0.616-1.101,0.85c0.567,0.233,1.267,0.566,2.101,1
		c0.7,0.334,1.35,0.617,1.95,0.851c0.199,0.3,0.449,0.633,0.75,1c0.767,1.033,1.316,1.833,1.649,2.399
		c-1.166-0.166-3.233-0.75-6.2-1.75C42.066,20.934,39.95,20.5,38.25,20.5z M27.25,18.9h0.1c0.066,0,0.133,0.017,0.2,0.05
		c-0.1,0-0.2,0.017-0.3,0.05C27.25,18.967,27.25,18.934,27.25,18.9z M23.25,17.85c0.033,0.834,0.1,1.601,0.2,2.301
		c-0.467-0.2-0.867-0.367-1.2-0.5c-0.167-0.067-0.3-0.117-0.4-0.15c-0.633-0.267-1.167-0.434-1.6-0.5l-4.1-0.05
		c-1.066-0.066-2.133-0.25-3.2-0.55H13c0.6-1.067,1.683-1.75,3.25-2.051c0.333,0.034,0.7,0.084,1.1,0.15
		c1.4,0.167,3.217,0.566,5.45,1.2C22.967,17.733,23.117,17.783,23.25,17.85z M11.35,15.65c-0.233,0.199-0.434,0.433-0.6,0.699
		c-0.567-0.366-1.1-0.699-1.6-1c0.135,0,0.268,0.009,0.4,0.025L9.6,15.4h0.25l0.5,0.1c0.033,0,0.066,0,0.1,0
		C10.683,15.533,10.983,15.583,11.35,15.65z M0.2,14.25c0.233,0.066,0.483,0.134,0.75,0.2l2.8,0.45c0.033,0,0.083,0,0.15,0
		c0.067,0.333,0.267,0.633,0.6,0.899L4.8,16l0.05,0.05c-1.3-0.467-2.033-0.717-2.2-0.75C2.417,15.233,2.2,15.184,2,15.15L1.35,15
		c-0.367-0.033-0.7-0.05-1-0.05C0.283,14.717,0.233,14.483,0.2,14.25z"/>
	<path style="fill-rule:evenodd;clip-rule:evenodd;fill:#C3B9AC;" d="M76.95,17.25c-0.467,0.066-1.033,0.15-1.7,0.25
		c-0.1-0.267-0.267-0.566-0.5-0.9c-0.333-0.466-1-0.866-2-1.199C71.917,15.1,71.2,14.967,70.6,15
		c0.267-0.233,0.534-0.483,0.801-0.75c0.066,0.066,0.216,0.134,0.449,0.2c4.534,1.2,8.717-0.667,12.551-5.6V8.8
		c0.166,0.333,0.216,0.7,0.149,1.1c-0.033,0.1-0.066,0.233-0.1,0.4c-0.101,0.167-0.2,0.333-0.3,0.5c-0.301,0.467-0.95,1.133-1.95,2
		c-1.033,0.867-1.717,1.55-2.05,2.05c-0.733,1.067-1.417,1.75-2.051,2.051C77.866,17,77.483,17.116,76.95,17.25z M0.05,14.15H0
		l0.15-0.25c1.633-0.067,4.083-0.2,7.35-0.4c2.8-0.066,5.25,0.083,7.35,0.45c1.233,0.233,3.55,0.783,6.95,1.649
		c2.867,0.733,5.184,1.2,6.95,1.4c3.6,0.434,8.017,0.033,13.25-1.2c2.9-0.666,7.267-1.717,13.1-3.15
		c-2.933,2.333-4.899,3.933-5.899,4.8c-0.733,0.633-0.75,1.3-0.05,2c0.199,0.2,0.399,0.35,0.6,0.45
		c-0.033,0.033-0.066,0.066-0.1,0.1c0.233,0.233,0.517,0.45,0.85,0.65c-0.267-0.067-0.517-0.117-0.75-0.15
		c-0.434-0.066-0.884-0.184-1.35-0.35c-0.601-0.233-1.25-0.517-1.95-0.851c-0.834-0.434-1.533-0.767-2.101-1
		c0.301-0.233,0.667-0.517,1.101-0.85c0.934-0.7,1.7-1.184,2.3-1.45c1.7-0.8,2.566-1.2,2.6-1.2c1.233-0.5,2.15-0.767,2.75-0.8
		c-2.6,0.033-5.383,0.533-8.35,1.5c-1.167,0.6-2.134,1.083-2.9,1.45c-1.033,0.5-1.767,0.733-2.2,0.7l0.2,0.1
		c-0.033,0-0.083,0-0.15,0c-1.467,0.4-2.667,0.7-3.6,0.9c-1.233,0.267-2.55,0.449-3.95,0.55c-1.6,0.1-2.95,0.05-4.05-0.15
		c-0.167-0.033-0.35-0.066-0.55-0.1c-0.066-0.033-0.133-0.05-0.2-0.05h-0.1c-0.967-0.233-2.3-0.584-4-1.051
		c-0.133-0.066-0.283-0.116-0.45-0.149c-2.233-0.634-4.05-1.033-5.45-1.2c-0.4-0.066-0.767-0.116-1.1-0.15
		c-2.2-0.3-3.833-0.533-4.9-0.699c-0.367-0.067-0.667-0.117-0.9-0.15c-0.034,0-0.067,0-0.1,0l-0.5-0.1H9.6l-0.05-0.025
		c-0.308-0.058-0.641-0.1-1-0.125L5.45,15c-0.034,0-0.067,0-0.1,0c-0.067,0-0.117,0-0.15,0c-0.467-0.033-0.9-0.066-1.3-0.1
		c-0.066,0-0.117,0-0.15,0l-2.8-0.45C0.617,14.35,0.317,14.25,0.05,14.15z M58.8,21c1.033-0.134,2.184-0.3,3.45-0.5l-2.2-0.2
		c1.2-0.066,2.283-0.233,3.25-0.5c1.434-0.366,2.884-1.133,4.351-2.3c0.699-0.533,1.683-1.366,2.949-2.5
		c1.067,0,1.45,0.483,1.15,1.45c-0.167,0.633-0.434,1.149-0.8,1.55c-1.467,0.233-2.684,0.616-3.65,1.15
		c-1.366,0.733-2.767,1.25-4.2,1.55c-0.133,0-0.267,0.017-0.399,0.05C61.767,20.884,60.467,20.967,58.8,21z M70.4,13.75
		c-1.667-0.233-3.051-0.65-4.15-1.25l8.5,1.5C72.616,13.934,71.167,13.85,70.4,13.75z M68.3,9.95C68.167,9.183,68.65,8.533,69.75,8
		l3,2c-0.967,0.033-1.7,0.05-2.2,0.05C69.65,10.083,68.9,10.05,68.3,9.95z M61.7,5.3c0.833-0.733,1.85-1,3.05-0.8v1
		c-0.7,0.033-1.217,0.05-1.55,0.05C62.634,5.55,62.134,5.467,61.7,5.3z M78.75,11c-1.533,0.267-2.533-0.033-3-0.9l0.5-0.1L78.75,11z
		 M45.85,7.65c0.467-0.233,1.267-0.45,2.4-0.65l6,0.5c-0.1,1.367-1.667,2.283-4.7,2.75c-3,0.467-4.6,0.233-4.8-0.7
		C44.583,8.717,44.95,8.083,45.85,7.65z M45.75,7c-0.967-0.067-2.6,0.033-4.9,0.3c-2.133,0.267-3.783,0.317-4.95,0.15
		c0.1-0.1,0.217-0.2,0.35-0.3C35.083,7.117,34.2,6.9,33.6,6.5C33.833,6,34.383,5.833,35.25,6l2.05,0.45
		c0.967-0.534,2.2-0.983,3.7-1.35c1.333-0.3,3.25-0.667,5.75-1.1L45.75,7z M56.95,12.1c0.2-0.133,0.633-0.333,1.3-0.6l5,3
		c-1.8,0.134-3.066,0.167-3.8,0.1c-1.566-0.166-2.684-0.649-3.351-1.449C56.267,12.717,56.55,12.367,56.95,12.1z M56.3,9.35
		C56.167,8.517,56.533,7.967,57.4,7.7c0.633-0.233,1.416-0.3,2.35-0.2l1,2c-1,0.067-1.75,0.1-2.25,0.1
		C57.6,9.633,56.866,9.55,56.3,9.35z M24.8,5.85c1.667-0.3,2.65-0.583,2.95-0.85l-0.5,2c-0.1,0.5-0.75,0.733-1.95,0.7
		c-1,0-1.833-0.133-2.5-0.4C22.767,6.6,23.433,6.117,24.8,5.85z M22.25,12c0.333-0.833,1.167-1.167,2.5-1L22.25,12z M36.1,2.5
		c0.133-0.033,0.35-0.033,0.65,0l4,1c-2,0.133-3.683-0.067-5.05-0.6C35.8,2.667,35.933,2.533,36.1,2.5z M31.1,10.7
		c0.1-0.034,0.983-0.267,2.65-0.7l9,2.5c-0.467,0.5-1.717,0.75-3.75,0.75c-0.333,0-1.5-0.066-3.5-0.2c-1.3,0.066-2.417,0.066-3.35,0
		c-1.733-0.066-2.85-0.367-3.35-0.9C29.333,11.517,30.1,11.033,31.1,10.7z"/>
	<path style="fill-rule:evenodd;clip-rule:evenodd;fill:#BBB2A5;" d="M70.6,15c-1.267,1.134-2.25,1.967-2.949,2.5
		c-1.467,1.167-2.917,1.934-4.351,2.3c-0.967,0.267-2.05,0.434-3.25,0.5l-7.8-0.8c-0.733-0.033-1.2-0.05-1.4-0.05
		c-0.433,0.066-0.8,0.217-1.1,0.45c-0.2-0.101-0.4-0.25-0.6-0.45c-0.7-0.7-0.684-1.367,0.05-2c1-0.867,2.967-2.467,5.899-4.8
		C49.267,14.083,44.9,15.134,42,15.8c-5.233,1.233-9.65,1.634-13.25,1.2c-1.767-0.2-4.083-0.667-6.95-1.4
		c-3.4-0.866-5.716-1.416-6.95-1.649c-2.1-0.367-4.55-0.517-7.35-0.45c-3.267,0.2-5.717,0.333-7.35,0.4L0,14.15
		c0.067-0.134,0.133-0.25,0.2-0.351c0.066-0.1,0.133-0.2,0.2-0.3c1.3-1.933,3.867-3.5,7.7-4.7c2.333-0.7,5.566-1.633,9.7-2.8
		c4.567-2,8.05-3.383,10.45-4.15c3.9-1.233,7.567-1.85,11-1.85l8,0.5c5,0,9.667,0.633,14,1.9c2.3,0.667,3.8,1.033,4.5,1.1
		c0.3,0.033,0.8,0.033,1.5,0c0.667-0.067,1.167-0.067,1.5,0c1.2,0.2,3.033,0.917,5.5,2.15c0.767,0.367,3.033,0.833,6.8,1.4
		c1.767,0.467,2.884,1.067,3.351,1.8c-3.834,4.933-8.017,6.8-12.551,5.6c-0.233-0.066-0.383-0.134-0.449-0.2
		C71.134,14.517,70.866,14.767,70.6,15z M78.75,11l-2.5-1l-0.5,0.1C76.217,10.967,77.217,11.267,78.75,11z M61.7,5.3
		c0.434,0.167,0.934,0.25,1.5,0.25c0.333,0,0.85-0.017,1.55-0.05v-1C63.55,4.3,62.533,4.567,61.7,5.3z M68.3,9.95
		c0.601,0.1,1.351,0.133,2.25,0.1c0.5,0,1.233-0.017,2.2-0.05l-3-2C68.65,8.533,68.167,9.183,68.3,9.95z M70.4,13.75
		c0.767,0.1,2.216,0.184,4.35,0.25l-8.5-1.5C67.35,13.1,68.733,13.517,70.4,13.75z M56.3,9.35c0.566,0.2,1.3,0.283,2.2,0.25
		c0.5,0,1.25-0.033,2.25-0.1l-1-2c-0.934-0.1-1.717-0.033-2.35,0.2C56.533,7.967,56.167,8.517,56.3,9.35z M56.95,12.1
		c-0.4,0.267-0.684,0.617-0.851,1.05c0.667,0.8,1.784,1.283,3.351,1.449c0.733,0.067,2,0.034,3.8-0.1l-5-3
		C57.583,11.767,57.15,11.967,56.95,12.1z M45.75,7l1-3c-2.5,0.433-4.417,0.8-5.75,1.1c-1.5,0.367-2.733,0.816-3.7,1.35L35.25,6
		c-0.867-0.167-1.417,0-1.65,0.5c0.6,0.4,1.483,0.617,2.65,0.65c-0.133,0.1-0.25,0.2-0.35,0.3c1.167,0.167,2.817,0.117,4.95-0.15
		C43.15,7.033,44.783,6.933,45.75,7z M45.85,7.65c-0.899,0.434-1.267,1.067-1.1,1.9c0.2,0.934,1.8,1.167,4.8,0.7
		c3.033-0.467,4.601-1.383,4.7-2.75l-6-0.5C47.116,7.2,46.316,7.417,45.85,7.65z M31.1,10.7c-1,0.333-1.767,0.816-2.3,1.45
		c0.5,0.533,1.617,0.833,3.35,0.9c0.934,0.066,2.05,0.066,3.35,0c2,0.134,3.167,0.2,3.5,0.2c2.033,0,3.283-0.25,3.75-0.75l-9-2.5
		C32.083,10.433,31.2,10.667,31.1,10.7z M36.1,2.5c-0.167,0.033-0.3,0.167-0.4,0.4c1.367,0.533,3.05,0.733,5.05,0.6l-4-1
		C36.45,2.467,36.233,2.467,36.1,2.5z M22.25,12l2.5-1C23.417,10.833,22.583,11.167,22.25,12z M24.8,5.85
		c-1.367,0.267-2.033,0.75-2,1.45c0.667,0.267,1.5,0.4,2.5,0.4c1.2,0.033,1.85-0.2,1.95-0.7l0.5-2
		C27.45,5.267,26.467,5.55,24.8,5.85z M9.55,15.375c-0.132-0.017-0.265-0.025-0.4-0.025c-0.2-0.033-0.4-0.066-0.6-0.1
		C8.909,15.275,9.242,15.317,9.55,15.375z M0.2,14.25c-0.067-0.033-0.117-0.066-0.15-0.1c0.267,0.1,0.567,0.199,0.9,0.3
		C0.683,14.384,0.433,14.316,0.2,14.25z"/>
	<path style="fill-rule:evenodd;clip-rule:evenodd;fill:#A39A90;" d="M76.95,17.25c0.066,0.3,0.149,0.583,0.25,0.85
		c0.333,0.934,0.017,1.534-0.95,1.801s-1.616-0.067-1.95-1c0.101-0.034,0.2-0.067,0.3-0.101c0.601-0.233,0.817-0.666,0.65-1.3
		C75.917,17.4,76.483,17.316,76.95,17.25z M63.1,20.7c1,0.666,1.7,1.633,2.101,2.899c0.1,0.267,0.1,0.567,0,0.9h-0.05
		c-0.434,0-0.9,0-1.4,0c-4.066,0-8.366-0.316-12.9-0.95H50.8c-0.333-0.566-0.883-1.366-1.649-2.399c-0.301-0.367-0.551-0.7-0.75-1
		c0.466,0.166,0.916,0.283,1.35,0.35c0.233,0.033,0.483,0.083,0.75,0.15c1.1,0.6,2.833,0.816,5.2,0.649
		c0.866-0.066,1.899-0.166,3.1-0.3c1.667-0.033,2.967-0.116,3.9-0.25C62.833,20.717,62.967,20.7,63.1,20.7z M23.25,17.85
		c1.7,0.467,3.033,0.817,4,1.051c0,0.033,0,0.066,0,0.1c0.1-0.033,0.2-0.05,0.3-0.05c0.2,0.033,0.383,0.066,0.55,0.1
		c1.1,0.2,2.45,0.25,4.05,0.15c1.4-0.101,2.717-0.283,3.95-0.55c0.933-0.2,2.133-0.5,3.6-0.9c0.066,0,0.117,0,0.15,0l0.5,0.15
		c-0.467,0.166-0.95,0.333-1.45,0.5c-4,1.433-6.2,2.216-6.6,2.35c3.434-0.167,5.417-0.25,5.95-0.25
		c-3.067,0.167-5.417,0.283-7.05,0.35c-2.934,0.134-5.25,0-6.95-0.399c-0.4-0.101-1.067-0.367-2-0.8c0.333,0.133,0.733,0.3,1.2,0.5
		C23.35,19.45,23.283,18.684,23.25,17.85z M9.15,15.35c0.5,0.301,1.033,0.634,1.6,1c0.167-0.267,0.367-0.5,0.6-0.699
		c1.066,0.166,2.7,0.399,4.9,0.699C14.683,16.65,13.6,17.333,13,18.4c-0.467-0.134-0.933-0.267-1.4-0.4l-5.75-1.6
		C5.45,16.267,5.1,16.134,4.8,16l-0.3-0.2c-0.333-0.267-0.533-0.566-0.6-0.899c0.4,0.033,0.833,0.066,1.3,0.1
		c0.033,0,0.083,0,0.15,0c0.033,0,0.066,0,0.1,0l3.1,0.25C8.75,15.283,8.95,15.316,9.15,15.35z"/>
	<path style="fill-rule:evenodd;clip-rule:evenodd;fill:#D2C8BA;" d="M60.05,20.3l2.2,0.2c-1.267,0.2-2.417,0.366-3.45,0.5
		c-1.2,0.134-2.233,0.233-3.1,0.3c-2.367,0.167-4.101-0.05-5.2-0.649c-0.333-0.2-0.616-0.417-0.85-0.65
		c0.033-0.033,0.066-0.066,0.1-0.1c0.3-0.233,0.667-0.384,1.1-0.45c0.2,0,0.667,0.017,1.4,0.05L60.05,20.3z"/>
</g>
</svg>
