<?xml version="1.0" encoding="iso-8859-1"?>
<!-- Generator: Adobe Illustrator 15.1.0, SVG Export Plug-In . SVG Version: 6.00 Build 0)  -->
<!DOCTYPE svg PUBLIC "-//W3C//DTD SVG 1.1//EN" "http://www.w3.org/Graphics/SVG/1.1/DTD/svg11.dtd">
<svg version="1.1" id="Layer_1" xmlns="http://www.w3.org/2000/svg" xmlns:xlink="http://www.w3.org/1999/xlink" x="0px" y="0px"
	 width="464.65px" height="102.4px" viewBox="0 0 464.65 102.4" style="enable-background:new 0 0 464.65 102.4;"
	 xml:space="preserve">
<g>
	<g>
		<path style="fill-rule:evenodd;clip-rule:evenodd;fill:#8D959E;" d="M460.4,67.8l-0.101,0.9c-0.733-1.101-1.366-2.733-1.899-4.9
			c-0.467-1.767-0.75-3.283-0.851-4.55c-0.066-1.033-0.083-2.316-0.05-3.85c0.033-1.733,0.05-3.034,0.05-3.9
			c0-2.333-0.217-4.267-0.649-5.8c-0.5-1.8-1.417-3.5-2.75-5.1c-0.134,0.767-0.184,1.75-0.15,2.95c0,0.667,0.033,1.667,0.1,3
			c-3.199-4.767-5.35-9.8-6.449-15.1c-0.301-1.467-0.2-3.5,0.3-6.1c0.3-1.567,0.5-2.883,0.6-3.95c2.8-1.467,3.334-3.117,1.601-4.95
			c-0.534-0.534-1.15-1.034-1.851-1.5c0.8,0.2,1.617,0.667,2.45,1.4l1.2,1.15c0.6,0.667,1.1,1.767,1.5,3.3
			c0.233,0.833,0.566,2.017,1,3.55c0.8,2.267,2.25,5.217,4.35,8.85c2.367,4.133,3.917,7.017,4.65,8.65
			c1.8,4.066,1.55,8.917-0.75,14.55c-0.634,1.5-1.134,3.3-1.5,5.399c-0.033,0.267-0.283,2.117-0.75,5.55
			C460.417,67.483,460.4,67.634,460.4,67.8z M253.25,86.05c-0.667,0.467-1.65,1.15-2.95,2.05c-1.133,0.733-2.149,1.267-3.05,1.601
			c-0.934,0.399-1.866,0.616-2.8,0.649c-1.934,0.167-3.75-0.083-5.45-0.75c-1.767-0.733-3.167-1.85-4.2-3.35l-0.55-0.95
			c0.467-0.233,1.116,0.033,1.95,0.8c1.133,1.034,1.767,1.584,1.899,1.65c0.601,0.333,1.4,0.583,2.4,0.75
			c0.6,0.134,1.45,0.267,2.55,0.4c2.767,0.399,6.101-0.817,10-3.65l1.25-0.95c0.967-0.733,1.601-1.533,1.9-2.399
			c0.166-0.4,0.283-0.851,0.35-1.351c0.3-1.366,0.601-2.3,0.9-2.8c1.066-1.533,1.783-2.717,2.149-3.55
			c0-2.066,0.017-3.634,0.051-4.7c0-1.833,0.05-3.35,0.149-4.55l0.25-1.95c0.2-0.634,0.283-1.05,0.25-1.25
			c0-0.233-0.25-0.7-0.75-1.4c-0.7-1.033-1.533-2-2.5-2.899c-0.899-0.8-1.983-1.5-3.25-2.101c-0.233-0.1-0.45-0.199-0.649-0.3
			c1.833-0.133,4-0.3,6.5-0.5c0.267,0.767,1.05,2.033,2.35,3.8c1.1,1.467,1.616,2.801,1.55,4c-0.033,1-0.1,2.567-0.2,4.7
			c-0.133,1.867-0.399,3.417-0.8,4.65c0.033,0.467,0,0.983-0.1,1.55c-0.134,0.7-0.467,1.55-1,2.55c-0.7,1.367-1.117,2.217-1.25,2.55
			c-0.767,1.867-1.634,3.317-2.601,4.351c-0.833,0.934-2.183,1.983-4.05,3.149L253.25,86.05z M427.45,49.25
			c-0.467-0.667-1.033-1.317-1.7-1.95c-0.267-0.2-0.517-0.4-0.75-0.6l-5.2-5.45c-0.233-0.567-0.383-1.167-0.45-1.8
			c-0.1-0.7-0.116-1.483-0.05-2.35c0.101-2.367,1.75-4.483,4.95-6.35c1.533-0.867,4.217-1.983,8.05-3.35
			c1.767-0.633,4.467-1.517,8.101-2.65c-0.534,1.367-1.267,3.067-2.2,5.1c-1.767,5.167-2.184,10-1.25,14.5
			c0.166,0.8,0.95,3.117,2.35,6.95c1,2.8,1.417,5.2,1.25,7.2c-0.066,1.167-0.399,2.9-1,5.2c-0.6,2.233-0.934,3.95-1,5.149
			c-0.133,4.467,0.233,7.834,1.101,10.101c0.633,1.566,1.899,3.184,3.8,4.85c1.033,0.934,2.6,2.283,4.7,4.05
			c-1.167,0.733-2.534,1.634-4.101,2.7l-1.7,1.15c-0.6,0.366-1.216,0.75-1.85,1.149c-3.033,1.767-5.866,2.95-8.5,3.551
			c-2.733,0.6-5.816,1.05-9.25,1.35l-1.75,0.1c-0.366,0-0.733,0.017-1.1,0.051c-0.134,0-0.267,0.017-0.4,0.05l-5.7,0.149
			c-0.1,0-0.2,0-0.3,0h-0.85c-1.601,0-3.317-0.017-5.15-0.05l0.05-0.05l1.55-3.1c0.334-0.967,0.601-1.684,0.801-2.15
			c0.166-0.533,0.383-0.983,0.649-1.35c0.267-0.367,0.584-0.667,0.95-0.9c0.066,0.434,0.066,1.5,0,3.2
			c-0.066,1.366,0.083,2.366,0.45,3c1.934-1.7,3.35-2.983,4.25-3.851c0.767-0.733,1.283-1.449,1.55-2.149
			c0.2-0.634,0.3-1.566,0.3-2.8c0.066-1.9-0.217-3.534-0.85-4.9c-0.733-1.7-1.917-2.783-3.55-3.25c0.133-0.333,0.383-0.65,0.75-0.95
			c0.8-0.566,1.383-1,1.75-1.3c0.699-0.533,1.133-1.066,1.3-1.6c0.166-0.467,0.184-1.15,0.05-2.051l0.8-1.6
			c0.601,1,1.017,2.517,1.25,4.55c0.3,2.601,0.5,4.117,0.601,4.55c0.166,0.634,0.666,1.384,1.5,2.25
			c0.8,0.867,1.283,1.617,1.449,2.25c0.2,0.801,0.067,1.601-0.399,2.4c-0.634,1.066-0.983,1.75-1.05,2.05
			c2.333-0.866,4.033-1.583,5.1-2.149c1.833-1.034,2.95-2.467,3.35-4.301c0.301-1.433,0.334-3.283,0.101-5.55
			c-0.367-2.566-0.617-4.416-0.75-5.55c-0.167-1.533-0.2-3.45-0.101-5.75c0.134-3.033,0.2-4.917,0.2-5.65
			c0.033-1.199,0.05-2.116,0.05-2.75c0-1.1-0.05-2.017-0.149-2.75c-0.066-0.399-0.334-1.183-0.8-2.35
			c0.166-1.366-0.2-2.733-1.101-4.1v-0.05L427.45,49.25z M440.65,44.9c1.833-0.033,2.916-0.617,3.25-1.75
			c0.1-0.333,0.149-1.767,0.149-4.3l1-15.5c0,2.167,0.084,5.417,0.25,9.75c0.167,4.333,0.25,7.6,0.25,9.8
			c0,1.833-0.184,4.483-0.55,7.95c-0.767-0.167-1.733-1.033-2.9-2.6C440.9,46.65,440.417,45.533,440.65,44.9z M406.6,58.1
			c1.733,1,2.601,3.25,2.601,6.75c0,0.7-0.066,1.517-0.2,2.45c-1.533,0.267-2.483,0.267-2.85,0c-0.267-0.2-0.551-0.733-0.851-1.6
			c-0.434-1.233-0.649-1.867-0.649-1.9c-0.434-1-0.684-2.2-0.75-3.6c-0.067-1.634,0.216-2.8,0.85-3.5l1,1L406.6,58.1z M360.6,98.3
			l-3.1-0.05c-3.1,0-5.3,0.033-6.6,0.1c0.899-1.199,1.6-1.983,2.1-2.35c0.566-0.434,1.483-0.9,2.75-1.4
			c1.5-0.6,2.483-1.033,2.95-1.3c2.434-1.333,4.583-3.316,6.45-5.95c0.966-1.3,1.616-2.533,1.949-3.699
			c0.034-0.101,0.15-0.717,0.351-1.851c0.133-0.733,0.333-1.316,0.6-1.75l0.351-1c0,3.566-0.117,6.233-0.351,8
			c-0.2,1.667-0.333,2.667-0.399,3c-0.233,1.2-0.617,2.117-1.15,2.75c-0.4,0.434-1.316,1.217-2.75,2.351c-1.2,0.866-2.2,1.866-3,3
			L360.6,98.3z M389.1,97.85h-1.449c-2.334,0.067-4.351,0.233-6.051,0.5c0.2-0.267,0.384-0.6,0.551-1
			c0.166-0.267,0.366-0.916,0.6-1.949c0.066-0.301,0.217-0.7,0.45-1.2c0.267-0.533,0.434-0.917,0.5-1.15
			c0.066-0.267,0.116-0.666,0.149-1.2c0.034-0.533,0.084-0.933,0.15-1.199c0.366-1.301,0.616-2.284,0.75-2.95
			c0-0.934,0.1-1.601,0.3-2c0.134-0.233,0.4-0.584,0.8-1.05c0.367-0.467,0.634-0.867,0.801-1.2c-0.934,0.333-1.617,0.566-2.051,0.7
			c-0.8,0.233-1.583,0.283-2.35,0.149l0.2-0.3c0.2-0.267,0.483-0.5,0.85-0.7L383.9,82.9c0.633-0.5,1.25-1.317,1.85-2.45
			c0.366-0.7,0.65-1.467,0.85-2.3c0.233-1.034,0.417-1.851,0.551-2.45c0.8,0.5,1.449,2.5,1.949,6c0.233,2.066,0,4.166-0.699,6.3
			c-0.434,1.167-0.584,2.35-0.45,3.55c0.066,0.5,0.333,1.733,0.8,3.7C388.983,95.983,389.1,96.85,389.1,97.85z M336.65,100.8
			c-0.934,0-1.95-0.017-3.051-0.05c-1.533-0.066-2.899-0.134-4.1-0.2c0.5-0.333,0.8-0.55,0.9-0.649
			c0.699-0.7,1.267-1.801,1.699-3.301c0.101-0.366,0.134-1.633,0.101-3.8c-0.033-1.8,0.166-2.916,0.6-3.35
			c0.367,0.434,0.816,1.434,1.351,3C335.316,95.483,336.15,98.267,336.65,100.8z M295.1,57.75l-0.05-0.05l2.25-0.101l3.75-0.25
			c-0.633,0.134-1.083,0.534-1.35,1.2c-0.167,0.367-0.367,0.967-0.601,1.8l-2.3,5.9c-0.066-1.9-0.133-3.333-0.2-4.3
			c-0.066-1.733-0.5-3.066-1.3-4L295.1,57.75z M274.7,97.45c-1.033,0.333-1.867,0.583-2.5,0.75l-0.4,0.149
			c-0.166,0-0.3,0.017-0.399,0.051c-3.067,0.699-6.317,1.3-9.75,1.8c0.3-0.934,1.033-1.917,2.199-2.95
			c1.367-1.033,2.317-1.783,2.851-2.25c1.1-0.934,1.866-2,2.3-3.2c0.4-1.066,0.583-2.383,0.55-3.95c0-2.633-0.616-5.633-1.85-9
			c-0.434-1.166-0.667-2.616-0.7-4.35c0.033-1.467,0.05-2.667,0.05-3.6c0.134,1.966,1.15,4.333,3.05,7.1
			c2.167,3.2,3.167,5.783,3,7.75c-0.033,0.467-0.216,1.25-0.55,2.35c-0.3,1-0.467,1.767-0.5,2.301c-0.033,0.767,0.2,1.55,0.7,2.35
			c0.833,1.3,1.267,2,1.3,2.1C274.384,95.583,274.6,96.45,274.7,97.45z M162.75,98.25l-21.05,0.1c1.5-2,2.617-3.149,3.35-3.449
			c0.633-0.267,1.233-0.301,1.8-0.101c1.1,0.4,1.683,0.601,1.75,0.601c0.667,0.133,1.367,0.166,2.1,0.1
			c0.933-0.066,1.566-0.267,1.9-0.6c1.066-0.967,1.083-2.834,0.05-5.601c-1.4-3.8-2.1-5.733-2.1-5.8c-0.3-3.8-0.433-6.4-0.4-7.8
			c0.6,2.434,1.217,4.35,1.85,5.75c0.233,0.5,0.483,1.483,0.75,2.95c0.267,1.267,0.6,2.216,1,2.85v-1.4l0.2,0.4
			c0.167,0.467,0.4,0.967,0.7,1.5c0.5,0.934,1.15,1.917,1.95,2.95c0.167,0.166,0.967,1.1,2.4,2.8c0.367,0.467,0.95,1.267,1.75,2.4
			C161.483,96.9,162.15,97.684,162.75,98.25z M136.85,98.35H111c3.1-0.933,5.2-1.949,6.3-3.05c0.7-0.666,0.967-1.434,0.8-2.3
			c-0.067-0.5-0.4-1.283-1-2.35c-0.233-0.4-0.733-1.117-1.5-2.15c-0.667-0.9-1.133-1.616-1.4-2.15
			c-0.367-0.666-0.567-1.466-0.6-2.399c-0.067-1.634-0.1-2.483-0.1-2.55c-2.767-0.233-4.75-0.25-5.95-0.051
			c-0.4,0.067-1.233,0.4-2.5,1c-0.9,0.434-1.683,0.584-2.35,0.45c0.733-0.633,1.283-1.116,1.65-1.45
			c0.533-0.466,0.816-0.966,0.85-1.5c0.933-0.133,2.417-0.283,4.45-0.449c1.9-0.167,3.367-0.334,4.4-0.5
			c0.4-1.167,0.633-2.801,0.7-4.9c0.1-2.566,0.217-4.25,0.35-5.05c-0.033,0.967,0.167,2.2,0.6,3.7c0.6,2.133,0.933,3.366,1,3.699
			c0.133,0.733,0.233,1.733,0.3,3c0.033,1.434,0.083,2.417,0.15,2.95c1.5,0.5,2.6,0.101,3.3-1.2c0.6-1.699,1.017-2.899,1.25-3.6
			c0.333-1,1.316-2.65,2.95-4.95c1.434-2,2.25-3.75,2.45-5.25c0.2-1.6,0.283-3.366,0.25-5.3c-0.067-2.134-0.283-3.85-0.65-5.15
			c-0.267-0.966-0.917-2.25-1.95-3.85l-1.55-2.95c3.367,0,5.883,0.117,7.55,0.35c1.5,0.2,2.983,0.6,4.45,1.2
			c1.667,0.7,2.966,1.534,3.9,2.5l0.35,0.551l-0.5,1.75c-1.067,3.699-1.367,7.533-0.9,11.5c0.133,0.966,0.483,2.466,1.05,4.5
			c0.566,1.933,0.9,3.433,1,4.5c0.033,0.366,0,1.05-0.1,2.05c-0.067,0.899-0.05,1.583,0.05,2.05c0.1,0.533,0.333,1.25,0.7,2.15
			c0.433,1,0.7,1.699,0.8,2.1c-2.3-1.8-3.75-3.267-4.35-4.4c-0.333-0.6-0.517-1.333-0.55-2.199c-0.033-1.4-0.066-2.167-0.1-2.301
			c-0.066-1.866-0.233-3.233-0.5-4.1c-0.433-1.533-1.433-2.167-3-1.9c-0.867,0.167-1.466,0.567-1.8,1.2
			c-0.2,0.367-0.433,1.134-0.7,2.3c-0.133,0.567-0.633,2.351-1.5,5.351c-0.633,2.1-0.966,3.916-1,5.45c0,0.633-0.017,1.633-0.05,3
			c0.033,1.199,0.183,2.149,0.45,2.85c0.466,1.2,1.667,2.55,3.6,4.05C135.15,96.983,136.75,98.25,136.85,98.35z"/>
		
			<linearGradient id="SVGID_1_" gradientUnits="userSpaceOnUse" x1="2.9946" y1="41.2739" x2="449.5049" y2="41.2739" gradientTransform="matrix(0.9986 -0.0537 0.0537 0.9986 -1.303852e-005 9.241700e-005)">
			<stop  offset="0" style="stop-color:#E7E7E8"/>
			<stop  offset="1" style="stop-color:#C3CED9"/>
		</linearGradient>
		<path style="fill-rule:evenodd;clip-rule:evenodd;fill:url(#SVGID_1_);" d="M448.55,21.4h-0.05c-2.033,1.1-4.684,2.2-7.95,3.3
			c-0.033,0-0.083,0.017-0.149,0.05c-3.634,1.133-6.334,2.017-8.101,2.65c-3.833,1.367-6.517,2.483-8.05,3.35
			c-3.2,1.867-4.85,3.983-4.95,6.35c-0.066,0.867-0.05,1.65,0.05,2.35c-1.767-0.167-3.85,0.167-6.25,1
			c-2.366,0.8-5.116,2.133-8.25,4c-1.8,1.066-4.399,2.7-7.8,4.9c-2.833,2.167-5.05,3.583-6.649,4.25c0.8-0.033,1.566-0.066,2.3-0.1
			c-3.533,0.233-6.217,0.4-8.05,0.5c-7,0.434-14.7,0.25-23.101-0.55c0.733-1.066,1.25-1.883,1.55-2.45l0.851-1.45
			c0.333-0.533,0.7-0.933,1.1-1.2c0.834-0.267,1.434-0.533,1.8-0.8c1.367-0.966,0.95-1.517-1.25-1.65
			c-2.6,0.1-4.066,0.15-4.399,0.15h-12.05c-2.034-0.033-3.967,0.383-5.801,1.25c-0.033,0-1.767,1-5.199,3
			c-1.334,0.8-2.9,1.417-4.7,1.851h-0.101c-0.199,0-0.399,0-0.6,0c-5.533,0-9.733,0.017-12.6,0.05
			c-5.134,0.066-9.351,0.45-12.65,1.149c-1.2,0.267-2.4,0.5-3.6,0.7c0.699-2.933,0.733-6.183,0.1-9.75
			c-0.3-1.9-0.467-2.883-0.5-2.95c-0.3-0.833-1-1.133-2.1-0.9c-1.067,0.233-2.284,0.716-3.65,1.45c-0.767,0.4-1.917,1.033-3.45,1.9
			c-1.866,1-4.083,1.967-6.649,2.9c-0.5,0.167-2.767,0.933-6.801,2.3c-2.133,0.7-6.733,2.35-13.8,4.95
			c1.134-0.033,2.217-0.033,3.25,0c-0.6,0-1.2,0-1.8,0c-1.8,0.033-3.75,0.133-5.85,0.3c-1.034,0.1-2.034,0.2-3,0.3
			c-2.5,0.2-4.667,0.367-6.5,0.5c-1.367,0.101-2.534,0.167-3.5,0.2c-1.534,0.066-3.25,0.033-5.15-0.1
			c-1.167-0.067-2.9-0.217-5.2-0.45c-1.566-0.134-4.583-0.184-9.05-0.15c-5.133,0.033-12.183,0.2-21.15,0.5
			c-11.267,0.867-19.65,1.45-25.15,1.75c-6.733,0.334-11.583,0.467-14.55,0.4c-5.233-0.167-10.017-0.851-14.35-2.05
			c-1.466-0.4-3.816-1.101-7.05-2.101c-3.067-0.934-5.433-1.617-7.1-2.05c-0.6-0.167-1.316-0.333-2.15-0.5h0.05
			c0.633-0.2,1.2-0.483,1.7-0.85c0.967-0.767,1.517-1.816,1.65-3.15c0.1-1.167-0.117-2.317-0.65-3.45
			c-0.733-1.533-0.983-2.867-0.75-4c0.133-0.767,0.467-1.45,1-2.05c0.1-0.1,0.35-0.267,0.75-0.5c0.3-0.167,0.483-0.417,0.55-0.75
			c-1.966-0.267-4.7-0.467-8.2-0.6c-3.833-0.133-6.583-0.283-8.25-0.45c-2.3-0.233-3.817-0.367-4.55-0.4
			c-1.767-0.033-3.3,0.117-4.6,0.45c-2.267,0.667-5.2,1.783-8.8,3.35c-4.233,1.867-7.117,3.066-8.65,3.6
			c-1.133,0.433-2.983,0.783-5.55,1.05c-1.1,0.133-2.35,0.417-3.75,0.85c-1.567,0.566-2.767,0.967-3.6,1.2
			c-2.333,0.7-4.783,1.567-7.35,2.6c-1,0.467-1.783,0.684-2.35,0.65l-1.2,1c7.167-1.233,12.017-1.983,14.55-2.25
			c-8.267,1.333-14.533,2.317-18.8,2.95c-7.667,1.133-14.017,1.333-19.05,0.6c-1.2-0.167-2.683-0.45-4.45-0.85
			c-0.667-0.167-1.367-0.333-2.1-0.5c-3.467-0.867-5.65-1.4-6.55-1.6c-0.733-0.133-1.833-0.467-3.3-1
			c-1.467-0.5-2.583-0.816-3.35-0.95c-0.9-0.167-2.25-0.35-4.05-0.55c-1.934-0.2-3.25-0.35-3.95-0.45
			c-2.633-0.434-4.767-0.9-6.4-1.4c-1.933-0.566-3.933-1.4-6-2.5c-1.067-0.533-2.3-1.216-3.7-2.05c-2.867-1.7-4.25-2.8-4.15-3.3
			c0.033-0.233,0.2-0.5,0.5-0.8c0.233-0.267,0.533-0.55,0.9-0.85c1.167-0.966,1.767-1.466,1.8-1.5c0.5-0.566,1.267-1.233,2.3-2
			c1.133-0.867,1.917-1.517,2.35-1.95c2.367-2.7,4.267-4.65,5.7-5.85c1.8-1.533,3.267-2.667,4.4-3.4c1.6-1.033,3.267-1.783,5-2.25
			c1.167-0.333,2.833-0.8,5-1.4c1.9-0.534,3.55-1.117,4.95-1.75c1-0.434,2.567-1.333,4.7-2.7c1.933-1.3,3.5-2.167,4.7-2.6
			c0.633-0.233,1.55-0.483,2.75-0.75c1.3-0.267,2.2-0.483,2.7-0.65c2.567-0.833,5.05-1.833,7.45-3c1.133-0.533,2.583-0.933,4.35-1.2
			C65.483,2.383,67,2.2,69,2c1.433-0.233,3.217-0.4,5.35-0.5c1.2-0.033,2.983-0.1,5.35-0.2c2.133-0.1,5.367-0.316,9.7-0.65
			c3.767-0.2,7-0.183,9.7,0.05c4.9,0.466,10.066,0.7,15.5,0.7c2.566,0,8.167,0.117,16.8,0.35c2.367,0.067,5.4,0.267,9.1,0.6
			c-0.4,0.333-0.783,0.783-1.15,1.35c-0.367,0.533-0.583,0.983-0.65,1.35c1.033,0.5,2.75,0.717,5.15,0.65
			c1.333-0.034,3.05-0.133,5.15-0.3c5.2,0,10.383-0.3,15.55-0.9c0.034,0,0.067,0,0.1,0c0.333,0.033,0.667,0.05,1,0.05
			c7.067,0.233,16.133-0.133,27.2-1.1c15.933-1.367,24.983-2.1,27.15-2.2c0.3,0,3.017-0.183,8.15-0.55c0.3-0.034,0.6-0.05,0.9-0.05
			l-0.65,0.4c-0.333,0.267-0.733,0.784-1.2,1.55c-0.434,0.733-0.833,1.233-1.2,1.5c-0.333,0.267-0.833,0.517-1.5,0.75
			c-0.733,0.267-1.267,0.467-1.6,0.6c-1.033,0.4-2.25,0.767-3.65,1.1c-1.633,0.367-2.883,0.65-3.75,0.85
			c-1.9,0.434-4.067,1.167-6.5,2.2c-0.133,0.066-2.217,1.033-6.25,2.9c-0.8,0.367-2.233,0.983-4.3,1.85
			c0.066,0,0.15,0.017,0.25,0.05c-0.1,0.434-0.417,0.9-0.95,1.4c-0.3,0.267-0.75,0.65-1.35,1.15c-1,0.966-2.25,2.566-3.75,4.8
			c-0.767,0.967-2.083,2.183-3.95,3.65c-1.934,1.567-3.267,2.767-4,3.6c0.733-0.033,1.867-0.45,3.4-1.25
			c3.6-1.367,7.433-2.15,11.5-2.35c3.167-0.133,7.45,0.033,12.85,0.5c6.233,0.533,10.517,0.817,12.85,0.85
			c0.934,0,2.383,0.017,4.35,0.05c1.7-0.1,3.083-0.483,4.15-1.15c1.101-0.667,2.351-1.617,3.75-2.85
			c2.101-1.833,3.267-2.85,3.5-3.05c1-0.8,2.351-1.633,4.05-2.5c1.967-0.967,3.4-1.7,4.301-2.2c0.866-0.466,1.949-1.233,3.25-2.3
			c1.466-1.233,2.533-2.067,3.199-2.5C259.95,7.783,263,5.867,265,4.5c0.267,0,0.55,0,0.85,0c3.334,0.067,7.967-0.083,13.9-0.45
			c5.934-0.333,13.7-0.9,23.3-1.7c12.066-1,19.834-1.617,23.3-1.85c7.067-0.467,12.45-0.617,16.15-0.45l0.15,0.35
			c-1.067,0.3-1.334,0.817-0.801,1.55l1,0.35c-0.1,0.967-0.416,1.733-0.949,2.3c-0.467,0.5-1.15,0.967-2.051,1.4
			c-0.5,0.267-1.25,0.633-2.25,1.1c-1.966,1.1-3.233,1.75-3.8,1.95c-0.866,0.333-2.066,0.517-3.6,0.55
			c-2.267,0.033-3.517,0.066-3.75,0.1c-1.101,0.1-2.55,0.316-4.351,0.65c-2.166,0.367-3.616,0.6-4.35,0.7
			c-0.134,0.034-1.4,0.117-3.8,0.25c-1.634,0.1-2.867,0.317-3.7,0.65c1.7,0.333,4.017,0.45,6.95,0.35c1.633-0.033,4-0.117,7.1-0.25
			h7.101c1.733,0,3.066-0.083,4-0.25c1.267-0.2,2.5-0.65,3.699-1.35c1.534-0.9,2.967-1.6,4.301-2.1c0.533-0.2,1.433-0.4,2.699-0.6
			c1.167-0.167,2.051-0.4,2.65-0.7c0.333-0.167,0.866-0.4,1.6-0.7c0.634-0.267,1.101-0.567,1.4-0.9c0.566-0.6,0.816-1.383,0.75-2.35
			h0.3c2.134,0.1,4.267,0.05,6.4-0.15c0.866-0.1,1.733-0.3,2.6-0.6c3.101,0.167,6.584,0.2,10.45,0.1
			c4.167-0.367,6.55-0.567,7.15-0.6c2.699-0.167,5.017-0.184,6.949-0.05c0.5,0.034,1.334,0.167,2.5,0.4c1,0.2,1.817,0.316,2.45,0.35
			c0.7,0.034,1.9,0.05,3.601,0.05c1.533-0.033,2.733,0,3.6,0.1c1.167,0.133,2.366,0.4,3.6,0.8c0.334,0.1,0.784,0.25,1.351,0.45
			c-0.467-0.133-0.851-0.25-1.15-0.35c-1.166-0.4-2.25-0.667-3.25-0.8c-0.533,0.6-0.533,1.85,0,3.75c0.267,1,0.617,2.133,1.05,3.4
			c0.2,1.733-0.133,3.433-1,5.1c-0.366,0.7-0.966,1.483-1.8,2.35c-0.566,0.6-1.2,1.45-1.899,2.55
			c-0.867,1.333-1.467,2.216-1.801,2.65c0.634-0.033,1.617-0.217,2.95-0.55c1.467-0.367,2.483-0.583,3.05-0.65
			c1.4-0.133,3.45-0.183,6.15-0.15c2.767,0.033,4.816,0,6.15-0.1c2.333-0.233,4.816-0.9,7.449-2c0.567-0.233,1.334-0.517,2.301-0.85
			c0.733-0.333,1.233-0.867,1.5-1.6c0.3-0.767,0.399-1.5,0.3-2.2c-0.101-0.633-0.3-1.183-0.601-1.65c-0.5-0.567-0.933-1.067-1.3-1.5
			L418.9,8.3l-0.75-0.2c2.333,0.533,4.466,0.95,6.399,1.25c5.467,0.8,10.351,1.633,14.65,2.5c2.8,0.633,4.75,1.133,5.85,1.5
			c1.2,0.433,2.267,0.95,3.2,1.55c0,0.033,0.017,0.05,0.05,0.05c0.7,0.466,1.316,0.966,1.851,1.5
			C451.884,18.283,451.35,19.933,448.55,21.4z M425,46.7c0.233,0.2,0.483,0.4,0.75,0.6c0.667,0.633,1.233,1.284,1.7,1.95
			c0.035,0.038,0.068,0.087,0.1,0.15c0.9,1.367,1.267,2.734,1.101,4.1v0.05c-2.7,0.566-5.417,0.917-8.15,1.05
			c-0.066,0-0.116,0-0.15,0c-2.133,0.134-5.033-0.1-8.699-0.699c-3.367-0.534-5.983-0.834-7.851-0.9c0.967,0,2.033,0.066,3.2,0.2
			l9.45-7.75c1.399-0.967,2.684-2.05,3.85-3.25c0.033,0.066,0.066,0.117,0.101,0.15C421.167,43.35,422.7,44.8,425,46.7z M343.15,0.1
			c0.3,0,0.583,0.017,0.85,0.05h-0.2L343.15,0.1z M384.1,50.45c-0.633-0.534-1.616-0.567-2.949-0.1
			c-1.301,0.5-2.084,1.117-2.351,1.85c-0.3,0.767-0.25,1.434,0.15,2c1.2,0,3-0.066,5.399-0.2
			C384.85,52.2,384.767,51.017,384.1,50.45z M236.25,0.45c2.366,0.1,5.033,0.417,8,0.95c0.104,0.035,0.212,0.068,0.325,0.1
			c-2.558-0.472-4.717-0.772-6.476-0.9L236.25,0.45z"/>
		<linearGradient id="SVGID_2_" gradientUnits="userSpaceOnUse" x1="-0.0151" y1="58.6563" x2="464.6849" y2="58.6563">
			<stop  offset="0" style="stop-color:#CFD1D2"/>
			<stop  offset="1" style="stop-color:#B5BFCA"/>
		</linearGradient>
		<path style="fill-rule:evenodd;clip-rule:evenodd;fill:url(#SVGID_2_);" d="M448.25,14.9c0.8,0.167,1.634,0.65,2.5,1.45
			c-0.833-0.733-1.65-1.2-2.45-1.4C448.267,14.95,448.25,14.933,448.25,14.9z M454.55,83.4c-0.733-0.467-1.233-0.817-1.5-1.051
			c-1.033-0.966-1.916-2.149-2.649-3.55c-0.233-0.5-0.834-1.899-1.801-4.2c-1.6-3.8-2.566-8.366-2.899-13.699
			c-0.101-1.434-0.15-6.084-0.15-13.95c0.066,3.4,1.217,6.733,3.45,10c1.333,1.934,3.833,4.717,7.5,8.35
			c1.767,1.767,3.017,3.4,3.75,4.9l0.05-1.5l0.101-0.9c-0.067,0.834-0.117,2.2-0.15,4.101c-0.033,1.899-0.2,3.383-0.5,4.449
			C459.05,78.717,457.316,81.066,454.55,83.4z M442.35,91.7c-0.366,0.233-0.733,0.467-1.1,0.7c-0.267,0.166-0.517,0.316-0.75,0.449
			C441.134,92.45,441.75,92.066,442.35,91.7z M421,97.85c-0.5,0.034-1,0.067-1.5,0.101c0.134-0.033,0.267-0.05,0.4-0.05
			C420.267,97.866,420.634,97.85,421,97.85z M48.45,49.5c0.633,0.333,1.5,0.767,2.6,1.3c0.867,0.367,1.45,0.684,1.75,0.95
			c0.4,0.4,0.6,0.967,0.6,1.7c0.067,1.8-0.017,3.017-0.25,3.649c-0.3,0.867-0.833,1.967-1.6,3.301c-0.9,1.6-1.483,2.699-1.75,3.3
			c-0.733,1.6-1.216,3.684-1.45,6.25c-0.133,1.1-0.233,3.3-0.3,6.6l0.5-1.3c-0.033,1.4,0.034,3.45,0.2,6.15
			c0,0.833-0.017,1.366-0.05,1.6c-0.1,0.467-0.317,0.934-0.65,1.4C47.083,85.8,46.5,86.767,46.3,87.3
			c0.534,0.101,1.3,0.117,2.3,0.05c1.033-0.066,1.833-0.066,2.4,0c-0.367-0.033-1.333-0.017-2.9,0.051
			c-1.133,0.066-2.067-0.067-2.8-0.4c-1.533-1.3-3.267-2.3-5.2-3c-7.2-3.134-14.367-4.85-21.5-5.15c-1.333,0-2.434-0.033-3.3-0.1
			c-1.566-0.1-2.65-0.35-3.25-0.75c-0.667-0.434-1.316-1.483-1.95-3.15c-0.767-2.033-1.283-3.233-1.55-3.6
			c-0.333-0.467-1.333-1.65-3-3.55C4.383,66.333,3.533,65.05,3,63.85c-0.633-1.3-1.4-3.133-2.3-5.5
			c-0.767-2.033-0.917-4.333-0.45-6.899c0.2-1.067,0.85-3.267,1.95-6.6c0.333-1,0.6-2.133,0.8-3.4c0.233-1.534,0.4-2.733,0.5-3.6
			c0.2-1.267,0.45-2.133,0.75-2.6c0.267-0.433,0.65-0.717,1.15-0.85c-0.3,0.3-0.467,0.567-0.5,0.8c-0.1,0.5,1.283,1.6,4.15,3.3
			c1.4,0.833,2.633,1.517,3.7,2.05c2.067,1.1,4.067,1.934,6,2.5c1.633,0.5,3.767,0.967,6.4,1.4c0.7,0.1,2.017,0.25,3.95,0.45
			c1.8,0.2,3.15,0.383,4.05,0.55c0.767,0.133,1.883,0.45,3.35,0.95c1.467,0.533,2.567,0.867,3.3,1c0.9,0.2,3.083,0.733,6.55,1.6
			C47.083,49.167,47.783,49.333,48.45,49.5z M336.9,100.8c-0.067-1.399-0.233-3.5-0.5-6.3c-0.034-0.233-0.017-0.783,0.05-1.65
			c0-0.699-0.05-1.267-0.15-1.699c-0.666-1.434-1.05-2.584-1.149-3.45c-0.101-0.767-0.25-1.566-0.45-2.4
			c0-2.633,0.133-4.967,0.399-7c0.2-1.666,0.684-3.149,1.45-4.45c0.566-0.933,1.566-2.149,3-3.649c1.533-1.5,3.5-2.9,5.9-4.2
			c1.566-0.833,2.684-1.15,3.35-0.95c0.867,0.3,1.434,1.184,1.7,2.65c0.134,0.8,0.233,1.899,0.3,3.3c0.601,0.233,1.2-0.116,1.8-1.05
			c0.601-1.134,0.983-1.851,1.15-2.15c0.566-1.1,0.9-2.25,1-3.45c-0.033-0.899-0.05-1.566-0.05-2c-0.033-0.833,0.083-1.5,0.35-2
			l-1.3-0.649c0.9-0.867,1.616-1.434,2.15-1.7c0.833-0.434,1.833-0.65,3-0.65c0.267,0,1.683-0.017,4.25-0.05
			c1.733-0.033,3.149,0.017,4.25,0.15c0.566,0.066,1.517,0.116,2.85,0.149c1.233,0.067,2.184,0.233,2.85,0.5
			c1.2,0.5,2.017,1.2,2.45,2.101c0.4,0.733,0.566,1.783,0.5,3.149c0,0.267-0.083,0.784-0.25,1.551c-0.133,0.633-0.166,1.1-0.1,1.399
			c0,0.167,0.05,0.351,0.149,0.55c-1.066,0.834-1.666,1.667-1.8,2.5c-0.166,1.101-0.217,2.551-0.149,4.351
			c0.033,0.967,0.083,2.416,0.149,4.35c0,3.634-0.133,6.3-0.399,8c-0.5,2.967-1.551,5.384-3.15,7.25
			c0.366,0.066,0.917-0.184,1.65-0.75c0.8-0.633,1.316-1.05,1.55-1.25c1.333-0.866,2.166-1.5,2.5-1.899
			c0.533-0.634,0.767-1.784,0.7-3.45c-0.101-2.134-0.134-3.334-0.101-3.601c0.233-0.133,0.783-0.1,1.65,0.101
			c0.934,0.2,1.583,0.267,1.95,0.2c1-0.2,1.716-0.684,2.149-1.45c0.4-1.066,0.717-1.917,0.95-2.55c0.767-2,0.95-4.75,0.55-8.25
			c-0.5-4.534-0.717-7.317-0.649-8.351l-1.101,0.8c0.066-0.767,0.7-1.767,1.9-3c1.066-1.066,1.916-1.75,2.55-2.05
			c1.733-0.767,3.566-1.333,5.5-1.7c1.267-0.233,2.316-0.366,3.15-0.399c0.433,0,1.6,0.017,3.5,0.05c1.399,0,2.55-0.033,3.449-0.1
			c1.733-0.2,2.983-0.301,3.75-0.301c0.667,0.034,1.95,0.067,3.851,0.101c1.666,0.166,2.833,0.583,3.5,1.25
			c0.467,0.467,0.717,1.25,0.75,2.35c0,0.601-0.05,1.467-0.15,2.601v5c0,2.3,0.033,3.767,0.101,4.399c0.166,1.167,0.25,1.834,0.25,2
			l-0.15,0.8l-0.2-0.149c-0.133,0.166-0.583,0.633-1.35,1.399c-0.601,0.767-0.684,1.367-0.25,1.801c0.566,0.566,1.133,0.399,1.7-0.5
			c1.1,0.133,2.216-0.717,3.35-2.551l1.65-3.55l-0.851,1.95l-0.8,1.6c0.134,0.9,0.116,1.584-0.05,2.051
			c-0.167,0.533-0.601,1.066-1.3,1.6c-0.367,0.3-0.95,0.733-1.75,1.3c-1.301,0.733-2.117,1.601-2.45,2.601
			c-0.233,0.633-0.367,1.966-0.4,4c0,2.466-0.333,4.466-1,6c-0.267,0.366-0.483,0.816-0.649,1.35
			c-0.334,0.667-0.767,1.65-1.301,2.95c-0.466,1-1,1.767-1.6,2.3c-4.9-0.1-8.767-0.15-11.6-0.15c-2.567,0-4.551,0-5.95,0
			c-0.5-1.3-0.634-3.233-0.4-5.8c0.367-2.666,0.584-4.366,0.65-5.1c0.3-2.601,0.416-4.783,0.35-6.55
			c-0.033-1.067-0.3-2.184-0.8-3.351c-0.7-1.333-1.217-2.399-1.55-3.2c-0.834-1.866-1.55-3.733-2.15-5.6
			c-0.233-0.767-0.366-1.8-0.399-3.1c-0.034-1.534-0.101-2.584-0.2-3.15c-0.467,0.7-0.667,1.884-0.601,3.55
			c0.034,0.934,0.101,2.217,0.2,3.851c0,0.733,0.15,1.566,0.45,2.5c0.333,1.166,0.533,1.983,0.6,2.449
			c0.367,3.134-0.267,5.95-1.899,8.45l-0.4,0.5c-0.366,0.2-0.649,0.434-0.85,0.7c-0.4,0.233-0.95,0.35-1.65,0.35
			c-1.233,0.034-1.95,0.067-2.149,0.101c0.1,1.767-0.601,3.816-2.101,6.149c-1.566,2.434-3.233,3.867-5,4.301
			c-0.967,0.233-1.899,0.149-2.8-0.25c-1.033-0.434-1.4-1.167-1.1-2.2c0.066-0.167,0.283-0.367,0.649-0.601
			c0.467-0.333,0.717-0.517,0.75-0.55c0.7-0.8,1.167-1.399,1.4-1.8c0.333-0.6,0.55-1.316,0.649-2.15
			c0.367-2.566,0.4-5.133,0.101-7.699c-0.334-2.9-1.033-5.334-2.101-7.301c-0.666-1.199-1.699-2.583-3.1-4.149
			c-1.6-1.733-2.783-3.017-3.55-3.851c-1.233-1.433-2.184-2.466-2.851-3.1c-0.133-0.134-0.8-0.616-2-1.45
			c-0.633-0.467-1.1-0.916-1.399-1.35c0.5,0.934,1.184,2.217,2.05,3.85c0.9,1.667,1.55,3.15,1.95,4.45
			c0.566,1.767,0.85,4.15,0.85,7.15c0,3.1-0.133,5.35-0.399,6.75c-0.467,2.399-1.45,4.35-2.95,5.85c-1.5,1.533-3.783,3.2-6.851,5
			c-0.533,0.333-1.583,0.833-3.149,1.5c-1.367,0.634-2.267,1.283-2.7,1.95c-0.333,0.5-0.6,1.267-0.8,2.3
			c-0.101,0.6-0.25,1.45-0.45,2.55c0.1-0.033,0.2-0.05,0.3-0.05c-0.899,0.267-1.6,0.45-2.1,0.55
			C340.583,100.6,338.9,100.767,336.9,100.8z M409.2,64.85c0-3.5-0.867-5.75-2.601-6.75l-1.199-1.75
			c-1.267,0.034-2.217,0.101-2.851,0.2c-1.133,0.167-1.833,0.684-2.1,1.55c-0.101,0.301-0.134,0.717-0.101,1.25
			c0.034,0.267,0.067,0.684,0.101,1.25c-0.033,0.934-0.167,2.317-0.4,4.15c-0.033,2.434-0.05,3.733-0.05,3.9
			c0.2,1.433,0.9,2.366,2.1,2.8c1.034,0.434,2.15,0.533,3.351,0.3c1.267-0.267,2.233-0.833,2.899-1.7
			C409.217,68.983,409.5,67.25,409.2,64.85z M410.75,79.05c-1.267-0.1-2.434,0.283-3.5,1.15c-1.033,0.833-1.733,1.866-2.1,3.1
			c-0.301,0.867-0.467,1.75-0.5,2.65c-0.034,1.233,0.25,2.017,0.85,2.35c0.434,0.3,1.116,0.367,2.05,0.2
			c0.9-0.167,1.533-0.434,1.9-0.8c0.666-0.634,1.133-1.8,1.399-3.5c0.2-1.867,0.384-3.15,0.551-3.851L410.75,79.05z M300.55,57
			c3.667-0.667,6.184-0.983,7.55-0.95c1.467,0,3.684-0.05,6.65-0.149c2.934-0.134,5.15-0.2,6.65-0.2
			c4.166,0,10.333-0.117,18.5-0.351c1,0,1.683,0.051,2.05,0.15c0.5,0.167,1.017,0.55,1.55,1.15c0.467,0.533,0.717,0.816,0.75,0.85
			c0.233,0.2,0.583,0.4,1.05,0.6c0.5,0.233,1.267,0.417,2.3,0.551c1.2,0.166,2,0.316,2.4,0.449l-2.2,0.25
			c-2.467,0.134-4.066,0.351-4.8,0.65c-0.8,0.366-1.85,1.3-3.15,2.8c-0.5,0.601-1.199,1.634-2.1,3.101
			c-0.866,1.433-1.6,2.466-2.2,3.1c-0.8,0.8-1.3,1.483-1.5,2.05c-0.333,1-0.483,2.367-0.45,4.101c0,1,0.051,2.416,0.15,4.25v0.35
			c0,0.6,0.05,1.634,0.15,3.1c0,0.634-0.067,1.15-0.2,1.551c-0.3,0.866-1,1.899-2.101,3.1c-1.333,1.434-2.149,2.384-2.449,2.85
			c-0.267,0.434-0.5,1.2-0.7,2.301c-0.167,1.066-0.4,1.783-0.7,2.149c-0.566,0.733-1.467,1.167-2.7,1.3
			c-1.467-0.033-2.517-0.05-3.149-0.05c-0.101,0-1.917,0.15-5.45,0.45c-2.267,0.167-4.084,0.05-5.45-0.35c-1-0.301-2-0.934-3-1.9
			c-1.533-1.4-2.4-2.184-2.6-2.35c-0.4-0.301-1.051-0.684-1.95-1.15c-0.9-0.5-1.55-0.884-1.95-1.15c0,0.733,0.233,1.95,0.7,3.65
			c0.467,1.533,0.649,2.783,0.55,3.75c-0.033,0.667-0.1,1.1-0.2,1.3c-0.066,0.2-0.3,0.533-0.7,1l-0.1,0.15
			c-2.1-0.134-4.267-0.283-6.5-0.45c-6.533-0.533-11.5-0.884-14.9-1.05c-1.066-0.134-2.233-0.15-3.5-0.05
			c-0.1-0.034-0.267-0.101-0.5-0.2l0.101-0.101c1.633-1.267,2.616-2.183,2.95-2.75c0.533-0.8,0.466-2.083-0.2-3.85
			c-1.667-4.167-3.05-7.366-4.15-9.6l-0.25-0.7c0.467,0.7,0.884,1.149,1.25,1.35c0.101-0.533,0.017-1.25-0.25-2.149
			c-0.434-1.4-0.649-2.117-0.649-2.15c-0.267-1.3-0.417-2.85-0.45-4.65c0-0.267,0.017-1.85,0.05-4.75c0-0.633-0.1-1.233-0.3-1.8
			c-0.066-0.2-0.316-0.767-0.75-1.7c-0.667-1.267-1.15-2.199-1.45-2.8c-0.5-1-0.783-1.967-0.85-2.899
			c-0.134-1.267,0-2.733,0.399-4.4c0.3,0.467,1.117,0.75,2.45,0.85c0.7,0.067,1.634,0.117,2.8,0.15c4,0.7,7.483,1.233,10.45,1.6
			c2.566,0.367,5.1,0.5,7.6,0.4l0.2,0.2c-0.633,0.066-2.05,0.1-4.25,0.1l1,0.65c0.033,0.6,0.417,1.333,1.15,2.2
			c0.8,1,1.267,1.699,1.399,2.1c0.167,0.434,0.233,1.05,0.2,1.85c0,0.034-0.05,0.667-0.149,1.9c-0.2,2.4-0.301,4.816-0.301,7.25
			c0.034,1.566,0.567,3.134,1.601,4.7c1.267,1.899,2.083,3.2,2.45,3.899c-0.9-2.033-1.45-4.233-1.65-6.6
			c-0.233-2.533-0.033-4.884,0.6-7.05c0.301-1.134,0.95-2.117,1.95-2.95c0.566-0.467,1.601-1.116,3.101-1.95l2-1
			c0.333-0.2,0.683-0.5,1.05-0.899c0.434-0.467,0.75-0.784,0.95-0.95c0.733-0.601,1.699-0.884,2.899-0.851
			c1.134,0.034,2.101,0.334,2.9,0.9c0.333-1,0.566-1.783,0.7-2.35c0.233-1,0.267-1.834,0.1-2.5c-1.467-0.2-3.2-0.2-5.2,0
			c-2.267,0.3-3.967,0.517-5.1,0.649C302.366,57.083,301.65,57.066,300.55,57z M253.25,86.05c-0.767,1.233-1.733,2.134-2.9,2.7
			c-0.699,0.333-1.733,0.65-3.1,0.95c0.9-0.334,1.917-0.867,3.05-1.601C251.6,87.2,252.583,86.517,253.25,86.05z M295.05,57.7
			l2.4-0.2l-0.15,0.1L295.05,57.7z M272,54c0.733,0.033,1.45,0.083,2.15,0.15L271.8,54.7C271.866,54.467,271.934,54.233,272,54z
			 M267.85,64.25c0.434,0.9,1.067,1.866,1.9,2.9c-0.9-0.9-1.467-1.667-1.7-2.301L267.85,64.25z M256.55,80.55L256.2,81
			c-0.467,0.7-1.101,1.8-1.9,3.3l-1.25,0.95c-3.899,2.833-7.233,4.05-10,3.65c-1.1-0.134-1.95-0.267-2.55-0.4
			c-1-0.167-1.8-0.417-2.4-0.75c-0.133-0.066-0.767-0.616-1.899-1.65c-0.834-0.767-1.483-1.033-1.95-0.8l0.55,0.95L234.55,86
			c-0.3-0.3-0.816-0.934-1.55-1.9c-0.634-0.866-1.183-1.5-1.65-1.899c-0.2-0.167-0.717-0.517-1.55-1.05
			c-0.633-0.434-1.1-0.851-1.4-1.25c0.4,0.666,1.233,1.716,2.5,3.149c1.1,1.233,1.867,2.334,2.3,3.3
			c0.733,1.534,1.366,2.667,1.899,3.4c0.7,0.9,1.684,1.733,2.95,2.5c1.467,0.866,2.867,1.35,4.2,1.45
			c1.3,0.1,2.717-0.184,4.25-0.851c1.866-0.833,3.134-1.316,3.8-1.449c1.733-0.434,2.834-0.117,3.3,0.949
			c0.567,1.334-0.033,2.551-1.8,3.65c-0.899,0.566-2.3,1.15-4.2,1.75c-4.699,1.566-10.35,2.566-16.95,3
			c-0.667,0.033-4.15,0.417-10.45,1.15c-4.6-0.667-8-1.483-10.2-2.45c-1.733-0.767-2.85-1.783-3.35-3.05
			c-0.367-0.9-0.566-2.467-0.6-4.7c0-1.167-0.033-1.934-0.1-2.3c-0.167-0.767-0.55-1.45-1.15-2.051
			c-0.367-0.366-0.983-0.633-1.85-0.8c-0.934-0.166-1.567-0.416-1.9-0.75c-0.333-0.333-0.583-0.95-0.75-1.85
			c-0.066-0.3-0.167-1.066-0.3-2.3l0.45,1.25c-0.2-4.034-0.4-6.784-0.6-8.25c-0.033-0.167-0.133-1.301-0.3-3.4
			c-0.133-1.4-0.367-2.5-0.7-3.3c-0.533-1.233-0.917-2.15-1.15-2.75c-0.434-1.101-0.75-2.066-0.95-2.9l-0.5-2.5
			c1.033-0.8,3.3-1.533,6.8-2.2c1.034-0.199,2.317-0.3,3.85-0.3c0.833,0,2.1,0.017,3.8,0.05c1.733,0,4.283,0.117,7.65,0.351
			c3.4,0.233,5.95,0.35,7.65,0.35c0.533,0,1.883-0.1,4.05-0.3c1.667-0.167,3.017-0.167,4.05,0c0.7,0.134,1.7,0.45,3,0.95
			c0.4,0.1,1.134,0.2,2.2,0.3c0.967,0.1,1.684,0.25,2.15,0.45l0.55,0.3c-2.1,0.3-3.733,0.95-4.9,1.95
			c-0.566,0.467-1.233,1.25-2,2.35c-0.166,0.2-0.6,0.566-1.3,1.101c-0.533,0.399-0.916,0.8-1.149,1.199
			c-0.867,1.434-1.333,3.351-1.4,5.75c-0.033,1.367,0.017,3.434,0.15,6.2c0-2.5,0.333-4.366,1-5.6c0.466-0.867,1.583-2.4,3.35-4.601
			c1.366-1.699,2.616-2.816,3.75-3.35c0.267-0.134,0.8-0.233,1.6-0.3c0.267-0.066,1.217-0.517,2.851-1.351
			c0.899-0.433,1.45-0.699,1.649-0.8c0.634-0.233,1.233-0.316,1.801-0.25l-0.65-0.399c0.1-0.667-0.167-1.184-0.8-1.551
			c-0.834-0.333-1.467-0.583-1.9-0.75c-4.934-1.8-8.399-3.017-10.399-3.649l-2.05-0.65c2.3,0.4,4.284,0.667,5.95,0.8
			c2.5,0.167,4.101,0.317,4.8,0.45c2,0.3,3.5,0.816,4.5,1.55c0.434,0.301,1.034,0.917,1.801,1.851c0.699,0.8,1.333,1.366,1.899,1.7
			c1.834,1,3.467,1.699,4.9,2.1c0.5,0.134,1.283,0.283,2.35,0.45c0.9,0.2,1.566,0.533,2,1c-0.1,1.2-0.149,2.717-0.149,4.55
			c-0.034,1.066-0.051,2.634-0.051,4.7c-0.366,0.833-1.083,2.017-2.149,3.55C257.15,78.25,256.85,79.184,256.55,80.55z M198,102.3
			l-1.65-1.149c-0.567-0.434-1.05-0.95-1.45-1.551c-0.066-0.133-0.433-0.767-1.1-1.899c-0.8-1.434-1.267-2.417-1.4-2.95
			c-0.267-1.167-0.467-2.634-0.6-4.4c-0.133-2.066-0.233-3.583-0.3-4.55c-0.133-1.233-0.183-2.75-0.15-4.55
			c0.033-2.033,0.05-3.55,0.05-4.55c0-0.9,0.184-1.617,0.55-2.15c0.3-0.434,0.9-0.916,1.8-1.45c1.067-0.6,1.867-1.017,2.4-1.25
			l2.15,5.2c-0.566-0.733-1.183-1.05-1.85-0.95c-0.333,2.167-0.233,5.017,0.3,8.551c0.133,0.933,0.617,2.466,1.45,4.6
			c0.733,1.967,1.133,3.55,1.2,4.75c0.1,1.5,0.1,2.434,0,2.8c-0.033,0.267-0.2,0.634-0.5,1.101c-0.3,0.466-0.467,0.833-0.5,1.1
			c-0.133,0.767,0.217,1.884,1.05,3.35l3,0.051C200.717,102.434,199.233,102.4,198,102.3z M243.45,101.9
			c1.767-0.101,3.467-0.2,5.1-0.301c-0.666,0.067-1.316,0.117-1.95,0.15C245.6,101.816,244.55,101.866,243.45,101.9z M174.4,98.85
			c-1.4-0.166-2.65-0.283-3.75-0.35c-1.267-0.1-2.667-0.167-4.2-0.2c-0.667-0.633-1.817-1.533-3.45-2.7c-1.6-1.133-2.7-2-3.3-2.6
			c-2.667-2.667-4.35-4.417-5.05-5.25c-0.3-0.533-0.533-1.033-0.7-1.5l-0.2-0.4c0.233-3.899,0.333-6.833,0.3-8.8
			c0-1.767-0.233-3.184-0.7-4.25c-0.9-2.366-1.65-4.066-2.25-5.1c-0.6-0.8-1.017-1.4-1.25-1.8c-0.4-0.7-0.533-1.4-0.4-2.101
			c0.433-2.033,1.3-3.184,2.6-3.45c0.267-0.066,0.667-0.066,1.2,0c0.567,0.067,0.967,0.084,1.2,0.051c0.033,0,0.3-0.101,0.8-0.301
			c0.3-0.1,0.583-0.1,0.85,0c0.467,0.167,0.883,0.851,1.25,2.051c0.2,0.666,0.433,1.517,0.7,2.55c0.233,0.5,0.567,1.283,1,2.35
			c0.4,0.9,0.833,1.617,1.3,2.15c0.533-3.167,0.883-5.55,1.05-7.15l0.05-0.35c0.633-0.233,1.466-0.384,2.5-0.45
			c0.6-0.066,1.45-0.134,2.55-0.2c1.2-0.133,4.533-0.399,10-0.8c0.967-0.066,2.583-0.283,4.85-0.65c2.033-0.366,3.65-0.55,4.85-0.55
			c0.9,0,2.316,0.017,4.25,0.05c0.633,2.101,0.95,4.184,0.95,6.25c0,1.4-0.25,2.601-0.75,3.601c-0.133,0.267-0.8,1.283-2,3.05
			c-0.733,1.033-1.133,2.35-1.2,3.95c-0.034,0.934-0.05,2.333-0.05,4.2c-0.2,2.633-0.833,5.85-1.9,9.649
			c-0.133,0.434-0.333,1.101-0.6,2c-0.233,0.834-0.483,1.483-0.75,1.95c-0.267,0.5-0.667,0.934-1.2,1.3
			c-0.333,0.233-0.85,0.566-1.55,1c-0.367,0.3-0.85,0.684-1.45,1.15c-0.534,0.366-1.117,0.649-1.75,0.85
			C176.5,98.384,175.233,98.65,174.4,98.85z M147.1,69.7c-1.434-0.767-2.684-1.75-3.75-2.95c-1.2-1.333-1.9-2.667-2.1-4
			c0.2,0.3,0.6,0.833,1.2,1.6c0.167,0.233,0.367,0.634,0.6,1.2c0.2,0.533,0.4,0.934,0.6,1.2c0.367,0.434,0.867,0.917,1.5,1.45
			c0.333,0.267,0.867,0.684,1.6,1.25L147.1,69.7z M55.1,88.2c0.167-1.233,0.167-2.617,0-4.15c-0.533-3.267-0.883-5.733-1.05-7.399
			c-0.267-3.034,0.217-5.784,1.45-8.25c0.6-1.334,1.017-2.684,1.25-4.051c0.133-0.866,0.25-2.267,0.35-4.199
			C56.967,60.384,56.733,61,56.4,62c-0.267,0.7-0.617,1.25-1.05,1.65c-0.434,0.366-1.184,0.833-2.25,1.399
			c-0.867,0.533-1.567,1.3-2.1,2.3c-0.2,0.367-0.6,1.334-1.2,2.9l0.2-1.5c0.167-0.9,0.3-1.583,0.4-2.05
			c0.167-0.8,0.417-1.434,0.75-1.9c0.233-0.333,0.717-0.767,1.45-1.3c0.767-0.5,1.25-0.9,1.45-1.2c0.233-0.399,0.4-1.149,0.5-2.25
			c0.067-1.2,0.167-1.983,0.3-2.35c0.4-1.367,0.633-2.101,0.7-2.2c0.267-0.733,0.667-1.35,1.2-1.85
			c0.633-0.601,1.317-1.134,2.05-1.601c6,0,10.317-0.2,12.95-0.6L74.4,51c1.934,0.5,4.767,0.967,8.5,1.4
			c0.934,0.166,4.067,0.616,9.4,1.35c3.867,0.533,6.95,1.116,9.25,1.75c1.067,0.3,2.2,0.783,3.4,1.45
			c0.6,0.333,1.65,0.983,3.15,1.95c1,0.6,1.633,1,1.9,1.199c0.633,0.5,1.117,1.084,1.45,1.75c0.566,1.233,0.517,2.067-0.15,2.5
			c-1.3,0.867-2.017,1.4-2.15,1.601c-0.267,0.399-0.333,1.116-0.2,2.149c0.133,1.301,0.183,2.051,0.15,2.25
			c-0.167,1.167-0.8,2.7-1.9,4.601c-0.9,1.633-2.55,3.033-4.95,4.2c-2.2,1.066-4.35,1.633-6.45,1.699c1.1,0.267,2.534,0.4,4.3,0.4
			c2.2,0,3.617,0.033,4.25,0.1c-0.367,0.334-0.917,0.817-1.65,1.45c0.667,0.134,1.45-0.017,2.35-0.45c0.067,0.9,0.067,1.584,0,2.051
			c-0.066,0.933-0.15,1.466-0.25,1.6c-0.033,0.1-0.433,0.434-1.2,1c-0.233,0.167-0.833,0.533-1.8,1.1
			c-0.767,0.434-1.35,0.867-1.75,1.301c-0.267,0.233-0.683,0.716-1.25,1.449c-0.5,0.634-0.933,1.101-1.3,1.4
			c-2.567,2.033-5.983,4-10.25,5.9c-1-0.034-1.85-0.084-2.55-0.15c-0.434-0.033-1.367-0.033-2.8,0c-1.167,0-2.083-0.066-2.75-0.2
			c-1.333-0.3-2.917-0.816-4.75-1.55c-2.066-0.9-3.6-1.566-4.6-2c-4-1.833-7.066-3.2-9.2-4.1C58.6,89.316,56.767,88.667,55.1,88.2z
			 M105.7,63.15c-0.1-1.101-0.75-1.801-1.95-2.101l-3-0.35c-1.9,0-6.233,0.116-13,0.35c-0.7,0-1.233,0-1.6,0
			c-0.6,0-1.1,0.084-1.5,0.25c-0.767,0.334-1.633,1.101-2.6,2.3c-0.533,0.634-1.267,1.551-2.2,2.75L76.7,69.4
			c-1.4,1.333-2.284,2.433-2.65,3.3c-0.233,0.566-0.2,1.383,0.1,2.45c0.2,0.566,0.483,1.333,0.85,2.3
			c0.1,0.366,0.467,1.833,1.1,4.399c-0.133-1.566-0.217-2.8-0.25-3.699c-0.1-1.7,0-2.934,0.3-3.7c0.2-0.533,0.7-1.25,1.5-2.15
			c0.934-0.934,1.533-1.566,1.8-1.899c0.833-1,1.917-2.134,3.25-3.4c1.9-1.833,4.65-2.85,8.25-3.05c5.433-0.3,8.45-0.533,9.05-0.7
			c0.167,1.2-0.133,2.25-0.9,3.15c-0.434,0.566-1.2,1.466-2.3,2.699c-0.466,0.834-0.8,1.767-1,2.801c-0.267,1.366-0.1,2.199,0.5,2.5
			c0.633,0.3,1.317,0.166,2.05-0.4c0.2-0.167,0.7-0.667,1.5-1.5c0.3-0.3,0.767-0.717,1.4-1.25c0.667-0.533,1.133-0.934,1.4-1.2
			c0.767-0.767,1.184-1.6,1.25-2.5c-0.066-1.133-0.1-2.066-0.1-2.8C105.133,64.783,105.767,64.25,105.7,63.15z"/>
		<path style="fill-rule:evenodd;clip-rule:evenodd;fill:#ABB5C0;" d="M460.3,68.7l-0.05,1.5c-0.733-1.5-1.983-3.134-3.75-4.9
			c-3.667-3.633-6.167-6.416-7.5-8.35c-2.233-3.267-3.384-6.6-3.45-10c0,7.866,0.05,12.517,0.15,13.95
			c0.333,5.333,1.3,9.899,2.899,13.699c0.967,2.301,1.567,3.7,1.801,4.2c0.733,1.4,1.616,2.584,2.649,3.55
			c0.267,0.233,0.767,0.584,1.5,1.051c-0.1,0.1-0.217,0.199-0.35,0.3l-4.55,3.2c-0.467,0.267-0.967,0.583-1.5,0.949
			c-2.101-1.767-3.667-3.116-4.7-4.05c-1.9-1.666-3.167-3.283-3.8-4.85c-0.867-2.267-1.233-5.634-1.101-10.101
			c0.066-1.199,0.4-2.916,1-5.149c0.601-2.3,0.934-4.033,1-5.2c0.167-2-0.25-4.4-1.25-7.2c-1.399-3.833-2.184-6.15-2.35-6.95
			c-0.934-4.5-0.517-9.333,1.25-14.5c0.934-2.033,1.666-3.733,2.2-5.1c0.066-0.033,0.116-0.05,0.149-0.05
			c3.267-1.1,5.917-2.2,7.95-3.3h0.05c-0.1,1.067-0.3,2.383-0.6,3.95c-0.5,2.6-0.601,4.633-0.3,6.1c1.1,5.3,3.25,10.333,6.449,15.1
			c-0.066-1.333-0.1-2.333-0.1-3c-0.033-1.2,0.017-2.183,0.15-2.95c1.333,1.6,2.25,3.3,2.75,5.1c0.433,1.533,0.649,3.466,0.649,5.8
			c0,0.866-0.017,2.167-0.05,3.9c-0.033,1.533-0.017,2.816,0.05,3.85c0.101,1.267,0.384,2.783,0.851,4.55
			C458.934,65.967,459.566,67.6,460.3,68.7z M352.5,3.1c-4.566-0.067-7.7-0.317-9.4-0.75l-0.25-0.05l-1-0.35
			c-0.533-0.733-0.267-1.25,0.801-1.55l1.149-0.25h0.2c1.5,0.133,3.833,0.45,7,0.95c3.033,0.467,5.35,0.767,6.95,0.9l3.899,0.3
			l-0.05,0.05c-0.866,0.3-1.733,0.5-2.6,0.6c-2.134,0.2-4.267,0.25-6.4,0.15H352.5z M259.8,64.95c-0.434-0.467-1.1-0.8-2-1
			c-1.066-0.167-1.85-0.316-2.35-0.45c-1.434-0.4-3.066-1.1-4.9-2.1c-0.566-0.334-1.2-0.9-1.899-1.7
			c-0.767-0.934-1.367-1.55-1.801-1.851c-1-0.733-2.5-1.25-4.5-1.55c-0.699-0.133-2.3-0.283-4.8-0.45
			c-1.666-0.133-3.649-0.399-5.95-0.8c-0.467-0.166-0.917-0.333-1.35-0.5c4.467-0.033,7.483,0.017,9.05,0.15
			c2.3,0.233,4.033,0.383,5.2,0.45c1.9,0.133,3.616,0.166,5.15,0.1c0.966-0.033,2.133-0.1,3.5-0.2c0.199,0.101,0.416,0.2,0.649,0.3
			c1.267,0.601,2.351,1.301,3.25,2.101c0.967,0.899,1.8,1.866,2.5,2.899c0.5,0.7,0.75,1.167,0.75,1.4
			c0.033,0.2-0.05,0.616-0.25,1.25L259.8,64.95z M253.25,86.05l0.3-0.2c1.867-1.166,3.217-2.216,4.05-3.149
			c0.967-1.033,1.834-2.483,2.601-4.351c0.133-0.333,0.55-1.183,1.25-2.55c0.533-1,0.866-1.85,1-2.55
			c0.1-0.566,0.133-1.083,0.1-1.55c0.4-1.233,0.667-2.783,0.8-4.65c0.101-2.133,0.167-3.7,0.2-4.7c0.066-1.199-0.45-2.533-1.55-4
			c-1.3-1.767-2.083-3.033-2.35-3.8c0.966-0.1,1.966-0.2,3-0.3c2.1-0.167,4.05-0.267,5.85-0.3l-0.1,0.1
			c-0.267,0.467-0.467,1.2-0.601,2.2c-0.133,1.333-0.233,2.116-0.3,2.35c-0.233,0.801-0.366,1.601-0.4,2.4
			c-0.1,0.934,0.15,2.017,0.75,3.25l0.2,0.6c0.233,0.634,0.8,1.4,1.7,2.301l2.65,3.25c0.5,0.699,0.733,1.699,0.699,3
			c-0.066,1.933-0.083,3.017-0.05,3.25c0.167,1.233,0.75,2.583,1.75,4.05l0.25,0.7c1.101,2.233,2.483,5.433,4.15,9.6
			c0.666,1.767,0.733,3.05,0.2,3.85c-0.334,0.567-1.317,1.483-2.95,2.75L276.35,97.7c-0.166-0.101-0.366-0.217-0.6-0.351
			c-0.333,0-0.684,0.034-1.05,0.101c-0.101-1-0.316-1.867-0.65-2.601c-0.033-0.1-0.467-0.8-1.3-2.1c-0.5-0.8-0.733-1.583-0.7-2.35
			c0.033-0.534,0.2-1.301,0.5-2.301c0.334-1.1,0.517-1.883,0.55-2.35c0.167-1.967-0.833-4.55-3-7.75
			c-1.899-2.767-2.916-5.134-3.05-7.1c0,0.933-0.017,2.133-0.05,3.6c0.033,1.733,0.267,3.184,0.7,4.35
			c1.233,3.367,1.85,6.367,1.85,9c0.033,1.567-0.149,2.884-0.55,3.95c-0.434,1.2-1.2,2.267-2.3,3.2
			c-0.533,0.467-1.483,1.217-2.851,2.25c-1.166,1.033-1.899,2.017-2.199,2.95c-0.134,0.033-0.25,0.05-0.351,0.05
			c-0.066,0-0.116,0.017-0.149,0.05l-12.601,1.3c-1.633,0.101-3.333,0.2-5.1,0.301l-11.3,0.399c-2.667,0.033-5.517,0.066-8.55,0.101
			h-0.05c-0.667,0-1.35,0-2.05,0h-18.7c-0.133,0-0.25,0-0.35,0l-3-0.051c-0.833-1.466-1.184-2.583-1.05-3.35
			c0.033-0.267,0.2-0.634,0.5-1.1c0.3-0.467,0.467-0.834,0.5-1.101c0.1-0.366,0.1-1.3,0-2.8c-0.066-1.2-0.467-2.783-1.2-4.75
			c-0.833-2.134-1.317-3.667-1.45-4.6c-0.533-3.534-0.633-6.384-0.3-8.551c0.667-0.1,1.283,0.217,1.85,0.95
			c0.667,0.8,1.167,1.9,1.5,3.3l0.2,1.301c0.133,1.233,0.233,2,0.3,2.3c0.167,0.899,0.417,1.517,0.75,1.85
			c0.333,0.334,0.967,0.584,1.9,0.75c0.867,0.167,1.483,0.434,1.85,0.8c0.6,0.601,0.983,1.284,1.15,2.051
			c0.066,0.366,0.1,1.133,0.1,2.3c0.034,2.233,0.233,3.8,0.6,4.7c0.5,1.267,1.617,2.283,3.35,3.05c2.2,0.967,5.6,1.783,10.2,2.45
			c6.3-0.733,9.783-1.117,10.45-1.15c6.6-0.434,12.25-1.434,16.95-3c1.9-0.6,3.301-1.184,4.2-1.75c1.767-1.1,2.367-2.316,1.8-3.65
			c-0.466-1.066-1.566-1.383-3.3-0.949c-0.666,0.133-1.934,0.616-3.8,1.449c-1.533,0.667-2.95,0.95-4.25,0.851
			c-1.333-0.101-2.733-0.584-4.2-1.45c-1.267-0.767-2.25-1.6-2.95-2.5c-0.533-0.733-1.166-1.866-1.899-3.4
			c-0.434-0.966-1.2-2.066-2.3-3.3c-1.267-1.434-2.1-2.483-2.5-3.149c0.3,0.399,0.767,0.816,1.4,1.25
			c0.833,0.533,1.35,0.883,1.55,1.05c0.467,0.399,1.016,1.033,1.65,1.899c0.733,0.967,1.25,1.601,1.55,1.9l0.25,0.25
			c1.033,1.5,2.434,2.616,4.2,3.35c1.7,0.667,3.517,0.917,5.45,0.75c0.934-0.033,1.866-0.25,2.8-0.649c1.366-0.3,2.4-0.617,3.1-0.95
			C251.517,88.184,252.483,87.283,253.25,86.05z M420.3,42.2c-0.2-0.3-0.366-0.617-0.5-0.95l5.2,5.45c-2.3-1.9-3.833-3.35-4.6-4.35
			C420.366,42.317,420.333,42.267,420.3,42.2z M418.3,72.25l0.851-1.95c0.633-1.467,0.966-3.35,1-5.649
			c-0.067-2.634-0.101-4.567-0.101-5.801c0.134-1.666,0.233-3.083,0.3-4.25c0.034,0,0.084,0,0.15,0
			c2.733-0.133,5.45-0.483,8.15-1.05V53.5c0.466,1.167,0.733,1.95,0.8,2.35c0.1,0.733,0.149,1.65,0.149,2.75
			c0,0.634-0.017,1.551-0.05,2.75c0,0.733-0.066,2.617-0.2,5.65c-0.1,2.3-0.066,4.217,0.101,5.75c0.133,1.134,0.383,2.983,0.75,5.55
			c0.233,2.267,0.2,4.117-0.101,5.55c-0.399,1.834-1.517,3.267-3.35,4.301c-1.066,0.566-2.767,1.283-5.1,2.149
			c0.066-0.3,0.416-0.983,1.05-2.05c0.467-0.8,0.6-1.6,0.399-2.4c-0.166-0.633-0.649-1.383-1.449-2.25
			c-0.834-0.866-1.334-1.616-1.5-2.25c-0.101-0.433-0.301-1.949-0.601-4.55C419.316,74.767,418.9,73.25,418.3,72.25z M440.65,44.9
			c-0.233,0.633,0.25,1.75,1.449,3.35c1.167,1.567,2.134,2.433,2.9,2.6c0.366-3.467,0.55-6.117,0.55-7.95
			c0-2.2-0.083-5.467-0.25-9.8c-0.166-4.333-0.25-7.583-0.25-9.75l-1,15.5c0,2.533-0.05,3.967-0.149,4.3
			C443.566,44.283,442.483,44.867,440.65,44.9z M427.45,49.25l0.1,0.1v0.05C427.519,49.337,427.485,49.288,427.45,49.25z
			 M406.6,58.1l-0.85-0.399l-1-1c-0.634,0.7-0.917,1.866-0.85,3.5c0.066,1.399,0.316,2.6,0.75,3.6c0,0.033,0.216,0.667,0.649,1.9
			c0.3,0.866,0.584,1.399,0.851,1.6c0.366,0.267,1.316,0.267,2.85,0c0.134-0.934,0.2-1.75,0.2-2.45c0.3,2.4,0.017,4.134-0.851,5.2
			c-0.666,0.867-1.633,1.434-2.899,1.7c-1.2,0.233-2.316,0.134-3.351-0.3c-1.199-0.434-1.899-1.367-2.1-2.8
			c0-0.167,0.017-1.467,0.05-3.9c0.233-1.833,0.367-3.217,0.4-4.15c-0.033-0.566-0.066-0.983-0.101-1.25
			c-0.033-0.533,0-0.949,0.101-1.25c0.267-0.866,0.967-1.383,2.1-1.55c0.634-0.1,1.584-0.166,2.851-0.2L406.6,58.1z M410.55,91.4
			c0.667-1.534,1-3.534,1-6c0.033-2.034,0.167-3.367,0.4-4c0.333-1,1.149-1.867,2.45-2.601c-0.367,0.3-0.617,0.617-0.75,0.95
			c1.633,0.467,2.816,1.55,3.55,3.25c0.633,1.366,0.916,3,0.85,4.9c0,1.233-0.1,2.166-0.3,2.8c-0.267,0.7-0.783,1.416-1.55,2.149
			c-0.9,0.867-2.316,2.15-4.25,3.851c-0.367-0.634-0.517-1.634-0.45-3c0.066-1.7,0.066-2.767,0-3.2
			C411.134,90.733,410.816,91.033,410.55,91.4z M407,98c0.6-0.533,1.134-1.3,1.6-2.3c0.534-1.3,0.967-2.283,1.301-2.95
			c-0.2,0.467-0.467,1.184-0.801,2.15l-1.55,3.1l-0.05,0.05h-0.6C406.934,98.017,406.967,98,407,98z M382.45,84l-0.2,0.3
			c0.767,0.134,1.55,0.084,2.35-0.149c0.434-0.134,1.117-0.367,2.051-0.7c-0.167,0.333-0.434,0.733-0.801,1.2
			c-0.399,0.466-0.666,0.816-0.8,1.05c-0.2,0.399-0.3,1.066-0.3,2c-0.134,0.666-0.384,1.649-0.75,2.95
			c-0.066,0.267-0.116,0.666-0.15,1.199c-0.033,0.534-0.083,0.934-0.149,1.2c-0.066,0.233-0.233,0.617-0.5,1.15
			c-0.233,0.5-0.384,0.899-0.45,1.2c-0.233,1.033-0.434,1.683-0.6,1.949c-0.167,0.4-0.351,0.733-0.551,1h-0.05
			c-0.566,0.067-1.416,0.233-2.55,0.5c-2.4,0.801-4.2,1.267-5.4,1.4c-2.6,0.3-6.199-0.333-10.8-1.9c-0.767-0.033-1.5-0.05-2.2-0.05
			l0.15-0.149c0.8-1.134,1.8-2.134,3-3c1.434-1.134,2.35-1.917,2.75-2.351c0.533-0.633,0.917-1.55,1.15-2.75
			c0.066-0.333,0.199-1.333,0.399-3c0.233-1.767,0.351-4.434,0.351-8l-0.351,1c-0.267,0.434-0.467,1.017-0.6,1.75
			c-0.2,1.134-0.316,1.75-0.351,1.851c-0.333,1.166-0.983,2.399-1.949,3.699c-1.867,2.634-4.017,4.617-6.45,5.95
			c-0.467,0.267-1.45,0.7-2.95,1.3c-1.267,0.5-2.184,0.967-2.75,1.4c-0.5,0.366-1.2,1.15-2.1,2.35
			c-1.233,0.101-2.351,0.233-3.351,0.4c-0.1,0.033-1.267,0.366-3.5,1c-0.1,0-0.2,0.017-0.3,0.05c0.2-1.1,0.35-1.95,0.45-2.55
			c0.2-1.033,0.467-1.8,0.8-2.3c0.434-0.667,1.333-1.316,2.7-1.95c1.566-0.667,2.616-1.167,3.149-1.5c3.067-1.8,5.351-3.467,6.851-5
			c1.5-1.5,2.483-3.45,2.95-5.85c0.267-1.4,0.399-3.65,0.399-6.75c0-3-0.283-5.384-0.85-7.15c-0.4-1.3-1.05-2.783-1.95-4.45
			c-0.866-1.633-1.55-2.916-2.05-3.85c0.3,0.434,0.767,0.883,1.399,1.35c1.2,0.834,1.867,1.316,2,1.45
			c0.667,0.634,1.617,1.667,2.851,3.1c0.767,0.834,1.95,2.117,3.55,3.851c1.4,1.566,2.434,2.95,3.1,4.149
			c1.067,1.967,1.767,4.4,2.101,7.301c0.3,2.566,0.267,5.133-0.101,7.699c-0.1,0.834-0.316,1.551-0.649,2.15
			c-0.233,0.4-0.7,1-1.4,1.8c-0.033,0.033-0.283,0.217-0.75,0.55c-0.366,0.233-0.583,0.434-0.649,0.601
			c-0.301,1.033,0.066,1.767,1.1,2.2c0.9,0.399,1.833,0.483,2.8,0.25c1.767-0.434,3.434-1.867,5-4.301
			c1.5-2.333,2.2-4.383,2.101-6.149c0.199-0.033,0.916-0.066,2.149-0.101C381.5,84.35,382.05,84.233,382.45,84z M334.7,85.3
			c0.2,0.834,0.35,1.634,0.45,2.4c0.1,0.866,0.483,2.017,1.149,3.45c0.101,0.433,0.15,1,0.15,1.699
			c-0.066,0.867-0.084,1.417-0.05,1.65c0.267,2.8,0.433,4.9,0.5,6.3h-0.25c-0.5-2.533-1.334-5.316-2.5-8.35
			c-0.534-1.566-0.983-2.566-1.351-3c-0.434,0.434-0.633,1.55-0.6,3.35c0.033,2.167,0,3.434-0.101,3.8
			c-0.433,1.5-1,2.601-1.699,3.301c-0.101,0.1-0.4,0.316-0.9,0.649c-1.833-0.066-3.267-0.116-4.3-0.149
			c-3.601-0.034-7.667-0.15-12.2-0.351l-9.1-0.45c-0.7-0.066-1.417-0.116-2.15-0.149l0.1-0.15c0.4-0.467,0.634-0.8,0.7-1
			c0.101-0.2,0.167-0.633,0.2-1.3c0.1-0.967-0.083-2.217-0.55-3.75c-0.467-1.7-0.7-2.917-0.7-3.65c0.4,0.267,1.05,0.65,1.95,1.15
			c0.899,0.467,1.55,0.85,1.95,1.15c0.199,0.166,1.066,0.949,2.6,2.35c1,0.967,2,1.6,3,1.9c1.366,0.399,3.184,0.517,5.45,0.35
			c3.533-0.3,5.35-0.45,5.45-0.45c0.633,0,1.683,0.017,3.149,0.05c1.233-0.133,2.134-0.566,2.7-1.3c0.3-0.366,0.533-1.083,0.7-2.149
			c0.2-1.101,0.434-1.867,0.7-2.301c0.3-0.466,1.116-1.416,2.449-2.85c1.101-1.2,1.801-2.233,2.101-3.1
			c0.133-0.4,0.2-0.917,0.2-1.551c-0.101-1.466-0.15-2.5-0.15-3.1V79.4V77.1c0.1,3.467,0.4,6.117,0.9,7.95L334.7,85.3z
			 M389.45,97.85H389.1c0-1-0.116-1.866-0.35-2.6c-0.467-1.967-0.733-3.2-0.8-3.7c-0.134-1.2,0.017-2.383,0.45-3.55
			c0.699-2.134,0.933-4.233,0.699-6.3c-0.5-3.5-1.149-5.5-1.949-6c-0.134,0.6-0.317,1.416-0.551,2.45
			c-0.199,0.833-0.483,1.6-0.85,2.3c-0.6,1.133-1.217,1.95-1.85,2.45L383.3,83.3l0.4-0.5c1.633-2.5,2.267-5.316,1.899-8.45
			c-0.066-0.466-0.267-1.283-0.6-2.449c-0.3-0.934-0.45-1.767-0.45-2.5c-0.1-1.634-0.166-2.917-0.2-3.851
			c-0.066-1.666,0.134-2.85,0.601-3.55c0.1,0.566,0.166,1.616,0.2,3.15c0.033,1.3,0.166,2.333,0.399,3.1
			c0.601,1.866,1.316,3.733,2.15,5.6c0.333,0.801,0.85,1.867,1.55,3.2c0.5,1.167,0.767,2.283,0.8,3.351
			c0.066,1.767-0.05,3.949-0.35,6.55c-0.066,0.733-0.283,2.434-0.65,5.1C388.816,94.616,388.95,96.55,389.45,97.85z M297.45,57.5
			c0.866-0.267,1.517-0.434,1.95-0.5h1.149c1.101,0.066,1.816,0.083,2.15,0.05c1.133-0.133,2.833-0.35,5.1-0.649
			c2-0.2,3.733-0.2,5.2,0c0.167,0.666,0.134,1.5-0.1,2.5c-0.134,0.566-0.367,1.35-0.7,2.35c-0.8-0.566-1.767-0.866-2.9-0.9
			c-1.2-0.033-2.166,0.25-2.899,0.851c-0.2,0.166-0.517,0.483-0.95,0.95c-0.367,0.399-0.717,0.699-1.05,0.899l-2,1
			c-1.5,0.834-2.534,1.483-3.101,1.95c-1,0.833-1.649,1.816-1.95,2.95c-0.633,2.166-0.833,4.517-0.6,7.05
			c0.2,2.366,0.75,4.566,1.65,6.6c-0.367-0.699-1.184-2-2.45-3.899c-1.033-1.566-1.566-3.134-1.601-4.7
			c0-2.434,0.101-4.85,0.301-7.25c0.1-1.233,0.149-1.866,0.149-1.9c0.033-0.8-0.033-1.416-0.2-1.85c-0.133-0.4-0.6-1.1-1.399-2.1
			c-0.733-0.867-1.117-1.601-1.15-2.2l-1-0.65c2.2,0,3.617-0.033,4.25-0.1c0.8,0.934,1.233,2.267,1.3,4
			c0.067,0.967,0.134,2.399,0.2,4.3l2.3-5.9c0.233-0.833,0.434-1.433,0.601-1.8c0.267-0.666,0.717-1.066,1.35-1.2l-3.75,0.25
			L297.45,57.5z M254.3,84.3c0.8-1.5,1.434-2.6,1.9-3.3l0.35-0.45c-0.066,0.5-0.184,0.95-0.35,1.351
			C255.9,82.767,255.267,83.566,254.3,84.3z M166.45,98.3l0.05,0.05l-3.75-0.1c-0.6-0.566-1.267-1.35-2-2.35
			c-0.8-1.134-1.383-1.934-1.75-2.4c-1.433-1.7-2.233-2.634-2.4-2.8c-0.8-1.033-1.45-2.017-1.95-2.95
			c0.7,0.833,2.383,2.583,5.05,5.25c0.6,0.6,1.7,1.467,3.3,2.6C164.633,96.767,165.783,97.667,166.45,98.3z M123.2,50.05l1.55,2.95
			c1.033,1.6,1.683,2.884,1.95,3.85c0.367,1.301,0.583,3.017,0.65,5.15c0.033,1.934-0.05,3.7-0.25,5.3
			c-0.2,1.5-1.017,3.25-2.45,5.25c-1.633,2.3-2.617,3.95-2.95,4.95c-0.233,0.7-0.65,1.9-1.25,3.6c-0.7,1.301-1.8,1.7-3.3,1.2
			c-0.066-0.533-0.117-1.517-0.15-2.95c-0.067-1.267-0.167-2.267-0.3-3c-0.067-0.333-0.4-1.566-1-3.699
			c-0.434-1.5-0.633-2.733-0.6-3.7c-0.133,0.8-0.25,2.483-0.35,5.05c-0.067,2.1-0.3,3.733-0.7,4.9c-1.033,0.166-2.5,0.333-4.4,0.5
			c-2.033,0.166-3.517,0.316-4.45,0.449c-0.034,0.534-0.317,1.034-0.85,1.5c-0.633-0.066-2.05-0.1-4.25-0.1
			c-1.767,0-3.2-0.134-4.3-0.4c2.1-0.066,4.25-0.633,6.45-1.699c2.4-1.167,4.05-2.567,4.95-4.2c1.1-1.9,1.733-3.434,1.9-4.601
			c0.033-0.199-0.017-0.949-0.15-2.25c-0.133-1.033-0.067-1.75,0.2-2.149c0.133-0.2,0.85-0.733,2.15-1.601
			c0.667-0.433,0.717-1.267,0.15-2.5c-0.333-0.666-0.817-1.25-1.45-1.75c-0.267-0.199-0.9-0.6-1.9-1.199
			c-1.5-0.967-2.55-1.617-3.15-1.95c-1.2-0.667-2.333-1.15-3.4-1.45c-2.3-0.634-5.383-1.217-9.25-1.75
			c-5.333-0.733-8.466-1.184-9.4-1.35c-3.733-0.434-6.566-0.9-8.5-1.4c1.167-0.167,5.35-0.9,12.55-2.2
			c5.533-0.966,11.3-1.45,17.3-1.45c1.267,0,3.083,0,5.45,0c1.966,0.1,3.65,0.517,5.05,1.25c1.467,0.833,2.567,1.316,3.3,1.45
			c0.534,0.1,1.267,0.133,2.2,0.1c0.5-0.033,1.217-0.066,2.15-0.1H123.2z M150.15,75.7c-0.033,1.399,0.1,4,0.4,7.8
			c0,0.066,0.7,2,2.1,5.8c1.033,2.767,1.017,4.634-0.05,5.601c-0.333,0.333-0.967,0.533-1.9,0.6c-0.733,0.066-1.434,0.033-2.1-0.1
			c-0.067,0-0.65-0.2-1.75-0.601c-0.567-0.2-1.167-0.166-1.8,0.101c-0.733,0.3-1.85,1.449-3.35,3.449h-4.85
			c-0.1-0.1-1.7-1.366-4.8-3.8c-1.933-1.5-3.133-2.85-3.6-4.05c-0.267-0.7-0.417-1.65-0.45-2.85c0.033-1.367,0.05-2.367,0.05-3
			c0.034-1.534,0.367-3.351,1-5.45c0.867-3,1.367-4.783,1.5-5.351c0.267-1.166,0.5-1.933,0.7-2.3c0.333-0.633,0.933-1.033,1.8-1.2
			c1.567-0.267,2.567,0.367,3,1.9c0.267,0.866,0.434,2.233,0.5,4.1c0.034,0.134,0.067,0.9,0.1,2.301
			c0.033,0.866,0.217,1.6,0.55,2.199c0.6,1.134,2.05,2.601,4.35,4.4c-0.1-0.4-0.367-1.1-0.8-2.1c-0.367-0.9-0.6-1.617-0.7-2.15
			c-0.1-0.467-0.117-1.15-0.05-2.05c0.1-1,0.133-1.684,0.1-2.05c-0.1-1.067-0.434-2.567-1-4.5c-0.567-2.034-0.917-3.534-1.05-4.5
			c-0.466-3.967-0.167-7.801,0.9-11.5l0.5-1.75c0.2,0.366,0.3,0.85,0.3,1.449c0.033,0.334,0.033,0.867,0,1.601
			c-0.033,1.166,0.333,2.133,1.1,2.899L140.8,61.4c0,0.466,0.15,0.916,0.45,1.35c0.2,1.333,0.9,2.667,2.1,4
			c1.066,1.2,2.316,2.184,3.75,2.95c1.333,0.934,2.066,1.5,2.2,1.7c0.367,0.6,0.617,1.899,0.75,3.899L150.15,75.7z M105.05,82.35
			c1.267-0.6,2.1-0.933,2.5-1c1.2-0.199,3.184-0.183,5.95,0.051c0,0.066,0.033,0.916,0.1,2.55c0.033,0.934,0.233,1.733,0.6,2.399
			c0.267,0.534,0.733,1.25,1.4,2.15c0.767,1.033,1.267,1.75,1.5,2.15c0.6,1.066,0.933,1.85,1,2.35c0.167,0.866-0.1,1.634-0.8,2.3
			c-1.1,1.101-3.2,2.117-6.3,3.05h-10.75c-5.733,0-10.067-0.066-13-0.199c4.267-1.9,7.683-3.867,10.25-5.9
			c0.367-0.3,0.8-0.767,1.3-1.4c0.567-0.733,0.983-1.216,1.25-1.449c0.4-0.434,0.983-0.867,1.75-1.301
			c0.967-0.566,1.567-0.933,1.8-1.1c0.767-0.566,1.167-0.9,1.2-1c0.1-0.134,0.184-0.667,0.25-1.6
			C105.117,83.934,105.117,83.25,105.05,82.35z M55.1,88.2c-1.5-0.434-2.85-0.717-4.05-0.851H51c-0.567-0.066-1.367-0.066-2.4,0
			c-1,0.067-1.767,0.051-2.3-0.05c0.2-0.533,0.784-1.5,1.75-2.899c0.333-0.467,0.55-0.934,0.65-1.4c0.033-0.233,0.05-0.767,0.05-1.6
			c-0.167-2.7-0.233-4.75-0.2-6.15c0.067-1.6,0.333-2.9,0.8-3.9l0.45-1.1c0.6-1.566,1-2.533,1.2-2.9c0.533-1,1.233-1.767,2.1-2.3
			c1.066-0.566,1.816-1.033,2.25-1.399c0.433-0.4,0.783-0.95,1.05-1.65c0.333-1,0.567-1.616,0.7-1.85
			c-0.1,1.933-0.217,3.333-0.35,4.199c-0.233,1.367-0.65,2.717-1.25,4.051c-1.233,2.466-1.717,5.216-1.45,8.25
			c0.167,1.666,0.517,4.133,1.05,7.399C55.267,85.583,55.267,86.967,55.1,88.2z"/>
		<path style="fill-rule:evenodd;clip-rule:evenodd;fill:#B7C2CD;" d="M403.45,3.95l1.6,0.55c0.033,0,0.084,0.017,0.15,0.05
			c0.133,0.034,0.283,0.083,0.45,0.15l1.85,0.55V5.3c0.4,0.833,0.684,1.867,0.85,3.1c0.167,1.133,0.2,2.133,0.101,3
			c-0.167,1.267-1.483,2.783-3.95,4.55c-2.333,1.667-3.5,3.233-3.5,4.7c1.134,0.434,2.7,0.367,4.7-0.2c1.767-0.5,3.184-1.167,4.25-2
			c2.5-1.967,4.45-5.6,5.85-10.9c0.033,0,0.066,0.017,0.101,0.05c0.767,0.167,1.517,0.333,2.25,0.5l0.75,0.2l2.649,3.05
			c0.367,0.433,0.8,0.933,1.3,1.5c0.301,0.467,0.5,1.017,0.601,1.65c0.1,0.7,0,1.433-0.3,2.2c-0.267,0.733-0.767,1.267-1.5,1.6
			c-0.967,0.333-1.733,0.617-2.301,0.85c-2.633,1.1-5.116,1.767-7.449,2c-1.334,0.1-3.384,0.133-6.15,0.1
			c-2.7-0.033-4.75,0.017-6.15,0.15c-0.566,0.067-1.583,0.283-3.05,0.65c-1.333,0.333-2.316,0.517-2.95,0.55
			c0.334-0.434,0.934-1.317,1.801-2.65c0.699-1.1,1.333-1.95,1.899-2.55c0.834-0.867,1.434-1.65,1.8-2.35
			c0.867-1.667,1.2-3.367,1-5.1c-0.433-1.267-0.783-2.4-1.05-3.4c-0.533-1.9-0.533-3.15,0-3.75c1,0.133,2.084,0.4,3.25,0.8
			C402.6,3.7,402.983,3.817,403.45,3.95z M229.05,0.65l0.05-0.05c0.833-0.033,1.683-0.067,2.55-0.1h0.85
			c1.4-0.067,2.65-0.083,3.75-0.05l1.85,0.15c-2.033-0.067-3.566,0.183-4.6,0.75c-0.733,0.367-1.583,1.117-2.55,2.25
			c-1.233,1.433-2.034,2.3-2.4,2.6c-0.867,0.767-2.316,1.667-4.35,2.7c-2,1.033-3.45,1.95-4.35,2.75
			c-1.633,1.467-2.55,2.267-2.75,2.4c0.8,0.434,2,0.567,3.6,0.4c0.867-0.067,2.1-0.233,3.7-0.5c3.833-0.367,6.383-0.567,7.65-0.6
			c0.834,0,2.134,0.017,3.9,0.05c1.533-0.033,2.8-0.25,3.8-0.65c3.667-1.567,6.2-3.133,7.6-4.7c0.4-0.466,0.784-1.1,1.15-1.9
			c0.533-1.233,0.85-1.933,0.95-2.1l0.8-1.4l1.85,0.4l11.15,1.35c0.599,0.033,1.199,0.05,1.8,0.05C265.017,4.451,265,4.468,265,4.5
			c-2,1.367-5.05,3.283-9.15,5.75c-0.666,0.433-1.733,1.267-3.199,2.5c-1.301,1.067-2.384,1.833-3.25,2.3
			c-0.9,0.5-2.334,1.233-4.301,2.2c-1.699,0.867-3.05,1.7-4.05,2.5c-0.233,0.2-1.399,1.217-3.5,3.05
			c-1.399,1.233-2.649,2.184-3.75,2.85c-1.066,0.667-2.45,1.05-4.15,1.15c-1.967-0.033-3.417-0.05-4.35-0.05
			c-2.333-0.033-6.617-0.317-12.85-0.85c-5.4-0.467-9.684-0.633-12.85-0.5c-4.067,0.2-7.9,0.983-11.5,2.35
			c-1.533,0.8-2.667,1.217-3.4,1.25c0.733-0.833,2.066-2.033,4-3.6c1.867-1.467,3.183-2.683,3.95-3.65
			c1.5-2.233,2.75-3.833,3.75-4.8c0.6-0.5,1.05-0.883,1.35-1.15c0.533-0.5,0.85-0.966,0.95-1.4c-0.1-0.033-0.184-0.05-0.25-0.05
			c2.066-0.867,3.5-1.483,4.3-1.85c4.033-1.867,6.117-2.833,6.25-2.9c2.433-1.033,4.6-1.767,6.5-2.2
			c0.867-0.2,2.117-0.483,3.75-0.85c1.4-0.333,2.617-0.7,3.65-1.1c0.333-0.133,0.867-0.333,1.6-0.6
			c0.667-0.233,1.167-0.483,1.5-0.75c0.367-0.267,0.767-0.767,1.2-1.5c0.466-0.767,0.867-1.283,1.2-1.55L229.05,0.65z M274.15,54.15
			c-0.7-0.067-1.417-0.117-2.15-0.15l-1.7-0.05c-1.033-0.033-2.116-0.033-3.25,0c7.066-2.6,11.667-4.25,13.8-4.95
			c4.034-1.367,6.301-2.133,6.801-2.3c2.566-0.934,4.783-1.9,6.649-2.9c1.533-0.867,2.684-1.5,3.45-1.9
			c1.366-0.733,2.583-1.217,3.65-1.45c1.1-0.233,1.8,0.066,2.1,0.9c0.033,0.066,0.2,1.05,0.5,2.95c0.634,3.567,0.6,6.817-0.1,9.75
			c-0.733,0.134-1.45,0.25-2.15,0.351l-9.45,0.85l-9.7-0.2c-2.233-0.166-4.55-0.416-6.949-0.75
			C275.15,54.233,274.65,54.184,274.15,54.15z M361.55,53.45c-2.166-0.2-4.399-0.45-6.7-0.75c-3.199-0.434-6.783-0.667-10.75-0.7
			c-0.1,0-0.199,0-0.3,0c-0.434,0-0.899,0-1.399,0l-7.601,0.1c-0.434,0.034-0.883,0.051-1.35,0.051c1.8-0.434,3.366-1.05,4.7-1.851
			c3.433-2,5.166-3,5.199-3c1.834-0.867,3.767-1.283,5.801-1.25h12.05c0.333,0,1.8-0.05,4.399-0.15c2.2,0.133,2.617,0.684,1.25,1.65
			c-0.366,0.267-0.966,0.534-1.8,0.8c-0.399,0.267-0.767,0.667-1.1,1.2L363.1,51C362.8,51.567,362.283,52.384,361.55,53.45z
			 M403.8,53H402.9c-2.467,0.033-5.5,0.167-9.101,0.4c-0.133,0-0.25,0.017-0.35,0.05l-0.75,0.05c-0.733,0.033-1.5,0.066-2.3,0.1
			c1.6-0.666,3.816-2.083,6.649-4.25c3.4-2.2,6-3.833,7.8-4.9c3.134-1.867,5.884-3.2,8.25-4c2.4-0.833,4.483-1.167,6.25-1
			c0.067,0.633,0.217,1.233,0.45,1.8c0.134,0.333,0.3,0.65,0.5,0.95c-1.166,1.2-2.45,2.283-3.85,3.25L407,53.2
			C405.833,53.066,404.767,53,403.8,53z M384.1,50.45c0.667,0.566,0.75,1.75,0.25,3.55c-2.399,0.134-4.199,0.2-5.399,0.2
			c-0.4-0.566-0.45-1.233-0.15-2c0.267-0.733,1.05-1.35,2.351-1.85C382.483,49.883,383.467,49.917,384.1,50.45z"/>
		<path style="fill-rule:evenodd;clip-rule:evenodd;fill:#A9B3BD;" d="M407.5,5.25c0.934,0.267,1.8,0.517,2.6,0.75l5.7,1.55
			c-1.399,5.3-3.35,8.934-5.85,10.9c-1.066,0.833-2.483,1.5-4.25,2c-2,0.566-3.566,0.633-4.7,0.2c0-1.467,1.167-3.033,3.5-4.7
			c2.467-1.767,3.783-3.284,3.95-4.55c0.1-0.867,0.066-1.867-0.101-3c-0.166-1.233-0.449-2.267-0.85-3.1V5.25z M238.1,0.6
			c1.759,0.128,3.918,0.428,6.476,0.9c0.106,0.013,0.215,0.03,0.325,0.05l4.149,0.85c0.4,0.067,0.8,0.15,1.2,0.25l-0.8,1.4
			c-0.101,0.167-0.417,0.867-0.95,2.1c-0.366,0.8-0.75,1.434-1.15,1.9c-1.399,1.567-3.933,3.133-7.6,4.7
			c-1,0.4-2.267,0.617-3.8,0.65c-1.767-0.033-3.066-0.05-3.9-0.05c-1.267,0.033-3.816,0.233-7.65,0.6
			c-1.6,0.267-2.833,0.433-3.7,0.5c-1.6,0.167-2.8,0.033-3.6-0.4c0.2-0.133,1.117-0.933,2.75-2.4c0.9-0.8,2.35-1.717,4.35-2.75
			c2.033-1.033,3.483-1.933,4.35-2.7c0.367-0.3,1.167-1.167,2.4-2.6c0.966-1.133,1.816-1.883,2.55-2.25
			C234.533,0.783,236.066,0.533,238.1,0.6z"/>
		<path style="fill-rule:evenodd;clip-rule:evenodd;fill:#DDDEE0;" d="M49.8,70.25l-0.45,1.1c-0.467,1-0.733,2.301-0.8,3.9l-0.5,1.3
			c0.067-3.3,0.167-5.5,0.3-6.6c0.233-2.566,0.717-4.65,1.45-6.25c0.267-0.601,0.85-1.7,1.75-3.3c0.767-1.334,1.3-2.434,1.6-3.301
			c0.233-0.633,0.317-1.85,0.25-3.649c0-0.733-0.2-1.3-0.6-1.7c-0.3-0.267-0.883-0.583-1.75-0.95c-1.1-0.533-1.966-0.966-2.6-1.3
			c1.767,0.4,3.25,0.683,4.45,0.85c5.033,0.733,11.383,0.533,19.05-0.6c4.267-0.633,10.533-1.617,18.8-2.95
			c6.7-0.667,13.383-1.05,20.05-1.15c2.8-0.066,6.1,0.3,9.9,1.1c2.167,0.467,5.4,1.233,9.7,2.3l2.1,0.45
			c1.533,0.267,3.433,0.567,5.7,0.9l0.3,0.05c0.067,0,0.15,0.017,0.25,0.05c0.833,0.167,1.55,0.333,2.15,0.5
			c1.667,0.433,4.033,1.116,7.1,2.05c3.233,1,5.583,1.7,7.05,2.101c4.333,1.199,9.117,1.883,14.35,2.05
			c2.967,0.066,7.817-0.066,14.55-0.4c5.5-0.3,13.883-0.883,25.15-1.75c8.967-0.3,16.017-0.467,21.15-0.5
			c0.433,0.167,0.883,0.334,1.35,0.5l2.05,0.65c2,0.633,5.466,1.85,10.399,3.649c0.434,0.167,1.066,0.417,1.9,0.75
			c0.633,0.367,0.899,0.884,0.8,1.551l0.65,0.399c-0.567-0.066-1.167,0.017-1.801,0.25c-0.199,0.101-0.75,0.367-1.649,0.8
			c-1.634,0.834-2.584,1.284-2.851,1.351c-0.8,0.066-1.333,0.166-1.6,0.3c-1.134,0.533-2.384,1.65-3.75,3.35
			c-1.767,2.2-2.884,3.733-3.35,4.601c-0.667,1.233-1,3.1-1,5.6c-0.133-2.767-0.183-4.833-0.15-6.2
			c0.067-2.399,0.533-4.316,1.4-5.75c0.233-0.399,0.616-0.8,1.149-1.199c0.7-0.534,1.134-0.9,1.3-1.101
			c0.767-1.1,1.434-1.883,2-2.35c1.167-1,2.801-1.65,4.9-1.95l-0.55-0.3c-0.467-0.2-1.184-0.351-2.15-0.45
			c-1.066-0.1-1.8-0.2-2.2-0.3c-1.3-0.5-2.3-0.816-3-0.95c-1.033-0.167-2.383-0.167-4.05,0c-2.167,0.2-3.517,0.3-4.05,0.3
			c-1.7,0-4.25-0.116-7.65-0.35c-3.367-0.233-5.917-0.351-7.65-0.351c-1.7-0.033-2.967-0.05-3.8-0.05c-1.533,0-2.816,0.101-3.85,0.3
			c-3.5,0.667-5.767,1.4-6.8,2.2l0.5,2.5c0.2,0.834,0.517,1.8,0.95,2.9c0.233,0.6,0.617,1.517,1.15,2.75
			c0.333,0.8,0.566,1.899,0.7,3.3c0.167,2.1,0.267,3.233,0.3,3.4c0.2,1.466,0.4,4.216,0.6,8.25L200,81.65l-0.2-1.301
			c-0.333-1.399-0.833-2.5-1.5-3.3l-2.15-5.2c-0.533,0.233-1.333,0.65-2.4,1.25c-0.9,0.534-1.5,1.017-1.8,1.45
			c-0.367,0.533-0.55,1.25-0.55,2.15c0,1-0.017,2.517-0.05,4.55c-0.033,1.8,0.017,3.316,0.15,4.55c0.067,0.967,0.167,2.483,0.3,4.55
			c0.133,1.767,0.333,3.233,0.6,4.4c0.133,0.533,0.6,1.517,1.4,2.95c0.667,1.133,1.034,1.767,1.1,1.899
			c0.4,0.601,0.883,1.117,1.45,1.551L198,102.3l-0.4-0.05c-0.3-0.033-0.633-0.066-1-0.1l-9-1.25c-0.533-0.067-1.067-0.15-1.6-0.25
			c-1.633-0.267-3.117-0.517-4.45-0.75l-6.75-1c-0.066,0-0.133,0-0.2,0c-0.067-0.034-0.133-0.051-0.2-0.051
			c0.833-0.199,2.1-0.466,3.8-0.8c0.633-0.2,1.216-0.483,1.75-0.85c0.6-0.467,1.083-0.851,1.45-1.15c0.7-0.434,1.217-0.767,1.55-1
			c0.533-0.366,0.933-0.8,1.2-1.3c0.267-0.467,0.517-1.116,0.75-1.95c0.267-0.899,0.467-1.566,0.6-2c1.067-3.8,1.7-7.017,1.9-9.649
			c0-1.867,0.017-3.267,0.05-4.2c0.066-1.601,0.466-2.917,1.2-3.95c1.2-1.767,1.867-2.783,2-3.05c0.5-1,0.75-2.2,0.75-3.601
			c0-2.066-0.316-4.149-0.95-6.25c-1.934-0.033-3.35-0.05-4.25-0.05c-1.2,0-2.817,0.184-4.85,0.55
			c-2.267,0.367-3.883,0.584-4.85,0.65c-5.467,0.4-8.8,0.667-10,0.8c-1.1,0.066-1.95,0.134-2.55,0.2
			c-1.034,0.066-1.867,0.217-2.5,0.45l-0.05,0.35c-0.167,1.601-0.517,3.983-1.05,7.15c-0.467-0.533-0.9-1.25-1.3-2.15
			c-0.433-1.066-0.767-1.85-1-2.35c-0.267-1.033-0.5-1.884-0.7-2.55c-0.367-1.2-0.783-1.884-1.25-2.051c-0.267-0.1-0.55-0.1-0.85,0
			c-0.5,0.2-0.767,0.301-0.8,0.301c-0.233,0.033-0.633,0.017-1.2-0.051c-0.533-0.066-0.933-0.066-1.2,0
			c-1.3,0.267-2.167,1.417-2.6,3.45c-0.133,0.7,0,1.4,0.4,2.101c0.233,0.399,0.65,1,1.25,1.8c0.6,1.033,1.35,2.733,2.25,5.1
			c0.467,1.066,0.7,2.483,0.7,4.25c0.034,1.967-0.066,4.9-0.3,8.8v1.4c-0.4-0.634-0.733-1.583-1-2.85
			c-0.267-1.467-0.517-2.45-0.75-2.95c-0.633-1.4-1.25-3.316-1.85-5.75l-0.1-0.4c-0.133-2-0.383-3.3-0.75-3.899
			c-0.133-0.2-0.867-0.767-2.2-1.7l-0.35-0.25c-0.733-0.566-1.267-0.983-1.6-1.25c-0.633-0.533-1.133-1.017-1.5-1.45
			c-0.2-0.267-0.4-0.667-0.6-1.2c-0.233-0.566-0.433-0.967-0.6-1.2c-0.6-0.767-1-1.3-1.2-1.6c-0.3-0.434-0.45-0.884-0.45-1.35
			l0.05-0.801c-0.767-0.767-1.133-1.733-1.1-2.899c0.033-0.733,0.033-1.267,0-1.601c0-0.6-0.1-1.083-0.3-1.449L139.1,54.1
			c-0.934-0.966-2.233-1.8-3.9-2.5c-1.467-0.6-2.95-1-4.45-1.2c-1.667-0.233-4.183-0.35-7.55-0.35h-0.8
			c-0.933,0.034-1.65,0.067-2.15,0.1c-0.933,0.033-1.667,0-2.2-0.1c-0.733-0.133-1.833-0.617-3.3-1.45
			c-1.4-0.733-3.083-1.15-5.05-1.25c-2.367,0-4.184,0-5.45,0c-6,0-11.767,0.483-17.3,1.45c-7.2,1.3-11.383,2.034-12.55,2.2
			l-2.65,0.45c-2.633,0.4-6.95,0.6-12.95,0.6c-0.733,0.467-1.417,1-2.05,1.601c-0.533,0.5-0.933,1.116-1.2,1.85
			c-0.066,0.1-0.3,0.833-0.7,2.2c-0.133,0.366-0.233,1.149-0.3,2.35c-0.1,1.101-0.267,1.851-0.5,2.25c-0.2,0.3-0.683,0.7-1.45,1.2
			c-0.733,0.533-1.217,0.967-1.45,1.3c-0.333,0.467-0.583,1.101-0.75,1.9c-0.1,0.467-0.233,1.149-0.4,2.05L49.8,70.25z M274.8,80.7
			c-1-1.467-1.583-2.816-1.75-4.05c-0.033-0.233-0.017-1.317,0.05-3.25c0.034-1.301-0.199-2.301-0.699-3l-2.65-3.25
			c-0.833-1.034-1.467-2-1.9-2.9c-0.6-1.233-0.85-2.316-0.75-3.25c0.034-0.8,0.167-1.6,0.4-2.4c0.066-0.233,0.167-1.017,0.3-2.35
			c0.134-1,0.334-1.733,0.601-2.2l0.1-0.1c0.6,0,1.2,0,1.8,0L272,54c-0.066,0.233-0.134,0.467-0.2,0.7l2.351-0.55
			c0.5,0.033,1,0.083,1.5,0.149c2.399,0.334,4.716,0.584,6.949,0.75l9.7,0.2l9.45-0.85c0.7-0.101,1.417-0.217,2.15-0.351
			c1.199-0.2,2.399-0.434,3.6-0.7c3.3-0.699,7.517-1.083,12.65-1.149c2.866-0.033,7.066-0.05,12.6-0.05c0.2,0,0.4,0,0.6,0h0.101
			c0.467,0,0.916-0.017,1.35-0.051L342.4,52c0.5,0,0.966,0,1.399,0c0.101,0,0.2,0,0.3,0c3.967,0.033,7.551,0.267,10.75,0.7
			c2.301,0.3,4.534,0.55,6.7,0.75c8.4,0.8,16.101,0.983,23.101,0.55c1.833-0.1,4.517-0.267,8.05-0.5l0.75-0.05
			c0.1-0.033,0.217-0.05,0.35-0.05c3.601-0.233,6.634-0.367,9.101-0.4h0.899c1.867,0.066,4.483,0.366,7.851,0.9
			c3.666,0.6,6.566,0.833,8.699,0.699c-0.066,1.167-0.166,2.584-0.3,4.25c0,1.233,0.033,3.167,0.101,5.801
			c-0.034,2.3-0.367,4.183-1,5.649l-1.65,3.55c-1.134,1.834-2.25,2.684-3.35,2.551c-0.567,0.899-1.134,1.066-1.7,0.5
			c-0.434-0.434-0.351-1.034,0.25-1.801c0.767-0.767,1.217-1.233,1.35-1.399l0.2,0.149l0.15-0.8c0-0.166-0.084-0.833-0.25-2
			c-0.067-0.633-0.101-2.1-0.101-4.399v-5c0.101-1.134,0.15-2,0.15-2.601c-0.033-1.1-0.283-1.883-0.75-2.35
			c-0.667-0.667-1.834-1.084-3.5-1.25c-1.9-0.033-3.184-0.066-3.851-0.101c-0.767,0-2.017,0.101-3.75,0.301
			c-0.899,0.066-2.05,0.1-3.449,0.1c-1.9-0.033-3.067-0.05-3.5-0.05c-0.834,0.033-1.884,0.166-3.15,0.399
			c-1.934,0.367-3.767,0.934-5.5,1.7c-0.634,0.3-1.483,0.983-2.55,2.05c-1.2,1.233-1.834,2.233-1.9,3l1.101-0.8
			c-0.067,1.033,0.149,3.816,0.649,8.351c0.4,3.5,0.217,6.25-0.55,8.25c-0.233,0.633-0.55,1.483-0.95,2.55
			c-0.434,0.767-1.149,1.25-2.149,1.45c-0.367,0.066-1.017,0-1.95-0.2c-0.867-0.2-1.417-0.233-1.65-0.101
			c-0.033,0.267,0,1.467,0.101,3.601c0.066,1.666-0.167,2.816-0.7,3.45c-0.334,0.399-1.167,1.033-2.5,1.899
			c-0.233,0.2-0.75,0.617-1.55,1.25c-0.733,0.566-1.284,0.816-1.65,0.75c1.6-1.866,2.65-4.283,3.15-7.25
			c0.267-1.7,0.399-4.366,0.399-8c-0.066-1.934-0.116-3.383-0.149-4.35c-0.067-1.8-0.017-3.25,0.149-4.351
			c0.134-0.833,0.733-1.666,1.8-2.5c-0.1-0.199-0.149-0.383-0.149-0.55c-0.066-0.3-0.033-0.767,0.1-1.399
			c0.167-0.767,0.25-1.284,0.25-1.551c0.066-1.366-0.1-2.416-0.5-3.149c-0.434-0.9-1.25-1.601-2.45-2.101
			c-0.666-0.267-1.616-0.433-2.85-0.5c-1.333-0.033-2.283-0.083-2.85-0.149c-1.101-0.134-2.517-0.184-4.25-0.15
			c-2.567,0.033-3.983,0.05-4.25,0.05c-1.167,0-2.167,0.217-3,0.65c-0.534,0.267-1.25,0.833-2.15,1.7l1.3,0.649
			c-0.267,0.5-0.383,1.167-0.35,2c0,0.434,0.017,1.101,0.05,2c-0.1,1.2-0.434,2.351-1,3.45c-0.167,0.3-0.55,1.017-1.15,2.15
			c-0.6,0.934-1.199,1.283-1.8,1.05c-0.066-1.4-0.166-2.5-0.3-3.3c-0.267-1.467-0.833-2.351-1.7-2.65
			c-0.666-0.2-1.783,0.117-3.35,0.95c-2.4,1.3-4.367,2.7-5.9,4.2c-1.434,1.5-2.434,2.717-3,3.649c-0.767,1.301-1.25,2.784-1.45,4.45
			c-0.267,2.033-0.399,4.367-0.399,7l-0.05-0.25c-0.5-1.833-0.801-4.483-0.9-7.95V79.4c-0.1-1.834-0.15-3.25-0.15-4.25
			c-0.033-1.733,0.117-3.101,0.45-4.101c0.2-0.566,0.7-1.25,1.5-2.05c0.601-0.634,1.334-1.667,2.2-3.1c0.9-1.467,1.6-2.5,2.1-3.101
			c1.301-1.5,2.351-2.434,3.15-2.8c0.733-0.3,2.333-0.517,4.8-0.65l2.2-0.25c-0.4-0.133-1.2-0.283-2.4-0.449
			c-1.033-0.134-1.8-0.317-2.3-0.551c-0.467-0.199-0.816-0.399-1.05-0.6c-0.033-0.033-0.283-0.316-0.75-0.85
			c-0.533-0.601-1.05-0.983-1.55-1.15c-0.367-0.1-1.05-0.15-2.05-0.15c-8.167,0.233-14.334,0.351-18.5,0.351
			c-1.5,0-3.717,0.066-6.65,0.2c-2.967,0.1-5.184,0.149-6.65,0.149c-1.366-0.033-3.883,0.283-7.55,0.95H299.4
			c-0.434,0.066-1.084,0.233-1.95,0.5l-2.4,0.2l0.05,0.05c-2.5,0.1-5.033-0.033-7.6-0.4c-2.967-0.366-6.45-0.899-10.45-1.6
			c-1.166-0.033-2.1-0.083-2.8-0.15c-1.333-0.1-2.15-0.383-2.45-0.85c-0.399,1.667-0.533,3.134-0.399,4.4
			c0.066,0.933,0.35,1.899,0.85,2.899c0.3,0.601,0.783,1.533,1.45,2.8c0.434,0.934,0.684,1.5,0.75,1.7c0.2,0.566,0.3,1.167,0.3,1.8
			c-0.033,2.9-0.05,4.483-0.05,4.75c0.033,1.801,0.184,3.351,0.45,4.65c0,0.033,0.216,0.75,0.649,2.15
			c0.267,0.899,0.351,1.616,0.25,2.149C275.684,81.85,275.267,81.4,274.8,80.7z M410.75,79.05l0.65,1.3
			c-0.167,0.7-0.351,1.983-0.551,3.851c-0.267,1.7-0.733,2.866-1.399,3.5c-0.367,0.366-1,0.633-1.9,0.8
			c-0.934,0.167-1.616,0.1-2.05-0.2c-0.6-0.333-0.884-1.116-0.85-2.35c0.033-0.9,0.199-1.783,0.5-2.65
			c0.366-1.233,1.066-2.267,2.1-3.1C408.316,79.333,409.483,78.95,410.75,79.05z M105.7,63.15c0.066,1.1-0.567,1.633-1.9,1.6
			c0,0.733,0.034,1.667,0.1,2.8c-0.066,0.9-0.483,1.733-1.25,2.5c-0.267,0.267-0.733,0.667-1.4,1.2c-0.633,0.533-1.1,0.95-1.4,1.25
			c-0.8,0.833-1.3,1.333-1.5,1.5c-0.733,0.566-1.417,0.7-2.05,0.4c-0.6-0.301-0.767-1.134-0.5-2.5c0.2-1.034,0.534-1.967,1-2.801
			c1.1-1.233,1.867-2.133,2.3-2.699c0.767-0.9,1.066-1.95,0.9-3.15c-0.6,0.167-3.617,0.4-9.05,0.7c-3.6,0.2-6.35,1.217-8.25,3.05
			c-1.333,1.267-2.417,2.4-3.25,3.4c-0.267,0.333-0.867,0.966-1.8,1.899c-0.8,0.9-1.3,1.617-1.5,2.15c-0.3,0.767-0.4,2-0.3,3.7
			c0.033,0.899,0.117,2.133,0.25,3.699c-0.633-2.566-1-4.033-1.1-4.399c-0.367-0.967-0.65-1.733-0.85-2.3
			c-0.3-1.067-0.333-1.884-0.1-2.45c0.367-0.867,1.25-1.967,2.65-3.3l3.15-3.051c0.933-1.199,1.667-2.116,2.2-2.75
			c0.967-1.199,1.833-1.966,2.6-2.3c0.4-0.166,0.9-0.25,1.5-0.25c0.367,0,0.9,0,1.6,0c6.767-0.233,11.1-0.35,13-0.35l3,0.35
			C104.95,61.35,105.6,62.05,105.7,63.15z"/>
		<path style="fill-rule:evenodd;clip-rule:evenodd;fill:#CED1D6;" d="M342.85,2.3l0.25,0.05c1.7,0.433,4.834,0.683,9.4,0.75
			c0.066,0.967-0.184,1.75-0.75,2.35c-0.3,0.333-0.767,0.633-1.4,0.9c-0.733,0.3-1.267,0.533-1.6,0.7c-0.6,0.3-1.483,0.534-2.65,0.7
			c-1.267,0.2-2.166,0.4-2.699,0.6c-1.334,0.5-2.767,1.2-4.301,2.1c-1.199,0.7-2.433,1.15-3.699,1.35
			c-0.934,0.167-2.267,0.25-4,0.25H324.3c-3.1,0.133-5.467,0.217-7.1,0.25c-2.934,0.1-5.25-0.017-6.95-0.35
			c0.833-0.333,2.066-0.55,3.7-0.65c2.399-0.133,3.666-0.216,3.8-0.25c0.733-0.1,2.184-0.333,4.35-0.7
			c1.801-0.333,3.25-0.55,4.351-0.65c0.233-0.034,1.483-0.067,3.75-0.1c1.533-0.033,2.733-0.217,3.6-0.55
			c0.566-0.2,1.834-0.85,3.8-1.95c1-0.467,1.75-0.833,2.25-1.1c0.9-0.433,1.584-0.9,2.051-1.4
			C342.434,4.033,342.75,3.267,342.85,2.3z M342.5,0.05l0.65,0.05l0.649,0.05L342.65,0.4L342.5,0.05z M140.5,2.35l0.05-0.05
			c2.7,0.267,6.717,0.684,12.05,1.25c0.3,0.034,0.6,0.067,0.9,0.1l11.05,0.85C159.383,5.1,154.2,5.4,149,5.4
			c-2.1,0.167-3.817,0.267-5.15,0.3c-2.4,0.066-4.117-0.15-5.15-0.65c0.066-0.367,0.283-0.816,0.65-1.35
			C139.717,3.133,140.1,2.683,140.5,2.35z M138.75,50.5c-0.1-0.033-0.183-0.05-0.25-0.05l-0.3-0.05
			c-2.267-0.333-4.167-0.633-5.7-0.9l-2.1-0.45c-4.3-1.066-7.533-1.833-9.7-2.3c-3.8-0.8-7.1-1.167-9.9-1.1
			c-6.667,0.1-13.35,0.483-20.05,1.15c-2.533,0.267-7.383,1.017-14.55,2.25l1.2-1c0.567,0.034,1.35-0.183,2.35-0.65
			c2.567-1.033,5.017-1.9,7.35-2.6c0.833-0.233,2.033-0.633,3.6-1.2c1.4-0.434,2.65-0.717,3.75-0.85
			c2.566-0.267,4.417-0.617,5.55-1.05c1.533-0.534,4.417-1.733,8.65-3.6c3.6-1.567,6.533-2.684,8.8-3.35
			c1.3-0.333,2.833-0.483,4.6-0.45c0.733,0.034,2.25,0.167,4.55,0.4c1.667,0.167,4.417,0.316,8.25,0.45
			c3.5,0.133,6.233,0.333,8.2,0.6c-0.066,0.333-0.25,0.583-0.55,0.75c-0.4,0.233-0.65,0.4-0.75,0.5c-0.533,0.6-0.867,1.283-1,2.05
			c-0.233,1.133,0.017,2.467,0.75,4c0.533,1.133,0.75,2.284,0.65,3.45c-0.133,1.333-0.683,2.383-1.65,3.15
			c-0.5,0.367-1.067,0.65-1.7,0.85H138.75z"/>
	</g>
	
		<radialGradient id="SVGID_3_" cx="140.1499" cy="83.7002" r="328.2" gradientTransform="matrix(1 0 0 -1 0 167.4004)" gradientUnits="userSpaceOnUse">
		<stop  offset="0" style="stop-color:#FFFFFF;stop-opacity:0.3569"/>
		<stop  offset="1" style="stop-color:#93A3B1;stop-opacity:0.7176"/>
	</radialGradient>
	<path style="fill-rule:evenodd;clip-rule:evenodd;fill:url(#SVGID_3_);" d="M448.25,14.9c1.153,0.222,2.403,1.089,3.75,2.6
		c0.6,0.667,1.1,1.767,1.5,3.3c0.233,0.833,0.566,2.017,1,3.55c0.8,2.267,2.25,5.217,4.35,8.85c2.367,4.133,3.917,7.017,4.65,8.65
		c1.8,4.066,1.55,8.917-0.75,14.55c-0.634,1.5-1.134,3.3-1.5,5.399c-0.033,0.267-0.283,2.117-0.75,5.55
		c-0.1,0.7-0.167,2.217-0.2,4.551c-0.033,1.899-0.2,3.383-0.5,4.449c-1.033,3.534-4.399,7.051-10.1,10.551c-1.9,1.166-4.7,3-8.4,5.5
		c-3.333,2.033-6.416,3.366-9.25,4c-4.934,1.066-11,1.633-18.2,1.699c-8.233-0.166-14.366-0.25-18.399-0.25c-5.3,0-8.084,0-8.351,0
		c-3.199,0.101-5.883,0.434-8.05,1c-2.399,0.801-4.2,1.267-5.399,1.4c-2.601,0.3-6.2-0.333-10.801-1.9
		c-3.399-0.1-5.966-0.149-7.699-0.149c-2.967,0-5.483,0.184-7.551,0.55c-0.666,0.134-1.6,0.384-2.8,0.75
		c-1.267,0.4-2.2,0.667-2.8,0.8c-2.066,0.434-4.85,0.584-8.35,0.45c-3.867-0.2-6.667-0.316-8.4-0.35
		c-7.8-0.067-17.783-0.534-29.95-1.4c-6.533-0.533-11.5-0.884-14.899-1.05c-1.067-0.134-2.233-0.15-3.5-0.05
		c-0.167-0.034-0.534-0.217-1.101-0.551h0.65c-0.667-0.1-1.517,0-2.55,0.301c-1.101,0.399-1.917,0.649-2.45,0.75
		c-7.167,1.633-15.434,2.75-24.8,3.35c-6.301,0.4-14.667,0.616-25.101,0.65l-14.2-0.051c-2.167,0.034-3.783,0.051-4.85,0.051
		c-1.9,0.033-3.517-0.017-4.85-0.15c-2.867-0.233-7.35-0.884-13.45-1.95c-5.833-1-10.333-1.6-13.5-1.8c-3-0.2-6.667-0.283-11-0.25
		c-4.9,0.066-8.567,0.1-11,0.1h-48.4c-7.7,0-12.883-0.116-15.55-0.35c-0.433-0.033-1.367-0.033-2.8,0c-1.167,0-2.083-0.066-2.75-0.2
		c-1.333-0.3-2.917-0.816-4.75-1.55c-2.067-0.9-3.6-1.566-4.6-2c-4-1.833-7.067-3.2-9.2-4.1c-3.8-1.567-6.983-2.5-9.55-2.801
		c-0.3-0.033-1.283-0.017-2.95,0.051c-1.133,0.066-2.066-0.067-2.8-0.4c-1.533-1.3-3.267-2.3-5.2-3
		c-7.2-3.134-14.367-4.85-21.5-5.15c-1.333,0-2.433-0.033-3.3-0.1c-1.567-0.1-2.65-0.35-3.25-0.75
		c-0.667-0.434-1.317-1.483-1.95-3.15c-0.767-2.033-1.283-3.233-1.55-3.6c-0.333-0.467-1.333-1.65-3-3.55
		c-1.167-1.367-2.017-2.65-2.55-3.851c-0.633-1.3-1.4-3.133-2.3-5.5c-0.767-2.033-0.917-4.333-0.45-6.899
		c0.2-1.067,0.85-3.267,1.95-6.6c0.333-1,0.6-2.133,0.8-3.4c0.233-1.534,0.4-2.733,0.5-3.6c0.2-1.267,0.45-2.133,0.75-2.6
		c0.267-0.433,0.633-0.717,1.1-0.85c-0.3,0.3-0.467,0.567-0.5,0.8c-0.1,0.5,1.283,1.6,4.15,3.3c1.4,0.833,2.633,1.517,3.7,2.05
		c2.067,1.1,4.067,1.934,6,2.5c1.633,0.5,3.767,0.967,6.4,1.4c0.7,0.1,2.017,0.25,3.95,0.45c1.8,0.2,3.15,0.383,4.05,0.55
		c0.767,0.133,1.883,0.45,3.35,0.95c1.467,0.533,2.567,0.867,3.3,1c0.9,0.2,3.083,0.733,6.55,1.6c0.733,0.167,1.433,0.333,2.1,0.5
		c1.767,0.4,3.25,0.683,4.45,0.85c5.033,0.733,11.383,0.533,19.05-0.6c4.267-0.633,10.533-1.617,18.8-2.95
		c6.7-0.667,13.383-1.05,20.05-1.15c2.8-0.066,6.1,0.3,9.9,1.1c2.167,0.467,5.4,1.233,9.7,2.3l2.1,0.45
		c1.533,0.267,3.433,0.567,5.7,0.9l0.3,0.05c0.933,0.2,1.733,0.383,2.4,0.55c1.667,0.433,4.033,1.116,7.1,2.05
		c3.233,1,5.583,1.7,7.05,2.101c4.333,1.199,9.117,1.883,14.35,2.05c2.967,0.066,7.817-0.066,14.55-0.4
		c5.5-0.3,13.883-0.883,25.15-1.75c8.967-0.3,16.017-0.467,21.15-0.5c4.467-0.033,7.483,0.017,9.05,0.15
		c2.3,0.233,4.033,0.383,5.2,0.45c1.9,0.133,3.616,0.166,5.15,0.1c0.966-0.033,2.133-0.1,3.5-0.2c1.833-0.133,4-0.3,6.5-0.5
		c0.966-0.1,1.966-0.2,3-0.3c2.1-0.167,4.05-0.267,5.85-0.3c0.6,0,1.2,0,1.8,0L272,54c0.733,0.033,1.45,0.083,2.15,0.15
		c0.5,0.033,1,0.083,1.5,0.149c2.399,0.334,4.716,0.584,6.949,0.75l8.15,0.2c0.5,0,1.017,0,1.55,0l9.45-0.85
		c0.7-0.101,1.417-0.217,2.15-0.351c1.199-0.2,2.399-0.434,3.6-0.7c3.3-0.699,7.517-1.083,12.65-1.149
		c2.866-0.033,7.066-0.05,12.6-0.05c0.2,0,0.4,0,0.6,0h0.075c0.492-0.003,0.95-0.021,1.375-0.051L342.4,52c0.5,0,0.966,0,1.399,0
		c0.101,0,0.2,0,0.3,0c3.967,0.033,7.551,0.267,10.75,0.7c2.301,0.3,4.534,0.55,6.7,0.75c8.4,0.8,16.101,0.983,23.101,0.55
		c1.833-0.1,4.517-0.267,8.05-0.5l0.75-0.05c0.1-0.033,0.217-0.05,0.35-0.05c3.601-0.233,6.634-0.367,9.101-0.4h0.899
		c1.867,0.066,4.483,0.366,7.851,0.9c3.666,0.6,6.566,0.833,8.699,0.699c0.034,0,0.084,0,0.15,0c2.733-0.133,5.45-0.483,8.15-1.05
		V53.5c0.166-1.366-0.2-2.733-1.101-4.1c-0.033-0.066-0.066-0.117-0.1-0.15c-0.467-0.667-1.033-1.317-1.7-1.95
		c-0.267-0.2-0.517-0.4-0.75-0.6c-2.3-1.9-3.833-3.35-4.6-4.35c-0.034-0.033-0.067-0.083-0.101-0.15c-0.2-0.3-0.366-0.617-0.5-0.95
		c-0.434-1.067-0.6-2.45-0.5-4.15c0.101-2.367,1.75-4.483,4.95-6.35c1.533-0.867,4.217-1.983,8.05-3.35
		c1.767-0.633,4.467-1.517,8.101-2.65c0.066-0.033,0.116-0.05,0.149-0.05c3.267-1.1,5.917-2.2,7.95-3.3h0.05
		c2.8-1.467,3.334-3.117,1.601-4.95c-0.534-0.534-1.15-1.034-1.851-1.5C448.267,14.95,448.25,14.933,448.25,14.9z"/>
</g>
</svg>
