<?xml version="1.0" encoding="iso-8859-1"?>
<!-- Generator: Adobe Illustrator 15.1.0, SVG Export Plug-In . SVG Version: 6.00 Build 0)  -->
<!DOCTYPE svg PUBLIC "-//W3C//DTD SVG 1.1//EN" "http://www.w3.org/Graphics/SVG/1.1/DTD/svg11.dtd">
<svg version="1.1" id="Layer_1" xmlns="http://www.w3.org/2000/svg" xmlns:xlink="http://www.w3.org/1999/xlink" x="0px" y="0px"
	 width="191.3px" height="40.25px" viewBox="0 0 191.3 40.25" style="enable-background:new 0 0 191.3 40.25;" xml:space="preserve"
	>
<g>
	<path style="fill-rule:evenodd;clip-rule:evenodd;fill:#A39A90;" d="M158.7,17.6c-0.4,0.4-1.066,0.6-2,0.6
		c-0.634,0-1.283-0.267-1.95-0.8c0.4-0.267,1.95-0.6,4.65-1C159.167,16.967,158.934,17.367,158.7,17.6z M139.45,6.15l0.55,0.3
		c1.967,2.2,6.3,3.3,13,3.3c0.333,0,3.866-0.15,10.6-0.45c7.233-0.267,12.434-0.367,15.601-0.3l1.05,1.2
		c0.6,0.233,1.917,0.6,3.95,1.1c2.3,0.7,4.666,1.617,7.1,2.75c-0.267,0.267-0.517,0.534-0.75,0.8c-0.399,0.467-0.7,0.967-0.899,1.5
		c-2.101-0.067-4.601-0.917-7.5-2.55c-2.801-1.6-5.851-2.4-9.15-2.4c-2.934,0-5.65,0.05-8.15,0.15
		c-4.066,0.1-6.466,0.317-7.199,0.65c0.193,0.129,0.401,0.196,0.625,0.2c-0.291,0-0.583,0-0.875,0
		c-6.134-0.066-11.15-0.783-15.051-2.15c-4.3-1.467-7.916-2.233-10.85-2.3c-3.6-0.1-10.05-0.15-19.35-0.15
		C106.184,7.8,101.8,7.633,99,7.3c-2.467-0.3-5.117-0.933-7.95-1.9c-2.333-0.767-4.517-1.15-6.55-1.15c-3.833,0-6.783,0.7-8.85,2.1
		c-3.8,2.533-6.316,4.05-7.55,4.55c-2.5,1.033-9.083,1.55-19.75,1.55c-2.333,0-4.717-0.4-7.15-1.2c-2.467-0.8-4.583-1.2-6.35-1.2
		c-0.533,0-1.8,0.1-3.8,0.3c-2.066,0.2-3.65,0.383-4.75,0.55c-1.7,0.4-2.883,0.6-3.55,0.6c-0.333,0-0.617-0.117-0.85-0.35
		c-0.267-0.267-0.566-0.4-0.9-0.4c-1.067,0-2.883,0.6-5.45,1.8c-2.633,1.267-4.75,1.967-6.35,2.1c-2.633,0.233-4.567,0.883-5.8,1.95
		c-0.333,0.3-1.467,1.75-3.4,4.35C0,18.817,0.633,17,1.9,15.5s2.783-2.25,4.55-2.25l0.75-0.3h0.05l1.7,0.15c2.7,0,4.9-0.55,6.6-1.65
		c0.467-0.3,1.833-1.517,4.1-3.65s4.167-3.3,5.7-3.5C26.283,4.167,28,3.983,30.5,3.75c1.7,0.433,4.4,1.45,8.1,3.05
		c4.633,1.4,11.15,2.1,19.55,2.1c3.6,0,6.067-0.367,7.4-1.1c0.467-0.267,1.167-1.066,2.1-2.4c1.967-1,6.217-2.167,12.75-3.5
		c7.434-1.566,12.75-2.1,15.95-1.6l0.101,0.05c0.767,0.333,1.366,0.8,1.8,1.4c0.4,0.567,1,0.983,1.8,1.25
		c2.634,0.867,10.717,1.517,24.25,1.95h0.3L124.9,4.9l1.199,0.05l4.75-0.4c3-0.233,5.117-0.316,6.351-0.25
		C138.134,5.233,138.884,5.85,139.45,6.15z M172,19.9h0.4c-0.134,0.067-0.334,0.133-0.601,0.2c-0.666,0.1-1.767,0.133-3.3,0.1
		c-1.5-0.067-2.866-0.167-4.1-0.3H172z M141.2,23.7c0.399-0.934,0.6-1.5,0.6-1.7l3.601,0.9C144.733,23.434,143.333,23.7,141.2,23.7z
		 M138.65,23.4c-0.601-0.101-1.134-0.233-1.601-0.4c1.334,0,2-0.066,2-0.2l0.95-0.1L138.65,23.4z M125.9,18.4
		c-0.867-0.233-1.301-0.517-1.301-0.85c0-0.333,0.434-0.617,1.301-0.85c0.866-0.233,1.899-0.35,3.1-0.35s2.233,0.117,3.1,0.35
		c0.867,0.233,1.301,0.517,1.301,0.85c0,0.333-0.434,0.617-1.301,0.85c-0.866,0.233-1.899,0.35-3.1,0.35S126.767,18.633,125.9,18.4z
		 M141.65,22l-0.601,0.2l0.2-0.15C141.417,21.983,141.55,21.967,141.65,22z M111.1,12.25c0,0.233-0.199,0.45-0.6,0.65
		c-0.434,0.167-0.934,0.25-1.5,0.25s-1.05-0.083-1.45-0.25c-0.434-0.2-0.649-0.417-0.649-0.65s0.216-0.433,0.649-0.6
		c0.4-0.2,0.884-0.3,1.45-0.3s1.066,0.1,1.5,0.3C110.9,11.817,111.1,12.017,111.1,12.25z M95.75,11.05l0.8-0.1
		c0.101,0.033,0.783,0.216,2.05,0.55c1.301,0.4,2.167,0.833,2.601,1.3c-0.467,0.567-0.9,0.95-1.3,1.15
		c-0.7,0.433-1.634,0.65-2.801,0.65c-3.033-0.333-6.1-0.5-9.2-0.5c0-0.1-0.3-0.233-0.9-0.4c0.233-0.2,0.5-0.483,0.8-0.85
		c0.434-0.367,1.3-0.85,2.6-1.45C90.633,11.333,92.417,11.217,95.75,11.05z M84.9,15.15C83.7,15.217,81.733,15,79,14.5l2.2-0.2
		c0.667,0,2.733,0.034,6.2,0.1C86.7,14.867,85.867,15.117,84.9,15.15z M88.55,13.45c1.067,0,2.434-0.117,4.1-0.35
		c2.133-0.333,3.55-0.733,4.25-1.2l-6.5-0.5c-0.1,0.167-0.4,0.517-0.9,1.05C89,12.983,88.683,13.317,88.55,13.45z M103.15,28.2
		l0.5-0.351l1.399-0.699c0.334-0.067,0.75-0.15,1.25-0.25c0.334-0.101,0.434-0.25,0.3-0.45l1.301-0.05l-1.75-0.75l-0.75-1.25
		c0.533,0.133,2,0.35,4.399,0.649c-1.866,1.634-2.85,2.483-2.95,2.55C105.75,28.333,104.517,28.533,103.15,28.2z M107.25,29.4
		c1.134,0,2.116-0.384,2.95-1.15c0.8-0.8,1.2-1.767,1.2-2.9c0.3,0.034,1,0.25,2.1,0.65c1.233,0.467,1.967,0.833,2.2,1.1
		c0.399,0.367,0.633,0.767,0.7,1.2C111.2,29.233,108.15,29.6,107.25,29.4z M84.4,30.4l0.8,0.1c0.533,0.1,0.833,0.283,0.9,0.55
		c-0.6,0.767-1.167,1.267-1.7,1.5c-0.833,0.367-2.183,0.55-4.05,0.55c-0.7,0-1.717-0.133-3.05-0.399
		c-1.333-0.267-2.216-0.517-2.65-0.75c0.067-0.5,0.267-0.95,0.6-1.351c0.6,0.301,1.45,0.601,2.55,0.9
		c1.333,0.366,2.483,0.55,3.45,0.55C82.45,32.05,83.5,31.5,84.4,30.4z M87.7,25.25l-0.5-0.35c1.1-0.167,3.333-0.334,6.7-0.5v1
		l-3.7,0.25C89.267,25.65,88.433,25.517,87.7,25.25z M67.1,15.8c0.333-0.4,0.6-0.7,0.8-0.9l2.5,2.5
		c-0.566,0.033-1.35-0.017-2.35-0.15c-1.1-0.133-1.65-0.283-1.65-0.45C66.5,16.6,66.733,16.267,67.1,15.8z M56.55,15.9l4.85-1
		l0.05,2.1c0,1.8-1.017,2.983-3.05,3.55c-0.767,0.2-1.933,0.3-3.5,0.3c-1.867,0-3.517-0.15-4.95-0.45l-1-0.35
		c1.667-0.367,2.683-1.133,3.05-2.3c0.833-0.133,1.483-0.333,1.95-0.6l-1.85,1.8c0.6,0.233,0.9,0.433,0.9,0.6l1.9,0.15
		c1.4,0,2.383-0.117,2.95-0.35c0.566-0.267,0.917-0.75,1.05-1.45L56.55,15.9z M65.15,22.65c0.467,0.333,1.1,0.466,1.9,0.399
		L68.9,23.4c-1.1,0.1-3.283,0.183-6.55,0.25l-0.9-0.2c-0.233-0.066-0.45-0.2-0.65-0.4l1.7-0.3
		C63.733,22.583,64.617,22.55,65.15,22.65z M72.4,18.4l10,1.5c-2.433,0.133-3.983,0.2-4.65,0.2C74.85,20.1,73.067,19.533,72.4,18.4z
		 M56.4,30.45c-1.6,0-3.267-0.184-5-0.55c1.2-0.733,2.25-1.117,3.15-1.15c1.2-0.033,2.483,0.517,3.85,1.65L56.4,30.45z M32,16.9
		l0.2-0.1c0.767,0.867,0.667,1.583-0.3,2.15c-0.633,0.333-1.267,0.5-1.9,0.5l-4.55-0.25l-1.4-0.65c0.534-0.066,2.367-0.483,5.5-1.25
		c0.267-0.066,0.517-0.117,0.75-0.15c0.3-0.033,0.6-0.05,0.9-0.05L32,16.9z M32,16.85c0-0.033,0.033-0.083,0.1-0.15
		C32.733,16.567,32.7,16.617,32,16.85z M32.6,23.9c-0.767,1.033-1.717,1.699-2.85,2c-1.2,0.3-3.65,0.5-7.35,0.6h-0.95
		c0.733,0.2,1.6,0.5,2.6,0.9c1.133,0.333,2.7,0.5,4.7,0.5c2.367,0,4.2-0.334,5.5-1c1.267-0.634,2.133-1.65,2.6-3.051L49.9,24.4
		c-5.3,1.566-9.717,2.633-13.25,3.199c-3,0.5-6.15,0.75-9.45,0.75c-1.567,0-3.3-0.183-5.2-0.55c-1.6-0.333-2.733-0.649-3.4-0.95
		L17.85,26.4c0.533-0.867,0.967-1.384,1.3-1.551c0.367-0.199,1.533-0.55,3.5-1.05c0.434,0.233,1.067,0.434,1.9,0.601
		c0.833,0.199,1.5,0.3,2,0.3c0.567,0,1.55-0.084,2.95-0.25C31.033,24.25,32.067,24.066,32.6,23.9z"/>
	<path style="fill-rule:evenodd;clip-rule:evenodd;fill:#B3AA9E;" d="M0,20.95c1.933-2.6,3.067-4.05,3.4-4.35
		c1.233-1.067,3.167-1.717,5.8-1.95c1.6-0.133,3.716-0.833,6.35-2.1c2.567-1.2,4.383-1.8,5.45-1.8c0.333,0,0.633,0.133,0.9,0.4
		c0.233,0.233,0.517,0.35,0.85,0.35c0.667,0,1.85-0.2,3.55-0.6c1.1-0.167,2.684-0.35,4.75-0.55c2-0.2,3.267-0.3,3.8-0.3
		c1.767,0,3.883,0.4,6.35,1.2c2.433,0.8,4.816,1.2,7.15,1.2c10.667,0,17.25-0.517,19.75-1.55c1.233-0.5,3.75-2.017,7.55-4.55
		c2.067-1.4,5.017-2.1,8.85-2.1c2.033,0,4.217,0.383,6.55,1.15C93.883,6.367,96.533,7,99,7.3c2.8,0.333,7.184,0.5,13.15,0.5
		c9.3,0,15.75,0.05,19.35,0.15c2.934,0.066,6.55,0.833,10.85,2.3c3.9,1.367,8.917,2.083,15.051,2.15c0.292,0,0.584,0,0.875,0
		c-0.224-0.004-0.432-0.071-0.625-0.2c0.733-0.333,3.133-0.55,7.199-0.65c2.5-0.1,5.217-0.15,8.15-0.15c3.3,0,6.35,0.8,9.15,2.4
		c2.899,1.633,5.399,2.483,7.5,2.55c0,1.833-0.384,3.4-1.15,4.7c-0.767,1.267-1.684,1.9-2.75,1.9c0.833-0.533,1.533-1.05,2.1-1.55
		L187.1,21.8c-2.767,0.834-5.699,1.917-8.8,3.25c-4.6,2-7.649,3.834-9.149,5.5c-1.167,1.3-3.867,2.7-8.101,4.2
		c-4.033,1.233-6.083,1.85-6.149,1.85c-10.134-0.366-16.9-0.483-20.301-0.35c-2.166,0.066-4.566,0.366-7.199,0.9
		c-2.5,0.5-4.067,0.75-4.7,0.75c-1.134,0-6.117-0.5-14.95-1.5s-13.383-1.5-13.65-1.5c-2.833,0-4.917,0.416-6.25,1.25
		c-1.3,0.8-2.934,1.199-4.9,1.199L68.15,37c-0.967-0.033-1.733-0.3-2.3-0.8c-0.8-0.733-1.25-1.117-1.35-1.15
		c-0.9-0.434-2.567-0.75-5-0.95c-2.8-0.233-4.217-0.35-4.25-0.35c-0.867-0.233-2.35-0.733-4.45-1.5
		c-1.767-0.634-2.783-0.95-3.05-0.95c-6.2,0.167-11.183,0.3-14.95,0.4c-7,0.166-11.6,0.033-13.8-0.4
		c-0.767-0.166-1.767-0.783-3-1.85c-1.5-1.4-2.667-2.467-3.5-3.2c-3.267-2.733-6.4-3.717-9.4-2.95C1.267,21.934,0.233,21.15,0,20.95
		z M96.35,0.3L96.2,0.15l0.25,0.2L96.35,0.3z M139.45,6.15l1.45,0.7l-0.9-0.4L139.45,6.15z M158.7,17.6
		c0.233-0.233,0.467-0.633,0.7-1.2c-2.7,0.4-4.25,0.733-4.65,1c0.667,0.533,1.316,0.8,1.95,0.8C157.634,18.2,158.3,18,158.7,17.6z
		 M179.2,9l-1.15-1.75l2.2,2.95L179.2,9z M172,19.9h-7.6c1.233,0.133,2.6,0.233,4.1,0.3c1.533,0.033,2.634,0,3.3-0.1
		c-0.2,1.333-0.366,2.133-0.5,2.4c0.434,0.233,0.65,0.4,0.65,0.5l2.35,0.15c0.934,0,2.134-0.101,3.601-0.301V21.9
		C174.8,19.933,172.833,19.267,172,19.9z M166.55,24.45c0.367-0.467,0.816-1.65,1.351-3.55c-1.467,0.734-2.9,1.7-4.301,2.9
		c-0.833,0.7-1.916,1.117-3.25,1.25c0.4,0.2,0.884,0.367,1.45,0.5C164.5,25.417,166.083,25.05,166.55,24.45z M155.55,20.9H152.9
		H155.55c-0.633,0.2-1.233,0.534-1.8,1c0.866,0.466,1.3,0.733,1.3,0.8c2.066,0.2,4.017,0.3,5.851,0.3c0.733,0,1.633-0.25,2.699-0.75
		c1-0.467,1.934-1.083,2.801-1.85L155.55,20.9c1.2-0.2,1.483-0.267,0.851-0.2C156.1,20.733,155.816,20.8,155.55,20.9z M173.55,18.6
		c0.667,0,1.65-0.083,2.95-0.25c-0.134-1.434-0.2-2.417-0.2-2.95c-1.833,0.833-3.184,1.517-4.05,2.05l-0.8,0.5
		C171.95,18.383,172.65,18.6,173.55,18.6z M138.65,23.4l1.35-0.7l-0.95,0.1c0,0.134-0.666,0.2-2,0.2
		C137.517,23.167,138.05,23.3,138.65,23.4c-0.067,0.033-0.667,0.517-1.801,1.449l0.7,0.15l1.75,0.1c0.334,0,0.65-0.116,0.95-0.35
		c0.2-0.167,0.517-0.517,0.95-1.05c2.133,0,3.533-0.267,4.2-0.8L141.8,22l0.101-0.1L138.65,23.4z M149.65,13.75
		c-2.101,0-3.65,0.167-4.65,0.5c-0.3,0.1-0.767,0.35-1.4,0.75c0.2,0.167,0.534,0.45,1,0.85c0.534,0.333,1.317,0.5,2.351,0.5
		c1.666,0,3.616-0.15,5.85-0.45c2.8-0.4,4.5-0.9,5.101-1.5C153,13.967,150.25,13.75,149.65,13.75z M130.4,21.6v2.351h5.199V21.6
		H130.4z M125.9,18.4c0.866,0.233,1.899,0.35,3.1,0.35s2.233-0.117,3.1-0.35c0.867-0.233,1.301-0.517,1.301-0.85
		c0-0.333-0.434-0.617-1.301-0.85c-0.866-0.233-1.899-0.35-3.1-0.35s-2.233,0.117-3.1,0.35c-0.867,0.233-1.301,0.517-1.301,0.85
		C124.6,17.883,125.033,18.167,125.9,18.4z M122.75,16.1c1.667-0.267,2.717-0.5,3.15-0.7c-1.5-0.333-2.584-0.5-3.25-0.5
		c-0.5,0-1.184,0.1-2.051,0.3c-0.899,0.233-1.566,0.466-2,0.7l0.851,0.4C119.917,16.433,121.017,16.367,122.75,16.1z M141.65,22
		c-0.101-0.033-0.233-0.017-0.4,0.05l-0.2,0.15L141.65,22z M157.9,30.9c-1.667-0.667-2.834-1-3.5-1c-0.167,0-0.417,0.116-0.75,0.35
		c-0.434,0.3-0.834,0.667-1.2,1.1C155.05,31.517,156.866,31.366,157.9,30.9z M123.35,34.85c6.9,0,11.467-0.083,13.7-0.25
		c3.967-0.333,6.417-1.066,7.351-2.199v-2.5c-13.334-0.2-20.483-0.267-21.45-0.2c-0.8,0.066-1.3,0.217-1.5,0.45
		c-0.4,0.5-0.816,0.866-1.25,1.1c-1.566,0.8-2.417,1.7-2.55,2.7l0.699,0.6C121.15,34.75,122.816,34.85,123.35,34.85z M104.5,9.95
		c0.1,0.3,0.267,0.566,0.5,0.8c0.134,0.067,0.267,0.15,0.4,0.25c0.166,0.067,0.466,0.1,0.899,0.1c0.7,0,1.117-0.3,1.25-0.9
		c-0.1-0.2-1.149-0.467-3.149-0.8L104.5,9.95z M119.4,11.4l-5.5-1.5l-0.45,0.7l0.1,0.35c0.3,0.133,0.867,0.267,1.7,0.4
		c0.767,0.1,1.417,0.15,1.95,0.15C117.866,11.5,118.6,11.467,119.4,11.4z M111.1,12.25c0-0.233-0.199-0.433-0.6-0.6
		c-0.434-0.2-0.934-0.3-1.5-0.3s-1.05,0.1-1.45,0.3c-0.434,0.167-0.649,0.367-0.649,0.6s0.216,0.45,0.649,0.65
		c0.4,0.167,0.884,0.25,1.45,0.25s1.066-0.083,1.5-0.25C110.9,12.7,111.1,12.483,111.1,12.25z M102.9,22c0-0.333-0.317-0.6-0.95-0.8
		c-0.667-0.233-1.45-0.35-2.351-0.35c-0.899,0-1.666,0.117-2.3,0.35c-0.666,0.2-1,0.467-1,0.8s0.334,0.616,1,0.85
		c0.634,0.2,1.4,0.301,2.3,0.301c0.9,0,1.684-0.101,2.351-0.301C102.583,22.616,102.9,22.333,102.9,22z M105.8,19.2
		c0,0.5,0.533,0.933,1.601,1.3c1.033,0.333,2.3,0.5,3.8,0.5s2.783-0.167,3.85-0.5c1.033-0.367,1.55-0.8,1.55-1.3
		s-0.517-0.917-1.55-1.25c-1.066-0.367-2.35-0.55-3.85-0.55s-2.767,0.184-3.8,0.55C106.333,18.283,105.8,18.7,105.8,19.2z
		 M96.55,10.95c1.9,0.167,3.517-0.684,4.851-2.55L87.7,6.9c-1.567,0-3.2,0.267-4.9,0.8c-1.7,0.533-2.8,1.1-3.3,1.7
		c0.1,0.467,0.45,0.867,1.05,1.2c0.667,0.4,5.733,0.55,15.2,0.45c-3.333,0.167-5.117,0.284-5.35,0.35c-1.3,0.6-2.167,1.083-2.6,1.45
		c-0.3,0.367-0.566,0.65-0.8,0.85c0.6,0.167,0.9,0.3,0.9,0.4c3.1,0,6.167,0.167,9.2,0.5c1.167,0,2.101-0.217,2.801-0.65
		c0.399-0.2,0.833-0.583,1.3-1.15c-0.434-0.466-1.3-0.9-2.601-1.3C97.333,11.167,96.65,10.983,96.55,10.95z M84.9,15.15
		c0.967-0.033,1.8-0.283,2.5-0.75c-3.467-0.066-5.533-0.1-6.2-0.1L79,14.5C81.733,15,83.7,15.217,84.9,15.15z M84.4,30.4
		c0-0.2-0.083-0.434-0.25-0.7l-0.25-0.3c-0.7,0.366-2.183,0.583-4.45,0.649c-1.833,0.066-3.367,0.05-4.6-0.05
		c0.1,0.233,0.233,0.434,0.4,0.6c-0.333,0.4-0.533,0.851-0.6,1.351c0.434,0.233,1.317,0.483,2.65,0.75
		c1.333,0.267,2.35,0.399,3.05,0.399c1.867,0,3.217-0.183,4.05-0.55c0.533-0.233,1.1-0.733,1.7-1.5
		c-0.067-0.267-0.367-0.45-0.9-0.55L84.4,30.4z M107.25,29.4c0.9,0.199,3.95-0.167,9.15-1.101c-0.067-0.434-0.301-0.833-0.7-1.2
		c-0.233-0.267-0.967-0.633-2.2-1.1c-1.1-0.4-1.8-0.616-2.1-0.65V24.4L109.8,25.05c-2.399-0.3-3.866-0.517-4.399-0.649l0.75,1.25
		c-1.2-1-2.934-1.084-5.2-0.25c-1.834,0.666-3.184,1.466-4.05,2.399l1.05,0.2l1.1,0.05c-0.533,0.134-1.066,0.316-1.6,0.55
		l-0.7,0.301c0.533,0.267,1.333,0.5,2.4,0.699c0.933,0.167,1.699,0.25,2.3,0.25c0.467,0,1.533-0.066,3.2-0.199
		C106.283,29.517,107.15,29.434,107.25,29.4z M87.7,25.25c0.733,0.267,1.566,0.4,2.5,0.4l3.7-0.25v-1
		c-3.367,0.166-5.6,0.333-6.7,0.5L87.7,25.25z M119.25,27.3c0.434,0.134,0.967,0.15,1.6,0.05c0.634-0.066,1.15-0.216,1.551-0.449
		c-1.534,0-2.7,0.033-3.5,0.1L119.25,27.3z M106.6,26.45c0.134,0.2,0.034,0.35-0.3,0.45c-0.5,0.1-0.916,0.183-1.25,0.25L106.6,26.45
		z M101.95,28.15l1.7-0.301l-0.5,0.351L101.95,28.15z M56.55,15.9l-1.15-1L55.35,15l0.05-2.1H44.15
		c-1.167,0.067-1.95,0.467-2.35,1.2c-0.167,0.3-0.25,0.683-0.25,1.15c0,0.6,0.817,1.167,2.45,1.7c1.833,0.6,3.983,0.9,6.45,0.9
		l1.55-0.1c-0.367,1.167-1.383,1.933-3.05,2.3l1,0.35c1.433,0.3,3.083,0.45,4.95,0.45c1.567,0,2.733-0.1,3.5-0.3
		c2.033-0.566,3.05-1.75,3.05-3.55l-0.05-2.1L56.55,15.9z M67.1,15.8c-0.367,0.467-0.6,0.8-0.7,1c0,0.167,0.55,0.317,1.65,0.45
		c1,0.133,1.784,0.183,2.35,0.15l-2.5-2.5C67.7,15.1,67.433,15.4,67.1,15.8z M65.15,22.65c-0.533-0.101-1.417-0.067-2.65,0.1
		l-1.7,0.3c0.2,0.2,0.417,0.334,0.65,0.4l0.9,0.2c3.267-0.067,5.45-0.15,6.55-0.25l-1.85-0.351C68.217,22.917,69,22.7,69.4,22.4
		c-1.533-1-2.633-1.5-3.3-1.5c-0.367,0-0.767,0.383-1.2,1.15L65.15,22.65z M72.4,18.4c0.667,1.133,2.45,1.7,5.35,1.7
		c0.667,0,2.217-0.067,4.65-0.2L72.4,18.4z M43.9,19.9c0.2,0.233,0.417,0.4,0.65,0.5l0.55,0.15l2.8-0.15L43.9,19.9z M56.4,30.45
		l2-0.05c-1.367-1.134-2.65-1.684-3.85-1.65c-0.9,0.033-1.95,0.417-3.15,1.15C53.133,30.267,54.8,30.45,56.4,30.45z M30.3,17.15
		c-0.233,0.033-0.483,0.083-0.75,0.15c-3.133,0.767-4.966,1.184-5.5,1.25l1.4,0.65L30,19.45c0.633,0,1.267-0.167,1.9-0.5
		c0.967-0.567,1.067-1.284,0.3-2.15L32,16.9v-0.05c0.7-0.233,0.733-0.283,0.1-0.15c0.133-0.167,0.4-0.434,0.8-0.8
		c-2-0.667-3.333-1-4-1c-1.566,0.5-2.75,1.15-3.55,1.95C26.883,17.05,28.533,17.15,30.3,17.15z M77.25,28
		c0.667,0,1.55-0.533,2.65-1.6c-2.967,0.066-4.967,0.233-6,0.5l0.85,0.6C75.917,27.833,76.75,28,77.25,28z M22.65,23.8
		c-1.967,0.5-3.133,0.851-3.5,1.05c-0.333,0.167-0.767,0.684-1.3,1.551l0.75,0.449c0.667,0.301,1.8,0.617,3.4,0.95
		c1.9,0.367,3.633,0.55,5.2,0.55c3.3,0,6.45-0.25,9.45-0.75c3.533-0.566,7.95-1.633,13.25-3.199L36.85,23.85L36.9,23.4
		c-1.467-0.4-2.517-0.65-3.15-0.75c-0.233,0-0.383,0-0.45,0h-0.05c-4.167-1.034-7.217-1.417-9.15-1.15
		c-1.167,0.434-1.917,0.6-2.25,0.5c0,0.366,0.033,0.7,0.1,1C22.15,23.3,22.383,23.566,22.65,23.8z M8.8,15.3
		c-0.633,0.467-1.15,0.833-1.55,1.1c1.033,1.233,2.517,1.85,4.45,1.85c1.2,0,4.1-0.283,8.7-0.85c-3.967-0.833-6.867-1.417-8.7-1.75
		L8.8,15.3z M171.9,12.9h-10H171.9z"/>
	<path style="fill-rule:evenodd;clip-rule:evenodd;fill:#C3B9AC;" d="M3.1,23.3c3-0.767,6.133,0.217,9.4,2.95
		c0.833,0.733,2,1.8,3.5,3.2c1.233,1.066,2.233,1.684,3,1.85c2.2,0.434,6.8,0.566,13.8,0.4c3.767-0.101,8.75-0.233,14.95-0.4
		c0.267,0,1.283,0.316,3.05,0.95c2.1,0.767,3.583,1.267,4.45,1.5c0.033,0,1.45,0.116,4.25,0.35c2.433,0.2,4.1,0.517,5,0.95
		c0.1,0.033,0.55,0.417,1.35,1.15c0.566,0.5,1.333,0.767,2.3,0.8l14.8,0.35c1.966,0,3.6-0.399,4.9-1.199
		c1.333-0.834,3.417-1.25,6.25-1.25c0.267,0,4.817,0.5,13.65,1.5s13.816,1.5,14.95,1.5c0.633,0,2.2-0.25,4.7-0.75
		c2.633-0.534,5.033-0.834,7.199-0.9c3.4-0.134,10.167-0.017,20.301,0.35c0.066,0,2.116-0.616,6.149-1.85
		c4.233-1.5,6.934-2.9,8.101-4.2c1.5-1.666,4.55-3.5,9.149-5.5c3.101-1.333,6.033-2.416,8.8-3.25l0.75-0.399
		c-0.566,0.5-1.267,1.017-2.1,1.55c-3.267,1.8-5.667,3.133-7.2,4c-2.767,1.533-5.133,2.983-7.1,4.35
		c-5.533,4.367-8.967,6.917-10.3,7.65c-1.334,0.767-4.233,1.149-8.7,1.149c-3.066,0-5.7-0.416-7.9-1.25
		c-2.2-0.866-4.166-1.3-5.899-1.3c-2.101,0-4.601,0.45-7.5,1.351c-2.934,0.899-5.917,1.35-8.95,1.35c-1.167,0-2.967-0.25-5.4-0.75
		c-2.467-0.533-4.95-0.8-7.45-0.8c-4.166,0-7.899-0.434-11.199-1.3L93.2,36.05c-0.967,0.667-2.034,1.316-3.2,1.95
		c-2.333,1.3-5.733,1.95-10.2,1.95c-5.833,0-10.033-0.101-12.6-0.3c-4.267-0.301-7.517-0.967-9.75-2L58,35.6l-7.15,0.15
		c-0.434,0-1.783-0.384-4.05-1.15c-2.333-0.767-3.95-1.166-4.85-1.199c-1.333-0.067-4.3-0.084-8.9-0.051
		c-5.633,0.034-9.917,0.034-12.85,0c-2.3-0.033-5.483-1.483-9.55-4.35c-3.967-3.134-6.35-4.934-7.15-5.4L3,23.3
		C3.033,23.3,3.067,23.3,3.1,23.3z M171.8,20.1c0.267-0.067,0.467-0.133,0.601-0.2H172c0.833-0.633,2.8,0.033,5.9,2v0.949
		c-1.467,0.2-2.667,0.301-3.601,0.301L171.95,23c0-0.1-0.217-0.267-0.65-0.5C171.434,22.233,171.6,21.434,171.8,20.1z M155.55,20.9
		c0.267-0.1,0.55-0.167,0.851-0.2C157.033,20.633,156.75,20.7,155.55,20.9l10.851-0.5c-0.867,0.767-1.801,1.383-2.801,1.85
		c-1.066,0.5-1.966,0.75-2.699,0.75c-1.834,0-3.784-0.1-5.851-0.3c0-0.066-0.434-0.334-1.3-0.8
		C154.316,21.434,154.917,21.1,155.55,20.9z M173.55,18.6c-0.899,0-1.6-0.217-2.1-0.65l0.8-0.5c0.866-0.534,2.217-1.217,4.05-2.05
		c0,0.533,0.066,1.517,0.2,2.95C175.2,18.517,174.217,18.6,173.55,18.6z M149.65,13.75c0.6,0,3.35,0.217,8.25,0.65
		c-0.601,0.6-2.301,1.1-5.101,1.5c-2.233,0.3-4.184,0.45-5.85,0.45c-1.033,0-1.816-0.167-2.351-0.5c-0.466-0.4-0.8-0.684-1-0.85
		c0.634-0.4,1.101-0.65,1.4-0.75C146,13.917,147.55,13.75,149.65,13.75z M130.4,21.6h5.199v2.351H130.4V21.6z M122.75,16.1
		c-1.733,0.267-2.833,0.333-3.3,0.2l-0.851-0.4c0.434-0.233,1.101-0.467,2-0.7c0.867-0.2,1.551-0.3,2.051-0.3
		c0.666,0,1.75,0.167,3.25,0.5C125.467,15.6,124.417,15.833,122.75,16.1z M123.35,34.85c-0.533,0-2.199-0.1-5-0.3l-0.699-0.6
		c0.133-1,0.983-1.9,2.55-2.7c0.434-0.233,0.85-0.6,1.25-1.1c0.2-0.233,0.7-0.384,1.5-0.45c0.967-0.066,8.116,0,21.45,0.2v2.5
		c-0.934,1.133-3.384,1.866-7.351,2.199C134.816,34.767,130.25,34.85,123.35,34.85z M157.9,30.9
		c-1.034,0.466-2.851,0.616-5.45,0.449c0.366-0.433,0.767-0.8,1.2-1.1c0.333-0.233,0.583-0.35,0.75-0.35
		C155.066,29.9,156.233,30.233,157.9,30.9z M119.4,11.4c-0.801,0.067-1.534,0.1-2.2,0.1c-0.533,0-1.184-0.05-1.95-0.15
		c-0.833-0.133-1.4-0.267-1.7-0.4l-0.1-0.35l0.45-0.7L119.4,11.4z M104.5,9.95l-0.1-0.55c2,0.333,3.05,0.6,3.149,0.8
		c-0.133,0.6-0.55,0.9-1.25,0.9c-0.434,0-0.733-0.033-0.899-0.1c-0.134-0.1-0.267-0.183-0.4-0.25
		C104.767,10.517,104.6,10.25,104.5,9.95z M105.8,19.2c0-0.5,0.533-0.917,1.601-1.25c1.033-0.367,2.3-0.55,3.8-0.55
		s2.783,0.184,3.85,0.55c1.033,0.333,1.55,0.75,1.55,1.25s-0.517,0.933-1.55,1.3c-1.066,0.333-2.35,0.5-3.85,0.5
		s-2.767-0.167-3.8-0.5C106.333,20.133,105.8,19.7,105.8,19.2z M102.9,22c0,0.333-0.317,0.616-0.95,0.85
		c-0.667,0.2-1.45,0.301-2.351,0.301c-0.899,0-1.666-0.101-2.3-0.301c-0.666-0.233-1-0.517-1-0.85s0.334-0.6,1-0.8
		c0.634-0.233,1.4-0.35,2.3-0.35c0.9,0,1.684,0.117,2.351,0.35C102.583,21.4,102.9,21.667,102.9,22z M96.55,10.95l-0.8,0.1
		c-9.467,0.1-14.533-0.05-15.2-0.45c-0.6-0.333-0.95-0.733-1.05-1.2c0.5-0.6,1.6-1.167,3.3-1.7c1.7-0.534,3.333-0.8,4.9-0.8
		l13.7,1.5C100.066,10.267,98.45,11.117,96.55,10.95z M101.95,28.15l-2.9-0.101L97.95,28l-1.05-0.2
		c0.866-0.934,2.216-1.733,4.05-2.399c2.267-0.834,4-0.75,5.2,0.25l1.75,0.75l-1.301,0.05l-1.55,0.7l-1.399,0.699L101.95,28.15z
		 M119.25,27.3L118.9,27c0.8-0.066,1.966-0.1,3.5-0.1c-0.4,0.233-0.917,0.383-1.551,0.449C120.217,27.45,119.684,27.434,119.25,27.3
		z M55.35,15c0,0.6-0.133,1.117-0.4,1.55c-0.267,0.4-0.6,0.6-1,0.6c-0.467,0.267-1.117,0.467-1.95,0.6l-1.55,0.1
		c-2.467,0-4.617-0.3-6.45-0.9c-1.633-0.534-2.45-1.1-2.45-1.7c0-0.467,0.083-0.85,0.25-1.15c0.4-0.733,1.184-1.133,2.35-1.2H55.4
		L55.35,15z M67.05,23.05c-0.8,0.066-1.433-0.066-1.9-0.399L64.9,22.05c0.434-0.767,0.833-1.15,1.2-1.15c0.667,0,1.767,0.5,3.3,1.5
		C69,22.7,68.217,22.917,67.05,23.05z M43.9,19.9l4,0.5l-2.8,0.15l-0.55-0.15C44.317,20.3,44.1,20.133,43.9,19.9z M77.25,28
		c-0.5,0-1.333-0.167-2.5-0.5l-0.85-0.6c1.033-0.267,3.033-0.434,6-0.5C78.8,27.467,77.917,28,77.25,28z M30.3,17.15
		c-1.767,0-3.417-0.1-4.95-0.3c0.8-0.8,1.983-1.45,3.55-1.95c0.667,0,2,0.333,4,1c-0.4,0.367-0.667,0.633-0.8,0.8
		c-0.067,0.066-0.1,0.117-0.1,0.15v0.05l-0.8,0.2C30.9,17.1,30.6,17.117,30.3,17.15z M22.65,23.8c-0.267-0.233-0.5-0.5-0.7-0.8
		c-0.067-0.3-0.1-0.634-0.1-1c0.333,0.1,1.083-0.066,2.25-0.5c1.933-0.267,4.983,0.116,9.15,1.15h0.05l1.1,0.25
		c-0.333,0.399-0.933,0.733-1.8,1c-0.533,0.166-1.567,0.35-3.1,0.55c-1.4,0.166-2.383,0.25-2.95,0.25c-0.5,0-1.167-0.101-2-0.3
		C23.717,24.233,23.083,24.033,22.65,23.8z M8.8,15.3l2.9,0.35c1.833,0.333,4.733,0.917,8.7,1.75c-4.6,0.567-7.5,0.85-8.7,0.85
		c-1.934,0-3.417-0.617-4.45-1.85C7.65,16.133,8.167,15.767,8.8,15.3z"/>
	<path style="fill-rule:evenodd;clip-rule:evenodd;fill:#8C847C;" d="M30.5,3.75C28,3.983,26.283,4.167,25.35,4.3
		c-1.533,0.2-3.434,1.367-5.7,3.5s-3.633,3.35-4.1,3.65c-1.7,1.1-3.9,1.65-6.6,1.65l-1.7-0.15H7.2l0.75-0.25
		c1.933-0.7,4.466-2.667,7.6-5.9C19.217,4.067,24.2,3.05,30.5,3.75z M96.35,0.3c-3.2-0.5-8.516,0.034-15.95,1.6
		c-6.533,1.333-10.783,2.5-12.75,3.5c1-2.233,3.083-3.7,6.25-4.4c1.633-0.367,3.467-0.583,5.5-0.65c0.633-0.133,3.467-0.233,8.5-0.3
		c5-0.066,7.767-0.033,8.3,0.1L96.35,0.3z M137.2,4.3c-1.233-0.066-3.351,0.017-6.351,0.25l-4.75,0.4L124.9,4.9l0.399-0.05
		c1.8,0.1,3.05-0.05,3.75-0.45c0.566-0.333,0.851-0.917,0.851-1.75c0-0.167-0.483-0.633-1.45-1.4l0.45-0.75
		c0.8,1.067,2.199,1.783,4.199,2.15C135.2,3.05,136.566,3.6,137.2,4.3z M140,6.45l0.9,0.4c1.366,0.433,2.649,0.717,3.85,0.85
		c1.267,0.167,3.05,0.25,5.35,0.25c2.267,0,3.684-0.133,4.25-0.4c0.601-0.267,2.95-0.4,7.051-0.4c2.699,0,4.866-0.433,6.5-1.3
		c0.866-0.467,1.916-1.083,3.149-1.85c0.467,0.833,1.667,1.583,3.601,2.25c1,0.333,2.133,0.667,3.399,1L179.2,9
		c-3.167-0.067-8.367,0.033-15.601,0.3c-6.733,0.3-10.267,0.45-10.6,0.45C146.3,9.75,141.967,8.65,140,6.45z M166.55,24.45
		c-0.467,0.6-2.05,0.967-4.75,1.1c-0.566-0.133-1.05-0.3-1.45-0.5c1.334-0.133,2.417-0.55,3.25-1.25c1.4-1.2,2.834-2.166,4.301-2.9
		C167.366,22.8,166.917,23.983,166.55,24.45z M141.8,22c0,0.2-0.2,0.767-0.6,1.7c-0.434,0.533-0.75,0.883-0.95,1.05
		c-0.3,0.233-0.616,0.35-0.95,0.35l-1.75-0.1l-0.7-0.15c1.134-0.933,1.733-1.416,1.801-1.449l3.25-1.5L141.8,22z M88.55,13.45
		c0.133-0.133,0.45-0.467,0.95-1c0.5-0.534,0.8-0.883,0.9-1.05l6.5,0.5c-0.7,0.467-2.117,0.867-4.25,1.2
		C90.983,13.333,89.617,13.45,88.55,13.45z M99.05,28.05l2.9,0.101l1.2,0.05c1.366,0.333,2.6,0.133,3.699-0.601
		c0.101-0.066,1.084-0.916,2.95-2.55L111.4,24.4v0.949c0,1.134-0.4,2.101-1.2,2.9c-0.834,0.767-1.816,1.15-2.95,1.15
		c-0.1,0.033-0.967,0.116-2.6,0.25c-1.667,0.133-2.733,0.199-3.2,0.199c-0.601,0-1.367-0.083-2.3-0.25
		c-1.067-0.199-1.867-0.433-2.4-0.699l0.7-0.301C97.983,28.366,98.517,28.184,99.05,28.05z M84.4,30.4
		c-0.9,1.1-1.95,1.649-3.15,1.649c-0.967,0-2.117-0.184-3.45-0.55c-1.1-0.3-1.95-0.6-2.55-0.9c-0.167-0.166-0.3-0.366-0.4-0.6
		c1.233,0.1,2.767,0.116,4.6,0.05c2.267-0.066,3.75-0.283,4.45-0.649l0.25,0.3C84.317,29.967,84.4,30.2,84.4,30.4z M53.95,17.15
		c0.4,0,0.733-0.2,1-0.6c0.267-0.433,0.4-0.95,0.4-1.55l0.05-0.1l1.15,1l2.35,2c-0.133,0.7-0.483,1.184-1.05,1.45
		c-0.567,0.233-1.55,0.35-2.95,0.35L53,19.55c0-0.167-0.3-0.367-0.9-0.6L53.95,17.15z M36.85,23.85
		c-0.467,1.4-1.333,2.417-2.6,3.051c-1.3,0.666-3.133,1-5.5,1c-2,0-3.567-0.167-4.7-0.5c-1-0.4-1.867-0.7-2.6-0.9h0.95
		c3.7-0.1,6.15-0.3,7.35-0.6c1.133-0.301,2.083-0.967,2.85-2c0.867-0.267,1.467-0.601,1.8-1l-1.1-0.25c0.067,0,0.217,0,0.45,0
		c0.633,0.1,1.683,0.35,3.15,0.75L36.85,23.85z"/>
	
		<path style="fill-rule:evenodd;clip-rule:evenodd;fill:none;stroke:#A39A90;stroke-width:0.1;stroke-linecap:round;stroke-linejoin:round;stroke-miterlimit:3;" d="
		M155.55,20.9H152.9 M171.9,12.9h-10"/>
</g>
</svg>
