<?xml version="1.0" encoding="iso-8859-1"?>
<!-- Generator: Adobe Illustrator 15.1.0, SVG Export Plug-In . SVG Version: 6.00 Build 0)  -->
<!DOCTYPE svg PUBLIC "-//W3C//DTD SVG 1.1//EN" "http://www.w3.org/Graphics/SVG/1.1/DTD/svg11.dtd">
<svg version="1.1" id="Layer_1" xmlns="http://www.w3.org/2000/svg" xmlns:xlink="http://www.w3.org/1999/xlink" x="0px" y="0px"
	 width="306.75px" height="74.6px" viewBox="0 0 306.75 74.6" style="enable-background:new 0 0 306.75 74.6;" xml:space="preserve"
	>
<g>
	<path style="fill-rule:evenodd;clip-rule:evenodd;fill:#B3AA9E;" d="M169.55,12.6c0.7-0.567,1.384-1.117,2.05-1.65
		c0.367-0.434,0.551-1.317,0.551-2.65c0-0.667-1.551-1.433-4.65-2.3c0.267,0.4,0.467,0.817,0.6,1.25
		c-0.233,0.133-1.433,0.483-3.6,1.05c-1.8,0.5-3.066,0.833-3.8,1L159.6,8.5c-0.267-0.3-1.017-0.667-2.25-1.1
		c-0.133-0.033-0.25-0.066-0.35-0.1c0.033-0.033,0.066-0.066,0.1-0.1l-1.6-0.4c-6.333-0.933-10.083-1.633-11.25-2.1l-1.75-1.1
		c7.367,0.1,12.833,0.05,16.4-0.15L158.35,3.5L167.5,6c-0.333-0.4-1.333-0.95-3-1.65c-1.4-0.567-2.417-0.934-3.05-1.1
		c1.033-0.1,5.066-0.683,12.1-1.75c7.4-1,13.167-1.5,17.3-1.5c7,0,14.717,0.85,23.15,2.55c14.733,3,26.434,5.15,35.1,6.45
		c3.134,0.467,6.617,2.017,10.45,4.65c3.867,2.633,6.684,4.1,8.45,4.4c2.733,0.467,6.316,0.934,10.75,1.4c3.434,0.6,6,1.8,7.7,3.6
		c0.566,0.6,2.85,1.45,6.85,2.55c2,0.566,4,1.1,6,1.6c0.434,0.433,1.334,0.9,2.7,1.4c0.767,0.3,2.35,0.85,4.75,1.65
		c-1.333,0.333-6.566,1.367-15.7,3.1c-4.467,0.867-6.7,1.816-6.7,2.85c0,0.066,0.551,0.75,1.65,2.05c1.066,1.366,1.6,2.233,1.6,2.6
		c0,2.967-3.116,5.284-9.35,6.95c-6.333,1.101-9.616,1.7-9.85,1.8c-1.667,0.834-3.034,1.417-4.101,1.75
		c-1.8,0.601-4.366,1.184-7.7,1.75c-5.066,0.367-10.066,0.75-15,1.15c-9.767,0.733-16.166,1.417-19.199,2.05l-5.101-0.85
		c-0.833,0.166-1.3,0.316-1.399,0.45c-0.233,0.433-0.351,1.783-0.351,4.05c0,2.399,0.134,3.783,0.4,4.149
		c0,0.034,0.483,0.134,1.45,0.301c-1,3.333-6.867,6.017-17.601,8.05c-7.767,1.434-14.467,2.149-20.1,2.149
		c-3.167,0-11.267-0.399-24.3-1.199c-13.034-0.801-27.083-1.2-42.15-1.2c-0.3,0-0.4-0.066-0.3-0.2c0.167-0.233,0.2-0.4,0.1-0.5
		c-0.333-0.5-2.75-0.866-7.25-1.1c0.2,0,1.35-0.284,3.45-0.851c2.1-0.533,3.717-0.983,4.85-1.35l-10.8,1.95
		c-13.9-0.7-21.9-1.184-24-1.45c-1.466-0.167-3.983-1.117-7.55-2.851c-1.633-0.8-4.45-3.383-8.45-7.75c-3.667-4-5.5-6.133-5.5-6.399
		c0-0.334,0.167-0.601,0.5-0.8c0.333-0.233,0.5-0.517,0.5-0.851c0-1.7-1.35-2.916-4.05-3.649c-1.8-0.467-5-0.834-9.6-1.101
		c-10.933-0.566-17.9-1.85-20.9-3.85c-5.267-3.767-8.767-6.1-10.5-7C11.783,33.417,7.2,31.833,0,29.7c0.5-1,2.283-2.067,5.35-3.2
		c2.033-0.733,6.633-2.367,13.8-4.9c7.533-2.9,23.4-6.217,47.6-9.95c-3.733,1.4-6.417,2.05-8.05,1.95l-0.1,0.85
		c-0.233,0.1-0.833,0.517-1.8,1.25c-1,0.733-1.6,1.2-1.8,1.4c0.7,0.167,1.7,0.3,3,0.4c1.2,0.1,2.233,0.133,3.1,0.1l0.15,0.1
		c1.033,0.6,2.15,1.2,3.35,1.8c0.2,0.1,0.4,0.2,0.6,0.3c0.667,0.833,3.65,2.35,8.95,4.55l-3.3-0.05c-0.467,0-0.817,0.15-1.05,0.45
		c-0.2,0.233-0.333,0.65-0.4,1.25c0.5,0.2,1.434,0.417,2.8,0.65c1.267,0.2,2.183,0.3,2.75,0.3c0.667,0,2.25-0.067,4.75-0.2
		c0.833,0.367,1.733,0.8,2.7,1.3c1.8,0.833,3.517,1.317,5.15,1.45c2.1,1.367,5.133,2.25,9.1,2.65c2,0.2,3.934,0.25,5.8,0.15
		c0.066,0,1.25,0,3.55,0c2.367,0,3.833-0.05,4.4-0.15l3.05,0.3c1.033,0.1,3,0.35,5.9,0.75c2.867,0.333,5.3,0.533,7.3,0.6
		c1.967,0,3.467-0.033,4.5-0.1l3.75-0.25c1.8,0,3.9-0.2,6.3-0.6c1.633-0.6,3.117-1.5,4.45-2.7c1-0.9,3.934-1.917,8.8-3.05l5.35-0.55
		c1.867-0.1,3.384-0.233,4.55-0.4c2.334-0.133,4.95-1.283,7.851-3.45c2.967-2.233,4.45-4.267,4.45-6.1c0-0.667-1.017-2.2-3.051-4.6
		v0.05c-0.033-0.066-0.066,0.133-0.1,0.6c-0.033,0.333-0.05,0.817-0.05,1.45l-1.75-0.85h0.1l-1-0.3L169.55,12.6z M272.05,22.05
		l-2.75,2.6c0.8,0.934,1.95,1.617,3.45,2.05c1.366,0.367,3.2,0.55,5.5,0.55c0.866,0,1.95-0.217,3.25-0.65
		c1.366-0.434,2.384-0.9,3.05-1.4L272.05,22.05z M292.35,28.3l-6.25-1.55h-0.5l-0.1,0.35c-0.1,0.333-0.15,0.7-0.15,1.1
		c0,0.667,0.084,1.017,0.25,1.05C288.4,29.15,290.65,28.833,292.35,28.3z M247.6,20.6c0.601,0.2,1.034,0.3,1.301,0.3
		c2.5,0,6.449-0.65,11.85-1.95h-1.25c-8.634,0-13.316,0.033-14.05,0.1l0.35,0.75C246.3,20.1,246.9,20.367,247.6,20.6z M243.4,15.8
		c0.866-0.466,1.3-1.017,1.3-1.65s-0.434-1.167-1.3-1.6c-0.867-0.466-1.917-0.7-3.15-0.7s-2.283,0.233-3.15,0.7
		c-0.866,0.434-1.3,0.967-1.3,1.6s0.434,1.184,1.3,1.65c0.867,0.434,1.917,0.65,3.15,0.65S242.533,16.233,243.4,15.8z M260.85,17.35
		h-5.55H260.85z M267.4,28.95c1.666,0.133,3.25,0,4.75-0.4c1.267-0.333,2-0.683,2.199-1.05l-16.399-2.3l-1.351,1.4
		c0.2,0.1,0.867,0.383,2,0.85c1.067,0.4,1.667,0.617,1.801,0.65c0.1,0.2,0.6,0.45,1.5,0.75c0.966,0.333,1.899,0.5,2.8,0.5
		C265.6,29.35,266.5,29.217,267.4,28.95z M255.9,35.8c-1.967-0.367-3.15-0.55-3.551-0.55c-0.733,0-1.533,0.317-2.399,0.95
		c-0.033,1.433,0.916,2.517,2.85,3.25c2.2,0.8,5.7,1.2,10.5,1.2c1.066,0,3.184-0.2,6.351-0.601c2.966-0.366,4.8-0.633,5.5-0.8
		C271.95,38.684,265.533,37.533,255.9,35.8z M232.55,21.6c-0.557-0.377-1.156-0.71-1.8-1c-2.167-0.833-3.833-1.4-5-1.7
		c-1.9-0.5-4.983-0.75-9.25-0.75c-7.4,0-12.316,0.567-14.75,1.7c-1.233,0.667-2.25,1.183-3.05,1.55
		c-1.434,0.633-3.3,1.15-5.601,1.55c0.101,0.3,0.667,0.933,1.7,1.9c0.9,0.867,1.384,1.683,1.45,2.45c0,1.333,0.4,2.467,1.2,3.4
		c0.8,0.933,1.767,1.4,2.899,1.4l2.801,0.15l0.1,1.4l2.5,0.35c1.033-0.167,1.816-0.483,2.35-0.95l-0.25-0.8h0.7
		c4.233,0.433,8.634,0.717,13.2,0.85l3.85,0.2c0.967-0.133,1.784-0.3,2.45-0.5c0.334-0.133,1.267-0.667,2.8-1.6
		c1.367-0.467,2.467-1.233,3.301-2.3c0.866-1.1,1.3-2.3,1.3-3.6c0-0.767-0.384-1.55-1.15-2.35c-0.233-0.2-0.467-0.4-0.7-0.6
		c-0.166-0.133-0.333-0.25-0.5-0.35c-0.066-0.067-0.133-0.117-0.199-0.15c-0.067-0.033-0.134-0.067-0.2-0.1
		c-0.033-0.033-0.066-0.067-0.101-0.1C232.58,21.636,232.563,21.62,232.55,21.6z M203,17.5c1.2-0.4,1.8-0.967,1.8-1.7
		c0-2.466-1.267-3.75-3.8-3.85c-3.6,0.4-6.5,0.683-8.7,0.85l0.25,0.9c0.467,1.1,1.367,2.033,2.7,2.8c1.566,0.967,3.4,1.45,5.5,1.45
		C201.417,17.95,202.167,17.8,203,17.5z M221.2,37.7c-0.367,0-1.851,0.467-4.45,1.399c-2.9,1.067-4.35,1.884-4.35,2.45
		c0,1.066,0.483,1.983,1.449,2.75c1.267,1.033,6.067-0.133,14.4-3.5c-2.533,3.367-2.967,4.217-1.3,2.55
		c0.866-0.866,1.366-1.699,1.5-2.5c0.7,0.101,1.316,0,1.85-0.3s0.917-0.75,1.15-1.35c-0.033-0.3-0.584-0.134-1.65,0.5l-1.3,0.95
		c0.033-0.467-0.05-0.934-0.25-1.4C224.217,38.217,221.866,37.7,221.2,37.7z M230.15,51.5c1.566,0.267,2.883-0.066,3.949-1
		c3.034-1.134,7.084-2.8,12.15-5l-9.8-1.85c-0.134-0.034-0.05-0.351,0.25-0.95l-0.5,0.899l-2.5-0.449
		c1.6,2.633,0.533,4.366-3.2,5.199c-2.767,0.601-4.283,0.95-4.55,1.051c-1.566,0.533-2.467,1.3-2.7,2.3l2.65,0.2
		C227.267,51.9,228.684,51.767,230.15,51.5z M238.4,39.1c1.566,0.134,2.633,0.051,3.199-0.25c0.367-0.166,0.867-0.55,1.5-1.149
		l-4.25,0.8C238.616,38.6,238.467,38.8,238.4,39.1z M184.9,12.2c2.3,0,3.716-0.367,4.25-1.1L179.8,9.55
		c-0.467,0.367-0.75,0.75-0.85,1.15C178.917,11.7,180.9,12.2,184.9,12.2z M184.6,7.85V7.1c-0.333-0.467-2.199-0.7-5.6-0.7
		c0.634,0.4,1.483,0.8,2.55,1.2c0.9,0.333,1.417,0.5,1.55,0.5C183.767,8.1,184.267,8.017,184.6,7.85z M155.1,46
		c-2.167-0.5-3.917-0.717-5.25-0.65c-1.8,0.101-3.417,0.667-4.85,1.7c0.333,0.733,1.183,1.283,2.55,1.65
		c1.2,0.333,2.184,0.416,2.95,0.25l1.8,2c-13.933-0.2-22,0.3-24.2,1.5l0.1,0.7c0.066,0,0.15,0,0.25,0c0.367,0.6,0.9,1.25,1.6,1.949
		c0.967,0.9,1.9,1.534,2.8,1.9l0.05,0.7c-3.566-0.267-7.05,0.116-10.45,1.149c-4.967,1.434-7.767,2.2-8.4,2.301l9.5-0.101
		c0.967,0.8,2.534,1.483,4.7,2.05c2,0.534,3.767,0.801,5.3,0.801c0.667,0,2.133-0.067,4.4-0.2c3.267,1.066,7.316,1.916,12.15,2.55
		c3.966,0.5,7.35,0.75,10.15,0.75c1.767,0,3.333-0.65,4.7-1.95L157,62.1l1.05-0.1l3.7-0.6c0.866,0.033,1.616,0.066,2.25,0.1
		c1.134,0.033,1.9,0.017,2.3-0.05c0.767-0.101,1.384-0.517,1.851-1.25c1.066-0.2,2.1-0.717,3.1-1.55c1.2-1.034,1.7-2.15,1.5-3.351
		l-2.35,0.45L170.3,55.8l0.9-1.7l-3.95-0.949L165.1,52.6c2.834-0.233,4.584-0.616,5.25-1.149c0.634-0.533,0.95-1.884,0.95-4.05
		l-0.1-3.45H166c-1.967,0.1-3.434,0.233-4.4,0.399C159.7,44.65,157.533,45.2,155.1,46z M178.6,29c-1.833,0.267-2.767,1.05-2.8,2.35
		c2.967,0.5,7.667-0.217,14.101-2.15c0.033-0.267,0.05-0.567,0.05-0.9C183.783,28.567,180,28.8,178.6,29z M192.05,33
		c-1.133-0.067-1.934,0.2-2.399,0.8l0.85,0.4c-0.4,0.267-1.434,0.667-3.1,1.2c-1.434,0.467-2.367,0.733-2.801,0.8l8.601,0.2
		c0.666,0,2.2-0.133,4.6-0.4l0.101-1.65c0.366-0.167,0.833-0.617,1.399-1.35h-2.05c-0.3-0.167-0.917-0.333-1.85-0.5
		c-0.467-0.1-1.817-0.917-4.051-2.45c0.034,0.067,0.084,0.15,0.15,0.25C191.866,31.033,192.05,31.933,192.05,33z M189.9,29.3
		c-2.267,1.867-2.884,2.583-1.851,2.15C189.05,31.05,189.667,30.333,189.9,29.3z M193.9,62.5c0.199,0.167,0.449,0.283,0.75,0.35
		c0.333,0.101,0.899,0.167,1.699,0.2c1.634,0.267,3.117,0.4,4.45,0.4c0.934,0,1.834-0.117,2.7-0.351
		c1.134-0.3,1.833-0.699,2.1-1.199L203.45,60.6c0.434-1.333,0.616-2.983,0.55-4.949l-4.3,2.6c-0.834-0.366-2.684-0.233-5.55,0.4
		c-2.9,0.633-4.75,1.333-5.551,2.1c0.867,0.5,2.483,1.05,4.851,1.65C193.616,62.434,193.767,62.467,193.9,62.5z M185.1,50.5l7.2-0.3
		c-1.6-0.533-2.733-0.8-3.399-0.8l-5.4,0.199l0.7,0.45C184.8,50.25,185.1,50.4,185.1,50.5z M187.6,59.6
		c-0.433-0.466-1.449-1.066-3.05-1.8c-0.133-0.033-1.2-0.483-3.2-1.35L187.6,59.6z M172.5,62.9c1.8-0.301,2.917-0.634,3.35-1
		l-7.8,0.8C169.017,63.2,170.5,63.267,172.5,62.9z M149.3,38.45l-0.8,0.2c0.633,0.633,1.533,0.866,2.7,0.699
		c1.066-0.166,1.733-0.466,2-0.899H149.3z M123.15,41.45c1.434-0.2,2.583-0.417,3.45-0.65l-6.2-0.85c-0.733,0.1-1.4,0.399-2,0.899
		c0.434,0.601,1.05,0.9,1.85,0.9C120.783,41.75,121.75,41.65,123.15,41.45z M84.4,29.85c-0.867,0.767-1.367,1.35-1.5,1.75
		c0.733,0.566,2.567,1.017,5.5,1.35c2.967,0.367,5.283,0.383,6.95,0.05L84.4,29.85z M118,45.5c0.7,0.9,1.717,1.15,3.05,0.75
		c1.067-0.333,1.883-0.85,2.45-1.55L118,45.5z M109.4,45.65c0.267,0.1,0.6,0.149,1,0.149c1.9,0,3.083-0.25,3.55-0.75
		c0.367-0.399,0.95-1.55,1.75-3.45c-1.9,0.301-3.667,0.767-5.3,1.4c-1.7,0.634-2.667,1.233-2.9,1.8l0.9,0.5
		C108.733,45.4,109.067,45.517,109.4,45.65z M102.3,68.3c1.534,0.5,3.65,0.717,6.35,0.65l-3.15-3.9
		c-0.167,0.066-0.817,0.517-1.95,1.351c-1.133,0.8-1.783,1.283-1.95,1.449L102.3,68.3z M96.15,52.75v-1c-0.3,0.5-0.7,1.033-1.2,1.6
		l-0.65,0.7c-2.667,0.5-5.2,0.983-7.6,1.45c-4.667,0.9-7.45,1.717-8.35,2.45L71.1,58.2h1.4v1.05c2.4,0.134,4.317,0.2,5.75,0.2
		c1.933,1,5.267,1.55,10,1.649c3.2,0,6.283-0.3,9.25-0.899c2.367-0.5,7.117-1.75,14.25-3.75L96.9,47.85
		c0.434,1.034,0.5,2.101,0.2,3.2C96.867,51.884,96.55,52.45,96.15,52.75z M155.55,68.95c0.167,1.434,1.084,2.434,2.75,3
		c1.566,0.566,3.517,0.616,5.851,0.149L155.55,68.95z M133.65,71.3l0.8-1.55l-0.35,0.3c-0.467,0.334-0.733,0.617-0.8,0.851
		C133.333,71.033,133.45,71.167,133.65,71.3z M69.55,23.6h-7.8H69.55z M48.45,22.85c-0.3,0.066-1.233,0.55-2.8,1.45
		c-1.566,0.9-2.467,1.45-2.7,1.65L48.45,22.85z M73,37.85c0.8-0.133,1.55-0.35,2.25-0.65l5.45-0.4c0.1-0.566,0.15-1.183,0.15-1.85
		c0-1.5-1.233-2.633-3.7-3.4c-2.6-0.8-6.35-1.133-11.25-1c-10.667-3.267-17.167-4.4-19.5-3.4c-0.566,0.267-1.133,0.883-1.7,1.85
		c-0.534,0.867-1.25,1.417-2.15,1.65c1.667,1.5,3.067,2.35,4.2,2.55c1,0.167,3.917,0.45,8.75,0.85c-0.3,0.067-1.05,0.333-2.25,0.8
		c-1.333,0.5-2.167,0.867-2.5,1.1c0.7,0.1,2.933,0.7,6.7,1.8c3.966,1.066,7.033,1.6,9.2,1.6c2,0,3.333-0.116,4-0.35
		C71.117,38.866,71.9,38.483,73,37.85z M48.2,41.7c0.433,0.666,1.2,1.149,2.3,1.45c2.067,0.6,5.55,0.899,10.45,0.899l4.7-0.1
		c-8-1.601-12.867-2.4-14.6-2.4L48.2,41.7z M65.65,33.35l0.3,0.15L62.6,34L65.65,33.35z M74.25,40.8
		c-0.433,0.267-0.833,0.65-1.2,1.15c-0.433,0.566-0.65,1.083-0.65,1.55c0,1.467,0.917,2.434,2.75,2.9
		c2.2,0.533,6.067,0.5,11.6-0.101L74.25,40.8z M15.4,28.35c0.367,0.5,0.767,0.8,1.2,0.9l13.1-5.65c-4.8,0.667-8.333,1.4-10.6,2.2
		C17.1,26.5,15.867,27.35,15.4,28.35z M34.35,29.85c-2.733,0.367-4.75,1.183-6.05,2.45c-0.767,0.733-1.15,1.383-1.15,1.95
		s0.283,1.033,0.85,1.4c0.433,0.3,0.95,0.5,1.55,0.6l0.9-0.15L34.35,29.85z"/>
	<path style="fill-rule:evenodd;clip-rule:evenodd;fill:#C3B9AC;" d="M103.3,70.15l10.8-1.95c-1.133,0.366-2.75,0.816-4.85,1.35
		c-2.1,0.566-3.25,0.851-3.45,0.851L103.3,70.15z M91.55,18l-0.25,1.25c-2.566,1.467-4.183,2.2-4.85,2.2
		c-0.4,0-0.883-0.233-1.45-0.7c-0.733-0.667-1.383-1.233-1.95-1.7l4.2-0.7C90.117,18.217,91.55,18.1,91.55,18z M140.45,2.25
		c-5.833-0.033-14.15,0.833-24.95,2.6C105.267,6.583,96.2,7.3,88.3,7c-0.9,0.6-1.35,1.5-1.35,2.7c-11.7,0.433-20.267,3.1-25.7,8
		l-0.15-0.1c-0.233-0.2-0.684-0.717-1.35-1.55c-0.633-0.8-1.017-1.333-1.15-1.6l0.1-0.85c1.633,0.1,4.316-0.55,8.05-1.95
		c4.333-2,7.967-3.433,10.9-4.3C82.917,5.817,88.767,4.967,95.2,4.8c8.333-0.2,13.533-0.867,15.6-2c1.9-1.033,5.067-1.55,9.5-1.55
		C132.2,1.25,138.917,1.583,140.45,2.25z M292.35,28.3c-1.699,0.534-3.949,0.85-6.75,0.95c-0.166-0.033-0.25-0.383-0.25-1.05
		c0-0.4,0.051-0.767,0.15-1.1l0.1-0.35h0.5L292.35,28.3z M272.05,22.05l12.5,3.15c-0.666,0.5-1.684,0.966-3.05,1.4
		c-1.3,0.433-2.384,0.65-3.25,0.65c-2.3,0-4.134-0.183-5.5-0.55c-1.5-0.434-2.65-1.117-3.45-2.05L272.05,22.05z M243.4,15.8
		c-0.867,0.434-1.917,0.65-3.15,0.65s-2.283-0.217-3.15-0.65c-0.866-0.466-1.3-1.017-1.3-1.65s0.434-1.167,1.3-1.6
		c0.867-0.466,1.917-0.7,3.15-0.7s2.283,0.233,3.15,0.7c0.866,0.434,1.3,0.967,1.3,1.6S244.267,15.333,243.4,15.8z M255.9,35.8
		c9.633,1.733,16.05,2.884,19.25,3.45c-0.7,0.167-2.534,0.434-5.5,0.8c-3.167,0.4-5.284,0.601-6.351,0.601c-4.8,0-8.3-0.4-10.5-1.2
		c-1.934-0.733-2.883-1.817-2.85-3.25c0.866-0.633,1.666-0.95,2.399-0.95C252.75,35.25,253.934,35.433,255.9,35.8z M230.75,20.6
		c0.134,0.066,0.717,0.4,1.75,1h0.05c0.014,0.02,0.03,0.036,0.05,0.05c0.034,0.033,0.067,0.067,0.101,0.1
		c0.066,0.033,0.133,0.067,0.2,0.1c0.066,0.033,0.133,0.083,0.199,0.15c0.167,0.1,0.334,0.217,0.5,0.35c0.233,0.2,0.467,0.4,0.7,0.6
		c-0.434,0.8-0.833,1.833-1.2,3.1l-1.449,0.8c-0.301-0.033-1.567-0.533-3.801-1.5c-2.033-0.867-3.5-1.3-4.399-1.3
		c-0.334,0-1.816,0.167-4.45,0.5c-2.667,0.333-4.167,0.5-4.5,0.5c-1.134,0-1.816-0.117-2.05-0.35c0.233-0.133,0.916-0.333,2.05-0.6
		c1.134-0.367,1.866-0.95,2.2-1.75l-0.351-1.95c-0.033-0.1-0.383-0.15-1.05-0.15c-1.434,0-3.116,0.267-5.05,0.8
		c-1.934,0.534-3.134,0.8-3.6,0.8c-2.733,0-4.551,0.417-5.45,1.25c-0.334,0.867-0.5,1.316-0.5,1.35c0,0.633,0.333,1.133,1,1.5
		c-0.566,0.433-1.617,0.783-3.15,1.05c-1.066,0.2-1.833,0.3-2.3,0.3c-0.066-0.767-0.55-1.583-1.45-2.45
		c-1.033-0.967-1.6-1.6-1.7-1.9c2.301-0.4,4.167-0.917,5.601-1.55c0.8-0.367,1.816-0.883,3.05-1.55c2.434-1.133,7.35-1.7,14.75-1.7
		c4.267,0,7.35,0.25,9.25,0.75C226.917,19.2,228.583,19.767,230.75,20.6z M216.35,28.65l6.101-1.2c1.033,0,2.184,0.183,3.45,0.55
		l0.899,0.4c-3.366,0.434-6.899,0.583-10.6,0.45L216.35,28.65z M203.15,32.25l-2.801-0.15l0.551-0.5l0.149-0.15
		c0.233-0.233,0.934-0.317,2.101-0.25c1.1,0.066,1.633,0.15,1.6,0.25l-0.1,0.4l-0.051,0.4H203.15z M221.2,37.7
		c0.666,0,3.017,0.517,7.05,1.55c0.2,0.467,0.283,0.934,0.25,1.4l1.3-0.95c1.066-0.634,1.617-0.8,1.65-0.5
		c-0.233,0.6-0.617,1.05-1.15,1.35s-1.149,0.4-1.85,0.3c-0.134,0.801-0.634,1.634-1.5,2.5c-1.667,1.667-1.233,0.817,1.3-2.55
		c-8.333,3.367-13.134,4.533-14.4,3.5c-0.966-0.767-1.449-1.684-1.449-2.75c0-0.566,1.449-1.383,4.35-2.45
		C219.35,38.167,220.833,37.7,221.2,37.7z M238.4,39.1c0.066-0.3,0.216-0.5,0.449-0.6l4.25-0.8c-0.633,0.6-1.133,0.983-1.5,1.149
		C241.033,39.15,239.967,39.233,238.4,39.1z M184.9,12.2c-4,0-5.983-0.5-5.95-1.5c0.1-0.4,0.383-0.784,0.85-1.15l9.351,1.55
		C188.616,11.833,187.2,12.2,184.9,12.2z M74.15,24.35c0.9,0.367,1.867,0.767,2.9,1.2c0.767,0.333,1.65,0.733,2.65,1.2
		c-2.5,0.133-4.083,0.2-4.75,0.2c-0.567,0-1.483-0.1-2.75-0.3c-1.367-0.233-2.3-0.45-2.8-0.65c0.067-0.6,0.2-1.017,0.4-1.25
		c0.233-0.3,0.583-0.45,1.05-0.45L74.15,24.35z M157,7.3c-0.2,0.167-0.434,0.483-0.7,0.95c-0.166,0.267-0.5,0.4-1,0.4
		c-4.8-0.4-7.867-0.6-9.2-0.6c-0.367,0-0.883-0.216-1.55-0.65c-1.033-0.667-1.833-1.15-2.4-1.45c0.5-0.034,0.95-0.25,1.35-0.65
		c0.367-0.4,0.617-0.6,0.75-0.6c1.167,0.466,4.917,1.167,11.25,2.1l1.6,0.4C157.066,7.233,157.033,7.267,157,7.3z M159.6,8.5
		l1.101,0.8l0.85,0.65l0.601,0.4l3.199,1.2c0.067,0,0.15,0.017,0.25,0.05c0.5,0.167,1.051,0.316,1.65,0.45l1.1,0.3
		c0.801,0.2,1.617,0.4,2.45,0.6l1,0.3h-0.1c-3.733-0.433-6.134-0.85-7.2-1.25c-1.267-0.633-3.05-1.3-5.35-2
		C159.45,9.533,159.6,9.033,159.6,8.5z M167.8,18.65l0.2,0.1c-1.066,0.133-2.667,0.417-4.8,0.85c-1.8,0.066-3.584,0.066-5.351,0
		l-1.199-1.2l3.149-1.1l3.851,0.15C165.217,17.483,166.6,17.883,167.8,18.65z M149,21.85c-0.2,0.633-0.567,0.933-1.1,0.9
		C147.1,22.717,147.467,22.417,149,21.85z M148.85,21.85c-3.5-1.1-4.267-1.833-2.3-2.2c1.934-0.333,3.034-0.55,3.3-0.65
		c-0.467,0.467-0.7,0.983-0.7,1.55c0,0.5-0.033,0.917-0.1,1.25L148.85,21.85z M134.3,11c0,1.7,0.383,2.55,1.15,2.55
		c-0.967,0.434-3.667,0.45-8.1,0.05c-6-0.567-11-0.783-15-0.65c0.133-0.133,0.217-0.383,0.25-0.75c0.066-0.5-0.017-0.967-0.25-1.4
		c3.433-0.2,7.783-0.65,13.05-1.35c6.467-0.867,11.017-1.733,13.65-2.6c0,0.733,0.117,1.267,0.35,1.6
		c-1.933-0.2-3.35,0.117-4.25,0.95C134.583,9.9,134.3,10.433,134.3,11z M131.3,16.8c-0.033,0.067-0.333,0.717-0.9,1.95
		c-0.566,1.267-0.85,2.167-0.85,2.7c0,1,0.9,1.7,2.7,2.1c-1.233,0.5-2.017,0.917-2.35,1.25c-0.3,0.3-0.417,0.75-0.35,1.35
		c-0.233,0-0.466-0.033-0.7-0.1c-0.467-0.1-0.633-0.283-0.5-0.55c0.033-0.467,0.017-0.783-0.05-0.95c-0.066-0.3-1.017-1-2.85-2.1
		c0.7-0.133,1.367-0.483,2-1.05c0.633-0.533,0.95-0.983,0.95-1.35c0-0.667-0.15-1.117-0.45-1.35c-0.233-0.167-1.317-0.7-3.25-1.6
		c0.033-0.067,0.75-0.133,2.15-0.2C128.45,16.8,129.933,16.767,131.3,16.8z M139.3,26.45l-1.4-0.05c0.3-0.233,0.783-0.717,1.45-1.45
		c0.733-0.833,1.217-1.45,1.45-1.85l2.65,1.15l1.9,0.6l1.9,0.3L139.3,26.45z M139.65,30.6c-0.3,0.1-1.25,0.3-2.85,0.6
		c-1.6,0.3-2.5,0.45-2.7,0.45v-0.1l5.3-1.4l1.4-0.15C140.7,30.067,140.317,30.267,139.65,30.6z M169,22.65l-1.15,0.3
		c1.067-0.534,2.317-0.967,3.75-1.3C171.066,21.95,170.2,22.283,169,22.65z M167.25,53.15c-3.866,0-5.9-0.134-6.1-0.4
		c0.033-0.134,0.033-0.217,0-0.25c0-0.1-0.301-0.15-0.9-0.15c-9.6,0.434-20.2,0.7-31.8,0.801c-0.1,0-0.184,0-0.25,0l-0.1-0.7
		c2.2-1.2,10.267-1.7,24.2-1.5l-1.8-2c-0.333-0.066,0.317-0.584,1.95-1.55c1.467-0.834,2.35-1.301,2.649-1.4
		c2.434-0.8,4.601-1.35,6.5-1.65c0.967-0.166,2.434-0.3,4.4-0.399h5.2l0.1,3.45c0,2.166-0.316,3.517-0.95,4.05
		c-0.666,0.533-2.416,0.916-5.25,1.149L167.25,53.15z M178.6,29c1.4-0.2,5.184-0.433,11.351-0.7c0,0.333-0.017,0.633-0.05,0.9
		c-6.434,1.933-11.134,2.65-14.101,2.15C175.833,30.05,176.767,29.267,178.6,29z M189.9,29.3c-0.233,1.034-0.851,1.75-1.851,2.15
		C187.017,31.883,187.634,31.167,189.9,29.3z M187.6,59.6l-6.25-3.149c2,0.866,3.067,1.316,3.2,1.35
		C186.15,58.533,187.167,59.134,187.6,59.6z M185.1,50.5c0-0.1-0.3-0.25-0.899-0.45l-0.7-0.45l5.4-0.199
		c0.666,0,1.8,0.267,3.399,0.8L185.1,50.5z M162,61.35c-2.134-0.133-4.316-0.166-6.55-0.1l-4,0.05c-3.2-0.133-5.9-0.45-8.1-0.95
		l1.35-0.1c3.867-0.267,8.517-0.434,13.95-0.5c0.133,0,0.333-0.15,0.6-0.45c0.267-0.333,0.583-0.5,0.95-0.5
		c3.566,0,5.55,0.084,5.95,0.25c-1.134,0.467-1.867,0.967-2.2,1.5L163.9,61l0.1,0.5L162,61.35z M158.45,24.35l-3.851,0.3L153.9,24.7
		l-1.5,0.15h-0.2l1.8-0.6l0.35-0.2l0.5-0.5c0.4-0.367,0.801-0.55,1.2-0.55c2.066,0,3.983,0.183,5.75,0.55l0.3,0.4l-2.75,0.3
		L158.45,24.35z M130.1,31.55c-2.1-0.066-3.617-0.083-4.55-0.05l-7.9,0.25c0.2-0.033,1.184-0.317,2.95-0.85
		c1.767-0.566,2.783-0.9,3.05-1l0.95-0.15c1.066-0.1,2.65-0.117,4.75-0.05l2.7,0.05c0.233,0.667,0.65,1.3,1.25,1.9L130.1,31.55z
		 M123.15,41.45c-1.4,0.2-2.367,0.3-2.9,0.3c-0.8,0-1.417-0.3-1.85-0.9c0.6-0.5,1.267-0.8,2-0.899l6.2,0.85
		C125.733,41.033,124.583,41.25,123.15,41.45z M149.3,38.45h3.9c-0.267,0.434-0.934,0.733-2,0.899
		c-1.167,0.167-2.067-0.066-2.7-0.699L149.3,38.45z M86.85,27.5l-2.7-0.45l-2.6-0.5l-1.35-0.7l2.9,0.45l3.35,0.5l5.35,0.6
		c0.333,0.1,0.7,0.217,1.1,0.35c0.7,0.267,0.967,0.533,0.8,0.8L86.85,27.5z M118.55,24.8l2.55-0.6l2.65,1.35
		c-2.033,1.367-3.1,2.05-3.2,2.05C120.05,27.633,119.383,26.7,118.55,24.8z M109.4,45.65c-0.333-0.134-0.667-0.25-1-0.351l-0.9-0.5
		c0.233-0.566,1.2-1.166,2.9-1.8c1.633-0.634,3.4-1.1,5.3-1.4c-0.8,1.9-1.383,3.051-1.75,3.45c-0.467,0.5-1.65,0.75-3.55,0.75
		C110,45.8,109.667,45.75,109.4,45.65z M118,45.5l5.5-0.8c-0.567,0.7-1.383,1.217-2.45,1.55C119.717,46.65,118.7,46.4,118,45.5z
		 M155.55,68.95l8.601,3.149c-2.334,0.467-4.284,0.417-5.851-0.149C156.634,71.384,155.717,70.384,155.55,68.95z M134.65,57.3
		l10.8-0.649c-0.067,0-3.2,0.449-9.4,1.35c-0.233,0.1-0.816-0.033-1.75-0.4l-0.05-0.25L134.65,57.3z M133.65,71.3
		c-0.2-0.133-0.316-0.267-0.35-0.399c0.067-0.233,0.333-0.517,0.8-0.851l0.35-0.3L133.65,71.3z M77.15,21.9
		c-0.767,0.4-1.267,1-1.5,1.8c-6.6-2.467-10.066-3.767-10.4-3.9l-0.65-0.3c1.066-0.7,4.633-2.35,10.7-4.95
		c0.367,0,0.633,0.083,0.8,0.25c0.167,0.233,0.333,0.367,0.5,0.4l2.2,0.05c1.8,0.033,3.467,0.033,5,0
		c-2.867,0.767-4.433,1.2-4.7,1.3c-0.7,0.3-1.05,0.833-1.05,1.6s1.233,2.25,3.7,4.45C79.15,22.133,77.617,21.9,77.15,21.9z
		 M48.45,22.85l-5.5,3.1c0.233-0.2,1.133-0.75,2.7-1.65C47.217,23.4,48.15,22.917,48.45,22.85z M62.6,34
		c-2.067,0.233-4.434,0.25-7.1,0.05c-4.833-0.4-7.75-0.683-8.75-0.85c-1.133-0.2-2.533-1.05-4.2-2.55
		c0.9-0.233,1.617-0.783,2.15-1.65c0.566-0.967,1.133-1.583,1.7-1.85c2.333-1,8.833,0.133,19.5,3.4l2.85,0.9l-0.55,0.6
		c-0.8,0.534-1.65,0.967-2.55,1.3L62.6,34z M48.2,41.7l2.85-0.15c1.733,0,6.6,0.8,14.6,2.4l-4.7,0.1c-4.9,0-8.383-0.3-10.45-0.899
		C49.4,42.85,48.633,42.366,48.2,41.7z M74.25,40.8l12.5,5.5c-5.533,0.601-9.4,0.634-11.6,0.101c-1.833-0.467-2.75-1.434-2.75-2.9
		c0-0.467,0.217-0.983,0.65-1.55C73.417,41.45,73.817,41.066,74.25,40.8z M34.35,29.85l-3.9,6.25l-0.9,0.15
		c-0.6-0.1-1.117-0.3-1.55-0.6c-0.567-0.367-0.85-0.833-0.85-1.4s0.383-1.217,1.15-1.95C29.6,31.033,31.617,30.217,34.35,29.85z"/>
	<path style="fill-rule:evenodd;clip-rule:evenodd;fill:#8C847C;" d="M247.6,20.6c-0.699-0.233-1.3-0.5-1.8-0.8l-0.35-0.75
		c0.733-0.066,5.416-0.1,14.05-0.1h1.25c-5.4,1.3-9.35,1.95-11.85,1.95C248.634,20.9,248.2,20.8,247.6,20.6z M267.4,28.95
		c-0.9,0.267-1.801,0.4-2.7,0.4c-0.9,0-1.834-0.167-2.8-0.5c-0.9-0.3-1.4-0.55-1.5-0.75c0.899-0.9,1.767-1.35,2.6-1.35
		c0.667,0,2.634,0.517,5.9,1.55L267.4,28.95z M233.1,26.05l0.601,3.05v0.05l-2.3,1.6c-0.167-1-0.4-1.95-0.7-2.85l0.95-1.05
		L233.1,26.05z M204.75,31.45h4.95l0.1,0.9l-1.25-0.1l-3.899-0.4L204.75,31.45z M228.05,32.8c-0.666,0.2-1.483,0.367-2.45,0.5
		l-3.85-0.2c0.1-0.033,0.733-0.434,1.9-1.2c1.399-0.867,2.733-1.5,4-1.9L228.05,32.8z M230.15,51.5c1.133-1.1,2.3-2.366,3.5-3.8
		c1.533-1.9,2.383-3.267,2.55-4.101l0.5-0.899c-0.3,0.6-0.384,0.916-0.25,0.95c-0.066,0.633-0.434,1.883-1.101,3.75
		c-0.633,1.8-1.05,2.833-1.25,3.1C233.033,51.434,231.717,51.767,230.15,51.5z M197.9,14.45c0.333-0.167,0.75-0.25,1.25-0.25
		s0.933,0.083,1.3,0.25c0.333,0.133,0.5,0.316,0.5,0.55s-0.167,0.433-0.5,0.6c-0.367,0.133-0.8,0.2-1.3,0.2s-0.917-0.066-1.25-0.2
		c-0.367-0.167-0.551-0.367-0.551-0.6S197.533,14.583,197.9,14.45z M164.35,26.15l1.351-5.8c0.2,0.2,0.467,0.467,0.8,0.8
		c0.3,0.233,0.7,0.35,1.2,0.35c0.267,0,0.517-0.15,0.75-0.45c0.2-0.3,0.833-1.35,1.899-3.15l0.5-0.3c0.034,0,0.067-0.017,0.101-0.05
		c0.934-0.633,1.517-1.117,1.75-1.45c0.166-0.233,0.416-0.9,0.75-2c0-0.633,0.017-1.117,0.05-1.45c0.033-0.467,0.066-0.667,0.1-0.6
		V12c2.034,2.4,3.051,3.933,3.051,4.6c0,1.833-1.483,3.867-4.45,6.1C169.3,24.867,166.684,26.017,164.35,26.15z M154.6,24.65
		c0.2,0.233,0.483,0.583,0.851,1.05c0.333,0.333,0.75,0.5,1.25,0.5c0.233,0,0.816-0.617,1.75-1.85l0.899-0.1l0.45,2.3l-5.35,0.55
		l-0.95,0.1l0.4-2.5L154.6,24.65z M136.95,27.5c0.667,0,1.25,0.267,1.75,0.8c0.466,0.5,0.7,1.117,0.7,1.85l-5.3,1.4l0.6-1.2
		c0.5-0.967,1.017-1.833,1.55-2.6L136.95,27.5z M134.1,31.65c0.2,0,1.1-0.15,2.7-0.45c1.6-0.3,2.55-0.5,2.85-0.6
		c0.867,1.333,1.383,2.083,1.55,2.25c-2.4,0.4-4.5,0.6-6.3,0.6l-1.6,0.05C133.567,33.233,133.833,32.617,134.1,31.65z M113.45,32.45
		l-3.05-0.3L110,32.1c-0.4-0.133-1.167-0.5-2.3-1.1c-1.333-0.733-2.267-1.217-2.8-1.45c0.133-0.1,0.517-0.2,1.15-0.3
		c0.633-0.067,1-0.133,1.1-0.2l10.7,0.05c-0.033,0.033-0.733,0.517-2.1,1.45C114.483,31.35,113.717,31.983,113.45,32.45z
		 M126.65,33.8c-0.3-0.8-0.667-1.566-1.1-2.3c0.934-0.033,2.45-0.017,4.55,0.05c0.267,1.067,0.617,1.784,1.05,2.15
		C130.117,33.767,128.617,33.8,126.65,33.8z M77.05,25.55c-1.033-0.433-2-0.833-2.9-1.2c-5.3-2.2-8.283-3.717-8.95-4.55h0.05
		c0.333,0.133,3.8,1.434,10.4,3.9c0.233-0.8,0.733-1.4,1.5-1.8l0.5,0.25c0.067,0.767,0.184,1.517,0.35,2.25
		c0.167,0.6,0.367,1.184,0.6,1.75L77.05,25.55z M162.15,10.35l-0.601-0.4c0.467,0.066,0.867,0.017,1.2-0.15
		c0.167-0.066,0.366-0.15,0.6-0.25L162.15,10.35z M169,22.65c1.2-0.367,2.066-0.7,2.6-1c-1.433,0.333-2.683,0.767-3.75,1.3
		L169,22.65z M168.95,56.5l1.35-0.7l0.101-0.05l2.35-0.45c0.2,1.2-0.3,2.316-1.5,3.351c-1,0.833-2.033,1.35-3.1,1.55L163.9,61
		l0.05-0.45c1.366,0,2.55-0.383,3.55-1.149C168.467,58.6,168.95,57.634,168.95,56.5z M155.45,61.25
		c2.233-0.066,4.416-0.033,6.55,0.1l-0.25,0.051l-3.7,0.6c-0.833,0.033-1.467-0.033-1.899-0.2
		C155.917,61.7,155.684,61.517,155.45,61.25z M137.25,58.45l2.95,0.95c-0.434,0.5-0.817,1.149-1.15,1.949L136.8,60.7l1.05,0.35
		c1.867,0.634,3.967,1.017,6.3,1.15c1.3,0.1,3.033,0.133,5.2,0.1l-0.2,1.05c-0.833,0.067-2.45,0.134-4.85,0.2
		c-3.4,0.066-5.517,0.117-6.35,0.15c-2.267,0.133-3.733,0.2-4.4,0.2c-1.533,0-3.3-0.267-5.3-0.801c-2.167-0.566-3.733-1.25-4.7-2.05
		c0.333-0.934,0.883-1.533,1.65-1.8c1.333-0.467,4.083-0.634,8.25-0.5l-0.55-1.05l-0.05-0.7l0.15-0.65l1.25,0.75v0.25l0.05,0.25
		C135.167,58.467,136.15,58.75,137.25,58.45z M192.05,33h5.2h2.05c-0.566,0.733-1.033,1.183-1.399,1.35
		c-1.067,0.367-1.917,0.566-2.551,0.6c-1.033,0.033-2.649-0.217-4.85-0.75l-0.85-0.4C190.116,33.2,190.917,32.933,192.05,33z
		 M201.05,31.45L200.9,31.6l-2.351-0.15H201.05z M203.45,60.6c-0.601,1-1.3,1.667-2.101,2c-0.699,0.301-1.816,0.45-3.35,0.45
		c-0.634,0-1.184,0-1.65,0c-0.8-0.033-1.366-0.1-1.699-0.2c-0.301-0.066-0.551-0.183-0.75-0.35c-0.4-0.3-0.601-0.733-0.601-1.3
		c0-0.4,0.066-0.733,0.2-1l0.15-0.3c0.199-0.101,0.333-0.217,0.399-0.351c0.101-0.066,0.351-0.1,0.75-0.1
		c0.334,0,0.834,0.066,1.5,0.2c0.8-0.067,1.934-0.534,3.4-1.4l4.3-2.6C204.066,57.616,203.884,59.267,203.45,60.6z M122.65,29.1
		c2.833,0.066,4.967,0.066,6.4,0v0.05l0.3,0.55c-2.1-0.067-3.684-0.05-4.75,0.05l-0.95,0.15c-0.233-0.1-0.45-0.2-0.65-0.3
		C122.633,29.367,122.517,29.2,122.65,29.1z M83.1,26.3c-0.567-0.6-1.083-1.283-1.55-2.05l0.95,0.4l2.35,0.85l1.6,1.3L83.1,26.3z
		 M84.15,27.05l2.7,0.45l0.25,0.45C86.067,27.75,85.083,27.45,84.15,27.05z M78.35,57.95c5.6-0.4,8.633-0.65,9.1-0.75
		c1.466-0.3,3.75-1.351,6.85-3.15l0.65-0.7c0.5-0.566,0.9-1.1,1.2-1.6v1c-0.3,1.6-2.566,3.134-6.8,4.6
		c-3.934,1.334-7.633,2.034-11.1,2.101c-1.433,0-3.35-0.066-5.75-0.2V58.2h-1.4L78.35,57.95z M141.85,59.8l-0.05-0.05l2.9,0.5
		l-1.35,0.1c2.2,0.5,4.9,0.817,8.1,0.95l0.2,0.7c-0.233-0.066-0.733-0.083-1.5-0.05c-1.133,0.066-1.75,0.1-1.85,0.1
		c-0.3,0-1.267-0.267-2.9-0.8C143.7,60.65,142.517,60.167,141.85,59.8z M73,37.85c-4-0.1-6.833-0.417-8.5-0.95
		c-1.333-0.467-2-1.133-2-2l0.1-0.9l3.35-0.5c1.167-0.133,3.933-0.567,8.3-1.3c0.667,0,1.967,0.783,3.9,2.35
		c-0.1,0.133-0.55,0.583-1.35,1.35c-0.833,0.767-1.35,1.2-1.55,1.3C74.55,37.5,73.8,37.717,73,37.85z"/>
	<path style="fill-rule:evenodd;clip-rule:evenodd;fill:#A39A90;" d="M167.5,6l-9.15-2.5l0.551-0.05l2.55-0.2
		c0.633,0.167,1.649,0.533,3.05,1.1C166.167,5.05,167.167,5.6,167.5,6z M260.4,28.1c-0.134-0.033-0.733-0.25-1.801-0.65
		c-1.133-0.467-1.8-0.75-2-0.85l1.351-1.4l16.399,2.3c-0.199,0.367-0.933,0.717-2.199,1.05c-1.5,0.4-3.084,0.534-4.75,0.4l1.5-0.65
		c-3.267-1.033-5.233-1.55-5.9-1.55C262.167,26.75,261.3,27.2,260.4,28.1z M203,17.5c-0.833,0.3-1.583,0.45-2.25,0.45
		c-2.1,0-3.934-0.483-5.5-1.45c-1.333-0.767-2.233-1.7-2.7-2.8l-0.25-0.9c2.2-0.167,5.101-0.45,8.7-0.85
		c2.533,0.1,3.8,1.383,3.8,3.85C204.8,16.533,204.2,17.1,203,17.5z M230.7,27.9c0.3,0.9,0.533,1.85,0.7,2.85l2.3-1.6
		c-0.173,0.237-1.123,0.921-2.851,2.05c-1.533,0.933-2.466,1.466-2.8,1.6L227.65,30c-1.267,0.4-2.601,1.033-4,1.9
		c-1.167,0.767-1.801,1.167-1.9,1.2c-4.566-0.133-8.967-0.417-13.2-0.85l1.25,0.1l-0.1-0.9c3.3,0.1,7.2-0.184,11.7-0.85
		C226.533,29.867,229.634,28.967,230.7,27.9z M207.85,32.25l0.25,0.8c-0.533,0.467-1.316,0.784-2.35,0.95l-2.5-0.35l-0.1-1.4h1.449
		H207.85z M236.2,43.6c-0.167,0.834-1.017,2.2-2.55,4.101c-1.2,1.434-2.367,2.7-3.5,3.8c-1.467,0.267-2.884,0.4-4.25,0.4l-2.65-0.2
		c0.233-1,1.134-1.767,2.7-2.3c0.267-0.101,1.783-0.45,4.55-1.051c3.733-0.833,4.8-2.566,3.2-5.199L236.2,43.6z M234.1,50.5
		c0.2-0.267,0.617-1.3,1.25-3.1c0.667-1.867,1.034-3.117,1.101-3.75l9.8,1.85C241.184,47.7,237.134,49.366,234.1,50.5z M184.6,7.85
		c-0.333,0.167-0.833,0.25-1.5,0.25c-0.133,0-0.649-0.167-1.55-0.5c-1.066-0.4-1.916-0.8-2.55-1.2c3.4,0,5.267,0.233,5.6,0.7V7.85z
		 M197.9,14.45c-0.367,0.133-0.551,0.316-0.551,0.55s0.184,0.433,0.551,0.6c0.333,0.133,0.75,0.2,1.25,0.2s0.933-0.066,1.3-0.2
		c0.333-0.167,0.5-0.367,0.5-0.6s-0.167-0.417-0.5-0.55c-0.367-0.167-0.8-0.25-1.3-0.25S198.233,14.283,197.9,14.45z M153.9,24.7
		l-0.4,2.5l0.95-0.1c-4.867,1.133-7.8,2.15-8.8,3.05c-1.333,1.2-2.816,2.1-4.45,2.7c-0.167-0.167-0.684-0.917-1.55-2.25
		c0.667-0.333,1.05-0.533,1.15-0.6l-1.4,0.15c0-0.733-0.233-1.35-0.7-1.85c-0.5-0.533-1.083-0.8-1.75-0.8l2.35-1.05l7.95-1.3
		l-1.9-0.3l-1.9-0.6c0.033,0,0.833-0.383,2.4-1.15c1.633-0.733,2.633-1.15,3-1.25l0.2-0.05L149,21.85
		c-1.533,0.566-1.9,0.867-1.1,0.9c0.533,0.033,0.9-0.267,1.1-0.9c0.167-0.067,0.35-0.117,0.55-0.15c0.2-0.034,2.7-0.3,7.5-0.8
		c2.533-0.3,4.584-0.733,6.15-1.3c2.133-0.434,3.733-0.717,4.8-0.85l-0.2-0.1l2.55-0.75c-1.066,1.8-1.699,2.85-1.899,3.15
		c-0.233,0.3-0.483,0.45-0.75,0.45c-0.5,0-0.9-0.117-1.2-0.35c-0.333-0.333-0.6-0.6-0.8-0.8l-1.351,5.8
		c-1.166,0.167-2.683,0.3-4.55,0.4l-0.45-2.3l2.75-0.3l-0.3-0.4c-1.767-0.367-3.684-0.55-5.75-0.55c-0.399,0-0.8,0.183-1.2,0.55
		l-0.5,0.5l-0.35,0.2l-1.8,0.6h0.2L153.9,24.7z M134.1,31.55v0.1c-0.267,0.967-0.533,1.583-0.8,1.85l1.6-0.05l-3.75,0.25
		c-0.433-0.367-0.783-1.083-1.05-2.15l3.2,0.1c-0.6-0.6-1.017-1.233-1.25-1.9l-2.7-0.05l-0.3-0.55
		c0.233,0.067,1.284-0.083,3.15-0.45c1.9-0.367,3.25-0.684,4.05-0.95c-0.533,0.767-1.05,1.633-1.55,2.6L134.1,31.55z M126.65,33.8
		c-2-0.066-4.433-0.267-7.3-0.6c-2.9-0.4-4.867-0.65-5.9-0.75c0.267-0.467,1.033-1.1,2.3-1.9c1.367-0.933,2.067-1.417,2.1-1.45h4.8
		c-0.133,0.1-0.017,0.267,0.35,0.5c0.2,0.1,0.417,0.2,0.65,0.3c-0.267,0.1-1.283,0.434-3.05,1c-1.767,0.533-2.75,0.817-2.95,0.85
		l7.9-0.25C125.983,32.233,126.35,33,126.65,33.8z M107.15,29.05c-0.1,0.067-0.467,0.133-1.1,0.2c-0.633,0.1-1.017,0.2-1.15,0.3
		c0.533,0.233,1.467,0.717,2.8,1.45c1.133,0.6,1.9,0.967,2.3,1.1c-0.5,0-3.783-0.367-9.85-1.1c-6.833-0.833-11.033-1.333-12.6-1.5
		c-1.633-0.133-3.35-0.617-5.15-1.45c-0.967-0.5-1.867-0.933-2.7-1.3c-1-0.467-1.883-0.867-2.65-1.2l1.55,0.6
		C78.367,25.583,78.167,25,78,24.4c-0.167-0.733-0.283-1.483-0.35-2.25c1.9,1.067,3.517,1.9,4.85,2.5l-0.95-0.4
		c0.467,0.767,0.983,1.45,1.55,2.05l-2.9-0.45l1.35,0.7l2.6,0.5c0.934,0.4,1.917,0.7,2.95,0.9l-0.25-0.45l6.85,1.05
		c0.167-0.267-0.1-0.533-0.8-0.8c1.533,0.367,3.684,0.683,6.45,0.95C102.183,28.933,104.783,29.05,107.15,29.05z M58.6,14.45
		c0.133,0.267,0.517,0.8,1.15,1.6c0.667,0.833,1.117,1.35,1.35,1.55c-0.867,0.033-1.9,0-3.1-0.1c-1.3-0.1-2.3-0.233-3-0.4
		c0.2-0.2,0.8-0.667,1.8-1.4C57.767,14.967,58.367,14.55,58.6,14.45z M161.55,9.95L160.7,9.3c0.733-0.167,2-0.5,3.8-1
		c2.167-0.566,3.366-0.917,3.6-1.05c-0.133-0.433-0.333-0.85-0.6-1.25c3.1,0.867,4.65,1.633,4.65,2.3
		c0,1.333-0.184,2.217-0.551,2.65c-0.666,0.533-1.35,1.083-2.05,1.65c-0.434-0.1-0.833-0.184-1.2-0.25l-1.1-0.3
		c-0.6-0.133-1.15-0.283-1.65-0.45c-0.1-0.033-0.183-0.05-0.25-0.05l-3.199-1.2l1.199-0.8c-0.233,0.1-0.433,0.184-0.6,0.25
		C162.417,9.967,162.017,10.017,161.55,9.95z M137.95,63.7c0.833-0.033,2.95-0.084,6.35-0.15c2.4-0.066,4.017-0.133,4.85-0.2
		l0.2-1.05c-2.167,0.033-3.9,0-5.2-0.1c-2.333-0.134-4.433-0.517-6.3-1.15l-1.05-0.35l2.25,0.649c0.333-0.8,0.717-1.449,1.15-1.949
		l1.65,0.399c0.667,0.367,1.85,0.851,3.55,1.45c1.633,0.533,2.6,0.8,2.9,0.8c0.1,0,0.717-0.033,1.85-0.1
		c0.767-0.033,1.267-0.017,1.5,0.05l-0.2-0.7l4-0.05c0.233,0.267,0.467,0.45,0.7,0.55c0.433,0.167,1.066,0.233,1.899,0.2L157,62.1
		l7.95,2.95c-1.367,1.3-2.934,1.95-4.7,1.95c-2.8,0-6.184-0.25-10.15-0.75C145.267,65.616,141.217,64.767,137.95,63.7z M132.9,57.7
		l0.55,1.05c-4.167-0.134-6.917,0.033-8.25,0.5c-0.767,0.267-1.317,0.866-1.65,1.8l-9.5,0.101c0.633-0.101,3.434-0.867,8.4-2.301
		C125.85,57.816,129.333,57.434,132.9,57.7z M155.1,46c-0.3,0.1-1.183,0.566-2.649,1.4c-1.633,0.966-2.284,1.483-1.95,1.55
		c-0.767,0.166-1.75,0.083-2.95-0.25c-1.367-0.367-2.216-0.917-2.55-1.65c1.433-1.033,3.05-1.6,4.85-1.7
		C151.183,45.283,152.933,45.5,155.1,46z M197.25,33h-5.2c0-1.067-0.184-1.967-0.55-2.7c-0.066-0.1-0.116-0.183-0.15-0.25
		c2.233,1.534,3.584,2.35,4.051,2.45C196.333,32.667,196.95,32.833,197.25,33z M190.5,34.2c2.2,0.533,3.816,0.783,4.85,0.75
		c0.634-0.034,1.483-0.233,2.551-0.6L197.8,36c-2.399,0.267-3.934,0.4-4.6,0.4l-8.601-0.2c0.434-0.067,1.367-0.333,2.801-0.8
		C189.066,34.867,190.1,34.467,190.5,34.2z M199.7,58.25c-1.467,0.866-2.601,1.333-3.4,1.4c-0.666-0.134-1.166-0.2-1.5-0.2
		c-0.399,0-0.649,0.033-0.75,0.1c-0.066,0.134-0.2,0.25-0.399,0.351l-0.15,0.3c-0.134,0.267-0.2,0.6-0.2,1c0,0.566,0.2,1,0.601,1.3
		c-0.134-0.033-0.284-0.066-0.45-0.1c-2.367-0.601-3.983-1.15-4.851-1.65c0.801-0.767,2.65-1.467,5.551-2.1
		C197.017,58.017,198.866,57.884,199.7,58.25z M196.35,63.05c0.467,0,1.017,0,1.65,0c1.533,0,2.65-0.149,3.35-0.45
		c0.801-0.333,1.5-1,2.101-2L205.6,61.9c-0.267,0.5-0.966,0.899-2.1,1.199c-0.866,0.233-1.767,0.351-2.7,0.351
		C199.467,63.45,197.983,63.316,196.35,63.05z M170.3,55.8l-1.35,0.7l-0.101-0.45L170.3,55.8z M172.5,62.9
		c-2,0.366-3.483,0.3-4.45-0.2l7.8-0.8C175.417,62.267,174.3,62.6,172.5,62.9z M154.6,24.65l3.851-0.3
		c-0.934,1.233-1.517,1.85-1.75,1.85c-0.5,0-0.917-0.167-1.25-0.5C155.083,25.233,154.8,24.883,154.6,24.65z M84.85,25.5
		c0.2,0.1,0.883,0.317,2.05,0.65c1.533,0.434,3.167,0.85,4.9,1.25l-5.35-0.6L84.85,25.5z M84.4,29.85L95.35,33
		c-1.667,0.333-3.983,0.317-6.95-0.05c-2.933-0.333-4.767-0.784-5.5-1.35C83.033,31.2,83.533,30.617,84.4,29.85z M102.3,68.3
		l-0.7-0.45c0.167-0.166,0.816-0.649,1.95-1.449c1.133-0.834,1.784-1.284,1.95-1.351l3.15,3.9
		C105.95,69.017,103.833,68.8,102.3,68.3z M96.15,52.75c0.4-0.3,0.717-0.866,0.95-1.7c0.3-1.1,0.233-2.166-0.2-3.2l14.85,8.601
		c-7.133,2-11.883,3.25-14.25,3.75c-2.967,0.6-6.05,0.899-9.25,0.899c-4.733-0.1-8.067-0.649-10-1.649
		c3.467-0.066,7.167-0.767,11.1-2.101C93.583,55.884,95.85,54.35,96.15,52.75z M94.3,54.05c-3.1,1.8-5.383,2.851-6.85,3.15
		c-0.467,0.1-3.5,0.35-9.1,0.75c0.9-0.733,3.683-1.55,8.35-2.45C89.1,55.033,91.633,54.55,94.3,54.05z M134.25,57.1l0.4,0.2
		l-0.4,0.05V57.1z M136.05,58l1.2,0.45c-1.1,0.3-2.083,0.017-2.95-0.851C135.233,57.967,135.817,58.1,136.05,58z M55.5,34.05
		c2.667,0.2,5.033,0.184,7.1-0.05l-0.1,0.9c0,0.867,0.667,1.533,2,2c1.667,0.533,4.5,0.85,8.5,0.95
		c-1.1,0.633-1.883,1.016-2.35,1.15c-0.667,0.233-2,0.35-4,0.35c-2.167,0-5.233-0.533-9.2-1.6c-3.767-1.1-6-1.7-6.7-1.8
		c0.333-0.233,1.167-0.6,2.5-1.1C54.45,34.383,55.2,34.117,55.5,34.05z M65.95,33.5l-0.3-0.15c0.9-0.333,1.75-0.767,2.55-1.3
		l0.55-0.6l-2.85-0.9c4.9-0.133,8.65,0.2,11.25,1c2.467,0.767,3.7,1.9,3.7,3.4c0,0.667-0.05,1.283-0.15,1.85l-5.45,0.4
		c0.2-0.1,0.717-0.534,1.55-1.3c0.8-0.767,1.25-1.217,1.35-1.35c-1.933-1.566-3.233-2.35-3.9-2.35
		C69.883,32.933,67.117,33.367,65.95,33.5z M15.4,28.35c0.467-1,1.7-1.85,3.7-2.55c2.267-0.8,5.8-1.533,10.6-2.2l-13.1,5.65
		C16.167,29.15,15.767,28.85,15.4,28.35z"/>
	<path style="fill-rule:evenodd;clip-rule:evenodd;fill:#BBB2A5;" d="M140.45,2.25l2.05,1.35l1.75,1.1c-0.133,0-0.383,0.2-0.75,0.6
		c-0.4,0.4-0.85,0.617-1.35,0.65c0.567,0.3,1.367,0.783,2.4,1.45c0.667,0.434,1.184,0.65,1.55,0.65c1.333,0,4.4,0.2,9.2,0.6
		c0.5,0,0.834-0.133,1-0.4c0.267-0.467,0.5-0.783,0.7-0.95c0.1,0.034,0.217,0.067,0.35,0.1c1.233,0.434,1.983,0.8,2.25,1.1
		c0,0.533-0.149,1.033-0.449,1.5c2.3,0.7,4.083,1.367,5.35,2c1.066,0.4,3.467,0.817,7.2,1.25l1.75,0.85
		c-0.334,1.1-0.584,1.767-0.75,2c-0.233,0.333-0.816,0.816-1.75,1.45c-0.033,0.034-0.066,0.05-0.101,0.05l-0.5,0.3l-2.55,0.75
		c-1.2-0.767-2.583-1.167-4.149-1.2L159.8,17.3l-3.149,1.1l1.199,1.2c1.767,0.066,3.551,0.066,5.351,0
		c-1.566,0.566-3.617,1-6.15,1.3c-4.8,0.5-7.3,0.767-7.5,0.8c-0.2,0.033-0.383,0.083-0.55,0.15l0.05-0.05
		c0.067-0.333,0.1-0.75,0.1-1.25c0-0.566,0.233-1.083,0.7-1.55c-0.267,0.1-1.367,0.317-3.3,0.65c-1.966,0.367-1.2,1.1,2.3,2.2
		c-0.367,0.1-1.367,0.517-3,1.25c-1.567,0.767-2.367,1.15-2.4,1.15l-2.65-1.15c-0.233,0.4-0.716,1.017-1.45,1.85
		c-0.667,0.733-1.15,1.216-1.45,1.45l1.4,0.05l-2.35,1.05l-0.7,0.25c-0.8,0.267-2.15,0.583-4.05,0.95
		c-1.867,0.367-2.917,0.517-3.15,0.45V29.1c-1.433,0.066-3.566,0.066-6.4,0h-4.8l-10.7-0.05c-2.367,0-4.967-0.117-7.8-0.35
		c-2.767-0.267-4.917-0.583-6.45-0.95c-0.4-0.133-0.767-0.25-1.1-0.35c-1.733-0.4-3.367-0.816-4.9-1.25
		c-1.167-0.333-1.85-0.55-2.05-0.65l-2.35-0.85c-1.333-0.6-2.95-1.433-4.85-2.5l-0.5-0.25c0.467,0,2,0.233,4.6,0.7
		c-2.467-2.2-3.7-3.684-3.7-4.45s0.35-1.3,1.05-1.6c0.267-0.1,1.833-0.533,4.7-1.3c-1.533,0.033-3.2,0.033-5,0l-2.2-0.05
		c-0.167-0.034-0.333-0.167-0.5-0.4c-0.167-0.167-0.434-0.25-0.8-0.25c-6.066,2.6-9.633,4.25-10.7,4.95l0.65,0.3H65.2
		c-0.2-0.1-0.4-0.2-0.6-0.3c-1.2-0.6-2.317-1.2-3.35-1.8c5.433-4.9,14-7.567,25.7-8c0-1.2,0.45-2.1,1.35-2.7
		c7.9,0.3,16.967-0.417,27.2-2.15C126.3,3.083,134.617,2.217,140.45,2.25z M131.3,16.8c-1.367-0.033-2.85,0-4.45,0.1
		c-1.4,0.067-2.117,0.133-2.15,0.2c1.933,0.9,3.017,1.433,3.25,1.6c0.3,0.233,0.45,0.683,0.45,1.35c0,0.367-0.316,0.817-0.95,1.35
		c-0.633,0.567-1.3,0.917-2,1.05c1.833,1.1,2.783,1.8,2.85,2.1c0.067,0.167,0.083,0.483,0.05,0.95c-0.133,0.267,0.033,0.45,0.5,0.55
		c0.233,0.067,0.467,0.1,0.7,0.1c-0.066-0.6,0.05-1.05,0.35-1.35c0.333-0.333,1.117-0.75,2.35-1.25c-1.8-0.4-2.7-1.1-2.7-2.1
		c0-0.534,0.284-1.434,0.85-2.7C130.967,17.517,131.267,16.867,131.3,16.8z M134.3,11c0-0.567,0.284-1.1,0.85-1.6
		c0.9-0.833,2.317-1.15,4.25-0.95c-0.233-0.333-0.35-0.867-0.35-1.6c-2.633,0.867-7.183,1.733-13.65,2.6
		c-5.267,0.7-9.617,1.15-13.05,1.35c0.233,0.434,0.316,0.9,0.25,1.4c-0.033,0.367-0.117,0.617-0.25,0.75c4-0.133,9,0.083,15,0.65
		c4.433,0.4,7.133,0.383,8.1-0.05C134.683,13.55,134.3,12.7,134.3,11z M232.55,21.6h-0.05c-1.033-0.6-1.616-0.934-1.75-1
		C231.394,20.89,231.993,21.223,232.55,21.6z M200.35,32.1c-1.133,0-2.1-0.467-2.899-1.4c-0.8-0.934-1.2-2.067-1.2-3.4
		c0.467,0,1.233-0.1,2.3-0.3c1.533-0.267,2.584-0.617,3.15-1.05c-0.667-0.367-1-0.867-1-1.5c0-0.034,0.166-0.483,0.5-1.35
		c0.899-0.833,2.717-1.25,5.45-1.25c0.466,0,1.666-0.267,3.6-0.8c1.934-0.533,3.616-0.8,5.05-0.8c0.667,0,1.017,0.05,1.05,0.15
		l0.351,1.95c-0.334,0.8-1.066,1.383-2.2,1.75c-1.134,0.267-1.816,0.467-2.05,0.6c0.233,0.233,0.916,0.35,2.05,0.35
		c0.333,0,1.833-0.167,4.5-0.5c2.634-0.333,4.116-0.5,4.45-0.5c0.899,0,2.366,0.434,4.399,1.3c2.233,0.967,3.5,1.467,3.801,1.5
		l-0.95,1.05c-1.066,1.067-4.167,1.967-9.3,2.7c-4.5,0.667-8.4,0.95-11.7,0.85h-4.95c0.033-0.1-0.5-0.184-1.6-0.25
		c-1.167-0.067-1.867,0.017-2.101,0.25h-2.5l2.351,0.15L200.35,32.1z M234.3,22.95c0.767,0.8,1.15,1.583,1.15,2.35
		c0,1.3-0.434,2.5-1.3,3.6c-0.834,1.067-1.934,1.833-3.301,2.3c1.728-1.129,2.678-1.813,2.851-2.05V29.1l-0.601-3.05
		C233.467,24.783,233.866,23.75,234.3,22.95z M216.35,28.65l-0.149,0.2c3.7,0.133,7.233-0.017,10.6-0.45L225.9,28
		c-1.267-0.367-2.417-0.55-3.45-0.55L216.35,28.65z M208.55,32.25h-0.7h-3.25l0.051-0.4L208.55,32.25z M110,32.1l0.4,0.05
		c-0.566,0.1-2.033,0.15-4.4,0.15c-2.3,0-3.483,0-3.55,0c-1.867,0.1-3.8,0.05-5.8-0.15c-3.967-0.4-7-1.283-9.1-2.65
		c1.567,0.167,5.767,0.667,12.6,1.5C106.217,31.733,109.5,32.1,110,32.1z M91.55,18c0,0.1-1.433,0.217-4.3,0.35l-4.2,0.7
		c0.567,0.467,1.217,1.034,1.95,1.7c0.567,0.467,1.05,0.7,1.45,0.7c0.667,0,2.283-0.733,4.85-2.2L91.55,18z M169.55,12.6l1.25,0.35
		c-0.833-0.2-1.649-0.4-2.45-0.6C168.717,12.417,169.116,12.5,169.55,12.6z M136.05,58c6.2-0.9,9.333-1.35,9.4-1.35l-10.8,0.649
		l-0.4-0.2L133,56.35L132.85,57c-0.9-0.366-1.833-1-2.8-1.9c-0.7-0.699-1.233-1.35-1.6-1.949c11.6-0.101,22.2-0.367,31.8-0.801
		c0.6,0,0.9,0.051,0.9,0.15c0.033,0.033,0.033,0.116,0,0.25c0.199,0.267,2.233,0.4,6.1,0.4l3.95,0.949l-0.9,1.7l-1.45,0.25
		l0.101,0.45c0,1.134-0.483,2.1-1.45,2.9c-1,0.767-2.184,1.149-3.55,1.149c0.333-0.533,1.066-1.033,2.2-1.5
		c-0.4-0.166-2.384-0.25-5.95-0.25c-0.367,0-0.684,0.167-0.95,0.5c-0.267,0.3-0.467,0.45-0.6,0.45
		c-5.434,0.066-10.083,0.233-13.95,0.5l-2.9-0.5l0.05,0.05L140.2,59.4l-2.95-0.95L136.05,58z M163.9,61l4.25-0.8
		c-0.467,0.733-1.084,1.149-1.851,1.25c-0.399,0.066-1.166,0.083-2.3,0.05c-0.634-0.033-1.384-0.066-2.25-0.1L162,61.35l2,0.15
		L163.9,61z M118.55,24.8c0.833,1.9,1.5,2.833,2,2.8c0.1,0,1.167-0.684,3.2-2.05l-2.65-1.35L118.55,24.8z"/>
	
		<path style="fill-rule:evenodd;clip-rule:evenodd;fill:none;stroke:#C3B9AC;stroke-width:0.1;stroke-linecap:round;stroke-linejoin:round;stroke-miterlimit:3;" d="
		M260.85,17.35h-5.55 M69.55,23.6h-7.8"/>
</g>
</svg>
