<?xml version="1.0" encoding="iso-8859-1"?>
<!-- Generator: Adobe Illustrator 15.1.0, SVG Export Plug-In . SVG Version: 6.00 Build 0)  -->
<!DOCTYPE svg PUBLIC "-//W3C//DTD SVG 1.1//EN" "http://www.w3.org/Graphics/SVG/1.1/DTD/svg11.dtd">
<svg version="1.1" id="Layer_1" xmlns="http://www.w3.org/2000/svg" xmlns:xlink="http://www.w3.org/1999/xlink" x="0px" y="0px"
	 width="232.45px" height="252.95px" viewBox="0 0 232.45 252.95" style="enable-background:new 0 0 232.45 252.95;"
	 xml:space="preserve">
<g>
	<path style="fill-rule:evenodd;clip-rule:evenodd;fill:#B3AA9E;" d="M147.3,133.4c2.367-1.267,3.75-2.034,4.15-2.301l-1.45-0.25
		c-3.833-0.666-6.35-1.767-7.55-3.3c3.133-1.4,6.7-2.383,10.7-2.95c5.767-0.833,8.783-1.283,9.05-1.35
		c10.566,0.3,21.3,0.233,32.2-0.2c3.366,0.1,5.916,0.534,7.649,1.3c1.834,0.833,3.367,2.3,4.601,4.4
		c3.633,6.233,8.033,10.967,13.199,14.2c1.934,1.233,3.184,2.267,3.75,3.1c0.9,1.3,1.351,3.25,1.351,5.851
		c0,3.366-1.134,5.966-3.4,7.8c-1.566,1.267-4.066,2.366-7.5,3.3c-4.1,1.1-6.6,1.866-7.5,2.3c-2.267,1.134-3.399,2.783-3.399,4.95
		c0,1.233,0.133,2.116,0.399,2.65c0.2,0.399,0.75,1.399,1.65,3c-15.2,0.433-24.434,0.733-27.7,0.899c-3.4,0.134-9,0.634-16.8,1.5
		c-2.101-0.434-3.4-0.899-3.9-1.399c-0.666-0.7-1-2.134-1-4.301c0-0.5,0.101-1.333,0.3-2.5c0.2-1.166,0.367-1.883,0.5-2.149
		c-5.466,0.3-8.816,0.95-10.05,1.95c-3.6,2.899-6.866,5.066-9.8,6.5l0.25,0.05c0.233,0,1.45-0.233,3.65-0.7
		c2.033-0.4,3.533-0.6,4.5-0.6c0.767,0,1.383,0.166,1.85,0.5c0.5,0.366,0.75,0.816,0.75,1.35c0,0.866-0.7,1.6-2.1,2.2
		c-1.967,0.833-3.284,1.566-3.95,2.2l1.7,0.1c1.666-0.134,3.483-0.4,5.449-0.8c0.867,0.366,1.75,0.399,2.65,0.1
		c0.434-0.133,0.866-0.35,1.3-0.649l2.351-0.101l-0.7,0.351l-0.55,0.25c-15.2,2.633-27.384,4.517-36.551,5.649
		c-9.833,1.2-18.316,1.8-25.45,1.8c-6.367,0-11.283-0.1-14.75-0.3c-4.867-0.267-10.083-0.816-15.65-1.649
		c-0.065-0.032-0.115-0.05-0.15-0.051c0.034,0,0.067,0,0.1,0c1.466,0,5-0.05,10.6-0.149l4.95,1.5l-0.9-1.4h4.15
		c2.767,0.066,4.717,0.05,5.85-0.05c1.433,0.167,4.733,0.434,9.9,0.8c5.133,0.367,8.133,0.55,9,0.55c2.833,0,4.25-0.683,4.25-2.05
		c0-1.866-1.6-2.7-4.8-2.5c-4.133,0.233-6.8-0.083-8-0.95c0.9,0,1.35-0.033,1.35-0.1l3.1-0.1c0.133-0.467,0.2-1.034,0.2-1.7
		c0-0.2,4.133-0.934,12.4-2.2c4.134-0.634,8.4-1.267,12.8-1.9c0.3-0.033,2.017-0.767,5.15-2.199c3.066-1.434,4.8-2.284,5.2-2.551
		c2.566,0.267,4.649-0.1,6.25-1.1c1.233-1.134,1.966-1.816,2.199-2.05l-1,0.5c-1.733-0.066-3.6,0.133-5.6,0.6
		c-1.634,0.4-2.85,0.816-3.65,1.25c-4.6-1.267-9.3-2.267-14.1-3c-4.566-0.566-7.617-0.983-9.15-1.25
		c-2.434-0.399-4.083-1.033-4.95-1.899c-1-1-1.5-2.7-1.5-5.101c0-1.133,0.25-2.033,0.75-2.7c0.467-0.5,0.7-0.833,0.7-1
		c0-0.233-0.1-0.699-0.3-1.399c-0.167-0.601-0.216-1.15-0.15-1.65c1.633,0.667,3.15,1.384,4.55,2.15
		c0.8,0.434,1.417,0.649,1.85,0.649c1.1,0,2.383-0.483,3.851-1.449c1.466-0.967,2.199-1.784,2.199-2.45
		c0-0.4-0.116-0.851-0.35-1.351c-0.366-0.833-0.566-1.283-0.6-1.35c3-0.066,4.633-0.2,4.899-0.4l0.05-0.649l-0.3-2.25
		c1.5,0,2.783-0.25,3.851-0.75c1.033-0.533,1.55-1.167,1.55-1.9c0.267,0.367,0.633,1.15,1.1,2.351c0.2,0.5,0.717,0.75,1.55,0.75
		c1.634,0,2.45-0.5,2.45-1.5c0-0.4-0.033-0.717-0.1-0.95c-0.101-0.267-0.15-0.434-0.15-0.5l-3.3-0.25l2.3,0.05
		c2.233-0.167,4.134-0.684,5.7-1.55c1.134-0.867,1.717-1.3,1.75-1.3c2.033,0,5.167,0.267,9.4,0.8c4.199,0.5,6.767,0.75,7.699,0.75
		c1.334,0,2.95-0.334,4.851-1c2.866-1.033,4.45-2.5,4.75-4.4c-0.033-0.366-0.816-0.783-2.351-1.25l-2.25-0.6
		c0.534,0.533,0.9,0.916,1.101,1.149c-0.233,0.5-0.717,1.051-1.45,1.65c-0.833,0.7-1.583,1.066-2.25,1.1
		c1.167-1.5,1.75-2.933,1.75-4.3c0-0.366-0.083-0.717-0.25-1.05c-0.267-0.434-0.667-0.65-1.2-0.65
		C154.233,131.85,150.4,132.366,147.3,133.4z M168.5,219.9c-2,0-3.717,1.033-5.15,3.1c-1.433,2.066-2.149,4.566-2.149,7.5l-3-0.2
		c-0.033-0.233-0.217-0.883-0.55-1.95c-0.334-1.1-0.551-1.733-0.65-1.899c-1.767,1.6-3.05,2.583-3.85,2.95
		c-0.267-0.233-0.601-0.95-1-2.15c-0.367-1.066-0.551-1.7-0.551-1.9c0.667-0.399,1.4-0.933,2.2-1.6l0.95-0.55
		c0.667-0.033,2.45-0.733,5.35-2.101c2.834-1.333,4.517-2,5.051-2C165.917,219.1,167.033,219.366,168.5,219.9z M144.55,232.5
		c0.101-2.333,0.167-3.75,0.2-4.25c0.467-0.566,1.616-1.167,3.45-1.8c0.934-0.334,2.033-0.684,3.3-1.05
		c-0.467,1.233-1.3,2.466-2.5,3.699c-0.866,0.9-1.616,1.534-2.25,1.9c-0.134,0.033-0.267,0.083-0.4,0.15L144.55,232.5z
		 M108.95,243.7c0.367-0.566,0.683-1.684,0.95-3.351c0.167-1.199,0.267-2.316,0.3-3.35c0.333-1.233,0.566-4.017,0.7-8.35l1.95-11.15
		l0.35,0.2c0,0.899,0.183,1.684,0.55,2.35c0.367,0.634,0.8,0.95,1.3,0.95c0.4,0.333,1.65,1.167,3.75,2.5
		c1.7,1.634,1.95,3.75,0.75,6.35c0.834-0.767,1.533-1.267,2.101-1.5c0.199,1.434,0.433,2.45,0.699,3.051l0.7-3.5
		c0.066-0.167,0.184-0.301,0.351-0.4c0.293-0.261,0.601-0.394,0.925-0.4l2.774-0.149l2,0.25l1.9,0.649
		c0.4,2.834-0.816,4.25-3.65,4.25c-1.6,0-2.933-0.433-4-1.3l-0.25-0.45c0.233,3.634,0.301,5.601,0.2,5.9
		c-0.233,0.634-1.434,2.616-3.6,5.95c-0.367,0-1.983,0.25-4.85,0.75C111.983,243.417,110.017,243.667,108.95,243.7z M99.7,252.95
		c0.533-0.533,1.283-1.816,2.25-3.851c0.8-1.733,1.3-2.916,1.5-3.55c-0.067,0.233-0.2,0.667-0.4,1.3c-0.2,0.634-0.3,1.15-0.3,1.551
		c0,0.666,0.217,0.833,0.65,0.5c0.667-0.101,1.35-0.4,2.05-0.9l0.05,1.1l-0.15,3.601C103.983,252.934,102.1,253.017,99.7,252.95z
		 M81.1,237.35c0.066,0.034,0.1-0.216,0.1-0.75v-0.75l0.15,1.75L81.1,237.35z M69.1,230.65l-0.05-0.051l-0.6-0.399
		c0.167-3.367,0.316-9,0.45-16.9c0.3-16.133,0.45-24.533,0.45-25.2l3.75,0.551c0.233,5.433,0.45,10.183,0.65,14.25
		c0.167,4.366,0.4,14.233,0.7,29.6c-0.267-0.134-1.067-0.417-2.4-0.85C70.65,231.217,69.667,230.884,69.1,230.65z M59.45,237.15
		c-0.534-0.134-1.034-0.351-1.5-0.65c1.133-6.667,1.783-10.634,1.95-11.9c0.467,8.467,0.817,12.7,1.05,12.7L59.45,237.15z
		 M37.15,218.05l0.1-2.6L37.3,216c0,0.5,0.083,1.134,0.25,1.9L37.15,218.05z M11.6,189c0.133-0.667-0.083-1.667-0.65-3l-0.2-17.85
		l-1.5,14.6l-0.75-2.2c-0.1-0.934,0.033-3,0.4-6.2c0.4-3.699,0.6-6.583,0.6-8.649c0-0.4,0-0.8,0-1.2
		c0.667-6.4,1.133-10.283,1.4-11.65l-0.15,15.301l4.2-41.45c2.033-0.133,3.517,0.783,4.45,2.75c0.934,2,1.517,3,1.75,3
		c0.434,0,0.967-0.25,1.6-0.75c1.367-1.066,3.017-2.184,4.95-3.351h1.05l0.05,5.101c-0.433,0.5-1.8,1.684-4.1,3.55
		c-2.067,1.9-3.184,3.483-3.35,4.75c-0.1,0.833-0.2,2.4-0.3,4.7c-0.1,2.3-0.233,4.033-0.4,5.2c-0.3,2.199-1.167,4.066-2.6,5.6
		c-1.3,1.366-1.95,2.967-1.95,4.8c0,7.867,0.55,18.884,1.65,33.05c0.533,7.233,1.117,14.551,1.75,21.95l-0.55-0.6l-0.5-0.4
		c-1.434-2.733-2.2-7.166-2.3-13.3c-0.066-2.233-0.333-3.9-0.8-5c-0.667-1.467-1.934-2.517-3.8-3.15l-0.45-0.25L11.05,190
		C11.317,189.7,11.5,189.366,11.6,189z M1.1,148.5l1.1-19.85l0.15,21.05C1.85,149.267,1.433,148.866,1.1,148.5z M172.95,123.9
		c-0.634-0.133-1.267-0.217-1.9-0.25c-0.8-0.033-1.383,0.033-1.75,0.2l-4.55,0.2l0.15,0.15c-0.867-0.034-1.551,0.15-2.051,0.55
		c-0.533,0.367-0.8,0.933-0.8,1.7c0,0.666,0.084,1.566,0.25,2.7l5,0.25c1.934,0,3.5-0.267,4.7-0.801
		c0.733-0.333,1.434-0.85,2.1-1.55c0.233,1.434,0.084,2.533-0.449,3.3l2.199,0.301c1.101,0,2.017-0.25,2.75-0.75
		c0.801-0.534,1.2-1.301,1.2-2.301c0-0.633-0.3-1.25-0.899-1.85C177.767,124.55,175.783,123.933,172.95,123.9z M142.2,136.45
		c-0.233,0.267-0.434,0.55-0.601,0.85c0.4,0.334,1.601,0.601,3.601,0.8c1.3,0.134,3.8,0.334,7.5,0.601
		c-6.8,0.333-11.334,0.6-13.601,0.8C139.366,138.7,140.4,137.684,142.2,136.45z M183.75,158.6c-0.733,0.5-1.533,0.784-2.4,0.851
		l2.25,0.05c0.067,0,0.134,0.017,0.2,0.05c-0.066,0.3-0.133,0.684-0.2,1.15l9.45-0.3c-0.333-1.434-0.133-2.5,0.601-3.2
		c0.433-0.434,1.416-0.884,2.949-1.351c3.601-1.133,5.884-2.949,6.851-5.449l-1,0.05c-2.134,0-5.867-0.25-11.2-0.75
		c-4.9-0.533-7.434-0.8-7.6-0.8l-3.95,0.149c0.434,1.267,1.366,2.45,2.8,3.55C183.7,153.533,184.116,155.533,183.75,158.6z
		 M199.4,146.05c0.6-0.366,0.899-0.8,0.899-1.3s-0.3-0.934-0.899-1.3c-0.601-0.367-1.334-0.55-2.2-0.55
		c-0.867,0-1.601,0.183-2.2,0.55c-0.6,0.366-0.9,0.8-0.9,1.3s0.301,0.934,0.9,1.3c0.6,0.367,1.333,0.55,2.2,0.55
		C198.066,146.6,198.8,146.417,199.4,146.05z M187.25,128.75c-0.3-0.3-0.65-0.45-1.05-0.45c-0.4,0-0.733,0.15-1,0.45
		c-0.3,0.267-0.45,0.6-0.45,1s0.15,0.75,0.45,1.05c0.267,0.267,0.6,0.4,1,0.4c0.399,0,0.75-0.134,1.05-0.4
		c0.267-0.3,0.4-0.649,0.4-1.05S187.517,129.017,187.25,128.75z M173.6,134.95l-3.5,1c0,0.366,0.034,0.717,0.101,1.05h2.1
		C173.4,136.934,173.833,136.25,173.6,134.95z M174.6,138.95c0.301,0.434,0.684,0.767,1.15,1c0.9,0.066,1.85,0.066,2.85,0
		L174.6,138.95z M190.75,169.35c-0.967,0-2.283,0.184-3.95,0.551c0.167,0.533,0.4,0.966,0.7,1.3c0.7,0.333,1.517,0.5,2.45,0.5
		c0.399,0,1.983,0.184,4.75,0.55c2.8,0.033,4.767-0.733,5.899-2.3L190.75,169.35z M179.6,157.3c-0.333,0.233-0.5,0.533-0.5,0.9
		c0,0.366,0.167,0.684,0.5,0.95c0.301,0.233,0.667,0.35,1.101,0.35s0.816-0.116,1.149-0.35c0.301-0.267,0.45-0.584,0.45-0.95
		c0-0.367-0.149-0.667-0.45-0.9c-0.333-0.267-0.716-0.399-1.149-0.399S179.9,157.033,179.6,157.3z M178.3,154.35
		c0.533-0.533,0.8-1.166,0.8-1.899s-0.267-1.351-0.8-1.851c-0.533-0.533-1.166-0.8-1.899-0.8s-1.367,0.267-1.9,0.8
		c-0.533,0.5-0.8,1.117-0.8,1.851s0.267,1.366,0.8,1.899c0.533,0.5,1.167,0.75,1.9,0.75S177.767,154.85,178.3,154.35z M184.1,170.35
		c1.434-0.466,2.434-0.933,3-1.399c-2.666-0.334-4.333-0.5-5-0.5c-0.8,0-1.466,0.133-2,0.399c-0.433,0.233-0.649,0.467-0.649,0.7
		c0,0.4,0.066,0.684,0.2,0.851c0.1,0.199,0.149,0.333,0.149,0.399l1.95,0.15C182.083,170.95,182.866,170.75,184.1,170.35z
		 M163.65,170c0-0.467-0.167-0.866-0.5-1.2c-0.367-0.333-0.784-0.5-1.25-0.5c-0.467,0-0.867,0.167-1.2,0.5
		c-0.367,0.334-0.55,0.733-0.55,1.2s0.183,0.866,0.55,1.2c0.333,0.333,0.733,0.5,1.2,0.5c0.466,0,0.883-0.167,1.25-0.5
		C163.483,170.866,163.65,170.467,163.65,170z M155.6,198.35L154,197.9l-0.5-2.851c0.267,0.134,2.483,0.917,6.65,2.351
		c3.666,1.267,6.383,2.533,8.149,3.8h0.101l0.1,0.75h-0.2c-0.833,0-1.533-0.033-2.1-0.101c-0.667-0.1-1.733-0.3-3.2-0.6
		c-2.833-1.434-4.75-2.616-5.75-3.55l-0.05,1.1L155.6,198.35z M173.45,205.55c-0.601-0.1-0.95-0.467-1.05-1.1l1.699,1.1H173.45z
		 M144.55,184.9h0.05c-0.066,0.133-0.449,0.933-1.149,2.399c-0.066,0.167-0.15,0.334-0.25,0.5c-4.5,0.167-8.667,0.25-12.5,0.25
		l1.149-0.25C139.717,185.967,143.95,185,144.55,184.9z M203.1,163.05c0.167,0.367,0.417,0.733,0.75,1.101h2.301
		c0.433-0.101,0.75-0.267,0.949-0.5c0.233-0.301,0.417-0.567,0.551-0.801C207.616,162.616,206.1,162.684,203.1,163.05z M19.7,67.8
		c-0.267-0.233-0.45-0.6-0.55-1.1c-0.033-0.233-0.1-0.967-0.2-2.2L19,58.95c0.333,2.6,1.133,4.167,2.4,4.7
		c1.1,0.5,1.65,1.617,1.65,3.35c0,0.433-0.267,0.75-0.8,0.95C21.617,68.217,20.767,68.167,19.7,67.8z M26.7,69.35
		c0.333,0.5,0.6,0.917,0.8,1.25c0.1,0.1,0.283,0.233,0.55,0.4c-0.267,0.9-0.767,1.617-1.5,2.15c-0.566,0.4-1.083,0.6-1.55,0.6
		c-0.267,0-0.6-0.183-1-0.55c-0.533-0.5-0.8-1.15-0.8-1.95c0-1.9,0.6-3,1.8-3.3L26.7,69.35z M29.65,84.3l-0.1,4.05
		c-3.033,0-5.617,0.533-7.75,1.6c-2.133,1.033-3.2,2.283-3.2,3.75c-0.4-2.333-0.667-4.034-0.8-5.1c1.133-1.1,3.017-2.117,5.65-3.05
		C26.083,84.583,28.15,84.167,29.65,84.3z M41.8,210.3c-0.233,0.634-0.517,1.117-0.85,1.45l-0.35,0.1l-2.85-10l0.45,8.45
		l-0.95,1.601c0.067-4.967,0.067-9.034,0-12.2c-0.167-4.8-0.333-9.566-0.5-14.3l-0.3-9.9c1.066,0.767,2.066,1.233,3,1.4
		c0.133,0.033,1.383,0.149,3.75,0.35l0.05,8.15c-0.7,0.433-1.4,0.916-2.1,1.449c-0.267,0.301-0.7,1.034-1.3,2.2
		c-0.567,1.033-0.883,1.667-0.95,1.9c-0.133-0.033-0.183-0.017-0.15,0.05c0.033,0.033,0.083,0.066,0.15,0.1
		c0,0.334,0.167,1.167,0.5,2.5c0.1,0.4,0.184,0.75,0.25,1.051c-0.133-0.067-0.25-0.134-0.35-0.2l0.6,1.149l0.05,0.051
		c0.033,0.133,0.066,0.233,0.1,0.3c0,1.434,0.333,2.649,1,3.649c0.633,1,1.417,1.5,2.35,1.5c0.033,0.267-0.117,1.483-0.45,3.65
		c-0.3,2-0.534,3.366-0.7,4.1l-0.35-5.35L41.8,210.3z M52.15,185.7l-2.9-0.7c-0.167-2.3-0.383-4.616-0.65-6.95
		c0.333,0.167,1.7,1.184,4.1,3.05v4.101L52.15,185.7z M56.4,182.8c0.1,0.101,0.283,0.267,0.55,0.5c-0.3-0.233-0.5-0.399-0.6-0.5
		H56.4z M63.05,186.75l-0.85-0.25c-0.067-0.033-0.184-0.083-0.35-0.15L63.05,186.75z M115,201.95c0.333-4.3,0.55-7.867,0.65-10.7
		l12.05-0.6c0.5,1.866,0.833,3.517,1,4.949c-4.7,0.934-7.3,1.534-7.8,1.801C120.066,197.8,118.1,199.316,115,201.95z M50.4,203.35
		l0.85,0.051l1.55,0.1l0.15,17.2c0,3.3-0.034,5.649-0.1,7.05c-1.2-1.1-1.95-5.3-2.25-12.6c-0.067-6.067-0.117-9.801-0.15-11.2
		C50.417,203.65,50.4,203.45,50.4,203.35z M121.6,151.5c-0.6,0.6-1.583,1.267-2.949,2c-1.733,0.967-2.8,1.583-3.2,1.85l1,0.4
		c0.899,0.267,1.816,0.366,2.75,0.3c0.2,0,0.399,0,0.6,0c5.267-0.267,10.684-0.25,16.25,0.05c2.233,0.101,3.617-0.283,4.15-1.149
		c-0.467-0.3-1.483-0.851-3.05-1.65c-0.967-0.467-1.45-0.866-1.45-1.2c0-0.333,0.166-0.783,0.5-1.35c0.333-0.566,0.5-1.017,0.5-1.35
		c0-0.434-0.134-0.717-0.4-0.851c-0.166-0.066-0.566-0.1-1.2-0.1c-9.066,0-14.166,0.116-15.3,0.35c-0.5,0.101-0.717,0.3-0.649,0.601
		c0.066,0.399,0.017,0.699-0.15,0.899c0.1,0.167,0.517,0.4,1.25,0.7C120.884,151.267,121.333,151.434,121.6,151.5z M111.15,148.85
		c1.767-0.3,3.85-0.416,6.25-0.35c-0.967,0.2-2.3,0.316-4,0.35H111.15z M138.4,176.65c-1.367,0.199-2.667,0.983-3.9,2.35
		c0.733,0.5,1.65,0.75,2.75,0.75c1.233,0,3.184-0.267,5.85-0.8v-2.4C140.833,176.517,139.267,176.55,138.4,176.65z M134.7,231.45
		l2,0.7c0.467,0.166,0.717,0.267,0.75,0.3c0.066,0.066,0.1,0.333,0.1,0.8c0,0.667-0.033,1.233-0.1,1.7l-0.75,0.1
		c-1.667,0.233-2.917,0.066-3.75-0.5c-0.733-0.467-1.101-1.184-1.101-2.149l0.15-1.95l1.45,0.55l0.2,0.95
		C134.05,231.884,134.4,231.717,134.7,231.45z M131.5,228l0.8,18l-1.1-0.2l0.05-17.85L131.5,228z M183.95,210.05
		c-1.134,0-2.367-0.116-3.7-0.35c0.833-0.066,1.667-0.033,2.5,0.1C183.417,209.866,183.816,209.95,183.95,210.05z"/>
	<path style="fill-rule:evenodd;clip-rule:evenodd;fill:#A39A90;" d="M134.85,170.3l2.101,0.25c-0.033,0.2-0.134,0.384-0.3,0.55
		c-0.4,0.267-2.134,1.117-5.2,2.551c-3.134,1.433-4.851,2.166-5.15,2.199c-4.399,0.634-8.666,1.267-12.8,1.9
		c-8.267,1.267-12.4,2-12.4,2.2c0,0.666-0.067,1.233-0.2,1.7l-3.1,0.1c0,0.066-0.45,0.1-1.35,0.1c1.2,0.867,3.867,1.184,8,0.95
		c3.2-0.2,4.8,0.634,4.8,2.5c0,1.367-1.417,2.05-4.25,2.05c-0.867,0-3.867-0.183-9-0.55c-5.167-0.366-8.467-0.633-9.9-0.8
		c3.467-3.467,5.85-5.333,7.15-5.6c5.433-1.067,8.65-2.051,9.65-2.95c-0.833-0.667-2.65-1.066-5.45-1.2
		c-2.867-0.167-4.55-0.434-5.05-0.8l-0.2-0.351l-0.05-0.05h0.05c4.933-0.5,10.316-0.833,16.15-1c3.566-0.1,5.667-0.35,6.3-0.75
		c-3.167-1.767-6.683-2.95-10.55-3.55c-1.467-0.233-4.434-0.467-8.9-0.7c-3-0.133-5.067-0.55-6.2-1.25
		c-1.533-0.899-2.3-2.633-2.3-5.2c0-0.466-0.133-0.866-0.4-1.199c-0.466-0.534-1.283-0.717-2.45-0.551
		c0.066-1.466,0.283-2.716,0.65-3.75l2.2,0.15c1.1,0,2.017-0.65,2.75-1.95c0.867-1.533,2.85-2.649,5.95-3.35
		c1.934-0.434,3.767-1.9,5.5-4.4c1.367-2.434,2.05-3.684,2.05-3.75c-0.267-1.133-0.717-2.633-1.35-4.5l0.1-0.7l0.7-0.75l1.8-0.55
		l2.85-0.149l1,0.1l5.75,0.35c1.8,0,3.65-0.366,5.55-1.1c2.267-0.9,3.75-2.083,4.45-3.55c-1.166-0.9-1.816-1.367-1.95-1.4
		c0.134-0.434,0.217-0.717,0.25-0.85c0.067-0.2,0.101-0.517,0.101-0.95c0-2.267-0.184-3.833-0.55-4.7
		c-0.167-0.333-0.834-1.15-2-2.45l42.55,0.65c-0.267,0.067-3.283,0.517-9.05,1.35c-4,0.566-7.567,1.55-10.7,2.95
		c1.2,1.533,3.717,2.634,7.55,3.3l1.45,0.25c-0.4,0.267-1.783,1.034-4.15,2.301c-0.666,0.366-1.416,0.767-2.25,1.199
		c-1.1,0.667-2.05,1.284-2.85,1.851c-1.8,1.233-2.834,2.25-3.101,3.05c2.267-0.2,6.801-0.467,13.601-0.8l2.05,0.149
		c0.533,0,1.184-0.083,1.95-0.25c0.8-0.233,1.399-0.483,1.8-0.75c0.667-0.033,1.417-0.399,2.25-1.1c0.733-0.6,1.217-1.15,1.45-1.65
		c-0.2-0.233-0.566-0.616-1.101-1.149l2.25,0.6c1.534,0.467,2.317,0.884,2.351,1.25c-0.3,1.9-1.884,3.367-4.75,4.4
		c-1.9,0.666-3.517,1-4.851,1c-0.933,0-3.5-0.25-7.699-0.75c-4.233-0.533-7.367-0.8-9.4-0.8c-0.033,0-0.616,0.433-1.75,1.3
		c-1.566,0.866-3.467,1.383-5.7,1.55l-2.3-0.05l3.3,0.25c0,0.066,0.05,0.233,0.15,0.5c0.066,0.233,0.1,0.55,0.1,0.95
		c0,1-0.816,1.5-2.45,1.5c-0.833,0-1.35-0.25-1.55-0.75c-0.467-1.2-0.833-1.983-1.1-2.351c-1.5,0-2.767,0.267-3.8,0.8
		c-1.067,0.5-1.601,1.117-1.601,1.851l0.3,2.25l-0.05,0.649c-0.267,0.2-1.899,0.334-4.899,0.4h-0.25
		c-2.4-0.066-4.484,0.05-6.25,0.35c-0.566,0.167-1.517,0.733-2.85,1.7c-1.2,0.867-1.917,1.45-2.15,1.75
		c-0.066,0.5-0.017,1.05,0.15,1.65c0.2,0.7,0.3,1.166,0.3,1.399c0,0.167-0.233,0.5-0.7,1c-0.5,0.667-0.75,1.567-0.75,2.7
		c0,2.4,0.5,4.101,1.5,5.101c0.867,0.866,2.517,1.5,4.95,1.899c1.533,0.267,4.583,0.684,9.15,1.25
		C125.55,168.033,130.25,169.033,134.85,170.3z M174.1,127.05c0.101,0.3,0.15,0.117,0.15-0.55c0-0.467-0.134-0.917-0.4-1.35
		c-0.033-0.033-0.333-0.45-0.899-1.25c2.833,0.033,4.816,0.65,5.95,1.85c0.6,0.6,0.899,1.217,0.899,1.85c0,1-0.399,1.767-1.2,2.301
		c-0.733,0.5-1.649,0.75-2.75,0.75l-2.199-0.301C174.184,129.583,174.333,128.483,174.1,127.05z M169.3,123.85
		c-0.8,0.4-2.267,0.517-4.399,0.35l-0.15-0.15L169.3,123.85z M174.6,138.95l4,1c-1,0.066-1.949,0.066-2.85,0
		C175.283,139.717,174.9,139.384,174.6,138.95z M173.6,134.95c0.233,1.3-0.199,1.983-1.3,2.05h-2.1
		c-0.066-0.333-0.101-0.684-0.101-1.05L173.6,134.95z M187.25,128.75c0.267,0.267,0.4,0.6,0.4,1s-0.134,0.75-0.4,1.05
		c-0.3,0.267-0.65,0.4-1.05,0.4c-0.4,0-0.733-0.134-1-0.4c-0.3-0.3-0.45-0.649-0.45-1.05s0.15-0.733,0.45-1
		c0.267-0.3,0.6-0.45,1-0.45C186.6,128.3,186.95,128.45,187.25,128.75z M199.4,146.05c-0.601,0.367-1.334,0.55-2.2,0.55
		c-0.867,0-1.601-0.183-2.2-0.55c-0.6-0.366-0.9-0.8-0.9-1.3s0.301-0.934,0.9-1.3c0.6-0.367,1.333-0.55,2.2-0.55
		c0.866,0,1.6,0.183,2.2,0.55c0.6,0.366,0.899,0.8,0.899,1.3S200,145.684,199.4,146.05z M183.75,158.6
		c0.366-3.066-0.05-5.066-1.25-6c-1.434-1.1-2.366-2.283-2.8-3.55l3.95-0.149c0.166,0,2.699,0.267,7.6,0.8
		c5.333,0.5,9.066,0.75,11.2,0.75l1-0.05c-0.967,2.5-3.25,4.316-6.851,5.449c-1.533,0.467-2.517,0.917-2.949,1.351
		c-0.733,0.7-0.934,1.767-0.601,3.2l-9.45,0.3c0.067-0.467,0.134-0.851,0.2-1.15c1.634,0.101,3.101-0.149,4.4-0.75
		c1.767-0.8,2.649-2.066,2.649-3.8c0-0.667-0.183-1.333-0.55-2c-0.6-1-1.5-1.684-2.7-2.05c-0.633,0.5-0.933,1.833-0.899,4
		c0,0.866-0.267,1.566-0.8,2.1c-1.034,1.101-1.7,1.667-2,1.7c-0.034,0-0.067-0.017-0.101-0.05S183.75,158.634,183.75,158.6z
		 M190.75,169.35l9.85,0.601c-1.133,1.566-3.1,2.333-5.899,2.3c-2.767-0.366-4.351-0.55-4.75-0.55c-0.934,0-1.75-0.167-2.45-0.5
		c-0.3-0.334-0.533-0.767-0.7-1.3C188.467,169.533,189.783,169.35,190.75,169.35z M163.65,170c0,0.467-0.167,0.866-0.5,1.2
		c-0.367,0.333-0.784,0.5-1.25,0.5c-0.467,0-0.867-0.167-1.2-0.5c-0.367-0.334-0.55-0.733-0.55-1.2s0.183-0.866,0.55-1.2
		c0.333-0.333,0.733-0.5,1.2-0.5c0.466,0,0.883,0.167,1.25,0.5C163.483,169.134,163.65,169.533,163.65,170z M80.25,186.05H76.1
		l-0.05-0.1L80.25,186.05z M119.8,156.05c1.101-0.166,2-1.017,2.7-2.55c1.233-2.5,1.934-3.85,2.1-4.05
		c-0.267,0.133-0.783,0.467-1.55,1c-0.8,0.566-1.283,0.916-1.45,1.05c-0.267-0.066-0.716-0.233-1.35-0.5
		c-0.733-0.3-1.15-0.533-1.25-0.7c0.167-0.2,0.217-0.5,0.15-0.899c-0.067-0.301,0.149-0.5,0.649-0.601
		c1.134-0.233,6.233-0.35,15.3-0.35c0.634,0,1.034,0.033,1.2,0.1c0.267,0.134,0.4,0.417,0.4,0.851c0,0.333-0.167,0.783-0.5,1.35
		c-0.334,0.566-0.5,1.017-0.5,1.35c0,0.334,0.483,0.733,1.45,1.2c1.566,0.8,2.583,1.351,3.05,1.65
		c-0.533,0.866-1.917,1.25-4.15,1.149C130.483,155.8,125.066,155.783,119.8,156.05z M155.15,180.05l-2.351,0.101
		c0.4-0.601,0.601-1.4,0.601-2.4c0-0.434-0.134-1.066-0.4-1.9c-0.434-1.233-0.733-2.199-0.9-2.899l-2,1
		c-0.033,0.133,0.334,1.35,1.101,3.649c0,0.867-0.367,1.434-1.101,1.7c-1.033,0.4-1.683,0.75-1.949,1.05l0.699,0.351
		c-1.966,0.399-3.783,0.666-5.449,0.8l-1.7-0.1c0.666-0.634,1.983-1.367,3.95-2.2c1.399-0.601,2.1-1.334,2.1-2.2
		c0-0.533-0.25-0.983-0.75-1.35c-0.467-0.334-1.083-0.5-1.85-0.5c-0.967,0-2.467,0.199-4.5,0.6c-2.2,0.467-3.417,0.7-3.65,0.7
		l-0.25-0.05c2.934-1.434,6.2-3.601,9.8-6.5c1.233-1,4.584-1.65,10.05-1.95c-0.133,0.267-0.3,0.983-0.5,2.149
		c-0.199,1.167-0.3,2-0.3,2.5c0,2.167,0.334,3.601,1,4.301c0.5,0.5,1.8,0.966,3.9,1.399
		C158.533,178.566,156.684,179.15,155.15,180.05z"/>
	<path style="fill-rule:evenodd;clip-rule:evenodd;fill:#C3B9AC;" d="M164.9,124.2c2.133,0.167,3.6,0.05,4.399-0.35
		c0.367-0.167,0.95-0.233,1.75-0.2c0.634,0.033,1.267,0.117,1.9,0.25c0.566,0.8,0.866,1.217,0.899,1.25
		c0.267,0.434,0.4,0.883,0.4,1.35c0,0.667-0.05,0.85-0.15,0.55c-0.666,0.7-1.366,1.217-2.1,1.55c-1.2,0.534-2.767,0.801-4.7,0.801
		l-5-0.25c-0.166-1.134-0.25-2.034-0.25-2.7c0-0.767,0.267-1.333,0.8-1.7C163.35,124.35,164.033,124.167,164.9,124.2z M122.3,145.2
		c0-0.733,0.533-1.351,1.601-1.851c1.033-0.533,2.3-0.8,3.8-0.8c0,0.733-0.517,1.367-1.55,1.9
		C125.083,144.95,123.8,145.2,122.3,145.2z M147.3,133.4c3.101-1.034,6.934-1.551,11.5-1.551c0.533,0,0.934,0.217,1.2,0.65
		c0.167,0.333,0.25,0.684,0.25,1.05c0,1.367-0.583,2.8-1.75,4.3c-0.4,0.267-1,0.517-1.8,0.75c-0.767,0.167-1.417,0.25-1.95,0.25
		l-2.05-0.149c-3.7-0.267-6.2-0.467-7.5-0.601c-2-0.199-3.2-0.466-3.601-0.8c0.167-0.3,0.367-0.583,0.601-0.85
		c0.8-0.566,1.75-1.184,2.85-1.851C145.884,134.167,146.634,133.767,147.3,133.4z M184.1,170.35c-1.233,0.4-2.017,0.601-2.35,0.601
		l-1.95-0.15c0-0.066-0.05-0.2-0.149-0.399c-0.134-0.167-0.2-0.45-0.2-0.851c0-0.233,0.217-0.467,0.649-0.7
		c0.534-0.267,1.2-0.399,2-0.399c0.667,0,2.334,0.166,5,0.5C186.533,169.417,185.533,169.884,184.1,170.35z M178.3,154.35
		c-0.533,0.5-1.166,0.75-1.899,0.75s-1.367-0.25-1.9-0.75c-0.533-0.533-0.8-1.166-0.8-1.899s0.267-1.351,0.8-1.851
		c0.533-0.533,1.167-0.8,1.9-0.8s1.366,0.267,1.899,0.8c0.533,0.5,0.8,1.117,0.8,1.851S178.833,153.816,178.3,154.35z M179.6,157.3
		c0.301-0.267,0.667-0.399,1.101-0.399s0.816,0.133,1.149,0.399c0.301,0.233,0.45,0.533,0.45,0.9c0,0.366-0.149,0.684-0.45,0.95
		c-0.333,0.233-0.716,0.35-1.149,0.35s-0.8-0.116-1.101-0.35c-0.333-0.267-0.5-0.584-0.5-0.95
		C179.1,157.833,179.267,157.533,179.6,157.3z M203.1,163.05c3-0.366,4.517-0.434,4.551-0.2c-0.134,0.233-0.317,0.5-0.551,0.801
		c-0.199,0.233-0.517,0.399-0.949,0.5h-2.301C203.517,163.783,203.267,163.417,203.1,163.05z M106.15,152.3
		c0.233-0.3,0.95-0.883,2.15-1.75c1.333-0.967,2.284-1.533,2.85-1.7h2.25c1.7-0.033,3.034-0.149,4-0.35h0.25
		c0.033,0.066,0.233,0.517,0.6,1.35c0.233,0.5,0.35,0.95,0.35,1.351c0,0.666-0.733,1.483-2.199,2.45
		c-1.467,0.966-2.75,1.449-3.851,1.449c-0.433,0-1.05-0.216-1.85-0.649C109.3,153.684,107.783,152.967,106.15,152.3z M136.65,171.1
		c0.166-0.166,0.267-0.35,0.3-0.55l-2.101-0.25c0.801-0.434,2.017-0.85,3.65-1.25c2-0.467,3.866-0.666,5.6-0.6l1-0.5
		c-0.233,0.233-0.966,0.916-2.199,2.05C141.3,171,139.217,171.366,136.65,171.1z M138.4,176.65c0.866-0.101,2.433-0.134,4.699-0.101
		v2.4c-2.666,0.533-4.616,0.8-5.85,0.8c-1.1,0-2.017-0.25-2.75-0.75C135.733,177.634,137.033,176.85,138.4,176.65z"/>
	<path style="fill-rule:evenodd;clip-rule:evenodd;fill:#8C847C;" d="M183.75,158.6c0,0.034,0.017,0.067,0.05,0.101
		s0.066,0.05,0.101,0.05c0.3-0.033,0.966-0.6,2-1.7c0.533-0.533,0.8-1.233,0.8-2.1c-0.033-2.167,0.267-3.5,0.899-4
		c1.2,0.366,2.101,1.05,2.7,2.05c0.367,0.667,0.55,1.333,0.55,2c0,1.733-0.883,3-2.649,3.8c-1.3,0.601-2.767,0.851-4.4,0.75
		c-0.066-0.033-0.133-0.05-0.2-0.05l-2.25-0.05C182.217,159.384,183.017,159.1,183.75,158.6z M121.6,151.5
		c0.167-0.134,0.65-0.483,1.45-1.05c0.767-0.533,1.283-0.867,1.55-1c-0.166,0.2-0.866,1.55-2.1,4.05c-0.7,1.533-1.6,2.384-2.7,2.55
		c-0.2,0-0.399,0-0.6,0c-0.934,0.066-1.851-0.033-2.75-0.3l-1-0.4c0.4-0.267,1.467-0.883,3.2-1.85
		C120.017,152.767,121,152.1,121.6,151.5z M152.8,180.15c-0.434,0.3-0.866,0.517-1.3,0.649c-0.9,0.3-1.783,0.267-2.65-0.1
		l-0.699-0.351c0.267-0.3,0.916-0.649,1.949-1.05c0.733-0.267,1.101-0.833,1.101-1.7c-0.767-2.3-1.134-3.517-1.101-3.649l2-1
		c0.167,0.7,0.467,1.666,0.9,2.899c0.267,0.834,0.4,1.467,0.4,1.9C153.4,178.75,153.2,179.55,152.8,180.15z"/>
	<path style="fill-rule:evenodd;clip-rule:evenodd;fill:#D2CDC1;" d="M154.45,180.4l0.7-0.351c1.533-0.899,3.383-1.483,5.55-1.75
		c7.8-0.866,13.399-1.366,16.8-1.5c3.267-0.166,12.5-0.467,27.7-0.899c0.767,0,1.95,0.267,3.55,0.8
		c-1.333,0.233-2.184,0.35-2.55,0.35c-3.101,0.634-6.8,1.8-11.101,3.5c-2.1,0.867-6.25,1.233-12.449,1.101
		c-1.301,0.233-2.5,0.083-3.601-0.45c-0.6-0.3-1.35-0.834-2.25-1.601c0.233-0.8,0.017-1.199-0.649-1.199
		c-3.7,0-8.034,0.316-13,0.949C157.884,180.05,154.983,180.4,154.45,180.4z M33.2,30c-0.833,2.1-1.267,4.75-1.3,7.95
		c-0.033,2.966-0.433,5.2-1.2,6.7l-0.05,0.2c-0.367,0.066-0.667-0.083-0.9-0.45c-0.433-0.733-0.8-2.9-1.1-6.5l0.15-2.75
		c0.5-3.8,0.75-6.083,0.75-6.85c0-1.066-0.316-1.716-0.95-1.95c-1.4,1.667-2.2,3.767-2.4,6.3c-0.133,1.633-0.9,2.45-2.3,2.45
		c-0.8,0-1.633-0.233-2.5-0.7l1.35-4.75l0.45-1.6c0-2.1,1.183-3.883,3.55-5.35c2.333-1.467,5.15-2.2,8.45-2.2
		c-0.5,0.867-0.733,2.067-0.7,3.6c0.033,1.633-0.217,3.017-0.75,4.15L33.2,30z M182.75,188.95c-11.434,0.033-18.833-0.05-22.2-0.25
		c-2.233-0.101-3.75-0.184-4.55-0.25c-1.3-0.134-2.483-0.434-3.55-0.9c8.2,0.033,14.833-0.017,19.899-0.149
		c4.367-0.101,10.717-0.351,19.051-0.75h2.75c0.899,0.033,5.033,0.083,12.399,0.149c7.601,0.2,12.983,0.55,16.15,1.05
		c-1.101,0.767-1.783,1.2-2.05,1.301c-0.434,0-0.967,0.017-1.601,0.05c-2.5-0.167-8.25-0.25-17.25-0.25H182.75z M47.45,184.75v0.05
		c-0.3,0.733-1.067,1.517-2.3,2.351c-1.133,0.8-2.1,1.25-2.9,1.35L41,188.05l0.15-1.2c0.7-0.533,1.4-1.017,2.1-1.449
		c1.5-0.467,2.7-0.7,3.6-0.7L47.45,184.75z M47.95,189.15c0.267-0.767,0.783-1.334,1.55-1.7l1.5,2.5c-1.233,0-2.117-0.134-2.65-0.4
		L47.95,189.15z M130.4,195.4c0.033,0.899,0,1.949-0.101,3.149c-0.1,1.467-0.267,2.467-0.5,3c-0.133,0.134-0.55,0.467-1.25,1
		c-0.833,0.601-1.434,0.983-1.8,1.15c-4.333,0.366-8.767,0.434-13.3,0.2l-0.05-0.7l1.6-1.25c3.1-2.634,5.066-4.15,5.9-4.55
		c0.5-0.267,3.1-0.867,7.8-1.801L130.4,195.4z M137.4,199.55c0.5,0.4,0.75,0.884,0.75,1.45s-0.25,1.05-0.75,1.45
		c-0.5,0.399-1.117,0.6-1.851,0.6s-1.35-0.2-1.85-0.6c-0.5-0.4-0.75-0.884-0.75-1.45s0.25-1.05,0.75-1.45
		c0.5-0.399,1.116-0.6,1.85-0.6S136.9,199.15,137.4,199.55z"/>
	<path style="fill-rule:evenodd;clip-rule:evenodd;fill:#B6B2A8;" d="M144.55,184.9l0.05-0.051c0.034,0,0.067,0,0.101,0
		c0.133-0.066,0.233-0.166,0.3-0.3l0.15-0.1c11.199-1.033,18.75-2.05,22.649-3.05c3.967-1,6.967-1.601,9-1.801
		c0.9,0.767,1.65,1.301,2.25,1.601c1.101,0.533,2.3,0.684,3.601,0.45c0.633,1.033,3.949,1.916,9.949,2.649
		c4.601,0.566,8.117,0.851,10.551,0.851c0.933,0,1.5-0.517,1.699-1.551c0.867-4.199,1.317-6.383,1.351-6.55
		c0.366,0,1.217-0.116,2.55-0.35c2.134,0.8,7.434,2.883,15.9,6.25c-0.5-0.167-1.134-0.316-1.9-0.45
		c-1.934-0.366-3.417-0.566-4.45-0.6c-0.866,0.033-1.467,0.05-1.8,0.05c-2.533,0-4.116,0.133-4.75,0.399
		c-0.667,0.267-2.233,1.233-4.7,2.9c-1,0.634-2.967,1.033-5.899,1.2c-3.4,0.1-5.733,0.166-7,0.2h-2.75
		c-8.334,0.399-14.684,0.649-19.051,0.75c-5.066,0.133-11.699,0.183-19.899,0.149l-9-0.25c0.7-1.467,1.083-2.267,1.149-2.399H144.55
		z M230.1,185.55l1.5,1.25l0.25,0.351c-0.8-0.101-3.1-0.15-6.899-0.15c-2.8,0-5.65-0.366-8.55-1.1l0.449-0.75
		c0.301-0.233,0.517-0.467,0.65-0.7l0.1-0.3l2.601-0.25c0.333,0,1.2,0.133,2.6,0.399c1.367,0.267,2.217,0.4,2.55,0.4
		c0.667,0,1.351-0.2,2.051-0.601l0.899,0.45c0.134,0,0.617,0.25,1.45,0.75L230.1,185.55z"/>
	<path style="fill-rule:evenodd;clip-rule:evenodd;fill:#B2AEA3;" d="M230.45,185.75l-0.351-0.2l-0.35-0.25L230.45,185.75z
		 M28.8,35.15l-0.15,2.75c-0.467,1.067-0.867,3.083-1.2,6.05c-0.867-0.034-1.85,0.233-2.95,0.8c-0.633,0.3-1.15,0.533-1.55,0.7
		c-0.333,0.1-0.567,0.15-0.7,0.15c-1.133,0-2.1-0.25-2.9-0.75c-0.233-0.167-0.45-0.333-0.65-0.5c-0.9-1.133-1.617-1.967-2.15-2.5
		c0.1-0.2,0.6-0.883,1.5-2.05c0.067,0.567,0.367,1.067,0.9,1.5c0.667,0.534,1.55,0.8,2.65,0.8c0.433,0,1.033-0.367,1.8-1.1
		C24.3,40.167,26.1,38.217,28.8,35.15z M22.75,29.65L21.4,34.4c-0.167,0.6-0.35,1.1-0.55,1.5L22.75,29.65z M201.25,197.8
		c-3.7,0.134-7.434,0.184-11.2,0.15c-7.233-0.066-15.934-0.684-26.1-1.851c-7.334-1.866-12.384-3.166-15.15-3.899l-0.7-0.2l-0.5-0.2
		c-2.233-1.033-3.5-1.7-3.8-2c-0.033-0.033-0.116-0.25-0.25-0.649c-0.166-0.467-0.283-0.917-0.35-1.351
		c0.1-0.166,0.184-0.333,0.25-0.5l9,0.25c1.066,0.467,2.25,0.767,3.55,0.9c0.8,0.066,2.316,0.149,4.55,0.25
		c7.134,1.899,11.617,2.85,13.45,2.85c0.533,0,1.767-0.25,3.7-0.75c2.333-0.6,4.017-1.217,5.05-1.85h19.05
		c0.2,1.1,0.233,1.816,0.101,2.149c-0.267,0.634-1.084,0.95-2.45,0.95c-1.367-0.066-4.233-0.1-8.601-0.1l-2.3,0.1l0.15,0.05
		l-4.5,0.9c4,0.066,7.35,0.316,10.05,0.75c0.167,0.066,1.217,0.733,3.15,2C199.2,196.917,200.483,197.6,201.25,197.8z M149.4,196.8
		l-2.5-0.45l1.25,0.2L149.4,196.8z M35.95,23.15v0.05l-0.15,0.45L35.95,23.15z M25.15,62.75l-0.1,0.15
		c-1.333-1.533-2.367-2.967-3.1-4.3l-0.8-1.35c1.1,0,2.05,0.533,2.85,1.6C24.767,59.917,25.15,61.217,25.15,62.75z M43.6,53
		l0.25-0.25l-0.15,0.2L43.6,53z M38.9,191.1c0.6,0.301,2.117,0.617,4.55,0.95c2.2,0.3,3.667,0.45,4.4,0.45
		c0.667,0,1.2-0.033,1.6-0.1c-0.4,0.166-1.567,0.816-3.5,1.949c-1.733,1-2.733,1.5-3,1.5c-0.2,0-0.7-0.149-1.5-0.449
		c-0.733-0.267-1.333-0.517-1.8-0.75c-0.066-0.301-0.15-0.65-0.25-1.051C39.067,192.267,38.9,191.434,38.9,191.1z M39.95,195.65
		l0.7,0.949c0.267,0.233,0.533,0.45,0.8,0.65c-0.3-0.2-0.583-0.417-0.85-0.65l-0.55-0.649
		C40.017,195.884,39.983,195.783,39.95,195.65z M49.25,185l2.9,0.7l2.4,0.7l4.45,1.5c-0.5-0.067-1.383-0.317-2.65-0.75
		c-1.5-0.534-3.267-1.067-5.3-1.601c-1.3-0.333-2.316-0.566-3.05-0.7L49.25,185z M134.75,195.25l2.7,0.05l6.399,0.65
		c-0.899,0-1.449,0.283-1.649,0.85c-0.167,0.4-0.167,0.934,0,1.601c-1-1.167-1.55-1.767-1.65-1.801
		C139.283,196.4,137.35,195.95,134.75,195.25z M129.8,201.55c1.4-0.066,2.15,0.15,2.25,0.65c-0.233,0.633-0.967,1.8-2.2,3.5
		c-1.366,0.133-2.649,0.383-3.85,0.75c-1.7,0.5-2.7,0.783-3,0.85c0.667-0.2,1.134-0.434,1.4-0.7c0.333-0.3,1.116-1.267,2.35-2.899
		c0.366-0.167,0.967-0.55,1.8-1.15C129.25,202.017,129.667,201.684,129.8,201.55z M161.1,207.85L160.9,204.9
		c0.133,0.333,0.216,0.8,0.25,1.399C161.184,206.934,161.167,207.45,161.1,207.85z M160.35,199.9l-4.75-1.551l1.601,0.45
		L160.35,199.9z M129.45,207.1l0.05,0.551c3,0.466,4.866,0.017,5.6-1.351c0.301-0.8,0.517-1.383,0.65-1.75
		c0.267-0.7,0.634-1.166,1.1-1.399c0.134,0,1.034-0.034,2.7-0.101c1.7-0.267,2.75-1.05,3.15-2.35l1.85,5.6
		c0,0.667-0.083,0.816-0.25,0.45c-0.3,0.1-1.633,0.267-4,0.5c-2.366,0.267-3.8,0.483-4.3,0.65c-0.333,0.899-0.467,1.866-0.4,2.899
		c-0.333,0.601-1.966,0.9-4.899,0.9c-1.367,0-2.334-0.167-2.9-0.5c-0.6-0.334-0.899-0.917-0.899-1.75c0-0.101,0.25-0.384,0.75-0.851
		C128.217,208.033,128.816,207.533,129.45,207.1z M117.5,215.45c-2.033-1.2-3.383-1.983-4.05-2.351
		c-1.067-0.6-2.083-0.899-3.05-0.899c-0.133,0-0.45,0.116-0.95,0.35c-0.667,0.3-1.2,0.617-1.6,0.95
		c-0.267-0.5-0.483-1.017-0.65-1.55c0.066-2.066,0.617-3.533,1.65-4.4c1.9,0.066,5.733,0.117,11.5,0.15
		c-0.199,0-1.216,0.25-3.05,0.75c-1.733,0.5-2.85,0.833-3.35,1l0.4,0.399c0.867,0,1.617,0.551,2.25,1.65
		C117.2,212.6,117.5,213.917,117.5,215.45z M171.95,199.95c-2.934-1.533-5.017-2.584-6.25-3.15c1.366,0.566,2.533,1.117,3.5,1.65
		C170.434,199.116,171.35,199.616,171.95,199.95z"/>
	<path style="fill-rule:evenodd;clip-rule:evenodd;fill:#8B897F;" d="M230.1,185.55l0.351,0.2l1.149,1.05L230.1,185.55z
		 M175.45,201.75l-2.75-1.4l-3.2-2.899c4.033,0.267,7.917,1.217,11.65,2.85c3.433,1.5,6.366,2.25,8.8,2.25
		c2.8,0,5.55-0.35,8.25-1.05c2.6-0.7,4.383-1.5,5.35-2.4c-1.5-0.866-2.267-1.3-2.3-1.3c-0.767-0.2-2.05-0.883-3.85-2.05
		c-1.934-1.267-2.983-1.934-3.15-2c-0.267-0.1-2.116-0.65-5.55-1.65l-0.15-0.05l2.3-0.1c1.167,0.133,4.101,0.45,8.801,0.95
		c1.966,0.233,3.649,0.35,5.05,0.35c0.967,0,1.684-0.417,2.149-1.25c0.534-0.9,1.351-1.434,2.45-1.6c1.767-0.267,3.9-0.317,6.4-0.15
		c1.566,0.066,2.767-0.2,3.6-0.8l-0.25-0.25c0.634-0.033,1.167-0.05,1.601-0.05c0.267-0.101,0.949-0.534,2.05-1.301
		c0.934,0.134,4.184,0.684,9.75,1.65c0.066,0.5-0.101,1.134-0.5,1.9l-0.851-0.15c-3.466,0.333-9.649,1.267-18.55,2.8
		c0.033,0.066,0.217,0.417,0.55,1.05c0.301,0.534,0.45,1,0.45,1.4c0,0.833-0.7,1.4-2.1,1.7c-1.167,0.233-3.15,0.35-5.95,0.35
		c-0.1,0.467-0.15,1.267-0.15,2.4c-0.033,0.733-0.183,1.25-0.449,1.55c-0.733,0.767-3.567,1.15-8.5,1.15
		c-3.267,0-6.851-0.467-10.75-1.4c-3.934-0.934-6.467-1.4-7.601-1.4c-0.5,0-1,0.101-1.5,0.301
		C176.017,201.316,175.65,201.517,175.45,201.75z M22.95,45.45c3.1,0.367,4.983,0.7,5.65,1l-0.4,0.65c-0.267,0.066-0.95,0.4-2.05,1
		c-0.6,0.333-1.917,0.5-3.95,0.5l-5.65-0.1v-0.05c-0.367-1.733-0.517-3.317-0.45-4.75c0.767,0.433,1.85,0.816,3.25,1.15
		c0.8,0.5,1.767,0.75,2.9,0.75C22.383,45.6,22.617,45.55,22.95,45.45z M33.8,44.55l-0.1-3.45c-0.7,0.967-1.733,2.816-3.1,5.55l0.1-2
		c0.767-1.5,1.167-3.733,1.2-6.7c0.033-3.2,0.467-5.85,1.3-7.95l1.5,0.15c0.667-3.133,1.083-5.45,1.25-6.95v-0.05l0.1-2.5l0.5,0.05
		v0.05c0.267,1.833,0.267,5.483,0,10.95c0.034,4.6,0.967,6.9,2.8,6.9c0.867,0,1.9-0.65,3.1-1.95c1.233-1.367,2.6-2.133,4.1-2.3
		c0.4,3.167,0.6,5.2,0.6,6.1c0,0.633-0.117,1.883-0.35,3.75c-0.267,2.066-0.533,3.6-0.8,4.6l-0.7,1.55
		c-0.2-0.434-0.483-2.2-0.85-5.3c-0.3-2.367-0.483-4.017-0.55-4.95c-1.333,0.566-2.5,1.933-3.5,4.1c-1.3,2.767-2.316,4.55-3.05,5.35
		l-1.3,0.05l0.1-4.2c0-0.6-0.167-1.233-0.5-1.9C35.05,44.033,34.433,44.383,33.8,44.55z M160.55,188.7
		c3.367,0.2,10.767,0.283,22.2,0.25c-1.033,0.633-2.717,1.25-5.05,1.85c-1.934,0.5-3.167,0.75-3.7,0.75
		C172.167,191.55,167.684,190.6,160.55,188.7z M30,49.85c-0.067,1.4-0.117,3.95-0.15,7.65c-0.5,3.1-2.067,4.85-4.7,5.25
		c0-1.533-0.383-2.833-1.15-3.9c-0.8-1.067-1.75-1.6-2.85-1.6L20.9,57c-0.133-0.2-0.333-0.35-0.6-0.45
		c-0.533-0.133-1.05-0.333-1.55-0.6l0.45-1.65l-1.7-3.25c0.033,0.034,2.15,2.483,6.35,7.35c1.066,1.2,2.066,1.8,3,1.8
		c0.333-0.4,0.75-0.784,1.25-1.15c-0.167-0.9-1.5-2.167-4-3.8c-2.667-1.767-4.217-3.133-4.65-4.1c0.033-0.633,0.667-0.25,1.9,1.15
		c1.633,1.8,2.667,2.817,3.1,3.05c0.066-2.033,0.85-3.383,2.35-4.05C28.5,50.867,29.567,50.383,30,49.85z M56.35,188.9
		c-0.033,2.366-0.083,3.75-0.15,4.149l0.8,0.2l0.5,0.1v1.5L57,194.7l-1.05-0.25l-0.1,0.399c-0.033,0.134-0.333,0.667-0.9,1.601
		c-0.534,0.866-0.883,1.399-1.05,1.6h-0.05l-0.05,0.05c-0.2,0.101-0.417,0.2-0.65,0.301c-1.533,0.366-2.633,0.55-3.3,0.55
		c-3.3,0-5.833-0.384-7.6-1.15l-0.8-0.55c-0.267-0.2-0.534-0.417-0.8-0.65c2.967,1.167,5.6,0.967,7.9-0.6
		c0.934-0.667,2.467-2.316,4.6-4.95c0.167-0.166,0.733-0.816,1.7-1.95c0.867-1.1,1.367-1.75,1.5-1.949
		c1.267,0.433,2.15,0.683,2.65,0.75l-2.65,0.649V188.9z M155.6,198.35l4.75,1.551v4l0.2,0.3c0,0.033,0.017,0.066,0.05,0.1
		c0.101,0.7-0.017,1.517-0.35,2.45s-0.767,1.667-1.3,2.2c-0.733-0.733-1.267-1.184-1.601-1.351c0.2-0.066,0.434-0.133,0.7-0.199
		c0.2-0.134,0.3-0.417,0.3-0.851c0-0.666-0.949-3.333-2.85-8L155.6,198.35z M126,220.45c1.733,0.066,4.983,0.333,9.75,0.8l3.25-0.1
		l0.05-0.601c-0.566-0.666-1.934-1.366-4.1-2.1c-2.834-0.934-4.334-1.434-4.5-1.5c0.066-0.066,2.233-0.816,6.5-2.25
		c4.434-1.5,7.267-2.7,8.5-3.601v0.851l-0.3,0.8c-1.267,1.733-2.801,2.833-4.601,3.3l0.4,0.05l4.8,0.2c2.6,0,4.233-1.133,4.9-3.399
		c0.6-2.134,1.316-3.634,2.149-4.5l3.95,0.3c0,0.1,0.05,0.25,0.15,0.45c0.066,0.233,0.1,0.533,0.1,0.899
		c0,1.334-0.566,2.367-1.7,3.101c-0.2,0.1-1.95,0.866-5.25,2.3c0.267,0.233,1.084,0.684,2.45,1.35c1.267,0.667,2.1,1.217,2.5,1.65
		c-1.066,0.967-3.184,1.75-6.35,2.35c-3.067,0.566-6.4,0.851-10,0.851c-2.767,0-4.983-0.067-6.65-0.2
		C130.1,221.25,128.1,220.917,126,220.45z M113.35,217.8l-0.15-0.1l-0.35-0.2l-1.8-1.05L109.2,215h0.05
		c0.567,0,1.983,0.083,4.25,0.25s3.6,0.233,4,0.2c0-1.533-0.3-2.851-0.9-3.95c-0.633-1.1-1.383-1.65-2.25-1.65
		c3.833-0.433,6.433-0.8,7.8-1.1c0.733-0.167,1.333-0.25,1.8-0.25v0.75c-0.233,0.667-0.816,1.217-1.75,1.65
		c-1.167,0.533-1.851,0.899-2.05,1.1l0.149,0.5c0.967,0.467,2.117,1,3.45,1.6c0.866,0.467,1.3,0.884,1.3,1.25
		c0,0.334-1.35,1.267-4.05,2.801c-1.733-1.101-2.717-1.65-2.95-1.65c-0.3,0-0.983,0.15-2.05,0.45
		C114.867,217.25,113.983,217.533,113.35,217.8z"/>
	<path style="fill-rule:evenodd;clip-rule:evenodd;fill:#C2BEB3;" d="M145.15,184.45c0.533-0.334,1.933-0.967,4.199-1.9
		c2.601-1.066,4.117-1.7,4.551-1.899l0.55-0.25c0.533,0,3.434-0.351,8.7-1.051c4.966-0.633,9.3-0.949,13-0.949
		c0.666,0,0.883,0.399,0.649,1.199c-2.033,0.2-5.033,0.801-9,1.801C163.9,182.4,156.35,183.417,145.15,184.45z M206.2,177.05
		c-0.033,0.167-0.483,2.351-1.351,6.55c-0.199,1.034-0.767,1.551-1.699,1.551c-2.434,0-5.95-0.284-10.551-0.851
		c-6-0.733-9.316-1.616-9.949-2.649c6.199,0.133,10.35-0.233,12.449-1.101C199.4,178.85,203.1,177.684,206.2,177.05z"/>
	<path style="fill-rule:evenodd;clip-rule:evenodd;fill:#7C7367;" d="M171.95,199.95c0.399,0.2,0.649,0.333,0.75,0.399l2.75,1.4
		c1.833,0.934,5.434,2.167,10.8,3.7c6.1,1.733,10.35,2.55,12.75,2.45c0.267,2.933,0.45,5.85,0.55,8.75
		c-0.434,2.233-1.399,3.666-2.899,4.3c-1.567,0.7-4.034,0.649-7.4-0.15l-0.7-0.35c-0.267-0.167-0.616-0.483-1.05-0.95
		c-1-1.066-1.983-2.083-2.95-3.05c-0.166-0.434-0.316-0.7-0.45-0.8c0.5-0.101,0.934-0.317,1.301-0.65
		c0.399-0.333,0.933-0.95,1.6-1.85c-1.2-1.4-2.217-2.434-3.05-3.101c-0.134-0.1-0.533-0.184-1.2-0.25
		c-0.833-0.133-1.667-0.166-2.5-0.1l-2.5,0.55v3.2l0.1,0.3c0.167,0.2,0.45,0.3,0.851,0.3c0.333,0,0.649-0.116,0.95-0.35
		c0.267-0.267,0.566-0.4,0.899-0.4c0.733,0,1.117,0.217,1.15,0.65c0.033,0.6,0.399,1.066,1.1,1.399l-0.7-0.25
		c-2.1-0.333-3.433-0.449-4-0.35c-0.533,0.267-1.1,0.483-1.699,0.65c0,1.1-0.601,2.066-1.801,2.899c-0.166,0.101-0.333,0.2-0.5,0.3
		c-1.566,0.867-3.433,1.301-5.6,1.301c-1.467-0.534-2.583-0.801-3.35-0.801c-0.534,0-2.217,0.667-5.051,2
		c-2.899,1.367-4.683,2.067-5.35,2.101c2.9-2.634,4.667-5.101,5.3-7.4c0.167-2.366,0.367-4.133,0.601-5.3
		c0.267-0.3,0.433-0.616,0.5-0.95c0.399-1.899,1.017-4.666,1.85-8.3c1.467,0.3,2.533,0.5,3.2,0.6c0.566,0.067,1.267,0.101,2.1,0.101
		c-0.399,5.233-0.033,8.566,1.101,10c0.399,0.5,0.983,0.866,1.75,1.1c0.433,0.134,1.1,0.316,2,0.55
		c0.066-3.433,0.166-6.116,0.3-8.05h0.649l-1.699-1.1c-1.067,0-1.983-0.233-2.75-0.7c-0.767-0.5-1.15-1.1-1.15-1.8l-0.1-0.75H168.3
		c-1.767-1.267-4.483-2.533-8.149-3.8c-4.167-1.434-6.384-2.217-6.65-2.351l0.5,2.851l-4.6-1.101l-1.25-0.25
		c0.366-1.1,0.583-2.55,0.649-4.35c2.767,0.733,7.816,2.033,15.15,3.899l1.75,0.7C166.934,197.366,169.017,198.417,171.95,199.95z
		 M144.75,228.25c-0.033,0.5-0.1,1.917-0.2,4.25c-0.833,1.134-1.416,2.2-1.75,3.2c-0.399,1.133-0.6,2.434-0.6,3.899
		c0,0.667,0.149,2.5,0.45,5.5l-0.65,0.15l-0.1-2.25l-0.101,2.3c-1.3,0.334-2.616,0.584-3.95,0.75
		c-0.733-6.666-1.116-10.333-1.149-11l0.75-0.1c0.066-0.467,0.1-1.033,0.1-1.7c0-0.467-0.033-0.733-0.1-0.8
		c-0.033-0.033-0.283-0.134-0.75-0.3v-2.75c-0.601,0.267-1.017,0.583-1.25,0.949c-0.467,0.7-0.717,1.067-0.75,1.101
		c-0.3,0.267-0.65,0.434-1.05,0.5l-0.2-0.95c0-0.833-0.184-1.533-0.55-2.1c-0.4-0.601-0.867-0.9-1.4-0.9l-0.25-0.05L131,227.85
		l-1.9-0.649l-2-0.25l-2.774,0.149H123.6c1.034-1.199,1.834-1.966,2.4-2.3c1.033-0.6,2.316-0.783,3.85-0.55
		c0.767,0.167,2.267,0.4,4.5,0.7c0.801,0.233,1.551,0.366,2.25,0.399c0.634,0.034,1.084,0,1.351-0.1h0.1
		c1.367,0.967,2.434,2.083,3.2,3.35c0.967,1.634,1.366,3.351,1.2,5.15l0.3-0.9c0.1-0.433,0.417-1.25,0.95-2.449
		C144.167,229.3,144.517,228.583,144.75,228.25z M93.4,249.7c1.2-2.066,1.867-4.4,2-7c0.133-2.134,0.867-3.9,2.2-5.3
		c2.933-2.934,4.6-4.834,5-5.7l0.25-0.851c0.433,0.534,0.783,2.017,1.05,4.45c0.267,2.8,0.217,5.667-0.15,8.601
		c-0.7,0.199-2.2,1.433-4.5,3.699C97.383,249.434,95.433,250.134,93.4,249.7z M91.75,249.6c-0.4,0.334-1.117,1.067-2.15,2.2
		l-0.6-0.7l-0.7-1.5c-0.267-1.333-0.9-3.017-1.9-5.05c-0.8-1.6-1.5-2.8-2.1-3.6c0.1-12-0.233-19.834-1-23.5
		c-1.1-2.967-2.133-6.134-3.1-9.5c0.733,0.8,1.617,1.616,2.65,2.45c0.667,0.533,1.066,1.083,1.2,1.649
		c0.034,0.134,0.15,3.117,0.35,8.95c0-1.267,0.033-2.35,0.1-3.25c0.367-4.267,2.317-5.434,5.85-3.5c-0.4,2.066-0.6,4.05-0.6,5.95
		c0,1.3,0.433,4.7,1.3,10.2c0.833,5.5,1.25,8.517,1.25,9.05c0,0.967-0.083,2.717-0.25,5.25C91.85,247.233,91.75,248.866,91.75,249.6
		z M68.2,230c-0.767-1.1-1.25-1.917-1.45-2.45c-0.2,0.767-0.35,2.033-0.45,3.8c-0.133,1.801-0.267,3.017-0.4,3.65
		c0.233-8.767,0.517-15.9,0.85-21.4c0,2.367,0.183,5.301,0.55,8.801C67.5,224.333,67.8,226.866,68.2,230z M80.1,207.6
		c-0.3-0.966-0.583-1.966-0.85-3c0,1.067-0.083,2.351-0.25,3.851l-0.25,1.45c-0.433-1.7-0.633-3.301-0.6-4.801
		c0.067-2.6-0.483-7.916-1.65-15.949c0.067,0,1.25,0.333,3.55,1c2.534,0.699,5.083,1.283,7.65,1.75
		c0.267,2.399,1.066,6.8,2.4,13.199c0.133-1.833,0.2-4.133,0.2-6.899c-0.033-3-0.066-5.084-0.1-6.25l8.9-0.25
		c-0.133,2.333,0,5.833,0.4,10.5l0.25,0.149c0.167,0.233,0.35,0.617,0.55,1.15c0.434-0.566,1.15-2.65,2.15-6.25
		c0.933-3.566,1.417-5.45,1.45-5.65l6.1-0.149c-0.5,3.366-1.283,6.767-2.35,10.2c-1.4,4.466-2.316,7.649-2.75,9.55
		c-2.533-0.634-4.167-0.95-4.9-0.95c-1.3,0-2.533,0.3-3.7,0.9c-1.4,0.767-2.583,1.233-3.55,1.399l-0.05-2.2l-1.55,1.9
		c-1.333-0.634-2.933-1.75-4.8-3.35c-1.133-0.967-2.533-1.45-4.2-1.45L80.8,207.6H80.1z M40.6,196.6
		c0.767,0.967,2.316,2.051,4.65,3.25c1.4,0.733,2.2,2.317,2.4,4.75c-0.133,0.101-0.316,0.2-0.55,0.301
		c-0.2,0.166-0.3,0.466-0.3,0.899c0,0.667,0.233,6.05,0.7,16.15c-0.1-0.167-0.6-0.717-1.5-1.65c-0.933-1-1.5-1.566-1.7-1.7
		c0.833-8.533,1.25-13.683,1.25-15.449c0-1.134-0.333-1.817-1-2.051c-0.7,0.034-1.083,0.034-1.15,0c-0.933,0-1.717-0.5-2.35-1.5
		c-0.667-1-1-2.216-1-3.649L40.6,196.6z M27.7,226l-0.35-0.05V206.8c0.367-11.967,0.6-25.899,0.7-41.8
		c0.067-12.1,0.2-19.15,0.4-21.15c0.2,3.167,0.533,6.334,1,9.5c0.566,3.634,0.9,5.95,1,6.95l0.2,2.55l0.45,3.65
		c0.533,2,0.95,3.384,1.25,4.15c0.2,3.633,0.517,8.566,0.95,14.8c0.333,5.3,0.5,9.75,0.5,13.35c0,1.9-0.417,5.25-1.25,10.05
		c-0.833,4.801-1.25,8.334-1.25,10.601l0.1,3.1c0,0.967-0.35,1.783-1.05,2.45C29.617,225.667,28.733,226,27.7,226z M17.65,88.9
		l0.15-0.3L17.75,88c0.633-4.767,0.983-7.683,1.05-8.75l1-0.1c0.333,0,1.717,0.55,4.15,1.65c2.566,1,4.483,1.317,5.75,0.95
		l-0.05,2.55c-1.5-0.133-3.566,0.284-6.2,1.25c-2.633,0.934-4.517,1.95-5.65,3.05c0.133,1.066,0.4,2.767,0.8,5.1
		c0.066,0.3,0.2,1.35,0.4,3.15c0.2,1.733,0.433,2.983,0.7,3.75l0.55,1.9c-4.033-3-6.983-8.667-8.85-17
		C10.133,77,9.183,71.95,8.55,70.35c0.367-5.2,0.55-8.133,0.55-8.8c0-0.333-0.133-1.617-0.4-3.85c-0.3-2.267-0.45-3.567-0.45-3.9
		c0-1.066,0.267-1.983,0.8-2.75c0.8-1.133,2.034-1.6,3.7-1.4l1.35,0.1l0.45,16.6l-1.4-10.85c0.167,3.8,0.1,6.117-0.2,6.95
		c-0.2,0.533-1.117,1.417-2.75,2.65l0.2,3.65l0.9-0.05c1.767,0,2.7,1.367,2.8,4.1c0.066,1.667-0.05,4.733-0.35,9.2
		c0,1.9,0.333,4.3,1,7.2c0.533,2.3,1.05,4.1,1.55,5.4l0.25,0.25c0.3-0.333,0.567-1.383,0.8-3.15C17.55,89.933,17.65,89,17.65,88.9z
		 M148.1,192l-1.399,1.9c0.467-0.834,0.767-1.534,0.899-2.101L148.1,192z M28.05,71c-0.267-0.167-0.45-0.3-0.55-0.4
		c-0.2-0.333-0.467-0.75-0.8-1.25c-1.534-1.833-2.733-3.333-3.6-4.5c-1.567-2.1-2.35-3.983-2.35-5.65c0-0.667,0.05-1.4,0.15-2.2
		l0.25,0.25l0.8,1.35c-0.067,0.1-0.184,0.2-0.35,0.3c-0.1,0.133-0.15,0.417-0.15,0.85s1.183,2.033,3.55,4.8
		c2.533,2.9,3.967,4.917,4.3,6.05v0.95l-0.15-0.8C28.783,70.95,28.417,71.033,28.05,71z M15.75,118.85c0.1-0.1,0.333-0.15,0.7-0.15
		l4.3,4.2c2.9,2.767,4.483,4.15,4.75,4.15c1.2-0.566,2.267-1.433,3.2-2.6l0.05,2.899c-0.2,0.267-0.55,0.601-1.05,1
		c-1.934,1.167-3.583,2.284-4.95,3.351c-0.633,0.5-1.167,0.75-1.6,0.75c-0.233,0-0.816-1-1.75-3c-0.933-1.967-2.417-2.883-4.45-2.75
		l-0.75,0.85l0.2-0.45c0.167-0.5,0.35-1.7,0.55-3.6c0.167-1.933,0.433-3.45,0.8-4.55C15.717,118.917,15.717,118.883,15.75,118.85z
		 M54.55,186.4l-2.4-0.7l0.55-0.5l0.3-0.25L54.55,186.4z M128.7,195.6c-0.167-1.433-0.5-3.083-1-4.949l2.35-0.15
		c0,0.167,0.351,1.783,1.05,4.85L130.4,195.4L128.7,195.6z M134.75,195.25l-1.65,0.05c-0.1-2.399-0.166-4.05-0.199-4.95l3.25-0.149
		l1.3,5.1L134.75,195.25z M52.8,203.5l-1.55-0.1c0.267-0.2,0.533-0.434,0.8-0.7c1.2-1.3,1.8-2.834,1.8-4.601v-0.05h0.05
		c0.167-0.2,0.517-0.733,1.05-1.6c0.566-0.934,0.867-1.467,0.9-1.601l0.1-0.399L57,194.7c0.1,1.6-0.117,3.233-0.65,4.899
		C55.617,202,54.433,203.3,52.8,203.5z M56.35,188.9c0.433,1.233,0.65,2.683,0.65,4.35l-0.8-0.2
		C56.267,192.65,56.317,191.267,56.35,188.9z M145.35,196.1c-0.1-0.033-0.199-0.05-0.3-0.05l0.75-0.85L145.35,196.1z M114.1,218.2
		c0.333,1.233,0.65,2.166,0.95,2.8c-0.5,0-0.933-0.316-1.3-0.95c-0.367-0.666-0.55-1.45-0.55-2.35l0.15,0.1L114.1,218.2z
		 M138.95,228.9c0.233,5.767,0.366,8.816,0.399,9.149l0.101,0.45c0.833-2.3,1.383-4.184,1.649-5.65
		C141.566,230.083,140.85,228.767,138.95,228.9z M99.8,214.75c-0.267,4.434-0.517,7.6-0.75,9.5l-0.4,0.7l-1.75-9.15L99.8,214.75z
		 M95.7,216.45c-0.034,1.066,0.033,4.217,0.2,9.45c0,1.199-0.267,2.616-0.8,4.25c-0.4,1.333-0.833,2.383-1.3,3.149
		c-0.433-8.967-0.733-14.399-0.9-16.3c0.1,0.1,0.167,0.2,0.2,0.3c0.066,0.101,0.3,0.15,0.7,0.15c0.434,0,0.8-0.117,1.1-0.351
		C95.233,216.833,95.5,216.616,95.7,216.45z"/>
	<path style="fill-rule:evenodd;clip-rule:evenodd;fill:#A7A499;" d="M16.55,41.85c0.534,0.533,1.25,1.367,2.15,2.5
		c0.2,0.167,0.417,0.333,0.65,0.5c-1.4-0.333-2.483-0.717-3.25-1.15C16.333,42.4,16.483,41.783,16.55,41.85z M38.4,21l-1.75-0.25
		V20.7L38.4,21z M172.7,200.35c-0.101-0.066-0.351-0.199-0.75-0.399c-0.601-0.334-1.517-0.834-2.75-1.5
		c-0.967-0.533-2.134-1.084-3.5-1.65l-1.75-0.7c10.166,1.167,18.866,1.784,26.1,1.851c3.767,0.033,7.5-0.017,11.2-0.15
		c0.033,0,0.8,0.434,2.3,1.3c-0.967,0.9-2.75,1.7-5.35,2.4c-2.7,0.7-5.45,1.05-8.25,1.05c-2.434,0-5.367-0.75-8.8-2.25
		c-3.733-1.633-7.617-2.583-11.65-2.85L172.7,200.35z M154,197.9l1.6,0.449l-0.1,0.2c1.9,4.667,2.85,7.334,2.85,8
		c0,0.434-0.1,0.717-0.3,0.851c-0.267,0.066-0.5,0.133-0.7,0.199c-0.466-0.1-1.083-0.133-1.85-0.1s-1.384,0.116-1.85,0.25l-1,0.65
		h0.149c-0.833,0.866-1.55,2.366-2.149,4.5c-0.667,2.267-2.301,3.399-4.9,3.399l-4.8-0.2l-0.4-0.05c1.8-0.467,3.334-1.566,4.601-3.3
		l0.3-0.8V211.1c-1.233,0.9-4.066,2.101-8.5,3.601c-4.267,1.434-6.434,2.184-6.5,2.25c0.166,0.066,1.666,0.566,4.5,1.5
		c2.166,0.733,3.533,1.434,4.1,2.1L139,221.15l-3.25,0.1c-4.767-0.467-8.017-0.733-9.75-0.8c-0.2-0.033-1.05-0.4-2.55-1.101
		c-1.4-0.666-2.217-1.066-2.45-1.199c2.7-1.534,4.05-2.467,4.05-2.801c0-0.366-0.434-0.783-1.3-1.25
		c-1.333-0.6-2.483-1.133-3.45-1.6l-0.149-0.5c0.199-0.2,0.883-0.566,2.05-1.1c0.934-0.434,1.517-0.983,1.75-1.65v-0.75
		c-0.467,0-1.066,0.083-1.8,0.25c-1.367,0.3-3.967,0.667-7.8,1.1l-0.4-0.399c0.5-0.167,1.617-0.5,3.35-1
		c1.834-0.5,2.851-0.75,3.05-0.75c0.967-0.066,1.851-0.2,2.65-0.4c0.3-0.066,1.3-0.35,3-0.85c1.2-0.367,2.483-0.617,3.85-0.75
		l-0.399,1.399c-0.634,0.434-1.233,0.934-1.8,1.5c-0.5,0.467-0.75,0.75-0.75,0.851c0,0.833,0.3,1.416,0.899,1.75
		c0.566,0.333,1.533,0.5,2.9,0.5c2.934,0,4.566-0.3,4.899-0.9c-0.066-1.033,0.067-2,0.4-2.899c0.5-0.167,1.934-0.384,4.3-0.65
		c2.367-0.233,3.7-0.4,4-0.5c0.167,0.366,0.25,0.217,0.25-0.45l-1.85-5.6c-0.066-0.8-0.233-1.566-0.5-2.3
		c-0.167-0.667-0.167-1.2,0-1.601c0.2-0.566,0.75-0.85,1.649-0.85l1.2,0.1c0.101,0,0.2,0.017,0.3,0.05l1.551,0.25l2.5,0.45
		L154,197.9z M188.7,192.1c3.434,1,5.283,1.551,5.55,1.65c-2.7-0.434-6.05-0.684-10.05-0.75L188.7,192.1z M201.8,188.95
		c9,0,14.75,0.083,17.25,0.25l0.25,0.25c-0.833,0.6-2.033,0.866-3.6,0.8c-2.5-0.167-4.634-0.116-6.4,0.15
		c-1.1,0.166-1.916,0.699-2.45,1.6c-0.466,0.833-1.183,1.25-2.149,1.25c-1.4,0-3.084-0.116-5.05-0.35
		c-4.7-0.5-7.634-0.817-8.801-0.95c4.367,0,7.233,0.033,8.601,0.1c1.366,0,2.184-0.316,2.45-0.95
		C202.033,190.767,202,190.05,201.8,188.95z M41.8,21.8c0.567,0.3,1.083,0.65,1.55,1.05l0.1,0.15l0.4,0.55l0.4,0.9
		c-0.133-0.2-0.533-0.667-1.2-1.4C42.383,22.317,41.967,21.9,41.8,21.8z M33.75,28.25c0.533-0.967,1.217-2.5,2.05-4.6l0.15-0.45
		c-0.167,1.5-0.583,3.816-1.25,6.95L33.2,30L33.75,28.25z M30.6,46.65c-0.3,1.133-0.5,2.2-0.6,3.2c-0.433,0.533-1.5,1.017-3.2,1.45
		c-1.5,0.667-2.283,2.017-2.35,4.05c-0.434-0.233-1.467-1.25-3.1-3.05c-1.233-1.4-1.867-1.783-1.9-1.15
		c0.433,0.967,1.983,2.333,4.65,4.1c2.5,1.633,3.833,2.9,4,3.8c-0.5,0.367-0.917,0.75-1.25,1.15c-0.934,0-1.934-0.6-3-1.8
		c-4.2-4.867-6.317-7.316-6.35-7.35l-0.95-2.55l5.65,0.1c2.033,0,3.35-0.167,3.95-0.5c1.1-0.6,1.783-0.934,2.05-1l0.4-0.65
		c-0.667-0.3-2.55-0.633-5.65-1c0.4-0.167,0.917-0.4,1.55-0.7c1.1-0.567,2.083-0.833,2.95-0.8c0.333-2.967,0.733-4.983,1.2-6.05
		c0.3,3.6,0.667,5.767,1.1,6.5c0.233,0.367,0.533,0.517,0.9,0.45l0.05-0.2L30.6,46.65z M49.45,192.4l3.7-1.351
		c-2.133,2.634-3.667,4.283-4.6,4.95c-2.3,1.566-4.933,1.767-7.9,0.6l-0.7-0.949L39.9,195.6l-0.6-1.149
		c0.1,0.066,0.217,0.133,0.35,0.2c0.467,0.233,1.067,0.483,1.8,0.75c0.8,0.3,1.3,0.449,1.5,0.449c0.267,0,1.267-0.5,3-1.5
		C47.883,193.217,49.05,192.566,49.45,192.4z M109.2,215l-1.35-1.5c0.4-0.333,0.933-0.65,1.6-0.95c0.5-0.233,0.816-0.35,0.95-0.35
		c0.967,0,1.983,0.3,3.05,0.899c0.667,0.367,2.017,1.15,4.05,2.351c-0.4,0.033-1.733-0.033-4-0.2s-3.683-0.25-4.25-0.25H109.2z"/>
	<path style="fill-rule:evenodd;clip-rule:evenodd;fill:#938F86;" d="M227.4,184.1c-0.7,0.4-1.384,0.601-2.051,0.601
		c-0.333,0-1.183-0.134-2.55-0.4c-1.399-0.267-2.267-0.399-2.6-0.399l-2.601,0.25l-0.1,0.3c-0.134,0.233-0.35,0.467-0.65,0.7
		l-0.449,0.75c2.899,0.733,5.75,1.1,8.55,1.1c3.8,0,6.1,0.05,6.899,0.15c0.101,0.133,0.233,0.433,0.4,0.899
		c0.167,0.566,0.233,1.05,0.2,1.45c-5.566-0.967-8.816-1.517-9.75-1.65c-3.167-0.5-8.55-0.85-16.15-1.05
		c-7.366-0.066-11.5-0.116-12.399-0.149c1.267-0.034,3.6-0.101,7-0.2c2.933-0.167,4.899-0.566,5.899-1.2
		c2.467-1.667,4.033-2.634,4.7-2.9c0.634-0.267,2.217-0.399,4.75-0.399c0.333,0,0.934-0.017,1.8-0.05
		c1.033,0.033,2.517,0.233,4.45,0.6c0.767,0.134,1.4,0.283,1.9,0.45c0.033,0.033,0.083,0.066,0.149,0.1
		c0.101,0.033,0.184,0.066,0.25,0.101c0.4,0.199,0.667,0.3,0.8,0.3L227.4,184.1z"/>
	<path style="fill-rule:evenodd;clip-rule:evenodd;fill:#68665F;" d="M199,207.9c-2.4,0.1-6.65-0.717-12.75-2.45
		c-5.366-1.533-8.967-2.767-10.8-3.7c0.2-0.233,0.566-0.434,1.1-0.6c0.5-0.2,1-0.301,1.5-0.301c1.134,0,3.667,0.467,7.601,1.4
		c3.899,0.934,7.483,1.4,10.75,1.4c4.933,0,7.767-0.384,8.5-1.15c0.267-0.3,0.416-0.816,0.449-1.55c0-1.134,0.051-1.934,0.15-2.4
		c2.8,0,4.783-0.116,5.95-0.35c1.399-0.3,2.1-0.867,2.1-1.7c0-0.4-0.149-0.866-0.45-1.4c-0.333-0.633-0.517-0.983-0.55-1.05
		c8.9-1.533,15.084-2.467,18.55-2.8l0.851,0.15c-2.7,1.899-7,4.216-12.9,6.949c-7.967,3.733-14.25,6.851-18.85,9.351L199,207.9z
		 M160.9,204.9l0.199,2.949c-0.166,1.2-0.316,2.084-0.449,2.65c-0.233,1.167-0.434,2.934-0.601,5.3c-0.633,2.3-2.399,4.767-5.3,7.4
		l-0.95,0.55l-2,0.8l-0.3,0.05c-2.366,0.434-6.85,0.65-13.45,0.65h-0.1l-3.601-0.3c-2.233-0.3-3.733-0.533-4.5-0.7
		c-0.833-0.167-2.466-0.583-4.899-1.25l-3.95-1.5l-6.9-3.3l-0.75-0.4c0.633-0.267,1.517-0.55,2.65-0.85
		c1.066-0.3,1.75-0.45,2.05-0.45c0.233,0,1.217,0.55,2.95,1.65c0.233,0.133,1.05,0.533,2.45,1.199c1.5,0.7,2.35,1.067,2.55,1.101
		c2.1,0.467,4.1,0.8,6,1c1.667,0.133,3.884,0.2,6.65,0.2c3.6,0,6.933-0.284,10-0.851c3.166-0.6,5.283-1.383,6.35-2.35
		c-0.4-0.434-1.233-0.983-2.5-1.65c-1.366-0.666-2.184-1.116-2.45-1.35c3.3-1.434,5.05-2.2,5.25-2.3
		c1.134-0.733,1.7-1.767,1.7-3.101c0-0.366-0.033-0.666-0.1-0.899c-0.101-0.2-0.15-0.351-0.15-0.45l-3.95-0.3h-0.149l1-0.65
		c0.466-0.134,1.083-0.217,1.85-0.25s1.384,0,1.85,0.1c0.334,0.167,0.867,0.617,1.601,1.351c0.533-0.533,0.967-1.267,1.3-2.2
		s0.45-1.75,0.35-2.45L160.9,204.9z"/>
	<path style="fill-rule:evenodd;clip-rule:evenodd;fill:#776D61;" d="M44.7,18.9c0.7,0.367,1.617,1.5,2.75,3.4
		c0.9,1.467,2.183,3.85,3.85,7.15c-0.533,1.767-1.15,2.65-1.85,2.65c-0.333,0-0.7-0.15-1.1-0.45c-0.434-0.3-0.817-0.45-1.15-0.45
		c-0.4,0-0.617,0.05-0.65,0.15c-0.033,0.066-0.05,0.117-0.05,0.15l-0.15,1.7c-0.733-3.567-1.25-5.917-1.55-7.05
		c-0.233-0.7-0.417-1.267-0.55-1.7l-0.4-0.9l-0.05-4.3l0.4-0.3L44.7,18.9z M60.5,62.65c-0.267,8.267-0.683,18.533-1.25,30.8
		c-0.567,12.833-1,20.9-1.3,24.2l-0.3,1.65c-0.767-2.2-1.267-3.667-1.5-4.4c-0.3-1.1-0.45-4.15-0.45-9.15
		c0-0.667,0.6-11.15,1.8-31.45l0.3,2.35v0.15c0.167-0.367,0.4-2.433,0.7-6.2c0.733-1.533,1.167-3.917,1.3-7.15
		c0.067-1.333,0.083-5.6,0.05-12.8c0.3-6.367,0.467-11.15,0.5-14.35L61,31.15l0.65-4.2l0.85-0.05c0.5-0.033,1.083-0.167,1.75-0.4
		c0.667-0.2,1.133-0.383,1.4-0.55c0.333,0,0.617-0.233,0.85-0.7s0.35-1.033,0.35-1.7c1.667,0,3.1,0.784,4.3,2.35
		c1.167,1.567,1.75,3.45,1.75,5.65c-0.367-0.5-0.867-0.883-1.5-1.15c-1-0.433-1.517-0.667-1.55-0.7l-0.2,3
		c0.1-2.1-0.117-3.767-0.65-5c-0.7-1.067-1.15-1.8-1.35-2.2l-0.55,0.8c-1.434,3.967-2.217,11.017-2.35,21.15
		c-0.133,11.667-0.383,18.566-0.75,20.7c-0.067-0.167-0.267-1.816-0.6-4.95c-0.3-2.567-0.95-4.284-1.95-5.15l-0.95,3.8v0.2
		c-0.033,1.1-0.2,2.117-0.5,3.05C60.233,64.767,60.4,63.95,60.5,62.65z M85.95,30.6l-0.1-1.55L85.7,33.9c0-3.2-0.267-6.283-0.8-9.25
		c-0.967-5.533-1.566-13.7-1.8-24.5h0.45h3.1c0,0.033-0.1,2.434-0.3,7.2C86.117,13.917,85.983,21.667,85.95,30.6z M89.7,0.15
		l0.35,0.05l-0.1,2.85c0.133,3.767,0.2,11.217,0.2,22.35c0,12.8-0.117,28.8-0.35,48c-0.233,20.3-0.45,31.283-0.65,32.95
		c-0.467-10.333-0.75-17.3-0.85-20.9c-0.1-3.633,0.184-23.284,0.85-58.95l-0.05,1.3c0.033-2.533,0.1-5.45,0.2-8.75L89.7,0.15z
		 M92.1,0.55c0.367,0.534,0.283,15.5-0.25,44.9V43.9c-0.5-20.933-0.75-31.733-0.75-32.4c0-4.433,0.083-8.117,0.25-11.05V0.4L92,0.55
		H92.1z M97.15,111.85c0.1-17.133,0.15-26.033,0.15-26.7v-14.3l-1-19.6l0.05-30.8l0.05-4.25c0.033,0.367,0.217,1.617,0.55,3.75
		c0.367,2.3,0.617,3.767,0.75,4.4l0.2,0.8l0.05,0.25c0.066,1.434,0.517,8.15,1.35,20.15c0.8,13.733,1.2,26.55,1.2,38.45
		c0,0.333,0.017,2.783,0.05,7.35c-0.033,5.4-0.216,10.617-0.55,15.65c-0.033,0.467-0.383,1.183-1.05,2.15
		C97.983,110.55,97.383,111.45,97.15,111.85z M100.75,30.45L101.4,31c0.033,0.467,0.417,5.25,1.15,14.35
		c0.7,9.133,1.05,14.233,1.05,15.3c0,7.567-0.15,14.867-0.45,21.9c-0.533,11.534-1.383,19.233-2.55,23.1
		c0.667-16.2,0.783-33.533,0.35-52C100.617,40.583,100.55,32.85,100.75,30.45z M69.6,33.35l0.15,6.55c0,2-0.05,9.133-0.15,21.4
		c-0.167,15.233-0.317,26.9-0.45,35c-0.167-16.233-0.316-27.017-0.45-32.35l0.7-30.6H69.6z M45.5,50
		c-0.033,11.2-0.333,20.95-0.9,29.25c-0.2-1.567-0.383-4.083-0.55-7.55c-0.1-2.167-0.417-4.184-0.95-6.05v-3.8l0.6-8.9l0.15-0.2
		l0.55-0.8l0.9-1.6L45.5,50z M48.45,146.65c-0.467,1.033-0.85,2.5-1.15,4.399c-0.167,1-0.367,2.351-0.6,4.05l-0.15-6.5
		C46.383,141.4,46,134.684,45.4,128.45c-0.467-5.1-0.7-11.667-0.7-19.7c0.4-12.6,0.716-19.533,0.95-20.8l1.35,7.6l0.5-6.35
		c0.3,6.8,0.567,10.1,0.8,9.9C48.367,101.2,48.417,117.05,48.45,146.65z M83.55,143.4l-4.4-14.7c-0.533-4.867-0.85-10.333-0.95-16.4
		v-2.7l0.05-0.3c1.167,7.934,2.75,14.367,4.75,19.3c1.367,3.301,4.367,10.367,9,21.2c-2.333-0.3-3.733-0.783-4.2-1.45
		C86.433,146.316,85.017,144.667,83.55,143.4z M40.15,165.85l-0.65-2.1c-0.333-2.2-0.583-4.1-0.75-5.7c-0.333-2.899-0.5-5.6-0.5-8.1
		V127.4c0.3-6.667,1.4-10.583,3.3-11.75l0.15,1.15c0,0.434-0.267,4-0.8,10.7c-0.566,8.066-0.85,15.667-0.85,22.8L40.15,165.85z
		 M51.85,112l1.15,9.55l-0.65,3.35H52.2L51.85,112z M66.05,118.7l0.1-10.1l1.3,22.15c-0.467-1.267-0.833-3.517-1.1-6.75
		C66.15,121.733,66.05,119.967,66.05,118.7z M60.2,183.3l-0.95-0.149c-4.767-20.801-7.15-34.034-7.15-39.7l0.25-18.55
		c1.233,13.1,2.783,25.683,4.65,37.75C57.967,168.85,59.033,175.733,60.2,183.3z M78.65,153.15c0.367,4.733,0.633,11.6,0.8,20.6
		l-0.15,3.4c-0.4-0.7-0.617-1.051-0.65-1.051c-0.033-5.366-0.083-9.449-0.15-12.25c-0.1-4.833-0.267-8.983-0.5-12.449l0.35,0.899
		L78.65,153.15z M77.1,180.2l-0.05,0.05c-0.433-0.7-0.966-1.217-1.6-1.55c-0.934-0.533-1.633-1.017-2.1-1.45
		c1.033-5.233,0.55-12.05-1.45-20.45c-2.633-11.133-4.117-19.816-4.45-26.05c0.233,0.566,1.95,4.217,5.15,10.95
		c3.133,7.733,4.7,14.717,4.7,20.95L77.1,180.2z M34.85,139.35L35.3,129l0.05,11.6L34.85,139.35z"/>
	<path style="fill-rule:evenodd;clip-rule:evenodd;fill:#6A6157;" d="M41.95,19.55L41.8,21.8l-1.65-0.5
		C40.483,20.667,41.083,20.083,41.95,19.55z M44.2,18.95l-0.4,0.3V19L44.2,18.95z M76,20.15L75.1,24C75.1,22.8,75.4,21.517,76,20.15
		z M78.35,6.4c-0.367,2.967-1.6,5.817-3.7,8.55c-1.867,2.433-3.083,3.65-3.65,3.65c-1.967-0.633-3.317-1.35-4.05-2.15l0.1-0.5
		c0-0.434,0.15-1.1,0.45-2c0.4-0.633,1.067-1,2-1.1c0.533-0.067,1.367-0.083,2.5-0.05c2.067-0.1,3.15-1.483,3.25-4.15
		c-0.567-2.3-0.867-4-0.9-5.1C74.317,1.617,75.7,0.433,78.5,0l-0.1,5.4c0,0.267-0.017,0.533-0.05,0.8V6.4z M66.05,118.7
		c0,1.267,0.1,3.033,0.3,5.3c0.267,3.233,0.633,5.483,1.1,6.75l-1.3-22.15L66.05,118.7z M51.85,112l0.35,12.9h0.15l0.65-3.35
		L51.85,112z M40.15,165.85l-0.1-15.55c0-7.133,0.284-14.733,0.85-22.8c0.533-6.7,0.8-10.267,0.8-10.7l-0.15-1.15
		c-1.9,1.167-3,5.083-3.3,11.75v22.55c0,2.5,0.167,5.2,0.5,8.1c0.167,1.601,0.417,3.5,0.75,5.7c-1.467-2.434-2.433-6.066-2.9-10.9
		c-0.667-7.3-1.083-11.383-1.25-12.25L35.3,129l-0.45,10.35c-0.867-5.633-1.567-13.7-2.1-24.2c-0.6-11.6-0.9-24.783-0.9-39.55
		c0-1.467,0.7-2.583,2.1-3.35c1.767-0.967,2.966-2.2,3.6-3.7c0.067-0.167,0.317-1.233,0.75-3.2c0.367-1.767,0.684-2.8,0.95-3.1
		c-0.333,9.467-0.583,21.767-0.75,36.9c0,0.067-0.233,1.65-0.7,4.75c-0.6,3.233-1.167,5.267-1.7,6.1
		c-0.633-0.433-1.283-1.617-1.95-3.55c-0.7-1.9-0.967-3.233-0.8-4l-0.1-1.5c0,0.333-0.267,2.3-0.8,5.9c0,3.566,1.233,5.65,3.7,6.25
		c2.267-1.2,3.9-8.117,4.9-20.75c0.767-14.167,1.45-23.067,2.05-26.7c0.533,1.867,0.85,3.883,0.95,6.05
		c0.167,3.466,0.35,5.983,0.55,7.55c0.566-8.3,0.867-18.05,0.9-29.25l0.5-1.2c0.267-1,0.533-2.533,0.8-4.6
		c0.233-1.867,0.35-3.117,0.35-3.75c0-0.9-0.2-2.934-0.6-6.1l-0.2-1.15l0.15-1.7c0-0.033,0.017-0.083,0.05-0.15
		c0.034-0.1,0.25-0.15,0.65-0.15c0.333,0,0.716,0.15,1.15,0.45c0.4,0.3,0.767,0.45,1.1,0.45c0.7,0,1.316-0.883,1.85-2.65
		c0,2.667-0.15,19.383-0.45,50.15l-0.15-0.8l0.25,1.5l0.8,4.75c1.133-14.333,1.75-23.583,1.85-27.75c0.8,0.8,1.55,2.95,2.25,6.45
		c0.833,4.2,1.316,6.45,1.45,6.75l0.2,3.8c-1.2,20.3-1.8,30.784-1.8,31.45c0,5,0.15,8.05,0.45,9.15c0.233,0.733,0.733,2.2,1.5,4.4
		l0.3-1.65c0.3-3.3,0.733-11.367,1.3-24.2c0.567-12.267,0.983-22.534,1.25-30.8v-0.6v-0.2l0.95-3.8c1,0.867,1.65,2.583,1.95,5.15
		c0.333,3.133,0.533,4.783,0.6,4.95c0.367-2.133,0.617-9.033,0.75-20.7c0.133-10.133,0.917-17.184,2.35-21.15l0.55-0.8
		c0.2,0.4,0.65,1.133,1.35,2.2c0.533,1.233,0.75,2.9,0.65,5l0.2-3c0.033,0.033,0.55,0.267,1.55,0.7c0.633,0.267,1.133,0.65,1.5,1.15
		c0.967,7.767,1.5,17.784,1.6,30.05c0.133,13.033,0.45,22.083,0.95,27.15l0.1-1.2l0.1-34.15L75.1,31.55
		c0.3,0.967,0.867,5.05,1.7,12.25c0.9,7.733,1.883,13.767,2.95,18.1c0.967-14.6,1.533-24.633,1.7-30.1
		c0.133-9.5,0.3-20.066,0.5-31.7l1.15,0.05c0.233,10.8,0.833,18.967,1.8,24.5c0.533,2.967,0.8,6.05,0.8,9.25
		c0,1.167-0.034,2.35-0.1,3.55c-0.4,11.5-0.617,19.8-0.65,24.9l0.5-1.4c0.4-1,0.883-1.784,1.45-2.35l0.05-0.05
		c0.167-0.033,0.35,0.833,0.55,2.6L87.6,63v-1.2l-1.65-31.2c0.033-8.934,0.167-16.684,0.4-23.25c0.2-4.767,0.3-7.167,0.3-7.2h3.05
		l-0.4,18.9c-0.1,3.3-0.167,6.217-0.2,8.75l0.05-1.3c-0.667,35.667-0.95,55.317-0.85,58.95c0.1,3.6,0.383,10.566,0.85,20.9
		c0.2-1.667,0.417-12.65,0.65-32.95c0.233-19.2,0.35-35.2,0.35-48c0-11.133-0.066-18.583-0.2-22.35l0.1-2.85l1.3,0.2v0.05
		C91.183,3.383,91.1,7.067,91.1,11.5c0,0.667,0.25,11.467,0.75,32.4v1.55c0.533-29.4,0.617-44.367,0.25-44.9
		c0.667,0.434,1.4,1.417,2.2,2.95c0.4,0.8,0.867,1.733,1.4,2.8l-0.65,33.15c0,2.966-0.466,4.8-1.4,5.5
		c-0.967,0.7-1.45,1.267-1.45,1.7c0,0.467,0.5,2.1,1.5,4.9c0.966,2.6,1.333,6.45,1.1,11.55c-0.267,5.767-0.333,11.9-0.2,18.4
		c0.066,3.433,0.167,7.167,0.3,11.2c0.033,1.667-0.083,9.75-0.35,24.25c0,2.333,0.4,6.15,1.2,11.45
		c0.933,6.267,1.917,9.916,2.95,10.949l0.7,4.65c-0.7,1.167-0.983,1.783-0.85,1.85c-0.033,0.067-1,1.017-2.9,2.851l-1.25,0.85h-0.05
		c-0.367,0.066-1.15,0.15-2.35,0.25c-4.633-10.833-7.633-17.899-9-21.2c-2-4.933-3.583-11.366-4.75-19.3l0.25-8.55l-0.55,4
		c-0.1-1.733-0.35-3.85-0.75-6.35l-0.45-1.85c0-0.066-0.017-0.133-0.05-0.2c-0.067,0.4-0.417,1.267-1.05,2.6
		c-0.533,2.2-0.733,5.933-0.6,11.2c0.333-2.2,0.667-4.383,1-6.55c0.434-3.1,0.667-5.217,0.7-6.35v3.55l-0.05-0.2
		c0.1,2.1,0.15,5.717,0.15,10.85c-0.733,10.9-1.1,16.633-1.1,17.2l-0.2,3.8c0,2.767,0.184,5.566,0.55,8.399
		c0.333,2.434,0.967,5.95,1.9,10.551c0.233,3.466,0.4,7.616,0.5,12.449c0.067,2.801,0.117,6.884,0.15,12.25
		c0.033,0,0.25,0.351,0.65,1.051l0.15-3.4c-0.167-9-0.434-15.866-0.8-20.6l0.3,0.699c0.066,0.233,0.75,1.4,2.05,3.5
		c1.333,2.2,2.2,3.5,2.6,3.9c0.066,0.566,0.367,2.366,0.9,5.4c0.6,3.433,1.15,6.366,1.65,8.8l-0.5,0.45
		c-0.267,0.199-1.633,0.983-4.1,2.35l-1.95,0.85l-2.5,1.101l0.2-17.55c0-6.233-1.566-13.217-4.7-20.95
		c-3.2-6.733-4.917-10.384-5.15-10.95c0.333,6.233,1.816,14.917,4.45,26.05c2,8.4,2.483,15.217,1.45,20.45
		c-0.6-1.2-1.233-4.434-1.9-9.7c-0.6-5.399-0.967-8.483-1.1-9.25c-0.067-0.434-0.15-0.883-0.25-1.35
		c-0.7-4.066-1.434-8.117-2.2-12.15c-1.6-8.934-2.517-15.233-2.75-18.9L65,124.15c0.667,9.833,1.933,28.067,3.8,54.7v4.75
		c-0.833,0.167-1.617,0.317-2.35,0.45c-0.233,0.033-0.467,0.066-0.7,0.101c-0.367-3.334-0.583-5.167-0.65-5.5
		c0.267,2.767,0.3,4.616,0.1,5.55l-1.8,0.05l-0.35-0.05c0.067-3.667-0.2-8.483-0.8-14.45c-0.833-8.6-1.35-14.65-1.55-18.15
		c0.333,13.601,0.433,24.233,0.3,31.9l-0.8-0.2c-1.167-7.566-2.233-14.45-3.2-20.649c-1.867-12.067-3.417-24.65-4.65-37.75
		l-0.25,18.55c0,5.666,2.383,18.899,7.15,39.7l-1.95-0.25l-0.1-0.15c0.133-0.7-0.017-2.3-0.45-4.8c-0.533-2.867-1.2-4.5-2-4.9
		c-0.2,0.167-0.467,0.367-0.8,0.601c-0.267,0.166-0.617,0.25-1.05,0.25c-1.867,0-3.033-4.101-3.5-12.301
		c-0.167-8.933-0.35-14.166-0.55-15.699l-0.4,0.75c-0.034-29.601-0.083-45.45-0.15-47.55c-0.233,0.2-0.5-3.1-0.8-9.9L47,95.55
		L44.9,81.9l0.75,6.05c-0.233,1.267-0.55,8.2-0.95,20.8c0,8.033,0.233,14.6,0.7,19.7c0.6,6.233,0.983,12.95,1.15,20.149L43.7,137.7
		c-0.167-9.334-0.583-15.833-1.25-19.5c0,24.333-0.05,37.017-0.15,38.05c-0.033,0.467-0.233,2.3-0.6,5.5l0.05,1.4l0.7,0.05
		c0,0.733-0.217,1.366-0.65,1.899C41.333,165.6,40.783,165.85,40.15,165.85z M110.45,132.85c-0.867-1.633-1.483-3.066-1.85-4.3
		l-0.3-1.35l0.4,4.649c-0.167-0.166-0.817-0.949-1.95-2.35c-1.133-1.434-1.733-2.233-1.8-2.4l0.15,0.551
		c0,0.333-0.1,0.649-0.3,0.949c-0.1,0.167-0.35,0.483-0.75,0.95c-2.5-1.467-4.55-4.667-6.15-9.6c-2.2-6.833-3.083-16.133-2.65-27.9
		l0.75,9.3c0.333,3.433,0.6,7.183,0.8,11.25l0.35-0.75c0.233-0.4,0.833-1.3,1.8-2.7c0.667-0.967,1.017-1.683,1.05-2.15
		c0.333-5.033,0.517-10.25,0.55-15.65c-0.033-4.567-0.05-7.017-0.05-7.35c0-11.9-0.4-24.717-1.2-38.45
		c-0.833-12-1.283-18.716-1.35-20.15L98,25.45c0.1,0.267,0.517,1.066,1.25,2.4c0.3,0.566,0.567,1.033,0.8,1.4
		c0.367,0.667,0.6,1.067,0.7,1.2c-0.2,2.4-0.133,10.133,0.2,23.2c0.433,18.467,0.316,35.8-0.35,52
		c1.167-3.867,2.017-11.566,2.55-23.1c0.3-7.033,0.45-14.333,0.45-21.9c0-1.066-0.35-6.167-1.05-15.3
		c-0.733-9.1-1.117-13.883-1.15-14.35l0.7,0.45c0.566,0.367,1.083,0.65,1.55,0.85c1.967,0.6,2.95,1.55,2.95,2.85
		c0,1.1-0.017,4.533-0.05,10.3l0.1,0.25l0.45,1.65c-0.033,6.267,0.033,17.25,0.2,32.95l-0.3-0.6c-0.167,1.133-0.35,2.883-0.55,5.25
		c-0.167,2.1-0.25,3.466-0.25,4.1c0,1.3,0.183,5.733,0.55,13.3c0.333,7.533,0.583,12.267,0.75,14.2l0.1,1.1
		c-0.033-1.5-0.017-7.15,0.05-16.95c0.067-7.067,0.2-13.717,0.4-19.95c1.034-1.2,1.667-2.433,1.9-3.7c0.367-2.066,0.6-6.733,0.7-14
		l0.15-7.95l0.2-1.65l-0.2,1.4l-0.1,0.45l0.1-3.45l0.95,1.35c0.2,2.5,0.583,5.417,1.15,8.75c0.733,4.1,1.15,6.617,1.25,7.55
		c-0.033,0.6-0.133,1.25-0.3,1.95c-0.133,0.566-0.2,1.017-0.2,1.35l0.3,6.7l0.05,1.05c-0.2,1.7-0.533,5.483-1,11.35
		c-0.567,7.3-0.85,12.1-0.85,14.4c0,12.867,0.333,20.7,1,23.5c0.167,0.667,0.45,1.267,0.85,1.8c0.333,0.467,0.567,1.184,0.7,2.15
		l-1.7,0.6C112.1,133.75,111.25,133.25,110.45,132.85z M69.6,33.35h-0.2l-0.7,30.6c0.133,5.333,0.283,16.117,0.45,32.35
		c0.133-8.1,0.283-19.767,0.45-35c0.1-12.267,0.15-19.4,0.15-21.4L69.6,33.35z M42.05,169l0.7-0.3l0.8,0.45
		C43.017,169.25,42.517,169.2,42.05,169z M62.5,81.3l0.25,20.1c2.6-11.5,4.233-20.433,4.9-26.8c1-9.434,1.033-20.383,0.1-32.85
		c-0.233,5.233-0.633,14.75-1.2,28.55c-0.533,11.3-1,17.267-1.4,17.9c-1.3-1.967-1.967-5.817-2-11.55c-0.133,0.2-0.267,0.9-0.4,2.1
		C62.583,79.917,62.5,80.767,62.5,81.3z M78.9,127.55l2.35,12.05c-1.1-2.3-2.083-4.783-2.95-7.449c-0.9-2.667-1.35-4.5-1.35-5.5
		L77,114.3c0.2,2.034,0.467,4.367,0.8,7C78.233,124.467,78.6,126.55,78.9,127.55z"/>
	<path style="fill-rule:evenodd;clip-rule:evenodd;fill:#5A5149;" d="M50.85,79.6c0.3-30.767,0.45-47.483,0.45-50.15
		c-1.667-3.3-2.95-5.684-3.85-7.15c-1.133-1.9-2.05-3.033-2.75-3.4c4.933-0.267,7.75-0.35,8.45-0.25c1.3,0.2,2.217,1,2.75,2.4
		l0.7,0.65l0.15,15.2c0,0.5-0.017,1.1-0.05,1.8c-0.133-0.133-0.35-0.2-0.65-0.2c-0.433,0-0.716,1.833-0.85,5.5
		c-0.1,1.867-0.15,3.95-0.15,6.25c0,0.933,0.4,2.75,1.2,5.45c0.767,3.733,1.117,8.667,1.05,14.8c-0.133-0.3-0.617-2.55-1.45-6.75
		c-0.7-3.5-1.45-5.65-2.25-6.45c-0.1,4.167-0.717,13.417-1.85,27.75l-0.8-4.75L50.85,79.6z M61,31.15L60.35,35l-0.1-8.7
		c0.006,0.17,0.14,0.32,0.4,0.45c0.267,0.133,0.6,0.2,1,0.2L61,31.15z M75.1,31.55l0.55,21.85l-0.1,34.15l-0.1,1.2
		c-0.5-5.067-0.817-14.117-0.95-27.15c-0.1-12.267-0.633-22.283-1.6-30.05c0-2.2-0.583-4.083-1.75-5.65
		c-1.2-1.566-2.633-2.35-4.3-2.35c-0.033-2.633-0.05-4.283-0.05-4.95l0.15-2.15c0.733,0.8,2.083,1.517,4.05,2.15
		c0.567,0,1.783-1.217,3.65-3.65c2.1-2.733,3.333-5.583,3.7-8.55c-0.1,0.967-0.25,2.65-0.45,5.05c-0.5,4.233-1.133,7.133-1.9,8.7
		c-0.6,1.367-0.9,2.65-0.9,3.85V31.55z M96.35,20.45l-0.05,30.8c-0.4-11.333-0.617-17.45-0.65-18.35L96,101.35l-0.75-9.3
		c-0.433,11.767,0.45,21.067,2.65,27.9c1.6,4.933,3.65,8.133,6.15,9.6c0.4-0.467,0.65-0.783,0.75-0.95c0.2-0.3,0.3-0.616,0.3-0.949
		l-0.15-0.551c0.066,0.167,0.667,0.967,1.8,2.4c1.133,1.4,1.783,2.184,1.95,2.35c0.8,0.5,1.383,0.834,1.75,1
		c0.8,0.4,1.65,0.9,2.55,1.5c-1.933,0.434-3.517,0.801-4.75,1.101c-2.3,0.566-4.033,1.2-5.2,1.899c-1.2-2.267-1.966-3.933-2.3-5
		c-0.933-3.199-1.65-5.483-2.15-6.85c-0.067-1.467-0.25-2.75-0.55-3.85l-0.1-0.55l0.2,4.4h0.45c0.033,0.667,0,2.384-0.1,5.15
		l0.2,8.699c-1.034-1.033-2.017-4.683-2.95-10.949c-0.8-5.3-1.2-9.117-1.2-11.45c0.267-14.5,0.383-22.583,0.35-24.25
		c-0.133-4.034-0.233-7.767-0.3-11.2c-0.133-6.5-0.067-12.633,0.2-18.4c0.233-5.1-0.133-8.95-1.1-11.55c-1-2.8-1.5-4.433-1.5-4.9
		c0-0.433,0.483-1,1.45-1.7c0.934-0.7,1.4-2.534,1.4-5.5L95.7,6.3l0.4,5.65L96.35,20.45z M110.8,55.1l-0.15,7.95l-0.3-11.75
		l0.45,0.55l-0.1,3.45l0.1-0.45V55.1z M114.15,69.5c-0.1-0.933-0.517-3.45-1.25-7.55c-0.566-3.333-0.95-6.25-1.15-8.75
		c0.4,0.8,0.967,3.25,1.7,7.35C114.283,65.15,114.517,68.133,114.15,69.5z M119.4,123.25l-0.551,1.6c0.034-0.967,0.034-1.9,0-2.8
		l-0.25-0.9l-0.25,5.2l-0.149,0.8c-0.566,1.1-0.9,2.399-1,3.899c-0.066,0.834-0.65,1.617-1.75,2.351
		c-0.167-1.934-0.25-3.45-0.25-4.551c0-2.933,0.25-6.3,0.75-10.1c0.467-3.8,0.7-7.8,0.7-12l-0.051-8.5
		c0.767,5.133,1.567,10.217,2.4,15.25c0.467,2.933,0.7,5.333,0.7,7.2c0,0.667-0.05,1.3-0.15,1.9L119.4,123.25z M85.95,30.6
		l1.65,31.2l-0.1-0.65c-0.2-1.767-0.383-2.633-0.55-2.6L86.9,58.6c-0.566,0.566-1.05,1.35-1.45,2.35l-0.5,1.4
		c0.033-5.1,0.25-13.4,0.65-24.9c0.066-1.2,0.1-2.383,0.1-3.55l0.15-4.85L85.95,30.6z M107.45,48.05
		c0.267,6.333,0.35,17.217,0.25,32.65l-0.35-0.25l-0.05-0.15c-0.167-15.7-0.233-26.683-0.2-32.95L107.45,48.05z M59.85,50.65
		c0.033,7.2,0.017,11.467-0.05,12.8c-0.133,3.233-0.566,5.617-1.3,7.15c0.233-2.4,0.417-4.467,0.55-6.2
		C59.283,61.333,59.55,56.75,59.85,50.65z M35.35,140.6c0.167,0.867,0.583,4.95,1.25,12.25c0.467,4.834,1.433,8.467,2.9,10.9
		l0.65,2.1c0.1,0.301,0.383,0.834,0.85,1.601c0.1,0.2,0.217,0.383,0.35,0.55c0.3,0.5,0.533,0.833,0.7,1
		c0.467,0.2,0.967,0.25,1.5,0.15c0.4,0.633,0.6,1.616,0.6,2.949c0,0.067-0.167,0.767-0.5,2.101c-0.667,1.233-1.85,1.7-3.55,1.399
		h-2.55c0.467-2.333-0.167-4.199-1.9-5.6c-2.233-1.3-3.75-2.467-4.55-3.5l-0.45-3.65l0.05-0.05c0.233-0.833,0.5-1.616,0.8-2.35
		l-1.05-0.15c-0.1-1-0.434-3.316-1-6.95c-0.467-3.166-0.8-6.333-1-9.5c0.033-3.267,0.15-6.733,0.35-10.399l-0.05-5.101v-1
		l-0.05-2.899c0.033-4.934,0.216-9.75,0.55-14.45c0.367-4.633,0.55-8.183,0.55-10.65c-0.2-4.9-0.283-8.567-0.25-11l0.1-4.05
		l0.05-2.55l0.3-11.8c1.333-2.7,2.817-4.9,4.45-6.6c1.9-1.934,3.767-2.9,5.6-2.9c0.034,0,0.534,0.367,1.5,1.1L41.7,62l-1.95,0.1
		l-0.5,0.15c-0.267,0.3-0.583,1.333-0.95,3.1c-0.433,1.967-0.683,3.033-0.75,3.2c-0.633,1.5-1.833,2.733-3.6,3.7
		c-1.4,0.767-2.1,1.883-2.1,3.35c0,14.767,0.3,27.95,0.9,39.55c0.533,10.5,1.233,18.567,2.1,24.2L35.35,140.6z M41.95,54.75
		l0.55-0.55c0.133,1.733,0.183,3.316,0.15,4.75c-0.033,0.767-0.117,1.767-0.25,3c-0.066,0-0.066-0.417,0-1.25
		C42.467,58.167,42.317,56.183,41.95,54.75z M45.25,164.3l0.05-1.899l1.4-7.301c0.233-1.699,0.433-3.05,0.6-4.05
		c0.3-1.899,0.684-3.366,1.15-4.399l0.4-0.75c0.2,1.533,0.383,6.767,0.55,15.699c0.467,8.2,1.633,12.301,3.5,12.301
		c0.434,0,0.783-0.084,1.05-0.25c0.333-0.233,0.6-0.434,0.8-0.601c0.8,0.4,1.467,2.033,2,4.9c0.433,2.5,0.583,4.1,0.45,4.8
		c-1.4-2.566-3-4.85-4.8-6.85c-1.767-1.801-2.967-3.134-3.6-4c-1.933-2.601-2.533-7.667-1.8-15.2l-0.15-1.05
		c-0.067,0.199-0.267,1.533-0.6,4C45.95,162.017,45.617,163.566,45.25,164.3z M77.95,104.75l-0.4,4l-0.15,1.3
		c-0.267-3-0.483-6.083-0.65-9.25v-3.55c-0.033,1.133-0.267,3.25-0.7,6.35c-0.333,2.167-0.667,4.35-1,6.55
		c-0.133-5.267,0.067-9,0.6-11.2c0.633-1.333,0.983-2.2,1.05-2.6c0.033,0.066,0.05,0.133,0.05,0.2l0.45,1.85
		C77.6,100.9,77.85,103.017,77.95,104.75z M62.5,81.3c0-0.533,0.083-1.383,0.25-2.55c0.133-1.2,0.267-1.9,0.4-2.1
		c0.033,5.733,0.7,9.583,2,11.55c0.4-0.633,0.867-6.6,1.4-17.9c0.567-13.8,0.967-23.316,1.2-28.55
		c0.933,12.467,0.9,23.417-0.1,32.85c-0.667,6.367-2.3,15.3-4.9,26.8L62.5,81.3z M81.25,139.6l0.5,0.9l1.2,2.15l0.6,0.75
		c1.467,1.267,2.883,2.916,4.25,4.949c0.467,0.667,1.867,1.15,4.2,1.45c1.2-0.1,1.983-0.184,2.35-0.25h0.05l-5.6,3.3
		c-5.466-3.566-9.117-8.066-10.95-13.5c-1.333-3.833-1.783-8.416-1.35-13.75l-0.75,3.05c0-0.567,0.367-6.3,1.1-17.2l0.15-1v3.85
		l-0.05,12.35c0,1,0.45,2.833,1.35,5.5C79.167,134.816,80.15,137.3,81.25,139.6z M69.45,183.4L69.1,160.8l-0.1-9.1
		c0.067,0.8,0.3,1.983,0.7,3.55c0.167,0.667,0.3,1.233,0.4,1.7s0.183,0.916,0.25,1.35c0.133,0.767,0.5,3.851,1.1,9.25
		c0.667,5.267,1.3,8.5,1.9,9.7c0.467,0.434,1.167,0.917,2.1,1.45c0.633,0.333,1.167,0.85,1.6,1.55c-1.433,0.7-2.4,1.15-2.9,1.35
		c-0.5,0.233-1.483,0.634-2.95,1.2C70.667,182.967,70.083,183.167,69.45,183.4z"/>
	<path style="fill-rule:evenodd;clip-rule:evenodd;fill:#898074;" d="M11.05,190l0.05,4.35h-0.05c-0.8-1.267-1.2-2.233-1.2-2.899
		c0-0.434,0.033-0.7,0.1-0.8c0.133,0,0.216-0.017,0.25-0.051L11.05,190z M9.25,182.75l1.5-14.6l0.2,17.85L9.25,182.75z M0.7,147.85
		V98.7l-0.55,14.8L0.1,91.55l1.4-9.1l1.1-1.15C1.8,96,1.267,111.4,1,127.5c-0.1,8.1-0.15,14.983-0.15,20.65L0.7,147.85z
		 M65.65,25.95c-0.267,0.167-0.733,0.35-1.4,0.55c-0.667,0.233-1.25,0.367-1.75,0.4C64.033,26.567,65.083,26.25,65.65,25.95z
		 M81.95,0.1l-0.3-0.05l1.9,0.1H83.1L81.95,0.1z M96.35,20.45l-0.25-8.5c0.533,5.433,1.066,9.566,1.6,12.4
		c-0.133-0.633-0.383-2.1-0.75-4.4c-0.333-2.133-0.517-3.383-0.55-3.75L96.35,20.45z M97.95,25.4l-0.05-0.25
		c0.033,0.1,0.067,0.2,0.1,0.3L97.95,25.4z M101.4,31l-0.65-0.55c-0.1-0.133-0.333-0.534-0.7-1.2c0.2,0.267,0.417,0.517,0.65,0.75
		c0.966,1,1.95,1.767,2.95,2.3c-0.467-0.2-0.983-0.483-1.55-0.85L101.4,31z M107.45,48.05l-0.35-0.7l-0.45-1.65
		c0.267,0.9,0.583,1.733,0.95,2.5L107.45,48.05z M114.15,81.95l-0.15-1.4l-0.05-1.05L114.15,81.95z M87.6,61.8V63l-0.1-1.85
		L87.6,61.8z M110.8,55.1v-0.25l0.2-1.4L110.8,55.1z M60.35,35L61,31.15l-0.65,5.15V35z M60.5,62.05v0.6
		c-0.1,1.3-0.267,2.117-0.5,2.45C60.3,64.167,60.467,63.15,60.5,62.05z M50.95,80.3l-0.25-1.5l0.15,0.8L50.95,80.3z M45.65,87.95
		L44.9,81.9L47,95.55L45.65,87.95z M78.5,100.75l-0.95,8l0.4-4L78.5,100.75z M81.75,140.5l-0.85-3.35l0.35,2.449l-2.35-12.05
		l0.25,1.15l4.4,14.7l-0.6-0.75l-2.6-9.101l-0.7-2.649l0.85,4.149L81.75,140.5z M78.15,111.7l0.05-2.1v2.7L78.15,111.7z
		 M78.95,153.85l-0.3-0.699l-0.3-0.851L78.95,153.85z M84.6,163.5l-0.95-2.15l-0.15-0.8l0.45,1.4L84.6,163.5z M77.1,180.2l2.5-1.101
		c-3.934,1.9-6.283,3-7.05,3.301c-0.033,0-0.483,0.133-1.35,0.399c1.466-0.566,2.45-0.967,2.95-1.2c0.5-0.199,1.467-0.649,2.9-1.35
		L77.1,180.2z M14.95,126.7l-4.2,41.45l0.15-15.301c0.434-12.366,0.883-20.25,1.35-23.649c0.5-3.7,1.817-8.6,3.95-14.7l-0.45,4.35
		c-0.033,0.033-0.033,0.066,0,0.1c-0.367,1.1-0.633,2.617-0.8,4.55c-0.2,1.9-0.383,3.1-0.55,3.6l-0.2,0.45L14.95,126.7z
		 M13.15,134.25c-0.133,0.8-0.433,2.45-0.9,4.95L12.2,141c0.4-1.9,0.75-3.55,1.05-4.95c0.533-2.7,0.683-5.75,0.45-9.15
		C13.433,130.934,13.25,133.384,13.15,134.25z M46.7,155.1l-1.4,7.301c0.333-2.034,0.5-4.534,0.5-7.5l0.1,3.949L46.7,155.1z
		 M65.75,184.15c0.233-0.034,0.467-0.067,0.7-0.101c-0.133,0.033-0.267,0.066-0.4,0.101l-0.85,0.05L65.75,184.15z M118.85,124.85
		l0.551-1.6l-1.2,3.9l0.149-0.8L118.85,124.85z M100.15,141.65l-0.1,0.399l-0.2,0.5L100.15,141.65z"/>
	<path style="fill-rule:evenodd;clip-rule:evenodd;fill:#60574E;" d="M41.8,21.8l0.15-2.25L43.8,19v0.25l0.05,4.3L43.45,23v-1.3
		l-0.1,1.15C42.883,22.45,42.367,22.1,41.8,21.8z M78.35,6.4V6.2c0.033-0.267,0.05-0.534,0.05-0.8L78.5,0h1.75
		C80.083,9.5,79.667,15.883,79,19.15c-0.6,3.033-0.9,5.667-0.9,7.9c0,1.667,0.15,4.517,0.45,8.55c0.267,3.367,0.517,6.05,0.75,8.05
		l0.1,0.7c0.633-5.833,1.067-10.05,1.3-12.65c0.333-4.233,0.65-14.784,0.95-31.65l0.3,0.05c-0.2,11.633-0.367,22.2-0.5,31.7
		c-0.167,5.467-0.733,15.5-1.7,30.1c-1.067-4.333-2.05-10.367-2.95-18.1c-0.833-7.2-1.4-11.283-1.7-12.25V24l0.9-3.85
		c0.767-1.566,1.4-4.467,1.9-8.7C78.1,9.05,78.25,7.367,78.35,6.4z M116.6,98.25l0.051,8.5c0,4.2-0.233,8.2-0.7,12
		c-0.5,3.8-0.75,7.167-0.75,10.1c0,1.101,0.083,2.617,0.25,4.551l-0.75,0.35c-0.133-0.967-0.367-1.684-0.7-2.15
		c-0.4-0.533-0.683-1.133-0.85-1.8c-0.667-2.8-1-10.633-1-23.5c0-2.3,0.283-7.1,0.85-14.4c0.467-5.867,0.8-9.65,1-11.35l0.15,1.4
		c0.467,5.3,1,9.5,1.6,12.6C116.05,96.15,116.333,97.383,116.6,98.25z M108.7,131.85l-0.4-4.649l0.3,1.35
		c0.367,1.233,0.983,2.667,1.85,4.3C110.083,132.684,109.5,132.35,108.7,131.85z M107.7,80.7l0.35,0.05
		c-0.2,6.233-0.333,12.883-0.4,19.95c-0.066,9.8-0.083,15.45-0.05,16.95l-0.1-1.1c-0.167-1.933-0.417-6.667-0.75-14.2
		c-0.367-7.567-0.55-12-0.55-13.3c0-0.633,0.083-2,0.25-4.1c0.2-2.367,0.383-4.117,0.55-5.25l0.3,0.6l0.05,0.15L107.7,80.7z
		 M36.15,113.1c-2.467-0.6-3.7-2.684-3.7-6.25c0.533-3.6,0.8-5.567,0.8-5.9l0.1,1.5c-0.167,0.767,0.1,2.1,0.8,4
		c0.667,1.933,1.317,3.117,1.95,3.55c0.533-0.833,1.1-2.867,1.7-6.1c0.467-3.1,0.7-4.683,0.7-4.75
		c0.167-15.133,0.417-27.433,0.75-36.9l0.5-0.15c0,19.867-0.117,31.767-0.35,35.7c-0.5,7.733-1.867,12.383-4.1,13.95L36.15,113.1z
		 M43.55,53.05L43.6,53l0.1-0.05l-0.6,8.9l0.1-8.35L43.55,53.05z M43.7,137.7l2.85,10.899l0.15,6.5l-0.8,3.75l-0.1-3.949
		c0,2.966-0.167,5.466-0.5,7.5l-0.05,1.899c-0.4,2.033-0.9,3.316-1.5,3.851c-0.433,0.399-1,0.466-1.7,0.199l0.7,0.351l-0.7,0.3
		c-0.167-0.167-0.4-0.5-0.7-1c-0.133-0.167-0.25-0.35-0.35-0.55c-0.467-0.767-0.75-1.3-0.85-1.601c0.633,0,1.184-0.25,1.65-0.75
		c0.434-0.533,0.65-1.166,0.65-1.899c0.633-0.367,1.033-0.601,1.2-0.7c0.267-0.2,0.434-0.783,0.5-1.75
		C44.15,160.717,44,153.033,43.7,137.7z M77.4,110.05c0.167,2.367,0.317,5.65,0.45,9.85l0.25-8.25l0.05,0.05l0.05,0.6
		c0.1,6.067,0.417,11.534,0.95,16.4l-0.25-1.15c-0.3-1-0.667-3.083-1.1-6.25c-0.333-2.633-0.6-4.966-0.8-7v-3.85l-0.15,1
		c0-5.133-0.05-8.75-0.15-10.85l0.05,0.2C76.917,103.967,77.133,107.05,77.4,110.05z M80.5,135.05l-0.85-4.149l0.7,2.649
		L80.5,135.05z M84.6,163.5l2.45,5.55c0.367,0.634,0.684,1.167,0.95,1.601c0.133,0.199,0.2,0.517,0.2,0.949
		c0,0.767-0.267,1.517-0.8,2.25c-0.3,0.434-0.717,0.967-1.25,1.601c-0.5-2.434-1.05-5.367-1.65-8.8
		c-0.533-3.034-0.833-4.834-0.9-5.4l0.05,0.1L84.6,163.5z M70.1,156.95c-0.1-0.467-0.233-1.033-0.4-1.7
		c-0.4-1.566-0.633-2.75-0.7-3.55l0.1,9.1l-0.6-3.85l0.3,21.899c-1.867-26.633-3.133-44.866-3.8-54.7l0.15,1.75
		c0.233,3.667,1.15,9.966,2.75,18.9C68.667,148.833,69.4,152.884,70.1,156.95z M61,183.5c0.133-7.667,0.033-18.3-0.3-31.9
		c0.2,3.5,0.716,9.551,1.55,18.15c0.6,5.967,0.867,10.783,0.8,14.45l-0.7-0.05l-0.05-1.101L62.2,183v1.3
		c-0.167-0.2-0.417-0.383-0.75-0.55L61,183.5z M65.2,184.2c0.2-0.934,0.167-2.783-0.1-5.55c0.066,0.333,0.283,2.166,0.65,5.5
		L65.2,184.2z M81.25,139.6l-0.35-2.449l0.85,3.35L81.25,139.6z"/>
	<path style="fill-rule:evenodd;clip-rule:evenodd;fill:#514941;" d="M60.35,36.3c-0.033,3.2-0.2,7.983-0.5,14.35
		c-0.3,6.1-0.567,10.684-0.8,13.75c-0.133,1.733-0.316,3.8-0.55,6.2c-0.3,3.767-0.533,5.833-0.7,6.2v-0.15l-0.3-2.35l-0.2-3.8
		c0.067-6.133-0.283-11.067-1.05-14.8c-0.8-2.7-1.2-4.517-1.2-5.45c0-2.3,0.05-4.383,0.15-6.25c0.133-3.667,0.417-5.5,0.85-5.5
		c0.3,0,0.517,0.067,0.65,0.2c0.033-0.7,0.05-1.3,0.05-1.8L56.6,21.7l0.4,0.35c0.067,0.067,1.15,1.483,3.25,4.25l0.1,8.7V36.3z
		 M81.65,0.05c-0.3,16.867-0.617,27.417-0.95,31.65c-0.233,2.6-0.667,6.816-1.3,12.65l-0.1-0.7c-0.233-2-0.483-4.683-0.75-8.05
		c-0.3-4.033-0.45-6.883-0.45-8.55c0-2.233,0.3-4.867,0.9-7.9C79.667,15.883,80.083,9.5,80.25,0L81.65,0.05z M107.7,80.7
		c0.1-15.434,0.017-26.317-0.25-32.65l0.15,0.15c0.2,0.267,0.35,0.483,0.45,0.65c0.2,0.233,0.967,1.05,2.3,2.45l0.3,11.75
		c-0.1,7.267-0.333,11.934-0.7,14c-0.233,1.267-0.867,2.5-1.9,3.7L107.7,80.7z M101.7,138.6c-0.034,0.067-0.55,1.084-1.55,3.051
		l-0.3,0.899L99.4,144l-0.7-4.65l-0.2-8.699c0.1-2.767,0.133-4.484,0.1-5.15h-0.45l-0.2-4.4l0.1,0.55c0.3,1.1,0.483,2.383,0.55,3.85
		c0.5,1.367,1.217,3.65,2.15,6.85c0.333,1.067,1.1,2.733,2.3,5l-0.2,0.15l-0.45,0.35L101.7,138.6z M97.15,111.85l-0.35,0.75
		c-0.2-4.067-0.466-7.817-0.8-11.25L95.65,32.9c0.033,0.9,0.25,7.017,0.65,18.35l1,19.6v14.3C97.3,85.817,97.25,94.717,97.15,111.85
		z M43.45,23l-0.1-0.15l0.1-1.15V23z M41.95,54.75c0.367,1.433,0.517,3.417,0.45,5.95c-0.066,0.833-0.066,1.25,0,1.25
		c0.133-1.233,0.217-2.233,0.25-3c0.033-1.434-0.017-3.017-0.15-4.75l0.7-0.7l-0.1,8.35v3.8c-0.6,3.633-1.283,12.533-2.05,26.7
		c-1,12.633-2.633,19.55-4.9,20.75l-0.85-1.35c2.233-1.567,3.6-6.217,4.1-13.95c0.233-3.933,0.35-15.833,0.35-35.7L41.7,62
		l-0.15-0.45c-0.966-0.733-1.466-1.1-1.5-1.1c-1.833,0-3.7,0.966-5.6,2.9c-1.633,1.7-3.117,3.9-4.45,6.6V69.8v-0.05l0.45-4.05
		c0-1.5,0.417-2.767,1.25-3.8c0.566-0.767,1.233-1.25,2-1.45c0,0.133,0,0.283,0,0.45l5.65-4.05
		C40.95,55.583,41.817,54.883,41.95,54.75z M78.2,109.6l-0.05,2.1l-0.05-0.05l-0.25,8.25c-0.133-4.2-0.283-7.483-0.45-9.85l0.15-1.3
		l0.95-8l-0.25,8.55L78.2,109.6z M80.35,133.55l2.6,9.101l-1.2-2.15l-1.25-5.45L80.35,133.55z M88.8,152.85
		c-1.4,0.767-2.716,1.717-3.95,2.851c-0.5,0.733-0.917,1.467-1.25,2.2c-0.167,0.767-0.2,1.649-0.1,2.649l0.15,0.8l-0.05-0.1
		c-0.4-0.4-1.267-1.7-2.6-3.9c-1.3-2.1-1.983-3.267-2.05-3.5l-0.6-1.55L78,151.4c-0.933-4.601-1.567-8.117-1.9-10.551
		c-0.367-2.833-0.55-5.633-0.55-8.399l0.2-3.8l0.75-3.05c-0.433,5.333,0.017,9.917,1.35,13.75
		C79.683,144.783,83.333,149.283,88.8,152.85z M69.1,160.8l0.35,22.601L68.8,183.6v-4.75l-0.3-21.899L69.1,160.8z M43.7,137.7
		c0.3,15.333,0.45,23.017,0.45,23.05c-0.066,0.967-0.233,1.55-0.5,1.75c-0.167,0.1-0.566,0.333-1.2,0.7l-0.7-0.05l-0.05-1.4
		c0.367-3.2,0.566-5.033,0.6-5.5c0.1-1.033,0.15-13.717,0.15-38.05C43.117,121.867,43.533,128.366,43.7,137.7z M30.65,162.85
		l-0.2-2.55l1.05,0.15c-0.3,0.733-0.567,1.517-0.8,2.35L30.65,162.85z M32.35,170.65c-0.3-0.767-0.717-2.15-1.25-4.15
		c0.8,1.033,2.316,2.2,4.55,3.5c1.733,1.4,2.367,3.267,1.9,5.6h2.55c1.7,0.301,2.883-0.166,3.55-1.399
		c0.333-1.334,0.5-2.033,0.5-2.101c0-1.333-0.2-2.316-0.6-2.949l-0.8-0.45l-0.7-0.351c0.7,0.267,1.267,0.2,1.7-0.199
		c0.6-0.534,1.1-1.817,1.5-3.851c0.367-0.733,0.7-2.283,1-4.649c0.333-2.467,0.533-3.801,0.6-4L47,156.7
		c-0.733,7.533-0.133,12.6,1.8,15.2c0.633,0.866,1.833,2.199,3.6,4c1.8,2,3.4,4.283,4.8,6.85l0.1,0.15l-0.9-0.101h-0.05l-1.05-0.3
		c-1-0.366-1.867-0.833-2.6-1.4c-2.4-1.866-3.767-2.883-4.1-3.05c-2.233-0.533-4.033-0.8-5.4-0.8c-2.367-0.2-3.617-0.316-3.75-0.35
		c-0.934-0.167-1.934-0.634-3-1.4c-0.867-0.467-1.784-1.333-2.75-2.6C32.9,171.833,32.45,171.083,32.35,170.65z M118.85,124.85
		l-0.5,1.5l0.25-5.2l0.25,0.9C118.884,122.95,118.884,123.883,118.85,124.85z"/>
	<path style="fill-rule:evenodd;clip-rule:evenodd;fill:#908D84;" d="M36.65,20.75L38.4,21l1.75,0.3l1.65,0.5
		c0.167,0.1,0.583,0.517,1.25,1.25c0.667,0.733,1.067,1.2,1.2,1.4c0.133,0.433,0.317,1,0.55,1.7c0.3,1.133,0.817,3.483,1.55,7.05
		l0.2,1.15c-1.5,0.167-2.867,0.933-4.1,2.3c-1.2,1.3-2.233,1.95-3.1,1.95c-1.833,0-2.767-2.3-2.8-6.9
		c0.267-5.467,0.267-9.117,0-10.95H36.65z M46,48.8L45.5,50l-0.2,0.35L46,48.8z M43.55,53.05l0.85-1.1l-0.55,0.8L43.6,53
		L43.55,53.05z"/>
	<path style="fill-rule:evenodd;clip-rule:evenodd;fill:#6D6C64;" d="M33.7,60.45c0.1-5.934,0.133-11.233,0.1-15.9
		c0.633-0.167,1.25-0.517,1.85-1.05c0.333,0.667,0.5,1.3,0.5,1.9l-0.1,4.2l1.3-0.05c0.733-0.8,1.75-2.583,3.05-5.35
		c1-2.167,2.167-3.534,3.5-4.1c0.067,0.933,0.25,2.583,0.55,4.95c0.367,3.1,0.65,4.867,0.85,5.3l-0.9,1.6l-0.85,1.1L43.2,53.5
		l-0.7,0.7l-0.55,0.55c-0.133,0.133-1,0.833-2.6,2.1L33.7,60.9C33.7,60.733,33.7,60.583,33.7,60.45z"/>
	<path style="fill-rule:evenodd;clip-rule:evenodd;fill:#BDB9AE;" d="M20.85,35.9c0.2-0.4,0.383-0.9,0.55-1.5
		c0.867,0.467,1.7,0.7,2.5,0.7c1.4,0,2.167-0.817,2.3-2.45c0.2-2.533,1-4.633,2.4-6.3c0.633,0.233,0.95,0.883,0.95,1.95
		c0,0.767-0.25,3.05-0.75,6.85c-2.7,3.067-4.5,5.017-5.4,5.85c-0.767,0.733-1.367,1.1-1.8,1.1c-1.1,0-1.983-0.267-2.65-0.8
		c-0.534-0.433-0.833-0.933-0.9-1.5C18.017,39.667,18,39.533,18,39.4c0.733-0.733,1.333-1.383,1.8-1.95
		c0.467-0.633,0.733-1.017,0.8-1.15L20.85,35.9z M35.8,23.65c-0.833,2.1-1.517,3.633-2.05,4.6c0.533-1.133,0.783-2.517,0.75-4.15
		c-0.033-1.533,0.2-2.733,0.7-3.6l0.85,0.15l-0.1,2.5L35.8,23.65z M53.15,191.05l-3.7,1.351c-0.4,0.066-0.934,0.1-1.6,0.1
		c-0.733,0-2.2-0.15-4.4-0.45c-2.434-0.333-3.95-0.649-4.55-0.95c-0.066-0.033-0.117-0.066-0.15-0.1
		c-0.033-0.066,0.017-0.083,0.15-0.05c0.067-0.233,0.383-0.867,0.95-1.9c0.6-1.166,1.033-1.899,1.3-2.2l-0.15,1.2l1.25,0.45
		c0.8-0.1,1.767-0.55,2.9-1.35c1.233-0.834,2-1.617,2.3-2.351v-0.05c0.167,0.033,0.35,0.066,0.55,0.1
		c0.733,0.134,1.75,0.367,3.05,0.7c2.034,0.533,3.8,1.066,5.3,1.601c-0.133,0.199-0.633,0.85-1.5,1.949
		C53.883,190.233,53.317,190.884,53.15,191.05z M47.95,189.15l0.4,0.399c0.533,0.267,1.417,0.4,2.65,0.4l-1.5-2.5
		C48.733,187.816,48.217,188.384,47.95,189.15z M129.45,207.1l0.399-1.399c1.233-1.7,1.967-2.867,2.2-3.5
		c-0.1-0.5-0.85-0.717-2.25-0.65c0.233-0.533,0.4-1.533,0.5-3c0.101-1.2,0.134-2.25,0.101-3.149l0.699-0.051l2-0.05l1.65-0.05
		c2.6,0.7,4.533,1.15,5.8,1.35c0.101,0.034,0.65,0.634,1.65,1.801c0.267,0.733,0.434,1.5,0.5,2.3c-0.4,1.3-1.45,2.083-3.15,2.35
		c-1.666,0.066-2.566,0.101-2.7,0.101c-0.466,0.233-0.833,0.699-1.1,1.399c-0.134,0.367-0.35,0.95-0.65,1.75
		c-0.733,1.367-2.6,1.816-5.6,1.351L129.45,207.1z M123,207.3c-0.8,0.2-1.684,0.334-2.65,0.4c-5.766-0.033-9.6-0.084-11.5-0.15
		c0.367-0.399,0.667-0.75,0.9-1.05c0.467-0.5,1.683-1.6,3.65-3.3l0.05,0.7c4.533,0.233,8.967,0.166,13.3-0.2
		c-1.233,1.633-2.017,2.6-2.35,2.899C124.134,206.866,123.667,207.1,123,207.3z M137.4,199.55c-0.5-0.399-1.117-0.6-1.851-0.6
		s-1.35,0.2-1.85,0.6c-0.5,0.4-0.75,0.884-0.75,1.45s0.25,1.05,0.75,1.45c0.5,0.399,1.116,0.6,1.85,0.6s1.351-0.2,1.851-0.6
		c0.5-0.4,0.75-0.884,0.75-1.45S137.9,199.95,137.4,199.55z"/>
	<path style="fill-rule:evenodd;clip-rule:evenodd;fill:#9B9286;" d="M182.1,215.1l0.7,0.25c-0.7-0.333-1.066-0.8-1.1-1.399
		c-0.033-0.434-0.417-0.65-1.15-0.65c-0.333,0-0.633,0.134-0.899,0.4c-0.301,0.233-0.617,0.35-0.95,0.35c-0.4,0-0.684-0.1-0.851-0.3
		l-0.1-0.3v-3.2l2.5-0.55c1.333,0.233,2.566,0.35,3.7,0.35c0.833,0.667,1.85,1.7,3.05,3.101c-0.667,0.899-1.2,1.517-1.6,1.85
		c-0.367,0.333-0.801,0.55-1.301,0.65c0.134,0.1,0.284,0.366,0.45,0.8C183.783,215.95,182.967,215.5,182.1,215.1z M161.2,230.5
		c0-2.934,0.717-5.434,2.149-7.5c1.434-2.066,3.15-3.1,5.15-3.1c2.167,0,4.033-0.434,5.6-1.301c0.167-0.1,0.334-0.199,0.5-0.3
		c-0.899,1.867-1.783,4.417-2.649,7.65C170.017,230.283,166.434,231.8,161.2,230.5z M146.75,231c0.634-0.366,1.384-1,2.25-1.9
		c1.2-1.233,2.033-2.466,2.5-3.699l0.1-0.051c0,0.2,0.184,0.834,0.551,1.9c0.399,1.2,0.733,1.917,1,2.15
		c0.8-0.367,2.083-1.351,3.85-2.95c0.1,0.166,0.316,0.8,0.65,1.899c0.333,1.067,0.517,1.717,0.55,1.95
		c-2.733-0.267-4.851-0.366-6.351-0.3C149.75,230.066,148.05,230.4,146.75,231z M141.8,245.3l0.2-0.05l0.65-0.15
		c-2.934,0.767-5.351,1.134-7.25,1.101c-1.534-0.167-2.567-0.233-3.101-0.2c-1.233,0-2.434-0.167-3.6-0.5
		c-2.267-0.634-3.434-1.75-3.5-3.35c-2.101-0.167-3.934-0.15-5.5,0.05c2.166-3.334,3.366-5.316,3.6-5.95
		c0.101-0.3,0.033-2.267-0.2-5.9l0.25,0.45c1.067,0.867,2.4,1.3,4,1.3c2.834,0,4.051-1.416,3.65-4.25l0.25,0.101l-0.05,17.85
		l1.1,0.2l-0.8-18c0.533,0,1,0.3,1.4,0.9c0.366,0.566,0.55,1.267,0.55,2.1l-1.45-0.55l-0.15,1.95c0,0.966,0.367,1.683,1.101,2.149
		c0.833,0.566,2.083,0.733,3.75,0.5c0.033,0.667,0.416,4.334,1.149,11C139.184,245.884,140.5,245.634,141.8,245.3z M105.5,249.1
		l-0.05-1.1l0.05-1.2V249.1z M80.1,207.6h-0.2c0.1,0.101,0.2,0.217,0.3,0.351c0.966,3.366,2,6.533,3.1,9.5
		c0.767,3.666,1.1,11.5,1,23.5l-2.95-3.351l-0.15-1.75v0.75c0,0.534-0.034,0.784-0.1,0.75c-1.033-1-3.333-2.416-6.9-4.25
		c-3.1-1.466-4.8-2.283-5.1-2.449c0.566,0.233,1.55,0.566,2.95,1c1.333,0.433,2.133,0.716,2.4,0.85
		c-0.3-15.366-0.534-25.233-0.7-29.6c-0.2-4.067-0.417-8.817-0.65-14.25l3.4,0.5c1.167,8.033,1.717,13.35,1.65,15.949
		c-0.033,1.5,0.167,3.101,0.6,4.801l0.25-1.45c0.167-1.5,0.25-2.783,0.25-3.851C79.517,205.634,79.8,206.634,80.1,207.6z
		 M68.45,230.2L68.2,230c-0.4-3.134-0.7-5.667-0.9-7.6c-0.367-3.5-0.55-6.434-0.55-8.801c-0.333,5.5-0.617,12.634-0.85,21.4
		c-1.867,2.066-4.017,2.783-6.45,2.15l1.5,0.149c-0.233,0-0.583-4.233-1.05-12.7c-0.167,1.267-0.816,5.233-1.95,11.9
		c-0.633-1.4-1.1-3.1-1.4-5.1c-0.2-1.4-0.6-2.284-1.2-2.65c-1-0.634-2.65-1.1-4.95-1.4c-0.7-0.066-1.35-0.916-1.95-2.55
		c-0.5-1.7-0.817-2.649-0.95-2.85c-0.467-10.101-0.7-15.483-0.7-16.15c0-0.434,0.1-0.733,0.3-0.899
		c0.233-0.101,0.417-0.2,0.55-0.301h0.05c0.233-0.133,0.617-0.433,1.15-0.899c0.167-0.167,0.683-0.283,1.55-0.351
		c0,0.101,0.017,0.301,0.05,0.601c0.033,1.399,0.083,5.133,0.15,11.2c0.3,7.3,1.05,11.5,2.25,12.6c0.066-1.4,0.1-3.75,0.1-7.05
		l-0.15-17.2c1.633-0.2,2.817-1.5,3.55-3.9c0.533-1.666,0.75-3.3,0.65-4.899l0.5,0.149v-1.5l-0.5-0.1c0-1.667-0.217-3.116-0.65-4.35
		v-0.351L59,187.9l-4.45-1.5L53,184.95l-0.3,0.25V181.1c0.733,0.567,1.6,1.034,2.6,1.4c0.333,0.866,0.967,1.566,1.9,2.1
		c0.867,0.5,2.533,1.134,5,1.9l0.85,0.25c2.267,0.6,4.367,1.05,6.3,1.35c0,0.667-0.15,9.067-0.45,25.2
		C68.767,221.2,68.617,226.833,68.45,230.2z M42.75,217.9l-0.5-9.051c0.167-0.733,0.4-2.1,0.7-4.1
		c0.333-2.167,0.483-3.384,0.45-3.65c0.067,0.034,0.45,0.034,1.15,0c0.667,0.233,1,0.917,1,2.051c0,1.767-0.417,6.916-1.25,15.449
		L42.75,217.9z M37.55,217.9c-0.167-0.767-0.25-1.4-0.25-1.9l-0.05-0.55l-0.1,2.6l-0.4-32.649c0.167,4.733,0.333,9.5,0.5,14.3
		c0.067,3.166,0.067,7.233,0,12.2l0.95-1.601l-0.45-8.45l2.85,10l0.35-0.1c0.333-0.333,0.617-0.816,0.85-1.45
		c0.2,3.4,0.45,5.9,0.75,7.5c-0.733-0.133-1.617-0.184-2.65-0.149C38.933,217.65,38.15,217.733,37.55,217.9z M28.45,143.85
		c-0.2,2-0.333,9.051-0.4,21.15c-0.1,15.9-0.333,29.833-0.7,41.8v19.15L27.7,226c-2.267,0-4.2-0.866-5.8-2.6
		c-1.6-1.767-2.4-3.884-2.4-6.351c-0.633-7.399-1.217-14.717-1.75-21.95c-1.1-14.166-1.65-25.183-1.65-33.05
		c0-1.833,0.65-3.434,1.95-4.8c1.434-1.533,2.3-3.4,2.6-5.6c0.167-1.167,0.3-2.9,0.4-5.2c0.1-2.3,0.2-3.867,0.3-4.7
		c0.167-1.267,1.283-2.85,3.35-4.75c2.3-1.866,3.667-3.05,4.1-3.55C28.6,137.116,28.483,140.583,28.45,143.85z M11.55,194.6
		l-0.5-0.25h0.05L11.55,194.6z M11.6,189c-0.1,0.366-0.283,0.7-0.55,1l-0.85,0.6C10.733,190.066,11.2,189.533,11.6,189z M18.6,93.7
		c0-1.467,1.066-2.717,3.2-3.75c2.133-1.067,4.717-1.6,7.75-1.6c-0.033,2.433,0.05,6.1,0.25,11c0,2.467-0.183,6.017-0.55,10.65
		c-0.333,4.7-0.517,9.517-0.55,14.45c-0.934,1.167-2,2.033-3.2,2.6c-0.267,0-1.85-1.383-4.75-4.15l-4.3-4.2
		c-0.367,0-0.6,0.05-0.7,0.15l0.45-4.35c-2.133,6.1-3.45,11-3.95,14.7c-0.467,3.399-0.917,11.283-1.35,23.649
		c-0.267,1.367-0.733,5.25-1.4,11.65c-0.267-7.066-2.65-12-7.15-14.8L2.2,128.65L1.1,148.5l-0.25-0.35
		c0-5.667,0.05-12.551,0.15-20.65C1.267,111.4,1.8,96,2.6,81.3c1.566-1.466,2.633-2.633,3.2-3.5c1.233-1.9,2.15-4.383,2.75-7.45
		c0.633,1.6,1.583,6.65,2.85,15.15c1.867,8.333,4.817,14,8.85,17l-0.55-1.9c-0.267-0.767-0.5-2.017-0.7-3.75
		C18.8,95.05,18.667,94,18.6,93.7z M17.75,88l0.05,0.6l-0.15,0.3L17.75,88z M1.5,82.45l-1.4,9.1c0-4.167,0-6.4,0-6.7
		C0.3,84.75,0.767,83.95,1.5,82.45z M16.55,48.5l0.95,2.55l1.7,3.25l-0.45,1.65c0.5,0.267,1.017,0.466,1.55,0.6
		c0.267,0.1,0.467,0.25,0.6,0.45c-0.1,0.8-0.15,1.533-0.15,2.2c0,1.667,0.783,3.55,2.35,5.65c0.867,1.167,2.066,2.667,3.6,4.5
		l-1.7-1.4c-1.2,0.3-1.8,1.4-1.8,3.3c0,0.8,0.267,1.45,0.8,1.95c0.4,0.367,0.733,0.55,1,0.55c0.467,0,0.983-0.2,1.55-0.6
		c0.733-0.533,1.233-1.25,1.5-2.15c0.367,0.033,0.733-0.05,1.1-0.25l0.15,0.8V70.6c0.1,0.6,0.15,1.183,0.15,1.75l0.25-0.5
		c0.167-1.233,0.267-1.917,0.3-2.05v0.15l-0.3,11.8c-1.267,0.367-3.184,0.05-5.75-0.95c-2.434-1.1-3.817-1.65-4.15-1.65l-1,0.1
		c1.2-4.5,1.8-7.1,1.8-7.8c0-0.867-0.3-2.083-0.9-3.65c1.066,0.367,1.917,0.417,2.55,0.15c0.533-0.2,0.8-0.517,0.8-0.95
		c0-1.733-0.55-2.85-1.65-3.35c-1.267-0.533-2.066-2.1-2.4-4.7l-0.05,5.55c-0.434-1.7-0.867-3.533-1.3-5.5
		c-0.867-3.967-1.383-7.1-1.55-9.4l0.45-1.15V48.5z M168.3,201.95h0.2c0,0.7,0.384,1.3,1.15,1.8c0.767,0.467,1.683,0.7,2.75,0.7
		c0.1,0.633,0.449,1,1.05,1.1c-0.134,1.934-0.233,4.617-0.3,8.05c-0.9-0.233-1.567-0.416-2-0.55c-0.767-0.233-1.351-0.6-1.75-1.1
		C168.267,210.517,167.9,207.184,168.3,201.95z M157.2,198.8l0.05-1.1c1,0.934,2.917,2.116,5.75,3.55
		c-0.833,3.634-1.45,6.4-1.85,8.3c-0.067,0.334-0.233,0.65-0.5,0.95c0.133-0.566,0.283-1.45,0.449-2.65
		c0.067-0.399,0.084-0.916,0.051-1.55c-0.034-0.6-0.117-1.066-0.25-1.399L160.6,204.3c-0.033-0.033-0.05-0.066-0.05-0.1l-0.2-0.3v-4
		L157.2,198.8z M28.75,127.35v1H27.7C28.2,127.95,28.55,127.616,28.75,127.35z M49.25,185L48,184.85
		c-0.2-0.033-0.383-0.066-0.55-0.1l-0.6-0.05c-0.9,0-2.1,0.233-3.6,0.7l-0.05-8.15c1.367,0,3.167,0.267,5.4,0.8
		C48.867,180.384,49.083,182.7,49.25,185z M136.7,232.15l-2-0.7c0.033-0.033,0.283-0.4,0.75-1.101
		c0.233-0.366,0.649-0.683,1.25-0.949V232.15z M124.325,227.1c-0.324,0.007-0.632,0.14-0.925,0.4c-0.167,0.1-0.284,0.233-0.351,0.4
		l0.101-0.4l0.449-0.4H124.325z"/>
	<path style="fill-rule:evenodd;clip-rule:evenodd;fill:#6D655A;" d="M111.05,216.45l1.8,1.05l-1.95,11.15
		c-0.133,4.333-0.367,7.116-0.7,8.35c-0.034,1.033-0.133,2.15-0.3,3.35c-0.267,1.667-0.583,2.784-0.95,3.351l-3.35,0.25l-0.1,2.85
		l-0.05,1.2c-0.7,0.5-1.383,0.8-2.05,0.9c-0.433,0.333-0.65,0.166-0.65-0.5c0-0.4,0.1-0.917,0.3-1.551
		c0.2-0.633,0.333-1.066,0.4-1.3l1.1-1.899l-0.8,0.25c0.367-2.934,0.417-5.801,0.15-8.601c-0.267-2.434-0.617-3.916-1.05-4.45
		l-0.25,0.851c-0.4,0.866-2.067,2.767-5,5.7c-1.333,1.399-2.067,3.166-2.2,5.3c-0.133,2.6-0.8,4.934-2,7l-1.65-0.101
		c0-0.733,0.1-2.366,0.3-4.899c0.167-2.533,0.25-4.283,0.25-5.25c0-0.533-0.417-3.55-1.25-9.05c-0.867-5.5-1.3-8.9-1.3-10.2
		c0-1.9,0.2-3.884,0.6-5.95L92.9,217c0.167,1.9,0.467,7.333,0.9,16.3c0.467-0.767,0.9-1.816,1.3-3.149
		c0.533-1.634,0.8-3.051,0.8-4.25c-0.167-5.233-0.233-8.384-0.2-9.45l1.2-0.65l1.75,9.15l0.4-0.7c0.233-1.9,0.483-5.066,0.75-9.5
		l1.55-0.1c4.066,0,6.583,1.767,7.55,5.3c0.567,2.1,0.983,5.934,1.25,11.5v0.3c0.3-1.434,0.533-3.816,0.7-7.15l0.05-1.399
		C111,219,111.05,216.75,111.05,216.45z M90.2,191.95c0.033,1.166,0.066,3.25,0.1,6.25c0,2.767-0.066,5.066-0.2,6.899
		c-1.333-6.399-2.133-10.8-2.4-13.199L90.2,191.95z M104.9,211.2c0.434-1.9,1.35-5.084,2.75-9.55c1.067-3.434,1.85-6.834,2.35-10.2
		l2.55-0.101c-0.233,1.367-0.533,2.7-0.9,4l-0.45,1.101c1.267-2.267,2.117-3.983,2.55-5.15l1.9-0.05c-0.1,2.833-0.316,6.4-0.65,10.7
		l-1.6,1.25c-1.967,1.7-3.183,2.8-3.65,3.3c-0.233,0.3-0.533,0.65-0.9,1.05c-1.033,0.867-1.583,2.334-1.65,4.4
		C106.8,211.884,106.033,211.634,104.9,211.2z M147.6,191.8c-0.133,0.566-0.433,1.267-0.899,2.101l-0.9,1.3l-0.75,0.85l-1.2-0.1
		l-6.399-0.65l-1.3-5.1l7.649-0.4C144.1,190.1,145.366,190.767,147.6,191.8z M30,49.85c0.1-1,0.3-2.067,0.6-3.2
		c1.367-2.733,2.4-4.583,3.1-5.55l0.1,3.45c0.034,4.667,0,9.967-0.1,15.9c-0.767,0.2-1.434,0.683-2,1.45
		c-0.833,1.033-1.25,2.3-1.25,3.8L30,69.75v0.05c-0.033,0.133-0.133,0.817-0.3,2.05l-0.25,0.5c0-0.567-0.05-1.15-0.15-1.75
		c-0.333-1.133-1.767-3.15-4.3-6.05c-2.367-2.767-3.55-4.367-3.55-4.8s0.05-0.717,0.15-0.85c0.167-0.1,0.283-0.2,0.35-0.3
		c0.733,1.333,1.767,2.767,3.1,4.3l0.1-0.15c2.633-0.4,4.2-2.15,4.7-5.25C29.883,53.8,29.933,51.25,30,49.85z M51.25,203.4
		l-0.85-0.051c-0.867,0.067-1.383,0.184-1.55,0.351c-0.533,0.467-0.917,0.767-1.15,0.899h-0.05c-0.2-2.433-1-4.017-2.4-4.75
		c-2.333-1.199-3.883-2.283-4.65-3.25c0.267,0.233,0.55,0.45,0.85,0.65l0.8,0.55c1.767,0.767,4.3,1.15,7.6,1.15
		c0.667,0,1.767-0.184,3.3-0.55c0.233-0.101,0.45-0.2,0.65-0.301l0.05-0.05v0.05c0,1.767-0.6,3.301-1.8,4.601
		C51.783,202.967,51.517,203.2,51.25,203.4z M103.9,191.6c-0.033,0.2-0.517,2.084-1.45,5.65c-1,3.6-1.717,5.684-2.15,6.25
		c-0.2-0.533-0.383-0.917-0.55-1.15L99.5,202.2c-0.4-4.667-0.533-8.167-0.4-10.5L103.9,191.6z M121,221.5
		c0.233,1.2,0.45,3.483,0.65,6.85c-0.567,0.233-1.267,0.733-2.101,1.5c1.2-2.6,0.95-4.716-0.75-6.35c-2.1-1.333-3.35-2.167-3.75-2.5
		c-0.3-0.634-0.617-1.566-0.95-2.8L121,221.5z M129.85,224.25c-1.533-0.233-2.816-0.05-3.85,0.55c-0.566,0.334-1.366,1.101-2.4,2.3
		l-0.449,0.4c0.233-0.8,0.583-1.75,1.05-2.85c0.467-0.967,0.717-1.517,0.75-1.65C127.384,223.667,129.017,224.083,129.85,224.25z
		 M138.05,225.25c6.601,0,11.084-0.217,13.45-0.65l0.3-0.05l2-0.8c-0.8,0.667-1.533,1.2-2.2,1.6l-0.1,0.051
		c-1.267,0.366-2.366,0.716-3.3,1.05c-1.834,0.633-2.983,1.233-3.45,1.8c-0.233,0.333-0.583,1.05-1.05,2.15
		c-0.533,1.199-0.851,2.017-0.95,2.449l-0.3,0.9c0.166-1.8-0.233-3.517-1.2-5.15C140.483,227.333,139.417,226.217,138.05,225.25z
		 M137.95,225.25c-0.267,0.1-0.717,0.134-1.351,0.1c-0.699-0.033-1.449-0.166-2.25-0.399L137.95,225.25z M91.15,212.25l1.55-1.9
		l0.05,2.2C92.217,212.55,91.683,212.45,91.15,212.25z"/>
	<path style="fill-rule:evenodd;clip-rule:evenodd;fill:#635B52;" d="M199.55,216.65c-0.1-2.9-0.283-5.817-0.55-8.75l1.2-0.2
		C200.134,211.434,199.917,214.417,199.55,216.65z M103.45,245.55c-0.2,0.634-0.7,1.816-1.5,3.55
		c-0.967,2.034-1.717,3.317-2.25,3.851c-0.667-0.066-2.467-0.101-5.4-0.101c-1.233,0-2.8-0.35-4.7-1.05
		c1.033-1.133,1.75-1.866,2.15-2.2l1.65,0.101c2.033,0.434,3.983-0.267,5.85-2.101c2.3-2.267,3.8-3.5,4.5-3.699l0.8-0.25
		L103.45,245.55z M42.55,217.8c-0.3-1.6-0.55-4.1-0.75-7.5l0.1-6.8l0.35,5.35l0.5,9.051L42.55,217.8z M36.75,185.4l0.4,32.649
		c-1.3,0.601-2.383,1.3-3.25,2.101c-0.5,0.466-1.333,1.267-2.5,2.399l-0.1-3.1c0-2.267,0.417-5.8,1.25-10.601
		c0.833-4.8,1.25-8.149,1.25-10.05c0-3.6-0.167-8.05-0.5-13.35c-0.433-6.233-0.75-11.167-0.95-14.8c0.1,0.433,0.55,1.183,1.35,2.25
		c0.966,1.267,1.883,2.133,2.75,2.6L36.75,185.4z M0.15,113.5L0.7,98.7v49.149c-0.067-0.233-0.2-1-0.4-2.3
		c-0.2-1.434-0.3-2.366-0.3-2.8C0.067,140.816,0.117,131.066,0.15,113.5z M18.95,64.5c0.1,1.233,0.167,1.967,0.2,2.2
		c0.1,0.5,0.283,0.867,0.55,1.1c0.6,1.567,0.9,2.784,0.9,3.65c0,0.7-0.6,3.3-1.8,7.8c-0.066,1.067-0.417,3.983-1.05,8.75l-0.1,0.9
		c0,0.1-0.1,1.033-0.3,2.8c-0.233,1.767-0.5,2.816-0.8,3.15L16.3,94.6c-0.5-1.3-1.017-3.1-1.55-5.4c-0.667-2.9-1-5.3-1-7.2
		c0.3-4.467,0.417-7.533,0.35-9.2c-0.1-2.733-1.033-4.1-2.8-4.1l-0.9,0.05l-0.2-3.65c1.633-1.233,2.55-2.117,2.75-2.65
		c0.3-0.833,0.367-3.15,0.2-6.95l1.4,10.85l-0.45-16.6l1.8,0.35l0.2-0.5c0.167,2.3,0.683,5.433,1.55,9.4
		C18.083,60.967,18.517,62.8,18.95,64.5z M146.7,193.9l1.399-1.9l0.7,0.2c-0.066,1.8-0.283,3.25-0.649,4.35l-1.25-0.2l-1.551-0.25
		l0.45-0.899L146.7,193.9z M13.15,134.25c0.1-0.866,0.283-3.316,0.55-7.35c0.233,3.4,0.083,6.45-0.45,9.15
		c-0.3,1.4-0.65,3.05-1.05,4.95l0.05-1.8C12.717,136.7,13.017,135.05,13.15,134.25z M113.75,191.3
		c-0.433,1.167-1.283,2.884-2.55,5.15l0.45-1.101c0.367-1.3,0.667-2.633,0.9-4L113.75,191.3z M133.1,195.3l-2,0.05
		c-0.699-3.066-1.05-4.683-1.05-4.85l2.851-0.15C132.934,191.25,133,192.9,133.1,195.3z M121.65,228.35
		c-0.2-3.366-0.417-5.649-0.65-6.85l3.95,1.5c-0.033,0.134-0.283,0.684-0.75,1.65c-0.467,1.1-0.816,2.05-1.05,2.85l-0.101,0.4
		l-0.7,3.5C122.083,230.8,121.85,229.783,121.65,228.35z M107.2,211.95c0.167,0.533,0.383,1.05,0.65,1.55l1.35,1.5l1.85,1.45
		c0,0.3-0.05,2.55-0.15,6.75l-0.05,1.399c-0.167,3.334-0.4,5.717-0.7,7.15v-0.3c-0.267-5.566-0.683-9.4-1.25-11.5
		c-0.967-3.533-3.483-5.3-7.55-5.3l-1.55,0.1l-2.9,1.05l-1.2,0.65c-0.2,0.166-0.467,0.383-0.8,0.649
		c-0.3,0.233-0.667,0.351-1.1,0.351c-0.4,0-0.633-0.05-0.7-0.15c-0.033-0.1-0.1-0.2-0.2-0.3l-2.55-2.75
		c-3.533-1.934-5.483-0.767-5.85,3.5c-0.067,0.9-0.1,1.983-0.1,3.25c-0.2-5.833-0.316-8.816-0.35-8.95
		c-0.133-0.566-0.533-1.116-1.2-1.649c-1.033-0.834-1.917-1.65-2.65-2.45c-0.1-0.134-0.2-0.25-0.3-0.351h0.2h0.7l1.35-0.149
		c1.667,0,3.067,0.483,4.2,1.45c1.867,1.6,3.467,2.716,4.8,3.35c0.533,0.2,1.067,0.3,1.6,0.3c0.967-0.166,2.15-0.633,3.55-1.399
		c1.167-0.601,2.4-0.9,3.7-0.9c0.733,0,2.367,0.316,4.9,0.95C106.033,211.634,106.8,211.884,107.2,211.95z M142,245.25l-0.2,0.05
		l0.101-2.3L142,245.25z M138.95,228.9c1.899-0.134,2.616,1.183,2.149,3.949c-0.267,1.467-0.816,3.351-1.649,5.65l-0.101-0.45
		C139.316,237.717,139.184,234.667,138.95,228.9z"/>
	<path style="fill-rule:evenodd;clip-rule:evenodd;fill:#8C847B;" d="M65.2,184.2l0.85-0.05l6,1.8c-5.6,0.1-9.133,0.149-10.6,0.149
		c-0.033,0-0.066,0-0.1,0h-0.2c-0.167-0.066-0.933-0.566-2.3-1.5c-0.5-0.333-0.917-0.616-1.25-0.85l-0.65-0.45
		c-0.267-0.233-0.45-0.399-0.55-0.5l0.9,0.101l1.95,0.25l0.95,0.149l0.8,0.2l0.45,0.25c0.333,0.167,0.583,0.35,0.75,0.55V183
		l0.1,0.05l0.05,1.101l0.7,0.05l0.35,0.05L65.2,184.2z M92.2,175.1l0.2,0.351c0.5,0.366,2.184,0.633,5.05,0.8
		c2.8,0.134,4.617,0.533,5.45,1.2c-1,0.899-4.217,1.883-9.65,2.95c-1.3,0.267-3.683,2.133-7.15,5.6
		c-1.133,0.1-3.083,0.116-5.85,0.05l-4.2-0.1c-0.733-0.9-1.1-1.816-1.1-2.75c0-1.233,0.917-2.15,2.75-2.75
		c0.767-0.267,2.8-0.667,6.1-1.2C88.4,178.45,91.2,177.066,92.2,175.1z M83.95,161.95l-0.1-1.101
		c1.167-0.166,1.983,0.017,2.45,0.551c0.267,0.333,0.4,0.733,0.4,1.199c0,2.567,0.767,4.301,2.3,5.2c1.133,0.7,3.2,1.117,6.2,1.25
		c4.466,0.233,7.433,0.467,8.9,0.7c3.867,0.6,7.383,1.783,10.55,3.55c-0.633,0.4-2.733,0.65-6.3,0.75
		c-5.833,0.167-11.217,0.5-16.15,1c0.267-0.533,0.4-1.116,0.4-1.75c0-0.767-0.367-1.45-1.1-2.05c-0.867-0.733-2.35-1.467-4.45-2.2
		l-2.45-5.55L83.95,161.95z M108.05,137.25c2.7,0.066,5.5-0.566,8.4-1.9c2.666-1.199,4.467-2.466,5.399-3.8
		c0.134,0.033,0.784,0.5,1.95,1.4c-0.7,1.467-2.184,2.649-4.45,3.55c-1.899,0.733-3.75,1.1-5.55,1.1L108.05,137.25z M100.15,141.65
		c1-1.967,1.517-2.983,1.55-3.051l-0.1,0.7c0.633,1.867,1.083,3.367,1.35,4.5c0,0.066-0.684,1.316-2.05,3.75
		c-1.733,2.5-3.566,3.967-5.5,4.4c-3.1,0.7-5.083,1.816-5.95,3.35c-0.733,1.3-1.65,1.95-2.75,1.95l-2.2-0.15
		c3.633-2.1,6.717-4,9.25-5.699c4.833-3.233,7.25-5.584,7.25-7.051c0-0.433-0.083-0.833-0.25-1.199
		c-0.067-0.101-0.3-0.467-0.7-1.101L100.15,141.65z M102.4,137.85l0.45-0.35l1.35-0.2L102.4,137.85z"/>
	<path style="fill-rule:evenodd;clip-rule:evenodd;fill:#D2C8BA;" d="M145.15,184.45l-0.15,0.1c-0.066,0.134-0.167,0.233-0.3,0.3
		c-0.033,0-0.066,0-0.101,0l-0.05,0.051c-0.6,0.1-4.833,1.066-12.7,2.899l-1.149,0.25c3.833,0,8-0.083,12.5-0.25
		c0.066,0.434,0.184,0.884,0.35,1.351c0.134,0.399,0.217,0.616,0.25,0.649l-7.649,0.4l-3.25,0.149l-2.851,0.15l-2.35,0.15
		l-12.05,0.6l-1.9,0.05l-1.2,0.05L110,191.45l-6.1,0.149l-4.8,0.101l-8.9,0.25l-2.5-0.05c-2.567-0.467-5.117-1.051-7.65-1.75
		c-2.3-0.667-3.483-1-3.55-1l-3.4-0.5l-3.75-0.551c-1.934-0.3-4.033-0.75-6.3-1.35l-1.2-0.4c0.167,0.067,0.283,0.117,0.35,0.15
		c-2.467-0.767-4.133-1.4-5-1.9c-0.934-0.533-1.567-1.233-1.9-2.1l1.05,0.3c0.1,0.101,0.3,0.267,0.6,0.5l0.65,0.45
		c0.333,0.233,0.75,0.517,1.25,0.85c1.367,0.934,2.133,1.434,2.3,1.5h0.2c0.035,0.001,0.085,0.019,0.15,0.051
		c5.567,0.833,10.783,1.383,15.65,1.649c3.467,0.2,8.383,0.3,14.75,0.3c7.133,0,15.617-0.6,25.45-1.8
		c9.167-1.133,21.351-3.017,36.551-5.649c-0.434,0.199-1.95,0.833-4.551,1.899C147.083,183.483,145.684,184.116,145.15,184.45z"/>
	<path style="fill-rule:evenodd;clip-rule:evenodd;fill:#756F68;" d="M118.2,127.15l1.2-3.9l0.149-0.65h0.101
		c1.166,1.3,1.833,2.117,2,2.45c0.366,0.867,0.55,2.434,0.55,4.7c0,0.434-0.033,0.75-0.101,0.95c-0.033,0.133-0.116,0.416-0.25,0.85
		c-0.933,1.334-2.733,2.601-5.399,3.8c-2.9,1.334-5.7,1.967-8.4,1.9l-1-0.1l-2.85,0.149l-1.35,0.2l0.2-0.15
		c1.167-0.699,2.9-1.333,5.2-1.899c1.233-0.3,2.817-0.667,4.75-1.101l1.7-0.6l0.75-0.35c1.1-0.733,1.684-1.517,1.75-2.351
		C117.3,129.55,117.634,128.25,118.2,127.15z M83.85,160.85l0.1,1.101l-0.45-1.4c-0.1-1-0.067-1.883,0.1-2.649
		c0.333-0.733,0.75-1.467,1.25-2.2c1.233-1.134,2.55-2.084,3.95-2.851l5.6-3.3l1.25-0.85c1.9-1.834,2.867-2.783,2.9-2.851
		c-0.133-0.066,0.15-0.683,0.85-1.85l0.45-1.45l0.2-0.5c0.4,0.634,0.633,1,0.7,1.101c0.167,0.366,0.25,0.767,0.25,1.199
		c0,1.467-2.417,3.817-7.25,7.051c-2.533,1.699-5.617,3.6-9.25,5.699C84.133,158.134,83.917,159.384,83.85,160.85z M79.6,179.1
		l1.95-0.85c2.467-1.366,3.833-2.15,4.1-2.35l0.5-0.45c0.533-0.634,0.95-1.167,1.25-1.601c0.533-0.733,0.8-1.483,0.8-2.25
		c0-0.433-0.067-0.75-0.2-0.949c-0.267-0.434-0.583-0.967-0.95-1.601c2.1,0.733,3.583,1.467,4.45,2.2c0.733,0.6,1.1,1.283,1.1,2.05
		c0,0.634-0.133,1.217-0.4,1.75h-0.05l0.05,0.05c-1,1.967-3.8,3.351-8.4,4.15c-3.3,0.533-5.333,0.934-6.1,1.2
		c-1.833,0.6-2.75,1.517-2.75,2.75c0,0.934,0.367,1.85,1.1,2.75l0.05,0.1l0.9,1.4l-4.95-1.5l-6-1.8
		c0.133-0.034,0.267-0.067,0.4-0.101c0.733-0.133,1.517-0.283,2.35-0.45l0.65-0.199c0.633-0.233,1.216-0.434,1.75-0.601
		c0.867-0.267,1.316-0.399,1.35-0.399C73.317,182.1,75.667,181,79.6,179.1z"/>
</g>
</svg>
