<?xml version="1.0" encoding="iso-8859-1"?>
<!-- Generator: Adobe Illustrator 15.1.0, SVG Export Plug-In . SVG Version: 6.00 Build 0)  -->
<!DOCTYPE svg PUBLIC "-//W3C//DTD SVG 1.1//EN" "http://www.w3.org/Graphics/SVG/1.1/DTD/svg11.dtd">
<svg version="1.1" id="Layer_1" xmlns="http://www.w3.org/2000/svg" xmlns:xlink="http://www.w3.org/1999/xlink" x="0px" y="0px"
	 width="177.05px" height="166.05px" viewBox="0 0 177.05 166.05" style="enable-background:new 0 0 177.05 166.05;"
	 xml:space="preserve">
<g>
	<path style="fill-rule:evenodd;clip-rule:evenodd;fill:#B3AA9E;" d="M174.25,55.5l-5-1c-0.333,0.333-0.566,0.667-0.7,1
		c0.533,0.6,1.45,0.967,2.75,1.1c1.066,0.1,2.084,0.05,3.05-0.15C174.35,56.017,174.316,55.7,174.25,55.5z M69.55,56.05
		c0.733-0.133,1.233-0.267,1.5-0.4c1.1-0.467,1.833-1.117,2.2-1.95c0.2-0.534,0.367-1.567,0.5-3.1l0.2-3
		c0.9-0.5,2.333-1.067,4.3-1.7c2-0.633,3.333-1.133,4-1.5c2.7-1.433,4.533-2.283,5.5-2.55c1.667-0.233,2.9-0.483,3.7-0.75
		c1.066,0,2.149-0.05,3.25-0.15c0.133-0.833,0.184-1.9,0.149-3.2c-0.066-1.467-0.1-2.55-0.1-3.25l-4.5-2.5
		c0.167,0.3,0.533,0.917,1.1,1.85c0.467,0.9,0.684,1.65,0.65,2.25l-4.75,0.4c-1.1,0-2.4-0.117-3.9-0.35
		c-0.9-0.133-2.217-0.367-3.95-0.7c0.367,0.066,1.833,0.533,4.4,1.4c-0.867,0.033-2.083,0.083-3.65,0.15
		c-0.433,0.033-1.117,0.05-2.05,0.05c-0.767,0.067-1.4,0.25-1.9,0.55c-0.3,0.2-0.75,0.667-1.35,1.4c-0.533,0.7-1.067,1.183-1.6,1.45
		c-1.2,0.6-3.367,1.316-6.5,2.15c-2.833,0.767-4.967,1.583-6.4,2.45l-0.2,0.05c-2.167-0.133-3.7-0.017-4.6,0.35l-0.9-0.1l0.2-0.3
		c0.433-0.5,1.417-0.816,2.95-0.95c1.733-0.067,2.85-0.133,3.35-0.2c-0.733-0.467-1.8-0.65-3.2-0.55c-1.133,0.133-2.2,0.4-3.2,0.8
		c-1,0.367-1.567,0.567-1.7,0.6c-0.367,0.033-0.95-0.05-1.75-0.25h-0.05l-1.6-1.45c-0.167-0.2-0.566-0.767-1.2-1.7
		c-0.4-0.6-0.934-1.05-1.6-1.35c-1.167-0.5-3.133-1.233-5.9-2.2c-2.6-0.933-4.583-1.7-5.95-2.3c-2.1-0.9-3.233-1.4-3.4-1.5
		c-0.9-0.633-1.35-1.633-1.35-3c0.067-1.9,0.75-3.4,2.05-4.5c1.1-0.767,1.883-1.333,2.35-1.7c0.8-0.667,1.317-1.517,1.55-2.55
		c0.1-0.5,0.1-1.433,0-2.8c-0.1-1.2-0.017-2.1,0.25-2.7c0.7-1.5,2.417-2.417,5.15-2.75c1.2-0.133,3.283-0.133,6.25,0
		c3.333,0.267,5.833,0.433,7.5,0.5c2.9,0.133,5.383-0.017,7.45-0.45c1.833-0.533,3.133-0.883,3.9-1.05
		c1.233-0.267,2.517-0.25,3.85,0.05c4.034,0.934,7.9,1.883,11.6,2.85c1.333,1.1,2.733,2.067,4.2,2.9c1.733,1,3.917,2.034,6.55,3.1
		l0.149,0.05c1.233,0.833,2.517,1.483,3.851,1.95c0.899,0.333,1.449,0.55,1.649,0.65c0.267,0.133,0,0.034-0.8-0.3l2.85,1.45
		c1.601,0.833,3.717,2.15,6.351,3.95l8,6.55c0.267,0.833,0.383,1.583,0.35,2.25c-0.399,0.167-1.383,0.267-2.95,0.3
		c-1.3,0.067-2.199,0.3-2.699,0.7c-0.4,0.367-0.534,1.017-0.4,1.95c0.134,1.067,0.116,1.75-0.05,2.05c-0.4,0.867-1.3,1.517-2.7,1.95
		c-0.767,0.233-1.884,0.483-3.35,0.75c-1.233,0.333-1.917,0.733-2.051,1.2c-0.6,0.066-1.05,0.267-1.35,0.6
		c-0.333,0.4-0.5,0.933-0.5,1.6c0,0.4,0,0.983,0,1.75l-0.7,0.2H98.2c-5.867-0.1-10.784,0.717-14.75,2.45
		c1.833,0.267,5.5,0.517,11,0.75c4.767,0.167,8.45,0.566,11.05,1.2c-0.333-0.633-0.384-1.233-0.15-1.8
		c0.267-0.033,0.667-0.033,1.2,0c0.566,0.033,0.967,0.017,1.2-0.05c0.6-0.133,1.15-0.45,1.65-0.95c0.566-0.6,1.033-0.983,1.399-1.15
		c0.834-0.333,1.834-0.367,3-0.1c0.934,0.2,1.8,0.55,2.601,1.05c0.333,0.2,0.767,0.567,1.3,1.1c0.5,0.4,1,0.55,1.5,0.45
		c0.066-1.067,0.083-1.85,0.05-2.35c0.8-0.167,2-0.283,3.6-0.35c-1.933,0.6-2.616,1.567-2.05,2.9c0.434,0.934,1.884,1.45,4.351,1.55
		c2.733-0.067,4.383-0.117,4.949-0.15c1.067-0.033,1.917-0.25,2.551-0.65c1.199-0.833,1.899-1.3,2.1-1.4l-1-2
		c-0.4-0.267-1.217-0.483-2.45-0.65c-1.267-0.2-2.6-0.283-4-0.25c1.733-0.6,2.733-2.117,3-4.55c0.167-1.767,0.25-3.367,0.25-4.8
		c0.934-0.167,1.867-0.4,2.8-0.7c0.534,0.233,7.5,1.217,20.9,2.95c3.634,0.867,5.866,1.65,6.7,2.35c0.566,0.5,2.833,1.05,6.8,1.65
		c0.533,0.067,1.533,0.883,3,2.45c1.434,1.466,2.434,2.183,3,2.15l3.25,2.6c0.167,3.066-0.116,6.8-0.85,11.2
		c-0.7,4.434-1.5,7.3-2.4,8.6c-1.3,1.933-3.483,4.233-6.55,6.9c-2.134,1.8-4.134,3.25-6,4.35c0.033-0.366,0.083-0.684,0.149-0.95
		c0.134-0.666,0.267-1.267,0.4-1.8l0.1-0.3c0.134-0.534,0.25-1.067,0.351-1.6c0-0.167,0.017-0.3,0.05-0.4v-0.075
		c0.004-0.092,0.021-0.167,0.05-0.225c0-0.167,0.017-0.316,0.05-0.45c0.034-0.333,0.051-0.6,0.051-0.8c0-0.033,0-0.066,0-0.1
		c0-0.733-0.067-1.417-0.2-2.05c-0.134-0.533-0.334-1.033-0.601-1.5c-0.033-0.033-0.05-0.067-0.05-0.1l-0.25-0.35
		c-0.066-0.1-0.116-0.183-0.149-0.25c-0.167-0.167-0.317-0.316-0.45-0.45c-0.101-0.1-0.184-0.167-0.25-0.2l-0.05-0.1
		c-0.067-0.033-0.117-0.066-0.15-0.1c-0.733-0.6-1.7-1.15-2.9-1.65l-2.199-1.2l-0.75-0.45l-1.351-0.75l-0.2-0.1
		c-0.899-0.433-2.183-0.65-3.85-0.65c-0.9,0-2.233,0.05-4,0.15c-0.967,0-2.434-0.017-4.4-0.05c-1.666,0.033-3.083,0.183-4.25,0.45
		c-0.666,0.167-1.35,0.383-2.05,0.65c0.9-2.833,1.75-5.184,2.55-7.05c-0.466,0.2-1.267,0.483-2.399,0.85
		c-1.101,0.333-1.917,0.617-2.45,0.85c-0.8,0.4-1.917,1.117-3.35,2.15c-1.5,0.934-3.65,1.434-6.45,1.5
		c-3.566,0.067-5.851,0.217-6.851,0.45c-0.066,0.467-0.066,1.45,0,2.95c-1.199,0.667-2.649,0.934-4.35,0.8
		c-0.5-0.033-1.267-0.15-2.3-0.35c0.166-0.7,0.3-1.383,0.399-2.05L109.4,69c0-0.133,0.017-0.267,0.05-0.4l0.05-4.2
		c-0.066-0.633-0.184-1.217-0.35-1.75c-0.2-0.633-0.45-1.183-0.75-1.65l-3-0.5l-0.101-0.85c-0.133-0.033-0.25-0.066-0.35-0.1
		c-0.4-0.1-0.8-0.183-1.2-0.25l-6.45-0.65l-1.774,0.05c-0.184,0-0.375,0-0.575,0c-1.101,0.066-2.134,0.183-3.101,0.35l-6.7,2.2
		c-1.566-0.833-3.367-1.6-5.4-2.3c-1.533-0.5-3.883-1.15-7.05-1.95c-0.133-0.033-0.633-0.2-1.5-0.5
		C70.5,56.233,69.95,56.083,69.55,56.05z M118.3,38.8c-0.833-0.533-1.566-1.083-2.2-1.65c1.567,1.3,3.217,2.333,4.95,3.1
		C120.25,39.917,119.333,39.433,118.3,38.8z M122.6,89.85c0.101-0.733,0.2-1.483,0.301-2.25c0.6,0.634,0.949,1.034,1.05,1.2
		c0.033,0.033,0.066,0.066,0.1,0.101C123.55,89.167,123.066,89.483,122.6,89.85z M119.9,93.15c-0.5,0.966-0.884,1.833-1.15,2.6
		L118.7,96c-0.233,0.566-0.533,1.616-0.9,3.15c-0.133,0.6-0.267,1.133-0.399,1.6c-0.034,0.033-0.051,0.066-0.051,0.1
		c0,0.067-0.017,0.117-0.05,0.15c-0.066,0.167-0.133,0.333-0.2,0.5c-0.1,0.267-0.216,0.5-0.35,0.7c0.066-0.434,0.134-0.851,0.2-1.25
		l0.899-8.15c0.034-0.333,0.051-0.666,0.051-1c0.133-3.066,0.199-5.366,0.199-6.899l0.051,0.3c0.233,0.967,0.6,2.3,1.1,4
		C119.616,90.667,119.833,91.983,119.9,93.15z M107.1,100.7l0.051-1.8l0.3,4.75l-0.4,0.1L107.1,100.7z M68.5,131.65
		c0.003,0.868,0.037,1.901,0.1,3.1l0.15,3.4c0,3.267-0.483,6.85-1.45,10.75c-0.133,0.033-0.267,0.05-0.4,0.05
		c0-1.767-0.083-3.167-0.25-4.2c-0.1-0.7-0.483-1.616-1.15-2.75l-0.05-4.45l-0.7-0.2c0.567-1.566,0.917-2.649,1.05-3.25
		c0.067-0.166,0.217-1.383,0.45-3.649l0.2,0.899L67,128.65l0.65-0.2c0.1,0.866,0.283,1.483,0.55,1.85l0.3,0.2V131.65z M13.1,1.1
		c-1.833,0.367-3.367,0.816-4.6,1.35c0.533-0.267,1.117-0.5,1.75-0.7C11.117,1.483,12.067,1.267,13.1,1.1z M63.4,6.05L59.9,5.1
		c1.367,0.333,2.883,0.75,4.55,1.25C64.083,6.25,63.733,6.15,63.4,6.05z M153.6,57.85L153.4,58c1.533,0.4,3.116,0.7,4.75,0.9
		c2.1,0.267,4.183,0.317,6.25,0.15L164.85,59v-0.1c0.267-0.033,0.601-0.15,1-0.35l-0.1-2.05l-3-2c-0.8,0.433-2.017,0.65-3.65,0.65
		c-0.899,0.033-2.116,0-3.649-0.1c-0.233,0-1.5-0.117-3.8-0.35c-2.301-0.133-3.717-0.067-4.25,0.2c0.5,0.633,1.183,1.167,2.05,1.6
		c0.533,0.267,1.366,0.567,2.5,0.9L153.6,57.85z M170,61.15c-0.434,0.467-0.517,0.934-0.25,1.4c0.4,0.767,1.083,0.917,2.05,0.45
		c1-0.433,1.316-1.1,0.95-2l-1.5-0.5C170.783,60.5,170.366,60.717,170,61.15z M165.25,64l-3-0.5c-0.833,0.3-1.4,0.85-1.7,1.65
		c0.2,0.5,0.634,0.9,1.3,1.2c0.834,0.267,1.417,0.483,1.75,0.65c-0.6,1.233-2.916,1.817-6.949,1.75c-4-0.1-6.167-0.883-6.5-2.35
		c0.466,2.434,2.8,3.95,7,4.55c2.8,0.433,5.833,0.433,9.1,0C166.55,68.55,166.217,66.233,165.25,64z M169.75,66.5
		c-0.167,0.633,0,0.967,0.5,1L169.75,66.5z M136.75,46c-0.767-0.167-1.45-0.017-2.05,0.45c0.066,1.066,0.967,1.633,2.7,1.7
		c2-0.1,3.283-0.15,3.85-0.15L136.75,46z M150.55,48.75c0.5,0.633,1.066,0.883,1.7,0.75l-1.5-2
		C150.083,47.733,150.017,48.15,150.55,48.75z M63.35,45l-0.1,0.05l-1.1,0.1L63.3,45H63.35z M81.25,41.05
		c-0.833-0.2-1.65-0.316-2.45-0.35c1.333-0.5,2.85-0.917,4.55-1.25c1.633,0.8,3.55,1.316,5.75,1.55
		C86.767,41.1,84.15,41.117,81.25,41.05z M89.55,41.05l-15.3,4.35c0.033-0.333,0.133-0.65,0.3-0.95c3.3-0.8,5.767-1.417,7.4-1.85
		c2.933-0.7,5.433-1.217,7.5-1.55H89.55z M83.75,31.5c-0.2,0.167-0.933,0.583-2.2,1.25c-1.066,0.7-1.5,1.3-1.3,1.8
		s1.283,0.733,3.25,0.7c2.1-0.133,3.35-0.217,3.75-0.25v-3L83.75,31.5z M81.25,28c-0.6,0.533-1.633,0.9-3.1,1.1
		c-1.533,0.233-2.55,0.533-3.05,0.9c0.7,0.7,2.267,1.017,4.7,0.95c2.534-0.034,3.684-0.684,3.45-1.95L81.25,28z M89.25,49l3.5-4
		c-0.3,0.1-1.9,0.517-4.8,1.25c-2.733,0.8-4.034,1.567-3.9,2.3c0.6,0.367,1.45,0.55,2.55,0.55C87.833,49.033,88.717,49,89.25,49z
		 M99.55,41.65c1.267,0.067,2.667-0.15,4.2-0.65l-1-4c-1.1-0.133-2.167-0.033-3.2,0.3c-1.333,0.434-2.1,1.133-2.3,2.1
		C96.95,40.833,97.717,41.583,99.55,41.65z M108.75,34l0.5-1c-0.533-0.033-1.684-0.2-3.45-0.5c-1.633-0.2-2.8-0.133-3.5,0.2
		c0.4,0.867,1.384,1.35,2.95,1.45C105.616,34.183,106.783,34.133,108.75,34z M116.25,59.1c0.167,1.066,1.417,1.7,3.75,1.9
		c0.7,0.067,2.283,0.067,4.75,0l-1-2c-0.767,0-2.017-0.033-3.75-0.1C118.467,58.867,117.217,58.933,116.25,59.1z M81.35,64.45
		l-0.15,0.2c-0.167,0.133-0.3,0.267-0.4,0.4c-0.633,0.767-1.15,1.55-1.55,2.35l-0.85,2.35c-0.033,0.067-0.05,0.15-0.05,0.25
		c-0.434,2.5,0.333,4.75,2.3,6.75c0.8,0.833,1.917,1.683,3.35,2.55c0.067,0.034,0.133,0.067,0.2,0.1l0.15,0.1
		c0.167,0.1,0.35,0.217,0.55,0.35l0.05,25.4c0,6.233-0.017,10.233-0.05,12c-0.1,4.566-0.316,8.566-0.65,12l-0.65-0.1l-0.25-2.301
		c-0.133-1.267-0.583-2.283-1.35-3.05c-1.067-0.866-1.933-1.633-2.6-2.3c-1.5-1.5-2.483-3.15-2.95-4.95
		c-0.333-1.267-0.5-3.184-0.5-5.75c0-7.967-0.3-14.883-0.9-20.75c-0.066-0.866-0.117-1.983-0.15-3.35
		c0.367-0.101,0.733-0.233,1.1-0.4c-0.033-0.267-0.117-0.517-0.25-0.75c0.5-0.1,0.917-0.25,1.25-0.45
		c0.067-0.066,0.133-0.116,0.2-0.149c0.066-0.033,0.117-0.066,0.15-0.101c0.066,0,0.167-0.083,0.3-0.25
		c0.5-0.466,0.85-1.083,1.05-1.85c0.133-0.133,0.267-0.283,0.4-0.45c0.7-0.9,0.983-2.283,0.85-4.15l-5.3-0.6L74.45,76
		c-0.133-0.9-0.417-2.067-0.85-3.5c-0.633-2.067-0.983-3.233-1.05-3.5c-0.667-2.667-1.05-5.867-1.15-9.6
		c0-0.6,0.017-1.183,0.05-1.75C73.55,58.917,76.85,61.183,81.35,64.45z M69.65,49.65l0.15,1.55l-0.1,0.25L69.65,49.65z M109.3,57.15
		c-0.8-0.367-2.066-0.783-3.8-1.25c0.366,0.7,0.934,1.2,1.7,1.5C108.033,57.7,108.733,57.617,109.3,57.15z M107.05,78.8
		c0.533,0.233,1.084,0.467,1.65,0.7l1.45,0.65l1.949,0.9c-1.767-0.767-3.366-1.433-4.8-2c-0.1-0.066-0.184-0.117-0.25-0.15
		C107.05,78.867,107.05,78.833,107.05,78.8z M102.05,87.05l0.55,0.4l-4.6,0.6c-0.267,4.533-0.4,9.867-0.4,16
		c-0.033,1.667-0.05,3.717-0.05,6.15c-0.133-6.3-0.366-13.65-0.7-22.05c-0.399,0-1.116-0.034-2.149-0.101
		c-0.9-0.033-1.667-0.116-2.3-0.25c-0.267,0.5-0.634,0.867-1.101,1.101c-0.8,0.366-1.533,0.316-2.2-0.15c-0.633-0.4-1.033-1-1.2-1.8
		c-0.3-1.334,0.183-2.3,1.45-2.9c1.301-0.566,2.334-0.383,3.101,0.55c1.333,0,2.767,0.184,4.3,0.551L96.7,83.5
		c0.434,0,0.783,0,1.05,0l0.55,0.2l-0.149,1.8C99.75,85.934,101.05,86.45,102.05,87.05z M120.7,81.6h0.05
		c0,0.033-0.017,0.066-0.05,0.1V81.6z M157.25,50c-0.366,0-1.25-0.067-2.65-0.2c-1.199,0.034-1.833,0.417-1.899,1.15
		c1.2,1.767,3.717,2.45,7.55,2.05L157.25,50z M146.85,64.4c0.934,1.167,3.5,2.184,7.7,3.05c4.367,0.9,6.267,0.25,5.7-1.95l-8-4
		c-1.1-0.067-2.15,0.15-3.15,0.65C147.967,62.683,147.217,63.433,146.85,64.4z M141.7,57.45c0.233-1.267,0.55-2.184,0.95-2.75
		c-2.267,2.333-4.2,5.367-5.801,9.1c2.034-0.767,3.384-1.933,4.051-3.5C141.134,59.8,141.4,58.85,141.7,57.45z M64.55,23.5
		l-1.85-0.05c0.466,0.1,2.433,0.566,5.9,1.4c2.4,0.566,4.383,0.933,5.95,1.1c1.4,0.133,2.2,0.216,2.4,0.25
		c1.2,0.066,1.983-0.034,2.35-0.3c0.8-0.533,1.184-1.566,1.15-3.1c-0.067-1.566-0.633-2.333-1.7-2.3l0.5,3.5
		c-0.3-0.2-0.75-0.383-1.35-0.55c0.067-0.034,0.184-0.184,0.35-0.45l-7-0.5H70.2c3.833-0.4,5.517-1.733,5.05-4l-5.5-3
		c-1.1-0.033-3.067,0.25-5.9,0.85c-0.467,0.1-2.5,0.4-6.1,0.9c-3.3,0.633-4.883,1.517-4.75,2.65c0.633,0.4,1.85,0.833,3.65,1.3
		c1.9,0.5,3.917,0.883,6.05,1.15C63.3,22.85,63.917,23.233,64.55,23.5z M76.75,18.5c0.067,0.767,0.767,1.167,2.1,1.2
		c1.333,0.066,1.967-0.333,1.9-1.2H76.75z M45.1,15.95c-0.867,0-1.6,0.05-2.2,0.15c-0.633,1.133-0.183,1.883,1.35,2.25
		c0.9,0.2,2.067,0.25,3.5,0.15l-0.5-2.5C46.783,16,46.067,15.983,45.1,15.95z M57.3,29.7c-0.167,0.466-0.183,0.883-0.05,1.25
		c0.6,0.133,1.35,0.183,2.25,0.15c1.033-0.067,1.783-0.1,2.25-0.1l-0.5-1.5c-0.467,0-1.15-0.017-2.05-0.05
		C58.467,29.483,57.833,29.567,57.3,29.7z M53.1,33.3c-1.167,0.367-1.583,0.95-1.25,1.75c0.333,0.667,1.883,1.034,4.65,1.1
		c0.4,0,2.15-0.05,5.25-0.15l-6-3C54.783,32.967,53.9,33.067,53.1,33.3z M46.8,63.9c-0.3-0.5-0.633-1.017-1-1.55
		c-0.066-0.067-0.117-0.133-0.15-0.2c-0.167-0.233-0.333-0.433-0.5-0.6c-0.167-0.2-0.333-0.4-0.5-0.6c-0.467-0.467-0.767-0.8-0.9-1
		c-0.2-0.267-0.4-0.667-0.6-1.2c-0.033-0.133-0.066-0.267-0.1-0.4c-0.167-0.767-0.233-1.8-0.2-3.1c0.066-1.6,0-2.767-0.2-3.5
		c-0.233-0.8-0.417-1.267-0.55-1.4c-0.033-0.033-0.267-0.067-0.7-0.1c-0.167-0.033-0.35-0.067-0.55-0.1c-0.1,0-0.417,0-0.95,0
		c-0.1,0-0.2-0.017-0.3-0.05c-0.133-0.067-0.267-0.167-0.4-0.3l-0.5-1.55c-0.167-0.567-0.333-1.15-0.5-1.75
		c-0.167-0.467-0.333-0.933-0.5-1.4c0.533,0,1.066,0,1.6,0l-0.05,0.35c0.167,0.033,0.333,0.083,0.5,0.15
		c0.4,0.233,0.75,0.65,1.05,1.25c0.034,0.066,0.067,0.133,0.1,0.2c0,0.034,0.017,0.05,0.05,0.05c0.133,0.367,0.3,0.833,0.5,1.4
		c0.033,0.133,0.083,0.283,0.15,0.45c0.333,0.933,0.783,1.767,1.35,2.5c0.1,0.133,0.267,0.3,0.5,0.5c0.167,0.133,0.316,0.3,0.45,0.5
		v0.05c0.033,0.067,0.067,0.133,0.1,0.2c0,1,0.033,2,0.1,3c-0.167,1.633-0.2,2.716-0.1,3.25c0.133,0.6,0.35,1.066,0.65,1.4
		c0.067,0.066,0.133,0.15,0.2,0.25c0.167,0.233,0.417,0.517,0.75,0.85l0.15,0.15c0,0.033,0.017,0.066,0.05,0.1
		c0.034,0.033,0.067,0.083,0.1,0.15c0.033,0.1,0.083,0.2,0.15,0.3l0.2,0.3C46.45,62.883,46.633,63.367,46.8,63.9z M53.05,47.55
		c-0.466,2.267-0.783,4.684-0.95,7.25c0,0.034,0,0.067,0,0.1l-0.15,3.65c0,0.167,0,0.35,0,0.55c-1.133,0.733-1.667,2.017-1.6,3.85
		l0.05,0.2c0.067,0.467,0.233,0.867,0.5,1.2L51,64.5c0.2,0.2,0.483,0.4,0.85,0.6c0.033,0,0.066,0.017,0.1,0.05H52
		c0,0.133,0,0.267,0,0.4l0.05,1.55c0.133,3.533,0.05,7.383-0.25,11.55l-0.4,3.85c-0.333,3.066-0.8,6.3-1.4,9.7l-0.05,0.35
		c0,0.033,0,0.084,0,0.15l-0.1,0.6c-0.065,0.261-0.115,0.536-0.15,0.825V94.4c-0.067,0.399-0.117,0.816-0.15,1.25l-0.15,1
		c0,0.066,0,0.133,0,0.199l-0.35,3.851c-0.033,0.1-0.05,0.2-0.05,0.3v0.65l-0.05,0.399c0,0.167,0,0.351,0,0.55v13.25
		c0.033,0.233,0.066,0.483,0.1,0.75l0.15,1.301c0.1,0.633,0.2,1.267,0.3,1.899l0.3,1.25c0.267,1.2,0.617,2.434,1.05,3.7
		c0.167,0.467,0.35,0.95,0.55,1.45c0.167,0.399,0.333,0.816,0.5,1.25l0.1,1c0.1,0.434,0.217,0.899,0.35,1.399
		c0.367,1.334,0.95,2.75,1.75,4.25c0.8,1.5,1.5,3.551,2.1,6.15v0.05c0.066,0.3,0.133,0.601,0.2,0.9l-0.05-0.05l-0.15-0.5
		c-0.067-0.233-0.133-0.45-0.2-0.65c-0.133-0.3-0.233-0.566-0.3-0.8l-0.75-1.851c-0.034-0.033-0.05-0.066-0.05-0.1
		c-0.033-0.066-0.05-0.134-0.05-0.2c-0.033-0.033-0.067-0.083-0.1-0.149l-0.3-0.551c-0.067-0.966-0.217-1.633-0.45-2
		c-0.2,0.467-0.05,1.134,0.45,2l0.1,1.5c0,0.134,0.017,0.267,0.05,0.4c0.033,0.866,0.05,1.884,0.05,3.05
		c0,0.767-0.017,1.917-0.05,3.45c0.033,0.9-0.017,2.184-0.15,3.85c-0.133,1.767-0.2,3.051-0.2,3.851c0,0.399,0.033,1.1,0.1,2.1
		c0.033,0.4,0.066,0.884,0.1,1.45c0,1.634-0.284,2.717-0.85,3.25c-0.4,0.4-0.783,0.6-1.15,0.6c0.2-0.333,0.283-0.916,0.25-1.75
		c-0.034-0.566-0.05-1.017-0.05-1.35c-0.033-0.2-0.05-0.35-0.05-0.45c0-0.967,0.1-2.2,0.3-3.7c0.267-2,0.417-3.25,0.45-3.75
		c0.233-1.899,0.383-3.366,0.45-4.399c0.067-1.8-0.1-3.25-0.5-4.351c-0.2-0.533-0.55-1.116-1.05-1.75
		c-0.733-0.866-1.15-1.383-1.25-1.55c-0.667-1.066-1.217-3.05-1.65-5.95c-0.133-1.333-0.267-2.333-0.4-3
		c-0.2-1.166-0.534-2.083-1-2.75c-0.567-0.466-0.934-0.899-1.1-1.3c-0.233-0.5-0.35-1.2-0.35-2.1c0.067-1,0.1-1.733,0.1-2.2v-6.35
		v-7.4c0-2.8,0.3-5.866,0.9-9.2c0.167-0.833,0.55-1.916,1.15-3.25c0.633-1.467,1.033-2.517,1.2-3.149
		c0.2-0.667,0.267-1.534,0.2-2.601c-0.066-1.233-0.1-2.116-0.1-2.649c0-0.601,0-1.217,0-1.851c-0.067-1.4-0.15-2.9-0.25-4.5
		c-0.034-0.2-0.05-0.433-0.05-0.7c-0.167-1.533-0.45-3.65-0.85-6.35c0-0.2,0-0.4,0-0.6l-0.05-3.8c-0.1-2.167-0.267-4.067-0.5-5.7
		l-0.3-1.85c-0.1-0.533-0.184-1.083-0.25-1.65c-0.034-0.333-0.05-0.65-0.05-0.95c-0.033-0.5-0.05-1-0.05-1.5
		c0.033-0.633,0.117-1.017,0.25-1.15c0.033-0.033,0.367-0.216,1-0.55c0.5-0.233,0.85-0.4,1.05-0.5c0.333-0.2,0.6-0.45,0.8-0.75
		c0.4-0.6,0.566-1.783,0.5-3.55c0-0.233-0.05-0.967-0.15-2.2c-0.367-0.133-0.733-0.267-1.1-0.4
		C50.95,46.683,51.983,47.083,53.05,47.55z M63.9,53.5c-1.967-1.167-4.267-2.533-6.9-4.1c1.067,0.567,2.25,1.2,3.55,1.9
		c2,1.167,4.717,2.784,8.15,4.85l0.9,0.5c-0.633-0.333-1.367-0.717-2.2-1.15C66.367,54.933,65.2,54.267,63.9,53.5z M37.45,24.65
		c-0.267,0.467-0.067,1.033,0.6,1.7c0.633,0.667,1.4,1.1,2.3,1.3c1,0.2,1.8-0.017,2.4-0.65l-2.5-3
		C38.717,23.9,37.783,24.117,37.45,24.65z M12.95,37.2c-0.133-0.1-0.267-0.2-0.4-0.3c0.233,0.167,0.483,0.333,0.75,0.5
		C13.167,37.333,13.05,37.267,12.95,37.2z M29.7,44.05c-0.2-0.033-0.383-0.083-0.55-0.15c0.3,0.067,0.617,0.15,0.95,0.25
		C29.967,44.117,29.833,44.083,29.7,44.05z M22.1,41.6c-0.2-0.067-0.383-0.133-0.55-0.2c-0.233-0.1-0.45-0.2-0.65-0.3
		C21.267,41.267,21.667,41.433,22.1,41.6z M47.95,164.75l-0.05-1.4c0-0.433,0-0.883,0-1.35c0.033-5.1,0.467-10.866,1.3-17.3
		c0.066-1.033,0.15-1.9,0.25-2.601c0.167-1.267,0.45-2.133,0.85-2.6v0.05c-0.3,1.934-0.466,4.65-0.5,8.15
		c-0.033,3.866-0.133,6.583-0.3,8.149c-0.1,1.334-0.2,2.434-0.3,3.301c-0.1,0.833-0.184,1.449-0.25,1.85
		c-0.034,0.267-0.117,0.866-0.25,1.8c-0.167,0.9-0.35,1.483-0.55,1.75L47.95,164.75z M50.7,145.75c0.033-1.467,0.033-2.7,0-3.7
		c-0.034-0.533-0.067-0.983-0.1-1.35l0.1-0.25c0.066,0.233,0.117,0.517,0.15,0.85C50.917,142.3,50.867,143.783,50.7,145.75z
		 M84.15,129.95l-0.2,1.85l-0.25-1.649L84.15,129.95z M50.6,149.1c0.1,1.367,0.3,2.601,0.6,3.7c0.233,0.934,0.45,2.101,0.65,3.5
		c0.133,0.8,0.3,1.983,0.5,3.55c-0.6-0.033-1.033-0.483-1.3-1.35c-0.367-1.167-0.55-2.65-0.55-4.45c0.067-2.066,0.1-3.566,0.1-4.5
		V149.1z"/>
	<path style="fill-rule:evenodd;clip-rule:evenodd;fill:#C3B9AC;" d="M174.25,55.5c0.066,0.2,0.1,0.517,0.1,0.95
		c-0.966,0.2-1.983,0.25-3.05,0.15c-1.3-0.133-2.217-0.5-2.75-1.1c0.134-0.333,0.367-0.667,0.7-1L174.25,55.5z M170,61.15
		c0.366-0.433,0.783-0.65,1.25-0.65l1.5,0.5c0.366,0.9,0.05,1.567-0.95,2c-0.967,0.467-1.649,0.317-2.05-0.45
		C169.483,62.083,169.566,61.617,170,61.15z M169.75,66.5l0.5,1C169.75,67.467,169.583,67.133,169.75,66.5z M150.55,48.75
		c-0.533-0.6-0.467-1.017,0.2-1.25l1.5,2C151.616,49.633,151.05,49.383,150.55,48.75z M136.75,46l4.5,2
		c-0.566,0-1.85,0.05-3.85,0.15c-1.733-0.066-2.634-0.633-2.7-1.7C135.3,45.983,135.983,45.833,136.75,46z M83.75,31.5l3.5,0.5v3
		c-0.4,0.033-1.65,0.117-3.75,0.25c-1.967,0.033-3.05-0.2-3.25-0.7s0.233-1.1,1.3-1.8C82.817,32.083,83.55,31.667,83.75,31.5z
		 M81.25,28l2,1c0.233,1.267-0.917,1.917-3.45,1.95c-2.433,0.066-4-0.25-4.7-0.95c0.5-0.367,1.517-0.667,3.05-0.9
		C79.617,28.9,80.65,28.533,81.25,28z M89.25,49c-0.533,0-1.417,0.033-2.65,0.1c-1.1,0-1.95-0.184-2.55-0.55
		c-0.133-0.733,1.167-1.5,3.9-2.3c2.899-0.733,4.5-1.15,4.8-1.25L89.25,49z M99.55,41.65c-1.833-0.066-2.6-0.816-2.3-2.25
		c0.2-0.967,0.967-1.667,2.3-2.1c1.033-0.333,2.101-0.433,3.2-0.3l1,4C102.217,41.5,100.816,41.717,99.55,41.65z M108.75,34
		c-1.967,0.133-3.134,0.183-3.5,0.15c-1.566-0.1-2.55-0.583-2.95-1.45c0.7-0.333,1.867-0.4,3.5-0.2c1.767,0.3,2.917,0.467,3.45,0.5
		L108.75,34z M127.3,51.1c1.4-0.033,2.733,0.05,4,0.25c1.233,0.167,2.05,0.383,2.45,0.65l1,2c-0.2,0.1-0.9,0.567-2.1,1.4
		c-0.634,0.4-1.483,0.617-2.551,0.65c-0.566,0.034-2.216,0.083-4.949,0.15c-2.467-0.1-3.917-0.617-4.351-1.55
		c-0.566-1.333,0.117-2.3,2.05-2.9C123.983,51.383,125.467,51.167,127.3,51.1z M116.25,59.1c0.967-0.167,2.217-0.233,3.75-0.2
		c1.733,0.067,2.983,0.1,3.75,0.1l1,2c-2.467,0.067-4.05,0.067-4.75,0C117.667,60.8,116.417,60.167,116.25,59.1z M157.25,50l3,3
		c-3.833,0.4-6.35-0.283-7.55-2.05c0.066-0.733,0.7-1.117,1.899-1.15C156,49.933,156.884,50,157.25,50z M146.85,64.4
		c0.367-0.967,1.117-1.717,2.25-2.25c1-0.5,2.051-0.717,3.15-0.65l8,4c0.566,2.2-1.333,2.85-5.7,1.95
		C150.35,66.583,147.783,65.567,146.85,64.4z M70.2,22.5c-2.1,0.233-4.6,0.183-7.5-0.15c-2.133-0.267-4.15-0.65-6.05-1.15
		c-1.8-0.467-3.017-0.9-3.65-1.3c-0.133-1.133,1.45-2.017,4.75-2.65c3.6-0.5,5.633-0.8,6.1-0.9c2.833-0.6,4.8-0.883,5.9-0.85l5.5,3
		C75.717,20.767,74.033,22.1,70.2,22.5z M53.1,33.3c0.8-0.233,1.683-0.333,2.65-0.3l6,3c-3.1,0.1-4.85,0.15-5.25,0.15
		c-2.767-0.066-4.317-0.433-4.65-1.1C51.517,34.25,51.933,33.667,53.1,33.3z M57.3,29.7c0.534-0.133,1.167-0.217,1.9-0.25
		c0.9,0.033,1.583,0.05,2.05,0.05l0.5,1.5c-0.467,0-1.217,0.033-2.25,0.1c-0.9,0.033-1.65-0.017-2.25-0.15
		C57.117,30.583,57.133,30.167,57.3,29.7z M45.1,15.95c0.967,0.033,1.683,0.05,2.15,0.05l0.5,2.5c-1.433,0.1-2.6,0.05-3.5-0.15
		c-1.533-0.367-1.983-1.117-1.35-2.25C43.5,16,44.233,15.95,45.1,15.95z M76.75,18.5h4c0.067,0.867-0.567,1.267-1.9,1.2
		C77.517,19.667,76.817,19.267,76.75,18.5z M37.45,24.65c0.333-0.533,1.267-0.75,2.8-0.65l2.5,3c-0.6,0.633-1.4,0.85-2.4,0.65
		c-0.9-0.2-1.667-0.633-2.3-1.3C37.383,25.683,37.183,25.117,37.45,24.65z"/>
	<path style="fill-rule:evenodd;clip-rule:evenodd;fill:#A39A90;" d="M82.15,15.9c-3.7-0.967-7.566-1.917-11.6-2.85
		c-1.333-0.3-2.617-0.316-3.85-0.05c-0.767,0.167-2.067,0.517-3.9,1.05c-2.066,0.434-4.55,0.583-7.45,0.45
		c-1.667-0.067-4.167-0.233-7.5-0.5c-2.967-0.133-5.05-0.133-6.25,0c-2.733,0.333-4.45,1.25-5.15,2.75c-0.267,0.6-0.35,1.5-0.25,2.7
		c0.1,1.367,0.1,2.3,0,2.8c-0.233,1.033-0.75,1.883-1.55,2.55c-0.467,0.367-1.25,0.934-2.35,1.7c-1.3,1.1-1.983,2.6-2.05,4.5
		c0,1.367,0.45,2.367,1.35,3c0.167,0.1,1.3,0.6,3.4,1.5c1.367,0.6,3.35,1.367,5.95,2.3c2.767,0.967,4.733,1.7,5.9,2.2
		c0.667,0.3,1.2,0.75,1.6,1.35c0.633,0.933,1.033,1.5,1.2,1.7l1.6,1.45c-2.133-0.533-5.217-0.867-9.25-1
		c-0.267-0.533-0.267-0.95,0-1.25c0.3-0.333,0.883-0.433,1.75-0.3c-0.133-0.667-0.583-1.233-1.35-1.7
		c-0.933-0.467-1.617-0.817-2.05-1.05c-1.967-1.267-3.467-2.184-4.5-2.75c-1.867-1.034-3.533-1.517-5-1.45
		c1.867,0.8,3.217,1.483,4.05,2.05c1.7,1.133,2.45,2.267,2.25,3.4c-1.7,0.3-3.383,0.35-5.05,0.15c-2-0.2-3.567-0.717-4.7-1.55
		c-0.4-0.3-1.2-1.35-2.4-3.15c-0.9-1.367-1.883-2.033-2.95-2l2.1-1.7c0.467-0.667,0.7-1.083,0.7-1.25c0-0.133-0.483-0.65-1.45-1.55
		c-1.1-1-2.316-1.8-3.65-2.4c-3.567-1.233-5.417-1.883-5.55-1.95c-1.833-1.066-2.483-2.75-1.95-5.05c0.267-1.1,1.117-1.867,2.55-2.3
		c1.6-0.5,2.55-1.05,2.85-1.65c0.233-0.433,0.25-0.95,0.05-1.55c-0.3-0.833-0.45-1.333-0.45-1.5c-0.133-2.5,1.433-4.067,4.7-4.7
		C23.017,8.1,25.633,8,29.8,8c1.467,0.133,2.617,0.2,3.45,0.2c1.5,0.066,2.583-0.117,3.25-0.55c0.267-0.167,0.55-0.517,0.85-1.05
		c0.267-0.5,0.55-0.833,0.85-1c0.8-0.434,2.55-0.567,5.25-0.4c2.767,0.267,4.367,0.4,4.8,0.4c3.1,0.333,5.567,0.583,7.4,0.75
		c3.4,0.3,5.983,0.2,7.75-0.3c0.333,0.1,0.684,0.2,1.05,0.3l1.1,0.3c3.233,1,6.983,2.267,11.25,3.8c1.167,1.4,2.4,2.733,3.7,4
		l1.7,1.45H82.15z M98.55,51.5c-1.434,0.333-2.866,0.5-4.3,0.5c2.267,0.067,3.783,0.05,4.55-0.05c1.634-0.267,2.983-0.934,4.05-2
		c0.167-0.133,0.384-0.45,0.65-0.95c0.267-0.467,0.517-0.767,0.75-0.9c0.7-0.4,2.05-0.533,4.05-0.4c2.134,0.2,3.483,0.3,4.05,0.3
		c1.767,0.033,3.051-0.2,3.851-0.7c0.366-0.267,1.184-1.15,2.45-2.65c1.166-1,1.85-1.7,2.05-2.1c0.233-0.566,0.35-1.333,0.35-2.3
		c1.101,0.5,2.233,0.883,3.4,1.15l3.85,0.5c0.767-0.033,1.517-0.1,2.25-0.2v0.05c0,1.433-0.083,3.033-0.25,4.8
		c-0.267,2.434-1.267,3.95-3,4.55c-1.833,0.066-3.316,0.283-4.45,0.65c-1.6,0.067-2.8,0.183-3.6,0.35
		c0.033,0.5,0.017,1.283-0.05,2.35c-0.5,0.1-1-0.05-1.5-0.45c-0.533-0.533-0.967-0.9-1.3-1.1c-0.801-0.5-1.667-0.85-2.601-1.05
		c-1.166-0.267-2.166-0.233-3,0.1c-0.366,0.167-0.833,0.55-1.399,1.15c-0.5,0.5-1.051,0.816-1.65,0.95
		c-0.233,0.067-0.634,0.083-1.2,0.05c-0.533-0.033-0.934-0.033-1.2,0c-0.233,0.566-0.183,1.167,0.15,1.8
		c-2.6-0.633-6.283-1.033-11.05-1.2c-5.5-0.233-9.167-0.483-11-0.75c3.966-1.733,8.883-2.55,14.75-2.45H98.55z M116.1,37.15
		c0.634,0.567,1.367,1.117,2.2,1.65c-0.233,0.934-0.816,1.65-1.75,2.15c-0.233,0.1-0.649,0.133-1.25,0.1
		c-0.5-0.066-0.883,0.034-1.149,0.3c-0.334,0.333-0.467,0.85-0.4,1.55c0.066,0.867,0.05,1.417-0.05,1.65
		c-0.434,1.2-1.517,2.034-3.25,2.5c-1,0.267-2.417,0.417-4.25,0.45c-0.167,0-0.95-0.05-2.351-0.15c-1.199-0.1-2.116-0.1-2.75,0
		c0.134-0.467,0.817-0.867,2.051-1.2c1.466-0.267,2.583-0.517,3.35-0.75c1.4-0.433,2.3-1.083,2.7-1.95
		c0.166-0.3,0.184-0.983,0.05-2.05c-0.134-0.933,0-1.583,0.4-1.95c0.5-0.4,1.399-0.633,2.699-0.7c1.567-0.033,2.551-0.133,2.95-0.3
		c0.033-0.667-0.083-1.417-0.35-2.25L116.1,37.15z M164.85,58.9c0.101-0.566,0.067-1.2-0.1-1.9h-7c-0.434,0.4-1.116,0.6-2.05,0.6
		c-1.033,0-1.733,0.083-2.101,0.25l-1.649-0.45c-1.134-0.333-1.967-0.633-2.5-0.9c-0.867-0.433-1.55-0.967-2.05-1.6
		c0.533-0.267,1.949-0.333,4.25-0.2c2.3,0.233,3.566,0.35,3.8,0.35c1.533,0.1,2.75,0.133,3.649,0.1c1.634,0,2.851-0.217,3.65-0.65
		l3,2l0.1,2.05C165.45,58.75,165.116,58.867,164.85,58.9z M165.25,64c0.967,2.233,1.3,4.55,1,6.95c-3.267,0.433-6.3,0.433-9.1,0
		c-4.2-0.6-6.534-2.117-7-4.55c0.333,1.467,2.5,2.25,6.5,2.35c4.033,0.067,6.35-0.517,6.949-1.75
		c-0.333-0.167-0.916-0.383-1.75-0.65c-0.666-0.3-1.1-0.7-1.3-1.2c0.3-0.8,0.867-1.35,1.7-1.65L165.25,64z M92,36.1
		c0.033-0.6-0.184-1.35-0.65-2.25c-0.566-0.934-0.933-1.55-1.1-1.85l4.5,2.5c0,0.7,0.033,1.783,0.1,3.25
		c0.034,1.3-0.017,2.367-0.149,3.2c-1.101,0.1-2.184,0.15-3.25,0.15c0.733-0.233,1.333-0.6,1.8-1.1l-3.7,1.05h-0.1l0.35-0.1L89.1,41
		c-2.2-0.233-4.116-0.75-5.75-1.55c-1.7,0.333-3.217,0.75-4.55,1.25c-1.566-0.067-3.017-0.017-4.35,0.15l0.3-0.35l-1.3,0.5
		l-0.65,0.1c-0.767,0.2-1.966,0.667-3.6,1.4c-0.767,0-1.667,0.283-2.7,0.85c-0.6,0.333-1.5,0.85-2.7,1.55L63.35,45H63.3l-1.15,0.15
		c-0.4,0.033-1.066,0.017-2-0.05l0.2-0.05c1.433-0.867,3.566-1.683,6.4-2.45c3.133-0.833,5.3-1.55,6.5-2.15
		c0.533-0.267,1.067-0.75,1.6-1.45c0.6-0.733,1.05-1.2,1.35-1.4c0.5-0.3,1.133-0.483,1.9-0.55c0.933,0,1.617-0.017,2.05-0.05
		c1.567-0.067,2.783-0.117,3.65-0.15c2.1,0.7,3.75,1.05,4.95,1.05c0.5,0.067,0.983,0.017,1.45-0.15l0.649-0.15L91,37.5
		c0.733-0.3,1.316-0.8,1.75-1.5L92,36.1z M74.25,45.4l-3.55,1c0.167-0.533,0.466-0.917,0.9-1.15c0.3-0.167,0.95-0.367,1.95-0.6
		l1-0.2C74.383,44.75,74.283,45.067,74.25,45.4z M109.3,57.15c-0.566,0.467-1.267,0.55-2.1,0.25c-0.767-0.3-1.334-0.8-1.7-1.5
		C107.233,56.367,108.5,56.783,109.3,57.15z M113.45,78.4c-1.367,0.367-3.05,0.55-5.05,0.55c-0.367-0.633-0.667-1.15-0.9-1.55
		c0.467-1.566,0.866-3.033,1.2-4.4c1.033,0.2,1.8,0.317,2.3,0.35c1.7,0.133,3.15-0.133,4.35-0.8c-0.066-1.5-0.066-2.483,0-2.95
		c1-0.233,3.284-0.383,6.851-0.45c2.8-0.066,4.95-0.566,6.45-1.5c1.433-1.033,2.55-1.75,3.35-2.15c0.533-0.233,1.35-0.517,2.45-0.85
		c1.133-0.367,1.934-0.65,2.399-0.85c-0.8,1.867-1.649,4.217-2.55,7.05c-1.434,0.5-2.866,1.233-4.3,2.2v0.05l-0.05,0.025
		c-0.085,0.029-0.168,0.07-0.25,0.125c-0.033,0-0.066,0.017-0.101,0.05c-0.033,0-0.05,0.017-0.05,0.05
		c-0.033,0.033-0.066,0.05-0.1,0.05c-0.101,0.067-0.2,0.133-0.3,0.2c-0.034,0.033-0.084,0.066-0.15,0.1
		c-0.033,0-0.05,0.017-0.05,0.05c-0.233,0.167-0.483,0.35-0.75,0.55l-0.4,0.3c0.167-0.333,0.316-0.733,0.45-1.2
		c0.366-1.367,0.134-2.15-0.7-2.35c1.9,0.1,3.334-0.083,4.3-0.55c1.2-0.567,1.95-1.65,2.25-3.25c-1.366,1.633-3.633,2.65-6.8,3.05
		c-1.767,0.2-4.333,0.3-7.7,0.3c0.134,0.633,0.017,1.267-0.35,1.9l-3,1.5c0.5,0.1,1.033,0.033,1.6-0.2l-0.5,0.75
		c-0.1,0.133-0.166,0.333-0.199,0.6c-0.034,0.133-0.067,0.367-0.101,0.7c-1.133,0.667-2.233,1.417-3.3,2.25L113.45,78.4z
		 M125.8,76.25c-0.467,0.4-0.95,0.833-1.45,1.3l-2.75,2.8c-0.366,0.433-0.649,0.85-0.85,1.25h-0.05c0.267-1.067,0.75-1.95,1.45-2.65
		c-0.834,0.233-1.867,0.617-3.101,1.15l0.101-0.15c0.533-0.667,1.199-1.317,2-1.95c0.5-0.4,0.833-0.667,1-0.8
		c0.3-0.167,0.767-0.35,1.399-0.55C124.517,76.483,125.267,76.35,125.8,76.25z M141.7,57.45c-0.3,1.4-0.566,2.35-0.8,2.85
		c-0.667,1.567-2.017,2.733-4.051,3.5c1.601-3.733,3.534-6.767,5.801-9.1C142.25,55.267,141.934,56.183,141.7,57.45z M77.9,23.45
		c0.6,0.167,1.05,0.35,1.35,0.55l-0.5-3.5c1.067-0.033,1.633,0.733,1.7,2.3c0.033,1.534-0.35,2.567-1.15,3.1
		c-0.367,0.267-1.15,0.367-2.35,0.3c-0.2-0.034-1-0.117-2.4-0.25c-1.566-0.167-3.55-0.534-5.95-1.1c-3.467-0.833-5.434-1.3-5.9-1.4
		l1.85,0.05c1.167,0.6,2.583,0.95,4.25,1.05c2.567,0.167,4.133,0.233,4.7,0.2C75.6,24.683,77.067,24.25,77.9,23.45z M69.7,51.45
		l0.1-0.25l0.05,0.25c0.3,0.133,0.583,0.133,0.85,0c0.267-1.567,1.35-2.85,3.25-3.85l-0.2,3c-0.133,1.533-0.3,2.566-0.5,3.1
		c-0.367,0.833-1.1,1.483-2.2,1.95c-0.267,0.133-0.767,0.267-1.5,0.4L69.4,56c-0.033-0.6,0.05-1.933,0.25-4L69.7,51.45z"/>
	<path style="fill-rule:evenodd;clip-rule:evenodd;fill:#8C847C;" d="M8.5,2.45c1.233-0.534,2.767-0.983,4.6-1.35l3.45-0.55L25.3,0
		l1.05,0.25c4.833,1.1,7.917,1.767,9.25,2c3.467,0.633,6.6,0.967,9.4,1c3.367,0.067,5.917,0.2,7.65,0.4
		c1.633,0.2,4.05,0.684,7.25,1.45l3.5,0.95c-1.767,0.5-4.35,0.6-7.75,0.3c-1.833-0.167-4.3-0.417-7.4-0.75
		c-0.433,0-2.033-0.133-4.8-0.4C40.75,5.033,39,5.167,38.2,5.6c-0.3,0.167-0.583,0.5-0.85,1c-0.3,0.533-0.583,0.883-0.85,1.05
		c-0.667,0.434-1.75,0.617-3.25,0.55c-0.833,0-1.983-0.067-3.45-0.2c-4.167,0-6.783,0.1-7.85,0.3c-3.267,0.633-4.833,2.2-4.7,4.7
		c0,0.167,0.15,0.667,0.45,1.5c0.2,0.6,0.183,1.117-0.05,1.55c-0.3,0.6-1.25,1.15-2.85,1.65c-1.433,0.433-2.283,1.2-2.55,2.3
		c-0.533,2.3,0.117,3.983,1.95,5.05c0.133,0.067,1.983,0.717,5.55,1.95c1.333,0.6,2.55,1.4,3.65,2.4c0.967,0.9,1.45,1.417,1.45,1.55
		c0,0.167-0.233,0.583-0.7,1.25l-2.1,1.7c1.067-0.033,2.05,0.633,2.95,2c1.2,1.8,2,2.85,2.4,3.15c1.133,0.833,2.7,1.35,4.7,1.55
		c1.667,0.2,3.35,0.15,5.05-0.15c0.2-1.133-0.55-2.267-2.25-3.4c-0.833-0.566-2.183-1.25-4.05-2.05c1.467-0.067,3.133,0.417,5,1.45
		c1.033,0.566,2.533,1.483,4.5,2.75c0.433,0.233,1.117,0.583,2.05,1.05c0.767,0.467,1.217,1.033,1.35,1.7
		c-0.867-0.133-1.45-0.034-1.75,0.3c-0.267,0.3-0.267,0.717,0,1.25h-0.7c-6.533-0.067-11.383-1.067-14.55-3
		c-1.267-0.8-2.733-1.583-4.4-2.35c-1-0.467-2.55-1.167-4.65-2.1l-2.85-1.4C5.45,29.717,2.033,24.467,4.6,18.9
		c1.167-2.033,1.933-3.483,2.3-4.35c0.6-1.466,0.6-3.017,0-4.65C6.5,8.8,6.35,7.65,6.45,6.45c0-0.167,0.183-1.233,0.55-3.2L8.5,2.45
		z M164.85,58.9V59l-0.449,0.05c-2.067,0.167-4.15,0.117-6.25-0.15c-1.634-0.2-3.217-0.5-4.75-0.9l0.199-0.15
		c0.367-0.167,1.067-0.25,2.101-0.25c0.934,0,1.616-0.2,2.05-0.6h7C164.917,57.7,164.95,58.333,164.85,58.9z M83.8,36.85
		c-2.566-0.867-4.033-1.333-4.4-1.4c1.733,0.333,3.05,0.566,3.95,0.7c1.5,0.233,2.8,0.35,3.9,0.35L92,36.1l0.75-0.1
		c-0.434,0.7-1.017,1.2-1.75,1.5l-0.15,0.1L90.2,37.75c-0.467,0.167-0.95,0.217-1.45,0.15C87.55,37.9,85.9,37.55,83.8,36.85z
		 M73.45,41l1.3-0.5l-0.3,0.35L73.45,41z M68.7,44.1c0.1-0.233,0.333-0.567,0.7-1c0.5-0.5,1.067-0.833,1.7-1
		C70.433,42.467,69.633,43.133,68.7,44.1z M69.2,42.5c-2.6,1.333-4.4,2.133-5.4,2.4c1.2-0.7,2.1-1.217,2.7-1.55
		C67.533,42.783,68.433,42.5,69.2,42.5z M101.1,47.35c0.634-0.1,1.551-0.1,2.75,0c1.4,0.1,2.184,0.15,2.351,0.15
		c1.833-0.033,3.25-0.183,4.25-0.45c1.733-0.466,2.816-1.3,3.25-2.5c0.1-0.233,0.116-0.783,0.05-1.65
		c-0.066-0.7,0.066-1.217,0.4-1.55c0.267-0.267,0.649-0.367,1.149-0.3c0.601,0.034,1.017,0,1.25-0.1
		c0.934-0.5,1.517-1.217,1.75-2.15c1.033,0.633,1.95,1.117,2.75,1.45c0,0.967-0.116,1.733-0.35,2.3c-0.2,0.4-0.884,1.1-2.05,2.1
		c-1.267,1.5-2.084,2.383-2.45,2.65c-0.8,0.5-2.084,0.733-3.851,0.7c-0.566,0-1.916-0.1-4.05-0.3c-2-0.133-3.35,0-4.05,0.4
		c-0.233,0.133-0.483,0.433-0.75,0.9c-0.267,0.5-0.483,0.817-0.65,0.95c-1.066,1.066-2.416,1.733-4.05,2
		c-0.767,0.1-2.283,0.117-4.55,0.05c1.434,0,2.866-0.167,4.3-0.5l0.7-0.2c0-0.767,0-1.35,0-1.75c0-0.667,0.167-1.2,0.5-1.6
		C100.05,47.617,100.5,47.417,101.1,47.35z M119.15,79.95l0.55-1.15c0.467-0.9,1.434-2.267,2.899-4.1c1.334-1.733,2.233-3.1,2.7-4.1
		c-1,0.9-2.316,1.833-3.95,2.8c-0.966,0.567-2.399,1.383-4.3,2.45c0.033-0.333,0.066-0.567,0.101-0.7
		c0.033-0.267,0.1-0.467,0.199-0.6l0.5-0.75c-0.566,0.233-1.1,0.3-1.6,0.2l3-1.5c0.366-0.633,0.483-1.267,0.35-1.9
		c3.367,0,5.934-0.1,7.7-0.3c3.167-0.4,5.434-1.417,6.8-3.05c-0.3,1.6-1.05,2.683-2.25,3.25c-0.966,0.467-2.399,0.65-4.3,0.55
		c0.834,0.2,1.066,0.983,0.7,2.35c-0.134,0.467-0.283,0.867-0.45,1.2c-0.366,0.3-0.75,0.617-1.149,0.95l-0.45,0.4
		c-0.134,0.1-0.267,0.2-0.4,0.3c-0.533,0.1-1.283,0.233-2.25,0.4c-0.633,0.2-1.1,0.383-1.399,0.55c-0.167,0.133-0.5,0.4-1,0.8
		C120.35,78.633,119.684,79.283,119.15,79.95z M108.4,78.95c2,0,3.683-0.184,5.05-0.55c-0.167,0.2-0.417,0.517-0.75,0.95
		c-0.3,0.333-0.601,0.566-0.9,0.7c-0.333,0.133-0.883,0.167-1.649,0.1l-1.45-0.65L108.4,78.95z M70.2,22.5h1.05l7,0.5
		c-0.167,0.267-0.283,0.417-0.35,0.45c-0.833,0.8-2.3,1.233-4.4,1.3c-0.567,0.033-2.133-0.033-4.7-0.2
		c-1.667-0.1-3.083-0.45-4.25-1.05c-0.633-0.267-1.25-0.65-1.85-1.15C65.6,22.683,68.1,22.733,70.2,22.5z M54.65,45.35l0.9,0.1
		c-0.5,0.233-0.9,0.517-1.2,0.85C54.417,45.867,54.517,45.55,54.65,45.35z"/>
	<path style="fill-rule:evenodd;clip-rule:evenodd;fill:#B2AEA3;" d="M160.85,91.7c0.034-0.267,0.101-1.533,0.2-3.8
		c0,0.166,0,0.35,0,0.55C161.017,89.983,160.95,91.066,160.85,91.7z M137.2,105.45c0.6,0.2,1.25,0.366,1.95,0.5
		c-0.434-0.066-0.817-0.15-1.15-0.25C137.7,105.634,137.434,105.55,137.2,105.45z M132.35,102l1.5,1.45l-0.199-0.05
		C133.184,102.967,132.75,102.5,132.35,102z M125.95,93.15c-0.033-0.834-0.101-1.417-0.2-1.75c-0.134-0.4-0.384-0.851-0.75-1.351
		c-0.4-0.467-0.717-0.85-0.95-1.149c-0.033-0.034-0.066-0.067-0.1-0.101c-0.101-0.166-0.45-0.566-1.05-1.2
		c-0.233-0.3-0.534-0.633-0.9-1c-0.8-0.833-1.316-1.5-1.55-2c-0.033-0.133-0.066-0.233-0.101-0.3c-0.1-0.4-0.133-0.8-0.1-1.2
		c0.833-0.434,1.7-0.7,2.6-0.8l1.9-0.1c1.6-0.4,3.233-0.7,4.9-0.9c-1.233,0.467-2.184,0.95-2.851,1.45c-1.767,1.3-2.316,3-1.649,5.1
		c0.267,0.9,0.933,1.434,2,1.601c0.033,0.899,0.483,1.883,1.35,2.95c0.767,1,1.533,1.666,2.3,2c1.467,0.6,3.15,0.267,5.05-1
		c1.867-1.233,3.45-1.567,4.75-1l0.15-2.9v0.55c0.967,1.8,2.167,3.3,3.6,4.5c-2.8-0.033-5.183,0.167-7.149,0.601
		c-3.7,0.733-5.7,2.033-6,3.899l-0.4,0.05c-1.6-3.033-3.217-5.116-4.85-6.25C125.95,92.95,125.95,93.05,125.95,93.15z M162.35,80.45
		c0-0.133,0-0.267,0-0.4l0.051-0.5c0,0.034,0,0.067,0,0.1C162.4,79.85,162.384,80.117,162.35,80.45z M109.5,64.4
		c-0.066-0.4-0.134-0.783-0.2-1.15l-0.149-0.6c-1.334-0.333-2.9-0.3-4.7,0.1c0.166,0.567,0.25,1.233,0.25,2l-0.45,0.45
		c-0.533,0.8-0.733,2.017-0.6,3.65c-0.101,0.066-0.233,0.167-0.4,0.3c-1.066,0.6-1.983,0.367-2.75-0.7
		c-0.434-0.567-0.866-1.55-1.3-2.95c-0.101-0.667-0.167-1.117-0.2-1.35c-0.066-0.367-0.35-0.733-0.85-1.1
		c-0.467-0.333-1.284-0.55-2.45-0.65c-1.167-0.1-2.033-0.05-2.601,0.15c-0.866,0.333-1.333,0.833-1.399,1.5
		c-0.066,0.434-0.084,1.267-0.05,2.5c-1.567,0.1-2.5,0.217-2.801,0.35c-0.633,0.3-1.033,1.1-1.2,2.4C87.583,70,87.7,71.133,88,72.7
		c0.267,1.433,0.316,2.55,0.15,3.35c-0.667,0.1-1.7,0.133-3.101,0.1c-1.167,0.133-2.066,0.6-2.7,1.4L82.1,78l1.9,1.3
		c-1.433-0.867-2.55-1.716-3.35-2.55c-1.967-2-2.733-4.25-2.3-6.75c0-0.1,0.017-0.183,0.05-0.25c0.467-0.167,1.033-0.533,1.7-1.1
		c0.167-0.167,0.417-0.55,0.75-1.15c0.3-0.7,0.533-1.133,0.7-1.3c0.867-1,2.083-2,3.65-3c2.233-1.467,5.083-2.333,8.55-2.6
		c4-0.067,7.017-0.233,9.05-0.5c0.834-0.1,1.55-0.283,2.15-0.55c0.1,0.034,0.217,0.067,0.35,0.1l0.101,0.85l3,0.5
		c0.3,0.467,0.55,1.017,0.75,1.65C109.316,63.183,109.434,63.767,109.5,64.4z M91.85,59.05c0.967-0.167,2-0.283,3.101-0.35
		c0.2,0,0.392,0,0.575,0c-0.276,0.006-0.552,0.022-0.825,0.05C93.7,58.817,92.75,58.917,91.85,59.05z M79.25,67.4
		c0.4-0.8,0.917-1.583,1.55-2.35c0.1-0.133,0.233-0.267,0.4-0.4c-0.1,0.1-0.2,0.2-0.3,0.3C80.233,65.783,79.683,66.6,79.25,67.4z
		 M108.7,73c-0.334,1.367-0.733,2.833-1.2,4.4c-0.134,0.467-0.283,0.934-0.45,1.4c0,0.034,0,0.067,0,0.1
		c-0.066,0.133-0.116,0.25-0.149,0.35l0.949-3.15c0.534-1.8,0.95-3.517,1.25-5.15C109,71.617,108.866,72.3,108.7,73z M129.95,73.125
		c-0.079,0.029-0.146,0.071-0.2,0.125h-0.05C129.782,73.195,129.865,73.154,129.95,73.125z M134.3,70.85
		c0.7-0.267,1.384-0.483,2.05-0.65L130,73.05C131.434,72.083,132.866,71.35,134.3,70.85z M91.15,83.15l9.8,0.35
		c-0.733,0-1.566-0.017-2.5-0.05c-0.066,0-0.3,0.017-0.7,0.05c-0.267,0-0.616,0-1.05,0c-0.334,0-0.733,0.017-1.2,0.05
		c-1.233,0.067-2.233,0.05-3-0.05C92.066,83.467,91.616,83.35,91.15,83.15z M84.9,79.85c-0.2-0.133-0.383-0.25-0.55-0.35
		c0.533,0.3,1.4,0.767,2.6,1.4c-0.5-0.233-0.967-0.467-1.4-0.7C85.317,80.067,85.1,79.95,84.9,79.85z M88.8,81.95
		c1.066,0.6,1.75,0.966,2.05,1.1c-0.399-0.167-0.816-0.367-1.25-0.6C89.333,82.283,89.066,82.117,88.8,81.95z M153.05,70.4
		l1.351,0.75l-0.801-0.4L153.05,70.4z M139.3,86.45l-0.6-0.5h-1c-1.834,0-3.351,0.066-4.55,0.2l0.149-0.65h5.851L139.3,86.45z
		 M158.95,82.7l0.55,0.05c0.066,0.033,0.134,0.05,0.2,0.05c0,0.2,0.017,0.4,0.05,0.6C159.45,83.133,159.184,82.9,158.95,82.7z
		 M153.85,82.1h0.051c-0.434,0.167-0.867,0.35-1.301,0.55C153,82.45,153.417,82.267,153.85,82.1z M142.95,85.15
		c2.1-0.267,3.983-0.65,5.649-1.15c0.101,0.267,0.15,0.583,0.15,0.95c-0.066,0.866-0.6,1.416-1.6,1.649
		c-0.801,0.2-1.634,0.167-2.5-0.1c-0.2-0.066-0.483-0.267-0.851-0.6C143.333,85.467,143.05,85.217,142.95,85.15z M58.35,59.25
		c-0.233-0.067-0.434-0.133-0.6-0.2l0.1,0.45l-0.7,0.15c-0.133,0.067-0.35,0.3-0.65,0.7c-0.333,0.4-0.583,0.65-0.75,0.75
		c-0.4,0.267-0.833,0.417-1.3,0.45c-0.034,0-0.067,0.017-0.1,0.05c-0.333,0-0.767,0-1.3,0c-0.233,0.033-0.6,0.033-1.1,0
		c-0.434-0.033-0.934-0.067-1.5-0.1c-0.067,0.3-0.1,0.783-0.1,1.45c-0.067-1.833,0.467-3.117,1.6-3.85
		c0.267-0.167,0.566-0.3,0.9-0.4c0.1-0.034,0.2-0.067,0.3-0.1C54.683,58.233,56.417,58.45,58.35,59.25z M58.85,64.15
		c-0.3,0.5-0.75,0.883-1.35,1.15c0.9-0.433,1.467-1.167,1.7-2.2c0.066-0.233,0.133-0.934,0.2-2.1c-0.033,1.333-0.167,2.283-0.4,2.85
		C58.967,63.95,58.917,64.05,58.85,64.15z M77.65,84.6c0.367-0.433,0.583-0.733,0.65-0.899l-1.1-1.1c-0.667,0.367-1.333,0.633-2,0.8
		l-0.05-0.3c-0.033-0.067-0.05-0.15-0.05-0.25C74.7,81.683,74,81.1,73,81.1c0.333-0.467,0.7-1.383,1.1-2.75
		c1.233-0.167,2,0.05,2.3,0.65l2.5,0.5c-0.033,1.567-0.083,2.533-0.15,2.9c-0.033,0.1-0.05,0.217-0.05,0.35
		C78.5,83.517,78.15,84.134,77.65,84.6z M75.75,85.55L75.7,85.5c0.566-0.1,1-0.233,1.3-0.4C76.667,85.3,76.25,85.45,75.75,85.55z
		 M52.85,58.7c-0.467,0.167-0.867,0.383-1.2,0.65c0.133,1.3,1.017,1.95,2.65,1.95s2.434-0.733,2.4-2.2L52.85,58.7z M70.95,82.1
		c-0.233,0.167-0.417,0.367-0.55,0.6l-0.1-0.05l-0.1,0.6c0.033,0.367,0.117,0.7,0.25,1c-0.267-0.567-0.35-1.283-0.25-2.15
		c0.133-1.233,0.517-2.15,1.15-2.75c-0.3,0.3-0.517,0.633-0.65,1c-0.067,0.4-0.034,0.967,0.1,1.7L70.95,82.1z"/>
	<path style="fill-rule:evenodd;clip-rule:evenodd;fill:#938F86;" d="M161.85,83.2c-0.166-0.067-0.35-0.133-0.55-0.2l-2.6-0.55
		c-0.033-0.034-0.05-0.034-0.05,0c-0.2-0.034-0.384-0.067-0.551-0.1c-0.933-0.133-2.033-0.267-3.3-0.4
		c-0.133-0.034-0.283-0.05-0.45-0.05c-0.767-0.167-1.699-0.4-2.8-0.7c-0.866-0.267-1.816-0.567-2.85-0.9l-0.55-0.15
		c2.566-0.233,4.483-0.566,5.75-1c1.3-0.467,1.916-1.033,1.85-1.7c-0.1-1-1.033-1.25-2.8-0.75c-0.834,0.2-1.9,0.533-3.2,1
		c-0.167,0.033-0.333,0.083-0.5,0.15c-1.934,0.267-4.417,0.35-7.45,0.25c-0.434,0-0.833-0.017-1.2-0.05
		c-3.233-0.2-4.783-0.733-4.649-1.6L136,76.4c0-0.267,0.217-0.483,0.65-0.65c0.333-0.133,3.233-0.2,8.699-0.2
		c4.2,0,6.15-0.867,5.851-2.6l3.1-1.8l0.851,0.45l2.199,1.2c1.2,0.5,2.167,1.05,2.9,1.65c0.033,0.033,0.083,0.066,0.15,0.1l0.05,0.1
		c0.066,0.033,0.149,0.1,0.25,0.2c0.133,0.133,0.283,0.283,0.45,0.45c0.033,0.067,0.083,0.15,0.149,0.25l0.25,0.35
		c0,0.033,0.017,0.067,0.05,0.1c0.267,0.467,0.467,0.967,0.601,1.5c0.133,0.633,0.2,1.317,0.2,2.05
		c-0.167,0.067-0.351,0.1-0.551,0.1l-1-0.4c0.4-0.7,0.65-1.217,0.75-1.55c0.167-0.567,0.167-1.133,0-1.7
		c-1.166-0.133-2.166-0.067-3,0.2c-1.166,0.4-1.6,1.15-1.3,2.25c0.101,0.433,0.334,0.767,0.7,1c0.066,0.033,0.45,0.2,1.15,0.5
		c0.566,0.3,1.616,0.517,3.149,0.65c-0.03,0.186-0.047,0.36-0.05,0.525V81.2c-0.033,0.1-0.05,0.233-0.05,0.4
		C162.1,82.133,161.983,82.667,161.85,83.2z"/>
	<path style="fill-rule:evenodd;clip-rule:evenodd;fill:#B6B2A8;" d="M162.35,80.05l-0.05,0.55c-1.533-0.133-2.583-0.35-3.149-0.65
		c-0.7-0.3-1.084-0.467-1.15-0.5c-0.366-0.233-0.6-0.567-0.7-1c-0.3-1.1,0.134-1.85,1.3-2.25c0.834-0.267,1.834-0.333,3-0.2
		c0.167,0.567,0.167,1.133,0,1.7c-0.1,0.333-0.35,0.85-0.75,1.55l1,0.4c0.2,0,0.384-0.033,0.551-0.1L162.35,80.05z M152.85,70.3
		l0.2,0.1l0.55,0.35l0.7,0.4l-3.1,1.8c0.3,1.733-1.65,2.6-5.851,2.6c-5.466,0-8.366,0.067-8.699,0.2c0.233-1.933,1.899-2.867,5-2.8
		c0.633,0,1.199,0.183,1.699,0.55c0.733,0.467,1.217,0.75,1.45,0.85c0.334,0.133,0.9,0.183,1.7,0.15c0.767,0,1.35,0.083,1.75,0.25
		c0.4-0.367,0.533-0.983,0.4-1.85c-0.134-0.967-0.101-1.633,0.1-2l0.05-0.05C150.467,70.717,151.816,70.533,152.85,70.3z M136,76.4
		l-0.05,0.05c-0.134,0.867,1.416,1.4,4.649,1.6c0.367,0.034,0.767,0.05,1.2,0.05c3.033,0.1,5.517,0.017,7.45-0.25
		c0.167-0.067,0.333-0.117,0.5-0.15c1.3-0.467,2.366-0.8,3.2-1c1.767-0.5,2.7-0.25,2.8,0.75c0.066,0.667-0.55,1.233-1.85,1.7
		c-1.267,0.434-3.184,0.767-5.75,1c-0.667-0.167-1.584-0.3-2.75-0.4c-1.4-0.133-2.317-0.233-2.75-0.3
		c-1.634-0.267-3.317-0.483-5.051-0.65c-2.633-0.267-5.333-0.466-8.1-0.6l1.65-1.45l0.55-0.35C133.7,76.467,135.134,76.467,136,76.4
		z"/>
	<path style="fill-rule:evenodd;clip-rule:evenodd;fill:#C2BEB3;" d="M162.25,81.125c0.003-0.165,0.02-0.339,0.05-0.525l0.05-0.55
		c0,0.133,0,0.267,0,0.4c-0.033,0.133-0.05,0.283-0.05,0.45C162.271,80.958,162.254,81.033,162.25,81.125z M136.65,75.75
		c-0.434,0.167-0.65,0.383-0.65,0.65c-0.866,0.067-2.3,0.067-4.3,0c1.6-0.8,2.767-1.467,3.5-2c0.767-0.5,1.75-0.983,2.95-1.45
		c0.866-0.3,2.033-0.45,3.5-0.45c1.733,0,2.899-0.05,3.5-0.15c0.133-0.633,0.183-1.083,0.149-1.35c1.367-0.033,2.533-0.083,3.5-0.15
		l-0.05,0.05c-0.2,0.367-0.233,1.033-0.1,2c0.133,0.867,0,1.483-0.4,1.85c-0.4-0.167-0.983-0.25-1.75-0.25
		c-0.8,0.033-1.366-0.017-1.7-0.15c-0.233-0.1-0.717-0.383-1.45-0.85c-0.5-0.367-1.066-0.55-1.699-0.55
		C138.55,72.883,136.884,73.817,136.65,75.75z M155.15,71.6l-0.851-0.45l-0.7-0.4l0.801,0.4L155.15,71.6z"/>
	<path style="fill-rule:evenodd;clip-rule:evenodd;fill:#7C7367;" d="M119.9,93.15c-0.067-1.167-0.284-2.483-0.65-3.95
		c-0.5-1.7-0.866-3.033-1.1-4l-0.051-0.3c0,1.533-0.066,3.833-0.199,6.899c0,0.334-0.017,0.667-0.051,1l-0.899,8.15
		c-0.101,0.434-0.184,0.866-0.25,1.3v0.05c-0.467,0.634-0.967,1.05-1.5,1.25c0.333-2.399,0.533-6.017,0.6-10.85
		c-0.2-3.834-0.383-7.25-0.55-10.25c1.934,0.867,3.667,1.583,5.2,2.149c0.233,0.5,0.75,1.167,1.55,2c0.366,0.367,0.667,0.7,0.9,1
		c-0.101,0.767-0.2,1.517-0.301,2.25c-0.466,0.367-0.899,0.801-1.3,1.301l-0.7,0.949C120.333,92.434,120.1,92.783,119.9,93.15z
		 M97.4,131.75l-4.101-0.8h0.05c0.5-0.101,0.884-0.316,1.15-0.65l0.2-0.45c0.267-0.633,0.333-1.783,0.2-3.449l0.3,0.35
		c1.833,1.1,3.233-1.116,4.2-6.65c0.633-6.033,0.983-9.366,1.05-10c0.934-10,1.467-17.517,1.6-22.55l0.55-0.1l-0.55-0.4V84.9
		c-1.1-0.267-2.35-0.667-3.75-1.2l-0.55-0.2c0.4-0.033,0.634-0.05,0.7-0.05c0.934,0.033,1.767,0.05,2.5,0.05
		c2.033,0,3.35-0.167,3.95-0.5c0.533-0.267,0.966-0.817,1.3-1.65c0.233-0.667,0.416-1.2,0.55-1.6c0.2-0.233,0.384-0.467,0.55-0.7
		c1.434,0.567,3.033,1.233,4.8,2l-1.949-0.9c0.767,0.067,1.316,0.033,1.649-0.1c0.3-0.133,0.601-0.367,0.9-0.7
		c0.333-0.434,0.583-0.75,0.75-0.95l0.3-0.3c1.066-0.833,2.167-1.583,3.3-2.25c1.9-1.067,3.334-1.883,4.3-2.45
		c1.634-0.967,2.95-1.9,3.95-2.8c-0.467,1-1.366,2.367-2.7,4.1c-1.466,1.833-2.433,3.2-2.899,4.1l-0.55,1.15l-0.101,0.15
		c-2.333,1-4,1.6-5,1.8H114l-0.35-0.15c0,0.733,0,1.533,0,2.4c0,2.466-0.034,4.517-0.101,6.149c-0.1,2.167-0.366,3.834-0.8,5
		c-0.9,2.5-1.384,5.267-1.45,8.3l-1.45-0.1l-0.899-20.25c-0.533,0.6-1.101,1.033-1.7,1.3l-0.15,16.15l-0.05,3.05
		c-0.133,0.033-0.267,0.083-0.399,0.15c-1.301,0.566-2.367,1.75-3.2,3.55c-0.033,0.066-0.066,0.116-0.101,0.149
		c-0.033,0.034-0.05,0.067-0.05,0.101c-1.033,2.399-1.783,5.649-2.25,9.75c-0.566,5.033-1.033,8.267-1.399,9.7
		C99.15,129.116,98.4,130.65,97.4,131.75z M68.8,126.35l-0.3,4.15l-0.3-0.2c-0.267-0.366-0.45-0.983-0.55-1.85l0.3-0.05l-0.35-1.051
		v-0.05c-0.033-0.166-0.033-0.35,0-0.55l-0.2,0.2l-0.1-0.101l0.4-2.199l-0.05,0.449L68,122.9c0.8-4.567,1.133-8.584,1-12.051
		c-0.067-1.633-0.15-2.716-0.25-3.25c-0.233-1.133-0.7-2.033-1.4-2.699l-0.05-0.051l-0.05-0.05c-0.2-1.033-1.333-1.967-3.4-2.8
		c-1.1-0.434-2.65-0.917-4.65-1.45c-1.934-0.666-2.95-1.033-3.05-1.1c-1.167-0.566-1.883-1.334-2.15-2.3
		c-0.233-0.934-0.317-2.233-0.25-3.9c0.133-1.8,0.2-3.116,0.2-3.95v-8.65c0.2-0.667,0.4-1.15,0.6-1.45
		c-0.1,2.433-0.083,6.149,0.05,11.149c0,0.767-0.033,2.067-0.1,3.9c0.067,1.6,0.433,2.8,1.1,3.6c0.467,0.634,3.15,1.534,8.05,2.7
		c4.133,1,6.033,2.517,5.7,4.55c1.767,0.034,2.816,0.534,3.15,1.5c0.133,0.434,0.117,1.733-0.05,3.9c-0.034,0.634,0,2.616,0.1,5.95
		c0.067,2.866-0.017,4.983-0.25,6.35l-0.85,0.15c-0.4,0.1-0.75,0.267-1.05,0.5l-0.3,0.25c-0.1,0.066-0.184,0.149-0.25,0.25
		c-0.3,0.333-0.533,0.733-0.7,1.2l-0.1,0.25c-0.1,0.233-0.183,0.5-0.25,0.8V126.35z M84.25,129.25l1.65,0.3l-0.35,0.05
		c-0.333,0.034-0.8,0.15-1.4,0.351l-0.45,0.2c-1,0.366-1.7,0.6-2.1,0.699c-0.833,0.167-1.617,0.167-2.35,0l-0.5-0.149
		c-0.2-0.566-0.3-1.417-0.3-2.55l5.15,1L84.25,129.25z M61.55,146.25l-0.05,3.45c-0.133,0.133-0.233,0.283-0.3,0.45
		c-0.2,0.233-0.35,0.517-0.45,0.85c-0.433,1.3-0.683,3.3-0.75,6c0-0.134,0-0.283,0-0.45c0-0.066,0-0.116,0-0.149
		c-0.267-3.9-0.517-6.934-0.75-9.101l-0.15-1.149v-0.101c-0.033-0.2-0.05-0.383-0.05-0.55l-0.1-0.5
		c-0.133-0.767-0.284-1.533-0.45-2.3l-0.55-2.15c-0.367-1.233-0.784-2.416-1.25-3.55c0-0.1,0.017-0.2,0.05-0.3
		c0.3-1.101,0.85-1.517,1.65-1.25c0.434,0.166,0.667,0.899,0.7,2.2c0,1.633,0.05,2.566,0.15,2.8c0.267,0.733,0.717,1.583,1.35,2.55
		C60.8,143.833,61.117,144.917,61.55,146.25z M54.2,166c0.12,0.005,0.237,0.021,0.35,0.05c-0.367,0-0.767-0.017-1.2-0.05
		c0.2,0,0.383,0,0.55,0c0.067,0,0.117,0,0.15,0c0.034,0,0.067,0,0.1,0H54.2z M43.4,162.45c0.067,0.233,0.2,0.483,0.4,0.75h0.05
		c0.333,0.434,0.867,0.833,1.6,1.2c-1.133-0.534-1.817-1.167-2.05-1.9V162.45z M18.9,124c0.027,0.082,0.052,0.165,0.075,0.25
		c-0.023-0.079-0.048-0.146-0.075-0.2V124z M81.25,41.05c2.9,0.067,5.517,0.05,7.85-0.05l0.7-0.05l-0.35,0.1
		c-2.067,0.333-4.567,0.85-7.5,1.55c-1.633,0.433-4.1,1.05-7.4,1.85l-1,0.2c-1,0.233-1.65,0.434-1.95,0.6
		c-0.434,0.233-0.733,0.617-0.9,1.15l-0.45,0.1c-0.1,0.1-0.217,0.317-0.35,0.65c-0.733,0.2-1.117,0.317-1.15,0.35
		c-0.4,0.267-0.667,0.783-0.8,1.55c-0.1,0.733-0.317,1.2-0.65,1.4c-0.533,0.367-1.283,0.25-2.25-0.35c-1.133-0.8-2-1.367-2.6-1.7
		c1.066-0.033,2.183-0.167,3.35-0.4c0.934-0.167,1.583-0.65,1.95-1.45c0.333-1.066,0.65-1.883,0.95-2.45
		c0.933-0.967,1.733-1.633,2.4-2c0.267-0.067,1.367-0.1,3.3-0.1c1.667,0.167,3.017,0.25,4.05,0.25c1.9,0.033,3.083-0.267,3.55-0.9
		L81.25,41.05z M87.65,81.3c0.367,0.2,0.716,0.4,1.05,0.6c-0.9,0.4-1.483,1.05-1.75,1.95c-0.667,2.3-1.184,3.7-1.55,4.2
		c-0.133-1.033-0.117-2.816,0.05-5.35c0.066-0.934,0.1-1.767,0.1-2.5c0.434,0.233,0.9,0.466,1.4,0.7L87.65,81.3z M52.1,54.9
		c0-0.033,0-0.066,0-0.1c0.167-2.566,0.483-4.983,0.95-7.25c0.1,0.034,0.2,0.067,0.3,0.1l1.35,0.6c0.1,0.033,0.216,0.083,0.35,0.15
		c-0.233,1.133-0.6,1.867-1.1,2.2c-0.233-0.233-0.534-0.283-0.9-0.15c-0.1,0.233-0.3,1.183-0.6,2.85
		C52.35,53.9,52.233,54.433,52.1,54.9z M66.25,66.4c-1.2,0.7-1.833,1.067-1.9,1.1c-0.733,0.333-1.483,0.417-2.25,0.25
		c-0.233,0.533-0.65,1.883-1.25,4.05c-0.5,1.833-0.983,3.067-1.45,3.7c-0.5,0.7-1.017,1.15-1.55,1.35c-0.267,0.1-0.833,0.2-1.7,0.3
		c1.167-1.333,2.05-2.6,2.65-3.8c0.6-1.2,1.167-2.783,1.7-4.75c0.433-1.633,0.783-3.167,1.05-4.6l0.1-0.15l0.65-0.35
		c0.8-0.267,1.45-0.25,1.95,0.05c0.3,0.2,0.7,0.667,1.2,1.4L66.25,66.4z M67.85,62.55l0.5,0.15c0.566-0.434,0.9-1,1-1.7
		c0.033-0.067,0.066-0.75,0.1-2.05c0-0.767,0.05-1.534,0.15-2.3L70.25,57c0.1,0.067,0.217,0.133,0.35,0.2c0,0.433,0,0.917,0,1.45
		c-0.067,2.567-0.017,6.583,0.15,12.05c0,4.867-0.433,8.816-1.3,11.85c-0.434-1.933-0.8-4.466-1.1-7.6
		C68.25,70.35,68.083,66.217,67.85,62.55z M57,49.4l-0.05,0.1c0-0.033,0-0.067,0-0.1H57z M54.4,130.55c-0.367,0-0.7-0.05-1-0.149
		c-0.033-0.034-0.083-0.051-0.15-0.051c-0.233-0.5-0.467-0.983-0.7-1.449c-0.233-0.5-0.45-0.983-0.65-1.45
		c-0.167-0.434-0.333-0.851-0.5-1.25c-0.2-0.5-0.383-0.983-0.55-1.45c0.133-0.6,0.25-1.316,0.35-2.15l0.35-0.85
		c0.367-1.1,0.583-2.616,0.65-4.55c0.033-2.134,0.066-3.65,0.1-4.55c-0.033-2-0.033-3.767,0-5.301c0.1-2.933,0.45-4.899,1.05-5.899
		c0.233,0.233,0.533,0.583,0.9,1.05c0.2,0.167,0.467,0.316,0.8,0.45c0.2,0.833,0.317,1.85,0.35,3.05c0.033,0.7,0.05,1.667,0.05,2.9
		c0.033,1.133,0.066,2.85,0.1,5.149c0.034,2.033,0,3.75-0.1,5.15c-0.034,0.666-0.267,2.55-0.7,5.649
		C54.417,127.184,54.3,129.083,54.4,130.55z M59.85,48.6l0.45-0.05c-0.066,0.5-0.033,1.217,0.1,2.15
		C59.8,49.933,59.617,49.233,59.85,48.6z M53.9,80.75c0,3.333-0.167,6.167-0.5,8.5l0.15-1.9c0.067-0.666,0.1-1.833,0.1-3.5
		C53.65,82.517,53.733,81.483,53.9,80.75z M61.8,103.8c1.534-0.166,2.434,1.117,2.7,3.851c0.133,1.433,0.117,3.399-0.05,5.899
		c0,0.967,0.066,2.15,0.2,3.55c0.167,1.634,0.267,2.75,0.3,3.351c0,0.434-0.034,1.483-0.1,3.149c-0.067,1.301-0.05,2.334,0.05,3.101
		c-1.1,0.366-1.983,0.833-2.65,1.399c-1.2,1.067-1.95,1.684-2.25,1.851c-0.567,0.3-1.45,0.45-2.65,0.45
		c0.267-2.5,0.417-5.017,0.45-7.551l0.6-8.85l0.1,0.4c0.533,1.966,0.8,4.233,0.8,6.8c0,0.8-0.05,2.083-0.15,3.85
		c-0.033,1.634,0.033,2.917,0.2,3.851c0.667-1.434,1.033-3.317,1.1-5.65c-0.1-2.7-0.15-4.667-0.15-5.9
		c0-1.533,0.133-3.583,0.4-6.149c0.3-3,0.483-5.033,0.55-6.101C61.417,104.467,61.6,104.033,61.8,103.8z M65.75,129.3l0.5,1.15
		c-0.233,2.267-0.383,3.483-0.45,3.649c-0.133,0.601-0.483,1.684-1.05,3.25L63.5,137l0.15-1.35c0.067-0.801,0.317-1.817,0.75-3.051
		c0.533-1.6,0.85-2.6,0.95-3L65.75,129.3z M66.9,148.95L65.55,149v-0.2L65.5,142c0.667,1.134,1.05,2.05,1.15,2.75
		C66.817,145.783,66.9,147.184,66.9,148.95z M94.8,122.35L94.9,126.4l-0.15-0.2c-0.434-0.834-0.583-2.517-0.45-5.05
		c0.167-2.334,0.267-3.867,0.3-4.601L94.8,122.35z"/>
	<path style="fill-rule:evenodd;clip-rule:evenodd;fill:#635B52;" d="M114.15,103.7L111.3,103.6c0.066-3.033,0.55-5.8,1.45-8.3
		c0.434-1.166,0.7-2.833,0.8-5c0.066-1.633,0.101-3.684,0.101-6.149c0-0.867,0-1.667,0-2.4L114,81.9c0.434,0.2,0.85,0.383,1.25,0.55
		c0.167,3,0.35,6.416,0.55,10.25c-0.066,4.833-0.267,8.45-0.6,10.85c-0.233,0.066-0.483,0.117-0.75,0.15H114.15z M62.35,149.2
		c-0.1-0.601-0.367-1.584-0.8-2.95c-0.433-1.333-0.75-2.417-0.95-3.25c-0.633-0.967-1.083-1.816-1.35-2.55
		c-0.1-0.233-0.15-1.167-0.15-2.8c-0.033-1.301-0.267-2.034-0.7-2.2c-0.8-0.267-1.35,0.149-1.65,1.25c-0.033,0.1-0.05,0.2-0.05,0.3
		c0.466,1.134,0.883,2.316,1.25,3.55l0.55,2.15c0.167,0.767,0.317,1.533,0.45,2.3l0.1,0.5c0,0.167,0.017,0.35,0.05,0.55v0.101
		l0.15,1.149c0.233,2.167,0.483,5.2,0.75,9.101c0,0.033,0,0.083,0,0.149c0,0.167,0,0.316,0,0.45c0,0.1,0,0.184,0,0.25v0.4
		c-0.033,0.133-0.05,0.25-0.05,0.35v0.95c-0.133,1.899-0.3,3.267-0.5,4.1l-1.2,1.95c-0.133,0.1-0.283,0.2-0.45,0.3
		c-0.066,0.033-0.15,0.066-0.25,0.101c-0.066,0.033-0.133,0.066-0.2,0.1c0.233-3.733,0.4-6.533,0.5-8.4
		c0.066-1.533,0.1-2.949,0.1-4.25c-0.034-1.533-0.117-2.916-0.25-4.149c-0.133-0.566-0.267-1.483-0.4-2.75l-0.9-4.7v-0.05
		c-0.066-0.3-0.133-0.601-0.2-0.9v-0.05c-0.6-2.6-1.3-4.65-2.1-6.15c-0.8-1.5-1.383-2.916-1.75-4.25
		c-0.133-0.5-0.25-0.966-0.35-1.399l-0.1-1c0.2,0.467,0.417,0.95,0.65,1.45c0.233,0.466,0.467,0.949,0.7,1.449
		c0.067,0,0.117,0.017,0.15,0.051c0.3,0.1,0.633,0.149,1,0.149c0.333,0.033,0.8,0.017,1.4-0.05c0.7-0.066,1.15-0.1,1.35-0.1h0.2
		c1.2,0,2.083-0.15,2.65-0.45c0.3-0.167,1.05-0.783,2.25-1.851c0.667-0.566,1.55-1.033,2.65-1.399
		c1.167-0.367,1.967-0.316,2.4,0.149l0.1,0.101l0.2,0.35v0.05l0.35,1.051l-0.3,0.05l-0.65,0.2l-1.25,0.649l-0.4,0.3
		c-0.1,0.4-0.417,1.4-0.95,3c-0.433,1.233-0.683,2.25-0.75,3.051L63.5,137c-0.233,2.533-0.317,4.25-0.25,5.15
		c0.067,0.899,0.333,1.883,0.8,2.949c0.8,1.7,1.217,2.617,1.25,2.75l0.25,0.95v0.2l-1.8-0.05c-0.1,0-0.183,0-0.25,0h-0.05
		c-0.3,0.033-0.583,0.083-0.85,0.149L62.35,149.2z M68.7,44.1c-0.3,0.566-0.617,1.383-0.95,2.45c-0.367,0.8-1.017,1.284-1.95,1.45
		c-1.167,0.233-2.283,0.367-3.35,0.4c0.6,0.333,1.466,0.9,2.6,1.7c0.967,0.6,1.717,0.717,2.25,0.35c0.333-0.2,0.55-0.667,0.65-1.4
		c0.133-0.767,0.4-1.283,0.8-1.55c0.033-0.033,0.417-0.15,1.15-0.35c-0.233,0.633-0.316,1.467-0.25,2.5l0.05,1.8L69.65,52
		c-0.2,2.067-0.283,3.4-0.25,4l-0.5,0.05l-0.2,0.1c-3.434-2.066-6.15-3.683-8.15-4.85c-1.3-0.7-2.483-1.333-3.55-1.9h-0.05
		c0,0.033,0,0.067,0,0.1c-0.233,3.433-0.217,6.233,0.05,8.4c0.4,0.1,0.85-0.033,1.35-0.4c0.167-0.1,0.55-0.433,1.15-1
		c1.133,1.2,1.867,1.8,2.2,1.8c0.5-0.033,1.05-1,1.65-2.9c0.2-0.6,0.383-1.233,0.55-1.9c1.3,0.767,2.467,1.433,3.5,2
		c0.167,2.267,0.317,4.617,0.45,7.05c0.233,3.667,0.4,7.8,0.5,12.4v0.6c-0.3-3.767-1-6.816-2.1-9.15l-0.8-1.45
		c-0.5-0.733-0.9-1.2-1.2-1.4c-0.5-0.3-1.15-0.316-1.95-0.05l-0.65,0.35c-0.6,0.4-1.05,1.15-1.35,2.25
		c-0.433,1.7-0.683,2.617-0.75,2.75c-0.1-0.633-0.15-1.434-0.15-2.4c0.033-1.067,0.05-1.867,0.05-2.4l0.25-0.45l-0.2,0.3l-0.25,0.25
		c-0.1,0-0.233,0-0.4,0c0.066-0.1,0.117-0.2,0.15-0.3c0.233-0.567,0.367-1.517,0.4-2.85l-0.5-1.5l-0.55-0.25
		c-1.934-0.8-3.667-1.017-5.2-0.65c-0.1,0.033-0.2,0.066-0.3,0.1c-0.333,0.1-0.633,0.233-0.9,0.4c0-0.2,0-0.383,0-0.55l0.15-3.65
		c0.133-0.467,0.25-1,0.35-1.6c0.3-1.667,0.5-2.617,0.6-2.85c0.367-0.133,0.667-0.083,0.9,0.15c0.5-0.333,0.867-1.067,1.1-2.2
		c-0.133-0.066-0.25-0.117-0.35-0.15c-0.267-0.767-0.383-1.417-0.35-1.95c0.3-0.333,0.7-0.617,1.2-0.85
		c0.9-0.367,2.434-0.483,4.6-0.35c0.934,0.066,1.6,0.083,2,0.05l1.1-0.1l0.1-0.05l0.45-0.1c1-0.267,2.8-1.066,5.4-2.4
		c1.633-0.733,2.833-1.2,3.6-1.4l0.65-0.1l1-0.15c1.333-0.167,2.783-0.217,4.35-0.15c0.8,0.033,1.617,0.15,2.45,0.35l0.75,0.3
		c-0.467,0.633-1.65,0.933-3.55,0.9c-1.034,0-2.383-0.083-4.05-0.25c-1.933,0-3.033,0.033-3.3,0.1c-0.633,0.167-1.2,0.5-1.7,1
		C69.033,43.533,68.8,43.867,68.7,44.1z M106.75,79.75c0.066-0.2,0.116-0.367,0.15-0.5c0.033-0.1,0.083-0.217,0.149-0.35
		c0.066,0.033,0.15,0.083,0.25,0.15C107.134,79.283,106.95,79.517,106.75,79.75z M51.2,122.6c-0.1,0.834-0.217,1.551-0.35,2.15
		c-0.434-1.267-0.783-2.5-1.05-3.7c0.1-0.366,0.15-0.783,0.15-1.25v-7.649c0.133-1.967,0.233-3.483,0.3-4.551
		c0.1-2-0.017-3.5-0.35-4.5c-0.167-0.6-0.467-1.083-0.9-1.449V101c0-0.1,0.017-0.2,0.05-0.3l0.35-3.851
		c0.1-0.033,0.184-0.05,0.25-0.05c1.267-0.133,2.067-0.7,2.4-1.7c0.567-1.566,1.017-3.517,1.35-5.85c0.333-2.333,0.5-5.167,0.5-8.5
		l0.05-2.55v2.45v8.65c0,0.834-0.067,2.15-0.2,3.95c-0.067,1.667,0.017,2.967,0.25,3.9c0.267,0.966,0.983,1.733,2.15,2.3
		c0.1,0.066,1.117,0.434,3.05,1.1c2,0.533,3.55,1.017,4.65,1.45c2.066,0.833,3.2,1.767,3.4,2.8l0.05,0.05
		c-0.833,0.134-1.533,0.051-2.1-0.25c-0.367-0.166-0.983-0.5-1.85-1c-0.7-0.333-1.217-0.267-1.55,0.2
		c-0.2,0.233-0.383,0.667-0.55,1.3c-0.067,1.067-0.25,3.101-0.55,6.101c-0.267,2.566-0.4,4.616-0.4,6.149c0,1.233,0.05,3.2,0.15,5.9
		c-0.067,2.333-0.434,4.217-1.1,5.65c-0.167-0.934-0.233-2.217-0.2-3.851c0.1-1.767,0.15-3.05,0.15-3.85
		c0-2.566-0.267-4.834-0.8-6.8l-0.1-0.4c-0.3-0.866-0.467-1.417-0.5-1.65c0-0.166,0.233-1.183,0.7-3.05l0.25-1.7V107.4
		c0.133-1.733,0.333-2.9,0.6-3.5c-0.333-0.534-0.9-0.801-1.7-0.801c-0.033,0-0.533,0.017-1.5,0.051c-0.467,0-0.867-0.067-1.2-0.2
		c-0.333-0.134-0.6-0.283-0.8-0.45c-0.367-0.467-0.667-0.816-0.9-1.05c-0.267-0.2-0.517-0.283-0.75-0.25
		c-0.167,0.033-0.417,0.333-0.75,0.899c-0.3,0.5-0.467,0.851-0.5,1.051c-0.2,0.566-0.267,1.383-0.2,2.449
		c0.033,0.567,0.083,1.4,0.15,2.5c0.034,1.634,0.1,4.051,0.2,7.25C51.533,118.184,51.433,120.6,51.2,122.6z M59.85,48.6
		c-0.233,0.633-0.05,1.333,0.55,2.1c-0.133-0.934-0.167-1.65-0.1-2.15L59.85,48.6z M74.1,78.35V78.3c-0.6,0.067-1.133,0.2-1.6,0.4
		c0.067-0.367,0.183-0.733,0.35-1.1l1.1-0.15l0.7,0.1l5.3,0.6c0.133,1.867-0.15,3.25-0.85,4.15c-0.133,0.167-0.267,0.317-0.4,0.45
		c0-0.133,0.017-0.25,0.05-0.35c0.067-0.367,0.117-1.333,0.15-2.9L76.4,79C76.1,78.4,75.333,78.183,74.1,78.35z"/>
	<path style="fill-rule:evenodd;clip-rule:evenodd;fill:#D2C8BA;" d="M49.95,46.35L40.35,45c-0.367,0.033-0.717,0.067-1.05,0.1
		c-0.533,0-1.066,0-1.6,0l-4.9-0.45c-0.2-0.033-0.4-0.066-0.6-0.1c-0.633-0.1-1.267-0.216-1.9-0.35l-0.2-0.05
		c-0.333-0.1-0.65-0.183-0.95-0.25l-1.95-0.5c-0.233-0.1-0.483-0.183-0.75-0.25c-0.067-0.033-0.133-0.05-0.2-0.05l-2.15-0.75
		c-0.5-0.2-0.983-0.383-1.45-0.55l-0.55-0.2c-0.434-0.167-0.833-0.333-1.2-0.5L16.2,39c-0.9-0.467-1.767-0.95-2.6-1.45
		c-0.067-0.033-0.133-0.066-0.2-0.1l-0.1-0.05c-0.267-0.167-0.517-0.333-0.75-0.5l-0.4-0.25c-1.066-0.667-2.033-1.35-2.9-2.05
		c-1.2-0.934-2.3-2-3.3-3.2c-1.2-1.433-2.267-3.05-3.2-4.85c-0.067-0.133-0.133-0.267-0.2-0.4C2.517,26.083,2.5,26.033,2.5,26
		l-1.2-2.95c-0.033-0.133-0.066-0.25-0.1-0.35c-0.067-0.167-0.1-0.317-0.1-0.45L0.9,19.9c0-0.133,0.017-0.267,0.05-0.4
		c0.133-0.567,1.033-1.967,2.7-4.2c1.3-1.767,1.667-3.367,1.1-4.8c-0.8-2.1-0.7-3.9,0.3-5.4l0.8-0.95
		C6.183,3.817,6.567,3.517,7,3.25c-0.367,1.967-0.55,3.033-0.55,3.2C6.35,7.65,6.5,8.8,6.9,9.9c0.6,1.633,0.6,3.184,0,4.65
		c-0.367,0.867-1.133,2.317-2.3,4.35c-2.567,5.567,0.85,10.817,10.25,15.75l2.85,1.4c2.1,0.934,3.65,1.633,4.65,2.1
		c1.667,0.767,3.133,1.55,4.4,2.35c3.167,1.933,8.017,2.933,14.55,3H42c4.033,0.133,7.117,0.467,9.25,1h0.05
		c0.8,0.2,1.383,0.283,1.75,0.25c0.133-0.033,0.7-0.233,1.7-0.6c1-0.4,2.067-0.667,3.2-0.8c1.4-0.1,2.466,0.083,3.2,0.55
		c-0.5,0.067-1.617,0.133-3.35,0.2c-1.533,0.133-2.517,0.45-2.95,0.95l-0.2,0.3c-0.133,0.2-0.233,0.517-0.3,0.95
		c-0.033,0.534,0.083,1.184,0.35,1.95l-1.35-0.6c-0.1-0.033-0.2-0.066-0.3-0.1C51.983,47.083,50.95,46.683,49.95,46.35z
		 M69.65,49.65c-0.066-1.033,0.017-1.867,0.25-2.5c0.133-0.333,0.25-0.55,0.35-0.65l0.45-0.1l3.55-1l15.3-4.35l3.7-1.05
		c-0.467,0.5-1.066,0.867-1.8,1.1c-0.8,0.267-2.033,0.517-3.7,0.75c-0.967,0.267-2.8,1.117-5.5,2.55c-0.667,0.367-2,0.867-4,1.5
		c-1.967,0.633-3.4,1.2-4.3,1.7c-1.9,1-2.983,2.283-3.25,3.85c-0.267,0.133-0.55,0.133-0.85,0L69.8,51.2L69.65,49.65z M81.35,64.45
		c-4.5-3.267-7.8-5.534-9.9-6.8c-0.2-0.1-0.383-0.2-0.55-0.3l-0.3-0.15c-0.133-0.067-0.25-0.133-0.35-0.2l-0.65-0.35l-0.9-0.5
		l0.2-0.1L69.4,56l0.15,0.05c0.4,0.034,0.95,0.184,1.65,0.45c0.867,0.3,1.367,0.467,1.5,0.5c3.167,0.8,5.517,1.45,7.05,1.95
		c2.033,0.7,3.833,1.466,5.4,2.3c-0.066,0.033-0.117,0.067-0.15,0.1C83.633,62.217,82.417,63.25,81.35,64.45z M107.5,77.4
		c0.233,0.4,0.533,0.917,0.9,1.55l0.3,0.55c-0.566-0.233-1.117-0.467-1.65-0.7C107.217,78.333,107.366,77.867,107.5,77.4z
		 M119.05,80.1c1.233-0.533,2.267-0.917,3.101-1.15c-0.7,0.7-1.184,1.583-1.45,2.65v0.1v0.05c-0.2,0.367-0.334,0.733-0.4,1.1
		c-0.033,0.066-0.05,0.15-0.05,0.25c-0.033,0.4,0,0.8,0.1,1.2c0.034,0.066,0.067,0.167,0.101,0.3
		c-1.533-0.566-3.267-1.283-5.2-2.149c-0.4-0.167-0.816-0.35-1.25-0.55h0.05C115.05,81.7,116.717,81.1,119.05,80.1z"/>
	<path style="fill-rule:evenodd;clip-rule:evenodd;fill:#D2CDC1;" d="M78.4,69.75l0.85-2.35c0.433-0.8,0.983-1.617,1.65-2.45
		c0.1-0.1,0.2-0.2,0.3-0.3l0.15-0.2c1.066-1.2,2.283-2.233,3.65-3.1c0.033-0.033,0.083-0.067,0.15-0.1l6.7-2.2
		c0.9-0.133,1.851-0.233,2.851-0.3c0.273-0.027,0.549-0.044,0.825-0.05l1.774-0.05l6.45,0.65c0.4,0.067,0.8,0.15,1.2,0.25
		c-0.601,0.267-1.316,0.45-2.15,0.55c-2.033,0.267-5.05,0.433-9.05,0.5c-3.467,0.267-6.317,1.133-8.55,2.6c-1.567,1-2.784,2-3.65,3
		c-0.167,0.167-0.4,0.6-0.7,1.3c-0.333,0.6-0.583,0.983-0.75,1.15C79.433,69.217,78.867,69.583,78.4,69.75z M127.15,89.45
		c0-0.4,0.083-0.733,0.25-1c0.6-1.134,2.517-1.9,5.75-2.3c1.199-0.134,2.716-0.2,4.55-0.2h1l0.6,0.5c1,0.666,3.017,0.8,6.05,0.399
		c2.834-0.366,4.801,0.034,5.9,1.2c0.233,0.267,0.417,0.717,0.55,1.351c0.134,0.666,0.066,1.149-0.2,1.449
		c-0.433,0.534-1.216,0.667-2.35,0.4c-0.233-0.033-1.066-0.3-2.5-0.8l-0.4-0.15c-1.699-0.566-3.1-0.85-4.199-0.85l-1.4,0.05
		l-0.15,2.9c-1.3-0.567-2.883-0.233-4.75,1c-1.899,1.267-3.583,1.6-5.05,1c-0.767-0.334-1.533-1-2.3-2
		C127.634,91.333,127.184,90.35,127.15,89.45z M129.65,81.3c-1.667,0.2-3.301,0.5-4.9,0.9l-1.9,0.1c-0.899,0.1-1.767,0.367-2.6,0.8
		c0-0.1,0.017-0.184,0.05-0.25c0.066-0.367,0.2-0.733,0.4-1.1V81.7c0.033-0.034,0.05-0.067,0.05-0.1c0.2-0.4,0.483-0.817,0.85-1.25
		l2.75-2.8c0.5-0.466,0.983-0.9,1.45-1.3c0.134-0.1,0.267-0.2,0.4-0.3l0.45-0.4c0.399-0.333,0.783-0.65,1.149-0.95l0.4-0.3
		c0.267-0.2,0.517-0.383,0.75-0.55c0-0.033,0.017-0.05,0.05-0.05c0.066-0.034,0.116-0.067,0.15-0.1c0.1-0.067,0.199-0.133,0.3-0.2
		c0.033,0,0.066-0.017,0.1-0.05c0-0.033,0.017-0.05,0.05-0.05c0.034-0.033,0.067-0.05,0.101-0.05h0.05
		c0.054-0.054,0.121-0.096,0.2-0.125L130,73.1v-0.05l6.35-2.85c1.167-0.267,2.584-0.417,4.25-0.45c1.967,0.033,3.434,0.05,4.4,0.05
		c1.767-0.1,3.1-0.15,4-0.15c1.667,0,2.95,0.217,3.85,0.65c-1.033,0.233-2.383,0.417-4.05,0.55c-0.967,0.066-2.133,0.117-3.5,0.15
		c0.033,0.267-0.017,0.717-0.149,1.35c-0.601,0.1-1.767,0.15-3.5,0.15c-1.467,0-2.634,0.15-3.5,0.45
		c-1.2,0.466-2.184,0.95-2.95,1.45c-0.733,0.533-1.9,1.2-3.5,2l-0.55,0.35l-1.65,1.45c2.767,0.133,5.467,0.333,8.1,0.6
		c1.733,0.167,3.417,0.383,5.051,0.65c0.433,0.066,1.35,0.167,2.75,0.3c1.166,0.1,2.083,0.233,2.75,0.4l0.55,0.15
		c1.033,0.333,1.983,0.633,2.85,0.9c1.101,0.3,2.033,0.533,2.8,0.7c0.167,0,0.317,0.017,0.45,0.05c1.267,0.133,2.367,0.267,3.3,0.4
		c0.167,0.033,0.351,0.066,0.551,0.1c0-0.034,0.017-0.034,0.05,0l2.6,0.55c0.2,0.067,0.384,0.133,0.55,0.2l-0.1,0.3
		c-0.033-0.033-0.066-0.05-0.1-0.05c-0.233-0.1-0.483-0.2-0.75-0.3c-0.167-0.066-0.317-0.117-0.45-0.15
		c-0.267-0.067-0.517-0.133-0.75-0.2c-0.066,0-0.134-0.017-0.2-0.05l-0.55-0.05l-3.75-0.55c-0.033,0-0.066,0-0.101,0
		c-0.033,0-0.066,0-0.1,0c-0.333-0.033-0.7-0.05-1.1-0.05h-0.051c-1.399-0.1-3.116-0.184-5.149-0.25
		c-0.233-0.033-0.45-0.05-0.65-0.05c-0.066,0-0.133,0-0.2,0c-1.166-0.1-2.25-0.2-3.25-0.3h-0.149c-3.967-0.333-6.65-0.517-8.05-0.55
		c-0.034,0-0.067,0-0.101,0C134,80.917,131.783,81.033,129.65,81.3z M52.85,58.7l3.85,0.4c0.033,1.467-0.767,2.2-2.4,2.2
		s-2.517-0.65-2.65-1.95C51.983,59.083,52.383,58.867,52.85,58.7z M72.5,78.7c0.467-0.2,1-0.333,1.6-0.4v0.05
		c-0.4,1.367-0.767,2.283-1.1,2.75v0.05c-0.533,0.867-1.217,1.184-2.05,0.95l-0.15-0.05c-0.133-0.733-0.167-1.3-0.1-1.7
		c0.133-0.367,0.35-0.7,0.65-1C71.65,79.083,72.033,78.867,72.5,78.7z"/>
	<path style="fill-rule:evenodd;clip-rule:evenodd;fill:#A7A499;" d="M140.75,89.5l1.4-0.05c0.133,0.967,1.383,2.5,3.75,4.6
		c2.1,1.834,2.85,3.316,2.25,4.45c-0.334,0.667-1.867,0.934-4.601,0.8c-3.399-0.166-5.184-0.233-5.35-0.2
		c-0.2,1.067-0.3,1.634-0.3,1.7c-0.167,0.634-0.384,1.15-0.65,1.55c-1.366-1.233-2.333-2.083-2.9-2.55
		c-0.933-0.7-1.983-0.95-3.149-0.75c0.3-1.866,2.3-3.166,6-3.899c1.967-0.434,4.35-0.634,7.149-0.601c-1.433-1.2-2.633-2.7-3.6-4.5
		V89.5z M125.95,93.15c0-0.101,0-0.2,0-0.301c1.633,1.134,3.25,3.217,4.85,6.25l-0.3,0.101c-0.1-0.167-0.2-0.316-0.3-0.45
		l-0.101-0.2c-0.466-0.633-0.916-1.166-1.35-1.6c-0.134-0.134-0.55-0.467-1.25-1c-0.6-0.434-0.983-0.8-1.15-1.101
		C126.083,94.417,125.95,93.85,125.95,93.15z M103.65,68.85c0.033,0.467,0.066,1.167,0.1,2.1c0,0.8-0.066,1.45-0.2,1.95
		c-3.133-0.733-5.149-1.417-6.05-2.05c-1.733-1.133-2.5-2.983-2.3-5.55c-0.167,1.034,0.033,2.483,0.6,4.35
		c0.634,2.133,0.95,3.583,0.95,4.35c1.8,0.367,2.967,0.833,3.5,1.4c0.634,0.667-0.017,1.267-1.95,1.8
		c0.134,1.233-0.333,1.867-1.399,1.9c-0.5,0.033-1.434-0.167-2.801-0.6c-1.833-0.567-3.533-0.967-5.1-1.2
		c-2.6-0.367-4.183-0.083-4.75,0.85C84.083,78.417,84,78.8,84,79.3L82.1,78l0.25-0.45c0.633-0.8,1.533-1.267,2.7-1.4
		c1.4,0.033,2.434,0,3.101-0.1c0.166-0.8,0.116-1.917-0.15-3.35c-0.3-1.567-0.417-2.7-0.35-3.4c0.167-1.3,0.567-2.1,1.2-2.4
		c0.301-0.133,1.233-0.25,2.801-0.35c-0.034-1.233-0.017-2.066,0.05-2.5c0.066-0.667,0.533-1.167,1.399-1.5
		c0.567-0.2,1.434-0.25,2.601-0.15c1.166,0.1,1.983,0.317,2.45,0.65c0.5,0.367,0.783,0.733,0.85,1.1c0.033,0.233,0.1,0.684,0.2,1.35
		c0.434,1.4,0.866,2.383,1.3,2.95c0.767,1.066,1.684,1.3,2.75,0.7C103.417,69.017,103.55,68.917,103.65,68.85z M109.3,63.25
		c-0.2-0.067-0.55-0.1-1.05-0.1c-0.533,0.067-1.15,0.233-1.85,0.5c-0.7,0.333-1.267,0.7-1.7,1.1c0-0.767-0.084-1.433-0.25-2
		c1.8-0.4,3.366-0.433,4.7-0.1L109.3,63.25z M139.15,85.5c1.399-0.066,2.666-0.184,3.8-0.35c0.1,0.066,0.383,0.316,0.85,0.75
		c0.367,0.333,0.65,0.533,0.851,0.6c0.866,0.267,1.699,0.3,2.5,0.1c1-0.233,1.533-0.783,1.6-1.649c0-0.367-0.05-0.684-0.15-0.95
		c0.067-0.033,0.134-0.05,0.2-0.05l3.8-1.3c0.434-0.2,0.867-0.383,1.301-0.55c0.399,0,0.767,0.017,1.1,0.05c0.033,0,0.066,0,0.1,0
		c0.034,0,0.067,0,0.101,0l3.75,0.55c0.233,0.2,0.5,0.433,0.8,0.7c0.2,2.534-0.066,4.234-0.8,5.1l-0.851,0.4h-0.35
		c-0.333-2.667-0.616-4.217-0.85-4.65c-0.7-1.433-2.134-1.667-4.301-0.7c-0.699,0.3-1.149,0.566-1.35,0.8
		c-0.366,0.4-0.4,0.934-0.1,1.601c0.366,0.833,1.017,1.184,1.949,1.05c0.233,1.833,0.233,3.45,0,4.85
		c-0.666,0.167-1.583,0.2-2.75,0.101c-1.199-0.066-2.083-0.25-2.649-0.55c-0.334-0.167-0.783-0.534-1.351-1.101l0.4,0.15
		c1.434,0.5,2.267,0.767,2.5,0.8c1.134,0.267,1.917,0.134,2.35-0.4c0.267-0.3,0.334-0.783,0.2-1.449
		c-0.133-0.634-0.316-1.084-0.55-1.351c-1.1-1.166-3.066-1.566-5.9-1.2c-3.033,0.4-5.05,0.267-6.05-0.399L139.15,85.5z M133.3,85.5
		l-0.149,0.65c-3.233,0.399-5.15,1.166-5.75,2.3c-0.167,0.267-0.25,0.6-0.25,1c-1.067-0.167-1.733-0.7-2-1.601
		c-0.667-2.1-0.117-3.8,1.649-5.1c0.667-0.5,1.617-0.983,2.851-1.45c2.133-0.267,4.35-0.383,6.649-0.35c0.033,0,0.066,0,0.101,0
		c1.399,0.033,4.083,0.216,8.05,0.55l-9.25,0.45c-0.566,0-1.634-0.05-3.2-0.15c-1.267,0.1-1.884,0.65-1.85,1.65
		C130.15,84.616,131.2,85.3,133.3,85.5z M51.05,64.4l-0.15-0.05c-0.267-0.333-0.433-0.733-0.5-1.2l-0.05-0.2
		c0-0.667,0.033-1.15,0.1-1.45c0.566,0.033,1.066,0.067,1.5,0.1c0.5,0.033,0.867,0.033,1.1,0c0.534,0,0.967,0,1.3,0
		c0.033-0.033,0.066-0.05,0.1-0.05c0.466-0.033,0.9-0.183,1.3-0.45c0.167-0.1,0.417-0.35,0.75-0.75c0.3-0.4,0.517-0.633,0.65-0.7
		l0.7-0.15c0.267,0.967,0.4,1.5,0.4,1.6c0.033,0.6-0.267,1.083-0.9,1.45c-0.533,0.3-1.5,0.3-2.9,0c-0.5-0.1-0.934-0.15-1.3-0.15
		c-0.5-0.066-0.9-0.05-1.2,0.05c-0.167,0-0.284,0.033-0.35,0.1h-0.05C50.583,63.15,50.417,63.767,51.05,64.4z M70.4,82.7
		c0.133-0.233,0.317-0.434,0.55-0.6c0.833,0.233,1.517-0.083,2.05-0.95V81.1c1,0,1.7,0.583,2.1,1.75c0,0.1,0.017,0.183,0.05,0.25
		l0.05,0.3c-0.1,0.033-0.217,0.067-0.35,0.1C73.55,83.7,72.067,83.433,70.4,82.7z"/>
	<path style="fill-rule:evenodd;clip-rule:evenodd;fill:#8B897F;" d="M161.05,87.9c-0.566,0.033-1.267,0.233-2.1,0.6
		c0.733-0.866,1-2.566,0.8-5.1c-0.033-0.2-0.05-0.4-0.05-0.6c0.233,0.067,0.483,0.133,0.75,0.2c0.133,0.033,0.283,0.083,0.45,0.15
		c0.267,0.1,0.517,0.2,0.75,0.3c0.033,0,0.066,0.017,0.1,0.05c-0.134,0.533-0.267,1.134-0.4,1.8
		c-0.066,0.267-0.116,0.584-0.149,0.95L161.05,87.9z M130.5,99.2l0.3-0.101l0.4-0.05c1.166-0.2,2.217,0.05,3.149,0.75
		c0.567,0.467,1.534,1.316,2.9,2.55c0.267-0.399,0.483-0.916,0.65-1.55c0-0.066,0.1-0.633,0.3-1.7c0.166-0.033,1.95,0.034,5.35,0.2
		c2.733,0.134,4.267-0.133,4.601-0.8c0.6-1.134-0.15-2.616-2.25-4.45c-2.367-2.1-3.617-3.633-3.75-4.6c1.1,0,2.5,0.283,4.199,0.85
		c0.567,0.566,1.017,0.934,1.351,1.101c0.566,0.3,1.45,0.483,2.649,0.55c1.167,0.1,2.084,0.066,2.75-0.101
		c0.233-1.399,0.233-3.017,0-4.85c-0.933,0.134-1.583-0.217-1.949-1.05c-0.301-0.667-0.267-1.2,0.1-1.601
		c0.2-0.233,0.65-0.5,1.35-0.8c2.167-0.966,3.601-0.733,4.301,0.7c0.233,0.434,0.517,1.983,0.85,4.65h0.35
		C156.2,90,154.9,91.35,154.2,92.95c-0.2,0.434-0.3,1.1-0.3,2c-0.034,0.866-0.134,1.483-0.301,1.85c-0.133,0.367-0.466,0.783-1,1.25
		c-0.3,0.267-0.733,0.617-1.3,1.05c-0.333,0.301-1.149,0.817-2.45,1.551c-1.1,0.633-1.833,1.233-2.199,1.8
		c-0.334,0.533-0.601,1.1-0.801,1.7c-0.199,0.366-0.767,0.633-1.699,0.8c-0.467,0.066-1.817-0.084-4.051-0.45
		c-3.333-0.6-5.416-0.95-6.25-1.05l-1.5-1.45l-0.05-0.05l-0.149-0.25c-0.101-0.101-0.184-0.217-0.25-0.351L130.5,99.2z M107.85,76.1
		c-1.199,0-1.949,0.066-2.25,0.2c-0.433,0.2-0.85,0.8-1.25,1.8c-0.433,1.1-0.966,1.816-1.6,2.15c-0.467,0.233-1.467,0.483-3,0.75
		c-2.533,0.4-6.533,0.5-12,0.3c-0.033,0-0.067,0-0.1,0l-0.7-0.4c-1.2-0.633-2.067-1.1-2.6-1.4l-0.15-0.1
		c-0.067-0.033-0.133-0.066-0.2-0.1c0-0.5,0.083-0.883,0.25-1.15c0.567-0.933,2.15-1.217,4.75-0.85c1.566,0.233,3.267,0.633,5.1,1.2
		c1.367,0.433,2.301,0.633,2.801,0.6c1.066-0.033,1.533-0.667,1.399-1.9c1.934-0.534,2.584-1.133,1.95-1.8
		c-0.533-0.566-1.7-1.033-3.5-1.4c0-0.767-0.316-2.217-0.95-4.35c-0.566-1.867-0.767-3.316-0.6-4.35
		c-0.2,2.567,0.566,4.417,2.3,5.55c0.9,0.633,2.917,1.316,6.05,2.05c0.134-0.5,0.2-1.15,0.2-1.95c-0.033-0.934-0.066-1.633-0.1-2.1
		c-0.134-1.633,0.066-2.85,0.6-3.65l0.45-0.45c0.434-0.4,1-0.767,1.7-1.1c0.699-0.267,1.316-0.433,1.85-0.5
		c0.5,0,0.85,0.033,1.05,0.1c0.066,0.367,0.134,0.75,0.2,1.15l-0.05,4.2c-0.033,0.133-0.05,0.267-0.05,0.4l-0.301,1.95
		C108.8,72.583,108.384,74.3,107.85,76.1z M148.6,84c-1.666,0.5-3.55,0.884-5.649,1.15c-1.134,0.166-2.4,0.283-3.8,0.35H133.3
		c-2.1-0.2-3.149-0.884-3.149-2.05c-0.034-1,0.583-1.55,1.85-1.65c1.566,0.1,2.634,0.15,3.2,0.15l9.25-0.45h0.149
		c1,0.1,2.084,0.2,3.25,0.3c0.067,0,0.134,0,0.2,0c0.2,0,0.417,0.017,0.65,0.05c2.033,0.066,3.75,0.15,5.149,0.25
		c-0.433,0.167-0.85,0.35-1.25,0.55l-3.8,1.3C148.733,83.95,148.667,83.967,148.6,84z M59.4,61c-0.066,1.167-0.133,1.867-0.2,2.1
		c-0.534,0.066-1.2,0.383-2,0.95c-0.867,0.6-1.534,0.967-2,1.1c-0.567,0.167-1.25,0.15-2.05-0.05c-0.133-0.033-0.833-0.267-2.1-0.7
		c-0.633-0.633-0.466-1.25,0.5-1.85h0.05c0.066-0.066,0.183-0.1,0.35-0.1c0.3-0.1,0.7-0.117,1.2-0.05c0.367,0,0.8,0.05,1.3,0.15
		c1.4,0.3,2.367,0.3,2.9,0c0.633-0.367,0.933-0.85,0.9-1.45c0-0.1-0.133-0.633-0.4-1.6l-0.1-0.45c0.167,0.067,0.367,0.133,0.6,0.2
		l0.55,0.25L59.4,61z M77.65,84.6H77.2c-0.267,0.067-0.667,0.233-1.2,0.5s-0.95,0.434-1.25,0.5c-0.133,0.034-0.25,0.067-0.35,0.101
		c-0.333,0.033-0.717,0.033-1.15,0c-1.067-0.033-1.833-0.267-2.3-0.7l-0.05-0.05l-0.45-0.7c-0.133-0.3-0.217-0.633-0.25-1l0.1-0.6
		l0.1,0.05c1.667,0.733,3.15,1,4.45,0.8c0.133-0.033,0.25-0.067,0.35-0.1c0.667-0.167,1.333-0.433,2-0.8l1.1,1.1
		C78.233,83.867,78.017,84.167,77.65,84.6z"/>
	<path style="fill-rule:evenodd;clip-rule:evenodd;fill:#9B9286;" d="M111.3,103.6l2.851,0.101c-1.634,0.033-3.717-0.017-6.25-0.15
		c-0.167,0.033-0.317,0.066-0.45,0.101l-0.3-4.75l-0.051,1.8l0.15-16.15c0.6-0.267,1.167-0.7,1.7-1.3l0.899,20.25L111.3,103.6z
		 M102.6,87.45l-0.55,0.1c-0.133,5.033-0.666,12.55-1.6,22.55c-0.066,0.634-0.417,3.967-1.05,10c-0.967,5.534-2.367,7.75-4.2,6.65
		l-0.3-0.35c0.133,1.666,0.066,2.816-0.2,3.449l0.05-3.649l0.15,0.2L94.8,122.35L95,98c-0.267,3.233-0.467,7.9-0.6,14
		c-0.134,6.4-0.301,11.066-0.5,14l-0.551,4.95H93.3l4.101,0.8c-0.367,0.4-0.75,0.733-1.15,1c-0.634,0.434-1.366,0.783-2.2,1.05
		c0.167-0.1,0.367-0.184,0.601-0.25l0.05-2.3l-1.4-0.3l-0.5,3.1c0.134-0.033,0.3-0.05,0.5-0.05c-0.267,0.033-0.533,0.083-0.8,0.15
		c-0.833,0.1-1.733,0.166-2.7,0.199c-2.767,0.101-4.783,0.034-6.05-0.199c-2.533-0.467-4.167-1.517-4.9-3.15c0-0.033,0-0.066,0-0.1
		v-0.051l-0.05-0.05l-0.05-0.1l0.5,0.149c0.733,0.167,1.517,0.167,2.35,0c0.4-0.1,1.1-0.333,2.1-0.699l0.25,1.649l0.2-1.85
		c0.6-0.2,1.067-0.316,1.4-0.351l0.35-0.05l-1.65-0.3c0.333-3.434,0.55-7.434,0.65-12c0.033-1.767,0.05-5.767,0.05-12l-0.05-25.4
		c0.2,0.1,0.417,0.217,0.65,0.35c0,0.733-0.033,1.566-0.1,2.5c-0.167,2.533-0.184,4.316-0.05,5.35c0.367-0.5,0.883-1.899,1.55-4.2
		c0.267-0.9,0.85-1.55,1.75-1.95l0.1,0.05c0.267,0.167,0.533,0.333,0.8,0.5c0.434,0.233,0.851,0.433,1.25,0.6l-0.05,0.1h0.351
		c0.466,0.2,0.916,0.317,1.35,0.35c0.767,0.1,1.767,0.117,3,0.05c0.467-0.033,0.866-0.05,1.2-0.05l0.05,1.65
		c-1.533-0.367-2.967-0.551-4.3-0.551c-0.767-0.933-1.8-1.116-3.101-0.55c-1.267,0.601-1.75,1.566-1.45,2.9
		c0.167,0.8,0.567,1.399,1.2,1.8c0.667,0.467,1.4,0.517,2.2,0.15c0.467-0.233,0.834-0.601,1.101-1.101
		c0.633,0.134,1.399,0.217,2.3,0.25c1.033,0.066,1.75,0.101,2.149,0.101c0.334,8.399,0.567,15.75,0.7,22.05
		c0-2.434,0.017-4.483,0.05-6.15c0-6.133,0.134-11.467,0.4-16L102.6,87.45z M119.9,93.15c0.199-0.367,0.433-0.717,0.699-1.051
		c-0.699,1.034-1.316,2.25-1.85,3.65C119.017,94.983,119.4,94.116,119.9,93.15z M116.7,102.25c0.066-0.434,0.149-0.866,0.25-1.3
		c-0.066,0.399-0.134,0.816-0.2,1.25v0.05H116.7z M68.8,126.35V126.2c0.067-0.3,0.15-0.566,0.25-0.8
		C68.95,125.7,68.867,126.017,68.8,126.35z M83.6,129.15l-5.15-1c0.066-1.4,0.05-2.367-0.05-2.9c-0.3-1.033-1.083-1.733-2.35-2.1
		l-0.6-0.15c-1.233-0.233-2.284-0.3-3.15-0.2c0.233-1.366,0.317-3.483,0.25-6.35c-0.1-3.334-0.133-5.316-0.1-5.95
		c0.167-2.167,0.183-3.467,0.05-3.9c-0.333-0.966-1.383-1.466-3.15-1.5c0.333-2.033-1.567-3.55-5.7-4.55
		c-4.9-1.166-7.583-2.066-8.05-2.7c-0.667-0.8-1.033-2-1.1-3.6c0.067-1.833,0.1-3.134,0.1-3.9c-0.133-5-0.15-8.716-0.05-11.149
		c0.167-0.367,0.45-0.767,0.85-1.2l0.75-0.85c0.867-0.1,1.434-0.2,1.7-0.3c0.533-0.2,1.05-0.65,1.55-1.35
		c0.467-0.633,0.95-1.867,1.45-3.7c0.6-2.167,1.017-3.517,1.25-4.05c0.767,0.167,1.517,0.083,2.25-0.25c0.066-0.033,0.7-0.4,1.9-1.1
		c1.1,2.333,1.8,5.383,2.1,9.15v-0.6c0.3,3.133,0.667,5.667,1.1,7.6c0.867-3.033,1.3-6.983,1.3-11.85
		c-0.167-5.467-0.217-9.483-0.15-12.05c0-0.533,0-1.017,0-1.45l0.3,0.15c0.167,0.1,0.35,0.2,0.55,0.3
		c-0.034,0.567-0.05,1.15-0.05,1.75c0.1,3.733,0.483,6.934,1.15,9.6c0.067,0.267,0.417,1.433,1.05,3.5
		c0.433,1.433,0.717,2.6,0.85,3.5l0.2,1.55l-0.7-0.1l-1.1,0.15c-0.167,0.367-0.283,0.733-0.35,1.1
		c-0.467,0.167-0.85,0.383-1.15,0.65c-0.633,0.6-1.017,1.517-1.15,2.75c-0.1,0.867-0.017,1.583,0.25,2.15l0.45,0.7L70.95,85
		c0.466,0.434,1.233,0.667,2.3,0.7l-0.65,1.25L72.9,87c0.6,0,1.267-0.1,2-0.3c0.033,1.366,0.083,2.483,0.15,3.35
		c0.6,5.867,0.9,12.783,0.9,20.75c0,2.566,0.167,4.483,0.5,5.75c0.466,1.8,1.45,3.45,2.95,4.95c0.667,0.667,1.533,1.434,2.6,2.3
		c0.767,0.767,1.217,1.783,1.35,3.05L83.6,129.15z M68.6,134.75c-0.063-1.198-0.097-2.231-0.1-3.1c0.006,0.21,0.023,0.41,0.05,0.6
		C68.583,132.917,68.6,133.75,68.6,134.75z M65.55,149l1.35-0.05c-0.867,0.1-2,0.1-3.4,0c0.067,0,0.15,0,0.25,0L65.55,149z
		 M61.5,149.7c0.1-0.101,0.217-0.184,0.35-0.25c-0.267,0.166-0.483,0.399-0.65,0.7C61.267,149.983,61.367,149.833,61.5,149.7z
		 M50.7,145.75l-0.1,3.35v0.45c0,0.934-0.033,2.434-0.1,4.5c0,1.8,0.183,3.283,0.55,4.45c0.267,0.866,0.7,1.316,1.3,1.35h0.1
		c0.367,0,0.75-0.199,1.15-0.6c0.566-0.533,0.85-1.616,0.85-3.25c-0.034-0.566-0.067-1.05-0.1-1.45c-0.067-1-0.1-1.7-0.1-2.1
		c0-0.8,0.067-2.084,0.2-3.851c0.133-1.666,0.183-2.949,0.15-3.85c0.033-1.533,0.05-2.684,0.05-3.45c0-1.166-0.017-2.184-0.05-3.05
		c-0.033-0.134-0.05-0.267-0.05-0.4l-0.1-1.5c-0.5-0.866-0.65-1.533-0.45-2c0.233,0.367,0.383,1.034,0.45,2l0.3,0.551
		c0.033,0.066,0.067,0.116,0.1,0.149c0,0.066,0.017,0.134,0.05,0.2c0,0.033,0.017,0.066,0.05,0.1l0.75,1.851
		c0.066,0.233,0.167,0.5,0.3,0.8h-0.05c0.066,0.2,0.15,0.417,0.25,0.65l0.15,0.5l0.05,0.05v0.05l0.9,4.7
		c0.133,1.267,0.267,2.184,0.4,2.75c0.133,1.233,0.216,2.616,0.25,4.149c0,1.301-0.034,2.717-0.1,4.25
		c-0.1,1.867-0.267,4.667-0.5,8.4c-0.755,0.361-1.805,0.528-3.15,0.5h-0.05c-0.033,0-0.066,0-0.1,0c-0.033,0-0.083,0-0.15,0
		c-0.167,0-0.35,0-0.55,0c-0.267-0.033-0.533-0.05-0.8-0.05c-0.1-0.033-0.216-0.05-0.35-0.05l-0.75-0.051
		c-0.4-0.066-0.8-0.116-1.2-0.149c-0.1,0-0.2-0.017-0.3-0.05c-0.8-0.134-1.633-0.317-2.5-0.551l0.5-0.35l0.2-0.2
		c0.2-0.267,0.383-0.85,0.55-1.75c0.133-0.934,0.216-1.533,0.25-1.8c0.066-0.4,0.15-1.017,0.25-1.85c0.1-0.867,0.2-1.967,0.3-3.301
		c0.167-1.566,0.267-4.283,0.3-8.149c0.034-3.5,0.2-6.217,0.5-8.15l0.05-0.35c0.3,0.333,0.417,0.75,0.35,1.25l-0.1,0.25
		c0.033,0.366,0.066,0.816,0.1,1.35C50.733,143.05,50.733,144.283,50.7,145.75z M18.1,121.65c0.3,0.733,0.566,1.517,0.8,2.35v0.05
		C18.733,123.417,18.467,122.616,18.1,121.65z M98.3,83.7c1.4,0.533,2.65,0.934,3.75,1.2v2.149c-1-0.6-2.3-1.116-3.899-1.55
		L98.3,83.7z M48.8,71.5l-0.15,6.9l-0.05,2.9c-0.033-0.633-0.117-1.533-0.25-2.7c-0.067-0.667-0.167-1.417-0.3-2.25
		c-0.3-2.133-0.45-3.8-0.45-5c0-1.267-0.017-2.217-0.05-2.85c-0.033-1.067-0.117-1.983-0.25-2.75v-0.1l-0.25-0.8L46.8,63.9
		c-0.167-0.533-0.35-1.017-0.55-1.45l-0.2-0.3c-0.066-0.1-0.117-0.2-0.15-0.3c-0.033-0.067-0.066-0.117-0.1-0.15
		c-0.033-0.034-0.05-0.067-0.05-0.1l-0.15-0.15c-0.333-0.333-0.583-0.617-0.75-0.85c-0.067-0.1-0.133-0.184-0.2-0.25
		c-0.3-0.333-0.517-0.8-0.65-1.4c-0.1-0.534-0.067-1.617,0.1-3.25c-0.067-1-0.1-2-0.1-3c-0.033-0.067-0.067-0.133-0.1-0.2v-0.05
		c-0.133-0.2-0.283-0.367-0.45-0.5c-0.233-0.2-0.4-0.367-0.5-0.5c-0.567-0.733-1.017-1.567-1.35-2.5
		c-0.067-0.167-0.117-0.317-0.15-0.45c-0.2-0.567-0.367-1.033-0.5-1.4c-0.034,0-0.05-0.017-0.05-0.05
		c-0.033-0.066-0.066-0.133-0.1-0.2c-0.3-0.6-0.65-1.017-1.05-1.25c-0.167-0.067-0.333-0.117-0.5-0.15l0.05-0.35
		c0.333-0.033,0.684-0.067,1.05-0.1l9.6,1.35c0.367,0.133,0.733,0.267,1.1,0.4c0.1,1.233,0.15,1.967,0.15,2.2
		c0.066,1.767-0.1,2.95-0.5,3.55c-0.2,0.3-0.467,0.55-0.8,0.75c-0.2,0.1-0.55,0.267-1.05,0.5c-0.633,0.333-0.967,0.517-1,0.55
		c-0.133,0.133-0.217,0.517-0.25,1.15c0,0.5,0.017,1,0.05,1.5c0,0.3,0.017,0.617,0.05,0.95c0.066,0.567,0.15,1.117,0.25,1.65
		l0.3,1.85c0.233,1.633,0.4,3.533,0.5,5.7l0.05,3.8C48.8,71.1,48.8,71.3,48.8,71.5z M67.3,126.85l0.55-4.05l-0.15,1.851L67.3,126.85
		z M67.6,127.3l-0.2-0.35l0.2-0.2C67.567,126.95,67.567,127.134,67.6,127.3z"/>
	<path style="fill-rule:evenodd;clip-rule:evenodd;fill:#68665F;" d="M139.15,105.95c-0.7-0.134-1.351-0.3-1.95-0.5l-2.25-1.05
		l-0.7-0.45c-0.233-0.167-0.45-0.351-0.65-0.55h0.051l0.199,0.05c0.834,0.1,2.917,0.45,6.25,1.05
		c2.233,0.366,3.584,0.517,4.051,0.45c0.933-0.167,1.5-0.434,1.699-0.8c0.2-0.601,0.467-1.167,0.801-1.7
		c0.366-0.566,1.1-1.167,2.199-1.8c1.301-0.733,2.117-1.25,2.45-1.551c0.566-0.433,1-0.783,1.3-1.05c0.534-0.467,0.867-0.883,1-1.25
		c0.167-0.366,0.267-0.983,0.301-1.85c0-0.9,0.1-1.566,0.3-2c0.7-1.601,2-2.95,3.899-4.05l0.851-0.4
		c0.833-0.366,1.533-0.566,2.1-0.6c-0.1,2.267-0.166,3.533-0.2,3.8c-0.3,2.3-1.466,4.5-3.5,6.6c-0.633,0.667-1.55,1.75-2.75,3.25
		c-1.133,1.467-2.05,2.55-2.75,3.25c-0.8,0.834-1.699,1.316-2.699,1.45c-0.167,0.033-1.267,0.05-3.301,0.05l-3.35-0.05
		c-0.4,0-0.816-0.017-1.25-0.05l-0.2,0.35l-1.649-0.25l0.149-0.3L139.15,105.95z M88.7,81.9c-0.334-0.2-0.684-0.4-1.05-0.6
		c0.033,0,0.067,0,0.1,0c5.467,0.2,9.467,0.1,12-0.3c1.533-0.267,2.533-0.517,3-0.75c0.634-0.333,1.167-1.05,1.6-2.15
		c0.4-1,0.817-1.6,1.25-1.8c0.301-0.133,1.051-0.2,2.25-0.2l-0.949,3.15c-0.034,0.133-0.084,0.3-0.15,0.5
		c-0.134,0.4-0.316,0.933-0.55,1.6c-0.334,0.833-0.767,1.383-1.3,1.65c-0.601,0.333-1.917,0.5-3.95,0.5l-9.8-0.35H90.8l0.05-0.1
		c-0.3-0.133-0.983-0.5-2.05-1.1L88.7,81.9z M50.9,64.35l0.15,0.05c1.267,0.434,1.967,0.667,2.1,0.7c0.8,0.2,1.483,0.217,2.05,0.05
		c0.466-0.133,1.133-0.5,2-1.1c0.8-0.566,1.466-0.883,2-0.95c-0.233,1.033-0.8,1.767-1.7,2.2l-1.15,0.3
		c-0.967,0.167-1.934,0.167-2.9,0H52.6l0.05-0.2c-0.233-0.066-0.433-0.15-0.6-0.25H52h-0.05c-0.034-0.033-0.067-0.05-0.1-0.05
		c-0.367-0.2-0.65-0.4-0.85-0.6L50.9,64.35z M74.9,86.7c-0.733,0.2-1.4,0.3-2,0.3l-0.3-0.05l0.65-1.25
		c0.433,0.033,0.817,0.033,1.15,0c0.1-0.033,0.217-0.066,0.35-0.101c0.3-0.066,0.717-0.233,1.25-0.5s0.933-0.433,1.2-0.5h0.45
		c-0.133,0.167-0.233,0.25-0.3,0.25c-0.033,0.034-0.083,0.067-0.15,0.101c-0.067,0.033-0.133,0.083-0.2,0.149
		c-0.3,0.167-0.733,0.301-1.3,0.4l0.05,0.05c0.133,0.233,0.217,0.483,0.25,0.75C75.633,86.467,75.267,86.6,74.9,86.7z"/>
	<path style="fill-rule:evenodd;clip-rule:evenodd;fill:#C9C1B6;" d="M42.35,161.7l-0.7-0.101H41.3h-0.1
		c0.1-5.733,0.15-11.483,0.15-17.25l0.35-6.3c0.3-8.533,0.517-14.934,0.65-19.2c0.267-7.666,0.383-14.083,0.35-19.25
		c0-3.166,0.066-5.5,0.2-7c0.333-1.633,0.75-2.949,1.25-3.949c1.333-2.801,2.934-4.567,4.8-5.3l1-0.3c0,0.633,0,1.25,0,1.851
		c0,0.533,0.033,1.416,0.1,2.649c0.067,1.066,0,1.934-0.2,2.601c-0.167,0.633-0.567,1.683-1.2,3.149
		c-0.6,1.334-0.983,2.417-1.15,3.25c-0.6,3.334-0.9,6.4-0.9,9.2v7.4c-0.267,3.199-0.5,6.399-0.7,9.6c-0.066,1.2-0.1,4.566-0.1,10.1
		c-0.033,4.334-0.216,7.601-0.55,9.801c-0.533-4.034-0.9-8.334-1.1-12.9c0-3.233-0.167-6.283-0.5-9.15v4.551l0.25-0.25L43.6,162.8
		c-0.067-0.133-0.133-0.25-0.2-0.35v-0.101l-0.05-0.199c-0.033-0.134-0.05-0.25-0.05-0.351c-0.2-0.033-0.45-0.066-0.75-0.1H42.35z
		 M29.4,158.25l-0.25-0.15l0.8-27.55l0.7-2.899c0.767-3.667,1.15-8.684,1.15-15.051l-0.05-9.5l0.8-7.649l-0.1-3.4
		c-0.2-3.5-0.267-7.2-0.2-11.1c0.033-0.133,0.167-0.367,0.4-0.7c0.233-0.4,0.467-0.85,0.7-1.35c0.967-2.133,1.816-5.967,2.55-11.5
		c0.333-2.6,0.8-7.633,1.4-15.1l0.7-4.45l1.05,8.85c0,2.566,0.017,6.483,0.05,11.75c0.033,4.767,0.017,8.716-0.05,11.85
		c-0.033,1.9-0.167,4.017-0.4,6.351L38.2,93.85c-0.233,1.134-0.85,2.884-1.85,5.25l-0.3,7.15c-0.333,6.9-0.833,13.75-1.5,20.55
		l-0.75,5.3c-0.566-0.366-0.95-0.583-1.15-0.649c-0.233,0.934,0.017,2.066,0.75,3.399c-0.133,1.134-0.283,2.867-0.45,5.2
		c-0.167,2.334-0.317,4.066-0.45,5.2l-1.7,14L29.4,158.25z M22.15,144.85c-0.433,1.934-0.683,3-0.75,3.2
		c-0.3,1.101-0.633,1.834-1,2.2l-0.2-0.55l-0.35-3.4c-0.033-0.7-0.033-1.434,0-2.2C20.75,144.233,21.517,144.483,22.15,144.85z
		 M11.6,112l-1-1.2l-0.1-0.1l-0.05-0.3l-0.8-3.851l-0.2-1l-0.2-1v-0.05c0.433-2.434,0.717-3.983,0.85-4.65L9.05,49l3.1-12.35
		l0.4,0.25c0.133,0.1,0.267,0.2,0.4,0.3L12.1,72.15c1.1,5.967,0.9,10.533-0.6,13.7c-0.1,1.233-0.1,2.5,0,3.801
		C11.767,97.45,11.8,104.9,11.6,112z M8.15,92.5c-0.133-0.366-0.283-0.684-0.45-0.95c-0.034-0.033-0.05-0.066-0.05-0.1
		S7.633,91.384,7.6,91.35c-0.033-0.1-0.083-0.199-0.15-0.3c-0.333-0.6-0.733-1.149-1.2-1.649l0.2-6.15l-0.35,6l-0.65-0.7
		c0-0.267-0.034-2.816-0.1-7.65l-0.1,7.45c-0.067-0.066-0.133-0.149-0.2-0.25C4.917,88,4.8,87.884,4.7,87.75
		c-0.067-0.033-0.117-0.083-0.15-0.15L4.5,87.55c-0.1-0.1-0.2-0.217-0.3-0.35c-0.3-0.334-0.517-0.617-0.65-0.851
		c-0.367-0.633-0.6-1.316-0.7-2.05l-0.1-0.75c-0.033-1.133,0-3.316,0.1-6.55c0.066-2.767,0.05-4.967-0.05-6.6
		c-0.2-2.566-0.383-4.783-0.55-6.65c0-0.2-0.017-0.383-0.05-0.55c-0.034-0.4-0.067-0.784-0.1-1.15c0-0.066,0-0.117,0-0.15L2,60.5
		c0-0.3-0.017-0.567-0.05-0.8L1.9,58.95V58.9l-0.1-1.2c-0.233-3.333-0.35-6.233-0.35-8.7l0.1-3.1c0-0.3,0.017-0.6,0.05-0.9
		c0-0.1,0-0.2,0-0.3v-0.35c0-0.033,0-0.067,0-0.1V44.2c0-0.034,0-0.067,0-0.1l-0.15-3.9c-0.034-0.367-0.083-0.7-0.15-1
		c-0.566-2.833-0.917-4.833-1.05-6C-0.017,31-0.067,28.933,0.1,27c0.033-0.4,0.367-1.75,1-4.05c0.033-0.1,0.066-0.184,0.1-0.25
		c0.033,0.1,0.066,0.216,0.1,0.35L2.5,26c0,0.033,0.017,0.083,0.05,0.15c0.067,0.133,0.133,0.267,0.2,0.4
		c0.933,1.8,2,3.417,3.2,4.85v33.05l0.2-1.6c0.667-3.9,1.533-8.117,2.6-12.65L9.1,103.6c-0.2-1.233-0.317-2.316-0.35-3.25
		c0.033-1.433,0.033-2.616,0-3.55c0-0.5-0.017-0.916-0.05-1.25c0-0.1,0-0.184,0-0.25l-0.35-2.05C8.317,93.184,8.3,93.134,8.3,93.1
		V93L8.15,92.5z M45.8,62.35c-0.1-0.033-0.183-0.083-0.25-0.15l0.1-0.05C45.683,62.217,45.733,62.283,45.8,62.35z M16.2,39
		c-0.034,0.7-0.05,1.4-0.05,2.1L15.8,54.85c-0.367,12.233-0.716,18.65-1.05,19.25L13.6,37.55C14.433,38.05,15.3,38.533,16.2,39z
		 M41.15,95.75L41.2,75.2l0.15-1.75c0.167-4.267,0.433-6.867,0.8-7.8c0.267-0.633,0.567-1.017,0.9-1.15
		c0.467,0,0.833-0.017,1.1-0.05c0.033,0,1,0.133,2.9,0.4l0.25,0.8c-0.233-0.033-0.517-0.117-0.85-0.25
		c-0.5-0.1-0.883-0.05-1.15,0.15c-1.1,3.034-1.767,6.35-2,9.95c-0.333,2.6-0.633,6.583-0.9,11.95
		c-0.3,5.366-0.617,9.333-0.95,11.899L41.15,95.75z"/>
	<path style="fill-rule:evenodd;clip-rule:evenodd;fill:#A79E94;" d="M55.8,165.95c-0.067,0-0.134,0.017-0.2,0.05h-0.3
		c-0.2,0-0.4,0.017-0.6,0.05c-0.067-0.033-0.117-0.033-0.15,0c-0.113-0.028-0.229-0.045-0.35-0.05c1.345,0.028,2.395-0.139,3.15-0.5
		c0.066-0.033,0.133-0.066,0.2-0.1c0,0.033-0.017,0.05-0.05,0.05c-0.1,0.033-0.183,0.083-0.25,0.149l-0.8,0.25
		C56.25,165.884,56.033,165.917,55.8,165.95z M47.95,164.75l-0.5,0.35c0.867,0.233,1.7,0.417,2.5,0.551
		c-0.133,0-0.25-0.017-0.35-0.051c-0.934-0.133-1.75-0.316-2.45-0.55l-0.2-0.05c-0.333-0.1-0.633-0.217-0.9-0.35
		c-0.2-0.067-0.4-0.15-0.6-0.25c-0.567-0.301-1.034-0.634-1.4-1c1.434-0.101,2.367-0.267,2.8-0.5c0.367-0.167,0.717-0.467,1.05-0.9
		c0,0.467,0,0.917,0,1.35L47.95,164.75z M39.6,50.1c0.1,0.033,0.2,0.05,0.3,0.05c0.533,0,0.85,0,0.95,0
		c0.2,0.033,0.383,0.067,0.55,0.1c-0.033,0.8-0.066,1.617-0.1,2.45c0.233,3.333,0.633,5.2,1.2,5.6c0.2,0.133,0.383,0.15,0.55,0.05
		c0.034,0.133,0.067,0.267,0.1,0.4c0.2,0.533,0.4,0.933,0.6,1.2c0.133,0.2,0.433,0.533,0.9,1c0.167,0.2,0.333,0.4,0.5,0.6
		c0.133,0.3,0.267,0.517,0.4,0.65c0.067,0.066,0.15,0.117,0.25,0.15c0.367,0.533,0.7,1.05,1,1.55l0.25,0.95
		c-1.9-0.267-2.867-0.4-2.9-0.4c-0.267,0.033-0.633,0.05-1.1,0.05c-0.333,0.133-0.633,0.517-0.9,1.15
		c-0.367,0.934-0.633,3.533-0.8,7.8L41.2,75.2l-0.05,20.55l-0.05,6.05c0.033-0.767,0.217-1.816,0.55-3.149l-0.55,4.5l0.05,10.75
		L40,136.1c0,9.867,0.067,16.601,0.2,20.2c0.466-0.7,0.75-2.733,0.85-6.1c0.067-3.667,0.1-5.917,0.1-6.75l0.2-7.05v7.949
		c0,5.767-0.05,11.517-0.15,17.25c-0.133,0-0.267,0-0.4,0c-0.167-0.033-0.35-0.05-0.55-0.05h-0.1c-0.1-0.033-0.183-0.05-0.25-0.05
		h-0.2c-0.1-0.033-0.184-0.05-0.25-0.05l-1-12.5c-0.2-1.601-0.35-2.884-0.45-3.851c-0.167-1.733-0.183-3.05-0.05-3.949l0.35-1.4
		c-0.867-0.467-1.75-1.15-2.65-2.05c-0.933-0.934-1.683-1.884-2.25-2.851c-0.733-1.333-0.983-2.466-0.75-3.399
		c0.2,0.066,0.583,0.283,1.15,0.649c0.633,0.4,1.534,1.067,2.7,2c1.1,0.667,2.15,0.884,3.15,0.65c0.033-0.934,0-2.233-0.1-3.9
		c-0.133-1.767-0.216-2.966-0.25-3.6c-0.333-8.634-0.4-15.134-0.2-19.5c0.2-4.333,0.283-9.733,0.25-16.2
		c-0.033-7.2-0.05-12.6-0.05-16.2C39.5,64.25,39.6,55.833,39.6,50.1z M32.25,80.95c-0.167,0.367-0.267,1.433-0.3,3.2
		c-0.133,4.199-0.2,10.517-0.2,18.949l0.05,9.5c0,6.367-0.383,11.384-1.15,15.051l-0.7,2.899l-0.15,0.5l0.05-3.85l0.05-3.9
		c0.067-10.833,0.1-18.883,0.1-24.149l-0.65,21c0.066,8.066-0.383,15.383-1.35,21.949c-0.467,2.967-0.933,7.584-1.4,13.851
		c-1.6-1-2.783-1.783-3.55-2.351v-8.149l-0.9-0.601c-0.633-0.366-1.4-0.616-2.3-0.75c0.031-0.31,0.047-0.61,0.05-0.899l0.2-5.4
		c0-0.066,0-0.116,0-0.149c0-0.067,0-0.117,0-0.15c0-0.1,0-0.217,0-0.35c0-0.167,0-0.317,0-0.45l-0.05-0.4c0-0.166,0-0.333,0-0.5
		c0-0.133,0-0.267,0-0.399c-0.066-1.334-0.1-2.45-0.1-3.351l-0.05-0.45c0.367-0.133,0.6-0.316,0.7-0.55
		c0.133-0.333,0.316-1.45,0.55-3.35l0.3-2.3c-0.833-0.167-1.617-0.367-2.35-0.601l-0.1-0.5l-0.025-0.05
		c-0.023-0.085-0.048-0.168-0.075-0.25c-0.233-0.833-0.5-1.616-0.8-2.35L18,121.4c-0.667-1.367-1.95-3.117-3.85-5.25
		c-1.167-1.334-2.083-2.551-2.75-3.65c-0.4-0.634-0.7-1.233-0.9-1.8l0.1,0.1l1,1.2c4.633,5.3,7.867,6.233,9.7,2.8
		c0.4-0.7,0.617-1.55,0.65-2.55c0-1.167,0-2.083,0-2.75c-0.034-1.667,0.133-3.733,0.5-6.2v-4.55
		c-0.034-5.267,0.283-13.316,0.95-24.15c0.367-3.9,0.6-7.117,0.7-9.65c0.2-4.733-0.05-7.883-0.75-9.45
		c-0.333,1.067-0.7,2.85-1.1,5.35c-0.333-2-0.55-4.85-0.65-8.55c0-4.167-0.017-7.083-0.05-8.75c0-0.7,0-1.417,0-2.15
		c0.167,0.067,0.35,0.133,0.55,0.2l0.55,0.2c0.467,0.167,0.95,0.35,1.45,0.55c-0.033,2.2-0.067,4.783-0.1,7.75
		c0.1-3.067,0.483-4.75,1.15-5.05c0.5-0.3,1,0.95,1.5,3.75c0.333,1.9,0.567,3.784,0.7,5.65c0.5,5.966,0.933,11.983,1.3,18.05
		c0.1,1.7,0.15,4.233,0.15,7.6c0,3.433,0.034,5.9,0.1,7.4c0.6-10.767,0.867-25.25,0.8-43.45c0.133,0.034,0.267,0.067,0.4,0.1
		l0.2,0.05c0.633,0.133,1.267,0.25,1.9,0.35c-0.067,3.067-0.184,5.65-0.35,7.75c-0.4,5.3-0.6,10.35-0.6,15.15v9.1
		c0,2.667,0.017,4.117,0.05,4.35c0.067-0.2,0.5-2.9,1.3-8.1c0.4-1.966,1.217-5.367,2.45-10.2c1.067-4.267,1.817-7.7,2.25-10.3
		c-0.6,7.467-1.066,12.5-1.4,15.1c-0.733,5.533-1.583,9.367-2.55,11.5c-0.233,0.5-0.467,0.95-0.7,1.35
		C32.417,80.583,32.283,80.817,32.25,80.95z M28.9,157.9l0.25-3.95v4.149L28.9,157.9z M48.65,78.4c0.233-0.133,0.4-0.233,0.5-0.3
		c0.167-0.1,0.333-0.184,0.5-0.25c0,0.267,0.017,0.5,0.05,0.7c0.1,1.6,0.183,3.1,0.25,4.5l-1,0.3c-1.867,0.733-3.467,2.5-4.8,5.3
		c-0.5,1-0.917,2.316-1.25,3.949L42.3,95.7l0.05-3.3l0.45-3.051c0.6-3.6,1-5.7,1.2-6.3c0.433-1.367,1.267-2.45,2.5-3.25
		c0.767-0.5,1.383-0.9,1.85-1.2c0.133,1.167,0.217,2.066,0.25,2.7L48.65,78.4z M50.6,149.1l0.1-3.35
		c0.167-1.967,0.216-3.45,0.15-4.45c0.167-0.866,0.367-1.633,0.6-2.3c0.933,1.8,1.167,4.917,0.7,9.35
		c-0.533,4.634-0.433,7.867,0.3,9.7c0.033-0.467,0.1-0.899,0.2-1.3c0,0.333,0.017,0.783,0.05,1.35c0.033,0.834-0.05,1.417-0.25,1.75
		h-0.1c-0.2-1.566-0.367-2.75-0.5-3.55c-0.2-1.399-0.417-2.566-0.65-3.5C50.9,151.7,50.7,150.467,50.6,149.1z M9.05,49l-0.3,1.2
		c-1.067,4.533-1.933,8.75-2.6,12.65l-0.2,1.6V31.4c1,1.2,2.1,2.267,3.3,3.2c0.867,0.7,1.833,1.383,2.9,2.05L9.05,49z M5.25,88.35
		l0.1-7.45c0.066,4.833,0.1,7.383,0.1,7.65L5.25,88.35z"/>
	<path style="fill-rule:evenodd;clip-rule:evenodd;fill:#B9B0A7;" d="M55.6,166c0.065-0.033,0.132-0.05,0.2-0.05
		c-0.034,0.001-0.067,0.018-0.1,0.05C55.667,166,55.633,166,55.6,166z M41.3,161.6h0.35l0.7,0.101
		C42.05,161.667,41.7,161.634,41.3,161.6z M22.15,144.85l0.9,0.601v8.149c0.767,0.567,1.95,1.351,3.55,2.351l0.65,0.55
		c-1.867-1.233-3.233-2.167-4.1-2.8c-0.4-0.267-0.75-0.55-1.05-0.851l-0.05-0.05c-0.633-0.633-1.117-1.316-1.45-2.05
		c-0.167-0.333-0.3-0.684-0.4-1.05l0.2,0.55c0.367-0.366,0.7-1.1,1-2.2C21.467,147.85,21.717,146.783,22.15,144.85z M29.4,158.25
		l1.4,1l1.7-14c0.133-1.134,0.283-2.866,0.45-5.2c0.167-2.333,0.316-4.066,0.45-5.2c0.567,0.967,1.317,1.917,2.25,2.851
		c0.9,0.899,1.783,1.583,2.65,2.05l-0.35,1.4c-0.133,0.899-0.117,2.216,0.05,3.949c0.1,0.967,0.25,2.25,0.45,3.851l1,12.5
		c-0.034,0-0.067,0-0.1,0H39.3c-0.066,0-0.117,0-0.15,0c-0.133-0.033-0.25-0.05-0.35-0.05h-0.4l-0.2-0.025l-1.05-0.125
		c-0.1,0-0.183,0-0.25,0l-0.45-0.05c-0.2-0.033-0.383-0.066-0.55-0.101l-0.45-0.1c-1.167-0.2-2.25-0.517-3.25-0.95
		c-0.133-0.1-0.284-0.184-0.45-0.25c-0.167-0.1-0.333-0.184-0.5-0.25L31,159.4l-0.05-0.051c-0.034,0-0.067-0.017-0.1-0.05
		s-0.083-0.066-0.15-0.1C30.3,158.934,29.867,158.616,29.4,158.25z M19.85,144.1c-0.033,0.767-0.033,1.5,0,2.2
		c-0.033-0.467-0.05-0.95-0.05-1.45c0-0.399,0.017-0.8,0.05-1.199c0.029-0.146,0.046-0.296,0.05-0.45
		C19.897,143.489,19.881,143.79,19.85,144.1z M19.1,124.8c0.733,0.233,1.517,0.434,2.35,0.601l-0.3,2.3
		c-0.233,1.899-0.417,3.017-0.55,3.35c-0.1,0.233-0.333,0.417-0.7,0.55l-0.6-5.899c-0.066-0.233-0.117-0.45-0.15-0.65L19.1,124.8z
		 M11.4,112.5c0.667,1.1,1.583,2.316,2.75,3.65c1.9,2.133,3.184,3.883,3.85,5.25c-0.667-1.301-2.133-3.25-4.4-5.851
		C12.7,114.517,11.967,113.5,11.4,112.5z M9.25,104.5l-0.05-0.25v-0.05c-0.034-0.2-0.067-0.4-0.1-0.601L8.75,50.2l0.3-1.2
		l1.05,50.85C9.967,100.517,9.683,102.066,9.25,104.5z M9.45,105.55l0.2,1l0.8,3.851c-0.167-0.467-0.284-0.934-0.35-1.4l-0.45-2.45
		c-0.033-0.066-0.05-0.116-0.05-0.149L9.45,105.55z M8.15,92.5c-0.033-0.066-0.066-0.134-0.1-0.2L7.7,91.55
		C7.867,91.816,8.017,92.134,8.15,92.5z M11.6,112c0.2-7.1,0.167-14.55-0.1-22.35c-0.1-1.301-0.1-2.567,0-3.801
		c1.5-3.167,1.7-7.733,0.6-13.7l0.85-34.95c0.1,0.066,0.216,0.133,0.35,0.2l0.1,0.05c0.067,0.033,0.133,0.066,0.2,0.1l1.15,36.55
		c0.333-0.6,0.683-7.017,1.05-19.25l0.35-13.75c0-0.7,0.017-1.4,0.05-2.1l4.7,2.1c0.2,0.1,0.417,0.2,0.65,0.3c0,0.733,0,1.45,0,2.15
		c0.034,1.667,0.05,4.583,0.05,8.75c0.1,3.7,0.316,6.55,0.65,8.55c0.4-2.5,0.767-4.283,1.1-5.35c0.7,1.567,0.95,4.717,0.75,9.45
		c-0.1,2.533-0.333,5.75-0.7,9.65c-0.667,10.833-0.983,18.883-0.95,24.15v4.55c-0.367,2.467-0.534,4.533-0.5,6.2
		c0,0.667,0,1.583,0,2.75c-0.034,1-0.25,1.85-0.65,2.55C19.467,118.233,16.233,117.3,11.6,112z M5.25,88.35l0.2,0.2l0.65,0.7l0.35-6
		l-0.2,6.15c0.467,0.5,0.867,1.05,1.2,1.649C7.183,90.616,6.45,89.717,5.25,88.35z M32.25,80.95c-0.067,3.899,0,7.6,0.2,11.1
		l0.1,3.4l-0.8,7.649c0-8.433,0.067-14.75,0.2-18.949C31.983,82.383,32.083,81.317,32.25,80.95z M39.6,50.1
		c0,5.733-0.1,14.15-0.3,25.25c0,3.6,0.017,9,0.05,16.2c0.033,6.467-0.05,11.867-0.25,16.2c-0.2,4.366-0.133,10.866,0.2,19.5
		c0.034,0.634,0.117,1.833,0.25,3.6c0.1,1.667,0.133,2.967,0.1,3.9c-1,0.233-2.05,0.017-3.15-0.65c-1.167-0.933-2.067-1.6-2.7-2
		l0.75-5.3c0.667-6.8,1.167-13.649,1.5-20.55l0.3-7.15c1-2.366,1.617-4.116,1.85-5.25l0.45-7.199c0.233-2.334,0.367-4.45,0.4-6.351
		c0.067-3.133,0.083-7.083,0.05-11.85c-0.033-5.267-0.05-9.184-0.05-11.75L38,47.85c0.067-0.434,0.133-0.883,0.2-1.35
		c0.167,0.6,0.333,1.183,0.5,1.75l0.5,1.55C39.333,49.933,39.467,50.033,39.6,50.1z M43.05,58.35c-0.167,0.1-0.35,0.083-0.55-0.05
		c-0.567-0.4-0.967-2.267-1.2-5.6c0.034-0.833,0.067-1.65,0.1-2.45c0.434,0.033,0.667,0.067,0.7,0.1c0.133,0.133,0.316,0.6,0.55,1.4
		c0.2,0.733,0.267,1.9,0.2,3.5C42.817,56.55,42.883,57.583,43.05,58.35z M45.55,62.2c-0.133-0.133-0.267-0.35-0.4-0.65
		c0.167,0.167,0.333,0.367,0.5,0.6L45.55,62.2z M49.65,77.85c-0.167,0.066-0.333,0.15-0.5,0.25c-0.1,0.066-0.267,0.167-0.5,0.3
		l0.15-6.9C49.2,74.2,49.483,76.317,49.65,77.85z M46.6,113.15v6.35c0,0.467-0.033,1.2-0.1,2.2c0,0.899,0.117,1.6,0.35,2.1
		c0.167,0.4,0.533,0.834,1.1,1.3c0.466,0.667,0.8,1.584,1,2.75c0.133,0.667,0.267,1.667,0.4,3c0.433,2.9,0.983,4.884,1.65,5.95
		c0.1,0.167,0.517,0.684,1.25,1.55c0.5,0.634,0.85,1.217,1.05,1.75c0.4,1.101,0.567,2.551,0.5,4.351
		c-0.066,1.033-0.216,2.5-0.45,4.399c-0.033,0.5-0.184,1.75-0.45,3.75c-0.2,1.5-0.3,2.733-0.3,3.7c0,0.101,0.017,0.25,0.05,0.45
		c-0.1,0.4-0.167,0.833-0.2,1.3c-0.733-1.833-0.833-5.066-0.3-9.7c0.467-4.433,0.233-7.55-0.7-9.35
		c-0.233,0.667-0.434,1.434-0.6,2.3c-0.033-0.333-0.083-0.616-0.15-0.85c0.066-0.5-0.05-0.917-0.35-1.25l-0.05,0.35v-0.05
		c-0.4,0.467-0.683,1.333-0.85,2.6c-0.1,0.7-0.184,1.567-0.25,2.601c-0.833,6.434-1.267,12.2-1.3,17.3
		c-0.333,0.434-0.683,0.733-1.05,0.9c-0.434,0.233-1.367,0.399-2.8,0.5c0.367,0.366,0.833,0.699,1.4,1
		c-0.733-0.367-1.267-0.767-1.6-1.2H43.8c-0.2-0.267-0.333-0.517-0.4-0.75c0.067,0.1,0.133,0.217,0.2,0.35l0.3-37.899l-0.25,0.25
		V120.6c0.333,2.867,0.5,5.917,0.5,9.15c0.2,4.566,0.567,8.866,1.1,12.9c0.333-2.2,0.517-5.467,0.55-9.801
		c0-5.533,0.034-8.899,0.1-10.1C46.1,119.55,46.333,116.35,46.6,113.15z M42.9,92.6c-0.133,1.5-0.2,3.834-0.2,7
		c0.033,5.167-0.083,11.584-0.35,19.25c-0.133,4.267-0.35,10.667-0.65,19.2l-0.35,6.3V136.4c0.467-15.834,0.783-29.4,0.95-40.7
		L42.9,92.6z M56.2,140.65c-0.1-0.233-0.184-0.45-0.25-0.65H56C56.067,140.2,56.133,140.417,56.2,140.65z M49.85,93.3
		c-0.033,0.2-0.067,0.4-0.1,0.601c0,0.066,0,0.116,0,0.149c-0.026,0.026-0.043,0.052-0.05,0.075
		C49.735,93.836,49.785,93.561,49.85,93.3z M28.9,157.9l0.95-30.7l-0.05,3.85l0.15-0.5l-0.8,27.55v-4.149L28.9,157.9z M41.15,113.9
		l-0.05-10.75l0.55-4.5c-0.333,1.333-0.517,2.383-0.55,3.149l0.05-6.05l0.3,3.6c0.333-2.566,0.65-6.533,0.95-11.899
		c0.267-5.367,0.567-9.35,0.9-11.95c0.233-3.6,0.9-6.917,2-9.95c0.267-0.2,0.65-0.25,1.15-0.15c0.333,0.133,0.617,0.217,0.85,0.25
		v0.1c0.133,0.767,0.217,1.683,0.25,2.75c0.034,0.633,0.05,1.583,0.05,2.85c0,1.2,0.15,2.867,0.45,5
		c0.133,0.833,0.233,1.583,0.3,2.25c-0.467,0.3-1.083,0.7-1.85,1.2c-1.233,0.8-2.067,1.883-2.5,3.25c-0.2,0.6-0.6,2.7-1.2,6.3
		L42.35,92.4V90.35L41.15,113.9z"/>
	<path style="fill-rule:evenodd;clip-rule:evenodd;fill:#7B756E;" d="M29.85,127.2l-0.95,30.7l-1.25-1.051
		c-0.066-0.066-0.133-0.116-0.2-0.149l-0.2-0.2l-0.65-0.55c0.467-6.267,0.933-10.884,1.4-13.851
		c0.967-6.566,1.417-13.883,1.35-21.949l0.65-21c0,5.267-0.033,13.316-0.1,24.149L29.85,127.2z M38,47.85l-0.7,4.45
		c-0.433,2.6-1.183,6.034-2.25,10.3c-1.233,4.833-2.05,8.233-2.45,10.2c-0.8,5.2-1.233,7.9-1.3,8.1
		c-0.033-0.233-0.05-1.683-0.05-4.35v-9.1c0-4.8,0.2-9.85,0.6-15.15c0.167-2.1,0.283-4.683,0.35-7.75c0.2,0.034,0.4,0.067,0.6,0.1
		l4.9,0.45c0.167,0.467,0.333,0.933,0.5,1.4C38.133,46.967,38.067,47.417,38,47.85z M29.7,44.05c0.066,18.2-0.2,32.684-0.8,43.45
		c-0.066-1.5-0.1-3.967-0.1-7.4c0-3.367-0.05-5.9-0.15-7.6c-0.367-6.067-0.8-12.083-1.3-18.05c-0.133-1.867-0.367-3.75-0.7-5.65
		c-0.5-2.8-1-4.05-1.5-3.75c-0.667,0.3-1.05,1.983-1.15,5.05c0.033-2.967,0.067-5.55,0.1-7.75l2.15,0.75
		c0.067,0,0.133,0.017,0.2,0.05c0.267,0.067,0.517,0.15,0.75,0.25l1.95,0.5C29.317,43.967,29.5,44.017,29.7,44.05z M42.3,95.7
		c-0.167,11.3-0.483,24.866-0.95,40.7l-0.2,7.05c0,0.833-0.033,3.083-0.1,6.75c-0.1,3.366-0.383,5.399-0.85,6.1
		c-0.133-3.6-0.2-10.333-0.2-20.2l1.15-22.199l1.2-23.551V92.4L42.3,95.7z"/>
	<path style="fill-rule:evenodd;clip-rule:evenodd;fill:#6D655A;" d="M94.05,133.8c-0.2,0.033-0.399,0.084-0.6,0.15L93.3,134
		c-0.2,0-0.366,0.017-0.5,0.05l0.5-3.1l1.4,0.3l-0.05,2.3C94.417,133.616,94.217,133.7,94.05,133.8z M61.55,146.25
		c0.434,1.366,0.7,2.35,0.8,2.95c-0.167,0.066-0.333,0.149-0.5,0.25c-0.133,0.066-0.25,0.149-0.35,0.25L61.55,146.25z M36.9,161.25
		c0.067,0,0.15,0,0.25,0l1.05,0.125c-0.174-0.017-0.357-0.025-0.55-0.025L36.9,161.25z M93.35,130.95L93.9,126
		c0.199-2.934,0.366-7.6,0.5-14c0.133-6.1,0.333-10.767,0.6-14l-0.2,24.35l-0.2-5.8c-0.033,0.733-0.133,2.267-0.3,4.601
		c-0.133,2.533,0.017,4.216,0.45,5.05l-0.05,3.649l-0.2,0.45C94.233,130.634,93.85,130.85,93.35,130.95z M53.4,89.25
		c-0.333,2.333-0.783,4.283-1.35,5.85c-0.333,1-1.133,1.567-2.4,1.7c-0.066,0-0.15,0.017-0.25,0.05c0-0.066,0-0.133,0-0.199l0.15-1
		c0.034-0.434,0.083-0.851,0.15-1.25v-0.275c0.006-0.023,0.023-0.049,0.05-0.075c0-0.033,0-0.083,0-0.149
		c0.033-0.2,0.067-0.4,0.1-0.601l0.1-0.6c0-0.066,0-0.117,0-0.15L50,92.2c0.6-3.4,1.067-6.634,1.4-9.7l0.4-3.85
		c0.3-4.167,0.383-8.017,0.25-11.55L52,65.55c0-0.133,0-0.267,0-0.4h0.05c0.167,0.1,0.367,0.184,0.6,0.25l-0.05,0.2h0.85
		c0.966,0.167,1.933,0.167,2.9,0l1.15-0.3c0.6-0.267,1.05-0.65,1.35-1.15c0.167,0,0.3,0,0.4,0l0.25-0.25l0.2-0.3l-0.25,0.45
		c0,0.534-0.017,1.333-0.05,2.4c0,0.966,0.05,1.767,0.15,2.4c0.067-0.133,0.317-1.05,0.75-2.75c0.3-1.1,0.75-1.85,1.35-2.25
		L61.55,64c-0.267,1.433-0.617,2.967-1.05,4.6c-0.533,1.967-1.1,3.55-1.7,4.75c-0.6,1.2-1.483,2.467-2.65,3.8L55.4,78
		c-0.4,0.433-0.683,0.833-0.85,1.2c-0.2,0.3-0.4,0.783-0.6,1.45V78.2l-0.05,2.55c-0.167,0.733-0.25,1.767-0.25,3.1
		c0,1.667-0.033,2.833-0.1,3.5L53.4,89.25z M67.4,55.5c0.833,0.433,1.567,0.817,2.2,1.15c-0.1,0.767-0.15,1.533-0.15,2.3
		c-0.034,1.3-0.067,1.983-0.1,2.05c-0.1,0.7-0.434,1.267-1,1.7l-0.5-0.15C67.717,60.117,67.567,57.767,67.4,55.5z M56.95,49.5
		L57,49.4c2.633,1.567,4.933,2.934,6.9,4.1c-0.167,0.667-0.35,1.3-0.55,1.9c-0.6,1.9-1.15,2.867-1.65,2.9
		c-0.333,0-1.067-0.6-2.2-1.8c-0.6,0.567-0.983,0.9-1.15,1c-0.5,0.367-0.95,0.5-1.35,0.4C56.733,55.733,56.717,52.933,56.95,49.5z
		 M49.8,121.05l-0.3-1.25c-0.1-0.633-0.2-1.267-0.3-1.899l-0.15-1.301c-0.033-0.267-0.066-0.517-0.1-0.75V102.6
		c0-0.199,0-0.383,0-0.55L49,101.65c0.433,0.366,0.733,0.85,0.9,1.449c0.333,1,0.45,2.5,0.35,4.5
		c-0.067,1.067-0.167,2.584-0.3,4.551v7.649C49.95,120.267,49.9,120.684,49.8,121.05z M51.2,122.6c0.233-2,0.333-4.416,0.3-7.25
		c-0.1-3.199-0.167-5.616-0.2-7.25c-0.066-1.1-0.117-1.933-0.15-2.5c-0.066-1.066,0-1.883,0.2-2.449c0.033-0.2,0.2-0.551,0.5-1.051
		c0.333-0.566,0.583-0.866,0.75-0.899c0.233-0.033,0.483,0.05,0.75,0.25c-0.6,1-0.95,2.967-1.05,5.899
		c-0.033,1.534-0.033,3.301,0,5.301c-0.033,0.899-0.066,2.416-0.1,4.55c-0.067,1.934-0.284,3.45-0.65,4.55L51.2,122.6z M58.4,114
		l-0.6,8.85c-0.033,2.534-0.183,5.051-0.45,7.551h-0.2c-0.2,0-0.65,0.033-1.35,0.1c-0.6,0.066-1.066,0.083-1.4,0.05
		c-0.1-1.467,0.017-3.366,0.35-5.7c0.433-3.1,0.667-4.983,0.7-5.649c0.1-1.4,0.133-3.117,0.1-5.15c-0.033-2.3-0.066-4.017-0.1-5.149
		c0-1.233-0.017-2.2-0.05-2.9c-0.033-1.2-0.15-2.217-0.35-3.05c0.333,0.133,0.733,0.2,1.2,0.2c0.967-0.034,1.467-0.051,1.5-0.051
		c0.8,0,1.367,0.267,1.7,0.801c-0.267,0.6-0.467,1.767-0.6,3.5v0.199l-0.25,1.7c-0.467,1.867-0.7,2.884-0.7,3.05
		C57.933,112.583,58.1,113.134,58.4,114z M61.8,103.8c0.333-0.467,0.85-0.533,1.55-0.2c0.867,0.5,1.483,0.834,1.85,1
		c0.566,0.301,1.267,0.384,2.1,0.25l0.05,0.051c0.7,0.666,1.167,1.566,1.4,2.699c0.1,0.534,0.183,1.617,0.25,3.25
		c0.133,3.467-0.2,7.483-1,12.051l-0.35,2.199l0.05-0.449l0.15-1.851l-0.55,4.05c-0.433-0.466-1.233-0.517-2.4-0.149
		c-0.1-0.767-0.117-1.8-0.05-3.101c0.066-1.666,0.1-2.716,0.1-3.149c-0.034-0.601-0.133-1.717-0.3-3.351
		c-0.133-1.399-0.2-2.583-0.2-3.55c0.167-2.5,0.183-4.467,0.05-5.899C64.233,104.917,63.333,103.634,61.8,103.8z M66.25,130.45
		l-0.5-1.15L67,128.65l-0.55,2.699L66.25,130.45z M65.5,142l0.05,6.8l-0.25-0.95c-0.033-0.133-0.45-1.05-1.25-2.75
		c-0.466-1.066-0.733-2.05-0.8-2.949c-0.067-0.9,0.017-2.617,0.25-5.15l1.25,0.35l0.7,0.2L65.5,142z"/>
</g>
</svg>
