<?xml version="1.0" encoding="iso-8859-1"?>
<!-- Generator: Adobe Illustrator 15.1.0, SVG Export Plug-In . SVG Version: 6.00 Build 0)  -->
<!DOCTYPE svg PUBLIC "-//W3C//DTD SVG 1.1//EN" "http://www.w3.org/Graphics/SVG/1.1/DTD/svg11.dtd">
<svg version="1.1" xmlns="http://www.w3.org/2000/svg" xmlns:xlink="http://www.w3.org/1999/xlink" x="0px" y="0px" width="254px"
	 height="118.9px" viewBox="0 0 254 118.9" style="enable-background:new 0 0 254 118.9;" xml:space="preserve">
<g id="Layer_1">
	<g>
		<path style="fill-rule:evenodd;clip-rule:evenodd;fill:#ABB5C0;" d="M196.25,114.65c-0.8,0.233-1.583,0.483-2.35,0.75L187.3,117.8
			c-0.066,0.033-0.133,0.066-0.2,0.101l-0.949,0.35c0.6-0.6,1.25-1.616,1.949-3.05c0.467-1.066,0.851-2.084,1.15-3.05
			c0.267-0.9,0.434-2.084,0.5-3.551c0.033-1.533-0.066-2.716-0.3-3.55c-0.233-0.8-0.717-1.8-1.45-3
			c-0.833-1.333-1.434-2.316-1.8-2.95l-0.3-0.449c-0.367-0.634-0.983-1.851-1.851-3.65c-0.733-1.6-1.383-2.8-1.95-3.6l-0.449-0.7
			c-1.034-1.4-2.767-3.15-5.2-5.25c-2.667-2.334-4.45-4.033-5.351-5.101l-1.399-1.5l-3.75-3.949c-0.934-1-1.517-2.101-1.75-3.301
			c-0.101-0.633-0.134-1.933-0.101-3.899c0.034-1.9,0.101-3.217,0.2-3.95c0.233-1.667,0.7-2.884,1.4-3.65
			c1.133,1.934,2.517,3.867,4.149,5.801l1,1.25c1.267,1.566,3.384,3.5,6.351,5.8c1.666,1.3,3.083,2.3,4.25,3
			c1.566,0.899,3.149,1.533,4.75,1.899c1.666,0.534,2.916,0.851,3.75,0.95c1.434,0.2,2.916,0.233,4.45,0.101
			c1.966-0.2,3.333-0.65,4.1-1.351l-4.7-1.75l1-0.2c2.233-0.699,3.934-1.216,5.101-1.55c2.1-0.6,3.833-0.899,5.199-0.899
			c0.967,0,1.584,0.116,1.851,0.35c0.267,0.267,0.45,0.9,0.55,1.9c0.066,0.6,0.083,1.5,0.05,2.699
			c0.033,1.067,0.283,1.934,0.75,2.601c0.634,0.866,1.9,1.467,3.8,1.8c1.667,0.3,3.15,0.3,4.45,0c2.733-0.566,4.233-2.767,4.5-6.6
			c0.167-2.4,0.2-4.601,0.101-6.601c-0.567-0.033-1.434-0.1-2.601-0.2c-1.066-0.066-2-0.199-2.8-0.399
			c-1.167-0.3-2.116-0.851-2.85-1.65c-0.733-0.833-1.184-1.816-1.351-2.95c-0.733-5.733,0.783-9.583,4.55-11.55
			c1.767-0.933,2.717-1.45,2.851-1.55c0.733-0.633,1-1.583,0.8-2.85c-0.2-1.3-0.833-2.4-1.9-3.3c-0.899-0.8-2.033-1.367-3.399-1.7
			c-0.9-0.233-2.2-0.367-3.9-0.4c-1.767-0.033-3.05-0.133-3.85-0.3c-0.934-0.2-1.717-0.75-2.351-1.65
			c-0.566-1.033-0.983-1.667-1.25-1.9c-0.3-0.3-1.1-0.65-2.399-1.05c-2.566-0.833-4.033-1.3-4.4-1.4c-1.566-0.4-3.083-0.6-4.55-0.6
			c-4.333,0.066-7.3,0.183-8.9,0.35c-1.899,0.2-4.783,0.483-8.649,0.85c-3.367,0.3-6.283,0.45-8.75,0.45
			c-2.4,0-6.217,0.033-11.45,0.1c-4.5-0.233-8.134-1.217-10.9-2.95c-4.133-2.6-6.517-4.066-7.149-4.4
			c-1.533-0.833-3.434-1.683-5.7-2.55c1.967,0.167,4.95,0.733,8.95,1.7c3.899,0.934,6.866,1.467,8.899,1.6
			c1.334,0.067,3.051,0.083,5.15,0.05c3.066-0.066,4.767-0.1,5.1-0.1c4.634,0,8.051-0.1,10.25-0.3c3.634-0.333,6.95-1.05,9.95-2.15
			c1.167-0.5,2.066-0.883,2.7-1.15c0.8-0.3,1.684-0.383,2.65-0.25l0.1,0.05c0.167,0,0.566,0.083,1.2,0.25l1.45,0.3
			c2.199,0.5,3.35,0.75,3.449,0.75c1.334,0.2,2.5,0.117,3.5-0.25c2.034-0.733,3.534-1.917,4.5-3.55l0.051-0.05
			c0.767-1.367,1.233-3.133,1.399-5.3c1.733,1.5,2.783,2.3,3.15,2.4c1.467,0.433,3.267,1.267,5.399,2.5
			c0.367,0.233,0.767,0.483,1.2,0.75c0.2,0.133,0.417,0.267,0.65,0.4c0.166,0.1,0.333,0.217,0.5,0.35
			c0.333,0.2,0.649,0.417,0.95,0.65c0.199,0.133,0.416,0.283,0.649,0.45c0.033,0.034,0.066,0.067,0.101,0.1L212.3,27
			c0.066,0.033,0.134,0.083,0.2,0.15l0.05,0.05l1.726,1.45c0.5,0.483,0.925,0.95,1.274,1.4l-1.149-0.3c0.733,1.5,0.566,2.5-0.5,3
			c-0.867,0.433-2.067,0.483-3.601,0.15c-1.399-0.333-2.583-0.25-3.55,0.25c-1.1,0.567-1.55,1.617-1.35,3.15
			c0.199,1.467,1.25,2.65,3.149,3.55c1.434,0.7,3.017,1.133,4.75,1.3c0.167,0.033,0.65,0.217,1.45,0.55
			c0.733,0.3,1.167,0.433,1.3,0.4c0.533-0.1,0.934-0.867,1.2-2.3c0.066-0.433,0.25-1.9,0.55-4.4c0.033,0.067,0.066,0.117,0.101,0.15
			l1.199,2.2c0.034,0.1,0.084,0.183,0.15,0.25c0.333,0.533,0.7,1.067,1.1,1.6l0.7,0.9c0.367,0.467,0.767,0.933,1.2,1.4
			c0.097,0.097,0.196,0.197,0.3,0.3c0.063,0.084,0.129,0.167,0.2,0.25l4.95,5.05c0.1,0.133,0.217,0.267,0.35,0.4
			c0.101,0.1,0.184,0.184,0.25,0.25c1.967,2.167,4.601,5.367,7.9,9.6c3.566,4.6,6.166,7.833,7.8,9.7
			c0.267,0.3,0.717,0.767,1.35,1.399c0.4,0.4,0.9,0.867,1.5,1.4c-0.033,0-0.066,0-0.1,0c-0.167-0.033-0.417-0.05-0.75-0.05
			c-1.833-0.101-3.483,0.066-4.95,0.5c-0.3,2.366-0.816,4.033-1.55,5c-0.4,0.5-0.85,0.866-1.35,1.1
			c-0.667,0.267-1.45,0.25-2.351-0.05c-0.767-0.233-1.45-0.6-2.05-1.1c-0.767-0.634-1.816-1.584-3.15-2.851
			c-1.433-1.333-2.483-2.283-3.149-2.85c-0.934-0.767-1.467-1.233-1.601-1.4c-0.433-0.467-0.733-1.116-0.899-1.95L224.8,65.7
			c-0.233-1.334-0.434-2.25-0.6-2.75c-0.233-0.8-0.816-1.884-1.75-3.25c-1.033-1.5-1.7-2.633-2-3.4c-0.767,0.6-1.167,1.467-1.2,2.6
			c-0.033,1,0.217,1.95,0.75,2.85c0.2,0.3,0.483,0.634,0.85,1c0.301,0.366,0.483,0.8,0.551,1.3c0.033,0.134,0,0.834-0.101,2.101
			c-0.066,0.633-0.017,1.133,0.15,1.5c0.233,0.633,0.717,1.433,1.45,2.399c0.433,0.533,1.05,1.267,1.85,2.2
			c0.4,0.5,1.717,1.866,3.95,4.1c2.666,2.534,4.816,4.983,6.45,7.351c1.033,1.434,1.683,2.633,1.949,3.6
			c0.334,1.167,0.317,2.533-0.05,4.101c-1.033,4.133-3.25,5.933-6.649,5.399c-1.5-0.233-2.067-2.383-1.7-6.45
			c0.399-4.166-0.4-6.533-2.4-7.1c0.033,0.467-0.184,1.566-0.649,3.3c-0.301,1.566-0.134,2.4,0.5,2.5c-0.2,0.767-1,1.684-2.4,2.75
			c-0.767,0.601-1.866,1.367-3.3,2.3c-0.634,0.467-1.584,1.284-2.851,2.45c-1.166,0.967-2.233,1.566-3.199,1.8
			c-1.733,0.467-3.534,0.551-5.4,0.25c-2.333-0.333-3.667-1.199-4-2.6c-0.134-1.3-0.267-2.134-0.4-2.5
			c-0.199-0.467-0.899-1.017-2.1-1.65c-0.4-0.199-0.75-0.383-1.05-0.55c-0.2-0.1-0.601-0.184-1.2-0.25
			c-0.4-0.033-0.917-0.05-1.55-0.05c-0.533-0.033-1.017-0.134-1.45-0.3c-0.934-0.367-2.2-1.65-3.8-3.851
			c-1.5-2.033-2.717-3.116-3.65-3.25c1.467,3.034,2.65,5.134,3.55,6.301c0.9,1.199,2.134,2.383,3.7,3.55
			c0.9,0.666,2.3,1.633,4.2,2.899c1.5,1.101,2.467,2.717,2.9,4.851c0.333,1.733,0.316,3.666-0.051,5.8
			c-0.333,1.8-1.55,3.6-3.649,5.4c-0.233,0.199-0.851,0.55-1.851,1.05C197.434,113.983,196.65,114.384,196.25,114.65z M190.8,14.85
			l1.05,0.2l-1.149,0.8c-0.101,0.2-0.217,0.517-0.351,0.95c-0.133,0.4-0.267,0.717-0.399,0.95c-0.233,0.433-0.617,0.9-1.15,1.4
			l0.25-0.3c0.767-1.033,1.184-1.9,1.25-2.6L190.8,14.85z M158.65,27.45c1.6-0.333,3.199-0.633,4.8-0.9
			c1.033-0.167,2.566-0.233,4.6-0.2c2.066,0,3.584-0.067,4.55-0.2l3.95-0.55c2.8-0.467,5.066-1.15,6.8-2.05
			c0.434-0.233,0.801-0.433,1.101-0.6c0.1-0.1,0.2-0.167,0.3-0.2c-0.733,0.6-1.45,1.117-2.15,1.55l-2.199,0.95
			c-4.467,1.367-10.65,2.05-18.551,2.05C160.783,27.3,159.717,27.35,158.65,27.45z M142.25,27.9c3.066,0.467,5.6,0.7,7.6,0.7
			c-1.5,0.2-3,0.3-4.5,0.3c-2.466,0-4.433-0.167-5.899-0.5c-1.3-0.3-2.834-0.483-4.601-0.55c-1-0.033-2.533-0.083-4.6-0.15l-2.8-1.2
			c1.733-0.133,3.666-0.117,5.8,0.05c1.267,0.1,4.033,0.5,8.3,1.2C141.783,27.783,142.017,27.833,142.25,27.9z M182.25,119.05
			c-0.267,0.033-0.55,0.05-0.85,0.05H179c-1.533-0.066-3.333-0.233-5.4-0.5c-4.267-0.5-7.05-0.75-8.35-0.75l-12.15-0.8
			c-0.166-0.033-0.333-0.05-0.5-0.05c-0.399-0.033-0.783-0.066-1.149-0.1l-8.9-0.301c-0.899,0.034-1.75,0.084-2.55,0.15v-12.5
			c0.033-1.8-0.05-3.2-0.25-4.2c-0.267-1.434-0.833-2.666-1.7-3.7l-2.5-2.75c-2.6-2.899-4.1-4.899-4.5-6
			c0.367-0.199,0.967-0.35,1.8-0.449c0.801-0.067,1.434-0.267,1.9-0.601c0.733-0.566,1.3-1.35,1.7-2.35
			c0.3-0.767,0.566-1.617,0.8-2.55c0.233-1.134,0.4-2.551,0.5-4.25c0.1-1.9,0.184-3.334,0.25-4.301
			c0.566,0.934,0.967,2.051,1.2,3.351c0.1,0.733,0.116,2.916,0.05,6.55c-0.066,2.634,0.316,4.684,1.15,6.15
			c0.899,1.533,2.399,3.149,4.5,4.85c0.933,0.733,2.366,1.6,4.3,2.6c2.033,1,3.483,1.834,4.35,2.5
			c1.566,1.233,3.117,3.284,4.65,6.15c1.733,3.2,3.116,5.35,4.149,6.45c1.167,1.233,2.867,2.483,5.101,3.75
			c2.1,1.166,4.05,2.017,5.85,2.55c1.5,0.467,3.25,0.75,5.25,0.85L180,118.9C180.934,118.967,181.684,119.017,182.25,119.05z
			 M99.35,112.15c-3.4-0.567-5.817-0.934-7.25-1.101H92c-1.7-0.166-4.55-0.983-8.55-2.45c-3.4-1.199-6.434-1.716-9.1-1.55l-7,0.5
			l0.4-0.05c0.133-0.033,0.283-0.05,0.45-0.05c0.042,0,0.075,0,0.1,0h0.05c0.267-0.033,0.517-0.066,0.75-0.101l1.4-0.199
			c0.033-0.034,0.067-0.051,0.1-0.051c1.267-0.199,2.2-0.583,2.8-1.149c0.767-0.7,1.383-1.95,1.85-3.75c0.4-2,0.7-3.384,0.9-4.15
			c0.167-0.633,0.55-1.533,1.15-2.7c0.567-1.133,0.934-2.017,1.1-2.649c0.133-0.9,0.217-1.533,0.25-1.9c0.1-0.666,0.4-1.166,0.9-1.5
			c0.4-0.267,1.2-0.55,2.4-0.85c1.1-0.267,1.917-0.65,2.45-1.15c1.8-1.566,3.7-4.066,5.7-7.5c1.066-1.833,1.633-4.366,1.7-7.6
			L91.75,68c-0.133-2-0.217-3.566-0.25-4.7c-0.1-2,0.033-3.483,0.4-4.45l0.3,0.1v0.2l0.3-0.1c0.633,0.3,1.1,0.717,1.4,1.25
			c0.333,0.601,0.483,1.467,0.45,2.601c0,0.666-0.033,1.633-0.1,2.899c0,3.8,0,5.767,0,5.9c0.067,2.166,0.333,4.083,0.8,5.75
			c0.733,2.533,0.75,4.616,0.05,6.25c-0.333,0.767-1.117,1.783-2.35,3.05c-1.2,1.2-1.95,2.267-2.25,3.2
			c-0.467,1.434-0.533,2.684-0.2,3.75c0.233,0.633,0.867,1.717,1.9,3.25c0.7,1,1.5,2.416,2.4,4.25c1.1,2.267,1.833,3.717,2.2,4.35
			c1,1.8,1.567,2.851,1.7,3.15C99.1,110,99.383,111.15,99.35,112.15z M21.75,96.75l2.25-1.7l3.6-2.75c2.4-0.6,4.133-1.366,5.2-2.3
			c1.2-1.1,1.967-2.8,2.3-5.1c0.433-2.934,0.667-5.784,0.7-8.551c2.4,0.434,3.917,1.534,4.55,3.301
			c0.533,1.533,0.383,3.483-0.45,5.85c-1.2,3.566-2.633,6.333-4.3,8.3c-1.1,1.4-2.3,2.3-3.6,2.7c-0.6,0.2-2.2,0.233-4.8,0.1
			c-2.633-0.1-4.4-0.033-5.3,0.2C21.867,96.767,21.817,96.75,21.75,96.75z M83.65,95.6c0.233-0.1,0.483-0.116,0.75-0.05L83.2,93.9
			c-1.667,1.166-2.6,1.866-2.8,2.1c-0.6,0.7-0.9,1.783-0.9,3.25v2.7c0.167,1,0.717,1.6,1.65,1.8c1.333,0.3,2.117-0.717,2.35-3.05
			C83.5,97.967,83.55,96.267,83.65,95.6z M145.35,97.6c-0.166-0.767-0.316-1.316-0.449-1.649l-0.4,3.3
			c-0.033,0.233-0.217,0.833-0.55,1.8c-0.3,0.767-0.367,1.384-0.2,1.851c0.167,0.466,0.65,1,1.45,1.6c1.1,0.767,1.7,1.2,1.8,1.3
			c1.134,1.066,1.4,2,0.8,2.8c-0.399,0.5-1.2,1.334-2.399,2.5c0.633,0.634,1.35,0.75,2.149,0.351c0.634-0.3,1.15-0.8,1.55-1.5
			c0.334-0.566,0.534-1.017,0.601-1.351c0.1-0.333,0.133-0.866,0.1-1.6c0-1.2-0.017-1.917-0.05-2.15c-0.066-0.733-0.3-1.399-0.7-2
			c-0.267-0.433-0.833-1.033-1.7-1.8c-0.767-0.7-1.283-1.3-1.55-1.8C145.634,98.884,145.483,98.333,145.35,97.6z M39.05,79.2
			l-0.4,1.649c-0.367,0.534-0.883,1.434-1.55,2.7c-0.633,1.2-1.184,2.101-1.65,2.7c-1.3,1.7-1.333,2.866-0.1,3.5
			c2,1.033,3.217-0.2,3.65-3.7C39.033,85.684,39.05,83.4,39.05,79.2z"/>
		<path style="fill-rule:evenodd;clip-rule:evenodd;fill:#8D959E;" d="M198.05,114.25c-0.733,0.134-1.333,0.267-1.8,0.4
			c0.4-0.267,1.184-0.667,2.35-1.2c1-0.5,1.617-0.851,1.851-1.05c2.1-1.801,3.316-3.601,3.649-5.4
			c0.367-2.134,0.384-4.066,0.051-5.8c-0.434-2.134-1.4-3.75-2.9-4.851c-1.9-1.267-3.3-2.233-4.2-2.899
			c-1.566-1.167-2.8-2.351-3.7-3.55c-0.899-1.167-2.083-3.267-3.55-6.301c0.934,0.134,2.15,1.217,3.65,3.25
			c1.6,2.2,2.866,3.483,3.8,3.851c0.434,0.166,0.917,0.267,1.45,0.3c0.633,0,1.149,0.017,1.55,0.05c0.6,0.066,1,0.15,1.2,0.25
			c0.3,0.167,0.649,0.351,1.05,0.55c1.2,0.634,1.9,1.184,2.1,1.65c0.134,0.366,0.267,1.2,0.4,2.5c0.333,1.4,1.667,2.267,4,2.6
			c1.866,0.301,3.667,0.217,5.4-0.25c0.966-0.233,2.033-0.833,3.199-1.8c1.267-1.166,2.217-1.983,2.851-2.45
			c1.434-0.933,2.533-1.699,3.3-2.3c1.4-1.066,2.2-1.983,2.4-2.75c-0.634-0.1-0.801-0.934-0.5-2.5
			c0.466-1.733,0.683-2.833,0.649-3.3c2,0.566,2.8,2.934,2.4,7.1c-0.367,4.067,0.2,6.217,1.7,6.45
			c3.399,0.533,5.616-1.267,6.649-5.399c0.367-1.567,0.384-2.934,0.05-4.101c-0.267-0.967-0.916-2.166-1.949-3.6
			c-1.634-2.367-3.784-4.816-6.45-7.351c-2.233-2.233-3.55-3.6-3.95-4.1c-0.8-0.934-1.417-1.667-1.85-2.2
			c-0.733-0.967-1.217-1.767-1.45-2.399c-0.167-0.367-0.217-0.867-0.15-1.5c0.101-1.267,0.134-1.967,0.101-2.101
			c-0.067-0.5-0.25-0.934-0.551-1.3c-0.366-0.366-0.649-0.7-0.85-1c-0.533-0.9-0.783-1.85-0.75-2.85c0.033-1.133,0.434-2,1.2-2.6
			c0.3,0.767,0.967,1.9,2,3.4c0.934,1.366,1.517,2.45,1.75,3.25c0.166,0.5,0.366,1.416,0.6,2.75l0.15,0.899
			c0.166,0.834,0.467,1.483,0.899,1.95c0.134,0.167,0.667,0.634,1.601,1.4c0.666,0.566,1.717,1.517,3.149,2.85
			c1.334,1.267,2.384,2.217,3.15,2.851c0.6,0.5,1.283,0.866,2.05,1.1c0.9,0.3,1.684,0.316,2.351,0.05c0.5-0.233,0.949-0.6,1.35-1.1
			c0.733-0.967,1.25-2.634,1.55-5c1.467-0.434,3.117-0.601,4.95-0.5c0.333,0,0.583,0.017,0.75,0.05c0.033,0,0.066,0,0.1,0
			c1.4,1.3,2.584,2.45,3.551,3.45c0.066,0.1,0.149,0.2,0.25,0.3c0.282,0.282,0.558,0.574,0.824,0.875l0.976,1.225
			c1.7,2.334,2,3.983,0.899,4.95c-1.933,1.667-3.866,4.667-5.8,9c-1.967,4.367-3.816,7.351-5.55,8.95
			c-1.9,1.7-5.083,3.517-9.55,5.45c-2.434,1.033-5.9,2.35-10.4,3.95l-5.55,1.649c-2.1,0.566-4.5,1.134-7.2,1.7
			C204.134,112.85,200.384,113.684,198.05,114.25z M215.55,30.05c0.101,0.133,0.2,0.267,0.3,0.4l0.2,0.35
			c0.134,0.233,0.233,0.467,0.3,0.7c0.367,1.367,0.851,2.667,1.45,3.9c-0.3,2.5-0.483,3.967-0.55,4.4
			c-0.267,1.434-0.667,2.2-1.2,2.3c-0.133,0.033-0.566-0.1-1.3-0.4c-0.8-0.333-1.283-0.517-1.45-0.55
			c-1.733-0.167-3.316-0.6-4.75-1.3c-1.899-0.9-2.95-2.083-3.149-3.55c-0.2-1.533,0.25-2.583,1.35-3.15
			c0.967-0.5,2.15-0.583,3.55-0.25c1.533,0.333,2.733,0.283,3.601-0.15c1.066-0.5,1.233-1.5,0.5-3L215.55,30.05z M196.15,16.5
			l3.399,2.8c-0.166,2.167-0.633,3.934-1.399,5.3l-0.051,0.05c-0.966,1.633-2.466,2.817-4.5,3.55c-1,0.367-2.166,0.45-3.5,0.25
			c-0.1,0-1.25-0.25-3.449-0.75l-1.45-0.3c-0.634-0.167-1.033-0.25-1.2-0.25l-0.1-0.05c-0.967-0.133-1.851-0.05-2.65,0.25
			c-0.634,0.267-1.533,0.65-2.7,1.15c-3,1.1-6.316,1.817-9.95,2.15c-2.199,0.2-5.616,0.3-10.25,0.3c-0.333,0-2.033,0.033-5.1,0.1
			c-2.1,0.034-3.816,0.017-5.15-0.05c-2.033-0.133-5-0.667-8.899-1.6c-4-0.967-6.983-1.533-8.95-1.7c2.066,0.066,3.6,0.117,4.6,0.15
			c1.767,0.066,3.301,0.25,4.601,0.55c1.467,0.333,3.434,0.5,5.899,0.5c1.5,0,3-0.1,4.5-0.3c0.667-0.1,1.301-0.184,1.9-0.25
			c2.967-0.467,5.267-0.767,6.9-0.9c1.066-0.1,2.133-0.15,3.199-0.15c7.9,0,14.084-0.683,18.551-2.05l2.199-0.95
			c0.7-0.433,1.417-0.95,2.15-1.55c0.066-0.067,0.134-0.133,0.2-0.2l1.3-1.15c1.6-1.4,2.45-2.15,2.55-2.25
			c0.533-0.5,0.917-0.967,1.15-1.4c0.133-0.233,0.267-0.55,0.399-0.95c0.134-0.433,0.25-0.75,0.351-0.95l1.149-0.8l2,0.35
			c0.367,0.033,0.733,0.083,1.101,0.15l0.1,0.05L196.15,16.5z M169.85,65.9c-1.733-2.367-2.85-4.334-3.35-5.9
			c0.233,0.667,0.667,1.316,1.3,1.95c1.867,1.866,4.05,3.85,6.55,5.95c2.5,2.133,5.25,3.833,8.25,5.1c3.267,1.4,6.384,2.1,9.351,2.1
			l1.85,0.7l4.7,1.75c-0.767,0.7-2.134,1.15-4.1,1.351c-1.534,0.133-3.017,0.1-4.45-0.101c-0.834-0.1-2.084-0.416-3.75-0.95
			c-1.601-0.366-3.184-1-4.75-1.899c-1.167-0.7-2.584-1.7-4.25-3c-2.967-2.3-5.084-4.233-6.351-5.8L169.85,65.9z M83.65,95.6
			c-0.1,0.667-0.15,2.367-0.15,5.101c-0.233,2.333-1.017,3.35-2.35,3.05c-0.933-0.2-1.483-0.8-1.65-1.8v-2.7
			c0-1.467,0.3-2.55,0.9-3.25c0.2-0.233,1.133-0.934,2.8-2.1l1.2,1.649C84.133,95.483,83.883,95.5,83.65,95.6z M145.35,97.6
			c0.134,0.733,0.284,1.284,0.45,1.65c0.267,0.5,0.783,1.1,1.55,1.8c0.867,0.767,1.434,1.367,1.7,1.8c0.4,0.601,0.634,1.267,0.7,2
			c0.033,0.233,0.05,0.95,0.05,2.15c0.033,0.733,0,1.267-0.1,1.6c-0.066,0.334-0.267,0.784-0.601,1.351
			c-0.399,0.7-0.916,1.2-1.55,1.5c-0.8,0.399-1.517,0.283-2.149-0.351c1.199-1.166,2-2,2.399-2.5c0.601-0.8,0.334-1.733-0.8-2.8
			c-0.1-0.1-0.7-0.533-1.8-1.3c-0.8-0.6-1.283-1.134-1.45-1.6c-0.167-0.467-0.1-1.084,0.2-1.851c0.333-0.967,0.517-1.566,0.55-1.8
			l0.4-3.3C145.033,96.283,145.184,96.833,145.35,97.6z M39.05,79.2c0,4.2-0.017,6.483-0.05,6.85c-0.433,3.5-1.65,4.733-3.65,3.7
			c-1.233-0.634-1.2-1.8,0.1-3.5c0.466-0.6,1.017-1.5,1.65-2.7c0.667-1.267,1.183-2.166,1.55-2.7L39.05,79.2z"/>
		
			<linearGradient id="SVGID_1_" gradientUnits="userSpaceOnUse" x1="73.0996" y1="-35.1445" x2="255.1171" y2="-35.1445" gradientTransform="matrix(0.7138 0.7003 -0.7003 0.7138 -2.208352e-004 -5.766749e-004)">
			<stop  offset="0" style="stop-color:#DDDFE0"/>
			<stop  offset="1" style="stop-color:#C8D4E0"/>
		</linearGradient>
		<path style="fill-rule:evenodd;clip-rule:evenodd;fill:url(#SVGID_1_);" d="M221.05,40.5c0.033,0.033,0.066,0.067,0.101,0.1
			c0.384,0.444,0.851,0.977,1.399,1.6c-0.104-0.104-0.203-0.204-0.3-0.3C221.816,41.433,221.417,40.967,221.05,40.5z M215.85,30.45
			c-0.1-0.133-0.199-0.267-0.3-0.4c-0.35-0.45-0.774-0.917-1.274-1.4C214.961,29.275,215.485,29.875,215.85,30.45z M179,119.1
			c-0.833,0-1.717-0.05-2.65-0.149c-2.6-0.267-6.3-0.634-11.1-1.101c1.3,0,4.083,0.25,8.35,0.75
			C175.667,118.866,177.467,119.033,179,119.1z M182.25,119.05c-0.566-0.033-1.316-0.083-2.25-0.149l-1.45-0.051
			c-0.333-0.5-0.916-1.6-1.75-3.3c-0.833-1.6-1.333-2.517-1.5-2.75c-0.566-0.866-1.25-1.566-2.05-2.1c-0.767-0.5-1.483-1.167-2.15-2
			c-0.166-0.2-0.75-1.017-1.75-2.45c-1.533-2.366-2.699-4.15-3.5-5.35c-1.433-2.134-2.816-3.733-4.149-4.801
			c-1-0.833-2.316-1.716-3.95-2.649c-1.9-1.066-3.3-1.867-4.2-2.4c-2.5-1.467-4.316-2.833-5.45-4.1
			c-1.466-1.667-2.416-3.684-2.85-6.05c-0.434-2.4-0.783-4.034-1.05-4.9c-0.467-1.7-1.117-3.25-1.95-4.65
			c-0.4-0.666-0.884-1.366-1.45-2.1V69c0.101-0.767,0.417-1.733,0.95-2.9c0.634-1.399,1.017-2.366,1.15-2.899
			c0.399-1.367,0.533-2.601,0.399-3.7c-0.066-0.733-0.35-1.567-0.85-2.5c-0.634-1.133-1.017-1.917-1.15-2.35
			c-0.467-1.733-0.1-3.25,1.101-4.55c0.8-0.9,2.199-1.833,4.199-2.8c2.067-0.966,4.25-1.1,6.551-0.4c1.166,0.333,3.183,1.3,6.05,2.9
			l0.1-0.6v0.05c1.3,1.167,1.867,2.683,1.7,4.55c-0.1,1.1-0.6,2.8-1.5,5.1c0.1-1.167,0.134-1.933,0.1-2.3
			c-0.033-0.934-0.233-1.533-0.6-1.8c-0.333-0.2-1.316-0.233-2.95-0.1c-0.033,0-0.45-0.083-1.25-0.25
			c-0.666-0.133-1.083-0.167-1.25-0.1c-0.267,0.133-0.633,1.117-1.1,2.95l-1.4,5.9c-0.533,2.133-0.684,3.899-0.45,5.3
			c0.301,1.767,1.233,3.217,2.801,4.35c2.366,1.767,4.25,2.834,5.649,3.2c0.7,0.134,1.184,0.084,1.45-0.149
			c0.366-0.467,0.733-0.867,1.1-1.2l-0.449-2.351c1.699,1.934,4.55,4.101,8.55,6.5l1.399,1.5c0.9,1.067,2.684,2.767,5.351,5.101
			c2.434,2.1,4.166,3.85,5.2,5.25c0.267,1.833,0.449,2.916,0.55,3.25c0.267,0.899,0.8,1.816,1.6,2.75c0.434,0.5,1.233,1.3,2.4,2.399
			c0.366,0.634,0.967,1.617,1.8,2.95c0.733,1.2,1.217,2.2,1.45,3c0.233,0.834,0.333,2.017,0.3,3.55
			c-0.066,1.467-0.233,2.65-0.5,3.551c-0.3,0.966-0.684,1.983-1.15,3.05c-0.699,1.434-1.35,2.45-1.949,3.05l0.949-0.35
			c-1.267,0.6-2.85,0.983-4.75,1.149H182.25z M196.25,114.65c0.467-0.134,1.066-0.267,1.8-0.4c-1.5,0.366-2.883,0.75-4.149,1.15
			C194.667,115.134,195.45,114.884,196.25,114.65z M251.475,74.875c-0.267-0.301-0.542-0.593-0.824-0.875
			c0.033,0,0.066,0.017,0.1,0.05C251,74.325,251.241,74.6,251.475,74.875z M149.85,28.6c-2,0-4.533-0.233-7.6-0.7
			c2.467,0.1,5.634,0.25,9.5,0.45C151.15,28.417,150.517,28.5,149.85,28.6z M92.1,111.05c1.433,0.167,3.85,0.533,7.25,1.101
			c2.7,0.566,5.183,1.083,7.45,1.55C97.7,112.033,92.8,111.15,92.1,111.05z M92.5,59.05l1.35-0.45l0.05,1.7
			C93.6,59.767,93.133,59.35,92.5,59.05z M92.2,58.95l-0.3-0.1c-0.367,0.967-0.5,2.45-0.4,4.45c0.033,1.134,0.117,2.7,0.25,4.7
			l0.05,4.2c-0.966,2.033-2.066,3.666-3.3,4.899c-0.933,0.934-2.367,1.7-4.3,2.301c-2.767,0.866-4.333,1.383-4.7,1.55
			c-1.233,0.566-2.083,1.566-2.55,3c-0.233,0.733-0.434,2.116-0.6,4.149c-0.467,4.534-1.833,8.084-4.1,10.65
			c-1.5,1.7-3.1,3.033-4.8,4c-1.4,0.767-3.35,1.5-5.85,2.2c-3.067,0.833-6.033,1.566-8.9,2.2c-0.1,0-0.184-0.017-0.25-0.051
			c-2.267-0.466-5.45-1.666-9.55-3.6c-4.267-2-7.5-3.267-9.7-3.8c-5.7-1.434-9.233-2.334-10.6-2.7c-0.233-0.066-0.467-0.134-0.7-0.2
			c0.9-0.233,2.667-0.3,5.3-0.2c2.6,0.134,4.2,0.101,4.8-0.1c1.3-0.4,2.5-1.3,3.6-2.7c1-0.333,1.967-0.733,2.9-1.2
			c1.933-1,3.083-2.566,3.45-4.699c0.167-1.2,0.066-3.284-0.3-6.25c-0.233-1.767-0.85-3.9-1.85-6.4c-1.2-2.866-2.066-5-2.6-6.4
			c-1.9-5.166-1.9-9.466,0-12.899c-3.534,2-5.567,5.916-6.1,11.75c-0.1,0.899-0.217,3.35-0.35,7.35c-0.1,2.9-0.333,5.117-0.7,6.65
			c-0.367,1.399-1.283,2.983-2.75,4.75c-0.2,0.233-0.767,1.066-1.7,2.5c-0.7,1.033-1.367,1.75-2,2.149
			c-0.3,0.2-0.883,0.417-1.75,0.65c-0.8,0.233-1.367,0.517-1.7,0.85c-0.2,0.233-0.4,0.601-0.6,1.101c-0.233,0.6-0.4,1-0.5,1.2
			c1.3-0.034,2.95,0.017,4.95,0.149l-2.25,1.7c-3.633-1.066-6.8-2.167-9.5-3.3C7.917,91.583,4.5,88.1,2,83
			c-2.7-5.533-2.65-10.25,0.15-14.15c1.3-1.767,2.2-4.05,2.7-6.85s1.117-4.7,1.85-5.7c1.566-2.1,2.216-5.1,1.95-9
			c-0.4-6.233-0.6-9.417-0.6-9.55c-0.2-2.033-0.367-3.817-0.5-5.35l-0.1-1.05c0-0.2-0.017-0.383-0.05-0.55v-0.1c0-0.1,0-0.2,0-0.3
			c-0.039-0.427-0.063-0.835-0.075-1.225L7.35,28.4l0.35-2.15c0.233-0.7,0.6-1.183,1.1-1.45c0.167-0.066,0.333-0.117,0.5-0.15
			c0.133,1.767,1.55,2.9,4.25,3.4c2.2,0.4,5,0.534,8.4,0.4c5.733-0.267,8.767-0.4,9.1-0.4h13.5l-0.15,1
			c-0.033,0.8,0.117,1.517,0.45,2.15c1.1,2,3.833,2.783,8.2,2.35c4.333-0.4,9.133-1.55,14.4-3.45c5.566-2.2,9.6-3.717,12.1-4.55
			c1.467-0.5,2.784-0.9,3.95-1.2c-1.2,5.833-1.833,8.833-1.9,9c-1.167,3.667-3.083,6.267-5.75,7.8
			c-0.233,0.133-1.117,0.383-2.65,0.75c-1.367,0.333-2.1,0.633-2.2,0.9c-0.233,0.467-0.033,1,0.6,1.6
			c0.333,0.333,0.8,0.783,1.4,1.35c0.1,0.167,0.3,0.533,0.6,1.1c0.2,0.433,0.417,0.75,0.65,0.95c0.4,0.4,1.1,0.784,2.1,1.15
			c1.133,0.333,1.9,0.583,2.3,0.75c2.967,1.367,5.2,2.35,6.7,2.95c1.533,0.333,2.7,0.583,3.5,0.75
			c1.433,0.333,2.383,0.917,2.85,1.75c0.267,0.467,0.433,1.083,0.5,1.85C92.2,57.2,92.2,57.85,92.2,58.95z M139.2,76.45
			c-0.233-1.3-0.634-2.417-1.2-3.351c-0.066,0.967-0.15,2.4-0.25,4.301c-0.1,1.699-0.267,3.116-0.5,4.25l-1.3,0.75
			c-1.834,0.8-3.983,1.199-6.45,1.199c-2.667-0.033-4.75-0.566-6.25-1.6c-1.5-1.1-2.733-2.167-3.7-3.2c-0.733-0.767-1.2-1.767-1.4-3
			c-0.167-1.5-0.333-2.649-0.5-3.45c-0.167-0.733-0.45-1.55-0.85-2.449c-0.5-1.034-0.883-1.834-1.15-2.4
			c-0.333-0.7-0.667-1.634-1-2.8c-0.433-1.467-0.733-2.417-0.9-2.851c-0.633-1.699-1.217-3.016-1.75-3.95
			c-0.7-1.2-1.6-2.267-2.7-3.2l-2.9-2.85c-1.233-1.167-2.316-1.967-3.25-2.4c-0.833-0.4-1.683-0.667-2.55-0.8
			c0.7-0.733,1.15-1.4,1.35-2c0.267-0.7,0.267-1.533,0-2.5c-0.3-1.133-0.967-2.033-2-2.7c-0.1-0.067-1.15-0.6-3.15-1.6
			c-2.767-1.1-4.8-2-6.1-2.7c-2.233-1.233-3.65-2.816-4.25-4.75c-0.333-2.033-0.617-3.6-0.85-4.7c-0.3-1.6-0.75-2.784-1.35-3.55
			c1.1-0.267,2.05-0.45,2.85-0.55c0.4-0.033,2.05-0.05,4.95-0.05h9c0.833,0,4.617,0.467,11.35,1.4
			c-2.367-0.133-4.467-0.284-6.3-0.45c-4.033-0.4-6.9-0.317-8.6,0.25c1.6,0.167,4.017,0.533,7.25,1.1c3.2,0.566,5.6,0.917,7.2,1.05
			c0.767,0.067,1.966,0.117,3.6,0.15c1.567,0.034,2.784,0.1,3.65,0.2c2.867,0.367,4.816,0.983,5.85,1.85l-3,8
			c-0.3-0.067-0.95,0.55-1.95,1.85c-0.467,0.667-0.9,1.283-1.3,1.85c-1.2,1.967-1.983,3.95-2.35,5.95c-0.6,3.633-0.534,6,0.2,7.1
			c0.233,0.367,1.033,0.783,2.4,1.25c1.467,0.5,2.333,0.8,2.6,0.9c3.967,1.5,6.9,2.7,8.8,3.6c0.434,0.2,1.467,0.567,3.1,1.1
			c1.3,0.399,2.267,0.833,2.9,1.3c1,0.733,1.7,1.483,2.1,2.25c0.4,0.767,0.617,1.717,0.65,2.85c-1.2-1.633-2.017-3.017-2.45-4.149
			c-0.066,1.133,0.134,2.6,0.6,4.399c0.301,1.034,0.75,2.5,1.351,4.4C138.967,72.85,139.134,74.417,139.2,76.45z M68.3,107.45
			c0.267-0.066,0.534-0.101,0.8-0.101c-0.233,0.034-0.483,0.067-0.75,0.101H68.3z M19.05,94.9L16.6,95.1l1.65,0.551l0.35-0.101
			C18.8,95.35,18.95,95.134,19.05,94.9z"/>
		<path style="fill-rule:evenodd;clip-rule:evenodd;fill:#CED1D6;" d="M112.4,24.95c1.5,0.066,3.133,0.117,4.9,0.15
			c5.067,0.066,8.833,0.117,11.3,0.15c1.434,0.033,2.983,0.467,4.65,1.3c-2.134-0.167-4.066-0.183-5.8-0.05l2.8,1.2
			c2.267,0.867,4.167,1.716,5.7,2.55c0.633,0.333,3.017,1.8,7.149,4.4c2.767,1.733,6.4,2.717,10.9,2.95
			c5.233-0.067,9.05-0.1,11.45-0.1c2.467,0,5.383-0.15,8.75-0.45c3.866-0.367,6.75-0.65,8.649-0.85
			c1.601-0.167,4.567-0.284,8.9-0.35c1.467,0,2.983,0.2,4.55,0.6c0.367,0.1,1.834,0.566,4.4,1.4c1.3,0.4,2.1,0.75,2.399,1.05
			c0.267,0.233,0.684,0.867,1.25,1.9c0.634,0.9,1.417,1.45,2.351,1.65c0.8,0.167,2.083,0.267,3.85,0.3c1.7,0.033,3,0.167,3.9,0.4
			c1.366,0.333,2.5,0.9,3.399,1.7c1.067,0.9,1.7,2,1.9,3.3c0.2,1.267-0.066,2.217-0.8,2.85c-0.134,0.1-1.084,0.617-2.851,1.55
			c-3.767,1.967-5.283,5.817-4.55,11.55c0.167,1.134,0.617,2.117,1.351,2.95c0.733,0.8,1.683,1.351,2.85,1.65
			c0.8,0.2,1.733,0.333,2.8,0.399c1.167,0.101,2.033,0.167,2.601,0.2c0.1,2,0.066,4.2-0.101,6.601c-0.267,3.833-1.767,6.033-4.5,6.6
			c-1.3,0.3-2.783,0.3-4.45,0c-1.899-0.333-3.166-0.934-3.8-1.8c-0.467-0.667-0.717-1.533-0.75-2.601
			c0.033-1.199,0.017-2.1-0.05-2.699c-0.1-1-0.283-1.634-0.55-1.9c-0.267-0.233-0.884-0.35-1.851-0.35c-1.366,0-3.1,0.3-5.199,0.899
			c-1.167,0.334-2.867,0.851-5.101,1.55l-1,0.2l-1.85-0.7c-2.967,0-6.084-0.699-9.351-2.1c-3-1.267-5.75-2.967-8.25-5.1
			c-2.5-2.101-4.683-4.084-6.55-5.95c-0.633-0.634-1.066-1.283-1.3-1.95c0.5,1.566,1.616,3.533,3.35,5.9
			c-1.633-1.934-3.017-3.867-4.149-5.801c-0.7,0.767-1.167,1.983-1.4,3.65c-0.1,0.733-0.166,2.05-0.2,3.95
			c-0.033,1.967,0,3.267,0.101,3.899c0.233,1.2,0.816,2.301,1.75,3.301l3.75,3.949c-4-2.399-6.851-4.566-8.55-6.5l-1.101-5.6
			c-0.533-0.634-0.783-1.783-0.75-3.45c0.101-1.833,0.15-3.05,0.15-3.65l0.05-0.75c0.9-2.3,1.4-4,1.5-5.1
			c0.167-1.867-0.4-3.383-1.7-4.55V49.2l-0.1,0.6c-2.867-1.6-4.884-2.566-6.05-2.9c-2.301-0.7-4.483-0.566-6.551,0.4
			c-2,0.967-3.399,1.9-4.199,2.8c-1.2,1.3-1.567,2.816-1.101,4.55c0.134,0.434,0.517,1.217,1.15,2.35
			c0.5,0.933,0.783,1.767,0.85,2.5c0.134,1.1,0,2.333-0.399,3.7c-0.134,0.533-0.517,1.5-1.15,2.899
			c-0.533,1.167-0.85,2.134-0.95,2.9v0.25c0.566,0.733,1.05,1.434,1.45,2.1c0.833,1.4,1.483,2.95,1.95,4.65
			c0.267,0.866,0.616,2.5,1.05,4.9c0.434,2.366,1.384,4.383,2.85,6.05c1.134,1.267,2.95,2.633,5.45,4.1c0.9,0.533,2.3,1.334,4.2,2.4
			c1.634,0.934,2.95,1.816,3.95,2.649c1.333,1.067,2.717,2.667,4.149,4.801c0.801,1.199,1.967,2.983,3.5,5.35
			c1,1.434,1.584,2.25,1.75,2.45c0.667,0.833,1.384,1.5,2.15,2c0.8,0.533,1.483,1.233,2.05,2.1c0.167,0.233,0.667,1.15,1.5,2.75
			c0.834,1.7,1.417,2.8,1.75,3.3c-2-0.1-3.75-0.383-5.25-0.85c-1.8-0.533-3.75-1.384-5.85-2.55c-2.233-1.267-3.934-2.517-5.101-3.75
			c-1.033-1.101-2.416-3.25-4.149-6.45c-1.533-2.866-3.084-4.917-4.65-6.15c-0.866-0.666-2.316-1.5-4.35-2.5
			c-1.934-1-3.367-1.866-4.3-2.6c-2.101-1.7-3.601-3.316-4.5-4.85c-0.834-1.467-1.217-3.517-1.15-6.15
			c0.066-3.634,0.05-5.816-0.05-6.55c-0.066-2.033-0.233-3.601-0.5-4.7c-0.601-1.9-1.05-3.366-1.351-4.4
			c-0.466-1.8-0.666-3.267-0.6-4.399c0.434,1.133,1.25,2.517,2.45,4.149c-0.033-1.133-0.25-2.083-0.65-2.85
			c-0.399-0.767-1.1-1.517-2.1-2.25c-0.634-0.467-1.601-0.9-2.9-1.3c-1.633-0.533-2.666-0.9-3.1-1.1c-1.9-0.9-4.833-2.1-8.8-3.6
			c-0.267-0.1-1.133-0.4-2.6-0.9c-1.367-0.467-2.167-0.883-2.4-1.25c-0.733-1.1-0.8-3.467-0.2-7.1c0.367-2,1.15-3.983,2.35-5.95
			c0.4-0.566,0.833-1.183,1.3-1.85c1-1.3,1.65-1.917,1.95-1.85l3-8c-1.033-0.867-2.983-1.483-5.85-1.85
			c-0.867-0.1-2.083-0.167-3.65-0.2c-1.633-0.033-2.833-0.083-3.6-0.15c-1.6-0.133-4-0.483-7.2-1.05
			c-3.233-0.567-5.65-0.934-7.25-1.1c1.7-0.567,4.567-0.65,8.6-0.25C107.933,24.667,110.033,24.817,112.4,24.95z M186.2,99.1
			c-1.167-1.1-1.967-1.899-2.4-2.399c-0.8-0.934-1.333-1.851-1.6-2.75c-0.101-0.334-0.283-1.417-0.55-3.25l0.449,0.7
			c0.567,0.8,1.217,2,1.95,3.6c0.867,1.8,1.483,3.017,1.851,3.65L186.2,99.1z M176.55,25.6c0.967-0.6,2.3-1.533,4-2.8
			c2.033-1.433,4.2-2.533,6.5-3.3l2-0.65l-0.25,0.3c-0.1,0.1-0.95,0.85-2.55,2.25l-1.3,1.15c-0.066,0.067-0.134,0.133-0.2,0.2
			c-0.1,0.033-0.2,0.1-0.3,0.2c-0.3,0.167-0.667,0.367-1.101,0.6C181.616,24.45,179.35,25.133,176.55,25.6z M202,58.5
			c0.167-1.667,0.066-2.983-0.3-3.95c-1.434-0.367-2.834-0.533-4.2-0.5c-1.033,0-2.417,0.15-4.15,0.45
			c-1.399,0.233-2.75,0.8-4.05,1.7c-1.6,1.033-2.45,2.183-2.55,3.45c1.5,0.734,3.583,2,6.25,3.8c0.333,0.233,1,0.649,2,1.25
			c0.9,0.6,1.417,1.184,1.55,1.75L199,65.5c0.566-0.7,1.2-1.733,1.9-3.1C201.467,61.467,201.833,60.167,202,58.5z M137.25,81.65
			c-0.233,0.933-0.5,1.783-0.8,2.55c-0.4,1-0.967,1.783-1.7,2.35c-0.467,0.334-1.1,0.533-1.9,0.601c-0.833,0.1-1.433,0.25-1.8,0.449
			c0.4,1.101,1.9,3.101,4.5,6l2.5,2.75c0.867,1.034,1.434,2.267,1.7,3.7c0.2,1,0.283,2.4,0.25,4.2v12.5
			c-0.167,0-0.333,0.017-0.5,0.05c-0.134,0.033-0.25,0.05-0.35,0.05l-18.75-0.699c-0.367-0.034-0.733-0.084-1.1-0.15
			c-0.233-0.033-0.466-0.066-0.7-0.1l-0.7-0.15c-0.767-0.134-1.55-0.267-2.35-0.4c-0.867-0.166-1.7-0.316-2.5-0.449l-6.25-1.2
			c-2.267-0.467-4.75-0.983-7.45-1.55c0.033-1-0.25-2.15-0.85-3.45c-0.133-0.3-0.7-1.351-1.7-3.15c-0.367-0.633-1.1-2.083-2.2-4.35
			c-0.9-1.834-1.7-3.25-2.4-4.25c-1.034-1.533-1.667-2.617-1.9-3.25c-0.333-1.066-0.267-2.316,0.2-3.75c0.3-0.934,1.05-2,2.25-3.2
			c1.233-1.267,2.017-2.283,2.35-3.05c0.7-1.634,0.683-3.717-0.05-6.25c-0.466-1.667-0.733-3.584-0.8-5.75c0-0.134,0-2.101,0-5.9
			c0.067-1.267,0.1-2.233,0.1-2.899c0.033-1.134-0.117-2-0.45-2.601l-0.05-1.7l-1.35,0.45l-0.3,0.1v-0.2c0-1.1,0-1.75,0-1.95
			c-0.067-0.767-0.233-1.383-0.5-1.85c-0.467-0.833-1.417-1.417-2.85-1.75c-0.8-0.167-1.967-0.417-3.5-0.75
			c-1.5-0.6-3.733-1.583-6.7-2.95c-0.4-0.167-1.167-0.417-2.3-0.75c-1-0.367-1.7-0.75-2.1-1.15c-0.233-0.2-0.45-0.517-0.65-0.95
			c-0.3-0.567-0.5-0.934-0.6-1.1c-0.6-0.567-1.067-1.017-1.4-1.35c-0.633-0.6-0.833-1.133-0.6-1.6c0.1-0.267,0.833-0.566,2.2-0.9
			c1.533-0.367,2.417-0.617,2.65-0.75c2.667-1.533,4.583-4.133,5.75-7.8c0.066-0.167,0.7-3.167,1.9-9
			c0.033-0.233,0.083-0.483,0.15-0.75c0.2,0.167,0.4,0.35,0.6,0.55c0.6,0.767,1.05,1.95,1.35,3.55c0.233,1.1,0.517,2.667,0.85,4.7
			c0.6,1.934,2.017,3.517,4.25,4.75c1.3,0.7,3.333,1.6,6.1,2.7c2,1,3.05,1.533,3.15,1.6c1.033,0.667,1.7,1.566,2,2.7
			c0.267,0.967,0.267,1.8,0,2.5c-0.2,0.6-0.65,1.267-1.35,2c0.867,0.133,1.717,0.4,2.55,0.8c0.934,0.433,2.017,1.233,3.25,2.4
			l2.9,2.85c1.1,0.933,2,2,2.7,3.2c0.533,0.934,1.117,2.25,1.75,3.95c0.167,0.434,0.467,1.384,0.9,2.851
			c0.333,1.166,0.667,2.1,1,2.8c0.267,0.566,0.65,1.366,1.15,2.4c0.4,0.899,0.684,1.716,0.85,2.449c0.167,0.801,0.333,1.95,0.5,3.45
			c0.2,1.233,0.667,2.233,1.4,3c0.967,1.033,2.2,2.101,3.7,3.2c1.5,1.033,3.583,1.566,6.25,1.6c2.467,0,4.616-0.399,6.45-1.199
			L137.25,81.65z M69.1,107.35c-0.267,0-0.533,0.034-0.8,0.101c-0.025,0-0.058,0-0.1,0c-0.167,0-0.317,0.017-0.45,0.05l-0.4,0.05
			c-1.367,0.101-2.684,0.167-3.95,0.2c-0.4,0-0.783,0.017-1.15,0.05c-3.533,0.066-6.55-0.116-9.05-0.55c-0.067,0-0.117,0-0.15,0
			c-0.133-0.033-0.25-0.066-0.35-0.1c2.867-0.634,5.833-1.367,8.9-2.2c2.5-0.7,4.45-1.434,5.85-2.2c1.7-0.967,3.3-2.3,4.8-4
			c2.267-2.566,3.633-6.116,4.1-10.65c0.167-2.033,0.367-3.416,0.6-4.149c0.466-1.434,1.316-2.434,2.55-3
			c0.367-0.167,1.933-0.684,4.7-1.55c1.933-0.601,3.367-1.367,4.3-2.301c1.233-1.233,2.333-2.866,3.3-4.899
			c-0.066,3.233-0.633,5.767-1.7,7.6c-2,3.434-3.9,5.934-5.7,7.5c-0.533,0.5-1.35,0.884-2.45,1.15c-1.2,0.3-2,0.583-2.4,0.85
			c-0.5,0.334-0.8,0.834-0.9,1.5c-0.033,0.367-0.117,1-0.25,1.9c-0.167,0.633-0.533,1.517-1.1,2.649
			c-0.6,1.167-0.983,2.067-1.15,2.7c-0.2,0.767-0.5,2.15-0.9,4.15c-0.467,1.8-1.083,3.05-1.85,3.75c-0.6,0.566-1.533,0.95-2.8,1.149
			c-0.033,0-0.067,0.017-0.1,0.051L69.1,107.35z M35.6,93.8c1.667-1.967,3.1-4.733,4.3-8.3c0.833-2.366,0.983-4.316,0.45-5.85
			c-0.633-1.767-2.15-2.867-4.55-3.301c-0.033,2.767-0.267,5.617-0.7,8.551c-0.333,2.3-1.1,4-2.3,5.1c-1.066,0.934-2.8,1.7-5.2,2.3
			L24,95.05c-2-0.133-3.65-0.184-4.95-0.149c0.1-0.2,0.267-0.601,0.5-1.2c0.2-0.5,0.4-0.867,0.6-1.101
			c0.333-0.333,0.9-0.616,1.7-0.85c0.867-0.233,1.45-0.45,1.75-0.65c0.633-0.399,1.3-1.116,2-2.149c0.933-1.434,1.5-2.267,1.7-2.5
			c1.467-1.767,2.383-3.351,2.75-4.75c0.367-1.533,0.6-3.75,0.7-6.65c0.133-4,0.25-6.45,0.35-7.35c0.533-5.834,2.566-9.75,6.1-11.75
			c-1.9,3.433-1.9,7.733,0,12.899c0.533,1.4,1.4,3.534,2.6,6.4c1,2.5,1.617,4.634,1.85,6.4c0.367,2.966,0.467,5.05,0.3,6.25
			c-0.367,2.133-1.517,3.699-3.45,4.699C37.567,93.066,36.6,93.467,35.6,93.8z M19.05,94.9c-0.1,0.233-0.25,0.449-0.45,0.649
			l-0.35,0.101L16.6,95.1L19.05,94.9z"/>
		
			<linearGradient id="SVGID_2_" gradientUnits="userSpaceOnUse" x1="64.2788" y1="-54.8682" x2="212.7426" y2="-54.8682" gradientTransform="matrix(0.7138 0.7003 -0.7003 0.7138 2.114177e-004 -1.941323e-004)">
			<stop  offset="0" style="stop-color:#E7E7E8"/>
			<stop  offset="1" style="stop-color:#C3CED9"/>
		</linearGradient>
		<path style="fill-rule:evenodd;clip-rule:evenodd;fill:url(#SVGID_2_);" d="M199.55,19.3l-3.399-2.8
			c0.566,0.433,1.35,1.067,2.35,1.9c2.5,2.1,3.9,3.2,4.2,3.3C202.333,21.6,201.283,20.8,199.55,19.3z M9.3,24.65
			c0.167-0.033,0.333-0.05,0.5-0.05c0.4-1.434,1.067-3.117,2-5.05c0.833-1.733,1.034-1.816,0.6-0.25
			c0.467-1.533,1.383-3.117,2.75-4.75l2-2.2c1.7,0.1,3.233-0.083,4.6-0.55c2.1-0.733,3.733-1.2,4.9-1.4
			c2.267-0.3,3.95-0.55,5.05-0.75c1.867-0.4,3.45-1.017,4.75-1.85c0.633-0.4,1.683-1.383,3.15-2.95c1.3-1.4,2.383-2.283,3.25-2.65
			c2.633-1.133,6.867-1.6,12.7-1.4c6.4,0.467,10.767,0.667,13.1,0.6c0.667-0.033,4.383,0.05,11.15,0.25
			c4.434,0.1,8.117-0.117,11.05-0.65c7.6-1.4,14.933-0.883,22,1.55c3.633,1.233,6.133,2.017,7.5,2.35
			c2.267,0.5,4.816,0.717,7.65,0.65c8.2-0.233,12.533-0.35,13-0.35c4.967,0.133,9.2,0.9,12.7,2.3c3,1.2,6.8,2.067,11.399,2.6
			c6.067,0.733,9.917,1.283,11.551,1.65c5.866,1.333,10.583,2.367,14.149,3.1l-0.5,1.4c-0.066,0.7-0.483,1.567-1.25,2.6l-2,0.65
			c-2.3,0.767-4.467,1.867-6.5,3.3c-1.7,1.267-3.033,2.2-4,2.8l-3.95,0.55c-0.966,0.133-2.483,0.2-4.55,0.2
			c-2.033-0.033-3.566,0.033-4.6,0.2c-1.601,0.267-3.2,0.567-4.8,0.9c-1.634,0.133-3.934,0.433-6.9,0.9
			c-3.866-0.2-7.033-0.35-9.5-0.45c-0.233-0.066-0.467-0.117-0.7-0.15c-4.267-0.7-7.033-1.1-8.3-1.2
			c-1.667-0.833-3.217-1.267-4.65-1.3c-2.466-0.033-6.233-0.083-11.3-0.15c-1.767-0.033-3.4-0.083-4.9-0.15
			c-6.733-0.934-10.517-1.4-11.35-1.4h-9c-2.9,0-4.55,0.017-4.95,0.05c-0.8,0.1-1.75,0.283-2.85,0.55c-0.2-0.2-0.4-0.383-0.6-0.55
			c-0.066,0.267-0.117,0.517-0.15,0.75c-1.167,0.3-2.483,0.7-3.95,1.2c-2.5,0.833-6.533,2.35-12.1,4.55
			c-5.267,1.9-10.067,3.05-14.4,3.45c-4.367,0.434-7.1-0.35-8.2-2.35c-0.333-0.633-0.483-1.35-0.45-2.15l0.15-1h-13.5
			c-0.333,0-3.367,0.133-9.1,0.4c-3.4,0.133-6.2,0-8.4-0.4C10.85,27.55,9.433,26.417,9.3,24.65z M7.325,29.175
			c0.011,0.39,0.036,0.798,0.075,1.225c0,0.1,0,0.2,0,0.3c-0.004-0.229-0.021-0.446-0.05-0.65
			C7.333,29.75,7.325,29.458,7.325,29.175z"/>
		<path style="fill-rule:evenodd;clip-rule:evenodd;fill:#DDDEE0;" d="M202,58.5c-0.167,1.667-0.533,2.967-1.1,3.9
			c-0.7,1.366-1.334,2.399-1.9,3.1l-2.45,0.95c-0.133-0.566-0.649-1.15-1.55-1.75c-1-0.601-1.667-1.017-2-1.25
			c-2.667-1.8-4.75-3.066-6.25-3.8c0.1-1.267,0.95-2.417,2.55-3.45c1.3-0.9,2.65-1.467,4.05-1.7c1.733-0.3,3.117-0.45,4.15-0.45
			c1.366-0.033,2.767,0.133,4.2,0.5C202.066,55.517,202.167,56.833,202,58.5z M161.15,72.35L161.6,74.7
			c-0.366,0.333-0.733,0.733-1.1,1.2c-0.267,0.233-0.75,0.283-1.45,0.149c-1.399-0.366-3.283-1.434-5.649-3.2
			c-1.567-1.133-2.5-2.583-2.801-4.35c-0.233-1.4-0.083-3.167,0.45-5.3l1.4-5.9c0.467-1.833,0.833-2.816,1.1-2.95
			c0.167-0.067,0.584-0.033,1.25,0.1c0.8,0.167,1.217,0.25,1.25,0.25c1.634-0.133,2.617-0.1,2.95,0.1
			c0.366,0.267,0.566,0.867,0.6,1.8c0.034,0.367,0,1.133-0.1,2.3l-0.05,0.75c0,0.6-0.05,1.817-0.15,3.65
			c-0.033,1.667,0.217,2.816,0.75,3.45L161.15,72.35z"/>
	</g>
</g>
<g id="Layer_2">
	
		<radialGradient id="SVGID_3_" cx="49.1001" cy="83.6504" r="188.425" gradientTransform="matrix(1 0 0 -1 0 167.3008)" gradientUnits="userSpaceOnUse">
		<stop  offset="0" style="stop-color:#EFF1F4;stop-opacity:0.4275"/>
		<stop  offset="1" style="stop-color:#B0BAC6;stop-opacity:0.7176"/>
	</radialGradient>
	<path style="fill-rule:evenodd;clip-rule:evenodd;fill:url(#SVGID_3_);" d="M244.05,67.45l3.55,3.45h0.051l1.399,1.35l0.101,0.15
		l2.8,3c0.267,0.3,0.6,0.75,1,1.35l0.8,1.4l0.2,0.75H254l0.05,0.55v0.1L254,80.1l-0.25,0.551l-0.35,0.399
		c-1.934,1.667-3.867,4.667-5.801,9c-1.966,4.367-3.816,7.351-5.55,8.95c-1.899,1.7-5.083,3.517-9.55,5.45
		c-2.434,1.033-5.9,2.35-10.4,3.95c-0.866,0.333-1.8,0.633-2.8,0.899l-0.75,0.25l-8.2,2c-1.566,0.334-3.916,0.816-7.05,1.45
		c-2.767,0.6-5.1,1.15-7,1.65L194,115.3l-0.05,0.05l-7.75,2.9c-1.101,0.434-2.367,0.7-3.8,0.8c-1.567,0.134-3.45,0.101-5.65-0.1
		c-0.7-0.066-2.616-0.283-5.75-0.65l-10.55-0.649h-0.15c-2.233-0.134-5.633-0.417-10.2-0.851c-3.966-0.3-7.316-0.316-10.05-0.05
		l-3.55,0.35c-0.2,0.034-0.5,0.051-0.9,0.051h-5.649c-0.434,0-1.05-0.034-1.851-0.101l-9.25-1.149l-26.8-4.851
		c-1.7-0.166-4.55-0.983-8.55-2.45c-3.4-1.199-6.433-1.716-9.1-1.55l-16.35,0.7c-0.4,0-1-0.033-1.8-0.1L52.5,107.1
		c-2.267-0.466-5.45-1.666-9.55-3.6c-4.267-2-7.5-3.267-9.7-3.8c-2.467-0.634-6.233-1.601-11.3-2.9l-0.05-0.05
		c-3.667-1.066-6.867-2.167-9.6-3.3C7.967,91.583,4.55,88.1,2.05,83c-2.7-5.533-2.65-10.25,0.15-14.15C3.5,67.083,4.4,64.8,4.9,62
		s1.117-4.7,1.85-5.7c1.567-2.1,2.217-5.1,1.95-9c-0.4-6.233-0.6-9.417-0.6-9.55c-0.333-3.167-0.567-5.733-0.7-7.7
		c-0.167-3.7,0.65-5.517,2.45-5.45c0.4-1.434,1.066-3.117,2-5.05c0.839-1.744,1.04-1.827,0.6-0.25
		c0.479-1.523,1.396-3.106,2.75-4.75l2-2.2c1.7,0.1,3.233-0.083,4.6-0.55c2.1-0.733,3.733-1.2,4.9-1.4
		c2.267-0.3,3.95-0.55,5.05-0.75c1.867-0.4,3.45-1.017,4.75-1.85c0.633-0.4,1.683-1.383,3.15-2.95c1.3-1.4,2.383-2.283,3.25-2.65
		c2.633-1.133,6.867-1.6,12.7-1.4C62,1.267,66.367,1.467,68.7,1.4c0.667-0.033,4.383,0.05,11.15,0.25
		C84.283,1.75,87.967,1.533,90.9,1c7.6-1.4,14.934-0.883,22,1.55c3.633,1.233,6.133,2.017,7.5,2.35c2.267,0.5,4.817,0.717,7.65,0.65
		c8.2-0.233,12.533-0.35,13-0.35c4.967,0.133,9.2,0.9,12.7,2.3c3,1.2,6.8,2.067,11.4,2.6c6.066,0.733,9.916,1.283,11.55,1.65
		c8.5,1.967,14.6,3.233,18.3,3.8h0.05l0.2,0.15l0.05,0.05l5.101,4.2l0.199,0.2l1.051,0.8l0.149,0.15l0.65,0.45l4.899,2.2l5.851,3.9
		l1.6,1.45l0.45,0.5l0.85,1.2c0.167,0.267,0.267,0.5,0.301,0.7l2.3,5.55l0.2,0.4l2,2.8l0.149,0.25l5.15,5.4l0.2,0.25l1.949,2
		c1.967,2.167,4.601,5.367,7.9,9.6C239.816,62.35,242.417,65.583,244.05,67.45z"/>
</g>
</svg>
