<?xml version="1.0" encoding="iso-8859-1"?>
<!-- Generator: Adobe Illustrator 15.1.0, SVG Export Plug-In . SVG Version: 6.00 Build 0)  -->
<!DOCTYPE svg PUBLIC "-//W3C//DTD SVG 1.1//EN" "http://www.w3.org/Graphics/SVG/1.1/DTD/svg11.dtd">
<svg version="1.1" id="Layer_1" xmlns="http://www.w3.org/2000/svg" xmlns:xlink="http://www.w3.org/1999/xlink" x="0px" y="0px"
	 width="206.8px" height="433.75px" viewBox="0 0 206.8 433.75" style="enable-background:new 0 0 206.8 433.75;"
	 xml:space="preserve">
<g>
	<path style="fill-rule:evenodd;clip-rule:evenodd;fill:#635B52;" d="M203.55,27.6c0.033,2.066-0.55,4.267-1.75,6.6
		c-0.666,1.333-1.684,3.267-3.05,5.8c0.4-2.3,0.1-6.683-0.9-13.15c-1.066-6.033-1.616-9.117-1.649-9.25
		c-0.934,0.2-1.65,0.1-2.15-0.3c-0.3-0.233-0.6-0.7-0.899-1.4c-0.434-1-1.034-1.95-1.801-2.85c-1.033-1.2-1.699-2.017-2-2.45
		c-0.166-0.367-0.267-0.617-0.3-0.75c-0.066-0.167-0.1-0.467-0.1-0.9c0-0.4,0.066-0.817,0.2-1.25l0.199-0.55
		c0.101-0.433,0.567-1.2,1.4-2.3s1.267-1.7,1.3-1.8L192.8,2l12.5-2c0.233,0.833,0.566,1.917,1,3.25c0.334,1.367,0.5,3.333,0.5,5.9
		c0,5.833-0.283,9.717-0.85,11.65C205.583,22.067,204.783,24.333,203.55,27.6z M143.35,330.95l-1.699,28.6l-0.051-1.2
		c-0.366-1.8-1-4.333-1.899-7.6c-0.9-3.233-1.467-5.05-1.7-5.45l-0.7,0.55v3.65c-0.033,2.267-0.017,6.816,0.05,13.65
		c-0.033,5.866-0.267,9.183-0.699,9.949c-0.4-0.366-0.801-1.3-1.2-2.8c-0.533-1.934-0.834-2.983-0.9-3.149l-0.3,0.899
		c0,0.101-0.2,2.316-0.6,6.65c-0.334,3.767-0.5,7.967-0.5,12.6c0,12.101-0.7,20.65-2.101,25.65c-0.733,2.633-2.25,5.3-4.55,8
		l-0.75-1.4c-0.733,3.601-1.2,7.316-1.4,11.15c-0.399,2.033-1.966,3.05-4.699,3.05l-2.45-0.25l0.399-0.5
		c1.634-1.634,3.184-2.85,4.65-3.65c0.667-0.366,1-0.933,1-1.699c-0.3-0.567-0.583-1.334-0.85-2.301c-0.534-2-0.733-4.333-0.601-7
		c0.167-3.933,0.233-6.316,0.2-7.149c-0.066-2.733-0.55-4.733-1.45-6c-0.1-3.134-0.149-5.033-0.149-5.7
		c0-6.333,0.933-10.417,2.8-12.25c0.934-0.7,1.583-1.184,1.95-1.45c0.566-0.399,0.85-1,0.85-1.8l-1.15-12.25l-0.1-1.25l-0.1-2.35
		l0.3,2.55c1.1,6.333,1.649,9.934,1.649,10.8c1.034-5.233,1.917-10.634,2.65-16.2c1.066-7.7,1.6-13.95,1.6-18.75
		c0-1.3-0.25-4.649-0.75-10.05c-0.533-5.6-0.8-8.5-0.8-8.7c-0.066-2.434-0.5-4.166-1.3-5.2c-0.667-0.833-1.65-1.25-2.95-1.25
		c-0.333,0-1.333,0.134-3,0.4c-1.767,0.3-2.934,0.467-3.5,0.5l-2.25-0.05c-1.467-0.033-2.916-0.767-4.35-2.2
		c-1.566-1.566-2.733-2.417-3.5-2.55c-4.634-0.867-7.034-2.367-7.2-4.5c-0.133-1.7-0.783-4.233-1.95-7.601
		c-1.066-3.133-1.633-5.949-1.7-8.449c-0.067-2.567-0.317-5.551-0.75-8.95l-0.25-7.9h0.05c0.033,0.967,0.367,3.066,1,6.3
		c0.667,3.4,1.2,5.534,1.6,6.4c0.2,0.3,1.117,1.684,2.75,4.15c0.367,0.533,1.3,2.283,2.8,5.25c1.267,2.866,2.217,4.733,2.851,5.6
		l0.899,1.55c2.101,2.066,3.584,3.15,4.45,3.25c0.634,0.101,2.033-0.017,4.2-0.35c1.3,0,2.467,0.517,3.5,1.55
		c1.033,1,2.233,1.5,3.6,1.5c0.634,0,1.45-0.667,2.45-2c1.1-1.533,2.75-2.583,4.95-3.15c0.7-0.166,2.283-0.583,4.75-1.25
		c2.333-0.833,3.967-1.949,4.899-3.35c0.601-0.934,1.051-2.983,1.351-6.15c0.2-2.166,0.383-5.616,0.55-10.35
		c0.033-1,1.1-6.184,3.2-15.55c1.767-7.934,2.267-14.783,1.5-20.55l2.1,3.649c-1.366-8.967-2.399-14.017-3.1-15.149
		c-0.8-1.301-1.767-2.117-2.9-2.45c-1.166-0.334-2.066-0.95-2.7-1.851c-1.6-1.233-3.199-1.783-4.8-1.649l-0.1,0.05l-0.95,0.15
		c-0.866,0-2.1,0.216-3.7,0.649c-1.434,0.4-2.184,0.601-2.25,0.601c-2.6,0-4.649-1.051-6.149-3.15
		c-1.134-1.566-2.117-3.833-2.95-6.8c0.533,1.434,1.233,2.533,2.1,3.3c1.634,1.434,4.617,2.15,8.95,2.15c5.5,0,8.934-2.967,10.3-8.9
		c0.2-0.934,0.434-1.75,0.7-2.45l0.5,0.7c0.6,1.3,1.4,2.717,2.4,4.25c1.3,2.033,2.3,3.184,3,3.45l0.25-0.3
		c0.666-5.267,2.466-11.15,5.399-17.65c2.667-5.967,4-9.7,4-11.2c0-4.233-0.483-7.55-1.45-9.95c-0.966-2.4-2.283-3.6-3.949-3.6
		c-1.9,0-3.467,4.833-4.7,14.5c0-7.967-0.017-13.983-0.05-18.05c-0.067-2.534-0.101-3.967-0.101-4.3c0-0.433,0.417-1.717,1.25-3.85
		c0.8-2.1,1.2-3.883,1.2-5.35c0-1.867-0.35-6.717-1.05-14.55c2.1,3.267,4.916,9.767,8.45,19.5c2.666,7.3,4.883,10.95,6.649,10.95
		c0.967,0,1.967-2.283,3-6.85l0.5-1.8c0.467-1.534,0.733-2.667,0.8-3.4c1.2,0.434,2.034,0.567,2.5,0.4
		c0.267-0.067,0.4-0.184,0.4-0.35c-0.3-12.567-0.316-28.283-0.05-47.15c0.733-5.667,1.05-12.6,0.95-20.8
		c-0.233-9.233-0.317-16.2-0.25-20.9c0.199-17.2,3.316-32.4,9.35-45.6c0.2-0.233,1.333-1.4,3.4-3.5
		c2.066-2.867,3.483-6.617,4.25-11.25l0.05-0.5l0.05-0.55c0,4.233-0.434,9.717-1.3,16.45c-0.9,7-1.351,10.767-1.351,11.3l0.25-1.2
		c0.7-3.367,1.267-6.133,1.7-8.3c0.834-4,1.917-8.817,3.25-14.45c0.267,0.667,0.517,2.917,0.75,6.75c0.2,3.467,0.3,6.65,0.3,9.55
		c0,5.033-0.267,9.85-0.8,14.45c-0.3,2.434-0.684,5.467-1.149,9.1c-0.067,0.867-0.884,2.367-2.45,4.5
		c-1.867,2.467-3.233,5.067-4.101,7.8c-1.3,4-2.3,9.383-3,16.15c-0.233,2.4-0.55,6.883-0.949,13.45c-0.101,1.867-0.601,6.6-1.5,14.2
		c-0.867,7.167-1.301,11.35-1.301,12.55c0,6.533,0.167,11.083,0.5,13.65c0.334,2.7,0.983,4.483,1.95,5.35
		c1.467-1.1,2.7-4.783,3.7-11.05c1.134-7,1.45-14.633,0.95-22.9c-0.134-2.467,0.5-7.833,1.899-16.1c0.834-4.8,1.7-9.434,2.601-13.9
		V96c-0.3,13.333-0.417,27.417-0.351,42.25c0.034,3.267,0.034,5.6,0,7c-0.066,1.9-0.233,3.417-0.5,4.55
		c-0.133,0.567-0.566,1.8-1.3,3.7c-0.633,1.567-0.95,2.7-0.95,3.4c0,1.1,0.351,2.167,1.051,3.2c0.399,0.6,1.1,1.566,2.1,2.9
		c0.5-0.7,0.917-2.3,1.25-4.8c0.267-2.1,0.384-3.934,0.35-5.5c-0.366-9.467-0.383-15.284-0.05-17.45c0.467-1.1,0.75-2.933,0.851-5.5
		c0.1,1.233,0.183,4.4,0.25,9.5c0.166,5.033,0.566,8.75,1.199,11.15c0.733,2.733,1.784,5.934,3.15,9.6
		c0.967,2.6,1.45,4.367,1.45,5.3l-0.05,1.75c-0.067,0.667-0.034,1.867,0.1,3.6c0.066,0.8-0.15,1.083-0.65,0.85
		c-0.267-0.033-0.816-0.417-1.649-1.15c-0.8-0.7-1.25-1.15-1.351-1.35c-0.333-0.4-0.55-0.65-0.649-0.75
		c-0.167-0.133-0.45-0.2-0.851-0.2c-0.966,0-1.733,0.717-2.3,2.15c-0.533,1.433-1.25,2.15-2.149,2.15c-0.867,0-1.95-0.533-3.25-1.6
		c-2.034-1.7-3.75-2.95-5.15-3.75c0.2,2.867,0.483,5.95,0.85,9.25c0,0.867-0.233,1.567-0.699,2.1c-0.667,0.733-1.134,1.517-1.4,2.35
		c-0.6,1.9-0.833,4.617-0.7,8.15c0.101,1.933,0.25,4.833,0.45,8.7c0,3.233-0.434,7.983-1.3,14.25c-0.434,3.1-0.867,6.2-1.3,9.3
		c0,1.534,1.1,3.301,3.3,5.301c1.967,1.8,3.3,2.699,4,2.699c0.899,0,1.633-1.25,2.2-3.75c0.5-2.933,0.833-4.8,1-5.6l0.149,5.15
		c0,2.267-0.3,4.1-0.899,5.5c-0.467,1.1-1.284,2.233-2.45,3.399c-5.033,5.033-7.733,7.55-8.101,7.55c-0.433,0-1.267-0.716-2.5-2.149
		s-2.25-2.15-3.05-2.15c-0.967,0-2,1.167-3.1,3.5c-0.634,1.367-1.717,3.917-3.25,7.65c-1.3,2.967-3.967,7.633-8,14
		c-2.867,4.533-4.3,7.916-4.3,10.149c0,1.2,0.216,3.767,0.649,7.7c0.5,4.7,0.816,7.934,0.95,9.7l0.3-0.35
		c2.2-6.5,3.783-11.15,4.75-13.95c1.667-4.733,3.417-8.9,5.25-12.5c0.267,0.467,0.517,1.2,0.75,2.2
		c0.167,0.899,0.25,1.633,0.25,2.199c0,0.801-0.483,4.317-1.45,10.551c-0.966,7.166-1.449,13.483-1.449,18.949l0.1,18.65
		c0.134,8.767,0.217,15.2,0.25,19.3c-0.134-4.566-0.634-9.916-1.5-16.05c-1.134-7.1-1.75-11.4-1.85-12.9
		c0.199-3.066,0.1-5.183-0.301-6.35c-1.066,0.366-2.233,2.05-3.5,5.05c-1.1,2.601-1.666,4.4-1.699,5.4c0,1.2-0.267,2.233-0.801,3.1
		c-0.566,0.867-1.233,1.3-2,1.3c-2.5,0.233-4.216,0.601-5.149,1.101c-1.566,0.767-2.351,3.017-2.351,6.75
		c0,0.666,0.084,2.916,0.25,6.75l0.4-1.101c0.767-1,1.5-2.05,2.2-3.149l-0.101,1L143.35,330.95z M177.55,181.75l-0.8,1
		c-0.533,2.5-2.483,7.233-5.85,14.2c-2.834,5.9-4.25,10.8-4.25,14.7l1.1,10.5l0.2-0.551c0.066-1.233,0.149-2.383,0.25-3.449
		c0.2-2.067,0.649-3.333,1.35-3.8c0.167-0.1,1.4-0.317,3.7-0.65c2.233-0.567,3.45-1.5,3.65-2.8c0.366-2.467,0.55-6.417,0.55-11.85
		C177.483,189.383,177.517,183.617,177.55,181.75z M111.85,373.775l0.275,0.85l0.025,0.05l0.199,0.625
		c0.7,2.733,1.867,6.834,3.5,12.3c1.434,4.967,2.534,9,3.301,12.101c-1.733-1.4-3.95-3.634-6.65-6.7
		c-2.566-2.934-4.316-4.733-5.25-5.4c-0.9-2.433-1.816-4.733-2.75-6.899c-1.9-4.367-3.817-6.533-5.75-6.5
		c-0.733-7.8-1.15-14.384-1.25-19.75c-0.167-8.867-0.433-16.684-0.8-23.45c0.5,1.6,1.167,4.017,2,7.25
		c0.5,1.934,1.383,5.384,2.65,10.35c1.966,6.434,3.65,10.983,5.05,13.65c2.5,4.9,4.083,8.116,4.75,9.65L111.85,373.775z M89.5,318
		c-0.533,5.233-0.817,13.316-0.85,24.25c-0.033,2.167-0.733,4.1-2.1,5.8c-1.233,1.467-2.533,2.316-3.9,2.55l2.65-8.949
		c0.267-5.834,0.25-10.867-0.05-15.101c-0.633-9.2-1-15.083-1.1-17.649l3.1,5.649l0.5,0.9L89.5,318z M77.65,302.3
		c0.033-4.434,0.033-7.05,0-7.85c-0.033-0.7-0.383-3.117-1.05-7.25c-0.833-1.033-1.45-2.05-1.85-3.05
		c-0.767-1.867-0.683-4.45,0.25-7.75c1.633,3.366,2.717,6.149,3.25,8.35c0.333,1.333,0.633,3.55,0.9,6.65
		c0.167,2.466,0.6,5.183,1.3,8.149c0.7,2.867,1.3,4.617,1.8,5.25l-1.55-0.2l-1.25,6.25c-0.333,2.134-0.633,4.184-0.9,6.15
		c-0.1,0.767-0.283,1.65-0.55,2.65l-0.25,0.25c-0.233-2.167-0.35-4.117-0.35-5.851C77.567,308.75,77.65,304.833,77.65,302.3z
		 M56.05,240.7c-0.133,3.3-0.35,6-0.65,8.1c-0.967,5.733-1.533,8.834-1.7,9.3c-0.434,1.034-1.284,1.851-2.55,2.45
		c0.367-0.333,0.633-0.8,0.8-1.399c0.433-1.534,0.4-4.4-0.1-8.601c-0.1-8.366-0.133-13.783-0.1-16.25l0.1,0.101L54,237.55h0.05v0.05
		L54,237.55L56.05,240.7z M107.8,3.5l0.45,3.25l2.35,16.95c0,17.6,0.034,27.117,0.101,28.55c0,0.333-0.066,0.683-0.2,1.05
		c-0.167,0.367-0.333,0.633-0.5,0.8l-0.85-0.85c-1.067-0.933-2.034-6.133-2.9-15.6c-0.2-5.433-0.316-13.917-0.35-25.45V4.3
		L107.8,3.5z M151.3,1.65c0.334,3.133,0.75,6.45,1.25,9.95c0.233,1.467,0.351,3.383,0.351,5.75c0,1.733-0.134,3.35-0.4,4.85
		c-0.333-0.2-0.684-0.517-1.05-0.95L151.3,10.9l-1.7,1l-1.1-7.3l-0.45-2.9l3.25-0.1V1.65z M167.4,22
		c-0.534,5.133-1.45,13.05-2.75,23.75c0.066-2.7-1.233-16.45-3.9-41.25c-0.033-0.167,0-0.417,0.1-0.75
		c0.134-0.667,0.467-1.433,1-2.3v-0.2h7.5C169.35,1.283,168.7,8.2,167.4,22z M129.3,22.4l-1.35-4.9c-2.367,0.467-3.7,4.417-4,11.85
		l-0.25-0.95c-0.101-0.467-0.2-0.8-0.3-1l-0.15-0.15c-0.333-4.133-0.566-6.617-0.7-7.45c-1.1,0.6-1.983,1.534-2.649,2.8
		c-0.467,1.2-0.7,1.816-0.7,1.85c0,0.867,0.684,2.8,2.05,5.8c0.366,9.933,0.816,19.317,1.35,28.15L122.7,60
		c-1.267,7.033-2.25,14.533-2.95,22.5c-0.4,2.433-1.033,4.133-1.9,5.1c-0.933,1.066-2.399,1.6-4.399,1.6
		c-0.601,0-1.3-0.167-2.101-0.5l-0.75-0.75c3.301-2.167,5.534-6.917,6.7-14.25v-2.15l-6.7-47.85c-0.1-5.667-0.149-8.833-0.149-9.5
		c0-1.3,0.1-2.517,0.3-3.65l0.65,1.55c0.466,1.833,0.8,3.8,1,5.9c0.033,0.733,0.3,3.233,0.8,7.5c0.5,4.433,0.833,6.9,1,7.4
		l0.55,1.15c0.733-1.5,1.384-4.05,1.95-7.65c0.434-2.833,0.649-4.883,0.649-6.15c-0.3-4.033-0.35-6.733-0.149-8.1
		c0.366-2.167,1.95-3.25,4.75-3.25c0.666,0,3.533,0.25,8.6,0.75l0.05,1.8c0,0.667-0.233,3.316-0.699,7.95
		c0.066,3.1,0.283,8.633,0.649,16.6c0,0.667-0.133,3.183-0.399,7.55l-0.15,2c0.134-4.167,0.217-7.633,0.25-10.4
		C130.283,30.017,129.967,25.767,129.3,22.4z M108.3,178.3c-2.166-1.433-3.5-2.417-4-2.95c-0.066-0.133-0.3-0.633-0.7-1.5
		c0-0.267,0.101-0.5,0.301-0.7c0.166-0.2,0.383-0.3,0.649-0.3c0.3-0.033,1.134,0.017,2.5,0.15c1.434-0.1,2.65-0.683,3.65-1.75
		l0.05-0.05c0.134-0.167,0.467-0.967,1-2.4c0.6-1.533,0.934-2.583,1-3.15c0.5-2.7,0.783-4.316,0.85-4.85l0.25-1.15
		c0.067-0.5-0.816-8.316-2.649-23.45c-1.267-6.4-2.134-13.5-2.601-21.3l2.601,21.3c1.6,7.8,2.95,14.6,4.05,20.4
		c0.1,0.633,0.35,3.117,0.75,7.45c0.4,4.267,0.6,6.55,0.6,6.85c0,3.434-0.5,5.867-1.5,7.3c-0.899,1.267-2.133,1.7-3.699,1.3
		c0.133,0.067,0.267,0.933,0.399,2.6c0.101,0.933,0.2,2.167,0.3,3.7l0.101,0.75v0.05l0.149,1.35
		c1.634,9.433,2.851,19.383,3.65,29.85c0.5,6.634,0.75,11.7,0.75,15.2c0,0.6-0.116,1.116-0.35,1.55l-0.851,1.101
		c-0.366,0.066-0.866,0-1.5-0.2c-0.7-0.167-1.2-0.384-1.5-0.65c-0.333-0.6-0.684-1.649-1.05-3.149s-0.55-2.667-0.55-3.5
		c0-0.934,0.2-2.434,0.6-4.5c0.3-1.733,0.334-6.384,0.101-13.95v-0.1c0-0.067,0-0.117,0-0.15l-0.301-13.05
		c-0.066-2.467-0.116-4.217-0.149-5.25v-0.7l-0.3-11.05l-0.15-0.05C110.316,179.25,109.5,178.9,108.3,178.3z M62.25,6.95
		c-0.4,1.7-1.417,8.583-3.05,20.65c0,0.5,0,1.833,0,4c-0.034,2.033-0.184,3.333-0.45,3.9l-0.1-1.25c-0.467-3.733-0.7-6-0.7-6.8
		c0-6.733,0.233-11.983,0.7-15.75c0.333-2.6,0.733-4.25,1.2-4.95L62.25,6.95z M62.8,138.95l1.5,0.1l0.2-5.05
		c0.167-4.067,0.033-8.45-0.4-13.15l-1-8.45l-0.5-4.2l1.6-20.7l0.75-10.25L65.2,74c0.066,0.7,0.517,5.833,1.35,15.4
		c0.767,8.467,1.2,13.883,1.3,16.25v0.9c0.1,5.233,0.233,9.784,0.4,13.65l0.3,5.8c0.233,9.1,0.184,14.233-0.15,15.4
		c-1.2,1.2-2.683,2-4.45,2.4c-1.367,0.3-3.5,0.45-6.4,0.45c-7.267,0.167-11.7,0.25-13.3,0.25c-1.967,0-3.417-0.267-4.35-0.8
		l0.85-0.05c3.567,0.367,5.983,0.283,7.25-0.25c1.1-0.467,1.65-1.467,1.65-3c0-1.433-0.1-2.75-0.3-3.95v-1.35l0.7,0.4
		c1.2,0.833,2.784,1.65,4.75,2.45c1.8,0.733,3.017,1.1,3.65,1.1L62.8,138.95z M118.75,218.5l-0.1-4.65l0.5,5.2
		c0.033,1.233,0.133,2.4,0.3,3.5C119.184,221.283,118.95,219.934,118.75,218.5z M126.9,270.05c1.666,7.101,2.55,10.95,2.649,11.55
		c0.4,4.034,0.566,8.2,0.5,12.5l0.101,6.801c0.199,3.033,0.05,5.133-0.45,6.3c-0.367,0.8-0.983,1.2-1.851,1.2
		c-0.399,0-0.716-0.051-0.949-0.15l-0.2-0.15l-0.05-1.3c0.533-4.1,0.8-6.333,0.8-6.7c0-0.767-0.15-2.416-0.45-4.949l-0.35-3.25
		c-0.067-1.967-0.717-8.684-1.95-20.15l-0.5-5.1l-0.9-8.4L126.9,270.05z M79.9,237.55l0.15-6.649h2.6
		c0.467-0.067,0.934-0.217,1.4-0.45c0.4-0.367,1.6-2.217,3.6-5.55c1.434-2.434,3.067-3.65,4.9-3.65c2,0,4.267,1.934,6.8,5.8
		c3.1,4.7,4.65,10.184,4.65,16.45c0,13.434-2.233,21.017-6.7,22.75c-1.533,0.9-2.933,1.35-4.2,1.35l-1.65-0.1
		c0-0.6,0.216-1.116,0.65-1.55c2.5-1.867,3.767-2.8,3.8-2.8c1.934-1.733,3.233-3.617,3.9-5.65l0.75-1.75l0.65-2.4l0.45-6.899
		c0.2-3.601,0.3-7,0.3-10.2L101,239.1l-0.4,1.2l-0.65,1.95c-0.333-0.167-0.917-0.884-1.75-2.15c-0.733-1.133-1.167-1.883-1.3-2.25
		l1-0.5l-1.05,0.351l-0.8-2.8c-0.633-1.567-1.35-2.65-2.15-3.25c-0.867-0.634-2.083-0.95-3.65-0.95c-1.733,0-3.1,0.416-4.1,1.25
		c-0.033,0.066-1.3,1.483-3.8,4.25c-0.4,0.6-1.117,1.416-2.15,2.45l-0.05-0.301L79.9,237.55z"/>
	<path style="fill-rule:evenodd;clip-rule:evenodd;fill:#6D655A;" d="M197.65,167.05l0.05-1.75c0-0.933-0.483-2.7-1.45-5.3
		c-1.366-3.667-2.417-6.867-3.15-9.6c-0.633-2.4-1.033-6.117-1.199-11.15c-0.067-5.1-0.15-8.267-0.25-9.5
		c-0.101,2.567-0.384,4.4-0.851,5.5c-0.333,2.167-0.316,7.983,0.05,17.45c0.034,1.566-0.083,3.4-0.35,5.5
		c-0.333,2.5-0.75,4.1-1.25,4.8c-1-1.333-1.7-2.3-2.1-2.9c-0.7-1.033-1.051-2.1-1.051-3.2c0-0.7,0.317-1.833,0.95-3.4
		c0.733-1.9,1.167-3.133,1.3-3.7c0.267-1.133,0.434-2.65,0.5-4.55c0.034-1.4,0.034-3.733,0-7
		c-0.066-14.833,0.051-28.917,0.351-42.25v-5.3c-0.9,4.466-1.767,9.1-2.601,13.9c-1.399,8.267-2.033,13.633-1.899,16.1
		c0.5,8.267,0.184,15.9-0.95,22.9c-1,6.267-2.233,9.95-3.7,11.05c-0.967-0.867-1.616-2.65-1.95-5.35
		c-0.333-2.566-0.5-7.117-0.5-13.65c0-1.2,0.434-5.383,1.301-12.55c0.899-7.6,1.399-12.333,1.5-14.2
		c0.399-6.566,0.716-11.05,0.949-13.45c0.7-6.767,1.7-12.15,3-16.15c0.867-2.733,2.233-5.333,4.101-7.8
		c1.566-2.133,2.383-3.633,2.45-4.5c0.466-3.633,0.85-6.667,1.149-9.1c0.533-4.6,0.8-9.417,0.8-14.45c0-2.9-0.1-6.083-0.3-9.55
		c-0.233-3.833-0.483-6.083-0.75-6.75c-1.333,5.633-2.416,10.45-3.25,14.45c-0.434,2.167-1,4.933-1.7,8.3l-0.25,1.2
		c0-0.533,0.45-4.3,1.351-11.3c0.866-6.733,1.3-12.216,1.3-16.45V23.2l0.1-12.6c0.301,0.433,0.967,1.25,2,2.45
		c0.767,0.9,1.367,1.85,1.801,2.85c0.3,0.7,0.6,1.167,0.899,1.4c0.5,0.4,1.217,0.5,2.15,0.3c0.033,0.133,0.583,3.217,1.649,9.25
		c1,6.467,1.301,10.85,0.9,13.15c1.366-2.533,2.384-4.467,3.05-5.8c1.2-2.333,1.783-4.534,1.75-6.6c0.134,1.2-0.283,3.167-1.25,5.9
		c-1.3,3.767-2.166,6.733-2.6,8.9c-0.167,0.767-0.384,2.167-0.65,4.2c-0.3,2.3-0.916,5.933-1.85,10.9c-1,5.3-1.934,19.35-2.8,42.15
		c-0.733,18.9-1.101,32.517-1.101,40.85c0,3.4,0.9,6.383,2.7,8.95c1.8,2.533,2.7,6.2,2.7,11c0,0.033,0.149,0.816,0.45,2.35
		C199.25,164.567,198.75,165.983,197.65,167.05z M194.1,169c-0.199,0.567-0.3,3-0.3,7.3c0.033,9.534,0.033,15.9,0,19.1
		c0,1.2,0.05,5.483,0.15,12.85c0.066,4.867-0.033,8.767-0.3,11.7c-0.134,1.899-0.017,4.866,0.35,8.899
		c-0.134,3.167-1.55,4.884-4.25,5.15c-2.8,0.267-4.833,0.884-6.1,1.85c-1.167,0.867-2.084,2.351-2.75,4.45
		c-0.434,1.3-1.101,3.9-2,7.8c-1.034,4.167-2.317,8.167-3.851,12c-2.399-0.433-3.95-0.649-4.649-0.649
		c-2.367,0-4.15,6.316-5.351,18.95c-0.6,6.3-0.967,12.649-1.1,19.05c0,7.8,0.149,15.066,0.45,21.8c0.166,3.767,0.433,9.333,0.8,16.7
		c-0.9-4.7-1.634-8.283-2.2-10.75c-0.733-3.134-1.483-6.367-2.25-9.7l-0.1-18.65c0-5.466,0.483-11.783,1.449-18.949
		c0.967-6.233,1.45-9.75,1.45-10.551c0-0.566-0.083-1.3-0.25-2.199c-0.233-1-0.483-1.733-0.75-2.2c-1.833,3.6-3.583,7.767-5.25,12.5
		c-0.967,2.8-2.55,7.45-4.75,13.95l-0.3,0.35c-0.134-1.767-0.45-5-0.95-9.7c-0.434-3.934-0.649-6.5-0.649-7.7
		c0-2.233,1.433-5.616,4.3-10.149c4.033-6.367,6.7-11.033,8-14c1.533-3.733,2.616-6.283,3.25-7.65c1.1-2.333,2.133-3.5,3.1-3.5
		c0.8,0,1.816,0.717,3.05,2.15s2.067,2.149,2.5,2.149c0.367,0,3.067-2.517,8.101-7.55c1.166-1.166,1.983-2.3,2.45-3.399
		c0.6-1.4,0.899-3.233,0.899-5.5l-0.149-5.15c-0.167,0.8-0.5,2.667-1,5.6c-0.567,2.5-1.301,3.75-2.2,3.75
		c-0.7,0-2.033-0.899-4-2.699c-2.2-2-3.3-3.767-3.3-5.301c0.433-3.1,0.866-6.2,1.3-9.3c0.866-6.267,1.3-11.017,1.3-14.25
		c-0.2-3.867-0.35-6.767-0.45-8.7c-0.133-3.533,0.101-6.25,0.7-8.15c0.267-0.833,0.733-1.617,1.4-2.35
		c0.466-0.533,0.699-1.233,0.699-2.1c-0.366-3.3-0.649-6.383-0.85-9.25c1.4,0.8,3.116,2.05,5.15,3.75c1.3,1.067,2.383,1.6,3.25,1.6
		c0.899,0,1.616-0.717,2.149-2.15c0.566-1.434,1.334-2.15,2.3-2.15c0.4,0,0.684,0.067,0.851,0.2
		C193.55,168.35,193.767,168.6,194.1,169z M177.55,181.75c-0.033,1.867-0.066,7.633-0.1,17.3c0,5.434-0.184,9.383-0.55,11.85
		c-0.2,1.3-1.417,2.233-3.65,2.8c-2.3,0.333-3.533,0.55-3.7,0.65c-0.7,0.467-1.149,1.733-1.35,3.8
		c-0.101,1.066-0.184,2.216-0.25,3.449l-0.2,0.551l-1.1-10.5c0-3.9,1.416-8.8,4.25-14.7c3.366-6.967,5.316-11.7,5.85-14.2
		L177.55,181.75z M157.65,305.85l-0.101-0.25c-0.7,0.233-1.717,0.934-3.05,2.101c-1.167,0.967-1.95,1.717-2.35,2.25
		c0.033-1,0.6-2.8,1.699-5.4c1.267-3,2.434-4.684,3.5-5.05C157.75,300.667,157.85,302.783,157.65,305.85z M143.35,330.95l1.25-5.25
		l0.101-1c-0.7,1.1-1.434,2.149-2.2,3.149l-0.4,1.101c-0.166-3.834-0.25-6.084-0.25-6.75c0-3.733,0.784-5.983,2.351-6.75
		c0.934-0.5,2.649-0.867,5.149-1.101C148.35,317.684,146.35,323.217,143.35,330.95z M88.65,342.25
		c0.033-10.934,0.317-19.017,0.85-24.25l0.5,0.65l3,4c-0.3,0.699-0.75,3.883-1.35,9.55C91.15,337.233,90.15,340.583,88.65,342.25z
		 M82.25,304.8l1.9,4.101c0.1,2.566,0.467,8.449,1.1,17.649c0.3,4.233,0.317,9.267,0.05,15.101c-0.533-0.9-0.917-4.15-1.15-9.75
		c-0.2-3.934-0.3-7.967-0.3-12.101c0-0.866-0.233-1.45-0.7-1.75c-0.633-0.2-1.133-0.383-1.5-0.55c-1.5-0.634-2.233-2.85-2.2-6.65
		l1.25-6.25L82.25,304.8z M55.4,248.8c0.3-2.1,0.517-4.8,0.65-8.1l0.8,1.25l3.7,6.399c0.567,1,1.133,2.017,1.7,3.051l0.25,0.5
		l2.75,5.399c0.167,0.3,0.8,1.601,1.9,3.9c1.5,3,3.2,6.233,5.1,9.7c-3.5-2.101-5.683-3.634-6.55-4.601
		c-1.133-1.267-1.883-4.233-2.25-8.899c-0.1-1.7-0.567-3.317-1.4-4.851C60.617,249.75,58.4,248.5,55.4,248.8z M76.6,287.2
		c0.667,4.133,1.017,6.55,1.05,7.25c0.033,0.8,0.033,3.416,0,7.85c-0.767-2.5-1.15-6.017-1.15-10.55L76.6,287.2z M50.55,232.75
		l1.2,1.55c-0.033,2.467,0,7.884,0.1,16.25c-1.067-2.934-1.483-6.333-1.25-10.2c0.2-3.699-0.184-6.666-1.15-8.899l0.5,0.6l0.45,0.55
		L50.55,232.75z M192.05,3.05c-0.033,0.1-0.467,0.7-1.3,1.8s-1.3,1.867-1.4,2.3l-0.05-2.3v-2.3c0.167-0.367,0.351-0.5,0.55-0.4
		C190.616,2.55,191.35,2.85,192.05,3.05z"/>
	<path style="fill-rule:evenodd;clip-rule:evenodd;fill:#7C7367;" d="M112.125,374.625L112,374.2c0.233,0.233,0.9,0.6,2,1.1
		c1.233,0.533,2.184,0.816,2.85,0.851l2.5-0.601c-2-6.467-2.933-14.684-2.8-24.649l-0.05-1.051v-1.55
		c0.066-4.899,0.116-7.85,0.15-8.85c0.1-2.533,0.267-4.283,0.5-5.25l0.25,1.3c0.3,1.833,0.55,5,0.75,9.5
		c0.166,5.267,0.399,9.233,0.699,11.9l0.4,2.85c0.033,0.2,0.783,3.35,2.25,9.45c0.167,0.399,0.634,1.116,1.4,2.149
		c0.8,1.134,1.399,1.851,1.8,2.15l0.149-1v-0.75L126,384c0,0.8-0.283,1.4-0.85,1.8c-0.367,0.267-1.017,0.75-1.95,1.45
		c-1.867,1.833-2.8,5.917-2.8,12.25c0,0.667,0.05,2.566,0.149,5.7c-0.399-0.167-0.866-2-1.399-5.5
		c-0.767-3.101-1.867-7.134-3.301-12.101c-1.633-5.466-2.8-9.566-3.5-12.3l-0.199-0.625L112.125,374.625z M165,78.45l0.2-1.15
		c0.967-5.033,1.6-8.417,1.899-10.15c0.534-2.7,1.267-8.183,2.2-16.45v10.95c1.066-3.6,1.934-7.3,2.601-11.1
		c0.533-2.933,0.8-4.867,0.8-5.8c0-3.767,0.467-7.633,1.399-11.6c0.9-3.967,1.351-6.65,1.351-8.05l-0.101-4.2
		c-0.033-9.767,0.367-16.35,1.2-19.75L189.3,0.9v1.65v2.3c-0.033,0.133-0.583,4.517-1.649,13.15c-1.434,9-3.084,14.417-4.95,16.25
		c0.166-6.567,0.1-11.383-0.2-14.45c-0.3-2.767-0.833-4.5-1.6-5.2c-0.267,0.733-0.517,1.1-0.75,1.1c-0.233,4.2-0.351,7.867-0.351,11
		l-0.85,4.5c-0.2,3.4,0.649,6.05,2.55,7.95c-6.033,13.2-9.15,28.4-9.35,45.6c-0.067,4.7,0.017,11.667,0.25,20.9
		c0.1,8.2-0.217,15.133-0.95,20.8l-0.101,1.9c-2.699-0.333-4.35-2.667-4.949-7c-0.334-2.333-0.601-3.8-0.801-4.4
		c-0.5-1.3-1.333-1.95-2.5-1.95c-1.433,0-2.466,1.333-3.1,4c-0.033-0.9-0.066-1.533-0.1-1.9l-0.101-0.25
		c-0.133-2.133-0.366-4.017-0.7-5.65c-0.466-0.9-0.883-1.917-1.25-3.05c-0.366-1.3-0.55-2.433-0.55-3.4c0-1.167,0.134-1.9,0.4-2.2
		c0.166-0.2,0.55-0.4,1.149-0.6c1.4-0.833,2.717-3.733,3.95-8.7c0.634-2.8,1.134-5.717,1.5-8.75
		C164.634,81.567,164.866,79.55,165,78.45z M168.6,81.2c-0.066,1.2-0.566,4.533-1.5,10c-0.933,5.2-1.399,9.1-1.399,11.7
		s0.767,4.434,2.3,5.5c0.2-0.367,0.366-0.633,0.5-0.8c0.066-0.067,0.116-0.1,0.15-0.1c0.166-2.067,0.25-3.267,0.25-3.6
		C168.733,100.133,168.634,92.567,168.6,81.2z M149.1,152.2l0.851,1.35c2.366,2.434,4.85,7.3,7.45,14.6
		c1.533,4.267,2.816,8.467,3.85,12.6c0.066,0.167,0.316,0.667,0.75,1.5c0.434,0.867,0.717,1.4,0.85,1.6c1.034,0,1.934-0.35,2.7-1.05
		c0.733-0.7,1.101-1.55,1.101-2.55l0.699-2.75l-0.05,1.25c-1.033,4.567-2.033,6.85-3,6.85c-1.767,0-3.983-3.65-6.649-10.95
		c-3.534-9.733-6.351-16.233-8.45-19.5c0.7,7.833,1.05,12.684,1.05,14.55c0,1.466-0.4,3.25-1.2,5.35
		c-0.833,2.133-1.25,3.417-1.25,3.85c0,0.333,0.033,1.767,0.101,4.3c0.033,4.066,0.05,10.083,0.05,18.05
		c1.233-9.667,2.8-14.5,4.7-14.5c1.666,0,2.983,1.2,3.949,3.6c0.967,2.4,1.45,5.717,1.45,9.95c0,1.5-1.333,5.233-4,11.2
		c-2.934,6.5-4.733,12.384-5.399,17.65l-0.25,0.3c-0.7-0.267-1.7-1.417-3-3.45c-1-1.533-1.801-2.95-2.4-4.25
		c0.3-0.9,0.65-1.55,1.05-1.95c0.233-0.2,0.533-0.434,0.9-0.7c0.467-0.566,0.533-2.75,0.2-6.55l-0.051-2.25l-0.949-36.2l-0.4-15
		l-0.4-15.05c-1.166,0.034-2.55-0.533-4.149-1.7c-1.3-0.9-2.4-1.9-3.3-3c-0.167-0.2-0.483-0.733-0.95-1.6
		c-0.5-0.967-0.8-1.617-0.9-1.95c1.5,1.034,3.4,1.75,5.7,2.15c1.833,0.367,3.55,0.483,5.15,0.35c1-0.367,1.783-1.216,2.35-2.55
		c0.533-1.3,0.767-2.833,0.7-4.6c0.066-1.633,0.066-3.867,0-6.7c-0.066-2.667-0.101-4.167-0.101-4.5l0.351-4.55
		c0.267-1.233,1.434-8.667,3.5-22.3l0.2-3.85c0.199-0.8,0.433-1.583,0.699-2.35l-0.899,6.2v0.3c0.1,2.1,0.2,9.6,0.3,22.5
		c0.066,13.067,0.05,20.8-0.05,23.2c-0.066,1.667-0.983,3.017-2.75,4.05c-1.601,0.9-3.184,1.233-4.75,1
		C147.517,149.45,149.066,152.133,149.1,152.2z M123.6,240.5c-2.233,0-4.133-0.467-5.699-1.4c-1.567-0.966-2.351-2.116-2.351-3.449
		l0.851-1.101c0.233-0.434,0.35-0.95,0.35-1.55c0-3.5-0.25-8.566-0.75-15.2c-0.8-10.466-2.017-20.417-3.65-29.85l-0.149-1.35v-0.05
		v-0.2c1.767,9.467,3.583,19.483,5.45,30.05l1.1,2.1c0.2,1.434,0.434,2.783,0.7,4.05c-0.167-1.1-0.267-2.267-0.3-3.5
		c0.767,0.5,1.449,0.667,2.05,0.5h0.55c0.2,0.367,1.333,3,3.4,7.9c0.833,2.033,1.916,3.05,3.25,3.05c0.399,0,0.716-0.083,0.949-0.25
		c0.101-0.1,0.301-0.316,0.601-0.65c0.166-0.1,0.666-0.616,1.5-1.55c0.866-0.866,1.6-1.333,2.2-1.399c2.6-0.301,3.933-0.467,4-0.5
		c1.8-0.434,3.183-1.317,4.149-2.65c-1.366,5.934-4.8,8.9-10.3,8.9c-4.333,0-7.316-0.717-8.95-2.15
		c-0.866-0.767-1.566-1.866-2.1-3.3c0.833,2.967,1.816,5.233,2.95,6.8c1.5,2.1,3.55,3.15,6.149,3.15c0.066,0,0.816-0.2,2.25-0.601
		c1.601-0.434,2.834-0.649,3.7-0.649l-1,2.399c0,2.7-0.55,5-1.65,6.9c-1.133,1.899-2.483,2.85-4.05,2.85l-0.2-2.25l0.15,2.2
		c-0.434-0.434-1.1-1.45-2-3.05c-0.833-1.634-1.316-2.566-1.45-2.8L123.6,240.5z M142.2,250.25c0,7.366-0.084,15.017-0.25,22.95
		v5.899c0.033,0.934,0.166,3.983,0.399,9.15L142.3,290c0.033,1.733-0.35,3.233-1.149,4.5c-1.667,0-3.084-0.35-4.25-1.05
		c-1.2-0.7-1.801-1.533-1.801-2.5c0.034-1.7,0.2-3.2,0.5-4.5c0.667-3.101,1.634-9.717,2.9-19.851l2.15-17.35l1.25-10.2l-0.551-1.95
		c0.634,0.9,1.534,1.517,2.7,1.851c1.134,0.333,2.101,1.149,2.9,2.45c0.7,1.133,1.733,6.183,3.1,15.149l-2.1-3.649
		c0.767,5.767,0.267,12.616-1.5,20.55c-2.101,9.366-3.167,14.55-3.2,15.55c-0.167,4.733-0.35,8.184-0.55,10.35
		c-0.3,3.167-0.75,5.217-1.351,6.15c-0.933,1.4-2.566,2.517-4.899,3.35c-2.467,0.667-4.05,1.084-4.75,1.25
		c-2.2,0.567-3.851,1.617-4.95,3.15c-1,1.333-1.816,2-2.45,2c-1.366,0-2.566-0.5-3.6-1.5c-1.033-1.033-2.2-1.55-3.5-1.55
		c-2.167,0.333-3.566,0.45-4.2,0.35c-0.866-0.1-2.35-1.184-4.45-3.25c0.767,0.434,2.066,0.834,3.9,1.2
		c1.467,0.267,2.45,0.4,2.95,0.4c2.233,0,3.767-0.101,4.6-0.301c1.934-0.533,4.15-1.8,6.65-3.8l0.05,1.3l0.2,0.15
		c0.233,0.1,0.55,0.15,0.949,0.15c0.867,0,1.483-0.4,1.851-1.2c0.5-1.167,0.649-3.267,0.45-6.3c0.133-0.5,0.35-1.551,0.649-3.15
		c0.3-1.634,0.467-2.583,0.5-2.85l-0.95-17.25c0.233,1.767,1.15,7,2.75,15.699c0.934,4.634,1.467,8.817,1.601,12.551
		c0.166-0.034,0.684-0.284,1.55-0.75c0.833-0.434,1.366-0.733,1.6-0.9c1.967-1.467,3.25-2.816,3.851-4.05
		c1.033-1.967,1.366-6.434,1-13.4l-0.05-10.55l-0.051-25.7c0-5.767-0.216-9.483-0.649-11.149c0.066,0.8,0.149,2.55,0.25,5.25
		C142.3,247.25,142.3,249.116,142.2,250.25z M116.3,322.2H115.4c-1.767-0.033-3.801-0.65-6.101-1.851
		c-2.366-1.267-3.6-1.899-3.7-1.899c-1.366-0.134-3.95-0.117-7.75,0.05c-3.967,0.167-6.583,0.217-7.85,0.15L89.5,318l-1.75-2.55
		l-0.5-0.9l0.15-0.95c0.6,0.267,1.533,0.567,2.8,0.9c1.367,0.366,2.35,0.55,2.95,0.55c0.667,0,1.483-0.05,2.45-0.149
		c0.833-0.134,1.683-0.617,2.55-1.45c0.833-0.8,1.25-1.467,1.25-2c0-1.7-0.133-3.283-0.4-4.75c-0.733-3.5-1.567-7.601-2.5-12.3
		l0.2,0.55l0.9,1.95c0.066,2.5,0.633,5.316,1.7,8.449c1.167,3.367,1.817,5.9,1.95,7.601c0.167,2.133,2.566,3.633,7.2,4.5
		c0.767,0.133,1.934,0.983,3.5,2.55C113.384,321.434,114.833,322.167,116.3,322.2z M124.95,370.7c0.267-3.4,0.333-7.066,0.2-11
		c-0.334-2.334-0.517-5.867-0.551-10.601c-0.033-6.033-0.1-9.866-0.199-11.5c-0.5-8.899-2.667-14.017-6.5-15.35h0.649
		c0.566-0.033,1.733-0.2,3.5-0.5c1.667-0.267,2.667-0.4,3-0.4c1.3,0,2.283,0.417,2.95,1.25c0.8,1.034,1.233,2.767,1.3,5.2
		c0,0.2,0.267,3.101,0.8,8.7c0.5,5.4,0.75,8.75,0.75,10.05c0,4.8-0.533,11.05-1.6,18.75c-0.733,5.566-1.616,10.967-2.65,16.2
		C126.6,380.634,126.05,377.033,124.95,370.7z M108.2,103.25l1.1-9l0.5,2.8c1.066,7.233,2.117,14.034,3.15,20.4
		c0.7,4.667,1.416,11.633,2.149,20.9c0.134,3.467,0.184,9.55,0.15,18.25c-1.1-5.8-2.45-12.6-4.05-20.4l-2.601-21.3
		c0.467,7.8,1.334,14.9,2.601,21.3c1.833,15.133,2.717,22.95,2.649,23.45l-0.25,1.15c-0.066,0.534-0.35,2.15-0.85,4.85
		c-0.066,0.567-0.4,1.617-1,3.15c-0.533,1.434-0.866,2.233-1,2.4l-0.15-2.95l0.101,3c-1,1.067-2.217,1.65-3.65,1.75
		c-1.366-0.133-2.2-0.183-2.5-0.15l2.4-2.2c0.566-0.733,1.2-1.417,1.899-2.05c0.434-0.5,0.65-1.283,0.65-2.35l-0.15-1.7
		c-1.1-13.4-2.116-28.667-3.05-45.8L108.2,103.25z M64.2,87.5l-1.6,20.7l-1-7.2c-0.2-1.4-0.45-15.067-0.75-41l0.05,0.45l0.95,13.25
		c0.133,0.7,0.333,2.2,0.6,4.5C62.617,79.6,63.2,82.7,64.2,87.5z M64.1,120.85c0.433,4.7,0.566,9.083,0.4,13.15l-1.1,0.15l-0.1-0.75
		c0.6-6.033,0.9-9.383,0.9-10.05L64.1,120.85z M112.55,234.8c0,1.7-0.45,3.15-1.35,4.351c-0.9,1.166-1.983,1.75-3.25,1.75
		c-0.5,0.733-1.55,5.083-3.15,13.05c-2.033,7.7-4.533,11.8-7.5,12.3c4.467-1.733,6.7-9.316,6.7-22.75c0-6.267-1.55-11.75-4.65-16.45
		c-2.533-3.866-4.8-5.8-6.8-5.8c-1.833,0-3.466,1.217-4.9,3.65c-2,3.333-3.2,5.183-3.6,5.55c0.5-3.267,1.05-5.584,1.65-6.95
		c1.3-3.033,3.283-4.55,5.95-4.55c0.5,0,1.184,0.149,2.05,0.45c0.9,0.333,1.65,0.699,2.25,1.1c0.3,0.333,1.117,1.434,2.45,3.3
		c1.233,1.7,1.983,2.65,2.25,2.851c0.233,0.166,0.417,0.267,0.55,0.3c0.066-1.667,0.15-3.334,0.25-5l0.15,0.3
		c0.6,3.566,1.133,5.983,1.6,7.25c0.6,1.5,1.399,2.25,2.399,2.25c0.667,0,0.95-0.1,0.851-0.3c0.033-0.233,0.033-2.084,0-5.55
		c-0.033-2.967,0.184-5.184,0.649-6.65c0.233-0.767,1.15-2.317,2.75-4.65c1.2-1.767,1.801-3.4,1.801-4.9
		c0.233,7.566,0.199,12.217-0.101,13.95c-0.399,2.066-0.6,3.566-0.6,4.5c0,0.833,0.184,2,0.55,3.5S112.217,234.2,112.55,234.8z
		 M103.6,173.85c0.4,0.867,0.634,1.367,0.7,1.5c0.5,0.533,1.834,1.517,4,2.95c-1.767-0.267-3.017-0.5-3.75-0.7
		c-1.333-0.3-2-0.833-2-1.6c0-0.433,0.1-0.817,0.3-1.15C102.983,174.65,103.233,174.317,103.6,173.85z M96.05,234.9
		c-1.167-0.334-2.55-0.2-4.15,0.399c-1.167,0.434-2.066,0.9-2.7,1.4l-1.2,1.5l-1.3,0.149c-0.2,0.733-0.434,1.917-0.7,3.551
		c-0.3,1.699-0.45,2.883-0.45,3.55c0,0.666,0.083,1.217,0.25,1.649c0.034,0.101,0.317,0.684,0.85,1.75
		c0.267,3.867,0.184,6.95-0.25,9.25l-0.95-0.449c-1.633-1.634-2.784-3.634-3.45-6c-0.433-1.5-1.35-2.25-2.75-2.25
		c-5.067,0-10.65,0.833-16.75,2.5l-0.25-0.5c-0.567-1.034-1.133-2.051-1.7-3.051l-3.7-6.399c4.167-0.134,7.05,0.649,8.65,2.35
		c1.667,1.767,4.883,2.65,9.65,2.65c2.167,0,3.583-0.667,4.25-2c0.867-2.834,1.85-5.75,2.95-8.75c2.5-2.767,3.767-4.184,3.8-4.25
		c1-0.834,2.367-1.25,4.1-1.25c1.567,0,2.783,0.316,3.65,0.95C94.7,232.25,95.417,233.333,96.05,234.9z M101.65,246.45
		c0.033-0.9,0.05-1.533,0.05-1.9c0.033-0.833-0.2-2.649-0.7-5.45l0.95-2.85C101.95,239.45,101.85,242.85,101.65,246.45z"/>
	<path style="fill-rule:evenodd;clip-rule:evenodd;fill:#898074;" d="M115.4,322.2l2.5,0.05c3.833,1.333,6,6.45,6.5,15.35
		c0.1,1.634,0.166,5.467,0.199,11.5c0.034,4.733,0.217,8.267,0.551,10.601c-1.634-3.5-2.301-9.017-2-16.55
		c0.333-7.534-0.284-12.917-1.851-16.15c-0.3-0.634-1.517-0.934-3.649-0.9c-2.834,0.034-4.667-0.05-5.5-0.25
		c-1.667-0.433-3.334-1.5-5-3.199c-1.367-1.434-3.084-2.15-5.15-2.15c-2.333,0-3.867,0.233-4.6,0.7
		c-0.8,0.533-1.316,1.75-1.55,3.649L94.5,324.2l-0.9-0.7l-0.1-0.1l-0.5-0.75l-3-4c1.267,0.066,3.883,0.017,7.85-0.15
		c3.8-0.167,6.383-0.184,7.75-0.05c0.101,0,1.334,0.633,3.7,1.899C111.6,321.55,113.634,322.167,115.4,322.2z M49.95,232.05
		l-1.9-2.55l-1.4-1.9c-1.1-2.066-2.683-6.166-4.75-12.3c-2.066-6.133-3.133-9.9-3.2-11.3l-0.05-0.75
		c2.067,5.933,4.617,12.5,7.65,19.7c1.5,3.6,2.867,6.816,4.1,9.649L49.95,232.05z M37.35,147.5L37,146.6l-0.1-0.3
		c-2.9-5.433-5.167-10.6-6.8-15.5c-1.2-4.3-1.934-6.867-2.2-7.7l0.05,0.05l1.95,3.8c0.533,2.966,3.333,5.883,8.4,8.75
		c4.067,2.3,6.733,3.45,8,3.45c1.1,0.033,2.117-0.867,3.05-2.7c0.2,1.2,0.3,2.517,0.3,3.95c0,1.533-0.55,2.533-1.65,3
		c-1.267,0.533-3.683,0.617-7.25,0.25l-0.85,0.05c0.934,0.533,2.383,0.8,4.35,0.8c1.6,0,6.033-0.083,13.3-0.25
		c-0.8,0.6-1.517,1.067-2.15,1.4c-1.167,0.633-2.433,0.95-3.8,0.95c-1.333,0-2.767-0.167-4.3-0.5c-1.5-0.367-2.633-0.55-3.4-0.55
		c-2.566,0-3.933,1.1-4.1,3.3c-0.233-0.1-0.683-0.333-1.35-0.7C37.85,147.817,37.483,147.6,37.35,147.5z M145.15,212.55
		c0.333,3.8,0.267,5.983-0.2,6.55c-0.367,0.267-0.667,0.5-0.9,0.7c-0.399,0.4-0.75,1.05-1.05,1.95l-0.5-0.7
		c-0.267,0.7-0.5,1.517-0.7,2.45c-0.967,1.333-2.35,2.217-4.149,2.65c-0.067,0.033-1.4,0.199-4,0.5
		c-0.601,0.066-1.334,0.533-2.2,1.399c-0.834,0.934-1.334,1.45-1.5,1.55c-1.533-0.899-2.667-2.8-3.4-5.699
		c-0.666-2.801-0.866-6.084-0.6-9.851l0.2,1.7c1.8,6.467,3.75,9.7,5.85,9.7c0.767,0,1.366-0.283,1.8-0.851
		c0.233-0.3,0.45-0.699,0.65-1.199c0.133-0.334,0.283-1.117,0.45-2.351c0.166-1.2,0.25-2.066,0.25-2.6c0-0.601-0.134-2.55-0.4-5.85
		c-0.267-3.4-0.5-5.934-0.7-7.6c0.233,0.233,0.9,1.333,2,3.3c1.3,2.1,2.566,3.7,3.8,4.8c0.634,0.433,1,0.683,1.101,0.75
		c0.399,0.2,0.816,0.3,1.25,0.3c0.6,0,1.2-0.2,1.8-0.6C144.333,213.317,144.717,212.983,145.15,212.55z M108.2,103.25l-0.25-7.75
		l-0.65-21.95l0.9,9.25l0.6,6c3.134-2.267,4.7-8.167,4.7-17.7c-1.366-6.333-2.217-10.083-2.55-11.25l-0.15-0.6l-1.649-6L110,54.1
		c0.167-0.167,0.333-0.434,0.5-0.8c0.134-0.367,0.2-0.716,0.2-1.05c-0.066-1.433-0.101-10.95-0.101-28.55l-2.35-16.95l1.55-3.55
		c2.634,0,4.5-0.067,5.601-0.2c2.233-0.267,7.85-0.6,16.85-1l-0.2,1.85L131,12.7c-0.267,1.933-0.634,4.167-1.1,6.7
		c0.466-4.633,0.699-7.283,0.699-7.95l-0.05-1.8c-5.066-0.5-7.934-0.75-8.6-0.75c-2.8,0-4.384,1.083-4.75,3.25
		c-0.2,1.367-0.15,4.067,0.149,8.1c0,1.267-0.216,3.317-0.649,6.15c-0.566,3.6-1.217,6.15-1.95,7.65l-0.55-1.15
		c0-1.167-0.084-3.3-0.25-6.4c-0.167-3.133-0.25-4.783-0.25-4.95c0.7-4.066,1.217-6.533,1.55-7.4l-0.85,1.05
		c-0.101,0.1-0.4,0.5-0.9,1.2c-0.566,0.767-0.934,1.3-1.1,1.6c-0.2-2.1-0.534-4.067-1-5.9l-0.65-1.55c-0.2,1.133-0.3,2.35-0.3,3.65
		c0,0.667,0.05,3.833,0.149,9.5l6.7,47.85v2.15c-1.166,7.333-3.399,12.083-6.7,14.25l0.75,0.75c-0.767,1.3-1.267,2.15-1.5,2.55
		c-0.3,0.6-0.517,1.25-0.649,1.95l0.1,1.05L108.2,103.25z M165.2,77.3c-0.033-7.9,0.316-15.833,1.05-23.8
		c0.533-5.433,1.634-10.8,3.3-16.1c1.434-4.6,2.15-8.033,2.15-10.3c0-1.5-0.384-2.617-1.15-3.35c-0.467-0.467-1.517-1.05-3.149-1.75
		c1.3-13.8,1.949-20.717,1.949-20.75l7.2-0.1c-0.833,3.4-1.233,9.983-1.2,19.75l0.101,4.2c0,1.4-0.45,4.083-1.351,8.05
		c-0.933,3.967-1.399,7.833-1.399,11.6c0,0.933-0.267,2.867-0.8,5.8c-0.667,3.8-1.534,7.5-2.601,11.1V50.7
		c-0.934,8.267-1.666,13.75-2.2,16.45C166.8,68.883,166.167,72.267,165.2,77.3z M181.5,39.15c-1.9-1.9-2.75-4.55-2.55-7.95l0.85-4.5
		c0-3.133,0.117-6.8,0.351-11c0.233,0,0.483-0.367,0.75-1.1c0.767,0.7,1.3,2.433,1.6,5.2c0.3,3.067,0.366,7.883,0.2,14.45
		c1.866-1.833,3.517-7.25,4.95-16.25c1.066-8.633,1.616-13.017,1.649-13.15l0.05,2.3L189.15,7.7c-0.134,0.433-0.2,0.85-0.2,1.25
		c0,0.433,0.033,0.733,0.1,0.9c0.033,0.133,0.134,0.383,0.3,0.75l-0.1,12.6l-0.05,0.7l-0.05,0.5
		c-0.767,4.633-2.184,8.383-4.25,11.25C182.833,37.75,181.7,38.917,181.5,39.15z M159.1,111.2c0.334,1.633,0.567,3.517,0.7,5.65
		l0.101,0.25c0.033,0.367,0.066,1,0.1,1.9c0.634-2.667,1.667-4,3.1-4c1.167,0,2,0.65,2.5,1.95c0.2,0.6,0.467,2.066,0.801,4.4
		c0.6,4.333,2.25,6.667,4.949,7l-0.149,3.9c-1.101,0.133-1.983,0.2-2.65,0.2c-0.633,0-1.399-0.267-2.3-0.8
		c-0.767-3.433-1.167-5.217-1.2-5.35c-0.267-1.333-0.85-4.517-1.75-9.55l-0.149,1.7c0,0.1-0.367,2.167-1.101,6.2
		c-0.7,4.4-0.934,7.65-0.7,9.75c-0.666-3.867-1.233-8.417-1.699-13.65C159.283,116.417,159.1,113.233,159.1,111.2z M162.8,93.25
		c1.066-10.533,1.601-21.9,1.601-34.1l0.6,19.3c-0.134,1.1-0.366,3.117-0.7,6.05C163.934,87.533,163.434,90.45,162.8,93.25z
		 M168.6,81.2c0.034,11.367,0.134,18.933,0.301,22.7c0,0.333-0.084,1.533-0.25,3.6c-0.034,0-0.084,0.033-0.15,0.1
		c-0.134,0.167-0.3,0.433-0.5,0.8c-1.533-1.066-2.3-2.9-2.3-5.5s0.467-6.5,1.399-11.7C168.033,85.733,168.533,82.4,168.6,81.2z
		 M95.95,101c-0.6,1.433-0.8,4.8-0.6,10.1c0.267,6.167,0.267,10.267,0,12.3l-0.2,0.75c-1.033-4.2-1.6-7.017-1.7-8.45
		c0-4.633-0.083-12.967-0.25-25l-0.6-31.05c1.9,21.1,4.75,33.25,8.55,36.45l0.15-0.75c0.1-0.267,0.467-0.867,1.1-1.8
		c0.667-0.9,1.083-1.433,1.25-1.6l4.1-2.3l0.15,4.85c-0.9,2.133-1.601,4.15-2.101,6.05c-0.3,0.867-1.017,1.3-2.149,1.3
		c-2.234,0-3.634-0.267-4.2-0.8c-0.567-0.566-1.383-0.85-2.45-0.85c-0.433,0-0.7,0.066-0.8,0.2
		C96.133,100.633,96.05,100.833,95.95,101z M154.9,97.05c0.166,1.534,0.55,4.567,1.149,9.1c0.566,5.467,0.851,12.4,0.851,20.8
		c-0.467,5.167-0.851,9.933-1.15,14.3c-0.467,2.333-2.333,5.583-5.6,9.75l-1.051,1.2c-0.033-0.067-1.583-2.75-4.649-8.05
		c1.566,0.233,3.149-0.1,4.75-1c1.767-1.033,2.684-2.383,2.75-4.05c0.1-2.4,0.116-10.133,0.05-23.2c-0.1-12.9-0.2-20.4-0.3-22.5
		l4.25-27.85c-0.9,10.733-1.351,19.067-1.351,25L154.9,97.05z M162.85,183.85c0.467-0.333,1.733-1.533,3.801-3.6
		c0,1-0.367,1.85-1.101,2.55C164.783,183.5,163.884,183.85,162.85,183.85z M136.45,235.5c-0.8,2.566-1.2,6.45-1.2,11.65l-0.75-9.101
		l1-2.399L136.45,235.5z M141.35,237.1l0.551,1.95l-1.25,10.2c-1.534-1.467-2.567-2.483-3.101-3.05c-0.866-0.934-1.3-2.351-1.3-4.25
		l0.3-6.5C138.15,235.316,139.75,235.866,141.35,237.1z M127,295.15c0.3,2.533,0.45,4.183,0.45,4.949c0,0.367-0.267,2.601-0.8,6.7
		c-2.5,2-4.717,3.267-6.65,3.8c-0.833,0.2-2.366,0.301-4.6,0.301c-0.5,0-1.483-0.134-2.95-0.4c-1.834-0.366-3.134-0.767-3.9-1.2
		l-0.899-1.55c0.666,0.233,1.633,0.483,2.899,0.75c1.367,0.3,2.367,0.45,3,0.45c1.867,0,4.417-1.566,7.65-4.7
		C124.533,300.95,126.467,297.917,127,295.15z M141.15,294.5c-0.067,0.267-0.684,1.717-1.851,4.35c-1,2.233-1.483,4.034-1.45,5.4
		c-0.233,0.167-0.767,0.467-1.6,0.9c-0.866,0.466-1.384,0.716-1.55,0.75c-0.134-3.733-0.667-7.917-1.601-12.551
		c0.667-0.633,1.284-1.35,1.851-2.149l0.149-0.25c0,0.967,0.601,1.8,1.801,2.5C138.066,294.15,139.483,294.5,141.15,294.5z
		 M87.25,314.55l-3.1-5.649l-1.9-4.101c-0.5-0.633-1.1-2.383-1.8-5.25c-0.7-2.967-1.133-5.684-1.3-8.149
		c2.1,2.433,4.667,5.816,7.7,10.149c2.4,3.167,4.467,4.75,6.2,4.75c0.667,0,1.017-0.066,1.05-0.2l0.05-4.25
		c0-3.033-0.6-8.183-1.8-15.449c-1.2-7.2-1.783-12.15-1.75-14.851c0.133,1.566,0.717,3.934,1.75,7.101
		c1.333,4.233,2.833,7.333,4.5,9.3c0.433,3.399,0.683,6.383,0.75,8.95l-0.9-1.95l-0.2-0.55c0.933,4.699,1.767,8.8,2.5,12.3
		c0.267,1.467,0.4,3.05,0.4,4.75c0,0.533-0.417,1.2-1.25,2c-0.867,0.833-1.717,1.316-2.55,1.45c-0.967,0.1-1.783,0.149-2.45,0.149
		c-0.6,0-1.583-0.184-2.95-0.55c-1.267-0.333-2.2-0.634-2.8-0.9L87.25,314.55z M124.85,371.75v0.75l-0.149,1
		c-0.4-0.3-1-1.017-1.8-2.15c-0.767-1.033-1.233-1.75-1.4-2.149c-1.467-6.101-2.217-9.25-2.25-9.45l-0.4-2.85
		c0.267,0.6,1.051,2.816,2.351,6.649c1.399,3.767,2.583,6.084,3.55,6.95L124.85,371.75z M126.6,34.15
		c-1.8,8.033-3.133,15.684-4,22.95c0-6.2-0.083-12.367-0.25-18.5c-0.199-6.434-0.35-11.317-0.449-14.65
		c-0.134,2.167-0.351,4.267-0.65,6.3c-1.366-3-2.05-4.933-2.05-5.8c0-0.034,0.233-0.65,0.7-1.85c0.666-1.267,1.55-2.2,2.649-2.8
		c0.134,0.833,0.367,3.317,0.7,7.45l0.15,0.15c0.1,0.2,0.199,0.533,0.3,1l0.25,0.95c0.3-7.434,1.633-11.383,4-11.85l1.35,4.9
		C129.3,22.9,128.4,26.817,126.6,34.15z M125.45,156.8l4.5-3.9c-0.066,0.1-0.117,0.217-0.15,0.35c-3.066,5.567-4.767,8.617-5.1,9.15
		c-1.7,3-3.7,4.75-6,5.25c-0.101,2.2-0.55,6.383-1.351,12.55c-0.066,0.566-0.283,5.9-0.649,16c0,1.8,0.316,8.533,0.95,20.2
		c-1.867-10.566-3.684-20.583-5.45-30.05v0.2l-0.101-0.75c-0.1-1.533-0.199-2.767-0.3-3.7c-0.133-1.667-0.267-2.533-0.399-2.6
		c1.566,0.4,2.8-0.033,3.699-1.3c1-1.434,1.5-3.867,1.5-7.3c0-0.3-0.199-2.583-0.6-6.85c-0.4-4.333-0.65-6.816-0.75-7.45
		c0.033-8.7-0.017-14.783-0.15-18.25l0.9,5.3c0.366,2.267,0.767,4.434,1.2,6.5c0.333,2.2,0.816,6.267,1.45,12.2l0.8,0.45h0.399
		c0.2-0.533,0.467-1,0.801-1.4C121.483,160.367,123.083,158.833,125.45,156.8z M147.95,131.15c0.066,1.767-0.167,3.3-0.7,4.6
		c-0.566,1.333-1.35,2.183-2.35,2.55c0.267-0.733,0.783-1.933,1.55-3.6C147.217,133.033,147.717,131.85,147.95,131.15z
		 M131.25,130.05c0,2.567,0.45,4.767,1.35,6.6c0.9,1.8,2,2.7,3.301,2.7c0.899,1.1,2,2.1,3.3,3c1.6,1.167,2.983,1.733,4.149,1.7
		l0.4,15.05c-0.066,0.1-1.184,2.433-3.35,7l-0.75-1.3c-0.867-2.233-1.867-5.85-3-10.85c-0.834-3.7-1.834-6.233-3-7.6
		c-0.601-0.667-2.134-2-4.601-4c-0.967-0.767-1.45-2.167-1.45-4.2c0.233-3.233,0.334-5.767,0.301-7.6l-0.051-3.9
		c0-1.4,0.15-3.783,0.45-7.15c0.233,0,0.5-0.35,0.8-1.05c0.2,0.6,0.517,2.017,0.95,4.25
		C130.55,125.267,130.95,127.717,131.25,130.05z M106.25,37.65c-1.833-12.267-2.783-18.833-2.85-19.7l2.5-5.75
		C105.934,23.733,106.05,32.217,106.25,37.65z M89.45,9.05l-2.7,15.1L86.7,8.85L89.45,9.05z M80.55,205.9
		c-0.933-4.633-1.4-9.717-1.4-15.25l0.05-3.95l3.15,3.25c1.233,5.267,2,9,2.3,11.2v-1.9c0.533,0.833,1.283,2.2,2.25,4.1
		c1,1.5,2.217,2.25,3.65,2.25c2.434,0,4.1-2.25,5-6.75c0.233-1.2,1.117-3.283,2.65-6.25c1.233-2.5,1.85-4.817,1.85-6.95
		c0-2.867-0.35-7.033-1.05-12.5s-1.05-9.117-1.05-10.95c0.3-11.567,0.517-21.367,0.65-29.4c0.267,4.034,0.683,8.917,1.25,14.65
		c0.5,4.767,0.75,7.533,0.75,8.3c0,0.1,0.217,2.833,0.65,8.2c0.6,5.533,1.383,8.833,2.35,9.9c-0.366,0.467-0.616,0.8-0.75,1
		c-0.2,0.333-0.3,0.717-0.3,1.15c0,0.767,0.667,1.3,2,1.6c0.733,0.2,1.983,0.433,3.75,0.7c1.2,0.6,2.017,0.95,2.45,1.05l0.4,10.7
		c-0.067-0.2-0.617-1.533-1.65-4c-1.066-2.466-1.7-3.867-1.9-4.2c-0.767,1.2-2.033,5.433-3.8,12.7
		c-1.633,6.633-2.45,10.184-2.45,10.65c0,4.833,0.467,8.85,1.4,12.05c1.866,6.566,3.1,11.3,3.7,14.2c0.1,0.2-0.184,0.3-0.851,0.3
		c-1,0-1.8-0.75-2.399-2.25c-0.467-1.267-1-3.684-1.6-7.25l-0.15-0.3c-0.1,1.666-0.184,3.333-0.25,5
		c-0.133-0.033-0.317-0.134-0.55-0.3c0.167-8.867,0.35-15.95,0.55-21.25c-0.633,0.867-2.133,2-4.5,3.4
		c-2.333,1.367-4.167,3.067-5.5,5.1c1.533,1.4,2.6,2.467,3.2,3.2c0.934,1.167,1.45,2.301,1.55,3.4c-0.6-0.4-1.35-0.767-2.25-1.1
		c-0.867-0.301-1.55-0.45-2.05-0.45c-2.667,0-4.65,1.517-5.95,4.55c-0.6,1.366-1.15,3.684-1.65,6.95
		c-0.466,0.233-0.933,0.383-1.4,0.45c0.067-1.601,0.083-3.784,0.05-6.551c-0.067-2.6-0.1-4.066-0.1-4.399
		c0.1-1.334,0.167-2.384,0.2-3.15c0.567-4.133,0.85-6.533,0.85-7.2c0-0.067-0.433-0.533-1.3-1.4
		C81.417,207.267,80.817,206.5,80.55,205.9z M59.85,6.75c-0.467,0.7-0.867,2.35-1.2,4.95c-0.467,3.767-0.7,9.017-0.7,15.75
		c0,0.8,0.233,3.066,0.7,6.8l0.1,1.25c0.267-0.567,0.417-1.867,0.45-3.9c0-2.167,0-3.5,0-4c1.633-12.067,2.65-18.95,3.05-20.65
		c0.5,0.8,0.733,8.083,0.7,21.85c0,13.2,0.667,29.35,2,48.45L64.2,87.5c-1-4.8-1.583-7.9-1.75-9.3c-0.267-2.3-0.467-3.8-0.6-4.5
		c-0.633-12.2-1.167-19.917-1.6-23.15c-0.867-6.5-1.383-10.667-1.55-12.5c-0.2-2.333-1.383-7.033-3.55-14.1
		c-2.1-6.833-3.15-10.5-3.15-11s0.517-1.284,1.55-2.35c1.167-1.267,1.983-2.65,2.45-4.15L59.85,6.75z M68.25,120.2
		c-0.167-3.867-0.3-8.417-0.4-13.65l0.2,2.5C68.183,111.117,68.25,114.833,68.25,120.2z M70.55,135.35
		c0.034,1.167,0.117,2.65,0.25,4.45c0,1.333-0.25,2.284-0.75,2.85c-0.466-0.167-1.017-0.583-1.65-1.25
		c0.333-1.167,0.383-6.3,0.15-15.4c0,0.2,0.317,1.717,0.95,4.55C70.1,133.35,70.45,134.95,70.55,135.35z M63.1,112.4l1,8.45l0.1,2.5
		c0,0.667-0.3,4.017-0.9,10.05c-0.367,1.767-0.55,2.85-0.55,3.25l0.05,2.3l-4.35,0.1c-0.633,0-1.85-0.367-3.65-1.1
		c-1.966-0.8-3.55-1.617-4.75-2.45c1.534-1.5,3.267-2.4,5.2-2.7c1.067-0.2,2.483-0.283,4.25-0.25c1.4-0.133,2.383-0.75,2.95-1.85
		c0.7-1.4,1.05-3.917,1.05-7.55L63.1,112.4z M121.2,219.55l-1.25-11.3l1.8,11.3H121.2z M129.55,281.6
		c-0.1-0.6-0.983-4.449-2.649-11.55L123.6,240.5l1.7,1.4c1.5,7.199,2.584,12.25,3.25,15.149c0.267,1.167,0.434,2.017,0.5,2.55
		l0.25,6.4l0.25-0.15l0.4,7.25L129.55,281.6z M142.6,250.55l-0.399-0.3c0.1-1.134,0.1-3,0-5.6c-0.101-2.7-0.184-4.45-0.25-5.25
		C142.384,241.066,142.6,244.783,142.6,250.55z M130.15,300.9l-0.101-6.801c0.4,0.134,0.8,0.2,1.2,0.2l0.05,0.601
		c-0.033,0.267-0.2,1.216-0.5,2.85C130.5,299.35,130.283,300.4,130.15,300.9z M79.9,237.55l0.25,0.8l0.05,0.301
		c1.033-1.034,1.75-1.851,2.15-2.45c-1.1,3-2.083,5.916-2.95,8.75c-0.667,1.333-2.083,2-4.25,2c-4.767,0-7.983-0.884-9.65-2.65
		c-1.6-1.7-4.483-2.483-8.65-2.35l-0.8-1.25L54,237.55l0.05,0.05l0.65,0.101c0.133-0.033,0.4-0.2,0.8-0.5
		c0.333-0.233,0.683-0.351,1.05-0.351c2.1,0,4.5,1.301,7.2,3.9c2.733,2.566,5.517,3.85,8.35,3.85c1.5,0,2.633-0.616,3.4-1.85
		C76.767,240.583,78.233,238.85,79.9,237.55z M108.8,248.3l-0.85-0.05c0.267,3.833,0.6,7.833,1,12c0.267,2.9,0.399,4.9,0.399,6
		c0,1.533-0.116,2.7-0.35,3.5c-0.434,1.566-1.35,2.783-2.75,3.65c-1.733,0.3-4.367-0.167-7.9-1.4c-4-1.434-8.3-3.583-12.9-6.45
		c-0.5-0.3-1.333-1.717-2.5-4.25c-1.167-2.5-2.583-4.2-4.25-5.1l-0.1,1.05c0.066,3.3-0.017,5-0.25,5.1
		c-0.733,0.301-2.684-0.267-5.85-1.699c-3.633-1.733-6.05-2.851-7.25-3.351L62.5,251.9c6.1-1.667,11.683-2.5,16.75-2.5
		c1.4,0,2.317,0.75,2.75,2.25c0.667,2.366,1.817,4.366,3.45,6l0.95,0.449c0.434-2.3,0.517-5.383,0.25-9.25
		c0.767-0.5,1.517-1.116,2.25-1.85l-0.1,4.8c0,2.867,0.434,5.351,1.3,7.45c1.033,2.5,2.467,3.75,4.3,3.75
		c1.033,0,1.967-0.566,2.8-1.7c0.966-1.566,1.833-2.833,2.6-3.8c-0.667,2.033-1.966,3.917-3.9,5.65c-0.033,0-1.3,0.933-3.8,2.8
		c-0.434,0.434-0.65,0.95-0.65,1.55l1.65,0.1c1.267,0,2.667-0.449,4.2-1.35c2.967-0.5,5.467-4.6,7.5-12.3
		c1.601-7.967,2.65-12.316,3.15-13.05C108.417,244.033,108.7,246.5,108.8,248.3z M100.55,255.75c0.067-0.866,0.083-6.017,0.05-15.45
		l0.4-1.2c0.5,2.801,0.733,4.617,0.7,5.45c0,0.367-0.017,1-0.05,1.9l-0.45,6.899L100.55,255.75z M89.2,236.7l0.05,1.45L88,238.2
		L89.2,236.7z M130,270.95l-0.3-5.25l0.2-0.15C130.033,267.116,130.066,268.917,130,270.95z M141.95,279.1l0.649-1.149l-0.25,10.3
		C142.116,283.083,141.983,280.033,141.95,279.1z M116.85,376.15c-0.666-0.034-1.616-0.317-2.85-0.851c-1.1-0.5-1.767-0.866-2-1.1
		l-0.15-0.425l-0.699-1.875c-0.667-1.534-2.25-4.75-4.75-9.65c-1.4-2.667-3.084-7.217-5.05-13.65c-2-8.633-3.417-14.133-4.25-16.5
		l0.3-2.649l0.65,1.05c0.934,2.233,2.133,4.884,3.6,7.95c0.733,1.533,2.5,5.983,5.3,13.35c0.733,1.967,1.399,4.4,2,7.3
		c0.333,1.634,0.8,3.967,1.399,7C111.517,371.167,113.684,374.517,116.85,376.15z M116.5,349.85v0.5
		c-1-3.033-1.717-5.333-2.15-6.899c-0.733-2.7-1.066-5.15-1-7.351l0.5,0.75c0.434,0.834,0.834,2.084,1.2,3.75
		c0.033,0.101,0.517,2.667,1.45,7.7V349.85z"/>
	<path style="fill-rule:evenodd;clip-rule:evenodd;fill:#A49A8E;" d="M101.35,348.6c-1.267-4.966-2.15-8.416-2.65-10.35
		c-0.833-3.233-1.5-5.65-2-7.25l-0.35-1.2l0.75,2.3C97.933,334.467,99.35,339.967,101.35,348.6z M48.05,229.5l1.9,2.55l-0.5-0.6
		L48.05,229.5z M37.35,147.5c0.633,1.633,1.617,2.7,2.95,3.2c1.633,0.633,4.817,0.95,9.55,0.95c7.566,0,13.066-0.883,16.5-2.65
		c2.933-1.533,5.7-4.6,8.3-9.2l0.15,0.75l0.2-1c-2.033,12.233-3.05,18.684-3.05,19.35c0,4.833,0.517,9.684,1.55,14.55
		c1.333,6.167,3.233,10.583,5.7,13.25l-0.05,3.95c0,5.533,0.467,10.617,1.4,15.25c-1.6,7.3-2.75,11.917-3.45,13.85
		c-1.133,3.134-2.583,4.7-4.35,4.7c-1.467,0-3.433-0.467-5.9-1.4c-3.767-1.399-7.45-2.533-11.05-3.399c-2.8-0.667-5.233-1.5-7.3-2.5
		c-1.4-0.667-2.233-1.167-2.5-1.5c-0.867-1.2-1.717-5.15-2.55-11.85c-0.7-6.933-1.184-10.933-1.45-12
		c-1.433-6.1-2.15-10.483-2.15-13.15l0.1-3.1l-1.3,0.15c-0.133-3.7,0.033-7.633,0.5-11.8c0.5-3.5,0.75-5.283,0.75-5.35
		c-1.1-5.667-2.066-9.65-2.9-11.95L37.35,147.5z M29.9,126.95l-1.95-3.8c-2.767-12.5-4.95-25.6-6.55-39.3
		c-1.133-9.8-2.867-17.9-5.2-24.3c-1.934-4.633-3.317-7.95-4.15-9.95c-1.367-3.4-2.617-7.783-3.75-13.15
		c-0.966-4.6-2.767-9.483-5.4-14.65C0.967,17.967,0,13.683,0,8.95C0,8.017,0.15,6.8,0.45,5.3C0.717,3.733,1,2.7,1.3,2.2l63.9,4.95
		l-0.85,3.05c0.066-0.4,0.017-0.4-0.15,0c-0.167,0.333-0.25,0.783-0.25,1.35c0.1,8.534,0.117,17.4,0.05,26.6
		c0.067,8.233,0.467,20.184,1.2,35.85l-0.25,3.25c-1.333-19.1-2-35.25-2-48.45c0.033-13.767-0.2-21.05-0.7-21.85l-2.4-0.2L56,6.45
		l-6.7-0.5l-1.1-0.1L31,4.55c-1.767-0.133-3.467-0.233-5.1-0.3L23.95,4.2c0,0.033,0,0.066,0,0.1c-3.633,0.333-5.75,0.85-6.35,1.55
		c-0.633,0.767-0.833,3.183-0.6,7.25c0.167,2.7,0.533,5.35,1.1,7.95c0.433,2.733,1.283,5.833,2.55,9.3
		c0.967,2.767,1.817,4.783,2.55,6.05l0.2-1.35c0.1-1.433,0.233-3.8,0.4-7.1c0.133-3.034,0.2-4.85,0.2-5.45
		c-0.3-5.433-0.517-9.25-0.65-11.45C23.217,8.217,23.433,6.233,24,5.1c0.467,10.8,0.617,18.433,0.45,22.9
		c-0.267,4.567,0.367,10.133,1.9,16.7c0.767,3.3,1.583,6.283,2.45,8.95c0.333,4.4,0.833,8.983,1.5,13.75
		c-0.167,4.033,0.583,10.1,2.25,18.2c0.934,4.467,2.3,10.883,4.1,19.25V99.4c-0.8-21.833-1.267-35.8-1.4-41.9
		c5.033,30.233,7.933,46.817,8.7,49.75c0.7,2.7,1.6,4.9,2.7,6.6c0.7,1.1,2.2,3.233,4.5,6.4c0.133-0.567,0.2-1.183,0.2-1.85
		c0-3.233-0.967-8.25-2.9-15.05c-3.034-10.7-5.267-19.383-6.7-26.05c-2.3-9.7-3.8-16.433-4.5-20.2
		c-0.867-4.733-1.967-13.35-3.3-25.85c0.167,1.033,0.417,2.333,0.75,3.9c1.533,7.1,2.35,10.867,2.45,11.3
		c0.067,0.267,1.15,5.783,3.25,16.55c2.5,11.3,4.833,18.617,7,21.95l0.55,3.4V86.9c0,0.3,0.5,2.833,1.5,7.6
		c0.767,3.6,1.183,6.25,1.25,7.95c0.033-1.8,0.05-3.717,0.05-5.75c0-4.667-0.183-13.417-0.55-26.25
		C49.767,55.95,49.467,38.8,49.3,19c0.4,0.967,2.367,9.083,5.9,24.35c3.5,15.2,5.4,23.717,5.7,25.55l-0.1-10.65l0.1,2.2L60.85,60
		c0.3,25.933,0.55,39.6,0.75,41l1,7.2l0.5,4.2c-0.167,0.233-0.767,2.383-1.8,6.45c-0.767,2.9-2.083,4.35-3.95,4.35
		c-7.5,0-12.184,0.8-14.05,2.4c-1.033,0.867-1.9,1.417-2.6,1.65c-1.467,0.5-3.9,0.75-7.3,0.75C32.267,128,31.1,127.65,29.9,126.95z
		 M86.7,8.85l-1-0.1l4.65,0.35l-0.9-0.05L86.7,8.85z M93.25,53.95c-0.4-1.5-0.817-3.55-1.25-6.15c-0.433-2.667-0.667-4.767-0.7-6.3
		v38c0.233,3.633,0.5,6,0.8,7.1c0.167,0.7,0.533,2.066,1.1,4.1c0.167,12.033,0.25,20.367,0.25,25c0.1,1.433,0.667,4.25,1.7,8.45
		l0.2-0.75c0.267-2.033,0.267-6.133,0-12.3c-0.2-5.3,0-8.667,0.6-10.1c0.667,2.833,1.85,10.3,3.55,22.4
		c1.667,11.967,2.5,18.817,2.5,20.55c-0.033,1.833-0.233,6-0.6,12.5c0,2.5,0.333,4.833,1,7c0.4,1.367,0.867,2.5,1.4,3.4
		c0.2-0.867,0.3-1.617,0.3-2.25c-0.066-2.434-0.116-19.55-0.149-51.35l2.35,5.5c0.934,17.133,1.95,32.4,3.05,45.8
		c-0.833,1.467-1.633,3.5-2.399,6.1l-2.4,2.2c-0.267,0-0.483,0.1-0.649,0.3c-0.2,0.2-0.301,0.434-0.301,0.7
		c-0.966-1.067-1.75-4.367-2.35-9.9c-0.433-5.367-0.65-8.1-0.65-8.2c0-0.767-0.25-3.533-0.75-8.3
		c-0.567-5.733-0.983-10.617-1.25-14.65c-0.133,8.034-0.35,17.833-0.65,29.4c0,1.833,0.35,5.483,1.05,10.95s1.05,9.633,1.05,12.5
		c0,2.133-0.617,4.45-1.85,6.95c-1.534,2.967-2.417,5.05-2.65,6.25c-0.9,4.5-2.566,6.75-5,6.75c-1.433,0-2.65-0.75-3.65-2.25
		c-0.967-1.9-1.717-3.267-2.25-4.1v1.9c-0.3-2.2-1.066-5.933-2.3-11.2c0.6,0.333,1.133,0.433,1.6,0.3l0.05-0.6
		c1.633,3.867,3.133,7.617,4.5,11.25l0.2-0.55l0.2-1.55c-1.167-7.8-2.267-16.466-3.3-26c-2-18.9-2.767-35.316-2.3-49.25
		c-0.5,6.367-0.95,12.117-1.35,17.25l-3.6-6.1l-0.1-1.2c0.233-20.6,0.35-34.917,0.35-42.95l1.4-13.7L80.25,78
		c0.1,0.667,1.1,9.033,3,25.1c2.233,16,4.283,24.717,6.15,26.15c-0.167-16.367-0.433-34.1-0.8-53.2
		c-0.434-22.566-0.817-37.35-1.15-44.35l1.85,4.95v-2.7c-0.367-6.133-0.316-11.133,0.15-15c0.367-2.867,1.133-6.117,2.3-9.75
		l3.35,0.3l-1.8-0.1L93.25,53.95z M138.15,1.9c0,1.533-0.551,3.65-1.65,6.35c-1.167,2.8-1.8,6.55-1.9,11.25
		c-0.033,1.833-0.05,6.067-0.05,12.7c-0.033,5.433-0.1,9.333-0.2,11.7l-0.399-5l-6.65,50c-0.033,7.8-0.116,14.133-0.25,19
		c0,1.434,0.2,3.067,0.601,4.9c0.533,2.534,1.267,3.8,2.199,3.8c0.634,0,1.017-0.067,1.15-0.2c0.267-0.233,0.483-0.883,0.65-1.95
		c0.466-4.934,1.05-10.867,1.75-17.8c0.966,3.133,1.466,5.434,1.5,6.9c0.033,1.1-0.101,3.133-0.4,6.1c-0.3,4.7,0.066,7.8,1.1,9.3
		c0.667,1,2.317,1.816,4.95,2.45c0.5,4.434,0.25,7.017-0.75,7.75c-0.5,0.333-3.35,0.633-8.55,0.9c-0.3-2.333-0.7-4.783-1.2-7.35
		c-0.434-2.233-0.75-3.65-0.95-4.25c-0.3,0.7-0.566,1.05-0.8,1.05c-0.3,3.367-0.45,5.75-0.45,7.15l0.051,3.9
		c-1,4-1.567,9.3-1.7,15.9c-0.134,6.033-0.384,9.483-0.75,10.35c-2.367,2.034-3.967,3.567-4.8,4.6c-0.334,0.4-0.601,0.867-0.801,1.4
		h-0.399l-0.8-0.45c-0.634-5.934-1.117-10-1.45-12.2c-0.434-2.066-0.834-4.233-1.2-6.5c-0.033-7-0.167-13.15-0.4-18.45
		c-0.233-3.967-0.35-6.117-0.35-6.45c0-2.467,0.5-4.8,1.5-7c0.066-0.133,1.184-2.067,3.35-5.8c3.2-5.567,4.801-12.5,4.801-20.8
		c-0.267-7.867-0.4-13.217-0.4-16.05c0-1.733,0.333-7.25,1-16.55c0.7-9.633,1.066-15.767,1.1-18.4c1.801-7.333,2.7-11.25,2.7-11.75
		c0.667,3.367,0.983,7.617,0.95,12.75c-0.033,2.767-0.116,6.233-0.25,10.4l0.15-2c0.267-4.367,0.399-6.883,0.399-7.55
		c-0.366-7.967-0.583-13.5-0.649-16.6c0.466-2.533,0.833-4.767,1.1-6.7l1.05-8.85l1.2-1.85L138.15,1.9z M154.9,97.05l-0.301-6.5
		c0-5.933,0.45-14.267,1.351-25L151.7,93.4v-0.3l0.899-6.2c-0.267,0.767-0.5,1.55-0.699,2.35c-0.101-1.167-0.584-3.633-1.45-7.4
		l-0.5,0.75c-0.267,0.5-0.617,4.117-1.05,10.85c-0.334,5.033-0.551,8.65-0.65,10.85c0,0.333,0.033,2.317,0.1,5.95
		c-0.366,3.567-1.583,5.567-3.649,6c1.1-5.967,1.733-9.517,1.899-10.65c0.267-1.7,0.4-3.45,0.4-5.25c0-15.567,0.783-28.233,2.35-38
		c1.534-9.767,2.301-19,2.301-27.7c0-4.533-0.067-9-0.2-13.4c0.366,0.433,0.717,0.75,1.05,0.95c0.267-1.5,0.4-3.117,0.4-4.85
		c0-2.367-0.117-4.283-0.351-5.75c-0.5-3.5-0.916-6.817-1.25-9.95l10.55-0.2c-0.533,0.867-0.866,1.633-1,2.3
		c-0.1,0.333-0.133,0.583-0.1,0.75c-1.366,1.167-2.05,3.667-2.05,7.5l0.7,18.95h3.25l0.3,4.25c0,0.1-0.717,2.133-2.15,6.1
		c-1.434,4.3-2.149,7.317-2.149,9.05c0,1.066,0.366,4.483,1.1,10.25s1.1,9.066,1.1,9.9c0,1.7,0.117,6.633,0.351,14.8
		c-0.134,7.667-1.184,12.25-3.15,13.75c-0.8,0-1.533-0.3-2.2-0.9C155.684,98.017,155.366,97.65,154.9,97.05z M189.25,23.2v0.15
		l-0.05,0.55L189.25,23.2z M171.45,126.45c-0.267,18.867-0.25,34.583,0.05,47.15c0,0.167-0.134,0.283-0.4,0.35
		c-0.466,0.167-1.3,0.033-2.5-0.4c-0.066,0.733-0.333,1.867-0.8,3.4c-0.1,0.066-1.133,0.783-3.1,2.15
		c-1.334,0.867-2.483,1.417-3.45,1.65c-1.033-4.133-2.316-8.333-3.85-12.6c-2.601-7.3-5.084-12.167-7.45-14.6l0.2-2.55
		c3.267-4.167,5.133-7.417,5.6-9.75c0.3-4.367,0.684-9.133,1.15-14.3c0.133,0.367,0.683,3.633,1.649,9.8
		c0.7,4.233,1.65,6.35,2.851,6.35c0.767,0,1.616-1.383,2.55-4.15c1.033-3.467,1.8-5.9,2.3-7.3c0.9,0.533,1.667,0.8,2.3,0.8
		c0.667,0,1.55-0.067,2.65-0.2l0.149-3.9L171.45,126.45z M104.8,302.15c-1.5-2.967-2.433-4.717-2.8-5.25
		c-1.633-2.467-2.55-3.851-2.75-4.15c0.167-3.566,0.2-5.816,0.1-6.75c-0.133-1.134-1.033-3.116-2.7-5.95H96.6l-1.45-1.85l0.55,0.149
		c0.767,0.5,2,0.9,3.7,1.2c1.267,0.233,2.184,0.351,2.75,0.351c1.333,0,2.633-0.184,3.9-0.551c3.233,0.5,6.584-0.833,10.05-4
		c1.967-1.767,4.667-4.666,8.101-8.699l0.5,5.1c0.233,3,0.166,5.95-0.2,8.85c-0.533,4.034-1.634,7.2-3.3,9.5
		c-3.066,4.267-5.334,7.934-6.8,11c-0.467,0.667-1,1.067-1.601,1.2c-0.366,0.101-1.467,0.15-3.3,0.15
		C107.2,302.217,105.634,302.116,104.8,302.15z M142.7,286.8l-0.05-0.899L142.3,290l0.05-1.75l0.25-10.3l0.051-1.7L142.7,286.8z
		 M115.4,322.2h0.899l2.25,0.05H117.9L115.4,322.2z M149.6,11.9l-3.399,2c0.566-1.1,1.033-2.517,1.399-4.25
		c0.367-2.133,0.667-3.816,0.9-5.05L149.6,11.9z M122.6,58.4v-1.3L122.7,60L122.6,58.4z M134.85,54.4l0.9-2.65
		c-0.267,0.867-0.566,2.05-0.9,3.55V54.4z M157.15,44.5c-0.4-2.233-0.801-7.433-1.2-15.6c-0.033,12.4-0.033,19.783,0,22.15
		c0.033,4.1,0.133,6.733,0.3,7.9l0.35-0.75c0.233-0.8,0.467-2.15,0.7-4.05c0.2-1.633,0.3-2.783,0.3-3.45
		C157.6,48.1,157.45,46.033,157.15,44.5z M103.4,17.95c0.066,0.867,1.017,7.433,2.85,19.7c0.866,9.467,1.833,14.667,2.9,15.6
		l1.649,6l-0.149-0.45c0.267,3.167,0.5,5.367,0.699,6.6c0,0.567-0.233,5.217-0.699,13.95l0.1-3.25l-0.45,1.55
		c-0.6,1.767-1.3,3.483-2.1,5.15l-0.9-9.25l0.65,21.95l-0.05-1l-0.15-4.85l-0.15-5.6l-3.949,7.9c-0.167,0.167-0.584,0.7-1.25,1.6
		c-0.633,0.934-1,1.534-1.1,1.8c-0.466-1-0.983-2.417-1.55-4.25c-0.9-2.8-1.483-5.434-1.75-7.9l0.6,0.55
		c1.033-1.2,1.617-2.25,1.75-3.15c0.1-2.967,0.3-7.633,0.6-14l0.35,0.8c0.633-17.066,1.05-34.267,1.25-51.6L103.4,17.95z
		 M109.2,93.2l0.6,3.85l-0.5-2.8L109.2,93.2z M78.85,140.4c1.3,0.333,2.333,0.467,3.1,0.4c-0.833,10.133-1.483,17.717-1.95,22.75
		l-2.8-15.45c0.066,0.233,0.233,0.633,0.5,1.2c0.533,2.467,0.85,4.383,0.95,5.75l-0.15-4.35l0.65,0.85c0.3-1.2,0.45-2.45,0.45-3.75
		C79.6,147,79.35,144.533,78.85,140.4z M15.7,24.35c-0.5-7.067-1.4-14.133-2.7-21.2l-7.75-0.6c0.5,9.2,2.25,17.934,5.25,26.2
		c0.8,2.2,1.967,5.283,3.5,9.25c1.267,3.433,2.15,6.6,2.65,9.5l-0.1-2.1C16.25,35.133,15.967,28.117,15.7,24.35z M68.05,109.05
		l-0.2-2.5v-0.9L68.05,109.05z M57.95,152.9c-3.367-0.133-5.85-0.217-7.45-0.25c-2.833-0.1-4.65,0.6-5.45,2.1
		c-1.1,2.067-1.883,4.317-2.35,6.75c-0.833,4.267-1.25,10.45-1.25,18.55c0,6.1,0.983,10.85,2.95,14.25
		c1.633,2.833,3.55,4.25,5.75,4.25c1.5,0,2.633-0.566,3.4-1.7c0.8-1.2,1.434-3.4,1.9-6.6C55.95,186.817,56.783,174.367,57.95,152.9z
		 M63.95,171.1l0.1,0.95c0.1,1.567,0.317,6.75,0.65,15.55c0.367,8.2,0.667,12.816,0.9,13.85c0.633,2.833,1.533,5.533,2.7,8.1
		c1.434,3.2,2.267,5.15,2.5,5.85c0.034-0.033,0.184-0.333,0.45-0.9c0.167-0.3,0.283-0.45,0.35-0.45c0.1-1.3,0.15-2.283,0.15-2.95
		c-0.5-4.167-0.95-8.567-1.35-13.2c-0.833-9.133-1-17.833-0.5-26.1c0.033-8.767-0.167-16.85-0.6-24.25
		c-4.8,4.833-7.917,8.184-9.35,10.05c-0.9,1.167-1.35,2.167-1.35,3l-0.8,26.7l0.2,8.2l0.35-1.05c0.433-1.667,1.4-5.684,2.9-12.05
		C62.75,176.067,63.65,172.3,63.95,171.1z M118.7,167.65c1.666,0,3.083-0.517,4.25-1.55c1.166-1.033,1.75-2.267,1.75-3.7
		c0.333-0.533,2.033-3.583,5.1-9.15c0.4-0.2,0.851-0.367,1.351-0.5c2.3,0,3.8,1,4.5,3c0.333,1,0.583,3.3,0.75,6.9
		c0.166,3.367,0.633,5.9,1.399,7.6c1.167,2.6,3.283,4.35,6.351,5.25v-1.4l0.949,36.2c-1.399,0.267-2.483,0.617-3.25,1.05
		c-0.6,0.367-1.267,0.95-2,1.75c-1.233-1.1-2.5-2.7-3.8-4.8c-1.1-1.966-1.767-3.066-2-3.3c0.2,1.667,0.434,4.2,0.7,7.6
		c0.267,3.3,0.4,5.25,0.4,5.85c0,0.533-0.084,1.399-0.25,2.6c-0.167,1.233-0.317,2.017-0.45,2.351
		c-3.667-1.434-5.75-2.483-6.25-3.15c-0.601-1.934-1.384-4.3-2.351-7.1c-0.5-1.5-1.816-4.85-3.949-10.05
		c-0.867-2.1-1.301-4.367-1.301-6.8c0-3.533-0.466-6.667-1.399-9.4c-1.101-3.3-1.717-5.533-1.851-6.7
		C118.15,174.033,118.6,169.85,118.7,167.65z M103.6,112.55l-1.1,21.8l-0.3-11.75c0-0.667,0.05-2.434,0.15-5.3
		c0.1-3.167,0.2-5.35,0.3-6.55L103.6,112.55z M110.75,171.2l-0.05,0.05l-0.101-3L110.75,171.2z M111.15,190.05l-0.4-10.7l0.15,0.05
		l0.3,11.05C111.167,190.25,111.15,190.117,111.15,190.05z M128.8,247.8l0.15,1.7h-0.101l-0.1-1.75l-0.15-2.2L128.8,247.8z
		 M131.3,294.9l-0.05-0.601l-1.3-21.2l0.399,4.551L131.3,294.9z M88,238.2l1.25-0.05l-2.55,0.199L88,238.2z M135.3,248.35
		l-0.05-1.199l0.1,1.199H135.3z M138.5,266.6c-1.267,10.134-2.233,16.75-2.9,19.851c-0.3,1.3-0.466,2.8-0.5,4.5l-0.149,0.25
		c-0.101,0.1-0.2-0.45-0.3-1.65c-0.101-1.033-0.15-1.899-0.15-2.6c0-3.834,0.5-7.467,1.5-10.9c0.967-3.467,1.45-5.684,1.45-6.649
		c0-1.733-0.967-4.184-2.9-7.351l1,0.9C136.517,263.917,137.5,265.134,138.5,266.6z M50.55,232.75c0.5,0.566,0.934,1.116,1.3,1.65
		l-0.1-0.101L50.55,232.75z M54.05,237.6v-0.05l0.65,0.15L54.05,237.6z M112,374.2l0.125,0.425l-0.275-0.85L112,374.2z
		 M116.55,350.9l-0.05-0.551v-0.5L116.55,350.9z"/>
	<path style="fill-rule:evenodd;clip-rule:evenodd;fill:#9B9286;" d="M125.15,359.7c0.133,3.934,0.066,7.6-0.2,11l-0.3-2.55
		l0.1,2.35c-0.967-0.866-2.15-3.184-3.55-6.95c-1.3-3.833-2.084-6.05-2.351-6.649c-0.3-2.667-0.533-6.634-0.699-11.9
		c-0.2-4.5-0.45-7.667-0.75-9.5l-0.25-1.3c-0.233,0.967-0.4,2.717-0.5,5.25c-0.034,1-0.084,3.95-0.15,8.85
		c-0.934-5.033-1.417-7.6-1.45-7.7c-0.366-1.666-0.767-2.916-1.2-3.75l-0.5-0.75c-0.066,2.2,0.267,4.65,1,7.351
		c0.434,1.566,1.15,3.866,2.15,6.899l0.05,0.551c-0.133,9.966,0.8,18.183,2.8,24.649l-2.5,0.601
		c-3.166-1.634-5.333-4.983-6.5-10.051c-0.6-3.033-1.066-5.366-1.399-7c-0.601-2.899-1.267-5.333-2-7.3
		c-2.8-7.366-4.567-11.816-5.3-13.35c-1.467-3.066-2.667-5.717-3.6-7.95l-0.65-1.05l-0.3,2.649l-0.75-2.3l-0.4-1.2
		c-0.667-1.933-1.483-3.666-2.45-5.199l0.1,0.1l0.9,0.7l1.35,0.649c0.233-1.899,0.75-3.116,1.55-3.649
		c0.733-0.467,2.267-0.7,4.6-0.7c2.066,0,3.783,0.717,5.15,2.15c1.666,1.699,3.333,2.767,5,3.199c0.833,0.2,2.666,0.284,5.5,0.25
		c2.133-0.033,3.35,0.267,3.649,0.9c1.566,3.233,2.184,8.616,1.851,16.15C122.85,350.684,123.517,356.2,125.15,359.7z M96.6,280.05
		l0.25,7.9c-1.667-1.967-3.167-5.066-4.5-9.3c-1.033-3.167-1.617-5.534-1.75-7.101c-0.033,2.7,0.55,7.65,1.75,14.851
		c1.2,7.267,1.8,12.416,1.8,15.449l-0.05,4.25c-0.033,0.134-0.383,0.2-1.05,0.2c-1.733,0-3.8-1.583-6.2-4.75
		c-3.033-4.333-5.6-7.717-7.7-10.149c-0.267-3.101-0.566-5.317-0.9-6.65c-0.533-2.2-1.617-4.983-3.25-8.35
		c-1-2.4-1.917-4.233-2.75-5.5c-1.9-3.467-3.6-6.7-5.1-9.7c-1.1-2.3-1.733-3.601-1.9-3.9c1.2,0.5,3.617,1.617,7.25,3.351
		c3.167,1.433,5.117,2,5.85,1.699c0.233-0.1,0.316-1.8,0.25-5.1l0.1-1.05c1.667,0.899,3.083,2.6,4.25,5.1
		c1.167,2.533,2,3.95,2.5,4.25c4.6,2.867,8.9,5.017,12.9,6.45c3.533,1.233,6.167,1.7,7.9,1.4c-0.634,0.8-1.95,1.733-3.95,2.8
		c-2.367,1.233-4.566,1.95-6.6,2.149l-0.55-0.149L96.6,280.05z M96.65,280.05c1.667,2.834,2.567,4.816,2.7,5.95
		c0.1,0.934,0.066,3.184-0.1,6.75c-0.4-0.866-0.933-3-1.6-6.4C97.017,283.116,96.683,281.017,96.65,280.05z M154.9,97.05
		c0.466,0.6,0.783,0.967,0.949,1.1c0.667,0.6,1.4,0.9,2.2,0.9c1.967-1.5,3.017-6.083,3.15-13.75c-0.233-8.167-0.351-13.1-0.351-14.8
		c0-0.833-0.366-4.133-1.1-9.9s-1.1-9.184-1.1-10.25c0-1.733,0.716-4.75,2.149-9.05c1.434-3.966,2.15-6,2.15-6.1l-0.3-4.25h-3.25
		L158.7,12c0-3.833,0.684-6.333,2.05-7.5c2.667,24.8,3.967,38.55,3.9,41.25c1.3-10.7,2.216-18.617,2.75-23.75
		c1.633,0.7,2.683,1.283,3.149,1.75c0.767,0.733,1.15,1.85,1.15,3.35c0,2.267-0.717,5.7-2.15,10.3c-1.666,5.3-2.767,10.667-3.3,16.1
		c-0.733,7.967-1.083,15.9-1.05,23.8l-0.2,1.15l-0.6-19.3c0,12.2-0.534,23.567-1.601,34.1c-1.233,4.967-2.55,7.867-3.95,8.7
		c-0.6,0.2-0.983,0.4-1.149,0.6c-0.267,0.3-0.4,1.034-0.4,2.2c0,0.967,0.184,2.1,0.55,3.4c0.367,1.133,0.784,2.15,1.25,3.05
		c0,2.033,0.184,5.216,0.551,9.55c0.466,5.233,1.033,9.783,1.699,13.65c-0.233-2.1,0-5.35,0.7-9.75c0.733-4.033,1.101-6.1,1.101-6.2
		l0.149-1.7c0.9,5.033,1.483,8.217,1.75,9.55c0.033,0.133,0.434,1.917,1.2,5.35c-0.5,1.4-1.267,3.833-2.3,7.3
		c-0.934,2.767-1.783,4.15-2.55,4.15c-1.2,0-2.15-2.117-2.851-6.35c-0.967-6.167-1.517-9.433-1.649-9.8
		c0-8.4-0.284-15.333-0.851-20.8C155.45,101.617,155.066,98.583,154.9,97.05z M95.95,101c0.1-0.167,0.183-0.367,0.25-0.6
		c0.1-0.133,0.367-0.2,0.8-0.2c1.067,0,1.883,0.283,2.45,0.85c0.566,0.534,1.966,0.8,4.2,0.8c1.133,0,1.85-0.434,2.149-1.3
		c0.5-1.9,1.2-3.917,2.101-6.05l0.05,1l0.25,7.75l-1.9,15.5l-2.35-5.5v-7.7l-0.351,7l-0.95-1.8c-0.1,1.2-0.2,3.383-0.3,6.55
		c-0.1,2.867-0.15,4.633-0.15,5.3l0.3,11.75l-0.5,9.6c0-1.733-0.833-8.583-2.5-20.55C97.8,111.3,96.617,103.833,95.95,101z
		 M145.15,212.55c-0.434,0.434-0.817,0.767-1.15,1c-0.6,0.4-1.2,0.6-1.8,0.6c-0.434,0-0.851-0.1-1.25-0.3
		c-0.101-0.067-0.467-0.317-1.101-0.75c0.733-0.8,1.4-1.383,2-1.75c0.767-0.434,1.851-0.783,3.25-1.05L145.15,212.55z M134.45,223.4
		c-0.2,0.5-0.417,0.899-0.65,1.199c-0.434,0.567-1.033,0.851-1.8,0.851c-2.1,0-4.05-3.233-5.85-9.7l-0.2-1.7
		c-0.267,3.767-0.066,7.05,0.6,9.851c0.733,2.899,1.867,4.8,3.4,5.699c-0.3,0.334-0.5,0.551-0.601,0.65
		c-0.233,0.167-0.55,0.25-0.949,0.25c-1.334,0-2.417-1.017-3.25-3.05c-2.067-4.9-3.2-7.533-3.4-7.9l-1.8-11.3l1.25,11.3
		c-0.601,0.167-1.283,0-2.05-0.5l-0.5-5.2l0.1,4.65l-1.1-2.1c-0.634-11.667-0.95-18.4-0.95-20.2c0.366-10.1,0.583-15.434,0.649-16
		c0.134,1.167,0.75,3.4,1.851,6.7c0.934,2.733,1.399,5.867,1.399,9.4c0,2.434,0.434,4.7,1.301,6.8c2.133,5.2,3.449,8.55,3.949,10.05
		c0.967,2.8,1.75,5.167,2.351,7.1C128.7,220.917,130.783,221.967,134.45,223.4z M95.95,220.5c-0.1-1.1-0.617-2.233-1.55-3.4
		c-0.6-0.733-1.667-1.8-3.2-3.2c1.333-2.033,3.167-3.733,5.5-5.1c2.367-1.4,3.867-2.533,4.5-3.4c-0.2,5.3-0.383,12.383-0.55,21.25
		c-0.267-0.2-1.017-1.15-2.25-2.851C97.067,221.934,96.25,220.833,95.95,220.5z M80.55,205.9c0.267,0.6,0.867,1.367,1.8,2.3
		c0.867,0.867,1.3,1.333,1.3,1.4c0,0.667-0.283,3.066-0.85,7.2c-0.033,0.767-0.1,1.816-0.2,3.15c0,0.333,0.033,1.8,0.1,4.399
		c0.033,2.767,0.017,4.95-0.05,6.551h-2.6l-0.15,6.649c-1.667,1.3-3.133,3.033-4.4,5.2c-0.767,1.233-1.9,1.85-3.4,1.85
		c-2.833,0-5.617-1.283-8.35-3.85c-2.7-2.6-5.1-3.9-7.2-3.9c-0.367,0-0.716,0.117-1.05,0.351c-0.4,0.3-0.667,0.467-0.8,0.5
		l-0.65-0.15H54l-2.15-3.149c-0.367-0.534-0.8-1.084-1.3-1.65l-0.15-0.15c-1.233-2.833-2.6-6.05-4.1-9.649
		c-3.033-7.2-5.583-13.767-7.65-19.7c-0.033-1.333-0.033-2.517,0-3.55v-23.85c0-0.033,0-0.083,0-0.15l1.3-0.15l-0.1,3.1
		c0,2.667,0.717,7.05,2.15,13.15c0.267,1.067,0.75,5.067,1.45,12c0.833,6.7,1.683,10.65,2.55,11.85c0.267,0.333,1.1,0.833,2.5,1.5
		c2.067,1,4.5,1.833,7.3,2.5c3.6,0.866,7.284,2,11.05,3.399c2.467,0.934,4.433,1.4,5.9,1.4c1.767,0,3.217-1.566,4.35-4.7
		C77.8,217.816,78.95,213.2,80.55,205.9z M87.45,31.7l-0.7-6.95v-0.6l2.7-15.1l0.9,0.05l1.4,0.1c-1.167,3.633-1.933,6.883-2.3,9.75
		c-0.467,3.867-0.517,8.867-0.15,15v2.7L87.45,31.7z M105.9,12.2l-2.5,5.75l-0.851-2.15l0.15-7.35c0.167-0.267,0.399-0.733,0.7-1.4
		c0.466-0.767,1.3-1.683,2.5-2.75V12.2z M108.25,6.75L107.8,3.5l2-0.3L108.25,6.75z M133.25,2l-1.2,1.85l0.2-1.85H133.25z
		 M134.85,54.4c-0.066-3.733-0.233-7.233-0.5-10.5c0.101-2.367,0.167-6.267,0.2-11.7c0-6.633,0.017-10.867,0.05-12.7
		c0.101-4.7,0.733-8.45,1.9-11.25c1.1-2.7,1.65-4.817,1.65-6.35V1.7h9.899l0.45,2.9c-0.233,1.233-0.533,2.917-0.9,5.05
		c-0.366,1.733-0.833,3.15-1.399,4.25l-9.601,5.65c0.067,0.867,0.45,1.784,1.15,2.75c0.866,1.2,1.8,1.667,2.8,1.4l0.101,2.3
		c0,2.8-0.551,6.967-1.65,12.5c-0.934,4.7-1.917,8.817-2.95,12.35l-0.3,0.9L134.85,54.4z M149.95,153.55l-0.851-1.35l1.051-1.2
		L149.95,153.55z M166.65,180.25c-2.067,2.067-3.334,3.267-3.801,3.6c-0.133-0.2-0.416-0.733-0.85-1.6
		c-0.434-0.833-0.684-1.333-0.75-1.5c0.967-0.233,2.116-0.783,3.45-1.65c1.967-1.367,3-2.083,3.1-2.15l-0.5,1.8l0.05-1.25
		L166.65,180.25z M128.85,249.5l-0.25,0.05c0.067,0.334,0.217,3.684,0.45,10.05c-0.066-0.533-0.233-1.383-0.5-2.55
		c-0.666-2.899-1.75-7.95-3.25-15.149c0.134,0.233,0.617,1.166,1.45,2.8c0.9,1.6,1.566,2.616,2,3.05L128.85,249.5z M128.95,249.5
		l-0.15-1.7c1.566,0,2.917-0.95,4.05-2.85c1.101-1.9,1.65-4.2,1.65-6.9l0.75,9.101c0-5.2,0.4-9.084,1.2-11.65l0.1-0.05l-0.3,6.5
		c0,1.899,0.434,3.316,1.3,4.25c0.533,0.566,1.566,1.583,3.101,3.05l-2.15,17.35c-1-1.466-1.983-2.683-2.95-3.649l-1-0.9
		c1.934,3.167,2.9,5.617,2.9,7.351c0,0.966-0.483,3.183-1.45,6.649c-1,3.434-1.5,7.066-1.5,10.9c0,0.7,0.05,1.566,0.15,2.6
		c0.1,1.2,0.199,1.75,0.3,1.65c-0.566,0.8-1.184,1.517-1.851,2.149c-1.6-8.699-2.517-13.933-2.75-15.699l-0.35-6.7
		c0.066-2.033,0.033-3.834-0.1-5.4c1.166-1.333,2.383-4.2,3.649-8.6c1.134-3.967,1.733-6.834,1.8-8.601l-0.1-1.199l0.05,1.199
		L128.95,249.5z M142.7,286.8c0.366,6.967,0.033,11.434-1,13.4c-0.601,1.233-1.884,2.583-3.851,4.05
		c-0.033-1.366,0.45-3.167,1.45-5.4c1.167-2.633,1.783-4.083,1.851-4.35c0.8-1.267,1.183-2.767,1.149-4.5l0.351-4.1L142.7,286.8z
		 M127,295.15c-0.533,2.767-2.467,5.8-5.8,9.1c-3.233,3.134-5.783,4.7-7.65,4.7c-0.633,0-1.633-0.15-3-0.45
		c-1.267-0.267-2.233-0.517-2.899-0.75c-0.634-0.866-1.584-2.733-2.851-5.6c0.834-0.034,2.4,0.066,4.7,0.3
		c1.833,0,2.934-0.05,3.3-0.15c0.601-0.133,1.134-0.533,1.601-1.2c1.466-3.066,3.733-6.733,6.8-11c1.666-2.3,2.767-5.466,3.3-9.5
		c0.366-2.899,0.434-5.85,0.2-8.85c1.233,11.467,1.883,18.184,1.95,20.15L127,295.15z M131.25,130.05c5.2-0.267,8.05-0.566,8.55-0.9
		c1-0.733,1.25-3.316,0.75-7.75c1.134,0,2.117-0.5,2.95-1.5c0.8-1,1.2-2.217,1.2-3.65c2.066-0.433,3.283-2.433,3.649-6
		c-0.066-3.633-0.1-5.617-0.1-5.95c0.1-2.2,0.316-5.816,0.65-10.85c0.433-6.733,0.783-10.35,1.05-10.85l0.5-0.75
		c0.866,3.767,1.35,6.233,1.45,7.4l-0.2,3.85c-2.066,13.633-3.233,21.066-3.5,22.3l-0.351,4.55c0,0.333,0.034,1.833,0.101,4.5
		c0.066,2.833,0.066,5.066,0,6.7c-0.233,0.7-0.733,1.883-1.5,3.55c-0.767,1.667-1.283,2.867-1.55,3.6
		c-1.601,0.133-3.317,0.017-5.15-0.35c-2.3-0.4-4.2-1.117-5.7-2.15c0.101,0.333,0.4,0.983,0.9,1.95c0.467,0.867,0.783,1.4,0.95,1.6
		c-1.301,0-2.4-0.9-3.301-2.7C131.7,134.817,131.25,132.617,131.25,130.05z M115.1,138.35c-0.733-9.267-1.449-16.233-2.149-20.9
		c-1.033-6.367-2.084-13.167-3.15-20.4l-0.6-3.85c0.133-0.7,0.35-1.35,0.649-1.95c0.233-0.4,0.733-1.25,1.5-2.55
		c0.801,0.333,1.5,0.5,2.101,0.5c2,0,3.467-0.534,4.399-1.6c0.867-0.967,1.5-2.667,1.9-5.1c0.7-7.967,1.684-15.467,2.95-22.5
		l-0.101-2.9v1.3c-0.533-8.833-0.983-18.217-1.35-28.15c0.3-2.033,0.517-4.133,0.65-6.3c0.1,3.333,0.25,8.216,0.449,14.65
		c0.167,6.133,0.25,12.3,0.25,18.5c0.867-7.267,2.2-14.917,4-22.95c-0.033,2.633-0.399,8.767-1.1,18.4c-0.667,9.3-1,14.817-1,16.55
		c0,2.833,0.134,8.183,0.4,16.05c0,8.3-1.601,15.233-4.801,20.8c-2.166,3.733-3.283,5.667-3.35,5.8c-1,2.2-1.5,4.533-1.5,7
		c0,0.333,0.116,2.483,0.35,6.45c0.233,5.3,0.367,11.45,0.4,18.45L115.1,138.35z M143.75,159.1l0.4,15v1.4
		c-3.067-0.9-5.184-2.65-6.351-5.25c-0.767-1.7-1.233-4.233-1.399-7.6c-0.167-3.6-0.417-5.9-0.75-6.9c-0.7-2-2.2-3-4.5-3
		c-0.5,0.133-0.95,0.3-1.351,0.5c0.033-0.133,0.084-0.25,0.15-0.35l-4.5,3.9c0.366-0.867,0.616-4.316,0.75-10.35
		c0.133-6.6,0.7-11.9,1.7-15.9c0.033,1.833-0.067,4.367-0.301,7.6c0,2.033,0.483,3.434,1.45,4.2c2.467,2,4,3.333,4.601,4
		c1.166,1.367,2.166,3.9,3,7.6c1.133,5,2.133,8.617,3,10.85l0.75,1.3C142.566,161.533,143.684,159.2,143.75,159.1z M112.4,18
		c0.166-0.3,0.533-0.833,1.1-1.6c0.5-0.7,0.8-1.1,0.9-1.2l0.85-1.05c-0.333,0.867-0.85,3.333-1.55,7.4
		c0,0.167,0.083,1.817,0.25,4.95c0.166,3.1,0.25,5.233,0.25,6.4c-0.167-0.5-0.5-2.967-1-7.4C112.7,21.233,112.434,18.733,112.4,18z
		 M103.65,91.95l3.949-7.9l0.15,5.6L103.65,91.95z M101.3,95.35l-0.15,0.75c-3.8-3.2-6.65-15.35-8.55-36.45l0.6,31.05
		c-0.567-2.034-0.934-3.4-1.1-4.1c-0.3-1.1-0.567-3.467-0.8-7.1v-38c0.034,1.533,0.267,3.633,0.7,6.3c0.433,2.6,0.85,4.65,1.25,6.15
		C93.417,63.283,94,70.133,95,74.5c0.6,2.567,1.6,5.467,3,8.7c0.267,2.466,0.85,5.1,1.75,7.9
		C100.317,92.933,100.833,94.35,101.3,95.35z M110.8,59.25l0.15,0.6c0.333,1.167,1.184,4.917,2.55,11.25
		c0,9.533-1.566,15.433-4.7,17.7l-0.6-6c0.8-1.667,1.5-3.383,2.1-5.15l0.45-1.55l-0.1,3.25c0.466-8.733,0.699-13.383,0.699-13.95
		c-0.199-1.233-0.433-3.433-0.699-6.6L110.8,59.25z M81.95,140.8c-0.767,0.067-1.8-0.066-3.1-0.4l-0.5-5.7L81.95,140.8z
		 M109.35,164.55l0.15,1.7c0,1.067-0.217,1.85-0.65,2.35c-0.699,0.633-1.333,1.316-1.899,2.05
		C107.717,168.05,108.517,166.017,109.35,164.55z M61.85,73.7L60.9,60.45l-0.1-2.2l0.1,10.65c-0.3-1.833-2.2-10.35-5.7-25.55
		C51.667,28.083,49.7,19.967,49.3,19V5.95l6.7,0.5c-0.467,1.5-1.283,2.883-2.45,4.15C52.517,11.667,52,12.45,52,12.95
		s1.05,4.167,3.15,11c2.167,7.066,3.35,11.767,3.55,14.1c0.167,1.833,0.683,6,1.55,12.5C60.683,53.783,61.217,61.5,61.85,73.7z
		 M24,5.1c-0.567,1.133-0.783,3.117-0.65,5.95c0.133,2.2,0.35,6.017,0.65,11.45c0,0.6-0.067,2.417-0.2,5.45
		c-0.167,3.3-0.3,5.667-0.4,7.1l-0.2,1.35c-0.733-1.267-1.583-3.283-2.55-6.05c-1.267-3.467-2.117-6.567-2.55-9.3
		c-0.567-2.6-0.934-5.25-1.1-7.95c-0.233-4.067-0.033-6.483,0.6-7.25c0.6-0.7,2.717-1.217,6.35-1.55c0.2,0,0.417-0.017,0.65-0.05
		C24.367,4.45,24.167,4.733,24,5.1z M57.55,144.25c2.9,0,5.034-0.15,6.4-0.45c1.767-0.4,3.25-1.2,4.45-2.4
		c0.633,0.667,1.184,1.083,1.65,1.25c0.5-0.566,0.75-1.517,0.75-2.85c-0.133-1.8-0.216-3.283-0.25-4.45l0.1,0.2L70.6,119.8
		c0.566,4.5,1.066,7.717,1.5,9.65c0.367,1.5,1.217,4.95,2.55,10.35c-2.6,4.6-5.367,7.667-8.3,9.2c-3.434,1.767-8.934,2.65-16.5,2.65
		c-4.733,0-7.917-0.316-9.55-0.95c-1.333-0.5-2.316-1.567-2.95-3.2c0.133,0.1,0.5,0.317,1.1,0.65c0.667,0.367,1.117,0.6,1.35,0.7
		c0.167-2.2,1.534-3.3,4.1-3.3c0.767,0,1.9,0.184,3.4,0.55c1.534,0.333,2.967,0.5,4.3,0.5c1.367,0,2.633-0.317,3.8-0.95
		C56.033,145.317,56.75,144.85,57.55,144.25z M49.35,136.45c-0.934,1.833-1.95,2.733-3.05,2.7c-1.267,0-3.933-1.15-8-3.45
		c-5.066-2.867-7.867-5.784-8.4-8.75c1.2,0.7,2.367,1.05,3.5,1.05c3.4,0,5.833-0.25,7.3-0.75c0.7-0.233,1.566-0.783,2.6-1.65
		c1.867-1.6,6.55-2.4,14.05-2.4c1.867,0,3.183-1.45,3.95-4.35c1.034-4.067,1.633-6.217,1.8-6.45l0.4,10.75
		c0,3.633-0.35,6.15-1.05,7.55c-0.567,1.1-1.55,1.716-2.95,1.85c-1.767-0.033-3.183,0.05-4.25,0.25c-1.933,0.3-3.667,1.2-5.2,2.7
		l-0.7-0.4V136.45z M64.5,134l-0.2,5.05l-1.5-0.1l-0.05-2.3c0-0.4,0.183-1.483,0.55-3.25l0.1,0.75L64.5,134z M124.7,162.4
		c0,1.434-0.584,2.667-1.75,3.7c-1.167,1.033-2.584,1.55-4.25,1.55C121,167.15,123,165.4,124.7,162.4z M111.65,209.7
		c0,1.5-0.601,3.133-1.801,4.9c-1.6,2.333-2.517,3.883-2.75,4.65c-0.466,1.467-0.683,3.684-0.649,6.65
		c0.033,3.466,0.033,5.316,0,5.55c-0.601-2.9-1.834-7.634-3.7-14.2c-0.933-3.2-1.4-7.217-1.4-12.05c0-0.467,0.816-4.017,2.45-10.65
		c1.767-7.267,3.033-11.5,3.8-12.7c0.2,0.333,0.834,1.733,1.9,4.2c1.033,2.467,1.583,3.8,1.65,4c0,0.067,0.017,0.2,0.05,0.4v0.7
		c0.033,1.033,0.083,2.783,0.149,5.25l0.301,13.05c0,0.033,0,0.083,0,0.15V209.7z M100.55,255.75l-0.75,1.75
		c-0.767,0.967-1.633,2.233-2.6,3.8c-0.833,1.134-1.767,1.7-2.8,1.7c-1.833,0-3.267-1.25-4.3-3.75c-0.867-2.1-1.3-4.583-1.3-7.45
		l0.1-4.8c0.667-1,1.417-2.05,2.25-3.15c1.667-2.1,3.583-4.1,5.75-6c0.133,0.367,0.567,1.117,1.3,2.25
		c0.833,1.267,1.417,1.983,1.75,2.15l0.65-1.95C100.633,249.733,100.617,254.884,100.55,255.75z M108.8,248.3
		c-0.1-1.8-0.383-4.267-0.85-7.399c1.267,0,2.35-0.584,3.25-1.75c0.899-1.2,1.35-2.65,1.35-4.351c0.3,0.267,0.8,0.483,1.5,0.65
		c0.634,0.2,1.134,0.267,1.5,0.2c0,1.333,0.783,2.483,2.351,3.449c1.566,0.934,3.466,1.4,5.699,1.4l3.301,29.55l-3.601-11.8l0.9,8.4
		c-3.434,4.033-6.134,6.933-8.101,8.699c-3.466,3.167-6.816,4.5-10.05,4c2.334-0.533,4.117-2.233,5.351-5.1
		c1.267-3,2.149-7.75,2.649-14.25c0.934,0.366,2.066,1.65,3.4,3.85c1.1,1.834,1.717,3.084,1.85,3.75v0.5
		c0.101-1.333,0.217-3.483,0.351-6.449c0.133-2.667,0.199-4.317,0.199-4.95c0-0.834-0.233-2.184-0.699-4.05
		c-0.434-1.9-0.834-3.15-1.2-3.75L108.8,248.3z M142.6,277.95l-0.649,1.149V273.2c0.166-7.934,0.25-15.584,0.25-22.95l0.399,0.3
		l0.051,25.7L142.6,277.95z M96.05,234.9l0.8,2.8c-0.667,0.233-1.8,0.383-3.4,0.45c-0.4,0-1.8,0-4.2,0l-0.05-1.45
		c0.633-0.5,1.533-0.967,2.7-1.4C93.5,234.7,94.883,234.566,96.05,234.9z M130.05,294.1c0.066-4.3-0.1-8.466-0.5-12.5l0.4-8.5
		l1.3,21.2C130.85,294.3,130.45,294.233,130.05,294.1z"/>
	<path style="fill-rule:evenodd;clip-rule:evenodd;fill:#B3AA9E;" d="M144.7,116.25c0,1.433-0.4,2.65-1.2,3.65
		c-0.833,1-1.816,1.5-2.95,1.5c-2.633-0.633-4.283-1.45-4.95-2.45c-1.033-1.5-1.399-4.6-1.1-9.3c0.3-2.967,0.434-5,0.4-6.1
		c-0.034-1.466-0.534-3.767-1.5-6.9c0.466-5.033,0.883-11.433,1.25-19.2c0.433-9.8,0.5-17.184,0.199-22.15
		c0.334-1.5,0.634-2.683,0.9-3.55l0.3-0.9c1.033-3.533,2.017-7.65,2.95-12.35c1.1-5.533,1.65-9.7,1.65-12.5l-0.101-2.3
		c-1,0.267-1.934-0.2-2.8-1.4c-0.7-0.966-1.083-1.883-1.15-2.75l9.601-5.65l3.399-2l1.7-1l0.15,10.35c0.133,4.4,0.2,8.867,0.2,13.4
		c0,8.7-0.767,17.934-2.301,27.7c-1.566,9.767-2.35,22.433-2.35,38c0,1.8-0.134,3.55-0.4,5.25
		C146.434,106.733,145.8,110.283,144.7,116.25z M157.15,44.5c0.3,1.533,0.449,3.6,0.449,6.2c0,0.667-0.1,1.816-0.3,3.45
		c-0.233,1.9-0.467,3.25-0.7,4.05l-0.35,0.75c-0.167-1.167-0.267-3.8-0.3-7.9c-0.033-2.367-0.033-9.75,0-22.15
		C156.35,37.067,156.75,42.267,157.15,44.5z M98,83.2c-1.4-3.233-2.4-6.133-3-8.7c-1-4.367-1.583-11.217-1.75-20.55L93.3,9.4
		l1.8,0.1c-0.5,2.867-0.6,7.533-0.3,14c0.2,5.067,0.55,9.783,1.05,14.15c0.433,3.9,0.667,7.817,0.7,11.75
		c0.367,3.633,1.833,9.367,4.4,17.2c-0.3,6.367-0.5,11.033-0.6,14c-0.133,0.9-0.717,1.95-1.75,3.15L98,83.2z M86.75,24.75l0.7,6.95
		c0.333,7,0.716,21.783,1.15,44.35c0.367,19.1,0.633,36.833,0.8,53.2c-1.867-1.433-3.917-10.15-6.15-26.15
		c-1.9-16.067-2.9-24.434-3-25.1L80,76.85l-1.4,13.7c-0.067-18.533-0.1-28.133-0.1-28.8c0-1.267,0.05-2.433,0.15-3.5l0.1-0.95
		c0.733,1.7,1.267,4.717,1.6,9.05c0.4,5.4,0.883,9.467,1.45,12.2l0.35,1.75c0.1-0.267,0.35-6.216,0.75-17.85
		c0.4-11.467,0.6-18.15,0.6-20.05c0-5.633-0.167-9.917-0.5-12.85c-0.767-6.3-1.3-11.35-1.6-15.15l-0.15-2.1
		c0.433,2.4,0.85,5.217,1.25,8.45c0.533,3.3,1.483,7.783,2.85,13.45L86,35.45c0.567-0.5,0.833-1.583,0.8-3.25
		C86.7,28.433,86.683,25.95,86.75,24.75z M78.35,134.7l0.5,5.7c0.5,4.133,0.75,6.6,0.75,7.4c0,1.3-0.15,2.55-0.45,3.75l-0.65-0.85
		l-0.25-17.2L78.35,134.7z M80,163.55c0.1,9.2,0.567,15.483,1.4,18.85c0.533,1.967,1.4,4.383,2.6,7.25l-0.05,0.6
		c-0.467,0.133-1,0.033-1.6-0.3l-3.15-3.25c-2.467-2.667-4.367-7.083-5.7-13.25c-1.033-4.867-1.55-9.717-1.55-14.55
		c0-0.667,1.017-7.117,3.05-19.35l-0.2,1l-0.15-0.75c-1.333-5.4-2.183-8.85-2.55-10.35c-0.434-1.934-0.934-5.15-1.5-9.65l0.05,15.75
		l-0.1-0.2c-0.1-0.4-0.45-2-1.05-4.8c-0.633-2.833-0.95-4.35-0.95-4.55l-0.3-5.8c0-5.367-0.067-9.083-0.2-11.15l-0.2-3.4
		c-0.1-2.367-0.533-7.783-1.3-16.25c-0.833-9.566-1.283-14.7-1.35-15.4c-0.733-15.667-1.133-27.617-1.2-35.85
		c0.067-9.2,0.05-18.066-0.05-26.6c0-0.566,0.083-1.017,0.25-1.35c0.167-0.4,0.216-0.4,0.15,0l-0.4,1.35
		c1.4,12.333,2.233,22.75,2.5,31.25c0.2,6.167,0.316,21.967,0.35,47.4l2.9-0.05c1.867,0,3.033,1.283,3.5,3.85
		c0.3,1.6,0.417,5.383,0.35,11.35c-0.2,16.2,1.184,30.85,4.15,43.95c-0.267-0.566-0.434-0.966-0.5-1.2L80,163.55z M49.3,19
		c0.167,19.8,0.467,36.95,0.9,51.45c0.367,12.833,0.55,21.583,0.55,26.25c0,2.033-0.017,3.95-0.05,5.75
		c-0.067-1.7-0.483-4.35-1.25-7.95c-1-4.767-1.5-7.3-1.5-7.6c-0.067-38.566-0.1-58.183-0.1-58.85l0.35-22.2l1.1,0.1V19z M31,4.55
		L24.6,8.9c1.267,2.1,1.85,5.434,1.75,10c-0.033,2.7-0.2,7.117-0.5,13.25c0,3.2,0.3,5.867,0.9,8c0.833,3.033,1.517,7.533,2.05,13.5
		c-0.867-2.667-1.683-5.65-2.45-8.95c-1.533-6.567-2.167-12.133-1.9-16.7c0.167-4.467,0.017-12.1-0.45-22.9
		c0.167-0.367,0.367-0.65,0.6-0.85c-0.233,0.033-0.45,0.05-0.65,0.05c0-0.033,0-0.066,0-0.1l1.95,0.05
		C27.533,4.317,29.233,4.417,31,4.55z M15.7,24.35c0.267,3.767,0.55,10.783,0.85,21.05l0.1,2.1c-0.5-2.9-1.383-6.067-2.65-9.5
		c-1.533-3.967-2.7-7.05-3.5-9.25c-3-8.267-4.75-17-5.25-26.2L13,3.15C14.3,10.217,15.2,17.283,15.7,24.35z M33.95,31.25
		c1.333,12.5,2.433,21.117,3.3,25.85c0.7,3.767,2.2,10.5,4.5,20.2c1.433,6.667,3.667,15.35,6.7,26.05
		c1.933,6.8,2.9,11.816,2.9,15.05c0,0.667-0.067,1.283-0.2,1.85c-2.3-3.167-3.8-5.3-4.5-6.4c-1.1-1.7-2-3.9-2.7-6.6
		c-0.767-2.933-3.667-19.517-8.7-49.75c0.133,6.1,0.6,20.067,1.4,41.9v5.45c-1.8-8.367-3.167-14.783-4.1-19.25
		c-1.667-8.1-2.417-14.167-2.25-18.2l1.05,5.5l-0.3-7.35L31.7,31.9c0-1.9,0.117-4.017,0.35-6.35c0.367,0.367,0.717,0.85,1.05,1.45
		c0.333,0.667,0.517,1.217,0.55,1.65C33.75,29.517,33.85,30.383,33.95,31.25z M47.95,86.9v1.45l-0.55-3.4L47.95,86.9z M63.95,171.1
		c-0.3,1.2-1.2,4.967-2.7,11.3c-1.5,6.367-2.467,10.383-2.9,12.05L58,195.5l-0.2-8.2l0.8-26.7c0-0.833,0.45-1.833,1.35-3
		c1.433-1.867,4.55-5.217,9.35-10.05c0.434,7.4,0.633,15.483,0.6,24.25c-0.5,8.267-0.333,16.967,0.5,26.1
		c0.4,4.633,0.85,9.033,1.35,13.2c0,0.667-0.05,1.65-0.15,2.95c-0.067,0-0.184,0.15-0.35,0.45c-0.267,0.567-0.417,0.867-0.45,0.9
		c-0.233-0.7-1.066-2.65-2.5-5.85c-1.167-2.566-2.066-5.267-2.7-8.1c-0.233-1.034-0.533-5.65-0.9-13.85
		c-0.333-8.8-0.55-13.983-0.65-15.55L63.95,171.1z M57.95,152.9c-1.167,21.467-2,33.917-2.5,37.35c-0.467,3.2-1.1,5.4-1.9,6.6
		c-0.767,1.133-1.9,1.7-3.4,1.7c-2.2,0-4.117-1.417-5.75-4.25c-1.967-3.4-2.95-8.15-2.95-14.25c0-8.1,0.417-14.283,1.25-18.55
		c0.466-2.433,1.25-4.683,2.35-6.75c0.8-1.5,2.617-2.2,5.45-2.1C52.1,152.683,54.583,152.767,57.95,152.9z M88.9,247
		c-0.733,0.733-1.483,1.35-2.25,1.85c-0.533-1.066-0.816-1.649-0.85-1.75c-0.167-0.433-0.25-0.983-0.25-1.649
		c0-0.667,0.15-1.851,0.45-3.55c0.267-1.634,0.5-2.817,0.7-3.551l2.55-0.199c2.4,0,3.8,0,4.2,0c1.6-0.067,2.733-0.217,3.4-0.45
		l1.05-0.351l-1,0.5c-2.167,1.9-4.083,3.9-5.75,6C90.317,244.95,89.567,246,88.9,247z M106.05,279.35
		c-1.267,0.367-2.566,0.551-3.9,0.551c-0.566,0-1.483-0.117-2.75-0.351c-1.7-0.3-2.933-0.7-3.7-1.2
		c2.033-0.199,4.233-0.916,6.6-2.149c2-1.066,3.316-2,3.95-2.8c1.4-0.867,2.316-2.084,2.75-3.65c0.233-0.8,0.35-1.967,0.35-3.5
		c0-1.1-0.133-3.1-0.399-6c-0.4-4.167-0.733-8.167-1-12l0.85,0.05l9.15,0.601c0.366,0.6,0.767,1.85,1.2,3.75
		c0.466,1.866,0.699,3.216,0.699,4.05c0,0.633-0.066,2.283-0.199,4.95c-0.134,2.966-0.25,5.116-0.351,6.449v-0.5
		c-0.133-0.666-0.75-1.916-1.85-3.75c-1.334-2.199-2.467-3.483-3.4-3.85c-0.5,6.5-1.383,11.25-2.649,14.25
		C110.167,277.116,108.384,278.816,106.05,279.35z M129.9,265.55l-0.2,0.15l-0.15,0.149L129.3,266l-0.25-6.4
		c-0.233-6.366-0.383-9.716-0.45-10.05l0.25-0.05h0.101l6.35-1.15h0.05c-0.066,1.767-0.666,4.634-1.8,8.601
		C132.283,261.35,131.066,264.217,129.9,265.55z"/>
	<path style="fill-rule:evenodd;clip-rule:evenodd;fill:#C3B9AC;" d="M64.35,10.2l0.85-3.05l20.5,1.6l1,0.1l0.05,15.3v0.6
		c-0.067,1.2-0.05,3.683,0.05,7.45c0.034,1.667-0.233,2.75-0.8,3.25l-0.65-1.25c-1.367-5.667-2.317-10.15-2.85-13.45
		c-0.4-3.233-0.817-6.05-1.25-8.45l0.15,2.1c0.3,3.8,0.833,8.85,1.6,15.15c0.333,2.934,0.5,7.217,0.5,12.85
		c0,1.9-0.2,8.583-0.6,20.05c-0.4,11.633-0.65,17.583-0.75,17.85l-0.35-1.75c-0.566-2.733-1.05-6.8-1.45-12.2
		c-0.333-4.333-0.867-7.35-1.6-9.05l-0.1,0.95c-0.1,1.067-0.15,2.233-0.15,3.5c0,0.667,0.033,10.267,0.1,28.8
		c0,8.034-0.117,22.35-0.35,42.95l0.25,17.2l0.15,4.35c-0.1-1.367-0.417-3.283-0.95-5.75c-2.967-13.1-4.35-27.75-4.15-43.95
		C73.617,99.383,73.5,95.6,73.2,94c-0.467-2.567-1.633-3.85-3.5-3.85l-2.9,0.05c-0.033-25.434-0.15-41.233-0.35-47.4
		c-0.267-8.5-1.1-18.917-2.5-31.25L64.35,10.2z M100.95,66.6c-2.567-7.833-4.034-13.567-4.4-17.2c-0.033-3.933-0.267-7.85-0.7-11.75
		c-0.5-4.367-0.85-9.083-1.05-14.15c-0.3-6.467-0.2-11.133,0.3-14l4.15,0.1c2-0.133,3.15-0.517,3.45-1.15l-0.15,7.35
		c-0.2,17.333-0.617,34.534-1.25,51.6L100.95,66.6z M134.35,43.9c0.267,3.267,0.434,6.767,0.5,10.5v0.9
		c0.301,4.967,0.233,12.35-0.199,22.15c-0.367,7.767-0.784,14.167-1.25,19.2c-0.7,6.934-1.284,12.867-1.75,17.8
		c-0.167,1.066-0.384,1.716-0.65,1.95c-0.134,0.133-0.517,0.2-1.15,0.2c-0.933,0-1.666-1.267-2.199-3.8
		c-0.4-1.833-0.601-3.466-0.601-4.9c0.134-4.867,0.217-11.2,0.25-19l6.65-50L134.35,43.9z M80,163.55
		c0.467-5.033,1.117-12.617,1.95-22.75c0.4-5.133,0.85-10.883,1.35-17.25c-0.466,13.934,0.3,30.35,2.3,49.25
		c1.033,9.534,2.133,18.2,3.3,26l-0.2,1.55l-0.2,0.55c-1.367-3.633-2.867-7.383-4.5-11.25c-1.2-2.867-2.067-5.283-2.6-7.25
		C80.567,179.033,80.1,172.75,80,163.55z M102,143.95l0.5-9.6l1.1-21.8l0.351-7v7.7c0.033,31.8,0.083,48.917,0.149,51.35
		c0,0.633-0.1,1.383-0.3,2.25c-0.533-0.9-1-2.033-1.4-3.4c-0.667-2.167-1-4.5-1-7C101.767,149.95,101.967,145.783,102,143.95z
		 M30.3,67.4c-0.667-4.767-1.167-9.35-1.5-13.75c-0.533-5.967-1.216-10.467-2.05-13.5c-0.6-2.133-0.9-4.8-0.9-8
		c0.3-6.133,0.467-10.55,0.5-13.25c0.1-4.566-0.483-7.9-1.75-10L31,4.55l17.2,1.3l-0.35,22.2c0,0.667,0.033,20.284,0.1,58.85
		l-0.55-1.95c-2.167-3.333-4.5-10.65-7-21.95c-2.1-10.767-3.183-16.283-3.25-16.55c-0.1-0.434-0.917-4.2-2.45-11.3
		c-0.333-1.566-0.583-2.867-0.75-3.9c-0.1-0.867-0.2-1.733-0.3-2.6c-0.033-0.433-0.217-0.983-0.55-1.65
		c-0.333-0.6-0.684-1.083-1.05-1.45C31.817,27.883,31.7,30,31.7,31.9l-0.65,33.65l0.3,7.35L30.3,67.4z"/>
</g>
</svg>
