<?xml version="1.0" encoding="iso-8859-1"?>
<!-- Generator: Adobe Illustrator 15.1.0, SVG Export Plug-In . SVG Version: 6.00 Build 0)  -->
<!DOCTYPE svg PUBLIC "-//W3C//DTD SVG 1.1//EN" "http://www.w3.org/Graphics/SVG/1.1/DTD/svg11.dtd">
<svg version="1.1" id="Layer_1" xmlns="http://www.w3.org/2000/svg" xmlns:xlink="http://www.w3.org/1999/xlink" x="0px" y="0px"
	 width="185.35px" height="163.55px" viewBox="0 0 185.35 163.55" style="enable-background:new 0 0 185.35 163.55;"
	 xml:space="preserve">
<g>
	<path style="fill-rule:evenodd;clip-rule:evenodd;fill:#B3AA9E;" d="M66.35,45.45l-0.9-0.1l0.2-0.35
		c0.434-0.467,1.417-0.783,2.95-0.95c1.667-0.066,2.75-0.133,3.25-0.2c-0.7-0.467-1.733-0.633-3.1-0.5c-1.1,0.1-2.167,0.35-3.2,0.75
		c-0.867,0.367-1.417,0.566-1.65,0.6c-0.333,0.033-0.9-0.05-1.7-0.25h-0.05L60.55,43c-0.167-0.2-0.55-0.767-1.15-1.7
		c-0.4-0.6-0.917-1.033-1.55-1.3c-1.2-0.533-3.133-1.283-5.8-2.25c-2.6-0.967-4.55-1.733-5.85-2.3
		c-2.133-0.934-3.233-1.417-3.3-1.45c-0.9-0.633-1.333-1.633-1.3-3c0-1.867,0.65-3.383,1.95-4.55c1.1-0.767,1.883-1.333,2.35-1.7
		c0.767-0.667,1.267-1.517,1.5-2.55c0.1-0.5,0.1-1.434,0-2.8c-0.1-1.167-0.017-2.05,0.25-2.65c0.7-1.533,2.383-2.467,5.05-2.8
		c1.167-0.133,3.2-0.133,6.1,0c3.267,0.267,5.717,0.433,7.35,0.5c2.867,0.133,5.3-0.017,7.3-0.45c1.8-0.5,3.066-0.833,3.8-1
		c1.2-0.3,2.45-0.3,3.75,0c0.5,0.133,4.317,1.083,11.45,2.85c1.3,1.1,2.649,2.066,4.05,2.9c1.733,1.067,3.866,2.117,6.4,3.15
		l0.149,0.05c1.233,0.767,2.5,1.417,3.8,1.95c1,0.4,1.534,0.617,1.601,0.65l-0.8-0.3l2.85,1.45c1.634,0.867,3.684,2.167,6.15,3.9
		l7.85,6.6c0.267,0.767,0.384,1.5,0.35,2.2c-0.399,0.167-1.366,0.283-2.899,0.35c-1.3,0.033-2.167,0.267-2.601,0.7
		c-0.399,0.367-0.55,1-0.449,1.9c0.133,1.1,0.133,1.8,0,2.1c-0.4,0.867-1.284,1.5-2.65,1.9c-0.733,0.233-1.833,0.483-3.3,0.75
		c-1.167,0.333-1.834,0.733-2,1.2c-0.634,0.1-1.084,0.317-1.351,0.65c-0.3,0.367-0.449,0.9-0.449,1.6
		c-0.034,0.367-0.051,0.95-0.051,1.75l-0.649,0.15H108.1c-5.666-0.1-10.483,0.716-14.449,2.45c1.767,0.267,5.366,0.517,10.8,0.75
		c4.633,0.167,8.233,0.583,10.8,1.25c0.366,0.7,0.934,1.184,1.7,1.45c0.8,0.3,1.483,0.217,2.05-0.25c-1.2-0.5-2.45-0.9-3.75-1.2
		c-0.3-0.633-0.35-1.25-0.15-1.85c1.101,0.067,1.884,0.05,2.351-0.05c0.6-0.133,1.149-0.45,1.649-0.95
		c0.567-0.6,1.017-0.966,1.351-1.1c0.833-0.333,1.816-0.383,2.95-0.15c0.933,0.233,1.767,0.583,2.5,1.05
		c0.333,0.2,0.767,0.566,1.3,1.1c0.5,0.433,1,0.583,1.5,0.45l0.05-2.35c1-0.167,2.167-0.283,3.5-0.35c-1.866,0.633-2.533,1.6-2,2.9
		c0.4,0.967,1.816,1.5,4.25,1.6c2.667-0.067,4.283-0.117,4.85-0.15c1.034-0.033,1.867-0.267,2.5-0.7c1.2-0.833,1.9-1.3,2.101-1.4
		l-1-2c-0.4-0.267-1.217-0.483-2.45-0.65c-1.233-0.167-2.533-0.233-3.9-0.2c1.7-0.667,2.667-2.2,2.9-4.6
		c0.134-1.033,0.233-2.633,0.3-4.8c0.934-0.167,1.834-0.4,2.7-0.7c0.533,0.233,7.366,1.217,20.5,2.95
		c3.533,0.867,5.717,1.667,6.55,2.4c0.533,0.5,2.767,1.033,6.7,1.6c0.5,0.066,1.483,0.883,2.95,2.45
		c1.399,1.5,2.366,2.233,2.899,2.2l3.2,2.55c0.134,3.067-0.149,6.8-0.85,11.2c-0.667,4.3-1.417,7.117-2.25,8.45
		c-0.033,0.067-0.066,0.117-0.101,0.15c-1,1.533-2.55,3.3-4.649,5.3c-0.566,0.533-1.15,1.067-1.75,1.6
		c-1.334,1.167-2.617,2.183-3.851,3.05c-0.5,0.333-0.983,0.649-1.449,0.949c-1.334,0.801-2.601,1.434-3.801,1.9
		c-0.199,0.066-0.416,0.134-0.649,0.2c-0.066,0-0.117,0.017-0.15,0.05c-0.2,0.066-0.383,0.116-0.55,0.15
		c-0.267,0.066-0.533,0.133-0.8,0.199c-1.467,0.301-3.134,0.483-5,0.551c-0.767,0-1.566-0.017-2.4-0.051c-0.3,0-0.583,0-0.85,0
		c-0.334-0.033-0.65-0.066-0.95-0.1h-0.05c-0.467-0.033-3.233-0.35-8.3-0.95c-0.434-0.066-0.867-0.116-1.301-0.149
		c-0.166-0.034-0.316-0.051-0.449-0.051c-0.601-0.1-1.2-0.183-1.801-0.25c-0.466-0.033-0.933-0.083-1.399-0.149
		c-0.634-0.101-1.283-0.184-1.95-0.25c-1.267-0.167-2.55-0.384-3.85-0.65c-0.2-0.033-0.4-0.066-0.601-0.1
		c-0.533-0.167-1.083-0.316-1.649-0.45c-0.233-0.066-0.467-0.134-0.7-0.2c-1.066-0.3-2.134-0.633-3.2-1
		c-0.2-0.434-0.25-0.967-0.15-1.6l0.25-1.35l0.7-0.25c0.066,0,1.634-0.283,4.7-0.85c2.066-0.333,3.533-0.817,4.4-1.45
		c1.033-0.733,1.816-1.983,2.35-3.75c0.5-2.066,0.9-3.566,1.2-4.5c1-3.033,1.85-5.367,2.55-7c1.934-0.8,3.25-1.966,3.95-3.5
		c0.233-0.5,0.483-1.466,0.75-2.9c0.233-1.267,0.55-2.183,0.95-2.75c-2.167,2.233-4.051,5.283-5.65,9.15
		c-0.333,0.133-1.134,0.4-2.4,0.8c-1,0.3-1.8,0.6-2.399,0.9c-0.8,0.367-1.884,1.067-3.25,2.1c-1.467,0.967-3.584,1.467-6.351,1.5
		c-3.566,0.1-5.8,0.25-6.699,0.45c-0.033,0.233-0.05,0.583-0.051,1.05c-0.001-0.033-0.018-0.05-0.05-0.05
		c-0.033,0-0.05-0.017-0.05-0.05l-0.3-0.2c-0.101-0.033-0.316-0.133-0.65-0.3c-0.399-0.2-0.916-0.45-1.55-0.75
		c-0.9-0.4-1.566-0.8-2-1.2c-0.134-0.1-0.233-0.216-0.3-0.35l-5.65-1.45c-4.3-1.167-7.166-1.9-8.6-2.2
		c-2.533-0.466-4.783-0.633-6.75-0.5c-0.967-0.667-1.767-1.2-2.4-1.6c-1.733-1.133-3.899-2.133-6.5-3c-1.4-0.467-3.7-1.117-6.9-1.95
		c-0.167-0.033-0.65-0.217-1.45-0.55c-0.7-0.267-1.25-0.417-1.65-0.45c0.667-0.133,1.167-0.267,1.5-0.4
		c1.034-0.467,1.733-1.117,2.1-1.95c0.2-0.533,0.383-1.566,0.55-3.1l0.15-3c0.867-0.466,2.283-1.017,4.25-1.65
		c1.9-0.667,3.2-1.183,3.9-1.55c1.167-0.633,2.05-1.1,2.65-1.4c1-0.5,1.916-0.867,2.75-1.1c1.633-0.267,2.833-0.533,3.6-0.8
		c1.033,0,2.1-0.05,3.2-0.15c0.133-0.8,0.184-1.867,0.149-3.2c-0.066-1.467-0.1-2.55-0.1-3.25l-4.4-2.5
		c0.167,0.3,0.517,0.917,1.051,1.85c0.466,0.934,0.683,1.684,0.649,2.25l-4.649,0.4c-1.067,0-2.351-0.117-3.851-0.35
		c-0.8-0.133-2-0.333-3.6-0.6c0.667,0.133,2.017,0.583,4.05,1.35l-3.55,0.1c-0.434,0.033-1.1,0.05-2,0.05
		c-0.733,0.067-1.35,0.267-1.85,0.6c-0.333,0.2-0.783,0.667-1.35,1.4c-0.533,0.667-1.05,1.133-1.55,1.4
		c-1.2,0.6-3.317,1.317-6.35,2.15c-2.767,0.767-4.867,1.583-6.3,2.45l-0.15,0.1c-1.167-0.067-1.95-0.1-2.35-0.1
		C67.683,45.033,66.95,45.183,66.35,45.45z M79.85,102.9c-0.533-0.2-1.05-0.434-1.55-0.7l-0.05-46.05c0.6,3.8,0.95,6.167,1.05,7.1
		c0.233,1.833,0.383,3.567,0.45,5.2c-0.067-5.067-0.1-9.1-0.1-12.1l1.1,0.6c1.1,0.566,2.783,1.633,5.05,3.2
		c-0.133,2.2-0.267,4.45-0.4,6.75c-0.467,8.1-1.233,20.234-2.3,36.4c-0.133,0-0.267,0-0.4,0L79.85,102.9z M62.9,47.05
		c-0.2-0.066-0.4-0.133-0.6-0.2c-0.1,0.633-0.167,1.316-0.2,2.05c-0.067,2.033,0,5.067,0.2,9.1c0,2.5,0.083,4.35,0.25,5.55
		c0.3,2,0.9,3.667,1.8,5c0.333-0.033,0.583,0.133,0.75,0.5l0.45,2.05c0.267,5.433,0.284,10.533,0.05,15.3l-0.2,5.1
		c-1.367-0.767-2.316-1.2-2.85-1.3c-0.4-0.101-0.767-0.101-1.1,0l-1.3,1.1c-0.167,0.334-0.2,0.934-0.1,1.8
		c0.1,0.834,0.034,1.45-0.2,1.851c-0.1,0.166-0.233,0.333-0.4,0.5c-0.167,0.133-0.35,0.25-0.55,0.35l-0.65-4.6
		c-0.967-6.566-1.583-10.983-1.85-13.25c-0.633-4.967-1.066-9.4-1.3-13.3c0.1-3.5,0.167-6.117,0.2-7.85
		c0.067-3.066,0.034-5.683-0.1-7.85c0.066-1.333,0.133-2.633,0.2-3.9C57.7,45.317,60.2,45.983,62.9,47.05z M19.75,2.7
		c-0.333,0.167-0.633,0.333-0.9,0.5c-0.333,0.233-0.65,0.466-0.95,0.7C18.4,3.433,19.017,3.033,19.75,2.7z M182.6,55.45l-4.899-1
		c-0.334,0.333-0.566,0.683-0.7,1.05c0.533,0.567,1.434,0.917,2.7,1.05c1.066,0.1,2.066,0.05,3-0.15L182.6,55.45z M166.8,58.85
		c2.667,0.433,4.717,0.483,6.15,0.15h0.45v-0.1l0.949-0.35l-0.05-2.1l-2.95-2c-0.767,0.433-1.966,0.667-3.6,0.7
		c-0.9,0-2.1-0.05-3.6-0.15c-0.2,0-1.434-0.1-3.7-0.3c-2.267-0.133-3.65-0.083-4.15,0.15c0.767,1.033,2.25,1.867,4.45,2.5l1.6,0.5
		l-0.199,0.1C163.616,58.35,165.167,58.65,166.8,58.85z M178.4,61.15c-0.4,0.434-0.483,0.9-0.25,1.4
		c0.399,0.733,1.083,0.867,2.05,0.4c0.967-0.434,1.283-1.1,0.95-2l-1.5-0.5C179.184,60.483,178.767,60.717,178.4,61.15z
		 M163.35,49.75c-1.166,0.033-1.8,0.417-1.899,1.15c1.267,1.833,3.75,2.517,7.45,2.05l-2.95-3
		C165.583,49.95,164.717,49.883,163.35,49.75z M170.45,66.35c0.8,0.233,1.366,0.433,1.7,0.6c-0.567,1.233-2.834,1.816-6.801,1.75
		c-3.933-0.1-6.05-0.867-6.35-2.3c0.434,2.4,2.7,3.917,6.8,4.55c2.867,0.433,5.851,0.417,8.95-0.05c0.3-2.367-0.017-4.683-0.95-6.95
		l-2.95-0.5c-0.866,0.367-1.416,0.933-1.649,1.7C169.366,65.65,169.783,66.05,170.45,66.35z M168.9,65.45l-7.851-4
		c-1.066-0.067-2.1,0.15-3.1,0.65c-1.134,0.533-1.867,1.283-2.2,2.25c0.9,1.167,3.417,2.183,7.55,3.05
		C167.6,68.3,169.467,67.65,168.9,65.45z M178.2,66.45c-0.233,0.633-0.066,0.966,0.5,1L178.2,66.45z M150.3,47.95l-4.399-2
		c-0.767-0.167-1.45-0.017-2.051,0.45c0.067,1.067,0.95,1.65,2.65,1.75C148.467,48.017,149.733,47.95,150.3,47.95z M159.6,47.45
		c-0.666,0.233-0.75,0.667-0.25,1.3s1.067,0.867,1.7,0.7L159.6,47.45z M89.2,19.7c1.3,0.033,1.917-0.383,1.85-1.25h-3.9
		C87.183,19.25,87.867,19.667,89.2,19.7z M80.7,22.5c3.7-0.467,5.35-1.817,4.95-4.05l-5.35-3c-1.066-0.034-3.017,0.25-5.85,0.85
		c-0.467,0.1-2.45,0.4-5.95,0.9c-3.233,0.633-4.783,1.517-4.65,2.65c0.566,0.433,1.75,0.883,3.55,1.35
		c1.833,0.466,3.817,0.833,5.95,1.1c0.566,0.5,1.167,0.9,1.8,1.2l-1.8-0.05c0.7,0.133,2.633,0.583,5.8,1.35
		c2.367,0.567,4.3,0.934,5.8,1.1c1.333,0.133,2.117,0.217,2.35,0.25c1.2,0.067,1.967-0.017,2.3-0.25
		c0.8-0.533,1.183-1.583,1.15-3.15s-0.583-2.333-1.65-2.3l0.5,3.5c-0.333-0.2-0.783-0.367-1.35-0.5l0.35-0.5l-6.85-0.5L80.7,22.5z
		 M91.55,27.95c-0.6,0.533-1.617,0.9-3.05,1.1C87,29.283,86,29.6,85.5,30c0.7,0.667,2.233,0.967,4.6,0.9
		c2.466-0.033,3.6-0.683,3.4-1.95L91.55,27.95z M97.4,31.95l-3.4-0.5c-0.2,0.2-0.917,0.633-2.15,1.3c-1.067,0.667-1.5,1.25-1.3,1.75
		c0.2,0.533,1.25,0.783,3.15,0.75c0.467-0.033,1.684-0.133,3.649-0.3C97.384,34.617,97.4,33.617,97.4,31.95z M84.85,40.8l-1.65,0.3
		l0.65-0.15L84.85,40.8z M99.7,41l-15.05,4.35c0.067-0.333,0.167-0.65,0.3-0.95c0.767-0.167,3.183-0.767,7.25-1.8
		c2.934-0.733,5.383-1.267,7.35-1.6H99.7z M91.5,41.05c-0.6-0.167-1.4-0.283-2.4-0.35c0.967-0.4,2.45-0.833,4.45-1.3
		c1.566,0.8,3.45,1.317,5.65,1.55C97.5,41.017,94.934,41.05,91.5,41.05z M80.15,49.6l0.2,1.55L80.2,51.4L80.15,49.6z M99.35,48.95
		l3.45-4c-0.3,0.1-1.883,0.517-4.75,1.25c-2.666,0.833-3.934,1.617-3.8,2.35c0.6,0.367,1.434,0.534,2.5,0.5
		C97.95,48.983,98.816,48.95,99.35,48.95z M118.45,33.95l0.5-1c-0.533-0.034-1.667-0.2-3.4-0.5c-1.633-0.2-2.783-0.133-3.45,0.2
		c0.4,0.867,1.367,1.35,2.9,1.45C115.6,34.167,116.75,34.117,118.45,33.95z M109.4,41.65c1.3,0.033,2.683-0.2,4.149-0.7l-0.95-4
		c-1.1-0.133-2.166-0.034-3.199,0.3c-1.301,0.433-2.051,1.133-2.25,2.1C106.884,40.783,107.634,41.55,109.4,41.65z M100.8,85.55
		c0.4,0.167,0.816,0.3,1.25,0.4c-0.399,4-1,8.116-1.8,12.35c0,0.533-0.083,1.134-0.25,1.8c-0.333-1.233-0.833-2.816-1.5-4.75
		c-0.866-2.466-1.4-4.033-1.6-4.699v-5.9c0-0.467,0-0.934,0-1.4l3.199,1.9C100.3,85.35,100.533,85.45,100.8,85.55z M126.95,95.75
		c0,1.333,0.017,2.733,0.05,4.2c0,0.899,0,1.833,0,2.8c0,1.066,0,2.184,0,3.35c0,0.067,0,0.134,0,0.2v0.15
		c-0.2,1.8-0.483,3.483-0.85,5.05l-0.75-4.5c-0.267-1.967-0.75-4.583-1.45-7.85c-0.8-3.801-1.316-6.4-1.55-7.801
		c-0.134-0.8-0.25-1.583-0.351-2.35c0.134-0.066,0.25-0.116,0.351-0.15c0.399-0.233,0.767-0.449,1.1-0.649l0.95-0.65
		c1.066-0.833,1.916-1.934,2.55-3.3c-0.033,2.866-0.05,6.566-0.05,11.1V95.75z M133.15,58.95c-0.733,0-1.95-0.034-3.65-0.1
		c-1.533-0.033-2.767,0.033-3.7,0.2c0.134,1.067,1.351,1.717,3.65,1.95c0.6,0.033,2.166,0.017,4.7-0.05L133.15,58.95z M56.1,15.95
		c-0.867-0.034-1.583,0-2.15,0.1c-0.967,1.9,0.633,2.7,4.8,2.4l-0.5-2.5C58.083,15.95,57.367,15.95,56.1,15.95z M48.7,24.6
		c-0.3,0.467-0.133,1.033,0.5,1.7c0.633,0.667,1.383,1.1,2.25,1.3c1,0.2,1.8-0.017,2.4-0.65l-2.45-3C49.9,23.85,49,24.067,48.7,24.6
		z M71.95,29.45c-2.034,0-3.333,0.066-3.9,0.2c-0.133,0.434-0.133,0.85,0,1.25c0.567,0.133,1.3,0.184,2.2,0.15
		c1-0.066,1.733-0.1,2.2-0.1L71.95,29.45z M62.75,35c0.433,1.033,3.667,1.35,9.7,0.95l-5.9-3c-0.933-0.034-1.8,0.066-2.6,0.3
		C62.817,33.617,62.417,34.2,62.75,35z M36.5,42.65c0.367,0.133,0.75,0.267,1.15,0.4c-0.133-0.033-0.267-0.066-0.4-0.1
		C36.983,42.85,36.733,42.75,36.5,42.65z M39.6,43.65c-0.333,0.033-0.8,0.017-1.4-0.05c-0.034-0.133-0.05-0.267-0.05-0.4
		C38.617,43.333,39.1,43.483,39.6,43.65z M39.15,47.65l1-1c0.067,0.6,0.05,1.15-0.05,1.65C39.7,48.367,39.383,48.15,39.15,47.65z
		 M37.75,43.95c0.167,0.367,0.233,0.966,0.2,1.8c0,0.667-0.05,1.517-0.15,2.55c0,0.8-0.017,1.284-0.05,1.45
		c-0.067,0.6-0.3,0.983-0.7,1.15c-0.433,0.2-0.833,0.15-1.2-0.15s-0.483-0.667-0.35-1.1l0.55-1.1l1.1-2.25
		c-0.066-0.633-0.1-1.133-0.1-1.5c0-0.6,0.15-1.017,0.45-1.25C37.6,43.65,37.683,43.783,37.75,43.95z M33.15,53.3
		c-0.2,1.167-0.917,1.483-2.15,0.95c-1.233-0.5-1.733-1.35-1.5-2.55c0.167-0.034,0.667-0.05,1.5-0.05
		c0.633-0.033,1.133-0.15,1.5-0.35L33.15,53.3z M26.95,58.25c-0.034,0-0.083-0.017-0.15-0.05c0.1-0.5,0.167-0.9,0.2-1.2
		c0.133-0.467,0.3-0.817,0.5-1.05l0.75-0.45l1.25-0.85c0.1,1.067-0.05,1.983-0.45,2.75C28.583,58.267,27.883,58.55,26.95,58.25z
		 M24.5,62.65c-0.5,0.833-1.267,1.15-2.3,0.95c-0.2-1.033,0.333-1.917,1.6-2.65L24.5,62.65z M112.2,101.85l-0.101-0.5l0.101,0.301
		l0.899,2.399c0.767,2,1.467,4.084,2.101,6.25l-1.15,0.25L112.2,101.85z"/>
	<path style="fill-rule:evenodd;clip-rule:evenodd;fill:#C3B9AC;" d="M182.6,55.45l0.101,0.95c-0.934,0.2-1.934,0.25-3,0.15
		c-1.267-0.133-2.167-0.483-2.7-1.05c0.134-0.367,0.366-0.717,0.7-1.05L182.6,55.45z M163.35,49.75c1.367,0.133,2.233,0.2,2.601,0.2
		l2.95,3c-3.7,0.466-6.184-0.217-7.45-2.05C161.55,50.167,162.184,49.783,163.35,49.75z M178.4,61.15
		c0.366-0.433,0.783-0.667,1.25-0.7l1.5,0.5c0.333,0.9,0.017,1.566-0.95,2c-0.967,0.466-1.65,0.333-2.05-0.4
		C177.917,62.05,178,61.583,178.4,61.15z M178.2,66.45l0.5,1C178.134,67.417,177.967,67.083,178.2,66.45z M168.9,65.45
		c0.566,2.2-1.301,2.85-5.601,1.95c-4.133-0.867-6.649-1.883-7.55-3.05c0.333-0.967,1.066-1.717,2.2-2.25
		c1-0.5,2.033-0.717,3.1-0.65L168.9,65.45z M89.2,19.7c-1.333-0.034-2.017-0.45-2.05-1.25h3.9C91.117,19.317,90.5,19.733,89.2,19.7z
		 M159.6,47.45l1.45,2c-0.633,0.167-1.2-0.067-1.7-0.7S158.934,47.683,159.6,47.45z M150.3,47.95c-0.566,0-1.833,0.066-3.8,0.2
		c-1.7-0.1-2.583-0.683-2.65-1.75c0.601-0.467,1.284-0.617,2.051-0.45L150.3,47.95z M73.35,22.3c-2.133-0.267-4.117-0.633-5.95-1.1
		c-1.8-0.467-2.983-0.917-3.55-1.35c-0.133-1.133,1.417-2.017,4.65-2.65c3.5-0.5,5.483-0.8,5.95-0.9
		c2.833-0.6,4.783-0.883,5.85-0.85l5.35,3c0.4,2.233-1.25,3.583-4.95,4.05C78.8,22.733,76.35,22.667,73.35,22.3z M97.4,31.95
		c0,1.667-0.017,2.667-0.051,3c-1.966,0.167-3.183,0.267-3.649,0.3c-1.9,0.033-2.95-0.217-3.15-0.75c-0.2-0.5,0.233-1.083,1.3-1.75
		c1.233-0.667,1.95-1.1,2.15-1.3L97.4,31.95z M91.55,27.95l1.95,1c0.2,1.267-0.934,1.917-3.4,1.95c-2.367,0.067-3.9-0.233-4.6-0.9
		c0.5-0.4,1.5-0.717,3-0.95C89.933,28.85,90.95,28.483,91.55,27.95z M99.35,48.95c-0.533,0-1.399,0.033-2.6,0.1
		c-1.066,0.034-1.9-0.133-2.5-0.5c-0.134-0.733,1.134-1.517,3.8-2.35c2.867-0.733,4.45-1.15,4.75-1.25L99.35,48.95z M118.45,33.95
		c-1.7,0.167-2.851,0.216-3.45,0.15c-1.533-0.1-2.5-0.583-2.9-1.45c0.667-0.333,1.817-0.4,3.45-0.2c1.733,0.3,2.867,0.466,3.4,0.5
		L118.45,33.95z M109.4,41.65c-1.767-0.1-2.517-0.867-2.25-2.3c0.199-0.967,0.949-1.667,2.25-2.1c1.033-0.333,2.1-0.433,3.199-0.3
		l0.95,4C112.083,41.45,110.7,41.683,109.4,41.65z M132.25,51.7c1.2-0.4,2.65-0.6,4.35-0.6c1.367-0.033,2.667,0.033,3.9,0.2
		c1.233,0.167,2.05,0.383,2.45,0.65l1,2c-0.2,0.1-0.9,0.566-2.101,1.4c-0.633,0.433-1.466,0.667-2.5,0.7
		c-0.566,0.034-2.183,0.083-4.85,0.15c-2.434-0.1-3.85-0.633-4.25-1.6C129.717,53.3,130.384,52.333,132.25,51.7z M133.15,58.95l1,2
		c-2.534,0.066-4.101,0.083-4.7,0.05c-2.3-0.233-3.517-0.883-3.65-1.95c0.934-0.167,2.167-0.233,3.7-0.2
		C131.2,58.917,132.417,58.95,133.15,58.95z M48.7,24.6c0.3-0.533,1.2-0.75,2.7-0.65l2.45,3c-0.6,0.633-1.4,0.85-2.4,0.65
		c-0.867-0.2-1.617-0.633-2.25-1.3C48.567,25.633,48.4,25.067,48.7,24.6z M56.1,15.95c1.267,0,1.983,0,2.15,0l0.5,2.5
		c-4.167,0.3-5.767-0.5-4.8-2.4C54.517,15.95,55.233,15.917,56.1,15.95z M62.75,35c-0.333-0.8,0.067-1.383,1.2-1.75
		c0.8-0.233,1.667-0.333,2.6-0.3l5.9,3C66.417,36.35,63.183,36.033,62.75,35z M71.95,29.45l0.5,1.5c-0.467,0-1.2,0.033-2.2,0.1
		c-0.9,0.034-1.633-0.017-2.2-0.15c-0.133-0.4-0.133-0.816,0-1.25C68.617,29.517,69.917,29.45,71.95,29.45z"/>
	<path style="fill-rule:evenodd;clip-rule:evenodd;fill:#8C847C;" d="M20.15,22.75l-1.2-0.2c-0.1,0-0.184,0-0.25,0
		c-0.333-0.066-0.667-0.117-1-0.15l-0.75-0.05l-0.9-0.05c-0.066-0.033-0.133-0.05-0.2-0.05c-0.03,0-0.063,0-0.1,0h-0.1
		c0.033-1.133,0.317-2.267,0.85-3.4c1.133-2.033,1.883-3.483,2.25-4.35c0.6-1.467,0.6-3.017,0-4.65c-0.4-1.1-0.55-2.25-0.45-3.45
		c0-0.167,0.184-1.233,0.55-3.2c0.267-0.167,0.566-0.333,0.9-0.5l0.3-0.15c0-0.033,0.017-0.05,0.05-0.05
		c0.566-0.267,1.2-0.517,1.9-0.75c3.3-1.1,8.217-1.683,14.75-1.75l1,0.2c4.833,1.1,7.867,1.767,9.1,2c3.4,0.633,6.467,0.966,9.2,1
		c3.267,0.066,5.75,0.2,7.45,0.4c1.633,0.2,4,0.683,7.1,1.45c1,0.267,2.133,0.583,3.4,0.95c-1.733,0.5-4.267,0.6-7.6,0.3
		c-1.8-0.167-4.2-0.4-7.2-0.7c-0.434,0-2-0.15-4.7-0.45c-2.633-0.167-4.333-0.033-5.1,0.4c-0.3,0.167-0.583,0.5-0.85,1
		c-0.3,0.534-0.583,0.883-0.85,1.05c-0.7,0.433-1.767,0.633-3.2,0.6c-0.8-0.034-1.917-0.117-3.35-0.25c-4.1,0-6.667,0.1-7.7,0.3
		c-3.2,0.633-4.733,2.217-4.6,4.75c0,0.167,0.15,0.667,0.45,1.5c0.167,0.6,0.15,1.1-0.05,1.5c-0.3,0.6-1.233,1.15-2.8,1.65
		c-1.4,0.467-2.233,1.25-2.5,2.35c-0.3,1.333-0.184,2.467,0.35,3.4c-0.291-0.064-0.565-0.114-0.825-0.15H23.4
		c-0.033,0-0.066,0-0.1,0L23,23.2c-0.3-0.067-0.583-0.117-0.85-0.15l-0.65-0.1c-0.067,0-0.117,0-0.15,0
		c-0.2-0.034-0.383-0.067-0.55-0.1c-0.066,0-0.117,0-0.15,0L20.15,22.75z M127.8,38.75l2.7,1.5v0.05c0,0.9-0.116,1.65-0.35,2.25
		c-0.2,0.367-0.867,1.05-2,2.05c-1.2,1.5-2,2.383-2.4,2.65c-0.767,0.5-2.017,0.75-3.75,0.75c-0.566,0-1.9-0.117-4-0.35
		c-1.967-0.133-3.283,0-3.95,0.4c-0.233,0.167-0.483,0.467-0.75,0.9c-0.267,0.533-0.467,0.867-0.6,1
		c-1.066,1.066-2.384,1.716-3.95,1.95c-0.7,0.1-2.2,0.133-4.5,0.1c1.5-0.067,2.9-0.25,4.2-0.55l0.649-0.15
		c0-0.8,0.017-1.383,0.051-1.75c0-0.7,0.149-1.233,0.449-1.6c0.267-0.333,0.717-0.55,1.351-0.65c0.633-0.133,1.533-0.133,2.7,0
		c1.466,0.133,2.233,0.2,2.3,0.2c1.833-0.067,3.217-0.233,4.149-0.5c1.7-0.467,2.767-1.3,3.2-2.5c0.101-0.267,0.117-0.817,0.05-1.65
		c-0.066-0.7,0.051-1.2,0.351-1.5c0.267-0.267,0.649-0.383,1.149-0.35c0.601,0.033,1.017,0,1.25-0.1c0.9-0.433,1.467-1.133,1.7-2.1
		V38.75z M172.95,59c-2.033,0.167-4.084,0.117-6.15-0.15c-1.633-0.2-3.184-0.5-4.649-0.9l0.199-0.1c0.367-0.2,1.067-0.3,2.101-0.3
		c0.934-0.033,1.6-0.233,2-0.6h6.85c0.101,0.733,0.134,1.383,0.101,1.95V59H172.95z M75.15,23.5c-0.633-0.3-1.233-0.7-1.8-1.2
		c3,0.367,5.45,0.434,7.35,0.2l1.05-0.05l6.85,0.5l-0.35,0.5c-0.8,0.8-2.233,1.233-4.3,1.3c-0.9,0.033-2.45-0.05-4.65-0.25
		C77.733,24.4,76.35,24.067,75.15,23.5z M102.05,36.05l0.75-0.1c-0.467,0.7-1.033,1.2-1.7,1.5l-0.199,0.1l-0.601,0.2
		c-0.434,0.1-0.916,0.15-1.45,0.15c-1.333-0.033-2.949-0.383-4.85-1.05c-2.033-0.767-3.383-1.217-4.05-1.35
		c1.6,0.267,2.8,0.467,3.6,0.6c1.5,0.233,2.783,0.35,3.851,0.35L102.05,36.05z M83.85,40.95l1.35-0.5l-0.35,0.35L83.85,40.95z
		 M79.2,44.05c0.233-0.4,0.466-0.716,0.7-0.95c0.434-0.5,0.983-0.833,1.65-1C80.917,42.433,80.133,43.083,79.2,44.05z M74.45,44.85
		c1.167-0.7,2.033-1.2,2.6-1.5c1.034-0.567,1.934-0.85,2.7-0.85c-0.567,0.3-1.45,0.733-2.65,1.3C76.1,44.3,75.217,44.65,74.45,44.85
		z M65.45,45.35l0.9,0.1c-0.367,0.133-0.75,0.4-1.15,0.8C65.2,45.917,65.283,45.617,65.45,45.35z M127.1,73.3l1.65-0.85
		c0.4-0.633,0.5-1.267,0.3-1.9c3.3,0,5.816-0.1,7.55-0.3c3.101-0.4,5.317-1.417,6.65-3.05c-0.3,1.6-1.033,2.683-2.2,3.25
		c-0.967,0.466-2.366,0.65-4.2,0.55c0.801,0.2,1.034,0.983,0.7,2.35c-0.333,1.267-0.85,2.117-1.55,2.55
		c-0.2,0.133-0.684,0.267-1.45,0.4c-0.899,0.133-1.434,0.233-1.6,0.3c-0.667,0.233-1.134,0.433-1.4,0.6c-0.166,0.133-0.5,0.4-1,0.8
		c-0.633,0.5-1.283,1.133-1.95,1.9l0.551-1.15c0.466-0.9,1.416-2.267,2.85-4.1c1.333-1.7,2.217-3.066,2.65-4.1
		c-0.967,0.9-2.267,1.833-3.9,2.8c-0.667,0.433-1.6,1-2.8,1.7c-0.167-0.433-0.367-0.867-0.601-1.3l-0.05-0.05l-0.05-0.1
		C127.184,73.5,127.134,73.4,127.1,73.3z M34.7,32.95l-0.05-0.05l-0.4-0.6c-0.133-0.333-0.167-0.816-0.1-1.45V30.8
		c0.033-0.267,0.05-0.5,0.05-0.7v-0.05c0-0.133,0.017-0.25,0.05-0.35v-0.05c-0.031-0.094-0.048-0.177-0.05-0.25v-0.15
		c0-0.067,0-0.117,0-0.15c-0.034-0.167-0.067-0.317-0.1-0.45c0.233,0.233,0.483,0.467,0.75,0.7c0.967,0.9,1.45,1.417,1.45,1.55
		c0,0.167-0.233,0.583-0.7,1.25L34.7,32.95z M36.9,39.7c0.033-0.167,0.067-0.317,0.1-0.45l0.2-1.6c0-0.167,0-0.316,0-0.45
		c0-0.034,0-0.1,0-0.2c0.767,1.1,1.3,1.767,1.6,2c1.1,0.833,2.633,1.367,4.6,1.6c1.667,0.167,3.317,0.1,4.95-0.2
		c0.2-1.133-0.55-2.267-2.25-3.4c-0.867-0.6-2.184-1.283-3.95-2.05c1.434-0.034,3.05,0.466,4.85,1.5
		c1.033,0.566,2.533,1.466,4.5,2.7c0.4,0.233,1.05,0.583,1.95,1.05c0.767,0.466,1.216,1.033,1.35,1.7
		c-0.833-0.133-1.4-0.017-1.7,0.35c-0.267,0.3-0.267,0.717,0,1.25l-0.7-0.05c-6.433-0.067-11.183-1.067-14.25-3
		C37.75,40.183,37.333,39.933,36.9,39.7z"/>
	<path style="fill-rule:evenodd;clip-rule:evenodd;fill:#A39A90;" d="M62.15,44.45c-2.2-0.567-5.217-0.883-9.05-0.95
		c-0.267-0.533-0.267-0.95,0-1.25c0.3-0.367,0.867-0.483,1.7-0.35c-0.133-0.667-0.583-1.233-1.35-1.7
		c-0.9-0.467-1.55-0.817-1.95-1.05c-1.967-1.233-3.467-2.133-4.5-2.7c-1.8-1.034-3.417-1.534-4.85-1.5
		c1.767,0.767,3.083,1.45,3.95,2.05c1.7,1.133,2.45,2.267,2.25,3.4c-1.633,0.3-3.283,0.367-4.95,0.2c-1.967-0.233-3.5-0.767-4.6-1.6
		c-0.3-0.233-0.833-0.9-1.6-2c0-0.4,0-1.3,0-2.7l-0.5,0.5l-1.4-1.25c-0.233-0.2-0.417-0.367-0.55-0.5l-0.05-0.1l0.9-0.8
		c0.467-0.667,0.7-1.083,0.7-1.25c0-0.133-0.483-0.65-1.45-1.55c-0.267-0.233-0.517-0.467-0.75-0.7l-0.05-0.05v-0.05
		C34.017,28.517,34,28.467,34,28.4c-0.033-0.033-0.05-0.066-0.05-0.1l-0.35-0.9c-0.033-0.066-0.067-0.133-0.1-0.2
		c-0.167-0.3-0.317-0.567-0.45-0.8c-0.033-0.033-0.066-0.066-0.1-0.1c-0.167-0.233-0.35-0.433-0.55-0.6
		c-0.066-0.034-0.117-0.067-0.15-0.1s-0.067-0.05-0.1-0.05L32.1,25.5c-0.167-0.1-0.5-0.233-1-0.4c-0.267-0.067-0.567-0.15-0.9-0.25
		c-0.567-0.167-1.167-0.333-1.8-0.5l-3.05-0.7c-0.367-0.1-0.717-0.183-1.05-0.25c-0.533-0.933-0.65-2.066-0.35-3.4
		c0.267-1.1,1.1-1.883,2.5-2.35c1.566-0.5,2.5-1.05,2.8-1.65c0.2-0.4,0.217-0.9,0.05-1.5c-0.3-0.833-0.45-1.333-0.45-1.5
		c-0.133-2.533,1.4-4.117,4.6-4.75c1.033-0.2,3.6-0.3,7.7-0.3c1.434,0.133,2.55,0.216,3.35,0.25c1.433,0.033,2.5-0.167,3.2-0.6
		c0.267-0.167,0.55-0.517,0.85-1.05c0.267-0.5,0.55-0.833,0.85-1c0.767-0.433,2.467-0.566,5.1-0.4c2.7,0.3,4.267,0.45,4.7,0.45
		c3,0.3,5.4,0.533,7.2,0.7C69.733,6.6,72.267,6.5,74,6c3.467,1.033,7.85,2.517,13.15,4.45c1.4,1.633,2.617,2.95,3.65,3.95l1.65,1.45
		C85.317,14.083,81.5,13.133,81,13c-1.3-0.3-2.55-0.3-3.75,0c-0.733,0.167-2,0.5-3.8,1c-2,0.433-4.434,0.583-7.3,0.45
		c-1.633-0.067-4.083-0.233-7.35-0.5c-2.9-0.133-4.933-0.133-6.1,0c-2.667,0.333-4.35,1.267-5.05,2.8
		c-0.267,0.6-0.35,1.483-0.25,2.65c0.1,1.367,0.1,2.3,0,2.8c-0.233,1.033-0.733,1.883-1.5,2.55c-0.467,0.367-1.25,0.933-2.35,1.7
		c-1.3,1.167-1.95,2.683-1.95,4.55c-0.033,1.367,0.4,2.367,1.3,3c0.067,0.033,1.167,0.517,3.3,1.45c1.3,0.566,3.25,1.333,5.85,2.3
		c2.667,0.967,4.6,1.717,5.8,2.25c0.633,0.267,1.15,0.7,1.55,1.3c0.6,0.934,0.983,1.5,1.15,1.7L62.15,44.45z M130.5,40.25
		c3.066,1.4,6.167,1.867,9.3,1.4v0.05c-0.066,2.167-0.166,3.767-0.3,4.8c-0.233,2.4-1.2,3.933-2.9,4.6c-1.699,0-3.149,0.2-4.35,0.6
		c-1.333,0.066-2.5,0.183-3.5,0.35l-0.05,2.35c-0.5,0.133-1-0.017-1.5-0.45c-0.533-0.534-0.967-0.9-1.3-1.1
		c-0.733-0.467-1.567-0.817-2.5-1.05c-1.134-0.233-2.117-0.183-2.95,0.15c-0.334,0.133-0.783,0.5-1.351,1.1
		c-0.5,0.5-1.05,0.817-1.649,0.95c-0.467,0.1-1.25,0.117-2.351,0.05c-0.199,0.6-0.149,1.217,0.15,1.85c1.3,0.3,2.55,0.7,3.75,1.2
		c-0.566,0.467-1.25,0.55-2.05,0.25c-0.767-0.267-1.334-0.75-1.7-1.45c-2.566-0.667-6.167-1.083-10.8-1.25
		c-5.434-0.233-9.033-0.483-10.8-0.75c3.966-1.733,8.783-2.55,14.449-2.45h0.351c-1.3,0.3-2.7,0.483-4.2,0.55
		c2.3,0.033,3.8,0,4.5-0.1c1.566-0.233,2.884-0.883,3.95-1.95c0.133-0.133,0.333-0.467,0.6-1c0.267-0.434,0.517-0.733,0.75-0.9
		c0.667-0.4,1.983-0.533,3.95-0.4c2.1,0.233,3.434,0.35,4,0.35c1.733,0,2.983-0.25,3.75-0.75c0.4-0.267,1.2-1.15,2.4-2.65
		c1.133-1,1.8-1.684,2-2.05c0.233-0.6,0.35-1.35,0.35-2.25V40.25z M127.8,38.75v0.05c-0.233,0.967-0.8,1.667-1.7,2.1
		c-0.233,0.1-0.649,0.133-1.25,0.1c-0.5-0.033-0.883,0.083-1.149,0.35c-0.3,0.3-0.417,0.8-0.351,1.5
		c0.067,0.833,0.051,1.383-0.05,1.65c-0.434,1.2-1.5,2.033-3.2,2.5c-0.933,0.267-2.316,0.433-4.149,0.5
		c-0.066,0-0.834-0.067-2.3-0.2c-1.167-0.133-2.067-0.133-2.7,0c0.166-0.466,0.833-0.867,2-1.2c1.467-0.267,2.566-0.517,3.3-0.75
		c1.366-0.4,2.25-1.033,2.65-1.9c0.133-0.3,0.133-1,0-2.1c-0.101-0.9,0.05-1.533,0.449-1.9c0.434-0.434,1.301-0.667,2.601-0.7
		c1.533-0.067,2.5-0.183,2.899-0.35c0.034-0.7-0.083-1.433-0.35-2.2l1.7,1.4C126.667,37.967,127.2,38.35,127.8,38.75z M162.35,57.85
		l-1.6-0.5c-2.2-0.633-3.684-1.467-4.45-2.5c0.5-0.233,1.884-0.283,4.15-0.15c2.267,0.2,3.5,0.3,3.7,0.3
		c1.5,0.1,2.699,0.15,3.6,0.15c1.634-0.033,2.833-0.267,3.6-0.7l2.95,2l0.05,2.1L173.4,58.9c0.033-0.566,0-1.217-0.101-1.95h-6.85
		c-0.4,0.367-1.066,0.566-2,0.6C163.417,57.55,162.717,57.65,162.35,57.85z M172.95,59c-1.434,0.333-3.483,0.283-6.15-0.15
		C168.866,59.117,170.917,59.167,172.95,59z M170.45,66.35c-0.667-0.3-1.084-0.7-1.25-1.2c0.233-0.767,0.783-1.333,1.649-1.7
		l2.95,0.5c0.934,2.267,1.25,4.583,0.95,6.95c-3.1,0.467-6.083,0.483-8.95,0.05c-4.1-0.633-6.366-2.15-6.8-4.55
		c0.3,1.434,2.417,2.2,6.35,2.3c3.967,0.066,6.233-0.517,6.801-1.75C171.816,66.783,171.25,66.583,170.45,66.35z M75.15,23.5
		c1.2,0.567,2.583,0.9,4.15,1c2.2,0.2,3.75,0.283,4.65,0.25c2.066-0.067,3.5-0.5,4.3-1.3c0.567,0.133,1.017,0.3,1.35,0.5l-0.5-3.5
		c1.066-0.034,1.617,0.733,1.65,2.3s-0.35,2.617-1.15,3.15c-0.333,0.233-1.1,0.317-2.3,0.25c-0.233-0.033-1.017-0.117-2.35-0.25
		c-1.5-0.167-3.434-0.533-5.8-1.1c-3.167-0.767-5.1-1.216-5.8-1.35L75.15,23.5z M79.75,42.5c-0.767,0-1.667,0.283-2.7,0.85
		c-0.566,0.3-1.433,0.8-2.6,1.5L74,45h-0.1l-1.1,0.15l-1.9-0.05l0.15-0.1c1.434-0.867,3.534-1.683,6.3-2.45
		c3.033-0.833,5.15-1.55,6.35-2.15c0.5-0.267,1.017-0.733,1.55-1.4c0.567-0.733,1.017-1.2,1.35-1.4c0.5-0.333,1.117-0.533,1.85-0.6
		c0.9,0,1.566-0.017,2-0.05l3.55-0.1c1.9,0.667,3.517,1.017,4.85,1.05c0.534,0,1.017-0.05,1.45-0.15l0.601-0.2l0.199-0.1
		c0.667-0.3,1.233-0.8,1.7-1.5l-0.75,0.1c0.033-0.566-0.184-1.316-0.649-2.25c-0.534-0.933-0.884-1.55-1.051-1.85l4.4,2.5
		c0,0.7,0.033,1.783,0.1,3.25c0.034,1.333-0.017,2.4-0.149,3.2c-1.101,0.1-2.167,0.15-3.2,0.15c0.733-0.233,1.333-0.6,1.8-1.1
		l-3.45,1H99.2c-2.2-0.233-4.084-0.75-5.65-1.55c-2,0.467-3.483,0.9-4.45,1.3c-1.067-0.067-2.483-0.034-4.25,0.1l0.35-0.35
		l-1.35,0.5L83.2,41.1C82.367,41.267,81.217,41.733,79.75,42.5z M80.05,56H79.9c-0.033-0.633,0.05-1.983,0.25-4.05l0.05-0.55
		l0.15-0.25v0.25c0.3,0.2,0.566,0.2,0.8,0c0.267-1.533,1.333-2.816,3.2-3.85l-0.15,3c-0.167,1.534-0.35,2.567-0.55,3.1
		c-0.367,0.833-1.066,1.483-2.1,1.95C81.217,55.733,80.717,55.867,80.05,56z M130.1,81.6c0.367-1.2,0.851-2.1,1.45-2.7
		c-0.333,0.1-1.333,0.483-3,1.15l0.05-0.15c0.667-0.767,1.317-1.4,1.95-1.9c0.5-0.4,0.834-0.667,1-0.8
		c0.267-0.167,0.733-0.367,1.4-0.6c0.166-0.067,0.7-0.167,1.6-0.3c0.767-0.133,1.25-0.267,1.45-0.4c0.7-0.433,1.217-1.283,1.55-2.55
		c0.334-1.367,0.101-2.15-0.7-2.35c1.834,0.1,3.233-0.083,4.2-0.55c1.167-0.567,1.9-1.65,2.2-3.25c-1.333,1.633-3.55,2.65-6.65,3.05
		c-1.733,0.2-4.25,0.3-7.55,0.3c0.2,0.633,0.101,1.267-0.3,1.9l-1.65,0.85c-0.699-1.2-1.449-2.1-2.25-2.7
		c0.001-0.467,0.018-0.817,0.051-1.05c0.899-0.2,3.133-0.35,6.699-0.45c2.767-0.033,4.884-0.533,6.351-1.5
		c1.366-1.033,2.45-1.733,3.25-2.1c0.6-0.3,1.399-0.6,2.399-0.9c1.267-0.4,2.067-0.667,2.4-0.8c1.6-3.867,3.483-6.917,5.65-9.15
		c-0.4,0.567-0.717,1.483-0.95,2.75c-0.267,1.434-0.517,2.4-0.75,2.9c-0.7,1.534-2.017,2.7-3.95,3.5c-0.7,1.633-1.55,3.967-2.55,7
		c-0.3,0.934-0.7,2.434-1.2,4.5c-0.533,1.767-1.316,3.017-2.35,3.75c-0.867,0.633-2.334,1.117-4.4,1.45
		c-3.066,0.567-4.634,0.85-4.7,0.85L130.1,81.6z M84.65,45.35l-3.5,1c0.2-0.533,0.5-0.917,0.9-1.15
		c0.333-0.167,0.983-0.35,1.95-0.55l0.95-0.25C84.817,44.7,84.717,45.017,84.65,45.35z"/>
	<path style="fill-rule:evenodd;clip-rule:evenodd;fill:#726A60;" d="M148.55,163.35c0.033-0.233,0.05-0.949,0.05-2.149
		l-0.149-2.601c-0.733-8.199-1.117-13.8-1.15-16.8c0.033-7.767,0.033-13.583,0-17.45c0.033-1.699,0.05-3.066,0.05-4.1
		c-0.033-1.934-0.149-3.366-0.35-4.3c-0.6-2.066-1.4-3.834-2.4-5.3c-0.633-0.567-1.267-1.367-1.899-2.4
		c-0.066-0.4-0.084-1.05-0.05-1.95c0.1-1,0.149-1.7,0.149-2.1V104c0-1.267-0.1-2.65-0.3-4.15c-0.233-1.699-0.417-3.033-0.55-4
		c-0.134-1.133-0.167-2.633-0.101-4.5c0.067-1.8,0.101-3.183,0.101-4.149c0.467,0.066,0.934,0.116,1.399,0.149
		c0.034,0.4,0.067,0.801,0.101,1.2c0.166,1.601,0.184,4.417,0.05,8.45c0.066,3.566,0.533,6.083,1.4,7.55
		c0.233-0.6,0.35-1.75,0.35-3.45c-0.066-1.833-0.1-3.033-0.1-3.6v-8.1c0.1,1.133,0.283,2.083,0.55,2.85c0.166-0.3,0.3-0.6,0.399-0.9
		l-0.5-3.699c0.434,0.033,0.867,0.083,1.301,0.149c-0.101,0.4-0.2,0.917-0.301,1.55c-0.166,0.867-0.333,1.534-0.5,2l2.051,14.101
		h0.55l0.399,1c0.233,0.833,0.351,1.883,0.351,3.149c0.033,1.301-0.084,2.884-0.351,4.75c-0.3,2.267-0.483,3.817-0.55,4.65
		c-0.133,2.434-0.149,6.134-0.05,11.1c0,3.5,0.05,7.017,0.15,10.551c0.033,0.267,0.05,1.116,0.05,2.55c0,1.033,0.05,1.866,0.149,2.5
		c0.101-0.7,0.134-1.684,0.101-2.95c-0.033-1.366-0.05-2.366-0.05-3c0-3,0.116-5.9,0.35-8.7c0.033-0.467,0.066-1.866,0.1-4.2
		c0.034-1.733,0.15-3.116,0.351-4.149c0.3-1.233,0.483-2.184,0.55-2.851c-0.066-0.899-0.083-1.566-0.05-2
		c0.3-3.199,0.816-6,1.55-8.399c0.1-0.367,0.517-1.467,1.25-3.3c0.5-1.267,0.833-2.483,1-3.65c0.066-0.4,0.1-1.017,0.1-1.85
		c0-0.834,0.017-1.45,0.051-1.851c0.033-0.267,0.333-1.483,0.899-3.649c0.134-0.534,0.384-1.25,0.75-2.15
		c0.4-1,0.667-1.717,0.8-2.15l0.051,2.051c0,1.566-0.084,3.3-0.25,5.199c0.1,0.834,0.267,2.5,0.5,5c0.166,2.101,0.35,3.767,0.55,5
		c0.7,4.301,1.416,7.767,2.149,10.4l0.301-0.1c0.366-0.101,0.616-0.25,0.75-0.45c0.233-0.334,0.416-1.05,0.55-2.15l1.7-12.899
		c0.633-4.4,1.133-9.101,1.5-14.101c0-0.166,0.017-0.316,0.05-0.45c0.267-0.066,0.533-0.133,0.8-0.199
		c0,3.399,0.017,7.149,0.05,11.25c0,1.933-0.05,4.933-0.149,9c-0.034,3.633,0.017,6.616,0.149,8.949l0.3,2.25
		c0.267,0.067,0.65,0.284,1.15,0.65c0.5,0.333,0.884,0.517,1.15,0.55c0.033-0.267,0.05-1.517,0.05-3.75
		c0.1-2.934,0.149-5.133,0.149-6.6c0.034-1.3,0.217-3.834,0.551-7.601c0.366-7.033,0.75-11.333,1.149-12.899l-0.05,9.1L169.9,93
		l0.399,11.35l0.05,2.4l0.051,7.2c0.1,3.7,0.133,5.934,0.1,6.7c0.2,0.3,0.384,0.5,0.55,0.6c0.134,0.066,0.316-0.083,0.55-0.45
		c0.2-0.333,0.417-0.434,0.65-0.3c0.267,0.167,0.55,0.684,0.85,1.55c0.233,0.667,0.601,0.884,1.101,0.65
		c0.399-0.167,0.8-0.684,1.2-1.55c0.333-0.7,0.566-1.434,0.699-2.2c0.367-1.8,0.667-4.15,0.9-7.05
		c0.233-3.301,0.417-5.75,0.55-7.351V86.5c-0.033-2.2-0.066-4.283-0.1-6.25c2.1-2,3.649-3.767,4.649-5.3
		c0.034-0.034,0.067-0.083,0.101-0.15l-0.05,0.4v7.75c0,1.434,0.05,3.6,0.149,6.5c0,0.033,0,0.066,0,0.1
		c0,1.667-0.133,3.167-0.399,4.5v0.101L181.8,94.5c-0.1,0.467-0.217,0.9-0.35,1.3l-1.851,7.3c-0.066,0.367-0.116,0.75-0.149,1.15
		c-0.101,0.967-0.184,1.866-0.25,2.7l-0.101,2.25c0.067,3.833-0.25,6.883-0.949,9.149c-0.167,0.534-0.267,1.284-0.301,2.25
		c-0.033,1-0.1,1.733-0.199,2.2c-0.034,0.101-0.067,0.2-0.101,0.3c-0.133,0.367-0.383,0.834-0.75,1.4
		c-0.033,0.066-0.066,0.116-0.1,0.15c-0.4,0.633-0.65,1.149-0.75,1.55v0.05l-1.351,0.05c-0.233,1.101-0.733,1.95-1.5,2.55
		c-0.3,0.233-0.899,0.534-1.8,0.9l-0.8-0.1L170,129.6l-0.3-0.1l0.3,0.75c-1.2,0.467-2.017,0.983-2.45,1.55
		c-0.434,0.601-0.75,1.45-0.95,2.55c-0.1,0.634-0.216,1.517-0.35,2.65c-0.134,1-0.217,3.384-0.25,7.15
		c-0.033,2.899-0.384,5.283-1.05,7.149c-0.467,1.3-0.95,3.45-1.45,6.45c-0.866,2.566-2.7,4.3-5.5,5.2c-1.2,0.399-2.917,0.6-5.15,0.6
		l-3-0.1C149.417,163.417,148.983,163.384,148.55,163.35z M140.65,146.85c1.5-0.133,2.583,0.051,3.25,0.551v0.5l0.05-0.45l0.25,0.2
		l0.399,0.699l-0.399,0.15l-0.3,0.05c-0.167,5.2-0.067,9.584,0.3,13.15v0.2c0.399,0,0.7,0.017,0.899,0.05
		c1.233,0.133,2.334,0.583,3.301,1.35c-0.334-0.033-0.634-0.05-0.9-0.05h-0.3c-0.066-0.033-0.134-0.05-0.2-0.05l-1.25-0.15
		c-1.767-0.233-3.1-0.55-4-0.95c-0.566-0.233-0.983-0.5-1.25-0.8c-0.5-0.5-0.634-1.649-0.4-3.45c0.334-2,0.5-3.267,0.5-3.8v-4.7
		L140.65,146.85z M124.925,148.85c-0.175-0.004-0.35-0.021-0.524-0.05l0.35-3.45c0.2-0.433,0.6-1.017,1.2-1.75
		c0.533-0.666,0.934-1.35,1.2-2.05c0.5-1.267,0.833-2.434,1-3.5c0.566,2.233,0.783,5.816,0.649,10.75L124.925,148.85z
		 M122.75,131.85l-0.2-7.649c0.167,0.267,0.334,0.399,0.5,0.399c0.167,0,0.533-0.316,1.101-0.949c-0.067,1.866-0.051,4.8,0.05,8.8
		c0,3.467-0.384,6.149-1.15,8.05l-0.25-7.85l0.05-0.551L122.75,131.85z M154.25,131.35c-0.4,0.4-1.2,1.534-2.4,3.4
		c-0.066,1-0.1,2.55-0.1,4.65c-0.033,2-0.083,3.416-0.15,4.25c-0.399,5.166-0.55,11.05-0.449,17.649c0.3,0.233,0.633,0.3,1,0.2
		c0.3-0.1,0.533-0.283,0.699-0.55c0.301-0.601,0.517-0.934,0.65-1c0.434-0.2,0.733-0.283,0.9-0.25c0.466,0.166,0.75,0.25,0.85,0.25
		c1.4,0.166,2.167,0.25,2.3,0.25c0.533-0.033,1.233-0.283,2.101-0.75l0.55-0.3l0.399-0.25c0.4-0.233,0.65-0.5,0.75-0.801
		c0.034-0.1,0.134-0.649,0.301-1.649c0.233-1.367,0.267-2.75,0.1-4.15c-0.1-0.7-0.366-2.05-0.8-4.05l-0.2-0.8
		c-0.3-1.3-0.366-3.184-0.2-5.65c0.167-2.7,0.184-4.583,0.05-5.649c-0.433-0.167-0.85-0.25-1.25-0.25c-0.433,0-1.1,0.017-2,0.05
		c-0.466,0-0.8-0.033-1-0.101l-0.6-0.25c0.2-0.133,0.333-0.25,0.4-0.35c0.6-0.434,1.449-0.934,2.55-1.5l0.1-0.05
		c1.5-0.8,2.434-1.316,2.8-1.55l0.4-0.301c1.267-0.767,2.15-1.366,2.65-1.8c0.233-0.233,0.483-0.583,0.75-1.05
		c0.333-0.566,0.583-0.983,0.75-1.25l-0.9-0.65c-0.833-0.733-1.517-1-2.05-0.8s-1.25,0.816-2.15,1.851c-0.967,1.1-1.7,1.767-2.2,2
		c-0.399,0.166-0.916,0.25-1.55,0.25c-0.733-0.034-1.25-0.017-1.55,0.05l-0.15,0.05C155.134,130.634,154.684,130.917,154.25,131.35z
		 M129.85,84.55c0.034,0,0.084,0.017,0.15,0.05v-0.05c1.066,0.367,2.134,0.7,3.2,1l-0.05,2.101c-0.067,2.333-0.284,5.149-0.65,8.449
		c-0.2,1.867-0.517,4.667-0.95,8.4c-0.066,0.767-0.25,1.85-0.55,3.25c-0.3,1.434-0.5,2.517-0.6,3.25
		c-0.101,0.7-0.134,1.733-0.101,3.1c-0.2,1.567-0.533,3-1,4.301c-0.2-0.2-0.399-0.334-0.6-0.4c-1.134-0.366-1.733-0.55-1.8-0.55
		c-0.733-0.134-1.317,0-1.75,0.399c0.466-0.566,0.783-1.1,0.949-1.6c0.301-0.833,0.534-1.8,0.7-2.9l0.15-1.449
		c0.033-0.367,0.05-0.75,0.05-1.15v-0.55c0.333-0.8,0.65-2.533,0.95-5.2c0.399-3.267,0.6-4.95,0.6-5.05
		c0.834-4.566,1.25-9.066,1.25-13.5C129.833,85.75,129.85,85.116,129.85,84.55z M135.5,89.2l0.05-2.3c0-0.267,0-0.5,0-0.7
		c0.2,0.033,0.4,0.066,0.601,0.1c-0.034,0.3-0.051,0.601-0.051,0.9c-0.199,4.267-0.433,7.666-0.699,10.2L135.5,89.2z M126.95,95.75
		v-0.4c0-4.533,0.017-8.233,0.05-11.1c0.1-0.233,0.2-0.483,0.3-0.75c0.101,0.033,0.2,0.083,0.3,0.15
		c-0.033,0.833-0.066,1.783-0.1,2.85c0,1,0.033,2.533,0.1,4.6c0,1.834-0.033,3.351-0.1,4.551
		C127.233,95.65,127.05,95.684,126.95,95.75z M155.55,90.55c-0.333,0.601-0.533,0.983-0.6,1.15c-0.101,0.333-0.167,0.8-0.2,1.399
		c-0.033,0.601-0.05,1.467-0.05,2.601c-0.101,0.866-0.334,1.8-0.7,2.8c-0.1,0.3-0.45,1.167-1.05,2.6l0.2-0.75
		c0.3-1.8,0.533-3.166,0.699-4.1l1.051-5.45l0.3-0.2C155.333,90.5,155.45,90.483,155.55,90.55z M150.2,105.3
		c0.333-0.1,0.684-0.383,1.05-0.85c0.4-0.601,0.8-1.3,1.2-2.101l-0.2,0.5c-0.066,0.267-0.167,0.7-0.3,1.301
		c-0.134,0.533-0.3,0.899-0.5,1.1C151.184,105.517,150.767,105.533,150.2,105.3z M126.45,121.95l-0.05,1
		c-0.067,0.5-0.117,2.1-0.15,4.8c0,2.134-0.15,3.6-0.45,4.4l-1-9.15C125.366,122.434,125.917,122.083,126.45,121.95z M132.6,137.15
		l0.101-1.301c0,3.467-0.117,6.25-0.351,8.351C132.417,140.467,132.5,138.116,132.6,137.15z M150.05,157.45
		c0.066,1.366,0.233,2.366,0.5,3l-0.35-10.25L150.05,157.45z M142.7,153.15c0.6-2.367,0.916-3.601,0.95-3.7l0.149-0.9
		c-1.066,0.267-1.733,0.55-2,0.851c-0.366,0.366-0.616,1.149-0.75,2.35c-0.166,1.233-0.316,3.25-0.45,6.05
		c0.367-0.333,0.851-0.633,1.45-0.899C142.083,155.9,142.3,154.65,142.7,153.15z"/>
	<path style="fill-rule:evenodd;clip-rule:evenodd;fill:#8B8178;" d="M148.5,163.35l-0.1-0.05c-0.967-0.767-2.067-1.217-3.301-1.35
		c-0.3-8.667-0.5-15.167-0.6-19.5c-0.1-3.134-0.184-6.101-0.25-8.9l-0.05,9.101c-0.033-1.634-0.05-2.95-0.05-3.95
		c-0.034,1.533-0.117,4.434-0.25,8.7c-0.667-0.5-1.75-0.684-3.25-0.551c0.033-0.666,0.017-1.283-0.051-1.85
		c-0.1-1.167-0.366-2.116-0.8-2.85V141.1c-0.233-4.866-0.333-7.866-0.3-9c0.066-3.699,0.483-8.149,1.25-13.35
		c1.1-7.9,1.7-12.283,1.8-13.15l0.25-1.399c0,0.399-0.05,1.1-0.149,2.1c-0.034,0.9-0.017,1.55,0.05,1.95
		c0.633,1.033,1.267,1.833,1.899,2.4c1,1.466,1.801,3.233,2.4,5.3c0.2,0.934,0.316,2.366,0.35,4.3c0,1.033-0.017,2.4-0.05,4.1
		c0.033,3.867,0.033,9.684,0,17.45c0.033,3,0.417,8.601,1.15,16.8l0.149,2.601c0,1.2-0.017,1.916-0.05,2.149H148.5z M170.4,113.95
		c0.633-4.733,1.066-9.334,1.3-13.8c0.233-4.167,0.283-9.25,0.149-15.25c1.233-0.867,2.517-1.884,3.851-3.05
		c0.6-0.533,1.184-1.067,1.75-1.6c0.033,1.967,0.066,4.05,0.1,6.25v18.05c-0.133,1.601-0.316,4.05-0.55,7.351
		c-0.233,2.899-0.533,5.25-0.9,7.05c-0.133,0.767-0.366,1.5-0.699,2.2c-0.4,0.866-0.801,1.383-1.2,1.55
		c-0.5,0.233-0.867,0.017-1.101-0.65c-0.3-0.866-0.583-1.383-0.85-1.55c-0.233-0.134-0.45-0.033-0.65,0.3
		c-0.233,0.367-0.416,0.517-0.55,0.45c-0.166-0.1-0.35-0.3-0.55-0.6C170.533,119.884,170.5,117.65,170.4,113.95z M159.9,118.4
		c-0.434-1.967-0.684-3.317-0.75-4.051c-0.267-2.5-0.367-5.5-0.301-9c0.034-0.966,0.15-2.783,0.351-5.449
		c0.2-2.267,0.283-4.084,0.25-5.45V88.9c1.866-0.067,3.533-0.25,5-0.551c-0.033,0.134-0.05,0.284-0.05,0.45
		c-0.367,5-0.867,9.7-1.5,14.101l-1.7,12.899c-0.134,1.101-0.316,1.816-0.55,2.15C160.517,118.15,160.267,118.3,159.9,118.4z
		 M169.8,89.95c-0.399,1.566-0.783,5.866-1.149,12.899c-0.334,3.767-0.517,6.301-0.551,7.601c0,1.467-0.05,3.666-0.149,6.6
		c0,2.233-0.017,3.483-0.05,3.75c-0.267-0.033-0.65-0.217-1.15-0.55c-0.5-0.366-0.884-0.583-1.15-0.65l-0.3-2.25
		c-0.133-2.333-0.184-5.316-0.149-8.949c0.1-4.067,0.149-7.067,0.149-9c-0.033-4.101-0.05-7.851-0.05-11.25
		c0.167-0.034,0.35-0.084,0.55-0.15c0,0.134,0,0.283,0,0.45c0,4.899,0.017,11.95,0.05,21.149c0.067-3.366,0.184-6.233,0.351-8.6
		c0.133-2.1,0.233-5.134,0.3-9.1c0.033-1.534,0.066-2.917,0.1-4.15c1.2-0.467,2.467-1.1,3.801-1.9
		c-0.034,4.2-0.051,9.767-0.051,16.7l-0.05,1.8L169.9,93L169.8,89.95z M170,130.05v-0.45l0.5,0.051L170,130.05z M165.25,127.1
		l0.9,0.65c-0.167,0.267-0.417,0.684-0.75,1.25c-0.267,0.467-0.517,0.816-0.75,1.05c-0.5,0.434-1.384,1.033-2.65,1.8l-0.4,0.301
		c0.101-0.634,0.25-1.167,0.45-1.601c0.233-0.533,0.75-1,1.55-1.399c0.767-0.4,1.267-0.867,1.5-1.4
		C165.2,127.45,165.25,127.233,165.25,127.1z M158.7,133.75l0.05-0.1l0.05,0.05L158.7,133.75z M156.15,135.25
		c-0.067,0.1-0.2,0.217-0.4,0.35l0.6,0.25l0.25,0.75c0.2-0.066,0.45-0.283,0.75-0.649c0.9-0.033,1.567-0.05,2-0.05
		c0.134,0.866,0.117,1.966-0.05,3.3l0.9,19.95l-0.55,0.3c-0.867,0.467-1.567,0.717-2.101,0.75c-0.133,0-0.899-0.084-2.3-0.25
		c-0.1,0-0.384-0.084-0.85-0.25c-0.167-0.033-0.467,0.05-0.9,0.25c-0.134,0.066-0.35,0.399-0.65,1c-0.033-5,0.25-12.25,0.851-21.75
		c0-3.533,0.184-6.15,0.55-7.851c0.434-0.433,0.884-0.716,1.35-0.85l0.2,3.05L156.15,135.25z M154.9,90.8
		c0.133-0.733,0.25-1.416,0.35-2.05c0.3,0.033,0.616,0.066,0.95,0.1c-0.033,0.067-0.05,0.134-0.05,0.2
		c-0.067,0.4-0.267,0.9-0.601,1.5c-0.1-0.066-0.217-0.05-0.35,0.05L154.9,90.8z M144.2,142.65v5l-0.25-0.2
		C144.083,146.116,144.167,144.517,144.2,142.65z M160.6,158.9l0.351-10.65c0.434,2,0.7,3.35,0.8,4.05
		c0.167,1.4,0.134,2.783-0.1,4.15c-0.167,1-0.267,1.55-0.301,1.649C161.25,158.4,161,158.667,160.6,158.9z M142.7,153.15
		c-0.4,1.5-0.617,2.75-0.65,3.75c-0.6,0.267-1.083,0.566-1.45,0.899c0.134-2.8,0.284-4.816,0.45-6.05
		c0.134-1.2,0.384-1.983,0.75-2.35c0.267-0.301,0.934-0.584,2-0.851l-0.149,0.9C143.616,149.55,143.3,150.783,142.7,153.15z
		 M144.2,148.5v13.2c-0.367-3.566-0.467-7.95-0.3-13.15L144.2,148.5z"/>
	<path style="fill-rule:evenodd;clip-rule:evenodd;fill:#A1978B;" d="M170.75,129.95l-0.75,0.3v-0.2l0.5-0.399l0.8,0.1
		L170.75,129.95z M132,148.5c0.066-0.5,0.184-1.934,0.35-4.3c0.233-2.101,0.351-4.884,0.351-8.351c0.7-6.767,1.2-11.85,1.5-15.25
		c0.633-6.366,1.033-14.1,1.2-23.199c0.267-2.534,0.5-5.934,0.699-10.2c0-0.3,0.017-0.601,0.051-0.9
		c1.3,0.267,2.583,0.483,3.85,0.65c0.667,0.066,1.316,0.149,1.95,0.25c0,0.967-0.033,2.35-0.101,4.149
		c-0.066,1.867-0.033,3.367,0.101,4.5c0.133,0.967,0.316,2.301,0.55,4c0.2,1.5,0.3,2.884,0.3,4.15v0.2l-0.25,1.399
		c-0.1,0.867-0.7,5.25-1.8,13.15c-0.767,5.2-1.184,9.65-1.25,13.35c-0.033,1.134,0.066,4.134,0.3,9v1.051
		c-0.267-0.5-0.666-1.017-1.2-1.551l-0.3,1.2c-0.1,0.3-0.184,1.066-0.25,2.3c-0.066,1.034-0.267,1.767-0.6,2.2
		c-0.101,0.134-0.217,0.267-0.351,0.4c-0.366,0.333-0.833,0.633-1.399,0.899C134.767,148,133.533,148.3,132,148.5z M171.85,84.9
		c0.134,6,0.084,11.083-0.149,15.25c-0.233,4.466-0.667,9.066-1.3,13.8l-0.051-7.2v-4.2c0-6.934,0.017-12.5,0.051-16.7
		C170.866,85.55,171.35,85.233,171.85,84.9z M159.9,118.4l-0.301,0.1c-0.733-2.634-1.449-6.1-2.149-10.4
		c-0.2-1.233-0.384-2.899-0.55-5c-0.233-2.5-0.4-4.166-0.5-5c0.166-1.899,0.25-3.633,0.25-5.199L156.6,90.85
		c0.233-0.533,0.367-1.066,0.4-1.6c0-0.033,0.017-0.167,0.05-0.4c0.834,0.034,1.634,0.051,2.4,0.051v5.55
		c0.033,1.366-0.05,3.184-0.25,5.45c-0.2,2.666-0.316,4.483-0.351,5.449c-0.066,3.5,0.034,6.5,0.301,9
		C159.217,115.083,159.467,116.434,159.9,118.4z M166.6,87.75c-0.033,1.233-0.066,2.616-0.1,4.15c-0.066,3.966-0.167,7-0.3,9.1
		c-0.167,2.366-0.283,5.233-0.351,8.6c-0.033-9.199-0.05-16.25-0.05-21.149c0-0.167,0-0.316,0-0.45
		c0.033-0.033,0.084-0.05,0.15-0.05C166.184,87.884,166.4,87.816,166.6,87.75z M161.6,132.15c-0.366,0.233-1.3,0.75-2.8,1.55
		l-0.05-0.05l-0.05,0.1c-1.101,0.566-1.95,1.066-2.55,1.5l-0.351-1.7l-0.2-3.05l0.15-0.05c0.3-0.066,0.816-0.084,1.55-0.05
		c0.634,0,1.15-0.084,1.55-0.25c0.5-0.233,1.233-0.9,2.2-2c0.9-1.034,1.617-1.65,2.15-1.851s1.217,0.066,2.05,0.8
		c0,0.134-0.05,0.351-0.15,0.65c-0.233,0.533-0.733,1-1.5,1.4c-0.8,0.399-1.316,0.866-1.55,1.399
		C161.85,130.983,161.7,131.517,161.6,132.15z M144.2,161.7v-13.2l0.399-0.15l-0.399-0.699v-5l0.05-9.101
		c0.066,2.8,0.15,5.767,0.25,8.9c0.1,4.333,0.3,10.833,0.6,19.5c-0.199-0.033-0.5-0.05-0.899-0.05V161.7z M160.95,148.25
		L160.6,158.9l-0.399,0.25l-0.9-19.95c0.167-1.334,0.184-2.434,0.05-3.3c0.4,0,0.817,0.083,1.25,0.25
		c0.134,1.066,0.117,2.949-0.05,5.649c-0.166,2.467-0.1,4.351,0.2,5.65L160.95,148.25z M152.85,160.95
		c-0.166,0.267-0.399,0.45-0.699,0.55c-0.367,0.1-0.7,0.033-1-0.2c-0.101-6.6,0.05-12.483,0.449-17.649
		c0.067-0.834,0.117-2.25,0.15-4.25c0-2.101,0.033-3.65,0.1-4.65c1.2-1.866,2-3,2.4-3.4c-0.366,1.7-0.55,4.317-0.55,7.851
		C153.1,148.7,152.816,155.95,152.85,160.95z M156.35,135.85c0.2,0.067,0.534,0.101,1,0.101c-0.3,0.366-0.55,0.583-0.75,0.649
		L156.35,135.85z"/>
	<path style="fill-rule:evenodd;clip-rule:evenodd;fill:#898074;" d="M170,130.25l0.75-0.3c-0.167,0.1-0.366,0.184-0.6,0.25
		C170.083,130.233,170.033,130.25,170,130.25z M147.5,163.25c0.267,0,0.566,0.017,0.9,0.05l0.1,0.05
		C148.134,163.316,147.8,163.283,147.5,163.25z M124.925,148.85c-0.54-0.003-1.065-0.036-1.575-0.1l1.051,0.05
		C124.575,148.829,124.75,148.846,124.925,148.85z M140.65,146.85l-0.051,2.5c0-0.533,0-1.017,0-1.449c0-1.467,0-2.434,0-2.9
		C140.667,145.566,140.684,146.184,140.65,146.85z M135.7,147.6c0.566-0.267,1.033-0.566,1.399-0.899l0.101,0.85v0.05
		C136.667,147.6,136.167,147.6,135.7,147.6z M128.8,148.8l2.65-0.25c-0.134,0.033-0.267,0.05-0.4,0.05
		C130.283,148.7,129.533,148.767,128.8,148.8z M122.85,132.1l-0.05,0.551c-0.033,0.267-0.066,0.566-0.1,0.899
		C122.733,133.05,122.783,132.566,122.85,132.1z M125.05,117.95c0.533-0.667,0.884-1.233,1.05-1.7c-0.166,0.5-0.483,1.033-0.949,1.6
		C125.116,117.884,125.083,117.917,125.05,117.95z M122.35,123.05c-0.033,0.2-0.066,0.417-0.1,0.65c-0.066,0.7-0.05,1.85,0.05,3.45
		c-0.1-1.101-0.149-1.75-0.149-1.95C122.15,124.4,122.217,123.684,122.35,123.05z M47.6,90.55c-0.434-1.366-0.617-3.267-0.55-5.7
		c0-0.333,0-0.666,0-1L47.2,70.1c0-1.533-0.05-2.633-0.15-3.3c-0.2-1.4-0.633-2.367-1.3-2.9c-0.4-0.3-0.883-0.483-1.45-0.55
		c-0.2-0.033-0.716-0.05-1.55-0.05v-3.15c0.033-2.566,0.467-6.117,1.3-10.65c0.333-1.767,0.617-3.35,0.85-4.75
		c2.3,0.333,4.483,0.4,6.55,0.2c0.066,0,0.15,0,0.25,0c-0.133,1-0.267,2.066-0.4,3.2c-0.8,5.934-1.233,9.184-1.3,9.75
		c-0.3,3.1-0.45,6.883-0.45,11.35c0.034,2.533,0.067,6.333,0.1,11.4c-0.033,3.867,0.2,7.683,0.7,11.45L50.7,95l-0.65-0.55
		c-0.533-0.5-1.017-1.084-1.45-1.75L47.6,90.55z M169.9,93l-0.15,6.05l0.05-9.1L169.9,93z M170.35,106.75l-0.05-2.4l0.05-1.8V106.75
		z M78.25,56.15L78.2,55.5c0.3,0.2,0.633,0.4,1,0.6l0.45,0.25c0,3,0.033,7.033,0.1,12.1c-0.067-1.633-0.217-3.367-0.45-5.2
		C79.2,62.317,78.85,59.95,78.25,56.15z M90.8,63.8l2.101,1.55c-0.534,0.3-1.034,0.65-1.5,1.05L90.8,67
		C90.8,65.967,90.8,64.9,90.8,63.8z M93.1,78.65C92.9,79.383,92.7,80.2,92.5,81.1c-0.2,1.067-0.517,2.65-0.95,4.75
		c-0.233,1.067-0.65,2.7-1.25,4.9l0.4-15.3c0-0.534,0.017-1.1,0.05-1.7c0.233,0.533,0.5,1.133,0.8,1.8
		c0.034,0.034,0.05,0.067,0.05,0.1l0.5,1.1C92.434,77.417,92.767,78.05,93.1,78.65z M108.8,112.45c0.9-3.7,1.533-6.467,1.9-8.3
		l0.85-4.45l0.55,1.649l-0.449-2.199V99.05l0.55-3.45v6.051l-0.101-0.301l0.101,0.5v2.051c0,2.1,0.083,4.483,0.25,7.149
		c-0.566,0.2-1.8,0.7-3.7,1.5L108.8,112.45z M55.1,64.65c-0.267-4.533-0.283-8.8-0.05-12.8l0.15-2.9
		c0.133,2.167,0.167,4.783,0.1,7.85C55.267,58.533,55.2,61.15,55.1,64.65z M144.2,142.65c-0.033,1.866-0.117,3.466-0.25,4.8
		l-0.05,0.45v-0.5c0.133-4.267,0.216-7.167,0.25-8.7C144.15,139.7,144.167,141.017,144.2,142.65z M132.6,137.15l0.051-2.801
		c0-0.633,0.017-1.316,0.05-2.05v3.55L132.6,137.15z"/>
	<polygon style="fill-rule:evenodd;clip-rule:evenodd;fill:#60574E;" points="170,129.6 170,130.05 170,130.25 169.7,129.5 	"/>
	<path style="fill-rule:evenodd;clip-rule:evenodd;fill:#7C7367;" d="M21.95,59c0.2,0.333,0.55,0.717,1.05,1.15
		c-0.4-0.066-0.783-0.183-1.15-0.35c-0.167-0.066-0.3-0.15-0.4-0.25c-0.3-0.167-0.517-0.367-0.65-0.6c0.167,0,0.333,0,0.5,0h0.05
		C21.55,58.95,21.75,58.967,21.95,59z M36.05,48.55c-0.5,0.467-1.117,0.934-1.85,1.4c-1.467,0.867-2.8,1.316-4,1.35
		c-1.4,0.034-2.567,0.034-3.5,0h-0.375c-0.134-0.004-0.259-0.021-0.375-0.05h-0.075c-0.156-0.001-0.314-0.018-0.475-0.05
		c-0.8-0.067-1.7-0.284-2.7-0.65c-0.667-0.233-1.167-0.483-1.5-0.75c-0.367-0.267-0.583-0.533-0.65-0.8
		c-0.033-0.067-0.05-0.133-0.05-0.2h0.05c0.1,0.2,0.25,0.367,0.45,0.5c0.267,0.233,0.683,0.367,1.25,0.4
		c1.133-0.067,1.9-0.083,2.3-0.05c0.267,0.033,0.8,0.184,1.6,0.45c0.667,0.233,1.217,0.316,1.65,0.25c0.233-0.033,0.567-0.15,1-0.35
		c0.4-0.2,0.733-0.317,1-0.35c0.3-0.066,0.7-0.083,1.2-0.05c0.533,0.033,0.917,0.05,1.15,0.05c0.867-0.033,1.5-0.367,1.9-1
		c0.434-0.833,0.8-1.517,1.1-2.05c1.067-1.7,1.767-2.917,2.1-3.65c0.133,0.033,0.267,0.066,0.4,0.1l0.15,0.05
		c-0.033,0.233-0.05,0.517-0.05,0.85c-0.067-0.167-0.15-0.3-0.25-0.4c-0.3,0.233-0.45,0.65-0.45,1.25c0,0.367,0.034,0.867,0.1,1.5
		L36.05,48.55z M91.5,41.05c3.434,0,6-0.033,7.7-0.1h0.649V41H99.7h-0.15c-1.967,0.333-4.416,0.867-7.35,1.6
		c-4.067,1.033-6.483,1.633-7.25,1.8L84,44.65c-0.967,0.2-1.617,0.383-1.95,0.55c-0.4,0.233-0.7,0.617-0.9,1.15l-0.4,0.1l-0.35,0.7
		l-1.1,0.3c-0.4,0.3-0.667,0.816-0.8,1.55c-0.1,0.733-0.317,1.2-0.65,1.4c-0.5,0.367-1.217,0.267-2.15-0.3
		c-1.133-0.833-2-1.4-2.6-1.7c0.933-0.066,2.017-0.2,3.25-0.4c0.933-0.2,1.583-0.7,1.95-1.5c0.3-1.067,0.6-1.883,0.9-2.45
		c0.933-0.966,1.716-1.617,2.35-1.95c0.367-0.1,1.45-0.15,3.25-0.15c1.633,0.167,2.95,0.25,3.95,0.25
		c1.867,0.066,3.033-0.217,3.5-0.85C92.05,41.217,91.8,41.117,91.5,41.05z M108.95,88.65c1.733,0.833,3.116,1.466,4.149,1.899
		c-0.3,1.533-0.6,3.217-0.899,5.05l-0.55,3.45v0.101l-0.101,0.55l-0.85,4.45c-0.367,1.833-1,4.6-1.9,8.3
		c-0.733-2.533-1.267-5.05-1.6-7.55c-0.101-1.434,0.033-3.217,0.399-5.351c0.467-2.366,0.767-4.133,0.9-5.3
		c0.167-1.333,0.283-3.217,0.35-5.65C108.884,88.634,108.917,88.65,108.95,88.65z M128.55,80.05c-0.133,0.067-0.25,0.133-0.35,0.2
		c0.066-0.5,0.133-0.933,0.2-1.3c0.033-0.467,0.05-0.867,0.05-1.2c0-0.9-0.167-1.8-0.5-2.7c1.2-0.7,2.133-1.267,2.8-1.7
		c1.634-0.967,2.934-1.9,3.9-2.8c-0.434,1.034-1.317,2.4-2.65,4.1c-1.434,1.833-2.384,3.2-2.85,4.1L128.6,79.9L128.55,80.05z
		 M70.55,48.55H71c-0.033,0.6,0,1.317,0.1,2.15C70.533,49.9,70.35,49.183,70.55,48.55z M26.2,59.15
		c0.133-0.833,0.216-1.867,0.25-3.1c0.1-0.267,0.167-0.55,0.2-0.85c0.033-0.1,0.05-0.2,0.05-0.3c0-0.133,0-0.25,0-0.35l0.05-0.85
		c0.433,0,0.767,0.017,1,0.05h0.4V53.4c0.2,0.233,0.3,0.567,0.3,1c0,0.3-0.067,0.667-0.2,1.1l-0.75,0.45
		c-0.2,0.233-0.367,0.583-0.5,1.05c-0.033,0.3-0.1,0.7-0.2,1.2c0.067,0.033,0.117,0.05,0.15,0.05c-0.167,0.233-0.35,0.467-0.55,0.7
		C26.333,59.017,26.267,59.083,26.2,59.15z"/>
	<path style="fill-rule:evenodd;clip-rule:evenodd;fill:#635B52;" d="M55.2,48.95l-0.15,2.9c-0.233,4-0.216,8.267,0.05,12.8
		c0.233,3.9,0.667,8.333,1.3,13.3c0.267,2.267,0.883,6.684,1.85,13.25l0.65,4.6c-0.467,0.233-1.033,0.4-1.7,0.5L52.65,96
		c-0.467-0.134-0.917-0.333-1.35-0.6c-0.033-0.034-0.083-0.067-0.15-0.101c-0.133-0.1-0.283-0.2-0.45-0.3l-0.35-2.9
		c-0.5-3.767-0.733-7.583-0.7-11.45c-0.033-5.066-0.066-8.867-0.1-11.4c0-4.467,0.15-8.25,0.45-11.35
		c0.067-0.566,0.5-3.816,1.3-9.75c0.133-1.133,0.267-2.2,0.4-3.2c0.033-0.034,0.066-0.034,0.1,0c1.133-0.1,2.333-0.067,3.6,0.1
		C55.333,46.317,55.267,47.617,55.2,48.95z M81.55,42.1c-0.667,0.167-1.216,0.5-1.65,1c-0.233,0.233-0.467,0.55-0.7,0.95
		c-0.3,0.567-0.6,1.383-0.9,2.45c-0.367,0.8-1.017,1.3-1.95,1.5c-1.233,0.2-2.317,0.333-3.25,0.4c0.6,0.3,1.467,0.867,2.6,1.7
		c0.933,0.566,1.65,0.667,2.15,0.3c0.333-0.2,0.55-0.667,0.65-1.4c0.133-0.733,0.4-1.25,0.8-1.55l1.1-0.3
		c-0.233,0.6-0.316,1.417-0.25,2.45l0.05,1.8l-0.05,0.55c-0.2,2.066-0.283,3.417-0.25,4.05l-0.5,0.05l-0.05,0.05H79.2
		c-0.367-0.2-0.7-0.4-1-0.6c-2.867-1.767-5.184-3.167-6.95-4.2c-2.067-1.233-3.983-2.267-5.75-3.1c-0.267-0.8-0.367-1.45-0.3-1.95
		c0.4-0.4,0.783-0.667,1.15-0.8c0.6-0.267,1.333-0.417,2.2-0.45c0.4,0,1.184,0.033,2.35,0.1l1.9,0.05L73.9,45H74l0.45-0.15
		c0.767-0.2,1.65-0.55,2.65-1.05c1.2-0.566,2.083-1,2.65-1.3c1.467-0.767,2.617-1.233,3.45-1.4l1.65-0.3
		c1.767-0.133,3.183-0.167,4.25-0.1c1,0.066,1.8,0.183,2.4,0.35c0.3,0.067,0.55,0.167,0.75,0.3c-0.467,0.633-1.633,0.917-3.5,0.85
		c-1,0-2.317-0.083-3.95-0.25C83,41.95,81.917,42,81.55,42.1z M70.55,48.55c-0.2,0.633-0.017,1.35,0.55,2.15
		c-0.1-0.833-0.133-1.55-0.1-2.15H70.55z M24.8,48.6l4.15-0.3c1.3-0.033,2.267-0.117,2.9-0.25c1.133-0.2,1.967-0.6,2.5-1.2
		c0.5-0.6,0.983-1.7,1.45-3.3c0.1-0.367,0.2-0.716,0.3-1.05l0.4,0.15c0.233,0.1,0.483,0.2,0.75,0.3
		c-0.333,0.733-1.033,1.95-2.1,3.65c-0.3,0.533-0.667,1.217-1.1,2.05c-0.4,0.633-1.033,0.967-1.9,1c-0.233,0-0.617-0.017-1.15-0.05
		c-0.5-0.033-0.9-0.017-1.2,0.05c-0.267,0.033-0.6,0.15-1,0.35c-0.433,0.2-0.767,0.317-1,0.35c-0.433,0.066-0.983-0.017-1.65-0.25
		c-0.8-0.267-1.333-0.417-1.6-0.45c-0.4-0.033-1.167-0.017-2.3,0.05c-0.567-0.034-0.983-0.167-1.25-0.4
		c-0.2-0.133-0.35-0.3-0.45-0.5c0.2,0,0.417,0,0.65,0c0.367,0,0.783-0.017,1.25-0.05h0.4v0.3c0.633-0.033,1.3-0.033,2,0L24.8,48.6z
		 M26.45,56.05c-0.034,1.233-0.117,2.267-0.25,3.1c-0.267,1.767-0.7,2.7-1.3,2.8c-0.233-0.367-0.8-0.917-1.7-1.65
		c-0.067-0.066-0.133-0.117-0.2-0.15c-0.5-0.433-0.85-0.816-1.05-1.15c1.133,0,2.05-0.217,2.75-0.65
		C25.567,57.85,26.15,57.083,26.45,56.05z"/>
	<path style="fill-rule:evenodd;clip-rule:evenodd;fill:#D2C8BA;" d="M15.65,22.25c-0.933-0.067-1.816-0.083-2.65-0.05
		c-0.267-1.067-0.317-1.967-0.15-2.7c0.133-0.567,1.033-1.983,2.7-4.25c1.267-1.733,1.633-3.333,1.1-4.8
		c-0.566-1.5-0.683-2.833-0.35-4l1.6-2.55c0.3-0.233,0.617-0.467,0.95-0.7c-0.367,1.966-0.55,3.033-0.55,3.2
		c-0.1,1.2,0.05,2.35,0.45,3.45c0.6,1.633,0.6,3.183,0,4.65c-0.367,0.867-1.117,2.317-2.25,4.35
		C15.967,19.983,15.683,21.117,15.65,22.25z M80.35,51.15l-0.2-1.55c-0.066-1.033,0.017-1.85,0.25-2.45l0.35-0.7l0.4-0.1l3.5-1
		L99.7,41h0.149v-0.05l3.45-1c-0.467,0.5-1.066,0.867-1.8,1.1c-0.767,0.267-1.967,0.534-3.6,0.8c-0.834,0.233-1.75,0.6-2.75,1.1
		c-0.601,0.3-1.483,0.767-2.65,1.4c-0.7,0.367-2,0.883-3.9,1.55c-1.967,0.633-3.383,1.184-4.25,1.65
		c-1.867,1.034-2.934,2.317-3.2,3.85c-0.233,0.2-0.5,0.2-0.8,0V51.15z M79.65,56.35L79.2,56.1h0.15l0.05-0.05L79.9,56h0.15
		c0.4,0.033,0.95,0.183,1.65,0.45c0.8,0.333,1.283,0.517,1.45,0.55c3.2,0.833,5.5,1.483,6.9,1.95c2.601,0.867,4.767,1.867,6.5,3
		c0.634,0.4,1.434,0.933,2.4,1.6c-0.634,0.067-1.25,0.15-1.851,0.25c-1.566,0.3-2.966,0.817-4.199,1.55L90.8,63.8
		c-1.9-1.433-3.566-2.65-5-3.65c-2.267-1.566-3.95-2.633-5.05-3.2L79.65,56.35z M129.85,84.55c-0.767-0.3-1.517-0.6-2.25-0.899
		c-0.1-0.067-0.199-0.117-0.3-0.15c0.167-0.467,0.316-0.95,0.45-1.45l0.15-0.5c0.1-0.466,0.199-0.9,0.3-1.3
		c0.1-0.067,0.217-0.133,0.35-0.2c1.667-0.667,2.667-1.05,3-1.15c-0.6,0.6-1.083,1.5-1.45,2.7l-0.25,1.35
		c-0.1,0.633-0.05,1.166,0.15,1.6v0.05C129.934,84.566,129.884,84.55,129.85,84.55z M36.1,42.5c0.333-1.267,0.566-2.133,0.7-2.6
		c0.034-0.066,0.067-0.133,0.1-0.2c0.434,0.233,0.85,0.483,1.25,0.75c3.067,1.933,7.817,2.933,14.25,3l0.7,0.05
		c3.833,0.067,6.85,0.383,9.05,0.95h0.05c0.8,0.2,1.367,0.283,1.7,0.25c0.233-0.034,0.783-0.233,1.65-0.6
		c1.034-0.4,2.1-0.65,3.2-0.75c1.367-0.133,2.4,0.033,3.1,0.5c-0.5,0.066-1.583,0.133-3.25,0.2c-1.533,0.167-2.517,0.483-2.95,0.95
		l-0.2,0.35c-0.167,0.267-0.25,0.566-0.25,0.9c-0.067,0.5,0.033,1.15,0.3,1.95c-0.333-0.167-0.667-0.317-1-0.45l-1.6-0.7
		c-2.7-1.066-5.2-1.733-7.5-2c-1.267-0.167-2.467-0.2-3.6-0.1c-0.033-0.034-0.066-0.034-0.1,0c-0.1,0-0.184,0-0.25,0
		c-2.067,0.2-4.25,0.133-6.55-0.2c-1.7-0.233-3.467-0.6-5.3-1.1c-0.5-0.167-0.983-0.316-1.45-0.45c-0.133-0.034-0.25-0.067-0.35-0.1
		l-0.15-0.05c-0.4-0.133-0.783-0.267-1.15-0.4L36.1,42.5z"/>
	<path style="fill-rule:evenodd;clip-rule:evenodd;fill:#BDB9AE;" d="M21.15,51.65h1l0.3-0.25c0,0.033-0.284,0.434-0.85,1.2
		c-0.367,0.433-0.717,0.767-1.05,1c-0.466,0.3-1.283,0.417-2.45,0.35h-0.05c0.167-0.534,0.333-0.917,0.5-1.15
		c0.267-0.4,0.567-0.7,0.9-0.9l0.1,0.35c0.333,0.133,0.65,0.15,0.95,0.05C20.833,52.2,21.05,51.983,21.15,51.65z M105.05,68.65
		c-0.666,0.533-1.184,1.283-1.55,2.25c-0.167,0.434-0.2,0.817-0.1,1.15c-0.367-0.367-0.551-0.816-0.551-1.35
		c-0.033-0.633,0.2-1.1,0.7-1.4C104.217,69.033,104.717,68.817,105.05,68.65z M120.25,68.05l-0.2,0.3
		c-0.2,0.267-0.416,0.467-0.649,0.6l-0.45,0.2h-0.75c0.8,0.967,0.85,1.85,0.149,2.65c-0.5,0.534-1.416,1.067-2.75,1.6
		c-0.533,0.2-1.316,0.567-2.35,1.1l-0.35,0.1c-0.467,0.2-0.967,0.316-1.5,0.35c-0.767,0.066-1.617-0.1-2.551-0.5l-0.5-0.2L107.8,74
		c-0.5-0.2-1.467-0.533-2.899-1l1.449,0.3c1.301,0.434,2.284,0.7,2.95,0.8c1.167,0.167,2.084-0.05,2.75-0.65
		c-0.434-0.267-1.483-0.583-3.149-0.95c-1.434-0.467-2.134-1.2-2.101-2.2c0-0.367,0.15-0.733,0.45-1.1
		c-0.333,0.833-0.134,1.533,0.6,2.1c0.467,0.3,1.15,0.467,2.051,0.5c0.833,0.034,1.517-0.05,2.05-0.25c0.467-0.2,0.883-0.533,1.25-1
		c0.467-0.6,0.583-1.167,0.35-1.7c-0.133-0.333-0.55-0.583-1.25-0.75c1,0.066,1.8,0.183,2.4,0.35l-0.851-0.55L114.2,68l-0.5-0.2
		l-0.75-0.45l-1-0.2c-1.767-0.633-3.033-0.95-3.8-0.95c-0.467,0-1.101,0.216-1.9,0.65c-0.767,0.433-1.4,0.6-1.9,0.5
		c-0.366-0.067-0.866-0.317-1.5-0.75c-0.066-0.033-0.966-0.25-2.699-0.65c-1.567-0.4-2.45-0.6-2.65-0.6c-0.9-0.133-1.733,0-2.5,0.4
		c-1.366,0.767-2.083,1.167-2.15,1.2c-1.033,0.433-1.75,0.483-2.149,0.15l0.1-0.1l0.6-0.6c0.467-0.4,0.966-0.75,1.5-1.05
		c1.233-0.733,2.633-1.25,4.199-1.55l-0.55,0.5c1.267,0.6,3.05,0.95,5.351,1.05c3.1,0.1,4.933,0.2,5.5,0.3
		c1.066,0.233,1.85,0.4,2.35,0.5c0.9,0.167,1.684,0.267,2.35,0.3c0.601,0.033,1.267-0.017,2-0.15c0.067-0.033,0.134-0.05,0.2-0.05
		l5.65,1.45C120.017,67.833,120.116,67.95,120.25,68.05z M106.25,67.85c0.8-0.633,1.217-0.967,1.25-1
		c0.467-0.233,1.066-0.25,1.8-0.05l0.3,0.1l-0.3,0.15C108.1,67.15,107.083,67.417,106.25,67.85z M109.6,66.9l0.601,0.15h-0.55
		L109.6,66.9z M97.6,68.3l0.15-0.2c0.267-0.233,0.9-0.2,1.9,0.1l0.35,0.1l-0.1,0.4L99.6,69.95c-0.767-0.167-1.267-0.3-1.5-0.4
		c-0.6-0.267-0.783-0.65-0.55-1.15L97.6,68.3z M92.75,71.75c0.467-0.633,1.366-0.7,2.7-0.2c0.5,0.167,1.649,0.733,3.45,1.7
		c0.866,0.433,1.466,0.667,1.8,0.7v1.1v0.3c-0.334,0.533-0.983,0.816-1.95,0.85c-0.866,0-1.833-0.184-2.9-0.55
		c-1.1-0.4-1.966-0.9-2.6-1.5c-0.7-0.667-0.95-1.316-0.75-1.95c-0.066,0.4,0.217,0.767,0.85,1.1c0.134,0.067,0.617,0.25,1.45,0.55
		c1.066,0.367,2.017,0.583,2.851,0.65c0.833,0.067,1.816,0,2.949-0.2L98.4,73.4c-0.334-0.1-1.267-0.417-2.801-0.95
		C94.467,72.05,93.517,71.817,92.75,71.75z M114.85,70.4c-0.233,0.167-0.283,0.434-0.149,0.8c0.366,1.066,1.05,1.117,2.05,0.15
		l-0.5-0.8C115.616,70.25,115.15,70.2,114.85,70.4z M116.75,75.5l1.5-0.35l0.65,1.55c-0.2,1.733-1.534,2.433-4,2.1
		c-1.2-0.2-1.983-0.367-2.351-0.5c-0.934-0.367-1.333-0.933-1.2-1.7l0.15-0.35c0.134-0.4,0.417-0.633,0.85-0.7
		c-0.133,0.2-0.199,0.383-0.199,0.55c-0.034,0.4,0.149,0.683,0.55,0.85c0.5,0.1,0.866,0.167,1.1,0.2c1.767,0.467,3.2,0.017,4.3-1.35
		L116.75,75.5z M18.6,36.75l1.55,0.2c-0.066,0.733-0.717,1.117-1.95,1.15c-0.667,0-1.567-0.05-2.7-0.15
		c-1.533,0.133-2.75,0.333-3.65,0.6c-0.6,0.167-1.15,0.483-1.65,0.95c-0.8,0.867-1.25,1.333-1.35,1.4c-0.6,0.467-0.917,0.7-0.95,0.7
		c-0.367,0.167-0.75-0.017-1.15-0.55c-0.2-0.267-0.267-0.566-0.2-0.9c0.034-0.167,0.15-0.533,0.35-1.1
		c0.2-0.6,0.417-1.083,0.65-1.45L7.5,38.25c0.5,0.133,1.05,0.067,1.65-0.2c0.9-0.433,1.434-0.667,1.6-0.7
		c0.4-0.067,0.917-0.1,1.55-0.1c0.7,0.033,1.217,0.05,1.55,0.05c0.9,0.067,1.633,0.117,2.2,0.15c1.067,0.066,1.767,0,2.1-0.2
		C18.35,37.083,18.5,36.917,18.6,36.75z M19.8,40.65c-0.367,0.367-0.8,0.45-1.3,0.25c-0.033-0.533,0.4-0.95,1.3-1.25V40.65z"/>
	<path style="fill-rule:evenodd;clip-rule:evenodd;fill:#D2CDC1;" d="M19.45,51.9c0.3-0.2,0.8-0.367,1.5-0.5
		c0.066-0.033,0.133-0.05,0.2-0.05v0.05v0.25c-0.1,0.333-0.316,0.55-0.65,0.65c-0.3,0.1-0.617,0.083-0.95-0.05L19.45,51.9z
		 M15.85,24.05c-1.6,1.934-3.983,2.9-7.15,2.9c-0.434,0.033-1.45,0.1-3.05,0.2c-1.533,0.033-2.566-0.167-3.1-0.6
		c0.133-0.1,0.267-0.2,0.4-0.3c0.033-0.067,0.066-0.117,0.1-0.15L4,25.45c0.5-0.367,1.067-0.7,1.7-1
		c1.767-0.867,2.683-1.317,2.75-1.35c1-0.434,1.95-0.7,2.85-0.8l4.2-0.05c0.067,0,0.117,0,0.15,0h0.1
		c0.073,0.001,0.173,0.018,0.3,0.05l0.9,0.05l-0.25,0.4L15.85,24.05z M97.1,63.8c0.601-0.1,1.217-0.183,1.851-0.25
		c1.967-0.133,4.217,0.034,6.75,0.5c1.434,0.3,4.3,1.034,8.6,2.2c-0.066,0-0.133,0.017-0.2,0.05c-0.733,0.133-1.399,0.184-2,0.15
		c-0.666-0.034-1.449-0.133-2.35-0.3c-0.5-0.1-1.283-0.267-2.35-0.5c-0.567-0.1-2.4-0.2-5.5-0.3c-2.301-0.1-4.084-0.45-5.351-1.05
		L97.1,63.8z M106.25,67.85c0.833-0.434,1.85-0.7,3.05-0.8l0.3-0.15l0.051,0.15h0.55c0.434,0,1.017,0.034,1.75,0.1l1,0.2l0.75,0.45
		l0.149,0.1l0.851,0.55c-0.601-0.167-1.4-0.284-2.4-0.35c0.7,0.167,1.117,0.417,1.25,0.75c0.233,0.533,0.117,1.1-0.35,1.7
		c-0.367,0.467-0.783,0.8-1.25,1c-0.533,0.2-1.217,0.284-2.05,0.25c-0.9-0.033-1.584-0.2-2.051-0.5
		c-0.733-0.566-0.933-1.267-0.6-2.1c-0.3,0.367-0.45,0.733-0.45,1.1c-0.033,1,0.667,1.733,2.101,2.2
		c1.666,0.367,2.716,0.683,3.149,0.95c-0.666,0.6-1.583,0.816-2.75,0.65c-0.666-0.1-1.649-0.367-2.95-0.8L104.9,73
		c-0.867-0.2-1.367-0.517-1.5-0.95c-0.101-0.333-0.067-0.716,0.1-1.15c0.366-0.967,0.884-1.717,1.55-2.25
		C105.483,68.283,105.884,68.017,106.25,67.85z M114.85,70.4c0.301-0.2,0.767-0.15,1.4,0.15l0.5,0.8c-1,0.967-1.684,0.917-2.05-0.15
		C114.566,70.833,114.616,70.567,114.85,70.4z M113.15,75.15c0.866-0.2,1.966-0.117,3.3,0.25l0.3,0.1l1.35,0.3
		c-1.1,1.367-2.533,1.817-4.3,1.35c-0.233-0.033-0.6-0.1-1.1-0.2c-0.4-0.167-0.584-0.45-0.55-0.85c0-0.167,0.066-0.35,0.199-0.55
		C112.583,75.317,112.85,75.183,113.15,75.15z M92.5,72.2l0.05-0.15L92.6,72l0.101-0.25h0.05c0.767,0.067,1.717,0.3,2.85,0.7
		c1.534,0.533,2.467,0.85,2.801,0.95l2.199,0.9c-1.133,0.2-2.116,0.267-2.949,0.2c-0.834-0.067-1.784-0.283-2.851-0.65
		c-0.833-0.3-1.316-0.483-1.45-0.55C92.717,72.967,92.434,72.6,92.5,72.2z M34.75,33.65l-8.5,1.05c-3.9,0.466-6.95,0.45-9.15-0.05
		l-0.55-0.1L10.7,32.4c-0.667-0.3-1.85-0.583-3.55-0.85c-0.533-0.066-1.517-0.383-2.95-0.95c-1-0.367-1.817-0.583-2.45-0.65
		c3.233,0.1,5.583,0.333,7.05,0.7c0.333,0.067,0.817,0.15,1.45,0.25c0.133,0.033,0.267,0.083,0.4,0.15c2.4,1.267,4.133,2.1,5.2,2.5
		c1.767,0.667,3.667,0.9,5.7,0.7c2.867-0.367,5.034-0.65,6.5-0.85c2.667-0.367,4.867-0.533,6.6-0.5l0.05,0.05l0.05,0.1
		c0.133,0.133,0.317,0.3,0.55,0.5h-0.05L34.75,33.65z M17.55,27.6c-0.3-0.567,0.167-1.233,1.4-2c1.133-0.7,1.983-1.017,2.55-0.95
		l5.3,1c-0.6,0.167-1.55,0.583-2.85,1.25c-1.2,0.6-2.167,0.967-2.9,1.1c-0.533,0.1-1.133,0.133-1.8,0.1c-0.4,0-0.733-0.033-1-0.1
		C17.883,27.9,17.65,27.767,17.55,27.6z M18.85,35.3h0.95l-0.4,0.2c-0.167,0.2-0.267,0.317-0.3,0.35l-0.3,0.6l-0.2,0.3
		c-0.1,0.167-0.25,0.333-0.45,0.5c-0.333,0.2-1.033,0.267-2.1,0.2c-0.566-0.034-1.3-0.083-2.2-0.15c-0.333,0-0.85-0.017-1.55-0.05
		c-0.633,0-1.15,0.033-1.55,0.1c-0.167,0.033-0.7,0.267-1.6,0.7c-0.6,0.267-1.15,0.333-1.65,0.2l0.05-0.65
		c0.133-0.733,0.583-1.333,1.35-1.8c0.733-0.433,1.483-0.6,2.25-0.5h1.3H18.85z"/>
	<path style="fill-rule:evenodd;clip-rule:evenodd;fill:#B2AEA3;" d="M21.5,51.35c0.5-0.033,1.233-0.05,2.2-0.05h1.9
		c-0.167,0.067-0.283,0.233-0.35,0.5c-0.133,0.633-0.25,1.017-0.35,1.15l-0.3,0.25l-0.55-0.5c-0.966-0.7-1.617-0.65-1.95,0.15
		c0,0.033,0.083,0.883,0.25,2.55c0.1,0.967-0.467,1.4-1.7,1.3c0.467,0.3,0.75,0.466,0.85,0.5c-1.067,0.167-2.333,0.066-3.8-0.3
		c0-0.433,0.033-0.917,0.1-1.45c0.067-0.567,0.167-1.067,0.3-1.5c1.167,0.066,1.983-0.05,2.45-0.35c0.333-0.233,0.684-0.567,1.05-1
		c0.566-0.767,0.85-1.167,0.85-1.2l-0.3,0.25h-1V51.4C21.25,51.367,21.367,51.35,21.5,51.35z M20.95,51.4
		c-0.7,0.133-1.2,0.3-1.5,0.5c-0.333,0.2-0.633,0.5-0.9,0.9c0.467-0.767,1.233-1.233,2.3-1.4C20.883,51.4,20.917,51.4,20.95,51.4z
		 M6.95,42.7c0.1,0.033,0.216,0.083,0.35,0.15L7.55,43C7.35,42.9,7.15,42.8,6.95,42.7z M8.15,30.2c0.767,0.167,1.467,0.4,2.1,0.7
		c-0.633-0.1-1.117-0.183-1.45-0.25c-1.466-0.367-3.816-0.6-7.05-0.7c0.633,0.066,1.45,0.283,2.45,0.65
		c1.433,0.566,2.417,0.883,2.95,0.95c1.7,0.267,2.883,0.55,3.55,0.85l5.85,2.15l-1.85-0.6l-3.35-1.3l0.2,0.2l-0.35-0.2
		c-0.367,1.133,0.05,2.017,1.25,2.65h-1.3c-0.767-0.1-1.517,0.067-2.25,0.5c-0.767,0.467-1.217,1.067-1.35,1.8
		c-0.233,0.367-0.45,0.85-0.65,1.45c-0.2,0.567-0.316,0.934-0.35,1.1c-0.066,0.333,0,0.633,0.2,0.9c0.4,0.534,0.783,0.717,1.15,0.55
		c0.033,0,0.35-0.233,0.95-0.7c0.1-0.066,0.55-0.533,1.35-1.4c0.5-0.467,1.05-0.783,1.65-0.95c0.9-0.267,2.117-0.466,3.65-0.6
		c1.133,0.1,2.033,0.15,2.7,0.15c1.233-0.033,1.883-0.417,1.95-1.15l-1.55-0.2l0.2-0.3c0.333,0.033,1.034,0.05,2.1,0.05
		c0.9,0.033,1.633,0.1,2.2,0.2c0.066,0.267,0.167,0.633,0.3,1.1c0.1,0.4,0.117,0.767,0.05,1.1c-1.133,0.033-1.75,0.4-1.85,1.1
		c-0.167,1.3-0.333,2.067-0.5,2.3c-0.934,1.467-3.367,2.25-7.3,2.35c-0.966,0-1.733-0.083-2.3-0.25
		c-0.667-0.233-1.317-0.633-1.95-1.2c-0.833-0.7-1.267-1.067-1.3-1.1c-0.467-0.3-0.967-0.467-1.5-0.5c-0.4-0.8-0.833-1.333-1.3-1.6
		c-0.167-0.1-0.5-0.183-1-0.25c-0.434-0.067-0.75-0.2-0.95-0.4c0.333-0.067,0.833-0.083,1.5-0.05c0.667,0,1.15-0.017,1.45-0.05
		c-0.2-0.267-0.633-0.5-1.3-0.7c-0.7-0.2-1.183-0.417-1.45-0.65c-0.5-0.4-1.034-1.133-1.6-2.2c0.066,0.8,0.083,1.25,0.05,1.35
		C2.083,37.283,1.8,37.467,1.3,37.6c0.1,0.233,0.2,0.467,0.3,0.7c-0.1-0.2-0.2-0.417-0.3-0.65c-0.5-1.133-0.833-2.083-1-2.85
		c-0.466-2-0.383-3.783,0.25-5.35c2.267,0.1,3.967,0.2,5.1,0.3c0.567,0.067,1.133,0.15,1.7,0.25c0.1,0.033,0.2,0.067,0.3,0.1
		L8.15,30.2z M13,22.2c0.833-0.034,1.717-0.017,2.65,0.05c-0.033,0-0.083,0-0.15,0l-4.2,0.05C11.833,22.267,12.4,22.233,13,22.2z
		 M120.25,68.05c0.434,0.4,1.1,0.8,2,1.2c0.634,0.3,1.15,0.55,1.55,0.75c-0.434-0.2-1.083-0.5-1.95-0.9l-0.1,0.05
		c-0.566-0.333-1.134-0.6-1.7-0.8L120.25,68.05z M105.05,68.65c-0.333,0.167-0.833,0.383-1.5,0.65c-0.5,0.3-0.733,0.767-0.7,1.4
		c0,0.533,0.184,0.983,0.551,1.35c0.133,0.434,0.633,0.75,1.5,0.95c1.433,0.467,2.399,0.8,2.899,1l0.55,0.25l-2.55-0.4l-0.6-0.15
		c-0.167-0.067-0.601-0.4-1.3-1c-0.5-0.434-0.95-0.65-1.351-0.65l0.05,1l-0.75-0.15c-0.8-0.066-1.783,0.05-2.949,0.35
		c-1.801-0.967-2.95-1.533-3.45-1.7c-1.334-0.5-2.233-0.433-2.7,0.2H92.7L92.6,72l-0.05,0.05L92.5,72.2
		c-0.2,0.633,0.05,1.283,0.75,1.95c0.634,0.6,1.5,1.1,2.6,1.5c1.067,0.367,2.034,0.55,2.9,0.55c0.967-0.034,1.616-0.317,1.95-0.85
		v-0.3c0.833,0.167,1.483,0.45,1.95,0.85c-0.634,0.867-1.767,1.233-3.4,1.1c-1.566-0.1-2.7-0.55-3.4-1.35
		c0,0.233-0.116,0.6-0.35,1.1c-0.866-0.033-1.684-0.417-2.45-1.15c-0.767-0.7-1.25-1.5-1.45-2.4c-0.2,0.667-0.217,1.45-0.05,2.35
		c-0.3-0.667-0.566-1.267-0.8-1.8c-0.6-1.367-0.95-2.333-1.05-2.9c-0.267-1.467,0.066-2.717,1-3.75
		c0.4,0.333,1.117,0.283,2.149-0.15c0.067-0.034,0.784-0.434,2.15-1.2c0.767-0.4,1.6-0.533,2.5-0.4c0.2,0,1.083,0.2,2.65,0.6
		c1.733,0.4,2.633,0.617,2.699,0.65c0.634,0.433,1.134,0.683,1.5,0.75c0.5,0.1,1.134-0.067,1.9-0.5c0.8-0.434,1.434-0.65,1.9-0.65
		c0.767,0,2.033,0.316,3.8,0.95c-0.733-0.066-1.316-0.1-1.75-0.1L109.6,66.9l-0.3-0.1c-0.733-0.2-1.333-0.183-1.8,0.05
		c-0.033,0.033-0.45,0.367-1.25,1C105.884,68.017,105.483,68.283,105.05,68.65z M113.85,67.9l-0.149-0.1l0.5,0.2L113.85,67.9z
		 M99.9,68.7c0.767,0.033,1.566-0.017,2.399-0.15c0.767-0.1,1.267-0.216,1.5-0.35l-0.399-1.1c-0.334,0.066-1.584-0.067-3.75-0.4
		c-2-0.167-2.95,0.083-2.851,0.75c0.101,0.333,0.367,0.617,0.8,0.85l-0.05,0.1c-0.233,0.5-0.05,0.883,0.55,1.15
		c0.233,0.1,0.733,0.233,1.5,0.4L99.9,68.7z M113.7,74.65l0.149-0.2l-0.6,0.05c1.033-0.533,1.816-0.9,2.35-1.1
		c1.334-0.533,2.25-1.066,2.75-1.6c0.7-0.8,0.65-1.683-0.149-2.65h0.75l0.45-0.2c0.1,0.267,0.416,0.733,0.949,1.4
		c0.434,0.6,0.684,1.066,0.75,1.4c0.067,0.333-0.116,1.083-0.55,2.25c-0.033,0.167-0.184,0.55-0.45,1.15
		c-0.233,0.434-0.35,0.8-0.35,1.1s0.134,0.717,0.4,1.25c0.267,0.5,0.366,0.933,0.3,1.3c-0.101,0.867-0.783,1.45-2.05,1.75
		c-1,0.267-2,0.3-3,0.1c-0.233-0.033-0.717-0.117-1.45-0.25c-0.7-0.133-1.167-0.3-1.4-0.5c-0.1-0.1-0.184-0.267-0.25-0.5
		c-0.066-0.3-0.133-0.483-0.2-0.55c-0.3-0.233-0.683-0.434-1.149-0.6l-1.25-0.4c0.233-0.533,0.833-1.067,1.8-1.6l-0.15,0.35
		c-0.133,0.767,0.267,1.333,1.2,1.7c0.367,0.133,1.15,0.3,2.351,0.5c2.466,0.333,3.8-0.367,4-2.1l-0.65-1.55l-1.5,0.35l-0.3-0.1
		c-1.334-0.367-2.434-0.45-3.3-0.25V75.1l1.75-0.4L113.7,74.65z M100.6,85.45c0.067,0.033,0.134,0.066,0.2,0.1
		c-0.267-0.1-0.5-0.2-0.7-0.3C100.267,85.316,100.434,85.384,100.6,85.45z M127.95,75.05c0.333,0.9,0.5,1.8,0.5,2.7
		c0,0.333-0.017,0.733-0.05,1.2c0-0.2,0-0.383,0-0.55c0.066-1.2-0.101-2.333-0.5-3.4c-0.167-0.433-0.367-0.867-0.601-1.3l0.05,0.05
		C127.583,74.183,127.783,74.617,127.95,75.05z M16.05,22.3c-0.127-0.032-0.227-0.048-0.3-0.05c0.037,0,0.07,0,0.1,0
		C15.917,22.25,15.983,22.267,16.05,22.3z M19.8,40.65v-1c-0.9,0.3-1.333,0.717-1.3,1.25C19,41.1,19.433,41.017,19.8,40.65z
		 M36.8,39.9c0.067-0.233,0.133-0.45,0.2-0.65c-0.033,0.133-0.067,0.283-0.1,0.45C36.867,39.767,36.833,39.833,36.8,39.9z
		 M26.325,51.3H26.7c0,0.067,0,0.133,0,0.2l-0.3-0.15h-0.05l-0.2-0.05H26.325z M25.05,58.1c0.833-0.667,1.367-1.633,1.6-2.9
		c-0.033,0.3-0.1,0.583-0.2,0.85c-0.3,1.034-0.883,1.8-1.75,2.3L25,58.1H25.05z"/>
	<path style="fill-rule:evenodd;clip-rule:evenodd;fill:#8B897F;" d="M24.8,48.6l0.05,0.45c-0.7-0.033-1.367-0.033-2,0v-0.3h-0.4
		c-0.467,0.033-0.883,0.05-1.25,0.05c-0.233,0-0.45,0-0.65,0H20.5c-0.833,0-1.6-0.033-2.3-0.1h-0.25
		c-0.127-0.032-0.228-0.049-0.3-0.05h0.15c3.034-0.1,5.317-0.117,6.85-0.05C24.683,48.6,24.733,48.6,24.8,48.6z M23.05,46.7
		c-0.4,0.066-0.983,0.216-1.75,0.45c-0.767,0.2-1.367,0.333-1.8,0.4c-1.9,0.2-3.467,0.233-4.7,0.1c-0.633-0.1-1.55-0.333-2.75-0.7
		c-0.033-0.034-0.066-0.05-0.1-0.05c-0.133-0.1-0.3-0.25-0.5-0.45c-0.167-0.133-0.317-0.267-0.45-0.4
		c-0.033-0.033-0.067-0.066-0.1-0.1c-0.3-0.3-0.633-0.633-1-1h0.05c1.033-0.067,2.333-0.083,3.9-0.05
		c1.767,0.033,3.083,0.05,3.95,0.05c1.534,0,2.55-0.1,3.05-0.3c0.3-0.1,0.85-0.4,1.65-0.9c0.667-0.433,1.2-0.683,1.6-0.75
		c-0.133,0.5-0.434,1-0.9,1.5c-0.467,0.467-0.95,0.817-1.45,1.05c-0.233,0.1-0.9,0.217-2,0.35c-0.867,0.067-1.4,0.283-1.6,0.65
		C19.317,46.783,20.95,46.833,23.05,46.7z M7.3,42.85c-0.133-0.067-0.25-0.117-0.35-0.15c-0.9-0.4-1.583-0.717-2.05-0.95
		C4.1,41.35,3.467,40.9,3,40.4l-0.2-0.2c-0.367-0.434-0.767-1.067-1.2-1.9c-0.1-0.233-0.2-0.466-0.3-0.7
		c0.5-0.133,0.784-0.317,0.85-0.55c0.033-0.1,0.017-0.55-0.05-1.35c0.566,1.066,1.1,1.8,1.6,2.2c0.267,0.233,0.75,0.45,1.45,0.65
		c0.667,0.2,1.1,0.434,1.3,0.7C6.15,39.283,5.667,39.3,5,39.3c-0.667-0.033-1.167-0.017-1.5,0.05c0.2,0.2,0.517,0.333,0.95,0.4
		c0.5,0.067,0.833,0.15,1,0.25c0.466,0.267,0.9,0.8,1.3,1.6L7.3,42.85z M124.45,70.3l0.3,0.2c0,0.033,0.017,0.05,0.05,0.05
		c0.032,0,0.049,0.017,0.05,0.05c0.801,0.6,1.551,1.5,2.25,2.7c0.034,0.1,0.084,0.2,0.15,0.3l0.05,0.1
		c0.233,0.433,0.434,0.867,0.601,1.3c-0.267,1.967-0.434,3.1-0.5,3.4c-0.067,0.3-0.184,1.017-0.351,2.15
		c-0.166,1.067-0.399,1.733-0.7,2c-0.033,0.033-0.783,0.351-2.25,0.95c-0.199,0.033-0.5,0.033-0.899,0
		c-0.4-0.066-0.684-0.066-0.851,0c-0.3,0.134-0.699,0.634-1.199,1.5s-1,1.384-1.5,1.55c-0.5,0.167-1.233,0.101-2.2-0.2
		c-1.233-0.333-2-0.517-2.3-0.55c1.6,0.934,1.899,1.667,0.899,2.2c-0.934,0.5-2.066,0.566-3.399,0.2c-0.601-0.167-1.483-0.5-2.65-1
		c-1.1-0.5-2-0.834-2.7-1c-0.566-0.134-1.6-0.25-3.1-0.351c-1.667-0.133-2.867-0.267-3.601-0.399c-0.166-0.066-0.333-0.134-0.5-0.2
		l-3.199-1.9c-0.301-0.233-0.567-0.466-0.801-0.699C95.9,82.483,95.717,82.3,95.55,82.1c-0.833-0.899-1.649-2.05-2.45-3.45
		c-0.333-0.6-0.666-1.233-1-1.9h0.051c0.366,0.133,0.949,0.45,1.75,0.95c0.767,0.466,1.399,0.767,1.899,0.9
		c2.267,0.6,3.967,1,5.101,1.2c-0.767,0.333-1.934,0.583-3.5,0.75c0.033,0.5,1.416,1.067,4.149,1.7
		c3.267,0.733,4.95,1.116,5.05,1.15c0.534,0.233,1.2,0.75,2,1.55c0.801,0.767,1.483,1.267,2.051,1.5
		c1.1,0.467,1.983,0.816,2.649,1.05c1.267,0.4,2.117,0.467,2.55,0.2c-0.199-0.101-0.683-0.2-1.449-0.3
		c-0.7-0.101-1.167-0.25-1.4-0.45c-0.2-0.167-0.384-0.5-0.55-1c-0.167-0.533-0.334-0.9-0.5-1.101l-1.7-1.85
		c-0.533-0.733-0.667-1.483-0.4-2.25c0.634,0.667,1.65,1.233,3.051,1.7c1.933,0.666,3.483,0.916,4.649,0.75l-0.3,0.25
		c-0.167,0.1-0.733,0.116-1.7,0.05c-0.767-0.066-1.149,0.134-1.149,0.6c2.699,1.2,4.933,1.167,6.699-0.1
		c0.467-0.366,0.784-0.75,0.95-1.15c0.167-0.566,0.334-1.066,0.5-1.5c0.134-0.333,0.334-0.6,0.601-0.8
		c0.466-0.433,0.716-0.667,0.75-0.7c0.6-0.7,0.899-1.6,0.899-2.7c0-0.566-0.133-1.55-0.399-2.95c-0.034-0.1-0.051-0.2-0.051-0.3
		c-0.3-1.7-0.267-2.883,0.101-3.55V70.3z M105.2,73.7l0.1,0.05c0.334,0.133,0.8,0.267,1.4,0.4c0.666,0.1,1.149,0.184,1.45,0.25
		l0.699,0.05c0.934,0.4,1.784,0.566,2.551,0.5c0.533-0.034,1.033-0.15,1.5-0.35l0.8,0.05l1.2,0.05l-1.75,0.4
		c-2.4,0.5-4.5,0.683-6.301,0.55c-2.466-0.2-3.883-1.066-4.25-2.6l-0.05-1c0.4,0,0.851,0.217,1.351,0.65
		C104.6,73.3,105.033,73.633,105.2,73.7z M99.65,68.2c-1-0.3-1.634-0.333-1.9-0.1l-0.35-0.15c0.1-0.434,0.333-0.684,0.699-0.75
		c0.334-0.067,0.7,0.017,1.101,0.25l0.95,0.2C100.017,67.883,99.85,68.067,99.65,68.2z M118.15,90.75
		c-0.9,0.366-1.634,0.566-2.2,0.6c-0.033,0-0.066,0-0.101,0c-0.666,0-1.483-0.216-2.449-0.649c-0.067-0.033-0.167-0.084-0.301-0.15
		c-1.033-0.434-2.416-1.066-4.149-1.899l3.2,0.8C115.25,90.217,117.25,90.65,118.15,90.75z M11.55,32.85
		c0.667,0.333,1.167,0.566,1.5,0.7c0.567,0.233,1.117,0.367,1.65,0.4l1.85,0.6l0.55,0.1l1.75,0.65h-6.4
		c-1.2-0.633-1.617-1.517-1.25-2.65L11.55,32.85z M19.4,35.5l0.4,0.15l-0.7,0.2C19.133,35.817,19.233,35.7,19.4,35.5z M26.25,34.7
		l8.5-1.05c0.6,0.767,0.85,1.767,0.75,3c-0.067,0.633-0.267,1.434-0.6,2.4c-0.4,1.233-0.65,2.034-0.75,2.4
		c-0.267,1-0.933,2.117-2,3.35c-1.133,1.3-2.15,2.017-3.05,2.15c-0.633,0.1-1.434,0.1-2.4,0c-0.5-0.067-1.233-0.15-2.2-0.25
		c-0.064-0.033-0.115-0.049-0.15-0.05h0.75c1.566,0,2.667-0.233,3.3-0.7c0.733-0.534,1.1-1.534,1.1-3
		c-0.033-0.867-0.033-1.417,0-1.65c0.067-0.5,0.283-0.95,0.65-1.35c0.567-0.5,0.983-0.867,1.25-1.1c0.4-0.434,0.65-0.95,0.75-1.55
		c0.133-0.767,0.033-1.333-0.3-1.7c-0.3-0.3-0.867-0.517-1.7-0.65C29.617,34.85,28.317,34.767,26.25,34.7z M27.75,53.75l0.05-0.1
		c0.067-0.1,0.117-0.233,0.15-0.4c0.066-0.233,0.117-0.517,0.15-0.85h0.05v1v0.35H27.75z M26.7,54.55c0,0.1,0,0.217,0,0.35
		c0,0.1-0.017,0.2-0.05,0.3c-0.233,1.267-0.767,2.233-1.6,2.9c0.3-0.6,0.3-1.25,0-1.95C25.017,56.35,25,57,25,58.1l-0.3,0.25
		C24,58.783,23.083,59,21.95,59c-0.2-0.033-0.4-0.05-0.6-0.05c0.267-0.133,0.467-0.333,0.6-0.6l0.15-0.1
		c0.767-0.533,1.283-1.15,1.55-1.85c0.2-0.833,0.35-1.517,0.45-2.05c0.167,0.4,0.483,1,0.95,1.8c0.067-0.433,0.25-0.8,0.55-1.1
		C25.9,54.783,26.267,54.617,26.7,54.55z M27.15,52.05l0.3,0.15l-0.65,1.45c0.1-0.3,0.184-0.533,0.25-0.7c0-0.067,0-0.117,0-0.15
		C27.15,52.5,27.183,52.25,27.15,52.05z"/>
	<path style="fill-rule:evenodd;clip-rule:evenodd;fill:#A7A499;" d="M21.95,58.35l0.15-0.3c-1.434-0.4-2.25-0.617-2.45-0.65
		c-0.967-0.1-1.55,0.184-1.75,0.85c-0.066,0-0.117-0.017-0.15-0.05c-0.067-0.3-0.083-0.65-0.05-1.05l-0.05-0.25h0.05
		c1.466,0.367,2.733,0.467,3.8,0.3c-0.1-0.034-0.383-0.2-0.85-0.5c1.233,0.1,1.8-0.333,1.7-1.3c-0.167-1.667-0.25-2.517-0.25-2.55
		c0.333-0.8,0.983-0.85,1.95-0.15l0.55,0.5l-0.75,0.5l0.25,0.65c-0.1,0.533-0.25,1.217-0.45,2.05c-0.267,0.7-0.783,1.317-1.55,1.85
		L21.95,58.35z M17.1,34.65c2.2,0.5,5.25,0.517,9.15,0.05c2.067,0.066,3.367,0.15,3.9,0.25c0.833,0.133,1.4,0.35,1.7,0.65
		c0.333,0.367,0.433,0.933,0.3,1.7c-0.1,0.6-0.35,1.117-0.75,1.55c-0.267,0.233-0.683,0.6-1.25,1.1c-0.367,0.4-0.583,0.85-0.65,1.35
		c-0.033,0.233-0.033,0.784,0,1.65c0,1.466-0.367,2.466-1.1,3c-0.633,0.466-1.733,0.7-3.3,0.7h-0.75l-1.3,0.05
		c-2.1,0.133-3.733,0.083-4.9-0.15c0.2-0.367,0.733-0.583,1.6-0.65c1.1-0.133,1.767-0.25,2-0.35c0.5-0.233,0.983-0.583,1.45-1.05
		c0.466-0.5,0.767-1,0.9-1.5c-0.4,0.067-0.934,0.317-1.6,0.75c-0.8,0.5-1.35,0.8-1.65,0.9c-0.5,0.2-1.517,0.3-3.05,0.3
		c-0.867,0-2.183-0.017-3.95-0.05c-1.567-0.033-2.867-0.017-3.9,0.05H9.9L8.75,43.8c-0.267-0.233-0.65-0.483-1.15-0.75L7.55,43
		L7.3,42.85L6.75,41.6c0.533,0.033,1.033,0.2,1.5,0.5c0.033,0.033,0.467,0.4,1.3,1.1c0.633,0.566,1.284,0.966,1.95,1.2
		c0.567,0.167,1.333,0.25,2.3,0.25c3.934-0.1,6.367-0.883,7.3-2.35c0.167-0.233,0.333-1,0.5-2.3c0.1-0.7,0.717-1.067,1.85-1.1
		c0.066-0.333,0.05-0.7-0.05-1.1c-0.133-0.466-0.233-0.833-0.3-1.1c-0.567-0.1-1.3-0.167-2.2-0.2c-1.066,0-1.767-0.017-2.1-0.05
		l0.3-0.6l0.7-0.2l-0.4-0.15l0.4-0.2h-0.95L17.1,34.65z M99.9,68.7l0.1-0.4l-0.35-0.1c0.199-0.133,0.366-0.317,0.5-0.55l-0.95-0.2
		c-0.4-0.233-0.767-0.317-1.101-0.25c-0.366,0.066-0.6,0.316-0.699,0.75l0.35,0.15l-0.15,0.2c-0.433-0.233-0.699-0.517-0.8-0.85
		c-0.1-0.667,0.851-0.917,2.851-0.75c2.166,0.333,3.416,0.466,3.75,0.4l0.399,1.1c-0.233,0.133-0.733,0.25-1.5,0.35
		C101.467,68.683,100.667,68.733,99.9,68.7z M105.2,73.7l0.6,0.15l2.55,0.4l0.5,0.2l-0.699-0.05c-0.301-0.066-0.784-0.15-1.45-0.25
		c-0.601-0.133-1.066-0.267-1.4-0.4L105.2,73.7z M124.45,70.3v0.05c-0.367,0.667-0.4,1.85-0.101,3.55c0,0.1,0.017,0.2,0.051,0.3
		c0.267,1.4,0.399,2.383,0.399,2.95c0,1.1-0.3,2-0.899,2.7c-0.034,0.033-0.284,0.267-0.75,0.7c-0.267,0.2-0.467,0.467-0.601,0.8
		c-0.166,0.433-0.333,0.933-0.5,1.5c-0.166,0.4-0.483,0.784-0.95,1.15c-1.767,1.267-4,1.3-6.699,0.1c0-0.466,0.383-0.666,1.149-0.6
		c0.967,0.066,1.533,0.05,1.7-0.05l0.3-0.25c1.3-0.2,2.434-0.95,3.4-2.25l-6.9,0.05c-0.5-0.133-1.35-0.4-2.55-0.8
		c-1.066-0.4-1.9-0.65-2.5-0.75c0.233,0.5,0.517,0.933,0.85,1.3c-0.267,0.767-0.133,1.517,0.4,2.25l1.7,1.85
		c0.166,0.2,0.333,0.567,0.5,1.101c0.166,0.5,0.35,0.833,0.55,1c0.233,0.2,0.7,0.35,1.4,0.45c0.767,0.1,1.25,0.199,1.449,0.3
		c-0.433,0.267-1.283,0.2-2.55-0.2c-0.666-0.233-1.55-0.583-2.649-1.05c-0.567-0.233-1.25-0.733-2.051-1.5
		c-0.8-0.8-1.466-1.316-2-1.55c-0.1-0.034-1.783-0.417-5.05-1.15c-2.733-0.633-4.116-1.2-4.149-1.7
		c1.566-0.167,2.733-0.417,3.5-0.75c-1.134-0.2-2.834-0.6-5.101-1.2c-0.5-0.133-1.133-0.434-1.899-0.9
		c-0.801-0.5-1.384-0.817-1.75-0.95H92.1l-0.5-1.1c0-0.033-0.017-0.066-0.05-0.1c-0.167-0.9-0.15-1.683,0.05-2.35
		c0.2,0.9,0.683,1.7,1.45,2.4c0.767,0.733,1.584,1.117,2.45,1.15c0.233-0.5,0.35-0.867,0.35-1.1c0.7,0.8,1.834,1.25,3.4,1.35
		c1.634,0.133,2.767-0.233,3.4-1.1c-0.467-0.4-1.117-0.683-1.95-0.85v-1.1c-0.334-0.034-0.934-0.267-1.8-0.7
		c1.166-0.3,2.149-0.417,2.949-0.35l0.75,0.15c0.367,1.534,1.784,2.4,4.25,2.6c1.801,0.133,3.9-0.05,6.301-0.55v0.05
		c-0.301,0.033-0.567,0.167-0.801,0.4c-0.433,0.067-0.716,0.3-0.85,0.7c-0.967,0.533-1.566,1.067-1.8,1.6l1.25,0.4
		c0.467,0.167,0.85,0.367,1.149,0.6c0.067,0.066,0.134,0.25,0.2,0.55c0.066,0.233,0.15,0.4,0.25,0.5c0.233,0.2,0.7,0.367,1.4,0.5
		c0.733,0.133,1.217,0.217,1.45,0.25c1,0.2,2,0.167,3-0.1c1.267-0.3,1.949-0.883,2.05-1.75c0.066-0.367-0.033-0.8-0.3-1.3
		c-0.267-0.533-0.4-0.95-0.4-1.25s0.116-0.667,0.35-1.1c0.267-0.6,0.417-0.983,0.45-1.15c0.434-1.167,0.617-1.917,0.55-2.25
		c-0.066-0.333-0.316-0.8-0.75-1.4c-0.533-0.667-0.85-1.133-0.949-1.4c0.233-0.133,0.449-0.333,0.649-0.6
		c0.566,0.2,1.134,0.467,1.7,0.8l0.1-0.05c0.867,0.4,1.517,0.7,1.95,0.9C124.134,70.167,124.35,70.267,124.45,70.3z M113.25,74.5
		l0.6-0.05l-0.149,0.2l-0.8-0.05L113.25,74.5z M34.1,28.65c0.033,0.133,0.066,0.283,0.1,0.45c-0.067-0.167-0.117-0.333-0.15-0.5
		L34.1,28.65z M11.55,32.85l-0.2-0.2l3.35,1.3c-0.534-0.034-1.083-0.167-1.65-0.4C12.717,33.417,12.217,33.183,11.55,32.85z"/>
	<path style="fill-rule:evenodd;clip-rule:evenodd;fill:#9B9286;" d="M140.6,145c0,0.467,0,1.434,0,2.9
		c-0.267-0.067-0.566-0.134-0.899-0.2c-0.134-0.033-0.316-0.05-0.55-0.05H138.8c-0.434-0.034-0.967-0.051-1.6-0.051v-0.05
		l-0.101-0.85c0.134-0.134,0.25-0.267,0.351-0.4c0.333-0.434,0.533-1.166,0.6-2.2c0.066-1.233,0.15-2,0.25-2.3l0.3-1.2
		c0.534,0.534,0.934,1.051,1.2,1.551C140.233,142.884,140.5,143.833,140.6,145z M111.55,99.7l0.101-0.55l0.449,2.199L111.55,99.7z
		 M108.8,112.45l-0.05,0.1c1.9-0.8,3.134-1.3,3.7-1.5c-0.167-2.666-0.25-5.05-0.25-7.149v-2.051l1.85,8.7l1.15-0.25
		c-0.634-2.166-1.334-4.25-2.101-6.25l-0.899-2.399V95.6c0.3-1.833,0.6-3.517,0.899-5.05c0.134,0.066,0.233,0.117,0.301,0.15
		c0.966,0.434,1.783,0.649,2.449,0.649c0.034,0,0.067,0,0.101,0c0.566-0.033,1.3-0.233,2.2-0.6c0.066-0.033,0.149-0.066,0.25-0.1
		c0.1-0.034,0.183-0.067,0.25-0.101c0.3-0.133,0.6-0.267,0.899-0.399l2.101-0.95c0.133-0.066,0.267-0.134,0.399-0.2
		c0.101,0.767,0.217,1.55,0.351,2.35c0.233,1.4,0.75,4,1.55,7.801c0.7,3.267,1.184,5.883,1.45,7.85l0.75,4.5
		c0.366-1.566,0.649-3.25,0.85-5.05c0,1.7,0,2.95,0,3.75v0.55c0,0.4-0.017,0.783-0.05,1.15l-0.15,1.449
		c-0.166,1.101-0.399,2.067-0.7,2.9c-0.166,0.467-0.517,1.033-1.05,1.7l-0.399,0.5c-0.2,0.2-0.434,0.45-0.7,0.75
		c-0.267,0.333-0.483,0.633-0.65,0.899c-0.1-0.3-0.166-0.616-0.2-0.949V119.1c-0.233-1.899-0.483-3.166-0.75-3.8
		c-0.533-1.3-1.333-2.399-2.399-3.3c-1.101-0.967-2.3-1.533-3.601-1.7c-0.066,0-0.133,0-0.199,0
		c-1.334-0.033-4.584,1.084-9.75,3.351c-0.667,0.3-1.301,0.566-1.9,0.8c-0.233,0.066-0.467,0.149-0.7,0.25
		c-2.899,1.033-4.733,1.017-5.5-0.05l-0.149-0.2c-0.367-0.7-0.467-2.084-0.301-4.15c0.233-2.233,0.351-3.7,0.351-4.399
		c0-2.567-0.017-3.967-0.05-4.2c-0.267-1.566-1.101-2.55-2.5-2.95c-0.4-0.134-1.051-0.184-1.95-0.15c-0.867,0.034-1.533,0.101-2,0.2
		c-0.8,0.2-1.284,0.45-1.45,0.75c-0.133,0.233-0.383,0.733-0.75,1.5c-0.5,0.8-1.1,1.384-1.8,1.75c-0.567,0.3-1.267,0.483-2.1,0.55
		c-0.267,0-1.1-0.017-2.5-0.05c1.066-16.166,1.833-28.3,2.3-36.4c0.133-2.3,0.267-4.55,0.4-6.75c1.434,1,3.1,2.217,5,3.65
		c0,1.1,0,2.167,0,3.2l-0.1,0.1c-0.934,1.033-1.267,2.283-1,3.75c0.1,0.566,0.45,1.533,1.05,2.9c-0.033,0.6-0.05,1.167-0.05,1.7
		l-0.4,15.3c0.6-2.2,1.017-3.833,1.25-4.9c0.434-2.1,0.75-3.683,0.95-4.75c0.2-0.9,0.4-1.717,0.6-2.45
		c0.801,1.4,1.617,2.55,2.45,3.45c0.167,0.2,0.351,0.384,0.55,0.551c0.233,0.233,0.5,0.466,0.801,0.699c0,0.467,0,0.934,0,1.4v5.9
		c0.199,0.666,0.733,2.233,1.6,4.699c0.667,1.934,1.167,3.517,1.5,4.75c0.167-0.666,0.25-1.267,0.25-1.8
		c0.8-4.233,1.4-8.35,1.8-12.35c0.134,0.033,0.283,0.066,0.45,0.1s0.333,0.084,0.5,0.15l4.35,1.7c0.467,0.199,0.967,0.433,1.5,0.699
		c-0.066,2.434-0.183,4.317-0.35,5.65c-0.134,1.167-0.434,2.934-0.9,5.3c-0.366,2.134-0.5,3.917-0.399,5.351
		C107.533,107.4,108.066,109.917,108.8,112.45z M78.2,55.5l0.05,0.65l0.05,46.05c0.5,0.267,1.017,0.5,1.55,0.7
		c-1.733-0.567-3.233-1.667-4.5-3.301c-0.934-1.233-1.65-2.649-2.15-4.25l-0.7-2.6c-0.067-0.434-0.133-0.866-0.2-1.3l-0.6,0.25
		c-2,0.7-3.633,0.866-4.9,0.5c-0.066-0.033-0.133-0.05-0.2-0.05c-0.633-0.233-1.7-0.784-3.2-1.65c-0.767-0.333-1.417-0.434-1.95-0.3
		c0.333-0.101,0.7-0.101,1.1,0c0.534,0.1,1.483,0.533,2.85,1.3l0.2-5.1c0.233-4.767,0.217-9.867-0.05-15.3l-0.45-2.05
		c-0.167-0.367-0.417-0.533-0.75-0.5c-0.9-1.333-1.5-3-1.8-5c-0.167-1.2-0.25-3.05-0.25-5.55c-0.2-4.033-0.267-7.067-0.2-9.1
		c0.033-0.733,0.1-1.417,0.2-2.05c0.2,0.066,0.4,0.133,0.6,0.2l1.6,0.7c0.333,0.133,0.667,0.283,1,0.45
		c1.767,0.833,3.683,1.867,5.75,3.1C73.017,52.333,75.333,53.733,78.2,55.5z M50.7,95c-0.833-0.6-1.534-1.366-2.1-2.3
		c0.433,0.666,0.917,1.25,1.45,1.75L50.7,95z M47.05,84.85c-0.066,2.434,0.117,4.334,0.55,5.7c-0.467-1.366-0.667-3.166-0.6-5.399
		C47,85.05,47.017,84.95,47.05,84.85z M37.75,43.95c0-0.333,0.017-0.617,0.05-0.85c0.1,0.033,0.217,0.066,0.35,0.1
		c0,0.133,0.017,0.267,0.05,0.4c0.6,0.066,1.066,0.083,1.4,0.05c1.833,0.5,3.6,0.867,5.3,1.1c-0.233,1.4-0.517,2.983-0.85,4.75
		c-0.833,4.533-1.267,8.083-1.3,10.65v3.15c-0.433,0-0.767-0.017-1-0.05c0.033-1.467-0.583-2.467-1.85-3
		c-0.733-0.3-1.967-0.65-3.7-1.05c-4.333-1.6-7.05-1.333-8.15,0.8c-0.367,0.733-0.85,2.483-1.45,5.25
		c-0.8,2.067-2.117,2.267-3.95,0.6c-0.967-0.9-1.4-2.767-1.3-5.6c0.033-0.233,0.066-0.467,0.1-0.7c0.1,0.1,0.233,0.184,0.4,0.25
		c0.367,0.167,0.75,0.284,1.15,0.35c0.067,0.033,0.133,0.083,0.2,0.15c0.9,0.733,1.466,1.284,1.7,1.65c0.6-0.1,1.033-1.034,1.3-2.8
		c0.066-0.066,0.133-0.133,0.2-0.2c0.2-0.233,0.383-0.467,0.55-0.7c0.933,0.3,1.633,0.017,2.1-0.85c0.4-0.767,0.55-1.683,0.45-2.75
		l-1.25,0.85c0.133-0.433,0.2-0.8,0.2-1.1c0-0.433-0.1-0.767-0.3-1v-1H28.1l-0.65-0.2l-0.3-0.15L26.7,51.8c0-0.1,0-0.2,0-0.3
		c0-0.067,0-0.133,0-0.2c0.933,0.034,2.1,0.034,3.5,0c1.2-0.033,2.533-0.483,4-1.35c0.733-0.467,1.35-0.934,1.85-1.4l-0.55,1.1
		c-0.133,0.434-0.017,0.8,0.35,1.1s0.767,0.35,1.2,0.15c0.4-0.167,0.633-0.55,0.7-1.15c0.033-0.167,0.05-0.65,0.05-1.45
		c0.1-1.033,0.15-1.883,0.15-2.55C37.983,44.917,37.917,44.317,37.75,43.95z M39.15,47.65c0.233,0.5,0.55,0.717,0.95,0.65
		c0.1-0.5,0.117-1.05,0.05-1.65L39.15,47.65z M25.875,51.25c-0.089,0.002-0.181,0.019-0.275,0.05h-1.9c-0.967,0-1.7,0.017-2.2,0.05
		c-0.033-0.2-0.05-0.35-0.05-0.45c-0.067-0.433-0.15-0.8-0.25-1.1c0.333,0.267,0.833,0.517,1.5,0.75c1,0.367,1.9,0.583,2.7,0.65
		C25.561,51.232,25.719,51.249,25.875,51.25z M25.95,51.25c0.116,0.029,0.241,0.046,0.375,0.05H26.15H26L25.95,51.25z M33.15,53.3
		l-0.65-2c-0.367,0.2-0.867,0.317-1.5,0.35c-0.833,0-1.333,0.017-1.5,0.05c-0.233,1.2,0.267,2.05,1.5,2.55
		C32.233,54.783,32.95,54.467,33.15,53.3z M24.5,62.65l-0.7-1.7c-1.267,0.733-1.8,1.617-1.6,2.65C23.233,63.8,24,63.483,24.5,62.65z
		"/>
	<path style="fill-rule:evenodd;clip-rule:evenodd;fill:#68665F;" d="M21.95,58.35c-0.133,0.267-0.333,0.467-0.6,0.6H21.3
		c-0.167,0-0.333,0-0.5,0c-0.5-0.067-1-0.15-1.5-0.25l-1.4-0.45c0.2-0.667,0.783-0.95,1.75-0.85c0.2,0.033,1.017,0.25,2.45,0.65
		L21.95,58.35z M11.95,46.9c0.033,0,0.066,0.017,0.1,0.05c1.2,0.367,2.117,0.6,2.75,0.7c1.233,0.133,2.8,0.1,4.7-0.1
		c0.433-0.066,1.033-0.2,1.8-0.4c0.767-0.233,1.35-0.383,1.75-0.45l1.3-0.05c0.035,0.001,0.085,0.018,0.15,0.05
		c0.967,0.1,1.7,0.183,2.2,0.25c0.966,0.1,1.767,0.1,2.4,0c0.9-0.133,1.917-0.85,3.05-2.15c1.067-1.233,1.733-2.35,2-3.35
		c0.1-0.367,0.35-1.167,0.75-2.4c0.333-0.966,0.533-1.767,0.6-2.4c0.1-1.233-0.15-2.233-0.75-3l0.5-0.1h0.05l1.4,1.25l0.5-0.5
		c0,1.4,0,2.3,0,2.7c0,0.1,0,0.167,0,0.2c0,0.133,0,0.283,0,0.45l-0.2,1.6c-0.067,0.2-0.133,0.417-0.2,0.65
		c-0.133,0.467-0.367,1.333-0.7,2.6c-0.1,0.333-0.2,0.683-0.3,1.05c-0.466,1.6-0.95,2.7-1.45,3.3c-0.533,0.6-1.367,1-2.5,1.2
		c-0.633,0.133-1.6,0.217-2.9,0.25l-4.15,0.3c-0.066,0-0.117,0-0.15,0c-1.533-0.067-3.816-0.05-6.85,0.05h-0.15h-0.1
		c-0.167-0.033-0.333-0.05-0.5-0.05l-0.8-0.1c-0.967-0.167-1.817-0.383-2.55-0.65c-0.4-0.167-0.8-0.367-1.2-0.6
		C12.3,47.117,12.117,47,11.95,46.9z M117.55,83.2c-1.166,0.166-2.717-0.084-4.649-0.75c-1.4-0.467-2.417-1.034-3.051-1.7
		c-0.333-0.367-0.616-0.8-0.85-1.3c0.6,0.1,1.434,0.35,2.5,0.75c1.2,0.4,2.05,0.667,2.55,0.8l6.9-0.05
		C119.983,82.25,118.85,83,117.55,83.2z M127.9,75c0.399,1.067,0.566,2.2,0.5,3.4c0,0.167,0,0.35,0,0.55
		c-0.067,0.367-0.134,0.8-0.2,1.3c-0.101,0.4-0.2,0.833-0.3,1.3l-0.15,0.5c-0.134,0.5-0.283,0.983-0.45,1.45
		c-0.1,0.267-0.2,0.517-0.3,0.75c-0.634,1.366-1.483,2.467-2.55,3.3l-0.95,0.65c-0.333,0.2-0.7,0.416-1.1,0.649
		c-0.101,0.034-0.217,0.084-0.351,0.15c-0.133,0.066-0.267,0.134-0.399,0.2l-2.101,0.95c-0.3,0.133-0.6,0.267-0.899,0.399
		c-0.067,0.033-0.15,0.066-0.25,0.101c-0.101,0.033-0.184,0.066-0.25,0.1c-0.9-0.1-2.9-0.533-6-1.3l-3.2-0.8
		c-0.033,0-0.066-0.017-0.101-0.051c-0.533-0.267-1.033-0.5-1.5-0.699L103,86.2c-0.167-0.066-0.333-0.117-0.5-0.15
		s-0.316-0.066-0.45-0.1c-0.434-0.101-0.85-0.233-1.25-0.4c-0.066-0.033-0.133-0.066-0.2-0.1c0.733,0.133,1.934,0.267,3.601,0.399
		c1.5,0.101,2.533,0.217,3.1,0.351c0.7,0.166,1.601,0.5,2.7,1c1.167,0.5,2.05,0.833,2.65,1c1.333,0.366,2.466,0.3,3.399-0.2
		c1-0.533,0.7-1.267-0.899-2.2c0.3,0.033,1.066,0.217,2.3,0.55c0.967,0.301,1.7,0.367,2.2,0.2c0.5-0.166,1-0.684,1.5-1.55
		s0.899-1.366,1.199-1.5c0.167-0.066,0.45-0.066,0.851,0c0.399,0.033,0.7,0.033,0.899,0c1.467-0.6,2.217-0.917,2.25-0.95
		c0.301-0.267,0.534-0.933,0.7-2c0.167-1.133,0.283-1.85,0.351-2.15C127.467,78.1,127.634,76.967,127.9,75z M26.15,51.3l0.2,0.05
		h0.05l0.3,0.15c0,0.1,0,0.2,0,0.3l0.45,0.25c0.033,0.2,0,0.45-0.1,0.75c0,0.034,0,0.083,0,0.15c-0.066,0.167-0.15,0.4-0.25,0.7
		l0.65-1.45l0.65,0.2c-0.033,0.333-0.083,0.617-0.15,0.85c-0.034,0.167-0.083,0.3-0.15,0.4l-0.05,0.1
		c-0.233-0.033-0.567-0.05-1-0.05l-0.05,0.85c-0.434,0.067-0.8,0.233-1.1,0.5c-0.3,0.3-0.483,0.667-0.55,1.1
		c-0.466-0.8-0.783-1.4-0.95-1.8l-0.25-0.65l0.75-0.5l0.3-0.25c0.1-0.133,0.217-0.517,0.35-1.15c0.067-0.267,0.183-0.433,0.35-0.5
		c0.094-0.031,0.186-0.048,0.275-0.05h0.075L26,51.3H26.15z M25.05,58.1H25c0-1.1,0.017-1.75,0.05-1.95
		C25.35,56.85,25.35,57.5,25.05,58.1z"/>
	<path style="fill-rule:evenodd;clip-rule:evenodd;fill:#595149;" d="M124.15,123.65l0.3-0.351l0.35-0.3l1,9.15
		c0.3-0.801,0.45-2.267,0.45-4.4c0.033-2.7,0.083-4.3,0.15-4.8l0.05-1l0.1-0.05c1.101-0.167,1.983-0.051,2.65,0.35
		c0.899,0.533,1.566,1.583,2,3.15c0.434,1.566,0.7,3.8,0.8,6.699c0.1,3.733,0.2,6.017,0.3,6.851l0.3-3.351
		c0-0.399,0.017-0.816,0.051-1.25l-0.051,2.801c-0.1,0.966-0.183,3.316-0.25,7.05c-0.166,2.366-0.283,3.8-0.35,4.3l-0.55,0.05
		l-2.65,0.25c0.134-4.934-0.083-8.517-0.649-10.75c-0.167,1.066-0.5,2.233-1,3.5c-0.267,0.7-0.667,1.384-1.2,2.05
		c-0.601,0.733-1,1.317-1.2,1.75l-0.35,3.45l-1.051-0.05c-0.6-3.233-0.899-6.884-0.899-10.95l0.25-4.25
		c0.033-0.333,0.066-0.633,0.1-0.899l0.25,7.85c0.767-1.9,1.15-4.583,1.15-8.05C124.1,128.45,124.083,125.517,124.15,123.65z
		 M122.55,124.2l0.2,7.649c-0.167-0.6-0.267-1.267-0.3-2c-0.033-0.566-0.066-1.066-0.101-1.5l-0.05-1.199
		c-0.1-1.601-0.116-2.75-0.05-3.45L122.55,124.2z M145.15,87.6c0.133,0,0.283,0.017,0.449,0.051l0.5,3.699
		c-0.1,0.301-0.233,0.601-0.399,0.9c-0.267-0.767-0.45-1.717-0.55-2.85V87.6z M133.9,85.75c0.066,1.566,0.1,3.533,0.1,5.9
		c0.066,4.166-0.3,8.166-1.1,12c1.5-4.601,2.366-9.417,2.6-14.45l-0.1,8.2c-0.167,9.1-0.567,16.833-1.2,23.199
		c-0.3,3.4-0.8,8.483-1.5,15.25v-3.55v-3.6c0.166-6.533,0.184-11.384,0.05-14.55l-0.05-1.051c-0.5-0.133-0.834,0.7-1,2.5
		c-0.2,2.034-0.434,3.167-0.7,3.4c-0.2,0.167-0.467,0.167-0.8,0c-0.066-0.066-0.367-0.267-0.9-0.6c0.467-1.301,0.8-2.733,1-4.301
		c-0.033-1.366,0-2.399,0.101-3.1c0.1-0.733,0.3-1.816,0.6-3.25c0.3-1.4,0.483-2.483,0.55-3.25c0.434-3.733,0.75-6.533,0.95-8.4
		c0.366-3.3,0.583-6.116,0.65-8.449l0.05-2.101C133.434,85.616,133.667,85.684,133.9,85.75z M148.7,105.45h-0.55L146.1,91.35
		c0.167-0.466,0.334-1.133,0.5-2c0.101-0.633,0.2-1.149,0.301-1.55c5.066,0.601,7.833,0.917,8.3,0.95h0.05
		c-0.1,0.634-0.217,1.316-0.35,2.05l-1.051,5.45c-0.166,0.934-0.399,2.3-0.699,4.1l-0.2,0.75l-0.5,1.25
		c-0.4,0.801-0.8,1.5-1.2,2.101c-0.366,0.467-0.717,0.75-1.05,0.85c-0.134-0.066-0.434-0.233-0.9-0.5
		c-0.366-0.233-0.649-0.366-0.85-0.399C148.45,104.767,148.533,105.116,148.7,105.45z M127,110.2c0-0.8,0-2.05,0-3.75v-0.15
		c0-0.066,0-0.133,0-0.2c0-1.166,0-2.283,0-3.35c0-0.967,0-1.9,0-2.8c-0.033-1.467-0.05-2.867-0.05-4.2
		c0.1-0.066,0.283-0.1,0.55-0.1c0.066-1.2,0.1-2.717,0.1-4.551c-0.066-2.066-0.1-3.6-0.1-4.6c0.033-1.066,0.066-2.017,0.1-2.85
		c0.733,0.3,1.483,0.6,2.25,0.899c0,0.566-0.017,1.2-0.05,1.9c0,4.434-0.416,8.934-1.25,13.5c0,0.1-0.2,1.783-0.6,5.05
		C127.65,107.667,127.333,109.4,127,110.2z"/>
	<path style="fill-rule:evenodd;clip-rule:evenodd;fill:#625952;" d="M122.35,123.05c0.034-0.2,0.067-0.399,0.101-0.6l0.3-1.101
		c0-0.033,0-0.066,0-0.1s0.017-0.05,0.05-0.05c0-0.033,0-0.066,0-0.101c0-0.033,0.017-0.05,0.05-0.05c0-0.033,0-0.066,0-0.1
		s0.017-0.05,0.051-0.05c0-0.034,0-0.067,0-0.101c0.033-0.033,0.05-0.066,0.05-0.1l0.1-0.101c0.066-0.166,0.15-0.333,0.25-0.5
		c0.167-0.267,0.384-0.566,0.65-0.899c0.267-0.3,0.5-0.55,0.7-0.75l0.399-0.5c0.033-0.033,0.066-0.066,0.101-0.101
		c0.433-0.399,1.017-0.533,1.75-0.399c0.066,0,0.666,0.184,1.8,0.55c0.2,0.066,0.399,0.2,0.6,0.4c0.533,0.333,0.834,0.533,0.9,0.6
		c0.333,0.167,0.6,0.167,0.8,0c0.267-0.233,0.5-1.366,0.7-3.4c0.166-1.8,0.5-2.633,1-2.5l0.05,1.051
		c0.134,3.166,0.116,8.017-0.05,14.55v3.6c-0.033,0.733-0.05,1.417-0.05,2.05c-0.034,0.434-0.051,0.851-0.051,1.25l-0.3,3.351
		c-0.1-0.834-0.2-3.117-0.3-6.851c-0.1-2.899-0.366-5.133-0.8-6.699c-0.434-1.567-1.101-2.617-2-3.15
		c-0.667-0.4-1.55-0.517-2.65-0.35l-0.1,0.05c-0.533,0.133-1.084,0.483-1.65,1.05l-0.35,0.3l-0.3,0.351
		c-0.567,0.633-0.934,0.949-1.101,0.949c-0.166,0-0.333-0.133-0.5-0.399l-0.3-0.5C122.283,123.467,122.316,123.25,122.35,123.05z
		 M133.9,85.75c0.566,0.134,1.116,0.283,1.649,0.45c0,0.2,0,0.434,0,0.7l-0.05,2.3c-0.233,5.033-1.1,9.85-2.6,14.45
		c0.8-3.834,1.166-7.834,1.1-12C134,89.283,133.967,87.316,133.9,85.75z M145.15,87.6V89.4v8.1c0,0.566,0.033,1.767,0.1,3.6
		c0,1.7-0.116,2.851-0.35,3.45c-0.867-1.467-1.334-3.983-1.4-7.55c0.134-4.033,0.116-6.85-0.05-8.45
		c-0.033-0.399-0.066-0.8-0.101-1.2C143.95,87.417,144.55,87.5,145.15,87.6z M152.95,101.1c0.6-1.433,0.95-2.3,1.05-2.6
		c0.366-1,0.6-1.934,0.7-2.8c0-1.134,0.017-2,0.05-2.601c0.033-0.6,0.1-1.066,0.2-1.399c0.066-0.167,0.267-0.55,0.6-1.15
		c0.334-0.6,0.533-1.1,0.601-1.5c0-0.066,0.017-0.133,0.05-0.2c0.267,0,0.55,0,0.85,0c-0.033,0.233-0.05,0.367-0.05,0.4
		c-0.033,0.533-0.167,1.066-0.4,1.6c-0.133,0.434-0.399,1.15-0.8,2.15c-0.366,0.9-0.616,1.616-0.75,2.15
		c-0.566,2.166-0.866,3.383-0.899,3.649c-0.034,0.4-0.051,1.017-0.051,1.851c0,0.833-0.033,1.449-0.1,1.85
		c-0.167,1.167-0.5,2.384-1,3.65c-0.733,1.833-1.15,2.933-1.25,3.3c-0.733,2.399-1.25,5.2-1.55,8.399
		c-0.033,0.434-0.017,1.101,0.05,2c-0.066,0.667-0.25,1.617-0.55,2.851c-0.2,1.033-0.316,2.416-0.351,4.149
		c-0.033,2.334-0.066,3.733-0.1,4.2c-0.233,2.8-0.35,5.7-0.35,8.7c0,0.634,0.017,1.634,0.05,3c0.033,1.267,0,2.25-0.101,2.95
		c-0.1-0.634-0.149-1.467-0.149-2.5c0-1.434-0.017-2.283-0.05-2.55c-0.101-3.534-0.15-7.051-0.15-10.551
		c-0.1-4.966-0.083-8.666,0.05-11.1c0.066-0.833,0.25-2.384,0.55-4.65c0.267-1.866,0.384-3.449,0.351-4.75
		c0-1.267-0.117-2.316-0.351-3.149l-0.399-1c-0.167-0.334-0.25-0.684-0.25-1.05c0.2,0.033,0.483,0.166,0.85,0.399
		c0.467,0.267,0.767,0.434,0.9,0.5c0.566,0.233,0.983,0.217,1.25-0.05c0.2-0.2,0.366-0.566,0.5-1.1
		c0.133-0.601,0.233-1.034,0.3-1.301l0.2-0.5L152.95,101.1z M150.05,157.45l0.15-7.25l0.35,10.25
		C150.283,159.816,150.116,158.816,150.05,157.45z"/>
	<path style="fill-rule:evenodd;clip-rule:evenodd;fill:#B6B2A8;" d="M34.05,28.6c0.034,0.167,0.083,0.333,0.15,0.5
		c0,0.033,0,0.083,0,0.15v0.15c-0.567,0.434-1.1,0.75-1.6,0.95c-0.1,0.033-0.95,0.483-2.55,1.35c-0.466,0.233-0.9,0.433-1.3,0.6
		c-0.5,0.167-0.967,0.284-1.4,0.35c-0.867,0.133-2.233,0.133-4.1,0c0.3-0.133,0.883-0.267,1.75-0.4c0.2-0.033,0.383-0.067,0.55-0.1
		c0.5-0.133,0.883-0.283,1.15-0.45c-1.067-0.233-2.833-0.284-5.3-0.15c-2.3,0.1-4.066,0-5.3-0.3c-1.5-0.4-2.934-0.6-4.3-0.6
		l-2.55-0.2c-0.3-0.1-0.667-0.184-1.1-0.25l-0.5-0.1c-0.1-0.033-0.2-0.067-0.3-0.1c-0.167-0.033-0.333-0.067-0.5-0.1
		c2.3-0.1,4.333-0.417,6.1-0.95c0.867-0.3,1.517-0.534,1.95-0.7c0.733-0.233,1.367-0.333,1.9-0.3c0.5,0.033,0.817,0.1,0.95,0.2
		c0.133,0.067,0.35,0.25,0.65,0.55c0.267,0.233,0.483,0.483,0.65,0.75c0.167,0.167,0.517,0.233,1.05,0.2s0.883-0.1,1.05-0.2
		l0.7-0.55c0.133-0.1,0.316-0.35,0.55-0.75s0.467-0.667,0.7-0.8c0.566-0.333,1.467-0.467,2.7-0.4c1.3,0.066,1.917,0.367,1.85,0.9
		c-0.033,0.3-0.183,0.983-0.45,2.05c0.833,0.1,1.45,0.117,1.85,0.05c0.667-0.1,1.133-0.45,1.4-1.05
		c0.167-0.433,0.283-1.117,0.35-2.05c0-0.867,0.1-1.45,0.3-1.75c0.5,0.167,0.833,0.3,1,0.4l0.05,0.05c0.033,0,0.067,0.017,0.1,0.05
		s0.083,0.066,0.15,0.1c0.2,0.167,0.383,0.367,0.55,0.6c0.033,0.034,0.066,0.067,0.1,0.1c0.133,0.233,0.284,0.5,0.45,0.8
		c0.033,0.066,0.067,0.133,0.1,0.2l0.35,0.9c0,0.034,0.017,0.067,0.05,0.1c0,0.067,0.017,0.117,0.05,0.15V28.6z M16.7,22.75l2.6-0.1
		c0.267,0.033,0.55,0.067,0.85,0.1l0.5,0.1c0.033,0,0.083,0,0.15,0c0.167,0.033,0.35,0.066,0.55,0.1c0.033,0,0.083,0,0.15,0
		l0.65,0.1c0.267,0.034,0.55,0.083,0.85,0.15l0.3,0.05c0.034,0,0.067,0,0.1,0h0.075c0.025,0.008,0.05,0.025,0.075,0.05
		c-1,0.6-2.167,0.983-3.5,1.15c-1.3,0.133-2.5,0.066-3.6-0.2l-0.6-0.2L16.7,22.75z"/>
	<path style="fill-rule:evenodd;clip-rule:evenodd;fill:#C2BEB3;" d="M2.55,26.55c0.534,0.434,1.567,0.633,3.1,0.6
		c1.6-0.1,2.617-0.167,3.05-0.2c3.167,0,5.55-0.967,7.15-2.9l0.6,0.2c1.1,0.267,2.3,0.333,3.6,0.2c1.333-0.167,2.5-0.55,3.5-1.15
		c-0.025-0.025-0.05-0.042-0.075-0.05c0.259,0.036,0.534,0.085,0.825,0.15c0.333,0.067,0.684,0.15,1.05,0.25l3.05,0.7
		c0.633,0.167,1.233,0.333,1.8,0.5c0.333,0.1,0.633,0.183,0.9,0.25c-0.2,0.3-0.3,0.883-0.3,1.75c-0.066,0.933-0.183,1.617-0.35,2.05
		c-0.267,0.6-0.733,0.95-1.4,1.05c-0.4,0.066-1.017,0.05-1.85-0.05c0.267-1.066,0.417-1.75,0.45-2.05
		c0.067-0.533-0.55-0.833-1.85-0.9c-1.233-0.067-2.133,0.066-2.7,0.4c-0.233,0.133-0.467,0.4-0.7,0.8s-0.417,0.65-0.55,0.75
		l-0.7,0.55c-0.167,0.1-0.517,0.167-1.05,0.2s-0.883-0.033-1.05-0.2c-0.167-0.267-0.383-0.517-0.65-0.75
		c-0.3-0.3-0.517-0.483-0.65-0.55c-0.133-0.1-0.45-0.167-0.95-0.2c-0.533-0.034-1.167,0.066-1.9,0.3
		c-0.433,0.167-1.083,0.4-1.95,0.7c-1.767,0.533-3.8,0.85-6.1,0.95c0.167,0.033,0.333,0.067,0.5,0.1
		c-0.567-0.1-1.133-0.183-1.7-0.25c-1.133-0.1-2.833-0.2-5.1-0.3H0.5C0.9,28.383,1.583,27.417,2.55,26.55z M20.15,22.75
		c-0.3-0.033-0.583-0.067-0.85-0.1l-2.6,0.1l0.25-0.4l0.75,0.05c0.333,0.033,0.667,0.083,1,0.15c0.066,0,0.15,0,0.25,0L20.15,22.75z
		 M9.25,30.45c0.533,0.167,1,0.367,1.4,0.6c-0.133-0.066-0.267-0.117-0.4-0.15c-0.633-0.3-1.333-0.533-2.1-0.7
		C8.583,30.267,8.95,30.35,9.25,30.45z M17.55,27.6c0.1,0.167,0.333,0.3,0.7,0.4c0.267,0.067,0.6,0.1,1,0.1
		c0.667,0.033,1.267,0,1.8-0.1c0.733-0.133,1.7-0.5,2.9-1.1c1.3-0.667,2.25-1.083,2.85-1.25l-5.3-1
		c-0.567-0.066-1.417,0.25-2.55,0.95C17.717,26.367,17.25,27.033,17.55,27.6z M34.2,29.4c0.002,0.073,0.019,0.156,0.05,0.25
		c-0.033-0.066-0.05-0.117-0.05-0.15V29.4z"/>
	<path style="fill-rule:evenodd;clip-rule:evenodd;fill:#938F86;" d="M34.2,29.4v0.1c0,0.033,0.017,0.083,0.05,0.15v0.05
		c-0.033,0.1-0.05,0.216-0.05,0.35v0.05c0,0.2-0.017,0.433-0.05,0.7v0.05c-0.066,0.633-0.033,1.117,0.1,1.45l0.4,0.6
		c-1.733-0.033-3.933,0.133-6.6,0.5c-1.466,0.2-3.633,0.483-6.5,0.85c-2.033,0.2-3.933-0.033-5.7-0.7c-1.067-0.4-2.8-1.233-5.2-2.5
		c-0.4-0.233-0.867-0.433-1.4-0.6l2.55,0.2c1.367,0,2.8,0.2,4.3,0.6c1.233,0.3,3,0.4,5.3,0.3c2.467-0.133,4.233-0.083,5.3,0.15
		c-0.267,0.167-0.65,0.316-1.15,0.45c-0.167,0.033-0.35,0.067-0.55,0.1c-0.867,0.133-1.45,0.267-1.75,0.4
		c1.867,0.133,3.233,0.133,4.1,0c0.433-0.066,0.9-0.183,1.4-0.35c0.4-0.167,0.833-0.367,1.3-0.6c1.6-0.867,2.45-1.317,2.55-1.35
		C33.1,30.15,33.633,29.833,34.2,29.4z"/>
</g>
</svg>
