<?xml version="1.0" encoding="iso-8859-1"?>
<!-- Generator: Adobe Illustrator 15.1.0, SVG Export Plug-In . SVG Version: 6.00 Build 0)  -->
<!DOCTYPE svg PUBLIC "-//W3C//DTD SVG 1.1//EN" "http://www.w3.org/Graphics/SVG/1.1/DTD/svg11.dtd">
<svg version="1.1" id="Layer_1" xmlns="http://www.w3.org/2000/svg" xmlns:xlink="http://www.w3.org/1999/xlink" x="0px" y="0px"
	 width="180.5px" height="155.5px" viewBox="0 0 180.5 155.5" style="enable-background:new 0 0 180.5 155.5;" xml:space="preserve"
	>
<g>
	<path style="fill-rule:evenodd;clip-rule:evenodd;fill:#B3AA9E;" d="M167.8,34.95c-0.467-0.267-0.95-0.5-1.45-0.7L164.7,33.3
		l-0.05-0.05c-0.634-0.567-1.051-1.167-1.25-1.8c-0.167-0.534-0.184-1.333-0.051-2.4c0.134-1.066,0.351-1.767,0.65-2.1
		c0.533-0.6,1.6-0.934,3.2-1c1.666-0.067,2.767-0.35,3.3-0.85c0.566-0.5,0.9-1.283,1-2.35c0-1.267,0-2.2,0-2.8
		c0.1-1.067,0.116-1.817,0.05-2.25c-0.1-0.633-0.566-1.15-1.399-1.55c-0.967-0.467-2.534-0.633-4.7-0.5
		c-3.233,0.2-4.867,0.3-4.9,0.3c1.867,0.2,3.867,0.566,6,1.1l-0.1,1.15L165.5,18c0.066,0.5-0.017,1.033-0.25,1.6
		c-0.2,0.566-0.483,1.033-0.85,1.4l-0.101,0.05c-0.267,0.267-0.684,0.467-1.25,0.6c-0.1,0.033-0.733,0.083-1.899,0.15
		c-0.733,0.067-1.284,0.284-1.65,0.65l1.5,1.5l-0.75-0.7c-0.1,0.2-0.15,0.483-0.15,0.85c0.034,0.367-0.017,0.65-0.149,0.85
		c-1.134,2-3.066,3.2-5.8,3.6c-1.101,0.133-3.45,0.1-7.051-0.1c-6.166-0.4-10.166-0.717-12-0.95c0.5-0.167,1.317-0.517,2.45-1.05
		c1-0.5,1.8-0.833,2.4-1h-1.2c1.6-1.233,2.35-2.733,2.25-4.5l-10.5,4.5c-0.767-0.067-1.8,0.517-3.1,1.75l-1.4,0.3
		c-4.733,1.1-8.017,1.9-9.85,2.4l-1.101,0.3c-3.633-0.067-6.6,0.15-8.899,0.65c2,0.566,4.966,0.35,8.899-0.65
		c4.434,0.167,7.684,0.25,9.75,0.25c4,0,8.717,0.2,14.15,0.6c0.333,1.067-0.066,1.75-1.2,2.05c-0.6,0.167-1.566,0.283-2.9,0.35
		c-1.133,0.233-2.033,0.5-2.699,0.8c-0.267,0.133-0.983,0.583-2.15,1.35c-0.866,0.533-2,0.95-3.4,1.25
		c-0.699,0.133-1.899,0.3-3.6,0.5c-1.167,0.133-2.917,0.316-5.25,0.55c-2,0.333-3.6,0.983-4.8,1.95l-0.101,0.1
		c-4.066,0.133-9.767,0.966-17.1,2.5c-7.2,1.533-11.95,2.867-14.25,4l-4.35,0.05c-2.967,2.367-5.65,4.083-8.05,5.15l-3.4,1.5
		l-5.85,0.95c-2.1,0.267-3.8,0.55-5.1,0.85c-2.8-0.167-5.1,0.383-6.9,1.65c-2.667,1.8-6.9,3.267-12.7,4.4
		c-1.133,0.233-2,0.7-2.6,1.4c-1.2,1.3-1.917,2.05-2.15,2.25c-0.733,0.567-1.667,0.867-2.8,0.9c-0.667,0.034-1.7,0-3.1-0.1
		c-0.5,0-1.417,0.05-2.75,0.15c-1.2,0.033-2.117-0.05-2.75-0.25c-0.5-0.133-1.017-0.4-1.55-0.8c-0.7-0.533-1.184-0.867-1.45-1
		c-0.967-0.367-1.567-0.65-1.8-0.85c-0.3-0.3,0-0.867,0.9-1.7c0.566-0.533,1.733-1.017,3.5-1.45c1.433-0.333,2.4-1.033,2.9-2.1
		c0.167-0.267,0.383-0.917,0.65-1.95c-0.4,0.567-0.833,1.017-1.3,1.35c0.833-0.633,1.65-1.717,2.45-3.25c0.8-1.7,1.4-2.9,1.8-3.6
		c0.767-1.267,2.117-2.217,4.05-2.85c2.233-0.566,3.833-1.083,4.8-1.55c0.6-0.267,1.517-0.767,2.75-1.5c1.133-0.7,2.066-1.2,2.8-1.5
		c0.9-0.3,1.567-0.533,2-0.7c0.833-0.3,1.45-0.65,1.85-1.05s0.833-1.05,1.3-1.95c0.467-1,0.867-1.683,1.2-2.05
		c0.8-0.934,2.05-1.8,3.75-2.6c2.333-0.933,4.05-1.633,5.15-2.1c2-0.833,3.617-1.733,4.85-2.7c0.967-0.733,1.8-1.633,2.5-2.7
		c0.833-1.367,1.5-2.467,2-3.3c1.2-1.934,3.283-3.467,6.25-4.6c3.533-1.067,6.083-1.9,7.65-2.5c0.4-0.133,0.783-0.267,1.15-0.4
		c0.567,0.133,1.35,0.183,2.35,0.15c0.767-0.067,1.35-0.133,1.75-0.2c1.533-0.333,3.05-1.017,4.55-2.05
		c1.833-1.267,2.733-2.567,2.7-3.9l-0.65-0.7c-0.567,0.333-1.083,0.633-1.55,0.9C89.6,9.317,90.967,8.6,92.4,8
		c1.333-0.6,3.233-1.3,5.699-2.1c0.867-0.3,2.117-0.867,3.75-1.7c1.667-0.867,2.934-1.45,3.801-1.75c4-1.3,7.449-1.967,10.35-2
		c10.134-0.233,18.3-0.367,24.5-0.4c-1.934,0.567-3.3,1.35-4.1,2.35c-0.867,1.133-0.434,1.95,1.3,2.45
		c1.366,0.433,3.399,0.617,6.1,0.55c2.4-0.033,4.434-0.217,6.101-0.55c2.399-0.533,3.933-1.7,4.6-3.5
		c0.767,0.066,1.417,0.1,1.95,0.1c-0.4,0.033-0.967,0.017-1.7-0.05c1.566,0.533,2.033,1.533,1.4,3l-0.65,0.55
		c-3.167,1.167-5.6,2.017-7.3,2.55c-2.9,0.867-5.483,1.45-7.75,1.75c0-1.1-0.95-1.733-2.851-1.9c-1-0.067-2.366-0.033-4.1,0.1
		l-0.5,1.5c0.634-0.034,1.45,0.033,2.45,0.2c1.434,0.2,2.267,0.317,2.5,0.35h-0.601l2.75,0.5l-0.949,0.35
		c1.699,0.267,3.416,0.383,5.149,0.35c3.3,0.667,6,0.767,8.101,0.3c1.199-0.233,2.483-1.033,3.85-2.4
		c0.733-0.333,1.333-0.65,1.8-0.95c2.2-1.4,3.517-2.316,3.95-2.75c1.233-1.267,1.566-2.517,1-3.75c0.1-0.033,0.2-0.05,0.3-0.05
		c2.834-0.1,5.05,0.066,6.65,0.5c1.1,0.3,2.166,0.967,3.2,2c0.966,1.033,1.616,2.117,1.949,3.25c0.134,0.467,0.284,1.45,0.45,2.95
		c0.134,1.167,0.4,2.1,0.8,2.8c0.267,0.467,1.051,1.15,2.351,2.05c1.066,0.733,1.666,1.517,1.8,2.35
		c0.066,0.5-0.017,1.017-0.25,1.55c-0.134,0.3-0.35,0.767-0.65,1.4c-0.267,0.733-0.5,1.733-0.699,3
		c-0.367,1.267-1.267,2.517-2.7,3.75c-0.601,0.5-1.884,1.4-3.851,2.7c-1.267,0.8-2.25,1.667-2.949,2.6
		C168.8,32.767,168.267,33.75,167.8,34.95z M121.7,42.65c2.941,0.039,5.191,0.505,6.75,1.4c0.033,0.034,0.066,0.05,0.1,0.05
		c-0.066,0.333-0.133,0.683-0.2,1.05c-0.366,2.2-0.616,5.083-0.75,8.65c-0.267,5.467-0.267,12.983,0,22.55v0.05
		c-1.066,0.267-2.05,0.55-2.949,0.85l-2.5,1.05c-0.5,0.267-1.017,0.617-1.551,1.05c0.034-0.199,0.067-0.383,0.101-0.55l1.399-21.1
		c-0.033-5.934-0.066-10.934-0.1-15C121.912,42.671,121.813,42.654,121.7,42.65z M117.9,82.65c-0.167,0.267-0.334,0.6-0.5,1
		L117.1,84.4c-0.133,0.267-0.25,0.533-0.35,0.8v0.05l-0.1,0.25c-0.2,0.566-0.483,1.6-0.851,3.1
		c-0.133,0.601-0.267,1.134-0.399,1.601c0,0.033-0.017,0.066-0.051,0.1c0,0.033-0.017,0.084-0.05,0.15
		c-0.066,0.133-0.116,0.283-0.149,0.45c-0.167,0.333-0.317,0.616-0.45,0.85c0.033-0.267,0.083-0.517,0.149-0.75l1.051-9.75
		c0.133-3.066,0.199-5.367,0.199-6.9l0.051,0.3c0.233,0.967,0.6,2.3,1.1,4C117.616,80.116,117.833,81.45,117.9,82.65z M105.05,93.2
		l0.05-3.05l0.051-1.801l0.3,4.75L105.05,93.2z M66.5,121.1c0.003,0.869,0.037,1.902,0.1,3.101l0.15,3.399
		c0,3.301-0.483,6.9-1.45,10.801h-0.4c0-1.767-0.083-3.167-0.25-4.2c-0.1-0.7-0.483-1.617-1.15-2.75l-0.05-4.4l-0.7-0.25
		c0.567-1.566,0.917-2.649,1.05-3.25c0.034-0.133,0.184-1.333,0.45-3.6l0.2,0.85l0.55-2.7l0.65-0.199
		c0.1,0.866,0.283,1.483,0.55,1.85l0.3,0.2V121.1z M49.9,116.9l0.1,1.05c0.1,0.434,0.217,0.883,0.35,1.35
		c0.367,1.334,0.95,2.75,1.75,4.25c0.8,1.5,1.5,3.55,2.1,6.15v0.05c0.066,0.3,0.133,0.616,0.2,0.95
		c-0.167-0.467-0.316-0.884-0.45-1.25c-0.5-1.4-0.9-2.417-1.2-3.05l-0.3-0.551l0.1,1.45c0,0.134,0.017,0.267,0.05,0.4
		c0.033,0.833,0.05,1.866,0.05,3.1c0,0.767-0.017,1.917-0.05,3.45c0.033,0.9-0.017,2.184-0.15,3.85
		c-0.133,1.767-0.2,3.051-0.2,3.851c0,0.366,0.033,1.066,0.1,2.1c0.033,0.4,0.066,0.867,0.1,1.4c0,1.633-0.284,2.717-0.85,3.25
		c-0.4,0.399-0.783,0.6-1.15,0.6c0.2-0.333,0.283-0.916,0.25-1.75c-0.034-0.566-0.05-1-0.05-1.3c-0.033-0.233-0.05-0.4-0.05-0.5
		c0-0.967,0.1-2.2,0.3-3.7c0.267-2,0.417-3.25,0.45-3.75c0.233-1.899,0.383-3.366,0.45-4.399c0.067-1.801-0.1-3.25-0.5-4.351
		c-0.2-0.533-0.55-1.1-1.05-1.7c-0.7-0.833-1.117-1.366-1.25-1.6c-0.667-1.066-1.217-3.05-1.65-5.95
		c-0.133-1.3-0.267-2.283-0.4-2.95c-0.2-1.166-0.534-2.1-1-2.8c-0.567-0.467-0.934-0.899-1.1-1.3c-0.233-0.5-0.35-1.2-0.35-2.1
		c0.067-1,0.1-1.717,0.1-2.15v-6.4V95.2c0-2.767,0.3-5.834,0.9-9.2c0.167-0.833,0.55-1.917,1.15-3.25
		c0.633-1.467,1.033-2.517,1.2-3.15c0.2-0.666,0.267-1.533,0.2-2.6c-0.066-1.233-0.1-2.117-0.1-2.65c0-0.6,0-1.217,0-1.85
		c-0.067-1.367-0.15-2.867-0.25-4.5c-0.034-0.2-0.05-0.433-0.05-0.7c-0.133-1.2-0.333-2.783-0.6-4.75
		c0.034-0.066,0.067-0.133,0.1-0.2c0.434-0.7,0.867-1.2,1.3-1.5c0.433-0.3,1-0.617,1.7-0.95c-0.033,2.6-0.15,5.333-0.35,8.2
		l-0.4,3.85c-0.267,2.633-0.733,5.867-1.4,9.7L47.95,82c-0.067,0.434-0.133,0.884-0.2,1.35c0,0.067,0,0.117,0,0.15l-0.05,0.25
		c0,0.033,0,0.083,0,0.15c-0.034,0.166-0.067,0.333-0.1,0.5L47.4,86.3c-0.167,1.533-0.3,3.134-0.4,4.8
		c-0.233,4.067-0.267,8.45-0.1,13.15c0.033,0.833,0.1,1.684,0.2,2.55c0.267,2.167,0.75,4.351,1.45,6.55c0.1,0.301,0.2,0.601,0.3,0.9
		C49.15,115.116,49.5,116,49.9,116.9z M48.6,138.6c0.1,1.334,0.3,2.567,0.6,3.7c0.233,0.934,0.45,2.084,0.65,3.45
		c0.133,0.8,0.3,1.983,0.5,3.55c-0.6-0.033-1.033-0.483-1.3-1.35c-0.367-1.134-0.55-2.617-0.55-4.45c0.067-2.033,0.1-3.533,0.1-4.5
		V138.6z M48.7,135.2c0.033-1.5,0.033-2.733,0-3.7c-0.034-0.5-0.067-0.934-0.1-1.3l0.1-0.3c0.066,0.233,0.117,0.533,0.15,0.899
		C48.917,131.8,48.867,133.267,48.7,135.2z M45.95,154.2l-0.05-1.351c0-0.466,0-0.933,0-1.399c0.033-5.134,0.467-10.9,1.3-17.3
		c0.1-1.034,0.183-1.9,0.25-2.601c0.2-1.267,0.483-2.133,0.85-2.6V129c-0.3,1.934-0.466,4.65-0.5,8.15
		c-0.033,3.899-0.133,6.633-0.3,8.199c-0.1,1.267-0.2,2.317-0.3,3.15c-0.1,0.934-0.184,1.6-0.25,2
		c-0.034,0.267-0.117,0.866-0.25,1.8c-0.167,0.867-0.35,1.434-0.55,1.7L45.95,154.2z M147.25,0.15L146,0.45L145.25,0
		c0.066,0,0.116,0,0.15,0C145.934,0,146.55,0.05,147.25,0.15z M151.65,24.5c1.233-0.133,1.949-0.35,2.149-0.65
		c0.101-0.167,0.167-0.967,0.2-2.4l-6,1c-0.6-0.067-1.116,0.083-1.55,0.45c-0.434,0.4-0.584,0.9-0.45,1.5
		C147.934,24.667,149.816,24.7,151.65,24.5z M149,19.5c1.6,0.133,2.884,0.217,3.85,0.25c1.733,0.067,2.967-0.083,3.7-0.45
		c1.101-0.533,1.75-1.733,1.95-3.6c0.233-1.9-0.434-2.65-2-2.25l-6.5-1.5c-0.934,0.7-2.45,1.466-4.55,2.3
		c-1.601,0.933-2.417,2.317-2.45,4.15C144.9,19.133,146.9,19.5,149,19.5z M136,10.95c-1.333,0.633-0.917,1.183,1.25,1.65
		c2.1,0.433,3.017,0.05,2.75-1.15L136,10.95z M120.4,7.6c2.466,0.2,4.133,0.1,5-0.3c0.733-0.3,1.35-0.917,1.85-1.85
		c0.533-1,0.583-1.85,0.15-2.55c-0.834-1.267-3.817-1.9-8.95-1.9c-0.834,0.267-1.983,0.45-3.45,0.55c-1.733,0.133-2.9,0.25-3.5,0.35
		c-4.767,0.967-8.917,2.717-12.45,5.25c-2.033,1.467-2.7,2.917-2,4.35c0.467,0.9,1.517,1.533,3.15,1.9
		c0.533,0.133,1.816,0.3,3.85,0.5c3.134,0.3,6.267,0.117,9.4-0.55c1.566-0.333,2.5-1.017,2.8-2.05c0.1-1.5,0.2-2.75,0.3-3.75
		c0.667-0.133,1.533-0.167,2.601-0.1c-0.5,0.1-0.884,0.267-1.15,0.5l2.5,1l1.05,0.3C121.583,8.45,121.2,7.9,120.4,7.6z M119.35,11.6
		c-0.3-0.033-0.75,0.233-1.35,0.8l-1.1,0.75c-1.801,1.067-4.95,2.184-9.45,3.35c-4.334,1.1-7.45,2.283-9.351,3.55
		c1.834-1.1,4.434-1.7,7.801-1.8c3.8,0.067,6.533,0.017,8.199-0.15l1.75-0.1l-2.35,1.6c-0.733,0.467-2.2,1.2-4.4,2.2
		c-1.866,1.034-2.983,2.117-3.35,3.25c1.033,0.9,2.667,1.4,4.9,1.5c2.6-0.033,4.383-0.066,5.35-0.1c1.434,0,2.384-0.083,2.85-0.25
		c0.367-0.133,1.101-0.667,2.2-1.6c1-0.833,2.483-1.4,4.45-1.7c2.233-0.3,3.8-0.717,4.7-1.25c1.2-0.667,2.733-2.033,4.6-4.1
		c2.167-2.433,2.233-3.633,0.2-3.6l-13.95,1.95c0.066-0.133,0.2-0.25,0.4-0.35l2.3-0.55c0.9-0.2,1.483-0.7,1.75-1.5
		c0.3-1-0.033-1.9-1-2.7c-0.733-0.667-1.717-1.183-2.95-1.55v0.2C121.417,10.017,120.684,10.733,119.35,11.6z M91,20.1
		c2.7-1.133,4.2-2.184,4.5-3.15l-8.5,1.5c-1.033,0.4-1.317,1.05-0.85,1.95C86.65,21.367,88.267,21.267,91,20.1z M91.5,28.45
		c-2.2,0.7-3.75,1.3-4.65,1.8c-2.267,1.2-2.95,2.433-2.05,3.7c0.467,0.633,1.517,0.75,3.15,0.35c1.8-0.533,2.983-0.816,3.55-0.85
		V28.45z M72.85,72.2l0.2,0.1c1.833,0.733,3.184,0.55,4.05-0.55c0.6-0.8,0.9-1.95,0.9-3.45c0.1-0.3,0.183-0.617,0.25-0.95
		c0.067-0.333,0.117-1.3,0.15-2.9l-2.5-0.5c-0.3-0.633-1.1-0.85-2.4-0.65c-0.2,0.034-0.367,0.067-0.5,0.1
		c-0.333,0.067-0.633,0.15-0.9,0.25c-0.133-0.5-0.283-1.05-0.45-1.65c-0.566-1.867-0.917-3.05-1.05-3.55
		c-0.267-1-0.483-2.067-0.65-3.2c0.995-0.604,2.094-1.271,3.3-2c3.067-1.867,5.483-3.25,7.25-4.15c0.367-0.167,0.733-0.317,1.1-0.45
		l-0.55,0.55c-0.233,0.233-0.45,0.466-0.65,0.7c-0.233,0.267-0.433,0.533-0.6,0.8l-0.45,0.65c-0.733,1.1-1.217,2.217-1.45,3.35
		c-0.033,0.066-0.05,0.15-0.05,0.25c-0.4,2.267,0.167,4.3,1.7,6.1c0.267,0.467,0.7,0.983,1.3,1.55c1.066,1,1.717,1.783,1.95,2.35
		l0.1,0.3l0.05,29.45c0,6.233-0.017,10.233-0.05,12c-0.1,4.566-0.316,8.566-0.65,12L81.6,118.6l-0.25-2.3
		c-0.133-1.267-0.583-2.283-1.35-3.05c-1.067-0.866-1.933-1.634-2.6-2.3c-1.5-1.5-2.483-3.15-2.95-4.95
		c-0.333-1.267-0.5-3.184-0.5-5.75c0-7.967-0.3-14.884-0.9-20.75C72.917,77.9,72.85,75.467,72.85,72.2z M82.85,40.75
		c0.2,0.567,1.733,0.867,4.6,0.9c2.333,0.033,4-0.05,5-0.25c1.6-0.3,3.217-0.9,4.85-1.8c1.7-0.9,3.101-1.95,4.2-3.15l-5-0.5
		c-2.467,0.1-5.2,0.517-8.2,1.25C84.167,38.2,82.35,39.383,82.85,40.75z M118.55,42.7l-0.1,15.95c0,0.7,0.083,2.067,0.25,4.1
		c0.033,1.8-0.2,3.017-0.7,3.65c-0.267,0.333-0.667,0.617-1.2,0.85c-0.366,0.167-0.649,0.583-0.85,1.25
		c-0.134-2.133-0.267-3.7-0.4-4.7c0.101-2.367-0.05-7.917-0.45-16.65c-0.066-1.5-0.1-2.933-0.1-4.3
		C116.3,42.783,117.483,42.733,118.55,42.7z M96.35,73.15l-0.199,1.8c1.733,0.5,3.033,1.033,3.899,1.6l0.55,0.4l-0.55,0.1L96,77.5
		c-0.267,4.533-0.4,9.866-0.4,16c-0.033,1.667-0.05,3.733-0.05,6.2c-0.133-6.3-0.366-13.667-0.7-22.1
		c-0.399,0-1.116-0.033-2.149-0.1c-0.9-0.033-1.667-0.117-2.3-0.25c-0.267,0.5-0.634,0.866-1.101,1.1
		c-0.8,0.367-1.533,0.334-2.2-0.1c-0.633-0.4-1.033-1-1.2-1.8c-0.3-1.367,0.184-2.333,1.45-2.9c1.3-0.6,2.333-0.417,3.1,0.55
		c1.267-0.033,2.717,0.133,4.35,0.5l-0.1-2.1L96.35,73.15z M40.85,42.85c-1.434,0.3-2.733,0.717-3.9,1.25
		c0.433,0.733,1.417,1.283,2.95,1.65c1.367,0.333,2.567,0.417,3.6,0.25c0.7-0.133,1.5-0.683,2.4-1.65c0.867-0.9,1.567-1.367,2.1-1.4
		l-3-0.5C43.767,42.383,42.383,42.517,40.85,42.85z M41.05,49.35c1.167,0.333,2.817,0.2,4.95-0.4l2.5-5.5
		c-0.4,0.3-1.817,1.183-4.25,2.65C42.083,47.533,41.017,48.617,41.05,49.35z M66.3,36.05c-2,0.167-3.733,0.5-5.2,1
		c-0.733,0.233-1.733,0.65-3,1.25c-1.633,0.767-2.5,1.317-2.6,1.65c-0.2,0.733,0.767,1.117,2.9,1.15c2.333-0.1,3.684-0.15,4.05-0.15
		c2.833,0.233,4.3,0.35,4.4,0.35c1.5-0.066,2.883-0.517,4.15-1.35c1.067-0.667,1.85-1.583,2.35-2.75c1.233,0.167,2.283,0.4,3.15,0.7
		v0.05c-0.6,0.5-1.55,1.3-2.85,2.4c-1.167,0.933-2.267,1.6-3.3,2c-0.567,0.267-1.35,0.433-2.35,0.5
		c-1.367,0.066-2.183,0.133-2.45,0.2c-0.367,0.067-1.183,0.367-2.45,0.9c-0.743,0.355-1.426,0.539-2.05,0.55
		c0.853,0.002,2.387,0.052,4.6,0.15c2.167,0.1,3.883,0.05,5.15-0.15c2.6-0.167,5.034-1.233,7.3-3.2c2.333-2.066,3.467-4.3,3.4-6.7
		c-1.6-0.867-4.117-1.267-7.55-1.2L74,31.45l-2.05,2.35l0.3-0.4L70,33.45L66.3,36.05z M79,25c1.333-0.033,2.333-0.05,3-0.05l-4.5-3
		c-1.2,0.9-1.7,1.883-1.5,2.95C76.8,24.967,77.8,25,79,25z M31.55,52.8c0.133,1.133,1.3,1.617,3.5,1.45
		c0.333-0.033,1.817-0.3,4.45-0.8l-3.5-4c-1.5,0.867-2.317,1.35-2.45,1.45C32.683,51.467,32.017,52.1,31.55,52.8z M34.4,56.5
		c0.9,0.6,2.1,0.617,3.6,0.05c1.7-0.767,2.867-1.3,3.5-1.6l-4,0.5C35.833,55.617,34.8,55.967,34.4,56.5z M27,56.95l1.5-3.5
		C27.133,54.483,26.633,55.65,27,56.95z M20.9,71.75c0.233-0.067,0.483-0.1,0.75-0.1c-0.233,0.033-0.45,0.067-0.65,0.1
		C20.967,71.75,20.933,71.75,20.9,71.75z M30.275,70.35c-0.255,0.034-0.497,0.067-0.725,0.1c0.567-0.1,1.117-0.2,1.65-0.3
		c-0.3,0.067-0.6,0.133-0.9,0.2H30.275z M82.15,119.45l-0.2,1.85l-0.25-1.7L82.15,119.45z M52.45,125.85
		c-0.067-1-0.217-1.683-0.45-2.05C51.8,124.233,51.95,124.917,52.45,125.85z"/>
	<path style="fill-rule:evenodd;clip-rule:evenodd;fill:#A39A90;" d="M156.25,8.6c0.967-1,1.7-2.083,2.2-3.25
		c0.533-1.233,0.717-2.367,0.55-3.4l-2.85,2.45c0.633-1.467,0.166-2.467-1.4-3c0.733,0.067,1.3,0.083,1.7,0.05
		c2.233-0.133,4.066-0.217,5.5-0.25c0.333-0.034,0.684-0.067,1.05-0.1v0.05c0.566,1.233,0.233,2.483-1,3.75
		c-0.434,0.434-1.75,1.35-3.95,2.75C157.583,7.95,156.983,8.267,156.25,8.6z M140.1,10l4.2,0.7c-1.733,0.033-3.45-0.083-5.149-0.35
		L140.1,10z M140.45,9.25c-0.533,0.1-1.367,0.183-2.5,0.25c-0.233-0.033-1.066-0.15-2.5-0.35c-1-0.167-1.816-0.233-2.45-0.2l0.5-1.5
		c1.733-0.133,3.1-0.167,4.1-0.1C139.5,7.517,140.45,8.15,140.45,9.25z M54.75,54.95c-1.467,0.3-2.817,0.783-4.05,1.45l-1.3,0.05
		c-2.4,1.867-5.017,3.417-7.85,4.65c-2.767,1.667-5.533,2.85-8.3,3.55c-5.3,2.3-10.167,3.85-14.6,4.65
		C17.817,69.267,17,69.167,16.2,69c-2.067-0.3-3.3-0.5-3.7-0.6c-1.7-0.367-2.8-0.8-3.3-1.3c-0.667-0.767-0.883-2.033-0.65-3.8v-0.05
		L9,63c2.333-1.6,4.533-2.933,6.6-4c0.4-0.2,1.3-0.533,2.7-1c1.2-0.4,2.05-0.783,2.55-1.15c0.467-0.333,0.9-0.783,1.3-1.35
		c-0.267,1.033-0.483,1.683-0.65,1.95c-0.5,1.066-1.467,1.767-2.9,2.1c-1.767,0.434-2.934,0.917-3.5,1.45
		c-0.9,0.833-1.2,1.4-0.9,1.7c0.233,0.2,0.833,0.483,1.8,0.85c0.267,0.133,0.75,0.467,1.45,1c0.533,0.4,1.05,0.667,1.55,0.8
		c0.633,0.2,1.55,0.283,2.75,0.25c1.333-0.1,2.25-0.15,2.75-0.15c1.4,0.1,2.433,0.133,3.1,0.1c1.133-0.033,2.066-0.333,2.8-0.9
		c0.233-0.2,0.95-0.95,2.15-2.25c0.6-0.7,1.467-1.167,2.6-1.4c5.8-1.133,10.033-2.6,12.7-4.4C49.65,55.333,51.95,54.783,54.75,54.95
		z M145.1,31.45c-2.199,0.5-4.399,1.55-6.6,3.15c-0.066,0.033-0.1,0.066-0.1,0.1c-0.067,0-0.117,0.017-0.15,0.05
		c-0.066,0.033-0.134,0.083-0.2,0.15l-0.35,0.25c-0.033,0.033-0.084,0.067-0.15,0.1c-0.366,0.267-0.75,0.583-1.149,0.95l-2.851,2.55
		c-0.366,0.333-0.733,0.683-1.1,1.05c-3.233,0.567-6.25,0.817-9.05,0.75c-0.567,0-3.367-0.2-8.4-0.6h-2.15l0.101-0.1
		c1.2-0.967,2.8-1.617,4.8-1.95c2.333-0.233,4.083-0.417,5.25-0.55c1.7-0.2,2.9-0.367,3.6-0.5c1.4-0.3,2.534-0.717,3.4-1.25
		c1.167-0.767,1.884-1.217,2.15-1.35c0.666-0.3,1.566-0.567,2.699-0.8c1.334-0.067,2.301-0.184,2.9-0.35
		c1.134-0.3,1.533-0.983,1.2-2.05c-5.434-0.4-10.15-0.6-14.15-0.6c-2.066,0-5.316-0.083-9.75-0.25c-3.934,1-6.899,1.216-8.899,0.65
		c2.3-0.5,5.267-0.717,8.899-0.65l1.101-0.3c1.833-0.5,5.116-1.3,9.85-2.4l1.4-0.3c-0.767,0.7-1.351,1.15-1.75,1.35
		c-1.067,0.5-2.417,0.784-4.051,0.85c-2.333,0.067-3.699,0.133-4.1,0.2c0.6,0.4,1.583,0.583,2.95,0.55
		c1.533-0.133,2.566-0.2,3.1-0.2c2.8,0,5.5-0.434,8.101-1.3c3.5-1.133,5.866-2.2,7.1-3.2h1.2c-0.601,0.167-1.4,0.5-2.4,1
		c-1.133,0.533-1.95,0.883-2.45,1.05c1.834,0.233,5.834,0.55,12,0.95c3.601,0.2,5.95,0.233,7.051,0.1c2.733-0.4,4.666-1.6,5.8-3.6
		c0.133-0.2,0.184-0.483,0.149-0.85c0-0.367,0.051-0.65,0.15-0.85l0.75,0.7c0.967,1.566,0.5,3.033-1.4,4.4
		c-1.6,1.133-3.166,1.683-4.699,1.65c1.199,0.067,2.133,0.117,2.8,0.15c1.333,0,2.316-0.183,2.95-0.55
		c0.933-0.5,1.583-1.383,1.949-2.65c0.233-0.767,0.384-1.867,0.45-3.3c1.167-0.267,2-0.45,2.5-0.55c0.9-0.233,1.517-0.733,1.851-1.5
		c0.3-0.733,0.366-1.417,0.199-2.05c-0.166-0.667-0.55-1.117-1.149-1.35l0.1-1.15c-2.133-0.533-4.133-0.9-6-1.1
		c0.033,0,1.667-0.1,4.9-0.3c2.166-0.133,3.733,0.033,4.7,0.5c0.833,0.4,1.3,0.917,1.399,1.55c0.066,0.433,0.05,1.183-0.05,2.25
		c0,0.6,0,1.533,0,2.8c-0.1,1.067-0.434,1.85-1,2.35c-0.533,0.5-1.634,0.783-3.3,0.85c-1.601,0.066-2.667,0.4-3.2,1
		c-0.3,0.333-0.517,1.033-0.65,2.1c-0.133,1.067-0.116,1.867,0.051,2.4c0.199,0.633,0.616,1.233,1.25,1.8l-1.351-0.8l-1.5-0.85
		c-0.934-0.5-2.233-0.733-3.899-0.7c-0.934,0-2.284,0.05-4.051,0.15c-0.966,0-2.433-0.017-4.399-0.05
		C147.717,31.033,146.267,31.183,145.1,31.45z M120.4,7.6c0.8,0.3,1.183,0.85,1.149,1.65l-1.05-0.3l-2.5-1
		c0.267-0.233,0.65-0.4,1.15-0.5L120.4,7.6z M121.05,15.9l-0.55,0.05c-0.4,0.367-0.866,0.617-1.4,0.75
		c-0.866,0.2-1.366,0.316-1.5,0.35c-0.5,0.2-1.083,0.517-1.75,0.95l-1.75,0.1c-1.666,0.167-4.399,0.217-8.199,0.15
		c-3.367,0.1-5.967,0.7-7.801,1.8c1.9-1.267,5.017-2.45,9.351-3.55c4.5-1.167,7.649-2.283,9.45-3.35c-1.567,1.1-2.65,1.85-3.25,2.25
		c1.899,0.3,3.533,0.017,4.899-0.85c1.601-1.3,2.917-2.333,3.95-3.1l-2.5,0.5l-0.65-0.35c1.334-0.867,2.067-1.583,2.2-2.15v-0.2
		c1.233,0.367,2.217,0.883,2.95,1.55c0.967,0.8,1.3,1.7,1,2.7c-0.267,0.8-0.85,1.3-1.75,1.5l-2.3,0.55
		C121.25,15.65,121.116,15.767,121.05,15.9z M40.85,42.85c1.533-0.333,2.917-0.467,4.15-0.4l3,0.5c-0.533,0.033-1.233,0.5-2.1,1.4
		c-0.9,0.967-1.7,1.517-2.4,1.65c-1.033,0.167-2.233,0.083-3.6-0.25c-1.533-0.367-2.517-0.917-2.95-1.65
		C38.117,43.567,39.417,43.15,40.85,42.85z M73.95,33.4c3.433-0.066,5.95,0.333,7.55,1.2c0.067,2.4-1.067,4.633-3.4,6.7
		c-2.267,1.967-4.7,3.034-7.3,3.2c0.8-0.167,1.534-0.383,2.2-0.65c2.433-1.067,4.25-2.533,5.45-4.4
		c0.633-0.934,1.017-1.917,1.15-2.95c0.133-1.3-0.4-1.983-1.6-2.05l-1.5,3.45c-0.867-0.3-1.917-0.533-3.15-0.7
		C73.683,36.333,73.883,35.067,73.95,33.4z M66.3,36.05l3.7-2.6l2.25-0.05l-0.3,0.4L70,35.95C68.967,35.917,67.733,35.95,66.3,36.05
		z"/>
	<path style="fill-rule:evenodd;clip-rule:evenodd;fill:#8C847C;" d="M144.3,10.7l-4.2-0.7l-2.75-0.5h0.601
		c1.133-0.067,1.967-0.15,2.5-0.25c2.267-0.3,4.85-0.883,7.75-1.75c1.7-0.533,4.133-1.383,7.3-2.55l0.65-0.55L159,1.95
		c0.167,1.033-0.017,2.167-0.55,3.4c-0.5,1.167-1.233,2.25-2.2,3.25c-1.366,1.367-2.65,2.167-3.85,2.4
		C150.3,11.467,147.6,11.367,144.3,10.7z M65.7,53.15c-2.4,0.967-4.534,1.617-6.4,1.95l-0.95,0.3c-2.6,0.567-5.15,0.9-7.65,1
		c1.233-0.667,2.583-1.15,4.05-1.45c1.3-0.3,3-0.583,5.1-0.85L65.7,53.15z M138.75,25.45c-1.233,1-3.6,2.066-7.1,3.2
		c-2.601,0.867-5.301,1.3-8.101,1.3c-0.533,0-1.566,0.066-3.1,0.2c-1.367,0.033-2.351-0.15-2.95-0.55c0.4-0.067,1.767-0.133,4.1-0.2
		c1.634-0.066,2.983-0.35,4.051-0.85c0.399-0.2,0.983-0.65,1.75-1.35c1.3-1.233,2.333-1.817,3.1-1.75l10.5-4.5
		C141.1,22.717,140.35,24.217,138.75,25.45z M166.45,18.2c0.6,0.233,0.983,0.683,1.149,1.35c0.167,0.633,0.101,1.317-0.199,2.05
		c-0.334,0.767-0.95,1.267-1.851,1.5c-0.5,0.1-1.333,0.283-2.5,0.55c-0.066,1.434-0.217,2.533-0.45,3.3
		c-0.366,1.267-1.017,2.15-1.949,2.65c-0.634,0.367-1.617,0.55-2.95,0.55c-0.667-0.033-1.601-0.083-2.8-0.15
		c1.533,0.033,3.1-0.517,4.699-1.65c1.9-1.367,2.367-2.833,1.4-4.4l-1.5-1.5c0.366-0.367,0.917-0.583,1.65-0.65
		c1.166-0.066,1.8-0.117,1.899-0.15c0.566-0.133,0.983-0.333,1.25-0.6L164.4,21c0.366-0.367,0.649-0.833,0.85-1.4
		c0.233-0.567,0.316-1.1,0.25-1.6L166.45,18.2z M18.65,69.3c-2.3,0.4-4.35,0.617-6.15,0.65c-4.067,0.133-7.667-1.2-10.8-4
		c0.167-0.267,0.283-0.434,0.35-0.5c0.4-0.434,1.034-0.684,1.9-0.75C5.217,64.6,5.9,64.533,6,64.5c0.633-0.2,1.367-0.533,2.2-1
		c0.1-0.067,0.216-0.15,0.35-0.25v0.05c-0.233,1.767-0.017,3.034,0.65,3.8c0.5,0.5,1.6,0.933,3.3,1.3c0.4,0.1,1.633,0.3,3.7,0.6
		C17,69.167,17.817,69.267,18.65,69.3z M116.9,13.15l1.1-0.75c0.6-0.566,1.05-0.833,1.35-0.8l0.65,0.35l2.5-0.5
		c-1.033,0.767-2.35,1.8-3.95,3.1c-1.366,0.867-3,1.15-4.899,0.85C114.25,15,115.333,14.25,116.9,13.15z M70.8,44.5
		c-1.267,0.2-2.983,0.25-5.15,0.15c-2.213-0.098-3.747-0.147-4.6-0.15c0.624-0.011,1.308-0.195,2.05-0.55
		c1.267-0.534,2.083-0.833,2.45-0.9c0.267-0.066,1.083-0.133,2.45-0.2c1-0.067,1.783-0.233,2.35-0.5c1.033-0.4,2.133-1.067,3.3-2
		c1.3-1.1,2.25-1.9,2.85-2.4V37.9l1.5-3.45c1.2,0.066,1.733,0.75,1.6,2.05c-0.133,1.033-0.517,2.017-1.15,2.95
		c-1.2,1.867-3.017,3.333-5.45,4.4C72.333,44.117,71.6,44.333,70.8,44.5z"/>
	<path style="fill-rule:evenodd;clip-rule:evenodd;fill:#938F86;" d="M171.4,42.6c-0.067,0.566-0.2,1.333-0.4,2.3l-0.05,0.35
		c-0.033,0.033-0.05,0.067-0.05,0.1h-0.051c-0.699-0.333-1.733-0.6-3.1-0.8c-0.233-0.033-0.45-0.066-0.65-0.1
		c-0.933-0.133-2.05-0.284-3.35-0.45c-0.134-0.033-0.283-0.05-0.45-0.05c-0.833-0.2-1.8-0.467-2.899-0.8
		c-0.867-0.267-1.801-0.566-2.801-0.9l-0.55-0.2c2.601-0.233,4.55-0.6,5.851-1.1c1.3-0.467,1.899-1.067,1.8-1.8
		c-0.101-1.033-1.033-1.3-2.8-0.8c-0.834,0.233-1.917,0.6-3.25,1.1c-0.167,0.033-0.334,0.083-0.5,0.15
		c-1.867,0.3-4.384,0.4-7.551,0.3c-0.466,0-0.899-0.017-1.3-0.05c-3.2-0.233-4.733-0.817-4.6-1.75h0.05
		c0.033-0.267,0.25-0.517,0.65-0.75c0.333-0.133,3.283-0.2,8.85-0.2c4.233,0.033,6.2-0.883,5.9-2.75l2.55-1.55l0.6-0.35v-0.05
		l1.351,0.8l0.05,0.05l1.649,0.95c0.5,0.2,0.983,0.433,1.45,0.7c0.533,0.3,1.017,0.633,1.45,1L169.3,36l0.15,0.1
		c0.033,0.033,0.083,0.083,0.149,0.15l0.101,0.1c0.133,0.133,0.25,0.283,0.35,0.45l0.15,0.1v0.05c0.2,0.2,0.366,0.433,0.5,0.7h-0.05
		c-1.167-0.133-2.184-0.066-3.051,0.2c-1.166,0.433-1.6,1.233-1.3,2.4c0.101,0.467,0.334,0.817,0.7,1.05
		c0.233,0.167,0.616,0.35,1.15,0.55c0.6,0.3,1.666,0.55,3.199,0.75H171.4z M171.45,41.4c-0.434,0.233-0.95,0.133-1.55-0.3
		c0.399-0.733,0.649-1.283,0.75-1.65c0.133-0.367,0.199-0.733,0.199-1.1c0-0.133-0.017-0.283-0.05-0.45v-0.05
		c0.066,0.167,0.134,0.333,0.2,0.5l0.1,0.2v0.05c0.034,0.1,0.067,0.2,0.101,0.3c0.1,0.467,0.184,0.967,0.25,1.5v0.1
		c0,0.2,0,0.417,0,0.65V41.4z"/>
	<path style="fill-rule:evenodd;clip-rule:evenodd;fill:#C2BEB3;" d="M163.3,32.45v0.05l-0.6,0.35l0.55-0.35L163.3,32.45z
		 M144.7,38.1c-0.867,0.033-2.3,0.033-4.3,0c1.633-0.867,2.816-1.583,3.55-2.15c0.767-0.6,1.767-1.117,3-1.55
		c0.899-0.333,2.083-0.5,3.55-0.5c1.767,0,2.934-0.05,3.5-0.15c0.134-0.7,0.184-1.183,0.15-1.45c1.399-0.033,2.583-0.083,3.55-0.15
		l-0.05,0.05c-0.2,0.4-0.233,1.117-0.101,2.15c0.134,0.933,0,1.583-0.399,1.95c-0.4-0.167-0.983-0.25-1.75-0.25
		c-0.801,0-1.384-0.066-1.75-0.2c-0.267-0.1-0.75-0.4-1.45-0.9c-0.533-0.367-1.101-0.567-1.7-0.6c-3.167-0.067-4.866,0.933-5.1,3
		c-0.4,0.233-0.617,0.483-0.65,0.75H144.7z M170.75,37.75c0.033,0.033,0.05,0.067,0.05,0.1v0.05c0.033,0.167,0.05,0.317,0.05,0.45
		c-0.033-0.167-0.066-0.35-0.1-0.55V37.75z"/>
	<path style="fill-rule:evenodd;clip-rule:evenodd;fill:#B6B2A8;" d="M162.7,32.85l-2.55,1.55c0.3,1.867-1.667,2.783-5.9,2.75
		c-5.566,0-8.517,0.067-8.85,0.2c0.233-2.067,1.933-3.067,5.1-3c0.6,0.033,1.167,0.233,1.7,0.6c0.7,0.5,1.184,0.8,1.45,0.9
		c0.366,0.133,0.949,0.2,1.75,0.2c0.767,0,1.35,0.083,1.75,0.25c0.399-0.367,0.533-1.017,0.399-1.95
		c-0.133-1.033-0.1-1.75,0.101-2.15l0.05-0.05c1.7-0.133,3.066-0.316,4.1-0.55l1.5,0.85l-0.05,0.05L162.7,32.85z M170.7,37.65
		c0,0.033,0.017,0.067,0.05,0.1v0.05c0.033,0.2,0.066,0.383,0.1,0.55c0,0.367-0.066,0.733-0.199,1.1
		c-0.101,0.367-0.351,0.917-0.75,1.65c0.6,0.433,1.116,0.533,1.55,0.3l-0.05,1.2h-0.051c-1.533-0.2-2.6-0.45-3.199-0.75
		c-0.534-0.2-0.917-0.383-1.15-0.55c-0.366-0.233-0.6-0.583-0.7-1.05c-0.3-1.167,0.134-1.967,1.3-2.4
		c0.867-0.267,1.884-0.333,3.051-0.2H170.7z M140.4,38.1c2,0.033,3.433,0.033,4.3,0c-0.134,0.933,1.399,1.517,4.6,1.75
		c0.4,0.033,0.834,0.05,1.3,0.05c3.167,0.1,5.684,0,7.551-0.3c0.166-0.067,0.333-0.117,0.5-0.15c1.333-0.5,2.416-0.867,3.25-1.1
		c1.767-0.5,2.699-0.233,2.8,0.8c0.1,0.733-0.5,1.333-1.8,1.8c-1.301,0.5-3.25,0.867-5.851,1.1c-0.666-0.167-1.583-0.3-2.75-0.4
		c-1.434-0.133-2.366-0.233-2.8-0.3c-1.634-0.267-3.333-0.5-5.1-0.7c-2.634-0.3-5.384-0.517-8.25-0.65l1.699-1.55L140.4,38.1z"/>
	<path style="fill-rule:evenodd;clip-rule:evenodd;fill:#D2CDC1;" d="M138.5,34.6l6.6-3.15c1.167-0.267,2.617-0.417,4.351-0.45
		c1.967,0.033,3.434,0.05,4.399,0.05c1.767-0.1,3.117-0.15,4.051-0.15c1.666-0.033,2.966,0.2,3.899,0.7
		c-1.033,0.233-2.399,0.417-4.1,0.55c-0.967,0.067-2.15,0.117-3.55,0.15c0.033,0.267-0.017,0.75-0.15,1.45
		c-0.566,0.1-1.733,0.15-3.5,0.15c-1.467,0-2.65,0.167-3.55,0.5c-1.233,0.434-2.233,0.95-3,1.55c-0.733,0.566-1.917,1.283-3.55,2.15
		l-0.551,0.35L138.15,40c2.866,0.133,5.616,0.35,8.25,0.65c1.767,0.2,3.466,0.434,5.1,0.7c0.434,0.066,1.366,0.167,2.8,0.3
		c1.167,0.1,2.084,0.233,2.75,0.4l0.55,0.2c1,0.333,1.934,0.633,2.801,0.9c1.1,0.333,2.066,0.6,2.899,0.8
		c0.167,0,0.316,0.017,0.45,0.05c1.3,0.167,2.417,0.317,3.35,0.45c0.2,0.033,0.417,0.066,0.65,0.1c1.366,0.2,2.4,0.467,3.1,0.8
		h0.051c0,0.1-0.017,0.2-0.051,0.3h-0.05c-0.566-0.3-1.267-0.55-2.1-0.75c-0.233-0.066-0.483-0.117-0.75-0.15
		c-1.134-0.233-2.45-0.4-3.95-0.5c-0.066,0-0.116,0-0.15,0c-0.333-0.033-0.683-0.05-1.05-0.05c-1.6-0.133-3.616-0.25-6.05-0.35
		c-1.3-0.133-2.5-0.233-3.6-0.3c-4.101-0.367-6.801-0.566-8.101-0.6c-2.3-0.067-4.533,0.05-6.7,0.35c-1.699,0.2-3.366,0.517-5,0.95
		l-1.899,0.15c-0.934,0.1-1.8,0.367-2.601,0.8h-0.05c0.033-0.267,0.101-0.55,0.2-0.85c0.1-0.233,0.217-0.483,0.35-0.75l0.101-0.25
		c0.5-0.9,1.166-1.75,2-2.55l0.5-0.5c0.166-0.167,0.333-0.333,0.5-0.5c0.366-0.367,0.733-0.716,1.1-1.05l2.851-2.55
		c0.399-0.367,0.783-0.684,1.149-0.95c0.066-0.033,0.117-0.067,0.15-0.1l0.35-0.25c0.066-0.066,0.134-0.117,0.2-0.15
		c0.033-0.033,0.083-0.05,0.15-0.05C138.4,34.667,138.434,34.633,138.5,34.6z M155.2,52.9c-1.634-0.6-3.033-0.9-4.2-0.9l-1.4,0.05
		l-0.05,0.6c-0.033,0.567-0.066,1.4-0.1,2.5c-1.334-0.6-2.95-0.233-4.851,1.1c-1.933,1.333-3.633,1.683-5.1,1.05
		c-0.767-0.333-1.55-1.033-2.35-2.1c-0.867-1.167-1.317-2.233-1.351-3.2c0-0.433,0.084-0.8,0.25-1.1c0.634-1.2,2.566-2,5.8-2.4
		c1.534-0.167,3.067-0.25,4.601-0.25h1.05l0.6,0.55c1,0.733,3.051,0.867,6.15,0.4c2.833-0.4,4.8,0.033,5.9,1.3
		c0.267,0.3,0.466,0.783,0.6,1.45c0.134,0.7,0.066,1.216-0.2,1.55c-0.434,0.567-1.233,0.717-2.399,0.45c-0.4-0.1-1.233-0.4-2.5-0.9
		L155.2,52.9z M92.1,43.9c0.667-0.1,1.367-0.167,2.101-0.2c0.299-0.027,0.599-0.044,0.899-0.05l2-0.05l7.351,0.9
		c-0.733,0.3-1.45,0.5-2.15,0.6c-2.033,0.233-5.05,0.383-9.05,0.45c-3.4,0.267-6.2,1.117-8.4,2.55c-0.067,0-0.117,0.017-0.15,0.05
		c-0.6,0.4-1.133,0.8-1.6,1.2c-0.9,0.667-1.583,1.267-2.05,1.8c-0.167,0.167-0.4,0.6-0.7,1.3c-0.333,0.6-0.583,0.983-0.75,1.15
		c-0.667,0.566-1.233,0.933-1.7,1.1c0.233-1.133,0.717-2.25,1.45-3.35l0.45-0.65c0.167-0.267,0.367-0.534,0.6-0.8
		c0.2-0.233,0.417-0.467,0.65-0.7l0.55-0.55l0.15-0.15c0.833-0.8,1.75-1.533,2.75-2.2c0.667-0.433,1.4-0.8,2.2-1.1L92.1,43.9z
		 M73,63.4c0.167-0.033,0.367-0.066,0.6-0.1c-0.467,1.434-0.817,2.367-1.05,2.8c-0.267,0.433-0.566,0.733-0.9,0.9
		c-0.267,0.1-0.533,0.15-0.8,0.15c-0.133-0.033-0.267-0.066-0.4-0.1L70.3,67c-0.133-0.733-0.167-1.3-0.1-1.7
		c0.015-0.035,0.032-0.068,0.05-0.1c0.133-0.233,0.267-0.434,0.4-0.6l0.1-0.15c0.033-0.034,0.067-0.067,0.1-0.1
		c0.333-0.3,0.75-0.533,1.25-0.7C72.367,63.55,72.667,63.467,73,63.4z"/>
	<path style="fill-rule:evenodd;clip-rule:evenodd;fill:#A7A499;" d="M162.8,44.2c0.367,0,0.717,0.017,1.05,0.05
		c0.034,0,0.084,0,0.15,0c1.5,0.1,2.816,0.267,3.95,0.5c0.233,0.233,0.5,0.483,0.8,0.75c0.267,2.667,0.017,4.483-0.75,5.45l-0.9,0.5
		l-0.3-0.05c-0.399-2.867-0.7-4.517-0.899-4.95c-0.733-1.5-2.184-1.75-4.351-0.75c-0.7,0.333-1.149,0.633-1.35,0.9
		c-0.367,0.4-0.4,0.95-0.101,1.65c0.2,0.5,0.45,0.833,0.75,1c0.301,0.167,0.717,0.217,1.25,0.15c0.167,1.967,0.167,3.7,0,5.2
		c-0.699,0.167-1.633,0.2-2.8,0.1c-1.267-0.1-2.166-0.3-2.7-0.6c-0.333-0.2-0.8-0.6-1.399-1.2l0.45,0.15c1.267,0.5,2.1,0.8,2.5,0.9
		c1.166,0.267,1.966,0.117,2.399-0.45c0.267-0.333,0.334-0.85,0.2-1.55c-0.134-0.667-0.333-1.15-0.6-1.45
		c-1.101-1.267-3.067-1.7-5.9-1.3c-3.1,0.466-5.15,0.333-6.15-0.4l-0.149-1c0.833-0.033,2.116-0.15,3.85-0.35
		c0.134,0.1,0.417,0.367,0.851,0.8c0.366,0.333,0.649,0.533,0.85,0.6c0.9,0.267,1.75,0.3,2.55,0.1c1-0.267,1.533-0.85,1.601-1.75
		c0-0.367-0.051-0.7-0.15-1c0.2-0.067,0.417-0.133,0.65-0.2l4.1-1.55C162.417,44.35,162.6,44.267,162.8,44.2z M141.85,48.5
		c-3.233,0.4-5.166,1.2-5.8,2.4c-0.166,0.3-0.25,0.667-0.25,1.1c-1.1-0.233-1.783-0.783-2.05-1.65c-0.667-2.267-0.1-4.1,1.7-5.5
		c0.633-0.5,1.6-1.017,2.899-1.55c2.167-0.3,4.4-0.417,6.7-0.35c1.3,0.033,4,0.233,8.101,0.6l-9.2,0.45
		c-0.566,0-1.634-0.05-3.2-0.15c-1.3,0.1-1.934,0.683-1.9,1.75c0,1.233,1.051,1.95,3.15,2.15L141.85,48.5z M139.45,62.3l-0.25,0.1
		c-0.066-0.1-0.117-0.2-0.15-0.3c-0.566-0.833-1.116-1.533-1.649-2.1c-0.134-0.133-0.567-0.483-1.301-1.05
		c-0.566-0.467-0.949-0.867-1.149-1.2c-0.066-0.1-0.117-0.217-0.15-0.35c-0.033-0.066-0.05-0.117-0.05-0.15
		c-0.033-0.1-0.05-0.183-0.05-0.25c-0.066-0.3-0.117-0.65-0.15-1.05c0-0.067,0-0.117,0-0.15v-0.2
		C136.217,56.8,137.85,59.033,139.45,62.3z M149.55,52.65l0.05-0.6L151,52c0.134,1.067,1.4,2.717,3.8,4.95
		c2.101,1.933,2.851,3.5,2.25,4.7c-0.333,0.7-1.883,0.983-4.649,0.85c-3.467-0.167-5.267-0.233-5.4-0.2
		c-0.2,1.133-0.3,1.75-0.3,1.85c-0.167,0.667-0.4,1.217-0.7,1.65c-1.366-1.333-2.333-2.25-2.9-2.75c-0.933-0.767-2-1.033-3.199-0.8
		c0.267-1.867,2.283-3.267,6.05-4.2c2.066-0.433,4.483-0.633,7.25-0.6C151.8,56.183,150.583,54.583,149.55,52.65z M83.55,64.25
		c-0.333-0.2-0.633-0.367-0.9-0.5c-0.267-0.2-0.517-0.383-0.75-0.55c-0.133-0.1-0.233-0.184-0.3-0.25l0.25-0.45
		c0.633-0.8,1.533-1.267,2.7-1.4c1.4,0.033,2.434,0,3.1-0.1c0.167-0.8,0.117-1.917-0.15-3.35c-0.3-1.566-0.417-2.7-0.35-3.4
		c0-0.033,0.017-0.067,0.05-0.1c0.167-1.233,0.55-2,1.15-2.3c0.233-0.1,1.167-0.217,2.8-0.35c-0.034-1.233-0.017-2.067,0.05-2.5
		c0.033-0.267,0.133-0.5,0.3-0.7c0.2-0.333,0.566-0.6,1.1-0.8c0.233-0.067,0.5-0.117,0.801-0.15c0.199-0.033,0.416-0.05,0.649-0.05
		c0.334,0,0.717,0.017,1.15,0.05c1.166,0.1,1.983,0.316,2.45,0.65c0.5,0.367,0.783,0.733,0.85,1.1c0.066,0.233,0.134,0.683,0.2,1.35
		c0.267,0.9,0.55,1.633,0.85,2.2c0.134,0.3,0.283,0.55,0.45,0.75c0.767,1.067,1.684,1.3,2.75,0.7c0.1-0.033,0.233-0.133,0.4-0.3
		c0.033,0.5,0.066,1.217,0.1,2.15c0.033,0.566,0.017,1.066-0.05,1.5c-0.066,0.133-0.117,0.267-0.15,0.4
		c-2.267-0.5-3.95-0.983-5.05-1.45c-0.4-0.2-0.733-0.383-1-0.55c-1.7-1.133-2.467-2.983-2.3-5.55c-0.167,1,0.033,2.434,0.6,4.3
		c0.134,0.467,0.267,0.9,0.4,1.3c0.366,1.434,0.566,2.45,0.6,3.05c1.8,0.367,2.95,0.833,3.45,1.4c0.634,0.667-0.017,1.267-1.95,1.8
		c0.134,1.267-0.333,1.917-1.399,1.95c-0.5,0-1.434-0.217-2.801-0.65c-1.833-0.567-3.533-0.967-5.1-1.2
		c-2.6-0.367-4.183-0.083-4.75,0.85C83.55,63.367,83.483,63.75,83.55,64.25z M108.8,48.2c-0.333-0.067-0.616-0.083-0.85-0.05
		c-0.066,0-0.134,0-0.2,0c-0.267,0.033-0.566,0.083-0.9,0.15c-0.3,0.1-0.616,0.217-0.949,0.35c-0.7,0.3-1.267,0.65-1.7,1.05
		c0-0.733-0.084-1.383-0.25-1.95c1.066-0.267,2.05-0.383,2.95-0.35c0.366,0,0.716,0.033,1.05,0.1c0.233,0.033,0.467,0.083,0.7,0.15
		L108.8,48.2z M72.55,66.1c0.767,0,1.35,0.367,1.75,1.1c0.133,0.233,0.25,0.517,0.35,0.85l0.05,0.35c-1.267,0.3-2.65,0.15-4.15-0.45
		c-0.2-0.1-0.417-0.2-0.65-0.3l0.55-0.6c0.133,0.034,0.267,0.067,0.4,0.1c0.267,0,0.533-0.05,0.8-0.15
		C71.983,66.833,72.283,66.533,72.55,66.1z"/>
	<path style="fill-rule:evenodd;clip-rule:evenodd;fill:#8B897F;" d="M170.4,47.6c-0.134,0.6-0.233,1.517-0.301,2.75
		c-0.699,0.1-1.399,0.3-2.1,0.6c0.767-0.967,1.017-2.784,0.75-5.45c-0.033-0.2-0.05-0.4-0.05-0.6c0.833,0.2,1.533,0.45,2.1,0.75
		C170.667,46.217,170.533,46.867,170.4,47.6z M157.5,46.2c-1.733,0.5-3.634,0.917-5.7,1.25c-1.733,0.2-3.017,0.316-3.85,0.35h-2.601
		c-1.933,0-3.05-0.017-3.35-0.05c-2.1-0.2-3.15-0.917-3.15-2.15c-0.033-1.067,0.601-1.65,1.9-1.75c1.566,0.1,2.634,0.15,3.2,0.15
		l9.2-0.45c1.1,0.067,2.3,0.167,3.6,0.3c2.434,0.1,4.45,0.217,6.05,0.35c-0.2,0.066-0.383,0.15-0.55,0.25l-4.1,1.55
		C157.917,46.067,157.7,46.133,157.5,46.2z M140.6,64.75c-0.6-1.033-1.066-1.817-1.399-2.35l0.25-0.1l0.45-0.05
		c1.199-0.233,2.267,0.033,3.199,0.8c0.567,0.5,1.534,1.417,2.9,2.75c0.3-0.433,0.533-0.983,0.7-1.65c0-0.1,0.1-0.717,0.3-1.85
		c0.134-0.033,1.934,0.034,5.4,0.2c2.767,0.133,4.316-0.15,4.649-0.85c0.601-1.2-0.149-2.767-2.25-4.7
		c-2.399-2.233-3.666-3.883-3.8-4.95c1.167,0,2.566,0.3,4.2,0.9c0.6,0.6,1.066,1,1.399,1.2c0.534,0.3,1.434,0.5,2.7,0.6
		c1.167,0.1,2.101,0.066,2.8-0.1c0.167-1.5,0.167-3.233,0-5.2c-0.533,0.067-0.949,0.017-1.25-0.15c-0.3-0.167-0.55-0.5-0.75-1
		c-0.3-0.7-0.267-1.25,0.101-1.65c0.2-0.267,0.649-0.567,1.35-0.9c2.167-1,3.617-0.75,4.351,0.75c0.199,0.433,0.5,2.083,0.899,4.95
		l0.3,0.05c-1.933,1.167-3.25,2.6-3.949,4.3c-0.2,0.5-0.301,1.2-0.301,2.1c-0.033,0.933-0.116,1.6-0.25,2
		c-0.133,0.367-0.483,0.816-1.05,1.35c-0.3,0.267-0.733,0.633-1.3,1.1c-0.333,0.333-1.167,0.9-2.5,1.7
		c-1.1,0.633-1.833,1.267-2.2,1.9c-0.333,0.567-0.6,1.167-0.8,1.8c-0.233,0.4-0.816,0.683-1.75,0.85c-0.467,0.1-1.833-0.066-4.1-0.5
		c-3.434-0.633-5.551-1-6.351-1.1l-1.5-1.6L140.6,64.75z M86.45,65.85c-0.733-0.4-1.35-0.733-1.85-1
		c-0.467-0.267-0.817-0.467-1.05-0.6c-0.066-0.5,0-0.883,0.2-1.15c0.567-0.934,2.15-1.217,4.75-0.85
		c1.566,0.233,3.267,0.633,5.1,1.2c1.367,0.433,2.301,0.65,2.801,0.65c1.066-0.033,1.533-0.684,1.399-1.95
		c1.934-0.533,2.584-1.133,1.95-1.8c-0.5-0.567-1.65-1.033-3.45-1.4c-0.033-0.6-0.233-1.617-0.6-3.05
		c-0.134-0.4-0.267-0.833-0.4-1.3c-0.566-1.867-0.767-3.3-0.6-4.3c-0.167,2.567,0.6,4.417,2.3,5.55c0.267,0.167,0.6,0.35,1,0.55
		c1.1,0.467,2.783,0.95,5.05,1.45c0.033-0.133,0.084-0.267,0.15-0.4c0.066-0.434,0.083-0.934,0.05-1.5
		c-0.033-0.934-0.066-1.65-0.1-2.15c-0.134-1.633,0.066-2.833,0.6-3.6c0.1-0.167,0.25-0.333,0.45-0.5c0.434-0.4,1-0.75,1.7-1.05
		c0.333-0.133,0.649-0.25,0.949-0.35c0.334-0.066,0.634-0.117,0.9-0.15c0.066,0,0.134,0,0.2,0c0.233-0.033,0.517-0.017,0.85,0.05
		c0.066,0.367,0.134,0.75,0.2,1.15l-0.05,4.2c-0.033,0.133-0.05,0.267-0.05,0.4l-0.851,4.5l-0.25,1.25l-0.125,0.425
		c-0.092,0.304-0.2,0.612-0.325,0.925c-1.199,0-1.949,0.067-2.25,0.2c-0.433,0.2-0.85,0.8-1.25,1.8c-0.433,1.1-0.966,1.833-1.6,2.2
		c-0.467,0.233-1.467,0.467-3,0.7c-2.767,0.466-6.7,0.583-11.8,0.35c-0.1-0.033-0.184-0.05-0.25-0.05h-0.05L86.45,65.85z M74.7,68.4
		c0.566-0.133,1.233-0.417,2-0.85l1.1,1.1c-0.066,0.1-0.117,0.217-0.15,0.35c-0.133,0.133-0.25,0.283-0.35,0.45l-0.05,0.05
		c-0.033,0-0.067,0.017-0.1,0.05H76.7c-0.267,0.067-0.667,0.25-1.2,0.55c-0.533,0.233-0.95,0.4-1.25,0.5
		c-0.033,0-0.067,0.017-0.1,0.05H74.1c-0.133,0-0.267,0.017-0.4,0.05l-0.75-0.05c-0.034,0-0.067,0-0.1,0s-0.067,0-0.1,0
		c-0.867-0.033-1.533-0.183-2-0.45c-0.1-0.1-0.2-0.184-0.3-0.25L70.4,69.9l-0.45-0.7c-0.133-0.3-0.217-0.633-0.25-1l0.1-0.6
		l0.1,0.05c0.233,0.1,0.45,0.2,0.65,0.3C72.05,68.55,73.433,68.7,74.7,68.4z"/>
	<path style="fill-rule:evenodd;clip-rule:evenodd;fill:#B2AEA3;" d="M169.9,54.4c0.033-0.3,0.1-1.65,0.199-4.05
		c0.067-1.233,0.167-2.15,0.301-2.75c-0.167,0.833-0.267,1.95-0.301,3.35C170.066,52.583,170,53.733,169.9,54.4z M151.8,47.45
		c2.066-0.333,3.967-0.75,5.7-1.25c0.1,0.3,0.15,0.633,0.15,1c-0.067,0.9-0.601,1.483-1.601,1.75c-0.8,0.2-1.649,0.167-2.55-0.1
		c-0.2-0.067-0.483-0.267-0.85-0.6C152.217,47.817,151.934,47.55,151.8,47.45z M148.1,48.8l-0.6-0.55h-1.05
		c-1.533,0-3.066,0.083-4.601,0.25l0.15-0.75c0.3,0.033,1.417,0.05,3.35,0.05h2.601L148.1,48.8z M168.7,44.9
		c0,0.2,0.017,0.4,0.05,0.6c-0.3-0.267-0.566-0.517-0.8-0.75C168.217,44.783,168.467,44.833,168.7,44.9z M138.35,43.3
		c-1.3,0.534-2.267,1.05-2.899,1.55c-1.8,1.4-2.367,3.233-1.7,5.5c0.267,0.867,0.95,1.417,2.05,1.65
		c0.033,0.967,0.483,2.033,1.351,3.2c0.8,1.066,1.583,1.767,2.35,2.1c1.467,0.633,3.167,0.284,5.1-1.05
		c1.9-1.333,3.517-1.7,4.851-1.1c0.033-1.1,0.066-1.933,0.1-2.5c1.033,1.934,2.25,3.533,3.65,4.8c-2.767-0.034-5.184,0.167-7.25,0.6
		c-3.767,0.934-5.783,2.333-6.05,4.2l-0.45,0.05c-1.601-3.267-3.233-5.5-4.9-6.7c0-0.067,0-0.117,0-0.15
		c-0.033-0.6-0.083-1.05-0.149-1.35c-0.101-0.333-0.301-0.733-0.601-1.2c-0.066-0.066-0.133-0.15-0.2-0.25
		c-0.633-0.833-0.966-1.283-1-1.35c-0.133-0.167-0.733-0.833-1.8-2c-0.066-0.1-0.149-0.2-0.25-0.3
		c-0.934-1.067-1.483-1.883-1.649-2.45c-0.134-0.433-0.15-0.883-0.051-1.35c0.801-0.434,1.667-0.7,2.601-0.8l1.899-0.15
		C134.983,43.817,136.65,43.5,138.35,43.3z M138.5,34.6c2.2-1.6,4.4-2.65,6.6-3.15L138.5,34.6z M79.55,61.05
		c-1.533-1.8-2.1-3.833-1.7-6.1c0-0.1,0.017-0.184,0.05-0.25c0.467-0.167,1.033-0.534,1.7-1.1c0.167-0.167,0.417-0.55,0.75-1.15
		c0.3-0.7,0.533-1.133,0.7-1.3c0.467-0.533,1.15-1.133,2.05-1.8c0.467-0.4,1-0.8,1.6-1.2c0.033-0.033,0.083-0.05,0.15-0.05
		c2.2-1.434,5-2.283,8.4-2.55c4-0.066,7.017-0.216,9.05-0.45c0.7-0.1,1.417-0.3,2.15-0.6c0.1,0.033,0.217,0.067,0.35,0.1v0.05
		l0.101,0.8l2.1,0.35l0.9,0.15l0.05,0.05c0.533,0.833,0.883,1.95,1.05,3.35c-0.066-0.4-0.134-0.783-0.2-1.15l-0.149-0.55
		c-0.233-0.066-0.467-0.117-0.7-0.15c-0.334-0.067-0.684-0.1-1.05-0.1c-0.9-0.033-1.884,0.083-2.95,0.35
		c0.166,0.567,0.25,1.217,0.25,1.95c-0.2,0.167-0.351,0.333-0.45,0.5c-0.533,0.767-0.733,1.966-0.6,3.6
		c-0.167,0.167-0.301,0.267-0.4,0.3c-1.066,0.6-1.983,0.367-2.75-0.7c-0.167-0.2-0.316-0.45-0.45-0.75
		c-0.3-0.566-0.583-1.3-0.85-2.2c-0.066-0.667-0.134-1.117-0.2-1.35c-0.066-0.367-0.35-0.733-0.85-1.1
		c-0.467-0.333-1.284-0.55-2.45-0.65c-0.434-0.033-0.816-0.05-1.15-0.05c-0.233,0-0.45,0.017-0.649,0.05
		c-0.301,0.033-0.567,0.083-0.801,0.15c-0.533,0.2-0.899,0.467-1.1,0.8c-0.167,0.2-0.267,0.434-0.3,0.7
		c-0.066,0.433-0.084,1.267-0.05,2.5c-1.634,0.133-2.567,0.25-2.8,0.35c-0.6,0.3-0.983,1.066-1.15,2.3
		c-0.034,0.033-0.05,0.067-0.05,0.1c-0.066,0.7,0.05,1.833,0.35,3.4c0.267,1.434,0.317,2.55,0.15,3.35c-0.667,0.1-1.7,0.133-3.1,0.1
		c-1.167,0.133-2.066,0.6-2.7,1.4l-0.25,0.45c0.066,0.066,0.167,0.15,0.3,0.25c-0.7-0.5-1.283-1-1.75-1.5
		C79.917,61.467,79.717,61.25,79.55,61.05z M92.1,43.9c0.733-0.133,1.517-0.217,2.351-0.25c0.225,0,0.441,0,0.649,0
		c-0.301,0.006-0.601,0.023-0.899,0.05C93.467,43.733,92.767,43.8,92.1,43.9z M106.4,64.2l0.949-3.15
		c0.125-0.313,0.233-0.621,0.325-0.925C107.317,61.398,106.892,62.757,106.4,64.2z M90.2,67.95c-0.367-0.167-0.733-0.35-1.1-0.55
		c-0.333-0.2-0.65-0.4-0.95-0.6C89.15,67.367,89.833,67.75,90.2,67.95z M102.75,68.35c-0.434,0.066-0.934,0.1-1.5,0.1
		c-0.833,0.033-1.934,0.033-3.3,0c-0.367,0-1.351,0.033-2.95,0.1c-1.267,0.034-2.267,0-3-0.1c-0.4-0.034-0.8-0.117-1.2-0.25
		c0.601,0,1.184,0.017,1.75,0.05c1.2,0.033,2.316,0.067,3.351,0.1c1.833,0.033,3.35,0.066,4.55,0.1
		C101.35,68.45,102.116,68.417,102.75,68.35z M82.65,63.75c0.267,0.133,0.567,0.3,0.9,0.5c0.233,0.133,0.583,0.333,1.05,0.6
		c0.5,0.267,1.117,0.6,1.85,1c-0.767-0.367-1.483-0.733-2.15-1.1C83.7,64.383,83.15,64.05,82.65,63.75z M145.6,68.95
		c-0.233-0.067-0.449-0.15-0.649-0.25c-0.134-0.067-0.25-0.117-0.351-0.15c-1.666-0.867-3-2.133-4-3.8l0.45,0.6l1.5,1.6l-0.2-0.05
		C143.25,67.767,144.333,68.45,145.6,68.95z M134.7,57c-0.033-0.1-0.066-0.183-0.101-0.25c-0.033-0.233-0.05-0.5-0.05-0.8
		C134.583,56.35,134.634,56.7,134.7,57z M78,68.3c-0.1,0.233-0.217,0.467-0.35,0.7c0.033-0.133,0.083-0.25,0.15-0.35l-1.1-1.1
		c-0.767,0.434-1.434,0.717-2,0.85l-0.05-0.35c-0.1-0.333-0.217-0.617-0.35-0.85c-0.4-0.733-0.983-1.1-1.75-1.1
		c0.233-0.434,0.583-1.367,1.05-2.8c-0.233,0.034-0.434,0.067-0.6,0.1c0.133-0.033,0.3-0.066,0.5-0.1c1.3-0.2,2.1,0.017,2.4,0.65
		l2.5,0.5c-0.033,1.6-0.083,2.566-0.15,2.9C78.183,67.683,78.1,68,78,68.3z M69.95,69.2c-0.267-0.567-0.35-1.284-0.25-2.15
		c0.093-0.714,0.26-1.297,0.5-1.75c-0.067,0.4-0.034,0.967,0.1,1.7l0.15,0.05l-0.55,0.6l-0.1-0.05l-0.1,0.6
		C69.733,68.567,69.817,68.9,69.95,69.2z M76.9,69.8c-0.4,0.333-0.95,0.567-1.65,0.7v-0.05C75.917,70.35,76.467,70.133,76.9,69.8z"
		/>
	<path style="fill-rule:evenodd;clip-rule:evenodd;fill:#68665F;" d="M154.95,70c-0.033,0-0.066,0-0.101,0c-0.033,0-0.066,0-0.1,0
		l-3.45-0.05c-0.399,0-0.816-0.017-1.25-0.05l-0.2,0.35L148.2,70l0.149-0.3c-0.399-0.067-0.783-0.15-1.149-0.25l-0.4-0.1
		c-0.2-0.067-0.383-0.117-0.55-0.15l-0.65-0.25c-1.267-0.5-2.35-1.184-3.25-2.05l0.2,0.05c0.8,0.1,2.917,0.466,6.351,1.1
		c2.267,0.434,3.633,0.6,4.1,0.5c0.934-0.167,1.517-0.45,1.75-0.85c0.2-0.633,0.467-1.233,0.8-1.8c0.367-0.633,1.101-1.267,2.2-1.9
		c1.333-0.8,2.167-1.367,2.5-1.7c0.566-0.466,1-0.833,1.3-1.1c0.566-0.534,0.917-0.983,1.05-1.35c0.134-0.4,0.217-1.067,0.25-2
		c0-0.9,0.101-1.6,0.301-2.1c0.699-1.7,2.017-3.133,3.949-4.3l0.9-0.5c0.7-0.3,1.4-0.5,2.1-0.6c-0.1,2.4-0.166,3.75-0.199,4.05
		c-0.301,2.467-1.483,4.833-3.551,7.1c-0.666,0.733-1.583,1.883-2.75,3.45c-1.199,1.566-2.133,2.716-2.8,3.45
		c-0.8,0.9-1.7,1.417-2.7,1.55C157.967,69.983,156.917,70,154.95,70z M107.35,61.05L106.4,64.2c-0.067,0.233-0.167,0.55-0.301,0.95
		c-0.133,0.333-0.267,0.717-0.399,1.15c-0.334,0.833-0.767,1.383-1.3,1.65c-0.134,0.066-0.301,0.133-0.5,0.2l-1.15,0.2
		c-0.634,0.066-1.4,0.1-2.3,0.1c-1.2-0.034-2.717-0.067-4.55-0.1c-1.034-0.033-2.15-0.067-3.351-0.1
		c-0.566-0.033-1.149-0.05-1.75-0.05c-0.166-0.034-0.333-0.05-0.5-0.05L90.35,68H90.3l-0.1-0.05c-0.367-0.2-1.05-0.583-2.05-1.15
		c-0.3-0.167-0.633-0.35-1-0.55h0.05c0.066,0,0.15,0.017,0.25,0.05c5.1,0.233,9.033,0.117,11.8-0.35c1.533-0.233,2.533-0.467,3-0.7
		c0.634-0.367,1.167-1.1,1.6-2.2c0.4-1,0.817-1.6,1.25-1.8C105.4,61.117,106.15,61.05,107.35,61.05z M72.15,71.85l0.6-1.2
		c0.033,0,0.067,0,0.1,0s0.066,0,0.1,0l0.75,0.05c0.133-0.034,0.267-0.05,0.4-0.05h0.05c0.033-0.033,0.067-0.05,0.1-0.05
		c0.3-0.1,0.717-0.267,1.25-0.5c0.533-0.3,0.933-0.483,1.2-0.55h0.45L76.9,69.8c-0.433,0.333-0.983,0.55-1.65,0.65v0.05l0.25,0.75
		c-1.267,0.5-2.283,0.733-3.05,0.7h-0.1L72.1,71.9L72.15,71.85z"/>
	<path style="fill-rule:evenodd;clip-rule:evenodd;fill:#C3B9AC;" d="M140.5,0.05c0-0.033,0.017-0.05,0.05-0.05h4.7L146,0.45
		l1.25-0.3l0.1-0.05c0.867,0.1,2.067,0.3,3.601,0.6c1.633,0.333,2.816,0.55,3.55,0.65c-0.667,1.8-2.2,2.967-4.6,3.5
		c-1.667,0.333-3.7,0.517-6.101,0.55c-2.7,0.067-4.733-0.117-6.1-0.55c-1.733-0.5-2.167-1.317-1.3-2.45
		C137.2,1.4,138.566,0.617,140.5,0.05z M79.15,15.95H79.1c2.3-0.867,3.85-1.534,4.65-2l0.1-0.1c0.4-0.267,0.933-0.75,1.6-1.45
		c0.667-0.667,1.216-1.15,1.65-1.45l1.2-0.8c0.467-0.267,0.983-0.566,1.55-0.9l0.65,0.7c0.033,1.333-0.867,2.633-2.7,3.9
		c-1.5,1.033-3.017,1.717-4.55,2.05c-0.4,0.067-0.983,0.133-1.75,0.2C80.5,16.133,79.717,16.083,79.15,15.95z M149,19.5
		c-2.1,0-4.1-0.367-6-1.1c0.033-1.833,0.85-3.217,2.45-4.15c2.1-0.833,3.616-1.6,4.55-2.3l6.5,1.5c1.566-0.4,2.233,0.35,2,2.25
		c-0.2,1.867-0.85,3.066-1.95,3.6c-0.733,0.367-1.967,0.517-3.7,0.45C151.884,19.717,150.6,19.633,149,19.5z M151.65,24.5
		c-1.834,0.2-3.717,0.167-5.65-0.1c-0.134-0.6,0.017-1.1,0.45-1.5c0.434-0.367,0.95-0.517,1.55-0.45l6-1
		c-0.033,1.433-0.1,2.233-0.2,2.4C153.6,24.15,152.884,24.367,151.65,24.5z M120.4,7.6l-1.25-0.15
		c-1.067-0.067-1.934-0.034-2.601,0.1c-0.1,1-0.2,2.25-0.3,3.75c-0.3,1.034-1.233,1.717-2.8,2.05c-3.134,0.667-6.267,0.85-9.4,0.55
		c-2.033-0.2-3.316-0.367-3.85-0.5c-1.634-0.367-2.684-1-3.15-1.9c-0.7-1.433-0.033-2.883,2-4.35
		c3.533-2.533,7.684-4.283,12.45-5.25c0.6-0.1,1.767-0.217,3.5-0.35c1.467-0.1,2.616-0.283,3.45-0.55c5.133,0,8.116,0.633,8.95,1.9
		c0.433,0.7,0.383,1.55-0.15,2.55c-0.5,0.933-1.116,1.55-1.85,1.85C124.533,7.7,122.866,7.8,120.4,7.6z M136,10.95l4,0.5
		c0.267,1.2-0.65,1.583-2.75,1.15C135.083,12.133,134.667,11.583,136,10.95z M121.05,15.9L135,13.95
		c2.033-0.034,1.967,1.167-0.2,3.6c-1.866,2.067-3.399,3.434-4.6,4.1c-0.9,0.533-2.467,0.95-4.7,1.25
		c-1.967,0.3-3.45,0.867-4.45,1.7c-1.1,0.933-1.833,1.467-2.2,1.6c-0.466,0.167-1.416,0.25-2.85,0.25
		c-0.967,0.033-2.75,0.066-5.35,0.1c-2.233-0.1-3.867-0.6-4.9-1.5c0.366-1.133,1.483-2.216,3.35-3.25c2.2-1,3.667-1.733,4.4-2.2
		l2.35-1.6c0.667-0.433,1.25-0.75,1.75-0.95c0.134-0.033,0.634-0.15,1.5-0.35c0.534-0.133,1-0.383,1.4-0.75L121.05,15.9z
		 M91.5,28.45v5c-0.566,0.033-1.75,0.316-3.55,0.85c-1.633,0.4-2.684,0.284-3.15-0.35c-0.9-1.267-0.216-2.5,2.05-3.7
		C87.75,29.75,89.3,29.15,91.5,28.45z M91,20.1c-2.733,1.167-4.35,1.267-4.85,0.3c-0.467-0.9-0.183-1.55,0.85-1.95l8.5-1.5
		C95.2,17.917,93.7,18.967,91,20.1z M82.85,40.75c-0.5-1.367,1.316-2.55,5.45-3.55c3-0.733,5.733-1.15,8.2-1.25l5,0.5
		c-1.1,1.2-2.5,2.25-4.2,3.15c-1.633,0.9-3.25,1.5-4.85,1.8c-1,0.2-2.667,0.283-5,0.25C84.583,41.617,83.05,41.317,82.85,40.75z
		 M66.3,36.05c1.434-0.1,2.667-0.133,3.7-0.1l1.95-2.15L74,31.45l-0.05,1.95c-0.067,1.667-0.267,2.934-0.6,3.8
		c-0.5,1.167-1.283,2.083-2.35,2.75c-1.267,0.833-2.65,1.283-4.15,1.35c-0.1,0-1.567-0.117-4.4-0.35c-0.367,0-1.717,0.05-4.05,0.15
		c-2.133-0.033-3.1-0.417-2.9-1.15c0.1-0.333,0.967-0.883,2.6-1.65c1.267-0.6,2.267-1.017,3-1.25
		C62.567,36.55,64.3,36.217,66.3,36.05z M41.05,49.35c-0.033-0.733,1.034-1.817,3.2-3.25c2.433-1.467,3.85-2.35,4.25-2.65l-2.5,5.5
		C43.867,49.55,42.217,49.683,41.05,49.35z M79,25c-1.2,0-2.2-0.033-3-0.1c-0.2-1.066,0.3-2.05,1.5-2.95l4.5,3
		C81.333,24.95,80.333,24.967,79,25z M27,56.95c-0.367-1.3,0.133-2.467,1.5-3.5L27,56.95z M34.4,56.5
		c0.4-0.533,1.434-0.883,3.1-1.05l4-0.5c-0.633,0.3-1.8,0.833-3.5,1.6C36.5,57.117,35.3,57.1,34.4,56.5z M31.55,52.8
		c0.467-0.7,1.133-1.333,2-1.9c0.133-0.1,0.95-0.583,2.45-1.45l3.5,4c-2.633,0.5-4.117,0.767-4.45,0.8
		C32.85,54.417,31.683,53.933,31.55,52.8z"/>
	<path style="fill-rule:evenodd;clip-rule:evenodd;fill:#7C7367;" d="M154.85,70c0.034,0,0.067,0,0.101,0c0,1.3-0.05,2.267-0.15,2.9
		c-0.166,1.1-0.467,2.033-0.899,2.8c-0.334,0.633-0.767,1.167-1.301,1.6c-1,0.8-2.533,1.267-4.6,1.4v-0.05l0.3-2.55
		c0.167-1.533,0.217-3.5,0.15-5.9c2.033,0.566,3.85,0.617,5.45,0.15c0.267-0.033,0.533-0.133,0.8-0.3L154.85,70z M140.75,78.5
		c-0.667,0-1.2-0.017-1.6-0.05c-0.4,0-0.65-0.017-0.75-0.05c-0.167-0.034-0.351-0.067-0.551-0.101
		c-0.267-3.667-0.399-7.1-0.399-10.3l-0.05-1.55c-2.667-0.8-4.233-1.75-4.7-2.85c-0.5-1.167-0.483-2,0.05-2.5
		c0.3-0.3,1-0.583,2.1-0.85c0.067,1.367,0.584,2.433,1.551,3.2c0.333,0.267,1.05,0.767,2.149,1.5c0.967,0.767,1.517,1.466,1.65,2.1
		c0.1,0.733-0.2,1.434-0.9,2.1c1.066,0.8,2.5,0.767,4.3-0.1l0.25,1.2c0.5,2.733,0.817,5.2,0.95,7.4l-0.399-0.1
		c-0.101,0.233-0.117,0.617-0.051,1.15C142.55,78.566,141.35,78.5,140.75,78.5z M144.95,77.7v-9c0.2,0.1,0.416,0.183,0.649,0.25
		l0.65,0.25c0.033,0.033,0.083,0.066,0.15,0.1l-0.101,1.9c0,0.333,0.084,1.333,0.25,3c0.101,1.533,0.033,2.466-0.2,2.8
		C145.95,77.567,145.483,77.8,144.95,77.7z M119.4,80.55c-0.567,0.634-1.067,1.334-1.5,2.101c-0.067-1.2-0.284-2.534-0.65-4
		c-0.5-1.7-0.866-3.034-1.1-4l-0.051-0.3c0,1.533-0.066,3.833-0.199,6.9L114.85,91c-0.066,0.233-0.116,0.483-0.149,0.75
		c-0.467,0.634-0.967,1.05-1.5,1.25c0.333-2.4,0.533-6.017,0.6-10.85c-0.467-8.734-0.85-15.2-1.149-19.4
		c0.1-0.7,0.083-1.533-0.051-2.5h-0.1l-0.95-12.7l-0.35-0.8V43.1c0.633-0.1,1.267-0.15,1.899-0.15h0.65
		c0.134-0.034,0.267-0.05,0.4-0.05l0.3,10.5c0.033,1.333,0.149,2.934,0.35,4.8c0.134,1.066,0.351,2.65,0.65,4.75l0.1,0.85
		c0.134,1,0.267,2.567,0.4,4.7c0.2-0.667,0.483-1.083,0.85-1.25c0.533-0.233,0.934-0.517,1.2-0.85c0.5-0.633,0.733-1.85,0.7-3.65
		c-0.167-2.033-0.25-3.4-0.25-4.1l0.1-15.95c0.934-0.034,1.75-0.05,2.45-0.05h0.7c0.112,0.004,0.212,0.021,0.3,0.05
		c0.033,4.066,0.066,9.066,0.1,15L120.7,78.8c-0.033,0.167-0.066,0.351-0.101,0.55C120.167,79.717,119.767,80.116,119.4,80.55z
		 M105.1,90.15l-0.05,3.05c-0.233,0.066-0.467,0.166-0.7,0.3c-0.733,0.366-1.366,0.95-1.899,1.75c-0.4,0.533-0.767,1.167-1.101,1.9
		c-1.066,2.433-1.833,5.683-2.3,9.75c-0.6,5.1-1.066,8.35-1.399,9.75l-1.9,4.149c-0.033,0.033-0.05,0.066-0.05,0.101
		c-0.101,0.1-0.2,0.199-0.3,0.3l-2.7-0.5l-1.351-0.25L91.2,120.4h0.149c0.5-0.101,0.884-0.317,1.15-0.65l0.2-0.4
		c0.267-0.666,0.333-1.833,0.2-3.5l0.3,0.351c1.833,1.1,3.233-1.101,4.2-6.601c0.633-6.066,0.983-9.416,1.05-10.05
		c0.934-9.899,1.467-17.399,1.6-22.5l0.55-0.1l-0.55-0.4v-2.2c-1.166-0.267-2.399-0.667-3.7-1.2L94.7,72.5
		c-1.7-0.733-2.75-1.167-3.15-1.3c-1.233-0.367-2.383-0.467-3.45-0.3c-1.7,0.267-2.75,1.067-3.15,2.4c-0.667,2.3-1.184,3.7-1.55,4.2
		c-0.133-1.033-0.117-2.817,0.05-5.35c0.133-2.4,0.1-4.2-0.1-5.4c0.6,1.533,2.583,2.667,5.95,3.4c1.967,0.467,4.167,0.75,6.601,0.85
		c3,0.067,4.767,0.067,5.3,0c1.8-0.267,3.184-1.133,4.149-2.6c0.267-0.4,0.5-0.967,0.7-1.7c0.3-1,0.483-1.583,0.55-1.75l-0.5,0.2
		c0.134-0.4,0.233-0.717,0.301-0.95c0.491-1.443,0.917-2.802,1.274-4.075L107.8,59.7l0.25-1.25l0.8,0.15
		c0.867-5.833,1.45-10.2,1.75-13.1l0.601,1.25l0.25,13.7c-0.267,0.1-0.533,0.25-0.8,0.45c-0.567,0.467-0.983,1.05-1.25,1.75
		c-0.233,0.733-0.25,1.467-0.051,2.2l0.851,0.2c0.533,0.1,0.983,0.067,1.35-0.1l0.05,2.5c0,1.367,0.017,3.433,0.051,6.2
		c0,2.434-0.034,4.484-0.101,6.15c-0.1,2.167-0.366,3.816-0.8,4.95c-0.9,2.533-1.384,5.3-1.45,8.3l-1.45-0.1L106.95,72.7
		c-0.5,0.566-1.066,1.017-1.7,1.35L105.1,90.15z M76.45,117.6l5.15,1l2.3,0.45h-0.35c-0.6,0.134-1.066,0.267-1.4,0.4L81.7,119.6
		c-1.067,0.4-1.767,0.634-2.1,0.7c-0.833,0.2-1.617,0.2-2.35,0l-0.5-0.149C76.55,119.583,76.45,118.733,76.45,117.6z M67,115.05
		c-0.1,0.2-0.167,0.417-0.2,0.65v0.1l-0.3,4.15l-0.3-0.2c-0.267-0.366-0.45-0.983-0.55-1.85l0.3-0.051l-0.35-1.05v-0.05v-0.5
		l-0.2,0.15l-0.1-0.101l0.4-1.899l0.35-2.051c0.767-4.666,1.083-8.683,0.95-12.05c-0.067-1.633-0.15-2.717-0.25-3.25
		c-0.233-1.133-0.7-2.033-1.4-2.7l-0.1-0.05c-0.167-1.066-1.283-2-3.35-2.8c-1.133-0.467-2.7-0.967-4.7-1.5
		c-1.934-0.667-2.95-1.033-3.05-1.1c-1.167-0.567-1.883-1.334-2.15-2.301c-0.233-0.933-0.317-2.233-0.25-3.899
		c0.133-1.8,0.2-3.117,0.2-3.95V70.1c0.2-0.667,0.4-1.15,0.6-1.45c-0.1,2.467-0.083,6.184,0.05,11.15c0,0.767-0.033,2.066-0.1,3.9
		c0.067,1.6,0.433,2.816,1.1,3.649c0.467,0.601,3.15,1.483,8.05,2.65c4.133,1,6.033,2.533,5.7,4.6
		c1.767,0.034,2.816,0.517,3.15,1.45c0.167,0.467,0.15,1.767-0.05,3.9c-0.034,0.666,0,2.649,0.1,5.95
		c0.067,2.866-0.017,4.983-0.25,6.35c-1.066,0.167-1.883,0.55-2.45,1.15c-0.133,0.166-0.25,0.333-0.35,0.5l-0.3,0.6
		C67.1,114.667,67.033,114.85,67,115.05z M59.55,135.7v3.45c-0.3,0.267-0.566,0.699-0.8,1.3c-0.433,1.3-0.683,3.3-0.75,6
		c0-0.2,0-0.4,0-0.601c-0.267-3.899-0.517-6.933-0.75-9.1c-0.033-0.167-0.05-0.316-0.05-0.45l-0.15-1.35
		c-0.033-0.167-0.066-0.334-0.1-0.5c0-0.101-0.017-0.2-0.05-0.3c-0.066-0.367-0.133-0.717-0.2-1.051
		c-0.034-0.166-0.067-0.333-0.1-0.5c0-0.066-0.017-0.133-0.05-0.199c-0.033-0.101-0.05-0.2-0.05-0.301
		c0-0.066-0.017-0.133-0.05-0.199c0-0.034,0-0.067,0-0.101c-0.034-0.033-0.05-0.083-0.05-0.149l-0.05-0.301
		c-0.467-1.733-1.017-3.366-1.65-4.899c0-0.101,0.017-0.2,0.05-0.3c0.3-1.101,0.85-1.5,1.65-1.2c0.434,0.166,0.667,0.883,0.7,2.149
		c0,1.634,0.05,2.567,0.15,2.801c0.233,0.666,0.683,1.533,1.35,2.6C58.8,133.333,59.117,134.4,59.55,135.7z M39.9,151.1
		c0.133,0.034,0.283,0.051,0.45,0.051c0.4,0.033,0.733,0.066,1,0.1l-1.7-0.15H39.9z M17.1,114.3l0.05,0.25
		c-0.066-0.233-0.117-0.45-0.15-0.649L17.1,114.3z M133.8,52.9c-0.2,0.067-0.416,0.117-0.649,0.15
		c-1.167,0.167-1.983-0.117-2.45-0.85c-0.5-0.667-0.517-1.534-0.05-2.6c0.033-0.1,0.083-0.2,0.149-0.3
		c1.066,1.167,1.667,1.833,1.8,2c0.034,0.067,0.367,0.517,1,1.35C133.667,52.75,133.733,52.833,133.8,52.9z M107,45.8
		c0-0.367,0.017-0.733,0.05-1.1c0.033-0.233,0.066-0.467,0.101-0.7c0.267-0.067,0.533-0.133,0.8-0.2V46l-0.05-0.05L107,45.8z
		 M82.65,63.75c0.5,0.3,1.05,0.633,1.65,1c-0.333-0.167-0.633-0.283-0.9-0.35c-0.2,0.6-0.283,1.117-0.25,1.55l-0.25-0.7l-0.1-0.3
		c-0.233-0.567-0.883-1.35-1.95-2.35c-0.6-0.567-1.033-1.083-1.3-1.55c0.167,0.2,0.367,0.417,0.6,0.65c0.467,0.5,1.05,1,1.75,1.5
		C82.133,63.367,82.383,63.55,82.65,63.75z M128.05,57.5c-0.333-1.8-0.149-3.1,0.55-3.9l1.351,2c0.066,0.7-0.084,1.217-0.45,1.55
		C129.134,57.483,128.65,57.6,128.05,57.5z M54.15,66.6c1.133-1.3,2.017-2.55,2.65-3.75c0.567-1.133,1.117-2.617,1.65-4.45
		c0.2,0,0.4,0,0.6,0c0.2,0,0.417,0.017,0.65,0.05c-0.233,0.667-0.517,1.6-0.85,2.8c-0.5,1.833-0.983,3.067-1.45,3.7
		c-0.5,0.7-1.017,1.15-1.55,1.35C55.583,66.4,55.017,66.5,54.15,66.6z M66.35,64.4c-0.067-2.467-0.133-4.8-0.2-7
		c0.3-0.2,0.65-0.4,1.05-0.6c0.433-0.233,0.917-0.5,1.45-0.8c0.033,1.267,0.067,2.65,0.1,4.15c0,4.867-0.433,8.817-1.3,11.85
		C67.017,70.167,66.65,67.633,66.35,64.4z M51.9,70.2c0,3.333-0.167,6.167-0.5,8.5l0.15-1.9c0.067-0.667,0.1-1.833,0.1-3.5
		C51.65,71.967,51.733,70.933,51.9,70.2z M59.8,93.25c1.534-0.167,2.434,1.116,2.7,3.85c0.133,1.434,0.117,3.4-0.05,5.9
		c0,0.967,0.066,2.15,0.2,3.55c0.167,1.634,0.267,2.767,0.3,3.4c0,0.434-0.034,1.467-0.1,3.1c-0.067,1.3-0.05,2.334,0.05,3.101
		c-1.1,0.366-1.983,0.833-2.65,1.399c-1.233,1.066-1.983,1.684-2.25,1.851c-0.567,0.3-1.45,0.466-2.65,0.5
		c0.267-2.567,0.417-5.101,0.45-7.601l0.6-8.85l0.15,0.45c0.5,2,0.75,4.25,0.75,6.75c0,0.833-0.05,2.133-0.15,3.899
		c-0.033,1.601,0.033,2.884,0.2,3.851c0.667-1.434,1.033-3.334,1.1-5.7c-0.1-2.7-0.15-4.667-0.15-5.9c0-1.533,0.133-3.583,0.4-6.149
		c0.3-3,0.483-5.034,0.55-6.101C59.45,93.884,59.633,93.45,59.8,93.25z M51.35,90.95c0.233,0.2,0.533,0.55,0.9,1.05
		c0.333,0.233,0.6,0.366,0.8,0.4c0.2,0.833,0.317,1.866,0.35,3.1c0.033,0.7,0.05,1.667,0.05,2.9c0.033,1.133,0.066,2.85,0.1,5.149
		c0.034,2,0,3.7-0.1,5.101c-0.034,0.666-0.267,2.55-0.7,5.649c-0.333,2.334-0.45,4.233-0.35,5.7c-0.367,0-0.7-0.05-1-0.15
		c-0.033-0.033-0.083-0.05-0.15-0.05c-0.133-0.267-0.25-0.5-0.35-0.7l-0.35-0.75c-0.233-0.5-0.45-0.983-0.65-1.449
		c-0.4-0.9-0.75-1.784-1.05-2.65c0.133-0.634,0.25-1.366,0.35-2.2l0.35-0.85c0.367-1.134,0.6-2.65,0.7-4.55
		c0-2.134,0.017-3.65,0.05-4.551c-0.033-2-0.033-3.75,0-5.25C50.4,93.917,50.75,91.95,51.35,90.95z M64.25,119.95
		c-0.267,2.267-0.417,3.467-0.45,3.6c-0.133,0.601-0.483,1.684-1.05,3.25l-1.25-0.35l0.15-1.3c0.067-0.834,0.317-1.867,0.75-3.101
		c0.533-1.6,0.85-2.6,0.95-3l0.4-0.25L64.25,119.95z M63.55,138.45v-0.2l-0.05-6.8c0.667,1.133,1.05,2.05,1.15,2.75
		c0.167,1.033,0.25,2.434,0.25,4.2L63.55,138.45z M52.075,155.45c0.175,0.004,0.35,0.021,0.525,0.05c-0.4,0-0.817-0.017-1.25-0.05
		c0.1,0,0.183,0,0.25,0h0.1c0.066,0,0.133,0,0.2,0H52.075z M92.8,113l0.101,2.85l-0.15-0.199c-0.434-0.834-0.583-2.517-0.45-5.051
		c0.167-2.3,0.267-3.816,0.3-4.55L92.8,113z"/>
	<path style="fill-rule:evenodd;clip-rule:evenodd;fill:#D2C8BA;" d="M50.7,56.4c2.5-0.1,5.05-0.433,7.65-1l0.95-0.3
		c1.867-0.333,4-0.983,6.4-1.95l3.4-1.5c2.4-1.066,5.083-2.783,8.05-5.15l4.35-0.05c2.3-1.133,7.05-2.467,14.25-4
		c7.333-1.534,13.033-2.367,17.1-2.5H115c5.033,0.4,7.833,0.6,8.4,0.6c2.8,0.067,5.816-0.183,9.05-0.75
		c-0.167,0.167-0.334,0.333-0.5,0.5l-0.5,0.5c-0.834,0.8-1.5,1.65-2,2.55l-0.101,0.25c-0.133,0.267-0.25,0.517-0.35,0.75
		c-0.134-0.067-0.283-0.15-0.45-0.25c-0.033,0-0.066-0.017-0.1-0.05c-1.559-0.895-3.809-1.361-6.75-1.4H121
		c-0.7,0-1.517,0.017-2.45,0.05c-1.066,0.033-2.25,0.083-3.55,0.15c-0.3,0.033-0.583,0.05-0.85,0.05c-0.134,0-0.267,0.017-0.4,0.05
		h-0.65c-0.633,0-1.267,0.05-1.899,0.15c-0.634,0.066-1.283,0.183-1.95,0.35c-0.366,0.1-0.8,0.216-1.3,0.35
		c-0.267,0.067-0.533,0.133-0.8,0.2c-0.5,0.133-1.051,0.283-1.65,0.45c-0.233,0.066-0.467,0.133-0.7,0.2V44.6
		c-0.133-0.033-0.25-0.067-0.35-0.1L97.1,43.6l-2,0.05c-0.208,0-0.425,0-0.649,0c-0.834,0.033-1.617,0.117-2.351,0.25L86.7,45.2
		c-0.8,0.3-1.534,0.667-2.2,1.1c-1,0.667-1.917,1.4-2.75,2.2l-0.15,0.15c-0.367,0.133-0.733,0.283-1.1,0.45
		c-1.767,0.9-4.183,2.283-7.25,4.15c-1.206,0.729-2.305,1.396-3.3,2c-0.067,0.033-0.117,0.067-0.15,0.1
		c-0.066,0-0.117,0.017-0.15,0.05c-0.2,0.133-0.4,0.267-0.6,0.4c-0.066,0-0.117,0.034-0.15,0.1c-0.1,0.033-0.183,0.067-0.25,0.1
		c-0.533,0.3-1.017,0.567-1.45,0.8c-0.4,0.2-0.75,0.4-1.05,0.6c-0.066,0-0.117,0.017-0.15,0.05c-0.3,0.167-0.617,0.316-0.95,0.45
		c-1.333,0.434-3.117,0.617-5.35,0.55c-0.233-0.034-0.45-0.05-0.65-0.05c-0.2,0-0.4,0-0.6,0c-0.333-0.033-0.633-0.05-0.9-0.05
		c-2.533-0.033-4.4,0.217-5.6,0.75c-0.7,0.267-1.3,0.533-1.8,0.8c-0.7,0.333-1.267,0.65-1.7,0.95c-0.434,0.3-0.867,0.8-1.3,1.5
		c-0.033,0.066-0.066,0.133-0.1,0.2c-0.1,0.167-0.2,0.317-0.3,0.45c-0.3,0.433-0.55,0.75-0.75,0.95
		c-0.033,0.033-0.083,0.083-0.15,0.15c-0.367,0.233-0.967,0.533-1.8,0.9c-1.066,0.433-1.767,0.767-2.1,1
		c-0.3,0.2-0.567,0.383-0.8,0.55c-0.333,0.2-0.65,0.383-0.95,0.55c-0.367,0.233-0.7,0.433-1,0.6c-0.067,0-0.117,0.033-0.15,0.1
		c-0.066,0-0.133,0.017-0.2,0.05l-0.2,0.1H38.6c-0.4,0.2-0.833,0.383-1.3,0.55c-0.066,0.033-0.133,0.067-0.2,0.1
		c-0.067,0-0.133,0.017-0.2,0.05l-5.7,1.5c-0.534,0.1-1.083,0.2-1.65,0.3L29.1,70.5c-0.033,0-0.067,0.017-0.1,0.05l-1.3,0.2
		c-0.167,0-0.333,0.017-0.5,0.05c-0.067,0-0.117,0.017-0.15,0.05H26.8l-5.15,0.8c-0.267,0-0.517,0.033-0.75,0.1
		c-0.4,0.033-0.816,0.1-1.25,0.2c-0.1,0-0.183,0-0.25,0l-6.9,0.85c-0.733,0-1.433-0.017-2.1-0.05c-0.9-0.033-1.767-0.117-2.6-0.25
		c-0.267-0.067-0.533-0.117-0.8-0.15c-1.133-0.233-2.2-0.533-3.2-0.9C3.433,71.283,3.083,71.133,2.75,71l-0.6,0.05
		c-0.566,0-1.017-0.083-1.35-0.25c-0.4-0.2-0.617-0.5-0.65-0.9v-0.05c0-0.1,0-0.184,0-0.25L0,69.45l0.15,0.1
		c0-0.433,0.15-0.933,0.45-1.5c0.467-0.966,0.833-1.667,1.1-2.1c3.133,2.8,6.733,4.133,10.8,4c1.8-0.034,3.85-0.25,6.15-0.65
		c4.434-0.8,9.3-2.35,14.6-4.65c2.767-0.7,5.533-1.883,8.3-3.55c2.833-1.233,5.45-2.783,7.85-4.65L50.7,56.4z"/>
	<path style="fill-rule:evenodd;clip-rule:evenodd;fill:#9B9286;" d="M144.95,77.7l-0.55-0.15l0.399,0.1
		c-0.133-2.2-0.45-4.667-0.95-7.4l-0.25-1.2l1-0.5c0.101,0.034,0.217,0.083,0.351,0.15V77.7z M140.75,78.5c0.6,0,1.8,0.066,3.6,0.2
		c1.2,0.066,2.417,0.066,3.65,0c-0.366,0.033-0.75,0.05-1.15,0.05C145.35,78.783,143.316,78.7,140.75,78.5z M134.6,56.75
		c0.034,0.067,0.067,0.15,0.101,0.25c0,0.067,0.017,0.15,0.05,0.25c0,0.033,0.017,0.083,0.05,0.15c0.033,0.167,0.05,0.333,0.05,0.5
		c0.067,0.533,0.067,1.317,0,2.35c-1.1,0.267-1.8,0.55-2.1,0.85c-0.533,0.5-0.55,1.333-0.05,2.5c0.467,1.1,2.033,2.05,4.7,2.85
		l0.05,1.55c0,3.2,0.133,6.633,0.399,10.3c-0.533-0.133-1.083-0.35-1.649-0.65c-0.233-0.133-0.5-0.45-0.8-0.95
		c-0.233-0.434-0.65-0.733-1.25-0.9c-0.967-0.233-2.284-0.216-3.95,0.05l-0.5,0.1c-0.667,0.1-1.367,0.25-2.101,0.45v-0.05
		c-0.267-9.567-0.267-17.083,0-22.55c0.134-3.566,0.384-6.45,0.75-8.65c0.067-0.367,0.134-0.717,0.2-1.05
		c0.167,0.1,0.316,0.183,0.45,0.25c-0.1,0.3-0.167,0.583-0.2,0.85h0.05c-0.1,0.466-0.083,0.917,0.051,1.35
		c0.166,0.567,0.716,1.383,1.649,2.45c0.101,0.1,0.184,0.2,0.25,0.3c-0.066,0.1-0.116,0.2-0.149,0.3
		c-0.467,1.066-0.45,1.933,0.05,2.6c0.467,0.733,1.283,1.017,2.45,0.85c0.233-0.033,0.449-0.083,0.649-0.15
		c0.3,0.467,0.5,0.867,0.601,1.2c0.066,0.3,0.116,0.75,0.149,1.35l-0.6,0.15C134.25,55.933,134.467,56.317,134.6,56.75z
		 M117.4,83.65c0.166-0.4,0.333-0.733,0.5-1c0.433-0.767,0.933-1.467,1.5-2.101C118.667,81.417,118,82.45,117.4,83.65z M109.3,93.05
		c1.8,0.101,2.75,0.15,2.851,0.15c-1.601,0-3.634-0.05-6.101-0.15c-0.2,0-0.399,0.017-0.6,0.05l-0.3-4.75L105.1,90.15l0.15-16.101
		c0.634-0.333,1.2-0.783,1.7-1.35l0.899,20.25L109.3,93.05z M92.7,120.7l2.7,0.5c0.1-0.101,0.199-0.2,0.3-0.3
		c-0.434,0.533-0.917,0.966-1.45,1.3c-0.467,0.3-1,0.566-1.6,0.8L92.7,120.7z M92.7,119.35l0.05-3.699l0.15,0.199L92.8,113L93,87.45
		c-0.267,3.233-0.467,7.899-0.6,14c-0.134,6.399-0.301,11.066-0.5,14l-0.551,4.95H91.2l0.149,0.05l-0.55,3.05
		c0.134-0.033,0.283-0.05,0.45-0.05c-0.267,0.033-0.517,0.083-0.75,0.149c-0.833,0.101-1.733,0.167-2.7,0.2
		c-2.767,0.101-4.783,0.033-6.05-0.2c-2.533-0.433-4.167-1.466-4.9-3.1c0-0.033-0.017-0.083-0.05-0.15l-0.05-0.199l0.5,0.149
		c0.733,0.2,1.517,0.2,2.35,0c0.333-0.066,1.033-0.3,2.1-0.7l0.25,1.7l0.2-1.85c0.333-0.134,0.8-0.267,1.4-0.4h0.35l-2.3-0.45
		l-5.15-1c0.066-1.399,0.05-2.366-0.05-2.899c-0.3-1.033-1.083-1.733-2.35-2.101l-0.6-0.149c-0.067,0-0.133-0.017-0.2-0.05
		c-0.133-0.034-0.233-0.051-0.3-0.051l-1.3-0.1c-2-0.1-3.383,0.45-4.15,1.65c0.1-0.167,0.217-0.334,0.35-0.5
		c0.566-0.601,1.383-0.983,2.45-1.15c0.233-1.366,0.317-3.483,0.25-6.35c-0.1-3.301-0.133-5.284-0.1-5.95
		c0.2-2.134,0.216-3.434,0.05-3.9c-0.333-0.934-1.383-1.416-3.15-1.45c0.333-2.066-1.567-3.6-5.7-4.6
		c-4.9-1.167-7.583-2.05-8.05-2.65c-0.667-0.833-1.033-2.05-1.1-3.649c0.067-1.834,0.1-3.134,0.1-3.9
		c-0.133-4.966-0.15-8.683-0.05-11.15c0.167-0.367,0.45-0.767,0.85-1.2l0.75-0.85c0.867-0.1,1.434-0.2,1.7-0.3
		c0.533-0.2,1.05-0.65,1.55-1.35c0.467-0.633,0.95-1.867,1.45-3.7c0.333-1.2,0.617-2.133,0.85-2.8
		c2.233,0.066,4.017-0.117,5.35-0.55c0.633,1.967,1.067,4.333,1.3,7.1v-0.6c0.3,3.233,0.667,5.767,1.1,7.6
		c0.867-3.033,1.3-6.983,1.3-11.85c-0.033-1.5-0.067-2.883-0.1-4.15c0.067-0.033,0.15-0.067,0.25-0.1
		c0.033-0.066,0.083-0.1,0.15-0.1c0.2-0.133,0.4-0.267,0.6-0.4c0.033-0.033,0.083-0.05,0.15-0.05c0.034-0.033,0.083-0.067,0.15-0.1
		c0.167,1.133,0.383,2.2,0.65,3.2c0.133,0.5,0.483,1.683,1.05,3.55c0.167,0.6,0.317,1.15,0.45,1.65c-0.5,0.167-0.917,0.4-1.25,0.7
		c-0.033,0.033-0.067,0.066-0.1,0.1l-0.1,0.15c-0.133,0.167-0.267,0.367-0.4,0.6c-0.018,0.032-0.035,0.065-0.05,0.1
		c-0.24,0.453-0.407,1.036-0.5,1.75c-0.1,0.867-0.017,1.583,0.25,2.15l0.45,0.7l0.05,0.05c0.1,0.066,0.2,0.15,0.3,0.25
		c0.3,0.667,0.767,1.216,1.4,1.65L72.1,71.9l0.25,0.05c0.133,0.1,0.3,0.183,0.5,0.25c0,3.267,0.066,5.7,0.2,7.3
		c0.6,5.866,0.9,12.783,0.9,20.75c0,2.566,0.167,4.483,0.5,5.75c0.466,1.8,1.45,3.45,2.95,4.95c0.667,0.666,1.533,1.434,2.6,2.3
		c0.767,0.767,1.217,1.783,1.35,3.05l0.25,2.3l0.65,0.101c0.333-3.434,0.55-7.434,0.65-12c0.033-1.767,0.05-5.767,0.05-12
		L82.9,65.25l0.25,0.7l0.2,0.8c0.2,1.2,0.233,3,0.1,5.4c-0.167,2.533-0.184,4.317-0.05,5.35c0.367-0.5,0.883-1.9,1.55-4.2
		c0.4-1.333,1.45-2.133,3.15-2.4c1.066-0.167,2.216-0.066,3.45,0.3c0.4,0.133,1.45,0.566,3.15,1.3l0.1,2.1
		c-1.633-0.367-3.083-0.533-4.35-0.5c-0.767-0.967-1.8-1.15-3.1-0.55c-1.267,0.567-1.75,1.534-1.45,2.9c0.167,0.8,0.567,1.4,1.2,1.8
		c0.667,0.434,1.4,0.467,2.2,0.1c0.467-0.233,0.834-0.6,1.101-1.1c0.633,0.133,1.399,0.217,2.3,0.25c1.033,0.067,1.75,0.1,2.149,0.1
		c0.334,8.433,0.567,15.8,0.7,22.1c0-2.467,0.017-4.533,0.05-6.2c0-6.134,0.134-11.467,0.4-16l4.05-0.45
		c-0.133,5.101-0.666,12.601-1.6,22.5c-0.066,0.634-0.417,3.983-1.05,10.05c-0.967,5.5-2.367,7.7-4.2,6.601l-0.3-0.351
		C93.033,117.517,92.967,118.684,92.7,119.35z M100.05,76.55c-0.866-0.566-2.166-1.1-3.899-1.6l0.199-1.8
		c1.301,0.533,2.534,0.934,3.7,1.2V76.55z M66.8,115.8v-0.1c0.034-0.233,0.1-0.45,0.2-0.65C66.9,115.283,66.833,115.533,66.8,115.8z
		 M66.6,124.2c-0.063-1.198-0.097-2.231-0.1-3.101c0.006,0.211,0.023,0.411,0.05,0.601C66.583,122.366,66.6,123.2,66.6,124.2z
		 M61.5,138.4c0.067,0,0.15,0,0.25,0l1.8,0.05l1.35-0.05h0.4C64.4,138.533,63.133,138.533,61.5,138.4z M107.15,44
		c-0.034,0.233-0.067,0.467-0.101,0.7c-0.033,0.367-0.05,0.733-0.05,1.1l-2.1-0.35l-0.101-0.8c0.233-0.066,0.467-0.133,0.7-0.2
		C106.1,44.283,106.65,44.133,107.15,44z M115.55,63.8l-0.1-0.85c-0.3-2.1-0.517-3.684-0.65-4.75c-0.2-1.867-0.316-3.467-0.35-4.8
		l-0.3-10.5c0.267,0,0.55-0.017,0.85-0.05c0,1.367,0.033,2.8,0.1,4.3C115.5,55.883,115.65,61.433,115.55,63.8z M128.05,57.5
		c0.601,0.1,1.084-0.017,1.45-0.35c0.366-0.333,0.517-0.85,0.45-1.55l-1.351-2C127.9,54.4,127.717,55.7,128.05,57.5z M46.75,63
		l-0.1,4.85l-0.05,2.9c-0.033-0.667-0.117-1.567-0.25-2.7c-0.067-0.667-0.167-1.417-0.3-2.25c-0.1-0.6-0.167-1.167-0.2-1.7
		c0.066-0.067,0.117-0.117,0.15-0.15C46.2,63.75,46.45,63.433,46.75,63z M65.3,116.3l0.55-4.05l-0.15,2.15L65.3,116.3z M65.6,116.75
		l-0.2-0.35l0.2-0.15V116.75z M63.45,127.05l-1.95-0.6l1.25,0.35L63.45,127.05z M52.45,125.85c-0.5-0.933-0.65-1.616-0.45-2.05
		C52.233,124.167,52.383,124.85,52.45,125.85z"/>
	<path style="fill-rule:evenodd;clip-rule:evenodd;fill:#635B52;" d="M112.15,93.2c-0.101,0-1.051-0.05-2.851-0.15
		c0.066-3,0.55-5.767,1.45-8.3c0.434-1.134,0.7-2.783,0.8-4.95c0.066-1.666,0.101-3.716,0.101-6.15
		c-0.034-2.767-0.051-4.833-0.051-6.2l-0.05-2.5c-0.366,0.167-0.816,0.2-1.35,0.1l-0.851-0.2c-0.199-0.733-0.183-1.467,0.051-2.2
		c0.267-0.7,0.683-1.283,1.25-1.75c0.267-0.2,0.533-0.35,0.8-0.45l-0.25-13.7L110.6,45.5c-0.3,2.9-0.883,7.267-1.75,13.1l-0.8-0.15
		l0.851-4.5c0-0.133,0.017-0.267,0.05-0.4l0.05-4.2c-0.167-1.4-0.517-2.517-1.05-3.35v-2.2c0.5-0.133,0.934-0.25,1.3-0.35
		c0.667-0.167,1.316-0.284,1.95-0.35v3.65l0.35,0.8l0.95,12.7h0.1c0.134,0.967,0.15,1.8,0.051,2.5c0.3,4.2,0.683,10.667,1.149,19.4
		c-0.066,4.833-0.267,8.449-0.6,10.85C112.866,93.134,112.517,93.2,112.15,93.2z M56.05,154.65c-0.233,0.1-0.466,0.199-0.7,0.3
		c0.233-3.733,0.4-6.533,0.5-8.4c0.066-1.533,0.1-2.95,0.1-4.25c-0.034-1.5-0.117-2.866-0.25-4.1c-0.133-0.601-0.267-1.533-0.4-2.8
		l-0.9-4.7c-0.066-0.334-0.133-0.65-0.2-0.95v-0.05c-0.6-2.601-1.3-4.65-2.1-6.15c-0.8-1.5-1.383-2.916-1.75-4.25
		c-0.133-0.467-0.25-0.916-0.35-1.35l-0.1-1.05c0.2,0.466,0.417,0.949,0.65,1.449l0.35,0.75c0.1,0.2,0.217,0.434,0.35,0.7
		c0.067,0,0.117,0.017,0.15,0.05c0.3,0.101,0.633,0.15,1,0.15c1.3-0.066,2.217-0.1,2.75-0.1h0.2c1.2-0.034,2.083-0.2,2.65-0.5
		c0.267-0.167,1.017-0.784,2.25-1.851c0.667-0.566,1.55-1.033,2.65-1.399c1.167-0.367,1.967-0.317,2.4,0.149l0.1,0.101l0.2,0.35
		v0.05l0.35,1.05l-0.3,0.051L65,118.1l-0.55,0.25l-0.7,0.45l-0.4,0.25c-0.1,0.4-0.417,1.4-0.95,3
		c-0.433,1.233-0.683,2.267-0.75,3.101l-0.15,1.3c-0.233,2.533-0.317,4.25-0.25,5.149c0.067,0.9,0.333,1.884,0.8,2.95
		c0.8,1.7,1.217,2.617,1.25,2.75l0.25,0.95v0.2l-1.8-0.05c-0.1,0-0.183,0-0.25,0h-0.15c-0.267,0.033-0.517,0.083-0.75,0.149
		l-0.25,0.101c-0.1-0.601-0.367-1.584-0.8-2.95c-0.433-1.3-0.75-2.367-0.95-3.2c-0.667-1.066-1.117-1.934-1.35-2.6
		c-0.1-0.233-0.15-1.167-0.15-2.801c-0.033-1.267-0.267-1.983-0.7-2.149c-0.8-0.3-1.35,0.1-1.65,1.2c-0.033,0.1-0.05,0.199-0.05,0.3
		c-0.1-0.2-0.184-0.367-0.25-0.5l1.6,4.399c0.067,0.301,0.167,0.634,0.3,1l0.05,0.301c0,0.066,0.017,0.116,0.05,0.149
		c0,0.033,0,0.066,0,0.101c0.033,0.066,0.05,0.133,0.05,0.199c0,0.101,0.017,0.2,0.05,0.301c0.034,0.066,0.05,0.133,0.05,0.199
		c0.033,0.167,0.066,0.334,0.1,0.5c0.066,0.334,0.133,0.684,0.2,1.051c0.033,0.1,0.05,0.199,0.05,0.3
		c0.033,0.166,0.066,0.333,0.1,0.5l0.15,1.35c0,0.134,0.017,0.283,0.05,0.45c0.233,2.167,0.483,5.2,0.75,9.1c0,0.2,0,0.4,0,0.601
		c0,0.399-0.017,0.767-0.05,1.1l-0.05,1.05c-0.1,1.834-0.25,3.15-0.45,3.95L57,153.65l-0.5,0.6
		C56.367,154.384,56.217,154.517,56.05,154.65z M134.55,55.6v0.2c0,0.034,0,0.083,0,0.15c0,0.3,0.017,0.566,0.05,0.8
		c-0.133-0.433-0.35-0.817-0.649-1.15l0.6-0.15C134.55,55.483,134.55,55.533,134.55,55.6z M88.15,66.8c0.3,0.2,0.617,0.4,0.95,0.6
		c0.367,0.2,0.733,0.383,1.1,0.55L90.3,68h0.05l-0.05,0.15c0.167,0,0.334,0.017,0.5,0.05c0.4,0.133,0.8,0.216,1.2,0.25
		c0.733,0.1,1.733,0.133,3,0.1c1.6-0.066,2.583-0.1,2.95-0.1c1.366,0.033,2.467,0.033,3.3,0c0.566,0,1.066-0.034,1.5-0.1l1.15-0.2
		c0.199-0.066,0.366-0.133,0.5-0.2c0.533-0.267,0.966-0.817,1.3-1.65c0.133-0.433,0.267-0.816,0.399-1.15l0.5-0.2
		c-0.066,0.167-0.25,0.75-0.55,1.75c-0.2,0.733-0.434,1.3-0.7,1.7c-0.966,1.467-2.35,2.333-4.149,2.6c-0.533,0.067-2.3,0.067-5.3,0
		c-2.434-0.1-4.634-0.383-6.601-0.85c-3.367-0.733-5.35-1.867-5.95-3.4l-0.2-0.8C83.117,65.517,83.2,65,83.4,64.4
		c0.267,0.067,0.567,0.184,0.9,0.35c0.667,0.367,1.383,0.733,2.15,1.1l0.7,0.4C87.517,66.45,87.85,66.633,88.15,66.8z M139.2,62.4
		c0.333,0.533,0.8,1.317,1.399,2.35c1,1.667,2.334,2.933,4,3.8l-1,0.5c-1.8,0.867-3.233,0.9-4.3,0.1c0.7-0.667,1-1.367,0.9-2.1
		c-0.134-0.633-0.684-1.333-1.65-2.1c-1.1-0.733-1.816-1.233-2.149-1.5c-0.967-0.767-1.483-1.833-1.551-3.2
		c0.067-1.033,0.067-1.817,0-2.35c0-0.167-0.017-0.333-0.05-0.5c0.033,0.133,0.084,0.25,0.15,0.35c0.2,0.333,0.583,0.733,1.149,1.2
		c0.733,0.566,1.167,0.917,1.301,1.05c0.533,0.567,1.083,1.267,1.649,2.1C139.083,62.2,139.134,62.3,139.2,62.4z M154.85,70
		l-0.149,0.05c-0.267,0.167-0.533,0.267-0.8,0.3c-1.601,0.467-3.417,0.417-5.45-0.15c0.066,2.4,0.017,4.367-0.15,5.9l-0.3,2.55v0.05
		c-1.233,0.066-2.45,0.066-3.65,0c-0.066-0.533-0.05-0.917,0.051-1.15l0.55,0.15c0.533,0.1,1-0.133,1.399-0.7
		c0.233-0.333,0.301-1.267,0.2-2.8c-0.166-1.667-0.25-2.667-0.25-3l0.101-1.9c-0.067-0.033-0.117-0.066-0.15-0.1
		c0.167,0.033,0.35,0.083,0.55,0.15l0.4,0.1c0.366,0.1,0.75,0.183,1.149,0.25L148.2,70l1.649,0.25l0.2-0.35
		c0.434,0.033,0.851,0.05,1.25,0.05l3.45,0.05C154.783,70,154.816,70,154.85,70z M66.15,57.4c0.067,2.2,0.133,4.533,0.2,7V65
		c-0.233-2.767-0.667-5.133-1.3-7.1c0.333-0.133,0.65-0.283,0.95-0.45C66.033,57.417,66.083,57.4,66.15,57.4z M75.25,70.5
		c0.7-0.133,1.25-0.367,1.65-0.7l0.25-0.25c0.033-0.033,0.067-0.05,0.1-0.05l0.05-0.05c0.1-0.167,0.217-0.317,0.35-0.45
		c0.133-0.233,0.25-0.467,0.35-0.7c0,1.5-0.3,2.65-0.9,3.45c-0.867,1.1-2.217,1.283-4.05,0.55l-0.2-0.1
		c-0.2-0.067-0.367-0.15-0.5-0.25h0.1c0.767,0.033,1.783-0.2,3.05-0.7L75.25,70.5z M72.15,71.85c-0.633-0.434-1.1-0.983-1.4-1.65
		c0.467,0.267,1.133,0.417,2,0.45L72.15,71.85z M51.4,78.7c0.333-2.333,0.5-5.167,0.5-8.5l0.05-2.55v2.45v8.65
		c0,0.833-0.067,2.15-0.2,3.95c-0.067,1.666,0.017,2.967,0.25,3.899c0.267,0.967,0.983,1.733,2.15,2.301
		c0.1,0.066,1.117,0.433,3.05,1.1c2,0.533,3.566,1.033,4.7,1.5c2.067,0.8,3.184,1.733,3.35,2.8c-0.233,0.033-0.467,0.05-0.7,0.05
		c-0.5,0-0.95-0.1-1.35-0.3c-0.367-0.166-0.983-0.5-1.85-1c-0.7-0.333-1.217-0.267-1.55,0.2c-0.167,0.2-0.35,0.634-0.55,1.3
		c-0.067,1.066-0.25,3.101-0.55,6.101c-0.267,2.566-0.4,4.616-0.4,6.149c0,1.233,0.05,3.2,0.15,5.9
		c-0.067,2.366-0.434,4.267-1.1,5.7c-0.167-0.967-0.233-2.25-0.2-3.851c0.1-1.767,0.15-3.066,0.15-3.899c0-2.5-0.25-4.75-0.75-6.75
		l-0.15-0.45c-0.3-0.867-0.467-1.4-0.5-1.601c0-0.267,0.233-1.283,0.7-3.05l0.25-1.899c0.133-1.733,0.333-2.917,0.6-3.551
		c-0.3-0.466-0.867-0.733-1.7-0.8c-0.033,0-0.517,0.017-1.45,0.05c-0.5,0-0.917-0.066-1.25-0.199c-0.2-0.034-0.466-0.167-0.8-0.4
		c-0.367-0.5-0.667-0.85-0.9-1.05c-0.3-0.233-0.55-0.334-0.75-0.3c-0.167,0.033-0.417,0.333-0.75,0.899
		c-0.3,0.5-0.467,0.851-0.5,1.05c-0.167,0.601-0.233,1.417-0.2,2.45c0.033,0.601,0.083,1.434,0.15,2.5
		c0.034,1.667,0.1,4.101,0.2,7.3c0.033,2.834-0.067,5.233-0.3,7.2c-0.1,0.834-0.217,1.566-0.35,2.2c-0.1-0.3-0.2-0.6-0.3-0.9
		l-0.7-3.149c0.066-0.3,0.1-0.617,0.1-0.95v-7.65c0.133-1.933,0.233-3.449,0.3-4.55c0.1-1.967-0.017-3.467-0.35-4.5
		c-0.167-0.6-0.467-1.083-0.9-1.45c0.1-1.666,0.233-3.267,0.4-4.8c0.1-0.033,0.184-0.05,0.25-0.05c1.267-0.134,2.067-0.7,2.4-1.7
		C50.617,82.983,51.067,81.033,51.4,78.7z"/>
	<path style="fill-rule:evenodd;clip-rule:evenodd;fill:#A79E94;" d="M55.35,154.95c0.233-0.101,0.467-0.2,0.7-0.3
		c-0.6,0.366-1.35,0.616-2.25,0.75h-0.05c-0.125,0.031-0.233,0.048-0.325,0.05H52.9C53.9,155.417,54.717,155.25,55.35,154.95z
		 M45.95,154.2l-0.5,0.35c0.633,0.2,1.466,0.384,2.5,0.55c-0.367-0.033-0.7-0.083-1-0.149l-0.35-0.05c-2.1-0.467-3.617-1.134-4.55-2
		h0.05c1.4-0.134,2.316-0.301,2.75-0.5c0.367-0.2,0.717-0.517,1.05-0.95c0,0.467,0,0.934,0,1.399L45.95,154.2z M48.7,135.2
		c0.167-1.934,0.216-3.4,0.15-4.4c0.167-0.899,0.367-1.684,0.6-2.35c0.933,1.8,1.167,4.934,0.7,9.399
		c-0.533,4.634-0.433,7.851,0.3,9.65c0.033-0.434,0.1-0.85,0.2-1.25c0,0.3,0.017,0.733,0.05,1.3c0.033,0.834-0.05,1.417-0.25,1.75
		h-0.1c-0.2-1.566-0.367-2.75-0.5-3.55c-0.2-1.366-0.417-2.517-0.65-3.45c-0.3-1.133-0.5-2.366-0.6-3.7L48.7,135.2z M27.15,147.55
		l-0.25-0.2l0.25-3.949V147.55z M39.35,125.9v7.899c0,5.767-0.05,11.517-0.15,17.25c-0.1,0-0.184,0-0.25,0l-0.7-0.05
		c-0.333-0.033-0.6-0.05-0.8-0.05v-0.05l-1-12.5c-0.2-1.601-0.35-2.884-0.45-3.851c-0.167-1.733-0.183-3.033-0.05-3.899
		c0.066-0.467,0.2-0.95,0.4-1.45c-0.867-0.434-1.767-1.101-2.7-2c-0.933-0.934-1.683-1.9-2.25-2.9
		c-0.733-1.333-0.983-2.467-0.75-3.399l1.15,0.649c0.633,0.4,1.534,1.066,2.7,2c1.1,0.667,2.15,0.884,3.15,0.65
		c0.033-0.934,0-2.233-0.1-3.9c-0.133-1.767-0.216-2.967-0.25-3.6c-0.333-8.634-0.4-15.134-0.2-19.5
		c0.2-4.334,0.283-9.733,0.25-16.2c-0.033-5.067-0.05-9.233-0.05-12.5c0.467-0.167,0.9-0.35,1.3-0.55h0.05l0.2-0.1
		c0.066-0.033,0.133-0.05,0.2-0.05c0.034-0.066,0.083-0.1,0.15-0.1l-0.05,17.55l-0.05,6c0.033-0.7,0.217-1.75,0.55-3.15l-0.55,4.5
		l0.05,10.75L38,125.55c0,9.9,0.067,16.634,0.2,20.2c0.466-0.7,0.75-2.733,0.85-6.1c0.067-3.634,0.1-5.867,0.1-6.7L39.35,125.9z
		 M17.9,132.65l0.2-5.4c0-0.066,0-0.116,0-0.15c0-0.066,0-0.116,0-0.149V126.6c0-0.267,0-0.517,0-0.75v-0.399
		c-0.033-0.233-0.05-0.45-0.05-0.65L18,123.65c-0.033-1.434-0.067-2.301-0.1-2.601c0.367-0.133,0.6-0.316,0.7-0.55
		c0.133-0.333,0.316-1.45,0.55-3.35l0.3-2.301c-0.733-0.1-1.517-0.283-2.35-0.55L17,113.9V113.8l-0.025-0.075
		c-0.025-0.082-0.05-0.174-0.075-0.274v-0.05c-0.033-0.034-0.05-0.067-0.05-0.101c-0.033-0.1-0.05-0.184-0.05-0.25l-0.7-1.95
		l-1.45-2.399c-0.633-0.934-1.467-1.967-2.5-3.101c-1.333-1.5-2.316-2.833-2.95-4c-0.3-0.5-0.534-0.983-0.7-1.449l0.05,0.1l0.55,0.6
		l0.5,0.65c4.633,5.233,7.867,6.15,9.7,2.75c0.4-0.7,0.617-1.55,0.65-2.55c0-1.167,0-2.066,0-2.7c-0.034-1.7,0.133-3.783,0.5-6.25
		v-4.5c0-4.267,0.183-9.767,0.55-16.5c0.2-0.033,0.417-0.067,0.65-0.1l5.15-0.8c-0.033,2.7,0,4.733,0.1,6.1
		c0.1-2.133,0.2-4.184,0.3-6.15c0.167-0.033,0.333-0.05,0.5-0.05l1.3-0.2c0.033-0.033,0.067-0.05,0.1-0.05l0.45-0.05
		c0.228-0.033,0.47-0.066,0.725-0.1c-0.017,0.007-0.025,0.023-0.025,0.05c-0.167,0.367-0.267,1.434-0.3,3.2
		c-0.133,4.2-0.2,10.516-0.2,18.95l0.05,9.5c0,6.367-0.383,11.384-1.15,15.05l-0.7,2.9l-0.15,0.55l0.05-3.899l0.05-3.9
		C27.967,101.917,28,93.866,28,88.6l-0.65,21c0.066,8.101-0.383,15.417-1.35,21.95c-0.467,3.066-0.933,7.7-1.4,13.9
		c-1.6-1.033-2.783-1.834-3.55-2.4V134.9l-0.9-0.601c-0.633-0.366-1.4-0.616-2.3-0.75C17.881,133.239,17.897,132.939,17.9,132.65z
		 M3.25,77.8v-6.3h0.2V78L3.25,77.8z M40.9,82.05l-0.6,3.101l0.05-3.301l0.45-3.05c0.633-3.6,1.034-5.683,1.2-6.25
		c0.467-1.4,1.3-2.5,2.5-3.3c0.8-0.533,1.417-0.933,1.85-1.2c0.133,1.133,0.217,2.034,0.25,2.7l0.05-2.9
		c0.233-0.133,0.4-0.233,0.5-0.3c0.167-0.1,0.333-0.183,0.5-0.25c0,0.267,0.017,0.5,0.05,0.7c0.1,1.633,0.183,3.133,0.25,4.5
		L47,72.85c-1.9,0.667-3.517,2.417-4.85,5.25C41.65,79.2,41.233,80.517,40.9,82.05z"/>
	<path style="fill-rule:evenodd;clip-rule:evenodd;fill:#B9B0A7;" d="M53.425,155.45c0.092-0.002,0.2-0.019,0.325-0.05l-0.05,0.05
		C53.606,155.45,53.515,155.45,53.425,155.45z M45.9,151.45c-0.333,0.434-0.683,0.75-1.05,0.95c-0.434,0.199-1.35,0.366-2.75,0.5
		h-0.05l-0.15-0.2c-0.1-0.101-0.167-0.2-0.2-0.3l-0.1-0.101l0.3-37.95l-0.6,0.7l0.35-0.45v-4.55c0.2,1.667,0.35,3.417,0.45,5.25
		c0.033,1.267,0.05,2.566,0.05,3.9c0.033,0.467,0.067,0.95,0.1,1.45c0.2,4.033,0.533,7.85,1,11.449
		c0.333-2.199,0.517-5.466,0.55-9.8c0-0.399,0-0.8,0-1.2c0-1.833,0.017-3.399,0.05-4.699c0-2.101,0.017-3.5,0.05-4.2
		c0.2-3.233,0.434-6.434,0.7-9.601v6.4c0,0.434-0.033,1.15-0.1,2.15c0,0.899,0.117,1.6,0.35,2.1c0.167,0.4,0.533,0.833,1.1,1.3
		c0.466,0.7,0.8,1.634,1,2.8c0.133,0.667,0.267,1.65,0.4,2.95c0.433,2.9,0.983,4.884,1.65,5.95c0.133,0.233,0.55,0.767,1.25,1.6
		c0.5,0.601,0.85,1.167,1.05,1.7c0.4,1.101,0.567,2.55,0.5,4.351c-0.066,1.033-0.216,2.5-0.45,4.399
		c-0.033,0.5-0.184,1.75-0.45,3.75c-0.2,1.5-0.3,2.733-0.3,3.7c0,0.1,0.017,0.267,0.05,0.5c-0.1,0.4-0.167,0.816-0.2,1.25
		c-0.733-1.8-0.833-5.017-0.3-9.65c0.467-4.466,0.233-7.6-0.7-9.399c-0.233,0.666-0.434,1.45-0.6,2.35
		c-0.033-0.366-0.083-0.666-0.15-0.899c0.066-0.5-0.05-0.9-0.35-1.2L48.3,129v-0.05c-0.367,0.467-0.65,1.333-0.85,2.6
		c-0.067,0.7-0.15,1.566-0.25,2.601C46.367,140.55,45.933,146.316,45.9,151.45z M24.6,145.45l0.45,0.35
		c-1.767-1.166-3.066-2.05-3.9-2.649c-0.4-0.267-0.75-0.551-1.05-0.851l-0.05-0.05c-0.633-0.634-1.117-1.316-1.45-2.05
		c-0.167-0.334-0.3-0.684-0.4-1.05l0.2,0.55c0.367-0.334,0.7-1.05,1-2.15c0.033-0.166,0.283-1.25,0.75-3.25l0.9,0.601v8.149
		C21.817,143.616,23,144.417,24.6,145.45z M27.45,147.75l1.35,0.95l1.7-14c0.133-1.134,0.283-2.867,0.45-5.2
		c0.167-2.333,0.316-4.066,0.45-5.2c0.567,1,1.317,1.967,2.25,2.9c0.934,0.899,1.833,1.566,2.7,2c-0.2,0.5-0.333,0.983-0.4,1.45
		c-0.133,0.866-0.117,2.166,0.05,3.899c0.1,0.967,0.25,2.25,0.45,3.851l1,12.5v0.05c-1.8-0.134-3.133-0.283-4-0.45
		c-1.333-0.267-2.55-0.667-3.65-1.2l-0.15-0.1c-0.233-0.101-0.45-0.217-0.65-0.351l-0.05-0.05c-0.034,0-0.067-0.017-0.1-0.05
		s-0.083-0.066-0.15-0.1C28.333,148.417,27.917,148.116,27.45,147.75z M17.9,132.65c-0.002,0.289-0.019,0.589-0.05,0.899
		c-0.033,0.767-0.033,1.5,0,2.2c-0.033-0.467-0.05-0.95-0.05-1.45c0-0.399,0.017-0.8,0.05-1.2
		C17.879,132.954,17.896,132.804,17.9,132.65z M17.9,121.05c-0.033-0.833-0.083-1.616-0.15-2.35l-0.1-1c0-0.101,0-0.167,0-0.2
		c-0.167-1.1-0.333-2.083-0.5-2.95l-0.05-0.25c0.833,0.267,1.617,0.45,2.35,0.55l-0.3,2.301c-0.233,1.899-0.417,3.017-0.55,3.35
		C18.5,120.733,18.267,120.917,17.9,121.05z M16.9,113.45c0.025,0.101,0.05,0.192,0.075,0.274c-0.025-0.074-0.05-0.149-0.075-0.225
		V113.45z M9.2,101.6c0.633,1.167,1.617,2.5,2.95,4c1.033,1.134,1.867,2.167,2.5,3.101c-0.767-1.033-1.783-2.267-3.05-3.7
		C10.567,103.833,9.767,102.7,9.2,101.6z M8.5,99.95c-0.2-0.5-0.333-0.983-0.4-1.45c-0.667-3-1.083-5.417-1.25-7.25
		c0.066,0.533,0.15,1.134,0.25,1.8L7,72.35c0.267,0.033,0.533,0.083,0.8,0.15l0.3,16.8c-0.3,1.367-0.567,2.934-0.8,4.7L8.5,99.95z
		 M30.25,70.4c-0.067,3.934,0,7.633,0.2,11.1l0.1,3.4l-0.8,7.649c0-8.434,0.067-14.75,0.2-18.95
		C29.983,71.833,30.083,70.767,30.25,70.4z M3,77.55c0.067,0.067,0.15,0.15,0.25,0.25l0.2,0.2l0.65,0.7l0.35-6l-0.2,6.2
		c0.321,0.32,0.638,0.721,0.95,1.199C4.798,79.523,4.064,78.674,3,77.55z M3.25,71.5L0.8,72.05V70.8
		c0.333,0.167,0.784,0.25,1.35,0.25L2.75,71c0.333,0.133,0.683,0.283,1.05,0.45L3.45,71.5H3.25z M9.6,101.5
		c0.2-7.1,0.167-14.566-0.1-22.4c-0.1-1.266-0.1-2.533,0-3.8c0.367-0.767,0.667-1.617,0.9-2.55c0.667,0.033,1.367,0.05,2.1,0.05
		l6.9-0.85c0.067,0,0.15,0,0.25,0c0.434-0.1,0.85-0.167,1.25-0.2c0.033,0,0.067,0,0.1,0c-0.367,6.733-0.55,12.233-0.55,16.5v4.5
		c-0.367,2.467-0.534,4.55-0.5,6.25c0,0.634,0,1.533,0,2.7c-0.034,1-0.25,1.85-0.65,2.55C17.467,107.65,14.233,106.733,9.6,101.5z
		 M8.55,100.25v-0.05l0.55,0.649L8.55,100.25z M46.35,68.05c-0.434,0.267-1.05,0.667-1.85,1.2c-1.2,0.8-2.033,1.9-2.5,3.3
		c-0.167,0.567-0.567,2.65-1.2,6.25l-0.45,3.05V79.8l-1.2,23.55L39.1,92.6l0.55-4.5c-0.333,1.4-0.517,2.45-0.55,3.15l0.05-6
		l0.3,3.55c0.333-2.566,0.65-6.517,0.95-11.85c0.233-4.4,0.483-7.867,0.75-10.4c0.233-0.167,0.5-0.35,0.8-0.55
		c0.333-0.233,1.033-0.567,2.1-1c0.833-0.367,1.434-0.667,1.8-0.9c0.033,0.533,0.1,1.1,0.2,1.7
		C46.183,66.633,46.283,67.383,46.35,68.05z M47.05,62.55c0.267,1.967,0.467,3.55,0.6,4.75c-0.167,0.067-0.333,0.15-0.5,0.25
		c-0.1,0.067-0.267,0.167-0.5,0.3l0.1-4.85C46.85,62.867,46.95,62.717,47.05,62.55z M37.3,68.5c0,3.267,0.017,7.433,0.05,12.5
		c0.033,6.467-0.05,11.866-0.25,16.2c-0.2,4.366-0.133,10.866,0.2,19.5c0.034,0.633,0.117,1.833,0.25,3.6
		c0.1,1.667,0.133,2.967,0.1,3.9c-1,0.233-2.05,0.017-3.15-0.65c-1.167-0.934-2.067-1.6-2.7-2l0.75-5.3
		c0.667-6.833,1.167-13.667,1.5-20.5l0.3-7.2c1-2.366,1.617-4.1,1.85-5.2l0.45-7.25c0.233-2.333,0.367-4.45,0.4-6.35
		c0-0.367,0.017-0.75,0.05-1.15C37.167,68.567,37.233,68.533,37.3,68.5z M39.35,125.9c0.467-15.9,0.783-29.483,0.95-40.75l0.6-3.101
		c-0.066,0.934-0.117,2.184-0.15,3.75c-0.033,0.934-0.05,2-0.05,3.2v0.05c0,0.033,0,0.066,0,0.101c0.033,6.267-0.133,14.8-0.5,25.6
		c-0.034,1.533-0.083,3.1-0.15,4.7c-0.066,2.166-0.15,4.416-0.25,6.75c-0.033,0.3-0.05,0.6-0.05,0.899l-0.4,6.7V125.9z
		 M27.15,147.55V143.4l-0.25,3.949l0.95-30.699l-0.05,3.899l0.15-0.55L27.15,147.55z M47.85,110.2l0.7,3.149
		c-0.7-2.199-1.183-4.383-1.45-6.55L47.85,110.2z M54.7,126.45c0.633,1.533,1.183,3.166,1.65,4.899c-0.133-0.366-0.233-0.699-0.3-1
		l-1.6-4.399C54.517,126.083,54.6,126.25,54.7,126.45z M40.35,151.15c-0.167,0-0.317-0.017-0.45-0.051H40L40.35,151.15z M52.6,155.5
		c-0.175-0.029-0.35-0.046-0.525-0.05c0.234,0,0.459,0,0.675,0C52.681,155.452,52.631,155.469,52.6,155.5z"/>
	<path style="fill-rule:evenodd;clip-rule:evenodd;fill:#C9C1B6;" d="M41.35,151.25c-0.267-0.033-0.6-0.066-1-0.1L40,151.1h-0.1
		h-0.25l-0.45-0.05c0.1-5.733,0.15-11.483,0.15-17.25l0.4-6.7c0-0.3,0.017-0.6,0.05-0.899c0.1-2.334,0.184-4.584,0.25-6.75
		c0.067-1.601,0.117-3.167,0.15-4.7c0.367-10.8,0.533-19.333,0.5-25.6c0-0.034,0-0.067,0-0.101V89c0-1.2,0.017-2.267,0.05-3.2
		c0.033-1.566,0.083-2.816,0.15-3.75c0.333-1.533,0.75-2.85,1.25-3.95c1.333-2.833,2.95-4.583,4.85-5.25l0.95-0.35
		c0,0.633,0,1.25,0,1.85c0,0.533,0.033,1.417,0.1,2.65c0.067,1.066,0,1.934-0.2,2.6c-0.167,0.634-0.567,1.684-1.2,3.15
		c-0.6,1.333-0.983,2.417-1.15,3.25c-0.6,3.366-0.9,6.434-0.9,9.2v7.399c-0.267,3.167-0.5,6.367-0.7,9.601
		c-0.033,0.7-0.05,2.1-0.05,4.2c-0.033,1.3-0.05,2.866-0.05,4.699c0,0.4,0,0.801,0,1.2c-0.033,4.334-0.216,7.601-0.55,9.8
		c-0.467-3.6-0.8-7.416-1-11.449c-0.033-0.5-0.067-0.983-0.1-1.45c0-1.334-0.017-2.634-0.05-3.9c-0.1-1.833-0.25-3.583-0.45-5.25
		v4.55l-0.35,0.45l0.6-0.7l-0.3,37.95C41.4,151.934,41.317,151.583,41.35,151.25z M27.45,147.75l-0.3-0.2l0.8-27.55l0.7-2.9
		c0.767-3.666,1.15-8.683,1.15-15.05l-0.05-9.5l0.8-7.649l-0.1-3.4c-0.2-3.467-0.267-7.167-0.2-11.1c0-0.026,0.008-0.043,0.025-0.05
		H30.3c0.3-0.067,0.6-0.133,0.9-0.2l5.7-1.5c0.067-0.033,0.133-0.05,0.2-0.05c-0.033,0.4-0.05,0.783-0.05,1.15
		c-0.033,1.9-0.167,4.017-0.4,6.35l-0.45,7.25c-0.233,1.101-0.85,2.834-1.85,5.2l-0.3,7.2c-0.333,6.833-0.833,13.667-1.5,20.5
		l-0.75,5.3l-1.15-0.649c-0.233,0.933,0.017,2.066,0.75,3.399c-0.133,1.134-0.283,2.867-0.45,5.2c-0.167,2.333-0.317,4.066-0.45,5.2
		l-1.7,14L27.45,147.75z M8.5,99.95L7.3,94c0.233-1.767,0.5-3.333,0.8-4.7L7.8,72.5c0.833,0.133,1.7,0.217,2.6,0.25
		c-0.233,0.933-0.533,1.783-0.9,2.55c-0.1,1.267-0.1,2.534,0,3.8c0.267,7.834,0.3,15.301,0.1,22.4l-0.5-0.65L8.55,100.2l-0.05-0.05
		V99.95z M7,72.35l0.1,20.7c-0.1-0.666-0.184-1.267-0.25-1.8l-0.1-1.4c0.033-1.466,0.033-2.666,0-3.6c0-0.5-0.017-0.917-0.05-1.25
		c0-0.1,0-0.184,0-0.25l-0.3-1.8c0-0.066-0.017-0.134-0.05-0.2c-0.2-0.833-0.5-1.583-0.9-2.25L5.4,80.45V80.4L5.35,80.3L5.2,80.1
		c-0.313-0.479-0.629-0.879-0.95-1.199l0.2-6.2l-0.35,6L3.45,78v-6.5l0.35-0.05C4.8,71.817,5.867,72.117,7,72.35z M20.15,134.3
		c-0.467,2-0.717,3.084-0.75,3.25c-0.3,1.101-0.633,1.816-1,2.15l-0.2-0.55l-0.35-3.4c-0.033-0.7-0.033-1.434,0-2.2
		C18.75,133.684,19.517,133.934,20.15,134.3z M3.25,71.5v6.3c-0.1-0.1-0.183-0.183-0.25-0.25L2.5,77c-0.1-0.1-0.2-0.217-0.3-0.35
		c-0.3-0.333-0.517-0.617-0.65-0.85c-0.433-0.7-0.683-1.5-0.75-2.4l-0.05-1.35H0.8L3.25,71.5z M41.15,66.55
		c-0.267,2.534-0.517,6-0.75,10.4c-0.3,5.333-0.617,9.283-0.95,11.85l-0.3-3.55L39.2,67.7c0.3-0.167,0.633-0.367,1-0.6
		C40.5,66.933,40.817,66.75,41.15,66.55z"/>
	<path style="fill-rule:evenodd;clip-rule:evenodd;fill:#7B756E;" d="M27.85,116.65L26.9,147.35l-1.85-1.55l-0.45-0.35
		c0.467-6.2,0.933-10.834,1.4-13.9c0.967-6.533,1.417-13.85,1.35-21.95l0.65-21c0,5.267-0.033,13.317-0.1,24.15L27.85,116.65z
		 M26.8,70.85h0.25c0.034-0.033,0.083-0.05,0.15-0.05c-0.1,1.967-0.2,4.017-0.3,6.15C26.8,75.583,26.767,73.55,26.8,70.85z
		 M40.35,81.85L40.3,85.15c-0.167,11.267-0.483,24.85-0.95,40.75l-0.2,7.05c0,0.833-0.033,3.066-0.1,6.7
		c-0.1,3.366-0.383,5.399-0.85,6.1c-0.133-3.566-0.2-10.3-0.2-20.2l1.15-22.2l1.2-23.55V81.85z"/>
	<path style="fill-rule:evenodd;clip-rule:evenodd;fill:#6D655A;" d="M92.7,119.35l-0.2,0.4c-0.267,0.333-0.65,0.55-1.15,0.65
		l0.551-4.95c0.199-2.934,0.366-7.601,0.5-14c0.133-6.101,0.333-10.767,0.6-14L92.8,113l-0.2-6.95c-0.033,0.733-0.133,2.25-0.3,4.55
		c-0.133,2.534,0.017,4.217,0.45,5.051L92.7,119.35z M92.7,120.7l-0.05,2.3c-0.034,0-0.084,0.017-0.15,0.05
		c-0.4,0.134-0.816,0.267-1.25,0.4c-0.167,0-0.316,0.017-0.45,0.05l0.55-3.05L92.7,120.7z M59.55,139.15v-3.45
		c0.434,1.366,0.7,2.35,0.8,2.95c-0.133,0.033-0.25,0.083-0.35,0.149C59.833,138.9,59.683,139.017,59.55,139.15z M47.85,110.2
		l-0.75-3.4c-0.1-0.866-0.167-1.717-0.2-2.55c-0.167-4.7-0.133-9.083,0.1-13.15c0.433,0.367,0.733,0.851,0.9,1.45
		c0.333,1.033,0.45,2.533,0.35,4.5c-0.067,1.101-0.167,2.617-0.3,4.55v7.65C47.95,109.583,47.917,109.9,47.85,110.2z M51.4,78.7
		c-0.333,2.333-0.783,4.283-1.35,5.85c-0.333,1-1.133,1.566-2.4,1.7c-0.066,0-0.15,0.017-0.25,0.05l0.2-1.899
		c0.033-0.167,0.066-0.334,0.1-0.5c0-0.067,0-0.117,0-0.15l0.05-0.25c0-0.033,0-0.083,0-0.15c0.067-0.466,0.133-0.916,0.2-1.35
		L48,81.65c0.667-3.833,1.133-7.067,1.4-9.7l0.4-3.85c0.2-2.867,0.317-5.6,0.35-8.2c0.5-0.267,1.1-0.533,1.8-0.8
		c1.2-0.533,3.066-0.783,5.6-0.75c0.267,0,0.567,0.017,0.9,0.05c-0.534,1.833-1.083,3.317-1.65,4.45
		c-0.633,1.2-1.517,2.45-2.65,3.75l-0.75,0.85c-0.4,0.433-0.683,0.833-0.85,1.2c-0.2,0.3-0.4,0.783-0.6,1.45v-2.45L51.9,70.2
		c-0.167,0.733-0.25,1.767-0.25,3.1c0,1.667-0.033,2.833-0.1,3.5L51.4,78.7z M65.7,114.4l0.15-2.15l-0.55,4.05
		c-0.433-0.467-1.233-0.517-2.4-0.149c-0.1-0.767-0.117-1.801-0.05-3.101c0.066-1.633,0.1-2.666,0.1-3.1
		c-0.034-0.634-0.133-1.767-0.3-3.4c-0.133-1.399-0.2-2.583-0.2-3.55c0.167-2.5,0.183-4.467,0.05-5.9
		c-0.267-2.733-1.167-4.017-2.7-3.85c0.333-0.467,0.85-0.533,1.55-0.2c0.867,0.5,1.483,0.834,1.85,1c0.4,0.2,0.85,0.3,1.35,0.3
		c0.233,0,0.467-0.017,0.7-0.05l0.1,0.05c0.7,0.667,1.167,1.567,1.4,2.7c0.1,0.533,0.183,1.617,0.25,3.25
		c0.133,3.367-0.183,7.384-0.95,12.05L65.7,114.4z M51.35,90.95c-0.6,1-0.95,2.967-1.05,5.899c-0.033,1.5-0.033,3.25,0,5.25
		c-0.033,0.9-0.05,2.417-0.05,4.551c-0.1,1.899-0.333,3.416-0.7,4.55l-0.35,0.85c0.233-1.967,0.333-4.366,0.3-7.2
		c-0.1-3.199-0.167-5.633-0.2-7.3c-0.066-1.066-0.117-1.899-0.15-2.5c-0.033-1.033,0.033-1.85,0.2-2.45
		c0.033-0.199,0.2-0.55,0.5-1.05c0.333-0.566,0.583-0.866,0.75-0.899C50.8,90.616,51.05,90.717,51.35,90.95z M56.4,103.45l-0.6,8.85
		c-0.033,2.5-0.183,5.033-0.45,7.601h-0.2c-0.533,0-1.45,0.033-2.75,0.1c-0.1-1.467,0.017-3.366,0.35-5.7
		c0.433-3.1,0.667-4.983,0.7-5.649c0.1-1.4,0.133-3.101,0.1-5.101c-0.033-2.3-0.066-4.017-0.1-5.149c0-1.233-0.017-2.2-0.05-2.9
		c-0.033-1.233-0.15-2.267-0.35-3.1c0.333,0.133,0.75,0.199,1.25,0.199c0.934-0.033,1.417-0.05,1.45-0.05
		c0.833,0.066,1.4,0.334,1.7,0.8c-0.267,0.634-0.467,1.817-0.6,3.551L56.6,98.8c-0.467,1.767-0.7,2.783-0.7,3.05
		C55.933,102.05,56.1,102.583,56.4,103.45z M65,118.1l-0.55,2.7l-0.2-0.85l-0.5-1.15l0.7-0.45L65,118.1z M63.5,131.45l0.05,6.8
		l-0.25-0.95c-0.033-0.133-0.45-1.05-1.25-2.75c-0.466-1.066-0.733-2.05-0.8-2.95c-0.067-0.899,0.017-2.616,0.25-5.149l1.95,0.6
		L63.5,131.45z"/>
</g>
</svg>
