<?xml version="1.0" encoding="iso-8859-1"?>
<!-- Generator: Adobe Illustrator 15.1.0, SVG Export Plug-In . SVG Version: 6.00 Build 0)  -->
<!DOCTYPE svg PUBLIC "-//W3C//DTD SVG 1.1//EN" "http://www.w3.org/Graphics/SVG/1.1/DTD/svg11.dtd">
<svg version="1.1" id="Layer_1" xmlns="http://www.w3.org/2000/svg" xmlns:xlink="http://www.w3.org/1999/xlink" x="0px" y="0px"
	 width="216.4px" height="139.6px" viewBox="0 0 216.4 139.6" style="enable-background:new 0 0 216.4 139.6;" xml:space="preserve"
	>
<g>
	<path style="fill-rule:evenodd;clip-rule:evenodd;fill:#8C847C;" d="M203.35,23.9c-0.333,0.033-0.699,0-1.1-0.1l-0.4-0.1
		l-0.149-0.05c0-0.133,0.283-0.25,0.85-0.35c0.267-0.033,0.533-0.05,0.8-0.05V23.9z M92.65,33.3v-0.5c0-3.2-0.333-5.85-1-7.95
		c0.467,1.333,1.75,2.283,3.85,2.85c-0.067,2.233-0.283,4.9-0.65,8c-0.6,0-1.117-0.233-1.55-0.7
		C92.867,34.533,92.65,33.967,92.65,33.3z M175.65,17.8c0.433,0,1.233-0.117,2.399-0.35L180,18.6c-0.434,0.066-0.983,0.1-1.65,0.1
		c-1.066,0-2.133-0.15-3.199-0.45L175.65,17.8z M180.95,34.95c-0.834,0.066-1.684-0.034-2.55-0.3l0.649-0.25
		c0.2,0.033,0.851,0.167,1.95,0.4L180.95,34.95z M167.95,37c0.8,0.1,2.033,0.433,3.7,1l1.35,0.25l-1.85,0.35
		c-0.567,0.1-2.184,0.233-4.851,0.4l0.25-0.35c0.233-0.233,0.351-0.633,0.351-1.2c0-0.1,0-0.217,0-0.35
		C167.066,36.967,167.417,36.933,167.95,37z M115.35,35.75c0.367-0.2,0.717-0.433,1.051-0.7c1.033-0.933,1.55-2.05,1.55-3.35
		c1.666,0,3.166,0.066,4.5,0.2l0.149,0.05c0.067,0.1,0.117,0.216,0.15,0.35c-0.333,0.6-1.634,1.35-3.9,2.25
		C117.65,35.017,116.483,35.417,115.35,35.75z M139.3,43.55c1.667-0.533,2.783-1.15,3.351-1.85c0.566-0.767,2.133-1.583,4.699-2.45
		c-0.1,0.267-0.583,1.033-1.449,2.3c-0.934,1.333-1.534,2.133-1.801,2.4c-1.199-0.034-2.517,0.05-3.949,0.25
		c-1.067,0.167-1.717,0.283-1.95,0.35L137.7,44L139.3,43.55z M108.8,32.15l-1.7,0.7l0.2-0.85L108.8,32.15z M104.45,31.05v0.2
		c-0.567,2.067-1.017,3.717-1.35,4.95c-0.1,0.267-0.417,0.6-0.95,1l-1.7,0.05l-0.25-0.05c0.867-1.1,1.3-2.833,1.3-5.2
		c0-0.6-0.033-1.1-0.1-1.5c-0.1-0.567-0.183-1.267-0.25-2.1l4.85,0.75l-1.65,0.65l0.35,0.2C104.567,30.3,104.483,30.65,104.45,31.05
		z M101.8,69.35l1.1,0.9l0.6,0.9c-1.867,0.666-2.217,1.616-1.05,2.85l-0.65-0.65c-0.233-0.233-0.35-0.399-0.35-0.5
		c0-0.199,0.117-0.8,0.35-1.8C101.967,70.25,101.967,69.683,101.8,69.35z M87.15,78.4c0.233,0.466,0.633,0.8,1.2,1v-0.2
		c0.367,0.366,0.533,0.767,0.5,1.2c-0.033,0.466-0.3,0.983-0.8,1.55c-0.7,0.5-2.716,0.649-6.05,0.45c-2.267-0.134-4-0.301-5.2-0.5
		c1.667-0.167,3.983-0.267,6.95-0.301c2.033-0.267,2.783-1.166,2.25-2.699v-1C86.433,78.033,86.817,78.2,87.15,78.4z M98.65,74.4
		c-1.2-2.4-1.633-4.784-1.3-7.15l0.8,0.3c1.033,0.434,1.717,0.684,2.05,0.75c0.033,0,0.433,0.233,1.2,0.7
		c-0.767,0-1.417,0.533-1.95,1.6C98.917,71.634,98.65,72.9,98.65,74.4z M112.8,71.6c-5.233,1.867-8.133,2.834-8.7,2.9
		c-0.067,0-0.117,0-0.15,0c-0.167,0-0.317-0.05-0.45-0.15c3.133-1.199,5.934-2.583,8.4-4.149c0.699-0.167,1.699-0.317,3-0.45
		c1.199-0.3,2.366-1.167,3.5-2.6l0.8-0.65h0.1l1.75-0.25l0.05,2.45c0,1.967-0.85,3.85-2.55,5.649
		c-2.066,2.101-4.633,3.034-7.7,2.801c-1.433,0.1-2.6,0.149-3.5,0.149c0.233-0.1,0.8-0.45,1.7-1.05c3.834-3.167,6.05-5.05,6.65-5.65
		L112.8,71.6z M89.8,64.95l-2.25,0.3c4.467-1.2,7.684-2.55,9.65-4.05l2.15-0.4c-1.167,1.434-2.4,2.333-3.7,2.7
		c-1.933,0.367-3.816,0.833-5.65,1.4c-0.067,0-0.117,0.017-0.15,0.05H89.8z M97.5,60l1.4-0.35c0,0.033-0.167,0.117-0.5,0.25
		c-0.367,0.133-0.65,0.217-0.85,0.25L97.5,60z M77.8,59.8l1.25,0.7l-1.35,0.9L77.8,59.8z M84.8,66.1l-1.75,0.35
		c0.167-0.5,0.7-1.567,1.6-3.2L84.6,64.3h0.1C84.533,64.967,84.567,65.567,84.8,66.1z M15.45,90.5c0,1.3-0.667,2.417-2,3.35
		c-1.333,0.934-2.95,1.4-4.85,1.4H8.4c0.267-0.167,1.383-0.95,3.35-2.35C13.717,91.533,14.95,90.733,15.45,90.5z M41.1,90.85
		c0.733-0.833,1.117-1.283,1.15-1.35c0.167-0.333,0.2-0.934,0.1-1.8c0.8-0.233,1.683-0.634,2.65-1.2c1.033-0.6,1.717-1.134,2.05-1.6
		c-0.267,0-1.65-0.317-4.15-0.95l-0.45-0.15c0.3-0.3,0.833-0.483,1.6-0.55c0.333,0,0.667,0,1,0c3.534-0.134,5.917-0.283,7.15-0.45
		c1.5-0.399,2.667-0.934,3.5-1.6c0.533-0.434,1.55-1.3,3.05-2.601c-0.567,2.2-2.1,4-4.6,5.4c-2.033,1.167-4.217,1.833-6.55,2
		c-1.367,0.1-2.583,1.083-3.65,2.95c-1.034,1.733-2.117,2.566-3.25,2.5L41.1,90.85z M59.05,78.45l-0.3,0.149l0.1-0.25l0.8-2.1v2
		L59.05,78.45z M39.85,79.1c0.433-0.066,1.517-0.383,3.25-0.949l0.15,0.05c-0.6,1.233-2.683,2.366-6.25,3.399
		c-2.433,0.7-4.3,1.101-5.6,1.2c-0.7,0.167-1.883,0.167-3.55,0l-3.25-1.2l0.55-0.85c1.033,0.9,1.6,1.35,1.7,1.35
		c0.367,0,0.667-0.083,0.9-0.25c0.533-0.433,0.983-0.767,1.35-1c0.133,0.334,0.283,0.717,0.45,1.15c0.2,0.267,0.617,0.4,1.25,0.4
		c1.3,0,2.667-0.2,4.1-0.601C36.967,81.233,38.617,80.333,39.85,79.1z M18.15,102h0.05v-0.1l0.3-4
		c0.367-1.134,1.35-1.834,2.95-2.101C26.017,95,30.2,94.033,34,92.9l-0.7,0.6c-2.5,1.467-4.233,2.467-5.2,3
		c-1.5,0.833-3.184,1.483-5.05,1.95c-0.8,0.2-1.816,1.184-3.05,2.95c-1.2,1.767-1.967,2.699-2.3,2.8
		C17.933,103.733,18.083,103,18.15,102z M80.25,66.55l-2.1-0.35l-1.4-0.5c0.4-0.233,0.967-0.6,1.7-1.1
		c0.633-0.434,1.017-0.717,1.15-0.85l1.1-0.85c-0.034,0.367-0.133,1.083-0.3,2.15C80.267,65.883,80.217,66.383,80.25,66.55z
		 M45.3,76.25c0.034-0.4,0.267-0.917,0.7-1.55c0.233-0.3,0.45-0.566,0.65-0.8c0.467,2.333,0.7,3.916,0.7,4.75
		c0,0.8-0.367,1.533-1.1,2.199c-0.1,0.067-0.183,0.134-0.25,0.2L45.45,80.9l-0.1-0.601L45.3,76.25z M31.7,121.7
		c-6.267,1.767-9.7,2.733-10.3,2.899V124c0.567-0.4,2.033-1.233,4.4-2.5c2.167-1.533,3.284-3.384,3.35-5.55l-0.15-2.3
		c1.167,0.866,1.95,1.85,2.35,2.949c0.3,0.9,0.467,2.367,0.5,4.4L31.7,121.7z"/>
	<path style="fill-rule:evenodd;clip-rule:evenodd;fill:#A39A90;" d="M208.55,25.6c0.033-0.1,0.066-0.217,0.101-0.35H207.8
		c-1.467-0.633-2.95-1.083-4.45-1.35v-0.65c-0.267,0-0.533,0.017-0.8,0.05c-0.566,0.1-0.85,0.217-0.85,0.35l0.149,0.05
		c-1.666-0.167-3.35-0.117-5.05,0.15c0.5-0.1,1.25-0.25,2.25-0.45c1.566-0.3,2.55-0.45,2.95-0.45l6.2,1.05
		c0.3,0,0.483-0.017,0.55-0.05c0.233-0.133,0.4-0.5,0.5-1.1l0.2,0.05l-0.351,1.3c0.634,1.3,1.634,2.2,3,2.7
		c1.101,0.434,1.65,0.967,1.65,1.6c0,0.8-0.6,1.483-1.8,2.05c-1.467,0.667-3.434,0.95-5.9,0.85l-1.25-0.2c1.634-0.6,3.7-0.934,6.2-1
		c1.5-0.034,2.25-0.483,2.25-1.35c-1.1-1.167-2.634-2.233-4.6-3.2C208.616,25.65,208.583,25.633,208.55,25.6z M8.6,95.25
		c1.9,0,3.517-0.467,4.85-1.4c1.333-0.933,2-2.05,2-3.35c1.167-0.467,2.233-0.767,3.2-0.9h0.95c-1.633,2.634-3.733,4.817-6.3,6.551
		c-2.2,1.466-4,2.199-5.4,2.199c-1.7,0-3.183-0.3-4.45-0.899c-1.1-0.5-2.233-1.351-3.4-2.55L0,94.8l0.05-0.05
		c0.467,0.333,1.35,0.634,2.65,0.9C3.867,95.884,4.817,96,5.55,96C6.45,96,7.467,95.75,8.6,95.25z M24.6,81.6
		c-1.1,0-2.033-0.416-2.8-1.25c-0.767-0.833-1.15-1.833-1.15-3v-1.3l0.35-1c0.633,0.733,2.6,1.8,5.9,3.2
		c3.1,1.3,4.917,1.95,5.45,1.95c0.667,0,1.833-0.25,3.5-0.75l-3.75-0.7c3.033,0.434,5.617,0.55,7.75,0.35
		c-1.233,1.233-2.883,2.134-4.95,2.7c-1.433,0.4-2.8,0.601-4.1,0.601c-0.633,0-1.05-0.134-1.25-0.4
		c-0.167-0.434-0.316-0.816-0.45-1.15c-0.367,0.233-0.817,0.567-1.35,1c-0.233,0.167-0.533,0.25-0.9,0.25
		c-0.1,0-0.667-0.449-1.7-1.35L24.6,81.6z M45,75.25l-8.85-0.55c0.6,0,2.333-0.267,5.2-0.8l0.8-0.5
		c0.067-0.034,0.15-0.067,0.25-0.101c0.5-0.267,0.934-0.399,1.3-0.399c2.066,0,3.633,0.483,4.7,1.449
		c0.7,0.667,1.05,1.317,1.05,1.95c-0.833,2.601-1.784,4.467-2.85,5.601c0.033-0.233,0-0.45-0.1-0.65
		c-0.067-0.134-0.15-0.267-0.25-0.4c0.733-0.666,1.1-1.399,1.1-2.199c0-0.834-0.233-2.417-0.7-4.75c-0.2,0.233-0.417,0.5-0.65,0.8
		c-0.433,0.633-0.667,1.149-0.7,1.55l-0.9-0.05L45,75.25z M146.65,5.2c0.833-0.267,1.517-0.517,2.05-0.75
		c-0.167,0.8-0.217,1.566-0.15,2.3c0.033,0.433,0.117,1,0.25,1.7c-0.033,0.133-0.1,0.233-0.2,0.3c-0.133,0.133-0.416,0.2-0.85,0.2
		c-0.366,0-1.7-0.35-4-1.05c-2.4-0.767-4.467-1.217-6.2-1.35c2.834-0.2,4.834-0.4,6-0.6C144.717,5.683,145.75,5.433,146.65,5.2z
		 M188.9,19.5l-0.351-0.25c0.334-0.133,1.2-0.283,2.601-0.45c2.033-0.2,3.533-0.383,4.5-0.55c-0.567,0.5-1.717,0.883-3.45,1.15
		C190.634,19.633,189.533,19.667,188.9,19.5z M175.65,17.8l-0.5,0.45c1.066,0.3,2.133,0.45,3.199,0.45c0.667,0,1.217-0.034,1.65-0.1
		l-1.95-1.15h2.7l0.55,0.25c-0.633,1.267-2.566,1.933-5.8,2c-9.233,0.133-14.083,0.216-14.55,0.25l4.8-0.7L160,19.6
		C160.4,19.467,165.616,18.867,175.65,17.8z M181,34.8c-1.1-0.233-1.75-0.367-1.95-0.4l-0.649,0.25
		c0.866,0.267,1.716,0.367,2.55,0.3c-0.134,0.733-0.5,1.316-1.101,1.75c-0.633,0.433-1.316,0.583-2.05,0.45s-1.3-0.517-1.7-1.15
		c-0.433-0.633-0.6-1.317-0.5-2.05c-0.6-0.1-0.916-0.333-0.949-0.7V32.6l0.949,1.35l2,0.15c1.334,0,2.584-0.583,3.75-1.75V31.6
		C181.483,32.8,181.366,33.867,181,34.8z M171.65,38c-1.667-0.567-2.9-0.9-3.7-1c0.967-0.5,1.666-1.033,2.1-1.6
		c0.9,0.8,1.4,1.3,1.5,1.5C171.684,37.067,171.717,37.433,171.65,38z M166.9,37.45c0,0.566-0.117,0.966-0.351,1.2L166.3,39
		c2.667-0.167,4.283-0.3,4.851-0.4c-0.434,0.3-1.483,0.583-3.15,0.85c-1.866,0.3-3.767,0.45-5.7,0.45c-0.399,0-0.983-0.3-1.75-0.9
		l-1.05-0.95c-0.566-0.2-1.1-0.45-1.6-0.75l0.25-0.15c0.267,0,0.716,0.3,1.35,0.9l1,0.2c0.733,0.133,1.3,0.2,1.7,0.2
		c1.467,0,3-0.317,4.6-0.95C166.833,37.5,166.866,37.483,166.9,37.45z M102.15,37.2c0.533-0.4,0.85-0.733,0.95-1
		c0.333-1.233,0.783-2.883,1.35-4.95c0.633,0.333,1.583,0.583,2.85,0.75l-0.2,0.85l1.7-0.7c3.233,0.4,5.334,0.467,6.3,0.2
		l-3.25-0.45c1.534,0,3.567-0.066,6.101-0.2c0,1.3-0.517,2.417-1.55,3.35c-0.334,0.267-0.684,0.5-1.051,0.7
		c-0.933,0.267-1.85,0.483-2.75,0.65c-1.399,0.133-3.316,0.25-5.75,0.35C104.983,36.85,103.417,37,102.15,37.2z M147.35,39.25
		l-1,0.3c0.567-0.367,1.217-0.65,1.95-0.85l1.55,0.35l0.25,0.1c0.134,0.167,0.2,0.45,0.2,0.85c0,0.433-0.483,1.033-1.45,1.8
		c-1.233,0.934-2.767,1.65-4.6,2.15h-0.15c0.267-0.267,0.867-1.067,1.801-2.4C146.767,40.283,147.25,39.517,147.35,39.25z
		 M139.3,43.55L137.7,44l0.5,0.55L134.1,47c-0.066-0.7-0.25-1.25-0.55-1.65c-0.267-0.333-0.399-0.867-0.399-1.6
		c0-0.3,0.216-0.85,0.649-1.65c0.566-1.067,1.25-1.934,2.05-2.6l-0.199,0.95L135.85,41c0,0.7,0.334,1.3,1,1.8
		C137.517,43.3,138.333,43.55,139.3,43.55z M133.3,49.95l0.601-0.45l0.25,0.55l-0.95,0.75L133.3,49.95z M101.15,28.4
		c0.067,0.833,0.15,1.533,0.25,2.1c0.067,0.4,0.1,0.9,0.1,1.5c0,2.367-0.433,4.1-1.3,5.2l0.25,0.05C99.417,37.183,98.4,37,97.4,36.7
		c-0.5-0.167-1.35-0.5-2.55-1c0.367-3.1,0.583-5.767,0.65-8l1.85,0.2L101.15,28.4z M105.65,30.45l-0.9-0.3
		c-0.033,0.367-0.133,0.667-0.3,0.9c0.033-0.4,0.117-0.75,0.25-1.05l-0.35-0.2l1.65-0.65l2.25,0.1c-0.433,0.133-1.067,0.233-1.9,0.3
		c-1,0.1-1.667,0.184-2,0.25L105.65,30.45z M105,43.9c-0.333,0.567-0.783,1.05-1.35,1.45c-0.833,0.6-1.683,0.816-2.55,0.65
		c0.267-0.1,0.717-0.283,1.35-0.55C103.183,45.117,104.033,44.6,105,43.9z M136.6,57.2l1.15,2.15c-1.1,0-2.033-0.25-2.8-0.75
		s-1.15-1.117-1.15-1.85C134.333,56.983,135.267,57.133,136.6,57.2z M114.6,61.7l-1,0.55l0.851,0.1
		c-1.066,0.3-2.717,0.483-4.95,0.55l-1.1,0.45l-4.45,0.55l-0.25-0.05c0.5-0.167,1.35-0.35,2.55-0.55
		c1.233-0.233,2.316-0.367,3.25-0.4c1.366-0.5,2.217-0.783,2.55-0.85C112.65,61.883,113.5,61.767,114.6,61.7z M115.75,62.3
		c0.566-0.1,1.083-0.233,1.55-0.4c1.167,0.633,2.167,1.3,3,2l0.601,0.35c0.966,0.533,1.566,1.767,1.8,3.7c0.1,1,0.1,1.966,0,2.899
		c0,1.467-0.684,2.483-2.05,3.051c0.033,0.033,0.399,0.25,1.1,0.649c0.934,0.467,2,0.8,3.2,1c0.533,0.101,1.184,0.267,1.95,0.5
		c0.566,0.167,1.033,0.25,1.399,0.25c1.233,0,2.267-0.916,3.101-2.75c0.6-1.866,0.899-2.833,0.899-2.899c0-0.601-0.149-1.2-0.45-1.8
		c-0.333-0.7-0.8-1.167-1.399-1.4l-0.7-0.6c1.3-0.1,2.566,0.367,3.8,1.4c1.233,1,2.134,2.3,2.7,3.9c-1.7,3.366-5.35,5.866-10.95,7.5
		c-2.166,0.633-6.916,1.5-14.25,2.6l0.7-3.25c-0.1-0.833-0.4-1.45-0.9-1.85c3.067,0.233,5.634-0.7,7.7-2.801
		c1.7-1.8,2.55-3.683,2.55-5.649l-0.05-2.45l-1.75,0.25v-0.05l0.65-0.7l0.399-0.85l-2.3-0.35c-0.133-0.233-0.5-0.633-1.1-1.2
		C116.384,62.783,115.983,62.433,115.75,62.3z M102.9,70.25c0.9,0.366,3.533,0.4,7.9,0.1L111.9,70.2
		c-2.467,1.566-5.267,2.95-8.4,4.149c0.133,0.101,0.283,0.15,0.45,0.15c-2.233,0.134-4,0.1-5.3-0.1c0-1.5,0.267-2.767,0.8-3.801
		c0.533-1.066,1.183-1.6,1.95-1.6l0.4,0.35c0.167,0.333,0.167,0.9,0,1.7c-0.233,1-0.35,1.601-0.35,1.8c0,0.101,0.117,0.267,0.35,0.5
		l0.65,0.65c-1.167-1.233-0.817-2.184,1.05-2.85L102.9,70.25z M109.05,76.25l-0.1-0.65c0.066-0.666,0.434-1.3,1.1-1.899
		c0.167-0.167,1.084-0.867,2.75-2.101l2.9-1C115.1,71.2,112.884,73.083,109.05,76.25z M82.8,66.5c-1.1,0.067-1.95,0.083-2.55,0.05
		c-0.033-0.167,0.017-0.667,0.15-1.5c0.167-1.066,0.267-1.783,0.3-2.15l-1.1,0.85c-0.133,0.133-0.517,0.417-1.15,0.85
		c-0.733,0.5-1.3,0.867-1.7,1.1l1.4,0.5l-0.7-0.2c-1.067,0-1.967-0.45-2.7-1.35c-0.767-0.9-1.15-1.983-1.15-3.25l0.05-1.05
		c0-0.6,0.117-1.1,0.35-1.5c0.2-0.434,0.45-0.65,0.75-0.65h0.05l-0.45,0.65c2.066,0.566,3.217,0.883,3.45,0.95l-0.1,1.6l1.35-0.9
		c0.567,0.267,1.483,0.217,2.75-0.15c1.5-0.434,2.317-0.65,2.45-0.65l-0.5-0.15c0.8-0.167,2.05-0.267,3.75-0.3
		c0,0.033-0.167,0.283-0.5,0.75c0.2,0.2,0.967,0.383,2.3,0.55l0.15,0.8l3.3,0.1c1.633,0,3.117-0.083,4.45-0.25
		c-1.967,1.5-5.184,2.85-9.65,4.05l2.25-0.3c-0.5,0.1-1.483,0.316-2.95,0.65c-0.767,0.2-1.45,0.367-2.05,0.5
		C83.967,66.3,83.3,66.433,82.8,66.5z M90.15,56.35H90.1c1.867-0.967,6.5-2.667,13.9-5.1L90.15,56.35z M97.55,60.15l-2.9,0.25
		L97.5,60L97.55,60.15z M84.8,66.1c-0.233-0.533-0.267-1.133-0.1-1.8h-0.1l0.05-1.05c-0.9,1.633-1.433,2.7-1.6,3.2L84.8,66.1z
		 M88.35,79.2v0.2c-0.567-0.2-0.967-0.534-1.2-1c-0.233-0.4-0.35-0.9-0.35-1.5l-0.05-1.75c-1.167-1.267-3.083-2.9-5.75-4.9l2.6-0.15
		c0.667,0,1.3,0.334,1.9,1c0.8,0.934,1.217,2.284,1.25,4.051c0.767,1.066,1.3,2.133,1.6,3.199V79.2z M76.8,81.9
		c1.2,0.199,2.934,0.366,5.2,0.5c3.333,0.199,5.35,0.05,6.05-0.45c-0.8,0.733-2.6,1.217-5.4,1.45c-4.433,0.3-7,0.517-7.7,0.649
		c-1.133,0.2-3.117,0.717-5.95,1.55c-2.4,0.7-3.75,1.017-4.05,0.95c2-1.3,4-2.366,6-3.2C73.383,82.283,75.333,81.8,76.8,81.9z
		 M58.85,78.35l-0.1,0.25l0.3-0.149c2.867,1.7,4.3,2.883,4.3,3.55c0,2.8-0.333,4.884-1,6.25c-1.333,2.7-4.233,5.033-8.7,7
		c-0.867-0.167-1.566-0.1-2.1,0.2c-0.2,0.1-0.617,0.467-1.25,1.1c-10.133,2.101-17.167,4.95-21.1,8.55c-1.8,1.634-3.067,2.634-3.8,3
		c-0.433,0.2-0.933,0.384-1.5,0.551c-0.233,0.033-0.45,0.083-0.65,0.149l-0.1,0.05c-0.1,0.034-0.2,0.051-0.3,0.051
		c-1.367,0.233-3.017,0.35-4.95,0.35c-0.633,0-1.7-0.066-3.2-0.2c-1.767-0.166-3.217-0.366-4.35-0.6
		c0.833-0.233,2.05-0.934,3.65-2.101c2-1.433,3.283-2.816,3.85-4.149l0.3-0.2c-0.066,1-0.217,1.733-0.45,2.2
		c0.333-0.101,1.1-1.033,2.3-2.8c1.233-1.767,2.25-2.75,3.05-2.95c1.867-0.467,3.55-1.117,5.05-1.95c0.967-0.533,2.7-1.533,5.2-3
		c2.434-0.533,4.034-0.95,4.8-1.25c0.333-0.134,1.333-0.6,3-1.4l-0.4,0.601c1.133,0.066,2.216-0.767,3.25-2.5
		c1.066-1.867,2.283-2.851,3.65-2.95c2.333-0.167,4.517-0.833,6.55-2c2.5-1.4,4.033-3.2,4.6-5.4c-1.5,1.301-2.517,2.167-3.05,2.601
		c-0.833,0.666-2,1.2-3.5,1.6c0.233-0.133,1.233-0.95,3-2.45c1.7-1.433,2.633-2.25,2.8-2.449L58.85,78.35z M62.4,96.7l-1.25-0.2
		l-0.4-0.1c0.333-0.4,1.483-1.284,3.45-2.65c1.9-1.333,2.95-2.167,3.15-2.5L69,92.2c1.1,0.733,1.65,1.3,1.65,1.7
		C70.65,96.3,67.9,97.233,62.4,96.7z M18.2,101.9h-0.25c0.1-1.634,0.283-2.967,0.55-4L18.2,101.9z M76.65,56.5
		c-0.066,0.133-0.433,0.2-1.1,0.2c-5.833-0.4-9.066-0.75-9.7-1.05c1.333-0.967,3.233-1.483,5.7-1.55
		c2.567-0.067,4.284,0.467,5.15,1.6L76.65,56.5z M61.25,106.6c-4.567,1.634-8.833,2.45-12.8,2.45c-4.5,0.066-7.75-0.467-9.75-1.6
		c1.9-0.566,6.117-1.434,12.65-2.601c1.566-0.199,3.85-0.866,6.85-2c2.8-1.066,4.517-1.6,5.15-1.6c0.667,0,2.883,0.217,6.65,0.65
		C68.3,103.566,65.383,105.134,61.25,106.6z M50.95,117.95c1.867-1.2,3.1-1.917,3.7-2.15c0.8-0.366,2.383-0.833,4.75-1.399
		c2.2-0.534,4.217-1.851,6.05-3.95c2.433-2.8,4.033-4.45,4.8-4.95c0.367,0.667,0.55,1.583,0.55,2.75c0,0.634-0.183,1.55-0.55,2.75
		c-0.433,1.4-0.95,2.616-1.55,3.65c-2.067,0.633-5.517,1.366-10.35,2.199C54.683,117.45,52.217,117.816,50.95,117.95z M65.15,117.7
		l1.65-0.45l-0.5,0.15l-0.45,0.149L65.15,117.7z M61.8,118.55l1.35-0.3l-0.35,0.1L61.8,118.55z M36.1,120.4
		c-1.667,0.533-3.133,0.966-4.4,1.3l0.15-0.7c-0.033-2.033-0.2-3.5-0.5-4.4c-0.4-1.1-1.184-2.083-2.35-2.949l0.15,2.3
		c-0.066-0.033-0.15-0.5-0.25-1.4c-0.066-0.866-0.033-1.166,0.1-0.899c0-0.434-0.1-0.65-0.3-0.65l-0.05-0.4
		c3.133,0.467,5.333,1.434,6.6,2.9C36.35,116.833,36.633,118.467,36.1,120.4z M21.4,124.6l-4.6,1.351h-0.05
		c0.967-0.533,2.517-1.184,4.65-1.95V124.6z"/>
	<path style="fill-rule:evenodd;clip-rule:evenodd;fill:#B3AA9E;" d="M203.35,23.9c1.5,0.267,2.983,0.717,4.45,1.35L199.4,25.2
		c-2.301,0-3.9,0.267-4.801,0.8c-0.066,0.067-0.416,0.5-1.05,1.3c0.167,0.434,0.684,0.867,1.55,1.3
		c0.601,0.267,1.217,0.483,1.851,0.65l-0.9,0.2c-0.666,0.333-1.2,0.833-1.6,1.5l3.2-0.05L197,29.25c2.134-0.067,4.65,0.033,7.55,0.3
		c1.9-0.167,3.233-1.483,4-3.95c0.033,0.033,0.066,0.05,0.101,0.05c1.966,0.967,3.5,2.033,4.6,3.2c0,0.867-0.75,1.316-2.25,1.35
		c-2.5,0.066-4.566,0.4-6.2,1l1.25,0.2c2.467,0.1,4.434-0.183,5.9-0.85c1.2-0.566,1.8-1.25,1.8-2.05c0-0.633-0.55-1.167-1.65-1.6
		c-1.366-0.5-2.366-1.4-3-2.7l0.351-1.3c4.633,0,6.95,2.917,6.95,8.75c0,1.533-0.434,2.934-1.301,4.2
		c-0.866,0.467-2.616,0.7-5.25,0.7c-2.899,0-4.6,0.067-5.1,0.2c-1.767-0.567-3.6-0.383-5.5,0.55c-0.8,0.434-2.233,1.45-4.3,3.05
		c-3.101,2.433-5.45,3.9-7.05,4.4c-1.367,0.433-3.983,0.65-7.851,0.65c-0.5,0-4.166-0.483-11-1.45
		c-6.833-0.967-11.967-1.45-15.399-1.45c-2.2,0-4.301,0.267-6.301,0.8c-1.6,0.5-2.517,0.75-2.75,0.75
		c-0.399,0-0.583-0.017-0.55-0.05c0.033,0,0.101-0.017,0.2-0.05c1.833-0.5,3.366-1.217,4.6-2.15c0.967-0.767,1.45-1.367,1.45-1.8
		c0-0.4-0.066-0.683-0.2-0.85l-0.25-0.1l-1.55-0.35c-0.733,0.2-1.383,0.483-1.95,0.85l1-0.3c-2.566,0.867-4.133,1.683-4.699,2.45
		c-0.567,0.7-1.684,1.316-3.351,1.85c-0.967,0-1.783-0.25-2.45-0.75c-0.666-0.5-1-1.1-1-1.8c0.767,0.567,1.601,0.85,2.5,0.85
		c0.067,0,0.801-0.184,2.2-0.55c1.4-0.633,2.101-1.533,2.101-2.7l-0.301-2.35c-0.933-0.167-2.183,0.2-3.75,1.1
		c-1.333,0.767-2.25,1.483-2.75,2.15c-0.8,0.667-1.483,1.533-2.05,2.6c-0.434,0.8-0.649,1.35-0.649,1.65
		c0,0.733,0.133,1.267,0.399,1.6c0.3,0.4,0.483,0.95,0.55,1.65c-0.066,0.067-0.966,1.133-2.699,3.2c-0.834,1-1.65,1.6-2.45,1.8
		c-1.967,0.5-4,0.667-6.101,0.5c-1.233-0.133-2.166,0.233-2.8,1.1c-1.6-0.1-2.883-0.083-3.85,0.05c-0.066,0.3-0.15,0.55-0.25,0.75
		c-0.033,0.133-0.05,0.4-0.05,0.8c0,0.667,0.216,0.9,0.649,0.7c-0.267,0.133-1.333,0.983-3.2,2.55c-1.933,1.566-3.017,2.5-3.25,2.8
		c0.233-0.033,0.834-0.217,1.801-0.55c0.899-0.3,1.449-0.5,1.649-0.6c2.533-0.633,4.434-1.333,5.7-2.1c0.634-0.4,1.116-0.8,1.45-1.2
		c-0.667,1.3-1.634,2.35-2.9,3.15c-1.467,0.767-2.533,1.35-3.2,1.75c-1.1,0.066-1.949,0.183-2.55,0.35
		c-0.333,0.067-1.184,0.35-2.55,0.85c-0.934,0.033-2.017,0.167-3.25,0.4c-1.2,0.2-2.05,0.383-2.55,0.55l0.25,0.05
		c-1.6,0-2.967,0.367-4.1,1.1c-1.133,0.7-1.7,1.55-1.7,2.55l-0.8-0.3c-0.333,2.367,0.1,4.75,1.3,7.15c1.3,0.199,3.067,0.233,5.3,0.1
		c0.033,0,0.083,0,0.15,0c0.566-0.066,3.467-1.033,8.7-2.9c-1.666,1.233-2.583,1.934-2.75,2.101c-0.666,0.6-1.033,1.233-1.1,1.899
		l0.1,0.65c-0.899,0.6-1.466,0.95-1.7,1.05c0.9,0,2.067-0.05,3.5-0.149c0.5,0.399,0.801,1.017,0.9,1.85l-0.7,3.25
		c-2.467,1.3-5.1,2.45-7.9,3.45c-5.5,2-10.8,3-15.9,3c-1.333-0.533-2.817-1.084-4.45-1.65c-3.267-1.1-6.1-1.649-8.5-1.649
		c-0.5,0-1.117,0.066-1.85,0.199c-0.7,0.101-1.184,0.217-1.45,0.351l0.45,0.35c0.9,0.334,3.466,0.783,7.7,1.351l-6,0.05
		c4.2,0.1,7,0.35,8.4,0.75c-3.233,1.6-5.316,2.816-6.25,3.649c-0.533,0.467-0.8,0.983-0.8,1.551c0,0.633,0.533,1.149,1.6,1.55
		c1.1,0.434,2.467,0.649,4.1,0.649s4.9-0.866,9.8-2.6l-0.85-0.7c0.133-0.066,0.45-0.166,0.95-0.3c0.633-0.2,1.133-0.316,1.5-0.35
		c-3.967,4.767-7.434,8.816-10.4,12.149c-5.6,6.367-9.767,9.9-12.5,10.601c0.6-1.034,1.117-2.25,1.55-3.65
		c0.367-1.2,0.55-2.116,0.55-2.75c0-1.167-0.183-2.083-0.55-2.75c-0.767,0.5-2.367,2.15-4.8,4.95c-1.833,2.1-3.85,3.416-6.05,3.95
		c-2.367,0.566-3.95,1.033-4.75,1.399c-0.6,0.233-1.833,0.95-3.7,2.15L36.1,120.4c0.533-1.934,0.25-3.567-0.85-4.9
		c-1.267-1.467-3.467-2.434-6.6-2.9l0.05,0.4c0.2,0,0.3,0.217,0.3,0.65c-0.133-0.267-0.167,0.033-0.1,0.899
		c0.1,0.9,0.184,1.367,0.25,1.4c-0.066,2.166-1.183,4.017-3.35,5.55c-2.367,1.267-3.833,2.1-4.4,2.5
		c-2.133,0.767-3.683,1.417-4.65,1.95h0.05l-5.4,1.8l0.95,0.15c-0.867-0.101-1.55-0.217-2.05-0.351c-3.333-1.434-5-3.783-5-7.05
		c0-0.467,0.117-1.3,0.35-2.5c0.233-1.1,0.4-1.75,0.5-1.95c0.667,1.601,1.3,2.601,1.9,3c1,0.601,3.034,0.9,6.1,0.9
		c1.067,0,1.817-0.233,2.25-0.7c0.7-0.767,1.417-2.55,2.15-5.35c2.567-0.233,5.25-0.884,8.05-1.95c2.933-1.134,4.4-2.15,4.4-3.05
		c0-0.134,0.033-0.233,0.1-0.301c-0.467-0.033-0.9-0.083-1.3-0.149c-0.8-0.134-1.283-0.2-1.45-0.2c-1.733,0-3.217,0.134-4.45,0.4
		c0.567-0.167,1.067-0.351,1.5-0.551c0.733-0.366,2-1.366,3.8-3c3.933-3.6,10.966-6.449,21.1-8.55
		c-1.667,1.233-2.966,2.217-3.9,2.95c-1.767,1.366-2.7,2.616-2.8,3.75c0.667,0.667,1.033,1.017,1.1,1.05
		c0.566,0.167,2.133,0.25,4.7,0.25c2.5,0,5.417-0.684,8.75-2.05c3.767-1.5,6.267-3.25,7.5-5.25L62.4,96.7
		c5.5,0.533,8.25-0.4,8.25-2.8c0-0.4-0.55-0.967-1.65-1.7l-1.65-0.95c-0.2,0.333-1.25,1.167-3.15,2.5
		c-1.967,1.366-3.117,2.25-3.45,2.65l0.4,0.1l-7.5-1.25c4.467-1.967,7.367-4.3,8.7-7c0.667-1.366,1-3.45,1-6.25
		c0-0.667-1.434-1.85-4.3-3.55l0.6-0.2v-2l-0.8,2.1L58,77.9c-0.167,0.199-1.1,1.017-2.8,2.449c-1.767,1.5-2.767,2.317-3,2.45
		c-1.233,0.167-3.617,0.316-7.15,0.45c-0.333,0-0.667,0-1,0c-0.767,0.066-1.3,0.25-1.6,0.55c-4.567-1.233-7.167-1.633-7.8-1.2
		c-0.2,0.101-0.316,0.384-0.35,0.851c-0.033,0.467-0.183,0.816-0.45,1.05c-0.967,0.967-1.583,1.634-1.85,2s-0.583,0.717-0.95,1.05
		c-0.267,0.233-0.55,0.467-0.85,0.7c-0.4,0.267-0.833,0.55-1.3,0.85c-0.566,0.301-1.167,0.617-1.8,0.95
		c-0.467,0.2-0.95,0.417-1.45,0.65c-0.033,0.033-0.066,0.05-0.1,0.05c-0.933,0.366-1.917,0.75-2.95,1.15
		c0.367-0.101,1.283-0.45,2.75-1.051c0.467-0.199,0.983-0.416,1.55-0.649c0.333-0.134,0.684-0.267,1.05-0.4
		c0.667-0.3,1.316-0.583,1.95-0.85c0.3-0.134,0.617-0.267,0.95-0.4c0.033-0.033,0.066-0.05,0.1-0.05
		c-0.034,0.033-0.067,0.066-0.1,0.1L30.8,88.65c-0.1,0.066-0.167,0.133-0.2,0.199c-0.033,0.101-0.017,0.184,0.05,0.25
		c0.1,0.101,0.333,0.184,0.7,0.25c0.5,0.101,1.066,0.15,1.7,0.15c1.7,0,4.8-0.6,9.3-1.8c0.1,0.866,0.066,1.467-0.1,1.8
		c-0.033,0.066-0.417,0.517-1.15,1.35c-1.667,0.801-2.667,1.267-3,1.4c-0.767,0.3-2.367,0.717-4.8,1.25l0.7-0.6
		c-3.8,1.133-7.983,2.1-12.55,2.899c-1.6,0.267-2.583,0.967-2.95,2.101c-0.267,1.033-0.45,2.366-0.55,4h0.25v0.1h-0.05
		c-1.1-0.033-2.816-0.066-5.15-0.1c-0.867,0-1.583,0.366-2.15,1.1c-0.4,0.5-0.6,0.95-0.6,1.35c0,0.667,2.533-0.05,7.6-2.149
		c-0.567,1.333-1.85,2.717-3.85,4.149c-1.6,1.167-2.817,1.867-3.65,2.101c1.133,0.233,2.583,0.434,4.35,0.6
		c1.5,0.134,2.566,0.2,3.2,0.2c1.934,0,3.583-0.116,4.95-0.35c-0.167,0.033-0.317,0.083-0.45,0.149c-2.033,0.733-3.5,2-4.4,3.8
		c0.633,0.233,0.817,0.584,0.55,1.051c-6.133-0.134-9.883-0.15-11.25-0.051c0.3-0.666,0.467-1.033,0.5-1.1
		c0.1-0.333,0.15-0.717,0.15-1.15c0-2.633-1.267-5.916-3.8-9.85c-2.667-4.167-4.033-6.45-4.1-6.85c1.167,1.199,2.3,2.05,3.4,2.55
		c1.267,0.6,2.75,0.899,4.45,0.899c1.4,0,3.2-0.733,5.4-2.199c2.567-1.733,4.667-3.917,6.3-6.551h-0.95
		c-0.967,0.134-2.033,0.434-3.2,0.9c-0.5,0.233-1.733,1.033-3.7,2.4C9.783,94.3,8.667,95.083,8.4,95.25h0.2
		C7.467,95.75,6.45,96,5.55,96c-0.733,0-1.683-0.116-2.85-0.35c-1.3-0.267-2.184-0.567-2.65-0.9L0,92.9
		c0-5.034,0.95-8.75,2.85-11.15c3.1-3.967,9.033-5.866,17.8-5.7v1.3c-2.9,0.067-5.15,0.233-6.75,0.5c-2.933,0.467-4.4,1.767-4.4,3.9
		c0,0.934,0.883,1.483,2.65,1.65c1.3,0.133,3.65,0.083,7.05-0.15c2.667-0.167,4.5,0.017,5.5,0.55c1.066,0.601,2,0.9,2.8,0.9
		c1.233,0,2.533-0.634,3.9-1.9c1.3-0.1,3.167-0.5,5.6-1.2c3.567-1.033,5.65-2.166,6.25-3.399l-0.15-0.05
		c0.667-0.834,1.1-1.483,1.3-1.95l0.9,0.05l0.05,4.05l0.1,0.601L46,81.05c0.067-0.066,0.15-0.133,0.25-0.2
		c0.1,0.134,0.183,0.267,0.25,0.4c0.1,0.2,0.133,0.417,0.1,0.65c1.066-1.134,2.017-3,2.85-5.601c0-0.633-0.35-1.283-1.05-1.95
		c-1.066-0.966-2.633-1.449-4.7-1.449c-0.367,0-0.8,0.133-1.3,0.399c2.633-1.633,4.783-3.3,6.45-5c2.7-2.8,5.25-5.117,7.65-6.95
		c1.8-1.367,4.6-3.317,8.4-5.85c3.7-2.533,6.083-4.033,7.15-4.5C72.017,51.067,72,51.217,72,51.45c0,0.667,0.1,0.917,0.3,0.75
		c1.133,0.233,2.067,0.35,2.8,0.35c1.233,0,2.15-0.2,2.75-0.6c0.3-0.233,0.5-0.483,0.6-0.75c-0.067-0.2-1.65-0.4-4.75-0.6
		c2.466-0.4,8.783-6.333,18.95-17.8v0.5c-1.9,1.9-2.983,3.017-3.25,3.35C89.133,36.917,89,37.5,89,38.4c0,1.5,1.533,2.25,4.6,2.25
		c2.367,0,3.95-0.117,4.75-0.35c1.367-0.433,2.633-1.466,3.8-3.1c1.267-0.2,2.833-0.35,4.7-0.45c2.433-0.1,4.35-0.217,5.75-0.35
		c0.9-0.167,1.817-0.383,2.75-0.65c1.134-0.333,2.301-0.733,3.5-1.2c2.267-0.9,3.567-1.65,3.9-2.25
		c-0.033-0.133-0.083-0.25-0.15-0.35l-0.149-0.05c-0.233-1-0.851-1.967-1.851-2.9l-0.35-0.3c0-2.3-1.35-4.25-4.05-5.85
		c-2.733-1.633-6.017-2.45-9.85-2.45c5.034-2.7,9.617-5.483,13.75-8.35c3.367-1.9,9.184-3.733,17.45-5.5
		c1.733,0.133,3.8,0.583,6.2,1.35c2.3,0.7,3.634,1.05,4,1.05c0.434,0,0.717-0.067,0.85-0.2c0.101-0.067,0.167-0.167,0.2-0.3
		c-0.133-0.7-0.217-1.267-0.25-1.7c-0.066-0.733-0.017-1.5,0.15-2.3c-0.533,0.233-1.217,0.483-2.05,0.75
		c1-0.4,2.066-0.934,3.199-1.6c2.467-1.5,5.867-2.5,10.2-3c3.367-0.4,6.316-0.6,8.851-0.6c3.699,0,7.5,0.55,11.399,1.65
		c2.4,0.7,6.7,2,12.9,3.9c3.133,0.833,5.3,2.35,6.5,4.55c0.833,1.5,1.25,3.467,1.25,5.9c0,0.433-0.267,1.1-0.8,2
		c-0.534,0.9-1.101,1.667-1.7,2.3c1.833,0.967,3.483,1.6,4.95,1.9c0.733,0.133,2.683,0.35,5.85,0.65c-0.1,0.6-0.267,0.967-0.5,1.1
		c-0.066,0.033-0.25,0.05-0.55,0.05l-6.2-1.05c-0.4,0-1.384,0.15-2.95,0.45c-1,0.2-1.75,0.35-2.25,0.45
		c1.7-0.267,3.384-0.317,5.05-0.15l0.4,0.1C202.65,23.9,203.017,23.933,203.35,23.9z M124.35,33.9l-0.8,0.35
		c0.2,0.167,0.55,0.333,1.05,0.5c0.534,0.133,1,0.183,1.4,0.15L124.35,33.9z M188.9,19.5c0.633,0.167,1.733,0.133,3.3-0.1
		c1.733-0.267,2.883-0.65,3.45-1.15c-0.967,0.167-2.467,0.35-4.5,0.55c-1.4,0.167-2.267,0.317-2.601,0.45L188.9,19.5z M175.65,17.8
		c-10.034,1.067-15.25,1.667-15.65,1.8l5.75-0.35l-4.8,0.7c0.467-0.034,5.316-0.117,14.55-0.25c3.233-0.067,5.167-0.733,5.8-2
		l-0.55-0.25h-2.7c0.767-0.167,1.417-0.35,1.95-0.55c-5.333-0.867-8.333-1.3-9-1.3c-0.5,0-1.184,0.05-2.05,0.15
		c-0.867,0.1-1.634,0.35-2.3,0.75l-0.7,0.6c0,0.667,0.083,0.9,0.25,0.7c0.166,0.067,0.25,0.15,0.25,0.25h1.7
		C168.983,17.95,171.483,17.867,175.65,17.8z M164,4.9c-0.634,0.067-1.15,0.3-1.55,0.7l0.8,0.35C163.75,5.917,164,5.567,164,4.9z
		 M171.25,7.85l0.75,0.2c0.9-0.1,1.566-0.25,2-0.45c-1.2-0.3-2.017-0.434-2.45-0.4c-0.267,0.033-0.483,0.167-0.649,0.4L171.25,7.85z
		 M179.35,5.6c-1.267-1.333-3.017-1.867-5.25-1.6c-2.033,0.567-3.133,0.867-3.3,0.9l0.55,0.5c0.9,0.333,1.967,0.5,3.2,0.5
		C176.017,5.9,177.616,5.8,179.35,5.6z M189.25,17.8c0.333,0.167,0.783,0.25,1.35,0.25c0.934,0,1.733-0.15,2.4-0.45
		c-1.434-0.467-2.5-0.75-3.2-0.85c-0.633-0.067-1.184,0-1.649,0.2C188.717,17.417,189.083,17.7,189.25,17.8z M176.25,33.6l0.05,0.1
		c0.134,0.033,0.4,0.05,0.8,0.05c0.334,0,0.801-0.183,1.4-0.55c0.566-0.367,1.066-0.8,1.5-1.3c-2.233,0.267-3.667,0.717-4.3,1.35
		L176.25,33.6z M176.4,25.85c0-0.267-0.25-0.5-0.75-0.7c-0.5-0.2-1.101-0.3-1.801-0.3c-0.699,0-1.3,0.1-1.8,0.3
		c-0.5,0.2-0.75,0.434-0.75,0.7s0.25,0.5,0.75,0.7c0.5,0.2,1.101,0.3,1.8,0.3c0.7,0,1.301-0.1,1.801-0.3
		C176.15,26.35,176.4,26.117,176.4,25.85z M180.95,34.95L181,34.8c0.366-0.933,0.483-2,0.35-3.2v0.75
		c-1.166,1.167-2.416,1.75-3.75,1.75l-2-0.15l-0.949-1.35v0.65c0.033,0.367,0.35,0.6,0.949,0.7c-0.1,0.733,0.067,1.417,0.5,2.05
		c0.4,0.633,0.967,1.017,1.7,1.15s1.417-0.017,2.05-0.45C180.45,36.267,180.816,35.683,180.95,34.95z M162.35,36.15
		c1.7-0.4,2.801-1.033,3.301-1.9l-3.9-0.15c-0.934,0-1.7,0.233-2.3,0.7c-0.467,0.467-0.75,0.733-0.851,0.8
		c0.2,0.533,0.617,0.833,1.25,0.9C159.884,36.5,160.717,36.383,162.35,36.15z M167.95,37c-0.533-0.067-0.884-0.033-1.05,0.1
		c0,0.133,0,0.25,0,0.35c-0.034,0.033-0.067,0.05-0.101,0.05c-1.6,0.633-3.133,0.95-4.6,0.95c-0.4,0-0.967-0.067-1.7-0.2l-1-0.2
		c-0.634-0.6-1.083-0.9-1.35-0.9l-0.25,0.15c0.5,0.3,1.033,0.55,1.6,0.75l1.05,0.95c0.767,0.6,1.351,0.9,1.75,0.9
		c1.934,0,3.834-0.15,5.7-0.45c1.667-0.267,2.717-0.55,3.15-0.85l1.85-0.35L171.65,38c0.066-0.567,0.033-0.933-0.101-1.1
		c-0.1-0.2-0.6-0.7-1.5-1.5C169.616,35.967,168.917,36.5,167.95,37z M187,34.25l-2.65-0.65v0.65H187z M122.35,24.7
		c1.034-0.3,1.634-0.467,1.801-0.5c0.533-0.267,3.816-2.133,9.85-5.6c-4.134,1.367-6.783,2.283-7.95,2.75
		c-2.7,1.066-4.3,2.05-4.8,2.95C121.616,24.5,121.983,24.633,122.35,24.7z M140.65,7.25c-1.367-0.1-2.384-0.15-3.051-0.15
		c-1.399,0-2.283,0.15-2.649,0.45c0.133,0.133,0.383,0.434,0.75,0.9C136.3,8.817,137.35,9,138.85,9c0.667,0,1.384-0.033,2.15-0.1
		L140.65,7.25z M147.15,23.95c1.267,0,2.233-0.2,2.899-0.6c0.767-0.434,1.417-0.684,1.95-0.75v-1.35
		c-5.866,0.133-9.55,0.467-11.05,1c-0.601,0.667-1.217,1.1-1.851,1.3C142.7,23.817,145.384,23.95,147.15,23.95z M120.5,15.35
		c-0.267,0.167-0.4,0.467-0.4,0.9c0,0.667,0.25,0.783,0.75,0.35c0.834-0.1,1.551-0.333,2.15-0.7l-1.65-1
		C120.917,15.067,120.634,15.217,120.5,15.35z M105,43.9c-0.967,0.7-1.817,1.217-2.55,1.55c-0.633,0.267-1.083,0.45-1.35,0.55
		c0.867,0.167,1.717-0.05,2.55-0.65C104.217,44.95,104.667,44.467,105,43.9z M117.65,47.25l-0.65-1l-0.95,1.05L117.65,47.25z
		 M120,54.9c0.533-0.533,2.5-1.033,5.9-1.5c0.033,0,0.066,0,0.1,0c-3.9,1-5.917,1.533-6.05,1.6L120,54.9z M117.3,61.9
		c0.434-0.2,1.334-0.983,2.7-2.35c1.267-1.233,2.333-1.95,3.2-2.15c0.5-0.133,1.7-0.316,3.6-0.55c1.134-0.133,2.017-0.434,2.65-0.9
		l-8.55,0.7c1.033-0.933,3.216-1.4,6.55-1.4c2.934,0,5.05,0.5,6.35,1.5c0,0.733,0.384,1.35,1.15,1.85s1.7,0.75,2.8,0.75
		c0.733,1.167,1.5,2.533,2.3,4.1c0.733,1.367,1.101,2.1,1.101,2.2c0,0.633-0.284,1.367-0.851,2.2c-0.767,1.1-2.116,2.534-4.05,4.3
		c-0.566-1.601-1.467-2.9-2.7-3.9c-1.233-1.033-2.5-1.5-3.8-1.4l0.7,0.6c0.6,0.233,1.066,0.7,1.399,1.4c0.301,0.6,0.45,1.2,0.45,1.8
		c0,0.066-0.3,1.033-0.899,2.899c-0.834,1.834-1.867,2.75-3.101,2.75c-0.366,0-0.833-0.083-1.399-0.25
		c-0.767-0.233-1.417-0.399-1.95-0.5c-1.2-0.2-2.267-0.533-3.2-1c-0.7-0.399-1.066-0.616-1.1-0.649
		c1.366-0.567,2.05-1.584,2.05-3.051c0.1-0.933,0.1-1.899,0-2.899c-0.233-1.934-0.834-3.167-1.8-3.7
		c0.133-0.1,0.267-0.167,0.399-0.2c0.2-0.066,0.334-0.283,0.4-0.65l-0.351-1.15l-0.5,0.35c-0.3,0.3-0.483,0.733-0.55,1.3
		C119.467,63.2,118.467,62.533,117.3,61.9z M114.45,62.35l1.3-0.05c0.233,0.133,0.634,0.483,1.2,1.05c0.6,0.566,0.967,0.967,1.1,1.2
		c-3.633-0.533-6.333-0.9-8.1-1.1l-1.55-0.1l1.1-0.45C111.733,62.833,113.384,62.65,114.45,62.35z M87.15,78.4
		c-0.333-0.2-0.717-0.367-1.15-0.5v1c0.533,1.533-0.217,2.433-2.25,2.699c-2.967,0.034-5.283,0.134-6.95,0.301
		c-1.466-0.101-3.417,0.383-5.85,1.449c-2,0.834-4,1.9-6,3.2c0.3,0.066,1.65-0.25,4.05-0.95c2.833-0.833,4.817-1.35,5.95-1.55
		c0.7-0.133,3.267-0.35,7.7-0.649c2.8-0.233,4.6-0.717,5.4-1.45c0.5-0.566,0.767-1.084,0.8-1.55c0.033-0.434-0.133-0.834-0.5-1.2
		V78.35c-0.3-1.066-0.833-2.133-1.6-3.199c-0.033-1.767-0.45-3.117-1.25-4.051c-0.6-0.666-1.233-1-1.9-1L81,70.25
		c2.667,2,4.583,3.634,5.75,4.9l0.05,1.75C86.8,77.5,86.917,78,87.15,78.4z M61.25,106.6c4.133-1.466,7.05-3.033,8.75-4.699
		c-3.767-0.434-5.983-0.65-6.65-0.65c-0.633,0-2.35,0.533-5.15,1.6c-3,1.134-5.284,1.801-6.85,2
		c-6.533,1.167-10.75,2.034-12.65,2.601c2,1.133,5.25,1.666,9.75,1.6C52.417,109.05,56.683,108.233,61.25,106.6z M110.8,70.35
		c0.601-0.199,1.983-0.75,4.15-1.649c2.166-0.934,3.316-1.45,3.45-1.55c-1.134,1.434-2.301,2.3-3.5,2.6
		c-1.301,0.133-2.301,0.283-3,0.45L110.8,70.35z M119.2,66.5l0.1-0.05v0.05H119.2z M90.15,56.35l13.85-5.1
		c-7.4,2.433-12.033,4.133-13.9,5.1c-0.767-0.6-1.35-1.05-1.75-1.35c-0.733-0.5-1.3-0.75-1.7-0.75c-1.1,0-2.2,0.183-3.3,0.55
		c-1.4,0.6-2.667,1.083-3.8,1.45c-1.566,0.433-2.816,0.867-3.75,1.3l-1.05,0.65c-0.3,0-0.55,0.216-0.75,0.65
		c-0.233,0.4-0.35,0.9-0.35,1.5L72,59.9l-0.2,0.9c0.233,0.233,0.483,0.45,0.75,0.65l1.05-0.05c0,1.267,0.383,2.35,1.15,3.25
		c0.733,0.9,1.633,1.35,2.7,1.35c0.566,0.367,1.483,0.667,2.75,0.9c1.2,0.233,2.35,0.35,3.45,0.35L82.8,66.5
		c0.5-0.067,1.167-0.2,2-0.4c0.6-0.133,1.284-0.3,2.05-0.5c1.467-0.333,2.45-0.55,2.95-0.65h0.05c0.033-0.034,0.083-0.05,0.15-0.05
		c1.833-0.566,3.717-1.033,5.65-1.4c1.3-0.367,2.533-1.267,3.7-2.7c0.5,0,0.933-0.3,1.3-0.9c0.327-0.589,0.494-1.239,0.5-1.95v-0.2
		C94.617,57.183,90.95,56.717,90.15,56.35z M89,76.7c0.833-0.066,1.5-0.217,2-0.45l-2.65-1L88,75.9
		C88.033,76.333,88.367,76.6,89,76.7z M89.65,81.5c-0.267,0.167-0.933,1.634-2,4.4l5-6.65C92.083,79.816,91.083,80.566,89.65,81.5z
		 M81.35,75.9l1.7,0.1c0.667,0,1.2-0.134,1.6-0.4l-1.9-1L82,74.75C81.667,75.083,81.45,75.467,81.35,75.9z M85.65,88.8
		c1.567,0.566,3.95,0.851,7.15,0.851c-1.466,0.267-2.533,0.399-3.2,0.399c-1.533,0-2.434-0.083-2.7-0.25
		C86.667,89.467,86.25,89.134,85.65,88.8z M133.2,50.8c-0.566,0.4-1.45,0.817-2.65,1.25c1.101-0.566,2.017-1.267,2.75-2.1
		L133.2,50.8z M132.85,58.5c0-0.167-0.083-0.3-0.25-0.4c-0.199-0.1-0.416-0.15-0.649-0.15s-0.434,0.05-0.601,0.15
		c-0.199,0.1-0.3,0.233-0.3,0.4s0.101,0.3,0.3,0.4c0.167,0.1,0.367,0.15,0.601,0.15S132.4,59,132.6,58.9
		C132.767,58.8,132.85,58.667,132.85,58.5z M124,58.25c-0.267,0.4-0.533,0.883-0.8,1.45c-0.233,0.466-0.351,0.75-0.351,0.85
		c0,0.667,0.167,1.017,0.5,1.05l-0.05,0.1c0.066,0.033,0.3,0.05,0.7,0.05c0.6,0,1.6-0.283,3-0.85L124,58.25z M9.05,88.55
		C8.083,88.983,7.3,89.434,6.7,89.9C7.133,90.1,7.95,90.233,9.15,90.3c1.067,0.066,2.133,0.05,3.2-0.05v-2.4
		C11.55,87.684,10.45,87.917,9.05,88.55z M76.65,56.5l0.05-0.8c-0.867-1.133-2.583-1.667-5.15-1.6
		c-2.466,0.066-4.367,0.583-5.7,1.55c0.633,0.3,3.867,0.65,9.7,1.05C76.217,56.7,76.583,56.633,76.65,56.5z M67.4,66.85
		c0-0.934-0.683-2.1-2.05-3.5c-1.567-1.633-3.233-2.45-5-2.45c-0.6,0-1.967,0.633-4.1,1.9c-2.6,1.567-3.9,3.083-3.9,4.55l0.05,1.4
		c2.767,0.267,4.783,0.017,6.05-0.75c1.4-0.8,2.383-1.2,2.95-1.2c0.3,0,1,0.217,2.1,0.65c1.133,0.4,1.917,0.6,2.35,0.6
		C66.883,68.05,67.4,67.65,67.4,66.85z M64.7,60.35h4.1v-1.1h-4.1V60.35z M74.35,80.35c0.6,0,1.7-0.083,3.3-0.25
		c1.767-0.166,2.883-0.333,3.35-0.5l-4.35-5c-1.033-0.033-2.667,0.517-4.9,1.65c-2.1,1.1-3.4,1.967-3.9,2.6
		C69.017,79.85,71.183,80.35,74.35,80.35z M75.05,103.5c0-0.233-0.183-0.434-0.55-0.6c-0.4-0.2-0.883-0.301-1.45-0.301
		c-0.566,0-1.033,0.101-1.4,0.301c-0.4,0.166-0.6,0.366-0.6,0.6s0.2,0.45,0.6,0.65c0.367,0.166,0.833,0.25,1.4,0.25
		c0.567,0,1.05-0.084,1.45-0.25C74.867,103.95,75.05,103.733,75.05,103.5z M65.35,106.85c1.2,0.5,2.3-0.033,3.3-1.6
		c-2.1,0.733-3.2,1.15-3.3,1.25C65.583,106.566,65.583,106.684,65.35,106.85z M42.95,114.35c1.633,0.634,3.483,0.95,5.55,0.95
		c4.467,0,8.25-0.95,11.35-2.85c1.6-0.967,3.316-2.15,5.15-3.55C49.8,110.3,42.183,111,42.15,111c-0.867,0.1-1.333,0.25-1.4,0.45
		c-0.233,0.399-0.45,0.684-0.65,0.85C40.5,113.1,41.45,113.783,42.95,114.35z"/>
	<path style="fill-rule:evenodd;clip-rule:evenodd;fill:#C3B9AC;" d="M22.85,108.9c0.1,0,0.2-0.017,0.3-0.051l0.1-0.05
		c0.2-0.066,0.417-0.116,0.65-0.149c1.233-0.267,2.717-0.4,4.45-0.4c0.167,0,0.65,0.066,1.45,0.2c0.4,0.066,0.833,0.116,1.3,0.149
		c-0.067,0.067-0.1,0.167-0.1,0.301c0,0.899-1.467,1.916-4.4,3.05c-2.8,1.066-5.483,1.717-8.05,1.95
		c-0.733,2.8-1.45,4.583-2.15,5.35c-0.433,0.467-1.183,0.7-2.25,0.7c-3.066,0-5.1-0.3-6.1-0.9c-0.6-0.399-1.233-1.399-1.9-3
		l1.15-2.2c1.367-0.1,5.117-0.083,11.25,0.051c0.267-0.467,0.083-0.817-0.55-1.051c0.9-1.8,2.367-3.066,4.4-3.8
		C22.533,108.983,22.683,108.934,22.85,108.9z M34.8,74.65L34.75,74.6l1.4,0.101L45,75.25l-0.7,1.05
		c-2.667-0.133-4.55-0.267-5.65-0.399C36.85,75.7,35.567,75.283,34.8,74.65z M27.2,74.7L27.05,75c-0.1,0.3-0.15,0.65-0.15,1.05
		c0,0.167,0.517,0.533,1.55,1.101c1.167,0.633,2.383,1.166,3.65,1.6l3.75,0.7c-1.667,0.5-2.833,0.75-3.5,0.75
		c-0.533,0-2.35-0.65-5.45-1.95c-3.3-1.4-5.267-2.467-5.9-3.2V74.7H27.2z M73.7,50.6c3.1,0.2,4.683,0.4,4.75,0.6
		c-0.1,0.267-0.3,0.517-0.6,0.75c-0.6,0.4-1.517,0.6-2.75,0.6c-0.733,0-1.667-0.117-2.8-0.35c-0.2,0.167-0.3-0.083-0.3-0.75
		c0-0.233,0.017-0.383,0.05-0.45c0-0.067,0.017-0.1,0.05-0.1s0.066,0,0.1,0c0.133,0,0.233-0.033,0.3-0.1L73.7,50.6z M91.65,24.85
		c0.5-0.567,0.934-0.967,1.3-1.2c1.033-0.6,2.566-1.066,4.6-1.4c-1,0.733-1.617,1.2-1.85,1.4c-0.333,0.233-0.5,0.55-0.5,0.95
		c0,0.433,0.216,0.733,0.65,0.9c1.066,0.433,2.383,1.3,3.95,2.6l-2.45-0.2l-1.85-0.2C93.4,27.133,92.117,26.183,91.65,24.85z
		 M94.85,35.7c1.2,0.5,2.05,0.833,2.55,1c1,0.3,2.017,0.483,3.05,0.55l1.7-0.05c-1.167,1.633-2.433,2.667-3.8,3.1
		c-0.8,0.233-2.383,0.35-4.75,0.35c-3.067,0-4.6-0.75-4.6-2.25c0-0.9,0.133-1.483,0.4-1.75c0.267-0.333,1.35-1.45,3.25-3.35
		c0,0.667,0.217,1.233,0.65,1.7C93.733,35.467,94.25,35.7,94.85,35.7z M207.8,25.25h0.851c-0.034,0.133-0.067,0.25-0.101,0.35
		c-0.767,2.467-2.1,3.783-4,3.95c-2.899-0.267-5.416-0.367-7.55-0.3l0.65,1.65l-3.2,0.05c0.399-0.667,0.934-1.167,1.6-1.5l0.9-0.2
		c-0.634-0.167-1.25-0.383-1.851-0.65c-0.866-0.434-1.383-0.867-1.55-1.3c0.634-0.8,0.983-1.233,1.05-1.3
		c0.9-0.533,2.5-0.8,4.801-0.8L207.8,25.25z M189.25,17.8c-0.167-0.1-0.533-0.383-1.1-0.85c0.466-0.2,1.017-0.267,1.649-0.2
		c0.7,0.1,1.767,0.383,3.2,0.85c-0.667,0.3-1.467,0.45-2.4,0.45C190.033,18.05,189.583,17.967,189.25,17.8z M179.35,5.6
		c-1.733,0.2-3.333,0.3-4.8,0.3c-1.233,0-2.3-0.167-3.2-0.5l-0.55-0.5c0.167-0.033,1.267-0.333,3.3-0.9
		C176.333,3.733,178.083,4.267,179.35,5.6z M171.25,7.85L170.9,7.6c0.166-0.233,0.383-0.367,0.649-0.4
		c0.434-0.034,1.25,0.1,2.45,0.4c-0.434,0.2-1.1,0.35-2,0.45L171.25,7.85z M164,4.9c0,0.667-0.25,1.017-0.75,1.05l-0.8-0.35
		C162.85,5.2,163.366,4.967,164,4.9z M175.65,17.8c-4.167,0.067-6.667,0.15-7.5,0.25h-1.7c0-0.1-0.084-0.183-0.25-0.25
		c-0.167,0.2-0.25-0.033-0.25-0.7l0.7-0.6c0.666-0.4,1.433-0.65,2.3-0.75c0.866-0.1,1.55-0.15,2.05-0.15c0.667,0,3.667,0.433,9,1.3
		c-0.533,0.2-1.184,0.383-1.95,0.55C176.884,17.683,176.083,17.8,175.65,17.8z M176.4,25.85c0,0.267-0.25,0.5-0.75,0.7
		c-0.5,0.2-1.101,0.3-1.801,0.3c-0.699,0-1.3-0.1-1.8-0.3c-0.5-0.2-0.75-0.433-0.75-0.7s0.25-0.5,0.75-0.7
		c0.5-0.2,1.101-0.3,1.8-0.3c0.7,0,1.301,0.1,1.801,0.3C176.15,25.35,176.4,25.583,176.4,25.85z M176.25,33.6l-0.55-0.35
		c0.633-0.633,2.066-1.083,4.3-1.35c-0.434,0.5-0.934,0.934-1.5,1.3c-0.6,0.367-1.066,0.55-1.4,0.55c-0.399,0-0.666-0.017-0.8-0.05
		L176.25,33.6z M162.35,36.15c-1.633,0.233-2.466,0.35-2.5,0.35c-0.633-0.067-1.05-0.367-1.25-0.9
		c0.101-0.067,0.384-0.333,0.851-0.8c0.6-0.466,1.366-0.7,2.3-0.7l3.9,0.15C165.15,35.117,164.05,35.75,162.35,36.15z M187,34.25
		h-2.65V33.6L187,34.25z M147.15,23.95c-1.767,0-4.45-0.133-8.051-0.4c0.634-0.2,1.25-0.633,1.851-1.3
		c1.5-0.533,5.184-0.867,11.05-1v1.35c-0.533,0.066-1.184,0.316-1.95,0.75C149.384,23.75,148.417,23.95,147.15,23.95z M140.65,7.25
		L141,8.9c-0.767,0.067-1.483,0.1-2.15,0.1c-1.5,0-2.55-0.183-3.149-0.55c-0.367-0.467-0.617-0.767-0.75-0.9
		c0.366-0.3,1.25-0.45,2.649-0.45C138.267,7.1,139.283,7.15,140.65,7.25z M122.35,24.7c-0.366-0.067-0.733-0.2-1.1-0.4
		c0.5-0.9,2.1-1.883,4.8-2.95c1.167-0.467,3.816-1.383,7.95-2.75c-6.033,3.467-9.316,5.333-9.85,5.6
		C123.983,24.233,123.384,24.4,122.35,24.7z M124.35,33.9l1.65,1c-0.4,0.033-0.866-0.017-1.4-0.15c-0.5-0.167-0.85-0.333-1.05-0.5
		L124.35,33.9z M135.85,39.5c0.5-0.667,1.417-1.383,2.75-2.15c1.567-0.9,2.817-1.267,3.75-1.1l0.301,2.35
		c0,1.167-0.7,2.066-2.101,2.7c-1.399,0.367-2.133,0.55-2.2,0.55c-0.899,0-1.733-0.283-2.5-0.85l-0.199-0.55L135.85,39.5z
		 M115.05,23.25c0,0.733-0.267,1.567-0.8,2.5c-1.533-0.767-2.65-1.467-3.35-2.1c-0.467-0.4-1.601-0.917-3.4-1.55l1.3,0.05
		C110.233,22.317,112.316,22.683,115.05,23.25z M120.5,15.35c0.134-0.133,0.417-0.283,0.85-0.45l1.65,1
		c-0.6,0.367-1.316,0.6-2.15,0.7c-0.5,0.433-0.75,0.316-0.75-0.35C120.1,15.817,120.233,15.517,120.5,15.35z M104.45,31.05
		c0.167-0.233,0.267-0.533,0.3-0.9l0.9,0.3l6.2,1.45l3.25,0.45c-0.966,0.267-3.066,0.2-6.3-0.2L107.3,32
		c-1.267-0.167-2.216-0.417-2.85-0.75V31.05z M120.25,28.7l0.35,0.3c-1.699,0.167-3.316,0.117-4.85-0.15c0.267-0.1,0.8-1,1.6-2.7
		C117.55,26.45,118.517,27.3,120.25,28.7z M117.65,47.25l-1.601,0.05l0.95-1.05L117.65,47.25z M119.95,55l-0.351,0.2l0.4-0.3
		L119.95,55z M120.05,53.6c-0.399,0.7-1.566,1.467-3.5,2.3c-0.434,0.2-0.649-0.033-0.649-0.7c0-0.4,0.017-0.667,0.05-0.8
		c0.1-0.2,0.184-0.45,0.25-0.75C117.167,53.517,118.45,53.5,120.05,53.6z M119.3,66.45l-0.1,0.05l-0.8,0.65
		c-0.134,0.1-1.284,0.617-3.45,1.55c-2.167,0.9-3.55,1.45-4.15,1.649c-4.367,0.301-7,0.267-7.9-0.1l-1.1-0.9L101.4,69
		c-0.767-0.467-1.167-0.7-1.2-0.7c-0.333-0.066-1.017-0.316-2.05-0.75c0-1,0.567-1.85,1.7-2.55c1.133-0.733,2.5-1.1,4.1-1.1
		l4.45-0.55l1.55,0.1c1.767,0.2,4.467,0.566,8.1,1.1l2.3,0.35l-0.399,0.85L119.3,66.45z M120.9,64.25L120.3,63.9
		c0.066-0.566,0.25-1,0.55-1.3l0.5-0.35l0.351,1.15c-0.066,0.367-0.2,0.583-0.4,0.65C121.167,64.083,121.033,64.15,120.9,64.25z
		 M89.3,60.55c1.7,0.067,3.483,0.017,5.35-0.15l2.9-0.25c0.2-0.033,0.483-0.117,0.85-0.25c0.333-0.133,0.5-0.217,0.5-0.25
		c0.633,0,1.167-0.183,1.6-0.55c0.42-0.355,0.636-0.739,0.65-1.15c-0.006,0.711-0.173,1.361-0.5,1.95c-0.367,0.6-0.8,0.9-1.3,0.9
		l-2.15,0.4c-1.333,0.167-2.817,0.25-4.45,0.25l-3.3-0.1L89.3,60.55z M73.65,60.35L73.6,61.4l-1.05,0.05
		c-0.267-0.2-0.517-0.417-0.75-0.65l0.2-0.9L73.65,60.35z M79.05,60.5l-1.25-0.7c-0.233-0.066-1.383-0.383-3.45-0.95l0.45-0.65
		l1-0.65c0.934-0.433,2.184-0.867,3.75-1.3c0,0.9,0.417,1.683,1.25,2.35c0.8,0.633,1.784,0.95,2.95,0.95l0.5,0.15
		c-0.133,0-0.95,0.216-2.45,0.65C80.533,60.717,79.617,60.767,79.05,60.5z M89,76.7c-0.633-0.101-0.967-0.367-1-0.8l0.35-0.65
		l2.65,1C90.5,76.483,89.833,76.634,89,76.7z M81.35,75.9c0.1-0.434,0.316-0.817,0.65-1.15l0.75-0.15l1.9,1
		c-0.4,0.267-0.933,0.4-1.6,0.4L81.35,75.9z M89.65,81.5c1.434-0.934,2.434-1.684,3-2.25l-5,6.65
		C88.717,83.134,89.383,81.667,89.65,81.5z M89.15,92.55l0.85,0.7c-4.9,1.733-8.167,2.6-9.8,2.6s-3-0.216-4.1-0.649
		c-1.067-0.4-1.6-0.917-1.6-1.55c0-0.567,0.267-1.084,0.8-1.551c0.934-0.833,3.017-2.05,6.25-3.649c0.467,0.233,1.817,1.233,4.05,3
		C86.833,92.417,88.017,92.783,89.15,92.55z M124,58.25l3,2.65c-1.4,0.567-2.4,0.85-3,0.85c-0.4,0-0.634-0.017-0.7-0.05l0.05-0.1
		c-0.333-0.033-0.5-0.383-0.5-1.05c0-0.1,0.117-0.383,0.351-0.85C123.467,59.133,123.733,58.65,124,58.25z M24.6,81.6l3.25,1.2
		c1.667,0.167,2.85,0.167,3.55,0c-1.367,1.267-2.667,1.9-3.9,1.9c-0.8,0-1.733-0.3-2.8-0.9c-1-0.533-2.833-0.717-5.5-0.55
		c-3.4,0.233-5.75,0.283-7.05,0.15c-1.767-0.167-2.65-0.717-2.65-1.65c0-2.134,1.467-3.434,4.4-3.9c1.6-0.267,3.85-0.433,6.75-0.5
		c0,1.167,0.383,2.167,1.15,3C22.567,81.184,23.5,81.6,24.6,81.6z M9.05,88.55c1.4-0.633,2.5-0.866,3.3-0.7v2.4
		c-1.067,0.1-2.133,0.116-3.2,0.05c-1.2-0.066-2.017-0.2-2.45-0.399C7.3,89.434,8.083,88.983,9.05,88.55z M42.45,83.8l0.45,0.15
		c2.5,0.633,3.883,0.95,4.15,0.95c-0.333,0.466-1.017,1-2.05,1.6c-0.967,0.566-1.85,0.967-2.65,1.2c-4.5,1.2-7.6,1.8-9.3,1.8
		c-0.633,0-1.2-0.05-1.7-0.15c-0.367-0.066-0.6-0.149-0.7-0.25c-0.066-0.066-0.083-0.149-0.05-0.25c0.033-0.066,0.1-0.133,0.2-0.199
		l0.05-0.051c0.033-0.033,0.066-0.066,0.1-0.1c-0.034,0-0.067,0.017-0.1,0.05c-0.333,0.134-0.65,0.267-0.95,0.4
		c-0.633,0.267-1.283,0.55-1.95,0.85c-0.3,0.066-0.583,0.15-0.85,0.25c0.633-0.333,1.233-0.649,1.8-0.95
		c0.467-0.3,0.9-0.583,1.3-0.85c0.3-0.233,0.583-0.467,0.85-0.7c0.367-0.333,0.684-0.684,0.95-1.05s0.883-1.033,1.85-2
		c0.267-0.233,0.417-0.583,0.45-1.05c0.034-0.467,0.15-0.75,0.35-0.851C35.283,82.167,37.883,82.566,42.45,83.8z M61.15,96.5
		l1.25,0.2l3.25,0.55c-1.233,2-3.733,3.75-7.5,5.25c-3.333,1.366-6.25,2.05-8.75,2.05c-2.566,0-4.133-0.083-4.7-0.25
		c-0.067-0.033-0.434-0.383-1.1-1.05c0.1-1.134,1.033-2.384,2.8-3.75c0.934-0.733,2.233-1.717,3.9-2.95c0.633-0.633,1.05-1,1.25-1.1
		c0.534-0.3,1.233-0.367,2.1-0.2L61.15,96.5z M25.35,90.85c-1.467,0.601-2.383,0.95-2.75,1.051c1.033-0.4,2.017-0.784,2.95-1.15
		C25.483,90.783,25.417,90.816,25.35,90.85z M64.7,60.35v-1.1h4.1v1.1H64.7z M67.4,66.85c0,0.8-0.517,1.2-1.55,1.2
		c-0.434,0-1.217-0.2-2.35-0.6c-1.1-0.434-1.8-0.65-2.1-0.65c-0.566,0-1.55,0.4-2.95,1.2c-1.267,0.767-3.284,1.017-6.05,0.75
		l-0.05-1.4c0-1.467,1.3-2.983,3.9-4.55c2.133-1.267,3.5-1.9,4.1-1.9c1.767,0,3.433,0.817,5,2.45
		C66.717,64.75,67.4,65.917,67.4,66.85z M74.35,80.35c-3.167,0-5.333-0.5-6.5-1.5c0.5-0.633,1.8-1.5,3.9-2.6
		c2.233-1.134,3.867-1.684,4.9-1.65l4.35,5c-0.467,0.167-1.583,0.334-3.35,0.5C76.05,80.267,74.95,80.35,74.35,80.35z M75.05,103.5
		c0,0.233-0.183,0.45-0.55,0.65c-0.4,0.166-0.883,0.25-1.45,0.25c-0.566,0-1.033-0.084-1.4-0.25c-0.4-0.2-0.6-0.417-0.6-0.65
		s0.2-0.434,0.6-0.6c0.367-0.2,0.833-0.301,1.4-0.301c0.567,0,1.05,0.101,1.45,0.301C74.867,103.066,75.05,103.267,75.05,103.5z
		 M65.35,106.85c0.233-0.166,0.233-0.283,0-0.35c0.1-0.1,1.2-0.517,3.3-1.25C67.65,106.816,66.55,107.35,65.35,106.85z
		 M42.95,114.35c-1.5-0.566-2.45-1.25-2.85-2.05c0.2-0.166,0.417-0.45,0.65-0.85c0.067-0.2,0.533-0.351,1.4-0.45
		c0.033,0,7.65-0.7,22.85-2.1c-1.833,1.399-3.55,2.583-5.15,3.55c-3.1,1.899-6.883,2.85-11.35,2.85
		C46.433,115.3,44.583,114.983,42.95,114.35z M18.15,102l-0.3,0.2c-5.067,2.1-7.6,2.816-7.6,2.149c0-0.399,0.2-0.85,0.6-1.35
		c0.566-0.733,1.283-1.1,2.15-1.1C15.333,101.934,17.05,101.967,18.15,102z"/>
	<path style="fill-rule:evenodd;clip-rule:evenodd;fill:#7C7367;" d="M199.15,41.2c0.666-1.133,1.733-2.184,3.199-3.15
		c0.934-0.633,1.733-1.066,2.4-1.3c0.5-0.133,2.2-0.2,5.1-0.2c2.634,0,4.384-0.233,5.25-0.7c-1.733,2.533-4.133,4.017-7.199,4.45
		c-3.534,0.534-6.2,1.667-8,3.4l0.05-1.25c0-0.5-0.033-0.8-0.101-0.9C199.783,41.45,199.55,41.333,199.15,41.2z M175.55,46.45
		c-2.6,0.233-6.467,0.45-11.6,0.65c-1,7.8-1.9,12.267-2.7,13.4c-0.8,0.9-1.35,1.483-1.65,1.75c-0.366,0.333-1.133,0.767-2.3,1.3
		c0-1.066,0.3-3.566,0.9-7.5c-2.934,0.467-5.184,0.867-6.75,1.2c-2.867,0.6-4.667,1.467-5.4,2.6c-0.166-0.667-0.25-1.4-0.25-2.2
		c0-2.233,0.834-4.283,2.5-6.15c1.733-1.933,3.684-2.9,5.851-2.9c2.333,0,4.083,0.3,5.25,0.9c0.233-0.033,1.05-1.95,2.449-5.75
		c2.567-0.2,4.95,0.033,7.15,0.7c1.267,0.4,3.033,1.017,5.3,1.85L175.55,46.45z M145.35,75.7c-0.6,1-1.1,1.633-1.5,1.899
		c-0.066,0-0.116,0.017-0.149,0.051c-0.267,0.066-0.467,0.066-0.601,0c-0.199-0.101-0.267-0.301-0.199-0.601
		c-0.034-0.434-0.117-0.95-0.25-1.55c-0.767-0.134-1.767-0.167-3-0.1c-1.301,0.066-2.417,0.216-3.351,0.449
		c2.934-1.366,4.95-2.767,6.05-4.199c1.134-1.467,1.7-3.5,1.7-6.101c0-1.4-0.133-2.383-0.399-2.95c-0.5-1-1.733-2.25-3.7-3.75
		c1.267,0.367,2.35,1.033,3.25,2c1.033,1.133,1.55,2.4,1.55,3.8c0,0.333-0.134,1.367-0.4,3.1c-0.267,1.7-0.399,2.717-0.399,3.05
		c0,0.334,0.116,0.967,0.35,1.9C144.6,73.866,144.95,74.866,145.35,75.7z M113.3,85.55c3.601,0.4,8.3-0.833,14.101-3.7
		c4.933-2.466,7.783-4.316,8.55-5.55c0,0.066,0.033,0.2,0.1,0.4s0.101,0.5,0.101,0.899c-4.7,7.934-8.167,11.9-10.4,11.9
		c-0.533,0-1.184-0.816-1.95-2.45c-0.8-1.666-1.517-2.5-2.149-2.5c-0.634,0-1.634,0.334-3,1c-1.667,0.834-2.884,1.783-3.65,2.851
		c-0.733,1.033-1.267,1.899-1.6,2.6c-0.733,1.467-1.184,3.05-1.351,4.75c-3.1,0.634-4.767,0.983-5,1.05
		c-2.733,1.667-4.583,2.601-5.55,2.8c0.5-1.899,0.917-3.366,1.25-4.399c0.567-1.967,1.267-2.95,2.1-2.95c0.3,0,0.833,0.5,1.6,1.5
		c0.767,0.967,1.283,1.45,1.55,1.45c0.634,0,1.45-1.134,2.45-3.4C112.017,88.233,112.967,86.15,113.3,85.55z M101.25,99.6l-1.8,0.15
		V99.7l-2.25-6.45C98.9,95.55,100.25,97.667,101.25,99.6z M86.2,90.7c1.533-0.167,4.65-0.184,9.35-0.05
		c-1.033,0.366-2.417,0.566-4.15,0.6c-1.767,0.033-3.333-0.05-4.7-0.25L86.2,90.7z M97.05,93.1L96.8,99.9v0.05
		c-1.966,0.5-3.25,1.033-3.85,1.6c-0.534,0.834-1.067,1.566-1.6,2.2l-0.55,1c-0.2-1.4-0.3-3.116-0.3-5.15l0.05-1.699
		c0-1.334,0.633-2.467,1.9-3.4c1.267-0.934,2.783-1.4,4.55-1.4H97.05z M77.1,112.55l0.05,2.2c0,1.634-0.25,2.9-0.75,3.8l-0.45,0.351
		c-0.367,0.399-0.617,0.666-0.75,0.8c-0.133,0.1-0.267,0.184-0.4,0.25c-0.167,0.033-0.35,0.05-0.55,0.05
		c-0.233,0-1.017-0.366-2.35-1.1c-1.333-0.733-2.017-1.101-2.05-1.101c-1.233,0-2.067,0.834-2.5,2.5c-0.9,3.167-1.533,5.134-1.9,5.9
		c-0.167,0.366-0.65,2.6-1.45,6.7c-0.733,3.733-1.383,5.899-1.95,6.5c0,0.133-0.316,0.199-0.95,0.199h-0.05
		c-0.367,0-0.933-0.1-1.7-0.3l0.05-0.05c0.5-1.1,0.85-2.517,1.05-4.25c0.2-1.634,0.3-4.033,0.3-7.2c0-0.866-0.2-2.316-0.6-4.35
		c-0.433-2.101-0.833-3.55-1.2-4.351l2.85-0.55l1-0.2c0.467,2.4,0.667,4.867,0.6,7.4l0.15-0.8c0.267-1.033,0.784-2.55,1.55-4.55
		c0.433-1.167,0.833-2.167,1.2-3l0.5-0.15l1.05-0.35C72.283,115.066,75.367,113.616,77.1,112.55z M44.5,130.35
		c-0.3-1.466-0.7-2.816-1.2-4.05c0.167,0.066,0.633,0.334,1.4,0.8c0.4,0.267,0.8,0.4,1.2,0.4c0.633,0,1.4-0.9,2.3-2.7
		c0.466-0.934,0.983-2.066,1.55-3.399c-1.033,2.699-1.817,5.399-2.35,8.1C46.633,129.566,45.667,129.85,44.5,130.35z M23.45,134.3
		c0.066-1.5-0.35-2.517-1.25-3.05c-1.3-0.767-3.784-0.934-7.45-0.5c-1.033-0.1-1.9-0.483-2.6-1.15
		c-0.767-0.866-1.383-1.55-1.85-2.05c0.5,0.134,1.184,0.25,2.05,0.351c0.133,0,0.283,0,0.45,0c0.6,0.033,1.15,0.05,1.65,0.05
		l0.95-0.05c0.233-0.067,0.6-0.134,1.1-0.2c1.067-0.233,3.017-0.733,5.85-1.5c1.667,0.533,3.217,1.684,4.65,3.45
		c0.367,0.466,0.983,1.416,1.85,2.85c0.5-3.1,1.217-5.017,2.15-5.75c1.267-1,4.117-1.434,8.55-1.3c-0.2,0.434-0.5,1.649-0.9,3.649
		l-0.1,0.15c-0.267-0.233-0.783-0.95-1.55-2.15c-0.533-0.833-1.167-1.25-1.9-1.25c-2.133,0-3.3,1.867-3.5,5.601
		c-0.133,1.934-0.067,4.3,0.2,7.1c-0.9,0.167-1.783,0.267-2.65,0.3c-1.566,0-2.9-0.433-4-1.3
		C24.017,136.65,23.45,135.566,23.45,134.3z M187.95,46.5c1.2-0.033,2.434-0.233,3.7-0.6c0.699-0.2,1.733-0.517,3.1-0.95
		c-0.1,0.733-0.333,1.333-0.7,1.8c-0.633,0.9-1.816,1.35-3.55,1.35c-0.6,0-1.083-0.133-1.45-0.4
		C188.983,47.667,188.616,47.267,187.95,46.5z M138.75,47.1l0.1,6.4c0,0.667-0.033,1.317-0.1,1.95c-1.7-0.133-2.917-0.767-3.65-1.9
		c-0.533-0.833-0.85-2-0.949-3.5l-0.25-0.55c0.366-0.233,1.116-0.633,2.25-1.2C137.45,47.633,138.316,47.233,138.75,47.1z
		 M142.45,47.65v3.2l-0.3,1.15l-0.301,0.35c-0.1-0.9-0.149-1.684-0.149-2.35l0.05-2.35H142.45z M144.05,47.75
		c0.233-0.3,0.517-0.45,0.851-0.45c0.333,0,0.616,0.15,0.85,0.45s0.35,0.667,0.35,1.1c0,0.433-0.116,0.8-0.35,1.1
		c-0.233,0.3-0.517,0.45-0.85,0.45c-0.334,0-0.617-0.15-0.851-0.45c-0.233-0.3-0.35-0.667-0.35-1.1
		C143.7,48.417,143.816,48.05,144.05,47.75z M81.8,109c1.4-1.333,2.967-3.134,4.7-5.4c-0.233,3.4-1.083,5.733-2.55,7L81.8,109z"/>
	<path style="fill-rule:evenodd;clip-rule:evenodd;fill:#9B9286;" d="M194.75,44.95c0.3-0.067,0.983-0.567,2.05-1.5
		c1.134-0.934,1.917-1.684,2.351-2.25c0.399,0.133,0.633,0.25,0.699,0.35c0.067,0.1,0.101,0.4,0.101,0.9l-0.05,1.25
		c-3.2,3.7-5.067,5.8-5.601,6.3c-1.366,1.367-2.684,2.25-3.95,2.65c-1.166,0.367-3.083,0.533-5.75,0.5
		c-4.033-0.133-7.666-0.2-10.899-0.2c-3.367,0-5.9,0.667-7.601,2c-0.267,0.2-1.883,2.05-4.85,5.55c0.8-1.133,1.7-5.6,2.7-13.4
		c5.133-0.2,9-0.417,11.6-0.65l0.4,0.05c4.133,0.133,8.133,0.133,12,0c0.666,0.767,1.033,1.167,1.1,1.2
		c0.367,0.267,0.851,0.4,1.45,0.4c1.733,0,2.917-0.45,3.55-1.35C194.417,46.283,194.65,45.683,194.75,44.95z M146.55,77.75
		c0.601-2.4,0.7-6.05,0.3-10.95c-0.5-4.466-0.767-6.783-0.8-6.95c0.733-1.133,2.533-2,5.4-2.6c1.566-0.333,3.816-0.733,6.75-1.2
		c-0.601,3.934-0.9,6.434-0.9,7.5c-3.533,1.467-5.35,4.467-5.45,9c0,0.733,0.101,2.467,0.301,5.2c0.133,1.866,0.066,3.167-0.2,3.9
		c-0.467-0.301-1.417-1.051-2.851-2.25C148.066,78.533,147.217,77.983,146.55,77.75z M143.85,77.6c0.4-0.267,0.9-0.899,1.5-1.899
		c0.467,1.033,0.817,1.717,1.051,2.05C145.533,77.583,144.684,77.533,143.85,77.6z M135.95,76.3l0.35-0.45
		c0.934-0.233,2.05-0.383,3.351-0.449c1.233-0.067,2.233-0.034,3,0.1c0.133,0.6,0.216,1.116,0.25,1.55c-0.067,0.3,0,0.5,0.199,0.601
		c-2.433,0.333-4.767,1.583-7,3.75c-3.133,3.866-5.466,6.316-7,7.35c-0.366,0.233-1.899,1.6-4.6,4.1
		c-1.667,1.534-3.366,2.45-5.1,2.75c-0.034,0-1.867,0.017-5.5,0.051c-0.634,0-1.25,0.033-1.851,0.1
		c0.167-1.7,0.617-3.283,1.351-4.75c0.333-0.7,0.866-1.566,1.6-2.6c0.767-1.067,1.983-2.017,3.65-2.851c1.366-0.666,2.366-1,3-1
		c0.633,0,1.35,0.834,2.149,2.5c0.767,1.634,1.417,2.45,1.95,2.45c2.233,0,5.7-3.967,10.4-11.9c0-0.399-0.034-0.699-0.101-0.899
		S135.95,76.366,135.95,76.3z M97.2,93.25l2.25,6.45c-0.934,0-1.817,0.066-2.65,0.2l0.25-6.801L97.2,93.25z M86.5,103.6l4.05-5.699
		L90.5,99.6c0,2.034,0.1,3.75,0.3,5.15c-2.1,4.5-3.7,7.4-4.8,8.7c-1.533,1.833-4.733,3.533-9.6,5.1c0.5-0.899,0.75-2.166,0.75-3.8
		l-0.05-2.2c1.667-1.1,3.233-2.283,4.7-3.55l2.15,1.6C85.417,109.333,86.267,107,86.5,103.6z M65.45,126.2
		c0.367-0.767,1-2.733,1.9-5.9c0.433-1.666,1.267-2.5,2.5-2.5c0.033,0,0.717,0.367,2.05,1.101c1.333,0.733,2.117,1.1,2.35,1.1
		c0.2,0,0.383-0.017,0.55-0.05c-1.566,1.333-3.017,2.35-4.35,3.05C68.517,124,66.85,125.066,65.45,126.2z M49.75,121.4l0.65-1
		l8.55-1.301c0.367,0.801,0.767,2.25,1.2,4.351c0.4,2.033,0.6,3.483,0.6,4.35c0,3.167-0.1,5.566-0.3,7.2
		c-0.2,1.733-0.55,3.15-1.05,4.25c-1-0.333-1.75-0.866-2.25-1.6c-0.367-1.5-1.95-3.284-4.75-5.351c-2.533-1.833-4.2-2.767-5-2.8
		C47.933,126.8,48.717,124.1,49.75,121.4z M43.3,126.3c0.5,1.233,0.9,2.584,1.2,4.05c-4.567,3.367-7.65,5.567-9.25,6.601
		c-2.533,1.6-4.567,2.233-6.1,1.899c0.867-0.033,1.75-0.133,2.65-0.3c-0.267-2.8-0.333-5.166-0.2-7.1
		c0.2-3.733,1.367-5.601,3.5-5.601c0.733,0,1.367,0.417,1.9,1.25c0.767,1.2,1.283,1.917,1.55,2.15l0.1-0.15
		c0.4-2,0.7-3.216,0.9-3.649C40.817,125.65,42.067,125.934,43.3,126.3z M14.75,130.75c3.667-0.434,6.15-0.267,7.45,0.5
		c0.9,0.533,1.316,1.55,1.25,3.05c-0.567-0.8-2.034-1.583-4.4-2.35C16.583,131.283,15.15,130.884,14.75,130.75z"/>
	<path style="fill-rule:evenodd;clip-rule:evenodd;fill:#D2C8BA;" d="M116.55,55.9c1.934-0.833,3.101-1.6,3.5-2.3
		c0.634-0.867,1.566-1.233,2.8-1.1c2.101,0.167,4.134,0,6.101-0.5c0.8-0.2,1.616-0.8,2.45-1.8c1.733-2.067,2.633-3.133,2.699-3.2
		l4.101-2.45c0.233-0.066,0.883-0.183,1.95-0.35c1.433-0.2,2.75-0.284,3.949-0.25h0.15c-0.1,0.033-0.167,0.05-0.2,0.05
		c-0.033,0.033,0.15,0.05,0.55,0.05c0.233,0,1.15-0.25,2.75-0.75c2-0.533,4.101-0.8,6.301-0.8c3.433,0,8.566,0.483,15.399,1.45
		c6.834,0.966,10.5,1.45,11,1.45c3.867,0,6.483-0.217,7.851-0.65c1.6-0.5,3.949-1.967,7.05-4.4c2.066-1.6,3.5-2.617,4.3-3.05
		c1.9-0.933,3.733-1.117,5.5-0.55c-0.667,0.233-1.467,0.667-2.4,1.3c-1.466,0.967-2.533,2.017-3.199,3.15
		c-0.434,0.566-1.217,1.316-2.351,2.25c-1.066,0.933-1.75,1.433-2.05,1.5c-1.366,0.433-2.4,0.75-3.1,0.95
		c-1.267,0.367-2.5,0.567-3.7,0.6c-3.867,0.133-7.867,0.133-12,0l-0.4-0.05l-1.25-0.15c-2.267-0.833-4.033-1.45-5.3-1.85
		c-2.2-0.667-4.583-0.9-7.15-0.7c-2.733,0.1-5.066,0.217-7,0.35c-3.733,0.2-5.6,0.45-5.6,0.75c0,0.333,0.2,0.35,0.6,0.05
		c0.4-0.3,0.601-0.283,0.601,0.05c0,0.4-0.917,0.583-2.75,0.55c-2-0.167-3.167-0.25-3.5-0.25c-0.566,0-1.267,0.167-2.101,0.5
		c-2.033,0.833-3.149,1.283-3.35,1.35c-0.434,0.133-1.3,0.533-2.6,1.2c-1.134,0.567-1.884,0.967-2.25,1.2l-0.601,0.45
		c-0.733,0.833-1.649,1.533-2.75,2.1c-1.233,0.6-2.684,1.034-4.35,1.3c-0.033,0-0.084,0.017-0.15,0.05H126c-0.033,0-0.066,0-0.1,0
		c-3.4,0.467-5.367,0.967-5.9,1.5l-0.4,0.3c-0.433,0.267-1.517,1.117-3.25,2.55c-1.699,1.433-2.633,2.217-2.8,2.35
		c-0.2,0.1-0.75,0.3-1.649,0.6c-0.967,0.333-1.567,0.517-1.801,0.55c0.233-0.3,1.317-1.233,3.25-2.8
		C115.217,56.883,116.283,56.033,116.55,55.9z M114.6,61.7c0.667-0.4,1.733-0.983,3.2-1.75c1.267-0.8,2.233-1.85,2.9-3.15l0.2-0.15
		l8.55-0.7c-0.634,0.466-1.517,0.767-2.65,0.9c-1.899,0.233-3.1,0.417-3.6,0.55c-0.867,0.2-1.934,0.917-3.2,2.15
		c-1.366,1.367-2.267,2.15-2.7,2.35c-0.467,0.167-0.983,0.3-1.55,0.4l-1.3,0.05l-0.851-0.1L114.6,61.7z M111.05,82.25
		c7.334-1.1,12.084-1.967,14.25-2.6c5.601-1.634,9.25-4.134,10.95-7.5c1.934-1.767,3.283-3.2,4.05-4.3
		c0.566-0.833,0.851-1.567,0.851-2.2c0-0.1-0.367-0.833-1.101-2.2c-0.8-1.567-1.566-2.934-2.3-4.1l-1.15-2.15
		c0.667,0.133,1.317,0.383,1.95,0.75c0.367,0.2,0.834,0.5,1.4,0.9c1.967,1.5,3.2,2.75,3.7,3.75c0.267,0.566,0.399,1.55,0.399,2.95
		c0,2.6-0.566,4.634-1.7,6.101c-1.1,1.433-3.116,2.833-6.05,4.199l-0.35,0.45c-0.767,1.233-3.617,3.084-8.55,5.55
		c-5.801,2.867-10.5,4.101-14.101,3.7c-1.066,0.334-2.934,1.417-5.6,3.25c-3.267,2.233-4.983,3.4-5.15,3.5
		c-0.1-1.233-0.65-1.967-1.65-2.2c-0.733-0.166-3.433-0.316-8.1-0.449c-3.2,0-5.583-0.284-7.15-0.851
		c-0.833-0.399-1.55-0.684-2.15-0.85c-1.033-0.3-2.483-0.4-4.35-0.3c-4.233-0.567-6.8-1.017-7.7-1.351L71,85.95
		c0.267-0.134,0.75-0.25,1.45-0.351c0.733-0.133,1.35-0.199,1.85-0.199c2.4,0,5.233,0.55,8.5,1.649
		c1.633,0.566,3.117,1.117,4.45,1.65c5.1,0,10.4-1,15.9-3C105.95,84.7,108.583,83.55,111.05,82.25z M90.55,97.9L86.5,103.6
		c-1.733,2.267-3.3,4.067-4.7,5.4c-1.466,1.267-3.033,2.45-4.7,3.55c-1.733,1.066-4.817,2.517-9.25,4.351l-1.05,0.35l-1.65,0.45
		l-2,0.55l-1.35,0.3l-2.85,0.55L50.4,120.4l-1.05,0.149c-0.9,0.134-9.9,2.017-27,5.65c-2.833,0.767-4.783,1.267-5.85,1.5
		c-0.5,0.066-0.867,0.133-1.1,0.2l-0.95,0.05c-0.5,0-1.05-0.017-1.65-0.05c-0.167,0-0.316,0-0.45,0l-0.95-0.15l5.4-1.8l4.6-1.351
		c0.6-0.166,4.033-1.133,10.3-2.899c1.267-0.334,2.733-0.767,4.4-1.3l14.85-2.45c1.267-0.134,3.733-0.5,7.4-1.101
		c4.833-0.833,8.283-1.566,10.35-2.199c2.733-0.7,6.9-4.233,12.5-10.601c2.966-3.333,6.433-7.383,10.4-12.149
		c4.566,0.767,6.383,1.166,5.45,1.199H97c-1.767,0-3.283,0.467-4.55,1.4C91.183,95.434,90.55,96.566,90.55,97.9z M132.85,58.5
		c0,0.167-0.083,0.3-0.25,0.4c-0.199,0.1-0.416,0.15-0.649,0.15s-0.434-0.05-0.601-0.15c-0.199-0.1-0.3-0.233-0.3-0.4
		s0.101-0.3,0.3-0.4c0.167-0.1,0.367-0.15,0.601-0.15S132.4,58,132.6,58.1C132.767,58.2,132.85,58.333,132.85,58.5z"/>
	<path style="fill-rule:evenodd;clip-rule:evenodd;fill:#635B52;" d="M130.55,52.05c1.2-0.433,2.084-0.85,2.65-1.25l0.95-0.75
		c0.1,1.5,0.416,2.667,0.949,3.5c0.733,1.133,1.95,1.767,3.65,1.9c0.066-0.633,0.1-1.284,0.1-1.95l-0.1-6.4
		c0.2-0.067,1.316-0.517,3.35-1.35c0.834-0.333,1.534-0.5,2.101-0.5c0.333,0,1.5,0.083,3.5,0.25c1.833,0.033,2.75-0.15,2.75-0.55
		c0-0.333-0.2-0.35-0.601-0.05c-0.399,0.3-0.6,0.283-0.6-0.05c0-0.3,1.866-0.55,5.6-0.75c1.934-0.133,4.267-0.25,7-0.35
		c-1.399,3.8-2.216,5.717-2.449,5.75c-1.167-0.6-2.917-0.9-5.25-0.9c-2.167,0-4.117,0.967-5.851,2.9
		c-1.666,1.867-2.5,3.917-2.5,6.15c0,0.8,0.084,1.533,0.25,2.2c0.033,0.167,0.3,2.483,0.8,6.95c0.4,4.9,0.301,8.55-0.3,10.95H146.4
		c-0.233-0.333-0.584-1.017-1.051-2.05c-0.399-0.834-0.75-1.834-1.05-3c-0.233-0.934-0.35-1.566-0.35-1.9
		c0-0.333,0.133-1.35,0.399-3.05c0.267-1.733,0.4-2.767,0.4-3.1c0-1.4-0.517-2.667-1.55-3.8c-0.9-0.967-1.983-1.633-3.25-2
		c-0.566-0.4-1.033-0.7-1.4-0.9c-0.633-0.367-1.283-0.617-1.95-0.75c-1.333-0.067-2.267-0.217-2.8-0.45c-1.3-1-3.416-1.5-6.35-1.5
		c-3.334,0-5.517,0.467-6.55,1.4l-0.2,0.15c-0.334,0.4-0.816,0.8-1.45,1.2c-1.267,0.767-3.167,1.467-5.7,2.1
		c0.167-0.133,1.101-0.917,2.8-2.35c1.733-1.433,2.817-2.283,3.25-2.55l0.351-0.2c0.133-0.067,2.149-0.6,6.05-1.6h0.05
		c0.066-0.033,0.117-0.05,0.15-0.05C127.866,53.083,129.316,52.65,130.55,52.05z M86.2,90.7l0.5,0.3c1.367,0.2,2.933,0.283,4.7,0.25
		c1.733-0.033,3.117-0.233,4.15-0.6C90.85,90.517,87.733,90.533,86.2,90.7z M101.25,99.6c-1-1.933-2.35-4.05-4.05-6.35l-0.15-0.15
		c0.934-0.033-0.883-0.433-5.45-1.199c-0.367,0.033-0.867,0.149-1.5,0.35c-0.5,0.134-0.817,0.233-0.95,0.3
		c-1.133,0.233-2.316-0.133-3.55-1.1c-2.233-1.767-3.583-2.767-4.05-3c-1.4-0.4-4.2-0.65-8.4-0.75l6-0.05
		c1.867-0.101,3.317,0,4.35,0.3c0.6,0.166,1.317,0.45,2.15,0.85c0.6,0.334,1.017,0.667,1.25,1c0.267,0.167,1.167,0.25,2.7,0.25
		c0.667,0,1.733-0.133,3.2-0.399c4.667,0.133,7.367,0.283,8.1,0.449c1,0.233,1.55,0.967,1.65,2.2c0.167-0.1,1.883-1.267,5.15-3.5
		c2.666-1.833,4.533-2.916,5.6-3.25c-0.333,0.601-1.283,2.684-2.85,6.25c-1,2.267-1.816,3.4-2.45,3.4
		c-0.267,0-0.783-0.483-1.55-1.45c-0.767-1-1.3-1.5-1.6-1.5c-0.833,0-1.533,0.983-2.1,2.95c-0.333,1.033-0.75,2.5-1.25,4.399H101.25
		z M144.05,47.75c-0.233,0.3-0.35,0.667-0.35,1.1c0,0.433,0.116,0.8,0.35,1.1c0.233,0.3,0.517,0.45,0.851,0.45
		c0.333,0,0.616-0.15,0.85-0.45c0.233-0.3,0.35-0.667,0.35-1.1c0-0.434-0.116-0.8-0.35-1.1s-0.517-0.45-0.85-0.45
		C144.566,47.3,144.283,47.45,144.05,47.75z M142.45,47.65h-0.7L141.7,50c0,0.667,0.05,1.45,0.149,2.35L142.15,52l0.3-1.15V47.65z
		 M63.15,118.25l2-0.55l0.7-0.15l0.45-0.149c-0.367,0.833-0.767,1.833-1.2,3c-0.767,2-1.283,3.517-1.55,4.55l-0.15,0.8
		c0.067-2.533-0.133-5-0.6-7.4L63.15,118.25z M49.75,121.4c-0.567,1.333-1.083,2.466-1.55,3.399c-0.9,1.8-1.667,2.7-2.3,2.7
		c-0.4,0-0.8-0.134-1.2-0.4c-0.767-0.466-1.233-0.733-1.4-0.8c-1.233-0.366-2.483-0.649-3.75-0.85c-4.433-0.134-7.283,0.3-8.55,1.3
		c-0.933,0.733-1.65,2.65-2.15,5.75c-0.867-1.434-1.483-2.384-1.85-2.85c-1.433-1.767-2.983-2.917-4.65-3.45
		c17.1-3.634,26.1-5.517,27-5.65l1.05-0.149L49.75,121.4z"/>
	<path style="fill-rule:evenodd;clip-rule:evenodd;fill:#BBB2A5;" d="M27.2,74.7c4.767-0.066,7.3-0.084,7.6-0.05
		c0.767,0.633,2.05,1.05,3.85,1.25c1.1,0.133,2.983,0.267,5.65,0.399l0.7-1.05l-0.6,0.95c-0.2,0.467-0.633,1.116-1.3,1.95
		c-1.733,0.566-2.817,0.883-3.25,0.949c-2.133,0.2-4.717,0.084-7.75-0.35c-1.267-0.434-2.483-0.967-3.65-1.6
		c-1.034-0.567-1.55-0.934-1.55-1.101c0-0.399,0.05-0.75,0.15-1.05L27.2,74.7z M120.25,28.7c-1.733-1.4-2.7-2.25-2.9-2.55
		c-0.8,1.7-1.333,2.6-1.6,2.7c1.533,0.267,3.15,0.316,4.85,0.15c1,0.933,1.617,1.9,1.851,2.9c-1.334-0.133-2.834-0.2-4.5-0.2
		c-2.533,0.133-4.566,0.2-6.101,0.2l-6.2-1.45l-1.3-0.65c0.333-0.066,1-0.15,2-0.25c0.833-0.066,1.467-0.167,1.9-0.3l-2.25-0.1
		l-4.85-0.75l-3.8-0.5l2.45,0.2c-1.566-1.3-2.883-2.167-3.95-2.6c-0.434-0.167-0.65-0.467-0.65-0.9c0-0.4,0.167-0.717,0.5-0.95
		c0.233-0.2,0.85-0.667,1.85-1.4c0.733-0.167,1.617-0.4,2.65-0.7c1.3-0.333,3.35-0.716,6.15-1.15c3.833,0,7.117,0.817,9.85,2.45
		C118.9,24.45,120.25,26.4,120.25,28.7z M115.05,23.25c-2.733-0.567-4.816-0.933-6.25-1.1l-1.3-0.05c1.8,0.633,2.934,1.15,3.4,1.55
		c0.699,0.633,1.816,1.333,3.35,2.1C114.783,24.817,115.05,23.983,115.05,23.25z M83.75,59.55c-1.167,0-2.15-0.316-2.95-0.95
		c-0.833-0.667-1.25-1.45-1.25-2.35c1.133-0.367,2.4-0.85,3.8-1.45c1.1-0.367,2.2-0.55,3.3-0.55c0.4,0,0.967,0.25,1.7,0.75
		c0.4,0.3,0.983,0.75,1.75,1.35h0.05c0.8,0.367,4.467,0.833,11,1.4v0.2c-0.014,0.411-0.23,0.794-0.65,1.15
		c-0.433,0.367-0.967,0.55-1.6,0.55L97.5,60l-2.85,0.4c-1.867,0.167-3.65,0.217-5.35,0.15C87.967,60.383,87.2,60.2,87,60
		c0.333-0.467,0.5-0.717,0.5-0.75C85.8,59.283,84.55,59.383,83.75,59.55z M80.25,66.55c0.6,0.034,1.45,0.017,2.55-0.05l0.85,0.75
		c-1.1,0-2.25-0.117-3.45-0.35c-1.267-0.233-2.184-0.533-2.75-0.9l0.7,0.2L80.25,66.55z M75.8,57.55l-1,0.65h-0.05L75.8,57.55z"/>
</g>
</svg>
