<?xml version="1.0" encoding="iso-8859-1"?>
<!-- Generator: Adobe Illustrator 15.1.0, SVG Export Plug-In . SVG Version: 6.00 Build 0)  -->
<!DOCTYPE svg PUBLIC "-//W3C//DTD SVG 1.1//EN" "http://www.w3.org/Graphics/SVG/1.1/DTD/svg11.dtd">
<svg version="1.1" id="Layer_1" xmlns="http://www.w3.org/2000/svg" xmlns:xlink="http://www.w3.org/1999/xlink" x="0px" y="0px"
	 width="191.75px" height="252.6px" viewBox="0 0 191.75 252.6" style="enable-background:new 0 0 191.75 252.6;"
	 xml:space="preserve">
<g>
	<path style="fill-rule:evenodd;clip-rule:evenodd;fill:#7C7367;" d="M187.15,22.35l-0.7,3.75c-0.267,0.5-0.884,1.4-1.851,2.7
		c-0.767,1.034-1.35,2.034-1.75,3c-1.166,2.9-1.6,7.883-1.3,14.95c-0.833-0.067-1.583-0.1-2.25-0.1c-0.967,0-1.566,0.233-1.8,0.7
		c-0.1,0.2-0.15,0.7-0.15,1.5c0,0.667,0.051,2.3,0.15,4.9l-1-0.9c0.167-0.333,0.3-0.8,0.4-1.4c0.1-0.6,0.116-1.1,0.05-1.5v-0.2
		c-0.7-2.333-2.066-3.617-4.101-3.85c-1.633-0.167-2.449-1.75-2.449-4.75c0-0.667,0.566-1.717,1.699-3.15
		c1.2-1.5,1.884-2.917,2.051-4.25c0.233-1.7,0.35-5.183,0.35-10.45c0.1-8.466,0.3-14.333,0.6-17.6c0.034,11.6,0.034,19.35,0,23.25
		c0,0.833,0.284,1.75,0.851,2.75c1.733-1.833,3-3.784,3.8-5.85c0.866-2.333,1.3-5.184,1.3-8.55l-0.6-16.1c2-0.4,5.3-0.8,9.899-1.2
		l-0.25,0.4c-0.133,0.267-0.216,0.567-0.25,0.9c0.034-0.267,0.117-0.4,0.25-0.4c0.101,0,0.184,0.033,0.25,0.1l-0.1,2.4l-3.15-1.7
		L187.15,22.35z M160.95,93.05c0,0.467-0.3,1.467-0.9,3c-0.6,2.233-0.883,5.317-0.85,9.25l-0.101,1.3
		c0.101-0.4,0.384-1.233,0.851-2.5c0.566-1.467,1-2.35,1.3-2.65l0.25-0.15c0.1,0.467,0.267,2.117,0.5,4.95
		c0.233,2.633,0.45,4.183,0.65,4.65l0.35,0.55l0.45-2.1c3-1.533,5.666,0.066,8,4.8c2.467,5,3.033,11.05,1.7,18.15l-0.101,2.05
		l0.851-6v-8.1c0-7-0.417-11.95-1.25-14.85c-0.867-2.867-1.301-6.316-1.301-10.35l0.25-2.5l2.301-3.2h0.05
		c0.467-0.2,0.983-0.533,1.55-1c0.667-0.333,1.616-0.5,2.85-0.5c2.5,0,4.351,3.5,5.551,10.5L184,87.3c0-3.667-0.35-7.216-1.05-10.65
		c-0.7-3.467-1.05-7.65-1.05-12.55c0-5.4,1.383-17.133,4.149-35.2l1.3-7.5c1.2-6.033,1.95-9.983,2.25-11.85l0.051,4.15
		c0,9.267-0.284,15.483-0.851,18.65c-0.566,3.1-0.85,7.833-0.85,14.2c-0.4,5.967-0.733,15.3-1,28c-0.134,5.434-0.233,10.9-0.3,16.4
		c-0.101,4.433-0.434,10.333-1,17.7c0,2.633,0,4.117,0,4.45c-0.067,1.4-0.217,2.433-0.45,3.1l-0.101-1.1c-0.1-0.4-0.333-1.4-0.699-3
		c-0.167-0.733-0.317-1.7-0.45-2.9l-0.101-4.05c0-3.967-0.133-6.816-0.399-8.55c-0.267-1.8-0.717-2.7-1.351-2.7
		c-0.866,0-2.3,0.383-4.3,1.15c-2.399,0.934-3.6,1.85-3.6,2.75c0,0.434,0.416,2,1.25,4.7c0.8,2.7,1.2,5.967,1.2,9.8
		c0,2.567-0.284,5.483-0.851,8.75c-0.6,3.267-0.899,5.833-0.899,7.7c0,1.967,0.316,3.134,0.949,3.5c0.4,0.2,1.084,0.333,2.051,0.4
		c1.933,0.699,2.883,1.283,2.85,1.75c-0.066,0.466-0.566,0.866-1.5,1.199c-0.934,0.301-2.033,0.45-3.3,0.45h-1.7
		c-1.4,0.066-2.417,0.483-3.05,1.25c-0.367,0.8-0.566,1.233-0.601,1.3c0.167-12.8,0.184-20.083,0.051-21.85
		c-0.134-1.433-0.367-2.333-0.7-2.7c-0.2-0.267-0.667-0.4-1.4-0.4c-1.7,0-3.017,2.267-3.95,6.8c-0.767,3.633-1.083,7.133-0.949,10.5
		c0.3,6.7,0.133,11.916-0.5,15.649c-0.801,4.5-1.2,10-1.2,16.5c0,27.2-0.434,41.767-1.3,43.7c-0.4,0-0.784-0.116-1.15-0.35
		c-0.267-0.267-0.616-0.8-1.05-1.601c-0.5-0.899-0.917-1.55-1.25-1.949l-0.4,0.199c-0.666,0.767-1.55,3.717-2.649,8.851
		c-1.601,8.166-2.467,13.399-2.601,15.7l-0.35,0.05c-0.434-0.434-0.75-0.65-0.95-0.65c-0.3-3.3-0.45-5.3-0.45-6
		c0-2.934-0.083-4.467-0.25-4.6c-0.5,0.166-1.083,0-1.75-0.5l-0.35-11.351c0.8-2.633,1.533-5.416,2.2-8.35
		c1.267-5.634,1.683-9.467,1.25-11.5c0.066,0.267,0.233,0.767,0.5,1.5c0.433,1.333,0.666,2.434,0.699,3.3
		c0,0.601-0.3,1.566-0.899,2.9c-0.233,1.066,0.434,1.767,2,2.1c0.1-0.033,0.816-0.184,2.149-0.45c0.534-0.1,0.867-0.466,1-1.1
		c0.2-0.767,0.301-5.983,0.301-15.65c0-4.199-0.217-10-0.65-17.399c-0.434-6.634-0.65-10.2-0.65-10.7c0-0.467,0.084-1.6,0.25-3.4
		c0.167-1.699,0.301-2.816,0.4-3.35v-0.05l2.6-6.25l-0.199-1.15c-4.7,6.566-9.5,15.816-14.4,27.75c-2.167,5.3-3.634,8.7-4.4,10.2
		c-1.399,2.8-2.699,4.384-3.899,4.75l-0.851-0.05c0.067-0.967,0.467-2.816,1.2-5.55c0.566-2.233,0.851-5.034,0.851-8.4
		c0-1.066-0.084-2.15-0.25-3.25c-0.667-1-1-1.833-1-2.5c0.6-0.7,1.233-1.7,1.899-3c0.967-1.9,1.667-4.05,2.101-6.45
		c-1.267,9.934-1.9,15.533-1.9,16.8c0,1.067,0.25,1.9,0.75,2.5c0.033,0.067,0.35,0.351,0.95,0.851
		c2.733-2.033,4.583-5.566,5.55-10.601c0.1-0.5,0.417-3.649,0.95-9.449c0.8-9.267,1.416-14.851,1.85-16.75
		c0.3-1.334,1.4-3.017,3.3-5.05c1.801-1.934,2.7-3.017,2.7-3.25c-0.633-0.233-1.267-0.617-1.899-1.15
		c-1.233-1.1-1.767-2.9-1.601-5.4c0.267-2.167,0.351-4.1,0.25-5.8c-0.133-1.967-1.733-2.95-4.8-2.95v-4.35l1.05-8.65
		c0-0.5-0.283-2.966-0.85-7.4c-0.601-4.4-0.9-6.683-0.9-6.85c0.134-7.733,0.167-12.233,0.101-13.5
		c-0.733-15.3-1.101-28.867-1.101-40.7c0-0.633,0.066-2.15,0.2-4.55c0.134-2.633,0.25-4.517,0.35-5.65c0.4,1,0.733,2.283,1,3.85
		c0.267,1.733,0.767,3.617,1.5,5.65c-0.199,3.267-0.433,6.8-0.699,10.6c0,13.567,1.133,26.267,3.399,38.1
		c0.033-0.467,0.351-2.533,0.95-6.2c0.333-2.1,0.5-4.867,0.5-8.3c0-0.467-0.45-4.883-1.35-13.25c-1-9.667-1.601-15.517-1.801-17.55
		c0.267,0.833,0.584,2.417,0.95,4.75c0.233,1.5,0.684,4.534,1.351,9.1c1.133,9.233,1.716,14.2,1.75,14.9l1.05,18.1
		c0.2,3.367,0.166,6.467-0.101,9.3c-0.033,2.333-0.5,4.9-1.399,7.7c-0.7,2.333-1.367,3.917-2,4.75c0.434-0.367,0.95-0.8,1.55-1.3
		c0.533-0.467,1.066-1.017,1.6-1.65c0.167-0.2,0.817-0.8,1.95-1.8c1.033-0.967,1.783-1.633,2.25-2
		c0.267-0.467,0.584-0.816,0.95-1.05c0.366-0.267,0.767-0.383,1.2-0.35c0.399,0.033,0.767,0.217,1.1,0.55
		c0.3,0.3,0.5,0.684,0.601,1.15C161,92.167,161.017,92.617,160.95,93.05z M141.85,217.5c-0.633,0.7-1.166,1.384-1.6,2.05l-0.5,0.9
		l0.7-2.65c0.5-1.7,0.916-3.434,1.25-5.2c0.533-1.366,1.083-2.166,1.649-2.399c0.567-0.267,1.117-0.117,1.65,0.45
		c0.5,0.533,0.816,1.316,0.95,2.35c0.133,1,0.133,1.733,0,2.2C144.85,215,143.483,215.767,141.85,217.5z M137.25,250.7l-2.3,0.2
		c-0.033-2.7-0.117-6.45-0.25-11.25c-0.167-4.801-0.267-7.9-0.3-9.301l-5.5,5.5c0.1,2.5-0.217,4.301-0.95,5.4
		c-0.767,1.134-1.15,2.333-1.15,3.6c0,0.334,0.167,1.117,0.5,2.351c0.3,1.233,0.45,2.017,0.45,2.35c0,0.434-0.083,0.767-0.25,1
		c-0.066,0.066-0.25,0.2-0.55,0.4c-10.233-0.667-16.467-1.084-18.7-1.25h1.5c3.366,0.066,5.6,0,6.7-0.2
		c1.733-0.267,3.217-1,4.45-2.2c0.933-1.7,1.399-3.467,1.399-5.3c-0.2-3.1-0.25-6.316-0.149-9.65L121.8,234.4
		c0.033,1.933-0.184,3.3-0.649,4.1c-0.4,0.667-1.284,1.333-2.65,2l0.35-6.1c0.5-0.733,1.017-1.95,1.551-3.65
		c4.3-2.4,6.966-5.017,8-7.85c0.833-2.301,1.25-7.317,1.25-15.051c0-0.399-0.284-0.733-0.851-1c-0.666-0.267-1.399-0.267-2.2,0
		l0.15-0.55l0.45-1.399c1.333-0.101,2.316,0.283,2.95,1.149c0.833,1.101,1.25,3.184,1.25,6.25c0,7.367-1.5,13.334-4.5,17.9
		l1.35-0.55c2.767-0.801,4.616-3.684,5.55-8.65l-0.05,0.95c0,1.6,0.533,2.866,1.6,3.8c1.2,1.033,1.867,1.85,2,2.45
		c0.601,2.434,0.767,7.967,0.5,16.6c0,1.9-0.083,3.767-0.25,5.601L137.25,250.7z M93.75,208.65c-3.567-6.634-5.783-11.034-6.65-13.2
		c1.066-0.033,1.983-0.217,2.75-0.55l-0.5-0.7v-0.05L89.3,194.1l-0.1-0.149l-0.05-0.05v-0.025l-0.1-0.125
		c0.4-0.3,1.583-0.634,3.55-1c1.533-0.3,2.417-0.95,2.65-1.95c0.134-0.566,0.116-1.55-0.05-2.95c-0.233-1.6-0.383-2.699-0.45-3.3
		c-0.033-0.133-0.017-0.267,0.05-0.399c0.1-0.267,0.351-0.4,0.75-0.4c1.367,0,2.967,0.434,4.8,1.3c1.834,0.867,2.817,1.3,2.95,1.3
		c1.967,0,2.95-1.399,2.95-4.199c0.033-5.867,0.25-9.817,0.65-11.851c0.733,0.033,1.35-0.066,1.85-0.3
		c0.167-0.066,0.917-0.483,2.25-1.25l0.2,1.25c-1.566,8.333-3.117,15.316-4.65,20.95l-0.1-1.55c0.033,0.933,0.116,2.066,0.25,3.399
		v-0.5c0.467,0.834,1.45,1.851,2.95,3.05c0.733,0.601,1.1,2.067,1.1,4.4c0,0.667-0.033,2.184-0.1,4.55
		c-0.233-0.633-0.75-1.833-1.551-3.6c-0.433-0.967-1.233-3.601-2.399-7.9c1.267,13.066,2.7,21.634,4.3,25.7
		c0.4,0.967,0.866,1.934,1.4,2.9c0.333,0.8,0.5,2,0.5,3.6c0,0.866-0.233,1.483-0.7,1.85c-0.533,0.233-0.851,0.384-0.95,0.45
		c-0.1-1.566-0.566-2.833-1.4-3.8c-0.833-0.9-1.25-1.767-1.25-2.6c-0.033-1.233-0.283-3.534-0.75-6.9
		c-0.566-3.8-0.949-6.4-1.149-7.8c-0.634-4.767-1.233-7.867-1.8-9.3c-0.9-1.801-1.851-4.017-2.851-6.65
		c-3.033,1.733-4.8,2.866-5.3,3.4c-0.467,0.5-0.7,2.166-0.7,5c0,3.3,0.334,5.333,1,6.1c1.533,1.9,2.75,3.917,3.65,6.05l-0.45,0.15
		c-0.233-0.033-0.566-0.15-1-0.351c-0.434-0.166-0.684-0.283-0.75-0.35c0.6,1.134,1.684,3.583,3.25,7.35
		c1.634,3.867,2.55,6.25,2.75,7.15l0.4,1c0.399,0.634,0.949,1.35,1.649,2.15c0.101,0.1,0.2,0.216,0.3,0.35
		c0.5,0.7,1.034,1.6,1.601,2.7l0.1,0.149c0.233,0.667,0.533,1.334,0.9,2l0.35,0.65c0.533,0.533,1.5,1.15,2.9,1.85
		c0,2.667-0.167,4.467-0.5,5.4c-0.5,0.434-1.4,0.866-2.7,1.3c-1.4,0.467-2.616,0.7-3.65,0.7c-1.733,0-3.267-0.15-4.6-0.45
		c-1.233-0.267-2.083-0.6-2.55-1l-0.25-0.35c0.8-0.267,2.517-0.45,5.149-0.55c0.467-0.034,0.95-0.067,1.45-0.101
		c0.834-2.267,0.5-5.8-1-10.6c-1.467-4.667-3.017-7.533-4.649-8.601c-1.101-0.5-1.717-1.116-1.851-1.85
		c-0.033-0.233,0.033-1.366,0.2-3.4c0.1-1.1-0.483-2.6-1.75-4.5C94.633,209.833,93.883,208.85,93.75,208.65z M80.3,151.2l-0.45,0.35
		l-0.4,0.45c1,0.1,2.8,0.2,5.4,0.3c2.2,0.101,3.667,0.15,4.4,0.15c6.366,0,9.55-9.417,9.55-28.25c-0.434-6.967-0.767-12.467-1-16.5
		l-2.2,4.1c-0.933-0.267-1.766-1.066-2.5-2.4c-0.667-0.833-2.617-1.4-5.85-1.7c-1.6-0.133-5.05-0.25-10.35-0.35L76,107.2
		c2.267,0.333,5.533-0.217,9.8-1.65c3.733-1.3,6.184-2.45,7.35-3.45c-0.867,1.233-1.566,2.117-2.1,2.65
		c-0.466,0.467-1.133,0.983-2,1.55l-0.7,0.3l-0.8,0.1c4.067,0.566,6.65,0.017,7.75-1.65c0.566-0.9,0.851-3.1,0.851-6.6
		c0-2.833-0.034-4.583-0.101-5.25c-0.2-1.7-0.8-4.684-1.8-8.95l-0.1-1.2v0.25l0.05,1.35c-0.233-3.633-0.483-6.033-0.75-7.2
		c-0.233-0.967-0.35-2.15-0.35-3.55c0-3.133,0.2-5.767,0.6-7.9c0.466-2.333,0.716-4.4,0.75-6.2c0-0.167-0.133-3.033-0.4-8.6
		c-0.133-2.534,0.434-9.333,1.7-20.4V31c-0.267,6.067,0.2,12.733,1.4,20c1.3,7.833,1.949,11.983,1.949,12.45
		c0.034,2.633,0.067,8.367,0.101,17.2c0.3,17.233,0.383,30.733,0.25,40.5l-0.101,3.25c0,0.567,0.084,1.983,0.25,4.25
		c0.167,2.433,0.317,4.199,0.45,5.3l0.351,7.899l-0.95,8.301c-0.566,2.666-1.517,4.5-2.851,5.5
		c-0.833,0.633-2.133,1.033-3.899,1.199c-1.833,0.134-3.067,0.4-3.7,0.801c-1.2,0.733-1.967,2.233-2.3,4.5L95,178.1
		c-1.233-0.8-2.167-2.316-2.8-4.55l-0.7-1.45c0,0.167,0.3,1.45,0.9,3.851c0.567,2.3,0.783,3.783,0.65,4.45
		c-2.667-2-5.25-4.567-7.75-7.7c-1.6-2.033-2.9-4.017-3.9-5.95c0-0.1-0.017-0.184-0.05-0.25l-0.2-0.35v0.05
		c-1.066-2.2-1.733-4.351-2-6.45v-0.2l-0.1-0.85c-0.033-0.566-0.05-1.117-0.05-1.65c-0.233-0.899-0.767-2.467-1.6-4.7
		c-0.9-2.366-1.6-4.033-2.1-5c-2.4-3.699-4.033-6.3-4.9-7.8c-1.433-2.467-2.05-5.25-1.85-8.35l-0.4-18.4
		c0.633,4.133,1.15,7.483,1.55,10.05c-0.034,0.1-0.05,0.2-0.05,0.3c0,1.1,0.133,1.783,0.4,2.05v0.05c0.267,1.6,0.45,2.684,0.55,3.25
		l0.05,0.35c2.4,6.434,4.1,10.684,5.1,12.75c0.6,1.267,1.633,3.4,3.1,6.4L80.3,151.2z M72.9,178.05c-1.633-0.967-3.283-2.2-4.95-3.7
		c-1.9-1.666-3.6-3-5.1-4l0.45,0.801c0.7,0.866,2.467,4.283,5.3,10.25c0.533,1,1.65,1.8,3.35,2.399c1.433,0.5,2.15,1.233,2.15,2.2
		c0,0.267-0.45,1.167-1.35,2.7c-0.933,1.5-1.4,2.649-1.4,3.45c0,0.566,0.167,1.083,0.5,1.55c0.367-0.533,1.083-1.9,2.15-4.101
		c0.433-0.933,1.083-1.399,1.95-1.399c2.933,0,4.867,1.116,5.8,3.35s1.4,6.9,1.4,14l-0.3,9.25c0.733-2.7,1.333-5.05,1.8-7.05
		l0.05,1.95c0.233,2.866,0.35,4.767,0.35,5.7c0,1.633-0.183,2.767-0.55,3.399c-0.267,0.467-0.9,0.95-1.9,1.45H71.15
		c2.767-0.066,4.934-1.033,6.5-2.9c1.667-2.066,2.184-4.699,1.55-7.899c0.033-9.5,0.05-14.584,0.05-15.25
		c0-0.233-0.25-0.65-0.75-1.25c-0.767-0.9-1.867-1.767-3.3-2.601c-0.567,4.534-1.617,6.801-3.15,6.801c-1.8,0-2.733-0.867-2.8-2.601
		c0.267-2.399,0.4-4.3,0.4-5.7l-0.15-1.5l-0.25-0.25c-0.2-0.199-0.5-0.3-0.9-0.3c-0.633,0-1.15,0.601-1.55,1.8
		c-0.767,2.367-1.5,4.217-2.2,5.551l-0.15,0.5c0.066,0.566,0.1,1.166,0.1,1.8c0.034,1,0.034,2.083,0,3.25
		c-0.066,1.399-0.15,2.35-0.25,2.85l-0.9,5.05c0.067-3.166,0.133-5.35,0.2-6.55c0.1-1.866,0.383-4,0.85-6.399
		c0.1-1.9,0.133-3.867,0.1-5.9c-0.066-4-0.466-7.05-1.2-9.15c-0.167-0.533-1.15-2.716-2.95-6.55c-1.467-3.133-2.333-5.533-2.6-7.2
		c0-0.933,0.05-1.783,0.15-2.55c1.833,2.467,3.883,4.783,6.15,6.95C65.167,171.283,68.1,173.884,72.9,178.05z M28.65,6.9
		c-0.033,0.467-0.517,3.2-1.45,8.2c-0.7,3.867-1.133,6.883-1.3,9.05c0.167-3.8,0.233-6.383,0.2-7.75c-0.1-4.1-0.65-7.45-1.65-10.05
		L28.65,6.9z M125.2,38.7c1.633,2.533,2.633,4.833,3,6.9c0.399,2.167,0.916,7.583,1.55,16.25l0.1,1.1
		c0.434-1.367,0.65-2.733,0.65-4.1c0-8.333-0.6-14.684-1.8-19.05c-1.667-4.533-3-8.683-4-12.45c-1.5-5.3-2.5-9.017-3-11.15
		c-0.867-3.567-1.134-6.2-0.8-7.9l2-0.5c1.233,12.6,3.333,21.6,6.3,27c1.666,3.067,2.566,4.75,2.7,5.05
		c0.733,1.9,1.1,4.483,1.1,7.75c0,0.333-0.05,2.233-0.15,5.7c-0.066,3.7-0.033,6.434,0.101,8.2l0.2,1.85l0.55,4.95L133.1,88.9
		c0,1.6,0.351,3.567,1.051,5.9c0.699,2.333,1.05,3.917,1.05,4.75c0,1.434-0.233,3.633-0.7,6.6c-0.5,3.167-1.066,5.9-1.7,8.2
		l-0.3-51.1l-0.05-7.15c-0.134,2.2-0.5,5.033-1.101,8.5c-0.3,1.867-0.716,4.3-1.25,7.3c-0.466,3.767-0.8,7.017-1,9.75l0.051-6.35
		c-0.267-11.533-0.517-18.733-0.75-21.6C127.767,46.733,126.7,41.733,125.2,38.7z M131.9,9.2l-0.551-1.9l-0.3-1.2L131,6.05L131.5,6
		C131.5,6.033,131.634,7.1,131.9,9.2z M134.45,5.7h-1.3l1.3-0.2V5.7z M170.65,25.65c-0.767,5.033-1.45,10.667-2.051,16.9
		c-0.133-3.9-0.8-9.983-2-18.25c-1.066-7.4-1.566-14-1.5-19.8l1-0.15c0,0.667,0.567,3.8,1.7,9.4
		C169,19.817,169.95,23.783,170.65,25.65z M171.45,21c0-0.433,0.666-6.433,2-18l1.05-0.3C174.267,4.933,173.25,11.033,171.45,21z
		 M162.7,90.1c0.633-2.367,2.25-5.7,4.85-10c2.334-3.833,3.517-6.417,3.55-7.75c0.167-5.3,0.667-8.65,1.5-10.05
		c0.733-1.2,2.317-1.716,4.75-1.55c-0.033,0.533-0.699,3.7-2,9.5l-0.25-0.8c0.9,5.2,0.434,9.333-1.399,12.4
		c-1.4,2.066-2.533,3.883-3.4,5.45c-1.566,2.767-2.967,5.983-4.2,9.65c0.801-9.3,1.65-14.75,2.551-16.35
		c0.267-0.467,0.666-1.017,1.199-1.65c0.434-0.767,0.851-2.083,1.25-3.95c-0.366,1.533-1.716,4.25-4.05,8.15
		C164.483,87.25,163.033,89.567,162.7,90.1z M117.6,30.65l-2.449-2.4c-0.801-1.2-1.384-2.1-1.75-2.7
		c-0.7-1.1-1.051-2.917-1.051-5.45c0-0.533,0.2-2.333,0.601-5.4c0.366-3.067,0.55-4.633,0.55-4.7h0.25
		c0.033,2.9-0.066,6.667-0.3,11.3v1.75l0.1,0.9l0.3,0.7c0.301-1.367,0.567-2.4,0.801-3.1l0.449-0.8c0.434,0.7,1,2.333,1.7,4.9
		c0.667,2.5,1.4,4.333,2.2,5.5l0.8,0.9L119.55,29c0.033,0.233,0.7,1.917,2,5.05L117.6,30.65z M130.15,126.2H130.1l-2.35-0.55
		c0.1-0.433,0.4-0.95,0.9-1.55c0.6-0.7,1.017-1.267,1.25-1.7c2.1-0.033,3.767-1.933,5-5.7c1.3-3.934,1.949-9.434,1.949-16.5
		c0-2.034-0.366-5.35-1.1-9.95c-0.9-5.5-1.566-12.55-2-21.15c0.634,4.367,1.55,10.583,2.75,18.65c0.866,6.667,1.3,12.267,1.3,16.8
		c0,6.867-0.633,12.3-1.899,16.3c-1.134,3.633-2.517,5.45-4.15,5.45L130.15,126.2z M133.95,11.3l-0.3,7.45
		c-0.067-1.067-0.2-2.217-0.4-3.45L133,13.75L133.95,11.3z M100.45,136.75l-0.65-8.05v-0.5c0,0.033,0.2,2.149,0.601,6.35
		L100.45,136.75z M106.1,162.9v1l-2.199-11c0.8,1.833,1.399,3.85,1.8,6.05C106.066,160.816,106.2,162.134,106.1,162.9z M124.4,179.6
		c0.3-1.333,0.5-2.233,0.6-2.699c0.2-0.767,0.45-1.534,0.75-2.301l0.5-1c0.533-0.466,1.45-0.833,2.75-1.1
		c2-0.434,3.517-0.833,4.55-1.2l0.15,0.45c0.233,0.467,0.7,1.116,1.399,1.95c-4.633,0.333-7.566,1.133-8.8,2.399
		C125.634,177.7,125,178.866,124.4,179.6z M62.25,135.65c-0.933,6.1-1.533,10.716-1.8,13.85c-0.1,0.533-0.333,0.85-0.7,0.95
		c-1.1,0.267-1.783,0.467-2.05,0.6l-0.95,0.101c0.533,0.3,1.467,0.449,2.8,0.449c2.034,0,3.233-0.6,3.6-1.8
		c0.3-1,0.417-4.6,0.35-10.8l0.35,1.2c1.367,4.033,1.8,6.899,1.3,8.6c-0.267,0.9-0.717,1.8-1.35,2.7c-0.167,1.8,5.833,10.5,18,26.1
		c-4.5-3.933-7.517-6.55-9.05-7.85c-0.267-0.533-1.167-2.4-2.7-5.6c-0.033-0.134-0.483-0.384-1.35-0.75l-0.35,1.8
		c-1.5-1.601-2.9-3.334-4.2-5.2c-1.2-1.767-2-3.184-2.4-4.25s-0.767-1.7-1.1-1.9c-0.467-0.1-0.9-0.199-1.3-0.3
		c-1.833-0.399-4.483-2.783-7.95-7.149l0.55,0.649c1.033,0.7,1.85,1.117,2.45,1.25c0.267,0.066,1.017,0.101,2.25,0.101
		c1.7-0.534,2.55-1.134,2.55-1.801c0-0.566-0.1-2.966-0.3-7.199c-0.2-4.5-0.367-7.884-0.5-10.15c0.434,0.6,1.067,1.65,1.9,3.15
		C61.1,133.866,61.75,134.95,62.25,135.65z M50.75,115.05l4.55,0.05c1.167,0.133,2.2,0.15,3.1,0.05l-0.6,0.3
		c0.167,0.2,0.25,0.367,0.25,0.5l3.9,0.25c1.466,0,2.333-0.233,2.6-0.7c0.233-0.4,0.35-1.717,0.35-3.95
		c0-2.933-0.083-5.316-0.25-7.15c-0.167-2.033-0.566-5.033-1.2-9l-1.1,11.1c-0.233-4.8-0.467-8.7-0.7-11.7
		c-0.2-2.267-0.3-3.417-0.3-3.45c0.033-0.934,0.033-1.934,0-3c-0.067-2.067-0.3-4.483-0.7-7.25l-1.85-13l1,3.25l1.7,5.55l-0.05-2.2
		c0.5,2.7,1.316,9.083,2.45,19.15c1.2,11,1.8,18.267,1.8,21.8c0,1.067-0.367,1.767-1.1,2.1c-0.367,0.2-0.967,0.3-1.8,0.3
		c-2.033,0-4.3-0.283-6.8-0.85c-2.167-0.534-3.817-1.083-4.95-1.65l-0.85-0.45L50.75,115.05z M75.35,145.9
		c0.033,0.066,0.083-0.017,0.15-0.25c-0.233-1.267-0.367-1.9-0.4-1.9c-0.167-0.033-0.267-0.066-0.3-0.1
		c-0.667-1.134-2.45-7.217-5.35-18.25c0.533,4.7,0.8,8.583,0.8,11.65c0,1.2,0.483,2.533,1.45,4
		C71.733,141.116,72.95,142.733,75.35,145.9z M74.2,179.2c3.3,1.333,5.633,2.399,7,3.2l-0.05-0.101L80,181.5
		c0.867,0.3,2.2,1.267,4,2.9c1.433,1.3,2.617,2.483,3.55,3.55c0.034-0.7,0-1.5-0.1-2.4l-0.15-1.1c0.667,0.5,1.4,0.899,2.2,1.2
		c0.433,0.166,0.867,0.3,1.3,0.399c-0.233,0.566-0.35,1.417-0.35,2.55c0,0.2-0.333,0.301-1,0.301c-1.4,0-3.083-0.434-5.05-1.301
		c-1.2-0.533-2.233-1.1-3.1-1.699l-0.65-0.7L74.2,179.2z M140.05,131.25l-2.1,7.6c0-0.133,0.05-3.566,0.149-10.3
		c0.034-2.933,0.334-5.017,0.9-6.25l0.2,1.55c0.6,3.266,0.916,5.6,0.95,7L140.05,131.25z M129.4,150.6c0,1,0.25,1.7,0.75,2.101
		c0.733,0.366,2.05,0.434,3.949,0.2c-0.3,0.433-0.716,0.699-1.25,0.8c-0.767,0.166-2.017,0.116-3.75-0.15l-0.899-0.05
		c0.3,1.467,1.416,2.434,3.35,2.9c1.834,0.433,2.851,1.55,3.05,3.35c0.334,3.066,0.284,5.816-0.149,8.25c-0.767-3.2-1.25-5-1.45-5.4
		c-0.667-1.267-1.967-1.899-3.9-1.899c-0.466,0-1.183,0.217-2.149,0.649c-0.767,0.334-1.367,0.65-1.8,0.95
		c0.6-2.366,1.116-4.934,1.55-7.7c0.833-5.399,0.967-14.116,0.399-26.149l0.101,0.85c0.666,2.066,1.116,4.867,1.35,8.4
		C129.017,145.4,129.3,149.7,129.4,150.6z M135.5,147.75l-0.4,1.35l0.101-1.35H135.5z M118.15,116.45
		c0.767-1.767,0.983-12.9,0.649-33.4c0.967,5.534,1.684,12.617,2.15,21.25c0.267,4.633,0.5,10.25,0.7,16.85
		c-0.034,0.733-0.15,1.333-0.351,1.8c-1.767-0.567-2.983-1.083-3.649-1.55c-1.2-0.733-2.584-1.467-4.15-2.2
		c0.866-1.434,1.816-2.117,2.85-2.05C117.35,117.183,117.95,116.95,118.15,116.45z M100.25,144.05l0.25,0.601l0.05,0.8
		c0.367,9.7,0.467,17.517,0.3,23.45c-0.1-1.634-0.199-5.051-0.3-10.25c-0.133-4.967-0.3-8.967-0.5-12L100.25,144.05z M85.7,160.2
		l0.6,1.149l-0.4-1.199c-0.433-1.801-0.95-2.967-1.55-3.5c-1.2-1.167-2.117-2.184-2.75-3.051l0.9,1.301
		C83.233,155.767,84.3,157.533,85.7,160.2z M87.55,179.05c0.133,0.101,0.3,0.217,0.5,0.351c1.367,0.933,3.017,1.399,4.95,1.399
		c-0.067,0.8-0.067,1.2,0,1.2l0.25,0.3c-1.6-0.133-2.933-0.6-4-1.399C88.617,180.434,88.05,179.816,87.55,179.05z M152.75,174.8
		c0.066-4.5,0.05-7.916-0.05-10.25l0.1-0.05C153.233,167.134,153.217,170.566,152.75,174.8z M125.15,162.3
		c-0.067,0.834-0.217,1.4-0.45,1.7v-0.85L125.15,162.3z M132.3,187.05c0.334-1.1,0.367-2.116,0.101-3.05
		c-0.334-1.233-1.134-1.85-2.4-1.85c-1.533,0-2.884,0.883-4.05,2.649c-1.601,2.4-2.55,6.184-2.851,11.351L123,189.1
		c0-0.533,0.1-1.683,0.3-3.449c0.2-1.867,0.367-3.184,0.5-3.95v0.6c1.334-2.2,4.334-3.3,9-3.3c1.467,0,2.45,0.6,2.95,1.8
		c0.333,0.767,0.5,2.101,0.5,4c0,0.867-0.116,1.55-0.35,2.05c-0.2,0.4-0.717,1.134-1.551,2.2l-0.149-0.55
		c0.066-0.233,0.083-0.517,0.05-0.85c-0.066-0.334-0.2-0.617-0.4-0.851c-0.199-0.233-0.416-0.366-0.649-0.399
		c-0.233-0.034-0.45,0.05-0.65,0.25C132.45,186.75,132.366,186.884,132.3,187.05z M142.25,204.45c0.333-2.233,0.366-4.483,0.1-6.75
		c-0.3-2.367-0.883-4.434-1.75-6.2c-2.566,2.733-4.3,5.217-5.199,7.45c-0.767,1.833-1.217,4.2-1.351,7.1
		c-0.033-1.267-0.05-2.05-0.05-2.35c0-1.667,0.283-3.384,0.85-5.15c1.167-3.633,2.067-6.7,2.7-9.2c0.334-1.366,1.467-3.149,3.4-5.35
		c0.934-1.134,1.85-2.116,2.75-2.95c1.3,0,2.166,0.167,2.6,0.5c0.4,0.334,0.601,0.967,0.601,1.9c0,0.333,0.017,2.267,0.05,5.8
		c0,3.8-0.05,6.733-0.15,8.8c-0.066,1.566-0.717,2.867-1.95,3.9C143.316,203.15,142.45,203.983,142.25,204.45z M140.65,215.05
		c-0.167-1.6-0.25-2.733-0.25-3.399c0.633-2.101,1.166-4.034,1.6-5.801c0,2.733-0.1,4.983-0.3,6.75L140.65,215.05z M115.45,226.2
		c-0.134-2.267-0.316-4.283-0.55-6.05c0.233,0.767,0.399,1.75,0.5,2.949C115.5,224.267,115.517,225.3,115.45,226.2z M117.15,235.95
		l-1.051,5.6c-1.399,0.134-2.1-0.333-2.1-1.399c0-0.467,0.184-1.067,0.55-1.801c0.467-0.899,1.05-1.6,1.75-2.1
		c-0.166-1.066-0.3-2.217-0.399-3.45l0.699,3.4L117.15,235.95z M113.1,235.75l-0.25-1.05L114,236.1L113.1,235.75z"/>
	<path style="fill-rule:evenodd;clip-rule:evenodd;fill:#635B52;" d="M189.6,9.55c-0.3,1.867-1.05,5.817-2.25,11.85l-0.199,0.95
		L187.1,1.7l3.15,1.7C190.083,5.633,189.866,7.683,189.6,9.55z M121.7,221.45l-0.3-1.601c0.333-2.767,0.683-6.267,1.05-10.5
		c0.533-5.833,0.8-10.083,0.8-12.75c0-1.166,0.184-2.583,0.55-4.25v5c-0.1,1.9,0.05,3.467,0.45,4.7
		c0.167,0.434,0.467,1.017,0.9,1.75l0.5-0.2c1-2.833,1.933-5.433,2.8-7.8c1.7-4.633,2.899-7.35,3.6-8.149
		c0.066-0.267,0.15-0.467,0.25-0.601c0.066-0.166,0.15-0.3,0.25-0.399c0.2-0.2,0.417-0.284,0.65-0.25
		c0.233,0.033,0.45,0.166,0.649,0.399c0.2,0.233,0.334,0.517,0.4,0.851c0.033,0.333,0.017,0.616-0.05,0.85l0.149,0.55
		c0.834-1.066,1.351-1.8,1.551-2.2c0.233-0.5,0.35-1.183,0.35-2.05c0-1.899-0.167-3.233-0.5-4c-0.5-1.2-1.483-1.8-2.95-1.8
		c-4.666,0-7.666,1.1-9,3.3v-0.6l0.601-2.101c0.6-0.733,1.233-1.899,1.899-3.5c1.233-1.267,4.167-2.066,8.8-2.399
		c-0.699-0.834-1.166-1.483-1.399-1.95l-0.15-0.45l0.9-3.3c0.434-2.434,0.483-5.184,0.149-8.25c-0.199-1.8-1.216-2.917-3.05-3.35
		c-1.934-0.467-3.05-1.434-3.35-2.9l0.899,0.05c1.733,0.267,2.983,0.316,3.75,0.15c0.534-0.101,0.95-0.367,1.25-0.8l1-3.801
		l0.4-1.35l2.45-8.9l2.1-7.6l0.3-0.95l1.45-5.25c-0.133,1.467-0.267,3.783-0.399,6.95c-0.233,3.733-0.7,8.3-1.4,13.7
		c-0.066,1-0.184,1.95-0.35,2.85c-0.434,2.4-1.134,4.55-2.101,6.45c-0.666,1.3-1.3,2.3-1.899,3c0,0.667,0.333,1.5,1,2.5
		c0.166,1.1,0.25,2.184,0.25,3.25c0,3.366-0.284,6.167-0.851,8.4c-0.733,2.733-1.133,4.583-1.2,5.55l0.851,0.05
		c1.2-0.366,2.5-1.95,3.899-4.75c0.767-1.5,2.233-4.9,4.4-10.2c4.9-11.934,9.7-21.184,14.4-27.75l0.199,1.15l-2.6,6.25v0.05
		c-0.1,0.533-0.233,1.65-0.4,3.35c-0.166,1.801-0.25,2.934-0.25,3.4c0,0.5,0.217,4.066,0.65,10.7c0.434,7.399,0.65,13.2,0.65,17.399
		c0,9.667-0.101,14.884-0.301,15.65c-0.133,0.634-0.466,1-1,1.1c-1.333,0.267-2.05,0.417-2.149,0.45c-1.566-0.333-2.233-1.033-2-2.1
		c0.6-1.334,0.899-2.3,0.899-2.9c-0.033-0.866-0.267-1.967-0.699-3.3c-0.267-0.733-0.434-1.233-0.5-1.5
		c0.433,2.033,0.017,5.866-1.25,11.5c-0.667,2.934-1.4,5.717-2.2,8.35l0.35,11.351c-0.1,2-0.416,3.6-0.95,4.8
		c-0.233,0.233-0.483,0.417-0.75,0.55c0.067-1.833,0.017-3.866-0.149-6.1c0.133-0.467,0.133-1.2,0-2.2
		c-0.134-1.033-0.45-1.816-0.95-2.35c-0.533-0.567-1.083-0.717-1.65-0.45c-0.566,0.233-1.116,1.033-1.649,2.399
		c-0.334,1.767-0.75,3.5-1.25,5.2l-1.101,2.851l1.301-5.601l1.05-2.45c0.2-1.767,0.3-4.017,0.3-6.75l0.25-1.399
		c0.2-0.467,1.066-1.3,2.6-2.5c1.233-1.033,1.884-2.334,1.95-3.9c0.101-2.066,0.15-5,0.15-8.8c-0.033-3.533-0.05-5.467-0.05-5.8
		c0-0.934-0.2-1.566-0.601-1.9c-0.434-0.333-1.3-0.5-2.6-0.5c-0.9,0.834-1.816,1.816-2.75,2.95c-1.934,2.2-3.066,3.983-3.4,5.35
		c-0.633,2.5-1.533,5.567-2.7,9.2c-0.566,1.767-0.85,3.483-0.85,5.15c0,0.3,0.017,1.083,0.05,2.35c-0.033,0.4-0.05,0.8-0.05,1.2
		L133.8,221c-0.934,4.967-2.783,7.85-5.55,8.65l-1.35,0.55c3-4.566,4.5-10.533,4.5-17.9c0-3.066-0.417-5.149-1.25-6.25
		c-0.634-0.866-1.617-1.25-2.95-1.149l-0.45,1.399c-0.366,1.101-1.134,3.2-2.3,6.3C123.316,215.767,122.4,218.717,121.7,221.45z
		 M134.95,250.9l-0.05,1.1v0.3c-1.434,0.2-2.801,0.3-4.101,0.3c-1.6,0-3.25-0.233-4.95-0.699c0.267-0.4,0.634-0.717,1.101-0.95
		c0.3-0.2,0.483-0.334,0.55-0.4c0.167-0.233,0.25-0.566,0.25-1c0-0.333-0.15-1.116-0.45-2.35c-0.333-1.233-0.5-2.017-0.5-2.351
		c0-1.267,0.384-2.466,1.15-3.6c0.733-1.1,1.05-2.9,0.95-5.4l5.5-5.5c0.033,1.4,0.133,4.5,0.3,9.301
		C134.833,244.45,134.917,248.2,134.95,250.9z M121.55,34.05c-1.3-3.133-1.967-4.816-2-5.05l0.25,3.05l-0.8-0.9
		c-0.8-1.167-1.533-3-2.2-5.5c-0.7-2.566-1.267-4.2-1.7-4.9l-0.449,0.8c-0.233,0.7-0.5,1.733-0.801,3.1l-0.3-0.7l-0.1-0.9V21.3
		c0.233-4.633,0.333-8.4,0.3-11.3l1.45-0.35l1.149-0.25c0.334-0.1,0.667-0.183,1-0.25L120.9,8.3c-0.334,1.7-0.067,4.333,0.8,7.9
		c0.5,2.133,1.5,5.85,3,11.15c1,3.767,2.333,7.917,4,12.45c1.2,4.367,1.8,10.717,1.8,19.05c0,1.367-0.217,2.733-0.65,4.1l-0.1-1.1
		c-0.634-8.667-1.15-14.083-1.55-16.25c-0.367-2.067-1.367-4.367-3-6.9c-0.533-1.067-1.117-1.9-1.75-2.5L121.55,34.05z M131.9,9.2
		c-0.267-2.1-0.4-3.167-0.4-3.2l1.65-0.3h1.3h1.649l-2.149,5.6L133,13.75l-0.65,1.5c-0.333-1.433-0.5-2.417-0.5-2.95L131.9,9.2z
		 M171.45,21l-0.351,5.45l-0.449-0.8c-0.7-1.867-1.65-5.833-2.851-11.9c-1.133-5.6-1.7-8.733-1.7-9.4l4.5-0.75L173.45,3
		C172.116,14.567,171.45,20.567,171.45,21z M186.05,28.9c-2.767,18.067-4.149,29.8-4.149,35.2c0,4.9,0.35,9.083,1.05,12.55
		c0.7,3.434,1.05,6.983,1.05,10.65l-0.1,11.05c-1.2-7-3.051-10.5-5.551-10.5c-1.233,0-2.183,0.167-2.85,0.5
		c-0.566,0.467-1.083,0.8-1.55,1h-0.05l-2.301,3.2l-0.25,2.5c0,4.034,0.434,7.483,1.301,10.35c0.833,2.9,1.25,7.85,1.25,14.85v8.1
		l-0.851,6l0.101-2.05c1.333-7.1,0.767-13.15-1.7-18.15c-2.334-4.733-5-6.333-8-4.8l-0.45,2.1l-0.35-0.55
		c-0.2-0.467-0.417-2.017-0.65-4.65c-0.233-2.833-0.4-4.483-0.5-4.95l-0.25,0.15c-0.3,0.3-0.733,1.183-1.3,2.65
		c-0.467,1.267-0.75,2.1-0.851,2.5l0.101-1.3c-0.033-3.933,0.25-7.017,0.85-9.25c0.601-1.533,0.9-2.533,0.9-3
		c0.066-0.167,0.35-0.667,0.85-1.5c0.434-0.767,0.733-1.25,0.9-1.45c0.333-0.533,1.783-2.85,4.35-6.95
		c2.334-3.9,3.684-6.617,4.05-8.15c-0.399,1.867-0.816,3.183-1.25,3.95c-0.533,0.633-0.933,1.183-1.199,1.65
		c-0.9,1.6-1.75,7.05-2.551,16.35c1.233-3.667,2.634-6.883,4.2-9.65c0.867-1.566,2-3.383,3.4-5.45c1.833-3.067,2.3-7.2,1.399-12.4
		l0.25,0.8c1.301-5.8,1.967-8.967,2-9.5c0.101-1.333,0.15-3.667,0.15-7c-0.1-2.6-0.15-4.233-0.15-4.9c0-0.8,0.051-1.3,0.15-1.5
		c0.233-0.467,0.833-0.7,1.8-0.7c0.667,0,1.417,0.033,2.25,0.1c-0.3-7.067,0.134-12.05,1.3-14.95c0.4-0.966,0.983-1.966,1.75-3
		c0.967-1.3,1.584-2.2,1.851-2.7L186.05,28.9z M147.1,26.15l0.351-4.9l0.35-5.2v6.3l0.3,7.2c0.2,2.034,0.801,7.883,1.801,17.55
		c0.899,8.367,1.35,12.783,1.35,13.25c0,3.433-0.167,6.2-0.5,8.3c-0.6,3.667-0.917,5.733-0.95,6.2
		c-2.267-11.833-3.399-24.533-3.399-38.1C146.667,32.95,146.9,29.417,147.1,26.15z M100.4,141.85l-0.351-7.899
		c-0.133-1.101-0.283-2.867-0.45-5.3c-0.166-2.267-0.25-3.684-0.25-4.25l0.101-3.25l0.35,7.05v0.5l0.25,5.25l0.4,2.8
		c1.533,7.733,2.55,12.533,3.05,14.4l0.4,1.75l2.199,11c0,0.033,0.117,0.733,0.351,2.1c0.233,1.6,0.383,3.033,0.45,4.3
		c-0.4,2.033-0.617,5.983-0.65,11.851c0,2.8-0.983,4.199-2.95,4.199c-0.133,0-1.116-0.433-2.95-1.3c-1.833-0.866-3.433-1.3-4.8-1.3
		c-0.399,0-0.65,0.134-0.75,0.4c-0.066,0.133-0.083,0.267-0.05,0.399c0.067,0.601,0.217,1.7,0.45,3.3
		c0.166,1.4,0.184,2.384,0.05,2.95c-0.233,1-1.117,1.65-2.65,1.95c-1.967,0.366-3.15,0.7-3.55,1l0.1,0.125v0.025l0.05,0.05
		l0.1,0.149l0.05,0.051v0.05l0.5,0.7c-0.767,0.333-1.684,0.517-2.75,0.55c-1.133,0.633-1.783,2.25-1.95,4.85
		c-0.267,4.667-0.433,7.15-0.5,7.45c-0.467,2-1.066,4.35-1.8,7.05l0.3-9.25c0-7.1-0.467-11.767-1.4-14s-2.867-3.35-5.8-3.35
		c-0.867,0-1.517,0.467-1.95,1.399c-1.067,2.2-1.783,3.567-2.15,4.101c-0.333-0.467-0.5-0.983-0.5-1.55c0-0.801,0.467-1.95,1.4-3.45
		c0.9-1.533,1.35-2.434,1.35-2.7c0-0.967-0.717-1.7-2.15-2.2c-1.7-0.6-2.817-1.399-3.35-2.399c-2.833-5.967-4.6-9.384-5.3-10.25
		l-0.45-0.801c1.5,1,3.2,2.334,5.1,4c1.667,1.5,3.316,2.733,4.95,3.7l1.3,1.15l6.45,6l0.65,0.7c0.867,0.6,1.9,1.166,3.1,1.699
		c1.967,0.867,3.65,1.301,5.05,1.301c0.667,0,1-0.101,1-0.301c0-1.133,0.117-1.983,0.35-2.55c-0.433-0.1-0.867-0.233-1.3-0.399
		c-0.8-0.301-1.533-0.7-2.2-1.2c-4.133-5.733-6.2-11.351-6.2-16.851l0.05-1.399v-0.05l0.2,0.35c0.033,0.066,0.05,0.15,0.05,0.25
		c0.3,1.2,0.85,2.5,1.65,3.9c1.4,2.433,2.367,4.216,2.9,5.35c0,1.167,0.533,2.184,1.6,3.05c0.5,0.767,1.067,1.384,1.7,1.851
		c1.067,0.8,2.4,1.267,4,1.399L93,182c-0.067,0-0.067-0.4,0-1.2l0.05-0.399c0.133-0.667-0.083-2.15-0.65-4.45
		c-0.6-2.4-0.9-3.684-0.9-3.851l0.7,1.45c0.633,2.233,1.566,3.75,2.8,4.55c2.3,0.934,3.616,1.4,3.95,1.4
		c0.833,0,1.434-0.083,1.8-0.25c0.7-0.3,1.05-0.95,1.05-1.95c0-0.267-0.133-1.316-0.399-3.149c-0.267-2.101-0.45-3.851-0.551-5.25
		c0.167-5.934,0.067-13.75-0.3-23.45l-0.05-1.4l-0.1-2.1V141.85z M95.6,111.8l2.2-4.1c0.233,4.033,0.566,9.533,1,16.5
		c0,18.833-3.184,28.25-9.55,28.25c-0.733,0-2.2-0.05-4.4-0.15c-2.6-0.1-4.4-0.2-5.4-0.3l0.4-0.45l0.45-0.35l0.85-0.45
		c4.767,0.134,7.717-0.434,8.85-1.7c0.533-0.6,1.033-1.633,1.5-3.1c0.633-2.033,1.2-3.767,1.7-5.2c1.5-4.2,2.25-9,2.25-14.4
		C95.417,118.117,95.467,113.267,95.6,111.8z M93.15,102.1l1.65-2.05l-0.6-15.4l-0.05-1.35l0.1,0.95c1,4.267,1.6,7.25,1.8,8.95
		c0.066,0.667,0.101,2.417,0.101,5.25c0,3.5-0.284,5.7-0.851,6.6c-1.1,1.667-3.683,2.217-7.75,1.65l0.8-0.1l0.7-0.3
		c0.867-0.566,1.534-1.083,2-1.55C91.583,104.217,92.283,103.333,93.15,102.1z M133.75,69.1c0.434,8.6,1.1,15.65,2,21.15
		c0.733,4.6,1.1,7.917,1.1,9.95c0,7.066-0.649,12.566-1.949,16.5c-1.233,3.767-2.9,5.667-5,5.7c-0.367,0.2-0.284-0.233,0.25-1.3
		c0.6-1.133,0.916-1.75,0.949-1.85l1.2-3.05l0.5-1.85c0.634-2.3,1.2-5.033,1.7-8.2c0.467-2.967,0.7-5.167,0.7-6.6
		c0-0.833-0.351-2.417-1.05-4.75c-0.7-2.333-1.051-4.3-1.051-5.9l0.601-20.6l0.1-1.8L133.75,69.1z M62.15,108.5l0.2-2l1.1-11.1
		c0.633,3.967,1.033,6.967,1.2,9c0.167,1.833,0.25,4.217,0.25,7.15c0,2.233-0.117,3.55-0.35,3.95c-0.267,0.467-1.133,0.7-2.6,0.7
		l-3.9-0.25c0-0.133-0.083-0.3-0.25-0.5l0.6-0.3c1.033,0,1.917-0.65,2.65-1.95C61.783,111.9,62.15,110.333,62.15,108.5z M63.4,137.4
		l0.1,1.6c0.067,6.2-0.05,9.8-0.35,10.8c-0.367,1.2-1.566,1.8-3.6,1.8c-1.333,0-2.267-0.149-2.8-0.449l0.95-0.101
		c0.267-0.133,0.95-0.333,2.05-0.6c0.367-0.101,0.6-0.417,0.7-0.95c0.267-3.134,0.867-7.75,1.8-13.85L63.4,137.4z M72.75,169.75
		l4.05,8.3c-1.7-1.633-3.4-3.684-5.1-6.149c-1.9-2.801-3.017-5.034-3.35-6.7l0.35-1.8c0.867,0.366,1.316,0.616,1.35,0.75
		C71.583,167.35,72.483,169.217,72.75,169.75z M75.35,145.9c-2.4-3.167-3.617-4.784-3.65-4.851c-0.967-1.467-1.45-2.8-1.45-4
		c0-3.066-0.267-6.95-0.8-11.65c2.9,11.034,4.683,17.117,5.35,18.25c0.034,0.033,0.133,0.066,0.3,0.1c0.033,0,0.167,0.634,0.4,1.9
		C75.433,145.884,75.383,145.967,75.35,145.9z M116.1,241.55l1.051-5.6c0.8-0.5,1.366-1.017,1.699-1.55l-0.35,6.1l-0.05,4.3
		l-1.3,0.2l-1.101-0.15l-0.25-1.149L116.1,241.55z M112.85,234.7l-3.05-2.601l1.05,0.351c0.301-0.434,0.45-0.95,0.45-1.55
		c-0.066-2.134-0.083-3.334-0.05-3.601c0.1-0.066,0.417-0.217,0.95-0.45c0.467-0.366,0.7-0.983,0.7-1.85c0-1.6-0.167-2.8-0.5-3.6
		c-0.534-0.967-1-1.934-1.4-2.9c-1.6-4.066-3.033-12.634-4.3-25.7c1.166,4.3,1.967,6.934,2.399,7.9
		c0.801,1.767,1.317,2.967,1.551,3.6c1.166,2.9,1.983,5.217,2.449,6.95c0.567,2.033,1.167,5,1.801,8.9
		c0.233,1.767,0.416,3.783,0.55,6.05l0.45,6.6c0.1,1.233,0.233,2.384,0.399,3.45c-0.6,0.2-1.366,0.15-2.3-0.15L112.85,234.7z
		 M152.75,174.8c0.467-4.233,0.483-7.666,0.05-10.3l-0.1,0.05c-1.033,0.934-1.617,2.167-1.75,3.7c-0.066,0.866-0.084,2.1-0.05,3.7
		c-0.034,0.566-0.117,1.616-0.25,3.149l0.05,3.601c0.533-0.367,0.899-0.684,1.1-0.95C152.333,177.017,152.65,176.033,152.75,174.8z
		 M104.85,225.55l1.7,2.351c-0.7-0.801-1.25-1.517-1.649-2.15L104.85,225.55z"/>
	<path style="fill-rule:evenodd;clip-rule:evenodd;fill:#9B9286;" d="M187.95,46.55c0-6.367,0.283-11.1,0.85-14.2
		c0.566-3.167,0.851-9.383,0.851-18.65c0.166,1.066,0.566,3.283,1.199,6.65c0.601,3.367,0.9,6.217,0.9,8.55
		c0,3.7-0.467,7.15-1.4,10.35C189.816,41.05,189.017,43.483,187.95,46.55z M186.95,74.55c0.1,17.4,0.233,27.75,0.399,31.05
		c0,1.167-0.25,1.983-0.75,2.45c-0.533,0.3-0.85,0.5-0.949,0.6c0.566-7.367,0.899-13.267,1-17.7
		C186.717,85.45,186.816,79.983,186.95,74.55z M183.95,109.2c-0.834,0.633-1.434,1.45-1.8,2.45c-0.7,1.9-1.134,5.184-1.301,9.85
		c-0.267,2-0.3,4.367-0.1,7.1c-0.1,1.934-1.05,3.284-2.85,4.051c-0.967-0.067-1.65-0.2-2.051-0.4
		c-0.633-0.366-0.949-1.533-0.949-3.5c0-1.867,0.3-4.433,0.899-7.7c0.566-3.267,0.851-6.183,0.851-8.75c0-3.833-0.4-7.1-1.2-9.8
		c-0.834-2.7-1.25-4.267-1.25-4.7c0-0.9,1.2-1.816,3.6-2.75c2-0.767,3.434-1.15,4.3-1.15c0.634,0,1.084,0.9,1.351,2.7
		c0.267,1.733,0.399,4.583,0.399,8.55L183.95,109.2z M159.5,206.45c0.366,0.233,0.75,0.35,1.15,0.35c0.866-1.934,1.3-16.5,1.3-43.7
		c0-6.5,0.399-12,1.2-16.5c0.633-3.733,0.8-8.949,0.5-15.649c-0.134-3.367,0.183-6.867,0.949-10.5c0.934-4.534,2.25-6.8,3.95-6.8
		c0.733,0,1.2,0.133,1.4,0.4c0.333,0.367,0.566,1.267,0.7,2.7c0.133,1.767,0.116,9.05-0.051,21.85c0.034-0.066,0.233-0.5,0.601-1.3
		c0.633-0.767,1.649-1.184,3.05-1.25c-0.634,0.834-1.05,1.8-1.25,2.9c-0.134,0.666-0.2,1.7-0.2,3.1c0,0.334,0.033,3,0.101,8
		c0.033,5.667-0.017,10.55-0.15,14.65c-0.233,5.8-0.267,10.283-0.1,13.45c0,0.633-0.15,1.066-0.45,1.3
		c-0.566,0.399-1.134,0.85-1.7,1.35c-1.167,1.033-2.316,7.134-3.45,18.3c-1.066,10.434-2.566,15.65-4.5,15.65
		c-2.066,0-3.1-2.033-3.1-6.1L159.5,206.45z M141.85,217.5c-0.3,3.134-0.449,7.884-0.449,14.25c0,9.4-1.267,15.616-3.801,18.65
		c0.167-1.834,0.25-3.7,0.25-5.601c0.267-8.633,0.101-14.166-0.5-16.6c-0.133-0.601-0.8-1.417-2-2.45c-1.066-0.934-1.6-2.2-1.6-3.8
		l0.05-0.95l0.2-13.75c0-0.4,0.017-0.8,0.05-1.2c0.134-2.899,0.584-5.267,1.351-7.1c0.899-2.233,2.633-4.717,5.199-7.45
		c0.867,1.767,1.45,3.833,1.75,6.2c0.267,2.267,0.233,4.517-0.1,6.75L142,205.85c-0.434,1.767-0.967,3.7-1.6,5.801
		c0,0.666,0.083,1.8,0.25,3.399l-1.301,5.601l1.101-2.851l-0.7,2.65l0.5-0.9C140.684,218.884,141.217,218.2,141.85,217.5z
		 M154.15,211.95c1.1-5.134,1.983-8.084,2.649-8.851c0.134,2.967,0.117,4.867-0.05,5.7C156.45,210.4,155.583,211.45,154.15,211.95z
		 M134.9,252l0.05-1.1l2.3-0.2c-0.467,0.333-1,0.649-1.6,0.95L134.9,252z M114,236.1c0.934,0.301,1.7,0.351,2.3,0.15
		c-0.7,0.5-1.283,1.2-1.75,2.1c-0.366,0.733-0.55,1.334-0.55,1.801c0,1.066,0.7,1.533,2.1,1.399l-0.3,2.15l0.25,1.149l1.101,0.15
		l1.3-0.2l0.05-4.3c1.366-0.667,2.25-1.333,2.65-2c0.466-0.8,0.683-2.167,0.649-4.1l0.351-2.051
		c-0.101,3.334-0.051,6.551,0.149,9.65c0,1.833-0.467,3.6-1.399,5.3c-2.067,0.033-3.517,0.05-4.351,0.05
		c-1.333,0.034-2.2-0.05-2.6-0.25c-0.934-0.433-1.417-1.416-1.45-2.949c-0.066-1.867-0.167-2.917-0.3-3.15
		c0.333-0.934,0.5-2.733,0.5-5.4l0.399,0.15L114,236.1z M99.4,221.35c1.633,1.067,3.183,3.934,4.649,8.601
		c1.5,4.8,1.834,8.333,1,10.6c-0.5,0.033-0.983,0.066-1.45,0.101c-0.366-0.101-0.683-0.301-0.949-0.601
		c-0.7-0.733-1.034-2.217-1-4.45c0-0.966-0.334-3.399-1-7.3C99.917,224.333,99.5,222.017,99.4,221.35z M87.1,195.45
		c0.867,2.166,3.083,6.566,6.65,13.2c-1.933-0.2-3.717-0.45-5.35-0.75c-1.2-0.233-2.05-0.351-2.55-0.351c-0.4,0-0.65,0.066-0.75,0.2
		c0,0.1-0.017,0.15-0.05,0.15c-0.033,0.466-0.017,1.05,0.05,1.75l-0.4,0.05l-0.05-1.95c0.067-0.3,0.233-2.783,0.5-7.45
		C85.317,197.7,85.967,196.083,87.1,195.45z M64.3,202.55c0.1-0.5,0.184-1.45,0.25-2.85c0.034-1.167,0.034-2.25,0-3.25l0.05-2.3
		c0.7-1.334,1.433-3.184,2.2-5.551c0.4-1.199,0.917-1.8,1.55-1.8c0.4,0,0.7,0.101,0.9,0.3l0.25,0.25l0.15,1.5
		c0,1.4-0.133,3.301-0.4,5.7c0.067,1.733,1,2.601,2.8,2.601c1.534,0,2.583-2.267,3.15-6.801c1.433,0.834,2.533,1.7,3.3,2.601
		c0.5,0.6,0.75,1.017,0.75,1.25c0,0.666-0.017,5.75-0.05,15.25c-6.767-0.5-10.85-0.917-12.25-1.25c-1-0.233-1.684-0.733-2.05-1.5
		C64.567,205.934,64.367,204.55,64.3,202.55z M54.1,156.05c2.5,4.7,3.783,7.117,3.85,7.25c-0.1,0.767-0.15,1.617-0.15,2.55
		C55.233,163.417,54,160.15,54.1,156.05z M38.15,137.9l5.05,3.5c-0.233-0.134-0.95-0.617-2.15-1.45
		C39.717,139.05,38.75,138.366,38.15,137.9z M30.45,128c0.433,0.833,1.183,1.616,2.25,2.35c0.733,0.467,1.517,0.867,2.35,1.2
		c0.067,1.4,0.184,2.733,0.35,4c-2.433-2.533-3.983-4.6-4.65-6.2C30.617,128.85,30.517,128.4,30.45,128z M10,82.75
		c-1.2-1.633-1.833-2.5-1.9-2.6c0.633,0.733,1.267,1.583,1.9,2.55V82.75z M13,92.85c1.833,0,2.75-0.8,2.75-2.4
		c-0.167-2.4-0.183-4.133-0.05-5.2c0.3-1.9,1.316-2.85,3.05-2.85l4.4,0.15c-0.7,3.767-1.133,6.217-1.3,7.35
		c-0.333,2.167-0.5,4.05-0.5,5.65c0,0.133,0.65,1.483,1.95,4.05c1.267,2.533,1.9,4.483,1.9,5.85c0,0.267-0.184,1.3-0.55,3.1
		c-0.4,1.8-0.6,2.917-0.6,3.35c0,1.1,0.333,2.733,1,4.9c-1.2-2.6-3.433-6.367-6.7-11.3C16.15,102.167,14.367,97.95,13,92.85z
		 M93.15,102.1c-1.167,1-3.617,2.15-7.35,3.45c-4.267,1.434-7.533,1.983-9.8,1.65l0.9,0.15c5.3,0.1,8.75,0.217,10.35,0.35
		c3.233,0.3,5.183,0.867,5.85,1.7c-1.1-0.133-2.067-0.3-2.9-0.5c-0.667-0.167-1.15-0.25-1.45-0.25l-1.65,0.05
		c-0.833-0.133-2.833-0.133-6,0c-4.033-0.3-6.867-0.3-8.5,0c-0.033,0-0.067,0.017-0.1,0.05c-2.2-0.067-4.1-0.15-5.7-0.25
		c-1.5-7.3-2.3-12.867-2.4-16.7c-0.133-5.5-2.333-20.867-6.6-46.1c0.5,9,0.817,14.05,0.95,15.15c0.533,5.233,0.883,8.733,1.05,10.5
		l-1-3.25l1.85,13c0.3,5.167,0.533,11.467,0.7,18.9c0.1,4.133,0.367,6.967,0.8,8.5c0,1.833-0.367,3.4-1.1,4.7
		c-0.733,1.3-1.617,1.95-2.65,1.95c-0.9,0.1-1.933,0.083-3.1-0.05c-3.633-2.033-5.517-3.1-5.65-3.2
		c0.367,1.167,0.733,2.217,1.1,3.15l-0.55,0.05l0.85,0.45c1.067,1.367,2.5,2.25,4.3,2.65c0.733,0.167,1.967,0.25,3.7,0.25
		c1.6,0,2.95-0.117,4.05-0.35v1c-2.8,0.167-4.767,0.316-5.9,0.45c-1.967,0.267-2.95,0.9-2.95,1.9c0,1.566,0.433,2.95,1.3,4.15
		c0.5,0.733,1.45,1.95,2.85,3.65c0.133,2.267,0.3,5.65,0.5,10.15c0.2,4.233,0.3,6.633,0.3,7.199c0,0.667-0.85,1.267-2.55,1.801
		c-2-1.834-5.983-4.967-11.95-9.4c-4.633-3.434-7.667-5.866-9.1-7.3c1.133,0.333,2.383,0.5,3.75,0.5l2.7,2.1
		c0.7,1.367,2.15,2.584,4.35,3.65c2.267,1.1,4.55,1.649,6.85,1.649c0.667,0,1.3-0.083,1.9-0.25c0.133-2.066,0.2-3.316,0.2-3.75
		c0-5.8-1.467-11.933-4.4-18.399c-0.867-1.867-5.583-10.7-14.15-26.5l-1,7c-2.833-2.534-5.033-4.633-6.6-6.3
		c-2.767-3-4.717-5.95-5.85-8.85c2.267-0.033,3.95-0.3,5.05-0.8l-0.65-2c-2.267-0.033-3.45-0.117-3.55-0.25
		c-0.367-1.2-1.05-2.933-2.05-5.2c0.667-0.6,1.217-1.35,1.65-2.25h-2.85c-1.233-2.333-2.467-5.183-3.7-8.55
		c-1.467-4.1-2.2-7.117-2.2-9.05c0-1.3,0.517-3.917,1.55-7.85c1-3.967,1.5-6.184,1.5-6.65l-0.85-33.9
		c1.333,1.4,2.767,2.717,4.3,3.95c0.9,1.1,1.35,3.133,1.35,6.1c0,12.767,0.15,20.717,0.45,23.85c0.933,10,3.566,22.1,7.9,36.3
		c0.233-0.433,0.433-0.917,0.6-1.45c0.367-1.566,0.55-3.066,0.55-4.5l-0.1-1.85c3.867,11.867,6.934,20.033,9.2,24.5
		c1.3,2.533,3.1,5.783,5.4,9.75c0.5,1.033,1.45,2.05,2.85,3.05c1.333,0.933,2.117,1.75,2.35,2.45c0.633,1.867,1.033,2.9,1.2,3.1
		c0.2,0.267,0.833,0.4,1.9,0.4c1.133,0,1.883-0.784,2.25-2.35c0.2-0.767,0.4-2.733,0.6-5.9c0-0.2,0.383-2.367,1.15-6.5
		c0.667-3.8,1-6.75,1-8.85c0-2.5-0.817-7.4-2.45-14.7c-0.933-4.333-1.95-8.566-3.05-12.7c-1.3-5.034-3.017-13.75-5.15-26.15
		c-1.767-10.066-3.117-18.367-4.05-24.9l5.2,0.9c0.233,2.4,0.35,5.434,0.35,9.1c0,1.867,0.25,3.167,0.75,3.9v-1.1
		c0.567-6.133,1.034-9.983,1.4-11.55l0.35,0.05c-1.2,8.533-1.8,15.1-1.8,19.7c0,6.4,0.767,10.533,2.3,12.4l0.5-0.7
		c0.1-1.333,0.15-2.434,0.15-3.3c0.367-9.066,0.633-17.333,0.8-24.8c0.333,7.2,0.617,16.017,0.85,26.45
		c0.066-13.167,0.233-22.95,0.5-29.35l3.95,0.4v1.4l0.6-0.25l-2.6,1.15c0.167,1,0.483,6.784,0.95,17.35
		c0.467,10.067,0.883,15.817,1.25,17.25c0.067,1.533,0.233,3.184,0.5,4.95c0.4,9.433,1.083,17.5,2.05,24.2
		c0.467,3.3,0.883,6.2,1.25,8.7c-0.033,2.433,0.067,4.167,0.3,5.2c0.3,1.433,0.967,2.517,2,3.25c0.3,2.1,1.983,3.733,5.05,4.9
		c2.2,0.867,4.167,1.3,5.9,1.3c1.267,0,2.55-0.717,3.85-2.15c1.333-1.467,1.967-2.9,1.9-4.3c-0.267-6.667-0.133-11.35,0.4-14.05
		c0.833-2.4,1.466-4.733,1.9-7c0.9-4.533,1.917-8.7,3.05-12.5c0.267-0.933,0.4-3.417,0.4-7.45c0-2.8-0.45-6.534-1.35-11.2
		c-0.9-4.567-1.333-7.267-1.3-8.1c0.067-2.767-0.533-4.2-1.8-4.3c-1.733,0.333-3.017,0.316-3.85-0.05
		c0.067-0.566,0.267-1.966,0.6-4.2c0.367-2.4,0.566-3.617,0.6-3.65L83.2,21c1.633,1.633,2.517,2.533,2.65,2.7
		c1.333-1.233,2.083-5.017,2.25-11.35l6.6-0.3l-0.55,0.05c0.1,0,0.217,1.5,0.35,4.5c0.067,1.5,0.117,3,0.15,4.5l1.1,9.7
		c-1.267,11.067-1.833,17.867-1.7,20.4c0.267,5.566,0.4,8.433,0.4,8.6c-0.034,1.8-0.284,3.867-0.75,6.2
		c-0.4,2.133-0.6,4.767-0.6,7.9c0,1.4,0.117,2.583,0.35,3.55c0.267,1.167,0.517,3.566,0.75,7.2l0.6,15.4L93.15,102.1z M115.15,28.25
		l2.449,2.4c0.2,0.367,1.384,2.367,3.551,6c1.199,2,2.083,4,2.649,6c1.434,5.2,1.917,15.45,1.45,30.75
		c-1.134-7.2-1.85-12.316-2.15-15.35c-0.333,19.534-0.6,30.167-0.8,31.9c0,3.033,0.45,12.9,1.351,29.6c0,1.867-0.7,3.2-2.101,4
		c-1.566,0.534-2.517,0.934-2.85,1.2c0.267,0.167,0.566,0.333,0.899,0.5l2.7,0.05c1.834,0,3.233-1.417,4.2-4.25
		c0.767-2.367,1.15-5.433,1.15-9.2c0-4.167-0.101-7.567-0.301-10.2c-0.366-4.7-0.699-10.533-1-17.5l2.801-8.85l-0.051,6.35
		c0.2-2.733,0.534-5.983,1-9.75l2.4-8.65l0.3,51.1l-0.05-1.7c-0.533,3.067-1.983,6.533-4.35,10.4c-2,3.267-3,6.467-3,9.601
		l0.35,8.75c-0.066,1.767-1.366,10.583-3.9,26.449c0,0.667,0.051,1.084,0.15,1.25h6.5l-2.25,4.5l-0.5,1
		c-0.267,0.634-0.983,2.15-2.15,4.551c-0.333,0.8-0.6,1.616-0.8,2.449c0.434-3,0.65-5.066,0.65-6.199c0-0.667-0.884-2.45-2.65-5.351
		c-0.666,0.834-1.566,1.533-2.7,2.101c-1.267,0.5-2.183,0.899-2.75,1.199c-2,1.034-3,3.2-3,6.5c0,0.334,0.284,2.884,0.851,7.65
		c0.3,3.066,0.583,5.333,0.85,6.8c0.767,5.533,1.584,9.717,2.45,12.55c0.434,1.434,0.816,2.4,1.15,2.9l0.25-1.05
		c1.267-6.733,2.316-12.4,3.149-17c0.4-2.2,0.767-4.2,1.101-6c-0.034,0.233-0.051,0.483-0.051,0.75c0,0.333,0.084,3.467,0.25,9.399
		c0.134,6.334,0.167,10.834,0.101,13.5c-0.367,4.233-0.717,7.733-1.05,10.5c-1,0.767-1.567,1.15-1.7,1.15
		c-1.434,0-2.334-0.134-2.7-0.4c-0.4-0.233-0.583-0.816-0.55-1.75c0.066-4.833-0.15-8.566-0.65-11.199
		c-2.633-14.267-3.95-24.483-3.95-30.65c0-2,1.117-5.033,3.351-9.1c2.2-4.067,3.3-7.167,3.3-9.301l-0.1-2.05l-0.75,1.5
		c-0.534,2.3-1.634,4.134-3.301,5.5c-1.333,1.134-2.633,1.7-3.899,1.7c-0.767,0-1.55-0.267-2.351-0.8c-0.899-0.7-1.566-1.217-2-1.55
		c0.101-0.767-0.033-2.084-0.399-3.95c-0.4-2.2-1-4.217-1.8-6.05l-0.4-1.75c-0.066-1.034-1.1-6.567-3.1-16.601
		c-0.4-4.2-0.601-6.316-0.601-6.35l-0.35-7.05c0.133-9.767,0.05-23.267-0.25-40.5c-0.033-8.833-0.066-14.566-0.101-17.2
		c0-0.467-0.649-4.617-1.949-12.45c-1.2-7.267-1.667-13.933-1.4-20c1.7,10.033,3.566,20.667,5.6,31.9v-0.5
		C99.85,42,99.1,31.183,99.1,29.95c1.301,4.633,2.45,9.533,3.45,14.7c1.267,6.7,1.9,12.1,1.9,16.2c0,2.9-0.184,4.733-0.55,5.5
		c-0.5,1.066-0.983,6.633-1.45,16.7c-0.867-4.5-1.517-8.05-1.95-10.65c-0.6-3.733-0.95-6.767-1.05-9.1
		c0.366,33.767,0.85,52.8,1.45,57.1c0.1,0.567,0.399,1.45,0.899,2.65c0.4,0.934,0.75,3.45,1.05,7.55c0.233,2.9,0.367,5.117,0.4,6.65
		c0.033,0.2,0.483,0.6,1.35,1.2c0.267,1,0.584,3.366,0.95,7.1c0.367,3.967,0.733,6.733,1.101,8.3
		c0.666,2.934,1.583,4.784,2.75,5.551c0.8,0.533,2.6,1.5,5.399,2.899l0.05-0.399c-1.267-1.301-2.233-6.417-2.899-15.351
		c-0.434-5.833-1.167-20.867-2.2-45.1c-0.4-10.167-1.217-25.717-2.45-46.65c-0.934-16.133-1.717-28.867-2.35-38.2l-0.351,1.75
		c0.367-2.267,0.717-3.983,1.051-5.15c0.333-1.133,0.517-1.8,0.55-2c0.6-0.034,1.95-0.233,4.05-0.6c1.134-0.2,2.217-0.4,3.25-0.6
		c0.566-0.133,1.134-0.25,1.7-0.35L113.75,10h-0.25c-1.5,0.333-2.483,1.683-2.95,4.05c-0.3,1.4-0.45,3.633-0.45,6.7
		c0,2.5,0.717,4.367,2.15,5.6C112.983,27.017,113.95,27.65,115.15,28.25z M152.05,40.3c-0.066,0.233-0.1,0.483-0.1,0.75
		c0,0.067,0.083,1.8,0.25,5.2c0,0.3,0.017,0.6,0.05,0.9l0.05,0.8c0.101,2.733,0.167,4.983,0.2,6.75l0.55,3.75
		c0.233,1.133,0.434,2.283,0.601,3.45c0.066,0.767,0.133,1.533,0.199,2.3c0.067,0,0.134,0.017,0.2,0.05
		c0.267,1.733,0.617,3.85,1.05,6.35c0.667,4.033,0.9,7.45,0.7,10.25l0.15-1.05c0.733-3.1,1.434-6.7,2.1-10.8
		c0.733-4.6,1.101-7.95,1.101-10.05c0-4.967-0.867-10.967-2.601-18c-1.1-4.4-1.85-7.684-2.25-9.85c-0.066-0.533-0.133-1-0.2-1.4v0.1
		c-0.1-0.633-0.149-1.117-0.149-1.45c0-0.233,0.866-2.95,2.6-8.15c1.867-5.667,3.084-10.767,3.65-15.3l2.3-0.15
		c-0.333,6.067-0.634,17.083-0.9,33.05c0,1.4,0.967,3.583,2.9,6.55c2.467,3.767,5.217,5.65,8.25,5.65c0.667,0,2.066-0.083,4.2-0.25
		v0.2c-7.634,1.966-12.217,3.767-13.75,5.4c-1.467,1.566-1.917,4.983-1.351,10.25c0.301,2.8-0.3,7.267-1.8,13.4
		c-1.967,8.067-2.967,12.2-3,12.4c-0.467,0.367-1.217,1.033-2.25,2c-1.133,1-1.783,1.6-1.95,1.8c0.233-2.133,0.317-5.3,0.25-9.5
		c0.267-2.833,0.301-5.934,0.101-9.3c0.033-5.5-0.033-9.233-0.2-11.2c-0.3-2.233-0.583-4.534-0.85-6.9
		c-0.034-0.7-0.617-5.667-1.75-14.9c0.199-3.1-0.101-7.283-0.9-12.55c-0.667-4.367-1.233-7.2-1.7-8.5v-6.3l-0.35,5.2
		c-0.967-3.233-1.434-6.667-1.4-10.3c0-2.034-0.916-3.983-2.75-5.85h2.351l0.149,0.15c1.367,2.467,2.733,7.05,4.101,13.75
		c1.199,5.8,1.8,9.617,1.8,11.45L152.05,40.3z M173.45,3L170.6,3.6l3.9-0.9L173.45,3z M187.35,21.4l-1.3,7.5l0.4-2.8l0.7-3.75
		L187.35,21.4z M131,6.1h0.05l0.3,1.2L131,6.1z M94.15,83.3v-0.25l0.1,1.2L94.15,83.3z M132.95,61.5c0.1-0.267,0.166-0.033,0.2,0.7
		c0,0.367,0,0.75,0,1.15L132.95,61.5z M66.15,86.1c-2.533-15.9-4.1-27.583-4.7-35.05c0.9,7.133,1.833,13.784,2.8,19.95
		C64.95,75.5,65.583,80.533,66.15,86.1z M69.75,115.5l0.05,5.25c-0.033-0.367-0.3-1.767-0.8-4.2c-0.467-2.1-0.75-3.35-0.85-3.75
		l-0.1-0.4C68.583,113.3,69.15,114.333,69.75,115.5z M63.5,139l-0.1-1.6l0.8,2.25l0.35-0.851l0.15-0.95
		c0.233,0.134,0.433,0.2,0.6,0.2c0.133-0.3,0.284-1.116,0.45-2.45c0.167-1.333,0.25-2.267,0.25-2.8c0-0.5-0.083-1.899-0.25-4.2
		c-0.167-2.333-0.283-3.766-0.35-4.3c0.4-0.433,0.617-1.017,0.65-1.75c0.034-1.466-0.933-2.95-2.9-4.45
		c2.233-0.133,3.567,1.267,4,4.2c0.133,0.867,0.283,2.3,0.45,4.3c0.2,1.867,0.517,3.4,0.95,4.6c-0.2,3.1,0.417,5.883,1.85,8.35
		c0.867,1.5,2.5,4.101,4.9,7.8c0.5,0.967,1.2,2.634,2.1,5c0.833,2.233,1.367,3.801,1.6,4.7c0,0.533,0.017,1.084,0.05,1.65
		c-3.566-0.601-5.833-1.267-6.8-2c-1.033-0.767-1.667-2.334-1.9-4.7c0.8,1.467,1.95,2.2,3.45,2.2c0.667,0,1.233-0.066,1.7-0.2
		l-0.05-5.6l-6.95-5.65c0.067,0.3-0.017,0.767-0.25,1.4c-0.267,0.767-0.4,1.233-0.4,1.399l-3.95-5.6l-0.05,0.25L63.5,139z
		 M70.6,128.5l-0.5-3.25c0.2-0.367,0.333-0.75,0.4-1.15c0.333,0,0.667,0.1,1,0.3c0.633,6.1,1.967,11.333,4,15.7
		c1.267,2.7,3.117,5.567,5.55,8.601l0.05-0.05c-0.067-6.367,0.033-10.334,0.3-11.9c0.467-2.7,1.684-4.05,3.65-4.05
		c0.8,0,1.567,0,2.3,0c0.367-0.033,0.583-0.25,0.65-0.65c0.967-4.533,1.55-7.1,1.75-7.7c0.8,0.3,1.4,0.867,1.8,1.7
		c0.267,0.534,0.767,1.733,1.5,3.601l0.2-1c0.1-1.034,0.15-1.884,0.15-2.55c-0.167-3.8-0.267-9.367-0.3-16.7
		c0.733,1.333,1.566,2.133,2.5,2.4c-0.133,1.467-0.183,6.317-0.149,14.55c0,5.4-0.75,10.2-2.25,14.4c-0.5,1.434-1.067,3.167-1.7,5.2
		c-0.467,1.467-0.967,2.5-1.5,3.1c-1.133,1.267-4.083,1.834-8.85,1.7l-2.3-2.75c-1.467-3-2.5-5.134-3.1-6.4
		c-1-2.066-2.7-6.316-5.1-12.75L70.6,128.5z M100.05,146.65l-0.6,3.5l0.95-8.301v0.101l-0.15,2.1L100.05,146.65z M140.15,130.85
		l0.199-0.55l-0.3,0.95L140.15,130.85z M118.15,116.45c-0.2,0.5-0.801,0.733-1.801,0.7c-1.033-0.066-1.983,0.617-2.85,2.05
		c1.566,0.733,2.95,1.466,4.15,2.2c0.666,0.467,1.883,0.983,3.649,1.55c0.2-0.467,0.316-1.067,0.351-1.8
		c-0.2-6.6-0.434-12.217-0.7-16.85c-0.467-8.633-1.184-15.716-2.15-21.25C119.134,103.55,118.917,114.683,118.15,116.45z
		 M99.8,128.7l0.65,8.05l-0.4-2.8L99.8,128.7z M100.55,145.45l-0.05-0.8v-0.601L100.55,145.45z M85.7,160.2l0.2-0.05l0.4,1.199
		L85.7,160.2z M106.7,192.3v0.5c-0.134-1.333-0.217-2.467-0.25-3.399l0.1,1.55L106.7,192.3z M152.7,164.55
		c0.1,2.334,0.116,5.75,0.05,10.25c-0.1,1.233-0.417,2.217-0.95,2.95c-0.2,0.267-0.566,0.583-1.1,0.95l-0.05-3.601
		c0.133-1.533,0.216-2.583,0.25-3.149c-0.034-1.601-0.017-2.834,0.05-3.7C151.083,166.717,151.667,165.483,152.7,164.55z
		 M120.4,230.75c0.466-1.866,0.899-4.967,1.3-9.3c0.7-2.733,1.616-5.684,2.75-8.851c1.166-3.1,1.934-5.199,2.3-6.3l-0.15,0.55
		c0.801-0.267,1.534-0.267,2.2,0c0.566,0.267,0.851,0.601,0.851,1c0,7.733-0.417,12.75-1.25,15.051
		C127.366,225.733,124.7,228.35,120.4,230.75z M109.8,232.1l-1.25-1l-0.1-0.149L109.8,232.1z M104.85,225.55l0.051,0.2l-0.4-1
		L104.85,225.55z"/>
	<path style="fill-rule:evenodd;clip-rule:evenodd;fill:#898074;" d="M57.95,163.3c-0.067-0.133-1.35-2.55-3.85-7.25
		c-0.3-2.267-0.9-4.3-1.8-6.1c-1.667-3.467-4.7-6.316-9.1-8.55l-5.05-3.5l-2.75-2.351c-0.167-1.267-0.283-2.6-0.35-4
		c0-0.166,0-0.316,0-0.45c0.133,0.167,0.317,0.367,0.55,0.601c1.433,1.434,4.467,3.866,9.1,7.3c5.966,4.434,9.95,7.566,11.95,9.4
		c-1.233,0-1.983-0.034-2.25-0.101c-0.6-0.133-1.417-0.55-2.45-1.25L51.4,146.4c3.467,4.366,6.117,6.75,7.95,7.149
		c0.4,0.101,0.833,0.2,1.3,0.3c0.333,0.2,0.7,0.834,1.1,1.9s1.2,2.483,2.4,4.25c1.3,1.866,2.7,3.6,4.2,5.2
		c0.333,1.666,1.45,3.899,3.35,6.7c1.7,2.466,3.4,4.517,5.1,6.149l-4.05-8.3c1.533,1.3,4.55,3.917,9.05,7.85
		c-12.167-15.6-18.167-24.3-18-26.1c0.633-0.9,1.083-1.8,1.35-2.7c0.5-1.7,0.067-4.566-1.3-8.6l0.05-0.25l3.95,5.6l1,2
		c0.6,2.134,1.1,3.617,1.5,4.45c0.233,2.366,0.867,3.934,1.9,4.7c0.967,0.733,3.233,1.399,6.8,2l0.1,0.85v0.2
		c0.267,2.1,0.934,4.25,2,6.45L81.1,167.6c0,5.5,2.066,11.117,6.2,16.851l0.15,1.1c0.1,0.9,0.133,1.7,0.1,2.4
		c-0.933-1.066-2.117-2.25-3.55-3.55c-1.8-1.634-3.133-2.601-4-2.9l1.15,0.8l0.05,0.101c-1.367-0.801-3.7-1.867-7-3.2l-1.3-1.15
		c-4.8-4.166-7.733-6.767-8.8-7.8C61.833,168.083,59.783,165.767,57.95,163.3z M29.4,54.05l0.1,8.8l0.7-2.4l0.05-0.1l0.1-0.45v0.05
		l1.95,8.5l0.1,1.85c0,1.434-0.183,2.934-0.55,4.5c-0.167,0.534-0.367,1.017-0.6,1.45c-4.333-14.2-6.967-26.3-7.9-36.3
		c-0.3-3.133-0.45-11.083-0.45-23.85c0-2.967-0.45-5-1.35-6.1c-1.533-1.233-2.966-2.55-4.3-3.95v-0.6l7.2,0.9
		c1,2.6,1.55,5.95,1.65,10.05c0.033,1.367-0.033,3.95-0.2,7.75c0.167-2.167,0.6-5.183,1.3-9.05c0.933-5,1.417-7.733,1.45-8.2
		l0.45,0.05V28c0,6.4-0.067,12.333-0.2,17.8C29.033,49.133,29.2,51.883,29.4,54.05z M53.2,10.9c-0.367,1.567-0.833,5.417-1.4,11.55
		v1.1c-0.5-0.733-0.75-2.033-0.75-3.9c0-3.667-0.117-6.7-0.35-9.1V10.5L53.2,10.9z M56.85,11.35c-0.267,6.4-0.434,16.183-0.5,29.35
		c-0.233-10.434-0.517-19.25-0.85-26.45V11.2L56.85,11.35z M132.5,63.25l-2.4,8.65c0.534-3,0.95-5.433,1.25-7.3
		c0.601-3.467,0.967-6.3,1.101-8.5L132.5,63.25z M133.7,68.3l-0.55-4.95c0-0.4,0-0.783,0-1.15c-0.034-0.733-0.101-0.967-0.2-0.7
		c-0.134-1.767-0.167-4.5-0.101-8.2c0.101-3.466,0.15-5.367,0.15-5.7c0-3.267-0.366-5.85-1.1-7.75c-0.134-0.3-1.034-1.983-2.7-5.05
		c-2.967-5.4-5.066-14.4-6.3-27l8.1-1.75V6.1l0.35,1.2l0.551,1.9l-0.051,3.1c0,0.534,0.167,1.517,0.5,2.95l0.65-1.5l0.25,1.55
		c0.2,1.233,0.333,2.383,0.4,3.45l0.3-7.45l2.149-5.6h-1.649V5.5c2.934-0.267,5.883-0.4,8.85-0.4c1.834,1.867,2.75,3.816,2.75,5.85
		c-0.033,3.633,0.434,7.066,1.4,10.3l-0.351,4.9c-0.733-2.033-1.233-3.917-1.5-5.65c-0.267-1.567-0.6-2.85-1-3.85
		c-0.1,1.133-0.216,3.017-0.35,5.65c-0.134,2.4-0.2,3.917-0.2,4.55c0,11.833,0.367,25.4,1.101,40.7
		c0.066,1.267,0.033,5.767-0.101,13.5c0,0.167,0.3,2.45,0.9,6.85c0.566,4.434,0.85,6.9,0.85,7.4l-1.05,8.65v4.35
		c3.066,0,4.667,0.983,4.8,2.95c0.101,1.7,0.017,3.633-0.25,5.8c-0.166,2.5,0.367,4.3,1.601,5.4c0.633,0.533,1.267,0.917,1.899,1.15
		c0,0.233-0.899,1.316-2.7,3.25c-1.899,2.034-3,3.716-3.3,5.05c-0.434,1.899-1.05,7.483-1.85,16.75
		c-0.533,5.8-0.851,8.949-0.95,9.449c-0.967,5.034-2.816,8.567-5.55,10.601c-0.601-0.5-0.917-0.783-0.95-0.851
		c-0.5-0.6-0.75-1.433-0.75-2.5c0-1.267,0.634-6.866,1.9-16.8c0.166-0.899,0.283-1.85,0.35-2.85c0.7-5.4,1.167-9.967,1.4-13.7
		c0.133-3.167,0.267-5.483,0.399-6.95l-1.45,5.25l-0.199,0.55c-0.034-1.399-0.351-3.733-0.95-7l-0.2-1.55
		c-0.566,1.233-0.866,3.317-0.9,6.25c-0.1,6.733-0.149,10.167-0.149,10.3l-2.45,8.9h-0.3l-0.101,1.35l-1,3.801
		c-1.899,0.233-3.216,0.166-3.949-0.2c1.066-0.467,1.816-1.05,2.25-1.75c0.3-0.533,0.449-1.233,0.449-2.101
		c0-3.633-0.35-7.783-1.05-12.449c-0.833-4.834-1.383-8.233-1.649-10.2l1.6,0.1c1.634,0,3.017-1.816,4.15-5.45
		c1.267-4,1.899-9.434,1.899-16.3c0-4.533-0.434-10.133-1.3-16.8c-1.2-8.067-2.116-14.283-2.75-18.65l0.05-2.6L133.7,68.3z
		 M130.1,126.2c-0.6,2.833-0.883,6.983-0.85,12.45c0,2.966,0.05,6.949,0.15,11.949c-0.101-0.899-0.384-5.199-0.851-12.899
		c-0.233-3.533-0.684-6.334-1.35-8.4l-0.101-0.85c0.567,12.033,0.434,20.75-0.399,26.149c-0.434,2.767-0.95,5.334-1.55,7.7
		c0.433-0.3,1.033-0.616,1.8-0.95c0.967-0.433,1.684-0.649,2.149-0.649c1.934,0,3.233,0.633,3.9,1.899c0.2,0.4,0.684,2.2,1.45,5.4
		l-0.9,3.3c-1.033,0.367-2.55,0.767-4.55,1.2c-1.3,0.267-2.217,0.634-2.75,1.1l2.25-4.5H122c-0.1-0.166-0.15-0.583-0.15-1.25
		c2.534-15.866,3.834-24.683,3.9-26.449l-0.35-8.75c0-3.134,1-6.333,3-9.601c2.366-3.867,3.816-7.333,4.35-10.4l0.05,1.7l-0.5,1.85
		l-1.2,3.05c-0.033,0.1-0.35,0.717-0.949,1.85c-0.534,1.066-0.617,1.5-0.25,1.3c-0.233,0.434-0.65,1-1.25,1.7
		c-0.5,0.6-0.801,1.117-0.9,1.55L130.1,126.2z M176.95,49.75c-2.134,0.167-3.533,0.25-4.2,0.25c-3.033,0-5.783-1.883-8.25-5.65
		c-1.934-2.967-2.9-5.15-2.9-6.55c0.267-15.966,0.567-26.983,0.9-33.05l2.6-0.25c-0.066,5.8,0.434,12.4,1.5,19.8
		c1.2,8.267,1.867,14.35,2,18.25c0.601-6.233,1.284-11.867,2.051-16.9l0.449,0.8L171.45,21c1.8-9.967,2.816-16.067,3.05-18.3
		l5.95-1.5l0.6,16.1c0,3.367-0.434,6.217-1.3,8.55c-0.8,2.066-2.066,4.017-3.8,5.85c-0.566-1-0.851-1.917-0.851-2.75
		c0.034-3.9,0.034-11.65,0-23.25c-0.3,3.267-0.5,9.133-0.6,17.6c0,5.267-0.116,8.75-0.35,10.45c-0.167,1.333-0.851,2.75-2.051,4.25
		c-1.133,1.433-1.699,2.483-1.699,3.15c0,3,0.816,4.583,2.449,4.75C174.884,46.133,176.25,47.417,176.95,49.75z M157.05,91.4
		c0.033-0.2,1.033-4.333,3-12.4c1.5-6.133,2.101-10.6,1.8-13.4c-0.566-5.267-0.116-8.684,1.351-10.25
		c1.533-1.633,6.116-3.434,13.75-5.4c0.066,0.4,0.05,0.9-0.05,1.5c-0.101,0.6-0.233,1.066-0.4,1.4l1,0.9c0,3.333-0.05,5.667-0.15,7
		c-2.433-0.167-4.017,0.35-4.75,1.55c-0.833,1.4-1.333,4.75-1.5,10.05c-0.033,1.333-1.216,3.917-3.55,7.75
		c-2.6,4.3-4.217,7.633-4.85,10c-0.167,0.2-0.467,0.683-0.9,1.45c-0.5,0.833-0.783,1.333-0.85,1.5c0.066-0.433,0.05-0.883-0.05-1.35
		c-0.101-0.467-0.301-0.85-0.601-1.15c-0.333-0.333-0.7-0.517-1.1-0.55c-0.434-0.033-0.834,0.083-1.2,0.35
		C157.634,90.583,157.316,90.933,157.05,91.4z M148.1,29.55l-0.3-7.2c0.467,1.3,1.033,4.133,1.7,8.5c0.8,5.267,1.1,9.45,0.9,12.55
		c-0.667-4.566-1.117-7.6-1.351-9.1C148.684,31.967,148.366,30.383,148.1,29.55z M152.15,58.3c0.267,2.367,0.55,4.667,0.85,6.9
		c0.167,1.966,0.233,5.7,0.2,11.2L152.15,58.3z M125.2,38.7c1.5,3.033,2.566,8.033,3.2,15c0.233,2.867,0.483,10.066,0.75,21.6
		l-2.801,8.85c-0.5-5.6-0.866-9.183-1.1-10.75c0.467-15.3-0.017-25.55-1.45-30.75c-0.566-2-1.45-4-2.649-6
		c-2.167-3.633-3.351-5.633-3.551-6l3.95,3.4l1.9,2.15C124.083,36.8,124.667,37.633,125.2,38.7z M153.1,85.7
		c0.067,4.2-0.017,7.367-0.25,9.5c-0.533,0.633-1.066,1.183-1.6,1.65c-0.6,0.5-1.116,0.933-1.55,1.3c0.633-0.833,1.3-2.417,2-4.75
		C152.6,90.6,153.066,88.033,153.1,85.7z M113.5,10c0,0.067-0.184,1.633-0.55,4.7c-0.4,3.066-0.601,4.867-0.601,5.4
		c0,2.533,0.351,4.35,1.051,5.45c0.366,0.6,0.949,1.5,1.75,2.7c-1.2-0.6-2.167-1.233-2.9-1.9c-1.434-1.233-2.15-3.1-2.15-5.6
		c0-3.067,0.15-5.3,0.45-6.7C111.017,11.683,112,10.333,113.5,10z M103.5,151.15c-0.5-1.867-1.517-6.667-3.05-14.4l-0.05-2.2
		C102.4,144.583,103.434,150.116,103.5,151.15z M112.85,234.7l0.25,1.05l-0.399-0.15c-1.4-0.699-2.367-1.316-2.9-1.85l-0.35-0.65
		c-0.367-0.666-0.667-1.333-0.9-2l1.25,1l-1.35-1.149c-0.566-1.101-1.101-2-1.601-2.7c-0.1-0.134-0.199-0.25-0.3-0.35l-1.7-2.351
		l-0.35-0.8c-0.2-0.9-1.116-3.283-2.75-7.15c-1.566-3.767-2.65-6.216-3.25-7.35c0.066,0.066,0.316,0.184,0.75,0.35
		c0.434,0.2,0.767,0.317,1,0.351l0.45-0.15c-0.9-2.133-2.117-4.149-3.65-6.05c-0.666-0.767-1-2.8-1-6.1c0-2.834,0.233-4.5,0.7-5
		c0.5-0.534,2.267-1.667,5.3-3.4c1,2.634,1.95,4.85,2.851,6.65c0.566,1.433,1.166,4.533,1.8,9.3c0.2,1.399,0.583,4,1.149,7.8
		c0.467,3.366,0.717,5.667,0.75,6.9c0,0.833,0.417,1.699,1.25,2.6c0.834,0.967,1.301,2.233,1.4,3.8
		c-0.033,0.267-0.017,1.467,0.05,3.601c0,0.6-0.149,1.116-0.45,1.55l-1.05-0.351L112.85,234.7z M118.85,234.4
		c-0.333,0.533-0.899,1.05-1.699,1.55l-0.551,0.25l-0.699-3.4l-0.45-6.6c0.066-0.9,0.05-1.934-0.05-3.101
		c-0.101-1.199-0.267-2.183-0.5-2.949c-0.634-3.9-1.233-6.867-1.801-8.9c-0.466-1.733-1.283-4.05-2.449-6.95
		c0.066-2.366,0.1-3.883,0.1-4.55c0-2.333-0.366-3.8-1.1-4.4c-1.5-1.199-2.483-2.216-2.95-3.05l-0.15-1.35
		c1.533-5.634,3.084-12.617,4.65-20.95l-0.2-1.25c-1.333,0.767-2.083,1.184-2.25,1.25c-0.5,0.233-1.116,0.333-1.85,0.3
		c-0.067-1.267-0.217-2.7-0.45-4.3c-0.233-1.366-0.351-2.066-0.351-2.1v-1c0.434,0.333,1.101,0.85,2,1.55
		c0.801,0.533,1.584,0.8,2.351,0.8c1.267,0,2.566-0.566,3.899-1.7c1.667-1.366,2.767-3.2,3.301-5.5l0.75-1.5l0.1,2.05
		c0,2.134-1.1,5.233-3.3,9.301c-2.233,4.066-3.351,7.1-3.351,9.1c0,6.167,1.317,16.384,3.95,30.65
		c0.5,2.633,0.717,6.366,0.65,11.199c-0.033,0.934,0.149,1.517,0.55,1.75c0.366,0.267,1.267,0.4,2.7,0.4c0.133,0,0.7-0.384,1.7-1.15
		l0.3,1.601c-0.4,4.333-0.834,7.434-1.3,9.3C119.866,232.45,119.35,233.667,118.85,234.4z M122.15,185.7
		c0.033-1.367,0.25-2.733,0.649-4.101c0.2-0.833,0.467-1.649,0.8-2.449c1.167-2.4,1.884-3.917,2.15-4.551
		c-0.3,0.767-0.55,1.534-0.75,2.301c-0.1,0.466-0.3,1.366-0.6,2.699L123.8,181.7c-0.133,0.767-0.3,2.083-0.5,3.95
		c-0.2,1.767-0.3,2.916-0.3,3.449l0.1,7.051c0.301-5.167,1.25-8.95,2.851-11.351c1.166-1.767,2.517-2.649,4.05-2.649
		c1.267,0,2.066,0.616,2.4,1.85c0.267,0.934,0.233,1.95-0.101,3.05c-0.1,0.134-0.184,0.334-0.25,0.601
		c-0.7,0.8-1.899,3.517-3.6,8.149c-0.867,2.367-1.8,4.967-2.8,7.8l-0.5,0.2c-0.434-0.733-0.733-1.316-0.9-1.75
		c-0.4-1.233-0.55-2.8-0.45-4.7v-5c-0.366,1.667-0.55,3.084-0.55,4.25c0,2.667-0.267,6.917-0.8,12.75
		c0.066-2.666,0.033-7.166-0.101-13.5c-0.166-5.933-0.25-9.066-0.25-9.399C122.1,186.184,122.116,185.934,122.15,185.7z
		 M69.7,122.85c-0.4-2.567-0.917-5.917-1.55-10.05l0.4,18.4c-0.433-1.2-0.75-2.733-0.95-4.6c-0.167-2-0.317-3.434-0.45-4.3
		c-0.433-2.933-1.767-4.333-4-4.2H63.1c-1.1,0.233-2.45,0.35-4.05,0.35c-1.733,0-2.966-0.083-3.7-0.25
		c-1.8-0.4-3.233-1.284-4.3-2.65c1.133,0.567,2.784,1.117,4.95,1.65c2.5,0.566,4.767,0.85,6.8,0.85c0.833,0,1.434-0.1,1.8-0.3
		c0.733-0.333,1.1-1.033,1.1-2.1c0-3.533-0.6-10.8-1.8-21.8c-1.133-10.067-1.95-16.45-2.45-19.15l0.05,2.2l-1.7-5.55
		c-0.167-1.767-0.517-5.267-1.05-10.5c-0.133-1.1-0.45-6.15-0.95-15.15c4.267,25.233,6.467,40.6,6.6,46.1
		c0.1,3.833,0.9,9.4,2.4,16.7l-0.4,0.55c0.067,0.467,0.15,0.8,0.25,1c0.167,0.467,0.633,1.25,1.4,2.35l0.1,0.4
		c0.1,0.4,0.383,1.65,0.85,3.75c0.5,2.434,0.767,3.833,0.8,4.2C69.8,121.317,69.767,122.017,69.7,122.85z M55.3,115.1l-4.55-0.05
		c-0.367-0.933-0.733-1.983-1.1-3.15C49.783,112,51.667,113.067,55.3,115.1z M62.35,106.5l-0.2,2c-0.433-1.533-0.7-4.367-0.8-8.5
		c-0.167-7.433-0.4-13.733-0.7-18.9c0.4,2.767,0.633,5.183,0.7,7.25c0.033,1.066,0.033,2.066,0,3c0,0.033,0.1,1.183,0.3,3.45
		C61.883,97.8,62.117,101.7,62.35,106.5z M70.6,128.5c-0.1-0.566-0.283-1.65-0.55-3.25h0.05L70.6,128.5z M93,180.8
		c-1.933,0-3.583-0.467-4.95-1.399c-0.2-0.134-0.367-0.25-0.5-0.351c-1.066-0.866-1.6-1.883-1.6-3.05
		c-0.534-1.134-1.5-2.917-2.9-5.35c-0.8-1.4-1.35-2.7-1.65-3.9c1,1.934,2.3,3.917,3.9,5.95c2.5,3.133,5.083,5.7,7.75,7.7L93,180.8z
		 M80.3,151.2l-1.45-3.2l2.3,2.75L80.3,151.2z M100.85,168.9c0.101,1.399,0.284,3.149,0.551,5.25
		c0.267,1.833,0.399,2.883,0.399,3.149c0,1-0.35,1.65-1.05,1.95c-0.366,0.167-0.967,0.25-1.8,0.25c-0.334,0-1.65-0.467-3.95-1.4
		l-8.3-15.949c0.333-2.267,1.1-3.767,2.3-4.5c0.633-0.4,1.867-0.667,3.7-0.801c1.767-0.166,3.066-0.566,3.899-1.199
		c1.334-1,2.284-2.834,2.851-5.5l0.6-3.5c0.2,3.033,0.367,7.033,0.5,12C100.65,163.85,100.75,167.267,100.85,168.9z M100.4,141.95
		l0.1,2.1v0.601l-0.25-0.601L100.4,141.95z M85.9,160.15l-0.2,0.05c-1.4-2.667-2.467-4.434-3.2-5.3l-0.9-1.301
		c0.633,0.867,1.55,1.884,2.75,3.051C84.95,157.184,85.467,158.35,85.9,160.15z M125.15,162.3l-0.45,0.851V164
		C124.934,163.7,125.083,163.134,125.15,162.3z"/>
	<path style="fill-rule:evenodd;clip-rule:evenodd;fill:#A49A8E;" d="M69.75,115.5c-0.6-1.167-1.167-2.2-1.7-3.1
		c-0.767-1.1-1.233-1.883-1.4-2.35c-0.1-0.2-0.183-0.533-0.25-1l0.4-0.55c1.6,0.1,3.5,0.183,5.7,0.25
		C69.7,109.317,68.783,111.567,69.75,115.5z M42.05,134.3c0.333,0.233,0.534,0.15,0.6-0.25c0-0.133-0.3-0.883-0.9-2.25
		c-0.7-1.6-1.2-2.967-1.5-4.1c0.467-0.566,2.367-0.883,5.7-0.95c2.767-0.067,4.15-1.183,4.15-3.35c0-0.4-0.217-1.017-0.65-1.85
		l-0.65-1.15c-0.633,1.7-1.433,2.417-2.4,2.15c-2.767-0.767-4.65-1.15-5.65-1.15c-0.167,0-0.75,0.45-1.75,1.35
		c-0.967,0.933-1.9,1.383-2.8,1.35c-1.2-0.033-2.2,0.1-3,0.4c-0.934,0.367-1.4,0.883-1.4,1.55c0,0.6,0.567,1.184,1.7,1.75
		c1.9,0.967,3.85,2.434,5.85,4.4c-1.367,0-2.617-0.167-3.75-0.5c-0.233-0.233-0.417-0.434-0.55-0.601c0,0.134,0,0.284,0,0.45
		c-0.833-0.333-1.617-0.733-2.35-1.2c-1.067-0.733-1.817-1.517-2.25-2.35c-0.233-0.934-0.417-1.667-0.55-2.2
		c-0.5-2.033-1.2-3.733-2.1-5.1c-1.133-1.5-2.05-2.8-2.75-3.9c-0.667-2.167-1-3.8-1-4.9c0-0.433,0.2-1.55,0.6-3.35
		c0.367-1.8,0.55-2.833,0.55-3.1c0-1.367-0.633-3.317-1.9-5.85c-1.3-2.567-1.95-3.917-1.95-4.05c0-1.6,0.167-3.483,0.5-5.65
		c0.167-1.133,0.6-3.583,1.3-7.35l-4.4-0.15c-1.733,0-2.75,0.95-3.05,2.85c-0.133,1.067-0.117,2.8,0.05,5.2
		c0,1.6-0.917,2.4-2.75,2.4l-0.95-4.3c-0.466-1.9-0.816-3.05-1.05-3.45l-1-2.35V82.7c1.2,0.733,1.8,1.85,1.8,3.35
		c0.034,1.5,0.483,2.5,1.35,3c0.133-0.633,0.3-1.333,0.5-2.1c0.4-1.534,1.367-3.367,2.9-5.5c1-1.434,2.867-3.817,5.6-7.15
		c1,2.267,1.684,4,2.05,5.2c0.1,0.133,1.283,0.217,3.55,0.25l0.65,2c-1.1,0.5-2.783,0.767-5.05,0.8c1.133,2.9,3.083,5.85,5.85,8.85
		c1.566,1.667,3.767,3.767,6.6,6.3l1-7c8.567,15.8,13.284,24.633,14.15,26.5c2.933,6.466,4.4,12.6,4.4,18.399
		c0,0.434-0.067,1.684-0.2,3.75c-0.6,0.167-1.233,0.25-1.9,0.25c-2.3,0-4.583-0.55-6.85-1.649
		C44.2,136.884,42.75,135.667,42.05,134.3z M20.95,72.05c-0.867-0.033-1.833,0.383-2.9,1.25c-1.1,0.867-2.4,1.284-3.9,1.25
		c-4-0.2-6.683-0.333-8.05-0.4L5.65,74.1l1.2,4.65c-1.567-1.633-2.333-3.467-2.3-5.5c0-5.267-0.216-9.583-0.65-12.95l-0.2-1.75
		c-0.467-3.333-0.917-6.25-1.35-8.75c1.1,2.2,2.2,3.633,3.3,4.3c0.6,0.333,1.1,0.45,1.5,0.35c0.5,0,1.033-1.25,1.6-3.75
		c0.2-0.833,0.733-1.534,1.6-2.1c0.667-0.434,1-2.083,1-4.95c-0.1-22.6-0.467-35.7-1.1-39.3l7,1.1v0.6l0.85,33.9
		c0,0.466-0.5,2.683-1.5,6.65c-1.033,3.933-1.55,6.55-1.55,7.85c0,1.933,0.733,4.95,2.2,9.05
		C18.483,66.867,19.717,69.717,20.95,72.05z M31.45,7.3c-0.267,7.7-0.534,14.517-0.8,20.45c-0.533,13.133-0.95,21.9-1.25,26.3
		c-0.2-2.167-0.367-4.917-0.5-8.25c0.133-5.466,0.2-11.4,0.2-17.8V6.95L31.45,7.3z M32.3,68.45l-1.95-8.5V59.9l0.1-0.3l1.05-4.05
		c0.267,0.9,0.6,2.233,1,4c0.333,1.4,0.617,2.367,0.85,2.9l0.45,1.2c0.133-1.566,0.617-4.3,1.45-8.2c0.9-4,1.45-6.483,1.65-7.45
		l0.2-1.7c0.167,4.133,0.533,7.817,1.1,11.05c0.966,5.4,2.35,8.1,4.15,8.1c1.6,0,2.367-6.65,2.3-19.95
		c-0.4-16.9-0.633-28.95-0.7-36.15L45.5,9.6v0.05c0.933,6.533,2.283,14.833,4.05,24.9c2.133,12.4,3.85,21.117,5.15,26.15
		c1.1,4.133,2.117,8.367,3.05,12.7c1.633,7.3,2.45,12.2,2.45,14.7c0,2.1-0.333,5.05-1,8.85c-0.767,4.133-1.15,6.3-1.15,6.5
		c-0.2,3.167-0.4,5.133-0.6,5.9c-0.367,1.566-1.117,2.35-2.25,2.35c-1.067,0-1.7-0.133-1.9-0.4c-0.167-0.2-0.566-1.233-1.2-3.1
		c-0.233-0.7-1.017-1.517-2.35-2.45c-1.4-1-2.35-2.017-2.85-3.05c-2.3-3.967-4.1-7.217-5.4-9.75
		C39.233,88.483,36.167,80.317,32.3,68.45z M55.5,14.25c-0.167,7.467-0.433,15.733-0.8,24.8c0,0.867-0.05,1.967-0.15,3.3l-0.5,0.7
		c-1.533-1.867-2.3-6-2.3-12.4c0-4.6,0.6-11.167,1.8-19.7l1.95,0.25V14.25z M63.45,12l-2.05,0.9l-0.6,0.25v-1.4L63.45,12z
		 M88.1,12.35c-0.167,6.333-0.917,10.117-2.25,11.35c-0.133-0.167-1.017-1.067-2.65-2.7l-0.75,1.2c0.233-0.9,0.617-2.733,1.15-5.5
		c0.5-2.667,0.75-4.083,0.75-4.25L88.1,12.35z M154.3,31.1c0.4,2.167,1.15,5.45,2.25,9.85c1.733,7.033,2.601,13.033,2.601,18
		c0,2.1-0.367,5.45-1.101,10.05c-0.666,4.1-1.366,7.7-2.1,10.8l-0.15,1.05c0.2-2.8-0.033-6.217-0.7-10.25
		c-0.433-2.5-0.783-4.617-1.05-6.35c0.066,0.067,0.167,0.167,0.3,0.3c0.101,0.133,0.284,0.35,0.551,0.65l0.449,0.15
		c0.634-1.7,0.967-2.733,1-3.1c0.101-1.167,0.15-5.65,0.15-13.45c0-0.466-0.3-3.183-0.9-8.15
		C155.066,36.45,154.634,33.267,154.3,31.1z M154.1,29.8l-1,8.6c-0.566,0.567-0.916,1.2-1.05,1.9l-0.35-9.85
		c0-1.833-0.601-5.65-1.8-11.45c-1.367-6.7-2.733-11.283-4.101-13.75L145.65,5.1h2.149c-0.333,1.4,0.2,4.583,1.601,9.55
		c0.733,2.567,1.6,5.4,2.6,8.5l0.1,0.5c0.267-4.533,0.4-10.717,0.4-18.55c2.7,0,5.267-0.067,7.7-0.2
		c-0.566,4.533-1.783,9.633-3.65,15.3c-1.733,5.2-2.6,7.917-2.6,8.15C153.95,28.683,154,29.167,154.1,29.8z M104.6,138.45h0.851
		c0.5-19.267,0.75-29.233,0.75-29.9c0-2.167-0.267-5.367-0.8-9.6c-0.7-5.633-1.684-10.934-2.95-15.9
		c0.467-10.066,0.95-15.633,1.45-16.7c0.366-0.767,0.55-2.6,0.55-5.5c0-4.1-0.634-9.5-1.9-16.2c-1-5.167-2.149-10.066-3.45-14.7
		c0.101-1.434,0.817-3.233,2.15-5.4c1.733-2.9,2.85-4.966,3.35-6.2l0.351-1.75c0.633,9.333,1.416,22.066,2.35,38.2
		c1.233,20.934,2.05,36.483,2.45,46.65c1.033,24.233,1.767,39.267,2.2,45.1c0.666,8.934,1.633,14.05,2.899,15.351l-0.05,0.399
		c-2.8-1.399-4.6-2.366-5.399-2.899c-1.167-0.767-2.084-2.617-2.75-5.551c-0.367-1.566-0.733-4.333-1.101-8.3
		C105.184,141.816,104.866,139.45,104.6,138.45z M122.8,181.6c-0.399,1.367-0.616,2.733-0.649,4.101c-0.334,1.8-0.7,3.8-1.101,6
		c-0.833,4.6-1.883,10.267-3.149,17l-0.25,1.05c-0.334-0.5-0.717-1.467-1.15-2.9c-0.866-2.833-1.684-7.017-2.45-12.55l0.15,0.75
		c0.833-1.033,1.45-3.483,1.85-7.35c0.434-4.134,0.9-6.684,1.4-7.65c0.3-0.566,1.283-1.083,2.95-1.55
		c1.366-0.4,2.05-1.217,2.05-2.45c0-1.767-1.884-2.649-5.65-2.649c-0.533,0-1.166,0.649-1.899,1.949
		c-0.733,1.334-1.217,2.767-1.45,4.301c-0.167,0.966-0.25,3.583-0.25,7.85c-0.566-4.767-0.851-7.316-0.851-7.65c0-3.3,1-5.466,3-6.5
		c0.567-0.3,1.483-0.699,2.75-1.199c1.134-0.567,2.034-1.267,2.7-2.101c1.767,2.9,2.65,4.684,2.65,5.351
		C123.45,176.533,123.233,178.6,122.8,181.6z M125.25,73.4c0.233,1.567,0.6,5.15,1.1,10.75c0.301,6.967,0.634,12.8,1,17.5
		c0.2,2.633,0.301,6.033,0.301,10.2c0,3.767-0.384,6.833-1.15,9.2c-0.967,2.833-2.366,4.25-4.2,4.25l-2.7-0.05
		c-0.333-0.167-0.633-0.333-0.899-0.5c0.333-0.267,1.283-0.667,2.85-1.2c1.4-0.8,2.101-2.133,2.101-4
		c-0.9-16.7-1.351-26.566-1.351-29.6c0.2-1.733,0.467-12.367,0.8-31.9C123.4,61.083,124.116,66.2,125.25,73.4z M67.1,94.95h0.05
		L67,91.85c-0.1-1.267-0.383-3.184-0.85-5.75c-0.566-5.567-1.2-10.6-1.9-15.1c-0.967-6.167-1.9-12.817-2.8-19.95l0.05,2.55
		c-0.267-1.767-0.433-3.417-0.5-4.95c0.133,1.867,0.917,3.267,2.35,4.2c2,1.333,3.117,2.167,3.35,2.5
		c0.867,1.267,2.6,2.183,5.2,2.75c1.367,0.3,2.9,0.583,4.6,0.85c-0.133-3-0.2-4.934-0.2-5.8c0-2.333,0.117-4.65,0.35-6.95
		c0.1-1.034,0.45-2.417,1.05-4.15c0.566-1.6,0.85-2.9,0.85-3.9c0-0.533-0.183-2.417-0.55-5.65s-0.55-5.033-0.55-5.4
		c0-2.233,0.216-3.783,0.65-4.65l0.45-0.15c0.567,0.567,0.983,2.2,1.25,4.9c0.367,3.733,0.684,6.2,0.95,7.4l0.3,1l0.2-5.55
		c0.833,0.367,2.117,0.383,3.85,0.05c1.267,0.1,1.867,1.533,1.8,4.3c-0.033,0.833,0.4,3.533,1.3,8.1c0.9,4.667,1.35,8.4,1.35,11.2
		c0,4.033-0.133,6.517-0.4,7.45c-1.133,3.8-2.15,7.967-3.05,12.5c-0.434,2.267-1.067,4.6-1.9,7c-0.534,2.7-0.667,7.383-0.4,14.05
		c0.067,1.4-0.566,2.833-1.9,4.3c-1.3,1.433-2.583,2.15-3.85,2.15c-1.733,0-3.7-0.433-5.9-1.3C69.083,98.683,67.4,97.05,67.1,94.95z
		 M93.1,109.4c0.033,7.333,0.133,12.9,0.3,16.7c0,0.667-0.05,1.516-0.15,2.55l-0.2,1c-0.733-1.867-1.233-3.067-1.5-3.601
		c-0.4-0.833-1-1.4-1.8-1.7c-0.2,0.6-0.783,3.167-1.75,7.7c-0.067,0.4-0.283,0.617-0.65,0.65c-0.733,0-1.5,0-2.3,0
		c-1.966,0-3.183,1.35-3.65,4.05c-0.267,1.566-0.367,5.533-0.3,11.9l-0.05,0.05c-2.433-3.033-4.283-5.9-5.55-8.601
		c-2.033-4.366-3.367-9.6-4-15.7c0.267,0.333,0.817,1.533,1.65,3.6c0.767,1.866,1.3,2.9,1.6,3.1c0.133-2.366,0.1-4.966-0.1-7.8
		c-0.2-2.667-0.267-4.316-0.2-4.95c0.133-1.233,0.633-2.083,1.5-2.55c0.933-0.5,2.6-0.75,5-0.75c0.333,0,1.233,0.5,2.7,1.5
		c1.233,0.867,2.05,1.083,2.45,0.65c0.7,2.8,1.316,4.483,1.85,5.05l0.4,0.2c-0.067-1.6,0.033-3.017,0.3-4.25
		c0.5-2.4,1.767-3.784,3.8-4.15l-5.35-5.35l1.65-0.05c0.3,0,0.783,0.083,1.45,0.25C91.033,109.1,92,109.267,93.1,109.4z M78,86.55
		c0.7-4.167,1.117-7.3,1.25-9.4c0.167-2.433,0.35-13.133,0.55-32.1c-1.267,3.9-2.066,10.633-2.4,20.2
		c-0.333,8.9-0.167,15.833,0.5,20.8L78,86.55z M65.4,124.3c0.067,0.534,0.184,1.967,0.35,4.3c0.167,2.301,0.25,3.7,0.25,4.2
		c0,0.533-0.083,1.467-0.25,2.8c-0.167,1.334-0.317,2.15-0.45,2.45c-0.167,0-0.367-0.066-0.6-0.2c0.1-1.1-0.284-2.783-1.15-5.05
		c-0.966-2.434-1.45-4.533-1.45-6.3c0-0.7,0.15-1.183,0.45-1.45C62.983,124.617,63.933,124.367,65.4,124.3z M70.35,152
		c-0.4-0.833-0.9-2.316-1.5-4.45l-1-2c0-0.166,0.133-0.633,0.4-1.399c0.233-0.634,0.317-1.101,0.25-1.4l6.95,5.65l0.05,5.6
		c-0.467,0.134-1.033,0.2-1.7,0.2C72.3,154.2,71.15,153.467,70.35,152z"/>
	<path style="fill-rule:evenodd;clip-rule:evenodd;fill:#B3AA9E;" d="M22.15,74.3c-2.733,3.333-4.6,5.717-5.6,7.15
		c-1.533,2.133-2.5,3.966-2.9,5.5c-0.2,0.767-0.367,1.466-0.5,2.1c-0.867-0.5-1.316-1.5-1.35-3c0-1.5-0.6-2.617-1.8-3.35
		c-0.633-0.967-1.267-1.817-1.9-2.55l-1.25-1.4l-1.2-4.65l0.45,0.05c1.367,0.067,4.05,0.2,8.05,0.4c1.5,0.034,2.8-0.383,3.9-1.25
		c1.067-0.867,2.034-1.283,2.9-1.25h2.85C23.367,72.95,22.817,73.7,22.15,74.3z M10.25,4.35c0.633,3.6,1,16.7,1.1,39.3
		c0,2.867-0.333,4.517-1,4.95c-0.867,0.566-1.4,1.267-1.6,2.1c-0.567,2.5-1.1,3.75-1.6,3.75c-0.4,0.1-0.9-0.017-1.5-0.35
		c-1.1-0.667-2.2-2.1-3.3-4.3c-0.7-4.267-1.283-9.5-1.75-15.7C0.2,28.9,0,24.933,0,22.2c0-6.667,0.25-11.517,0.75-14.55
		C1.25,4.75,2.033,3.3,3.1,3.3C4.433,3.3,6.817,3.65,10.25,4.35z M30.35,59.9l-0.1,0.45l-0.05,0.1l-0.7,2.4l-0.1-8.8
		c0.3-4.4,0.717-13.167,1.25-26.3c0.267-5.933,0.533-12.75,0.8-20.45l12.5,2.05c0.066,7.2,0.3,19.25,0.7,36.15
		c0.067,13.3-0.7,19.95-2.3,19.95c-1.8,0-3.184-2.7-4.15-8.1c-0.567-3.233-0.934-6.917-1.1-11.05L36.9,48
		c-0.2,0.967-0.75,3.45-1.65,7.45c-0.833,3.9-1.317,6.633-1.45,8.2l-0.45-1.2c-0.233-0.534-0.517-1.5-0.85-2.9
		c-0.4-1.767-0.733-3.1-1-4l-1.05,4.05L30.35,59.9z M61.4,12.9l2.05-0.9l20.9,0.45c0,0.167-0.25,1.583-0.75,4.25
		c-0.533,2.767-0.917,4.6-1.15,5.5c-0.034,0.033-0.233,1.25-0.6,3.65c-0.333,2.233-0.533,3.633-0.6,4.2l-0.2,5.55l-0.3-1
		c-0.267-1.2-0.583-3.667-0.95-7.4c-0.267-2.7-0.683-4.333-1.25-4.9l-0.45,0.15c-0.434,0.867-0.65,2.417-0.65,4.65
		c0,0.367,0.183,2.167,0.55,5.4s0.55,5.117,0.55,5.65c0,1-0.283,2.3-0.85,3.9c-0.6,1.733-0.95,3.117-1.05,4.15
		c-0.233,2.3-0.35,4.617-0.35,6.95c0,0.867,0.067,2.8,0.2,5.8c-1.7-0.267-3.233-0.55-4.6-0.85c-2.6-0.567-4.333-1.483-5.2-2.75
		c-0.233-0.333-1.35-1.167-3.35-2.5c-1.434-0.934-2.217-2.333-2.35-4.2c-0.367-1.433-0.783-7.183-1.25-17.25
		c-0.467-10.566-0.783-16.35-0.95-17.35L61.4,12.9z M95.75,31v-0.2l-1.1-9.7c-0.033-1.5-0.083-3-0.15-4.5
		c-0.133-3-0.25-4.5-0.35-4.5l0.55-0.05l11.5-0.85c-0.033,0.2-0.217,0.867-0.55,2c-0.334,1.167-0.684,2.883-1.051,5.15
		c-0.5,1.233-1.616,3.3-3.35,6.2c-1.333,2.167-2.05,3.967-2.15,5.4c0,1.233,0.75,12.05,2.25,32.45v0.5
		C99.316,51.667,97.45,41.033,95.75,31z M152.5,5.1c0,7.833-0.134,14.017-0.4,18.55l-0.1-0.5c-1-3.1-1.866-5.933-2.6-8.5
		C148,9.683,147.467,6.5,147.8,5.1H152.5z M154.1,29.8v-0.1c0.067,0.4,0.134,0.867,0.2,1.4c0.334,2.167,0.767,5.35,1.3,9.55
		c0.601,4.967,0.9,7.684,0.9,8.15c0,7.8-0.05,12.284-0.15,13.45c-0.033,0.367-0.366,1.4-1,3.1L154.9,65.2
		c-0.267-0.3-0.45-0.517-0.551-0.65c-0.133-0.133-0.233-0.233-0.3-0.3c-0.066-0.033-0.133-0.05-0.2-0.05
		c-0.066-0.767-0.133-1.534-0.199-2.3c-0.167-1.167-0.367-2.316-0.601-3.45l-0.55-3.75c-0.033-1.767-0.1-4.017-0.2-6.75l-0.05-0.8
		c-0.033-0.3-0.05-0.6-0.05-0.9c-0.167-3.4-0.25-5.133-0.25-5.2c0-0.267,0.033-0.517,0.1-0.75c0.134-0.7,0.483-1.333,1.05-1.9
		L154.1,29.8z M102.45,83.05c1.267,4.967,2.25,10.267,2.95,15.9c0.533,4.233,0.8,7.433,0.8,9.6c0,0.667-0.25,10.633-0.75,29.9H104.6
		c-0.866-0.601-1.316-1-1.35-1.2c-0.033-1.533-0.167-3.75-0.4-6.65c-0.3-4.1-0.649-6.616-1.05-7.55c-0.5-1.2-0.8-2.083-0.899-2.65
		c-0.601-4.3-1.084-23.333-1.45-57.1c0.1,2.333,0.45,5.367,1.05,9.1C100.934,75,101.583,78.55,102.45,83.05z M113.2,187.5
		c0-4.267,0.083-6.884,0.25-7.85c0.233-1.534,0.717-2.967,1.45-4.301c0.733-1.3,1.366-1.949,1.899-1.949
		c3.767,0,5.65,0.883,5.65,2.649c0,1.233-0.684,2.05-2.05,2.45c-1.667,0.467-2.65,0.983-2.95,1.55c-0.5,0.967-0.967,3.517-1.4,7.65
		c-0.399,3.866-1.017,6.316-1.85,7.35l-0.15-0.75C113.783,192.833,113.5,190.566,113.2,187.5z M61.45,51.05
		c0.6,7.467,2.167,19.15,4.7,35.05c0.467,2.566,0.75,4.483,0.85,5.75l0.15,3.1H67.1c-1.033-0.733-1.7-1.817-2-3.25
		c-0.233-1.034-0.333-2.767-0.3-5.2c-0.367-2.5-0.783-5.4-1.25-8.7c-0.966-6.7-1.65-14.767-2.05-24.2L61.45,51.05z M42.05,134.3
		l-2.7-2.1c-2-1.967-3.95-3.434-5.85-4.4c-1.133-0.566-1.7-1.15-1.7-1.75c0-0.667,0.467-1.183,1.4-1.55c0.8-0.3,1.8-0.433,3-0.4
		c0.9,0.033,1.833-0.417,2.8-1.35c1-0.9,1.583-1.35,1.75-1.35c1,0,2.883,0.383,5.65,1.15c0.967,0.267,1.767-0.45,2.4-2.15l0.65,1.15
		c0.433,0.833,0.65,1.45,0.65,1.85c0,2.167-1.383,3.283-4.15,3.35c-3.333,0.067-5.233,0.384-5.7,0.95c0.3,1.133,0.8,2.5,1.5,4.1
		c0.6,1.367,0.9,2.117,0.9,2.25C42.583,134.45,42.383,134.533,42.05,134.3z M69.75,115.5c-0.967-3.933-0.05-6.183,2.75-6.75
		c0.033-0.033,0.067-0.05,0.1-0.05c1.633-0.3,4.467-0.3,8.5,0c3.167-0.133,5.167-0.133,6,0l5.35,5.35
		c-2.034,0.367-3.3,1.75-3.8,4.15c-0.267,1.233-0.367,2.65-0.3,4.25l-0.4-0.2c-0.534-0.567-1.15-2.25-1.85-5.05
		c-0.4,0.433-1.217,0.216-2.45-0.65c-1.467-1-2.367-1.5-2.7-1.5c-2.4,0-4.067,0.25-5,0.75c-0.867,0.467-1.367,1.317-1.5,2.55
		c-0.067,0.633,0,2.283,0.2,4.95c0.2,2.833,0.233,5.434,0.1,7.8c-0.3-0.199-0.833-1.233-1.6-3.1c-0.833-2.067-1.383-3.267-1.65-3.6
		c-0.333-0.2-0.667-0.3-1-0.3c-0.067,0.4-0.2,0.783-0.4,1.15h-0.05v-0.05c-0.267-0.267-0.4-0.95-0.4-2.05c0-0.1,0.017-0.2,0.05-0.3
		c0.066-0.833,0.1-1.533,0.1-2.1L69.75,115.5z M65.4,124.3c-1.467,0.067-2.417,0.317-2.85,0.75c-0.3,0.267-0.45,0.75-0.45,1.45
		c0,1.767,0.483,3.866,1.45,6.3c0.867,2.267,1.25,3.95,1.15,5.05l-0.15,0.95l-0.35,0.851l-0.8-2.25l-1.15-1.75
		c-0.5-0.7-1.15-1.784-1.95-3.25c-0.833-1.5-1.466-2.551-1.9-3.15c-1.4-1.7-2.35-2.917-2.85-3.65c-0.867-1.2-1.3-2.583-1.3-4.15
		c0-1,0.983-1.633,2.95-1.9c1.133-0.133,3.1-0.283,5.9-0.45v-1h0.05c1.967,1.5,2.934,2.983,2.9,4.45
		C66.017,123.283,65.8,123.867,65.4,124.3z M78,86.55l-0.1-0.5c-0.667-4.966-0.833-11.9-0.5-20.8c0.333-9.567,1.133-16.3,2.4-20.2
		c-0.2,18.967-0.383,29.667-0.55,32.1C79.117,79.25,78.7,82.383,78,86.55z M130.1,126.2h0.051c0.267,1.967,0.816,5.366,1.649,10.2
		c0.7,4.666,1.05,8.816,1.05,12.449c0,0.867-0.149,1.567-0.449,2.101c-0.434,0.7-1.184,1.283-2.25,1.75
		c-0.5-0.4-0.75-1.101-0.75-2.101c-0.101-5-0.15-8.983-0.15-11.949C129.217,133.184,129.5,129.033,130.1,126.2z"/>
</g>
</svg>
