<?xml version="1.0" encoding="iso-8859-1"?>
<!-- Generator: Adobe Illustrator 15.1.0, SVG Export Plug-In . SVG Version: 6.00 Build 0)  -->
<!DOCTYPE svg PUBLIC "-//W3C//DTD SVG 1.1//EN" "http://www.w3.org/Graphics/SVG/1.1/DTD/svg11.dtd">
<svg version="1.1" id="Layer_1" xmlns="http://www.w3.org/2000/svg" xmlns:xlink="http://www.w3.org/1999/xlink" x="0px" y="0px"
	 width="89.8px" height="44.6px" viewBox="0 0 89.8 44.6" style="enable-background:new 0 0 89.8 44.6;" xml:space="preserve">
<g>
	<path style="fill-rule:evenodd;clip-rule:evenodd;fill:#635B52;" d="M88.4,17.7c0.333,0.466,0.666,1.15,1,2.05
		c0.267,0.767,0.399,1.217,0.399,1.35c0,0.5-0.149,2.333-0.45,5.5c-0.399,3.9-0.783,6.7-1.149,8.4c-0.2,0.967-0.8,1.783-1.8,2.45
		c-0.834,0.566-2.217,1.166-4.15,1.8c-0.366-0.3-1.017-1.2-1.95-2.7c-0.767-1.2-1.333-2.149-1.7-2.85l-0.5-0.851L76.65,30.95
		l-0.45-0.4c-0.634-0.566-1.2-0.883-1.7-0.95c-0.467,0.4-1.066,1.717-1.8,3.95c-0.733,2.101-1.384,4.417-1.95,6.95l-0.6,2.05
		l-14.75,1.5c0.733-0.434,1.566-0.8,2.5-1.1c0.6-0.767,0.899-3.3,0.899-7.601l-0.1-2.85c0.033-0.434,0.184-1.134,0.45-2.1
		L59.1,31.95c0.134,1.366,0.4,3.316,0.801,5.85c0.433,2.934,0.75,4.566,0.949,4.9c0.5-0.033,0.851-0.184,1.051-0.45
		c0.3-0.733,0.683-1.5,1.149-2.3c0.334-0.601,0.5-0.983,0.5-1.15c-0.633-1.633-0.983-2.55-1.05-2.75c1.667,0.533,3,0.8,4,0.8
		c0.733,0,1.384-0.166,1.95-0.5c0.066,0.167,0.116,0.25,0.149,0.25c0.034,0.067,0.051,0.301,0.051,0.7c0,0.4-0.034,0.717-0.101,0.95
		c1.334-2.233,2.167-3.783,2.5-4.65C71.65,31.9,73.4,28.267,76.3,22.7c0.601,0.899,1.601,2.899,3,6c0.601,1.333,1.566,2,2.9,2
		c1.833,0,3-0.867,3.5-2.601c0.666-3.399,1.55-6.733,2.649-10L88.4,17.7z M68.65,26c-0.167-0.033-0.717-0.3-1.65-0.8
		s-1.5-0.834-1.7-1l-0.35-1.3c1.2-0.433,2.434-0.75,3.7-0.95h4.05l0.1,3.35c0,0.434-0.05,0.767-0.149,1
		c-0.034,0.066-0.167,0.233-0.4,0.5L68.65,26z M57.4,20.4c0.3,0.434,1.55,2.95,3.75,7.55l-1.601-0.8
		c-0.267,0-0.483-0.184-0.649-0.551c-0.2-0.366-0.301-0.816-0.301-1.35c-0.1-0.2-0.333-0.533-0.699-1L57.35,23.5L55.2,21.15
		l-1.3-1.4c-0.934-0.667-1.767-1.217-2.5-1.65c-1-0.6-1.7-1.033-2.101-1.3l0.45-0.05l0.3-0.05c2.033,0,3.767,0.367,5.2,1.1
		C56.684,18.5,57.4,19.367,57.4,20.4z M19.65,17.05L19.1,17c0-0.833,0.3-1.533,0.9-2.1c0.567-0.6,1.25-0.9,2.05-0.9l0.1-0.05
		l-0.8,1.7C20.817,16.283,20.25,16.75,19.65,17.05z"/>
	<path style="fill-rule:evenodd;clip-rule:evenodd;fill:#898074;" d="M88.4,17.7l-0.051,0.4c-0.833,0.367-1.416,1.117-1.75,2.25
		c0,0.066-0.199,1.217-0.6,3.45c-0.566,3.233-2.2,5.233-4.9,6c-0.166-0.267-0.35-0.883-0.55-1.85c-0.166-0.9-0.25-1.617-0.25-2.15
		c0-2.366,0.634-4.283,1.9-5.75c1.5-1.767,2.399-3.316,2.7-4.65c0.133,0.067,0.683,0.417,1.649,1.05
		C87.55,17.083,88.167,17.5,88.4,17.7z M59.1,31.95l0.051-1.55c-0.267,0.966-0.417,1.666-0.45,2.1c-1.2,1.833-2.967,3.134-5.3,3.9
		c-1,0.333-3.017,0.733-6.051,1.199c-2.267,0.334-3.8,0.851-4.6,1.551c-1.167,0.966-1.517,2.6-1.05,4.899l-1.1-0.2
		c-1.1-0.166-3.15-0.783-6.15-1.85c-2.434-0.833-4.633-1.65-6.6-2.45c2.5-0.866,6.283-1.366,11.35-1.5
		c3.767-0.1,6.517-1.017,8.25-2.75c0.166-0.133,1.133-0.649,2.899-1.55c1.233-0.634,1.917-1.517,2.051-2.65
		c0.267-1.933,1.066-3.466,2.399-4.6c1.467-1.2,2.316-2.167,2.55-2.9c0-0.033,0-0.066,0-0.1l0.551,0.75c0.366,0.467,0.6,0.8,0.699,1
		c0,0.533,0.101,0.983,0.301,1.35c0.166,0.367,0.383,0.551,0.649,0.551c0.2,0.6,0.3,1.25,0.3,1.949
		C59.85,30.134,59.6,31.083,59.1,31.95z M70.75,40.5c1.5,0,2.783-0.967,3.85-2.9c1.067-1.966,1.601-4.316,1.601-7.05l0.45,0.4
		c0,0.1-0.167,1.517-0.5,4.25c-0.334,2.967-0.517,5.066-0.551,6.3c-2.066,0.5-3.883,0.85-5.449,1.05L70.75,40.5z M78.6,33.7
		c0.034,0.233,0.7,2.283,2,6.149l-0.55,0.25l-1.6,0.551c-0.101-3.801-0.217-6.4-0.351-7.801L78.6,33.7z M75.5,10.4l6.15,2.05
		c-0.434,0.4-0.45,0.8-0.051,1.2c0.267,0.267,0.851,0.617,1.75,1.05c-0.833-0.2-1.466-0.35-1.899-0.45
		C80.684,14.083,80.1,14,79.7,14c-0.8,0-1.55,0.367-2.25,1.1c-0.667,0.733-1.367,1.1-2.101,1.1c-0.633,0-1.183-0.184-1.649-0.55
		c-0.601-0.533-1.134-0.983-1.601-1.35c-2-1.4-5.449-2.35-10.35-2.85L60.2,11.4c0.333,0.233,1.366,0.8,3.1,1.7
		c1.834,0.967,2.983,1.6,3.45,1.9c0.634,0.4,1.083,1.133,1.35,2.2c0.2,0.8,0.25,1.433,0.15,1.9l-0.4-0.8L67.7,18.05
		c-0.5-1.066-2.267-2.583-5.3-4.55c-3-1.833-4.567-2.8-4.7-2.9c1.833,0.267,5.217,0.183,10.149-0.25L75.5,10.4z M43.3,44.3
		c0.4-1.2,0.934-2.083,1.601-2.649c0.399-0.334,1.383-0.9,2.949-1.7c-1.133,1-1.899,2.517-2.3,4.55L43.3,44.3z M57.4,20.4
		c0-1.033-0.717-1.9-2.15-2.6c-1.434-0.733-3.167-1.1-5.2-1.1l-0.75-0.25l0.45,0.3L49.3,16.8c0.4,0.267,1.101,0.7,2.101,1.3
		c0.733,0.433,1.566,0.983,2.5,1.65l1.3,1.4c-1.233-0.667-2.334-1.2-3.3-1.6c-0.667-0.267-1.084-0.466-1.25-0.6l-0.15-0.1
		c-0.033-0.033-0.066-0.05-0.1-0.05l-0.15-0.15l-0.8-0.6l1.35,0.25c-3.434-2.433-5.566-3.883-6.399-4.35
		c5.233,0.667,8.466,1.283,9.699,1.85c0.867,0.4,2.967,1.4,6.301,3l4.25,1.95L61.2,20.4c0.666,0.434,1.434,1.117,2.3,2.05
		c0.934,0.967,1.533,1.55,1.8,1.75c0.2,0.166,0.767,0.5,1.7,1s1.483,0.767,1.65,0.8c-0.2,3.2-0.817,5.467-1.851,6.8
		c-0.666,0.834-1.467,1.25-2.399,1.25c-1.101,0-1.684-0.5-1.75-1.5c0.1-1.467,0.183-2.684,0.25-3.649
		C63.134,24.934,61.3,22.1,57.4,20.4z M42.15,17.65c-1.933-2.467-2.95-3.75-3.05-3.85c-0.167-0.267-0.267-0.466-0.3-0.6
		c-0.1-0.2-0.15-0.517-0.15-0.95l0.05-1.1c1.033,0.8,1.933,1.767,2.7,2.9c0.467,0.667,1.233,1.8,2.3,3.4
		c1.033,1.767,1.666,2.966,1.899,3.6c0.2,0.5,0.301,1.117,0.301,1.85c0,0.4-0.017,0.617-0.051,0.65
		c-0.1-0.033-0.183-0.017-0.25,0.05l-0.5,0.5c-0.366,0.7-0.666,1.584-0.899,2.65c-0.8,0.866-1.55,1.517-2.25,1.95
		c-0.1-0.101,0.083-1.351,0.55-3.75c0.5-2.633,0.75-4.083,0.75-4.35c0-0.733-0.3-1.633-0.9-2.7L42.15,17.65z M17.15,14.95v4.45
		l0.1,0.95c0.3-0.167,0.633-0.684,1-1.55c0.467-1.066,0.75-1.667,0.85-1.8l0.55,0.05c-0.133,1.667-0.417,2.9-0.85,3.7
		c-0.466,0.867-1.15,1.3-2.05,1.3l-1.1-0.1L15.6,19.5c0-1,0.167-1.9,0.5-2.7C16.3,16.3,16.65,15.683,17.15,14.95z M16.05,29
		c-1.933-0.267-3.033-0.366-3.3-0.3c-1.367,0.434-2.183,2.116-2.45,5.05L7.25,32.4C7.65,31.6,8,30.85,8.3,30.15
		C8.867,28.85,9.15,27.6,9.15,26.4L9.1,25.3c0.833,0.867,1.433,1.434,1.8,1.7c0.5,0.366,1.05,0.55,1.65,0.55
		c0.467,0,1.3-0.366,2.5-1.1c1.333-0.834,2.184-1.3,2.55-1.4C17.167,26.384,16.65,27.7,16.05,29z M25.45,38.6L24.2,38.15
		c0.133-1.667,0.2-3.467,0.2-5.4c0-0.533-0.083-1.116-0.25-1.75c-0.2-0.667-0.367-0.95-0.5-0.85l2.5-11.7L26.3,33.4
		c0,0.666-0.066,1.517-0.2,2.55C25.9,37.217,25.683,38.1,25.45,38.6z M51.6,44.4L50.2,44.5c0.333-2.733,0.5-4.566,0.5-5.5l0.3-0.05
		c0.033,0.233,0.1,1.066,0.2,2.5C51.3,42.75,51.434,43.733,51.6,44.4z"/>
	<path style="fill-rule:evenodd;clip-rule:evenodd;fill:#7C7367;" d="M88.35,18.1c-1.1,3.267-1.983,6.6-2.649,10
		c-0.5,1.733-1.667,2.601-3.5,2.601c-1.334,0-2.3-0.667-2.9-2c-1.399-3.101-2.399-5.101-3-6C73.4,28.267,71.65,31.9,71.05,33.6
		c-0.333,0.867-1.166,2.417-2.5,4.65c0.066-0.233,0.101-0.55,0.101-0.95c0-0.399-0.017-0.633-0.051-0.7
		c-0.033,0-0.083-0.083-0.149-0.25c-0.566,0.334-1.217,0.5-1.95,0.5c-1,0-2.333-0.267-4-0.8c0.066,0.2,0.417,1.117,1.05,2.75
		c0,0.167-0.166,0.55-0.5,1.15c-0.467,0.8-0.85,1.566-1.149,2.3c-0.2,0.267-0.551,0.417-1.051,0.45
		c-0.199-0.334-0.517-1.967-0.949-4.9c-0.4-2.533-0.667-4.483-0.801-5.85c0.5-0.867,0.75-1.816,0.75-2.851
		c0-0.699-0.1-1.35-0.3-1.949l1.601,0.8c-2.2-4.601-3.45-7.117-3.75-7.55c3.899,1.7,5.733,4.534,5.5,8.5
		c-0.067,0.966-0.15,2.183-0.25,3.649c0.066,1,0.649,1.5,1.75,1.5c0.933,0,1.733-0.416,2.399-1.25c1.033-1.333,1.65-3.6,1.851-6.8
		l3.6,0.8c0.233-0.267,0.366-0.434,0.4-0.5c0.1-0.233,0.149-0.566,0.149-1l-0.1-3.35h-4.05c-1.267,0.2-2.5,0.517-3.7,0.95l0.35,1.3
		c-0.267-0.2-0.866-0.783-1.8-1.75c-0.866-0.934-1.634-1.617-2.3-2.05l3.45,0.35c1.267,0.2,2.183,0.05,2.75-0.45
		c0.333-0.267,0.616-0.667,0.85-1.2c0.1-0.467,0.05-1.1-0.15-1.9c-0.267-1.067-0.716-1.8-1.35-2.2c-0.467-0.3-1.616-0.933-3.45-1.9
		c-1.733-0.9-2.767-1.467-3.1-1.7l1.55,0.05c4.9,0.5,8.35,1.45,10.35,2.85c0.467,0.367,1,0.817,1.601,1.35
		c0.467,0.367,1.017,0.55,1.649,0.55c0.733,0,1.434-0.367,2.101-1.1c0.7-0.733,1.45-1.1,2.25-1.1c0.399,0,0.983,0.083,1.75,0.25
		c0.434,0.1,1.066,0.25,1.899,0.45l1.551,0.7c-0.301,1.333-1.2,2.883-2.7,4.65c-1.267,1.467-1.9,3.384-1.9,5.75
		c0,0.533,0.084,1.25,0.25,2.15c0.2,0.967,0.384,1.583,0.55,1.85c2.7-0.767,4.334-2.767,4.9-6c0.4-2.233,0.6-3.383,0.6-3.45
		C86.934,19.217,87.517,18.467,88.35,18.1z M55.4,44.05L51.6,44.4c-0.166-0.667-0.3-1.65-0.399-2.95
		c-0.101-1.434-0.167-2.267-0.2-2.5L50.7,39c-1.167,0.333-2.117,0.65-2.851,0.95c-1.566,0.8-2.55,1.366-2.949,1.7
		C44.233,42.217,43.7,43.1,43.3,44.3l-1.6-0.25c-0.467-2.3-0.117-3.934,1.05-4.899c0.8-0.7,2.333-1.217,4.6-1.551
		c3.034-0.466,5.051-0.866,6.051-1.199c2.333-0.767,4.1-2.067,5.3-3.9l0.1,2.85c0,4.301-0.3,6.834-0.899,7.601
		C56.967,43.25,56.134,43.616,55.4,44.05z M76.2,30.55c0,2.733-0.533,5.084-1.601,7.05c-1.066,1.934-2.35,2.9-3.85,2.9
		c0.566-2.533,1.217-4.85,1.95-6.95c0.733-2.233,1.333-3.55,1.8-3.95C75,29.667,75.566,29.983,76.2,30.55z M81.25,39.65L80.6,39.85
		c-1.3-3.866-1.966-5.916-2-6.149c0.367,0.7,0.934,1.649,1.7,2.85c0.934,1.5,1.584,2.4,1.95,2.7L81.25,39.65z M19.1,17
		c-0.1,0.133-0.383,0.733-0.85,1.8c-0.367,0.867-0.7,1.383-1,1.55l-0.1-0.95v-4.45V14.9L18.1,14c1.233-0.733,3.417-1.417,6.55-2.05
		c-0.566,0.533-1.15,1.033-1.75,1.5c-0.5,0.333-0.783,0.517-0.85,0.55c-0.8,0-1.483,0.3-2.05,0.9C19.4,15.467,19.1,16.167,19.1,17z
		 M10.3,33.75c0.267-2.934,1.083-4.616,2.45-5.05c0.267-0.066,1.367,0.033,3.3,0.3c0.3,1.167-0.283,3.2-1.75,6.1
		C13,34.7,11.667,34.25,10.3,33.75z M24.2,38.15l-2.1-0.801c-0.167-2.899,0.35-5.3,1.55-7.199c0.133-0.101,0.3,0.183,0.5,0.85
		c0.167,0.634,0.25,1.217,0.25,1.75C24.4,34.684,24.333,36.483,24.2,38.15z"/>
	<path style="fill-rule:evenodd;clip-rule:evenodd;fill:#B3AA9E;" d="M80.6,39.85l0.65-0.199l-1.2,0.449L80.6,39.85z M45.55,17.35
		l-1.85,0.1c-1.067-1.6-1.833-2.733-2.3-3.4c-0.767-1.133-1.667-2.1-2.7-2.9l-0.05,1.1c0,0.433,0.05,0.75,0.15,0.95
		c0.034,0.133,0.133,0.333,0.3,0.6l-0.6-0.5l2,4.3c-2.233,0-4.283,0.05-6.15,0.15c-1.467,0.067-2.367,0.1-2.7,0.1
		c-1.2,0-2.55-0.233-4.05-0.7c-3.133-1-4.717-1.5-4.75-1.5l1.2,0.85c0.067,0.033,0.317,0.15,0.75,0.35c-1.533-0.6-2.683-1-3.45-1.2
		l0.8-1.7L22.05,14c0.067-0.033,0.35-0.217,0.85-0.55c0.6-0.467,1.184-0.967,1.75-1.5c-3.133,0.633-5.316,1.316-6.55,2.05l-0.95,0.9
		c-1.233,0.067-2.583-0.333-4.05-1.2c-1.267-0.9-1.95-1.383-2.05-1.45c5.633,0,10.333-0.317,14.1-0.95
		c-1.333-0.233-2.333-0.35-3-0.35c-3.167,0.367-5.45,0.55-6.85,0.55c-2.4,0.033-4.367-0.8-5.9-2.5c3-1.967,6.333-3.833,10-5.6
		C24.133,1.133,27.65,0,29.95,0c3.2,0,9.316,0.883,18.35,2.65c9.134,1.8,14.75,3.233,16.851,4.3L73.7,9.8l1.8,0.6l-7.65-0.05
		L73.7,9.8C72.634,9.567,69.934,9.3,65.6,9C60.9,8.667,56.95,8.5,53.75,8.5c-0.767,0-1.55,0.15-2.35,0.45l0.25,0.3
		c1.1,0.4,1.85,0.633,2.25,0.7c0.399,0.1,1.666,0.316,3.8,0.65c0.133,0.1,1.7,1.066,4.7,2.9c3.033,1.967,4.8,3.483,5.3,4.55
		c-4.2-1.533-7.767-2.8-10.7-3.8c-5.533-1.933-9.634-3.083-12.3-3.45l-1.15,0.15L44,11.1c1.167,0.5,2.983,1.316,5.45,2.45
		c3.133,1.333,7.767,3.034,13.899,5.1L60.4,18.8c-3.334-1.6-5.434-2.6-6.301-3c-1.233-0.566-4.466-1.183-9.699-1.85
		c-0.367-0.133-0.817-0.184-1.351-0.15c-0.466,0.067-0.75,0.1-0.85,0.1l-0.05,0.75c0,0.2,0.283,0.583,0.85,1.15
		C43.733,16.5,44.583,17.017,45.55,17.35z M49.3,18.05h0.15l0.8,0.6C49.917,18.417,49.6,18.217,49.3,18.05z M48.8,4.6l-1,0.05
		c0.066,0.1,0.2,0.317,0.4,0.65c0.366,0.3,1.033,0.45,2,0.45c1.366,0,3.467-0.267,6.3-0.8C52.033,4.717,49.467,4.6,48.8,4.6z
		 M42.3,17.95l-0.15-0.3l0.2,0.25L42.3,17.95z M28.1,18.1c1.6,0.533,3.017,0.883,4.25,1.05l-1.45,0.1
		C29.9,18.817,28.967,18.433,28.1,18.1z M24.2,38.15l1.25,0.449l0.45,0.2c-0.7-0.267-1.95-0.7-3.75-1.3
		c-1.733-0.6-3.05-1.05-3.95-1.35l3.9,1.199L24.2,38.15z M49.75,16.75l-0.45-0.3l0.75,0.25L49.75,16.75z M41.7,44.05l1.6,0.25
		l2.25,0.2l0.95,0.05c-2.066,0-4.033-0.233-5.9-0.7L41.7,44.05z M50.2,44.5l1.399-0.1L55.4,44.05
		C53.833,44.283,52.1,44.434,50.2,44.5z M27.5,8.6l-0.65,0.95c0.733,0.367,1.95,0.383,3.65,0.05L27.5,8.6z M22.8,5.6
		c-0.8-0.5-1.466-0.517-2-0.05l0.25,0.05H22.8z M31.9,5.8c2.1,0,3.733-0.167,4.9-0.5l-0.3-1c-3.8-0.2-6.283,0.017-7.45,0.65
		L29.2,5.2c0.1,0.1,0.267,0.233,0.5,0.4L31.9,5.8z"/>
	<path style="fill-rule:evenodd;clip-rule:evenodd;fill:#D2C8BA;" d="M67.85,18.3l-0.05,0.9H65.4c-0.434-0.067-0.9-0.184-1.4-0.35
		l-0.65-0.2c-6.133-2.066-10.767-3.767-13.899-5.1c-2.467-1.133-4.283-1.95-5.45-2.45l-0.45-0.15l1.15-0.15
		c2.666,0.367,6.767,1.517,12.3,3.45c2.934,1,6.5,2.267,10.7,3.8L67.85,18.3z M67.85,10.35c-4.933,0.433-8.316,0.517-10.149,0.25
		c-2.134-0.333-3.4-0.55-3.8-0.65c-0.4-0.067-1.15-0.3-2.25-0.7l-0.25-0.3c0.8-0.3,1.583-0.45,2.35-0.45c3.2,0,7.15,0.167,11.85,0.5
		c4.334,0.3,7.034,0.567,8.101,0.8L67.85,10.35z M48.8,4.6c0.667,0,3.233,0.117,7.7,0.35c-2.833,0.533-4.934,0.8-6.3,0.8
		c-0.967,0-1.634-0.15-2-0.45c-0.2-0.333-0.334-0.55-0.4-0.65L48.8,4.6z M49.3,18.05c-1.066-0.7-1.717-0.95-1.95-0.75
		c-0.199,0.167-0.366,0.267-0.5,0.3c-0.166,0-0.316-0.033-0.449-0.1l-0.851-0.15c-0.967-0.333-1.816-0.85-2.55-1.55
		c-0.567-0.566-0.85-0.95-0.85-1.15l0.05-0.75c0.1,0,0.383-0.033,0.85-0.1c0.534-0.033,0.983,0.017,1.351,0.15
		c0.833,0.466,2.966,1.917,6.399,4.35l-1.35-0.25H49.3z M44.2,26.75c0.2-0.2,0.399-0.583,0.6-1.15c0.167-0.533,0.267-1.033,0.3-1.5
		l0.5-0.5c0.634,2.567,0.567,4.667-0.199,6.301c-0.767,1.666-2.101,2.5-4,2.5c-0.367,0-0.633-0.017-0.8-0.051
		c-0.167-0.066-0.3-0.1-0.4-0.1l-0.3-1.15c0.1-0.566,0.3-0.983,0.6-1.25c0.233-0.199,0.717-0.583,1.45-1.149
		C42.65,28.267,43.4,27.616,44.2,26.75z M39.1,13.8c0.1,0.1,1.117,1.383,3.05,3.85l0.15,0.3c0.133,0.466,0.184,0.9,0.15,1.3
		c-2.567,0.433-4.333,0.667-5.3,0.7l-1.85-0.1c-0.667,1.033-1.617,2.617-2.85,4.75c-1.733,2.934-2.6,4.567-2.6,4.9
		c0,0.667-0.117,0.9-0.35,0.7l-0.45-0.15c-0.3-0.566-0.6-1.184-0.9-1.85c-0.6-1.334-0.9-2.733-0.9-4.2c0-1.667,0.367-2.8,1.1-3.4
		c0.433-0.333,1.283-0.783,2.55-1.35l1.45-0.1c-1.233-0.167-2.65-0.517-4.25-1.05c-0.367-0.133-0.733-0.267-1.1-0.4
		c-0.967-0.4-1.7-0.684-2.2-0.85c-0.433-0.2-0.683-0.317-0.75-0.35l-1.2-0.85c0.033,0,1.617,0.5,4.75,1.5
		c1.5,0.467,2.85,0.7,4.05,0.7c0.333,0,1.233-0.033,2.7-0.1c1.867-0.1,3.917-0.15,6.15-0.15l-2-4.3L39.1,13.8z M6.9,11.15L6.85,11.1
		L9.4,9c1.533,1.7,3.5,2.533,5.9,2.5c1.4,0,3.684-0.183,6.85-0.55c0.667,0,1.667,0.117,3,0.35c-3.767,0.633-8.467,0.95-14.1,0.95
		c-0.167,0-0.85-0.167-2.05-0.5C7.833,11.45,7.133,11.25,6.9,11.15z M2.85,29.95c-2.9-1.101-3.583-3.9-2.05-8.4
		c0.567-1.667,1.917-4.367,4.05-8.1l0.3-0.4c1.267,0.1,2.267,0.4,3,0.9c0.4,0.267,0.7,0.55,0.9,0.85
		c-0.267,0.833-0.816,1.883-1.65,3.15C6.433,19.417,5.633,20.9,5,22.4c-0.2,0.467-0.567,1.734-1.1,3.8S3.017,29.517,2.85,29.95z
		 M31.9,5.8l-2.2-0.2c-0.233-0.167-0.4-0.3-0.5-0.4l-0.15-0.25C30.217,4.317,32.7,4.1,36.5,4.3l0.3,1C35.633,5.633,34,5.8,31.9,5.8z
		 M22.8,5.6h-1.75L20.8,5.55C21.333,5.083,22,5.1,22.8,5.6z M27.5,8.6l3,1c-1.7,0.333-2.917,0.316-3.65-0.05L27.5,8.6z M8.55,20.5
		c-0.033-0.033-0.066-0.2-0.1-0.5C8.783,19.567,9,19.1,9.1,18.6c0.2-0.434,0.883-0.983,2.05-1.65L11.1,17.9l-0.15,0.8
		c-0.167,1.333-0.7,2-1.6,2C8.917,20.7,8.65,20.633,8.55,20.5z M39.55,23.05c-0.2,0.2-0.433,0.3-0.7,0.3s-0.5-0.1-0.7-0.3
		c-0.2-0.2-0.3-0.45-0.3-0.75c0-0.3,0.1-0.55,0.3-0.75c0.2-0.2,0.434-0.3,0.7-0.3s0.5,0.1,0.7,0.3c0.2,0.2,0.3,0.45,0.3,0.75
		C39.85,22.6,39.75,22.85,39.55,23.05z M12.25,24l-0.8,0.1C10.583,24.033,9.867,23.9,9.3,23.7l0.95-1
		c0.833-0.5,1.583-0.867,2.25-1.1C12.5,23.1,12.417,23.9,12.25,24z"/>
	<path style="fill-rule:evenodd;clip-rule:evenodd;fill:#9B9286;" d="M78.1,32.85c0.134,1.4,0.25,4,0.351,7.801L75.6,41.5
		c0.034-1.233,0.217-3.333,0.551-6.3c0.333-2.733,0.5-4.15,0.5-4.25L78.1,32.85z M64.65,20.75L60.4,18.8l2.949-0.15l0.65,0.2
		c0.5,0.167,0.967,0.283,1.4,0.35H67.8l0.05-0.9l0.4,0.8c-0.233,0.533-0.517,0.933-0.85,1.2C66.833,20.8,65.917,20.95,64.65,20.75z
		 M49.3,18.05c0.3,0.167,0.617,0.367,0.95,0.6l0.15,0.15c0.033,0,0.066,0.017,0.1,0.05l0.15,0.1c0.166,0.133,0.583,0.333,1.25,0.6
		c0.966,0.4,2.066,0.934,3.3,1.6l2.149,2.35c0,0.033,0,0.066,0,0.1c-0.233,0.733-1.083,1.7-2.55,2.9
		c-1.333,1.134-2.133,2.667-2.399,4.6c-0.134,1.134-0.817,2.017-2.051,2.65c-1.767,0.9-2.733,1.417-2.899,1.55
		c-1.733,1.733-4.483,2.65-8.25,2.75c-5.067,0.134-8.85,0.634-11.35,1.5l-1.35-0.5c-0.033-0.033-0.233-0.116-0.6-0.25l-0.45-0.2
		c0.233-0.5,0.45-1.383,0.65-2.649c0.133-1.033,0.2-1.884,0.2-2.55l-0.15-14.95l-2.5,11.7c-1.2,1.899-1.717,4.3-1.55,7.199
		l-3.9-1.199L14.3,35.1c1.467-2.899,2.05-4.933,1.75-6.1c0.6-1.3,1.117-2.616,1.55-3.95c-0.367,0.101-1.217,0.566-2.55,1.4
		c-1.2,0.733-2.033,1.1-2.5,1.1c-0.6,0-1.15-0.184-1.65-0.55c-0.367-0.267-0.967-0.833-1.8-1.7L9.15,26.4
		c0,1.199-0.283,2.449-0.85,3.75C8,30.85,7.65,31.6,7.25,32.4l-4.4-2.45c0.167-0.434,0.517-1.684,1.05-3.75s0.9-3.333,1.1-3.8
		c0.633-1.5,1.433-2.983,2.4-4.45c0.833-1.267,1.383-2.317,1.65-3.15c-0.2-0.3-0.5-0.583-0.9-0.85c-0.733-0.5-1.733-0.8-3-0.9
		L5.5,12.6l1.35-1.45H6.9c0.233,0.1,0.934,0.3,2.1,0.6c1.2,0.333,1.883,0.5,2.05,0.5c0.1,0.067,0.784,0.55,2.05,1.45
		c1.467,0.867,2.816,1.267,4.05,1.2v0.05c-0.5,0.733-0.85,1.35-1.05,1.85c-0.333,0.8-0.5,1.7-0.5,2.7l0.05,2.45l1.1,0.1
		c0.9,0,1.583-0.433,2.05-1.3c0.434-0.8,0.717-2.033,0.85-3.7c0.6-0.3,1.167-0.767,1.7-1.4c0.767,0.2,1.917,0.6,3.45,1.2
		c0.5,0.167,1.233,0.45,2.2,0.85c0.367,0.133,0.733,0.267,1.1,0.4c0.867,0.333,1.8,0.717,2.8,1.15
		c-1.267,0.567-2.117,1.017-2.55,1.35c-0.733,0.6-1.1,1.733-1.1,3.4c0,1.467,0.3,2.866,0.9,4.2c0.3,0.666,0.6,1.283,0.9,1.85
		l0.45,0.15c0.233,0.2,0.35-0.033,0.35-0.7c0-0.333,0.867-1.967,2.6-4.9c1.233-2.133,2.183-3.716,2.85-4.75l1.85,0.1
		c0.967-0.034,2.733-0.267,5.3-0.7c0.033-0.4-0.017-0.833-0.15-1.3l0.05-0.05c0.6,1.067,0.9,1.967,0.9,2.7
		c0,0.267-0.25,1.717-0.75,4.35c-0.467,2.399-0.65,3.649-0.55,3.75c-0.733,0.566-1.217,0.95-1.45,1.149
		c-0.3,0.267-0.5,0.684-0.6,1.25l0.3,1.15c0.1,0,0.233,0.033,0.4,0.1c0.167,0.034,0.433,0.051,0.8,0.051c1.9,0,3.234-0.834,4-2.5
		c0.767-1.634,0.833-3.733,0.199-6.301c0.067-0.066,0.15-0.083,0.25-0.05c0.034-0.033,0.051-0.25,0.051-0.65
		c0-0.733-0.101-1.35-0.301-1.85c-0.233-0.633-0.866-1.833-1.899-3.6l1.85-0.1L46.4,17.5c0.133,0.067,0.283,0.1,0.449,0.1
		c0.134-0.033,0.301-0.133,0.5-0.3C47.583,17.1,48.233,17.35,49.3,18.05z M50.7,39c0,0.934-0.167,2.767-0.5,5.5
		c-1.367,0.1-2.601,0.116-3.7,0.05l-0.95-0.05c0.4-2.033,1.167-3.55,2.3-4.55C48.583,39.65,49.533,39.333,50.7,39z M45.1,24.1
		c-0.033,0.467-0.133,0.967-0.3,1.5c-0.2,0.567-0.399,0.95-0.6,1.15C44.434,25.684,44.733,24.8,45.1,24.1z M39.55,23.05
		c0.2-0.2,0.3-0.45,0.3-0.75c0-0.3-0.1-0.55-0.3-0.75c-0.2-0.2-0.433-0.3-0.7-0.3s-0.5,0.1-0.7,0.3c-0.2,0.2-0.3,0.45-0.3,0.75
		c0,0.3,0.1,0.55,0.3,0.75c0.2,0.2,0.434,0.3,0.7,0.3S39.35,23.25,39.55,23.05z M8.55,20.5c0.1,0.133,0.367,0.2,0.8,0.2
		c0.9,0,1.433-0.667,1.6-2l0.15-0.8l0.05-0.95C9.983,17.617,9.3,18.167,9.1,18.6C9,19.1,8.783,19.567,8.45,20
		C8.483,20.3,8.517,20.467,8.55,20.5z M12.25,24c0.167-0.1,0.25-0.9,0.25-2.4c-0.667,0.233-1.417,0.6-2.25,1.1l-0.95,1
		c0.567,0.2,1.284,0.333,2.15,0.399L12.25,24z"/>
</g>
</svg>
