<?xml version="1.0" encoding="iso-8859-1"?>
<!-- Generator: Adobe Illustrator 15.1.0, SVG Export Plug-In . SVG Version: 6.00 Build 0)  -->
<!DOCTYPE svg PUBLIC "-//W3C//DTD SVG 1.1//EN" "http://www.w3.org/Graphics/SVG/1.1/DTD/svg11.dtd">
<svg version="1.1" id="Layer_1" xmlns="http://www.w3.org/2000/svg" xmlns:xlink="http://www.w3.org/1999/xlink" x="0px" y="0px"
	 width="70.3px" height="48.2px" viewBox="0 0 70.3 48.2" style="enable-background:new 0 0 70.3 48.2;" xml:space="preserve">
<g>
	<path style="fill-rule:evenodd;clip-rule:evenodd;fill:#B3AA9E;" d="M63.3,16.75L67.9,21.8l-0.2,0.3l-0.05,0.1
		c-0.9,1.133-1.784,1.9-2.65,2.3c-0.634,0.267-1.483,0.4-2.55,0.4L59.1,24.75c-0.966-0.267-2.866-0.6-5.699-1
		c-2.7-0.4-4.367-0.6-5-0.6c-3.233,0-5.267,0.4-6.101,1.2c-0.033,0.033-0.233,0.316-0.6,0.85c-0.2,0.267-0.5,0.416-0.9,0.45
		c-0.7,0.066-2.1,0.1-4.2,0.1c-1.866-0.033-3.083,0.017-3.649,0.15c-1.267,0.267-2.583,0.6-3.95,1l-1.7,0.5
		c-1.2,0-2.966-0.4-5.3-1.2c-2.5-0.9-4.033-1.767-4.6-2.6c0.333-0.3,0.934-0.667,1.8-1.1c0.833-0.4,1.417-0.65,1.75-0.75
		c-0.733,0.467-1.417,1.1-2.05,1.9l0.5,0.15l12.45-1.4c1-0.633,2.2-1.25,3.6-1.85c0.566-0.233,0.85-0.633,0.85-1.2
		c0-0.4-0.05-0.617-0.149-0.65c-0.134,0.066-0.2,0.066-0.2,0c-0.967,0.033-3.367,0.35-7.2,0.95l2.55-0.85l-1.1,0.1
		c0,0.133-1.483,0.15-4.45,0.05c0.967-0.3,1.567-0.617,1.8-0.95l-0.85,0.5l-1.05,0.45c-3.6,0.433-7.133,0.05-10.6-1.15
		C8.583,15.6,5.233,14.467,5,14.4l0.9-0.15l0.85-0.3C7.95,13.35,11.7,11.5,18,8.4c6-2.967,9.617-4.867,10.85-5.7l-0.2-0.05
		c1.033-1.033,2.333-1.767,3.9-2.2C33.55,0.15,34.5,0,35.4,0c0.233,0,1.116,0.25,2.649,0.75c1.601,0.533,2.767,0.983,3.5,1.35
		C41.184,1.967,40.667,2.033,40,2.3c-0.733,0.3-1.35,0.7-1.85,1.2c0.399,0.567,1.083,1.05,2.05,1.45c1.2,0.5,2.633,0.75,4.3,0.75
		c1.066,0,2.184-0.133,3.35-0.4c0.067,0.034,1.617,0.684,4.65,1.95c0.4,0.167,0.783,0.35,1.15,0.55
		c-0.101-0.033-0.184-0.05-0.25-0.05c-0.9,0-3.801,1.383-8.7,4.15c-4.566,2.567-7.05,4.05-7.45,4.45l0.3-0.05
		c0.834-0.3,1.851-0.833,3.05-1.6c1.334-0.567,3.25-0.817,5.75-0.75H49.2c-2.667,0.9-5.334,1.6-8,2.1
		c-2.033,0.367-3.2,0.65-3.5,0.85c0.066,0.1,0.166,0.217,0.3,0.35l1.2,0.05c1.7,0,4.434-0.267,8.2-0.8
		c1.899-0.267,3.767-0.533,5.6-0.8l-0.2,0.65c0.533,0.1,0.983,0.15,1.351,0.15c0.666,0,0.966-0.033,0.899-0.1
		c0.267,0.1,0.601,0.217,1,0.35c0.3,0.133,0.483,0.317,0.55,0.55c-0.066,0.267-0.166,0.517-0.3,0.75c-0.5,0.2-1.833,0.383-4,0.55
		c-2.333,0.167-3.783,0.267-4.35,0.3v0.6c0.233,0.167,0.816,0.333,1.75,0.5c0.866,0.167,1.566,0.25,2.1,0.25L62.95,20
		C63.017,19.033,63.134,17.95,63.3,16.75z M58.05,10.45c-1.2-0.833-2.066-1.417-2.6-1.75c1.5,0.8,2.533,1.5,3.1,2.1L58.05,10.45z
		 M43.85,6.4v0.7c1.367,0.033,2.684-0.033,3.95-0.2c1.101-0.133,1.884-0.3,2.351-0.5H43.85z M41.15,10.7
		C41.55,10.9,42.033,11,42.6,11c0.567,0,1.051-0.1,1.45-0.3c0.4-0.2,0.601-0.434,0.601-0.7s-0.2-0.5-0.601-0.7
		C43.65,9.1,43.167,9,42.6,9c-0.566,0-1.05,0.1-1.449,0.3c-0.4,0.2-0.601,0.434-0.601,0.7S40.75,10.5,41.15,10.7z M31.45,7.25
		c0.033-0.167,0.05-0.317,0.05-0.45c0-0.5-0.333-0.917-1-1.25C29.8,5.183,28.967,5,28,5s-1.783,0.183-2.45,0.55
		C24.85,5.883,24.5,6.3,24.5,6.8s0.35,0.934,1.05,1.3c0.667,0.333,1.483,0.5,2.45,0.5s1.8-0.167,2.5-0.5
		c0.1-0.067,0.2-0.133,0.3-0.2c0.067,0.133,0.267,0.267,0.6,0.4c0.434,0.133,0.967,0.2,1.6,0.2s1.167-0.067,1.6-0.2
		c0.433-0.167,0.65-0.35,0.65-0.55s-0.217-0.367-0.65-0.5C34.167,7.083,33.633,7,33,7S31.85,7.083,31.45,7.25z M23.15,11.65
		c0,0.067,0.5,0.067,1.5,0c1.067-0.066,1.9-0.15,2.5-0.25c-1.533-0.467-2.633-0.7-3.3-0.7c-0.4,0-0.633,0.167-0.7,0.5
		C23.117,11.333,23.117,11.483,23.15,11.65z M33.1,15.6c0.2-0.5,0.117-1.133-0.25-1.9c-2.1,0.9-3.3,1.466-3.6,1.7
		c0.733,0.3,1.533,0.45,2.4,0.45C32.317,15.85,32.8,15.767,33.1,15.6z M16.95,11c-0.4,0.2-0.6,0.433-0.6,0.7
		c0,0.267,0.2,0.5,0.6,0.7c0.367,0.2,0.816,0.3,1.35,0.3c0.534,0,1-0.1,1.4-0.3c0.367-0.2,0.55-0.433,0.55-0.7
		c0-0.267-0.183-0.5-0.55-0.7c-0.4-0.2-0.867-0.3-1.4-0.3C17.767,10.7,17.317,10.8,16.95,11z"/>
	<path style="fill-rule:evenodd;clip-rule:evenodd;fill:#8C847C;" d="M55.05,16.4L53,15.7c-1.833,0.267-3.7,0.533-5.6,0.8
		c-3.767,0.533-6.5,0.8-8.2,0.8L38,17.25c-0.134-0.133-0.233-0.25-0.3-0.35c0.3-0.2,1.467-0.483,3.5-0.85c2.666-0.5,5.333-1.2,8-2.1
		c0.899-0.367,2.45-1,4.649-1.9c2.4-0.966,3.801-1.5,4.2-1.6l0.5,0.35c0.634,0.6,1,0.983,1.101,1.15
		c0.066,0.167,0.017,0.367-0.15,0.6l3.8,4.2c-0.166,1.2-0.283,2.283-0.35,3.25L51.8,20.25c-0.533,0-1.233-0.083-2.1-0.25
		c-0.934-0.167-1.517-0.333-1.75-0.5v-0.6c0.566-0.033,2.017-0.133,4.35-0.3c2.167-0.167,3.5-0.35,4-0.55
		c0.134-0.233,0.233-0.483,0.3-0.75c-0.066-0.233-0.25-0.417-0.55-0.55C55.65,16.617,55.316,16.5,55.05,16.4z M20.95,21.75
		c0.633-0.2,3.233-0.9,7.8-2.1c3.833-0.6,6.233-0.917,7.2-0.95c0,0.066,0.066,0.066,0.2,0c0.1,0.033,0.149,0.25,0.149,0.65
		c0,0.566-0.283,0.967-0.85,1.2c-1.4,0.6-2.6,1.217-3.6,1.85L19.4,23.8l-0.5-0.15C19.533,22.85,20.217,22.217,20.95,21.75z
		 M43.85,6.4h6.301C49.684,6.6,48.9,6.767,47.8,6.9c-1.267,0.167-2.583,0.233-3.95,0.2V6.4z M30.8,7.9
		c-0.033-0.066-0.05-0.117-0.05-0.15c0-0.2,0.217-0.367,0.65-0.5h0.05C31.85,7.083,32.367,7,33,7s1.167,0.083,1.6,0.25
		c0.433,0.133,0.65,0.3,0.65,0.5S35.033,8.133,34.6,8.3c-0.434,0.133-0.967,0.2-1.6,0.2s-1.167-0.067-1.6-0.2
		C31.067,8.167,30.867,8.033,30.8,7.9z M23.15,11.65c-0.033-0.167-0.033-0.316,0-0.45c0.067-0.333,0.3-0.5,0.7-0.5
		c0.667,0,1.767,0.233,3.3,0.7c-0.6,0.1-1.433,0.184-2.5,0.25C23.65,11.717,23.15,11.717,23.15,11.65z M33.1,15.6
		c-0.3,0.167-0.783,0.25-1.45,0.25c-0.867,0-1.667-0.15-2.4-0.45c0.3-0.233,1.5-0.8,3.6-1.7C33.217,14.467,33.3,15.1,33.1,15.6z"/>
	<path style="fill-rule:evenodd;clip-rule:evenodd;fill:#635B52;" d="M28.9,29.55c2.233-0.2,5.967-0.85,11.2-1.95
		c5.467-1.166,11.801-2.116,19-2.85l3.351,0.15c1.066,0,1.916-0.133,2.55-0.4c0.866-0.4,1.75-1.167,2.65-2.3l0.05-0.1l0.2-0.3v-0.05
		l1.6,1.8c-0.2,0.267-0.483,0.817-0.85,1.65c-0.4,0.899-0.7,1.684-0.9,2.35l-0.05,0.3l-0.101,0.5c-0.399,1.7-0.583,3.4-0.55,5.101
		c-0.1,1.033-0.983,1.916-2.649,2.649L63.7,36.2c0.399-0.934,0.833-2.684,1.3-5.25c0-1.5-0.717-2.684-2.15-3.55
		c-1.133-0.7-2.283-1.051-3.449-1.051c-0.233,0-1.15,0.4-2.75,1.2l-2.45,1.2c-0.4,0-0.634-0.033-0.7-0.1l0.05-0.101
		c-0.233-0.399-0.366-1.133-0.399-2.2h-3.4c-1.667,1.101-3.783,2.067-6.35,2.9c-2.733,0.833-4.7,1.467-5.9,1.9
		c-4.033,1.533-6.05,4.383-6.05,8.55L31.5,42.6c-0.167-1.633-0.333-3.149-0.5-4.55C30.667,35.35,29.967,32.517,28.9,29.55z
		 M36.2,46.35c-0.9,0.4-1.717,0.75-2.45,1.051c-1.367,0.533-2.333,0.8-2.9,0.8c-1.6,0-3.7-0.584-6.3-1.75
		c-3.767-1.634-7.233-4.066-10.4-7.3l-3.3-2.25c0-0.233-0.133-0.817-0.4-1.75c-0.233-0.934-0.35-1.584-0.35-1.95
		c0-0.4,0.033-0.634,0.1-0.7h0.05L11.6,30l0.2-0.75c0,0.2,0.167,1.233,0.5,3.1c0.367,1.834,0.583,2.9,0.65,3.2
		c0.633,1,3.4,2.9,8.3,5.7c4.6,2.634,7.15,3.95,7.65,3.95s0.934-0.783,1.3-2.351l0.25-0.1c-0.067,1.333,0.117,2.366,0.55,3.1
		c0.4,0.667,0.95,1,1.65,1c0.333,0,0.783-0.133,1.35-0.399c0.533-0.267,0.967-0.4,1.3-0.4c0.434,0,0.7,0.033,0.8,0.101
		C36.134,46.15,36.167,46.217,36.2,46.35z M55.25,35.5l-0.05,0.65c-0.566,0.933-1.2,1.616-1.9,2.05l-1.1-0.25V37.35
		c0-0.333,0.149-0.633,0.45-0.899c0.333-0.334,1.166-0.917,2.5-1.75L55.25,35.5z"/>
	<path style="fill-rule:evenodd;clip-rule:evenodd;fill:#A39A90;" d="M53,15.7l2.05,0.7c0.066,0.067-0.233,0.1-0.899,0.1
		c-0.367,0-0.817-0.05-1.351-0.15L53,15.7z M58.05,10.45c-0.399,0.1-1.8,0.633-4.2,1.6c-2.199,0.9-3.75,1.534-4.649,1.9H46.35
		c-2.5-0.067-4.416,0.183-5.75,0.75c-1.199,0.767-2.216,1.3-3.05,1.6l-0.3,0.05c0.4-0.4,2.884-1.883,7.45-4.45
		c4.899-2.767,7.8-4.15,8.7-4.15c0.066,0,0.149,0.017,0.25,0.05C54.05,7.867,54.6,8.133,55.3,8.6c0.033,0.033,0.084,0.066,0.15,0.1
		C55.983,9.033,56.85,9.617,58.05,10.45z M41.55,2.1c0.9,0.433,3,1.5,6.3,3.2c-1.166,0.267-2.283,0.4-3.35,0.4
		c-1.667,0-3.1-0.25-4.3-0.75c-0.967-0.4-1.65-0.883-2.05-1.45C38.65,3,39.267,2.6,40,2.3C40.667,2.033,41.184,1.967,41.55,2.1z
		 M41.15,10.7c-0.4-0.2-0.601-0.434-0.601-0.7s0.2-0.5,0.601-0.7C41.55,9.1,42.033,9,42.6,9c0.567,0,1.051,0.1,1.45,0.3
		c0.4,0.2,0.601,0.434,0.601,0.7s-0.2,0.5-0.601,0.7C43.65,10.9,43.167,11,42.6,11C42.033,11,41.55,10.9,41.15,10.7z M31.45,7.25
		H31.4c-0.433,0.133-0.65,0.3-0.65,0.5c0,0.033,0.017,0.083,0.05,0.15c-0.1,0.067-0.2,0.133-0.3,0.2c-0.7,0.333-1.533,0.5-2.5,0.5
		s-1.783-0.167-2.45-0.5c-0.7-0.367-1.05-0.8-1.05-1.3s0.35-0.917,1.05-1.25C26.217,5.183,27.033,5,28,5s1.8,0.183,2.5,0.55
		c0.667,0.333,1,0.75,1,1.25C31.5,6.933,31.483,7.083,31.45,7.25z M16.95,11c0.367-0.2,0.816-0.3,1.35-0.3c0.534,0,1,0.1,1.4,0.3
		c0.367,0.2,0.55,0.433,0.55,0.7c0,0.267-0.183,0.5-0.55,0.7c-0.4,0.2-0.867,0.3-1.4,0.3c-0.533,0-0.983-0.1-1.35-0.3
		c-0.4-0.2-0.6-0.433-0.6-0.7C16.35,11.433,16.55,11.2,16.95,11z"/>
	<path style="fill-rule:evenodd;clip-rule:evenodd;fill:#D2C8BA;" d="M20.85,20.1l-2.15,0.3c-1.567,0.434-3.1,0.684-4.6,0.75h-1.15
		c-0.6-0.3-1.45-0.95-2.55-1.95c-1-0.934-1.65-1.45-1.95-1.55c-0.667-0.267-2.3-0.816-4.9-1.65c-1.966-0.633-3.1-1.05-3.4-1.25
		c0.833-1.5,1.4-2.283,1.7-2.35c0.633-0.167,3.783-0.983,9.45-2.45c1.8-0.534,7.583-2.967,17.35-7.3l0.2,0.05
		C27.617,3.533,24,5.433,18,8.4c-6.3,3.1-10.05,4.95-11.25,5.55l-0.85,0.3L5,14.4c0.233,0.067,3.583,1.2,10.05,3.4
		c3.467,1.2,7,1.583,10.6,1.15L20.85,20.1z M18.35,21.45l7.4-2.5c2.967,0.1,4.45,0.083,4.45-0.05l1.1-0.1l-2.55,0.85
		c-4.567,1.2-7.167,1.9-7.8,2.1c-0.333,0.1-0.917,0.35-1.75,0.75c-0.867,0.433-1.467,0.8-1.8,1.1c0.567,0.833,2.1,1.7,4.6,2.6
		c2.333,0.8,4.1,1.2,5.3,1.2l1.7-0.5c1.367-0.4,2.683-0.733,3.95-1c0.566-0.134,1.783-0.184,3.649-0.15c2.101,0,3.5-0.033,4.2-0.1
		c0.4-0.034,0.7-0.184,0.9-0.45c0.366-0.534,0.566-0.817,0.6-0.85c0.834-0.8,2.867-1.2,6.101-1.2c0.633,0,2.3,0.2,5,0.6
		c2.833,0.4,4.733,0.733,5.699,1c-7.199,0.733-13.533,1.684-19,2.85c-5.233,1.101-8.966,1.75-11.2,1.95l-0.2,0.05
		c-1.1,0.034-3.383-0.683-6.85-2.149c-2.967-1.233-5.1-2.233-6.4-3L14.1,23.4l4.05-1.9L18.35,21.45z"/>
	<path style="fill-rule:evenodd;clip-rule:evenodd;fill:#7C7367;" d="M44,42.7c-1-0.8-1.5-1.351-1.5-1.65
		c0-0.866,1.684-1.85,5.05-2.95c3.601-1.166,5.617-2.333,6.05-3.5c-0.033-0.366-0.383-0.55-1.05-0.55c-0.633,0-1.899,0.2-3.8,0.601
		c-2.134,0.466-3.4,0.716-3.8,0.75L44.1,35.35c0.167-0.899,1.25-1.933,3.25-3.1c1.034-0.6,2.117-1.217,3.25-1.85L50.55,29.8
		c0.233-0.233,0.017-0.35-0.649-0.35c-2.267,1.333-3.817,2.1-4.65,2.3c0.733-0.7,1.167-1.15,1.3-1.35
		c-0.934-0.101-2.75,0.149-5.45,0.75c-2.8,0.633-4.316,0.949-4.55,0.949L36.3,32.2L36,32.6c0.833,1.534,2.1,3.634,3.8,6.301
		c1.4,2.166,2.283,3.683,2.65,4.55l-3.55,1.7c-0.934,0.5-1.834,0.899-2.7,1.199c-0.033-0.133-0.066-0.199-0.101-0.199
		c-0.1-0.067-0.366-0.101-0.8-0.101c-0.333,0-0.767,0.134-1.3,0.4c-0.567,0.267-1.017,0.399-1.35,0.399c-0.7,0-1.25-0.333-1.65-1
		c-0.433-0.733-0.617-1.767-0.55-3.1l0.25-0.05c0.033-1.334-0.017-2.816-0.15-4.45L30.4,36.2c-0.267-1.4-0.617-2.9-1.05-4.5
		c-0.4-1.367-0.617-2.066-0.65-2.101l0.2-0.05c1.067,2.967,1.767,5.8,2.1,8.5c0.167,1.4,0.333,2.917,0.5,4.55L31.45,39.7
		c0-4.167,2.017-7.017,6.05-8.55c1.2-0.434,3.167-1.067,5.9-1.9c2.566-0.833,4.683-1.8,6.35-2.9h3.4
		c0.033,1.067,0.166,1.801,0.399,2.2L53.5,28.65c0.066,0.066,0.3,0.1,0.7,0.1l2.45-1.2c1.6-0.8,2.517-1.2,2.75-1.2
		c1.166,0,2.316,0.351,3.449,1.051c1.434,0.866,2.15,2.05,2.15,3.55c-0.467,2.566-0.9,4.316-1.3,5.25h-0.05l-0.9,0.05L61.8,36.3
		c0.967-2.033,1.45-3.467,1.45-4.3c0-1.066-0.434-1.6-1.3-1.6c-1.7,0-2.967,0.449-3.8,1.35C57.583,32.384,57.3,33.134,57.3,34
		c0,0.833,0.351,1.7,1.05,2.6l-0.75,0.2c-1.699,0.5-4.116,1.467-7.25,2.9C47.05,41.267,44.934,42.267,44,42.7z M0.15,29.8
		c0.8-0.333,1.483-0.5,2.05-0.5c0.066,0,0.933,0.101,2.6,0.3c1.967,0.5,3.784,1.467,5.45,2.9H10.2c-0.067,0.066-0.1,0.3-0.1,0.7
		c0,0.366,0.117,1.017,0.35,1.95c0.267,0.933,0.4,1.517,0.4,1.75L8.4,35.4C3.3,32.267,0.55,30.4,0.15,29.8z M12.95,35.55
		c2.4,1.533,5.233,3.033,8.5,4.5c3.833,1.733,6.75,2.667,8.75,2.8c-0.367,1.567-0.8,2.351-1.3,2.351s-3.05-1.316-7.65-3.95
		C16.35,38.45,13.583,36.55,12.95,35.55z M55.25,35.5l-0.1-0.8c-1.334,0.833-2.167,1.416-2.5,1.75
		c-0.301,0.267-0.45,0.566-0.45,0.899v0.601l1.1,0.25c0.7-0.434,1.334-1.117,1.9-2.05L55.25,35.5z M20.85,20.1
		c-0.867,0.6-1.7,1.05-2.5,1.35l-0.2,0.05l-4.05,1.9l1.35,1.05c-0.8,0.934-1.45,2.383-1.95,4.35c-0.267,1-0.55,2.167-0.85,3.5
		l-0.1,0.15c-0.267-3.4-0.4-6.283-0.4-8.65c0-1,0.184-1.9,0.55-2.7l0.25,0.05h1.15c1.5-0.066,3.033-0.316,4.6-0.75L20.85,20.1z"/>
	<path style="fill-rule:evenodd;clip-rule:evenodd;fill:#9B9286;" d="M25.75,18.95l-7.4,2.5c0.8-0.3,1.633-0.75,2.5-1.35l4.8-1.15
		l1.05-0.45l0.85-0.5C27.317,18.333,26.717,18.65,25.75,18.95z M10.85,36.9l3.3,2.25L8.4,35.4L10.85,36.9z M10.25,32.5
		c-1.667-1.434-3.483-2.4-5.45-2.9c-1.667-0.199-2.533-0.3-2.6-0.3c-0.567,0-1.25,0.167-2.05,0.5C0.05,29.1,0,28.267,0,27.3
		l0.05-11.8l0.1-0.75c0.3,0.2,1.434,0.617,3.4,1.25c2.6,0.833,4.233,1.383,4.9,1.65c0.3,0.1,0.95,0.617,1.95,1.55
		c1.1,1,1.95,1.65,2.55,1.95L12.7,21.1c-0.367,0.8-0.55,1.7-0.55,2.7c0,2.367,0.133,5.25,0.4,8.65l0.1-0.15
		c0.3-1.333,0.583-2.5,0.85-3.5c0.5-1.967,1.15-3.416,1.95-4.35c1.3,0.767,3.433,1.767,6.4,3c3.467,1.467,5.75,2.184,6.85,2.149
		c0.033,0.034,0.25,0.733,0.65,2.101c0.433,1.6,0.783,3.1,1.05,4.5l0.15,2.05c0.133,1.634,0.184,3.116,0.15,4.45l-0.25,0.05
		l-0.25,0.1c-2-0.133-4.917-1.066-8.75-2.8c-3.267-1.467-6.1-2.967-8.5-4.5c-0.067-0.3-0.284-1.366-0.65-3.2
		c-0.333-1.866-0.5-2.899-0.5-3.1L11.6,30L10.25,32.5z M44,42.7l-1.55,0.75c-0.367-0.867-1.25-2.384-2.65-4.55
		c-1.7-2.667-2.967-4.767-3.8-6.301l0.3-0.399l0.25-0.101c0.233,0,1.75-0.316,4.55-0.949c2.7-0.601,4.517-0.851,5.45-0.75
		c-0.133,0.199-0.566,0.649-1.3,1.35c0.833-0.2,2.384-0.967,4.65-2.3c0.666,0,0.883,0.116,0.649,0.35L50.6,30.4
		c-1.133,0.633-2.216,1.25-3.25,1.85c-2,1.167-3.083,2.2-3.25,3.1L44.95,35.4c0.399-0.034,1.666-0.284,3.8-0.75
		c1.9-0.4,3.167-0.601,3.8-0.601c0.667,0,1.017,0.184,1.05,0.55c-0.433,1.167-2.449,2.334-6.05,3.5
		c-3.366,1.101-5.05,2.084-5.05,2.95C42.5,41.35,43,41.9,44,42.7z M62.75,36.25c-1.566,0.134-3.283,0.316-5.15,0.55l0.75-0.2
		C57.65,35.7,57.3,34.833,57.3,34c0-0.866,0.283-1.616,0.851-2.25c0.833-0.9,2.1-1.35,3.8-1.35c0.866,0,1.3,0.533,1.3,1.6
		c0,0.833-0.483,2.267-1.45,4.3L62.75,36.25z"/>
	<path style="fill-rule:evenodd;clip-rule:evenodd;fill:#3F362A;" d="M63.7,36.2l0.7-0.101c1.666-0.733,2.55-1.616,2.649-2.649
		c-0.033-1.7,0.15-3.4,0.55-5.101l0.101-0.5c1.733,4.034,2.6,6.15,2.6,6.351c0,0.6-3.633,2.467-10.899,5.6
		c-8.267,3.533-15.101,5.316-20.5,5.351l3.55-1.7L44,42.7c0.934-0.434,3.05-1.434,6.35-3c3.134-1.434,5.551-2.4,7.25-2.9
		c1.867-0.233,3.584-0.416,5.15-0.55l0.9-0.05H63.7z"/>
</g>
</svg>
