<?xml version="1.0" encoding="iso-8859-1"?>
<!-- Generator: Adobe Illustrator 15.1.0, SVG Export Plug-In . SVG Version: 6.00 Build 0)  -->
<!DOCTYPE svg PUBLIC "-//W3C//DTD SVG 1.1//EN" "http://www.w3.org/Graphics/SVG/1.1/DTD/svg11.dtd">
<svg version="1.1" id="Layer_1" xmlns="http://www.w3.org/2000/svg" xmlns:xlink="http://www.w3.org/1999/xlink" x="0px" y="0px"
	 width="137.05px" height="50.75px" viewBox="0 0 137.05 50.75" style="enable-background:new 0 0 137.05 50.75;"
	 xml:space="preserve">
<g>
	<path style="fill-rule:evenodd;clip-rule:evenodd;fill:#CED1D6;" d="M132,14.6c-1.267,1.933-3.033,2.717-5.3,2.35
		c-1.7-0.3-3.483,0.5-5.351,2.4c-2.699,2.733-4.233,4.217-4.6,4.45c-2.4,1.434-5.1,2.15-8.1,2.15
		c-1.801,0.033-4.617-0.317-8.45-1.05c-2.9-0.533-6.601-0.75-11.101-0.65c-2.5,0.067-6.233,0.167-11.199,0.3
		C68,24.483,59.6,24,52.7,23.1c-1.267-0.167-2.317-0.667-3.15-1.5c-0.733-0.733-1.2-1.65-1.4-2.75l3.35-4.4
		c0.3,0.433,0.75,0.867,1.35,1.3c3.7,2.6,8.767,4.217,15.2,4.85c4,0.4,9.4,0.4,16.2,0c8.134-0.1,14.267-0.333,18.4-0.7
		c7.199-0.667,12.949-2.483,17.25-5.45c1.033-0.767,1.716-1.617,2.05-2.55c0.2,0.033,0.399,0.05,0.6,0.05c0.834,0.1,1.9,0.2,3.2,0.3
		c0.066,0,0.15,0.017,0.25,0.05h0.35c1.767,0.167,3.2,0.55,4.301,1.15c0.1,0.066,0.216,0.133,0.35,0.2L132,14.6z M132.65,15.15
		l0.149,0.15l0.2,0.35C132.889,15.479,132.771,15.313,132.65,15.15z M2.725,17.175c-0.298-0.039-0.582-0.081-0.85-0.125
		c-0.026,0.003-0.051,0.003-0.075,0l-0.075-0.025c-0.112-0.027-0.22-0.052-0.325-0.075L0.25,16.7c-0.067-0.034-0.117-0.05-0.15-0.05
		c-0.4-1.667,0.566-3.117,2.9-4.35c0.867,0.633,1.883,0.9,3.05,0.8c2.833-0.167,5.9-0.983,9.2-2.45
		c1.667-0.867,2.867-1.417,3.6-1.65c1.167-0.367,2.333-0.217,3.5,0.45c3.2,1.867,5.85,3.2,7.95,4c2.667,1.033,5.55,1.7,8.65,2
		c2.433,0.267,4.966-0.284,7.6-1.65c2.7-1.4,4.467-3.1,5.3-5.1V8.65C51.883,8.683,51.933,8.733,52,8.8l0.025,0.025l0.1,0.125
		c0.173,0.268,0.314,0.568,0.425,0.9c0.034,0.033,0.05,0.066,0.05,0.1V10c0.033,0.133,0.066,0.3,0.1,0.5
		c0.066,0.333,0.083,0.733,0.05,1.2l-0.15,1.65c-0.4,0.2-1.167,0.417-2.3,0.65c-0.9,0.2-1.6,0.5-2.1,0.9
		c-0.333,0.267-0.667,0.75-1,1.45c-0.267,0.533-0.7,0.917-1.3,1.15c-0.3,0.1-0.833,0.117-1.6,0.05
		c-0.833-0.133-1.367-0.183-1.6-0.15c-0.767,0.067-1.883,0.434-3.35,1.1c-0.467,0.233-0.917,0.417-1.35,0.55
		c-0.767,0.267-1.417,0.4-1.95,0.4c-0.8,0-1.733-0.15-2.8-0.45c-0.033-0.033-0.067-0.05-0.1-0.05c-0.167-0.034-0.333-0.083-0.5-0.15
		c-0.733-0.233-1.833-0.633-3.3-1.2c-1.367-0.5-3.033-0.817-5-0.95c-2.667-0.233-5.85-0.15-9.55,0.25h-0.05
		c-0.833,0.1-1.633,0.184-2.4,0.25c-0.333,0-0.667,0.017-1,0.05c-0.067,0-0.133,0.017-0.2,0.05l-8.2-0.05L2.725,17.175z
		 M47.55,19.85c0.024-0.073,0.049-0.148,0.075-0.225c0.053-0.123,0.111-0.248,0.175-0.375l0.1-0.1
		C47.767,19.383,47.65,19.617,47.55,19.85z M45.8,41.45c-0.066,0.2-0.133,0.416-0.2,0.649c-0.633,1.801-1.583,3.084-2.85,3.851
		c-1.667,1.033-4,1.25-7,0.649c-0.033,0-0.067,0-0.1,0L35,46.45c-0.167-0.033-0.317-0.066-0.45-0.101
		c-1.5-0.333-3.35-0.833-5.55-1.5c-0.1-0.033-0.2-0.066-0.3-0.1c-0.667-0.134-1.917-0.25-3.75-0.35c-0.3-0.067-0.567-0.134-0.8-0.2
		c-0.967-0.4-1.467-1.101-1.5-2.101c-0.033-0.199,0.033-0.5,0.2-0.899c5.3,1.533,10.8,1.666,16.5,0.399
		c1.533-0.366,2.583-1.166,3.15-2.399c0.533-1.134,0.583-2.367,0.15-3.7c1.233,0.333,2.15,0.95,2.75,1.85
		c0.133,0.2,0.25,0.417,0.35,0.65c0,0.033,0.017,0.066,0.05,0.1v0.051c0.034,0.033,0.05,0.083,0.05,0.149L45.8,41.45z"/>
	<path style="fill-rule:evenodd;clip-rule:evenodd;fill:#DDDEE0;" d="M51.5,14.45c0.1-0.133,0.217-0.25,0.35-0.35
		c0.367-0.333,1.167-1.017,2.4-2.05c1.267-1.066,2.967-2.466,5.1-4.2c2.633-2.167,5.083-3.833,7.35-5c2.8-1.467,5.6-2.367,8.399-2.7
		c2.801-0.3,6.084-0.183,9.851,0.35c0.733,0.1,3.967,0.7,9.7,1.8c3.433,0.633,7.816,2.1,13.149,4.4c6.134,2.6,10.434,4.25,12.9,4.95
		c0.366,0.1,0.983,0.2,1.85,0.3c-0.2,0-0.399-0.017-0.6-0.05c-0.334,0.934-1.017,1.783-2.05,2.55
		c-4.301,2.966-10.051,4.783-17.25,5.45c-4.134,0.367-10.267,0.6-18.4,0.7c-6.8,0.4-12.2,0.4-16.2,0
		c-6.433-0.633-11.5-2.25-15.2-4.85C52.25,15.317,51.8,14.883,51.5,14.45z M133.7,18.25c-0.066,0.467-0.217,0.933-0.45,1.4
		c-0.167,0.333-0.417,0.667-0.75,1L133.7,18.25z M133.2,16.05c0.026,0.055,0.051,0.114,0.075,0.175
		c-0.027-0.061-0.053-0.102-0.075-0.125V16.05z M1.875,17.05c0.269,0.044,0.552,0.086,0.85,0.125C2.5,17.15,2.275,17.125,2.05,17.1
		C1.99,17.083,1.932,17.066,1.875,17.05z M51.85,8.7c-0.833,2-2.6,3.7-5.3,5.1c-2.633,1.367-5.167,1.917-7.6,1.65
		c-3.1-0.3-5.983-0.967-8.65-2c-2.1-0.8-4.75-2.133-7.95-4c-1.167-0.667-2.333-0.817-3.5-0.45c-0.733,0.233-1.934,0.783-3.6,1.65
		c-3.3,1.467-6.367,2.283-9.2,2.45C4.883,13.2,3.867,12.933,3,12.3c0.667-0.367,1.45-0.7,2.35-1c5-1.8,7.667-2.867,8-3.2l3.35-1.3
		c0.833-0.167,1.75-0.65,2.75-1.45c1.333-1,2.2-1.6,2.6-1.8c1.167-0.566,3.117-0.816,5.85-0.75c3.6,0,7.417,0.45,11.45,1.35
		c3.167,0.7,4.85,1.083,5.05,1.15c1.9,0.467,3.5,1.017,4.8,1.65C50.4,7.517,51.283,8.1,51.85,8.7z M52.55,9.75v0.1
		c-0.11-0.332-0.252-0.632-0.425-0.9c0.081,0.117,0.156,0.234,0.225,0.35C52.417,9.433,52.483,9.583,52.55,9.75z M47.2,21.2
		c0.054-0.49,0.196-1.015,0.425-1.575c-0.026,0.077-0.051,0.152-0.075,0.225L47.2,21.2z M47.2,22.15c-0.034-0.167-0.034-0.333,0-0.5
		c0,0.133,0,0.267,0,0.4C47.2,22.083,47.2,22.117,47.2,22.15z M22.85,41.2c0.267-0.566,0.8-1.217,1.6-1.95
		c1.066-1,2.033-1.667,2.9-2c0.833-0.333,2.05-0.566,3.65-0.7c1.867-0.133,3.1-0.267,3.7-0.399c2.5-0.567,4.4-0.867,5.7-0.9
		c2.434-0.033,4.1,0.667,5,2.1c-0.6-0.899-1.517-1.517-2.75-1.85c0.434,1.333,0.383,2.566-0.15,3.7
		c-0.567,1.233-1.617,2.033-3.15,2.399C33.65,42.866,28.15,42.733,22.85,41.2z M45.8,41.45c-0.033,0.133-0.066,0.283-0.1,0.45
		c-0.034,0.066-0.067,0.133-0.1,0.199C45.667,41.866,45.733,41.65,45.8,41.45z"/>
	<path style="fill-rule:evenodd;clip-rule:evenodd;fill:#ABB5C0;" d="M62.05,24.75c-0.833,0.033-1.267,0.05-1.3,0.05
		c-0.933,0-2.983,0.167-6.15,0.5c-0.533,0.034-1.083,0.083-1.65,0.15c-3.567-0.034-5.483-1.133-5.75-3.3c0-0.033,0-0.066,0-0.1
		c0-0.133,0-0.267,0-0.4V21.2l0.35-1.35c0.1-0.233,0.217-0.467,0.35-0.7c0.067-0.133,0.133-0.267,0.2-0.4
		c0,0.033,0.017,0.067,0.05,0.1c0.2,1.1,0.667,2.017,1.4,2.75c0.833,0.833,1.883,1.333,3.15,1.5c6.9,0.9,15.3,1.383,25.2,1.45
		c4.966-0.133,8.699-0.233,11.199-0.3c4.5-0.1,8.2,0.117,11.101,0.65c3.833,0.733,6.649,1.083,8.45,1.05c3,0,5.699-0.717,8.1-2.15
		c0.366-0.233,1.9-1.716,4.6-4.45c1.867-1.9,3.65-2.7,5.351-2.4c2.267,0.367,4.033-0.417,5.3-2.35c0.033-0.033,0.05-0.067,0.05-0.1
		c0.233,0.2,0.434,0.417,0.601,0.65c0.121,0.163,0.238,0.329,0.35,0.5c0.032,0.059,0.065,0.117,0.1,0.175
		c0.035,0.059,0.068,0.117,0.101,0.175v0.05v0.05c0.022,0.023,0.048,0.064,0.075,0.125c0.006,0.019,0.015,0.043,0.024,0.075
		l0.101,0.2c0.133,0.3,0.216,0.6,0.25,0.9c0.033,0.267,0.05,0.533,0.05,0.8v0.05l-1.2,2.4c-0.733,0.733-2.1,1.033-4.1,0.9
		c-2.167-0.133-3.634,0.05-4.4,0.55c-0.733,0.433-1.434,1.383-2.1,2.85c-0.767,1.6-1.434,2.649-2,3.149
		c-0.467,0.434-0.95,0.817-1.45,1.15c-1.9,1.2-4.017,1.634-6.351,1.3c-0.033,0-2.716-0.816-8.05-2.45
		c-1.1-0.333-2.399-0.533-3.899-0.6c-0.567-0.033-1.934-0.05-4.101-0.05c-0.399,0-1.066-0.033-2-0.101
		c-0.633-0.033-1.166-0.017-1.6,0.051c-0.134,0-0.267,0.017-0.4,0.05c-0.533,0.1-1.116,0.333-1.75,0.7
		c-0.633,0.366-1.166,0.6-1.6,0.699c-0.8,0.134-1.851,0.134-3.15,0C85.083,28.783,84.566,28.7,84,28.6
		c-0.134-0.033-0.283-0.066-0.45-0.1c-0.866-0.2-2.267-0.55-4.2-1.05c-0.366-0.066-0.883-0.217-1.55-0.45
		c-0.733-0.267-1.649-0.6-2.75-1c-1.833-0.667-3.283-1.083-4.35-1.25L69.1,24.6H69c-0.134,0-0.25,0-0.35,0
		c-0.167-0.033-0.351-0.05-0.551-0.05l-1.8,0.05c-0.167,0-0.35,0-0.55,0C64.083,24.667,62.85,24.717,62.05,24.75z"/>
	<path style="fill-rule:evenodd;clip-rule:evenodd;fill:#504A3F;" d="M54.25,12.05c-1.233,1.034-2.033,1.717-2.4,2.05
		c-0.133,0.1-0.25,0.217-0.35,0.35l-3.35,4.4c-0.033-0.033-0.05-0.067-0.05-0.1c-0.067,0.133-0.133,0.267-0.2,0.4l-0.1,0.1
		c-0.063,0.127-0.122,0.252-0.175,0.375c-0.229,0.561-0.371,1.085-0.425,1.575v0.45c-0.034,0.167-0.034,0.333,0,0.5
		c-0.2,0.1-0.417,0.2-0.65,0.3c-1.833,0.867-3.75,1.433-5.75,1.7c-0.033-0.3-0.017-0.816,0.05-1.55c0.066-0.7,0.066-1.2,0-1.5
		c-0.133-1.033-0.25-1.583-0.35-1.65c-0.1-0.1-0.683-0.217-1.75-0.35c-0.2-0.033-0.45-0.05-0.75-0.05
		c0.433-0.133,0.883-0.316,1.35-0.55c1.467-0.667,2.583-1.033,3.35-1.1c0.233-0.033,0.767,0.017,1.6,0.15
		c0.767,0.067,1.3,0.05,1.6-0.05c0.6-0.233,1.033-0.617,1.3-1.15c0.333-0.7,0.667-1.184,1-1.45c0.5-0.4,1.2-0.7,2.1-0.9
		c1.133-0.233,1.9-0.45,2.3-0.65l0.15-1.65c0.033-0.467,0.017-0.867-0.05-1.2c-0.034-0.2-0.067-0.367-0.1-0.5V9.95
		c0-0.034-0.017-0.067-0.05-0.1v-0.1L54.25,12.05z M115.45,35.5c-0.7,0.066-1.434,0.134-2.2,0.2c0.2-0.267,1.15-1.15,2.85-2.65
		c1.2-1.066,1.934-2.1,2.2-3.1c0.066-0.2,0.117-0.434,0.15-0.7c0.5-0.333,0.983-0.717,1.45-1.15c0.566-0.5,1.233-1.55,2-3.149
		c0.666-1.467,1.366-2.417,2.1-2.85c0.767-0.5,2.233-0.684,4.4-0.55c2,0.133,3.366-0.167,4.1-0.9c0.333-0.333,0.583-0.667,0.75-1
		c0.233,0.233,0.467,0.483,0.7,0.75c1.434,1.7,2.35,3.217,2.75,4.55c0.366,1.267,0.434,3.05,0.2,5.35c-0.9-0.033-1.9,0.184-3,0.65
		c-0.634,0.233-1.601,0.633-2.9,1.2c-2.4,0.966-5.8,1.816-10.2,2.55L115.45,35.5z M31.4,18.7c-1.233-0.233-2.55-0.567-3.95-1
		c-1.034-0.333-2.067-0.684-3.1-1.05c1.967,0.133,3.633,0.45,5,0.95c1.467,0.566,2.566,0.967,3.3,1.2
		c0.167,0.067,0.333,0.117,0.5,0.15L31.4,18.7z"/>
	<path style="fill-rule:evenodd;clip-rule:evenodd;fill:#635B4F;" d="M113.25,35.7c-0.2,0.033-0.384,0.066-0.55,0.1
		c-2.667,0.5-5.167,1.483-7.5,2.95l-5.45,2.2l-0.475,0.1c-0.483,0.075-0.976,0.125-1.476,0.15c1.8-0.8,2.816-2,3.05-3.601
		c0.334-2.199,0.5-3.333,0.5-3.399c0.134-1.5-0.017-2.533-0.449-3.101c-0.534-0.666-1.367-1.033-2.5-1.1
		c-0.634,0-1.584,0.017-2.851,0.05l-2.75-0.3c-0.133-0.8-0.25-1.583-0.35-2.35c0.434-0.067,0.967-0.084,1.6-0.051
		c0.934,0.067,1.601,0.101,2,0.101c2.167,0,3.533,0.017,4.101,0.05c1.5,0.066,2.8,0.267,3.899,0.6c5.334,1.634,8.017,2.45,8.05,2.45
		c2.334,0.334,4.45-0.1,6.351-1.3c-0.033,0.267-0.084,0.5-0.15,0.7c-0.267,1-1,2.033-2.2,3.1C114.4,34.55,113.45,35.434,113.25,35.7
		z M66.1,34.55l0.1-0.25c2.066-0.566,4.05-0.967,5.95-1.2c1.6,0,2.783-0.066,3.55-0.199c1.399-0.233,2.267-0.95,2.6-2.15
		c0.233-0.733,0.117-1.8-0.35-3.2c-0.066-0.2-0.117-0.383-0.15-0.55c0.667,0.233,1.184,0.384,1.55,0.45
		c1.934,0.5,3.334,0.85,4.2,1.05c0.267,1.066,0.4,2.316,0.4,3.75c0,1.134-0.033,2.783-0.101,4.95v0.149V37.4
		c-1-0.233-2.6-0.434-4.8-0.601c-0.267-0.033-0.533-0.05-0.8-0.05l-5.95-1c-3-0.634-5-1.017-6-1.15L66.1,34.55z M62.35,29.65
		l0.45,4.8c-0.547,0.021-1.18,0.055-1.9,0.1C61.267,33.783,61.75,32.15,62.35,29.65z M15.4,20.35c-0.2-0.633-0.383-1.633-0.55-3
		c-0.033-0.167-0.05-0.317-0.05-0.45c3.7-0.4,6.883-0.483,9.55-0.25c1.033,0.367,2.066,0.717,3.1,1.05c-0.667,1.1-1.4,2.033-2.2,2.8
		c-0.633,0.533-1.55,0.983-2.75,1.35c-0.467-0.1-0.9-0.184-1.3-0.25l-3.1-0.65C16.467,20.583,15.567,20.383,15.4,20.35z M40.8,24.15
		c-1.6,0.233-3.233,0.283-4.9,0.15c0.033-0.066,0.25-0.35,0.65-0.85c0.3-0.4,0.417-0.85,0.35-1.35c-0.133-0.667-0.433-1.133-0.9-1.4
		c-0.1-0.067-0.65-0.267-1.65-0.6c-1-0.367-1.983-0.833-2.95-1.4l1.75,0.25c0.033,0,0.067,0.017,0.1,0.05c1.067,0.3,2,0.45,2.8,0.45
		c0.534,0,1.184-0.133,1.95-0.4c0.3,0,0.55,0.017,0.75,0.05c1.067,0.133,1.65,0.25,1.75,0.35c0.1,0.066,0.217,0.617,0.35,1.65
		c0.066,0.3,0.066,0.8,0,1.5C40.783,23.333,40.767,23.85,40.8,24.15z M45.7,41.9c-0.267,4.533-1.967,7.333-5.1,8.399
		c-2.867,0.967-6.833,0.45-11.9-1.55c-2.5-0.967-3.967-2.116-4.4-3.45c1.467,0.566,2.817,1.283,4.05,2.15
		c1.267,0.833,2.533,1.05,3.8,0.649c0.967-0.3,1.767-0.883,2.4-1.75c0.133,0.034,0.284,0.067,0.45,0.101l0.65,0.149
		c0.033,0,0.067,0,0.1,0c3,0.601,5.333,0.384,7-0.649c1.267-0.767,2.217-2.05,2.85-3.851C45.633,42.033,45.667,41.967,45.7,41.9z"/>
	<path style="fill-rule:evenodd;clip-rule:evenodd;fill:#867B6C;" d="M92.8,29.75c0.667,3.6,1.334,6.55,2,8.85
		c0.101,0.434,0.384,1.317,0.851,2.65c-0.267,0-0.534,0-0.801,0c-1.566-0.167-3.166-0.5-4.8-1c-0.267-0.1-0.566-0.217-0.899-0.35
		l-1.4-0.7c-0.1-0.066-0.184-0.117-0.25-0.15L87.25,38.9c-0.066-0.034-0.15-0.084-0.25-0.15c-0.434-0.267-0.833-0.483-1.2-0.65
		c-0.233-0.1-0.45-0.199-0.649-0.3l0.3-2.6c0.3-2.4,0.333-4.517,0.1-6.351c1.3,0.134,2.351,0.134,3.15,0
		c0.434-0.1,0.967-0.333,1.6-0.699c0.634-0.367,1.217-0.601,1.75-0.7c0.134-0.033,0.267-0.05,0.4-0.05
		C92.55,28.167,92.667,28.95,92.8,29.75z M68.65,24.6c-0.8,1.9-1.617,5.133-2.45,9.7l-0.1,0.25c-0.367-0.033-0.717-0.066-1.05-0.1
		c-0.2-0.033-0.5-0.033-0.9,0h-0.8c-0.2,0-0.383,0-0.55,0l-0.45-4.8c0-2.2-0.1-3.833-0.3-4.9c0.8-0.033,2.034-0.083,3.7-0.15
		c0.2,0,0.383,0,0.55,0l1.8-0.05C68.3,24.55,68.483,24.567,68.65,24.6z M54.6,25.3c-0.067,0.167-0.133,0.35-0.2,0.55
		c-0.367,1.167-0.55,3.233-0.55,6.2c0,0.733,0.05,1.467,0.15,2.2c-0.5-0.167-0.967-0.333-1.4-0.5c-1.667-0.667-3.033-1.483-4.1-2.45
		l-0.65-0.649c-0.067-0.101-0.133-0.184-0.2-0.25c-0.033,0-0.05-0.017-0.05-0.051c-0.067-0.066-0.133-0.149-0.2-0.25l-0.5-0.75
		c-0.967-1.699-1.183-3.649-0.65-5.85c0.1-0.333,0.2-0.667,0.3-1v-0.05c0.233-0.1,0.45-0.2,0.65-0.3
		c0.267,2.167,2.183,3.267,5.75,3.3C53.517,25.383,54.067,25.333,54.6,25.3z"/>
	<path style="fill-rule:evenodd;clip-rule:evenodd;fill:#797061;" d="M113.25,35.7c0.767-0.066,1.5-0.134,2.2-0.2
		c-0.867,0.1-1.783,0.2-2.75,0.3C112.866,35.767,113.05,35.733,113.25,35.7z M94.85,41.25c0.267,0,0.534,0,0.801,0
		c-0.467-1.333-0.75-2.217-0.851-2.65c-0.666-2.3-1.333-5.25-2-8.85l2.75,0.3C96.816,30.017,97.767,30,98.4,30
		c1.133,0.066,1.966,0.434,2.5,1.1c0.433,0.567,0.583,1.601,0.449,3.101c0,0.066-0.166,1.2-0.5,3.399
		C100.616,39.2,99.6,40.4,97.8,41.2c0.5-0.025,0.992-0.075,1.476-0.15C97.853,41.303,96.378,41.37,94.85,41.25z M83.85,37.35V37.2
		c0.067-2.167,0.101-3.816,0.101-4.95c0-1.434-0.134-2.684-0.4-3.75c0.167,0.033,0.316,0.066,0.45,0.1
		c0.566,0.101,1.083,0.184,1.55,0.25c0.233,1.834,0.2,3.95-0.1,6.351l-0.3,2.6c-0.4-0.166-0.767-0.3-1.101-0.399
		C83.983,37.4,83.917,37.384,83.85,37.35z M62.35,29.65c-0.6,2.5-1.083,4.133-1.45,4.899c-0.42,0.03-0.87,0.063-1.35,0.101
		c-2.267,0.133-4.05,0.017-5.35-0.351c-0.067-0.033-0.133-0.05-0.2-0.05c-0.1-0.733-0.15-1.467-0.15-2.2
		c0-2.967,0.183-5.033,0.55-6.2c0.067-0.2,0.133-0.383,0.2-0.55c3.167-0.333,5.217-0.5,6.15-0.5c0.033,0,0.467-0.017,1.3-0.05
		C62.25,25.817,62.35,27.45,62.35,29.65z M27.45,17.7c1.4,0.433,2.716,0.767,3.95,1c0.967,0.566,1.95,1.033,2.95,1.4
		c1,0.333,1.55,0.533,1.65,0.6c0.467,0.267,0.767,0.733,0.9,1.4c0.067,0.5-0.05,0.95-0.35,1.35c-0.4,0.5-0.617,0.783-0.65,0.85
		c1.667,0.133,3.3,0.083,4.9-0.15c2-0.267,3.917-0.833,5.75-1.7v0.05c-1.466,0.667-2.983,1.167-4.55,1.5
		c-2.333,0.467-4.917,0.517-7.75,0.15c-2.5-0.3-5.683-0.883-9.55-1.75c-1.3-0.3-2.467-0.566-3.5-0.8c0.4,0.066,0.833,0.15,1.3,0.25
		c1.2-0.367,2.117-0.817,2.75-1.35C26.05,19.733,26.783,18.8,27.45,17.7z M2.05,17.1c0.225,0.025,0.45,0.05,0.675,0.075L2.95,17.2
		l8.2,0.05c0.067-0.033,0.133-0.05,0.2-0.05c0.333-0.034,0.667-0.05,1-0.05c0.767-0.066,1.566-0.15,2.4-0.25h0.05
		c0,0.133,0.017,0.283,0.05,0.45c0.167,1.367,0.35,2.367,0.55,3c-0.066-0.033-0.117-0.05-0.15-0.05c-1.5-0.267-3.683-0.35-6.55-0.25
		c-3.034,0.133-5.217,0.1-6.55-0.1C2.017,18.817,1.983,17.867,2.05,17.1z M66.2,34.3c0.833-4.566,1.65-7.8,2.45-9.7
		c0.1,0,0.216,0,0.35,0h0.1l1.601,0.15c1.066,0.167,2.517,0.583,4.35,1.25c1.101,0.4,2.017,0.733,2.75,1
		c0.033,0.167,0.084,0.35,0.15,0.55c0.467,1.4,0.583,2.467,0.35,3.2c-0.333,1.2-1.2,1.917-2.6,2.15
		c-0.767,0.133-1.95,0.199-3.55,0.199C70.25,33.333,68.267,33.733,66.2,34.3z M34.55,46.35c-0.633,0.867-1.433,1.45-2.4,1.75
		c-1.267,0.4-2.533,0.184-3.8-0.649c-1.233-0.867-2.583-1.584-4.05-2.15c-0.1-0.3-0.15-0.616-0.15-0.95c0-0.066,0-0.116,0-0.149
		c0.233,0.066,0.5,0.133,0.8,0.2c1.833,0.1,3.083,0.216,3.75,0.35c0.1,0.033,0.2,0.066,0.3,0.1
		C31.2,45.517,33.05,46.017,34.55,46.35z"/>
</g>
</svg>
