<?xml version="1.0" encoding="iso-8859-1"?>
<!-- Generator: Adobe Illustrator 15.1.0, SVG Export Plug-In . SVG Version: 6.00 Build 0)  -->
<!DOCTYPE svg PUBLIC "-//W3C//DTD SVG 1.1//EN" "http://www.w3.org/Graphics/SVG/1.1/DTD/svg11.dtd">
<svg version="1.1" id="Layer_1" xmlns="http://www.w3.org/2000/svg" xmlns:xlink="http://www.w3.org/1999/xlink" x="0px" y="0px"
	 width="277.6px" height="137.05px" viewBox="0 0 277.6 137.05" style="enable-background:new 0 0 277.6 137.05;"
	 xml:space="preserve">
<g>
	<path style="fill-rule:evenodd;clip-rule:evenodd;fill:#B3AA9E;" d="M225.15,65.7v-1.5c4.466-0.7,9.1-1.133,13.899-1.3
		c2.667-0.267,4.184-1.4,4.55-3.4c1.667,0.267,4.051,1.05,7.15,2.35c3.9,1.633,6.2,3.2,6.9,4.7c-1.101-1.7-4.117-2.7-9.051-3
		c-4.767,0.067-7.233,0.1-7.399,0.1c-2.934,0-5.15,0.383-6.65,1.15c-1.5,0.733-2.399,1.1-2.7,1.1L225.15,65.7z M243.75,113.1
		c-0.1,0.067-0.483,0.101-1.15,0.101l1.4-0.25L243.75,113.1z M247.1,112.2l-0.05-0.101v-0.3l0.2-0.95v-0.05l0.15-0.3l-0.15,0.35
		L247.1,112.2z M192.35,127.25c0.134,0.066,2.467,1.083,7,3.05C196.85,129.566,194.517,128.55,192.35,127.25z M182.05,118.6
		l0.601,0.5l0.55,0.551L182.05,118.6z M15.3,126.15l1.6,0.55l1.25,0.5l-3.85-1.4C14.6,125.9,14.933,126.017,15.3,126.15z
		 M2.45,110.85L5.6,109c4,2.233,12.167,4.35,24.5,6.35c0.667,0,1.15-0.033,1.45-0.1c-0.4-3.967-0.183-6.65,0.65-8.05
		c0.667-1.101,1.883-1.65,3.65-1.65c0.6,0,3.95,0.617,10.05,1.851c4.567,0,6.85-2.934,6.85-8.801c0-2.733-0.933-5.283-2.8-7.649
		c-1.7-2.134-3.284-3.2-4.75-3.2c2-0.066,4.233-0.116,6.7-0.15c-0.8,0.034-1.733,0.233-2.8,0.601c2.367,3.066,4.4,5.899,6.1,8.5
		c2.333,3.5,3.5,5.75,3.5,6.75c-0.667,1.767-1.583,3.517-2.75,5.25c-2.333,3.399-4.75,5.1-7.25,5.1c-0.633,0-1.75-0.434-3.35-1.3
		c-1.6-0.9-2.5-1.35-2.7-1.35c-0.1,0-1.55,0.933-4.35,2.8c-2.933,1.934-5.75,3.033-8.45,3.3c0.4-0.3,0.8-0.684,1.2-1.15l-0.9-0.149
		c-0.433,0.133-1.2,0.45-2.3,0.95c-0.6,0.267-1.483,0.399-2.65,0.399c-2.733,0-5.45-0.149-8.15-0.45c-0.4-0.166-2.966-1.267-7.7-3.3
		c-0.667-0.3-1.283-0.55-1.85-0.75l-0.35-0.35c0,0.066,0.033,0.149,0.1,0.25C4.583,111.566,2.983,110.95,2.45,110.85z M39.4,88.05
		c1.1-0.1,2.383-0.166,3.85-0.2c-0.533,0.034-1.133,0.067-1.8,0.101C40.683,87.983,40,88.017,39.4,88.05z M73,95.75
		c1.633-0.767,2.517-1.25,2.65-1.45L76.8,94c-0.233,0.533-0.466,0.917-0.7,1.15c-0.367,0.433-1.15,0.649-2.35,0.649L73,95.75z
		 M68.4,95.45c-0.933,1.133-1.4,2-1.4,2.6c0,0.867,0.217,1.917,0.65,3.15c0.5,1.434,0.833,2.866,1,4.3c-0.867-0.7-1.917-2-3.15-3.9
		c-1.667-2.566-2.517-4.816-2.55-6.75L68.4,95.45z M73.3,75.65c0.5,0.199,1.667,0.583,3.5,1.149c2.034,0.601,3.517,1.017,4.45,1.25
		c-0.633,0.533-1.233,1.4-1.8,2.601c-0.567,1.267-0.967,2.083-1.2,2.449c-0.1,0.101-1.117,1.233-3.05,3.4
		c-1.133,1.267-2.383,2.217-3.75,2.85c-0.967-0.033-2.233-0.149-3.8-0.35c-1.767-0.2-2.767-0.316-3-0.35
		c-2.667-0.233-5.1-0.717-7.3-1.45c-1.667-0.667-2.583-1-2.75-1l-2.55,0.2c0.133-0.467,0.833-1.634,2.1-3.5
		c1.233-1.767,2-2.801,2.3-3.101l0.65,0.4c-0.7,0.934-1.05,1.45-1.05,1.55c0,0.4,0.05,0.667,0.15,0.8
		c0.066,0.134,0.1,0.217,0.1,0.25c0.434,0.066,1.517,0.283,3.25,0.65c1.833,0.3,3.567,0.45,5.2,0.45c2.733,0,4.1-1.517,4.1-4.551
		c0-1.1-0.467-1.899-1.4-2.399c-0.833-0.434-2.517-0.816-5.05-1.15c1-0.666,2.117-1.684,3.35-3.05c0.767,0.4,1.567,0.767,2.4,1.1
		c-0.733-0.566-1.217-0.949-1.45-1.149c-0.367-0.267-1.167-0.767-2.4-1.5c-0.133-0.167-0.25-0.667-0.35-1.5
		c0.5,0.366,1.066,0.833,1.7,1.399c1.033,0.767,2.9,1.983,5.6,3.65l-3.1-0.9c0.333,0.2,1.1,0.534,2.3,1
		C71.85,75.384,72.8,75.65,73.3,75.65z M66.45,69.6c-0.167-0.066-0.583-0.55-1.25-1.45c-0.667-0.9-1.067-1.433-1.2-1.6
		c0.2-1.066,0.45-2.133,0.75-3.2l-0.15,1.6c0,0.333,0.217,1.05,0.65,2.15C65.683,68.167,66.083,69,66.45,69.6z M77.35,49.7
		l-5.7,4.15c0.267-0.367,1.117-1.05,2.55-2.05C75.4,50.933,76.45,50.233,77.35,49.7z M107.15,36.4c0.934,0,1.733-0.4,2.4-1.2
		c0.534-0.733,0.85-1.583,0.95-2.55c0.4,0.767,0.933,1.3,1.6,1.6c0.566,0.233,1.4,0.35,2.5,0.35c2.267,0,5.05,0.667,8.35,2
		c3.3,1.3,5.45,1.95,6.45,1.95c2.233,0,4.883-0.566,7.95-1.7c2.733-1,4.45-1.9,5.15-2.7c0,0.7,0.217,1.3,0.65,1.8
		c0.399,0.5,0.883,0.75,1.449,0.75l2.801,0.05h-0.75l-0.25,1.6L144.6,36.7l0.051,1.5c-0.334,0.167-0.817,1.083-1.45,2.75
		c-0.601,1.6-1.65,2.683-3.15,3.25c-0.633,0.066-1.95,0.283-3.95,0.65c-2.267,0.433-3.483,0.667-3.65,0.7
		c-3.3-0.066-5.517-0.216-6.65-0.45c-1.033-0.233-1.65-0.35-1.85-0.35l-1.8,0.05c-1.033-0.533-1.983-1.1-2.85-1.7
		c-1.433-0.967-2.733-1.817-3.9-2.55l-1.15-0.8l0.15,0.15C110.1,37.733,107.683,36.567,107.15,36.4z M159.2,42.95
		c-2-0.733-4.033-1.8-6.101-3.2c-1.833-1.267-2.949-2.233-3.35-2.9l0.65-0.8c0.1,0.1,0.649,0.583,1.649,1.45
		c1.267,1.033,2.717,1.95,4.351,2.75C161.6,42.75,168.1,44,175.9,44c2.267,0,3.966-0.25,5.1-0.75c1.467-0.633,2.2-1.7,2.2-3.2
		c0-0.833-0.584-2.1-1.75-3.8c-1.2-1.667-1.8-2.883-1.8-3.65l1.3-1.65c1.899,0.433,3.517,0.667,4.85,0.7
		c1.233,0.2,3.75,1.217,7.55,3.05c0.634,1.267,1.267,2.2,1.9,2.8c0.366,0.333,0.65,0.5,0.85,0.5c0.4,0,0.601-0.05,0.601-0.15
		c0-0.033-0.017-0.083-0.05-0.15l0.1-1.2l1.35,0.7c-0.267-0.534-0.733-1.217-1.399-2.05c0-0.7-0.4-1.95-1.2-3.75
		c-0.833-1.833-1.517-2.967-2.05-3.4c-0.667-0.5-2.5-1-5.5-1.5c-3.066-0.533-4.816-0.933-5.25-1.2l0.85-0.2
		c1.367-0.167,3.533-0.3,6.5-0.4c2.167-0.1,3.767-0.15,4.8-0.15c4.2,0,6.7,0.367,7.5,1.1c1.2,1.1,3.017,1.867,5.45,2.3l0.4,1.25
		c-0.7,1.333-3.566,3.15-8.601,5.45c2.334-0.566,5.034-0.917,8.101-1.05c1.633-0.067,3.816-0.117,6.55-0.15c4-0.3,6-2.217,6-5.75
		l-0.15-3.4l1.65,3.25c0,1.9-0.616,3.633-1.85,5.2c-0.834,1.067-1.733,1.667-2.7,1.8l1.399,0.35c-2.399-0.4-4.55-0.316-6.449,0.25
		c-1.134,0.367-5.983,2.283-14.551,5.75c-0.966,0-1.783-0.2-2.449-0.6c-0.667-0.4-1-0.883-1-1.45C194.017,36.783,192.3,35,189,33.5
		c-3.134-1.433-5.767-1.867-7.9-1.3c4.367,1.066,7.084,1.966,8.15,2.7c0.566,0.4,1.233,0.917,2,1.55
		c-0.667-0.133-1.384-0.217-2.15-0.25c0.867,0.233,1.584,0.85,2.15,1.85c0.033,0.867,0.217,1.583,0.55,2.15
		c0.3,0.566,0.65,0.816,1.05,0.75c0.101-0.034,0.2-0.083,0.301-0.15c0.566,0.6,1.116,0.967,1.649,1.1c-2,0.667-3.75,1.15-5.25,1.45
		c-1.267,0.233-3.283,0.5-6.05,0.8l3.6-1.45c-6.333,1.333-9.833,2-10.5,2c-5.133,0-8.983-0.267-11.55-0.8
		c-3-0.6-4.934-0.917-5.8-0.95H159.2z M187.1,36.15c-0.304,0-0.604,0.017-0.899,0.05h0.7C186.963,36.169,187.029,36.152,187.1,36.15
		z M117.1,16.7c5.8,4.333,9.816,7.233,12.05,8.7c0.067,0.033,0.167,0.083,0.3,0.15c-2.167-0.533-3.284-0.816-3.35-0.85
		c-1.167-1.1-2.083-1.9-2.75-2.4c-1.167-0.9-3.35-1.216-6.55-0.95c0.167-0.333,0.284-1.083,0.35-2.25
		C117.217,17.967,117.2,17.167,117.1,16.7z M153.9,15.2c0,0.7-0.334,1.3-1,1.8c-0.7,0.467-1.534,0.7-2.5,0.7
		c-1.2-0.034-4.034-0.65-8.5-1.85c-4.667-1.233-7.45-2.184-8.351-2.85c-0.4-0.3-2.517-1.5-6.35-3.6c-2.1-1.133-3.75-2.083-4.95-2.85
		c2.1,1.267,4.467,1.95,7.1,2.05c3.5,0.167,5.55,0.483,6.15,0.95c0.8,0.633,2.483,1.35,5.05,2.15c2.867,0.9,5.351,1.4,7.45,1.5
		l-0.35-0.4c-0.867-0.633-1.667-1.25-2.4-1.85c-1.366-1.167-2.25-2.233-2.65-3.2c3.233,0.4,6.233,1,9,1.8
		c2.101,0.6,4.067,0.9,5.9,0.9c2.4,0,3.6-0.784,3.6-2.35c0-0.367-0.199-1.1-0.6-2.2c-0.4-1.066-0.616-1.65-0.65-1.75
		c1.367,0.233,3.551,1.133,6.551,2.7c2.366,1.267,4.017,2.283,4.949,3.05c-0.199-0.133-0.399-0.217-0.6-0.25L170.1,9.7
		c-0.566,2.7-2.649,4.35-6.25,4.95c-1.267,0.233-2.483,0.283-3.649,0.15c-1.059-0.132-1.592-0.332-1.601-0.6
		c-0.866-0.034-2.75-0.684-5.649-1.95c-2.934-1.333-5.634-2-8.101-2l1.25,0.5c0.967,0.233,2.167,0.683,3.601,1.35
		c1.434,0.667,2.434,1.233,3,1.7l-1.601,0.4C152,14.367,152.934,14.7,153.9,15.2z M169.2,25.4c2.467-1.433,4.05-2.4,4.75-2.9
		c0.166-0.067,0.967-0.583,2.399-1.55c1.434-1,2.233-1.583,2.4-1.75l1.1,0.05c-0.166,0.6-0.6,1.217-1.3,1.85
		c-0.666,0.667-1.35,1.1-2.05,1.3l0.1-0.2L169.2,25.4z M243.6,59.5c-0.3-0.067-0.699-0.1-1.199-0.1l-0.7,0.05
		c0.366-0.034,0.566-0.15,0.6-0.35l-1.7-0.65L243.6,59.5z M242.6,111.35c-11.3,1.467-19.466,2.967-24.5,4.5l0.4,0.25
		c0.5,0.167,1.15,0.25,1.95,0.25s1.566-0.05,2.3-0.149c-4.434,0.967-8.184,1.467-11.25,1.5c-4.134,0.033-6.384,0.066-6.75,0.1
		c-1.2-0.267-3.017-1.066-5.45-2.399c-2.333-1.334-3.833-2.351-4.5-3.051c1.601-0.3,2.917-0.75,3.95-1.35
		c0.667-0.366,1.783-1.1,3.35-2.2h-0.25c-5.866-0.133-9.8-0.666-11.8-1.6c-1.399-2.066-2.434-3.5-3.1-4.3
		c-0.601-0.7-1.134-1.184-1.601-1.45c-0.533-0.4-1.399-0.8-2.6-1.2c-1.333-0.4-2.1-0.667-2.3-0.8l-1.2-4.5
		c0.366-0.634,1.066-1.434,2.1-2.4c0.534-0.467,1.101-0.967,1.7-1.5l1.7,0.25c-0.033,0.033-0.184,0.134-0.45,0.3
		c-0.1,0.067-0.149,0.301-0.149,0.7c0,0.767,0.533,1.267,1.6,1.5c2.134,0.5,3.35,0.816,3.65,0.95c0.899,0.4,1.416,0.684,1.55,0.85
		c0.467,0.767,1.25,1.7,2.35,2.801c0.434,0.433,1.767,0.866,4,1.3c1.9,0.333,3.05,1.1,3.45,2.3l-0.15,0.8
		c-2.733-0.5-5.066-0.184-7,0.95c-1.3,0.767-2.233,1.717-2.8,2.85c1.7,0.301,4.816,0.784,9.351,1.45c1.5,0.233,3.699,0.783,6.6,1.65
		c-0.4,0.633-1.384,1.25-2.95,1.85c-1.267,0.5-2.149,0.75-2.649,0.75l0.449,0.45c1.067,0.267,2.317,0.783,3.75,1.55
		c1.634,0.667,3.834,1,6.601,1c0.666,0,1.217-0.033,1.649-0.1l0.051-1.45c-0.534-4-0.767-7.167-0.7-9.5c0.166-4.267,1.833-6.4,5-6.4
		c0.934,0,1.733,0.167,2.399,0.5c0.867,0.467,1.301,1.217,1.301,2.25c0,1-0.351,1.817-1.051,2.45c-1,0.867-1.8,2.084-2.399,3.65
		c0.033,0.733,0.783,1.1,2.25,1.1c6.033,0,9.366-0.033,10-0.1c3.6-0.5,5.633-2,6.1-4.5C239.116,106.3,241.134,109.017,242.6,111.35z
		 M201.7,74.75c0.6-0.333,2.233-1.35,4.899-3.05c-1.466,1.267-2.716,2.149-3.75,2.649L201.7,74.75z M241.85,84.8
		c0.134,1.7,0.15,3.033,0.051,4c-2.467-1-4.617-1.816-6.45-2.45c-3.467-1.199-6.867-1.8-10.2-1.8c-1.366-0.833-3.634-1.55-6.8-2.149
		c-2.7-0.534-4.884-0.801-6.55-0.801L206.6,81.7c0-0.634-0.116-1.05-0.35-1.25l-0.4-0.15l0.75-2.6l-2.55,0.7
		c0.066-0.301,0.3-1.034,0.7-2.2c0.566-1.566,1.15-3.017,1.75-4.351l1.75-0.149c0,0.633,0.1,1.166,0.3,1.6
		c0.167,0.434,0.367,0.65,0.601,0.65l-1.5,0.75c2.033,1,5.633,2.8,10.8,5.399c4.533,2.101,7.767,3.15,9.7,3.15
		c1.399,0,2.583-0.35,3.55-1.05c1.333-0.934,4.517-1.767,9.55-2.5L241.85,84.8z M238.35,59.9l-19.899,2.65
		c0.833-1.367,1.467-2.183,1.899-2.45c1.267,0,4.817-0.067,10.65-0.2C234.2,59.833,236.65,59.833,238.35,59.9z M160.55,48.35
		c0.767,0.267,1.434,0.45,2,0.55c1.334,0.5,2.816,0.983,4.45,1.45c-1.667-0.333-2.517-0.5-2.55-0.5
		C164.283,49.783,162.983,49.283,160.55,48.35z M173.2,60.7l-1.55,0.25c-0.801-0.167-1.584-0.233-2.351-0.2
		c-1.434,0-2.483,0.417-3.149,1.25c-1.367,0.233-2.717,0.483-4.051,0.75c-0.666-0.067-1.35-0.1-2.05-0.1
		c-0.166,0-0.434,0.233-0.8,0.7h-0.025c-3.759,0.803-7.434,1.752-11.024,2.85l5.05-0.2l-0.7,0.5c0.967,0.3,1.95,0.45,2.95,0.45
		c1.6,0,4.134-0.133,7.6-0.4c-2.466,2.367-4.5,4.8-6.1,7.3c-1.366,2.467-2.35,4.117-2.95,4.95c-0.934,1.367-2.166,2.3-3.7,2.8
		c-1.767,0.601-4.583,0.9-8.449,0.9c-3.134,0-5.667-0.35-7.601-1.05c-1.633-0.834-2.75-1.384-3.35-1.65l-1.7-0.7l0.2,0.2L127,78.6
		h0.1c0.233-0.233,0.517-0.466,0.85-0.699c0.2-0.2,0.3-0.4,0.3-0.601c0-1.133-1.817-2.017-5.45-2.649c-3.9-0.5-6.167-0.801-6.8-0.9
		c2.933-2.033,6.517-3.566,10.75-4.6c1.3-0.333,2.167-0.7,2.6-1.101c0.6-0.533,0.9-1.466,0.9-2.8
		c-0.833-7.667-1.367-11.833-1.6-12.5l-0.05-1.55l-0.7,0.2l-0.75-0.95v-0.8c1.833-0.066,2.983-0.15,3.45-0.25
		c0,1.233-0.083,3.1-0.25,5.6c0,1.5,0.25,2.467,0.75,2.9c0.8,0.733,2.667,1.1,5.6,1.1c1.5,0,5.55-0.65,12.149-1.95
		c2.5,0,4.384,0.217,5.65,0.65c1.233,0.4,2.267,0.6,3.1,0.6c2.934,0,6-0.65,9.2-1.95c3.467-1.4,5.45-2.967,5.95-4.7l-1.9-0.65
		c1.634,0,2.717-0.083,3.25-0.25c0.334,0.233,2.117,1.833,5.351,4.8l-0.95,0.9l-0.8-0.7c-0.033,0.633-0.117,1.233-0.25,1.8
		C175.116,59.417,173.7,60.467,173.2,60.7z M157.75,91.75l-0.4-0.75l0.551,0.85L157.75,91.75z M143.3,86.7l3.5,1.3l-0.399-0.05
		L143.3,86.7z M157.7,106.85c-4.934,0.534-8.217,1.801-9.851,3.801c-0.866,1.033-1.25,2.399-1.149,4.1
		c1.566,0.1,4.366-0.4,8.399-1.5c-0.6,0.866-1.083,1.934-1.449,3.2c-0.301,1-0.684,1.666-1.15,2c-1.167,0.866-5.75,1.3-13.75,1.3
		c-2.167,0-3.867-0.816-5.1-2.45c-1.066-1.434-1.7-3.333-1.9-5.7l0.5-0.449c0.433-0.334,0.85-0.5,1.25-0.5
		c0.067,0,1.367,0.533,3.9,1.6c2.6,1.033,4.067,1.55,4.4,1.55c3.434,0,5.017-2.467,4.75-7.399c-0.1-2.2,0.917-4.233,3.05-6.101
		c2.2-1.934,3.301-3.583,3.301-4.95c0-0.933-0.351-2-1.051-3.199c-0.466-0.834-1.033-1.551-1.699-2.15c0.566,0.4,1.233,0.85,2,1.35
		c2.8,1.834,4.466,3.034,5,3.601c0.199,1.033,0.333,2.05,0.399,3.05L157,98.7c-0.634,0-1.184,0.184-1.65,0.55
		c-0.466,0.333-0.699,0.75-0.699,1.25c-0.7,1.267-1.051,3.333-1.051,6.2L157.7,106.85z M188.9,89.55
		c0.3-0.267,1.017-0.583,2.149-0.95c1.3-0.399,2.417-0.616,3.351-0.649L188.9,89.55z M225.15,66.8l2.649,0.85l-2.6-0.15L225.15,66.8
		z M231.95,68.25c2.666,0,4.934,0.533,6.8,1.6c1.866,1.034,2.8,2.301,2.8,3.801c-0.3-0.9-1.533-1.95-3.7-3.15
		C235.717,69.3,233.75,68.55,231.95,68.25z M209.95,119.1c-0.8-0.1-2.05-0.383-3.75-0.85c1.366,0.066,3.85,0.05,7.45-0.05
		L209.95,119.1z M163.1,112.65c-0.166,0-0.983-0.267-2.449-0.801c-1.5-0.5-2.351-0.767-2.551-0.8c0.101-0.233,0.301-0.934,0.601-2.1
		c0.3-1.167,0.45-1.867,0.45-2.101c1.199,0,2.233,0.534,3.1,1.601c0.833,1.066,1.25,2.35,1.25,3.85L163.1,112.65z M158.6,14.2
		c-0.001,0.499-0.117,0.632-0.35,0.4C158.017,14.333,158.134,14.2,158.6,14.2z M132.4,26.25c1.367,0.233,3.15,0.5,5.35,0.8
		c4.134,0.534,6.566,1.833,7.3,3.9l-1.8,0.05c-0.8-1.667-3.5-3.033-8.1-4.1C134.15,26.667,133.233,26.45,132.4,26.25z M125.6,40.3
		l0.05,0.4c0.067,0.2,0.267,0.533,0.6,1c1.333,0.133,2.133,0.2,2.4,0.2c1.467,0,2.783-0.4,3.95-1.2l6-2.5
		c-0.267,0.1-2.266,0.433-6,1C128.667,39.767,126.333,40.133,125.6,40.3z M125.15,49.15c-0.1,1.3-0.65,2.567-1.65,3.8
		c-1.567,1.9-2.467,3.066-2.7,3.5c-0.833,1.5-1.883,3.2-3.15,5.1c-1.333,2-2.233,3.167-2.7,3.5c-0.633,0.5-2.15,0.917-4.55,1.25
		c-2.9,0.434-4.683,0.75-5.35,0.95c-4.167,1.367-8.383,3.083-12.65,5.15c-2.8,1.333-4.85,1.983-6.15,1.949
		c1.567-1.033,4.9-2.55,10-4.55c0.3-0.1,4.383-1.633,12.25-4.6l-5.75-0.15c-3.767,0-6.967,0.633-9.6,1.9
		c-2.633,1.233-6.2,1.85-10.7,1.85c-2.333,0-4.034-0.25-5.1-0.75c-1.934-0.9-2.9-2.716-2.9-5.45c0-1.633,0.566-3.3,1.7-5
		c1.367-2.067,3.417-3.9,6.15-5.5c-0.033,0.2,0.05,0.617,0.25,1.25c0.131,0.394,0.065,0.594-0.2,0.6
		c1.509-0.003,3.892-0.62,7.15-1.85c3.5-1.267,5.667-2.434,6.5-3.5c0.8-1.033,1.567-3.25,2.3-6.65c0.467-2.133,1.8-3.2,4-3.2
		c3.067,0,7.85,2.117,14.35,6.35c-0.2-0.934-0.867-1.833-2-2.7c-1.4-0.9-2.383-1.566-2.95-2l0.2,0.1l8.2,4.5
		c1.733,1.633,3.033,2.767,3.9,3.4C124.467,48.733,124.85,48.983,125.15,49.15z M133.85,48.5l2.05,0.3l-2.65-0.05L133.85,48.5z
		 M156.6,46.8c-1.233-0.5-2.233-0.75-3-0.75c-3.033,1.034-5.383,1.767-7.05,2.2c1.334-0.4,2.5-0.95,3.5-1.65
		c1.4-1,2.283-1.5,2.65-1.5C152.767,45.1,154.066,45.667,156.6,46.8z M100.75,95.3l-0.6,1.15c-2.1,1.133-3.066,3.383-2.9,6.75
		c-2.767,0.5-5.25,1.5-7.45,3c-2.1,1.434-3.15,2.75-3.15,3.95c0,1.233,0.667,2.066,2,2.5c1.233,0.433,3.45,0.649,6.65,0.649
		c1.333,0,2.233-0.149,2.7-0.45l-3.2,5.65c-0.367,0-2.3-0.384-5.8-1.15c-3.567-0.767-5.75-1.149-6.55-1.149
		c-1.034,0-3.083,0.383-6.15,1.149c-3,0.733-5.25,1.4-6.75,2c0-2.5,0.284-4.666,0.85-6.5c0.567-1.833,0.85-3,0.85-3.5
		c0-0.733-0.35-1.6-1.05-2.6c1.433,0.233,3.216,0.533,5.35,0.9c1.633,0.267,3.067,0.399,4.3,0.399c3.233,0,5.383-0.3,6.45-0.899
		c0.667-0.367,1.317-1.25,1.95-2.65c2-4.2,3.25-6.866,3.75-8c1.433-3.4,2.15-5.866,2.15-7.4L94.1,86.2h-8.05l-1.2,0.25
		c0.467-0.434,1.333-0.733,2.6-0.9c1.267-0.2,2.417-0.3,3.45-0.3c3.6,0,5.8,1.483,6.6,4.45c0.1,0.399,0.15,2.25,0.15,5.55
		L100.75,95.3z M110.8,86.55c0.7-0.767,1.784-1.616,3.25-2.55c-0.1,0.366-0.433,1.816-1,4.35c-0.566,2.5-1.066,4.017-1.5,4.551
		l-0.3-1.101C111.15,89.533,111,87.783,110.8,86.55z M83.4,75.2l-6.3-0.851c0.066,0,0.133,0,0.2,0l4.2,0.5L83.4,75.2z M119.85,81.2
		c0.433-0.233,1.183-0.4,2.25-0.5c1.667-0.2,3.15-0.033,4.45,0.5C124.55,80.967,122.317,80.967,119.85,81.2z M130.95,107.65
		l1.2-2.551c-0.1,0.4-0.3,0.9-0.6,1.5C131.283,107.2,131.083,107.55,130.95,107.65z M124.3,120.8c-2.5-0.066-4.167,0.117-5,0.55
		c-0.867,0.467-1.533,0.7-2,0.7c-0.667,0-4.033-1.6-10.1-4.8c-0.733-0.434-1.434-1.017-2.1-1.75c-1.167-1.333-1.85-3.15-2.05-5.45
		c2.934,0.467,7.534-0.767,13.8-3.7c6.6-3.066,10.433-4.6,11.5-4.6c1.1,0,1.95,0.233,2.55,0.7c0.533,0.434,0.967,1.116,1.3,2.05
		c-1.3,0.566-2.917,2.283-4.85,5.15c-2.167,3.233-3.25,6.05-3.25,8.449C124.1,118.767,124.167,119.667,124.3,120.8z"/>
	<path style="fill-rule:evenodd;clip-rule:evenodd;fill:#9B9286;" d="M241.55,73.65c0-1.5-0.934-2.767-2.8-3.801
		c-1.866-1.066-4.134-1.6-6.8-1.6c-1.434-0.3-2.816-0.5-4.15-0.6l-2.649-0.85v-1.1l6.699,0.2c0.301,0,1.2-0.367,2.7-1.1
		c1.5-0.767,3.717-1.15,6.65-1.15c0.166,0,2.633-0.033,7.399-0.1c4.934,0.3,7.95,1.3,9.051,3l0.05,0.2
		c-1.634,2.667-2.684,4.583-3.15,5.75c-0.2-1.066-0.35-2.167-0.45-3.3l-2,5.5l2.051,0.899c0.933,1.834,1.6,4.301,2,7.4
		c0.333,2.667,0.366,4.583,0.1,5.75l-4.6,1.75c-0.467-0.833-0.934-1.884-1.4-3.15l-1.65,1.601c-0.166-0.334-0.733-2.05-1.699-5.15
		c-1-3.233-1.567-5.017-1.7-5.35c-0.566-1.3-1.017-2.167-1.351-2.601c-0.5-0.633-1.116-1.616-1.85-2.949l-0.35,0.949L241.55,73.65z
		 M198.05,129.2c-0.666-0.167-1.75-0.9-3.25-2.2c-2.333-2.033-3.8-3.283-4.399-3.75c-0.5,1.1-0.834,1.767-1,2l-0.5-0.4
		c0.333-2.566,0.083-5.649-0.75-9.25c-0.934-3.366-1.45-5.416-1.551-6.149v-2.15l1.15-0.1c1,0.566,1.833,2.934,2.5,7.1
		c0.733,4.667,1.233,7.233,1.5,7.7c0.033-0.033,0.167-1.533,0.4-4.5c0.233-2.467,1.116-4.184,2.649-5.15
		c0.667,0.7,2.167,1.717,4.5,3.051c2.434,1.333,4.25,2.133,5.45,2.399h-0.1c0.533,0.233,1.05,0.384,1.55,0.45
		c1.7,0.467,2.95,0.75,3.75,0.85l-3.8,1.65l5.25-0.1c0.733,0,3.083,0.1,7.05,0.3c4.467,0.233,7.616,0.434,9.45,0.6
		c0,0.134,0.25,0.2,0.75,0.2c-0.334,2.2-3.067,3.3-8.2,3.3c-4.533,0-8.316-0.166-11.351-0.5c-0.399-0.033-1.5-0.366-3.3-1
		l-2.649-0.95c-0.067,0-0.25,0.184-0.551,0.551l-0.05-0.101c-0.1,0.134-0.184,0.267-0.25,0.4c-0.399,0.434-0.916,1.033-1.55,1.8
		C199.184,127.15,198.283,128.467,198.05,129.2z M29.85,117.25c2.7-0.267,5.517-1.366,8.45-3.3c2.8-1.867,4.25-2.8,4.35-2.8
		c0.2,0,1.1,0.449,2.7,1.35c1.6,0.866,2.717,1.3,3.35,1.3c2.5,0,4.917-1.7,7.25-5.1c1.167-1.733,2.083-3.483,2.75-5.25
		c0-1-1.167-3.25-3.5-6.75c-1.7-2.601-3.733-5.434-6.1-8.5c1.066-0.367,2-0.566,2.8-0.601l0.15-1.199l2.55-0.2
		c0.167,0,1.083,0.333,2.75,1c2.2,0.733,4.633,1.217,7.3,1.45c0.233,0.033,1.233,0.149,3,0.35c1.567,0.2,2.833,0.316,3.8,0.35
		c-1.233,0.567-2.434,1.051-3.6,1.45c-4.2,0.167-7.75,0.084-10.65-0.25l-1.15-0.3l3.4,1.25l-4.15,0.3c1.1,0.601,4.6,1.351,10.5,2.25
		c0.067,0,0.117,0,0.15,0c1.566,0.667,4.8,0.75,9.7,0.25c-0.133,0.2-1.017,0.684-2.65,1.45c-2.167-0.233-3.7-0.333-4.6-0.3
		l-5.45-0.601c0.033,1.934,0.883,4.184,2.55,6.75c1.233,1.9,2.283,3.2,3.15,3.9c0.633,0.634,1.15,1.05,1.55,1.25
		c0.7,1,1.05,1.866,1.05,2.6c0,0.5-0.283,1.667-0.85,3.5c-0.566,1.834-0.85,4-0.85,6.5c1.5-0.6,3.75-1.267,6.75-2
		c3.067-0.767,5.117-1.149,6.15-1.149c0.8,0,2.983,0.383,6.55,1.149c3.5,0.767,5.433,1.15,5.8,1.15l-0.95,1.55
		c-1.333-0.267-2.983-0.5-4.95-0.7c-1.667-0.199-2.816-0.3-3.45-0.3c-0.7,0-3.45,0.467-8.25,1.4
		c-4.833,0.934-7.583,1.399-8.25,1.399c-0.567,0-1.45-0.05-2.65-0.149c-1.367-0.066-2.466-0.167-3.3-0.3
		c0.267-0.5,0.55-1.233,0.85-2.2c0.3-0.9,0.45-1.434,0.45-1.601c0-3.866-0.9-8.416-2.7-13.649c-1.833-5.334-3.75-8.884-5.75-10.65
		l-1.3-0.95c0.567,1.7,1.233,3.084,2,4.15c0.4,0.566,0.95,1.3,1.65,2.2c1.033,1.633,1.566,5.399,1.6,11.3
		c-0.566,1.333-1.433,4.8-2.6,10.4c-1.233-0.267-2.184-0.4-2.85-0.4c-0.4,0-3.117,1.2-8.15,3.6c-5.5,2.601-9.017,4.134-10.55,4.601
		l-1.35,0.3c-1,0.134-3.2,0.2-6.6,0.2c-3.6,0-6-0.617-7.2-1.851c-1.033-1.1-1.65-3.333-1.85-6.699c0.7,0,2.25-0.233,4.65-0.7
		C26.433,118.816,28.617,118.083,29.85,117.25z M17.05,116.85c-0.833,0.034-2.466-0.483-4.9-1.55c-2.167-0.899-3.533-1.566-4.1-2
		l-0.55-0.5c0.567,0.2,1.183,0.45,1.85,0.75C14.083,115.583,16.65,116.684,17.05,116.85z M2.45,110.85
		c0.533,0.101,2.133,0.717,4.8,1.851c0.267,0.733,1.133,2.35,2.6,4.85c1.1,1.834,1.417,3.95,0.95,6.351l-0.3,0.5
		c-2.567-1.167-5.083-3.367-7.55-6.601c-1.967-3-2.95-4.533-2.95-4.6c0-0.101,0.183-0.351,0.55-0.75
		C1.05,111.917,1.683,111.384,2.45,110.85z M76.15,74.25h-0.1l-3-0.4l3.9,1.75c-1.967-0.233-3.867-0.517-5.7-0.85
		c-2.7-1.667-4.567-2.884-5.6-3.65c-0.633-0.566-1.2-1.033-1.7-1.399c-0.034-1.034-0.017-2.083,0.05-3.15
		c0.133,0.167,0.533,0.7,1.2,1.6c0.667,0.9,1.083,1.383,1.25,1.45c1.1,0.9,2.367,1.717,3.8,2.45
		C72.283,73.116,74.25,73.85,76.15,74.25z M122.15,44.8c-1.167-0.033-2.217-0.3-3.15-0.8l1.1,1l-8.2-4.5
		c0.467,0.233-1.367-1.067-5.5-3.9l0.75-0.2c0.533,0.167,2.95,1.333,7.25,3.5c0.767,0.9,1.75,1.833,2.95,2.8l0.75,0.6l-2.7-2.75
		c1.167,0.733,2.467,1.583,3.9,2.55C120.167,43.7,121.117,44.267,122.15,44.8z M120.3,5.2h0.05c0.167,0.167,0.333,0.316,0.5,0.45
		c0.433,0.333,0.9,0.633,1.4,0.9c1.2,0.767,2.85,1.717,4.95,2.85c3.833,2.1,5.95,3.3,6.35,3.6c0.9,0.667,3.684,1.617,8.351,2.85
		c4.466,1.2,7.3,1.816,8.5,1.85l-1.25,0.1c0.633,3.167,0.949,4.967,0.949,5.4c0,2.033-0.399,3.617-1.199,4.75
		c-1,1.1-1.733,2.066-2.2,2.9l-1.65,0.1c-0.733-2.067-3.166-3.367-7.3-3.9c-2.2-0.3-3.983-0.566-5.35-0.8
		c-1.133-0.267-2.117-0.5-2.95-0.7c-0.133-0.066-0.233-0.117-0.3-0.15c-2.233-1.467-6.25-4.367-12.05-8.7l-0.5-3
		c0.433-2.567,1.217-4.817,2.35-6.75l1.25-1.6L120.3,5.2z M241.85,84.8c0.167,1.101,0.25,2.45,0.25,4.05L241.9,88.8
		C242,87.833,241.983,86.5,241.85,84.8z M206.6,71.7c-2.666,1.7-4.3,2.717-4.899,3.05h-1.25c0.267-0.267,1.033-1.017,2.3-2.25
		c1.533-1.533,3.283-3.366,5.25-5.5c0.9-0.967,1.967-2.55,3.2-4.75c1.233-1.8,2.717-2.85,4.45-3.15l0.05,0.55l4.649,0.45
		c-0.433,0.267-1.066,1.083-1.899,2.45c-1.134,0-2.101,0.7-2.9,2.1c-0.833,1.367-1.25,3.017-1.25,4.95
		c-0.934,0.834-2.116,1.384-3.55,1.65c-1.634,0.267-2.467,0.417-2.5,0.45l-1.75,0.149L206.6,71.7z M242.6,111.35
		c-1.466-2.333-3.483-5.05-6.05-8.149c-0.066-0.834-0.983-3.066-2.75-6.7c-1.833-3.6-2.833-5.566-3-5.9
		c1.434,0.934,2.934,1.75,4.5,2.45c0.5,0.434,1.934,1.483,4.3,3.15c1.934,1.366,3.317,2.467,4.15,3.3c0.8,0.8,1.5,2.65,2.1,5.55
		c0.301,1.5,0.617,3.117,0.95,4.851l0.45,0.899v0.05l-0.2,0.95l-0.6,0.05C245.616,111.583,244.333,111.417,242.6,111.35z
		 M197.6,40.9c8.567-3.467,13.417-5.383,14.551-5.75c1.899-0.566,4.05-0.65,6.449-0.25c1.267,0.633,2.2,1.8,2.801,3.5
		c0.399,1.067,0.983,3.517,1.75,7.35c-0.567,0.333-2.2-0.217-4.9-1.65c-3.4-1.8-6.05-2.934-7.95-3.4c-1.8-0.434-3.967-0.55-6.5-0.35
		C200.967,40.65,198.9,40.833,197.6,40.9z M174.1,50.75c0.2-0.067,0.65-0.317,1.351-0.75c0.666-0.433,1.05-0.7,1.149-0.8
		c-2.166-1.233-3.866-1.883-5.1-1.95c0.967,0,2.467-0.217,4.5-0.65c2.866-0.633,5.366-1.45,7.5-2.45c2.767-0.3,4.783-0.566,6.05-0.8
		c1.5-0.3,3.25-0.783,5.25-1.45l6.9-0.4c1.767,0,3,0.233,3.7,0.7c2.433,1.633,3.666,2.466,3.699,2.5
		c0.267,0.367,0.834,0.966,1.7,1.8c0.634,0.6,1.184,1.333,1.65,2.2c0.133,1.066,0.2,3.066,0.2,6c0,2.933-0.983,4.466-2.95,4.6
		c-1.167-0.033-2.066,0-2.7,0.1c-1.1,0.2-1.983,0.7-2.65,1.5c-0.933,1.1-1.533,2.434-1.8,4c-0.166,0.833-0.85,1.25-2.05,1.25
		c-2.8,0.233-5.517,0.25-8.15,0.05c-5.166-0.4-8.199-1.667-9.1-3.8c-1.233-2.2-2.033-3.717-2.4-4.55l-0.149,1l-2.2-2.4l0.95-0.9
		C176.217,52.583,174.434,50.983,174.1,50.75z M173.95,22.5c-0.7,0.5-2.283,1.467-4.75,2.9c-2.066,0.867-3.601,1.45-4.601,1.75
		c0.9-0.7,1.7-1.233,2.4-1.6C168.066,25.017,170.384,24,173.95,22.5z M159.2,42.95c-0.601-0.167-3.75-1.25-9.45-3.25
		c1.967,1.633,3.066,2.583,3.3,2.85c0.267,0.1,2.134,0.934,5.601,2.5l-2,0.05c0.966,1,1.683,1.65,2.149,1.95
		c0.4,0.267,1.65,0.883,3.75,1.85c-0.566-0.1-1.233-0.283-2-0.55l-3.95-1.55c-2.533-1.133-3.833-1.7-3.899-1.7
		c-0.367,0-1.25,0.5-2.65,1.5c-1,0.7-2.166,1.25-3.5,1.65c-0.767,0.2-1.6,0.367-2.5,0.5c-2.033,0.1-4.75,0.117-8.15,0.05l-2.05-0.3
		l1.4-0.65l2.6,0.15c2.9,0,4.85-0.617,5.85-1.85c0.934-1.233,1.566-3.883,1.899-7.95h-0.949l-0.051-1.5l1.801,1.65l0.25-1.6h0.75
		l2.149-0.05l0.3-2.75l0.95-0.75c-0.5,0.7-0.75,1.4-0.75,2.1c0,0.4,0.033,0.617,0.101,0.65l0.25,0.1l-0.65,0.8
		c0.4,0.667,1.517,1.633,3.35,2.9C155.167,41.15,157.2,42.217,159.2,42.95z M177.45,57.55c0,0.867-0.417,1.617-1.25,2.25
		c-0.834,0.6-1.834,0.9-3,0.9C173.7,60.467,175.116,59.417,177.45,57.55z M166.15,62c0.666-0.833,1.716-1.25,3.149-1.25
		c0.767-0.033,1.55,0.033,2.351,0.2L166.15,62z M180.7,57.85h0.149l0.25-0.45c0.167-0.267,0.334-0.333,0.5-0.2l-1-1L180.7,57.85z
		 M170,86.55c-0.333,0.967-0.983,3.65-1.95,8.05c0,0.267,0.117,1.117,0.351,2.551c0.199,1.466,0.316,2.616,0.35,3.449
		c-0.333,0.267-0.717,0.467-1.15,0.601c-0.699-0.834-1.267-2.233-1.699-4.2c-0.601-2.7-1.034-4.384-1.301-5.05
		c-1.533-4-5.216-5.983-11.05-5.95c-3.866,0-8.1-0.65-12.7-1.95c-4.5-1.267-7.8-2.684-9.899-4.25c0.6,0.267,1.716,0.816,3.35,1.65
		c1.934,0.7,4.467,1.05,7.601,1.05c3.866,0,6.683-0.3,8.449-0.9c1.534-0.5,2.767-1.433,3.7-2.8c0.601-0.833,1.584-2.483,2.95-4.95
		c1.6-2.5,3.634-4.933,6.1-7.3l2.051-0.15c0.199,0.2,0.533,0.417,1,0.65c0.333,0.267,0.5,0.65,0.5,1.15c0,0.1-0.284,0.767-0.851,2
		c-0.6,1.399-0.899,2.467-0.899,3.2c0,2.066,0.85,4.233,2.55,6.5C169.15,82.2,170,84.417,170,86.55z M127.9,51.4l-0.75,0.15v-1.1
		L127.9,51.4z M128.65,52.75c0.233,0.667,0.767,4.833,1.6,12.5c0,1.333-0.3,2.267-0.9,2.8c-0.434,0.4-1.3,0.767-2.6,1.101
		c-4.233,1.033-7.817,2.566-10.75,4.6c0.633,0.1,2.9,0.4,6.8,0.9c3.633,0.633,5.45,1.517,5.45,2.649c0,0.2-0.1,0.4-0.3,0.601
		c-0.333,0.233-0.617,0.466-0.85,0.699H127l2.45,0.7c6.733,4.066,11.7,6.584,14.899,7.55c1.801,0.567,4.5,1.351,8.101,2.351
		c-1.834-0.467-3.717-0.867-5.65-1.2l-3.5-1.3c-1.5-0.566-3.033-1.134-4.6-1.7c-3.167-1.167-4.967-1.75-5.4-1.75
		c-0.2,0-2.45-0.684-6.75-2.05c-1.3-0.533-2.783-0.7-4.45-0.5c-1.067,0.1-1.817,0.267-2.25,0.5c-1.467,0.166-2.533,0.383-3.2,0.649
		c-1.167,0.434-2.033,1.15-2.6,2.15c-1.466,0.934-2.55,1.783-3.25,2.55L110.45,83c0.1-0.2,0.15-1.116,0.15-2.75
		c2.967-5.167,5.316-8.134,7.05-8.9c0.6-0.267,1.617-0.633,3.05-1.1c1.533-0.6,3.2-1.583,5-2.95c2.367-1.767,3.566-3.533,3.6-5.3
		C128.9,59,128.683,55.917,128.65,52.75z M179.25,94.95l1.2,4.5c-0.533-0.233-1-0.5-1.4-0.8
		C179.083,96.616,179.15,95.384,179.25,94.95z M227.25,86.15l0.8,0.55v0.25L227.25,86.15z M185.35,101.45
		c0.467,0.267,1,0.75,1.601,1.45c0.666,0.8,1.7,2.233,3.1,4.3c-0.566-0.467-1.45-1.483-2.649-3.05
		C186.2,102.583,185.517,101.684,185.35,101.45z M128.15,121c0.067-2.467,0.184-4.934,0.35-7.4c0.5-1.366,0.933-2.433,1.3-3.199
		l-0.25,3.05l2.2-1.851c0.2,2.367,0.833,4.267,1.9,5.7c1.233,1.634,2.934,2.45,5.1,2.45c8,0,12.583-0.434,13.75-1.3
		c0.467-0.334,0.85-1,1.15-2c0.366-1.267,0.85-2.334,1.449-3.2c0.134-0.066,0.634-0.417,1.5-1.05c0.867-0.634,1.367-1.017,1.5-1.15
		c0.2,0.033,1.051,0.3,2.551,0.8c1.466,0.534,2.283,0.801,2.449,0.801c-0.933,0.733-2.333,1.483-4.199,2.25
		c-1.834,0.8-3.434,1.733-4.801,2.8c-0.066,0.066-0.267,0.8-0.6,2.2c-0.366,1.566-0.75,2.683-1.15,3.35
		c-1.166,1.9-3.566,2.85-7.199,2.85c-6-0.466-9.9-0.733-11.7-0.8c-1.4,0-2.25-0.033-2.55-0.1c-1.133-0.334-1.9-1.184-2.3-2.55
		L128.15,121z M159.15,106.85L159.1,105.7l-1.399,1.149L153.6,106.7c0-2.867,0.351-4.934,1.051-6.2l-0.051,1.6
		c2.834-0.399,5.15,1,6.95,4.2c1.4,2.5,2.05,4.5,1.95,6c0-1.5-0.417-2.783-1.25-3.85C161.384,107.384,160.35,106.85,159.15,106.85z
		 M83.4,75.2l-1.9-0.351c1.9,0.134,3.483-0.033,4.75-0.5c1.3,0.034,3.35-0.616,6.15-1.949c4.267-2.067,8.483-3.784,12.65-5.15
		c0.667-0.2,2.45-0.517,5.35-0.95c2.4-0.333,3.917-0.75,4.55-1.25c0.466-0.333,1.367-1.5,2.7-3.5c1.267-1.9,2.317-3.6,3.15-5.1
		c0.233-0.434,1.133-1.6,2.7-3.5c1-1.233,1.55-2.5,1.65-3.8c0.6,0.5,1,0.967,1.2,1.4c0.133,0.267,0.267,0.633,0.4,1.1l-2.15,0.55
		c0.6,0.733,0.9,1.6,0.9,2.6c0,1.133-0.3,2.367-0.9,3.7c-0.167,0.3-0.45,0.817-0.85,1.55c-0.4,0.833-0.617,1.3-0.65,1.4v0.05
		c-1.267,2-2.383,3.317-3.35,3.95c-0.467,0-0.85,0.117-1.15,0.35c-0.333,0.2-0.5,0.467-0.5,0.8c-1.233,0.767-2.533,1.467-3.9,2.1
		c-0.567,0.2-1.217,0.366-1.95,0.5c-2.467-0.066-4.617,0.066-6.45,0.399l-0.85,0.101c-1.133,0-2.967,0.383-5.5,1.149
		c-2.233,0.667-3.617,1.15-4.15,1.45c-0.633,0.167-1.983,0.767-4.05,1.8c-1.9,0.934-3.267,1.45-4.1,1.551
		C86.117,75.616,84.867,75.467,83.4,75.2z M137.75,45.25l-5.3,0.3c0.167-0.033,1.383-0.267,3.65-0.7c2-0.367,3.317-0.583,3.95-0.65
		C139.316,44.633,138.55,44.983,137.75,45.25z M111.55,92.9l-0.4,0.55l0.1-1.65L111.55,92.9z M85.55,81l1.05-2.3L78.25,83.1
		c0.233-0.366,0.633-1.183,1.2-2.449c0.566-1.2,1.167-2.067,1.8-2.601c-0.933-0.233-2.417-0.649-4.45-1.25
		c-1.833-0.566-3-0.95-3.5-1.149l5.55,0.8c1.066,0.333,1.9,0.649,2.5,0.95c0.6,0.233,2.05,0.5,4.35,0.8l3.8,0.05L85.55,81z
		 M89.55,78.25c1.567,0.1,3.133,0.15,4.7,0.15c0.667,0,3.2-0.25,7.6-0.75l1.8,0.05l0.05,0.149c0.066,0.101,0.2,0.2,0.4,0.301
		c-0.833,0.833-2.4,1.916-4.7,3.25c-0.867,0.5-1.3,1.733-1.3,3.699c0,2.367,0.617,4.301,1.85,5.801c1,1.199,1.267,2.666,0.8,4.399
		l-3.1-0.05c0-3.3-0.05-5.15-0.15-5.55c-0.8-2.967-3-4.45-6.6-4.45c-1.033,0-2.183,0.1-3.45,0.3c-1.267,0.167-2.133,0.467-2.6,0.9
		l-2.05,1l0.35-0.75c0.3-0.3,1.4-1.717,3.3-4.25C88.383,79.917,89.417,78.517,89.55,78.25z M100.15,96.45
		c-0.1,0.2-0.233,0.583-0.4,1.149c-0.233,0.834-0.383,1.617-0.45,2.351l0.65,3.25h-2.7C97.083,99.833,98.05,97.583,100.15,96.45z
		 M101.35,104.7l-0.25,1.85c-0.167,1.066,0.483,2.233,1.95,3.5c0.2,2.3,0.883,4.117,2.05,5.45c0.667,0.733,1.367,1.316,2.1,1.75
		c6.066,3.2,9.433,4.8,10.1,4.8c0.467,0,1.133-0.233,2-0.7c0.833-0.433,2.5-0.616,5-0.55l0.05,0.9c0,3.1-2.434,4.649-7.3,4.649
		c-4.033,0-7.466-1-10.3-3c-2.533-1.8-4.467-4.3-5.8-7.5c0.066-1.5-0.067-2.85-0.4-4.05c0-2.133-0.167-3.866-0.5-5.2l0.05-2.199
		c0,0.133,0.033,0.283,0.1,0.449c0.066,0.2,0.183,0.351,0.35,0.45c0.167,0.066,0.333,0.05,0.5-0.05
		C101.183,105.15,101.283,104.967,101.35,104.7z"/>
	<path style="fill-rule:evenodd;clip-rule:evenodd;fill:#7C7367;" d="M277.55,98.55c-0.233,2.167-1.267,3.884-3.1,5.15
		c-2.167,1.467-5.334,2.2-9.5,2.2l-2.25-0.25c0.666-3.4,1.283-7.4,1.85-12l-0.25-0.75c-0.2,0.133-0.767,0.383-1.7,0.75
		c-0.933,0.333-1.483,0.517-1.649,0.55c0.1-0.066,0.633-0.5,1.6-1.3c0.967-0.801,1.55-1.2,1.75-1.2c1.667,0,2.5,1.133,2.5,3.399
		c0,1.467-0.366,4.167-1.1,8.101c1.533,0.2,2.816,0.3,3.85,0.3c2.334,0,3.684-0.816,4.05-2.45c0.101-3.366,0.233-6.75,0.4-10.149
		c1,0.866,1.866,2.283,2.6,4.25C277.233,96.717,277.55,97.85,277.55,98.55z M182.65,119.1l-0.601-0.5
		c-0.767-0.5-1.533-0.916-2.3-1.25c-1.066-2.267-1.934-4.199-2.6-5.8c-1.301-3.066-1.95-5.983-1.95-8.75
		c0-0.733,0.217-3.6,0.649-8.6c0.434-5.2,0.65-7.967,0.65-8.3c0.767-0.733,1.55-1.551,2.35-2.45c0.733-0.667,1.967-1.351,3.7-2.05
		c-0.899,1.066-1.583,2.199-2.05,3.399l-0.4,1.4c0.567,0,1.784-0.617,3.65-1.851c2.3-1.533,5.167-2.916,8.6-4.149
		c-1.133,0.434-2.183,0.883-3.149,1.35c-2.5,1.233-4.783,3.134-6.851,5.7l-0.199,0.3c-1.733,2.2-3.101,4.617-4.101,7.25
		c-0.967,2.533-1.45,4.867-1.45,7c0,5.434,0.45,8.851,1.351,10.25c0.2,0.3,0.967,1.2,2.3,2.7
		C181.55,116.417,182.35,117.866,182.65,119.1z M26.85,131.15c1.5-0.2,3.017-0.351,4.55-0.45c-0.4,0.166-1.05,0.316-1.95,0.45
		c-0.833,0.1-1.6,0.133-2.3,0.1H27.1L26.85,131.15z M156.1,17.2l-2.199-2c-0.967-0.5-1.9-0.833-2.801-1l1.601-0.4
		c-0.566-0.466-1.566-1.033-3-1.7c-1.434-0.667-2.634-1.117-3.601-1.35l-1.25-0.5c2.467,0,5.167,0.667,8.101,2
		c2.899,1.267,4.783,1.917,5.649,1.95c0.009,0.268,0.542,0.467,1.601,0.6c1.166,0.133,2.383,0.083,3.649-0.15
		c3.601-0.6,5.684-2.25,6.25-4.95l0.65-0.05c0.2,0.033,0.4,0.117,0.6,0.25c0.233,0.133,0.434,0.333,0.601,0.6l0.1,0.2
		c0.134,0.6,0.316,1.816,0.55,3.65c0.467,0.867,1.034,1.733,1.7,2.6c-2.066,2.7-3.483,4.417-4.25,5.15
		c-2.566,2.533-5.733,4.55-9.5,6.05l-0.399,0.05c2.733-1.367,4.716-2.55,5.949-3.55c1.2-1.033,2.217-2.367,3.051-4
		c-0.467,0.4-1.284,0.733-2.45,1c-0.9,0.2-1.634,0.3-2.2,0.3c-1.333,0-2.217-0.25-2.65-0.75c-0.199-0.2-0.399-0.733-0.6-1.6
		C160.884,18,159.167,17.2,156.1,17.2z M164.1,18.9c1.034-0.133,1.7-0.383,2-0.75c0.334-0.4,0.967-1.816,1.9-4.25
		c-0.5,0.7-1.684,1.45-3.55,2.25c-2.167,0.934-3.316,1.45-3.45,1.55l0.25,0.3c0.333,0.233,0.816,0.433,1.45,0.6
		c-0.066,0.8-0.066,1.633,0,2.5l0.7,0.15c0.433-0.1,0.666-0.217,0.699-0.35V18.9z M235.8,37.55c-0.333,11.767-2.899,17.65-7.7,17.65
		c-2,0-4.216-0.317-6.649-0.95c-2.533-0.667-4.3-1.45-5.3-2.35l-0.801-1c0.167,0.467,0.551,2.05,1.15,4.75
		c0.333,1.467,0.816,2.2,1.45,2.2l3.7-0.55c2.633-0.4,4.449-0.6,5.449-0.6c0.5,0,2.317,0.05,5.45,0.15
		c2.934,0.1,5.167,0.133,6.7,0.1c0.434,0.533,0.65,0.816,0.65,0.85l0.699,0.65l1.7,0.65c-0.033,0.2-0.233,0.316-0.6,0.35
		l-3.351,0.45c-1.699-0.066-4.149-0.066-7.35,0c-5.833,0.133-9.384,0.2-10.65,0.2l-4.649-0.45l-0.05-0.55
		c0.233-0.767,0.267-1.65,0.1-2.65c-0.3-1.867-1.4-4.45-3.3-7.75c-0.467-0.867-1.017-1.6-1.65-2.2c-0.866-0.833-1.434-1.433-1.7-1.8
		c1.467-0.333,2.551-0.1,3.25,0.7c0.301,0.333,0.801,1.333,1.5,3c1.301,3.233,3.867,4.85,7.7,4.85c2.667,0,4.75-0.867,6.25-2.6
		c1.634-1.867,2.45-4.566,2.45-8.1c0-1.133-0.717-2.667-2.15-4.6c-2.333-3.2-4.449-6.667-6.35-10.4l-1.65-3.25
		c-0.133-0.533-0.316-1.117-0.55-1.75c-0.166-0.367-0.3-0.667-0.399-0.9l1.1,0.2c0.4,0,1.583,0.367,3.55,1.1
		c2.434,1.7,4.667,3.183,6.7,4.45c1.1,0.867,2.45,2.633,4.05,5.3c0.5,1.466,0.867,2.8,1.101,4c0,0.066,0.017,0.15,0.05,0.25
		c0,0.033,0.017,0.083,0.05,0.15v0.15c0,0.067,0.017,0.15,0.05,0.25V37.55z M254.55,72.5c1.3,3.6,1.967,5.45,2,5.55l-2.399-2.45
		L252.1,74.7l2-5.5C254.2,70.333,254.35,71.434,254.55,72.5z M251.65,90.5l4.6-1.75l3.85-0.65c-0.033-1.767-0.267-3.366-0.699-4.8
		c0.6,1.033,1.216,2.017,1.85,2.95c0.333,0.634,0.5,1.384,0.5,2.25c0,1.467-0.434,2.434-1.3,2.9
		c-0.767,0.433-2.283,0.649-4.55,0.649c-1.7,0-2.867-0.066-3.5-0.2c-0.634-0.166-1.084-0.5-1.351-1L251.65,90.5z M261.6,100.45
		c-0.5,1.166-1.05,1.916-1.649,2.25c-0.601,0.3-1.033,0.783-1.3,1.45c-0.467,1.133-0.817,1.833-1.051,2.1
		c-0.433,0.467-1.149,0.7-2.149,0.7c-2,0-3.167-0.2-3.5-0.601c-1.267-1.5-2.566-2.716-3.9-3.649c-0.3-0.533-0.483-1.467-0.55-2.8
		c-0.066-2.834-2.884-5.65-8.45-8.45c-6.1-2.533-9.767-4.117-11-4.75l-0.8-0.55l-2-1.601c3.333,0,6.733,0.601,10.2,1.8
		c1.833,0.634,3.983,1.45,6.45,2.45l0.199,0.05c7,1.733,10.733,4.601,11.2,8.601c0.2,1.333,0.867,2.233,2,2.7
		c0.934,0.399,2.584,0.6,4.95,0.6C260.816,100.75,261.267,100.65,261.6,100.45z M254.85,94.7c0.301,0.166,0.9,0.333,1.801,0.5
		c0.833,0.133,1.517,0.2,2.05,0.2c0.3,0,0.783,0.116,1.45,0.35c0.699,0.267,1.267,0.533,1.699,0.8c-4-0.533-7.017-1.116-9.05-1.75
		L254.85,94.7z M191.25,38.05c0-0.033,0-0.066,0-0.1c-0.033-0.9-0.033-1.4,0-1.5c-0.767-0.633-1.434-1.15-2-1.55
		c-1.066-0.733-3.783-1.633-8.15-2.7c2.134-0.567,4.767-0.133,7.9,1.3c3.3,1.5,5.017,3.283,5.15,5.35c-0.367,1-0.7,1.65-1,1.95
		c-0.101,0.067-0.2,0.117-0.301,0.15c-0.399,0.066-0.75-0.184-1.05-0.75C191.467,39.633,191.283,38.917,191.25,38.05z M159.65,93.8
		c0.733,0.867,1.8,1.9,3.199,3.101c1.167,1.267,2.034,3.116,2.601,5.55C163.75,102.05,161.816,99.167,159.65,93.8z M166.15,113.45
		c-0.067-0.233-0.601-1.334-1.601-3.3c-1.233-2.434-2.5-5.2-3.8-8.301c0.533,0.801,1.634,1.967,3.3,3.5
		C165.45,107.217,166.15,109.917,166.15,113.45z M206.15,127.75c-0.301,0.066-1.467,0.384-3.5,0.95
		c-1.267,0.366-2.717,0.55-4.351,0.55c0.7-0.967,2.033-2.9,4-5.8c0.066-0.134,0.15-0.267,0.25-0.4l0.05,0.101l0.25,1.25
		c0.034,1.3,0.417,2.183,1.15,2.649C204.134,127.15,204.85,127.384,206.15,127.75z M213.65,118.2c-3.601,0.1-6.084,0.116-7.45,0.05
		c-0.5-0.066-1.017-0.217-1.55-0.45h0.1c0.366-0.033,2.616-0.066,6.75-0.1c3.066-0.033,6.816-0.533,11.25-1.5
		c6.3,0.899,11.316,0.717,15.05-0.55c1.934-0.667,3.533-1.483,4.8-2.45c0.667,0,1.051-0.033,1.15-0.101h2.3l0.15,0.851
		c-0.566,3.1-1.367,5.283-2.4,6.55l-0.7,0.75l-0.8,0.4c0.601-1.434,0.9-2.534,0.9-3.301c0-0.399-0.033-0.649-0.101-0.75
		c-0.199-0.399-0.316-0.649-0.35-0.75c-0.366,0.233-1,0.417-1.9,0.551c-0.033,0-0.8,0.083-2.3,0.25c-0.1,0.3-0.066,1.583,0.101,3.85
		c0,1.533-0.767,2.866-2.301,4c-2,1.533-4.933,2.25-8.8,2.15c2.2-0.867,3.9-2.184,5.101-3.95c0.899-1.267,1.35-2.384,1.35-3.351
		c0-0.633-1.217-1.166-3.65-1.6c-2.533-0.434-5.833-0.65-9.899-0.65L213.65,118.2z M167.9,106.55c0.566,0.3,1,0.384,1.3,0.25
		c0.1-0.066,0.467-0.399,1.1-1l3-1v3.101c-0.033,0.8-0.2,1.449-0.5,1.949c-0.333,0.567-0.75,0.851-1.25,0.851
		c-0.333,0-0.767-0.184-1.3-0.55c-1.233-0.934-2.65-1.967-4.25-3.101l0.35-0.05L167.9,106.55z M128.15,121l0.45,1.65
		c0.5,2.733,1.1,4.5,1.8,5.3c0.934,1.133,2.667,1.7,5.2,1.7c0.667,0,2.917-0.067,6.75-0.2c4.134-0.134,6.784-0.25,7.95-0.351
		c0.934-0.066,2.167-0.783,3.7-2.149c1.467-1.3,2.35-2.367,2.65-3.2v0.2c0.1-0.667,0.583-1.283,1.449-1.851
		c0.667-0.466,1.15-0.699,1.45-0.699c0.9,0,1.45,0.566,1.65,1.699c0.1,0.467,0.149,1.567,0.149,3.301c0,1.966-0.833,3.216-2.5,3.75
		c-2.133,0.366-3.716,0.85-4.75,1.449c-1.133,0.667-2.85,1.317-5.149,1.95c-2.334,0.601-4.233,0.9-5.7,0.9
		c-1.8,0-3.033-0.384-3.7-1.15c-0.733-0.833-2.4-1.35-5-1.55c-2.333-0.167-3.7-0.417-4.1-0.75
		C128.783,129.667,128.017,126.333,128.15,121z M166.15,118.85c-1.101-1.399-1.95-2.316-2.551-2.75c-0.5-0.366-1.083-0.55-1.75-0.55
		c-0.533,0-1.35,0.184-2.449,0.55c-1.2,0.4-1.851,0.601-1.95,0.601c1.033-1.134,2.583-1.7,4.649-1.7
		C163.833,115,165.184,116.283,166.15,118.85z M158.6,14.2c-0.466,0-0.583,0.133-0.35,0.4C158.482,14.833,158.599,14.699,158.6,14.2
		z M155.75,27c0.733-1.433,1.217-2.4,1.45-2.9c0.333-0.8,0.5-1.95,0.5-3.45c0-0.566-0.25-1.316-0.75-2.25
		c1.133,1.2,1.7,2.25,1.7,3.15C158.65,23.583,157.684,25.4,155.75,27z M95.3,72.3c0.534-0.3,1.917-0.783,4.15-1.45
		c2.533-0.767,4.367-1.149,5.5-1.149L95.3,72.3z M103.75,74.15l-4.8,0.449c0.533-0.233,1.3-0.366,2.3-0.399
		C101.817,74.167,102.65,74.15,103.75,74.15z M109.35,69.55c1.033-0.066,2-0.184,2.9-0.35c0.733-0.134,1.383-0.3,1.95-0.5
		c0.133-0.034,0.767-0.3,1.9-0.8c1.2-0.5,1.933-0.816,2.2-0.95c0.6,0.533,1.284,0.8,2.05,0.8c0.6,0,1.017-0.183,1.25-0.55
		c0.233-0.4,0.566-1.4,1-3l-1.65,0.7c1.267-1.967,1.983-3.1,2.15-3.4v-0.05c0.033-0.1,0.25-0.567,0.65-1.4
		c0.4-0.733,0.683-1.25,0.85-1.55c0.633-0.4,1.017-0.683,1.15-0.85c0.467-0.433,0.917-1.083,1.35-1.95c0.1,6-3.05,10.867-9.45,14.6
		c-2.333,1.4-4.816,2.45-7.45,3.15c-2.333,0.6-4.067,0.8-5.2,0.6c2.367-0.434,3.983-1.017,4.85-1.75
		c0.467-0.399,0.883-0.934,1.25-1.6C110.567,70.167,109.983,69.783,109.35,69.55z M110.6,80.25c0,1.634-0.05,2.55-0.15,2.75
		c-1.333,3.066-2.434,5.283-3.3,6.65c-1.433,2.233-2.75,3.267-3.95,3.1c-0.067-2.1-0.333-3.783-0.8-5.05
		c-0.467-1.233-0.7-2.25-0.7-3.05c0-0.834,0.917-1.601,2.75-2.301c2.466-0.899,4.517-2.449,6.15-4.649V80.25z M57.2,120.4
		c1.167-5.601,2.033-9.067,2.6-10.4l1.35-3.75c0.1,4.233,0.05,8.233-0.15,12c-0.233,3.8-0.55,6.25-0.95,7.35
		c0.267,1.101,0.434,1.667,0.5,1.7c0.767-0.033,2.967-0.899,6.6-2.6c4.733-1.634,10.383-2.25,16.95-1.851c-2.1,1.034-4.1,2.2-6,3.5
		c-1.767,1.267-3.033,2.134-3.8,2.601c-2.4,1.467-6,2.2-10.8,2.2c-2.6,0-3.9-0.4-3.9-1.2c0.233-2.167,0.383-3.617,0.45-4.351
		l0.05-1.149L59.55,114.1c0.034,2.134-0.5,4.717-1.6,7.75c-1.034,2.9-2.017,4.717-2.95,5.45c0.733-1.633,1.317-3.267,1.75-4.899
		C57.05,121.1,57.2,120.434,57.2,120.4z M16.9,126.7l-1.6-0.55l-0.7-0.75c-0.033-0.034,0.167-0.684,0.6-1.95
		c0.367-1.167,0.633-1.95,0.8-2.351L16.9,126.7z M127.95,129.15c-0.6,0.866-1.55,1.466-2.85,1.8c-0.9,0.233-2.15,0.35-3.75,0.35
		c-2.967,0-4.85-0.267-5.65-0.8c-2.833-1.866-4.317-2.833-4.45-2.9c5.067,0.034,9.2,0.417,12.4,1.15
		C125.85,129.25,127.283,129.384,127.95,129.15z"/>
	<path style="fill-rule:evenodd;clip-rule:evenodd;fill:#898074;" d="M274,90.9c-0.167,3.399-0.3,6.783-0.4,10.149
		c-0.366,1.634-1.716,2.45-4.05,2.45c-1.033,0-2.316-0.1-3.85-0.3c0.733-3.934,1.1-6.634,1.1-8.101c0-2.267-0.833-3.399-2.5-3.399
		c-0.2,0-0.783,0.399-1.75,1.2c-0.967,0.8-1.5,1.233-1.6,1.3c-1.066,0.033-2.033,0.066-2.9,0.1c-1.666,0.101-2.733,0.233-3.2,0.4
		l-2.05,0.1c2.033,0.634,5.05,1.217,9.05,1.75c0.301,1.334,0.217,2.634-0.25,3.9c-0.333,0.2-0.783,0.3-1.35,0.3
		c-2.366,0-4.017-0.2-4.95-0.6c-1.133-0.467-1.8-1.367-2-2.7c-0.467-4-4.2-6.867-11.2-8.601c0-1.6-0.083-2.949-0.25-4.05l-0.6-5.1
		l0.85-0.05c0.067-2.434-0.083-4.367-0.449-5.801L242,72.9c0.733,1.333,1.35,2.316,1.85,2.949c0.334,0.434,0.784,1.301,1.351,2.601
		c0.133,0.333,0.7,2.116,1.7,5.35c0.966,3.101,1.533,4.816,1.699,5.15l1.65-1.601c0.467,1.267,0.934,2.317,1.4,3.15l-0.601,0.35
		c0.267,0.5,0.717,0.834,1.351,1c0.633,0.134,1.8,0.2,3.5,0.2c2.267,0,3.783-0.217,4.55-0.649c0.866-0.467,1.3-1.434,1.3-2.9
		c0-0.866-0.167-1.616-0.5-2.25c-0.634-0.934-1.25-1.917-1.85-2.95c0.433,1.434,0.666,3.033,0.699,4.8l-3.85,0.65
		c0.267-1.167,0.233-3.083-0.1-5.75c-0.4-3.1-1.067-5.566-2-7.4l2.399,2.45c-0.033-0.1-0.7-1.95-2-5.55
		c0.467-1.167,1.517-3.083,3.15-5.75c0.733,1.767,1.366,4.566,1.899,8.4c0.967,3.733,3.084,7.267,6.351,10.6L274,90.9z
		 M194.8,112.35c-1.533,0.967-2.416,2.684-2.649,5.15c-0.233,2.967-0.367,4.467-0.4,4.5c-0.267-0.467-0.767-3.033-1.5-7.7
		c-0.667-4.166-1.5-6.533-2.5-7.1l-1.15,0.1v2.15c0.101,0.733,0.617,2.783,1.551,6.149c0.833,3.601,1.083,6.684,0.75,9.25l-0.65-0.5
		c-1.6-1.366-3.283-2.933-5.05-4.699l-0.55-0.551c-0.301-1.233-1.101-2.683-2.4-4.35c-1.333-1.5-2.1-2.4-2.3-2.7
		c-0.9-1.399-1.351-4.816-1.351-10.25c0-2.133,0.483-4.467,1.45-7c1-2.633,2.367-5.05,4.101-7.25L182.1,88.3
		c-0.1,0.601-0.233,1.167-0.399,1.7l0.3,0.95l1.05,0.1c-0.6,0.533-1.166,1.033-1.7,1.5c-1.033,0.967-1.733,1.767-2.1,2.4
		c-0.1,0.434-0.167,1.666-0.2,3.7c0.4,0.3,0.867,0.566,1.4,0.8c0.2,0.133,0.967,0.399,2.3,0.8c1.2,0.4,2.066,0.8,2.6,1.2
		c0.167,0.233,0.851,1.133,2.051,2.7c1.199,1.566,2.083,2.583,2.649,3.05c2,0.934,5.934,1.467,11.8,1.6h0.25
		c-1.566,1.101-2.683,1.834-3.35,2.2C197.717,111.6,196.4,112.05,194.8,112.35z M154.65,100.5c0-0.5,0.233-0.917,0.699-1.25
		c0.467-0.366,1.017-0.55,1.65-0.55l0.55-0.7c-0.066-1-0.2-2.017-0.399-3.05c0.5,0.666,1,1.6,1.5,2.8
		c0.466,1.033,0.699,1.634,0.699,1.8c0,0.8-0.316,1.316-0.949,1.55c-1.034,0.167-1.934,0.334-2.7,0.5l-0.45,0.15
		c2.7-0.134,4.533-0.1,5.5,0.1c1.3,3.101,2.566,5.867,3.8,8.301c1,1.966,1.533,3.066,1.601,3.3c-0.101,0.8,0.017,2.017,0.35,3.649
		c0.267,1.301,0.5,2.2,0.7,2.7v0.351l-1.05-1.301c-0.967-2.566-2.317-3.85-4.051-3.85c-2.066,0-3.616,0.566-4.649,1.7
		c-0.367,2.3-0.634,4.649-0.8,7.05c-0.301,0.833-1.184,1.9-2.65,3.2c-1.533,1.366-2.767,2.083-3.7,2.149
		c-1.166,0.101-3.816,0.217-7.95,0.351c-3.833,0.133-6.083,0.2-6.75,0.2c-2.533,0-4.267-0.567-5.2-1.7c-0.7-0.8-1.3-2.566-1.8-5.3
		c0.4,1.366,1.167,2.216,2.3,2.55c0.3,0.066,1.15,0.1,2.55,0.1c1.8,0.066,5.7,0.334,11.7,0.8c3.633,0,6.033-0.949,7.199-2.85
		c0.4-0.667,0.784-1.783,1.15-3.35c0.333-1.4,0.533-2.134,0.6-2.2c1.367-1.066,2.967-2,4.801-2.8
		c1.866-0.767,3.267-1.517,4.199-2.25l0.4-0.351c0.1-1.5-0.55-3.5-1.95-6c-1.8-3.2-4.116-4.6-6.95-4.2L154.65,100.5z M31.4,130.7
		c-1.533,0.1-3.05,0.25-4.55,0.45c-1.5-0.5-2.617-0.983-3.35-1.45l-5.35-2.5l-1.25-0.5L16,121.1c-0.167,0.4-0.433,1.184-0.8,2.351
		c-0.434,1.267-0.633,1.916-0.6,1.95l-3.05-3.101c-0.1,0.367-0.35,0.9-0.75,1.601c0.467-2.4,0.15-4.517-0.95-6.351
		c-1.467-2.5-2.333-4.116-2.6-4.85c-0.067-0.101-0.1-0.184-0.1-0.25l0.35,0.35l0.55,0.5c0.567,0.434,1.934,1.101,4.1,2
		c2.434,1.066,4.067,1.584,4.9,1.55c2.7,0.301,5.417,0.45,8.15,0.45c1.167,0,2.05-0.133,2.65-0.399c1.1-0.5,1.867-0.817,2.3-0.95
		l0.9,0.149c-0.4,0.467-0.8,0.851-1.2,1.15c-1.233,0.833-3.417,1.566-6.55,2.2c-2.4,0.467-3.95,0.7-4.65,0.7
		c0.2,3.366,0.817,5.6,1.85,6.699c1.2,1.233,3.6,1.851,7.2,1.851c3.4,0,5.6-0.066,6.6-0.2c-0.333,0.4-0.65,0.733-0.95,1
		C32.817,130,32.167,130.4,31.4,130.7z M173.95,22.5c-3.566,1.5-5.884,2.517-6.95,3.05c-0.7,0.367-1.5,0.9-2.4,1.6
		c-1.699,0.567-3.05,0.9-4.05,1c3.767-1.5,6.934-3.517,9.5-6.05c0.767-0.733,2.184-2.45,4.25-5.15c1.134,1.033,2,1.65,2.601,1.85
		c0.399,0.133,1.017,0.267,1.85,0.4c-0.167,0.167-0.967,0.75-2.4,1.75C174.917,21.917,174.116,22.433,173.95,22.5z M221.75,27.55
		c1.9,3.733,4.017,7.2,6.35,10.4c1.434,1.933,2.15,3.466,2.15,4.6c0,3.534-0.816,6.233-2.45,8.1c-1.5,1.733-3.583,2.6-6.25,2.6
		c-3.833,0-6.399-1.617-7.7-4.85c-0.699-1.667-1.199-2.667-1.5-3c-0.699-0.8-1.783-1.033-3.25-0.7
		c-0.033-0.034-1.267-0.867-3.699-2.5c-0.7-0.467-1.934-0.7-3.7-0.7l-6.9,0.4c-0.533-0.133-1.083-0.5-1.649-1.1
		c0.3-0.3,0.633-0.95,1-1.95c0,0.566,0.333,1.05,1,1.45c0.666,0.4,1.483,0.6,2.449,0.6c1.301-0.066,3.367-0.25,6.2-0.55
		c2.533-0.2,4.7-0.083,6.5,0.35c1.9,0.466,4.55,1.6,7.95,3.4c2.7,1.433,4.333,1.983,4.9,1.65c-0.767-3.833-1.351-6.283-1.75-7.35
		c-0.601-1.7-1.534-2.867-2.801-3.5l-1.399-0.35c0.967-0.133,1.866-0.733,2.7-1.8C221.134,31.183,221.75,29.45,221.75,27.55z
		 M177.45,57.55c0.133-0.566,0.217-1.167,0.25-1.8l0.8,0.7l2.2,2.4c0.066,1.167,0.3,3.367,0.7,6.6c0,1.833-0.534,3.033-1.601,3.6
		c-0.7,0.4-1.983,0.601-3.85,0.601c-1.367,0-2.55-0.367-3.55-1.101c-0.167-0.133-1-0.933-2.5-2.4
		c-1.967-1.933-4.567-3.066-7.801-3.4c1.334-0.267,2.684-0.517,4.051-0.75l5.5-1.05l1.55-0.25c1.166,0,2.166-0.3,3-0.9
		C177.033,59.167,177.45,58.417,177.45,57.55z M215.65,59.1c-1.733,0.3-3.217,1.35-4.45,3.15c-1.233,2.2-2.3,3.783-3.2,4.75
		c-1.967,2.134-3.717,3.967-5.25,5.5c-1.267,1.233-2.033,1.983-2.3,2.25h1.25l1.149-0.4c1.034-0.5,2.284-1.383,3.75-2.649
		l-0.1,0.149c-0.6,1.334-1.184,2.784-1.75,4.351c-0.4,1.166-0.634,1.899-0.7,2.2c-0.467,0.066-0.95,0.183-1.45,0.35
		c-0.966,0.3-1.449,0.65-1.449,1.05c0,2.167-6.267,4.65-18.801,7.45c2.067-2.566,4.351-4.467,6.851-5.7
		c0.967-0.467,2.017-0.916,3.149-1.35l1.101-0.45c1.666-0.533,4.517-1.5,8.55-2.9c-9.6,1.5-14.733,2.351-15.4,2.551
		c-0.633,0.466-1.983,1.133-4.05,2c-1.733,0.699-2.967,1.383-3.7,2.05c-0.8,0.899-1.583,1.717-2.35,2.45
		c0.033-5,0.2-7.684,0.5-8.051c0.134-0.199,0.717-0.649,1.75-1.35c1.233-0.866,2.5-1.95,3.8-3.25c0.566-0.566,0.884-2.417,0.95-5.55
		c0.033-2.6-0.05-4.367-0.25-5.3c0.9,2.133,3.934,3.4,9.1,3.8c2.634,0.2,5.351,0.183,8.15-0.05c1.2,0,1.884-0.417,2.05-1.25
		c0.267-1.566,0.867-2.9,1.8-4c0.667-0.8,1.551-1.3,2.65-1.5c0.634-0.1,1.533-0.133,2.7-0.1c1.967-0.133,2.95-1.667,2.95-4.6
		c0-2.934-0.067-4.934-0.2-6c1.899,3.3,3,5.883,3.3,7.75C215.917,57.45,215.884,58.333,215.65,59.1z M162.7,18.6l1.399,0.3v2
		c-0.033,0.133-0.267,0.25-0.699,0.35l-0.7-0.15C162.634,20.233,162.634,19.4,162.7,18.6z M158.65,45.05
		c-3.467-1.566-5.334-2.4-5.601-2.5c-0.233-0.267-1.333-1.216-3.3-2.85c5.7,2,8.85,3.083,9.45,3.25h0.05
		c0.866,0.033,2.8,0.35,5.8,0.95c2.566,0.533,6.417,0.8,11.55,0.8c0.667,0,4.167-0.667,10.5-2l-3.6,1.45
		c-2.134,1-4.634,1.817-7.5,2.45c-2.033,0.433-3.533,0.65-4.5,0.65c-0.1,0-0.2,0-0.3,0h-0.15c-2.967,0-5.133-0.183-6.5-0.55
		C160.95,45.667,158.983,45.117,158.65,45.05z M187.1,36.15c-0.07,0.002-0.137,0.019-0.199,0.05h-0.7
		C186.496,36.167,186.796,36.15,187.1,36.15z M191.25,38.05c-0.566-1-1.283-1.617-2.15-1.85c0.767,0.033,1.483,0.117,2.15,0.25
		c-0.033,0.1-0.033,0.6,0,1.5C191.25,37.983,191.25,38.017,191.25,38.05z M170,86.55c0-2.133-0.85-4.35-2.55-6.649
		c-1.7-2.267-2.55-4.434-2.55-6.5c0-0.733,0.3-1.801,0.899-3.2c0.566-1.233,0.851-1.9,0.851-2c0-0.5-0.167-0.883-0.5-1.15
		c-0.467-0.233-0.801-0.45-1-0.65c3.333-0.233,5.166,0.9,5.5,3.4c0.199,1.267,0.05,2.783-0.45,4.55c0,0.067,0.399,0.867,1.2,2.4
		c0.8,1.634,1.199,2.75,1.199,3.35c0,1.4-0.3,2.601-0.899,3.601C171.366,84.267,170.8,85.217,170,86.55z M153.25,66l-5.05,0.2
		c3.591-1.098,7.266-2.047,11.024-2.85c-0.017,0.011-0.024,0.028-0.024,0.05c-0.566,0.667-1.267,1.25-2.101,1.75
		c-0.5,0.033-1.166,0.133-2,0.3C154.3,65.65,153.684,65.833,153.25,66z M126.75,51.65L127,53.1c0.067-0.367,0.05-0.667-0.05-0.9
		c-0.133-0.267-0.067-0.483,0.2-0.65l0.75-0.15l0.7-0.2l0.05,1.55c0.033,3.167,0.25,6.25,0.65,9.25
		c-0.033,1.767-1.233,3.533-3.6,5.3c-1.8,1.367-3.467,2.351-5,2.95c-1.434,0.467-2.45,0.833-3.05,1.1
		c-1.733,0.767-4.083,3.733-7.05,8.9V77.7c-1.633,2.2-3.684,3.75-6.15,4.649c-1.833,0.7-2.75,1.467-2.75,2.301
		c0,0.8,0.233,1.816,0.7,3.05c0.467,1.267,0.733,2.95,0.8,5.05c1.2,0.167,2.517-0.866,3.95-3.1c0.867-1.367,1.967-3.584,3.3-6.65
		l0.35,3.55c0.2,1.233,0.35,2.983,0.45,5.25l-0.1,1.65c-0.633,0.833-1.333,1.467-2.1,1.899c-0.867,0.4-1.533,0.75-2,1.051
		c-1.733,1.1-3.633,3.866-5.7,8.3c-0.067,0.267-0.167,0.45-0.3,0.55c-0.167,0.1-0.333,0.116-0.5,0.05
		c-0.167-0.1-0.283-0.25-0.35-0.45c-0.067-0.166-0.1-0.316-0.1-0.449v-0.15l-0.15-1.05l-0.65-3.25
		c0.067-0.733,0.217-1.517,0.45-2.351c0.167-0.566,0.3-0.949,0.4-1.149l0.6-1.15c0.467-1.733,0.2-3.2-0.8-4.399
		c-1.233-1.5-1.85-3.434-1.85-5.801c0-1.966,0.433-3.199,1.3-3.699c2.3-1.334,3.867-2.417,4.7-3.25c-0.2-0.101-0.333-0.2-0.4-0.301
		l-0.05-0.149l-1.8-0.05c-4.4,0.5-6.934,0.75-7.6,0.75c-1.567,0-3.133-0.051-4.7-0.15H89.5l-3.8-0.05c-2.3-0.3-3.75-0.566-4.35-0.8
		c-0.6-0.301-1.434-0.617-2.5-0.95c1.5,0.166,3.117,0.25,4.85,0.25c2.5,0,4.55-0.066,6.15-0.2c4.033-0.3,7.066-0.934,9.1-1.9
		l4.8-0.449L105,74.05c1.133,0.2,2.867,0,5.2-0.6c2.633-0.7,5.117-1.75,7.45-3.15c6.4-3.733,9.55-8.6,9.45-14.6
		c-0.434,0.867-0.883,1.517-1.35,1.95c-0.133,0.167-0.517,0.45-1.15,0.85c0.6-1.333,0.9-2.567,0.9-3.7c0-1-0.3-1.867-0.9-2.6
		L126.75,51.65z M152.45,89.2c-3.601-1-6.3-1.783-8.101-2.351c-3.199-0.966-8.167-3.483-14.899-7.55l-0.2-0.2l1.7,0.7
		c2.1,1.566,5.4,2.983,9.899,4.25c4.601,1.3,8.834,1.95,12.7,1.95c5.834-0.033,9.517,1.95,11.05,5.95
		c0.267,0.666,0.7,2.35,1.301,5.05c0.433,1.967,1,3.366,1.699,4.2c0.434-0.134,0.817-0.334,1.15-0.601c0,0.5-0.316,0.934-0.95,1.301
		c-0.666,0.366-1.45,0.55-2.35,0.55c-0.566-2.434-1.434-4.283-2.601-5.55c-1.399-1.2-2.466-2.233-3.199-3.101
		c-0.4-0.566-0.634-0.883-0.7-0.95c-0.101-0.133-0.45-0.466-1.05-1L157.35,91l0.4,0.75L152.45,89.2z M235.3,93.05
		c2.533,0.934,4.2,1.584,5,1.95c2.867,1.267,4.601,2.4,5.2,3.4c0.434,0.733,0.783,2.699,1.05,5.899c0.167,2.2,0.25,4.066,0.25,5.601
		c-0.333-1.733-0.649-3.351-0.95-4.851c-0.6-2.899-1.3-4.75-2.1-5.55c-0.833-0.833-2.217-1.934-4.15-3.3
		C237.233,94.533,235.8,93.483,235.3,93.05z M209.95,119.1l3.7-0.899l6.8-0.101c4.066,0,7.366,0.217,9.899,0.65
		c2.434,0.434,3.65,0.967,3.65,1.6c0,0.967-0.45,2.084-1.35,3.351c-1.2,1.767-2.9,3.083-5.101,3.95l-21.399,0.1
		c-1.301-0.366-2.017-0.6-2.15-0.7c-0.733-0.467-1.116-1.35-1.15-2.649l-0.25-1.25c0.301-0.367,0.483-0.551,0.551-0.551l2.649,0.95
		c1.8,0.634,2.9,0.967,3.3,1c3.034,0.334,6.817,0.5,11.351,0.5c5.133,0,7.866-1.1,8.2-3.3c-0.5,0-0.75-0.066-0.75-0.2
		c-1.834-0.166-4.983-0.366-9.45-0.6c-3.967-0.2-6.316-0.3-7.05-0.3l-5.25,0.1L209.95,119.1z M198.3,129.25l-0.25-0.05
		c0.233-0.733,1.134-2.05,2.7-3.95c0.634-0.767,1.15-1.366,1.55-1.8C200.333,126.35,199,128.283,198.3,129.25z M167.9,106.55
		l2.399-0.75c-0.633,0.601-1,0.934-1.1,1C168.9,106.934,168.467,106.85,167.9,106.55z M156.95,18.4c0.5,0.934,0.75,1.684,0.75,2.25
		c0,1.5-0.167,2.65-0.5,3.45c-0.233,0.5-0.717,1.467-1.45,2.9c-1.233,0.4-2.733,1.1-4.5,2.1c-1.533,0.833-3.05,1.417-4.55,1.75
		c0.467-0.833,1.2-1.8,2.2-2.9c0.8-1.133,1.199-2.717,1.199-4.75c0-0.434-0.316-2.233-0.949-5.4l1.25-0.1c0.966,0,1.8-0.233,2.5-0.7
		c0.666-0.5,1-1.1,1-1.8l2.199,2h-1L156.95,18.4z M154.15,31.2l-3.351,2l-0.95,0.75c0-1.034,0.517-1.917,1.551-2.65
		c1-0.733,2.216-1.1,3.649-1.1L154.15,31.2z M144.65,38.2h0.949c-0.333,4.066-0.966,6.716-1.899,7.95c-1,1.233-2.95,1.85-5.85,1.85
		l-2.6-0.15l3.35-2.65l-0.85,0.05c0.8-0.267,1.566-0.617,2.3-1.05c1.5-0.567,2.55-1.65,3.15-3.25
		C143.833,39.283,144.316,38.367,144.65,38.2z M85.55,81L71.6,90.7l-3.75,0.1c1.167-0.399,2.367-0.883,3.6-1.45
		c1.367-0.633,2.617-1.583,3.75-2.85c1.933-2.167,2.95-3.3,3.05-3.4L86.6,78.7L85.55,81z M83.4,75.2
		c1.467,0.267,2.717,0.416,3.75,0.45c-4.066,0.166-7.467,0.149-10.2-0.051l-3.9-1.75l3,0.4h0.1l0.45,0.05h0.1l0.3,0.05
		c0.033,0,0.067,0,0.1,0L83.4,75.2z M112.25,69.2c-0.9,0.166-1.867,0.283-2.9,0.35c-0.7-0.033-1.883-0.017-3.55,0.05
		C107.633,69.267,109.783,69.134,112.25,69.2z M114.2,68.7c1.367-0.633,2.667-1.333,3.9-2.1l0.2,0.35c-0.267,0.133-1,0.45-2.2,0.95
		C114.967,68.4,114.333,68.667,114.2,68.7z M119.75,65.45c0.967-0.633,2.083-1.95,3.35-3.95c-0.167,0.3-0.883,1.433-2.15,3.4
		L119.75,65.45z M65.8,94.05c-5.9-0.899-9.4-1.649-10.5-2.25l4.15-0.3l2.7,1.2C63.917,93.467,65.133,93.917,65.8,94.05z M83.15,86.7
		l-0.35,0.75l-0.55,0.35L83.15,86.7z M93.85,120.05c-0.8,0.7-2.533,1.316-5.2,1.851c-2.967,0.6-4.483,0.916-4.55,0.949
		c-6.567-0.399-12.217,0.217-16.95,1.851c-3.633,1.7-5.833,2.566-6.6,2.6c-0.066-0.033-0.233-0.6-0.5-1.7
		c0.4-1.1,0.717-3.55,0.95-7.35c0.2-3.767,0.25-7.767,0.15-12L59.8,110c-0.033-5.9-0.566-9.667-1.6-11.3
		c-0.7-0.9-1.25-1.634-1.65-2.2c-0.767-1.066-1.433-2.45-2-4.15l1.3,0.95c2,1.767,3.917,5.316,5.75,10.65
		c1.8,5.233,2.7,9.783,2.7,13.649c0,0.167-0.15,0.7-0.45,1.601c-0.3,0.967-0.583,1.7-0.85,2.2c0.833,0.133,1.933,0.233,3.3,0.3
		c1.2,0.1,2.083,0.149,2.65,0.149c0.667,0,3.417-0.466,8.25-1.399c4.8-0.934,7.55-1.4,8.25-1.4c0.633,0,1.783,0.101,3.45,0.3
		C90.867,119.55,92.517,119.783,93.85,120.05z M57.2,120.4c0,0.033-0.15,0.699-0.45,2c-0.433,1.633-1.017,3.267-1.75,4.899
		c-1.367,1.134-4.533,1.617-9.5,1.45c-5.3-0.4-8.583-0.583-9.85-0.55c1.533-0.467,5.05-2,10.55-4.601c5.033-2.399,7.75-3.6,8.15-3.6
		C55.017,120,55.967,120.134,57.2,120.4z M132.15,105.1l-1.2,2.551c-0.567,0.933-0.95,1.85-1.15,2.75
		c-0.367,0.767-0.8,1.833-1.3,3.199l0.15-2.1c-0.1,0.467-0.65,2.15-1.65,5.05c-0.633,1.8-0.95,3.75-0.95,5.851
		c0,2.333,0.267,3.883,0.8,4.649c0.667,0.934,1.033,1.634,1.1,2.101c-0.667,0.233-2.1,0.1-4.3-0.4c-3.2-0.733-7.333-1.116-12.4-1.15
		c-2.267-1.366-5.017-2.383-8.25-3.05c-1.6-0.333-2.4-1.383-2.4-3.149c0.233-2.934,0.35-4.784,0.35-5.551
		c1.333,3.2,3.267,5.7,5.8,7.5c2.833,2,6.267,3,10.3,3c4.867,0,7.3-1.55,7.3-4.649l-0.05-0.9c-0.133-1.133-0.2-2.033-0.2-2.7
		c0-2.399,1.083-5.216,3.25-8.449c1.933-2.867,3.55-4.584,4.85-5.15L132.15,105.1z M100.05,106.6c0.333,1.334,0.5,3.067,0.5,5.2
		l-0.4-0.95l-0.65,0.4C99.8,110.583,99.983,109.033,100.05,106.6z"/>
	<path style="fill-rule:evenodd;clip-rule:evenodd;fill:#635B52;" d="M247.4,110.5l-0.15,0.3l-0.45-0.899
		c0-1.534-0.083-3.4-0.25-5.601c-0.267-3.2-0.616-5.166-1.05-5.899c-0.6-1-2.333-2.134-5.2-3.4c-0.8-0.366-2.467-1.017-5-1.95
		c-1.566-0.7-3.066-1.517-4.5-2.45c-0.233-0.199-0.7-0.75-1.399-1.649c-0.767-0.967-1.217-1.634-1.351-2V86.7
		c1.233,0.633,4.9,2.217,11,4.75c5.566,2.8,8.384,5.616,8.45,8.45c0.066,1.333,0.25,2.267,0.55,2.8
		c1.334,0.934,2.634,2.149,3.9,3.649c0.333,0.4,1.5,0.601,3.5,0.601c1,0,1.717-0.233,2.149-0.7c0.233-0.267,0.584-0.967,1.051-2.1
		c0.267-0.667,0.699-1.15,1.3-1.45c0.6-0.334,1.149-1.084,1.649-2.25c0.467-1.267,0.551-2.566,0.25-3.9
		c-0.433-0.267-1-0.533-1.699-0.8c-0.667-0.233-1.15-0.35-1.45-0.35c-0.533,0-1.217-0.067-2.05-0.2c-0.9-0.167-1.5-0.334-1.801-0.5
		c0.467-0.167,1.534-0.3,3.2-0.4c0.867-0.033,1.834-0.066,2.9-0.1c0.166-0.033,0.717-0.217,1.649-0.55
		c0.934-0.367,1.5-0.617,1.7-0.75l0.25,0.75c-0.566,4.6-1.184,8.6-1.85,12l2.25,0.25c4.166,0,7.333-0.733,9.5-2.2
		c1.833-1.267,2.866-2.983,3.1-5.15l0.05,1.05c0,4.967-4.283,7.983-12.85,9.051C255.217,109.017,249.434,109.634,247.4,110.5z
		 M247.1,112.2v0.05c0.134,1.2,0.2,1.9,0.2,2.1c0,5.534-1.45,9.967-4.35,13.301c-2.134,2.466-4.101,3.699-5.9,3.699
		c-2.633-0.166-4.2-0.25-4.7-0.25c-18.333-0.033-29.333-0.3-33-0.8c-4.533-1.967-6.866-2.983-7-3.05l-2.949-2
		c0.166-0.233,0.5-0.9,1-2c0.6,0.467,2.066,1.717,4.399,3.75c1.5,1.3,2.584,2.033,3.25,2.2l0.25,0.05
		c1.634,0,3.084-0.184,4.351-0.55c2.033-0.566,3.199-0.884,3.5-0.95l21.399-0.1c3.867,0.1,6.8-0.617,8.8-2.15
		c1.534-1.134,2.301-2.467,2.301-4c-0.167-2.267-0.2-3.55-0.101-3.85c1.5-0.167,2.267-0.25,2.3-0.25
		c0.9-0.134,1.534-0.317,1.9-0.551c0.033,0.101,0.15,0.351,0.35,0.75c0.067,0.101,0.101,0.351,0.101,0.75
		c0,0.767-0.3,1.867-0.9,3.301l0.8-0.4l0.7-0.75c1.033-1.267,1.834-3.45,2.4-6.55l-0.15-0.851h-2.3l0.25-0.149l-1.4,0.25
		c-1.267,0.967-2.866,1.783-4.8,2.45c-3.733,1.267-8.75,1.449-15.05,0.55c-0.733,0.1-1.5,0.149-2.3,0.149s-1.45-0.083-1.95-0.25
		l-0.4-0.25c5.034-1.533,13.2-3.033,24.5-4.5c1.733,0.067,3.017,0.233,3.851,0.5l0.6-0.05v0.3L247.1,112.2z M183.25,62.4
		c0.2,0.934,0.283,2.7,0.25,5.3c-0.066,3.133-0.384,4.983-0.95,5.55c-1.3,1.3-2.566,2.384-3.8,3.25c-1.033,0.7-1.616,1.15-1.75,1.35
		c-0.3,0.367-0.467,3.051-0.5,8.051c0,0.333-0.217,3.1-0.65,8.3c-0.433,5-0.649,7.866-0.649,8.6c0,2.767,0.649,5.684,1.95,8.75
		c0.666,1.601,1.533,3.533,2.6,5.8c-1.967-0.399-3.283-0.6-3.95-0.6c-0.7,0-1.934,0.1-3.7,0.3c-2.1,0.2-3.733,0.434-4.899,0.7
		l0.05,1.3c0,0.101,0,0.217,0,0.351l-0.05,0.399c-0.2-0.5-0.434-1.399-0.7-2.7c-0.333-1.633-0.45-2.85-0.35-3.649
		c0-3.533-0.7-6.233-2.101-8.101c-1.666-1.533-2.767-2.699-3.3-3.5c-0.967-0.199-2.8-0.233-5.5-0.1l0.45-0.15
		c0.767-0.166,1.666-0.333,2.7-0.5c0.633-0.233,0.949-0.75,0.949-1.55c0-0.166-0.233-0.767-0.699-1.8c-0.5-1.2-1-2.134-1.5-2.8
		c-0.534-0.566-2.2-1.767-5-3.601c-0.767-0.5-1.434-0.949-2-1.35c-0.934-0.8-2.034-1.417-3.301-1.85l-1.35-0.301l0.9,0.101L146.8,88
		c1.934,0.333,3.816,0.733,5.65,1.2l5.3,2.55l0.15,0.1c0.6,0.534,0.949,0.867,1.05,1c0.066,0.067,0.3,0.384,0.7,0.95
		c2.166,5.367,4.1,8.25,5.8,8.65c0.899,0,1.684-0.184,2.35-0.55c0.634-0.367,0.95-0.801,0.95-1.301
		c-0.033-0.833-0.15-1.983-0.35-3.449c-0.233-1.434-0.351-2.284-0.351-2.551c0.967-4.399,1.617-7.083,1.95-8.05
		c0.8-1.333,1.366-2.283,1.7-2.85c0.6-1,0.899-2.2,0.899-3.601c0-0.6-0.399-1.716-1.199-3.35c-0.801-1.533-1.2-2.333-1.2-2.4
		c0.5-1.767,0.649-3.283,0.45-4.55c-0.334-2.5-2.167-3.633-5.5-3.4l-2.051,0.15c-3.466,0.267-6,0.4-7.6,0.4
		c-1,0-1.983-0.15-2.95-0.45l0.7-0.5c0.434-0.167,1.05-0.35,1.85-0.55c0.834-0.167,1.5-0.267,2-0.3
		c0.834-0.5,1.534-1.083,2.101-1.75c0-0.022,0.008-0.039,0.024-0.05h0.025c0.366-0.467,0.634-0.7,0.8-0.7
		c0.7,0,1.384,0.033,2.05,0.1c3.233,0.333,5.834,1.467,7.801,3.4c1.5,1.467,2.333,2.267,2.5,2.4c1,0.733,2.183,1.101,3.55,1.101
		c1.866,0,3.149-0.2,3.85-0.601c1.066-0.566,1.601-1.767,1.601-3.6c-0.4-3.233-0.634-5.434-0.7-6.6l0.149-1
		C181.217,58.683,182.017,60.2,183.25,62.4z M93.85,120.05l0.95-1.55l3.2-5.65c0.033-0.1,0.533-0.633,1.5-1.6l0.65-0.4l0.4,0.95
		c0.333,1.2,0.467,2.55,0.4,4.05c0,0.767-0.117,2.617-0.35,5.551c0,1.767,0.8,2.816,2.4,3.149c3.233,0.667,5.983,1.684,8.25,3.05
		c0.133,0.067,1.617,1.034,4.45,2.9c0.8,0.533,2.683,0.8,5.65,0.8c1.6,0,2.85-0.116,3.75-0.35c1.3-0.334,2.25-0.934,2.85-1.8
		c-0.067-0.467-0.434-1.167-1.1-2.101c-0.533-0.767-0.8-2.316-0.8-4.649c0-2.101,0.317-4.051,0.95-5.851
		c1-2.899,1.55-4.583,1.65-5.05l-0.15,2.1c-0.167,2.467-0.283,4.934-0.35,7.4c-0.133,5.333,0.633,8.667,2.3,10
		c0.4,0.333,1.767,0.583,4.1,0.75c2.6,0.2,4.267,0.717,5,1.55c0.667,0.767,1.9,1.15,3.7,1.15c1.467,0,3.366-0.3,5.7-0.9
		c2.3-0.633,4.017-1.283,5.149-1.95c1.034-0.6,2.617-1.083,4.75-1.449c1.667-0.534,2.5-1.784,2.5-3.75
		c0-1.733-0.05-2.834-0.149-3.301c-0.2-1.133-0.75-1.699-1.65-1.699c-0.3,0-0.783,0.233-1.45,0.699
		c-0.866,0.567-1.35,1.184-1.449,1.851v-0.2c0.166-2.4,0.433-4.75,0.8-7.05c0.1,0,0.75-0.2,1.95-0.601
		c1.1-0.366,1.916-0.55,2.449-0.55c0.667,0,1.25,0.184,1.75,0.55c0.601,0.434,1.45,1.351,2.551,2.75l1.05,1.301
		c0.133,1.199-0.417,3.517-1.65,6.949c-1.1,3.101-1.883,4.95-2.35,5.551c-1.601,1.267-3.75,2.066-6.45,2.399
		c-2.566,0.066-4.05,0.101-4.45,0.101l-11.45,1.399c-3.066,0.334-5.233,0.5-6.5,0.5c-6.934,0-13.3-1.434-19.1-4.3
		c-5.967-3.634-10.55-6.233-13.75-7.8l-0.65-0.351c-0.333-0.166-0.867-0.416-1.6-0.75c-0.833-0.333-1.367-0.517-1.6-0.55
		c-0.9-0.2-1.783-0.333-2.65-0.399c-4.1,1.866-8,3.583-11.7,5.149c-7.2,3.033-13,4.634-17.4,4.8c-3.3,0.134-8.45,0.117-15.45-0.05
		c-8.434-0.2-14.85-0.333-19.25-0.399c-0.733-0.101-2.1-0.483-4.1-1.15h0.05c0.7,0.033,1.467,0,2.3-0.1
		c0.9-0.134,1.55-0.284,1.95-0.45c0.767-0.3,1.417-0.7,1.95-1.2c0.3-0.267,0.617-0.6,0.95-1l1.35-0.3
		c1.267-0.033,4.55,0.149,9.85,0.55c4.967,0.167,8.133-0.316,9.5-1.45c0.933-0.733,1.917-2.55,2.95-5.45
		c1.1-3.033,1.633-5.616,1.6-7.75l0.55,10.351l-0.05,1.149c-0.066,0.733-0.216,2.184-0.45,4.351c0,0.8,1.3,1.2,3.9,1.2
		c4.8,0,8.4-0.733,10.8-2.2c0.767-0.467,2.034-1.334,3.8-2.601c1.9-1.3,3.9-2.466,6-3.5c0.066-0.033,1.583-0.35,4.55-0.949
		C91.317,121.366,93.05,120.75,93.85,120.05z M10.5,124.4l0.3-0.5c0.4-0.7,0.65-1.233,0.75-1.601l3.05,3.101l0.7,0.75
		c-0.367-0.134-0.7-0.25-1-0.351C11.9,124.934,10.633,124.467,10.5,124.4z M68.15,73.85c-0.833-0.333-1.633-0.699-2.4-1.1l0.2-0.25
		c-0.534-0.333-1.083-0.767-1.65-1.3c1.233,0.733,2.034,1.233,2.4,1.5C66.933,72.9,67.417,73.283,68.15,73.85z M239.25,56.95
		c-1.533,0.033-3.767,0-6.7-0.1c-3.133-0.1-4.95-0.15-5.45-0.15c-1,0-2.816,0.2-5.449,0.6l-3.7,0.55c-0.634,0-1.117-0.733-1.45-2.2
		c-0.6-2.7-0.983-4.283-1.15-4.75l0.801,1c1,0.9,2.767,1.684,5.3,2.35c2.434,0.633,4.649,0.95,6.649,0.95
		c4.801,0,7.367-5.883,7.7-17.65l0.7,3.75c0.267,1.567,0.684,4.3,1.25,8.2C238.316,53,238.816,55.483,239.25,56.95z M164.1,18.9
		l-1.399-0.3c-0.634-0.167-1.117-0.367-1.45-0.6L161,17.7c0.134-0.1,1.283-0.617,3.45-1.55c1.866-0.8,3.05-1.55,3.55-2.25
		c-0.934,2.434-1.566,3.85-1.9,4.25C165.8,18.517,165.134,18.767,164.1,18.9z M156.1,17.2c3.067,0,4.784,0.8,5.15,2.4
		c0.2,0.867,0.4,1.4,0.6,1.6c0.434,0.5,1.317,0.75,2.65,0.75c0.566,0,1.3-0.1,2.2-0.3c1.166-0.267,1.983-0.6,2.45-1
		c-0.834,1.633-1.851,2.967-3.051,4c-1.233,1-3.216,2.184-5.949,3.55c-0.534,0.367-1.301,0.75-2.301,1.15
		c-1.066,0.433-2,0.717-2.8,0.85c-1.434,0-2.649,0.367-3.649,1.1c-1.034,0.733-1.551,1.617-1.551,2.65l-0.3,2.75l-2.149,0.05
		L144.6,36.7c-0.566,0-1.05-0.25-1.449-0.75c-0.434-0.5-0.65-1.1-0.65-1.8l-2.8-2.9l3.55-0.25l1.8-0.05l1.65-0.1
		c1.5-0.333,3.017-0.917,4.55-1.75c1.767-1,3.267-1.7,4.5-2.1c1.934-1.6,2.9-3.417,2.9-5.45c0-0.9-0.567-1.95-1.7-3.15l-1.851-1.2
		H156.1z M171.5,47.25c1.233,0.067,2.934,0.717,5.1,1.95c-0.1,0.1-0.483,0.367-1.149,0.8c-0.7,0.433-1.15,0.683-1.351,0.75
		c-0.533,0.167-1.616,0.25-3.25,0.25c-1.199-0.067-2.483-0.283-3.85-0.65c-1.634-0.467-3.116-0.95-4.45-1.45
		c-2.1-0.967-3.35-1.583-3.75-1.85c-0.467-0.3-1.184-0.95-2.149-1.95l2-0.05c0.333,0.067,2.3,0.617,5.899,1.65
		c1.367,0.367,3.533,0.55,6.5,0.55h0.15C171.3,47.25,171.4,47.25,171.5,47.25z M192.35,80.2c-3.433,1.233-6.3,2.616-8.6,4.149
		c-1.866,1.233-3.083,1.851-3.65,1.851l0.4-1.4c0.467-1.2,1.15-2.333,2.05-3.399c2.066-0.867,3.417-1.534,4.05-2
		c0.667-0.2,5.801-1.051,15.4-2.551c-4.033,1.4-6.884,2.367-8.55,2.9L192.35,80.2z M126.75,51.65c-0.133-0.467-0.267-0.833-0.4-1.1
		c-0.2-0.433-0.6-0.9-1.2-1.4c-0.3-0.167-0.683-0.417-1.15-0.75c-0.867-0.633-2.167-1.767-3.9-3.4l-1.1-1
		c0.933,0.5,1.983,0.767,3.15,0.8l1.8-0.05c0.2,0,0.816,0.117,1.85,0.35c1.133,0.233,3.35,0.383,6.65,0.45l5.3-0.3l0.85-0.05
		l-3.35,2.65l-1.4,0.65l-0.6,0.25l-2.65,0.65c-0.467,0.1-1.617,0.184-3.45,0.25v0.8v1.1c-0.267,0.167-0.333,0.383-0.2,0.65
		c0.1,0.233,0.117,0.533,0.05,0.9L126.75,51.65z M180.7,57.85L180.6,56.2l1,1c-0.166-0.133-0.333-0.067-0.5,0.2l-0.25,0.45H180.7z
		 M170.3,105.8l-2.399,0.75L166.35,107l-0.35,0.05c1.6,1.134,3.017,2.167,4.25,3.101c0.533,0.366,0.967,0.55,1.3,0.55
		c0.5,0,0.917-0.283,1.25-0.851c0.3-0.5,0.467-1.149,0.5-1.949V104.8L170.3,105.8z M114.4,39.9l-0.15-0.15l1.15,0.8l2.7,2.75
		l-0.75-0.6C116.15,41.733,115.167,40.8,114.4,39.9z M105.8,69.6c1.667-0.066,2.85-0.083,3.55-0.05
		c0.633,0.233,1.217,0.617,1.75,1.15c-0.367,0.666-0.783,1.2-1.25,1.6c-0.867,0.733-2.483,1.316-4.85,1.75l-1.25,0.101
		c-1.1,0-1.933,0.017-2.5,0.05c-1,0.033-1.767,0.166-2.3,0.399c-2.034,0.967-5.067,1.601-9.1,1.9c-1.6,0.134-3.65,0.2-6.15,0.2
		c-1.733,0-3.35-0.084-4.85-0.25l-5.55-0.8c-0.5,0-1.45-0.267-2.85-0.801c-1.2-0.466-1.967-0.8-2.3-1l3.1,0.9
		c1.833,0.333,3.733,0.616,5.7,0.85c2.733,0.2,6.133,0.217,10.2,0.051c0.833-0.101,2.2-0.617,4.1-1.551
		c2.067-1.033,3.417-1.633,4.05-1.8l9.65-2.6L105.8,69.6z M118.1,66.6c0-0.333,0.167-0.6,0.5-0.8c0.3-0.233,0.683-0.35,1.15-0.35
		l1.2-0.55l1.65-0.7c-0.434,1.6-0.767,2.6-1,3c-0.233,0.367-0.65,0.55-1.25,0.55c-0.767,0-1.45-0.267-2.05-0.8L118.1,66.6z
		 M89.5,78.25h0.05c-0.133,0.267-1.167,1.667-3.1,4.2c-1.9,2.533-3,3.95-3.3,4.25l-0.9,1.1c-1.167,1.367-2.483,3.033-3.95,5
		c-0.466,0.601-0.966,1-1.5,1.2l-1.15,0.3c-4.9,0.5-8.133,0.417-9.7-0.25c-0.034,0-0.083,0-0.15,0
		c-0.667-0.133-1.883-0.583-3.65-1.35l-2.7-1.2l-3.4-1.25l1.15,0.3c2.9,0.334,6.45,0.417,10.65,0.25l3.75-0.1L85.55,81L89.5,78.25z"
		/>
	<path style="fill-rule:evenodd;clip-rule:evenodd;fill:#C0B7AA;" d="M241.25,79.7c-5.033,0.733-8.217,1.566-9.55,2.5
		c-0.967,0.7-2.15,1.05-3.55,1.05c-1.934,0-5.167-1.05-9.7-3.15c-5.167-2.6-8.767-4.399-10.8-5.399l1.5-0.75
		c0.033,0.033,1.733,1,5.1,2.899c3.733,1.9,6.533,2.867,8.4,2.9l1.399,0.1c-0.267-0.166-2.166-1.3-5.7-3.399
		c-1.899-1.101-2.85-2.066-2.85-2.9c0-0.566,1.033-1.967,3.1-4.2c2.101-2.233,3.134-4.149,3.101-5.75
		c-0.033-0.434-0.967-0.067-2.8,1.1c-1.834,1.167-2.733,1.966-2.7,2.4c0,0.733-0.634,1.566-1.9,2.5c0-1.933,0.417-3.583,1.25-4.95
		c0.8-1.4,1.767-2.1,2.9-2.1l19.899-2.65l3.351-0.45l0.7-0.05c0.5,0,0.899,0.033,1.199,0.1c-0.366,2-1.883,3.133-4.55,3.4
		c-4.8,0.167-9.434,0.6-13.899,1.3v1.5v1.1l0.05,0.7l2.6,0.15c1.334,0.1,2.717,0.3,4.15,0.6c1.8,0.3,3.767,1.05,5.899,2.25
		c2.167,1.2,3.4,2.25,3.7,3.15l0.101,0.199c0.366,1.434,0.517,3.367,0.449,5.801L241.25,79.7z M5.6,109l-0.05-0.05l0.9-0.5
		c3.333-0.867,6.2-2.134,8.6-3.8c1.467-1.034,3.367-2.75,5.7-5.15c5.033-5.2,10.483-8.95,16.35-11.25
		c0.233-0.033,0.483-0.05,0.75-0.05l1.55-0.15c0.6-0.033,1.283-0.066,2.05-0.1c0.667-0.033,1.267-0.066,1.8-0.101l0.45-0.05
		c0.5,0,1-0.017,1.5-0.05c1.466,0,3.05,1.066,4.75,3.2c1.867,2.366,2.8,4.916,2.8,7.649c0,5.867-2.283,8.801-6.85,8.801
		c-6.1-1.233-9.45-1.851-10.05-1.851c-1.767,0-2.983,0.55-3.65,1.65c-0.833,1.399-1.05,4.083-0.65,8.05
		c-0.3,0.066-0.783,0.1-1.45,0.1C17.767,113.35,9.6,111.233,5.6,109z M62.4,75.8c2.533,0.334,4.217,0.717,5.05,1.15
		c0.933,0.5,1.4,1.3,1.4,2.399c0,3.034-1.367,4.551-4.1,4.551c-1.633,0-3.367-0.15-5.2-0.45c-1.733-0.367-2.816-0.584-3.25-0.65
		c0-0.033-0.033-0.116-0.1-0.25c-0.1-0.133-0.15-0.399-0.15-0.8c0-0.1,0.35-0.616,1.05-1.55l-0.65-0.4H56.4L62.4,75.8z M71.65,53.85
		l5.7-4.15c4.4-2.633,8.4-4.934,12-6.9l9.4-6c3.433,0.167,5.983,0.1,7.65-0.2c4.133,2.833,5.967,4.133,5.5,3.9l-0.2-0.1
		c0.566,0.434,1.55,1.1,2.95,2c1.133,0.867,1.8,1.767,2,2.7c-6.5-4.233-11.283-6.35-14.35-6.35c-2.2,0-3.533,1.067-4,3.2
		c-0.733,3.4-1.5,5.617-2.3,6.65c-0.833,1.066-3,2.233-6.5,3.5c-3.258,1.23-5.641,1.847-7.15,1.85c0.265-0.006,0.331-0.207,0.2-0.6
		c-0.2-0.633-0.283-1.05-0.25-1.25c-2.733,1.6-4.783,3.433-6.15,5.5c-1.133,1.7-1.7,3.367-1.7,5c0,2.733,0.966,4.55,2.9,5.45
		c1.066,0.5,2.767,0.75,5.1,0.75c4.5,0,8.066-0.617,10.7-1.85c2.633-1.267,5.833-1.9,9.6-1.9l5.75,0.15
		c-7.867,2.966-11.95,4.5-12.25,4.6c-5.1,2-8.433,3.517-10,4.55c-1.267,0.467-2.85,0.634-4.75,0.5l-4.2-0.5c-0.066,0-0.133,0-0.2,0
		c-0.033,0-0.067,0-0.1,0l-0.3-0.05h-0.1l-0.45-0.05c-1.9-0.4-3.867-1.134-5.9-2.2c-1.433-0.733-2.7-1.55-3.8-2.45
		c-0.367-0.6-0.767-1.433-1.2-2.5c-0.433-1.1-0.65-1.817-0.65-2.15l0.15-1.6c0.633-1.667,1.067-2.7,1.3-3.1
		C67.017,58.65,68.883,56.517,71.65,53.85z M129.45,25.55c0.833,0.2,1.816,0.434,2.95,0.7c0.833,0.2,1.75,0.417,2.75,0.65
		c4.6,1.067,7.3,2.434,8.1,4.1l-3.55,0.25l2.8,2.9c-0.7,0.8-2.417,1.7-5.15,2.7c-3.067,1.133-5.717,1.7-7.95,1.7
		c-1,0-3.15-0.65-6.45-1.95c-3.3-1.333-6.083-2-8.35-2c-1.1,0-1.934-0.117-2.5-0.35c-0.667-0.3-1.2-0.833-1.6-1.6l-0.05-0.05
		l0.05-0.4c0.267-2.367,1.017-4.6,2.25-6.7c1.2-2.1,2.55-3.483,4.05-4.15c3.2-0.267,5.383,0.05,6.55,0.95
		c0.667,0.5,1.583,1.3,2.75,2.4C126.167,24.733,127.283,25.017,129.45,25.55z M122.25,6.55c-0.5-0.267-0.967-0.566-1.4-0.9
		c-0.167-0.133-0.333-0.283-0.5-0.45h-0.05l0.25-0.2c0.333-0.433,0.65-0.783,0.95-1.05c1.133-1.233,3.333-2.217,6.6-2.95
		c3.133-0.667,6.8-1,11-1l7.851,0.2c4.133,0.1,6.899,1.05,8.3,2.85c0.066,0.067,0.866,0.233,2.4,0.5c1.466,0.2,2.199,0.4,2.199,0.6
		c0.034,0.1,0.25,0.684,0.65,1.75c0.4,1.1,0.6,1.833,0.6,2.2c0,1.566-1.199,2.35-3.6,2.35c-1.833,0-3.8-0.3-5.9-0.9
		c-2.767-0.8-5.767-1.4-9-1.8c0.4,0.967,1.284,2.033,2.65,3.2c0.733,0.6,1.533,1.216,2.4,1.85l0.35,0.4c-2.1-0.1-4.583-0.6-7.45-1.5
		c-2.566-0.8-4.25-1.517-5.05-2.15c-0.6-0.466-2.65-0.783-6.15-0.95C126.717,8.5,124.35,7.817,122.25,6.55z M150.4,36.05l-0.25-0.1
		c-0.067-0.034-0.101-0.25-0.101-0.65c0-0.7,0.25-1.4,0.75-2.1l3.351-2c-0.2,0.267-0.483,0.716-0.851,1.35
		c-0.434,0.733-0.7,1.284-0.8,1.65c0.267,0.2,0.566,0.45,0.9,0.75c0.333,0.2,0.767,0.3,1.3,0.3c0.767,0,1.467-0.35,2.1-1.05
		c0.9-1.034,2.934-2.017,6.101-2.95c2.3-0.633,4.55-1.533,6.75-2.7c3.533-1.867,5.816-3.917,6.85-6.15c0.7-0.2,1.384-0.633,2.05-1.3
		c0.7-0.633,1.134-1.25,1.3-1.85c0.733,0.033,2.601-0.033,5.601-0.2c3.033,0,7.666,0.3,13.899,0.9c8.5,0.833,15.101,1.4,19.801,1.7
		c0.1,0.233,0.233,0.533,0.399,0.9c0.233,0.633,0.417,1.217,0.55,1.75l0.15,3.4c0,3.533-2,5.45-6,5.75
		c-2.733,0.033-4.917,0.083-6.55,0.15c-3.066,0.133-5.767,0.483-8.101,1.05c5.034-2.3,7.9-4.117,8.601-5.45l-0.4-1.25
		c-2.434-0.434-4.25-1.2-5.45-2.3c-0.8-0.733-3.3-1.1-7.5-1.1c-1.033,0-2.633,0.05-4.8,0.15c-2.967,0.1-5.133,0.233-6.5,0.4
		l-0.85,0.2c0.434,0.267,2.184,0.667,5.25,1.2c3,0.5,4.833,1,5.5,1.5c0.533,0.433,1.217,1.567,2.05,3.4c0.8,1.8,1.2,3.05,1.2,3.75
		c-0.5-0.3-2.117-1.467-4.851-3.5c-1.8-1.333-3.166-2.1-4.1-2.3c-4.6-1-7.9-1.5-9.9-1.5c-0.166,0-0.483,0.15-0.949,0.45
		c-0.5,0.333-0.917,0.684-1.25,1.05c1.1,0.6,2.866,1.133,5.3,1.6l-1.3,1.65c0,0.767,0.6,1.983,1.8,3.65
		c1.166,1.7,1.75,2.967,1.75,3.8c0,1.5-0.733,2.567-2.2,3.2c-1.134,0.5-2.833,0.75-5.1,0.75c-7.801,0-14.301-1.25-19.5-3.75
		c-1.634-0.8-3.084-1.717-4.351-2.75C151.05,36.633,150.5,36.15,150.4,36.05z M156.6,46.8l3.95,1.55
		c2.434,0.933,3.733,1.433,3.9,1.5c0.033,0,0.883,0.167,2.55,0.5c1.366,0.367,2.65,0.583,3.85,0.65l1.9,0.65
		c-0.5,1.733-2.483,3.3-5.95,4.7c-3.2,1.3-6.267,1.95-9.2,1.95c-0.833,0-1.866-0.2-3.1-0.6c-1.267-0.434-3.15-0.65-5.65-0.65
		C142.25,58.35,138.2,59,136.7,59c-2.934,0-4.8-0.367-5.6-1.1c-0.5-0.433-0.75-1.4-0.75-2.9c0.167-2.5,0.25-4.367,0.25-5.6
		l2.65-0.65l2.65,0.05c3.4,0.067,6.117,0.05,8.15-0.05c0.9-0.133,1.733-0.3,2.5-0.5c1.667-0.433,4.017-1.167,7.05-2.2
		C154.366,46.05,155.366,46.3,156.6,46.8z M196.75,36.5l-0.1,1.2c0.033,0.066,0.05,0.117,0.05,0.15c0,0.1-0.2,0.15-0.601,0.15
		c-0.199,0-0.483-0.167-0.85-0.5c-0.634-0.6-1.267-1.533-1.9-2.8L196.75,36.5z M119.85,81.2c2.467-0.233,4.7-0.233,6.7,0
		c4.3,1.366,6.55,2.05,6.75,2.05c0.434,0,2.233,0.583,5.4,1.75c1.566,0.566,3.1,1.134,4.6,1.7l3.101,1.25l-0.9-0.101l1.35,0.301
		c1.267,0.433,2.367,1.05,3.301,1.85c0.666,0.6,1.233,1.316,1.699,2.15c0.7,1.199,1.051,2.267,1.051,3.199
		c0,1.367-1.101,3.017-3.301,4.95c-2.133,1.867-3.149,3.9-3.05,6.101c0.267,4.933-1.316,7.399-4.75,7.399
		c-0.333,0-1.8-0.517-4.4-1.55c-2.533-1.066-3.833-1.6-3.9-1.6c-0.4,0-0.817,0.166-1.25,0.5l-0.5,0.449l-2.2,1.851l0.25-3.05
		c0.2-0.9,0.583-1.817,1.15-2.75c0.133-0.101,0.333-0.45,0.6-1.051c0.3-0.6,0.5-1.1,0.6-1.5l0.05-0.6
		c-0.333-0.934-0.767-1.616-1.3-2.05c-0.6-0.467-1.45-0.7-2.55-0.7c-1.067,0-4.9,1.533-11.5,4.6c-6.267,2.934-10.867,4.167-13.8,3.7
		c-1.466-1.267-2.117-2.434-1.95-3.5l0.25-1.85c2.066-4.434,3.967-7.2,5.7-8.3c0.467-0.301,1.133-0.65,2-1.051
		c0.767-0.433,1.467-1.066,2.1-1.899l0.4-0.55c0.434-0.534,0.934-2.051,1.5-4.551c0.567-2.533,0.9-3.983,1-4.35
		c0.567-1,1.434-1.717,2.6-2.15C117.317,81.583,118.383,81.366,119.85,81.2z M82.8,87.45l2.05-1l1.2-0.25h8.05l0.05,2.899
		c0,1.534-0.717,4-2.15,7.4c-0.5,1.134-1.75,3.8-3.75,8c-0.633,1.4-1.283,2.283-1.95,2.65c-1.066,0.6-3.216,0.899-6.45,0.899
		c-1.233,0-2.667-0.133-4.3-0.399c-2.133-0.367-3.917-0.667-5.35-0.9c-0.4-0.2-0.917-0.616-1.55-1.25c-0.167-1.434-0.5-2.866-1-4.3
		C67.217,99.967,67,98.917,67,98.05c0-0.6,0.467-1.467,1.4-2.6c0.9-0.033,2.434,0.066,4.6,0.3l0.75,0.05
		c1.2,0,1.983-0.217,2.35-0.649c0.233-0.233,0.467-0.617,0.7-1.15c0.534-0.2,1.034-0.6,1.5-1.2c1.467-1.967,2.784-3.633,3.95-5
		L82.8,87.45z M188.9,89.55l5.5-1.6c3.166,0,5.866-0.75,8.1-2.25s3.35-3.3,3.35-5.4l0.4,0.15c0.233,0.2,0.35,0.616,0.35,1.25
		L211.9,81.6c1.666,0,3.85,0.267,6.55,0.801c3.166,0.6,5.434,1.316,6.8,2.149l2,1.601l0.8,0.8c0.134,0.366,0.584,1.033,1.351,2
		c0.699,0.899,1.166,1.45,1.399,1.649c0.167,0.334,1.167,2.301,3,5.9c1.767,3.634,2.684,5.866,2.75,6.7c-0.467,2.5-2.5,4-6.1,4.5
		c-0.634,0.066-3.967,0.1-10,0.1c-1.467,0-2.217-0.366-2.25-1.1c0.6-1.566,1.399-2.783,2.399-3.65c0.7-0.633,1.051-1.45,1.051-2.45
		c0-1.033-0.434-1.783-1.301-2.25c-0.666-0.333-1.466-0.5-2.399-0.5c-3.167,0-4.834,2.134-5,6.4c-0.066,2.333,0.166,5.5,0.7,9.5
		l-0.051,1.45c-0.433,0.066-0.983,0.1-1.649,0.1c-2.767,0-4.967-0.333-6.601-1c-1.433-0.767-2.683-1.283-3.75-1.55l-0.449-0.45
		c0.5,0,1.383-0.25,2.649-0.75c1.566-0.6,2.55-1.217,2.95-1.85c-2.9-0.867-5.1-1.417-6.6-1.65c-4.534-0.666-7.65-1.149-9.351-1.45
		c0.566-1.133,1.5-2.083,2.8-2.85c1.934-1.134,4.267-1.45,7-0.95l0.15-0.8c-0.4-1.2-1.55-1.967-3.45-2.3
		c-2.233-0.434-3.566-0.867-4-1.3c-1.1-1.101-1.883-2.034-2.35-2.801c-0.134-0.166-0.65-0.449-1.55-0.85
		c-0.301-0.134-1.517-0.45-3.65-0.95c-1.066-0.233-1.6-0.733-1.6-1.5c0-0.399,0.05-0.633,0.149-0.7
		c0.267-0.166,0.417-0.267,0.45-0.3l1.4,0.2c0.566-0.1,1-0.25,1.3-0.45C187.816,90.783,188.3,90.283,188.9,89.55z M155.1,113.25
		c-4.033,1.1-6.833,1.6-8.399,1.5c-0.101-1.7,0.283-3.066,1.149-4.1c1.634-2,4.917-3.267,9.851-3.801l1.399-1.149l0.051,1.149
		c0,0.233-0.15,0.934-0.45,2.101c-0.3,1.166-0.5,1.866-0.601,2.1c-0.133,0.134-0.633,0.517-1.5,1.15
		C155.733,112.833,155.233,113.184,155.1,113.25z M125.6,40.3c0.733-0.167,3.066-0.533,7-1.1c3.733-0.567,5.733-0.9,6-1l-6,2.5
		c-1.167,0.8-2.483,1.2-3.95,1.2c-0.267,0-1.066-0.066-2.4-0.2c-0.333-0.467-0.533-0.8-0.6-1L125.6,40.3z M100.1,104.4l-0.05,2.199
		c-0.066,2.434-0.25,3.983-0.55,4.65c-0.967,0.967-1.467,1.5-1.5,1.6c-0.467,0.301-1.367,0.45-2.7,0.45
		c-3.2,0-5.417-0.217-6.65-0.649c-1.333-0.434-2-1.267-2-2.5c0-1.2,1.05-2.517,3.15-3.95c2.2-1.5,4.684-2.5,7.45-3h2.7l0.15,1.05
		V104.4z"/>
	<path style="fill-rule:evenodd;clip-rule:evenodd;fill:#D2C8BA;" d="M154.15,31.2l0.899-1c0.8-0.133,1.733-0.417,2.8-0.85
		c1-0.4,1.767-0.783,2.301-1.15l0.399-0.05c1-0.1,2.351-0.433,4.05-1c1-0.3,2.534-0.883,4.601-1.75l7.399-3.2l-0.1,0.2
		c-1.033,2.233-3.316,4.283-6.85,6.15c-2.2,1.167-4.45,2.067-6.75,2.7c-3.167,0.933-5.2,1.917-6.101,2.95
		c-0.633,0.7-1.333,1.05-2.1,1.05c-0.533,0-0.967-0.1-1.3-0.3c-0.334-0.3-0.634-0.55-0.9-0.75c0.1-0.367,0.366-0.917,0.8-1.65
		C153.667,31.917,153.95,31.467,154.15,31.2z M193.35,34.7c-3.8-1.833-6.316-2.85-7.55-3.05c-1.333-0.033-2.95-0.267-4.85-0.7
		c-2.434-0.467-4.2-1-5.3-1.6c0.333-0.367,0.75-0.717,1.25-1.05c0.466-0.3,0.783-0.45,0.949-0.45c2,0,5.301,0.5,9.9,1.5
		c0.934,0.2,2.3,0.967,4.1,2.3c2.733,2.033,4.351,3.2,4.851,3.5c0.666,0.833,1.133,1.517,1.399,2.05l-1.35-0.7L193.35,34.7z
		 M204.05,78.4l2.55-0.7l-0.75,2.6c0,2.101-1.116,3.9-3.35,5.4s-4.934,2.25-8.1,2.25c-0.934,0.033-2.051,0.25-3.351,0.649
		c-1.133,0.367-1.85,0.684-2.149,0.95c-0.601,0.733-1.084,1.233-1.45,1.5c-0.3,0.2-0.733,0.351-1.3,0.45l-1.4-0.2l-1.7-0.25
		l-1.05-0.1L181.7,90c0.166-0.533,0.3-1.1,0.399-1.7l0.051-0.75l0.199-0.3c12.534-2.8,18.801-5.283,18.801-7.45
		c0-0.399,0.483-0.75,1.449-1.05C203.1,78.583,203.583,78.467,204.05,78.4z M208.25,71.7c0.033-0.033,0.866-0.184,2.5-0.45
		c1.434-0.267,2.616-0.816,3.55-1.65c1.267-0.933,1.9-1.766,1.9-2.5c-0.033-0.434,0.866-1.233,2.7-2.4
		c1.833-1.167,2.767-1.534,2.8-1.1c0.033,1.6-1,3.517-3.101,5.75c-2.066,2.233-3.1,3.634-3.1,4.2c0,0.834,0.95,1.8,2.85,2.9
		c3.534,2.1,5.434,3.233,5.7,3.399l-1.399-0.1c-1.867-0.033-4.667-1-8.4-2.9c-3.366-1.899-5.066-2.866-5.1-2.899
		c-0.233,0-0.434-0.217-0.601-0.65C208.35,72.866,208.25,72.333,208.25,71.7z"/>
</g>
</svg>
