<?xml version="1.0" encoding="iso-8859-1"?>
<!-- Generator: Adobe Illustrator 15.1.0, SVG Export Plug-In . SVG Version: 6.00 Build 0)  -->
<!DOCTYPE svg PUBLIC "-//W3C//DTD SVG 1.1//EN" "http://www.w3.org/Graphics/SVG/1.1/DTD/svg11.dtd">
<svg version="1.1" id="FlashAICB" xmlns="http://www.w3.org/2000/svg" xmlns:xlink="http://www.w3.org/1999/xlink" x="0px" y="0px"
	 width="67.85px" height="29.65px" viewBox="0 0 67.85 29.65" style="enable-background:new 0 0 67.85 29.65;" xml:space="preserve"
	>
<g>
	<path style="fill-rule:evenodd;clip-rule:evenodd;fill:#DDDEE0;" d="M66.65,21.85c0.267,1.7-0.867,2.483-3.4,2.351
		c-0.434-0.033-1.717-0.2-3.85-0.5c-1.634-0.267-3-0.351-4.101-0.25c-0.267,0.033-1.033,0.2-2.3,0.5
		c-0.934,0.233-1.733,0.316-2.4,0.25c-0.233-0.033-0.55-0.101-0.949-0.2c-0.2-0.1-0.417-0.184-0.65-0.25
		c-0.634-0.267-1.167-0.384-1.6-0.35c-0.767-2.934,0.233-4.867,3-5.801c1.433-0.5,3.949-0.75,7.55-0.75l3.3-0.649
		c2.233,0.333,3.9,1.783,5,4.35C66.45,21.017,66.583,21.45,66.65,21.85z M3,7.6c0.567-0.333,1.283-0.667,2.15-1
		C6.783,5.967,7.9,5.433,8.5,5c1.033-0.833,1.783-1.45,2.25-1.85c0.867-0.7,1.717-1.25,2.55-1.65c4.034-1.9,8.883-2,14.55-0.3
		c0.767,0.233,5.216,2.05,13.35,5.45c-1,1.7-2.267,2.867-3.8,3.5c-5.5,2.434-10.517,2-15.05-1.3c-1.233-0.9-2.15-1.367-2.75-1.4
		c-0.633-0.034-1.617,0.35-2.95,1.15c-2.8,1.633-5.316,2.65-7.55,3.05c-1.5,0.3-2.833,0-4-0.9C4.067,9.983,3.367,8.933,3,7.6z"/>
	<path style="fill-rule:evenodd;clip-rule:evenodd;fill:#797061;" d="M66.65,21.85c2.267,2.867,1.267,5.317-3,7.351
		c-0.967,0.467-3.017,0.583-6.15,0.35s-5.116-0.666-5.95-1.3c-1.467-1.1-2.1-2.517-1.899-4.25c0.399,0.1,0.716,0.167,0.949,0.2
		c0.667,0.066,1.467-0.017,2.4-0.25c1.267-0.3,2.033-0.467,2.3-0.5c1.101-0.101,2.467-0.017,4.101,0.25
		c2.133,0.3,3.416,0.467,3.85,0.5C65.783,24.333,66.917,23.55,66.65,21.85z M12.55,25.1c0.233,0.034,0.467,0.084,0.7,0.15
		c0.6-0.833,1.067-1.467,1.4-1.9c1.833-2.466,3.434-4.883,4.8-7.25c0.667-0.1,1.466-0.233,2.4-0.399c0.033,0,0.066,0,0.1,0
		c1.066-0.134,2.033-0.2,2.9-0.2l-1.7,0.7c0.667,0.399,1.083,1.366,1.25,2.899c0.133,1.334,0.083,2.45-0.15,3.351
		c-0.233,0.733-0.85,1.45-1.85,2.149c-0.6,0.367-1.517,0.917-2.75,1.65c0.726,0.048,1.442,0.082,2.15,0.1c-0.267,0-0.533,0-0.8,0
		C18.1,26.25,15.283,25.833,12.55,25.1z M9.8,24.2c-2.367-0.9-4.333-2.3-5.9-4.2c-1.233-1.467-1.983-3-2.25-4.6
		c1.033,1.033,2.467,1.75,4.3,2.149c0.633,0.134,1.333,0.217,2.1,0.25c-0.033,0.434-0.066,0.934-0.1,1.5
		c-0.1,1.767-0.034,3.15,0.2,4.15L9.8,24.2z"/>
	<path style="fill-rule:evenodd;clip-rule:evenodd;fill:#CED1D6;" d="M46.5,13.85c-0.333,0.133-0.733,0.25-1.2,0.35
		c-0.6,0.167-1.566,0.083-2.899-0.25c-0.134-0.034-0.25-0.067-0.351-0.1c-1.533-0.367-2.684-0.483-3.45-0.35
		c-0.866,0.167-1.767,0.683-2.699,1.55c-0.834,0.767-1.567,1.283-2.2,1.55c-0.134,0.067-0.267,0.117-0.4,0.15
		c-0.833,0.267-2.167,0.167-4-0.3c-2.233-0.601-3.617-0.917-4.15-0.95h-0.3c-0.867,0-1.833,0.066-2.9,0.2c-0.034,0-0.067,0-0.1,0
		c-0.934,0.166-1.733,0.3-2.4,0.399c-0.3,0.034-0.583,0.067-0.85,0.101c-2.733,0.566-4.8,0.967-6.2,1.2
		c-1.6,0.3-3.05,0.433-4.35,0.399c-0.767-0.033-1.466-0.116-2.1-0.25c-1.833-0.399-3.267-1.116-4.3-2.149
		C1.217,14.967,0.867,14.5,0.6,14c-1.1-1.933-0.65-3.817,1.35-5.65c0.2-0.2,0.466-0.4,0.8-0.6C2.817,7.683,2.9,7.617,3,7.55V7.6
		c0.367,1.333,1.067,2.383,2.1,3.15c1.167,0.9,2.5,1.2,4,0.9c2.233-0.4,4.75-1.417,7.55-3.05c1.333-0.8,2.317-1.184,2.95-1.15
		c0.6,0.033,1.517,0.5,2.75,1.4c4.533,3.3,9.55,3.733,15.05,1.3c1.533-0.633,2.8-1.8,3.8-3.5l0.45,0.2c1.866,0.8,3.483,2,4.85,3.6
		C47.866,12.05,47.866,13.183,46.5,13.85z"/>
	<path style="fill-rule:evenodd;clip-rule:evenodd;fill:#504A3F;" d="M41.15,20.65L41.2,20.6l1.1-1.399
		c0.601-0.566,0.967-0.934,1.101-1.101c0.133-0.199,0.216-0.666,0.25-1.399c0-1.066-0.417-1.983-1.25-2.75
		c1.333,0.333,2.3,0.417,2.899,0.25c0.467-0.1,0.867-0.217,1.2-0.35c0.2,1.066,0.267,2.35,0.2,3.85c-0.066,0.7-0.15,1.467-0.25,2.3
		c-0.233,0-0.483,0-0.75,0l-2.15,0.15C42.783,20.25,41.983,20.417,41.15,20.65z"/>
	<path style="fill-rule:evenodd;clip-rule:evenodd;fill:#635B4F;" d="M19.45,16.1c-1.367,2.367-2.967,4.784-4.8,7.25
		c-0.333,0.434-0.8,1.067-1.4,1.9c-0.233-0.066-0.467-0.116-0.7-0.15l-2.6-0.85C9.883,24.217,9.833,24.2,9.8,24.2l-1.65-0.75
		c-0.233-1-0.3-2.384-0.2-4.15c0.033-0.566,0.066-1.066,0.1-1.5c1.3,0.033,2.75-0.1,4.35-0.399c1.4-0.233,3.467-0.634,6.2-1.2
		C18.867,16.167,19.15,16.134,19.45,16.1z M41.15,20.65c-1.167,0.3-2.733,0.866-4.7,1.699L32.8,23.95
		c-0.2,0.1-0.383,0.184-0.55,0.25c-0.067,0.033-0.133,0.066-0.2,0.1c-2.066,0.066-3.966,0-5.7-0.2c0.467-0.5,1.3-0.966,2.5-1.399
		c0.633-0.267,1.55-0.601,2.75-1c0.367-0.167,1.583-0.834,3.65-2c1.533-0.9,2.8-1.434,3.8-1.601c0.334-1.033-0.616-1.583-2.85-1.649
		c-1,0.066-1.834,0.116-2.5,0.149c0.633-0.267,1.366-0.783,2.2-1.55c0.933-0.867,1.833-1.383,2.699-1.55
		c0.767-0.133,1.917-0.017,3.45,0.35c0.101,0.033,0.217,0.066,0.351,0.1c0.833,0.767,1.25,1.684,1.25,2.75
		c-0.034,0.733-0.117,1.2-0.25,1.399c-0.134,0.167-0.5,0.534-1.101,1.101L41.2,20.6L41.15,20.65z"/>
	<path style="fill-rule:evenodd;clip-rule:evenodd;fill:#706759;" d="M33.7,16.6c0.666-0.033,1.5-0.083,2.5-0.149
		c2.233,0.066,3.184,0.616,2.85,1.649c-1,0.167-2.267,0.7-3.8,1.601c-2.066,1.166-3.283,1.833-3.65,2c-1.2,0.399-2.117,0.733-2.75,1
		c-1.2,0.434-2.033,0.899-2.5,1.399c1.733,0.2,3.633,0.267,5.7,0.2c-0.066,0.033-0.133,0.066-0.2,0.101L22.6,26.35h-0.8
		c-0.708-0.018-1.424-0.052-2.15-0.1c1.233-0.733,2.15-1.283,2.75-1.65c1-0.699,1.617-1.416,1.85-2.149
		c0.233-0.9,0.283-2.017,0.15-3.351c-0.167-1.533-0.583-2.5-1.25-2.899l1.7-0.7h0.3c0.533,0.033,1.917,0.35,4.15,0.95
		c1.833,0.467,3.167,0.566,4,0.3C33.434,16.717,33.566,16.667,33.7,16.6z"/>
</g>
</svg>
