<?xml version="1.0" encoding="iso-8859-1"?>
<!-- Generator: Adobe Illustrator 15.1.0, SVG Export Plug-In . SVG Version: 6.00 Build 0)  -->
<!DOCTYPE svg PUBLIC "-//W3C//DTD SVG 1.1//EN" "http://www.w3.org/Graphics/SVG/1.1/DTD/svg11.dtd">
<svg version="1.1" id="Layer_1" xmlns="http://www.w3.org/2000/svg" xmlns:xlink="http://www.w3.org/1999/xlink" x="0px" y="0px"
	 width="150.45px" height="109.15px" viewBox="0 0 150.45 109.15" style="enable-background:new 0 0 150.45 109.15;"
	 xml:space="preserve">
<g>
	<path style="fill-rule:evenodd;clip-rule:evenodd;fill:#D2C8BA;" d="M124.2,47.25c1.434-0.267,2.233-0.45,2.399-0.55
		c0.167-0.067,0.551-0.467,1.15-1.2l9.2,0.15c-0.3,0.267-1.517,0.617-3.65,1.05c-2.3,0.466-4.017,0.65-5.149,0.55l-0.2-1.3
		c-0.267,0.3-0.917,0.733-1.95,1.3H124.2z M114.95,44c-0.434-0.967-1.084-1.817-1.95-2.55c-1.1-0.767-1.95-1.367-2.55-1.8
		c-1.134-0.833-1.917-1.467-2.351-1.9c0.733,0.033,1.517,0,2.351-0.1c1,0.1,2.416,0.934,4.25,2.5c1.733,1.533,2.866,2.85,3.399,3.95
		c-0.233,0.233-0.383,0.4-0.449,0.5c-0.101,0.133-0.15,0.4-0.15,0.8c0,0.5,0.2,0.95,0.6,1.35c-0.6-0.3-1.433-0.733-2.5-1.3
		C115.366,45.317,115.15,44.833,114.95,44z M23.6,27.9l-4.95-4c-0.167-0.467-0.533-1.066-1.1-1.8c-0.7-0.867-1.1-1.4-1.2-1.6
		l-0.9-1.05c0-0.3-0.15-0.55-0.45-0.75c-0.3-0.233-0.667-0.35-1.1-0.35c0.233-1.067,0.983-2.95,2.25-5.65c1-2.2,1.434-3.9,1.3-5.1
		l3.35-3.05L20.1,6.1c-0.467,2.233-1.5,6.35-3.1,12.35c0,1.533,0.5,2.816,1.5,3.85c2.767,2.9,4.483,4.784,5.15,5.65L23.6,27.9z
		 M33.8,43h-0.35l-1.7-1.05c-0.033-0.034-0.867-0.817-2.5-2.35c-1.033-0.934-1.683-1.967-1.95-3.1c-0.533-0.6-0.966-1.633-1.3-3.1
		c-1.033-1.566-1.367-2.35-1-2.35l1.95,0.2v0.05c0.033,2.934,1.3,5.45,3.8,7.55c2.2,1.833,4.817,2.867,7.85,3.1
		C39,41.983,39.417,42,39.85,42c-0.233,0.233-0.883,0.417-1.95,0.55c-0.167,0.034-0.316,0.067-0.45,0.1
		C35.683,42.883,34.467,43,33.8,43z M74.95,55.5c-0.534,0.4-1.25,0.6-2.15,0.6c-1.367,0.134-2.683,0.351-3.95,0.65
		c-1.1,0.233-2.434,0.4-4,0.5c-1.2,0-2.9-0.3-5.1-0.9c-2.167-0.433-5.017-0.683-8.55-0.75h-0.6h-1c-2.567-1.167-4.1-1.917-4.6-2.25
		c-1.2-0.767-3-2.3-5.4-4.6l-0.1-0.15l-0.1-0.35c2.7,0.733,5.117,1.767,7.25,3.1c1.867,1.133,3.184,1.75,3.95,1.85
		c2.2,0.267,8.566,0.466,19.1,0.6l4.55-0.05c0-0.7-0.017-1.15-0.05-1.35c-0.067-0.1-0.284-0.566-0.65-1.4s-0.583-1.383-0.65-1.65
		l0.45,0.95c0.333,0.667,0.617,1.367,0.85,2.1C74.933,53.767,75.184,54.8,74.95,55.5z M82.35,53.55
		c-3.366-1.8-5.416-3.383-6.149-4.75l0.7-0.7c0.066,0,0.899,0.367,2.5,1.1c1.666,0.733,2.983,1.216,3.949,1.45
		c1.767,0.4,4.084,0.6,6.95,0.6c1.233,0,3.917-0.717,8.05-2.15c3.767-1.333,6.067-2.25,6.9-2.75c-0.833,1.767-1.816,2.933-2.95,3.5
		c-1.8,0.566-3.55,1.217-5.25,1.95c-0.666,0.2-1.649,0.383-2.95,0.55c-1.3,0.167-2.399,0.267-3.3,0.3
		c-1.2-0.033-2.333-0.05-3.399-0.05C85.366,52.567,83.684,52.883,82.35,53.55z"/>
	<path style="fill-rule:evenodd;clip-rule:evenodd;fill:#B3AA9E;" d="M72.7,19.7l-0.8,0.9c0.233,0.133,0.35,0.233,0.35,0.3l2.7,0.25
		c0.6,0,0.983-0.133,1.149-0.4c0.134-0.2,0.317-0.55,0.551-1.05c-0.5-0.667-1.067-1.217-1.7-1.65v-2.1
		c-5.667,0.3-9.467,0.85-11.4,1.65c-1.133,0.467-1.7,1.133-1.7,2c0,0.4,0.083,0.65,0.25,0.75c0.167,0.066,0.25,0.117,0.25,0.15
		L65,20.75C65.1,20.75,67.667,20.4,72.7,19.7z M120.85,47.4l3.351-0.15h1.8l-0.35,0.2L120.85,47.4z M118.1,44.1
		c-0.533-1.1-1.666-2.417-3.399-3.95c-1.834-1.566-3.25-2.4-4.25-2.5l0.45-0.1c1,0.2,1.899-0.017,2.699-0.65
		c0.767-0.6,1.217-1.367,1.351-2.3l-2-0.5c-0.8-1.2-1.967-2.25-3.5-3.15c-1.967-1.133-4.134-1.7-6.5-1.7
		c-0.934,0-1.667,0.383-2.2,1.15c-0.366,0.5-0.55,0.917-0.55,1.25c0,1.067,0.633,2.083,1.899,3.05c0.167,0.133,1.45,0.933,3.851,2.4
		c0.5,3.066,0.35,6.017-0.45,8.85c-0.6,2.066-1.366,3.7-2.3,4.9c-1.934,0.533-3.983,0.85-6.15,0.95c1.7-0.733,3.45-1.383,5.25-1.95
		c1.134-0.567,2.117-1.733,2.95-3.5c-0.833,0.5-3.134,1.417-6.9,2.75c-4.133,1.433-6.816,2.15-8.05,2.15
		c-2.866,0-5.184-0.2-6.95-0.6c-0.966-0.233-2.283-0.717-3.949-1.45c-1.601-0.733-2.434-1.1-2.5-1.1c0-0.833-0.301-1.55-0.9-2.15
		c-0.6-0.6-1.317-0.9-2.15-0.9c0.066-0.233-0.233-0.283-0.9-0.15c-0.667,0.133-1,0.35-1,0.65c0.1,0.2,0.25,0.35,0.45,0.45l0.55-0.15
		l-0.8,0.7c-0.033,0-0.05,0.017-0.05,0.05c-0.267,0.233-0.483,0.117-0.65-0.35L71.7,47l-0.75,0.95
		c0.367,0.466,0.683,0.783,0.95,0.95c0.4,0.267,0.917,0.417,1.55,0.45c0.7,0.5,1.983,2.333,3.85,5.5l-2.35,0.65
		c0.233-0.7-0.017-1.733-0.75-3.1c-0.233-0.733-0.517-1.433-0.85-2.1l-0.45-0.95c0.067,0.267,0.283,0.816,0.65,1.65
		s0.583,1.3,0.65,1.4c0.033,0.2,0.05,0.65,0.05,1.35L69.7,53.8c-10.534-0.133-16.9-0.333-19.1-0.6c-0.767-0.1-2.083-0.717-3.95-1.85
		c-2.133-1.333-4.55-2.367-7.25-3.1l-0.9-0.9c0.533-0.4,1.4-1.35,2.6-2.85c1.233-1.533,1.883-2.517,1.95-2.95H42.6l-0.1-0.45
		l1.5-0.8l-0.05,0.6c1.6,0.033,2.617-0.033,3.05-0.2c0.767-0.333,1.083-1.15,0.95-2.45L47.4,38.3c-0.3,0.034-0.9,0.317-1.8,0.85
		c-0.833,0.467-1.367,0.8-1.6,1l-2.5,1l-2.05,0.8l0.4,0.05c-0.434,0-0.85-0.017-1.25-0.05c-3.033-0.233-5.65-1.267-7.85-3.1
		c-2.5-2.1-3.767-4.617-3.8-7.55v-0.05L25,31.05c-0.633-0.9-1.1-1.95-1.4-3.15l0.05,0.05c-0.667-0.867-2.383-2.75-5.15-5.65
		c-1-1.033-1.5-2.316-1.5-3.85c1.6-6,2.633-10.117,3.1-12.35c0.3-0.333,0.683-0.833,1.15-1.5c0.3-0.367,0.583-0.633,0.85-0.8
		l0.1-0.1V3.65c0.033,0,0.066-0.017,0.1-0.05l0.15-0.15c7.2-1.3,11.55-2.067,13.05-2.3C40.867,0.383,46.117,0,51.25,0
		c5.467,0,11.767,0.433,18.9,1.3c3.733,0.467,8.234,1.05,13.5,1.75c0.633,0.233,0.399,0.383-0.7,0.45
		c-1.533,0.067-2.3,0.65-2.3,1.75c0,0.4,0.116,0.667,0.35,0.8c0.1,0.067,0.2,0.1,0.3,0.1L82.9,6.2c1.3,0,2.333-0.133,3.1-0.4
		c0.5-0.167,1-0.466,1.5-0.9L87,4.2l-2.95-1.15c3.467,0.167,7.5,1.767,12.101,4.8c2.866,1.9,8.583,5.717,17.149,11.45
		c5.667,3.434,11.566,7.684,17.7,12.75c1.667,1.133,3.6,3.417,5.8,6.85c2.367,3.667,3.934,5.833,4.7,6.5
		c-2.1,0.8-3.566,1.233-4.4,1.3c-2.267,0.133-5.233,0.367-8.899,0.7l-0.05-0.15c1.133,0.1,2.85-0.083,5.149-0.55
		c2.134-0.434,3.351-0.784,3.65-1.05l-9.2-0.15l0.2-0.55L120.6,42.6L118.1,44.1z M120.45,47.4l-3.601-0.1l0.45,0.9
		c-0.566-1.034-1.017-1.8-1.35-2.3l-0.351-0.45c1.067,0.566,1.9,1,2.5,1.3c0.167,0.067,0.317,0.133,0.45,0.2
		C119.217,47.217,119.85,47.367,120.45,47.4z M117.15,39.25V37.3h-1.9v1.95H117.15z M110.45,39.65c0.6,0.434,1.45,1.033,2.55,1.8
		c0.866,0.733,1.517,1.583,1.95,2.55c-0.2-0.4-0.851-1.1-1.95-2.1C112.066,41.033,111.217,40.283,110.45,39.65z M108.5,39.65
		l0.6,0.35l0.601,0.45L108.5,39.65z M142.9,46.7l-0.101-0.15l0.75,0.85L142.9,46.7z M89.6,17.65c-0.366,0.434-0.716,0.684-1.05,0.75
		c0.033,0.3,0.134,0.6,0.3,0.9c0.167,0.267,0.25,0.434,0.25,0.5c1.367,0,2.317-0.183,2.851-0.55
		C90.816,18.017,90.033,17.483,89.6,17.65z M86.9,25.2v-2.05h-4.25c0.666-0.2,1.1-0.383,1.3-0.55l-1-1.65
		c-1.434,0.3-2.467,0.667-3.101,1.1c-0.333,0.233-0.649,0.617-0.949,1.15l1.949,0.2c0.301,0,0.634-0.033,1-0.1v2.15H86.9v-0.2
		l0.649,0.35c0.467,0.066,1,0.05,1.601-0.05c0.566-0.066,0.933-0.167,1.1-0.3V23.6l-1.05,0.3c-0.634,0.1-1.217,0.35-1.75,0.75
		C87.184,24.917,87,25.1,86.9,25.2z M91.4,26.25c0.433,0.033,0.833,0.033,1.199,0L90.95,25.6c-0.066,0.2-0.184,0.333-0.351,0.4
		C90.6,26.1,90.866,26.183,91.4,26.25z M81.05,35.65c0-0.3-0.149-0.983-0.45-2.05c-2.433,0.833-3.767,1.417-4,1.75
		c0.134,0.267,0.117,0.517-0.05,0.75c0.3,0.133,0.45,0.25,0.45,0.35l0.95,0.15c0.733,0.1,1.3,0.15,1.7,0.15
		c0.533,0,0.966-0.167,1.3-0.5c0.1,0.867,0.399,1.333,0.899,1.4c0.233-0.066,0.4-0.316,0.5-0.75c-0.033-0.267-0.267-0.55-0.699-0.85
		L81.05,35.65z M110.65,85.05c0.399,0.066,0.966,0.101,1.699,0.101c0.733-0.034,1.334-0.117,1.801-0.25
		c-0.334,0.133-0.867,0.233-1.601,0.3c-0.733,0.033-1.366,0.017-1.899-0.05V85.05z M109.35,72.3l-0.6-3.1
		c-0.1-1.3-0.066-2.167,0.1-2.601l0.601-0.05h0.149c0.301,0.367,0.617,0.967,0.95,1.8c0.3,0.834,0.45,1.417,0.45,1.75
		C111,70.934,110.45,71.667,109.35,72.3z M90.8,52.65c-1.533,0.6-2.55,0.967-3.05,1.1c-0.634,0.167-1.866,0.25-3.7,0.25
		c-0.833,0-1.399-0.15-1.7-0.45c1.334-0.667,3.017-0.983,5.051-0.95C88.467,52.6,89.6,52.617,90.8,52.65z M121.95,77.25l0.1-0.7
		l-0.05,0.4L121.95,77.25z M57.2,3.6c-0.2-0.2-0.3-0.35-0.3-0.45c-0.566-0.033-1.066,0-1.5,0.1c-0.7,0.167-1.717,0.533-3.05,1.1
		l3.1,0.3c0.5,0,0.867-0.117,1.1-0.35C56.717,4.167,56.933,3.933,57.2,3.6z M48.35,8.7L46.7,8.05c-0.1,0-0.684,0.25-1.75,0.75
		c-1,0.434-1.65,0.717-1.95,0.85l1.5,0.2C45.933,9.75,47.217,9.367,48.35,8.7z M45,3.35c-0.5-0.267-0.983-0.4-1.45-0.4
		c-1.433,0.2-2.85,0.533-4.25,1C36.533,4.883,35.15,6,35.15,7.3c0,2.2,2.067,2.7,6.2,1.5c4.1-1.167,6.217-2.417,6.35-3.75
		C46.067,4.017,45.167,3.45,45,3.35z M62,31.85c0.333,0.6,0.533,0.95,0.6,1.05c0.233,0.3,0.5,0.45,0.8,0.45
		c0.867,0,1.417-0.2,1.65-0.6c0.233-0.433-0.783-1.367-3.05-2.8l-0.05-1c-0.9-0.233-1.684-0.35-2.35-0.35
		c-1.233,0-2.517,0.3-3.85,0.9c-1.667,0.733-2.5,1.667-2.5,2.8c0,0.534,0.15,1.067,0.45,1.6c0.533,0.934,1.383,1.4,2.55,1.4
		c1.1,0,2.25-0.316,3.45-0.95C61.033,33.617,61.8,32.783,62,31.85z M58.2,44.25c-1.534,0.467-2.3,1.033-2.3,1.7
		c0,0.667,0.767,1.233,2.3,1.7c1.5,0.467,3.316,0.7,5.45,0.7s3.967-0.233,5.5-0.7c1.5-0.467,2.25-1.033,2.25-1.7
		c0-0.667-0.75-1.233-2.25-1.7c-1.533-0.467-3.367-0.7-5.5-0.7S59.7,43.783,58.2,44.25z M32.6,25.3c-0.4,0.267-0.667,0.45-0.8,0.55
		c-0.267,0.233-0.4,0.55-0.4,0.95c0,0.667,0.483,0.767,1.45,0.3c2.1-0.167,3.65-0.583,4.65-1.25c0.667-0.5,1-1.033,1-1.6
		c0-0.433-0.05-0.783-0.15-1.05c-0.133-0.333-0.25-0.617-0.35-0.85h-1.1c0-1.3-0.566-2.617-1.7-3.95
		c-1.367-1.633-3.083-2.45-5.15-2.45c-1.8,0-3.1,0.2-3.9,0.6c-0.733,0.4-1.1,1-1.1,1.8c0,0.066,0.233,1.017,0.7,2.85
		c0.433,2.033,0.65,3.566,0.65,4.6C29.233,25.767,31.3,25.6,32.6,25.3z M12.35,60.35L7.7,49.3c0.7,1.267,1.583,3.2,2.65,5.8
		C11.283,57.366,11.95,59.116,12.35,60.35z M45.1,96.65l0.4,0.149l3.05,1.101l2.15,0.8c-2.934-0.967-5.383-1.851-7.35-2.65
		c-1.867-0.733-3.567-1.55-5.1-2.45C39.817,94.4,41.4,95.15,43,95.85L45.1,96.65z M48.6,94.2c0.133-2.167,0.467-4.934,1-8.3
		c0.566-3.134,0.867-4.917,0.9-5.351c0.133-0.5,0.45-1.283,0.95-2.35s0.8-1.75,0.9-2.05c0.533-0.767,1.633-2.117,3.3-4.051
		c2-2.366,3.533-3.983,4.6-4.85l-0.5,1.3c-0.333,0.967-0.5,1.65-0.5,2.05c0,0.267,0.1,2.517,0.3,6.75
		c-0.066,4.101-0.816,6.15-2.25,6.15c-1.566,0-3.3,1.217-5.2,3.65c-1.833,2.366-2.75,4.433-2.75,6.199c0,0.4,0.066,0.617,0.2,0.65
		c0.067,0,0.184-0.017,0.35-0.05c0.233-0.033-0.183,0.066-1.25,0.3L48.6,94.2z M34.9,51.35c0.967-2.2,2.5-3.117,4.6-2.75l0.1,0.15
		c-0.4,4.767-0.75,7.884-1.05,9.35c-0.433,1.9-1.167,2.851-2.2,2.851c-0.733,0-1.317-0.384-1.75-1.15
		c-0.434-0.767-0.65-1.85-0.65-3.25c0-0.366,0.017-0.733,0.05-1.1c0.067-1.367,0.317-2.6,0.75-3.7
		C34.783,51.617,34.833,51.483,34.9,51.35z M33.8,43l-0.25,0.1l-0.1-0.1H33.8z M19.6,44.5c-0.9-1-1.35-3.183-1.35-6.55
		c0-3.1,1.9-5.383,5.7-6.85v8.3c0.033,2-0.034,3.333-0.2,4c-0.333,1.133-1.067,1.7-2.2,1.7C20.617,45.1,19.967,44.9,19.6,44.5z
		 M40.95,54.6c0.867,0,1.35,0.15,1.45,0.45l-0.15,0.75c-0.467,0.566-1,0.816-1.6,0.75L40.95,54.6z M59.6,56.35
		c-2-0.233-4.8-0.483-8.4-0.75c3.533,0.067,6.383,0.317,8.55,0.75H59.6z M65.05,57.35l-0.2-0.1c1.566-0.1,2.9-0.267,4-0.5
		c1.267-0.3,2.583-0.517,3.95-0.65c-0.267,0.267-0.833,0.667-1.7,1.2c-0.8,0.467-1.267,0.7-1.4,0.7
		C69.233,58,67.683,57.783,65.05,57.35z M65.95,91.85c-0.7,0.9-1.75,3.834-3.15,8.801l-0.75,0.6c0.833-3,1.4-4.983,1.7-5.95
		C64.25,93.833,64.983,92.684,65.95,91.85z M64.25,62.6L64.1,64.15c-0.1,0.533-0.333,0.966-0.7,1.3c-0.333,0.2-0.533,0.316-0.6,0.35
		c-0.2-0.033-0.35-0.133-0.45-0.3l-0.1-0.25c0-0.267,0.333-0.783,1-1.55C63.583,63.3,63.917,62.934,64.25,62.6z"/>
	<path style="fill-rule:evenodd;clip-rule:evenodd;fill:#9B9286;" d="M128.2,47.4c3.666-0.333,6.633-0.566,8.899-0.7
		c0.834-0.067,2.301-0.5,4.4-1.3l1.3,1.15c-1.767,0.6-3.333,1.133-4.7,1.6c-2.633,0.833-4.8,1.367-6.5,1.6
		c-1.333,0.167-3.267,0.333-5.8,0.5c-2.066,0.1-3.483,0.15-4.25,0.15c-3.366,0-5.517-0.983-6.45-2.95
		c-1.466-3.2-3.267-5.534-5.399-7L109.1,40c-0.199-0.233-0.383-0.533-0.55-0.9l-0.05,0.55c-0.533-0.367-0.983-0.717-1.35-1.05
		l-0.25-1.1l1.199,0.25c0.434,0.433,1.217,1.067,2.351,1.9c0.767,0.633,1.616,1.383,2.55,2.25c1.1,1,1.75,1.7,1.95,2.1
		c0.2,0.833,0.416,1.317,0.649,1.45l0.351,0.45c0.333,0.5,0.783,1.267,1.35,2.3l-0.45-0.9l3.601,0.1h0.399l4.801,0.05
		c-0.467,0.267-1.051,0.65-1.75,1.15l0.449,0.5c0.167,0.1,0.301,0.183,0.4,0.25c0.1,0.066,0.35,0.1,0.75,0.1
		C126.533,49.45,127.434,48.767,128.2,47.4z M20.8,4.55l1.3-0.75c-0.267,0.167-0.55,0.434-0.85,0.8
		c-0.467,0.667-0.85,1.167-1.15,1.5L20.8,4.55z M18.65,23.9l4.95,4c0.3,1.2,0.767,2.25,1.4,3.15c-0.367,0-0.033,0.784,1,2.35
		c0.333,1.467,0.767,2.5,1.3,3.1c0.267,1.133,0.917,2.167,1.95,3.1c1.633,1.533,2.467,2.316,2.5,2.35
		c-0.833-0.367-1.9-1.233-3.2-2.6c-1.4-1.467-2.267-2.684-2.6-3.65l-0.35-0.85c0,0.767,0.5,4.7,1.5,11.8c0,1.7-0.367,2.917-1.1,3.65
		c-0.433,0.434-0.883,0.65-1.35,0.65c-0.933,0-2.1-0.95-3.5-2.85c-0.2-0.267-1.35-2.033-3.45-5.3l-0.35-1.3l0.2,5.25
		c0,2.633-0.283,4.467-0.85,5.5c-1.034,1.9-1.767,3.634-2.2,5.2l-0.5,0.2c-0.367-0.4-0.667-1.084-0.9-2.051
		c-0.2-0.966-0.9-2.083-2.1-3.35l2.7-3.3c-0.567-0.567-0.917-0.95-1.05-1.15c-0.467-0.633-0.7-1.316-0.7-2.05
		c0-0.7,0.316-2.083,0.95-4.15c1.133-3.633,1.85-6.033,2.15-7.2c-1.3,0.567-2.383,1.017-3.25,1.35c-1.6,0.633-2.667,0.967-3.2,1
		c-1.233-3,0.7-5.283,5.8-6.85c2.6-0.767,5.467-1.316,8.6-1.65c-0.2-0.3-0.817-0.9-1.85-1.8c-1.167-1.034-1.95-1.767-2.35-2.2
		L18.65,23.9z M39.5,48.6c-2.1-0.367-3.633,0.55-4.6,2.75c0.267-1.067,0.467-1.817,0.6-2.25c1.433-1.367,2.5-2.317,3.2-2.85
		c0.433-0.4,1.733-1.967,3.9-4.7h0.45c-0.066,0.434-0.716,1.417-1.95,2.95c-1.2,1.5-2.067,2.45-2.6,2.85l0.9,0.9L39.5,48.6z
		 M52.35,76.15c0.7-5.167,3.233-8.934,7.6-11.301c2.6-1.433,4.017-2.233,4.25-2.399c1.267-1,1.9-2.267,1.9-3.8
		c0-0.434-0.1-0.717-0.3-0.851c-0.267-0.133-0.517-0.283-0.75-0.45C67.683,57.783,69.233,58,69.7,58c0.133,0,0.6-0.233,1.4-0.7
		c0.867-0.533,1.433-0.934,1.7-1.2c0.9,0,1.617-0.199,2.15-0.6l2.35-0.65L77.4,55.6c-0.467,1.067-1.517,1.784-3.15,2.15
		c-1.633,0.134-2.517,0.217-2.65,0.25c0.167,0.3,1.467,1.35,3.9,3.15c2.333,2.199,3.5,4.6,3.5,7.199c0,1-0.816,1.917-2.45,2.75
		c-1.966,1.034-3.267,2.184-3.9,3.45c-0.333,0.634-0.617,2.851-0.85,6.65c-0.267,3.733-0.533,5.833-0.8,6.3
		c-0.533,0.934-1.867,1.333-4,1.2l-3.65-0.15c-0.867,0.934-1.45,3.033-1.75,6.3c-0.167,1.767-0.383,4.317-0.65,7.65l-0.35,0.65
		l-4.1-2.101l-0.1-0.1l-0.65-0.5c-1.367-0.867-2.717-1.884-4.05-3.05c-1.4-1.233-2.417-2.284-3.05-3.15
		c1.067-0.233,1.483-0.333,1.25-0.3C49.733,93.983,49.617,94,49.55,94c-0.133-0.033-0.2-0.25-0.2-0.65
		c0-1.767,0.917-3.833,2.75-6.199c1.9-2.434,3.633-3.65,5.2-3.65c1.434,0,2.184-2.05,2.25-6.15c-0.2-4.233-0.3-6.483-0.3-6.75
		c0-0.399,0.167-1.083,0.5-2.05l0.5-1.3c-1.067,0.866-2.6,2.483-4.6,4.85C53.983,74.033,52.883,75.384,52.35,76.15z M50.5,80.55
		c-0.033,0.434-0.333,2.217-0.9,5.351c-0.533,3.366-0.867,6.133-1,8.3c-0.167-0.467-0.317-1.851-0.45-4.15
		c-0.133-1.866-0.2-3.233-0.2-4.1C47.95,85.816,48.8,84.017,50.5,80.55z M45.1,96.65L43,95.85c0.367-4,0.1-6.716-0.8-8.149
		c-0.633-1-1.784-1.517-3.45-1.55C36.783,86.083,35.533,85.9,35,85.6c-1.167-0.733-1.75-2.483-1.75-5.25c0-0.566,0.25-1,0.75-1.3
		c0.867-0.566,2.6-0.866,5.2-0.899l0.15-3.4c0-0.667-0.067-2.6-0.2-5.8c-0.167-3.634-0.333-6.434-0.5-8.4l-0.3-0.75
		c-0.233,3.467-0.367,5.533-0.4,6.2c-0.034,1.833-0.6,3.45-1.7,4.85c-1.067,1.101-1.6,1.667-1.6,1.7c0,0.4-0.05,0.634-0.15,0.7
		c-0.133,0-0.267,0.033-0.4,0.1c-1.167-0.3-2.6-1.3-4.3-3c-2.6-2.533-3.9-5.533-3.9-9c0-1.866,0.483-3.35,1.45-4.449
		c0.867-0.967,2.283-1.801,4.25-2.5c0.066,0.633,0.117,1.367,0.15,2.2c0.1,0.634,0.417,1.351,0.95,2.15c0.466-0.4,0.9-1.5,1.3-3.3
		c-0.033,0.366-0.05,0.733-0.05,1.1c0,1.4,0.216,2.483,0.65,3.25c0.433,0.767,1.017,1.15,1.75,1.15c1.033,0,1.767-0.95,2.2-2.851
		c0.3-1.466,0.65-4.583,1.05-9.35c2.4,2.3,4.2,3.833,5.4,4.6c0.5,0.333,2.033,1.083,4.6,2.25l0.15,0.5L48.6,55.9
		c0,0.1,0.183,1.233,0.55,3.399c0.367,2.033,0.55,3.467,0.55,4.3c0,2.567-0.684,5.15-2.05,7.75c-1.367,2.601-2.05,4.467-2.05,5.601
		c0,0.333,0.15,1.633,0.45,3.899c0.267,2.233,0.4,3.517,0.4,3.851c0,1.533-0.517,4.149-1.55,7.85
		C44.9,93.55,44.967,94.917,45.1,96.65z M102.05,88.55c-0.066,3.033-1.116,4.55-3.149,4.55c-1,0-1.784-0.25-2.351-0.75
		c-0.399-0.366-0.75-0.966-1.05-1.8c0.1-0.833,0.95-2.5,2.55-5c1.667-2.633,3.066-4.399,4.2-5.3l0.1,4.1
		C102.35,86.017,102.25,87.417,102.05,88.55z M121.85,77.65L121.9,77.3l0.05-0.05l0.05-0.3c0.134-0.334,0.35-0.816,0.65-1.45
		c0.399-0.4,0.6-3,0.6-7.8c0,0.033,0.583,1.517,1.75,4.45c0.566,1.466,0.85,5.066,0.85,10.8c0,1.566-0.25,2.783-0.75,3.649
		c-0.466,0.801-1.083,1.184-1.85,1.15l-0.65-0.25c-0.233-0.8-0.416-1.684-0.55-2.65L121.85,77.65z M110.85,63.75
		c0.2-0.333,0.417-0.65,0.65-0.95c1.167-1.5,1.866-2.467,2.1-2.899c0.101,0.533,0.45,1.767,1.051,3.699
		c0.566,1.867,0.85,2.851,0.85,2.95l0.05,0.25c-0.333,3.101-0.934,5.884-1.8,8.351c-0.8,2.366-1.634,3.85-2.5,4.449
		c-0.467-0.366-0.9-1.649-1.3-3.85c-0.367-2.167-0.566-3.316-0.601-3.45c1.101-0.633,1.65-1.366,1.65-2.2
		c0-0.333-0.15-0.916-0.45-1.75c-0.333-0.833-0.649-1.433-0.95-1.8c0.034-0.1,0.067-0.217,0.101-0.35
		C109.967,65.333,110.35,64.517,110.85,63.75z M121.2,59.05c-0.2-0.2-0.3-0.416-0.3-0.649s0.1-0.434,0.3-0.601
		c0.166-0.2,0.366-0.3,0.6-0.3s0.45,0.1,0.65,0.3c0.166,0.167,0.25,0.367,0.25,0.601s-0.084,0.449-0.25,0.649
		c-0.2,0.167-0.417,0.25-0.65,0.25S121.366,59.217,121.2,59.05z M13.7,19.6c-0.333,0.633-0.633,1.816-0.9,3.55
		c-0.466,1.467-1.566,2.2-3.3,2.2c-0.067,0-0.583-0.434-1.55-1.3c-2.567,2.267-4.017,3.4-4.35,3.4c-0.4,0-0.617-0.017-0.65-0.05
		L3,27.3c-0.567-1.033-0.85-2.917-0.85-5.65c1.2-1.7,3.15-3.433,5.85-5.2c3.033-1.967,6.183-4.917,9.45-8.85
		c0.133,1.2-0.3,2.9-1.3,5.1c-1.267,2.7-2.017,4.583-2.25,5.65h-0.2V19.6z M33.55,43.1L33.8,43c0.667,0,1.883-0.117,3.65-0.35
		c0.133-0.033,0.283-0.066,0.45-0.1c-0.267,0.1-0.533,0.2-0.8,0.3c-0.9,0.367-1.85,0.816-2.85,1.35
		C34.117,43.833,33.883,43.467,33.55,43.1z M5.2,44.7l-0.35-0.4L5,44.45L5.2,44.7z M19.6,44.5c0.367,0.4,1.017,0.6,1.95,0.6
		c1.133,0,1.867-0.567,2.2-1.7c0.167-0.667,0.233-2,0.2-4v-8.3c-3.8,1.467-5.7,3.75-5.7,6.85C18.25,41.317,18.7,43.5,19.6,44.5z
		 M59.6,56.35c-3.033,0.2-5.783,0.184-8.25-0.05l-0.75-0.7h0.6C54.8,55.866,57.6,56.116,59.6,56.35z M40.95,54.6l-0.3,1.95
		c0.6,0.066,1.133-0.184,1.6-0.75l0.15-0.75C42.3,54.75,41.817,54.6,40.95,54.6z M64.25,62.6c-0.333,0.334-0.667,0.7-1,1.101
		c-0.667,0.767-1,1.283-1,1.55l0.1,0.25c0.1,0.167,0.25,0.267,0.45,0.3c0.067-0.033,0.267-0.149,0.6-0.35
		c0.367-0.334,0.6-0.767,0.7-1.3L64.25,62.6z"/>
	<path style="fill-rule:evenodd;clip-rule:evenodd;fill:#8C847C;" d="M128.15,47.25l0.05,0.15c-0.767,1.367-1.667,2.05-2.7,2.05
		c-0.4,0-0.65-0.034-0.75-0.1c-0.1-0.067-0.233-0.15-0.4-0.25l-0.449-0.5c0.699-0.5,1.283-0.883,1.75-1.15l0.35-0.2
		c1.033-0.567,1.684-1,1.95-1.3L128.15,47.25z M76.2,48.8c-0.467,0.267-1.383,0.45-2.75,0.55c-0.633-0.033-1.15-0.184-1.55-0.45
		c-0.267-0.167-0.583-0.483-0.95-0.95L71.7,47l0.4-0.4c0-0.033,0.017-0.05,0.05-0.05l0.8-0.7c0.4-0.2,0.7-0.467,0.9-0.8
		c0.833,0,1.55,0.3,2.15,0.9c0.6,0.6,0.9,1.316,0.9,2.15L76.2,48.8z M110.9,37.55c0.1-0.333,0.316-0.733,0.649-1.2
		c0.233-0.367,0.467-1.167,0.7-2.4l0.7,0.15l2,0.5c-0.134,0.933-0.584,1.7-1.351,2.3C112.8,37.533,111.9,37.75,110.9,37.55z
		 M86.9,25.2H86.85l0.051,0.05v0.2H81.85V23.3v-0.15h0.801h4.25V25.2z M91.4,26.25C90.866,26.183,90.6,26.1,90.6,26
		c0.167-0.067,0.284-0.2,0.351-0.4l1.649,0.65C92.233,26.283,91.833,26.283,91.4,26.25z M80.95,36.25l0.1-0.6l0.601,0.4
		c0.433,0.3,0.666,0.583,0.699,0.85c-0.1,0.434-0.267,0.684-0.5,0.75C81.35,37.583,81.05,37.117,80.95,36.25z M72.7,19.7l0.9-0.35
		l0.35-0.2v-1.2l1,0.1c0.633,0.434,1.2,0.983,1.7,1.65c-0.233,0.5-0.417,0.85-0.551,1.05c-0.166,0.267-0.55,0.4-1.149,0.4l-2.7-0.25
		c0-0.066-0.117-0.167-0.35-0.3L72.7,19.7z M48.35,8.7c-1.133,0.667-2.417,1.05-3.85,1.15L43,9.65c0.3-0.133,0.95-0.417,1.95-0.85
		c1.066-0.5,1.65-0.75,1.75-0.75L48.35,8.7z M62,29.95c2.267,1.433,3.283,2.367,3.05,2.8c-0.233,0.4-0.783,0.6-1.65,0.6
		c-0.3,0-0.566-0.15-0.8-0.45c-0.067-0.1-0.267-0.45-0.6-1.05l-0.05-1.9H62z M32.6,25.3c0.767-0.333,1.566-0.883,2.4-1.65
		c0.767-0.7,1.4-1.133,1.9-1.3H38c0.1,0.233,0.217,0.517,0.35,0.85c0.1,0.267,0.15,0.617,0.15,1.05c0,0.567-0.333,1.1-1,1.6
		c-1,0.667-2.55,1.083-4.65,1.25c-0.967,0.467-1.45,0.367-1.45-0.3c0-0.4,0.133-0.716,0.4-0.95C31.933,25.75,32.2,25.567,32.6,25.3z
		"/>
	<path style="fill-rule:evenodd;clip-rule:evenodd;fill:#C3B9AC;" d="M117.15,39.25h-1.9V37.3h1.9V39.25z M120.45,47.4
		c-0.601-0.033-1.233-0.183-1.9-0.45c-0.133-0.067-0.283-0.133-0.45-0.2c-0.399-0.4-0.6-0.85-0.6-1.35c0-0.4,0.05-0.667,0.15-0.8
		c0.066-0.1,0.216-0.267,0.449-0.5l2.5-1.5l7.351,2.35l-0.2,0.55c-0.6,0.733-0.983,1.133-1.15,1.2
		c-0.166,0.1-0.966,0.283-2.399,0.55l-3.351,0.15H120.45z M72.7,19.7c-5.034,0.7-7.6,1.05-7.7,1.05l-2.65-0.25
		c0-0.033-0.083-0.083-0.25-0.15c-0.167-0.1-0.25-0.35-0.25-0.75c0-0.867,0.566-1.533,1.7-2c1.934-0.8,5.733-1.35,11.4-1.65v2.1
		l-1-0.1v1.2l-0.35,0.2L72.7,19.7z M106.9,37.5l-0.95-0.4c-2.4-1.467-3.684-2.267-3.851-2.4c-1.267-0.967-1.899-1.983-1.899-3.05
		c0-0.333,0.184-0.75,0.55-1.25c0.533-0.767,1.267-1.15,2.2-1.15c2.366,0,4.533,0.567,6.5,1.7c1.533,0.9,2.7,1.95,3.5,3.15
		l-0.7-0.15c-0.233,1.233-0.467,2.033-0.7,2.4c-0.333,0.467-0.55,0.867-0.649,1.2l-0.45,0.1c-0.834,0.1-1.617,0.133-2.351,0.1
		L106.9,37.5z M83.65,3.05h0.399L87,4.2l0.5,0.7c-0.5,0.434-1,0.733-1.5,0.9c-0.767,0.267-1.8,0.4-3.1,0.4L81.3,6.15
		c-0.1,0-0.2-0.033-0.3-0.1c-0.233-0.133-0.35-0.4-0.35-0.8c0-1.1,0.767-1.683,2.3-1.75C84.05,3.433,84.283,3.283,83.65,3.05z
		 M44,40.3v-0.15c0.233-0.2,0.767-0.533,1.6-1c0.9-0.533,1.5-0.816,1.8-0.85l0.55-0.05c0.133,1.3-0.184,2.117-0.95,2.45
		c-0.433,0.167-1.45,0.233-3.05,0.2L44,40.3z M73.85,45.05c-0.2,0.333-0.5,0.6-0.9,0.8L72.4,46c-0.2-0.1-0.35-0.25-0.45-0.45
		c0-0.3,0.333-0.517,1-0.65C73.617,44.767,73.917,44.817,73.85,45.05z M89.6,17.65c0.434-0.167,1.217,0.367,2.351,1.6
		c-0.533,0.367-1.483,0.55-2.851,0.55c0-0.066-0.083-0.233-0.25-0.5c-0.166-0.3-0.267-0.6-0.3-0.9
		C88.884,18.333,89.233,18.083,89.6,17.65z M81.85,23.3c-0.366,0.067-0.699,0.1-1,0.1L78.9,23.2c0.3-0.534,0.616-0.917,0.949-1.15
		c0.634-0.433,1.667-0.8,3.101-1.1l1,1.65c-0.2,0.167-0.634,0.35-1.3,0.55H81.85V23.3z M86.9,25.25L86.85,25.2H86.9
		c0.1-0.1,0.283-0.284,0.55-0.55c0.533-0.4,1.116-0.65,1.75-0.75l1.05-0.3v1.65c-0.167,0.133-0.533,0.233-1.1,0.3
		c-0.601,0.1-1.134,0.117-1.601,0.05L86.9,25.25z M81.05,35.65l-0.1,0.6c-0.334,0.333-0.767,0.5-1.3,0.5c-0.4,0-0.967-0.05-1.7-0.15
		L77,36.45c0-0.1-0.15-0.217-0.45-0.35c0.167-0.233,0.184-0.483,0.05-0.75c0.233-0.333,1.567-0.917,4-1.75
		C80.9,34.667,81.05,35.35,81.05,35.65z M57.2,3.6c-0.267,0.333-0.483,0.566-0.65,0.7c-0.233,0.233-0.6,0.35-1.1,0.35l-3.1-0.3
		c1.333-0.567,2.35-0.934,3.05-1.1c0.434-0.1,0.934-0.133,1.5-0.1C56.9,3.25,57,3.4,57.2,3.6z M45,3.35
		c0.167,0.1,1.067,0.667,2.7,1.7c-0.133,1.333-2.25,2.583-6.35,3.75c-4.133,1.2-6.2,0.7-6.2-1.5c0-1.3,1.383-2.417,4.15-3.35
		c1.4-0.467,2.817-0.8,4.25-1C44.017,2.95,44.5,3.083,45,3.35z M62,29.95h-0.05l0.05,1.9c-0.2,0.933-0.967,1.767-2.3,2.5
		c-1.2,0.633-2.35,0.95-3.45,0.95c-1.167,0-2.017-0.466-2.55-1.4c-0.3-0.533-0.45-1.066-0.45-1.6c0-1.133,0.833-2.066,2.5-2.8
		c1.333-0.6,2.617-0.9,3.85-0.9c0.667,0,1.45,0.117,2.35,0.35L62,29.95z M58.2,44.25c1.5-0.467,3.316-0.7,5.45-0.7
		s3.967,0.233,5.5,0.7c1.5,0.467,2.25,1.033,2.25,1.7c0,0.667-0.75,1.233-2.25,1.7c-1.533,0.467-3.367,0.7-5.5,0.7
		s-3.95-0.233-5.45-0.7c-1.534-0.467-2.3-1.033-2.3-1.7C55.9,45.283,56.667,44.717,58.2,44.25z M36.9,22.35
		c-0.5,0.167-1.133,0.6-1.9,1.3c-0.833,0.767-1.633,1.317-2.4,1.65c-1.3,0.3-3.367,0.467-6.2,0.5c0-1.033-0.217-2.566-0.65-4.6
		c-0.467-1.833-0.7-2.784-0.7-2.85c0-0.8,0.367-1.4,1.1-1.8c0.8-0.4,2.1-0.6,3.9-0.6c2.067,0,3.784,0.816,5.15,2.45
		C36.333,19.733,36.9,21.05,36.9,22.35z"/>
	<path style="fill-rule:evenodd;clip-rule:evenodd;fill:#7C7367;" d="M109.7,40.45c1.233,2.233,2.416,4.15,3.55,5.75
		c0.5,0.867,0.75,2.316,0.75,4.35c0,0.633-0.1,1.133-0.3,1.5c-0.3,0.534-0.884,0.917-1.75,1.15c-0.101,0.133-0.184,1.934-0.25,5.399
		c-0.134,2.034-0.417,3.75-0.851,5.15c-0.5,0.767-0.883,1.583-1.149,2.45c-0.066,0.133-0.15,0.25-0.25,0.35l-0.601,0.05
		c-0.166,0.434-0.199,1.301-0.1,2.601l-0.2,2.05c0,0.566,0.134,1.366,0.4,2.4c0.434,1.8,0.967,5.333,1.6,10.6l-0.899,0.45l1,0.35
		v0.101c0.533,0.066,1.166,0.083,1.899,0.05c0.733-0.066,1.267-0.167,1.601-0.3c2.1,0,3.883-0.617,5.35-1.851
		c1.467-1.267,2.2-2.783,2.2-4.55l0.149-0.85l0.2,7.199L120.6,93.4l0.301,0.449c0.033,0,0.05,0.034,0.05,0.101h0.6
		c0.134,0,0.601-0.283,1.4-0.851c1.066-0.767,2.05-1.683,2.95-2.75c0.066-0.066,0.133-0.133,0.199-0.199
		c-0.933,1.666-1.416,2.517-1.449,2.55l-0.2,0.45c2.833-0.267,4.684-0.233,5.55,0.1s1.3,1.15,1.3,2.45c0,1.434-1.7,2.6-5.1,3.5
		c-2.601,0.7-5.017,1.05-7.25,1.05c-1.134,0-2.367-1.316-3.7-3.95c-1.134-2.733-1.75-4.2-1.85-4.399l-0.15-0.25l-0.5,4.55
		l-0.6-1.101l0.449,2.351c0,1.366-0.3,2.55-0.899,3.55c-0.467,0.733-1,1.2-1.601,1.4c-0.199,0.033-0.399,0.05-0.6,0.05l-4.5,0.6
		c0.667-0.866,1.434-2.684,2.3-5.45c1-3.1,1.566-5.866,1.7-8.3l-0.15-1c-2.166,3.733-4.383,6.733-6.649,9
		c-0.634,0.667-1.617,1.316-2.95,1.95c-0.733,0.4-1.1,1-1.1,1.8c0,0.634,0.149,1.617,0.449,2.95c-0.699-0.634-1.283-1.316-1.75-2.05
		c-0.366-0.566-0.55-0.934-0.55-1.101c0-0.699,1.101-1.883,3.3-3.55c2.2-1.666,3.301-3.517,3.301-5.55
		c0-0.767-0.284-1.833-0.851-3.2c0.2-1.133,0.3-2.533,0.3-4.2l-0.1-4.1c-1.134,0.9-2.533,2.667-4.2,5.3c-1.6,2.5-2.45,4.167-2.55,5
		c-1.4,3.767-2.2,6.066-2.4,6.9c-0.166,0.733-0.25,2.066-0.25,4L93,105l-3.5,0.7c-0.6-3.7-1.083-7.15-1.45-10.351L87.7,94.4
		c-0.167,0.399-0.8,2.316-1.9,5.75c-0.767,2.3-1.45,3.816-2.05,4.55c-1.033,1.233-2.55,2.2-4.55,2.899c-2,0.567-3.233,1-3.7,1.301
		l-4.9-1.101c6.833-1.3,11.15-2.666,12.95-4.1c1.533-1.167,2.3-3.384,2.3-6.65c0-1.967-0.716-2.95-2.149-2.95
		c-1.167,0.101-1.967,0.184-2.4,0.25c-0.666,0.067-1.149-0.083-1.45-0.449c-0.6-0.733-0.899-3.884-0.899-9.45
		c0-1.667,0.25-3.283,0.75-4.851c0.399-1.333,0.8-2.149,1.2-2.449L81,78.05c0.066,1.733,0.283,3.434,0.65,5.101
		c0.533,2.366,1.25,3.866,2.149,4.5c1.5-1.134,2.601-3.5,3.3-7.101c0.434-3.566,0.684-5.55,0.75-5.95
		c0.301-1.366,1.467-3.149,3.5-5.35c2.167-2.366,3.334-3.767,3.5-4.2c-0.066,0.467-0.55,1.834-1.449,4.101
		c-0.834,2.166-1.351,3.399-1.551,3.699c1.467-1.866,2.834-4.149,4.101-6.85c1.233-2.866,2.149-4.884,2.75-6.05
		c2-3.9,4.833-5.567,8.5-5c0.1,1.233,0.133,4.116,0.1,8.649c1-2,1.983-6.5,2.95-13.5c0-1.467-0.184-2.867-0.55-4.2
		c-0.167-0.467-1.017-2.9-2.55-7.3c0.366,0.333,0.816,0.683,1.35,1.05L109.7,40.45z M142.9,46.7c-3.5,1.267-6.217,2.2-8.15,2.8
		l-0.8,0.1c3.566,0.1,5.899,1.867,7,5.3c0.1,0.267,0.533,3.267,1.3,9c0.333,2.3,0.816,4.466,1.45,6.5
		c0.399,1.233,0.6,3.283,0.6,6.149c0,0.267-0.133,1.434-0.399,3.5c-0.301,2.467-0.601,4.367-0.9,5.7l-0.4,1.35
		c0.101-0.8-0.017-2.3-0.35-4.5c-0.267-2.033-0.533-3.449-0.8-4.25l-0.55-1.199c-0.233,0.966-0.334,2.316-0.301,4.05
		c0,0.899,0.034,1.916,0.101,3.05c0,1.3-0.75,2.417-2.25,3.35c-1.533,0.934-3.934,1.75-7.2,2.45l-0.95,0.25
		c0.267-0.533,0.667-2.333,1.2-5.399c0.5-2.767,0.767-4.45,0.8-5.051V78.6c-1.133,2.101-2.133,3.967-3,5.601
		c0.533-1.767,0.8-3.667,0.8-5.7c-0.633-7.566-0.949-11.684-0.949-12.35c0-0.4,0.1-3.034,0.3-7.9c0.066-1.9-0.117-3.15-0.55-3.75
		c-0.534-0.7-1.75-1.2-3.65-1.5c-0.134-0.033-3.1-0.383-8.9-1.05l0.4-0.2c0.1-0.033,0.4-0.15,0.9-0.35
		c0.366-0.133,0.55-0.233,0.55-0.3c3.666-0.133,6.316-0.283,7.95-0.45c1.833-0.167,3.649-0.467,5.449-0.9
		c1.7-0.233,3.867-0.767,6.5-1.6c1.367-0.467,2.934-1,4.7-1.6L142.9,46.7z M42.6,41.55c-2.167,2.733-3.467,4.3-3.9,4.7
		c-0.7,0.533-1.767,1.483-3.2,2.85l-0.15,0.15c1.033-1.667,1.767-2.783,2.2-3.35c1.1-1.5,2.45-2.933,4.05-4.3l-6.35,4
		c-0.067,0.167-0.367,0.883-0.9,2.15c-0.467,1.067-0.733,1.75-0.8,2.05c0-2.4,0.883-4.45,2.65-6.15c0.267-0.3,0.566-0.566,0.9-0.8
		c0.267-0.1,0.533-0.2,0.8-0.3c1.067-0.133,1.717-0.316,1.95-0.55l-0.4-0.05l2.05-0.8c0.3-0.033,0.633-0.05,1-0.05L42.6,41.55z
		 M115.5,66.55c1.733,0.066,3.15-0.45,4.25-1.55c1.767-1.733,3.717-3.1,5.85-4.1c-0.399,3.5-1.583,5.85-3.55,7.05l-0.1-4.351
		c-1.233,1.667-2,3.101-2.3,4.301c-0.301-0.034-1.034-0.217-2.2-0.551c-1.2-0.3-1.834-0.483-1.9-0.55L115.5,66.55z M94.75,60.9
		c-0.3-0.101-1.7-0.45-4.2-1.051c-2.267-0.566-3.616-0.949-4.05-1.149c-1.667-0.767-3.866-2.316-6.6-4.65
		c-2.467-2.2-3.767-3.35-3.9-3.45c4.533,2.233,7.1,3.65,7.7,4.25c0.166,0.167,0.583,0.083,1.25-0.25c1.767,0,4.7-0.5,8.8-1.5
		c4.066-1,7-1.5,8.8-1.5c-1.833,1.566-3.8,2.417-5.899,2.55c-3.834,0.267-6.367,0.55-7.601,0.85l-1.55,0.2
		c1.2,0.133,3.467,0.166,6.8,0.1C94.533,55.8,94.684,57.667,94.75,60.9z M91.25,76.6c-1.967,4.9-3.333,8.134-4.1,9.7
		c-1.2,2.5-2.934,3.7-5.2,3.601h-0.8c0.399,0.566,0.866,1.033,1.399,1.399c0.4,0.267,0.667,0.4,0.8,0.4c1.834,0,3.634-1.134,5.4-3.4
		c1.434-1.8,2.267-3.333,2.5-4.6V76.6z M122,76.95l0.05-0.4l0.101-1.45l0.449-0.85l0.051,1.25
		C122.35,76.134,122.134,76.616,122,76.95z M13.9,18.35c0.434,0,0.8,0.117,1.1,0.35c0.3,0.2,0.45,0.45,0.45,0.75
		c0.2,0.867,0.45,1.716,0.75,2.55c0,0.633-0.25,1.633-0.75,3c-0.434,1.267-0.85,2.233-1.25,2.9c-5.9,3.067-9.284,4.8-10.15,5.2
		l0.55-0.6c6.1-4.7,9.15-8.533,9.15-11.5l-0.05-1.4v-1.25H13.9z M18.95,24.8c0,0.667-0.3,1.25-0.9,1.75
		c-0.633,0.467-1.383,0.7-2.25,0.7c0.3-0.2,0.85-0.533,1.65-1C18.15,25.783,18.65,25.3,18.95,24.8z M4.85,44.3l-2.1-2.2
		c0.933,0.033,3.467-0.934,7.6-2.9c-0.267,1.833-0.717,3.45-1.35,4.85c-0.133,0.2-0.85,1.434-2.15,3.7l-0.1-0.25
		c1.033-2.067,1.65-3.433,1.85-4.1c-0.5,0.067-1.167,0.25-2,0.55c-0.833,0.333-1.367,0.5-1.6,0.5L4.85,44.3z M20.8,75.75
		c-0.1-0.167-2.466-4.167-7.1-12c0.033-0.033,0.083-0.05,0.15-0.05c1-0.434,2.383-0.884,4.15-1.351
		c1.133-0.333,1.867-0.683,2.2-1.05c0.533-0.633,0.783-3.6,0.75-8.9c0.033,0.133,0.333,1.6,0.9,4.4c0.133,0.667,0.2,3.75,0.2,9.25
		c0,1.101-0.233,2.367-0.7,3.8c-0.267,0.733-0.517,1.4-0.75,2c0,0.634,0.066,1.834,0.2,3.601C20.8,75.55,20.8,75.65,20.8,75.75z
		 M28.85,85.65L26,82.45c0-2,0.117-3.367,0.35-4.101c0.467-0.866,0.9-1.75,1.3-2.649c0.133,0.866,0.367,2.616,0.7,5.25
		C28.717,83.85,28.883,85.417,28.85,85.65z M38.25,93.6c-0.833-0.466-1.633-0.966-2.4-1.5l0.8-4.6c0.033,0.033,0.233,0.3,0.6,0.8
		c0.167,0.267,0.3,0.4,0.4,0.4C37.75,89.8,37.95,91.434,38.25,93.6z M1.6,24.3l-0.3,1.3l-0.05,0.05c0-0.2,0.017-0.417,0.05-0.65
		C1.367,24.567,1.467,24.333,1.6,24.3z M49.75,56.1l-0.15-0.5h1l0.75,0.7c1.3,1.066,2.2,2.834,2.7,5.3
		c0.3,1.367,0.45,2.733,0.45,4.101c0,1.666-0.517,3.35-1.55,5.05c-2.2,3.634-3.867,6.65-5,9.05c-0.133-1.467-0.2-2.533-0.2-3.2
		c0-2.933,0.617-5.216,1.85-6.85c1.2-1.6,1.8-2.95,1.8-4.05C51.4,62.434,50.85,59.233,49.75,56.1z M60.6,103.15l0.35-0.65l1.1-1.25
		c-0.167,0.5-0.466,1.233-0.9,2.2L60.6,103.15z M62.8,100.65c1.4-4.967,2.45-7.9,3.15-8.801l0.3-0.05l0.1,2.101
		c0,1.566-0.217,2.75-0.65,3.55C65.3,98.217,64.333,99.283,62.8,100.65z M48.55,97.9L45.5,96.8c0.167-0.666,0.183-2.133,0.05-4.399
		l0.65,0.8C46.9,94.366,47.683,95.934,48.55,97.9z"/>
	<path style="fill-rule:evenodd;clip-rule:evenodd;fill:#635B52;" d="M94.85,65.05c0.101-1.166,0.067-2.55-0.1-4.149
		c-0.066-3.233-0.217-5.101-0.45-5.601c-3.333,0.066-5.6,0.033-6.8-0.1l1.55-0.2c1.233-0.3,3.767-0.583,7.601-0.85
		c2.1-0.133,4.066-0.983,5.899-2.55l0.65-0.75c0.934-1.2,1.7-2.833,2.3-4.9c0.8-2.833,0.95-5.784,0.45-8.85l0.95,0.4l0.25,1.1
		c1.533,4.4,2.383,6.833,2.55,7.3c0.366,1.333,0.55,2.733,0.55,4.2c-0.967,7-1.95,11.5-2.95,13.5c0.033-4.533,0-7.416-0.1-8.649
		c-3.667-0.567-6.5,1.1-8.5,5c-0.601,1.166-1.517,3.184-2.75,6.05c-1.267,2.7-2.634,4.983-4.101,6.85
		c0.2-0.3,0.717-1.533,1.551-3.699C94.3,66.884,94.783,65.517,94.85,65.05z M129.3,84.2c0.867-1.634,1.867-3.5,3-5.601v1.25
		c-0.033,0.601-0.3,2.284-0.8,5.051c-0.533,3.066-0.934,4.866-1.2,5.399l0.95-0.25c3.267-0.7,5.667-1.517,7.2-2.45
		c1.5-0.933,2.25-2.05,2.25-3.35c-0.066-1.134-0.101-2.15-0.101-3.05c-0.033-1.733,0.067-3.084,0.301-4.05l0.55,1.199
		c0.267,0.801,0.533,2.217,0.8,4.25c0.333,2.2,0.45,3.7,0.35,4.5l0.4-1.35c0.3-1.333,0.6-3.233,0.9-5.7
		c0.267-2.066,0.399-3.233,0.399-3.5c0-2.866-0.2-4.916-0.6-6.149c-0.634-2.034-1.117-4.2-1.45-6.5c-0.767-5.733-1.2-8.733-1.3-9
		c-1.101-3.433-3.434-5.2-7-5.3l0.8-0.1c1.934-0.6,4.65-1.533,8.15-2.8l0.649,0.7c1.601,1.733,3.084,3.75,4.45,6.05
		c1.5,2.566,2.25,4.517,2.25,5.85c0,0.667-0.267,4.9-0.8,12.7c0,0.667,0.333,4.167,1,10.5c0,1.533-1.351,3.8-4.05,6.8
		c-2.567,2.834-5.384,5.3-8.45,7.4c-1.7,1.3-2.733,2.1-3.101,2.399c-0.5,0.367-1.233,0.601-2.199,0.7
		c-4.967,0.334-12.483,1.2-22.551,2.601c0.601-0.2,1.134-0.667,1.601-1.4c0.6-1,0.899-2.184,0.899-3.55l0.15-1.25l0.5-4.55
		l0.15,0.25c0.1,0.199,0.716,1.666,1.85,4.399c1.333,2.634,2.566,3.95,3.7,3.95c2.233,0,4.649-0.35,7.25-1.05
		c3.399-0.9,5.1-2.066,5.1-3.5c0-1.3-0.434-2.117-1.3-2.45s-2.717-0.366-5.55-0.1l0.2-0.45c0.033-0.033,0.517-0.884,1.449-2.55
		C126.833,88.75,127.9,86.767,129.3,84.2z M110.55,84.25c0.033-0.033,1.283-1,3.75-2.9c1.5-1.133,2.65-2.166,3.45-3.1
		c2.2-2.7,2.833-6.15,1.9-10.35c0.3-1.2,1.066-2.634,2.3-4.301l0.1,4.351c0.2,2.833,0.233,5.217,0.101,7.149l-0.101,1.45l-0.1,0.7
		l-0.05,0.05l-0.051,0.351L121.7,78.5c0,1.767-0.733,3.283-2.2,4.55c-1.467,1.233-3.25,1.851-5.35,1.851
		c-0.467,0.133-1.067,0.216-1.801,0.25c-0.733,0-1.3-0.034-1.699-0.101l-1-0.35L110.55,84.25z M89.5,105.7
		c-2.167,0.434-4.6,1.35-7.3,2.75c-1.533,0.767-3.767,0.916-6.7,0.45c0.467-0.301,1.7-0.733,3.7-1.301
		c2-0.699,3.517-1.666,4.55-2.899c0.6-0.733,1.283-2.25,2.05-4.55c1.101-3.434,1.733-5.351,1.9-5.75l0.35,0.949
		C88.417,98.55,88.9,102,89.5,105.7z M105,103.05l-6.4,1V104c-0.3-1.333-0.449-2.316-0.449-2.95c0-0.8,0.366-1.399,1.1-1.8
		c1.333-0.634,2.316-1.283,2.95-1.95c2.267-2.267,4.483-5.267,6.649-9l0.15,1c-0.134,2.434-0.7,5.2-1.7,8.3
		C106.434,100.366,105.667,102.184,105,103.05z M91.25,76.6V83.7c-0.233,1.267-1.066,2.8-2.5,4.6c-1.767,2.267-3.566,3.4-5.4,3.4
		c-0.133,0-0.399-0.134-0.8-0.4c-0.533-0.366-1-0.833-1.399-1.399h0.8c2.267,0.1,4-1.101,5.2-3.601
		C87.917,84.733,89.283,81.5,91.25,76.6z M18.65,23.9l0.15,0.35l0.15,0.55c-0.3,0.5-0.8,0.983-1.5,1.45c-0.8,0.467-1.35,0.8-1.65,1
		c-0.433,0.3-0.9,0.583-1.4,0.85l-0.6,0.25l0.4-0.45c0.4-0.667,0.816-1.633,1.25-2.9c0.5-1.367,0.75-2.367,0.75-3l0.15-1.5
		c0.1,0.2,0.5,0.733,1.2,1.6C18.117,22.833,18.483,23.433,18.65,23.9z M33.55,49.8c0.067-0.3,0.333-0.983,0.8-2.05
		c0.533-1.267,0.833-1.983,0.9-2.15l6.35-4c-1.6,1.367-2.95,2.8-4.05,4.3c-0.433,0.567-1.167,1.684-2.2,3.35
		c-0.133,0.633-0.35,1.333-0.65,2.1c-0.4,0.933-0.75,1.45-1.05,1.55L33.55,49.8z M5.2,44.7L5,44.45c0.233,0,0.767-0.167,1.6-0.5
		c0.833-0.3,1.5-0.483,2-0.55c-0.2,0.667-0.817,2.033-1.85,4.1C6.25,46.3,5.733,45.367,5.2,44.7z"/>
	<path style="fill-rule:evenodd;clip-rule:evenodd;fill:#898074;" d="M109.1,40l-0.6-0.35l0.05-0.55
		C108.717,39.467,108.9,39.767,109.1,40z M122.05,67.95c1.967-1.2,3.15-3.55,3.55-7.05c-2.133,1-4.083,2.366-5.85,4.1
		c-1.1,1.1-2.517,1.616-4.25,1.55c0-0.1-0.283-1.083-0.85-2.95c-0.601-1.933-0.95-3.166-1.051-3.699
		c-0.233,0.433-0.933,1.399-2.1,2.899c-0.233,0.3-0.45,0.617-0.65,0.95c0.434-1.4,0.717-3.116,0.851-5.15
		c0.066-3.466,0.149-5.266,0.25-5.399c0.866-0.233,1.45-0.617,1.75-1.15c0.2-0.367,0.3-0.867,0.3-1.5c0-2.033-0.25-3.483-0.75-4.35
		c-1.134-1.6-2.316-3.517-3.55-5.75c2.133,1.466,3.934,3.8,5.399,7c0.934,1.966,3.084,2.95,6.45,2.95c0.767,0,2.184-0.05,4.25-0.15
		c2.533-0.167,4.467-0.333,5.8-0.5c-1.8,0.433-3.616,0.733-5.449,0.9c-1.634,0.167-4.284,0.317-7.95,0.45
		c0,0.066-0.184,0.167-0.55,0.3c-0.5,0.2-0.801,0.317-0.9,0.35l-0.4,0.2c5.801,0.667,8.767,1.017,8.9,1.05
		c1.9,0.3,3.116,0.8,3.65,1.5c0.433,0.6,0.616,1.85,0.55,3.75c-0.2,4.866-0.3,7.5-0.3,7.9c0,0.666,0.316,4.783,0.949,12.35
		c0,2.033-0.267,3.934-0.8,5.7c-1.399,2.566-2.467,4.55-3.2,5.95c-0.066,0.066-0.133,0.133-0.199,0.199
		c-0.9,1.067-1.884,1.983-2.95,2.75c-0.8,0.567-1.267,0.851-1.4,0.851h-0.6c0-0.066-0.017-0.101-0.05-0.101L120.6,93.4l1.45-8.551
		c0.134,0.967,0.316,1.851,0.55,2.65l0.65,0.25c0.767,0.033,1.384-0.35,1.85-1.15c0.5-0.866,0.75-2.083,0.75-3.649
		c0-5.733-0.283-9.334-0.85-10.8c-1.167-2.934-1.75-4.417-1.75-4.45c0,4.8-0.2,7.399-0.6,7.8l-0.051-1.25l-0.449,0.85
		C122.283,73.167,122.25,70.783,122.05,67.95z M42.5,41.1c-0.367,0-0.7,0.017-1,0.05l2.5-1v0.15L42.5,41.1z M70.6,107.8l-4.9-2.1
		c-1.133-0.5-2.65-1.25-4.55-2.25c0.434-0.967,0.733-1.7,0.9-2.2l0.75-0.6c1.534-1.367,2.5-2.434,2.9-3.2
		c0.433-0.8,0.65-1.983,0.65-3.55l-0.1-2.101l-0.3,0.05c-0.967,0.834-1.7,1.983-2.2,3.45c-0.3,0.967-0.867,2.95-1.7,5.95l-1.1,1.25
		c0.267-3.333,0.483-5.884,0.65-7.65c0.3-3.267,0.883-5.366,1.75-6.3L67,88.7c2.133,0.133,3.467-0.267,4-1.2
		c0.267-0.467,0.533-2.566,0.8-6.3c0.233-3.8,0.517-6.017,0.85-6.65c0.633-1.267,1.934-2.416,3.9-3.45
		c1.634-0.833,2.45-1.75,2.45-2.75c0-2.6-1.167-5-3.5-7.199C73.067,59.35,71.767,58.3,71.6,58c0.133-0.033,1.017-0.116,2.65-0.25
		c1.634-0.366,2.684-1.083,3.15-2.15L77.3,54.85c-1.866-3.167-3.15-5-3.85-5.5c1.367-0.1,2.283-0.283,2.75-0.55
		c0.733,1.367,2.783,2.95,6.149,4.75c0.301,0.3,0.867,0.45,1.7,0.45c1.834,0,3.066-0.083,3.7-0.25c0.5-0.133,1.517-0.5,3.05-1.1
		c0.9-0.033,2-0.133,3.3-0.3c1.301-0.167,2.284-0.35,2.95-0.55c2.167-0.1,4.217-0.417,6.15-0.95l-0.65,0.75
		c-1.8,0-4.733,0.5-8.8,1.5c-4.1,1-7.033,1.5-8.8,1.5c-0.667,0.333-1.084,0.417-1.25,0.25c-0.601-0.6-3.167-2.017-7.7-4.25
		c0.134,0.1,1.434,1.25,3.9,3.45c2.733,2.334,4.933,3.884,6.6,4.65c0.434,0.2,1.783,0.583,4.05,1.149c2.5,0.601,3.9,0.95,4.2,1.051
		c0.167,1.6,0.2,2.983,0.1,4.149c-0.166,0.434-1.333,1.834-3.5,4.2c-2.033,2.2-3.199,3.983-3.5,5.35
		c-0.066,0.4-0.316,2.384-0.75,5.95c-0.699,3.601-1.8,5.967-3.3,7.101c-0.899-0.634-1.616-2.134-2.149-4.5
		c-0.367-1.667-0.584-3.367-0.65-5.101l-0.1-0.899c-0.4,0.3-0.801,1.116-1.2,2.449c-0.5,1.567-0.75,3.184-0.75,4.851
		c0,5.566,0.3,8.717,0.899,9.45c0.301,0.366,0.784,0.517,1.45,0.449c0.434-0.066,1.233-0.149,2.4-0.25
		c1.434,0,2.149,0.983,2.149,2.95c0,3.267-0.767,5.483-2.3,6.65C81.75,105.134,77.434,106.5,70.6,107.8z M72.1,46.6L71.7,47
		l-0.25-0.75C71.617,46.717,71.833,46.833,72.1,46.6z M98.6,104v0.05L93,105l-0.15-3.55c0-1.934,0.084-3.267,0.25-4
		c0.2-0.834,1-3.134,2.4-6.9c0.3,0.834,0.65,1.434,1.05,1.8c0.566,0.5,1.351,0.75,2.351,0.75c2.033,0,3.083-1.517,3.149-4.55
		c0.566,1.367,0.851,2.434,0.851,3.2c0,2.033-1.101,3.884-3.301,5.55c-2.199,1.667-3.3,2.851-3.3,3.55
		c0,0.167,0.184,0.534,0.55,1.101C97.316,102.684,97.9,103.366,98.6,104z M110.55,84.25c-0.633-5.267-1.166-8.8-1.6-10.6
		c-0.267-1.034-0.4-1.834-0.4-2.4l0.2-2.05l0.6,3.1c0.034,0.134,0.233,1.283,0.601,3.45c0.399,2.2,0.833,3.483,1.3,3.85
		c0.866-0.6,1.7-2.083,2.5-4.449c0.866-2.467,1.467-5.25,1.8-8.351c0.066,0.066,0.7,0.25,1.9,0.55
		c1.166,0.334,1.899,0.517,2.2,0.551c0.933,4.199,0.3,7.649-1.9,10.35c-0.8,0.934-1.95,1.967-3.45,3.1
		C111.833,83.25,110.583,84.217,110.55,84.25z M112.75,96.2l-0.15,1.25L112.15,95.1L112.75,96.2z M109.7,66.2
		c-0.033,0.133-0.066,0.25-0.101,0.35h-0.149C109.55,66.45,109.634,66.333,109.7,66.2z M121.2,59.05
		c0.166,0.167,0.366,0.25,0.6,0.25s0.45-0.083,0.65-0.25c0.166-0.2,0.25-0.416,0.25-0.649s-0.084-0.434-0.25-0.601
		c-0.2-0.2-0.417-0.3-0.65-0.3s-0.434,0.1-0.6,0.3c-0.2,0.167-0.3,0.367-0.3,0.601S121,58.85,121.2,59.05z M1.25,25.65L1.3,25.6
		l0.3-1.3l0.55-2.65c0,2.733,0.283,4.617,0.85,5.65l-0.05,0.1c0.033,0.033,0.25,0.05,0.65,0.05c0.333,0,1.783-1.133,4.35-3.4
		c0.966,0.867,1.483,1.3,1.55,1.3c1.733,0,2.833-0.733,3.3-2.2c0.267-1.733,0.567-2.917,0.9-3.55l0.05,1.4
		c0,2.967-3.05,6.8-9.15,11.5l-0.55,0.6c0.867-0.4,4.25-2.133,10.15-5.2l-0.4,0.45l0.6-0.25c0.5-0.267,0.967-0.55,1.4-0.85
		c0.867,0,1.617-0.233,2.25-0.7c0.6-0.5,0.9-1.083,0.9-1.75l-0.15-0.55c0.4,0.433,1.184,1.167,2.35,2.2c1.033,0.9,1.65,1.5,1.85,1.8
		c-3.133,0.333-6,0.883-8.6,1.65c-5.1,1.567-7.033,3.85-5.8,6.85c0.533-0.033,1.6-0.367,3.2-1c0.867-0.333,1.95-0.783,3.25-1.35
		c-0.3,1.167-1.017,3.567-2.15,7.2c-0.633,2.066-0.95,3.45-0.95,4.15c0,0.733,0.233,1.417,0.7,2.05c0.133,0.2,0.483,0.583,1.05,1.15
		l-2.7,3.3c1.2,1.267,1.9,2.383,2.1,3.35c0.233,0.967,0.533,1.65,0.9,2.051l0.5-0.2c0.433-1.566,1.167-3.3,2.2-5.2
		c0.566-1.033,0.85-2.867,0.85-5.5l-0.2-5.25l0.35,1.3c2.1,3.267,3.25,5.034,3.45,5.3c1.4,1.9,2.567,2.85,3.5,2.85
		c0.467,0,0.917-0.217,1.35-0.65c0.733-0.733,1.1-1.95,1.1-3.65c-1-7.1-1.5-11.033-1.5-11.8l0.35,0.85
		c0.333,0.966,1.2,2.183,2.6,3.65c1.3,1.367,2.367,2.233,3.2,2.6l1.7,1.05l0.1,0.1c0.333,0.367,0.567,0.733,0.7,1.1
		c1-0.534,1.95-0.983,2.85-1.35c-0.333,0.233-0.633,0.5-0.9,0.8c-1.767,1.7-2.65,3.75-2.65,6.15l0.1,3.1
		c0.3-0.1,0.65-0.617,1.05-1.55c0.3-0.767,0.517-1.467,0.65-2.1l0.15-0.15c-0.133,0.433-0.333,1.183-0.6,2.25
		c-0.066,0.133-0.117,0.267-0.15,0.4c-0.433,1.1-0.683,2.333-0.75,3.7c-0.4,1.8-0.833,2.899-1.3,3.3
		c-0.534-0.8-0.85-1.517-0.95-2.15c-0.033-0.833-0.083-1.566-0.15-2.2c-1.967,0.7-3.383,1.534-4.25,2.5
		c-0.967,1.1-1.45,2.583-1.45,4.449c0,3.467,1.3,6.467,3.9,9c1.7,1.7,3.133,2.7,4.3,3c0.133-0.066,0.267-0.1,0.4-0.1
		c0.1-0.066,0.15-0.3,0.15-0.7c0-0.033,0.533-0.6,1.6-1.7c1.1-1.399,1.667-3.017,1.7-4.85c0.033-0.667,0.167-2.733,0.4-6.2l0.3,0.75
		c0.167,1.967,0.333,4.767,0.5,8.4c0.133,3.2,0.2,5.133,0.2,5.8l-0.15,3.4c-2.6,0.033-4.333,0.333-5.2,0.899
		c-0.5,0.3-0.75,0.733-0.75,1.3c0,2.767,0.583,4.517,1.75,5.25c0.533,0.301,1.783,0.483,3.75,0.551
		c1.667,0.033,2.817,0.55,3.45,1.55c0.9,1.434,1.167,4.149,0.8,8.149c-1.6-0.699-3.183-1.449-4.75-2.25
		c-0.3-2.166-0.5-3.8-0.6-4.899c-0.1,0-0.233-0.134-0.4-0.4c-0.367-0.5-0.567-0.767-0.6-0.8l-0.8,4.6
		c-0.567-0.399-1.1-0.8-1.6-1.199c-0.267-0.233-1.117-1.051-2.55-2.45c-1.534-1.467-2.483-2.4-2.85-2.8
		c0.033-0.233-0.133-1.801-0.5-4.7c-0.333-2.634-0.567-4.384-0.7-5.25c-0.4,0.899-0.833,1.783-1.3,2.649
		C26.117,79.083,26,80.45,26,82.45c-0.967-1.167-2.3-2.851-4-5.05l-1.2-1.65c0-0.1,0-0.2,0-0.3c-0.133-1.767-0.2-2.967-0.2-3.601
		c0.233-0.6,0.483-1.267,0.75-2c0.467-1.433,0.7-2.699,0.7-3.8c0-5.5-0.066-8.583-0.2-9.25c-0.567-2.8-0.867-4.267-0.9-4.4
		c0.033,5.3-0.217,8.267-0.75,8.9c-0.333,0.367-1.067,0.717-2.2,1.05c-1.767,0.467-3.15,0.917-4.15,1.351
		c-0.067,0-0.117,0.017-0.15,0.05l-1.35-3.4c-0.4-1.233-1.067-2.983-2-5.25c-1.067-2.6-1.95-4.533-2.65-5.8
		c-0.333-0.533-0.617-1.05-0.85-1.55c1.3-2.267,2.017-3.5,2.15-3.7c0.633-1.4,1.083-3.017,1.35-4.85
		c-4.133,1.966-6.667,2.933-7.6,2.9c-0.367-0.4-0.883-1.85-1.55-4.35c-0.8-2.933-1.2-5.5-1.2-7.7c0-1,0.2-2,0.6-3
		C1,26.217,1.217,25.75,1.25,25.65z M15.45,19.45l0.9,1.05L16.2,22C15.9,21.167,15.65,20.317,15.45,19.45z M52.35,76.15
		c-0.1,0.3-0.4,0.983-0.9,2.05s-0.817,1.85-0.95,2.35c-1.7,3.467-2.55,5.267-2.55,5.4c0,0.866,0.066,2.233,0.2,4.1
		c0.133,2.3,0.283,3.684,0.45,4.15l0.05,0.05c0.633,0.866,1.65,1.917,3.05,3.15c1.333,1.166,2.683,2.183,4.05,3.05l0.65,0.5l0.1,0.1
		c-1.033-0.5-2.967-1.283-5.8-2.35l-2.15-0.8c-0.867-1.967-1.65-3.534-2.35-4.7l-0.65-0.8c0.133,2.267,0.117,3.733-0.05,4.399
		l-0.4-0.149c-0.133-1.733-0.2-3.101-0.2-4.101c1.033-3.7,1.55-6.316,1.55-7.85c0-0.334-0.133-1.617-0.4-3.851
		c-0.3-2.267-0.45-3.566-0.45-3.899c0-1.134,0.683-3,2.05-5.601c1.367-2.6,2.05-5.183,2.05-7.75c0-0.833-0.184-2.267-0.55-4.3
		C48.783,57.134,48.6,56,48.6,55.9l1.15,0.199c1.1,3.134,1.65,6.334,1.65,9.601c0,1.1-0.6,2.45-1.8,4.05
		c-1.233,1.634-1.85,3.917-1.85,6.85c0,0.667,0.067,1.733,0.2,3.2c1.133-2.399,2.8-5.416,5-9.05c1.033-1.7,1.55-3.384,1.55-5.05
		c0-1.367-0.15-2.733-0.45-4.101c-0.5-2.466-1.4-4.233-2.7-5.3c2.467,0.233,5.217,0.25,8.25,0.05h0.15c2.2,0.601,3.9,0.9,5.1,0.9
		l0.2,0.1c0.233,0.167,0.483,0.317,0.75,0.45c0.2,0.134,0.3,0.417,0.3,0.851c0,1.533-0.633,2.8-1.9,3.8
		c-0.233,0.166-1.65,0.967-4.25,2.399C55.583,67.217,53.05,70.983,52.35,76.15z"/>
</g>
</svg>
