<?xml version="1.0" encoding="iso-8859-1"?>
<!-- Generator: Adobe Illustrator 15.1.0, SVG Export Plug-In . SVG Version: 6.00 Build 0)  -->
<!DOCTYPE svg PUBLIC "-//W3C//DTD SVG 1.1//EN" "http://www.w3.org/Graphics/SVG/1.1/DTD/svg11.dtd">
<svg version="1.1" id="Layer_1" xmlns="http://www.w3.org/2000/svg" xmlns:xlink="http://www.w3.org/1999/xlink" x="0px" y="0px"
	 width="73.9px" height="49.35px" viewBox="0 0 73.9 49.35" style="enable-background:new 0 0 73.9 49.35;" xml:space="preserve">
<g>
	<path style="fill-rule:evenodd;clip-rule:evenodd;fill:#7C7367;" d="M68.7,7c0-0.1-0.066-0.333-0.2-0.7
		c-0.167-0.367-0.25-0.65-0.25-0.85v-0.1c0.733,0.566,1.467,1.367,2.2,2.4L68.7,7z M65.1,10.2c-0.5,1.133-1.017,2-1.55,2.6
		c-0.967,1.133-2.25,1.383-3.85,0.75h-0.3c1.3,0.467,4.066,0.733,8.3,0.8c0.233,0.933,0.35,1.8,0.35,2.6
		c0,0.933-0.133,2.517-0.399,4.75l-2.7-1.35c0.399,3.767-0.417,6.95-2.45,9.55c-1.934,2.466-4.517,3.899-7.75,4.3
		c-1.8,0.233-3.167,1.1-4.1,2.6c-0.801,1.3-2.917,1.95-6.351,1.95c-2.666,0-4.684-0.233-6.05-0.7C38.384,37.816,39,37.1,40.1,35.9
		c0.934-0.967,1.4-1.817,1.4-2.551c-1.3,0.334-2.717,1.017-4.25,2.051c-1.267,0.866-3.283,1.5-6.05,1.899
		c0.767,0.601,1.483,1.15,2.15,1.65c0.333,0.3,0.5,0.649,0.5,1.05c0,1.467-0.9,2.483-2.7,3.05c-2.433,0.767-4.333,2.217-5.7,4.351
		l-4.2,1.399c0.533-1.333,1.867-4.283,4-8.85c0.867-1.834,1.3-3.617,1.3-5.351c0-0.399-0.117-0.933-0.35-1.6
		c-0.267-0.667-0.45-1.116-0.55-1.35c0.333,0.3,1,1.783,2,4.449l0.4,0.5c0.833-1.199,2.817-3.366,5.95-6.5
		c2.233-2.267,3.533-4.316,3.9-6.149l0.199-0.2c0.867-1,1.884-2.133,3.051-3.4c0.733-0.934,1-1.934,0.8-3
		c0.467,0.9,2.066,4.7,4.8,11.4l0.3,0.45c0.066-0.4,0.101-0.934,0.101-1.601c0-3.766-0.317-6.85-0.95-9.25
		c-0.667-2.7-1.8-4.9-3.4-6.6L41.15,11.8l0.05,1.6l0.6,2.8c-1.6-2.767-2.6-4.367-3-4.8c-1.399-0.967-2.85-1.7-4.35-2.2L32.7,8.85
		l6.3-0.1c3.5,0,6.25,0.517,8.25,1.55c0.5,0.367,1.017,0.883,1.55,1.55l-0.75-0.05v12.5c0.434,1.233,0.851,2.75,1.25,4.55
		c0.367,1.667,0.55,2.767,0.55,3.301c0,0.3,0,0.5,0,0.6c2.567,0.167,4.267-0.434,5.101-1.8c0.399-0.634,0.767-2.184,1.1-4.65
		l0.7,0.601c0.566,0.433,1.116,0.783,1.65,1.05c0.633-1.167,1.033-2.3,1.199-3.4c0.067-0.466,0.101-1.216,0.101-2.25l-0.15-3.45
		c-1.934,0.667-3.233,1.283-3.899,1.85c0.267-0.667,0.833-1.333,1.699-2c0.634-0.467,0.95-1.284,0.95-2.45
		c-0.967-2.033-1.517-3.3-1.649-3.8V12.3c0.733-0.033,2.149-0.3,4.25-0.8C63.1,10.967,64.5,10.533,65.1,10.2z M9.4,33.5
		c0.233-0.1,0.95-0.533,2.15-1.3c0.833-0.5,1.95-0.884,3.35-1.15c-0.367,2.9-0.717,5.667-1.05,8.3c-0.2,1.4-0.583,3.034-1.15,4.9
		c-0.567-0.4-1.284-1.866-2.15-4.4C9.617,37.116,9.233,35,9.4,33.5z"/>
	<path style="fill-rule:evenodd;clip-rule:evenodd;fill:#B3AA9E;" d="M0.75,31.35L0.8,30.95h0.05
		C0.817,31.083,0.783,31.217,0.75,31.35z M0.75,31.45c0.033-0.167,0.083-0.334,0.15-0.5l1.5,0.2l1,0.5
		c1.567,1.233,2.9,2.966,4,5.199c1.133,2.4,1.7,4.784,1.7,7.15c0,0.434-0.067,0.684-0.2,0.75c-0.066,0.033-0.15,0.017-0.25-0.05
		c-0.1-0.033-0.217-0.101-0.35-0.2c-0.733-0.5-2.066-1.667-4-3.5c-2-1.934-3.167-3.167-3.5-3.7l-0.2-0.2l-0.6-2l0.4-2.55
		c0-0.133,0.033-0.25,0.1-0.35c0-0.134,0.033-0.25,0.1-0.351c0.033-0.1,0.066-0.216,0.1-0.35C0.7,31.467,0.717,31.45,0.75,31.45z
		 M6.25,19.7c0.067,0.233,0.283,0.383,0.65,0.45c1.333-0.133,2.217-0.417,2.65-0.85l-3-0.45L6.25,19.7z M17.8,11.05
		c-0.633-0.267-1.4-0.4-2.3-0.4s-1.65,0.133-2.25,0.4c-0.633,0.267-0.95,0.583-0.95,0.95s0.317,0.683,0.95,0.95
		c0.6,0.267,1.35,0.4,2.25,0.4s1.667-0.133,2.3-0.4c0.6-0.267,0.9-0.583,0.9-0.95S18.4,11.317,17.8,11.05z M38.8,11.4
		c-0.399,0.533-1.133,2.833-2.2,6.9c-0.866,3.267-2.683,5.9-5.45,7.9c-1.7,1.233-3.933,2.083-6.7,2.55
		c-2.434,0.434-4.9,0.533-7.4,0.3c-2-0.2-3.917,0.134-5.75,1c-1.966,0.967-3.2,1.45-3.7,1.45c-0.3,0-1.184-0.333-2.65-1
		c-1.467-0.7-2.517-1.316-3.15-1.85c0.333-0.834,0.733-1.801,1.2-2.9c1.967-4.7,3.667-7.833,5.1-9.4
		c1.233-1.367,2.533-3.383,3.9-6.05c1.267-2.533,2.133-4.017,2.6-4.45C15.367,5.183,16.333,4.9,17.5,5c2.9,0.2,5.4,0.25,7.5,0.15
		c1.167-0.033,4.183-0.917,9.05-2.65C38.75,0.833,42.783,0,46.15,0c1.866,0,5.666,0.7,11.399,2.1c5.8,1.4,9.367,2.517,10.7,3.35
		c0,0.2,0.083,0.483,0.25,0.85c0.134,0.367,0.2,0.6,0.2,0.7c-0.134,0.2-0.483,0.617-1.05,1.25c-0.534,0.6-0.9,0.967-1.101,1.1
		c-1.767,0.4-3.383,0.85-4.85,1.35c-0.667,0.233-1.65,0.35-2.95,0.35c-5.4-0.367-9.233-0.617-11.5-0.75
		c-2-1.033-4.75-1.55-8.25-1.55l-6.3,0.1l1.75,0.35C35.95,9.7,37.4,10.433,38.8,11.4z M60.9,4.95c0-0.4-0.034-0.633-0.101-0.7
		L60.65,4.3v1.25l-15,0.1c0.5,0.233,1.517,0.467,3.05,0.7c2.066,0.333,4.316,0.5,6.75,0.5C59.083,6.85,60.9,6.217,60.9,4.95z
		 M21.7,18.55l-0.4-3.4c-3.367,1.033-5.517,1.883-6.45,2.55c-0.167,0.1-0.633,0.683-1.4,1.75c0.433,0.633,0.867,1.083,1.3,1.35
		c0.6,0.367,1.333,0.55,2.2,0.55C20.117,21.35,21.7,20.417,21.7,18.55z M22.15,20.95L24.4,21c0.6,0,1.45-0.133,2.55-0.4
		c1.167-0.267,2.05-0.567,2.65-0.9L22.15,20.95z M20.5,11.2c0,0.4,0.217,0.75,0.65,1.05c0.4,0.3,0.883,0.45,1.45,0.45
		c0.566,0,1.066-0.15,1.5-0.45c0.4-0.3,0.6-0.65,0.6-1.05c0-0.4-0.2-0.75-0.6-1.05c-0.434-0.3-0.934-0.45-1.5-0.45
		c-0.567,0-1.05,0.15-1.45,0.45C20.717,10.45,20.5,10.8,20.5,11.2z M17.45,31c0.2-0.033,0.367-0.033,0.5,0h0.65
		c0.1,0.267,0.2,0.533,0.3,0.8c2.5,6.467,3.167,10.45,2,11.95c-1,1.3-1.967,1.95-2.9,1.95c-1,0-2.1-0.101-3.3-0.3
		c0.066-0.233,0.05-1.5-0.05-3.801c-0.1-2.366,0.184-4.683,0.85-6.949C16.1,32.75,16.75,31.533,17.45,31z"/>
	<path style="fill-rule:evenodd;clip-rule:evenodd;fill:#D2C8BA;" d="M0.75,31.45V31.35c0.033-0.133,0.067-0.267,0.1-0.399H0.9
		C0.833,31.116,0.783,31.283,0.75,31.45z M38.8,11.4c0.4,0.434,1.4,2.033,3,4.8l0.15,1.15c0.2,1.066-0.066,2.066-0.8,3
		c-1.167,1.267-2.184,2.4-3.051,3.4l-0.199,0.2l-0.25,0.25c-2.4,1.7-4.2,2.95-5.4,3.75c-2.133,1.434-4.5,2.533-7.1,3.3
		c-0.367,0.033-1.4,0.017-3.1-0.05c-1.2-0.033-2.133-0.084-2.8-0.15c-0.267,0-0.483-0.017-0.65-0.05h-0.65
		c-0.133-0.033-0.3-0.033-0.5,0c-0.567,0-1.417,0.017-2.55,0.05c-1.4,0.267-2.517,0.65-3.35,1.15c-1.2,0.767-1.917,1.2-2.15,1.3
		c-0.233,0-1.25-0.283-3.05-0.85c-1.667-0.534-2.65-0.867-2.95-1l-1-0.5L1,30.4c0.3-1.134,0.5-1.784,0.6-1.95
		c0.066,0.066,0.133,0.133,0.2,0.2c0.633,0.533,1.684,1.149,3.15,1.85c1.466,0.667,2.35,1,2.65,1c0.5,0,1.733-0.483,3.7-1.45
		c1.833-0.866,3.75-1.2,5.75-1c2.5,0.233,4.967,0.134,7.4-0.3c2.767-0.467,5-1.316,6.7-2.55c2.767-2,4.583-4.633,5.45-7.9
		C37.667,14.233,38.4,11.933,38.8,11.4z M17.8,11.05c0.6,0.267,0.9,0.583,0.9,0.95s-0.3,0.683-0.9,0.95
		c-0.633,0.267-1.4,0.4-2.3,0.4s-1.65-0.133-2.25-0.4c-0.633-0.267-0.95-0.583-0.95-0.95s0.317-0.683,0.95-0.95
		c0.6-0.267,1.35-0.4,2.25-0.4S17.167,10.783,17.8,11.05z M6.25,19.7l0.3-0.85l3,0.45c-0.433,0.434-1.316,0.717-2.65,0.85
		C6.533,20.083,6.317,19.933,6.25,19.7z M60.9,4.95c0,1.267-1.817,1.9-5.45,1.9c-2.434,0-4.684-0.167-6.75-0.5
		c-1.533-0.233-2.55-0.467-3.05-0.7l15-0.1V4.3L60.8,4.25C60.866,4.317,60.9,4.55,60.9,4.95z M56.65,12.45
		c-1.667,0.133-4.284-0.067-7.851-0.6c-0.533-0.667-1.05-1.184-1.55-1.55c2.267,0.133,6.1,0.383,11.5,0.75
		c1.3,0,2.283-0.117,2.95-0.35c1.467-0.5,3.083-0.95,4.85-1.35L65.1,10.2c-0.6,0.333-2,0.767-4.199,1.3
		c-2.101,0.5-3.517,0.767-4.25,0.8V12.45z M20.5,11.2c0-0.4,0.217-0.75,0.65-1.05c0.4-0.3,0.883-0.45,1.45-0.45
		c0.566,0,1.066,0.15,1.5,0.45c0.4,0.3,0.6,0.65,0.6,1.05c0,0.4-0.2,0.75-0.6,1.05c-0.434,0.3-0.934,0.45-1.5,0.45
		c-0.567,0-1.05-0.15-1.45-0.45C20.717,11.95,20.5,11.6,20.5,11.2z M22.15,20.95l7.45-1.25c-0.6,0.333-1.483,0.633-2.65,0.9
		C25.85,20.867,25,21,24.4,21L22.15,20.95z M21.7,18.55c0,1.867-1.583,2.8-4.75,2.8c-0.867,0-1.6-0.184-2.2-0.55
		c-0.433-0.267-0.867-0.716-1.3-1.35c0.767-1.067,1.233-1.65,1.4-1.75c0.933-0.667,3.083-1.517,6.45-2.55L21.7,18.55z"/>
	<path style="fill-rule:evenodd;clip-rule:evenodd;fill:#635B52;" d="M31.55,45.35l-6.1,2.051c1.367-2.134,3.267-3.584,5.7-4.351
		c1.8-0.566,2.7-1.583,2.7-3.05c0-0.4-0.167-0.75-0.5-1.05c-0.667-0.5-1.383-1.05-2.15-1.65c2.767-0.399,4.783-1.033,6.05-1.899
		c1.533-1.034,2.95-1.717,4.25-2.051c0,0.733-0.467,1.584-1.4,2.551c-1.1,1.199-1.716,1.916-1.85,2.149
		c1.366,0.467,3.384,0.7,6.05,0.7c3.434,0,5.55-0.65,6.351-1.95c0.933-1.5,2.3-2.366,4.1-2.6c3.233-0.4,5.816-1.834,7.75-4.3
		c2.033-2.601,2.85-5.784,2.45-9.55l2.7,1.35c0.267-2.233,0.399-3.817,0.399-4.75c0-0.8-0.116-1.667-0.35-2.6
		c-4.233-0.067-7-0.333-8.3-0.8h0.3c1.6,0.633,2.883,0.383,3.85-0.75c0.533-0.6,1.05-1.466,1.55-2.6l1.45-0.85
		c0.2-0.133,0.566-0.5,1.101-1.1C68.217,7.617,68.566,7.2,68.7,7l1.75,0.75c0.533,0.767,1.217,1.917,2.05,3.45l0.8,2.3l0.3,1.45
		c0.2,1.066,0.301,1.8,0.301,2.2c0,2-1.217,6.033-3.65,12.1c-0.267,0.733-1.316,2.066-3.15,4c-1.933,2.066-3.416,3.35-4.449,3.85
		c-2.334,1.167-4.967,2.067-7.9,2.7c-3,0.566-5.033,0.95-6.1,1.15l-17,4.35C31.617,45.3,31.583,45.316,31.55,45.35z M56.05,26.3
		c-0.866-1.867-1.3-2.816-1.3-2.85c0-0.934,0.3-1.85,0.9-2.75c0.666-0.567,1.966-1.184,3.899-1.85l0.15,3.45
		c0,1.034-0.033,1.784-0.101,2.25c-0.166,1.101-0.566,2.233-1.199,3.4c-0.534-0.267-1.084-0.617-1.65-1.05L56.05,26.3z M41.95,17.35
		L41.8,16.2l-0.6-2.8l-0.05-1.6l1.649-0.05c1.601,1.7,2.733,3.9,3.4,6.6c0.633,2.4,0.95,5.483,0.95,9.25
		c0,0.667-0.034,1.2-0.101,1.601l-0.3-0.45C44.017,22.05,42.417,18.25,41.95,17.35z M25.65,31.65l-0.5-0.4
		c2.6-0.767,4.967-1.866,7.1-3.3c1.2-0.8,3-2.05,5.4-3.75l0.25-0.25c-0.367,1.833-1.667,3.883-3.9,6.149
		c-3.133,3.134-5.117,5.301-5.95,6.5l-0.4-0.5C26.65,33.434,25.983,31.95,25.65,31.65z"/>
	<path style="fill-rule:evenodd;clip-rule:evenodd;fill:#9B9286;" d="M25.45,47.4l6.1-2.051c-0.5,0.2-1.95,0.717-4.35,1.551
		c-2.6,0.866-4.583,1.5-5.95,1.899c-1.233,0.367-2.433,0.55-3.6,0.55c-0.367,0-1.033-0.35-2-1.05c-1.5-1.066-3.316-2.083-5.45-3.05
		l-0.6-0.2c-0.233-0.1-0.467-0.2-0.7-0.3c0.133-0.066,0.2-0.316,0.2-0.75c0-2.366-0.567-4.75-1.7-7.15
		c-1.1-2.233-2.433-3.966-4-5.199c0.3,0.133,1.283,0.466,2.95,1c1.8,0.566,2.816,0.85,3.05,0.85c-0.167,1.5,0.217,3.616,1.15,6.35
		c0.867,2.534,1.583,4,2.15,4.4c0.566-1.866,0.95-3.5,1.15-4.9c0.333-2.633,0.683-5.399,1.05-8.3c1.133-0.033,1.983-0.05,2.55-0.05
		c-0.7,0.533-1.35,1.75-1.95,3.65c-0.667,2.267-0.95,4.583-0.85,6.949c0.1,2.301,0.117,3.567,0.05,3.801c1.2,0.199,2.3,0.3,3.3,0.3
		c0.933,0,1.9-0.65,2.9-1.95c1.167-1.5,0.5-5.483-2-11.95c-0.1-0.267-0.2-0.533-0.3-0.8c0.167,0.033,0.383,0.05,0.65,0.05
		c0.667,0.066,1.6,0.117,2.8,0.15c1.7,0.066,2.733,0.083,3.1,0.05l0.5,0.4c0.1,0.233,0.283,0.683,0.55,1.35
		c0.233,0.667,0.35,1.2,0.35,1.6c0,1.733-0.433,3.517-1.3,5.351c-2.133,4.566-3.467,7.517-4,8.85L25.45,47.4z M0.8,37.3
		c0.333,0.533,1.5,1.767,3.5,3.7c1.934,1.833,3.267,3,4,3.5c-1.867-0.833-3.2-1.616-4-2.35C3.4,41.316,2.233,39.7,0.8,37.3z
		 M0.85,30.95H0.8l0.15-0.55H1l1.4,0.75l-1.5-0.2H0.85z M48.8,11.85c3.566,0.533,6.184,0.733,7.851,0.6
		c0.133,0.5,0.683,1.767,1.649,3.8c0,1.167-0.316,1.983-0.95,2.45c-0.866,0.667-1.433,1.333-1.699,2c-0.601,0.9-0.9,1.816-0.9,2.75
		c0,0.033,0.434,0.983,1.3,2.85c-0.333,2.467-0.7,4.017-1.1,4.65c-0.834,1.366-2.533,1.967-5.101,1.8c0-0.1,0-0.3,0-0.6
		c0-0.534-0.183-1.634-0.55-3.301c-0.399-1.8-0.816-3.316-1.25-4.55V11.8L48.8,11.85z"/>
</g>
</svg>
