<?xml version="1.0" encoding="iso-8859-1"?>
<!-- Generator: Adobe Illustrator 15.1.0, SVG Export Plug-In . SVG Version: 6.00 Build 0)  -->
<!DOCTYPE svg PUBLIC "-//W3C//DTD SVG 1.1//EN" "http://www.w3.org/Graphics/SVG/1.1/DTD/svg11.dtd">
<svg version="1.1" id="Layer_1" xmlns="http://www.w3.org/2000/svg" xmlns:xlink="http://www.w3.org/1999/xlink" x="0px" y="0px"
	 width="272.5px" height="89.85px" viewBox="0 0 272.5 89.85" style="enable-background:new 0 0 272.5 89.85;" xml:space="preserve"
	>
<g>
	<path style="fill-rule:evenodd;clip-rule:evenodd;fill:#8C847C;" d="M271.1,55.1c-0.899,0.733-2.133,1.367-3.699,1.9
		c-1.4,0.467-2.534,0.7-3.4,0.7c-6.634,0-11.366-0.467-14.2-1.4c-3.833-1.3-9.05-2.233-15.649-2.8l-0.551-0.25
		c1.733-1.267,3.617-3.316,5.65-6.15c0-0.399-0.184-0.716-0.55-0.949c-0.4-0.233-0.601-0.384-0.601-0.45c1.601-0.8,2.5-1.3,2.7-1.5
		c-0.434-0.233-1.583-0.684-3.45-1.35c-1.699-0.6-2.666-0.917-2.899-0.95l-0.4-0.15c0.4,0.033,1.566,0.1,3.5,0.2
		c2.9,0.167,7.15,0.533,12.75,1.1c5.9,2.467,9.434,3.967,10.601,4.5c3.466,1.601,6.333,3.233,8.6,4.9c0.533,0.366,0.934,0.8,1.2,1.3
		C270.833,54.05,270.967,54.5,271.1,55.1z M259.6,61.15c1.634,1,2.483,1.533,2.551,1.6c-1.334,1.066-2.851,1.6-4.551,1.6
		c-0.833,0-2.066-0.216-3.699-0.649c-2-0.5-3.317-1.066-3.95-1.7c-0.066-0.267-0.101-0.566-0.101-0.9
		C252.483,60.967,255.733,60.983,259.6,61.15z M203.45,30.75l1.25-0.05c0.5,0,1.149,0.117,1.95,0.35
		c0.8,0.267,1.199,0.483,1.199,0.65l-1.05,0.2c-0.233,0.033-0.767-0.1-1.6-0.4C204.333,31.2,203.75,30.95,203.45,30.75z M228.5,42.6
		c-1.667-0.067-2.5-0.167-2.5-0.3l1.75-0.3c1.5-0.1,3.083,0.133,4.75,0.7C231.434,42.733,230.1,42.7,228.5,42.6z M230.2,49.1
		c0.633,0.267,0.95,0.601,0.95,1c0,0.4-0.317,0.733-0.95,1c-0.634,0.267-1.4,0.4-2.3,0.4c-0.9,0-1.667-0.134-2.301-0.4
		c-0.633-0.267-0.949-0.6-0.949-1c0-0.399,0.316-0.733,0.949-1c0.634-0.267,1.4-0.399,2.301-0.399
		C228.8,48.7,229.566,48.833,230.2,49.1z M177.4,26.65c0.433,0.5,0.649,1.267,0.649,2.3c0,1.433-0.649,2.183-1.95,2.25
		c-2.533-0.233-5.083-0.417-7.649-0.55c2.8-3.533,4.366-5.3,4.7-5.3C175.25,25.35,176.667,25.783,177.4,26.65z M187.2,49.35
		c-0.434,0.067-1.066,0.051-1.9-0.05c-0.833-0.1-1.45-0.233-1.85-0.399c0.033-0.4,0.666-0.517,1.899-0.351
		c1.2,0.134,1.834,0.316,1.9,0.55L187.2,49.35z M200.85,57c2.034-0.434,4.684-0.934,7.95-1.5c3-0.533,6.334-1.217,10-2.05
		L219.9,53.1c-0.233,0.167-1.934,1.25-5.101,3.25c-2.166,1.334-4.017,2.7-5.55,4.101c0.566,0.533,3.583,3,9.05,7.399l0.3,0.95
		c-0.066,0.267-0.183,0.45-0.35,0.55c-0.167,0.101-0.483,0.15-0.95,0.15c-0.934,0-2.899-0.434-5.899-1.3
		c-3-0.9-6.95-1.351-11.851-1.351c-0.566,0-3.95-0.449-10.149-1.35c-6.467-0.967-9.917-1.467-10.351-1.5
		c0.667-0.333,3.066-0.667,7.2-1c4.2-0.333,6.967-0.783,8.3-1.35c-0.2-0.367-0.55-0.717-1.05-1.051
		c1.1-0.433,2.917-0.733,5.45-0.899c2.2-0.2,3.399-0.417,3.6-0.65c-0.066-0.233-0.233-0.483-0.5-0.75
		C201.55,57.833,201.15,57.4,200.85,57z M167.8,55.65c2.134,0.166,4.584-0.767,7.351-2.801c1.933-1.466,3.5-2.966,4.699-4.5
		C178.983,51.65,177.7,53.866,176,55c-1.066,0.7-2.65,1.05-4.75,1.05L167.8,55.65z M223.05,61.5c2.733-1.634,4.117-2.467,4.15-2.5
		l0.3-0.3h2.65c-0.301,0.7-0.834,1.717-1.601,3.05c1.634-0.267,3.15-0.8,4.55-1.6c1.2-0.733,2.117-1.101,2.75-1.101
		c0.667,0,1.667,0.767,3,2.3c-0.6,1-1.133,1.75-1.6,2.25c-0.833,0.867-1.917,1.301-3.25,1.301c-2.066,0-4.566-0.334-7.5-1
		c-2.733-0.601-4.1-1.051-4.1-1.351c0-0.399,0.033-0.616,0.1-0.649C222.833,61.667,223.017,61.533,223.05,61.5z M238.15,66.95
		c0.233-0.867,0.35-1.4,0.35-1.601l2.35,1.351c-0.399,0.8-0.85,1.383-1.35,1.75c-0.167,0-0.316-0.05-0.45-0.15
		C238.783,68.134,238.483,67.684,238.15,66.95z M137.5,6c0,0.267-0.15,0.5-0.45,0.7c-0.3,0.167-0.666,0.25-1.1,0.25
		s-0.8-0.083-1.1-0.25c-0.3-0.2-0.45-0.434-0.45-0.7s0.15-0.483,0.45-0.65c0.3-0.2,0.667-0.3,1.1-0.3s0.8,0.1,1.1,0.3
		C137.35,5.517,137.5,5.733,137.5,6z M126.9,16.8c-0.267,0.5-0.566,0.9-0.9,1.2c-0.667,0.6-1.633,0.9-2.9,0.9
		c-0.4,0-0.95-0.083-1.65-0.25c1.167-1.333,2.233-2.267,3.2-2.8C125.983,15.083,126.733,15.4,126.9,16.8z M151.2,39.25
		c-0.066,0.3-0.45,0.483-1.15,0.55c-0.6-0.066-1.1-0.167-1.5-0.3l-0.399-0.4c0.633-0.333,1.3-0.467,2-0.4
		C150.816,38.767,151.167,38.95,151.2,39.25z M114.2,6.75c-0.2,0.2-0.45,0.3-0.75,0.3c-0.3,0-0.55-0.1-0.75-0.3
		c-0.2-0.2-0.3-0.45-0.3-0.75s0.1-0.55,0.3-0.75c0.2-0.2,0.45-0.3,0.75-0.3c0.3,0,0.55,0.1,0.75,0.3c0.2,0.2,0.3,0.45,0.3,0.75
		S114.4,6.55,114.2,6.75z M110.4,18.35c0.3,0.167,0.45,0.367,0.45,0.6c0,0.233-0.15,0.45-0.45,0.65c-0.3,0.167-0.65,0.25-1.05,0.25
		s-0.75-0.083-1.05-0.25c-0.3-0.2-0.45-0.417-0.45-0.65c0-0.233,0.15-0.434,0.45-0.6c0.3-0.2,0.65-0.3,1.05-0.3
		S110.1,18.15,110.4,18.35z M101.85,14.35c0,0.367-0.083,0.683-0.25,0.95c-0.2,0.233-0.417,0.35-0.65,0.35
		c-0.233,0-0.434-0.117-0.6-0.35c-0.2-0.267-0.3-0.583-0.3-0.95s0.1-0.667,0.3-0.9c0.167-0.267,0.367-0.4,0.6-0.4
		c0.233,0,0.45,0.133,0.65,0.4C101.767,13.683,101.85,13.983,101.85,14.35z M92.2,36.8l2.3,0.6c-0.2,0.4-0.6,0.7-1.2,0.9
		c-0.4,0.133-0.75,0.2-1.05,0.2c-0.933,0-1.417-0.167-1.45-0.5c0.4-0.433,0.684-0.7,0.85-0.8c0.1-0.067-0.05-0.083-0.45-0.05
		L92.2,36.8z M75.6,45.15c-0.434-0.367-0.684-1.05-0.75-2.05c0.967-0.233,2.017-0.55,3.15-0.95c1.033-0.267,2.417-0.417,4.15-0.45
		l-0.85,1c-1.433,1.566-2.6,2.467-3.5,2.7C77.333,45.533,76.6,45.45,75.6,45.15z M82.4,30.8l1.85-0.4c0.467,0,1-0.1,1.6-0.3
		c1.1-0.367,2.316-0.717,3.65-1.05c-0.233,1.3-1.067,2.15-2.5,2.55c-0.8,0.233-2.05,0.35-3.75,0.35c-0.9,0-1.4-0.184-1.5-0.55
		C81.783,31.233,82,31.033,82.4,30.8z M83.5,33.8c-0.033-0.066-0.05-0.133-0.05-0.2c0-0.067,0.017-0.133,0.05-0.2
		c0.067-0.066,0.15-0.133,0.25-0.2c0.2-0.1,0.45-0.15,0.75-0.15s0.55,0.05,0.75,0.15c0.2,0.1,0.3,0.233,0.3,0.4
		c0,0.167-0.1,0.3-0.3,0.4s-0.45,0.15-0.75,0.15S83.95,34.1,83.75,34C83.65,33.933,83.567,33.867,83.5,33.8z M78.85,10.4
		c0.667,0,1.667,0.434,3,1.3c-0.767,0.533-1.317,0.833-1.65,0.9c-0.633,0.167-1.767,0.2-3.4,0.1l0.65-1.15
		C77.983,10.783,78.45,10.4,78.85,10.4z M62.25,20.3c-0.167,0-0.317-0.033-0.45-0.1c-0.133-0.1-0.2-0.217-0.2-0.35
		s0.066-0.233,0.2-0.3c0.133-0.1,0.284-0.15,0.45-0.15s0.317,0.05,0.45,0.15c0.133,0.067,0.2,0.167,0.2,0.3s-0.066,0.25-0.2,0.35
		C62.567,20.267,62.417,20.3,62.25,20.3z M72.1,22.6c0.833-1.233,2.517-2.2,5.05-2.9c-1.1,2.066-1.917,3.35-2.45,3.85
		c-0.7,0.667-1.767,0.934-3.2,0.8C71.533,24.317,71.733,23.733,72.1,22.6z M48.15,36.2c-0.3,1-0.717,2-1.25,3
		c-0.667,1.267-1.267,1.966-1.8,2.1l-0.75,0.3c0.1,0,1.633-0.45,4.6-1.35l0.45-0.35c-0.566,0.833-3.333,2.95-8.3,6.35
		c-5.2,3.533-8.333,5.3-9.4,5.3c-0.4,0-0.65-0.017-0.75-0.05l-0.05-0.1l-0.45-0.351c0.333-0.434,1.45-1.6,3.35-3.5l0.15-0.45
		c-2.3,1.334-4.267,2.417-5.9,3.25c-1.233,0.634-2.3,1.117-3.2,1.45c0.333-0.2,0.533-0.434,0.6-0.7c-0.2-0.8-0.3-1.283-0.3-1.449
		c0-0.733,0.783-1.717,2.35-2.95c1.567-1.267,2.35-1.934,2.35-2c0-0.434-0.1-0.767-0.3-1c-0.267-0.233-0.483-0.434-0.65-0.6
		c0.967-0.033,3.184,0.1,6.65,0.4c1.367,0,2.567-0.583,3.6-1.75c1.5-1.767,2.283-2.667,2.35-2.7c0.033-0.033,0.833-0.183,2.4-0.45
		c1.467-0.267,2.717-0.867,3.75-1.8L48.15,36.2z M14.35,43.95c0.733-0.567,2.117-0.417,4.15,0.45c-0.1,0.2-0.4,0.417-0.9,0.65
		c-0.733,0.3-1.65,0.467-2.75,0.5L13.6,45.3C13.733,45.2,13.983,44.75,14.35,43.95z"/>
	<path style="fill-rule:evenodd;clip-rule:evenodd;fill:#A39A90;" d="M159.05,72.7c-3.1-0.834-5.616-2.351-7.55-4.55
		c-0.566-0.634-2.134-2.967-4.7-7c-4.533-7.2-11.633-12.684-21.3-16.45c1.7-2.9,4.3-6.9,7.8-12c2.467-3.567,4.033-6.284,4.7-8.15
		l2.25-1.25c1.767,0.5,3.05,0.75,3.85,0.75c0.967,0,2.517-0.783,4.65-2.35c0.667-0.5,3.616-2.817,8.85-6.95
		c0.2-0.1,0.95-0.25,2.25-0.45c1.301-0.2,2.2-0.3,2.7-0.3c1.4,0,13.584,3.85,36.55,11.55c19.801,6.633,36.867,12.467,51.2,17.5
		c-5.6-0.566-9.85-0.933-12.75-1.1c-1.934-0.1-3.1-0.167-3.5-0.2l0.4,0.15c0.233,0.033,1.2,0.35,2.899,0.95
		c1.867,0.667,3.017,1.117,3.45,1.35c-0.2,0.2-1.1,0.7-2.7,1.5c0,0.066,0.2,0.217,0.601,0.45c0.366,0.233,0.55,0.55,0.55,0.949
		c-2.033,2.834-3.917,4.884-5.65,6.15l0.551,0.25c6.6,0.566,11.816,1.5,15.649,2.8c2.834,0.934,7.566,1.4,14.2,1.4
		c0.866,0,2-0.233,3.4-0.7c1.566-0.533,2.8-1.167,3.699-1.9l-0.05,0.2c-0.233,0.5-0.517,0.917-0.85,1.25
		c-0.467,0.733-1.033,1.617-1.7,2.65c-1.066,1.7-1.733,2.833-2,3.399c-0.4,0.667-0.917,1.317-1.55,1.95l-0.3-0.3
		c-0.534-0.9-1.184-1.717-1.95-2.45l-0.7-0.5c-0.9-0.5-2.083-0.8-3.55-0.899l1.149,0.75c-3.866-0.167-7.116-0.184-9.75-0.051
		c0,0.334,0.034,0.634,0.101,0.9c0.633,0.634,1.95,1.2,3.95,1.7c1.633,0.434,2.866,0.649,3.699,0.649c1.7,0,3.217-0.533,4.551-1.6
		l1.5,1.7l0.1,0.7l-5.4,2.149c-1.033-1.434-2.25-2.149-3.649-2.149c0.399,1.033,0.75,2.066,1.05,3.1
		c-3.066,1.033-7.233,2.35-12.5,3.95c-0.3-0.4-0.717-0.783-1.25-1.15c-1.066-0.767-2.233-1.166-3.5-1.2l-1.25-0.1
		c0.134,0.1,1.533,1.083,4.2,2.95c-1.667,0.434-4.75,1.017-9.25,1.75c-4.101,0.666-6.351,1-6.75,1c-5.334,0-11.267-1.066-17.8-3.2
		c-6.567-2.167-10.7-3.25-12.4-3.25c-1.2,0-5.533,0.45-13,1.35c-8.5,1.034-14.167,1.667-17,1.9c0.2-1.467,0.384-2.45,0.55-2.95
		c0.367-1.133,1-2.033,1.9-2.7l0.35-0.75c-1.033,0.534-2.583,1.567-4.649,3.101C161.134,70.616,159.684,71.866,159.05,72.7z
		 M254.7,59.9c0.633,0,1.333-0.101,2.1-0.301c0.867-0.267,1.434-0.566,1.7-0.899l-13-1c0.767,0.733,2.316,1.316,4.65,1.75
		C251.884,59.75,253.4,59.9,254.7,59.9z M203.45,30.75c0.3,0.2,0.883,0.45,1.75,0.75c0.833,0.3,1.366,0.433,1.6,0.4l1.05-0.2
		c0-0.167-0.399-0.383-1.199-0.65c-0.801-0.233-1.45-0.35-1.95-0.35L203.45,30.75z M221.55,48.05c0,0.3,0.283,0.55,0.851,0.75
		c0.5,0.2,1.033,0.3,1.6,0.3c1,0,1.8-0.483,2.4-1.449c0.333-0.5,0.583-1.034,0.75-1.601l-1.301-0.35
		C224.217,46.467,222.783,47.25,221.55,48.05z M221.4,40.4c-1.034,0-1.567,0.017-1.601,0.05c1.066,0.7,2.334,0.833,3.8,0.4
		c0.334-0.1,1.417-0.6,3.25-1.5C224.55,40.05,222.733,40.4,221.4,40.4z M230.2,49.1c-0.634-0.267-1.4-0.399-2.3-0.399
		c-0.9,0-1.667,0.133-2.301,0.399c-0.633,0.267-0.949,0.601-0.949,1c0,0.4,0.316,0.733,0.949,1c0.634,0.267,1.4,0.4,2.301,0.4
		c0.899,0,1.666-0.134,2.3-0.4c0.633-0.267,0.95-0.6,0.95-1C231.15,49.7,230.833,49.366,230.2,49.1z M228.5,42.6
		c1.6,0.1,2.934,0.133,4,0.1c-1.667-0.567-3.25-0.8-4.75-0.7L226,42.3C226,42.433,226.833,42.533,228.5,42.6z M182.15,33.05h-4.4
		v1.25h4.4V33.05z M170.65,23.85c-0.801-0.567-1.217-0.867-1.25-0.9c-0.233-0.167-0.634-0.25-1.2-0.25
		c-4.867,0.8-7.667,1.45-8.4,1.95c0.733,1.067,3.184,2.483,7.351,4.25c1.366,0,2.5-0.35,3.399-1.05c0.867-0.667,1.3-1.45,1.3-2.35
		C171.85,25.1,171.45,24.55,170.65,23.85z M177.4,26.65c-0.733-0.867-2.15-1.3-4.25-1.3c-0.334,0-1.9,1.767-4.7,5.3
		c2.566,0.133,5.116,0.317,7.649,0.55c1.301-0.067,1.95-0.817,1.95-2.25C178.05,27.917,177.833,27.15,177.4,26.65z M181.15,46.7
		v0.649c0.1,0.301,0.3,0.551,0.6,0.75l1,0.101c0.667,0,1.033-0.117,1.1-0.351c0-0.333-0.449-0.616-1.35-0.85L181.15,46.7z
		 M168.4,44.55c-1.134,0.834-1.7,1.851-1.7,3.05c0,1.2,0.566,2.217,1.7,3.051c1.1,0.833,2.449,1.25,4.05,1.25
		c1.6,0,2.967-0.417,4.1-1.25c1.101-0.834,1.65-1.851,1.65-3.051c0-1.199-0.55-2.216-1.65-3.05c-1.133-0.833-2.5-1.25-4.1-1.25
		C170.85,43.3,169.5,43.717,168.4,44.55z M200.85,57c0.301,0.4,0.7,0.833,1.2,1.3c0.267,0.267,0.434,0.517,0.5,0.75
		c-0.2,0.233-1.399,0.45-3.6,0.65c-2.533,0.166-4.351,0.467-5.45,0.899c0.5,0.334,0.85,0.684,1.05,1.051
		c-1.333,0.566-4.1,1.017-8.3,1.35c-4.134,0.333-6.533,0.667-7.2,1c0.434,0.033,3.884,0.533,10.351,1.5
		c6.199,0.9,9.583,1.35,10.149,1.35c4.9,0,8.851,0.45,11.851,1.351c3,0.866,4.966,1.3,5.899,1.3c0.467,0,0.783-0.05,0.95-0.15
		c0.167-0.1,0.283-0.283,0.35-0.55l-0.3-0.95c-5.467-4.399-8.483-6.866-9.05-7.399c1.533-1.4,3.384-2.767,5.55-4.101
		c3.167-2,4.867-3.083,5.101-3.25L218.8,53.45c-3.666,0.833-7,1.517-10,2.05C205.533,56.066,202.884,56.566,200.85,57z M187.2,49.35
		l0.05-0.25c-0.066-0.233-0.7-0.416-1.9-0.55c-1.233-0.166-1.866-0.05-1.899,0.351c0.399,0.166,1.017,0.3,1.85,0.399
		C186.134,49.4,186.767,49.417,187.2,49.35z M167.8,55.65l3.45,0.399c2.1,0,3.684-0.35,4.75-1.05c1.7-1.134,2.983-3.35,3.85-6.65
		c-1.199,1.534-2.767,3.034-4.699,4.5C172.384,54.884,169.934,55.816,167.8,55.65z M227.2,59l0.649-1.3c-3.633,0.267-5.966,0.6-7,1
		c-0.6,0.233-1.066,0.75-1.399,1.55c0.1,0.533,0.3,0.866,0.6,1c0.5,0.3,1.5,0.384,3,0.25c-0.033,0.033-0.217,0.167-0.55,0.4
		c-0.066,0.033-0.1,0.25-0.1,0.649c0,0.3,1.366,0.75,4.1,1.351c2.934,0.666,5.434,1,7.5,1c1.333,0,2.417-0.434,3.25-1.301
		c0.467-0.5,1-1.25,1.6-2.25c-1.333-1.533-2.333-2.3-3-2.3c-0.633,0-1.55,0.367-2.75,1.101c-1.399,0.8-2.916,1.333-4.55,1.6
		c0.767-1.333,1.3-2.35,1.601-3.05h-2.65L227.2,59z M238.5,65.35c-3.733,1.4-5.667,2.233-5.8,2.5c1.066,0.467,1.916,0.7,2.55,0.7
		c0.7,0,1.3-0.184,1.8-0.55c0.066-0.033,0.434-0.384,1.101-1.05c0.333,0.733,0.633,1.184,0.899,1.35
		c0.134,0.101,0.283,0.15,0.45,0.15c0.5-0.367,0.95-0.95,1.35-1.75L238.5,65.35z M227.35,78.05L227.9,78l-0.45,0.05H227.35z
		 M131.75,3.85h-4.25v-1.6h4.25V3.85z M147.45,37c-0.467-0.233-1.017-0.35-1.65-0.35c-0.633,0-1.184,0.117-1.649,0.35
		c-0.467,0.2-0.7,0.45-0.7,0.75s0.233,0.567,0.7,0.8c0.466,0.2,1.017,0.3,1.649,0.3c0.634,0,1.184-0.1,1.65-0.3
		c0.467-0.233,0.7-0.5,0.7-0.8S147.917,37.2,147.45,37z M151.2,39.25c-0.033-0.3-0.384-0.483-1.05-0.55
		c-0.7-0.067-1.367,0.066-2,0.4l0.399,0.4c0.4,0.133,0.9,0.233,1.5,0.3C150.75,39.733,151.134,39.55,151.2,39.25z M105.05,5.75
		c1.1-0.367,3.583-0.817,7.45-1.35c-2.833,1.533-4.417,2.383-4.75,2.55c-0.8,0.367-1.55,0.55-2.25,0.55l-1-0.2
		c-0.167-0.1-0.25-0.367-0.25-0.8C104.25,6.2,104.517,5.95,105.05,5.75z M107.55,17.05c0,0.967-0.167,1.633-0.5,2
		c-0.267,0.3-0.7,0.45-1.3,0.45c-0.433,0-0.767-0.033-1-0.1c-0.067-0.033-0.267-0.15-0.6-0.35c0.1-0.3,1.217-1.417,3.35-3.35
		L107.55,17.05z M75.6,45.15c-1.267,0.8-2.717,1.55-4.35,2.25c-1.8,0.767-3.1,1.116-3.9,1.05c-0.767,0.3-1.15,0.116-1.15-0.55
		c0-1.233,0.9-2.584,2.7-4.05c2.967-2.467,7.5-3.617,13.6-3.45c-0.067,0.733-0.117,1.133-0.15,1.2
		c-0.133,0.367-0.483,0.733-1.05,1.1l0.85-1c-1.733,0.033-3.117,0.183-4.15,0.45c-1.133,0.4-2.183,0.717-3.15,0.95
		C74.917,44.1,75.167,44.783,75.6,45.15z M92.2,36.8l-1,0.35c-0.7,0-1.233-0.183-1.6-0.55l-0.1-0.55l2.65-0.65
		c0,0.1,0.117,0.367,0.35,0.8C92.567,36.633,92.467,36.833,92.2,36.8z M84.25,30.4l-1.85,0.4c-1.2,0.1-2.467,0.067-3.8-0.1
		c0-0.034-0.083-0.117-0.25-0.25c-0.167-0.1-0.25-0.35-0.25-0.75c0-0.733,0.517-1.417,1.55-2.05c1.133-0.667,2.633-1.083,4.5-1.25
		h4.35c-0.1,0.5-0.583,1.217-1.45,2.15C86.05,29.65,85.117,30.267,84.25,30.4z M83.5,33.4c-0.033,0.067-0.05,0.133-0.05,0.2
		c0,0.066,0.017,0.133,0.05,0.2c-0.067,0.167-0.183,0.317-0.35,0.45c-0.3,0.167-0.65,0.25-1.05,0.25s-0.733-0.083-1-0.25
		c-0.3-0.2-0.45-0.417-0.45-0.65s0.15-0.434,0.45-0.6c0.267-0.2,0.6-0.3,1-0.3s0.75,0.1,1.05,0.3
		C83.317,33.1,83.433,33.233,83.5,33.4z M119.95,48.35c0.167,0.134,0.367,0.284,0.6,0.45l-0.3-0.2L119.95,48.35z M132.6,54
		l0.85,0.45l-0.6-0.3L132.6,54z M67.2,21.35c0.4-0.133,2.133-1.05,5.2-2.75l2.1-0.2c-1.333,2.1-2.3,3.45-2.9,4.05
		c-0.633,0.633-1.367,0.95-2.2,0.95c-0.733,0-1.65-0.4-2.75-1.2C66.783,21.867,66.967,21.583,67.2,21.35z M37.85,35.05
		c0.667,0,1.333,0.45,2,1.35c-0.8,1.767-2.417,3.133-4.85,4.1s-3.65,0.667-3.65-0.9c0-1.2,1.066-2.317,3.2-3.35
		C35.617,35.75,36.717,35.35,37.85,35.05z"/>
	<path style="fill-rule:evenodd;clip-rule:evenodd;fill:#635B52;" d="M270.2,56.55c0.333-0.333,0.616-0.75,0.85-1.25
		c0.033,0.767,0.3,2.617,0.8,5.55c0.434,2.7,0.65,4.584,0.65,5.65c-3.634,7.167-6,10.967-7.1,11.4c-0.7,0.3-1.551,0.517-2.551,0.649
		c-0.899,0.101-1.399,0.167-1.5,0.2c-0.399,0.134-1.666,0.7-3.8,1.7c-0.3,0.133-0.566,0.25-0.8,0.35
		c-1.566,0.7-2.384,1.084-2.45,1.15c0.5-1.033,2.334-4.434,5.5-10.2c-0.866,0.134-1.483,0.233-1.85,0.3
		c-0.634,0.066-0.95-0.1-0.95-0.5c0-0.399-0.134-0.6-0.4-0.6l-0.449,0.1c0.333-0.6,0.449-1.899,0.35-3.899L257,67.8
		c0.566,0.767,1.184,1.65,1.85,2.65l0.65-0.4l0.05-0.35c-0.066-0.467-0.233-0.934-0.5-1.4c0.834-0.366,1.934-0.983,3.3-1.85
		c1.567-0.967,2.034-1.4,1.4-1.3l-0.1-0.7l1-0.2l0.3,0.3c0.633-0.633,1.149-1.283,1.55-1.95c0.134,0.567,0.434,1.45,0.9,2.65
		c0.433,1.066,0.767,1.833,1,2.3c1.3-2.934,1.949-5.934,1.949-9L270.2,56.55z M244.15,87.45l-2.4,0.2c0.333-0.5,0.65-1.301,0.95-2.4
		c0.267-1.134,0.416-2.217,0.45-3.25c0.066-1.7,0.1-3.5,0.1-5.4l0.25-0.25c0.667,1.134,1.083,1.634,1.25,1.5l0.4,1.101l0.1,0.75
		c0.066,2.666,0.233,4.35,0.5,5.05c-0.033-0.333,0.634-1.65,2-3.95c0.533,0.667,0.816,1,0.85,1v3.45
		c-0.066,0.066-0.149,0.116-0.25,0.15L247.65,85.8C246.15,86.6,244.983,87.15,244.15,87.45z M167.7,89l-1.05,0.35L166.4,89.4
		l-0.4,0.05c0.3-0.733,0.9-2.05,1.8-3.95c0.367-0.866,0.7-1.8,1-2.8l-0.149,1.55C168.517,85.15,168.2,86.733,167.7,89z M170.5,87.85
		c2.233-0.966,3.8-2.416,4.7-4.35c0.733-1.533,0.95-3.116,0.649-4.75c1.067,0.1,1.75-0.017,2.051-0.35
		c0.199-0.2,0.3-0.634,0.3-1.301c0-0.399-0.017-0.716-0.05-0.949l-0.101-0.2c-1.2-0.101-5.517-0.467-12.95-1.101
		c1.334-0.066,12.567-1,33.7-2.8c-0.467,0.934-0.916,2.7-1.35,5.3c-0.233,1.301-0.417,2.517-0.55,3.65c0,1.634,0.366,2.8,1.1,3.5
		c0.5,0.467,1.316,0.8,2.45,1l-1.9-0.1l-6.2-0.45l-0.649-0.2l-0.2-0.05l-0.4-0.3c0.067-0.134,0.434-0.517,1.101-1.15
		c0.566-0.533,0.85-1.05,0.85-1.55c0-0.367-0.033-0.634-0.1-0.8c-0.101-0.167-0.15-0.317-0.15-0.45c-0.333-0.2-0.833-0.3-1.5-0.3
		c-0.7,0.1-1.45,0.35-2.25,0.75c-1.566,0.866-2.767,2.166-3.6,3.899l-1.3,0.101c-2.2,0-5.101,0.483-8.7,1.449
		C172.25,87.316,170.6,87.816,170.5,87.85z M157.5,80.3c0.5-0.733,0.85-1.467,1.05-2.2c0.733-1.566,1.134-2.333,1.2-2.3
		c1.267-2.5,2.333-3.983,3.2-4.45l0.25,0.15c0.166,0.2,0.267,0.517,0.3,0.95c0,0.033-0.5,1.333-1.5,3.899
		c-0.667,1.733-1,3.684-1,5.851c-0.7,3.6-1.467,6.116-2.3,7.55c-1.233-0.134-3.084-0.533-5.55-1.2l0.05-0.05l1-1.15
		c0.899-1.933,1.8-3.883,2.7-5.85C157.1,81.066,157.3,80.667,157.5,80.3z M120.25,48.6c-0.667,3.767-1,6.434-1,8
		c0,0.233,0.083,1.334,0.25,3.301c0.133,1.8,0.183,2.916,0.15,3.35c-1.167,2.4-4.85,5.583-11.05,9.55c0.233-0.899,0.967-2.3,2.2-4.2
		c2.133-3.233,3.35-5.083,3.65-5.55c3.1-5.233,4.25-9.866,3.45-13.899c-0.367-1.9,0.383-4.5,2.25-7.8c1.9-3.4,4-5.717,6.3-6.95h-0.5
		c-2.5-0.333-6.55,1.15-12.15,4.45c-6.566,3.867-10.733,6.033-12.5,6.5c4.934-3.966,11.05-8.667,18.35-14.1
		c5.233-3.9,12.633-9.9,22.2-18l0.551-1.1c0.166,0.4,0.933,1.7,2.3,3.9c1.333,2.167,2.116,3.4,2.35,3.7l-1.45,0.7l-5.8-4.5
		c-0.166,0.933-0.25,1.667-0.25,2.2l0.65,2c0.467,1.4,0.8,2.283,1,2.65l-0.95,0.5L138,24.55c-0.833,0.9-3.533,4.483-8.1,10.75
		c-4.2,5.833-7.65,10.017-10.35,12.55l0.4,0.5L120.25,48.6z M58.3,83.1c0.867-0.566,2.217-0.816,4.05-0.75
		c0.933-0.033,2.1,0.051,3.5,0.25c0.9-0.066,1.35-0.85,1.35-2.35c0-1.566-0.117-3-0.35-4.3c0.9,0,1.667,0.566,2.3,1.7
		c0.6,1.1,0.9,2.449,0.9,4.05l0.15,1.8C65.8,83.434,61.833,83.3,58.3,83.1z M14.65,56.35c1.4,0.334,2.8,0.617,4.2,0.851
		c-1.434,2.8-2.65,5.383-3.65,7.75C14.833,60.616,14.65,57.75,14.65,56.35z M13.2,76.4h0.15c0.8,0,1.483-0.217,2.05-0.65
		c0.633-0.3,1.55-1.134,2.75-2.5c1.5-1.667,2.333-3.167,2.5-4.5l0.25-1.3c0.4,1.333,0.667,3.35,0.8,6.05l0.15,2.8l0.05,1.45
		L13.2,76.4z M39.15,80.45c0.133-2.5,0.233-3.967,0.3-4.4c0.1-0.566,0.417-1.517,0.95-2.85l0.25,0.649
		c0,0.067,0.267,1.517,0.8,4.351c0.233,1.333,0.517,2.267,0.85,2.8l-0.95,0.05h-1c-0.1,0-0.217,0-0.35,0L39.15,80.45z M33.6,78.5
		l1.3-3.45l0.45,0.65c0.333,0.967,0.517,1.833,0.55,2.6l-0.4-0.25l-0.05,0.05L33.6,78.5z M10.15,75.45L10.7,76
		c-1.8-0.3-3.184-0.917-4.15-1.85c0.167-0.267,0.483-1.284,0.95-3.051c0.467-1.699,0.717-2.699,0.75-3
		c0.133,0.334,0.45,1.567,0.95,3.7C9.667,73.866,9.983,75.083,10.15,75.45z M153.1,16.75l-1.449,0.7
		c-0.667-1.534-1.967-3.35-3.9-5.45c-1.866-2.033-3.316-3.25-4.35-3.65l0.1-6.3c2.434,3.167,4.217,5.4,5.35,6.7
		C149.017,9.017,150.434,11.683,153.1,16.75z M251.05,71.65l4.95-2l0.15,1.899l-3.801-0.05L251.05,71.65z M36.8,61.25
		c-0.466,2.134-0.783,3.833-0.95,5.1c-0.2,1.567-0.317,3.733-0.35,6.5l-0.05-1.55c-0.2-1.8-0.583-4.267-1.15-7.399
		c-0.767-4-1.25-6.634-1.45-7.9c0.566-0.167,5.783-1.65,15.65-4.45c-4.133,2.334-6.467,3.634-7,3.9
		c-0.2,0.133-0.917,0.583-2.15,1.35l-1.3,0.55c-0.367,0.134-0.65,0.75-0.85,1.851c-0.1,0.566-0.167,1.1-0.2,1.6v0.05L36.8,61.25z
		 M65.55,59.5c-0.867,0.866-1.417,1.417-1.65,1.65c-0.3,0.267-0.65,0.399-1.05,0.399c-0.7,0.033-1.45-0.033-2.25-0.2
		c-1.567-0.366-2.717-1.033-3.45-2l0.9-0.35L65.55,59.5z M76.4,71.2c0.067,0.333,0.167,0.833,0.3,1.5
		c0.133,0.6,0.066,1.116-0.2,1.55C76.467,73.15,76.433,72.134,76.4,71.2z M84.75,53.6c-1.667,3.334-3.267,6.134-4.8,8.4
		c-2.233,3.267-3.434,5.9-3.6,7.9c-0.067-2.034-0.117-3.601-0.15-4.7c-0.133-3.066-0.917-5.2-2.35-6.4
		c1.1,0.033,3.083-0.733,5.95-2.3C81.3,55.667,82.95,54.7,84.75,53.6z M103.35,62.45c0,3.233-0.483,5.2-1.45,5.899
		c-0.8,0.601-2.983,0.9-6.55,0.9c-0.633,0-1.25-0.15-1.85-0.45l1-0.2c5.067-0.333,7.3-4.517,6.7-12.55
		C102.633,58.05,103.35,60.184,103.35,62.45z"/>
	<path style="fill-rule:evenodd;clip-rule:evenodd;fill:#7C7367;" d="M254.3,81.95l-0.85,0.55l-4.851,2.75V81.8
		c-0.033,0-0.316-0.333-0.85-1c-1.366,2.3-2.033,3.617-2,3.95c-0.267-0.7-0.434-2.384-0.5-5.05c0.366,0.733,0.967,1.166,1.8,1.3
		c0-0.233,0.066-0.634,0.2-1.2c0.1-0.566,0.15-1.033,0.15-1.399c0-1-0.101-2.034-0.301-3.101c-0.533-0.3-1.066-0.5-1.6-0.6
		c-0.167,0.934-0.2,2.149-0.1,3.649c0.1,1.4,0.017,1.601-0.25,0.601l-0.4-1.101c-0.167,0.134-0.583-0.366-1.25-1.5l-0.25,0.25
		l-0.05-1.5l-0.2-0.6c0.066-0.2-0.066-0.45-0.4-0.75c-0.466-0.4-0.85-0.75-1.149-1.05c-2.667-1.867-4.066-2.851-4.2-2.95l1.25,0.1
		c1.267,0.034,2.434,0.434,3.5,1.2c0.533,0.367,0.95,0.75,1.25,1.15c0.3,0.633,0.667,1.25,1.1,1.85
		c2.2-0.733,4.051-1.383,5.551-1.95c1.033-0.133,1.85-0.333,2.449-0.6l3.801,0.05L256,69.65l-0.25-1.4
		c-0.3-1.033-0.65-2.066-1.05-3.1c1.399,0,2.616,0.716,3.649,2.149l0.7,1c0.267,0.467,0.434,0.934,0.5,1.4l-0.05,0.35l-0.65,0.4
		c-0.666-1-1.283-1.884-1.85-2.65l-0.5-0.649c0.1,2-0.017,3.3-0.35,3.899l0.449-0.1c0.267,0,0.4,0.2,0.4,0.6
		c0,0.4,0.316,0.566,0.95,0.5c0.366-0.066,0.983-0.166,1.85-0.3C256.634,77.517,254.8,80.917,254.3,81.95z M240.5,87.75l-3.85,0.2
		c0.133-0.101,0.767-0.617,1.899-1.55c1.434-1.2,2.967-2.667,4.601-4.4c-0.034,1.033-0.184,2.116-0.45,3.25
		c-0.3,1.1-0.617,1.9-0.95,2.4L240.5,87.75z M230.85,88c0-2.033,0.2-3.767,0.601-5.2c0.399-1.467,0.883-2.2,1.45-2.2
		c0.566,0,1.05,0.733,1.449,2.2c0.4,1.434,0.584,3.167,0.551,5.2H230.85z M219.8,87.45c0-1,0.084-1.851,0.25-2.55
		c0.167-0.7,0.384-1.167,0.65-1.4s0.517-0.184,0.75,0.15c0.233,0.333,0.434,0.899,0.6,1.699c0.134,0.767,0.184,1.517,0.15,2.25
		L219.8,87.45z M159.05,72.7c0.634-0.834,2.084-2.084,4.351-3.75c2.066-1.533,3.616-2.566,4.649-3.101l-0.35,0.75
		c-0.9,0.667-1.533,1.567-1.9,2.7c-0.166,0.5-0.35,1.483-0.55,2.95l-0.15,2.6c7.434,0.634,11.75,1,12.95,1.101l0.101,0.2
		c0.033,0.233,0.05,0.55,0.05,0.949c0,0.667-0.101,1.101-0.3,1.301c-0.301,0.333-0.983,0.449-2.051,0.35
		c0.301,1.634,0.084,3.217-0.649,4.75c-0.9,1.934-2.467,3.384-4.7,4.35L167.7,89c0.5-2.267,0.816-3.85,0.95-4.75l0.149-1.55
		c-0.3,1-0.633,1.934-1,2.8c-0.899,1.9-1.5,3.217-1.8,3.95l-0.3,0.1l-0.75,0.15c-0.601,0.066-1.617,0.116-3.05,0.149
		c-1.467,0-2.534-0.033-3.2-0.1c0.833-1.434,1.6-3.95,2.3-7.55c0-2.167,0.333-4.117,1-5.851c1-2.566,1.5-3.866,1.5-3.899
		c-0.033-0.434-0.134-0.75-0.3-0.95l-0.25-0.15c-0.867,0.467-1.934,1.95-3.2,4.45c-0.066-0.033-0.467,0.733-1.2,2.3
		c0.066-0.366,0.101-0.733,0.101-1.1c0-0.566-0.217-0.967-0.65-1.2c-0.634-0.333-1.167-0.934-1.6-1.8
		c0.566,0.233,1.283,0.467,2.149,0.7C158.517,74.134,158.684,73.467,159.05,72.7z M223.8,77.85c-2.6,0.567-4.3,0.851-5.1,0.851
		c-3.233,0-6.101-0.733-8.601-2.2c-2.533-1.467-4.8-2.2-6.8-2.2c-0.467,0-0.967,0.667-1.5,2c-0.434,1.134-0.649,1.851-0.649,2.15
		c0,0.967,0.85,1.967,2.55,3c1.899,1.2,3.066,2.434,3.5,3.7c-0.134,0.399-0.384,0.633-0.75,0.699c-0.367,0.101-0.884,0.15-1.55,0.15
		l-3.351-0.3c-0.366-0.066-0.733-0.134-1.1-0.2c-1.134-0.2-1.95-0.533-2.45-1c-0.733-0.7-1.1-1.866-1.1-3.5
		c0.133-1.134,0.316-2.35,0.55-3.65c0.434-2.6,0.883-4.366,1.35-5.3c1.367,0.033,5.816,0.983,13.351,2.851
		C215.95,75.866,219.833,76.85,223.8,77.85z M191.7,84.75l0.6,0.2l-5.149-0.101l-1.7-0.05c0.833-1.733,2.033-3.033,3.6-3.899
		c0.8-0.4,1.55-0.65,2.25-0.75c0.667,0,1.167,0.1,1.5,0.3c0,0.133,0.05,0.283,0.15,0.45c0.066,0.166,0.1,0.433,0.1,0.8
		c0,0.5-0.283,1.017-0.85,1.55c-0.667,0.634-1.033,1.017-1.101,1.15l0.4,0.3L191.7,84.75z M139.35,58.45
		c2.601,1.166,5.267,3.35,8,6.55c3.7,4.333,5.834,6.75,6.4,7.25c-1.1-0.366-1.783-0.566-2.05-0.6c-0.134-0.2-0.566-0.184-1.3,0.05
		c-0.334-0.167-1.65-1.7-3.95-4.601C143.283,63.134,140.917,60.25,139.35,58.45z M157.5,80.3c-0.2,0.367-0.4,0.767-0.6,1.2
		c-0.9,1.967-1.801,3.917-2.7,5.85l-1,1.15l-0.05,0.05l-5.5-1.55c-0.733-1-1.767-2.083-3.101-3.25c2.066,0.366,4.033,0.55,5.9,0.55
		c2.166,0,4.116-0.883,5.85-2.649C156.767,81.184,157.167,80.733,157.5,80.3z M135.45,74.4c1.8,0,3.35-0.45,4.649-1.351
		c1.267-0.899,1.9-2,1.9-3.3l0.05,0.05l0.101,0.101c0.133,1.333,0.149,3.1,0.05,5.3c-0.066,2.2-0.217,3.967-0.45,5.3
		c-0.033-0.233-0.316-0.65-0.85-1.25c-1-1.167-2.851-2.783-5.55-4.85H135.45z M84.75,53.6c1.933-1.033,5.367-2.416,10.3-4.149
		c3.034-1.066,5.117-2.434,6.25-4.101c1.767-0.466,5.934-2.633,12.5-6.5c5.6-3.3,9.65-4.783,12.15-4.45h0.5
		c-2.3,1.233-4.4,3.55-6.3,6.95c-1.867,3.3-2.617,5.9-2.25,7.8c0.8,4.033-0.35,8.666-3.45,13.899c-0.3,0.467-1.517,2.316-3.65,5.55
		c-1.233,1.9-1.966,3.301-2.2,4.2c-2.6,1.233-5.017,2.233-7.25,3c-6.2,2.134-9.7,3.351-10.5,3.65l-1.45-0.5l0.25,0.95
		c-0.033,0.1-0.85,0.433-2.45,1c-1.467,0.533-2.383,0.85-2.75,0.949c-1.967,0.733-3.534,1.217-4.7,1.45
		c-1.833,0.334-5.017,0.4-9.55,0.2l-0.15-1.8c2.7-0.5,4.367-2.55,5-6.15c0.434-2.633,0.35-4.95-0.25-6.95
		c0.467-1.666,0.534-3.449,0.2-5.35c-0.367-2.167-1.183-3.566-2.45-4.2l1.3-0.25c1.433,1.2,2.217,3.334,2.35,6.4
		c0.033,1.1,0.083,2.666,0.15,4.7c0.167-2,1.367-4.634,3.6-7.9C81.483,59.733,83.083,56.934,84.75,53.6z M90.55,66.05
		c2.434-0.166,4.017-0.616,4.75-1.35c2.3-2.3,4.133-5.533,5.5-9.7c-2.5-1.533-6.1-0.767-10.8,2.3c-4.4,2.867-6.6,5.084-6.6,6.65
		c0,0.666,0.7,1.85,2.1,3.55C86.4,66.7,88.083,66.217,90.55,66.05z M81.55,69c-0.4,0-0.733,0.116-1,0.35
		c-0.3,0.2-0.45,0.45-0.45,0.75c0,0.301,0.15,0.567,0.45,0.801c0.267,0.199,0.6,0.3,1,0.3c0.4,0,0.75-0.101,1.05-0.3
		c0.267-0.233,0.4-0.5,0.4-0.801c0-0.3-0.133-0.55-0.4-0.75C82.3,69.116,81.95,69,81.55,69z M76.4,71.2
		c0.033,0.934,0.067,1.95,0.1,3.05c0.267-0.434,0.333-0.95,0.2-1.55C76.567,72.033,76.467,71.533,76.4,71.2z M39.15,80.45L35.9,78.3
		c-0.033-0.767-0.217-1.633-0.55-2.6l-0.45-0.65l-1.3,3.45l-1.85,0.15c0.333-0.667,0.95-1.684,1.85-3.051
		c0.733-1.3,1.1-2.6,1.1-3.899c0-1.967-0.75-4.334-2.25-7.101c-1.567-2.899-3.333-5.066-5.3-6.5l-0.3-0.199L26.2,57.55
		c1.1,0,3.316-0.517,6.65-1.55c0.2,1.267,0.683,3.9,1.45,7.9c0.567,3.133,0.95,5.6,1.15,7.399l0.05,1.55
		c0.033-2.767,0.15-4.933,0.35-6.5c0.167-1.267,0.483-2.966,0.95-5.1c-0.066,1.5-0.316,4-0.75,7.5c0,3.167,0.1,5.1,0.3,5.8
		c0.2,0.767,0.767,1.15,1.7,1.15c0.667,0,1.2-0.5,1.6-1.5c0.333-0.767,0.817-2.483,1.45-5.15c0.033,0.334,0.017,2.033-0.05,5.101
		c0,3.433,1.8,5.5,5.4,6.199c1.1,0.233,2.917,0.517,5.45,0.851c2.4,0.399,4.434,1.017,6.1,1.85L56.6,83
		c-4.033-0.4-7.367-0.833-10-1.3c-1.9-0.367-2.917-0.566-3.05-0.601h-0.3L42.3,81c-0.333-0.533-0.617-1.467-0.85-2.8
		c-0.534-2.834-0.8-4.283-0.8-4.351L40.4,73.2c-0.533,1.333-0.85,2.283-0.95,2.85C39.383,76.483,39.283,77.95,39.15,80.45z
		 M21.85,76.3l-0.15-2.8l0.4-0.6v1.05C22.067,74.816,21.983,75.6,21.85,76.3z M13.2,76.4L10.75,76l-0.6-0.55
		c-0.167-0.367-0.483-1.584-0.95-3.65c-0.5-2.133-0.817-3.366-0.95-3.7C8.217,68.4,7.967,69.4,7.5,71.1
		c-0.467,1.767-0.783,2.784-0.95,3.051c-3-2.367-4.733-4.184-5.2-5.45C2.15,68.967,3.1,69.1,4.2,69.1c1.4,0,2.35-0.1,2.85-0.3
		c0.667-0.267,1.217-0.883,1.65-1.85l0.45-0.75c0.033,3.166,0.684,5.633,1.95,7.399c1.167,1.667,2.6,2.384,4.3,2.15
		c-0.566,0.434-1.25,0.65-2.05,0.65H13.2z M14.65,56.35c0,1.4,0.184,4.267,0.55,8.601c1-2.367,2.216-4.95,3.65-7.75
		c1.833,0.233,3.867,0.35,6.1,0.35L24.7,58.7c-4.667,1.066-7.184,1.899-7.55,2.5c-0.267,0.366-0.6,3.55-1,9.55l-3.2-1.25l-0.5-0.4
		l2.7-0.05c0.033,0.167,0.05-0.083,0.05-0.75c0-3.733-0.317-6.55-0.95-8.45c-0.733-2.166-2-3.55-3.8-4.149
		c-0.4,0.033-0.684,0.333-0.85,0.899c-0.1,0.4-0.167,1.117-0.2,2.15l-1.25-1.7L8.1,59.2c-0.367-1.9-1.133-3.117-2.3-3.65
		C4.6,55.316,3.883,55.134,3.65,55c-0.433-0.267-0.85-0.616-1.25-1.05c-0.633-0.733-1.367-1.467-2.2-2.2l1.15-0.65
		C7.917,53.866,12.35,55.616,14.65,56.35z M266.5,62.6c0.267-0.566,0.934-1.699,2-3.399c0.667-1.033,1.233-1.917,1.7-2.65l0.149,2
		c0,3.066-0.649,6.066-1.949,9c-0.233-0.467-0.567-1.233-1-2.3C266.934,64.05,266.634,63.167,266.5,62.6z M263.65,64.45l-1.5-1.7
		c-0.067-0.066-0.917-0.6-2.551-1.6l-1.149-0.75c1.467,0.1,2.649,0.399,3.55,0.899l0.7,0.5c0.767,0.733,1.416,1.55,1.95,2.45
		L263.65,64.45z M227.45,78.05L227.9,78l1.1-0.15c-0.233,1.5-0.533,3.034-0.9,4.601L227.9,82.9
		C227.8,80.934,227.65,79.316,227.45,78.05z M232.9,77.25l-2.15,2.05c-0.934-0.7-1.5-1.184-1.7-1.45L232.9,77.25z M45.3,58.2
		l-2.65,0.1l0.25-0.149L45.3,58.2z M58.05,59l-0.9,0.35c0.733,0.967,1.883,1.634,3.45,2c0.8,0.167,1.55,0.233,2.25,0.2
		c0.4,0,0.75-0.133,1.05-0.399c0.233-0.233,0.783-0.784,1.65-1.65c2.5-0.4,4.267-0.3,5.3,0.3c0.1,0.066,0.6,0.667,1.5,1.8
		c-0.633-0.3-1.083-0.5-1.35-0.6c-0.4-0.167-0.817-0.25-1.25-0.25c-0.533,0-1.017,0.3-1.45,0.9c-0.433,0.6-0.933,0.899-1.5,0.899
		c-2.767,0-5.167-0.366-7.2-1.1c-4.333-1.566-7.267-2.55-8.8-2.95L58.05,59z M143,10.3l0.15-0.7l0.25-1.25
		c1.033,0.4,2.483,1.617,4.35,3.65c1.934,2.1,3.233,3.917,3.9,5.45l-4.601,2.3c-0.233-0.3-1.017-1.533-2.35-3.7
		c-1.367-2.2-2.134-3.5-2.3-3.9C142.6,11.583,142.8,10.967,143,10.3z M145.6,20.45L141.2,22.8c-0.2-0.367-0.533-1.25-1-2.65l-0.65-2
		c0-0.533,0.084-1.267,0.25-2.2L145.6,20.45z M113.6,43.4c-1.967,2.067-3.017,3.167-3.15,3.3c-0.4,0.434-0.983,1.366-1.75,2.8
		c-0.9,1.6-1.35,2.717-1.35,3.35c0,1,0.4,1.75,1.2,2.25c0.5,0.301,0.95,0.45,1.35,0.45c0.633,0,1.533-1.35,2.7-4.05
		c1.133-2.634,2-5.316,2.6-8.05C115.9,41.75,115.367,41.733,113.6,43.4z M107.9,60.4c-0.2-0.267-0.433-0.4-0.7-0.4
		c-0.267,0-0.5,0.134-0.7,0.4s-0.3,0.6-0.3,1c0,0.399,0.1,0.733,0.3,1s0.433,0.399,0.7,0.399c0.267,0,0.5-0.133,0.7-0.399
		c0.2-0.267,0.3-0.601,0.3-1C108.2,61,108.1,60.667,107.9,60.4z M103.35,62.45c0-2.267-0.717-4.4-2.15-6.4
		c0.6,8.033-1.633,12.217-6.7,12.55l-1,0.2c0.6,0.3,1.217,0.45,1.85,0.45c3.566,0,5.75-0.3,6.55-0.9
		C102.867,67.65,103.35,65.684,103.35,62.45z M134.55,55.4l0.1-0.301l3.7,2.25l-0.55,1.301c-0.767,0.533-1.583,1.517-2.45,2.949
		c-0.767,1.267-1.583,2.067-2.45,2.4c-0.367,0.167-0.883,0.167-1.55,0l-0.75-0.3c0.033,0,0.45,0.05,1.25,0.149
		c0.7,0.067,1.05,0.117,1.05,0.15c0.7-0.7,1.15-1.384,1.35-2.05C134.617,60.884,134.717,58.7,134.55,55.4z M127.45,52.05l0.2-0.3
		l1.95,0.85l-0.55,2.351L128.9,55c-0.133-0.467-0.233-0.85-0.3-1.15C128.433,53.283,128.05,52.684,127.45,52.05z M62.35,82.35
		C63.917,80.816,65,79.9,65.6,79.6c-0.1-1.733-0.133-4.8-0.1-9.199c0.033,0.3,0.483,2.149,1.35,5.55c0.233,1.3,0.35,2.733,0.35,4.3
		c0,1.5-0.45,2.283-1.35,2.35C64.45,82.4,63.283,82.316,62.35,82.35z"/>
	<path style="fill-rule:evenodd;clip-rule:evenodd;fill:#B3AA9E;" d="M143.15,9.6l-0.851,1.25c-2.833,3.333-9.4,8.8-19.7,16.4
		C110.3,36.317,102.233,42.567,98.4,46c-0.066,0.066-1.65,0.634-4.75,1.7c-3.667,1.233-7.15,2.733-10.45,4.5
		c-2.1,1.467-4.233,2.616-6.4,3.45c-3.966,1.466-9.35,2.199-16.15,2.199c-0.967,0-1.867-0.116-2.7-0.35
		c-2.2-0.566-6.8-1.384-13.8-2.45c1.967-1.033,3.9-2.149,5.8-3.35c1.7-1.101,4.733-3.184,9.1-6.25l-1,0.649
		c-2.233,1.301-7.283,3.301-15.15,6C33.6,55.3,27,56.9,23.1,56.9c-2.467,0-5.967-0.884-10.5-2.65c-5.067-2-9.15-3.184-12.25-3.55
		L0,50.55c8.933-6.633,15.8-10.983,20.6-13.05c1.533-0.667,3.95-1.633,7.25-2.9c3.5-1.367,7.183-3.017,11.05-4.95
		c6.5-3.233,14.283-8.433,23.35-15.6c3.2-2.533,5.767-4.283,7.7-5.25c2.633-1.333,5.367-2,8.2-2c0.667,0,3.633,0.25,8.9,0.75
		c0.6,0,2.017-0.1,4.25-0.3c2.467-0.233,4.333-0.45,5.6-0.65c-0.1,0.033-0.566,0.367-1.4,1c-0.867,0.7-1.417,1.167-1.65,1.4
		c1.133,0.167,1.967,0.25,2.5,0.25c1.3,0,2.433-0.333,3.4-1c0.333-0.2,1.467-1.133,3.4-2.8c3.033-0.7,7.217-1.85,12.55-3.45
		c5.333-1.333,10.917-2,16.75-2c0.267,0,1.583,0.2,3.95,0.6c2.933,0.467,5.3,0.95,7.1,1.45l-0.1,6.3L143.15,9.6z M99.75,13.95
		c0.267-0.167,0.4-0.35,0.4-0.55c0-0.2-0.133-0.367-0.4-0.5c-0.3-0.167-0.65-0.25-1.05-0.25c-0.4,0-0.733,0.083-1,0.25
		c-0.3,0.133-0.45,0.3-0.45,0.5c0,0.2,0.15,0.383,0.45,0.55c0.267,0.133,0.6,0.2,1,0.2C99.1,14.15,99.45,14.083,99.75,13.95z
		 M143,10.3c-0.2,0.667-0.4,1.284-0.6,1.85l-0.551,1.1C142.283,12.317,142.667,11.333,143,10.3z M141.2,22.8l4.399-2.35l1.45-0.7
		l4.601-2.3l1.449-0.7l4.5-2c-5.233,4.133-8.183,6.45-8.85,6.95c-2.134,1.566-3.684,2.35-4.65,2.35c-0.8,0-2.083-0.25-3.85-0.75
		L141.2,22.8z M259.05,68.3l-0.7-1l5.4-2.149c0.634-0.101,0.167,0.333-1.4,1.3C260.983,67.316,259.884,67.934,259.05,68.3z
		 M254.7,59.9c-1.3,0-2.816-0.15-4.55-0.45c-2.334-0.434-3.884-1.017-4.65-1.75l13,1c-0.267,0.333-0.833,0.633-1.7,0.899
		C256.033,59.8,255.333,59.9,254.7,59.9z M243.25,72.2c5.267-1.601,9.434-2.917,12.5-3.95l0.25,1.4l-4.95,2L249.9,72.1
		c-1.5,0.567-3.351,1.217-5.551,1.95C243.917,73.45,243.55,72.833,243.25,72.2z M223.8,77.85c-3.967-1-7.85-1.983-11.649-2.949
		c-7.534-1.867-11.983-2.817-13.351-2.851c-21.133,1.8-32.366,2.733-33.7,2.8l0.15-2.6c2.833-0.233,8.5-0.866,17-1.9
		c7.467-0.899,11.8-1.35,13-1.35c1.7,0,5.833,1.083,12.4,3.25c6.533,2.134,12.466,3.2,17.8,3.2c0.399,0,2.649-0.334,6.75-1
		c4.5-0.733,7.583-1.316,9.25-1.75c0.3,0.3,0.684,0.649,1.149,1.05c0.334,0.3,0.467,0.55,0.4,0.75c-0.066,0-3.434,0.917-10.1,2.75
		l-3.851,0.6H229L227.9,78l-0.551,0.05C226.184,78.05,225,77.983,223.8,77.85z M245.25,79.7l-0.1-0.75c0.267,1,0.35,0.8,0.25-0.601
		c-0.101-1.5-0.067-2.716,0.1-3.649c0.533,0.1,1.066,0.3,1.6,0.6c0.2,1.066,0.301,2.101,0.301,3.101c0,0.366-0.051,0.833-0.15,1.399
		c-0.134,0.566-0.2,0.967-0.2,1.2C246.217,80.866,245.616,80.434,245.25,79.7z M221.4,40.4c1.333,0,3.149-0.35,5.449-1.05
		c-1.833,0.9-2.916,1.4-3.25,1.5c-1.466,0.433-2.733,0.3-3.8-0.4C219.833,40.417,220.366,40.4,221.4,40.4z M221.55,48.05
		c1.233-0.8,2.667-1.583,4.3-2.35l1.301,0.35c-0.167,0.566-0.417,1.101-0.75,1.601C225.8,48.616,225,49.1,224,49.1
		c-0.566,0-1.1-0.1-1.6-0.3C221.833,48.6,221.55,48.35,221.55,48.05z M170.65,23.85c0.8,0.7,1.199,1.25,1.199,1.65
		c0,0.9-0.433,1.683-1.3,2.35c-0.899,0.7-2.033,1.05-3.399,1.05c-4.167-1.767-6.617-3.183-7.351-4.25c0.733-0.5,3.533-1.15,8.4-1.95
		c0.566,0,0.967,0.083,1.2,0.25C169.434,22.983,169.85,23.283,170.65,23.85z M182.15,33.05v1.25h-4.4v-1.25H182.15z M168.4,44.55
		c1.1-0.833,2.449-1.25,4.05-1.25c1.6,0,2.967,0.417,4.1,1.25c1.101,0.834,1.65,1.851,1.65,3.05c0,1.2-0.55,2.217-1.65,3.051
		c-1.133,0.833-2.5,1.25-4.1,1.25c-1.601,0-2.95-0.417-4.05-1.25c-1.134-0.834-1.7-1.851-1.7-3.051
		C166.7,46.4,167.267,45.384,168.4,44.55z M181.15,46.7l1.35,0.3c0.9,0.233,1.35,0.517,1.35,0.85
		c-0.066,0.233-0.433,0.351-1.1,0.351l-1-0.101c-0.3-0.199-0.5-0.449-0.6-0.75V46.7z M227.2,59c-0.033,0.033-1.417,0.866-4.15,2.5
		c-1.5,0.134-2.5,0.05-3-0.25c-0.3-0.134-0.5-0.467-0.6-1c0.333-0.8,0.8-1.316,1.399-1.55c1.034-0.4,3.367-0.733,7-1L227.2,59z
		 M238.15,66.95c-0.667,0.666-1.034,1.017-1.101,1.05c-0.5,0.366-1.1,0.55-1.8,0.55c-0.634,0-1.483-0.233-2.55-0.7
		c0.133-0.267,2.066-1.1,5.8-2.5C238.5,65.55,238.384,66.083,238.15,66.95z M206.9,76.2c0.699,0.467,3.35,1.3,7.949,2.5
		c-3.699-0.434-5.883-0.65-6.55-0.65l-4.5,1.25l-0.25,0.05c0.434-1.699,0.684-2.683,0.75-2.949c0.101-0.267,0.75-0.4,1.95-0.4
		C206.517,76,206.733,76.066,206.9,76.2z M238.55,80.4c-0.233,0.267-0.5,0.399-0.8,0.399S237.2,80.667,237,80.4
		c-0.233-0.267-0.35-0.601-0.35-1c0-0.4,0.116-0.733,0.35-1c0.2-0.267,0.45-0.4,0.75-0.4s0.566,0.134,0.8,0.4
		c0.2,0.267,0.3,0.6,0.3,1C238.85,79.8,238.75,80.134,238.55,80.4z M26.15,57.55l0.7,0.351l0.3,0.199
		c-0.033,0.301-0.217,1.217-0.55,2.75c-0.367,1.5-0.617,2.45-0.75,2.851c-0.3-0.467-0.55-0.983-0.75-1.55
		c-0.367-1.034-0.5-2.184-0.4-3.45l0.25-1.15H26.15z M37,60.8c0.033-0.5,0.1-1.033,0.2-1.6c0.2-1.101,0.483-1.717,0.85-1.851
		C37.517,58.116,37.167,59.267,37,60.8z M42.9,58.15L42.65,58.3c-0.767,0.934-1.667,2.834-2.7,5.7c-1.034,2.9-1.817,5.717-2.35,8.45
		c-0.434-1.4-0.75-3.184-0.95-5.351c0.633-2.3,1.184-4.1,1.65-5.399c0.833-2.4,1.684-3.601,2.55-3.601L42.9,58.15z M139.35,58.45
		c-0.5,3.133-0.949,6.434-1.35,9.899c-0.366,1.867-1.267,2.801-2.7,2.801c-0.7,0-1.167-0.317-1.4-0.95
		c-0.066-0.233-0.1-0.584-0.1-1.05c0-0.634,0.617-2.467,1.85-5.5c1-2.467,1.716-4.134,2.15-5l0.55-1.301l-3.7-2.25l-0.1,0.301
		c-0.033,0.6-0.25,1.267-0.65,2c-0.367,0.699-0.7,1.116-1,1.25h-0.35l0.3-4.5l0.6,0.3L132.6,54l-0.05,0.05
		c-0.4,1.267-1.017,2.783-1.85,4.55c-0.967,1.934-1.7,3.117-2.2,3.551l-0.7,0.6c0.1-0.434,0.317-1.6,0.65-3.5
		c0.367-2.167,0.566-3.6,0.6-4.3l0.55-2.351l-1.95-0.85l-0.2,0.3c-2.434,3.9-3.8,6.15-4.1,6.75c-0.267,0.566-0.567,1.55-0.9,2.95
		c0.267-5.434,0.517-9.316,0.75-11.65l-2.25-1.05c-0.133-0.1-0.267-0.184-0.4-0.25c-0.233-0.166-0.433-0.316-0.6-0.45l-0.4-0.5
		c2.7-2.533,6.15-6.716,10.35-12.55c4.567-6.267,7.267-9.85,8.1-10.75c-0.667,1.867-2.233,4.583-4.7,8.15c-3.5,5.1-6.1,9.1-7.8,12
		c9.667,3.767,16.767,9.25,21.3,16.45c2.566,4.033,4.134,6.366,4.7,7c1.934,2.199,4.45,3.716,7.55,4.55
		c-0.366,0.767-0.533,1.434-0.5,2c-0.866-0.233-1.583-0.467-2.149-0.7l-2.65-1.75c-0.566-0.5-2.7-2.917-6.4-7.25
		C144.616,61.8,141.95,59.616,139.35,58.45z M137.5,6c0-0.267-0.15-0.483-0.45-0.65c-0.3-0.2-0.666-0.3-1.1-0.3s-0.8,0.1-1.1,0.3
		c-0.3,0.167-0.45,0.383-0.45,0.65s0.15,0.5,0.45,0.7c0.3,0.167,0.667,0.25,1.1,0.25s0.8-0.083,1.1-0.25
		C137.35,6.5,137.5,6.267,137.5,6z M131.75,3.85v-1.6h-4.25v1.6H131.75z M126.9,16.8c-0.167-1.4-0.917-1.716-2.25-0.95
		c-0.967,0.533-2.033,1.467-3.2,2.8c0.7,0.167,1.25,0.25,1.65,0.25c1.267,0,2.233-0.3,2.9-0.9C126.333,17.7,126.633,17.3,126.9,16.8
		z M147.45,37c0.467,0.2,0.7,0.45,0.7,0.75s-0.233,0.567-0.7,0.8c-0.467,0.2-1.017,0.3-1.65,0.3c-0.633,0-1.184-0.1-1.649-0.3
		c-0.467-0.233-0.7-0.5-0.7-0.8s0.233-0.55,0.7-0.75c0.466-0.233,1.017-0.35,1.649-0.35C146.434,36.65,146.983,36.767,147.45,37z
		 M114.2,6.75c0.2-0.2,0.3-0.45,0.3-0.75s-0.1-0.55-0.3-0.75c-0.2-0.2-0.45-0.3-0.75-0.3c-0.3,0-0.55,0.1-0.75,0.3
		c-0.2,0.2-0.3,0.45-0.3,0.75s0.1,0.55,0.3,0.75c0.2,0.2,0.45,0.3,0.75,0.3C113.75,7.05,114,6.95,114.2,6.75z M105.05,5.75
		c-0.533,0.2-0.8,0.45-0.8,0.75c0,0.433,0.083,0.7,0.25,0.8l1,0.2c0.7,0,1.45-0.183,2.25-0.55c0.333-0.167,1.917-1.017,4.75-2.55
		C108.633,4.933,106.15,5.383,105.05,5.75z M110.4,18.35c-0.3-0.2-0.65-0.3-1.05-0.3s-0.75,0.1-1.05,0.3
		c-0.3,0.167-0.45,0.367-0.45,0.6c0,0.233,0.15,0.45,0.45,0.65c0.3,0.167,0.65,0.25,1.05,0.25s0.75-0.083,1.05-0.25
		c0.3-0.2,0.45-0.417,0.45-0.65C110.85,18.717,110.7,18.517,110.4,18.35z M107.55,17.05l-0.05-1.35
		c-2.133,1.933-3.25,3.05-3.35,3.35c0.333,0.2,0.533,0.317,0.6,0.35c0.233,0.067,0.567,0.1,1,0.1c0.6,0,1.033-0.15,1.3-0.45
		C107.383,18.683,107.55,18.017,107.55,17.05z M101.85,14.35c0-0.367-0.083-0.667-0.25-0.9c-0.2-0.267-0.417-0.4-0.65-0.4
		c-0.233,0-0.434,0.133-0.6,0.4c-0.2,0.233-0.3,0.533-0.3,0.9s0.1,0.683,0.3,0.95c0.167,0.233,0.367,0.35,0.6,0.35
		c0.233,0,0.45-0.117,0.65-0.35C101.767,15.033,101.85,14.717,101.85,14.35z M91.2,37.15c0.4-0.033,0.55-0.017,0.45,0.05
		c-0.167,0.1-0.45,0.367-0.85,0.8c0.034,0.333,0.517,0.5,1.45,0.5c0.3,0,0.65-0.067,1.05-0.2c0.6-0.2,1-0.5,1.2-0.9l-2.3-0.6
		c0.267,0.034,0.367-0.167,0.3-0.6c-0.233-0.434-0.35-0.7-0.35-0.8l-2.65,0.65l0.1,0.55C89.967,36.967,90.5,37.15,91.2,37.15z
		 M82.4,30.8c-0.4,0.233-0.617,0.434-0.65,0.6c0.1,0.367,0.6,0.55,1.5,0.55c1.7,0,2.95-0.117,3.75-0.35
		c1.433-0.4,2.267-1.25,2.5-2.55c-1.333,0.333-2.55,0.684-3.65,1.05c-0.6,0.2-1.133,0.3-1.6,0.3c0.867-0.133,1.8-0.75,2.8-1.85
		c0.867-0.933,1.35-1.65,1.45-2.15h-4.35c-1.867,0.167-3.367,0.583-4.5,1.25c-1.033,0.633-1.55,1.317-1.55,2.05
		c0,0.4,0.083,0.65,0.25,0.75c0.167,0.133,0.25,0.216,0.25,0.25C79.933,30.867,81.2,30.9,82.4,30.8z M83.5,33.4
		c-0.067-0.167-0.183-0.3-0.35-0.4c-0.3-0.2-0.65-0.3-1.05-0.3s-0.733,0.1-1,0.3c-0.3,0.167-0.45,0.367-0.45,0.6
		s0.15,0.45,0.45,0.65c0.267,0.167,0.6,0.25,1,0.25s0.75-0.083,1.05-0.25c0.167-0.133,0.283-0.283,0.35-0.45
		c0.067,0.067,0.15,0.133,0.25,0.2c0.2,0.1,0.45,0.15,0.75,0.15s0.55-0.05,0.75-0.15s0.3-0.233,0.3-0.4c0-0.167-0.1-0.3-0.3-0.4
		c-0.2-0.1-0.45-0.15-0.75-0.15s-0.55,0.05-0.75,0.15C83.65,33.267,83.567,33.333,83.5,33.4z M75.6,45.15
		c1,0.3,1.733,0.383,2.2,0.25c0.9-0.233,2.067-1.134,3.5-2.7c0.567-0.367,0.917-0.733,1.05-1.1c0.033-0.067,0.083-0.467,0.15-1.2
		c-6.1-0.167-10.633,0.983-13.6,3.45c-1.8,1.466-2.7,2.817-2.7,4.05c0,0.666,0.383,0.85,1.15,0.55c0.8,0.066,2.1-0.283,3.9-1.05
		C72.883,46.7,74.333,45.95,75.6,45.15z M151.7,71.65c0.5,0.633,0.833,1.267,1,1.899c0.1,0.367,0.149,0.884,0.149,1.55
		c0,2.334-0.233,3.9-0.699,4.7c-0.434,0.8-1.334,1.2-2.7,1.2c-1.467,0-2.634-0.434-3.5-1.3c-0.767-0.8-1.15-1.75-1.15-2.851
		c0-1.133,0.733-2.183,2.2-3.149c0.8-0.533,1.934-1.2,3.4-2C151.134,71.467,151.566,71.45,151.7,71.65z M142.05,69.8L142,69.75
		l-0.15-4.4l2-0.3l0.2,2.8c0,0.834-0.116,1.417-0.35,1.75c-0.2,0.267-0.601,0.434-1.2,0.5
		C142.267,69.934,142.116,69.833,142.05,69.8z M62.25,20.3c0.167,0,0.317-0.033,0.45-0.1c0.133-0.1,0.2-0.217,0.2-0.35
		s-0.066-0.233-0.2-0.3c-0.133-0.1-0.284-0.15-0.45-0.15s-0.317,0.05-0.45,0.15c-0.133,0.067-0.2,0.167-0.2,0.3s0.066,0.25,0.2,0.35
		C61.933,20.267,62.083,20.3,62.25,20.3z M78.85,10.4c-0.4,0-0.867,0.383-1.4,1.15L76.8,12.7c1.633,0.1,2.767,0.066,3.4-0.1
		c0.333-0.067,0.883-0.367,1.65-0.9C80.517,10.833,79.517,10.4,78.85,10.4z M72.4,18.6c-1.433,0-2.65,0.267-3.65,0.8
		c-1.033,0.533-1.55,1.184-1.55,1.95c-0.233,0.233-0.417,0.517-0.55,0.85c1.1,0.8,2.017,1.2,2.75,1.2c0.833,0,1.567-0.316,2.2-0.95
		c0.6-0.6,1.566-1.95,2.9-4.05L72.4,18.6z M72.1,22.6c-0.367,1.133-0.567,1.717-0.6,1.75c1.433,0.133,2.5-0.133,3.2-0.8
		c0.533-0.5,1.35-1.783,2.45-3.85C74.617,20.4,72.933,21.367,72.1,22.6z M14.35,43.95c-0.367,0.8-0.617,1.25-0.75,1.35l1.25,0.25
		c1.1-0.033,2.017-0.2,2.75-0.5c0.5-0.233,0.8-0.45,0.9-0.65C16.467,43.533,15.083,43.383,14.35,43.95z M48.15,36.2l-0.5,0.6
		c-1.033,0.934-2.283,1.534-3.75,1.8c-1.566,0.267-2.367,0.417-2.4,0.45c-0.067,0.034-0.85,0.934-2.35,2.7
		c-1.033,1.167-2.233,1.75-3.6,1.75c-3.466-0.3-5.683-0.433-6.65-0.4c0.167,0.167,0.383,0.367,0.65,0.6c0.2,0.233,0.3,0.566,0.3,1
		c0,0.066-0.783,0.733-2.35,2c-1.567,1.233-2.35,2.217-2.35,2.95c0,0.166,0.1,0.649,0.3,1.449c-0.067,0.267-0.267,0.5-0.6,0.7
		c0.9-0.333,1.967-0.816,3.2-1.45c1.633-0.833,3.6-1.916,5.9-3.25l-0.15,0.45c-1.9,1.9-3.017,3.066-3.35,3.5L30.9,51.4l0.05,0.1
		c0.1,0.033,0.35,0.05,0.75,0.05c1.066,0,4.2-1.767,9.4-5.3c4.967-3.4,7.733-5.517,8.3-6.35l-0.45,0.35
		c-2.967,0.9-4.5,1.35-4.6,1.35l0.75-0.3c0.533-0.133,1.133-0.833,1.8-2.1C47.433,38.2,47.85,37.2,48.15,36.2z M37.85,35.05
		c-1.133,0.3-2.233,0.7-3.3,1.2c-2.133,1.033-3.2,2.15-3.2,3.35c0,1.566,1.217,1.867,3.65,0.9s4.05-2.333,4.85-4.1
		C39.183,35.5,38.517,35.05,37.85,35.05z M8.1,59.2l0.05-2.15l1.25,1.7L10.15,60c0.467,0.9,0.7,1.55,0.7,1.95
		c0,0.934-0.05,1.75-0.15,2.45c0.2,0.1-0.034,0.149-0.7,0.149c-0.6,0-1.033-0.333-1.3-1C8.367,62.75,8.167,61.3,8.1,59.2z M18.3,71
		c-0.133-0.1-0.2-0.366-0.2-0.8c0.367-1.134,0.667-2.384,0.9-3.75c0.467-2.667,0.417-4.7-0.15-6.101l1.65-0.3
		c-0.133,6.434-0.7,10.15-1.7,11.15C18.567,71.134,18.4,71.066,18.3,71z M67.25,67.45c0.833,0.6,1.5,1.8,2,3.6
		c0.533,1.867,0.733,3.867,0.6,6c-1.867-2.3-2.8-4.467-2.8-6.5L67.25,67.45z M54.9,60.95h0.15c0.1,0.1,0.15,0.35,0.15,0.75
		c0,0.467-0.184,0.783-0.55,0.95c-0.6,0.166-1.167,0.333-1.7,0.5l-0.5,0.149c0.767,0.134,2.216,0.267,4.35,0.4l1.05,0.1
		c-0.5,0.434-1.467,0.717-2.9,0.851c-2.467,0.233-3.817,0.383-4.05,0.449c-3.5,0.634-5.483,2.617-5.95,5.95l-0.15,0.9l0.05-3.7
		c-0.033,0.267-0.467,1.917-1.3,4.95l-0.25,1.1l-0.4,0.75l-0.1-2.3c0-2.333,0.467-4.967,1.4-7.9c0.966-3,1.85-4.5,2.65-4.5
		c0.9,0,2.217,0.051,3.95,0.15C53.033,60.634,54.4,60.783,54.9,60.95z"/>
	<path style="fill-rule:evenodd;clip-rule:evenodd;fill:#9B9286;" d="M253.45,82.5l0.85-0.55c0.066-0.066,0.884-0.45,2.45-1.15
		C255.783,81.267,254.684,81.833,253.45,82.5z M241.75,87.65l2.4-0.2c-1.167,0.133-2.384,0.233-3.65,0.3L241.75,87.65z
		 M236.65,87.95L234.9,88c0.033-2.033-0.15-3.767-0.551-5.2c-0.399-1.467-0.883-2.2-1.449-2.2c-0.567,0-1.051,0.733-1.45,2.2
		c-0.4,1.434-0.601,3.167-0.601,5.2c-3.267-0.1-6.149-0.233-8.649-0.4c0.033-0.733-0.017-1.483-0.15-2.25
		c-0.166-0.8-0.366-1.366-0.6-1.699c-0.233-0.334-0.483-0.384-0.75-0.15s-0.483,0.7-0.65,1.4c-0.166,0.699-0.25,1.55-0.25,2.55
		L204.9,86c0.666,0,1.183-0.05,1.55-0.15c0.366-0.066,0.616-0.3,0.75-0.699c-0.434-1.267-1.601-2.5-3.5-3.7
		c-1.7-1.033-2.55-2.033-2.55-3c0-0.3,0.216-1.017,0.649-2.15c0.533-1.333,1.033-2,1.5-2c2,0,4.267,0.733,6.8,2.2
		c2.5,1.467,5.367,2.2,8.601,2.2c0.8,0,2.5-0.283,5.1-0.851c1.2,0.134,2.384,0.2,3.55,0.2h0.101c0.2,1.267,0.35,2.884,0.45,4.851
		l0.199-0.45c0.367-1.566,0.667-3.101,0.9-4.601h0.05c0.2,0.267,0.767,0.75,1.7,1.45l2.15-2.05c6.666-1.833,10.033-2.75,10.1-2.75
		l0.2,0.6l0.05,1.5c0,1.9-0.033,3.7-0.1,5.4c-1.634,1.733-3.167,3.2-4.601,4.4C237.417,87.333,236.783,87.85,236.65,87.95z
		 M165.7,89.55l0.3-0.1l0.4-0.05L165.7,89.55z M198.55,85.4l1.9,0.1c0.366,0.066,0.733,0.134,1.1,0.2L198.55,85.4z M192.3,84.95
		l-0.6-0.2l0.649,0.2H192.3z M184.15,84.9l1.3-0.101l1.7,0.05C186.15,84.85,185.15,84.866,184.15,84.9z M142,69.75
		c0,1.3-0.634,2.4-1.9,3.3c-1.3,0.9-2.85,1.351-4.649,1.351c-0.067-0.034-2.717-1.851-7.95-5.45c-4.8-3.267-7.417-5.167-7.85-5.7
		c0.033-0.434-0.017-1.55-0.15-3.35c-0.167-1.967-0.25-3.067-0.25-3.301c0-1.566,0.333-4.233,1-8l0.3,0.2
		c0.133,0.066,0.267,0.15,0.4,0.25l2.25,1.05c-0.233,2.334-0.483,6.217-0.75,11.65c0.333-1.4,0.633-2.384,0.9-2.95
		c0.3-0.6,1.667-2.85,4.1-6.75c0.6,0.634,0.983,1.233,1.15,1.8c0.066,0.301,0.167,0.684,0.3,1.15l0.15-0.05
		c-0.033,0.7-0.233,2.133-0.6,4.3c-0.333,1.9-0.55,3.066-0.65,3.5l0.7-0.6c0.5-0.434,1.233-1.617,2.2-3.551
		c0.833-1.767,1.45-3.283,1.85-4.55L132.6,54l0.25,0.15l-0.3,4.5h0.35c0.3-0.134,0.633-0.551,1-1.25c0.4-0.733,0.617-1.4,0.65-2
		c0.167,3.3,0.067,5.483-0.3,6.55c-0.2,0.666-0.65,1.35-1.35,2.05c0-0.033-0.35-0.083-1.05-0.15c-0.8-0.1-1.217-0.149-1.25-0.149
		l0.75,0.3c0.667,0.167,1.183,0.167,1.55,0c0.867-0.333,1.684-1.134,2.45-2.4c0.867-1.433,1.683-2.416,2.45-2.949
		c-0.434,0.866-1.149,2.533-2.15,5c-1.233,3.033-1.85,4.866-1.85,5.5c0,0.466,0.034,0.816,0.1,1.05c0.233,0.633,0.7,0.95,1.4,0.95
		c1.434,0,2.334-0.934,2.7-2.801c0.4-3.466,0.85-6.767,1.35-9.899c1.567,1.8,3.934,4.684,7.101,8.649
		c2.3,2.9,3.616,4.434,3.95,4.601c-1.467,0.8-2.601,1.467-3.4,2c-1.467,0.967-2.2,2.017-2.2,3.149c0,1.101,0.384,2.051,1.15,2.851
		c0.866,0.866,2.033,1.3,3.5,1.3c1.366,0,2.267-0.4,2.7-1.2c0.466-0.8,0.699-2.366,0.699-4.7c0-0.666-0.05-1.183-0.149-1.55
		c-0.167-0.633-0.5-1.267-1-1.899c0.267,0.033,0.95,0.233,2.05,0.6L156.4,74c0.433,0.866,0.966,1.467,1.6,1.8
		c0.434,0.233,0.65,0.634,0.65,1.2c0,0.366-0.034,0.733-0.101,1.1c-0.2,0.733-0.55,1.467-1.05,2.2
		c-0.333,0.434-0.733,0.884-1.2,1.351c-1.733,1.767-3.684,2.649-5.85,2.649c-1.867,0-3.834-0.184-5.9-0.55
		c-0.666-0.667-1.6-1.75-2.8-3.25c0.233-1.333,0.384-3.1,0.45-5.3c0.1-2.2,0.083-3.967-0.05-5.3L142.05,69.8
		c0.066,0.033,0.217,0.134,0.45,0.3c0.6-0.066,1-0.233,1.2-0.5c0.233-0.333,0.35-0.916,0.35-1.75l-0.2-2.8l-2,0.3L142,69.75z
		 M90.85,79.45l-1.2,0.45l-0.25-0.95L90.85,79.45z M81.55,69c0.4,0,0.75,0.116,1.05,0.35c0.267,0.2,0.4,0.45,0.4,0.75
		c0,0.301-0.133,0.567-0.4,0.801c-0.3,0.199-0.65,0.3-1.05,0.3c-0.4,0-0.733-0.101-1-0.3c-0.3-0.233-0.45-0.5-0.45-0.801
		c0-0.3,0.15-0.55,0.45-0.75C80.817,69.116,81.15,69,81.55,69z M90.55,66.05c-2.466,0.167-4.15,0.65-5.05,1.45
		c-1.4-1.7-2.1-2.884-2.1-3.55c0-1.566,2.2-3.783,6.6-6.65c4.7-3.066,8.3-3.833,10.8-2.3c-1.367,4.167-3.2,7.4-5.5,9.7
		C94.567,65.434,92.983,65.884,90.55,66.05z M66.85,75.95c-0.867-3.4-1.317-5.25-1.35-5.55c-0.033,4.399,0,7.466,0.1,9.199
		c-0.6,0.301-1.684,1.217-3.25,2.75c-1.833-0.066-3.184,0.184-4.05,0.75L56.6,83l1.4,0.05c-1.667-0.833-3.7-1.45-6.1-1.85
		c-2.533-0.334-4.35-0.617-5.45-0.851c-3.6-0.699-5.4-2.767-5.4-6.199c0.067-3.067,0.083-4.767,0.05-5.101
		c-0.633,2.667-1.117,4.384-1.45,5.15c-0.4,1-0.933,1.5-1.6,1.5c-0.933,0-1.5-0.384-1.7-1.15c-0.2-0.7-0.3-2.633-0.3-5.8
		c0.434-3.5,0.684-6,0.75-7.5l0.2-0.4c-0.033,0.134-0.05,0.284-0.05,0.45c-0.034,0.5-0.067,1.084-0.1,1.75L36.45,68l0.2-0.9
		c0.2,2.167,0.517,3.95,0.95,5.351c0.533-2.733,1.316-5.55,2.35-8.45c1.033-2.866,1.933-4.767,2.7-5.7l2.65-0.1l5.5,0.3
		c1.534,0.4,4.467,1.384,8.8,2.95c2.033,0.733,4.433,1.1,7.2,1.1c0.567,0,1.067-0.3,1.5-0.899c0.434-0.601,0.917-0.9,1.45-0.9
		c0.433,0,0.85,0.083,1.25,0.25c0.267,0.1,0.717,0.3,1.35,0.6c0.267,0.367,0.65,1.817,1.15,4.351l0.05,0.649
		c0.367,5.301,0.567,8.801,0.6,10.5c0.133-3.767,0.35-6.6,0.65-8.5c0.6,2,0.684,4.317,0.25,6.95c-0.633,3.601-2.3,5.65-5,6.15
		c0-1.601-0.3-2.95-0.9-4.05C68.517,76.517,67.75,75.95,66.85,75.95z M42.3,81l0.95,0.1c-0.6-0.033-1.233-0.05-1.9-0.05L42.3,81z
		 M35.9,78.3l3.25,2.15l0.85,0.6l-4.5-3L35.9,78.3z M15.4,75.75c-1.7,0.233-3.133-0.483-4.3-2.15
		c-1.267-1.767-1.917-4.233-1.95-7.399L8.7,66.95c-0.434,0.967-0.983,1.583-1.65,1.85C6.55,69,5.6,69.1,4.2,69.1
		c-1.1,0-2.05-0.133-2.85-0.399c-0.4-2.033-0.684-5.334-0.85-9.9c-0.133-4.267-0.233-6.616-0.3-7.05L0,50.55l0.35,0.15l1,0.399
		L0.2,51.75c0.833,0.733,1.566,1.467,2.2,2.2c0.4,0.434,0.817,0.783,1.25,1.05c0.233,0.134,0.95,0.316,2.15,0.55
		c1.167,0.533,1.934,1.75,2.3,3.65c0.066,2.1,0.267,3.55,0.6,4.35c0.267,0.667,0.7,1,1.3,1c0.667,0,0.9-0.05,0.7-0.149
		c0.1-0.7,0.15-1.517,0.15-2.45c0-0.4-0.233-1.05-0.7-1.95L9.4,58.75C9.433,57.717,9.5,57,9.6,56.6
		c0.167-0.566,0.45-0.866,0.85-0.899c1.8,0.6,3.066,1.983,3.8,4.149c0.633,1.9,0.95,4.717,0.95,8.45c0,0.667-0.017,0.917-0.05,0.75
		l-2.7,0.05l0.5,0.4l3.2,1.25c0.4-6,0.733-9.184,1-9.55c0.367-0.601,2.883-1.434,7.55-2.5c-0.1,1.267,0.033,2.416,0.4,3.45
		c0.2,0.566,0.45,1.083,0.75,1.55c0.133-0.4,0.383-1.351,0.75-2.851c0.333-1.533,0.517-2.449,0.55-2.75
		c1.967,1.434,3.733,3.601,5.3,6.5c1.5,2.767,2.25,5.134,2.25,7.101c0,1.3-0.367,2.6-1.1,3.899c-0.9,1.367-1.517,2.384-1.85,3.051
		c-0.6,0.066-1.067,0.1-1.4,0.1c-0.767,0-3.583-0.333-8.45-1l-0.05-1.45c0.133-0.7,0.217-1.483,0.25-2.35V72.9l-0.4,0.6
		c-0.133-2.7-0.4-4.717-0.8-6.05l-0.25,1.3c-0.167,1.333-1,2.833-2.5,4.5C16.95,74.616,16.033,75.45,15.4,75.75z M10.15,75.45
		l0.6,0.55H10.7L10.15,75.45z M249.9,72.1l1.149-0.449l1.3-0.15C251.75,71.767,250.934,71.967,249.9,72.1z M238.55,80.4
		c0.2-0.267,0.3-0.601,0.3-1c0-0.4-0.1-0.733-0.3-1c-0.233-0.267-0.5-0.4-0.8-0.4s-0.55,0.134-0.75,0.4
		c-0.233,0.267-0.35,0.6-0.35,1c0,0.399,0.116,0.733,0.35,1c0.2,0.267,0.45,0.399,0.75,0.399S238.316,80.667,238.55,80.4z
		 M206.9,76.2c-0.167-0.134-0.384-0.2-0.65-0.2c-1.2,0-1.85,0.134-1.95,0.4c-0.066,0.267-0.316,1.25-0.75,2.949l0.25-0.05l4.5-1.25
		c0.667,0,2.851,0.217,6.55,0.65C210.25,77.5,207.6,76.667,206.9,76.2z M26.2,57.55l0.65,0.351l-0.7-0.351H26.2z M113.6,43.4
		c1.767-1.667,2.3-1.65,1.6,0.05c-0.6,2.733-1.467,5.416-2.6,8.05c-1.167,2.7-2.067,4.05-2.7,4.05c-0.4,0-0.85-0.149-1.35-0.45
		c-0.8-0.5-1.2-1.25-1.2-2.25c0-0.633,0.45-1.75,1.35-3.35c0.767-1.434,1.35-2.366,1.75-2.8
		C110.583,46.566,111.633,45.467,113.6,43.4z M107.9,60.4c0.2,0.267,0.3,0.6,0.3,1c0,0.399-0.1,0.733-0.3,1
		c-0.2,0.267-0.433,0.399-0.7,0.399c-0.267,0-0.5-0.133-0.7-0.399s-0.3-0.601-0.3-1c0-0.4,0.1-0.733,0.3-1s0.433-0.4,0.7-0.4
		C107.467,60,107.7,60.134,107.9,60.4z M18.3,71c0.1,0.066,0.267,0.134,0.5,0.2c1-1,1.567-4.717,1.7-11.15l-1.65,0.3
		c0.566,1.4,0.617,3.434,0.15,6.101c-0.233,1.366-0.533,2.616-0.9,3.75C18.1,70.634,18.167,70.9,18.3,71z M67.25,67.45l-0.2,3.1
		c0,2.033,0.934,4.2,2.8,6.5c0.133-2.133-0.067-4.133-0.6-6C68.75,69.25,68.083,68.05,67.25,67.45z M54.9,60.95
		c-0.5-0.167-1.867-0.316-4.1-0.45c-1.733-0.1-3.05-0.15-3.95-0.15c-0.8,0-1.684,1.5-2.65,4.5c-0.934,2.934-1.4,5.567-1.4,7.9
		l0.1,2.3l0.4-0.75l0.25-1.1c0.833-3.033,1.267-4.684,1.3-4.95l-0.05,3.7l0.15-0.9c0.466-3.333,2.45-5.316,5.95-5.95
		c0.233-0.066,1.583-0.216,4.05-0.449c1.433-0.134,2.4-0.417,2.9-0.851l-1.05-0.1c-2.133-0.134-3.583-0.267-4.35-0.4l0.5-0.149
		c0.533-0.167,1.1-0.334,1.7-0.5c0.367-0.167,0.55-0.483,0.55-0.95c0-0.4-0.05-0.65-0.15-0.75H54.9z"/>
	<path style="fill-rule:evenodd;clip-rule:evenodd;fill:#D2C8BA;" d="M96.9,6.6l6.25-1.2v0.05c-1.933,1.667-3.066,2.6-3.4,2.8
		c-0.967,0.667-2.1,1-3.4,1c-0.533,0-1.367-0.083-2.5-0.25c0.233-0.233,0.783-0.7,1.65-1.4C96.333,6.967,96.8,6.633,96.9,6.6z
		 M99.75,13.95c-0.3,0.133-0.65,0.2-1.05,0.2c-0.4,0-0.733-0.066-1-0.2c-0.3-0.167-0.45-0.35-0.45-0.55c0-0.2,0.15-0.367,0.45-0.5
		c0.267-0.167,0.6-0.25,1-0.25c0.4,0,0.75,0.083,1.05,0.25c0.267,0.133,0.4,0.3,0.4,0.5C100.15,13.6,100.017,13.783,99.75,13.95z
		 M143.15,9.6L143,10.3c-0.333,1.034-0.717,2.017-1.15,2.95c-9.566,8.1-16.966,14.1-22.2,18c-7.3,5.433-13.417,10.133-18.35,14.1
		c-1.133,1.667-3.216,3.034-6.25,4.101c-4.933,1.733-8.367,3.116-10.3,4.149c-1.8,1.101-3.45,2.067-4.95,2.9
		c-2.867,1.566-4.85,2.333-5.95,2.3l-1.3,0.25c1.267,0.634,2.083,2.033,2.45,4.2c0.333,1.9,0.267,3.684-0.2,5.35
		c-0.3,1.9-0.517,4.733-0.65,8.5c-0.033-1.699-0.233-5.199-0.6-10.5L73.5,65.95c-0.5-2.533-0.883-3.983-1.15-4.351
		c-0.9-1.133-1.4-1.733-1.5-1.8c-1.033-0.6-2.8-0.7-5.3-0.3l-7.5-0.5l-7.25-0.5l-5.5-0.3l-2.4-0.05L40.85,58.1
		c-0.867,0-1.717,1.2-2.55,3.601c-0.466,1.3-1.017,3.1-1.65,5.399l-0.2,0.9l0.4-4.95c0.033-0.666,0.066-1.25,0.1-1.75
		c0-0.166,0.017-0.316,0.05-0.45V60.8c0.167-1.533,0.517-2.684,1.05-3.45l1.3-0.55c1.233-0.767,1.95-1.217,2.15-1.35
		c0.533-0.267,2.867-1.566,7-3.9c-9.867,2.8-15.083,4.283-15.65,4.45c-3.333,1.033-5.55,1.55-6.65,1.55h-0.05h-1.2
		c-2.233,0-4.267-0.116-6.1-0.35c-1.4-0.233-2.8-0.517-4.2-0.851c-2.3-0.733-6.733-2.483-13.3-5.25l-1-0.399
		c3.1,0.366,7.183,1.55,12.25,3.55c4.533,1.767,8.033,2.65,10.5,2.65c3.9,0,10.5-1.601,19.8-4.801c7.867-2.699,12.917-4.699,15.15-6
		l1-0.649c-4.367,3.066-7.4,5.149-9.1,6.25c-1.9,1.2-3.833,2.316-5.8,3.35c7,1.066,11.6,1.884,13.8,2.45
		c0.833,0.233,1.733,0.35,2.7,0.35c6.8,0,12.184-0.733,16.15-2.199c2.167-0.834,4.3-1.983,6.4-3.45c3.3-1.767,6.783-3.267,10.45-4.5
		c3.1-1.066,4.684-1.634,4.75-1.7c3.833-3.433,11.9-9.683,24.2-18.75c10.3-7.6,16.867-13.067,19.7-16.4L143.15,9.6z M72.4,18.6
		c-3.066,1.7-4.8,2.617-5.2,2.75c0-0.767,0.517-1.417,1.55-1.95C69.75,18.867,70.967,18.6,72.4,18.6z"/>
</g>
</svg>
