<?xml version="1.0" encoding="iso-8859-1"?>
<!-- Generator: Adobe Illustrator 15.1.0, SVG Export Plug-In . SVG Version: 6.00 Build 0)  -->
<!DOCTYPE svg PUBLIC "-//W3C//DTD SVG 1.1//EN" "http://www.w3.org/Graphics/SVG/1.1/DTD/svg11.dtd">
<svg version="1.1" id="Layer_1" xmlns="http://www.w3.org/2000/svg" xmlns:xlink="http://www.w3.org/1999/xlink" x="0px" y="0px"
	 width="208px" height="134.95px" viewBox="0 0 208 134.95" style="enable-background:new 0 0 208 134.95;" xml:space="preserve">
<g>
	<path style="fill-rule:evenodd;clip-rule:evenodd;fill:#B3AA9E;" d="M169.95,68.65l-2.25,1.399c0.1-0.233,0.149-0.517,0.149-0.85
		l-0.05-0.4c-3.066,0.134-5.717-0.133-7.95-0.8c-0.933-0.3-2.816-1.1-5.649-2.4c-5.233-2.434-11.967-3.65-20.2-3.65
		c-1.733,0-2.833,0.133-3.3,0.4l1.5,0.5c8.767,1.367,15.166,3.083,19.2,5.15c0.933,0.467,1.916,1.083,2.949,1.85
		c0.634,0.467,1.134,0.7,1.5,0.7c0.667,0,2.801,0.384,6.4,1.15l-8,0.05c-2.333-2.167-4.15-3.533-5.45-4.1
		c-1.399-0.6-6.316-1.8-14.75-3.6c6.334,3.034,10.884,4.967,13.65,5.8c1.267,0.367,2.217,0.851,2.85,1.45l-2.75-0.5l3.25,1.65
		c0.367,1.033,0.434,1.934,0.2,2.7c-0.134,0.366-0.316,0.699-0.55,1c-3.4,0.566-5.816,0.85-7.25,0.85
		c-5.434,0-9.783-0.816-13.05-2.45c-5.4-2.7-8.867-4.283-10.4-4.75c3.667,3.267,6.217,5.134,7.65,5.601
		c1.633,0.566,2.8,1.133,3.5,1.699l-3.851-0.75c-1.233-1.133-2.366-1.933-3.399-2.399c-1.434-0.5-2.784-1.017-4.051-1.55l0.15,0.25
		l1.35,4.3c0,0.934-1.483,1.717-4.449,2.35c-3.767,0.8-9.384,1.2-16.851,1.2c-3.733,0-6.283-0.55-7.65-1.65
		c-5.2-4.166-9.183-7.1-11.95-8.8L79.9,66.6c0.267-1.767,1.8-4.833,4.6-9.2c2.933-4.633,5.05-6.95,6.35-6.95
		c2.733,0,9.583,0.1,20.55,0.3c4.966,0.1,8.633-0.05,11-0.45c2.699-0.466,6.066-1.617,10.1-3.45c0.866-0.4,6.767-3.25,17.7-8.55
		c6.066,1.267,11.267,1.967,15.6,2.1c2.3,0.067,4.867,0.1,7.7,0.1c2.2,0.2,4.816,1.05,7.85,2.55c3.301,1.6,8.684,4.75,16.15,9.45
		c-1.3,2.3-2.55,3.95-3.75,4.95c-0.934,0.767-1.5,1.267-1.7,1.5l4.2-5.4l-0.95,0.4c-4.366,3.5-7.5,5.9-9.399,7.2
		c-3.367,2.267-5.917,3.4-7.65,3.4l-6.15-1.25c-4.1-0.833-7.866-1.25-11.3-1.25l-3,0.1l0.601,0.5c1.033,0.567,2.1,1.033,3.199,1.4
		c0.733,0.233,2.317,0.684,4.75,1.35c-2.166-0.1-3.716,0-4.649,0.3l0.75,0.6c0.467,0.267,1.616,0.7,3.45,1.3
		C167.8,68.2,169.15,68.55,169.95,68.65z M174.25,68.05l-0.45-0.35c1.867-0.167,4.267-0.233,7.2-0.2c2.033,0,3.4-0.117,4.1-0.35
		c-0.767,0.533-1.3,0.867-1.6,1c-0.634,0.267-1.384,0.399-2.25,0.399L177,68.4C176.634,68.167,175.717,68.05,174.25,68.05z
		 M187.3,116.4c0.533-0.601,1.101-1.233,1.7-1.9l0.35-0.35C188.616,114.983,187.934,115.733,187.3,116.4z M41.55,104.55l1.9,0.3
		l1.35,0.301L41.55,104.55z M9.2,84.4l1.05,0.55c0.6,0.333,1.1,0.649,1.5,0.95L9.2,84.4z M13.65,75c-2.566-3.1-4.25-5-5.05-5.7
		c-0.1,0.8-0.35,1.917-0.75,3.351c-0.434,1.733-0.833,2.816-1.2,3.25c-0.4-0.101-1.167-0.617-2.3-1.551
		c-0.867-0.699-1.483-1.233-1.85-1.6l-1.35,0.9L0,69.1c0-1.133,0.117-2.033,0.35-2.7c0.4-1.2,1.2-2.167,2.4-2.9
		c3.5-0.567,5.933-1.433,7.3-2.6c0.8-0.667,1.967-1.833,3.5-3.5c1.534-1.167,3.883-3.333,7.05-6.5c1.633-1.667,3.25-2.5,4.85-2.5
		c0.333,0,1.6,0.583,3.8,1.75c0.1,0,1.25-1.45,3.45-4.35c2.2-2.9,3.933-4.35,5.2-4.35c0.033,0,1.267,0.333,3.7,1
		c2.433,0.633,3.816,0.95,4.15,0.95c1.1,0,2.033-0.283,2.8-0.85c0.934-0.7,1.4-1.65,1.4-2.85c0-0.934-0.233-1.867-0.7-2.8
		c-0.633-1.267-1.65-2.35-3.05-3.25l2.5,1.1c0.933,0.867,1.667,1.4,2.2,1.6c0.267,0.133,0.684,0.3,1.25,0.5
		c1.333,0.767,4.6,4.1,9.8,10c-6.733,3.8-10.784,6.883-12.15,9.25c-0.767,1.3-1.4,3.2-1.9,5.7c-0.333,1.567-0.917,4.65-1.75,9.25
		l0.75-8c-0.233,1-0.717,3.3-1.45,6.9c-0.867,4.233-1.35,6.866-1.45,7.899c-0.567,1.034-0.95,1.983-1.15,2.851
		c-0.2,0.866-0.483,1.633-0.85,2.3c-0.267,0.5-0.967,1.017-2.1,1.55c-1.267,0.601-2.15,1.184-2.65,1.75l-0.35,0.65
		c-0.833,2.6-1.55,4.333-2.15,5.2c-0.567,0.767-1.317,1.149-2.25,1.149c-0.567,0-1.25-0.166-2.05-0.5
		c-1.034-0.434-2.017-1.083-2.95-1.95c-2.367-2.199-4.3-4.316-5.8-6.35c-1.067-1.4-1.6-2.233-1.6-2.5c0-0.2,0.217-0.517,0.65-0.95
		c0.4-0.399,0.867-0.684,1.4-0.85c0.133-0.066,0.267-0.117,0.4-0.15L24,79.5l1.75-0.65c5.4,0.834,9.5-1.616,12.3-7.35
		c2.034-4.1,3.15-9.05,3.35-14.85l-5.55,14.8c-0.767,0.066-1.9,0.633-3.4,1.7c-1.5,1.1-2.417,1.75-2.75,1.949
		c0.6-0.666,2.066-1.866,4.4-3.6c2-1.8,2.933-3.75,2.8-5.85c-0.033-0.3-0.117-0.283-0.25,0.05c-0.066,0.2-0.133,0.417-0.2,0.65
		c-1.133,2.833-3.667,5.4-7.6,7.7c-2.633,1.533-5.583,2.8-8.85,3.8c-1.433-0.199-2.667-0.517-3.7-0.949
		c4.567,0.3,7.983-0.601,10.25-2.7c0.467-0.434,1.6-1.717,3.4-3.851c1.7-1.966,3.367-3.683,5-5.149L18.2,74.55l-1.15,0.15
		C16.583,74.7,15.45,74.8,13.65,75z M39.85,52.1c-3.133-0.1-5.15,0.433-6.05,1.6c1.267,0.833,2.167,1.25,2.7,1.25
		c0.7,0,1.417-0.3,2.15-0.9C39.417,53.417,39.817,52.767,39.85,52.1z M56.45,23.55c-6.2-1.533-9.35-2.3-9.45-2.3
		c-0.133,0-0.25,0.033-0.35,0.1c0.533-0.733,1.117-1.417,1.75-2.05c-0.066,0.1-0.15,0.2-0.25,0.3L47.2,21
		c1.7,0.3,3.517,0.617,5.45,0.95c1.467,0.233,3.35,0.35,5.65,0.35c0.7,0,1.583-0.083,2.65-0.25
		C59.05,22.483,57.55,22.983,56.45,23.55z M71.1,19.7c-2.033,0.733-4.6,1.367-7.7,1.9c1.8-0.467,5.733-1.7,11.8-3.7
		c7.167-2.333,14.3-4.75,21.4-7.25c-11.967,2.833-20.483,4.883-25.55,6.15l-3.95,1.05l-1.75,0.65c-2.1,0.5-3.434,0.783-4,0.85
		c-0.633,0.066-1.767,0.367-3.4,0.9c-1.5,0.467-2.284,0.7-2.35,0.7c-0.967,0-2-0.467-3.1-1.4c-1.133-0.933-2.033-1.4-2.7-1.4
		c-0.133,0-0.283,0.067-0.45,0.2c3.367-3.233,8.05-5.967,14.05-8.2C69.1,8.017,74.533,6.7,79.7,6.2c2.5-0.233,9.216-1.434,20.15-3.6
		c8.6-1.733,17.233-2.6,25.9-2.6c3,0,6.483,0.7,10.45,2.1c2.366,0.833,6.616,2.35,12.75,4.55c-0.733,2.967-2.134,5.05-4.2,6.25
		c-2.167,0.767-3.533,1.283-4.1,1.55c-0.967,0.466-2.317,1-4.051,1.6c-1.566,0.5-3.149,1.167-4.75,2l1.101,0.2l-4.2,0.95
		c0.2-0.133,1.05-0.633,2.55-1.5c0.934-0.567,1.767-1.2,2.5-1.9l-1.2,0.3c-1.433,0.333-6.833,0.667-16.199,1
		c-9.867,0.333-15.8,0.65-17.8,0.95c-2.233,0.333-3.917,0.75-5.05,1.25c-0.9,0.4-2.133,0.65-3.7,0.75
		c-3.733,0.233-5.767,0.667-6.1,1.3c-0.133,0.3-0.333,0.9-0.6,1.8c-0.4,1.033-1.083,2.117-2.05,3.25c1.9-0.833,3.55-1.517,4.95-2.05
		c-4,2.4-6.316,3.767-6.95,4.1c-0.067,0-0.35,0.117-0.85,0.35c-0.9,0.467-1.883,1.034-2.95,1.7L74,31.35
		c0.233-1.033,0.383-2.434,0.45-4.2c0.066-1.467,0.066-2.517,0-3.15c1.566-3.033,5.833-6.05,12.8-9.05l-1.75,0.5
		c1.567-0.5,2.783-0.95,3.65-1.35l-4.9,1.15l1.95-0.75c-5.534,1.8-9.717,3.2-12.55,4.2L71.1,19.7z M153.7,28.7l0.149-0.15
		c0.801-0.367,1.717-0.683,2.75-0.95L153.7,28.7z M140.65,35.8l1.8-0.9l-1.65,0.9l-1.75,1l0.8-0.5l0.95-0.5H140.65z M113.75,21.5
		c-2.3,0.167-6.9,0.283-13.8,0.35l0.55-0.4l-2.1,0.05c0.8-0.167,1.934-0.333,3.4-0.5c1.434-0.167,2.417-0.25,2.95-0.25
		c0.667,0,3.316,0.15,7.95,0.45C113.033,21.367,113.384,21.467,113.75,21.5z M138.05,11.35c0.066,0.467-0.017,0.816-0.25,1.05
		c1.267,0.767,3.167,0,5.7-2.3C140.333,10.533,138.517,10.95,138.05,11.35z M94.45,82.35c1.5,0.5,2.816,0.75,3.95,0.75
		c0.333,0,2.417-0.166,6.25-0.5c4-0.333,6.75-0.466,8.25-0.399c2.5,0.166,5.05-0.2,7.649-1.101c3.7-1.267,5.65-1.916,5.851-1.949
		c-1.4,1-3.301,1.933-5.7,2.8c-2.434,0.8-4,1.316-4.7,1.55c-0.134,0.033-1.717-0.1-4.75-0.4c-2.967-0.333-5.167-0.183-6.6,0.45
		c-3.333,0.2-6.351,0.267-9.05,0.2L94.45,82.35z M96.1,84.1l-0.2-0.05l-0.25-0.25L96.1,84.1z M127.85,78.1l-0.05-0.5l0.8,0.551
		L127.85,78.1z M81.05,72.95l4.15,3.45c-0.833-0.267-1.75-0.9-2.75-1.9C81.883,73.934,81.417,73.417,81.05,72.95z M77.9,93.95
		c-0.533-2.3-0.8-3.934-0.8-4.9l0.15-2.25l0.6-0.05L77.9,93.95z M82.35,83.8c-0.033-0.467-0.467-1.616-1.3-3.45
		c-0.867-1.866-1.316-2.866-1.35-3c2.8,1.867,5.283,3.567,7.45,5.101c0.667,0,1.783-0.334,3.35-1c-0.067,0.7-0.05,1.934,0.05,3.7
		c0,1-0.55,1.683-1.65,2.05c-1.1,0.366-1.65,1.083-1.65,2.149c0,0.867,1.583,3.367,4.75,7.5c3.1,3.967,4.533,6.4,4.3,7.301
		c-1.733,0.333-4.316-0.867-7.75-3.601c-3.533-2.8-5.683-4.2-6.45-4.2c-0.4,0-0.684,0.067-0.85,0.2c-0.133,0.134-0.217,0.2-0.25,0.2
		c-0.067,0.233-0.133,0.4-0.2,0.5c-0.033,0.1-0.05,0.35-0.05,0.75c0,0.3,0.083,0.65,0.25,1.05c0.533,1.434,1.15,3.184,1.85,5.25
		c-1.633-1.3-2.533-2.184-2.7-2.649c0-0.601-0.2-1.317-0.6-2.15l-0.15-4.55c0-1.8,0.35-3.267,1.05-4.4c0.4-0.7,1.1-1.684,2.1-2.95
		c0.467-0.767,1.417-1.283,2.85-1.55c0.7-0.133,1.483-0.267,2.35-0.399c-0.733-0.667-1.1-1.184-1.1-1.551L82.35,83.8z M137.95,78.2
		l-4.55,0.149l-0.7-0.6L137.95,78.2z M65.15,41.1l-0.2-0.2l0.6,0.55L65.15,41.1z M23.2,78.7l2.55,0.149H25.1L23.2,78.7z M24.5,83.95
		c-1.033,0.533-1.55,1.017-1.55,1.45c0,0.433,0.183,0.8,0.55,1.1c0.633,0.533,2.717-0.783,6.25-3.95l0.75,0.2l-0.35-1.65l-0.4,1.45
		C27.55,82.783,25.8,83.25,24.5,83.95z M80.15,69.75l0.3,0.3l0.3,2.25L80.15,69.75z"/>
	<path style="fill-rule:evenodd;clip-rule:evenodd;fill:#7C7367;" d="M194.65,107.9c-0.5-1-0.983-2.534-1.45-4.601
		c-0.367-1.7-0.55-2.75-0.55-3.149c1-4.233,1.666-6.784,2-7.65l-1.7,1.95c3.333-6.834,5.116-10.5,5.35-11
		c1.4-3.066,2.101-5.05,2.101-5.95c0.066-2.233-0.017-4.434-0.25-6.6c-0.434-4.333-1.301-6.5-2.601-6.5l-8.7,0.1l-0.75,0.05
		l3.801-5.5h0.05l0.1-0.1c0.2-0.233,0.767-0.733,1.7-1.5c1.2-1,2.45-2.65,3.75-4.95c1.9,1.333,4.1,4.517,6.6,9.55
		c2.601,5.2,3.9,9.184,3.9,11.95c0,6.866-2.1,14.366-6.3,22.5c-1.334,2.6-2.851,5.184-4.55,7.75
		C195.65,106.417,194.816,107.634,194.65,107.9z M156.55,84.2c-0.399-2.033-0.649-3.617-0.75-4.75l0.2,0.2
		c3.467,3.3,6.667,7.566,9.6,12.8c2,3.566,3.817,5.35,5.45,5.35c1.533,0,3.45-0.684,5.75-2.05c3.101-1.866,4.667-4.2,4.7-7
		l0.15,5.55c0,2.667-0.584,4.851-1.75,6.55c-0.7,1.067-1.95,2.233-3.75,3.5c-1.9,1.334-3.167,2.434-3.801,3.301
		c-1.166,1.533-1.75,3.483-1.75,5.85c0,2.4,0.367,4.2,1.101,5.4c0.6,0.933,1.3,1.399,2.1,1.399c1.767,0,4.25-2.233,7.45-6.7
		c3.366-4.699,5.05-8.783,5.05-12.25c0-0.433,0.084-0.767,0.25-1c0.533-0.733,1.767-1.666,3.7-2.8
		c-0.733,0.533-1.35,1.017-1.85,1.45c-0.934,0.8-1.4,1.533-1.4,2.2c0,0.267,0.467,1.25,1.4,2.95c0.899,1.699,1.35,2.666,1.35,2.899
		c0,2.334-0.25,4.816-0.75,7.45c-0.6,0.667-1.167,1.3-1.7,1.9c-0.566,0.566-1.083,1.066-1.55,1.5c-0.4,0.399-1.366,1.267-2.9,2.6
		c0,0.033-0.017,0.05-0.05,0.05c-4.833,2.134-8.6,3.2-11.3,3.2c-2.934,0-4.7-0.417-5.3-1.25c-1.167-1.6-1.967-2.517-2.4-2.75
		c-0.434,0.333-0.866,1.1-1.3,2.3c-0.2,0.634-0.417,1.25-0.65,1.851c-0.233,0.166-1.033,0.449-2.399,0.85
		c-1.367,0.4-2.117,0.616-2.25,0.65c-6.733,3.199-13.15,4.883-19.25,5.05l-0.5-2.851c0.8,0.467,2.866,0.884,6.2,1.25
		c6.433,0,11.033-1.899,13.8-5.699c2.033-2.767,3.05-6.45,3.05-11.051c0-6.933-0.533-13.116-1.6-18.55
		C158.8,93.017,158.017,89.9,156.55,84.2z M86.85,124.85C74.983,117.083,65.833,111,59.4,106.6l-0.2,2.351L58,108.1
		c-0.633-1.566-1.267-2.616-1.9-3.149c-0.467-0.367-0.7-0.717-0.7-1.05c0-3.967,0.667-8.45,2-13.45c1.1-4.033,2.117-6.867,3.05-8.5
		c-0.5,2.2-1.067,4.666-1.7,7.399c-0.4,1.767-0.6,3-0.6,3.7c0,0.634,0.117,1.101,0.35,1.4c0.3,0.366,1.433,1.616,3.4,3.75
		c0.133,0.166,1.117,2.7,2.95,7.6c0.633,1.533,2.417,2.816,5.35,3.851c0.1-2.167,0.15-5.051,0.15-8.65c0-3.4-0.05-6.184-0.15-8.35
		c0.466,6.333,3.9,12.699,10.3,19.1c4.333,4.3,9.8,8.4,16.4,12.3l0.4,0.4c-3.3-0.8-6.1-1.783-8.4-2.95
		c-1.7-0.833-3.283-1.3-4.75-1.4C84.317,121.467,85.217,123.05,86.85,124.85z M43.45,104.85l-1.9-0.3c-4-0.1-6.733-0.45-8.2-1.05
		c-1.1-0.467-2.733-1.783-4.9-3.95c-1.267-1.267-3.2-2.934-5.8-5c-4.533-3.6-6.816-5.416-6.85-5.45C19.6,90.2,23,92,26,94.5
		c2.6,2.2,4.783,3.384,6.55,3.55c3.267,0.367,5.75,0.5,7.45,0.4c0.667-0.3,1.117-0.634,1.35-1c0.066-0.334,0.15-0.7,0.25-1.101
		c0.233-0.8,0.55-1.566,0.95-2.3c1.133-0.366,2.583-0.666,4.35-0.899c1.533-0.334,2.95-1.067,4.25-2.2
		c2.267-2,3.717-3.783,4.35-5.351c0.467-1.133,0.833-2.017,1.1-2.649c-1.167,3.033-2.1,7.116-2.8,12.25
		C52.433,99.9,48.983,103.116,43.45,104.85z M142.45,34.9l-1.8,0.9c-3.7,0.367-6.101,0.733-7.2,1.1
		c-1.601,0.533-3.066,0.917-4.4,1.15c3.101-2.433,5.5-4.483,7.2-6.15c3.967-3.9,5.95-7.017,5.95-9.35c0-1.9-0.283-3.133-0.851-3.7
		c-0.466-0.5-1.483-0.75-3.05-0.75c-1.434,0.1-2.95,0.183-4.55,0.25l-0.8-0.1l-1.101-0.2c1.601-0.833,3.184-1.5,4.75-2
		c1.733-0.6,3.084-1.133,4.051-1.6c0.566-0.267,1.933-0.784,4.1-1.55c2.066-1.2,3.467-3.283,4.2-6.25V6.6
		c4.3,0.933,6.783,3.8,7.45,8.6c0.366,2.7,0.433,6.833,0.199,12.4c-1.033,0.267-1.949,0.583-2.75,0.95
		c-0.399-3.3-0.716-5.733-0.949-7.3c-0.4-2.8-1.084-4.2-2.051-4.2c-0.466,0-1.05,0.4-1.75,1.2c0.233,2.167,0.567,6.383,1,12.65
		L142.45,34.9z M126,44.05c0.967-0.566,2.65-1.783,5.05-3.65c2.667-1.767,5.601-3.133,8.8-4.1l-0.8,0.5l-0.75,0.4l5.2,0.45
		c-1.134,1.167-3.566,2.333-7.3,3.5c-2.867,0.9-4.767,1.4-5.7,1.5L126,44.05z M174.25,68.05c2.833,2.467,4.667,4.25,5.5,5.351
		c1.533,2,2.384,4.283,2.55,6.85l1.2,1.5h-0.45c-0.333-0.233-0.583-0.733-0.75-1.5c-3.233-4.066-5.5-6.983-6.8-8.75l-1.4-1.9
		c-0.066-0.033-1.449-0.35-4.149-0.949c-0.8-0.101-2.15-0.45-4.05-1.05c-1.834-0.6-2.983-1.033-3.45-1.3l-0.75-0.6
		c0.934-0.3,2.483-0.4,4.649-0.3c0.534,0.167,1.717,0.567,3.551,1.2c1.767,0.6,3.066,0.967,3.899,1.1L174.25,68.05z M92.55,22.7
		l5.85-1.2l2.1-0.05l-0.55,0.4l-0.15,0.2c-0.9,1.2-1.5,2.05-1.8,2.55c-0.433,0.733-1.233,2.833-2.4,6.3v-0.4
		c-0.033-2.833-0.067-4.3-0.1-4.4C95.2,24.567,94.217,23.433,92.55,22.7z M87.75,23.85c-0.167,0.533-0.517,1.417-1.05,2.65
		c-0.5,1.2-0.8,1.867-0.9,2c-1.267,2.333-2.033,3.767-2.3,4.3c-0.4,0.7-0.983,1.05-1.75,1.05c-0.7,0-1.517-0.5-2.45-1.5
		c-1.5-1.6-2.283-2.434-2.35-2.5l1.3-1.05c0.5-0.233,0.783-0.35,0.85-0.35c0.633-0.333,2.95-1.7,6.95-4.1L87.75,23.85z M72.2,38.6
		l9.35,0.75c0.667,0,1.25,0.2,1.75,0.6c0.467,0.367,0.7,0.833,0.7,1.4c-1.4,0.167-2.617,0.25-3.65,0.25
		c-1.967,0-4.833-0.55-8.6-1.65c-3.933-1.267-6.483-2.067-7.65-2.4l-1.25-0.6c1.733,1.733,3.967,3.383,6.7,4.95
		c1.833,1.033,2.75,1.967,2.75,2.8c0,1-0.316,2.167-0.95,3.5c-0.434,0.933-1.5,3.133-3.2,6.6l-0.65,1.25
		c0.6-0.367,2.567-2.133,5.9-5.3c0.833-0.733,1.617-1.383,2.35-1.95c-0.433,0.6-0.783,1.3-1.05,2.1c-0.6,3.4-1.233,5.583-1.9,6.55
		c-3.233,4.733-6.667,9.65-10.3,14.75c0.467-2.267,0.967-4.517,1.5-6.75l0.3-1.3c-0.533,0.667-2.05,2.767-4.55,6.3
		c0.267-1.634,0.533-3.167,0.8-4.6c0.5-2.733,1.25-4.667,2.25-5.8c2.233-2.566,3.6-4.25,4.1-5.05c1.133-1.767,1.7-3.583,1.7-5.45
		c0-1.167-0.333-2.6-1-4.3c-0.633-1.567-1.317-2.833-2.05-3.8l-0.6-0.55l-0.4-0.35c-0.633-0.533-3.183-1.816-7.65-3.85
		c-4.6-2.133-6.933-3.217-7-3.25c1.467-0.067,3.6-0.117,6.4-0.15l0.25-0.05c0.3-0.1,1.2-0.733,2.7-1.9c1.3-0.967,3.05-1.7,5.25-2.2
		c-0.433,0.8-1.333,1.85-2.7,3.15c-1.1,1.067-1.65,1.833-1.65,2.3c0,1.233,0.934,1.933,2.8,2.1C66.517,37,69.6,37.633,72.2,38.6z
		 M116.1,41.1c-2.566,0.9-5.466,1.45-8.699,1.65c-3.034,0.167-5.717,0-8.05-0.5c5.2,0.033,9.216-0.117,12.05-0.45
		C112.934,41.633,114.5,41.4,116.1,41.1z M127.8,77.6c-0.066-0.366-0.233-0.783-0.5-1.25l3.851,0.75
		c0.233,0.267,0.383,0.417,0.449,0.45c0.2,0.134,0.567,0.2,1.101,0.2l0.7,0.6l0.649,0.75c1,1.367,2,3.334,3,5.9
		c1.033,2.767,1.4,4.583,1.101,5.45l-5.301-9.7c-0.466-0.2-1.233-0.616-2.3-1.25c-1.2-0.733-1.85-1.184-1.95-1.35L127.8,77.6z
		 M81.5,16.6c-4.333,1.267-6.85,2.117-7.55,2.55c-0.567,0.733-1.333,1.533-2.3,2.4c1.033,0.133,2.383-0.167,4.05-0.9
		c-3.567,2.6-6,4.3-7.3,5.1c-1.9,1.2-3.933,2.1-6.1,2.7l0.55-0.6c1.066-0.733,2.2-2.083,3.4-4.05c1-1.667,2.617-3.033,4.85-4.1
		l2.55-1c2.833-1,7.017-2.4,12.55-4.2l-1.95,0.75L81.5,16.6z M104.8,48.4c-6.667,0.333-13.216-0.35-19.65-2.05l-1.75-0.5
		c1.367,0.033,4.983,0.45,10.85,1.25C100.25,47.933,103.767,48.367,104.8,48.4z M137.45,127.05c0-0.833,0.066-1.649,0.2-2.45
		c-0.534,0.867-2.384,2.801-5.551,5.801c-1.767,0.5-3.583,1-5.449,1.5c-3.7,0.966-5.767,1.449-6.2,1.449c-2,0-3.566-0.333-4.7-1
		c-0.733-0.433-1.1-0.8-1.1-1.1c1.533-3.233,2.3-4.9,2.3-5c0-5.1-0.316-8.684-0.95-10.75c-0.667-2.2-2.75-6.384-6.25-12.55
		c0.2,1.5,0.7,3.934,1.5,7.3c0.6,2.4,0.9,5.033,0.9,7.9c0,2.566-0.351,4.433-1.051,5.6c-1.033,1.233-1.916,2.434-2.649,3.6
		c-0.634,1.067-1.533,1.667-2.7,1.801c-0.566,0.066-1.967-0.034-4.2-0.301c1.167-1.5,2.7-3.267,4.601-5.3
		c1.366-1.666,2.05-3.3,2.05-4.899c0-0.601-0.117-1.634-0.351-3.101l-0.149-1.95c0.166-2.733,0.2-4.566,0.1-5.5
		c-0.1-1.066-0.783-3.933-2.05-8.6c-0.733-3.2-2.35-6.517-4.85-9.95c-2.1-2.934-3.833-4.767-5.2-5.5h0.2l0.2,0.05l11.15,0.75
		c0,0.067-0.134,0.75-0.4,2.051c-0.233,1.066-0.35,1.8-0.35,2.199c0,0.601,0.667,2.084,2,4.45c1.6,2.8,2.55,4.601,2.85,5.4
		c1.101,2.833,2.567,5.283,4.4,7.35c0.934,1.033,1.816,1.934,2.65,2.7c0.366,0.733,0.5,1.866,0.399,3.4
		c-0.066,0.833-0.166,2.116-0.3,3.85c0,2.967,1.816,4.45,5.45,4.45c0.166,0,1.333-0.15,3.5-0.45c2.166-0.3,3.866-0.45,5.1-0.45
		c1,0,1.983-0.866,2.95-2.6c1.167-2.101,1.75-4.767,1.75-8c0-0.4,0.267-2.483,0.8-6.25l0.8-5.5c0.034,0.333,0.233,3,0.601,8
		c0.399,5.233,0.6,8.8,0.6,10.7c0,2.267-0.184,4.316-0.55,6.149C139.033,124.467,138.35,126.05,137.45,127.05z M29.7,75.1L23.2,78.7
		l1.9,0.149L24,79.5l-1.45,0.55c-0.133,0.033-0.267,0.084-0.4,0.15c-1.5,0.434-2.683,0.666-3.55,0.7c-1.3,0-2.667-0.384-4.1-1.15
		c0.033-0.233,0.1-0.45,0.2-0.65c0.2-0.466,0.5-0.699,0.9-0.699c1.8,0,3.267-0.184,4.4-0.551c3.267-1,6.217-2.267,8.85-3.8
		c3.933-2.3,6.467-4.866,7.6-7.7c0.066-0.233,0.133-0.45,0.2-0.65c0.133-0.333,0.217-0.35,0.25-0.05c0.133,2.1-0.8,4.05-2.8,5.85
		C31.767,73.233,30.3,74.434,29.7,75.1z M58.4,74.65l-0.2,2.75c-0.3,0.666-0.55,1.3-0.75,1.899l0.15-1
		C57.7,77.533,57.967,76.316,58.4,74.65z"/>
	<path style="fill-rule:evenodd;clip-rule:evenodd;fill:#D2C8BA;" d="M41.1,30c1.7,1.1,3.4,2.317,5.1,3.65
		c1.4,0.9,2.417,1.983,3.05,3.25c0.467,0.934,0.7,1.867,0.7,2.8c0,1.2-0.467,2.15-1.4,2.85c-0.767,0.567-1.7,0.85-2.8,0.85
		c-0.333,0-1.717-0.316-4.15-0.95c-2.434-0.667-3.667-1-3.7-1c-1.267,0-3,1.45-5.2,4.35c-2.2,2.9-3.35,4.35-3.45,4.35
		c-2.2-1.167-3.467-1.75-3.8-1.75c-1.6,0-3.217,0.833-4.85,2.5c-3.167,3.167-5.517,5.333-7.05,6.5c-1.533,1.667-2.7,2.833-3.5,3.5
		c-1.367,1.167-3.8,2.033-7.3,2.6H2.7c1.767-1.367,4.333-3.683,7.7-6.95c4.3-4.233,7.417-7.75,9.35-10.55
		c1.3-1.9,3.933-4.583,7.9-8.05c5.367-4.667,9.817-7.2,13.35-7.6L41.1,30z M60.95,22.05C59.883,22.217,59,22.3,58.3,22.3
		c-2.3,0-4.183-0.117-5.65-0.35C50.717,21.617,48.9,21.3,47.2,21l0.95-1.4c0.1-0.1,0.184-0.2,0.25-0.3l0.15-0.15
		c0.267-0.4,0.534-0.667,0.8-0.8c0.167-0.133,0.316-0.2,0.45-0.2c0.667,0,1.567,0.467,2.7,1.4c1.1,0.934,2.133,1.4,3.1,1.4
		c0.066,0,0.85-0.233,2.35-0.7c1.633-0.533,2.767-0.833,3.4-0.9c0.566-0.067,1.9-0.35,4-0.85l1.75-0.65l3.95-1.05
		c5.067-1.267,13.583-3.316,25.55-6.15c-7.1,2.5-14.233,4.917-21.4,7.25c-6.067,2-10,3.233-11.8,3.7
		c-0.3,0.066-0.533,0.117-0.7,0.15C62.067,21.883,61.483,21.983,60.95,22.05z M173.8,67.7c-0.833-0.133-2.133-0.5-3.899-1.1
		c-1.834-0.633-3.017-1.033-3.551-1.2c-2.433-0.667-4.017-1.117-4.75-1.35c-1.1-0.367-2.166-0.833-3.199-1.4l-0.601-0.5l3-0.1
		c3.434,0,7.2,0.417,11.3,1.25l6.15,1.25c1.733,0,4.283-1.133,7.65-3.4c1.899-1.3,5.033-3.7,9.399-7.2l0.95-0.4l-4.2,5.4l-0.1,0.1
		h-0.05l-3.801,5.5c-0.566,0.767-1,1.284-1.3,1.55c-0.366,0.333-0.934,0.683-1.7,1.05c-0.699,0.233-2.066,0.35-4.1,0.35
		C178.066,67.467,175.667,67.533,173.8,67.7z M185.55,78.1c-0.267-0.533-0.416-1.199-0.45-2c0-0.1,0-0.199,0-0.3l0.101-1.75
		l0.6,0.851c0.767,0.8,1.367,1.966,1.8,3.5c0.301,1.066,0.45,1.899,0.45,2.5c0,0.5-0.133,0.85-0.399,1.05
		c-0.334,0.166-0.601,0.333-0.801,0.5l-0.3-3.4l-0.05,0.05C186.1,78.866,185.783,78.533,185.55,78.1z M161.35,79.2
		c-0.166-0.434-0.283-0.75-0.35-0.95c-0.134-0.366-0.2-0.75-0.2-1.15c0-0.399,0.084-0.583,0.25-0.55c0.101,0,0.316,0.033,0.65,0.101
		c2.066-0.034,3.566,0.767,4.5,2.399c0.666,1.134,1,2.483,1,4.05c0,0.301-0.017,0.483-0.05,0.551c-0.134,0.399-0.467,0.883-1,1.449
		L164.6,83.65c-2.033-1.801-3.133-2.917-3.3-3.351C161.467,80.033,161.483,79.667,161.35,79.2z M162.25,71.7
		c-3.6-0.767-5.733-1.15-6.4-1.15c-0.366,0-0.866-0.233-1.5-0.7c-1.033-0.767-2.017-1.383-2.949-1.85
		c-4.034-2.067-10.434-3.783-19.2-5.15l-1.5-0.5c0.467-0.267,1.566-0.4,3.3-0.4c8.233,0,14.967,1.216,20.2,3.65
		c2.833,1.3,4.717,2.1,5.649,2.4c2.233,0.667,4.884,0.934,7.95,0.8l0.05,0.4c0,0.333-0.05,0.616-0.149,0.85
		c-0.334,0.5-1.25,0.934-2.75,1.3C163.816,71.583,162.917,71.7,162.25,71.7z M120.85,21.15c-1.966,0.167-4.683,0.184-8.149,0.05
		c-4.634-0.3-7.283-0.45-7.95-0.45c-0.533,0-1.517,0.083-2.95,0.25c-1.466,0.167-2.6,0.333-3.4,0.5l-5.85,1.2h-0.1l-4.7,1.15
		l-1.7,0.5c-1.4,0.533-3.05,1.217-4.95,2.05c0.967-1.133,1.65-2.217,2.05-3.25c0.267-0.9,0.467-1.5,0.6-1.8
		c0.333-0.633,2.367-1.067,6.1-1.3c1.566-0.1,2.8-0.35,3.7-0.75c1.133-0.5,2.817-0.917,5.05-1.25c2-0.3,7.933-0.617,17.8-0.95
		c9.366-0.333,14.767-0.667,16.199-1l1.2-0.3c-0.733,0.7-1.566,1.333-2.5,1.9c-1.5,0.867-2.35,1.367-2.55,1.5
		C127.684,20.167,125.05,20.817,120.85,21.15z M144.1,95c-0.125-1.063-0.274-2.096-0.449-3.1c0.187,0.943,0.419,1.96,0.699,3.05
		c1.367,6.033,2.051,9.733,2.051,11.1c0,1-0.4,1.9-1.2,2.7C144.833,102.25,144.467,97.667,144.1,95z M138.05,11.35
		c0.467-0.4,2.283-0.817,5.45-1.25c-2.533,2.3-4.434,3.066-5.7,2.3C138.033,12.167,138.116,11.817,138.05,11.35z M71.75,73.05
		c2.4-2.233,3.767-3.55,4.1-3.95c0.133,4.034,0.35,8,0.65,11.9c0.067,1.9-0.483,2.85-1.65,2.85c-1.367,0-2.45-0.55-3.25-1.649
		c-0.934-1.267-1.4-3.167-1.4-5.7C70.2,75.167,70.717,74.017,71.75,73.05z M81.05,72.95l-0.3-0.65l-0.3-2.25l-0.3-0.3
		c-0.5-0.866-0.75-1.8-0.75-2.8l0.1-2.85l0.4,2.5l0.55,3.45c2.767,1.7,6.75,4.634,11.95,8.8c1.367,1.101,3.917,1.65,7.65,1.65
		c7.467,0,13.084-0.4,16.851-1.2c2.966-0.633,4.449-1.416,4.449-2.35l-1.35-4.3l-0.15-0.25c1.267,0.533,2.617,1.05,4.051,1.55
		c1.033,0.467,2.166,1.267,3.399,2.399c0.267,0.467,0.434,0.884,0.5,1.25l0.05,0.5c-0.033,0.4-0.316,0.7-0.85,0.9l-0.6,0.15
		c-0.2,0.033-2.15,0.683-5.851,1.949c-2.6,0.9-5.149,1.267-7.649,1.101c-1.5-0.066-4.25,0.066-8.25,0.399
		c-3.833,0.334-5.917,0.5-6.25,0.5c-1.133,0-2.45-0.25-3.95-0.75c-1.567-0.466-3.317-1.383-5.25-2.75
		c-0.733-0.533-2.067-1.6-4-3.199L81.05,72.95z M150.7,76.15l-2.15,1.25c-0.934,0.3-1.85,0.533-2.75,0.699
		c-2.166,0.267-4.783,0.301-7.85,0.101l-5.25-0.45c-0.533,0-0.9-0.066-1.101-0.2c-0.066-0.033-0.216-0.184-0.449-0.45
		c-0.7-0.566-1.867-1.133-3.5-1.699c-1.434-0.467-3.983-2.334-7.65-5.601c1.533,0.467,5,2.05,10.4,4.75
		c3.267,1.634,7.616,2.45,13.05,2.45C144.884,77,147.3,76.717,150.7,76.15z M82.35,83.8l4.3,0.3c0,0.367,0.367,0.884,1.1,1.551
		c-0.867,0.133-1.65,0.267-2.35,0.399c-1.433,0.267-2.383,0.783-2.85,1.55c-1,1.267-1.7,2.25-2.1,2.95
		c-0.7,1.134-1.05,2.601-1.05,4.4l0.15,4.55c0.067,1.667,0.034,2.934-0.1,3.8l-0.6-1.35c-0.4-1.467-0.717-4.134-0.95-8l-0.05-7.2
		c0.133-1.066,0.35-2.217,0.65-3.45l0.35-1.55c0.533,0.833,1.283,1.434,2.25,1.8C81.567,83.717,81.983,83.8,82.35,83.8z M39.85,52.1
		c-0.033,0.667-0.434,1.316-1.2,1.95c-0.733,0.6-1.45,0.9-2.15,0.9c-0.533,0-1.433-0.417-2.7-1.25C34.7,52.533,36.717,52,39.85,52.1
		z M13.65,75c1.8-0.2,2.934-0.3,3.4-0.3l1.15-0.15l16.75-9.35c-1.633,1.466-3.3,3.184-5,5.149c-1.8,2.134-2.934,3.417-3.4,3.851
		c-2.267,2.1-5.683,3-10.25,2.7c-0.267-0.034-0.867-0.25-1.8-0.65c-0.9-0.366-1.483-0.65-1.75-0.85L13.65,75z M23.2,78.7l6.5-3.601
		c0.333-0.199,1.25-0.85,2.75-1.949c1.5-1.067,2.633-1.634,3.4-1.7l5.55-14.8c-0.2,5.8-1.316,10.75-3.35,14.85
		c-2.8,5.733-6.9,8.184-12.3,7.35L23.2,78.7z M24.5,83.95c1.3-0.7,3.05-1.167,5.25-1.4l0.4-1.45l0.35,1.65l-0.75-0.2
		c-3.533,3.167-5.617,4.483-6.25,3.95c-0.367-0.3-0.55-0.667-0.55-1.1C22.95,84.967,23.467,84.483,24.5,83.95z"/>
	<path style="fill-rule:evenodd;clip-rule:evenodd;fill:#9B9286;" d="M14.4,87.95l-2.65-2.05c-0.4-0.301-0.9-0.617-1.5-0.95
		c0.533-0.467,2-1.533,4.4-3.2l0.25-0.35c-2.267-0.7-3.983-1.284-5.15-1.75c-1.333-0.534-2.9-1.084-4.7-1.65v2.5
		c-0.367-0.6-0.833-1.366-1.4-2.3c-1.2-2.033-1.95-3.334-2.25-3.9c-0.033-0.1-0.066-0.184-0.1-0.25L1.15,73.65l1.35-0.9
		c0.367,0.366,0.983,0.9,1.85,1.6c1.133,0.934,1.9,1.45,2.3,1.551c0.367-0.434,0.767-1.517,1.2-3.25C8.25,71.217,8.5,70.1,8.6,69.3
		C9.4,70,11.083,71.9,13.65,75l-0.9,0.4c0.267,0.199,0.85,0.483,1.75,0.85c0.933,0.4,1.533,0.616,1.8,0.65
		c1.034,0.433,2.267,0.75,3.7,0.949c-1.133,0.367-2.6,0.551-4.4,0.551c-0.4,0-0.7,0.233-0.9,0.699c-0.1,0.2-0.167,0.417-0.2,0.65
		c1.433,0.767,2.8,1.15,4.1,1.15c0.867-0.034,2.05-0.267,3.55-0.7c-0.533,0.166-1,0.45-1.4,0.85C20.317,81.483,20.1,81.8,20.1,82
		c0,0.267,0.533,1.1,1.6,2.5c1.5,2.033,3.433,4.15,5.8,6.35c0.933,0.867,1.917,1.517,2.95,1.95c0.8,0.334,1.483,0.5,2.05,0.5
		c0.933,0,1.683-0.383,2.25-1.149c0.6-0.867,1.317-2.601,2.15-5.2c0.6,0.6,1.733,1.717,3.4,3.35c1.4,1.533,2.15,2.783,2.25,3.75
		c-0.4,0.733-0.716,1.5-0.95,2.3c-0.1,0.4-0.184,0.767-0.25,1.101c-0.233,0.366-0.684,0.7-1.35,1c-1.7,0.1-4.183-0.033-7.45-0.4
		c-2.3-2.133-4.35-3.833-6.15-5.1C23.167,90.583,19.167,88.917,14.4,87.95z M65.15,41.1c1.567,4.433,2.35,7.35,2.35,8.75
		c0,3.133-2,5.667-6,7.6c-2.033,0.9-3.45,1.55-4.25,1.95c-1.4,0.633-2.183,1.267-2.35,1.9c-0.833,2.8-1.883,8.316-3.15,16.55
		c-0.7,4.601-1.883,6.9-3.55,6.9c-1.467,0-2.2-3-2.2-9l0.15-4.7c0.833-4.6,1.417-7.683,1.75-9.25c0.5-2.5,1.133-4.4,1.9-5.7
		c1.367-2.367,5.417-5.45,12.15-9.25c-5.2-5.9-8.467-9.233-9.8-10c-0.566-0.2-0.983-0.367-1.25-0.5c-0.533-0.2-1.267-0.733-2.2-1.6
		c3.033,1.2,5.683,2.3,7.95,3.3c1.6,0.667,4.233,1.5,7.9,2.5l0.4,0.35L65.15,41.1z M56.3,33.3c-1-1.066-2.15-2.033-3.45-2.9
		c-2.533-1.7-6.05-2.767-10.55-3.2c1-1.5,1.617-2.383,1.85-2.65c0.7-0.833,1.217-1.45,1.55-1.85L46,22
		c0.2-0.333,0.417-0.55,0.65-0.65c0.1-0.067,0.217-0.1,0.35-0.1c0.1,0,3.25,0.767,9.45,2.3c-0.6,0.833-0.9,1.617-0.9,2.35
		c0,0.533,0.117,1.633,0.35,3.3c0.233,1.733,0.45,3.083,0.65,4.05L56.3,33.3z M81.05,72.95c0.367,0.467,0.833,0.983,1.4,1.55
		c1,1,1.917,1.634,2.75,1.9c1.933,1.6,3.267,2.666,4,3.199c1.933,1.367,3.683,2.284,5.25,2.75l1.15,1.4l0.05,0.05l0.25,0.25h-0.2
		c1.367,0.733,3.1,2.566,5.2,5.5c2.5,3.434,4.117,6.75,4.85,9.95c0,0.6-0.134,3-0.4,7.2c0,0.267,0.267,1.2,0.801,2.8
		c0.566,1.6,1.083,2.967,1.55,4.1l0.149,1.95c-1.966,3.566-3.35,5.351-4.149,5.351c-4.4,0-9.034-1.733-13.9-5.2
		c-1.533-1.101-4.833-3.983-9.9-8.65c-1.566-1.467-2.95-3.017-4.15-4.649c-1.367-1.934-2.267-3.717-2.7-5.351
		c-0.8-3.133-1.517-6.366-2.15-9.7c-0.8-4.1-1.2-6.949-1.2-8.55c0-2.6,0.917-5.267,2.75-8c2.1-3.1,3.433-7.066,4-11.9
		c0.433-3.566,1.417-6.35,2.95-8.35c1.3-1.7,3.217-3.1,5.75-4.2c6.434,1.7,12.983,2.383,19.65,2.05c2.9,0,5.634-0.217,8.2-0.65
		c0.6-0.033,1.767-0.25,3.5-0.65c3.5-0.7,6.267-1.5,8.3-2.4l5.7-2.05c0.934-0.1,2.833-0.6,5.7-1.5c3.733-1.167,6.166-2.333,7.3-3.5
		l6.7,0.65c-10.934,5.3-16.834,8.15-17.7,8.55c-4.033,1.833-7.4,2.983-10.1,3.45c-2.367,0.4-6.034,0.55-11,0.45
		c-10.967-0.2-17.817-0.3-20.55-0.3c-1.3,0-3.417,2.316-6.35,6.95c-2.8,4.367-4.333,7.434-4.6,9.2l-0.4-2.5l-0.1,2.85
		c0,1,0.25,1.934,0.75,2.8l0.6,2.55L81.05,72.95z M71.75,73.05c-1.033,0.967-1.55,2.117-1.55,3.45c0,2.533,0.466,4.434,1.4,5.7
		c0.8,1.1,1.883,1.649,3.25,1.649c1.167,0,1.717-0.949,1.65-2.85c-0.3-3.9-0.517-7.866-0.65-11.9
		C75.517,69.5,74.15,70.816,71.75,73.05z M161.35,79.2c-2.899-2.233-4.566-3.584-5-4.05c-0.5-0.233-1-0.351-1.5-0.351
		c-0.033,0.767,0.134,1.733,0.5,2.9c0.2,0.6,0.417,1.25,0.65,1.95l-0.2-0.2c0.101,1.133,0.351,2.717,0.75,4.75
		c0.066,6.434-0.05,11.316-0.35,14.649c-0.134,1.467-0.517,4-1.15,7.601c-1.066,6.1-1.717,9.399-1.95,9.899
		c-0.633,1.4-2.333,2.101-5.1,2.101s-4.316-1.05-4.65-3.15c-0.133-4.566-0.383-9.366-0.75-14.399
		c-0.566-8.134-0.866-12.301-0.899-12.5c-0.066-0.834-0.55-2.15-1.45-3.95c-0.866-1.767-1.3-2.75-1.3-2.95
		c0-0.267-0.217-0.566-0.65-0.9c-0.8-0.633-2.217-1.133-4.25-1.5l-0.649-0.75l4.55-0.149c3.066,0.2,5.684,0.166,7.85-0.101
		c0.9-0.166,1.816-0.399,2.75-0.699l2.15-1.25c0.233-0.301,0.416-0.634,0.55-1c0.233-0.767,0.167-1.667-0.2-2.7
		c0.434,0.166,1.25,0.434,2.45,0.8s1.884,0.55,2.05,0.55c1.634,0,4.217-0.434,7.75-1.3c1.5-0.333,3.066-0.583,4.7-0.75
		c3.3-0.3,5.517-0.1,6.65,0.6c0.633,0.4,1.116,1,1.449,1.801c0.733,0.8,1.601,2.166,2.601,4.1c0.899,1.866,1.35,3.033,1.35,3.5
		c0,3.733-2.533,6.767-7.6,9.1c-1.066,0-2.283-0.517-3.65-1.55c-1.8-1.333-3.2-3.217-4.2-5.649l1.551,1.449
		c0.533-0.566,0.866-1.05,1-1.449c0.033-0.067,0.05-0.25,0.05-0.551c0-1.566-0.334-2.916-1-4.05c-0.934-1.633-2.434-2.434-4.5-2.399
		c-0.334-0.067-0.55-0.101-0.65-0.101c-0.166-0.033-0.25,0.15-0.25,0.55c0,0.4,0.066,0.784,0.2,1.15
		C161.066,78.45,161.184,78.767,161.35,79.2z M185.55,78.1c0.233,0.434,0.55,0.767,0.95,1l0.05-0.05l0.3,3.4
		c0.2-0.167,0.467-0.334,0.801-0.5c0.267-0.2,0.399-0.55,0.399-1.05c0-0.601-0.149-1.434-0.45-2.5c-0.433-1.534-1.033-2.7-1.8-3.5
		l-0.6-0.851L185.1,75.8c0,0.101,0,0.2,0,0.3c-0.267-0.899-0.6-1.683-1-2.35c-0.433-0.7-1.616-1.533-3.55-2.5
		c-1.899-0.934-3.083-1.884-3.55-2.85l4.25,0.149c0.866,0,1.616-0.133,2.25-0.399c0.3-0.134,0.833-0.467,1.6-1
		c0.767-0.367,1.334-0.717,1.7-1.05c0.3-0.267,0.733-0.783,1.3-1.55l0.75-0.05l-0.149,0.6c0.733,0.733,2.383,1.183,4.95,1.35
		c1.933,0.133,2.899,1.066,2.899,2.8c0,2.7-1.483,6.15-4.45,10.35c-3.1,3.834-4.75,5.884-4.949,6.15
		c-0.801-0.467-1.25-2.033-1.351-4.7C185.767,79.983,185.684,79,185.55,78.1z M150.55,71.3c-0.633-0.6-1.583-1.083-2.85-1.45
		c-2.767-0.833-7.316-2.766-13.65-5.8c8.434,1.8,13.351,3,14.75,3.6c1.3,0.567,3.117,1.933,5.45,4.1
		C152.917,71.65,151.684,71.5,150.55,71.3z M99.8,22.05l0.15-0.2c6.899-0.067,11.5-0.184,13.8-0.35
		c1.134,0.067,5.866,0.017,14.2-0.15c0.666,0,1.5,0.033,2.5,0.1l0.149,1.65c0,3.133-2.199,6.05-6.6,8.75
		c-4.467,2.767-9.366,4.15-14.7,4.15c-4.666,0-7.816-0.567-9.45-1.7c-1.367-0.933-2.05-2.65-2.05-5.15c0-0.6,0.65-1.25,1.95-1.95
		c2-1.133,3.433-2.083,4.3-2.85l0.4-0.25c-0.934-0.067-1.817-0.2-2.65-0.4c0.067-0.233,0.317-0.467,0.75-0.7l1.25-0.5L99.8,22.05z
		 M85.8,28.5c0.1-0.133,0.4-0.8,0.9-2c0.533-1.233,0.883-2.117,1.05-2.65l4.7-1.15l-1.6,1.9c0.066-0.067,0.183-0.2,0.35-0.4
		c0.2-0.167,0.517-0.25,0.95-0.25c0.434,0,0.983,0.083,1.65,0.25l0.15,0.4c0.066,0.267,0.1,0.6,0.1,1c0,4.133-0.066,6.533-0.2,7.2
		c-0.467,2.4-1.767,3.6-3.9,3.6c-1.867,0-3.1-0.583-3.7-1.75c-0.333-0.633-0.5-1.7-0.5-3.2L85.8,28.5z M81.55,39.35L72.2,38.6
		c-1.133-0.667-2.583-1.934-4.35-3.8c-0.733-0.8-2.283-1.017-4.65-0.65c0.333-1.833,1.65-3.267,3.95-4.3
		c3.067-1.4,5.5-3.35,7.3-5.85c0.066,0.633,0.066,1.683,0,3.15c-0.067,1.767-0.217,3.167-0.45,4.2l-1.15,1
		c0.566,0.333,2.017,0.883,4.35,1.65C79.4,35.133,80.85,36.917,81.55,39.35z M144.1,95c0.367,2.667,0.733,7.25,1.101,13.75
		c0.8-0.8,1.2-1.7,1.2-2.7c0-1.366-0.684-5.066-2.051-11.1c-0.28-1.09-0.513-2.106-0.699-3.05
		C143.825,92.904,143.975,93.938,144.1,95z M120.85,21.15c4.2-0.333,6.834-0.983,7.9-1.95l4.2-0.95l0.8,0.1
		c-3.6,1.267-5.884,2.033-6.85,2.3C124.866,21.15,122.85,21.317,120.85,21.15z M126.4,79.15L127,79c0.634,0.467,1.7,0.95,3.2,1.45
		c1.434,0.666,2.633,1.75,3.6,3.25c1.467,2.267,2.351,3.684,2.65,4.25c0.566,1.133,0.85,2.333,0.85,3.6
		c-1.366,11.533-2.75,17.3-4.149,17.3c-2.233,0-4.467-0.916-6.7-2.75c-2.066-1.666-3.101-3.116-3.101-4.35c0-0.8,0.25-3.6,0.75-8.4
		l-0.3-2.25c-1.633,0.134-3.184,0.167-4.649,0.101c-2.834-0.101-4.934-0.617-6.301-1.55c-0.566-0.367-0.933-1.084-1.1-2.15
		c-0.134-1.2-0.283-2.066-0.45-2.6c-0.566-1.967-2.783-2.417-6.649-1.351c1.433-0.633,3.633-0.783,6.6-0.45
		c3.033,0.301,4.616,0.434,4.75,0.4c0.7-0.233,2.267-0.75,4.7-1.55C123.1,81.083,125,80.15,126.4,79.15z M77.85,86.75l-0.6,0.05
		l-0.15,2.25c0,0.967,0.267,2.601,0.8,4.9c0.233,3.866,0.55,6.533,0.95,8l0.6,1.35c0.133-0.866,0.167-2.133,0.1-3.8
		c0.4,0.833,0.6,1.55,0.6,2.15c0.167,0.466,1.067,1.35,2.7,2.649c-0.7-2.066-1.317-3.816-1.85-5.25
		c-0.167-0.399-0.25-0.75-0.25-1.05c0-0.4,0.017-0.65,0.05-0.75c0.067-0.1,0.133-0.267,0.2-0.5c0.033,0,0.117-0.066,0.25-0.2
		c0.167-0.133,0.45-0.2,0.85-0.2c0.767,0,2.917,1.4,6.45,4.2c3.434,2.733,6.017,3.934,7.75,3.601c0.233-0.9-1.2-3.334-4.3-7.301
		c-3.167-4.133-4.75-6.633-4.75-7.5c0-1.066,0.55-1.783,1.65-2.149c1.1-0.367,1.65-1.05,1.65-2.05c-0.1-1.767-0.117-3-0.05-3.7
		c-1.567,0.666-2.683,1-3.35,1c-2.167-1.533-4.65-3.233-7.45-5.101c0.033,0.134,0.483,1.134,1.35,3
		c0.833,1.834,1.267,2.983,1.3,3.45c-0.367,0-0.783-0.083-1.25-0.25c-0.967-0.366-1.717-0.967-2.25-1.8L78.5,83.3
		C78.2,84.533,77.983,85.684,77.85,86.75z M24,79.5l1.1-0.65h0.65L24,79.5z M44,77.85c0,2.334-0.65,4.334-1.95,6
		c-1.333,1.634-2.933,2.45-4.8,2.45c0.5-0.566,1.383-1.149,2.65-1.75c1.133-0.533,1.833-1.05,2.1-1.55
		c0.367-0.667,0.65-1.434,0.85-2.3C43.05,79.833,43.433,78.884,44,77.85z"/>
	<path style="fill-rule:evenodd;clip-rule:evenodd;fill:#898074;" d="M65.15,41.1l0.4,0.35c0.733,0.966,1.417,2.233,2.05,3.8
		c0.667,1.7,1,3.133,1,4.3c0,1.867-0.567,3.684-1.7,5.45c-0.5,0.8-1.867,2.483-4.1,5.05c-1,1.133-1.75,3.067-2.25,5.8
		c-0.267,1.433-0.533,2.966-0.8,4.6c-0.133,0.3-0.383,1-0.75,2.1c-0.4,1.167-0.6,1.867-0.6,2.101c-0.433,1.666-0.7,2.883-0.8,3.649
		l-0.15,1c0.2-0.6,0.45-1.233,0.75-1.899L57.15,81.6c-0.2,0.434-0.383,0.884-0.55,1.351c-0.267,0.633-0.633,1.517-1.1,2.649
		c-0.633,1.567-2.083,3.351-4.35,5.351c-1.3,1.133-2.717,1.866-4.25,2.2c-1.767,0.233-3.217,0.533-4.35,0.899
		c-0.1-0.967-0.85-2.217-2.25-3.75c-1.667-1.633-2.8-2.75-3.4-3.35l0.35-0.65c1.867,0,3.467-0.816,4.8-2.45
		c1.3-1.666,1.95-3.666,1.95-6c0.1-1.033,0.583-3.666,1.45-7.899c0.733-3.6,1.216-5.9,1.45-6.9l-0.75,8L46,75.75c0,6,0.733,9,2.2,9
		c1.667,0,2.85-2.3,3.55-6.9c1.267-8.233,2.317-13.75,3.15-16.55c0.167-0.633,0.95-1.267,2.35-1.9c0.8-0.4,2.217-1.05,4.25-1.95
		c4-1.934,6-4.467,6-7.6C67.5,48.45,66.717,45.533,65.15,41.1z M14.4,87.95c4.767,0.967,8.767,2.633,12,5
		c1.8,1.267,3.85,2.967,6.15,5.1C30.783,97.884,28.6,96.7,26,94.5c-3-2.5-6.4-4.3-10.2-5.4L14.4,87.95z M10.25,84.95L9.2,84.4
		c-0.034-0.034-0.267-0.167-0.7-0.4c-0.5-0.3-1.3-0.934-2.4-1.9l-1.05-1.3v-0.3V78c1.8,0.566,3.367,1.116,4.7,1.65
		c1.167,0.466,2.883,1.05,5.15,1.75l-0.25,0.35C12.25,83.417,10.783,84.483,10.25,84.95z M64.55,40.55c-3.667-1-6.3-1.833-7.9-2.5
		c-2.267-1-4.917-2.1-7.95-3.3l-2.5-1.1c-1.7-1.333-3.4-2.55-5.1-3.65l0.2-0.6l1-2.2c4.5,0.433,8.017,1.5,10.55,3.2
		c1.3,0.867,2.45,1.833,3.45,2.9c-2.8,0.034-4.933,0.083-6.4,0.15c0.067,0.033,2.4,1.117,7,3.25
		C61.367,38.733,63.917,40.017,64.55,40.55z M153.85,28.55L153.7,28.7c-1.167,0.8-2.367,1.533-3.601,2.2
		c-0.433-6.267-0.767-10.483-1-12.65c0.7-0.8,1.284-1.2,1.75-1.2c0.967,0,1.65,1.4,2.051,4.2
		C153.134,22.817,153.45,25.25,153.85,28.55z M188.85,64.5l8.7-0.1c1.3,0,2.167,2.167,2.601,6.5c0.233,2.166,0.316,4.366,0.25,6.6
		c0,0.9-0.7,2.884-2.101,5.95c-0.233,0.5-2.017,4.166-5.35,11l-2.7,3.1c-1.934,1.134-3.167,2.066-3.7,2.8
		c-0.166,0.233-0.25,0.567-0.25,1c0,3.467-1.684,7.551-5.05,12.25c-3.2,4.467-5.684,6.7-7.45,6.7c-0.8,0-1.5-0.467-2.1-1.399
		c-0.733-1.2-1.101-3-1.101-5.4c0-2.366,0.584-4.316,1.75-5.85c0.634-0.867,1.9-1.967,3.801-3.301c1.8-1.267,3.05-2.433,3.75-3.5
		c1.166-1.699,1.75-3.883,1.75-6.55l-0.15-5.55c-0.033,2.8-1.6,5.134-4.7,7c-2.3,1.366-4.217,2.05-5.75,2.05
		c-1.633,0-3.45-1.783-5.45-5.35c-2.933-5.233-6.133-9.5-9.6-12.8c-0.233-0.7-0.45-1.351-0.65-1.95
		c-0.366-1.167-0.533-2.134-0.5-2.9c0.5,0,1,0.117,1.5,0.351c0.434,0.466,2.101,1.816,5,4.05c0.134,0.467,0.117,0.833-0.05,1.1
		c0.167,0.434,1.267,1.55,3.3,3.351c1,2.433,2.4,4.316,4.2,5.649c1.367,1.033,2.584,1.55,3.65,1.55c5.066-2.333,7.6-5.366,7.6-9.1
		c0-0.467-0.45-1.634-1.35-3.5c-1-1.934-1.867-3.3-2.601-4.1c-0.333-0.801-0.816-1.4-1.449-1.801c-1.134-0.699-3.351-0.899-6.65-0.6
		c-1.634,0.167-3.2,0.417-4.7,0.75c-3.533,0.866-6.116,1.3-7.75,1.3c-0.166,0-0.85-0.184-2.05-0.55s-2.017-0.634-2.45-0.8
		l-3.25-1.65l2.75,0.5c1.134,0.2,2.367,0.351,3.7,0.45l8-0.05c0.667,0,1.566-0.117,2.7-0.351c1.5-0.366,2.416-0.8,2.75-1.3
		l2.25-1.399c2.7,0.6,4.083,0.916,4.149,0.949l1.4,1.9c1.3,1.767,3.566,4.684,6.8,8.75c0.167,0.767,0.417,1.267,0.75,1.5h0.45
		l-1.2-1.5c-0.166-2.566-1.017-4.85-2.55-6.85c-0.833-1.101-2.667-2.884-5.5-5.351c1.467,0,2.384,0.117,2.75,0.351
		c0.467,0.966,1.65,1.916,3.55,2.85c1.934,0.967,3.117,1.8,3.55,2.5c0.4,0.667,0.733,1.45,1,2.35c0.034,0.801,0.184,1.467,0.45,2
		c0.134,0.9,0.217,1.884,0.25,2.95c0.101,2.667,0.55,4.233,1.351,4.7c0.199-0.267,1.85-2.316,4.949-6.15
		c2.967-4.199,4.45-7.649,4.45-10.35c0-1.733-0.967-2.667-2.899-2.8c-2.567-0.167-4.217-0.617-4.95-1.35L188.85,64.5z M113.75,21.5
		c-0.366-0.033-0.717-0.133-1.05-0.3c3.467,0.133,6.184,0.117,8.149-0.05c2,0.167,4.017,0,6.051-0.5
		c0.966-0.267,3.25-1.033,6.85-2.3c1.6-0.067,3.116-0.15,4.55-0.25c1.566,0,2.584,0.25,3.05,0.75c0.567,0.566,0.851,1.8,0.851,3.7
		c0,2.333-1.983,5.45-5.95,9.35c-1.7,1.667-4.1,3.717-7.2,6.15c-1.333,0.2-5.649,1.217-12.95,3.05c-1.6,0.3-3.166,0.533-4.699,0.7
		c-2.834,0.333-6.851,0.483-12.05,0.45c-3.7-0.5-8.817-0.8-15.35-0.9c0-0.567-0.233-1.033-0.7-1.4c-0.5-0.4-1.083-0.6-1.75-0.6
		c-0.7-2.434-2.15-4.217-4.35-5.35c-2.333-0.767-3.784-1.317-4.35-1.65l1.15-1l1.3-0.85c1.067-0.667,2.05-1.233,2.95-1.7l-1.3,1.05
		c0.066,0.066,0.85,0.9,2.35,2.5c0.934,1,1.75,1.5,2.45,1.5c0.767,0,1.35-0.35,1.75-1.05c0.267-0.533,1.033-1.966,2.3-4.3
		l-0.05,2.95c0,1.5,0.167,2.566,0.5,3.2c0.6,1.167,1.833,1.75,3.7,1.75c2.133,0,3.433-1.2,3.9-3.6c0.133-0.667,0.2-3.066,0.2-7.2
		c0-0.4-0.033-0.733-0.1-1l-0.15-0.4c-0.667-0.167-1.216-0.25-1.65-0.25c-0.433,0-0.75,0.083-0.95,0.25
		c-0.167,0.2-0.284,0.333-0.35,0.4l1.6-1.9h0.1c1.667,0.733,2.65,1.867,2.95,3.4c0.033,0.1,0.067,1.566,0.1,4.4v0.4
		c1.167-3.467,1.967-5.566,2.4-6.3c0.3-0.5,0.9-1.35,1.8-2.55l4,0.45l-1.25,0.5c-0.433,0.233-0.683,0.467-0.75,0.7
		c0.833,0.2,1.717,0.333,2.65,0.4l-0.4,0.25c-0.867,0.767-2.3,1.717-4.3,2.85c-1.3,0.7-1.95,1.35-1.95,1.95
		c0,2.5,0.684,4.217,2.05,5.15c1.633,1.133,4.784,1.7,9.45,1.7c5.334,0,10.233-1.383,14.7-4.15c4.4-2.7,6.6-5.617,6.6-8.75
		l-0.149-1.65c-1-0.067-1.834-0.1-2.5-0.1C119.616,21.517,114.884,21.567,113.75,21.5z M130.5,42.65l-5.7,2.05l1.2-0.65L130.5,42.65
		z M84.25,15.25l4.9-1.15c-0.867,0.4-2.083,0.85-3.65,1.35l-4,1.15L84.25,15.25z M75.7,20.65c-0.067,0,1.3-0.75,4.1-2.25
		c2.9-1.566,4.8-2.55,5.7-2.95l1.75-0.5c-6.967,3-11.233,6.017-12.8,9.05c-1.8,2.5-4.233,4.45-7.3,5.85
		c-2.3,1.033-3.617,2.467-3.95,4.3c2.367-0.367,3.917-0.15,4.65,0.65c1.767,1.867,3.217,3.133,4.35,3.8
		c-2.6-0.967-5.684-1.6-9.25-1.9c-1.867-0.167-2.8-0.867-2.8-2.1c0-0.467,0.55-1.233,1.65-2.3c1.367-1.3,2.267-2.35,2.7-3.15
		c-2.2,0.5-3.95,1.233-5.25,2.2c-1.5,1.167-2.4,1.8-2.7,1.9c-0.2-0.967-0.417-2.317-0.65-4.05c-0.233-1.667-0.35-2.767-0.35-3.3
		c0-0.733,0.3-1.517,0.9-2.35c1.1-0.566,2.6-1.066,4.5-1.5c0.533-0.066,1.117-0.167,1.75-0.3c0.167-0.033,0.4-0.083,0.7-0.15
		c3.1-0.533,5.667-1.167,7.7-1.9c-2.233,1.066-3.85,2.433-4.85,4.1c-1.2,1.967-2.333,3.317-3.4,4.05l-0.55,0.6
		c2.167-0.6,4.2-1.5,6.1-2.7C69.7,24.95,72.133,23.25,75.7,20.65z M85.15,46.35c-2.533,1.1-4.45,2.5-5.75,4.2
		c-1.533,2-2.517,4.784-2.95,8.35c-0.567,4.833-1.9,8.8-4,11.9c-1.833,2.733-2.75,5.4-2.75,8c0,1.601,0.4,4.45,1.2,8.55
		c0.633,3.334,1.35,6.567,2.15,9.7c0.434,1.634,1.333,3.417,2.7,5.351c1.2,1.633,2.583,3.183,4.15,4.649
		c5.067,4.667,8.367,7.55,9.9,8.65c4.867,3.467,9.5,5.2,13.9,5.2c0.8,0,2.184-1.784,4.149-5.351c0.233,1.467,0.351,2.5,0.351,3.101
		c0,1.6-0.684,3.233-2.05,4.899c-1.9,2.033-3.434,3.8-4.601,5.3c-2.7-0.133-4.833-0.333-6.4-0.6c-2.733-0.5-5.5-1.634-8.3-3.4
		c-1.633-1.8-2.533-3.383-2.7-4.75c1.467,0.101,3.05,0.567,4.75,1.4c2.3,1.167,5.1,2.15,8.4,2.95l-0.4-0.4
		c-6.6-3.899-12.066-8-16.4-12.3c-6.4-6.4-9.833-12.767-10.3-19.1c0.1,2.166,0.15,4.949,0.15,8.35c0,3.6-0.05,6.483-0.15,8.65
		c-2.934-1.034-4.717-2.317-5.35-3.851c-1.833-4.899-2.817-7.434-2.95-7.6c-1.967-2.134-3.1-3.384-3.4-3.75
		c-0.233-0.3-0.35-0.767-0.35-1.4c0-0.7,0.2-1.934,0.6-3.7c0.633-2.733,1.2-5.199,1.7-7.399c0-1.233,0.333-3.167,1-5.8
		c0.7-2.434,1.05-3.75,1.05-3.95c3.633-5.1,7.067-10.017,10.3-14.75c0.667-0.967,1.3-3.15,1.9-6.55c0.267-0.8,0.617-1.5,1.05-2.1
		L81,45.9l2.4-0.05L85.15,46.35z M104.65,83.55c3.866-1.066,6.083-0.616,6.649,1.351c0.167,0.533,0.316,1.399,0.45,2.6
		c0.167,1.066,0.533,1.783,1.1,2.15c1.367,0.933,3.467,1.449,6.301,1.55c1.466,0.066,3.017,0.033,4.649-0.101l0.3,2.25
		c-0.5,4.801-0.75,7.601-0.75,8.4c0,1.233,1.034,2.684,3.101,4.35c2.233,1.834,4.467,2.75,6.7,2.75c1.399,0,2.783-5.767,4.149-17.3
		c0-1.267-0.283-2.467-0.85-3.6c-0.3-0.566-1.184-1.983-2.65-4.25c-0.967-1.5-2.166-2.584-3.6-3.25c-1.5-0.5-2.566-0.983-3.2-1.45
		c0.533-0.2,0.816-0.5,0.85-0.9l0.75,0.051c0.101,0.166,0.75,0.616,1.95,1.35c1.066,0.634,1.834,1.05,2.3,1.25l5.301,9.7
		c0.3-0.867-0.067-2.684-1.101-5.45c-1-2.566-2-4.533-3-5.9c2.033,0.367,3.45,0.867,4.25,1.5c0.434,0.334,0.65,0.634,0.65,0.9
		c0,0.2,0.434,1.184,1.3,2.95c0.9,1.8,1.384,3.116,1.45,3.95c0.033,0.199,0.333,4.366,0.899,12.5
		c0.367,5.033,0.617,9.833,0.75,14.399c0.334,2.101,1.884,3.15,4.65,3.15s4.467-0.7,5.1-2.101c0.233-0.5,0.884-3.8,1.95-9.899
		c0.634-3.601,1.017-6.134,1.15-7.601c0.3-3.333,0.416-8.216,0.35-14.649c1.467,5.7,2.25,8.816,2.351,9.35
		c1.066,5.434,1.6,11.617,1.6,18.55c0,4.601-1.017,8.284-3.05,11.051c-2.767,3.8-7.367,5.699-13.8,5.699
		c-3.334-0.366-5.4-0.783-6.2-1.25v-0.55c0.899-1,1.583-2.583,2.05-4.75c0.366-1.833,0.55-3.883,0.55-6.149
		c0-1.9-0.2-5.467-0.6-10.7c-0.367-5-0.566-7.667-0.601-8l-0.8,5.5c-0.533,3.767-0.8,5.85-0.8,6.25c0,3.233-0.583,5.899-1.75,8
		c-0.967,1.733-1.95,2.6-2.95,2.6c-1.233,0-2.934,0.15-5.1,0.45c-2.167,0.3-3.334,0.45-3.5,0.45c-3.634,0-5.45-1.483-5.45-4.45
		c0.134-1.733,0.233-3.017,0.3-3.85c0.101-1.534-0.033-2.667-0.399-3.4c-0.834-0.767-1.717-1.667-2.65-2.7
		c-1.833-2.066-3.3-4.517-4.4-7.35c-0.3-0.8-1.25-2.601-2.85-5.4c-1.333-2.366-2-3.85-2-4.45c0-0.399,0.116-1.133,0.35-2.199
		c0.267-1.301,0.4-1.983,0.4-2.051L96.1,84.1l-0.45-0.3l-0.05-0.05C98.3,83.816,101.317,83.75,104.65,83.55z M107.7,113.6
		c-0.467-1.133-0.983-2.5-1.55-4.1c-0.534-1.6-0.801-2.533-0.801-2.8c0.267-4.2,0.4-6.601,0.4-7.2c1.267,4.667,1.95,7.533,2.05,8.6
		C107.9,109.033,107.866,110.866,107.7,113.6z"/>
	<path style="fill-rule:evenodd;clip-rule:evenodd;fill:#635B52;" d="M189.35,114.15L189,114.5c0.5-2.634,0.75-5.116,0.75-7.45
		c0-0.233-0.45-1.2-1.35-2.899c-0.934-1.7-1.4-2.684-1.4-2.95c0-0.667,0.467-1.4,1.4-2.2c0.5-0.434,1.116-0.917,1.85-1.45l2.7-3.1
		l1.7-1.95c-0.334,0.866-1,3.417-2,7.65c0,0.399,0.183,1.449,0.55,3.149c0.467,2.066,0.95,3.601,1.45,4.601
		C193.55,109.434,191.783,111.517,189.35,114.15z M101.55,128.85c2.233,0.267,3.634,0.367,4.2,0.301
		c1.167-0.134,2.066-0.733,2.7-1.801c0.733-1.166,1.616-2.366,2.649-3.6c0.7-1.167,1.051-3.033,1.051-5.6c0-2.867-0.301-5.5-0.9-7.9
		c-0.8-3.366-1.3-5.8-1.5-7.3c3.5,6.166,5.583,10.35,6.25,12.55c0.634,2.066,0.95,5.65,0.95,10.75c0,0.1-0.767,1.767-2.3,5
		c0,0.3,0.366,0.667,1.1,1.1c1.134,0.667,2.7,1,4.7,1c0.434,0,2.5-0.483,6.2-1.449c1.866-0.5,3.683-1,5.449-1.5
		c3.167-3,5.017-4.934,5.551-5.801c-0.134,0.801-0.2,1.617-0.2,2.45v0.55l0.5,2.851c6.1-0.167,12.517-1.851,19.25-5.05
		c0.133-0.034,0.883-0.25,2.25-0.65c1.366-0.4,2.166-0.684,2.399-0.85c0.233-0.601,0.45-1.217,0.65-1.851
		c0.434-1.2,0.866-1.967,1.3-2.3c0.434,0.233,1.233,1.15,2.4,2.75c0.6,0.833,2.366,1.25,5.3,1.25c2.7,0,6.467-1.066,11.3-3.2
		l-0.6,0.5c-3.233,1.733-6.717,3.184-10.45,4.351l-1.95,0.55l-46.149,8.6c-5,0.267-7.834,0.4-8.5,0.4
		c-2.867,0-6.351-0.283-10.45-0.851c-11.833-4.3-18.784-7-20.85-8.1c-2.1-1.267-3.4-2.083-3.9-2.45
		c-2.367-1.533-4.967-3.35-7.8-5.45L59.2,108.95l0.2-2.351c6.434,4.4,15.583,10.483,27.45,18.25c2.8,1.767,5.566,2.9,8.3,3.4
		C96.717,128.517,98.85,128.717,101.55,128.85z M60.45,81.95c-0.934,1.633-1.95,4.467-3.05,8.5c-1.333,5-2,9.483-2,13.45
		c0,0.333,0.233,0.683,0.7,1.05c0.633,0.533,1.267,1.583,1.9,3.149l-7.4-4.8c-0.733,1.967-1.833,2.884-3.3,2.75
		c-1.433-0.533-2.267-0.833-2.5-0.899l-1.35-0.301c5.533-1.733,8.983-4.949,10.35-9.649c0.7-5.134,1.633-9.217,2.8-12.25
		c0.167-0.467,0.35-0.917,0.55-1.351L58.2,77.4l0.2-2.75c0-0.233,0.2-0.934,0.6-2.101c0.367-1.1,0.617-1.8,0.75-2.1
		c2.5-3.534,4.017-5.633,4.55-6.3l-0.3,1.3c-0.533,2.233-1.033,4.483-1.5,6.75c0,0.2-0.35,1.517-1.05,3.95
		C60.783,78.783,60.45,80.717,60.45,81.95z M75.75,48.8c-0.733,0.567-1.517,1.217-2.35,1.95c-3.333,3.167-5.3,4.933-5.9,5.3
		l0.65-1.25c1.7-3.466,2.767-5.667,3.2-6.6c0.633-1.333,0.95-2.5,0.95-3.5c0-0.833-0.917-1.767-2.75-2.8
		c-2.733-1.566-4.966-3.217-6.7-4.95l1.25,0.6c1.167,0.333,3.717,1.133,7.65,2.4c3.767,1.1,6.633,1.65,8.6,1.65
		c1.033,0,2.25-0.083,3.65-0.25c6.533,0.1,11.65,0.4,15.35,0.9c2.333,0.5,5.016,0.667,8.05,0.5c3.233-0.2,6.133-0.75,8.699-1.65
		c7.301-1.833,11.617-2.85,12.95-3.05c1.334-0.233,2.8-0.617,4.4-1.15c1.1-0.367,3.5-0.733,7.2-1.1h0.149l-0.95,0.5
		c-3.199,0.967-6.133,2.333-8.8,4.1c-2.399,1.867-4.083,3.083-5.05,3.65l-1.2,0.65c-2.033,0.9-4.8,1.7-8.3,2.4
		c-1.733,0.4-2.9,0.617-3.5,0.65c-2.566,0.433-5.3,0.65-8.2,0.65c-1.033-0.033-4.55-0.467-10.55-1.3
		c-5.867-0.8-9.483-1.217-10.85-1.25L81,45.9L75.75,48.8z M85.5,15.45c-0.9,0.4-2.8,1.383-5.7,2.95c-2.8,1.5-4.167,2.25-4.1,2.25
		c-1.667,0.733-3.017,1.033-4.05,0.9c0.967-0.867,1.733-1.667,2.3-2.4c0.7-0.433,3.216-1.283,7.55-2.55L85.5,15.45z"/>
</g>
</svg>
