<?xml version="1.0" encoding="iso-8859-1"?>
<!-- Generator: Adobe Illustrator 15.1.0, SVG Export Plug-In . SVG Version: 6.00 Build 0)  -->
<!DOCTYPE svg PUBLIC "-//W3C//DTD SVG 1.1//EN" "http://www.w3.org/Graphics/SVG/1.1/DTD/svg11.dtd">
<svg version="1.1" id="Layer_1" xmlns="http://www.w3.org/2000/svg" xmlns:xlink="http://www.w3.org/1999/xlink" x="0px" y="0px"
	 width="135.2px" height="110.6px" viewBox="0 0 135.2 110.6" style="enable-background:new 0 0 135.2 110.6;" xml:space="preserve"
	>
<g>
	<path style="fill-rule:evenodd;clip-rule:evenodd;fill:#4C4A45;" d="M127.15,98.15l2.6-1.101c0.7-0.3,1.283-0.45,1.75-0.45
		c0.1,0,0.267,0.184,0.5,0.551c0.267,0.366,0.483,0.55,0.65,0.55c0.399,0,0.699-0.066,0.899-0.2l0.3-0.25
		c0.2-0.733,0.301-1.434,0.301-2.1c-0.233-2.134-0.733-3.801-1.5-5c-0.467-0.233-0.017-0.733,1.35-1.5l0.35-0.15
		c0.134,1.467,0.417,4.083,0.851,7.85c0,4.2-1.084,7-3.25,8.4c-2.134,1.366-6.434,2.05-12.9,2.05c-1.166,0-2.017-0.633-2.55-1.899
		c-1.866,1.767-3.233,3.017-4.1,3.75c-1.467,1.3-2.884,1.949-4.25,1.949c-4.867,0-9.7-0.783-14.5-2.35c-4.601-1.5-6.9-2.9-6.9-4.2
		c0-0.366,0.184-0.899,0.55-1.6c0.3-0.667,0.434-1.066,0.4-1.2l-0.55-0.75l-0.101-0.15l0.4,0.2c2.066,0.733,3.783,1.2,5.149,1.4
		l0.75,0.25c-0.267,0.233-0.433,0.366-0.5,0.399c-0.199,0.101-0.583,0.167-1.149,0.2l-3.5-0.25c0.066,2,1.583,3.634,4.55,4.9
		c1.5,0.633,3.05,1.066,4.65,1.3c0.566,0,1.1-0.1,1.6-0.3c0.8-0.3,1.2-0.8,1.2-1.5c-0.267-1.434-1.066-2.617-2.4-3.55
		c0.967-0.233,1.45-0.467,1.45-0.7c2.366-0.033,4.066-0.134,5.1-0.3c0.7-0.134,1.551-0.4,2.551-0.801h0.399
		c-0.033,0.067-0.649,0.367-1.85,0.9c-1.066,0.5-1.717,1.033-1.95,1.6c0.866,0.101,1.35,0.25,1.45,0.45
		c-0.167,0.533-0.517,0.983-1.05,1.351c-0.567,0.333-0.95,0.583-1.15,0.75c0.566,0.267,0.983,0.55,1.25,0.85
		c0.134,0.134,0.316,0.2,0.55,0.2c1.934,0,3.634-0.351,5.101-1.05c2.399-1.134,3.6-3.051,3.6-5.75c0-0.334,0.434-1.233,1.3-2.7
		c0.834-1.434,1.25-3.434,1.25-6c0-0.8-1.066-3.233-3.2-7.3c-0.833,0.666-2.033,1.183-3.6,1.55c-1.233,0.3-2.333,0.45-3.3,0.45
		c-1.533,0-2.816-0.167-3.851-0.5c3.733,0.133,6.334-0.334,7.801-1.4c1.066-0.733,1.6-1.866,1.6-3.4c-1.267-4.233-2.3-6.35-3.1-6.35
		c-0.367,0-0.9,0.233-1.601,0.7c-0.733,0.5-1.184,0.767-1.35,0.8l0.899-0.65c0.867-0.8,1.417-1.35,1.65-1.649
		c0.566-0.834,0.934-1.884,1.1-3.15c0.101-1.533,0.317-2.833,0.65-3.899l-0.4-0.601c-0.366-0.366-0.816-0.717-1.35-1.05l-0.45-0.3
		c-0.1-0.066-0.166-0.101-0.2-0.101L105.9,65h-0.15h-1.25c0.1-0.033,1.184-0.184,3.25-0.45l0.55-0.149
		c1.9-0.934,3.65-2.634,5.25-5.101c1.267-1.899,1.9-3.066,1.9-3.5c-0.434-1.533-1.566-2.966-3.4-4.3l0.9,0.25
		c0.5,0.133,1.45,0.55,2.85,1.25c1.167,0.6,2.101,0.9,2.8,0.9c0.667,0,0.884-0.017,0.65-0.05c1.333-11.7,2-18.083,2-19.15
		c0-4.434-0.583-7.95-1.75-10.55c-1.066-2.367-2.45-3.733-4.15-4.1c0.101-2.466,0.301-4.417,0.601-5.85l0.399-1.4
		c0.134,0.3,1.45,2.017,3.95,5.15c1.7,2.167,2.55,4.65,2.55,7.45c0,3.867-0.383,9.533-1.149,17
		c-0.834,7.833-1.617,12.934-2.351,15.3c-0.1,0.1-1.383,0.967-3.85,2.6c-0.5,0.367-1.283,1.25-2.35,2.65
		c-0.801,1.033-1.434,1.899-1.9,2.6c0.4,0.167,0.967,0.334,1.7,0.5c0.333,0.066,0.7,0.15,1.1,0.25c0.066,0,0.117,0.017,0.15,0.05
		c1.5,0.233,2.883,0.351,4.149,0.351c1.9,0,4.034-0.316,6.4-0.95c3.6-0.934,5.917-2.366,6.95-4.3c0.233-0.566,0.434-1.283,0.6-2.15
		c0.2-0.934,0.3-1.666,0.3-2.2h0.15l0.85-0.149c0.134,1.833-0.216,3.7-1.05,5.6c-0.7,1.601-1.45,2.7-2.25,3.3l0.45,0.75
		c-1.167,0.067-7.967,0.15-20.4,0.25c-0.066,0.101-0.233,0.15-0.5,0.15c-0.166,0.033-0.25,0.233-0.25,0.6
		c0,0.667,0.101,1.2,0.301,1.601l0.05,1V71v0.1l0.3,1.65l0.2,0.75c0.8,2.5,1.283,4.8,1.45,6.9v0.149l0.3,0.95l0.1,0.35l1,2
		l0.05,0.051l0.2,0.399l0.95,1.95c0.1,0,1.15-0.434,3.15-1.3c2.133-0.867,3.616-1.3,4.449-1.3c2.567,0,4.801,0.25,6.7,0.75
		c0.733,0.033,1.417-0.884,2.05-2.75l-0.3-0.15c-2.033-0.233-3.316-0.467-3.85-0.7c0.434-0.066,1.816-0.649,4.149-1.75
		c2.434-1.133,3.867-1.866,4.301-2.2c0.1,1.4-0.134,2.867-0.7,4.4c-0.834,2.4-1.367,4.134-1.601,5.2l0.25,0.25v0.05l-0.399,0.6
		c-0.467-0.233-2.066-0.566-4.8-1c-2.534-0.366-4.051-0.55-4.551-0.55c-0.8,0-1.966,0.066-3.5,0.2c-2.033,0.2-3.733,0.45-5.1,0.75
		l0.2,0.4L115,87.2l0.95,1.35l0.8,1.05l0.45,2.4l0.2,1.1l0.399,3.15L118.15,96c0.699-0.467,1.517-0.934,2.449-1.4
		c1.233-0.633,2.15-0.966,2.75-1l0.4-0.05l5.4-1.2l1.6-0.35l1.45-0.3v0.55c-0.467,0.934-1.351,1.616-2.65,2.05
		c-1.066,0.4-1.983,0.517-2.75,0.351l-0.75-0.051c-1.5-0.233-2.783-0.233-3.85,0c-2.134,0.834-3.55,1.584-4.25,2.25
		c-0.3,0.301-0.5,0.733-0.601,1.301l0.051,0.25l0.05,0.55l0.1,2.85c0,0.3,0.066,0.684,0.2,1.15c0,0.328-0.175,0.494-0.525,0.5
		c0.35,0.005,0.491,0.172,0.426,0.5c-0.067,0.166-0.15,0.434-0.25,0.8c1.699,0.2,3.683,0.3,5.949,0.3c0.301,0,0.601-0.25,0.9-0.75
		c0.434-0.7,1.05-1.316,1.85-1.85c0.2-0.134,1.2-0.384,3-0.75c1.834-0.5,3.017-1.267,3.551-2.3c-0.034-0.434-0.667-0.65-1.9-0.65
		c-1.566,0-2.75,0.134-3.55,0.4c-0.367,0.166-0.7,0.283-1,0.35l-0.05-0.3C126.217,98.934,126.55,98.583,127.15,98.15z M102.85,67
		c-0.566,1.5-1.183,2.7-1.85,3.6c-1.434,0-2.65,0.334-3.65,1c-1,0.667-1.5,1.483-1.5,2.45L95.8,75.3l-5.75-0.25L89.8,75
		c2.134-0.033,3.95-0.767,5.45-2.2c1.267-1.233,1.9-2.483,1.9-3.75c0-0.899-0.217-1.633-0.65-2.2c-0.467-0.466-0.75-0.8-0.85-1
		L101,67.95c0.434,0,0.85-0.134,1.25-0.4C102.55,67.35,102.75,67.167,102.85,67z M72.9,62.8L72.5,63.9l-0.55,0.05l-9.3,0.149
		c-1.066,0-2.1-0.083-3.1-0.25c5.233-0.733,7.917-1.116,8.05-1.149c1.667-0.367,3.684-1.25,6.051-2.65
		c2.966-1.767,5.949-4.3,8.949-7.6c0-0.833-0.066-1.4-0.199-1.7c-0.467-1.033-1.551-1.65-3.25-1.85c1.233-0.5,2.366-1.3,3.399-2.4
		c0.066-0.033,0.134-0.083,0.2-0.15c0.033-0.033,0.066-0.1,0.1-0.2c0.334-0.4,0.667-0.833,1-1.3c0.667-1,1.167-1.917,1.5-2.75
		c-0.399,2.233-0.449,3.783-0.149,4.65c0.066,0.2,0.366,0.533,0.899,1c0.5-0.033,1.417-0.75,2.75-2.15
		c1.301-1.333,2.067-2.317,2.301-2.95L91,44.6c-0.033,1-0.05,2.283-0.05,3.85c-0.033,1.167-0.117,1.95-0.25,2.35l-0.8,0.65
		L87.6,52.1c-0.833,0.533-1.433,0.917-1.8,1.15c-0.833,0.633-1.416,0.983-1.75,1.05c-1.233,0-2.283,0.284-3.149,0.85
		c-0.867,0.533-1.301,1.2-1.301,2l0.25,1l0.101,0.399v0.601c-0.134,0.1-0.483,0.116-1.05,0.05c-0.634-0.066-1.051-0.117-1.25-0.15
		c-0.767,0.167-1.733,0.75-2.9,1.75C73.717,61.7,73.1,62.366,72.9,62.8z M57.8,63.35L56.5,63c-1.567,5.233-3.85,8.483-6.85,9.75
		c-2.167,0.9-7.267,1.35-15.3,1.35c-0.7,0-2.233-0.1-4.6-0.3c-2.633-0.233-4.317-0.45-5.05-0.649c4.867,0.166,7.933,0.083,9.2-0.25
		c0.9-0.233,2.317-0.834,4.25-1.801l-0.05,0.25c-0.033,0.034-0.2,0.051-0.5,0.051c-0.133,0,0.066,0.25,0.6,0.75
		c5.066-0.301,8.1-0.551,9.1-0.75c1.333-0.267,2.7-1,4.1-2.2c0.4-0.334,0.8-1.05,1.2-2.15c0.367-1,0.55-1.684,0.55-2.05
		c0.033-1.833,0.267-3.134,0.7-3.9c0.433-0.767,0.65-1.466,0.65-2.1c-0.633-4.3-0.983-6.667-1.05-7.1l-0.05,0.05
		c0,1-0.2,1.867-0.6,2.6c-0.433,0.7-0.95,1.05-1.55,1.05c-0.767,0.333-1.383,0.7-1.85,1.1c0.541-0.615,0.941-1.182,1.2-1.7
		c1.1-2.033,1.45-3.7,1.05-5c-0.133-0.467-0.316-0.967-0.55-1.5l-0.3-0.6l-0.45-0.8c0.533,0.3,1.9,0.617,4.1,0.95l2.3,0.55
		l0.05,0.05c-0.566,0.1-1.05,0.217-1.45,0.35c-0.2,0.267-0.517,0.767-0.95,1.5c-0.433,0.767-0.65,1.183-0.65,1.25
		c0,0.133,0.6,1.567,1.8,4.3C56.817,59.116,57.567,61.55,57.8,63.35z M3.9,61.6c0.233-0.267,0.684-0.5,1.35-0.699
		c0.167-0.034,0.35-0.084,0.55-0.15c1.233-0.8,1.784-1.05,1.65-0.75L6,61.85c1.5,0.134,2.983,0.167,4.45,0.101
		c1.233-0.101,1.9-0.316,2-0.65c0.6-0.533,1.316-1,2.15-1.399c1.7-0.067,3.2-0.867,4.5-2.4c1.867-2.067,3.35-3.483,4.45-4.25
		c-0.1-0.033-0.2-0.1-0.3-0.2c-0.367-0.4-0.633-1.216-0.8-2.45c-0.2-1.267-0.267-2.25-0.2-2.95V47.6l0.05,0.05l0.55,0.6
		c0.467,0.533,0.816,1,1.05,1.4l0.9-1.25l0.15-0.05c-0.133,2.1-0.367,3.5-0.7,4.2c-0.2,0.4-0.383,0.633-0.55,0.7l-2.2,2.85
		L21.4,56.2c-0.833,1.3-1.3,2.083-1.4,2.35c-0.3,0.767-0.667,1.417-1.1,1.95c-0.767,0.934-1.816,1.533-3.15,1.8l-0.2,0.05
		c-2.433,0.134-4.517,0.101-6.25-0.1C7.333,62.116,5.533,61.9,3.9,61.6z M42.3,46.05c-0.767,0.367-1.667,1.017-2.7,1.95l1.05-1.45
		c0.267-0.4,0.917-1.15,1.95-2.25c0.6-0.667,0.9-1.333,0.9-2c0-0.333-0.2-0.6-0.6-0.8c-0.433-0.233-0.65-0.517-0.65-0.85
		c0-0.867,0.25-1.5,0.75-1.9c0.8-0.7,1.433-1.533,1.9-2.5c0.267,0.467,0.6,1.983,1,4.55c-0.8,0.733-1.2,1.4-1.2,2
		c0,0.4,0.117,0.7,0.35,0.9c0.133,0.1,0.333,0.216,0.6,0.35c0.1,0.067,0.817,0.434,2.15,1.1c1.167,0.567,1.833,0.95,2,1.15
		l0.05,0.25c-0.434,0.034-0.867,0.034-1.3,0l-4.2-0.9C43.783,45.65,43.1,45.783,42.3,46.05z M107.8,27.55
		c-0.866,0.233-1.733,0.367-2.6,0.4L102.6,28.2l-0.899,0.5c-0.7,0.533-1.066,0.566-1.101,0.1c0.434-0.767,1.5-1.4,3.2-1.9
		c1.233-0.367,1.851-1.617,1.851-3.75c0-0.967-0.317-2.617-0.95-4.95l1,1.45l0.85,1.7l0.05,0.05l0.45,0.95l0.15,0.3
		c0.399,0.733,0.733,1.217,1,1.45c0.366,0.3,0.899,0.45,1.6,0.45c0.566,0,1.65-0.25,3.25-0.75l-0.35,0.7
		c-0.967,1-1.783,1.683-2.45,2.05C109.75,26.85,108.934,27.183,107.8,27.55z M100.5,36.75l0.55,0.55c-0.967,0.967-1.6,1.633-1.899,2
		l-0.25,0.2c-0.065,0.064-0.132,0.131-0.2,0.2c-0.566,0.2-1.101,0.417-1.601,0.65c-0.366,0.167-0.733,0.333-1.1,0.5
		c-0.167,0.066-0.333,0.117-0.5,0.15c-1.7,0.5-2.816,1-3.35,1.5l0.1-0.25c0.267-0.567,0.483-1.05,0.65-1.45
		c0.333-0.733,0.5-1.25,0.5-1.55c0-0.9-0.301-1.667-0.9-2.3c-1-1-2.9-1.867-5.7-2.6c0.634,0.066,2.934,0.617,6.9,1.65
		c2.8,0.7,4.983,0.783,6.55,0.25c-0.066,0.133-0.05,0.267,0.05,0.4C100.366,36.683,100.434,36.717,100.5,36.75z M99.75,85.9v-0.2
		l2.1,0.7l-0.899-0.15L99.75,85.9z M94.35,99.95l-0.399,0.3c0.2-1.767,0.1-4.667-0.3-8.7l-0.15-2.5V89l0.15,0.05l0.05,0.05
		c1.166,1.301,1.75,3.601,1.75,6.9c0,0.267-0.117,0.85-0.351,1.75C94.833,98.783,94.583,99.517,94.35,99.95z M100.2,94.4l-0.7,0.25
		c-0.434,0-0.833,0.066-1.2,0.199L97.65,95.2L97.2,94.6c0.2-0.3,0.866-0.583,2-0.85c1.066-0.233,1.733-0.316,2-0.25L100.2,94.4z
		 M65.5,46.35l1.35-0.9c0.8-0.367,1.45-0.617,1.95-0.75c0.8-0.167,1.667-0.417,2.601-0.75l-0.95,0.85
		c-0.4,0.333-1.267,0.85-2.601,1.55c-1.5,0.767-2.566,1.167-3.2,1.2L64.9,47L65.5,46.35z M33.9,37.6c0.467-0.167,0.867-0.167,1.2,0
		c-0.5,1.267-0.95,1.983-1.35,2.15l-0.2-0.15c-0.133,0.167-0.2-0.083-0.2-0.75c0-0.434,0.05-0.733,0.15-0.9
		C33.567,37.85,33.7,37.733,33.9,37.6z"/>
	<path style="fill-rule:evenodd;clip-rule:evenodd;fill:#7F7D74;" d="M128.25,78.55c0.667-0.233,1.366-0.649,2.1-1.25
		c0.733-0.6,1.167-1.083,1.301-1.45c0.3-1.1,0.583-2.05,0.85-2.85c0.4-1.3,0.7-1.85,0.9-1.65c0.033,0.034,0.066,0.101,0.1,0.2
		l1.1,2.851c-0.433,1.267-1.566,2.533-3.399,3.8c-1.7,1.2-3.584,2.083-5.65,2.649c-0.7,0.2-2.866,0.983-6.5,2.351
		c-2.1,0.767-3.934,1.133-5.5,1.1l-0.2-0.399l-0.05-0.051l-1-2l0.3-0.199c3.167,0.533,5.301,0.683,6.4,0.449
		c0.833-0.199,1.25-0.699,1.25-1.5c0-0.5-0.217-1.017-0.65-1.55c-0.433-0.533-1.017-0.85-1.75-0.95h0.051
		C123.833,78.434,127.283,78.583,128.25,78.55z M87.15,100.5c-0.2-0.1-0.367-0.283-0.5-0.55c-0.134-0.267-0.233-0.55-0.301-0.851
		L86.3,98.45c0.601-2.3,1.55-4.55,2.851-6.75c0.699-1.2,1.583-2.55,2.649-4.05c0.3,0.533,0.867,0.983,1.7,1.35v0.05l-1.2-0.2
		l-1.2-0.05c0.134,0.134,0.983,1.05,2.551,2.75c0.399,4.033,0.5,6.934,0.3,8.7l0.399-0.3c0,0.566-0.166,1.05-0.5,1.45
		c-0.366,0.366-0.783,0.55-1.25,0.55c-1.366-0.2-3.083-0.667-5.149-1.4l-0.4-0.2L87.15,100.5z M103.3,77.35l0.15-0.05
		c0.5,0.033,1.517-0.033,3.05-0.2c1,0,1.767,0.667,2.3,2c0,2.5-0.066,3.934-0.2,4.301c-0.566,1.699-2.183,2.55-4.85,2.55
		c-0.8,0-1.767-0.233-2.9-0.7c-1.399-0.566-2.733-0.95-4-1.15l-2.3-1l0.25-1c0.2,0,1.15,0.267,2.851,0.801
		c1.666,0.5,2.75,0.75,3.25,0.75c1.1,0,1.916-0.334,2.449-1c0.4-0.467,0.601-1.017,0.601-1.65c0-0.333-0.117-0.783-0.351-1.35
		c-0.267-0.601-0.399-1.067-0.399-1.4L103.3,77.35z M80.1,59.2c1.101,0.3,2.217,0.767,3.351,1.399c0.866,0.5,1.5,0.95,1.899,1.351
		L82.7,60.8C81.8,60.3,80.934,59.767,80.1,59.2z M78.65,68.5c1.267,0.267,2.333,0.434,3.199,0.5l1.4-0.2l0.05-1.25H83.15l-0.5-0.75
		c3.166,2.334,5.149,3.5,5.949,3.5c0.867,0,2.267-0.366,4.2-1.1c1.767-0.634,2.934-1.15,3.5-1.55l0.2,0.199
		c0.134,0.233,0.2,0.551,0.2,0.95c0,0.8-0.45,1.65-1.351,2.55c-1.333,1.334-3.216,2.017-5.649,2.051L84.1,72.65L78.65,68.5z
		 M72.75,63.25l1.95-2c-0.3,0.8-0.566,1.983-0.8,3.55L73,63.9h-0.5L72.75,63.25z M22.9,72.4c-0.2-0.534-0.3-1.134-0.3-1.801
		c0-0.833,0.217-1.517,0.65-2.05c0.533-0.633,0.883-1.434,1.05-2.399c0.633,0.366,1.067,1.383,1.3,3.05
		c0.167,1.2,1.417,1.8,3.75,1.8c3.467,0,6.45-0.9,8.95-2.7c1.867-1.333,2.8-2.283,2.8-2.85c0-1.334-1.184-2.167-3.55-2.5
		c-4.833-0.667-8.533-1.417-11.1-2.25c1.933,0.133,4.167,0.133,6.7,0c0.767,0.1,2.55,0.25,5.35,0.45c2.6,0.166,4.2,0.25,4.8,0.25
		c1.233,0,2.3-0.284,3.2-0.851c1.267-0.8,2.85-2.45,4.75-4.95c0.6,0,1.117-0.35,1.55-1.05c0.4-0.733,0.6-1.6,0.6-2.6l0.05,2.1
		c0,2.5-0.4,4.351-1.2,5.55C51.417,60.833,51,62.767,51,65.4c0,1.699-0.833,3.183-2.5,4.449c-1.467,1.134-2.967,1.7-4.5,1.7
		l-3.3-0.05c-0.534-0.066-1.034-0.134-1.5-0.2c0.533-0.133,1.1-0.267,1.7-0.399c0.533-0.267,1.517-1.15,2.95-2.65
		c-0.333,0.033-1.267,0.417-2.8,1.15c-1.566,0.733-2.65,1.149-3.25,1.25c-0.5,0.1-2.8,0.383-6.9,0.85
		c-2.233,0.233-3.35,0.583-3.35,1.05c0,0.4-0.6,0.533-1.8,0.4c-1.367-0.233-2.2-0.351-2.5-0.351L22.9,72.4z M5.25,60.9
		C4.583,61.1,4.133,61.333,3.9,61.6c-0.233-0.033-0.45-0.066-0.65-0.1l-0.7-0.2l-0.3-0.149H2.3C3.333,61.217,4.317,61.134,5.25,60.9
		z M16.9,68.05l2.45-0.1l0.15,0.25c0.067,0.233,0.1,0.467,0.1,0.7l-1.25,0.05l-0.6-0.375l-0.2-0.125l-0.1-0.05L16.9,68.05z
		 M109,15.45c0.033-2.4,0.017-4.55-0.05-6.45c0-0.067,0-0.133,0-0.2c-0.033-0.333-0.05-0.633-0.05-0.9
		c-0.101-1.2-0.167-2.05-0.2-2.55V4.8c2.066,3.034,3.033,5.417,2.899,7.15c0.801-1.7,1.367-2.95,1.7-3.75
		c0.566-1.4,0.684-3.017,0.351-4.85V3.3c0.199,0.2,0.583,0.667,1.149,1.4c0.634,0.833,0.967,1.35,1,1.55
		c0.066,0.533,0.117,1.167,0.15,1.9c0,0.467,0,0.967,0,1.5c-0.634,2.4-0.934,4.867-0.9,7.4c-0.333,1.7-2.05,3.3-5.149,4.8
		c-0.301-1-0.217-3.35,0.25-7.05c-0.067-0.633-0.217-1.2-0.45-1.7L109,15.45z M107.05,22.35l0.2-0.15l-0.05,0.45L107.05,22.35z
		 M109.5,28.1l-4.3-0.15c0.866-0.034,1.733-0.167,2.6-0.4c0.267,0.034,0.834,0.017,1.7-0.05c1.066-0.1,1.983-0.25,2.75-0.45
		c-0.533,0.267-1.15,0.517-1.85,0.75L109.5,28.1z M109.3,44.95c1.101-1.667,1.65-4.184,1.65-7.55c-0.3-1.5-0.7-2.767-1.2-3.8
		l1.3,0.75c0.367,0.3,0.7,0.633,1,1c0.233,0.5,0.5,1.95,0.8,4.35c0.267,2.1,0.4,3.5,0.4,4.2l-0.15,1.6
		c1.134-2.7,2.601-5.233,4.4-7.6c0.934-1.2,1.4-3.1,1.4-5.7c0-2.8-0.267-4.617-0.801-5.45c-0.767-1.167-1.267-2.417-1.5-3.75
		l0.101-0.3l0.2-1.2c0.3,0.433,0.933,2.283,1.899,5.55c1.033,3.667,1.55,6.267,1.55,7.8c0,5.333-0.583,9.15-1.75,11.45
		c-1.133,2.233-2.949,3.35-5.449,3.35c-0.434,0-0.967-0.1-1.601-0.3c-0.8-0.267-1.483-0.5-2.05-0.7l-0.8-0.1
		c1.3-0.267,2.184-0.583,2.649-0.95c1.301-1,1.617-2.733,0.95-5.2v-3.85c-0.333,1.633-0.733,2.934-1.2,3.9
		C110.7,43.217,110.1,44.05,109.3,44.95z M106.35,51.1c-0.8-0.6-1.949-1.1-3.449-1.5l0.899-0.4
		C104.733,49.8,105.583,50.433,106.35,51.1z M100.55,54.85L97.2,52.9c-0.967-1.066-2.316-1.733-4.05-2l-1.95-0.95
		c0.133-1.934,0.434-3.867,0.899-5.8l0.4,0.4c0,1.467-0.217,2.767-0.65,3.9l1.95-0.05c2.267,0,4.617,1.033,7.05,3.1
		c2.434,2.1,4.334,3.167,5.7,3.2l1.05-0.15c0-0.033,0.051-0.083,0.15-0.15c0.066-0.1,0.1-0.35,0.1-0.75
		c0-0.733-0.267-1.383-0.8-1.95c0.134,0.1,0.267,0.216,0.4,0.35c1,0.934,2.05,1.733,3.149,2.4c-0.233,1.466-0.916,2.6-2.05,3.399
		c-1.633,1.167-2.866,2.4-3.7,3.7c-1.199,1.8-2.166,2.983-2.899,3.55c-0.566,0.434-1.283,0.65-2.15,0.65
		c-0.066,0-0.833-0.25-2.3-0.75c-1.434-0.5-2.417-0.75-2.95-0.75L92,64.3l0.5,0.45c0.4,0.366,0.833,0.7,1.3,1l-3.95-1.6l-3.1-1.601
		c1.066,0.267,2.634,0.3,4.7,0.101c2.1,0.133,3.75,0.166,4.95,0.1l1.149,0.05c0.7,0,1.65-0.434,2.851-1.3l0.199-0.2
		c0.467-0.566,1-1.3,1.601-2.2c0.399-0.566,0.899-1.333,1.5-2.3V56.65L100.55,54.85z M94.85,22.65l-1.35-0.4l-1.15-0.2
		c0.767,0.467,1.2,0.733,1.301,0.8c0.466,0.4,0.699,0.85,0.699,1.35c0,0.033,0.384,1.55,1.15,4.55c0.833,3.1,1.45,4.95,1.85,5.55
		c-1,1.1-1.733,1.65-2.199,1.65c-1.267,0-3.217-0.9-5.851-2.7c-2.666-1.833-4.767-2.75-6.3-2.75c-1.6,0-3.65,1.017-6.15,3.05
		c0.301-0.833,1.483-2.3,3.551-4.4c2.533-2.6,4.149-4.383,4.85-5.35c0.167-0.167,0.583-0.883,1.25-2.15c0.5-0.9,1.066-1.35,1.7-1.35
		C88.967,20.3,91.184,21.083,94.85,22.65z M99.35,22.45c0.2-0.767,0.551-1.417,1.051-1.95c0.366-0.4,0.55-0.85,0.55-1.35
		c0-1.3-0.75-2.417-2.25-3.35c-0.467-0.3-2.767-1.433-6.9-3.4c1.834-0.267,3.4-0.167,4.7,0.3c0.9,0.333,2.733,1.117,5.5,2.35
		c0.2,0.767,0.55,1.684,1.05,2.75c0.334,0.767,0.5,1.467,0.5,2.1c0,1.067-0.416,1.75-1.25,2.05
		C101.1,22.15,100.116,22.317,99.35,22.45z M76.6,35.1L76.2,35.6H75.85L76.6,35.1z M80.5,33.65l-0.15-0.35
		c1.467-0.233,2.717-0.35,3.75-0.35c1,0,1.9,0.466,2.7,1.4c0.467,1.167,0.7,2.217,0.7,3.15c0,1.033-0.467,1.683-1.4,1.95
		c-1.166,0.1-1.983,0.167-2.449,0.2c-0.301,3.667-0.567,5.833-0.801,6.5c-0.033,0.1-0.066,0.167-0.1,0.2
		c-0.066,0.066-0.134,0.117-0.2,0.15c-0.8,0.367-3.116,0.55-6.95,0.55c-1.267,0-2.233-0.05-2.899-0.15
		c2.767-2.667,4.283-4.383,4.55-5.15c0.733-0.333,1.533-1.2,2.4-2.6c1.133-1.833,1.433-3.583,0.899-5.25L80.5,33.65z M102.9,29.35
		l-0.15,0.5c-0.3,0-0.55-0.1-0.75-0.3c-0.2-0.233-0.3-0.517-0.3-0.85l0.899-0.5v1.15H102.9z M106.3,19.05
		c0.066,0.333,0.15,1.1,0.25,2.3l-0.85-1.7l-1.2-3.35C104.566,16.4,105.167,17.317,106.3,19.05z M117.55,101.8l-0.1-2.85
		c1.5-0.434,3.366-0.733,5.6-0.9l0.101-1.35l-1.4-0.101c0.566-0.533,1.5-0.983,2.8-1.35c1.467-0.4,2.217-0.6,2.25-0.6
		c0.767,0.166,1.684,0.05,2.75-0.351c1.3-0.434,2.184-1.116,2.65-2.05l0.1,3.75l-0.05,0.25c-2.3-0.2-3.684-0.267-4.15-0.2
		c-0.6,0.066-0.916,0.767-0.949,2.101c-0.601,0.433-0.934,0.783-1,1.05l0.05,0.3c0.3-0.066,0.633-0.184,1-0.35l0.1,1
		c0,0.267-1.883,0.916-5.649,1.949l-1.65,0.5l3.15-2.899L117.55,101.8z M106.9,101.6c-0.601,0.034-1.784,0.2-3.551,0.5
		c-1.666,0.301-2.666,0.45-3,0.45c-1.066,0-1.8-0.333-2.199-1c-0.367-0.633-0.733-2.066-1.101-4.3l0.2,0.3
		c0.167,0.233,0.35,0.417,0.55,0.55c0.233,0.267,0.566,0.634,1,1.101c0.5,0.366,1.316,0.55,2.45,0.55c2.167,0,3.816-0.717,4.95-2.15
		c0.866-1.1,1.3-2.383,1.3-3.85c0-1.2-0.316-2.017-0.95-2.45c-0.399-0.267-1.1-0.399-2.1-0.399c-0.601,0-1.134,0.383-1.601,1.149
		c-0.6,1-1.183,1.667-1.75,2c0.101-0.066,0.434-0.45,1-1.149l0.4-0.65l0.25-0.75c-0.833,0.833-1.833,1.467-3,1.9
		c-0.833,0.3-1.5,0.449-2,0.449c-0.934,0-1.45-0.6-1.55-1.8c-0.101-1.399-0.934-2.383-2.5-2.95l-0.05-0.05
		c1.699,0,3.149-0.3,4.35-0.899c1.167-0.634,1.75-1.384,1.75-2.25l1.2,0.35c0.833,0.333,1.883,0.6,3.149,0.8l3.351,0.601
		c0.1,0.399,0.666,1.75,1.7,4.05c0.366,0.8,0.55,2.95,0.55,6.45c0,1.666-0.8,2.816-2.4,3.449H106.9z M124.85,64.1
		c-0.733,0.167-2.666,0.617-5.8,1.351c-1.833,0.434-3.45,0.733-4.85,0.899c-0.033-0.033-0.084-0.05-0.15-0.05
		c-0.399-0.1-0.767-0.184-1.1-0.25c-0.033-0.1-0.05-0.217-0.05-0.35c0-1.033,0.116-1.767,0.35-2.2c0.167-0.333,0.616-1.033,1.35-2.1
		c0.434,2.399,1.65,3.6,3.65,3.6c0.033,0,0.616-0.15,1.75-0.45S122.75,64.1,124.85,64.1z M80.45,58.15l0.6,0.199
		c-0.3,0-0.666,0.067-1.1,0.2L79.85,58.15H80.45z M131.7,61.45c-0.467,0.467-1.283,0.934-2.45,1.399c0.6-0.699,1.15-1.6,1.65-2.699
		c0.533-1.2,0.767-2.117,0.699-2.75v-0.2l1.101-0.351l0.05,0.25h-0.15c0,0.534-0.1,1.267-0.3,2.2
		C132.134,60.167,131.934,60.884,131.7,61.45z M99.65,88.65c0,0.399,0.133,0.733,0.399,1s0.601,0.399,1,0.399
		c0.4,0,0.733-0.133,1-0.399s0.4-0.601,0.4-1c0-0.4-0.134-0.733-0.4-1s-0.6-0.4-1-0.4c-0.399,0-0.733,0.134-1,0.4
		S99.65,88.25,99.65,88.65z M117.8,96.2c0.967-0.7,1.816-1.4,2.55-2.101c0.534-0.366,1.534-0.533,3-0.5
		c-0.6,0.034-1.517,0.367-2.75,1c-0.933,0.467-1.75,0.934-2.449,1.4L117.8,96.2z M126.05,94.6h-1.899h-1.95
		C123.267,94.366,124.55,94.366,126.05,94.6z M132.2,91.7l-1.45,0.3c1.066-1.733,1.917-2.833,2.55-3.3l0.7-0.05
		c-1.366,0.767-1.816,1.267-1.35,1.5L132.2,91.7z M116.65,86.65c1.666-0.434,2.866-0.65,3.6-0.65c0.434,0,2.134,0.316,5.1,0.95
		L116.65,86.65z M35.2,52.1c-1.934,1.967-4.6,3.267-8,3.9c-3.6,0.634-6,1.483-7.2,2.55c0.1-0.267,0.567-1.05,1.4-2.35l0.1-0.101
		c1.367-1.633,3.183-2.45,5.45-2.45c3.367,0.033,5.267-0.017,5.7-0.15c-2.9-0.633-4.733-1.25-5.5-1.85
		c0.533-0.333,1.5-0.566,2.9-0.7c1.6-0.167,2.733-0.383,3.4-0.65c2.667-1.033,3.883-4.233,3.65-9.6c0.1,0,0.367-0.034,0.8-0.1
		c0.6-0.1,1.167-0.217,1.7-0.35c0.467,0.233,0.733,0.367,0.8,0.4c0.2,0.2,0.3,0.517,0.3,0.95c0,2.167-1.167,4.483-3.5,6.95
		c-1.7,1.8-3.2,3.017-4.5,3.65l-0.35,0.15c0.267,0.133,0.7,0.167,1.3,0.1C34.283,52.417,34.8,52.3,35.2,52.1z M62.35,47.55l0.3,0.05
		l-1.2,0.85c0.733,0.233,1.933,0.3,3.6,0.2l0.1,0.1c0.1,0.1,0.184,0.283,0.25,0.55l-1.05,0.9c-0.533,0.3-1.3,0.367-2.3,0.2
		l-1.3-0.25l2.85,1.15c-0.333-0.066-1.533-0.5-3.6-1.3c-1.867-0.767-2.933-1.217-3.2-1.35l-0.05-0.05l-3.55-2.4l1.2-0.15l2.3,0.25
		c1.033,0.4,2.066,0.7,3.1,0.9C60.4,47.3,61.25,47.417,62.35,47.55z M80.65,50.35c0.699,0.267,1.267,0.683,1.699,1.25
		c-0.366,0.767-1.666,1.6-3.899,2.5c-2.101,0.867-3.367,1.983-3.8,3.35c-0.334,1.133-1.5,2.233-3.5,3.3
		c-1.801,0.967-3.301,1.45-4.5,1.45c-0.3,0-1.167-0.134-2.6-0.4c-1.633-0.3-2.7-0.583-3.2-0.85l2.2,0.149
		c2,0,3.517-0.899,4.55-2.699c1.367-2.334,2.584-3.8,3.65-4.4c0.2-0.1,1.65-0.3,4.35-0.6C78.366,52.833,80.05,51.817,80.65,50.35z
		 M12.45,61.3c-0.633,0.267-1.3,0.483-2,0.65C8.983,62.017,7.5,61.983,6,61.85L7.45,60c0.267-0.134,0.417-0.217,0.45-0.25
		c0.133-0.167,0.2-0.467,0.2-0.9c0-0.133-0.233-0.699-0.7-1.699c-0.467-1.034-0.717-1.684-0.75-1.95l0.8-0.1
		c3.066-0.1,5.3-0.233,6.7-0.4c0.2-0.034,0.934-0.367,2.2-1c1.3-0.633,2.033-1.017,2.2-1.15c0.167-0.066,0.6-0.417,1.3-1.05
		c0.633-0.433,0.9-0.317,0.8,0.35c-0.433,0.633-1.267,1.367-2.5,2.2c-1.066,0.7-1.7,1.333-1.9,1.9c-0.133,0.366-0.3,1.017-0.5,1.95
		c-0.233,0.899-0.617,1.566-1.15,2C13.767,60.3,13.05,60.767,12.45,61.3z M36.9,35.85c0.133-0.033,0.533-0.117,1.2-0.25l-0.55,0.2
		l-0.2,0.05H36.9z M32.1,37.95c0.333-0.067,0.767-0.317,1.3-0.75l1.8-0.6h0.65l-0.7,1H35.1c-0.333-0.167-0.733-0.167-1.2,0
		c-0.5,0-0.917,0.1-1.25,0.3c-0.358,0.195-0.541,0.437-0.55,0.725V37.95z M34.4,40.55c-0.333,2.133-0.683,3.8-1.05,5l-0.25,0.4
		c0.066-0.733-0.083-2-0.45-3.8c0.533,0,0.983-0.267,1.35-0.8C34.167,41.117,34.3,40.85,34.4,40.55z"/>
	<path style="fill-rule:evenodd;clip-rule:evenodd;fill:#8B897F;" d="M131.6,57.4c0.067,0.633-0.166,1.55-0.699,2.75
		c-0.5,1.1-1.051,2-1.65,2.699c-2.9,0.834-4.366,1.25-4.4,1.25c-2.1,0-3.716,0.15-4.85,0.45S118.283,65,118.25,65
		c-2,0-3.217-1.2-3.65-3.6l0.9-1.101c2.467-1.633,3.75-2.5,3.85-2.6l0.95,0.149c0.101,0.2,0.367,0.817,0.8,1.851
		c0.801,0.934,2.25,1.399,4.351,1.399c0.333,0,1.316-0.55,2.95-1.649C130.233,58.217,131.3,57.533,131.6,57.4z M123.65,55.85
		l-0.101,0.05l0.05-0.05H123.65z M133.75,88.15l0.35-0.101c0.067,0.134,0.15,0.283,0.25,0.45L134,88.65l-0.7,0.05L133.75,88.15z
		 M86.35,99.1c0.067,0.301,0.167,0.584,0.301,0.851c0.133,0.267,0.3,0.45,0.5,0.55l0.55,0.75C86.934,100.717,86.483,100,86.35,99.1z
		 M99.75,85.9c0,0.866-0.583,1.616-1.75,2.25c-1.2,0.6-2.65,0.899-4.35,0.899L93.5,89c-0.833-0.366-1.4-0.816-1.7-1.35l0.425-0.625
		L91.85,87.6C93.017,87.866,94,88,94.8,88c0.834,0,1.483-0.116,1.95-0.35c0.467,0.066,0.967,0.017,1.5-0.15
		c0.5-0.2,0.85-0.483,1.05-0.85c0.167-0.4,0.117-0.784-0.149-1.15c-0.034-0.066-0.067-0.116-0.101-0.15l0.7,0.351V85.9z M94.55,83.1
		l2.3,1l-1.199-0.05L96.85,84.4c-0.933-0.233-1.833-0.351-2.699-0.351L94.55,83.1z M95.7,78.1l0.175-0.449
		c0.473-0.2,1.697-0.301,3.675-0.301c2.334,0.034,3.584,0.034,3.75,0l-0.1,0.9c0,0.333,0.133,0.8,0.399,1.4
		c0.233,0.566,0.351,1.017,0.351,1.35c0,0.634-0.2,1.184-0.601,1.65c-0.533,0.666-1.35,1-2.449,1c-0.5,0-1.584-0.25-3.25-0.75
		C95.95,82.366,95,82.1,94.8,82.1l0.45-2.149c0.467,0.3,1.1,0.566,1.9,0.8c0.733,0.2,1.3,0.3,1.699,0.3
		c1.034,0,1.684-0.166,1.95-0.5c0.101-0.033,0.367-0.25,0.8-0.649c0.434-0.4,0.717-0.667,0.851-0.801
		c-0.434-0.199-1.15-0.399-2.15-0.6c-0.866-0.167-1.399-0.25-1.6-0.25c-1.733,0.2-2.617,0.3-2.65,0.3L96,79L95.7,78.1z M99.55,71.8
		c-0.566,0.533-1.149,1.15-1.75,1.851c-0.633,0.8-1.116,1.583-1.45,2.35l0.2-0.7H95.9l0.699-1.25c0.167-0.133,0.9-0.85,2.2-2.149
		L99.55,71.8z M78.65,68.5l-4.75-3.7c0.233-1.566,0.5-2.75,0.8-3.55l2.95-2.2c0.199,0.033,0.616,0.084,1.25,0.15
		c0.566,0.066,0.916,0.05,1.05-0.05L80.1,59.2c0.834,0.566,1.7,1.1,2.601,1.6c1.366,1.033,2.8,1.867,4.3,2.5
		c1.1,0.467,2.05,0.75,2.85,0.851l3.95,1.6c0.533,0.3,1.367,0.934,2.5,1.9c-0.566,0.399-1.733,0.916-3.5,1.55
		c-1.934,0.733-3.333,1.1-4.2,1.1c-0.8,0-2.783-1.166-5.949-3.5l0.5,0.75H83.3l-0.05,1.25l-1.4,0.2
		C80.983,68.934,79.917,68.767,78.65,68.5z M71.95,63.95l0.55-0.05l0.4-1.101l-0.15,0.45L72.5,63.9H73L71.95,63.95z M57.8,63.35
		l1.75,0.5c1,0.167,2.034,0.25,3.1,0.25c-0.733,0.034-1.3,0.034-1.7,0c-0.7-0.033-2.184-0.399-4.45-1.1L57.8,63.35z M17.75,68.575
		l0.6,0.375l0.65,0.5C18.57,69.135,18.153,68.843,17.75,68.575z M16.9,68.05c-0.433-0.133-0.717-0.25-0.85-0.35
		c-0.267-0.167-0.4-0.467-0.4-0.9c0-1.3,0.167-2.25,0.5-2.85c0.2-0.4,0.6-1.033,1.2-1.9l-1.6,0.25c1.333-0.267,2.383-0.866,3.15-1.8
		c0.434-0.533,0.8-1.184,1.1-1.95c1.2-1.066,3.6-1.916,7.2-2.55c3.4-0.633,6.066-1.933,8-3.9c0.633-0.3,1.25-0.633,1.85-1
		c-4.367,3.833-7.383,6.766-9.05,8.8l-2.15,0.25l-0.7,0.399l1.3,0.15c2.566,0.833,6.267,1.583,11.1,2.25
		c2.367,0.333,3.55,1.166,3.55,2.5c0,0.566-0.934,1.517-2.8,2.85c-2.5,1.8-5.483,2.7-8.95,2.7c-2.333,0-3.583-0.6-3.75-1.8
		c-0.233-1.667-0.667-2.684-1.3-3.05c-0.667-0.034-1.966,0.1-3.9,0.399c-1.967,0.3-2.983,0.45-3.05,0.45c1.033,0.4,1.7,0.717,2,0.95
		L16.9,68.05z M5.25,60.9c-0.933,0.233-1.917,0.316-2.95,0.25C1.6,60.783,1.133,60.5,0.9,60.3C0.3,59.8,0,59.25,0,58.65
		c0-0.334,0.5-1.233,1.5-2.7c0.767-1.1,1.617-2.133,2.55-3.1c0.3,0.367,0.534,0.7,0.7,1c0.2,0.233,0.9,0.433,2.1,0.6l0.6,0.65
		l-0.8,0.1c0.033,0.267,0.283,0.916,0.75,1.95c0.467,1,0.7,1.566,0.7,1.699c0,0.434-0.067,0.733-0.2,0.9
		C7.867,59.783,7.717,59.866,7.45,60c0.133-0.3-0.417-0.05-1.65,0.75C5.6,60.816,5.417,60.866,5.25,60.9z M14.25,45.65
		c-0.6,0.233-1.417,0.633-2.45,1.2c1.333-0.833,2.284-1.267,2.85-1.3L14.25,45.65z M34.4,40.55c0.033-0.367,0.083-0.75,0.15-1.15
		l0.75-1.55l0.25,0.75c0.8,0.6,1.817,0.9,3.05,0.9c0.066,0,0.117,0,0.15,0c-0.6,0.067-1.167,0.1-1.7,0.1l1.1,0.4l1.45,0.25
		c-0.533,0.133-1.1,0.25-1.7,0.35c-0.433,0.066-0.7,0.1-0.8,0.1c0.233,5.367-0.983,8.566-3.65,9.6c-0.667,0.267-1.8,0.483-3.4,0.65
		c-1.4,0.133-2.367,0.367-2.9,0.7c-0.3-0.3-1.033-1.4-2.2-3.3L24.8,48.4c0.367-0.533,0.784-2.383,1.25-5.55
		c0.467-3.533,0.784-5.817,0.95-6.85c1.667,1.433,3.05,2.15,4.15,2.15c0.434,0,0.7-0.017,0.8-0.05c0.033,0,0.083-0.05,0.15-0.15
		v0.675v0.025c-0.1,1.934,0.083,3.1,0.55,3.5c0.367,1.8,0.517,3.067,0.45,3.8l0.25-0.4C33.717,44.35,34.067,42.683,34.4,40.55z
		 M23.9,49.65c-0.233-0.4-0.583-0.867-1.05-1.4l-0.55-0.6C22.933,48.083,23.467,48.75,23.9,49.65z M28.25,34.1l-0.3,0.85L27.7,34.6
		L28.25,34.1z M41.4,33.1l0.65,1.55c-0.2-0.233-0.583-0.3-1.15-0.2l-0.8,0.2l0.3-0.2l0.2-0.25L41.4,33.1z M43.85,36.35l-1-1
		c0.733,0.1,1.283,0.233,1.65,0.4L43.85,36.35z M45.65,44.05l-0.3-1.1c0.066-0.633,0.283-1.133,0.65-1.5l0.55-0.3
		c0,1.367,0.767,2.533,2.3,3.5c1.533,0.934,3.383,1.4,5.55,1.4l-1.2,0.15l3.55,2.4l-2.3-0.55c-2.2-0.333-3.567-0.65-4.1-0.95
		l0.45,0.8c-0.146-0.24-0.562-0.54-1.25-0.9l-1-0.45c0.434,0.034,0.867,0.034,1.3,0L49.8,46.3c-0.167-0.2-0.833-0.583-2-1.15
		C46.467,44.483,45.75,44.117,45.65,44.05z M42.3,46.05c0.8-0.267,1.483-0.4,2.05-0.4l-4.7,3.45
		C40.683,48.1,41.567,47.083,42.3,46.05z M60.8,31.35l-0.3,0.35l-0.55,0.575L60.8,31.35z M62.1,29.5l-0.2,0.35l-0.15,0.2L62.1,29.5z
		 M91.8,12.4c4.134,1.967,6.434,3.1,6.9,3.4c1.5,0.934,2.25,2.05,2.25,3.35c0,0.5-0.184,0.95-0.55,1.35
		c-0.5,0.533-0.851,1.183-1.051,1.95c-1,0.1-2.5,0.167-4.5,0.2c-3.666-1.566-5.883-2.35-6.649-2.35c-0.634,0-1.2,0.45-1.7,1.35
		c-0.667,1.267-1.083,1.983-1.25,2.15l0.35-0.85v-1.5l0.801,0.3c-0.733-3.7-1.967-6.467-3.7-8.3c-1.967-1.5-3.316-2.633-4.05-3.4
		l1.6-0.4c0.3,0.067,2,0.434,5.1,1.1c3.101,0.667,5.017,1.117,5.75,1.35l0.2-0.4l0.3,0.2l-0.5,0.2c-0.066,0-0.483,0-1.25,0
		l0.851,0.2L91.8,12.4z M102.7,0.15l-0.25-0.1c2.899-0.133,5.116,0.2,6.649,1c2.867,1.467,4.384,2.233,4.551,2.3
		c0.333,1.833,0.216,3.45-0.351,4.85c-0.333,0.8-0.899,2.05-1.7,3.75c0.134-1.733-0.833-4.117-2.899-7.15v0.55
		c0.033,0.5,0.1,1.35,0.2,2.55c-0.101-0.9-0.267-1.633-0.5-2.2L108.55,6c0-1-0.483-2.017-1.45-3.05
		C106.033,1.817,104.566,0.883,102.7,0.15z M115.95,9.65c0-0.533,0-1.033,0-1.5c0.033,0.867,0.083,2.017,0.149,3.45L115.95,9.65z
		 M108.95,9c0.066,1.9,0.083,4.05,0.05,6.45c-0.3,1.767-0.884,4.017-1.75,6.75l-0.2,0.15l-0.45-0.95c0.101-0.233,0.417-1.3,0.95-3.2
		c0.533-1.9,0.816-2.967,0.851-3.2c0.3-1.533,0.483-3.15,0.55-4.85C108.95,9.731,108.95,9.348,108.95,9z M116.6,23
		c0.233,1.333,0.733,2.583,1.5,3.75c0.534,0.833,0.801,2.65,0.801,5.45c0,2.6-0.467,4.5-1.4,5.7c-1.8,2.367-3.267,4.9-4.4,7.6
		l0.15-1.6c0-0.7-0.134-2.1-0.4-4.2c-0.3-2.4-0.566-3.85-0.8-4.35c0.434-0.6,1.066-2.033,1.9-4.3c0.967-2.633,1.434-4.6,1.399-5.9
		C116.05,24.283,116.467,23.567,116.6,23z M103.8,49.2l-0.899,0.4c1.5,0.4,2.649,0.9,3.449,1.5c0.233,0.167,0.467,0.367,0.7,0.6
		c0.533,0.566,0.8,1.216,0.8,1.95c0,0.4-0.033,0.65-0.1,0.75c-0.1,0.067-0.15,0.117-0.15,0.15l-1.05,0.15
		c-1.366-0.034-3.267-1.1-5.7-3.2c-2.433-2.067-4.783-3.1-7.05-3.1l-1.95,0.05c0.434-1.133,0.65-2.434,0.65-3.9l0.55,0.4
		c0.767,0.566,1.684,1.117,2.75,1.65c0.066-0.1-0.083-0.25-0.45-0.45c1.867,0.967,3.034,1.517,3.5,1.65c0.233,0.034,0.4,0.034,0.5,0
		l-1.5,0.55l4.4,0.35C103.05,48.9,103.566,49.067,103.8,49.2z M105.75,65c-0.833,0.033-1.533,0.184-2.1,0.45L104.5,65H105.75z
		 M107.65,72.5c0.133-0.434,0.283-1.316,0.449-2.65c0.101,0.301,0.2,0.567,0.301,0.801l0.399-1.601l0.05,2.25
		c-0.166,1.267-0.533,2.316-1.1,3.15l-1.5,0.899c0.1-0.133,0.45-0.716,1.05-1.75c0.566-1.066,0.867-1.649,0.9-1.75L107.65,72.5z
		 M74.65,30.85L73.9,31.2L73.6,31.3L74.65,30.85z M74.75,31.6l1.6-1.45l0.5-0.25L74.75,31.6z M93.15,50.9l-2.2-0.1l0.25-0.85
		L93.15,50.9z M92.35,43.85h-0.1l0.1-0.2V43.85z M98.8,39.65L98.9,39.5l0.25-0.2L98.8,39.65z M105.2,27.95l4.3,0.15h-5l1.85-0.05
		L105.2,27.95z M103.7,35.9l0.149,0.2l-0.949-0.4L103.7,35.9z M112.6,81.65l-0.3,0.199l-0.1-0.35L112.6,81.65z M131.65,75.85
		c-0.134,0.367-0.567,0.851-1.301,1.45c-0.733,0.601-1.433,1.017-2.1,1.25C130.217,77.017,131.35,76.116,131.65,75.85z M88.95,51.75
		l-0.5,0.15L87.6,52.1l2.301-0.65L88.95,51.75z M100.4,94.45l0.3-0.15l-0.25,0.15H100.4z M103.45,97.85l-0.101,0.101h-0.05
		L103.45,97.85z M117.35,92.65L117.4,93.1l-0.2-1.1L117.35,92.65z M114.95,87.15l1.7-0.5l-0.95,0.3L115,87.2L114.95,87.15z
		 M117.4,98.4l0.05,0.449l1.7-0.75c0.733,0,1.35-0.149,1.85-0.449c0.5-0.301,0.75-0.65,0.75-1.051l1.4,0.101l-0.101,1.35
		c-2.233,0.167-4.1,0.467-5.6,0.9L117.4,98.4z M124.15,94.6h1.899l0.75,0.051L124.15,94.6z M41.85,38.8c-0.4,0.2-1.1,0.383-2.1,0.55
		c-0.133,0.033-0.267,0.066-0.4,0.1c0.3-0.1,0.6-0.233,0.9-0.4C40.75,39.017,41.283,38.933,41.85,38.8z M63.6,51.3
		c3.5,0.4,6.433,0.517,8.8,0.35c1.8-0.133,4.55-0.566,8.25-1.3c-0.601,1.467-2.284,2.483-5.051,3.05c-2.699,0.3-4.149,0.5-4.35,0.6
		c-1.066,0.6-2.283,2.066-3.65,4.4c-1.033,1.8-2.55,2.699-4.55,2.699l-2.2-0.149c-0.6-1-1.434-2.717-2.5-5.15
		c-1.9-4.333-2.9-6.6-3-6.8c0.4-0.133,0.883-0.25,1.45-0.35c0.267,0.133,1.333,0.583,3.2,1.35C62.067,50.8,63.267,51.233,63.6,51.3z
		 M62.35,47.55c0.566-0.133,2.767-1.333,6.6-3.6l-2.1,1.5l-1.35,0.9l-2.85,1.25L62.35,47.55z M77.25,41.75
		c-0.267-0.133-0.967-0.167-2.1-0.1l0.399-0.1c1.367,0,2.533-0.733,3.5-2.2c0.967-1.5,1.45-3.3,1.45-5.4l0.05-0.05
		c0.533,1.667,0.233,3.417-0.899,5.25C78.783,40.55,77.983,41.417,77.25,41.75z M14.15,54.7L16,53.45
		c0.767-0.167,1.617-0.467,2.55-0.9c-0.167,0.133-0.9,0.517-2.2,1.15C15.083,54.333,14.35,54.667,14.15,54.7z M9.65,49.1L9.1,49.5
		l1.7-1.4L9.65,49.1z M37.45,35.85h-0.1l0.2-0.05L37.45,35.85z M36.6,36.45l-1.15,1.15h-0.3l0.7-1L36.6,36.45z M73.15,52.1
		c-0.367,0-0.667,0.05-0.9,0.15c-0.267,0.1-0.4,0.233-0.4,0.4c0,0.167,0.134,0.3,0.4,0.4c0.233,0.1,0.533,0.15,0.9,0.15
		c0.366,0,0.683-0.05,0.949-0.15c0.233-0.1,0.351-0.233,0.351-0.4c0-0.167-0.117-0.3-0.351-0.4C73.833,52.15,73.517,52.1,73.15,52.1
		z M63.2,53c0.2,0.4,0.3,0.617,0.3,0.65l2.05,0.2c1.867,0,3.884-0.333,6.05-1c-2.166-0.733-4.216-1.1-6.149-1.1
		c-1.534,0.167-2.4,0.2-2.6,0.1C62.883,52.217,63,52.6,63.2,53z"/>
	<path style="fill-rule:evenodd;clip-rule:evenodd;fill:#68665F;" d="M132.7,56.85L133.6,56.4v0.55l-0.85,0.149L132.7,56.85z
		 M131.8,68.35l-2.7-0.05l1-0.1l-12.6,0.35c-2.033-0.1-3.634-0.1-4.8,0c-0.667,0.033-1.217,0.101-1.65,0.2
		c-0.6,0.3-0.983,0.45-1.149,0.45c-0.2-0.4-0.301-0.934-0.301-1.601c0-0.366,0.084-0.566,0.25-0.6c0.267,0,0.434-0.05,0.5-0.15
		c12.434-0.1,19.233-0.183,20.4-0.25L131.8,68.35z M135.15,76.85c-0.434,0.334-1.867,1.067-4.301,2.2
		c-2.333,1.101-3.716,1.684-4.149,1.75c0.533,0.233,1.816,0.467,3.85,0.7l0.3,0.15c-0.633,1.866-1.316,2.783-2.05,2.75
		c-1.899-0.5-4.133-0.75-6.7-0.75c-0.833,0-2.316,0.433-4.449,1.3c-2,0.866-3.051,1.3-3.15,1.3l-0.95-1.95
		c1.566,0.033,3.4-0.333,5.5-1.1c3.634-1.367,5.8-2.15,6.5-2.351c2.066-0.566,3.95-1.449,5.65-2.649
		c1.833-1.267,2.967-2.533,3.399-3.8L135.15,76.85z M134.1,88.05l-0.35,0.101c-0.967,0.166-1.733,0.216-2.3,0.149
		c-1.134-0.1-3.167-0.55-6.101-1.35c-2.966-0.634-4.666-0.95-5.1-0.95c-0.733,0-1.934,0.217-3.6,0.65l-1.7,0.5l-0.2-0.4
		c1.366-0.3,3.066-0.55,5.1-0.75c1.534-0.134,2.7-0.2,3.5-0.2c0.5,0,2.017,0.184,4.551,0.55c2.733,0.434,4.333,0.767,4.8,1
		l0.399-0.6V86.7l1,1.3V88.05z M95.8,75.3l0.05-1.25c0-0.967,0.5-1.783,1.5-2.45c1-0.666,2.217-1,3.65-1l-1.45,1.2L98.8,71.9
		c-1.3,1.3-2.033,2.017-2.2,2.149L95.9,75.3H95.8z M102.85,67c-0.1,0.167-0.3,0.35-0.6,0.55c-0.4,0.267-0.816,0.4-1.25,0.4
		l-5.35-2.101c0.1,0.2,0.383,0.534,0.85,1c0.434,0.567,0.65,1.301,0.65,2.2c0,1.267-0.634,2.517-1.9,3.75
		c-1.5,1.434-3.316,2.167-5.45,2.2h-0.05l-0.35-0.05l-4.65-1.8c-0.134-0.2-0.35-0.367-0.65-0.5L89.7,73.4
		c2.434-0.034,4.316-0.717,5.649-2.051c0.9-0.899,1.351-1.75,1.351-2.55c0-0.399-0.066-0.717-0.2-0.95l-0.2-0.199
		c-1.133-0.967-1.967-1.601-2.5-1.9c-0.467-0.3-0.899-0.634-1.3-1L92,64.3l2.55-0.05c0.533,0,1.517,0.25,2.95,0.75
		c1.467,0.5,2.233,0.75,2.3,0.75c0.867,0,1.584-0.217,2.15-0.65c0.733-0.566,1.7-1.75,2.899-3.55c0.834-1.3,2.067-2.533,3.7-3.7
		c1.134-0.8,1.816-1.933,2.05-3.399c-1.1-0.667-2.149-1.467-3.149-2.4c-0.134-0.133-0.267-0.25-0.4-0.35
		c-0.233-0.233-0.467-0.434-0.7-0.6c-0.767-0.667-1.616-1.3-2.55-1.9c-0.233-0.133-0.75-0.3-1.55-0.5
		c0.733-0.034,1.783-0.383,3.15-1.05c1.199-0.6,1.916-1.017,2.149-1.25c0.601-0.4,1.184-0.883,1.75-1.45c0.8-0.9,1.4-1.733,1.8-2.5
		c0.467-0.967,0.867-2.267,1.2-3.9v3.85c0.667,2.467,0.351,4.2-0.95,5.2c-0.466,0.367-1.35,0.683-2.649,0.95l0.8,0.1
		c0.566,0.2,1.25,0.434,2.05,0.7c0.634,0.2,1.167,0.3,1.601,0.3c2.5,0,4.316-1.117,5.449-3.35c1.167-2.3,1.75-6.117,1.75-11.45
		c0-1.533-0.517-4.133-1.55-7.8c-0.967-3.267-1.6-5.117-1.899-5.55l-0.2,1.2L116.6,23c-0.133,0.567-0.55,1.283-1.25,2.15l-3.1,1.9
		c-0.767,0.2-1.684,0.35-2.75,0.45c-0.866,0.067-1.434,0.083-1.7,0.05c1.134-0.367,1.95-0.7,2.45-1
		c0.667-0.367,1.483-1.05,2.45-2.05l0.35-0.7c-1.6,0.5-2.684,0.75-3.25,0.75c-0.7,0-1.233-0.15-1.6-0.45
		c-0.267-0.233-0.601-0.717-1-1.45l0.05-0.45c0.866-2.733,1.45-4.983,1.75-6.75l0.7-2.35c0.233,0.5,0.383,1.066,0.45,1.7
		c-0.467,3.7-0.551,6.05-0.25,7.05c3.1-1.5,4.816-3.1,5.149-4.8c-0.033-2.533,0.267-5,0.9-7.4l0.149,1.95l0.25,1.2l-0.399,1.4
		c-0.3,1.433-0.5,3.383-0.601,5.85c1.7,0.367,3.084,1.733,4.15,4.1c1.167,2.6,1.75,6.117,1.75,10.55c0,1.066-0.667,7.45-2,19.15
		c0.233,0.033,0.017,0.05-0.65,0.05c-0.699,0-1.633-0.3-2.8-0.9c-1.399-0.7-2.35-1.117-2.85-1.25l-0.9-0.25
		c1.834,1.333,2.967,2.767,3.4,4.3c0,0.434-0.634,1.601-1.9,3.5c-1.6,2.467-3.35,4.167-5.25,5.101l-0.55,0.149
		c-2.066,0.267-3.15,0.417-3.25,0.45l-0.85,0.45L103.6,65.5c-0.1,0.167-0.199,0.35-0.3,0.55C103.066,66.45,102.917,66.767,102.85,67
		z M53.4,51.95l0.05-0.05c0.066,0.434,0.417,2.8,1.05,7.1c0,0.634-0.217,1.333-0.65,2.1c-0.434,0.767-0.667,2.067-0.7,3.9
		c0,0.366-0.183,1.05-0.55,2.05c-0.4,1.101-0.8,1.816-1.2,2.15c-1.4,1.2-2.767,1.934-4.1,2.2c-1,0.199-4.033,0.449-9.1,0.75
		c-0.534-0.5-0.733-0.75-0.6-0.75c0.3,0,0.467-0.017,0.5-0.051l0.05-0.25c-1.933,0.967-3.35,1.567-4.25,1.801
		c-1.267,0.333-4.333,0.416-9.2,0.25h-0.1L23.25,72.6c0.3,0,1.133,0.117,2.5,0.351c1.2,0.133,1.8,0,1.8-0.4
		c0-0.467,1.117-0.816,3.35-1.05c4.1-0.467,6.4-0.75,6.9-0.85c0.6-0.101,1.684-0.517,3.25-1.25c1.534-0.733,2.467-1.117,2.8-1.15
		c-1.434,1.5-2.417,2.384-2.95,2.65c-0.6,0.133-1.167,0.267-1.7,0.399c0.466,0.066,0.966,0.134,1.5,0.2l3.3,0.05
		c1.533,0,3.033-0.566,4.5-1.7C50.167,68.583,51,67.1,51,65.4c0-2.634,0.417-4.567,1.25-5.801c0.8-1.199,1.2-3.05,1.2-5.55
		L53.4,51.95z M24.3,66.15c-0.167,0.966-0.517,1.767-1.05,2.399c-0.433,0.533-0.65,1.217-0.65,2.05c0,0.667,0.1,1.267,0.3,1.801
		c-0.333-0.2-0.933-0.617-1.8-1.25c-1.067-0.801-1.767-1.367-2.1-1.7l-0.65-0.5l1.25-0.05c0-0.233-0.033-0.467-0.1-0.7l-0.15-0.25
		c-0.3-0.233-0.967-0.55-2-0.95c0.066,0,1.083-0.15,3.05-0.45C22.333,66.25,23.633,66.116,24.3,66.15z M22.25,47.6v0.05
		c-0.067,0.7,0,1.684,0.2,2.95c0.167,1.233,0.433,2.05,0.8,2.45c0.1,0.1,0.2,0.167,0.3,0.2c-1.1,0.767-2.583,2.183-4.45,4.25
		c-1.3,1.533-2.8,2.333-4.5,2.4c0.533-0.434,0.917-1.101,1.15-2c0.2-0.934,0.367-1.584,0.5-1.95c0.2-0.567,0.833-1.2,1.9-1.9
		c1.233-0.833,2.067-1.566,2.5-2.2c0.1-0.667-0.167-0.783-0.8-0.35c-0.7,0.633-1.133,0.983-1.3,1.05
		c-0.933,0.434-1.783,0.733-2.55,0.9c-1.833,0.667-3.567,1-5.2,1L8.1,54.3h0.15c2,0,3.817-0.316,5.45-0.95
		c0.667-0.133,1.316-0.267,1.95-0.4l1.05-0.55c-0.667,0.2-1.333,0.383-2,0.55c0.566-0.3,1.133-0.633,1.7-1
		c2.233-1.567,3.35-3.434,3.35-5.6V46.3l2.45,1.3H22.25z M44.9,36.25c-0.467,0.967-1.1,1.8-1.9,2.5c-0.5,0.4-0.75,1.033-0.75,1.9
		c0,0.333,0.217,0.617,0.65,0.85c0.4,0.2,0.6,0.467,0.6,0.8c0,0.667-0.3,1.333-0.9,2c-1.033,1.1-1.684,1.85-1.95,2.25L39.6,48
		c1.033-0.933,1.933-1.583,2.7-1.95c-0.733,1.034-1.617,2.05-2.65,3.05l-2.6,2c-0.6,0.367-1.216,0.7-1.85,1
		c-0.4,0.2-0.917,0.316-1.55,0.35c-0.6,0.066-1.033,0.033-1.3-0.1l0.35-0.15c1.3-0.633,2.8-1.85,4.5-3.65
		c2.333-2.466,3.5-4.783,3.5-6.95c0-0.434-0.1-0.75-0.3-0.95c-0.066-0.033-0.333-0.167-0.8-0.4L38.15,40l-1.1-0.4
		c0.534,0,1.1-0.033,1.7-0.1c0.2-0.033,0.4-0.05,0.6-0.05c0.133-0.034,0.267-0.067,0.4-0.1c1-0.167,1.7-0.35,2.1-0.55
		c1.133-1.3,1.8-2.117,2-2.45l0.65-0.6L44.9,36.25z M46,41.45c-0.367,0.367-0.583,0.867-0.65,1.5l0.3,1.1
		c-0.267-0.133-0.467-0.25-0.6-0.35c-0.233-0.2-0.35-0.5-0.35-0.9c0-0.6,0.4-1.267,1.2-2L46,41.45z M102,15.05
		c0.833,0.233,1.667,0.65,2.5,1.25l1.2,3.35l-1-1.45c0.633,2.333,0.95,3.983,0.95,4.95c0,2.133-0.617,3.383-1.851,3.75
		c-1.7,0.5-2.767,1.133-3.2,1.9c0.034,0.467,0.4,0.434,1.101-0.1c0,0.333,0.1,0.617,0.3,0.85c0.2,0.2,0.45,0.3,0.75,0.3l0.5,0.25
		l-0.1,0.15l-0.25-0.15c-0.467,1-0.7,2.017-0.7,3.05c0,0.434,0.066,0.783,0.2,1.05c0.066,0.2,0.233,0.533,0.5,1
		c-1.101,0.833-1.733,1.316-1.9,1.45l-0.5,0.1c-0.066-0.033-0.134-0.067-0.2-0.1c-0.1-0.133-0.116-0.267-0.05-0.4
		C98.684,36.783,96.5,36.7,93.7,36c-3.967-1.033-6.267-1.583-6.9-1.65c-0.8-0.934-1.7-1.4-2.7-1.4c-1.033,0-2.283,0.117-3.75,0.35
		c-0.199,0.067-1.449,0.667-3.75,1.8l-0.75,0.5l-0.25,0.05l1.25-2.1c2.5-2.033,4.551-3.05,6.15-3.05c1.533,0,3.634,0.917,6.3,2.75
		c2.634,1.8,4.584,2.7,5.851,2.7c0.466,0,1.199-0.55,2.199-1.65c-0.399-0.6-1.017-2.45-1.85-5.55c-0.767-3-1.15-4.517-1.15-4.55
		c0-0.5-0.233-0.95-0.699-1.35c-0.101-0.067-0.534-0.333-1.301-0.8l1.15,0.2l1.35,0.4c2-0.033,3.5-0.1,4.5-0.2
		c0.767-0.133,1.75-0.3,2.95-0.5c0.834-0.3,1.25-0.983,1.25-2.05c0-0.633-0.166-1.333-0.5-2.1C102.55,16.733,102.2,15.817,102,15.05
		z M108.85,71.3l-0.05-2.25c0.167-0.666,0.267-1.35,0.3-2.05c0-0.066,0-0.134,0-0.2l0.4,0.601
		C109.167,68.467,108.95,69.767,108.85,71.3z M107.3,101.6c1.601-0.633,2.4-1.783,2.4-3.449c0-3.5-0.184-5.65-0.55-6.45
		c-1.034-2.3-1.601-3.65-1.7-4.05L104.1,87.05c-1.267-0.2-2.316-0.467-3.149-0.8l0.899,0.15l-2.1-0.7l-0.7-0.351
		c-0.3-0.3-0.75-0.517-1.35-0.649l-0.65-0.25l-0.2-0.05L95.65,84.05l1.199,0.05c1.267,0.2,2.601,0.584,4,1.15
		c1.134,0.467,2.101,0.7,2.9,0.7c2.667,0,4.283-0.851,4.85-2.55c0.134-0.367,0.2-1.801,0.2-4.301c-0.533-1.333-1.3-2-2.3-2
		c-1.533,0.167-2.55,0.233-3.05,0.2c0.166-0.066,0.666-0.383,1.5-0.95c0.733-0.533,1.166-0.866,1.3-1l1.5-0.899
		c-0.233,0.3-0.783,0.85-1.65,1.649l-0.899,0.65c0.166-0.033,0.616-0.3,1.35-0.8c0.7-0.467,1.233-0.7,1.601-0.7
		c0.8,0,1.833,2.116,3.1,6.35c0,1.534-0.533,2.667-1.6,3.4c-1.467,1.066-4.067,1.533-7.801,1.4c1.034,0.333,2.317,0.5,3.851,0.5
		c0.967,0,2.066-0.15,3.3-0.45c1.566-0.367,2.767-0.884,3.6-1.55c2.134,4.066,3.2,6.5,3.2,7.3c0,2.566-0.416,4.566-1.25,6
		c-0.866,1.467-1.3,2.366-1.3,2.7c0,2.699-1.2,4.616-3.6,5.75c-1.467,0.699-3.167,1.05-5.101,1.05c-0.233,0-0.416-0.066-0.55-0.2
		c-0.267-0.3-0.684-0.583-1.25-0.85c0.2-0.167,0.583-0.417,1.15-0.75c0.533-0.367,0.883-0.817,1.05-1.351
		c-0.101-0.2-0.584-0.35-1.45-0.45c0.233-0.566,0.884-1.1,1.95-1.6C106.65,101.967,107.267,101.667,107.3,101.6z M106.9,101.6
		c-1,0.4-1.851,0.667-2.551,0.801c-1.033,0.166-2.733,0.267-5.1,0.3c0,0.233-0.483,0.467-1.45,0.7c1.334,0.933,2.134,2.116,2.4,3.55
		c0,0.7-0.4,1.2-1.2,1.5c-0.5,0.2-1.033,0.3-1.6,0.3c-1.601-0.233-3.15-0.667-4.65-1.3c-2.967-1.267-4.483-2.9-4.55-4.9l3.5,0.25
		c0.566-0.033,0.95-0.1,1.149-0.2c0.067-0.033,0.233-0.166,0.5-0.399l-0.75-0.25c0.467,0,0.884-0.184,1.25-0.55
		c0.334-0.4,0.5-0.884,0.5-1.45c0.233-0.434,0.483-1.167,0.75-2.2c0.233-0.9,0.351-1.483,0.351-1.75c0-3.3-0.584-5.6-1.75-6.9
		c1.566,0.567,2.399,1.551,2.5,2.95c0.1,1.2,0.616,1.8,1.55,1.8c0.5,0,1.167-0.149,2-0.449c1.167-0.434,2.167-1.067,3-1.9
		l-0.25,0.75l-0.4,0.65c-0.566,0.699-0.899,1.083-1,1.149v0.05l-0.399,0.2l-0.3,0.15l-0.2-0.05l1-0.9
		c-0.267-0.066-0.934,0.017-2,0.25c-1.134,0.267-1.8,0.55-2,0.85l0.45,0.601c-0.467,0.467-0.7,1-0.7,1.6
		c0,0.667,0.033,0.816,0.1,0.45c0.367,2.233,0.733,3.667,1.101,4.3c0.399,0.667,1.133,1,2.199,1c0.334,0,1.334-0.149,3-0.45
		C105.116,101.8,106.3,101.634,106.9,101.6z M117.55,101.8l5.601-2.1L120,102.6l1.65-0.5c3.767-1.033,5.649-1.683,5.649-1.949
		l-0.1-1c0.8-0.267,1.983-0.4,3.55-0.4c1.233,0,1.866,0.217,1.9,0.65c-0.534,1.033-1.717,1.8-3.551,2.3c-1.8,0.366-2.8,0.616-3,0.75
		c-0.8,0.533-1.416,1.149-1.85,1.85c-0.3,0.5-0.6,0.75-0.9,0.75c-2.267,0-4.25-0.1-5.949-0.3c0.1-0.366,0.183-0.634,0.25-0.8
		c0.065-0.328-0.076-0.495-0.426-0.5c0.351-0.006,0.525-0.172,0.525-0.5C117.616,102.483,117.55,102.1,117.55,101.8z M86.8,34.35
		c2.8,0.733,4.7,1.6,5.7,2.6c0.6,0.633,0.9,1.4,0.9,2.3c0,0.3-0.167,0.817-0.5,1.55c-0.167,0.4-0.384,0.883-0.65,1.45l-0.1,0.25
		c0.533-0.5,1.649-1,3.35-1.5c0.167-0.033,0.333-0.083,0.5-0.15c-0.667,0.333-1.366,0.733-2.1,1.2c-0.667,0.5-1.184,1.034-1.551,1.6
		l-0.1,0.2l-0.15,0.3c-0.466,1.934-0.767,3.867-0.899,5.8l-0.25,0.85H90.7c0.133-0.4,0.217-1.183,0.25-2.35
		c0-1.567,0.017-2.85,0.05-3.85l0.15-1.95c-0.233,0.633-1,1.617-2.301,2.95c-1.333,1.4-2.25,2.117-2.75,2.15
		c-0.533-0.467-0.833-0.8-0.899-1c-0.3-0.867-0.25-2.417,0.149-4.65c-0.333,0.833-0.833,1.75-1.5,2.75c-0.333,0.467-0.666,0.9-1,1.3
		c0.233-0.667,0.5-2.833,0.801-6.5c0.466-0.033,1.283-0.1,2.449-0.2c0.934-0.267,1.4-0.917,1.4-1.95
		C87.5,36.567,87.267,35.517,86.8,34.35z M98.7,39.7c0.068-0.069,0.135-0.136,0.2-0.2L98.8,39.65
		C98.769,39.65,98.735,39.667,98.7,39.7z M114.6,61.4c-0.733,1.066-1.183,1.767-1.35,2.1c-0.233,0.434-0.35,1.167-0.35,2.2
		c0,0.133,0.017,0.25,0.05,0.35c-0.733-0.166-1.3-0.333-1.7-0.5c0.467-0.7,1.1-1.566,1.9-2.6c1.066-1.4,1.85-2.283,2.35-2.65
		L114.6,61.4z M129.25,62.85c1.167-0.466,1.983-0.933,2.45-1.399c-1.033,1.934-3.351,3.366-6.95,4.3c-2.366,0.634-4.5,0.95-6.4,0.95
		c-1.267,0-2.649-0.117-4.149-0.351c1.399-0.166,3.017-0.466,4.85-0.899c3.134-0.733,5.066-1.184,5.8-1.351
		C124.884,64.1,126.35,63.684,129.25,62.85z M85.8,53.25c0.367-0.233,0.967-0.617,1.8-1.15l0.851-0.2
		c-0.367,0.3-0.667,0.517-0.9,0.65C87.184,52.75,86.6,52.983,85.8,53.25z M84.05,54.3c-0.533,0.833-1.316,1.5-2.35,2
		c-1.066,0.4-1.767,0.684-2.101,0.851c0-0.801,0.434-1.467,1.301-2C81.767,54.583,82.816,54.3,84.05,54.3z M72.9,62.8
		c0.199-0.434,0.816-1.1,1.85-2c1.167-1,2.134-1.583,2.9-1.75l-2.95,2.2l-1.95,2L72.9,62.8z M59.55,63.85l-1.75-0.5
		c-0.233-1.8-0.983-4.233-2.25-7.3c-1.2-2.733-1.8-4.167-1.8-4.3c0-0.067,0.217-0.483,0.65-1.25c0.434-0.733,0.75-1.233,0.95-1.5
		c0.1,0.2,1.1,2.467,3,6.8c1.066,2.434,1.9,4.15,2.5,5.15c0.5,0.267,1.566,0.55,3.2,0.85c1.434,0.267,2.3,0.4,2.6,0.4
		c1.2,0,2.7-0.483,4.5-1.45c2-1.066,3.166-2.167,3.5-3.3c0.433-1.367,1.699-2.483,3.8-3.35c2.233-0.9,3.533-1.733,3.899-2.5
		c-0.433-0.567-1-0.983-1.699-1.25c-3.7,0.733-6.45,1.167-8.25,1.3c-2.367,0.167-5.301,0.05-8.8-0.35l-2.85-1.15l1.3,0.25
		c1,0.167,1.767,0.1,2.3-0.2l1.05-0.9c-0.066-0.267-0.15-0.45-0.25-0.55l-0.1-0.1c-1.667,0.1-2.867,0.033-3.6-0.2l1.2-0.85
		l2.85-1.25L64.9,47l-0.25,0.55c0.633-0.033,1.7-0.433,3.2-1.2c1.334-0.7,2.2-1.217,2.601-1.55l0.95-0.85
		c-0.934,0.333-1.801,0.583-2.601,0.75c-0.5,0.133-1.149,0.383-1.95,0.75l2.1-1.5l1.45-0.75c1.699-0.7,3.283-1.217,4.75-1.55
		c1.133-0.066,1.833-0.033,2.1,0.1c-0.267,0.767-1.783,2.483-4.55,5.15c0.666,0.1,1.633,0.15,2.899,0.15
		c3.834,0,6.15-0.183,6.95-0.55c-1.033,1.1-2.166,1.9-3.399,2.4c1.699,0.2,2.783,0.817,3.25,1.85c0.133,0.3,0.199,0.867,0.199,1.7
		c-3,3.3-5.983,5.833-8.949,7.6c-2.367,1.4-4.384,2.283-6.051,2.65C67.467,62.733,64.783,63.116,59.55,63.85z M93.5,89.05l0.15,2.5
		c-1.567-1.7-2.417-2.616-2.551-2.75l1.2,0.05L93.5,89.05z M122.2,94.6h1.95l2.649,0.051c-0.033,0-0.783,0.199-2.25,0.6
		c-1.3,0.366-2.233,0.816-2.8,1.35c0,0.4-0.25,0.75-0.75,1.051c-0.5,0.3-1.116,0.449-1.85,0.449l-1.801,0.051
		c0.101-0.567,0.301-1,0.601-1.301C118.65,96.184,120.066,95.434,122.2,94.6z M118.15,96l-0.351,0.25V96.2L118.15,96z M132.2,92.25
		V91.7l0.45-1.55c0.767,1.199,1.267,2.866,1.5,5c0,0.666-0.101,1.366-0.301,2.1l-0.3,0.25c-0.2,0.134-0.5,0.2-0.899,0.2
		c-0.167,0-0.384-0.184-0.65-0.55c-0.233-0.367-0.4-0.551-0.5-0.551c-0.467,0-1.05,0.15-1.75,0.45l-2.6,1.101
		c0.033-1.334,0.35-2.034,0.949-2.101c0.467-0.066,1.851,0,4.15,0.2L132.3,96L132.2,92.25z M41.95,60.2
		c1.7-0.434,3.333-1.334,4.9-2.7c0.066,0,0.533-0.267,1.4-0.8c1-0.601,1.783-1.167,2.35-1.7c-0.259,0.519-0.659,1.085-1.2,1.7
		c0.467-0.4,1.083-0.767,1.85-1.1c-1.9,2.5-3.483,4.15-4.75,4.95c-0.9,0.566-1.967,0.851-3.2,0.851c-0.6,0-2.2-0.084-4.8-0.25
		c-2.8-0.2-4.583-0.351-5.35-0.45C38.45,60.634,41.383,60.467,41.95,60.2z M27.15,51.65c0.767,0.6,2.6,1.217,5.5,1.85
		c-0.433,0.133-2.333,0.183-5.7,0.15c-2.267,0-4.083,0.817-5.45,2.45l2.2-2.85c0.167-0.067,0.35-0.3,0.55-0.7
		c0.333-0.7,0.567-2.1,0.7-4.2C26.117,50.25,26.85,51.35,27.15,51.65z M35.15,37.6h0.3l-0.15,0.25l-0.75,1.55
		c-0.066,0.4-0.117,0.783-0.15,1.15c-0.1,0.3-0.233,0.567-0.4,0.8c-0.367,0.533-0.817,0.8-1.35,0.8c-0.467-0.4-0.65-1.566-0.55-3.5
		v-0.025c0.009-0.288,0.192-0.53,0.55-0.725c0.333-0.2,0.75-0.3,1.25-0.3c-0.2,0.133-0.333,0.25-0.4,0.35
		c-0.1,0.167-0.15,0.466-0.15,0.9c0,0.667,0.066,0.917,0.2,0.75l0.2,0.15c0.4-0.167,0.85-0.883,1.35-2.15H35.15z M10.45,61.95
		c0.7-0.167,1.367-0.384,2-0.65C12.35,61.634,11.683,61.85,10.45,61.95z"/>
	<path style="fill-rule:evenodd;clip-rule:evenodd;fill:#B2AEA3;" d="M123.65,55.85c2.366,0.167,4.133,0.534,5.3,1.1
		c0.767,0.366,1.649,0.45,2.649,0.25v0.2c-0.3,0.133-1.366,0.816-3.199,2.05c-1.634,1.1-2.617,1.649-2.95,1.649
		c-2.101,0-3.55-0.466-4.351-1.399c-0.433-1.033-0.699-1.65-0.8-1.851c0.9,0,1.667-0.183,2.3-0.55c0.634-0.399,0.95-0.866,0.95-1.4
		L123.65,55.85z M109.95,71l1.05,0.1c0.1,0,6.134-0.933,18.1-2.8l2.7,0.05l1.601,3c-0.2-0.199-0.5,0.351-0.9,1.65
		c-0.267,0.8-0.55,1.75-0.85,2.85c-0.301,0.267-1.434,1.167-3.4,2.7c-0.967,0.033-4.417-0.116-10.35-0.45h-0.051
		c0.733,0.101,1.317,0.417,1.75,0.95c0.434,0.533,0.65,1.05,0.65,1.55c0,0.801-0.417,1.301-1.25,1.5
		c-1.1,0.233-3.233,0.084-6.4-0.449L112.2,81.5l-0.3-0.95l0.85,0.101l-0.85-0.25c-0.167-2.101-0.65-4.4-1.45-6.9l-0.2-0.75
		c0.634-0.033,1.1-0.15,1.4-0.35c0.3-0.2,0.416-0.417,0.35-0.65c-0.1-0.233-0.366-0.417-0.8-0.55
		c-0.467-0.134-0.884-0.167-1.25-0.101V71z M94.95,87.45c-0.233-0.101-0.483-0.184-0.75-0.25c-0.5-0.134-0.733-0.15-0.7-0.05
		l-1.15-0.301l1.801-2.8c0.866,0,1.767,0.117,2.699,0.351l0.2,0.05l0.65,0.25c0.6,0.133,1.05,0.35,1.35,0.649
		c0.033,0.034,0.066,0.084,0.101,0.15c0.267,0.366,0.316,0.75,0.149,1.15c-0.2,0.366-0.55,0.649-1.05,0.85
		c-0.533,0.167-1.033,0.217-1.5,0.15l0.85-0.45l0.101-0.25c-0.2,0.2-0.584,0.35-1.15,0.45C95.983,87.5,95.45,87.517,94.95,87.45z
		 M9.05,49.55c0.5,0.434,0.9,0.7,1.2,0.8c0.767,0.267,1.967,0.267,3.6,0l-1-0.3L12.6,49.6h1.5V49l-0.05-0.15h-1.6L12.4,49.5
		c-0.533-0.267-0.933-0.383-1.2-0.35l-0.1,0.4L9.65,49.1l1.15-1c0.067-0.067,0.534-0.35,1.4-0.85c0.8-0.433,1.483-0.967,2.05-1.6
		l0.4-0.1c1.2-0.066,2.367,0.017,3.5,0.25l1.6,0.5v0.05c0,2.167-1.117,4.033-3.35,5.6c-0.566,0.367-1.133,0.7-1.7,1
		c-1.767,0.367-3.684,0.55-5.75,0.55c-1.9,0-2.85-0.45-2.85-1.35c0-0.433,0.117-0.85,0.35-1.25c0.133-0.233,0.267-0.417,0.4-0.55
		L7.5,49.9C7.533,49.9,8.05,49.783,9.05,49.55z M6.85,54.45L8.1,54.3l2.7,0.15c1.633,0,3.367-0.333,5.2-1l-1.85,1.25
		c-1.4,0.167-3.633,0.3-6.7,0.4L6.85,54.45z M48.4,53.85c-2.066,2.367-4.183,3.8-6.35,4.3c-0.867,0.166-3.133,0.199-6.8,0.1
		c-1.2-0.033-2.667,0.217-4.4,0.75c-1.6,0.566-2.55,0.866-2.85,0.9c1.667-2.034,4.683-4.967,9.05-8.8l2.6-2l4.7-3.45l4.2,0.9l1,0.45
		c0.688,0.36,1.104,0.66,1.25,0.9l0.3,0.6c0.233,0.533,0.417,1.033,0.55,1.5l-2.85,3.35c0.133-0.567,0.15-0.983,0.05-1.25l-1.25,2
		C47.967,54,48.233,53.917,48.4,53.85z M41.85,38.8c-0.567,0.133-1.1,0.217-1.6,0.25l0.3-0.2c-0.667,0.1-1.483,0.133-2.45,0.1
		c-0.267-0.2-0.434-0.4-0.5-0.6c0.3-0.333,0.8-0.75,1.5-1.25l1,0.25l-0.65-0.65l0.9-1.1c-2,0.767-3.017,1.15-3.05,1.15
		c-0.167,0.1-0.75,0.717-1.75,1.85l-0.25-0.75l0.15-0.25l1.15-1.15l1.2-0.6h-0.35l0.1-0.05l0.55-0.2
		c-0.667,0.133-1.067,0.217-1.2,0.25c-4.233,0.233-6.683,0.35-7.35,0.35c-0.466,0-1-0.417-1.6-1.25l0.3-0.85
		c0.333-0.167,1.9-0.65,4.7-1.45c2.8-0.833,4.316-1.3,4.55-1.4c0.9,0.733,1.7,1.117,2.4,1.15c0.367,0.033,0.75,0.017,1.15-0.05
		l0.35,0.75l-0.8,1.1l-0.25-1.1c-0.5,0.3-0.817,0.583-0.95,0.85l-0.05,0.35c0.533,0.1,0.883,0.15,1.05,0.15l-0.3,0.2l0.8-0.2
		c0.567-0.1,0.95-0.034,1.15,0.2l0.8,0.7l1,1C43.65,36.683,42.983,37.5,41.85,38.8z M63.5,38.9l1.35-0.1
		c0.433-0.333,0.683-0.633,0.75-0.9c-0.1-0.066-0.434-0.283-1-0.65c-0.567-0.433-0.917-0.717-1.05-0.85l3.7,0.15
		c0-0.033,0.3-0.167,0.9-0.4l-2.4-1.55c0.667-0.3,1.917-0.617,3.75-0.95c1.333-0.233,2.05-0.35,2.15-0.35
		c1.267-0.367,2.3-0.933,3.1-1.7c-0.3,0.333-0.55,1.1-0.75,2.3c-0.267,1.8-0.467,2.917-0.6,3.35c-0.101,0.2-0.7,0.667-1.801,1.4
		c0.101,0.2,0.517,0.417,1.25,0.65c0.7,0.233,1.301,0.35,1.801,0.35c1.433,0,2.566-0.6,3.399-1.8c0.5-0.7,1.316-2,2.45-3.9
		c0,2.1-0.483,3.9-1.45,5.4c-0.967,1.467-2.133,2.2-3.5,2.2l0.7-0.4c-0.134-0.033-0.533-0.05-1.2-0.05c-2.533,0-5.3,0.883-8.3,2.65
		c-2.533,1.733-3.95,2.6-4.25,2.6c-0.367,0-1.033-0.117-2-0.35c-1.167-0.3-1.917-0.483-2.25-0.55l-0.5-0.05l3.05-0.7l0.75-0.3
		c-1.5-0.133-2.583-0.2-3.25-0.2c-0.933-0.067-1.65-0.083-2.15-0.05c-0.967,0-1.45,0.217-1.45,0.65c0,0.333,0.017,0.567,0.05,0.7
		c-0.167-0.033-0.417-0.05-0.75-0.05c-1.367,0-2.883-0.567-4.55-1.7c-1.567-1.067-2.45-2-2.65-2.8l6.5-3.85L53.15,38l0.2,1.05
		c0.4,0,1.783-0.017,4.15-0.05c2.233-0.067,4.1-0.067,5.6,0l-0.85,0.4c0.233,0.2,0.75,0.35,1.55,0.45c0.567-0.167,0.917-0.5,1.05-1
		C63.717,38.95,63.267,38.967,63.5,38.9z M70.45,20.15H70.35c0.2,0.3,0.367,0.483,0.5,0.55c0.2,0.133,0.534,0.2,1,0.2
		c1.233,0,2-0.083,2.301-0.25c0.5-0.267,0.983-1.033,1.449-2.3L74.95,18.9c0.133-1.133,0.017-2.233-0.351-3.3
		c-1,0.333-1.649,0.517-1.949,0.55c1.699-1.6,3.283-2.4,4.75-2.4c2.267,0,3.949,1.133,5.05,3.4c1.233,2.567,2.283,4,3.149,4.3v1.5
		c-3.533,1.4-5.333,2.133-5.399,2.2c-0.267,0.2-0.733,0.833-1.4,1.9c-0.934,1.467-1.5,2.35-1.7,2.65
		c-7.666,1.066-11.7,1.55-12.1,1.45c0-0.1-0.067-0.2-0.2-0.3c-0.2-0.133-0.95-0.2-2.25-0.2H61.4c0.4,0.8,2.2,1.233,5.4,1.3
		c2.9,0.033,5.167-0.184,6.8-0.65l0.301-0.1c-1.601,0.667-3.15,0.966-4.65,0.9c-2.6-0.067-4.45-0.05-5.55,0.05l0.7,0.5l0.05,0.05
		c-0.1,0-0.333,0-0.7,0s-0.6-0.167-0.7-0.5c-0.1-0.3-0.95-0.467-2.55-0.5l0.3-0.35l0.95-1.3l0.15-0.2
		c0.767-0.3,2.317-1.733,4.65-4.3c2.334-2.533,3.5-4.017,3.5-4.45l0.05-1.15L70.45,20.15z M76.8,17.5c0.2,0.3,0.316,0.45,0.351,0.45
		c0.166,0.133,0.466,0.2,0.899,0.2c0.5,0,1.117-0.367,1.851-1.1v-1.7c-0.5,0-1-0.017-1.5-0.05c-1.034-0.1-1.551-0.25-1.551-0.45
		L76.7,16.2L76.6,16.1L76.4,16.85L76.8,17.5z M91.6,11.9l-0.3-0.2l0.8-1.45c1.467-0.333,3.334-1.533,5.601-3.6
		c2-1.867,3.899-2.8,5.7-2.8c1.267,0,2.449,1.8,3.55,5.4c0.566,1.8,1.05,3.717,1.45,5.75c-0.034,0.233-0.317,1.3-0.851,3.2
		c-0.533,1.9-0.85,2.966-0.95,3.2l-0.05-0.05c-0.1-1.2-0.184-1.967-0.25-2.3l0.3,1c-0.166-3.367-0.433-5.483-0.8-6.35
		c-1.033-2.4-3.3-3.6-6.8-3.6c-1,0-2.2,0.267-3.6,0.8C93.833,11.5,92.566,11.833,91.6,11.9z M108.4,5.7
		c-0.101-0.233-0.2-0.434-0.301-0.6c-0.267-0.267-1.133-1.083-2.6-2.45c-1.533-1.433-2.467-2.267-2.8-2.5
		c1.866,0.733,3.333,1.667,4.399,2.8c0.967,1.033,1.45,2.05,1.45,3.05L108.4,5.7z M101.3,6.9c0.101,0.2,0.283,0.367,0.55,0.5
		l0.75-0.3l-1-0.75L101.3,6.9z M106.65,36.45c0.267,0.333,0.566,1.05,0.899,2.15c1.066-0.733,2-0.333,2.8,1.2v0.75
		c0.134-1.1,0.2-2.066,0.2-2.9c0-1.333-0.184-2.25-0.55-2.75s-1.116-0.833-2.25-1l0.35-0.35l1.15,0.05l-0.45-0.1l-0.7-0.05
		c0.167-1.434,1.034-2.617,2.601-3.55c0.833-0.5,1.95-1.15,3.35-1.95l-1.35,0.45l1.399-1.3c-1.5,0.667-3.033,1-4.6,1l0.9-0.3
		c0.699-0.233,1.316-0.483,1.85-0.75l3.1-1.9c0.034,1.3-0.433,3.267-1.399,5.9c-0.834,2.267-1.467,3.7-1.9,4.3
		c-0.3-0.367-0.633-0.7-1-1l-1.3-0.75c0.5,1.033,0.9,2.3,1.2,3.8c0,3.367-0.55,5.883-1.65,7.55c-0.566,0.566-1.149,1.05-1.75,1.45
		c-2.633,0.434-4.283,0.65-4.95,0.65c-0.866,0-2.649-0.633-5.35-1.9c2.3,0,4.267-0.55,5.9-1.65c1.633-1.1,2.449-2.417,2.449-3.95
		l1.25,0.7l0.601-0.2l0.149-0.2l0.25-1.25c-0.666,0.167-1.183,0.316-1.55,0.45c-0.333,0.133-0.55,0.233-0.649,0.3
		C105.884,38.283,106.217,37.317,106.65,36.45z M103.05,35.45l-2.05,1.2c0.167-0.133,0.8-0.617,1.9-1.45L103.05,35.45z M76.2,35.6
		l0.399-0.5c2.301-1.133,3.551-1.733,3.75-1.8l0.15,0.35L76.2,35.6z M102.9,29.35l0.35,0.75l-0.5-0.25L102.9,29.35z M98.9,7.85
		C99.3,7.783,99.7,7.367,100.1,6.6c-0.966,0-1.566,0.2-1.8,0.6L98.9,7.85z M81.05,58.35l-0.6-0.199
		c1.233,0.033,2.533,0.116,3.899,0.25c0.334,0,0.733-0.351,1.2-1.051c0.533-0.767,1.601-1.267,3.2-1.5c1-0.133,2-0.167,3-0.1
		c0.434-0.033,0.566-0.4,0.4-1.1c3.366-0.167,6.166-0.1,8.399,0.2l3.15,1.8V56.8c-0.601,0.967-1.101,1.733-1.5,2.3
		c-0.601,0.9-1.134,1.634-1.601,2.2c0.4-0.533,0.884-1.25,1.45-2.149l0.601-1.2c-2.067,1.633-3.851,2.666-5.351,3.1
		c-1.8,0.5-5.017,0.75-9.649,0.75c-1,0-2.017-0.467-3.051-1.399C83.4,59.3,82.217,58.616,81.05,58.35z M82.7,60.8l2.649,1.15
		c0.4,0.233,0.867,0.434,1.4,0.6l3.1,1.601C89.05,64.05,88.1,63.767,87,63.3C85.5,62.667,84.066,61.833,82.7,60.8z M104.2,67.8
		c-0.2,0-0.367,0.05-0.5,0.15c-0.167,0.1-0.25,0.217-0.25,0.35c0,0.134,0.083,0.25,0.25,0.351c0.133,0.1,0.3,0.149,0.5,0.149
		s0.383-0.05,0.55-0.149c0.134-0.101,0.2-0.217,0.2-0.351c0-0.133-0.066-0.25-0.2-0.35C104.583,67.85,104.4,67.8,104.2,67.8z
		 M104.35,69.65c-0.233,0.267-0.35,0.6-0.35,1c0,0.399,0.116,0.75,0.35,1.05c0.2,0.267,0.45,0.399,0.75,0.399
		c0.301,0,0.567-0.133,0.801-0.399c0.199-0.3,0.3-0.65,0.3-1.05c0-0.4-0.101-0.733-0.3-1c-0.233-0.301-0.5-0.45-0.801-0.45
		C104.8,69.2,104.55,69.35,104.35,69.65z M100.5,72.15c-0.167,0.267-0.217,0.466-0.15,0.6c0.101,0.167,0.301,0.267,0.601,0.3
		c0.666-0.066,1.2-0.217,1.6-0.45l0.2-0.6l-0.05-0.45c-1.134,0.167-1.767,0.3-1.9,0.4c1.267-1.467,2.184-3.033,2.75-4.7
		c0.267-0.833,0.95-1.25,2.05-1.25c0.934,0,1.567,0.167,1.9,0.5c0.566,0.533,0.767,1.65,0.6,3.35
		c-0.166,1.334-0.316,2.217-0.449,2.65c-1.101,2.233-2.934,3.35-5.5,3.35L98.7,75.6c-0.233-1.1-0.05-1.949,0.55-2.55
		C99.55,72.717,99.967,72.417,100.5,72.15z M112.7,68.55c-0.134,0.033-0.267,0.084-0.4,0.15c-1.066,0.866-1.85,1.366-2.35,1.5
		l-0.05-1c0.166,0,0.55-0.15,1.149-0.45C111.483,68.65,112.033,68.583,112.7,68.55z M117,71.75c0.033-0.134,0.066-0.267,0.1-0.4
		H114.9l-0.4,0.25c0.167,0.067,0.634,0.267,1.4,0.601c0.199,0.033,0.383,0.033,0.55,0c-0.267,0.3-0.483,0.7-0.65,1.2
		c0.334,0,0.967,0.149,1.9,0.449c-0.634,0-1,0-1.101,0c-0.533-0.033-0.949-0.116-1.25-0.25c0.134,0.2,0.334,0.617,0.601,1.25
		c0.399,0.5,1.1,0.617,2.1,0.351l0.55-0.4v-0.6c0.167,0.033,0.334,0.083,0.5,0.149c1.534,0.267,2.551-0.483,3.051-2.25
		c-1.967-0.333-3.301-0.533-4-0.6C117.717,71.467,117.333,71.55,117,71.75z M86.6,57.1c0.134,0.467,0.817,0.75,2.051,0.851
		L89.6,57.85l-1.25-1.5L86.6,57.1z M98.95,79.8C97.583,79.634,96.6,79.366,96,79l0.05-0.45c0.033,0,0.917-0.1,2.65-0.3
		c0.2,0,0.733,0.083,1.6,0.25c1,0.2,1.717,0.4,2.15,0.6c-0.134,0.134-0.417,0.4-0.851,0.801c-0.433,0.399-0.699,0.616-0.8,0.649
		c0.167-0.166,0.3-0.383,0.4-0.649c-0.101,0.033-0.233,0.05-0.4,0.05c0.101-0.066,0.15-0.134,0.15-0.2c0-0.1-0.101-0.184-0.3-0.25
		c-0.2-0.1-0.434-0.15-0.7-0.15s-0.5,0.051-0.7,0.15c-0.2,0.066-0.3,0.15-0.3,0.25V79.8z M95.05,86.05c0.2,0.134,0.467,0.2,0.8,0.2
		c0.334,0,0.617-0.066,0.851-0.2c0.2-0.166,0.3-0.35,0.3-0.55s-0.1-0.366-0.3-0.5c-0.233-0.167-0.517-0.25-0.851-0.25
		c-0.333,0-0.6,0.083-0.8,0.25c-0.233,0.134-0.35,0.3-0.35,0.5S94.816,85.884,95.05,86.05z M94.45,84.8v-0.25V84.8z M111.05,74.45
		c0.2,0.1,0.4,0.166,0.601,0.2c0.399-0.034,0.35-0.184-0.15-0.45c-0.434-0.267-0.667-0.233-0.7,0.1L111.05,74.45z M116.75,89.6
		l-0.8-1.05c1.066,0,2.05,0.15,2.95,0.45L116.75,89.6z M131.25,89.6c0.066-0.066,0.1-0.133,0.1-0.199c0-0.067-0.033-0.134-0.1-0.2
		c-0.1-0.066-0.217-0.101-0.35-0.101c-0.134,0-0.233,0.034-0.301,0.101c-0.1,0.066-0.149,0.133-0.149,0.2
		c0,0.066,0.05,0.133,0.149,0.199c0.067,0.067,0.167,0.101,0.301,0.101C131.033,89.7,131.15,89.667,131.25,89.6z M120.35,90.75
		c0.301,0.3,1.284,0.467,2.95,0.5c0-0.533-0.133-1.15-0.399-1.85c0.566-0.434,1.366-0.667,2.399-0.7c0.566,0,1.351,0.017,2.351,0.05
		l0.75-0.2l0.149-0.2c-0.633-0.399-1.767-0.75-3.399-1.05c-2.634-0.5-5.784-0.616-9.45-0.35l0.95-0.3l8.699,0.3
		c2.934,0.8,4.967,1.25,6.101,1.35c0.566,0.066,1.333,0.017,2.3-0.149l-0.45,0.55c-0.633,0.467-1.483,1.566-2.55,3.3l-1.6,0.35
		c0.133-0.399,0.199-0.883,0.199-1.449c0.267-0.034,0.067-0.051-0.6-0.051c-0.333,0-1.316,0.25-2.95,0.75
		c-1.666,0.467-2.666,0.7-3,0.7c-0.434,0-0.717,0.05-0.85,0.15c-0.101,0.1-0.2,0.184-0.3,0.25l-0.101,0.149
		c0.2,0.334,0.934,0.567,2.2,0.7l-0.4,0.05c-1.466-0.033-2.466,0.134-3,0.5c-0.733,0.7-1.583,1.4-2.55,2.101v0.05L117.4,93.1
		l-0.051-0.449l1.2-0.15c0.533,0.233,1.384,0.25,2.55,0.05V91.6l-0.5-0.149L120.35,90.75z M117.4,98.4l-0.051-0.25l1.801-0.051
		l-1.7,0.75L117.4,98.4z M125.3,73.75c0.733,0.066,1.167,0.25,1.3,0.55c0.034,0.066,0.051,0.4,0.051,1l0.8,0.101
		c0.6-0.267,0.899-0.784,0.899-1.551c0-0.033,0.5-0.267,1.5-0.699c1.167-0.601,2.084-1.367,2.75-2.301
		c-1.899,0-3.183,0.051-3.85,0.15c-0.566,0.066-1.017,0.217-1.35,0.45l0.1-0.3c-0.167-0.4-0.85-0.5-2.05-0.301
		c0.533,0.267,0.816,0.45,0.85,0.551c0,0.166-0.483,0.5-1.45,1c-0.233,0.066-0.433,0.116-0.6,0.149c0.366,0.033,0.8,0.084,1.3,0.15
		l-0.25,0.1l-1.45-0.2l0.051,1c0.3-0.033,0.416,0.017,0.35,0.15C124.283,73.75,124.634,73.75,125.3,73.75z M124.8,90.65
		c0.4,0.066,0.834,0.05,1.3-0.051l-1.5-1l-0.35,0.7C124.316,90.467,124.5,90.583,124.8,90.65z M44.9,48.9l0.6,0.2
		c0.4,0.1,0.8,0.15,1.2,0.15c0.233,0,0.4-0.1,0.5-0.3c0.2-0.333,0.5-0.617,0.9-0.85l-2.5-0.05c-0.1,0.034-0.217,0.083-0.35,0.15
		C45.017,48.367,44.9,48.6,44.9,48.9z M42.85,48.6l-0.5,0.75c0.8,0.1,1.467,0.083,2-0.05c0.133-0.1,0.217-0.25,0.25-0.45L42.85,48.6
		z M41.95,50.3c-0.133-0.167-0.284-0.25-0.45-0.25s-0.317,0.083-0.45,0.25c-0.133,0.133-0.2,0.317-0.2,0.55s0.066,0.433,0.2,0.6
		c0.133,0.133,0.284,0.2,0.45,0.2s0.317-0.066,0.45-0.2c0.133-0.167,0.2-0.367,0.2-0.6S42.083,50.433,41.95,50.3z M58.25,40.35
		c-0.467,0-0.85,0.066-1.15,0.2c-0.333,0.133-0.5,0.3-0.5,0.5c0,0.2,0.167,0.367,0.5,0.5c0.3,0.133,0.683,0.2,1.15,0.2
		s0.867-0.067,1.2-0.2c0.3-0.133,0.45-0.3,0.45-0.5c0-0.2-0.15-0.367-0.45-0.5C59.117,40.417,58.717,40.35,58.25,40.35z M65.1,41.6
		v-0.75h-0.75v0.75H65.1z M52.35,40.4c0,0.233,0.183,0.434,0.55,0.6c0.333,0.167,0.733,0.25,1.2,0.25s0.883-0.083,1.25-0.25
		c0.333-0.167,0.5-0.367,0.5-0.6s-0.167-0.433-0.5-0.6c-0.367-0.167-0.783-0.25-1.25-0.25s-0.867,0.083-1.2,0.25
		C52.533,39.967,52.35,40.167,52.35,40.4z M70.4,43.2l-1.45,0.75c-3.833,2.267-6.034,3.466-6.6,3.6c-1.1-0.133-1.95-0.25-2.55-0.35
		c-1.033-0.2-2.066-0.5-3.1-0.9l5.5,0.95c0.9-0.133,1.633-0.4,2.2-0.8C65.6,45.55,67.6,44.467,70.4,43.2z M73.35,24.85V24.1
		l-4.5,1.5c-0.133,1.066,0.467,1.483,1.801,1.25c0.166,0.2,0.3,0.333,0.399,0.4c0.167,0.1,0.483,0.15,0.95,0.15
		c0.9,0,1.6-0.767,2.1-2.3L73.35,24.85z M68.95,40.2c0.767-0.233,1.166-0.784,1.2-1.65c-0.4,0-0.934,0.383-1.601,1.15L68.95,40.2z
		 M14.6,46.85l-0.25-1c-0.267,0.233-0.434,0.45-0.5,0.65c-0.067,0.2,0.017,0.35,0.25,0.45L14.6,46.85z M8.25,54.3
		c1.933-0.3,3.75-0.617,5.45-0.95C12.067,53.983,10.25,54.3,8.25,54.3z M32.35,34.15c0.3,0.1,0.683,0.15,1.15,0.15
		s0.867-0.05,1.2-0.15c0.3-0.133,0.45-0.283,0.45-0.45c0-0.167-0.15-0.3-0.45-0.4c-0.333-0.133-0.733-0.2-1.2-0.2
		s-0.85,0.066-1.15,0.2c-0.333,0.1-0.5,0.233-0.5,0.4C31.85,33.867,32.017,34.017,32.35,34.15z M35.6,33.6
		c0.367,0.367,0.783,0.55,1.25,0.55c0.133-0.066,0.217-0.167,0.25-0.3L35.6,33.6z M46.85,57.5c-1.567,1.366-3.2,2.267-4.9,2.7
		C41.983,60.167,43.617,59.267,46.85,57.5z M43.15,52.3c-0.667,0.333-1.55,0.967-2.65,1.9c-0.2,0.267-1,0.633-2.4,1.1
		c-1.667,0.5-2.833,0.867-3.5,1.101c0.167,0.199,0.4,0.533,0.7,1c0.5,0.366,1.417,0.55,2.75,0.55c2.434,0,4.733-0.601,6.9-1.8
		c1.767-0.967,2.65-1.734,2.65-2.3c0-0.4-0.083-0.934-0.25-1.6l-0.25-0.9c-1.5,0.1-2.783,0.4-3.85,0.9
		C43.217,52.25,43.183,52.267,43.15,52.3z M14.35,51.85c1,0,1.6-0.434,1.8-1.3c0.167-0.333,0.317-0.733,0.45-1.2
		c-1.667,1.2-2.567,1.833-2.7,1.9c-0.167,0.067-0.816,0.117-1.95,0.15C12.55,51.7,13.35,51.85,14.35,51.85z"/>
	<path style="fill-rule:evenodd;clip-rule:evenodd;fill:#BDB9AE;" d="M131.6,57.2c-1,0.2-1.883,0.116-2.649-0.25
		c-1.167-0.566-2.934-0.934-5.3-1.1H123.6l4-2.75c4,2,6,3.1,6,3.3L132.7,56.85L131.6,57.2z M92.35,86.85l1.15,0.301l1.45,0.3
		c0.5,0.066,1.033,0.05,1.6-0.05c0.566-0.101,0.95-0.25,1.15-0.45L97.6,87.2l-0.85,0.45C96.283,87.884,95.634,88,94.8,88
		c-0.8,0-1.783-0.134-2.95-0.4l0.375-0.574L92.35,86.85z M95.25,79.95L95.7,78.1L96,79c0.6,0.366,1.583,0.634,2.95,0.8
		c0.033,0.066,0.133,0.15,0.3,0.25c0.2,0.066,0.434,0.101,0.7,0.101s0.5-0.034,0.7-0.101c0.066-0.033,0.116-0.066,0.149-0.1
		c0.167,0,0.3-0.017,0.4-0.05c-0.101,0.267-0.233,0.483-0.4,0.649c-0.267,0.334-0.916,0.5-1.95,0.5c-0.399,0-0.966-0.1-1.699-0.3
		C96.35,80.517,95.717,80.25,95.25,79.95z M101,70.6c0.667-0.899,1.283-2.1,1.85-3.6c0.067-0.233,0.217-0.55,0.45-0.95
		c0.101-0.2,0.2-0.383,0.3-0.55l0.051-0.05c0.566-0.267,1.267-0.417,2.1-0.45h0.15l1.199,0.35c0.034,0,0.101,0.034,0.2,0.101
		l0.45,0.3c0.533,0.333,0.983,0.684,1.35,1.05c0,0.066,0,0.134,0,0.2c-0.033,0.7-0.133,1.384-0.3,2.05L108.4,70.65
		c-0.101-0.233-0.2-0.5-0.301-0.801c0.167-1.699-0.033-2.816-0.6-3.35c-0.333-0.333-0.967-0.5-1.9-0.5c-1.1,0-1.783,0.417-2.05,1.25
		c-0.566,1.667-1.483,3.233-2.75,4.7h-0.05l-0.25,0.2c-0.533,0.267-0.95,0.566-1.25,0.899c-0.6,0.601-0.783,1.45-0.55,2.55
		l3.45,0.25c2.566,0,4.399-1.116,5.5-3.35l0.55-0.65c-0.033,0.101-0.334,0.684-0.9,1.75c-0.6,1.034-0.95,1.617-1.05,1.75
		c-0.134,0.134-0.566,0.467-1.3,1c-0.834,0.567-1.334,0.884-1.5,0.95l-0.15,0.05c-0.166,0.034-1.416,0.034-3.75,0
		c-1.978,0-3.202,0.101-3.675,0.301H95.85c0-0.034,0.017-0.067,0.051-0.101L96.35,76c0.334-0.767,0.817-1.55,1.45-2.35
		c0.601-0.7,1.184-1.317,1.75-1.851L101,70.6z M6.85,54.45c-1.2-0.167-1.9-0.367-2.1-0.6c-0.167-0.3-0.4-0.633-0.7-1
		c-0.033-0.067-0.083-0.133-0.15-0.2l2.95-2.3c-0.133,0.133-0.267,0.316-0.4,0.55c-0.233,0.4-0.35,0.817-0.35,1.25
		c0,0.9,0.95,1.35,2.85,1.35c2.066,0,3.983-0.183,5.75-0.55c0.667-0.167,1.333-0.35,2-0.55l-1.05,0.55
		c-0.633,0.133-1.283,0.267-1.95,0.4C12,53.683,10.183,54,8.25,54.3H8.1L6.85,54.45z M9.05,49.55c-1,0.233-1.517,0.35-1.55,0.35
		l2-1.45c0.267-0.333,1-0.85,2.2-1.55c0.033-0.033,0.066-0.05,0.1-0.05c1.034-0.567,1.85-0.967,2.45-1.2
		c-0.567,0.633-1.25,1.167-2.05,1.6c-0.867,0.5-1.333,0.783-1.4,0.85l-1.7,1.4L9.05,49.55z M32.1,37.95
		c-0.067,0.1-0.117,0.15-0.15,0.15c-0.1,0.033-0.367,0.05-0.8,0.05c-1.1,0-2.483-0.717-4.15-2.15c-0.067-0.067,0.167-0.533,0.7-1.4
		l0.25,0.35c0.6,0.833,1.133,1.25,1.6,1.25c0.667,0,3.117-0.117,7.35-0.35h0.45h0.1h0.35l-1.2,0.6l-0.75,0.15H35.2l-1.8,0.6
		C32.867,37.633,32.433,37.883,32.1,37.95z M41.05,32.35c-0.4,0.066-0.783,0.083-1.15,0.05c-0.7-0.033-1.5-0.417-2.4-1.15
		C38.767,31.25,39.95,31.617,41.05,32.35z M75.15,41.65c-1.467,0.333-3.051,0.85-4.75,1.55c-2.801,1.267-4.8,2.35-6,3.25
		c-0.566,0.4-1.3,0.667-2.2,0.8l-5.5-0.95l-2.3-0.25c-2.167,0-4.017-0.466-5.55-1.4c-1.533-0.967-2.3-2.133-2.3-3.5l0.25-0.2
		c0.2,0.8,1.083,1.733,2.65,2.8c1.667,1.133,3.183,1.7,4.55,1.7c0.333,0,0.583,0.017,0.75,0.05c-0.033-0.133-0.05-0.367-0.05-0.7
		c0-0.433,0.483-0.65,1.45-0.65c0.5-0.033,1.217-0.017,2.15,0.05c0.667,0,1.75,0.066,3.25,0.2l-0.75,0.3l-3.05,0.7l0.5,0.05
		c0.333,0.066,1.083,0.25,2.25,0.55c0.967,0.233,1.633,0.35,2,0.35c0.3,0,1.717-0.867,4.25-2.6c3-1.767,5.767-2.65,8.3-2.65
		c0.667,0,1.066,0.017,1.2,0.05l-0.7,0.4L75.15,41.65z M61.9,29.85l0.2-0.35c0.533-0.733,2.35-3.867,5.45-9.4
		c3.566-5.4,7.267-8.75,11.101-10.05c0.733,0.767,2.083,1.9,4.05,3.4c1.733,1.833,2.967,4.6,3.7,8.3l-0.801-0.3
		c-0.866-0.3-1.916-1.733-3.149-4.3c-1.101-2.267-2.783-3.4-5.05-3.4c-1.467,0-3.051,0.8-4.75,2.4
		c-0.733,0.833-1.167,1.333-1.301,1.5c-0.199,0.2-0.616,0.967-1.25,2.3l-0.05,1.15c0,0.433-1.166,1.917-3.5,4.45
		C64.217,28.117,62.667,29.55,61.9,29.85z M108.4,15c-0.4-2.033-0.884-3.95-1.45-5.75c-1.101-3.6-2.283-5.4-3.55-5.4
		c-1.801,0-3.7,0.933-5.7,2.8c-2.267,2.067-4.134,3.267-5.601,3.6l0.101-0.2c2.333-3.1,3.983-5.15,4.95-6.15
		c1.566-1.6,3.333-2.883,5.3-3.85l0.25,0.1c0.333,0.233,1.267,1.067,2.8,2.5c1.467,1.367,2.333,2.184,2.6,2.45
		c0.101,0.167,0.2,0.367,0.301,0.6c0.233,0.566,0.399,1.3,0.5,2.2c0,0.267,0.017,0.567,0.05,0.9c0,0.067,0,0.133,0,0.2
		c0,0.348,0,0.731,0,1.15C108.884,11.85,108.7,13.467,108.4,15z M97.25,45.15c2.7,1.267,4.483,1.9,5.35,1.9
		c0.667,0,2.317-0.216,4.95-0.65c-0.233,0.233-0.95,0.65-2.149,1.25c-1.367,0.667-2.417,1.017-3.15,1.05l-4.4-0.35l1.5-0.55
		c-0.1,0.034-0.267,0.034-0.5,0c-0.466-0.133-1.633-0.683-3.5-1.65l-2.3-1.2l-0.55-0.4l-0.4-0.4l0.15-0.3h0.1
		C92.717,43.883,94.35,44.317,97.25,45.15z M85.25,23.8c-0.7,0.967-2.316,2.75-4.85,5.35c-2.067,2.1-3.25,3.567-3.551,4.4l-1.25,2.1
		c-0.033,0.1-0.383,0.517-1.05,1.25c-0.633,0.7-1.017,1.1-1.149,1.2v-0.85c0.133-0.433,0.333-1.55,0.6-3.35
		c0.2-1.2,0.45-1.967,0.75-2.3l2.1-1.7l-0.5,0.25l-1.699,0.7L73.6,31.3c-1.633,0.467-3.899,0.684-6.8,0.65c-3.2-0.067-5-0.5-5.4-1.3
		h1.15c1.3,0,2.05,0.067,2.25,0.2c0.133,0.1,0.2,0.2,0.2,0.3c0.4,0.1,4.434-0.383,12.1-1.45c0.2-0.3,0.767-1.184,1.7-2.65
		c0.667-1.066,1.134-1.7,1.4-1.9c0.066-0.066,1.866-0.8,5.399-2.2L85.25,23.8z M112.7,28.4c-0.601,0.367-1.316,0.7-2.15,1
		c-0.767,0.3-1.333,0.45-1.7,0.45c-0.8,0-1.416-0.067-1.85-0.2c-0.967-0.233-1.8-0.75-2.5-1.55h5c1.566,0,3.1-0.333,4.6-1
		L112.7,28.4z M105.95,34.15l1.8-0.25c1.134,0.167,1.884,0.5,2.25,1s0.55,1.417,0.55,2.75c0,0.833-0.066,1.8-0.2,2.9V39.8
		c-0.8-1.533-1.733-1.933-2.8-1.2c-0.333-1.1-0.633-1.817-0.899-2.15c-0.5-0.267-1.483-0.45-2.95-0.55l-0.8-0.2l0.199-0.15
		C103.6,35.15,104.55,34.683,105.95,34.15z M105.6,39.55V39.4c-0.133,0.033-0.116,0.017,0.051-0.05c0.1-0.067,0.316-0.167,0.649-0.3
		c0.367-0.133,0.884-0.283,1.55-0.45l-0.25,1.25l-0.149,0.2l-0.601,0.2L105.6,39.55z M86.75,62.55c-0.533-0.166-1-0.366-1.4-0.6
		c-0.399-0.4-1.033-0.851-1.899-1.351c-1.134-0.633-2.25-1.1-3.351-1.399l-0.149-0.05V58.55c0.434-0.133,0.8-0.2,1.1-0.2
		c1.167,0.267,2.351,0.95,3.55,2.051c1.034,0.933,2.051,1.399,3.051,1.399c4.633,0,7.85-0.25,9.649-0.75
		c1.5-0.434,3.283-1.467,5.351-3.1l-0.601,1.2c-0.566,0.899-1.05,1.616-1.45,2.149l-0.199,0.2c-1.2,0.866-2.15,1.3-2.851,1.3
		L96.4,62.75c-1.2,0.066-2.851,0.033-4.95-0.1C89.384,62.85,87.816,62.816,86.75,62.55z M109.95,70.2
		c0.5-0.134,1.283-0.634,2.35-1.5c0.134-0.066,0.267-0.117,0.4-0.15c1.166-0.1,2.767-0.1,4.8,0l12.6-0.35l-1,0.1
		c-11.966,1.867-18,2.8-18.1,2.8l-1.05-0.1V70.2z M111.9,80.55V80.4l0.85,0.25L111.9,80.55z M116.45,72.2
		c0.233-0.066,0.416-0.217,0.55-0.45c0.333-0.2,0.717-0.283,1.15-0.25c0.699,0.066,2.033,0.267,4,0.6
		c-0.5,1.767-1.517,2.517-3.051,2.25c-0.166-0.066-0.333-0.116-0.5-0.149V73.85c-0.366,0-0.666,0-0.899,0
		c-0.934-0.3-1.566-0.449-1.9-0.449C115.967,72.9,116.184,72.5,116.45,72.2z M103.45,97.85l-0.15,0.101
		c-0.267,0.166-1.066,0.267-2.399,0.3c-1.367,0.066-2.4,0.017-3.101-0.15c-0.2-0.133-0.383-0.316-0.55-0.55l-0.2-0.3
		c-0.066,0.366-0.1,0.217-0.1-0.45c0-0.6,0.233-1.133,0.7-1.6L98.3,94.85c0.367-0.133,0.767-0.199,1.2-0.199l0.7-0.25l0.2,0.05h0.05
		l0.3,0.25c-1.634,0.267-2.483,0.416-2.55,0.45c0.366,1.366,1.217,2.166,2.55,2.399c0.767,0.101,1.9,0.084,3.4-0.05L103.45,97.85z
		 M120.6,91.45l0.5,0.149v0.95c-1.166,0.2-2.017,0.184-2.55-0.05c0-0.3,0.2-0.55,0.601-0.75C119.55,91.55,120.033,91.45,120.6,91.45
		z M120.35,90.75L118.9,89c-0.9-0.3-1.884-0.45-2.95-0.45L115,87.2l0.7-0.25c3.666-0.267,6.816-0.15,9.45,0.35
		c1.633,0.3,2.767,0.65,3.399,1.05l-0.149,0.2l-0.75,0.2c-1-0.033-1.784-0.05-2.351-0.05c-1.033,0.033-1.833,0.267-2.399,0.7
		c0.267,0.699,0.399,1.316,0.399,1.85C121.634,91.217,120.65,91.05,120.35,90.75z M131.25,89.6c-0.1,0.067-0.217,0.101-0.35,0.101
		c-0.134,0-0.233-0.033-0.301-0.101c-0.1-0.066-0.149-0.133-0.149-0.199c0-0.067,0.05-0.134,0.149-0.2
		c0.067-0.066,0.167-0.101,0.301-0.101c0.133,0,0.25,0.034,0.35,0.101c0.066,0.066,0.1,0.133,0.1,0.2
		C131.35,89.467,131.316,89.533,131.25,89.6z M129.15,92.35l-5.4,1.2c-1.267-0.133-2-0.366-2.2-0.7l0.101-0.149
		c0.1-0.066,0.199-0.15,0.3-0.25c0.133-0.101,0.416-0.15,0.85-0.15c0.334,0,1.334-0.233,3-0.7c1.634-0.5,2.617-0.75,2.95-0.75
		c0.667,0,0.866,0.017,0.6,0.051C129.35,91.467,129.283,91.95,129.15,92.35z M127.4,71.45c0.333-0.233,0.783-0.384,1.35-0.45
		c0.667-0.1,1.95-0.15,3.85-0.15c-0.666,0.934-1.583,1.7-2.75,2.301c-1,0.433-1.5,0.666-1.5,0.699c0,0.767-0.3,1.284-0.899,1.551
		l-0.8-0.101c0-0.6-0.017-0.934-0.051-1c-0.133-0.3-0.566-0.483-1.3-0.55c0-0.6-0.3-0.684-0.899-0.25l0.899-0.7l0.25-0.1
		C126.116,72.5,126.733,72.083,127.4,71.45z M70.45,20.15l2.2,0.05c0.366,0,1.133-0.434,2.3-1.3l0.649-0.55
		c-0.466,1.267-0.949,2.033-1.449,2.3c-0.301,0.167-1.067,0.25-2.301,0.25c-0.466,0-0.8-0.066-1-0.2c-0.133-0.067-0.3-0.25-0.5-0.55
		H70.45z M39.1,37.1c-0.7,0.5-1.2,0.917-1.5,1.25c0.066,0.2,0.233,0.4,0.5,0.6c0.967,0.033,1.783,0,2.45-0.1l-0.3,0.2
		c-0.3,0.167-0.6,0.3-0.9,0.4c-0.2,0-0.4,0.017-0.6,0.05c-0.033,0-0.083,0-0.15,0c-1.233,0-2.25-0.3-3.05-0.9
		c1-1.133,1.583-1.75,1.75-1.85c0.034,0,1.05-0.383,3.05-1.15l-0.9,1.1L39.1,37.1z M40.4,34.45c-0.167,0-0.517-0.05-1.05-0.15
		l0.05-0.35c0.133-0.267,0.45-0.55,0.95-0.85l0.25,1.1L40.4,34.45z M65.1,41.6h-0.75v-0.75h0.75V41.6z M63.5,38.9
		c-0.233,0.067,0.217,0.05,1.35-0.05c-0.133,0.5-0.483,0.833-1.05,1c-0.8-0.1-1.316-0.25-1.55-0.45L63.1,39L63.5,38.9z M52.35,40.4
		c0-0.233,0.183-0.433,0.55-0.6c0.333-0.167,0.733-0.25,1.2-0.25s0.883,0.083,1.25,0.25c0.333,0.167,0.5,0.367,0.5,0.6
		s-0.167,0.434-0.5,0.6c-0.367,0.167-0.783,0.25-1.25,0.25s-0.867-0.083-1.2-0.25C52.533,40.833,52.35,40.633,52.35,40.4z
		 M48.8,53.35L51.65,50c0.4,1.3,0.05,2.967-1.05,5c-0.567,0.533-1.35,1.1-2.35,1.7c-0.867,0.533-1.333,0.8-1.4,0.8
		c-3.233,1.767-4.867,2.667-4.9,2.7c-0.567,0.267-3.5,0.434-8.8,0.5c-2.533,0.133-4.767,0.133-6.7,0l-1.3-0.15l0.7-0.399L28,59.9
		c0.3-0.034,1.25-0.334,2.85-0.9c1.733-0.533,3.2-0.783,4.4-0.75c3.667,0.1,5.933,0.066,6.8-0.1c2.167-0.5,4.284-1.934,6.35-4.3
		c0.033-0.067,0.083-0.133,0.15-0.2L48.8,53.35z M70.65,26.85L70.6,26.6c0.4-0.233,1.017-0.533,1.851-0.9
		c0.3-0.133,0.6-0.417,0.899-0.85l0.75,0.25c-0.5,1.533-1.199,2.3-2.1,2.3c-0.467,0-0.783-0.05-0.95-0.15
		C70.95,27.183,70.816,27.05,70.65,26.85z M12.6,49.6l-0.2-0.1l0.05-0.65h1.6L14.1,49v0.6H12.6z M45.35,53.3l0.15-0.2l0.35,1
		c-0.333,0.1-0.55,0.167-0.65,0.2c-0.133,0.034-0.4,0.05-0.8,0.05s-0.65-0.033-0.75-0.1l-0.05-0.1h1.75V53.3z M14.35,51.85
		c-1,0-1.8-0.15-2.4-0.45c1.133-0.033,1.783-0.083,1.95-0.15c0.133-0.067,1.033-0.7,2.7-1.9c-0.133,0.467-0.283,0.867-0.45,1.2
		C15.95,51.417,15.35,51.85,14.35,51.85z M73.15,52.1c0.366,0,0.683,0.05,0.949,0.15c0.233,0.1,0.351,0.233,0.351,0.4
		c0,0.167-0.117,0.3-0.351,0.4c-0.267,0.1-0.583,0.15-0.949,0.15c-0.367,0-0.667-0.05-0.9-0.15c-0.267-0.1-0.4-0.233-0.4-0.4
		c0-0.167,0.134-0.3,0.4-0.4C72.483,52.15,72.783,52.1,73.15,52.1z M63.2,53c-0.2-0.4-0.317-0.783-0.35-1.15
		c0.2,0.1,1.066,0.066,2.6-0.1c1.934,0,3.983,0.367,6.149,1.1c-2.166,0.667-4.183,1-6.05,1l-2.05-0.2C63.5,53.617,63.4,53.4,63.2,53
		z M41.85,56.6L41.4,56.9c-0.767,0.1-1.517,0.017-2.25-0.25L41.85,56.6z"/>
	<path style="fill-rule:evenodd;clip-rule:evenodd;fill:#939087;" d="M101.3,6.9l0.3-0.55l1,0.75l-0.75,0.3
		C101.583,7.267,101.4,7.1,101.3,6.9z M103.05,35.45L102.9,35.2c-0.267-0.467-0.434-0.8-0.5-1c-0.134-0.267-0.2-0.617-0.2-1.05
		c0-1.033,0.233-2.05,0.7-3.05l0.25,0.15c0,0.9,0.483,1.667,1.449,2.3c0.967,0.6,2.134,0.9,3.5,0.9l0.7,0.05l0.45,0.1l-1.15-0.05
		c-0.733,0.133-1.316,0.284-1.75,0.45l-0.399,0.15c-1.4,0.533-2.351,1-2.851,1.4L103.05,35.45z M105.65,31.6
		c0,0.167-0.067,0.3-0.2,0.4c-0.167,0.1-0.351,0.15-0.55,0.15c-0.2,0-0.367-0.05-0.5-0.15c-0.167-0.1-0.25-0.233-0.25-0.4
		c0-0.167,0.083-0.3,0.25-0.4c0.133-0.1,0.3-0.15,0.5-0.15c0.199,0,0.383,0.05,0.55,0.15C105.583,31.3,105.65,31.433,105.65,31.6z
		 M102,15.05c-2.767-1.233-4.6-2.017-5.5-2.35c-1.3-0.467-2.866-0.567-4.7-0.3l-1.1-0.1l-0.851-0.2c0.767,0,1.184,0,1.25,0l0.5-0.2
		c0.967-0.066,2.233-0.4,3.801-1c1.399-0.533,2.6-0.8,3.6-0.8c3.5,0,5.767,1.2,6.8,3.6c0.367,0.867,0.634,2.983,0.8,6.35l-0.3-1
		c-1.133-1.733-1.733-2.65-1.8-2.75C103.667,15.7,102.833,15.283,102,15.05z M98.9,7.85L98.3,7.2c0.233-0.4,0.834-0.6,1.8-0.6
		C99.7,7.367,99.3,7.783,98.9,7.85z M64.45,32.7l-0.05-0.05l-0.7-0.5c1.1-0.1,2.95-0.117,5.55-0.05c1.5,0.066,3.05-0.233,4.65-0.9
		l0.75-0.35l1.699-0.7l-1.6,1.45c-0.8,0.767-1.833,1.333-3.1,1.7c-0.101,0-0.817,0.117-2.15,0.35c-1.9,0.067-2.983,0.083-3.25,0.05
		C65.517,33.6,64.917,33.267,64.45,32.7z M101.05,37.3c-0.033,0.4-0.033,1.034,0,1.9c-0.033,0.767-0.184,1.383-0.45,1.85
		c-0.8,1.333-3.116,2.184-6.949,2.55c-0.034-0.333,0-0.684,0.1-1.05l0.15-0.5c0.733-0.466,1.433-0.867,2.1-1.2
		c0.366-0.167,0.733-0.333,1.1-0.5c0.5-0.233,1.034-0.45,1.601-0.65c0.035-0.034,0.068-0.05,0.1-0.05l0.351-0.35
		C99.45,38.933,100.083,38.267,101.05,37.3z M92.35,53.1l-0.199,0.3c-0.534,0-0.967-0.1-1.301-0.3H92.35z M89.25,52
		c0.2-0.067,0.483-0.15,0.85-0.25c1.5-0.433,1.934-0.3,1.301,0.4c-0.101,0.233-0.334,0.517-0.7,0.85L89.25,52z M89.9,51.45
		c-0.367,0.167-0.634,0.3-0.801,0.4l-0.149-0.1L89.9,51.45z M76.8,17.5L76.4,16.85L76.6,16.1l0.101,0.1l1.149,1.15L77.3,17.7
		L76.8,17.5z M72.65,17.25c0.166-0.133,0.383-0.2,0.649-0.2s0.5,0.067,0.7,0.2c0.167,0.133,0.25,0.3,0.25,0.5s-0.083,0.367-0.25,0.5
		c-0.2,0.133-0.434,0.2-0.7,0.2s-0.483-0.067-0.649-0.2c-0.2-0.133-0.301-0.3-0.301-0.5S72.45,17.383,72.65,17.25z M60.25,36.55
		l0.35-0.7l1.5,1l-0.2,0.3l-0.7,0.1C60.733,37.05,60.417,36.817,60.25,36.55z M58.65,35.65c-0.367-0.167-0.55-0.35-0.55-0.55
		c0-0.2,0.183-0.367,0.55-0.5c0.333-0.167,0.733-0.25,1.2-0.25s0.883,0.083,1.25,0.25c0.333,0.133,0.5,0.3,0.5,0.5
		c0,0.2-0.167,0.383-0.5,0.55c-0.367,0.133-0.783,0.2-1.25,0.2S58.983,35.783,58.65,35.65z M11.1,49.55l0.1-0.4
		c0.267-0.033,0.667,0.083,1.2,0.35l0.2,0.1l0.25,0.45c-0.3,0.133-0.684,0.217-1.15,0.25h-0.55L11.1,49.55z M39.85,55.45
		c0.133-0.1,0.316-0.15,0.55-0.15s0.434,0.05,0.6,0.15c0.133,0.066,0.2,0.167,0.2,0.3S41.133,56,41,56.1
		c-0.167,0.067-0.367,0.101-0.6,0.101s-0.417-0.033-0.55-0.101c-0.167-0.1-0.25-0.216-0.25-0.35S39.683,55.517,39.85,55.45z
		 M45.5,53.1l-0.15,0.2c-0.4,0.1-0.867,0.167-1.4,0.2c-0.367,0.033-0.817-0.067-1.35-0.3c0.033-0.2,0.133-0.4,0.3-0.6
		c0.1-0.1,0.184-0.2,0.25-0.3L45.5,53.1z"/>
	<path style="fill-rule:evenodd;clip-rule:evenodd;fill:#A7A499;" d="M53.3,37.1c0.233-0.167,1.05-0.667,2.45-1.5
		c1.033-0.633,2.25-1.55,3.65-2.75l0.55-0.575L60.5,31.7c1.6,0.033,2.45,0.2,2.55,0.5c0.1,0.333,0.333,0.5,0.7,0.5s0.6,0,0.7,0
		c0.466,0.566,1.066,0.9,1.8,1c0.267,0.033,1.35,0.017,3.25-0.05c-1.833,0.333-3.083,0.65-3.75,0.95l2.4,1.55
		c-0.601,0.233-0.9,0.367-0.9,0.4l-3.7-0.15c0.133,0.133,0.483,0.417,1.05,0.85c0.566,0.367,0.9,0.583,1,0.65
		c-0.067,0.267-0.317,0.567-0.75,0.9l-1.35,0.1L63.1,39c-1.5-0.067-3.367-0.067-5.6,0c-2.367,0.033-3.75,0.05-4.15,0.05L53.15,38
		L53.3,37.1z M58.25,40.35c0.467,0,0.867,0.066,1.2,0.2c0.3,0.133,0.45,0.3,0.45,0.5c0,0.2-0.15,0.367-0.45,0.5
		c-0.333,0.133-0.733,0.2-1.2,0.2s-0.85-0.067-1.15-0.2c-0.333-0.133-0.5-0.3-0.5-0.5c0-0.2,0.167-0.367,0.5-0.5
		C57.4,40.417,57.783,40.35,58.25,40.35z M80.5,33.95c-1.134,1.9-1.95,3.2-2.45,3.9c-0.833,1.2-1.967,1.8-3.399,1.8
		c-0.5,0-1.101-0.117-1.801-0.35c-0.733-0.233-1.149-0.45-1.25-0.65c1.101-0.733,1.7-1.2,1.801-1.4v0.85
		c0.133-0.1,0.517-0.5,1.149-1.2c0.667-0.733,1.017-1.15,1.05-1.25l0.25-0.05H76.2l4.3-1.95l0.05,0.25L80.5,33.95z M101,36.65
		l2.05-1.2l0.05,0.1L102.9,35.7l0.949,0.4l-0.149-0.2c1.467,0.1,2.45,0.283,2.95,0.55c-0.434,0.867-0.767,1.833-1,2.9
		c-0.167,0.066-0.184,0.083-0.051,0.05v0.15c0,1.534-0.816,2.85-2.449,3.95c-1.634,1.1-3.601,1.65-5.9,1.65
		c-2.9-0.833-4.533-1.267-4.9-1.3v-0.2c0.367-0.566,0.884-1.1,1.551-1.6l-0.15,0.5c-0.1,0.367-0.134,0.717-0.1,1.05
		c3.833-0.367,6.149-1.217,6.949-2.55c0.267-0.466,0.417-1.083,0.45-1.85c-0.033-0.867-0.033-1.5,0-1.9l-0.55-0.55L101,36.65z
		 M105.2,27.95l1.149,0.1l-1.85,0.05c0.7,0.8,1.533,1.316,2.5,1.55c0.434,0.133,1.05,0.2,1.85,0.2c0.367,0,0.934-0.15,1.7-0.45
		c0.834-0.3,1.55-0.633,2.15-1l1.35-0.45c-1.399,0.8-2.517,1.45-3.35,1.95c-1.566,0.934-2.434,2.117-2.601,3.55
		c-1.366,0-2.533-0.3-3.5-0.9c-0.966-0.633-1.449-1.4-1.449-2.3l0.1-0.15l-0.35-0.75H102.6V28.2L105.2,27.95z M89.9,51.45l0.8-0.65
		h0.25l2.2,0.1c1.733,0.267,3.083,0.934,4.05,2l3.35,1.95c-2.233-0.3-5.033-0.367-8.399-0.2c0.166,0.7,0.033,1.067-0.4,1.1
		c-1-0.067-2-0.033-3,0.1c-1.6,0.233-2.667,0.733-3.2,1.5c-0.467,0.7-0.866,1.051-1.2,1.051c-1.366-0.134-2.666-0.217-3.899-0.25
		H79.85l-0.25-1c0.334-0.167,1.034-0.45,2.101-0.851c1.033-0.5,1.816-1.167,2.35-2c0.334-0.066,0.917-0.417,1.75-1.05
		c0.8-0.267,1.384-0.5,1.75-0.7c0.233-0.133,0.533-0.35,0.9-0.65l0.5-0.15l0.149,0.1C89.267,51.75,89.533,51.617,89.9,51.45z
		 M89.25,52l1.45,1c0.366-0.333,0.6-0.617,0.7-0.85c0.633-0.7,0.199-0.833-1.301-0.4C89.733,51.85,89.45,51.933,89.25,52z
		 M95.35,46.15c0.367,0.2,0.517,0.35,0.45,0.45c-1.066-0.533-1.983-1.083-2.75-1.65L95.35,46.15z M105.65,31.6
		c0-0.167-0.067-0.3-0.2-0.4c-0.167-0.1-0.351-0.15-0.55-0.15c-0.2,0-0.367,0.05-0.5,0.15c-0.167,0.1-0.25,0.233-0.25,0.4
		c0,0.167,0.083,0.3,0.25,0.4c0.133,0.1,0.3,0.15,0.5,0.15c0.199,0,0.383-0.05,0.55-0.15C105.583,31.9,105.65,31.767,105.65,31.6z
		 M108.1,33.55l-0.35,0.35l-1.8,0.25L106.35,34C106.783,33.833,107.366,33.683,108.1,33.55z M104.2,67.8c0.2,0,0.383,0.05,0.55,0.15
		c0.134,0.1,0.2,0.217,0.2,0.35c0,0.134-0.066,0.25-0.2,0.351c-0.167,0.1-0.35,0.149-0.55,0.149s-0.367-0.05-0.5-0.149
		c-0.167-0.101-0.25-0.217-0.25-0.351c0-0.133,0.083-0.25,0.25-0.35C103.833,67.85,104,67.8,104.2,67.8z M100.5,72.15l0.25-0.2h0.05
		c0.134-0.101,0.767-0.233,1.9-0.4l0.05,0.45l-0.2,0.6c-0.399,0.233-0.934,0.384-1.6,0.45c-0.3-0.033-0.5-0.133-0.601-0.3
		C100.283,72.616,100.333,72.417,100.5,72.15z M104.35,69.65c0.2-0.301,0.45-0.45,0.75-0.45c0.301,0,0.567,0.149,0.801,0.45
		c0.199,0.267,0.3,0.6,0.3,1c0,0.399-0.101,0.75-0.3,1.05c-0.233,0.267-0.5,0.399-0.801,0.399c-0.3,0-0.55-0.133-0.75-0.399
		c-0.233-0.3-0.35-0.65-0.35-1.05C104,70.25,104.116,69.917,104.35,69.65z M110.25,72.75l-0.3-1.65
		c0.366-0.066,0.783-0.033,1.25,0.101c0.434,0.133,0.7,0.316,0.8,0.55c0.066,0.233-0.05,0.45-0.35,0.65
		C111.35,72.6,110.884,72.717,110.25,72.75z M117,71.75c-0.134,0.233-0.316,0.384-0.55,0.45c-0.167,0.033-0.351,0.033-0.55,0
		c-0.767-0.334-1.233-0.533-1.4-0.601l0.4-0.25h2.199C117.066,71.483,117.033,71.616,117,71.75z M117.7,73.85
		c0.233,0,0.533,0,0.899,0V74.2v0.6l-0.55,0.4c-1,0.267-1.7,0.149-2.1-0.351c-0.267-0.633-0.467-1.05-0.601-1.25
		c0.301,0.134,0.717,0.217,1.25,0.25C116.7,73.85,117.066,73.85,117.7,73.85z M92.35,53.1h-1.5c0.334,0.2,0.767,0.3,1.301,0.3
		L92.35,53.1z M86.6,57.1l1.75-0.75l1.25,1.5L88.65,57.95C87.417,57.85,86.733,57.566,86.6,57.1z M100.8,79.95
		c-0.033,0.033-0.083,0.066-0.149,0.1c-0.2,0.066-0.434,0.101-0.7,0.101s-0.5-0.034-0.7-0.101c-0.167-0.1-0.267-0.184-0.3-0.25
		v-0.05c0-0.1,0.1-0.184,0.3-0.25c0.2-0.1,0.434-0.15,0.7-0.15s0.5,0.051,0.7,0.15c0.199,0.066,0.3,0.15,0.3,0.25
		C100.95,79.816,100.9,79.884,100.8,79.95z M95.05,86.05c-0.233-0.166-0.35-0.35-0.35-0.55s0.116-0.366,0.35-0.5
		c0.2-0.167,0.467-0.25,0.8-0.25c0.334,0,0.617,0.083,0.851,0.25c0.2,0.134,0.3,0.3,0.3,0.5s-0.1,0.384-0.3,0.55
		c-0.233,0.134-0.517,0.2-0.851,0.2C95.517,86.25,95.25,86.184,95.05,86.05z M93.5,87.15c-0.033-0.101,0.2-0.084,0.7,0.05
		c0.267,0.066,0.517,0.149,0.75,0.25L93.5,87.15z M103.35,97.95l0.101-0.101l0.7-0.35c-1.5,0.134-2.634,0.15-3.4,0.05
		c-1.333-0.233-2.184-1.033-2.55-2.399c0.066-0.034,0.916-0.184,2.55-0.45c2.967,0.2,4.517,0.416,4.65,0.649
		c0.133,0.233,0.199,0.534,0.199,0.9C105.434,97.517,104.684,98.083,103.35,97.95z M111.05,74.45l-0.25-0.15
		c0.033-0.333,0.267-0.366,0.7-0.1c0.5,0.267,0.55,0.416,0.15,0.45C111.45,74.616,111.25,74.55,111.05,74.45z M118.9,89l1.449,1.75
		l0.25,0.7c-0.566,0-1.05,0.1-1.449,0.3c-0.4,0.2-0.601,0.45-0.601,0.75l-1.2,0.15L117.2,92l-0.45-2.4L118.9,89z M125.3,72.8
		l-0.899,0.7c0.6-0.434,0.899-0.35,0.899,0.25c-0.666,0-1.017,0-1.05,0c0.066-0.134-0.05-0.184-0.35-0.15l-0.051-1L125.3,72.8z
		 M127.4,71.45c-0.667,0.633-1.284,1.05-1.851,1.25c-0.5-0.066-0.934-0.117-1.3-0.15c0.167-0.033,0.366-0.083,0.6-0.149
		c0.967-0.5,1.45-0.834,1.45-1c-0.033-0.101-0.316-0.284-0.85-0.551c1.2-0.199,1.883-0.1,2.05,0.301L127.4,71.45z M124.8,90.65
		c-0.3-0.067-0.483-0.184-0.55-0.351l0.35-0.7l1.5,1C125.634,90.7,125.2,90.717,124.8,90.65z M76.8,17.5l0.5,0.2l0.55-0.35
		L76.7,16.2l0.149-1.35c0,0.2,0.517,0.35,1.551,0.45c0.5,0.034,1,0.05,1.5,0.05v1.7c-0.733,0.733-1.351,1.1-1.851,1.1
		c-0.434,0-0.733-0.066-0.899-0.2C77.116,17.95,77,17.8,76.8,17.5z M70.45,20.15l-0.351-0.2c0.634-1.333,1.051-2.1,1.25-2.3
		c0.134-0.167,0.567-0.667,1.301-1.5c0.3-0.033,0.949-0.217,1.949-0.55c0.367,1.066,0.483,2.167,0.351,3.3
		c-1.167,0.867-1.934,1.3-2.3,1.3L70.45,20.15z M72.65,17.25c-0.2,0.133-0.301,0.3-0.301,0.5s0.101,0.367,0.301,0.5
		c0.166,0.133,0.383,0.2,0.649,0.2s0.5-0.067,0.7-0.2c0.167-0.133,0.25-0.3,0.25-0.5s-0.083-0.367-0.25-0.5
		c-0.2-0.133-0.434-0.2-0.7-0.2S72.816,17.117,72.65,17.25z M58.65,35.65c0.333,0.133,0.733,0.2,1.2,0.2s0.883-0.067,1.25-0.2
		c0.333-0.167,0.5-0.35,0.5-0.55c0-0.2-0.167-0.367-0.5-0.5c-0.367-0.167-0.783-0.25-1.25-0.25s-0.867,0.083-1.2,0.25
		c-0.367,0.133-0.55,0.3-0.55,0.5C58.1,35.3,58.283,35.483,58.65,35.65z M60.25,36.55c0.167,0.267,0.483,0.5,0.95,0.7l0.7-0.1
		l0.2-0.3l-1.5-1L60.25,36.55z M42.85,48.6l1.75,0.25c-0.033,0.2-0.117,0.35-0.25,0.45c-0.533,0.133-1.2,0.15-2,0.05L42.85,48.6z
		 M44.9,48.9c0-0.3,0.117-0.533,0.35-0.7c0.133-0.067,0.25-0.117,0.35-0.15l2.5,0.05c-0.4,0.233-0.7,0.517-0.9,0.85
		c-0.1,0.2-0.267,0.3-0.5,0.3c-0.4,0-0.8-0.05-1.2-0.15L44.9,48.9z M70.65,26.85c-1.334,0.233-1.934-0.184-1.801-1.25l4.5-1.5v0.75
		c-0.3,0.433-0.6,0.717-0.899,0.85c-0.834,0.367-1.45,0.667-1.851,0.9L70.65,26.85z M68.95,40.2l-0.4-0.5
		c0.667-0.767,1.2-1.15,1.601-1.15C70.116,39.417,69.717,39.967,68.95,40.2z M14.6,46.85l-0.5,0.1c-0.233-0.1-0.317-0.25-0.25-0.45
		c0.066-0.2,0.233-0.417,0.5-0.65L14.6,46.85z M9.05,49.55L9.1,49.5l0.55-0.4l1.45,0.45l0.05,0.75h0.55
		c0.466-0.033,0.85-0.117,1.15-0.25l1,0.3c-1.633,0.267-2.833,0.267-3.6,0C9.95,50.25,9.55,49.983,9.05,49.55z M32.35,34.15
		c-0.333-0.133-0.5-0.283-0.5-0.45c0-0.167,0.167-0.3,0.5-0.4c0.3-0.133,0.683-0.2,1.15-0.2s0.867,0.066,1.2,0.2
		c0.3,0.1,0.45,0.233,0.45,0.4c0,0.167-0.15,0.316-0.45,0.45c-0.333,0.1-0.733,0.15-1.2,0.15S32.65,34.25,32.35,34.15z M35.6,33.6
		l1.5,0.25c-0.033,0.133-0.117,0.233-0.25,0.3C36.383,34.15,35.967,33.967,35.6,33.6z M39.45,36.7l0.65,0.65l-1-0.25L39.45,36.7z
		 M39.85,55.45c-0.167,0.066-0.25,0.167-0.25,0.3s0.083,0.25,0.25,0.35c0.133,0.067,0.316,0.101,0.55,0.101s0.434-0.033,0.6-0.101
		c0.133-0.1,0.2-0.216,0.2-0.35s-0.067-0.233-0.2-0.3c-0.167-0.1-0.367-0.15-0.6-0.15S39.983,55.35,39.85,55.45z M43.15,52.3
		c-0.066,0.1-0.15,0.2-0.25,0.3c-0.167,0.2-0.267,0.4-0.3,0.6c0.533,0.233,0.983,0.333,1.35,0.3c0.533-0.033,1-0.1,1.4-0.2v0.85
		H43.6l0.05,0.1c0.1,0.067,0.35,0.1,0.75,0.1s0.667-0.017,0.8-0.05c0.1-0.033,0.316-0.1,0.65-0.2l-0.35-1L43.15,52.3
		c0.033-0.033,0.067-0.05,0.1-0.05c1.067-0.5,2.35-0.8,3.85-0.9l0.25,0.9c0.167,0.667,0.25,1.2,0.25,1.6
		c0,0.566-0.883,1.333-2.65,2.3c-2.167,1.199-4.467,1.8-6.9,1.8c-1.333,0-2.25-0.184-2.75-0.55c-0.3-0.467-0.533-0.801-0.7-1
		c0.667-0.233,1.833-0.601,3.5-1.101c1.4-0.466,2.2-0.833,2.4-1.1C41.6,53.267,42.483,52.633,43.15,52.3z M41.95,50.3
		c0.133,0.133,0.2,0.317,0.2,0.55s-0.066,0.433-0.2,0.6c-0.133,0.133-0.284,0.2-0.45,0.2s-0.317-0.066-0.45-0.2
		c-0.133-0.167-0.2-0.367-0.2-0.6s0.066-0.417,0.2-0.55c0.133-0.167,0.284-0.25,0.45-0.25S41.817,50.133,41.95,50.3z M48.4,53.85
		c-0.167,0.066-0.433,0.15-0.8,0.25l1.25-2c0.1,0.267,0.083,0.683-0.05,1.25l-0.25,0.3C48.483,53.717,48.433,53.783,48.4,53.85z
		 M41.85,56.6l-2.7,0.051c0.733,0.267,1.483,0.35,2.25,0.25L41.85,56.6z"/>
	<path style="fill-rule:evenodd;clip-rule:evenodd;fill:#908E83;" d="M99.65,88.65c0-0.4,0.133-0.733,0.399-1s0.601-0.4,1-0.4
		c0.4,0,0.733,0.134,1,0.4s0.4,0.6,0.4,1c0,0.399-0.134,0.733-0.4,1s-0.6,0.399-1,0.399c-0.399,0-0.733-0.133-1-0.399
		S99.65,89.05,99.65,88.65z M101.1,94.05c0.567-0.333,1.15-1,1.75-2c0.467-0.767,1-1.149,1.601-1.149c1,0,1.7,0.133,2.1,0.399
		c0.634,0.434,0.95,1.25,0.95,2.45c0,1.467-0.434,2.75-1.3,3.85c-1.134,1.434-2.783,2.15-4.95,2.15c-1.134,0-1.95-0.184-2.45-0.55
		c-0.434-0.467-0.767-0.834-1-1.101c0.7,0.167,1.733,0.217,3.101,0.15c1.333-0.033,2.133-0.134,2.399-0.3h0.05
		c1.334,0.133,2.084-0.434,2.25-1.7c0-0.366-0.066-0.667-0.199-0.9c-0.134-0.233-1.684-0.449-4.65-0.649l-0.3-0.25l0.25-0.15
		l0.399-0.2V94.05z"/>
	
		<line style="fill-rule:evenodd;clip-rule:evenodd;fill:none;stroke:#A7A499;stroke-width:0.1;stroke-linecap:round;stroke-linejoin:round;stroke-miterlimit:3;" x1="94.45" y1="84.8" x2="94.45" y2="84.55"/>
</g>
</svg>
