<?xml version="1.0" encoding="iso-8859-1"?>
<!-- Generator: Adobe Illustrator 15.1.0, SVG Export Plug-In . SVG Version: 6.00 Build 0)  -->
<!DOCTYPE svg PUBLIC "-//W3C//DTD SVG 1.1//EN" "http://www.w3.org/Graphics/SVG/1.1/DTD/svg11.dtd">
<svg version="1.1" id="Layer_1" xmlns="http://www.w3.org/2000/svg" xmlns:xlink="http://www.w3.org/1999/xlink" x="0px" y="0px"
	 width="481.5px" height="481.45px" viewBox="0 0 481.5 481.45" style="enable-background:new 0 0 481.5 481.45;"
	 xml:space="preserve">
<radialGradient id="SVGID_1_" cx="240.75" cy="240.7251" r="240.7375" gradientTransform="matrix(1 0 0 -1 0 481.4502)" gradientUnits="userSpaceOnUse">
	<stop  offset="0" style="stop-color:#483B2D;stop-opacity:0.698"/>
	<stop  offset="0.2431" style="stop-color:#4D4030;stop-opacity:0.6314"/>
	<stop  offset="0.549" style="stop-color:#5B503B;stop-opacity:0.4353"/>
	<stop  offset="0.8902" style="stop-color:#73694C;stop-opacity:0.1176"/>
	<stop  offset="1" style="stop-color:#7C7352;stop-opacity:0"/>
</radialGradient>
<path style="fill-rule:evenodd;clip-rule:evenodd;fill:url(#SVGID_1_);" d="M462.6,147.05c12.601,29.8,18.9,61.034,18.9,93.7
	c0,32.634-6.3,63.866-18.9,93.7c-12.199,28.8-29.399,54.3-51.6,76.5c-22.233,22.2-47.75,39.399-76.55,51.6
	c-29.8,12.601-61.033,18.9-93.7,18.9c-32.667,0-63.9-6.3-93.7-18.9c-28.8-12.2-54.316-29.399-76.55-51.6
	c-22.2-22.2-39.4-47.7-51.6-76.5C6.3,304.616,0,273.384,0,240.75c0-32.633,6.3-63.867,18.9-93.7c12.2-28.8,29.4-54.316,51.6-76.55
	c22.233-22.2,47.75-39.4,76.55-51.6C176.883,6.3,208.117,0,240.75,0c32.634,0,63.866,6.3,93.7,18.9
	c28.8,12.2,54.316,29.4,76.55,51.6C433.2,92.733,450.4,118.25,462.6,147.05z"/>
</svg>
