<?xml version="1.0" encoding="iso-8859-1"?>
<!-- Generator: Adobe Illustrator 15.1.0, SVG Export Plug-In . SVG Version: 6.00 Build 0)  -->
<!DOCTYPE svg PUBLIC "-//W3C//DTD SVG 1.1//EN" "http://www.w3.org/Graphics/SVG/1.1/DTD/svg11.dtd">
<svg version="1.1" id="Layer_1" xmlns="http://www.w3.org/2000/svg" xmlns:xlink="http://www.w3.org/1999/xlink" x="0px" y="0px"
	 width="124.2px" height="39.3px" viewBox="0 0 124.2 39.3" style="enable-background:new 0 0 124.2 39.3;" xml:space="preserve">
<g>
	<path style="fill-rule:evenodd;clip-rule:evenodd;fill:#414428;" d="M118.9,24.75c-0.101-0.033-0.217-0.083-0.351-0.15
		c-0.2-0.1-0.399-0.183-0.6-0.25c0.366-0.1,1.066-0.333,2.1-0.699L119.9,23.9c1.767-0.2,2.683-0.301,2.75-0.301
		c0.3,0,0.466,0.017,0.5,0.051c0.133,0.066,0.199,0.366,0.199,0.899c-0.033,0.834,0.051,2.033,0.25,3.601
		c-0.8-1.233-1.233-1.95-1.3-2.15c-0.1-0.467-0.2-0.85-0.3-1.15c-0.2-0.566-0.4-0.899-0.6-1c-0.267-0.1-0.801,0.051-1.601,0.45
		C119.467,24.467,119.167,24.616,118.9,24.75z M118.95,29.05c-0.334,0.066-0.783,0.233-1.351,0.5c-0.6,0.3-0.966,0.467-1.1,0.5
		c-0.634,0.134-1.417,0.184-2.35,0.15c-1-0.066-1.784-0.101-2.351-0.101c-0.133,1.367-1.283,1.884-3.45,1.551l-0.05-0.801
		c-0.166,0.634-0.5,1.134-1,1.5c-0.533,0.367-1.133,0.517-1.8,0.45c-0.1,1-0.283,1.767-0.55,2.3c-0.334,0.7-0.917,1.15-1.75,1.351
		c-1.134,0.3-1.816-0.017-2.05-0.95c-0.034-0.066-0.051-0.15-0.051-0.25c-0.033-0.467-0.017-1.35,0.051-2.65l0.199-0.149l0.2-0.2
		l0.351-0.5c0.033,0.1,0.05,0.384,0.05,0.85c0,0.5,0.233,0.75,0.7,0.75c0.366,0,0.8-0.316,1.3-0.949c0.5-0.601,0.783-1.101,0.85-1.5
		c0.233,0.466,0.65,0.55,1.25,0.25c0.4-0.2,0.816-0.534,1.25-1c0.767,0.433,1.483,0.517,2.15,0.25c0.1-0.434,0.133-0.733,0.1-0.9
		c0.267-0.134,0.667-0.167,1.2-0.1c0.566,0.033,0.983,0,1.25-0.101c0-0.333,0-0.6,0-0.8c0.033-0.333,0.134-0.566,0.3-0.7
		c1.334,0.134,2.101,0.184,2.3,0.15h0.101c-0.033-0.033-0.05-0.066-0.05-0.101c-0.034-0.199,0.1-0.5,0.399-0.899
		c0.367-0.467,0.584-0.767,0.65-0.9c0.033-0.033,0.066-0.083,0.1-0.149c0.434,0.166,0.816,0.316,1.15,0.449
		c-0.033,0-0.05,0.017-0.05,0.051c-0.034,0.033-0.067,0.066-0.101,0.1c-0.233,0.3-0.383,0.616-0.45,0.95
		c0.834-0.233,1.384-0.3,1.65-0.2C118.366,27.417,118.684,28.017,118.95,29.05z M99.8,34.85L99.65,34.95
		c-0.101,0.066-0.2,0.116-0.301,0.149l-1.1,0.25c-1.033,0.134-1.4-0.5-1.1-1.899c-1.034,1.3-2.384,1.666-4.051,1.1
		c-2.433-0.8-3.85-1.184-4.25-1.149l-0.05-0.45c-0.233,1.033-0.75,1.733-1.55,2.1c-0.434-0.1-0.717-0.35-0.85-0.75
		c-0.2,0.267-0.517,1.3-0.95,3.101c-0.233,0.899-1.084,1.233-2.55,1c-0.101,0-0.184-0.017-0.25-0.051L82,38
		c-0.134-0.134-0.283-0.267-0.45-0.4c0.634,0.167,1.283,0.184,1.95,0.051c0.134-0.367,0.15-0.851,0.05-1.45
		c0.8-0.101,1.316-0.417,1.55-0.95c0.067-0.134,0.084-0.384,0.051-0.75c-0.034-0.333-0.051-0.583-0.051-0.75
		c0.034,0.434,0.301,0.616,0.801,0.55c0.466-0.033,0.767-0.283,0.899-0.75c0.066-0.133,0.117-0.55,0.15-1.25
		c0.6,0.467,1.149,0.566,1.649,0.3c0.467-0.267,0.75-0.75,0.851-1.449c0.033,0.533,0.383,0.85,1.05,0.949
		c0.366,0.101,0.833,0.117,1.4,0.051c0.633-0.067,1.066-0.084,1.3-0.051c-0.033,0.2-0.033,0.367,0,0.5
		c0.066,0.334,0.533,0.434,1.399,0.301L94.9,32.85c0.399-0.066,0.683-0.166,0.85-0.3c0.167-0.133,0.384-0.399,0.65-0.8
		c-0.034,0.8,0.333,1.083,1.1,0.85l0.2-0.1l1-0.45c-0.101,0.7,0.116,1.084,0.649,1.15c0.467,0.066,1-0.101,1.601-0.5
		c-0.267,0.899-0.55,1.517-0.851,1.85C100,34.65,99.9,34.75,99.8,34.85z M66.25,33.8c0-0.066,0-0.116,0-0.149h0.05
		c0.167,0.033,0.434,0.033,0.8,0h1.45c-0.066,0.199-0.133,0.366-0.2,0.5c-0.033,0.066-0.083,0.133-0.149,0.199L67.9,34
		C67.6,33.7,67.05,33.634,66.25,33.8z M44.25,34.4c-0.233,0.233-0.5,0.449-0.8,0.649c-0.067,0.066-0.133,0.134-0.2,0.2
		c-0.8,0.467-1.6,0.583-2.4,0.35c-0.567,0.2-1.1,0.334-1.6,0.4c-0.8,0.066-1.45,0.116-1.95,0.15c-0.966,0.1-1.55,0.216-1.75,0.35
		c-0.066,0.033-0.517,0.733-1.35,2.1c-0.5,0.801-1.3,0.917-2.4,0.351c0.067-0.733,0.25-1.3,0.55-1.7L32.1,37.4
		c-0.567,0.333-1.233,0.5-2,0.5l0.05-0.15l0.1-1.3c0.067-0.233,0.067-0.483,0-0.75c0-0.233-0.067-0.517-0.2-0.851L30.4,35h0.05
		l1.4,0.4c0.6,0.199,1.217,0.3,1.85,0.3c0-0.767,0.033-1.334,0.1-1.7v-0.05L33.85,34c1.4,0.533,2.633,0.75,3.7,0.65
		c0.5-0.034,0.8-0.051,0.9-0.051c0.1,0,0.233,0.067,0.4,0.2c0.133,0.101,0.267,0.15,0.4,0.15c0.433,0.033,0.717-0.101,0.85-0.4
		c0.2-0.399,0.383-0.633,0.55-0.7c0.067-0.033,0.583-0.066,1.55-0.1c0.667-0.033,0.966-0.333,0.9-0.9l0.1,0.551
		c0.5-0.634,1.066-1.117,1.7-1.45c0.667-0.4,1.167-0.483,1.5-0.25l1.1-1.4l-0.15,2c-0.233,1.566-0.75,2.634-1.55,3.2
		c-0.133,0.134-0.417,0.233-0.85,0.3c-0.367-0.733-0.417-1.566-0.15-2.5c-0.033,0.101-0.066,0.2-0.1,0.3
		C44.567,33.9,44.417,34.167,44.25,34.4z M23.65,33.85l-0.45-0.1c-0.034,0.9-0.4,1.45-1.1,1.65c-0.7,0.199-1.333-0.067-1.9-0.801
		c-0.367,1.601-1.117,2.233-2.25,1.9c-1.1-0.333-1.534-1.316-1.3-2.95C16.15,33.816,15.6,33.9,15,33.8
		c-0.667-0.1-1.217-0.416-1.65-0.95c-0.167,0.301-0.55,0.45-1.15,0.45l-2.7-0.5c-0.4-0.1-0.833-0.233-1.3-0.399L8.65,32.1L9.1,31.65
		c0.033-0.034,0.233-0.034,0.6,0c0.1,0,0.466,0.033,1.1,0.1c0.4,0.066,0.767,0.033,1.1-0.1c0.1-0.034,0.184-0.134,0.25-0.301
		c0.033-0.166,0.117-0.267,0.25-0.3c0.2,0,0.533,0.066,1,0.2h0.15c0.333,0,0.784-0.134,1.35-0.4c0.133,0.233,0.367,0.5,0.7,0.801
		c0.733,0.733,1.45,1.283,2.15,1.649l0.35-0.75c0.167-0.066,0.316-0.05,0.45,0.05l0.75-0.1c-0.066,0.566-0.133,0.967-0.2,1.2
		c0.2-0.101,0.333-0.334,0.4-0.7c0.067-0.267,0.117-0.467,0.15-0.6c0.133,0.133,0.267,0.216,0.4,0.25
		c0.333,0.133,0.7,0.199,1.1,0.199c0.2,0.101,0.434,0.217,0.7,0.351c1.066,0.399,1.55,0.25,1.45-0.45L23.65,33.85z M2.9,30.6
		c-0.133,0.067-0.233,0.184-0.3,0.351c-0.1,0.166-0.2,0.483-0.3,0.95c-0.167,0.767-0.25,2.25-0.25,4.449
		c-0.066-0.3-0.1-0.733-0.1-1.3c0-0.133-0.083-0.934-0.25-2.399c-0.034-0.267,0-1.367,0.1-3.301c0.067-1,0.567-1.316,1.5-0.949
		c0.333,0.1,0.867,0.35,1.6,0.75l0.95,0.699c0.433,0.334,0.717,0.467,0.85,0.4l2.1,0.8c-0.466,0.434-1.35,0.434-2.65,0
		c-1.033-0.333-1.8-0.533-2.3-0.6c-0.033,0-0.067-0.017-0.1-0.05c-0.2-0.034-0.35-0.034-0.45,0C3.133,30.434,3,30.5,2.9,30.6z
		 M68.4,31.8c0.233-0.233,0.316-0.6,0.25-1.1c0.066,0.033,0.116,0.083,0.149,0.149c0.033,0.301,0.017,0.5-0.05,0.601
		C68.684,31.616,68.566,31.733,68.4,31.8z"/>
	<path style="fill-rule:evenodd;clip-rule:evenodd;fill:#4E512F;" d="M119.25,24.95c-0.1-0.066-0.217-0.134-0.35-0.2
		c0.267-0.134,0.566-0.283,0.899-0.45c0.8-0.399,1.334-0.55,1.601-0.45c0.199,0.101,0.399,0.434,0.6,1c0.1,0.301,0.2,0.684,0.3,1.15
		c0.066,0.2,0.5,0.917,1.3,2.15c-0.199-1.567-0.283-2.767-0.25-3.601c0-0.533-0.066-0.833-0.199-0.899
		c-0.034-0.034-0.2-0.051-0.5-0.051c-0.067,0-0.983,0.101-2.75,0.301l0.149-0.25c-1.033,0.366-1.733,0.6-2.1,0.699
		c-0.434-0.166-0.783-0.3-1.05-0.399c0.166-0.167,0.35-0.367,0.55-0.601c0.566-0.6,1-0.983,1.3-1.149c0.267-0.134,0.65-0.2,1.15-0.2
		c0.267,0,0.767-0.05,1.5-0.15c0.666-0.033,1.116-0.017,1.35,0.051c0.167,0.1,0.35,0.5,0.55,1.199c0.434,1.534,0.7,3.034,0.8,4.5
		c0.301,2.733,0.034,4.601-0.8,5.601c0.033-0.367-0.017-0.816-0.149-1.351c-0.167-0.699-0.267-1.149-0.301-1.35l-0.35-2.9
		c-0.267-1.899-0.566-2.933-0.9-3.1c-0.133-0.1-0.783,0.017-1.949,0.35C119.517,24.884,119.384,24.917,119.25,24.95z M117.6,26.5
		c0.034,0,0.067,0,0.101,0c0.467,0.033,0.866,0.05,1.2,0.05c0.333,0.367,0.55,0.684,0.649,0.95c0.101,0.4,0,0.9-0.3,1.5l-0.3,0.05
		c-0.267-1.033-0.584-1.633-0.95-1.8c-0.267-0.1-0.816-0.033-1.65,0.2c0.067-0.334,0.217-0.65,0.45-0.95H117.6z M66.25,33.65
		c0,0.033,0,0.083,0,0.149c-0.134,0-0.25,0.017-0.35,0.05c-0.634,0.101-1.217,0.45-1.75,1.051L64.1,34.95
		c-0.233-0.167-0.383-0.4-0.449-0.7c-0.101,1.833-0.851,3.017-2.25,3.55c-1.6,0.566-2.367,0.101-2.3-1.399
		c-0.333,0.866-1,1.483-2,1.85s-1.95,0.35-2.85-0.05c-0.133-0.8,0.05-1.717,0.55-2.75c0.633-1.101,1.05-1.95,1.25-2.55
		c-1.667,1.199-2.733,1.916-3.2,2.149c-1.434,0.601-2.267,0.184-2.5-1.25c0.033,0.4,0,0.783-0.1,1.15l-0.3,0.55
		c-0.034,0.033-0.067,0.083-0.1,0.15l-0.2,0.199c-0.2,0.167-0.417,0.334-0.65,0.5c-0.133,0.067-0.25,0.134-0.35,0.2
		c-0.733,0.334-1.45,0.434-2.15,0.3c-0.167-0.033-0.317-0.083-0.45-0.149c-0.5-0.233-0.867-0.533-1.1-0.9
		c0.433-0.066,0.716-0.166,0.85-0.3c0.8-0.566,1.317-1.634,1.55-3.2l0.15-2l-1.1,1.4c-0.333-0.233-0.833-0.15-1.5,0.25
		c-0.633,0.333-1.2,0.816-1.7,1.45l-0.1-0.551c0.066,0.567-0.233,0.867-0.9,0.9c-0.967,0.033-1.483,0.066-1.55,0.1
		c-0.167,0.067-0.35,0.301-0.55,0.7c-0.133,0.3-0.417,0.434-0.85,0.4c-0.133,0-0.267-0.05-0.4-0.15c-0.167-0.133-0.3-0.2-0.4-0.2
		c-0.1,0-0.4,0.017-0.9,0.051c-1.066,0.1-2.3-0.117-3.7-0.65c0.5,0.1,0.983,0.15,1.45,0.15c0.067-0.434,0.1-0.75,0.1-0.95
		c0.067,0.333,0.283,0.633,0.65,0.899c0.467,0.367,0.917,0.5,1.35,0.4c0.434-0.134,0.667-0.434,0.7-0.9c0-0.6,0.033-1.05,0.1-1.35
		c0.3,0.3,0.716,0.55,1.25,0.75c0.566,0.2,1.066,0.283,1.5,0.25c0.6-0.033,1.017-0.233,1.25-0.6c0.133-0.267,0.25-0.784,0.35-1.551
		c0.233,0,0.733,0.034,1.5,0.101l0.05-0.05c0.233-0.167,0.35-0.384,0.35-0.65c-0.034-0.3-0.034-0.533,0-0.7l0.05-0.05l0.05-0.15
		l0.05-0.05l0.05-0.05c0.2-0.3,0.434-0.483,0.7-0.55L45,28.6c-0.367-0.433-0.6-0.767-0.7-1l1.15-0.05
		c0.4-0.066,0.65-0.217,0.75-0.45c0.133-0.267,0.183-0.783,0.15-1.55l1,0.351c0.033,0.5,0.033,1.25,0,2.25
		c0.1,0,0.283,0.033,0.55,0.1c0.233,0.066,0.417,0.083,0.55,0.05c-0.833,0.334-1.233,0.934-1.2,1.8c0.5,0.233,1.067,0.267,1.7,0.101
		c-0.233,0.434-0.383,0.866-0.45,1.3c-0.133,0.634-0.033,1.033,0.3,1.2c0.333,0.2,0.617,0.2,0.85,0c0.2-0.134,0.367-0.384,0.5-0.75
		c0.033,0.533,0.4,0.866,1.1,1c0.267,0.033,0.9,0.05,1.9,0.05c0.1-0.5,0.117-0.866,0.05-1.1c0.4,0.199,0.833,0.25,1.3,0.149
		l0.05-0.3l0.05,0.65c0.633,0.267,1.167,0.116,1.6-0.45c0.033,0.2,0,0.6-0.1,1.2c0,0.5,0.117,0.833,0.35,1
		c0.5,0.333,0.917,0.283,1.25-0.15c0.3-0.6,0.5-1.017,0.6-1.25c0.267,0.4,0.7,0.733,1.3,1c0.667,0.3,1.183,0.3,1.55,0
		c0.167-0.134,0.317-0.417,0.45-0.85c0.167-0.601,0.25-0.917,0.25-0.95c0.833,0.366,1.633,0.483,2.4,0.35
		c0.9-0.166,1.283-0.7,1.15-1.6c0.566,0.267,1.083,0.333,1.55,0.2c0.166-0.834,0.217-1.9,0.149-3.2c0.101,0.2,0.284,0.35,0.551,0.45
		c0.333,0.199,0.716,0.3,1.149,0.3c0.467,0,0.8-0.15,1-0.45c0.3-0.4,0.3-1.283,0-2.65c0.2,0.2,0.467,0.2,0.8,0
		c0.334-0.199,0.567-0.533,0.7-1c0.167-0.633,0.167-1.35,0-2.149c-0.1-0.367-0.283-0.884-0.55-1.55
		c0.033-0.034,0.066-0.051,0.1-0.051c0.067-0.033,0.117-0.233,0.15-0.6c0.033-0.167,0.066-0.317,0.1-0.45
		c1.134,1.334,1.75,2.934,1.851,4.8v0.2c0.366-0.133,0.717-0.184,1.05-0.149c-0.033,0.233-0.1,0.566-0.2,1
		c-0.6,0.3-0.967,0.649-1.1,1.05c-0.101,0.3-0.15,0.566-0.15,0.8c-0.033,0.134-0.267,0.217-0.7,0.25
		c-0.433-0.1-0.899-0.033-1.399,0.2l-0.7,0.649c-0.2,0.334-0.267,0.717-0.2,1.15c-0.133,0.2-0.366,0.417-0.7,0.65
		c-0.1,0.133-0.116,0.35-0.05,0.649v0.05c-0.033-0.066-0.083-0.116-0.149-0.149c0.066,0.5-0.017,0.866-0.25,1.1
		c-0.134,0.033-0.284,0.05-0.45,0.05c-0.667,0.034-1.033,0.067-1.101,0.101c-0.8,0.2-1.133,0.583-1,1.149
		C65.917,33.4,66.05,33.583,66.25,33.65z M28.35,37.55l-0.1-0.05c-0.1-0.066-0.183-0.116-0.25-0.15
		c-0.1-0.066-0.183-0.116-0.25-0.149c-0.033-0.033-0.067-0.05-0.1-0.05l-0.1-0.101c-0.066-0.066-0.133-0.116-0.2-0.149
		c-0.1-0.101-0.184-0.217-0.25-0.351c-0.333-0.533-0.3-1.066,0.1-1.6c0.433,0,0.783-0.134,1.05-0.4c0.167,0.8,0.833,1.2,2,1.2V35.7
		c0.067,0.267,0.067,0.517,0,0.75l-0.1,1.3L30.1,37.9c-0.367,0-0.817-0.067-1.35-0.2C28.583,37.634,28.45,37.583,28.35,37.55z
		 M23.7,33.9l-0.05-0.051l-0.35-1.1c0.1,0.7-0.383,0.85-1.45,0.45c-0.267-0.134-0.5-0.25-0.7-0.351c0.533,0,1.133-0.116,1.8-0.35
		c0.367-0.134,0.65-0.267,0.85-0.4c0.034,0.101,0.1,0.2,0.2,0.301c0.233,0.267,0.683,0.466,1.35,0.6
		c-0.033,0.3,0.033,0.616,0.2,0.95c-0.1,0-0.2,0.017-0.3,0.05c-0.5,0-0.95-0.033-1.35-0.1C23.833,33.9,23.767,33.9,23.7,33.9z
		 M3.85,30.45c0.5,0.066,1.267,0.267,2.3,0.6c1.3,0.434,2.184,0.434,2.65,0l-2.1-0.8c-0.133,0.066-0.417-0.066-0.85-0.4L4.9,29.15
		c-0.733-0.4-1.267-0.65-1.6-0.75c-0.933-0.367-1.433-0.051-1.5,0.949c-0.1,1.934-0.133,3.034-0.1,3.301
		c0.167,1.466,0.25,2.267,0.25,2.399c0,0.566,0.033,1,0.1,1.3c0-2.199,0.083-3.683,0.25-4.449c0.1-0.467,0.2-0.784,0.3-0.95
		c0.066-0.167,0.167-0.283,0.3-0.351c-0.033,0.233-0.083,0.684-0.15,1.351C2.65,32.616,2.6,33.634,2.6,35
		c-0.067,1.3-0.05,2.3,0.05,3c0.067,0.667,0.1,1.05,0.1,1.15c-1.5-3.267-2.35-5.733-2.55-7.4c-0.3-2.267-0.267-4.3,0.1-6.1
		c0.567,0,1.5,0.183,2.8,0.55c0.4,0.066,0.667,0.149,0.8,0.25c0.133,0.1,0.35,0.3,0.65,0.6c0.467,0.533,0.9,0.967,1.3,1.3
		c0.4,0.334,0.767,0.551,1.1,0.65l1.15,1.55c0.066-0.133,0.133-0.3,0.2-0.5c0.567,0.667,1.217,1.084,1.95,1.25
		c0.767,0.167,1.283-0.066,1.55-0.7l0.1-0.35c0.033,0.033,0.317,0.217,0.85,0.55l0.65,0.45c-0.467-0.134-0.8-0.2-1-0.2
		c-0.133,0.033-0.217,0.134-0.25,0.3c-0.066,0.167-0.15,0.267-0.25,0.301c-0.333,0.133-0.7,0.166-1.1,0.1
		c-0.633-0.066-1-0.1-1.1-0.1c-0.367-0.034-0.567-0.034-0.6,0L8.65,32.1L8.2,32.4C7.9,32.3,7.617,32.2,7.35,32.1l-2.6-1.149
		C4.417,30.783,4.117,30.616,3.85,30.45z M112,20.5c-0.167-0.066-0.316-0.134-0.45-0.2c-0.133-0.267-0.233-0.483-0.3-0.65
		c-0.1-0.233-0.134-0.367-0.1-0.4c0.033-0.067,0.199-0.133,0.5-0.2c-0.834-0.4-2.084-0.5-3.75-0.3
		c-0.567,0.067-1.067,0.117-1.5,0.15c-0.567-0.066-1.017-0.133-1.351-0.2c-0.3-0.034-0.566-0.05-0.8-0.05
		c0.066-0.033,0.167-0.066,0.3-0.1c0.233-0.066,0.617-0.2,1.15-0.4c0.467-0.167,0.85-0.25,1.149-0.25l-0.55,0.7
		c2.3-0.4,4.05-0.283,5.25,0.35c0.267,0.133,0.417,0.233,0.45,0.3c0.033,0.1,0.033,0.317,0,0.65V20.5z M104.15,13.75
		c-0.367,1.067-1.034,2.117-2,3.15c-0.2,0.233-0.4,0.45-0.601,0.65c0-0.233-0.05-0.466-0.149-0.7l2.75-3.2
		C104.15,13.683,104.15,13.717,104.15,13.75z M101.05,12.7c-0.066-0.167-0.149-0.333-0.25-0.5c0.101-0.434,0.15-0.717,0.15-0.85
		c0.066-0.867-0.101-1.434-0.5-1.7c-0.367-0.2-0.834-0.316-1.4-0.35c-0.1-0.2-0.184-0.367-0.25-0.5s-0.133-0.25-0.2-0.35
		c0.167-0.034,0.351-0.067,0.551-0.1c0.866-0.133,1.517,0,1.949,0.4c0.4,0.367,0.534,1.05,0.4,2.05
		C101.366,11.6,101.217,12.233,101.05,12.7z M75.25,16.4c0.033,0.2,0.083,0.317,0.15,0.35c0.466,0.333,0.85,0.2,1.149-0.4
		c0.167-0.333,0.283-0.684,0.351-1.05c0.267,0,0.517-0.133,0.75-0.4c0.133-0.167,0.183-0.533,0.149-1.1
		c-0.033-0.633-0.05-1.033-0.05-1.2l1.7-0.75l0.149,0.5c0.067-0.067,0.134-0.133,0.2-0.2C79.833,12.117,79.9,12.067,80,12l0.15-0.1
		c0,0.5,0,1.283,0,2.35c0,0.167,0,0.317,0,0.45c-0.034,0.066-0.051,0.117-0.051,0.15c0,0.167-0.017,0.417-0.05,0.75v0.25
		c-0.066,0.267-0.217,0.65-0.45,1.15c-0.1,0.233-0.183,0.467-0.25,0.7c-0.1,0.133-0.233,0.267-0.399,0.4c-0.566,0.5-1,0.367-1.3-0.4
		c-0.101,0.167-0.217,0.55-0.351,1.15c-0.1,0.467-0.283,0.8-0.55,1c-0.2,0.167-0.583,0.233-1.15,0.2
		c-0.533,0-0.916-0.083-1.149-0.25c-0.4-0.3-0.634-0.933-0.7-1.9c0-0.6,0.083-1.4,0.25-2.4C74.533,16.533,74.95,16.833,75.25,16.4z
		 M94.1,22.35c0.034-0.166,0.067-0.316,0.101-0.449c0.233-0.601,0.583-0.967,1.05-1.101c0.066-0.033,0.15-0.05,0.25-0.05
		c-0.167,0.233-0.267,0.533-0.3,0.9C95.033,21.85,94.667,22.083,94.1,22.35z M91.9,32.15c-0.567,0.066-1.034,0.05-1.4-0.051
		c-0.667-0.1-1.017-0.416-1.05-0.949C89.35,31.85,89.066,32.333,88.6,32.6c-0.5,0.267-1.05,0.167-1.649-0.3
		c-0.033,0.7-0.084,1.117-0.15,1.25c-0.133,0.467-0.434,0.717-0.899,0.75c-0.5,0.066-0.767-0.116-0.801-0.55
		c0,0.167,0.017,0.417,0.051,0.75c0.033,0.366,0.017,0.616-0.051,0.75c-0.233,0.533-0.75,0.85-1.55,0.95
		c-0.033-0.066-0.05-0.134-0.05-0.2c-0.2-0.934-0.3-1.5-0.3-1.7c-0.033-0.533,0.066-1,0.3-1.399c0.3-0.467,0.533-0.884,0.7-1.25
		c0.133-0.233,0.233-0.517,0.3-0.851c0.1,0.167,0.25,0.3,0.45,0.4c0.399,0.233,0.8,0.267,1.2,0.1c0.433-0.2,0.666-0.533,0.699-1
		c0.067-0.7,0.134-1.133,0.2-1.3l0.601,0.35c0.633,0.4,1.25,0.517,1.85,0.351c0-0.467,0-0.816,0-1.05c0.033-0.467,0.2-0.767,0.5-0.9
		c0.2-0.1,0.483-0.083,0.85,0.05c0.034,0.467,0.117,0.851,0.25,1.15c0.301,0.767,0.884,1.283,1.75,1.55
		c-0.5,0.033-0.85,0.167-1.05,0.4L91.7,31.3l0.1-0.05C91.7,31.65,91.733,31.95,91.9,32.15z M101.95,32.6
		c0.333,0.134,0.649-0.017,0.95-0.449c0.233-0.367,0.416-0.817,0.55-1.351l0.1-0.35L104,30.5c0.934,0.066,1.65,0.033,2.15-0.1
		c0.066-0.434,0.1-1.067,0.1-1.9c0.033,0.6,0.45,0.934,1.25,1c0.667,0.066,1.333-0.017,2-0.25c0.134-0.5,0.15-0.884,0.05-1.15
		c0.4,0.334,0.917,0.467,1.55,0.4c0.7-0.066,1.101-0.384,1.2-0.95c0.066-0.333-0.267-0.833-1-1.5c0.434,0.167,0.867,0.2,1.3,0.101
		c0.167-0.467,0.167-0.851,0-1.15c0.7-0.033,1.551,0.184,2.551,0.65c0.233,0.1,0.449,0.183,0.649,0.25
		c-0.033,0.066-0.066,0.116-0.1,0.149c-0.066,0.134-0.283,0.434-0.65,0.9c-0.3,0.399-0.434,0.7-0.399,0.899
		c0,0.034,0.017,0.067,0.05,0.101H114.6c-0.199,0.033-0.966-0.017-2.3-0.15c-0.166,0.134-0.267,0.367-0.3,0.7c0,0.2,0,0.467,0,0.8
		c-0.267,0.101-0.684,0.134-1.25,0.101c-0.533-0.067-0.934-0.034-1.2,0.1c0.033,0.167,0,0.467-0.1,0.9
		c-0.667,0.267-1.384,0.183-2.15-0.25c-0.434,0.466-0.85,0.8-1.25,1c-0.6,0.3-1.017,0.216-1.25-0.25
		c-0.066,0.399-0.35,0.899-0.85,1.5c-0.5,0.633-0.934,0.949-1.3,0.949C102.184,33.35,101.95,33.1,101.95,32.6z M116.95,26.35H117
		c-0.034,0.001-0.067,0.019-0.1,0.051C116.9,26.366,116.917,26.35,116.95,26.35z M94.9,32.85L94.6,32.9
		c-0.866,0.133-1.333,0.033-1.399-0.301c0.7-0.1,1.25-0.383,1.649-0.85C94.65,32.217,94.667,32.583,94.9,32.85z M101.35,32.45
		l0.101-0.3l0.1,0.1L101.35,32.45z M52.7,26.35l0.05-0.05v0.05c-0.233,1.301-0.367,1.983-0.4,2.051c-0.2,0.767-0.533,1.35-1,1.75
		c-0.833,0.767-1.417,0.866-1.75,0.3c-0.233-0.467,0-1.084,0.7-1.851c0.667-0.767,1.25-1.1,1.75-1L52.7,26.35z M79.6,12.35
		c-0.199,0.133-0.383,0.233-0.55,0.3c-0.2,0.067-0.467,0.15-0.8,0.25c0.5,0.067,1,0.067,1.5,0L79.6,12.35z M76.4,18.85L76.05,18.5
		c-0.434-0.1-0.566,0.183-0.399,0.85C75.75,19.95,76,19.783,76.4,18.85z M27.1,31c0.066,0,0.133,0,0.2,0
		c0.133,0.066,0.217,0.1,0.25,0.1c0,0.034-0.017,0.134-0.05,0.301c0,0.233-0.05,0.433-0.15,0.6c-0.267,0.333-0.833,0.5-1.7,0.5
		c-0.633,0-1.066-0.184-1.3-0.55c-0.167-0.267-0.283-0.75-0.35-1.45c-0.2-0.1-0.35-0.1-0.45,0c-0.267-0.2-0.65-0.4-1.15-0.6
		c-0.133-0.067-0.267-0.117-0.4-0.15c-0.067-0.167-0.1-0.267-0.1-0.3c0.133-0.101,0.317-0.134,0.55-0.101
		c0.133,0,0.333,0.017,0.6,0.051c-0.066-0.334-0.566-0.834-1.5-1.5c-0.566-0.534-1.1-0.851-1.6-0.95c0.966,0.166,1.966,0.566,3,1.2
		c0.133,0.1,0.25,0.183,0.35,0.25c-0.233,0.199-0.316,0.5-0.25,0.899c0.067,0.467,0.45,0.783,1.15,0.95
		c0.333,0.066,0.617,0.083,0.85,0.05c0.333,0.3,0.733,0.5,1.2,0.601C26.383,30.934,26.667,30.967,27.1,31z M59.7,29.4
		c0,0.199,0,0.666,0,1.399c-0.067,0.667-0.333,0.983-0.8,0.95c-0.267-0.033-0.467-0.35-0.6-0.95c-0.133-0.633-0.233-1.017-0.3-1.149
		L59.7,29.4z M54.55,31.35c-0.066-1.233,0.317-2.3,1.15-3.199l1,0.1c0.066,0.833-0.05,1.65-0.35,2.45
		c-0.434,1.033-1.017,1.383-1.75,1.05v-0.2L54.55,31.35z M48.75,26.6c-0.067-0.366,0.05-0.699,0.35-1c0.267-0.267,0.6-0.433,1-0.5
		l1,0.75c-0.4,0.4-0.75,0.667-1.05,0.801C49.65,26.816,49.217,26.8,48.75,26.6z M66.15,27.8c0.066,0.5-0.051,0.867-0.351,1.101
		c-0.333,0.267-0.783,0.233-1.35-0.101c-0.566-0.3-0.9-0.616-1-0.95l2.399-1.25C65.917,26.833,66.017,27.233,66.15,27.8z M20.2,22.7
		l0.6,0.35c0.367,0.233,0.784,0.617,1.25,1.15c0.067,0.1,0.15,0.217,0.25,0.35c-0.167-0.133-0.316-0.267-0.45-0.399
		c-0.367-0.301-0.684-0.567-0.95-0.801c-0.2-0.166-0.367-0.316-0.5-0.449c-0.2-0.167-0.367-0.301-0.5-0.4L20.2,22.7z M19.65,32.4
		c-0.033,0.133-0.083,0.333-0.15,0.6c-0.067,0.366-0.2,0.6-0.4,0.7c0.066-0.233,0.133-0.634,0.2-1.2l-0.75,0.1
		c-0.133-0.1-0.283-0.116-0.45-0.05l-0.35,0.75c-0.7-0.366-1.417-0.916-2.15-1.649l0.2-0.301c0.267,0.267,0.467,0.384,0.6,0.351
		c0.033,0,0.1-0.017,0.2-0.05c0.633,0.433,1.233,0.633,1.8,0.6c0.1-0.4,0.233-0.8,0.4-1.2c0.067,0.134,0.15,0.283,0.25,0.45
		C19.25,31.9,19.45,32.2,19.65,32.4z M33.8,34c-0.066,0.366-0.1,0.934-0.1,1.7c-0.633,0-1.25-0.101-1.85-0.3
		c0.066-0.167,0.15-0.834,0.25-2C32.567,33.634,33.133,33.833,33.8,34z M26.45,27.55c-0.167,0.101-0.367,0.2-0.6,0.3
		c-0.233,0.101-0.434,0.2-0.6,0.301L25.2,28c-0.767,0-1.267,0.05-1.5,0.15c0.033-0.101,0.05-0.217,0.05-0.351
		c0.067,0,0.233,0.033,0.5,0.101c0.2,0.033,0.35,0.017,0.45-0.051c-0.1-0.166-0.65-0.933-1.65-2.3c-0.233-0.3-0.433-0.583-0.6-0.85
		c0.066,0.033,0.117,0.066,0.15,0.1c0.3,0.334,0.683,0.867,1.15,1.601c0.167,0.166,0.417,0.383,0.75,0.649L25.1,27l1.8-0.15
		C26.833,27.116,26.683,27.35,26.45,27.55z"/>
	<path style="fill-rule:evenodd;clip-rule:evenodd;fill:#585D3B;" d="M104.35,29.45c0.334-0.267,0.667-0.566,1-0.9
		c0.134-0.267,0.217-0.5,0.25-0.7c0.801-0.1,1.367-0.199,1.7-0.3c0.066-0.666-0.267-1.116-1-1.35c-0.166-0.033-0.333-0.05-0.5-0.05
		c0.467-0.134,0.95-0.184,1.45-0.15c0.134,0,0.55,0.05,1.25,0.15c0.533,0.066,0.95,0.066,1.25,0c0.3-0.067,0.75-0.284,1.35-0.65
		c0.567-0.3,1.051-0.467,1.45-0.5h0.05c0.167,0.3,0.167,0.684,0,1.15c-0.433,0.1-0.866,0.066-1.3-0.101
		c0.733,0.667,1.066,1.167,1,1.5c-0.1,0.566-0.5,0.884-1.2,0.95c-0.633,0.066-1.149-0.066-1.55-0.4
		c0.101,0.267,0.084,0.65-0.05,1.15c-0.667,0.233-1.333,0.316-2,0.25c-0.8-0.066-1.217-0.4-1.25-1c0,0.833-0.033,1.467-0.1,1.9
		c-0.5,0.133-1.217,0.166-2.15,0.1l0.25-0.4C104.35,29.866,104.384,29.65,104.35,29.45z M101.95,30.8H102
		c0.566,0.134,1.05,0.134,1.45,0c-0.134,0.533-0.316,0.983-0.55,1.351c-0.301,0.433-0.617,0.583-0.95,0.449
		c0-0.466-0.017-0.75-0.05-0.85l-0.351,0.5l-0.1-0.1l-0.101,0.3L101.15,32.6l0.05-0.55l-0.25,0.65
		c-0.601,0.399-1.134,0.566-1.601,0.5c-0.533-0.066-0.75-0.45-0.649-1.15l-1,0.45l0.05-0.35L97.5,32.6
		c-0.767,0.233-1.134-0.05-1.1-0.85c-0.267,0.4-0.483,0.667-0.65,0.8c-0.167,0.134-0.45,0.233-0.85,0.3
		c-0.233-0.267-0.25-0.633-0.051-1.1C94.45,32.217,93.9,32.5,93.2,32.6c-0.033-0.133-0.033-0.3,0-0.5
		c-0.233-0.033-0.667-0.017-1.3,0.051c-0.167-0.2-0.2-0.5-0.101-0.9l-0.1,0.05l0.1-0.399c0.2-0.233,0.55-0.367,1.05-0.4
		c0.067,0,0.15,0.017,0.25,0.05c0.567,0.101,0.95,0.134,1.15,0.101c0.134-0.034,0.3-0.101,0.5-0.2c0,0.066,0.017,0.149,0.05,0.25
		c0.233,0.434,0.584,0.616,1.05,0.55c0.434-0.066,0.733-0.283,0.9-0.65h0.05c0.101,0.767,0.8,1.051,2.101,0.851
		c0.433-0.066,0.8-0.15,1.1-0.25C100.667,31.2,101.316,31.066,101.95,30.8z M30.45,35l-0.05-0.1V35l-0.35-0.15
		c0.133,0.334,0.2,0.617,0.2,0.851v0.05c-1.167,0-1.833-0.4-2-1.2c-0.267,0.267-0.617,0.4-1.05,0.4v-0.025
		c0.051-0.04,0.101-0.082,0.15-0.125c0.066-0.066,0.167-0.149,0.3-0.25l0.1-0.05c0-0.033,0.017-0.05,0.05-0.05
		c0.034-0.033,0.067-0.066,0.1-0.101l0.1-0.1c0.133-0.1,0.267-0.184,0.4-0.25c-0.333-0.066-0.783-0.1-1.35-0.1l-0.75,0.05
		c-0.167,0-0.333,0-0.5,0h-0.05c-0.067,0-0.133,0-0.2,0c-0.167-0.334-0.233-0.65-0.2-0.95c-0.667-0.134-1.117-0.333-1.35-0.6
		c-0.1-0.101-0.167-0.2-0.2-0.301c0.467-0.399,0.434-0.883-0.1-1.449c-0.034-0.067-0.083-0.117-0.15-0.15c0.1-0.1,0.25-0.1,0.45,0
		c0.067,0.7,0.183,1.184,0.35,1.45c0.233,0.366,0.667,0.55,1.3,0.55c0.867,0,1.434-0.167,1.7-0.5c0.3,0.066,0.617,0.033,0.95-0.1
		c0.333-0.167,0.617-0.434,0.85-0.801c-0.1,0.2-0.1,0.567,0,1.101c0.333,0.2,0.733,0.267,1.2,0.2l0.05-0.15l0.05,0.5
		c0.3,0.167,0.6,0.217,0.9,0.15c0.1-0.4,0.133-0.684,0.1-0.851c0.333,0.4,0.733,0.75,1.2,1.05c0.6,0.367,1.067,0.45,1.4,0.25
		c0.267-0.133,0.4-0.399,0.4-0.8c0-0.5,0.017-0.883,0.05-1.149c0.2,0.166,0.483,0.433,0.85,0.8c0.333,0.333,0.683,0.483,1.05,0.45
		c0.167-0.801,0.1-1.551-0.2-2.25c0.6,0.899,1.583,1.316,2.95,1.25c0.067-0.667,0.083-1.317,0.05-1.95c0.3-0.066,0.533-0.2,0.7-0.4
		c0.067,0.066,0.15,0.117,0.25,0.15c0.5,0.2,0.9,0.233,1.2,0.1c0.4-0.133,0.617-0.517,0.65-1.149c0-0.733,0.017-1.25,0.05-1.551
		c0.267,0.167,0.684,0.25,1.25,0.25c0.2-0.767-0.133-1.566-1-2.399c0.067-0.066,0.133-0.117,0.2-0.15
		c0.467-0.366,0.683-0.983,0.65-1.85c0.133-0.033,0.233-0.101,0.3-0.2c0.133-0.233,0.167-0.483,0.1-0.75
		c-0.066-0.267-0.216-0.467-0.45-0.6c0.667,0.066,1.066-0.184,1.2-0.75c0.1-0.567-0.066-1.083-0.5-1.55
		c0.034-0.067,0.067-0.133,0.1-0.2c0.167-0.066,0.367-0.083,0.6-0.05c0.2,0.333,0.45,0.9,0.75,1.7l0.35,1.3
		c0.066-0.166,0.1-0.3,0.1-0.399c0.066-0.334,0.1-0.867,0.1-1.6c0-0.7,0.017-1.233,0.05-1.6c0.3,0.3,0.533,1.033,0.7,2.2
		c0,0.033,0.017,0.066,0.05,0.1c0.033-0.066,0.083-0.133,0.15-0.2c0.033,0.367,0.1,0.717,0.2,1.051
		c0.033,0.066,0.066,0.149,0.1,0.25c0.067,0.199,0.133,0.399,0.2,0.6c0.167,0.366,0.4,0.717,0.7,1.05
		c0.066-0.233,0.033-0.533-0.1-0.899c-0.2-0.567-0.3-0.867-0.3-0.9c-0.1-0.566-0.133-1.283-0.1-2.15c0.066-0.967,0.1-1.684,0.1-2.15
		c0.067-2.267,0.65-4.317,1.75-6.15c-0.6,1.767-0.9,3.85-0.9,6.25c-0.033,0.534,0,1.167,0.1,1.9c0,0.066,0,0.133,0,0.2
		c-0.033,0.467,0.033,0.817,0.2,1.05c0.033,0.066,0.05,0.133,0.05,0.2c0.1,0.433,0.233,0.966,0.4,1.6c0-0.5,0.033-0.983,0.1-1.45
		c0.2,0,0.467-0.017,0.8-0.05c0.167-0.033,0.383-0.066,0.65-0.1c-0.133,0.366-0.167,0.716-0.1,1.05c0.133,0.033,0.3,0.066,0.5,0.1
		c-0.033,0.167-0.05,0.351-0.05,0.55c0.067,0.267,0.184,0.551,0.35,0.851c-0.267,0.399-0.45,0.783-0.55,1.149
		c0.167,0.067,0.683,0.134,1.55,0.2l0.05,0.05c0,0.134-0.017,0.5-0.05,1.101c-0.033,0.399,0.067,0.7,0.3,0.899l-0.65,1.25
		c-0.5-0.1-1.083,0.233-1.75,1c-0.7,0.767-0.933,1.384-0.7,1.851c0.333,0.566,0.917,0.467,1.75-0.3c0.467-0.4,0.8-0.983,1-1.75
		c0.033-0.067,0.167-0.75,0.4-2.051L52.8,26.4c0.633,0.5,1.284,0.316,1.95-0.551c0.033,1.101,0.267,1.717,0.7,1.851
		c0.466,0.166,0.933-0.3,1.4-1.4c0.533,1.101,1.483,1.566,2.85,1.4l0.15-1.75c0.433,0.733,1.033,1.133,1.8,1.2
		c0.133-0.267,0.2-0.584,0.2-0.95c0.033-0.601,0.05-0.934,0.05-1c0.466,0.399,0.966,0.717,1.5,0.95c0.733,0.3,1.3,0.333,1.699,0.1
		c0.534-0.333,0.667-0.917,0.4-1.75c-0.233-0.7-0.6-1.184-1.1-1.45c0.267,0.134,1,0.316,2.199,0.55
		c0.167-0.8,0.084-1.449-0.25-1.949c-0.233-0.267-0.583-0.517-1.05-0.75c0.066-0.101,0.134-0.184,0.2-0.25
		c0.167,0,0.35,0.017,0.55,0.05c0.634,0,1.066-0.134,1.3-0.4c0.134-0.166,0.217-0.316,0.25-0.45c0.267,0.266,0.434,0.417,0.5,0.45
		c0.7,0.367,1.434,0.483,2.2,0.351c0.134,0,0.283,0,0.45,0c0.267,0.666,0.45,1.183,0.55,1.55c0.167,0.8,0.167,1.517,0,2.149
		c-0.133,0.467-0.366,0.801-0.7,1c-0.333,0.2-0.6,0.2-0.8,0c0.3,1.367,0.3,2.25,0,2.65c-0.2,0.3-0.533,0.45-1,0.45
		c-0.434,0-0.816-0.101-1.149-0.3C67.384,28.05,67.2,27.9,67.1,27.7c0.067,1.3,0.017,2.366-0.149,3.2
		c-0.467,0.133-0.983,0.066-1.55-0.2c0.133,0.899-0.25,1.434-1.15,1.6c-0.767,0.134-1.566,0.017-2.4-0.35
		c0,0.033-0.083,0.35-0.25,0.95c-0.133,0.433-0.283,0.716-0.45,0.85c-0.367,0.3-0.883,0.3-1.55,0c-0.6-0.267-1.033-0.6-1.3-1
		C58.2,32.983,58,33.4,57.7,34c-0.333,0.434-0.75,0.483-1.25,0.15c-0.233-0.167-0.35-0.5-0.35-1c0.1-0.601,0.133-1,0.1-1.2
		c-0.434,0.566-0.967,0.717-1.6,0.45l-0.05-0.65l0.05-0.2v0.2c0.733,0.333,1.316-0.017,1.75-1.05c0.3-0.8,0.417-1.617,0.35-2.45
		l-1-0.1c-0.833,0.899-1.217,1.966-1.15,3.199v0.4l-0.05,0.3c-0.467,0.101-0.9,0.05-1.3-0.149c0.066,0.233,0.05,0.6-0.05,1.1
		c-1,0-1.633-0.017-1.9-0.05c-0.7-0.134-1.067-0.467-1.1-1c-0.133,0.366-0.3,0.616-0.5,0.75c-0.233,0.2-0.517,0.2-0.85,0
		c-0.333-0.167-0.433-0.566-0.3-1.2c0.067-0.434,0.217-0.866,0.45-1.3c-0.633,0.166-1.2,0.133-1.7-0.101
		c-0.033-0.866,0.367-1.466,1.2-1.8c-0.133,0.033-0.317,0.017-0.55-0.05c-0.267-0.066-0.45-0.1-0.55-0.1c0.033-1,0.033-1.75,0-2.25
		l-1-0.351c0.033,0.767-0.017,1.283-0.15,1.55c-0.1,0.233-0.35,0.384-0.75,0.45L44.3,27.6c0.1,0.233,0.333,0.567,0.7,1l0.35,0.351
		c-0.267,0.066-0.5,0.25-0.7,0.55l0.15-0.4l-0.2,0.45l-0.05,0.05l-0.05,0.15l-0.05,0.05c-0.034,0.167-0.034,0.4,0,0.7
		c0,0.267-0.117,0.483-0.35,0.65l-0.05,0.05c-0.767-0.066-1.267-0.101-1.5-0.101c-0.1,0.767-0.216,1.284-0.35,1.551
		c-0.233,0.366-0.65,0.566-1.25,0.6c-0.434,0.033-0.934-0.05-1.5-0.25c-0.534-0.2-0.95-0.45-1.25-0.75c-0.067,0.3-0.1,0.75-0.1,1.35
		c-0.033,0.467-0.267,0.767-0.7,0.9c-0.433,0.1-0.883-0.033-1.35-0.4c-0.367-0.267-0.583-0.566-0.65-0.899
		c0,0.2-0.033,0.517-0.1,0.95c-0.466,0-0.95-0.051-1.45-0.15l-0.05-0.05V34c-0.667-0.167-1.233-0.366-1.7-0.6
		c-0.1,1.166-0.184,1.833-0.25,2L30.45,35z M59.7,29.4L58,29.65c0.067,0.133,0.167,0.517,0.3,1.149
		c0.133,0.601,0.333,0.917,0.6,0.95c0.467,0.033,0.733-0.283,0.8-0.95C59.7,30.066,59.7,29.6,59.7,29.4z M6.95,28.7
		c0.066,0.1,0.133,0.2,0.2,0.3v-0.05c-0.233-0.367-0.4-0.7-0.5-1C6.783,27.983,7,28,7.3,28c0.267,0,0.7-0.017,1.3-0.05l0.05,1.1
		c0.067,0,0.167,0.017,0.3,0.05c0.133,0.034,0.267,0.017,0.4-0.05c0.066,0.2,0.15,0.533,0.25,1c0.1,0.367,0.3,0.617,0.6,0.75
		c0.3-0.3,0.433-0.7,0.4-1.2c0.367,0.434,0.767,0.767,1.2,1c-0.267,0.634-0.783,0.867-1.55,0.7c-0.733-0.166-1.383-0.583-1.95-1.25
		c-0.066,0.2-0.133,0.367-0.2,0.5L6.95,29c-0.333-0.1-0.7-0.316-1.1-0.65C6.25,28.25,6.617,28.366,6.95,28.7z M23.7,28.15
		c-0.167,0.066-0.3,0.149-0.4,0.25c-0.1-0.067-0.216-0.15-0.35-0.25c-1.034-0.634-2.034-1.034-3-1.2c0.5,0.1,1.033,0.416,1.6,0.95
		c0.934,0.666,1.434,1.166,1.5,1.5c-0.267-0.034-0.466-0.051-0.6-0.051c-0.233-0.033-0.417,0-0.55,0.101
		c0,0.033,0.033,0.133,0.1,0.3c-0.3-0.167-0.517-0.35-0.65-0.55c0-0.033,0.033-0.05,0.1-0.05c-0.1-0.067-0.184-0.117-0.25-0.15
		c-0.167-0.467-0.3-0.783-0.4-0.95c-0.2-0.333-0.5-0.517-0.9-0.55l-0.55-0.05c-1.2-1.2-2.25-2.033-3.15-2.5
		c1.767,0.399,3.767,1.316,6,2.75c0.167-0.066,0.316-0.117,0.45-0.15c0.033,0,0.067,0,0.1,0c-0.133-0.2-0.267-0.383-0.4-0.55
		c-0.467-0.5-0.817-0.884-1.05-1.15L19.6,24c-0.8-1.066-1.467-1.8-2-2.2c-1.1-0.833-2.617-1.8-4.55-2.9
		c-1.2-0.733-2.1-1.25-2.7-1.55c-0.733-0.2-1.283-0.383-1.65-0.55c0.867-0.133,2.4,0.233,4.6,1.1c1.733,0.633,2.917,1.217,3.55,1.75
		c0.633,0.5,1.383,1.167,2.25,2c0.133,0.1,0.267,0.216,0.4,0.35c0.2,0.2,0.433,0.434,0.7,0.7l-0.3-0.2c0.133,0.1,0.3,0.233,0.5,0.4
		c0.133,0.133,0.3,0.283,0.5,0.449c0.233,0.233,0.483,0.483,0.75,0.75c0.133,0.134,0.267,0.267,0.4,0.4c0.1,0.1,0.2,0.2,0.3,0.3
		c0.033-0.033,0.066-0.066,0.1-0.1c0.133-0.134,0.3-0.233,0.5-0.3c-0.333-0.067-0.633-0.134-0.9-0.2c0.767-0.5,1.467-0.851,2.1-1.05
		c0.067,0.133,0.2,0.233,0.4,0.3c-0.033,0.166-0.083,0.35-0.15,0.55c-0.066,0.2-0.2,0.483-0.4,0.85
		c0.667,0.434,1.517,0.551,2.55,0.351c-0.167,0.166-0.483,0.416-0.95,0.75c-0.4,0.3-0.633,0.6-0.7,0.899
		c0.067,0.067,0.133,0.117,0.2,0.15l-0.6,0.05c-0.333-0.267-0.583-0.483-0.75-0.649c-0.467-0.733-0.85-1.267-1.15-1.601
		c-0.033-0.033-0.083-0.066-0.15-0.1c0.167,0.267,0.367,0.55,0.6,0.85c1,1.367,1.55,2.134,1.65,2.3
		c-0.1,0.067-0.25,0.084-0.45,0.051c-0.267-0.067-0.433-0.101-0.5-0.101C23.75,27.934,23.733,28.05,23.7,28.15z M79.7,7.95l0.7,0.15
		l0.05,0.3v0.275c-0.004,0.208-0.021,0.4-0.05,0.575h0.05c0.5-0.6,0.967-1.567,1.399-2.9C82.45,4.417,82.816,2.3,82.95,0
		c0,0.333,0.066,0.75,0.2,1.25c0.233,0.767,0.35,1.333,0.35,1.7c-0.066,2.1-0.167,3.5-0.3,4.2c-0.233,1.167-0.834,2.283-1.8,3.35
		c-0.634,0.667-1.084,1.15-1.351,1.45C80.017,11.95,80,11.967,80,12c-0.1,0.067-0.167,0.117-0.2,0.15
		c-0.066,0.067-0.133,0.133-0.2,0.2l-0.149-0.5l-1.7,0.75c0,0.167,0.017,0.566,0.05,1.2c0.033,0.567-0.017,0.934-0.149,1.1
		c-0.233,0.267-0.483,0.4-0.75,0.4c0-0.133,0-0.283,0-0.45c-0.233-1.533-0.351-2.7-0.351-3.5v-1.6c1.066,0.233,1.834,0.283,2.3,0.15
		C78.85,9.033,78.9,8.4,79,8C79.233,7.967,79.467,7.95,79.7,7.95z M82.25,25.55c-0.4-0.233-0.85-0.467-1.35-0.7l-1.5,0.801
		c-0.367-0.634-0.601-1-0.7-1.101c-0.233-0.3-0.55-0.533-0.95-0.7c-0.5-0.199-1.167-0.267-2-0.199c-0.866,0.066-1.2,0.5-1,1.3
		c-0.366,0.133-0.684,0.283-0.95,0.45c0.101-0.434,0.167-0.767,0.2-1c-0.333-0.034-0.684,0.017-1.05,0.149v-0.2
		c-0.101-1.866-0.717-3.466-1.851-4.8c0.067-0.667,0.067-1.233,0-1.7c-0.066-0.3-0.267-0.567-0.6-0.8c-0.4-0.3-0.634-0.533-0.7-0.7
		c-0.1-0.2-0.133-0.45-0.1-0.75c0.033-0.4,0.033-0.667,0-0.8c-0.033-0.433-0.3-1-0.8-1.7c-0.134-0.167-0.551-0.483-1.25-0.95
		c-0.567-0.367-0.884-0.7-0.95-1l-3.9-0.95c0.367-0.067,0.8-0.083,1.3-0.05c0.067,0.033,0.117,0.067,0.15,0.1
		c0.5,0.367,0.983,0.5,1.45,0.4c0.1-0.033,0.233-0.117,0.399-0.25c0.5,0.1,1,0.233,1.5,0.4c0.867,0.3,1.434,0.633,1.7,1l0.101-0.15
		c0.066,0.067,0.283,0.75,0.649,2.05c0.967,0.633,1.3,1.1,1,1.4c0.634,0,1.05-0.467,1.25-1.4c0.033-0.534,0.066-0.967,0.101-1.3
		c0.1-0.033,0.183-0.083,0.25-0.15c0.1-0.067,0.166-0.2,0.199-0.4c0.301,0.066,0.733,0.2,1.301,0.4c0.366,0.1,0.683,0.167,0.949,0.2
		c-0.033,0.533-0.05,1.133-0.05,1.8c0,1.033,0.066,1.75,0.2,2.15c-0.3,0.434-0.717,0.133-1.25-0.9c-0.167,1-0.25,1.8-0.25,2.4
		c0.066,0.967,0.3,1.6,0.7,1.9c0.233,0.167,0.616,0.25,1.149,0.25c0.567,0.033,0.95-0.033,1.15-0.2c0.267-0.2,0.45-0.533,0.55-1
		c0.134-0.6,0.25-0.983,0.351-1.15c0.3,0.767,0.733,0.9,1.3,0.4c0.166-0.133,0.3-0.267,0.399-0.4c-0.066,0.267-0.116,0.5-0.149,0.7
		c0,0.033,0,0.067,0,0.1c-0.4,0.533-0.634,1.05-0.7,1.55L78.4,20c-0.601-0.033-1.217,0.066-1.851,0.3
		c-0.833,0.3-1.033,0.717-0.6,1.25c0.267,0.3,0.883,0.517,1.85,0.65c0.934,0.133,1.584,0.133,1.95,0c0.3-0.134,0.45-0.483,0.45-1.05
		l-0.5-0.301c0.133-0.133,0.267-0.283,0.399-0.449c0.101-0.101,0.217-0.25,0.351-0.45c0.2,0.033,0.45,0.033,0.75,0
		c-0.101,0.333-0.217,0.733-0.351,1.2C80.45,22.517,80.3,23.4,80.4,23.8c0.433,0.167,0.816,0.101,1.149-0.2
		c0.2-0.166,0.467-0.483,0.8-0.949c0,0.1-0.033,0.783-0.1,2.05C82.217,25,82.217,25.283,82.25,25.55z M80.55,11.75
		c0.334-0.133,0.684-0.2,1.05-0.2L81.45,12.9c-0.033,0.167-0.05,0.35-0.05,0.55c-0.067,0-0.117,0.017-0.15,0.05
		c-0.467,0.267-0.75,0.467-0.85,0.6c-0.134,0.2-0.217,0.4-0.25,0.6c0-0.133,0-0.284,0-0.45c0-1.067,0-1.85,0-2.35h0.05l0.2-0.1
		L80.55,11.75z M98.6,8.45c-0.066-0.1-0.133-0.184-0.199-0.25c0.366-0.267,0.75-0.467,1.149-0.6c1.134-0.333,1.95,0.1,2.45,1.3
		c0.333,0.767,0.434,2.184,0.3,4.25c-0.033,0.6-0.316,1.383-0.85,2.35c-0.134,0.267-0.267,0.517-0.4,0.75l-0.3-0.4
		c-0.167-0.167-0.25-0.35-0.25-0.55c0.033-0.2,0.15-0.45,0.35-0.75c0.2-0.3,0.317-0.533,0.351-0.7c0.1-0.367,0.05-0.75-0.15-1.15
		c0.167-0.467,0.316-1.1,0.45-1.9c0.134-1,0-1.683-0.4-2.05c-0.433-0.4-1.083-0.533-1.949-0.4C98.95,8.383,98.767,8.417,98.6,8.45z
		 M104.15,13.75c0.966-1.167,1.783-2.25,2.449-3.25c0.4-0.6,0.767-1.383,1.101-2.35c0.533-1.1,0.883-1.933,1.05-2.5
		c0.267-0.833,0.483-2.25,0.65-4.25c-0.233,3.8-0.351,5.733-0.351,5.8c-0.366,2.667-1.184,4.8-2.45,6.4
		c-1.733,2.2-3.149,3.783-4.25,4.75c-0.366,0.333-0.816,0.667-1.35,1c0.267-0.467,0.434-0.934,0.5-1.4
		c0.033-0.133,0.05-0.267,0.05-0.4c0.2-0.2,0.4-0.417,0.601-0.65C103.116,15.867,103.783,14.817,104.15,13.75z M112,20.5v-0.6
		c0.033-0.333,0.033-0.55,0-0.65c-0.033-0.067-0.184-0.167-0.45-0.3c-1.2-0.633-2.95-0.75-5.25-0.35l0.55-0.7
		c-0.3,0-0.683,0.083-1.149,0.25c-0.533,0.2-0.917,0.333-1.15,0.4c-0.133,0.034-0.233,0.067-0.3,0.1c-0.467-0.033-0.866-0.033-1.2,0
		l-0.2,0.1c0.334-0.2,0.817-0.5,1.45-0.9c0.767-0.5,1.4-0.783,1.9-0.85c1.366-0.3,2.733-0.133,4.1,0.5
		c1.4,0.6,2.184,1.617,2.351,3.05c0,0.101,0.017,0.217,0.05,0.351C112.434,20.767,112.2,20.634,112,20.5z M106.4,18.9
		c0.433-0.033,0.933-0.083,1.5-0.15c1.666-0.2,2.916-0.1,3.75,0.3c-0.301,0.067-0.467,0.133-0.5,0.2c-0.034,0.033,0,0.167,0.1,0.4
		c0.066,0.167,0.167,0.383,0.3,0.65c-0.133-0.1-0.267-0.166-0.399-0.2c-0.067-0.2-0.134-0.35-0.2-0.45
		c-0.233-0.367-0.45-0.6-0.65-0.7c-0.2-0.133-0.684-0.2-1.45-0.2c-0.333-0.033-0.966,0.05-1.899,0.25c-0.033,0-0.066,0-0.101,0
		h-0.05C106.667,18.967,106.533,18.933,106.4,18.9z M84.5,30.8c0.066-0.434,0.083-0.916,0.05-1.45c-0.066-0.899-0.3-1.666-0.7-2.3
		c0.134-0.3,0.217-0.733,0.25-1.3c0.134,0.066,0.267,0.134,0.4,0.2c1.134,0.533,2.417,0.717,3.85,0.55c0.5-0.066,0.9-0.283,1.2-0.65
		c0.334-0.399,0.584-0.683,0.75-0.85c0.004-0.033,0.021-0.05,0.05-0.05V24.9L90.4,24.85V23.3c0.033-0.366,0.066-0.666,0.1-0.899
		c1,0.066,1.65,0,1.95-0.2c0.434-0.3,0.6-0.8,0.5-1.5c-0.066-0.533-0.25-1.034-0.55-1.5c0.066-0.034,0.149-0.05,0.25-0.05
		c0.233,0.067,0.517,0.184,0.85,0.35c0.366,0.1,1,0.05,1.9-0.15c0.899-0.2,1.533-0.217,1.899-0.05c0.033,0,0.117,0.05,0.25,0.15
		c-0.767,0.133-1.366,0.433-1.8,0.899c-0.1,0.101-0.184,0.233-0.25,0.4c-0.1,0-0.184,0.017-0.25,0.05
		c-0.467,0.134-0.816,0.5-1.05,1.101c-0.033,0.133-0.066,0.283-0.101,0.449c-0.166,0.067-0.333,0.134-0.5,0.2
		c-0.199,0.134-0.533,0.283-1,0.45c-0.366,0.2-0.649,0.417-0.85,0.65c-0.533,0.566-0.833,1.433-0.9,2.6
		c-0.033,0.566-0.033,1.083,0,1.55C90.483,27.667,90.2,27.65,90,27.75c-0.3,0.134-0.467,0.434-0.5,0.9c0,0.233,0,0.583,0,1.05
		c-0.6,0.166-1.217,0.05-1.85-0.351L87.05,29c-0.066,0.167-0.133,0.6-0.2,1.3c-0.033,0.467-0.267,0.8-0.699,1
		c-0.4,0.167-0.801,0.134-1.2-0.1C84.75,31.1,84.6,30.967,84.5,30.8z M79.6,12.35l0.15,0.55c-0.5,0.067-1,0.067-1.5,0
		c0.333-0.1,0.6-0.183,0.8-0.25C79.217,12.583,79.4,12.483,79.6,12.35z M48.75,26.6c0.467,0.2,0.9,0.217,1.3,0.051
		c0.3-0.134,0.65-0.4,1.05-0.801l-1-0.75c-0.4,0.067-0.733,0.233-1,0.5C48.8,25.9,48.683,26.233,48.75,26.6z M66.15,27.8
		c-0.134-0.566-0.233-0.967-0.301-1.2l-2.399,1.25c0.1,0.334,0.434,0.65,1,0.95c0.566,0.334,1.017,0.367,1.35,0.101
		C66.1,28.667,66.217,28.3,66.15,27.8z M15.8,31.35l-0.2,0.301c-0.333-0.301-0.567-0.567-0.7-0.801c-0.566,0.267-1.017,0.4-1.35,0.4
		H13.4l-0.65-0.45c0.2-0.166,0.233-0.583,0.1-1.25c0.267,0.601,0.917,1.033,1.95,1.3c0.067-0.3,0.1-0.55,0.1-0.75
		c0.133,0.167,0.333,0.45,0.6,0.851C15.6,31.083,15.7,31.217,15.8,31.35z M18.8,31.05c-0.167,0.4-0.3,0.8-0.4,1.2
		c-0.566,0.033-1.167-0.167-1.8-0.6c0.133-0.101,0.316-0.301,0.55-0.601c0.3-0.399,0.6-0.583,0.9-0.55
		C18.283,30.533,18.533,30.717,18.8,31.05z M25.9,28.8c-0.167,0.134-0.283,0.267-0.35,0.4l-0.3-1.05
		c0.167-0.101,0.367-0.2,0.6-0.301c0.233-0.1,0.433-0.199,0.6-0.3c0.033,0,0.066,0,0.1,0c0.133,0.033,0.284,0.05,0.45,0.05
		c-0.2,0.134-0.433,0.301-0.7,0.5C26.033,28.333,25.9,28.566,25.9,28.8z M27.1,31c-0.434-0.033-0.717-0.066-0.85-0.1
		c-0.467-0.101-0.867-0.301-1.2-0.601c0.034,0,0.083-0.017,0.15-0.05c0.033,0.033,0.066,0.083,0.1,0.15
		c0.367,0.433,1.167,0.399,2.4-0.101C27.4,30.467,27.2,30.7,27.1,31z"/>
	
		<linearGradient id="SVGID_1_" gradientUnits="userSpaceOnUse" x1="8.6719" y1="-90.3726" x2="23.8469" y2="-90.3726" gradientTransform="matrix(6.589786e-005 1 -1 -0.001 -3.808215e-004 -1.263395e-004)">
		<stop  offset="0" style="stop-color:#FFFFFF"/>
		<stop  offset="1" style="stop-color:#C8DAE3"/>
	</linearGradient>
	<path style="fill-rule:evenodd;clip-rule:evenodd;fill:url(#SVGID_1_);" d="M100.8,12.2c0.101,0.167,0.184,0.333,0.25,0.5
		c0.2,0.4,0.25,0.783,0.15,1.15c-0.033,0.167-0.15,0.4-0.351,0.7c-0.199,0.3-0.316,0.55-0.35,0.75c0,0.2,0.083,0.383,0.25,0.55
		l0.3,0.4l0.15,0.15c0.066,0.133,0.133,0.283,0.2,0.45c0.1,0.233,0.149,0.467,0.149,0.7c0,0.133-0.017,0.267-0.05,0.4
		c-0.066,0.466-0.233,0.933-0.5,1.4c-0.033,0.033-0.066,0.066-0.1,0.1v0.05c-1.301-0.167-2.2-0.217-2.7-0.15
		c-0.233,0-0.45,0.033-0.65,0.1c-0.133-0.1-0.217-0.15-0.25-0.15c-0.366-0.167-1-0.15-1.899,0.05c-0.9,0.2-1.534,0.25-1.9,0.15
		c-0.333-0.167-0.616-0.283-0.85-0.35c-0.034-0.033-0.067-0.05-0.101-0.05c-0.767-0.1-1.666,0.15-2.7,0.75
		c-0.366,0.2-0.583,0.35-0.649,0.45c-0.033,0.033-0.05,0.101-0.05,0.2c-0.034,0.134-0.067,0.316-0.101,0.55
		c0,0.134-0.017,0.384-0.05,0.75c0,0.066,0,0.134,0,0.2h-0.05c-1.101-0.066-1.934-0.1-2.5-0.1c-1.033-0.034-1.816,0.133-2.351,0.5
		c-0.399,0.233-0.683,0.517-0.85,0.85c-0.066-0.167-0.116-0.366-0.15-0.6c0-0.967-0.066-1.617-0.199-1.95
		c-0.167-0.467-0.384-0.733-0.65-0.8l-1,0.05H81.2c-0.3,0.033-0.55,0.033-0.75,0c-0.867-0.1-1.283-0.583-1.25-1.45
		c0-0.033,0-0.067,0-0.1c0.033-0.2,0.083-0.433,0.149-0.7c0.067-0.233,0.15-0.467,0.25-0.7c0.233-0.5,0.384-0.883,0.45-1.15V15.6
		c0.033-0.333,0.05-0.583,0.05-0.75c0-0.033,0.017-0.083,0.051-0.15c0.033-0.2,0.116-0.4,0.25-0.6c0.1-0.133,0.383-0.333,0.85-0.6
		c0.033-0.033,0.083-0.05,0.15-0.05c0.366-0.233,0.566-0.4,0.6-0.5c0.066-0.133,0.1-0.4,0.1-0.8c0-0.2,0.017-0.367,0.051-0.5
		c0-0.133,0.017-0.233,0.05-0.3c0.233-0.567,0.684-1,1.35-1.3c0.367-0.2,0.983-0.383,1.851-0.55L85.05,8.65
		c-0.033-0.367,0.45-0.9,1.45-1.6c0.434-0.333,0.85-0.517,1.25-0.55c0.2,0,0.667,0.05,1.4,0.15c0.633,0.1,1.133,0.1,1.5,0
		c0.166-0.033,0.399-0.133,0.699-0.3c0.334-0.067,0.767-0.067,1.301,0c0.3,0.066,0.733,0.15,1.3,0.25c0.467,0.1,1.133,0.2,2,0.3
		c0.7,0.1,1.3,0.333,1.8,0.7c0.233,0.167,0.45,0.367,0.65,0.6c0.066,0.066,0.133,0.15,0.199,0.25c0.067,0.1,0.134,0.216,0.2,0.35
		s0.15,0.3,0.25,0.5c0.101,0.267,0.217,0.6,0.351,1c0.066,0.2,0.466,0.75,1.199,1.65C100.667,12.05,100.733,12.133,100.8,12.2z"/>
	
		<linearGradient id="SVGID_2_" gradientUnits="userSpaceOnUse" x1="20.2319" y1="-105.5361" x2="30.7569" y2="-105.5361" gradientTransform="matrix(9.501188e-005 1 -1 -0.001 -1.193074e-005 -1.263395e-004)">
		<stop  offset="0" style="stop-color:#FFFFFF"/>
		<stop  offset="1" style="stop-color:#C8DAE3"/>
	</linearGradient>
	<path style="fill-rule:evenodd;clip-rule:evenodd;fill:url(#SVGID_2_);" d="M112.7,20.9c0.434,0.267,0.916,0.566,1.45,0.899
		c0.3,0.2,0.683,0.517,1.149,0.95c0.467,0.467,0.834,0.783,1.101,0.95l0.5,0.25c0.267,0.1,0.616,0.233,1.05,0.399
		c0.2,0.067,0.399,0.15,0.6,0.25c0.134,0.067,0.25,0.117,0.351,0.15c0.133,0.066,0.25,0.134,0.35,0.2c0.6,0.3,0.934,0.616,1,0.95
		c0.033,0.433-0.417,0.649-1.35,0.649c-0.334,0-0.733-0.017-1.2-0.05c-0.033,0-0.066,0-0.101,0c-0.166-0.033-0.366-0.083-0.6-0.15
		h-0.05c-0.334-0.133-0.717-0.283-1.15-0.449c-0.2-0.067-0.416-0.15-0.649-0.25c-1-0.467-1.851-0.684-2.551-0.65h-0.05
		c-0.399,0.033-0.883,0.2-1.45,0.5c-0.6,0.366-1.05,0.583-1.35,0.65c-0.3,0.066-0.717,0.066-1.25,0c-0.7-0.101-1.116-0.15-1.25-0.15
		c-0.5-0.033-0.983,0.017-1.45,0.15c-0.366,0.066-0.717,0.183-1.05,0.35c-0.2,0.1-0.417,0.267-0.65,0.5l-3.05-1
		c-1.399,0-2.6,0.25-3.6,0.75c-1.167,0.566-1.717,1.35-1.65,2.35c-0.366,0.534-0.6,0.851-0.7,0.95c-0.133,0.134-0.25,0.267-0.35,0.4
		c-0.2,0.1-0.366,0.166-0.5,0.2c-0.2,0.033-0.583,0-1.15-0.101c-0.1-0.033-0.183-0.05-0.25-0.05c-0.866-0.267-1.449-0.783-1.75-1.55
		c-0.133-0.3-0.216-0.684-0.25-1.15c-0.033-0.467-0.033-0.983,0-1.55c0.067-1.167,0.367-2.033,0.9-2.6
		c0.2-0.233,0.483-0.45,0.85-0.65c0.467-0.167,0.801-0.316,1-0.45c0.167-0.066,0.334-0.133,0.5-0.2
		c0.567-0.267,0.934-0.5,1.101-0.699c0.033-0.367,0.133-0.667,0.3-0.9c0.066-0.167,0.15-0.3,0.25-0.4
		c0.434-0.466,1.033-0.766,1.8-0.899c0.2-0.067,0.417-0.1,0.65-0.1c0.5-0.067,1.399-0.017,2.7,0.15l1.949-0.75l0.2-0.1
		c0.334-0.033,0.733-0.033,1.2,0c0.233,0,0.5,0.017,0.8,0.05c0.334,0.066,0.783,0.133,1.351,0.2c0.133,0.033,0.267,0.067,0.399,0.1
		h0.05c0.034,0,0.067,0,0.101,0H107c1,0.1,1.9,0.267,2.7,0.5c0.399,0.1,0.883,0.3,1.45,0.6c0.133,0.034,0.267,0.101,0.399,0.2
		c0.134,0.066,0.283,0.134,0.45,0.2C112.2,20.634,112.434,20.767,112.7,20.9z"/>
	<path style="fill-rule:evenodd;clip-rule:evenodd;fill:#6D7247;" d="M101.2,32.05c-0.4,1.233-0.717,2.017-0.95,2.351
		c-0.134,0.166-0.283,0.316-0.45,0.449c0.101-0.1,0.2-0.199,0.3-0.3c0.301-0.333,0.584-0.95,0.851-1.85L101.2,32.05z M48.65,36.55
		c0.1-0.066,0.217-0.133,0.35-0.2c0.233-0.166,0.45-0.333,0.65-0.5c-0.033,0.067-0.083,0.117-0.15,0.15
		C49.233,36.233,48.95,36.417,48.65,36.55z M44.95,35.8c0.233,0.367,0.6,0.667,1.1,0.9c0.133,0.066,0.284,0.116,0.45,0.149
		c-1.733-0.166-2.333-1.25-1.8-3.25c0.033-0.1,0.066-0.199,0.1-0.3C44.533,34.233,44.583,35.066,44.95,35.8z M43.25,35.25
		c0.067-0.066,0.133-0.134,0.2-0.2c0.3-0.2,0.566-0.416,0.8-0.649C43.95,34.733,43.617,35.017,43.25,35.25z M27.35,36.9
		c-0.751-0.657-0.801-1.315-0.15-1.976v0.025c-0.4,0.533-0.434,1.066-0.1,1.6C27.167,36.684,27.25,36.8,27.35,36.9z M28.35,37.55
		c0.1,0.033,0.233,0.084,0.4,0.15c0.533,0.133,0.983,0.2,1.35,0.2c0.767,0,1.433-0.167,2-0.5
		C30.867,38.167,29.617,38.217,28.35,37.55z M23.2,33.75l0.45,0.1L23.7,33.9C23.5,33.833,23.333,33.783,23.2,33.75z M7.15,28.95V29
		c-0.066-0.1-0.133-0.2-0.2-0.3C7.017,28.767,7.083,28.85,7.15,28.95z M11.4,25.5c-0.033,0-0.083,0.017-0.15,0.05L11.2,25.6
		c0.161-0.289,0.419-0.406,0.775-0.35c-0.194-0.025-0.369,0.025-0.525,0.15L11.4,25.5z M19.1,21.55c0.2,0.334,0.867,0.5,2,0.5
		c0.8,0,1.783-0.017,2.95-0.05v1.05c0.034,0.033,0.067,0.066,0.1,0.101c-0.633,0.199-1.333,0.55-2.1,1.05
		c-0.466-0.533-0.883-0.917-1.25-1.15l-0.6-0.35c-0.267-0.267-0.5-0.5-0.7-0.7c-0.133-0.134-0.267-0.25-0.4-0.35
		C19.1,21.616,19.1,21.583,19.1,21.55z M45.25,20.3c-0.3-0.8-0.55-1.367-0.75-1.7c-0.233-0.033-0.433-0.017-0.6,0.05
		c0-0.066,0-0.117,0-0.15c0.033-0.167,0.05-0.383,0.05-0.65c0.233,0.2,0.466,0.517,0.7,0.95C44.817,19.1,45.017,19.6,45.25,20.3z
		 M62.8,10.2l-0.55-0.15c0.533-0.233,1.1-0.233,1.7,0c0.033,0.034,0.083,0.067,0.149,0.1C63.6,10.117,63.167,10.133,62.8,10.2z
		 M80.45,8.675c0,0.208,0,0.4,0,0.575H80.4C80.429,9.075,80.446,8.883,80.45,8.675z M79.7,7.95c-0.233,0-0.467,0.017-0.7,0.05
		c-0.1,0.4-0.15,1.033-0.15,1.9c-0.466,0.133-1.233,0.083-2.3-0.15v-0.4l-0.1,0.15c-0.2-0.533-0.267-0.867-0.2-1
		c0.066-0.3,0.267-0.467,0.6-0.5c0.2-0.033,0.534-0.033,1,0H77.9l0.05,0.4C78.483,8.033,79.066,7.883,79.7,7.95z M80.15,11.9L80,12
		c0-0.033,0.017-0.05,0.05-0.05C80.083,11.917,80.116,11.9,80.15,11.9z M80.55,11.75c0.566-0.267,1.101-0.3,1.601-0.1
		c-0.034,0.133-0.051,0.3-0.051,0.5c0,0.4-0.033,0.667-0.1,0.8c-0.033,0.1-0.233,0.267-0.6,0.5c0-0.2,0.017-0.383,0.05-0.55
		l0.149-1.35C81.233,11.55,80.884,11.617,80.55,11.75z M82.25,25.55c-0.033-0.267-0.033-0.55,0-0.85c0.066-1.267,0.1-1.95,0.1-2.05
		c-0.333,0.466-0.6,0.783-0.8,0.949c-0.333,0.301-0.717,0.367-1.149,0.2C80.3,23.4,80.45,22.517,80.85,21.15
		c0.134-0.467,0.25-0.867,0.351-1.2h0.05l1-0.05c0.267,0.067,0.483,0.333,0.65,0.8c0.133,0.333,0.199,0.983,0.199,1.95
		c0.034,0.233,0.084,0.433,0.15,0.6c-0.167,0.3-0.217,0.65-0.15,1.05c0.067,0.566,0.4,1.05,1,1.45c-0.033,0.566-0.116,1-0.25,1.3
		c-0.133-0.166-0.267-0.333-0.399-0.5C83.15,26.217,82.75,25.884,82.25,25.55z M80.45,19.95c-0.134,0.2-0.25,0.35-0.351,0.45
		c-0.133,0.166-0.267,0.316-0.399,0.449l-1.2-0.8c0.066-0.5,0.3-1.017,0.7-1.55C79.167,19.367,79.583,19.85,80.45,19.95z
		 M92.65,19.15c-0.101,0-0.184,0.017-0.25,0.05c0.3,0.466,0.483,0.967,0.55,1.5c0.1,0.7-0.066,1.2-0.5,1.5
		c-0.3,0.2-0.95,0.267-1.95,0.2c-0.033,0.233-0.066,0.533-0.1,0.899V22.15C90.233,22.05,89.8,22,89.1,22
		c0.034-0.667,0.067-1.184,0.101-1.55l-0.05,0.05c0-0.1,0.017-0.167,0.05-0.2c0.066-0.1,0.283-0.25,0.649-0.45
		c1.034-0.6,1.934-0.85,2.7-0.75C92.583,19.1,92.616,19.117,92.65,19.15z M90.3,25c0.004-0.037,0.021-0.07,0.05-0.1v0.05
		C90.321,24.95,90.304,24.967,90.3,25z M97.5,32.6l0.25-0.449L97.7,32.5L97.5,32.6z M96.75,30.6c-0.167,0.367-0.467,0.584-0.9,0.65
		c-0.466,0.066-0.816-0.116-1.05-0.55c-0.033-0.101-0.05-0.184-0.05-0.25c0.1-0.134,0.217-0.267,0.35-0.4
		c0.101-0.1,0.334-0.416,0.7-0.95c0,0.167,0.017,0.351,0.05,0.551C95.917,30.017,96.217,30.333,96.75,30.6z M105.8,26.15
		c0.167,0,0.334,0.017,0.5,0.05c0.733,0.233,1.066,0.684,1,1.35c-0.333,0.101-0.899,0.2-1.7,0.3c0-0.133-0.017-0.25-0.05-0.35
		L104.1,27c0.233-0.233,0.45-0.4,0.65-0.5C105.083,26.333,105.434,26.217,105.8,26.15z M100,31.2c-0.3,0.1-0.667,0.184-1.1,0.25
		c-1.301,0.2-2-0.084-2.101-0.851c0.2,0.101,0.434,0.184,0.7,0.25c0.733,0.233,1.467,0.351,2.2,0.351C99.8,31.2,99.9,31.2,100,31.2z
		 M101.95,30.8c0.2-0.1,0.399-0.2,0.6-0.3c0.634-0.3,1.233-0.65,1.8-1.05c0.034,0.2,0,0.416-0.1,0.649L104,30.5l-0.45-0.05
		l-0.1,0.35c-0.4,0.134-0.884,0.134-1.45,0H101.95z M75.1,12.45c-0.267-0.034-0.583-0.1-0.949-0.2c-0.567-0.2-1-0.333-1.301-0.4
		c0-0.167-0.017-0.367-0.05-0.6c-0.033-0.6,0.066-0.983,0.3-1.15c0.134-0.1,0.367-0.15,0.7-0.15c0.033,0,0.066,0,0.101,0
		c0.066,0.066,0.166,0.133,0.3,0.2c0.233,0.1,0.467,0.167,0.7,0.2c0.166,0.133,0.316,0.217,0.449,0.25
		c0.034,0,0.067,0.017,0.101,0.05H75.4C75.267,11.05,75.167,11.65,75.1,12.45z M71.1,12.1c0,0.267,0,0.45,0,0.55
		c0.267-0.033,0.5-0.133,0.7-0.3c0.033,0,0.084,0,0.15,0c0.166,0.033,0.316,0.05,0.45,0.05c-0.034,0.333-0.067,0.767-0.101,1.3
		c-0.2,0.933-0.616,1.4-1.25,1.4c0.3-0.3-0.033-0.767-1-1.4c-0.366-1.3-0.583-1.983-0.649-2.05L69.3,11.8
		c-0.267-0.367-0.833-0.7-1.7-1c-0.5-0.167-1-0.3-1.5-0.4c0.067-0.133,0.167-0.267,0.301-0.4c0.267-0.3,0.533-0.467,0.8-0.5
		c0.3-0.033,0.566,0.05,0.8,0.25c0.233,0.167,0.366,0.4,0.4,0.7c0.866,0.066,1.333,0.1,1.399,0.1c0.533,0.1,0.884,0.317,1.05,0.65
		c0.034,0.1,0.067,0.267,0.101,0.5C70.95,11.833,71,11.967,71.1,12.1z M52.45,24.35c0.466,0.467,0.883,0.617,1.25,0.45
		c0-0.566,0.1-1.7,0.3-3.399c0.033,0,0.083,0,0.15,0c-0.033,0.267-0.066,0.55-0.1,0.85c0.034,0.4,0.35,0.667,0.95,0.8
		c0.5,0.167,0.85,0.134,1.05-0.1c0.133-0.2,0.233-0.601,0.3-1.2c0.133,0.7,0.717,1.267,1.75,1.7c0.867,0.399,1.683,0.55,2.45,0.45
		c0.133-0.934,0.117-1.967-0.05-3.101c1.3,0.767,2.167,0.9,2.6,0.4c0.167,0.1,0.351,0.233,0.551,0.399
		c0.399,0.233,0.8,0.15,1.199-0.25c0.167-0.166,0.317-0.316,0.45-0.449c0.467,0.233,0.816,0.483,1.05,0.75
		c0.334,0.5,0.417,1.149,0.25,1.949c-1.199-0.233-1.933-0.416-2.199-0.55c0.5,0.267,0.866,0.75,1.1,1.45
		c0.267,0.833,0.134,1.417-0.4,1.75c-0.399,0.233-0.966,0.2-1.699-0.1c-0.534-0.233-1.034-0.551-1.5-0.95
		c0,0.066-0.017,0.399-0.05,1c0,0.366-0.067,0.684-0.2,0.95c-0.767-0.067-1.367-0.467-1.8-1.2L59.7,27.7
		c-1.367,0.166-2.317-0.3-2.85-1.4c-0.467,1.101-0.934,1.566-1.4,1.4c-0.434-0.134-0.667-0.75-0.7-1.851
		c-0.667,0.867-1.317,1.051-1.95,0.551l-0.05-0.051V26.3l-0.05,0.05c-0.233-0.199-0.333-0.5-0.3-0.899
		C52.433,24.85,52.45,24.483,52.45,24.35z M67.6,19.85c-0.033,0.133-0.116,0.284-0.25,0.45c-0.233,0.267-0.666,0.4-1.3,0.4
		c-0.2-0.033-0.383-0.05-0.55-0.05c0.2-0.233,0.333-0.417,0.4-0.551c0.1-0.333,0.166-0.566,0.199-0.7
		c0.067-0.267,0.217-0.417,0.45-0.45c0.167-0.034,0.434,0.167,0.8,0.6C67.45,19.65,67.533,19.75,67.6,19.85z M51.1,21.55
		c-0.2-0.033-0.367-0.066-0.5-0.1c-0.067-0.334-0.033-0.684,0.1-1.05c0.1,0,0.216-0.017,0.35-0.051
		C51.083,20.616,51.1,21.017,51.1,21.55z M51.4,22.95c0.167,0.3,0.383,0.616,0.65,0.95c0.133,0.133,0.25,0.267,0.35,0.399
		c-0.867-0.066-1.383-0.133-1.55-0.2C50.95,23.733,51.133,23.35,51.4,22.95z M43.15,22.7c0-0.2-0.017-0.417-0.05-0.65
		c-0.267-1.633-0.383-2.55-0.35-2.75c0.467-0.033,0.75-0.083,0.85-0.15c0.066-0.033,0.133-0.133,0.2-0.3
		c0.434,0.467,0.6,0.983,0.5,1.55c-0.133,0.566-0.533,0.816-1.2,0.75c0.233,0.133,0.383,0.333,0.45,0.6
		c0.067,0.267,0.034,0.517-0.1,0.75C43.383,22.6,43.283,22.667,43.15,22.7z M35.7,28.4l-1.4-1c0.034-0.134,0.083-0.301,0.15-0.5
		c0.367-1.267,0.966-2.301,1.8-3.101c0.067,0,0.133,0.017,0.2,0.05c1,0.334,1.3-0.083,0.9-1.25c0.2-0.1,0.55-0.199,1.05-0.3
		c0,0.134-0.017,0.3-0.05,0.5c-0.033,0.334,0.033,0.566,0.2,0.7c0.067,0.1,0.167,0.134,0.3,0.1c0.133,0,0.233,0.017,0.3,0.051
		c0.167,0.1,0.267,0.25,0.3,0.449c0.066,0.267,0.15,0.45,0.25,0.551c0.2,0.233,0.667,0.333,1.4,0.3c0.533-0.066,0.933-0.15,1.2-0.25
		c0.867,0.833,1.2,1.633,1,2.399c-0.566,0-0.983-0.083-1.25-0.25C42.017,27.15,42,27.667,42,28.4
		c-0.033,0.633-0.25,1.017-0.65,1.149c-0.3,0.134-0.7,0.101-1.2-0.1c-0.1-0.033-0.183-0.084-0.25-0.15
		c0.067-0.066,0.117-0.166,0.15-0.3c0.1-0.333,0.117-0.733,0.05-1.2c-0.067-0.533-0.2-0.916-0.4-1.149h-2.5
		C36.2,26.55,35.7,27.134,35.7,28.4z M30.85,29.15c-0.4,0.433-0.517,0.966-0.35,1.6c0.4,0.066,0.733-0.1,1-0.5L30.85,29.15z
		 M34.25,27.7c-0.033,0.1-0.067,0.267-0.1,0.5c-0.033,0.399-0.017,0.666,0.05,0.8c0.333,0.434,0.7,0.6,1.1,0.5
		c0.233-0.066,0.4-0.217,0.5-0.45c0.1,0.2,0.284,0.351,0.55,0.45s0.783,0.15,1.55,0.15c0.7,0.033,1.117,0.05,1.25,0.05h0.05
		c0.033,0.633,0.017,1.283-0.05,1.95c-1.367,0.066-2.35-0.351-2.95-1.25c0.3,0.699,0.367,1.449,0.2,2.25
		c-0.367,0.033-0.717-0.117-1.05-0.45c-0.367-0.367-0.65-0.634-0.85-0.8c-0.033,0.267-0.05,0.649-0.05,1.149
		c0,0.4-0.133,0.667-0.4,0.8c-0.333,0.2-0.8,0.117-1.4-0.25c-0.467-0.3-0.867-0.649-1.2-1.05c0.033,0.167,0,0.45-0.1,0.851
		c-0.3,0.066-0.6,0.017-0.9-0.15l-0.05-0.5l-0.05,0.15c-0.467,0.066-0.867,0-1.2-0.2c-0.1-0.533-0.1-0.9,0-1.101
		c-0.233,0.367-0.517,0.634-0.85,0.801c-0.333,0.133-0.65,0.166-0.95,0.1c0.1-0.167,0.15-0.366,0.15-0.6
		c0.033-0.167,0.05-0.267,0.05-0.301c-0.033,0-0.117-0.033-0.25-0.1c-0.066,0-0.133,0-0.2,0c0.1-0.3,0.3-0.533,0.6-0.7
		c-1.233,0.5-2.034,0.533-2.4,0.101c-0.033-0.067-0.066-0.117-0.1-0.15c0.2-0.066,0.367-0.2,0.5-0.4L25.55,29.2
		c0.067-0.134,0.184-0.267,0.35-0.4c-0.033,0.233,0.05,0.467,0.25,0.7c1.067-0.267,1.767-0.967,2.1-2.1l-0.65-0.45
		c-0.1,0.166-0.3,0.383-0.6,0.649c-0.167,0-0.317-0.017-0.45-0.05c-0.033,0-0.066,0-0.1,0c0.233-0.2,0.383-0.434,0.45-0.7L25.1,27
		c-0.067-0.033-0.133-0.083-0.2-0.15c0.067-0.3,0.3-0.6,0.7-0.899c0.467-0.334,0.783-0.584,0.95-0.75
		c-1.033,0.2-1.883,0.083-2.55-0.351c0.2-0.366,0.333-0.649,0.4-0.85c0.067-0.2,0.117-0.384,0.15-0.55
		c0.267,0.1,0.65,0.116,1.15,0.05c0.933-0.134,1.483-0.083,1.65,0.15c0.066,0.066-0.033,0.449-0.3,1.149
		c-0.133,0.9,0.017,1.566,0.45,2c0.433,0.467,1.05,0.767,1.85,0.9c0.9,0.166,1.467-0.05,1.7-0.65c0.067,0.533,0.367,0.934,0.9,1.2
		c0.533,0.267,1.05,0.3,1.55,0.1c0.333-0.1,0.55-0.267,0.65-0.5L34.25,27.7z M55.65,17.3c0.033,0.034,0.067,0.067,0.1,0.1
		c-0.167,0.133-0.483,0.283-0.95,0.45c0.167-0.333,0.35-0.517,0.55-0.55C55.45,17.3,55.55,17.3,55.65,17.3z M54.05,21
		c0-0.067,0.018-0.117,0.05-0.15V20.9C54.068,20.933,54.051,20.966,54.05,21z M54.55,31.35l0.05,0.2l-0.05,0.2V31.35z M44.6,29.55
		l0.2-0.45l-0.15,0.4L44.6,29.55z M21.85,24.15c-0.067,0-0.133-0.017-0.2-0.051c-0.267-0.267-0.517-0.517-0.75-0.75
		C21.167,23.583,21.483,23.85,21.85,24.15z M14.9,30.1c0,0.2-0.033,0.45-0.1,0.75c-1.033-0.267-1.683-0.699-1.95-1.3
		c0.133,0.667,0.1,1.084-0.1,1.25c-0.533-0.333-0.817-0.517-0.85-0.55l-0.1,0.35c-0.433-0.233-0.833-0.566-1.2-1
		c0.033,0.5-0.1,0.9-0.4,1.2c-0.3-0.133-0.5-0.383-0.6-0.75c-0.1-0.467-0.184-0.8-0.25-1c-0.133,0.066-0.267,0.084-0.4,0.05
		c-0.133-0.033-0.233-0.05-0.3-0.05l-0.05-1.1c0.1-0.033,0.183-0.05,0.25-0.05c0.667-0.034,1.1,0.1,1.3,0.399
		c0.067,0.066,0.083,0.184,0.05,0.351c0,0.166,0.017,0.267,0.05,0.3c0.167,0.233,0.583,0.283,1.25,0.149
		c0.033,0.067,0.083,0.134,0.15,0.2c0.533,0.434,0.917,0.3,1.15-0.399V28.85c0.267,0,0.483,0.017,0.65,0.051
		c0.4,0.133,0.833,0.449,1.3,0.949C14.783,29.884,14.833,29.967,14.9,30.1z M34.05,29.65L33.2,29c-0.4,0.5-0.35,0.866,0.15,1.1
		C33.917,30.333,34.15,30.184,34.05,29.65z M30.4,35v-0.1l0.05,0.1H30.4z M21.35,29.2c-0.067-0.066-0.117-0.134-0.15-0.2
		c0.066,0.033,0.15,0.083,0.25,0.15C21.383,29.15,21.35,29.167,21.35,29.2z"/>
	
		<linearGradient id="SVGID_3_" gradientUnits="userSpaceOnUse" x1="22.4883" y1="-86.7305" x2="26.5383" y2="-86.7305" gradientTransform="matrix(2.469136e-004 1 -1 -0.001 -4.003282e-004 -1.272908e-004)">
		<stop  offset="0" style="stop-color:#FFFFFF"/>
		<stop  offset="1" style="stop-color:#C8DAE3"/>
	</linearGradient>
	<path style="fill-rule:evenodd;clip-rule:evenodd;fill:url(#SVGID_3_);" d="M89,22c0.033,0,0.066,0,0.1,0
		c0.7,0,1.134,0.05,1.301,0.15V23.3v1.55L90.35,24.9c-0.029,0.029-0.046,0.063-0.05,0.1c-0.166,0.167-0.416,0.45-0.75,0.85
		c-0.3,0.367-0.7,0.584-1.2,0.65c-1.433,0.167-2.716-0.017-3.85-0.55c-0.134-0.066-0.267-0.134-0.4-0.2c-0.6-0.4-0.933-0.884-1-1.45
		c-0.066-0.399-0.017-0.75,0.15-1.05c0.167-0.333,0.45-0.616,0.85-0.85c0.534-0.367,1.317-0.534,2.351-0.5
		c0.566,0,1.399,0.033,2.5,0.1H89z"/>
	<path style="fill-rule:evenodd;clip-rule:evenodd;fill:#939865;" d="M89.15,20.5l0.05-0.05c-0.033,0.366-0.066,0.883-0.101,1.55
		c-0.033,0-0.066,0-0.1,0c0-0.066,0-0.134,0-0.2c0.033-0.366,0.05-0.616,0.05-0.75C89.083,20.816,89.116,20.634,89.15,20.5z
		 M74.9,10.35c-0.233-0.033-0.467-0.1-0.7-0.2c-0.134-0.066-0.233-0.133-0.3-0.2c0.233,0,0.433,0.033,0.6,0.1
		C74.6,10.083,74.733,10.183,74.9,10.35z M71.8,12.35c-0.2,0.167-0.434,0.267-0.7,0.3c0-0.1,0-0.283,0-0.55
		c0.034,0,0.067,0.017,0.101,0.05C71.333,12.217,71.533,12.283,71.8,12.35z M59.3,21.15c0.034,0.5,0.017,0.883-0.05,1.149
		c-0.133,0.434-0.433,0.667-0.9,0.7c-0.067-0.233-0.1-0.517-0.1-0.85c0.033-0.367,0.05-0.65,0.05-0.851l0.9-0.2
		C59.233,21.1,59.267,21.116,59.3,21.15z M54,21.4c0.033-0.134,0.05-0.267,0.05-0.4c0.001-0.034,0.018-0.067,0.05-0.1
		c0.333-0.634,1.083-0.984,2.25-1.05L57,19.9c-0.333,0.567-0.767,1-1.3,1.3c-0.5,0.267-1.017,0.333-1.55,0.2
		C54.083,21.4,54.033,21.4,54,21.4z M34.25,27.7c0-0.101,0.017-0.2,0.05-0.3l1.4,1c0,0.267,0.033,0.483,0.1,0.649
		c-0.1,0.233-0.267,0.384-0.5,0.45c-0.4,0.1-0.767-0.066-1.1-0.5c-0.067-0.134-0.083-0.4-0.05-0.8
		C34.183,27.967,34.217,27.8,34.25,27.7z M30.85,29.15l0.65,1.1c-0.267,0.4-0.6,0.566-1,0.5C30.333,30.116,30.45,29.583,30.85,29.15
		z M25.9,28.8c0-0.233,0.133-0.467,0.4-0.7c0.267-0.199,0.5-0.366,0.7-0.5c0.3-0.267,0.5-0.483,0.6-0.649l0.65,0.45
		c-0.333,1.133-1.033,1.833-2.1,2.1C25.95,29.267,25.867,29.033,25.9,28.8z"/>
	
		<linearGradient id="SVGID_4_" gradientUnits="userSpaceOnUse" x1="26.6743" y1="-100.6904" x2="31.2243" y2="-100.6904" gradientTransform="matrix(2.197802e-004 1 -1 -0.001 -2.913843e-004 -1.272908e-004)">
		<stop  offset="0" style="stop-color:#FFFFFF"/>
		<stop  offset="1" style="stop-color:#C8DAE3"/>
	</linearGradient>
	<path style="fill-rule:evenodd;clip-rule:evenodd;fill:url(#SVGID_4_);" d="M96.75,30.6c-0.533-0.267-0.833-0.583-0.9-0.949
		c-0.033-0.2-0.05-0.384-0.05-0.551c-0.066-1,0.483-1.783,1.65-2.35c1-0.5,2.2-0.75,3.6-0.75l3.05,1l1.45,0.5
		c0.033,0.1,0.05,0.217,0.05,0.35c-0.033,0.2-0.116,0.434-0.25,0.7c-0.333,0.334-0.666,0.634-1,0.9
		c-0.566,0.399-1.166,0.75-1.8,1.05c-0.2,0.1-0.399,0.2-0.6,0.3c-0.634,0.267-1.283,0.4-1.95,0.4c-0.1,0-0.2,0-0.3,0
		c-0.733,0-1.467-0.117-2.2-0.351c-0.267-0.066-0.5-0.149-0.7-0.25H96.75z"/>
	
		<linearGradient id="SVGID_5_" gradientUnits="userSpaceOnUse" x1="25.5625" y1="-75.1904" x2="37.8875" y2="-75.1904" gradientTransform="matrix(8.113591e-005 1 -1 -0.001 4.576711e-004 -1.263395e-004)">
		<stop  offset="0" style="stop-color:#FFFFFF"/>
		<stop  offset="1" style="stop-color:#C8DAE3"/>
	</linearGradient>
	<path style="fill-rule:evenodd;clip-rule:evenodd;fill:url(#SVGID_5_);" d="M80.75,37.3c0.733-0.399,1.05-1,0.95-1.8l-1.8-1.35
		c-0.834-1-1.5-1.617-2-1.851c-0.534-0.233-1.317-0.316-2.351-0.25c-0.434,0.033-1.217,0.134-2.35,0.3
		c-0.934,0.134-1.65,0.351-2.15,0.65c-0.3,0.167-0.55,0.366-0.75,0.6c-0.467,0.034-0.767,0.051-0.899,0.051H68.55H67.1
		c-0.366,0.033-0.633,0.033-0.8,0h-0.05c-0.2-0.067-0.333-0.25-0.4-0.551c-0.133-0.566,0.2-0.949,1-1.149
		c0.067-0.033,0.434-0.066,1.101-0.101c0.166,0,0.316-0.017,0.45-0.05c0.166-0.066,0.283-0.184,0.35-0.35
		c0.066-0.101,0.083-0.3,0.05-0.601V30.8c-0.066-0.3-0.05-0.517,0.05-0.649c0.334-0.233,0.567-0.45,0.7-0.65
		c-0.066-0.434,0-0.816,0.2-1.15l0.7-0.649c0.5-0.233,0.967-0.3,1.399-0.2c0.434-0.033,0.667-0.116,0.7-0.25
		c0-0.233,0.05-0.5,0.15-0.8c0.133-0.4,0.5-0.75,1.1-1.05c0.267-0.167,0.584-0.317,0.95-0.45c-0.2-0.8,0.134-1.233,1-1.3
		c0.833-0.067,1.5,0,2,0.199c0.4,0.167,0.717,0.4,0.95,0.7c0.1,0.101,0.333,0.467,0.7,1.101l1.5-0.801
		c0.5,0.233,0.949,0.467,1.35,0.7c0.5,0.334,0.9,0.667,1.2,1c0.133,0.167,0.267,0.334,0.399,0.5c0.4,0.634,0.634,1.4,0.7,2.3
		c0.033,0.534,0.017,1.017-0.05,1.45c-0.066,0.334-0.167,0.617-0.3,0.851c-0.167,0.366-0.4,0.783-0.7,1.25
		c-0.233,0.399-0.333,0.866-0.3,1.399c0,0.2,0.1,0.767,0.3,1.7c0,0.066,0.017,0.134,0.05,0.2c0.101,0.6,0.084,1.083-0.05,1.45
		c-0.667,0.133-1.316,0.116-1.95-0.051C81.283,37.5,81.017,37.4,80.75,37.3z"/>
	
		<linearGradient id="SVGID_6_" gradientUnits="userSpaceOnUse" x1="1.8408" y1="-71.7539" x2="12.5158" y2="-71.7539" gradientTransform="matrix(9.367682e-005 1 -1 -0.001 -1.238254e-004 -1.263395e-004)">
		<stop  offset="0" style="stop-color:#FFFFFF"/>
		<stop  offset="1" style="stop-color:#C8DAE3"/>
	</linearGradient>
	<path style="fill-rule:evenodd;clip-rule:evenodd;fill:url(#SVGID_6_);" d="M66.1,10.4c-0.166,0.133-0.3,0.217-0.399,0.25
		c-0.467,0.1-0.95-0.033-1.45-0.4c-0.033-0.033-0.083-0.067-0.15-0.1c-0.066-0.033-0.116-0.066-0.149-0.1
		c-0.167-0.2-0.283-0.4-0.351-0.6c-0.066-0.233-0.083-0.583-0.05-1.05l0.15-2.3c0.033-0.434,0.149-0.783,0.35-1.05
		C64.184,4.917,64.5,4.667,65,4.3c0.2-0.133,0.467-0.383,0.8-0.75c0.3-0.333,0.55-0.566,0.75-0.7c0.4-0.233,1.233-0.35,2.5-0.35
		l2.65-0.85c0.533-1.066,1.883-1.566,4.05-1.5c0.634,0.033,1.3,0.25,2,0.65c2.134,1.167,2.733,2.517,1.8,4.05
		c-0.233,0.367-0.366,0.617-0.399,0.75c-0.067,0.2-0.101,0.5-0.101,0.9c0,0.667-0.05,1.067-0.149,1.2C78.8,7.9,78.467,8,77.9,8
		H77.85c-0.466-0.033-0.8-0.033-1,0c-0.333,0.033-0.533,0.2-0.6,0.5c-0.066,0.133,0,0.467,0.2,1l-1,1.15
		c-0.033-0.033-0.066-0.05-0.101-0.05c-0.133-0.033-0.283-0.117-0.449-0.25c-0.167-0.167-0.301-0.267-0.4-0.3
		c-0.167-0.066-0.366-0.1-0.6-0.1c-0.034,0-0.067,0-0.101,0c-0.333,0-0.566,0.05-0.7,0.15c-0.233,0.167-0.333,0.55-0.3,1.15
		c0.033,0.233,0.05,0.433,0.05,0.6c-0.033,0.2-0.1,0.333-0.199,0.4c-0.067,0.067-0.15,0.117-0.25,0.15
		c-0.134,0-0.284-0.017-0.45-0.05c-0.066,0-0.117,0-0.15,0c-0.267-0.067-0.467-0.133-0.6-0.2c-0.033-0.033-0.066-0.05-0.101-0.05
		c-0.1-0.133-0.149-0.267-0.149-0.4c-0.033-0.233-0.066-0.4-0.101-0.5c-0.166-0.333-0.517-0.55-1.05-0.65
		c-0.066,0-0.533-0.033-1.399-0.1c-0.034-0.3-0.167-0.534-0.4-0.7c-0.233-0.2-0.5-0.283-0.8-0.25c-0.267,0.033-0.533,0.2-0.8,0.5
		C66.267,10.133,66.167,10.267,66.1,10.4z"/>
	
		<linearGradient id="SVGID_7_" gradientUnits="userSpaceOnUse" x1="10.3613" y1="-75.9736" x2="16.9863" y2="-75.9736" gradientTransform="matrix(1.509434e-004 1 -1 -0.001 -3.643888e-004 -1.272908e-004)">
		<stop  offset="0" style="stop-color:#FFFFFF"/>
		<stop  offset="1" style="stop-color:#C8DAE3"/>
	</linearGradient>
	<path style="fill-rule:evenodd;clip-rule:evenodd;fill:url(#SVGID_7_);" d="M76.9,15.3c-0.067,0.367-0.184,0.717-0.351,1.05
		c-0.3,0.6-0.684,0.733-1.149,0.4c-0.067-0.033-0.117-0.15-0.15-0.35c-0.134-0.4-0.2-1.117-0.2-2.15c0-0.667,0.017-1.267,0.05-1.8
		c0.067-0.8,0.167-1.4,0.301-1.8h0.05l1-1.15l0.1-0.15v0.4v1.6c0,0.8,0.117,1.967,0.351,3.5C76.9,15.017,76.9,15.167,76.9,15.3z"/>
	
		<linearGradient id="SVGID_8_" gradientUnits="userSpaceOnUse" x1="10.665" y1="-59.8193" x2="25.115" y2="-59.8193" gradientTransform="matrix(6.920416e-005 1 -1 -0.001 1.321857e-004 -1.263395e-004)">
		<stop  offset="0" style="stop-color:#FFFFFF"/>
		<stop  offset="1" style="stop-color:#C8DAE3"/>
	</linearGradient>
	<path style="fill-rule:evenodd;clip-rule:evenodd;fill:url(#SVGID_8_);" d="M54,21.4c-0.2,1.699-0.3,2.833-0.3,3.399
		c-0.367,0.167-0.784,0.017-1.25-0.45L52.4,24.3c-0.1-0.133-0.217-0.267-0.35-0.399c-0.267-0.334-0.483-0.65-0.65-0.95
		c-0.167-0.3-0.283-0.584-0.35-0.851c0-0.199,0.017-0.383,0.05-0.55c0-0.533-0.017-0.934-0.05-1.2
		C50.917,20.384,50.8,20.4,50.7,20.4c-0.267,0.033-0.483,0.066-0.65,0.1c-0.333,0.033-0.6,0.05-0.8,0.05
		c-0.067,0-0.133-0.017-0.2-0.05c-0.133-0.066-0.25-0.167-0.35-0.3c-0.167-0.233-0.233-0.583-0.2-1.05c0-0.066,0-0.133,0-0.2
		c0.033-0.5,0.15-0.917,0.35-1.25c0.066-0.133,0.35-0.483,0.85-1.05c0.3-0.367,0.466-0.733,0.5-1.1v-1.9
		c0-1.066,0.017-1.717,0.05-1.95c0.133-0.833,0.45-1.333,0.95-1.5c0.133-0.034,0.367-0.034,0.7,0c0.3,0.033,0.517,0.017,0.65-0.05
		c0.1-0.066,0.217-0.2,0.35-0.4c0.167-0.2,0.283-0.333,0.35-0.4c0.5-0.434,1.517-0.767,3.05-1c1.034-0.1,2.284,0.283,3.75,1.15
		l2.2,0.55l0.55,0.15l3.9,0.95c0.066,0.3,0.383,0.633,0.95,1c0.699,0.467,1.116,0.783,1.25,0.95c0.5,0.7,0.767,1.267,0.8,1.7
		c0.033,0.133,0.033,0.4,0,0.8c-0.033,0.3,0,0.55,0.1,0.75c0.066,0.167,0.3,0.4,0.7,0.7c0.333,0.233,0.533,0.5,0.6,0.8
		c0.067,0.467,0.067,1.033,0,1.7c-0.033,0.133-0.066,0.284-0.1,0.45c-0.033,0.366-0.083,0.566-0.15,0.6
		c-0.033,0-0.066,0.017-0.1,0.051c-0.167,0-0.316,0-0.45,0c-0.767,0.133-1.5,0.017-2.2-0.351c-0.066-0.033-0.233-0.184-0.5-0.45
		c-0.066-0.1-0.149-0.2-0.25-0.3c-0.366-0.433-0.633-0.633-0.8-0.6c-0.233,0.033-0.383,0.183-0.45,0.45
		c-0.033,0.133-0.1,0.367-0.199,0.7c-0.067,0.134-0.2,0.317-0.4,0.551c-0.066,0.066-0.134,0.149-0.2,0.25
		c-0.133,0.133-0.283,0.283-0.45,0.449c-0.399,0.4-0.8,0.483-1.199,0.25c-0.2-0.166-0.384-0.3-0.551-0.399
		c-0.267-0.2-0.483-0.367-0.649-0.5c-0.467-0.367-0.817-0.634-1.05-0.8c-0.433-0.267-0.783-0.283-1.05-0.05
		c-0.067,0.066-0.167,0.35-0.3,0.85c-0.066,0.366-0.233,0.533-0.5,0.5c-0.1,0-0.183-0.017-0.25-0.05
		c-0.033-0.034-0.066-0.051-0.1-0.051c-0.2-0.166-0.333-0.449-0.4-0.85c-0.033-0.733-0.066-1.2-0.1-1.4l-2.15-1
		c-0.233-0.2-0.417-0.333-0.55-0.4c-0.133-0.067-0.25-0.117-0.35-0.15c-0.1,0-0.2,0-0.3,0c-0.2,0.034-0.383,0.217-0.55,0.55
		c-0.3,0.566-0.533,1.566-0.7,3c-0.033,0.033-0.05,0.083-0.05,0.15C54.05,21.134,54.033,21.267,54,21.4z"/>
	<path style="fill-rule:evenodd;clip-rule:evenodd;fill:#848958;" d="M12,25.25c-0.167,0.066-0.367,0.15-0.6,0.25l0.05-0.1
		c0.156-0.125,0.331-0.176,0.525-0.15H12z M54.8,17.85c0.467-0.167,0.784-0.317,0.95-0.45c-0.033-0.033-0.067-0.066-0.1-0.1
		c0.1,0.034,0.217,0.083,0.35,0.15c0.133,0.066,0.317,0.2,0.55,0.4l2.15,1c0.033,0.2,0.066,0.667,0.1,1.4
		c0.067,0.4,0.2,0.684,0.4,0.85l-0.9,0.2c0,0.2-0.017,0.483-0.05,0.851c0,0.333,0.033,0.616,0.1,0.85
		c0.467-0.033,0.767-0.267,0.9-0.7c0.067-0.267,0.083-0.649,0.05-1.149c0.067,0.033,0.15,0.05,0.25,0.05
		c0.267,0.033,0.434-0.134,0.5-0.5c0.133-0.5,0.233-0.784,0.3-0.85c0.267-0.233,0.617-0.217,1.05,0.05
		c0.233,0.167,0.583,0.433,1.05,0.8c0.166,0.133,0.383,0.3,0.649,0.5c-0.433,0.5-1.3,0.366-2.6-0.4
		c0.167,1.134,0.183,2.167,0.05,3.101c-0.767,0.1-1.583-0.051-2.45-0.45c-1.033-0.434-1.617-1-1.75-1.7c-0.067,0.6-0.167,1-0.3,1.2
		c-0.2,0.233-0.55,0.267-1.05,0.1c-0.6-0.133-0.917-0.399-0.95-0.8c0.034-0.3,0.067-0.583,0.1-0.85c0.533,0.133,1.05,0.066,1.55-0.2
		c0.533-0.3,0.966-0.733,1.3-1.3l-0.65-0.05c-1.167,0.066-1.917,0.417-2.25,1.05V20.85C54.267,19.417,54.5,18.417,54.8,17.85z
		 M38.4,22.3c-0.5,0.101-0.85,0.2-1.05,0.3c0.4,1.167,0.1,1.584-0.9,1.25c-0.067-0.033-0.133-0.05-0.2-0.05v-0.05
		c0.467-0.4,0.75-0.733,0.85-1L37.2,22c0.033-0.134,0.2-0.25,0.5-0.35c0.3-0.134,0.466-0.167,0.5-0.101c0.066,0,0.133,0.15,0.2,0.45
		C38.433,22.033,38.433,22.134,38.4,22.3z M12.8,28.85V28.9c-0.233,0.699-0.617,0.833-1.15,0.399c-0.066-0.066-0.117-0.133-0.15-0.2
		c0.1-0.033,0.217-0.066,0.35-0.1C12.217,28.9,12.533,28.85,12.8,28.85z"/>
	
		<linearGradient id="SVGID_9_" gradientUnits="userSpaceOnUse" x1="20.2222" y1="-77.9541" x2="22.2222" y2="-77.9541" gradientTransform="matrix(5.000000e-004 1 -1 -0.001 -4.180467e-004 -1.227539e-004)">
		<stop  offset="0" style="stop-color:#FFFFFF"/>
		<stop  offset="1" style="stop-color:#C8DAE3"/>
	</linearGradient>
	<path style="fill-rule:evenodd;clip-rule:evenodd;fill:url(#SVGID_9_);" d="M79.7,20.85l0.5,0.301c0,0.566-0.15,0.916-0.45,1.05
		c-0.366,0.133-1.017,0.133-1.95,0c-0.967-0.134-1.583-0.351-1.85-0.65c-0.434-0.533-0.233-0.95,0.6-1.25
		c0.634-0.233,1.25-0.333,1.851-0.3l0.1,0.05L79.7,20.85z"/>
	
		<linearGradient id="SVGID_10_" gradientUnits="userSpaceOnUse" x1="18.5864" y1="-75.9717" x2="19.5614" y2="-75.9717" gradientTransform="matrix(0.001 1 -1 -0.001 -3.787482e-004 -1.081917e-004)">
		<stop  offset="0" style="stop-color:#FFFFFF"/>
		<stop  offset="1" style="stop-color:#C8DAE3"/>
	</linearGradient>
	<path style="fill-rule:evenodd;clip-rule:evenodd;fill:url(#SVGID_10_);" d="M76.4,18.85c-0.4,0.933-0.65,1.1-0.75,0.5
		c-0.167-0.667-0.034-0.95,0.399-0.85L76.4,18.85z"/>
	
		<linearGradient id="SVGID_11_" gradientUnits="userSpaceOnUse" x1="13.6055" y1="-32.1143" x2="28.7305" y2="-32.1143" gradientTransform="matrix(6.611570e-005 1 -1 -0.001 4.112887e-004 -1.216927e-004)">
		<stop  offset="0" style="stop-color:#FFFFFF"/>
		<stop  offset="1" style="stop-color:#C8DAE3"/>
	</linearGradient>
	<path style="fill-rule:evenodd;clip-rule:evenodd;fill:url(#SVGID_11_);" d="M38.4,22.3c0.033-0.166,0.033-0.267,0-0.3
		c-0.066-0.3-0.133-0.45-0.2-0.45c-0.034-0.066-0.2-0.033-0.5,0.101c-0.3,0.1-0.467,0.216-0.5,0.35l-0.1,0.75
		c-0.1,0.267-0.383,0.6-0.85,1v0.05c-0.833,0.8-1.433,1.834-1.8,3.101c-0.067,0.199-0.117,0.366-0.15,0.5
		c-0.033,0.1-0.05,0.199-0.05,0.3l-0.1,0.149c-0.1,0.233-0.316,0.4-0.65,0.5c-0.5,0.2-1.017,0.167-1.55-0.1
		c-0.534-0.267-0.833-0.667-0.9-1.2c-0.233,0.601-0.8,0.816-1.7,0.65c-0.8-0.134-1.417-0.434-1.85-0.9
		c-0.433-0.434-0.583-1.1-0.45-2c0.267-0.7,0.367-1.083,0.3-1.149c-0.167-0.233-0.717-0.284-1.65-0.15
		c-0.5,0.066-0.883,0.05-1.15-0.05c-0.2-0.066-0.333-0.167-0.4-0.3c-0.033-0.034-0.066-0.067-0.1-0.101V22
		c-1.167,0.033-2.15,0.05-2.95,0.05c-1.133,0-1.8-0.166-2-0.5c-0.067-0.1-0.083-0.233-0.05-0.399c0.067-0.267,0.333-0.567,0.8-0.9
		c0.5-0.333,0.767-0.6,0.8-0.8c0.033-0.133,0.017-0.367-0.05-0.7c-0.1-0.3-0.117-0.533-0.05-0.7c0.1-0.367,0.5-0.683,1.2-0.95
		c0.733-0.267,1.167-0.533,1.3-0.8c0.034-0.1,0.034-0.283,0-0.55c0-0.267,0.05-0.467,0.15-0.6c0.2-0.2,0.533-0.35,1-0.45
		c0.533-0.133,0.883-0.25,1.05-0.35c0.367-0.467,0.683-0.783,0.95-0.95l1.1-0.85c0.5-0.4,1.15-0.617,1.95-0.65
		c1.3-0.033,1.983-0.05,2.05-0.05c0.133-0.033,0.5-0.15,1.1-0.35c0.434-0.167,0.8-0.267,1.1-0.3c0.367-0.034,0.95,0.05,1.75,0.25
		c0.033,0,1.2,0.033,3.5,0.1c1.8,0,2.783,0.317,2.95,0.95h1.35c0.8,0.567,1.3,0.95,1.5,1.15c0.434,0.467,0.65,1.017,0.65,1.65
		c0,0.833-0.434,1.233-1.3,1.2c-0.033,0.2-0.033,0.533,0,1c0.033,0.133,0.05,0.25,0.05,0.35c0,0.267-0.017,0.483-0.05,0.65
		c0,0.033,0,0.083,0,0.15c-0.033,0.067-0.066,0.133-0.1,0.2c-0.066,0.167-0.133,0.267-0.2,0.3c-0.1,0.067-0.383,0.117-0.85,0.15
		c-0.033,0.2,0.083,1.117,0.35,2.75c0.033,0.233,0.05,0.45,0.05,0.65c0.033,0.866-0.183,1.483-0.65,1.85
		c-0.067,0.033-0.133,0.084-0.2,0.15c-0.267,0.1-0.667,0.184-1.2,0.25c-0.733,0.033-1.2-0.066-1.4-0.3
		c-0.1-0.101-0.184-0.284-0.25-0.551c-0.034-0.199-0.133-0.35-0.3-0.449c-0.066-0.034-0.167-0.051-0.3-0.051
		c-0.133,0.034-0.233,0-0.3-0.1c-0.167-0.134-0.233-0.366-0.2-0.7C38.383,22.6,38.4,22.434,38.4,22.3z"/>
	
		<linearGradient id="SVGID_12_" gradientUnits="userSpaceOnUse" x1="32.7866" y1="-75.6348" x2="37.8616" y2="-75.6348" gradientTransform="matrix(1.970444e-004 1 -1 -0.001 4.128781e-004 -1.272908e-004)">
		<stop  offset="0" style="stop-color:#FFFFFF"/>
		<stop  offset="1" style="stop-color:#C8DAE3"/>
	</linearGradient>
	<path style="fill-rule:evenodd;clip-rule:evenodd;fill:url(#SVGID_12_);" d="M70.3,33.6c0.2-0.233,0.45-0.433,0.75-0.6
		c0.5-0.3,1.217-0.517,2.15-0.65c1.133-0.166,1.916-0.267,2.35-0.3c1.033-0.066,1.816,0.017,2.351,0.25
		c0.5,0.233,1.166,0.851,2,1.851l1.8,1.35c0.1,0.8-0.217,1.4-0.95,1.8c-0.634,0.334-1.583,0.517-2.85,0.55
		c-0.967,0.034-2.65-0.133-5.051-0.5c-1.166-0.133-2.05-0.433-2.649-0.899c-0.334-0.267-0.533-0.533-0.601-0.8
		c-0.066-0.233-0.033-0.567,0.101-1C69.833,34.25,70.033,33.9,70.3,33.6z"/>
	
		<linearGradient id="SVGID_13_" gradientUnits="userSpaceOnUse" x1="34.2339" y1="-66.2744" x2="37.4339" y2="-66.2744" gradientTransform="matrix(3.125000e-004 1 -1 -0.001 -3.835292e-004 -1.245467e-004)">
		<stop  offset="0" style="stop-color:#FFFFFF"/>
		<stop  offset="1" style="stop-color:#C8DAE3"/>
	</linearGradient>
	<path style="fill-rule:evenodd;clip-rule:evenodd;fill:url(#SVGID_13_);" d="M66.25,33.8c0.8-0.166,1.35-0.1,1.65,0.2l0.3,0.35
		l0.85,1c-0.133,0.267-0.316,0.65-0.55,1.15c-0.2,0.434-0.5,0.717-0.9,0.85c-0.166,0.067-0.5,0.084-1,0.051
		c-0.5-0.034-0.833-0.051-1-0.051c-0.566,0-0.916-0.017-1.05-0.05c-0.399-0.066-0.684-0.233-0.85-0.5
		c-0.334-0.6-0.2-1.217,0.399-1.85l0.051-0.05c0.533-0.601,1.116-0.95,1.75-1.051C66,33.816,66.116,33.8,66.25,33.8z"/>
	
		<linearGradient id="SVGID_14_" gradientUnits="userSpaceOnUse" x1="26.1348" y1="-15.2305" x2="32.9348" y2="-15.2305" gradientTransform="matrix(1.470588e-004 1 -1 -0.001 -2.137856e-004 -1.207413e-004)">
		<stop  offset="0" style="stop-color:#FFFFFF"/>
		<stop  offset="1" style="stop-color:#C8DAE3"/>
	</linearGradient>
	<path style="fill-rule:evenodd;clip-rule:evenodd;fill:url(#SVGID_14_);" d="M21.2,29c0.033,0.066,0.083,0.134,0.15,0.2
		c0.133,0.2,0.35,0.383,0.65,0.55c0.133,0.033,0.267,0.083,0.4,0.15c0.5,0.199,0.883,0.399,1.15,0.6
		c0.067,0.033,0.117,0.083,0.15,0.15c0.533,0.566,0.566,1.05,0.1,1.449c-0.2,0.134-0.483,0.267-0.85,0.4
		c-0.667,0.233-1.267,0.35-1.8,0.35c-0.4,0-0.767-0.066-1.1-0.199c-0.133-0.034-0.267-0.117-0.4-0.25c-0.2-0.2-0.4-0.5-0.6-0.9
		c-0.1-0.167-0.183-0.316-0.25-0.45c-0.267-0.333-0.517-0.517-0.75-0.55c-0.3-0.033-0.6,0.15-0.9,0.55
		c-0.233,0.3-0.417,0.5-0.55,0.601c-0.1,0.033-0.167,0.05-0.2,0.05c-0.133,0.033-0.333-0.084-0.6-0.351
		c-0.1-0.133-0.2-0.267-0.3-0.399c-0.267-0.4-0.467-0.684-0.6-0.851c-0.066-0.133-0.117-0.216-0.15-0.25
		c-0.467-0.5-0.9-0.816-1.3-0.949c-0.167-0.034-0.383-0.051-0.65-0.051c-0.267,0-0.583,0.051-0.95,0.15
		c-0.133,0.033-0.25,0.066-0.35,0.1c-0.667,0.134-1.083,0.084-1.25-0.149c-0.033-0.033-0.05-0.134-0.05-0.3
		c0.033-0.167,0.017-0.284-0.05-0.351c-0.2-0.3-0.633-0.434-1.3-0.399c-0.067,0-0.15,0.017-0.25,0.05C8,27.983,7.567,28,7.3,28
		c-0.3,0-0.517-0.017-0.65-0.05c-0.033,0-0.066-0.017-0.1-0.05c-0.167-0.134-0.233-0.384-0.2-0.75c0.1-0.634,0.483-1.084,1.15-1.351
		c0.333-0.1,0.783-0.116,1.35-0.05c0.667,0.1,1.133,0.134,1.4,0.1c0.233-0.033,0.55-0.116,0.95-0.25l0.05-0.05
		c0.067-0.033,0.117-0.05,0.15-0.05c0.233-0.1,0.434-0.184,0.6-0.25c0.1-0.033,0.2-0.05,0.3-0.05c1.5-0.233,2.617-0.25,3.35-0.05
		c0.4,0.1,0.867,0.366,1.4,0.8c0.633,0.5,0.85,0.899,0.65,1.2l1.65,0.3l0.55,0.05c0.4,0.033,0.7,0.217,0.9,0.55
		C20.9,28.217,21.033,28.533,21.2,29z"/>
	
		<linearGradient id="SVGID_15_" gradientUnits="userSpaceOnUse" x1="27.0244" y1="-37.9092" x2="29.6994" y2="-37.9092" gradientTransform="matrix(3.738318e-004 1 -1 -0.001 1.969874e-004 -1.245467e-004)">
		<stop  offset="0" style="stop-color:#FFFFFF"/>
		<stop  offset="1" style="stop-color:#C8DAE3"/>
	</linearGradient>
	<path style="fill-rule:evenodd;clip-rule:evenodd;fill:url(#SVGID_15_);" d="M39.2,29.7h-0.05c-0.133,0-0.55-0.017-1.25-0.05
		c-0.767,0-1.283-0.051-1.55-0.15s-0.45-0.25-0.55-0.45c-0.066-0.166-0.1-0.383-0.1-0.649c0-1.267,0.5-1.851,1.5-1.75h2.5
		c0.2,0.233,0.333,0.616,0.4,1.149c0.066,0.467,0.05,0.867-0.05,1.2c-0.033,0.134-0.083,0.233-0.15,0.3
		C39.733,29.5,39.5,29.634,39.2,29.7z"/>
	
		<linearGradient id="SVGID_16_" gradientUnits="userSpaceOnUse" x1="29.1167" y1="-33.4731" x2="30.1167" y2="-33.4731" gradientTransform="matrix(9.999996e-004 1 -1 -0.001 1.447822e-004 -1.081917e-004)">
		<stop  offset="0" style="stop-color:#FFFFFF"/>
		<stop  offset="1" style="stop-color:#C8DAE3"/>
	</linearGradient>
	<path style="fill-rule:evenodd;clip-rule:evenodd;fill:url(#SVGID_16_);" d="M34.05,29.65c0.1,0.533-0.133,0.683-0.7,0.449
		c-0.5-0.233-0.55-0.6-0.15-1.1L34.05,29.65z"/>
	
		<linearGradient id="SVGID_17_" gradientUnits="userSpaceOnUse" x1="28.2759" y1="-24.3501" x2="30.2759" y2="-24.3501" gradientTransform="matrix(5.000000e-004 1 -1 -0.001 -4.180467e-004 -1.227539e-004)">
		<stop  offset="0" style="stop-color:#FFFFFF"/>
		<stop  offset="1" style="stop-color:#C8DAE3"/>
	</linearGradient>
	<path style="fill-rule:evenodd;clip-rule:evenodd;fill:url(#SVGID_17_);" d="M25.2,30.25c-0.067,0.033-0.117,0.05-0.15,0.05
		c-0.233,0.033-0.517,0.017-0.85-0.05c-0.7-0.167-1.083-0.483-1.15-0.95c-0.066-0.399,0.017-0.7,0.25-0.899
		c0.1-0.101,0.233-0.184,0.4-0.25C23.933,28.05,24.433,28,25.2,28l0.05,0.15l0.3,1.05l0.15,0.649
		C25.567,30.05,25.4,30.184,25.2,30.25z"/>
</g>
</svg>
