<?xml version="1.0" encoding="iso-8859-1"?>
<!-- Generator: Adobe Illustrator 15.1.0, SVG Export Plug-In . SVG Version: 6.00 Build 0)  -->
<!DOCTYPE svg PUBLIC "-//W3C//DTD SVG 1.1//EN" "http://www.w3.org/Graphics/SVG/1.1/DTD/svg11.dtd">
<svg version="1.1" id="FlashAICB" xmlns="http://www.w3.org/2000/svg" xmlns:xlink="http://www.w3.org/1999/xlink" x="0px" y="0px"
	 width="103.7px" height="34.6px" viewBox="0 0 103.7 34.6" style="enable-background:new 0 0 103.7 34.6;" xml:space="preserve">
<g>
	
		<linearGradient id="SVGID_1_" gradientUnits="userSpaceOnUse" x1="-0.4517" y1="-51.8672" x2="35.0483" y2="-51.8672" gradientTransform="matrix(2.816902e-005 1 -1 -0.001 -1.682329e-004 -1.722632e-004)">
		<stop  offset="0" style="stop-color:#FFFFFF"/>
		<stop  offset="1" style="stop-color:#C8DAE3"/>
	</linearGradient>
	<path style="fill-rule:evenodd;clip-rule:evenodd;fill:url(#SVGID_1_);" d="M37.35,0.35c0.433,0.133,1.083,0.367,1.95,0.7
		c0.8,0.267,1.466,0.367,2,0.3l9.75,0.45c0.899,0,2.433-0.167,4.6-0.5c1.967-0.333,3.533-0.433,4.699-0.3C61.45,1.133,63,1.2,65,1.2
		c2.2,0.033,3.767,0.083,4.7,0.15c0.899,0.066,2.717,0.117,5.45,0.15c2.366,0,4.184,0.1,5.449,0.3
		c0.567,0.067,1.167,0.267,1.801,0.6c0.366,0.167,0.934,0.45,1.699,0.85c0.801,0.367,1.783,0.7,2.951,1
		c0.666,0.167,1.683,0.383,3.049,0.65c0.768,0.167,2.768,0.45,6,0.85c2.5,0.3,4.451,0.75,5.851,1.35c0.667,0.3,1.083,0.533,1.25,0.7
		c0.3,0.3,0.467,0.8,0.5,1.5c0.033,0.733-0.033,1.233-0.2,1.5c-0.166,0.267-0.55,0.517-1.15,0.75c-0.266,0.1-0.717,0.117-1.35,0.05
		c-0.666-0.033-1.133-0.017-1.4,0.05c-1.166,0.367-2.033,0.617-2.6,0.75c-2.9,0.233-4.983,0.467-6.25,0.7
		c-2.233,0.433-3.717,1.833-4.449,4.2c-0.201,0.7-0.367,1.817-0.5,3.351c-0.234,1.166-0.9,1.816-2,1.949
		C82.834,22.7,82,22.3,81.301,21.4c-1.168-1.5-1.784-2.283-1.851-2.351c-1.033-0.833-2.267-1.083-3.7-0.75
		c-0.699,0.167-2,0.7-3.9,1.601c-1.467,0.732-2.717,1.217-3.75,1.449c-1.199,0.234-2.449,0.2-3.75-0.1c-1-0.267-1.732-0.4-2.199-0.4
		c-0.867-0.066-1.6,0.101-2.2,0.5c-0.267,0.2-0.567,0.617-0.899,1.25c-0.301,0.667-0.601,1.084-0.9,1.25c-0.233,0.167-1.1,0.5-2.6,1
		c-1.101,0.367-1.9,0.917-2.4,1.65c-0.167,0.267-0.35,0.8-0.551,1.6c-0.199,0.7-0.449,1.184-0.75,1.45
		c-0.366,0.333-0.85,0.5-1.45,0.5c-0.933,0-1.45,0-1.55,0c-0.833,0.167-1.65,0.483-2.45,0.95c-0.9,0.5-1.55,1.084-1.95,1.75
		c-0.133,0.267-0.217,0.7-0.25,1.3c0,0.233-0.367,0.4-1.1,0.5c-3.033,0.4-4.833-1.966-5.4-7.1c-0.167-1.333-0.467-2.25-0.9-2.75
		c-0.5-0.567-1.4-0.833-2.7-0.8c-0.267,0-1.367,0.333-3.3,1C29.7,25.3,28.783,25,28.05,24c-0.1-0.133-0.3-0.517-0.6-1.15
		c-0.233-0.533-0.5-0.883-0.8-1.05c-0.267-0.167-0.683-0.2-1.25-0.1c-0.633,0.066-1.066,0.05-1.3-0.05
		c-0.4-0.167-0.817-0.518-1.25-1.051c-0.367-0.366-0.85-0.583-1.45-0.649c-0.466-0.067-0.85-0.05-1.15,0.05
		c-0.233,0.033-0.583,0.184-1.05,0.45c-0.2,0.134-0.55,0.5-1.05,1.1c-0.466,0.534-0.883,0.866-1.25,1
		c-0.4,0.134-0.966,0.116-1.7-0.05c-1.067-0.233-1.65-0.35-1.75-0.35c-1.667,0.033-2.867-0.018-3.6-0.15
		c-1.233-0.2-2.133-0.883-2.7-2.05c-0.9-1.934-1.466-3.833-1.7-5.7c-0.1,0-1.017,0.017-2.75,0.05
		c-1.267,0.034-2.083-0.183-2.45-0.65c-0.3-0.367-0.3-1.05,0-2.05c0.1-0.333,0.367-0.983,0.8-1.95c0.667-1.3,1.75-2.267,3.25-2.9
		c0.7-0.3,2.183-0.733,4.45-1.3c2.333-0.6,4.9-1.717,7.7-3.35c1.4-0.833,3.3-1.25,5.7-1.25c1.333,0,3.317,0.017,5.95,0.05
		c0.6-0.033,1.467-0.183,2.6-0.45c1.133-0.233,1.983-0.383,2.55-0.45C34.717-0.033,36.083,0.083,37.35,0.35z"/>
	<path style="fill-rule:evenodd;clip-rule:evenodd;fill:#CCD8E0;" d="M0.5,13.75l7.15-0.25c0.333,1.667,1.117,3.067,2.35,4.2
		c1.333,1.2,2.833,1.716,4.5,1.55c3.7-0.467,6.533-0.75,8.5-0.85c1.7-0.066,2.85-0.051,3.45,0.05L27.4,18.6
		c0.633,1.967,1.983,3.334,4.05,4.101c2.033,0.733,3.983,0.634,5.85-0.3c0.333,0.333,0.883,1.283,1.65,2.85
		c0.833,1.733,2.233,2.8,4.2,3.2c1.8,0.366,3.583,0.134,5.35-0.7c1.833-0.8,3.85-2.434,6.051-4.9
		c2.433-0.766,3.949-2.516,4.549-5.25c1.167,0.767,2.467,1.15,3.9,1.15l3.25-0.1c3.434-0.167,6.301-0.566,8.6-1.2
		c3.033-0.833,5.533-2.133,7.5-3.9c2-1.767,5.25-3.05,9.75-3.85c5.9-1,9.451-1.733,10.65-2.2c0.566,0.267,0.883,0.867,0.95,1.8
		c0.033,0.733-0.033,1.233-0.2,1.5c-0.166,0.267-0.55,0.517-1.15,0.75c-0.266,0.1-0.717,0.117-1.35,0.05
		c-0.666-0.033-1.133-0.017-1.4,0.05c-1.166,0.367-2.033,0.617-2.6,0.75c-2.9,0.233-4.983,0.467-6.25,0.7
		c-2.233,0.433-3.717,1.833-4.449,4.2c-0.201,0.7-0.367,1.817-0.5,3.351c-0.234,1.166-0.9,1.816-2,1.949
		C82.834,22.7,82,22.3,81.301,21.4c-1.168-1.5-1.784-2.283-1.851-2.351c-1.033-0.833-2.267-1.083-3.7-0.75
		c-0.699,0.167-2,0.7-3.9,1.601c-1.467,0.732-2.717,1.217-3.75,1.449c-1.199,0.234-2.449,0.2-3.75-0.1c-1-0.267-1.732-0.4-2.199-0.4
		c-0.867-0.066-1.6,0.101-2.2,0.5c-0.267,0.2-0.567,0.617-0.899,1.25c-0.301,0.667-0.601,1.084-0.9,1.25c-0.233,0.167-1.1,0.5-2.6,1
		c-1.101,0.367-1.9,0.917-2.4,1.65c-0.167,0.267-0.35,0.8-0.551,1.6c-0.199,0.7-0.449,1.184-0.75,1.45
		c-0.366,0.333-0.85,0.5-1.45,0.5c-0.933,0-1.45,0-1.55,0c-0.833,0.167-1.65,0.483-2.45,0.95c-0.9,0.5-1.55,1.084-1.95,1.75
		c-0.133,0.267-0.217,0.7-0.25,1.3c0,0.233-0.367,0.4-1.1,0.5c-3.033,0.4-4.833-1.966-5.4-7.1c-0.167-1.333-0.467-2.25-0.9-2.75
		c-0.5-0.567-1.4-0.833-2.7-0.8c-0.267,0-1.367,0.333-3.3,1C29.7,25.3,28.783,25,28.05,24c-0.1-0.133-0.3-0.517-0.6-1.15
		c-0.233-0.533-0.5-0.883-0.8-1.05c-0.267-0.167-0.683-0.2-1.25-0.1c-0.633,0.066-1.066,0.05-1.3-0.05
		c-0.4-0.167-0.817-0.518-1.25-1.051c-0.367-0.366-0.85-0.583-1.45-0.649c-0.466-0.067-0.85-0.05-1.15,0.05
		c-0.233,0.033-0.583,0.184-1.05,0.45c-0.2,0.134-0.55,0.5-1.05,1.1c-0.466,0.534-0.883,0.866-1.25,1
		c-0.4,0.134-0.966,0.116-1.7-0.05c-1.067-0.233-1.65-0.35-1.75-0.35c-1.667,0.033-2.867-0.018-3.6-0.15
		c-1.233-0.2-2.133-0.883-2.7-2.05c-0.9-1.934-1.466-3.833-1.7-5.7c-0.033,0-0.934,0.017-2.7,0.05c-1.2,0.034-2-0.167-2.4-0.6
		L0.5,13.75z"/>
</g>
</svg>
