<?xml version="1.0" encoding="iso-8859-1"?>
<!-- Generator: Adobe Illustrator 15.1.0, SVG Export Plug-In . SVG Version: 6.00 Build 0)  -->
<!DOCTYPE svg PUBLIC "-//W3C//DTD SVG 1.1//EN" "http://www.w3.org/Graphics/SVG/1.1/DTD/svg11.dtd">
<svg version="1.1" id="Layer_1" xmlns="http://www.w3.org/2000/svg" xmlns:xlink="http://www.w3.org/1999/xlink" x="0px" y="0px"
	 width="561px" height="152.6px" viewBox="0 0 561 152.6" style="enable-background:new 0 0 561 152.6;" xml:space="preserve">
<linearGradient id="SVGID_1_" gradientUnits="userSpaceOnUse" x1="-149.7808" y1="280.1514" x2="-42.5808" y2="280.1514" gradientTransform="matrix(9.328359e-006 -1 1 -0.001 8.009586e-005 2.349343e-004)">
	<stop  offset="0" style="stop-color:#FFFFFF"/>
	<stop  offset="1" style="stop-color:#F4FAFA"/>
</linearGradient>
<path style="fill-rule:evenodd;clip-rule:evenodd;fill:url(#SVGID_1_);" d="M491.55,124.125l0.101-1.325
	c0-0.033,0.066-0.2,0.199-0.5c-0.066,0.233-0.116,0.483-0.149,0.75C491.642,123.371,491.592,123.729,491.55,124.125z M323.15,126.45
	c0.388,0.052,0.779,0.093,1.175,0.125c-0.341-0.017-0.649-0.025-0.925-0.025c-2.101,0-4.417,0.483-6.95,1.45l2.1-0.85
	C320.75,126.717,322.283,126.483,323.15,126.45z M198.05,15.75c0.434,0.2,0.883,0.4,1.35,0.6c-0.333-0.067-0.533-0.117-0.6-0.15
	C198.533,16.033,198.283,15.883,198.05,15.75z M276.8,131.45l2.2-0.25l1-0.05L276.8,131.45z M132.25,73.05l0.3-2.15l0.85-0.65
	C133,71.317,132.617,72.25,132.25,73.05z M120.6,116.5l4.35-3.85c0.133-0.067,1.617-0.95,4.45-2.65c-0.8,0.5-1.883,1.25-3.25,2.25
	C123.917,113.884,122.067,115.3,120.6,116.5z M68.45,115.5c0.9-2.8,1.417-4.566,1.55-5.3c-0.033,0.7-0.133,1.399-0.3,2.1l-0.3,1.8
	l-0.05,0.101c-0.167,0.2-0.25,0.283-0.25,0.25c-0.033,0.066-0.05,0.116-0.05,0.149L68.45,115.5z"/>
<path style="fill-rule:evenodd;clip-rule:evenodd;fill:#CDD5D9;" d="M524.85,113.95c-8.366,0.066-14.25,0.149-17.649,0.25
	c-5.767,0.2-10.267,1.533-13.5,4l0.35-0.4l2.65-1.7c-2.267-0.466-3.717-1.116-4.351-1.949c-0.566-0.767-0.85-2.184-0.85-4.25
	c0-4.233,1.8-8.317,5.4-12.25l0.55-0.9c-9.101,2.967-14.601,4.833-16.5,5.6c-2.3,0.967-3.95,3-4.95,6.101
	c-0.767,2.5-3.566,5.333-8.4,8.5c-5,2.934-7.85,4.767-8.55,5.5c-0.133,1.833,0.867,3.05,3,3.649c0.634,0.2,3.017,0.517,7.15,0.95
	c3.267,0.334,5.633,0.983,7.1,1.95c2.066,1.434,3,3.75,2.8,6.95c-7.866,2.833-16.1,4.783-24.699,5.85c-5.367,0.667-11.2,1-17.5,1
	c-8.334,0-16.134-1.166-23.4-3.5c-4.066-1.6-7.35-2.866-9.85-3.8l-0.45-2.25c0.1-3.2,0.883-5.5,2.35-6.9
	c2.267-2.166,6.367-2.933,12.3-2.3c-0.066-1.6-1.149-2.899-3.25-3.899c-2.899-1.034-5.166-1.834-6.8-2.4
	c-6.533-2.3-9.8-6.217-9.8-11.75c0-3.267,1.684-8.8,5.05-16.6c3.934-9.067,7.983-15.034,12.15-17.9
	c5.899-4.067,9.666-7.017,11.3-8.85c3-3.467,4.5-7.833,4.5-13.1c0-4-0.667-9-2-15c-1.366-6-2.05-9.966-2.05-11.9l0.25-7.05l0.05-0.1
	c2.2-0.333,4.684-0.783,7.45-1.35c8.767-1.8,13.3-2.717,13.6-2.75c-0.233,0.7-0.383,2.167-0.45,4.4c-0.033,1.1-0.033,2.167,0,3.2
	c0,2.467-0.966,4.45-2.899,5.95c-0.834,0.667-2.934,1.75-6.3,3.25c-2.834,1.3-4.851,2.667-6.051,4.1
	c-1.767,2.067-2.517,4.85-2.25,8.35c1.667,0.1,5.567,0.05,11.7-0.15c5.667,0,10.717,1.483,15.15,4.45
	c5.033,3.4,7.283,7.683,6.75,12.85c-0.2,0.233-0.517,0.9-0.95,2c-0.434,1.133-0.733,1.8-0.9,2c-0.767,0.8-1.399,1.417-1.899,1.85
	c-0.601,0.467-2.25,1.717-4.95,3.75c-1.333,0.533-2.517,0.833-3.55,0.9h2.2c-0.233,0.167-0.851,0.467-1.851,0.9l-1.75,1
	c1.7-0.467,3.767-1.083,6.2-1.85c1.467,0.133,3.083-0.15,4.85-0.85s3.034-1.55,3.801-2.55c0.899-1.133,1.649-2.483,2.25-4.05
	c0.533-1.333,0.8-2.383,0.8-3.15c0-4.167-0.566-7.417-1.7-9.75c-0.667-1.4-1.917-2.933-3.75-4.6c-1.8-1.667-3.05-3.233-3.75-4.7
	c-1.134-2.4-1.7-5.75-1.7-10.05c0-2.5,0.584-4.283,1.75-5.35c0.7-0.633,2.15-1.25,4.351-1.85c5.233-1.434,9.017-4.333,11.35-8.7
	c5.2,0.267,13.033,0.2,23.5-0.2c9.6,0,18.15,1.133,25.65,3.4c-1.434,0.4-2.667,0.816-3.7,1.25c-1.934,0.767-2.9,1.583-2.9,2.45
	c0,1.533,1.217,3.767,3.65,6.7c1.267,1.566,2.883,3.4,4.85,5.5c-2.833-0.3-4.583-0.45-5.25-0.45l-1.5,0.1
	c1.033,1.233,1.8,2.183,2.3,2.85c0.267,0.167,3.467,1.75,9.601,4.75c-0.4-0.167-0.783-0.3-1.15-0.4c-0.8-0.2-1.184-0.117-1.149,0.25
	c-0.434,3.333-2.801,6.383-7.101,9.15c-4.2,2.1-6.3,3.233-6.3,3.4c0,0.2,0.85,2.6,2.55,7.2c1.7,5.633,2.55,11.167,2.55,16.6
	c0,2-0.5,3.5-1.5,4.5c-0.466,0.467-1.566,1.15-3.3,2.05c-3.2,1.601-4.8,4.684-4.8,9.25c0,1.167,2.15,4.95,6.45,11.351
	C522.2,109.917,524.75,113.75,524.85,113.95z M551.85,64.15c-0.533,0.733-0.933,1.184-1.199,1.35c-0.7,0.5-1.717,0.75-3.051,0.75
	c-0.966,0-1.699-0.483-2.199-1.45c-0.801-1.6-1.2-4.583-1.2-8.95c0-1.333,0.233-3.417,0.7-6.25c1.199,2.267,2.783,5.167,4.75,8.7
	C551.05,60.933,551.783,62.883,551.85,64.15z M386.25,132.2c0.5-0.033,1.05-0.05,1.65-0.05c1.699-0.067,3.05-0.067,4.05,0l3.2,0.649
	c-2.934-0.399-4.733-0.6-5.4-0.6c-4.434,0-9.167,1.3-14.2,3.899c-5,2.601-9.833,3.9-14.5,3.9c-4.733,0-11.3-1.934-19.7-5.8
	c-8.066-4.134-12.75-6.45-14.05-6.95c3.467-1.8,6.9-3,10.3-3.6c0.667-0.134,3.384-0.417,8.15-0.851c6.4-0.6,12.634-3.45,18.7-8.55
	c-5.967,0.733-9,1.1-9.101,1.1c-1.267,0-3.5-0.5-6.699-1.5c-3.2-1.033-5.233-1.55-6.101-1.55c-1.434,0-4.283,0.417-8.55,1.25
	c-3.866,0.733-6.816,1.384-8.85,1.95c-3.301,0.934-7.067,3.066-11.301,6.4c-4.233,3.267-6.35,5.699-6.35,7.3
	c0,0.6,0.566,1.3,1.7,2.1c-0.967,0.367-2.55,0.834-4.75,1.4c-2.033,0.5-3.15,0.75-3.351,0.75c-0.666,0-3.333-0.384-8-1.15
	c-2.066-2.366-4.449-4.149-7.149-5.35c-1.867-0.834-2.8-1.684-2.8-2.55c0-2.967,4.05-5.684,12.149-8.15
	c2.033-0.6,4.816-1.384,8.351-2.35c2.533-0.7,3.8-1.267,3.8-1.7c0-0.667-0.25-1.3-0.75-1.9c-0.834-0.967-2.217-1.45-4.15-1.45
	c-1.566,0-3.7,0.5-6.399,1.5c-2.667,0.967-4.7,1.45-6.101,1.45c-4.166,0-7.35-2.35-9.55-7.05c-2.167-4.6-3.067-10.7-2.7-18.3
	l-0.45,0.85c-2.233,5.566-5.383,9.867-9.45,12.9c-4,2.967-8.5,4.45-13.5,4.45c-1.4,0-2.683-0.2-3.85-0.601
	c-1.433-0.5-3.383-0.85-5.85-1.05c-0.567,0.033-0.9,0.066-1,0.1c-0.1,0.101-0.15,0.384-0.15,0.851c0,0.7,2.45,3.616,7.35,8.75
	c5.167,5.467,8.684,8.2,10.55,8.2c5.167,0,9.083,0.483,11.75,1.449c2.667,0.967,4,2.367,4,4.2c0,0.566-0.067,1.434-0.2,2.601
	c-0.167,1.267-0.317,2.05-0.45,2.35c-2.333,0.5-7.066,2.083-14.2,4.75c-6.167,2.3-14.333,4.233-24.5,5.8
	c-0.267-0.633-1.7-2.25-4.3-4.85c-2.7-2.7-4.45-4.867-5.25-6.5c-0.033-0.233-0.216-0.816-0.55-1.75v0.5l-0.05-0.101l0.05-0.5
	c-0.3-0.733-0.667-1.649-1.1-2.75c-0.9-2.233-1.433-3.517-1.6-3.85c-0.059-0.118-0.092-0.302-0.1-0.55v0.3
	c-0.567-0.967-0.967-1.634-1.2-2c-0.333-0.6-0.5-1.717-0.5-3.35c0-0.134,1.433-3.567,4.3-10.301c2.733-6.433,3.867-11.6,3.4-15.5
	c-2.367,6.934-4,11.517-4.9,13.75c-0.566,1.4-1.05,2.284-1.45,2.65c-0.233,0.2-0.65,0.5-1.25,0.9c-0.233,0.133-0.417,0.25-0.55,0.35
	c-0.267,0.134-0.433,0.2-0.5,0.2c-0.133,0-0.25,0.017-0.35,0.05c-3,0.366-4.784,0.634-5.35,0.8c-2.6,0.7-5.45,2.134-8.55,4.3
	l-7.8,5.45l1.55-0.75c3.167-1.5,6.7-2.25,10.6-2.25c1.3,0,2.617,0.25,3.95,0.75c0.066,0.4,0.6,1.983,1.6,4.75c0.6,1.7,0.9,4,0.9,6.9
	c0,3.633-0.7,6.133-2.1,7.5c-0.333,0.366-0.817,0.767-1.45,1.2c-0.433,0.399-0.65,0.883-0.65,1.449c0,1.867,0.167,3.934,0.5,6.2
	c0.267,1.834,0.35,3,0.25,3.5c-0.233,1.3-2.783,2.384-7.65,3.25c-3.967-2.6-8.017-5.066-12.15-7.399c-4-2.134-6.75-3.634-8.25-4.5
	c-4.467-2.601-7.883-6.034-10.25-10.301c-1.233-2.233-2.867-3.75-4.9-4.55c-1.067-0.399-3.017-0.733-5.85-1
	c-2.533-0.2-4.483-0.666-5.85-1.399c-2.067-1.067-3.75-3-5.05-5.801l0.4,0.65c4.433-3.533,7.017-6.7,7.75-9.5
	c0.2-3.033,0.8-5.65,1.8-7.85c0.133-0.233,0.983-0.7,2.55-1.4c2.033-0.9,3.65-1.75,4.85-2.55c4.567-3.033,6.85-7.283,6.85-12.75
	c0-3.834-0.733-7.617-2.2-11.35c-1.733-3.667-2.867-6.267-3.4-7.8l-0.15,1.35c-3.833,7-8.167,11.167-13,12.5
	c-1.333,0.333-3.2,0.566-5.6,0.699c-2.2,0.101-3.783,0.317-4.75,0.65l1.25,0.8c0.667,0.4,1.85,0.717,3.55,0.95
	c1.2,0.134,2.35,0.2,3.45,0.2c0.667,0,5.233-0.05,13.7-0.15c0.233,0.834,0.35,1.566,0.35,2.2c0,1.7-1.1,3.4-3.3,5.1
	c-1.1,0.867-2.65,1.867-4.65,3c0.567-0.366,1.5-1.1,2.8-2.199c1.633-1.367,2.566-2.284,2.8-2.75l0.2-0.95
	c-2.4,1.767-5.35,2.733-8.85,2.899c-4.833,0.233-8.7,0.801-11.6,1.7c-1.667,0.533-4.85,2.117-9.55,4.75
	c-4.467,2.533-7.1,3.884-7.9,4.05c-2.767,0.601-4.45,1.017-5.05,1.25c-1.067,0.434-1.967,1.184-2.7,2.25
	c-1.066,1.567-4.066,7.184-9,16.851c-0.9,0.267-2.65,0.416-5.25,0.45c-3.966,0-6.917,0.066-8.85,0.199l1.2-0.149l0.2-0.95
	c-0.233-1.1-0.383-1.7-0.45-1.8c-0.367-0.467-1.333-0.634-2.9-0.5c0.4-0.8,0.6-1.717,0.6-2.75l-0.15-5.2l-0.05-0.35l-0.6,0.3
	c-0.2,0.066-0.517,0.1-0.95,0.1c-2.233,0-3.9-0.649-5-1.95c-0.6-0.699-0.967-1.517-1.1-2.449l-0.05-0.9
	c-0.367,0.967-0.55,1.95-0.55,2.95c0,1.533,0.633,2.767,1.9,3.7c1.233,0.933,1.85,2.25,1.85,3.949c0,3.667-1.5,6.584-4.5,8.75
	l4.45-1.399c-3.833,1.399-6.667,2.383-8.5,2.95c-3.2,1.033-5.733,1.55-7.6,1.55c-2.867,0-6.95-0.351-12.25-1.05
	c-4.167-0.567-7.317-0.65-9.45-0.25l2.35-0.601c1.6,0,2.983-0.283,4.15-0.85c1.133-0.601,1.7-1.3,1.7-2.101
	c1.933,0.367,3.817,0.101,5.65-0.8c1.833-0.899,3.067-2.25,3.7-4.05c0.6-1.833,0.417-3.583-0.55-5.25
	c-0.966-1.667-2.483-2.884-4.55-3.65c0.167-1.866,0.25-3.133,0.25-3.8c0-3.399-0.917-6.783-2.75-10.149
	c-1.467-2.733-3.033-4.717-4.7-5.95c1.367-1.233,3.684-4.184,6.95-8.851c4.733-6.733,7.867-11.1,9.4-13.1
	c8.7-11.367,15.883-17.05,21.55-17.05c0.367,0,2.883,1.15,7.55,3.45c4.8,2.367,9.1,3.7,12.9,4c-1.433-1.967-3.7-3.9-6.8-5.8
	c-3.633-2-6.333-3.6-8.1-4.8c-6.433-4.5-9.8-11.316-10.1-20.45c-0.7,0.7-3.833,4-9.4,9.9c-5.867,5.6-10.517,8.467-13.95,8.6l-2,0.2
	c2.934,0.434,5.6,0.6,8,0.5c0.934,0.233,1.467,1.9,1.6,5c-2.5,1.1-3.566,1.633-3.2,1.6c-2.2,0.467-5.117,2.817-8.75,7.05
	c-3.8,4.5-6.117,6.933-6.95,7.3c-0.067-0.5-0.25-1.7-0.55-3.6c-0.333-2-0.567-3.316-0.7-3.95l-0.3-1.55c0.3,4.3,0.433,7.5,0.4,9.6
	c-0.467,0.133-1.667,0.35-3.6,0.65c-1.833,0.267-2.817,0.4-2.95,0.4c-1.5,0-3.05-0.2-4.65-0.6L48.4,65.4
	c1.167,1.367,1.8,2.083,1.9,2.15c0.267,0.167,1.15,0.45,2.65,0.85c3.533,2.6,5.417,4.033,5.65,4.3c-0.434,0.7-1.117,1.667-2.05,2.9
	c-0.733,1.2-1.1,2.466-1.1,3.8c0,0.666,0.283,3.333,0.85,8c0,0.366-0.1,0.899-0.3,1.6c-0.1,0.3-0.233,0.65-0.4,1.05
	c-0.533,1.334-1.1,2.334-1.7,3l-0.05,0.05c-1.233,1.034-2.35,1.7-3.35,2c-1.133,0.301-3.017,0.45-5.65,0.45
	c-1.067,0-2.617-0.233-4.65-0.7L38.5,94.2l3.9,2.149c-0.267-0.033-1.517-0.333-3.75-0.899c-2.1-0.533-3.417-0.8-3.95-0.8
	c1.367,2.866,4.95,4.3,10.75,4.3c5.066,0,8.7-0.7,10.9-2.101c3.233-2.1,5.917-3.416,8.05-3.949c1.133,1.5,1.8,3.899,2,7.199
	c0.033,0.301,0.05,2.567,0.05,6.801c0,5.466-1.867,9.183-5.6,11.149c-2.133,1.134-3.45,1.95-3.95,2.45c-1.233,1.2-1.9,2.95-2,5.25
	c-2.133,0.8-4.083,1.366-5.85,1.7c-1.733,0.3-3.667,0.45-5.8,0.45c-3.267,0-7.85-1.534-13.75-4.601
	c-7.233-3.733-11.333-7.883-12.3-12.45c0.5-0.633,1.316-2.699,2.45-6.199c1.1-3.5,1.65-5.733,1.65-6.7
	c0-3.733-0.983-6.884-2.95-9.45c-2-2.533-3-4.134-3-4.8c0-2.167,1.433-4.367,4.3-6.601c3.267-2.566,5.367-5.667,6.3-9.3v-7.35
	c-0.3,0.966-0.75,2.816-1.35,5.55c-0.367,1.7-0.783,2.883-1.25,3.55c-1.1,1.633-4.267,2.3-9.5,2c0.167,7.4-0.917,12.3-3.25,14.7
	c-1.2,1.233-3.533,2.017-7,2.35c-0.267-1.133-1.05-2.833-2.35-5.1C0.417,82.066,0,79.467,0,75.7c0-8.4,0.867-14.883,2.6-19.45
	c1.066-2.8,1.667-4.433,1.8-4.9c0.533-1.967,0.8-4.333,0.8-7.1c0.066,1.1-0.067,3.083-0.4,5.95c0,0.367,0.467,0.767,1.4,1.2
	c0.7,0.3,1.333,0.517,1.9,0.65c0.833,0.3,1.967,0.883,3.4,1.75c1.4,0.733,2.933,1.1,4.6,1.1c3.167,0,5.883-1.3,8.15-3.9
	c1.867-2.133,3.133-4.667,3.8-7.6c0.333-0.767,0.7-2.967,1.1-6.6c0.3-3.1,0.45-5.167,0.45-6.2c0-5.767-0.15-9.45-0.45-11.05
	c-0.733,0.3-1.433,0.517-2.1,0.65c0.633-0.2,3.917-2.217,9.85-6.05c4.867-3.167,8.8-4.55,11.8-4.15l-1.25,0.2
	c2.1,1.833,4.483,3.15,7.15,3.95c1.933,0.6,3.883,0.9,5.85,0.9c1.833,0,3.433-0.6,4.8-1.8c1.7-1.433,3.583-4.133,5.65-8.1
	c4.167-2,9.567-3.4,16.2-4.2C92.2,0.317,98.633,0,106.4,0c7.267,0,20.3,1.15,39.1,3.45c17.467,2.1,28.2,3,32.2,2.7
	c2.667,1.967,5.033,4.217,7.1,6.75c1.934,2.367,2.9,4.083,2.9,5.15c0,1.967-0.684,3.467-2.05,4.5c-0.833,0.667-2.433,1.383-4.8,2.15
	c-5.333,1.7-8.75,4.2-10.25,7.5c-2.167,4.733-5.283,8.117-9.35,10.15c-3.2,1.566-7.15,2.35-11.85,2.35l-8.6-0.3l1.6,0.2
	c1.033,0.167,3.367,0.6,7,1.3c3.633,0.633,6.65,0.95,9.05,0.95c1.767,0,3.633-0.434,5.6-1.3c1.967-0.9,3.967-1.35,6-1.35
	c5.233,0,9.15,1.3,11.75,3.9c1.567,1.566,2.5,2.467,2.8,2.7c1.167,0.8,2.65,1.2,4.45,1.2c0.934,0,1.55-0.383,1.85-1.15
	c0.3-1.2,0.567-2.25,0.8-3.15c1.033-3.967,3.883-7.633,8.55-11c3.033-2.2,5.483-5.1,7.35-8.7c1.733-3.4,2.566-6.6,2.5-9.6
	c-0.033-0.633-0.317-1.017-0.85-1.15h-0.85c2.567-0.533,5.283-1.567,8.15-3.1c1.7-0.867,4.2-2.3,7.5-4.3
	c6.467-3.633,12.917-5.45,19.35-5.45c4.233,0,8.4,0.55,12.5,1.65c5.833,1.534,9.6,2.434,11.3,2.7c0.133,0.367,0.75,2.117,1.85,5.25
	c1.034,3.067,1.55,4.9,1.55,5.5c0,5.633-3.434,9.833-10.3,12.6c-4.7,1.9-7.066,2.85-7.1,2.85c-2.133,1.133-3.2,2.517-3.2,4.15
	c0,2.167,1.467,5.3,4.4,9.4c2.7,3.767,4.333,5.65,4.9,5.65c0.333,0,1.034-0.15,2.1-0.45c1.033-0.3,1.717-0.45,2.05-0.45
	c1.8,0,3.383,0.567,4.75,1.7c1.4,1.167,2.1,2.55,2.1,4.15c0,2.933-3.367,7.05-10.1,12.35c-6.9,5.466-12.567,8.2-17,8.2
	c-2.4,0-4.133-0.084-5.2-0.25l0.4,0.199c0.8,0.367,3.6,1,8.4,1.9c4.7,0.9,7.434,1.35,8.2,1.35c0.967,0,2.333-0.816,4.1-2.449
	c3.7-3.367,5.667-5.134,5.9-5.3c6.4-5.2,13.8-7.8,22.2-7.8c11.467,0,19.833,2.617,25.1,7.85c1.066,1.033,2.483,2.817,4.25,5.35
	c1.134,1.634,2.117,2.45,2.95,2.45c3.2,0,6.767-2.017,10.7-6.05c4.033-4.167,6.05-8.133,6.05-11.9c0-21.333-2.25-34.65-6.75-39.95
	c2.533-0.066,10.1-1.65,22.7-4.75c14.733-3.6,25.25-5.933,31.55-7c-0.5,0.633-0.75,1.284-0.75,1.95c0,1.8,0.983,4.067,2.95,6.8
	c2.066,2.9,4.416,5.1,7.05,6.6c0.267,0.133,3.267,0.45,9,0.95c5.4,0.433,8.283,0.65,8.65,0.65c1.033,0,1.866-0.35,2.5-1.05
	c0.466-0.5,0.883-1.3,1.25-2.4c0.933,1.534,2.133,3.417,3.6,5.65c0.967,1.933,1.45,4.117,1.45,6.55c0,3.233-0.334,5.967-1,8.2
	c-0.733,2.566-1.851,4.2-3.351,4.9c-3.433,1.633-6.383,3.75-8.85,6.35c-3.5,3.667-5.7,8.017-6.6,13.05
	c-0.867,4.867-1.601,10.417-2.2,16.65c-0.667,4.133-2.267,6.983-4.8,8.55c-1.733,1.066-6.25,2.233-13.551,3.5
	c-6.233,1.066-10.25,1.616-12.05,1.649c9.5,2.767,15.5,4.834,18,6.2c4.634,2.467,6.95,5.917,6.95,10.351
	c0,1.666-1.767,4.066-5.3,7.199c-4.533,3.967-7.417,6.867-8.65,8.7l2.601-1.05l3.3-0.85C384.583,132.3,385.35,132.233,386.25,132.2z
	 M283.7,11.95c0.366-0.067,1.166-0.317,2.399-0.75c1.301-0.434,2.467-0.65,3.5-0.65c0.467,0,0.934,0.1,1.4,0.3
	c1.1,0.533,2.7,1.633,4.8,3.3c-0.633,0.567-0.95,1.283-0.95,2.15c0,6.034,1.817,10.2,5.45,12.5c1.934,1.2,5.95,2.3,12.05,3.3
	c5.634,0.933,9.634,2.417,12,4.45c3.634,3.1,5.45,8.367,5.45,15.8c0,3-2.5,6.316-7.5,9.95c-5.033,3.667-9.666,5.5-13.899,5.5
	c-6.834,0-14.317-3.333-22.45-10c-2.8-2.3-5.3-4.683-7.5-7.15c-1.934-2.167-2.9-3.483-2.9-3.95c0-1.633,0.667-2.833,2-3.6
	c0.8-0.467,2.267-1.184,4.4-2.15c4.233-2.567,6.35-8.633,6.35-18.2c0-1.3-0.717-3-2.149-5.1
	C284.684,15.483,283.866,13.583,283.7,11.95z M123.35,83.25l-5.7,2.55c-3.7,0.066-8.233,0.384-13.6,0.95
	c-5.1,0.533-8.667,0.8-10.7,0.8c-3.767,0-7.033-0.767-9.8-2.3l1.6,1.2c1.233,0.899,2.65,1.767,4.25,2.6
	c2.067,1.101,3.583,1.65,4.55,1.65c0.333,0,3.65-0.066,9.95-0.2c6.434-0.134,10.45-0.15,12.05-0.05c3.167,0.2,5.667,0.816,7.5,1.85
	c1.633,0.934,3.566,1.4,5.8,1.4c3.467,0,6.517-1.717,9.15-5.15c2.5-3.233,3.75-6.767,3.75-10.6c0-2.067-0.75-4.95-2.25-8.65
	c-1.6-3.966-3.316-6.883-5.15-8.75c0,0.267-0.417,3.367-1.25,9.3h-0.8l-0.15,1.05c-0.2,0.267-0.867,1.45-2,3.55
	c-1.133,2.066-1.733,3.184-1.8,3.35L123.35,83.25z M5.2,43.7c-0.567-5.167-0.85-8.583-0.85-10.25c0-0.867,0.183-2.05,0.55-3.55
	c0.4-1.633,0.817-2.783,1.25-3.45c3.9,3.367,7.617,5.433,11.15,6.2c0.9,0.2,1.434,0.55,1.6,1.05c0.233,0.533,0.35,1.95,0.35,4.25
	c0,4-0.167,6.55-0.5,7.65c-0.7,2.367-2.433,3.55-5.2,3.55c-1.7,0-3.05-0.467-4.05-1.4C6.733,45.117,5.3,43.767,5.2,43.7z M4.1,89.6
	c5.933-0.3,9.95-1.216,12.05-2.75c0.133,1.601,0.633,3.584,1.5,5.95c0.833,2.267,1.25,3.9,1.25,4.9c0,1.233-0.283,2.283-0.85,3.149
	c-0.667,1.101-1.65,1.65-2.95,1.65c-1.233,0-2.283-0.116-3.15-0.35c-1.034-0.267-2.167-0.784-3.4-1.551
	C7.05,99.066,6,97.083,5.4,94.65C4.533,91.316,4.1,89.634,4.1,89.6z"/>
<path style="fill-rule:evenodd;clip-rule:evenodd;fill:#B7BFCA;" d="M525.8,31.85c-1.967-2.1-3.583-3.934-4.85-5.5
	c-2.434-2.934-3.65-5.167-3.65-6.7c0-0.867,0.967-1.683,2.9-2.45c1.033-0.434,2.267-0.85,3.7-1.25c1.633-0.8,4.433,0.25,8.399,3.15
	c2.066,1.533,4.434,3.5,7.101,5.9c-1.733,0.567-3.884,1.75-6.45,3.55C530.616,30.15,528.233,31.25,525.8,31.85z M533,112.65
	c-1.967,0.466-3.366,0.75-4.2,0.85c-0.1,0.033-1.416,0.184-3.95,0.45c-0.1-0.2-2.649-4.033-7.649-11.5
	c-4.3-6.4-6.45-10.184-6.45-11.351c0-4.566,1.6-7.649,4.8-9.25c1.733-0.899,2.834-1.583,3.3-2.05c1-1,1.5-2.5,1.5-4.5
	c0-5.433-0.85-10.966-2.55-16.6c-1.7-4.6-2.55-7-2.55-7.2c0-0.167,2.1-1.3,6.3-3.4c4.3-2.767,6.667-5.817,7.101-9.15
	c-0.034-0.367,0.35-0.45,1.149-0.25c0.367,0.1,0.75,0.233,1.15,0.4c3.866,0,7.166,1.033,9.899,3.1c2.7,2.033,4.051,4.5,4.051,7.4
	c-0.467,2.833-0.7,4.917-0.7,6.25c0,4.367,0.399,7.35,1.2,8.95c0.5,0.967,1.233,1.45,2.199,1.45c1.334,0,2.351-0.25,3.051-0.75
	c0.267-0.167,0.666-0.617,1.199-1.35c0.167,0.767,0.25,1.583,0.25,2.45c0,4.333-1.133,7.183-3.399,8.55
	c-1.467,0.867-3.167,1.067-5.101,0.6c0.167-1.8,0.084-4.117-0.25-6.95c0.167-1.2,0.25-2.133,0.25-2.8c0-4.433-1.666-8-5-10.7
	c-1.199-1-3.05-2.233-5.55-3.7c-3.767-2.167-6.133-3.55-7.1-4.15l-1.05-0.55c2.233,3.3,4.433,6.167,6.6,8.6
	c1.167,1.3,2.5,2.717,4,4.25c1.634,1.967,2.45,5.667,2.45,11.1c0,4.9-1.816,8.466-5.45,10.7c-2.1,1.267-3.366,2.101-3.8,2.5
	c-1.134,1.134-1.7,2.65-1.7,4.55l0.45,12.4c0,1.9,0.517,3.967,1.55,6.2C530.1,109.533,531.434,111.35,533,112.65z M403.65,135.5
	c-1.7-0.634-3.034-1.1-4-1.4l-4.5-1.3l-3.2-0.649c4.833-3.034,8.8-5.483,11.899-7.351c0.7-0.434,1.051-1.033,1.051-1.8
	c0-1.8-1.784-4.566-5.351-8.3c-3.366-3.533-5.399-6.084-6.1-7.65c0.399,1.566,1.133,3.217,2.2,4.95c1.5,2.5,2.283,3.95,2.35,4.35
	c0,0.7-0.033,1.4-0.1,2.101v0.05c-0.567,0.934-2.5,2.684-5.801,5.25c-4.1,3.167-7.116,5.75-9.05,7.75
	c-0.366,0.5-1.166,1.083-2.399,1.75l-2.601,1.05c1.233-1.833,4.117-4.733,8.65-8.7c3.533-3.133,5.3-5.533,5.3-7.199
	c0-4.434-2.316-7.884-6.95-10.351c-2.5-1.366-8.5-3.434-18-6.2c1.8-0.033,5.816-0.583,12.05-1.649
	c7.301-1.267,11.817-2.434,13.551-3.5c2.533-1.566,4.133-4.417,4.8-8.55c0.6-6.233,1.333-11.784,2.2-16.65
	c0.899-5.033,3.1-9.383,6.6-13.05c2.467-2.6,5.417-4.717,8.85-6.35c1.5-0.7,2.617-2.333,3.351-4.9c0.666-2.233,1-4.967,1-8.2
	c0-2.433-0.483-4.617-1.45-6.55c-1.467-2.233-2.667-4.117-3.6-5.65c0.767-1.367,1.75-2.45,2.949-3.25
	c0.601-0.367,1.134-0.617,1.601-0.75c0.833,0,1.434,0.284,1.8,0.85c0.3,0.467,0.566,1.434,0.8,2.9
	c0.733-0.367,1.316-0.917,1.75-1.65c0.733-1.333,2.033-4.433,3.9-9.3l-0.25,7.05c0,1.934,0.684,5.9,2.05,11.9c1.333,6,2,11,2,15
	c0,5.267-1.5,9.633-4.5,13.1c-1.634,1.833-5.4,4.783-11.3,8.85c-4.167,2.867-8.217,8.833-12.15,17.9
	c-3.366,7.8-5.05,13.333-5.05,16.6c0,5.533,3.267,9.45,9.8,11.75c1.634,0.566,3.9,1.366,6.8,2.4c2.101,1,3.184,2.3,3.25,3.899
	c-5.933-0.633-10.033,0.134-12.3,2.3c-1.467,1.4-2.25,3.7-2.35,6.9L403.65,135.5z M489.25,111.1l-3.65-6.35
	c-3.466,4.5-5.933,7.767-7.399,9.8c-2.566,3.5-3.851,5.934-3.851,7.3c0,1.367,0.65,2.434,1.95,3.2c0.733,0.434,2.217,1,4.45,1.7
	c4.467,1.366,6.934,3.384,7.4,6.05l-9.051,3.15c0.2-3.2-0.733-5.517-2.8-6.95c-1.467-0.967-3.833-1.616-7.1-1.95
	c-4.134-0.434-6.517-0.75-7.15-0.95c-2.133-0.6-3.133-1.816-3-3.649c0.7-0.733,3.55-2.566,8.55-5.5c4.834-3.167,7.634-6,8.4-8.5
	c1-3.101,2.65-5.134,4.95-6.101c1.899-0.767,7.399-2.633,16.5-5.6l-0.55,0.9c-3.601,3.933-5.4,8.017-5.4,12.25
	c0,2.066,0.283,3.483,0.85,4.25c0.634,0.833,2.084,1.483,4.351,1.949l-2.65,1.7l-2.3-2.85L489.25,111.1z M8.55,100.6
	c1.233,0.767,2.367,1.284,3.4,1.551c0.867,0.233,1.917,0.35,3.15,0.35c1.3,0,2.283-0.55,2.95-1.65
	c0.567-0.866,0.85-1.916,0.85-3.149c0-1-0.417-2.634-1.25-4.9c-0.867-2.366-1.367-4.35-1.5-5.95c-2.1,1.534-6.117,2.45-12.05,2.75
	c-0.033,0-0.2-0.333-0.5-1c3.467-0.333,5.8-1.116,7-2.35c2.333-2.4,3.417-7.3,3.25-14.7c5.233,0.3,8.4-0.367,9.5-2
	c0.467-0.667,0.883-1.85,1.25-3.55c0.6-2.733,1.05-4.583,1.35-5.55v7.35c-0.934,3.633-3.034,6.733-6.3,9.3
	c-2.867,2.233-4.3,4.434-4.3,6.601c0,0.666,1,2.267,3,4.8c1.967,2.566,2.95,5.717,2.95,9.45c0,0.967-0.55,3.2-1.65,6.7
	c-1.133,3.5-1.95,5.566-2.45,6.199c-0.034-0.133-0.434-0.783-1.2-1.949c-0.733-1.2-1.133-1.834-1.2-1.9l-2.3-2.4
	C12.4,104.533,11.083,103.2,8.55,100.6z M54.9,125.75c0.1-2.3,0.767-4.05,2-5.25c0.5-0.5,1.817-1.316,3.95-2.45
	c3.733-1.967,5.6-5.684,5.6-11.149c0-4.233-0.017-6.5-0.05-6.801c-0.2-3.3-0.867-5.699-2-7.199c-2.133,0.533-4.816,1.85-8.05,3.949
	c-2.2,1.4-5.833,2.101-10.9,2.101c-5.8,0-9.383-1.434-10.75-4.3c0.533,0,1.85,0.267,3.95,0.8c2.233,0.566,3.483,0.866,3.75,0.899
	c0.9,0.267,2.017,0.5,3.35,0.7c1.1,0.134,1.967,0.2,2.6,0.2c3.066,0,6.2-1.25,9.4-3.75c2.533-1.934,4.383-3.95,5.55-6.05
	c1.667,1.233,3.233,3.217,4.7,5.95c1.833,3.366,2.75,6.75,2.75,10.149c0,0.667-0.083,1.934-0.25,3.8
	c-0.967-1.6-1.683-2.883-2.15-3.85l-0.4-1c0.066,0.5,0.45,1.866,1.15,4.1c0.667,2.034,0.967,3.233,0.9,3.601
	c-0.133,0.733-0.65,2.5-1.55,5.3c-0.8,1.134-1.833,1.833-3.1,2.1c-1.733,0.434-2.9,0.834-3.5,1.2l1.05,0.45
	c-0.8,0.4-1.9,1.3-3.3,2.7c-1.233,1.233-2.133,2.25-2.7,3.05L54.9,125.75z M56,89c0.2-0.7,0.3-1.233,0.3-1.6
	c-0.566-4.667-0.85-7.334-0.85-8c0-1.334,0.367-2.601,1.1-3.8c0.934-1.233,1.617-2.2,2.05-2.9c0.433,0.6,0.65,1.417,0.65,2.45
	c0,0.3-0.283,0.95-0.85,1.95c-0.6,0.967-0.9,1.65-0.9,2.051c0,0.333,0.267,0.666,0.8,1c0.534,0.333,0.8,0.666,0.8,1
	C57.867,84.417,56.833,87.033,56,89z M155.45,116.85c-1.267-2.133-3.55-4.05-6.85-5.75c-3.867-1.966-7.9-2.899-12.1-2.8
	c2.133-1.233,5.783-3.684,10.95-7.35c4.767-3.367,7.7-5.533,8.8-6.5c5.267-1.667,8.05-2.566,8.35-2.7
	c0.066-0.033,0.167-0.083,0.3-0.15c2-1.133,3.55-2.133,4.65-3c2.2-1.699,3.3-3.399,3.3-5.1c0-0.634-0.117-1.366-0.35-2.2
	c-8.467,0.101-13.033,0.15-13.7,0.15c-1.1,0-2.25-0.066-3.45-0.2c-1.7-0.233-2.883-0.55-3.55-0.95l-1.25-0.8
	c0.967-0.333,2.55-0.55,4.75-0.65c2.4-0.133,4.267-0.366,5.6-0.699c4.833-1.333,9.167-5.5,13-12.5l0.15-1.35
	c0.534,1.534,1.667,4.133,3.4,7.8c1.466,3.733,2.2,7.516,2.2,11.35c0,5.467-2.283,9.717-6.85,12.75c-1.2,0.8-2.816,1.649-4.85,2.55
	c-1.567,0.7-2.417,1.167-2.55,1.4c-1,2.199-1.6,4.816-1.8,7.85c-0.733,2.8-3.317,5.967-7.75,9.5L155.45,116.85z M62,65l-1.15,0.5
	c0.033-2.1-0.1-5.3-0.4-9.6l0.3,1.55c0.133,0.633,0.367,1.95,0.7,3.95C61.75,63.3,61.933,64.5,62,65z M60.4,124.05
	c0.5-0.434,1.5-1,3-1.7c1.2-0.566,2.15-0.983,2.85-1.25c0,0.801-0.567,1.5-1.7,2.101C63.383,123.767,62,124.05,60.4,124.05z
	 M101.95,120.1c-1.6,0.267-3.633,0.717-6.1,1.351l-4.45,1.399c3-2.166,4.5-5.083,4.5-8.75c0-1.699-0.617-3.017-1.85-3.949
	c-1.267-0.934-1.9-2.167-1.9-3.7c0-1,0.184-1.983,0.55-2.95l0.05,0.9c0.133,0.933,0.5,1.75,1.1,2.449c1.1,1.301,2.767,1.95,5,1.95
	c0.433,0,0.75-0.033,0.95-0.1l0.6-0.3l0.05,0.35l0.15,5.2c0,1.033-0.2,1.95-0.6,2.75c1.567-0.134,2.533,0.033,2.9,0.5
	c0.067,0.1,0.217,0.7,0.45,1.8l-0.2,0.95L101.95,120.1z M227.75,131.55c0,2.066-0.583,3.601-1.75,4.601c-1.2,1-1.8,1.716-1.8,2.149
	s0.667,1.134,2,2.101c1.333,0.933,1.95,2.633,1.85,5.1c-1.4,0.866-2.583,1.6-3.55,2.2c-1.733,1-2.817,1.6-3.25,1.8
	c-1.967,1.366-3.433,2.217-4.4,2.55c-2.533,0.834-5.567,0.75-9.1-0.25c4.867-0.866,7.417-1.95,7.65-3.25
	c0.1-0.5,0.017-1.666-0.25-3.5c-0.333-2.267-0.5-4.333-0.5-6.2c0-0.566,0.217-1.05,0.65-1.449c0.633-0.434,1.117-0.834,1.45-1.2
	c1.4-1.367,2.1-3.867,2.1-7.5c0-2.9-0.3-5.2-0.9-6.9c-1-2.767-1.534-4.35-1.6-4.75l-0.9-1.899c0.933,1,2.283,2.333,4.05,4
	c2.167,2.066,4.183,4.05,6.05,5.949L227.75,131.55z M279,131.2l-2.2,0.25l-0.25,0.05c0.133-0.3,0.284-1.083,0.45-2.35
	c0.133-1.167,0.2-2.034,0.2-2.601c0-1.833-1.333-3.233-4-4.2c-2.667-0.966-6.583-1.449-11.75-1.449c-1.867,0-5.383-2.733-10.55-8.2
	c-4.9-5.134-7.35-8.05-7.35-8.75c0-0.467,0.05-0.75,0.15-0.851c0.1-0.033,0.433-0.066,1-0.1c2.466,0.2,4.417,0.55,5.85,1.05
	c1.167,0.4,2.45,0.601,3.85,0.601c5,0,9.5-1.483,13.5-4.45c4.067-3.033,7.217-7.334,9.45-12.9l0.45-0.85
	c-0.367,7.6,0.534,13.7,2.7,18.3c2.2,4.7,5.384,7.05,9.55,7.05c1.4,0,3.434-0.483,6.101-1.45c2.699-1,4.833-1.5,6.399-1.5
	c1.934,0,3.316,0.483,4.15,1.45c0.5,0.601,0.75,1.233,0.75,1.9c0,0.434-1.267,1-3.8,1.7c-3.534,0.966-6.317,1.75-8.351,2.35
	c-8.1,2.467-12.149,5.184-12.149,8.15c0,0.866,0.933,1.716,2.8,2.55c2.7,1.2,5.083,2.983,7.149,5.35l0.051,0.101
	c-5.367-0.767-8.367-1.167-9-1.2c-0.667-0.934-1.317-2.017-1.95-3.25c-1.233-2.4-1.9-5.033-2-7.9c-0.101-2.666-1.65-4.45-4.65-5.35
	c-3.466-0.634-5.933-1.316-7.4-2.05c1.2,0.966,2.7,2.1,4.5,3.399c2.1,1.5,3.55,2.684,4.35,3.55
	C279.367,122.134,280.033,126,279,131.2z M324.325,126.575c-0.396-0.032-0.787-0.073-1.175-0.125
	c3.966-1.634,7.017-3.417,9.149-5.351c1.934-1.733,2.834-3.316,2.7-4.75c-1.9-0.933-4.983-0.199-9.25,2.2
	c-4.533,2.566-6.934,5.434-7.2,8.601l-2.1,0.85l-7.25,3.3c-1.134-0.8-1.7-1.5-1.7-2.1c0-1.601,2.116-4.033,6.35-7.3
	c4.233-3.334,8-5.467,11.301-6.4c2.033-0.566,4.983-1.217,8.85-1.95c4.267-0.833,7.116-1.25,8.55-1.25c0.867,0,2.9,0.517,6.101,1.55
	c3.199,1,5.433,1.5,6.699,1.5c0.101,0,3.134-0.366,9.101-1.1c-6.066,5.1-12.3,7.95-18.7,8.55c-4.767,0.434-7.483,0.717-8.15,0.851
	c-3.399,0.6-6.833,1.8-10.3,3.6l-1.7-0.5l-0.55-0.1c-0.066,0-0.133,0-0.2,0l-0.199-0.051c-0.035-0.002-0.068-0.002-0.101,0
	L324.325,126.575z M154.4,94.85c-1.267,0.9-2.25,1.534-2.95,1.9c-1.5,0.767-3.3,1.35-5.4,1.75c0.5-0.267,1.817-0.866,3.95-1.8
	C152.533,95.566,154,94.95,154.4,94.85z"/>
<path style="fill-rule:evenodd;clip-rule:evenodd;fill:#ADB7C1;" d="M543.6,75.75c1.934,0.467,3.634,0.267,5.101-0.6
	c2.267-1.367,3.399-4.217,3.399-8.55c0-0.867-0.083-1.684-0.25-2.45c-0.066-1.267-0.8-3.217-2.199-5.85
	c-1.967-3.533-3.551-6.433-4.75-8.7c0-2.9-1.351-5.367-4.051-7.4c-2.733-2.067-6.033-3.1-9.899-3.1c-6.134-3-9.334-4.583-9.601-4.75
	c-0.5-0.667-1.267-1.617-2.3-2.85l1.5-0.1c0.667,0,2.417,0.15,5.25,0.45c2.434-0.6,4.816-1.7,7.15-3.3
	c2.566-1.8,4.717-2.983,6.45-3.55l0.199,0.15c-0.066,0.067-1.216,1.867-3.449,5.4c-2.167,3.4-3.817,5.567-4.95,6.5l1.05,0.2l1-0.1
	c2.4-0.733,4.083-2.267,5.05-4.6c0.834-2.1,1.783-3.15,2.851-3.15c0.699,0,2.116,0.867,4.25,2.6c2.6,2.133,3.899,4.2,3.899,6.2
	c0,1.333-0.283,2.483-0.85,3.45s-0.851,1.533-0.851,1.7c0,0.3,0.417,0.8,1.25,1.5c1.134,0.967,2.051,1.983,2.75,3.05
	c2.634,3.934,3.95,10.133,3.95,18.6c0,5-0.883,8.933-2.649,11.8c-1.567,2.601-3.534,3.9-5.9,3.9c-0.8,0-1.583-0.267-2.35-0.8
	c-1.067-0.767-1.551-1.834-1.45-3.2L543.6,75.75z M463.95,57.8c0.533-5.167-1.717-9.45-6.75-12.85
	c-4.434-2.967-9.483-4.45-15.15-4.45c-6.133,0.2-10.033,0.25-11.7,0.15c-0.267-3.5,0.483-6.283,2.25-8.35
	c1.2-1.433,3.217-2.8,6.051-4.1c3.366-1.5,5.466-2.583,6.3-3.25c1.934-1.5,2.899-3.483,2.899-5.95c-0.033-1.033-0.033-2.1,0-3.2
	c0.067-2.233,0.217-3.7,0.45-4.4v-0.1h2.851c4.8,0.034,9.55,0.25,14.25,0.65c5.966,0.5,9.083,0.75,9.35,0.75v0.05
	c-2.333,4.367-6.116,7.267-11.35,8.7c-2.2,0.6-3.65,1.216-4.351,1.85c-1.166,1.067-1.75,2.85-1.75,5.35c0,4.3,0.566,7.65,1.7,10.05
	c0.7,1.466,1.95,3.033,3.75,4.7c1.833,1.667,3.083,3.2,3.75,4.6c1.134,2.333,1.7,5.583,1.7,9.75c0,0.767-0.267,1.817-0.8,3.15
	c-0.601,1.567-1.351,2.917-2.25,4.05c0.466-1.133,0.699-2.2,0.699-3.2l-0.199-4.85l-0.101-0.8v1c-0.1-0.067-0.35-0.1-0.75-0.1
	c-0.399,0-0.616,0.067-0.649,0.2C464.083,57.5,464.017,57.7,463.95,57.8z M462.1,61.8c-0.933,2.567-3.216,4.434-6.85,5.6
	c2.7-2.033,4.35-3.283,4.95-3.75C460.7,63.217,461.333,62.6,462.1,61.8z M453.9,68.3c1.267,0.1,2.133,0.117,2.6,0.05
	c-2.434,0.767-4.5,1.383-6.2,1.85l1.75-1C453.05,68.767,453.667,68.467,453.9,68.3z M427.2,15.6c-1.867,4.867-3.167,7.967-3.9,9.3
	c-0.434,0.733-1.017,1.283-1.75,1.65c-0.233-1.466-0.5-2.433-0.8-2.9c-0.366-0.566-0.967-0.85-1.8-0.85
	c-0.467,0.133-1,0.383-1.601,0.75c-1.199,0.8-2.183,1.883-2.949,3.25c-0.367,1.1-0.784,1.9-1.25,2.4c-0.634,0.7-1.467,1.05-2.5,1.05
	c-0.367,0-3.25-0.217-8.65-0.65c-5.733-0.5-8.733-0.817-9-0.95c-2.634-1.5-4.983-3.7-7.05-6.6c-1.967-2.733-2.95-5-2.95-6.8
	c0-0.667,0.25-1.317,0.75-1.95c7.134,0.3,11.2,0.45,12.2,0.45c0.3,0.033,3.316,0.417,9.05,1.15l1.15,0.15
	c-4.4-0.3-6.934-0.45-7.601-0.45l-3.399,0.05c0,0.1-0.367,0.217-1.101,0.35c0.967,0.8,2.867,2.5,5.7,5.1
	c2.6,2.233,4.517,3.35,5.75,3.35c0.5,0,2.983-1.117,7.45-3.35c4.3-2.167,6.684-3.434,7.149-3.8c0.2,0,0.4-0.017,0.601-0.05
	c2.166-0.2,4.366-0.5,6.6-0.9l-0.05,0.15L427.2,15.6z M493.7,118.2l-0.25,0.2l-1.7-3.45l2.3,2.85L493.7,118.2z M543.35,68.8
	c-0.1-1.233-0.767-2.85-2-4.85c-1.133-1.9-2.133-3.184-3-3.85l-1.149-0.85c1.366,1.667,2.316,3.467,2.85,5.4
	c0.467,1.7,0.7,3.85,0.7,6.45c0,1.967-0.517,3.767-1.55,5.4c-1.667,2.3-3.15,4.483-4.45,6.55c2.134,0.2,5.566,0.084,10.3-0.35
	l1.2,0.25c-2.4,4.533-5.483,7.416-9.25,8.649c-1.4,0.434-2.333,1-2.8,1.7c-0.667,1.066-1,3.017-1,5.851
	c0,1.833,0.217,4.116,0.649,6.85c0.367,2.4,0.767,4.434,1.2,6.1L533,112.65c-1.566-1.301-2.9-3.117-4-5.45
	c-1.033-2.233-1.55-4.3-1.55-6.2L527,88.6c0-1.899,0.566-3.416,1.7-4.55c0.434-0.399,1.7-1.233,3.8-2.5
	c3.634-2.233,5.45-5.8,5.45-10.7c0-5.434-0.816-9.133-2.45-11.1c-1.5-1.533-2.833-2.95-4-4.25c-2.167-2.433-4.366-5.3-6.6-8.6
	l1.05,0.55c0.967,0.6,3.333,1.983,7.1,4.15c2.5,1.467,4.351,2.7,5.55,3.7c3.334,2.7,5,6.267,5,10.7
	C543.6,66.667,543.517,67.6,543.35,68.8z M488.15,132.8c-0.467-2.666-2.934-4.684-7.4-6.05c-2.233-0.7-3.717-1.267-4.45-1.7
	c-1.3-0.767-1.95-1.833-1.95-3.2c0-1.366,1.284-3.8,3.851-7.3c1.467-2.033,3.934-5.3,7.399-9.8l3.65,6.35
	c-0.066-0.066-0.667-1-1.8-2.8c-0.733-1.2-1.3-1.899-1.7-2.1c-1.333,1.899-2.417,3.483-3.25,4.75c-1.6,2.399-2.417,3.899-2.45,4.5
	c1.8,1.233,5.667,3.684,11.601,7.35l-0.101,1.325v0.175l-0.05,0.5c-0.033,0.066-0.05,0.134-0.05,0.2l-0.45,3.4
	c0,1.133-0.2,2.116-0.6,2.949c-0.434,0.801-0.95,1.2-1.551,1.2L488.15,132.8z M451.4,22.55c0.133,2.034-1.117,4.167-3.75,6.4
	c-4.4,3.7-7.584,6.8-9.551,9.3c2.967-0.767,6.851-1.433,11.65-2c2.134-0.267,3.35-1,3.65-2.2v-11.5H451.4z M386.25,132.2
	c2.9-0.5,5.45-2,7.65-4.5c1.699-1.967,2.883-4.184,3.55-6.65c-0.867,2.867-2.584,4.884-5.15,6.05c-1.967,0.7-3.483,1.267-4.55,1.7
	c-1.9,0.733-3.467,1.634-4.7,2.7c1.934-2,4.95-4.583,9.05-7.75c3.301-2.566,5.233-4.316,5.801-5.25v-0.05
	c0.066-0.7,0.1-1.4,0.1-2.101c-0.066-0.399-0.85-1.85-2.35-4.35c-1.067-1.733-1.801-3.384-2.2-4.95c0.7,1.566,2.733,4.117,6.1,7.65
	c3.566,3.733,5.351,6.5,5.351,8.3c0,0.767-0.351,1.366-1.051,1.8c-3.1,1.867-7.066,4.316-11.899,7.351c-1-0.067-2.351-0.067-4.05,0
	C387.3,132.15,386.75,132.167,386.25,132.2z M283.7,11.95c0.166,1.633,0.983,3.533,2.45,5.7c1.433,2.1,2.149,3.8,2.149,5.1
	c0,9.567-2.116,15.633-6.35,18.2c-2.133,0.966-3.6,1.683-4.4,2.15c-1.333,0.767-2,1.967-2,3.6c0,0.466,0.967,1.783,2.9,3.95
	c2.2,2.467,4.7,4.85,7.5,7.15c8.133,6.667,15.616,10,22.45,10c4.233,0,8.866-1.833,13.899-5.5c5-3.633,7.5-6.95,7.5-9.95
	c0-7.434-1.816-12.7-5.45-15.8c-2.366-2.033-6.366-3.517-12-4.45c-6.1-1-10.116-2.1-12.05-3.3c-3.633-2.3-5.45-6.466-5.45-12.5
	c0-0.867,0.317-1.583,0.95-2.15l1.9,1.45c0.267,1.633,1.25,3.316,2.95,5.05c2.533,2.533,5.85,3.8,9.949,3.8
	c1.634,0,3.067,0.833,4.301,2.5c1.233,1.633,2.966,2.45,5.199,2.45c2.101,0,3.567-0.333,4.4-1c0.667-0.566,1.217-1.683,1.65-3.35
	h3.35c4.5,5.3,6.75,18.617,6.75,39.95c0,3.767-2.017,7.733-6.05,11.9c-3.934,4.034-7.5,6.05-10.7,6.05
	c-0.833,0-1.816-0.816-2.95-2.45c-1.767-2.533-3.184-4.317-4.25-5.35c-5.267-5.233-13.633-7.85-25.1-7.85c-8.4,0-15.8,2.6-22.2,7.8
	c-0.233,0.167-2.2,1.933-5.9,5.3c-1.767,1.633-3.133,2.449-4.1,2.449c-0.767,0-3.5-0.449-8.2-1.35c-4.8-0.9-7.6-1.533-8.4-1.9
	L238,79.4c1.067,0.166,2.8,0.25,5.2,0.25c4.433,0,10.1-2.734,17-8.2c6.733-5.3,10.1-9.417,10.1-12.35c0-1.6-0.7-2.983-2.1-4.15
	c-1.367-1.133-2.95-1.7-4.75-1.7c-0.333,0-1.017,0.15-2.05,0.45c-1.066,0.3-1.767,0.45-2.1,0.45c-0.566,0-2.2-1.883-4.9-5.65
	c-2.933-4.1-4.4-7.233-4.4-9.4c0-1.633,1.067-3.017,3.2-4.15c0.033,0,2.4-0.95,7.1-2.85c6.867-2.767,10.3-6.967,10.3-12.6
	c0-0.6-0.517-2.433-1.55-5.5c-1.1-3.133-1.716-4.883-1.85-5.25c2.933,0.767,5.183,1.5,6.75,2.2
	C275.25,11.35,278.5,11.683,283.7,11.95z M199.4,16.35c0.367,0.167,0.75,0.316,1.15,0.45c1.934,0.667,3.284,0.934,4.05,0.8
	c1.5,0,2.767-0.117,3.8-0.35h0.85c0.533,0.133,0.817,0.517,0.85,1.15c0.066,3-0.767,6.2-2.5,9.6c-1.867,3.6-4.317,6.5-7.35,8.7
	c-4.667,3.367-7.517,7.033-8.55,11c-0.233,0.9-0.5,1.95-0.8,3.15c-0.3,0.767-0.917,1.15-1.85,1.15c-1.8,0-3.283-0.4-4.45-1.2
	c-0.3-0.233-1.233-1.133-2.8-2.7c-2.6-2.6-6.517-3.9-11.75-3.9c-2.033,0-4.033,0.45-6,1.35c-1.966,0.867-3.833,1.3-5.6,1.3
	c-2.4,0-5.417-0.317-9.05-0.95c-3.633-0.7-5.967-1.133-7-1.3l-1.6-0.2l8.6,0.3c4.7,0,8.65-0.784,11.85-2.35
	c4.067-2.033,7.183-5.417,9.35-10.15c1.5-3.3,4.917-5.8,10.25-7.5c2.367-0.767,3.967-1.483,4.8-2.15
	c1.367-1.033,2.05-2.533,2.05-4.5c0-1.066-0.967-2.783-2.9-5.15c-2.066-2.533-4.433-4.783-7.1-6.75c0.966,0.067,3.4,0.917,7.3,2.55
	c3.967,1.633,6.533,2.867,7.7,3.7c1,2.633,1.5,4.5,1.5,5.6c0,2.3-2.75,6.1-8.25,11.4c-4.7,4.567-7.934,7.3-9.7,8.2l-1.8,0.4
	c0.633,0.267,1.316,0.4,2.05,0.4c0.667,0,3.783-0.25,9.35-0.75c1.233,0,3.917-2.133,8.05-6.4c4.367-4.5,6.55-7.85,6.55-10.05
	c0-1.3-0.05-2.05-0.15-2.25c-0.4-0.633-0.9-1.55-1.5-2.75C198.867,16.233,199.067,16.283,199.4,16.35z M70.9,5.15
	c-2.066,3.967-3.95,6.667-5.65,8.1c-1.367,1.2-2.967,1.8-4.8,1.8c-1.967,0-3.917-0.3-5.85-0.9c-2.667-0.8-5.05-2.117-7.15-3.95
	L48.7,10c6.1-1.1,9.933-1.767,11.5-2C60.933,7.833,64.5,6.883,70.9,5.15z M6.15,26.45c5.567-3.267,9.733-5.083,12.5-5.45
	c0.3-0.033,1.483-0.083,3.55-0.15c1.6-0.067,3.216-0.283,4.85-0.65c0.667-0.133,1.367-0.35,2.1-0.65c0.3,1.6,0.45,5.284,0.45,11.05
	c0,1.033-0.15,3.1-0.45,6.2c-0.4,3.633-0.767,5.833-1.1,6.6c0.233-1.467,0.434-3.566,0.6-6.3c0.1-2,0.15-3.483,0.15-4.45l-0.05-4.45
	l-1.35,4.3c-0.933,2.933-1.4,4.6-1.4,5c0,5.133-2.2,9.017-6.6,11.65c-3.933,2.333-8.183,3.05-12.75,2.15l1.45,0.75
	c-0.567-0.133-1.2-0.35-1.9-0.65c-0.934-0.433-1.4-0.833-1.4-1.2c0.333-2.867,0.467-4.85,0.4-5.95V43.7
	c0.1,0.066,1.533,1.417,4.3,4.05c1,0.933,2.35,1.4,4.05,1.4c2.767,0,4.5-1.183,5.2-3.55c0.333-1.1,0.5-3.65,0.5-7.65
	c0-2.3-0.117-3.717-0.35-4.25c-0.167-0.5-0.7-0.85-1.6-1.05C13.767,31.883,10.05,29.817,6.15,26.45z M42.4,96.35L38.5,94.2
	l1.7,0.649c2.033,0.467,3.583,0.7,4.65,0.7c2.633,0,4.517-0.149,5.65-0.45c1-0.3,2.117-0.966,3.35-2l0.05-0.05
	c0.6-0.666,1.167-1.666,1.7-3C55.767,89.65,55.9,89.3,56,89c0.833-1.967,1.867-4.583,3.1-7.85c0-0.334-0.267-0.667-0.8-1
	c-0.533-0.334-0.8-0.667-0.8-1c0-0.4,0.3-1.084,0.9-2.051c0.567-1,0.85-1.649,0.85-1.95c0-1.033-0.217-1.85-0.65-2.45
	c-0.233-0.267-2.117-1.7-5.65-4.3c1,0.233,2.933,0.45,5.8,0.65c2.433,0.2,4.033,0.3,4.8,0.3c3.867,0,7.383-2.9,10.55-8.7
	c2.6-6.133,4.066-9.533,4.4-10.2l-0.8,0.2c-0.367,0.033,0.7-0.5,3.2-1.6c-0.133-3.1-0.667-4.767-1.6-5c-2.4,0.1-5.066-0.066-8-0.5
	l2-0.2c3.434-0.133,8.083-3,13.95-8.6c5.567-5.9,8.7-9.2,9.4-9.9c0.3,9.133,3.667,15.95,10.1,20.45c1.767,1.2,4.467,2.8,8.1,4.8
	c3.1,1.9,5.367,3.833,6.8,5.8c-3.8-0.3-8.1-1.633-12.9-4c-4.667-2.3-7.183-3.45-7.55-3.45c-5.667,0-12.85,5.683-21.55,17.05
	c-1.533,2-4.667,6.367-9.4,13.1c-3.267,4.667-5.583,7.617-6.95,8.851c-1.167,2.1-3.017,4.116-5.55,6.05
	c-3.2,2.5-6.333,3.75-9.4,3.75c-0.633,0-1.5-0.066-2.6-0.2C44.417,96.85,43.3,96.616,42.4,96.35z M70.5,107.35
	c2.067,0.767,3.583,1.983,4.55,3.65c0.967,1.667,1.15,3.417,0.55,5.25c-0.633,1.8-1.867,3.15-3.7,4.05
	c-1.833,0.9-3.717,1.167-5.65,0.8c-0.7,0.267-1.65,0.684-2.85,1.25c-1.5,0.7-2.5,1.267-3,1.7l-2.35,0.601L56.9,125
	c0.567-0.8,1.467-1.816,2.7-3.05c1.4-1.4,2.5-2.3,3.3-2.7l1.7,0.15c1.933,0,3.217-0.467,3.85-1.4c0.466-0.634,0.783-1.934,0.95-3.9
	l1.45-1.8H69.7c0.167-0.7,0.267-1.399,0.3-2.1c0.067-0.367-0.233-1.566-0.9-3.601c-0.7-2.233-1.083-3.6-1.15-4.1l0.4,1
	C68.817,104.467,69.533,105.75,70.5,107.35z M124.95,112.65l-4.35,3.85c-0.4,0.333-1.217,0.9-2.45,1.7
	c-1.233,0.833-1.95,1.283-2.15,1.35l0.05-0.1c4.934-9.667,7.934-15.283,9-16.851c0.733-1.066,1.633-1.816,2.7-2.25
	c0.6-0.233,2.283-0.649,5.05-1.25c0.8-0.166,3.434-1.517,7.9-4.05c4.7-2.633,7.883-4.217,9.55-4.75c2.9-0.899,6.767-1.467,11.6-1.7
	c3.5-0.166,6.45-1.133,8.85-2.899l-0.2,0.95c-0.233,0.466-1.167,1.383-2.8,2.75c-1.3,1.1-2.233,1.833-2.8,2.199
	c-0.133,0.067-0.233,0.117-0.3,0.15c-0.3,0.134-3.083,1.033-8.35,2.7c0.3-0.334,0.5-0.684,0.6-1.05l-2.45,1.449
	c-0.4,0.101-1.867,0.717-4.4,1.851c-2.133,0.934-3.45,1.533-3.95,1.8c-6.5,0.866-11.566,2.533-15.2,5
	C127.35,105.934,125.383,108.983,124.95,112.65z M224.95,122l0.6,3.1c-1.867-1.899-3.883-3.883-6.05-5.949
	c-1.767-1.667-3.117-3-4.05-4l0.9,1.899c-1.333-0.5-2.65-0.75-3.95-0.75c-3.9,0-7.433,0.75-10.6,2.25l-1.55,0.75l7.8-5.45
	c3.1-2.166,5.95-3.6,8.55-4.3c0.566-0.166,2.35-0.434,5.35-0.8c-1.367,0.434-2.25,0.717-2.65,0.85
	c-0.833,0.233-1.883,0.767-3.15,1.601l-0.2,0.3c1.966,1.134,3.816,1.25,5.55,0.35c1.067-0.533,2.967-2.116,5.7-4.75
	c-1.767,0.534-3.233,1-4.4,1.4c0.133-0.1,0.317-0.217,0.55-0.35c0.6-0.4,1.017-0.7,1.25-0.9c0.4-0.366,0.883-1.25,1.45-2.65
	c0.9-2.233,2.534-6.816,4.9-13.75c0.466,3.9-0.667,9.067-3.4,15.5c-2.867,6.733-4.3,10.167-4.3,10.301c0,1.633,0.167,2.75,0.5,3.35
	C223.983,120.366,224.383,121.033,224.95,122z M225.05,122.25c0.167,0.333,0.7,1.616,1.6,3.85c0.434,1.101,0.8,2.017,1.1,2.75
	l-0.05,0.5l-0.2-0.6l-1.2-2.85C225.8,124.6,225.383,123.384,225.05,122.25z M227.75,131.55l0.5,1.3c0.5,0.9,0.85,1.534,1.05,1.9
	c0.1,0.134,0.534,0.5,1.3,1.1l0.8,1.2c0.1,0.7-0.15,1.934-0.75,3.7c-0.633,1.9-0.95,3.167-0.95,3.8l-1.65,0.95
	c0.1-2.467-0.517-4.167-1.85-5.1c-1.333-0.967-2-1.667-2-2.101s0.6-1.149,1.8-2.149C227.167,135.15,227.75,133.616,227.75,131.55z
	 M228.3,130.7l-0.55-1.25v-0.5C228.083,129.884,228.267,130.467,228.3,130.7z M326.3,70.35c-3.033,3.267-6.45,4.816-10.25,4.65
	l-0.5,0.1l8.05,0.2c2.367,0,4.101-0.3,5.2-0.9c1.367-0.7,2.417-2.066,3.15-4.1c1.233-3.466,2.217-12.383,2.95-26.75l-4.051,8.9
	C331.717,60.183,330.2,66.15,326.3,70.35z M323.15,126.45c-0.867,0.033-2.4,0.267-4.601,0.7c0.267-3.167,2.667-6.034,7.2-8.601
	c4.267-2.399,7.35-3.133,9.25-2.2c0.134,1.434-0.767,3.017-2.7,4.75C330.167,123.033,327.116,124.816,323.15,126.45z M286.4,27.8
	c-6.5,7-11.917,11.617-16.25,13.85c-3.167,1.633-7,2.434-11.5,2.4h-0.6c0.567,0.367,1.784,0.667,3.65,0.9c1.6,0.2,3.2,0.3,4.8,0.3
	c3.967,0,7.217-0.783,9.75-2.35c3.967-2.5,7.2-7.183,9.7-14.05L286.4,27.8z M280,131.15l-1,0.05c1.033-5.2,0.367-9.066-2-11.601
	c-0.8-0.866-2.25-2.05-4.35-3.55c-1.8-1.3-3.3-2.434-4.5-3.399c1.467,0.733,3.934,1.416,7.4,2.05c3,0.899,4.55,2.684,4.65,5.35
	c0.1,2.867,0.767,5.5,2,7.9c0.633,1.233,1.283,2.316,1.95,3.25L280,131.15z M117.65,85.8c4.033,0,7.483-1.233,10.35-3.7
	c2.833-2.5,4.25-5.516,4.25-9.05c0.367-0.8,0.75-1.733,1.15-2.8l0.1-0.4c0.833-5.934,1.25-9.033,1.25-9.3
	c1.833,1.867,3.55,4.784,5.15,8.75c1.5,3.7,2.25,6.583,2.25,8.65c0,3.833-1.25,7.366-3.75,10.6c-2.633,3.434-5.683,5.15-9.15,5.15
	c-2.233,0-4.167-0.467-5.8-1.4c-1.833-1.033-4.333-1.649-7.5-1.85c-1.6-0.101-5.617-0.084-12.05,0.05c-6.3,0.134-9.617,0.2-9.95,0.2
	c-0.967,0-2.483-0.55-4.55-1.65c-1.6-0.833-3.017-1.7-4.25-2.6l-1.6-1.2c2.767,1.533,6.034,2.3,9.8,2.3c2.033,0,5.6-0.267,10.7-0.8
	C109.417,86.184,113.95,85.866,117.65,85.8z M128.75,77.8c-0.833,2.167-2.633,3.983-5.4,5.45L128.75,77.8z M69.05,114.6
	c0-0.033,0.017-0.083,0.05-0.149c0,0.033,0.083-0.05,0.25-0.25L69.05,114.6z"/>
<path style="fill-rule:evenodd;clip-rule:evenodd;fill:#8E9EA8;" d="M543.35,68.8c0.334,2.833,0.417,5.15,0.25,6.95L543.2,78.2
	c-0.101,1.366,0.383,2.434,1.45,3.2c0.767,0.533,1.55,0.8,2.35,0.8c2.366,0,4.333-1.3,5.9-3.9c1.767-2.867,2.649-6.8,2.649-11.8
	c0-8.467-1.316-14.667-3.95-18.6c-0.699-1.066-1.616-2.083-2.75-3.05c-0.833-0.7-1.25-1.2-1.25-1.5c0-0.167,0.284-0.733,0.851-1.7
	s0.85-2.117,0.85-3.45c0-2-1.3-4.067-3.899-6.2c-2.134-1.733-3.551-2.6-4.25-2.6c-1.067,0-2.017,1.05-2.851,3.15
	c-0.967,2.333-2.649,3.867-5.05,4.6l-1,0.1l-1.05-0.2c1.133-0.933,2.783-3.1,4.95-6.5c2.233-3.533,3.383-5.333,3.449-5.4
	C549.033,33.483,555.3,42,558.4,50.7c1.733,4.867,2.6,11.083,2.6,18.65c0,3.333-0.917,6.117-2.75,8.35
	c-3.167,3.267-6.083,6.666-8.75,10.2c-1.333,1.8-2.167,5.767-2.5,11.899c-1.3,5.834-5.283,9.934-11.95,12.3
	c-0.434-1.666-0.833-3.699-1.2-6.1c-0.433-2.733-0.649-5.017-0.649-6.85c0-2.834,0.333-4.784,1-5.851c0.467-0.7,1.399-1.267,2.8-1.7
	c3.767-1.233,6.85-4.116,9.25-8.649l-1.2-0.25c-4.733,0.434-8.166,0.55-10.3,0.35c1.3-2.066,2.783-4.25,4.45-6.55
	c1.033-1.633,1.55-3.433,1.55-5.4c0-2.6-0.233-4.75-0.7-6.45c-0.533-1.933-1.483-3.733-2.85-5.4l1.149,0.85
	c0.867,0.667,1.867,1.95,3,3.85C542.583,65.95,543.25,67.567,543.35,68.8z M456.5,68.35c-0.467,0.066-1.333,0.05-2.6-0.05h-2.2
	c1.033-0.066,2.217-0.367,3.55-0.9c3.634-1.167,5.917-3.033,6.85-5.6c0.167-0.2,0.467-0.867,0.9-2c0.434-1.1,0.75-1.767,0.95-2
	c0.066-0.1,0.133-0.3,0.2-0.6c0.033-0.133,0.25-0.2,0.649-0.2c0.4,0,0.65,0.033,0.75,0.1v-1l0.101,0.8l0.199,4.85
	c0,1-0.233,2.067-0.699,3.2c-0.767,1-2.034,1.85-3.801,2.55S457.967,68.483,456.5,68.35z M489.25,111.1l2.5,3.851l1.7,3.45
	l-0.15,0.199c-0.733,1.834-1.217,3.067-1.45,3.7c-0.133,0.3-0.199,0.467-0.199,0.5c-5.934-3.666-9.801-6.116-11.601-7.35
	c0.033-0.601,0.851-2.101,2.45-4.5c0.833-1.267,1.917-2.851,3.25-4.75c0.4,0.2,0.967,0.899,1.7,2.1
	C488.583,110.1,489.184,111.033,489.25,111.1z M451.4,22.55h2v11.5c-0.301,1.2-1.517,1.934-3.65,2.2c-4.8,0.567-8.684,1.233-11.65,2
	c1.967-2.5,5.15-5.6,9.551-9.3C450.283,26.717,451.533,24.583,451.4,22.55z M406.15,15.05l11.6,1.25h2.1c0.082,0,0.165,0,0.25,0
	c-0.466,0.367-2.85,1.633-7.149,3.8c-4.467,2.233-6.95,3.35-7.45,3.35c-1.233,0-3.15-1.117-5.75-3.35c-2.833-2.6-4.733-4.3-5.7-5.1
	c0.733-0.133,1.101-0.25,1.101-0.35l3.399-0.05C399.217,14.6,401.75,14.75,406.15,15.05z M383.05,131.5
	c1.233-1.066,2.8-1.967,4.7-2.7c1.066-0.434,2.583-1,4.55-1.7c2.566-1.166,4.283-3.183,5.15-6.05
	c-0.667,2.467-1.851,4.684-3.55,6.65c-2.2,2.5-4.75,4-7.65,4.5c-0.9,0.033-1.667,0.1-2.3,0.2l-3.3,0.85
	C381.884,132.583,382.684,132,383.05,131.5z M297.7,15.6c1.767,1.233,4.3,2.667,7.6,4.3l1.2,0.45c4.8,1.633,8.217,2.867,10.25,3.7
	c0.366,0.1,3.5,0.434,9.4,1c-0.434,1.667-0.983,2.784-1.65,3.35c-0.833,0.667-2.3,1-4.4,1c-2.233,0-3.966-0.816-5.199-2.45
	c-1.233-1.667-2.667-2.5-4.301-2.5c-4.1,0-7.416-1.267-9.949-3.8C298.95,18.917,297.967,17.233,297.7,15.6z M8.1,52.05L6.65,51.3
	c4.567,0.9,8.817,0.184,12.75-2.15c4.4-2.633,6.6-6.517,6.6-11.65c0-0.4,0.467-2.067,1.4-5l1.35-4.3l0.05,4.45
	c0,0.967-0.05,2.45-0.15,4.45c-0.167,2.733-0.367,4.833-0.6,6.3c-0.667,2.934-1.933,5.467-3.8,7.6c-2.267,2.6-4.983,3.9-8.15,3.9
	c-1.667,0-3.2-0.367-4.6-1.1C10.067,52.933,8.933,52.35,8.1,52.05z M77.7,50.65l0.8-0.2c-0.333,0.667-1.8,4.066-4.4,10.2
	c-3.167,5.8-6.684,8.7-10.55,8.7c-0.767,0-2.367-0.1-4.8-0.3c-2.867-0.2-4.8-0.417-5.8-0.65c-1.5-0.4-2.383-0.683-2.65-0.85
	c-0.1-0.066-0.733-0.783-1.9-2.15l1.25,0.55c1.6,0.4,3.15,0.6,4.65,0.6c0.133,0,1.117-0.133,2.95-0.4
	c1.933-0.3,3.133-0.517,3.6-0.65L62,65c0.833-0.367,3.15-2.8,6.95-7.3C72.583,53.467,75.5,51.117,77.7,50.65z M222.8,108.5
	c1.167-0.4,2.633-0.866,4.4-1.4c-2.733,2.634-4.633,4.217-5.7,4.75c-1.733,0.9-3.583,0.784-5.55-0.35l0.2-0.3
	c1.267-0.834,2.317-1.367,3.15-1.601c0.4-0.133,1.284-0.416,2.65-0.85c0.1-0.033,0.216-0.05,0.35-0.05
	C222.367,108.7,222.533,108.634,222.8,108.5z M326.3,70.35c3.9-4.2,5.417-10.167,4.55-17.9l4.051-8.9
	c-0.733,14.367-1.717,23.284-2.95,26.75c-0.733,2.034-1.783,3.4-3.15,4.1c-1.1,0.6-2.833,0.9-5.2,0.9l-8.05-0.2l0.5-0.1
	C319.85,75.167,323.267,73.617,326.3,70.35z M286.4,27.8l-0.45,1.05c-2.5,6.867-5.733,11.55-9.7,14.05
	c-2.533,1.567-5.783,2.35-9.75,2.35c-1.6,0-3.2-0.1-4.8-0.3c-1.867-0.233-3.083-0.534-3.65-0.9h0.6c4.5,0.034,8.333-0.767,11.5-2.4
	C274.483,39.417,279.9,34.8,286.4,27.8z M198.8,16.2c0.6,1.2,1.1,2.117,1.5,2.75c0.1,0.2,0.15,0.95,0.15,2.25
	c0,2.2-2.184,5.55-6.55,10.05c-4.133,4.267-6.816,6.4-8.05,6.4c-5.567,0.5-8.684,0.75-9.35,0.75c-0.733,0-1.417-0.133-2.05-0.4
	l1.8-0.4c1.767-0.9,5-3.633,9.7-8.2c5.5-5.3,8.25-9.1,8.25-11.4c0-1.1-0.5-2.967-1.5-5.6l1.8,1.3c0.1,0.066,1.283,0.75,3.55,2.05
	C198.283,15.883,198.533,16.033,198.8,16.2z M117.65,85.8l5.7-2.55c2.767-1.467,4.566-3.283,5.4-5.45
	c0.067-0.166,0.667-1.283,1.8-3.35c1.133-2.1,1.8-3.284,2-3.55l0.15-1.05h0.8l-0.1,0.4l-0.85,0.65l-0.3,2.15
	c0,3.534-1.417,6.55-4.25,9.05C125.133,84.566,121.683,85.8,117.65,85.8z M156.25,94.45c-1.1,0.967-4.033,3.133-8.8,6.5
	c-5.167,3.666-8.817,6.116-10.95,7.35c-2.267,0.2-4.233,0.517-5.9,0.95c-0.3,0.167-0.7,0.417-1.2,0.75
	c-2.833,1.7-4.316,2.583-4.45,2.65c0.433-3.667,2.4-6.717,5.9-9.15c3.633-2.467,8.7-4.134,15.2-5c2.1-0.4,3.9-0.983,5.4-1.75
	c0.7-0.366,1.683-1,2.95-1.9l2.45-1.449C156.75,93.767,156.55,94.116,156.25,94.45z M69.35,114.2l0.05-0.101l0.3-1.8h1.15l-1.45,1.8
	c-0.167,1.967-0.483,3.267-0.95,3.9c-0.633,0.934-1.917,1.4-3.85,1.4l-1.7-0.15l-1.05-0.45c0.6-0.366,1.767-0.767,3.5-1.2
	c1.267-0.267,2.3-0.966,3.1-2.1l0.6-0.9L69.35,114.2z"/>
</svg>
