<?xml version="1.0" encoding="iso-8859-1"?>
<!-- Generator: Adobe Illustrator 15.1.0, SVG Export Plug-In . SVG Version: 6.00 Build 0)  -->
<!DOCTYPE svg PUBLIC "-//W3C//DTD SVG 1.1//EN" "http://www.w3.org/Graphics/SVG/1.1/DTD/svg11.dtd">
<svg version="1.1" id="Layer_1" xmlns="http://www.w3.org/2000/svg" xmlns:xlink="http://www.w3.org/1999/xlink" x="0px" y="0px"
	 width="91.9px" height="59.2px" viewBox="0 0 91.9 59.2" style="enable-background:new 0 0 91.9 59.2;" xml:space="preserve">
<g>
	<path style="fill-rule:evenodd;clip-rule:evenodd;fill:#CDD5D9;" d="M91.9,32.2c0.1,0.434,0.066,0.866-0.101,1.3
		c-1.434,0.2-2.434,0.233-3,0.1c-1.133-0.199-1.45-0.866-0.95-2c1.334-0.166,2.217-0.199,2.65-0.1L91.9,32.2z M82.15,32.9h2.1
		c-0.566,0.399-1.5,1.699-2.8,3.899c-1.334,1.7-2.733,1.983-4.2,0.851c-1.6-1.267-1.467-2.417,0.4-3.45
		C79.116,33.366,80.616,32.934,82.15,32.9z M60.3,25.5c1.066-0.067,1.884-0.183,2.45-0.35c0.32-0.128,0.854-0.378,1.6-0.75
		c-0.164,0.087-0.331,0.188-0.5,0.3l0.101,0.15c0.133-0.133,0.233-0.217,0.3-0.25l1.1-0.5c0.867-0.367,1.567-0.783,2.101-1.25
		l0.3-0.2l-0.8,0.1c1.3-0.767,2.45-1.083,3.45-0.95l2.05-0.7c0.967-0.167,2.416-0.083,4.35,0.25c2,0.333,3.334,0.767,4,1.3
		c0.367,0.3,0.8,0.867,1.3,1.7c0.434,0.8,0.9,1.35,1.4,1.65c0.233,0.133,0.783,0.267,1.65,0.4c0.166,0.033,0.333,0.067,0.5,0.1
		c-2.134,0.4-4.517,0.667-7.15,0.8c-1.767,0.1-4.184,0.15-7.25,0.15c-0.7,0-1.233-0.217-1.6-0.65c-0.9,0.7-1.517,1.117-1.851,1.25
		c-1.633,0.7-2.75,1.1-3.35,1.2c-1.134,0.167-2.25-0.133-3.351-0.9c-0.5-0.367-0.816-0.817-0.949-1.35
		C60.05,26.467,60.1,25.967,60.3,25.5z M59.95,25.5c-0.601,0.1-1.066,0.3-1.4,0.6c0.3-0.3,0.733-0.5,1.3-0.6
		C59.884,25.5,59.917,25.5,59.95,25.5z M16.25,37.55c-0.333-0.399-0.617-0.75-0.85-1.05c0.167,0.2,0.35,0.417,0.55,0.65L16.25,37.55
		z M64.85,8.3c0.634,1.6,1.317,3.55,2.051,5.85L66.4,13c-0.534-1.667-0.967-2.967-1.301-3.9C65,8.8,64.917,8.533,64.85,8.3z
		 M51.65,27.35l0.699,1.4c0.4,1.833-0.149,2.967-1.649,3.4c-0.9,0.267-2.4,0.25-4.5-0.051c-0.5-1.466-0.033-2.649,1.399-3.55
		C48.767,27.783,50.116,27.383,51.65,27.35z M6.7,17.65c0.333-0.566,0.75-1.1,1.25-1.6c0.533-0.5,1.383-0.95,2.55-1.35
		c1.3-0.434,2.133-0.784,2.5-1.05c0.733-0.5,1.533-1.483,2.4-2.95c0.833-1.467,1.583-2.4,2.25-2.8c0.6-0.367,1.517-0.633,2.75-0.8
		c1.767-0.2,2.733-0.317,2.9-0.35c0.633-0.167,1.684-0.6,3.15-1.3c1.267-0.6,2.267-0.934,3-1c0.9-0.067,1.85,0.133,2.85,0.6
		c1.133,0.633,2.017,1.067,2.65,1.3c2.133,0.867,4.216,0.967,6.25,0.3c0.767-0.267,2.667-1.233,5.7-2.9
		c2.133-1.4,3.733-2.367,4.8-2.9c1.866-0.9,3.7-1.083,5.5-0.55c0.833,0.233,1.616,0.567,2.35,1c-3.7,1.2-6.25,2.75-7.649,4.65
		C51.2,6.917,50.45,8.6,49.65,11c-0.567,1.133-0.9,2.017-1,2.65c-2.534,0.3-5.884,0.1-10.05-0.6c-0.733-0.1-1.817-0.333-3.25-0.7
		c-1.267-0.2-2.333-0.133-3.2,0.2c-1.3,0.467-2.55,1.267-3.75,2.4c-0.433,0.4-1.233,0.95-2.4,1.65c-1.067,0.633-1.817,1.2-2.25,1.7
		c-0.833,0.9-1.25,2.233-1.25,4c0,1.133-0.017,1.784-0.05,1.95c-0.133,0.467-0.517,0.883-1.15,1.25c-1.833,1.067-2.983,1.7-3.45,1.9
		c-1.5,0.667-2.717,0.833-3.65,0.5c-0.467-0.167-1.034-0.667-1.7-1.5c-0.733-0.933-1.217-1.55-1.45-1.85
		c-0.6-1.066-1.117-1.816-1.55-2.25c-0.167-0.167-0.467-0.367-0.9-0.6c-0.467-0.233-0.783-0.45-0.95-0.65
		C7.017,20.283,6.7,19.15,6.7,17.65z M5.9,21.35c0.033-1.033,0.117-1.817,0.25-2.35c0.1-0.333,0.233-0.667,0.4-1
		C6.217,18.8,6,19.917,5.9,21.35z M0.55,34.65c-0.966-1-0.583-2.051,1.15-3.15l2.75,1.4c0.167,0.566,0.133,1.449-0.1,2.649
		C2.75,35.85,1.483,35.55,0.55,34.65z M27.95,44.8V44.9c0.3,1.3,0.466,2.933,0.5,4.899c0.033,1.101,0.066,2.75,0.1,4.95
		c0,0.7-0.233,1.267-0.7,1.7c-0.033-0.066-0.067-0.117-0.1-0.15c-1.1-2.066-1.867-3.399-2.3-4c-0.8-1.166-1.3-2.316-1.5-3.45
		c-0.167-1.033-0.15-2.383,0.05-4.05c1.233-0.166,2.117-0.233,2.65-0.2C27.183,44.6,27.617,44.667,27.95,44.8z"/>
	<path style="fill-rule:evenodd;clip-rule:evenodd;fill:#B7BFCA;" d="M58.55,26.1c0.334-0.3,0.8-0.5,1.4-0.6
		c0.1-0.033,0.217-0.05,0.35-0.05v0.05c-0.2,0.467-0.25,0.967-0.149,1.5c0.133,0.533,0.449,0.983,0.949,1.35
		c1.101,0.767,2.217,1.066,3.351,0.9c0.6-0.1,1.717-0.5,3.35-1.2c0.334-0.133,0.95-0.55,1.851-1.25c0.366,0.434,0.899,0.65,1.6,0.65
		c3.066,0,5.483-0.05,7.25-0.15c2.634-0.133,5.017-0.4,7.15-0.8c0-0.033,0.017-0.05,0.05-0.05c0.633,0.133,1.033,0.25,1.2,0.35
		c0.767,2-0.051,3.15-2.45,3.45c-1.3,0.167-3.217,0.134-5.75-0.1c-1.3-0.034-2.25-0.034-2.851,0c-0.966,0.066-1.866,0.233-2.699,0.5
		c-0.601,0.199-1.517,0.733-2.75,1.6c-1.167,0.767-2.101,1.233-2.801,1.4c-1.566,0.366-3.683-0.184-6.35-1.65
		c-2.833-1.6-3.967-3.233-3.4-4.9c0.067-0.233,0.184-0.45,0.351-0.65L58.55,26.1z M64.35,24.4l0.101-0.05
		c0-0.033,0.017-0.05,0.05-0.05c0.033-0.033,0.066-0.05,0.1-0.05c0-0.033,0.017-0.05,0.051-0.05c0.033-0.034,0.066-0.05,0.1-0.05
		c0-0.033,0.017-0.05,0.05-0.05L64.9,24c0.466-0.267,0.983-0.583,1.55-0.95c0.166-0.1,0.333-0.2,0.5-0.3l0.8-0.1l-0.3,0.2
		c-0.533,0.467-1.233,0.883-2.101,1.25l-1.1,0.5c-0.066,0.033-0.167,0.117-0.3,0.25L63.85,24.7
		C64.019,24.587,64.186,24.487,64.35,24.4z M15.95,37.15c-0.2-0.233-0.383-0.45-0.55-0.65l-0.5-0.65c-0.033,0-0.05-0.017-0.05-0.05
		c-0.633-0.733-1.217-1.333-1.75-1.8l-1.15-0.9C9.383,31.434,7.767,30.066,7.1,29c-0.9-1.4-1.317-3.583-1.25-6.55l0.05-1.1
		C6,19.917,6.217,18.8,6.55,18c0.034-0.133,0.083-0.267,0.15-0.4v0.05c0,1.5,0.316,2.633,0.95,3.4c0.167,0.2,0.483,0.417,0.95,0.65
		c0.433,0.233,0.733,0.433,0.9,0.6c0.433,0.434,0.95,1.184,1.55,2.25c0.233,0.3,0.717,0.917,1.45,1.85
		c0.667,0.833,1.233,1.333,1.7,1.5c0.933,0.333,2.15,0.167,3.65-0.5c0.467-0.2,1.617-0.833,3.45-1.9
		c0.633-0.367,1.017-0.783,1.15-1.25c0.033-0.167,0.05-0.817,0.05-1.95c0-1.767,0.417-3.1,1.25-4c0.433-0.5,1.183-1.066,2.25-1.7
		c1.167-0.7,1.967-1.25,2.4-1.65c1.2-1.133,2.45-1.934,3.75-2.4c0.867-0.333,1.934-0.4,3.2-0.2c1.433,0.367,2.517,0.6,3.25,0.7
		c4.167,0.7,7.516,0.9,10.05,0.6c0.1-0.633,0.433-1.517,1-2.65c0.8-2.4,1.55-4.083,2.25-5.05C53.3,4.05,55.85,2.5,59.55,1.3L60.6,2
		c1,0.767,1.851,1.717,2.551,2.85l-1.7,1c-1.601,1-2.467,1.9-2.601,2.7c-0.066,0.3-0.033,0.684,0.101,1.15
		c0.1,0.267,0.217,0.633,0.35,1.1c0.233,1.067,0.233,1.95,0,2.65c-0.233,0.7-0.783,1.417-1.649,2.15c-0.834,0.733-2.25,1.1-4.25,1.1
		c-1.101,0-2.667-0.067-4.7-0.2c-0.367,0-1,0.033-1.9,0.1c-0.833,0.033-1.483-0.017-1.95-0.15c-0.233-0.067-0.583-0.233-1.05-0.5
		c-0.433-0.233-0.8-0.367-1.1-0.4c-1.8-0.233-3.85-0.1-6.15,0.4c-2.533,0.5-4.417,1.283-5.65,2.35c1.367,0.067,2.417,0.15,3.15,0.25
		c1.3,0.133,2.2,0.467,2.7,1c0.8,0.9,0.883,2.15,0.25,3.75c-0.233,0.7-0.717,1.367-1.45,2c-0.4,0.367-1.05,0.917-1.95,1.65
		c-0.733,0.733-1.167,1.333-1.3,1.8c-0.1,0.3-0.167,1.017-0.2,2.15c-0.1,1.833-0.767,3.583-2,5.25
		c-0.167,0.233-0.483,0.649-0.95,1.25c-0.4,0.5-0.767,0.833-1.1,1c-0.533,0.3-1.283,0.433-2.25,0.399c-0.566,0-1.367-0.033-2.4-0.1
		c-0.633,0-1.717,0.017-3.25,0.05c-1.3-0.066-2.333-0.3-3.1-0.7C16.783,37.917,16.417,37.616,15.95,37.15z M27.95,44.8
		c0.066,0.033,0.133,0.066,0.2,0.101l0.3,0.149l0.05,0.05c0.1,0.067,0.183,0.167,0.25,0.301h0.7c0.8,0.866,1.683,1.583,2.65,2.149
		c0.467,0.4,0.75,0.834,0.85,1.3c0.167,0.934,0.1,2.217-0.2,3.851c-0.133,0.733-0.467,1.8-1,3.2c-0.533,1.5-0.883,2.6-1.05,3.3
		c-0.4-0.066-0.833-0.316-1.3-0.75L28.65,57.6c-0.3-0.333-0.583-0.716-0.85-1.149h0.05c0.467-0.434,0.7-1,0.7-1.7
		c-0.033-2.2-0.066-3.85-0.1-4.95c-0.034-1.967-0.2-3.6-0.5-4.899V44.8z"/>
	<path style="fill-rule:evenodd;clip-rule:evenodd;fill:#ADB7C1;" d="M64.85,8.3C64.917,8.533,65,8.8,65.1,9.1
		c0.334,0.933,0.767,2.233,1.301,3.9l-1.351,0.75c-2.166,1.267-3.583,2.25-4.25,2.95c-0.1,0.1-0.3,0.383-0.6,0.85
		c-0.267,0.467-0.483,0.75-0.65,0.85c-0.6,0.333-1.55,0.483-2.85,0.45c-0.7-0.033-1.667-0.1-2.9-0.2c-1.033,0-2.616,0.1-4.75,0.3
		c-2.533,0.233-5.083,1.533-7.65,3.9c-1.433,1.333-3.467,3.483-6.1,6.45c-0.667,0.667-1.1,1.184-1.3,1.55
		c-0.233,0.467-0.367,1.117-0.4,1.95c0,2.033-0.117,3.584-0.35,4.65c-0.367,1.399-1.067,2.533-2.1,3.399
		c-0.8,0.733-1.917,1.067-3.35,1c-1.767-0.633-3.316-1.05-4.65-1.25l-0.55-0.1c-0.033,0-0.067,0-0.1,0
		c-1.867-0.167-3.033-0.35-3.5-0.55c-0.8-0.334-1.717-1.134-2.75-2.4l-0.3-0.399c0.466,0.466,0.833,0.767,1.1,0.899
		c0.767,0.4,1.8,0.634,3.1,0.7c1.533-0.033,2.617-0.05,3.25-0.05c1.033,0.066,1.833,0.1,2.4,0.1c0.967,0.033,1.717-0.1,2.25-0.399
		c0.333-0.167,0.7-0.5,1.1-1c0.467-0.601,0.783-1.017,0.95-1.25c1.233-1.667,1.9-3.417,2-5.25c0.033-1.134,0.1-1.851,0.2-2.15
		c0.133-0.467,0.567-1.067,1.3-1.8c0.9-0.733,1.55-1.284,1.95-1.65c0.733-0.633,1.217-1.3,1.45-2c0.633-1.6,0.55-2.85-0.25-3.75
		c-0.5-0.533-1.4-0.867-2.7-1c-0.733-0.1-1.783-0.183-3.15-0.25c1.233-1.066,3.117-1.85,5.65-2.35c2.3-0.5,4.35-0.633,6.15-0.4
		c0.3,0.034,0.667,0.167,1.1,0.4c0.467,0.267,0.817,0.433,1.05,0.5c0.466,0.133,1.117,0.183,1.95,0.15c0.9-0.067,1.533-0.1,1.9-0.1
		c2.033,0.133,3.6,0.2,4.7,0.2c2,0,3.416-0.367,4.25-1.1c0.866-0.733,1.416-1.45,1.649-2.15c0.233-0.7,0.233-1.583,0-2.65
		c-0.133-0.466-0.25-0.833-0.35-1.1c-0.134-0.467-0.167-0.85-0.101-1.15c0.134-0.8,1-1.7,2.601-2.7l1.7-1
		c0.5,0.767,0.966,1.7,1.399,2.8C64.65,7.85,64.75,8.067,64.85,8.3z"/>
	<path style="fill-rule:evenodd;clip-rule:evenodd;fill:#8F97A4;" d="M66.9,14.15c0.966,1.833,0.666,3.35-0.9,4.55
		c-1.366,1.033-3.267,1.566-5.7,1.6c-1.3,0.034-2.383,0.25-3.25,0.65c-0.533,0.233-1.45,0.75-2.75,1.55c-0.8,0.433-1.8,0.683-3,0.75
		c-0.7,0-1.8-0.017-3.3-0.05c-1.5,0.033-2.384,0.117-2.65,0.25c-0.233,0.133-0.716,0.733-1.45,1.8c-0.433,0.633-0.933,1.367-1.5,2.2
		c-0.5,0.633-1.117,1.233-1.85,1.8c-0.5,0.4-1.167,0.9-2,1.5c-0.667,0.533-1.216,1.134-1.65,1.8c-0.833,1.267-1.25,3-1.25,5.2
		c-0.033,3.566-0.05,5.384-0.05,5.45l-0.95,0.1c-1,0.033-2.033-0.066-3.1-0.3c-0.3-0.066-0.65-0.167-1.05-0.3
		c-0.333-0.101-0.65-0.184-0.95-0.25c-0.2-0.066-0.383-0.134-0.55-0.2s-0.333-0.116-0.5-0.15c-0.133-0.033-0.25-0.066-0.35-0.1
		c-0.033-0.033-0.066-0.05-0.1-0.05c-0.1-0.033-0.183-0.066-0.25-0.101c1.434,0.067,2.55-0.267,3.35-1
		c1.033-0.866,1.733-2,2.1-3.399c0.233-1.066,0.35-2.617,0.35-4.65c0.033-0.833,0.167-1.483,0.4-1.95
		c0.2-0.366,0.633-0.883,1.3-1.55c2.633-2.966,4.667-5.117,6.1-6.45c2.567-2.367,5.117-3.667,7.65-3.9c2.134-0.2,3.717-0.3,4.75-0.3
		c1.233,0.1,2.2,0.167,2.9,0.2c1.3,0.033,2.25-0.117,2.85-0.45c0.167-0.1,0.384-0.383,0.65-0.85c0.3-0.466,0.5-0.75,0.6-0.85
		c0.667-0.7,2.084-1.684,4.25-2.95L66.4,13L66.9,14.15z"/>
</g>
</svg>
