<?xml version="1.0" encoding="iso-8859-1"?>
<!-- Generator: Adobe Illustrator 15.1.0, SVG Export Plug-In . SVG Version: 6.00 Build 0)  -->
<!DOCTYPE svg PUBLIC "-//W3C//DTD SVG 1.1//EN" "http://www.w3.org/Graphics/SVG/1.1/DTD/svg11.dtd">
<svg version="1.1" id="Layer_1" xmlns="http://www.w3.org/2000/svg" xmlns:xlink="http://www.w3.org/1999/xlink" x="0px" y="0px"
	 width="248px" height="143.65px" viewBox="0 0 248 143.65" style="enable-background:new 0 0 248 143.65;" xml:space="preserve">
<g>
	<path style="fill-rule:evenodd;clip-rule:evenodd;fill:#ADB7C1;" d="M220.3,95.3c-2.133-0.3-4.066-0.767-5.8-1.399
		c-0.4-0.9-0.3-1.884,0.3-2.95c0.2,0.133,0.434,0.267,0.7,0.399l1.2,0.45l0.05,0.05c0.1,0,0.184,0.017,0.25,0.051
		c1.967,0.533,3.65,0.517,5.05-0.051c1.434-0.6,2.7-1.783,3.8-3.55c0.667-1.1,2.134-1.517,4.4-1.25
		c2.6,0.566,4.316,0.934,5.15,1.101c3.566,0.666,6.5,1.616,8.8,2.85l2.3,1.4c0.566,0.6,0.95,1.166,1.15,1.699l-0.2-0.05
		c-1.467-0.6-3.851-1.1-7.15-1.5c-1.533-0.233-3.35-0.366-5.45-0.399c-1.233-0.034-3.066-0.034-5.5,0c-1.666,0-3.267,0.25-4.8,0.75
		C222.85,93.467,221.434,94.267,220.3,95.3z M183.05,87.3l-1.3,0.101c-0.866-2.034-0.583-4.95,0.85-8.75
		c0.434-1.233,0.684-2,0.75-2.301c0.2-0.8,0.317-1.6,0.351-2.399c0.033-1.4-0.167-2.617-0.601-3.65
		c-0.366-0.8-1.083-1.85-2.149-3.15c-1-1.233-1.9-2.983-2.7-5.25c-0.5-1.333-1.066-3.233-1.7-5.7c-0.267-0.9-0.467-1.65-0.6-2.25
		c-0.233-1.133-0.2-1.883,0.1-2.25c1.233-1.233,3-0.3,5.3,2.8c0.9,1.233,2.101,3.117,3.601,5.65c1.399,2.167,2.833,3.85,4.3,5.05
		c1.1,0.867,2.9,1.833,5.4,2.9c2.5,1.033,4.3,1.983,5.399,2.85c0.367,0.3,0.851,0.75,1.45,1.35c0.6,0.533,1.167,0.9,1.7,1.101
		c0.533,0.199,1.2,0.3,2,0.3c0.899-0.033,1.566-0.05,2-0.05c1.733,0.066,3.3,0.333,4.7,0.8c1.3,0.434,2.699,1.149,4.199,2.149
		c0.4,0.301,1.15,0.817,2.25,1.551c0.967,0.699,1.551,1.366,1.75,2c0.067,0.233,0.051,1.033-0.05,2.399
		c-0.5,0.167-1.583,0.4-3.25,0.7h-0.05l-0.05-0.1c-0.267-0.334-0.566-0.617-0.9-0.851c-0.033-0.033-0.066-0.066-0.1-0.1
		c0.8-0.967,1.133-1.967,1-3c-0.033-0.134-0.267-0.834-0.7-2.101c-0.634-0.133-1.483-0.183-2.55-0.149
		c-0.601,0.033-1.483,0.066-2.65,0.1c-1.934,0-5.166-0.283-9.7-0.85c-0.866-0.101-1.816-0.434-2.85-1
		c-1.233-0.667-2.15-1.084-2.75-1.25c-3.167-0.8-5.75-1.101-7.75-0.9c-0.2,1-0.184,2.483,0.05,4.45c0.233,2.1,0.3,3.6,0.2,4.5
		c-0.134,1.167-0.75,2.2-1.85,3.1C185.517,85.634,184.483,86.366,183.05,87.3z M153.4,78c-1.067-1.2-2.167-2.283-3.301-3.25
		l-3.199-2.4l-0.051-0.05c-0.166-0.066-0.316-0.149-0.449-0.25c-0.801-2.867-2.517-4.917-5.15-6.15c-2.8-1.367-4.934-2.283-6.4-2.75
		c-1.233-0.367-1.983-0.6-2.25-0.7c-0.8-0.333-1.517-0.733-2.149-1.2c-3.467-2.7-5.4-4.183-5.8-4.45c-2.234-1.6-4.367-2.767-6.4-3.5
		c0.267,0.967,0.767,2.233,1.5,3.8c0.867,1.9,1.417,3.15,1.65,3.75c0.434,1.267,0.65,2.733,0.65,4.4
		c-0.133-1.067-0.566-2.367-1.3-3.9c-1.133-2.4-1.733-3.667-1.8-3.8c-0.367-1.033-0.983-2.517-1.85-4.45l-1.25-2.75
		c-0.533-1.133-0.95-2.067-1.25-2.8c-0.533-1.367-0.767-2.466-0.7-3.3c0.067-1.067,0.617-1.733,1.65-2
		c0.8-0.233,1.45-0.133,1.95,0.3c0.2,0.133,0.65,0.717,1.35,1.75c2.3,3.3,4.833,6.333,7.6,9.1c2.467,2.567,5.033,4.45,7.7,5.65
		c0.866,0.367,1.866,0.6,3,0.7c0.466,0.033,1.483,0.05,3.05,0.05c4.133-0.066,7.517,0.917,10.149,2.95
		c1.334,1.067,2.267,2.583,2.801,4.55c0.366,1.333,0.583,3.15,0.649,5.45C153.833,74.483,153.7,76.233,153.4,78z M177.85,108.2
		c-0.1-0.033-0.183-0.05-0.25-0.05c-0.699-0.233-1.366-0.417-2-0.551c-2.199-0.5-4.133-1.383-5.8-2.649
		c-1.899-1.733-3.483-3.167-4.75-4.3c-1.633-1.301-2.783-2.25-3.45-2.851c-1.133-1.033-1.949-2.233-2.449-3.6
		c-0.367-0.967-0.601-2.233-0.7-3.8c-0.167-2.233-0.283-3.517-0.351-3.851c-0.267-2.033-1.267-4.2-3-6.5l-0.1-2.1
		c0.4-0.033,0.767,0.416,1.1,1.35c0.2,0.5,0.417,1.15,0.65,1.95c0.667,1.5,1.717,3.767,3.15,6.8c0.433,1,1.033,2.467,1.8,4.4
		c0.7,1.6,1.533,2.934,2.5,4c1.333,1.5,3.017,2.899,5.05,4.2c1.066,0.699,2.967,1.8,5.7,3.3c1.333,0.733,3.217,1.434,5.649,2.1
		c2.867,0.8,4.784,1.4,5.75,1.8l1.2,0.45l1.4,0.55c0.399,0.2,0.783,0.483,1.149,0.851c0.367,0.333,0.884,0.916,1.551,1.75
		c0.6,0.6,1.883,1.616,3.85,3.05c1.667,1.2,2.866,2.316,3.6,3.35c0.634,0.9,1.067,1.884,1.301,2.95c0.166,0.767,0.25,1.834,0.25,3.2
		v0.75c-0.134-0.333-0.367-1.25-0.7-2.75c-0.3-1.233-0.601-2.134-0.9-2.7c-0.333-0.633-1.25-1.566-2.75-2.8
		c-3.8-2.8-7-4.884-9.6-6.25C184.2,108.95,181.25,108.267,177.85,108.2z M113.75,87.55c-0.4-0.1-0.8-0.2-1.2-0.3l-2.4-0.65
		c-1.066-0.333-1.917-0.666-2.55-1c-0.333-0.166-0.8-0.55-1.4-1.149c-0.567-0.533-1.017-0.867-1.35-1c-0.667-0.233-2.1-0.2-4.3,0.1
		h-4.4c-0.346-0.004-0.679-0.021-1-0.05c-1.2,0-2.283,0.05-3.25,0.15c-0.1,0-0.167,0-0.2,0c-0.467,0.066-0.934,0.133-1.4,0.199
		c-0.066,0-0.117,0.017-0.15,0.051c-0.066,0-0.117,0-0.15,0l-1-2.25c-0.233-0.267-0.467-0.7-0.7-1.301
		c-0.233-0.633-0.417-1.083-0.55-1.35c-1.233-3-2.217-5.217-2.95-6.65c-1.533-2.733-2.867-4.417-4-5.05
		c-0.833-0.466-2.15-0.617-3.95-0.45c-1.2,0.1-2.333,0.566-3.4,1.4c-0.6,0.5-1.55,1.283-2.85,2.35
		c-0.233,0.167-0.917,0.533-2.05,1.1c-0.833,0.434-1.483,0.899-1.95,1.399l-1.2,1.15c0.434-1.033,1.467-2.433,3.1-4.2
		c1.733-1.833,2.783-3.283,3.15-4.35c0.233-0.867,0.4-1.467,0.5-1.8c0.2-0.533,0.567-0.983,1.1-1.35
		c1.333-0.867,2.817-1.383,4.45-1.55c1.7-0.167,3.383,0.183,5.05,1.05c1.567,0.8,2.85,1.934,3.85,3.4c0.4,0.633,0.833,1.767,1.3,3.4
		c0.434,1.533,0.9,2.617,1.4,3.25c0.5,0.667,1.284,1.267,2.35,1.801c0.6,0.333,1.5,0.783,2.7,1.35c0.667,0.366,1.55,1.05,2.65,2.05
		c1.133,0.967,2.017,1.634,2.65,2c1.033,0.601,2.217,1.033,3.55,1.3c1.433,0.301,2.716,0.367,3.85,0.2
		c0.833-0.133,1.6-0.566,2.3-1.3c0.367-0.366,0.9-1.1,1.6-2.2c0.333-0.633,0.566-1.083,0.7-1.35c0.267-0.5,0.6-0.917,1-1.25
		c0.533-0.434,1.25-0.851,2.15-1.25c1.034-0.434,1.784-0.783,2.25-1.05c1.133-0.601,2.184-1.434,3.15-2.5
		c1.066-1.2,1.667-2.4,1.8-3.6v0.1c-0.033,0.934-0.25,2.017-0.65,3.25c-0.067,0.233-0.467,1.283-1.2,3.15
		c-0.4,1.033-0.983,2.884-1.75,5.55c-0.667,2.367-1.3,4.2-1.9,5.5c-0.5,1.101-0.867,1.817-1.1,2.15
		C114.9,86.8,114.35,87.316,113.75,87.55z M58.6,63c-0.5-0.633-1.15-1.167-1.95-1.6l-2.15-0.95L52.55,60
		c-0.4-0.067-0.783-0.133-1.15-0.2l-1.2-0.1c-0.1-0.034-0.2-0.05-0.3-0.05c-6.066-0.533-9.3-0.85-9.7-0.95h-0.05
		c-1.3-0.367-3.367-0.85-6.2-1.45c-2.333-0.733-4-1.833-5-3.3c-0.3-0.434-0.7-1.217-1.2-2.35c-0.067-0.167-0.133-0.333-0.2-0.5
		c-0.033-0.033-0.05-0.067-0.05-0.1c-0.067-0.167-0.133-0.317-0.2-0.45l-0.2-0.45c-0.033-0.1-0.067-0.184-0.1-0.25
		c-0.367-0.767-0.667-1.35-0.9-1.75v-0.05c0.333,0.4,0.816,0.784,1.45,1.15c0.333,0.2,0.85,0.483,1.55,0.85
		c0.5,0.3,1.233,0.767,2.2,1.4c0.833,0.5,1.617,0.85,2.35,1.05c0.934,0.2,2.083,0.3,3.45,0.3c1.6-0.033,2.767-0.066,3.5-0.1
		c3.167-0.333,5.566-0.583,7.2-0.75c2.9-0.267,5.233,0,7,0.8c2.167,0.967,3.583,2.45,4.25,4.45C59.717,59.133,59.567,61.067,58.6,63
		z"/>
	<path style="fill-rule:evenodd;clip-rule:evenodd;fill:#8F97A4;" d="M247.65,94.1c0.1,0.267,0.133,0.534,0.1,0.801
		c0,0.1-0.017,0.183-0.05,0.25c-1.101,0.3-2.816,0.199-5.15-0.301c-2.899-0.6-4.684-0.916-5.35-0.949
		c-2.267-0.034-3.884-0.034-4.851,0c-1.833,0.1-3.399,0.35-4.699,0.75c-1.634,0.533-2.801,0.833-3.5,0.899
		c-0.801,0.101-1.95,0.033-3.45-0.2c-0.134-0.033-0.267-0.05-0.4-0.05c1.134-1.033,2.55-1.833,4.25-2.399
		c1.533-0.5,3.134-0.75,4.8-0.75c2.434-0.034,4.267-0.034,5.5,0c2.101,0.033,3.917,0.166,5.45,0.399c3.3,0.4,5.684,0.9,7.15,1.5
		L247.65,94.1z M183.5,87.3h-0.45c1.434-0.934,2.467-1.666,3.101-2.2c1.1-0.899,1.716-1.933,1.85-3.1c0.1-0.9,0.033-2.4-0.2-4.5
		c-0.233-1.967-0.25-3.45-0.05-4.45c2-0.2,4.583,0.101,7.75,0.9c0.6,0.166,1.517,0.583,2.75,1.25c1.033,0.566,1.983,0.899,2.85,1
		c4.534,0.566,7.767,0.85,9.7,0.85c1.167-0.033,2.05-0.066,2.65-0.1c1.066-0.033,1.916,0.017,2.55,0.149
		c0.434,1.267,0.667,1.967,0.7,2.101c0.133,1.033-0.2,2.033-1,3l-3.351-1.25c-0.552-0.13-1.152-0.197-1.8-0.2h-0.45
		c-0.1,0-0.199,0-0.3,0h-0.35c-1.367,0-3.084,0.083-5.15,0.25c-1.2,0-3.233-0.083-6.1-0.25c-2.5-0.033-4.434,0.333-5.8,1.1
		c-0.967,0.567-2.267,1.717-3.9,3.45c-1.033,0.934-1.767,1.483-2.2,1.65C185.833,87.15,184.9,87.267,183.5,87.3z M204.35,135.65
		c-1.366-1-2.633-2.65-3.8-4.95c-0.899-1.8-1.633-3.8-2.2-6c-0.699-2.533-2.033-4.95-4-7.25c-1.933-2.267-4.166-4.017-6.699-5.25
		c-3.834-1.834-7.101-3.167-9.801-4c3.4,0.066,6.351,0.75,8.851,2.05c2.6,1.366,5.8,3.45,9.6,6.25c1.5,1.233,2.417,2.167,2.75,2.8
		c0.3,0.566,0.601,1.467,0.9,2.7c0.333,1.5,0.566,2.417,0.7,2.75v0.1c0.399,1.067,1,2.65,1.8,4.75c0.7,1.9,1.233,3.5,1.6,4.801
		l0.3,1.05V135.65z M146.4,72.05c-0.4-0.233-0.801-0.45-1.2-0.65c-2.033-1.066-4.533-1.683-7.5-1.85c-0.367,0-2.967,0.017-7.8,0.05
		c-1.034,0-2.384,0-4.051,0c-1.199,0.233-1.95,1.1-2.25,2.6c-0.133,0.7-0.283,1.666-0.45,2.899c-0.2,1.067-0.483,2.017-0.85,2.851
		c-0.7,1.5-1.267,3.399-1.7,5.7c-0.733,3.733-1.117,5.683-1.15,5.85c-1.233-0.7-3.133-1.35-5.7-1.95c0.6-0.233,1.15-0.75,1.65-1.55
		c0.233-0.333,0.6-1.05,1.1-2.15c0.6-1.3,1.233-3.133,1.9-5.5c0.767-2.666,1.35-4.517,1.75-5.55c0.733-1.867,1.133-2.917,1.2-3.15
		c0.4-1.233,0.617-2.316,0.65-3.25v-0.1l0.05-1.05c0-1.667-0.216-3.133-0.65-4.4c-0.233-0.6-0.783-1.85-1.65-3.75
		c-0.733-1.567-1.233-2.833-1.5-3.8c2.033,0.733,4.167,1.9,6.4,3.5c0.399,0.267,2.333,1.75,5.8,4.45
		c0.633,0.467,1.35,0.867,2.149,1.2c0.267,0.1,1.017,0.333,2.25,0.7c1.467,0.467,3.601,1.383,6.4,2.75
		C143.884,67.133,145.6,69.183,146.4,72.05z M45.15,94.5c-0.066,0-0.117,0-0.15,0c0.3-0.267,0.767-0.566,1.4-0.9
		c0.8-0.466,1.267-0.733,1.4-0.8c0.567-0.399,1.2-0.95,1.9-1.649c0.8-0.801,1.383-1.384,1.75-1.75c0.4-0.367,1.167-0.967,2.3-1.801
		c0.967-0.733,1.683-1.366,2.15-1.899c1.767-2,3.25-3.851,4.45-5.55c1.4-2.034,2.45-3.384,3.15-4.051l1.9-1.85l1.2-1.15
		c0.467-0.5,1.117-0.966,1.95-1.399c1.133-0.567,1.817-0.934,2.05-1.1c1.3-1.067,2.25-1.85,2.85-2.35c1.066-0.833,2.2-1.3,3.4-1.4
		c1.8-0.167,3.117-0.017,3.95,0.45c1.133,0.633,2.467,2.317,4,5.05c0.733,1.434,1.717,3.65,2.95,6.65
		c0.133,0.267,0.317,0.717,0.55,1.35c0.233,0.601,0.467,1.034,0.7,1.301l1,2.25c-2.467,0.5-4.55,1.483-6.25,2.949
		c0-0.866,0.683-2.083,2.05-3.649c1.233-1.434,1.684-2.917,1.35-4.45c-0.233-0.967-0.667-1.684-1.3-2.15
		c-0.3-0.199-1.117-0.566-2.45-1.1c-0.566-0.233-1.383-0.733-2.45-1.5c-1.067-0.7-1.85-1.15-2.35-1.35
		c-1.7-0.601-3.767-0.617-6.2-0.051c-2,0.467-3.933,1.233-5.8,2.301c-1.467,0.833-2.783,1.933-3.95,3.3
		c-0.5,0.633-1.517,2.066-3.05,4.3c-1.8,2.667-3.333,4.733-4.6,6.2c-2.067,2.366-4.067,3.983-6,4.85
		c-0.5,0.233-1.15,0.434-1.95,0.601C46.617,94.217,45.983,94.333,45.15,94.5z"/>
	<path style="fill-rule:evenodd;clip-rule:evenodd;fill:#B7BFCA;" d="M214.8,90.95c0.167-0.233,0.334-0.45,0.5-0.65
		c0.9-1.3,1.517-2.283,1.851-2.95c0.633-1.267,0.616-2.449-0.051-3.55c-0.1-0.2-0.216-0.383-0.35-0.55h0.05
		c1.667-0.3,2.75-0.533,3.25-0.7c0.101-1.366,0.117-2.166,0.05-2.399c-0.199-0.634-0.783-1.301-1.75-2
		c-1.1-0.733-1.85-1.25-2.25-1.551c-1.5-1-2.899-1.716-4.199-2.149c-1.4-0.467-2.967-0.733-4.7-0.8c-0.434,0-1.101,0.017-2,0.05
		c-0.8,0-1.467-0.101-2-0.3c-0.533-0.2-1.101-0.567-1.7-1.101c-0.6-0.6-1.083-1.05-1.45-1.35c-1.1-0.867-2.899-1.817-5.399-2.85
		c-2.5-1.067-4.301-2.033-5.4-2.9c-1.467-1.2-2.9-2.883-4.3-5.05c-1.5-2.533-2.7-4.417-3.601-5.65c-2.3-3.1-4.066-4.033-5.3-2.8
		c-0.3,0.367-0.333,1.117-0.1,2.25c0.133,0.6,0.333,1.35,0.6,2.25c0.634,2.466,1.2,4.367,1.7,5.7c0.8,2.267,1.7,4.017,2.7,5.25
		c1.066,1.3,1.783,2.35,2.149,3.15c0.434,1.034,0.634,2.25,0.601,3.65c-0.033,0.8-0.15,1.6-0.351,2.399
		c-0.066,0.301-0.316,1.067-0.75,2.301c-1.433,3.8-1.716,6.716-0.85,8.75c-0.4,0.066-0.717,0.183-0.95,0.35
		c-0.166,0.1-0.283,0.233-0.35,0.4c-0.066,0.066-0.117,0.149-0.15,0.25c0,0.033,0,0.066,0,0.1c-0.033,0.066-0.05,0.134-0.05,0.2
		v0.149c-0.033,0.101-0.05,0.217-0.05,0.351v0.2c-0.033,0.1-0.05,0.216-0.05,0.35l-0.051,1.4c0,0.033,0,0.066,0,0.1v0.05
		c0,0.334,0.017,0.667,0.051,1c-1.467-1.3-2.334-2.75-2.601-4.35c-0.1-0.634-0.066-3.233,0.101-7.8c0.1-3.167-0.517-5.567-1.851-7.2
		c-2.733-2.833-4.767-5-6.1-6.5c-2.367-2.6-3.8-5.117-4.3-7.55c-0.134-0.633-0.2-1.033-0.2-1.2c0-0.267,0.166-0.6,0.5-1
		c0.434-0.467,1.45-0.833,3.05-1.1c1.467-0.233,2.333-0.684,2.6-1.35c0.2-0.467,0.217-1.117,0.051-1.95
		c-0.167-0.7-0.384-1.316-0.65-1.85c-0.634-1.167-1.6-2.434-2.9-3.8c-1.533-1.467-2.666-2.583-3.399-3.35
		c-0.967-0.966-2.417-2.117-4.351-3.45c-1-0.633-1.8-1.184-2.399-1.65c-1.134-0.833-1.733-1.55-1.8-2.15
		c-0.034-0.367,0-0.617,0.1-0.75c0.2-0.133,0.4-0.3,0.6-0.5c0.733-0.667,1.917-1.533,3.551-2.6c1.699-1.133,2.899-2.017,3.6-2.65
		c1.233-1.033,2.1-1.75,2.6-2.15c0.967-0.667,1.95-1.183,2.95-1.55h0.05c0.4,0.967,0.917,2.45,1.551,4.45
		c0.866,2.434,1.583,4.2,2.149,5.3c0.967,1.833,2.167,3.333,3.601,4.5c2.633,2.2,6.933,5.1,12.899,8.7
		c2.233,1.333,4.283,3.217,6.15,5.65c1.066,1.4,2.733,3.633,5,6.7c0.934,1.067,2.383,2.367,4.35,3.9c2.467,1.9,3.983,3.1,4.55,3.6
		c2.467,2.167,6.334,4.484,11.601,6.95c5.833,2.733,9.833,4.884,12,6.45c0.1,0.066,0.25,0.184,0.45,0.351l2.199,1.5
		c0.934,0.666,2.134,1.5,3.601,2.5c1.5,1.066,2.783,2.066,3.85,3l3.2,3l-2.3-1.4c-2.3-1.233-5.233-2.184-8.8-2.85
		c-0.834-0.167-2.551-0.534-5.15-1.101c-2.267-0.267-3.733,0.15-4.4,1.25c-1.1,1.767-2.366,2.95-3.8,3.55
		c-1.399,0.567-3.083,0.584-5.05,0.051c-0.066-0.034-0.15-0.051-0.25-0.051l-0.05-0.05l-1.2-0.45
		C215.233,91.217,215,91.083,214.8,90.95z M58.625,63.075C58.608,63.049,58.6,63.024,58.6,63c0.967-1.933,1.117-3.867,0.45-5.8
		c-0.667-2-2.083-3.483-4.25-4.45c-1.767-0.8-4.1-1.067-7-0.8c-1.633,0.167-4.033,0.417-7.2,0.75c-0.733,0.033-1.9,0.066-3.5,0.1
		c-1.367,0-2.517-0.1-3.45-0.3c-0.733-0.2-1.517-0.55-2.35-1.05c-0.966-0.633-1.7-1.1-2.2-1.4c-0.7-0.367-1.217-0.65-1.55-0.85
		c-0.633-0.367-1.117-0.75-1.45-1.15v0.05c-0.2-0.333-0.4-0.65-0.6-0.95l-0.6-0.75c-0.367-0.4-1.167-1.05-2.4-1.95
		c-1.067-0.8-1.817-1.483-2.25-2.05c0-0.033-0.017-0.05-0.05-0.05l-0.85-1.5c-0.4-0.7-0.883-1.6-1.45-2.7
		c-0.066-0.1-0.117-0.2-0.15-0.3c-0.3-0.6-0.633-1.15-1-1.65l-0.9-1.05c-0.3-0.367-0.617-0.683-0.95-0.95l-0.2-0.65
		c1.533-0.1,2.95,0.317,4.25,1.25c0.767,0.534,1.833,1.583,3.2,3.15c0.467,0.533,1.617,1.667,3.45,3.4
		c1.433,1.333,2.5,2.517,3.2,3.55c0.8,1.167,1.967,1.817,3.5,1.95c0.667,0.033,2.083-0.1,4.25-0.4c1.1-0.167,2.434-0.25,4-0.25
		c1.833,0,3.2,0,4.1,0c0.8-0.034,1.4-0.034,1.8,0c0.7,0,1.3,0.1,1.8,0.3c0.567,0.167,1.267,0.517,2.1,1.05
		c1.066,0.667,1.75,1.067,2.05,1.2c0.967,0.467,2.217,0.9,3.75,1.3c2.434,0.667,3.7,1.017,3.8,1.05c0.7,0.2,1.167,0.433,1.4,0.7
		c0.233,0.267,0.383,0.767,0.45,1.5c0.3,2.267,0.434,4.133,0.4,5.6c-0.034,0.533-0.133,1.083-0.3,1.65
		c-0.1,0.367-0.283,0.9-0.55,1.6c-0.2,0.667-0.4,1.517-0.6,2.55l-0.4,2.45l-0.05,0.1l-0.1-0.85c-0.2-0.867-0.5-1.65-0.9-2.35
		l-0.15-0.3c-0.133-0.2-0.267-0.383-0.4-0.55c-0.033-0.034-0.067-0.067-0.1-0.1L58.625,63.075z M65.4,74.25l-1.9,1.85
		c-0.7,0.667-1.75,2.017-3.15,4.051c-1.2,1.699-2.684,3.55-4.45,5.55c-0.467,0.533-1.183,1.166-2.15,1.899
		c-1.133,0.834-1.9,1.434-2.3,1.801c-0.367,0.366-0.95,0.949-1.75,1.75C49,91.85,48.367,92.4,47.8,92.8
		c-0.133,0.066-0.6,0.334-1.4,0.8c-0.633,0.334-1.1,0.634-1.4,0.9c-0.1,0.033-0.2,0.066-0.3,0.1c-0.233,0.067-0.434,0.134-0.6,0.2
		l-0.75,0.3c-0.7,0.367-1.317,0.884-1.85,1.551c-0.033,0.033-0.067,0.083-0.1,0.149l-0.05,0.05c-0.167,0.2-0.35,0.45-0.55,0.75
		c-0.2,0.267-0.4,0.551-0.6,0.851V98.4l-0.5-0.7c-0.167-0.867,0.133-1.783,0.9-2.75c0.4-0.5,1.133-1.2,2.2-2.101
		c1.233-1,2.15-1.75,2.75-2.25c1.034-0.866,1.867-1.683,2.5-2.449c1.2-1.4,2.833-3.134,4.9-5.2c1.1-1.066,2.633-2.417,4.6-4.05
		c0.3-0.267,1.367-1.017,3.2-2.25c1.267-0.9,2.233-1.767,2.9-2.601c1.233-1.366,2.117-2.417,2.65-3.15
		c0.567-0.733,1.017-1.617,1.35-2.65c0-0.033,0.233-1,0.7-2.9c0.433-2.067,0.8-3.6,1.1-4.6c0.533-1.767,1.316-3.1,2.35-4
		c1.5-1.3,4.017-1.9,7.55-1.8c3.9,0.4,6.6,0.566,8.1,0.5c0.5,1.433,1.233,3.65,2.2,6.65c1.033,2.5,2.367,4.35,4,5.55
		c1.3,0.934,3.45,1.7,6.45,2.3c1.167,0.233,2.9,0.35,5.2,0.35c3.467-0.066,6.784-1.9,9.95-5.5c1-1.133,1.683-2.05,2.05-2.75
		c0.5-0.966,0.733-2.033,0.7-3.2c0-1.567-0.3-3.483-0.9-5.75c0.867,1.933,1.483,3.417,1.85,4.45c0.066,0.133,0.667,1.4,1.8,3.8
		c0.733,1.533,1.167,2.833,1.3,3.9L122,66.3c-0.133,1.2-0.733,2.4-1.8,3.6c-0.967,1.067-2.017,1.9-3.15,2.5
		c-0.466,0.267-1.216,0.616-2.25,1.05c-0.9,0.399-1.617,0.816-2.15,1.25c-0.4,0.333-0.733,0.75-1,1.25
		c-0.133,0.267-0.367,0.717-0.7,1.35c-0.7,1.101-1.233,1.834-1.6,2.2c-0.7,0.733-1.467,1.167-2.3,1.3
		c-1.133,0.167-2.417,0.101-3.85-0.2c-1.333-0.267-2.517-0.699-3.55-1.3c-0.633-0.366-1.517-1.033-2.65-2
		c-1.1-1-1.983-1.684-2.65-2.05c-1.2-0.566-2.1-1.017-2.7-1.35c-1.066-0.534-1.85-1.134-2.35-1.801c-0.5-0.633-0.966-1.716-1.4-3.25
		c-0.467-1.633-0.9-2.767-1.3-3.4c-1-1.467-2.283-2.6-3.85-3.4c-1.667-0.867-3.35-1.216-5.05-1.05
		c-1.633,0.167-3.117,0.683-4.45,1.55c-0.533,0.367-0.9,0.817-1.1,1.35c-0.1,0.333-0.267,0.934-0.5,1.8
		c-0.367,1.066-1.417,2.517-3.15,4.35C66.867,71.817,65.833,73.217,65.4,74.25z M155.1,80.05c-0.733-0.934-1.3-1.616-1.699-2.05
		c0.3-1.767,0.433-3.517,0.399-5.25c-0.066-2.3-0.283-4.117-0.649-5.45c-0.534-1.966-1.467-3.483-2.801-4.55
		c-2.633-2.033-6.017-3.017-10.149-2.95c-1.566,0-2.584-0.017-3.05-0.05c-1.134-0.1-2.134-0.333-3-0.7
		c-2.667-1.2-5.233-3.083-7.7-5.65c-2.767-2.767-5.3-5.8-7.6-9.1c-0.7-1.033-1.15-1.617-1.35-1.75c-0.5-0.433-1.15-0.533-1.95-0.3
		c-1.033,0.267-1.583,0.933-1.65,2c-0.533-1.567-0.816-2.95-0.85-4.15c0.034-0.767,0.067-1.35,0.1-1.75c0-0.7-0.083-1.267-0.25-1.7
		c5.367-0.066,10.033,0.617,14,2.05c0.899,0.3,1.666,0.85,2.3,1.65c0.267,0.3,0.833,1.15,1.7,2.55c0.833,1.5,1.517,2.567,2.05,3.2
		c0.833,1.066,1.8,1.883,2.899,2.45c1.867,0.967,4.567,1.517,8.101,1.65c0.333,0,1.733-0.067,4.2-0.2c1.8-0.133,3.166-0.05,4.1,0.25
		c0.9,0.3,1.816,1.333,2.75,3.1c0.366,0.7,0.717,1.6,1.05,2.7c0.167,0.633,0.417,1.567,0.75,2.8c0.7,2.6,1.134,4.35,1.3,5.25
		c0.2,1,0.267,2.2,0.2,3.6c-0.066,1.466-0.267,2.633-0.6,3.5c-0.733,2-1,3.434-0.8,4.3c0.233,0.833,0.866,1.884,1.899,3.15
		c1.334,1.566,2.117,2.55,2.351,2.949c0.533,0.9,1.199,2.351,2,4.351c0.767,1.967,1.416,3.399,1.949,4.3
		c0.367,0.6,0.9,1.533,1.601,2.8c0.666,1.101,1.283,1.983,1.85,2.65c0.667,0.8,1.517,1.566,2.55,2.3
		c0.434,0.3,1.417,0.917,2.95,1.85c0.3,0.2,1.033,0.717,2.2,1.551c0.866,0.633,1.6,1.1,2.2,1.399c0.333,0.167,0.934,0.417,1.8,0.75
		c0.733,0.3,1.316,0.584,1.75,0.851c1.267,0.8,3.116,2.1,5.55,3.899l-1.2-0.45c-0.966-0.399-2.883-1-5.75-1.8
		c-2.433-0.666-4.316-1.366-5.649-2.1c-2.733-1.5-4.634-2.601-5.7-3.3c-2.033-1.301-3.717-2.7-5.05-4.2c-0.967-1.066-1.8-2.4-2.5-4
		c-0.767-1.934-1.367-3.4-1.8-4.4c-1.434-3.033-2.483-5.3-3.15-6.8c-0.233-0.8-0.45-1.45-0.65-1.95
		c-0.333-0.934-0.699-1.383-1.1-1.35L155.1,80.05z M200.65,124.75V124c0-1.366-0.084-2.434-0.25-3.2
		c-0.233-1.066-0.667-2.05-1.301-2.95c-0.733-1.033-1.933-2.149-3.6-3.35c-1.967-1.434-3.25-2.45-3.85-3.05
		c-0.667-0.834-1.184-1.417-1.551-1.75c0.467,0.233,0.801,0.45,1,0.649c0.2,0.167,0.5,0.5,0.9,1c0.333,0.434,0.634,0.733,0.9,0.9
		c0.466,0.267,1.233,0.4,2.3,0.4s1.85-0.15,2.35-0.45l0.3-0.2v-0.05L198,112.1c1.733,1.534,2.866,3.467,3.4,5.801
		c0.199,0.899,0.416,3.166,0.649,6.8l0.4,2.2c0.233,0.899,0.566,1.966,1,3.199c0.767,2.2,1.066,3.983,0.899,5.351l-0.3-1.05
		c-0.366-1.301-0.899-2.9-1.6-4.801c-0.8-2.1-1.4-3.683-1.8-4.75V124.75z M206.2,99.9c0.066-0.167,0.166-0.334,0.3-0.5l0.25-0.4
		c0.3-0.4,0.634-0.733,1-1c0.4-0.267,1.1-0.55,2.1-0.85c-0.066,0.033-0.116,0.066-0.149,0.1c-0.8,0.5-1.566,1.233-2.3,2.2
		c-0.4,0.066-0.801,0.233-1.2,0.5V99.9z M204.8,103.15c0.233-0.167,0.367-0.267,0.4-0.301v0.4c0.066,0.2,0.366,0.65,0.899,1.35
		c0.534,0.567,1.167,0.784,1.9,0.65c0.7-0.134,1.283-0.517,1.75-1.15l0.05-0.05c0.467,0.634,1.134,0.983,2,1.05
		c0.733,0.067,1.5-0.083,2.3-0.449c1.367-0.634,2.967-1.801,4.801-3.5c0.399,0.699,0.616,1.433,0.649,2.199l-0.1,0.75
		c-0.2,1.034-1.233,2.15-3.101,3.351c-1.733,1.133-2.6,2.35-2.6,3.649c-0.833,0.4-1.983,0.101-3.45-0.899
		c-2.033-1.367-3.166-2.084-3.399-2.15c-0.767-0.267-1.851-0.517-3.25-0.75c-0.867-0.366-1-1.267-0.4-2.7
		c0.2-0.466,0.517-0.833,0.95-1.1C204.434,103.333,204.634,103.217,204.8,103.15z M43.8,102.65c0.2,0.566,0.517,0.983,0.95,1.25
		c0.533,0.267,1.1,0.283,1.7,0.05c3.333-1.267,7.017-2.417,11.05-3.45l0.25,0.1c-0.033,2.5-0.467,3.95-1.3,4.351
		c-0.067,0.033-1.7,0.2-4.9,0.5c-0.833,0.1-2.517,0.7-5.05,1.8c-2.1,0.9-3.75,1.2-4.95,0.9c0.067-0.2,0.167-0.95,0.3-2.25
		c0.066-0.834,0.283-1.5,0.65-2C42.8,103.5,43.233,103.083,43.8,102.65z M130.65,112.2l-0.051,1.85
		c-0.033,0.334-0.066,0.684-0.1,1.05c-0.767,0.267-1.583,0.2-2.45-0.199c-0.5-0.2-1.267-0.584-2.3-1.15
		c-1.733-0.634-2.767-1.116-3.1-1.45c-0.633-0.6-0.983-1.717-1.05-3.35c0.167-2.233,0.183-3.851,0.05-4.851
		c-0.066-0.433-0.267-1.066-0.6-1.899l2.35,3.25l0.4,1.8c0.133,0.667,0.467,1.15,1,1.45c0.467,0.233,1,0.283,1.601,0.149l1.55,1.351
		c0.767,0.566,1.6,0.517,2.5-0.15C130.55,110.816,130.616,111.533,130.65,112.2z M127.75,103.85c-0.3-1.199-0.65-2.333-1.05-3.399
		c0.8,0.934,1.483,2.083,2.05,3.45c-0.267,0.066-0.5,0.166-0.7,0.3L127.75,103.85z"/>
	<path style="fill-rule:evenodd;clip-rule:evenodd;fill:#CDD5D9;" d="M180.15,92.3c0.333,3.967,2.433,7.65,6.3,11.05
		c2.366,2.067,6.166,4.95,11.399,8.65l-0.3,0.2c-0.5,0.3-1.283,0.45-2.35,0.45s-1.834-0.134-2.3-0.4
		c-0.267-0.167-0.567-0.467-0.9-0.9c-0.4-0.5-0.7-0.833-0.9-1c-0.199-0.199-0.533-0.416-1-0.649c-0.366-0.367-0.75-0.65-1.149-0.851
		l-1.4-0.55c-2.434-1.8-4.283-3.1-5.55-3.899c-0.434-0.267-1.017-0.551-1.75-0.851c-0.866-0.333-1.467-0.583-1.8-0.75
		c-0.601-0.3-1.334-0.767-2.2-1.399c-1.167-0.834-1.9-1.351-2.2-1.551c-1.533-0.933-2.517-1.55-2.95-1.85
		c-1.033-0.733-1.883-1.5-2.55-2.3c-0.566-0.667-1.184-1.55-1.85-2.65c-0.7-1.267-1.233-2.2-1.601-2.8
		c-0.533-0.9-1.183-2.333-1.949-4.3c-0.801-2-1.467-3.45-2-4.351c-0.233-0.399-1.017-1.383-2.351-2.949
		c-1.033-1.267-1.666-2.317-1.899-3.15c-0.2-0.866,0.066-2.3,0.8-4.3c0.333-0.867,0.533-2.034,0.6-3.5c0.066-1.4,0-2.6-0.2-3.6
		c-0.166-0.9-0.6-2.65-1.3-5.25c-0.333-1.233-0.583-2.167-0.75-2.8c-0.333-1.1-0.684-2-1.05-2.7c-0.934-1.767-1.85-2.8-2.75-3.1
		c-0.934-0.3-2.3-0.383-4.1-0.25c-2.467,0.133-3.867,0.2-4.2,0.2c-3.533-0.133-6.233-0.684-8.101-1.65
		c-1.1-0.566-2.066-1.383-2.899-2.45c-0.533-0.633-1.217-1.7-2.05-3.2c-0.867-1.4-1.434-2.25-1.7-2.55c-0.634-0.8-1.4-1.35-2.3-1.65
		c-3.967-1.434-8.634-2.117-14-2.05c0.167,0.434,0.25,1,0.25,1.7c-0.033,0.4-0.066,0.983-0.1,1.75c0.034,1.2,0.317,2.583,0.85,4.15
		c-0.066,0.833,0.167,1.933,0.7,3.3c0.3,0.733,0.717,1.667,1.25,2.8l1.25,2.75c0.6,2.267,0.9,4.183,0.9,5.75
		c0.033,1.167-0.2,2.233-0.7,3.2c-0.367,0.7-1.05,1.617-2.05,2.75c-3.167,3.6-6.483,5.434-9.95,5.5c-2.3,0-4.033-0.117-5.2-0.35
		c-3-0.6-5.15-1.367-6.45-2.3c-1.633-1.2-2.967-3.05-4-5.55c-0.967-3-1.7-5.217-2.2-6.65c-1.5,0.066-4.2-0.1-8.1-0.5
		c-3.533-0.1-6.05,0.5-7.55,1.8c-1.033,0.9-1.816,2.233-2.35,4c-0.3,1-0.667,2.533-1.1,4.6c-0.467,1.9-0.7,2.867-0.7,2.9
		c-0.333,1.033-0.783,1.917-1.35,2.65c-0.533,0.733-1.417,1.784-2.65,3.15c-0.667,0.834-1.633,1.7-2.9,2.601
		c-1.833,1.233-2.9,1.983-3.2,2.25c-1.966,1.633-3.5,2.983-4.6,4.05c-2.067,2.066-3.7,3.8-4.9,5.2
		c-0.633,0.767-1.466,1.583-2.5,2.449c-0.6,0.5-1.517,1.25-2.75,2.25c-1.066,0.9-1.8,1.601-2.2,2.101
		c-0.767,0.967-1.067,1.883-0.9,2.75l0.5,0.7c-0.2,0.233-0.333,0.383-0.4,0.449c-2.667,2.801-4,4.217-4,4.25
		c-1.233,1.5-2.083,3.25-2.55,5.25c-0.633,2.634-1,4.101-1.1,4.4c-0.566,1.634-1.35,2.9-2.35,3.8c0.167-3,0.667-6.2,1.5-9.6
		c1.667-6.7,6.617-13.5,14.85-20.4c4.6-3.833,7.767-6.767,9.5-8.8c3.467-3.967,5.033-7.5,4.7-10.6l0.4-2.45
		c0.2-1.034,0.4-1.883,0.6-2.55c0.267-0.7,0.45-1.233,0.55-1.6c0.167-0.566,0.267-1.117,0.3-1.65c0.033-1.467-0.1-3.333-0.4-5.6
		c-0.066-0.733-0.216-1.233-0.45-1.5c-0.233-0.267-0.7-0.5-1.4-0.7c-0.1-0.033-1.367-0.383-3.8-1.05
		c-1.533-0.4-2.783-0.833-3.75-1.3c-0.3-0.133-0.983-0.533-2.05-1.2c-0.833-0.533-1.533-0.883-2.1-1.05c-0.5-0.2-1.1-0.3-1.8-0.3
		c-0.4-0.034-1-0.034-1.8,0c-0.9,0-2.267,0-4.1,0c-1.566,0-2.9,0.083-4,0.25c-2.167,0.3-3.583,0.433-4.25,0.4
		c-1.533-0.133-2.7-0.783-3.5-1.95c-0.7-1.033-1.767-2.217-3.2-3.55c-1.833-1.733-2.983-2.867-3.45-3.4
		c-1.367-1.567-2.433-2.617-3.2-3.15c-1.3-0.933-2.717-1.35-4.25-1.25l0.2,0.65c0.333,0.267,0.65,0.583,0.95,0.95
		c-0.533-0.6-1.117-1.117-1.75-1.55c-0.9-0.467-1.45-0.783-1.65-0.95c-0.167-0.167-0.317-0.8-0.45-1.9c-0.233-1.833,0-3.433,0.7-4.8
		c1-2.367,1.8-4.05,2.4-5.05c0.967-1.667,2.233-2.85,3.8-3.55c1.167-0.4,1.967-0.717,2.4-0.95c0.7-0.333,1.3-0.933,1.8-1.8
		c0.3-0.5,1.566-1,3.8-1.5c2.267-0.533,3.567-1.033,3.9-1.5c1.3-1.833,3.367-3.317,6.2-4.45c0.333-0.133,2.833-0.917,7.5-2.35
		c1.567-0.5,5.1-1.466,10.6-2.9c5.633-1.467,11.316-2.083,17.05-1.85C78.35,0.283,83.9,1.5,88.8,3.7
		c6.034,2.7,12.333,4.617,18.9,5.75c5.566,0.933,12.117,1.4,19.649,1.4h11.15c2.733-0.033,5.366,0.233,7.9,0.8
		c2.1,0.5,4.616,1.317,7.55,2.45c1.166,0.433,2.017,0.816,2.55,1.15c0.6,0.367,1.417,0.983,2.45,1.85
		c0.767,0.633,1.899,1.383,3.399,2.25c1.7,0.967,2.867,1.683,3.5,2.15c1.467,1.067,2.567,2.367,3.301,3.9
		c0.066,0.133,0.133,0.283,0.199,0.45h-0.05c-1,0.367-1.983,0.883-2.95,1.55c-0.5,0.4-1.366,1.117-2.6,2.15
		c-0.7,0.633-1.9,1.517-3.6,2.65c-1.634,1.066-2.817,1.933-3.551,2.6c-0.199,0.2-0.399,0.367-0.6,0.5
		c-0.1,0.133-0.134,0.383-0.1,0.75c0.066,0.6,0.666,1.317,1.8,2.15c0.6,0.466,1.399,1.017,2.399,1.65
		c1.934,1.333,3.384,2.483,4.351,3.45c0.733,0.767,1.866,1.883,3.399,3.35c1.301,1.367,2.267,2.633,2.9,3.8
		c0.267,0.533,0.483,1.15,0.65,1.85c0.166,0.833,0.149,1.483-0.051,1.95c-0.267,0.667-1.133,1.117-2.6,1.35
		c-1.6,0.267-2.616,0.633-3.05,1.1c-0.334,0.4-0.5,0.733-0.5,1c0,0.167,0.066,0.566,0.2,1.2c0.5,2.434,1.933,4.95,4.3,7.55
		c1.333,1.5,3.366,3.667,6.1,6.5c1.334,1.633,1.95,4.033,1.851,7.2c-0.167,4.566-0.2,7.166-0.101,7.8
		C177.816,89.55,178.684,91,180.15,92.3z M180.45,88.15c-0.066,0.1-0.117,0.216-0.15,0.35c0-0.033,0-0.066,0-0.1
		C180.333,88.3,180.384,88.217,180.45,88.15z M180.8,87.75c0.233-0.167,0.55-0.283,0.95-0.35l1.3-0.101h0.45
		C182.167,87.333,181.267,87.483,180.8,87.75z M215.3,90.3c0.267-0.5,0.601-1.033,1-1.6c1.3-1.867,1.566-3.5,0.8-4.9
		c0.667,1.101,0.684,2.283,0.051,3.55C216.816,88.017,216.2,89,215.3,90.3z M210.55,80.75c0.647,0.003,1.248,0.07,1.8,0.2
		c-0.5-0.066-1-0.117-1.5-0.15C210.763,80.771,210.662,80.754,210.55,80.75z M201.9,89.1c-1.067-1-1.434-2.216-1.101-3.649
		c1.867-0.533,4.601-0.8,8.2-0.8l2.1,0.699c0.167,1.767-0.35,3.117-1.55,4.051c-1.033,0.833-2.333,1.216-3.899,1.149
		C204.116,90.45,202.866,89.967,201.9,89.1z M201.45,97.85c-0.101-0.966,0.1-1.899,0.6-2.8l4.2-0.7c0.1,1.733-0.25,2.801-1.05,3.2
		C204.733,97.783,203.483,97.884,201.45,97.85z M219.55,103.35c-0.033-0.767-0.25-1.5-0.649-2.199
		c-1.834,1.699-3.434,2.866-4.801,3.5c-0.8,0.366-1.566,0.517-2.3,0.449c-0.866-0.066-1.533-0.416-2-1.05l-0.05,0.05
		c-0.467,0.634-1.05,1.017-1.75,1.15c-0.733,0.134-1.366-0.083-1.9-0.65c-0.533-0.699-0.833-1.149-0.899-1.35v-0.4
		c-0.033,0.034-0.167,0.134-0.4,0.301c0.3-0.233,0.5-0.434,0.601-0.601c0.199-0.333,0.366-0.783,0.5-1.35
		c0.1-0.667,0.199-1.101,0.3-1.3v0.05c0.399-0.267,0.8-0.434,1.2-0.5c0.733-0.967,1.5-1.7,2.3-2.2c0.8-0.267,1.5-0.533,2.1-0.8
		l2.05,2.1c1.534-0.333,2.917,0.134,4.15,1.4C219.033,100.983,219.55,102.116,219.55,103.35z M224.25,100.6
		c0,1.733-0.033,2.851-0.1,3.351c-1.2,0.133-2.517,0.149-3.95,0.05c-0.4-1.167,0.033-2.75,1.3-4.75L224.25,100.6z M204.35,135.45
		c0.167-1.367-0.133-3.15-0.899-5.351c-0.434-1.233-0.767-2.3-1-3.199c0.267,0.899,0.616,1.983,1.05,3.25
		c0.767,2.233,1.05,4.066,0.85,5.5V135.45z M197.2,138.05l2.1,2.101c-0.033,0.767-0.066,1.883-0.1,3.35c-1.533,0.2-3.084,0.2-4.65,0
		c-0.166-1.667-0.116-2.8,0.15-3.4C195,139.4,195.833,138.717,197.2,138.05z M96.15,83.55c-2.278,0.034-3.695,0.067-4.25,0.101
		c0.967-0.101,2.05-0.15,3.25-0.15C95.471,83.529,95.804,83.546,96.15,83.55z M113.75,87.55c-0.067,0-0.15-0.017-0.25-0.05
		c-0.333-0.066-0.65-0.15-0.95-0.25C112.95,87.35,113.35,87.45,113.75,87.55z M49.9,59.65c-1.066-0.066-2.467-0.15-4.2-0.25
		c-2.5-0.133-4.333-0.367-5.5-0.7C40.6,58.8,43.833,59.117,49.9,59.65z M58.625,63.075c-0.561-0.657-1.219-1.215-1.975-1.675
		c0.8,0.434,1.45,0.967,1.95,1.6C58.6,63.024,58.608,63.049,58.625,63.075z M3.55,65.8c-1.066,0.267-2.15,0.267-3.25,0
		c-0.367-0.833-0.367-1.683,0-2.55c0.8-0.2,1.467-0.233,2-0.1l2.05,1.4c-0.033,0.067-0.2,0.217-0.5,0.45
		C3.617,65.167,3.517,65.433,3.55,65.8z M12,53.45l-0.7,2.05c0.3,1.2-0.466,2-2.3,2.4c-1.767,0.4-3.1,0.267-4-0.4
		c-2-1.467-1.633-2.567,1.1-3.3C7.9,53.7,9.867,53.45,12,53.45z M45.15,94.5c-0.167,0.033-0.316,0.066-0.45,0.1
		c0.1-0.033,0.2-0.066,0.3-0.1C45.033,94.5,45.083,94.5,45.15,94.5z M34.9,124.2c1,0.467,1.15,1,0.45,1.6
		c-0.7,0.601-1.517,0.733-2.45,0.4c-0.3-0.967-0.1-1.867,0.6-2.7L34.9,124.2z M28.45,121.65c-1.067-1.134-1.034-2.233,0.1-3.301
		c1.067-1,2.25-1.366,3.55-1.1l2.1,0.7c0,0.666,0,1.5,0,2.5c-0.133,0.767-0.6,1.333-1.4,1.7c-0.4,0.199-1.15,0.25-2.25,0.149
		C29.45,122.167,28.75,121.95,28.45,121.65z M43.8,102.65c0.567-0.434,1.284-0.867,2.15-1.301c1.433-0.8,3.083-1.267,4.95-1.399
		c0.267-0.033,2.1-0.05,5.5-0.05l1.35,0.699l-0.25-0.1c-4.033,1.033-7.717,2.184-11.05,3.45c-0.6,0.233-1.167,0.217-1.7-0.05
		C44.317,103.634,44,103.217,43.8,102.65z M127.75,103.85l0.3,0.351c0.2-0.134,0.434-0.233,0.7-0.3
		c-0.566-1.367-1.25-2.517-2.05-3.45C127.1,101.517,127.45,102.65,127.75,103.85z M130.65,112.2c-0.034-0.667-0.101-1.384-0.2-2.15
		c-0.9,0.667-1.733,0.717-2.5,0.15l-1.55-1.351c-0.601,0.134-1.134,0.084-1.601-0.149c-0.533-0.3-0.867-0.783-1-1.45l-0.4-1.8
		l-2.35-3.25c-0.066-0.167-0.133-0.334-0.2-0.5c-0.4-1.033-0.617-1.851-0.65-2.45l2.1-1.4c3.033,0.467,5.334,2.801,6.9,7
		C130.134,107.384,130.616,109.833,130.65,112.2z"/>
</g>
</svg>
