<?xml version="1.0" encoding="iso-8859-1"?>
<!-- Generator: Adobe Illustrator 15.1.0, SVG Export Plug-In . SVG Version: 6.00 Build 0)  -->
<!DOCTYPE svg PUBLIC "-//W3C//DTD SVG 1.1//EN" "http://www.w3.org/Graphics/SVG/1.1/DTD/svg11.dtd">
<svg version="1.1" id="Layer_1" xmlns="http://www.w3.org/2000/svg" xmlns:xlink="http://www.w3.org/1999/xlink" x="0px" y="0px"
	 width="115.9px" height="74.45px" viewBox="0 0 115.9 74.45" style="enable-background:new 0 0 115.9 74.45;" xml:space="preserve"
	>
<g>
	<path style="fill-rule:evenodd;clip-rule:evenodd;fill:#B7BFCA;" d="M74.85,34.3c-1.133-0.733-2.517-1.3-4.149-1.7
		c-1.667-0.8-2.851-1.333-3.55-1.6c-1.334-0.5-2.584-0.733-3.75-0.7c-1.434,0-2.434,0.034-3,0.1c-1.101,0.1-2.067,0.367-2.9,0.8
		c-0.134,0.066-0.917,0.6-2.35,1.6c-0.833,0.6-1.75,0.833-2.75,0.7c-0.566-0.067-1.25-0.25-2.05-0.55
		c-0.667-0.267-1.083-0.517-1.25-0.75c-0.167-0.333-0.4-0.7-0.7-1.1c-0.933-1.2-1.633-2.033-2.1-2.5c-0.867-0.833-1.8-1.4-2.8-1.7
		c-2.933-0.933-4.933-1.467-6-1.6c-2.5-0.333-4.317,0.133-5.45,1.4c-1.533,1.8-2.85,3.883-3.95,6.25
		c-0.434,1.033-0.833,1.85-1.2,2.45c-0.1,0.167-0.5,0.583-1.2,1.25l-0.45,0.45c-1.167,0.933-2.533,1.65-4.1,2.15
		c-2,0.634-3.383,1.083-4.15,1.35l-0.75,0.2c0.533-1.3,1.683-2.816,3.45-4.55c2.033-1.9,3.45-3.233,4.25-4
		c0.566-0.533,1.683-1.85,3.35-3.95c1.3-1.667,2.5-2.867,3.6-3.6c1.633-1.067,3.367-1.733,5.2-2c1.566-0.233,3.45-0.217,5.65,0.05
		l4.2,0.6c1.667,0.233,3.066,0.383,4.2,0.45c1.367,0.233,2.467,0.417,3.3,0.55c1.5,0.2,2.533,0.183,3.1-0.05
		c-0.133-0.7,0.15-1.267,0.851-1.7c0.366-0.267,1.017-0.533,1.949-0.8c1.101-0.3,2.084-0.35,2.95-0.15
		c0.767,0.167,1.65,0.583,2.65,1.25c0.366,0.233,0.866,0.6,1.5,1.1c0.533,0.4,1.066,0.683,1.6,0.85
		c1.033,0.333,2.517,0.467,4.45,0.4c2.6-0.133,5.3-0.417,8.1-0.85c1.233-0.133,2.601-0.367,4.101-0.7
		c0.733-0.467,1.467-1.367,2.2-2.7c0.833-1.5,1.466-2.45,1.899-2.85c0.867-0.833,2-1.25,3.4-1.25c0.633,0,1.833,0.15,3.6,0.45
		c2,0.367,3.084,0.5,3.25,0.4c0.5-0.267,0.733-1.333,0.7-3.2c-0.167-2-0.25-3.167-0.25-3.5l-0.05-0.55
		c0.033,0.033,0.733,0.55,2.1,1.55c0.8,0.6,1.533,1.067,2.2,1.4l2.7,0.95l-0.101,0.1c-0.8,0.667-1.199,1.433-1.199,2.3
		c-0.034,0.267-0.017,0.534,0.05,0.8c0.399,1.833,0.5,3.133,0.3,3.9c-0.2,0.9-0.583,1.567-1.15,2c-0.466,0.4-1.166,0.65-2.1,0.75
		c-2.1,0.267-3.75-0.067-4.95-1c-1.333-1.267-2.366-2.15-3.1-2.65c-1.267-0.9-2.584-1.2-3.95-0.9c-0.033,0.466,0.45,1.167,1.45,2.1
		c1.066,1,1.649,1.817,1.75,2.45c0.366,1.867,0.066,3.383-0.9,4.55c-0.366,0.434-0.983,0.867-1.85,1.3
		c-0.967,0.433-1.617,0.8-1.95,1.1c-0.333,0.3-0.75,0.95-1.25,1.95c-0.434,0.833-0.95,1.383-1.55,1.65
		c-0.533,0.233-1.434,0.333-2.7,0.3c-0.667-0.033-1.583-0.1-2.75-0.2C78.1,34.9,76.217,34.7,74.85,34.3z M66.65,1.05
		c0.1,0.034,0.199,0.067,0.3,0.1c1.533,0.533,3.866,1.434,7,2.7c-0.4,1.6-1.733,2.283-4,2.05c-0.5-0.066-1.767-0.167-3.8-0.3
		c-1.9-0.233-3.067-0.667-3.5-1.3C61.184,2.133,62.517,1.05,66.65,1.05z M60.8,43.45l0.05,0.7c-0.333,0.566-0.366,1.166-0.1,1.8
		c0.233,0.566,0.634,1,1.2,1.3l0.1,0.1l0.3,0.45c-0.267,0.134-0.533,0.351-0.8,0.65c-0.133-0.2-0.267-0.4-0.399-0.601l-0.051-0.1
		c-0.6-1.167-0.833-2.184-0.699-3.05c0-0.101,0-0.184,0-0.25c0.033-0.233,0.116-0.467,0.25-0.7
		C60.684,43.65,60.733,43.55,60.8,43.45z M57.05,67.25c0.733-2.566,1.767-4.8,3.101-6.7c0.833-1.133,2.1-2.467,3.8-4l4.8-2.25
		c0.733-0.333,1.1-0.934,1.1-1.8c0.467-0.5,0.917-1.083,1.351-1.75c0.633-1.033,1.033-2.134,1.2-3.3
		c0.199-1.267,0.116-2.434-0.25-3.5c-0.567-1.667-1.717-2.884-3.45-3.65H70.1c0.267,0.634,0.801,1.25,1.601,1.851
		c0.434,0.333,1.1,0.8,2,1.399c1.2,0.934,2.033,1.867,2.5,2.8c0.366,0.834,0.649,2.051,0.85,3.65c0.167,1.4,0.533,2.533,1.101,3.4
		c0.366,0.566,1.1,1.517,2.199,2.85c0.801,1.066,1.267,1.816,1.4,2.25c0.233,0.8-0.15,1.45-1.15,1.95
		c-0.966,0.467-2.183,0.2-3.649-0.8c-1.9-1.301-3.017-1.983-3.351-2.051c-1.3-0.333-2.767-0.366-4.399-0.1
		c-1.533,0.233-2.9,0.684-4.101,1.35c-1.899,1-3.416,2.733-4.55,5.2c-0.267,0.566-0.583,1.45-0.95,2.65
		C59.134,67.566,58.283,67.75,57.05,67.25z M5.55,62.4l-4.1,0.1L0.7,62.45c-0.15-0.009-0.3-0.025-0.45-0.05L0.05,62
		C-0.017,61.634,0,61.217,0.1,60.75c0.033-0.233,0.1-0.483,0.2-0.75h0.05c1.033-0.066,1.933-0.267,2.7-0.6
		c0.8-0.367,1.583-0.983,2.35-1.851c0.567-0.666,0.983-1.066,1.25-1.2c0.333-0.199,0.9-0.316,1.7-0.35c1.367,0,2.633,0.134,3.8,0.4
		c0.833,0.267,1.5,0.449,2,0.55c0.867,0.166,1.517,0.1,1.95-0.2c0.333-0.233,0.767-0.767,1.3-1.6c0.533-0.801,1-1.334,1.4-1.601
		c1.434-0.967,2.684-1.483,3.75-1.55c1-0.066,2.15,0.15,3.45,0.65c2,0.767,3.083,1.166,3.25,1.199c1.133,0.334,2.2,0.45,3.2,0.351
		c0.333-0.066,0.7-0.217,1.1-0.45c0.5-0.333,0.833-0.533,1-0.6c0.7-0.267,1.5-0.45,2.4-0.551c0.267,1.334,0.7,2.25,1.3,2.75
		L37.1,55.45c-1.167,0.267-2.333,0.833-3.5,1.7c-1.434,1.066-2.033,2.116-1.8,3.149c1.267,0.134,2.417,0.134,3.45,0
		c-1.167,0.7-1.983,1.233-2.45,1.601c-1.1,0.833-2.566,1.149-4.4,0.949c-0.967-0.133-1.733-0.5-2.3-1.1
		c-0.6-0.634-0.867-1.417-0.8-2.35c0.167-1.634,0.667-2.667,1.5-3.101c-0.566-0.066-1.316,0.15-2.25,0.65
		c-0.267,0.166-0.933,0.6-2,1.3c-0.966,0.634-1.583,1-1.85,1.1c-0.567,0.267-1.25,0.384-2.05,0.351c-2.4,0-3.95,0.033-4.65,0.1
		c-1,0.101-2.4,0.517-4.2,1.25C7.833,61.783,6.417,62.233,5.55,62.4z"/>
	<path style="fill-rule:evenodd;clip-rule:evenodd;fill:#ADB7C1;" d="M74.85,34.3c1.367,0.4,3.25,0.6,5.65,0.6
		c1.167,0.1,2.083,0.167,2.75,0.2c1.267,0.033,2.167-0.067,2.7-0.3c0.6-0.267,1.116-0.816,1.55-1.65c0.5-1,0.917-1.65,1.25-1.95
		c0.333-0.3,0.983-0.667,1.95-1.1c0.866-0.434,1.483-0.867,1.85-1.3c0.967-1.167,1.267-2.683,0.9-4.55
		c-0.101-0.633-0.684-1.45-1.75-2.45c-1-0.933-1.483-1.633-1.45-2.1c1.366-0.3,2.684,0,3.95,0.9c0.733,0.5,1.767,1.383,3.1,2.65
		c1.2,0.933,2.851,1.267,4.95,1c0.934-0.1,1.634-0.35,2.1-0.75c0.567-0.433,0.95-1.1,1.15-2c0.2-0.767,0.1-2.067-0.3-3.9
		c-0.066-0.267-0.084-0.533-0.05-0.8c0-0.867,0.399-1.633,1.199-2.3l0.101-0.1c2.767,0.934,4.934,1.833,6.5,2.7
		c0.267,0.133,0.533,0.283,0.8,0.45c0.267,0.167,0.517,0.35,0.75,0.55c-1.033,0.033-2.083,0.15-3.15,0.35
		c-1.399,0.3-2.033,1.283-1.899,2.95c0.2,2.3,0.2,3.667,0,4.1c-0.2,0.5-0.783,0.95-1.75,1.35c-0.533,0.233-1.267,0.5-2.2,0.8
		c-0.6,0.267-1.333,0.583-2.2,0.95c-0.666,0.333-1.166,0.833-1.5,1.5c-0.233,0.433-0.45,0.733-0.649,0.9
		c-0.134,0.1-0.434,0.283-0.9,0.55c-0.467,0.367-0.85,0.917-1.15,1.65c-0.466,1.066-0.75,1.7-0.85,1.9c-0.333,0.5-0.816,1-1.45,1.5
		c-1.866,1.4-4.083,2.233-6.649,2.5c-2.034,0.167-4.434-0.017-7.2-0.55c-1.3-0.267-2.684-0.816-4.15-1.65
		c-0.7-0.4-1.95-1.217-3.75-2.45L74.85,34.3z M30.35,31.55c-0.9,1-2.05,2.284-3.45,3.85c0.367-0.6,0.767-1.417,1.2-2.45
		c1.1-2.367,2.417-4.45,3.95-6.25c1.133-1.267,2.95-1.733,5.45-1.4c1.067,0.133,3.067,0.667,6,1.6c1,0.3,1.933,0.867,2.8,1.7
		c0.467,0.467,1.167,1.3,2.1,2.5c0.3,0.4,0.533,0.767,0.7,1.1c0.167,0.233,0.583,0.483,1.25,0.75c0.8,0.3,1.483,0.483,2.05,0.55
		c1,0.133,1.917-0.1,2.75-0.7c1.434-1,2.216-1.533,2.35-1.6c0.833-0.434,1.8-0.7,2.9-0.8c0.566-0.066,1.566-0.1,3-0.1
		c1.166-0.033,2.416,0.2,3.75,0.7c0.699,0.267,1.883,0.8,3.55,1.6c-1.3-0.333-2.733-0.55-4.3-0.65c-2.601-0.2-4.634,0.033-6.101,0.7
		c-0.566,0.267-1.1,0.684-1.6,1.25c-0.3,0.333-0.733,0.85-1.3,1.55c-0.467,0.5-1.083,0.783-1.851,0.85
		c-0.433,0.067-1.15,0.067-2.15,0c-0.633,0-1.233,0.1-1.8,0.3c-0.767,0.267-1,0.65-0.7,1.15l-1.6-0.35c-1.3-0.533-2-1.683-2.1-3.45
		c-0.133-2-0.583-3.3-1.35-3.9l-1.6-1.1V28.9c-0.2-0.667-0.6-1.183-1.2-1.55c-0.533-0.3-1.3-0.5-2.3-0.6
		c-0.7-0.067-1.667-0.317-2.9-0.75c-1.133-0.3-2.117-0.233-2.95,0.2c-0.7,0.333-1.35,0.85-1.95,1.55
		c-0.567,0.7-0.983,1.467-1.25,2.3l-0.2,0.3l-0.3,0.35c-0.034,0-0.067,0.017-0.1,0.05c-0.067,0.067-0.184,0.2-0.35,0.4L30.35,31.55z
		 M6,62.35L5.55,62.4c0.867-0.167,2.284-0.617,4.25-1.351C11.6,60.316,13,59.9,14,59.8c0.7-0.066,2.25-0.1,4.65-0.1
		c0.8,0.033,1.483-0.084,2.05-0.351c0.267-0.1,0.883-0.466,1.85-1.1c1.067-0.7,1.733-1.134,2-1.3c0.934-0.5,1.684-0.717,2.25-0.65
		c-0.833,0.434-1.333,1.467-1.5,3.101c-0.066,0.933,0.2,1.716,0.8,2.35c0.566,0.6,1.333,0.967,2.3,1.1
		c1.833,0.2,3.3-0.116,4.4-0.949c0.467-0.367,1.284-0.9,2.45-1.601c0.933-0.467,1.617-0.85,2.05-1.149
		c0.367-0.267,1.017-0.767,1.95-1.5c0.9-0.733,1.6-1.267,2.1-1.601c1.566,0,2.833,0.066,3.8,0.2l0.35,0.05
		c0.067,0.033,0.15,0.05,0.25,0.05c-0.1,1.834-1.25,3.25-3.45,4.25c-1.233,0.567-3.117,1.367-5.65,2.4
		c-0.5,0.333-1.483,1.134-2.95,2.4c-1.233,1.1-2.233,1.816-3,2.149c-0.967,0.4-1.733,0.483-2.3,0.25c-0.7-0.5-1.367-0.934-2-1.3
		c-2.4-1.733-4.25-2.983-5.55-3.75c-2.267-1.333-4.35-1.884-6.25-1.65l-3.8,0.551c-0.233,0.033-0.466,0.066-0.7,0.1
		C8.433,62.05,7.067,62.25,6,62.35z"/>
	<path style="fill-rule:evenodd;clip-rule:evenodd;fill:#8F97A4;" d="M51.7,37.85l-0.8-0.1c-0.3-0.5-0.066-0.883,0.7-1.15
		c0.566-0.2,1.167-0.3,1.8-0.3c1,0.067,1.717,0.067,2.15,0c0.767-0.066,1.383-0.35,1.851-0.85c0.566-0.7,1-1.217,1.3-1.55
		c0.5-0.566,1.033-0.983,1.6-1.25c1.467-0.667,3.5-0.9,6.101-0.7c1.566,0.1,3,0.316,4.3,0.65c1.633,0.4,3.017,0.967,4.149,1.7
		l0.2,0.15c1.8,1.233,3.05,2.05,3.75,2.45c1.467,0.833,2.851,1.383,4.15,1.65c2.767,0.533,5.166,0.717,7.2,0.55
		c2.566-0.267,4.783-1.1,6.649-2.5c0.634-0.5,1.117-1,1.45-1.5c0.1-0.2,0.384-0.833,0.85-1.9c0.301-0.733,0.684-1.284,1.15-1.65
		c0.467-0.267,0.767-0.45,0.9-0.55c0.199-0.167,0.416-0.467,0.649-0.9c0.334-0.667,0.834-1.167,1.5-1.5
		c0.867-0.367,1.601-0.684,2.2-0.95c0.934-0.3,1.667-0.566,2.2-0.8c0.967-0.4,1.55-0.85,1.75-1.35c0.2-0.433,0.2-1.8,0-4.1
		c-0.134-1.667,0.5-2.65,1.899-2.95c1.067-0.2,2.117-0.317,3.15-0.35c0.6,0.467,1.066,0.967,1.4,1.5l-0.2,5.25
		c-0.5,0.867-1.417,1.783-2.75,2.75c-1.634,1.1-2.667,1.9-3.101,2.4c-0.466,0.533-1.416,2.017-2.85,4.45c-1,1.7-2.2,2.9-3.6,3.6
		c-0.834,0.434-2.217,1-4.15,1.7c-1.866,0.667-3.267,1.25-4.2,1.75c-1.467,0.8-2.767,1.316-3.899,1.55c-1.434,0.3-2.9,0.267-4.4-0.1
		c-1.434-0.367-3.3-1.184-5.6-2.45c-2.767-1.5-4.584-2.434-5.45-2.8c-1.233-0.5-3.033-1.383-5.4-2.65c-2.066-0.9-3.983-1.233-5.75-1
		c-1,0.133-1.767,0.333-2.3,0.6c-0.434,0.2-1.05,0.633-1.85,1.3c-0.233,0.2-0.7,0.767-1.4,1.7c-0.634,0.833-1.017,1.284-1.15,1.35
		c-0.6,0.3-1.417,0.283-2.45-0.05c-0.6-0.2-1.433-0.517-2.5-0.95c-0.1-0.033-0.4-0.067-0.9-0.1h-0.05c-0.067,0-0.117,0-0.15,0
		L51.7,37.85z M42.5,27.9c-0.467-0.267-0.917-0.483-1.35-0.65l-2.35-0.7c-0.233-0.033-0.433-0.033-0.6,0
		c-0.3,0.034-0.967,0.233-2,0.6c-0.9,0.333-1.55,0.583-1.95,0.75c-0.6,0.267-1.183,0.7-1.75,1.3l-0.45,0.5
		c-0.133,0.1-0.25,0.216-0.35,0.35c0.267-0.833,0.683-1.6,1.25-2.3c0.6-0.7,1.25-1.217,1.95-1.55c0.833-0.434,1.817-0.5,2.95-0.2
		c1.233,0.433,2.2,0.683,2.9,0.75c1,0.1,1.767,0.3,2.3,0.6c0.6,0.367,1,0.883,1.2,1.55v0.05C43.617,28.55,43.033,28.2,42.5,27.9z"/>
	<path style="fill-rule:evenodd;clip-rule:evenodd;fill:#CDD5D9;" d="M112.95,17.1H113c0.267,0.133,0.517,0.283,0.75,0.45
		C113.483,17.383,113.217,17.233,112.95,17.1z M106.3,42.95c-0.267-0.733-0.149-1.483,0.351-2.25c0.133-0.167,0.666-0.767,1.6-1.8
		l2.1,1.399c0.367,1.467,0.084,2.367-0.85,2.7C109,43.134,107.934,43.116,106.3,42.95z M96.75,48c1.233-0.033,2.2-0.066,2.9-0.1
		c1.233-0.067,2.25-0.284,3.05-0.65l0.7-2.1c1.399-0.301,2.449-0.517,3.149-0.65c1.2-0.233,2.167,0.033,2.9,0.8
		c1,1.033,1.3,2.834,0.899,5.4c-0.267,1.733-1.433,2.95-3.5,3.649c-1.166,0.4-3.017,1.017-5.55,1.851
		c-0.5,0.3-1.316,0.783-2.45,1.45C97.783,58.083,96.8,57.866,95.9,57c-0.334-0.333-0.667-1.116-1-2.35
		c-0.301-1.034-0.483-1.884-0.551-2.551C94.017,49.566,94.816,48.2,96.75,48z M17,40.6C15.433,41.2,14.117,41.9,13.05,42.7
		c-0.267-2.5,0.317-4.8,1.75-6.9c2.333-3.466,3.65-5.566,3.95-6.3c1.233-2.9,2.233-4.933,3-6.1c1.233-1.967,2.783-3.6,4.65-4.9
		c4.133-2.833,8.417-5.217,12.85-7.15c1.567-0.7,4.9-2.867,10-6.5c4-2.9,7.483-4.5,10.45-4.8c1.8-0.2,4.116,0.133,6.95,1
		c-4.134,0-5.467,1.083-4,3.25c0.433,0.633,1.6,1.067,3.5,1.3c2.033,0.133,3.3,0.233,3.8,0.3c2.267,0.233,3.6-0.45,4-2.05
		c-3.134-1.267-5.467-2.167-7-2.7c1.133,0.367,2.333,0.8,3.6,1.3c6.134,2.466,9.7,3.816,10.7,4.05c5.066,1.2,9.9,2.05,14.5,2.55
		c1.467,0.2,2.934,0.833,4.4,1.9c1.633,1.233,2.833,2.066,3.6,2.5c-0.667-0.333-1.4-0.8-2.2-1.4c-1.366-1-2.066-1.517-2.1-1.55
		l0.05,0.55c0,0.333,0.083,1.5,0.25,3.5c0.033,1.867-0.2,2.934-0.7,3.2c-0.166,0.1-1.25-0.033-3.25-0.4
		c-1.767-0.3-2.967-0.45-3.6-0.45c-1.4,0-2.533,0.417-3.4,1.25c-0.434,0.4-1.066,1.35-1.899,2.85c-0.733,1.333-1.467,2.233-2.2,2.7
		c-1.5,0.333-2.867,0.566-4.101,0.7c-2.8,0.434-5.5,0.717-8.1,0.85c-1.934,0.067-3.417-0.067-4.45-0.4
		c-0.533-0.167-1.066-0.45-1.6-0.85c-0.634-0.5-1.134-0.867-1.5-1.1c-1-0.667-1.884-1.083-2.65-1.25c-0.866-0.2-1.85-0.15-2.95,0.15
		c-0.933,0.267-1.583,0.534-1.949,0.8c-0.7,0.433-0.984,1-0.851,1.7c-0.566,0.233-1.6,0.25-3.1,0.05
		c-0.833-0.133-1.934-0.317-3.3-0.55c-1.133-0.066-2.533-0.216-4.2-0.45l-4.2-0.6c-2.2-0.267-4.083-0.283-5.65-0.05
		c-1.833,0.267-3.567,0.933-5.2,2c-1.1,0.733-2.3,1.933-3.6,3.6c-1.667,2.1-2.783,3.417-3.35,3.95c-0.8,0.767-2.217,2.1-4.25,4
		c-1.767,1.733-2.917,3.25-3.45,4.55L17,40.6z M25.7,36.65c0.7-0.667,1.1-1.083,1.2-1.25c1.4-1.566,2.55-2.85,3.45-3.85
		c-0.434,0.534-1.067,1.267-1.9,2.2C27.417,34.95,26.5,35.917,25.7,36.65z M32.05,29.7c-0.167,0.167-0.35,0.383-0.55,0.65l0.2-0.3
		C31.8,29.917,31.917,29.8,32.05,29.7z M42.5,27.9c-0.133-0.066-0.267-0.133-0.4-0.2c-0.333-0.167-0.65-0.317-0.95-0.45
		C41.583,27.417,42.033,27.633,42.5,27.9z M51.7,37.85c-0.2,0-0.4-0.017-0.6-0.05c-0.8-0.1-1.4-0.233-1.8-0.4l1.6,0.35L51.7,37.85z
		 M61.15,47.85c0.133,0.2,0.267,0.4,0.399,0.601c0.267-0.3,0.533-0.517,0.8-0.65l-0.3-0.45l-0.1-0.1c-0.566-0.3-0.967-0.733-1.2-1.3
		c-0.267-0.634-0.233-1.233,0.1-1.8l-0.05-0.7c0.434-0.767,1.217-1.483,2.351-2.15c1.6-0.934,3-1.267,4.199-1H68.7
		c1.733,0.767,2.883,1.983,3.45,3.65c0.366,1.066,0.449,2.233,0.25,3.5c-0.167,1.166-0.567,2.267-1.2,3.3
		c-0.434,0.667-0.884,1.25-1.351,1.75c0,0.866-0.366,1.467-1.1,1.8l-4.8,2.25c-1.7,1.533-2.967,2.867-3.8,4
		c-1.334,1.9-2.367,4.134-3.101,6.7c-0.2-1.7-0.05-3.283,0.45-4.75c0.4-1.267,1.134-2.65,2.2-4.15
		c0.166-0.267,1.133-1.166,2.899-2.699c1.367-1.167,1.983-2.084,1.851-2.75l-1.15-0.25c0.101-0.867-0.434-2.167-1.6-3.9
		C61.5,48.417,61.316,48.116,61.15,47.85z M45.15,56.25c-0.967-0.134-2.233-0.2-3.8-0.2c-0.5,0.334-1.2,0.867-2.1,1.601
		c-0.933,0.733-1.583,1.233-1.95,1.5c-0.433,0.3-1.117,0.683-2.05,1.149c-1.033,0.134-2.183,0.134-3.45,0
		c-0.233-1.033,0.367-2.083,1.8-3.149c1.167-0.867,2.333-1.434,3.5-1.7l1.15-0.101c-0.6-0.5-1.033-1.416-1.3-2.75
		c-0.9,0.101-1.7,0.284-2.4,0.551c-0.167,0.066-0.5,0.267-1,0.6c-0.4,0.233-0.767,0.384-1.1,0.45c-1,0.1-2.067-0.017-3.2-0.351
		C29.083,53.816,28,53.417,26,52.65c-1.3-0.5-2.45-0.717-3.45-0.65c-1.066,0.066-2.316,0.583-3.75,1.55
		c-0.4,0.267-0.867,0.8-1.4,1.601c-0.533,0.833-0.967,1.366-1.3,1.6c-0.434,0.3-1.083,0.366-1.95,0.2c-0.5-0.101-1.167-0.283-2-0.55
		c-1.167-0.267-2.433-0.4-3.8-0.4c-0.8,0.033-1.367,0.15-1.7,0.35c-0.267,0.134-0.683,0.534-1.25,1.2
		c-0.767,0.867-1.55,1.483-2.35,1.851c-0.767,0.333-1.667,0.533-2.7,0.6c0.267-0.767,0.733-1.634,1.4-2.6
		c1.2-1.7,2.467-3.067,3.8-4.101c1.034-0.767,2.667-1.583,4.9-2.45c2.367-0.899,3.983-1.649,4.85-2.25l3.45-1.35
		c1.767-1.366,4.767-1.384,9-0.05c4.6,1.866,7.583,3.066,8.95,3.6c0.267,3.033,1.15,4.717,2.65,5.05
		C41.483,55.816,43.417,55.95,45.15,56.25z M59.7,70.1L59,71.5c-0.3,0.2-0.583,0.667-0.85,1.4c-0.301,0.666-0.7,1.133-1.2,1.399
		c-0.3,0.134-0.867,0.167-1.7,0.101c-0.433-0.034-1-0.101-1.7-0.2c-0.633-1.9-0.117-3.134,1.55-3.7
		C55.767,70.267,57.3,70.134,59.7,70.1z M15.3,64.55h1.4c0.5,2.101,0.483,3.5-0.05,4.2c-0.633,0.767-2,0.767-4.1,0
		c-2.9-1.1-3.8-2.1-2.7-3C10.817,64.983,12.633,64.583,15.3,64.55z M0.7,62.45c-0.206-0.007-0.389-0.023-0.55-0.05
		c-0.033-0.134-0.066-0.267-0.1-0.4l0.2,0.4C0.4,62.425,0.55,62.441,0.7,62.45z M6,62.35c1.067-0.1,2.433-0.3,4.1-0.6
		c0.233-0.033,0.467-0.066,0.7-0.1c-1,0.166-2.117,0.35-3.35,0.55C6.95,62.267,6.467,62.316,6,62.35z"/>
</g>
</svg>
