<?xml version="1.0" encoding="iso-8859-1"?>
<!-- Generator: Adobe Illustrator 15.1.0, SVG Export Plug-In . SVG Version: 6.00 Build 0)  -->
<!DOCTYPE svg PUBLIC "-//W3C//DTD SVG 1.1//EN" "http://www.w3.org/Graphics/SVG/1.1/DTD/svg11.dtd">
<svg version="1.1" id="Layer_1" xmlns="http://www.w3.org/2000/svg" xmlns:xlink="http://www.w3.org/1999/xlink" x="0px" y="0px"
	 width="148px" height="81.65px" viewBox="0 0 148 81.65" style="enable-background:new 0 0 148 81.65;" xml:space="preserve">
<g>
	<path style="fill-rule:evenodd;clip-rule:evenodd;fill:#CDD5D9;" d="M118.85,36.55c0.2,1.633,0.617,2.883,1.25,3.75
		c0.5,0.733,2.267,2.267,5.301,4.601c0.633,0.5,2.05,1.316,4.25,2.449c2.133,1.134,3.916,2.267,5.35,3.4
		c2.934,2.333,5.533,5.566,7.8,9.7l-0.05,0.8c-1.233,0.134-2.184,0.1-2.85-0.1c-0.834-0.233-1.534-0.767-2.101-1.601
		c-0.899-1.3-2.333-2.483-4.3-3.55c-0.767-0.434-2.483-1.233-5.15-2.4c0.7,0.767,1.717,2.233,3.051,4.4
		c0.033,0.434,0.149,1.1,0.35,2c0.233,0.866,0.35,1.517,0.35,1.95c-1.1-1.167-2.05-1.917-2.85-2.25
		c-0.767-0.334-2.083-0.517-3.95-0.55c-1.833-0.034-3.2-0.25-4.1-0.65c-0.467-0.2-1.316-0.5-2.55-0.9
		c-1-0.399-1.601-0.916-1.801-1.55c-0.066-0.233-0.05-0.649,0.051-1.25c0.1-0.566,0.083-0.983-0.051-1.25
		c-0.3-0.533-1.199-0.95-2.699-1.25c-2.334-0.366-4.917-0.333-7.75,0.101c-1.9,0.233-3.334,0.85-4.301,1.85
		c-0.633,0.566-1.066,1.05-1.3,1.45c-0.066,0.166-0.166,0.583-0.3,1.25c-0.533,0.6-1.7,0.633-3.5,0.1
		c-0.967-0.267-2.1-0.684-3.4-1.25c-4.033-1.5-7.233-2.934-9.6-4.3c-1.6-0.9-3.2-2.684-4.8-5.35c-0.233-0.534-0.4-0.917-0.5-1.15
		c-0.2-0.434-0.434-0.767-0.7-1s-0.733-0.517-1.4-0.85c-0.8-0.367-1.3-0.617-1.5-0.75c-1.966-1.134-3.383-2.05-4.25-2.75
		c-1.6-1.233-2.783-2.233-3.55-3c-1.433-1.433-2.05-2.8-1.85-4.1c-1.034-0.6-3.267-0.65-6.7-0.15c-4.433,0.633-7.283,1.633-8.55,3
		c-1.5,0.2-2.983,0.667-4.45,1.4c2.033,1.434,3.517,3.233,4.45,5.4c1,2.267,0.55,3.383-1.35,3.35c0.533,0.566,1.6,1.233,3.2,2
		c2.034,0.967,3.267,1.584,3.7,1.851c1.967,1.267,4.067,2.883,6.3,4.85c0.667,0.6,1.284,1.184,1.85,1.75
		c-0.833-0.134-1.8-0.483-2.9-1.05c-1.267-0.667-2.2-1.167-2.8-1.5c-3.067-1.601-5.733-2.634-8-3.101
		c-1.467-0.3-2.95-0.333-4.45-0.1c-1.533,0.267-2.883,0.767-4.05,1.5c0.1-0.333,0.2-0.616,0.3-0.85l0.05-0.051
		c0.067-0.166,0.217-0.399,0.45-0.699l0.7-0.7l0.15-0.101c0.6-0.399,1.05-0.716,1.35-0.949c0.5-0.4,0.733-0.834,0.7-1.301
		c-0.1-0.533-0.8-1.199-2.1-2c-0.1-0.733-0.25-1.416-0.45-2.05c-0.567-1.967-1.583-3.1-3.05-3.4c-0.466-0.066-1.216-0.117-2.25-0.15
		c-1.033,0-1.8-0.05-2.3-0.15L28.1,38.5c-2.233-0.2-4.317-0.133-6.25,0.2c-1.733,0.267-3.75,0.833-6.05,1.7
		c-0.9,0.333-1.617,0.734-2.15,1.2c-0.5,0.4-1.033,1.017-1.6,1.851c-0.833,1.233-1.9,2.033-3.2,2.399
		C8.017,46.116,7.1,46.366,6.1,46.6C5.5,46.9,5.017,47.65,4.65,48.85c-0.6,1.801-1.4,3.45-2.4,4.95c-0.5,0.767-0.8,1.2-0.9,1.3
		c-0.333,0.301-0.733,0.417-1.2,0.351c0.067-3.267,0.1-5.233,0.1-5.9c0-2.133,0.017-3.35,0.05-3.649
		c0.167-1.134,0.667-2.184,1.5-3.15c0.534-0.6,1.417-1.434,2.65-2.5c1.233-1.033,2.133-1.867,2.7-2.5c0.5-0.567,1.367-1.9,2.6-4
		c1-1.733,1.983-2.9,2.95-3.5c0.767-0.467,1.9-0.75,3.4-0.85c1.733,0,2.967-0.05,3.7-0.15c2.867-0.3,5.817-0.233,8.85,0.2
		c0.5,0.066,1.667,0.333,3.5,0.8c1.5,0.4,2.65,0.583,3.45,0.55l6.85,4.8c1.033-0.833,3.783-2.517,8.25-5.05
		c3.5-2,6.017-3.983,7.55-5.95c2.267-2.934,2.35-5.15,0.25-6.65c-1.833-1.267-4.967-1.867-9.4-1.8
		c-0.967,0.033-5.033-0.55-12.2-1.75c-4.433-0.7-7.867-0.083-10.3,1.85c-0.7-3.2,1.967-6.5,8-9.9c6.167-3.5,13.183-5.55,21.05-6.15
		c6.7-0.534,13.233,0.033,19.6,1.7c5.9,1.567,11.417,4.033,16.55,7.4c0.934,0.6,3.7,2.267,8.3,5c3.733,2.2,6.65,4.083,8.75,5.65
		c2.067,1.533,3.817,3.066,5.25,4.6L102.45,22.7c-0.601-0.1-2.084-0.117-4.45-0.05c-1.934,0.067-3.366-0.117-4.3-0.55
		c-0.4-0.2-0.8-0.517-1.2-0.95c-0.4-0.533-0.733-0.933-1-1.2c-0.866-0.967-1.533-1.7-2-2.2c-0.767-0.867-1.384-1.633-1.85-2.3
		c-1.134-1.667-2.884-2.8-5.25-3.4c-1.967-0.533-4.134-0.667-6.5-0.4c-0.101,0.9,0.083,2.033,0.55,3.4c0.6,1.7,0.934,2.833,1,3.4
		c0.066,0.7,0.05,1.183-0.05,1.45c-0.134,0.367-0.467,0.684-1,0.95c-0.567,0.267-1.4,0.467-2.5,0.6c-1.367,0.2-2.217,0.333-2.55,0.4
		c-1.067,0.3-2.133,0.7-3.2,1.2c-0.933,0.4-1.467,0.633-1.6,0.7c-0.5,0.367-0.683,0.85-0.55,1.45c0.133,0.633,0.85,1.167,2.15,1.6
		c1.434,0.367,2.333,0.6,2.7,0.7c3.1,0.933,6.466,1.5,10.1,1.7c3.133,0.233,5.649,1.183,7.55,2.85c1.566,1.4,3.45,2.7,5.65,3.9
		c2.1,1.1,3.666,1.9,4.699,2.4c1.867,0.8,3.534,1.35,5,1.65c2.834,0.667,4.967,1.167,6.4,1.5c2.6,0.6,4.767,0.934,6.5,1h5.55
		c-0.934-0.733-1.616-1.384-2.05-1.95c-0.533-0.667-0.9-1.417-1.1-2.25C119.017,37.8,118.917,37.217,118.85,36.55z M40.75,46.05
		c0.833,0.467,1.367,1.05,1.6,1.75c0.1,0.4,0.117,0.867,0.05,1.4C42.5,47.8,41.95,46.75,40.75,46.05z M41.05,53.4
		c-0.367,1.1-0.55,2.033-0.55,2.8c-0.033-0.667,0.083-1.434,0.35-2.3C40.917,53.733,40.983,53.566,41.05,53.4z M0.6,61.05
		c0.133,0.467,0.283,0.851,0.45,1.15c0.4,0.733,0.934,1.1,1.6,1.1C1.683,63.333,1,62.583,0.6,61.05z M118.7,34.35l-0.05-0.5
		c-0.067-0.733-0.184-1.467-0.351-2.2C118.533,32.55,118.667,33.45,118.7,34.35z"/>
	<path style="fill-rule:evenodd;clip-rule:evenodd;fill:#B7BFCA;" d="M145.55,66.15l-1.35,0.35c-1.066,0.134-2.134,0.217-3.2,0.25
		c-1.634,0.033-2.616-0.134-2.95-0.5c-0.233-0.267-0.316-0.684-0.25-1.25c0.033-0.767,0.05-1.184,0.05-1.25
		c-0.166-1.566-0.866-3.033-2.1-4.4c-1.366-1.466-2.816-2.05-4.35-1.75V58c-1.334-2.167-2.351-3.634-3.051-4.4
		c2.667,1.167,4.384,1.967,5.15,2.4c1.967,1.066,3.4,2.25,4.3,3.55c0.566,0.834,1.267,1.367,2.101,1.601
		c0.666,0.199,1.616,0.233,2.85,0.1l0.05-0.8c0.434,0.8,0.851,1.616,1.25,2.45c0.033,0.066,0.084,0.149,0.15,0.25l0.7,1.449
		C145.1,65.1,145.316,65.616,145.55,66.15z M132.1,61.95c0,0.434-0.033,0.75-0.1,0.95c-0.134,0.533-0.533,1.1-1.2,1.699
		c-0.7,0.601-1.116,1.134-1.25,1.601c0.3,0.2,0.851,0.517,1.65,0.95c0.7,0.466,1.149,0.883,1.35,1.25c0.134,0.233,0.2,0.85,0.2,1.85
		c0,1.033-0.066,1.65-0.2,1.85c-0.5,0.7-2.283,0.667-5.35-0.1c-0.9-0.233-2.033-0.7-3.4-1.4c-1.633-0.866-2.733-1.416-3.3-1.649
		c-1.267-0.467-2.934-0.767-5-0.9c-2.733-0.133-4.45-0.267-5.15-0.399c-1.166-0.2-2.066-0.417-2.699-0.65
		c-0.834-0.3-1.634-0.767-2.4-1.4c-1.4-1.333-2.55-2.267-3.45-2.8c-2.366-1.366-4.55-2.399-6.55-3.1
		c-0.566-0.2-1.483-0.45-2.75-0.75c-1.233-0.267-2.167-0.517-2.8-0.75c-4.767-1.967-8.316-4.351-10.65-7.15
		c-0.5-0.6-1.149-1.533-1.95-2.8c-0.833-1.3-1.483-2.25-1.949-2.85c-0.667-0.867-1.734-1.717-3.2-2.551
		c-1.2-0.699-2.467-1.283-3.8-1.75l-1.05-0.25c-0.167-0.1-0.333-0.184-0.5-0.25c-1.633-0.7-4.883-0.567-9.75,0.4l1.2-0.95
		c0.7-0.566,0.9-1.283,0.6-2.15c-0.267-0.833-0.8-1.4-1.6-1.7l-6-0.9c-0.3,0.034-0.583,0.067-0.85,0.1
		c1.267-1.367,4.117-2.367,8.55-3c3.433-0.5,5.667-0.45,6.7,0.15c-0.2,1.3,0.417,2.667,1.85,4.1c0.767,0.767,1.95,1.767,3.55,3
		c0.867,0.7,2.283,1.617,4.25,2.75c0.2,0.133,0.7,0.383,1.5,0.75c0.667,0.333,1.134,0.616,1.4,0.85s0.5,0.566,0.7,1
		c0.1,0.233,0.267,0.616,0.5,1.15c1.6,2.666,3.2,4.449,4.8,5.35c2.366,1.366,5.566,2.8,9.6,4.3c1.301,0.566,2.434,0.983,3.4,1.25
		c1.8,0.533,2.967,0.5,3.5-0.1c0.134-0.667,0.233-1.084,0.3-1.25c0.233-0.4,0.667-0.884,1.3-1.45c0.967-1,2.4-1.616,4.301-1.85
		c2.833-0.434,5.416-0.467,7.75-0.101c1.5,0.3,2.399,0.717,2.699,1.25c0.134,0.267,0.15,0.684,0.051,1.25
		c-0.101,0.601-0.117,1.017-0.051,1.25c0.2,0.634,0.801,1.15,1.801,1.55c1.233,0.4,2.083,0.7,2.55,0.9
		c0.899,0.4,2.267,0.616,4.1,0.65c1.867,0.033,3.184,0.216,3.95,0.55C130.05,60.033,131,60.783,132.1,61.95z M66.9,59.25
		c-0.233-0.2-0.467-0.384-0.7-0.55l-6.25-3.65c-0.434-0.2-0.883-0.399-1.35-0.6c-1.833-0.834-3.4-1.384-4.7-1.65
		c-1.433-0.267-3.1-0.316-5-0.149c-0.967,0.1-1.9,0.383-2.8,0.85c-0.533,0.267-1.383,0.717-2.55,1.35
		c-0.667,0.301-1.4,0.367-2.2,0.2c-0.1-1.033-0.067-1.916,0.1-2.649c0-0.034,0-0.067,0-0.101l0.15-0.5c0.033,0,0.066-0.017,0.1-0.05
		c1.167-0.733,2.517-1.233,4.05-1.5c1.5-0.233,2.983-0.2,4.45,0.1c2.267,0.467,4.933,1.5,8,3.101c0.6,0.333,1.533,0.833,2.8,1.5
		c1.1,0.566,2.067,0.916,2.9,1.05c0.2,0.2,0.4,0.417,0.6,0.65l0.6,0.6C65.767,57.95,66.367,58.616,66.9,59.25z M1.05,62.2
		c-0.167-0.3-0.316-0.684-0.45-1.15L0.1,58.15C0.033,57.316,0,56.4,0,55.4c0.067,0,0.117,0.017,0.15,0.05
		c0.467,0.066,0.867-0.05,1.2-0.351c0.1-0.1,0.4-0.533,0.9-1.3c1-1.5,1.8-3.149,2.4-4.95C5.017,47.65,5.5,46.9,6.1,46.6
		c1-0.233,1.917-0.483,2.75-0.75c1.3-0.366,2.367-1.166,3.2-2.399c0.567-0.834,1.1-1.45,1.6-1.851c0.533-0.466,1.25-0.866,2.15-1.2
		c2.3-0.867,4.317-1.433,6.05-1.7c1.933-0.333,4.017-0.4,6.25-0.2l7.15,0.85c0.5,0.1,1.267,0.15,2.3,0.15
		c1.034,0.033,1.784,0.083,2.25,0.15c1.467,0.3,2.483,1.433,3.05,3.4c0.2,0.634,0.35,1.316,0.45,2.05l-0.8-0.5
		c-1-0.6-3.133-1.083-6.4-1.449c-1.967-0.267-3.85-0.4-5.65-0.4H26.5c-0.567,0.033-1.2,0.134-1.9,0.3
		c-0.4,0.134-1.033,0.316-1.9,0.55c-0.5,0.167-1.233,0.384-2.2,0.65c-0.767,0.233-1.467,0.533-2.1,0.9c-0.1,0.066-0.5,0.35-1.2,0.85
		c-0.467,0.366-0.883,0.616-1.25,0.75c-0.633,0.233-1.7,0.35-3.2,0.35c-3-0.1-4.867,0.4-5.6,1.5c-0.433,0.7-0.767,1.834-1,3.4
		c-0.3,1.967-0.517,3.15-0.65,3.55c-0.533,1.767-1.333,3.267-2.4,4.5c-0.2,0.233-0.533,0.584-1,1.05
		C1.6,61.566,1.25,61.934,1.05,62.2z M118.3,31.65c0.167,0.733,0.283,1.467,0.351,2.2c-0.967,0.333-2.233,0.467-3.801,0.4
		c-0.866-0.033-2.133-0.15-3.8-0.35c-5.133-0.4-9-1.633-11.6-3.7c-0.467-0.367-1.233-1.083-2.3-2.15c-0.934-0.9-1.733-1.566-2.4-2
		c-1.634-1.1-3.884-2.3-6.75-3.6c-0.833-0.367-1.45-0.583-1.85-0.65c-0.767-0.167-1.417-0.066-1.95,0.3
		c-0.233,0.133-0.483,0.383-0.75,0.75c-0.334,0.4-0.601,0.667-0.8,0.8c-0.367,0.233-1.167,0.417-2.4,0.55
		c-0.5,0.066-1.566,0.1-3.2,0.1c-1.5,0.034-2.467,0.25-2.899,0.65c0.399,0.167,0.916,0.25,1.55,0.25
		c0.733-0.034,1.267-0.05,1.6-0.05c1.934,0.233,3.384,0.35,4.351,0.35c2.966,0.067,5.149,0.367,6.55,0.9
		c1.6,0.633,3.166,1.883,4.7,3.75c0.6,0.667,1.466,1.483,2.6,2.45c1.4,1.133,2.3,1.9,2.7,2.3c1.866,1.833,4.149,3.133,6.85,3.9
		c2.134,0.6,4.75,0.9,7.851,0.9c2.5-0.067,4.583-0.534,6.25-1.4c0.199,0.833,0.566,1.583,1.1,2.25
		c0.434,0.566,1.116,1.217,2.05,1.95h-5.55c-1.733-0.066-3.9-0.4-6.5-1c-1.434-0.333-3.566-0.833-6.4-1.5
		c-1.466-0.3-3.133-0.85-5-1.65c-1.033-0.5-2.6-1.3-4.699-2.4c-2.2-1.2-4.084-2.5-5.65-3.9c-1.9-1.667-4.417-2.617-7.55-2.85
		c-3.634-0.2-7-0.767-10.1-1.7c-0.367-0.1-1.267-0.333-2.7-0.7c-1.3-0.433-2.017-0.966-2.15-1.6c-0.133-0.6,0.05-1.083,0.55-1.45
		c0.133-0.067,0.667-0.3,1.6-0.7c1.067-0.5,2.133-0.9,3.2-1.2c0.333-0.067,1.183-0.2,2.55-0.4c1.1-0.133,1.933-0.333,2.5-0.6
		c0.533-0.267,0.866-0.583,1-0.95c0.1-0.267,0.116-0.75,0.05-1.45c-0.066-0.567-0.4-1.7-1-3.4c-0.467-1.367-0.65-2.5-0.55-3.4
		c2.366-0.267,4.533-0.133,6.5,0.4c2.366,0.6,4.116,1.733,5.25,3.4c0.466,0.667,1.083,1.433,1.85,2.3c0.467,0.5,1.134,1.233,2,2.2
		c0.267,0.267,0.6,0.667,1,1.2c0.4,0.434,0.8,0.75,1.2,0.95c0.934,0.433,2.366,0.617,4.3,0.55c2.366-0.066,3.85-0.05,4.45,0.05
		l11.649,1.85c1.5,1.633,2.65,3.284,3.45,4.95L118.3,31.65z"/>
	<path style="fill-rule:evenodd;clip-rule:evenodd;fill:#ADB7C1;" d="M132.1,61.95c0-0.434-0.116-1.084-0.35-1.95
		c-0.2-0.9-0.316-1.566-0.35-2v-0.4c1.533-0.3,2.983,0.284,4.35,1.75c1.233,1.367,1.934,2.834,2.1,4.4
		c0,0.066-0.017,0.483-0.05,1.25c-0.066,0.566,0.017,0.983,0.25,1.25c0.334,0.366,1.316,0.533,2.95,0.5
		c1.066-0.033,2.134-0.116,3.2-0.25l1.35-0.35l0.4,1.1c0.233,0.533,0.45,1.1,0.649,1.7c0.634,1.733,0.784,2.967,0.45,3.7
		c-0.233,0.466-0.866,0.899-1.899,1.3c-2.667,0.934-4.267,2.733-4.801,5.399c-1.767,2.067-5.1,2.733-10,2
		c-3.699-0.566-6.449-1.383-8.25-2.449c-0.733-0.434-1.383-1.167-1.949-2.2c-0.601-1.066-1.2-1.783-1.801-2.15
		c-1.433-0.967-3.866-1.85-7.3-2.649c-4.1-0.934-6.7-1.634-7.8-2.101c-2.434-1.033-4.967-2.816-7.6-5.35
		c-2.9-2.8-5.25-4.684-7.051-5.65c-3.699-1.666-6.433-2.916-8.199-3.75c-3.101-1.434-5.434-3.116-7-5.05l-0.85-1.45
		c-0.466-0.8-1.1-1.916-1.9-3.35c-0.633-1.134-1.25-2.066-1.85-2.8l-1.7-1.55l1.05,0.25c1.333,0.467,2.6,1.051,3.8,1.75
		c1.466,0.834,2.533,1.684,3.2,2.551c0.466,0.6,1.116,1.55,1.949,2.85c0.801,1.267,1.45,2.2,1.95,2.8
		c2.334,2.8,5.884,5.184,10.65,7.15c0.633,0.233,1.566,0.483,2.8,0.75c1.267,0.3,2.184,0.55,2.75,0.75c2,0.7,4.184,1.733,6.55,3.1
		c0.9,0.533,2.05,1.467,3.45,2.8c0.767,0.634,1.566,1.101,2.4,1.4c0.633,0.233,1.533,0.45,2.699,0.65
		c0.7,0.133,2.417,0.267,5.15,0.399c2.066,0.134,3.733,0.434,5,0.9c0.566,0.233,1.667,0.783,3.3,1.649c1.367,0.7,2.5,1.167,3.4,1.4
		c3.066,0.767,4.85,0.8,5.35,0.1c0.134-0.199,0.2-0.816,0.2-1.85c0-1-0.066-1.616-0.2-1.85c-0.2-0.367-0.649-0.784-1.35-1.25
		c-0.8-0.434-1.351-0.75-1.65-0.95c0.134-0.467,0.55-1,1.25-1.601c0.667-0.6,1.066-1.166,1.2-1.699
		C132.066,62.7,132.1,62.384,132.1,61.95z M40.5,56.2c0-0.767,0.183-1.7,0.55-2.8c0.1-0.367,0.233-0.733,0.4-1.101
		c0,0.033,0,0.066,0,0.101c-0.167,0.733-0.2,1.616-0.1,2.649c0.8,0.167,1.533,0.101,2.2-0.2c1.167-0.633,2.017-1.083,2.55-1.35
		c0.9-0.467,1.833-0.75,2.8-0.85c1.9-0.167,3.567-0.117,5,0.149c1.3,0.267,2.867,0.816,4.7,1.65c0.467,0.2,0.917,0.399,1.35,0.6
		l6.25,3.65c0.233,0.166,0.466,0.35,0.7,0.55c0.8,1.033,1.483,2.05,2.05,3.05l1.4,2.95c-1.967-2.167-4.233-4.167-6.8-6
		c-2.867-2.1-5.483-3.5-7.85-4.2c-2.633-0.8-5.25-0.967-7.85-0.5c-2.1,0.367-4.517,1.217-7.25,2.55c-0.033-0.1-0.05-0.183-0.05-0.25
		L40.5,56.2z M42.4,49.2c0.067-0.533,0.05-1-0.05-1.4c-0.233-0.7-0.767-1.283-1.6-1.75l-0.9-0.399
		c-0.067-0.034-0.133-0.067-0.2-0.101c-0.933-0.333-2.283-0.483-4.05-0.45c-0.467,0.034-1.85,0.117-4.15,0.25
		C30.383,45.45,29.5,45.667,28.8,46c-0.433,0.2-1.216,0.634-2.35,1.3c-1.5,0.733-4.184,1.017-8.05,0.851
		c-3.533-0.167-6.133,0.366-7.8,1.6c-1.1,0.833-2,1.95-2.7,3.35c-0.4,0.767-0.933,2.184-1.6,4.25c-0.167,0.5-0.466,1.517-0.9,3.051
		c-0.467,1.366-1.017,2.216-1.65,2.55l-0.85,0.3L2.65,63.3c-0.667,0-1.2-0.366-1.6-1.1c0.2-0.267,0.55-0.634,1.05-1.101
		c0.467-0.466,0.8-0.816,1-1.05c1.066-1.233,1.867-2.733,2.4-4.5C5.633,55.15,5.85,53.967,6.15,52c0.233-1.566,0.567-2.7,1-3.4
		c0.733-1.1,2.6-1.6,5.6-1.5c1.5,0,2.567-0.116,3.2-0.35c0.367-0.134,0.783-0.384,1.25-0.75c0.7-0.5,1.1-0.783,1.2-0.85
		c0.633-0.367,1.333-0.667,2.1-0.9c0.967-0.267,1.7-0.483,2.2-0.65c0.867-0.233,1.5-0.416,1.9-0.55c0.7-0.166,1.333-0.267,1.9-0.3
		h3.95c1.8,0,3.683,0.134,5.65,0.4c3.267,0.366,5.4,0.85,6.4,1.449l0.8,0.5c1.3,0.801,2,1.467,2.1,2c0.033,0.467-0.2,0.9-0.7,1.301
		c-0.3,0.233-0.75,0.55-1.35,0.949L43.2,49.45l-0.7,0.7c-0.233,0.3-0.383,0.533-0.45,0.699C42.217,50.217,42.333,49.667,42.4,49.2z
		 M118.7,34.35l0.149,2.2c0.067,0.667,0.167,1.25,0.301,1.75c-1.667,0.867-3.75,1.333-6.25,1.4c-3.101,0-5.717-0.3-7.851-0.9
		c-2.7-0.767-4.983-2.066-6.85-3.9c-0.4-0.4-1.3-1.167-2.7-2.3c-1.134-0.967-2-1.783-2.6-2.45c-1.534-1.867-3.101-3.117-4.7-3.75
		c-1.4-0.533-3.584-0.833-6.55-0.9c-0.967,0-2.417-0.117-4.351-0.35c-0.333,0-0.866,0.017-1.6,0.05c-0.634,0-1.15-0.083-1.55-0.25
		c0.433-0.4,1.399-0.617,2.899-0.65c1.634,0,2.7-0.033,3.2-0.1c1.233-0.133,2.033-0.317,2.4-0.55c0.199-0.133,0.466-0.4,0.8-0.8
		c0.267-0.367,0.517-0.617,0.75-0.75c0.533-0.367,1.184-0.467,1.95-0.3c0.399,0.067,1.017,0.284,1.85,0.65
		c2.866,1.3,5.116,2.5,6.75,3.6c0.667,0.434,1.467,1.1,2.4,2c1.066,1.067,1.833,1.784,2.3,2.15c2.6,2.066,6.467,3.3,11.6,3.7
		c1.667,0.2,2.934,0.317,3.8,0.35c1.567,0.067,2.834-0.067,3.801-0.4L118.7,34.35z"/>
</g>
</svg>
