<?xml version="1.0" encoding="iso-8859-1"?>
<!-- Generator: Adobe Illustrator 15.1.0, SVG Export Plug-In . SVG Version: 6.00 Build 0)  -->
<!DOCTYPE svg PUBLIC "-//W3C//DTD SVG 1.1//EN" "http://www.w3.org/Graphics/SVG/1.1/DTD/svg11.dtd">
<svg version="1.1" id="FlashAICB" xmlns="http://www.w3.org/2000/svg" xmlns:xlink="http://www.w3.org/1999/xlink" x="0px" y="0px"
	 width="116.1px" height="48.15px" viewBox="0 0 116.1 48.15" style="enable-background:new 0 0 116.1 48.15;" xml:space="preserve"
	>
<g>
	
		<linearGradient id="SVGID_1_" gradientUnits="userSpaceOnUse" x1="0.1294" y1="-58.0493" x2="53.6544" y2="-58.0493" gradientTransform="matrix(1.868286e-005 1 -1 -0.001 -3.773801e-004 -8.200412e-006)">
		<stop  offset="0" style="stop-color:#FFFFFF"/>
		<stop  offset="1" style="stop-color:#C8DAE3"/>
	</linearGradient>
	<path style="fill-rule:evenodd;clip-rule:evenodd;fill:url(#SVGID_1_);" d="M2.85,21.3c0.7-0.433,1.817-1,3.35-1.7
		c1.2-0.667,2.35-1.1,3.45-1.3c0.767-0.167,1.267-0.3,1.5-0.4c0.1-0.033,0.483-0.3,1.15-0.8c0.133-0.133,0.267-0.333,0.4-0.6
		c0.1-0.2,0.283-0.35,0.55-0.45c0.3-0.1,0.95-0.083,1.95,0.05h4.5c6.5,0,11.05-0.083,13.65-0.25c5-0.3,9.5-0.983,13.5-2.05
		c0.1-0.367,0.034-1.5-0.2-3.4c-0.1-1.066,0.45-1.983,1.65-2.75c1.533-0.933,3.6-1.9,6.2-2.9c1.466-0.533,3.617-1.333,6.449-2.4
		c3.367-1.367,7.533-2.133,12.5-2.3c2.867-0.1,7.134-0.066,12.801,0.1l0.9,1.35c3.832,0,6.783,0.317,8.85,0.95
		c2.967,0.933,5.316,2.683,7.05,5.25c0.333,0.5,0.817,1.283,1.45,2.35c0.566,0.934,1.133,1.617,1.699,2.05
		c1.367,1,3.551,2.367,6.551,4.1c2.133,1.466,3.25,2.8,3.35,4c0.066,1-0.633,2.583-2.1,4.75c-0.768,1.134-1.684,1.899-2.75,2.3
		c-1.367,0.4-2.518,0.767-3.45,1.1c-1.933,0.7-3.366,1.617-4.3,2.75c-0.566,0.667-0.867,1.467-0.9,2.4
		c-0.033,0.533-0.017,1.434,0.051,2.7c-0.067,2.134-0.367,3.7-0.9,4.7c-1,1.967-1.633,3-1.9,3.1c-0.6,0.267-1.083,0.25-1.449-0.05
		c-0.268-0.267-0.5-0.817-0.701-1.65c-0.066-0.3-0.082-1.767-0.049-4.399c0-1.9-0.4-3.268-1.201-4.101
		c-0.533,0.101-0.949,0.267-1.25,0.5c0,0.866-0.316,1.934-0.949,3.2c-0.7,1.334-1.417,2.15-2.15,2.45
		c-0.867-1.467-1.232-3.55-1.1-6.25c0.166-3.866,0.217-6.067,0.15-6.601c-0.4-3.1-2.184-4.7-5.351-4.8
		c-3.933,0.567-6.733,0.967-8.399,1.2c-2.9,0.4-4.783,0.117-5.65-0.85c-0.167-0.2-0.316-0.55-0.45-1.05
		c-0.067-0.3-0.351-0.533-0.851-0.7c-1.299,0.367-2.049,0.567-2.25,0.6c-0.5,0.1-1.332,0.133-2.5,0.1
		c-1.133-0.033-1.949,0.033-2.449,0.2c-0.7,0.233-1.184,0.667-1.45,1.3c-0.167,0.4-0.384,1.133-0.649,2.2
		c-0.268,0.833-0.634,1.517-1.101,2.05c-0.167,0.2-0.717,0.717-1.649,1.551C58,29.233,57.733,29.467,57.6,29.6
		c-0.233,0.2-0.45,0.518-0.65,0.95c-0.267,1.3-0.55,2.067-0.85,2.3c-0.267,0.2-0.833,0.217-1.7,0.051
		c-0.9-0.167-1.483-0.184-1.75-0.051c-0.7,0.367-1.05,1.268-1.05,2.7c-0.033,0.767,0.017,1.817,0.15,3.15
		c0,0.733,0.1,2.45,0.3,5.149c0.033,2.4-0.383,3.768-1.25,4.101c-0.633,0.267-1.333,0.283-2.1,0.05c-0.7-0.2-1.3-0.55-1.8-1.05
		c-0.934-0.967-1.4-2.55-1.4-4.75c0.167-2.467,0.183-4.217,0.05-5.25c-0.433-0.067-1.4-0.034-2.9,0.1
		c-1.3,0.101-2.233,0.017-2.8-0.25c-0.633-0.3-1.1-0.933-1.4-1.899c-0.333-1.033-0.783-1.717-1.35-2.051
		c-0.8-0.467-1.833-0.6-3.1-0.399c-1.9,0.3-2.934,0.45-3.1,0.45c-0.4,0-1.184-0.217-2.35-0.65c-0.967-0.334-1.767-0.4-2.4-0.2
		c-0.967,0.333-1.833,1.351-2.6,3.05c-0.067,0.167-0.283,0.934-0.65,2.301c-0.267,1.066-0.55,1.732-0.85,2
		c-0.6,0.467-1.467,0.467-2.6,0c-1.066-0.434-1.767-0.984-2.1-1.65c-0.133-0.3-0.2-1.066-0.2-2.3c0-1.067-0.2-1.784-0.6-2.15
		c-0.367-0.333-1.017-0.5-1.95-0.5c-1.3,0-2,0-2.1,0l-0.15-0.7c-0.5-0.133-1.767-0.016-3.8,0.351c-1.733,0.366-2.933,0.233-3.6-0.4
		c-0.167-0.167-0.316-0.6-0.45-1.3c-0.133-0.666-0.317-1.1-0.55-1.3c-0.167-0.134-0.517-0.3-1.05-0.5
		c-0.567-0.233-0.934-0.4-1.1-0.5C0.9,27.916,0.333,27.3,0.1,26.6c-0.2-0.666-0.117-1.516,0.25-2.55
		C0.75,22.95,1.583,22.033,2.85,21.3z"/>
	<path style="fill-rule:evenodd;clip-rule:evenodd;fill:#CCD8E0;" d="M16.2,29.85c0.167,0.367,0.283,0.917,0.35,1.65
		c0.067,0.434,0.133,1.117,0.2,2.05l-0.2-0.25c-0.367-0.333-1.017-0.5-1.95-0.5c-1.3,0-2,0-2.1,0l-0.15-0.7
		c-0.5-0.133-1.767-0.016-3.8,0.351c-1.733,0.366-2.933,0.233-3.6-0.4c-0.167-0.167-0.316-0.6-0.45-1.3
		c-0.133-0.666-0.317-1.1-0.55-1.3c-0.167-0.134-0.517-0.3-1.05-0.5c-0.567-0.233-0.934-0.4-1.1-0.5
		c-0.867-0.534-1.417-1.134-1.65-1.8c-0.233-0.667-0.184-1.484,0.15-2.45l0.75,0.3l2.75,0.7c0.633,2.767,2.217,4.366,4.75,4.8
		C10.483,30.267,13.033,30.217,16.2,29.85z"/>
	<path style="fill-rule:evenodd;clip-rule:evenodd;fill:#CCD8E0;" d="M39.2,32.4c1.167,0.899,2.583,1.35,4.25,1.35l0.8-0.1
		c0.566,0.967,0.883,2.05,0.95,3.25c-0.3-0.033-1.217,0.016-2.75,0.149c-1.2,0.101-2.066,0.017-2.6-0.25
		c-0.633-0.3-1.1-0.933-1.4-1.899c-0.333-1.033-0.783-1.717-1.35-2.051c-0.8-0.467-1.833-0.6-3.1-0.399
		c-1.9,0.3-2.934,0.45-3.1,0.45c-0.4,0-1.184-0.217-2.35-0.65c-0.967-0.334-1.767-0.4-2.4-0.2c-0.967,0.333-1.833,1.351-2.6,3.05
		c-0.067,0.167-0.283,0.934-0.65,2.301c-0.267,1.066-0.55,1.732-0.85,2c-0.6,0.467-1.467,0.467-2.6,0
		c-1.066-0.434-1.767-0.984-2.1-1.65c-0.133-0.3-0.2-1-0.2-2.1c0.467,1.199,1.4,1.649,2.8,1.35c1.067-0.233,1.767-0.983,2.1-2.25
		c0.233-1.066,0.183-2.233-0.15-3.5L22.8,31c1.833-0.733,4.167-1.2,7-1.4c1.6-0.133,4-0.3,7.2-0.5
		C37.433,30.467,38.167,31.566,39.2,32.4z"/>
	<path style="fill-rule:evenodd;clip-rule:evenodd;fill:#CCD8E0;" d="M68.199,21.5c-0.5,0.1-1.332,0.133-2.5,0.1
		c-1.133-0.033-1.949,0.033-2.449,0.2c-0.7,0.233-1.184,0.667-1.45,1.3c-0.167,0.4-0.384,1.133-0.649,2.2
		c-0.268,0.833-0.634,1.517-1.101,2.05c-0.167,0.2-0.717,0.717-1.649,1.551C58,29.233,57.733,29.467,57.6,29.6
		c-0.233,0.2-0.45,0.518-0.65,0.95c-0.267,1.3-0.55,2.067-0.85,2.3c-0.267,0.2-0.833,0.217-1.7,0.051
		c-0.9-0.167-1.483-0.184-1.75-0.051c-0.7,0.367-1.05,1.268-1.05,2.7c-0.033,0.767,0.017,1.817,0.15,3.15
		c0,0.733,0.1,2.45,0.3,5.149c0.033,2.4-0.383,3.768-1.25,4.101c-0.633,0.267-1.333,0.283-2.1,0.05c-0.7-0.2-1.3-0.55-1.8-1.05
		c-0.8-0.8-1.25-1.967-1.35-3.5c0.267,0.667,0.617,1.149,1.05,1.45c0.534,0.333,1.117,0.316,1.75-0.051
		c1.067-0.6,1.767-1.684,2.1-3.25c0.3-1.3,0.317-2.633,0.05-4c-0.267-1.566-0.417-2.684-0.45-3.35c-0.033-1.133,0.1-2.15,0.4-3.05
		c1.5-1.067,3.184-2.616,5.05-4.65c1.033-1.134,2.483-2.767,4.35-4.9l1.9-2.35l0.199-0.35l0.25,0.05l0.451-0.05
		c0.266,0.333,0.616,0.517,1.049,0.55c0.467,0.067,2.033-0.217,4.701-0.85c1.799-0.4,3.183-0.033,4.149,1.1
		c0.967,1.167,2.517,1.833,4.649,2c1.168,0.067,2.9-0.033,5.201-0.3c2.033-0.233,3.35-0.35,3.949-0.35c1.467,0,2.783,0.25,3.95,0.75
		c0.866,0.367,1.317,1.15,1.351,2.35c0,0.233-0.117,1.149-0.351,2.75l-0.101,0.899L91.15,27.1c-0.4-3.1-2.184-4.7-5.351-4.8
		c-3.933,0.567-6.733,0.967-8.399,1.2c-2.9,0.4-4.783,0.117-5.65-0.85c-0.167-0.2-0.316-0.55-0.45-1.05
		c-0.067-0.3-0.351-0.533-0.851-0.7C69.15,21.267,68.4,21.467,68.199,21.5z"/>
	<path style="fill-rule:evenodd;clip-rule:evenodd;fill:#CCD8E0;" d="M101.35,29.35h0.051c1.199,0.301,2.383,0.45,3.549,0.45
		c-0.799,0.667-1.283,1.101-1.449,1.3c-0.566,0.667-0.867,1.467-0.9,2.4c-0.033,0.533-0.017,1.434,0.051,2.7
		c-0.067,2.134-0.367,3.7-0.9,4.7c-1,1.967-1.633,3-1.9,3.1c-0.6,0.267-1.083,0.25-1.449-0.05c-0.268-0.267-0.5-0.817-0.701-1.65
		c-0.066-0.3-0.082-1.767-0.049-4.399c0-1.9-0.4-3.268-1.201-4.101c-0.533,0.101-0.949,0.267-1.25,0.5
		c0,0.866-0.316,1.934-0.949,3.2c-0.7,1.334-1.417,2.15-2.15,2.45c-0.732-1.233-1.117-2.833-1.15-4.8
		c0.134-2.301,0.217-4.018,0.25-5.15c0.168,1.166,0.567,2.25,1.201,3.25c0.366,0.533,0.866,0.767,1.5,0.7
		c0.633-0.101,1.033-0.467,1.199-1.101c0.033-0.066,0.084-0.55,0.15-1.449c1.333,1.399,2.199,2.366,2.6,2.899
		c0.301,0.333,0.717,0.467,1.25,0.4c0.533-0.067,0.9-0.3,1.1-0.7C101.133,32.133,101.517,30.584,101.35,29.35z"/>
</g>
</svg>
