<?xml version="1.0" encoding="iso-8859-1"?>
<!-- Generator: Adobe Illustrator 15.1.0, SVG Export Plug-In . SVG Version: 6.00 Build 0)  -->
<!DOCTYPE svg PUBLIC "-//W3C//DTD SVG 1.1//EN" "http://www.w3.org/Graphics/SVG/1.1/DTD/svg11.dtd">
<svg version="1.1" id="FlashAICB" xmlns="http://www.w3.org/2000/svg" xmlns:xlink="http://www.w3.org/1999/xlink" x="0px" y="0px"
	 width="86.2px" height="28.4px" viewBox="0 0 86.2 28.4" style="enable-background:new 0 0 86.2 28.4;" xml:space="preserve">
<g>
	
		<linearGradient id="SVGID_1_" gradientUnits="userSpaceOnUse" x1="0.5571" y1="-43.0923" x2="27.9571" y2="-43.0923" gradientTransform="matrix(3.649635e-005 1 -1 -0.001 -4.427856e-004 -2.416240e-004)">
		<stop  offset="0" style="stop-color:#FFFFFF"/>
		<stop  offset="1" style="stop-color:#C8DAE3"/>
	</linearGradient>
	<path style="fill-rule:evenodd;clip-rule:evenodd;fill:url(#SVGID_1_);" d="M27,0.6c1.1-0.133,2.517-0.083,4.25,0.15
		c2.067,0.3,3.45,0.45,4.15,0.45c0.434,0,2,0.05,4.7,0.15c1.933,0.067,3.484,0.017,4.65-0.15c0.4-0.067,1.75-0.317,4.05-0.75
		C50.4,0.117,51.783-0.033,52.95,0c1.066,0.034,2.466,0.3,4.2,0.8c1.833,0.566,3.184,0.883,4.05,0.95c1.5,0.167,3.017,0.1,4.55-0.2
		c0.3-0.033,1.733-0.367,4.3-1c1.366-0.3,2.833-0.184,4.4,0.35c1.7,0.6,2.783,1.483,3.25,2.65v-0.6c1.233-0.1,2.616-0.033,4.149,0.2
		c1.934,0.267,3.167,0.733,3.7,1.4c0.767,0.933,0.866,1.9,0.3,2.9c-0.434,0.867-1.184,1.533-2.25,2c-0.666,0.3-1.783,0.567-3.35,0.8
		c-1.533,0.2-2.633,0.467-3.3,0.8c-0.934,0.5-1.833,0.833-2.7,1c-0.233,0.066-1.217,0.217-2.95,0.45
		c0.034,0.767-0.083,1.883-0.35,3.35c-0.3,1.668-0.634,2.684-1,3.051c-0.567,0.566-1.601,0.816-3.101,0.75
		c-1.366-0.033-2.416-0.283-3.149-0.75c-0.467-0.301-1.351-1.268-2.65-2.9c-0.899-1.167-2.033-1.783-3.399-1.85
		c-1.101-0.067-2.334,0.233-3.7,0.9c-1.366-0.667-2.95-0.884-4.75-0.65c-1.733,0.233-3.267,0.833-4.601,1.8
		c-0.566,0.567-1.066,0.933-1.5,1.101c-0.466,0.166-0.983,0.266-1.55,0.299c-0.7,0.033-1.267,0.067-1.7,0.101
		c-2.233,0.2-3.783,1.517-4.65,3.95c-0.233,0.699-0.633,2.9-1.2,6.6c-1.9,0.334-3.05-0.066-3.45-1.199
		c-0.167-1.668-0.367-3.018-0.6-4.051c-0.167-0.934-0.45-1.583-0.85-1.949c-0.467-0.467-1.167-0.601-2.1-0.4
		c-0.4,0.066-0.933,0.4-1.6,1c-0.6,0.6-1.1,0.883-1.5,0.85c-0.6-0.033-0.983-0.467-1.15-1.3c-0.233-0.967-0.567-1.567-1-1.8
		c-0.267-0.1-1.033-0.133-2.3-0.1c-1.3,0.033-2.05,0.116-2.25,0.25c-0.434,0.332-0.667,1.967-0.7,4.899
		c-0.033,2.5-0.633,3.567-1.8,3.2c0.033-0.934-0.133-2.018-0.5-3.25c-0.2-0.633-0.6-1.684-1.2-3.15c-0.4-1-0.717-2.05-0.95-3.15
		c-0.066-0.467-0.216-1.549-0.45-3.25C8.9,14.983,7.717,14,8.05,11.9c-1.533-0.1-3.183-0.5-4.95-1.2C0.833,9.833-0.2,8.867,0,7.8
		c0.233-1.367,1.583-2.317,4.05-2.85c2.233-0.5,3.233-1.533,3-3.1C9.25,1.517,12.6,1.3,17.1,1.2C21.633,1.1,24.933,0.9,27,0.6z"/>
	<path style="fill-rule:evenodd;clip-rule:evenodd;fill:#CCD8E0;" d="M11.85,12.3l0.1,0.15c0.2,3.567,0.533,6.351,1,8.351
		c0.2,0.933,0.783,1.283,1.75,1.049c0.966-0.266,1.333-0.866,1.1-1.799c-0.267-1.367-0.483-2.918-0.65-4.65c2.4,1.699,5.4,2.8,9,3.3
		c1.8,0.2,3.617-0.067,5.45-0.8c-0.167,1.1-0.25,2.25-0.25,3.449C28.883,20.65,28.1,20.417,27,20.65c-0.4,0.066-0.933,0.4-1.6,1
		c-0.6,0.6-1.1,0.883-1.5,0.85c-0.6-0.033-0.983-0.467-1.15-1.3c-0.233-0.967-0.567-1.567-1-1.8c-0.267-0.1-1.033-0.133-2.3-0.1
		c-1.3,0.033-2.05,0.116-2.25,0.25c-0.434,0.332-0.667,1.967-0.7,4.899c-0.033,2.5-0.633,3.567-1.8,3.2
		c0.033-0.934-0.133-2.018-0.5-3.25c-0.2-0.633-0.6-1.684-1.2-3.15c-0.4-1-0.717-2.05-0.95-3.15c-0.066-0.467-0.216-1.549-0.45-3.25
		C8.9,14.983,7.717,14,8.05,11.9c-1.533-0.1-3.183-0.5-4.95-1.2C0.833,9.833-0.2,8.867,0,7.8c0.1-0.467,0.25-0.85,0.45-1.15
		C1.683,8.883,3.667,9.9,6.4,9.7c0.167,0,0.85,0.017,2.05,0.05c1.001,0,1.343-0.158,1.025-0.475
		C9.86,9.641,10.652,10.649,11.85,12.3z"/>
	<path style="fill-rule:evenodd;clip-rule:evenodd;fill:#CCD8E0;" d="M31,27.801c-0.367-0.4-0.617-1.168-0.75-2.301
		c0.467,0.533,1.083,0.684,1.85,0.45c1.1-0.366,1.816-1.217,2.15-2.55c0.267-1,0.3-2.15,0.1-3.45c-0.133-0.533-0.217-0.95-0.25-1.25
		c-0.1-0.5-0.083-0.917,0.05-1.25s0.467-0.667,1-1c0.3-0.2,0.733-0.45,1.3-0.75l1.3-0.7c2.7,0.367,5.45-0.216,8.25-1.75
		c0.367-0.167,1.166-0.716,2.4-1.65h0.05c0.866,0.4,1.85,0.6,2.95,0.6c1.066-0.033,2.633,0.217,4.699,0.75
		c2.101,0.533,3.7,0.783,4.801,0.75l0.149-0.05c0.2,0.867,0.616,1.583,1.25,2.15c0.634,0.6,1.417,0.933,2.351,1
		c1.3,0.1,2.482-0.351,3.55-1.351c0.767-0.767,1.066-1.8,0.899-3.1c-0.1-0.5-0.333-1.017-0.699-1.55l1.3-0.95
		c0.833-0.633,2.233-1,4.2-1.1c1.033-0.066,2.516-0.15,4.449-0.25c2.734-0.466,5.283-1.517,7.65-3.15
		c0.334,0.8,0.217,1.617-0.35,2.45c-0.5,0.7-1.184,1.25-2.051,1.65c-0.666,0.3-1.783,0.567-3.35,0.8c-1.533,0.2-2.633,0.467-3.3,0.8
		c-0.934,0.5-1.833,0.833-2.7,1c-0.233,0.066-1.217,0.217-2.95,0.45c0.034,0.767-0.083,1.883-0.35,3.35
		c-0.3,1.668-0.634,2.684-1,3.051c-0.567,0.566-1.601,0.816-3.101,0.75c-1.366-0.033-2.416-0.283-3.149-0.75
		c-0.467-0.301-1.351-1.268-2.65-2.9c-0.899-1.167-2.033-1.783-3.399-1.85c-1.101-0.067-2.334,0.233-3.7,0.9
		c-1.366-0.667-2.95-0.884-4.75-0.65c-1.733,0.233-3.267,0.833-4.601,1.8c-0.566,0.567-1.066,0.933-1.5,1.101
		c-0.466,0.166-0.983,0.266-1.55,0.299c-0.7,0.033-1.267,0.067-1.7,0.101c-2.233,0.2-3.783,1.517-4.65,3.95
		c-0.233,0.699-0.633,2.9-1.2,6.6C32.533,28.518,31.533,28.367,31,27.801z"/>
</g>
</svg>
