<?xml version="1.0" encoding="iso-8859-1"?>
<!-- Generator: Adobe Illustrator 15.1.0, SVG Export Plug-In . SVG Version: 6.00 Build 0)  -->
<!DOCTYPE svg PUBLIC "-//W3C//DTD SVG 1.1//EN" "http://www.w3.org/Graphics/SVG/1.1/DTD/svg11.dtd">
<svg version="1.1" id="FlashAICB" xmlns="http://www.w3.org/2000/svg" xmlns:xlink="http://www.w3.org/1999/xlink" x="0px" y="0px"
	 width="38.6px" height="23.35px" viewBox="0 0 38.6 23.35" style="enable-background:new 0 0 38.6 23.35;" xml:space="preserve">
<g>
	
		<linearGradient id="SVGID_1_" gradientUnits="userSpaceOnUse" x1="0.5688" y1="-19.3066" x2="23.9938" y2="-19.3066" gradientTransform="matrix(4.268944e-005 1 -1 -0.001 2.679534e-004 1.753927e-004)">
		<stop  offset="0" style="stop-color:#FFFFFF"/>
		<stop  offset="1" style="stop-color:#C8DAE3"/>
	</linearGradient>
	<path style="fill-rule:evenodd;clip-rule:evenodd;fill:url(#SVGID_1_);" d="M6.5,8.95C6,8.417,5.3,8.4,4.4,8.9
		c-0.1,0.066-0.583,0.783-1.45,2.15c-0.633,1-1.383,1.266-2.25,0.8c-0.6-0.3-0.8-0.967-0.6-2C0.433,8.717,0.65,7.967,0.75,7.6
		c0.6-2.033,1.283-3.35,2.05-3.95c0.4-0.333,1.017-0.667,1.85-1c0.933-0.434,1.6-0.784,2-1.05C7.883,0.833,8.667,0.4,9,0.3
		c0.566-0.233,1.483-0.333,2.75-0.3h7.85l2.95,0.55c2.601,0,4.967,0.217,7.101,0.65l3.699,0.35c1.566,0.133,2.733,0.483,3.5,1.05
		c1.634,1.233,2.117,3.867,1.45,7.9c-0.667,4.066-2.149,5.633-4.45,4.7c-0.232-0.866-0.4-1.517-0.5-1.95
		c-0.199-0.732-0.283-1.383-0.25-1.95c-1.699-0.3-2.783-0.3-3.25,0c-0.267,0.167-0.482,0.55-0.65,1.15
		c-0.166,0.601-0.366,0.983-0.6,1.149c-0.4,0.301-1.1,0.484-2.1,0.551c-1,0.033-1.733,0.217-2.2,0.55
		c-0.634,0.467-1,1.101-1.101,1.899c-0.033,0.134-0.049,0.918-0.049,2.351c-0.033,1-0.25,2.417-0.65,4.25
		c-0.967,0.467-1.967-0.101-3-1.7c-0.8-1.232-1.317-2.434-1.55-3.6l-0.15-0.35c-0.1-0.601-0.3-2.334-0.6-5.201
		c-0.167-1.866-0.333-2.983-0.5-3.35c-0.466-1.066-1.466-1.333-3-0.8c-1.033,0.367-1.6,1.133-1.7,2.3c-0.1,1.5-0.367,2.5-0.8,3
		c-0.767-0.367-1.4-0.767-1.9-1.199c-0.467-0.367-1.017-0.934-1.65-1.701C7.183,9.767,6.8,9.217,6.5,8.95z"/>
	<path style="fill-rule:evenodd;clip-rule:evenodd;fill:#CCD8E0;" d="M19.449,21.45c0.434-0.5,0.817-1.149,1.15-1.95
		c0.268-0.8,0.434-1.783,0.5-2.949c0.033-1.334,0.051-2.351,0.051-3.051l0.799-0.85c0.4-0.1,0.817-0.133,1.25-0.1
		c1.234,0.066,2.201,0,2.9-0.201c0.801-0.232,1.467-0.716,2-1.449c1.033-0.034,2.584-0.184,4.65-0.45l5.699-0.75
		c-0.232,1.9-0.716,3.384-1.449,4.45c-0.867,1.199-1.917,1.55-3.15,1.05c-0.232-0.866-0.4-1.517-0.5-1.95
		c-0.199-0.732-0.283-1.383-0.25-1.95c-1.699-0.3-2.783-0.3-3.25,0c-0.267,0.167-0.482,0.55-0.65,1.15
		c-0.166,0.601-0.366,0.983-0.6,1.149c-0.4,0.301-1.1,0.484-2.1,0.551c-1,0.033-1.733,0.217-2.2,0.55
		c-0.634,0.467-1,1.101-1.101,1.899c-0.033,0.134-0.049,0.918-0.049,2.351c-0.033,1-0.25,2.417-0.65,4.25
		C21.533,23.667,20.517,23.084,19.449,21.45z"/>
	<path style="fill-rule:evenodd;clip-rule:evenodd;fill:#CCD8E0;" d="M6.5,8.95C6,8.417,5.3,8.4,4.4,8.9
		c-0.1,0.066-0.583,0.783-1.45,2.15c-0.633,1-1.383,1.266-2.25,0.8c-0.767-0.4-0.9-1.383-0.4-2.95c0.833-0.133,1.667-0.45,2.5-0.95
		C4.033,7.25,5,6.767,5.7,6.5c1.1-0.433,2.167-0.667,3.2-0.7c-0.533,0.033-0.083,0.233,1.35,0.6l2.05,0.55
		c0.667,0,1.367-0.133,2.1-0.4c0.4-0.133,1.033-0.4,1.9-0.8l1.5,1.45v0.5c0.033,0.5-0.25,1.183-0.85,2.05
		c-0.367-1.7-1.45-2.216-3.25-1.55c-1.033,0.367-1.6,1.133-1.7,2.3c-0.1,1.5-0.367,2.5-0.8,3c-0.767-0.367-1.4-0.767-1.9-1.199
		c-0.467-0.367-1.017-0.934-1.65-1.701C7.183,9.767,6.8,9.217,6.5,8.95z"/>
</g>
</svg>
