<?xml version="1.0" encoding="iso-8859-1"?>
<!-- Generator: Adobe Illustrator 15.1.0, SVG Export Plug-In . SVG Version: 6.00 Build 0)  -->
<!DOCTYPE svg PUBLIC "-//W3C//DTD SVG 1.1//EN" "http://www.w3.org/Graphics/SVG/1.1/DTD/svg11.dtd">
<svg version="1.1" id="Layer_1" xmlns="http://www.w3.org/2000/svg" xmlns:xlink="http://www.w3.org/1999/xlink" x="0px" y="0px"
	 width="214.15px" height="68.1px" viewBox="0 0 214.15 68.1" style="enable-background:new 0 0 214.15 68.1;" xml:space="preserve"
	>
<g>
	<path style="fill-rule:evenodd;clip-rule:evenodd;fill:#B7BFCA;" d="M111.55,36.7c0.9-0.233,2.017-0.75,3.351-1.55
		c1.566-0.9,2.699-1.484,3.399-1.75c0.667-0.233,1.7-0.533,3.101-0.9c1.366-0.367,2.383-0.683,3.05-0.95
		c0.8-0.3,2.017-0.8,3.649-1.5c1.467-0.566,2.7-0.966,3.7-1.2c-0.3,1.167-1.1,2.267-2.399,3.3c-1.534,1.2-2.5,2.133-2.9,2.8
		c-0.267,0.5-0.483,1.05-0.65,1.649c-0.199,0.801-0.166,1.384,0.101,1.75c0.166,0.233,0.533,0.384,1.1,0.45
		c0.8,0.134,1.217,0.2,1.25,0.2c0.867,0.333,1.967,0.8,3.3,1.4c1.167,0.433,2.367,0.6,3.601,0.5c0.967-0.101,2.399-0.45,4.3-1.051
		c0.7-0.166,1.533-0.25,2.5-0.25c0.566,0,1.417,0.017,2.55,0.051c3.834,0,6.667-0.117,8.5-0.351c3.167-0.434,5.75-1.35,7.75-2.75
		c1.233-0.866,1.667-1.8,1.3-2.8c-0.133-0.4-0.416-0.717-0.85-0.95c-0.5-0.233-0.9-0.45-1.2-0.65c-0.8-0.5-1.85-1.267-3.149-2.3
		c-1.567-1.233-2.601-2.033-3.101-2.4c-2.967-2.067-7.217-4.25-12.75-6.55c1.667,0.033,3.617-0.1,5.851-0.4
		c1.267-0.167,3.199-0.467,5.8-0.9c3.399-0.467,6.184-0.7,8.35-0.7c2.667,0,5.417,0.333,8.25,1c1.101,0.267,2.7,0.7,4.8,1.3
		c2.167,0.6,3.767,1.017,4.801,1.25c-0.867,1.167-1.384,2.533-1.551,4.1c-0.033,0.667-0.149,1.667-0.35,3
		c-0.2,1.067-0.733,1.817-1.6,2.25c-1.2,0.367-2.184,0.684-2.95,0.95c-1.4,0.467-2.417,0.733-3.05,0.8c-1,0.133-2.101,0-3.301-0.4
		c-0.199,0.3-0.3,0.684-0.3,1.15c0.033,0.633,0.033,1.033,0,1.2c-0.233,0.667-0.967,1.533-2.2,2.6
		c-1.833,1.467-3.666,2.483-5.5,3.051c-1.933,0.6-4.433,0.883-7.5,0.85c-3.5-0.1-6.05-0.167-7.649-0.2c0.733,0.3,1.8,0.483,3.2,0.55
		c0.767,0.034,1.883,0.067,3.35,0.101c0.6,0.033,1.5,0.149,2.7,0.35c1.2,0.167,2.1,0.267,2.7,0.3c2.066,0.101,3.316,0.15,3.75,0.15
		c1.5,0,2.716-0.134,3.649-0.4c0.867-0.233,1.9-0.899,3.101-2c1.267-1.166,2.267-1.883,3-2.149c1.133-0.434,2.866-0.667,5.199-0.7
		c2.367,0,4.067-0.2,5.101-0.6c0.366-0.134,0.899-0.351,1.6-0.65c0.601-0.267,1.084-0.566,1.45-0.9
		c0.366-0.333,0.717-0.883,1.05-1.649c0.4-0.867,0.7-1.434,0.9-1.7c0.8-1.067,1.7-1.717,2.7-1.95c0.6-0.133,1.683-0.3,3.25-0.5
		c0.833-0.2,1.75-0.8,2.75-1.8c0.899-0.867,1.583-1.75,2.05-2.65s0.733-2.217,0.8-3.95c0.167,0.167,0.35,0.333,0.55,0.5l1.15,0.95
		c0.733,0.5,1.6,1.017,2.6,1.55c2.467,1.3,4.033,2.184,4.7,2.65c0.233,0.167,1.1,0.633,2.6,1.4c1.167,0.6,1.917,1.117,2.25,1.55
		c0.134,0.133,0.267,0.35,0.4,0.65l0.05,0.05c-0.2,0.1-0.649,0.216-1.35,0.35c-0.533,0.1-0.95,0.25-1.25,0.45
		c-0.467,0.3-0.851,1.033-1.15,2.2c-0.166,0.633-0.383,1.5-0.649,2.6c-0.267,0.7-0.65,1.367-1.15,2c-0.267,0.3-0.816,0.867-1.65,1.7
		c-0.5,0.5-1.216,1.3-2.149,2.4c-0.834,0.933-1.65,1.6-2.45,2c-1.1,0.533-2.4,0.983-3.9,1.35c-0.267,0.033-1.6,0.283-4,0.75
		c-3.333,0.833-5.866,1.384-7.6,1.65c-2.1,0.3-4.717,0.383-7.85,0.25c0.466,0.399,1.416,0.649,2.85,0.75
		c0.767,0.066,1.767,0.116,3,0.149c1.6,0.267,2.533,0.4,2.8,0.4l2.8,0.2c1.101,0.066,2.017,0.1,2.75,0.1
		c4.2,0,7.483-0.533,9.851-1.6c0.8-0.334,1.733-0.917,2.8-1.75c1.366-1.034,2.233-1.667,2.6-1.9c0.2-0.1,0.867-0.384,2-0.85
		c0.801-0.301,1.417-0.65,1.851-1.051c0.6-0.533,1.05-1.283,1.35-2.25c0.066-0.267,0.25-1.183,0.55-2.75
		c0.267-1.699,0.601-3.133,1-4.3l0.25,0.6v0.05c0.233,0.466,0.9,1.633,2,3.5c0.867,1.7,0.95,2.75,0.25,3.149
		c0.233-0.066,0.584-0.05,1.051,0.051c0.033,0.566-0.184,1-0.65,1.3c-0.134,0.033-0.267,0.083-0.4,0.149
		c-0.399,0.167-1.017,0.384-1.85,0.65c-0.4,0.267-0.866,0.783-1.4,1.55c-0.633,0.601-1.517,1.15-2.649,1.65
		c-1.667,0.7-2.634,1.133-2.9,1.3c-4.566,2.6-7.866,4.366-9.899,5.3c-3.801,1.667-7.417,2.65-10.851,2.95
		c-1.233,0.1-3.2,0.116-5.899,0.05c-2.567-0.066-4.534-0.033-5.9,0.101c-4.033,0.5-7.483,0.6-10.35,0.3
		c-2.801-0.3-5.634-1.417-8.5-3.351c-0.134-0.066-0.267-0.25-0.4-0.55c-0.134-0.267-0.267-0.45-0.4-0.55
		c-1.133-0.2-2-0.384-2.6-0.55c-2.066-0.8-3.65-1.316-4.75-1.55c-3-0.667-6.517-1.801-10.55-3.4c-4.267-1.7-7.467-2.983-9.601-3.85
		c-3.733-1.5-6.883-2.9-9.449-4.2l-3.65-1.75H111.55z M135.6,51.15c-0.199,0.033-0.433,0.05-0.699,0.05h-0.051L134.8,51.1
		c-0.833,0.067-2.649-0.183-5.45-0.75c-2.3-0.433-4.066-0.399-5.3,0.101c-0.2,0.1-0.5,0.233-0.899,0.399
		c-0.367,0.167-0.634,0.384-0.801,0.65c-0.133,0.267-0.267,0.583-0.399,0.95c-0.134,0.3-0.351,0.566-0.65,0.8
		c-0.333,0.267-0.783,0.6-1.35,1c-0.5,0.333-0.9,0.717-1.2,1.15c0.134-2.167-0.15-4.167-0.85-6c-0.2-0.5-0.584-1-1.15-1.5
		c-0.667-0.601-1.1-1.034-1.3-1.301c-0.134-0.199-0.25-0.466-0.351-0.8c-0.166-0.5-0.267-0.8-0.3-0.899
		c-0.233-0.567-0.5-1.051-0.8-1.45c0.434,0.2,0.917,0.383,1.45,0.55c0.866,0.3,2.149,0.717,3.85,1.25c0.9,0.366,2.3,0.733,4.2,1.1
		c1.866,0.4,3.25,0.767,4.15,1.101c3.433,1.333,5.633,2.267,6.6,2.8C134.417,50.35,134.866,50.65,135.6,51.15z M71.1,40.35
		c1.033-0.433,1.917-0.699,2.65-0.8c3.667-0.566,6.483-0.85,8.45-0.85c1.233,0,3.25-0.033,6.05-0.101
		c2.467,0.101,4.367,0.65,5.7,1.65c0.333,0.233,0.6,0.533,0.8,0.9c-0.467-0.101-0.967-0.051-1.5,0.149
		c-0.9,0.334-1.533,0.917-1.9,1.75L91,43.25l-0.25,0.1c-1.067,0.667-1.733,1.567-2,2.7c-0.133,0.566-0.15,1.15-0.05,1.75
		c-0.233,0.467-0.367,0.834-0.4,1.101c-2.566-4.567-5.816-7.217-9.75-7.95C75.85,40.45,73.367,40.25,71.1,40.35z M109.05,41.9
		c0.4-0.301,0.851-0.551,1.351-0.75c0.166,0.066,0.316,0.149,0.449,0.25c0.167,0.1,0.4,0.283,0.7,0.55
		C110.65,41.75,109.816,41.733,109.05,41.9z M24.6,36.6c1.2,0.4,2.367,0.584,3.5,0.551c-0.1,0-0.15,0.066-0.15,0.199
		c1.867,1.233,4.133,2,6.8,2.301c0.733,0.1,1.733,0.1,3,0c1.067,0.033,1.967,0.35,2.7,0.949c0.533,0.467,1.316,1.2,2.35,2.2
		c0.5,0.5,1,0.917,1.5,1.25h-0.05c-1.333-0.399-2.1-0.616-2.3-0.649c-2.367-0.434-4.833-0.65-7.4-0.65c-1.167,0-2.25,0.233-3.25,0.7
		c-0.733,0.333-1.683,0.95-2.85,1.85l-1.35,0.95v-1.9c0.333-0.633,0.35-1.366,0.05-2.199C26.383,40.083,25.533,38.233,24.6,36.6z
		 M127.45,7.55c-0.5,0.633-1.15,1.55-1.95,2.75c-0.767,1.067-1.634,1.817-2.6,2.25c-1.9,0.833-4.367,1.417-7.4,1.75
		c-4.333,0.467-8.15,1.517-11.45,3.15c-0.8,0.4-1.983,1.183-3.55,2.35c-1.5,1.1-2.733,1.867-3.7,2.3c-0.933,0.4-2.3,1.05-4.1,1.95
		c-1.8,0.9-3.167,1.55-4.1,1.95c-1.733,0.8-3.033,1.383-3.9,1.75c-1.534,0.633-2.9,1.05-4.1,1.25c-1.667,0.267-4.283,0.367-7.85,0.3
		c0.433-0.233,1.183-0.383,2.25-0.45l9.75-4.25c0.767-0.434,1.767-1.233,3-2.4c0.9-0.867,1.917-2.434,3.05-4.7
		c1.1-2.267,2.1-3.833,3-4.7c0.967-0.966,2.5-1.683,4.6-2.15c3.167-0.767,4.85-1.183,5.05-1.25c1.533-0.6,3.183-1.667,4.95-3.2
		c0.8-0.7,1.283-1.083,1.449-1.15c0.634-0.233,1.601-0.316,2.9-0.25c0.7,0.034,1.684,0.1,2.95,0.2c1.434,0,3.583,0.1,6.45,0.3
		l1.949,0.8l0.101,0.05c0.1,0.067,0.2,0.133,0.3,0.2l0.05,0.05c0.934,0.567,1.684,0.917,2.25,1.05l0.65,0.05V7.55z M190.8,17v-0.45
		l0.2-0.05c0.1,0.033,0.217,0.067,0.35,0.1c0.134,0.066,0.267,0.133,0.4,0.2l-0.05,0.05L190.8,17z"/>
	<path style="fill-rule:evenodd;clip-rule:evenodd;fill:#ADB7C1;" d="M210.4,33.15c0.066,0.2,0.133,0.417,0.199,0.65
		c-0.399,1.167-0.733,2.601-1,4.3c-0.3,1.567-0.483,2.483-0.55,2.75c-0.3,0.967-0.75,1.717-1.35,2.25
		c-0.434,0.4-1.05,0.75-1.851,1.051c-1.133,0.466-1.8,0.75-2,0.85c-0.366,0.233-1.233,0.866-2.6,1.9c-1.066,0.833-2,1.416-2.8,1.75
		c-2.367,1.066-5.65,1.6-9.851,1.6c-0.733,0-1.649-0.033-2.75-0.1l-2.8-0.2c-0.267,0-1.2-0.134-2.8-0.4
		c-1.233-0.033-2.233-0.083-3-0.149c-1.434-0.101-2.384-0.351-2.85-0.75c3.133,0.133,5.75,0.05,7.85-0.25
		c1.733-0.267,4.267-0.817,7.6-1.65c2.4-0.467,3.733-0.717,4-0.75c1.5-0.366,2.801-0.816,3.9-1.35c0.8-0.4,1.616-1.067,2.45-2
		c0.934-1.101,1.649-1.9,2.149-2.4c0.834-0.833,1.384-1.4,1.65-1.7c0.5-0.633,0.884-1.3,1.15-2c0.267-1.1,0.483-1.966,0.649-2.6
		c0.3-1.167,0.684-1.9,1.15-2.2c0.3-0.2,0.717-0.35,1.25-0.45c0.7-0.133,1.149-0.25,1.35-0.35c0.167,0.333,0.334,0.767,0.5,1.3
		L210.4,33.15z M197.8,62.45c0.267,0.267,0.684,0.6,1.25,1c0.7,0.5,1.167,0.866,1.4,1.1c0.033-0.333,0.033-1.3,0-2.899
		c-0.033-1.2,0.05-2.184,0.25-2.95c0.733-3.167,3.25-5.767,7.55-7.8c1.233-0.601,2.033-1.051,2.4-1.351
		c0.767-0.566,1.216-1.267,1.35-2.1c0.167-1,0.333-1.684,0.5-2.05c0.434,0.8,0.783,1.616,1.05,2.449
		c0.3,0.934,0.483,1.967,0.55,3.101c0.067,1.366-0.1,2.383-0.5,3.05c-0.3,0.5-0.983,1-2.05,1.5c-1.233,0.566-2.033,1.017-2.399,1.35
		c-1.067,1.034-1.834,2.601-2.301,4.7c-0.233,1.167-0.6,2.917-1.1,5.25c-0.1,0.334-0.184,0.65-0.25,0.95
		c-0.066,0.134-0.316,0.25-0.75,0.35c-0.566,0.101-1.267-0.1-2.1-0.6c-0.733-0.4-1.284-0.85-1.65-1.35
		c-0.434-0.667-0.733-1.117-0.9-1.351c-0.267-0.366-0.666-0.717-1.199-1.05C198.533,63.517,198.167,63.083,197.8,62.45z
		 M159.4,59.75c0-0.033,0.017-0.05,0.05-0.05c0.399-0.334,0.85-0.7,1.35-1.101c1.566-1.233,3.667-1.8,6.3-1.699
		c1.5,0.033,3.767,0.116,6.801,0.25c0.533-0.034,1.616-0.217,3.25-0.551c1.333-0.3,2.416-0.433,3.25-0.399
		c1.899,0.033,4.649,0.517,8.25,1.45c-1.367,0.3-3.167,0.883-5.4,1.75c-1.9,0.767-3.75,1.566-5.55,2.399
		c-0.7,0.233-1.334,0.634-1.9,1.2c-0.533,0.233-1.267,0.35-2.2,0.35c-0.399,0.034-0.699,0.067-0.899,0.101
		c-0.434,0-0.75-0.033-0.95-0.101c-0.533-0.166-1.134-0.633-1.8-1.399c-0.767-0.934-1.3-1.5-1.601-1.7
		c-2.066-1.3-3.75-1.733-5.05-1.3c-0.866,0.366-1.517,0.6-1.95,0.7c-0.733,0.233-1.433,0.316-2.1,0.25L159.4,59.75z M191.95,16.95
		c0.533,0.367,1.05,0.966,1.55,1.8l0.6,1.35c0.067,0.133,0.134,0.25,0.2,0.35l0.5,0.7c0.134,0.167,0.283,0.333,0.45,0.5
		c-0.066,1.733-0.333,3.05-0.8,3.95s-1.15,1.783-2.05,2.65c-1,1-1.917,1.6-2.75,1.8c-1.567,0.2-2.65,0.367-3.25,0.5
		c-1,0.233-1.9,0.883-2.7,1.95c-0.2,0.267-0.5,0.833-0.9,1.7c-0.333,0.767-0.684,1.316-1.05,1.649c-0.366,0.334-0.85,0.634-1.45,0.9
		c-0.7,0.3-1.233,0.517-1.6,0.65c-1.033,0.399-2.733,0.6-5.101,0.6c-2.333,0.033-4.066,0.267-5.199,0.7
		c-0.733,0.267-1.733,0.983-3,2.149c-1.2,1.101-2.233,1.767-3.101,2c-0.934,0.267-2.149,0.4-3.649,0.4
		c-0.434,0-1.684-0.05-3.75-0.15c-0.601-0.033-1.5-0.133-2.7-0.3c-1.2-0.2-2.101-0.316-2.7-0.35
		c-1.467-0.033-2.583-0.066-3.35-0.101c-1.4-0.066-2.467-0.25-3.2-0.55c1.6,0.033,4.149,0.101,7.649,0.2
		c3.067,0.033,5.567-0.25,7.5-0.85c1.834-0.567,3.667-1.584,5.5-3.051c1.233-1.066,1.967-1.933,2.2-2.6
		c0.033-0.167,0.033-0.567,0-1.2c0-0.466,0.101-0.85,0.3-1.15c1.2,0.4,2.301,0.533,3.301,0.4c0.633-0.066,1.649-0.333,3.05-0.8
		c0.767-0.267,1.75-0.583,2.95-0.95c0.866-0.433,1.399-1.183,1.6-2.25c0.2-1.333,0.316-2.333,0.35-3
		c0.167-1.566,0.684-2.933,1.551-4.1c0.366-0.534,0.783-0.983,1.25-1.35c0.199-0.167,0.716-0.684,1.55-1.55
		c0.633-0.7,1.166-1.167,1.6-1.4c0.4-0.2,0.917-0.316,1.55-0.35c0.334,0,0.867-0.017,1.601-0.05c0.7-0.033,2.149-0.283,4.35-0.75
		l0.9-0.15l0.05-0.05c0.033,0,0.066,0.017,0.1,0.05L191.95,16.95z"/>
	
		<linearGradient id="SVGID_1_" gradientUnits="userSpaceOnUse" x1="36.6958" y1="-39.7026" x2="197.6244" y2="-39.7026" gradientTransform="matrix(0.9481 0.318 -0.318 0.9481 8.392334e-005 4.675984e-004)">
		<stop  offset="0" style="stop-color:#FFFFFF"/>
		<stop  offset="1" style="stop-color:#F4FAFA"/>
	</linearGradient>
	<path style="fill-rule:evenodd;clip-rule:evenodd;fill:url(#SVGID_1_);" d="M210.6,33.8c-0.066-0.233-0.133-0.45-0.199-0.65
		c0.233,0.633,0.383,1.05,0.449,1.25L210.6,33.8z M193.5,18.75c-0.5-0.833-1.017-1.433-1.55-1.8c0.2,0.1,0.383,0.233,0.55,0.4
		C192.833,17.65,193.167,18.117,193.5,18.75z M195.8,22.15c-0.2-0.167-0.383-0.333-0.55-0.5c-0.167-0.167-0.316-0.333-0.45-0.5
		C195.1,21.483,195.434,21.817,195.8,22.15z"/>
	<path style="fill-rule:evenodd;clip-rule:evenodd;fill:#E0E2E5;" d="M24.6,36.6c-0.467-0.133-0.95-0.316-1.45-0.55
		c-1.167-0.533-2.65-1.417-4.45-2.65c-1.3-0.867-2.217-1.566-2.75-2.1c-0.667-0.8-1.367-1.466-2.1-2
		c-0.767-0.566-1.733-1.05-2.9-1.45c-1.333-0.4-2.35-0.733-3.05-1c-1.033-0.367-2.066-0.667-3.1-0.9c0.767,0.1,1.617,0.2,2.55,0.3
		c3.1,0.333,5.483,0.867,7.15,1.6c0.967,0.433,2.183,1.25,3.65,2.45c1.667,1.367,2.833,2.25,3.5,2.65
		c3.133,1.933,6.217,3.35,9.25,4.25c3.133,0.934,6.467,1.399,10,1.399c1.9,0,4.767,0.017,8.6,0.051c1.667-0.034,3.767-0.267,6.3-0.7
		c3.767-0.634,5.867-0.983,6.3-1.05c4.433-0.567,9.65-0.917,15.65-1.051c0.967-0.033,6.217-0.1,15.75-0.199
		c1.533,0,4.017-0.067,7.45-0.2c3.133-0.066,5.65,0.05,7.55,0.35c0.866,0.134,1.884,0.434,3.05,0.9h-0.05l3.65,1.75
		c2.566,1.3,5.716,2.7,9.449,4.2c2.134,0.866,5.334,2.149,9.601,3.85c4.033,1.6,7.55,2.733,10.55,3.4
		c1.1,0.233,2.684,0.75,4.75,1.55c0.6,0.166,1.467,0.35,2.6,0.55c0.134,0.1,0.267,0.283,0.4,0.55c0.134,0.3,0.267,0.483,0.4,0.55
		c2.866,1.934,5.699,3.051,8.5,3.351c2.866,0.3,6.316,0.2,10.35-0.3c1.366-0.134,3.333-0.167,5.9-0.101
		c2.699,0.066,4.666,0.05,5.899-0.05c3.434-0.3,7.05-1.283,10.851-2.95c2.033-0.934,5.333-2.7,9.899-5.3
		c0.267-0.167,1.233-0.6,2.9-1.3c1.133-0.5,2.017-1.05,2.649-1.65c0.534-0.767,1-1.283,1.4-1.55c0.833-0.267,1.45-0.483,1.85-0.65
		c0.134-0.066,0.267-0.116,0.4-0.149c0.033,0.633-0.283,1.566-0.95,2.8c-0.033,0.033-0.05,0.083-0.05,0.15
		c-0.167,0.366-0.333,1.05-0.5,2.05c-0.134,0.833-0.583,1.533-1.35,2.1c-0.367,0.3-1.167,0.75-2.4,1.351
		c-4.3,2.033-6.816,4.633-7.55,7.8c-0.2,0.767-0.283,1.75-0.25,2.95c0.033,1.6,0.033,2.566,0,2.899c-0.233-0.233-0.7-0.6-1.4-1.1
		c-0.566-0.4-0.983-0.733-1.25-1c-0.033-0.033-0.066-0.066-0.1-0.101c-0.167-0.199-0.351-0.566-0.55-1.1
		c-0.2-0.566-0.367-0.917-0.5-1.05c-0.267-0.3-1.15-0.684-2.65-1.15l-4.95-1.3c-0.133-0.033-0.267-0.066-0.399-0.1
		c-3.601-0.934-6.351-1.417-8.25-1.45c-0.834-0.033-1.917,0.1-3.25,0.399c-1.634,0.334-2.717,0.517-3.25,0.551
		c-3.034-0.134-5.301-0.217-6.801-0.25c-2.633-0.101-4.733,0.466-6.3,1.699c-0.5,0.4-0.95,0.767-1.35,1.101
		c-0.033,0-0.05,0.017-0.05,0.05c-0.334,0.066-0.9-0.05-1.7-0.35c-1.834-0.934-3.25-1.601-4.25-2c-2.7-1.101-4.733-1.4-6.101-0.9
		c-0.6,0.233-1.017,0.7-1.25,1.4c-0.366,0.866-0.649,1.416-0.85,1.649c-0.167-0.166-0.6-0.45-1.3-0.85
		c-0.533-0.3-0.934-0.667-1.2-1.101c-0.2-0.366-0.35-0.8-0.45-1.3c-0.066-0.566-0.133-1-0.2-1.3
		c-0.166-0.967-0.649-1.583-1.449-1.85c-1.101-0.233-2.017-0.467-2.75-0.7c-0.534-0.167-1.15-0.5-1.851-1
		c-0.166-0.101-0.316-0.2-0.45-0.3c-0.733-0.5-1.183-0.801-1.35-0.9c-0.967-0.533-3.167-1.467-6.6-2.8
		c-0.9-0.334-2.284-0.7-4.15-1.101c-1.9-0.366-3.3-0.733-4.2-1.1c-1.7-0.533-2.983-0.95-3.85-1.25
		c-0.533-0.167-1.017-0.35-1.45-0.55c-0.866-0.4-1.583-0.816-2.15-1.25c-0.1-0.101-0.199-0.184-0.3-0.25
		c-0.3-0.267-0.533-0.45-0.7-0.55c-0.133-0.101-0.283-0.184-0.449-0.25c-0.5,0.199-0.95,0.449-1.351,0.75
		c-0.967,0.6-1.866,1.433-2.7,2.5c-1.333,1.767-2.383,3.933-3.15,6.5c-0.167,0.566-0.333,1.25-0.5,2.05
		c-0.2,0.399-0.65,0.316-1.35-0.25c-0.633-0.533-1.167-1.45-1.6-2.75c-0.467-1.4-0.917-2.334-1.35-2.8c-0.2-0.2-0.816-0.534-1.85-1
		c-0.7-0.334-1.117-0.834-1.25-1.5c-0.066-1.101-0.133-1.884-0.2-2.351c-0.067-0.434-0.184-0.816-0.35-1.149
		c-0.2-0.367-0.467-0.667-0.8-0.9c-1.333-1-3.233-1.55-5.7-1.65c-2.8,0.067-4.817,0.101-6.05,0.101c-1.967,0-4.784,0.283-8.45,0.85
		c-0.733,0.101-1.617,0.367-2.65,0.8c-0.167,0.034-0.317,0.084-0.45,0.15c-1.6,0.7-2.633,1.116-3.1,1.25
		c-1.5,0.167-2.566,0.4-3.2,0.7c-0.9,0.434-1.567,1.149-2,2.149c-0.5,1.134-0.417,2.084,0.25,2.851c-1.4,0.733-3.6,0.6-6.6-0.4
		c-1.967-0.767-3.467-1.25-4.5-1.45c-0.2-0.033-1.233-0.133-3.1-0.3c-1.233-0.1-2.233-0.316-3-0.649
		c-0.333-0.134-0.683-0.317-1.05-0.551c-0.033,0-0.05-0.017-0.05-0.05c-0.5-0.333-1-0.75-1.5-1.25c-1.033-1-1.816-1.733-2.35-2.2
		c-0.733-0.6-1.633-0.916-2.7-0.949c-1.267,0.1-2.267,0.1-3,0c-2.667-0.301-4.933-1.067-6.8-2.301c0-0.133,0.05-0.199,0.15-0.199
		C26.967,37.184,25.8,37,24.6,36.6z"/>
	
		<linearGradient id="SVGID_2_" gradientUnits="userSpaceOnUse" x1="36.6958" y1="-9.833" x2="197.6244" y2="-9.833" gradientTransform="matrix(0.9481 0.318 -0.318 0.9481 8.392334e-005 4.675984e-004)">
		<stop  offset="0" style="stop-color:#D2DFE8"/>
		<stop  offset="1" style="stop-color:#C7D3DB"/>
	</linearGradient>
	<path style="fill-rule:evenodd;clip-rule:evenodd;fill:url(#SVGID_2_);" d="M124.1,6.1l-1.949-0.8c-2.867-0.2-5.017-0.3-6.45-0.3
		c-1.267-0.1-2.25-0.167-2.95-0.2c-1.3-0.066-2.267,0.017-2.9,0.25C109.684,5.117,109.2,5.5,108.4,6.2
		c-1.767,1.533-3.417,2.6-4.95,3.2c-0.2,0.067-1.883,0.483-5.05,1.25c-2.1,0.467-3.633,1.184-4.6,2.15c-0.9,0.867-1.9,2.434-3,4.7
		c-1.133,2.267-2.15,3.833-3.05,4.7c-1.233,1.167-2.233,1.966-3,2.4L75,28.85c-1.067,0.066-1.817,0.217-2.25,0.45
		c3.567,0.067,6.183-0.033,7.85-0.3c1.2-0.2,2.566-0.617,4.1-1.25c0.867-0.367,2.167-0.95,3.9-1.75c0.933-0.4,2.3-1.05,4.1-1.95
		c1.8-0.9,3.167-1.55,4.1-1.95c0.967-0.434,2.2-1.2,3.7-2.3c1.567-1.167,2.75-1.95,3.55-2.35c3.3-1.633,7.117-2.684,11.45-3.15
		c3.033-0.333,5.5-0.917,7.4-1.75c0.966-0.433,1.833-1.183,2.6-2.25c0.8-1.2,1.45-2.117,1.95-2.75c0.366,0,0.833-0.017,1.399-0.05
		c0.934-0.067,1.617-0.067,2.051,0c2.733,0.4,4.666,0.633,5.8,0.7c1.233,0.1,3.083,0.183,5.55,0.25c2.134,0.133,3.934,0.433,5.4,0.9
		c0.833,0.3,1.949,0.55,3.35,0.75c2.066,0.267,3.233,0.433,3.5,0.5c0.566,0.1,4.566,1.033,12,2.8c4.866,1.133,8.917,1.767,12.15,1.9
		c0.966,0.034,2.35,0.167,4.149,0.4c1.9,0.267,3.283,0.417,4.15,0.45c0.366,0,0.883-0.017,1.55-0.05c0.634,0,1.15,0.033,1.55,0.1
		c0.467,0.1,0.9,0.233,1.3,0.4c-0.133-0.033-0.25-0.067-0.35-0.1l-0.2,0.05V17c-2.2,0.467-3.649,0.717-4.35,0.75
		c-0.733,0.033-1.267,0.05-1.601,0.05c-0.633,0.034-1.149,0.15-1.55,0.35c-0.434,0.233-0.967,0.7-1.6,1.4
		c-0.834,0.867-1.351,1.383-1.55,1.55c-0.467,0.367-0.884,0.816-1.25,1.35c-1.034-0.233-2.634-0.65-4.801-1.25
		c-2.1-0.6-3.699-1.034-4.8-1.3c-2.833-0.667-5.583-1-8.25-1c-2.166,0-4.95,0.233-8.35,0.7c-2.601,0.433-4.533,0.733-5.8,0.9
		c-2.233,0.3-4.184,0.433-5.851,0.4c5.533,2.3,9.783,4.483,12.75,6.55c0.5,0.367,1.533,1.167,3.101,2.4
		c1.3,1.033,2.35,1.8,3.149,2.3c0.3,0.2,0.7,0.417,1.2,0.65c0.434,0.233,0.717,0.55,0.85,0.95c0.367,1-0.066,1.934-1.3,2.8
		c-2,1.4-4.583,2.316-7.75,2.75c-1.833,0.233-4.666,0.351-8.5,0.351c-1.133-0.034-1.983-0.051-2.55-0.051
		c-0.967,0-1.8,0.084-2.5,0.25c-1.9,0.601-3.333,0.95-4.3,1.051c-1.233,0.1-2.434-0.067-3.601-0.5c-1.333-0.601-2.433-1.067-3.3-1.4
		c-0.033,0-0.45-0.066-1.25-0.2c-0.566-0.066-0.934-0.217-1.1-0.45c-0.267-0.366-0.3-0.949-0.101-1.75
		c0.167-0.6,0.384-1.149,0.65-1.649c0.4-0.667,1.366-1.6,2.9-2.8c1.3-1.033,2.1-2.133,2.399-3.3c-1,0.233-2.233,0.633-3.7,1.2
		c-1.633,0.7-2.85,1.2-3.649,1.5c-0.667,0.267-1.684,0.583-3.05,0.95c-1.4,0.367-2.434,0.667-3.101,0.9
		c-0.7,0.267-1.833,0.85-3.399,1.75c-1.334,0.8-2.45,1.316-3.351,1.55c-1.166-0.467-2.184-0.767-3.05-0.9
		c-1.9-0.3-4.417-0.416-7.55-0.35c-3.434,0.133-5.917,0.2-7.45,0.2c-9.533,0.1-14.783,0.166-15.75,0.199
		c-6,0.134-11.217,0.483-15.65,1.051c-0.434,0.066-2.533,0.416-6.3,1.05c-2.533,0.434-4.633,0.666-6.3,0.7
		c-3.833-0.034-6.7-0.051-8.6-0.051c-3.533,0-6.867-0.466-10-1.399c-3.033-0.9-6.117-2.317-9.25-4.25
		c-0.667-0.4-1.833-1.284-3.5-2.65c-1.467-1.2-2.683-2.017-3.65-2.45c-1.667-0.733-4.05-1.267-7.15-1.6
		c-0.934-0.1-1.783-0.2-2.55-0.3c-2.466-0.3-4.066-0.534-4.8-0.7c-0.033-0.067,0.017-0.133,0.15-0.2c1.3-2.466,2.333-4.316,3.1-5.55
		c1.4-2.2,2.917-3.767,4.55-4.7c2.3-1.3,4.383-2.216,6.25-2.75c1.467-0.4,3.034-1.233,4.7-2.5c0.167-0.1,1.55-1.233,4.15-3.4
		c1.934-1.6,3.383-2.75,4.35-3.45c1.9-1.3,3.5-2.1,4.8-2.4C33.283,0.033,35-0.05,37.2,0.05c1.233,0.034,2.966,0.117,5.2,0.25
		c0.934,0.034,2.333,0.117,4.2,0.25s3.267,0.2,4.2,0.2h34.05c0.467,0,2.117,0.083,4.95,0.25c2.6,0.033,3.983-0.183,4.15-0.65
		l8.3,0.4c1.967,0,4.267,0.233,6.9,0.7c0.633,0.133,1.8,0.283,3.5,0.45c1.433,0.133,2.566,0.333,3.399,0.6
		c1.934,0.633,3.733,1.317,5.4,2.05C121.884,4.75,122.767,5.267,124.1,6.1z"/>
</g>
</svg>
