<?xml version="1.0" encoding="iso-8859-1"?>
<!-- Generator: Adobe Illustrator 15.1.0, SVG Export Plug-In . SVG Version: 6.00 Build 0)  -->
<!DOCTYPE svg PUBLIC "-//W3C//DTD SVG 1.1//EN" "http://www.w3.org/Graphics/SVG/1.1/DTD/svg11.dtd">
<svg version="1.1" id="Layer_1" xmlns="http://www.w3.org/2000/svg" xmlns:xlink="http://www.w3.org/1999/xlink" x="0px" y="0px"
	 width="237px" height="100.85px" viewBox="0 0 237 100.85" style="enable-background:new 0 0 237 100.85;" xml:space="preserve">
<g>
	
		<linearGradient id="SVGID_1_" gradientUnits="userSpaceOnUse" x1="93.3188" y1="-79.9521" x2="178.5695" y2="-79.9521" gradientTransform="matrix(0.7173 0.6968 -0.6968 0.7173 2.060533e-004 -4.879236e-004)">
		<stop  offset="0" style="stop-color:#FFFFFF"/>
		<stop  offset="1" style="stop-color:#F4FAFA"/>
	</linearGradient>
	<path style="fill-rule:evenodd;clip-rule:evenodd;fill:url(#SVGID_1_);" d="M181.7,32.45c-1.533-1.333-3.167-3.367-4.9-6.1
		c-1.3-1.967-2.399-3.517-3.3-4.65c0.6,0.667,1.167,1.4,1.7,2.2C178.333,28.433,180.5,31.283,181.7,32.45z M155.3,73.8
		c-0.899-0.866-1.899-1.517-3-1.95c0.566,0.2,1.084,0.45,1.55,0.75C154.316,72.9,154.8,73.3,155.3,73.8z"/>
	<path style="fill-rule:evenodd;clip-rule:evenodd;fill:#B7BFCA;" d="M181.7,32.45c0.033,0.033,0.066,0.066,0.1,0.1
		c-0.434,0.833-1.2,2.1-2.3,3.8c-0.833,1.533-1.2,2.833-1.1,3.9l2.449,0.65c-1.166-0.267-1.85,0.1-2.05,1.1
		c-4.566,0.767-10.283,1.183-17.149,1.25l-4.15,0.05l0.1-1.1c0.167-0.034,0.784-0.034,1.851,0c0.833,0.033,1.45-0.05,1.85-0.25
		c0.467-0.2,0.917-0.733,1.351-1.6c0.433-0.934,0.816-1.533,1.149-1.8c0.367-0.3,1.184-0.6,2.45-0.9
		c1.066-0.267,1.816-0.683,2.25-1.25c0.434-0.533,0.65-1.283,0.65-2.25c-0.067-1.133-0.101-1.95-0.101-2.45l-0.6-1.15
		c-1.267,2.333-3.851,4.284-7.75,5.85c-3,1.2-6.2,1.983-9.601,2.35c-11.666,1.4-23.649,1.733-35.95,1c8.8,1.5,15.833,2.467,21.1,2.9
		c1.333,0.1,3.517,0.167,6.55,0.2c2.8,0.1,4.967,0.367,6.5,0.8l1.95,0.7l-0.1,0.05c-2.267,0.8-3.45,1.217-3.551,1.25
		c-1.566,0.7-2.517,1.417-2.85,2.15c-0.5,1.233,0,2.817,1.5,4.75c0.533,0.667,1.783,1.95,3.75,3.851
		c1.434,1.399,3.75,2.833,6.95,4.3c0.767,0.366,1.733,1.066,2.899,2.1c1.101,0.967,2,1.617,2.7,1.95
		c0.967,0.434,2.417,0.65,4.351,0.65c1.066,0,2.533-0.067,4.399-0.2c0.101,0,1.084-0.167,2.95-0.5c1.434-0.267,2.4-0.283,2.9-0.05
		c0.533,0.233,1.083,0.833,1.649,1.8c0.667,1.133,1.117,1.816,1.351,2.05c0.5,0.533,1.25,1.116,2.25,1.75
		c-3.467-0.167-6.051-0.283-7.75-0.35c-3.034-0.134-5.617-0.184-7.75-0.15c-1.434,0-3.45,0.434-6.051,1.3
		c-1.199,0.434-2.283,0.717-3.25,0.851c-0.899,0.133-2.083,0.199-3.55,0.199l-0.2,0.5c-0.466-0.3-0.983-0.55-1.55-0.75
		c-1.1-0.399-2.767-0.649-5-0.75l-0.2,0.4c-0.6,0.866-1.199,2.184-1.8,3.95c-0.434,1.267-0.816,2.3-1.149,3.1
		c-1.067-0.166-1.867-0.583-2.4-1.25c-0.233-0.333-0.483-0.899-0.75-1.7c-0.3-0.866-0.566-1.466-0.8-1.8
		c-0.434-0.633-0.934-1.116-1.5-1.45c-0.7-0.333-1.3-0.649-1.8-0.949c-1.601-0.9-3.217-1.634-4.851-2.2
		c0.634-0.101,1.2-0.25,1.7-0.45c0.6-0.267,1.217-0.667,1.85-1.2c-0.566-0.366-1.166-0.767-1.8-1.2
		c-3.1-2.066-5.316-3.416-6.649-4.05c-3.567-1.733-7.551-4.184-11.95-7.35c-4.934-3.767-8.717-6.583-11.35-8.45
		c-1.467-1.067-3.483-2.15-6.05-3.25c-4.066-1.8-6.167-2.733-6.3-2.8c-1.767-0.867-3.817-1.383-6.15-1.55c-0.067,0-2.25,0-6.55,0
		c-9.433,0.367-16.583,0.567-21.45,0.6c-8.6,0.067-15.6-0.7-21-2.3l-5-1.7c-0.3-0.133-0.617-0.267-0.95-0.4l0.2,0.05l1,0.2
		c2.033,0.433,4.816,0.683,8.35,0.75c4.5,0.066,7.316,0.15,8.45,0.25c1.434,0.1,3.617,0.083,6.55-0.05c0.833,0,2.483,0.133,4.95,0.4
		c2.3,0.167,3.9,0.017,4.8-0.45c0.367-0.167,0.966-0.6,1.8-1.3c0.633-0.5,1.317-0.833,2.05-1c0.833-0.133,2.233-0.117,4.2,0.05h13.2
		c1.633,0,4.066-0.017,7.3-0.05c2.8,0.066,5.15,0.466,7.05,1.2c3.934,1.467,8.617,2.133,14.05,2c3.1-0.1,7.867-0.383,14.3-0.85
		c2.8-0.033,6.949-0.017,12.449,0.05c4.733-0.167,8.75-0.983,12.051-2.45c5.233-2.233,9.949-4.7,14.149-7.4
		c0.2-0.133,0.7-0.367,1.5-0.7c0.7-0.267,1.167-0.517,1.4-0.75c0.967-0.9,1.7-2.4,2.2-4.5c0-0.033,0-0.066,0-0.1
		c0.333,0.333,0.699,0.75,1.1,1.25c0.9,1.133,2,2.683,3.3,4.65C178.533,29.083,180.167,31.117,181.7,32.45z M15.05,27.75l-3.9-1.9
		c-1.3-0.533-2.283-0.967-2.95-1.3c-0.467-0.2-0.883-0.417-1.25-0.65L6.9,23.85c-0.5-0.333-0.933-0.7-1.3-1.1l1.9-0.25
		c0.067,0.733,1.067,1.65,3,2.75c1.033,0.567,2.283,1.217,3.75,1.95L15.05,27.75z M213.75,60.2c1.9,1.533,3.917,3.149,6.05,4.85
		c0.533,0.434,1.417,1.267,2.65,2.5c1.1,1.066,2.017,1.851,2.75,2.351c0.399,0.267,1.233,0.683,2.5,1.25
		c1.1,0.5,1.934,0.983,2.5,1.449c1,0.9,1.8,1.801,2.399,2.7c0.334,0.467,0.601,0.95,0.801,1.45c0.767,1.833,0.566,3.45-0.601,4.85
		c-1.934,2.367-5.649,3.983-11.149,4.851c-6.2,0.533-10.334,0.899-12.4,1.1c-4.5,0.467-8.95,0.4-13.35-0.2L193.05,86.9
		c-0.767-0.101-1.333-0.2-1.7-0.301c-0.267-0.066-0.533-0.149-0.8-0.25c-0.467-0.166-0.934-0.366-1.399-0.6l-0.601-0.3
		c-0.2-0.134-0.399-0.267-0.6-0.4H188c3.233-0.233,7.533-0.316,12.9-0.25c4.5,0,8.5-1.149,12-3.45c2.1-1.366,3.633-2.633,4.6-3.8
		c1.434-1.733,1.967-3.5,1.6-5.3c-0.533,0.4-1.216,1.184-2.05,2.35c-0.7,0.967-1.533,1.65-2.5,2.051c-3.467,1.5-5.95,2.433-7.45,2.8
		c-2.233,0.566-5.199,0.649-8.899,0.25c-5.233-0.533-8.2-0.8-8.9-0.8c-0.3-1.4-0.133-2.384,0.5-2.95
		c0.467-0.367,1.483-0.733,3.05-1.101c2.5-0.566,4.167-1,5-1.3c2.567-0.866,4.067-1.866,4.5-3c3.233-1.333,5.817-3.149,7.75-5.45
		c0.4-0.466,1-1.3,1.801-2.5C212.634,61.5,213.25,60.7,213.75,60.2z M114.05,67.4c1.2-1,3.35-1.2,6.45-0.601
		c0.9,0.167,1.917,0.417,3.05,0.75c-1.066-0.033-2.467-0.033-4.2,0C117.117,67.616,115.35,67.566,114.05,67.4z M108,64.5
		c-1.2-1-2.2-1.75-3-2.25c-1.167-0.767-2.583-1.184-4.25-1.25c-1.6-0.066-3.05,0.2-4.35,0.8c-0.833,0.4-1.45,0.851-1.85,1.351
		c-0.4,0.466-0.716,1.133-0.95,2c-0.1,0.399-0.15,0.983-0.15,1.75c-0.067,0.6-0.4,0.966-1,1.1c-1.5-2.3-2.4-3.833-2.7-4.6
		c-0.667-1.567-0.817-3.284-0.45-5.15c0.333-1.3,0.567-2.333,0.7-3.1c0.1-0.5,0.167-0.934,0.2-1.301
		c-0.467,0.233-1.017,0.367-1.65,0.4c-0.9-0.033-1.6-0.05-2.1-0.05c-2.333,0-4.133-0.3-5.4-0.9c-0.867-0.366-1.95-1.1-3.25-2.2
		c-0.6,0.034-1.3,0.017-2.1-0.05c-1.934-0.2-3.467-0.65-4.6-1.35c-0.1-0.1-0.217-0.217-0.35-0.35c0.567-0.4,1.183-0.667,1.85-0.8
		c0.633-0.133,1.967-0.167,4-0.1c3.5,0.066,6.617,0.433,9.35,1.1c0.367,0.067,0.85,0.233,1.45,0.5c0.567,0.267,1.083,0.434,1.55,0.5
		c0.9,0.1,1.933-0.05,3.1-0.45c1.733-0.633,2.7-0.967,2.9-1c0.867-0.167,1.85-0.233,2.95-0.2c-1.5,1.4-2.633,3.433-3.4,6.1
		c-0.8,2.767-1.167,5.8-1.1,9.1c0.067-0.866,0.434-1.633,1.1-2.3c0.633-0.666,1.683-1.283,3.15-1.85
		c2.133-0.834,5.167-1.733,9.1-2.7c1.467-0.333,2.767-0.65,3.9-0.95c0.1,0.033,0.184,0.066,0.25,0.101c0.8,0.5,1.133,1.116,1,1.85
		c-0.066,0.366-0.517,0.85-1.35,1.45c-0.966,0.666-1.517,1.133-1.65,1.399C108.4,62,108.1,63.134,108,64.5z M152.4,79
		c-0.601-0.3-1.034-0.483-1.301-0.55c0.233-0.066,0.45-0.066,0.65,0S152.167,78.7,152.4,79z M65.65,45.65
		c0.167,0.3,0.283,0.617,0.35,0.95c0.133,0.5,0.2,1.066,0.2,1.7c-0.434,1.633-0.95,3.05-1.55,4.25c-0.4,0.767-0.983,1.767-1.75,3
		c-0.6,1.033-0.983,2.066-1.15,3.101c-0.067,0.466-0.017,2.199,0.15,5.199c-0.066,2.601-0.85,3.584-2.35,2.95
		c-0.133-0.5-0.267-1.35-0.4-2.55c-0.1-1.134-0.233-1.983-0.4-2.55c-0.233-0.8-0.7-1.533-1.4-2.2c-0.833-0.7-1.483-1.3-1.95-1.8
		c-0.9-1.101-1.583-1.9-2.05-2.4c-0.767-0.866-1.567-1.434-2.4-1.7c-1.034-0.166-1.7-0.283-2-0.35c-0.434-0.1-0.934-0.55-1.5-1.35
		c-0.267-0.367-0.65-1.134-1.15-2.3c-0.433-0.934-0.9-1.65-1.4-2.15c-0.433-0.434-1.1-1.017-2-1.75
		c-1.033-0.867-1.717-1.45-2.05-1.75c-0.5-0.467-2.333-1.85-5.5-4.15c-1.1-0.633-2.1-1.2-3-1.7c0.367,0.1,0.75,0.233,1.15,0.4
		c0.767,0.3,1.6,0.483,2.5,0.55c0.567,0.067,1.45,0.117,2.65,0.15c1.333,0.1,3.4,0.4,6.2,0.9c2.733,0.467,4.833,0.75,6.3,0.85
		c0.434,0.033,0.867,0.066,1.3,0.1c2.533,1.267,4.533,2.55,6,3.85c1.333,1.233,2.2,3.067,2.6,5.5c0.267,1.4,0.534,3.433,0.8,6.1
		c0.267-0.233,0.467-0.566,0.6-1c0.1-0.5,0.2-0.9,0.3-1.2c0.667-2.3,1.183-4,1.55-5.1C64.733,47.9,65.183,46.717,65.65,45.65z"/>
	
		<linearGradient id="SVGID_2_" gradientUnits="userSpaceOnUse" x1="93.3188" y1="-46.668" x2="178.5695" y2="-46.668" gradientTransform="matrix(0.7173 0.6968 -0.6968 0.7173 2.060533e-004 -4.879236e-004)">
		<stop  offset="0" style="stop-color:#D2DFE8"/>
		<stop  offset="1" style="stop-color:#C7D3DB"/>
	</linearGradient>
	<path style="fill-rule:evenodd;clip-rule:evenodd;fill:url(#SVGID_2_);" d="M30.6,35.15c-2.167-0.867-4.5-1.917-7-3.15
		c-3.333-1.667-6.15-3.067-8.45-4.2c-0.033-0.033-0.066-0.05-0.1-0.05l-0.8-0.55c-1.467-0.733-2.717-1.383-3.75-1.95
		c-1.933-1.1-2.933-2.017-3-2.75l-1.9,0.25c-0.667-0.767-1.033-1.667-1.1-2.7c-0.033-0.933,0.117-1.667,0.45-2.2
		c0.133-0.2,0.283-0.383,0.45-0.55c1-0.633,1.817-1.216,2.45-1.75c1.667-1.333,3.95-2.617,6.85-3.85c1.667-0.7,4.2-1.667,7.6-2.9
		c5.567-2.133,10.55-3.566,14.95-4.3c3.6-0.6,8.25-0.817,13.95-0.65c3.2,0.1,7.883,0.25,14.05,0.45c1.233,0,3.883-0.617,7.95-1.85
		c4.4-1.3,8.85-2.117,13.35-2.45l13.85,2.6l12.45-0.05c4.967-0.033,9.1-0.017,12.4,0.05c2.467,0.033,5.05,0.483,7.75,1.35
		c1.6,0.5,4.066,1.4,7.4,2.7c1.366,0.5,3.483,1.567,6.35,3.2c2.5,1.467,4.65,2.433,6.45,2.9c1.767,0.467,4.083,1.2,6.95,2.2
		c3.466,1.233,5.75,2.017,6.85,2.35c1.934,0.567,3.733,1.65,5.4,3.25c-0.5,2.1-1.233,3.6-2.2,4.5c-0.233,0.233-0.7,0.483-1.4,0.75
		c-0.8,0.333-1.3,0.567-1.5,0.7c-4.2,2.7-8.916,5.167-14.149,7.4c-3.301,1.467-7.317,2.283-12.051,2.45
		c-5.5-0.067-9.649-0.083-12.449-0.05c-6.434,0.467-11.2,0.75-14.3,0.85c-5.434,0.133-10.117-0.533-14.05-2
		c-1.9-0.733-4.25-1.133-7.05-1.2c-3.233,0.033-5.667,0.05-7.3,0.05h-13.2c-1.967-0.167-3.367-0.183-4.2-0.05
		c-0.733,0.167-1.417,0.5-2.05,1c-0.833,0.7-1.433,1.133-1.8,1.3c-0.9,0.467-2.5,0.617-4.8,0.45c-2.467-0.267-4.117-0.4-4.95-0.4
		c-2.934,0.133-5.117,0.15-6.55,0.05c-1.133-0.1-3.95-0.184-8.45-0.25c-3.534-0.067-6.317-0.317-8.35-0.75L30.6,35.15z
		 M151.25,44.35c2.333,1.133,3.85,2.683,4.55,4.65c0.233,0.667,0.434,1.35,0.601,2.05c0.199,0.533,0.716,1.066,1.55,1.601
		c1.533,0.933,2.899,1.233,4.1,0.899c0.3-0.8-0.033-1.75-1-2.85c-1.166-1.1-1.916-1.9-2.25-2.4c-0.967-1.533-1.399-3.2-1.3-5
		l4.15-0.05c6.866-0.067,12.583-0.483,17.149-1.25c0.2-1,0.884-1.367,2.05-1.1l-2.449-0.65c-0.101-1.067,0.267-2.367,1.1-3.9
		c1.1-1.7,1.866-2.967,2.3-3.8c0.033,0.034,0.066,0.067,0.101,0.1c1.333,1.167,4.149,3.817,8.449,7.95
		c3.534,3.4,6.4,5.983,8.601,7.75c3.666,2.9,8.6,6.85,14.8,11.85c-0.5,0.5-1.116,1.3-1.85,2.399c-0.801,1.2-1.4,2.034-1.801,2.5
		c-1.933,2.301-4.517,4.117-7.75,5.45c0.167-0.434,0.184-0.85,0.051-1.25c-1.467-0.2-3.4-0.083-5.801,0.351
		c-2.899,0.466-4.85,0.716-5.85,0.75c-2.767,0.066-5.55,0.017-8.35-0.15c-1-0.634-1.75-1.217-2.25-1.75
		c-0.233-0.233-0.684-0.917-1.351-2.05c-0.566-0.967-1.116-1.566-1.649-1.8c-0.5-0.233-1.467-0.217-2.9,0.05
		c-1.866,0.333-2.85,0.5-2.95,0.5c-1.866,0.133-3.333,0.2-4.399,0.2c-1.934,0-3.384-0.217-4.351-0.65c-0.7-0.333-1.6-0.983-2.7-1.95
		c-1.166-1.033-2.133-1.733-2.899-2.1c-3.2-1.467-5.517-2.9-6.95-4.3c-1.967-1.9-3.217-3.184-3.75-3.851
		c-1.5-1.933-2-3.517-1.5-4.75c0.333-0.733,1.283-1.45,2.85-2.15c0.101-0.033,1.284-0.45,3.551-1.25L151.25,44.35z"/>
	<path style="fill-rule:evenodd;clip-rule:evenodd;fill:#ADB7C1;" d="M155.3,73.8c-0.5-0.5-0.983-0.899-1.45-1.2l0.2-0.5
		c1.467,0,2.65-0.066,3.55-0.199c0.967-0.134,2.051-0.417,3.25-0.851c2.601-0.866,4.617-1.3,6.051-1.3
		c2.133-0.033,4.716,0.017,7.75,0.15c1.699,0.066,4.283,0.183,7.75,0.35c2.8,0.167,5.583,0.217,8.35,0.15
		c1-0.034,2.95-0.284,5.85-0.75c2.4-0.434,4.334-0.551,5.801-0.351c0.133,0.4,0.116,0.816-0.051,1.25
		c-0.433,1.134-1.933,2.134-4.5,3c-0.833,0.3-2.5,0.733-5,1.3c-1.566,0.367-2.583,0.733-3.05,1.101c-0.633,0.566-0.8,1.55-0.5,2.95
		c0.7,0,3.667,0.267,8.9,0.8c3.7,0.399,6.666,0.316,8.899-0.25c1.5-0.367,3.983-1.3,7.45-2.8c0.967-0.4,1.8-1.084,2.5-2.051
		c0.834-1.166,1.517-1.949,2.05-2.35c0.367,1.8-0.166,3.566-1.6,5.3c-0.967,1.167-2.5,2.434-4.6,3.8c-3.5,2.301-7.5,3.45-12,3.45
		c-5.367-0.066-9.667,0.017-12.9,0.25h-0.05c-0.101-0.066-0.217-0.133-0.351-0.2l-0.8-0.55c-0.267-0.2-0.533-0.399-0.8-0.6
		c-1.134-1.033-1.917-1.667-2.35-1.9c-0.534-0.3-1.634-0.467-3.301-0.5c-5.1,0.3-8.916,0.4-11.449,0.3
		c-4.4-0.133-7.733-1.333-10-3.6c-1.167-1.366-2.051-2.4-2.65-3.1c-0.033-0.067-0.066-0.117-0.1-0.15
		c-0.067-0.066-0.117-0.116-0.15-0.15c-0.033-0.033-0.066-0.066-0.1-0.1c-0.034-0.066-0.067-0.116-0.101-0.15L155.3,73.8z
		 M157.5,43.3c-0.1,1.8,0.333,3.467,1.3,5c0.334,0.5,1.084,1.3,2.25,2.4c0.967,1.1,1.3,2.05,1,2.85
		c-1.2,0.334-2.566,0.033-4.1-0.899c-0.834-0.534-1.351-1.067-1.55-1.601c-0.167-0.7-0.367-1.383-0.601-2.05
		c-0.7-1.967-2.217-3.517-4.55-4.65l-1.95-0.7c-1.533-0.433-3.7-0.7-6.5-0.8c-3.033-0.033-5.217-0.1-6.55-0.2
		c-5.267-0.433-12.3-1.4-21.1-2.9c12.3,0.733,24.284,0.4,35.95-1c3.4-0.367,6.601-1.15,9.601-2.35
		c3.899-1.566,6.483-3.517,7.75-5.85l0.6,1.15c0,0.5,0.033,1.316,0.101,2.45c0,0.967-0.217,1.717-0.65,2.25
		c-0.434,0.567-1.184,0.983-2.25,1.25c-1.267,0.3-2.083,0.6-2.45,0.9c-0.333,0.267-0.717,0.867-1.149,1.8
		c-0.434,0.867-0.884,1.4-1.351,1.6c-0.399,0.2-1.017,0.283-1.85,0.25c-1.066-0.034-1.684-0.034-1.851,0L157.5,43.3z M110.65,56.3
		c-1.133,0.3-2.433,0.617-3.9,0.95c-3.933,0.967-6.967,1.866-9.1,2.7c-1.467,0.566-2.517,1.184-3.15,1.85
		c-0.667,0.667-1.033,1.434-1.1,2.3c-0.066-3.3,0.3-6.333,1.1-9.1c0.767-2.667,1.9-4.7,3.4-6.1c1.1,0.067,2.3,0.233,3.6,0.5
		c1.667,0.4,3.117,1.2,4.35,2.4c0.733,0.7,1.783,1.851,3.15,3.45C109.267,55.517,109.817,55.866,110.65,56.3z M52.45,41.05
		c2.367,0.167,3.933,0.3,4.7,0.4c2.333,0.333,4.267,0.883,5.8,1.65c1.3,0.633,2.2,1.483,2.7,2.55c-0.467,1.067-0.917,2.25-1.35,3.55
		c-0.367,1.1-0.883,2.8-1.55,5.1c-0.1,0.3-0.2,0.7-0.3,1.2c-0.133,0.434-0.333,0.767-0.6,1c-0.267-2.667-0.533-4.7-0.8-6.1
		c-0.4-2.433-1.267-4.267-2.6-5.5C56.983,43.6,54.983,42.317,52.45,41.05z"/>
	<path style="fill-rule:evenodd;clip-rule:evenodd;fill:#E0E2E5;" d="M70.75,49.35c-0.5,0.367-0.95,0.85-1.35,1.45
		c-1.033,1.5-1.617,3.184-1.75,5.05c-0.1,1.267,0.033,3.017,0.4,5.25c-1.733-0.399-2.7-1.8-2.9-4.199
		c-0.133-1.601,0.067-3.467,0.6-5.601c0.3-1.133,0.45-2.133,0.45-3c0-0.633-0.067-1.2-0.2-1.7c-0.067-0.333-0.183-0.65-0.35-0.95
		c-0.5-1.066-1.4-1.917-2.7-2.55c-1.534-0.767-3.467-1.317-5.8-1.65c-0.767-0.1-2.333-0.233-4.7-0.4
		c-0.434-0.033-0.867-0.066-1.3-0.1c-1.467-0.1-3.566-0.383-6.3-0.85c-2.8-0.5-4.867-0.8-6.2-0.9c-1.2-0.034-2.083-0.083-2.65-0.15
		c-0.9-0.066-1.733-0.25-2.5-0.55c-0.4-0.167-0.783-0.3-1.15-0.4c-1.833-0.7-3-1.1-3.5-1.2s-2.467-0.35-5.9-0.75
		c-2.367-0.3-4.3-0.867-5.8-1.7c-0.733-0.4-1.667-0.784-2.8-1.15c-1.333-0.433-2.267-0.767-2.8-1c-0.767-0.333-1.5-0.867-2.2-1.6
		c-0.2-0.2-0.783-0.867-1.75-2c-1.367-1.5-2.067-2.267-2.1-2.3c-0.6-0.333-1.367,0.033-2.3,1.1c-0.6,0.7-1.2,1.733-1.8,3.1
		c-0.833,2-1.3,3.083-1.4,3.25c0.067-1.9,0.117-3.333,0.15-4.3c0.067-1.633,0.217-3.033,0.45-4.2c0.867-4.267,2.217-6.767,4.05-7.5
		h0.3c-0.333,0.533-0.483,1.267-0.45,2.2c0.067,1.034,0.433,1.934,1.1,2.7c0.367,0.4,0.8,0.767,1.3,1.1l0.05,0.05
		c0.367,0.233,0.783,0.45,1.25,0.65c0.667,0.333,1.65,0.767,2.95,1.3l3.9,1.9c0.034,0,0.067,0.017,0.1,0.05
		c2.3,1.133,5.117,2.534,8.45,4.2c2.5,1.233,4.833,2.283,7,3.15l-0.2-0.05c0.333,0.133,0.65,0.267,0.95,0.4l5,1.7
		c5.4,1.6,12.4,2.367,21,2.3c4.867-0.033,12.017-0.233,21.45-0.6c4.3,0,6.483,0,6.55,0c2.333,0.167,4.383,0.684,6.15,1.55
		c0.133,0.066,2.233,1,6.3,2.8c2.567,1.1,4.583,2.183,6.05,3.25c2.633,1.867,6.417,4.684,11.35,8.45
		c4.399,3.166,8.383,5.616,11.95,7.35c1.333,0.634,3.55,1.983,6.649,4.05c0.634,0.434,1.233,0.834,1.8,1.2
		c-0.633,0.533-1.25,0.934-1.85,1.2c-0.5,0.2-1.066,0.35-1.7,0.45c-1.333,0.133-2.95-0.05-4.85-0.55
		c-1.334-0.434-2.55-0.801-3.65-1.101c-1.133-0.333-2.149-0.583-3.05-0.75c-3.1-0.6-5.25-0.399-6.45,0.601
		c-0.1,0.066-0.183,0.133-0.25,0.199c-1.133,1.101-1.4,2.7-0.8,4.801c0.333,1.166,0.917,2.767,1.75,4.8
		c-2.1-0.4-3.867-1.334-5.3-2.8c-0.8-0.834-1.284-1.7-1.45-2.601c-0.067-0.366-0.1-1.434-0.1-3.2c0-2.133,0.017-3.416,0.05-3.85
		c0-0.1,0.017-0.184,0.05-0.25c0.1-1.366,0.4-2.5,0.9-3.4c0.133-0.267,0.684-0.733,1.65-1.399c0.833-0.601,1.284-1.084,1.35-1.45
		c0.133-0.733-0.2-1.35-1-1.85c-0.066-0.034-0.15-0.067-0.25-0.101c-0.833-0.434-1.383-0.783-1.65-1.05
		c-1.367-1.6-2.417-2.75-3.15-3.45c-1.233-1.2-2.684-2-4.35-2.4c-1.3-0.267-2.5-0.433-3.6-0.5c-1.1-0.033-2.083,0.033-2.95,0.2
		c-0.2,0.033-1.167,0.367-2.9,1c-1.167,0.4-2.2,0.55-3.1,0.45c-0.467-0.066-0.983-0.233-1.55-0.5c-0.6-0.267-1.083-0.433-1.45-0.5
		c-2.733-0.667-5.85-1.033-9.35-1.1c-2.033-0.067-3.367-0.034-4,0.1C71.933,48.683,71.317,48.95,70.75,49.35z M152.4,79
		c-0.233-0.3-0.45-0.483-0.65-0.55s-0.417-0.066-0.65,0c-0.699,0.1-1.483,0.6-2.35,1.5c-0.634,0.7-1.4,1.6-2.3,2.7
		c-1.2,1.066-2.384,1.8-3.55,2.199c-1.2,0.434-2.584,0.617-4.15,0.551c0.233-0.167,0.767-0.45,1.6-0.851
		c0.667-0.333,1.167-0.7,1.5-1.1c0.301-0.367,0.634-1,1-1.9c0.467-1.233,0.733-1.916,0.801-2.05c0.133-0.267,0.3-0.583,0.5-0.95
		c0.333-0.8,0.716-1.833,1.149-3.1c0.601-1.767,1.2-3.084,1.8-3.95l0.2-0.4c2.233,0.101,3.9,0.351,5,0.75
		c1.101,0.434,2.101,1.084,3,1.95l0.5,0.55c0.033,0.034,0.066,0.084,0.101,0.15c0.033,0.033,0.066,0.066,0.1,0.1
		c0.033,0.034,0.083,0.084,0.15,0.15c0.033,0.033,0.066,0.083,0.1,0.15c0.6,0.699,1.483,1.733,2.65,3.1
		c2.267,2.267,5.6,3.467,10,3.6c2.533,0.101,6.35,0,11.449-0.3c1.667,0.033,2.767,0.2,3.301,0.5c0.433,0.233,1.216,0.867,2.35,1.9
		c0.267,0.2,0.533,0.399,0.8,0.6l0.8,0.55c0.134,0.067,0.25,0.134,0.351,0.2c0.2,0.134,0.399,0.267,0.6,0.4l0.601,0.3
		c0.466,0.233,0.933,0.434,1.399,0.6c0.267,0.101,0.533,0.184,0.8,0.25c0.367,0.101,0.934,0.2,1.7,0.301l2.851,0.449
		c4.399,0.601,8.85,0.667,13.35,0.2c2.066-0.2,6.2-0.566,12.4-1.1c5.5-0.867,9.216-2.483,11.149-4.851
		c1.167-1.399,1.367-3.017,0.601-4.85c-0.2-0.5-0.467-0.983-0.801-1.45c1.567,1.101,2.5,2.134,2.801,3.101
		c0.233,0.767,0.233,1.75,0,2.949c-0.134,0.667-0.351,1.617-0.65,2.851c-0.134,1.1-0.116,2.833,0.05,5.2
		c0,2.233,0.184,4.183,0.55,5.85c0.334,1.533,0.851,3.017,1.551,4.45c-0.534-0.767-1.317-1.434-2.351-2
		c-1.866-1.033-3.05-1.834-3.55-2.4c-0.467-0.733-0.884-1.35-1.25-1.85c-0.366-0.601-0.667-1.05-0.9-1.351
		c-0.699-0.933-1.816-1.449-3.35-1.55c-2.2-0.166-4.816,0.066-7.85,0.7c-0.233,0.033-0.434,0.083-0.601,0.15
		c-1.866,0.533-2.616,1.583-2.25,3.149c0.667,2.934,0.934,4.65,0.8,5.15c-0.866,0-1.983-0.584-3.35-1.75
		c-0.167-0.167-1.1-1.101-2.8-2.8c-0.533-0.567-1.017-1.051-1.45-1.45c-0.4-0.4-0.733-0.717-1-0.95c-0.934-0.833-1.9-1.434-2.9-1.8
		c-1.233-0.434-2.949-0.584-5.149-0.45c-2.667,0.134-4.417,0.15-5.25,0.05c-0.834-0.1-1.634-0.399-2.4-0.899
		c-1.066-0.733-1.783-1.167-2.149-1.301c-0.301-0.133-0.784-0.216-1.45-0.25c-0.667-0.033-1.167-0.133-1.5-0.3
		c-0.233-0.1-0.533-0.283-0.9-0.55c-0.399-0.3-0.684-0.5-0.85-0.6c-1.367-0.733-2.8-1.167-4.3-1.301
		c-0.934-0.1-1.817-0.05-2.65,0.15c-0.667,0.1-1.283,0.3-1.85,0.6c-0.534,0.267-1.017,0.601-1.45,1
		c-0.334,0.2-0.851,0.15-1.55-0.149c-0.367-0.167-0.9-0.55-1.601-1.15c-0.633-0.6-1.217-1-1.75-1.2
		c-1.166-0.399-2.816-0.55-4.95-0.449c-2.633,0.133-4.333,0.149-5.1,0.05c-2-0.2-3.5-0.634-4.5-1.3c-0.4-0.267-0.9-1.067-1.5-2.4
		C152.95,79.833,152.667,79.333,152.4,79z"/>
	<path style="fill-rule:evenodd;clip-rule:evenodd;fill:#8F97A4;" d="M217.05,91.4c0.167-0.067,0.367-0.117,0.601-0.15
		c3.033-0.634,5.649-0.866,7.85-0.7c1.533,0.101,2.65,0.617,3.35,1.55c0.233,0.301,0.534,0.75,0.9,1.351
		c0.134,3,0.05,5.467-0.25,7.399c-3.434-2.1-6.616-4.633-9.55-7.6C219.05,92.35,218.083,91.733,217.05,91.4z M208,93.7
		c-0.333,0.166-0.634,0.283-0.9,0.35c-1.433,0.4-3.116,0.117-5.05-0.85c-2.566-1.3-4.149-2-4.75-2.101
		c-0.7-0.133-1.733-0.216-3.1-0.25c-1.533-0.033-2.566,0.051-3.101,0.25c-1.333,0.467-2.166,1.834-2.5,4.101
		c-0.199,1.233-0.366,3.033-0.5,5.399c-0.3-0.966-0.683-2.433-1.149-4.399s-0.867-3.434-1.2-4.4c-0.667-2.1-2.533-3.783-5.6-5.05
		c-1-0.434-1.884-0.85-2.65-1.25c0.833-0.2,1.717-0.25,2.65-0.15c1.5,0.134,2.933,0.567,4.3,1.301c0.166,0.1,0.45,0.3,0.85,0.6
		c0.367,0.267,0.667,0.45,0.9,0.55c0.333,0.167,0.833,0.267,1.5,0.3c0.666,0.034,1.149,0.117,1.45,0.25
		c0.366,0.134,1.083,0.567,2.149,1.301c0.767,0.5,1.566,0.8,2.4,0.899c0.833,0.101,2.583,0.084,5.25-0.05
		c2.2-0.134,3.916,0.017,5.149,0.45c1,0.366,1.967,0.967,2.9,1.8C207.267,92.983,207.6,93.3,208,93.7z"/>
</g>
</svg>
