<?xml version="1.0" encoding="iso-8859-1"?>
<!-- Generator: Adobe Illustrator 15.1.0, SVG Export Plug-In . SVG Version: 6.00 Build 0)  -->
<!DOCTYPE svg PUBLIC "-//W3C//DTD SVG 1.1//EN" "http://www.w3.org/Graphics/SVG/1.1/DTD/svg11.dtd">
<svg version="1.1" id="FlashAICB" xmlns="http://www.w3.org/2000/svg" xmlns:xlink="http://www.w3.org/1999/xlink" x="0px" y="0px"
	 width="60.45px" height="192.6px" viewBox="0 0 60.45 192.6" style="enable-background:new 0 0 60.45 192.6;" xml:space="preserve"
	>
<g>
	<linearGradient id="SVGID_1_" gradientUnits="userSpaceOnUse" x1="-0.0142" y1="96.4746" x2="60.4502" y2="96.4746">
		<stop  offset="0.1176" style="stop-color:#000000;stop-opacity:0.149"/>
		<stop  offset="0.2588" style="stop-color:#000000;stop-opacity:0.149"/>
	</linearGradient>
	<path style="fill-rule:evenodd;clip-rule:evenodd;fill:url(#SVGID_1_);" d="M47.6,156.5c-0.267-0.134-0.649-0.217-1.149-0.25
		c-0.667-0.066-1.084-0.2-1.25-0.4c-0.134-0.199-0.184-0.449-0.15-0.75c0.033-0.433,0.033-0.699,0-0.8
		c-0.066-0.233-0.2-0.517-0.399-0.85c-0.267-0.3-0.417-0.533-0.45-0.7c-0.066-0.233-0.017-0.566,0.149-1l0.4-1.05
		c-0.733-0.2-1.167-0.4-1.3-0.601c-0.134-0.199-0.167-0.483-0.101-0.85c0.034-0.4,0.017-0.684-0.05-0.85
		c-0.033-0.101-0.166-0.217-0.399-0.351c-0.233-0.133-0.384-0.25-0.45-0.35c-0.434-0.9-0.783-1.55-1.05-1.95
		c0.3-0.333,0.767-0.6,1.399-0.8c0.733-0.134,1.25-0.25,1.55-0.351c1-0.333,1.601-0.6,1.801-0.8c0.399-0.6,0.149-1.649-0.75-3.149
		c-0.634-1,0-1.534,1.899-1.601c0-0.399,0-0.7,0-0.899c0.033-0.367,0.134-0.65,0.3-0.851c0.233-0.267,0.851-0.45,1.851-0.55
		c0.967-0.1,1.55-0.316,1.75-0.65c0.166-0.267,0.2-0.533,0.1-0.8c-0.133-0.366-0.2-0.566-0.2-0.6c0-0.3,0.084-1.117,0.25-2.45
		c0.167-1.1,0.167-1.9,0-2.4c-0.1-0.3-0.316-0.649-0.649-1.05c-0.367-0.434-0.601-0.783-0.7-1.05c-0.066-0.167-0.116-0.45-0.15-0.85
		c0-0.034,0-0.067,0-0.101l-0.024-0.875c-0.017-0.35-0.059-0.625-0.125-0.825l-0.65-0.5c-0.066-0.466-0.083-0.833-0.05-1.1
		c-0.066-1-0.134-1.7-0.2-2.1c-0.1-0.7-0.366-1.351-0.8-1.95c1.033-0.033,1.65-0.101,1.85-0.2c0.067-0.033,0.134-0.1,0.2-0.2
		l0.05-0.1l0.301-1.45c0.699,0.066,1.233-0.083,1.6-0.45c0.533-0.566,0.467-1.55-0.2-2.95c-0.434-0.899-1-1.8-1.7-2.699
		c0.167,0.066,0.351,0.05,0.551-0.051c0.199-0.966,0.083-2.533-0.351-4.699c0.4,0.133,0.816,0.083,1.25-0.15
		c0.233-0.1,0.601-0.35,1.101-0.75c0.399-0.267,0.666-0.467,0.8-0.6c0.033-0.034,0.066-0.067,0.1-0.101c0.2-0.2,0.367-0.45,0.5-0.75
		c0.195-0.292,0.262-0.742,0.2-1.35c0.002-0.017,0.002-0.033,0-0.05c-0.066-0.967-0.05-1.567,0.05-1.801
		c0.167-0.267,0.467-0.583,0.9-0.949c0.434-0.367,0.717-0.7,0.85-1c0.4-0.733,0.601-1.717,0.601-2.95
		c-0.101-0.067-0.301-0.133-0.601-0.2c-0.166,0-0.35,0-0.55,0c-0.136-0.002-0.269-0.086-0.4-0.25l-0.149-0.2
		c-0.066-0.1-0.134-0.216-0.2-0.35c-0.3-0.534-0.333-1.517-0.1-2.95c0.199-1.4,0.083-2.4-0.351-3l-0.899-0.3
		c-0.101-0.133-0.184-0.35-0.25-0.65c-0.101-0.4-0.167-0.633-0.2-0.7c0-0.033-0.017-0.067-0.05-0.1L52.7,87
		c-0.134-0.267-0.3-0.533-0.5-0.8l-0.05-0.05c-0.101-0.133-0.2-0.267-0.301-0.4l-0.5-0.65L51,84.5c-0.066-0.2-0.1-0.4-0.1-0.6
		c-0.034-0.133-0.034-0.283,0-0.45c0-0.034,0.017-0.067,0.05-0.1c0-0.033,0-0.067,0-0.1c0.033-0.1,0.066-0.2,0.1-0.3
		c0.134-0.467,0.217-0.9,0.25-1.3c0.033-0.233,0.05-0.5,0.05-0.8c0-0.2,0-0.4,0-0.6c0-0.1,0-0.183,0-0.25
		c-0.033-0.7-0.166-1.65-0.399-2.85l-0.3-1.35c-0.167,0.034-0.467,0-0.9-0.1c-0.033-0.133-0.017-0.583,0.05-1.35
		c0.033-0.633-0.017-1.067-0.149-1.3c-0.167-0.3-0.367-0.45-0.601-0.45c-0.333,0-0.6-0.067-0.8-0.2
		c-0.366-0.267-0.583-0.35-0.65-0.25l-0.25-0.85c-0.199-0.6-0.183-1.367,0.051-2.3c0-0.033,0.017-0.067,0.05-0.1
		c0.3-0.967,0.5-1.667,0.6-2.1c0.334-1.233,0.417-2.066,0.25-2.5c-0.033-0.133-0.083-0.25-0.149-0.35c-0.067-0.1-0.15-0.2-0.25-0.3
		c-0.101-0.066-0.2-0.133-0.301-0.2c-0.166-0.167-0.267-0.333-0.3-0.5c-0.133-0.4-0.05-1.184,0.25-2.35
		c0.066-0.367,0.167-0.75,0.3-1.15c0.067-0.267,0.117-0.5,0.15-0.7c0-0.067,0.017-0.117,0.05-0.15c0-0.067,0-0.117,0-0.15l0.05-0.1
		c0.067-0.833-0.05-1.45-0.35-1.85c-0.066-0.067-0.134-0.133-0.2-0.2c-0.8-0.433-1.25-0.716-1.35-0.85
		c-0.066-0.1-0.033-0.733,0.1-1.9c0.101-0.8,0.05-1.383-0.149-1.75c-0.301-0.433-0.584-0.917-0.851-1.45
		c-0.3-0.667-0.333-1.833-0.1-3.5c0.233-1.533,0.1-2.6-0.4-3.2c-0.166-0.2-0.483-0.4-0.95-0.6c-0.3-0.167-0.483-0.483-0.55-0.95
		c-0.033-0.233,0.017-0.55,0.15-0.95c0.166-0.533,0.25-0.867,0.25-1c-0.134-1-0.134-1.683,0-2.05c0.166-0.6,0.7-1.033,1.6-1.3
		c1.033-0.333,1.7-0.683,2-1.05c0.367-0.5,0.617-1.917,0.75-4.25c0.066-1.267,0.084-2,0.05-2.2c0-0.9-0.133-1.583-0.399-2.05
		c-0.066-0.133-0.167-0.267-0.3-0.4c-0.233-0.233-0.567-0.483-1-0.75c-0.134-0.067-0.267-0.133-0.4-0.2
		c-0.333-0.267-0.55-0.517-0.65-0.75c-0.066-0.133-0.083-0.333-0.05-0.6V24.5c0.033-0.333,0.05-0.55,0.05-0.65l-0.149-1.9
		c-0.233-3.4-0.601-5.6-1.101-6.6l-1.05-0.5L42.9,14.7c-0.434-0.367-0.801-1.1-1.101-2.2c-0.366-1.333-0.633-2.133-0.8-2.4
		c-0.134,0.1-0.434,0.2-0.9,0.3c0-1.6-0.133-2.6-0.399-3C39.467,7.067,39.233,6.933,39,7c-0.3,0.1-0.517,0.117-0.65,0.05
		c-0.366-0.167-0.683-0.667-0.949-1.5c-0.2-0.9-0.351-1.5-0.45-1.8L36.6,1.8c-0.033-0.133-0.05-0.25-0.05-0.35
		c0.3-0.967,0.9-1.3,1.8-1c0.167,0.066,0.367,0.667,0.601,1.8c0.1,0.567,0.217,1.217,0.35,1.95c0.101,0.3,0.283,0.917,0.55,1.85
		c0.267,0.833,0.584,1.35,0.95,1.55c0.134,0.066,0.367,0.05,0.7-0.05c0.233-0.066,0.483,0.083,0.75,0.45
		c0.3,0.4,0.434,1.417,0.4,3.05c0.1-0.066,0.283-0.117,0.55-0.15s0.416-0.066,0.45-0.1c0.133,0.233,0.416,1.1,0.85,2.6
		c0.366,1.133,0.8,1.883,1.3,2.25c0.834-0.433,1.483,0.75,1.95,3.55c0.1,0.767,0.283,2.65,0.55,5.65c0,0.066-0.017,0.283-0.05,0.65
		c-0.033,0.3-0.017,0.517,0.05,0.65c0.167,0.333,0.566,0.7,1.2,1.1c0.667,0.4,1.1,0.767,1.3,1.1c0.4,0.733,0.517,2.183,0.351,4.35
		c-0.134,2.367-0.384,3.783-0.75,4.25c-0.301,0.367-1,0.7-2.101,1c-0.967,0.233-1.55,0.65-1.75,1.25c-0.133,0.4-0.133,1.1,0,2.1
		c0,0.133-0.083,0.467-0.25,1c-0.133,0.4-0.184,0.717-0.149,0.95c0.066,0.5,0.267,0.833,0.6,1c0.5,0.267,0.833,0.483,1,0.65
		c0.533,0.633,0.684,1.717,0.45,3.25c-0.267,1.667-0.233,2.867,0.1,3.6c0.267,0.533,0.566,1.033,0.9,1.5
		c0.166,0.367,0.2,0.95,0.1,1.75c-0.133,1.167-0.149,1.8-0.05,1.9c0.1,0.133,0.583,0.45,1.45,0.95c0.666,0.533,0.75,1.583,0.25,3.15
		c-0.566,1.867-0.75,3.067-0.55,3.6c0.066,0.2,0.25,0.417,0.55,0.65c0.267,0.2,0.45,0.433,0.55,0.7c0.167,0.5,0.066,1.367-0.3,2.6
		c-0.101,0.467-0.316,1.2-0.65,2.2c-0.267,0.9-0.3,1.667-0.1,2.3c0.2,0.567,0.3,0.867,0.3,0.9c0.066-0.1,0.3-0.017,0.7,0.25
		c0.233,0.167,0.517,0.25,0.85,0.25c0.233,0,0.45,0.15,0.65,0.45c0.166,0.267,0.217,0.7,0.149,1.3c-0.066,0.8-0.083,1.267-0.05,1.4
		c0.467,0.1,0.783,0.15,0.95,0.15c0.333,1.4,0.55,2.4,0.65,3c0.133,1.033,0.149,2.017,0.05,2.95c-0.066,0.566-0.2,1.183-0.4,1.85
		c-0.1,0.5,0.05,1.05,0.45,1.65c0.233,0.3,0.55,0.7,0.95,1.2c0.333,0.467,0.6,0.95,0.8,1.45c0.1,0.233,0.25,0.667,0.45,1.3
		l0.95,0.35c0.466,0.633,0.583,1.65,0.35,3.05c-0.2,1.467-0.15,2.483,0.15,3.05c0.3,0.534,0.566,0.817,0.8,0.851
		c0.566,0,0.983,0.066,1.25,0.2c0,0.399-0.066,0.916-0.2,1.55c-0.134,0.666-0.283,1.149-0.45,1.45
		c-0.166,0.3-0.467,0.616-0.899,0.949c-0.5,0.367-0.817,0.684-0.95,0.95c-0.134,0.267-0.167,0.8-0.101,1.601
		c0.067,0.8,0.017,1.366-0.149,1.699c-0.2,0.367-0.417,0.634-0.65,0.801c-0.166,0.133-0.467,0.333-0.899,0.6
		c-0.567,0.4-0.95,0.65-1.15,0.75c-0.467,0.233-0.9,0.267-1.3,0.1c0.467,2.034,0.583,3.634,0.35,4.801
		c-0.166,0.1-0.366,0.116-0.6,0.05c0.733,0.8,1.35,1.717,1.85,2.75c0.733,1.467,0.8,2.483,0.2,3.05c-0.233,0.233-0.5,0.35-0.8,0.35
		c-0.533,0.034-0.816,0.051-0.851,0.051c-0.1,1.033-0.3,1.616-0.6,1.75c-0.233,0.1-0.9,0.149-2,0.149c0.467,0.601,0.75,1.267,0.85,2
		c0.101,0.434,0.184,1.15,0.25,2.15c-0.066,0.467-0.05,0.85,0.051,1.149L53.1,127.9c0.101,0.3,0.15,0.767,0.15,1.399
		c0,0.634,0.05,1.066,0.15,1.3c0.1,0.267,0.35,0.617,0.75,1.051c0.366,0.433,0.6,0.8,0.699,1.1c0.167,0.533,0.184,1.35,0.051,2.45
		c-0.2,1.399-0.301,2.233-0.301,2.5c0,0.033,0.084,0.25,0.25,0.649c0.101,0.267,0.051,0.534-0.149,0.801
		c-0.2,0.333-0.816,0.533-1.851,0.6c-1.1,0.1-1.767,0.283-2,0.55c-0.166,0.2-0.267,0.467-0.3,0.8c0,0.2,0,0.517,0,0.95
		c-2.033,0-2.717,0.533-2.05,1.601c0.967,1.533,1.233,2.6,0.8,3.199c-0.066,0.101-0.366,0.25-0.899,0.45
		c-0.467,0.167-0.801,0.267-1,0.3c-0.334,0.101-0.884,0.217-1.65,0.351c-0.667,0.166-1.15,0.416-1.45,0.75
		c0.267,0.399,0.617,1.066,1.05,2c0.101,0.133,0.267,0.267,0.5,0.399c0.267,0.134,0.417,0.25,0.45,0.351
		c0.066,0.166,0.084,0.467,0.05,0.899c-0.033,0.367,0.017,0.65,0.15,0.851s0.583,0.416,1.35,0.649
		c-0.033,0.2-0.166,0.551-0.399,1.051c-0.167,0.433-0.217,0.783-0.15,1.05C47.333,156.083,47.434,156.267,47.6,156.5z M24.65,46.1
		c0.467,0.3,0.983,0.4,1.55,0.3c-0.4,0.233-0.9,0.517-1.5,0.85L24.65,46.1z M21,40.35c0.3-0.267,0.633-0.467,1-0.6
		c0.267,0.6,0.683,2,1.25,4.2c0.3,0.833,0.667,1.45,1.1,1.85c-1.1,0.133-1.95-0.633-2.55-2.3C21.467,42.133,21.2,41.083,21,40.35z
		 M14.3,61.15c0.1-0.133,0.2-0.25,0.3-0.35c0.5,0.467,0.967,1.3,1.4,2.5c0.6,1.633,0.95,2.55,1.05,2.75
		c0.167,0.3,0.434,0.75,0.8,1.35l-0.5,0.7c-0.1-0.367-0.3-0.833-0.6-1.4c-0.367-0.567-0.633-1-0.8-1.3
		c-0.133-0.233-0.45-1.117-0.95-2.65C14.767,62.083,14.533,61.55,14.3,61.15z M5.15,111.6c0.099,0.151,0.182,0.293,0.25,0.426
		c0.097,0.172,0.164,0.33,0.2,0.475c0.033,0.1,0.05,0.184,0.05,0.25c-0.033,0.033-0.066,0.05-0.1,0.05
		C5.283,112.4,4.9,111.934,4.4,111.4c-1.4-1.467-2.15-2.267-2.25-2.4c-0.833-1.2-1.417-2.384-1.75-3.55
		c-0.133-0.467-0.233-0.834-0.3-1.101c-0.133-0.466-0.15-0.833-0.05-1.1c0,0.066,0.017,0.15,0.05,0.25
		c0.066,0.267,0.167,0.634,0.3,1.1c0.3,1.167,0.833,2.317,1.6,3.45c0.1,0.134,0.8,0.9,2.1,2.3
		C4.549,110.816,4.899,111.233,5.15,111.6z M5.1,120.4c0.267,0.033,0.583,0,0.95-0.101c0.467-0.1,0.784-0.149,0.95-0.149
		c0.033,0.1,0.017,0.5-0.05,1.199c0,0.067,0,0.134,0,0.2c-0.167,0.033-0.333,0.066-0.5,0.101c-0.434,0.1-0.784,0.133-1.05,0.1
		C5.3,121.417,5.2,120.967,5.1,120.4z M4.55,117.65c-0.066-0.134-0.216-0.367-0.45-0.7c-0.2-0.267-0.267-0.617-0.2-1.05
		c0.033,0.033,0.083,0.083,0.15,0.149c0.133,0.267,0.217,0.417,0.25,0.45C4.4,116.767,4.483,117.15,4.55,117.65z M11.4,125.6
		c-0.267-0.066-0.5-0.166-0.7-0.3c-0.534-0.434-0.9-0.684-1.1-0.75c-0.1-0.033-0.45-0.066-1.05-0.1c-0.367,0-0.683-0.184-0.95-0.55
		c-0.167-0.233-0.233-0.601-0.2-1.101c0.2,0.134,0.4,0.2,0.6,0.2c0.533-0.033,0.867-0.017,1,0.05s0.467,0.3,1,0.7
		c0.333,0.233,0.767,0.333,1.3,0.3C11.4,124.583,11.433,125.1,11.4,125.6z M17.75,146.25c0-0.1,0.033-0.184,0.1-0.25l0.1-0.35
		c0-0.067,0.017-0.134,0.05-0.2c0.2-0.434,0.317-0.851,0.35-1.25c0.033-0.334-0.067-1.033-0.3-2.101c-0.2-0.933-0.2-1.616,0-2.05
		c0.1-0.2,0.4-0.533,0.9-1c0.433-0.399,0.683-0.833,0.75-1.3c0.066-0.366,0.083-0.833,0.05-1.4c0-0.066,0-0.116,0-0.149
		c0.058,0.175,0.158,0.309,0.3,0.399l0.05,0.051l0.15,0.1c0.8,0.366,1.417-0.717,1.85-3.25c0.167,0,0.316-0.033,0.45-0.1
		c0.367-0.233,0.517-0.767,0.45-1.601l-0.2-1.1c-0.133-0.667-0.35-1.45-0.65-2.351c-0.5-1.399-0.767-2.166-0.8-2.3
		c0.133-0.066,0.267-0.116,0.4-0.149c0.333-0.101,0.65-0.117,0.95-0.051l0.4,0.851c0.133,0.3,0.283,0.533,0.45,0.7
		c0,0.033,0.017,0.066,0.05,0.1c0.1,0.1,0.2,0.184,0.3,0.25c-0.333,0-0.7,0.083-1.1,0.25c0.067,0.3,0.55,1.684,1.45,4.15
		c0.633,2.333,0.433,3.483-0.6,3.449c-0.333,1.4-0.517,2.101-0.55,2.101c-0.367,1.066-0.85,1.467-1.45,1.2
		c-0.267-0.101-0.45-0.301-0.55-0.601c0,0.033,0,0.084,0,0.15c0.033,0.6,0.017,1.083-0.05,1.45c-0.066,0.433-0.333,0.85-0.8,1.25
		c-0.5,0.466-0.8,0.816-0.9,1.05c-0.2,0.434-0.2,1.133,0,2.1c0.233,1.101,0.333,1.816,0.3,2.15c-0.033,0.399-0.15,0.816-0.35,1.25
		c-0.233,0.533-0.383,0.934-0.45,1.2l-1-2.301C17.817,146.5,17.783,146.384,17.75,146.25z M15.7,140.05
		c-0.534-0.2-0.9-0.583-1.1-1.149c-0.067-0.2-0.083-0.5-0.05-0.9c0.233,0.1,0.483,0.15,0.75,0.15c0,0.233,0.034,0.483,0.1,0.75v0.05
		c0.029,0.116,0.063,0.233,0.1,0.35c0.029,0.165,0.063,0.332,0.1,0.5C15.633,139.866,15.667,139.95,15.7,140.05z M25.45,129.75
		c-0.067-0.066-0.133-0.134-0.2-0.2c-0.2-0.233-0.483-0.75-0.85-1.55c0.07,0.018,0.145,0.034,0.225,0.05
		c0.071,0.02,0.146,0.036,0.225,0.05l0.5,0.051c0,0.1,0.017,0.283,0.05,0.55C25.4,128.967,25.417,129.316,25.45,129.75z M3.7,101.25
		c-0.1,0.033-0.25,0.083-0.45,0.15c-0.033-0.034-0.05-0.067-0.05-0.101c0-0.133,0.017-0.25,0.05-0.35c0.1,0.1,0.25,0.184,0.45,0.25
		V101.25z M13.65,134.75c0.03,0.149,0.046,0.324,0.05,0.525v0.074c-0.034,0.067-0.05,0.167-0.05,0.301
		c-0.033,0-0.066-0.017-0.1-0.051c-0.066-0.166-0.1-0.583-0.1-1.25c0.033,0.034,0.066,0.084,0.1,0.15
		C13.583,134.566,13.617,134.65,13.65,134.75z M12.5,129c-0.2-0.167-0.433-0.283-0.7-0.35c0.133-0.301,0.233-0.601,0.3-0.9
		C12.3,128.05,12.433,128.467,12.5,129z M47.8,156.8c0.167,0.267,0.283,0.517,0.351,0.75c0,0.066,0,0.334,0,0.8
		c-0.034,0.334,0.033,0.601,0.199,0.801c0.167,0.233,0.617,0.383,1.351,0.449c0.733,0.067,1.217,0.233,1.45,0.5
		c-0.134,0.5-0.567,1.017-1.301,1.551c-0.767,0.533-1.216,1.033-1.35,1.5c0.5,0.366,0.866,0.583,1.1,0.649
		c-0.133,0.3-0.416,0.55-0.85,0.75c-0.634,0.3-1,0.483-1.1,0.55c0.233,0.867,0.183,1.717-0.15,2.551
		c-0.066,0.166-0.25,0.316-0.55,0.449c-0.233,0.101-0.384,0.233-0.45,0.4c-0.066,0.3,0,0.866,0.2,1.7c0.2,0.733,0.149,1.3-0.15,1.7
		c-0.1,0.133-0.35,0.3-0.75,0.5c-0.366,0.166-0.616,0.316-0.75,0.449c0.601,1,0.967,1.684,1.101,2.051
		c0.466,1.033,0.533,1.767,0.199,2.199c-0.166,0.233-0.533,0.434-1.1,0.601c-0.533,0.133-0.884,0.35-1.05,0.649
		c-0.267,0.5-0.25,1.95,0.05,4.351c0,0.866-0.083,1.883-0.25,3.05c-0.1,0.733-0.25,1.816-0.45,3.25
		c-0.066,0.833-0.116,1.267-0.149,1.3c-0.034,0.101-0.367,0.316-1,0.65c-0.101,0.066-0.317,0.1-0.65,0.1
		c-0.267,0.033-0.483,0.117-0.65,0.25c-0.033,0.2-0.033,0.4,0,0.601c-0.133,0.133-0.25,0.316-0.35,0.55
		c-0.134,0.166-0.366,0.2-0.7,0.1c-0.033-1.333-0.066-2.333-0.1-3c-0.033-0.899-0.233-1.684-0.601-2.35
		c0.134-0.033,0.217-0.066,0.25-0.101c0.567-0.333,0.884-0.55,0.95-0.649c0.033-0.066,0.084-0.5,0.15-1.3L41.1,182
		c0.167-1.167,0.25-2.167,0.25-3c-0.3-2.333-0.316-3.75-0.05-4.25c0.167-0.3,0.5-0.517,1-0.65c0.533-0.166,0.884-0.383,1.05-0.649
		c0.301-0.434,0.233-1.134-0.199-2.101c-0.534-1.033-0.884-1.699-1.051-2c0.101-0.133,0.334-0.283,0.7-0.449
		c0.367-0.2,0.601-0.367,0.7-0.5c0.267-0.4,0.316-0.95,0.15-1.65c-0.167-0.833-0.217-1.384-0.15-1.65
		c0.033-0.166,0.167-0.316,0.4-0.449c0.267-0.134,0.433-0.284,0.5-0.45c0.3-0.8,0.35-1.634,0.149-2.5
		c0.066-0.066,0.417-0.25,1.05-0.55c0.367-0.2,0.617-0.45,0.75-0.75c-0.199-0.067-0.533-0.267-1-0.601
		c0.101-0.467,0.517-0.983,1.25-1.55C47.267,157.75,47.667,157.267,47.8,156.8z"/>
	<path style="fill-rule:evenodd;clip-rule:evenodd;fill:#524C23;" d="M39.05,29.05c0,0.567-0.083,0.95-0.25,1.15l-0.1-0.1
		L39.05,29.05c-0.434-0.867-0.649-1.517-0.649-1.95h0.85c-0.033-1.267-0.35-2.95-0.95-5.05c-0.7-2.433-1.1-3.966-1.2-4.6
		c1.2,0.3,1.584-0.083,1.15-1.15c-0.667-1.233-1.05-1.95-1.15-2.15c0.733-0.1,1.233-0.3,1.5-0.6c0.267-0.367,0.267-0.9,0-1.6
		c-0.3-0.867-0.933-1.5-1.899-1.9v-0.3L36.65,10L34.8,9.3c0.533-0.867,0.384-1.667-0.45-2.4c-0.139-1.581-0.222-2.78-0.25-3.6V2.85
		c0-0.267,0-0.467,0-0.6c0.134-1.833,0.784-2.55,1.95-2.15c0.134,0.033,0.3,0.483,0.5,1.35c0,0.1,0.017,0.216,0.05,0.35l0.351,1.95
		c0.1,0.3,0.25,0.9,0.45,1.8c0.267,0.833,0.583,1.333,0.949,1.5C38.483,7.117,38.7,7.1,39,7c0.233-0.067,0.467,0.067,0.7,0.4
		c0.267,0.4,0.399,1.4,0.399,3c0.467-0.1,0.767-0.2,0.9-0.3c0.167,0.267,0.434,1.066,0.8,2.4c0.3,1.1,0.667,1.833,1.101,2.2v0.05
		l-0.2,0.2c0.899,0.533,1.416,1,1.55,1.4c0.1,0.267,0.1,0.517,0,0.75c-0.1,0.3-0.15,0.517-0.15,0.65s0.067,0.7,0.2,1.7
		c0.066,0.667,0.033,1.25-0.1,1.75c0.3,0.1,0.633,0.35,1,0.75l0.149,1.9L45.3,24.4h-0.55l0.55,0.15
		c-0.033,0.267-0.017,0.467,0.05,0.6c0.101,0.233,0.317,0.483,0.65,0.75c0.134,0.067,0.267,0.133,0.4,0.2v0.05
		c0,0.867-0.534,1.3-1.601,1.3c0.767,0.633,0.95,1.333,0.55,2.1c-0.366,0.733-1.017,1.133-1.949,1.2c0.533,0.1,0.733,0.367,0.6,0.8
		c-0.134,0.5-0.483,0.667-1.05,0.5c1,0.667,1.583,1.117,1.75,1.35c-0.167,0.267-0.717,0.55-1.65,0.85
		c0.167-0.433,0.167-0.917,0-1.45c-0.133-0.566-0.399-0.966-0.8-1.2l-0.2-0.1v0.1c-0.066,0.3-0.033,0.65,0.101,1.05
		c0.133,0.533,0.199,0.9,0.199,1.1L42.4,34.6c-0.2,0.133-0.317,0.283-0.351,0.45h0.25c-0.1,0.233-0.283,0.417-0.55,0.55
		c-0.033,0-0.384,0.117-1.05,0.35c0.899,0.8,0.25,1.517-1.95,2.15c0.5-0.067,0.9-0.1,1.2-0.1c0.533-0.033,0.883,0.05,1.05,0.25
		c0.4,0.467,0.184,1.283-0.65,2.45c0.601,0.6,1.15,1.4,1.65,2.4c0.5,1.033,0.384,1.517-0.35,1.45c0.333,0.167,0.566,0.467,0.699,0.9
		c0.167,0.633,0.084,1.183-0.25,1.65c0.834-0.133,1.334-0.05,1.5,0.25c0.101,0.167,0.134,0.633,0.101,1.4c0,0.267,0.1,1,0.3,2.2
		c0.233,1.4-0.066,2.433-0.9,3.1c0.667-0.133,1.084,0.15,1.25,0.85c0.067,0.367,0.084,1,0.051,1.9
		c-0.134,1.467-0.167,2.483-0.101,3.05c0.033,0.3,0.066,0.7,0.101,1.2c0,0.4-0.084,0.75-0.25,1.05
		c0.699-0.133,1.116,0.183,1.25,0.95c0.133,0.767-0.167,1.217-0.9,1.35c0.6,0.067,0.967,0.333,1.1,0.8
		c0.134,0.433-0.116,0.833-0.75,1.2c0.101,0.233,0.351,0.483,0.75,0.75c0.301,0.233,0.467,0.567,0.5,1c0,0.567-0.216,1-0.649,1.3
		c-0.4,0.267-0.9,0.383-1.5,0.35c0.434,0.434,0.583,1.1,0.45,2c-0.101,0.934-0.45,1.467-1.051,1.6l0.301,0.05
		c0.133,0.6-0.134,0.933-0.801,1c0.667-0.034,1.384,0.083,2.15,0.35c0.134,0.467,0.066,0.934-0.2,1.4
		c0.367,0.167,0.65,0.25,0.851,0.25c0.066,0.2,0.033,0.466-0.101,0.8c-0.133,0.367-0.2,0.617-0.2,0.75
		c0.067,0.333,0.334,0.683,0.801,1.05c0.666,0.5,1.033,0.784,1.1,0.85c0.4,0.434,0.684,1.067,0.85,1.9L48,81.95h-0.15
		c-0.333-0.333-0.816-0.55-1.449-0.65c-0.601-0.1-1.167-0.066-1.7,0.1c-0.167,0.033-0.4,0.184-0.7,0.45s-0.6,0.433-0.9,0.5
		c-0.199,0.066-0.883,0.1-2.05,0.1c-0.033,0.7-0.2,1.283-0.5,1.75c-0.399,0.6-0.883,0.683-1.45,0.25
		c-0.133,0.667-0.533,1.167-1.199,1.5c-0.733,0.367-1.15,0.1-1.25-0.8c0.033,0.367,0.05,0.833,0.05,1.4
		c0.033,0.4,0.283,0.7,0.75,0.9c0.533,0.2,1.033,0.083,1.5-0.35c0.467-0.567,0.8-0.983,1-1.25c0,0.167,0.1,0.433,0.3,0.8
		c0.333-0.167,0.667-0.467,1-0.9c0.333-0.467,0.583-0.8,0.75-1l0.95-0.65c0.066-0.067,0.116-0.2,0.149-0.4
		c0-0.167,0.051-0.3,0.15-0.4c0.333-0.267,0.566-0.35,0.7-0.25c0.3,0.233,0.55,0.367,0.75,0.4c0.166,0.033,0.616,0,1.35-0.1
		L46,83.65l0.5-0.3h0.3c0.733,0.1,1.134,0.35,1.2,0.75c0.066,0.267,0.083,0.8,0.05,1.6c1.634-0.067,2.084,1.05,1.351,3.35
		c0.8-0.133,1.35,0.05,1.649,0.55L50.3,92c-0.066,0.167-0.316,0.6-0.75,1.3c-0.333,0.567-0.517,1.017-0.55,1.35
		c0.366,0.167,0.783,0.133,1.25-0.1c0.267-0.133,0.634-0.4,1.1-0.8c0,2.567-0.75,4.25-2.25,5.05c0.534-0.1,1.15-0.116,1.851-0.05
		c0.066,0.566-0.316,1.333-1.15,2.3l0.25-0.2c-0.066,1.4-0.316,2.5-0.75,3.301c-0.5,0.866-1.366,1.616-2.6,2.25
		c1.2,2.733,1.35,4.683,0.45,5.85c-0.934,0.167-1.601,0.434-2,0.8c-0.334,0.3-0.717,0.851-1.15,1.65
		c-0.467,0.866-0.85,1.467-1.15,1.8c-1,0.667-2.166,1.1-3.5,1.3c-0.8,0.134-2.083,0.217-3.85,0.25
		c0.134-0.133,0.267-0.434,0.4-0.899c0.666,0.933,1.183,0.949,1.55,0.05c0.366-0.9,0.116-1.617-0.75-2.15
		c0.934,0.167,1.85,0.184,2.75,0.05c1.2-0.199,1.866-0.649,2-1.35c-0.101-0.8-0.134-1.333-0.101-1.6c0.2,0,0.334-0.117,0.4-0.351
		c0.134-1.434-0.25-3.05-1.15-4.85c-0.833-1.733-1.816-3.033-2.949-3.9c2.333,0.134,3.05-0.483,2.149-1.85
		c-0.833-1.2-1.934-2.017-3.3-2.45C37.2,98.917,38.033,99,39,99c1.4,0,2.316-0.2,2.75-0.6c0.066-0.434-0.05-0.817-0.35-1.15
		c-0.267-0.3-0.617-0.483-1.051-0.55c1.4,0.167,2.45,0.05,3.15-0.35s1.217-1.217,1.55-2.45l0.3,0.85
		c0.867,0.533,1.634,0.733,2.301,0.6c0-0.033,0.017-0.067,0.05-0.1c0-0.033,0-0.067,0-0.1c0.267-0.933-0.617-1.4-2.65-1.4
		c-0.1-0.5,0.033-0.967,0.4-1.4l0.45-0.3c0.133-0.2,0.183-0.417,0.149-0.65c0.066-0.533-0.05-0.95-0.35-1.25
		c-0.134-0.167-0.316-0.267-0.55-0.3c-0.267-0.033-0.417-0.067-0.45-0.1c-0.5-0.433-0.767-0.683-0.8-0.75
		c-0.167-0.233-0.284-0.633-0.351-1.2c-0.3-0.033-0.6,0.083-0.899,0.35c-0.467,0.467-0.733,0.717-0.801,0.75l-0.199-0.7
		c-0.967,0.733-1.584,1.167-1.851,1.3c-0.8,0.433-1.483,0.517-2.05,0.25c-0.167-0.533-0.167-1.183,0-1.95
		c-0.967,2.633-2.033,3.767-3.2,3.4c-0.434-0.133-0.633-0.517-0.6-1.15c0.133-0.733,0.217-1.25,0.25-1.55
		c-1.533,0.933-2.434,1.033-2.7,0.3c-0.267-0.733,0.116-1.733,1.15-3c-1.4,1.3-2.2,1.117-2.4-0.55c-0.2-1.767,0.167-2.833,1.1-3.2
		c0.434,0.5,0.917,0.483,1.45-0.05c0.467-0.433,0.767-0.967,0.9-1.6c-0.101,1.3,0.083,2.217,0.55,2.75
		c0.467,0.567,0.934,0.117,1.4-1.35c0.166,0.333,0.466,1.05,0.899,2.15c0.533,0.9,1.15,1.167,1.851,0.8
		c0.333-0.167,0.483-0.833,0.449-2c-0.1-1.233-0.166-1.983-0.199-2.25c0.199,0.433,0.533,0.733,1,0.9
		c0.433,0.133,0.883,0.133,1.35,0v-2.15c0.467,0.233,0.95,0.233,1.45,0c0.533-0.2,0.866-0.55,1-1.05c0.2-0.8-0.134-1.583-1-2.35
		c-0.334-0.267-1.101-0.75-2.3-1.45c0.333-1.1,0.316-2.267-0.051-3.5c0.067-0.8-0.05-1.35-0.35-1.65
		c0.934-0.333,1.45-0.533,1.55-0.6c0.334-0.267,0.45-0.783,0.351-1.55c-0.167-0.867-0.233-1.35-0.2-1.45
		c0.233-0.233,0.517-0.617,0.85-1.15c0.5-0.733,0.75-1.533,0.75-2.4c0-0.667-0.233-1.2-0.7-1.6c-0.666-0.4-1.199-0.733-1.6-1
		c1.134-0.267,1.483-1.183,1.05-2.75c-0.333-1.067-0.899-2.167-1.7-3.3c0.434-0.2,0.667-1.267,0.7-3.2
		c0.033-1.9-0.1-3.067-0.399-3.5c-0.334-0.5-1.167-0.767-2.5-0.8c-1.301-0.034-2.101-0.317-2.4-0.85c0-0.033,0.066-0.567,0.2-1.6
		c0.066-0.767-0.233-1.117-0.9-1.05c0.566-0.6,0.684-1.4,0.351-2.4c1.233-0.133,2.35-0.8,3.35-2c0.467-0.5,0.816-1.183,1.05-2.05
		c0.033-0.133,0.184-0.883,0.45-2.25c0.2-0.833,0.35-1.683,0.45-2.55c0.666-4.1,0.967-8.8,0.899-14.1L40.7,22.75
		c0,0.3,0.05,0.883,0.149,1.75c0.034,0.8-0.017,1.367-0.149,1.7c-0.167,0.433-0.351,0.65-0.55,0.65c-0.301,0-0.551,0.1-0.75,0.3
		l-0.15,0.25c-0.134,0.267-0.2,0.767-0.2,1.5V29.05z M42.3,35.05L42.4,34.6l0.649-0.35C42.917,34.75,42.667,35.017,42.3,35.05z
		 M32.35,64.8c0.134,0.467,0.233,1.184,0.301,2.15c0.066,0.867,0.066,1.566,0,2.1l-0.4-0.1c0.467,0.867,0.583,1.633,0.35,2.3
		c-0.3,0.733-0.949,0.833-1.949,0.3c0.1,1.1,0.133,1.85,0.1,2.25c-0.1,0.934-0.384,1.583-0.85,1.95l-1.1,0.35h-0.05
		c-0.867,0.066-1.35-0.2-1.45-0.8c-0.133,0.567-0.417,1.05-0.85,1.45c-0.434,0.4-0.95,0.617-1.55,0.65
		c-0.767,0.033-1.25-0.25-1.45-0.85c-0.164-0.426-0.181-1.043-0.05-1.85c-0.278,1.502-1.095,2.369-2.45,2.6
		c-1.434,0.2-2.1-0.633-2-2.5c-0.2,0.534-0.367,0.883-0.5,1.05c-0.3,0.333-0.667,0.417-1.1,0.25c-0.633-0.233-0.95-1.434-0.95-3.6
		l-0.2-2.9l0.15-0.2l-0.15-0.15c-0.067-1.133-0.017-2.183,0.15-3.15l0.1,0.15c-0.1,0.567-0.1,1.133,0,1.7
		c0.4,0.333,0.917,0.316,1.55-0.05c0.1-0.066,0.55-0.417,1.35-1.05C19.783,67.083,20,67.667,20,68.6c0,1.033,0.133,1.683,0.4,1.95
		c-1.233,0-1.833-0.466-1.8-1.4c-0.367,0.533-0.383,1.05-0.05,1.55c0.3,0.433,0.767,0.683,1.4,0.75c0,0.767,0.2,1.333,0.6,1.7
		c0.467,0.434,1.067,0.45,1.8,0.05l0.05,0.5c0.6,0.133,1.317,0.083,2.15-0.15c1.2-0.267,1.917-0.417,2.15-0.45
		c0.7-0.067,1.066-0.1,1.1-0.1c0.267-0.1,0.55-0.333,0.85-0.7l0.95-2.7c-0.467,0.967-1.133,1.167-2,0.6
		c-0.2,0.5-0.767,0.867-1.7,1.1c-0.933,0.267-1.433,0.133-1.5-0.4c0.233,0.167,0.55,0.25,0.95,0.25
		c0.633-0.033,1.133-0.383,1.5-1.05c0.167-0.367,0.35-0.983,0.55-1.85c0.9,0.333,1.717-0.5,2.45-2.5
		c0.667-2.333,1.067-3.767,1.2-4.3c-0.066,0.466,0.017,0.95,0.25,1.45l0.05,0.45l-0.149,1.3L30.8,66l-0.3-0.1
		c-0.1,0.267-0.267,1.033-0.5,2.3h0.05c0.101-0.4,0.351-1.133,0.75-2.2l0.2,0.1l0.2-1.45l0.149-1.1
		c0.067,0.633,0.284,1.034,0.65,1.2L32.35,64.8z M24.25,70.75c-0.3,0.433-0.65,0.65-1.05,0.65c-0.4-0.033-0.583-0.35-0.55-0.95H22.1
		c0.833-0.6,1.267-0.9,1.3-0.9C23.867,70.25,24.15,70.65,24.25,70.75z M7,94.05L6.65,93c0.6,0.1,1.233-0.183,1.9-0.85
		c0.534-0.533,0.934-1.117,1.2-1.75c-0.167,1-0.1,1.8,0.2,2.4c0.667-0.033,1.35-0.566,2.05-1.6c0.7-1.2,1.167-1.983,1.4-2.35
		c0.233,0.4,0.583,0.6,1.05,0.6c0.466-0.034,0.867-0.217,1.2-0.55c-0.1,1.4-0.35,2.517-0.75,3.35c-0.5,1.2-1.15,1.317-1.95,0.35
		c-0.3,1.3-1.05,1.867-2.25,1.7c-0.667-0.066-1.767-0.233-3.3-0.5c-0.066,0.467-0.066,1.217,0,2.25c1.133,0.1,2.083-0.083,2.85-0.55
		c0,0.133,0.05,0.417,0.15,0.85c0.667,0.167,1.333,0.083,2-0.25c0.7-0.5,1.25-0.833,1.65-1c0.2-0.067,0.483-0.1,0.85-0.1
		c0.467,0.033,0.75,0.05,0.85,0.05c0.6,0.8,0.933,1.383,1,1.75c-0.433,0.334-1.233,0.417-2.4,0.25c-1.167-0.167-1.967-0.1-2.4,0.2
		c-0.434,0.3-0.667,0.75-0.7,1.35c-0.067,0.567-0.3,0.967-0.7,1.2c-0.2,0.101-0.867,0.066-2-0.1c-1-0.167-1.617-0.05-1.85,0.35
		c-0.367-0.333-0.8-0.633-1.3-0.899c-0.033,0.233-0.05,0.633-0.05,1.199c0.033,0.467,0.017,0.851-0.05,1.15
		c-0.433-0.767-1.15-1-2.15-0.7c-0.233-0.399-0.167-0.767,0.2-1.1l0.05-0.05c0.133-0.134,0.383-0.2,0.75-0.2
		c0.434,0,0.717-0.033,0.85-0.101l0.3-0.6c0.667-0.434,0.983-0.767,0.95-1c-0.2-0.4-0.3-0.867-0.3-1.4c0-0.467,0.167-0.9,0.5-1.3
		C6.783,94.65,6.967,94.317,7,94.05z M5.85,88.15l-0.05,0.1l-0.15-1H5.7L6,87.1L5.85,88.15z M17.9,86.4
		c-0.3,0.833-0.717,1.583-1.25,2.25c-0.3-0.1-0.517-0.183-0.65-0.25c0.1-0.233,0.183-0.566,0.25-1c0.2-0.8,0.233-1.8,0.1-3
		l-0.15,0.2l-0.15-1.4c0.1,0.466,0.317,0.95,0.65,1.45C16.967,85.05,17.367,85.633,17.9,86.4z M18.8,88.6l0.5,0.45
		c0.9,1.267,0.733,1.95-0.5,2.05C18.867,90.567,18.867,89.733,18.8,88.6z M17.4,93.6l0.3-0.45c0.367-0.233,0.617-0.483,0.75-0.75
		c0.167-0.233,0.267-0.533,0.3-0.9c0.133,0.1,0.6,0.333,1.4,0.7c0.6,0.267,1.05,0.566,1.35,0.9C21.033,93.633,19.667,93.8,17.4,93.6
		z M0.7,101.95l0.8-0.2c0.067-0.033,0.15-0.05,0.25-0.05c0.5-0.066,0.917-0.15,1.25-0.25l-0.05,0.6c-0.133-0.033-0.434,0-0.9,0.101
		c-0.133,0.366-0.017,0.8,0.35,1.3H2.05c-0.466-0.033-1.066-0.45-1.8-1.25C0.35,102.116,0.5,102.033,0.7,101.95z M8,109
		c0.067,0.634,0.067,1,0,1.1c-0.267,0.434-0.567,0.667-0.9,0.7c-0.4,0-0.667-0.233-0.8-0.7L6.15,110.2c0.2-0.4,0.383-0.65,0.55-0.75
		c0.167-0.167,0.383-0.25,0.65-0.25s0.467-0.05,0.6-0.15L8,109z M10.35,111.6c-0.434,0.267-0.733,0.601-0.9,1L9.9,112.9
		c-0.433,0.733-1.15,1.216-2.15,1.449c-0.7,0.134-1.7,0.15-3,0.051l-1-0.101c0.067-0.2,0.167-0.366,0.3-0.5c0.1-0.1,0.2-0.2,0.3-0.3
		c0.038-0.035,0.087-0.068,0.15-0.1h0.05c0.2-0.167,0.534-0.367,1-0.601c0.034,0,0.067-0.017,0.1-0.05c0-0.066-0.017-0.15-0.05-0.25
		c0.3,0.1,0.7,0.083,1.2-0.05c0.633-0.2,1.2-0.7,1.7-1.5c0.5-0.9,0.9-1.55,1.2-1.95l0.6,0.4v-0.2c0.133,1.033,0.15,1.783,0.05,2.25
		V111.6z M13.7,134.95l-0.05-0.2c-0.033-0.1-0.066-0.184-0.1-0.25c-0.033-0.066-0.066-0.116-0.1-0.15
		c-0.167-0.166-0.333-0.3-0.5-0.399c-0.167-0.533-0.25-1.384-0.25-2.55l-0.25,0.5c0.033-1.601,0.05-2.567,0.05-2.9v-0.15
		c-0.057-0.538-0.224-0.955-0.5-1.25c-0.045-0.055-0.095-0.104-0.15-0.149l-0.3-0.25c-0.167-0.101-0.333-0.167-0.5-0.2
		c0.133-0.4,0.233-0.833,0.3-1.3h0.05h0.25c0.1-0.601,0.1-1.351,0-2.25c-0.167-1-0.283-1.733-0.35-2.2
		c0.667,0.833,1.434,1.3,2.3,1.4c0.267-0.767,0.35-1.733,0.25-2.9c-0.567-0.434-0.7-0.934-0.4-1.5c0.2,0.267,0.333,0.767,0.4,1.5
		c0.667,0.467,1.25,0.434,1.75-0.1c0.433-0.434,0.467-1.25,0.1-2.45c-0.367-1.101-0.8-1.834-1.3-2.2c1.5,0.267,2.4,0.066,2.7-0.6
		c0.267-0.601,0.033-1.483-0.7-2.65c1.067-0.833,1.65-1.366,1.75-1.6c0.233-0.467-0.133-1.034-1.1-1.7c0.6,0.1,1.05,0,1.35-0.3
		l-0.05,1.6c-0.1,2.366-0.15,3.75-0.15,4.15c0.1,1.833,0.533,3.149,1.3,3.949c-0.2,0.4-0.317,0.733-0.35,1l-0.45,0.25
		c-0.233,0.233-0.233,1.101,0,2.601c0.233,1.733,0.316,2.75,0.25,3.05l-0.6-0.65c-0.3,0.2-0.417,0.5-0.35,0.9
		c0.033,0.233,0.15,0.583,0.35,1.05c0.267,0.867,0.367,1.55,0.3,2.05c-0.167,0.334-0.333,0.584-0.5,0.75
		c0,0.067,0.083,0.384,0.25,0.95c0.1,0.4,0.033,0.7-0.2,0.9c-0.467,0.366-1.45,0.3-2.95-0.2c-0.133,0.4,0.1,0.95,0.7,1.65
		c0.633,0.699,0.867,1.333,0.7,1.899c-0.233-0.066-0.65-0.033-1.25,0.101c0.033,0.166,0,0.466-0.1,0.899
		C14.6,135.184,14.067,135.15,13.7,134.95z M18.7,104.6l-0.2,1.7c-0.133-0.467-0.433-1.217-0.9-2.25c-0.4-0.934-0.633-1.55-0.7-1.85
		c0.133,0.133,0.4,0.566,0.8,1.3C18.033,104.066,18.367,104.434,18.7,104.6z M44.6,119.85c0.334,0.167,0.65,0.25,0.95,0.25
		c0.434,0.267,0.75,0.7,0.95,1.301c0.1,0.399,0.184,1.033,0.25,1.899c1.233,0.101,1.467,0.867,0.7,2.3
		c-0.7,1.334-1.467,2.184-2.3,2.551c0.6,0.267,1.033,0.899,1.3,1.899c0.267,1.066,0.033,1.65-0.7,1.75c0,0.566-0.233,1.084-0.7,1.55
		c-0.6,0.5-0.95,0.9-1.05,1.2c-0.066,0.167-0.05,0.55,0.05,1.15c0.033,0.467-0.1,0.8-0.399,1c-0.267,0.2-0.617,0.217-1.051,0.05
		c-0.366-0.167-0.649-0.384-0.85-0.65c-0.167,0.601-0.217,1.417-0.15,2.45c0.067,1.267,0.084,2.084,0.051,2.45
		c-0.367,0.066-0.851-0.116-1.45-0.55c-0.634-0.434-1.134-0.667-1.5-0.7c-0.033,0.667,0.066,1.533,0.3,2.6
		c0.134,0.567,0.333,1.417,0.6,2.551c-0.267,0.366-0.416,1.133-0.449,2.3c0,0.6-0.017,1.416-0.051,2.45
		c-0.133,1.1-0.3,1.916-0.5,2.449c-0.133-0.233-0.216-0.433-0.25-0.6c0.034,0.3,0.167,0.983,0.4,2.05
		c0.167,1.033,0.134,1.684-0.1,1.95c-0.167,0.233-0.567,0.35-1.2,0.35c-0.367,0-0.834-0.017-1.4-0.05
		c0.101,0.533,0.634,0.983,1.601,1.351c1,0.399,1.583,0.816,1.75,1.25c0.3,0.866-0.034,1.733-1,2.6
		c-0.534,0.5-1.351,1.083-2.45,1.75c0.733,0.7,1.184,1.45,1.35,2.25c0.066,0.366,0.084,1.267,0.05,2.7c0,0.2,0.017,0.566,0.051,1.1
		c-0.067,0.233-0.334,0.767-0.801,1.601c0,0.267,0.267,0.783,0.801,1.55c0.399,0.666,0.483,1.267,0.25,1.8
		c-0.101,0.2-0.351,0.4-0.75,0.6c-0.4,0.233-0.65,0.434-0.75,0.601c-0.134,0.233-0.184,0.566-0.15,1s0,0.75-0.1,0.95
		c-0.667,0.1-0.95-0.134-0.851-0.7c-0.066,0.033-0.116,0.066-0.149,0.1c-0.034,0-0.067,0.017-0.101,0.05l-0.5,0.101
		c-0.233,0-0.45-0.033-0.649-0.101c-0.134-0.333-0.25-0.816-0.351-1.449c-0.1-0.534-0.166-0.884-0.2-1.051l-0.05-0.05v-0.05
		c-0.066-0.267-0.233-0.566-0.5-0.9c-0.033-0.1-0.083-0.183-0.149-0.25c-0.367-0.466-0.601-0.833-0.7-1.1c0.2-2,0.3-3.017,0.3-3.05
		h-0.4l0.15-1.55c0.134-0.5,0.217-0.884,0.25-1.15c0.1-0.566,0.1-0.967,0-1.2c-0.066-0.1-0.333-0.333-0.8-0.7l-0.15-0.1
		c0.367-0.733,0.351-1.366-0.05-1.9c-0.333,0-0.55-0.116-0.65-0.35c-0.032-0.032-0.049-0.065-0.05-0.1l0.05-0.7
		c0-0.3,0.117-0.867,0.351-1.7c0.5-1.033,0.8-1.75,0.899-2.15c-0.233,0.034-0.449,0-0.649-0.1H30.9c0-0.033,0-0.083,0-0.15
		c-0.101-0.267-0.284-0.683-0.551-1.25v-0.899l-0.45-0.05c-0.099-0.165-0.182-0.315-0.25-0.45c-0.3-0.566-0.517-1-0.65-1.3
		c-0.367-0.7-0.583-1.334-0.65-1.9c-0.033-0.566-0.017-1.384,0.05-2.45c0.1-1.1,0.117-1.916,0.05-2.45
		c-0.034-0.3,0.033-0.833,0.2-1.6c0.133-0.733,0.167-1.233,0.1-1.5c-0.067-0.3-0.3-0.616-0.7-0.95c-0.367-0.366-0.6-0.717-0.7-1.05
		c-0.133-0.6-0.167-1.65-0.1-3.15c0.1-1.366,0-2.366-0.3-3c0-0.033-0.017-0.083-0.05-0.149L26.65,134c0-1.533-0.183-2.717-0.55-3.55
		c-0.2-0.5-0.317-0.767-0.35-0.8c-0.067-0.067-0.167-0.101-0.3-0.101l-0.05-0.85c-0.033-0.267-0.05-0.45-0.05-0.55l-0.5-0.051
		c-0.079-0.014-0.154-0.03-0.225-0.05c-0.08-0.016-0.155-0.032-0.225-0.05c-0.034-0.009-0.067-0.018-0.1-0.025
		c-0.016-0.011-0.032-0.02-0.05-0.024c-0.107-0.047-0.207-0.097-0.3-0.15l-0.05-0.05c-0.133-0.1-0.25-0.217-0.35-0.35
		c-0.167-0.167-0.316-0.4-0.45-0.7v-0.05c-0.1-0.934-0.117-2.983-0.05-6.15c-0.066,0.1-0.283,0.6-0.65,1.5
		c-0.233,0.634-0.5,1.1-0.8,1.4c-0.4-0.101-0.7-0.384-0.9-0.851l-0.05-3.2l-0.05-0.75l0.75,0.15l-0.7-0.35
		c0.467-2.801,0.7-4.25,0.7-4.351c-0.6,0.434-1.017,1.4-1.25,2.9l-0.05,0.1c0.2-1.467,0.333-2.566,0.4-3.3
		c0.133-1.267,0.1-2.384-0.1-3.35c-0.7-3.434-0.767-6.434-0.2-9l-0.25,0.449c0-0.699,0.05-1.183,0.15-1.449
		c1.067,0.233,1.85-0.2,2.35-1.301c-0.833,4.801-1.3,7.417-1.4,7.851c-0.6,2.7,0.05,3.833,1.95,3.399
		c0.066,0.467,0.117,1.25,0.15,2.351c0.1,0.967,0.433,1.633,1,2c0.4,0.267,0.7,0.399,0.9,0.399c0.267,0,0.5-0.166,0.7-0.5
		c0,0.4-0.05,1.284-0.15,2.65c0.034,1.233,0.383,1.95,1.05,2.15c0.267,0.1,0.6,0.033,1-0.2c0.4-0.267,0.733-0.4,1-0.4
		c0.033,0.267,0.033,1.917,0,4.95c0.167,2.7,0.667,3.5,1.5,2.4h0.051l-0.101,0.35c-1.066,0.9-1.417,1.65-1.05,2.25
		c0.1,0.134,0.233,0.233,0.4,0.3c-0.667,2.733-0.7,4.65-0.1,5.75c0.534,0,0.983-0.166,1.351-0.5l0.1,1.55l-0.4,0.25L30.15,136.7
		l0.6-0.05l-0.1,1.949c-0.5,0.434-0.75,0.95-0.75,1.551c0.133,0.133,0.35,0.233,0.65,0.3c0,1.934,0.367,3.366,1.101,4.3
		c0.199-0.8,0.399-1.384,0.6-1.75c0.233,1.733,0.417,2.85,0.55,3.35c0.267,1.301,0.65,2.334,1.15,3.101
		c0.267-0.601,0.399-1.367,0.399-2.3c-0.033-1.034-0.033-1.817,0-2.351h0.2c0.434,1.367,1,2.367,1.7,3
		c0.767,0.7,1.134,0.15,1.1-1.649c-0.066-1-0.066-1.767,0-2.301c0.101-0.933,0.534-1.316,1.301-1.149
		c0.366-1.4-0.017-2.867-1.15-4.4c-0.8-0.333-1.283-0.833-1.45-1.5c0.566,0.5,1.05,1,1.45,1.5l0.45,0.15
		c0.2-0.667,0.217-1.467,0.05-2.4s-0.45-1.767-0.85-2.5c0.866,1,1.816,1.55,2.85,1.65c0.134-0.733-0.017-1.634-0.45-2.7
		c-0.2-0.467-0.633-1.3-1.3-2.5c0.566-0.033,1.033,0.2,1.4,0.7c1.133,0.533,2.216,0.517,3.25-0.05
		c0.199-0.667,0.116-1.45-0.25-2.351c-0.167-0.467-0.551-1.184-1.15-2.149c1.233-0.233,1.583-0.934,1.05-2.101
		c-0.899-1.3-1.416-2.149-1.55-2.55c-0.1-0.3-0.116-0.667-0.05-1.1c0.3-0.034,0.85-0.15,1.649-0.351c0.667-0.2,1.2-0.283,1.601-0.25
		L44.6,119.85z M43.35,101.1L41,101.4c0.6,0.566,1.167,1.3,1.7,2.199c0.467,0.601,1.217,0.851,2.25,0.75
		c0.133-1.033,0.133-1.733,0-2.1C44.75,101.75,44.217,101.366,43.35,101.1z M35.4,118.15c-0.233,0.533-0.117,0.966,0.35,1.3
		l-1.65-0.05c-0.166-0.434-0.199-0.834-0.1-1.2C34.634,118.6,35.1,118.583,35.4,118.15z M37.35,35.6l0.051-1.5
		c0.267,0.033,0.483,0,0.649-0.1C37.983,34.733,37.75,35.267,37.35,35.6z M32.25,68.95L32,68.55c0,0.2,0.017,0.317,0.05,0.35
		S32.15,68.95,32.25,68.95z M45,97.75l-1,1c1.9,2.033,3.217,2.8,3.95,2.3c0.8-0.6,0.649-1.267-0.45-2
		C46.1,98.35,45.267,97.917,45,97.75z"/>
	<path style="fill-rule:evenodd;clip-rule:evenodd;fill:#433E1C;" d="M42.9,14.7l0.149,0.15l1.05,0.5c0.5,1,0.867,3.2,1.101,6.6
		c-0.367-0.4-0.7-0.65-1-0.75c0.133-0.5,0.166-1.083,0.1-1.75c-0.133-1-0.2-1.567-0.2-1.7s0.051-0.35,0.15-0.65
		c0.1-0.233,0.1-0.483,0-0.75c-0.134-0.4-0.65-0.867-1.55-1.4l0.2-0.2V14.7z M39.05,29.05V28.9c0-0.733,0.066-1.233,0.2-1.5
		l0.15-0.25c0.199-0.2,0.449-0.3,0.75-0.3c0.199,0,0.383-0.217,0.55-0.65c0.133-0.333,0.184-0.9,0.149-1.7
		c-0.1-0.867-0.149-1.45-0.149-1.75l0.649-5.65c0.067,5.3-0.233,10-0.899,14.1c-0.101,0.867-0.25,1.716-0.45,2.55
		c-0.267,1.367-0.417,2.117-0.45,2.25c-0.233,0.867-0.583,1.55-1.05,2.05c-1,1.2-2.116,1.867-3.35,2c-0.4,0.034-0.767,0.034-1.101,0
		c-0.066-0.433-0.083-0.733-0.05-0.9c-0.833-0.066-1.35-0.267-1.55-0.6c-0.267-0.333-0.283-0.933-0.05-1.8
		c0.6-1.267,0.916-2.283,0.949-3.05c0.034,1.066,0.167,1.733,0.4,2c0.333,0.4,1.1,0.533,2.3,0.4c0.533-0.033,0.967-0.2,1.3-0.5
		c0.4-0.333,0.634-0.867,0.7-1.6c-0.133-1.633-0.133-2.817,0-3.55c0.3,0.033,0.55-0.05,0.75-0.25
		C38.967,30,39.05,29.617,39.05,29.05z M45.3,24.4v0.1v0.05l-0.55-0.15H45.3z M46.05,83.35c-0.733,0.1-1.184,0.133-1.35,0.1
		c-0.2-0.034-0.45-0.167-0.75-0.4c-0.134-0.1-0.367-0.017-0.7,0.25c-0.1,0.1-0.15,0.233-0.15,0.4c-0.033,0.2-0.083,0.333-0.149,0.4
		L42,84.75c-0.167,0.2-0.417,0.533-0.75,1c-0.333,0.433-0.667,0.733-1,0.9c-0.2-0.367-0.3-0.633-0.3-0.8
		c-0.2,0.267-0.533,0.683-1,1.25c-0.467,0.433-0.967,0.55-1.5,0.35c-0.467-0.2-0.717-0.5-0.75-0.9c0-0.566-0.017-1.033-0.05-1.4
		c0.1,0.9,0.517,1.167,1.25,0.8c0.666-0.333,1.066-0.833,1.199-1.5c0.567,0.433,1.051,0.35,1.45-0.25c0.3-0.467,0.467-1.05,0.5-1.75
		c1.167,0,1.851-0.034,2.05-0.1c0.301-0.067,0.601-0.233,0.9-0.5s0.533-0.417,0.7-0.45c0.533-0.167,1.1-0.2,1.7-0.1
		c0.633,0.1,1.116,0.317,1.449,0.65C46.783,82.117,46.184,82.583,46.05,83.35z M51.35,80.85c-0.233,0.167-0.5,0.35-0.8,0.55
		c-0.233,0.167-0.5,0.283-0.8,0.35s-0.85,0.133-1.65,0.2V81.8c-0.166-0.833-0.449-1.466-0.85-1.9c-0.066-0.066-0.434-0.35-1.1-0.85
		c-0.467-0.367-0.733-0.716-0.801-1.05c0-0.133,0.067-0.383,0.2-0.75c0.134-0.333,0.167-0.6,0.101-0.8
		c-0.2,0-0.483-0.083-0.851-0.25c0.267-0.467,0.334-0.934,0.2-1.4c-0.767-0.267-1.483-0.383-2.15-0.35
		c0.667-0.067,0.934-0.4,0.801-1L43.35,73.4c0.601-0.133,0.95-0.667,1.051-1.6c0.133-0.9-0.017-1.566-0.45-2
		c0.6,0.034,1.1-0.083,1.5-0.35c0.434-0.3,0.649-0.733,0.649-1.3c-0.033-0.433-0.199-0.767-0.5-1
		c-0.399-0.267-0.649-0.517-0.75-0.75c0.634-0.367,0.884-0.767,0.75-1.2c-0.133-0.467-0.5-0.733-1.1-0.8
		c0.733-0.133,1.033-0.583,0.9-1.35c-0.134-0.767-0.551-1.083-1.25-0.95c0.166-0.3,0.25-0.65,0.25-1.05
		c-0.034-0.5-0.067-0.9-0.101-1.2c-0.066-0.567-0.033-1.583,0.101-3.05c0.033-0.9,0.017-1.533-0.051-1.9
		c-0.166-0.7-0.583-0.983-1.25-0.85c0.834-0.667,1.134-1.7,0.9-3.1c-0.2-1.2-0.3-1.934-0.3-2.2c0.033-0.767,0-1.233-0.101-1.4
		c-0.166-0.3-0.666-0.383-1.5-0.25c0.334-0.467,0.417-1.017,0.25-1.65c-0.133-0.434-0.366-0.733-0.699-0.9
		c0.733,0.067,0.85-0.417,0.35-1.45c-0.5-1-1.05-1.8-1.65-2.4c0.834-1.167,1.051-1.983,0.65-2.45c-0.167-0.2-0.517-0.283-1.05-0.25
		c-0.3,0-0.7,0.033-1.2,0.1c2.2-0.633,2.85-1.35,1.95-2.15c0.666-0.233,1.017-0.35,1.05-0.35c0.267-0.133,0.45-0.317,0.55-0.55
		h-0.25c0.033-0.167,0.15-0.316,0.351-0.45l-0.051-0.85c0-0.2-0.066-0.567-0.199-1.1c-0.134-0.4-0.167-0.75-0.101-1.05v-0.1l0.2,0.1
		c0.4,0.233,0.667,0.633,0.8,1.2c0.167,0.534,0.167,1.017,0,1.45c0.934-0.3,1.483-0.583,1.65-0.85
		c-0.167-0.233-0.75-0.683-1.75-1.35c0.566,0.167,0.916,0,1.05-0.5c0.134-0.433-0.066-0.7-0.6-0.8
		c0.933-0.067,1.583-0.467,1.949-1.2c0.4-0.767,0.217-1.466-0.55-2.1c1.066,0,1.601-0.434,1.601-1.3V26.1
		c0.433,0.267,0.767,0.517,1,0.75c0.133,0.133,0.233,0.267,0.3,0.4c0.267,0.467,0.399,1.15,0.399,2.05
		c0.034,0.2,0.017,0.934-0.05,2.2c-0.133,2.333-0.383,3.75-0.75,4.25c-0.3,0.367-0.967,0.717-2,1.05c-0.899,0.267-1.434,0.7-1.6,1.3
		c-0.134,0.367-0.134,1.05,0,2.05c0,0.133-0.084,0.467-0.25,1c-0.134,0.4-0.184,0.717-0.15,0.95c0.066,0.467,0.25,0.783,0.55,0.95
		c0.467,0.2,0.784,0.4,0.95,0.6c0.5,0.6,0.634,1.667,0.4,3.2c-0.233,1.667-0.2,2.833,0.1,3.5c0.267,0.533,0.55,1.017,0.851,1.45
		c0.199,0.367,0.25,0.95,0.149,1.75c-0.133,1.167-0.166,1.8-0.1,1.9c0.1,0.133,0.55,0.417,1.35,0.85
		c0.066,0.067,0.134,0.133,0.2,0.2c-0.634,0.2-1.233,0.5-1.8,0.9c0.1,0.367,0.55,1.7,1.35,4c-0.166,0.567-0.166,1.083,0,1.55
		c0.033,0.167,0.134,0.333,0.3,0.5c0.101,0.066,0.2,0.133,0.301,0.2v0.05c0.1,0.633,0.149,1.316,0.149,2.05
		c-0.033,0.667-0.133,1.333-0.3,2l-0.2,0.75l-0.35,0.7c-0.134,0.333-0.417,0.783-0.851,1.35c-0.333,0.534-0.433,1.034-0.3,1.5
		c0.267-0.033,0.767-0.017,1.5,0.05c0,0.033,0.017,0.05,0.05,0.05c0.067-0.1,0.284-0.017,0.65,0.25c0.2,0.133,0.467,0.2,0.8,0.2
		c0.233,0,0.434,0.15,0.601,0.45c0.133,0.233,0.183,0.667,0.149,1.3c-0.066,0.767-0.083,1.217-0.05,1.35
		c0.434,0.1,0.733,0.133,0.9,0.1l0.3,1.35c0.233,1.2,0.366,2.15,0.399,2.85c0,0.067,0,0.15,0,0.25
		C51.35,80.45,51.35,80.65,51.35,80.85z M43.35,101.1c0.867,0.267,1.4,0.65,1.601,1.15c0.133,0.366,0.133,1.066,0,2.1
		c-1.033,0.101-1.783-0.149-2.25-0.75c-0.533-0.899-1.101-1.633-1.7-2.199L43.35,101.1z M44.6,119.85L44.2,119.8
		c-0.4-0.033-0.934,0.05-1.601,0.25c-0.8,0.2-1.35,0.316-1.649,0.351l-0.2,0.05c-0.6,0.033-1.384-0.017-2.35-0.15
		c-1.267-0.166-2.15-0.45-2.65-0.85c-0.467-0.334-0.583-0.767-0.35-1.3l0.05-0.101h0.05c1.767-0.033,3.05-0.116,3.85-0.25
		c1.334-0.2,2.5-0.633,3.5-1.3c0.301-0.333,0.684-0.934,1.15-1.8c0.434-0.8,0.816-1.351,1.15-1.65c0.399-0.366,1.066-0.633,2-0.8
		c0.899-1.167,0.75-3.116-0.45-5.85c1.233-0.634,2.1-1.384,2.6-2.25c0.434-0.801,0.684-1.9,0.75-3.301l-0.25,0.2
		c0.834-0.967,1.217-1.733,1.15-2.3c-0.7-0.066-1.316-0.05-1.851,0.05c1.5-0.8,2.25-2.483,2.25-5.05c-0.466,0.4-0.833,0.667-1.1,0.8
		c-0.467,0.233-0.884,0.267-1.25,0.1c0.033-0.333,0.217-0.783,0.55-1.35c0.434-0.7,0.684-1.133,0.75-1.3l0.75-2.4
		c-0.3-0.5-0.85-0.684-1.649-0.55c0.733-2.3,0.283-3.417-1.351-3.35c0.033-0.8,0.017-1.333-0.05-1.6c-0.066-0.4-0.467-0.65-1.2-0.75
		h-0.3c0.3-0.1,0.6-0.133,0.9-0.1c0.1,0,0.416,0.05,0.949,0.15H48.4l1.949,0.35L50.9,83.9c0,0.2,0.033,0.4,0.1,0.6l0.35,0.6
		l0.5,0.65c0.101,0.133,0.2,0.267,0.301,0.4c0.199,0.3,0.383,0.583,0.55,0.85l0.2,0.5c0.033,0.033,0.05,0.067,0.05,0.1
		c0.033,0.066,0.1,0.3,0.2,0.7c0.066,0.3,0.149,0.517,0.25,0.65l0.899,0.3c0.434,0.6,0.55,1.6,0.351,3
		c-0.233,1.433-0.2,2.417,0.1,2.95c0.066,0.133,0.134,0.25,0.2,0.35l0.149,0.2C55.2,95.883,55.3,95.967,55.4,96
		c0.031,0,0.064,0,0.1,0c0.2,0,0.384,0,0.55,0c0.033,0.067,0.066,0.167,0.101,0.3l0.1,0.25c0,0.034,0,0.067,0,0.1
		s0.017,0.067,0.05,0.1c0,0.033,0,0.083,0,0.15c0.101,0.333,0.134,0.633,0.101,0.9c-0.067,0.667-0.517,1.334-1.351,2l-2,1.55
		c-0.566,0.634-0.816,1.351-0.75,2.15c0.066,1.066,0.033,1.8-0.1,2.2L51.6,105.85c-0.633,0.134-1.399,0.267-2.3,0.4
		c-0.566,0.233-0.783,0.85-0.649,1.85c0.066,0.367,0.25,1,0.55,1.9c0.3,0.833,0.467,1.5,0.5,2c0.066,0.833,0.05,1.45-0.05,1.85
		l-0.25,0.601c-0.2,0.3-0.517,0.517-0.95,0.649c-0.566,0.167-0.917,0.301-1.05,0.4c-0.301,0.233-0.867,0.75-1.7,1.55
		c-0.767,0.566-1.417,0.5-1.95-0.2c-0.634,0.9-1.316,1.5-2.05,1.801c-0.533,0.233-1.434,0.399-2.7,0.5
		c0.566,0.233,1.35,0.316,2.35,0.25c1.167-0.067,1.967-0.051,2.4,0.05C43.983,119.517,44.267,119.65,44.6,119.85z M45.05,93.9
		L45,93.75h0.05c2.033,0,2.917,0.467,2.65,1.4c0,0.033,0,0.067,0,0.1c-0.033,0.033-0.05,0.067-0.05,0.1
		c-0.667,0.133-1.434-0.067-2.301-0.6L45.05,93.9z M53.55,105.05l-1.2,0.55l1.9-2.649c0.062,0.607-0.005,1.058-0.2,1.35
		C53.917,104.6,53.75,104.85,53.55,105.05z M48,119.45c0.434,0.6,0.7,1.25,0.8,1.95c0.066,0.399,0.134,1.1,0.2,2.1
		c-0.033,0.267-0.017,0.634,0.05,1.1l0.65,0.5l0.1,0.65l-0.1,2.65c0,0.267,0.033,0.75,0.1,1.449
		c0.033,0.601-0.017,1.051-0.149,1.351c-0.167,0.366-0.483,0.75-0.95,1.149c-0.233,0.434-0.45,0.967-0.65,1.601
		c-0.233,0.467-0.684,0.733-1.35,0.8c-0.934,0.1-1.467,0.267-1.601,0.5c-0.133,0.2-0.3,0.866-0.5,2
		c-0.199,0.833-0.5,1.45-0.899,1.85c-0.066,0.067-0.25,0.117-0.55,0.15c-0.267,0-0.45,0.15-0.551,0.45c-0.1,0-0.183-0.05-0.25-0.15
		c-0.033,0.434-0.35,1.101-0.949,2c-0.634,0.934-1.15,1.45-1.551,1.55c0.167-0.033,0.367-0.033,0.601,0
		c0.333,0.034,0.517,0.051,0.55,0.051c-0.167,0.666-0.6,1-1.3,1c0.267,0.533,0.517,1.399,0.75,2.6l0.55,1.4
		c0.033,0.066,0.15,0.149,0.35,0.25c0.167,0.1,0.284,0.216,0.351,0.35c0.434,1-0.017,2.566-1.351,4.7
		c0.233,0.166,0.767,0.283,1.601,0.35c0.133,0.367,0.133,0.851,0,1.45c-0.134,0.767-0.2,1.233-0.2,1.4c0,0.399,0.083,1.233,0.25,2.5
		c0,1.166-0.017,1.899-0.05,2.199c-0.066,0.7-0.267,1.384-0.601,2.051c-0.267,0.533-0.433,1.083-0.5,1.649
		c-0.166,1.101-0.25,1.667-0.25,1.7c-0.1,0.566-0.35,1-0.75,1.3c-0.433,0.334-0.716,0.717-0.85,1.15c-0.066,0.267-0.066,0.7,0,1.3
		c0.066,0.566,0.05,1-0.05,1.3c-0.033,0.101-0.134,0.25-0.3,0.45c-0.134,0.2-0.233,0.384-0.301,0.55
		c-0.133,0.434-0.166,1.134-0.1,2.101c0.066,0.933,0.017,1.633-0.15,2.1c-0.399,1.167-1.449,2.333-3.149,3.5
		c0-0.333,0.066-0.884,0.2-1.65c0.066-0.316,0.116-0.6,0.149-0.85l0.05-0.65L35.3,177.2c-0.467,0.366-0.866,0.333-1.2-0.101
		c-0.166-0.166-0.316-0.416-0.449-0.75c0.199,0.067,0.416,0.101,0.649,0.101l0.5-0.101c0.033-0.033,0.066-0.05,0.101-0.05
		c0.033-0.033,0.083-0.066,0.149-0.1c-0.1,0.566,0.184,0.8,0.851,0.7c0.1-0.2,0.133-0.517,0.1-0.95s0.017-0.767,0.15-1
		c0.1-0.167,0.35-0.367,0.75-0.601c0.399-0.199,0.649-0.399,0.75-0.6c0.233-0.533,0.149-1.134-0.25-1.8
		c-0.534-0.767-0.801-1.283-0.801-1.55c0.467-0.834,0.733-1.367,0.801-1.601c-0.034-0.533-0.051-0.899-0.051-1.1
		c0.034-1.434,0.017-2.334-0.05-2.7c-0.166-0.8-0.616-1.55-1.35-2.25c1.1-0.667,1.916-1.25,2.45-1.75c0.966-0.866,1.3-1.733,1-2.6
		c-0.167-0.434-0.75-0.851-1.75-1.25c-0.967-0.367-1.5-0.817-1.601-1.351c0.566,0.033,1.033,0.05,1.4,0.05
		c0.633,0,1.033-0.116,1.2-0.35c0.233-0.267,0.267-0.917,0.1-1.95c-0.233-1.066-0.366-1.75-0.4-2.05
		c0.034,0.167,0.117,0.366,0.25,0.6c0.2-0.533,0.367-1.35,0.5-2.449c0.034-1.034,0.051-1.851,0.051-2.45
		c0.033-1.167,0.183-1.934,0.449-2.3c-0.267-1.134-0.466-1.983-0.6-2.551c-0.233-1.066-0.333-1.933-0.3-2.6
		c0.366,0.033,0.866,0.267,1.5,0.7c0.6,0.434,1.083,0.616,1.45,0.55c0.033-0.366,0.017-1.184-0.051-2.45
		c-0.066-1.033-0.017-1.85,0.15-2.45c0.2,0.267,0.483,0.483,0.85,0.65c0.434,0.167,0.784,0.15,1.051-0.05
		c0.3-0.2,0.433-0.533,0.399-1c-0.1-0.601-0.116-0.983-0.05-1.15c0.1-0.3,0.45-0.7,1.05-1.2c0.467-0.466,0.7-0.983,0.7-1.55
		c0.733-0.1,0.967-0.684,0.7-1.75c-0.267-1-0.7-1.633-1.3-1.899c0.833-0.367,1.6-1.217,2.3-2.551c0.767-1.433,0.533-2.199-0.7-2.3
		c-0.066-0.866-0.15-1.5-0.25-1.899c-0.2-0.601-0.517-1.034-0.95-1.301h0.3c0.367-0.033,0.884-0.216,1.551-0.55
		c0.5-0.267,0.899-0.316,1.199-0.149L48,119.45z M42.3,35.05c0.367-0.033,0.617-0.3,0.75-0.8L42.4,34.6L42.3,35.05z M20.4,70.55
		c0.733-0.066,1.3-0.1,1.7-0.1h0.55c-0.033,0.6,0.15,0.917,0.55,0.95c0.4,0,0.75-0.217,1.05-0.65l0.15-0.25
		c-0.066,0.167-0.066,0.3,0,0.4c0.067,0.533,0.567,0.667,1.5,0.4c0.934-0.233,1.5-0.6,1.7-1.1c0.867,0.566,1.533,0.367,2-0.6
		l-0.95,2.7c-0.3,0.367-0.583,0.6-0.85,0.7c-0.033,0-0.4,0.033-1.1,0.1c-0.233,0.033-0.95,0.183-2.15,0.45
		c-0.833,0.233-1.55,0.284-2.15,0.15l-0.05-0.5c-0.733,0.4-1.333,0.383-1.8-0.05c-0.4-0.367-0.6-0.933-0.6-1.7
		c-0.633-0.067-1.1-0.317-1.4-0.75c-0.333-0.5-0.316-1.017,0.05-1.55C18.567,70.083,19.167,70.55,20.4,70.55z M31.2,64.65L31,66.1
		L30.8,66c-0.399,1.067-0.649,1.8-0.75,2.2H30c0.233-1.267,0.4-2.034,0.5-2.3l0.3,0.1L31.2,64.65z M17.4,93.6
		c-0.267,0.566-0.5,0.933-0.7,1.1c-0.267,0.233-0.583,0.35-0.95,0.35c-0.1,0-0.383-0.017-0.85-0.05c-0.367,0-0.65,0.033-0.85,0.1
		c-0.4,0.167-0.95,0.5-1.65,1c-0.667,0.333-1.333,0.417-2,0.25c-0.1-0.434-0.15-0.717-0.15-0.85c-0.767,0.467-1.717,0.65-2.85,0.55
		c-0.066-1.033-0.066-1.783,0-2.25c1.533,0.267,2.633,0.434,3.3,0.5c1.2,0.167,1.95-0.4,2.25-1.7c0.8,0.967,1.45,0.85,1.95-0.35
		c0.4-0.833,0.65-1.95,0.75-3.35v-0.5l0.15-0.1l0.2,0.1c0.133,0.067,0.35,0.15,0.65,0.25c0.533-0.667,0.95-1.417,1.25-2.25
		c0.233-0.7,0.383-1.467,0.45-2.3l0.45,4.5c0.067,1.133,0.067,1.967,0,2.5l-0.05,0.4c-0.033,0.367-0.133,0.667-0.3,0.9
		c-0.133,0.267-0.383,0.517-0.75,0.75L17.4,93.6z M5.6,112.5c-0.036-0.145-0.103-0.303-0.2-0.475
		c-0.068-0.133-0.151-0.274-0.25-0.426v-0.149c0.167-0.533,0.5-0.95,1-1.25L6.3,110.1c0.133,0.467,0.4,0.7,0.8,0.7
		c0.333-0.033,0.633-0.267,0.9-0.7c0.067-0.1,0.067-0.466,0-1.1l0.05-0.45c0.167-0.133,0.367-0.2,0.6-0.2H8.7l0.05-0.199
		c0.233-0.7,0.383-1.584,0.45-2.65c0.033-1.267-0.133-1.967-0.5-2.1l1-2.65c0,0.733,0.15,2.134,0.45,4.2
		c0.267,1.767,0.317,3.184,0.15,4.25v0.2L9.7,109c-0.3,0.4-0.7,1.05-1.2,1.95c-0.5,0.8-1.067,1.3-1.7,1.5
		C6.3,112.583,5.9,112.6,5.6,112.5z M19.15,118.85c-0.233,0.967-0.133,2.434,0.3,4.4c0.466,2.1,0.65,3.566,0.55,4.4
		c-0.2,1.933-0.3,3.383-0.3,4.35c0,1.2-0.017,1.884-0.05,2.05c-0.2,0.667-0.733,0.917-1.6,0.75c-0.066,0.334-0.1,0.851-0.1,1.55
		c-0.567-0.033-0.883,0.284-0.95,0.95c-0.067,0.834-0.2,1.334-0.4,1.5c-0.434,0.367-0.833,0.417-1.2,0.15v-0.05
		c-0.066-0.267-0.1-0.517-0.1-0.75c-0.267,0-0.517-0.051-0.75-0.15c-0.4-0.2-0.7-0.55-0.9-1.05v-0.101
		c-0.066-0.233-0.083-0.533-0.05-0.899c0-0.101,0.017-0.2,0.05-0.3c0-0.134,0.017-0.233,0.05-0.301v-0.074c0-0.159,0-0.267,0-0.325
		c0.367,0.2,0.9,0.233,1.6,0.1c0.1-0.434,0.133-0.733,0.1-0.899c0.6-0.134,1.017-0.167,1.25-0.101c0.167-0.566-0.066-1.2-0.7-1.899
		c-0.6-0.7-0.833-1.25-0.7-1.65c1.5,0.5,2.483,0.566,2.95,0.2c0.233-0.2,0.3-0.5,0.2-0.9c-0.167-0.566-0.25-0.883-0.25-0.95
		c0.167-0.166,0.333-0.416,0.5-0.75c0.067-0.5-0.033-1.183-0.3-2.05c-0.2-0.467-0.317-0.816-0.35-1.05c-0.067-0.4,0.05-0.7,0.35-0.9
		l0.6,0.65c0.066-0.3-0.017-1.316-0.25-3.05c-0.233-1.5-0.233-2.367,0-2.601L19.15,118.85z M19.5,117.85
		c-0.767-0.8-1.2-2.116-1.3-3.949c0-0.4,0.05-1.784,0.15-4.15l0.35-5.15c0.1-0.533,0.25-1.017,0.45-1.449l0.75-1.301l0.25-0.449
		c-0.566,2.566-0.5,5.566,0.2,9c0.2,0.966,0.233,2.083,0.1,3.35c-0.067,0.733-0.2,1.833-0.4,3.3L19.5,117.85z M45,97.75
		c0.267,0.167,1.1,0.6,2.5,1.3c1.1,0.733,1.25,1.4,0.45,2c-0.733,0.5-2.05-0.267-3.95-2.3L45,97.75z M20.6,118.6l-0.05-0.05v-0.2
		l-0.25-1.6l-0.2,0.2c0.233-1.5,0.65-2.467,1.25-2.9c0,0.101-0.233,1.55-0.7,4.351l0.7,0.35L20.6,118.6z M23.1,126.7l-0.4-0.851
		c-0.3-0.066-0.617-0.05-0.95,0.051l-0.1-0.801c-0.6,0.034-0.933-0.25-1-0.85c-0.033-0.233-0.017-0.8,0.05-1.7
		c0.2,0.467,0.5,0.75,0.9,0.851c0.3-0.301,0.566-0.767,0.8-1.4c0.367-0.9,0.583-1.4,0.65-1.5c-0.066,3.167-0.05,5.217,0.05,6.15
		V126.7z M26.65,134c-0.282-0.376-0.499-0.692-0.65-0.95c-0.061-0.111-0.111-0.211-0.15-0.3c-0.067-0.167-0.117-0.3-0.15-0.4
		c-0.034-0.166-0.067-0.366-0.1-0.6c-0.067-0.5-0.117-1.233-0.15-2.2c0.133,0,0.233,0.033,0.3,0.101c0.033,0.033,0.15,0.3,0.35,0.8
		C26.467,131.283,26.65,132.467,26.65,134z M29.9,154.4l0.45,0.05v0.899c-0.066-0.166-0.149-0.35-0.25-0.55
		c-0.033-0.066-0.05-0.116-0.05-0.149L29.9,154.4z M30.7,159c0-0.066,0.017-0.134,0.05-0.2c0.2-0.833,0.267-1.467,0.2-1.899
		l-0.05-0.15h0.05c0.2,0.1,0.416,0.134,0.649,0.1C31.5,157.25,31.2,157.967,30.7,159z M31.05,163.75c-0.2-0.167-0.333-0.3-0.399-0.4
		c-0.034-0.066-0.067-0.149-0.101-0.25l-0.05-0.149c-0.133-0.433-0.2-0.949-0.2-1.55c0.001,0.034,0.018,0.067,0.05,0.1
		c0.101,0.233,0.317,0.35,0.65,0.35C31.4,162.384,31.417,163.017,31.05,163.75z M31.65,171.4c-0.167-0.5-0.184-1.483-0.051-2.95H32
		c0,0.033-0.1,1.05-0.3,3.05L31.65,171.4z M22.15,128.35c0.3,0.9,0.517,1.684,0.65,2.351l0.2,1.1c0.033,0.7-0.083,1.184-0.35,1.45
		c-0.033-1.233-0.167-2.717-0.4-4.45C22.217,128.634,22.183,128.483,22.15,128.35z M12.95,133.95l-0.3-0.2
		c-0.2-0.467-0.267-1.083-0.2-1.85l0.25-0.5C12.7,132.566,12.783,133.417,12.95,133.95z"/>
	<path style="fill-rule:evenodd;clip-rule:evenodd;fill:#5B5527;" d="M45.3,24.5v-0.1l0.05-0.55
		C45.35,23.95,45.333,24.167,45.3,24.5z M47.55,72.1l-0.2-0.8l0.25,0.85C47.566,72.15,47.55,72.133,47.55,72.1z M47.55,68.5
		l0.2-0.75l0.3-0.95c-0.1,0.434-0.3,1.133-0.6,2.1C47.483,68.767,47.517,68.633,47.55,68.5z M47.3,62.95
		c-0.166-0.467-0.166-0.983,0-1.55c0.101-0.3,0.184-0.566,0.25-0.8C47.25,61.767,47.167,62.55,47.3,62.95z M52.7,87
		c-0.167-0.267-0.351-0.55-0.55-0.85l0.05,0.05C52.4,86.467,52.566,86.733,52.7,87z M36.7,10.05c0.967,0.4,1.6,1.034,1.899,1.9
		c0.267,0.7,0.267,1.233,0,1.6c-0.267,0.3-0.767,0.5-1.5,0.6c0.101,0.2,0.483,0.917,1.15,2.15c0.434,1.067,0.05,1.45-1.15,1.15
		c0.101,0.633,0.5,2.167,1.2,4.6c0.601,2.1,0.917,3.784,0.95,5.05H38.4c0,0.433,0.216,1.083,0.649,1.95L38.7,30.1l0.1,0.1
		c-0.2,0.2-0.45,0.283-0.75,0.25c-0.133,0.733-0.133,1.917,0,3.55c-0.166,0.1-0.383,0.133-0.649,0.1l-0.051,1.5
		c-0.333,0.3-0.767,0.467-1.3,0.5c-1.2,0.133-1.967,0-2.3-0.4c-0.233-0.267-0.366-0.934-0.4-2c-0.033,0.767-0.35,1.783-0.949,3.05
		c-0.233,0.867-0.217,1.467,0.05,1.8c0.2,0.333,0.717,0.534,1.55,0.6c-0.033,0.167-0.017,0.467,0.05,0.9
		c0.334,0.034,0.7,0.034,1.101,0c0.333,1,0.216,1.8-0.351,2.4c0.667-0.067,0.967,0.283,0.9,1.05c-0.134,1.033-0.2,1.567-0.2,1.6
		c0.3,0.533,1.1,0.816,2.4,0.85c1.333,0.033,2.166,0.3,2.5,0.8c0.3,0.433,0.433,1.6,0.399,3.5c-0.033,1.933-0.267,3-0.7,3.2
		c0.801,1.133,1.367,2.233,1.7,3.3c0.434,1.567,0.084,2.483-1.05,2.75c0.4,0.267,0.934,0.6,1.6,1c0.467,0.4,0.7,0.933,0.7,1.6
		c0,0.867-0.25,1.667-0.75,2.4c-0.333,0.533-0.616,0.917-0.85,1.15c-0.033,0.1,0.033,0.583,0.2,1.45
		c0.1,0.767-0.017,1.283-0.351,1.55c-0.1,0.067-0.616,0.267-1.55,0.6c-0.267-0.2-0.583-0.283-0.95-0.25
		c-1.166,0.1-1.649,1.217-1.45,3.35c0.101,1.167,0.317,2.633,0.65,4.4l1.35-2.65c0.434-1.3,0.684-2.367,0.75-3.2
		c0.367,1.233,0.384,2.4,0.051,3.5c1.199,0.7,1.966,1.184,2.3,1.45c0.866,0.767,1.2,1.55,1,2.35c-0.134,0.5-0.467,0.85-1,1.05
		c-0.5,0.233-0.983,0.233-1.45,0v2.15c-0.467,0.133-0.917,0.133-1.35,0c-0.467-0.167-0.801-0.467-1-0.9
		c0.033,0.267,0.1,1.017,0.199,2.25c0.034,1.167-0.116,1.833-0.449,2c-0.7,0.367-1.317,0.1-1.851-0.8
		c-0.434-1.1-0.733-1.817-0.899-2.15c-0.467,1.467-0.934,1.917-1.4,1.35c-0.467-0.533-0.65-1.45-0.55-2.75
		c-0.134,0.633-0.434,1.167-0.9,1.6c-0.533,0.533-1.017,0.55-1.45,0.05c-0.933,0.367-1.3,1.434-1.1,3.2c0.2,1.667,1,1.85,2.4,0.55
		c-1.034,1.267-1.417,2.267-1.15,3c0.267,0.733,1.167,0.633,2.7-0.3c-0.033,0.3-0.117,0.817-0.25,1.55
		c-0.033,0.633,0.166,1.017,0.6,1.15c1.167,0.367,2.233-0.767,3.2-3.4c-0.167,0.767-0.167,1.417,0,1.95
		c0.566,0.267,1.25,0.183,2.05-0.25c0.267-0.133,0.884-0.567,1.851-1.3l0.199,0.7c0.067-0.033,0.334-0.283,0.801-0.75
		c0.3-0.267,0.6-0.383,0.899-0.35c0.066,0.567,0.184,0.967,0.351,1.2c0.033,0.067,0.3,0.317,0.8,0.75
		c0.033,0.033,0.184,0.067,0.45,0.1c0.233,0.033,0.416,0.133,0.55,0.3c0.3,0.3,0.416,0.717,0.35,1.25
		c0.033,0.233-0.017,0.45-0.149,0.65l-0.45,0.3c-0.367,0.433-0.5,0.9-0.4,1.4H45l0.05,0.15c-0.333,1.233-0.85,2.05-1.55,2.45
		s-1.75,0.517-3.15,0.35c0.434,0.066,0.784,0.25,1.051,0.55c0.3,0.333,0.416,0.717,0.35,1.15C41.316,98.8,40.4,99,39,99
		c-0.967,0-1.8-0.083-2.5-0.25c1.366,0.434,2.467,1.25,3.3,2.45c0.9,1.366,0.184,1.983-2.149,1.85
		c1.133,0.867,2.116,2.167,2.949,3.9c0.9,1.8,1.284,3.416,1.15,4.85c-0.066,0.233-0.2,0.351-0.4,0.351c-0.033,0.267,0,0.8,0.101,1.6
		c-0.134,0.7-0.8,1.15-2,1.35c-0.9,0.134-1.816,0.117-2.75-0.05c0.866,0.533,1.116,1.25,0.75,2.15
		c-0.367,0.899-0.884,0.883-1.55-0.05c-0.134,0.466-0.267,0.767-0.4,0.899h-0.05l-0.05,0.101c-0.301,0.433-0.767,0.449-1.4,0.05
		c-0.1,0.366-0.066,0.767,0.1,1.2l1.65,0.05c0.5,0.399,1.384,0.684,2.65,0.85c0.966,0.134,1.75,0.184,2.35,0.15l0.2-0.05
		c-0.066,0.433-0.05,0.8,0.05,1.1c0.134,0.4,0.65,1.25,1.55,2.55c0.533,1.167,0.184,1.867-1.05,2.101
		c0.6,0.966,0.983,1.683,1.15,2.149c0.366,0.9,0.449,1.684,0.25,2.351c-1.034,0.566-2.117,0.583-3.25,0.05
		c-0.367-0.5-0.834-0.733-1.4-0.7c0.667,1.2,1.1,2.033,1.3,2.5c0.434,1.066,0.584,1.967,0.45,2.7c-1.033-0.101-1.983-0.65-2.85-1.65
		c0.399,0.733,0.683,1.566,0.85,2.5s0.15,1.733-0.05,2.4l-0.45-0.15c-0.4-0.5-0.884-1-1.45-1.5c0.167,0.667,0.65,1.167,1.45,1.5
		c1.134,1.533,1.517,3,1.15,4.4c-0.767-0.167-1.2,0.217-1.301,1.149c-0.066,0.534-0.066,1.301,0,2.301
		c0.034,1.8-0.333,2.35-1.1,1.649c-0.7-0.633-1.267-1.633-1.7-3c0.7-0.133,1.3-1.6,1.8-4.399l-1.649-1
		c-0.101,0.399-0.417,1.25-0.95,2.55c-0.4,1.2-0.384,2.033,0.05,2.5c0.2,0.2,0.384,0.316,0.55,0.35
		c-0.033,0.533-0.033,1.316,0,2.351c0,0.933-0.133,1.699-0.399,2.3c-0.5-0.767-0.884-1.8-1.15-3.101
		c-0.133-0.5-0.316-1.616-0.55-3.35c-0.2,0.366-0.4,0.95-0.6,1.75c-0.733-0.934-1.101-2.366-1.101-4.3
		c0.667,0.133,1.4,0.083,2.2-0.15c0.767-0.233,1.25-0.6,1.45-1.1c0.2-0.7,0.366-1.3,0.5-1.8l-1.351-0.65
		c-0.267,0.2-0.716,0.483-1.35,0.85c-0.6,0.367-1.05,0.7-1.35,1l0.1-1.949c0.566-0.067,1.083-0.334,1.55-0.801
		c0.467-0.466,0.7-0.949,0.7-1.449l-2.25,1.449l-0.1-1.55c-0.367,0.334-0.817,0.5-1.351,0.5c-0.6-1.1-0.566-3.017,0.1-5.75
		c0.333,0.167,0.716,0.184,1.15,0.05c0.434-0.133,0.767-0.35,1-0.649c-0.5,0.899-0.75,1.967-0.75,3.2
		c-0.033,1.366,0.467,1.833,1.5,1.399c0.134-0.399,0.05-0.916-0.25-1.55c-0.366-0.667-0.616-1.15-0.75-1.45
		c0.167-0.2,0.434-0.3,0.8-0.3c0.4,0,0.7-0.017,0.9-0.05c0.1-0.566-0.017-1.351-0.35-2.351c0.399-0.166,0.683-0.283,0.85-0.35
		c0.233-0.134,0.417-0.35,0.55-0.65c0.066-0.133,0.084-0.5,0.05-1.1c-0.033-0.4,0.134-0.667,0.5-0.8
		c0.267,0.399,0.417,0.934,0.45,1.6c0,0.101-0.017,0.667-0.05,1.7l2-5c-0.3-0.533-0.866-1.033-1.7-1.5
		c-0.899-0.434-1.649-0.583-2.25-0.45c0.066,0.233,0.066,0.65,0,1.25c-0.434,0.066-1.149,0.066-2.149,0c-0.867,0-1.5,0.233-1.9,0.7
		c0.133,0.2,0.383,0.316,0.75,0.35c0.434,0.067,0.733,0.15,0.9,0.25c-0.101,0.2-0.434,0.567-1,1.101
		c-0.467,0.566-0.65,0.983-0.55,1.25c0.133,0.366,0.467,0.517,1,0.45c-0.833,1.1-1.333,0.3-1.5-2.4c0.033-3.033,0.033-4.684,0-4.95
		c-0.267,0-0.6,0.134-1,0.4c-0.4,0.233-0.733,0.3-1,0.2c-0.667-0.2-1.017-0.917-1.05-2.15c0.1-1.366,0.15-2.25,0.15-2.65
		c-0.2,0.334-0.434,0.5-0.7,0.5c-0.2,0-0.5-0.133-0.9-0.399c-0.567-0.367-0.9-1.033-1-2c-0.033-1.101-0.083-1.884-0.15-2.351
		c-1.9,0.434-2.55-0.699-1.95-3.399c0.1-0.434,0.567-3.05,1.4-7.851c-0.5,1.101-1.283,1.534-2.35,1.301
		c-0.1,0.267-0.15,0.75-0.15,1.449l-0.75,1.301c-0.2,0.433-0.35,0.916-0.45,1.449l-0.35,5.15l0.05-1.6c-0.3,0.3-0.75,0.399-1.35,0.3
		c0.967,0.666,1.333,1.233,1.1,1.7c-0.1,0.233-0.683,0.767-1.75,1.6c0.733,1.167,0.967,2.05,0.7,2.65c-0.3,0.666-1.2,0.866-2.7,0.6
		c0.5,0.366,0.934,1.1,1.3,2.2c0.367,1.2,0.333,2.017-0.1,2.45c-0.5,0.533-1.083,0.566-1.75,0.1c-0.067-0.733-0.2-1.233-0.4-1.5
		c-0.3,0.566-0.167,1.066,0.4,1.5c0.1,1.167,0.017,2.134-0.25,2.9c-0.867-0.101-1.633-0.567-2.3-1.4c0.067,0.467,0.184,1.2,0.35,2.2
		c0.1,0.899,0.1,1.649,0,2.25H11.4c-0.033-0.033-0.033-0.066,0-0.101c0.033-0.5,0-1.017-0.1-1.55c-0.533,0.033-0.966-0.066-1.3-0.3
		c-0.533-0.4-0.867-0.634-1-0.7s-0.467-0.083-1-0.05c-0.2,0-0.4-0.066-0.6-0.2c-0.1-0.066-0.2-0.166-0.3-0.3
		c-0.133-0.2-0.184-0.517-0.15-0.95c0-0.066,0-0.133,0-0.2c0.066-0.699,0.083-1.1,0.05-1.199c-0.167,0-0.483,0.05-0.95,0.149
		c-0.367,0.101-0.683,0.134-0.95,0.101H5.05c-0.133-0.434-0.25-1.084-0.35-1.95c-0.034-0.3-0.083-0.566-0.15-0.8
		c-0.066-0.5-0.15-0.884-0.25-1.15c-0.033-0.033-0.117-0.184-0.25-0.45c0.067,0.101,0.15,0.233,0.25,0.4H6
		c-0.067,0.166-0.15,0.416-0.25,0.75c0.3,0.133,0.667,0.2,1.1,0.2c0.5,0.033,0.867,0.05,1.1,0.05c0.133,0.399,0.167,1.017,0.1,1.85
		c0.467,0.167,0.934,0.233,1.4,0.2c0.566-0.066,0.983-0.283,1.25-0.65c0.167,0.4,0.433,0.733,0.8,1
		c0.433,0.301,0.817,0.351,1.15,0.15c0.2-0.667,0.1-1.5-0.3-2.5c-0.6-1.5-0.917-2.3-0.95-2.4c0.4-0.1,0.617-0.366,0.65-0.8
		c0-0.533,0-0.934,0-1.2c0.867,0.034,1.517,0.017,1.95-0.05c0-1.267,0.083-2.1,0.25-2.5c0.233-0.6,0.817-1.083,1.75-1.45l-1.3-0.699
		c-1.667,0-2.667,0.017-3,0.05c0.066,0.066,0.1,0.2,0.1,0.399c0,0.101,0.15,0.167,0.45,0.2c-0.5,0.167-0.783,0.467-0.85,0.9
		c-0.066,0.434,0.2,0.666,0.8,0.7c-1.167,0.566-1.784,0.883-1.85,0.949v-0.149c0.1-0.467,0.083-1.217-0.05-2.25
		c0.167-1.066,0.117-2.483-0.15-4.25c-0.3-2.066-0.45-3.467-0.45-4.2l-1,2.65c0.367,0.133,0.533,0.833,0.5,2.1
		c-0.067,1.066-0.217,1.95-0.45,2.65L8.7,108.35H8.65c-0.233,0-0.433,0.067-0.6,0.2L8,109l-0.05,0.05
		c-0.133,0.101-0.333,0.15-0.6,0.15s-0.483,0.083-0.65,0.25c-0.167,0.1-0.35,0.35-0.55,0.75c-0.5,0.3-0.833,0.717-1,1.25v0.149
		c-0.25-0.366-0.601-0.783-1.05-1.25c-1.3-1.399-2-2.166-2.1-2.3c-0.767-1.133-1.3-2.283-1.6-3.45c-0.133-0.466-0.233-0.833-0.3-1.1
		c-0.033-0.1-0.05-0.184-0.05-0.25c-0.066-0.366-0.066-0.65,0-0.85c0.083-0.167,0.3-0.317,0.65-0.45
		c-0.2,0.083-0.35,0.166-0.45,0.25c0.733,0.8,1.333,1.217,1.8,1.25H2.4L2.9,104c-0.5-0.033-0.8,0.134-0.9,0.5
		c-0.133,0.333-0.033,0.684,0.3,1.05c0.2,0.2,0.617,0.316,1.25,0.351c0.567,0.066,0.95,0.316,1.15,0.75
		c-0.3-1.233,0.017-1.767,0.95-1.601c0.033-0.1,0.017-0.45-0.05-1.05c-0.033-0.434,0.033-0.75,0.2-0.95
		c0.3-0.399,0.733-0.616,1.3-0.649c0.566,0,0.983,0.216,1.25,0.649L8,102.4c-0.067-0.767-0.5-1.551-1.3-2.351
		c0.233-0.399,0.85-0.517,1.85-0.35c1.133,0.166,1.8,0.2,2,0.1c0.4-0.233,0.633-0.633,0.7-1.2c0.033-0.6,0.267-1.05,0.7-1.35
		c0.433-0.3,1.233-0.367,2.4-0.2c1.167,0.167,1.967,0.084,2.4-0.25c-0.067-0.367-0.4-0.95-1-1.75c0.367,0,0.683-0.117,0.95-0.35
		c0.2-0.167,0.433-0.534,0.7-1.1c2.267,0.2,3.633,0.033,4.1-0.5c-0.3-0.333-0.75-0.633-1.35-0.9c-0.8-0.367-1.267-0.6-1.4-0.7
		l0.05-0.4c1.233-0.1,1.4-0.783,0.5-2.05l-0.5-0.45l-0.45-4.5c-0.067,0.833-0.217,1.6-0.45,2.3c-0.533-0.767-0.933-1.35-1.2-1.75
		c-0.333-0.5-0.55-0.983-0.65-1.45l0.15,1.4l-1.5,1.8v1.95c0.433,0.2,0.75,0.217,0.95,0.05v0.5c-0.333,0.333-0.733,0.517-1.2,0.55
		c-0.467,0-0.817-0.2-1.05-0.6C13.167,89.217,12.7,90,12,91.2c-0.7,1.033-1.383,1.566-2.05,1.6c-0.3-0.6-0.367-1.4-0.2-2.4
		c-0.267,0.633-0.667,1.217-1.2,1.75c-0.667,0.667-1.3,0.95-1.9,0.85L7,94.05c-0.367-1-0.583-1.6-0.65-1.8c0-0.967-0.1-1.9-0.3-2.8
		c-0.1-0.467-0.167-0.9-0.2-1.3L6,87.1l-0.3,0.15c-0.1-0.767-0.117-1.383-0.05-1.85c-0.1-0.733,0.117-1.367,0.65-1.9l0.35-0.3
		c0.033-0.534-0.05-1.067-0.25-1.6c0.067-1.434,0.583-2.067,1.55-1.9c-0.067-1.733-0.067-3.25,0-4.55
		c0.066,0.033,0.2,0.117,0.4,0.25l-0.4,0.45c0,1.066,0.017,2.283,0.05,3.65c0.133,0.167,0.35,0.4,0.65,0.7
		c0.233,0.267,0.383,0.533,0.45,0.8c0.033-1.067,0.066-1.65,0.1-1.75c0.133-0.2,0.617-0.4,1.45-0.6c-0.2-0.933-0.3-1.617-0.3-2.05
		c0-0.8,0.433-1.083,1.3-0.85c0.033-0.233-0.05-0.933-0.25-2.1c-0.167-0.9-0.083-1.566,0.25-2c0.467,0.1,0.817,0.167,1.05,0.2
		c0.433,0.066,0.783,0.05,1.05-0.05c-0.267-0.8-0.05-1.267,0.65-1.4c0.267,0.267,0.367,0.6,0.3,1l1.65-2l-0.15,0.2l0.2,2.9
		c0,2.167,0.317,3.367,0.95,3.6c0.433,0.167,0.8,0.083,1.1-0.25c0.133-0.167,0.3-0.517,0.5-1.05c-0.1,1.867,0.566,2.7,2,2.5
		c1.355-0.231,2.171-1.098,2.45-2.6c-0.131,0.807-0.114,1.423,0.05,1.85c0.2,0.6,0.683,0.883,1.45,0.85
		c0.6-0.033,1.117-0.25,1.55-0.65c0.433-0.4,0.716-0.883,0.85-1.45c0.1,0.6,0.583,0.867,1.45,0.8h0.05c-1,0.467-1.6,1-1.8,1.6
		c1.033,0.2,2.05,0.167,3.05-0.1c1.101-0.267,1.983-0.767,2.65-1.5l-0.351-0.7c-0.8,0-1.616,0.117-2.45,0.35
		c0.466-0.367,0.75-1.017,0.85-1.95c0.033-0.4,0-1.15-0.1-2.25c1,0.534,1.649,0.434,1.949-0.3c0.233-0.667,0.117-1.433-0.35-2.3
		l0.4,0.1c0.066-0.533,0.066-1.233,0-2.1c-0.067-0.967-0.167-1.684-0.301-2.15c0.534,0.034,0.801-0.633,0.801-2
		C33.05,61.3,33,60.4,33,60.1l-1.65,2l-0.05,0.8c-0.233-0.5-0.316-0.983-0.25-1.45c-0.133,0.533-0.533,1.966-1.2,4.3
		c-0.733,2-1.55,2.833-2.45,2.5c-0.2,0.867-0.383,1.483-0.55,1.85c-0.367,0.667-0.867,1.017-1.5,1.05c-0.4,0-0.717-0.083-0.95-0.25
		c-0.066-0.1-0.066-0.233,0-0.4l-0.15,0.25c-0.1-0.1-0.383-0.5-0.85-1.2c-0.033,0-0.467,0.3-1.3,0.9c-0.4,0-0.967,0.033-1.7,0.1
		c-0.267-0.267-0.4-0.917-0.4-1.95c0-0.934-0.217-1.517-0.65-1.75c-0.8,0.633-1.25,0.983-1.35,1.05
		c-0.633,0.367-1.15,0.383-1.55,0.05c-0.1-0.567-0.1-1.133,0-1.7l-0.1-0.15c-0.167,0.967-0.217,2.017-0.15,3.15
		c-0.067-0.067-0.434-0.583-1.1-1.55c-0.434-0.633-0.883-1.017-1.35-1.15c-0.3,0.3-0.45,0.8-0.45,1.5
		c-0.966-0.433-1.617-0.316-1.95,0.35c-0.3,0.633-0.217,1.4,0.25,2.3c-0.7-0.034-1.1,0.216-1.2,0.75
		c-0.033,0.3-0.066,0.816-0.1,1.55c-1.033,0.167-1.8,0.417-2.3,0.75c0.1-2.333,0.633-3.317,1.6-2.95c0.1-0.3,0.217-0.917,0.35-1.85
		c0.1-0.8,0.25-1.417,0.45-1.85c0.3-0.767,0.767-1.45,1.4-2.05c0.1-0.2,0.35-1.017,0.75-2.45c0.267-1.033,0.65-1.783,1.15-2.25
		c0.2,0.2,0.4,0.467,0.6,0.8c0.233,0.4,0.467,0.934,0.7,1.6c0.5,1.533,0.817,2.417,0.95,2.65c0.167,0.3,0.433,0.733,0.8,1.3
		c0.3,0.566,0.5,1.033,0.6,1.4l0.5-0.7L20,64.1c-0.5-0.2-0.833-0.7-1-1.5c-0.2-0.733-0.2-1.367,0-1.9
		c0.067-0.167,0.233-0.417,0.5-0.75c0.267-0.267,0.4-0.467,0.4-0.6c0.067-0.333-0.017-0.833-0.25-1.5
		c-0.2-0.667-0.283-1.184-0.25-1.55c0.033-0.133,0.184-0.617,0.45-1.45c0.1-0.333-0.017-0.767-0.35-1.3
		c-0.533-0.7-0.917-1.2-1.15-1.5c-0.4-0.466-0.617-1.017-0.65-1.65c-0.067-0.633,0.05-1.133,0.35-1.5
		c0.4-0.367,0.717-0.733,0.95-1.1c-0.9-0.867-1.15-2.383-0.75-4.55s1.2-3.467,2.4-3.9c0.1,0.233,0.217,0.566,0.35,1
		c0.2,0.733,0.467,1.783,0.8,3.15c0.6,1.667,1.45,2.433,2.55,2.3c0.1,0,0.2-0.017,0.3-0.05v0.35l0.05,1.15
		c0.6-0.333,1.1-0.617,1.5-0.85c0.333-0.233,0.6-0.433,0.8-0.6c0.767-0.667,0.983-1.45,0.65-2.35c-0.333-0.3-0.617-0.667-0.85-1.1
		c-0.133-0.833-0.183-1.7-0.15-2.6c0-0.533,0.017-0.9,0.05-1.1c0.066-0.333,0.25-0.633,0.55-0.9c-1.4-0.467-1.65-1.683-0.75-3.65
		s1.75-2.333,2.55-1.1c-0.033-1.9,0-3.283,0.1-4.15c0.167-1.7,0.583-2.967,1.25-3.8c0.733-0.767,1.199-1.3,1.399-1.6
		c0.267-0.4,0.45-1,0.55-1.8c0.034-0.267,0.15-0.683,0.351-1.25c0.2-0.533,0.3-0.95,0.3-1.25c-0.634-1.267-0.967-1.983-1-2.15
		c-0.366-1.433-0.467-2.867-0.3-4.3c0.066-0.8,0.483-1.633,1.25-2.5c0.833-0.934,1.316-1.667,1.45-2.2C34.2,6.167,34.1,4.6,34.1,3.3
		c0.028,0.82,0.111,2.02,0.25,3.6c0.834,0.733,0.983,1.533,0.45,2.4L36.65,10L36,12.4c-0.434-0.033-0.733,0.15-0.9,0.55
		c0.5,0.4,0.9,0.167,1.2-0.7C36.533,11.617,36.667,10.883,36.7,10.05z M55.5,96c-0.035,0-0.068,0-0.1,0
		c-0.101-0.033-0.2-0.117-0.301-0.25C55.231,95.914,55.364,95.998,55.5,96z M52.65,105.75l0.899-0.7
		c-0.033,0.033-0.066,0.066-0.1,0.101C53.316,105.283,53.05,105.483,52.65,105.75z M49.7,125.1c0.066,0.2,0.108,0.476,0.125,0.825
		c-0.006-0.071-0.014-0.13-0.025-0.175L49.7,125.1z M48,119.45l0.6-0.05c0.801-0.067,1.25-0.15,1.351-0.25
		c0.033-0.034,0.066-0.067,0.1-0.101c-0.066,0.101-0.133,0.167-0.2,0.2C49.65,119.35,49.033,119.417,48,119.45z M36,14.4l-1,3.35
		c-0.6,0.2-1.017,0.6-1.25,1.2c-0.3,0.667-0.134,1.15,0.5,1.45c0.8,0.4,1.333-0.367,1.6-2.3C36.017,16.867,36.066,15.633,36,14.4z
		 M33.35,24.7c-0.6-0.034-1.05,0.133-1.35,0.5c-0.167,0.233-0.4,0.65-0.7,1.25c-0.166,0.3-0.45,0.667-0.85,1.1
		c-0.2,0.367-0.101,0.733,0.3,1.1c0.233,0.233,0.7,0.267,1.4,0.1c0.566-0.133,1-0.317,1.3-0.55c0,0.033-0.2,0.333-0.601,0.9
		c-0.333,0.433-0.483,0.733-0.449,0.9c0.066,0.467,0.233,0.717,0.5,0.75c0.3,0.033,0.566-0.167,0.8-0.6
		c-0.066,0.467-0.017,0.917,0.149,1.35c0.2,0.467,0.483,0.783,0.851,0.95c0.533-0.467,0.8-1.317,0.8-2.55
		c-0.1-1.367-0.116-2.316-0.05-2.85c0.166-2.167,0.25-3.483,0.25-3.95l-1.351,0.65c-0.199-0.3-0.483-0.417-0.85-0.35
		c0,0.067-0.033,0.283-0.1,0.65C33.333,24.317,33.316,24.533,33.35,24.7z M48.1,81.95H48l0.1-0.15V81.95z M18.7,104.6
		c-0.333-0.166-0.667-0.533-1-1.1c-0.4-0.733-0.667-1.167-0.8-1.3c0.067,0.3,0.3,0.916,0.7,1.85c0.467,1.033,0.767,1.783,0.9,2.25
		L18.7,104.6z M25.7,114.6c0.2,0.301,1.033,0.567,2.5,0.801c1.3,0.333,2.267,0.566,2.899,0.699c1.134,0.2,2.167,0.117,3.101-0.25
		c-0.233-0.033-0.75-0.1-1.55-0.199c-0.7-0.134-1.15-0.351-1.351-0.65c-0.566-0.833-0.45-1.316,0.351-1.45
		c-0.233-0.333-1.051-0.717-2.45-1.149c-1.2-0.367-1.833-0.817-1.9-1.351c0.355-0.29,0.739-0.391,1.15-0.3
		c-0.71-0.174-1.344-0.457-1.9-0.85c-0.8-0.534-1.083-1.134-0.85-1.801c0.867,0,1.517-0.017,1.95-0.05c0.1-0.333,0-0.767-0.3-1.3
		c-0.267-0.566-0.367-1-0.3-1.3c0.867,0,1.517-0.033,1.95-0.101c-0.067-0.199-0.017-0.383,0.15-0.55c1.433,0.2,2.35,0.084,2.75-0.35
		c0.199-0.233,0.283-0.566,0.25-1c-0.034-0.434-0.167-0.783-0.4-1.05c0.833-0.233,1.566-0.75,2.2-1.551
		c-0.066,0.367,0.017,0.684,0.25,0.95c0.333,0.4,0.967,0.517,1.899,0.351c0.867-0.134,1.5-0.384,1.9-0.75l-4-1.65
		c0.033,0.233,0.017,0.55-0.05,0.95L32,99.4c-0.467,0.199-0.917,0.566-1.35,1.1c-0.5,0.6-0.584,1.116-0.25,1.55l0.25,0.2l0.699-0.15
		l-3.649,1c-0.3-0.399-0.7-0.633-1.2-0.699c-0.5-0.101-0.9,0.017-1.2,0.35l0.25,0.4c-0.333,0.133-1.066,0.267-2.2,0.399
		c-0.934,0.267-1.267,0.767-1,1.5l1.7,0.05c-0.1,0.167-0.716,0.534-1.85,1.101c-0.9,0.467-1.267,0.967-1.1,1.5
		c0.267,0.066,0.667,0.083,1.2,0.05c0.534,0,0.934,0.017,1.2,0.05c-0.1,0.167-0.367,0.467-0.8,0.9
		c-0.367,0.399-0.483,0.75-0.35,1.05s0.583,0.434,1.35,0.4c0.9,0,1.4,0.017,1.5,0.05c-1.034,0.934-1.417,1.684-1.15,2.25
		c0.133,0.233,0.483,0.35,1.05,0.35c0.6-0.033,0.983-0.05,1.15-0.05C25.683,113.55,25.5,114.167,25.7,114.6z M28.7,41.75
		c0.733,0.267,1.399,0.383,2,0.35l1-1c-0.634-0.467-1.283-0.8-1.95-1c-1.033-0.333-1.7-0.2-2,0.4
		C27.483,41.033,27.8,41.45,28.7,41.75z M29.85,45.6c1.167-0.133,1.883-0.2,2.15-0.2l-0.65-1.65c-0.267-0.033-0.75-0.033-1.45,0
		c-0.833,0.033-1.533,0.1-2.1,0.2c0.1,0.533-0.033,1.033-0.4,1.5C27.9,45.617,28.717,45.667,29.85,45.6z M23.1,48.15
		c-0.267,0.667,0.367,1.533,1.9,2.6c1.4,1,2.517,1.55,3.35,1.65l-1.65-1.65c0.2-0.9-0.15-1.617-1.05-2.15
		C24.817,48.1,23.967,47.95,23.1,48.15z M32.35,39.1c0.067-1.333-0.733-3.1-2.399-5.3c-0.633,0.9-0.667,2.117-0.1,3.65
		c0.567,1.566,1.4,2.45,2.5,2.65V39.1z M33.3,46.35c-0.6-0.133-1.05,0.2-1.35,1L31,46.4c-0.1,0.133-0.667,0.733-1.7,1.8
		c-0.9,1.1-1.183,1.8-0.85,2.1c0.4,0.4,1.466,0.434,3.2,0.1c0.133,1.467,0.366,2.367,0.699,2.7l1-0.7L33.45,50l0.899-0.25
		l-0.899-0.9C33.45,47.717,33.4,46.883,33.3,46.35z M35.7,58.4l-2,2l1.649,1.35c0.4-0.167,0.584-0.667,0.551-1.5
		C35.767,59.317,35.7,58.7,35.7,58.4z M25,53.1l-1.65-1.7l-1.25-0.95c-0.5-0.367-0.967-0.483-1.4-0.35
		c-0.133,0.633,0.167,1.417,0.9,2.35c-0.567,0.267-0.733,0.683-0.5,1.25c0.8,0.1,1,0.466,0.6,1.1l-1,1.65
		c-0.034,0.2,0.066,0.5,0.3,0.9c0.233,0.467,0.367,0.783,0.4,0.95c0.067,0.3,0.083,0.867,0.05,1.7c0.066,0.633,0.466,0.85,1.2,0.65
		c-0.033-1.133,0-1.983,0.1-2.55c0.133,0.033,0.35,0.017,0.65-0.05C23.7,58.017,23.9,58,24,58c-0.233-1.233-0.4-2.2-0.5-2.9
		c-0.167-1.367,0.317-1.6,1.45-0.7C25.083,53.9,25.1,53.467,25,53.1z M28,58.1l-1.3-0.7c-1.2,0-1.917,0.35-2.15,1.05
		c0.367,0.367,0.95,0.5,1.75,0.4C27.067,58.75,27.633,58.5,28,58.1z M25,60.75c-1.167,0.933-1.867,1.833-2.1,2.7
		c0.867,1.133,2.567,0.35,5.1-2.35L25,60.75z M28.15,64.05c0.434,0.367,0.95,0.233,1.55-0.4c0.467-0.5,0.8-1.017,1-1.55l-0.7-1
		c-0.5,0.066-1.05,0.467-1.65,1.2C27.75,63.067,27.683,63.65,28.15,64.05z M31.35,63.35v0.2l-0.149,1.1L31.35,63.35z M32.25,68.95
		c-0.1,0-0.167-0.017-0.2-0.05S32,68.75,32,68.55L32.25,68.95z M15.7,77.1c0.066-0.533-0.133-1.033-0.6-1.5
		c-0.533-0.467-1.017-0.517-1.45-0.15c-0.467,0.4-0.4,0.75,0.2,1.05c0.566,0.233,1.066,0.317,1.5,0.25L15.7,77.1z M11.7,83.75
		c-1.567,0.967-3.017,2.15-4.35,3.55c0.8,0.3,1.7,0.267,2.7-0.1c0.8-0.3,1.567-0.784,2.3-1.45L11.7,83.75z M11.6,83.1
		c-0.433-0.014-1.049-0.064-1.85-0.15c-1,0-1.65,0.216-1.95,0.65c0.9,0.367,1.967,0.2,3.2-0.5H11.6z M16,88.4l-0.2-0.1
		c0.2-0.2,0.35-0.5,0.45-0.9C16.183,87.833,16.1,88.167,16,88.4z M13.7,86.75l-1-1.35c-0.233,0.367-0.717,0.934-1.45,1.7
		c-0.533,0.7-0.717,1.35-0.55,1.95c0.566,0.167,1.167-0.05,1.8-0.65C13.067,87.9,13.467,87.35,13.7,86.75z M35,77.75l-0.65-1.35
		c0.167-2.633-0.166-4.517-1-5.65c0.134,1.733,0.267,2.95,0.4,3.65C34.017,75.933,34.434,77.05,35,77.75z M33,78.1
		c-1,0.167-2.017,0.617-3.05,1.35c-1.233,0.933-1.5,1.833-0.8,2.7c0.867-0.033,1.734-0.433,2.6-1.2c0.5-0.434,1.15-1.167,1.95-2.2
		L33,78.1z M29.7,90.1l1.3-0.35c-2.167-2.033-3.85-3.5-5.05-4.4c-0.233,1,0.133,1.95,1.1,2.85C27.217,88.333,28.1,88.967,29.7,90.1z
		 M26.75,91.95c-1.467-0.1-2.733-0.034-3.8,0.2c0.233,0.667,1.1,1.017,2.6,1.05c1.667-0.067,2.717-0.1,3.15-0.1l1.649-0.35
		C29.483,92.317,28.283,92.05,26.75,91.95z M25.4,95.95c-1.333,0.333-1.917,0.917-1.75,1.75c1.167,0.333,2.4,0.017,3.7-0.95l1-1
		C27.417,95.617,26.433,95.683,25.4,95.95z M27.05,98.05c-0.733,0.566-1,1.184-0.8,1.851c0.3,0.966,1.883,0.916,4.75-0.15l-2-2.35
		C28.367,97.333,27.717,97.55,27.05,98.05z M32.05,96.3c0.834,0.834,1.601,1.2,2.3,1.101l1.301,1.149c-1.167-1.7-2.051-2.9-2.65-3.6
		c-1.033-1.2-1.8-1.5-2.3-0.9C30.833,94.783,31.283,95.533,32.05,96.3z M39.7,94.4c0.066-0.667,0.083-1.15,0.05-1.45
		c-0.066-0.6-0.4-0.883-1-0.85c-0.767,0.5-1.05,1.316-0.85,2.45c0.166,0.8,0.533,1.65,1.1,2.55L39.7,94.4z M35.3,178
		c-0.033,0.25-0.083,0.533-0.149,0.85c-0.134,0.767-0.2,1.317-0.2,1.65c-0.016-0.359,0.018-0.776,0.1-1.25
		C35.163,178.758,35.247,178.341,35.3,178z M32.55,172.85c-0.066-0.1-0.133-0.199-0.2-0.3c-0.366-0.467-0.6-0.85-0.699-1.149
		l0.05,0.1c0.1,0.267,0.333,0.634,0.7,1.1C32.467,172.667,32.517,172.75,32.55,172.85z M20.55,118.55l0.05,0.05l0.05,0.75
		L20.55,118.55z M23.9,127.75c-0.1-0.066-0.2-0.15-0.3-0.25c-0.033-0.033-0.05-0.066-0.05-0.1
		C23.65,127.533,23.767,127.65,23.9,127.75z M25.45,129.55c0.033,0.967,0.083,1.7,0.15,2.2c-0.067-0.4-0.117-0.884-0.15-1.45
		c0-0.2,0-0.383,0-0.55c-0.034-0.434-0.05-0.783-0.05-1.05L25.45,129.55z M26.9,134.45c-0.133-0.2-0.35-0.517-0.65-0.95
		c-0.093-0.167-0.176-0.316-0.25-0.45c0.151,0.258,0.368,0.574,0.65,0.95L26.9,134.45z M15.7,140.05
		c-0.034-0.1-0.067-0.184-0.1-0.25c-0.038-0.168-0.071-0.335-0.1-0.5C15.549,139.526,15.616,139.776,15.7,140.05z M20.05,136.6
		c-0.142-0.091-0.242-0.225-0.3-0.399v-0.05C19.809,136.354,19.909,136.505,20.05,136.6z M22.65,133.25
		c0.267-0.267,0.383-0.75,0.35-1.45c0.067,0.834-0.083,1.367-0.45,1.601C22.583,133.366,22.617,133.316,22.65,133.25z M17,104.1
		c-0.167-0.6-0.7-1.25-1.6-1.949c-1-0.767-1.667-0.851-2-0.25c0.133,0.533,0.517,1,1.15,1.399c0.8,0.533,1.284,0.9,1.45,1.101
		L17,104.1z M3.65,115.1c-0.033-0.133-0.033-0.25,0-0.35c0.033-0.167,0.067-0.316,0.1-0.45l1,0.101c1.3,0.1,2.3,0.083,3-0.051
		c1-0.233,1.717-0.716,2.15-1.449L9.45,112.6l0.9,0.551c-0.133,0.166-0.617,0.483-1.45,0.949c-0.6,0.367-0.883,0.784-0.85,1.25
		c-2.2-0.366-3.667-0.55-4.4-0.55C3.65,114.9,3.65,115,3.65,115.1z M14.7,107.4l0.65-0.65c-0.567-0.066-1.25-0.05-2.05,0.05
		C13.4,107.467,13.867,107.667,14.7,107.4z M3.15,101.425c0.034-0.006,0.068-0.014,0.1-0.024c0.2-0.067,0.35-0.117,0.45-0.15
		C3.563,101.332,3.38,101.39,3.15,101.425z M12.5,129c-0.067-0.533-0.2-0.95-0.4-1.25c-0.029-0.058-0.063-0.107-0.1-0.15
		c0.276,0.295,0.443,0.712,0.5,1.25V129z M13.7,135.275c-0.004-0.201-0.021-0.376-0.05-0.525l0.05,0.2
		C13.7,135.009,13.7,135.116,13.7,135.275z M30.15,126.15c0.267-0.034,0.55-0.134,0.85-0.301l-0.95,0.65L30.15,126.15z M35.65,98.55
		c0.767,1.066,1.333,1.584,1.699,1.55L35.65,98.55z"/>
	<path style="fill-rule:evenodd;clip-rule:evenodd;fill:#6D652E;" d="M40.1,70.9c-0.066,0.833-0.316,1.9-0.75,3.2L38,76.75
		c-0.333-1.767-0.55-3.233-0.65-4.4C37.15,70.217,37.634,69.1,38.8,69c0.367-0.033,0.684,0.05,0.95,0.25
		C40.05,69.55,40.167,70.1,40.1,70.9z M33.35,24.7c-0.033-0.167-0.017-0.383,0.051-0.65c0.066-0.367,0.1-0.583,0.1-0.65
		c0.366-0.066,0.65,0.05,0.85,0.35L35.7,23.1c0,0.467-0.084,1.783-0.25,3.95c-0.066,0.534-0.05,1.483,0.05,2.85
		c0,1.233-0.267,2.083-0.8,2.55c-0.367-0.167-0.65-0.483-0.851-0.95c-0.166-0.433-0.216-0.883-0.149-1.35
		c-0.233,0.434-0.5,0.633-0.8,0.6c-0.267-0.033-0.434-0.283-0.5-0.75c-0.034-0.167,0.116-0.467,0.449-0.9
		c0.4-0.567,0.601-0.867,0.601-0.9c-0.3,0.233-0.733,0.417-1.3,0.55c-0.7,0.167-1.167,0.133-1.4-0.1c-0.4-0.367-0.5-0.733-0.3-1.1
		c0.399-0.433,0.684-0.8,0.85-1.1c0.3-0.6,0.533-1.017,0.7-1.25C32.3,24.833,32.75,24.667,33.35,24.7z M36,14.4
		c0.066,1.233,0.017,2.467-0.15,3.7c-0.267,1.933-0.8,2.7-1.6,2.3c-0.634-0.3-0.8-0.783-0.5-1.45c0.233-0.6,0.65-1,1.25-1.2L36,14.4
		z M36.7,10.05c-0.033,0.833-0.167,1.567-0.4,2.2c-0.3,0.867-0.7,1.1-1.2,0.7c0.167-0.4,0.467-0.583,0.9-0.55l0.65-2.4l0.05-0.25
		V10.05z M16.2,69.25l0.15,0.15l-1.65,2c0.066-0.4-0.034-0.733-0.3-1c-0.7,0.133-0.917,0.6-0.65,1.4
		c-0.267,0.1-0.617,0.117-1.05,0.05c-0.233-0.033-0.583-0.1-1.05-0.2c-0.333,0.434-0.417,1.1-0.25,2c0.2,1.167,0.283,1.867,0.25,2.1
		c-0.867-0.233-1.3,0.05-1.3,0.85c0,0.433,0.1,1.117,0.3,2.05c-0.833,0.2-1.316,0.4-1.45,0.6c-0.034,0.1-0.067,0.683-0.1,1.75
		c-0.067-0.267-0.217-0.533-0.45-0.8c-0.3-0.3-0.517-0.534-0.65-0.7c-0.033-1.367-0.05-2.583-0.05-3.65l0.4-0.45
		c-0.2-0.133-0.333-0.217-0.4-0.25H7.9l0.05-1.4H8c0.5-0.333,1.267-0.583,2.3-0.75c0.034-0.733,0.067-1.25,0.1-1.55
		c0.1-0.534,0.5-0.784,1.2-0.75c-0.467-0.9-0.55-1.667-0.25-2.3c0.333-0.667,0.983-0.783,1.95-0.35c0-0.7,0.15-1.2,0.45-1.5
		c0.467,0.133,0.917,0.517,1.35,1.15C15.767,68.667,16.133,69.183,16.2,69.25z M31.3,62.9l0.05-0.8l1.65-2c0,0.3,0.05,1.2,0.15,2.7
		c0,1.367-0.267,2.034-0.801,2L32,64.75c-0.366-0.167-0.583-0.567-0.65-1.2v-0.2L31.3,62.9z M28.8,76.1l1.1-0.35
		c0.833-0.233,1.65-0.35,2.45-0.35l0.351,0.7c-0.667,0.733-1.55,1.233-2.65,1.5c-1,0.267-2.017,0.3-3.05,0.1
		C27.2,77.1,27.8,76.567,28.8,76.1z M15.8,88.3l-0.15,0.1c-0.2,0.167-0.517,0.15-0.95-0.05V86.4l1.5-1.8l0.15-0.2
		c0.133,1.2,0.1,2.2-0.1,3C16.15,87.8,16,88.1,15.8,88.3z M3.25,100.95c-0.033-0.066-0.067-0.117-0.1-0.15
		c1-0.3,1.717-0.066,2.15,0.7c0.067-0.3,0.083-0.684,0.05-1.15c0-0.566,0.017-0.966,0.05-1.199c0.5,0.267,0.934,0.566,1.3,0.899
		c0.8,0.8,1.233,1.584,1.3,2.351l0.35,0.649c-0.267-0.434-0.684-0.649-1.25-0.649c-0.567,0.033-1,0.25-1.3,0.649
		c-0.167,0.2-0.233,0.517-0.2,0.95c0.066,0.6,0.083,0.95,0.05,1.05c-0.933-0.166-1.25,0.367-0.95,1.601
		c-0.2-0.434-0.583-0.684-1.15-0.75c-0.633-0.034-1.05-0.15-1.25-0.351c-0.333-0.366-0.433-0.717-0.3-1.05
		c0.1-0.366,0.4-0.533,0.9-0.5l-0.5-0.55c-0.367-0.5-0.483-0.934-0.35-1.3c0.467-0.101,0.767-0.134,0.9-0.101l0.05-0.6
		c0.05-0.006,0.1-0.014,0.15-0.025c0.23-0.035,0.414-0.093,0.55-0.175v-0.05C3.5,101.134,3.35,101.05,3.25,100.95z M4.05,116.05
		c-0.066-0.066-0.117-0.116-0.15-0.149c-0.033-0.034-0.05-0.067-0.05-0.101c-0.167-0.2-0.233-0.434-0.2-0.7c0-0.1,0-0.199,0-0.3
		c0.733,0,2.2,0.184,4.4,0.55c-0.033-0.466,0.25-0.883,0.85-1.25c0.833-0.466,1.317-0.783,1.45-0.949l-0.9-0.551
		c0.167-0.399,0.466-0.733,0.9-1c0.066-0.066,0.683-0.383,1.85-0.949c-0.6-0.034-0.867-0.267-0.8-0.7
		c0.067-0.434,0.35-0.733,0.85-0.9c-0.3-0.033-0.45-0.1-0.45-0.2c0-0.199-0.033-0.333-0.1-0.399c0.333-0.033,1.333-0.05,3-0.05
		L16,109.1c-0.933,0.367-1.517,0.851-1.75,1.45c-0.167,0.4-0.25,1.233-0.25,2.5c-0.433,0.066-1.083,0.084-1.95,0.05
		c0,0.267,0,0.667,0,1.2c-0.033,0.434-0.25,0.7-0.65,0.8c0.033,0.101,0.35,0.9,0.95,2.4c0.4,1,0.5,1.833,0.3,2.5
		c-0.333,0.2-0.717,0.15-1.15-0.15c-0.367-0.267-0.633-0.6-0.8-1c-0.267,0.367-0.684,0.584-1.25,0.65
		c-0.467,0.033-0.934-0.033-1.4-0.2c0.067-0.833,0.034-1.45-0.1-1.85c-0.233,0-0.6-0.017-1.1-0.05c-0.434,0-0.8-0.067-1.1-0.2
		c0.1-0.334,0.183-0.584,0.25-0.75H4.3C4.2,116.283,4.117,116.15,4.05,116.05z M25.7,114.6c-0.2-0.433-0.017-1.05,0.55-1.85
		c-0.167,0-0.55,0.017-1.15,0.05c-0.567,0-0.917-0.116-1.05-0.35c-0.267-0.566,0.117-1.316,1.15-2.25c-0.1-0.033-0.6-0.05-1.5-0.05
		c-0.767,0.033-1.217-0.101-1.35-0.4s-0.017-0.65,0.35-1.05c0.433-0.434,0.7-0.733,0.8-0.9c-0.267-0.033-0.667-0.05-1.2-0.05
		c-0.533,0.033-0.933,0.017-1.2-0.05c-0.167-0.533,0.2-1.033,1.1-1.5c1.133-0.566,1.75-0.934,1.85-1.101l-1.7-0.05
		c-0.267-0.733,0.066-1.233,1-1.5c1.133-0.133,1.867-0.267,2.2-0.399l-0.25-0.4c0.3-0.333,0.7-0.45,1.2-0.35
		c0.5,0.066,0.9,0.3,1.2,0.699l3.649-1l-0.699,0.15l-0.25-0.2c-0.334-0.434-0.25-0.95,0.25-1.55c0.433-0.533,0.883-0.9,1.35-1.1
		l1.95,1.3c0.066-0.4,0.083-0.717,0.05-0.95l4,1.65c-0.4,0.366-1.033,0.616-1.9,0.75c-0.933,0.166-1.566,0.05-1.899-0.351
		c-0.233-0.267-0.316-0.583-0.25-0.95c-0.634,0.801-1.367,1.317-2.2,1.551c0.233,0.267,0.366,0.616,0.4,1.05
		c0.033,0.434-0.051,0.767-0.25,1c-0.4,0.434-1.317,0.55-2.75,0.35c-0.167,0.167-0.217,0.351-0.15,0.55
		c-0.433,0.067-1.083,0.101-1.95,0.101c-0.066,0.3,0.034,0.733,0.3,1.3c0.3,0.533,0.4,0.967,0.3,1.3
		c-0.433,0.033-1.083,0.05-1.95,0.05c-0.233,0.667,0.05,1.267,0.85,1.801c0.557,0.393,1.19,0.676,1.9,0.85
		c-0.412-0.091-0.795,0.01-1.15,0.3c0.067,0.533,0.7,0.983,1.9,1.351c1.399,0.433,2.217,0.816,2.45,1.149
		c-0.801,0.134-0.917,0.617-0.351,1.45c0.2,0.3,0.65,0.517,1.351,0.65c0.8,0.1,1.316,0.166,1.55,0.199
		c-0.934,0.367-1.967,0.45-3.101,0.25c-0.633-0.133-1.6-0.366-2.899-0.699C26.733,115.167,25.9,114.9,25.7,114.6z M30.05,126.5
		l0.95-0.65c-0.3,0.167-0.583,0.267-0.85,0.301H30.1c-0.533,0.066-0.866-0.084-1-0.45c-0.1-0.267,0.083-0.684,0.55-1.25
		c0.567-0.533,0.9-0.9,1-1.101c-0.167-0.1-0.467-0.183-0.9-0.25c-0.367-0.033-0.617-0.149-0.75-0.35c0.4-0.467,1.033-0.7,1.9-0.7
		c1,0.066,1.716,0.066,2.149,0c0.066-0.6,0.066-1.017,0-1.25c0.601-0.133,1.351,0.017,2.25,0.45c0.834,0.467,1.4,0.967,1.7,1.5l-2,5
		c0.033-1.033,0.05-1.6,0.05-1.7c-0.033-0.666-0.184-1.2-0.45-1.6c-0.366,0.133-0.533,0.399-0.5,0.8c0.034,0.6,0.017,0.967-0.05,1.1
		c-0.133,0.301-0.316,0.517-0.55,0.65c-0.167,0.066-0.45,0.184-0.85,0.35c0.333,1,0.449,1.784,0.35,2.351
		c-0.2,0.033-0.5,0.05-0.9,0.05c-0.366,0-0.633,0.1-0.8,0.3c0.134,0.3,0.384,0.783,0.75,1.45c0.3,0.634,0.384,1.15,0.25,1.55
		c-1.033,0.434-1.533-0.033-1.5-1.399c0-1.233,0.25-2.301,0.75-3.2c-0.233,0.3-0.566,0.517-1,0.649
		c-0.434,0.134-0.816,0.117-1.15-0.05c-0.167-0.066-0.3-0.166-0.4-0.3C28.633,128.15,28.983,127.4,30.05,126.5z M34.35,144.8
		c-0.166-0.033-0.35-0.149-0.55-0.35c-0.434-0.467-0.45-1.3-0.05-2.5c0.533-1.3,0.85-2.15,0.95-2.55l1.649,1
		c-0.5,2.8-1.1,4.267-1.8,4.399H34.35z M30.55,140.45c-0.3-0.066-0.517-0.167-0.65-0.3c0-0.601,0.25-1.117,0.75-1.551
		c0.3-0.3,0.75-0.633,1.35-1c0.634-0.366,1.083-0.649,1.35-0.85l1.351,0.65c-0.134,0.5-0.3,1.1-0.5,1.8
		c-0.2,0.5-0.684,0.866-1.45,1.1C31.95,140.533,31.217,140.583,30.55,140.45z M30.75,136.65l-0.6,0.05l0.199-0.601l0.4-0.25
		L33,134.4c0,0.5-0.233,0.983-0.7,1.449C31.833,136.316,31.316,136.583,30.75,136.65z M28.7,41.75c-0.9-0.3-1.217-0.717-0.95-1.25
		c0.3-0.6,0.967-0.733,2-0.4c0.667,0.2,1.316,0.533,1.95,1l-1,1C30.1,42.133,29.433,42.017,28.7,41.75z M23.1,48.15
		c0.867-0.2,1.717-0.05,2.55,0.45c0.9,0.533,1.25,1.25,1.05,2.15l1.65,1.65c-0.833-0.1-1.95-0.65-3.35-1.65
		C23.467,49.683,22.833,48.817,23.1,48.15z M29.85,45.6c-1.133,0.066-1.95,0.017-2.45-0.15c0.367-0.467,0.5-0.967,0.4-1.5
		c0.567-0.1,1.267-0.167,2.1-0.2c0.7-0.033,1.183-0.033,1.45,0L32,45.4C31.733,45.4,31.017,45.467,29.85,45.6z M28.15,64.05
		c-0.467-0.4-0.4-0.983,0.2-1.75c0.6-0.733,1.15-1.133,1.65-1.2l0.7,1c-0.2,0.533-0.533,1.05-1,1.55
		C29.1,64.283,28.583,64.417,28.15,64.05z M25,60.75l3,0.35c-2.533,2.7-4.233,3.483-5.1,2.35C23.133,62.583,23.833,61.683,25,60.75z
		 M28,58.1c-0.367,0.4-0.933,0.65-1.7,0.75c-0.8,0.1-1.383-0.033-1.75-0.4c0.233-0.7,0.95-1.05,2.15-1.05L28,58.1z M25,53.1
		c0.1,0.367,0.083,0.8-0.05,1.3c-1.133-0.9-1.617-0.667-1.45,0.7c0.1,0.7,0.267,1.667,0.5,2.9c-0.1,0-0.3,0.017-0.6,0.05
		c-0.3,0.067-0.517,0.083-0.65,0.05c-0.1,0.566-0.133,1.417-0.1,2.55c-0.733,0.2-1.133-0.017-1.2-0.65
		c0.033-0.833,0.017-1.4-0.05-1.7c-0.033-0.167-0.167-0.483-0.4-0.95c-0.233-0.4-0.333-0.7-0.3-0.9l1-1.65c0.4-0.633,0.2-1-0.6-1.1
		c-0.233-0.567-0.067-0.983,0.5-1.25c-0.733-0.934-1.033-1.717-0.9-2.35c0.433-0.133,0.9-0.017,1.4,0.35l1.25,0.95L25,53.1z
		 M35.7,58.4c0,0.3,0.066,0.917,0.2,1.85c0.033,0.833-0.15,1.333-0.551,1.5L33.7,60.4L35.7,58.4z M33.3,46.35
		c0.101,0.533,0.15,1.367,0.15,2.5l0.899,0.9L33.45,50l-0.101,2.4l-1,0.7c-0.333-0.333-0.566-1.233-0.699-2.7
		c-1.734,0.333-2.8,0.3-3.2-0.1c-0.333-0.3-0.05-1,0.85-2.1c1.033-1.067,1.601-1.667,1.7-1.8l0.95,0.95
		C32.25,46.55,32.7,46.217,33.3,46.35z M32.35,39.1v1c-1.1-0.2-1.933-1.083-2.5-2.65c-0.567-1.534-0.533-2.75,0.1-3.65
		C31.616,36,32.417,37.767,32.35,39.1z M11.6,83.1H11c-1.233,0.7-2.3,0.867-3.2,0.5c0.3-0.434,0.95-0.65,1.95-0.65
		C10.551,83.036,11.167,83.086,11.6,83.1z M11.7,83.75l0.65,2c-0.733,0.667-1.5,1.15-2.3,1.45c-1,0.367-1.9,0.4-2.7,0.1
		C8.683,85.9,10.133,84.717,11.7,83.75z M15.7,77.1l-0.35-0.35c-0.434,0.067-0.934-0.017-1.5-0.25c-0.6-0.3-0.667-0.65-0.2-1.05
		c0.434-0.367,0.917-0.317,1.45,0.15C15.567,76.067,15.767,76.567,15.7,77.1z M33,78.1l0.7,0.65c-0.8,1.033-1.45,1.767-1.95,2.2
		c-0.866,0.767-1.733,1.167-2.6,1.2c-0.7-0.867-0.433-1.767,0.8-2.7C30.983,78.717,32,78.267,33,78.1z M35,77.75
		c-0.566-0.7-0.983-1.817-1.25-3.35c-0.134-0.7-0.267-1.917-0.4-3.65c0.834,1.133,1.167,3.017,1,5.65L35,77.75z M13.7,86.75
		c-0.233,0.6-0.633,1.15-1.2,1.65c-0.633,0.6-1.233,0.817-1.8,0.65c-0.167-0.6,0.017-1.25,0.55-1.95
		c0.733-0.767,1.217-1.333,1.45-1.7L13.7,86.75z M39.7,94.4L39,97.1c-0.566-0.899-0.934-1.75-1.1-2.55
		c-0.2-1.133,0.083-1.95,0.85-2.45c0.6-0.033,0.934,0.25,1,0.85C39.783,93.25,39.767,93.733,39.7,94.4z M32.05,96.3
		c-0.767-0.767-1.217-1.517-1.35-2.25c0.5-0.6,1.267-0.3,2.3,0.9c0.6,0.7,1.483,1.9,2.65,3.6L34.35,97.4
		C33.65,97.5,32.884,97.134,32.05,96.3z M27.05,98.05c0.667-0.5,1.317-0.717,1.95-0.649l2,2.35c-2.867,1.066-4.45,1.116-4.75,0.15
		C26.05,99.233,26.317,98.616,27.05,98.05z M25.4,95.95c1.033-0.267,2.017-0.333,2.95-0.2l-1,1c-1.3,0.967-2.533,1.283-3.7,0.95
		C23.483,96.867,24.067,96.283,25.4,95.95z M26.75,91.95c1.533,0.1,2.733,0.367,3.6,0.8L28.7,93.1c-0.434,0-1.483,0.033-3.15,0.1
		c-1.5-0.034-2.367-0.383-2.6-1.05C24.017,91.917,25.283,91.85,26.75,91.95z M29.7,90.1c-1.6-1.133-2.483-1.767-2.65-1.9
		c-0.966-0.9-1.333-1.85-1.1-2.85c1.2,0.9,2.883,2.367,5.05,4.4L29.7,90.1z M17,104.1l-1,0.301c-0.167-0.2-0.65-0.567-1.45-1.101
		c-0.633-0.399-1.017-0.866-1.15-1.399c0.333-0.601,1-0.517,2,0.25C16.3,102.85,16.833,103.5,17,104.1z M14.7,107.4
		c-0.833,0.267-1.3,0.066-1.4-0.601c0.8-0.1,1.483-0.116,2.05-0.05L14.7,107.4z M35.65,98.55l1.699,1.55
		C36.983,100.134,36.417,99.616,35.65,98.55z"/>
	<path style="fill-rule:evenodd;clip-rule:evenodd;fill:#363217;" d="M47.55,60.6c-0.066,0.233-0.149,0.5-0.25,0.8
		c-0.8-2.3-1.25-3.633-1.35-4c0.566-0.4,1.166-0.7,1.8-0.9c0.3,0.4,0.417,1.017,0.35,1.85l-0.05,0.1c0,0.033,0,0.083,0,0.15
		C48.017,58.633,48,58.683,48,58.75c-0.033,0.2-0.083,0.433-0.15,0.7C47.717,59.85,47.616,60.233,47.55,60.6z M47.45,68.9
		c-0.033,0.033-0.05,0.067-0.05,0.1c-0.233,0.933-0.25,1.7-0.051,2.3l0.2,0.8c-0.733-0.067-1.233-0.083-1.5-0.05
		c-0.133-0.466-0.033-0.966,0.3-1.5c0.434-0.566,0.717-1.017,0.851-1.35l0.35-0.7C47.517,68.633,47.483,68.767,47.45,68.9z
		 M48.05,66.8l-0.3,0.95c0.167-0.667,0.267-1.333,0.3-2c0-0.733-0.05-1.417-0.149-2.05v-0.05c0.1,0.1,0.183,0.2,0.25,0.3
		c0.066,0.1,0.116,0.216,0.149,0.35C48.467,64.733,48.384,65.567,48.05,66.8z M51.35,80.85c0,0.3-0.017,0.566-0.05,0.8
		c-0.033,0.4-0.116,0.833-0.25,1.3c-0.033,0.1-0.066,0.2-0.1,0.3c0,0.033,0,0.067,0,0.1c-0.033,0.033-0.05,0.066-0.05,0.1
		c-0.034,0.167-0.034,0.316,0,0.45l-0.551-0.15L48.4,83.4H48.35c-0.533-0.1-0.85-0.15-0.949-0.15c-0.301-0.033-0.601,0-0.9,0.1
		l-0.5,0.3l0.05-0.3c0.134-0.767,0.733-1.233,1.8-1.4H48h0.1c0.801-0.067,1.351-0.133,1.65-0.2s0.566-0.183,0.8-0.35
		C50.85,81.2,51.116,81.017,51.35,80.85z M48.6,119.4c-0.3-0.167-0.699-0.117-1.199,0.149c-0.667,0.334-1.184,0.517-1.551,0.55h-0.3
		c-0.3,0-0.616-0.083-0.95-0.25c-0.333-0.199-0.616-0.333-0.85-0.399c-0.434-0.101-1.233-0.117-2.4-0.05
		c-1,0.066-1.783-0.017-2.35-0.25c1.267-0.101,2.167-0.267,2.7-0.5c0.733-0.301,1.416-0.9,2.05-1.801
		c0.533,0.7,1.184,0.767,1.95,0.2c0.833-0.8,1.399-1.316,1.7-1.55c0.133-0.1,0.483-0.233,1.05-0.4c0.434-0.133,0.75-0.35,0.95-0.649
		l0.25-0.601c0.1-0.399,0.116-1.017,0.05-1.85c-0.033-0.5-0.2-1.167-0.5-2c-0.3-0.9-0.483-1.533-0.55-1.9
		c-0.134-1,0.083-1.616,0.649-1.85c0.9-0.134,1.667-0.267,2.3-0.4L52.2,105.7c0.133-0.4,0.166-1.134,0.1-2.2
		c-0.066-0.8,0.184-1.517,0.75-2.15l2-1.55c0.834-0.666,1.283-1.333,1.351-2c0.033-0.267,0-0.566-0.101-0.9c0-0.066,0-0.117,0-0.15
		c-0.033-0.033-0.05-0.067-0.05-0.1s0-0.066,0-0.1l-0.1-0.25c-0.034-0.133-0.067-0.233-0.101-0.3c0.3,0.067,0.5,0.133,0.601,0.2
		c0,1.233-0.2,2.217-0.601,2.95c-0.133,0.3-0.416,0.633-0.85,1c-0.434,0.366-0.733,0.683-0.9,0.949
		c-0.1,0.233-0.116,0.834-0.05,1.801c0.002,0.017,0.002,0.033,0,0.05l-1.9,2.649l1.2-0.55l-0.899,0.7
		c-0.5,0.4-0.867,0.65-1.101,0.75c-0.434,0.233-0.85,0.283-1.25,0.15c0.434,2.166,0.55,3.733,0.351,4.699
		c-0.2,0.101-0.384,0.117-0.551,0.051c0.7,0.899,1.267,1.8,1.7,2.699c0.667,1.4,0.733,2.384,0.2,2.95
		c-0.366,0.367-0.9,0.517-1.6,0.45l-0.301,1.45l-0.05,0.1c-0.033,0.033-0.066,0.066-0.1,0.101C49.85,119.25,49.4,119.333,48.6,119.4
		z M47.6,156.5c0.067,0.066,0.134,0.134,0.2,0.2c0,0.033,0,0.066,0,0.1c-0.133,0.467-0.533,0.95-1.2,1.45
		c-0.733,0.566-1.149,1.083-1.25,1.55c0.467,0.334,0.801,0.533,1,0.601c-0.133,0.3-0.383,0.55-0.75,0.75
		c-0.633,0.3-0.983,0.483-1.05,0.55c0.2,0.866,0.15,1.7-0.149,2.5c-0.067,0.166-0.233,0.316-0.5,0.45
		c-0.233,0.133-0.367,0.283-0.4,0.449c-0.066,0.267-0.017,0.817,0.15,1.65c0.166,0.7,0.116,1.25-0.15,1.65
		c-0.1,0.133-0.333,0.3-0.7,0.5c-0.366,0.166-0.6,0.316-0.7,0.449c0.167,0.301,0.517,0.967,1.051,2
		c0.433,0.967,0.5,1.667,0.199,2.101c-0.166,0.267-0.517,0.483-1.05,0.649c-0.5,0.134-0.833,0.351-1,0.65
		c-0.267,0.5-0.25,1.917,0.05,4.25c0,0.833-0.083,1.833-0.25,3l-0.399,3.15c-0.066,0.8-0.117,1.233-0.15,1.3
		c-0.066,0.1-0.383,0.316-0.95,0.649c-0.033,0.034-0.116,0.067-0.25,0.101c-0.1,0-0.216,0.017-0.35,0.05
		c-0.267,0-0.467,0.083-0.6,0.25c-0.067,0.233-0.067,0.434,0,0.6l-0.351,0.5c-0.1,0.167-0.316,0.217-0.649,0.15
		c-0.034-1.333-0.067-2.316-0.101-2.95c-0.033-1.066-0.316-1.983-0.85-2.75c-0.101-0.166-0.351-0.434-0.75-0.8
		c-0.267-0.267-0.483-0.583-0.65-0.95c-0.033-0.066-0.05-0.133-0.05-0.2v-0.074c-0.013-0.058-0.021-0.116-0.025-0.176
		c-0.017-0.108-0.024-0.226-0.024-0.35c1.7-1.167,2.75-2.333,3.149-3.5c0.167-0.467,0.217-1.167,0.15-2.1
		c-0.066-0.967-0.033-1.667,0.1-2.101c0.067-0.166,0.167-0.35,0.301-0.55c0.166-0.2,0.267-0.35,0.3-0.45
		c0.1-0.3,0.116-0.733,0.05-1.3c-0.066-0.6-0.066-1.033,0-1.3c0.134-0.434,0.417-0.816,0.85-1.15c0.4-0.3,0.65-0.733,0.75-1.3
		c0-0.033,0.084-0.6,0.25-1.7c0.067-0.566,0.233-1.116,0.5-1.649c0.334-0.667,0.534-1.351,0.601-2.051
		c0.033-0.3,0.05-1.033,0.05-2.199c-0.167-1.267-0.25-2.101-0.25-2.5c0-0.167,0.066-0.634,0.2-1.4c0.133-0.6,0.133-1.083,0-1.45
		c-0.834-0.066-1.367-0.184-1.601-0.35c1.334-2.134,1.784-3.7,1.351-4.7c-0.066-0.134-0.184-0.25-0.351-0.35
		c-0.199-0.101-0.316-0.184-0.35-0.25l-0.55-1.4c-0.233-1.2-0.483-2.066-0.75-2.6c0.7,0,1.133-0.334,1.3-1
		c-0.033,0-0.217-0.017-0.55-0.051c-0.233-0.033-0.434-0.033-0.601,0c0.4-0.1,0.917-0.616,1.551-1.55c0.6-0.899,0.916-1.566,0.949-2
		c0.067,0.101,0.15,0.15,0.25,0.15c0.101-0.3,0.284-0.45,0.551-0.45c0.3-0.033,0.483-0.083,0.55-0.15
		c0.399-0.399,0.7-1.017,0.899-1.85c0.2-1.134,0.367-1.8,0.5-2c0.134-0.233,0.667-0.4,1.601-0.5c0.666-0.066,1.116-0.333,1.35-0.8
		c0.2-0.634,0.417-1.167,0.65-1.601c0.467-0.399,0.783-0.783,0.95-1.149c0.133-0.3,0.183-0.75,0.149-1.351
		c-0.066-0.699-0.1-1.183-0.1-1.449l0.1-2.65c0.012,0.045,0.02,0.104,0.025,0.175l0.024,0.875c0,0.033,0,0.066,0,0.101
		c0.034,0.399,0.084,0.683,0.15,0.85c0.1,0.267,0.333,0.616,0.7,1.05c0.333,0.4,0.55,0.75,0.649,1.05c0.167,0.5,0.167,1.301,0,2.4
		c-0.166,1.333-0.25,2.15-0.25,2.45c0,0.033,0.067,0.233,0.2,0.6c0.101,0.267,0.066,0.533-0.1,0.8c-0.2,0.334-0.783,0.551-1.75,0.65
		c-1,0.1-1.617,0.283-1.851,0.55c-0.166,0.2-0.267,0.483-0.3,0.851c0,0.199,0,0.5,0,0.899c-1.899,0.066-2.533,0.601-1.899,1.601
		c0.899,1.5,1.149,2.55,0.75,3.149c-0.2,0.2-0.801,0.467-1.801,0.8c-0.3,0.101-0.816,0.217-1.55,0.351
		c-0.633,0.2-1.1,0.467-1.399,0.8c0.267,0.4,0.616,1.05,1.05,1.95c0.066,0.1,0.217,0.217,0.45,0.35
		c0.233,0.134,0.366,0.25,0.399,0.351c0.066,0.166,0.084,0.449,0.05,0.85c-0.066,0.366-0.033,0.65,0.101,0.85
		c0.133,0.2,0.566,0.4,1.3,0.601l-0.4,1.05c-0.166,0.434-0.216,0.767-0.149,1c0.033,0.167,0.184,0.4,0.45,0.7
		c0.199,0.333,0.333,0.616,0.399,0.85c0.033,0.101,0.033,0.367,0,0.8c-0.033,0.301,0.017,0.551,0.15,0.75
		c0.166,0.2,0.583,0.334,1.25,0.4C46.95,156.283,47.333,156.366,47.6,156.5z M20.7,122.55c-0.067,0.9-0.083,1.467-0.05,1.7
		c0.067,0.6,0.4,0.884,1,0.85l0.1,0.801c-0.133,0.033-0.267,0.083-0.4,0.149c0.033,0.134,0.3,0.9,0.8,2.3
		c0.033,0.134,0.067,0.284,0.1,0.45c0.233,1.733,0.367,3.217,0.4,4.45c-0.033,0.066-0.066,0.116-0.1,0.15
		c-0.133,0.066-0.283,0.1-0.45,0.1c-0.434,2.533-1.05,3.616-1.85,3.25l-0.15-0.1l-0.05-0.051c-0.141-0.095-0.241-0.245-0.3-0.449
		v0.05c0,0.033,0,0.083,0,0.149c0.033,0.567,0.017,1.034-0.05,1.4c-0.067,0.467-0.317,0.9-0.75,1.3c-0.5,0.467-0.8,0.8-0.9,1
		c-0.2,0.434-0.2,1.117,0,2.05c0.233,1.067,0.333,1.767,0.3,2.101c-0.033,0.399-0.15,0.816-0.35,1.25
		c-0.033,0.066-0.05,0.133-0.05,0.2l-0.1,0.35c-0.067,0.066-0.1,0.15-0.1,0.25c-0.067,0.167-0.117,0.3-0.15,0.4l-0.9-2.25
		c-0.233-0.567-0.45-1.551-0.65-2.95c-0.066-0.3-0.183-0.767-0.35-1.4c-0.084-0.273-0.151-0.523-0.2-0.75
		c-0.038-0.116-0.071-0.233-0.1-0.35c0.367,0.267,0.767,0.217,1.2-0.15c0.2-0.166,0.333-0.666,0.4-1.5
		c0.067-0.666,0.383-0.983,0.95-0.95c0-0.699,0.033-1.216,0.1-1.55c0.867,0.167,1.4-0.083,1.6-0.75c0.033-0.166,0.05-0.85,0.05-2.05
		c0-0.967,0.1-2.417,0.3-4.35c0.1-0.834-0.083-2.301-0.55-4.4c-0.434-1.967-0.534-3.434-0.3-4.4c0.033-0.267,0.15-0.6,0.35-1
		l0.55-0.8l0.05-0.1l0.2-0.2l0.25,1.6v0.2l0.1,0.8L20.7,122.55z"/>
</g>
</svg>
