<?xml version="1.0" encoding="iso-8859-1"?>
<!-- Generator: Adobe Illustrator 15.1.0, SVG Export Plug-In . SVG Version: 6.00 Build 0)  -->
<!DOCTYPE svg PUBLIC "-//W3C//DTD SVG 1.1//EN" "http://www.w3.org/Graphics/SVG/1.1/DTD/svg11.dtd">
<svg version="1.1" id="FlashAICB" xmlns="http://www.w3.org/2000/svg" xmlns:xlink="http://www.w3.org/1999/xlink" x="0px" y="0px"
	 width="57.25px" height="59.25px" viewBox="0 0 57.25 59.25" style="enable-background:new 0 0 57.25 59.25;" xml:space="preserve"
	>
<g>
	<path style="fill-rule:evenodd;clip-rule:evenodd;fill:#6D652E;" d="M28,25.5c0.4-0.167,1.083-0.183,2.05-0.05L30.15,26
		c0.533,0.167,0.85,0.25,0.949,0.25C31.4,26.283,31.667,26.2,31.9,26c0.033-0.033,0.199-0.533,0.5-1.5
		c0.267-0.933,0.416-1.483,0.449-1.65c0.067-0.5,0.051-1.967-0.05-4.4c0.533-0.1,0.95,0.167,1.25,0.8l-0.149-1.4
		c0.399-0.1,0.883-0.017,1.449,0.25c0.334-0.333,0.5-0.75,0.5-1.25c-0.1-0.6-0.149-1.083-0.149-1.45c0-1.367,0.083-2.183,0.25-2.45
		l0.35,0.55c0.134-0.3,0.2-0.8,0.2-1.5c-0.033-0.667,0.017-1.15,0.15-1.45c0.133,0.1,0.433,0.267,0.899,0.5
		c-0.066-0.6-0.116-1.033-0.149-1.3c-0.034-0.433,0.116-0.717,0.449-0.85c-0.133-1.9-0.166-3.333-0.1-4.3
		c0.3-2.033,0.517-3.567,0.65-4.6l0.55,1c0.533-0.333,0.934-0.35,1.2-0.05c0.166,0.2,0.3,0.633,0.399,1.3c0.066,0.4,0.2,0.8,0.4,1.2
		c0.267,0.466,0.434,0.816,0.5,1.05c0.366,0.067,0.616,0.1,0.75,0.1l0.149,0.45c0.4,0.1,0.667,0.133,0.801,0.1l0.1,0.7L43.6,4.3
		c-0.767,0.133-1.25-0.383-1.449-1.55c-0.2-1.167,0.05-1.8,0.75-1.9c0.533-0.067,0.916,0.117,1.149,0.55
		c0.134,0.233,0.283,0.633,0.45,1.2l0.2,0.3v0.05c-0.2,2-0.816,3.033-1.851,3.1C42.616,6.083,42.3,6.1,41.9,6.1
		C41.566,6.167,41.3,6.317,41.1,6.55c0-0.2-0.05-0.35-0.149-0.45c-0.334,0.5-0.601,1.367-0.8,2.6c-0.167,1.133-0.301,1.867-0.4,2.2
		c-0.066,0.267-0.167,0.483-0.3,0.65l-0.101,0.2l-0.05-0.2c-0.066-0.333-0.233-0.5-0.5-0.5c-0.467,0.8-0.633,1.95-0.5,3.45
		c-0.066-0.133-0.149-0.233-0.25-0.3c-0.133-0.1-0.217-0.167-0.25-0.2c-0.333,0.4-0.517,0.967-0.55,1.7
		c-0.033,0.267-0.033,0.9,0,1.9c0.033,0.4,0.033,0.767,0,1.1l-0.05-0.05l-0.65-0.05c-0.033,0.3-0.033,0.583,0,0.85l0.3,1.45
		c0.134,0.567,0.134,1.033,0,1.4c-0.233-0.167-0.416-0.433-0.55-0.8c-0.2-0.5-0.35-0.817-0.45-0.95l-0.3-0.35
		c-0.434,0.333-0.684,0.883-0.75,1.65c-0.066,0.433-0.083,1.083-0.05,1.95c-0.066-0.1-0.134-0.35-0.2-0.75
		c-0.066-0.267-0.217-0.433-0.45-0.5c-0.033,0.167-0.05,0.534-0.05,1.1c0,0.467-0.066,0.817-0.2,1.05
		c-0.399-0.3-0.8-0.167-1.199,0.4c-0.267,0.367-0.483,0.85-0.65,1.45c-0.866-0.466-1.95-0.216-3.25,0.75c-0.5-0.5-0.9-0.85-1.2-1.05
		c-0.566-0.4-0.95-0.25-1.15,0.45l-0.05,0.15l-0.05-0.2c-0.5-1.267-0.883-2.066-1.15-2.4c-0.566-0.7-1.283-0.783-2.15-0.25
		c-0.2-0.4-0.367-0.7-0.5-0.9c-0.267-0.4-0.533-0.6-0.8-0.6h-0.05l0.05-0.45c0.167-0.167,0.333-0.2,0.5-0.1
		c-0.034-0.3-0.017-0.733,0.05-1.3c0.6,0.267,1.05,0.467,1.35,0.6c0.566,0.2,0.783,0.033,0.65-0.5l0.05,0.05l0.25,0.7
		c0.333,0.633,0.883,1.067,1.65,1.3c1.167,0.333,1.899,0.85,2.2,1.55L28,25.5z M16.225,25.25l-0.05-0.05
		c-0.183-0.118-0.341-0.218-0.475-0.3c-0.1-0.066-0.2-0.133-0.3-0.2h-0.05c-0.267-0.167-0.533-0.3-0.8-0.4L11.6,22
		c0.066,0,0.917-0.183,2.55-0.55c0.167-0.034,0.35-0.067,0.55-0.1l0.8-0.05c0.467,0,0.9,0.067,1.3,0.2c0.2,0.067,0.633,0.3,1.3,0.7
		c0.5,0.3,0.967,0.466,1.4,0.5c0.067,0,0.217-0.017,0.45-0.05c0.133-0.033,0.3-0.066,0.5-0.1c0.4-0.1,0.716-0.1,0.95,0
		c-0.2,0.067-0.316,0.233-0.35,0.5c0,0.167-0.017,0.417-0.05,0.75c-0.6,0-1.583-0.233-2.95-0.7c-1.233-0.434-2.216-0.617-2.95-0.55
		c-0.233,0.4-0.15,0.883,0.25,1.45c0.233,0.333,0.617,0.8,1.15,1.4C16.407,25.343,16.315,25.293,16.225,25.25z"/>
	<path style="fill-rule:evenodd;clip-rule:evenodd;fill:#5B5527;" d="M45.6,7.5c-0.033,0.067-0.083,0.133-0.149,0.2
		c-0.3,0.333-0.5,0.617-0.601,0.85l0.101-0.3c0.267-0.3,0.467-0.533,0.6-0.7L45.6,7.5z M45.2,11.15L45,10.9L44.9,10
		c0.033,0.1,0.066,0.233,0.1,0.4C45.066,10.667,45.134,10.917,45.2,11.15z M45.95,6.25c-0.233,0.067-0.684,0.3-1.351,0.7L44.55,6.8
		V7l-0.5,0.3c-0.1,0.034-0.366,0.1-0.8,0.2c-0.3,0.033-0.566,0.15-0.8,0.35c-0.033,0.033-0.233,0.233-0.601,0.6
		c-0.133,0.133-0.333,0.233-0.6,0.3c-0.167,0.033-0.35,0-0.55-0.1c-0.2-0.066-0.384-0.05-0.55,0.05c0.199-1.233,0.466-2.1,0.8-2.6
		c0.1,0.1,0.149,0.25,0.149,0.45c0.2-0.233,0.467-0.383,0.801-0.45c0.399,0,0.716-0.017,0.949-0.05c1.034-0.066,1.65-1.1,1.851-3.1
		c0.166,0.267,0.35,0.55,0.55,0.85c0.233,0.4,0.384,0.85,0.45,1.35C45.833,5.617,45.917,5.983,45.95,6.25z M18.55,52.9
		c0.034-0.2,0.05-0.417,0.05-0.65v-0.3C18.633,52.283,18.617,52.6,18.55,52.9z M6.4,58.95c0.033,0,0.05,0.017,0.05,0.05
		c-0.067-0.033-0.133-0.066-0.2-0.1C6.283,58.9,6.333,58.917,6.4,58.95z M5.7,56.3L3.35,56.4c-0.2-0.434-0.633-0.684-1.3-0.75
		c-0.466-0.034-1.15-0.034-2.05,0c0.267-0.434,0.733-0.667,1.4-0.7c0.767,0.066,1.317,0.066,1.65,0c0.6-0.167,1-0.233,1.2-0.2
		c0.267,0.066,0.45,0.5,0.55,1.3c0.434,0.101,0.733,0.134,0.9,0.101C5.7,56.184,5.7,56.233,5.7,56.3z M9.95,56.65L9.5,56.55
		c-0.433-0.1-0.867-0.05-1.3,0.15C7.633,56.967,7.183,57.1,6.85,57.1L6.2,57.05c0.367-0.233,0.617-0.383,0.75-0.45
		c0.333-0.166,0.617-0.133,0.85,0.101c0.4-0.3,0.934-0.566,1.6-0.8c0.7-0.233,1.267-0.301,1.7-0.2h0.95l-0.55,0.6h-1.25
		C10.183,56.3,10.083,56.417,9.95,56.65z M16.05,53c-0.5,0.066-0.95,0.184-1.35,0.35h-0.4v0.2c-0.233,0.167-0.5,0.45-0.8,0.851
		l-0.25,0.449c-0.167,0-0.333,0.051-0.5,0.15v0.7c-0.033-1.367,0-2.217,0.1-2.55c0.2-0.767,0.783-1.067,1.75-0.9
		c0-0.134-0.05-0.717-0.15-1.75c-0.1-0.833-0.1-1.366,0-1.6c0.167-0.301,0.45-0.467,0.85-0.5c0.534-0.067,0.867-0.134,1-0.2
		c0.267-0.167,0.583-0.733,0.95-1.7c0.267-0.733,0.8-1.05,1.6-0.95c-0.033-0.733,0.217-1.149,0.75-1.25c0.667,0,1.15-0.066,1.45-0.2
		c0.567-0.233,0.934-0.683,1.1-1.35c0.133-0.8,0.267-1.417,0.4-1.85c0.467-0.634,0.784-1.084,0.95-1.351
		c0.333-0.5,0.267-1.116-0.2-1.85c0-0.033-0.65-0.667-1.95-1.9c-0.767-0.7-1.033-1.517-0.8-2.45c0.167,0,0.317-0.05,0.45-0.149
		l-1-1.9c-0.4-0.767-0.617-1.433-0.65-2c0.367-0.133,0.5-0.45,0.4-0.95c-0.067-0.367-0.233-0.75-0.5-1.15
		c-0.2-0.333-0.417-0.55-0.65-0.65c-0.5-0.167-0.8-0.283-0.9-0.35c-0.591-0.395-1.083-0.711-1.475-0.95
		c0.09,0.043,0.182,0.093,0.275,0.15c-0.533-0.6-0.917-1.066-1.15-1.4c-0.4-0.567-0.483-1.05-0.25-1.45
		c0.733-0.066,1.717,0.117,2.95,0.55c1.367,0.467,2.35,0.7,2.95,0.7c0.033-0.333,0.05-0.583,0.05-0.75
		c0.034-0.267,0.15-0.433,0.35-0.5c0.1,0.034,0.184,0.083,0.25,0.15l0.05-0.2c0.267,0,0.533,0.2,0.8,0.6c0.133,0.2,0.3,0.5,0.5,0.9
		c0.867-0.533,1.583-0.45,2.15,0.25c0.267,0.333,0.65,1.133,1.15,2.4c-0.466-0.2-0.883,0-1.25,0.6
		c-0.767-0.533-1.45-0.917-2.05-1.15c-0.067,0.867,0.283,1.917,1.05,3.15c0.7,0.4,1.117,0.917,1.25,1.55
		c-0.433-0.3-0.85-0.816-1.25-1.55c-0.533-0.367-0.95-0.35-1.25,0.05C22.367,29.767,22.767,31,24,33
		c-0.167-0.033-0.483-0.017-0.95,0.05c-0.367,0.834-0.033,1.783,1,2.851c1.233,1.233,1.883,2.017,1.95,2.35
		c-0.133,0-0.283,0.05-0.45,0.15c0,0.267,0.117,0.633,0.35,1.1c0.233,0.434,0.35,0.783,0.35,1.05c-0.5-0.033-0.767,0.351-0.8,1.15
		c0,0.467,0.017,1.083,0.05,1.85c-0.333,0-0.9,0.101-1.7,0.3c-0.066,0.334-0.017,0.733,0.15,1.2L22.3,45.1c0,0.601-0.1,1.5-0.3,2.7
		l-1.2,0.05v0.2c-0.5,0-0.833,0.017-1,0.05c0,0.4-0.05,0.801-0.15,1.2c-1.2,0-1.9,0.184-2.1,0.55c-0.2,0.301-0.216,1.034-0.05,2.2
		l-0.1,0.05c-0.367,0.067-0.617,0.101-0.75,0.101c-0.033,0-0.15,0.1-0.35,0.3L16.05,53z M39.3,11.55c-0.5,0.034-0.767,0.5-0.8,1.4
		c-0.033,0.466-0.017,1.133,0.05,2l-0.3,2.6c-0.233,0.034-0.566,0.05-1,0.05c-0.033-1-0.033-1.633,0-1.9
		c0.033-0.733,0.217-1.3,0.55-1.7c0.033,0.033,0.117,0.1,0.25,0.2c0.101,0.066,0.184,0.167,0.25,0.3c-0.133-1.5,0.033-2.65,0.5-3.45
		C39.066,11.05,39.233,11.217,39.3,11.55z M39.45,11.55c0.133-0.167,0.233-0.383,0.3-0.65c0.066,0.267,0.066,0.5,0,0.7L39.45,11.55z
		 M28,25.5l0.4-1.15c-0.301-0.7-1.034-1.217-2.2-1.55c-0.767-0.233-1.317-0.667-1.65-1.3c0.367,0.633,0.967,1.067,1.8,1.3
		c1.033,0.3,1.733,0.817,2.1,1.55C28.316,24.783,28.167,25.167,28,25.5z M26.4,26.7c0.2-0.7,0.583-0.85,1.15-0.45
		c0.3,0.2,0.7,0.55,1.2,1.05c1.3-0.966,2.384-1.216,3.25-0.75c0.167-0.6,0.384-1.083,0.65-1.45c0.399-0.567,0.8-0.7,1.199-0.4
		c0.134-0.233,0.2-0.583,0.2-1.05c0-0.566,0.017-0.933,0.05-1.1c0.233,0.067,0.384,0.233,0.45,0.5c0.066,0.4,0.134,0.65,0.2,0.75
		c-0.033-0.867-0.017-1.517,0.05-1.95c0.066-0.767,0.316-1.317,0.75-1.65l0.3,0.35c0.101,0.5,0.351,1.167,0.75,2
		c0.467,0.9,0.75,1.55,0.851,1.95c-0.8-0.3-1.25-0.2-1.351,0.3c-0.033,0.267,0.017,0.85,0.15,1.75c0,0.4-0.083,0.833-0.25,1.3
		c0.033,0.367,0.167,0.883,0.4,1.55c-0.134-0.033-0.367-0.133-0.7-0.3c-0.267-0.1-0.5-0.083-0.7,0.05
		c-0.134,0.1-0.217,0.317-0.25,0.65c-0.033,0.4-0.1,0.65-0.2,0.75c-0.399-0.399-0.783-0.316-1.149,0.25
		c-0.534,0.8-0.817,1.217-0.851,1.25c-0.233-0.3-0.583-0.483-1.05-0.55c-0.5-0.033-0.833,0.134-1,0.5
		c-0.134-0.533-0.4-1.066-0.8-1.6c-0.5-0.634-0.867-0.601-1.101,0.1c-0.033-0.5-0.267-1.167-0.7-2
		C27.4,27.567,26.9,26.967,26.4,26.7z M36.55,19.45c-0.033-0.267-0.033-0.55,0-0.85l0.65,0.05c0.066,0.5,0.083,0.867,0.05,1.1
		L36.55,19.45z M14.7,21.35c-0.2,0.033-0.383,0.066-0.55,0.1C12.517,21.817,11.667,22,11.6,22l2.95,2.3c-0.4-0.167-0.8-0.3-1.2-0.4
		c-1.7-0.4-2.35-1.033-1.95-1.9c0.233,0,1.117-0.183,2.65-0.55C14.25,21.383,14.467,21.35,14.7,21.35z"/>
	<path style="fill-rule:evenodd;clip-rule:evenodd;fill:#433E1C;" d="M44.6,6.95l0.351,1.3l-0.101,0.3
		c-0.033,0.034-0.05,0.067-0.05,0.1s0,0.067,0,0.1V8.8l-0.05,0.05L44.55,7V6.8L44.6,6.95z M47.15,23
		c-0.733,1.667-2.017,2.433-3.851,2.3c-0.066,0.6-0.05,1.5,0.05,2.7c0.067,1.2,0.067,2.066,0,2.6c-0.066,0.9-0.5,1.684-1.3,2.351
		c-0.666,0.6-1.533,1.05-2.6,1.35l-0.15-0.05c-0.5-0.033-1.133,0.083-1.899,0.35c0.666,0,1.35-0.1,2.05-0.3
		c0.267,0.066,0.517,0.2,0.75,0.4c0.267,0.2,0.467,0.316,0.6,0.35l1.15,0.05c0.133,0.434,0.45,0.667,0.95,0.7
		c0.666,0,1.133,0.017,1.399,0.05c-0.033,0.601,0,1.034,0.101,1.301c0.166,0.333,0.517,0.55,1.05,0.649
		c-0.066,0.367-0.05,0.684,0.05,0.95c0.6-0.167,1-0.267,1.2-0.3c0.467-0.101,0.866-0.066,1.2,0.1c0.066,0.4-0.034,0.967-0.301,1.7
		c0.467,0.1,0.767,0.15,0.9,0.15c0.066,0.366,0.083,0.916,0.05,1.649c0.767-0.133,1.283,0.434,1.55,1.7
		c0.233,1.134,0.134,1.917-0.3,2.35c-0.267,0.267-0.75,0.334-1.45,0.2C47.884,46.4,47.4,46.65,46.9,47.05
		c-0.733,0.3-1.667,0.434-2.801,0.4c-1.366-0.066-2.216-0.434-2.55-1.101c-2.5,1.767-4.066,1.867-4.7,0.301
		c-0.199,0.066-0.616,0.149-1.25,0.25C35.134,46.967,34.733,47.1,34.4,47.3c-0.267,0.2-0.584,0.417-0.95,0.65
		c-0.3,0.133-0.684,0.133-1.15,0c-0.133-0.033-0.383-0.167-0.75-0.4c-0.066-0.033-0.283-0.017-0.649,0.05
		c-0.334,0.067-0.551,0.051-0.65-0.05C30.083,47.384,30,47.1,30,46.7c0.033-0.467,0.033-0.75,0-0.851
		c-1.667-0.066-2.917,0.101-3.75,0.5c-0.267,0.367-0.65,0.684-1.15,0.95l-0.6,0.15c0.1-0.134,0.167-0.384,0.2-0.75
		c0.033-0.4,0.083-0.667,0.15-0.8c0.066-0.134,0.183-0.267,0.35-0.4c0.2-0.167,0.316-0.283,0.35-0.35
		c0.167-0.834,0.317-1.417,0.45-1.75c0.2-0.567,0.717-0.75,1.55-0.551c0.5,0.134,1.033,0.367,1.601,0.7
		c0.666,0.4,1.133,0.65,1.399,0.75c0.367,0.233,0.601,0.384,0.7,0.45c0.167,0.1,0.434,0.033,0.8-0.2
		c0.066-0.066,0.184-0.233,0.351-0.5c0.133-0.233,0.267-0.383,0.399-0.45c0.101-0.066,0.25-0.1,0.45-0.1c0.233,0,0.4-0.017,0.5-0.05
		c0.066-0.434,0.1-0.717,0.1-0.851l1.2,0.2c-0.2-0.366-0.35-0.649-0.45-0.85c-0.199-0.434-0.199-0.733,0-0.9
		c0.4-0.366,1.067-0.133,2,0.7c0.167,0.134,0.717,0.717,1.65,1.75c0.066-0.3,0.083-0.517,0.05-0.65c0.867-0.366,1.3,0.2,1.3,1.7
		l0.75-0.25c0.2,0.066,0.4,0.167,0.601,0.3c0.267,0.2,0.483,0.351,0.649,0.45c0.667,0.334,1.134,0.334,1.4,0
		c0.267-0.3,0.35-0.8,0.25-1.5c0.333,0.434,0.884,0.767,1.65,1c0.8,0.233,1.433,0.217,1.899-0.05v-0.25
		c-1.1-0.066-1.7-0.384-1.8-0.95c-0.066-0.267-0.033-0.666,0.1-1.2c0.167-0.6,0.233-1.017,0.2-1.25c-0.366-0.1-0.934-0.199-1.7-0.3
		c0.367-0.399,0.617-0.733,0.75-1c-0.267-0.233-0.699-0.333-1.3-0.3c-0.366,0-0.866,0.033-1.5,0.1c0.2-0.267,0.3-0.533,0.3-0.8
		c-0.033-0.3-0.199-0.467-0.5-0.5c-0.033-0.733-0.25-1.133-0.649-1.2c-0.4-0.1-0.8,0.184-1.2,0.851c0.233-1.066-0.017-1.5-0.75-1.3
		c-0.667,0.133-1.066,0.583-1.2,1.35c0.066-0.767-0.017-1.333-0.25-1.7c-0.333-0.066-0.7,0.017-1.1,0.25
		c-0.233,0.167-0.566,0.4-1,0.7c0.066-0.434,0.1-1.083,0.1-1.95c-0.333-0.166-1.083,0.217-2.25,1.15
		c-1.133,0.967-1.883,1.35-2.25,1.149c-0.133-0.1-0.267-0.333-0.399-0.699c-0.101-0.334-0.284-0.534-0.551-0.601
		c-0.733,1.134-1.1,1.717-1.1,1.75c-0.1-0.467-0.35-0.783-0.75-0.95c0.066,0.167,0.066,0.317,0,0.45
		c-0.333,0.033-0.567-0.05-0.7-0.25c0.2-0.2,0.434-0.267,0.7-0.2c-0.1-0.633-0.767-1.133-2-1.5c-1.7-0.5-2.567-0.767-2.6-0.8
		c0.5-0.3,1.483-0.366,2.95-0.2c1.467,0.134,2.45,0.051,2.95-0.25c-0.8-0.699-1.233-1.3-1.3-1.8c0.434,0.033,0.917,0.233,1.45,0.601
		c0.5,0.333,0.883,0.699,1.149,1.1c-0.033-0.066-0.05-0.35-0.05-0.85c0.601,0.166,1.101,0.3,1.5,0.399c0.733,0.2,1.233,0.2,1.5,0
		c0.2-0.166,0.3-0.416,0.3-0.75C33.816,32.4,33.8,32.1,33.8,31.9c0.7,0.8,1.316,1.1,1.851,0.899c0.533-0.2,0.833-0.733,0.899-1.6
		c0,0.8,0.351,1.267,1.05,1.399c0.854,0.099,1.337-0.251,1.45-1.05c-0.126,1.139,0.124,1.922,0.75,2.351
		c0.233-0.233,0.316-1,0.25-2.301c0.134,0.267,0.467,0.334,1,0.2c0.834-0.267,1.033-0.967,0.601-2.1
		c0.133,0.033,0.283-0.15,0.449-0.55c0.2-0.433,0.25-0.783,0.15-1.05c-0.434,0.1-0.7,0.017-0.8-0.25
		c-0.033-0.367-0.084-0.667-0.15-0.9c-0.166-0.833-0.366-1.267-0.6-1.3c-0.2-0.033-0.75,0.017-1.65,0.15
		c-0.066-1.4,0-2.383,0.2-2.95c0.1,1.3,0.434,1.883,1,1.75c0.4-0.067,0.65-0.417,0.75-1.05c0.033-0.733,0.05-1.233,0.05-1.5
		c0.101,0.567,0.167,0.883,0.2,0.95c0.134,0.333,0.384,0.45,0.75,0.35c0.167-0.367,0.267-0.867,0.3-1.5c0-0.7,0.017-1.217,0.05-1.55
		c0.034,0.167,0.15,0.417,0.351,0.75c0.3-0.3,0.416-0.966,0.35-2c0.233,0.367,0.717,0.434,1.45,0.2c0.066-0.433,0.066-1.3,0-2.6
		c0.134,0.6,0.467,0.817,1,0.65c0.1-0.667-0.033-1.966-0.4-3.9c0.534-0.1,0.784-0.35,0.75-0.75c0-0.033,0-0.066,0-0.1
		c0.233,0.333,0.367,0.55,0.4,0.65c0.2,0.466,0.233,0.983,0.1,1.55c-0.199,0.733-0.283,1.2-0.25,1.4
		c0.067,0.633,0.367,1.567,0.9,2.8c0.267,1,0.15,2.233-0.35,3.7c0.133,0.067,0.267,0.15,0.399,0.25
		C47.083,22.933,47.116,22.967,47.15,23z M5.7,56.3l0.05,0.25v0.05c0.033,0.067,0.067,0.15,0.1,0.25
		c0.033,0.034,0.066,0.067,0.1,0.101l0.1,0.2c0.067-0.034,0.117-0.067,0.15-0.101l0.65,0.05c0.333,0,0.783-0.133,1.35-0.399
		c0.433-0.2,0.867-0.25,1.3-0.15l0.45,0.101c0.667,0.133,1.183,0.017,1.55-0.351l0.55-0.6h0.7V55c0.167-0.1,0.333-0.15,0.5-0.15
		c0.367,0,0.7-0.017,1-0.05l0.05-1.25v-0.2h0.4c0.633,0,1-0.033,1.1-0.1c0.1-0.033,0.184-0.116,0.25-0.25l0.25-0.5
		c0.2-0.2,0.317-0.3,0.35-0.3c0.133,0,0.383-0.033,0.75-0.101l0.1-0.05c0.633-0.066,0.983-0.217,1.05-0.45
		c0.034-0.399,0.117-0.8,0.25-1.199c0.367-0.2,0.6-0.384,0.7-0.551l0.15-0.55c0.1-0.399,0.15-0.8,0.15-1.2
		c0.167-0.033,0.5-0.05,1-0.05c0.8,0.066,1.534,0.05,2.2-0.05c-0.467,0.467-0.783,0.733-0.95,0.8c-0.1,0.033-0.6,0.05-1.5,0.05
		c0,0.467-0.117,0.817-0.35,1.051c-0.1,0.133-0.317,0.35-0.65,0.649L19,51.4l-0.25,0.55H18.6v0.3c-0.2,0.434-0.617,0.7-1.25,0.8
		c-0.767,0.134-1.167,0.2-1.2,0.2l-0.35,1.1c-0.3,0.934-0.716,1.567-1.25,1.9c-0.333,0.2-0.833,0.3-1.5,0.3
		c-0.833-0.033-1.35-0.033-1.55,0c-0.1,0.033-0.183,0.117-0.25,0.25c-0.067,0.134-0.133,0.2-0.2,0.2
		c-0.1,0.033-0.617,0.05-1.55,0.05c-0.367,0-0.8,0-1.3,0c-0.3,0.033-0.6,0.217-0.9,0.55c-0.167,0.2-0.333,0.483-0.5,0.851
		c-0.133,0.267-0.267,0.434-0.4,0.5c-0.066-0.033-0.117-0.05-0.15-0.05H6.2c-0.667-0.334-1.133-0.517-1.4-0.551
		c0-0.966-0.45-1.483-1.35-1.55C3.383,56.634,3.333,56.5,3.3,56.4h0.05L5.7,56.3z M45,10.9l0.05,0.4l-1-0.65
		C44.25,10.383,44.566,10.467,45,10.9z"/>
	<path style="fill-rule:evenodd;clip-rule:evenodd;fill:#524C23;" d="M45.95,6.25v0.1c0,0.1,0,0.183,0,0.25L45.7,7.35
		C45.667,7.383,45.634,7.433,45.6,7.5l-0.05,0.05c-0.133,0.167-0.333,0.4-0.6,0.7L44.6,6.95C45.267,6.55,45.717,6.317,45.95,6.25z
		 M45.2,11.15c0,0.067,0.017,0.117,0.05,0.15c0.1,0.3,0.2,0.567,0.3,0.8l0.3,0.45c0,0.034,0,0.067,0,0.1
		c0.034,0.4-0.216,0.65-0.75,0.75c0.367,1.934,0.5,3.233,0.4,3.9c-0.533,0.167-0.866-0.05-1-0.65c0.066,1.3,0.066,2.167,0,2.6
		c-0.733,0.233-1.217,0.167-1.45-0.2c0.066,1.034-0.05,1.7-0.35,2c-0.2-0.333-0.316-0.583-0.351-0.75
		c-0.033,0.333-0.05,0.85-0.05,1.55c-0.033,0.633-0.133,1.133-0.3,1.5c-0.366,0.1-0.616-0.017-0.75-0.35
		c-0.033-0.067-0.1-0.383-0.2-0.95c0,0.267-0.017,0.767-0.05,1.5c-0.1,0.633-0.35,0.983-0.75,1.05c-0.566,0.133-0.9-0.45-1-1.75
		c-0.2,0.566-0.267,1.55-0.2,2.95c0.9-0.133,1.45-0.183,1.65-0.15c0.233,0.033,0.434,0.467,0.6,1.3
		c0.066,0.233,0.117,0.533,0.15,0.9c0.1,0.267,0.366,0.35,0.8,0.25c0.1,0.267,0.05,0.617-0.15,1.05
		c-0.166,0.4-0.316,0.583-0.449,0.55c0.433,1.133,0.233,1.833-0.601,2.1c-0.533,0.134-0.866,0.066-1-0.2
		c0.066,1.301-0.017,2.067-0.25,2.301c-0.626-0.429-0.876-1.212-0.75-2.351c-0.113,0.799-0.597,1.148-1.45,1.05
		C36.9,32.467,36.55,32,36.55,31.2c-0.066,0.866-0.366,1.399-0.899,1.6C35.116,33,34.5,32.7,33.8,31.9c0,0.199,0.017,0.5,0.05,0.899
		c0,0.334-0.1,0.584-0.3,0.75c-0.267,0.2-0.767,0.2-1.5,0c-0.399-0.1-0.899-0.233-1.5-0.399c0,0.5,0.017,0.783,0.05,0.85
		c-0.267-0.4-0.649-0.767-1.149-1.1c-0.533-0.367-1.017-0.567-1.45-0.601c0.066,0.5,0.5,1.101,1.3,1.8
		c-0.5,0.301-1.483,0.384-2.95,0.25c-1.467-0.166-2.45-0.1-2.95,0.2c0.033,0.033,0.9,0.3,2.6,0.8c1.233,0.367,1.9,0.867,2,1.5
		c-0.267-0.066-0.5,0-0.7,0.2c0.133,0.2,0.367,0.283,0.7,0.25c0.066-0.133,0.066-0.283,0-0.45c0.4,0.167,0.65,0.483,0.75,0.95
		c0-0.033,0.366-0.616,1.1-1.75c0.267,0.066,0.45,0.267,0.551,0.601c0.133,0.366,0.267,0.6,0.399,0.699
		c0.367,0.2,1.117-0.183,2.25-1.149c1.167-0.934,1.917-1.316,2.25-1.15c0,0.867-0.033,1.517-0.1,1.95c0.434-0.3,0.767-0.533,1-0.7
		c0.399-0.233,0.767-0.316,1.1-0.25c0.233,0.367,0.316,0.934,0.25,1.7c0.134-0.767,0.533-1.217,1.2-1.35
		c0.733-0.2,0.983,0.233,0.75,1.3c0.4-0.667,0.8-0.95,1.2-0.851c0.399,0.067,0.616,0.467,0.649,1.2c0.301,0.033,0.467,0.2,0.5,0.5
		c0,0.267-0.1,0.533-0.3,0.8c0.634-0.066,1.134-0.1,1.5-0.1c0.601-0.033,1.033,0.066,1.3,0.3c-0.133,0.267-0.383,0.601-0.75,1
		c0.767,0.101,1.334,0.2,1.7,0.3c0.033,0.233-0.033,0.65-0.2,1.25c-0.133,0.534-0.166,0.934-0.1,1.2c0.1,0.566,0.7,0.884,1.8,0.95
		v0.25c-0.467,0.267-1.1,0.283-1.899,0.05c-0.767-0.233-1.317-0.566-1.65-1c0.1,0.7,0.017,1.2-0.25,1.5
		c-0.267,0.334-0.733,0.334-1.4,0c-0.166-0.1-0.383-0.25-0.649-0.45c-0.2-0.133-0.4-0.233-0.601-0.3l-0.75,0.25
		c0-1.5-0.433-2.066-1.3-1.7c0.033,0.134,0.017,0.351-0.05,0.65c-0.934-1.033-1.483-1.616-1.65-1.75c-0.933-0.833-1.6-1.066-2-0.7
		c-0.199,0.167-0.199,0.467,0,0.9c0.101,0.2,0.25,0.483,0.45,0.85l-1.2-0.2c0,0.134-0.033,0.417-0.1,0.851
		c-0.1,0.033-0.267,0.05-0.5,0.05c-0.2,0-0.35,0.033-0.45,0.1c-0.133,0.067-0.267,0.217-0.399,0.45
		c-0.167,0.267-0.284,0.434-0.351,0.5c-0.366,0.233-0.633,0.3-0.8,0.2c-0.1-0.066-0.333-0.217-0.7-0.45
		c-0.267-0.1-0.733-0.35-1.399-0.75c-0.567-0.333-1.101-0.566-1.601-0.7C26.717,42.65,26.2,42.833,26,43.4
		c-0.133,0.333-0.283,0.916-0.45,1.75c-0.033,0.066-0.15,0.183-0.35,0.35c-0.167,0.134-0.284,0.267-0.35,0.4
		c-0.067,0.133-0.117,0.399-0.15,0.8c-0.034,0.366-0.1,0.616-0.2,0.75c-0.333,0.1-0.65,0.133-0.95,0.1
		c-0.1,0.033-0.283,0.184-0.55,0.45c-0.667,0.1-1.4,0.116-2.2,0.05v-0.2L22,47.8c0.2-1.2,0.3-2.1,0.3-2.7l1.65-0.05
		c-0.167-0.467-0.217-0.866-0.15-1.2c0.8-0.199,1.367-0.3,1.7-0.3c-0.033-0.767-0.05-1.383-0.05-1.85c0.033-0.8,0.3-1.184,0.8-1.15
		c0-0.267-0.117-0.616-0.35-1.05c-0.233-0.467-0.35-0.833-0.35-1.1c0.167-0.101,0.317-0.15,0.45-0.15
		c-0.067-0.333-0.717-1.116-1.95-2.35c-1.033-1.067-1.367-2.017-1-2.851c0.467-0.066,0.784-0.083,0.95-0.05
		c-1.233-2-1.633-3.233-1.2-3.7c0.3-0.4,0.717-0.417,1.25-0.05c0.4,0.733,0.817,1.25,1.25,1.55c-0.133-0.633-0.55-1.15-1.25-1.55
		c-0.767-1.233-1.117-2.283-1.05-3.15c0.6,0.233,1.283,0.617,2.05,1.15c0.367-0.6,0.784-0.8,1.25-0.6l0.05,0.2l0.05-0.15
		c0.5,0.267,1,0.867,1.5,1.8c0.433,0.833,0.667,1.5,0.7,2c0.233-0.7,0.601-0.733,1.101-0.1c0.399,0.533,0.666,1.066,0.8,1.6
		c0.167-0.366,0.5-0.533,1-0.5c0.467,0.066,0.816,0.25,1.05,0.55c0.033-0.033,0.316-0.45,0.851-1.25
		c0.366-0.566,0.75-0.649,1.149-0.25c0.101-0.1,0.167-0.35,0.2-0.75c0.033-0.333,0.116-0.55,0.25-0.65
		c0.2-0.133,0.434-0.15,0.7-0.05c0.333,0.167,0.566,0.267,0.7,0.3c-0.233-0.667-0.367-1.183-0.4-1.55c0.167-0.467,0.25-0.9,0.25-1.3
		c-0.134-0.9-0.184-1.483-0.15-1.75c0.101-0.5,0.551-0.6,1.351-0.3c-0.101-0.4-0.384-1.05-0.851-1.95c-0.399-0.833-0.649-1.5-0.75-2
		C35.95,20.683,36.1,21,36.3,21.5c0.134,0.367,0.316,0.633,0.55,0.8c0.134-0.367,0.134-0.833,0-1.4l-0.3-1.45l0.7,0.3
		c0.033-0.233,0.017-0.6-0.05-1.1l0.05,0.05c0.033-0.333,0.033-0.7,0-1.1c0.434,0,0.767-0.017,1-0.05l0.3-2.6
		c-0.066-0.867-0.083-1.534-0.05-2c0.033-0.9,0.3-1.367,0.8-1.4l0.05,0.2l0.101-0.2l0.3,0.05c0.066-0.2,0.066-0.434,0-0.7
		c0.1-0.333,0.233-1.066,0.4-2.2c0.166-0.1,0.35-0.117,0.55-0.05c0.2,0.1,0.383,0.133,0.55,0.1c0.267-0.067,0.467-0.167,0.6-0.3
		c0.367-0.367,0.567-0.567,0.601-0.6c0.233-0.2,0.5-0.317,0.8-0.35c0.434-0.1,0.7-0.167,0.8-0.2l0.5-0.3l0.2,1.85L44.8,8.8v0.05
		C44.733,9.083,44.767,9.467,44.9,10l0.1,0.9c-0.434-0.433-0.75-0.517-0.95-0.25l1,0.65L45,10.9L45.2,11.15z M17.5,52.05
		c-0.167-1.166-0.15-1.899,0.05-2.2c0.2-0.366,0.9-0.55,2.1-0.55l-0.15,0.55c-0.1,0.167-0.333,0.351-0.7,0.551
		c-0.133,0.399-0.216,0.8-0.25,1.199C18.483,51.833,18.133,51.983,17.5,52.05z M16.05,53c-0.066,0.134-0.15,0.217-0.25,0.25
		c-0.1,0.066-0.466,0.1-1.1,0.1C15.1,53.184,15.55,53.066,16.05,53z M9.95,56.65c0.133-0.233,0.233-0.351,0.3-0.351h1.25
		C11.133,56.667,10.617,56.783,9.95,56.65z M13.25,54.85L13.5,54.4c0.3-0.4,0.567-0.684,0.8-0.851l-0.05,1.25
		C13.95,54.833,13.617,54.85,13.25,54.85z"/>
	<path style="fill-rule:evenodd;clip-rule:evenodd;fill:#363217;" d="M18.75,51.95L19,51.4l0.55-0.851
		c0.333-0.3,0.55-0.517,0.65-0.649c0.233-0.233,0.35-0.584,0.35-1.051c0.9,0,1.4-0.017,1.5-0.05c0.167-0.066,0.483-0.333,0.95-0.8
		c0.267-0.267,0.45-0.417,0.55-0.45c0.3,0.033,0.617,0,0.95-0.1l0.6-0.15c0.5-0.267,0.883-0.583,1.15-0.95
		c0.833-0.399,2.083-0.566,3.75-0.5c0.033,0.101,0.033,0.384,0,0.851c0,0.399,0.083,0.684,0.25,0.85
		c0.1,0.101,0.316,0.117,0.65,0.05c0.366-0.066,0.583-0.083,0.649-0.05c0.367,0.233,0.617,0.367,0.75,0.4
		c0.467,0.133,0.851,0.133,1.15,0c0.366-0.233,0.684-0.45,0.95-0.65c0.333-0.2,0.733-0.333,1.199-0.399
		c0.634-0.101,1.051-0.184,1.25-0.25c0.634,1.566,2.2,1.466,4.7-0.301c0.334,0.667,1.184,1.034,2.55,1.101
		c1.134,0.033,2.067-0.101,2.801-0.4c0.5-0.399,0.983-0.649,1.449-0.75c0.7,0.134,1.184,0.066,1.45-0.2
		c0.434-0.433,0.533-1.216,0.3-2.35c-0.267-1.267-0.783-1.833-1.55-1.7c0.033-0.733,0.017-1.283-0.05-1.649
		c-0.134,0-0.434-0.051-0.9-0.15c0.267-0.733,0.367-1.3,0.301-1.7c-0.334-0.166-0.733-0.2-1.2-0.1c-0.2,0.033-0.601,0.133-1.2,0.3
		c-0.1-0.267-0.116-0.583-0.05-0.95c-0.533-0.1-0.884-0.316-1.05-0.649c-0.101-0.267-0.134-0.7-0.101-1.301
		c-0.267-0.033-0.733-0.05-1.399-0.05c-0.5-0.033-0.817-0.267-0.95-0.7l-1.15-0.05c-0.133-0.033-0.333-0.149-0.6-0.35
		c-0.233-0.2-0.483-0.334-0.75-0.4c-0.7,0.2-1.384,0.3-2.05,0.3c0.767-0.267,1.399-0.383,1.899-0.35l0.15,0.05
		c1.066-0.3,1.934-0.75,2.6-1.35c0.8-0.667,1.233-1.45,1.3-2.351c0.067-0.533,0.067-1.399,0-2.6c-0.1-1.2-0.116-2.1-0.05-2.7
		c1.834,0.133,3.117-0.633,3.851-2.3c0.233,0.233,0.333,0.567,0.3,1v0.15c-0.033,0.067-0.05,0.117-0.05,0.15
		c0,0.067-0.017,0.15-0.051,0.25c-0.033,0.1-0.066,0.2-0.1,0.3c-0.134,0.333-0.3,0.717-0.5,1.15c-0.066,0.333-0.217,1.1-0.45,2.3
		c-0.166,1.034-0.35,1.851-0.55,2.45c0.366,0.1,0.783,0.116,1.25,0.05c0.566,1.134,0.767,2.934,0.6,5.4
		c0.4,0.066,0.667,0.083,0.801,0.05l0.3,1.65c0.399,0,0.684-0.067,0.85-0.2c0.334,0.3,0.55,0.883,0.65,1.75
		c0.066,0.5,0.133,1.166,0.2,2c0.633-0.167,1.1-0.033,1.399,0.399c0.134,0.233,0.3,0.784,0.5,1.65c0.267-0.2,0.467-0.366,0.601-0.5
		c0.066,0.134,0.166,0.316,0.3,0.55c1.066-0.233,1.75-0.316,2.05-0.25c0.1,0.634,0.3,1.033,0.6,1.2c0.167,0.1,0.584,0.184,1.25,0.25
		c0.301,0.7,0.117,1.35-0.55,1.95c-0.5,0.467-1.1,0.783-1.8,0.95c0.134,0.6-0.083,0.949-0.65,1.05
		c-0.333,0.066-0.85,0.083-1.55,0.05L51.15,49c-0.134,0.066-0.367,0.333-0.7,0.8c-1.267,0.601-2.5,0.816-3.7,0.65l-0.95-0.7
		l-1.05-0.4c-0.833-0.233-2.033-0.35-3.6-0.35L40.3,48.9c-0.366-0.034-0.616-0.017-0.75,0.05c-0.133,0.1-0.233,0.233-0.3,0.399
		c-0.066,0.2-0.134,0.334-0.2,0.4c-0.133,0.1-0.3,0.316-0.5,0.65c-0.233,0.199-0.517,0.149-0.85-0.15
		c-0.467,0.733-1.05,0.95-1.75,0.65c-0.667-0.334-0.983-0.967-0.95-1.9c-1.333,0.4-2.333,0.65-3,0.75
		c-1.167,0.1-2.217-0.066-3.15-0.5l-0.1-0.6c-0.933-0.167-1.967-0.051-3.1,0.35c-1.4,0.467-2.367,0.717-2.9,0.75
		c0.033,0.167,0.033,0.483,0,0.95c-0.3,0.066-0.667,0.267-1.1,0.6c-0.433,0.3-0.783,0.483-1.05,0.55
		C20.2,51.983,19.583,52.017,18.75,51.95z M6.45,59c0-0.033-0.017-0.05-0.05-0.05c0.133-0.066,0.267-0.233,0.4-0.5
		c0.167-0.367,0.333-0.65,0.5-0.851c0.3-0.333,0.6-0.517,0.9-0.55c0.5,0,0.933,0,1.3,0c0.933,0,1.45-0.017,1.55-0.05
		c0.067,0,0.133-0.066,0.2-0.2c0.067-0.133,0.15-0.217,0.25-0.25c0.2-0.033,0.717-0.033,1.55,0c0.667,0,1.167-0.1,1.5-0.3
		c0.534-0.333,0.95-0.967,1.25-1.9l0.35-1.1c0.033,0,0.434-0.066,1.2-0.2c0.633-0.1,1.05-0.366,1.25-0.8
		c0,0.233-0.017,0.45-0.05,0.65l-0.15,0.5c-0.1,0.233-0.233,0.433-0.4,0.6s-0.333,0.3-0.5,0.4c-0.3,0.166-0.65,0.25-1.05,0.25
		c0,0.966-0.017,1.466-0.05,1.5c-0.066,0.133-0.316,0.333-0.75,0.6c-0.4,0.267-0.683,0.434-0.85,0.5
		c-1.167,0.667-2.283,1.066-3.35,1.2c-0.4,0.066-1,0.2-1.8,0.399c-0.8,0.233-1.417,0.367-1.85,0.4c-0.333,0.033-0.667-0.017-1-0.15
		H6.7C6.633,59.066,6.55,59.033,6.45,59z"/>
</g>
</svg>
