<?xml version="1.0" encoding="iso-8859-1"?>
<!-- Generator: Adobe Illustrator 15.1.0, SVG Export Plug-In . SVG Version: 6.00 Build 0)  -->
<!DOCTYPE svg PUBLIC "-//W3C//DTD SVG 1.1//EN" "http://www.w3.org/Graphics/SVG/1.1/DTD/svg11.dtd">
<svg version="1.1" id="action" xmlns="http://www.w3.org/2000/svg" xmlns:xlink="http://www.w3.org/1999/xlink" x="0px" y="0px"
	 width="300px" height="150px" viewBox="0 0 300 150" style="enable-background:new 0 0 300 150;" xml:space="preserve">
<symbol  id="cloud1" viewBox="-209.15 -110.444 418.366 220.876">
	<g id="Layer_1_2_">
		<g>
			<g>
				
					<radialGradient id="SVGID_1_" cx="53.5752" cy="40.3003" r="59.2477" gradientTransform="matrix(1 0 0 -0.8294 0 73.7241)" gradientUnits="userSpaceOnUse">
					<stop  offset="0" style="stop-color:#FFFFFF;stop-opacity:0.498"/>
					<stop  offset="0.9647" style="stop-color:#FFFFFF;stop-opacity:0"/>
				</radialGradient>
				<path style="fill-rule:evenodd;clip-rule:evenodd;fill:url(#SVGID_1_);" d="M53.55-8.85c-16.367,0-30.333,4.8-41.9,14.4
					C0.083,15.15-5.7,26.733-5.7,40.3c0,13.566,5.783,25.15,17.35,34.75c11.566,9.601,25.533,14.4,41.9,14.4s30.35-4.8,41.95-14.4
					c11.567-9.6,17.35-21.183,17.35-34.75c0-13.567-5.783-25.15-17.35-34.75C83.9-4.05,69.917-8.85,53.55-8.85z"/>
				
					<radialGradient id="SVGID_2_" cx="4253.832" cy="2474.416" r="58.0521" gradientTransform="matrix(0.927 0.375 0.3862 -0.7967 -4998.9463 390.9209)" gradientUnits="userSpaceOnUse">
					<stop  offset="0" style="stop-color:#FFFFFF;stop-opacity:0.498"/>
					<stop  offset="0.9647" style="stop-color:#FFFFFF;stop-opacity:0"/>
				</radialGradient>
				<path style="fill-rule:evenodd;clip-rule:evenodd;fill:url(#SVGID_2_);" d="M-77.75,62.75c14.9-4.8,25.434-13.583,31.6-26.35
					c6.2-12.733,6.233-25.75,0.1-39.05c-6.1-13.267-16.583-22.917-31.45-28.95c-14.866-6-29.733-6.617-44.6-1.85
					c-14.867,4.8-25.4,13.583-31.601,26.35c-6.199,12.767-6.233,25.8-0.1,39.1c6.1,13.267,16.583,22.9,31.45,28.9
					C-107.517,66.934-92.65,67.55-77.75,62.75z"/>
				
					<radialGradient id="SVGID_3_" cx="108.0752" cy="9.0254" r="50.8745" gradientTransform="matrix(1 0 0 -0.9614 0 17.7031)" gradientUnits="userSpaceOnUse">
					<stop  offset="0" style="stop-color:#FFFFFF;stop-opacity:0.498"/>
					<stop  offset="0.9647" style="stop-color:#FFFFFF;stop-opacity:0"/>
				</radialGradient>
				<path style="fill-rule:evenodd;clip-rule:evenodd;fill:url(#SVGID_3_);" d="M159,9.05c0-13.533-4.966-25.067-14.9-34.6
					c-9.966-9.566-21.983-14.35-36.05-14.35c-14.067,0-26.067,4.784-36,14.35c-9.934,9.533-14.9,21.067-14.9,34.6
					c0,13.5,4.966,25.017,14.9,34.55c9.933,9.567,21.933,14.35,36,14.35c14.066,0,26.083-4.783,36.05-14.35
					C154.034,34.067,159,22.55,159,9.05z"/>
				
					<radialGradient id="SVGID_4_" cx="715.334" cy="604.2676" r="75.4264" gradientTransform="matrix(0.9975 0.0704 0.063 -0.7171 -781.1641 438.9893)" gradientUnits="userSpaceOnUse">
					<stop  offset="0" style="stop-color:#FFFFFF;stop-opacity:0.498"/>
					<stop  offset="0.9647" style="stop-color:#FFFFFF;stop-opacity:0"/>
				</radialGradient>
				<path style="fill-rule:evenodd;clip-rule:evenodd;fill:url(#SVGID_4_);" d="M20.3,98.05c15.6-9.533,24.066-21.767,25.4-36.7
					c0.633-7.333-0.733-14.5-4.1-21.5C38.367,33.117,33.5,27,27,21.5C13.233,9.9-4.033,3.383-24.8,1.95
					C-45.6,0.483-63.8,4.5-79.4,14c-15.633,9.534-24.1,21.767-25.4,36.7c-0.633,7.333,0.717,14.5,4.05,21.5
					c3.233,6.733,8.1,12.85,14.6,18.35c13.767,11.601,31.05,18.134,51.85,19.601C-13.533,111.584,4.667,107.55,20.3,98.05z"/>
			</g>
			
				<radialGradient id="SVGID_5_" cx="710.5894" cy="550.1523" r="75.425" gradientTransform="matrix(0.9975 0.0704 0.063 -0.7171 -773.0215 346.2676)" gradientUnits="userSpaceOnUse">
				<stop  offset="0" style="stop-color:#FFFFFF;stop-opacity:0.498"/>
				<stop  offset="0.9647" style="stop-color:#FFFFFF;stop-opacity:0"/>
			</radialGradient>
			<path style="fill-rule:evenodd;clip-rule:evenodd;fill:url(#SVGID_5_);" d="M-100.75,17.95c3.233,6.733,8.1,12.85,14.6,18.35
				C-72.383,47.9-55.1,54.434-34.3,55.9c20.767,1.466,38.967-2.567,54.6-12.1c15.6-9.5,24.066-21.733,25.4-36.7
				c0.633-7.333-0.733-14.483-4.1-21.45C38.367-21.083,33.5-27.2,27-32.7C13.233-44.3-4.033-50.833-24.8-52.3
				c-20.8-1.467-39,2.566-54.6,12.1c-15.633,9.5-24.1,21.733-25.4,36.7C-105.433,3.833-104.083,10.983-100.75,17.95z"/>
			
				<radialGradient id="SVGID_6_" cx="-1454.4375" cy="-1953.6445" r="87.7713" gradientTransform="matrix(0.9769 -0.2135 -0.1416 -0.7059 1121.0386 -1735.145)" gradientUnits="userSpaceOnUse">
				<stop  offset="0" style="stop-color:#FFFFFF;stop-opacity:0.498"/>
				<stop  offset="0.9647" style="stop-color:#FFFFFF;stop-opacity:0"/>
			</radialGradient>
			<path style="fill-rule:evenodd;clip-rule:evenodd;fill:url(#SVGID_6_);" d="M-75.1,11.5c19.167,8.434,40.583,10.067,64.25,4.9
				c23.667-5.167,42.667-15.633,57-31.4c6.767-7.466,11.583-15.366,14.45-23.7c2.934-8.667,3.567-17.2,1.9-25.6
				c-1.7-8.4-5.566-15.95-11.6-22.65c-5.833-6.467-13.284-11.684-22.35-15.65c-19.167-8.434-40.583-10.067-64.25-4.9
				c-23.667,5.167-42.667,15.634-57,31.4c-6.767,7.433-11.583,15.333-14.45,23.7c-2.933,8.633-3.566,17.15-1.9,25.55
				c1.7,8.4,5.566,15.95,11.6,22.65C-91.616,2.267-84.167,7.5-75.1,11.5z"/>
			
				<radialGradient id="SVGID_7_" cx="764.8594" cy="524.8359" r="75.4254" gradientTransform="matrix(0.9975 0.0704 0.063 -0.7171 -769.2119 302.8906)" gradientUnits="userSpaceOnUse">
				<stop  offset="0" style="stop-color:#FFFFFF;stop-opacity:0.498"/>
				<stop  offset="0.9647" style="stop-color:#FFFFFF;stop-opacity:0"/>
			</radialGradient>
			<path style="fill-rule:evenodd;clip-rule:evenodd;fill:url(#SVGID_7_);" d="M97.95-35.75c-3.233-6.733-8.1-12.85-14.6-18.35
				c-13.767-11.6-31.033-18.134-51.8-19.6c-20.767-1.467-38.967,2.566-54.6,12.1c-15.633,9.533-24.1,21.767-25.4,36.7
				c-0.633,7.333,0.716,14.483,4.05,21.45c3.233,6.733,8.117,12.85,14.65,18.35c13.767,11.6,31.034,18.133,51.8,19.6
				c20.767,1.467,38.966-2.566,54.6-12.1c15.6-9.5,24.066-21.733,25.4-36.7C102.684-21.633,101.317-28.783,97.95-35.75z"/>
			
				<radialGradient id="SVGID_8_" cx="828.2021" cy="484.124" r="75.4269" gradientTransform="matrix(0.9975 0.0704 0.063 -0.7171 -763.0859 233.1338)" gradientUnits="userSpaceOnUse">
				<stop  offset="0" style="stop-color:#FFFFFF;stop-opacity:0.498"/>
				<stop  offset="0.9647" style="stop-color:#FFFFFF;stop-opacity:0"/>
			</radialGradient>
			<path style="fill-rule:evenodd;clip-rule:evenodd;fill:url(#SVGID_8_);" d="M168.8-50.4c0.667-7.333-0.684-14.5-4.05-21.5
				c-3.233-6.733-8.1-12.85-14.6-18.35c-13.767-11.6-31.05-18.116-51.85-19.55c-20.767-1.467-38.967,2.55-54.6,12.05
				c-15.6,9.534-24.066,21.767-25.4,36.7c-0.633,7.333,0.733,14.5,4.1,21.5C25.634-32.816,30.5-26.7,37-21.2
				C50.767-9.6,68.034-3.066,88.8-1.6c20.767,1.433,38.966-2.6,54.6-12.1c7.4-4.5,13.283-9.85,17.65-16.05
				C165.583-36.183,168.167-43.066,168.8-50.4z"/>
			
				<radialGradient id="SVGID_9_" cx="605.5879" cy="543.9746" r="75.4253" gradientTransform="matrix(0.9975 0.0704 0.063 -0.7171 -772.0918 335.6826)" gradientUnits="userSpaceOnUse">
				<stop  offset="0" style="stop-color:#FFFFFF;stop-opacity:0.498"/>
				<stop  offset="0.9647" style="stop-color:#FFFFFF;stop-opacity:0"/>
			</radialGradient>
			<path style="fill-rule:evenodd;clip-rule:evenodd;fill:url(#SVGID_9_);" d="M-66.25,14.2c4.534-6.433,7.117-13.317,7.75-20.65
				c0.667-7.333-0.683-14.483-4.05-21.45c-3.233-6.733-8.1-12.85-14.6-18.35c-13.8-11.6-31.083-18.133-51.85-19.6
				c-20.767-1.467-38.967,2.566-54.6,12.1c-15.601,9.5-24.066,21.733-25.4,36.7c-0.633,7.333,0.733,14.483,4.101,21.45
				c3.233,6.733,8.1,12.85,14.6,18.35c13.767,11.6,31.033,18.133,51.8,19.6s38.967-2.566,54.6-12.1
				C-76.5,25.75-70.616,20.4-66.25,14.2z"/>
			
				<radialGradient id="SVGID_10_" cx="871.7773" cy="520.8408" r="75.4239" gradientTransform="matrix(0.9975 0.0704 0.063 -0.7171 -768.6113 296.0449)" gradientUnits="userSpaceOnUse">
				<stop  offset="0" style="stop-color:#FFFFFF;stop-opacity:0.498"/>
				<stop  offset="0.9647" style="stop-color:#FFFFFF;stop-opacity:0"/>
			</radialGradient>
			<path style="fill-rule:evenodd;clip-rule:evenodd;fill:url(#SVGID_10_);" d="M209.05-10.7c0.667-7.333-0.684-14.5-4.05-21.5
				c-3.233-6.733-8.1-12.85-14.6-18.35c-13.767-11.6-31.05-18.133-51.85-19.6c-20.767-1.466-38.967,2.567-54.6,12.1
				c-15.6,9.533-24.066,21.767-25.4,36.7c-0.633,7.333,0.733,14.5,4.1,21.5c3.233,6.733,8.1,12.833,14.6,18.3
				c13.767,11.6,31.034,18.133,51.8,19.6s38.966-2.567,54.6-12.1c7.4-4.467,13.283-9.817,17.65-16.05
				C205.833,3.5,208.417-3.367,209.05-10.7z"/>
		</g>
	</g>
</symbol>
<symbol  id="snowFlakes" viewBox="-262.355 -169.489 526.915 339.015">
	<g id="Layer_1_4_">
		
			<radialGradient id="SVGID_11_" cx="16903.2305" cy="-16316.6504" r="1.8375" gradientTransform="matrix(-1 0 -0.1156 -1.2653 14946.4707 -20562.9082)" gradientUnits="userSpaceOnUse">
			<stop  offset="0.0667" style="stop-color:#FFFFFF;stop-opacity:0.8"/>
			<stop  offset="1" style="stop-color:#FFFFFF;stop-opacity:0.8"/>
		</radialGradient>
		<path style="fill-rule:evenodd;clip-rule:evenodd;fill:url(#SVGID_11_);" d="M159.35,78.125c-0.394-2.028-3.019-3.945-7.875-5.75
			h0.025c-0.751-0.217-1.401,0.042-1.95,0.775c-2,2.689-2.658,4.998-1.975,6.925c0.761,1.892,2.803,3.467,6.125,4.725
			C157.601,82.334,159.484,80.109,159.35,78.125z M102.375,85.075h0.025c0.96,1.153,2.635,1.986,5.025,2.5
			c3.399-2.024,4.982-3.641,4.75-4.851v0.051c-0.574-1.331-3.224-2.423-7.95-3.275H104.2c-1.247-0.209-2.039,0.191-2.375,1.2
			C101.282,82.503,101.465,83.962,102.375,85.075z M150.25,35.9c0.454,3.597,2.712,6.013,6.775,7.25c3.363,0.082,5.363-0.834,6-2.75
			c0.095-0.409,0.104-0.775,0.025-1.1c-0.066-0.098-0.099-0.248-0.1-0.45c-0.014-0.086,0.019-0.211,0.1-0.375V38.5
			c0.458-1.272-0.651-2.631-3.325-4.075c-0.018-0.007-0.034-0.015-0.05-0.025c-0.217-0.094-0.392-0.21-0.525-0.35
			c-0.082-0.081-0.14-0.164-0.175-0.25c-0.535-0.803-1.326-1.203-2.375-1.2c-1.372,0.009-3.08,0.526-5.125,1.55
			C150.606,34.571,150.198,35.154,150.25,35.9z M172.975,51.975c0.483,0.325,1.033,0.483,1.65,0.475
			c3.028-1.889,4.52-3.697,4.475-5.425c-0.292-1.819-2.267-3.644-5.925-5.475c-0.597-0.294-1.147-0.253-1.65,0.125L171.5,41.7
			c-2.138,1.811-3.138,3.536-3,5.175c0.273,1.735,1.756,3.435,4.45,5.1H172.975z M208.25-25.95c-0.503-2.442-2.245-3.909-5.225-4.4
			c-2.403-0.428-4.128,0.022-5.175,1.35c-1.14,1.511-1.54,3.161-1.2,4.95c0.767,3.629,3.542,5.871,8.325,6.725
			C207.869-19.492,208.96-22.367,208.25-25.95z M162.35-107.95c-0.759-1.014-1.492-1.531-2.2-1.55
			c-0.727,0.119-1.452,0.761-2.175,1.925c-1.984,3.031-2.5,6.172-1.55,9.425v0.025c0.175,0.674,0.35,1.416,0.525,2.225
			c0.262,1.098,1.112,1.739,2.55,1.925c3.097-1.817,4.921-3.875,5.475-6.175h-0.025C165.434-102.492,164.567-105.092,162.35-107.95z
			 M123.775-14.425c-0.573-0.629-1.356-1.079-2.35-1.35c-2.111-0.536-3.686,0.164-4.725,2.1c-1.255,2.375-1.488,4.5-0.7,6.375
			c0.853,1.814,2.669,3.406,5.45,4.775c2.833-1.544,4.491-3.278,4.975-5.2L126.4-7.7C126.783-9.7,125.908-11.942,123.775-14.425z
			 M28.85-45.575c0.94,1.312,2.615,2.346,5.025,3.1c3.668-1.317,5.785-2.842,6.35-4.575c0.355-1.729-0.845-3.737-3.6-6.025
			c-2.332-1.901-4.482-1.968-6.45-0.2c-0.902,0.809-1.511,1.751-1.825,2.825c-0.001,0.05-0.01,0.1-0.025,0.15
			c-0.55,1.855-0.375,3.422,0.525,4.7V-45.575z M32.875-48.725c0.019-0.081,0.052-0.147,0.1-0.2C33-48.956,33.025-48.98,33.05-49
			c0.088-0.069,0.188-0.103,0.3-0.1h0.05l-0.15,0.975c-0.073-0.024-0.14-0.049-0.2-0.075c-0.065-0.054-0.115-0.121-0.15-0.2
			C32.854-48.505,32.845-48.613,32.875-48.725z M32.5-49.45c0.006-0.033,0.014-0.067,0.025-0.1L32.5-49.4V-49.45z M35.325-50.25
			c0.079,0.049,0.154,0.099,0.225,0.15l-0.8,0.4v-0.05c0-0.073,0.017-0.14,0.05-0.2c0.016-0.045,0.041-0.087,0.075-0.125
			c0.088-0.098,0.196-0.156,0.325-0.175C35.247-50.254,35.288-50.254,35.325-50.25z M-201.7,103.05
			c1.182,1.571,3.798,2.663,7.851,3.275c2.562-1.809,3.795-3.542,3.699-5.2c-0.284-1.754-2.076-3.496-5.375-5.225
			c-2.095-1.126-3.778-0.751-5.05,1.125c-1.719,2.542-2.094,4.559-1.125,6.05V103.05z M-197.575,101.075l0.075,0.399
			c-0.052-0.073-0.094-0.148-0.125-0.225C-197.619,101.198-197.603,101.14-197.575,101.075z M-194.675,100.875l0.024,0.05
			c0.004,0.043,0.004,0.085,0,0.125L-194.675,100.875z M-195.325,102.15c-0.036,0.018-0.069,0.034-0.1,0.05
			c-0.045,0.003-0.087,0.003-0.125,0L-195.325,102.15z M-211.625,41.15c-0.494-1.51-2.136-2.893-4.925-4.15
			c-0.289-0.125-0.589-0.1-0.9,0.075l-0.024,0.025c-2.117,1.072-3.325,2.222-3.625,3.45c-0.159,1.178,0.524,2.469,2.05,3.875h-0.025
			c1.342,1.199,3.125,1.648,5.351,1.35c1.684-1.699,2.384-3.257,2.1-4.675V41.15z M-84.525,61.775h0.025
			c0.602,0.2,1.219,0.309,1.85,0.325c2.48-1.599,3.813-3.199,4-4.8c-0.036-1.6-1.244-3.241-3.625-4.925
			c-0.419-0.245-0.928-0.203-1.525,0.125h-0.025c-2.987,1.559-4.646,3.067-4.975,4.525v0.025c-0.14,1.373,0.935,2.781,3.225,4.225
			l0.025,0.025C-85.292,61.499-84.951,61.657-84.525,61.775z M-131.875,76.3c3.536-1.365,5.127-3.648,4.775-6.85
			c-0.23-1.952-0.78-3.102-1.65-3.45c-1.126-0.205-2.71,0.479-4.75,2.05c-1.898,1.471-2.898,2.854-3,4.15
			c0.032,1.241,0.924,2.45,2.675,3.625C-133.268,76.182-132.618,76.34-131.875,76.3z M-139.075,44.3
			c0.707-1.225,0.707-2.816,0-4.775v0.025c-0.541-1.278-1.724-1.979-3.55-2.1h-0.075c-1.8-0.157-3.167,0.035-4.1,0.575h0.025
			c-0.794,0.55-1.22,1.4-1.275,2.55c-0.116,3.055,1.351,5.188,4.4,6.4c2.219-0.566,3.744-1.467,4.575-2.7V44.3z M-152.85,3.625V3.65
			c0.516-1.216,0.315-2.708-0.601-4.475c-0.724-1.34-1.933-2.432-3.625-3.275c-1.547-0.764-2.806-1.039-3.774-0.825
			c-0.845,0.302-1.453,1.044-1.825,2.225c-1.316,4.191,0.675,7.249,5.975,9.175C-154.75,5.761-153.467,4.811-152.85,3.625z
			 M-77.425,79.9l0.025,0.024c1.893,3.582,4.876,6.356,8.95,8.325c1.812-0.621,2.97-1.471,3.475-2.55
			c0.362-1.182-0.021-2.656-1.15-4.425c-2.798-4.1-6.507-4.767-11.125-2h0.025C-77.492,79.436-77.558,79.644-77.425,79.9z
			 M-54.2,25.45c-1.36,1.846-1.885,3.488-1.575,4.925c0.344,1.38,1.386,2.597,3.125,3.65c2.445-1.48,3.712-2.914,3.8-4.3
			c-0.136-1.469-1.645-2.96-4.525-4.475C-53.699,25.091-53.974,25.157-54.2,25.45z M-31.75-146.125c0.2-1.703-0.525-3.52-2.175-5.45
			c-0.554-0.605-1.146-0.931-1.775-0.975c-0.738,0.016-1.538,0.366-2.4,1.05c-2.023,1.595-2.823,3.495-2.4,5.7
			c0.479,2.202,2.296,3.619,5.45,4.25C-33.138-143.004-32.038-144.529-31.75-146.125z M-44.225-111.05
			c0.45-1.756-0.241-3.764-2.075-6.025c-0.038-0.049-0.063-0.099-0.075-0.15c-0.996-0.931-2.288-0.931-3.875,0h0.025
			c-2.324,1.453-3.599,3.003-3.825,4.65v0.025c-0.085,1.683,0.84,3.491,2.775,5.425c0.061,0.017,0.12,0.05,0.175,0.1
			c0.421,0.396,0.947,0.604,1.575,0.625C-46.603-107.716-44.836-109.266-44.225-111.05z M-15.575-160.175
			c-1.283-0.821-2.299-1.137-3.05-0.95c-0.702,0.305-1.194,1.113-1.475,2.425c-1.007,4.798,1.192,8.473,6.6,11.025
			c2.437-2.028,3.586-4.028,3.45-6C-10.364-155.813-12.206-157.98-15.575-160.175z M-233.55-21.175
			c-0.377,0.405-0.527,0.864-0.45,1.375v0.025c0.575,3,2.551,5.084,5.925,6.25c2.074-0.521,3.408-1.279,4-2.275l-0.024,0.025
			c0.462-0.997,0.203-2.281-0.775-3.85c-1.2-1.88-2.5-2.989-3.9-3.325h-0.024c-1.399-0.213-2.924,0.354-4.575,1.7
			C-233.428-21.209-233.486-21.184-233.55-21.175z M-220.375-93.35l0.025-0.025c-0.601,1.312-0.034,3.029,1.699,5.15h-0.024
			c0.83,0.999,1.972,1.599,3.425,1.8c2.677-1.464,4.144-2.99,4.4-4.575v-0.025c0.101-1.571-0.982-3.254-3.25-5.05
			C-217.482-95.55-219.574-94.642-220.375-93.35z M-172.4-84.025c3.227-2.077,4.927-4.168,5.101-6.275v-0.025
			c-0.048-2.147-1.706-4.355-4.976-6.625v0.025c-1.181-0.775-2.406-0.716-3.675,0.175c-3.028,2.164-3.778,4.789-2.25,7.875
			c0.483,0.99,1.159,1.948,2.025,2.875v0.025C-175.249-84.942-173.99-84.292-172.4-84.025z M-255.375-3.525
			c2.259-1.781,3.518-3.689,3.775-5.725c0.201-2.188-0.716-4.555-2.75-7.1c-0.039-0.046-0.063-0.096-0.075-0.15
			c-0.719-0.754-1.493-1.154-2.325-1.2c-0.96,0.02-2.002,0.462-3.125,1.325c-0.024,0.042-0.059,0.084-0.1,0.125
			c-2.388,1.92-2.979,4.128-1.775,6.625C-260.471-7.003-258.346-4.97-255.375-3.525z M-255.4-70.925
			c0.173,2.147,1.632,3.464,4.375,3.95c2.086-0.662,3.402-1.587,3.95-2.775c0.391-1.249-0.043-2.824-1.3-4.725
			c-1.185-1.756-2.293-2.648-3.325-2.675c-1.044,0.157-2.077,1.215-3.1,3.175c-0.491,0.947-0.69,1.956-0.601,3.025V-70.925z
			 M-231.45-121.05c2.34-1.067,3.673-2.301,4-3.7c0.237-1.423-0.579-3.057-2.45-4.9c-1.173-1.079-2.64-1.104-4.399-0.075
			c-1.732,1.055-2.791,2.18-3.175,3.375c-0.272,1.159,0.086,2.426,1.074,3.8C-235.332-121.159-233.682-120.659-231.45-121.05z
			 M-171.75-156.475c-1.513,0.894-2.362,1.818-2.55,2.775v0.025c-0.036,0.914,0.589,1.896,1.875,2.95
			c0.794,0.707,1.678,1.398,2.649,2.075c0.077,0.013,0.151,0.046,0.226,0.1c0.578,0.412,1.221,0.645,1.925,0.7
			c1.919-1.06,3.027-2.268,3.325-3.625v-0.025c0.211-1.436-0.464-3.061-2.025-4.875v0.025
			C-167.641-157.743-169.448-157.785-171.75-156.475z"/>
		<path style="fill-rule:evenodd;clip-rule:evenodd;fill:#FFFFFF;" d="M209.65,169.5c0.033,0,0.083,0,0.15,0c0.035,0,0.069,0,0.1,0
			c0.017,0.005,0.034,0.013,0.05,0.025L210,169.5l0.425-0.175h0.025c0.2-0.068,0.4-0.068,0.6,0h0.025
			c0.043-0.014,0.093-0.038,0.15-0.075c0.037-0.065,0.063-0.141,0.075-0.225c0.017-0.086,0.05-0.161,0.1-0.226
			c0.227-0.92,0.152-1.828-0.225-2.725c-0.039-0.049-0.081-0.115-0.125-0.2v-0.025c-0.323-0.778-0.672-1.262-1.05-1.449
			c-0.073-0.025-0.148-0.067-0.225-0.125c-0.292-0.089-0.601-0.006-0.925,0.25c-0.027,0.046-0.06,0.088-0.1,0.125
			c-0.067,0.066-0.117,0.116-0.15,0.149c-0.028,0.028-0.053,0.053-0.075,0.075l-0.25,0.5c-0.071,0.191-0.096,0.384-0.075,0.575V166
			c0.094,1.069,0.361,2.044,0.8,2.925c0.018,0.036,0.034,0.069,0.05,0.101v0.024l0.025,0.025c0.042,0.069,0.092,0.136,0.15,0.2
			l0.05,0.024c0.069,0.037,0.127,0.088,0.175,0.15c0.027,0.033,0.06,0.05,0.1,0.05H209.65z M209.05,169.025
			c-0.026-0.044-0.06-0.086-0.1-0.125l-0.025,0.024c0.025,0.025,0.05,0.051,0.075,0.075
			C209.016,169.014,209.032,169.021,209.05,169.025z"/>
		
			<radialGradient id="SVGID_12_" cx="16860.1797" cy="-16086" r="1.3875" gradientTransform="matrix(-1 0 -0.1171 -1.2613 14940.0332 -20436.6484)" gradientUnits="userSpaceOnUse">
			<stop  offset="0.0667" style="stop-color:#FFFFFF;stop-opacity:0.8"/>
			<stop  offset="1" style="stop-color:#FFFFFF;stop-opacity:0.8"/>
		</radialGradient>
		<path style="fill-rule:evenodd;clip-rule:evenodd;fill:url(#SVGID_12_);" d="M263.45-20.775c-0.156-0.289-0.347-0.53-0.575-0.725
			c-0.033-0.015-0.066-0.032-0.1-0.05c-1.901-1.026-3.376-1.276-4.425-0.75v-0.025c-1.061,0.695-1.744,2.237-2.05,4.625v0.025
			c-0.454,4.004,0.955,6.262,4.225,6.775h0.025c0.242,0.05,0.483,0.067,0.725,0.05c3.463-1.946,4.188-5.263,2.175-9.95V-20.775z
			 M215.2-73.875V-73.9c-0.035-0.224-0.068-0.432-0.1-0.625c-0.002-0.026-0.002-0.051,0-0.075c-0.126-0.717-0.301-1.467-0.525-2.25
			c-0.567-1.786-1.651-2.802-3.25-3.05c-1.063-0.139-1.862,0.103-2.4,0.725h0.025c-0.63,0.801-0.947,2.093-0.95,3.875
			c-0.064,3.43,0.953,5.838,3.05,7.225C214.112-68.664,215.496-70.597,215.2-73.875z M215.4-108.35
			c0.057-0.557,0.007-1.207-0.15-1.95c-0.003-0.034-0.003-0.067,0-0.1v-0.025c-0.128-0.744-0.336-1.552-0.625-2.425v0.025
			c-0.695-1.854-1.528-2.987-2.5-3.4h0.025c-0.923-0.282-2.015,0.101-3.275,1.15c-1.031,0.945-1.44,2.37-1.225,4.275
			c0.253,2.093,1.003,3.718,2.25,4.875v0.025c0.919,0.882,1.911,1.216,2.975,1c1.463-0.718,2.305-1.852,2.525-3.4V-108.35z
			 M62.9-130.775c0.32,2.053,1.395,3.62,3.225,4.7c1.403-1.518,2.145-2.976,2.225-4.375v-0.025c0-1.42-0.767-2.804-2.3-4.15
			c-0.028-0.006-0.053-0.014-0.075-0.025c-0.067-0.033-0.133-0.067-0.2-0.1c-0.026-0.014-0.052-0.03-0.075-0.05
			c-0.492-0.391-1-0.749-1.525-1.075H64.2c-0.276-0.151-0.509-0.226-0.7-0.225c-0.152,0.166-0.269,0.449-0.35,0.85l-0.025,0.025
			c-0.084,0.353-0.143,0.678-0.175,0.975v0.1c0,0.079-0.016,0.154-0.05,0.225c-0.025,0.049-0.042,0.09-0.05,0.125v0.1
			c0.001,0.025,0.001,0.05,0,0.075c-0.064,0.439-0.098,0.831-0.1,1.175c0,0.167,0,0.3,0,0.4c0.001,0.308,0.018,0.617,0.05,0.925
			C62.857-131.008,62.891-130.892,62.9-130.775z M-86.15-143.8l-0.05,0.05v0.05l-0.025,0.05c-0.002,0.022-0.011,0.047-0.025,0.075
			c-0.791,1.509-0.774,3.217,0.05,5.125c0.86,1.979,2.102,3.32,3.725,4.025c3.042-0.512,4.534-2.47,4.475-5.875
			c-0.004-0.37-0.054-0.77-0.15-1.2c-0.004-0.033-0.004-0.066,0-0.1c0-0.033,0-0.066,0-0.1c0-0.042,0-0.083,0-0.125
			c-0.084-0.518-0.284-0.993-0.6-1.425c-0.046-0.063-0.079-0.129-0.1-0.2c-0.303-0.44-0.62-0.857-0.95-1.25
			c-0.088-0.047-0.155-0.098-0.2-0.15l-0.025-0.025c-1.164-1.276-2.264-1.818-3.3-1.625c-0.07,0.034-0.153,0.067-0.25,0.1
			c-0.255,0.124-0.464,0.232-0.625,0.325c-0.288,0.204-0.546,0.437-0.775,0.7l-0.075,0.075c-0.24,0.246-0.465,0.538-0.675,0.875
			v-0.025c-0.079,0.131-0.153,0.265-0.225,0.4c-0.032,0.154-0.107,0.262-0.225,0.325c0.038-0.066,0.072-0.142,0.1-0.225l-0.1,0.15
			H-86.15z M-86.175-143.8H-86.2v0.05L-86.175-143.8z M-90.05-162.275c-0.187,2.795,0.755,4.878,2.825,6.25
			c2.215,1.488,4.449,2.497,6.7,3.025c1.981-1.124,3.089-2.724,3.325-4.8c-0.004-0.044-0.004-0.086,0-0.125c0-0.042,0-0.083,0-0.125
			v-0.025c0.066-1.023-0.059-2.206-0.375-3.55c-0.678-2.49-1.77-4.665-3.275-6.525c-0.024-0.021-0.049-0.046-0.075-0.075
			c-0.279-0.337-0.571-0.579-0.875-0.725l0.025,0.025c-1.949-0.752-3.882-0.752-5.8,0c-0.038,0.013-0.08,0.021-0.125,0.025
			c-0.737,0.284-1.229,0.817-1.475,1.6c-0.007,0.025-0.015,0.05-0.025,0.075c-0.02,0.041-0.037,0.083-0.05,0.125
			c-0.041,0.21-0.09,0.394-0.15,0.55v0.05c0.001,0.19-0.033,0.349-0.1,0.475c-0.007,0.017-0.016,0.034-0.025,0.05L-89.55-166
			c0,0.033,0,0.067,0,0.1s0,0.066,0,0.1c0.003,0.033,0.003,0.066,0,0.1c-0.232,1.117-0.399,2.25-0.5,3.4V-162.275z"/>
		
			<radialGradient id="SVGID_13_" cx="16618.2324" cy="-16159.3496" r="3.9375" gradientTransform="matrix(-1 0 -0.1175 -1.2667 14931.6992 -20543.1602)" gradientUnits="userSpaceOnUse">
			<stop  offset="0.0667" style="stop-color:#FFFFFF;stop-opacity:0.8"/>
			<stop  offset="1" style="stop-color:#FFFFFF;stop-opacity:0.8"/>
		</radialGradient>
		<path style="fill-rule:evenodd;clip-rule:evenodd;fill:url(#SVGID_13_);" d="M216.25-74.55l-0.125-0.3v-0.025l-0.025-0.05v-0.025
			l0.075-0.075l-0.1,0.025l-0.05-0.1l-0.125,0.4v0.025h-0.025l-0.25,0.15l0.6,0.225l0.15,0.075L216.3-74.55H216.25z M216.275-74.675
			l0.025,0.125h0.2l-0.225-0.225V-74.675z M216.275-74.775V-74.8l0.025-0.15l-0.1,0.05l0.025,0.075L216.275-74.775z M216.175-74.975
			L216.15-74.9l0.025,0.025L216.2-74.9L216.175-74.975z"/>
		
			<radialGradient id="SVGID_14_" cx="16614.7227" cy="-16123.6504" r="3.9375" gradientTransform="matrix(-1 0 -0.1175 -1.2667 14932.582 -20533.6406)" gradientUnits="userSpaceOnUse">
			<stop  offset="0.0667" style="stop-color:#FFFFFF;stop-opacity:0.8"/>
			<stop  offset="1" style="stop-color:#FFFFFF;stop-opacity:0.8"/>
		</radialGradient>
		<path style="fill-rule:evenodd;clip-rule:evenodd;fill:url(#SVGID_14_);" d="M216.225-110.15h0.15
			c-0.014-0.015-0.03-0.04-0.05-0.075L216.225-110.15z"/>
		
			<radialGradient id="SVGID_15_" cx="16739.6641" cy="-16102.5" r="2.7375" gradientTransform="matrix(-1 0 -0.1142 -1.2648 14966.5283 -20498.5898)" gradientUnits="userSpaceOnUse">
			<stop  offset="0.0667" style="stop-color:#FFFFFF;stop-opacity:0.8"/>
			<stop  offset="1" style="stop-color:#FFFFFF;stop-opacity:0.8"/>
		</radialGradient>
		<path style="fill-rule:evenodd;clip-rule:evenodd;fill:url(#SVGID_15_);" d="M62.2-131.175l-0.425,0.425l0.55,0.125L62.2-131.175z
			 M62.375-134.25L62-134.05h0.35L62.375-134.25z"/>
		
			<radialGradient id="SVGID_16_" cx="16899.1602" cy="-16071.5" r="5.7875" gradientTransform="matrix(-1 0 -0.1166 -1.2678 14941.3301 -20538.2461)" gradientUnits="userSpaceOnUse">
			<stop  offset="0.0667" style="stop-color:#FFFFFF;stop-opacity:0.8"/>
			<stop  offset="1" style="stop-color:#FFFFFF;stop-opacity:0.8"/>
		</radialGradient>
		<path style="fill-rule:evenodd;clip-rule:evenodd;fill:url(#SVGID_16_);" d="M-90.575-166.25l0.45,0.35l0.15-0.55H-90.5
			L-90.575-166.25z M-76.625-157.85l-0.025,0.075l0.225-0.05L-76.55-158l-0.05-0.05l-0.025,0.175V-157.85z M-77.2-167.175l0.05,0.15
			l0.075-0.15l-0.1-0.025l-0.05-0.025L-77.2-167.175z"/>
	</g>
</symbol>
<symbol  id="streaks_1_" viewBox="-183.534 -76.705 376.046 153.671">
	<g id="Layer_1_3_">
		
			<linearGradient id="SVGID_17_" gradientUnits="userSpaceOnUse" x1="18135.875" y1="-13185.0352" x2="18304.5469" y2="-13185.0352" gradientTransform="matrix(-0.945 0.3269 -0.3269 -0.945 12988.3701 -18417.1406)">
			<stop  offset="0" style="stop-color:#BEBEBE;stop-opacity:0.6588"/>
			<stop  offset="1" style="stop-color:#FFFFFF;stop-opacity:0"/>
		</linearGradient>
		<path style="fill-rule:evenodd;clip-rule:evenodd;fill:url(#SVGID_17_);" d="M2.625,33.3c6.168-3.194,14.11-6.953,23.825-11.275
			C45.749,13.434,63.782,6.393,80.55,0.9c0.026-0.005,0.051-0.014,0.075-0.025c0.025-0.009,0.05-0.017,0.075-0.025
			c0.052,0,0.102-0.009,0.15-0.025c14.906-5.301,32.689-11.067,53.35-17.3h-0.025c16.877-5.053,25.736-7.878,26.575-8.475h-0.025
			c1.352-0.887,1.919-1.762,1.7-2.625c0.178-1.117-0.388-1.942-1.7-2.475H160.7c-0.048-0.02-0.098-0.037-0.15-0.05
			c-0.26-0.094-0.61-0.144-1.05-0.15h-0.05c-0.78-0.03-2.297,0.203-4.55,0.7c-0.076,0.017-0.151,0.042-0.225,0.075
			c-4.1,0.95-10.867,2.8-20.3,5.55C114.155-18.084,94.972-11.776,76.825-5l0.025-0.025C60.239,0.708,42.456,8.1,23.5,17.15
			c-9.486,4.478-17.228,8.37-23.225,11.675c-0.024,0.016-0.049,0.033-0.075,0.05c-0.105,0.063-0.205,0.139-0.3,0.225
			c-0.315,0.267-0.548,0.6-0.7,1c-0.03,0.06-0.055,0.118-0.075,0.175c-0.232,0.661-0.19,1.294,0.125,1.9L-0.775,32.1
			c0.028,0.068,0.061,0.135,0.1,0.2L-0.7,32.275c0.326,0.574,0.809,0.958,1.45,1.15H0.725C1.381,33.657,2.015,33.615,2.625,33.3z"/>
		
			<linearGradient id="SVGID_18_" gradientUnits="userSpaceOnUse" x1="18309.4883" y1="-12781.6289" x2="18480.9961" y2="-12781.6289" gradientTransform="matrix(-0.932 0.3624 -0.3624 -0.932 12595.3486 -18596.8105)">
			<stop  offset="0" style="stop-color:#BEBEBE;stop-opacity:0.6588"/>
			<stop  offset="1" style="stop-color:#FFFFFF;stop-opacity:0"/>
		</linearGradient>
		<path style="fill-rule:evenodd;clip-rule:evenodd;fill:url(#SVGID_18_);" d="M3.35,18.275c0.656,0.229,1.297,0.188,1.925-0.125
			c6.331-3.094,14.439-6.852,24.325-11.275C49.421-1.963,67.796-9.572,84.725-15.95h0.025c15.2-6.026,33.658-12.618,55.375-19.775
			c8.312-2.734,14.521-4.81,18.625-6.225c2.067-0.726,3.601-1.284,4.6-1.675h-0.025c0.575-0.221,1-0.396,1.275-0.525
			c0.118-0.054,0.218-0.104,0.3-0.15h0.05c0.122-0.052,0.23-0.127,0.325-0.225c0.117-0.076,0.217-0.15,0.3-0.225L165.5-44.7
			c0.143-0.111,0.259-0.228,0.35-0.35c0.569-0.741,0.744-1.425,0.525-2.05c-0.073-0.521-0.356-0.971-0.85-1.35l-0.025-0.025
			c-1.957-1.863-11.874,0.304-29.75,6.5C120.84-36.771,102.541-29.779,80.85-21h0.025C64.162-14.503,46.146-6.753,26.825,2.25
			c-9.68,4.457-17.596,8.248-23.75,11.375c-0.017,0.009-0.033,0.018-0.05,0.025C2.98,13.676,2.939,13.701,2.9,13.725L2.925,13.7
			c-0.516,0.289-0.875,0.705-1.075,1.25c-0.032,0.051-0.057,0.101-0.075,0.15c-0.213,0.615-0.188,1.215,0.075,1.8
			c0.014,0.069,0.04,0.135,0.075,0.2c0.295,0.513,0.72,0.88,1.275,1.1C3.244,18.229,3.294,18.254,3.35,18.275z"/>
		
			<linearGradient id="SVGID_19_" gradientUnits="userSpaceOnUse" x1="18302.9863" y1="-12837.1758" x2="18507.7754" y2="-12837.1758" gradientTransform="matrix(-0.932 0.3624 -0.3624 -0.932 12595.6494 -18596.6797)">
			<stop  offset="0" style="stop-color:#BEBEBE;stop-opacity:0.6588"/>
			<stop  offset="1" style="stop-color:#FFFFFF;stop-opacity:0"/>
		</linearGradient>
		<path style="fill-rule:evenodd;clip-rule:evenodd;fill:url(#SVGID_19_);" d="M4.1,76.775c0.016,0.009,0.033,0.018,0.05,0.024
			c0.018,0.009,0.035,0.017,0.05,0.025c0.648,0.223,1.29,0.181,1.925-0.125c0.096-0.046,0.179-0.096,0.25-0.15
			c6.541-2.926,14.232-6.318,23.075-10.175C53.238,55.969,75.213,46.961,95.375,39.35H95.4c18.265-7.193,40.29-15.168,66.075-23.925
			c9.874-3.351,17.249-5.884,22.125-7.6c2.447-0.873,4.264-1.54,5.45-2h0.025c0.647-0.256,1.122-0.456,1.425-0.6l-0.025,0.025
			c0.266-0.113,0.458-0.205,0.575-0.275h-0.025c0.053-0.029,0.103-0.063,0.15-0.1c0.213-0.124,0.371-0.249,0.475-0.375l-0.05,0.025
			l0.025-0.025h0.025l0.025-0.025c0.709-0.747,0.967-1.446,0.775-2.1c-0.01-0.686-0.385-1.244-1.125-1.675
			c-2.049-1.708-13.607,1.167-34.675,8.625c-17.777,6.305-39.61,14.68-65.5,25.125h0.025C71.303,42.181,49.761,51.297,26.55,61.8
			c-8.702,3.935-16.235,7.401-22.6,10.4c-0.074,0.035-0.14,0.077-0.2,0.125c-0.493,0.281-0.843,0.689-1.05,1.225
			c-0.01,0.025-0.018,0.05-0.025,0.075C2.45,74.277,2.492,74.919,2.8,75.55v-0.024c0.048,0.106,0.106,0.206,0.175,0.3
			c0.239,0.384,0.563,0.676,0.975,0.875C3.998,76.729,4.048,76.753,4.1,76.775z"/>
		
			<linearGradient id="SVGID_20_" gradientUnits="userSpaceOnUse" x1="18502.3652" y1="-11677.1826" x2="18677.3496" y2="-11677.1826" gradientTransform="matrix(-0.8926 0.4508 -0.3642 -0.9364 12264.5381 -19342.3828)">
			<stop  offset="0" style="stop-color:#BEBEBE;stop-opacity:0.6588"/>
			<stop  offset="1" style="stop-color:#FFFFFF;stop-opacity:0"/>
		</linearGradient>
		<path style="fill-rule:evenodd;clip-rule:evenodd;fill:url(#SVGID_20_);" d="M3.4-64.625c0.269-0.206,0.461-0.406,0.575-0.6
			c0.019-0.033,0.036-0.066,0.05-0.1c0.029-0.049,0.054-0.099,0.075-0.15c0.288-0.544,0.388-1.036,0.3-1.475
			c-0.04-0.626-0.349-1.143-0.925-1.55c-1.897-1.88-11.681,1.253-29.35,9.4c-14.526,6.704-32.427,15.595-53.7,26.675v-0.025
			c-16.305,8.263-33.896,17.93-52.775,29c-7.103,4.143-13.22,7.802-18.35,10.975h-0.024c-0.579,0.376-0.938,0.91-1.075,1.6v0.05
			c-0.019,0.084-0.026,0.167-0.025,0.25c-0.004,0.037-0.004,0.07,0,0.1v0.05c-0.002,0.033-0.002,0.066,0,0.1
			c-0.01,0.425,0.099,0.833,0.325,1.225c0.357,0.602,0.874,0.985,1.55,1.15c0.648,0.177,1.265,0.094,1.85-0.25
			c5.368-3.133,11.718-6.783,19.05-10.95c19.289-10.93,37.23-20.48,53.825-28.65c14.898-7.626,32.94-16.135,54.125-25.525
			c8.117-3.576,14.175-6.285,18.175-8.125c2.03-0.919,3.538-1.62,4.525-2.1c0.557-0.287,0.965-0.512,1.225-0.675L2.8-64.2
			c0.222-0.13,0.389-0.239,0.5-0.325c0.027-0.023,0.052-0.048,0.075-0.075L3.4-64.625z"/>
		
			<linearGradient id="SVGID_21_" gradientUnits="userSpaceOnUse" x1="18545.5703" y1="-12314.2988" x2="18628.8301" y2="-12314.2988" gradientTransform="matrix(-0.9152 0.403 -0.3628 -0.9329 12457.0146 -18929.8086)">
			<stop  offset="0" style="stop-color:#BEBEBE;stop-opacity:0.6588"/>
			<stop  offset="1" style="stop-color:#FFFFFF;stop-opacity:0"/>
		</linearGradient>
		<path style="fill-rule:evenodd;clip-rule:evenodd;fill:url(#SVGID_21_);" d="M-122.175,68.75c2.902-1.92,6.644-4.187,11.225-6.8
			c9.136-5.182,17.728-9.457,25.775-12.825l0.025-0.025c7.2-3.225,16.05-6.5,26.55-9.825c4.071-1.273,7.104-2.256,9.1-2.95
			c1.06-0.376,1.843-0.677,2.35-0.9h-0.025c0.363-0.151,0.63-0.276,0.8-0.375c0.316-0.184,0.541-0.367,0.675-0.55l0.05-0.05h0.025
			c0.466-0.535,0.691-1.051,0.675-1.55v-0.05c0.002-0.017,0.002-0.033,0-0.05c0.054-0.577-0.129-1.102-0.55-1.575
			c-1.47-2.37-6.97-1.87-16.5,1.5c-7.292,2.593-16.091,6.343-26.4,11.25c-0.017,0.008-0.034,0.016-0.05,0.025
			c-0.046,0.022-0.088,0.048-0.125,0.075l-0.05,0.025c-7.917,3.491-16.35,7.949-25.3,13.375c-4.527,2.771-8.21,5.154-11.05,7.15
			h0.025c-0.415,0.272-0.706,0.622-0.875,1.05c-0.094,0.134-0.16,0.284-0.2,0.45v0.05c-0.126,0.667-0.001,1.283,0.375,1.85v0.025
			c0.32,0.454,0.728,0.771,1.225,0.95c0.109,0.052,0.226,0.094,0.35,0.125h0.05C-123.362,69.251-122.745,69.126-122.175,68.75z"/>
		
			<linearGradient id="SVGID_22_" gradientUnits="userSpaceOnUse" x1="18529.2148" y1="-11656.0664" x2="18704.1992" y2="-11656.0664" gradientTransform="matrix(-0.8926 0.4508 -0.3642 -0.9364 12264.5381 -19342.3828)">
			<stop  offset="0" style="stop-color:#BEBEBE;stop-opacity:0.6588"/>
			<stop  offset="1" style="stop-color:#FFFFFF;stop-opacity:0"/>
		</linearGradient>
		<path style="fill-rule:evenodd;clip-rule:evenodd;fill:url(#SVGID_22_);" d="M-183.2,3.2c0.353,0.595,0.861,0.979,1.525,1.15
			c0.657,0.181,1.282,0.098,1.875-0.25c5.368-3.134,11.718-6.768,19.05-10.9c19.355-10.963,37.297-20.513,53.825-28.65
			c0.639-0.327,1.281-0.651,1.925-0.975c0.017-0.008,0.033-0.017,0.05-0.025c0.579-0.295,0.987-0.745,1.225-1.35
			c0.008-0.017,0.016-0.034,0.025-0.05c0.022-0.068,0.039-0.135,0.05-0.2c0.138-0.517,0.121-1.009-0.05-1.475
			c-0.017-0.044-0.034-0.086-0.05-0.125c-0.018-0.035-0.035-0.068-0.05-0.1l-0.025-0.05c-0.016-0.024-0.032-0.049-0.05-0.075
			c-0.264-0.499-0.655-0.865-1.175-1.1l0.025,0.025c-0.025-0.017-0.05-0.033-0.075-0.05c-0.534-0.228-1.076-0.269-1.625-0.125
			c-0.057,0.014-0.115,0.031-0.175,0.05h-0.025c-1.792,0.619-3.551,1.236-5.275,1.85c-0.033,0.016-0.066,0.033-0.1,0.05
			c-0.043,0.018-0.084,0.043-0.125,0.075c-0.57,0.172-1.146,0.355-1.725,0.55c-0.06,0.012-0.118,0.029-0.175,0.05
			c-0.033,0.015-0.066,0.032-0.1,0.05c-0.024,0.007-0.049,0.016-0.075,0.025c-0.976,0.499-1.959,0.999-2.95,1.5l-0.025,0.025
			c-0.992,0.524-1.992,1.049-3,1.575C-134.108-28.211-148.617-20.152-164-11.15c-7.078,4.143-13.187,7.801-18.325,10.975L-182.3-0.2
			c-0.602,0.35-0.985,0.858-1.15,1.525c-0.172,0.663-0.08,1.288,0.275,1.875H-183.2z M-28.825-71.875l-0.025,0.025
			c0.222-0.13,0.388-0.239,0.5-0.325c0.027-0.023,0.052-0.049,0.075-0.075l0.025-0.025c0.251-0.193,0.435-0.385,0.55-0.575
			l0.025-0.025c0.019-0.033,0.036-0.066,0.05-0.1c0.029-0.049,0.054-0.099,0.075-0.15c0.288-0.544,0.388-1.036,0.3-1.475
			c-0.051-0.581-0.326-1.081-0.825-1.5c-1.776-2.036-11.592,1.064-29.45,9.3c-12.471,5.748-27.354,13.082-44.65,22h0.025
			c-0.025,0.008-0.05,0.016-0.075,0.025c-0.583,0.299-0.991,0.749-1.225,1.35c-0.008,0.018-0.017,0.035-0.025,0.05
			c-0.023,0.069-0.04,0.135-0.05,0.2c-0.115,0.473-0.098,0.948,0.05,1.425c0.039,0.137,0.097,0.271,0.175,0.4
			c0.255,0.516,0.671,0.891,1.25,1.125c0.046,0.019,0.096,0.035,0.15,0.05c0.475,0.185,0.958,0.21,1.45,0.075
			c0.058-0.013,0.116-0.03,0.175-0.05h0.025c3.046-1.089,6.121-2.164,9.225-3.225c0.041-0.018,0.082-0.034,0.125-0.05l-0.1,0.05
			c0.068-0.021,0.134-0.045,0.2-0.075c0.015-0.008,0.032-0.016,0.05-0.025c0.017-0.007,0.033-0.016,0.05-0.025
			c0.017-0.008,0.034-0.017,0.05-0.025c1.192-0.575,2.401-1.15,3.625-1.725c1.193-0.575,2.402-1.15,3.625-1.725
			c9.351-4.429,19.567-9.095,30.65-14c8.116-3.577,14.175-6.285,18.175-8.125c2.03-0.92,3.539-1.62,4.525-2.1
			C-29.494-71.487-29.085-71.711-28.825-71.875z"/>
		
			<linearGradient id="SVGID_23_" gradientUnits="userSpaceOnUse" x1="18455.5469" y1="-11699.7207" x2="18630.5313" y2="-11699.7207" gradientTransform="matrix(-0.8926 0.4508 -0.3642 -0.9364 12264.5381 -19342.3828)">
			<stop  offset="0" style="stop-color:#BEBEBE;stop-opacity:0.6588"/>
			<stop  offset="1" style="stop-color:#FFFFFF;stop-opacity:0"/>
		</linearGradient>
		<path style="fill-rule:evenodd;clip-rule:evenodd;fill:url(#SVGID_23_);" d="M-66.4-6.225
			c14.539-8.026,28.264-15.218,41.175-21.575c14.898-7.626,32.94-16.135,54.125-25.525c8.117-3.576,14.175-6.285,18.175-8.125
			c2.03-0.919,3.538-1.62,4.525-2.1c0.557-0.287,0.965-0.512,1.225-0.675L52.8-64.2c0.222-0.13,0.389-0.239,0.5-0.325
			c0.027-0.023,0.052-0.048,0.075-0.075l0.025-0.025c0.269-0.206,0.46-0.406,0.575-0.6c0.018-0.034,0.035-0.067,0.05-0.1
			c0.029-0.049,0.054-0.099,0.075-0.15c0.288-0.544,0.388-1.036,0.3-1.475c-0.04-0.626-0.349-1.143-0.925-1.55
			c-1.897-1.88-11.681,1.253-29.35,9.4c-14.526,6.704-32.427,15.595-53.7,26.675v-0.025c-16.305,8.263-33.896,17.93-52.775,29
			c-7.103,4.143-13.22,7.802-18.35,10.975h-0.025c-0.579,0.376-0.938,0.91-1.075,1.6v0.05c-0.019,0.084-0.027,0.167-0.025,0.25
			c-0.004,0.037-0.004,0.07,0,0.1v0.05c-0.002,0.033-0.002,0.066,0,0.1c-0.01,0.425,0.098,0.833,0.325,1.225
			c0.167,0.282,0.367,0.515,0.6,0.7c0.268,0.208,0.576,0.357,0.925,0.45c0.082,0.022,0.165,0.039,0.25,0.05
			c0.564,0.104,1.106,0.004,1.625-0.3c3.61-2.107,7.668-4.449,12.175-7.025c2.182-1.252,4.474-2.561,6.875-3.925
			C-74.769-1.576-70.552-3.935-66.4-6.225z"/>
		
			<linearGradient id="SVGID_24_" gradientUnits="userSpaceOnUse" x1="18246.8926" y1="-12323.4502" x2="18458.5234" y2="-12323.4502" gradientTransform="matrix(-0.9169 0.399 -0.3279 -0.9479 12754.5664 -19020.252)">
			<stop  offset="0" style="stop-color:#BEBEBE;stop-opacity:0.6588"/>
			<stop  offset="1" style="stop-color:#FFFFFF;stop-opacity:0"/>
		</linearGradient>
		<path style="fill-rule:evenodd;clip-rule:evenodd;fill:url(#SVGID_24_);" d="M-66.4-6.225c-4.152,2.291-8.369,4.649-12.65,7.075
			c-2.401,1.364-4.693,2.672-6.875,3.925C-90.432,7.351-94.49,9.692-98.1,11.8c-0.519,0.305-1.061,0.405-1.625,0.3
			c-0.085-0.011-0.168-0.028-0.25-0.05c-0.349-0.092-0.657-0.242-0.925-0.45c-0.256,0.142-0.515,0.283-0.775,0.425
			c-11.59,6.336-21.074,11.736-28.45,16.2l0.025-0.025c-0.601,0.348-0.984,0.856-1.15,1.525c-0.18,0.662-0.096,1.287,0.25,1.875
			c0.342,0.589,0.842,0.972,1.5,1.15c0.666,0.177,1.299,0.085,1.9-0.275V32.5c7.598-4.336,17.34-9.586,29.225-15.75
			c23.878-12.386,46.029-22.861,66.45-31.425h0.025C-13.696-22.718,7.938-31.726,33-41.7c20.298-8.067,30.965-12.475,32-13.225
			h-0.025c1.423-0.965,2.048-1.849,1.875-2.65c0.034-0.705-0.183-1.305-0.65-1.8L66.175-59.4c-0.299-0.396-0.782-0.672-1.45-0.825
			h-0.05c-0.079-0.014-0.154-0.022-0.225-0.025c-0.264-0.042-0.589-0.042-0.975,0h-0.05c-0.837,0.101-2.587,0.601-5.25,1.5
			c-4.901,1.635-13.151,4.702-24.75,9.2C8.839-40.017-14.511-30.167-36.625-20l0.025-0.025C-46.183-15.864-56.116-11.264-66.4-6.225
			z"/>
	</g>
</symbol>
<g id="clouds">
	<g id="cloud">
	</g>
	<g id="cloud_1_">
	</g>
	<g id="cloud_2_">
	</g>
	<g id="cloud_3_">
	</g>
	<g id="cloud_4_">
	</g>
	<g id="cloud_5_">
	</g>
	<g id="cloud_6_">
	</g>
	<g id="cloud_7_">
	</g>
	<g id="cloud_8_">
	</g>
	<g id="cloud_9_">
	</g>
	<g id="cloud_10_">
	</g>
	<g id="cloud_11_">
	</g>
	<g id="cloud_12_">
	</g>
	<g id="cloud_13_">
		
			<use xlink:href="#cloud1"  width="418.366" height="220.876" x="-209.15" y="-110.444" transform="matrix(0.5839 -0.0053 -0.008 -0.2953 56.9502 100.4502)" style="overflow:visible;opacity:0;"/>
	</g>
	<g id="cloud_14_">
	</g>
	<g id="cloud_15_">
	</g>
	<g id="cloud_16_">
	</g>
	<g id="cloud_17_">
	</g>
	<g id="cloud_18_">
	</g>
	<g id="cloud_19_">
	</g>
</g>
<g id="streaks">
	<g id="streak">
	</g>
	<g id="streak_1_">
	</g>
	<g id="streak_2_">
	</g>
	<g id="streak_3_">
		
			<use xlink:href="#streaks_1_"  width="376.046" height="153.671" x="-183.534" y="-76.705" transform="matrix(0.4805 -0.0896 -0.1654 -0.2641 -4.6001 26.4502)" style="overflow:visible;opacity:0;"/>
	</g>
</g>
<g id="snow">
	<g id="snow_1_">
		
			<use xlink:href="#snowFlakes"  width="526.915" height="339.015" x="-262.355" y="-169.489" transform="matrix(0.4094 -9.155273e-005 -0.0412 -0.2592 79.75 34.5498)" style="overflow:visible;opacity:0;"/>
	</g>
	<g id="snow_2_">
	</g>
	<g id="snow_3_">
	</g>
	<g id="snow_4_">
	</g>
</g>
</svg>
